{
    "header": {
        "PPQ": 480,
        "timeSignature": [
            3,
            8
        ],
        "bpm": 145.50004728751537,
        "name": "Wandererfantasie D760, 3 Satz"
    },
    "startTime": 0,
    "duration": 217.319517000001,
    "tracks": [
        {
            "startTime": 0,
            "duration": 0,
            "length": 0,
            "notes": [],
            "controlChanges": {},
            "id": 0,
            "name": "Wandererfantasie D760, 3 Satz"
        },
        {
            "startTime": 0,
            "duration": 217.31951700000053,
            "length": 2191,
            "notes": [
                {
                    "name": "G4",
                    "midi": 67,
                    "time": 0,
                    "velocity": 0.6614173228346457,
                    "duration": 0.10309275
                },
                {
                    "name": "G#4",
                    "midi": 68,
                    "time": 0.10309275,
                    "velocity": 0.5511811023622047,
                    "duration": 0.10309275
                },
                {
                    "name": "D#4",
                    "midi": 63,
                    "time": 0.2061855,
                    "velocity": 0.5905511811023622,
                    "duration": 0.10309274999999998
                },
                {
                    "name": "C4",
                    "midi": 60,
                    "time": 0.30927825,
                    "velocity": 0.5511811023622047,
                    "duration": 0.10309275000000001
                },
                {
                    "name": "G#3",
                    "midi": 56,
                    "time": 0.412371,
                    "velocity": 0.5984251968503937,
                    "duration": 0.10309275000000001
                },
                {
                    "name": "G4",
                    "midi": 67,
                    "time": 0.6185565,
                    "velocity": 0.6692913385826772,
                    "duration": 0.10309274999999996
                },
                {
                    "name": "G#4",
                    "midi": 68,
                    "time": 0.7216492499999999,
                    "velocity": 0.5511811023622047,
                    "duration": 0.10309274999999996
                },
                {
                    "name": "D#4",
                    "midi": 63,
                    "time": 0.8247419999999999,
                    "velocity": 0.5905511811023622,
                    "duration": 0.10309274999999996
                },
                {
                    "name": "C4",
                    "midi": 60,
                    "time": 0.9278347499999998,
                    "velocity": 0.5511811023622047,
                    "duration": 0.10309274999999996
                },
                {
                    "name": "G#3",
                    "midi": 56,
                    "time": 1.0309274999999998,
                    "velocity": 0.5984251968503937,
                    "duration": 0.10309275000000007
                },
                {
                    "name": "D#4",
                    "midi": 63,
                    "time": 1.237113,
                    "velocity": 0.5905511811023622,
                    "duration": 0.30927825
                },
                {
                    "name": "C5",
                    "midi": 72,
                    "time": 1.237113,
                    "velocity": 0.5905511811023622,
                    "duration": 0.30927825
                },
                {
                    "name": "D#5",
                    "midi": 75,
                    "time": 1.237113,
                    "velocity": 0.7007874015748031,
                    "duration": 0.30927825
                },
                {
                    "name": "D#4",
                    "midi": 63,
                    "time": 1.5463912499999999,
                    "velocity": 0.5669291338582677,
                    "duration": 0.09793811250000006
                },
                {
                    "name": "C5",
                    "midi": 72,
                    "time": 1.5463912499999999,
                    "velocity": 0.5669291338582677,
                    "duration": 0.09793811250000006
                },
                {
                    "name": "D#5",
                    "midi": 75,
                    "time": 1.5463912499999999,
                    "velocity": 0.6692913385826772,
                    "duration": 0.09793811250000006
                },
                {
                    "name": "D#4",
                    "midi": 63,
                    "time": 1.649484,
                    "velocity": 0.5905511811023622,
                    "duration": 0.10309275000000007
                },
                {
                    "name": "C5",
                    "midi": 72,
                    "time": 1.649484,
                    "velocity": 0.5905511811023622,
                    "duration": 0.10309275000000007
                },
                {
                    "name": "D#5",
                    "midi": 75,
                    "time": 1.649484,
                    "velocity": 0.7007874015748031,
                    "duration": 0.10309275000000007
                },
                {
                    "name": "D#4",
                    "midi": 63,
                    "time": 1.8556695,
                    "velocity": 0.5905511811023622,
                    "duration": 0.30927825
                },
                {
                    "name": "C5",
                    "midi": 72,
                    "time": 1.8556695,
                    "velocity": 0.5905511811023622,
                    "duration": 0.30927825
                },
                {
                    "name": "D#5",
                    "midi": 75,
                    "time": 1.8556695,
                    "velocity": 0.7007874015748031,
                    "duration": 0.30927825
                },
                {
                    "name": "D#4",
                    "midi": 63,
                    "time": 2.16494775,
                    "velocity": 0.5669291338582677,
                    "duration": 0.09793811250000006
                },
                {
                    "name": "C5",
                    "midi": 72,
                    "time": 2.16494775,
                    "velocity": 0.5669291338582677,
                    "duration": 0.09793811250000006
                },
                {
                    "name": "D#5",
                    "midi": 75,
                    "time": 2.16494775,
                    "velocity": 0.6692913385826772,
                    "duration": 0.09793811250000006
                },
                {
                    "name": "D#4",
                    "midi": 63,
                    "time": 2.2680405,
                    "velocity": 0.5905511811023622,
                    "duration": 0.10309275000000007
                },
                {
                    "name": "C5",
                    "midi": 72,
                    "time": 2.2680405,
                    "velocity": 0.5905511811023622,
                    "duration": 0.10309275000000007
                },
                {
                    "name": "D#5",
                    "midi": 75,
                    "time": 2.2680405,
                    "velocity": 0.7007874015748031,
                    "duration": 0.10309275000000007
                },
                {
                    "name": "D#4",
                    "midi": 63,
                    "time": 2.4742260000000003,
                    "velocity": 0.5354330708661418,
                    "duration": 0.10309275000000007
                },
                {
                    "name": "B4",
                    "midi": 71,
                    "time": 2.4742260000000003,
                    "velocity": 0.5354330708661418,
                    "duration": 0.10309275000000007
                },
                {
                    "name": "D#5",
                    "midi": 75,
                    "time": 2.4742260000000003,
                    "velocity": 0.6299212598425197,
                    "duration": 0.10309275000000007
                },
                {
                    "name": "C5",
                    "midi": 72,
                    "time": 2.5773187500000003,
                    "velocity": 0.5748031496062992,
                    "duration": 0.10309275000000007
                },
                {
                    "name": "G#4",
                    "midi": 68,
                    "time": 2.6804115000000004,
                    "velocity": 0.5748031496062992,
                    "duration": 0.10309275000000007
                },
                {
                    "name": "D#4",
                    "midi": 63,
                    "time": 2.7835042500000005,
                    "velocity": 0.5748031496062992,
                    "duration": 0.10309275000000007
                },
                {
                    "name": "C4",
                    "midi": 60,
                    "time": 2.8865970000000005,
                    "velocity": 0.6299212598425197,
                    "duration": 0.10309275000000007
                },
                {
                    "name": "D#4",
                    "midi": 63,
                    "time": 3.0927825000000007,
                    "velocity": 0.6614173228346457,
                    "duration": 0.10309275000000007
                },
                {
                    "name": "G#4",
                    "midi": 68,
                    "time": 3.1958752500000007,
                    "velocity": 0.5826771653543307,
                    "duration": 0.10309275000000007
                },
                {
                    "name": "C5",
                    "midi": 72,
                    "time": 3.298968000000001,
                    "velocity": 0.5826771653543307,
                    "duration": 0.10309275000000007
                },
                {
                    "name": "D#5",
                    "midi": 75,
                    "time": 3.402060750000001,
                    "velocity": 0.5826771653543307,
                    "duration": 0.10309275000000007
                },
                {
                    "name": "G#5",
                    "midi": 80,
                    "time": 3.505153500000001,
                    "velocity": 0.6220472440944882,
                    "duration": 0.10309275000000007
                },
                {
                    "name": "A5",
                    "midi": 81,
                    "time": 3.711339000000001,
                    "velocity": 0.6062992125984252,
                    "duration": 0.05154637500000003
                },
                {
                    "name": "A4",
                    "midi": 69,
                    "time": 3.711339000000001,
                    "velocity": 0.5118110236220472,
                    "duration": 0.05154637500000003
                },
                {
                    "name": "A#4",
                    "midi": 70,
                    "time": 3.917524500000001,
                    "velocity": 0.5748031496062992,
                    "duration": 0.4123709999999998
                },
                {
                    "name": "A#5",
                    "midi": 82,
                    "time": 3.917524500000001,
                    "velocity": 0.6771653543307087,
                    "duration": 0.4123709999999998
                },
                {
                    "name": "D4",
                    "midi": 62,
                    "time": 4.329895500000001,
                    "velocity": 0.6692913385826772,
                    "duration": 0.10309275000000007
                },
                {
                    "name": "D#4",
                    "midi": 63,
                    "time": 4.432988250000001,
                    "velocity": 0.5511811023622047,
                    "duration": 0.10309275000000007
                },
                {
                    "name": "A#3",
                    "midi": 58,
                    "time": 4.536081000000001,
                    "velocity": 0.5905511811023622,
                    "duration": 0.10309275000000007
                },
                {
                    "name": "G3",
                    "midi": 55,
                    "time": 4.639173750000001,
                    "velocity": 0.5511811023622047,
                    "duration": 0.10309275000000007
                },
                {
                    "name": "D#3",
                    "midi": 51,
                    "time": 4.742266500000001,
                    "velocity": 0.5984251968503937,
                    "duration": 0.10309275000000007
                },
                {
                    "name": "D#4",
                    "midi": 63,
                    "time": 4.948452000000001,
                    "velocity": 0.5905511811023622,
                    "duration": 0.3092782500000002
                },
                {
                    "name": "C#5",
                    "midi": 73,
                    "time": 4.948452000000001,
                    "velocity": 0.5905511811023622,
                    "duration": 0.3092782500000002
                },
                {
                    "name": "D#5",
                    "midi": 75,
                    "time": 4.948452000000001,
                    "velocity": 0.7007874015748031,
                    "duration": 0.3092782500000002
                },
                {
                    "name": "D#4",
                    "midi": 63,
                    "time": 5.257730250000002,
                    "velocity": 0.5669291338582677,
                    "duration": 0.09793811249999962
                },
                {
                    "name": "C#5",
                    "midi": 73,
                    "time": 5.257730250000002,
                    "velocity": 0.5669291338582677,
                    "duration": 0.09793811249999962
                },
                {
                    "name": "D#5",
                    "midi": 75,
                    "time": 5.257730250000002,
                    "velocity": 0.6692913385826772,
                    "duration": 0.09793811249999962
                },
                {
                    "name": "D#4",
                    "midi": 63,
                    "time": 5.360823000000001,
                    "velocity": 0.5905511811023622,
                    "duration": 0.10309275000000007
                },
                {
                    "name": "C#5",
                    "midi": 73,
                    "time": 5.360823000000001,
                    "velocity": 0.5905511811023622,
                    "duration": 0.10309275000000007
                },
                {
                    "name": "D#5",
                    "midi": 75,
                    "time": 5.360823000000001,
                    "velocity": 0.7007874015748031,
                    "duration": 0.10309275000000007
                },
                {
                    "name": "D#4",
                    "midi": 63,
                    "time": 5.567008500000001,
                    "velocity": 0.5905511811023622,
                    "duration": 0.3092782500000002
                },
                {
                    "name": "C#5",
                    "midi": 73,
                    "time": 5.567008500000001,
                    "velocity": 0.5905511811023622,
                    "duration": 0.3092782500000002
                },
                {
                    "name": "D#5",
                    "midi": 75,
                    "time": 5.567008500000001,
                    "velocity": 0.7007874015748031,
                    "duration": 0.3092782500000002
                },
                {
                    "name": "D#4",
                    "midi": 63,
                    "time": 5.876286750000001,
                    "velocity": 0.5669291338582677,
                    "duration": 0.09793811249999962
                },
                {
                    "name": "C#5",
                    "midi": 73,
                    "time": 5.876286750000001,
                    "velocity": 0.5669291338582677,
                    "duration": 0.09793811249999962
                },
                {
                    "name": "D#5",
                    "midi": 75,
                    "time": 5.876286750000001,
                    "velocity": 0.6692913385826772,
                    "duration": 0.09793811249999962
                },
                {
                    "name": "D#4",
                    "midi": 63,
                    "time": 5.9793795,
                    "velocity": 0.5905511811023622,
                    "duration": 0.10309275000000007
                },
                {
                    "name": "C#5",
                    "midi": 73,
                    "time": 5.9793795,
                    "velocity": 0.5905511811023622,
                    "duration": 0.10309275000000007
                },
                {
                    "name": "D#5",
                    "midi": 75,
                    "time": 5.9793795,
                    "velocity": 0.7007874015748031,
                    "duration": 0.10309275000000007
                },
                {
                    "name": "D#4",
                    "midi": 63,
                    "time": 6.185565,
                    "velocity": 0.5354330708661418,
                    "duration": 0.10309275000000007
                },
                {
                    "name": "C5",
                    "midi": 72,
                    "time": 6.185565,
                    "velocity": 0.5354330708661418,
                    "duration": 0.10309275000000007
                },
                {
                    "name": "D#5",
                    "midi": 75,
                    "time": 6.185565,
                    "velocity": 0.6299212598425197,
                    "duration": 0.10309275000000007
                },
                {
                    "name": "C#5",
                    "midi": 73,
                    "time": 6.2886577500000005,
                    "velocity": 0.5748031496062992,
                    "duration": 0.10309275000000007
                },
                {
                    "name": "A#4",
                    "midi": 70,
                    "time": 6.391750500000001,
                    "velocity": 0.5748031496062992,
                    "duration": 0.10309275000000007
                },
                {
                    "name": "G4",
                    "midi": 67,
                    "time": 6.494843250000001,
                    "velocity": 0.5748031496062992,
                    "duration": 0.10309275000000007
                },
                {
                    "name": "D#4",
                    "midi": 63,
                    "time": 6.597936000000001,
                    "velocity": 0.6299212598425197,
                    "duration": 0.10309275000000007
                },
                {
                    "name": "G4",
                    "midi": 67,
                    "time": 6.804121500000001,
                    "velocity": 0.6614173228346457,
                    "duration": 0.10309275000000007
                },
                {
                    "name": "A#4",
                    "midi": 70,
                    "time": 6.907214250000001,
                    "velocity": 0.5826771653543307,
                    "duration": 0.10309275000000007
                },
                {
                    "name": "C#5",
                    "midi": 73,
                    "time": 7.010307000000001,
                    "velocity": 0.5826771653543307,
                    "duration": 0.10309275000000007
                },
                {
                    "name": "D#5",
                    "midi": 75,
                    "time": 7.113399750000001,
                    "velocity": 0.5826771653543307,
                    "duration": 0.10309275000000007
                },
                {
                    "name": "G5",
                    "midi": 79,
                    "time": 7.216492500000001,
                    "velocity": 0.6220472440944882,
                    "duration": 0.10309275000000007
                },
                {
                    "name": "B5",
                    "midi": 83,
                    "time": 7.422678000000001,
                    "velocity": 0.6062992125984252,
                    "duration": 0.05154637500000003
                },
                {
                    "name": "B4",
                    "midi": 71,
                    "time": 7.422678000000001,
                    "velocity": 0.5118110236220472,
                    "duration": 0.05154637500000003
                },
                {
                    "name": "C5",
                    "midi": 72,
                    "time": 7.628863500000001,
                    "velocity": 0.5748031496062992,
                    "duration": 0.41237100000000027
                },
                {
                    "name": "C6",
                    "midi": 84,
                    "time": 7.628863500000001,
                    "velocity": 0.6771653543307087,
                    "duration": 0.41237100000000027
                },
                {
                    "name": "G4",
                    "midi": 67,
                    "time": 8.041234500000002,
                    "velocity": 0.6692913385826772,
                    "duration": 0.10309275000000007
                },
                {
                    "name": "G#4",
                    "midi": 68,
                    "time": 8.144327250000002,
                    "velocity": 0.5511811023622047,
                    "duration": 0.10309275000000007
                },
                {
                    "name": "D#4",
                    "midi": 63,
                    "time": 8.247420000000002,
                    "velocity": 0.5905511811023622,
                    "duration": 0.10309275000000007
                },
                {
                    "name": "C4",
                    "midi": 60,
                    "time": 8.350512750000002,
                    "velocity": 0.5511811023622047,
                    "duration": 0.10309275000000007
                },
                {
                    "name": "G#3",
                    "midi": 56,
                    "time": 8.453605500000002,
                    "velocity": 0.5984251968503937,
                    "duration": 0.10309275000000007
                },
                {
                    "name": "F#4",
                    "midi": 66,
                    "time": 8.659791000000002,
                    "velocity": 0.5905511811023622,
                    "duration": 0.3092782500000002
                },
                {
                    "name": "G#4",
                    "midi": 68,
                    "time": 8.659791000000002,
                    "velocity": 0.5905511811023622,
                    "duration": 0.3092782500000002
                },
                {
                    "name": "D#5",
                    "midi": 75,
                    "time": 8.659791000000002,
                    "velocity": 0.5905511811023622,
                    "duration": 0.3092782500000002
                },
                {
                    "name": "F#5",
                    "midi": 78,
                    "time": 8.659791000000002,
                    "velocity": 0.7007874015748031,
                    "duration": 0.3092782500000002
                },
                {
                    "name": "F#4",
                    "midi": 66,
                    "time": 8.969069250000002,
                    "velocity": 0.5669291338582677,
                    "duration": 0.09793811249999962
                },
                {
                    "name": "G#4",
                    "midi": 68,
                    "time": 8.969069250000002,
                    "velocity": 0.5669291338582677,
                    "duration": 0.09793811249999962
                },
                {
                    "name": "D#5",
                    "midi": 75,
                    "time": 8.969069250000002,
                    "velocity": 0.5669291338582677,
                    "duration": 0.09793811249999962
                },
                {
                    "name": "F#5",
                    "midi": 78,
                    "time": 8.969069250000002,
                    "velocity": 0.6692913385826772,
                    "duration": 0.09793811249999962
                },
                {
                    "name": "F#4",
                    "midi": 66,
                    "time": 9.072162000000002,
                    "velocity": 0.5905511811023622,
                    "duration": 0.10309275000000007
                },
                {
                    "name": "G#4",
                    "midi": 68,
                    "time": 9.072162000000002,
                    "velocity": 0.5905511811023622,
                    "duration": 0.10309275000000007
                },
                {
                    "name": "D#5",
                    "midi": 75,
                    "time": 9.072162000000002,
                    "velocity": 0.5905511811023622,
                    "duration": 0.10309275000000007
                },
                {
                    "name": "F#5",
                    "midi": 78,
                    "time": 9.072162000000002,
                    "velocity": 0.7007874015748031,
                    "duration": 0.10309275000000007
                },
                {
                    "name": "E5",
                    "midi": 76,
                    "time": 9.278347500000002,
                    "velocity": 0.6692913385826772,
                    "duration": 0.10309275000000007
                },
                {
                    "name": "F5",
                    "midi": 77,
                    "time": 9.381440250000002,
                    "velocity": 0.5511811023622047,
                    "duration": 0.10309275000000007
                },
                {
                    "name": "C#5",
                    "midi": 73,
                    "time": 9.484533000000003,
                    "velocity": 0.5905511811023622,
                    "duration": 0.10309275000000007
                },
                {
                    "name": "G#4",
                    "midi": 68,
                    "time": 9.587625750000003,
                    "velocity": 0.5511811023622047,
                    "duration": 0.10309275000000007
                },
                {
                    "name": "F4",
                    "midi": 65,
                    "time": 9.690718500000003,
                    "velocity": 0.5984251968503937,
                    "duration": 0.10309275000000007
                },
                {
                    "name": "D#4",
                    "midi": 63,
                    "time": 9.896904000000003,
                    "velocity": 0.5905511811023622,
                    "duration": 0.3092782500000002
                },
                {
                    "name": "F4",
                    "midi": 65,
                    "time": 9.896904000000003,
                    "velocity": 0.5905511811023622,
                    "duration": 0.3092782500000002
                },
                {
                    "name": "C5",
                    "midi": 72,
                    "time": 9.896904000000003,
                    "velocity": 0.5905511811023622,
                    "duration": 0.3092782500000002
                },
                {
                    "name": "D#5",
                    "midi": 75,
                    "time": 9.896904000000003,
                    "velocity": 0.7007874015748031,
                    "duration": 0.3092782500000002
                },
                {
                    "name": "D#4",
                    "midi": 63,
                    "time": 10.206182250000003,
                    "velocity": 0.5669291338582677,
                    "duration": 0.09793811249999962
                },
                {
                    "name": "F4",
                    "midi": 65,
                    "time": 10.206182250000003,
                    "velocity": 0.5669291338582677,
                    "duration": 0.09793811249999962
                },
                {
                    "name": "C5",
                    "midi": 72,
                    "time": 10.206182250000003,
                    "velocity": 0.5669291338582677,
                    "duration": 0.09793811249999962
                },
                {
                    "name": "D#5",
                    "midi": 75,
                    "time": 10.206182250000003,
                    "velocity": 0.6692913385826772,
                    "duration": 0.09793811249999962
                },
                {
                    "name": "D#4",
                    "midi": 63,
                    "time": 10.309275000000003,
                    "velocity": 0.5905511811023622,
                    "duration": 0.10309275000000007
                },
                {
                    "name": "F4",
                    "midi": 65,
                    "time": 10.309275000000003,
                    "velocity": 0.5905511811023622,
                    "duration": 0.10309275000000007
                },
                {
                    "name": "C5",
                    "midi": 72,
                    "time": 10.309275000000003,
                    "velocity": 0.5905511811023622,
                    "duration": 0.10309275000000007
                },
                {
                    "name": "D#5",
                    "midi": 75,
                    "time": 10.309275000000003,
                    "velocity": 0.7007874015748031,
                    "duration": 0.10309275000000007
                },
                {
                    "name": "C5",
                    "midi": 72,
                    "time": 10.515460500000003,
                    "velocity": 0.6692913385826772,
                    "duration": 0.10309275000000007
                },
                {
                    "name": "C#5",
                    "midi": 73,
                    "time": 10.618553250000003,
                    "velocity": 0.5511811023622047,
                    "duration": 0.10309275000000007
                },
                {
                    "name": "A#4",
                    "midi": 70,
                    "time": 10.721646000000003,
                    "velocity": 0.5905511811023622,
                    "duration": 0.10309275000000007
                },
                {
                    "name": "F4",
                    "midi": 65,
                    "time": 10.824738750000003,
                    "velocity": 0.5511811023622047,
                    "duration": 0.10309275000000007
                },
                {
                    "name": "C#4",
                    "midi": 61,
                    "time": 10.927831500000003,
                    "velocity": 0.5984251968503937,
                    "duration": 0.10309275000000007
                },
                {
                    "name": "C6",
                    "midi": 84,
                    "time": 11.134017000000004,
                    "velocity": 0.4645669291338583,
                    "duration": 0.10309275000000007
                },
                {
                    "name": "C#6",
                    "midi": 85,
                    "time": 11.237109750000004,
                    "velocity": 0.3858267716535433,
                    "duration": 0.10309275000000007
                },
                {
                    "name": "A#5",
                    "midi": 82,
                    "time": 11.340202500000004,
                    "velocity": 0.4094488188976378,
                    "duration": 0.10309275000000007
                },
                {
                    "name": "G5",
                    "midi": 79,
                    "time": 11.443295250000004,
                    "velocity": 0.3858267716535433,
                    "duration": 0.10309275000000007
                },
                {
                    "name": "C#5",
                    "midi": 73,
                    "time": 11.546388000000004,
                    "velocity": 0.41732283464566927,
                    "duration": 0.10309275000000007
                },
                {
                    "name": "B5",
                    "midi": 83,
                    "time": 11.752573500000004,
                    "velocity": 0.4645669291338583,
                    "duration": 0.10309275000000007
                },
                {
                    "name": "C6",
                    "midi": 84,
                    "time": 11.855666250000004,
                    "velocity": 0.3858267716535433,
                    "duration": 0.10309275000000007
                },
                {
                    "name": "G#5",
                    "midi": 80,
                    "time": 11.958759000000004,
                    "velocity": 0.4094488188976378,
                    "duration": 0.10309275000000007
                },
                {
                    "name": "D#5",
                    "midi": 75,
                    "time": 12.061851750000004,
                    "velocity": 0.3858267716535433,
                    "duration": 0.10309275000000007
                },
                {
                    "name": "C5",
                    "midi": 72,
                    "time": 12.164944500000004,
                    "velocity": 0.41732283464566927,
                    "duration": 0.10309275000000007
                },
                {
                    "name": "D#5",
                    "midi": 75,
                    "time": 12.371130000000004,
                    "velocity": 0.5039370078740157,
                    "duration": 0.10309275000000007
                },
                {
                    "name": "E5",
                    "midi": 76,
                    "time": 12.474222750000004,
                    "velocity": 0.41732283464566927,
                    "duration": 0.10309275000000007
                },
                {
                    "name": "C#5",
                    "midi": 73,
                    "time": 12.577315500000005,
                    "velocity": 0.44881889763779526,
                    "duration": 0.10309275000000007
                },
                {
                    "name": "A#4",
                    "midi": 70,
                    "time": 12.680408250000005,
                    "velocity": 0.41732283464566927,
                    "duration": 0.10309275000000007
                },
                {
                    "name": "E4",
                    "midi": 64,
                    "time": 12.783501000000005,
                    "velocity": 0.4566929133858268,
                    "duration": 0.10309275000000007
                },
                {
                    "name": "D5",
                    "midi": 74,
                    "time": 12.989686500000005,
                    "velocity": 0.5511811023622047,
                    "duration": 0.10309275000000007
                },
                {
                    "name": "D#5",
                    "midi": 75,
                    "time": 13.092779250000005,
                    "velocity": 0.4566929133858268,
                    "duration": 0.10309275000000007
                },
                {
                    "name": "B4",
                    "midi": 71,
                    "time": 13.195872000000005,
                    "velocity": 0.4881889763779528,
                    "duration": 0.10309275000000007
                },
                {
                    "name": "G#4",
                    "midi": 68,
                    "time": 13.298964750000005,
                    "velocity": 0.4566929133858268,
                    "duration": 0.10309275000000007
                },
                {
                    "name": "D#4",
                    "midi": 63,
                    "time": 13.402057500000005,
                    "velocity": 0.49606299212598426,
                    "duration": 0.10309275000000007
                },
                {
                    "name": "G#4",
                    "midi": 68,
                    "time": 13.608243000000005,
                    "velocity": 0.3700787401574803,
                    "duration": 0.10309275000000007
                },
                {
                    "name": "D#5",
                    "midi": 75,
                    "time": 13.608243000000005,
                    "velocity": 0.4409448818897638,
                    "duration": 0.10309275000000007
                },
                {
                    "name": "G#5",
                    "midi": 80,
                    "time": 13.711335750000005,
                    "velocity": 0.4566929133858268,
                    "duration": 0.10309275000000007
                },
                {
                    "name": "G#4",
                    "midi": 68,
                    "time": 13.814428500000005,
                    "velocity": 0.3937007874015748,
                    "duration": 0.10309275000000007
                },
                {
                    "name": "D#5",
                    "midi": 75,
                    "time": 13.814428500000005,
                    "velocity": 0.4645669291338583,
                    "duration": 0.10309275000000007
                },
                {
                    "name": "G#5",
                    "midi": 80,
                    "time": 13.917521250000005,
                    "velocity": 0.48031496062992124,
                    "duration": 0.10309275000000007
                },
                {
                    "name": "G#4",
                    "midi": 68,
                    "time": 14.020614000000005,
                    "velocity": 0.41732283464566927,
                    "duration": 0.10309275000000007
                },
                {
                    "name": "D#5",
                    "midi": 75,
                    "time": 14.020614000000005,
                    "velocity": 0.49606299212598426,
                    "duration": 0.10309275000000007
                },
                {
                    "name": "G#5",
                    "midi": 80,
                    "time": 14.123706750000006,
                    "velocity": 0.5118110236220472,
                    "duration": 0.10309275000000007
                },
                {
                    "name": "G#4",
                    "midi": 68,
                    "time": 14.226799500000006,
                    "velocity": 0.4409448818897638,
                    "duration": 0.10309275000000007
                },
                {
                    "name": "D#5",
                    "midi": 75,
                    "time": 14.226799500000006,
                    "velocity": 0.5275590551181102,
                    "duration": 0.10309275000000007
                },
                {
                    "name": "G#5",
                    "midi": 80,
                    "time": 14.329892250000006,
                    "velocity": 0.5354330708661418,
                    "duration": 0.10309275000000007
                },
                {
                    "name": "G#4",
                    "midi": 68,
                    "time": 14.432985000000006,
                    "velocity": 0.4645669291338583,
                    "duration": 0.10309275000000007
                },
                {
                    "name": "D#5",
                    "midi": 75,
                    "time": 14.432985000000006,
                    "velocity": 0.5511811023622047,
                    "duration": 0.10309275000000007
                },
                {
                    "name": "G#5",
                    "midi": 80,
                    "time": 14.536077750000006,
                    "velocity": 0.5669291338582677,
                    "duration": 0.10309275000000007
                },
                {
                    "name": "G#4",
                    "midi": 68,
                    "time": 14.639170500000006,
                    "velocity": 0.4881889763779528,
                    "duration": 0.10309275000000007
                },
                {
                    "name": "D#5",
                    "midi": 75,
                    "time": 14.639170500000006,
                    "velocity": 0.5826771653543307,
                    "duration": 0.10309275000000007
                },
                {
                    "name": "G#5",
                    "midi": 80,
                    "time": 14.742263250000006,
                    "velocity": 0.5984251968503937,
                    "duration": 0.10309275000000007
                },
                {
                    "name": "G#4",
                    "midi": 68,
                    "time": 14.845356000000006,
                    "velocity": 0.5118110236220472,
                    "duration": 0.10309275000000007
                },
                {
                    "name": "D5",
                    "midi": 74,
                    "time": 14.845356000000006,
                    "velocity": 0.6062992125984252,
                    "duration": 0.10309275000000007
                },
                {
                    "name": "G#5",
                    "midi": 80,
                    "time": 14.948448750000006,
                    "velocity": 0.6220472440944882,
                    "duration": 0.10309275000000007
                },
                {
                    "name": "G#4",
                    "midi": 68,
                    "time": 15.051541500000006,
                    "velocity": 0.5354330708661418,
                    "duration": 0.10309275000000007
                },
                {
                    "name": "D5",
                    "midi": 74,
                    "time": 15.051541500000006,
                    "velocity": 0.6377952755905512,
                    "duration": 0.10309275000000007
                },
                {
                    "name": "G#5",
                    "midi": 80,
                    "time": 15.154634250000006,
                    "velocity": 0.6535433070866141,
                    "duration": 0.10309275000000007
                },
                {
                    "name": "G#4",
                    "midi": 68,
                    "time": 15.257727000000006,
                    "velocity": 0.5669291338582677,
                    "duration": 0.10309275000000007
                },
                {
                    "name": "D5",
                    "midi": 74,
                    "time": 15.257727000000006,
                    "velocity": 0.6692913385826772,
                    "duration": 0.10309275000000007
                },
                {
                    "name": "G#5",
                    "midi": 80,
                    "time": 15.360819750000006,
                    "velocity": 0.6771653543307087,
                    "duration": 0.10309275000000007
                },
                {
                    "name": "G#4",
                    "midi": 68,
                    "time": 15.463912500000006,
                    "velocity": 0.5826771653543307,
                    "duration": 0.10309275000000007
                },
                {
                    "name": "D5",
                    "midi": 74,
                    "time": 15.463912500000006,
                    "velocity": 0.6929133858267716,
                    "duration": 0.10309275000000007
                },
                {
                    "name": "G#5",
                    "midi": 80,
                    "time": 15.567005250000006,
                    "velocity": 0.7086614173228346,
                    "duration": 0.10309275000000007
                },
                {
                    "name": "G#4",
                    "midi": 68,
                    "time": 15.670098000000007,
                    "velocity": 0.6141732283464567,
                    "duration": 0.10309275000000007
                },
                {
                    "name": "D5",
                    "midi": 74,
                    "time": 15.670098000000007,
                    "velocity": 0.7244094488188977,
                    "duration": 0.10309275000000007
                },
                {
                    "name": "G#5",
                    "midi": 80,
                    "time": 15.773190750000007,
                    "velocity": 0.7401574803149606,
                    "duration": 0.10309275000000007
                },
                {
                    "name": "G#4",
                    "midi": 68,
                    "time": 15.876283500000007,
                    "velocity": 0.6299212598425197,
                    "duration": 0.10309275000000007
                },
                {
                    "name": "D5",
                    "midi": 74,
                    "time": 15.876283500000007,
                    "velocity": 0.7480314960629921,
                    "duration": 0.10309275000000007
                },
                {
                    "name": "G#5",
                    "midi": 80,
                    "time": 15.979376250000007,
                    "velocity": 0.7637795275590551,
                    "duration": 0.10309275000000007
                },
                {
                    "name": "G#4",
                    "midi": 68,
                    "time": 16.082469000000007,
                    "velocity": 0.7086614173228346,
                    "duration": 0.20618550000000013
                },
                {
                    "name": "D5",
                    "midi": 74,
                    "time": 16.082469000000007,
                    "velocity": 0.7086614173228346,
                    "duration": 0.20618550000000013
                },
                {
                    "name": "G#5",
                    "midi": 80,
                    "time": 16.082469000000007,
                    "velocity": 0.8346456692913385,
                    "duration": 0.20618550000000013
                },
                {
                    "name": "A#4",
                    "midi": 70,
                    "time": 16.288654500000007,
                    "velocity": 0.6299212598425197,
                    "duration": 0.10309274999999829
                },
                {
                    "name": "D5",
                    "midi": 74,
                    "time": 16.288654500000007,
                    "velocity": 0.6299212598425197,
                    "duration": 0.10309274999999829
                },
                {
                    "name": "G#5",
                    "midi": 80,
                    "time": 16.288654500000007,
                    "velocity": 0.6299212598425197,
                    "duration": 0.10309274999999829
                },
                {
                    "name": "A#5",
                    "midi": 82,
                    "time": 16.288654500000007,
                    "velocity": 0.7480314960629921,
                    "duration": 0.10309274999999829
                },
                {
                    "name": "A#4",
                    "midi": 70,
                    "time": 16.494840000000003,
                    "velocity": 0.6299212598425197,
                    "duration": 0.10309274999999829
                },
                {
                    "name": "D5",
                    "midi": 74,
                    "time": 16.494840000000003,
                    "velocity": 0.6299212598425197,
                    "duration": 0.10309274999999829
                },
                {
                    "name": "G#5",
                    "midi": 80,
                    "time": 16.494840000000003,
                    "velocity": 0.6299212598425197,
                    "duration": 0.10309274999999829
                },
                {
                    "name": "A#5",
                    "midi": 82,
                    "time": 16.494840000000003,
                    "velocity": 0.7480314960629921,
                    "duration": 0.10309274999999829
                },
                {
                    "name": "A#4",
                    "midi": 70,
                    "time": 16.7010255,
                    "velocity": 0.6692913385826772,
                    "duration": 0.10309274999999829
                },
                {
                    "name": "D5",
                    "midi": 74,
                    "time": 16.7010255,
                    "velocity": 0.6692913385826772,
                    "duration": 0.10309274999999829
                },
                {
                    "name": "G#5",
                    "midi": 80,
                    "time": 16.7010255,
                    "velocity": 0.6692913385826772,
                    "duration": 0.10309274999999829
                },
                {
                    "name": "A#5",
                    "midi": 82,
                    "time": 16.7010255,
                    "velocity": 0.7874015748031497,
                    "duration": 0.10309274999999829
                },
                {
                    "name": "A#4",
                    "midi": 70,
                    "time": 16.907210999999997,
                    "velocity": 0.5984251968503937,
                    "duration": 0.10309274999999829
                },
                {
                    "name": "D5",
                    "midi": 74,
                    "time": 16.907210999999997,
                    "velocity": 0.5984251968503937,
                    "duration": 0.10309274999999829
                },
                {
                    "name": "G#5",
                    "midi": 80,
                    "time": 16.907210999999997,
                    "velocity": 0.5984251968503937,
                    "duration": 0.10309274999999829
                },
                {
                    "name": "A#5",
                    "midi": 82,
                    "time": 16.907210999999997,
                    "velocity": 0.7086614173228346,
                    "duration": 0.10309274999999829
                },
                {
                    "name": "A#4",
                    "midi": 70,
                    "time": 17.113396499999993,
                    "velocity": 0.5984251968503937,
                    "duration": 0.10309274999999829
                },
                {
                    "name": "D5",
                    "midi": 74,
                    "time": 17.113396499999993,
                    "velocity": 0.5984251968503937,
                    "duration": 0.10309274999999829
                },
                {
                    "name": "G#5",
                    "midi": 80,
                    "time": 17.113396499999993,
                    "velocity": 0.5984251968503937,
                    "duration": 0.10309274999999829
                },
                {
                    "name": "A#5",
                    "midi": 82,
                    "time": 17.113396499999993,
                    "velocity": 0.7086614173228346,
                    "duration": 0.10309274999999829
                },
                {
                    "name": "A#4",
                    "midi": 70,
                    "time": 17.31958199999999,
                    "velocity": 0.6299212598425197,
                    "duration": 0.20618550000000013
                },
                {
                    "name": "D#5",
                    "midi": 75,
                    "time": 17.31958199999999,
                    "velocity": 0.6299212598425197,
                    "duration": 0.20618550000000013
                },
                {
                    "name": "G5",
                    "midi": 79,
                    "time": 17.31958199999999,
                    "velocity": 0.6299212598425197,
                    "duration": 0.20618550000000013
                },
                {
                    "name": "A#5",
                    "midi": 82,
                    "time": 17.31958199999999,
                    "velocity": 0.7480314960629921,
                    "duration": 0.20618550000000013
                },
                {
                    "name": "D#6",
                    "midi": 87,
                    "time": 17.52576749999999,
                    "velocity": 0.7480314960629921,
                    "duration": 0.10309274999999829
                },
                {
                    "name": "A#5",
                    "midi": 82,
                    "time": 17.52576749999999,
                    "velocity": 0.6299212598425197,
                    "duration": 0.10309274999999829
                },
                {
                    "name": "G5",
                    "midi": 79,
                    "time": 17.52576749999999,
                    "velocity": 0.6299212598425197,
                    "duration": 0.10309274999999829
                },
                {
                    "name": "D#5",
                    "midi": 75,
                    "time": 17.52576749999999,
                    "velocity": 0.6299212598425197,
                    "duration": 0.10309274999999829
                },
                {
                    "name": "D#4",
                    "midi": 63,
                    "time": 17.938138499999987,
                    "velocity": 0.5511811023622047,
                    "duration": 0.10309274999999829
                },
                {
                    "name": "G4",
                    "midi": 67,
                    "time": 17.938138499999987,
                    "velocity": 0.5511811023622047,
                    "duration": 0.10309274999999829
                },
                {
                    "name": "A#4",
                    "midi": 70,
                    "time": 17.938138499999987,
                    "velocity": 0.6535433070866141,
                    "duration": 0.10309274999999829
                },
                {
                    "name": "D#4",
                    "midi": 63,
                    "time": 18.144323999999983,
                    "velocity": 0.5039370078740157,
                    "duration": 0.10309274999999829
                },
                {
                    "name": "G4",
                    "midi": 67,
                    "time": 18.144323999999983,
                    "velocity": 0.5039370078740157,
                    "duration": 0.10309274999999829
                },
                {
                    "name": "A#4",
                    "midi": 70,
                    "time": 18.144323999999983,
                    "velocity": 0.5039370078740157,
                    "duration": 0.10309274999999829
                },
                {
                    "name": "D#5",
                    "midi": 75,
                    "time": 18.144323999999983,
                    "velocity": 0.5984251968503937,
                    "duration": 0.10309274999999829
                },
                {
                    "name": "D#4",
                    "midi": 63,
                    "time": 18.55669499999998,
                    "velocity": 0.3543307086614173,
                    "duration": 0.3092782499999984
                },
                {
                    "name": "C5",
                    "midi": 72,
                    "time": 18.55669499999998,
                    "velocity": 0.3543307086614173,
                    "duration": 0.3092782499999984
                },
                {
                    "name": "D#5",
                    "midi": 75,
                    "time": 18.55669499999998,
                    "velocity": 0.41732283464566927,
                    "duration": 0.3092782499999984
                },
                {
                    "name": "D#4",
                    "midi": 63,
                    "time": 18.86597324999998,
                    "velocity": 0.33858267716535434,
                    "duration": 0.09793811249999962
                },
                {
                    "name": "C5",
                    "midi": 72,
                    "time": 18.86597324999998,
                    "velocity": 0.33858267716535434,
                    "duration": 0.09793811249999962
                },
                {
                    "name": "D#5",
                    "midi": 75,
                    "time": 18.86597324999998,
                    "velocity": 0.4015748031496063,
                    "duration": 0.09793811249999962
                },
                {
                    "name": "D#4",
                    "midi": 63,
                    "time": 18.969065999999977,
                    "velocity": 0.3543307086614173,
                    "duration": 0.10309274999999829
                },
                {
                    "name": "C5",
                    "midi": 72,
                    "time": 18.969065999999977,
                    "velocity": 0.3543307086614173,
                    "duration": 0.10309274999999829
                },
                {
                    "name": "D#5",
                    "midi": 75,
                    "time": 18.969065999999977,
                    "velocity": 0.41732283464566927,
                    "duration": 0.10309274999999829
                },
                {
                    "name": "D#4",
                    "midi": 63,
                    "time": 19.175251499999973,
                    "velocity": 0.3543307086614173,
                    "duration": 0.3092782499999984
                },
                {
                    "name": "C5",
                    "midi": 72,
                    "time": 19.175251499999973,
                    "velocity": 0.3543307086614173,
                    "duration": 0.3092782499999984
                },
                {
                    "name": "D#5",
                    "midi": 75,
                    "time": 19.175251499999973,
                    "velocity": 0.41732283464566927,
                    "duration": 0.3092782499999984
                },
                {
                    "name": "D#4",
                    "midi": 63,
                    "time": 19.48452974999997,
                    "velocity": 0.33858267716535434,
                    "duration": 0.09793811249999962
                },
                {
                    "name": "C5",
                    "midi": 72,
                    "time": 19.48452974999997,
                    "velocity": 0.33858267716535434,
                    "duration": 0.09793811249999962
                },
                {
                    "name": "D#5",
                    "midi": 75,
                    "time": 19.48452974999997,
                    "velocity": 0.4015748031496063,
                    "duration": 0.09793811249999962
                },
                {
                    "name": "D#4",
                    "midi": 63,
                    "time": 19.58762249999997,
                    "velocity": 0.3543307086614173,
                    "duration": 0.10309274999999829
                },
                {
                    "name": "C5",
                    "midi": 72,
                    "time": 19.58762249999997,
                    "velocity": 0.3543307086614173,
                    "duration": 0.10309274999999829
                },
                {
                    "name": "D#5",
                    "midi": 75,
                    "time": 19.58762249999997,
                    "velocity": 0.41732283464566927,
                    "duration": 0.10309274999999829
                },
                {
                    "name": "D#4",
                    "midi": 63,
                    "time": 19.793807999999967,
                    "velocity": 0.31496062992125984,
                    "duration": 0.10309274999999829
                },
                {
                    "name": "B4",
                    "midi": 71,
                    "time": 19.793807999999967,
                    "velocity": 0.31496062992125984,
                    "duration": 0.10309274999999829
                },
                {
                    "name": "D#5",
                    "midi": 75,
                    "time": 19.793807999999967,
                    "velocity": 0.3779527559055118,
                    "duration": 0.10309274999999829
                },
                {
                    "name": "C5",
                    "midi": 72,
                    "time": 19.896900749999965,
                    "velocity": 0.33858267716535434,
                    "duration": 0.10309274999999829
                },
                {
                    "name": "G#4",
                    "midi": 68,
                    "time": 19.999993499999963,
                    "velocity": 0.33858267716535434,
                    "duration": 0.10309274999999829
                },
                {
                    "name": "D#4",
                    "midi": 63,
                    "time": 20.10308624999996,
                    "velocity": 0.33858267716535434,
                    "duration": 0.10309274999999829
                },
                {
                    "name": "C4",
                    "midi": 60,
                    "time": 20.20617899999996,
                    "velocity": 0.3779527559055118,
                    "duration": 0.10309274999999829
                },
                {
                    "name": "D#4",
                    "midi": 63,
                    "time": 20.412364499999956,
                    "velocity": 0.3937007874015748,
                    "duration": 0.10309274999999829
                },
                {
                    "name": "G#4",
                    "midi": 68,
                    "time": 20.515457249999955,
                    "velocity": 0.3464566929133858,
                    "duration": 0.10309274999999829
                },
                {
                    "name": "C5",
                    "midi": 72,
                    "time": 20.618549999999953,
                    "velocity": 0.3464566929133858,
                    "duration": 0.10309274999999829
                },
                {
                    "name": "D#5",
                    "midi": 75,
                    "time": 20.72164274999995,
                    "velocity": 0.3464566929133858,
                    "duration": 0.10309274999999829
                },
                {
                    "name": "G#5",
                    "midi": 80,
                    "time": 20.82473549999995,
                    "velocity": 0.3700787401574803,
                    "duration": 0.10309274999999829
                },
                {
                    "name": "A5",
                    "midi": 81,
                    "time": 21.030920999999946,
                    "velocity": 0.36220472440944884,
                    "duration": 0.05154637500000092
                },
                {
                    "name": "A4",
                    "midi": 69,
                    "time": 21.030920999999946,
                    "velocity": 0.30708661417322836,
                    "duration": 0.05154637500000092
                },
                {
                    "name": "A#4",
                    "midi": 70,
                    "time": 21.237106499999946,
                    "velocity": 0.33858267716535434,
                    "duration": 0.41237100000000027
                },
                {
                    "name": "A#5",
                    "midi": 82,
                    "time": 21.237106499999946,
                    "velocity": 0.4015748031496063,
                    "duration": 0.41237100000000027
                },
                {
                    "name": "D4",
                    "midi": 62,
                    "time": 21.649477499999946,
                    "velocity": 0.4015748031496063,
                    "duration": 0.10309274999999829
                },
                {
                    "name": "D#4",
                    "midi": 63,
                    "time": 21.752570249999945,
                    "velocity": 0.33070866141732286,
                    "duration": 0.10309274999999829
                },
                {
                    "name": "A#3",
                    "midi": 58,
                    "time": 21.855662999999943,
                    "velocity": 0.3543307086614173,
                    "duration": 0.10309274999999829
                },
                {
                    "name": "G3",
                    "midi": 55,
                    "time": 21.95875574999994,
                    "velocity": 0.33070866141732286,
                    "duration": 0.10309274999999829
                },
                {
                    "name": "D#3",
                    "midi": 51,
                    "time": 22.06184849999994,
                    "velocity": 0.3543307086614173,
                    "duration": 0.10309274999999829
                },
                {
                    "name": "D#4",
                    "midi": 63,
                    "time": 22.268033999999936,
                    "velocity": 0.3543307086614173,
                    "duration": 0.3092782499999984
                },
                {
                    "name": "C#5",
                    "midi": 73,
                    "time": 22.268033999999936,
                    "velocity": 0.3543307086614173,
                    "duration": 0.3092782499999984
                },
                {
                    "name": "D#5",
                    "midi": 75,
                    "time": 22.268033999999936,
                    "velocity": 0.41732283464566927,
                    "duration": 0.3092782499999984
                },
                {
                    "name": "D#4",
                    "midi": 63,
                    "time": 22.577312249999935,
                    "velocity": 0.33858267716535434,
                    "duration": 0.09793811249999962
                },
                {
                    "name": "C#5",
                    "midi": 73,
                    "time": 22.577312249999935,
                    "velocity": 0.33858267716535434,
                    "duration": 0.09793811249999962
                },
                {
                    "name": "D#5",
                    "midi": 75,
                    "time": 22.577312249999935,
                    "velocity": 0.4015748031496063,
                    "duration": 0.09793811249999962
                },
                {
                    "name": "D#4",
                    "midi": 63,
                    "time": 22.680404999999933,
                    "velocity": 0.3543307086614173,
                    "duration": 0.10309274999999829
                },
                {
                    "name": "C#5",
                    "midi": 73,
                    "time": 22.680404999999933,
                    "velocity": 0.3543307086614173,
                    "duration": 0.10309274999999829
                },
                {
                    "name": "D#5",
                    "midi": 75,
                    "time": 22.680404999999933,
                    "velocity": 0.41732283464566927,
                    "duration": 0.10309274999999829
                },
                {
                    "name": "D#4",
                    "midi": 63,
                    "time": 22.88659049999993,
                    "velocity": 0.3543307086614173,
                    "duration": 0.3092782499999984
                },
                {
                    "name": "C#5",
                    "midi": 73,
                    "time": 22.88659049999993,
                    "velocity": 0.3543307086614173,
                    "duration": 0.3092782499999984
                },
                {
                    "name": "D#5",
                    "midi": 75,
                    "time": 22.88659049999993,
                    "velocity": 0.41732283464566927,
                    "duration": 0.3092782499999984
                },
                {
                    "name": "D#4",
                    "midi": 63,
                    "time": 23.195868749999928,
                    "velocity": 0.33858267716535434,
                    "duration": 0.09793811249999962
                },
                {
                    "name": "C#5",
                    "midi": 73,
                    "time": 23.195868749999928,
                    "velocity": 0.33858267716535434,
                    "duration": 0.09793811249999962
                },
                {
                    "name": "D#5",
                    "midi": 75,
                    "time": 23.195868749999928,
                    "velocity": 0.4015748031496063,
                    "duration": 0.09793811249999962
                },
                {
                    "name": "D#4",
                    "midi": 63,
                    "time": 23.298961499999926,
                    "velocity": 0.3543307086614173,
                    "duration": 0.10309274999999829
                },
                {
                    "name": "C#5",
                    "midi": 73,
                    "time": 23.298961499999926,
                    "velocity": 0.3543307086614173,
                    "duration": 0.10309274999999829
                },
                {
                    "name": "D#5",
                    "midi": 75,
                    "time": 23.298961499999926,
                    "velocity": 0.41732283464566927,
                    "duration": 0.10309274999999829
                },
                {
                    "name": "D#4",
                    "midi": 63,
                    "time": 23.505146999999923,
                    "velocity": 0.31496062992125984,
                    "duration": 0.10309274999999829
                },
                {
                    "name": "C5",
                    "midi": 72,
                    "time": 23.505146999999923,
                    "velocity": 0.31496062992125984,
                    "duration": 0.10309274999999829
                },
                {
                    "name": "D#5",
                    "midi": 75,
                    "time": 23.505146999999923,
                    "velocity": 0.3779527559055118,
                    "duration": 0.10309274999999829
                },
                {
                    "name": "C#5",
                    "midi": 73,
                    "time": 23.60823974999992,
                    "velocity": 0.33858267716535434,
                    "duration": 0.10309274999999829
                },
                {
                    "name": "A#4",
                    "midi": 70,
                    "time": 23.71133249999992,
                    "velocity": 0.33858267716535434,
                    "duration": 0.10309274999999829
                },
                {
                    "name": "G4",
                    "midi": 67,
                    "time": 23.814425249999918,
                    "velocity": 0.33858267716535434,
                    "duration": 0.10309274999999829
                },
                {
                    "name": "D#4",
                    "midi": 63,
                    "time": 23.917517999999916,
                    "velocity": 0.3779527559055118,
                    "duration": 0.10309274999999829
                },
                {
                    "name": "G4",
                    "midi": 67,
                    "time": 24.123703499999912,
                    "velocity": 0.3937007874015748,
                    "duration": 0.10309274999999829
                },
                {
                    "name": "A#4",
                    "midi": 70,
                    "time": 24.22679624999991,
                    "velocity": 0.3464566929133858,
                    "duration": 0.10309274999999829
                },
                {
                    "name": "C#5",
                    "midi": 73,
                    "time": 24.32988899999991,
                    "velocity": 0.3464566929133858,
                    "duration": 0.10309274999999829
                },
                {
                    "name": "D#5",
                    "midi": 75,
                    "time": 24.432981749999907,
                    "velocity": 0.3464566929133858,
                    "duration": 0.10309274999999829
                },
                {
                    "name": "G5",
                    "midi": 79,
                    "time": 24.536074499999906,
                    "velocity": 0.3700787401574803,
                    "duration": 0.10309274999999829
                },
                {
                    "name": "B5",
                    "midi": 83,
                    "time": 24.742259999999902,
                    "velocity": 0.36220472440944884,
                    "duration": 0.05154637500000092
                },
                {
                    "name": "B4",
                    "midi": 71,
                    "time": 24.742259999999902,
                    "velocity": 0.30708661417322836,
                    "duration": 0.05154637500000092
                },
                {
                    "name": "C5",
                    "midi": 72,
                    "time": 24.948445499999902,
                    "velocity": 0.33858267716535434,
                    "duration": 0.41237100000000027
                },
                {
                    "name": "C6",
                    "midi": 84,
                    "time": 24.948445499999902,
                    "velocity": 0.4015748031496063,
                    "duration": 0.41237100000000027
                },
                {
                    "name": "G4",
                    "midi": 67,
                    "time": 25.360816499999903,
                    "velocity": 0.4015748031496063,
                    "duration": 0.10309274999999829
                },
                {
                    "name": "G#4",
                    "midi": 68,
                    "time": 25.4639092499999,
                    "velocity": 0.33070866141732286,
                    "duration": 0.10309274999999829
                },
                {
                    "name": "D#4",
                    "midi": 63,
                    "time": 25.5670019999999,
                    "velocity": 0.3543307086614173,
                    "duration": 0.10309274999999829
                },
                {
                    "name": "C4",
                    "midi": 60,
                    "time": 25.670094749999897,
                    "velocity": 0.33070866141732286,
                    "duration": 0.10309274999999829
                },
                {
                    "name": "G#3",
                    "midi": 56,
                    "time": 25.773187499999896,
                    "velocity": 0.3543307086614173,
                    "duration": 0.10309274999999829
                },
                {
                    "name": "G#4",
                    "midi": 68,
                    "time": 25.979372999999892,
                    "velocity": 0.3858267716535433,
                    "duration": 0.10309274999999829
                },
                {
                    "name": "A4",
                    "midi": 69,
                    "time": 26.08246574999989,
                    "velocity": 0.3779527559055118,
                    "duration": 0.10309274999999829
                },
                {
                    "name": "A#4",
                    "midi": 70,
                    "time": 26.18555849999989,
                    "velocity": 0.4015748031496063,
                    "duration": 0.10309274999999829
                },
                {
                    "name": "B4",
                    "midi": 71,
                    "time": 26.288651249999887,
                    "velocity": 0.4251968503937008,
                    "duration": 0.10309274999999829
                },
                {
                    "name": "C5",
                    "midi": 72,
                    "time": 26.391743999999886,
                    "velocity": 0.44881889763779526,
                    "duration": 0.10309274999999829
                },
                {
                    "name": "C5",
                    "midi": 72,
                    "time": 26.597929499999882,
                    "velocity": 0.4015748031496063,
                    "duration": 0.10309274999999829
                },
                {
                    "name": "C#5",
                    "midi": 73,
                    "time": 26.70102224999988,
                    "velocity": 0.3858267716535433,
                    "duration": 0.07731956250000138
                },
                {
                    "name": "G#5",
                    "midi": 80,
                    "time": 26.804114999999882,
                    "velocity": 0.44881889763779526,
                    "duration": 0.41237100000000027
                },
                {
                    "name": "F4",
                    "midi": 65,
                    "time": 27.216485999999882,
                    "velocity": 0.3543307086614173,
                    "duration": 0.10309274999999829
                },
                {
                    "name": "F#4",
                    "midi": 66,
                    "time": 27.31957874999988,
                    "velocity": 0.36220472440944884,
                    "duration": 0.10309274999999829
                },
                {
                    "name": "G4",
                    "midi": 67,
                    "time": 27.42267149999988,
                    "velocity": 0.3700787401574803,
                    "duration": 0.10309274999999829
                },
                {
                    "name": "G#4",
                    "midi": 68,
                    "time": 27.525764249999877,
                    "velocity": 0.3858267716535433,
                    "duration": 0.10309274999999829
                },
                {
                    "name": "A4",
                    "midi": 69,
                    "time": 27.628856999999876,
                    "velocity": 0.3937007874015748,
                    "duration": 0.10309274999999829
                },
                {
                    "name": "A4",
                    "midi": 69,
                    "time": 27.835042499999872,
                    "velocity": 0.4015748031496063,
                    "duration": 0.10309274999999829
                },
                {
                    "name": "A#4",
                    "midi": 70,
                    "time": 27.93813524999987,
                    "velocity": 0.3858267716535433,
                    "duration": 0.07731956250000138
                },
                {
                    "name": "F5",
                    "midi": 77,
                    "time": 28.041227999999872,
                    "velocity": 0.44881889763779526,
                    "duration": 0.41237100000000027
                },
                {
                    "name": "D5",
                    "midi": 74,
                    "time": 28.453598999999873,
                    "velocity": 0.4409448818897638,
                    "duration": 0.10309274999999829
                },
                {
                    "name": "D#5",
                    "midi": 75,
                    "time": 28.55669174999987,
                    "velocity": 0.4409448818897638,
                    "duration": 0.07731956250000138
                },
                {
                    "name": "C#5",
                    "midi": 73,
                    "time": 28.659784499999873,
                    "velocity": 0.41732283464566927,
                    "duration": 0.41237100000000027
                },
                {
                    "name": "D#5",
                    "midi": 75,
                    "time": 28.659784499999873,
                    "velocity": 0.41732283464566927,
                    "duration": 0.41237100000000027
                },
                {
                    "name": "C#6",
                    "midi": 85,
                    "time": 28.659784499999873,
                    "velocity": 0.49606299212598426,
                    "duration": 0.41237100000000027
                },
                {
                    "name": "B4",
                    "midi": 71,
                    "time": 29.072155499999873,
                    "velocity": 0.4645669291338583,
                    "duration": 0.10309274999999829
                },
                {
                    "name": "C5",
                    "midi": 72,
                    "time": 29.17524824999987,
                    "velocity": 0.4645669291338583,
                    "duration": 0.07731956250000138
                },
                {
                    "name": "C5",
                    "midi": 72,
                    "time": 29.278340999999873,
                    "velocity": 0.44881889763779526,
                    "duration": 0.41237100000000027
                },
                {
                    "name": "D#5",
                    "midi": 75,
                    "time": 29.278340999999873,
                    "velocity": 0.44881889763779526,
                    "duration": 0.41237100000000027
                },
                {
                    "name": "C6",
                    "midi": 84,
                    "time": 29.278340999999873,
                    "velocity": 0.5275590551181102,
                    "duration": 0.41237100000000027
                },
                {
                    "name": "D5",
                    "midi": 74,
                    "time": 29.690711999999873,
                    "velocity": 0.5039370078740157,
                    "duration": 0.10309274999999829
                },
                {
                    "name": "D#5",
                    "midi": 75,
                    "time": 29.79380474999987,
                    "velocity": 0.5039370078740157,
                    "duration": 0.07731956250000138
                },
                {
                    "name": "C#5",
                    "midi": 73,
                    "time": 29.896897499999874,
                    "velocity": 0.4645669291338583,
                    "duration": 0.41237100000000027
                },
                {
                    "name": "D#5",
                    "midi": 75,
                    "time": 29.896897499999874,
                    "velocity": 0.4645669291338583,
                    "duration": 0.41237100000000027
                },
                {
                    "name": "C#6",
                    "midi": 85,
                    "time": 29.896897499999874,
                    "velocity": 0.5590551181102362,
                    "duration": 0.41237100000000027
                },
                {
                    "name": "B4",
                    "midi": 71,
                    "time": 30.309268499999874,
                    "velocity": 0.5275590551181102,
                    "duration": 0.10309274999999829
                },
                {
                    "name": "C5",
                    "midi": 72,
                    "time": 30.412361249999872,
                    "velocity": 0.5275590551181102,
                    "duration": 0.07731956250000138
                },
                {
                    "name": "C5",
                    "midi": 72,
                    "time": 30.515453999999874,
                    "velocity": 0.5039370078740157,
                    "duration": 0.41237100000000027
                },
                {
                    "name": "D#5",
                    "midi": 75,
                    "time": 30.515453999999874,
                    "velocity": 0.5039370078740157,
                    "duration": 0.41237100000000027
                },
                {
                    "name": "C6",
                    "midi": 84,
                    "time": 30.515453999999874,
                    "velocity": 0.5984251968503937,
                    "duration": 0.41237100000000027
                },
                {
                    "name": "D#5",
                    "midi": 75,
                    "time": 30.927824999999874,
                    "velocity": 0.5275590551181102,
                    "duration": 0.3092782499999984
                },
                {
                    "name": "G#4",
                    "midi": 68,
                    "time": 30.927824999999874,
                    "velocity": 0.5275590551181102,
                    "duration": 0.3092782499999984
                },
                {
                    "name": "G#5",
                    "midi": 80,
                    "time": 30.927824999999874,
                    "velocity": 0.6220472440944882,
                    "duration": 0.3092782499999984
                },
                {
                    "name": "G#4",
                    "midi": 68,
                    "time": 31.237103249999873,
                    "velocity": 0.5039370078740157,
                    "duration": 0.09793811249999962
                },
                {
                    "name": "D#5",
                    "midi": 75,
                    "time": 31.237103249999873,
                    "velocity": 0.5039370078740157,
                    "duration": 0.09793811249999962
                },
                {
                    "name": "G#5",
                    "midi": 80,
                    "time": 31.237103249999873,
                    "velocity": 0.5984251968503937,
                    "duration": 0.09793811249999962
                },
                {
                    "name": "D#5",
                    "midi": 75,
                    "time": 31.34019599999987,
                    "velocity": 0.5039370078740157,
                    "duration": 0.10309274999999829
                },
                {
                    "name": "G#4",
                    "midi": 68,
                    "time": 31.34019599999987,
                    "velocity": 0.5039370078740157,
                    "duration": 0.10309274999999829
                },
                {
                    "name": "G#5",
                    "midi": 80,
                    "time": 31.34019599999987,
                    "velocity": 0.5984251968503937,
                    "duration": 0.10309274999999829
                },
                {
                    "name": "D#5",
                    "midi": 75,
                    "time": 31.546381499999868,
                    "velocity": 0.5354330708661418,
                    "duration": 0.10309274999999829
                },
                {
                    "name": "G#4",
                    "midi": 68,
                    "time": 31.546381499999868,
                    "velocity": 0.5354330708661418,
                    "duration": 0.10309274999999829
                },
                {
                    "name": "G#5",
                    "midi": 80,
                    "time": 31.546381499999868,
                    "velocity": 0.6377952755905512,
                    "duration": 0.10309274999999829
                },
                {
                    "name": "G#4",
                    "midi": 68,
                    "time": 31.752566999999864,
                    "velocity": 0.49606299212598426,
                    "duration": 0.10309274999999829
                },
                {
                    "name": "D#5",
                    "midi": 75,
                    "time": 31.752566999999864,
                    "velocity": 0.49606299212598426,
                    "duration": 0.10309274999999829
                },
                {
                    "name": "G#5",
                    "midi": 80,
                    "time": 31.752566999999864,
                    "velocity": 0.5905511811023622,
                    "duration": 0.10309274999999829
                },
                {
                    "name": "D#5",
                    "midi": 75,
                    "time": 31.95875249999986,
                    "velocity": 0.49606299212598426,
                    "duration": 0.10309275000000184
                },
                {
                    "name": "G#4",
                    "midi": 68,
                    "time": 31.95875249999986,
                    "velocity": 0.49606299212598426,
                    "duration": 0.10309275000000184
                },
                {
                    "name": "G#5",
                    "midi": 80,
                    "time": 31.95875249999986,
                    "velocity": 0.5905511811023622,
                    "duration": 0.10309275000000184
                },
                {
                    "name": "G#4",
                    "midi": 68,
                    "time": 32.164937999999864,
                    "velocity": 0.5118110236220472,
                    "duration": 0.10309275000000184
                },
                {
                    "name": "D5",
                    "midi": 74,
                    "time": 32.164937999999864,
                    "velocity": 0.6062992125984252,
                    "duration": 0.10309275000000184
                },
                {
                    "name": "G#5",
                    "midi": 80,
                    "time": 32.268030749999866,
                    "velocity": 0.6220472440944882,
                    "duration": 0.10309275000000184
                },
                {
                    "name": "G#4",
                    "midi": 68,
                    "time": 32.37112349999987,
                    "velocity": 0.5354330708661418,
                    "duration": 0.10309275000000184
                },
                {
                    "name": "D5",
                    "midi": 74,
                    "time": 32.37112349999987,
                    "velocity": 0.6377952755905512,
                    "duration": 0.10309275000000184
                },
                {
                    "name": "G#5",
                    "midi": 80,
                    "time": 32.47421624999987,
                    "velocity": 0.6535433070866141,
                    "duration": 0.10309275000000184
                },
                {
                    "name": "G#4",
                    "midi": 68,
                    "time": 32.57730899999987,
                    "velocity": 0.5669291338582677,
                    "duration": 0.10309275000000184
                },
                {
                    "name": "D5",
                    "midi": 74,
                    "time": 32.57730899999987,
                    "velocity": 0.6692913385826772,
                    "duration": 0.10309275000000184
                },
                {
                    "name": "G#5",
                    "midi": 80,
                    "time": 32.680401749999874,
                    "velocity": 0.6771653543307087,
                    "duration": 0.10309275000000184
                },
                {
                    "name": "G#4",
                    "midi": 68,
                    "time": 32.783494499999875,
                    "velocity": 0.5826771653543307,
                    "duration": 0.10309275000000184
                },
                {
                    "name": "D5",
                    "midi": 74,
                    "time": 32.783494499999875,
                    "velocity": 0.6929133858267716,
                    "duration": 0.10309275000000184
                },
                {
                    "name": "G#5",
                    "midi": 80,
                    "time": 32.88658724999988,
                    "velocity": 0.7086614173228346,
                    "duration": 0.10309275000000184
                },
                {
                    "name": "G#4",
                    "midi": 68,
                    "time": 32.98967999999988,
                    "velocity": 0.6141732283464567,
                    "duration": 0.10309275000000184
                },
                {
                    "name": "D5",
                    "midi": 74,
                    "time": 32.98967999999988,
                    "velocity": 0.7244094488188977,
                    "duration": 0.10309275000000184
                },
                {
                    "name": "G#5",
                    "midi": 80,
                    "time": 33.09277274999988,
                    "velocity": 0.7401574803149606,
                    "duration": 0.10309275000000184
                },
                {
                    "name": "G#4",
                    "midi": 68,
                    "time": 33.19586549999988,
                    "velocity": 0.6299212598425197,
                    "duration": 0.10309275000000184
                },
                {
                    "name": "D5",
                    "midi": 74,
                    "time": 33.19586549999988,
                    "velocity": 0.7480314960629921,
                    "duration": 0.10309275000000184
                },
                {
                    "name": "G#5",
                    "midi": 80,
                    "time": 33.298958249999885,
                    "velocity": 0.7637795275590551,
                    "duration": 0.10309275000000184
                },
                {
                    "name": "G#4",
                    "midi": 68,
                    "time": 33.40205099999989,
                    "velocity": 0.7086614173228346,
                    "duration": 0.20618549999999658
                },
                {
                    "name": "D5",
                    "midi": 74,
                    "time": 33.40205099999989,
                    "velocity": 0.7086614173228346,
                    "duration": 0.20618549999999658
                },
                {
                    "name": "G#5",
                    "midi": 80,
                    "time": 33.40205099999989,
                    "velocity": 0.8346456692913385,
                    "duration": 0.20618549999999658
                },
                {
                    "name": "A#4",
                    "midi": 70,
                    "time": 33.60823649999988,
                    "velocity": 0.6299212598425197,
                    "duration": 0.10309275000000184
                },
                {
                    "name": "D5",
                    "midi": 74,
                    "time": 33.60823649999988,
                    "velocity": 0.6299212598425197,
                    "duration": 0.10309275000000184
                },
                {
                    "name": "G#5",
                    "midi": 80,
                    "time": 33.60823649999988,
                    "velocity": 0.6299212598425197,
                    "duration": 0.10309275000000184
                },
                {
                    "name": "A#5",
                    "midi": 82,
                    "time": 33.60823649999988,
                    "velocity": 0.7480314960629921,
                    "duration": 0.10309275000000184
                },
                {
                    "name": "A#4",
                    "midi": 70,
                    "time": 33.81442199999989,
                    "velocity": 0.6299212598425197,
                    "duration": 0.10309275000000184
                },
                {
                    "name": "D5",
                    "midi": 74,
                    "time": 33.81442199999989,
                    "velocity": 0.6299212598425197,
                    "duration": 0.10309275000000184
                },
                {
                    "name": "G#5",
                    "midi": 80,
                    "time": 33.81442199999989,
                    "velocity": 0.6299212598425197,
                    "duration": 0.10309275000000184
                },
                {
                    "name": "A#5",
                    "midi": 82,
                    "time": 33.81442199999989,
                    "velocity": 0.7480314960629921,
                    "duration": 0.10309275000000184
                },
                {
                    "name": "A#4",
                    "midi": 70,
                    "time": 34.02060749999989,
                    "velocity": 0.6692913385826772,
                    "duration": 0.10309275000000184
                },
                {
                    "name": "D5",
                    "midi": 74,
                    "time": 34.02060749999989,
                    "velocity": 0.6692913385826772,
                    "duration": 0.10309275000000184
                },
                {
                    "name": "G#5",
                    "midi": 80,
                    "time": 34.02060749999989,
                    "velocity": 0.6692913385826772,
                    "duration": 0.10309275000000184
                },
                {
                    "name": "A#5",
                    "midi": 82,
                    "time": 34.02060749999989,
                    "velocity": 0.7874015748031497,
                    "duration": 0.10309275000000184
                },
                {
                    "name": "A#4",
                    "midi": 70,
                    "time": 34.226792999999894,
                    "velocity": 0.6062992125984252,
                    "duration": 0.10309275000000184
                },
                {
                    "name": "D5",
                    "midi": 74,
                    "time": 34.226792999999894,
                    "velocity": 0.6062992125984252,
                    "duration": 0.10309275000000184
                },
                {
                    "name": "G#5",
                    "midi": 80,
                    "time": 34.226792999999894,
                    "velocity": 0.6062992125984252,
                    "duration": 0.10309275000000184
                },
                {
                    "name": "A#5",
                    "midi": 82,
                    "time": 34.226792999999894,
                    "velocity": 0.7244094488188977,
                    "duration": 0.10309275000000184
                },
                {
                    "name": "A#4",
                    "midi": 70,
                    "time": 34.4329784999999,
                    "velocity": 0.6062992125984252,
                    "duration": 0.10309275000000184
                },
                {
                    "name": "D5",
                    "midi": 74,
                    "time": 34.4329784999999,
                    "velocity": 0.6062992125984252,
                    "duration": 0.10309275000000184
                },
                {
                    "name": "G#5",
                    "midi": 80,
                    "time": 34.4329784999999,
                    "velocity": 0.6062992125984252,
                    "duration": 0.10309275000000184
                },
                {
                    "name": "A#5",
                    "midi": 82,
                    "time": 34.4329784999999,
                    "velocity": 0.7244094488188977,
                    "duration": 0.10309275000000184
                },
                {
                    "name": "A#4",
                    "midi": 70,
                    "time": 34.6391639999999,
                    "velocity": 0.6299212598425197,
                    "duration": 0.10309275000000184
                },
                {
                    "name": "D#5",
                    "midi": 75,
                    "time": 34.6391639999999,
                    "velocity": 0.6299212598425197,
                    "duration": 0.10309275000000184
                },
                {
                    "name": "G5",
                    "midi": 79,
                    "time": 34.6391639999999,
                    "velocity": 0.6299212598425197,
                    "duration": 0.10309275000000184
                },
                {
                    "name": "A#5",
                    "midi": 82,
                    "time": 34.6391639999999,
                    "velocity": 0.7480314960629921,
                    "duration": 0.10309275000000184
                },
                {
                    "name": "D#6",
                    "midi": 87,
                    "time": 34.845349499999905,
                    "velocity": 0.7480314960629921,
                    "duration": 0.10309275000000184
                },
                {
                    "name": "A#5",
                    "midi": 82,
                    "time": 34.845349499999905,
                    "velocity": 0.6299212598425197,
                    "duration": 0.10309275000000184
                },
                {
                    "name": "G5",
                    "midi": 79,
                    "time": 34.845349499999905,
                    "velocity": 0.6299212598425197,
                    "duration": 0.10309275000000184
                },
                {
                    "name": "D#5",
                    "midi": 75,
                    "time": 34.845349499999905,
                    "velocity": 0.6299212598425197,
                    "duration": 0.10309275000000184
                },
                {
                    "name": "D#4",
                    "midi": 63,
                    "time": 35.257720499999905,
                    "velocity": 0.5511811023622047,
                    "duration": 0.10309275000000184
                },
                {
                    "name": "G4",
                    "midi": 67,
                    "time": 35.257720499999905,
                    "velocity": 0.5511811023622047,
                    "duration": 0.10309275000000184
                },
                {
                    "name": "A#4",
                    "midi": 70,
                    "time": 35.257720499999905,
                    "velocity": 0.6535433070866141,
                    "duration": 0.10309275000000184
                },
                {
                    "name": "D#4",
                    "midi": 63,
                    "time": 35.46390599999991,
                    "velocity": 0.5039370078740157,
                    "duration": 0.10309275000000184
                },
                {
                    "name": "G4",
                    "midi": 67,
                    "time": 35.46390599999991,
                    "velocity": 0.5039370078740157,
                    "duration": 0.10309275000000184
                },
                {
                    "name": "D#5",
                    "midi": 75,
                    "time": 35.46390599999991,
                    "velocity": 0.5984251968503937,
                    "duration": 0.10309275000000184
                },
                {
                    "name": "G5",
                    "midi": 79,
                    "time": 37.11338999999991,
                    "velocity": 0.5590551181102362,
                    "duration": 0.06872849999999886
                },
                {
                    "name": "E5",
                    "midi": 76,
                    "time": 37.18211849999991,
                    "velocity": 0.5433070866141733,
                    "duration": 0.06872849999999886
                },
                {
                    "name": "C#5",
                    "midi": 73,
                    "time": 37.25084699999991,
                    "velocity": 0.5196850393700787,
                    "duration": 0.06872849999999886
                },
                {
                    "name": "A#4",
                    "midi": 70,
                    "time": 37.31957549999991,
                    "velocity": 0.5039370078740157,
                    "duration": 0.06872849999999886
                },
                {
                    "name": "G4",
                    "midi": 67,
                    "time": 37.388303999999906,
                    "velocity": 0.4881889763779528,
                    "duration": 0.06872849999999886
                },
                {
                    "name": "E4",
                    "midi": 64,
                    "time": 37.457032499999904,
                    "velocity": 0.4645669291338583,
                    "duration": 0.06872849999999886
                },
                {
                    "name": "C#4",
                    "midi": 61,
                    "time": 37.5257609999999,
                    "velocity": 0.4409448818897638,
                    "duration": 0.06872849999999886
                },
                {
                    "name": "A#3",
                    "midi": 58,
                    "time": 37.5944894999999,
                    "velocity": 0.4409448818897638,
                    "duration": 0.06872849999999886
                },
                {
                    "name": "G3",
                    "midi": 55,
                    "time": 37.6632179999999,
                    "velocity": 0.4409448818897638,
                    "duration": 0.06872849999999886
                },
                {
                    "name": "E3",
                    "midi": 52,
                    "time": 37.7319464999999,
                    "velocity": 0.4409448818897638,
                    "duration": 0.06872849999999886
                },
                {
                    "name": "G3",
                    "midi": 55,
                    "time": 37.8006749999999,
                    "velocity": 0.4330708661417323,
                    "duration": 0.06872849999999886
                },
                {
                    "name": "A#3",
                    "midi": 58,
                    "time": 37.8694034999999,
                    "velocity": 0.4409448818897638,
                    "duration": 0.06872849999999886
                },
                {
                    "name": "C#4",
                    "midi": 61,
                    "time": 37.9381319999999,
                    "velocity": 0.4409448818897638,
                    "duration": 0.06872849999999886
                },
                {
                    "name": "E4",
                    "midi": 64,
                    "time": 38.006860499999895,
                    "velocity": 0.44881889763779526,
                    "duration": 0.06872849999999886
                },
                {
                    "name": "G4",
                    "midi": 67,
                    "time": 38.075588999999894,
                    "velocity": 0.4566929133858268,
                    "duration": 0.06872849999999886
                },
                {
                    "name": "A#4",
                    "midi": 70,
                    "time": 38.14431749999989,
                    "velocity": 0.47244094488188976,
                    "duration": 0.06872849999999886
                },
                {
                    "name": "C#5",
                    "midi": 73,
                    "time": 38.21304599999989,
                    "velocity": 0.49606299212598426,
                    "duration": 0.06872849999999886
                },
                {
                    "name": "E5",
                    "midi": 76,
                    "time": 38.28177449999989,
                    "velocity": 0.5039370078740157,
                    "duration": 0.06872849999999886
                },
                {
                    "name": "G5",
                    "midi": 79,
                    "time": 38.35050299999989,
                    "velocity": 0.5275590551181102,
                    "duration": 0.06872849999999886
                },
                {
                    "name": "E5",
                    "midi": 76,
                    "time": 38.41923149999989,
                    "velocity": 0.5196850393700787,
                    "duration": 0.06872849999999886
                },
                {
                    "name": "C#5",
                    "midi": 73,
                    "time": 38.48795999999989,
                    "velocity": 0.5118110236220472,
                    "duration": 0.06872849999999886
                },
                {
                    "name": "A#4",
                    "midi": 70,
                    "time": 38.556688499999886,
                    "velocity": 0.5039370078740157,
                    "duration": 0.06872849999999886
                },
                {
                    "name": "G4",
                    "midi": 67,
                    "time": 38.625416999999885,
                    "velocity": 0.49606299212598426,
                    "duration": 0.06872849999999886
                },
                {
                    "name": "E4",
                    "midi": 64,
                    "time": 38.694145499999884,
                    "velocity": 0.4881889763779528,
                    "duration": 0.06872849999999886
                },
                {
                    "name": "C#4",
                    "midi": 61,
                    "time": 38.76287399999988,
                    "velocity": 0.48031496062992124,
                    "duration": 0.06872849999999886
                },
                {
                    "name": "A#3",
                    "midi": 58,
                    "time": 38.83160249999988,
                    "velocity": 0.47244094488188976,
                    "duration": 0.06872849999999886
                },
                {
                    "name": "G3",
                    "midi": 55,
                    "time": 38.90033099999988,
                    "velocity": 0.4645669291338583,
                    "duration": 0.06872849999999886
                },
                {
                    "name": "E3",
                    "midi": 52,
                    "time": 38.96905949999988,
                    "velocity": 0.4566929133858268,
                    "duration": 0.06872849999999886
                },
                {
                    "name": "G3",
                    "midi": 55,
                    "time": 39.03778799999988,
                    "velocity": 0.4330708661417323,
                    "duration": 0.06872849999999886
                },
                {
                    "name": "A#3",
                    "midi": 58,
                    "time": 39.10651649999988,
                    "velocity": 0.4409448818897638,
                    "duration": 0.06872849999999886
                },
                {
                    "name": "C#4",
                    "midi": 61,
                    "time": 39.175244999999876,
                    "velocity": 0.4409448818897638,
                    "duration": 0.06872849999999886
                },
                {
                    "name": "E4",
                    "midi": 64,
                    "time": 39.243973499999875,
                    "velocity": 0.44881889763779526,
                    "duration": 0.06872849999999886
                },
                {
                    "name": "G4",
                    "midi": 67,
                    "time": 39.312701999999874,
                    "velocity": 0.4566929133858268,
                    "duration": 0.06872849999999886
                },
                {
                    "name": "A#4",
                    "midi": 70,
                    "time": 39.38143049999987,
                    "velocity": 0.4645669291338583,
                    "duration": 0.06872849999999886
                },
                {
                    "name": "C#5",
                    "midi": 73,
                    "time": 39.45015899999987,
                    "velocity": 0.4645669291338583,
                    "duration": 0.06872849999999886
                },
                {
                    "name": "E5",
                    "midi": 76,
                    "time": 39.51888749999987,
                    "velocity": 0.4881889763779528,
                    "duration": 0.06872849999999886
                },
                {
                    "name": "G4",
                    "midi": 67,
                    "time": 39.58761599999987,
                    "velocity": 0.47244094488188976,
                    "duration": 0.3092782499999984
                },
                {
                    "name": "E5",
                    "midi": 76,
                    "time": 39.58761599999987,
                    "velocity": 0.47244094488188976,
                    "duration": 0.3092782499999984
                },
                {
                    "name": "G5",
                    "midi": 79,
                    "time": 39.58761599999987,
                    "velocity": 0.5669291338582677,
                    "duration": 0.3092782499999984
                },
                {
                    "name": "G5",
                    "midi": 79,
                    "time": 39.89689424999987,
                    "velocity": 0.5984251968503937,
                    "duration": 0.09793811250000317
                },
                {
                    "name": "G4",
                    "midi": 67,
                    "time": 39.89689424999987,
                    "velocity": 0.5039370078740157,
                    "duration": 0.09793811250000317
                },
                {
                    "name": "E5",
                    "midi": 76,
                    "time": 39.89689424999987,
                    "velocity": 0.5039370078740157,
                    "duration": 0.09793811250000317
                },
                {
                    "name": "G4",
                    "midi": 67,
                    "time": 39.99998699999987,
                    "velocity": 0.5275590551181102,
                    "duration": 0.10309275000000184
                },
                {
                    "name": "E5",
                    "midi": 76,
                    "time": 39.99998699999987,
                    "velocity": 0.5275590551181102,
                    "duration": 0.10309275000000184
                },
                {
                    "name": "G5",
                    "midi": 79,
                    "time": 39.99998699999987,
                    "velocity": 0.6299212598425197,
                    "duration": 0.10309275000000184
                },
                {
                    "name": "G#4",
                    "midi": 68,
                    "time": 40.20617249999987,
                    "velocity": 0.5275590551181102,
                    "duration": 0.3092782499999984
                },
                {
                    "name": "E5",
                    "midi": 76,
                    "time": 40.20617249999987,
                    "velocity": 0.5275590551181102,
                    "duration": 0.3092782499999984
                },
                {
                    "name": "G#5",
                    "midi": 80,
                    "time": 40.20617249999987,
                    "velocity": 0.6299212598425197,
                    "duration": 0.3092782499999984
                },
                {
                    "name": "G#5",
                    "midi": 80,
                    "time": 40.51545074999987,
                    "velocity": 0.5984251968503937,
                    "duration": 0.09793811250000317
                },
                {
                    "name": "G#4",
                    "midi": 68,
                    "time": 40.51545074999987,
                    "velocity": 0.5039370078740157,
                    "duration": 0.09793811250000317
                },
                {
                    "name": "E5",
                    "midi": 76,
                    "time": 40.51545074999987,
                    "velocity": 0.5039370078740157,
                    "duration": 0.09793811250000317
                },
                {
                    "name": "G#4",
                    "midi": 68,
                    "time": 40.61854349999987,
                    "velocity": 0.5275590551181102,
                    "duration": 0.10309275000000184
                },
                {
                    "name": "E5",
                    "midi": 76,
                    "time": 40.61854349999987,
                    "velocity": 0.5275590551181102,
                    "duration": 0.10309275000000184
                },
                {
                    "name": "G#5",
                    "midi": 80,
                    "time": 40.61854349999987,
                    "velocity": 0.6299212598425197,
                    "duration": 0.10309275000000184
                },
                {
                    "name": "G4",
                    "midi": 67,
                    "time": 40.82472899999988,
                    "velocity": 0.5275590551181102,
                    "duration": 0.3092782499999984
                },
                {
                    "name": "E5",
                    "midi": 76,
                    "time": 40.82472899999988,
                    "velocity": 0.5275590551181102,
                    "duration": 0.3092782499999984
                },
                {
                    "name": "G5",
                    "midi": 79,
                    "time": 40.82472899999988,
                    "velocity": 0.6299212598425197,
                    "duration": 0.3092782499999984
                },
                {
                    "name": "G5",
                    "midi": 79,
                    "time": 41.134007249999875,
                    "velocity": 0.5984251968503937,
                    "duration": 0.09793811250000317
                },
                {
                    "name": "G4",
                    "midi": 67,
                    "time": 41.134007249999875,
                    "velocity": 0.5039370078740157,
                    "duration": 0.09793811250000317
                },
                {
                    "name": "E5",
                    "midi": 76,
                    "time": 41.134007249999875,
                    "velocity": 0.5039370078740157,
                    "duration": 0.09793811250000317
                },
                {
                    "name": "G4",
                    "midi": 67,
                    "time": 41.23709999999988,
                    "velocity": 0.5275590551181102,
                    "duration": 0.10309275000000184
                },
                {
                    "name": "E5",
                    "midi": 76,
                    "time": 41.23709999999988,
                    "velocity": 0.5275590551181102,
                    "duration": 0.10309275000000184
                },
                {
                    "name": "G5",
                    "midi": 79,
                    "time": 41.23709999999988,
                    "velocity": 0.6299212598425197,
                    "duration": 0.10309275000000184
                },
                {
                    "name": "G#4",
                    "midi": 68,
                    "time": 41.44328549999988,
                    "velocity": 0.5275590551181102,
                    "duration": 0.3092782499999984
                },
                {
                    "name": "E5",
                    "midi": 76,
                    "time": 41.44328549999988,
                    "velocity": 0.5275590551181102,
                    "duration": 0.3092782499999984
                },
                {
                    "name": "G#5",
                    "midi": 80,
                    "time": 41.44328549999988,
                    "velocity": 0.6299212598425197,
                    "duration": 0.3092782499999984
                },
                {
                    "name": "G#5",
                    "midi": 80,
                    "time": 41.75256374999988,
                    "velocity": 0.5984251968503937,
                    "duration": 0.09793811250000317
                },
                {
                    "name": "G#4",
                    "midi": 68,
                    "time": 41.75256374999988,
                    "velocity": 0.5039370078740157,
                    "duration": 0.09793811250000317
                },
                {
                    "name": "E5",
                    "midi": 76,
                    "time": 41.75256374999988,
                    "velocity": 0.5039370078740157,
                    "duration": 0.09793811250000317
                },
                {
                    "name": "G#4",
                    "midi": 68,
                    "time": 41.85565649999988,
                    "velocity": 0.5275590551181102,
                    "duration": 0.10309275000000184
                },
                {
                    "name": "E5",
                    "midi": 76,
                    "time": 41.85565649999988,
                    "velocity": 0.5275590551181102,
                    "duration": 0.10309275000000184
                },
                {
                    "name": "G#5",
                    "midi": 80,
                    "time": 41.85565649999988,
                    "velocity": 0.6299212598425197,
                    "duration": 0.10309275000000184
                },
                {
                    "name": "F#5",
                    "midi": 78,
                    "time": 42.061841999999885,
                    "velocity": 0.5275590551181102,
                    "duration": 0.3092782499999984
                },
                {
                    "name": "A#4",
                    "midi": 70,
                    "time": 42.061841999999885,
                    "velocity": 0.5275590551181102,
                    "duration": 0.3092782499999984
                },
                {
                    "name": "E5",
                    "midi": 76,
                    "time": 42.061841999999885,
                    "velocity": 0.5275590551181102,
                    "duration": 0.3092782499999984
                },
                {
                    "name": "A#5",
                    "midi": 82,
                    "time": 42.061841999999885,
                    "velocity": 0.6299212598425197,
                    "duration": 0.3092782499999984
                },
                {
                    "name": "F#5",
                    "midi": 78,
                    "time": 42.37112024999988,
                    "velocity": 0.5039370078740157,
                    "duration": 0.09793811250000317
                },
                {
                    "name": "A#5",
                    "midi": 82,
                    "time": 42.37112024999988,
                    "velocity": 0.5984251968503937,
                    "duration": 0.09793811250000317
                },
                {
                    "name": "A#4",
                    "midi": 70,
                    "time": 42.37112024999988,
                    "velocity": 0.5039370078740157,
                    "duration": 0.09793811250000317
                },
                {
                    "name": "E5",
                    "midi": 76,
                    "time": 42.37112024999988,
                    "velocity": 0.5039370078740157,
                    "duration": 0.09793811250000317
                },
                {
                    "name": "F#5",
                    "midi": 78,
                    "time": 42.474212999999885,
                    "velocity": 0.5275590551181102,
                    "duration": 0.10309275000000184
                },
                {
                    "name": "A#4",
                    "midi": 70,
                    "time": 42.474212999999885,
                    "velocity": 0.5275590551181102,
                    "duration": 0.10309275000000184
                },
                {
                    "name": "E5",
                    "midi": 76,
                    "time": 42.474212999999885,
                    "velocity": 0.5275590551181102,
                    "duration": 0.10309275000000184
                },
                {
                    "name": "A#5",
                    "midi": 82,
                    "time": 42.474212999999885,
                    "velocity": 0.6299212598425197,
                    "duration": 0.10309275000000184
                },
                {
                    "name": "B4",
                    "midi": 71,
                    "time": 42.68039849999989,
                    "velocity": 0.5275590551181102,
                    "duration": 0.3092782499999984
                },
                {
                    "name": "F#5",
                    "midi": 78,
                    "time": 42.68039849999989,
                    "velocity": 0.5275590551181102,
                    "duration": 0.3092782499999984
                },
                {
                    "name": "B5",
                    "midi": 83,
                    "time": 42.68039849999989,
                    "velocity": 0.6299212598425197,
                    "duration": 0.3092782499999984
                },
                {
                    "name": "B5",
                    "midi": 83,
                    "time": 42.98967674999989,
                    "velocity": 0.6377952755905512,
                    "duration": 0.09793811250000317
                },
                {
                    "name": "B4",
                    "midi": 71,
                    "time": 42.98967674999989,
                    "velocity": 0.5354330708661418,
                    "duration": 0.09793811250000317
                },
                {
                    "name": "F#5",
                    "midi": 78,
                    "time": 42.98967674999989,
                    "velocity": 0.5354330708661418,
                    "duration": 0.09793811250000317
                },
                {
                    "name": "B4",
                    "midi": 71,
                    "time": 43.09276949999989,
                    "velocity": 0.5748031496062992,
                    "duration": 0.10309275000000184
                },
                {
                    "name": "F#5",
                    "midi": 78,
                    "time": 43.09276949999989,
                    "velocity": 0.5748031496062992,
                    "duration": 0.10309275000000184
                },
                {
                    "name": "B5",
                    "midi": 83,
                    "time": 43.09276949999989,
                    "velocity": 0.6929133858267716,
                    "duration": 0.10309275000000184
                },
                {
                    "name": "D#5",
                    "midi": 75,
                    "time": 43.29895499999989,
                    "velocity": 0.6062992125984252,
                    "duration": 0.3092782499999984
                },
                {
                    "name": "B5",
                    "midi": 83,
                    "time": 43.29895499999989,
                    "velocity": 0.6062992125984252,
                    "duration": 0.3092782499999984
                },
                {
                    "name": "F#5",
                    "midi": 78,
                    "time": 43.29895499999989,
                    "velocity": 0.6062992125984252,
                    "duration": 0.3092782499999984
                },
                {
                    "name": "D#6",
                    "midi": 87,
                    "time": 43.29895499999989,
                    "velocity": 0.7244094488188977,
                    "duration": 0.3092782499999984
                },
                {
                    "name": "D#5",
                    "midi": 75,
                    "time": 43.60823324999989,
                    "velocity": 0.5433070866141733,
                    "duration": 0.09793811250000317
                },
                {
                    "name": "D#6",
                    "midi": 87,
                    "time": 43.60823324999989,
                    "velocity": 0.6456692913385826,
                    "duration": 0.09793811250000317
                },
                {
                    "name": "B5",
                    "midi": 83,
                    "time": 43.60823324999989,
                    "velocity": 0.5433070866141733,
                    "duration": 0.09793811250000317
                },
                {
                    "name": "F#5",
                    "midi": 78,
                    "time": 43.60823324999989,
                    "velocity": 0.5433070866141733,
                    "duration": 0.09793811250000317
                },
                {
                    "name": "D#5",
                    "midi": 75,
                    "time": 43.71132599999989,
                    "velocity": 0.5511811023622047,
                    "duration": 0.10309275000000184
                },
                {
                    "name": "B5",
                    "midi": 83,
                    "time": 43.71132599999989,
                    "velocity": 0.5511811023622047,
                    "duration": 0.10309275000000184
                },
                {
                    "name": "F#5",
                    "midi": 78,
                    "time": 43.71132599999989,
                    "velocity": 0.5511811023622047,
                    "duration": 0.10309275000000184
                },
                {
                    "name": "D#6",
                    "midi": 87,
                    "time": 43.71132599999989,
                    "velocity": 0.6614173228346457,
                    "duration": 0.10309275000000184
                },
                {
                    "name": "A#5",
                    "midi": 82,
                    "time": 43.9175114999999,
                    "velocity": 0.5275590551181102,
                    "duration": 0.3092782499999984
                },
                {
                    "name": "F#5",
                    "midi": 78,
                    "time": 43.9175114999999,
                    "velocity": 0.5275590551181102,
                    "duration": 0.3092782499999984
                },
                {
                    "name": "E5",
                    "midi": 76,
                    "time": 43.9175114999999,
                    "velocity": 0.5275590551181102,
                    "duration": 0.3092782499999984
                },
                {
                    "name": "C#6",
                    "midi": 85,
                    "time": 43.9175114999999,
                    "velocity": 0.6299212598425197,
                    "duration": 0.3092782499999984
                },
                {
                    "name": "A#5",
                    "midi": 82,
                    "time": 44.226789749999895,
                    "velocity": 0.5039370078740157,
                    "duration": 0.09793811250000317
                },
                {
                    "name": "C#6",
                    "midi": 85,
                    "time": 44.226789749999895,
                    "velocity": 0.5984251968503937,
                    "duration": 0.09793811250000317
                },
                {
                    "name": "F#5",
                    "midi": 78,
                    "time": 44.226789749999895,
                    "velocity": 0.5039370078740157,
                    "duration": 0.09793811250000317
                },
                {
                    "name": "E5",
                    "midi": 76,
                    "time": 44.226789749999895,
                    "velocity": 0.5039370078740157,
                    "duration": 0.09793811250000317
                },
                {
                    "name": "A#5",
                    "midi": 82,
                    "time": 44.3298824999999,
                    "velocity": 0.5275590551181102,
                    "duration": 0.10309275000000184
                },
                {
                    "name": "F#5",
                    "midi": 78,
                    "time": 44.3298824999999,
                    "velocity": 0.5275590551181102,
                    "duration": 0.10309275000000184
                },
                {
                    "name": "E5",
                    "midi": 76,
                    "time": 44.3298824999999,
                    "velocity": 0.5275590551181102,
                    "duration": 0.10309275000000184
                },
                {
                    "name": "C#6",
                    "midi": 85,
                    "time": 44.3298824999999,
                    "velocity": 0.6299212598425197,
                    "duration": 0.10309275000000184
                },
                {
                    "name": "D#5",
                    "midi": 75,
                    "time": 44.5360679999999,
                    "velocity": 0.5826771653543307,
                    "duration": 0.20618549999999658
                },
                {
                    "name": "F#5",
                    "midi": 78,
                    "time": 44.5360679999999,
                    "velocity": 0.5826771653543307,
                    "duration": 0.20618549999999658
                },
                {
                    "name": "B5",
                    "midi": 83,
                    "time": 44.5360679999999,
                    "velocity": 0.6929133858267716,
                    "duration": 0.20618549999999658
                },
                {
                    "name": "F5",
                    "midi": 77,
                    "time": 45.773180999999894,
                    "velocity": 0.5511811023622047,
                    "duration": 0.06872849999999886
                },
                {
                    "name": "D5",
                    "midi": 74,
                    "time": 45.84190949999989,
                    "velocity": 0.5354330708661418,
                    "duration": 0.06872849999999886
                },
                {
                    "name": "B4",
                    "midi": 71,
                    "time": 45.91063799999989,
                    "velocity": 0.5275590551181102,
                    "duration": 0.06872849999999886
                },
                {
                    "name": "G#4",
                    "midi": 68,
                    "time": 45.97936649999989,
                    "velocity": 0.5118110236220472,
                    "duration": 0.06872849999999886
                },
                {
                    "name": "F4",
                    "midi": 65,
                    "time": 46.04809499999989,
                    "velocity": 0.5039370078740157,
                    "duration": 0.06872849999999886
                },
                {
                    "name": "D4",
                    "midi": 62,
                    "time": 46.11682349999989,
                    "velocity": 0.4881889763779528,
                    "duration": 0.06872849999999886
                },
                {
                    "name": "B3",
                    "midi": 59,
                    "time": 46.18555199999989,
                    "velocity": 0.48031496062992124,
                    "duration": 0.06872849999999886
                },
                {
                    "name": "G#3",
                    "midi": 56,
                    "time": 46.254280499999886,
                    "velocity": 0.4645669291338583,
                    "duration": 0.06872849999999886
                },
                {
                    "name": "F3",
                    "midi": 53,
                    "time": 46.323008999999885,
                    "velocity": 0.4566929133858268,
                    "duration": 0.06872849999999886
                },
                {
                    "name": "D3",
                    "midi": 50,
                    "time": 46.391737499999884,
                    "velocity": 0.4409448818897638,
                    "duration": 0.06872849999999886
                },
                {
                    "name": "F3",
                    "midi": 53,
                    "time": 46.46046599999988,
                    "velocity": 0.4330708661417323,
                    "duration": 0.06872849999999886
                },
                {
                    "name": "G#3",
                    "midi": 56,
                    "time": 46.52919449999988,
                    "velocity": 0.4409448818897638,
                    "duration": 0.06872849999999886
                },
                {
                    "name": "B3",
                    "midi": 59,
                    "time": 46.59792299999988,
                    "velocity": 0.4409448818897638,
                    "duration": 0.06872849999999886
                },
                {
                    "name": "D4",
                    "midi": 62,
                    "time": 46.66665149999988,
                    "velocity": 0.44881889763779526,
                    "duration": 0.06872849999999886
                },
                {
                    "name": "F4",
                    "midi": 65,
                    "time": 46.73537999999988,
                    "velocity": 0.4566929133858268,
                    "duration": 0.06872849999999886
                },
                {
                    "name": "G#4",
                    "midi": 68,
                    "time": 46.80410849999988,
                    "velocity": 0.4645669291338583,
                    "duration": 0.06872849999999886
                },
                {
                    "name": "B4",
                    "midi": 71,
                    "time": 46.872836999999876,
                    "velocity": 0.47244094488188976,
                    "duration": 0.06872849999999886
                },
                {
                    "name": "D5",
                    "midi": 74,
                    "time": 46.941565499999875,
                    "velocity": 0.49606299212598426,
                    "duration": 0.06872849999999886
                },
                {
                    "name": "F5",
                    "midi": 77,
                    "time": 47.010293999999874,
                    "velocity": 0.5118110236220472,
                    "duration": 0.06872849999999886
                },
                {
                    "name": "D5",
                    "midi": 74,
                    "time": 47.07902249999987,
                    "velocity": 0.5039370078740157,
                    "duration": 0.06872849999999886
                },
                {
                    "name": "B4",
                    "midi": 71,
                    "time": 47.14775099999987,
                    "velocity": 0.49606299212598426,
                    "duration": 0.06872849999999886
                },
                {
                    "name": "G#4",
                    "midi": 68,
                    "time": 47.21647949999987,
                    "velocity": 0.4881889763779528,
                    "duration": 0.06872849999999886
                },
                {
                    "name": "F4",
                    "midi": 65,
                    "time": 47.28520799999987,
                    "velocity": 0.48031496062992124,
                    "duration": 0.06872849999999886
                },
                {
                    "name": "D4",
                    "midi": 62,
                    "time": 47.35393649999987,
                    "velocity": 0.4645669291338583,
                    "duration": 0.06872849999999886
                },
                {
                    "name": "B3",
                    "midi": 59,
                    "time": 47.42266499999987,
                    "velocity": 0.4566929133858268,
                    "duration": 0.06872849999999886
                },
                {
                    "name": "G#3",
                    "midi": 56,
                    "time": 47.491393499999866,
                    "velocity": 0.44881889763779526,
                    "duration": 0.06872849999999886
                },
                {
                    "name": "F3",
                    "midi": 53,
                    "time": 47.560121999999865,
                    "velocity": 0.4409448818897638,
                    "duration": 0.06872849999999886
                },
                {
                    "name": "D3",
                    "midi": 50,
                    "time": 47.628850499999864,
                    "velocity": 0.4409448818897638,
                    "duration": 0.06872849999999886
                },
                {
                    "name": "F3",
                    "midi": 53,
                    "time": 47.69757899999986,
                    "velocity": 0.4330708661417323,
                    "duration": 0.06872849999999886
                },
                {
                    "name": "G#3",
                    "midi": 56,
                    "time": 47.76630749999986,
                    "velocity": 0.4409448818897638,
                    "duration": 0.06872849999999886
                },
                {
                    "name": "B3",
                    "midi": 59,
                    "time": 47.83503599999986,
                    "velocity": 0.4409448818897638,
                    "duration": 0.06872849999999886
                },
                {
                    "name": "D4",
                    "midi": 62,
                    "time": 47.90376449999986,
                    "velocity": 0.44881889763779526,
                    "duration": 0.06872849999999886
                },
                {
                    "name": "F4",
                    "midi": 65,
                    "time": 47.97249299999986,
                    "velocity": 0.4566929133858268,
                    "duration": 0.06872849999999886
                },
                {
                    "name": "G#4",
                    "midi": 68,
                    "time": 48.04122149999986,
                    "velocity": 0.47244094488188976,
                    "duration": 0.05154637500000092
                },
                {
                    "name": "B4",
                    "midi": 71,
                    "time": 48.09276787499986,
                    "velocity": 0.4881889763779528,
                    "duration": 0.05154637500000092
                },
                {
                    "name": "D5",
                    "midi": 74,
                    "time": 48.14431424999986,
                    "velocity": 0.49606299212598426,
                    "duration": 0.05154637500000092
                },
                {
                    "name": "F5",
                    "midi": 77,
                    "time": 48.19586062499986,
                    "velocity": 0.5196850393700787,
                    "duration": 0.05154637500000092
                },
                {
                    "name": "F#4",
                    "midi": 66,
                    "time": 48.24740699999986,
                    "velocity": 0.5118110236220472,
                    "duration": 0.3092782499999984
                },
                {
                    "name": "F#5",
                    "midi": 78,
                    "time": 48.24740699999986,
                    "velocity": 0.6062992125984252,
                    "duration": 0.3092782499999984
                },
                {
                    "name": "F#5",
                    "midi": 78,
                    "time": 48.55668524999986,
                    "velocity": 0.3858267716535433,
                    "duration": 0.09793811250000317
                },
                {
                    "name": "F#4",
                    "midi": 66,
                    "time": 48.55668524999986,
                    "velocity": 0.3228346456692913,
                    "duration": 0.09793811250000317
                },
                {
                    "name": "F#4",
                    "midi": 66,
                    "time": 48.65977799999986,
                    "velocity": 0.3464566929133858,
                    "duration": 0.20618549999999658
                },
                {
                    "name": "F#5",
                    "midi": 78,
                    "time": 48.65977799999986,
                    "velocity": 0.4094488188976378,
                    "duration": 0.20618549999999658
                },
                {
                    "name": "B4",
                    "midi": 71,
                    "time": 48.86596349999986,
                    "velocity": 0.36220472440944884,
                    "duration": 0.3092782499999984
                },
                {
                    "name": "B5",
                    "midi": 83,
                    "time": 48.86596349999986,
                    "velocity": 0.4330708661417323,
                    "duration": 0.3092782499999984
                },
                {
                    "name": "B5",
                    "midi": 83,
                    "time": 49.175241749999856,
                    "velocity": 0.3858267716535433,
                    "duration": 0.09793811250000317
                },
                {
                    "name": "B4",
                    "midi": 71,
                    "time": 49.175241749999856,
                    "velocity": 0.3228346456692913,
                    "duration": 0.09793811250000317
                },
                {
                    "name": "B4",
                    "midi": 71,
                    "time": 49.27833449999986,
                    "velocity": 0.3543307086614173,
                    "duration": 0.20618549999999658
                },
                {
                    "name": "B5",
                    "midi": 83,
                    "time": 49.27833449999986,
                    "velocity": 0.4251968503937008,
                    "duration": 0.20618549999999658
                },
                {
                    "name": "A#4",
                    "midi": 70,
                    "time": 49.484519999999854,
                    "velocity": 0.36220472440944884,
                    "duration": 0.3092782499999984
                },
                {
                    "name": "A#5",
                    "midi": 82,
                    "time": 49.484519999999854,
                    "velocity": 0.4330708661417323,
                    "duration": 0.3092782499999984
                },
                {
                    "name": "A#5",
                    "midi": 82,
                    "time": 49.79379824999985,
                    "velocity": 0.3858267716535433,
                    "duration": 0.09793811250000317
                },
                {
                    "name": "A#4",
                    "midi": 70,
                    "time": 49.79379824999985,
                    "velocity": 0.3228346456692913,
                    "duration": 0.09793811250000317
                },
                {
                    "name": "A#4",
                    "midi": 70,
                    "time": 49.896890999999854,
                    "velocity": 0.3543307086614173,
                    "duration": 0.20618549999999658
                },
                {
                    "name": "A#5",
                    "midi": 82,
                    "time": 49.896890999999854,
                    "velocity": 0.4251968503937008,
                    "duration": 0.20618549999999658
                },
                {
                    "name": "E5",
                    "midi": 76,
                    "time": 50.10307649999985,
                    "velocity": 0.36220472440944884,
                    "duration": 0.6185564999999968
                },
                {
                    "name": "E6",
                    "midi": 88,
                    "time": 50.10307649999985,
                    "velocity": 0.4330708661417323,
                    "duration": 0.6185564999999968
                },
                {
                    "name": "D#5",
                    "midi": 75,
                    "time": 50.72163299999985,
                    "velocity": 0.36220472440944884,
                    "duration": 0.3092782499999984
                },
                {
                    "name": "D#6",
                    "midi": 87,
                    "time": 50.72163299999985,
                    "velocity": 0.4330708661417323,
                    "duration": 0.3092782499999984
                },
                {
                    "name": "D#6",
                    "midi": 87,
                    "time": 51.030911249999846,
                    "velocity": 0.3858267716535433,
                    "duration": 0.09793811250000317
                },
                {
                    "name": "D#5",
                    "midi": 75,
                    "time": 51.030911249999846,
                    "velocity": 0.3228346456692913,
                    "duration": 0.09793811250000317
                },
                {
                    "name": "B4",
                    "midi": 71,
                    "time": 51.13400399999985,
                    "velocity": 0.3543307086614173,
                    "duration": 0.20618549999999658
                },
                {
                    "name": "B5",
                    "midi": 83,
                    "time": 51.13400399999985,
                    "velocity": 0.4251968503937008,
                    "duration": 0.20618549999999658
                },
                {
                    "name": "G#4",
                    "midi": 68,
                    "time": 51.340189499999845,
                    "velocity": 0.36220472440944884,
                    "duration": 0.3092782499999984
                },
                {
                    "name": "G#5",
                    "midi": 80,
                    "time": 51.340189499999845,
                    "velocity": 0.4330708661417323,
                    "duration": 0.3092782499999984
                },
                {
                    "name": "G#5",
                    "midi": 80,
                    "time": 51.64946774999984,
                    "velocity": 0.3858267716535433,
                    "duration": 0.09793811250000317
                },
                {
                    "name": "G#4",
                    "midi": 68,
                    "time": 51.64946774999984,
                    "velocity": 0.3228346456692913,
                    "duration": 0.09793811250000317
                },
                {
                    "name": "C#5",
                    "midi": 73,
                    "time": 51.752560499999845,
                    "velocity": 0.3543307086614173,
                    "duration": 0.20618549999999658
                },
                {
                    "name": "C#6",
                    "midi": 85,
                    "time": 51.752560499999845,
                    "velocity": 0.4251968503937008,
                    "duration": 0.20618549999999658
                },
                {
                    "name": "A#4",
                    "midi": 70,
                    "time": 51.95874599999984,
                    "velocity": 0.36220472440944884,
                    "duration": 0.3092782499999984
                },
                {
                    "name": "A#5",
                    "midi": 82,
                    "time": 51.95874599999984,
                    "velocity": 0.4330708661417323,
                    "duration": 0.3092782499999984
                },
                {
                    "name": "A#5",
                    "midi": 82,
                    "time": 52.26802424999984,
                    "velocity": 0.3858267716535433,
                    "duration": 0.09793811250000317
                },
                {
                    "name": "A#4",
                    "midi": 70,
                    "time": 52.26802424999984,
                    "velocity": 0.3228346456692913,
                    "duration": 0.09793811250000317
                },
                {
                    "name": "C#5",
                    "midi": 73,
                    "time": 52.37111699999984,
                    "velocity": 0.3543307086614173,
                    "duration": 0.20618549999999658
                },
                {
                    "name": "C#6",
                    "midi": 85,
                    "time": 52.37111699999984,
                    "velocity": 0.4251968503937008,
                    "duration": 0.20618549999999658
                },
                {
                    "name": "F#4",
                    "midi": 66,
                    "time": 52.57730249999984,
                    "velocity": 0.36220472440944884,
                    "duration": 0.3092782499999984
                },
                {
                    "name": "F#5",
                    "midi": 78,
                    "time": 52.57730249999984,
                    "velocity": 0.4330708661417323,
                    "duration": 0.3092782499999984
                },
                {
                    "name": "D#6",
                    "midi": 87,
                    "time": 52.88658074999984,
                    "velocity": 0.41732283464566927,
                    "duration": 0.10309275000000184
                },
                {
                    "name": "E6",
                    "midi": 88,
                    "time": 52.98967349999984,
                    "velocity": 0.41732283464566927,
                    "duration": 0.10309275000000184
                },
                {
                    "name": "F6",
                    "midi": 89,
                    "time": 53.09276624999984,
                    "velocity": 0.41732283464566927,
                    "duration": 0.10309275000000184
                },
                {
                    "name": "F#5",
                    "midi": 78,
                    "time": 53.19585899999984,
                    "velocity": 0.3937007874015748,
                    "duration": 0.3092782499999984
                },
                {
                    "name": "F#6",
                    "midi": 90,
                    "time": 53.19585899999984,
                    "velocity": 0.47244094488188976,
                    "duration": 0.3092782499999984
                },
                {
                    "name": "F#6",
                    "midi": 90,
                    "time": 53.50513724999984,
                    "velocity": 0.41732283464566927,
                    "duration": 0.10309275000000184
                },
                {
                    "name": "F#5",
                    "midi": 78,
                    "time": 53.50513724999984,
                    "velocity": 0.3543307086614173,
                    "duration": 0.10309275000000184
                },
                {
                    "name": "F#5",
                    "midi": 78,
                    "time": 53.60822999999984,
                    "velocity": 0.3779527559055118,
                    "duration": 0.20618549999999658
                },
                {
                    "name": "F#6",
                    "midi": 90,
                    "time": 53.60822999999984,
                    "velocity": 0.44881889763779526,
                    "duration": 0.20618549999999658
                },
                {
                    "name": "B5",
                    "midi": 83,
                    "time": 53.81441549999984,
                    "velocity": 0.3937007874015748,
                    "duration": 0.3092782499999984
                },
                {
                    "name": "B6",
                    "midi": 95,
                    "time": 53.81441549999984,
                    "velocity": 0.47244094488188976,
                    "duration": 0.3092782499999984
                },
                {
                    "name": "B6",
                    "midi": 95,
                    "time": 54.12369374999984,
                    "velocity": 0.41732283464566927,
                    "duration": 0.10309275000000184
                },
                {
                    "name": "B5",
                    "midi": 83,
                    "time": 54.12369374999984,
                    "velocity": 0.3543307086614173,
                    "duration": 0.10309275000000184
                },
                {
                    "name": "B5",
                    "midi": 83,
                    "time": 54.22678649999984,
                    "velocity": 0.3858267716535433,
                    "duration": 0.20618549999999658
                },
                {
                    "name": "B6",
                    "midi": 95,
                    "time": 54.22678649999984,
                    "velocity": 0.4645669291338583,
                    "duration": 0.20618549999999658
                },
                {
                    "name": "A#5",
                    "midi": 82,
                    "time": 54.432971999999836,
                    "velocity": 0.3937007874015748,
                    "duration": 0.3092782499999984
                },
                {
                    "name": "A#6",
                    "midi": 94,
                    "time": 54.432971999999836,
                    "velocity": 0.47244094488188976,
                    "duration": 0.3092782499999984
                },
                {
                    "name": "A#6",
                    "midi": 94,
                    "time": 54.742250249999834,
                    "velocity": 0.41732283464566927,
                    "duration": 0.10309275000000184
                },
                {
                    "name": "A#5",
                    "midi": 82,
                    "time": 54.742250249999834,
                    "velocity": 0.3543307086614173,
                    "duration": 0.10309275000000184
                },
                {
                    "name": "A#5",
                    "midi": 82,
                    "time": 54.845342999999836,
                    "velocity": 0.3858267716535433,
                    "duration": 0.20618549999999658
                },
                {
                    "name": "A#6",
                    "midi": 94,
                    "time": 54.845342999999836,
                    "velocity": 0.4645669291338583,
                    "duration": 0.20618549999999658
                },
                {
                    "name": "E6",
                    "midi": 88,
                    "time": 55.05152849999983,
                    "velocity": 0.3937007874015748,
                    "duration": 0.6185564999999968
                },
                {
                    "name": "E7",
                    "midi": 100,
                    "time": 55.05152849999983,
                    "velocity": 0.47244094488188976,
                    "duration": 0.6185564999999968
                },
                {
                    "name": "D#6",
                    "midi": 87,
                    "time": 55.67008499999983,
                    "velocity": 0.3937007874015748,
                    "duration": 0.3092782499999984
                },
                {
                    "name": "D#7",
                    "midi": 99,
                    "time": 55.67008499999983,
                    "velocity": 0.47244094488188976,
                    "duration": 0.3092782499999984
                },
                {
                    "name": "D#7",
                    "midi": 99,
                    "time": 55.97936324999983,
                    "velocity": 0.41732283464566927,
                    "duration": 0.10309275000000184
                },
                {
                    "name": "D#6",
                    "midi": 87,
                    "time": 55.97936324999983,
                    "velocity": 0.3543307086614173,
                    "duration": 0.10309275000000184
                },
                {
                    "name": "B5",
                    "midi": 83,
                    "time": 56.08245599999983,
                    "velocity": 0.3858267716535433,
                    "duration": 0.20618549999999658
                },
                {
                    "name": "B6",
                    "midi": 95,
                    "time": 56.08245599999983,
                    "velocity": 0.4645669291338583,
                    "duration": 0.20618549999999658
                },
                {
                    "name": "G#5",
                    "midi": 80,
                    "time": 56.28864149999983,
                    "velocity": 0.3937007874015748,
                    "duration": 0.3092782499999984
                },
                {
                    "name": "G#6",
                    "midi": 92,
                    "time": 56.28864149999983,
                    "velocity": 0.47244094488188976,
                    "duration": 0.3092782499999984
                },
                {
                    "name": "G#6",
                    "midi": 92,
                    "time": 56.597919749999825,
                    "velocity": 0.41732283464566927,
                    "duration": 0.10309275000000184
                },
                {
                    "name": "G#5",
                    "midi": 80,
                    "time": 56.597919749999825,
                    "velocity": 0.3543307086614173,
                    "duration": 0.10309275000000184
                },
                {
                    "name": "C#6",
                    "midi": 85,
                    "time": 56.70101249999983,
                    "velocity": 0.3858267716535433,
                    "duration": 0.20618549999999658
                },
                {
                    "name": "C#7",
                    "midi": 97,
                    "time": 56.70101249999983,
                    "velocity": 0.4645669291338583,
                    "duration": 0.20618549999999658
                },
                {
                    "name": "A#5",
                    "midi": 82,
                    "time": 56.90719799999982,
                    "velocity": 0.3937007874015748,
                    "duration": 0.3092782499999984
                },
                {
                    "name": "A#6",
                    "midi": 94,
                    "time": 56.90719799999982,
                    "velocity": 0.47244094488188976,
                    "duration": 0.3092782499999984
                },
                {
                    "name": "A#6",
                    "midi": 94,
                    "time": 57.21647624999982,
                    "velocity": 0.41732283464566927,
                    "duration": 0.10309275000000184
                },
                {
                    "name": "A#5",
                    "midi": 82,
                    "time": 57.21647624999982,
                    "velocity": 0.3543307086614173,
                    "duration": 0.10309275000000184
                },
                {
                    "name": "C#6",
                    "midi": 85,
                    "time": 57.319568999999824,
                    "velocity": 0.3858267716535433,
                    "duration": 0.20618549999999658
                },
                {
                    "name": "C#7",
                    "midi": 97,
                    "time": 57.319568999999824,
                    "velocity": 0.4645669291338583,
                    "duration": 0.20618549999999658
                },
                {
                    "name": "B5",
                    "midi": 83,
                    "time": 57.52575449999982,
                    "velocity": 0.3937007874015748,
                    "duration": 0.6185564999999968
                },
                {
                    "name": "B6",
                    "midi": 95,
                    "time": 57.52575449999982,
                    "velocity": 0.47244094488188976,
                    "duration": 0.6185564999999968
                },
                {
                    "name": "F#4",
                    "midi": 66,
                    "time": 58.24740374999982,
                    "velocity": 0.5275590551181102,
                    "duration": 0.10309275000000184
                },
                {
                    "name": "F#5",
                    "midi": 78,
                    "time": 58.35049649999982,
                    "velocity": 0.5905511811023622,
                    "duration": 0.10309275000000184
                },
                {
                    "name": "D#5",
                    "midi": 75,
                    "time": 58.35049649999982,
                    "velocity": 0.49606299212598426,
                    "duration": 0.10309275000000184
                },
                {
                    "name": "B4",
                    "midi": 71,
                    "time": 58.45358924999982,
                    "velocity": 0.49606299212598426,
                    "duration": 0.10309275000000184
                },
                {
                    "name": "D#5",
                    "midi": 75,
                    "time": 58.556681999999824,
                    "velocity": 0.5275590551181102,
                    "duration": 0.10309275000000184
                },
                {
                    "name": "B4",
                    "midi": 71,
                    "time": 58.556681999999824,
                    "velocity": 0.4409448818897638,
                    "duration": 0.10309275000000184
                },
                {
                    "name": "F#4",
                    "midi": 66,
                    "time": 58.659774749999826,
                    "velocity": 0.49606299212598426,
                    "duration": 0.10309275000000184
                },
                {
                    "name": "B4",
                    "midi": 71,
                    "time": 58.86596024999983,
                    "velocity": 0.5275590551181102,
                    "duration": 0.10309275000000184
                },
                {
                    "name": "B5",
                    "midi": 83,
                    "time": 58.96905299999983,
                    "velocity": 0.5984251968503937,
                    "duration": 0.10309275000000184
                },
                {
                    "name": "G#5",
                    "midi": 80,
                    "time": 58.96905299999983,
                    "velocity": 0.5039370078740157,
                    "duration": 0.10309275000000184
                },
                {
                    "name": "F5",
                    "midi": 77,
                    "time": 59.072145749999834,
                    "velocity": 0.5039370078740157,
                    "duration": 0.10309275000000184
                },
                {
                    "name": "G#5",
                    "midi": 80,
                    "time": 59.175238499999836,
                    "velocity": 0.5275590551181102,
                    "duration": 0.10309275000000184
                },
                {
                    "name": "F5",
                    "midi": 77,
                    "time": 59.175238499999836,
                    "velocity": 0.4409448818897638,
                    "duration": 0.10309275000000184
                },
                {
                    "name": "B4",
                    "midi": 71,
                    "time": 59.27833124999984,
                    "velocity": 0.49606299212598426,
                    "duration": 0.10309275000000184
                },
                {
                    "name": "A#4",
                    "midi": 70,
                    "time": 59.48451674999984,
                    "velocity": 0.5275590551181102,
                    "duration": 0.10309275000000184
                },
                {
                    "name": "A#5",
                    "midi": 82,
                    "time": 59.58760949999984,
                    "velocity": 0.5984251968503937,
                    "duration": 0.10309275000000184
                },
                {
                    "name": "G#5",
                    "midi": 80,
                    "time": 59.58760949999984,
                    "velocity": 0.5039370078740157,
                    "duration": 0.10309275000000184
                },
                {
                    "name": "D#5",
                    "midi": 75,
                    "time": 59.58760949999984,
                    "velocity": 0.5039370078740157,
                    "duration": 0.10309275000000184
                },
                {
                    "name": "A#4",
                    "midi": 70,
                    "time": 59.690702249999845,
                    "velocity": 0.49606299212598426,
                    "duration": 0.10309275000000184
                },
                {
                    "name": "F#5",
                    "midi": 78,
                    "time": 59.79379499999985,
                    "velocity": 0.5275590551181102,
                    "duration": 0.10309275000000184
                },
                {
                    "name": "D#5",
                    "midi": 75,
                    "time": 59.79379499999985,
                    "velocity": 0.4409448818897638,
                    "duration": 0.10309275000000184
                },
                {
                    "name": "A#4",
                    "midi": 70,
                    "time": 59.89688774999985,
                    "velocity": 0.49606299212598426,
                    "duration": 0.10309275000000184
                },
                {
                    "name": "F4",
                    "midi": 65,
                    "time": 60.10307324999985,
                    "velocity": 0.5275590551181102,
                    "duration": 0.10309275000000184
                },
                {
                    "name": "F5",
                    "midi": 77,
                    "time": 60.206165999999854,
                    "velocity": 0.6062992125984252,
                    "duration": 0.10309275000000184
                },
                {
                    "name": "D#5",
                    "midi": 75,
                    "time": 60.206165999999854,
                    "velocity": 0.5118110236220472,
                    "duration": 0.10309275000000184
                },
                {
                    "name": "A#4",
                    "midi": 70,
                    "time": 60.206165999999854,
                    "velocity": 0.5118110236220472,
                    "duration": 0.10309275000000184
                },
                {
                    "name": "F4",
                    "midi": 65,
                    "time": 60.309258749999856,
                    "velocity": 0.5039370078740157,
                    "duration": 0.10309275000000184
                },
                {
                    "name": "A#4",
                    "midi": 70,
                    "time": 60.41235149999986,
                    "velocity": 0.4409448818897638,
                    "duration": 0.10309275000000184
                },
                {
                    "name": "D5",
                    "midi": 74,
                    "time": 60.41235149999986,
                    "velocity": 0.5275590551181102,
                    "duration": 0.10309275000000184
                },
                {
                    "name": "F4",
                    "midi": 65,
                    "time": 60.51544424999986,
                    "velocity": 0.49606299212598426,
                    "duration": 0.10309275000000184
                },
                {
                    "name": "G#4",
                    "midi": 68,
                    "time": 60.72162974999986,
                    "velocity": 0.5275590551181102,
                    "duration": 0.10309275000000184
                },
                {
                    "name": "G#5",
                    "midi": 80,
                    "time": 60.824722499999865,
                    "velocity": 0.5905511811023622,
                    "duration": 0.10309275000000184
                },
                {
                    "name": "F5",
                    "midi": 77,
                    "time": 60.824722499999865,
                    "velocity": 0.49606299212598426,
                    "duration": 0.10309275000000184
                },
                {
                    "name": "C#5",
                    "midi": 73,
                    "time": 60.92781524999987,
                    "velocity": 0.49606299212598426,
                    "duration": 0.10309275000000184
                },
                {
                    "name": "F5",
                    "midi": 77,
                    "time": 61.03090799999987,
                    "velocity": 0.5275590551181102,
                    "duration": 0.10309275000000184
                },
                {
                    "name": "C#5",
                    "midi": 73,
                    "time": 61.03090799999987,
                    "velocity": 0.4409448818897638,
                    "duration": 0.10309275000000184
                },
                {
                    "name": "G#4",
                    "midi": 68,
                    "time": 61.13400074999987,
                    "velocity": 0.49606299212598426,
                    "duration": 0.10309275000000184
                },
                {
                    "name": "C#5",
                    "midi": 73,
                    "time": 61.340186249999874,
                    "velocity": 0.5275590551181102,
                    "duration": 0.10309275000000184
                },
                {
                    "name": "C#6",
                    "midi": 85,
                    "time": 61.443278999999876,
                    "velocity": 0.5984251968503937,
                    "duration": 0.10309275000000184
                },
                {
                    "name": "A#5",
                    "midi": 82,
                    "time": 61.443278999999876,
                    "velocity": 0.5039370078740157,
                    "duration": 0.10309275000000184
                },
                {
                    "name": "G5",
                    "midi": 79,
                    "time": 61.54637174999988,
                    "velocity": 0.5039370078740157,
                    "duration": 0.10309275000000184
                },
                {
                    "name": "A#5",
                    "midi": 82,
                    "time": 61.64946449999988,
                    "velocity": 0.5275590551181102,
                    "duration": 0.10309275000000184
                },
                {
                    "name": "G5",
                    "midi": 79,
                    "time": 61.64946449999988,
                    "velocity": 0.4409448818897638,
                    "duration": 0.10309275000000184
                },
                {
                    "name": "C#5",
                    "midi": 73,
                    "time": 61.75255724999988,
                    "velocity": 0.49606299212598426,
                    "duration": 0.10309275000000184
                },
                {
                    "name": "C5",
                    "midi": 72,
                    "time": 61.958742749999885,
                    "velocity": 0.5275590551181102,
                    "duration": 0.10309275000000184
                },
                {
                    "name": "C6",
                    "midi": 84,
                    "time": 62.06183549999989,
                    "velocity": 0.5984251968503937,
                    "duration": 0.10309275000000184
                },
                {
                    "name": "A#5",
                    "midi": 82,
                    "time": 62.06183549999989,
                    "velocity": 0.5039370078740157,
                    "duration": 0.10309275000000184
                },
                {
                    "name": "G5",
                    "midi": 79,
                    "time": 62.06183549999989,
                    "velocity": 0.5039370078740157,
                    "duration": 0.10309275000000184
                },
                {
                    "name": "C5",
                    "midi": 72,
                    "time": 62.16492824999989,
                    "velocity": 0.49606299212598426,
                    "duration": 0.10309275000000184
                },
                {
                    "name": "G#5",
                    "midi": 80,
                    "time": 62.26802099999989,
                    "velocity": 0.5275590551181102,
                    "duration": 0.10309275000000184
                },
                {
                    "name": "F5",
                    "midi": 77,
                    "time": 62.26802099999989,
                    "velocity": 0.4409448818897638,
                    "duration": 0.10309275000000184
                },
                {
                    "name": "C5",
                    "midi": 72,
                    "time": 62.37111374999989,
                    "velocity": 0.49606299212598426,
                    "duration": 0.10309275000000184
                },
                {
                    "name": "G4",
                    "midi": 67,
                    "time": 62.577299249999896,
                    "velocity": 0.5275590551181102,
                    "duration": 0.10309275000000184
                },
                {
                    "name": "G5",
                    "midi": 79,
                    "time": 62.6803919999999,
                    "velocity": 0.6062992125984252,
                    "duration": 0.10309275000000184
                },
                {
                    "name": "F5",
                    "midi": 77,
                    "time": 62.6803919999999,
                    "velocity": 0.5118110236220472,
                    "duration": 0.10309275000000184
                },
                {
                    "name": "C5",
                    "midi": 72,
                    "time": 62.6803919999999,
                    "velocity": 0.5118110236220472,
                    "duration": 0.10309275000000184
                },
                {
                    "name": "G4",
                    "midi": 67,
                    "time": 62.7834847499999,
                    "velocity": 0.5039370078740157,
                    "duration": 0.10309275000000184
                },
                {
                    "name": "C5",
                    "midi": 72,
                    "time": 62.8865774999999,
                    "velocity": 0.4409448818897638,
                    "duration": 0.10309275000000184
                },
                {
                    "name": "E5",
                    "midi": 76,
                    "time": 62.8865774999999,
                    "velocity": 0.5275590551181102,
                    "duration": 0.10309275000000184
                },
                {
                    "name": "G4",
                    "midi": 67,
                    "time": 62.989670249999904,
                    "velocity": 0.49606299212598426,
                    "duration": 0.10309275000000184
                },
                {
                    "name": "A#4",
                    "midi": 70,
                    "time": 63.19585574999991,
                    "velocity": 0.5511811023622047,
                    "duration": 0.10309275000000184
                },
                {
                    "name": "A#5",
                    "midi": 82,
                    "time": 63.29894849999991,
                    "velocity": 0.6141732283464567,
                    "duration": 0.10309275000000184
                },
                {
                    "name": "G5",
                    "midi": 79,
                    "time": 63.29894849999991,
                    "velocity": 0.5196850393700787,
                    "duration": 0.10309275000000184
                },
                {
                    "name": "D#5",
                    "midi": 75,
                    "time": 63.40204124999991,
                    "velocity": 0.5196850393700787,
                    "duration": 0.10309275000000184
                },
                {
                    "name": "G5",
                    "midi": 79,
                    "time": 63.50513399999991,
                    "velocity": 0.5590551181102362,
                    "duration": 0.10309275000000184
                },
                {
                    "name": "D#5",
                    "midi": 75,
                    "time": 63.50513399999991,
                    "velocity": 0.4645669291338583,
                    "duration": 0.10309275000000184
                },
                {
                    "name": "A#4",
                    "midi": 70,
                    "time": 63.608226749999915,
                    "velocity": 0.5196850393700787,
                    "duration": 0.10309275000000184
                },
                {
                    "name": "E5",
                    "midi": 76,
                    "time": 63.81441224999992,
                    "velocity": 0.5590551181102362,
                    "duration": 0.10309275000000184
                },
                {
                    "name": "E6",
                    "midi": 88,
                    "time": 63.91750499999992,
                    "velocity": 0.6377952755905512,
                    "duration": 0.10309275000000184
                },
                {
                    "name": "C#6",
                    "midi": 85,
                    "time": 63.91750499999992,
                    "velocity": 0.5354330708661418,
                    "duration": 0.10309275000000184
                },
                {
                    "name": "A#5",
                    "midi": 82,
                    "time": 64.02059774999992,
                    "velocity": 0.5354330708661418,
                    "duration": 0.10309275000000184
                },
                {
                    "name": "C#6",
                    "midi": 85,
                    "time": 64.12369049999992,
                    "velocity": 0.5590551181102362,
                    "duration": 0.10309275000000184
                },
                {
                    "name": "A#5",
                    "midi": 82,
                    "time": 64.12369049999992,
                    "velocity": 0.4645669291338583,
                    "duration": 0.10309275000000184
                },
                {
                    "name": "E5",
                    "midi": 76,
                    "time": 64.22678324999993,
                    "velocity": 0.5354330708661418,
                    "duration": 0.10309275000000184
                },
                {
                    "name": "D#5",
                    "midi": 75,
                    "time": 64.43296874999993,
                    "velocity": 0.5669291338582677,
                    "duration": 0.10309275000000184
                },
                {
                    "name": "D#6",
                    "midi": 87,
                    "time": 64.53606149999993,
                    "velocity": 0.6456692913385826,
                    "duration": 0.10309275000000184
                },
                {
                    "name": "C#6",
                    "midi": 85,
                    "time": 64.53606149999993,
                    "velocity": 0.5433070866141733,
                    "duration": 0.10309275000000184
                },
                {
                    "name": "A#5",
                    "midi": 82,
                    "time": 64.53606149999993,
                    "velocity": 0.5433070866141733,
                    "duration": 0.10309275000000184
                },
                {
                    "name": "D#5",
                    "midi": 75,
                    "time": 64.63915424999993,
                    "velocity": 0.5354330708661418,
                    "duration": 0.10309275000000184
                },
                {
                    "name": "B5",
                    "midi": 83,
                    "time": 64.74224699999994,
                    "velocity": 0.5748031496062992,
                    "duration": 0.10309275000000184
                },
                {
                    "name": "G#5",
                    "midi": 80,
                    "time": 64.74224699999994,
                    "velocity": 0.48031496062992124,
                    "duration": 0.10309275000000184
                },
                {
                    "name": "D#5",
                    "midi": 75,
                    "time": 64.84533974999994,
                    "velocity": 0.5354330708661418,
                    "duration": 0.10309275000000184
                },
                {
                    "name": "A#4",
                    "midi": 70,
                    "time": 65.05152524999994,
                    "velocity": 0.5511811023622047,
                    "duration": 0.10309275000000184
                },
                {
                    "name": "A#5",
                    "midi": 82,
                    "time": 65.15461799999994,
                    "velocity": 0.6299212598425197,
                    "duration": 0.10309275000000184
                },
                {
                    "name": "G#5",
                    "midi": 80,
                    "time": 65.15461799999994,
                    "velocity": 0.5354330708661418,
                    "duration": 0.10309275000000184
                },
                {
                    "name": "D#5",
                    "midi": 75,
                    "time": 65.15461799999994,
                    "velocity": 0.5354330708661418,
                    "duration": 0.10309275000000184
                },
                {
                    "name": "A#4",
                    "midi": 70,
                    "time": 65.25771074999994,
                    "velocity": 0.5275590551181102,
                    "duration": 0.10309275000000184
                },
                {
                    "name": "D#5",
                    "midi": 75,
                    "time": 65.36080349999995,
                    "velocity": 0.4566929133858268,
                    "duration": 0.10309275000000184
                },
                {
                    "name": "G5",
                    "midi": 79,
                    "time": 65.36080349999995,
                    "velocity": 0.5511811023622047,
                    "duration": 0.10309275000000184
                },
                {
                    "name": "A#4",
                    "midi": 70,
                    "time": 65.46389624999995,
                    "velocity": 0.5196850393700787,
                    "duration": 0.10309275000000184
                },
                {
                    "name": "E5",
                    "midi": 76,
                    "time": 65.56698899999995,
                    "velocity": 0.6299212598425197,
                    "duration": 0.30927825000000553
                },
                {
                    "name": "G5",
                    "midi": 79,
                    "time": 65.56698899999995,
                    "velocity": 0.6299212598425197,
                    "duration": 0.30927825000000553
                },
                {
                    "name": "A#5",
                    "midi": 82,
                    "time": 65.56698899999995,
                    "velocity": 0.6299212598425197,
                    "duration": 0.30927825000000553
                },
                {
                    "name": "E6",
                    "midi": 88,
                    "time": 65.56698899999995,
                    "velocity": 0.7480314960629921,
                    "duration": 0.30927825000000553
                },
                {
                    "name": "E5",
                    "midi": 76,
                    "time": 65.87626724999996,
                    "velocity": 0.5984251968503937,
                    "duration": 0.09793811250000317
                },
                {
                    "name": "G5",
                    "midi": 79,
                    "time": 65.87626724999996,
                    "velocity": 0.5984251968503937,
                    "duration": 0.09793811250000317
                },
                {
                    "name": "A#5",
                    "midi": 82,
                    "time": 65.87626724999996,
                    "velocity": 0.5984251968503937,
                    "duration": 0.09793811250000317
                },
                {
                    "name": "E6",
                    "midi": 88,
                    "time": 65.87626724999996,
                    "velocity": 0.7086614173228346,
                    "duration": 0.09793811250000317
                },
                {
                    "name": "E5",
                    "midi": 76,
                    "time": 65.97935999999996,
                    "velocity": 0.6220472440944882,
                    "duration": 0.20618550000000369
                },
                {
                    "name": "G5",
                    "midi": 79,
                    "time": 65.97935999999996,
                    "velocity": 0.6220472440944882,
                    "duration": 0.20618550000000369
                },
                {
                    "name": "A#5",
                    "midi": 82,
                    "time": 65.97935999999996,
                    "velocity": 0.6220472440944882,
                    "duration": 0.20618550000000369
                },
                {
                    "name": "E6",
                    "midi": 88,
                    "time": 65.97935999999996,
                    "velocity": 0.7401574803149606,
                    "duration": 0.20618550000000369
                },
                {
                    "name": "E5",
                    "midi": 76,
                    "time": 66.18554549999996,
                    "velocity": 0.6299212598425197,
                    "duration": 0.30927825000000553
                },
                {
                    "name": "G5",
                    "midi": 79,
                    "time": 66.18554549999996,
                    "velocity": 0.6299212598425197,
                    "duration": 0.30927825000000553
                },
                {
                    "name": "A#5",
                    "midi": 82,
                    "time": 66.18554549999996,
                    "velocity": 0.6299212598425197,
                    "duration": 0.30927825000000553
                },
                {
                    "name": "E6",
                    "midi": 88,
                    "time": 66.18554549999996,
                    "velocity": 0.7480314960629921,
                    "duration": 0.30927825000000553
                },
                {
                    "name": "E5",
                    "midi": 76,
                    "time": 66.49482374999997,
                    "velocity": 0.5984251968503937,
                    "duration": 0.09793811250000317
                },
                {
                    "name": "G5",
                    "midi": 79,
                    "time": 66.49482374999997,
                    "velocity": 0.5984251968503937,
                    "duration": 0.09793811250000317
                },
                {
                    "name": "A#5",
                    "midi": 82,
                    "time": 66.49482374999997,
                    "velocity": 0.5984251968503937,
                    "duration": 0.09793811250000317
                },
                {
                    "name": "E6",
                    "midi": 88,
                    "time": 66.49482374999997,
                    "velocity": 0.7086614173228346,
                    "duration": 0.09793811250000317
                },
                {
                    "name": "E5",
                    "midi": 76,
                    "time": 66.59791649999997,
                    "velocity": 0.6220472440944882,
                    "duration": 0.20618550000000369
                },
                {
                    "name": "G5",
                    "midi": 79,
                    "time": 66.59791649999997,
                    "velocity": 0.6220472440944882,
                    "duration": 0.20618550000000369
                },
                {
                    "name": "A#5",
                    "midi": 82,
                    "time": 66.59791649999997,
                    "velocity": 0.6220472440944882,
                    "duration": 0.20618550000000369
                },
                {
                    "name": "E6",
                    "midi": 88,
                    "time": 66.59791649999997,
                    "velocity": 0.7401574803149606,
                    "duration": 0.20618550000000369
                },
                {
                    "name": "E5",
                    "midi": 76,
                    "time": 66.80410199999997,
                    "velocity": 0.4881889763779528,
                    "duration": 0.06872850000000597
                },
                {
                    "name": "A#5",
                    "midi": 82,
                    "time": 66.80410199999997,
                    "velocity": 0.4881889763779528,
                    "duration": 0.06872850000000597
                },
                {
                    "name": "G5",
                    "midi": 79,
                    "time": 66.80410199999997,
                    "velocity": 0.4881889763779528,
                    "duration": 0.06872850000000597
                },
                {
                    "name": "E6",
                    "midi": 88,
                    "time": 66.80410199999997,
                    "velocity": 0.5826771653543307,
                    "duration": 0.06872850000000597
                },
                {
                    "name": "C#6",
                    "midi": 85,
                    "time": 66.87283049999998,
                    "velocity": 0.5275590551181102,
                    "duration": 0.06872850000000597
                },
                {
                    "name": "A#5",
                    "midi": 82,
                    "time": 66.94155899999998,
                    "velocity": 0.5196850393700787,
                    "duration": 0.06872850000000597
                },
                {
                    "name": "G5",
                    "midi": 79,
                    "time": 67.01028749999999,
                    "velocity": 0.5118110236220472,
                    "duration": 0.06872850000000597
                },
                {
                    "name": "E5",
                    "midi": 76,
                    "time": 67.079016,
                    "velocity": 0.5118110236220472,
                    "duration": 0.06872850000000597
                },
                {
                    "name": "C#5",
                    "midi": 73,
                    "time": 67.1477445,
                    "velocity": 0.5039370078740157,
                    "duration": 0.06872850000000597
                },
                {
                    "name": "A#4",
                    "midi": 70,
                    "time": 67.21647300000001,
                    "velocity": 0.49606299212598426,
                    "duration": 0.06872850000000597
                },
                {
                    "name": "G4",
                    "midi": 67,
                    "time": 67.28520150000001,
                    "velocity": 0.49606299212598426,
                    "duration": 0.06872850000000597
                },
                {
                    "name": "E4",
                    "midi": 64,
                    "time": 67.35393000000002,
                    "velocity": 0.49606299212598426,
                    "duration": 0.06872850000000597
                },
                {
                    "name": "C#4",
                    "midi": 61,
                    "time": 67.42265850000003,
                    "velocity": 0.49606299212598426,
                    "duration": 0.06872850000000597
                },
                {
                    "name": "E4",
                    "midi": 64,
                    "time": 67.49138700000003,
                    "velocity": 0.4881889763779528,
                    "duration": 0.06872850000000597
                },
                {
                    "name": "G4",
                    "midi": 67,
                    "time": 67.56011550000004,
                    "velocity": 0.49606299212598426,
                    "duration": 0.06872850000000597
                },
                {
                    "name": "A#4",
                    "midi": 70,
                    "time": 67.62884400000004,
                    "velocity": 0.49606299212598426,
                    "duration": 0.06872850000000597
                },
                {
                    "name": "C#5",
                    "midi": 73,
                    "time": 67.69757250000005,
                    "velocity": 0.5039370078740157,
                    "duration": 0.06872850000000597
                },
                {
                    "name": "E5",
                    "midi": 76,
                    "time": 67.76630100000006,
                    "velocity": 0.5118110236220472,
                    "duration": 0.06872850000000597
                },
                {
                    "name": "G5",
                    "midi": 79,
                    "time": 67.83502950000006,
                    "velocity": 0.5196850393700787,
                    "duration": 0.06872850000000597
                },
                {
                    "name": "A#5",
                    "midi": 82,
                    "time": 67.90375800000007,
                    "velocity": 0.5275590551181102,
                    "duration": 0.06872850000000597
                },
                {
                    "name": "C#6",
                    "midi": 85,
                    "time": 67.97248650000007,
                    "velocity": 0.5511811023622047,
                    "duration": 0.06872850000000597
                },
                {
                    "name": "F5",
                    "midi": 77,
                    "time": 68.04121500000008,
                    "velocity": 0.6299212598425197,
                    "duration": 0.30927825000000553
                },
                {
                    "name": "G#5",
                    "midi": 80,
                    "time": 68.04121500000008,
                    "velocity": 0.6299212598425197,
                    "duration": 0.30927825000000553
                },
                {
                    "name": "B5",
                    "midi": 83,
                    "time": 68.04121500000008,
                    "velocity": 0.6299212598425197,
                    "duration": 0.30927825000000553
                },
                {
                    "name": "F6",
                    "midi": 89,
                    "time": 68.04121500000008,
                    "velocity": 0.7480314960629921,
                    "duration": 0.30927825000000553
                },
                {
                    "name": "F5",
                    "midi": 77,
                    "time": 68.35049325000008,
                    "velocity": 0.5984251968503937,
                    "duration": 0.09793811250000317
                },
                {
                    "name": "G#5",
                    "midi": 80,
                    "time": 68.35049325000008,
                    "velocity": 0.5984251968503937,
                    "duration": 0.09793811250000317
                },
                {
                    "name": "B5",
                    "midi": 83,
                    "time": 68.35049325000008,
                    "velocity": 0.5984251968503937,
                    "duration": 0.09793811250000317
                },
                {
                    "name": "F6",
                    "midi": 89,
                    "time": 68.35049325000008,
                    "velocity": 0.7086614173228346,
                    "duration": 0.09793811250000317
                },
                {
                    "name": "F5",
                    "midi": 77,
                    "time": 68.45358600000009,
                    "velocity": 0.6220472440944882,
                    "duration": 0.20618550000000369
                },
                {
                    "name": "G#5",
                    "midi": 80,
                    "time": 68.45358600000009,
                    "velocity": 0.6220472440944882,
                    "duration": 0.20618550000000369
                },
                {
                    "name": "B5",
                    "midi": 83,
                    "time": 68.45358600000009,
                    "velocity": 0.6220472440944882,
                    "duration": 0.20618550000000369
                },
                {
                    "name": "F6",
                    "midi": 89,
                    "time": 68.45358600000009,
                    "velocity": 0.7401574803149606,
                    "duration": 0.20618550000000369
                },
                {
                    "name": "F5",
                    "midi": 77,
                    "time": 68.65977150000009,
                    "velocity": 0.6299212598425197,
                    "duration": 0.30927825000000553
                },
                {
                    "name": "G#5",
                    "midi": 80,
                    "time": 68.65977150000009,
                    "velocity": 0.6299212598425197,
                    "duration": 0.30927825000000553
                },
                {
                    "name": "B5",
                    "midi": 83,
                    "time": 68.65977150000009,
                    "velocity": 0.6299212598425197,
                    "duration": 0.30927825000000553
                },
                {
                    "name": "F6",
                    "midi": 89,
                    "time": 68.65977150000009,
                    "velocity": 0.7480314960629921,
                    "duration": 0.30927825000000553
                },
                {
                    "name": "F5",
                    "midi": 77,
                    "time": 68.9690497500001,
                    "velocity": 0.5984251968503937,
                    "duration": 0.09793811250000317
                },
                {
                    "name": "G#5",
                    "midi": 80,
                    "time": 68.9690497500001,
                    "velocity": 0.5984251968503937,
                    "duration": 0.09793811250000317
                },
                {
                    "name": "B5",
                    "midi": 83,
                    "time": 68.9690497500001,
                    "velocity": 0.5984251968503937,
                    "duration": 0.09793811250000317
                },
                {
                    "name": "F6",
                    "midi": 89,
                    "time": 68.9690497500001,
                    "velocity": 0.7086614173228346,
                    "duration": 0.09793811250000317
                },
                {
                    "name": "F5",
                    "midi": 77,
                    "time": 69.0721425000001,
                    "velocity": 0.6220472440944882,
                    "duration": 0.20618550000000369
                },
                {
                    "name": "G#5",
                    "midi": 80,
                    "time": 69.0721425000001,
                    "velocity": 0.6220472440944882,
                    "duration": 0.20618550000000369
                },
                {
                    "name": "B5",
                    "midi": 83,
                    "time": 69.0721425000001,
                    "velocity": 0.6220472440944882,
                    "duration": 0.20618550000000369
                },
                {
                    "name": "F6",
                    "midi": 89,
                    "time": 69.0721425000001,
                    "velocity": 0.7401574803149606,
                    "duration": 0.20618550000000369
                },
                {
                    "name": "F5",
                    "midi": 77,
                    "time": 69.2783280000001,
                    "velocity": 0.4881889763779528,
                    "duration": 0.06872850000000597
                },
                {
                    "name": "G#5",
                    "midi": 80,
                    "time": 69.2783280000001,
                    "velocity": 0.4881889763779528,
                    "duration": 0.06872850000000597
                },
                {
                    "name": "F6",
                    "midi": 89,
                    "time": 69.2783280000001,
                    "velocity": 0.5826771653543307,
                    "duration": 0.06872850000000597
                },
                {
                    "name": "B5",
                    "midi": 83,
                    "time": 69.34705650000011,
                    "velocity": 0.5275590551181102,
                    "duration": 0.06872850000000597
                },
                {
                    "name": "G#5",
                    "midi": 80,
                    "time": 69.41578500000011,
                    "velocity": 0.5196850393700787,
                    "duration": 0.06872850000000597
                },
                {
                    "name": "F5",
                    "midi": 77,
                    "time": 69.48451350000012,
                    "velocity": 0.5118110236220472,
                    "duration": 0.06872850000000597
                },
                {
                    "name": "B4",
                    "midi": 71,
                    "time": 69.55324200000013,
                    "velocity": 0.5118110236220472,
                    "duration": 0.06872850000000597
                },
                {
                    "name": "G#4",
                    "midi": 68,
                    "time": 69.62197050000013,
                    "velocity": 0.5039370078740157,
                    "duration": 0.06872850000000597
                },
                {
                    "name": "F4",
                    "midi": 65,
                    "time": 69.69069900000014,
                    "velocity": 0.49606299212598426,
                    "duration": 0.06872850000000597
                },
                {
                    "name": "B3",
                    "midi": 59,
                    "time": 69.75942750000014,
                    "velocity": 0.49606299212598426,
                    "duration": 0.06872850000000597
                },
                {
                    "name": "G#3",
                    "midi": 56,
                    "time": 69.82815600000015,
                    "velocity": 0.49606299212598426,
                    "duration": 0.06872850000000597
                },
                {
                    "name": "F3",
                    "midi": 53,
                    "time": 69.89688450000016,
                    "velocity": 0.49606299212598426,
                    "duration": 0.06872850000000597
                },
                {
                    "name": "G#3",
                    "midi": 56,
                    "time": 69.96561300000016,
                    "velocity": 0.4881889763779528,
                    "duration": 0.06872850000000597
                },
                {
                    "name": "B3",
                    "midi": 59,
                    "time": 70.03434150000017,
                    "velocity": 0.49606299212598426,
                    "duration": 0.06872850000000597
                },
                {
                    "name": "F4",
                    "midi": 65,
                    "time": 70.10307000000017,
                    "velocity": 0.49606299212598426,
                    "duration": 0.06872850000000597
                },
                {
                    "name": "G#4",
                    "midi": 68,
                    "time": 70.17179850000018,
                    "velocity": 0.5039370078740157,
                    "duration": 0.06872850000000597
                },
                {
                    "name": "B4",
                    "midi": 71,
                    "time": 70.24052700000018,
                    "velocity": 0.5118110236220472,
                    "duration": 0.06872850000000597
                },
                {
                    "name": "F5",
                    "midi": 77,
                    "time": 70.30925550000019,
                    "velocity": 0.5196850393700787,
                    "duration": 0.06872850000000597
                },
                {
                    "name": "G#5",
                    "midi": 80,
                    "time": 70.3779840000002,
                    "velocity": 0.5275590551181102,
                    "duration": 0.06872850000000597
                },
                {
                    "name": "B5",
                    "midi": 83,
                    "time": 70.4467125000002,
                    "velocity": 0.5511811023622047,
                    "duration": 0.06872850000000597
                },
                {
                    "name": "G#5",
                    "midi": 80,
                    "time": 70.51544100000021,
                    "velocity": 0.6299212598425197,
                    "duration": 0.30927825000000553
                },
                {
                    "name": "B5",
                    "midi": 83,
                    "time": 70.51544100000021,
                    "velocity": 0.6299212598425197,
                    "duration": 0.30927825000000553
                },
                {
                    "name": "D6",
                    "midi": 86,
                    "time": 70.51544100000021,
                    "velocity": 0.6299212598425197,
                    "duration": 0.30927825000000553
                },
                {
                    "name": "G#6",
                    "midi": 92,
                    "time": 70.51544100000021,
                    "velocity": 0.7480314960629921,
                    "duration": 0.30927825000000553
                },
                {
                    "name": "G#5",
                    "midi": 80,
                    "time": 70.82471925000021,
                    "velocity": 0.5984251968503937,
                    "duration": 0.09793811250000317
                },
                {
                    "name": "B5",
                    "midi": 83,
                    "time": 70.82471925000021,
                    "velocity": 0.5984251968503937,
                    "duration": 0.09793811250000317
                },
                {
                    "name": "D6",
                    "midi": 86,
                    "time": 70.82471925000021,
                    "velocity": 0.5984251968503937,
                    "duration": 0.09793811250000317
                },
                {
                    "name": "G#6",
                    "midi": 92,
                    "time": 70.82471925000021,
                    "velocity": 0.7086614173228346,
                    "duration": 0.09793811250000317
                },
                {
                    "name": "G#5",
                    "midi": 80,
                    "time": 70.92781200000022,
                    "velocity": 0.6220472440944882,
                    "duration": 0.20618550000000369
                },
                {
                    "name": "B5",
                    "midi": 83,
                    "time": 70.92781200000022,
                    "velocity": 0.6220472440944882,
                    "duration": 0.20618550000000369
                },
                {
                    "name": "D6",
                    "midi": 86,
                    "time": 70.92781200000022,
                    "velocity": 0.6220472440944882,
                    "duration": 0.20618550000000369
                },
                {
                    "name": "G#6",
                    "midi": 92,
                    "time": 70.92781200000022,
                    "velocity": 0.7401574803149606,
                    "duration": 0.20618550000000369
                },
                {
                    "name": "G#5",
                    "midi": 80,
                    "time": 71.13399750000022,
                    "velocity": 0.6299212598425197,
                    "duration": 0.30927825000000553
                },
                {
                    "name": "B5",
                    "midi": 83,
                    "time": 71.13399750000022,
                    "velocity": 0.6299212598425197,
                    "duration": 0.30927825000000553
                },
                {
                    "name": "D6",
                    "midi": 86,
                    "time": 71.13399750000022,
                    "velocity": 0.6299212598425197,
                    "duration": 0.30927825000000553
                },
                {
                    "name": "G#6",
                    "midi": 92,
                    "time": 71.13399750000022,
                    "velocity": 0.7480314960629921,
                    "duration": 0.30927825000000553
                },
                {
                    "name": "G#5",
                    "midi": 80,
                    "time": 71.44327575000023,
                    "velocity": 0.5984251968503937,
                    "duration": 0.09793811250000317
                },
                {
                    "name": "B5",
                    "midi": 83,
                    "time": 71.44327575000023,
                    "velocity": 0.5984251968503937,
                    "duration": 0.09793811250000317
                },
                {
                    "name": "D6",
                    "midi": 86,
                    "time": 71.44327575000023,
                    "velocity": 0.5984251968503937,
                    "duration": 0.09793811250000317
                },
                {
                    "name": "G#6",
                    "midi": 92,
                    "time": 71.44327575000023,
                    "velocity": 0.7086614173228346,
                    "duration": 0.09793811250000317
                },
                {
                    "name": "G#5",
                    "midi": 80,
                    "time": 71.54636850000023,
                    "velocity": 0.6220472440944882,
                    "duration": 0.20618550000000369
                },
                {
                    "name": "B5",
                    "midi": 83,
                    "time": 71.54636850000023,
                    "velocity": 0.6220472440944882,
                    "duration": 0.20618550000000369
                },
                {
                    "name": "D6",
                    "midi": 86,
                    "time": 71.54636850000023,
                    "velocity": 0.6220472440944882,
                    "duration": 0.20618550000000369
                },
                {
                    "name": "G#6",
                    "midi": 92,
                    "time": 71.54636850000023,
                    "velocity": 0.7401574803149606,
                    "duration": 0.20618550000000369
                },
                {
                    "name": "G#5",
                    "midi": 80,
                    "time": 71.75255400000023,
                    "velocity": 0.4881889763779528,
                    "duration": 0.06872850000000597
                },
                {
                    "name": "B5",
                    "midi": 83,
                    "time": 71.75255400000023,
                    "velocity": 0.4881889763779528,
                    "duration": 0.06872850000000597
                },
                {
                    "name": "G#6",
                    "midi": 92,
                    "time": 71.75255400000023,
                    "velocity": 0.5826771653543307,
                    "duration": 0.06872850000000597
                },
                {
                    "name": "D6",
                    "midi": 86,
                    "time": 71.82128250000024,
                    "velocity": 0.5275590551181102,
                    "duration": 0.06872850000000597
                },
                {
                    "name": "B5",
                    "midi": 83,
                    "time": 71.89001100000024,
                    "velocity": 0.5196850393700787,
                    "duration": 0.06872850000000597
                },
                {
                    "name": "G#5",
                    "midi": 80,
                    "time": 71.95873950000025,
                    "velocity": 0.5118110236220472,
                    "duration": 0.06872850000000597
                },
                {
                    "name": "D5",
                    "midi": 74,
                    "time": 72.02746800000025,
                    "velocity": 0.5118110236220472,
                    "duration": 0.06872850000000597
                },
                {
                    "name": "B4",
                    "midi": 71,
                    "time": 72.09619650000026,
                    "velocity": 0.5039370078740157,
                    "duration": 0.06872850000000597
                },
                {
                    "name": "G#4",
                    "midi": 68,
                    "time": 72.16492500000027,
                    "velocity": 0.49606299212598426,
                    "duration": 0.06872850000000597
                },
                {
                    "name": "D4",
                    "midi": 62,
                    "time": 72.23365350000027,
                    "velocity": 0.49606299212598426,
                    "duration": 0.06872850000000597
                },
                {
                    "name": "B3",
                    "midi": 59,
                    "time": 72.30238200000028,
                    "velocity": 0.49606299212598426,
                    "duration": 0.06872850000000597
                },
                {
                    "name": "G#3",
                    "midi": 56,
                    "time": 72.37111050000028,
                    "velocity": 0.49606299212598426,
                    "duration": 0.06872850000000597
                },
                {
                    "name": "B3",
                    "midi": 59,
                    "time": 72.43983900000029,
                    "velocity": 0.4881889763779528,
                    "duration": 0.06872850000000597
                },
                {
                    "name": "D4",
                    "midi": 62,
                    "time": 72.5085675000003,
                    "velocity": 0.49606299212598426,
                    "duration": 0.06872850000000597
                },
                {
                    "name": "G#4",
                    "midi": 68,
                    "time": 72.5772960000003,
                    "velocity": 0.49606299212598426,
                    "duration": 0.06872850000000597
                },
                {
                    "name": "B4",
                    "midi": 71,
                    "time": 72.64602450000031,
                    "velocity": 0.5039370078740157,
                    "duration": 0.06872850000000597
                },
                {
                    "name": "D5",
                    "midi": 74,
                    "time": 72.71475300000031,
                    "velocity": 0.5118110236220472,
                    "duration": 0.06872850000000597
                },
                {
                    "name": "G#5",
                    "midi": 80,
                    "time": 72.78348150000032,
                    "velocity": 0.5196850393700787,
                    "duration": 0.06872850000000597
                },
                {
                    "name": "B5",
                    "midi": 83,
                    "time": 72.85221000000033,
                    "velocity": 0.5275590551181102,
                    "duration": 0.06872850000000597
                },
                {
                    "name": "G#6",
                    "midi": 92,
                    "time": 72.92093850000033,
                    "velocity": 0.5511811023622047,
                    "duration": 0.06872850000000597
                },
                {
                    "name": "D#5",
                    "midi": 75,
                    "time": 72.98966700000034,
                    "velocity": 0.6299212598425197,
                    "duration": 0.30927825000000553
                },
                {
                    "name": "G5",
                    "midi": 79,
                    "time": 72.98966700000034,
                    "velocity": 0.6299212598425197,
                    "duration": 0.30927825000000553
                },
                {
                    "name": "A#5",
                    "midi": 82,
                    "time": 72.98966700000034,
                    "velocity": 0.6299212598425197,
                    "duration": 0.30927825000000553
                },
                {
                    "name": "D#6",
                    "midi": 87,
                    "time": 72.98966700000034,
                    "velocity": 0.7480314960629921,
                    "duration": 0.30927825000000553
                },
                {
                    "name": "D#5",
                    "midi": 75,
                    "time": 73.29894525000034,
                    "velocity": 0.7086614173228346,
                    "duration": 0.09793811250000317
                },
                {
                    "name": "D#5",
                    "midi": 75,
                    "time": 73.40203800000035,
                    "velocity": 0.7401574803149606,
                    "duration": 0.10309275000000184
                },
                {
                    "name": "D#5",
                    "midi": 75,
                    "time": 73.60822350000035,
                    "velocity": 0.6299212598425197,
                    "duration": 0.30927825000000553
                },
                {
                    "name": "G#5",
                    "midi": 80,
                    "time": 73.60822350000035,
                    "velocity": 0.6299212598425197,
                    "duration": 0.30927825000000553
                },
                {
                    "name": "B5",
                    "midi": 83,
                    "time": 73.60822350000035,
                    "velocity": 0.6299212598425197,
                    "duration": 0.30927825000000553
                },
                {
                    "name": "D#6",
                    "midi": 87,
                    "time": 73.60822350000035,
                    "velocity": 0.7480314960629921,
                    "duration": 0.30927825000000553
                },
                {
                    "name": "D#5",
                    "midi": 75,
                    "time": 73.91750175000035,
                    "velocity": 0.7086614173228346,
                    "duration": 0.09793811250000317
                },
                {
                    "name": "D#5",
                    "midi": 75,
                    "time": 74.02059450000036,
                    "velocity": 0.7401574803149606,
                    "duration": 0.10309275000000184
                },
                {
                    "name": "D#5",
                    "midi": 75,
                    "time": 74.22678000000036,
                    "velocity": 0.6299212598425197,
                    "duration": 0.30927825000000553
                },
                {
                    "name": "G5",
                    "midi": 79,
                    "time": 74.22678000000036,
                    "velocity": 0.6299212598425197,
                    "duration": 0.30927825000000553
                },
                {
                    "name": "A#5",
                    "midi": 82,
                    "time": 74.22678000000036,
                    "velocity": 0.6299212598425197,
                    "duration": 0.30927825000000553
                },
                {
                    "name": "D#6",
                    "midi": 87,
                    "time": 74.22678000000036,
                    "velocity": 0.7480314960629921,
                    "duration": 0.30927825000000553
                },
                {
                    "name": "D#5",
                    "midi": 75,
                    "time": 74.53605825000037,
                    "velocity": 0.7086614173228346,
                    "duration": 0.09793811250000317
                },
                {
                    "name": "D#5",
                    "midi": 75,
                    "time": 74.63915100000037,
                    "velocity": 0.7401574803149606,
                    "duration": 0.10309275000000184
                },
                {
                    "name": "D#5",
                    "midi": 75,
                    "time": 74.84533650000037,
                    "velocity": 0.6299212598425197,
                    "duration": 0.30927825000000553
                },
                {
                    "name": "G#5",
                    "midi": 80,
                    "time": 74.84533650000037,
                    "velocity": 0.6299212598425197,
                    "duration": 0.30927825000000553
                },
                {
                    "name": "B5",
                    "midi": 83,
                    "time": 74.84533650000037,
                    "velocity": 0.6299212598425197,
                    "duration": 0.30927825000000553
                },
                {
                    "name": "D#6",
                    "midi": 87,
                    "time": 74.84533650000037,
                    "velocity": 0.7480314960629921,
                    "duration": 0.30927825000000553
                },
                {
                    "name": "D#5",
                    "midi": 75,
                    "time": 75.15461475000038,
                    "velocity": 0.7086614173228346,
                    "duration": 0.09793811250000317
                },
                {
                    "name": "D#5",
                    "midi": 75,
                    "time": 75.25770750000038,
                    "velocity": 0.7401574803149606,
                    "duration": 0.10309275000000184
                },
                {
                    "name": "D#4",
                    "midi": 63,
                    "time": 75.46389300000038,
                    "velocity": 0.31496062992125984,
                    "duration": 0.30927825000000553
                },
                {
                    "name": "G4",
                    "midi": 67,
                    "time": 75.46389300000038,
                    "velocity": 0.31496062992125984,
                    "duration": 0.30927825000000553
                },
                {
                    "name": "A#4",
                    "midi": 70,
                    "time": 75.46389300000038,
                    "velocity": 0.31496062992125984,
                    "duration": 0.30927825000000553
                },
                {
                    "name": "D#5",
                    "midi": 75,
                    "time": 75.46389300000038,
                    "velocity": 0.4251968503937008,
                    "duration": 0.30927825000000553
                },
                {
                    "name": "D#4",
                    "midi": 63,
                    "time": 75.77317125000039,
                    "velocity": 0.4251968503937008,
                    "duration": 0.09793811250000317
                },
                {
                    "name": "D#4",
                    "midi": 63,
                    "time": 75.87626400000039,
                    "velocity": 0.4251968503937008,
                    "duration": 0.10309275000000184
                },
                {
                    "name": "D#4",
                    "midi": 63,
                    "time": 76.0824495000004,
                    "velocity": 0.31496062992125984,
                    "duration": 0.30927825000000553
                },
                {
                    "name": "G#4",
                    "midi": 68,
                    "time": 76.0824495000004,
                    "velocity": 0.31496062992125984,
                    "duration": 0.30927825000000553
                },
                {
                    "name": "B4",
                    "midi": 71,
                    "time": 76.0824495000004,
                    "velocity": 0.31496062992125984,
                    "duration": 0.30927825000000553
                },
                {
                    "name": "D#5",
                    "midi": 75,
                    "time": 76.0824495000004,
                    "velocity": 0.4251968503937008,
                    "duration": 0.30927825000000553
                },
                {
                    "name": "D#4",
                    "midi": 63,
                    "time": 76.3917277500004,
                    "velocity": 0.41732283464566927,
                    "duration": 0.09793811250000317
                },
                {
                    "name": "D#4",
                    "midi": 63,
                    "time": 76.4948205000004,
                    "velocity": 0.4330708661417323,
                    "duration": 0.10309275000000184
                },
                {
                    "name": "D#4",
                    "midi": 63,
                    "time": 76.7010060000004,
                    "velocity": 0.31496062992125984,
                    "duration": 0.30927825000000553
                },
                {
                    "name": "G4",
                    "midi": 67,
                    "time": 76.7010060000004,
                    "velocity": 0.31496062992125984,
                    "duration": 0.30927825000000553
                },
                {
                    "name": "A#4",
                    "midi": 70,
                    "time": 76.7010060000004,
                    "velocity": 0.31496062992125984,
                    "duration": 0.30927825000000553
                },
                {
                    "name": "D#5",
                    "midi": 75,
                    "time": 76.7010060000004,
                    "velocity": 0.4251968503937008,
                    "duration": 0.30927825000000553
                },
                {
                    "name": "D#4",
                    "midi": 63,
                    "time": 77.01028425000041,
                    "velocity": 0.4251968503937008,
                    "duration": 0.09793811250000317
                },
                {
                    "name": "D#4",
                    "midi": 63,
                    "time": 77.11337700000041,
                    "velocity": 0.4251968503937008,
                    "duration": 0.10309275000000184
                },
                {
                    "name": "D#4",
                    "midi": 63,
                    "time": 77.31956250000042,
                    "velocity": 0.31496062992125984,
                    "duration": 0.30927825000000553
                },
                {
                    "name": "G#4",
                    "midi": 68,
                    "time": 77.31956250000042,
                    "velocity": 0.31496062992125984,
                    "duration": 0.30927825000000553
                },
                {
                    "name": "B4",
                    "midi": 71,
                    "time": 77.31956250000042,
                    "velocity": 0.31496062992125984,
                    "duration": 0.30927825000000553
                },
                {
                    "name": "D#5",
                    "midi": 75,
                    "time": 77.31956250000042,
                    "velocity": 0.4251968503937008,
                    "duration": 0.30927825000000553
                },
                {
                    "name": "D#4",
                    "midi": 63,
                    "time": 77.62884075000042,
                    "velocity": 0.41732283464566927,
                    "duration": 0.09793811250000317
                },
                {
                    "name": "D#4",
                    "midi": 63,
                    "time": 77.73193350000042,
                    "velocity": 0.4330708661417323,
                    "duration": 0.10309275000000184
                },
                {
                    "name": "D#3",
                    "midi": 51,
                    "time": 77.93811900000043,
                    "velocity": 0.25196850393700787,
                    "duration": 0.30927825000000553
                },
                {
                    "name": "G3",
                    "midi": 55,
                    "time": 77.93811900000043,
                    "velocity": 0.25196850393700787,
                    "duration": 0.30927825000000553
                },
                {
                    "name": "A#3",
                    "midi": 58,
                    "time": 77.93811900000043,
                    "velocity": 0.25196850393700787,
                    "duration": 0.30927825000000553
                },
                {
                    "name": "D#4",
                    "midi": 63,
                    "time": 77.93811900000043,
                    "velocity": 0.29133858267716534,
                    "duration": 0.30927825000000553
                },
                {
                    "name": "D#3",
                    "midi": 51,
                    "time": 78.24739725000043,
                    "velocity": 0.3228346456692913,
                    "duration": 0.09793811250000317
                },
                {
                    "name": "D#3",
                    "midi": 51,
                    "time": 78.35049000000043,
                    "velocity": 0.3228346456692913,
                    "duration": 0.10309275000000184
                },
                {
                    "name": "D#3",
                    "midi": 51,
                    "time": 78.55667550000044,
                    "velocity": 0.23622047244094488,
                    "duration": 0.30927825000000553
                },
                {
                    "name": "G#3",
                    "midi": 56,
                    "time": 78.55667550000044,
                    "velocity": 0.23622047244094488,
                    "duration": 0.30927825000000553
                },
                {
                    "name": "B3",
                    "midi": 59,
                    "time": 78.55667550000044,
                    "velocity": 0.23622047244094488,
                    "duration": 0.30927825000000553
                },
                {
                    "name": "D#4",
                    "midi": 63,
                    "time": 78.55667550000044,
                    "velocity": 0.2677165354330709,
                    "duration": 0.30927825000000553
                },
                {
                    "name": "D#3",
                    "midi": 51,
                    "time": 78.86595375000044,
                    "velocity": 0.29133858267716534,
                    "duration": 0.09793811250000317
                },
                {
                    "name": "D#3",
                    "midi": 51,
                    "time": 78.96904650000045,
                    "velocity": 0.30708661417322836,
                    "duration": 0.10309275000000184
                },
                {
                    "name": "D#3",
                    "midi": 51,
                    "time": 79.17523200000045,
                    "velocity": 0.2125984251968504,
                    "duration": 0.30927825000000553
                },
                {
                    "name": "G#3",
                    "midi": 56,
                    "time": 79.17523200000045,
                    "velocity": 0.2125984251968504,
                    "duration": 0.30927825000000553
                },
                {
                    "name": "A#3",
                    "midi": 58,
                    "time": 79.17523200000045,
                    "velocity": 0.2125984251968504,
                    "duration": 0.30927825000000553
                },
                {
                    "name": "D#4",
                    "midi": 63,
                    "time": 79.17523200000045,
                    "velocity": 0.25196850393700787,
                    "duration": 0.30927825000000553
                },
                {
                    "name": "D#3",
                    "midi": 51,
                    "time": 79.48451025000045,
                    "velocity": 0.28346456692913385,
                    "duration": 0.09793811250000317
                },
                {
                    "name": "D#3",
                    "midi": 51,
                    "time": 79.58760300000046,
                    "velocity": 0.2755905511811024,
                    "duration": 0.10309275000000184
                },
                {
                    "name": "D#3",
                    "midi": 51,
                    "time": 79.79378850000046,
                    "velocity": 0.1968503937007874,
                    "duration": 0.30927825000000553
                },
                {
                    "name": "G3",
                    "midi": 55,
                    "time": 79.79378850000046,
                    "velocity": 0.1968503937007874,
                    "duration": 0.30927825000000553
                },
                {
                    "name": "A#3",
                    "midi": 58,
                    "time": 79.79378850000046,
                    "velocity": 0.1968503937007874,
                    "duration": 0.30927825000000553
                },
                {
                    "name": "D#4",
                    "midi": 63,
                    "time": 79.79378850000046,
                    "velocity": 0.2283464566929134,
                    "duration": 0.30927825000000553
                },
                {
                    "name": "D#3",
                    "midi": 51,
                    "time": 80.10306675000047,
                    "velocity": 0.25196850393700787,
                    "duration": 0.09793811250000317
                },
                {
                    "name": "D#3",
                    "midi": 51,
                    "time": 80.20615950000047,
                    "velocity": 0.25984251968503935,
                    "duration": 0.10309275000000184
                },
                {
                    "name": "D#4",
                    "midi": 63,
                    "time": 80.41234500000047,
                    "velocity": 0.28346456692913385,
                    "duration": 0.30927825000000553
                },
                {
                    "name": "C5",
                    "midi": 72,
                    "time": 80.41234500000047,
                    "velocity": 0.28346456692913385,
                    "duration": 0.30927825000000553
                },
                {
                    "name": "D#5",
                    "midi": 75,
                    "time": 80.41234500000047,
                    "velocity": 0.33070866141732286,
                    "duration": 0.30927825000000553
                },
                {
                    "name": "D#4",
                    "midi": 63,
                    "time": 80.72162325000048,
                    "velocity": 0.2677165354330709,
                    "duration": 0.09793811250000317
                },
                {
                    "name": "C5",
                    "midi": 72,
                    "time": 80.72162325000048,
                    "velocity": 0.2677165354330709,
                    "duration": 0.09793811250000317
                },
                {
                    "name": "D#5",
                    "midi": 75,
                    "time": 80.72162325000048,
                    "velocity": 0.31496062992125984,
                    "duration": 0.09793811250000317
                },
                {
                    "name": "D#4",
                    "midi": 63,
                    "time": 80.82471600000048,
                    "velocity": 0.28346456692913385,
                    "duration": 0.10309275000000184
                },
                {
                    "name": "C5",
                    "midi": 72,
                    "time": 80.82471600000048,
                    "velocity": 0.28346456692913385,
                    "duration": 0.10309275000000184
                },
                {
                    "name": "D#5",
                    "midi": 75,
                    "time": 80.82471600000048,
                    "velocity": 0.33070866141732286,
                    "duration": 0.10309275000000184
                },
                {
                    "name": "D#4",
                    "midi": 63,
                    "time": 81.03090150000048,
                    "velocity": 0.28346456692913385,
                    "duration": 0.30927825000000553
                },
                {
                    "name": "C5",
                    "midi": 72,
                    "time": 81.03090150000048,
                    "velocity": 0.28346456692913385,
                    "duration": 0.30927825000000553
                },
                {
                    "name": "D#5",
                    "midi": 75,
                    "time": 81.03090150000048,
                    "velocity": 0.33070866141732286,
                    "duration": 0.30927825000000553
                },
                {
                    "name": "D#4",
                    "midi": 63,
                    "time": 81.34017975000049,
                    "velocity": 0.2677165354330709,
                    "duration": 0.09793811250000317
                },
                {
                    "name": "C5",
                    "midi": 72,
                    "time": 81.34017975000049,
                    "velocity": 0.2677165354330709,
                    "duration": 0.09793811250000317
                },
                {
                    "name": "D#5",
                    "midi": 75,
                    "time": 81.34017975000049,
                    "velocity": 0.31496062992125984,
                    "duration": 0.09793811250000317
                },
                {
                    "name": "D#4",
                    "midi": 63,
                    "time": 81.44327250000049,
                    "velocity": 0.28346456692913385,
                    "duration": 0.10309275000000184
                },
                {
                    "name": "C5",
                    "midi": 72,
                    "time": 81.44327250000049,
                    "velocity": 0.28346456692913385,
                    "duration": 0.10309275000000184
                },
                {
                    "name": "D#5",
                    "midi": 75,
                    "time": 81.44327250000049,
                    "velocity": 0.33070866141732286,
                    "duration": 0.10309275000000184
                },
                {
                    "name": "D#4",
                    "midi": 63,
                    "time": 81.6494580000005,
                    "velocity": 0.31496062992125984,
                    "duration": 0.10309275000000184
                },
                {
                    "name": "B4",
                    "midi": 71,
                    "time": 81.6494580000005,
                    "velocity": 0.31496062992125984,
                    "duration": 0.10309275000000184
                },
                {
                    "name": "D#5",
                    "midi": 75,
                    "time": 81.6494580000005,
                    "velocity": 0.3779527559055118,
                    "duration": 0.10309275000000184
                },
                {
                    "name": "C5",
                    "midi": 72,
                    "time": 81.7525507500005,
                    "velocity": 0.33858267716535434,
                    "duration": 0.10309275000000184
                },
                {
                    "name": "G#4",
                    "midi": 68,
                    "time": 81.8556435000005,
                    "velocity": 0.33858267716535434,
                    "duration": 0.10309275000000184
                },
                {
                    "name": "D#4",
                    "midi": 63,
                    "time": 81.9587362500005,
                    "velocity": 0.33858267716535434,
                    "duration": 0.10309275000000184
                },
                {
                    "name": "C4",
                    "midi": 60,
                    "time": 82.0618290000005,
                    "velocity": 0.3779527559055118,
                    "duration": 0.10309275000000184
                },
                {
                    "name": "D#4",
                    "midi": 63,
                    "time": 82.2680145000005,
                    "velocity": 0.3937007874015748,
                    "duration": 0.10309275000000184
                },
                {
                    "name": "G#4",
                    "midi": 68,
                    "time": 82.3711072500005,
                    "velocity": 0.3464566929133858,
                    "duration": 0.10309275000000184
                },
                {
                    "name": "C5",
                    "midi": 72,
                    "time": 82.47420000000051,
                    "velocity": 0.3464566929133858,
                    "duration": 0.10309275000000184
                },
                {
                    "name": "D#5",
                    "midi": 75,
                    "time": 82.57729275000051,
                    "velocity": 0.3464566929133858,
                    "duration": 0.10309275000000184
                },
                {
                    "name": "G#5",
                    "midi": 80,
                    "time": 82.68038550000051,
                    "velocity": 0.3700787401574803,
                    "duration": 0.10309275000000184
                },
                {
                    "name": "A5",
                    "midi": 81,
                    "time": 82.88657100000052,
                    "velocity": 0.36220472440944884,
                    "duration": 0.05154637500000092
                },
                {
                    "name": "A4",
                    "midi": 69,
                    "time": 82.88657100000052,
                    "velocity": 0.30708661417322836,
                    "duration": 0.05154637500000092
                },
                {
                    "name": "A#4",
                    "midi": 70,
                    "time": 83.09275650000052,
                    "velocity": 0.33858267716535434,
                    "duration": 0.41237099999999316
                },
                {
                    "name": "A#5",
                    "midi": 82,
                    "time": 83.09275650000052,
                    "velocity": 0.4015748031496063,
                    "duration": 0.41237099999999316
                },
                {
                    "name": "D4",
                    "midi": 62,
                    "time": 83.50512750000051,
                    "velocity": 0.4015748031496063,
                    "duration": 0.10309275000000184
                },
                {
                    "name": "D#4",
                    "midi": 63,
                    "time": 83.60822025000051,
                    "velocity": 0.33070866141732286,
                    "duration": 0.10309275000000184
                },
                {
                    "name": "A#3",
                    "midi": 58,
                    "time": 83.71131300000052,
                    "velocity": 0.3543307086614173,
                    "duration": 0.10309275000000184
                },
                {
                    "name": "G3",
                    "midi": 55,
                    "time": 83.81440575000052,
                    "velocity": 0.33070866141732286,
                    "duration": 0.10309275000000184
                },
                {
                    "name": "D#3",
                    "midi": 51,
                    "time": 83.91749850000052,
                    "velocity": 0.3543307086614173,
                    "duration": 0.10309275000000184
                },
                {
                    "name": "D#4",
                    "midi": 63,
                    "time": 84.12368400000052,
                    "velocity": 0.3543307086614173,
                    "duration": 0.30927825000000553
                },
                {
                    "name": "C#5",
                    "midi": 73,
                    "time": 84.12368400000052,
                    "velocity": 0.3543307086614173,
                    "duration": 0.30927825000000553
                },
                {
                    "name": "D#5",
                    "midi": 75,
                    "time": 84.12368400000052,
                    "velocity": 0.41732283464566927,
                    "duration": 0.30927825000000553
                },
                {
                    "name": "D#4",
                    "midi": 63,
                    "time": 84.43296225000053,
                    "velocity": 0.33858267716535434,
                    "duration": 0.09793811250000317
                },
                {
                    "name": "C#5",
                    "midi": 73,
                    "time": 84.43296225000053,
                    "velocity": 0.33858267716535434,
                    "duration": 0.09793811250000317
                },
                {
                    "name": "D#5",
                    "midi": 75,
                    "time": 84.43296225000053,
                    "velocity": 0.4015748031496063,
                    "duration": 0.09793811250000317
                },
                {
                    "name": "D#4",
                    "midi": 63,
                    "time": 84.53605500000053,
                    "velocity": 0.3543307086614173,
                    "duration": 0.10309275000000184
                },
                {
                    "name": "C#5",
                    "midi": 73,
                    "time": 84.53605500000053,
                    "velocity": 0.3543307086614173,
                    "duration": 0.10309275000000184
                },
                {
                    "name": "D#5",
                    "midi": 75,
                    "time": 84.53605500000053,
                    "velocity": 0.41732283464566927,
                    "duration": 0.10309275000000184
                },
                {
                    "name": "D#4",
                    "midi": 63,
                    "time": 84.74224050000053,
                    "velocity": 0.3543307086614173,
                    "duration": 0.30927825000000553
                },
                {
                    "name": "C#5",
                    "midi": 73,
                    "time": 84.74224050000053,
                    "velocity": 0.3543307086614173,
                    "duration": 0.30927825000000553
                },
                {
                    "name": "D#5",
                    "midi": 75,
                    "time": 84.74224050000053,
                    "velocity": 0.41732283464566927,
                    "duration": 0.30927825000000553
                },
                {
                    "name": "D#4",
                    "midi": 63,
                    "time": 85.05151875000054,
                    "velocity": 0.33858267716535434,
                    "duration": 0.09793811250000317
                },
                {
                    "name": "C#5",
                    "midi": 73,
                    "time": 85.05151875000054,
                    "velocity": 0.33858267716535434,
                    "duration": 0.09793811250000317
                },
                {
                    "name": "D#5",
                    "midi": 75,
                    "time": 85.05151875000054,
                    "velocity": 0.4015748031496063,
                    "duration": 0.09793811250000317
                },
                {
                    "name": "D#4",
                    "midi": 63,
                    "time": 85.15461150000054,
                    "velocity": 0.3543307086614173,
                    "duration": 0.10309275000000184
                },
                {
                    "name": "C#5",
                    "midi": 73,
                    "time": 85.15461150000054,
                    "velocity": 0.3543307086614173,
                    "duration": 0.10309275000000184
                },
                {
                    "name": "D#5",
                    "midi": 75,
                    "time": 85.15461150000054,
                    "velocity": 0.41732283464566927,
                    "duration": 0.10309275000000184
                },
                {
                    "name": "D#4",
                    "midi": 63,
                    "time": 85.36079700000055,
                    "velocity": 0.31496062992125984,
                    "duration": 0.10309275000000184
                },
                {
                    "name": "C5",
                    "midi": 72,
                    "time": 85.36079700000055,
                    "velocity": 0.31496062992125984,
                    "duration": 0.10309275000000184
                },
                {
                    "name": "D#5",
                    "midi": 75,
                    "time": 85.36079700000055,
                    "velocity": 0.3779527559055118,
                    "duration": 0.10309275000000184
                },
                {
                    "name": "C#5",
                    "midi": 73,
                    "time": 85.46388975000055,
                    "velocity": 0.33858267716535434,
                    "duration": 0.10309275000000184
                },
                {
                    "name": "A#4",
                    "midi": 70,
                    "time": 85.56698250000055,
                    "velocity": 0.33858267716535434,
                    "duration": 0.10309275000000184
                },
                {
                    "name": "G4",
                    "midi": 67,
                    "time": 85.67007525000055,
                    "velocity": 0.33858267716535434,
                    "duration": 0.10309275000000184
                },
                {
                    "name": "D#4",
                    "midi": 63,
                    "time": 85.77316800000055,
                    "velocity": 0.3779527559055118,
                    "duration": 0.10309275000000184
                },
                {
                    "name": "G4",
                    "midi": 67,
                    "time": 85.97935350000056,
                    "velocity": 0.3937007874015748,
                    "duration": 0.10309275000000184
                },
                {
                    "name": "A#4",
                    "midi": 70,
                    "time": 86.08244625000056,
                    "velocity": 0.3464566929133858,
                    "duration": 0.10309275000000184
                },
                {
                    "name": "C#5",
                    "midi": 73,
                    "time": 86.18553900000056,
                    "velocity": 0.3464566929133858,
                    "duration": 0.10309275000000184
                },
                {
                    "name": "D#5",
                    "midi": 75,
                    "time": 86.28863175000056,
                    "velocity": 0.3464566929133858,
                    "duration": 0.10309275000000184
                },
                {
                    "name": "G5",
                    "midi": 79,
                    "time": 86.39172450000056,
                    "velocity": 0.3700787401574803,
                    "duration": 0.10309275000000184
                },
                {
                    "name": "B5",
                    "midi": 83,
                    "time": 86.59791000000057,
                    "velocity": 0.36220472440944884,
                    "duration": 0.05154637500000092
                },
                {
                    "name": "B4",
                    "midi": 71,
                    "time": 86.59791000000057,
                    "velocity": 0.30708661417322836,
                    "duration": 0.05154637500000092
                },
                {
                    "name": "C5",
                    "midi": 72,
                    "time": 86.80409550000057,
                    "velocity": 0.33858267716535434,
                    "duration": 0.41237099999999316
                },
                {
                    "name": "C6",
                    "midi": 84,
                    "time": 86.80409550000057,
                    "velocity": 0.4015748031496063,
                    "duration": 0.41237099999999316
                },
                {
                    "name": "G4",
                    "midi": 67,
                    "time": 87.21646650000056,
                    "velocity": 0.4015748031496063,
                    "duration": 0.10309275000000184
                },
                {
                    "name": "G#4",
                    "midi": 68,
                    "time": 87.31955925000057,
                    "velocity": 0.33070866141732286,
                    "duration": 0.10309275000000184
                },
                {
                    "name": "D#4",
                    "midi": 63,
                    "time": 87.42265200000057,
                    "velocity": 0.3543307086614173,
                    "duration": 0.10309275000000184
                },
                {
                    "name": "C4",
                    "midi": 60,
                    "time": 87.52574475000057,
                    "velocity": 0.33070866141732286,
                    "duration": 0.10309275000000184
                },
                {
                    "name": "G#3",
                    "midi": 56,
                    "time": 87.62883750000057,
                    "velocity": 0.3543307086614173,
                    "duration": 0.10309275000000184
                },
                {
                    "name": "F#4",
                    "midi": 66,
                    "time": 87.83502300000058,
                    "velocity": 0.5905511811023622,
                    "duration": 0.30927825000000553
                },
                {
                    "name": "G#4",
                    "midi": 68,
                    "time": 87.83502300000058,
                    "velocity": 0.5905511811023622,
                    "duration": 0.30927825000000553
                },
                {
                    "name": "D#5",
                    "midi": 75,
                    "time": 87.83502300000058,
                    "velocity": 0.5905511811023622,
                    "duration": 0.30927825000000553
                },
                {
                    "name": "F#5",
                    "midi": 78,
                    "time": 87.83502300000058,
                    "velocity": 0.7007874015748031,
                    "duration": 0.30927825000000553
                },
                {
                    "name": "F#4",
                    "midi": 66,
                    "time": 88.14430125000058,
                    "velocity": 0.5669291338582677,
                    "duration": 0.09793811250000317
                },
                {
                    "name": "G#4",
                    "midi": 68,
                    "time": 88.14430125000058,
                    "velocity": 0.5669291338582677,
                    "duration": 0.09793811250000317
                },
                {
                    "name": "D#5",
                    "midi": 75,
                    "time": 88.14430125000058,
                    "velocity": 0.5669291338582677,
                    "duration": 0.09793811250000317
                },
                {
                    "name": "F#5",
                    "midi": 78,
                    "time": 88.14430125000058,
                    "velocity": 0.6692913385826772,
                    "duration": 0.09793811250000317
                },
                {
                    "name": "F#4",
                    "midi": 66,
                    "time": 88.24739400000058,
                    "velocity": 0.5905511811023622,
                    "duration": 0.10309275000000184
                },
                {
                    "name": "G#4",
                    "midi": 68,
                    "time": 88.24739400000058,
                    "velocity": 0.5905511811023622,
                    "duration": 0.10309275000000184
                },
                {
                    "name": "D#5",
                    "midi": 75,
                    "time": 88.24739400000058,
                    "velocity": 0.5905511811023622,
                    "duration": 0.10309275000000184
                },
                {
                    "name": "F#5",
                    "midi": 78,
                    "time": 88.24739400000058,
                    "velocity": 0.7007874015748031,
                    "duration": 0.10309275000000184
                },
                {
                    "name": "E5",
                    "midi": 76,
                    "time": 88.45357950000059,
                    "velocity": 0.6692913385826772,
                    "duration": 0.10309275000000184
                },
                {
                    "name": "F5",
                    "midi": 77,
                    "time": 88.55667225000059,
                    "velocity": 0.5511811023622047,
                    "duration": 0.10309275000000184
                },
                {
                    "name": "C#5",
                    "midi": 73,
                    "time": 88.65976500000059,
                    "velocity": 0.5905511811023622,
                    "duration": 0.10309275000000184
                },
                {
                    "name": "G#4",
                    "midi": 68,
                    "time": 88.76285775000059,
                    "velocity": 0.5511811023622047,
                    "duration": 0.10309275000000184
                },
                {
                    "name": "F4",
                    "midi": 65,
                    "time": 88.8659505000006,
                    "velocity": 0.5984251968503937,
                    "duration": 0.10309275000000184
                },
                {
                    "name": "D#4",
                    "midi": 63,
                    "time": 89.0721360000006,
                    "velocity": 0.5905511811023622,
                    "duration": 0.30927825000000553
                },
                {
                    "name": "F4",
                    "midi": 65,
                    "time": 89.0721360000006,
                    "velocity": 0.5905511811023622,
                    "duration": 0.30927825000000553
                },
                {
                    "name": "C5",
                    "midi": 72,
                    "time": 89.0721360000006,
                    "velocity": 0.5905511811023622,
                    "duration": 0.30927825000000553
                },
                {
                    "name": "D#5",
                    "midi": 75,
                    "time": 89.0721360000006,
                    "velocity": 0.7007874015748031,
                    "duration": 0.30927825000000553
                },
                {
                    "name": "D#4",
                    "midi": 63,
                    "time": 89.3814142500006,
                    "velocity": 0.5669291338582677,
                    "duration": 0.09793811250000317
                },
                {
                    "name": "F4",
                    "midi": 65,
                    "time": 89.3814142500006,
                    "velocity": 0.5669291338582677,
                    "duration": 0.09793811250000317
                },
                {
                    "name": "C5",
                    "midi": 72,
                    "time": 89.3814142500006,
                    "velocity": 0.5669291338582677,
                    "duration": 0.09793811250000317
                },
                {
                    "name": "D#5",
                    "midi": 75,
                    "time": 89.3814142500006,
                    "velocity": 0.6692913385826772,
                    "duration": 0.09793811250000317
                },
                {
                    "name": "D#4",
                    "midi": 63,
                    "time": 89.4845070000006,
                    "velocity": 0.5905511811023622,
                    "duration": 0.10309275000000184
                },
                {
                    "name": "F4",
                    "midi": 65,
                    "time": 89.4845070000006,
                    "velocity": 0.5905511811023622,
                    "duration": 0.10309275000000184
                },
                {
                    "name": "C5",
                    "midi": 72,
                    "time": 89.4845070000006,
                    "velocity": 0.5905511811023622,
                    "duration": 0.10309275000000184
                },
                {
                    "name": "D#5",
                    "midi": 75,
                    "time": 89.4845070000006,
                    "velocity": 0.7007874015748031,
                    "duration": 0.10309275000000184
                },
                {
                    "name": "C5",
                    "midi": 72,
                    "time": 89.69069250000061,
                    "velocity": 0.6692913385826772,
                    "duration": 0.10309275000000184
                },
                {
                    "name": "C#5",
                    "midi": 73,
                    "time": 89.79378525000061,
                    "velocity": 0.5511811023622047,
                    "duration": 0.10309275000000184
                },
                {
                    "name": "A#4",
                    "midi": 70,
                    "time": 89.89687800000061,
                    "velocity": 0.5905511811023622,
                    "duration": 0.10309275000000184
                },
                {
                    "name": "F4",
                    "midi": 65,
                    "time": 89.99997075000061,
                    "velocity": 0.5511811023622047,
                    "duration": 0.10309275000000184
                },
                {
                    "name": "C#4",
                    "midi": 61,
                    "time": 90.10306350000062,
                    "velocity": 0.5984251968503937,
                    "duration": 0.10309275000000184
                },
                {
                    "name": "C6",
                    "midi": 84,
                    "time": 90.30924900000062,
                    "velocity": 0.4645669291338583,
                    "duration": 0.10309275000000184
                },
                {
                    "name": "C#6",
                    "midi": 85,
                    "time": 90.41234175000062,
                    "velocity": 0.3858267716535433,
                    "duration": 0.10309275000000184
                },
                {
                    "name": "A#5",
                    "midi": 82,
                    "time": 90.51543450000062,
                    "velocity": 0.4094488188976378,
                    "duration": 0.10309275000000184
                },
                {
                    "name": "G5",
                    "midi": 79,
                    "time": 90.61852725000062,
                    "velocity": 0.3858267716535433,
                    "duration": 0.10309275000000184
                },
                {
                    "name": "C#5",
                    "midi": 73,
                    "time": 90.72162000000063,
                    "velocity": 0.41732283464566927,
                    "duration": 0.10309275000000184
                },
                {
                    "name": "B5",
                    "midi": 83,
                    "time": 90.92780550000063,
                    "velocity": 0.5039370078740157,
                    "duration": 0.10309275000000184
                },
                {
                    "name": "C6",
                    "midi": 84,
                    "time": 91.03089825000063,
                    "velocity": 0.41732283464566927,
                    "duration": 0.10309275000000184
                },
                {
                    "name": "G#5",
                    "midi": 80,
                    "time": 91.13399100000063,
                    "velocity": 0.44881889763779526,
                    "duration": 0.10309275000000184
                },
                {
                    "name": "D#5",
                    "midi": 75,
                    "time": 91.23708375000064,
                    "velocity": 0.41732283464566927,
                    "duration": 0.10309275000000184
                },
                {
                    "name": "C5",
                    "midi": 72,
                    "time": 91.34017650000064,
                    "velocity": 0.4566929133858268,
                    "duration": 0.10309275000000184
                },
                {
                    "name": "D#5",
                    "midi": 75,
                    "time": 91.54636200000064,
                    "velocity": 0.5984251968503937,
                    "duration": 0.10309275000000184
                },
                {
                    "name": "E5",
                    "midi": 76,
                    "time": 91.64945475000064,
                    "velocity": 0.49606299212598426,
                    "duration": 0.10309275000000184
                },
                {
                    "name": "C#5",
                    "midi": 73,
                    "time": 91.75254750000065,
                    "velocity": 0.5354330708661418,
                    "duration": 0.10309275000000184
                },
                {
                    "name": "A#4",
                    "midi": 70,
                    "time": 91.85564025000065,
                    "velocity": 0.49606299212598426,
                    "duration": 0.10309275000000184
                },
                {
                    "name": "E4",
                    "midi": 64,
                    "time": 91.95873300000065,
                    "velocity": 0.5433070866141733,
                    "duration": 0.10309275000000184
                },
                {
                    "name": "D5",
                    "midi": 74,
                    "time": 92.16491850000065,
                    "velocity": 0.6614173228346457,
                    "duration": 0.10309275000000184
                },
                {
                    "name": "D#5",
                    "midi": 75,
                    "time": 92.26801125000065,
                    "velocity": 0.5433070866141733,
                    "duration": 0.10309275000000184
                },
                {
                    "name": "B4",
                    "midi": 71,
                    "time": 92.37110400000066,
                    "velocity": 0.5826771653543307,
                    "duration": 0.10309275000000184
                },
                {
                    "name": "G#4",
                    "midi": 68,
                    "time": 92.47419675000066,
                    "velocity": 0.5433070866141733,
                    "duration": 0.10309275000000184
                },
                {
                    "name": "D#4",
                    "midi": 63,
                    "time": 92.57728950000066,
                    "velocity": 0.5905511811023622,
                    "duration": 0.10309275000000184
                },
                {
                    "name": "D#5",
                    "midi": 75,
                    "time": 92.78347500000066,
                    "velocity": 0.6299212598425197,
                    "duration": 0.30927825000000553
                },
                {
                    "name": "G#4",
                    "midi": 68,
                    "time": 92.78347500000066,
                    "velocity": 0.6299212598425197,
                    "duration": 0.30927825000000553
                },
                {
                    "name": "G#5",
                    "midi": 80,
                    "time": 92.78347500000066,
                    "velocity": 0.7401574803149606,
                    "duration": 0.30927825000000553
                },
                {
                    "name": "G#4",
                    "midi": 68,
                    "time": 93.09275325000067,
                    "velocity": 0.5984251968503937,
                    "duration": 0.09793811250000317
                },
                {
                    "name": "D#5",
                    "midi": 75,
                    "time": 93.09275325000067,
                    "velocity": 0.5984251968503937,
                    "duration": 0.09793811250000317
                },
                {
                    "name": "G#5",
                    "midi": 80,
                    "time": 93.09275325000067,
                    "velocity": 0.7165354330708661,
                    "duration": 0.09793811250000317
                },
                {
                    "name": "D#5",
                    "midi": 75,
                    "time": 93.19584600000067,
                    "velocity": 0.5984251968503937,
                    "duration": 0.20618550000000369
                },
                {
                    "name": "G#4",
                    "midi": 68,
                    "time": 93.19584600000067,
                    "velocity": 0.5984251968503937,
                    "duration": 0.20618550000000369
                },
                {
                    "name": "G#5",
                    "midi": 80,
                    "time": 93.19584600000067,
                    "velocity": 0.7165354330708661,
                    "duration": 0.20618550000000369
                },
                {
                    "name": "D#5",
                    "midi": 75,
                    "time": 93.40203150000067,
                    "velocity": 0.6377952755905512,
                    "duration": 0.19587622500000634
                },
                {
                    "name": "G#4",
                    "midi": 68,
                    "time": 93.40203150000067,
                    "velocity": 0.6377952755905512,
                    "duration": 0.19587622500000634
                },
                {
                    "name": "G#5",
                    "midi": 80,
                    "time": 93.40203150000067,
                    "velocity": 0.7637795275590551,
                    "duration": 0.19587622500000634
                },
                {
                    "name": "G#4",
                    "midi": 68,
                    "time": 93.60821700000068,
                    "velocity": 0.5905511811023622,
                    "duration": 0.19587622500000634
                },
                {
                    "name": "D#5",
                    "midi": 75,
                    "time": 93.60821700000068,
                    "velocity": 0.5905511811023622,
                    "duration": 0.19587622500000634
                },
                {
                    "name": "G#5",
                    "midi": 80,
                    "time": 93.60821700000068,
                    "velocity": 0.7086614173228346,
                    "duration": 0.19587622500000634
                },
                {
                    "name": "D#5",
                    "midi": 75,
                    "time": 93.81440250000068,
                    "velocity": 0.5905511811023622,
                    "duration": 0.19587622500000634
                },
                {
                    "name": "G#4",
                    "midi": 68,
                    "time": 93.81440250000068,
                    "velocity": 0.5905511811023622,
                    "duration": 0.19587622500000634
                },
                {
                    "name": "G#5",
                    "midi": 80,
                    "time": 93.81440250000068,
                    "velocity": 0.7086614173228346,
                    "duration": 0.19587622500000634
                },
                {
                    "name": "G#4",
                    "midi": 68,
                    "time": 94.02058800000069,
                    "velocity": 0.5118110236220472,
                    "duration": 0.10309275000000184
                },
                {
                    "name": "D5",
                    "midi": 74,
                    "time": 94.02058800000069,
                    "velocity": 0.6062992125984252,
                    "duration": 0.10309275000000184
                },
                {
                    "name": "G#5",
                    "midi": 80,
                    "time": 94.12368075000069,
                    "velocity": 0.6220472440944882,
                    "duration": 0.10309275000000184
                },
                {
                    "name": "G#4",
                    "midi": 68,
                    "time": 94.22677350000069,
                    "velocity": 0.5354330708661418,
                    "duration": 0.10309275000000184
                },
                {
                    "name": "D5",
                    "midi": 74,
                    "time": 94.22677350000069,
                    "velocity": 0.6377952755905512,
                    "duration": 0.10309275000000184
                },
                {
                    "name": "G#5",
                    "midi": 80,
                    "time": 94.32986625000069,
                    "velocity": 0.6535433070866141,
                    "duration": 0.10309275000000184
                },
                {
                    "name": "G#4",
                    "midi": 68,
                    "time": 94.4329590000007,
                    "velocity": 0.5669291338582677,
                    "duration": 0.10309275000000184
                },
                {
                    "name": "D5",
                    "midi": 74,
                    "time": 94.4329590000007,
                    "velocity": 0.6692913385826772,
                    "duration": 0.10309275000000184
                },
                {
                    "name": "G#5",
                    "midi": 80,
                    "time": 94.5360517500007,
                    "velocity": 0.6771653543307087,
                    "duration": 0.10309275000000184
                },
                {
                    "name": "G#4",
                    "midi": 68,
                    "time": 94.6391445000007,
                    "velocity": 0.5826771653543307,
                    "duration": 0.10309275000000184
                },
                {
                    "name": "D5",
                    "midi": 74,
                    "time": 94.6391445000007,
                    "velocity": 0.6929133858267716,
                    "duration": 0.10309275000000184
                },
                {
                    "name": "G#5",
                    "midi": 80,
                    "time": 94.7422372500007,
                    "velocity": 0.7086614173228346,
                    "duration": 0.10309275000000184
                },
                {
                    "name": "G#4",
                    "midi": 68,
                    "time": 94.8453300000007,
                    "velocity": 0.6141732283464567,
                    "duration": 0.10309275000000184
                },
                {
                    "name": "D5",
                    "midi": 74,
                    "time": 94.8453300000007,
                    "velocity": 0.7244094488188977,
                    "duration": 0.10309275000000184
                },
                {
                    "name": "G#5",
                    "midi": 80,
                    "time": 94.9484227500007,
                    "velocity": 0.7401574803149606,
                    "duration": 0.10309275000000184
                },
                {
                    "name": "G#4",
                    "midi": 68,
                    "time": 95.0515155000007,
                    "velocity": 0.6299212598425197,
                    "duration": 0.10309275000000184
                },
                {
                    "name": "D5",
                    "midi": 74,
                    "time": 95.0515155000007,
                    "velocity": 0.7480314960629921,
                    "duration": 0.10309275000000184
                },
                {
                    "name": "G#5",
                    "midi": 80,
                    "time": 95.1546082500007,
                    "velocity": 0.7637795275590551,
                    "duration": 0.10309275000000184
                },
                {
                    "name": "G#4",
                    "midi": 68,
                    "time": 95.25770100000071,
                    "velocity": 0.7086614173228346,
                    "duration": 0.20618550000000369
                },
                {
                    "name": "D5",
                    "midi": 74,
                    "time": 95.25770100000071,
                    "velocity": 0.7086614173228346,
                    "duration": 0.20618550000000369
                },
                {
                    "name": "G#5",
                    "midi": 80,
                    "time": 95.25770100000071,
                    "velocity": 0.8346456692913385,
                    "duration": 0.20618550000000369
                },
                {
                    "name": "A#4",
                    "midi": 70,
                    "time": 95.46388650000071,
                    "velocity": 0.6299212598425197,
                    "duration": 0.10309275000000184
                },
                {
                    "name": "D5",
                    "midi": 74,
                    "time": 95.46388650000071,
                    "velocity": 0.6299212598425197,
                    "duration": 0.10309275000000184
                },
                {
                    "name": "G#5",
                    "midi": 80,
                    "time": 95.46388650000071,
                    "velocity": 0.6299212598425197,
                    "duration": 0.10309275000000184
                },
                {
                    "name": "A#5",
                    "midi": 82,
                    "time": 95.46388650000071,
                    "velocity": 0.7480314960629921,
                    "duration": 0.10309275000000184
                },
                {
                    "name": "A#4",
                    "midi": 70,
                    "time": 95.67007200000072,
                    "velocity": 0.6299212598425197,
                    "duration": 0.10309275000000184
                },
                {
                    "name": "D5",
                    "midi": 74,
                    "time": 95.67007200000072,
                    "velocity": 0.6299212598425197,
                    "duration": 0.10309275000000184
                },
                {
                    "name": "G#5",
                    "midi": 80,
                    "time": 95.67007200000072,
                    "velocity": 0.6299212598425197,
                    "duration": 0.10309275000000184
                },
                {
                    "name": "A#5",
                    "midi": 82,
                    "time": 95.67007200000072,
                    "velocity": 0.7480314960629921,
                    "duration": 0.10309275000000184
                },
                {
                    "name": "A#4",
                    "midi": 70,
                    "time": 95.87625750000072,
                    "velocity": 0.6929133858267716,
                    "duration": 0.10309275000000184
                },
                {
                    "name": "D5",
                    "midi": 74,
                    "time": 95.87625750000072,
                    "velocity": 0.6929133858267716,
                    "duration": 0.10309275000000184
                },
                {
                    "name": "G#5",
                    "midi": 80,
                    "time": 95.87625750000072,
                    "velocity": 0.6929133858267716,
                    "duration": 0.10309275000000184
                },
                {
                    "name": "A#5",
                    "midi": 82,
                    "time": 95.87625750000072,
                    "velocity": 0.8188976377952756,
                    "duration": 0.10309275000000184
                },
                {
                    "name": "A#4",
                    "midi": 70,
                    "time": 96.08244300000072,
                    "velocity": 0.6299212598425197,
                    "duration": 0.10309275000000184
                },
                {
                    "name": "D5",
                    "midi": 74,
                    "time": 96.08244300000072,
                    "velocity": 0.6299212598425197,
                    "duration": 0.10309275000000184
                },
                {
                    "name": "G#5",
                    "midi": 80,
                    "time": 96.08244300000072,
                    "velocity": 0.6299212598425197,
                    "duration": 0.10309275000000184
                },
                {
                    "name": "A#5",
                    "midi": 82,
                    "time": 96.08244300000072,
                    "velocity": 0.7480314960629921,
                    "duration": 0.10309275000000184
                },
                {
                    "name": "A#4",
                    "midi": 70,
                    "time": 96.28862850000073,
                    "velocity": 0.6299212598425197,
                    "duration": 0.10309275000000184
                },
                {
                    "name": "D5",
                    "midi": 74,
                    "time": 96.28862850000073,
                    "velocity": 0.6299212598425197,
                    "duration": 0.10309275000000184
                },
                {
                    "name": "G#5",
                    "midi": 80,
                    "time": 96.28862850000073,
                    "velocity": 0.6299212598425197,
                    "duration": 0.10309275000000184
                },
                {
                    "name": "A#5",
                    "midi": 82,
                    "time": 96.28862850000073,
                    "velocity": 0.7480314960629921,
                    "duration": 0.10309275000000184
                },
                {
                    "name": "C5",
                    "midi": 72,
                    "time": 96.49481400000073,
                    "velocity": 0.6299212598425197,
                    "duration": 0.10309275000000184
                },
                {
                    "name": "D#5",
                    "midi": 75,
                    "time": 96.49481400000073,
                    "velocity": 0.6299212598425197,
                    "duration": 0.10309275000000184
                },
                {
                    "name": "G#5",
                    "midi": 80,
                    "time": 96.49481400000073,
                    "velocity": 0.6299212598425197,
                    "duration": 0.10309275000000184
                },
                {
                    "name": "C6",
                    "midi": 84,
                    "time": 96.49481400000073,
                    "velocity": 0.7480314960629921,
                    "duration": 0.10309275000000184
                },
                {
                    "name": "D#6",
                    "midi": 87,
                    "time": 96.70099950000073,
                    "velocity": 0.7480314960629921,
                    "duration": 0.10309275000000184
                },
                {
                    "name": "C6",
                    "midi": 84,
                    "time": 96.70099950000073,
                    "velocity": 0.6299212598425197,
                    "duration": 0.10309275000000184
                },
                {
                    "name": "G#5",
                    "midi": 80,
                    "time": 96.70099950000073,
                    "velocity": 0.6299212598425197,
                    "duration": 0.10309275000000184
                },
                {
                    "name": "D#5",
                    "midi": 75,
                    "time": 96.70099950000073,
                    "velocity": 0.6299212598425197,
                    "duration": 0.10309275000000184
                },
                {
                    "name": "D#5",
                    "midi": 75,
                    "time": 97.11337050000074,
                    "velocity": 0.6299212598425197,
                    "duration": 0.10309275000000184
                },
                {
                    "name": "G5",
                    "midi": 79,
                    "time": 97.11337050000074,
                    "velocity": 0.6299212598425197,
                    "duration": 0.10309275000000184
                },
                {
                    "name": "A#5",
                    "midi": 82,
                    "time": 97.11337050000074,
                    "velocity": 0.7480314960629921,
                    "duration": 0.10309275000000184
                },
                {
                    "name": "D#6",
                    "midi": 87,
                    "time": 97.31955600000074,
                    "velocity": 0.7480314960629921,
                    "duration": 0.10309275000000184
                },
                {
                    "name": "G5",
                    "midi": 79,
                    "time": 97.31955600000074,
                    "velocity": 0.6299212598425197,
                    "duration": 0.10309275000000184
                },
                {
                    "name": "D#5",
                    "midi": 75,
                    "time": 97.31955600000074,
                    "velocity": 0.6299212598425197,
                    "duration": 0.10309275000000184
                },
                {
                    "name": "D#4",
                    "midi": 63,
                    "time": 97.73192700000075,
                    "velocity": 0.31496062992125984,
                    "duration": 0.07731956249999428
                },
                {
                    "name": "G#4",
                    "midi": 68,
                    "time": 97.73192700000075,
                    "velocity": 0.31496062992125984,
                    "duration": 0.07731956249999428
                },
                {
                    "name": "C5",
                    "midi": 72,
                    "time": 97.73192700000075,
                    "velocity": 0.3700787401574803,
                    "duration": 0.07731956249999428
                },
                {
                    "name": "D#5",
                    "midi": 75,
                    "time": 97.93811250000074,
                    "velocity": 0.3700787401574803,
                    "duration": 0.07731956249999428
                },
                {
                    "name": "C5",
                    "midi": 72,
                    "time": 97.93811250000074,
                    "velocity": 0.31496062992125984,
                    "duration": 0.07731956249999428
                },
                {
                    "name": "D#4",
                    "midi": 63,
                    "time": 97.93811250000074,
                    "velocity": 0.31496062992125984,
                    "duration": 0.07731956249999428
                },
                {
                    "name": "D#4",
                    "midi": 63,
                    "time": 98.35048350000073,
                    "velocity": 0.31496062992125984,
                    "duration": 0.07731956249999428
                },
                {
                    "name": "G4",
                    "midi": 67,
                    "time": 98.35048350000073,
                    "velocity": 0.31496062992125984,
                    "duration": 0.07731956249999428
                },
                {
                    "name": "A#4",
                    "midi": 70,
                    "time": 98.35048350000073,
                    "velocity": 0.3700787401574803,
                    "duration": 0.07731956249999428
                },
                {
                    "name": "D#5",
                    "midi": 75,
                    "time": 98.55666900000072,
                    "velocity": 0.3700787401574803,
                    "duration": 0.07731956249999428
                },
                {
                    "name": "G4",
                    "midi": 67,
                    "time": 98.55666900000072,
                    "velocity": 0.31496062992125984,
                    "duration": 0.07731956249999428
                },
                {
                    "name": "D#4",
                    "midi": 63,
                    "time": 98.55666900000072,
                    "velocity": 0.31496062992125984,
                    "duration": 0.07731956249999428
                },
                {
                    "name": "D#4",
                    "midi": 63,
                    "time": 98.96904000000072,
                    "velocity": 0.3228346456692913,
                    "duration": 0.30927825000000553
                },
                {
                    "name": "D#5",
                    "midi": 75,
                    "time": 98.96904000000072,
                    "velocity": 0.3858267716535433,
                    "duration": 0.30927825000000553
                },
                {
                    "name": "D#5",
                    "midi": 75,
                    "time": 99.27831825000072,
                    "velocity": 0.3464566929133858,
                    "duration": 0.09793811250000317
                },
                {
                    "name": "D#4",
                    "midi": 63,
                    "time": 99.27831825000072,
                    "velocity": 0.28346456692913385,
                    "duration": 0.09793811250000317
                },
                {
                    "name": "D#4",
                    "midi": 63,
                    "time": 99.38141100000072,
                    "velocity": 0.30708661417322836,
                    "duration": 0.20618550000000369
                },
                {
                    "name": "D#5",
                    "midi": 75,
                    "time": 99.38141100000072,
                    "velocity": 0.36220472440944884,
                    "duration": 0.20618550000000369
                },
                {
                    "name": "G#4",
                    "midi": 68,
                    "time": 99.58759650000073,
                    "velocity": 0.3228346456692913,
                    "duration": 0.30927825000000553
                },
                {
                    "name": "G#5",
                    "midi": 80,
                    "time": 99.58759650000073,
                    "velocity": 0.3858267716535433,
                    "duration": 0.30927825000000553
                },
                {
                    "name": "G#5",
                    "midi": 80,
                    "time": 99.89687475000073,
                    "velocity": 0.3464566929133858,
                    "duration": 0.09793811250000317
                },
                {
                    "name": "G#4",
                    "midi": 68,
                    "time": 99.89687475000073,
                    "velocity": 0.28346456692913385,
                    "duration": 0.09793811250000317
                },
                {
                    "name": "G#4",
                    "midi": 68,
                    "time": 99.99996750000074,
                    "velocity": 0.31496062992125984,
                    "duration": 0.20618550000000369
                },
                {
                    "name": "G#5",
                    "midi": 80,
                    "time": 99.99996750000074,
                    "velocity": 0.3779527559055118,
                    "duration": 0.20618550000000369
                },
                {
                    "name": "G4",
                    "midi": 67,
                    "time": 100.20615300000074,
                    "velocity": 0.3228346456692913,
                    "duration": 0.30927825000000553
                },
                {
                    "name": "G5",
                    "midi": 79,
                    "time": 100.20615300000074,
                    "velocity": 0.3858267716535433,
                    "duration": 0.30927825000000553
                },
                {
                    "name": "G5",
                    "midi": 79,
                    "time": 100.51543125000074,
                    "velocity": 0.3464566929133858,
                    "duration": 0.09793811250000317
                },
                {
                    "name": "G4",
                    "midi": 67,
                    "time": 100.51543125000074,
                    "velocity": 0.28346456692913385,
                    "duration": 0.09793811250000317
                },
                {
                    "name": "G4",
                    "midi": 67,
                    "time": 100.61852400000075,
                    "velocity": 0.31496062992125984,
                    "duration": 0.20618550000000369
                },
                {
                    "name": "G5",
                    "midi": 79,
                    "time": 100.61852400000075,
                    "velocity": 0.3779527559055118,
                    "duration": 0.20618550000000369
                },
                {
                    "name": "C#5",
                    "midi": 73,
                    "time": 100.82470950000075,
                    "velocity": 0.3228346456692913,
                    "duration": 0.6185564999999968
                },
                {
                    "name": "C#6",
                    "midi": 85,
                    "time": 100.82470950000075,
                    "velocity": 0.3858267716535433,
                    "duration": 0.6185564999999968
                },
                {
                    "name": "C5",
                    "midi": 72,
                    "time": 101.44326600000075,
                    "velocity": 0.3228346456692913,
                    "duration": 0.30927825000000553
                },
                {
                    "name": "C6",
                    "midi": 84,
                    "time": 101.44326600000075,
                    "velocity": 0.3858267716535433,
                    "duration": 0.30927825000000553
                },
                {
                    "name": "C6",
                    "midi": 84,
                    "time": 101.75254425000075,
                    "velocity": 0.3464566929133858,
                    "duration": 0.10309275000000184
                },
                {
                    "name": "C5",
                    "midi": 72,
                    "time": 101.75254425000075,
                    "velocity": 0.28346456692913385,
                    "duration": 0.10309275000000184
                },
                {
                    "name": "G#4",
                    "midi": 68,
                    "time": 101.85563700000075,
                    "velocity": 0.31496062992125984,
                    "duration": 0.20618550000000369
                },
                {
                    "name": "G#5",
                    "midi": 80,
                    "time": 101.85563700000075,
                    "velocity": 0.3779527559055118,
                    "duration": 0.20618550000000369
                },
                {
                    "name": "F4",
                    "midi": 65,
                    "time": 102.06182250000076,
                    "velocity": 0.3228346456692913,
                    "duration": 0.30927825000000553
                },
                {
                    "name": "F5",
                    "midi": 77,
                    "time": 102.06182250000076,
                    "velocity": 0.3858267716535433,
                    "duration": 0.30927825000000553
                },
                {
                    "name": "F5",
                    "midi": 77,
                    "time": 102.37110075000076,
                    "velocity": 0.3464566929133858,
                    "duration": 0.10309275000000184
                },
                {
                    "name": "F4",
                    "midi": 65,
                    "time": 102.37110075000076,
                    "velocity": 0.28346456692913385,
                    "duration": 0.10309275000000184
                },
                {
                    "name": "A#4",
                    "midi": 70,
                    "time": 102.47419350000077,
                    "velocity": 0.31496062992125984,
                    "duration": 0.20618550000000369
                },
                {
                    "name": "A#5",
                    "midi": 82,
                    "time": 102.47419350000077,
                    "velocity": 0.3779527559055118,
                    "duration": 0.20618550000000369
                },
                {
                    "name": "G4",
                    "midi": 67,
                    "time": 102.68037900000077,
                    "velocity": 0.3228346456692913,
                    "duration": 0.30927825000000553
                },
                {
                    "name": "G5",
                    "midi": 79,
                    "time": 102.68037900000077,
                    "velocity": 0.3858267716535433,
                    "duration": 0.30927825000000553
                },
                {
                    "name": "G5",
                    "midi": 79,
                    "time": 102.98965725000077,
                    "velocity": 0.3464566929133858,
                    "duration": 0.10309275000000184
                },
                {
                    "name": "G4",
                    "midi": 67,
                    "time": 102.98965725000077,
                    "velocity": 0.28346456692913385,
                    "duration": 0.10309275000000184
                },
                {
                    "name": "A#4",
                    "midi": 70,
                    "time": 103.09275000000078,
                    "velocity": 0.31496062992125984,
                    "duration": 0.20618550000000369
                },
                {
                    "name": "A#5",
                    "midi": 82,
                    "time": 103.09275000000078,
                    "velocity": 0.3779527559055118,
                    "duration": 0.20618550000000369
                },
                {
                    "name": "D#4",
                    "midi": 63,
                    "time": 103.29893550000078,
                    "velocity": 0.3228346456692913,
                    "duration": 0.30927825000000553
                },
                {
                    "name": "D#5",
                    "midi": 75,
                    "time": 103.29893550000078,
                    "velocity": 0.3858267716535433,
                    "duration": 0.30927825000000553
                },
                {
                    "name": "C6",
                    "midi": 84,
                    "time": 103.60821375000079,
                    "velocity": 0.3700787401574803,
                    "duration": 0.10309275000000184
                },
                {
                    "name": "C#6",
                    "midi": 85,
                    "time": 103.71130650000079,
                    "velocity": 0.3700787401574803,
                    "duration": 0.10309275000000184
                },
                {
                    "name": "D6",
                    "midi": 86,
                    "time": 103.81439925000079,
                    "velocity": 0.3700787401574803,
                    "duration": 0.10309275000000184
                },
                {
                    "name": "D#5",
                    "midi": 75,
                    "time": 103.91749200000079,
                    "velocity": 0.3543307086614173,
                    "duration": 0.30927825000000553
                },
                {
                    "name": "D#6",
                    "midi": 87,
                    "time": 103.91749200000079,
                    "velocity": 0.4251968503937008,
                    "duration": 0.30927825000000553
                },
                {
                    "name": "D#6",
                    "midi": 87,
                    "time": 104.2267702500008,
                    "velocity": 0.3700787401574803,
                    "duration": 0.09793811250000317
                },
                {
                    "name": "D#5",
                    "midi": 75,
                    "time": 104.2267702500008,
                    "velocity": 0.31496062992125984,
                    "duration": 0.09793811250000317
                },
                {
                    "name": "D#5",
                    "midi": 75,
                    "time": 104.3298630000008,
                    "velocity": 0.33858267716535434,
                    "duration": 0.20618550000000369
                },
                {
                    "name": "D#6",
                    "midi": 87,
                    "time": 104.3298630000008,
                    "velocity": 0.4015748031496063,
                    "duration": 0.20618550000000369
                },
                {
                    "name": "G#5",
                    "midi": 80,
                    "time": 104.5360485000008,
                    "velocity": 0.3543307086614173,
                    "duration": 0.30927825000000553
                },
                {
                    "name": "G#6",
                    "midi": 92,
                    "time": 104.5360485000008,
                    "velocity": 0.4251968503937008,
                    "duration": 0.30927825000000553
                },
                {
                    "name": "G#6",
                    "midi": 92,
                    "time": 104.84532675000081,
                    "velocity": 0.3700787401574803,
                    "duration": 0.09793811250000317
                },
                {
                    "name": "G#5",
                    "midi": 80,
                    "time": 104.84532675000081,
                    "velocity": 0.31496062992125984,
                    "duration": 0.09793811250000317
                },
                {
                    "name": "G#5",
                    "midi": 80,
                    "time": 104.94841950000081,
                    "velocity": 0.3464566929133858,
                    "duration": 0.20618550000000369
                },
                {
                    "name": "G#6",
                    "midi": 92,
                    "time": 104.94841950000081,
                    "velocity": 0.41732283464566927,
                    "duration": 0.20618550000000369
                },
                {
                    "name": "G5",
                    "midi": 79,
                    "time": 105.15460500000081,
                    "velocity": 0.3543307086614173,
                    "duration": 0.30927825000000553
                },
                {
                    "name": "G6",
                    "midi": 91,
                    "time": 105.15460500000081,
                    "velocity": 0.4251968503937008,
                    "duration": 0.30927825000000553
                },
                {
                    "name": "G6",
                    "midi": 91,
                    "time": 105.46388325000082,
                    "velocity": 0.3700787401574803,
                    "duration": 0.09793811250000317
                },
                {
                    "name": "G5",
                    "midi": 79,
                    "time": 105.46388325000082,
                    "velocity": 0.31496062992125984,
                    "duration": 0.09793811250000317
                },
                {
                    "name": "G5",
                    "midi": 79,
                    "time": 105.56697600000082,
                    "velocity": 0.3464566929133858,
                    "duration": 0.20618550000000369
                },
                {
                    "name": "G6",
                    "midi": 91,
                    "time": 105.56697600000082,
                    "velocity": 0.41732283464566927,
                    "duration": 0.20618550000000369
                },
                {
                    "name": "C#6",
                    "midi": 85,
                    "time": 105.77316150000082,
                    "velocity": 0.3543307086614173,
                    "duration": 0.6185564999999968
                },
                {
                    "name": "C#7",
                    "midi": 97,
                    "time": 105.77316150000082,
                    "velocity": 0.4251968503937008,
                    "duration": 0.6185564999999968
                },
                {
                    "name": "C6",
                    "midi": 84,
                    "time": 106.39171800000082,
                    "velocity": 0.3543307086614173,
                    "duration": 0.30927825000000553
                },
                {
                    "name": "C7",
                    "midi": 96,
                    "time": 106.39171800000082,
                    "velocity": 0.4251968503937008,
                    "duration": 0.30927825000000553
                },
                {
                    "name": "C7",
                    "midi": 96,
                    "time": 106.70099625000083,
                    "velocity": 0.3700787401574803,
                    "duration": 0.10309275000000184
                },
                {
                    "name": "C6",
                    "midi": 84,
                    "time": 106.70099625000083,
                    "velocity": 0.31496062992125984,
                    "duration": 0.10309275000000184
                },
                {
                    "name": "G#5",
                    "midi": 80,
                    "time": 106.80408900000083,
                    "velocity": 0.3464566929133858,
                    "duration": 0.20618550000000369
                },
                {
                    "name": "G#6",
                    "midi": 92,
                    "time": 106.80408900000083,
                    "velocity": 0.41732283464566927,
                    "duration": 0.20618550000000369
                },
                {
                    "name": "F5",
                    "midi": 77,
                    "time": 107.01027450000083,
                    "velocity": 0.3543307086614173,
                    "duration": 0.30927825000000553
                },
                {
                    "name": "F6",
                    "midi": 89,
                    "time": 107.01027450000083,
                    "velocity": 0.4251968503937008,
                    "duration": 0.30927825000000553
                },
                {
                    "name": "F6",
                    "midi": 89,
                    "time": 107.31955275000084,
                    "velocity": 0.3700787401574803,
                    "duration": 0.10309275000000184
                },
                {
                    "name": "F5",
                    "midi": 77,
                    "time": 107.31955275000084,
                    "velocity": 0.31496062992125984,
                    "duration": 0.10309275000000184
                },
                {
                    "name": "A#5",
                    "midi": 82,
                    "time": 107.42264550000084,
                    "velocity": 0.3464566929133858,
                    "duration": 0.20618550000000369
                },
                {
                    "name": "A#6",
                    "midi": 94,
                    "time": 107.42264550000084,
                    "velocity": 0.41732283464566927,
                    "duration": 0.20618550000000369
                },
                {
                    "name": "G5",
                    "midi": 79,
                    "time": 107.62883100000084,
                    "velocity": 0.3543307086614173,
                    "duration": 0.30927825000000553
                },
                {
                    "name": "G6",
                    "midi": 91,
                    "time": 107.62883100000084,
                    "velocity": 0.4251968503937008,
                    "duration": 0.30927825000000553
                },
                {
                    "name": "G6",
                    "midi": 91,
                    "time": 107.93810925000085,
                    "velocity": 0.3700787401574803,
                    "duration": 0.10309275000000184
                },
                {
                    "name": "G5",
                    "midi": 79,
                    "time": 107.93810925000085,
                    "velocity": 0.31496062992125984,
                    "duration": 0.10309275000000184
                },
                {
                    "name": "A#5",
                    "midi": 82,
                    "time": 108.04120200000085,
                    "velocity": 0.3464566929133858,
                    "duration": 0.20618550000000369
                },
                {
                    "name": "A#6",
                    "midi": 94,
                    "time": 108.04120200000085,
                    "velocity": 0.41732283464566927,
                    "duration": 0.20618550000000369
                },
                {
                    "name": "G#5",
                    "midi": 80,
                    "time": 108.24738750000085,
                    "velocity": 0.3543307086614173,
                    "duration": 0.6185564999999968
                },
                {
                    "name": "G#6",
                    "midi": 92,
                    "time": 108.24738750000085,
                    "velocity": 0.4251968503937008,
                    "duration": 0.6185564999999968
                },
                {
                    "name": "G4",
                    "midi": 67,
                    "time": 108.86594400000085,
                    "velocity": 0.5905511811023622,
                    "duration": 0.20618550000000369
                },
                {
                    "name": "A#4",
                    "midi": 70,
                    "time": 108.86594400000085,
                    "velocity": 0.5905511811023622,
                    "duration": 0.20618550000000369
                },
                {
                    "name": "C#5",
                    "midi": 73,
                    "time": 108.86594400000085,
                    "velocity": 0.5905511811023622,
                    "duration": 0.20618550000000369
                },
                {
                    "name": "D#5",
                    "midi": 75,
                    "time": 108.86594400000085,
                    "velocity": 0.5905511811023622,
                    "duration": 0.20618550000000369
                },
                {
                    "name": "G5",
                    "midi": 79,
                    "time": 108.86594400000085,
                    "velocity": 0.7007874015748031,
                    "duration": 0.20618550000000369
                },
                {
                    "name": "G#4",
                    "midi": 68,
                    "time": 109.48450050000085,
                    "velocity": 0.6062992125984252,
                    "duration": 0.20618550000000369
                },
                {
                    "name": "C5",
                    "midi": 72,
                    "time": 109.48450050000085,
                    "velocity": 0.6062992125984252,
                    "duration": 0.20618550000000369
                },
                {
                    "name": "D#5",
                    "midi": 75,
                    "time": 109.48450050000085,
                    "velocity": 0.6062992125984252,
                    "duration": 0.20618550000000369
                },
                {
                    "name": "G#5",
                    "midi": 80,
                    "time": 109.48450050000085,
                    "velocity": 0.7165354330708661,
                    "duration": 0.20618550000000369
                },
                {
                    "name": "G#4",
                    "midi": 68,
                    "time": 110.10305700000085,
                    "velocity": 0.3543307086614173,
                    "duration": 0.6185564999999968
                },
                {
                    "name": "G#4",
                    "midi": 68,
                    "time": 110.72161350000084,
                    "velocity": 0.3543307086614173,
                    "duration": 0.6185564999999968
                },
                {
                    "name": "G4",
                    "midi": 67,
                    "time": 111.34017000000084,
                    "velocity": 0.36220472440944884,
                    "duration": 0.20618550000000369
                },
                {
                    "name": "A#4",
                    "midi": 70,
                    "time": 111.54635550000084,
                    "velocity": 0.33070866141732286,
                    "duration": 0.20618550000000369
                },
                {
                    "name": "G#4",
                    "midi": 68,
                    "time": 111.75254100000085,
                    "velocity": 0.3543307086614173,
                    "duration": 0.41237099999999316
                },
                {
                    "name": "G#4",
                    "midi": 68,
                    "time": 112.16491200000084,
                    "velocity": 0.33070866141732286,
                    "duration": 0.18900337499999864
                },
                {
                    "name": "G#4",
                    "midi": 68,
                    "time": 112.37109750000084,
                    "velocity": 0.33858267716535434,
                    "duration": 0.18900337499999864
                },
                {
                    "name": "G4",
                    "midi": 67,
                    "time": 112.57728300000085,
                    "velocity": 0.36220472440944884,
                    "duration": 0.20618550000000369
                },
                {
                    "name": "A#4",
                    "midi": 70,
                    "time": 112.78346850000085,
                    "velocity": 0.33070866141732286,
                    "duration": 0.20618550000000369
                },
                {
                    "name": "G#4",
                    "midi": 68,
                    "time": 112.98965400000085,
                    "velocity": 0.3543307086614173,
                    "duration": 0.41237099999999316
                },
                {
                    "name": "G#4",
                    "midi": 68,
                    "time": 113.40202500000085,
                    "velocity": 0.33858267716535434,
                    "duration": 0.18900337499999864
                },
                {
                    "name": "G#4",
                    "midi": 68,
                    "time": 113.60821050000085,
                    "velocity": 0.33858267716535434,
                    "duration": 0.18900337499999864
                },
                {
                    "name": "G4",
                    "midi": 67,
                    "time": 113.81439600000085,
                    "velocity": 0.3700787401574803,
                    "duration": 0.20618550000000369
                },
                {
                    "name": "A#4",
                    "midi": 70,
                    "time": 114.02058150000086,
                    "velocity": 0.3464566929133858,
                    "duration": 0.20618550000000369
                },
                {
                    "name": "G#4",
                    "midi": 68,
                    "time": 114.22676700000086,
                    "velocity": 0.3464566929133858,
                    "duration": 0.20618550000000369
                },
                {
                    "name": "G4",
                    "midi": 67,
                    "time": 114.43295250000087,
                    "velocity": 0.3858267716535433,
                    "duration": 0.20618550000000369
                },
                {
                    "name": "A#4",
                    "midi": 70,
                    "time": 114.63913800000087,
                    "velocity": 0.3464566929133858,
                    "duration": 0.20618550000000369
                },
                {
                    "name": "G#4",
                    "midi": 68,
                    "time": 114.84532350000087,
                    "velocity": 0.3464566929133858,
                    "duration": 0.20618550000000369
                },
                {
                    "name": "G4",
                    "midi": 67,
                    "time": 115.05150900000088,
                    "velocity": 0.3779527559055118,
                    "duration": 0.20618550000000369
                },
                {
                    "name": "A#4",
                    "midi": 70,
                    "time": 115.25769450000088,
                    "velocity": 0.3543307086614173,
                    "duration": 0.20618550000000369
                },
                {
                    "name": "G#4",
                    "midi": 68,
                    "time": 115.46388000000088,
                    "velocity": 0.3543307086614173,
                    "duration": 0.20618550000000369
                },
                {
                    "name": "C#5",
                    "midi": 73,
                    "time": 115.67006550000089,
                    "velocity": 0.3779527559055118,
                    "duration": 0.6185564999999968
                },
                {
                    "name": "G4",
                    "midi": 67,
                    "time": 116.28862200000088,
                    "velocity": 0.3779527559055118,
                    "duration": 0.20618550000000369
                },
                {
                    "name": "A#4",
                    "midi": 70,
                    "time": 116.49480750000089,
                    "velocity": 0.3543307086614173,
                    "duration": 0.20618550000000369
                },
                {
                    "name": "G#4",
                    "midi": 68,
                    "time": 116.70099300000089,
                    "velocity": 0.3543307086614173,
                    "duration": 0.20618550000000369
                },
                {
                    "name": "C#5",
                    "midi": 73,
                    "time": 116.9071785000009,
                    "velocity": 0.3779527559055118,
                    "duration": 0.6185564999999968
                },
                {
                    "name": "D5",
                    "midi": 74,
                    "time": 117.52573500000089,
                    "velocity": 0.3779527559055118,
                    "duration": 0.20618550000000369
                },
                {
                    "name": "F5",
                    "midi": 77,
                    "time": 117.7319205000009,
                    "velocity": 0.3543307086614173,
                    "duration": 0.20618550000000369
                },
                {
                    "name": "D#5",
                    "midi": 75,
                    "time": 117.9381060000009,
                    "velocity": 0.3543307086614173,
                    "duration": 0.20618550000000369
                },
                {
                    "name": "G#4",
                    "midi": 68,
                    "time": 118.1442915000009,
                    "velocity": 0.3779527559055118,
                    "duration": 0.6185564999999968
                },
                {
                    "name": "D5",
                    "midi": 74,
                    "time": 118.7628480000009,
                    "velocity": 0.3779527559055118,
                    "duration": 0.20618550000000369
                },
                {
                    "name": "F5",
                    "midi": 77,
                    "time": 118.9690335000009,
                    "velocity": 0.3543307086614173,
                    "duration": 0.20618550000000369
                },
                {
                    "name": "D#5",
                    "midi": 75,
                    "time": 119.17521900000091,
                    "velocity": 0.3543307086614173,
                    "duration": 0.20618550000000369
                },
                {
                    "name": "G#4",
                    "midi": 68,
                    "time": 119.38140450000091,
                    "velocity": 0.3779527559055118,
                    "duration": 0.6185564999999968
                },
                {
                    "name": "G#4",
                    "midi": 68,
                    "time": 119.99996100000091,
                    "velocity": 0.4015748031496063,
                    "duration": 0.20618550000000369
                },
                {
                    "name": "F#5",
                    "midi": 78,
                    "time": 120.20614650000091,
                    "velocity": 0.4330708661417323,
                    "duration": 0.20618550000000369
                },
                {
                    "name": "F5",
                    "midi": 77,
                    "time": 120.41233200000092,
                    "velocity": 0.41732283464566927,
                    "duration": 0.20618550000000369
                },
                {
                    "name": "D#5",
                    "midi": 75,
                    "time": 120.61851750000092,
                    "velocity": 0.4645669291338583,
                    "duration": 0.20618550000000369
                },
                {
                    "name": "C#5",
                    "midi": 73,
                    "time": 120.82470300000092,
                    "velocity": 0.4409448818897638,
                    "duration": 0.20618550000000369
                },
                {
                    "name": "F4",
                    "midi": 65,
                    "time": 121.03088850000093,
                    "velocity": 0.33858267716535434,
                    "duration": 0.20618550000000369
                },
                {
                    "name": "C5",
                    "midi": 72,
                    "time": 121.03088850000093,
                    "velocity": 0.4015748031496063,
                    "duration": 0.41237100000000737
                },
                {
                    "name": "C#4",
                    "midi": 61,
                    "time": 121.23707400000093,
                    "velocity": 0.31496062992125984,
                    "duration": 0.6185565000000111
                },
                {
                    "name": "A#4",
                    "midi": 70,
                    "time": 121.44325950000093,
                    "velocity": 0.3543307086614173,
                    "duration": 0.20618550000000369
                },
                {
                    "name": "D#5",
                    "midi": 75,
                    "time": 121.64944500000094,
                    "velocity": 0.3543307086614173,
                    "duration": 0.20618550000000369
                },
                {
                    "name": "C4",
                    "midi": 60,
                    "time": 121.85563050000094,
                    "velocity": 0.31496062992125984,
                    "duration": 0.30927825000000553
                },
                {
                    "name": "G#4",
                    "midi": 68,
                    "time": 121.85563050000094,
                    "velocity": 0.3779527559055118,
                    "duration": 0.30927825000000553
                },
                {
                    "name": "G#4",
                    "midi": 68,
                    "time": 122.16490875000095,
                    "velocity": 0.33858267716535434,
                    "duration": 0.10309275000000184
                },
                {
                    "name": "A#4",
                    "midi": 70,
                    "time": 122.26800150000095,
                    "velocity": 0.33858267716535434,
                    "duration": 0.10309275000000184
                },
                {
                    "name": "G#4",
                    "midi": 68,
                    "time": 122.37109425000095,
                    "velocity": 0.33858267716535434,
                    "duration": 0.10309275000000184
                },
                {
                    "name": "G4",
                    "midi": 67,
                    "time": 122.47418700000095,
                    "velocity": 0.3779527559055118,
                    "duration": 0.20618550000000369
                },
                {
                    "name": "A#4",
                    "midi": 70,
                    "time": 122.68037250000096,
                    "velocity": 0.3543307086614173,
                    "duration": 0.20618550000000369
                },
                {
                    "name": "G#4",
                    "midi": 68,
                    "time": 122.88655800000096,
                    "velocity": 0.3543307086614173,
                    "duration": 0.20618550000000369
                },
                {
                    "name": "C#5",
                    "midi": 73,
                    "time": 123.09274350000096,
                    "velocity": 0.3779527559055118,
                    "duration": 0.6185564999999968
                },
                {
                    "name": "G4",
                    "midi": 67,
                    "time": 123.71130000000096,
                    "velocity": 0.3779527559055118,
                    "duration": 0.20618550000000369
                },
                {
                    "name": "A#4",
                    "midi": 70,
                    "time": 123.91748550000096,
                    "velocity": 0.3543307086614173,
                    "duration": 0.20618550000000369
                },
                {
                    "name": "G#4",
                    "midi": 68,
                    "time": 124.12367100000097,
                    "velocity": 0.3543307086614173,
                    "duration": 0.20618550000000369
                },
                {
                    "name": "C#5",
                    "midi": 73,
                    "time": 124.32985650000097,
                    "velocity": 0.3779527559055118,
                    "duration": 0.6185564999999968
                },
                {
                    "name": "D5",
                    "midi": 74,
                    "time": 124.94841300000097,
                    "velocity": 0.3779527559055118,
                    "duration": 0.20618550000000369
                },
                {
                    "name": "F5",
                    "midi": 77,
                    "time": 125.15459850000097,
                    "velocity": 0.3543307086614173,
                    "duration": 0.20618550000000369
                },
                {
                    "name": "D#5",
                    "midi": 75,
                    "time": 125.36078400000098,
                    "velocity": 0.3543307086614173,
                    "duration": 0.20618550000000369
                },
                {
                    "name": "G#4",
                    "midi": 68,
                    "time": 125.56696950000098,
                    "velocity": 0.3779527559055118,
                    "duration": 0.6185564999999968
                },
                {
                    "name": "D5",
                    "midi": 74,
                    "time": 126.18552600000098,
                    "velocity": 0.3779527559055118,
                    "duration": 0.20618550000000369
                },
                {
                    "name": "F5",
                    "midi": 77,
                    "time": 126.39171150000098,
                    "velocity": 0.3543307086614173,
                    "duration": 0.20618550000000369
                },
                {
                    "name": "D#5",
                    "midi": 75,
                    "time": 126.59789700000098,
                    "velocity": 0.3543307086614173,
                    "duration": 0.20618550000000369
                },
                {
                    "name": "G#4",
                    "midi": 68,
                    "time": 126.80408250000099,
                    "velocity": 0.3779527559055118,
                    "duration": 0.6185564999999968
                },
                {
                    "name": "G#4",
                    "midi": 68,
                    "time": 127.42263900000098,
                    "velocity": 0.4015748031496063,
                    "duration": 0.20618550000000369
                },
                {
                    "name": "F#5",
                    "midi": 78,
                    "time": 127.62882450000099,
                    "velocity": 0.4330708661417323,
                    "duration": 0.20618550000000369
                },
                {
                    "name": "F5",
                    "midi": 77,
                    "time": 127.83501000000099,
                    "velocity": 0.41732283464566927,
                    "duration": 0.20618549999998947
                },
                {
                    "name": "D#5",
                    "midi": 75,
                    "time": 128.04119550000098,
                    "velocity": 0.4645669291338583,
                    "duration": 0.20618550000000369
                },
                {
                    "name": "C#5",
                    "midi": 73,
                    "time": 128.24738100000098,
                    "velocity": 0.4409448818897638,
                    "duration": 0.20618550000000369
                },
                {
                    "name": "F#4",
                    "midi": 66,
                    "time": 128.453566500001,
                    "velocity": 0.33858267716535434,
                    "duration": 0.20618550000000369
                },
                {
                    "name": "C5",
                    "midi": 72,
                    "time": 128.453566500001,
                    "velocity": 0.4015748031496063,
                    "duration": 0.20618550000000369
                },
                {
                    "name": "A#4",
                    "midi": 70,
                    "time": 128.659752000001,
                    "velocity": 0.4015748031496063,
                    "duration": 0.20618550000000369
                },
                {
                    "name": "F4",
                    "midi": 65,
                    "time": 128.659752000001,
                    "velocity": 0.31496062992125984,
                    "duration": 1.2371130000000221
                },
                {
                    "name": "D#5",
                    "midi": 75,
                    "time": 128.865937500001,
                    "velocity": 0.4330708661417323,
                    "duration": 0.20618550000000369
                },
                {
                    "name": "C#5",
                    "midi": 73,
                    "time": 129.072123000001,
                    "velocity": 0.41732283464566927,
                    "duration": 0.20618550000000369
                },
                {
                    "name": "C5",
                    "midi": 72,
                    "time": 129.278308500001,
                    "velocity": 0.4094488188976378,
                    "duration": 0.20618550000000369
                },
                {
                    "name": "A#4",
                    "midi": 70,
                    "time": 129.484494000001,
                    "velocity": 0.3858267716535433,
                    "duration": 0.20618550000000369
                },
                {
                    "name": "G#4",
                    "midi": 68,
                    "time": 129.690679500001,
                    "velocity": 0.3543307086614173,
                    "duration": 0.41237100000000737
                },
                {
                    "name": "E4",
                    "midi": 64,
                    "time": 129.89686500000101,
                    "velocity": 0.33070866141732286,
                    "duration": 0.6185565000000111
                },
                {
                    "name": "G4",
                    "midi": 67,
                    "time": 130.10305050000102,
                    "velocity": 0.3543307086614173,
                    "duration": 0.20618550000000369
                },
                {
                    "name": "C5",
                    "midi": 72,
                    "time": 130.30923600000102,
                    "velocity": 0.3543307086614173,
                    "duration": 0.20618550000000369
                },
                {
                    "name": "G#4",
                    "midi": 68,
                    "time": 130.51542150000103,
                    "velocity": 0.3543307086614173,
                    "duration": 0.20618550000000369
                },
                {
                    "name": "C4",
                    "midi": 60,
                    "time": 130.51542150000103,
                    "velocity": 0.33070866141732286,
                    "duration": 0.6185565000000111
                },
                {
                    "name": "G4",
                    "midi": 67,
                    "time": 130.72160700000103,
                    "velocity": 0.3543307086614173,
                    "duration": 0.20618550000000369
                },
                {
                    "name": "C#5",
                    "midi": 73,
                    "time": 130.92779250000103,
                    "velocity": 0.3543307086614173,
                    "duration": 0.20618550000000369
                },
                {
                    "name": "G#4",
                    "midi": 68,
                    "time": 131.13397800000104,
                    "velocity": 0.3543307086614173,
                    "duration": 0.20618550000000369
                },
                {
                    "name": "E4",
                    "midi": 64,
                    "time": 131.13397800000104,
                    "velocity": 0.33070866141732286,
                    "duration": 0.6185565000000111
                },
                {
                    "name": "G4",
                    "midi": 67,
                    "time": 131.34016350000104,
                    "velocity": 0.3543307086614173,
                    "duration": 0.20618550000000369
                },
                {
                    "name": "C5",
                    "midi": 72,
                    "time": 131.54634900000104,
                    "velocity": 0.3543307086614173,
                    "duration": 0.20618550000000369
                },
                {
                    "name": "F4",
                    "midi": 65,
                    "time": 131.75253450000105,
                    "velocity": 0.3543307086614173,
                    "duration": 0.20618550000000369
                },
                {
                    "name": "C4",
                    "midi": 60,
                    "time": 133.91748225000106,
                    "velocity": 0.33070866141732286,
                    "duration": 0.6185565000000111
                },
                {
                    "name": "D#4",
                    "midi": 63,
                    "time": 133.91748225000106,
                    "velocity": 0.33070866141732286,
                    "duration": 0.6185565000000111
                },
                {
                    "name": "F#4",
                    "midi": 66,
                    "time": 133.91748225000106,
                    "velocity": 0.3937007874015748,
                    "duration": 0.10309275000000184
                },
                {
                    "name": "G#4",
                    "midi": 68,
                    "time": 134.02057500000106,
                    "velocity": 0.4330708661417323,
                    "duration": 0.10309275000000184
                },
                {
                    "name": "F#4",
                    "midi": 66,
                    "time": 134.12366775000106,
                    "velocity": 0.4015748031496063,
                    "duration": 0.10309275000000184
                },
                {
                    "name": "F4",
                    "midi": 65,
                    "time": 134.22676050000106,
                    "velocity": 0.48031496062992124,
                    "duration": 0.20618550000000369
                },
                {
                    "name": "C5",
                    "midi": 72,
                    "time": 134.43294600000107,
                    "velocity": 0.4330708661417323,
                    "duration": 0.10309275000000184
                },
                {
                    "name": "C#4",
                    "midi": 61,
                    "time": 136.39170825000107,
                    "velocity": 0.33070866141732286,
                    "duration": 0.30927825000000553
                },
                {
                    "name": "G4",
                    "midi": 67,
                    "time": 136.39170825000107,
                    "velocity": 0.3937007874015748,
                    "duration": 0.10309275000000184
                },
                {
                    "name": "G#4",
                    "midi": 68,
                    "time": 136.49480100000108,
                    "velocity": 0.4330708661417323,
                    "duration": 0.10309275000000184
                },
                {
                    "name": "G4",
                    "midi": 67,
                    "time": 136.59789375000108,
                    "velocity": 0.4015748031496063,
                    "duration": 0.10309275000000184
                },
                {
                    "name": "C4",
                    "midi": 60,
                    "time": 136.70098650000108,
                    "velocity": 0.33070866141732286,
                    "duration": 0.30927825000000553
                },
                {
                    "name": "G#4",
                    "midi": 68,
                    "time": 136.70098650000108,
                    "velocity": 0.48031496062992124,
                    "duration": 0.20618550000000369
                },
                {
                    "name": "D#5",
                    "midi": 75,
                    "time": 136.90717200000108,
                    "velocity": 0.4330708661417323,
                    "duration": 0.10309275000000184
                },
                {
                    "name": "C4",
                    "midi": 60,
                    "time": 138.8659342500011,
                    "velocity": 0.2440944881889764,
                    "duration": 0.30927825000000553
                },
                {
                    "name": "A4",
                    "midi": 69,
                    "time": 138.8659342500011,
                    "velocity": 0.2992125984251969,
                    "duration": 0.10309275000000184
                },
                {
                    "name": "A#4",
                    "midi": 70,
                    "time": 138.9690270000011,
                    "velocity": 0.3228346456692913,
                    "duration": 0.10309275000000184
                },
                {
                    "name": "A4",
                    "midi": 69,
                    "time": 139.0721197500011,
                    "velocity": 0.2992125984251969,
                    "duration": 0.10309275000000184
                },
                {
                    "name": "C#4",
                    "midi": 61,
                    "time": 139.1752125000011,
                    "velocity": 0.2440944881889764,
                    "duration": 0.6185565000000111
                },
                {
                    "name": "A#4",
                    "midi": 70,
                    "time": 139.1752125000011,
                    "velocity": 0.36220472440944884,
                    "duration": 0.6185565000000111
                },
                {
                    "name": "C4",
                    "midi": 60,
                    "time": 140.1030472500011,
                    "velocity": 0.2440944881889764,
                    "duration": 0.30927825000000553
                },
                {
                    "name": "A4",
                    "midi": 69,
                    "time": 140.1030472500011,
                    "velocity": 0.2992125984251969,
                    "duration": 0.10309275000000184
                },
                {
                    "name": "A#4",
                    "midi": 70,
                    "time": 140.2061400000011,
                    "velocity": 0.3228346456692913,
                    "duration": 0.10309275000000184
                },
                {
                    "name": "A4",
                    "midi": 69,
                    "time": 140.30923275000112,
                    "velocity": 0.2992125984251969,
                    "duration": 0.10309275000000184
                },
                {
                    "name": "C#4",
                    "midi": 61,
                    "time": 140.41232550000112,
                    "velocity": 0.2440944881889764,
                    "duration": 0.6185565000000111
                },
                {
                    "name": "A#4",
                    "midi": 70,
                    "time": 140.41232550000112,
                    "velocity": 0.36220472440944884,
                    "duration": 0.6185565000000111
                },
                {
                    "name": "C4",
                    "midi": 60,
                    "time": 141.34016025000113,
                    "velocity": 0.2440944881889764,
                    "duration": 0.30927825000000553
                },
                {
                    "name": "A4",
                    "midi": 69,
                    "time": 141.34016025000113,
                    "velocity": 0.2992125984251969,
                    "duration": 0.10309275000000184
                },
                {
                    "name": "A#4",
                    "midi": 70,
                    "time": 141.44325300000114,
                    "velocity": 0.3228346456692913,
                    "duration": 0.10309275000000184
                },
                {
                    "name": "A4",
                    "midi": 69,
                    "time": 141.52314988125113,
                    "velocity": 0.2992125984251969,
                    "duration": 0.10309275000000184
                },
                {
                    "name": "C#4",
                    "midi": 61,
                    "time": 141.64943850000114,
                    "velocity": 0.2440944881889764,
                    "duration": 0.41237100000000737
                },
                {
                    "name": "A#4",
                    "midi": 70,
                    "time": 141.64943850000114,
                    "velocity": 0.36220472440944884,
                    "duration": 0.6185565000000111
                },
                {
                    "name": "D4",
                    "midi": 62,
                    "time": 142.06180950000115,
                    "velocity": 0.3779527559055118,
                    "duration": 0.20618550000000369
                },
                {
                    "name": "D#4",
                    "midi": 63,
                    "time": 142.26799500000115,
                    "velocity": 0.3543307086614173,
                    "duration": 0.41237100000000737
                },
                {
                    "name": "C#5",
                    "midi": 73,
                    "time": 142.26799500000115,
                    "velocity": 0.41732283464566927,
                    "duration": 0.20618550000000369
                },
                {
                    "name": "B4",
                    "midi": 71,
                    "time": 142.47418050000115,
                    "velocity": 0.3700787401574803,
                    "duration": 0.20618550000000369
                },
                {
                    "name": "C#4",
                    "midi": 61,
                    "time": 142.68036600000116,
                    "velocity": 0.31496062992125984,
                    "duration": 0.20618550000000369
                },
                {
                    "name": "A#4",
                    "midi": 70,
                    "time": 142.68036600000116,
                    "velocity": 0.3779527559055118,
                    "duration": 0.41237100000000737
                },
                {
                    "name": "C4",
                    "midi": 60,
                    "time": 142.88655150000116,
                    "velocity": 0.3228346456692913,
                    "duration": 0.41237100000000737
                },
                {
                    "name": "G#4",
                    "midi": 68,
                    "time": 143.09273700000116,
                    "velocity": 0.33070866141732286,
                    "duration": 0.20618550000000369
                },
                {
                    "name": "C#4",
                    "midi": 61,
                    "time": 143.29892250000117,
                    "velocity": 0.28346456692913385,
                    "duration": 0.20618550000000369
                },
                {
                    "name": "A#4",
                    "midi": 70,
                    "time": 143.29892250000117,
                    "velocity": 0.33070866141732286,
                    "duration": 0.20618550000000369
                },
                {
                    "name": "A#3",
                    "midi": 58,
                    "time": 143.50510800000117,
                    "velocity": 0.3228346456692913,
                    "duration": 0.41237100000000737
                },
                {
                    "name": "F#4",
                    "midi": 66,
                    "time": 143.50510800000117,
                    "velocity": 0.3858267716535433,
                    "duration": 0.41237100000000737
                },
                {
                    "name": "C#4",
                    "midi": 61,
                    "time": 143.91747900000118,
                    "velocity": 0.31496062992125984,
                    "duration": 0.20618550000000369
                },
                {
                    "name": "A#4",
                    "midi": 70,
                    "time": 143.91747900000118,
                    "velocity": 0.3779527559055118,
                    "duration": 0.20618550000000369
                },
                {
                    "name": "E4",
                    "midi": 64,
                    "time": 144.12366450000118,
                    "velocity": 0.3543307086614173,
                    "duration": 0.20618550000000369
                },
                {
                    "name": "C#5",
                    "midi": 73,
                    "time": 144.12366450000118,
                    "velocity": 0.41732283464566927,
                    "duration": 0.8247420000000147
                },
                {
                    "name": "G4",
                    "midi": 67,
                    "time": 144.3298500000012,
                    "velocity": 0.3858267716535433,
                    "duration": 0.20618550000000369
                },
                {
                    "name": "F#4",
                    "midi": 66,
                    "time": 144.5360355000012,
                    "velocity": 0.3937007874015748,
                    "duration": 0.20618550000000369
                },
                {
                    "name": "E4",
                    "midi": 64,
                    "time": 144.7422210000012,
                    "velocity": 0.3464566929133858,
                    "duration": 0.20618550000000369
                },
                {
                    "name": "B4",
                    "midi": 71,
                    "time": 144.9484065000012,
                    "velocity": 0.3464566929133858,
                    "duration": 0.20618550000000369
                },
                {
                    "name": "D#4",
                    "midi": 63,
                    "time": 144.9484065000012,
                    "velocity": 0.29133858267716534,
                    "duration": 0.20618550000000369
                },
                {
                    "name": "A#4",
                    "midi": 70,
                    "time": 145.1545920000012,
                    "velocity": 0.3464566929133858,
                    "duration": 0.41237100000000737
                },
                {
                    "name": "C#4",
                    "midi": 61,
                    "time": 145.1545920000012,
                    "velocity": 0.29133858267716534,
                    "duration": 0.20618550000000369
                },
                {
                    "name": "C4",
                    "midi": 60,
                    "time": 145.3607775000012,
                    "velocity": 0.31496062992125984,
                    "duration": 0.41237100000000737
                },
                {
                    "name": "G#4",
                    "midi": 68,
                    "time": 145.5669630000012,
                    "velocity": 0.3464566929133858,
                    "duration": 0.20618550000000369
                },
                {
                    "name": "A#4",
                    "midi": 70,
                    "time": 145.7731485000012,
                    "velocity": 0.3464566929133858,
                    "duration": 0.20618550000000369
                },
                {
                    "name": "C#4",
                    "midi": 61,
                    "time": 145.7731485000012,
                    "velocity": 0.29133858267716534,
                    "duration": 0.20618550000000369
                },
                {
                    "name": "A#3",
                    "midi": 58,
                    "time": 145.97933400000122,
                    "velocity": 0.3228346456692913,
                    "duration": 0.6185565000000111
                },
                {
                    "name": "F#4",
                    "midi": 66,
                    "time": 145.97933400000122,
                    "velocity": 0.3858267716535433,
                    "duration": 0.41237100000000737
                },
                {
                    "name": "A#4",
                    "midi": 70,
                    "time": 146.39170500000122,
                    "velocity": 0.3858267716535433,
                    "duration": 0.20618550000000369
                },
                {
                    "name": "B3",
                    "midi": 59,
                    "time": 146.59789050000123,
                    "velocity": 0.3228346456692913,
                    "duration": 0.6185565000000111
                },
                {
                    "name": "G#4",
                    "midi": 68,
                    "time": 146.59789050000123,
                    "velocity": 0.3858267716535433,
                    "duration": 0.41237100000000737
                },
                {
                    "name": "A#4",
                    "midi": 70,
                    "time": 147.01026150000123,
                    "velocity": 0.3700787401574803,
                    "duration": 0.20618550000000369
                },
                {
                    "name": "A#3",
                    "midi": 58,
                    "time": 147.21644700000124,
                    "velocity": 0.30708661417322836,
                    "duration": 0.6185565000000111
                },
                {
                    "name": "F#4",
                    "midi": 66,
                    "time": 147.21644700000124,
                    "velocity": 0.36220472440944884,
                    "duration": 0.41237100000000737
                },
                {
                    "name": "A#4",
                    "midi": 70,
                    "time": 147.62881800000125,
                    "velocity": 0.3543307086614173,
                    "duration": 0.20618550000000369
                },
                {
                    "name": "B3",
                    "midi": 59,
                    "time": 147.83500350000125,
                    "velocity": 0.29133858267716534,
                    "duration": 0.6185565000000111
                },
                {
                    "name": "G#4",
                    "midi": 68,
                    "time": 147.83500350000125,
                    "velocity": 0.3464566929133858,
                    "duration": 0.41237100000000737
                },
                {
                    "name": "A#4",
                    "midi": 70,
                    "time": 148.24737450000126,
                    "velocity": 0.33070866141732286,
                    "duration": 0.20618550000000369
                },
                {
                    "name": "A#3",
                    "midi": 58,
                    "time": 148.45356000000126,
                    "velocity": 0.29133858267716534,
                    "duration": 1.8556695000000332
                },
                {
                    "name": "F#4",
                    "midi": 66,
                    "time": 148.45356000000126,
                    "velocity": 0.31496062992125984,
                    "duration": 0.6185565000000111
                },
                {
                    "name": "F4",
                    "midi": 65,
                    "time": 149.07211650000127,
                    "velocity": 0.31496062992125984,
                    "duration": 0.6185565000000111
                },
                {
                    "name": "E4",
                    "midi": 64,
                    "time": 149.69067300000128,
                    "velocity": 0.2992125984251969,
                    "duration": 0.6185565000000111
                },
                {
                    "name": "D#4",
                    "midi": 63,
                    "time": 150.3092295000013,
                    "velocity": 0.29133858267716534,
                    "duration": 0.41237100000000737
                },
                {
                    "name": "G#4",
                    "midi": 68,
                    "time": 150.7216005000013,
                    "velocity": 0.2755905511811024,
                    "duration": 0.20618550000000369
                },
                {
                    "name": "G4",
                    "midi": 67,
                    "time": 150.9277860000013,
                    "velocity": 0.3700787401574803,
                    "duration": 0.20618550000000369
                },
                {
                    "name": "A#4",
                    "midi": 70,
                    "time": 151.1339715000013,
                    "velocity": 0.3464566929133858,
                    "duration": 0.20618550000000369
                },
                {
                    "name": "G#4",
                    "midi": 68,
                    "time": 151.3401570000013,
                    "velocity": 0.3464566929133858,
                    "duration": 0.20618550000000369
                },
                {
                    "name": "C#5",
                    "midi": 73,
                    "time": 151.54634250000132,
                    "velocity": 0.3700787401574803,
                    "duration": 0.6185565000000111
                },
                {
                    "name": "G4",
                    "midi": 67,
                    "time": 152.16489900000133,
                    "velocity": 0.3700787401574803,
                    "duration": 0.20618550000000369
                },
                {
                    "name": "A#4",
                    "midi": 70,
                    "time": 152.37108450000133,
                    "velocity": 0.3464566929133858,
                    "duration": 0.20618550000000369
                },
                {
                    "name": "G#4",
                    "midi": 68,
                    "time": 152.57727000000133,
                    "velocity": 0.3464566929133858,
                    "duration": 0.20618550000000369
                },
                {
                    "name": "C#5",
                    "midi": 73,
                    "time": 152.78345550000134,
                    "velocity": 0.3700787401574803,
                    "duration": 0.6185565000000111
                },
                {
                    "name": "D5",
                    "midi": 74,
                    "time": 153.40201200000135,
                    "velocity": 0.3700787401574803,
                    "duration": 0.20618550000000369
                },
                {
                    "name": "F5",
                    "midi": 77,
                    "time": 153.60819750000135,
                    "velocity": 0.3464566929133858,
                    "duration": 0.20618550000000369
                },
                {
                    "name": "D#5",
                    "midi": 75,
                    "time": 153.81438300000136,
                    "velocity": 0.3464566929133858,
                    "duration": 0.20618550000000369
                },
                {
                    "name": "G#4",
                    "midi": 68,
                    "time": 154.02056850000136,
                    "velocity": 0.3700787401574803,
                    "duration": 0.6185565000000111
                },
                {
                    "name": "D5",
                    "midi": 74,
                    "time": 154.63912500000137,
                    "velocity": 0.3700787401574803,
                    "duration": 0.20618550000000369
                },
                {
                    "name": "F5",
                    "midi": 77,
                    "time": 154.84531050000137,
                    "velocity": 0.3464566929133858,
                    "duration": 0.20618550000000369
                },
                {
                    "name": "D#5",
                    "midi": 75,
                    "time": 155.05149600000138,
                    "velocity": 0.3464566929133858,
                    "duration": 0.20618550000000369
                },
                {
                    "name": "G#4",
                    "midi": 68,
                    "time": 155.25768150000138,
                    "velocity": 0.3700787401574803,
                    "duration": 0.6185565000000111
                },
                {
                    "name": "G#4",
                    "midi": 68,
                    "time": 155.8762380000014,
                    "velocity": 0.3858267716535433,
                    "duration": 0.20618550000000369
                },
                {
                    "name": "F#5",
                    "midi": 78,
                    "time": 156.0824235000014,
                    "velocity": 0.41732283464566927,
                    "duration": 0.20618550000000369
                },
                {
                    "name": "F5",
                    "midi": 77,
                    "time": 156.2886090000014,
                    "velocity": 0.4015748031496063,
                    "duration": 0.20618550000000369
                },
                {
                    "name": "C#5",
                    "midi": 73,
                    "time": 156.4947945000014,
                    "velocity": 0.3858267716535433,
                    "duration": 0.20618550000000369
                },
                {
                    "name": "A#5",
                    "midi": 82,
                    "time": 156.7009800000014,
                    "velocity": 0.41732283464566927,
                    "duration": 0.20618550000000369
                },
                {
                    "name": "G#5",
                    "midi": 80,
                    "time": 156.9071655000014,
                    "velocity": 0.4015748031496063,
                    "duration": 0.20618550000000369
                },
                {
                    "name": "F#4",
                    "midi": 66,
                    "time": 157.11335100000142,
                    "velocity": 0.3228346456692913,
                    "duration": 0.20618550000000369
                },
                {
                    "name": "D#5",
                    "midi": 75,
                    "time": 157.11335100000142,
                    "velocity": 0.3858267716535433,
                    "duration": 0.20618550000000369
                },
                {
                    "name": "A#4",
                    "midi": 70,
                    "time": 157.31953650000142,
                    "velocity": 0.3543307086614173,
                    "duration": 0.20618550000000369
                },
                {
                    "name": "F#5",
                    "midi": 78,
                    "time": 157.31953650000142,
                    "velocity": 0.41732283464566927,
                    "duration": 0.20618550000000369
                },
                {
                    "name": "G#4",
                    "midi": 68,
                    "time": 157.52572200000142,
                    "velocity": 0.33858267716535434,
                    "duration": 0.20618550000000369
                },
                {
                    "name": "F5",
                    "midi": 77,
                    "time": 157.52572200000142,
                    "velocity": 0.4015748031496063,
                    "duration": 0.20618550000000369
                },
                {
                    "name": "C#5",
                    "midi": 73,
                    "time": 157.73190750000143,
                    "velocity": 0.3858267716535433,
                    "duration": 0.30927825000000553
                },
                {
                    "name": "G#5",
                    "midi": 80,
                    "time": 158.04118575000143,
                    "velocity": 0.3858267716535433,
                    "duration": 0.10309275000000184
                },
                {
                    "name": "A#5",
                    "midi": 82,
                    "time": 158.14427850000143,
                    "velocity": 0.3858267716535433,
                    "duration": 0.10309275000000184
                },
                {
                    "name": "G#5",
                    "midi": 80,
                    "time": 158.24737125000144,
                    "velocity": 0.3858267716535433,
                    "duration": 0.10309275000000184
                },
                {
                    "name": "G4",
                    "midi": 67,
                    "time": 158.35046400000144,
                    "velocity": 0.30708661417322836,
                    "duration": 0.20618550000000369
                },
                {
                    "name": "G5",
                    "midi": 79,
                    "time": 158.35046400000144,
                    "velocity": 0.3700787401574803,
                    "duration": 0.20618550000000369
                },
                {
                    "name": "A#4",
                    "midi": 70,
                    "time": 158.55664950000144,
                    "velocity": 0.29133858267716534,
                    "duration": 0.20618550000000369
                },
                {
                    "name": "A#5",
                    "midi": 82,
                    "time": 158.55664950000144,
                    "velocity": 0.3464566929133858,
                    "duration": 0.20618550000000369
                },
                {
                    "name": "G#4",
                    "midi": 68,
                    "time": 158.76283500000144,
                    "velocity": 0.29133858267716534,
                    "duration": 0.20618550000000369
                },
                {
                    "name": "G#5",
                    "midi": 80,
                    "time": 158.76283500000144,
                    "velocity": 0.3464566929133858,
                    "duration": 0.20618550000000369
                },
                {
                    "name": "C#5",
                    "midi": 73,
                    "time": 158.96902050000145,
                    "velocity": 0.30708661417322836,
                    "duration": 0.6185565000000111
                },
                {
                    "name": "C#6",
                    "midi": 85,
                    "time": 158.96902050000145,
                    "velocity": 0.3700787401574803,
                    "duration": 0.6185565000000111
                },
                {
                    "name": "G4",
                    "midi": 67,
                    "time": 159.58757700000146,
                    "velocity": 0.30708661417322836,
                    "duration": 0.20618550000000369
                },
                {
                    "name": "G5",
                    "midi": 79,
                    "time": 159.58757700000146,
                    "velocity": 0.3700787401574803,
                    "duration": 0.20618550000000369
                },
                {
                    "name": "A#4",
                    "midi": 70,
                    "time": 159.79376250000146,
                    "velocity": 0.29133858267716534,
                    "duration": 0.20618550000000369
                },
                {
                    "name": "A#5",
                    "midi": 82,
                    "time": 159.79376250000146,
                    "velocity": 0.3464566929133858,
                    "duration": 0.20618550000000369
                },
                {
                    "name": "G#4",
                    "midi": 68,
                    "time": 159.99994800000147,
                    "velocity": 0.29133858267716534,
                    "duration": 0.20618550000000369
                },
                {
                    "name": "G#5",
                    "midi": 80,
                    "time": 159.99994800000147,
                    "velocity": 0.3464566929133858,
                    "duration": 0.20618550000000369
                },
                {
                    "name": "C#5",
                    "midi": 73,
                    "time": 160.20613350000147,
                    "velocity": 0.30708661417322836,
                    "duration": 0.6185565000000111
                },
                {
                    "name": "C#6",
                    "midi": 85,
                    "time": 160.20613350000147,
                    "velocity": 0.3700787401574803,
                    "duration": 0.6185565000000111
                },
                {
                    "name": "D5",
                    "midi": 74,
                    "time": 160.82469000000148,
                    "velocity": 0.30708661417322836,
                    "duration": 0.20618550000000369
                },
                {
                    "name": "D6",
                    "midi": 86,
                    "time": 160.82469000000148,
                    "velocity": 0.3700787401574803,
                    "duration": 0.20618550000000369
                },
                {
                    "name": "F5",
                    "midi": 77,
                    "time": 161.03087550000149,
                    "velocity": 0.29133858267716534,
                    "duration": 0.20618550000000369
                },
                {
                    "name": "F6",
                    "midi": 89,
                    "time": 161.03087550000149,
                    "velocity": 0.3464566929133858,
                    "duration": 0.20618550000000369
                },
                {
                    "name": "D#5",
                    "midi": 75,
                    "time": 161.2370610000015,
                    "velocity": 0.29133858267716534,
                    "duration": 0.20618550000000369
                },
                {
                    "name": "D#6",
                    "midi": 87,
                    "time": 161.2370610000015,
                    "velocity": 0.3464566929133858,
                    "duration": 0.20618550000000369
                },
                {
                    "name": "G#4",
                    "midi": 68,
                    "time": 161.4432465000015,
                    "velocity": 0.30708661417322836,
                    "duration": 0.6185565000000111
                },
                {
                    "name": "G#5",
                    "midi": 80,
                    "time": 161.4432465000015,
                    "velocity": 0.3700787401574803,
                    "duration": 0.6185565000000111
                },
                {
                    "name": "D5",
                    "midi": 74,
                    "time": 162.0618030000015,
                    "velocity": 0.30708661417322836,
                    "duration": 0.20618550000000369
                },
                {
                    "name": "D6",
                    "midi": 86,
                    "time": 162.0618030000015,
                    "velocity": 0.3700787401574803,
                    "duration": 0.20618550000000369
                },
                {
                    "name": "F5",
                    "midi": 77,
                    "time": 162.2679885000015,
                    "velocity": 0.29133858267716534,
                    "duration": 0.20618550000000369
                },
                {
                    "name": "F6",
                    "midi": 89,
                    "time": 162.2679885000015,
                    "velocity": 0.3464566929133858,
                    "duration": 0.20618550000000369
                },
                {
                    "name": "D#5",
                    "midi": 75,
                    "time": 162.4741740000015,
                    "velocity": 0.29133858267716534,
                    "duration": 0.20618550000000369
                },
                {
                    "name": "D#6",
                    "midi": 87,
                    "time": 162.4741740000015,
                    "velocity": 0.3464566929133858,
                    "duration": 0.20618550000000369
                },
                {
                    "name": "G#4",
                    "midi": 68,
                    "time": 162.68035950000152,
                    "velocity": 0.30708661417322836,
                    "duration": 0.6185565000000111
                },
                {
                    "name": "G#5",
                    "midi": 80,
                    "time": 162.68035950000152,
                    "velocity": 0.3700787401574803,
                    "duration": 0.6185565000000111
                },
                {
                    "name": "G#4",
                    "midi": 68,
                    "time": 163.29891600000153,
                    "velocity": 0.3228346456692913,
                    "duration": 0.10309275000000184
                },
                {
                    "name": "G#5",
                    "midi": 80,
                    "time": 163.29891600000153,
                    "velocity": 0.3858267716535433,
                    "duration": 0.10309275000000184
                },
                {
                    "name": "F#5",
                    "midi": 78,
                    "time": 163.50510150000153,
                    "velocity": 0.3543307086614173,
                    "duration": 0.20618550000000369
                },
                {
                    "name": "F#6",
                    "midi": 90,
                    "time": 163.50510150000153,
                    "velocity": 0.41732283464566927,
                    "duration": 0.20618550000000369
                },
                {
                    "name": "F5",
                    "midi": 77,
                    "time": 163.71128700000153,
                    "velocity": 0.33858267716535434,
                    "duration": 0.20618550000000369
                },
                {
                    "name": "F6",
                    "midi": 89,
                    "time": 163.71128700000153,
                    "velocity": 0.4015748031496063,
                    "duration": 0.20618550000000369
                },
                {
                    "name": "C#5",
                    "midi": 73,
                    "time": 163.91747250000154,
                    "velocity": 0.3228346456692913,
                    "duration": 0.10309275000000184
                },
                {
                    "name": "C#6",
                    "midi": 85,
                    "time": 163.91747250000154,
                    "velocity": 0.3858267716535433,
                    "duration": 0.10309275000000184
                },
                {
                    "name": "A#5",
                    "midi": 82,
                    "time": 164.12365800000154,
                    "velocity": 0.3543307086614173,
                    "duration": 0.20618550000000369
                },
                {
                    "name": "A#6",
                    "midi": 94,
                    "time": 164.12365800000154,
                    "velocity": 0.41732283464566927,
                    "duration": 0.20618550000000369
                },
                {
                    "name": "G#5",
                    "midi": 80,
                    "time": 164.32984350000154,
                    "velocity": 0.33858267716535434,
                    "duration": 0.20618550000000369
                },
                {
                    "name": "G#6",
                    "midi": 92,
                    "time": 164.32984350000154,
                    "velocity": 0.4015748031496063,
                    "duration": 0.20618550000000369
                },
                {
                    "name": "D#5",
                    "midi": 75,
                    "time": 164.53602900000155,
                    "velocity": 0.3228346456692913,
                    "duration": 0.10309275000000184
                },
                {
                    "name": "D#6",
                    "midi": 87,
                    "time": 164.53602900000155,
                    "velocity": 0.3858267716535433,
                    "duration": 0.10309275000000184
                },
                {
                    "name": "F#5",
                    "midi": 78,
                    "time": 164.74221450000155,
                    "velocity": 0.3543307086614173,
                    "duration": 0.20618550000000369
                },
                {
                    "name": "F#6",
                    "midi": 90,
                    "time": 164.74221450000155,
                    "velocity": 0.41732283464566927,
                    "duration": 0.20618550000000369
                },
                {
                    "name": "F5",
                    "midi": 77,
                    "time": 164.94840000000156,
                    "velocity": 0.33858267716535434,
                    "duration": 0.20618550000000369
                },
                {
                    "name": "F6",
                    "midi": 89,
                    "time": 164.94840000000156,
                    "velocity": 0.4015748031496063,
                    "duration": 0.20618550000000369
                },
                {
                    "name": "C#5",
                    "midi": 73,
                    "time": 165.15458550000156,
                    "velocity": 0.3228346456692913,
                    "duration": 0.41237100000000737
                },
                {
                    "name": "C#6",
                    "midi": 85,
                    "time": 165.15458550000156,
                    "velocity": 0.3858267716535433,
                    "duration": 0.41237100000000737
                },
                {
                    "name": "C#5",
                    "midi": 73,
                    "time": 165.77314200000157,
                    "velocity": 0.3858267716535433,
                    "duration": 0.30927825000000553
                },
                {
                    "name": "C#5",
                    "midi": 73,
                    "time": 166.08242025000158,
                    "velocity": 0.3543307086614173,
                    "duration": 0.09793811250000317
                },
                {
                    "name": "C#5",
                    "midi": 73,
                    "time": 166.18551300000158,
                    "velocity": 0.3858267716535433,
                    "duration": 0.20618550000000369
                },
                {
                    "name": "C#5",
                    "midi": 73,
                    "time": 166.39169850000158,
                    "velocity": 0.3858267716535433,
                    "duration": 0.30927825000000553
                },
                {
                    "name": "C#5",
                    "midi": 73,
                    "time": 166.7009767500016,
                    "velocity": 0.33858267716535434,
                    "duration": 0.09793811250000317
                },
                {
                    "name": "C#5",
                    "midi": 73,
                    "time": 166.8040695000016,
                    "velocity": 0.3858267716535433,
                    "duration": 0.20618550000000369
                },
                {
                    "name": "C#5",
                    "midi": 73,
                    "time": 167.0102550000016,
                    "velocity": 0.3464566929133858,
                    "duration": 0.30927825000000553
                },
                {
                    "name": "E5",
                    "midi": 76,
                    "time": 167.0102550000016,
                    "velocity": 0.4094488188976378,
                    "duration": 0.30927825000000553
                },
                {
                    "name": "C#5",
                    "midi": 73,
                    "time": 167.3195332500016,
                    "velocity": 0.3228346456692913,
                    "duration": 0.09793811250000317
                },
                {
                    "name": "E5",
                    "midi": 76,
                    "time": 167.3195332500016,
                    "velocity": 0.3858267716535433,
                    "duration": 0.09793811250000317
                },
                {
                    "name": "C#5",
                    "midi": 73,
                    "time": 167.4226260000016,
                    "velocity": 0.3543307086614173,
                    "duration": 0.20618550000000369
                },
                {
                    "name": "E5",
                    "midi": 76,
                    "time": 167.4226260000016,
                    "velocity": 0.41732283464566927,
                    "duration": 0.20618550000000369
                },
                {
                    "name": "C#5",
                    "midi": 73,
                    "time": 167.6288115000016,
                    "velocity": 0.3464566929133858,
                    "duration": 0.30927825000000553
                },
                {
                    "name": "E5",
                    "midi": 76,
                    "time": 167.6288115000016,
                    "velocity": 0.4094488188976378,
                    "duration": 0.30927825000000553
                },
                {
                    "name": "C#5",
                    "midi": 73,
                    "time": 167.9380897500016,
                    "velocity": 0.30708661417322836,
                    "duration": 0.09793811250000317
                },
                {
                    "name": "E5",
                    "midi": 76,
                    "time": 167.9380897500016,
                    "velocity": 0.3700787401574803,
                    "duration": 0.09793811250000317
                },
                {
                    "name": "C#5",
                    "midi": 73,
                    "time": 168.0411825000016,
                    "velocity": 0.3543307086614173,
                    "duration": 0.20618550000000369
                },
                {
                    "name": "E5",
                    "midi": 76,
                    "time": 168.0411825000016,
                    "velocity": 0.41732283464566927,
                    "duration": 0.20618550000000369
                },
                {
                    "name": "C#5",
                    "midi": 73,
                    "time": 168.24736800000161,
                    "velocity": 0.3543307086614173,
                    "duration": 0.30927825000000553
                },
                {
                    "name": "E5",
                    "midi": 76,
                    "time": 168.24736800000161,
                    "velocity": 0.4251968503937008,
                    "duration": 0.30927825000000553
                },
                {
                    "name": "C#5",
                    "midi": 73,
                    "time": 168.55664625000162,
                    "velocity": 0.3228346456692913,
                    "duration": 0.09793811250000317
                },
                {
                    "name": "E5",
                    "midi": 76,
                    "time": 168.55664625000162,
                    "velocity": 0.3858267716535433,
                    "duration": 0.09793811250000317
                },
                {
                    "name": "C#5",
                    "midi": 73,
                    "time": 168.65973900000162,
                    "velocity": 0.3543307086614173,
                    "duration": 0.20618550000000369
                },
                {
                    "name": "E5",
                    "midi": 76,
                    "time": 168.65973900000162,
                    "velocity": 0.4251968503937008,
                    "duration": 0.20618550000000369
                },
                {
                    "name": "C#5",
                    "midi": 73,
                    "time": 168.86592450000163,
                    "velocity": 0.3543307086614173,
                    "duration": 0.30927825000000553
                },
                {
                    "name": "E5",
                    "midi": 76,
                    "time": 168.86592450000163,
                    "velocity": 0.41732283464566927,
                    "duration": 0.30927825000000553
                },
                {
                    "name": "C#5",
                    "midi": 73,
                    "time": 169.17520275000163,
                    "velocity": 0.3228346456692913,
                    "duration": 0.09793811250000317
                },
                {
                    "name": "E5",
                    "midi": 76,
                    "time": 169.17520275000163,
                    "velocity": 0.3858267716535433,
                    "duration": 0.09793811250000317
                },
                {
                    "name": "C#5",
                    "midi": 73,
                    "time": 169.27829550000163,
                    "velocity": 0.3543307086614173,
                    "duration": 0.20618550000000369
                },
                {
                    "name": "E5",
                    "midi": 76,
                    "time": 169.27829550000163,
                    "velocity": 0.4251968503937008,
                    "duration": 0.20618550000000369
                },
                {
                    "name": "C#5",
                    "midi": 73,
                    "time": 169.48448100000164,
                    "velocity": 0.4645669291338583,
                    "duration": 0.30927825000000553
                },
                {
                    "name": "D#5",
                    "midi": 75,
                    "time": 169.48448100000164,
                    "velocity": 0.5511811023622047,
                    "duration": 0.30927825000000553
                },
                {
                    "name": "C#5",
                    "midi": 73,
                    "time": 169.79375925000164,
                    "velocity": 0.4015748031496063,
                    "duration": 0.09793811250000317
                },
                {
                    "name": "D#5",
                    "midi": 75,
                    "time": 169.79375925000164,
                    "velocity": 0.48031496062992124,
                    "duration": 0.09793811250000317
                },
                {
                    "name": "C#5",
                    "midi": 73,
                    "time": 169.89685200000164,
                    "velocity": 0.48031496062992124,
                    "duration": 0.20618550000000369
                },
                {
                    "name": "D#5",
                    "midi": 75,
                    "time": 169.89685200000164,
                    "velocity": 0.5669291338582677,
                    "duration": 0.20618550000000369
                },
                {
                    "name": "C#5",
                    "midi": 73,
                    "time": 170.10303750000165,
                    "velocity": 0.5905511811023622,
                    "duration": 0.30927825000000553
                },
                {
                    "name": "D#5",
                    "midi": 75,
                    "time": 170.10303750000165,
                    "velocity": 0.7007874015748031,
                    "duration": 0.30927825000000553
                },
                {
                    "name": "C#5",
                    "midi": 73,
                    "time": 170.41231575000165,
                    "velocity": 0.5433070866141733,
                    "duration": 0.09793811250000317
                },
                {
                    "name": "D#5",
                    "midi": 75,
                    "time": 170.41231575000165,
                    "velocity": 0.6377952755905512,
                    "duration": 0.09793811250000317
                },
                {
                    "name": "C#5",
                    "midi": 73,
                    "time": 170.51540850000166,
                    "velocity": 0.6062992125984252,
                    "duration": 0.20618550000000369
                },
                {
                    "name": "D#5",
                    "midi": 75,
                    "time": 170.51540850000166,
                    "velocity": 0.6535433070866141,
                    "duration": 0.20618550000000369
                },
                {
                    "name": "D#4",
                    "midi": 63,
                    "time": 170.72159400000166,
                    "velocity": 0.5905511811023622,
                    "duration": 0.30927825000000553
                },
                {
                    "name": "C5",
                    "midi": 72,
                    "time": 170.72159400000166,
                    "velocity": 0.5905511811023622,
                    "duration": 0.30927825000000553
                },
                {
                    "name": "D#5",
                    "midi": 75,
                    "time": 170.72159400000166,
                    "velocity": 0.7007874015748031,
                    "duration": 0.30927825000000553
                },
                {
                    "name": "D#4",
                    "midi": 63,
                    "time": 171.03087225000166,
                    "velocity": 0.5669291338582677,
                    "duration": 0.09793811250000317
                },
                {
                    "name": "C5",
                    "midi": 72,
                    "time": 171.03087225000166,
                    "velocity": 0.5669291338582677,
                    "duration": 0.09793811250000317
                },
                {
                    "name": "D#5",
                    "midi": 75,
                    "time": 171.03087225000166,
                    "velocity": 0.6692913385826772,
                    "duration": 0.09793811250000317
                },
                {
                    "name": "C5",
                    "midi": 72,
                    "time": 171.13396500000167,
                    "velocity": 0.5905511811023622,
                    "duration": 0.10309275000000184
                },
                {
                    "name": "D#5",
                    "midi": 75,
                    "time": 171.13396500000167,
                    "velocity": 0.7007874015748031,
                    "duration": 0.10309275000000184
                },
                {
                    "name": "D#4",
                    "midi": 63,
                    "time": 171.13396500000167,
                    "velocity": 0.5905511811023622,
                    "duration": 0.10309275000000184
                },
                {
                    "name": "C5",
                    "midi": 72,
                    "time": 171.34015050000167,
                    "velocity": 0.5905511811023622,
                    "duration": 0.30927825000000553
                },
                {
                    "name": "D#5",
                    "midi": 75,
                    "time": 171.34015050000167,
                    "velocity": 0.7007874015748031,
                    "duration": 0.30927825000000553
                },
                {
                    "name": "D#4",
                    "midi": 63,
                    "time": 171.34015050000167,
                    "velocity": 0.5905511811023622,
                    "duration": 0.30927825000000553
                },
                {
                    "name": "D#5",
                    "midi": 75,
                    "time": 171.64942875000168,
                    "velocity": 0.6692913385826772,
                    "duration": 0.09793811250000317
                },
                {
                    "name": "D#4",
                    "midi": 63,
                    "time": 171.64942875000168,
                    "velocity": 0.5669291338582677,
                    "duration": 0.09793811250000317
                },
                {
                    "name": "C5",
                    "midi": 72,
                    "time": 171.64942875000168,
                    "velocity": 0.5669291338582677,
                    "duration": 0.09793811250000317
                },
                {
                    "name": "D#5",
                    "midi": 75,
                    "time": 171.75252150000168,
                    "velocity": 0.7007874015748031,
                    "duration": 0.10309275000000184
                },
                {
                    "name": "D#4",
                    "midi": 63,
                    "time": 171.75252150000168,
                    "velocity": 0.5905511811023622,
                    "duration": 0.10309275000000184
                },
                {
                    "name": "C5",
                    "midi": 72,
                    "time": 171.75252150000168,
                    "velocity": 0.5905511811023622,
                    "duration": 0.10309275000000184
                },
                {
                    "name": "D#4",
                    "midi": 63,
                    "time": 171.95870700000168,
                    "velocity": 0.5354330708661418,
                    "duration": 0.10309275000000184
                },
                {
                    "name": "B4",
                    "midi": 71,
                    "time": 171.95870700000168,
                    "velocity": 0.5354330708661418,
                    "duration": 0.10309275000000184
                },
                {
                    "name": "D#5",
                    "midi": 75,
                    "time": 171.95870700000168,
                    "velocity": 0.6299212598425197,
                    "duration": 0.10309275000000184
                },
                {
                    "name": "C5",
                    "midi": 72,
                    "time": 172.06179975000168,
                    "velocity": 0.5748031496062992,
                    "duration": 0.10309275000000184
                },
                {
                    "name": "G#4",
                    "midi": 68,
                    "time": 172.16489250000168,
                    "velocity": 0.5748031496062992,
                    "duration": 0.10309275000000184
                },
                {
                    "name": "D#4",
                    "midi": 63,
                    "time": 172.2679852500017,
                    "velocity": 0.5748031496062992,
                    "duration": 0.10309275000000184
                },
                {
                    "name": "C4",
                    "midi": 60,
                    "time": 172.3710780000017,
                    "velocity": 0.6299212598425197,
                    "duration": 0.10309275000000184
                },
                {
                    "name": "D#4",
                    "midi": 63,
                    "time": 172.5772635000017,
                    "velocity": 0.6614173228346457,
                    "duration": 0.10309275000000184
                },
                {
                    "name": "G#4",
                    "midi": 68,
                    "time": 172.6803562500017,
                    "velocity": 0.5826771653543307,
                    "duration": 0.10309275000000184
                },
                {
                    "name": "C5",
                    "midi": 72,
                    "time": 172.7834490000017,
                    "velocity": 0.5826771653543307,
                    "duration": 0.10309275000000184
                },
                {
                    "name": "D#5",
                    "midi": 75,
                    "time": 172.8865417500017,
                    "velocity": 0.5826771653543307,
                    "duration": 0.10309275000000184
                },
                {
                    "name": "G#5",
                    "midi": 80,
                    "time": 172.9896345000017,
                    "velocity": 0.6220472440944882,
                    "duration": 0.10309275000000184
                },
                {
                    "name": "A5",
                    "midi": 81,
                    "time": 173.1958200000017,
                    "velocity": 0.6062992125984252,
                    "duration": 0.05154637499998671
                },
                {
                    "name": "A4",
                    "midi": 69,
                    "time": 173.1958200000017,
                    "velocity": 0.5118110236220472,
                    "duration": 0.05154637499998671
                },
                {
                    "name": "A#4",
                    "midi": 70,
                    "time": 173.40200550000168,
                    "velocity": 0.5748031496062992,
                    "duration": 0.41237100000000737
                },
                {
                    "name": "A#5",
                    "midi": 82,
                    "time": 173.40200550000168,
                    "velocity": 0.6771653543307087,
                    "duration": 0.41237100000000737
                },
                {
                    "name": "D4",
                    "midi": 62,
                    "time": 173.81437650000169,
                    "velocity": 0.6692913385826772,
                    "duration": 0.10309275000000184
                },
                {
                    "name": "D#4",
                    "midi": 63,
                    "time": 173.9174692500017,
                    "velocity": 0.5511811023622047,
                    "duration": 0.10309275000000184
                },
                {
                    "name": "A#3",
                    "midi": 58,
                    "time": 174.0205620000017,
                    "velocity": 0.5905511811023622,
                    "duration": 0.10309275000000184
                },
                {
                    "name": "G3",
                    "midi": 55,
                    "time": 174.1236547500017,
                    "velocity": 0.5511811023622047,
                    "duration": 0.10309275000000184
                },
                {
                    "name": "D#3",
                    "midi": 51,
                    "time": 174.2267475000017,
                    "velocity": 0.5984251968503937,
                    "duration": 0.10309275000000184
                },
                {
                    "name": "D#5",
                    "midi": 75,
                    "time": 174.4329330000017,
                    "velocity": 0.7007874015748031,
                    "duration": 0.30927825000000553
                },
                {
                    "name": "C#5",
                    "midi": 73,
                    "time": 174.4329330000017,
                    "velocity": 0.5905511811023622,
                    "duration": 0.30927825000000553
                },
                {
                    "name": "D#4",
                    "midi": 63,
                    "time": 174.4329330000017,
                    "velocity": 0.5905511811023622,
                    "duration": 0.30927825000000553
                },
                {
                    "name": "D#4",
                    "midi": 63,
                    "time": 174.7422112500017,
                    "velocity": 0.5669291338582677,
                    "duration": 0.09793811250000317
                },
                {
                    "name": "C#5",
                    "midi": 73,
                    "time": 174.7422112500017,
                    "velocity": 0.5669291338582677,
                    "duration": 0.09793811250000317
                },
                {
                    "name": "D#5",
                    "midi": 75,
                    "time": 174.7422112500017,
                    "velocity": 0.6692913385826772,
                    "duration": 0.09793811250000317
                },
                {
                    "name": "D#4",
                    "midi": 63,
                    "time": 174.8453040000017,
                    "velocity": 0.5905511811023622,
                    "duration": 0.10309275000000184
                },
                {
                    "name": "C#5",
                    "midi": 73,
                    "time": 174.8453040000017,
                    "velocity": 0.5905511811023622,
                    "duration": 0.10309275000000184
                },
                {
                    "name": "D#5",
                    "midi": 75,
                    "time": 174.8453040000017,
                    "velocity": 0.7007874015748031,
                    "duration": 0.10309275000000184
                },
                {
                    "name": "D#4",
                    "midi": 63,
                    "time": 175.0514895000017,
                    "velocity": 0.5905511811023622,
                    "duration": 0.30927825000000553
                },
                {
                    "name": "C#5",
                    "midi": 73,
                    "time": 175.0514895000017,
                    "velocity": 0.5905511811023622,
                    "duration": 0.30927825000000553
                },
                {
                    "name": "D#5",
                    "midi": 75,
                    "time": 175.0514895000017,
                    "velocity": 0.7007874015748031,
                    "duration": 0.30927825000000553
                },
                {
                    "name": "D#4",
                    "midi": 63,
                    "time": 175.3607677500017,
                    "velocity": 0.5669291338582677,
                    "duration": 0.09793811250000317
                },
                {
                    "name": "C#5",
                    "midi": 73,
                    "time": 175.3607677500017,
                    "velocity": 0.5669291338582677,
                    "duration": 0.09793811250000317
                },
                {
                    "name": "D#5",
                    "midi": 75,
                    "time": 175.3607677500017,
                    "velocity": 0.6692913385826772,
                    "duration": 0.09793811250000317
                },
                {
                    "name": "D#4",
                    "midi": 63,
                    "time": 175.46386050000172,
                    "velocity": 0.5905511811023622,
                    "duration": 0.10309275000000184
                },
                {
                    "name": "C#5",
                    "midi": 73,
                    "time": 175.46386050000172,
                    "velocity": 0.5905511811023622,
                    "duration": 0.10309275000000184
                },
                {
                    "name": "D#5",
                    "midi": 75,
                    "time": 175.46386050000172,
                    "velocity": 0.7007874015748031,
                    "duration": 0.10309275000000184
                },
                {
                    "name": "D#4",
                    "midi": 63,
                    "time": 175.67004600000172,
                    "velocity": 0.5354330708661418,
                    "duration": 0.10309275000000184
                },
                {
                    "name": "C5",
                    "midi": 72,
                    "time": 175.67004600000172,
                    "velocity": 0.5354330708661418,
                    "duration": 0.10309275000000184
                },
                {
                    "name": "D#5",
                    "midi": 75,
                    "time": 175.67004600000172,
                    "velocity": 0.6299212598425197,
                    "duration": 0.10309275000000184
                },
                {
                    "name": "C#5",
                    "midi": 73,
                    "time": 175.77313875000172,
                    "velocity": 0.5748031496062992,
                    "duration": 0.10309275000000184
                },
                {
                    "name": "A#4",
                    "midi": 70,
                    "time": 175.87623150000172,
                    "velocity": 0.5748031496062992,
                    "duration": 0.10309275000000184
                },
                {
                    "name": "G4",
                    "midi": 67,
                    "time": 175.97932425000172,
                    "velocity": 0.5748031496062992,
                    "duration": 0.10309275000000184
                },
                {
                    "name": "D#4",
                    "midi": 63,
                    "time": 176.08241700000173,
                    "velocity": 0.6299212598425197,
                    "duration": 0.10309275000000184
                },
                {
                    "name": "G4",
                    "midi": 67,
                    "time": 176.28860250000173,
                    "velocity": 0.6614173228346457,
                    "duration": 0.10309275000000184
                },
                {
                    "name": "A#4",
                    "midi": 70,
                    "time": 176.39169525000173,
                    "velocity": 0.5826771653543307,
                    "duration": 0.10309275000000184
                },
                {
                    "name": "C#5",
                    "midi": 73,
                    "time": 176.49478800000173,
                    "velocity": 0.5826771653543307,
                    "duration": 0.10309275000000184
                },
                {
                    "name": "D#5",
                    "midi": 75,
                    "time": 176.59788075000174,
                    "velocity": 0.5826771653543307,
                    "duration": 0.10309275000000184
                },
                {
                    "name": "G5",
                    "midi": 79,
                    "time": 176.70097350000174,
                    "velocity": 0.6220472440944882,
                    "duration": 0.10309275000000184
                },
                {
                    "name": "B5",
                    "midi": 83,
                    "time": 176.90715900000174,
                    "velocity": 0.6062992125984252,
                    "duration": 0.05154637499998671
                },
                {
                    "name": "B4",
                    "midi": 71,
                    "time": 176.90715900000174,
                    "velocity": 0.5118110236220472,
                    "duration": 0.05154637499998671
                },
                {
                    "name": "C5",
                    "midi": 72,
                    "time": 177.11334450000172,
                    "velocity": 0.5748031496062992,
                    "duration": 0.41237100000000737
                },
                {
                    "name": "C6",
                    "midi": 84,
                    "time": 177.11334450000172,
                    "velocity": 0.6771653543307087,
                    "duration": 0.41237100000000737
                },
                {
                    "name": "G4",
                    "midi": 67,
                    "time": 177.52571550000172,
                    "velocity": 0.6692913385826772,
                    "duration": 0.10309275000000184
                },
                {
                    "name": "G#4",
                    "midi": 68,
                    "time": 177.62880825000173,
                    "velocity": 0.5511811023622047,
                    "duration": 0.10309275000000184
                },
                {
                    "name": "D#4",
                    "midi": 63,
                    "time": 177.73190100000173,
                    "velocity": 0.5905511811023622,
                    "duration": 0.10309275000000184
                },
                {
                    "name": "C4",
                    "midi": 60,
                    "time": 177.83499375000173,
                    "velocity": 0.5511811023622047,
                    "duration": 0.10309275000000184
                },
                {
                    "name": "G#3",
                    "midi": 56,
                    "time": 177.93808650000173,
                    "velocity": 0.5984251968503937,
                    "duration": 0.10309275000000184
                },
                {
                    "name": "D#5",
                    "midi": 75,
                    "time": 178.14427200000173,
                    "velocity": 0.7007874015748031,
                    "duration": 0.30927825000000553
                },
                {
                    "name": "B4",
                    "midi": 71,
                    "time": 178.14427200000173,
                    "velocity": 0.5905511811023622,
                    "duration": 0.30927825000000553
                },
                {
                    "name": "D#4",
                    "midi": 63,
                    "time": 178.14427200000173,
                    "velocity": 0.5905511811023622,
                    "duration": 0.30927825000000553
                },
                {
                    "name": "D#4",
                    "midi": 63,
                    "time": 178.45355025000174,
                    "velocity": 0.5669291338582677,
                    "duration": 0.09793811250000317
                },
                {
                    "name": "B4",
                    "midi": 71,
                    "time": 178.45355025000174,
                    "velocity": 0.5669291338582677,
                    "duration": 0.09793811250000317
                },
                {
                    "name": "D#5",
                    "midi": 75,
                    "time": 178.45355025000174,
                    "velocity": 0.6692913385826772,
                    "duration": 0.09793811250000317
                },
                {
                    "name": "D#4",
                    "midi": 63,
                    "time": 178.55664300000174,
                    "velocity": 0.5905511811023622,
                    "duration": 0.10309275000000184
                },
                {
                    "name": "B4",
                    "midi": 71,
                    "time": 178.55664300000174,
                    "velocity": 0.5905511811023622,
                    "duration": 0.10309275000000184
                },
                {
                    "name": "D#5",
                    "midi": 75,
                    "time": 178.55664300000174,
                    "velocity": 0.7007874015748031,
                    "duration": 0.10309275000000184
                },
                {
                    "name": "B4",
                    "midi": 71,
                    "time": 178.76282850000175,
                    "velocity": 0.5905511811023622,
                    "duration": 0.30927825000000553
                },
                {
                    "name": "E4",
                    "midi": 64,
                    "time": 178.76282850000175,
                    "velocity": 0.5905511811023622,
                    "duration": 0.30927825000000553
                },
                {
                    "name": "D5",
                    "midi": 74,
                    "time": 178.76282850000175,
                    "velocity": 0.5905511811023622,
                    "duration": 0.30927825000000553
                },
                {
                    "name": "E5",
                    "midi": 76,
                    "time": 178.76282850000175,
                    "velocity": 0.7007874015748031,
                    "duration": 0.30927825000000553
                },
                {
                    "name": "B4",
                    "midi": 71,
                    "time": 179.07210675000175,
                    "velocity": 0.5669291338582677,
                    "duration": 0.09793811250000317
                },
                {
                    "name": "E4",
                    "midi": 64,
                    "time": 179.07210675000175,
                    "velocity": 0.5669291338582677,
                    "duration": 0.09793811250000317
                },
                {
                    "name": "D5",
                    "midi": 74,
                    "time": 179.07210675000175,
                    "velocity": 0.5669291338582677,
                    "duration": 0.09793811250000317
                },
                {
                    "name": "E5",
                    "midi": 76,
                    "time": 179.07210675000175,
                    "velocity": 0.6692913385826772,
                    "duration": 0.09793811250000317
                },
                {
                    "name": "B4",
                    "midi": 71,
                    "time": 179.17519950000175,
                    "velocity": 0.5905511811023622,
                    "duration": 0.10309275000000184
                },
                {
                    "name": "E4",
                    "midi": 64,
                    "time": 179.17519950000175,
                    "velocity": 0.5905511811023622,
                    "duration": 0.10309275000000184
                },
                {
                    "name": "D5",
                    "midi": 74,
                    "time": 179.17519950000175,
                    "velocity": 0.5905511811023622,
                    "duration": 0.10309275000000184
                },
                {
                    "name": "E5",
                    "midi": 76,
                    "time": 179.17519950000175,
                    "velocity": 0.7007874015748031,
                    "duration": 0.10309275000000184
                },
                {
                    "name": "E4",
                    "midi": 64,
                    "time": 179.38138500000176,
                    "velocity": 0.5354330708661418,
                    "duration": 0.10309275000000184
                },
                {
                    "name": "B4",
                    "midi": 71,
                    "time": 179.38138500000176,
                    "velocity": 0.5354330708661418,
                    "duration": 0.10309275000000184
                },
                {
                    "name": "E5",
                    "midi": 76,
                    "time": 179.38138500000176,
                    "velocity": 0.6299212598425197,
                    "duration": 0.10309275000000184
                },
                {
                    "name": "C5",
                    "midi": 72,
                    "time": 179.48447775000176,
                    "velocity": 0.5748031496062992,
                    "duration": 0.10309275000000184
                },
                {
                    "name": "A4",
                    "midi": 69,
                    "time": 179.58757050000176,
                    "velocity": 0.5748031496062992,
                    "duration": 0.10309275000000184
                },
                {
                    "name": "E4",
                    "midi": 64,
                    "time": 179.69066325000176,
                    "velocity": 0.5748031496062992,
                    "duration": 0.10309275000000184
                },
                {
                    "name": "C4",
                    "midi": 60,
                    "time": 179.79375600000176,
                    "velocity": 0.6299212598425197,
                    "duration": 0.10309275000000184
                },
                {
                    "name": "A4",
                    "midi": 69,
                    "time": 179.99994150000177,
                    "velocity": 0.6614173228346457,
                    "duration": 0.10309275000000184
                },
                {
                    "name": "C5",
                    "midi": 72,
                    "time": 180.10303425000177,
                    "velocity": 0.5826771653543307,
                    "duration": 0.10309275000000184
                },
                {
                    "name": "E5",
                    "midi": 76,
                    "time": 180.20612700000177,
                    "velocity": 0.5984251968503937,
                    "duration": 0.10309275000000184
                },
                {
                    "name": "A5",
                    "midi": 81,
                    "time": 180.30921975000177,
                    "velocity": 0.6062992125984252,
                    "duration": 0.10309275000000184
                },
                {
                    "name": "C6",
                    "midi": 84,
                    "time": 180.41231250000178,
                    "velocity": 0.6535433070866141,
                    "duration": 0.10309275000000184
                },
                {
                    "name": "E5",
                    "midi": 76,
                    "time": 180.61849800000178,
                    "velocity": 0.7007874015748031,
                    "duration": 0.30927825000000553
                },
                {
                    "name": "C5",
                    "midi": 72,
                    "time": 180.61849800000178,
                    "velocity": 0.5905511811023622,
                    "duration": 0.30927825000000553
                },
                {
                    "name": "E4",
                    "midi": 64,
                    "time": 180.61849800000178,
                    "velocity": 0.5905511811023622,
                    "duration": 0.30927825000000553
                },
                {
                    "name": "E4",
                    "midi": 64,
                    "time": 180.92777625000178,
                    "velocity": 0.5669291338582677,
                    "duration": 0.09793811250000317
                },
                {
                    "name": "C5",
                    "midi": 72,
                    "time": 180.92777625000178,
                    "velocity": 0.5669291338582677,
                    "duration": 0.09793811250000317
                },
                {
                    "name": "E5",
                    "midi": 76,
                    "time": 180.92777625000178,
                    "velocity": 0.6692913385826772,
                    "duration": 0.09793811250000317
                },
                {
                    "name": "E4",
                    "midi": 64,
                    "time": 181.0308690000018,
                    "velocity": 0.5905511811023622,
                    "duration": 0.10309275000000184
                },
                {
                    "name": "C5",
                    "midi": 72,
                    "time": 181.0308690000018,
                    "velocity": 0.5905511811023622,
                    "duration": 0.10309275000000184
                },
                {
                    "name": "E5",
                    "midi": 76,
                    "time": 181.0308690000018,
                    "velocity": 0.7007874015748031,
                    "duration": 0.10309275000000184
                },
                {
                    "name": "C5",
                    "midi": 72,
                    "time": 181.2370545000018,
                    "velocity": 0.5905511811023622,
                    "duration": 0.30927825000000553
                },
                {
                    "name": "F4",
                    "midi": 65,
                    "time": 181.2370545000018,
                    "velocity": 0.5905511811023622,
                    "duration": 0.30927825000000553
                },
                {
                    "name": "D#5",
                    "midi": 75,
                    "time": 181.2370545000018,
                    "velocity": 0.5905511811023622,
                    "duration": 0.30927825000000553
                },
                {
                    "name": "F5",
                    "midi": 77,
                    "time": 181.2370545000018,
                    "velocity": 0.7007874015748031,
                    "duration": 0.30927825000000553
                },
                {
                    "name": "C5",
                    "midi": 72,
                    "time": 181.5463327500018,
                    "velocity": 0.5669291338582677,
                    "duration": 0.09793811250000317
                },
                {
                    "name": "F4",
                    "midi": 65,
                    "time": 181.5463327500018,
                    "velocity": 0.5669291338582677,
                    "duration": 0.09793811250000317
                },
                {
                    "name": "D#5",
                    "midi": 75,
                    "time": 181.5463327500018,
                    "velocity": 0.5669291338582677,
                    "duration": 0.09793811250000317
                },
                {
                    "name": "F5",
                    "midi": 77,
                    "time": 181.5463327500018,
                    "velocity": 0.6692913385826772,
                    "duration": 0.09793811250000317
                },
                {
                    "name": "C5",
                    "midi": 72,
                    "time": 181.6494255000018,
                    "velocity": 0.5905511811023622,
                    "duration": 0.10309275000000184
                },
                {
                    "name": "F4",
                    "midi": 65,
                    "time": 181.6494255000018,
                    "velocity": 0.5905511811023622,
                    "duration": 0.10309275000000184
                },
                {
                    "name": "D#5",
                    "midi": 75,
                    "time": 181.6494255000018,
                    "velocity": 0.5905511811023622,
                    "duration": 0.10309275000000184
                },
                {
                    "name": "F5",
                    "midi": 77,
                    "time": 181.6494255000018,
                    "velocity": 0.7007874015748031,
                    "duration": 0.10309275000000184
                },
                {
                    "name": "F4",
                    "midi": 65,
                    "time": 181.8556110000018,
                    "velocity": 0.5354330708661418,
                    "duration": 0.10309275000000184
                },
                {
                    "name": "C5",
                    "midi": 72,
                    "time": 181.8556110000018,
                    "velocity": 0.5354330708661418,
                    "duration": 0.10309275000000184
                },
                {
                    "name": "F5",
                    "midi": 77,
                    "time": 181.8556110000018,
                    "velocity": 0.6299212598425197,
                    "duration": 0.10309275000000184
                },
                {
                    "name": "C#5",
                    "midi": 73,
                    "time": 181.9587037500018,
                    "velocity": 0.5748031496062992,
                    "duration": 0.10309275000000184
                },
                {
                    "name": "A#4",
                    "midi": 70,
                    "time": 182.0617965000018,
                    "velocity": 0.5748031496062992,
                    "duration": 0.10309275000000184
                },
                {
                    "name": "F4",
                    "midi": 65,
                    "time": 182.1648892500018,
                    "velocity": 0.5748031496062992,
                    "duration": 0.10309275000000184
                },
                {
                    "name": "C#4",
                    "midi": 61,
                    "time": 182.2679820000018,
                    "velocity": 0.6299212598425197,
                    "duration": 0.10309275000000184
                },
                {
                    "name": "A#4",
                    "midi": 70,
                    "time": 182.4741675000018,
                    "velocity": 0.6614173228346457,
                    "duration": 0.10309275000000184
                },
                {
                    "name": "C#5",
                    "midi": 73,
                    "time": 182.5772602500018,
                    "velocity": 0.5905511811023622,
                    "duration": 0.10309275000000184
                },
                {
                    "name": "F5",
                    "midi": 77,
                    "time": 182.68035300000182,
                    "velocity": 0.5984251968503937,
                    "duration": 0.10309275000000184
                },
                {
                    "name": "A#5",
                    "midi": 82,
                    "time": 182.78344575000182,
                    "velocity": 0.6141732283464567,
                    "duration": 0.10309275000000184
                },
                {
                    "name": "C#6",
                    "midi": 85,
                    "time": 182.88653850000182,
                    "velocity": 0.6692913385826772,
                    "duration": 0.10309275000000184
                },
                {
                    "name": "E5",
                    "midi": 76,
                    "time": 183.09272400000182,
                    "velocity": 0.5905511811023622,
                    "duration": 0.30927825000000553
                },
                {
                    "name": "F#5",
                    "midi": 78,
                    "time": 183.09272400000182,
                    "velocity": 0.7007874015748031,
                    "duration": 0.30927825000000553
                },
                {
                    "name": "C#5",
                    "midi": 73,
                    "time": 183.09272400000182,
                    "velocity": 0.5905511811023622,
                    "duration": 0.30927825000000553
                },
                {
                    "name": "F#4",
                    "midi": 66,
                    "time": 183.09272400000182,
                    "velocity": 0.5905511811023622,
                    "duration": 0.30927825000000553
                },
                {
                    "name": "E5",
                    "midi": 76,
                    "time": 183.40200225000183,
                    "velocity": 0.5669291338582677,
                    "duration": 0.09793811250000317
                },
                {
                    "name": "F#4",
                    "midi": 66,
                    "time": 183.40200225000183,
                    "velocity": 0.5669291338582677,
                    "duration": 0.09793811250000317
                },
                {
                    "name": "C#5",
                    "midi": 73,
                    "time": 183.40200225000183,
                    "velocity": 0.5669291338582677,
                    "duration": 0.09793811250000317
                },
                {
                    "name": "F#5",
                    "midi": 78,
                    "time": 183.40200225000183,
                    "velocity": 0.6692913385826772,
                    "duration": 0.09793811250000317
                },
                {
                    "name": "E5",
                    "midi": 76,
                    "time": 183.50509500000183,
                    "velocity": 0.5905511811023622,
                    "duration": 0.10309275000000184
                },
                {
                    "name": "F#4",
                    "midi": 66,
                    "time": 183.50509500000183,
                    "velocity": 0.5905511811023622,
                    "duration": 0.10309275000000184
                },
                {
                    "name": "C#5",
                    "midi": 73,
                    "time": 183.50509500000183,
                    "velocity": 0.5905511811023622,
                    "duration": 0.10309275000000184
                },
                {
                    "name": "F#5",
                    "midi": 78,
                    "time": 183.50509500000183,
                    "velocity": 0.7007874015748031,
                    "duration": 0.10309275000000184
                },
                {
                    "name": "F#4",
                    "midi": 66,
                    "time": 183.71128050000183,
                    "velocity": 0.5354330708661418,
                    "duration": 0.10309275000000184
                },
                {
                    "name": "C#5",
                    "midi": 73,
                    "time": 183.71128050000183,
                    "velocity": 0.5354330708661418,
                    "duration": 0.10309275000000184
                },
                {
                    "name": "F#5",
                    "midi": 78,
                    "time": 183.71128050000183,
                    "velocity": 0.6299212598425197,
                    "duration": 0.10309275000000184
                },
                {
                    "name": "D5",
                    "midi": 74,
                    "time": 183.81437325000184,
                    "velocity": 0.5748031496062992,
                    "duration": 0.10309275000000184
                },
                {
                    "name": "B4",
                    "midi": 71,
                    "time": 183.91746600000184,
                    "velocity": 0.5748031496062992,
                    "duration": 0.10309275000000184
                },
                {
                    "name": "F#4",
                    "midi": 66,
                    "time": 184.02055875000184,
                    "velocity": 0.5748031496062992,
                    "duration": 0.10309275000000184
                },
                {
                    "name": "D4",
                    "midi": 62,
                    "time": 184.12365150000184,
                    "velocity": 0.6299212598425197,
                    "duration": 0.10309275000000184
                },
                {
                    "name": "F5",
                    "midi": 77,
                    "time": 184.32983700000185,
                    "velocity": 0.5905511811023622,
                    "duration": 0.30927825000000553
                },
                {
                    "name": "G5",
                    "midi": 79,
                    "time": 184.32983700000185,
                    "velocity": 0.7007874015748031,
                    "duration": 0.30927825000000553
                },
                {
                    "name": "D5",
                    "midi": 74,
                    "time": 184.32983700000185,
                    "velocity": 0.5905511811023622,
                    "duration": 0.30927825000000553
                },
                {
                    "name": "G4",
                    "midi": 67,
                    "time": 184.32983700000185,
                    "velocity": 0.5905511811023622,
                    "duration": 0.30927825000000553
                },
                {
                    "name": "F5",
                    "midi": 77,
                    "time": 184.63911525000185,
                    "velocity": 0.5669291338582677,
                    "duration": 0.09793811250000317
                },
                {
                    "name": "G4",
                    "midi": 67,
                    "time": 184.63911525000185,
                    "velocity": 0.5669291338582677,
                    "duration": 0.09793811250000317
                },
                {
                    "name": "D5",
                    "midi": 74,
                    "time": 184.63911525000185,
                    "velocity": 0.5669291338582677,
                    "duration": 0.09793811250000317
                },
                {
                    "name": "G5",
                    "midi": 79,
                    "time": 184.63911525000185,
                    "velocity": 0.6692913385826772,
                    "duration": 0.09793811250000317
                },
                {
                    "name": "F5",
                    "midi": 77,
                    "time": 184.74220800000185,
                    "velocity": 0.5905511811023622,
                    "duration": 0.10309275000000184
                },
                {
                    "name": "G4",
                    "midi": 67,
                    "time": 184.74220800000185,
                    "velocity": 0.5905511811023622,
                    "duration": 0.10309275000000184
                },
                {
                    "name": "D5",
                    "midi": 74,
                    "time": 184.74220800000185,
                    "velocity": 0.5905511811023622,
                    "duration": 0.10309275000000184
                },
                {
                    "name": "G5",
                    "midi": 79,
                    "time": 184.74220800000185,
                    "velocity": 0.7007874015748031,
                    "duration": 0.10309275000000184
                },
                {
                    "name": "G4",
                    "midi": 67,
                    "time": 184.94839350000186,
                    "velocity": 0.5354330708661418,
                    "duration": 0.10309275000000184
                },
                {
                    "name": "D5",
                    "midi": 74,
                    "time": 184.94839350000186,
                    "velocity": 0.5354330708661418,
                    "duration": 0.10309275000000184
                },
                {
                    "name": "G5",
                    "midi": 79,
                    "time": 184.94839350000186,
                    "velocity": 0.6299212598425197,
                    "duration": 0.10309275000000184
                },
                {
                    "name": "D#5",
                    "midi": 75,
                    "time": 185.05148625000186,
                    "velocity": 0.5748031496062992,
                    "duration": 0.10309275000000184
                },
                {
                    "name": "C5",
                    "midi": 72,
                    "time": 185.15457900000186,
                    "velocity": 0.5748031496062992,
                    "duration": 0.10309275000000184
                },
                {
                    "name": "G4",
                    "midi": 67,
                    "time": 185.25767175000186,
                    "velocity": 0.5748031496062992,
                    "duration": 0.10309275000000184
                },
                {
                    "name": "D#4",
                    "midi": 63,
                    "time": 185.36076450000186,
                    "velocity": 0.6299212598425197,
                    "duration": 0.10309275000000184
                },
                {
                    "name": "C5",
                    "midi": 72,
                    "time": 185.56695000000187,
                    "velocity": 0.3543307086614173,
                    "duration": 0.10309275000000184
                },
                {
                    "name": "G5",
                    "midi": 79,
                    "time": 185.56695000000187,
                    "velocity": 0.41732283464566927,
                    "duration": 0.10309275000000184
                },
                {
                    "name": "C6",
                    "midi": 84,
                    "time": 185.67004275000187,
                    "velocity": 0.4330708661417323,
                    "duration": 0.10309275000000184
                },
                {
                    "name": "C5",
                    "midi": 72,
                    "time": 185.77313550000187,
                    "velocity": 0.3700787401574803,
                    "duration": 0.10309275000000184
                },
                {
                    "name": "G5",
                    "midi": 79,
                    "time": 185.77313550000187,
                    "velocity": 0.4409448818897638,
                    "duration": 0.10309275000000184
                },
                {
                    "name": "C6",
                    "midi": 84,
                    "time": 185.87622825000187,
                    "velocity": 0.4566929133858268,
                    "duration": 0.10309275000000184
                },
                {
                    "name": "C5",
                    "midi": 72,
                    "time": 185.97932100000187,
                    "velocity": 0.3937007874015748,
                    "duration": 0.10309275000000184
                },
                {
                    "name": "G5",
                    "midi": 79,
                    "time": 185.97932100000187,
                    "velocity": 0.4645669291338583,
                    "duration": 0.10309275000000184
                },
                {
                    "name": "C6",
                    "midi": 84,
                    "time": 186.08241375000188,
                    "velocity": 0.47244094488188976,
                    "duration": 0.10309275000000184
                },
                {
                    "name": "C5",
                    "midi": 72,
                    "time": 186.18550650000188,
                    "velocity": 0.4015748031496063,
                    "duration": 0.10309275000000184
                },
                {
                    "name": "G5",
                    "midi": 79,
                    "time": 186.18550650000188,
                    "velocity": 0.48031496062992124,
                    "duration": 0.10309275000000184
                },
                {
                    "name": "C6",
                    "midi": 84,
                    "time": 186.28859925000188,
                    "velocity": 0.49606299212598426,
                    "duration": 0.10309275000000184
                },
                {
                    "name": "C5",
                    "midi": 72,
                    "time": 186.39169200000188,
                    "velocity": 0.4251968503937008,
                    "duration": 0.10309275000000184
                },
                {
                    "name": "G5",
                    "midi": 79,
                    "time": 186.39169200000188,
                    "velocity": 0.5039370078740157,
                    "duration": 0.10309275000000184
                },
                {
                    "name": "C6",
                    "midi": 84,
                    "time": 186.49478475000188,
                    "velocity": 0.5118110236220472,
                    "duration": 0.10309275000000184
                },
                {
                    "name": "C5",
                    "midi": 72,
                    "time": 186.59787750000189,
                    "velocity": 0.4409448818897638,
                    "duration": 0.10309275000000184
                },
                {
                    "name": "G5",
                    "midi": 79,
                    "time": 186.59787750000189,
                    "velocity": 0.5196850393700787,
                    "duration": 0.10309275000000184
                },
                {
                    "name": "C6",
                    "midi": 84,
                    "time": 186.7009702500019,
                    "velocity": 0.5275590551181102,
                    "duration": 0.10309275000000184
                },
                {
                    "name": "C5",
                    "midi": 72,
                    "time": 186.8040630000019,
                    "velocity": 0.4566929133858268,
                    "duration": 0.10309275000000184
                },
                {
                    "name": "F#5",
                    "midi": 78,
                    "time": 186.8040630000019,
                    "velocity": 0.5433070866141733,
                    "duration": 0.10309275000000184
                },
                {
                    "name": "C6",
                    "midi": 84,
                    "time": 186.9071557500019,
                    "velocity": 0.5590551181102362,
                    "duration": 0.10309275000000184
                },
                {
                    "name": "C5",
                    "midi": 72,
                    "time": 187.0102485000019,
                    "velocity": 0.48031496062992124,
                    "duration": 0.10309275000000184
                },
                {
                    "name": "F#5",
                    "midi": 78,
                    "time": 187.0102485000019,
                    "velocity": 0.5669291338582677,
                    "duration": 0.10309275000000184
                },
                {
                    "name": "C6",
                    "midi": 84,
                    "time": 187.1133412500019,
                    "velocity": 0.5826771653543307,
                    "duration": 0.10309275000000184
                },
                {
                    "name": "C5",
                    "midi": 72,
                    "time": 187.2164340000019,
                    "velocity": 0.5039370078740157,
                    "duration": 0.10309275000000184
                },
                {
                    "name": "F#5",
                    "midi": 78,
                    "time": 187.2164340000019,
                    "velocity": 0.5984251968503937,
                    "duration": 0.10309275000000184
                },
                {
                    "name": "C6",
                    "midi": 84,
                    "time": 187.3195267500019,
                    "velocity": 0.6062992125984252,
                    "duration": 0.10309275000000184
                },
                {
                    "name": "F#5",
                    "midi": 78,
                    "time": 187.4226195000019,
                    "velocity": 0.6220472440944882,
                    "duration": 0.10309275000000184
                },
                {
                    "name": "C5",
                    "midi": 72,
                    "time": 187.4226195000019,
                    "velocity": 0.5196850393700787,
                    "duration": 0.10309275000000184
                },
                {
                    "name": "C6",
                    "midi": 84,
                    "time": 187.5257122500019,
                    "velocity": 0.6377952755905512,
                    "duration": 0.10309275000000184
                },
                {
                    "name": "C5",
                    "midi": 72,
                    "time": 187.6288050000019,
                    "velocity": 0.5511811023622047,
                    "duration": 0.10309275000000184
                },
                {
                    "name": "F#5",
                    "midi": 78,
                    "time": 187.6288050000019,
                    "velocity": 0.6456692913385826,
                    "duration": 0.10309275000000184
                },
                {
                    "name": "C6",
                    "midi": 84,
                    "time": 187.7318977500019,
                    "velocity": 0.6614173228346457,
                    "duration": 0.10309275000000184
                },
                {
                    "name": "F#5",
                    "midi": 78,
                    "time": 187.8349905000019,
                    "velocity": 0.6692913385826772,
                    "duration": 0.10309275000000184
                },
                {
                    "name": "C5",
                    "midi": 72,
                    "time": 187.8349905000019,
                    "velocity": 0.5669291338582677,
                    "duration": 0.10309275000000184
                },
                {
                    "name": "C6",
                    "midi": 84,
                    "time": 187.9380832500019,
                    "velocity": 0.6850393700787402,
                    "duration": 0.10309275000000184
                },
                {
                    "name": "F#5",
                    "midi": 78,
                    "time": 188.0411760000019,
                    "velocity": 0.6377952755905512,
                    "duration": 0.20618550000000369
                },
                {
                    "name": "C6",
                    "midi": 84,
                    "time": 188.0411760000019,
                    "velocity": 0.7480314960629921,
                    "duration": 0.20618550000000369
                },
                {
                    "name": "C5",
                    "midi": 72,
                    "time": 188.0411760000019,
                    "velocity": 0.6377952755905512,
                    "duration": 0.20618550000000369
                },
                {
                    "name": "D5",
                    "midi": 74,
                    "time": 188.24736150000192,
                    "velocity": 0.5669291338582677,
                    "duration": 0.10309275000000184
                },
                {
                    "name": "F#5",
                    "midi": 78,
                    "time": 188.24736150000192,
                    "velocity": 0.5669291338582677,
                    "duration": 0.10309275000000184
                },
                {
                    "name": "C6",
                    "midi": 84,
                    "time": 188.24736150000192,
                    "velocity": 0.5669291338582677,
                    "duration": 0.10309275000000184
                },
                {
                    "name": "D6",
                    "midi": 86,
                    "time": 188.24736150000192,
                    "velocity": 0.6692913385826772,
                    "duration": 0.10309275000000184
                },
                {
                    "name": "F#5",
                    "midi": 78,
                    "time": 188.45354700000192,
                    "velocity": 0.5669291338582677,
                    "duration": 0.10309275000000184
                },
                {
                    "name": "C6",
                    "midi": 84,
                    "time": 188.45354700000192,
                    "velocity": 0.5669291338582677,
                    "duration": 0.10309275000000184
                },
                {
                    "name": "D6",
                    "midi": 86,
                    "time": 188.45354700000192,
                    "velocity": 0.6692913385826772,
                    "duration": 0.10309275000000184
                },
                {
                    "name": "D5",
                    "midi": 74,
                    "time": 188.45354700000192,
                    "velocity": 0.5669291338582677,
                    "duration": 0.10309275000000184
                },
                {
                    "name": "D5",
                    "midi": 74,
                    "time": 188.65973250000192,
                    "velocity": 0.6220472440944882,
                    "duration": 0.10309275000000184
                },
                {
                    "name": "F#5",
                    "midi": 78,
                    "time": 188.65973250000192,
                    "velocity": 0.6220472440944882,
                    "duration": 0.10309275000000184
                },
                {
                    "name": "C6",
                    "midi": 84,
                    "time": 188.65973250000192,
                    "velocity": 0.6220472440944882,
                    "duration": 0.10309275000000184
                },
                {
                    "name": "D6",
                    "midi": 86,
                    "time": 188.65973250000192,
                    "velocity": 0.7322834645669292,
                    "duration": 0.10309275000000184
                },
                {
                    "name": "F#5",
                    "midi": 78,
                    "time": 188.86591800000193,
                    "velocity": 0.5669291338582677,
                    "duration": 0.10309275000000184
                },
                {
                    "name": "C6",
                    "midi": 84,
                    "time": 188.86591800000193,
                    "velocity": 0.5669291338582677,
                    "duration": 0.10309275000000184
                },
                {
                    "name": "D5",
                    "midi": 74,
                    "time": 188.86591800000193,
                    "velocity": 0.5669291338582677,
                    "duration": 0.10309275000000184
                },
                {
                    "name": "D6",
                    "midi": 86,
                    "time": 188.86591800000193,
                    "velocity": 0.6692913385826772,
                    "duration": 0.10309275000000184
                },
                {
                    "name": "D5",
                    "midi": 74,
                    "time": 189.07210350000193,
                    "velocity": 0.5669291338582677,
                    "duration": 0.10309275000000184
                },
                {
                    "name": "F#5",
                    "midi": 78,
                    "time": 189.07210350000193,
                    "velocity": 0.5669291338582677,
                    "duration": 0.10309275000000184
                },
                {
                    "name": "D6",
                    "midi": 86,
                    "time": 189.07210350000193,
                    "velocity": 0.6692913385826772,
                    "duration": 0.10309275000000184
                },
                {
                    "name": "C6",
                    "midi": 84,
                    "time": 189.07210350000193,
                    "velocity": 0.5669291338582677,
                    "duration": 0.10309275000000184
                },
                {
                    "name": "D5",
                    "midi": 74,
                    "time": 189.27828900000193,
                    "velocity": 0.5669291338582677,
                    "duration": 0.20618550000000369
                },
                {
                    "name": "G5",
                    "midi": 79,
                    "time": 189.27828900000193,
                    "velocity": 0.5669291338582677,
                    "duration": 0.20618550000000369
                },
                {
                    "name": "B5",
                    "midi": 83,
                    "time": 189.27828900000193,
                    "velocity": 0.5669291338582677,
                    "duration": 0.20618550000000369
                },
                {
                    "name": "D6",
                    "midi": 86,
                    "time": 189.27828900000193,
                    "velocity": 0.6692913385826772,
                    "duration": 0.20618550000000369
                },
                {
                    "name": "G6",
                    "midi": 91,
                    "time": 189.48447450000194,
                    "velocity": 0.6692913385826772,
                    "duration": 0.10309275000000184
                },
                {
                    "name": "B5",
                    "midi": 83,
                    "time": 189.48447450000194,
                    "velocity": 0.5669291338582677,
                    "duration": 0.10309275000000184
                },
                {
                    "name": "G5",
                    "midi": 79,
                    "time": 189.48447450000194,
                    "velocity": 0.5669291338582677,
                    "duration": 0.10309275000000184
                },
                {
                    "name": "D6",
                    "midi": 86,
                    "time": 189.48447450000194,
                    "velocity": 0.5669291338582677,
                    "duration": 0.10309275000000184
                },
                {
                    "name": "G4",
                    "midi": 67,
                    "time": 189.89684550000194,
                    "velocity": 0.5669291338582677,
                    "duration": 0.20618550000000369
                },
                {
                    "name": "D4",
                    "midi": 62,
                    "time": 189.89684550000194,
                    "velocity": 0.5669291338582677,
                    "duration": 0.20618550000000369
                },
                {
                    "name": "B4",
                    "midi": 71,
                    "time": 189.89684550000194,
                    "velocity": 0.5669291338582677,
                    "duration": 0.20618550000000369
                },
                {
                    "name": "D5",
                    "midi": 74,
                    "time": 189.89684550000194,
                    "velocity": 0.6692913385826772,
                    "duration": 0.20618550000000369
                },
                {
                    "name": "G5",
                    "midi": 79,
                    "time": 190.10303100000195,
                    "velocity": 0.6692913385826772,
                    "duration": 0.10309275000000184
                },
                {
                    "name": "D5",
                    "midi": 74,
                    "time": 190.10303100000195,
                    "velocity": 0.5669291338582677,
                    "duration": 0.10309275000000184
                },
                {
                    "name": "G4",
                    "midi": 67,
                    "time": 190.10303100000195,
                    "velocity": 0.5669291338582677,
                    "duration": 0.10309275000000184
                },
                {
                    "name": "B4",
                    "midi": 71,
                    "time": 190.10303100000195,
                    "velocity": 0.5669291338582677,
                    "duration": 0.10309275000000184
                },
                {
                    "name": "B4",
                    "midi": 71,
                    "time": 190.51540200000196,
                    "velocity": 0.5669291338582677,
                    "duration": 0.20618550000000369
                },
                {
                    "name": "G#4",
                    "midi": 68,
                    "time": 190.51540200000196,
                    "velocity": 0.5669291338582677,
                    "duration": 0.20618550000000369
                },
                {
                    "name": "D5",
                    "midi": 74,
                    "time": 190.51540200000196,
                    "velocity": 0.5669291338582677,
                    "duration": 0.20618550000000369
                },
                {
                    "name": "G#5",
                    "midi": 80,
                    "time": 190.51540200000196,
                    "velocity": 0.6692913385826772,
                    "duration": 0.20618550000000369
                },
                {
                    "name": "B5",
                    "midi": 83,
                    "time": 190.72158750000196,
                    "velocity": 0.6692913385826772,
                    "duration": 0.10309275000000184
                },
                {
                    "name": "G#5",
                    "midi": 80,
                    "time": 190.72158750000196,
                    "velocity": 0.5669291338582677,
                    "duration": 0.10309275000000184
                },
                {
                    "name": "B4",
                    "midi": 71,
                    "time": 190.72158750000196,
                    "velocity": 0.5669291338582677,
                    "duration": 0.10309275000000184
                },
                {
                    "name": "D5",
                    "midi": 74,
                    "time": 190.72158750000196,
                    "velocity": 0.5669291338582677,
                    "duration": 0.10309275000000184
                },
                {
                    "name": "C5",
                    "midi": 72,
                    "time": 191.13395850000197,
                    "velocity": 0.5748031496062992,
                    "duration": 0.20618550000000369
                },
                {
                    "name": "A4",
                    "midi": 69,
                    "time": 191.13395850000197,
                    "velocity": 0.5748031496062992,
                    "duration": 0.20618550000000369
                },
                {
                    "name": "E5",
                    "midi": 76,
                    "time": 191.13395850000197,
                    "velocity": 0.5748031496062992,
                    "duration": 0.20618550000000369
                },
                {
                    "name": "A5",
                    "midi": 81,
                    "time": 191.13395850000197,
                    "velocity": 0.6771653543307087,
                    "duration": 0.20618550000000369
                },
                {
                    "name": "C6",
                    "midi": 84,
                    "time": 191.34014400000197,
                    "velocity": 0.6771653543307087,
                    "duration": 0.10309275000000184
                },
                {
                    "name": "A5",
                    "midi": 81,
                    "time": 191.34014400000197,
                    "velocity": 0.5748031496062992,
                    "duration": 0.10309275000000184
                },
                {
                    "name": "C5",
                    "midi": 72,
                    "time": 191.34014400000197,
                    "velocity": 0.5748031496062992,
                    "duration": 0.10309275000000184
                },
                {
                    "name": "E5",
                    "midi": 76,
                    "time": 191.34014400000197,
                    "velocity": 0.5748031496062992,
                    "duration": 0.10309275000000184
                },
                {
                    "name": "A5",
                    "midi": 81,
                    "time": 191.75251500000198,
                    "velocity": 0.6850393700787402,
                    "duration": 0.20618550000000369
                },
                {
                    "name": "C5",
                    "midi": 72,
                    "time": 191.75251500000198,
                    "velocity": 0.5826771653543307,
                    "duration": 0.20618550000000369
                },
                {
                    "name": "A4",
                    "midi": 69,
                    "time": 191.75251500000198,
                    "velocity": 0.5826771653543307,
                    "duration": 0.20618550000000369
                },
                {
                    "name": "E5",
                    "midi": 76,
                    "time": 191.75251500000198,
                    "velocity": 0.5826771653543307,
                    "duration": 0.20618550000000369
                },
                {
                    "name": "C6",
                    "midi": 84,
                    "time": 191.95870050000198,
                    "velocity": 0.6929133858267716,
                    "duration": 0.10309275000000184
                },
                {
                    "name": "A5",
                    "midi": 81,
                    "time": 191.95870050000198,
                    "velocity": 0.5826771653543307,
                    "duration": 0.10309275000000184
                },
                {
                    "name": "C5",
                    "midi": 72,
                    "time": 191.95870050000198,
                    "velocity": 0.5826771653543307,
                    "duration": 0.10309275000000184
                },
                {
                    "name": "E5",
                    "midi": 76,
                    "time": 191.95870050000198,
                    "velocity": 0.5826771653543307,
                    "duration": 0.10309275000000184
                },
                {
                    "name": "C#5",
                    "midi": 73,
                    "time": 192.371071500002,
                    "velocity": 0.5905511811023622,
                    "duration": 0.20618550000000369
                },
                {
                    "name": "E5",
                    "midi": 76,
                    "time": 192.371071500002,
                    "velocity": 0.5905511811023622,
                    "duration": 0.20618550000000369
                },
                {
                    "name": "A#5",
                    "midi": 82,
                    "time": 192.371071500002,
                    "velocity": 0.7007874015748031,
                    "duration": 0.20618550000000369
                },
                {
                    "name": "A#4",
                    "midi": 70,
                    "time": 192.371071500002,
                    "velocity": 0.5905511811023622,
                    "duration": 0.20618550000000369
                },
                {
                    "name": "C#6",
                    "midi": 85,
                    "time": 192.577257000002,
                    "velocity": 0.7007874015748031,
                    "duration": 0.10309275000000184
                },
                {
                    "name": "A#5",
                    "midi": 82,
                    "time": 192.577257000002,
                    "velocity": 0.5905511811023622,
                    "duration": 0.10309275000000184
                },
                {
                    "name": "C#5",
                    "midi": 73,
                    "time": 192.577257000002,
                    "velocity": 0.5905511811023622,
                    "duration": 0.10309275000000184
                },
                {
                    "name": "E5",
                    "midi": 76,
                    "time": 192.577257000002,
                    "velocity": 0.5905511811023622,
                    "duration": 0.10309275000000184
                },
                {
                    "name": "D5",
                    "midi": 74,
                    "time": 192.989628000002,
                    "velocity": 0.5984251968503937,
                    "duration": 0.20618550000000369
                },
                {
                    "name": "B4",
                    "midi": 71,
                    "time": 192.989628000002,
                    "velocity": 0.5984251968503937,
                    "duration": 0.20618550000000369
                },
                {
                    "name": "F#5",
                    "midi": 78,
                    "time": 192.989628000002,
                    "velocity": 0.5984251968503937,
                    "duration": 0.20618550000000369
                },
                {
                    "name": "B5",
                    "midi": 83,
                    "time": 192.989628000002,
                    "velocity": 0.7086614173228346,
                    "duration": 0.20618550000000369
                },
                {
                    "name": "B5",
                    "midi": 83,
                    "time": 193.195813500002,
                    "velocity": 0.5984251968503937,
                    "duration": 0.10309275000000184
                },
                {
                    "name": "D5",
                    "midi": 74,
                    "time": 193.195813500002,
                    "velocity": 0.5984251968503937,
                    "duration": 0.10309275000000184
                },
                {
                    "name": "F#5",
                    "midi": 78,
                    "time": 193.195813500002,
                    "velocity": 0.5984251968503937,
                    "duration": 0.10309275000000184
                },
                {
                    "name": "D6",
                    "midi": 86,
                    "time": 193.195813500002,
                    "velocity": 0.7086614173228346,
                    "duration": 0.10309275000000184
                },
                {
                    "name": "D5",
                    "midi": 74,
                    "time": 193.608184500002,
                    "velocity": 0.6062992125984252,
                    "duration": 0.20618550000000369
                },
                {
                    "name": "B4",
                    "midi": 71,
                    "time": 193.608184500002,
                    "velocity": 0.6062992125984252,
                    "duration": 0.20618550000000369
                },
                {
                    "name": "B5",
                    "midi": 83,
                    "time": 193.608184500002,
                    "velocity": 0.7086614173228346,
                    "duration": 0.20618550000000369
                },
                {
                    "name": "F#5",
                    "midi": 78,
                    "time": 193.608184500002,
                    "velocity": 0.6062992125984252,
                    "duration": 0.20618550000000369
                },
                {
                    "name": "D6",
                    "midi": 86,
                    "time": 193.81437000000201,
                    "velocity": 0.7086614173228346,
                    "duration": 0.10309275000000184
                },
                {
                    "name": "B5",
                    "midi": 83,
                    "time": 193.81437000000201,
                    "velocity": 0.6062992125984252,
                    "duration": 0.10309275000000184
                },
                {
                    "name": "D5",
                    "midi": 74,
                    "time": 193.81437000000201,
                    "velocity": 0.6062992125984252,
                    "duration": 0.10309275000000184
                },
                {
                    "name": "F#5",
                    "midi": 78,
                    "time": 193.81437000000201,
                    "velocity": 0.6062992125984252,
                    "duration": 0.10309275000000184
                },
                {
                    "name": "D#5",
                    "midi": 75,
                    "time": 194.22674100000202,
                    "velocity": 0.6062992125984252,
                    "duration": 0.20618550000000369
                },
                {
                    "name": "F#5",
                    "midi": 78,
                    "time": 194.22674100000202,
                    "velocity": 0.6062992125984252,
                    "duration": 0.20618550000000369
                },
                {
                    "name": "C5",
                    "midi": 72,
                    "time": 194.22674100000202,
                    "velocity": 0.6062992125984252,
                    "duration": 0.20618550000000369
                },
                {
                    "name": "C6",
                    "midi": 84,
                    "time": 194.22674100000202,
                    "velocity": 0.7165354330708661,
                    "duration": 0.20618550000000369
                },
                {
                    "name": "D#5",
                    "midi": 75,
                    "time": 194.43292650000203,
                    "velocity": 0.6141732283464567,
                    "duration": 0.10309275000000184
                },
                {
                    "name": "F#5",
                    "midi": 78,
                    "time": 194.43292650000203,
                    "velocity": 0.6141732283464567,
                    "duration": 0.10309275000000184
                },
                {
                    "name": "C6",
                    "midi": 84,
                    "time": 194.43292650000203,
                    "velocity": 0.6141732283464567,
                    "duration": 0.10309275000000184
                },
                {
                    "name": "D#6",
                    "midi": 87,
                    "time": 194.43292650000203,
                    "velocity": 0.7244094488188977,
                    "duration": 0.10309275000000184
                },
                {
                    "name": "C#5",
                    "midi": 73,
                    "time": 194.84529750000203,
                    "velocity": 0.6220472440944882,
                    "duration": 0.20618550000000369
                },
                {
                    "name": "G#5",
                    "midi": 80,
                    "time": 194.84529750000203,
                    "velocity": 0.6220472440944882,
                    "duration": 0.20618550000000369
                },
                {
                    "name": "E5",
                    "midi": 76,
                    "time": 194.84529750000203,
                    "velocity": 0.6220472440944882,
                    "duration": 0.20618550000000369
                },
                {
                    "name": "C#6",
                    "midi": 85,
                    "time": 194.84529750000203,
                    "velocity": 0.7322834645669292,
                    "duration": 0.20618550000000369
                },
                {
                    "name": "E6",
                    "midi": 88,
                    "time": 195.05148300000204,
                    "velocity": 0.7322834645669292,
                    "duration": 0.10309275000000184
                },
                {
                    "name": "C#6",
                    "midi": 85,
                    "time": 195.05148300000204,
                    "velocity": 0.6220472440944882,
                    "duration": 0.10309275000000184
                },
                {
                    "name": "E5",
                    "midi": 76,
                    "time": 195.05148300000204,
                    "velocity": 0.6220472440944882,
                    "duration": 0.10309275000000184
                },
                {
                    "name": "G#5",
                    "midi": 80,
                    "time": 195.05148300000204,
                    "velocity": 0.6220472440944882,
                    "duration": 0.10309275000000184
                },
                {
                    "name": "E5",
                    "midi": 76,
                    "time": 195.46385400000204,
                    "velocity": 0.6220472440944882,
                    "duration": 0.20618550000000369
                },
                {
                    "name": "C#6",
                    "midi": 85,
                    "time": 195.46385400000204,
                    "velocity": 0.7401574803149606,
                    "duration": 0.20618550000000369
                },
                {
                    "name": "G#5",
                    "midi": 80,
                    "time": 195.46385400000204,
                    "velocity": 0.6220472440944882,
                    "duration": 0.20618550000000369
                },
                {
                    "name": "C#5",
                    "midi": 73,
                    "time": 195.46385400000204,
                    "velocity": 0.6220472440944882,
                    "duration": 0.20618550000000369
                },
                {
                    "name": "C#6",
                    "midi": 85,
                    "time": 195.67003950000205,
                    "velocity": 0.6220472440944882,
                    "duration": 0.10309275000000184
                },
                {
                    "name": "E5",
                    "midi": 76,
                    "time": 195.67003950000205,
                    "velocity": 0.6220472440944882,
                    "duration": 0.10309275000000184
                },
                {
                    "name": "G#5",
                    "midi": 80,
                    "time": 195.67003950000205,
                    "velocity": 0.6220472440944882,
                    "duration": 0.10309275000000184
                },
                {
                    "name": "E6",
                    "midi": 88,
                    "time": 195.67003950000205,
                    "velocity": 0.7401574803149606,
                    "duration": 0.10309275000000184
                },
                {
                    "name": "E5",
                    "midi": 76,
                    "time": 196.08241050000206,
                    "velocity": 0.6299212598425197,
                    "duration": 0.20618550000000369
                },
                {
                    "name": "C#5",
                    "midi": 73,
                    "time": 196.08241050000206,
                    "velocity": 0.6299212598425197,
                    "duration": 0.20618550000000369
                },
                {
                    "name": "C#6",
                    "midi": 85,
                    "time": 196.08241050000206,
                    "velocity": 0.7480314960629921,
                    "duration": 0.20618550000000369
                },
                {
                    "name": "A5",
                    "midi": 81,
                    "time": 196.08241050000206,
                    "velocity": 0.6299212598425197,
                    "duration": 0.20618550000000369
                },
                {
                    "name": "E6",
                    "midi": 88,
                    "time": 196.28859600000206,
                    "velocity": 0.7480314960629921,
                    "duration": 0.10309275000000184
                },
                {
                    "name": "C#6",
                    "midi": 85,
                    "time": 196.28859600000206,
                    "velocity": 0.6299212598425197,
                    "duration": 0.10309275000000184
                },
                {
                    "name": "A5",
                    "midi": 81,
                    "time": 196.28859600000206,
                    "velocity": 0.6299212598425197,
                    "duration": 0.10309275000000184
                },
                {
                    "name": "E5",
                    "midi": 76,
                    "time": 196.28859600000206,
                    "velocity": 0.6299212598425197,
                    "duration": 0.10309275000000184
                },
                {
                    "name": "A5",
                    "midi": 81,
                    "time": 196.70096700000207,
                    "velocity": 0.6377952755905512,
                    "duration": 0.20618550000000369
                },
                {
                    "name": "D6",
                    "midi": 86,
                    "time": 196.70096700000207,
                    "velocity": 0.7559055118110236,
                    "duration": 0.20618550000000369
                },
                {
                    "name": "D5",
                    "midi": 74,
                    "time": 196.70096700000207,
                    "velocity": 0.6377952755905512,
                    "duration": 0.20618550000000369
                },
                {
                    "name": "F5",
                    "midi": 77,
                    "time": 196.70096700000207,
                    "velocity": 0.6377952755905512,
                    "duration": 0.20618550000000369
                },
                {
                    "name": "F6",
                    "midi": 89,
                    "time": 196.90715250000207,
                    "velocity": 0.7559055118110236,
                    "duration": 0.10309275000000184
                },
                {
                    "name": "A5",
                    "midi": 81,
                    "time": 196.90715250000207,
                    "velocity": 0.6456692913385826,
                    "duration": 0.10309275000000184
                },
                {
                    "name": "D6",
                    "midi": 86,
                    "time": 196.90715250000207,
                    "velocity": 0.6456692913385826,
                    "duration": 0.10309275000000184
                },
                {
                    "name": "F5",
                    "midi": 77,
                    "time": 196.90715250000207,
                    "velocity": 0.6456692913385826,
                    "duration": 0.10309275000000184
                },
                {
                    "name": "C6",
                    "midi": 84,
                    "time": 197.31952350000208,
                    "velocity": 0.4881889763779528,
                    "duration": 0.06872849999999175
                },
                {
                    "name": "A5",
                    "midi": 81,
                    "time": 197.31952350000208,
                    "velocity": 0.4881889763779528,
                    "duration": 0.06872849999999175
                },
                {
                    "name": "F#5",
                    "midi": 78,
                    "time": 197.31952350000208,
                    "velocity": 0.4881889763779528,
                    "duration": 0.06872849999999175
                },
                {
                    "name": "F#6",
                    "midi": 90,
                    "time": 197.31952350000208,
                    "velocity": 0.5826771653543307,
                    "duration": 0.06872849999999175
                },
                {
                    "name": "D#6",
                    "midi": 87,
                    "time": 197.38825200000207,
                    "velocity": 0.5275590551181102,
                    "duration": 0.06872849999999175
                },
                {
                    "name": "C6",
                    "midi": 84,
                    "time": 197.45698050000206,
                    "velocity": 0.5196850393700787,
                    "duration": 0.06872849999999175
                },
                {
                    "name": "A5",
                    "midi": 81,
                    "time": 197.52570900000205,
                    "velocity": 0.5118110236220472,
                    "duration": 0.06872849999999175
                },
                {
                    "name": "F#5",
                    "midi": 78,
                    "time": 197.59443750000204,
                    "velocity": 0.5118110236220472,
                    "duration": 0.06872849999999175
                },
                {
                    "name": "D#5",
                    "midi": 75,
                    "time": 197.66316600000204,
                    "velocity": 0.5039370078740157,
                    "duration": 0.06872849999999175
                },
                {
                    "name": "C5",
                    "midi": 72,
                    "time": 197.73189450000203,
                    "velocity": 0.49606299212598426,
                    "duration": 0.06872849999999175
                },
                {
                    "name": "A4",
                    "midi": 69,
                    "time": 197.80062300000202,
                    "velocity": 0.49606299212598426,
                    "duration": 0.06872849999999175
                },
                {
                    "name": "F#4",
                    "midi": 66,
                    "time": 197.869351500002,
                    "velocity": 0.49606299212598426,
                    "duration": 0.06872849999999175
                },
                {
                    "name": "D#4",
                    "midi": 63,
                    "time": 197.938080000002,
                    "velocity": 0.49606299212598426,
                    "duration": 0.06872849999999175
                },
                {
                    "name": "F#4",
                    "midi": 66,
                    "time": 198.006808500002,
                    "velocity": 0.4881889763779528,
                    "duration": 0.06872849999999175
                },
                {
                    "name": "A4",
                    "midi": 69,
                    "time": 198.075537000002,
                    "velocity": 0.49606299212598426,
                    "duration": 0.06872849999999175
                },
                {
                    "name": "C5",
                    "midi": 72,
                    "time": 198.14426550000198,
                    "velocity": 0.49606299212598426,
                    "duration": 0.06872849999999175
                },
                {
                    "name": "D#5",
                    "midi": 75,
                    "time": 198.21299400000197,
                    "velocity": 0.5039370078740157,
                    "duration": 0.06872849999999175
                },
                {
                    "name": "F#5",
                    "midi": 78,
                    "time": 198.28172250000196,
                    "velocity": 0.5118110236220472,
                    "duration": 0.06872849999999175
                },
                {
                    "name": "A5",
                    "midi": 81,
                    "time": 198.35045100000195,
                    "velocity": 0.5196850393700787,
                    "duration": 0.06872849999999175
                },
                {
                    "name": "C6",
                    "midi": 84,
                    "time": 198.41917950000195,
                    "velocity": 0.5275590551181102,
                    "duration": 0.06872849999999175
                },
                {
                    "name": "D#6",
                    "midi": 87,
                    "time": 198.48790800000194,
                    "velocity": 0.5511811023622047,
                    "duration": 0.06872849999999175
                },
                {
                    "name": "F#6",
                    "midi": 90,
                    "time": 198.55663650000193,
                    "velocity": 0.5826771653543307,
                    "duration": 0.06872849999999175
                },
                {
                    "name": "D#6",
                    "midi": 87,
                    "time": 198.62536500000192,
                    "velocity": 0.5275590551181102,
                    "duration": 0.06872849999999175
                },
                {
                    "name": "C6",
                    "midi": 84,
                    "time": 198.6940935000019,
                    "velocity": 0.5196850393700787,
                    "duration": 0.06872849999999175
                },
                {
                    "name": "A5",
                    "midi": 81,
                    "time": 198.7628220000019,
                    "velocity": 0.5118110236220472,
                    "duration": 0.06872849999999175
                },
                {
                    "name": "F#5",
                    "midi": 78,
                    "time": 198.8315505000019,
                    "velocity": 0.5118110236220472,
                    "duration": 0.06872849999999175
                },
                {
                    "name": "D#5",
                    "midi": 75,
                    "time": 198.9002790000019,
                    "velocity": 0.5039370078740157,
                    "duration": 0.06872849999999175
                },
                {
                    "name": "C5",
                    "midi": 72,
                    "time": 198.96900750000188,
                    "velocity": 0.49606299212598426,
                    "duration": 0.06872849999999175
                },
                {
                    "name": "A4",
                    "midi": 69,
                    "time": 199.03773600000187,
                    "velocity": 0.49606299212598426,
                    "duration": 0.06872849999999175
                },
                {
                    "name": "F#4",
                    "midi": 66,
                    "time": 199.10646450000186,
                    "velocity": 0.49606299212598426,
                    "duration": 0.06872849999999175
                },
                {
                    "name": "D#4",
                    "midi": 63,
                    "time": 199.17519300000185,
                    "velocity": 0.49606299212598426,
                    "duration": 0.06872849999999175
                },
                {
                    "name": "F#4",
                    "midi": 66,
                    "time": 199.24392150000185,
                    "velocity": 0.4881889763779528,
                    "duration": 0.06872849999999175
                },
                {
                    "name": "A4",
                    "midi": 69,
                    "time": 199.31265000000184,
                    "velocity": 0.49606299212598426,
                    "duration": 0.06872849999999175
                },
                {
                    "name": "C5",
                    "midi": 72,
                    "time": 199.38137850000183,
                    "velocity": 0.49606299212598426,
                    "duration": 0.06872849999999175
                },
                {
                    "name": "D#5",
                    "midi": 75,
                    "time": 199.45010700000182,
                    "velocity": 0.5039370078740157,
                    "duration": 0.06872849999999175
                },
                {
                    "name": "F#5",
                    "midi": 78,
                    "time": 199.5188355000018,
                    "velocity": 0.5118110236220472,
                    "duration": 0.06872849999999175
                },
                {
                    "name": "A5",
                    "midi": 81,
                    "time": 199.5875640000018,
                    "velocity": 0.5196850393700787,
                    "duration": 0.06872849999999175
                },
                {
                    "name": "C6",
                    "midi": 84,
                    "time": 199.6562925000018,
                    "velocity": 0.5275590551181102,
                    "duration": 0.06872849999999175
                },
                {
                    "name": "D#6",
                    "midi": 87,
                    "time": 199.7250210000018,
                    "velocity": 0.5511811023622047,
                    "duration": 0.06872849999999175
                },
                {
                    "name": "F#6",
                    "midi": 90,
                    "time": 199.79374950000178,
                    "velocity": 0.5826771653543307,
                    "duration": 0.06872849999999175
                },
                {
                    "name": "D#6",
                    "midi": 87,
                    "time": 199.86247800000177,
                    "velocity": 0.5275590551181102,
                    "duration": 0.06872849999999175
                },
                {
                    "name": "A#5",
                    "midi": 82,
                    "time": 199.93120650000176,
                    "velocity": 0.5196850393700787,
                    "duration": 0.06872849999999175
                },
                {
                    "name": "F#5",
                    "midi": 78,
                    "time": 199.99993500000176,
                    "velocity": 0.5118110236220472,
                    "duration": 0.06872849999999175
                },
                {
                    "name": "D#5",
                    "midi": 75,
                    "time": 200.06866350000175,
                    "velocity": 0.5118110236220472,
                    "duration": 0.06872849999999175
                },
                {
                    "name": "A#4",
                    "midi": 70,
                    "time": 200.13739200000174,
                    "velocity": 0.5039370078740157,
                    "duration": 0.06872849999999175
                },
                {
                    "name": "F#4",
                    "midi": 66,
                    "time": 200.20612050000173,
                    "velocity": 0.49606299212598426,
                    "duration": 0.06872849999999175
                },
                {
                    "name": "D#4",
                    "midi": 63,
                    "time": 200.27484900000172,
                    "velocity": 0.49606299212598426,
                    "duration": 0.06872849999999175
                },
                {
                    "name": "A#3",
                    "midi": 58,
                    "time": 200.34357750000171,
                    "velocity": 0.49606299212598426,
                    "duration": 0.06872849999999175
                },
                {
                    "name": "F#3",
                    "midi": 54,
                    "time": 200.4123060000017,
                    "velocity": 0.49606299212598426,
                    "duration": 0.06872849999999175
                },
                {
                    "name": "A#3",
                    "midi": 58,
                    "time": 200.4810345000017,
                    "velocity": 0.4881889763779528,
                    "duration": 0.06872849999999175
                },
                {
                    "name": "D#4",
                    "midi": 63,
                    "time": 200.5497630000017,
                    "velocity": 0.49606299212598426,
                    "duration": 0.06872849999999175
                },
                {
                    "name": "F#4",
                    "midi": 66,
                    "time": 200.61849150000168,
                    "velocity": 0.49606299212598426,
                    "duration": 0.06872849999999175
                },
                {
                    "name": "A#4",
                    "midi": 70,
                    "time": 200.68722000000167,
                    "velocity": 0.5039370078740157,
                    "duration": 0.06872849999999175
                },
                {
                    "name": "D#5",
                    "midi": 75,
                    "time": 200.75594850000167,
                    "velocity": 0.5118110236220472,
                    "duration": 0.06872849999999175
                },
                {
                    "name": "F#5",
                    "midi": 78,
                    "time": 200.82467700000166,
                    "velocity": 0.5196850393700787,
                    "duration": 0.06872849999999175
                },
                {
                    "name": "A#5",
                    "midi": 82,
                    "time": 200.89340550000165,
                    "velocity": 0.5275590551181102,
                    "duration": 0.06872849999999175
                },
                {
                    "name": "D#6",
                    "midi": 87,
                    "time": 200.96213400000164,
                    "velocity": 0.5511811023622047,
                    "duration": 0.06872849999999175
                },
                {
                    "name": "F#6",
                    "midi": 90,
                    "time": 201.03086250000163,
                    "velocity": 0.5826771653543307,
                    "duration": 0.06872849999999175
                },
                {
                    "name": "D#6",
                    "midi": 87,
                    "time": 201.09959100000162,
                    "velocity": 0.5275590551181102,
                    "duration": 0.06872849999999175
                },
                {
                    "name": "A#5",
                    "midi": 82,
                    "time": 201.16831950000162,
                    "velocity": 0.5196850393700787,
                    "duration": 0.06872849999999175
                },
                {
                    "name": "F#5",
                    "midi": 78,
                    "time": 201.2370480000016,
                    "velocity": 0.5118110236220472,
                    "duration": 0.06872849999999175
                },
                {
                    "name": "D#5",
                    "midi": 75,
                    "time": 201.3057765000016,
                    "velocity": 0.5118110236220472,
                    "duration": 0.06872849999999175
                },
                {
                    "name": "A#4",
                    "midi": 70,
                    "time": 201.3745050000016,
                    "velocity": 0.5039370078740157,
                    "duration": 0.06872849999999175
                },
                {
                    "name": "F#4",
                    "midi": 66,
                    "time": 201.44323350000158,
                    "velocity": 0.49606299212598426,
                    "duration": 0.06872849999999175
                },
                {
                    "name": "D#4",
                    "midi": 63,
                    "time": 201.51196200000157,
                    "velocity": 0.49606299212598426,
                    "duration": 0.06872849999999175
                },
                {
                    "name": "A#3",
                    "midi": 58,
                    "time": 201.58069050000157,
                    "velocity": 0.49606299212598426,
                    "duration": 0.06872849999999175
                },
                {
                    "name": "F#3",
                    "midi": 54,
                    "time": 201.64941900000156,
                    "velocity": 0.49606299212598426,
                    "duration": 0.06872849999999175
                },
                {
                    "name": "A#3",
                    "midi": 58,
                    "time": 201.71814750000155,
                    "velocity": 0.4881889763779528,
                    "duration": 0.06872849999999175
                },
                {
                    "name": "D#4",
                    "midi": 63,
                    "time": 201.78687600000154,
                    "velocity": 0.49606299212598426,
                    "duration": 0.06872849999999175
                },
                {
                    "name": "F#4",
                    "midi": 66,
                    "time": 201.85560450000153,
                    "velocity": 0.49606299212598426,
                    "duration": 0.06872849999999175
                },
                {
                    "name": "A#4",
                    "midi": 70,
                    "time": 201.92433300000152,
                    "velocity": 0.5039370078740157,
                    "duration": 0.06872849999999175
                },
                {
                    "name": "D#5",
                    "midi": 75,
                    "time": 201.99306150000152,
                    "velocity": 0.5118110236220472,
                    "duration": 0.06872849999999175
                },
                {
                    "name": "F#5",
                    "midi": 78,
                    "time": 202.0617900000015,
                    "velocity": 0.5196850393700787,
                    "duration": 0.06872849999999175
                },
                {
                    "name": "A#5",
                    "midi": 82,
                    "time": 202.1305185000015,
                    "velocity": 0.5275590551181102,
                    "duration": 0.06872849999999175
                },
                {
                    "name": "D#6",
                    "midi": 87,
                    "time": 202.1992470000015,
                    "velocity": 0.5511811023622047,
                    "duration": 0.06872849999999175
                },
                {
                    "name": "F#6",
                    "midi": 90,
                    "time": 202.26797550000148,
                    "velocity": 0.5826771653543307,
                    "duration": 0.06872849999999175
                },
                {
                    "name": "D#6",
                    "midi": 87,
                    "time": 202.33670400000148,
                    "velocity": 0.5275590551181102,
                    "duration": 0.06872849999999175
                },
                {
                    "name": "A5",
                    "midi": 81,
                    "time": 202.40543250000147,
                    "velocity": 0.5196850393700787,
                    "duration": 0.06872849999999175
                },
                {
                    "name": "F#5",
                    "midi": 78,
                    "time": 202.47416100000146,
                    "velocity": 0.5118110236220472,
                    "duration": 0.06872849999999175
                },
                {
                    "name": "D#5",
                    "midi": 75,
                    "time": 202.54288950000145,
                    "velocity": 0.5118110236220472,
                    "duration": 0.06872849999999175
                },
                {
                    "name": "A4",
                    "midi": 69,
                    "time": 202.61161800000144,
                    "velocity": 0.5039370078740157,
                    "duration": 0.06872849999999175
                },
                {
                    "name": "F#4",
                    "midi": 66,
                    "time": 202.68034650000143,
                    "velocity": 0.49606299212598426,
                    "duration": 0.06872849999999175
                },
                {
                    "name": "D#4",
                    "midi": 63,
                    "time": 202.74907500000143,
                    "velocity": 0.49606299212598426,
                    "duration": 0.06872849999999175
                },
                {
                    "name": "A3",
                    "midi": 57,
                    "time": 202.81780350000142,
                    "velocity": 0.49606299212598426,
                    "duration": 0.06872849999999175
                },
                {
                    "name": "F#3",
                    "midi": 54,
                    "time": 202.8865320000014,
                    "velocity": 0.49606299212598426,
                    "duration": 0.06872849999999175
                },
                {
                    "name": "A3",
                    "midi": 57,
                    "time": 202.9552605000014,
                    "velocity": 0.4881889763779528,
                    "duration": 0.06872849999999175
                },
                {
                    "name": "D#4",
                    "midi": 63,
                    "time": 203.0239890000014,
                    "velocity": 0.49606299212598426,
                    "duration": 0.06872849999999175
                },
                {
                    "name": "F#4",
                    "midi": 66,
                    "time": 203.09271750000138,
                    "velocity": 0.49606299212598426,
                    "duration": 0.06872849999999175
                },
                {
                    "name": "A4",
                    "midi": 69,
                    "time": 203.16144600000138,
                    "velocity": 0.5039370078740157,
                    "duration": 0.06872849999999175
                },
                {
                    "name": "D#5",
                    "midi": 75,
                    "time": 203.23017450000137,
                    "velocity": 0.5118110236220472,
                    "duration": 0.06872849999999175
                },
                {
                    "name": "F#5",
                    "midi": 78,
                    "time": 203.29890300000136,
                    "velocity": 0.5196850393700787,
                    "duration": 0.06872849999999175
                },
                {
                    "name": "A5",
                    "midi": 81,
                    "time": 203.36763150000135,
                    "velocity": 0.5275590551181102,
                    "duration": 0.06872849999999175
                },
                {
                    "name": "D#6",
                    "midi": 87,
                    "time": 203.43636000000134,
                    "velocity": 0.5511811023622047,
                    "duration": 0.06872849999999175
                },
                {
                    "name": "F#6",
                    "midi": 90,
                    "time": 203.50508850000134,
                    "velocity": 0.5826771653543307,
                    "duration": 0.06872849999999175
                },
                {
                    "name": "D6",
                    "midi": 86,
                    "time": 203.57381700000133,
                    "velocity": 0.5275590551181102,
                    "duration": 0.06872849999999175
                },
                {
                    "name": "A5",
                    "midi": 81,
                    "time": 203.64254550000132,
                    "velocity": 0.5196850393700787,
                    "duration": 0.06872849999999175
                },
                {
                    "name": "F#5",
                    "midi": 78,
                    "time": 203.7112740000013,
                    "velocity": 0.5118110236220472,
                    "duration": 0.06872849999999175
                },
                {
                    "name": "D5",
                    "midi": 74,
                    "time": 203.7800025000013,
                    "velocity": 0.5118110236220472,
                    "duration": 0.06872849999999175
                },
                {
                    "name": "A4",
                    "midi": 69,
                    "time": 203.8487310000013,
                    "velocity": 0.5039370078740157,
                    "duration": 0.06872849999999175
                },
                {
                    "name": "F#4",
                    "midi": 66,
                    "time": 203.91745950000129,
                    "velocity": 0.49606299212598426,
                    "duration": 0.06872849999999175
                },
                {
                    "name": "D4",
                    "midi": 62,
                    "time": 203.98618800000128,
                    "velocity": 0.49606299212598426,
                    "duration": 0.06872849999999175
                },
                {
                    "name": "A3",
                    "midi": 57,
                    "time": 204.05491650000127,
                    "velocity": 0.49606299212598426,
                    "duration": 0.06872849999999175
                },
                {
                    "name": "F#3",
                    "midi": 54,
                    "time": 204.12364500000126,
                    "velocity": 0.49606299212598426,
                    "duration": 0.06872849999999175
                },
                {
                    "name": "A3",
                    "midi": 57,
                    "time": 204.19237350000125,
                    "velocity": 0.4881889763779528,
                    "duration": 0.06872849999999175
                },
                {
                    "name": "D4",
                    "midi": 62,
                    "time": 204.26110200000124,
                    "velocity": 0.49606299212598426,
                    "duration": 0.06872849999999175
                },
                {
                    "name": "F#4",
                    "midi": 66,
                    "time": 204.32983050000124,
                    "velocity": 0.49606299212598426,
                    "duration": 0.06872849999999175
                },
                {
                    "name": "A4",
                    "midi": 69,
                    "time": 204.39855900000123,
                    "velocity": 0.5039370078740157,
                    "duration": 0.06872849999999175
                },
                {
                    "name": "D5",
                    "midi": 74,
                    "time": 204.46728750000122,
                    "velocity": 0.5118110236220472,
                    "duration": 0.06872849999999175
                },
                {
                    "name": "F#5",
                    "midi": 78,
                    "time": 204.5360160000012,
                    "velocity": 0.5196850393700787,
                    "duration": 0.06872849999999175
                },
                {
                    "name": "A5",
                    "midi": 81,
                    "time": 204.6047445000012,
                    "velocity": 0.5275590551181102,
                    "duration": 0.06872849999999175
                },
                {
                    "name": "D6",
                    "midi": 86,
                    "time": 204.6734730000012,
                    "velocity": 0.5511811023622047,
                    "duration": 0.06872849999999175
                },
                {
                    "name": "A6",
                    "midi": 93,
                    "time": 204.7422015000012,
                    "velocity": 0.5826771653543307,
                    "duration": 0.06872849999999175
                },
                {
                    "name": "F#6",
                    "midi": 90,
                    "time": 204.81093000000118,
                    "velocity": 0.5275590551181102,
                    "duration": 0.06872849999999175
                },
                {
                    "name": "C#6",
                    "midi": 85,
                    "time": 204.87965850000117,
                    "velocity": 0.5196850393700787,
                    "duration": 0.06872849999999175
                },
                {
                    "name": "A5",
                    "midi": 81,
                    "time": 204.94838700000116,
                    "velocity": 0.5118110236220472,
                    "duration": 0.06872849999999175
                },
                {
                    "name": "F#5",
                    "midi": 78,
                    "time": 205.01711550000115,
                    "velocity": 0.5118110236220472,
                    "duration": 0.06872849999999175
                },
                {
                    "name": "C#5",
                    "midi": 73,
                    "time": 205.08584400000115,
                    "velocity": 0.5039370078740157,
                    "duration": 0.06872849999999175
                },
                {
                    "name": "A4",
                    "midi": 69,
                    "time": 205.15457250000114,
                    "velocity": 0.49606299212598426,
                    "duration": 0.06872849999999175
                },
                {
                    "name": "F#4",
                    "midi": 66,
                    "time": 205.22330100000113,
                    "velocity": 0.49606299212598426,
                    "duration": 0.06872849999999175
                },
                {
                    "name": "C#4",
                    "midi": 61,
                    "time": 205.29202950000112,
                    "velocity": 0.49606299212598426,
                    "duration": 0.06872849999999175
                },
                {
                    "name": "A3",
                    "midi": 57,
                    "time": 205.3607580000011,
                    "velocity": 0.49606299212598426,
                    "duration": 0.06872849999999175
                },
                {
                    "name": "C#4",
                    "midi": 61,
                    "time": 205.4294865000011,
                    "velocity": 0.4881889763779528,
                    "duration": 0.06872849999999175
                },
                {
                    "name": "F#4",
                    "midi": 66,
                    "time": 205.4982150000011,
                    "velocity": 0.49606299212598426,
                    "duration": 0.06872849999999175
                },
                {
                    "name": "A4",
                    "midi": 69,
                    "time": 205.5669435000011,
                    "velocity": 0.49606299212598426,
                    "duration": 0.06872849999999175
                },
                {
                    "name": "C#5",
                    "midi": 73,
                    "time": 205.63567200000108,
                    "velocity": 0.5039370078740157,
                    "duration": 0.06872849999999175
                },
                {
                    "name": "F#5",
                    "midi": 78,
                    "time": 205.70440050000107,
                    "velocity": 0.5118110236220472,
                    "duration": 0.06872849999999175
                },
                {
                    "name": "A5",
                    "midi": 81,
                    "time": 205.77312900000106,
                    "velocity": 0.5196850393700787,
                    "duration": 0.06872849999999175
                },
                {
                    "name": "C#6",
                    "midi": 85,
                    "time": 205.84185750000105,
                    "velocity": 0.5275590551181102,
                    "duration": 0.06872849999999175
                },
                {
                    "name": "F#6",
                    "midi": 90,
                    "time": 205.91058600000105,
                    "velocity": 0.5511811023622047,
                    "duration": 0.06872849999999175
                },
                {
                    "name": "A6",
                    "midi": 93,
                    "time": 205.97931450000104,
                    "velocity": 0.5826771653543307,
                    "duration": 0.06872849999999175
                },
                {
                    "name": "G6",
                    "midi": 91,
                    "time": 206.04804300000103,
                    "velocity": 0.5275590551181102,
                    "duration": 0.06872849999999175
                },
                {
                    "name": "E6",
                    "midi": 88,
                    "time": 206.11677150000102,
                    "velocity": 0.5196850393700787,
                    "duration": 0.06872849999999175
                },
                {
                    "name": "A5",
                    "midi": 81,
                    "time": 206.185500000001,
                    "velocity": 0.5118110236220472,
                    "duration": 0.06872849999999175
                },
                {
                    "name": "G5",
                    "midi": 79,
                    "time": 206.254228500001,
                    "velocity": 0.5118110236220472,
                    "duration": 0.06872849999999175
                },
                {
                    "name": "E5",
                    "midi": 76,
                    "time": 206.322957000001,
                    "velocity": 0.5039370078740157,
                    "duration": 0.06872849999999175
                },
                {
                    "name": "A4",
                    "midi": 69,
                    "time": 206.391685500001,
                    "velocity": 0.49606299212598426,
                    "duration": 0.06872849999999175
                },
                {
                    "name": "G4",
                    "midi": 67,
                    "time": 206.46041400000098,
                    "velocity": 0.49606299212598426,
                    "duration": 0.06872849999999175
                },
                {
                    "name": "E4",
                    "midi": 64,
                    "time": 206.52914250000097,
                    "velocity": 0.49606299212598426,
                    "duration": 0.06872849999999175
                },
                {
                    "name": "A3",
                    "midi": 57,
                    "time": 206.59787100000096,
                    "velocity": 0.49606299212598426,
                    "duration": 0.06872849999999175
                },
                {
                    "name": "E4",
                    "midi": 64,
                    "time": 206.66659950000096,
                    "velocity": 0.4881889763779528,
                    "duration": 0.06872849999999175
                },
                {
                    "name": "G4",
                    "midi": 67,
                    "time": 206.73532800000095,
                    "velocity": 0.49606299212598426,
                    "duration": 0.06872849999999175
                },
                {
                    "name": "A4",
                    "midi": 69,
                    "time": 206.80405650000094,
                    "velocity": 0.49606299212598426,
                    "duration": 0.06872849999999175
                },
                {
                    "name": "E5",
                    "midi": 76,
                    "time": 206.87278500000093,
                    "velocity": 0.5039370078740157,
                    "duration": 0.06872849999999175
                },
                {
                    "name": "G5",
                    "midi": 79,
                    "time": 206.94151350000092,
                    "velocity": 0.5118110236220472,
                    "duration": 0.06872849999999175
                },
                {
                    "name": "A5",
                    "midi": 81,
                    "time": 207.01024200000091,
                    "velocity": 0.5196850393700787,
                    "duration": 0.06872849999999175
                },
                {
                    "name": "C#6",
                    "midi": 85,
                    "time": 207.0789705000009,
                    "velocity": 0.5275590551181102,
                    "duration": 0.06872849999999175
                },
                {
                    "name": "E6",
                    "midi": 88,
                    "time": 207.1476990000009,
                    "velocity": 0.5511811023622047,
                    "duration": 0.06872849999999175
                },
                {
                    "name": "A6",
                    "midi": 93,
                    "time": 207.2164275000009,
                    "velocity": 0.5826771653543307,
                    "duration": 0.06872849999999175
                },
                {
                    "name": "F6",
                    "midi": 89,
                    "time": 207.28515600000088,
                    "velocity": 0.5275590551181102,
                    "duration": 0.06872849999999175
                },
                {
                    "name": "D6",
                    "midi": 86,
                    "time": 207.35388450000087,
                    "velocity": 0.5196850393700787,
                    "duration": 0.06872849999999175
                },
                {
                    "name": "A5",
                    "midi": 81,
                    "time": 207.42261300000087,
                    "velocity": 0.5118110236220472,
                    "duration": 0.06872849999999175
                },
                {
                    "name": "F5",
                    "midi": 77,
                    "time": 207.49134150000086,
                    "velocity": 0.5118110236220472,
                    "duration": 0.06872849999999175
                },
                {
                    "name": "D5",
                    "midi": 74,
                    "time": 207.56007000000085,
                    "velocity": 0.5039370078740157,
                    "duration": 0.06872849999999175
                },
                {
                    "name": "A4",
                    "midi": 69,
                    "time": 207.62879850000084,
                    "velocity": 0.49606299212598426,
                    "duration": 0.06872849999999175
                },
                {
                    "name": "F4",
                    "midi": 65,
                    "time": 207.69752700000083,
                    "velocity": 0.49606299212598426,
                    "duration": 0.06872849999999175
                },
                {
                    "name": "D4",
                    "midi": 62,
                    "time": 207.76625550000082,
                    "velocity": 0.49606299212598426,
                    "duration": 0.06872849999999175
                },
                {
                    "name": "G6",
                    "midi": 91,
                    "time": 207.83498400000082,
                    "velocity": 0.5826771653543307,
                    "duration": 0.06872849999999175
                },
                {
                    "name": "F6",
                    "midi": 89,
                    "time": 207.9037125000008,
                    "velocity": 0.5275590551181102,
                    "duration": 0.06872849999999175
                },
                {
                    "name": "D6",
                    "midi": 86,
                    "time": 207.9724410000008,
                    "velocity": 0.5196850393700787,
                    "duration": 0.06872849999999175
                },
                {
                    "name": "G5",
                    "midi": 79,
                    "time": 208.0411695000008,
                    "velocity": 0.5118110236220472,
                    "duration": 0.06872849999999175
                },
                {
                    "name": "F5",
                    "midi": 77,
                    "time": 208.10989800000078,
                    "velocity": 0.5118110236220472,
                    "duration": 0.06872849999999175
                },
                {
                    "name": "D5",
                    "midi": 74,
                    "time": 208.17862650000077,
                    "velocity": 0.5039370078740157,
                    "duration": 0.06872849999999175
                },
                {
                    "name": "G4",
                    "midi": 67,
                    "time": 208.24735500000077,
                    "velocity": 0.49606299212598426,
                    "duration": 0.06872849999999175
                },
                {
                    "name": "F4",
                    "midi": 65,
                    "time": 208.31608350000076,
                    "velocity": 0.49606299212598426,
                    "duration": 0.06872849999999175
                },
                {
                    "name": "D4",
                    "midi": 62,
                    "time": 208.38481200000075,
                    "velocity": 0.49606299212598426,
                    "duration": 0.06872849999999175
                },
                {
                    "name": "G6",
                    "midi": 91,
                    "time": 208.45354050000074,
                    "velocity": 0.5826771653543307,
                    "duration": 0.06872849999999175
                },
                {
                    "name": "E6",
                    "midi": 88,
                    "time": 208.52226900000073,
                    "velocity": 0.5275590551181102,
                    "duration": 0.06872849999999175
                },
                {
                    "name": "C6",
                    "midi": 84,
                    "time": 208.59099750000073,
                    "velocity": 0.5196850393700787,
                    "duration": 0.06872849999999175
                },
                {
                    "name": "G5",
                    "midi": 79,
                    "time": 208.65972600000072,
                    "velocity": 0.5118110236220472,
                    "duration": 0.06872849999999175
                },
                {
                    "name": "E5",
                    "midi": 76,
                    "time": 208.7284545000007,
                    "velocity": 0.5118110236220472,
                    "duration": 0.06872849999999175
                },
                {
                    "name": "C5",
                    "midi": 72,
                    "time": 208.7971830000007,
                    "velocity": 0.5039370078740157,
                    "duration": 0.06872849999999175
                },
                {
                    "name": "G4",
                    "midi": 67,
                    "time": 208.8659115000007,
                    "velocity": 0.49606299212598426,
                    "duration": 0.06872849999999175
                },
                {
                    "name": "E4",
                    "midi": 64,
                    "time": 208.93464000000068,
                    "velocity": 0.49606299212598426,
                    "duration": 0.06872849999999175
                },
                {
                    "name": "C4",
                    "midi": 60,
                    "time": 209.00336850000068,
                    "velocity": 0.49606299212598426,
                    "duration": 0.06872849999999175
                },
                {
                    "name": "C7",
                    "midi": 96,
                    "time": 209.07209700000067,
                    "velocity": 0.5826771653543307,
                    "duration": 0.06872849999999175
                },
                {
                    "name": "A6",
                    "midi": 93,
                    "time": 209.14082550000066,
                    "velocity": 0.5275590551181102,
                    "duration": 0.06872849999999175
                },
                {
                    "name": "E6",
                    "midi": 88,
                    "time": 209.20955400000065,
                    "velocity": 0.5196850393700787,
                    "duration": 0.06872849999999175
                },
                {
                    "name": "C6",
                    "midi": 84,
                    "time": 209.27828250000064,
                    "velocity": 0.5118110236220472,
                    "duration": 0.06872849999999175
                },
                {
                    "name": "A5",
                    "midi": 81,
                    "time": 209.34701100000063,
                    "velocity": 0.5118110236220472,
                    "duration": 0.06872849999999175
                },
                {
                    "name": "E5",
                    "midi": 76,
                    "time": 209.41573950000063,
                    "velocity": 0.5039370078740157,
                    "duration": 0.06872849999999175
                },
                {
                    "name": "C5",
                    "midi": 72,
                    "time": 209.48446800000062,
                    "velocity": 0.49606299212598426,
                    "duration": 0.06872849999999175
                },
                {
                    "name": "A4",
                    "midi": 69,
                    "time": 209.5531965000006,
                    "velocity": 0.49606299212598426,
                    "duration": 0.06872849999999175
                },
                {
                    "name": "E4",
                    "midi": 64,
                    "time": 209.6219250000006,
                    "velocity": 0.49606299212598426,
                    "duration": 0.06872849999999175
                },
                {
                    "name": "A6",
                    "midi": 93,
                    "time": 209.6906535000006,
                    "velocity": 0.5826771653543307,
                    "duration": 0.06872849999999175
                },
                {
                    "name": "D6",
                    "midi": 86,
                    "time": 209.75938200000058,
                    "velocity": 0.5275590551181102,
                    "duration": 0.06872849999999175
                },
                {
                    "name": "C6",
                    "midi": 84,
                    "time": 209.82811050000058,
                    "velocity": 0.5196850393700787,
                    "duration": 0.06872849999999175
                },
                {
                    "name": "A5",
                    "midi": 81,
                    "time": 209.89683900000057,
                    "velocity": 0.5118110236220472,
                    "duration": 0.06872849999999175
                },
                {
                    "name": "D5",
                    "midi": 74,
                    "time": 209.96556750000056,
                    "velocity": 0.5118110236220472,
                    "duration": 0.06872849999999175
                },
                {
                    "name": "C5",
                    "midi": 72,
                    "time": 210.03429600000055,
                    "velocity": 0.5039370078740157,
                    "duration": 0.06872849999999175
                },
                {
                    "name": "A4",
                    "midi": 69,
                    "time": 210.10302450000054,
                    "velocity": 0.49606299212598426,
                    "duration": 0.06872849999999175
                },
                {
                    "name": "D4",
                    "midi": 62,
                    "time": 210.17175300000054,
                    "velocity": 0.49606299212598426,
                    "duration": 0.06872849999999175
                },
                {
                    "name": "C4",
                    "midi": 60,
                    "time": 210.24048150000053,
                    "velocity": 0.49606299212598426,
                    "duration": 0.06872849999999175
                },
                {
                    "name": "G6",
                    "midi": 91,
                    "time": 210.30921000000052,
                    "velocity": 0.5826771653543307,
                    "duration": 0.06872849999999175
                },
                {
                    "name": "D6",
                    "midi": 86,
                    "time": 210.3779385000005,
                    "velocity": 0.5275590551181102,
                    "duration": 0.06872849999999175
                },
                {
                    "name": "B5",
                    "midi": 83,
                    "time": 210.4466670000005,
                    "velocity": 0.5196850393700787,
                    "duration": 0.06872849999999175
                },
                {
                    "name": "G5",
                    "midi": 79,
                    "time": 210.5153955000005,
                    "velocity": 0.5118110236220472,
                    "duration": 0.06872849999999175
                },
                {
                    "name": "D5",
                    "midi": 74,
                    "time": 210.5841240000005,
                    "velocity": 0.5118110236220472,
                    "duration": 0.06872849999999175
                },
                {
                    "name": "B4",
                    "midi": 71,
                    "time": 210.65285250000048,
                    "velocity": 0.5039370078740157,
                    "duration": 0.06872849999999175
                },
                {
                    "name": "G4",
                    "midi": 67,
                    "time": 210.72158100000047,
                    "velocity": 0.49606299212598426,
                    "duration": 0.06872849999999175
                },
                {
                    "name": "D4",
                    "midi": 62,
                    "time": 210.79030950000046,
                    "velocity": 0.49606299212598426,
                    "duration": 0.06872849999999175
                },
                {
                    "name": "B3",
                    "midi": 59,
                    "time": 210.85903800000045,
                    "velocity": 0.49606299212598426,
                    "duration": 0.06872849999999175
                },
                {
                    "name": "D#5",
                    "midi": 75,
                    "time": 210.92776650000044,
                    "velocity": 0.5984251968503937,
                    "duration": 0.30927825000000553
                },
                {
                    "name": "F#5",
                    "midi": 78,
                    "time": 210.92776650000044,
                    "velocity": 0.5984251968503937,
                    "duration": 0.30927825000000553
                },
                {
                    "name": "C6",
                    "midi": 84,
                    "time": 210.92776650000044,
                    "velocity": 0.5984251968503937,
                    "duration": 0.30927825000000553
                },
                {
                    "name": "D#6",
                    "midi": 87,
                    "time": 210.92776650000044,
                    "velocity": 0.7086614173228346,
                    "duration": 0.30927825000000553
                },
                {
                    "name": "D#5",
                    "midi": 75,
                    "time": 211.23704475000045,
                    "velocity": 0.5590551181102362,
                    "duration": 0.09793811250000317
                },
                {
                    "name": "F#5",
                    "midi": 78,
                    "time": 211.23704475000045,
                    "velocity": 0.5590551181102362,
                    "duration": 0.09793811250000317
                },
                {
                    "name": "C6",
                    "midi": 84,
                    "time": 211.23704475000045,
                    "velocity": 0.5590551181102362,
                    "duration": 0.09793811250000317
                },
                {
                    "name": "D#6",
                    "midi": 87,
                    "time": 211.23704475000045,
                    "velocity": 0.6614173228346457,
                    "duration": 0.09793811250000317
                },
                {
                    "name": "D#5",
                    "midi": 75,
                    "time": 211.34013750000045,
                    "velocity": 0.5984251968503937,
                    "duration": 0.20618550000000369
                },
                {
                    "name": "F#5",
                    "midi": 78,
                    "time": 211.34013750000045,
                    "velocity": 0.5984251968503937,
                    "duration": 0.20618550000000369
                },
                {
                    "name": "C6",
                    "midi": 84,
                    "time": 211.34013750000045,
                    "velocity": 0.5984251968503937,
                    "duration": 0.20618550000000369
                },
                {
                    "name": "D#6",
                    "midi": 87,
                    "time": 211.34013750000045,
                    "velocity": 0.7165354330708661,
                    "duration": 0.20618550000000369
                },
                {
                    "name": "D#5",
                    "midi": 75,
                    "time": 211.54632300000046,
                    "velocity": 0.5984251968503937,
                    "duration": 0.30927825000000553
                },
                {
                    "name": "F#5",
                    "midi": 78,
                    "time": 211.54632300000046,
                    "velocity": 0.5984251968503937,
                    "duration": 0.30927825000000553
                },
                {
                    "name": "C6",
                    "midi": 84,
                    "time": 211.54632300000046,
                    "velocity": 0.5984251968503937,
                    "duration": 0.30927825000000553
                },
                {
                    "name": "D#6",
                    "midi": 87,
                    "time": 211.54632300000046,
                    "velocity": 0.7086614173228346,
                    "duration": 0.30927825000000553
                },
                {
                    "name": "D#5",
                    "midi": 75,
                    "time": 211.85560125000046,
                    "velocity": 0.5590551181102362,
                    "duration": 0.09793811250000317
                },
                {
                    "name": "F#5",
                    "midi": 78,
                    "time": 211.85560125000046,
                    "velocity": 0.5590551181102362,
                    "duration": 0.09793811250000317
                },
                {
                    "name": "C6",
                    "midi": 84,
                    "time": 211.85560125000046,
                    "velocity": 0.5590551181102362,
                    "duration": 0.09793811250000317
                },
                {
                    "name": "D#6",
                    "midi": 87,
                    "time": 211.85560125000046,
                    "velocity": 0.6614173228346457,
                    "duration": 0.09793811250000317
                },
                {
                    "name": "D#5",
                    "midi": 75,
                    "time": 211.95869400000046,
                    "velocity": 0.5984251968503937,
                    "duration": 0.20618550000000369
                },
                {
                    "name": "F#5",
                    "midi": 78,
                    "time": 211.95869400000046,
                    "velocity": 0.5984251968503937,
                    "duration": 0.20618550000000369
                },
                {
                    "name": "C6",
                    "midi": 84,
                    "time": 211.95869400000046,
                    "velocity": 0.5984251968503937,
                    "duration": 0.20618550000000369
                },
                {
                    "name": "D#6",
                    "midi": 87,
                    "time": 211.95869400000046,
                    "velocity": 0.7165354330708661,
                    "duration": 0.20618550000000369
                },
                {
                    "name": "D#5",
                    "midi": 75,
                    "time": 212.16487950000047,
                    "velocity": 0.5984251968503937,
                    "duration": 0.30927825000000553
                },
                {
                    "name": "F#5",
                    "midi": 78,
                    "time": 212.16487950000047,
                    "velocity": 0.5984251968503937,
                    "duration": 0.30927825000000553
                },
                {
                    "name": "C6",
                    "midi": 84,
                    "time": 212.16487950000047,
                    "velocity": 0.5984251968503937,
                    "duration": 0.30927825000000553
                },
                {
                    "name": "D#6",
                    "midi": 87,
                    "time": 212.16487950000047,
                    "velocity": 0.7086614173228346,
                    "duration": 0.30927825000000553
                },
                {
                    "name": "D#5",
                    "midi": 75,
                    "time": 212.47415775000047,
                    "velocity": 0.5590551181102362,
                    "duration": 0.09793811250000317
                },
                {
                    "name": "F#5",
                    "midi": 78,
                    "time": 212.47415775000047,
                    "velocity": 0.5590551181102362,
                    "duration": 0.09793811250000317
                },
                {
                    "name": "C6",
                    "midi": 84,
                    "time": 212.47415775000047,
                    "velocity": 0.5590551181102362,
                    "duration": 0.09793811250000317
                },
                {
                    "name": "D#6",
                    "midi": 87,
                    "time": 212.47415775000047,
                    "velocity": 0.6614173228346457,
                    "duration": 0.09793811250000317
                },
                {
                    "name": "D#5",
                    "midi": 75,
                    "time": 212.57725050000047,
                    "velocity": 0.5984251968503937,
                    "duration": 0.20618550000000369
                },
                {
                    "name": "F#5",
                    "midi": 78,
                    "time": 212.57725050000047,
                    "velocity": 0.5984251968503937,
                    "duration": 0.20618550000000369
                },
                {
                    "name": "C6",
                    "midi": 84,
                    "time": 212.57725050000047,
                    "velocity": 0.5984251968503937,
                    "duration": 0.20618550000000369
                },
                {
                    "name": "D#6",
                    "midi": 87,
                    "time": 212.57725050000047,
                    "velocity": 0.7165354330708661,
                    "duration": 0.20618550000000369
                },
                {
                    "name": "D#5",
                    "midi": 75,
                    "time": 212.78343600000048,
                    "velocity": 0.5984251968503937,
                    "duration": 0.30927825000000553
                },
                {
                    "name": "F#5",
                    "midi": 78,
                    "time": 212.78343600000048,
                    "velocity": 0.5984251968503937,
                    "duration": 0.30927825000000553
                },
                {
                    "name": "C6",
                    "midi": 84,
                    "time": 212.78343600000048,
                    "velocity": 0.5984251968503937,
                    "duration": 0.30927825000000553
                },
                {
                    "name": "D#6",
                    "midi": 87,
                    "time": 212.78343600000048,
                    "velocity": 0.7086614173228346,
                    "duration": 0.30927825000000553
                },
                {
                    "name": "D#5",
                    "midi": 75,
                    "time": 213.09271425000048,
                    "velocity": 0.5590551181102362,
                    "duration": 0.09793811250000317
                },
                {
                    "name": "F#5",
                    "midi": 78,
                    "time": 213.09271425000048,
                    "velocity": 0.5590551181102362,
                    "duration": 0.09793811250000317
                },
                {
                    "name": "C6",
                    "midi": 84,
                    "time": 213.09271425000048,
                    "velocity": 0.5590551181102362,
                    "duration": 0.09793811250000317
                },
                {
                    "name": "D#6",
                    "midi": 87,
                    "time": 213.09271425000048,
                    "velocity": 0.6614173228346457,
                    "duration": 0.09793811250000317
                },
                {
                    "name": "D#5",
                    "midi": 75,
                    "time": 213.19580700000049,
                    "velocity": 0.5984251968503937,
                    "duration": 0.20618550000000369
                },
                {
                    "name": "F#5",
                    "midi": 78,
                    "time": 213.19580700000049,
                    "velocity": 0.5984251968503937,
                    "duration": 0.20618550000000369
                },
                {
                    "name": "C6",
                    "midi": 84,
                    "time": 213.19580700000049,
                    "velocity": 0.5984251968503937,
                    "duration": 0.20618550000000369
                },
                {
                    "name": "D#6",
                    "midi": 87,
                    "time": 213.19580700000049,
                    "velocity": 0.7165354330708661,
                    "duration": 0.20618550000000369
                },
                {
                    "name": "D#5",
                    "midi": 75,
                    "time": 213.4019925000005,
                    "velocity": 0.5590551181102362,
                    "duration": 0.19587622500000634
                },
                {
                    "name": "F#5",
                    "midi": 78,
                    "time": 213.4019925000005,
                    "velocity": 0.5590551181102362,
                    "duration": 0.19587622500000634
                },
                {
                    "name": "C6",
                    "midi": 84,
                    "time": 213.4019925000005,
                    "velocity": 0.5590551181102362,
                    "duration": 0.19587622500000634
                },
                {
                    "name": "D#6",
                    "midi": 87,
                    "time": 213.4019925000005,
                    "velocity": 0.6692913385826772,
                    "duration": 0.19587622500000634
                },
                {
                    "name": "F#5",
                    "midi": 78,
                    "time": 213.6081780000005,
                    "velocity": 0.5275590551181102,
                    "duration": 0.19587622500000634
                },
                {
                    "name": "D#5",
                    "midi": 75,
                    "time": 213.6081780000005,
                    "velocity": 0.5275590551181102,
                    "duration": 0.19587622500000634
                },
                {
                    "name": "C6",
                    "midi": 84,
                    "time": 213.6081780000005,
                    "velocity": 0.5275590551181102,
                    "duration": 0.19587622500000634
                },
                {
                    "name": "D#6",
                    "midi": 87,
                    "time": 213.6081780000005,
                    "velocity": 0.6220472440944882,
                    "duration": 0.19587622500000634
                },
                {
                    "name": "D#5",
                    "midi": 75,
                    "time": 213.8143635000005,
                    "velocity": 0.5433070866141733,
                    "duration": 0.19587622500000634
                },
                {
                    "name": "F#5",
                    "midi": 78,
                    "time": 213.8143635000005,
                    "velocity": 0.5433070866141733,
                    "duration": 0.19587622500000634
                },
                {
                    "name": "C6",
                    "midi": 84,
                    "time": 213.8143635000005,
                    "velocity": 0.5433070866141733,
                    "duration": 0.19587622500000634
                },
                {
                    "name": "D#6",
                    "midi": 87,
                    "time": 213.8143635000005,
                    "velocity": 0.6377952755905512,
                    "duration": 0.19587622500000634
                },
                {
                    "name": "D#5",
                    "midi": 75,
                    "time": 214.0205490000005,
                    "velocity": 0.5905511811023622,
                    "duration": 0.19587622500000634
                },
                {
                    "name": "F#5",
                    "midi": 78,
                    "time": 214.0205490000005,
                    "velocity": 0.5905511811023622,
                    "duration": 0.19587622500000634
                },
                {
                    "name": "C6",
                    "midi": 84,
                    "time": 214.0205490000005,
                    "velocity": 0.5905511811023622,
                    "duration": 0.19587622500000634
                },
                {
                    "name": "D#6",
                    "midi": 87,
                    "time": 214.0205490000005,
                    "velocity": 0.7086614173228346,
                    "duration": 0.19587622500000634
                },
                {
                    "name": "D#5",
                    "midi": 75,
                    "time": 214.2267345000005,
                    "velocity": 0.5669291338582677,
                    "duration": 0.19587622500000634
                },
                {
                    "name": "F#5",
                    "midi": 78,
                    "time": 214.2267345000005,
                    "velocity": 0.5669291338582677,
                    "duration": 0.19587622500000634
                },
                {
                    "name": "C6",
                    "midi": 84,
                    "time": 214.2267345000005,
                    "velocity": 0.5669291338582677,
                    "duration": 0.19587622500000634
                },
                {
                    "name": "D#6",
                    "midi": 87,
                    "time": 214.2267345000005,
                    "velocity": 0.6771653543307087,
                    "duration": 0.19587622500000634
                },
                {
                    "name": "D#5",
                    "midi": 75,
                    "time": 214.4329200000005,
                    "velocity": 0.5669291338582677,
                    "duration": 0.19587622500000634
                },
                {
                    "name": "F#5",
                    "midi": 78,
                    "time": 214.4329200000005,
                    "velocity": 0.5669291338582677,
                    "duration": 0.19587622500000634
                },
                {
                    "name": "C6",
                    "midi": 84,
                    "time": 214.4329200000005,
                    "velocity": 0.5669291338582677,
                    "duration": 0.19587622500000634
                },
                {
                    "name": "D#6",
                    "midi": 87,
                    "time": 214.4329200000005,
                    "velocity": 0.6771653543307087,
                    "duration": 0.19587622500000634
                },
                {
                    "name": "D#6",
                    "midi": 87,
                    "time": 214.6391055000005,
                    "velocity": 0.6141732283464567,
                    "duration": 0.19587622500000634
                },
                {
                    "name": "F#5",
                    "midi": 78,
                    "time": 214.6391055000005,
                    "velocity": 0.6141732283464567,
                    "duration": 0.19587622500000634
                },
                {
                    "name": "C6",
                    "midi": 84,
                    "time": 214.6391055000005,
                    "velocity": 0.6141732283464567,
                    "duration": 0.19587622500000634
                },
                {
                    "name": "F#6",
                    "midi": 90,
                    "time": 214.6391055000005,
                    "velocity": 0.7322834645669292,
                    "duration": 0.19587622500000634
                },
                {
                    "name": "F#5",
                    "midi": 78,
                    "time": 214.84529100000051,
                    "velocity": 0.5748031496062992,
                    "duration": 0.19587622500000634
                },
                {
                    "name": "D#6",
                    "midi": 87,
                    "time": 214.84529100000051,
                    "velocity": 0.5748031496062992,
                    "duration": 0.19587622500000634
                },
                {
                    "name": "C6",
                    "midi": 84,
                    "time": 214.84529100000051,
                    "velocity": 0.5748031496062992,
                    "duration": 0.19587622500000634
                },
                {
                    "name": "F#6",
                    "midi": 90,
                    "time": 214.84529100000051,
                    "velocity": 0.6850393700787402,
                    "duration": 0.19587622500000634
                },
                {
                    "name": "D#6",
                    "midi": 87,
                    "time": 215.05147650000052,
                    "velocity": 0.6062992125984252,
                    "duration": 0.19587622500000634
                },
                {
                    "name": "F#5",
                    "midi": 78,
                    "time": 215.05147650000052,
                    "velocity": 0.6062992125984252,
                    "duration": 0.19587622500000634
                },
                {
                    "name": "C6",
                    "midi": 84,
                    "time": 215.05147650000052,
                    "velocity": 0.6062992125984252,
                    "duration": 0.19587622500000634
                },
                {
                    "name": "F#6",
                    "midi": 90,
                    "time": 215.05147650000052,
                    "velocity": 0.7244094488188977,
                    "duration": 0.19587622500000634
                },
                {
                    "name": "D#6",
                    "midi": 87,
                    "time": 215.25766200000052,
                    "velocity": 0.6614173228346457,
                    "duration": 0.19587622500000634
                },
                {
                    "name": "F#5",
                    "midi": 78,
                    "time": 215.25766200000052,
                    "velocity": 0.6614173228346457,
                    "duration": 0.19587622500000634
                },
                {
                    "name": "C6",
                    "midi": 84,
                    "time": 215.25766200000052,
                    "velocity": 0.6614173228346457,
                    "duration": 0.19587622500000634
                },
                {
                    "name": "F#6",
                    "midi": 90,
                    "time": 215.25766200000052,
                    "velocity": 0.7795275590551181,
                    "duration": 0.19587622500000634
                },
                {
                    "name": "D#6",
                    "midi": 87,
                    "time": 215.46384750000053,
                    "velocity": 0.6220472440944882,
                    "duration": 0.19587622500000634
                },
                {
                    "name": "F#5",
                    "midi": 78,
                    "time": 215.46384750000053,
                    "velocity": 0.6220472440944882,
                    "duration": 0.19587622500000634
                },
                {
                    "name": "C6",
                    "midi": 84,
                    "time": 215.46384750000053,
                    "velocity": 0.6220472440944882,
                    "duration": 0.19587622500000634
                },
                {
                    "name": "F#6",
                    "midi": 90,
                    "time": 215.46384750000053,
                    "velocity": 0.7480314960629921,
                    "duration": 0.19587622500000634
                },
                {
                    "name": "D#6",
                    "midi": 87,
                    "time": 215.67003300000053,
                    "velocity": 0.6456692913385826,
                    "duration": 0.19587622500000634
                },
                {
                    "name": "F#5",
                    "midi": 78,
                    "time": 215.67003300000053,
                    "velocity": 0.6456692913385826,
                    "duration": 0.19587622500000634
                },
                {
                    "name": "C6",
                    "midi": 84,
                    "time": 215.67003300000053,
                    "velocity": 0.6456692913385826,
                    "duration": 0.19587622500000634
                },
                {
                    "name": "F#6",
                    "midi": 90,
                    "time": 215.67003300000053,
                    "velocity": 0.7637795275590551,
                    "duration": 0.19587622500000634
                },
                {
                    "name": "G5",
                    "midi": 79,
                    "time": 215.87621850000053,
                    "velocity": 0.6850393700787402,
                    "duration": 0.20618550000000369
                },
                {
                    "name": "C6",
                    "midi": 84,
                    "time": 215.87621850000053,
                    "velocity": 0.6850393700787402,
                    "duration": 0.20618550000000369
                },
                {
                    "name": "E6",
                    "midi": 88,
                    "time": 215.87621850000053,
                    "velocity": 0.6850393700787402,
                    "duration": 0.20618550000000369
                },
                {
                    "name": "G6",
                    "midi": 91,
                    "time": 215.87621850000053,
                    "velocity": 0.8110236220472441,
                    "duration": 0.20618550000000369
                },
                {
                    "name": "G6",
                    "midi": 91,
                    "time": 217.11333150000053,
                    "velocity": 0.8503937007874016,
                    "duration": 0.20618550000000369
                },
                {
                    "name": "G5",
                    "midi": 79,
                    "time": 217.11333150000053,
                    "velocity": 0.7165354330708661,
                    "duration": 0.20618550000000369
                },
                {
                    "name": "D6",
                    "midi": 86,
                    "time": 217.11333150000053,
                    "velocity": 0.7165354330708661,
                    "duration": 0.20618550000000369
                },
                {
                    "name": "B5",
                    "midi": 83,
                    "time": 217.11333150000053,
                    "velocity": 0.7165354330708661,
                    "duration": 0.20618550000000369
                }
            ],
            "controlChanges": {
                "7": [
                    {
                        "number": 7,
                        "time": 0,
                        "value": 0.7874015748031497
                    }
                ],
                "10": [
                    {
                        "number": 10,
                        "time": 0,
                        "value": 0.5039370078740157
                    }
                ],
                "91": [
                    {
                        "number": 91,
                        "time": 0,
                        "value": 1
                    },
                    {
                        "number": 91,
                        "time": 0.6185565,
                        "value": 1
                    },
                    {
                        "number": 91,
                        "time": 4.329895500000001,
                        "value": 1
                    },
                    {
                        "number": 91,
                        "time": 8.041234500000002,
                        "value": 1
                    },
                    {
                        "number": 91,
                        "time": 9.278347500000002,
                        "value": 1
                    },
                    {
                        "number": 91,
                        "time": 10.515460500000003,
                        "value": 1
                    },
                    {
                        "number": 91,
                        "time": 11.134017000000004,
                        "value": 1
                    },
                    {
                        "number": 91,
                        "time": 11.752573500000004,
                        "value": 1
                    },
                    {
                        "number": 91,
                        "time": 12.371130000000004,
                        "value": 1
                    },
                    {
                        "number": 91,
                        "time": 12.989686500000005,
                        "value": 1
                    },
                    {
                        "number": 91,
                        "time": 21.649477499999946,
                        "value": 1
                    },
                    {
                        "number": 91,
                        "time": 25.360816499999903,
                        "value": 1
                    },
                    {
                        "number": 91,
                        "time": 83.50512750000051,
                        "value": 1
                    },
                    {
                        "number": 91,
                        "time": 87.21646650000056,
                        "value": 1
                    },
                    {
                        "number": 91,
                        "time": 88.45357950000059,
                        "value": 1
                    },
                    {
                        "number": 91,
                        "time": 89.69069250000061,
                        "value": 1
                    },
                    {
                        "number": 91,
                        "time": 90.30924900000062,
                        "value": 1
                    },
                    {
                        "number": 91,
                        "time": 90.92780550000063,
                        "value": 1
                    },
                    {
                        "number": 91,
                        "time": 91.54636200000064,
                        "value": 1
                    },
                    {
                        "number": 91,
                        "time": 92.16491850000065,
                        "value": 1
                    },
                    {
                        "number": 91,
                        "time": 173.81437650000169,
                        "value": 1
                    },
                    {
                        "number": 91,
                        "time": 177.52571550000172,
                        "value": 1
                    }
                ]
            },
            "id": 1,
            "name": "Piano right",
            "instrumentNumber": 0,
            "instrument": "acoustic grand piano",
            "instrumentFamily": "piano",
            "channelNumber": 0,
            "isPercussion": false
        },
        {
            "startTime": 0,
            "duration": 217.319517000001,
            "length": 1494,
            "notes": [
                {
                    "name": "G3",
                    "midi": 55,
                    "time": 0,
                    "velocity": 0.5826771653543307,
                    "duration": 0.10309275
                },
                {
                    "name": "G#3",
                    "midi": 56,
                    "time": 0.10309275,
                    "velocity": 0.5275590551181102,
                    "duration": 0.10309275
                },
                {
                    "name": "D#3",
                    "midi": 51,
                    "time": 0.2061855,
                    "velocity": 0.5511811023622047,
                    "duration": 0.10309274999999998
                },
                {
                    "name": "C3",
                    "midi": 48,
                    "time": 0.30927825,
                    "velocity": 0.5275590551181102,
                    "duration": 0.10309275000000001
                },
                {
                    "name": "G#2",
                    "midi": 44,
                    "time": 0.412371,
                    "velocity": 0.5511811023622047,
                    "duration": 0.10309275000000001
                },
                {
                    "name": "G3",
                    "midi": 55,
                    "time": 0.6185565,
                    "velocity": 0.5748031496062992,
                    "duration": 0.10309274999999996
                },
                {
                    "name": "G#3",
                    "midi": 56,
                    "time": 0.7216492499999999,
                    "velocity": 0.5275590551181102,
                    "duration": 0.10309274999999996
                },
                {
                    "name": "D#3",
                    "midi": 51,
                    "time": 0.8247419999999999,
                    "velocity": 0.5511811023622047,
                    "duration": 0.10309274999999996
                },
                {
                    "name": "C3",
                    "midi": 48,
                    "time": 0.9278347499999998,
                    "velocity": 0.5275590551181102,
                    "duration": 0.10309274999999996
                },
                {
                    "name": "G#2",
                    "midi": 44,
                    "time": 1.0309274999999998,
                    "velocity": 0.5511811023622047,
                    "duration": 0.10309275000000007
                },
                {
                    "name": "G#2",
                    "midi": 44,
                    "time": 1.237113,
                    "velocity": 0.48031496062992124,
                    "duration": 0.30927825
                },
                {
                    "name": "D#3",
                    "midi": 51,
                    "time": 1.237113,
                    "velocity": 0.48031496062992124,
                    "duration": 0.30927825
                },
                {
                    "name": "G#3",
                    "midi": 56,
                    "time": 1.237113,
                    "velocity": 0.5669291338582677,
                    "duration": 0.30927825
                },
                {
                    "name": "G#2",
                    "midi": 44,
                    "time": 1.5463912499999999,
                    "velocity": 0.4409448818897638,
                    "duration": 0.09793811250000006
                },
                {
                    "name": "D#3",
                    "midi": 51,
                    "time": 1.5463912499999999,
                    "velocity": 0.4409448818897638,
                    "duration": 0.09793811250000006
                },
                {
                    "name": "G#3",
                    "midi": 56,
                    "time": 1.5463912499999999,
                    "velocity": 0.5275590551181102,
                    "duration": 0.09793811250000006
                },
                {
                    "name": "G#2",
                    "midi": 44,
                    "time": 1.649484,
                    "velocity": 0.4881889763779528,
                    "duration": 0.10309275000000007
                },
                {
                    "name": "D#3",
                    "midi": 51,
                    "time": 1.649484,
                    "velocity": 0.4881889763779528,
                    "duration": 0.10309275000000007
                },
                {
                    "name": "G#3",
                    "midi": 56,
                    "time": 1.649484,
                    "velocity": 0.5748031496062992,
                    "duration": 0.10309275000000007
                },
                {
                    "name": "G#2",
                    "midi": 44,
                    "time": 1.8556695,
                    "velocity": 0.48031496062992124,
                    "duration": 0.30927825
                },
                {
                    "name": "D#3",
                    "midi": 51,
                    "time": 1.8556695,
                    "velocity": 0.48031496062992124,
                    "duration": 0.30927825
                },
                {
                    "name": "G#3",
                    "midi": 56,
                    "time": 1.8556695,
                    "velocity": 0.5669291338582677,
                    "duration": 0.30927825
                },
                {
                    "name": "G#2",
                    "midi": 44,
                    "time": 2.16494775,
                    "velocity": 0.4409448818897638,
                    "duration": 0.09793811250000006
                },
                {
                    "name": "D#3",
                    "midi": 51,
                    "time": 2.16494775,
                    "velocity": 0.4409448818897638,
                    "duration": 0.09793811250000006
                },
                {
                    "name": "G#3",
                    "midi": 56,
                    "time": 2.16494775,
                    "velocity": 0.5275590551181102,
                    "duration": 0.09793811250000006
                },
                {
                    "name": "G#2",
                    "midi": 44,
                    "time": 2.2680405,
                    "velocity": 0.4881889763779528,
                    "duration": 0.10309275000000007
                },
                {
                    "name": "D#3",
                    "midi": 51,
                    "time": 2.2680405,
                    "velocity": 0.4881889763779528,
                    "duration": 0.10309275000000007
                },
                {
                    "name": "G#3",
                    "midi": 56,
                    "time": 2.2680405,
                    "velocity": 0.5748031496062992,
                    "duration": 0.10309275000000007
                },
                {
                    "name": "G#2",
                    "midi": 44,
                    "time": 2.4742260000000003,
                    "velocity": 0.4881889763779528,
                    "duration": 0.20618550000000013
                },
                {
                    "name": "D#3",
                    "midi": 51,
                    "time": 2.4742260000000003,
                    "velocity": 0.4881889763779528,
                    "duration": 0.20618550000000013
                },
                {
                    "name": "G#3",
                    "midi": 56,
                    "time": 2.4742260000000003,
                    "velocity": 0.5826771653543307,
                    "duration": 0.20618550000000013
                },
                {
                    "name": "D#4",
                    "midi": 63,
                    "time": 3.7113390000000006,
                    "velocity": 0.5826771653543307,
                    "duration": 0.05154637500000003
                },
                {
                    "name": "C#4",
                    "midi": 61,
                    "time": 3.7113390000000006,
                    "velocity": 0.4881889763779528,
                    "duration": 0.05154637500000003
                },
                {
                    "name": "G3",
                    "midi": 55,
                    "time": 3.7113390000000006,
                    "velocity": 0.4881889763779528,
                    "duration": 0.05154637500000003
                },
                {
                    "name": "D#4",
                    "midi": 63,
                    "time": 3.9175245000000007,
                    "velocity": 0.5826771653543307,
                    "duration": 0.41237100000000027
                },
                {
                    "name": "C#4",
                    "midi": 61,
                    "time": 3.9175245000000007,
                    "velocity": 0.4881889763779528,
                    "duration": 0.41237100000000027
                },
                {
                    "name": "G3",
                    "midi": 55,
                    "time": 3.9175245000000007,
                    "velocity": 0.4881889763779528,
                    "duration": 0.41237100000000027
                },
                {
                    "name": "D3",
                    "midi": 50,
                    "time": 4.329895500000001,
                    "velocity": 0.5748031496062992,
                    "duration": 0.10309275000000007
                },
                {
                    "name": "D#3",
                    "midi": 51,
                    "time": 4.432988250000001,
                    "velocity": 0.5275590551181102,
                    "duration": 0.10309275000000007
                },
                {
                    "name": "A#2",
                    "midi": 46,
                    "time": 4.536081000000001,
                    "velocity": 0.5511811023622047,
                    "duration": 0.10309275000000007
                },
                {
                    "name": "G2",
                    "midi": 43,
                    "time": 4.639173750000001,
                    "velocity": 0.5275590551181102,
                    "duration": 0.10309275000000007
                },
                {
                    "name": "D#2",
                    "midi": 39,
                    "time": 4.742266500000001,
                    "velocity": 0.5511811023622047,
                    "duration": 0.10309275000000007
                },
                {
                    "name": "A#2",
                    "midi": 46,
                    "time": 4.948452000000001,
                    "velocity": 0.48031496062992124,
                    "duration": 0.3092782500000002
                },
                {
                    "name": "D#3",
                    "midi": 51,
                    "time": 4.948452000000001,
                    "velocity": 0.48031496062992124,
                    "duration": 0.3092782500000002
                },
                {
                    "name": "A#3",
                    "midi": 58,
                    "time": 4.948452000000001,
                    "velocity": 0.5669291338582677,
                    "duration": 0.3092782500000002
                },
                {
                    "name": "A#2",
                    "midi": 46,
                    "time": 5.257730250000002,
                    "velocity": 0.4409448818897638,
                    "duration": 0.09793811249999962
                },
                {
                    "name": "D#3",
                    "midi": 51,
                    "time": 5.257730250000002,
                    "velocity": 0.4409448818897638,
                    "duration": 0.09793811249999962
                },
                {
                    "name": "A#3",
                    "midi": 58,
                    "time": 5.257730250000002,
                    "velocity": 0.5275590551181102,
                    "duration": 0.09793811249999962
                },
                {
                    "name": "A#2",
                    "midi": 46,
                    "time": 5.360823000000001,
                    "velocity": 0.4881889763779528,
                    "duration": 0.10309275000000007
                },
                {
                    "name": "D#3",
                    "midi": 51,
                    "time": 5.360823000000001,
                    "velocity": 0.4881889763779528,
                    "duration": 0.10309275000000007
                },
                {
                    "name": "A#3",
                    "midi": 58,
                    "time": 5.360823000000001,
                    "velocity": 0.5748031496062992,
                    "duration": 0.10309275000000007
                },
                {
                    "name": "A#2",
                    "midi": 46,
                    "time": 5.567008500000001,
                    "velocity": 0.48031496062992124,
                    "duration": 0.3092782499999993
                },
                {
                    "name": "D#3",
                    "midi": 51,
                    "time": 5.567008500000001,
                    "velocity": 0.48031496062992124,
                    "duration": 0.3092782499999993
                },
                {
                    "name": "A#3",
                    "midi": 58,
                    "time": 5.567008500000001,
                    "velocity": 0.5669291338582677,
                    "duration": 0.3092782499999993
                },
                {
                    "name": "A#2",
                    "midi": 46,
                    "time": 5.87628675,
                    "velocity": 0.4409448818897638,
                    "duration": 0.09793811249999962
                },
                {
                    "name": "D#3",
                    "midi": 51,
                    "time": 5.87628675,
                    "velocity": 0.4409448818897638,
                    "duration": 0.09793811249999962
                },
                {
                    "name": "A#3",
                    "midi": 58,
                    "time": 5.87628675,
                    "velocity": 0.5275590551181102,
                    "duration": 0.09793811249999962
                },
                {
                    "name": "A#2",
                    "midi": 46,
                    "time": 5.979379499999999,
                    "velocity": 0.4881889763779528,
                    "duration": 0.10309275000000007
                },
                {
                    "name": "D#3",
                    "midi": 51,
                    "time": 5.979379499999999,
                    "velocity": 0.4881889763779528,
                    "duration": 0.10309275000000007
                },
                {
                    "name": "A#3",
                    "midi": 58,
                    "time": 5.979379499999999,
                    "velocity": 0.5748031496062992,
                    "duration": 0.10309275000000007
                },
                {
                    "name": "A#2",
                    "midi": 46,
                    "time": 6.1855649999999995,
                    "velocity": 0.4881889763779528,
                    "duration": 0.20618550000000013
                },
                {
                    "name": "D#3",
                    "midi": 51,
                    "time": 6.1855649999999995,
                    "velocity": 0.4881889763779528,
                    "duration": 0.20618550000000013
                },
                {
                    "name": "A#3",
                    "midi": 58,
                    "time": 6.1855649999999995,
                    "velocity": 0.5826771653543307,
                    "duration": 0.20618550000000013
                },
                {
                    "name": "G4",
                    "midi": 67,
                    "time": 7.422677999999999,
                    "velocity": 0.5826771653543307,
                    "duration": 0.05154637500000003
                },
                {
                    "name": "D#4",
                    "midi": 63,
                    "time": 7.422677999999999,
                    "velocity": 0.4881889763779528,
                    "duration": 0.05154637500000003
                },
                {
                    "name": "G#3",
                    "midi": 56,
                    "time": 7.422677999999999,
                    "velocity": 0.4881889763779528,
                    "duration": 0.05154637500000003
                },
                {
                    "name": "G#4",
                    "midi": 68,
                    "time": 7.6288635,
                    "velocity": 0.5826771653543307,
                    "duration": 0.41237100000000027
                },
                {
                    "name": "D#4",
                    "midi": 63,
                    "time": 7.6288635,
                    "velocity": 0.4881889763779528,
                    "duration": 0.41237100000000027
                },
                {
                    "name": "G#3",
                    "midi": 56,
                    "time": 7.6288635,
                    "velocity": 0.4881889763779528,
                    "duration": 0.41237100000000027
                },
                {
                    "name": "G3",
                    "midi": 55,
                    "time": 8.0412345,
                    "velocity": 0.5748031496062992,
                    "duration": 0.10309275000000007
                },
                {
                    "name": "G#3",
                    "midi": 56,
                    "time": 8.14432725,
                    "velocity": 0.5275590551181102,
                    "duration": 0.10309275000000007
                },
                {
                    "name": "D#3",
                    "midi": 51,
                    "time": 8.24742,
                    "velocity": 0.5511811023622047,
                    "duration": 0.10309275000000007
                },
                {
                    "name": "C3",
                    "midi": 48,
                    "time": 8.35051275,
                    "velocity": 0.5275590551181102,
                    "duration": 0.10309275000000007
                },
                {
                    "name": "G#2",
                    "midi": 44,
                    "time": 8.4536055,
                    "velocity": 0.5511811023622047,
                    "duration": 0.10309275000000007
                },
                {
                    "name": "G#2",
                    "midi": 44,
                    "time": 8.659791,
                    "velocity": 0.5748031496062992,
                    "duration": 0.10309275000000007
                },
                {
                    "name": "A2",
                    "midi": 45,
                    "time": 8.76288375,
                    "velocity": 0.5590551181102362,
                    "duration": 0.10309275000000007
                },
                {
                    "name": "A#2",
                    "midi": 46,
                    "time": 8.8659765,
                    "velocity": 0.5905511811023622,
                    "duration": 0.10309275000000007
                },
                {
                    "name": "B2",
                    "midi": 47,
                    "time": 8.96906925,
                    "velocity": 0.6220472440944882,
                    "duration": 0.10309275000000007
                },
                {
                    "name": "C3",
                    "midi": 48,
                    "time": 9.072162,
                    "velocity": 0.6535433070866141,
                    "duration": 0.10309275000000007
                },
                {
                    "name": "C#3",
                    "midi": 49,
                    "time": 9.2783475,
                    "velocity": 0.5748031496062992,
                    "duration": 0.10309275000000007
                },
                {
                    "name": "C#4",
                    "midi": 61,
                    "time": 9.38144025,
                    "velocity": 0.5275590551181102,
                    "duration": 0.10309275000000007
                },
                {
                    "name": "G#3",
                    "midi": 56,
                    "time": 9.484533,
                    "velocity": 0.5511811023622047,
                    "duration": 0.10309275000000007
                },
                {
                    "name": "F3",
                    "midi": 53,
                    "time": 9.58762575,
                    "velocity": 0.5275590551181102,
                    "duration": 0.10309275000000007
                },
                {
                    "name": "C#3",
                    "midi": 49,
                    "time": 9.690718500000001,
                    "velocity": 0.5511811023622047,
                    "duration": 0.10309275000000007
                },
                {
                    "name": "F2",
                    "midi": 41,
                    "time": 9.896904000000001,
                    "velocity": 0.5748031496062992,
                    "duration": 0.10309275000000007
                },
                {
                    "name": "F#2",
                    "midi": 42,
                    "time": 9.999996750000001,
                    "velocity": 0.5590551181102362,
                    "duration": 0.10309275000000007
                },
                {
                    "name": "G2",
                    "midi": 43,
                    "time": 10.103089500000001,
                    "velocity": 0.5826771653543307,
                    "duration": 0.10309275000000007
                },
                {
                    "name": "G#2",
                    "midi": 44,
                    "time": 10.206182250000001,
                    "velocity": 0.6062992125984252,
                    "duration": 0.10309275000000007
                },
                {
                    "name": "A2",
                    "midi": 45,
                    "time": 10.309275000000001,
                    "velocity": 0.6299212598425197,
                    "duration": 0.10309275000000007
                },
                {
                    "name": "A#2",
                    "midi": 46,
                    "time": 10.515460500000001,
                    "velocity": 0.5748031496062992,
                    "duration": 0.10309275000000007
                },
                {
                    "name": "A#3",
                    "midi": 58,
                    "time": 10.618553250000001,
                    "velocity": 0.5275590551181102,
                    "duration": 0.10309275000000007
                },
                {
                    "name": "F3",
                    "midi": 53,
                    "time": 10.721646000000002,
                    "velocity": 0.5511811023622047,
                    "duration": 0.10309275000000007
                },
                {
                    "name": "C#3",
                    "midi": 49,
                    "time": 10.824738750000002,
                    "velocity": 0.5275590551181102,
                    "duration": 0.10309275000000007
                },
                {
                    "name": "A#2",
                    "midi": 46,
                    "time": 10.927831500000002,
                    "velocity": 0.5511811023622047,
                    "duration": 0.10309275000000007
                },
                {
                    "name": "G2",
                    "midi": 43,
                    "time": 11.134017000000002,
                    "velocity": 0.29133858267716534,
                    "duration": 0.41237100000000027
                },
                {
                    "name": "G3",
                    "midi": 55,
                    "time": 11.134017000000002,
                    "velocity": 0.3543307086614173,
                    "duration": 0.41237100000000027
                },
                {
                    "name": "E4",
                    "midi": 64,
                    "time": 11.546388000000002,
                    "velocity": 0.29133858267716534,
                    "duration": 0.10309275000000007
                },
                {
                    "name": "C#4",
                    "midi": 61,
                    "time": 11.546388000000002,
                    "velocity": 0.2440944881889764,
                    "duration": 0.10309275000000007
                },
                {
                    "name": "A#3",
                    "midi": 58,
                    "time": 11.546388000000002,
                    "velocity": 0.2440944881889764,
                    "duration": 0.10309275000000007
                },
                {
                    "name": "G3",
                    "midi": 55,
                    "time": 11.546388000000002,
                    "velocity": 0.2440944881889764,
                    "duration": 0.10309275000000007
                },
                {
                    "name": "G#2",
                    "midi": 44,
                    "time": 11.752573500000002,
                    "velocity": 0.29133858267716534,
                    "duration": 0.41237100000000027
                },
                {
                    "name": "G#3",
                    "midi": 56,
                    "time": 11.752573500000002,
                    "velocity": 0.3543307086614173,
                    "duration": 0.41237100000000027
                },
                {
                    "name": "D#4",
                    "midi": 63,
                    "time": 12.164944500000002,
                    "velocity": 0.29133858267716534,
                    "duration": 0.10309275000000007
                },
                {
                    "name": "C4",
                    "midi": 60,
                    "time": 12.164944500000002,
                    "velocity": 0.2440944881889764,
                    "duration": 0.10309275000000007
                },
                {
                    "name": "G#3",
                    "midi": 56,
                    "time": 12.164944500000002,
                    "velocity": 0.2440944881889764,
                    "duration": 0.10309275000000007
                },
                {
                    "name": "A#1",
                    "midi": 34,
                    "time": 12.371130000000003,
                    "velocity": 0.3228346456692913,
                    "duration": 0.41237100000000027
                },
                {
                    "name": "A#2",
                    "midi": 46,
                    "time": 12.371130000000003,
                    "velocity": 0.3858267716535433,
                    "duration": 0.41237100000000027
                },
                {
                    "name": "G3",
                    "midi": 55,
                    "time": 12.783501000000003,
                    "velocity": 0.3228346456692913,
                    "duration": 0.10309275000000007
                },
                {
                    "name": "C#3",
                    "midi": 49,
                    "time": 12.783501000000003,
                    "velocity": 0.2677165354330709,
                    "duration": 0.10309275000000007
                },
                {
                    "name": "A#2",
                    "midi": 46,
                    "time": 12.783501000000003,
                    "velocity": 0.2677165354330709,
                    "duration": 0.10309275000000007
                },
                {
                    "name": "B1",
                    "midi": 35,
                    "time": 12.989686500000003,
                    "velocity": 0.3543307086614173,
                    "duration": 0.41237100000000027
                },
                {
                    "name": "B2",
                    "midi": 47,
                    "time": 12.989686500000003,
                    "velocity": 0.4251968503937008,
                    "duration": 0.41237100000000027
                },
                {
                    "name": "G#3",
                    "midi": 56,
                    "time": 13.402057500000003,
                    "velocity": 0.3543307086614173,
                    "duration": 0.10309275000000007
                },
                {
                    "name": "D#3",
                    "midi": 51,
                    "time": 13.402057500000003,
                    "velocity": 0.29133858267716534,
                    "duration": 0.10309275000000007
                },
                {
                    "name": "B2",
                    "midi": 47,
                    "time": 13.402057500000003,
                    "velocity": 0.29133858267716534,
                    "duration": 0.10309275000000007
                },
                {
                    "name": "E2",
                    "midi": 40,
                    "time": 13.608243000000003,
                    "velocity": 0.25196850393700787,
                    "duration": 0.10309275000000007
                },
                {
                    "name": "E3",
                    "midi": 52,
                    "time": 13.711335750000003,
                    "velocity": 0.2992125984251969,
                    "duration": 0.10309275000000007
                },
                {
                    "name": "E2",
                    "midi": 40,
                    "time": 13.814428500000004,
                    "velocity": 0.31496062992125984,
                    "duration": 0.10309275000000007
                },
                {
                    "name": "E3",
                    "midi": 52,
                    "time": 13.917521250000004,
                    "velocity": 0.3228346456692913,
                    "duration": 0.10309275000000007
                },
                {
                    "name": "E2",
                    "midi": 40,
                    "time": 14.020614000000004,
                    "velocity": 0.33858267716535434,
                    "duration": 0.10309275000000007
                },
                {
                    "name": "E3",
                    "midi": 52,
                    "time": 14.123706750000004,
                    "velocity": 0.3543307086614173,
                    "duration": 0.10309275000000007
                },
                {
                    "name": "E2",
                    "midi": 40,
                    "time": 14.226799500000004,
                    "velocity": 0.3700787401574803,
                    "duration": 0.10309275000000007
                },
                {
                    "name": "E3",
                    "midi": 52,
                    "time": 14.329892250000004,
                    "velocity": 0.3779527559055118,
                    "duration": 0.10309275000000007
                },
                {
                    "name": "E2",
                    "midi": 40,
                    "time": 14.432985000000004,
                    "velocity": 0.3937007874015748,
                    "duration": 0.10309275000000007
                },
                {
                    "name": "E3",
                    "midi": 52,
                    "time": 14.536077750000004,
                    "velocity": 0.4094488188976378,
                    "duration": 0.10309275000000007
                },
                {
                    "name": "E2",
                    "midi": 40,
                    "time": 14.639170500000004,
                    "velocity": 0.4251968503937008,
                    "duration": 0.10309275000000007
                },
                {
                    "name": "E3",
                    "midi": 52,
                    "time": 14.742263250000004,
                    "velocity": 0.4330708661417323,
                    "duration": 0.10309275000000007
                },
                {
                    "name": "F2",
                    "midi": 41,
                    "time": 14.845356000000004,
                    "velocity": 0.44881889763779526,
                    "duration": 0.10309275000000007
                },
                {
                    "name": "F#2",
                    "midi": 42,
                    "time": 14.948448750000004,
                    "velocity": 0.4645669291338583,
                    "duration": 0.10309275000000007
                },
                {
                    "name": "G2",
                    "midi": 43,
                    "time": 15.051541500000004,
                    "velocity": 0.48031496062992124,
                    "duration": 0.10309275000000007
                },
                {
                    "name": "G#2",
                    "midi": 44,
                    "time": 15.154634250000004,
                    "velocity": 0.4881889763779528,
                    "duration": 0.10309275000000007
                },
                {
                    "name": "A2",
                    "midi": 45,
                    "time": 15.257727000000004,
                    "velocity": 0.5039370078740157,
                    "duration": 0.10309275000000007
                },
                {
                    "name": "A#2",
                    "midi": 46,
                    "time": 15.360819750000005,
                    "velocity": 0.5196850393700787,
                    "duration": 0.10309275000000007
                },
                {
                    "name": "B2",
                    "midi": 47,
                    "time": 15.463912500000005,
                    "velocity": 0.5354330708661418,
                    "duration": 0.10309275000000007
                },
                {
                    "name": "C3",
                    "midi": 48,
                    "time": 15.567005250000005,
                    "velocity": 0.5511811023622047,
                    "duration": 0.10309275000000007
                },
                {
                    "name": "C#3",
                    "midi": 49,
                    "time": 15.670098000000005,
                    "velocity": 0.5590551181102362,
                    "duration": 0.10309275000000007
                },
                {
                    "name": "D3",
                    "midi": 50,
                    "time": 15.773190750000005,
                    "velocity": 0.5748031496062992,
                    "duration": 0.10309275000000007
                },
                {
                    "name": "D#3",
                    "midi": 51,
                    "time": 15.876283500000005,
                    "velocity": 0.5905511811023622,
                    "duration": 0.10309275000000007
                },
                {
                    "name": "E3",
                    "midi": 52,
                    "time": 15.979376250000005,
                    "velocity": 0.6062992125984252,
                    "duration": 0.10309274999999829
                },
                {
                    "name": "E3",
                    "midi": 52,
                    "time": 16.082469000000003,
                    "velocity": 0.5669291338582677,
                    "duration": 0.20618550000000013
                },
                {
                    "name": "E4",
                    "midi": 64,
                    "time": 16.082469000000003,
                    "velocity": 0.6692913385826772,
                    "duration": 0.20618550000000013
                },
                {
                    "name": "E3",
                    "midi": 52,
                    "time": 16.288654500000003,
                    "velocity": 0.5118110236220472,
                    "duration": 0.10309274999999829
                },
                {
                    "name": "E4",
                    "midi": 64,
                    "time": 16.288654500000003,
                    "velocity": 0.6062992125984252,
                    "duration": 0.10309274999999829
                },
                {
                    "name": "E3",
                    "midi": 52,
                    "time": 16.49484,
                    "velocity": 0.5118110236220472,
                    "duration": 0.10309274999999829
                },
                {
                    "name": "E4",
                    "midi": 64,
                    "time": 16.49484,
                    "velocity": 0.6062992125984252,
                    "duration": 0.10309274999999829
                },
                {
                    "name": "E3",
                    "midi": 52,
                    "time": 16.701025499999997,
                    "velocity": 0.5669291338582677,
                    "duration": 0.10309274999999829
                },
                {
                    "name": "E4",
                    "midi": 64,
                    "time": 16.701025499999997,
                    "velocity": 0.6692913385826772,
                    "duration": 0.10309274999999829
                },
                {
                    "name": "E3",
                    "midi": 52,
                    "time": 16.907210999999993,
                    "velocity": 0.5118110236220472,
                    "duration": 0.10309274999999829
                },
                {
                    "name": "E4",
                    "midi": 64,
                    "time": 16.907210999999993,
                    "velocity": 0.6062992125984252,
                    "duration": 0.10309274999999829
                },
                {
                    "name": "E3",
                    "midi": 52,
                    "time": 17.11339649999999,
                    "velocity": 0.5118110236220472,
                    "duration": 0.10309274999999829
                },
                {
                    "name": "E4",
                    "midi": 64,
                    "time": 17.11339649999999,
                    "velocity": 0.6062992125984252,
                    "duration": 0.10309274999999829
                },
                {
                    "name": "D#3",
                    "midi": 51,
                    "time": 17.319581999999986,
                    "velocity": 0.5748031496062992,
                    "duration": 0.20618550000000013
                },
                {
                    "name": "D#4",
                    "midi": 63,
                    "time": 17.319581999999986,
                    "velocity": 0.6850393700787402,
                    "duration": 0.20618550000000013
                },
                {
                    "name": "D#2",
                    "midi": 39,
                    "time": 17.525767499999986,
                    "velocity": 0.5118110236220472,
                    "duration": 0.10309274999999829
                },
                {
                    "name": "D#3",
                    "midi": 51,
                    "time": 17.525767499999986,
                    "velocity": 0.6062992125984252,
                    "duration": 0.10309274999999829
                },
                {
                    "name": "D#2",
                    "midi": 39,
                    "time": 17.938138499999983,
                    "velocity": 0.44881889763779526,
                    "duration": 0.10309274999999829
                },
                {
                    "name": "D#3",
                    "midi": 51,
                    "time": 17.938138499999983,
                    "velocity": 0.5354330708661418,
                    "duration": 0.10309274999999829
                },
                {
                    "name": "D#1",
                    "midi": 27,
                    "time": 18.14432399999998,
                    "velocity": 0.4094488188976378,
                    "duration": 0.10309274999999829
                },
                {
                    "name": "D#2",
                    "midi": 39,
                    "time": 18.14432399999998,
                    "velocity": 0.48031496062992124,
                    "duration": 0.10309274999999829
                },
                {
                    "name": "G#2",
                    "midi": 44,
                    "time": 18.556694999999976,
                    "velocity": 0.28346456692913385,
                    "duration": 0.3092782499999984
                },
                {
                    "name": "D#3",
                    "midi": 51,
                    "time": 18.556694999999976,
                    "velocity": 0.28346456692913385,
                    "duration": 0.3092782499999984
                },
                {
                    "name": "G#3",
                    "midi": 56,
                    "time": 18.556694999999976,
                    "velocity": 0.33858267716535434,
                    "duration": 0.3092782499999984
                },
                {
                    "name": "G#2",
                    "midi": 44,
                    "time": 18.865973249999975,
                    "velocity": 0.25984251968503935,
                    "duration": 0.09793811249999962
                },
                {
                    "name": "D#3",
                    "midi": 51,
                    "time": 18.865973249999975,
                    "velocity": 0.25984251968503935,
                    "duration": 0.09793811249999962
                },
                {
                    "name": "G#3",
                    "midi": 56,
                    "time": 18.865973249999975,
                    "velocity": 0.31496062992125984,
                    "duration": 0.09793811249999962
                },
                {
                    "name": "G#2",
                    "midi": 44,
                    "time": 18.969065999999973,
                    "velocity": 0.29133858267716534,
                    "duration": 0.10309274999999829
                },
                {
                    "name": "D#3",
                    "midi": 51,
                    "time": 18.969065999999973,
                    "velocity": 0.29133858267716534,
                    "duration": 0.10309274999999829
                },
                {
                    "name": "G#3",
                    "midi": 56,
                    "time": 18.969065999999973,
                    "velocity": 0.33858267716535434,
                    "duration": 0.10309274999999829
                },
                {
                    "name": "G#2",
                    "midi": 44,
                    "time": 19.17525149999997,
                    "velocity": 0.28346456692913385,
                    "duration": 0.309278250000002
                },
                {
                    "name": "D#3",
                    "midi": 51,
                    "time": 19.17525149999997,
                    "velocity": 0.28346456692913385,
                    "duration": 0.309278250000002
                },
                {
                    "name": "G#3",
                    "midi": 56,
                    "time": 19.17525149999997,
                    "velocity": 0.33858267716535434,
                    "duration": 0.309278250000002
                },
                {
                    "name": "G#2",
                    "midi": 44,
                    "time": 19.48452974999997,
                    "velocity": 0.25984251968503935,
                    "duration": 0.09793811249999962
                },
                {
                    "name": "D#3",
                    "midi": 51,
                    "time": 19.48452974999997,
                    "velocity": 0.25984251968503935,
                    "duration": 0.09793811249999962
                },
                {
                    "name": "G#3",
                    "midi": 56,
                    "time": 19.48452974999997,
                    "velocity": 0.31496062992125984,
                    "duration": 0.09793811249999962
                },
                {
                    "name": "G#2",
                    "midi": 44,
                    "time": 19.58762249999997,
                    "velocity": 0.29133858267716534,
                    "duration": 0.10309274999999829
                },
                {
                    "name": "D#3",
                    "midi": 51,
                    "time": 19.58762249999997,
                    "velocity": 0.29133858267716534,
                    "duration": 0.10309274999999829
                },
                {
                    "name": "G#3",
                    "midi": 56,
                    "time": 19.58762249999997,
                    "velocity": 0.33858267716535434,
                    "duration": 0.10309274999999829
                },
                {
                    "name": "G#2",
                    "midi": 44,
                    "time": 19.793807999999967,
                    "velocity": 0.29133858267716534,
                    "duration": 0.20618550000000013
                },
                {
                    "name": "D#3",
                    "midi": 51,
                    "time": 19.793807999999967,
                    "velocity": 0.29133858267716534,
                    "duration": 0.20618550000000013
                },
                {
                    "name": "G#3",
                    "midi": 56,
                    "time": 19.793807999999967,
                    "velocity": 0.3464566929133858,
                    "duration": 0.20618550000000013
                },
                {
                    "name": "D#4",
                    "midi": 63,
                    "time": 21.030920999999967,
                    "velocity": 0.3464566929133858,
                    "duration": 0.05154637500000092
                },
                {
                    "name": "C#4",
                    "midi": 61,
                    "time": 21.030920999999967,
                    "velocity": 0.29133858267716534,
                    "duration": 0.05154637500000092
                },
                {
                    "name": "G3",
                    "midi": 55,
                    "time": 21.030920999999967,
                    "velocity": 0.29133858267716534,
                    "duration": 0.05154637500000092
                },
                {
                    "name": "D#4",
                    "midi": 63,
                    "time": 21.237106499999967,
                    "velocity": 0.3464566929133858,
                    "duration": 0.41237100000000027
                },
                {
                    "name": "C#4",
                    "midi": 61,
                    "time": 21.237106499999967,
                    "velocity": 0.29133858267716534,
                    "duration": 0.41237100000000027
                },
                {
                    "name": "G3",
                    "midi": 55,
                    "time": 21.237106499999967,
                    "velocity": 0.29133858267716534,
                    "duration": 0.41237100000000027
                },
                {
                    "name": "D3",
                    "midi": 50,
                    "time": 21.649477499999968,
                    "velocity": 0.33858267716535434,
                    "duration": 0.10309274999999829
                },
                {
                    "name": "D#3",
                    "midi": 51,
                    "time": 21.752570249999966,
                    "velocity": 0.31496062992125984,
                    "duration": 0.10309274999999829
                },
                {
                    "name": "A#2",
                    "midi": 46,
                    "time": 21.855662999999964,
                    "velocity": 0.33070866141732286,
                    "duration": 0.10309274999999829
                },
                {
                    "name": "G2",
                    "midi": 43,
                    "time": 21.958755749999963,
                    "velocity": 0.31496062992125984,
                    "duration": 0.10309274999999829
                },
                {
                    "name": "D#2",
                    "midi": 39,
                    "time": 22.06184849999996,
                    "velocity": 0.33070866141732286,
                    "duration": 0.10309274999999829
                },
                {
                    "name": "A#2",
                    "midi": 46,
                    "time": 22.268033999999957,
                    "velocity": 0.28346456692913385,
                    "duration": 0.3092782499999984
                },
                {
                    "name": "D#3",
                    "midi": 51,
                    "time": 22.268033999999957,
                    "velocity": 0.28346456692913385,
                    "duration": 0.3092782499999984
                },
                {
                    "name": "A#3",
                    "midi": 58,
                    "time": 22.268033999999957,
                    "velocity": 0.33858267716535434,
                    "duration": 0.3092782499999984
                },
                {
                    "name": "A#2",
                    "midi": 46,
                    "time": 22.577312249999956,
                    "velocity": 0.25984251968503935,
                    "duration": 0.09793811249999962
                },
                {
                    "name": "D#3",
                    "midi": 51,
                    "time": 22.577312249999956,
                    "velocity": 0.25984251968503935,
                    "duration": 0.09793811249999962
                },
                {
                    "name": "A#3",
                    "midi": 58,
                    "time": 22.577312249999956,
                    "velocity": 0.31496062992125984,
                    "duration": 0.09793811249999962
                },
                {
                    "name": "A#2",
                    "midi": 46,
                    "time": 22.680404999999954,
                    "velocity": 0.29133858267716534,
                    "duration": 0.10309274999999829
                },
                {
                    "name": "D#3",
                    "midi": 51,
                    "time": 22.680404999999954,
                    "velocity": 0.29133858267716534,
                    "duration": 0.10309274999999829
                },
                {
                    "name": "A#3",
                    "midi": 58,
                    "time": 22.680404999999954,
                    "velocity": 0.33858267716535434,
                    "duration": 0.10309274999999829
                },
                {
                    "name": "A#2",
                    "midi": 46,
                    "time": 22.88659049999995,
                    "velocity": 0.28346456692913385,
                    "duration": 0.309278250000002
                },
                {
                    "name": "D#3",
                    "midi": 51,
                    "time": 22.88659049999995,
                    "velocity": 0.28346456692913385,
                    "duration": 0.309278250000002
                },
                {
                    "name": "A#3",
                    "midi": 58,
                    "time": 22.88659049999995,
                    "velocity": 0.33858267716535434,
                    "duration": 0.309278250000002
                },
                {
                    "name": "A#2",
                    "midi": 46,
                    "time": 23.195868749999953,
                    "velocity": 0.25984251968503935,
                    "duration": 0.09793811249999962
                },
                {
                    "name": "D#3",
                    "midi": 51,
                    "time": 23.195868749999953,
                    "velocity": 0.25984251968503935,
                    "duration": 0.09793811249999962
                },
                {
                    "name": "A#3",
                    "midi": 58,
                    "time": 23.195868749999953,
                    "velocity": 0.31496062992125984,
                    "duration": 0.09793811249999962
                },
                {
                    "name": "A#2",
                    "midi": 46,
                    "time": 23.29896149999995,
                    "velocity": 0.29133858267716534,
                    "duration": 0.10309274999999829
                },
                {
                    "name": "D#3",
                    "midi": 51,
                    "time": 23.29896149999995,
                    "velocity": 0.29133858267716534,
                    "duration": 0.10309274999999829
                },
                {
                    "name": "A#3",
                    "midi": 58,
                    "time": 23.29896149999995,
                    "velocity": 0.33858267716535434,
                    "duration": 0.10309274999999829
                },
                {
                    "name": "A#2",
                    "midi": 46,
                    "time": 23.505146999999948,
                    "velocity": 0.29133858267716534,
                    "duration": 0.20618550000000013
                },
                {
                    "name": "D#3",
                    "midi": 51,
                    "time": 23.505146999999948,
                    "velocity": 0.29133858267716534,
                    "duration": 0.20618550000000013
                },
                {
                    "name": "A#3",
                    "midi": 58,
                    "time": 23.505146999999948,
                    "velocity": 0.3464566929133858,
                    "duration": 0.20618550000000013
                },
                {
                    "name": "G4",
                    "midi": 67,
                    "time": 24.74225999999995,
                    "velocity": 0.3464566929133858,
                    "duration": 0.05154637500000092
                },
                {
                    "name": "D#4",
                    "midi": 63,
                    "time": 24.74225999999995,
                    "velocity": 0.29133858267716534,
                    "duration": 0.05154637500000092
                },
                {
                    "name": "G#3",
                    "midi": 56,
                    "time": 24.74225999999995,
                    "velocity": 0.29133858267716534,
                    "duration": 0.05154637500000092
                },
                {
                    "name": "G#4",
                    "midi": 68,
                    "time": 24.94844549999995,
                    "velocity": 0.3464566929133858,
                    "duration": 0.41237100000000027
                },
                {
                    "name": "D#4",
                    "midi": 63,
                    "time": 24.94844549999995,
                    "velocity": 0.29133858267716534,
                    "duration": 0.41237100000000027
                },
                {
                    "name": "G#3",
                    "midi": 56,
                    "time": 24.94844549999995,
                    "velocity": 0.29133858267716534,
                    "duration": 0.41237100000000027
                },
                {
                    "name": "G3",
                    "midi": 55,
                    "time": 25.36081649999995,
                    "velocity": 0.33858267716535434,
                    "duration": 0.10309274999999829
                },
                {
                    "name": "G#3",
                    "midi": 56,
                    "time": 25.463909249999947,
                    "velocity": 0.31496062992125984,
                    "duration": 0.10309274999999829
                },
                {
                    "name": "D#3",
                    "midi": 51,
                    "time": 25.567001999999945,
                    "velocity": 0.33070866141732286,
                    "duration": 0.10309274999999829
                },
                {
                    "name": "C3",
                    "midi": 48,
                    "time": 25.670094749999944,
                    "velocity": 0.31496062992125984,
                    "duration": 0.10309274999999829
                },
                {
                    "name": "G#2",
                    "midi": 44,
                    "time": 25.773187499999942,
                    "velocity": 0.33070866141732286,
                    "duration": 0.10309274999999829
                },
                {
                    "name": "F#3",
                    "midi": 54,
                    "time": 25.97937299999994,
                    "velocity": 0.28346456692913385,
                    "duration": 0.3092782499999984
                },
                {
                    "name": "G#3",
                    "midi": 56,
                    "time": 25.97937299999994,
                    "velocity": 0.28346456692913385,
                    "duration": 0.3092782499999984
                },
                {
                    "name": "D#4",
                    "midi": 63,
                    "time": 25.97937299999994,
                    "velocity": 0.33858267716535434,
                    "duration": 0.3092782499999984
                },
                {
                    "name": "F#3",
                    "midi": 54,
                    "time": 26.288651249999937,
                    "velocity": 0.2283464566929134,
                    "duration": 0.10309274999999829
                },
                {
                    "name": "G#3",
                    "midi": 56,
                    "time": 26.288651249999937,
                    "velocity": 0.2283464566929134,
                    "duration": 0.10309274999999829
                },
                {
                    "name": "D#4",
                    "midi": 63,
                    "time": 26.288651249999937,
                    "velocity": 0.2755905511811024,
                    "duration": 0.10309274999999829
                },
                {
                    "name": "F#3",
                    "midi": 54,
                    "time": 26.391743999999935,
                    "velocity": 0.25196850393700787,
                    "duration": 0.10309274999999829
                },
                {
                    "name": "G#3",
                    "midi": 56,
                    "time": 26.391743999999935,
                    "velocity": 0.25196850393700787,
                    "duration": 0.10309274999999829
                },
                {
                    "name": "D#4",
                    "midi": 63,
                    "time": 26.391743999999935,
                    "velocity": 0.2992125984251969,
                    "duration": 0.10309274999999829
                },
                {
                    "name": "F3",
                    "midi": 53,
                    "time": 26.597929499999932,
                    "velocity": 0.25984251968503935,
                    "duration": 0.20618550000000013
                },
                {
                    "name": "G#3",
                    "midi": 56,
                    "time": 26.597929499999932,
                    "velocity": 0.25984251968503935,
                    "duration": 0.20618550000000013
                },
                {
                    "name": "C#4",
                    "midi": 61,
                    "time": 26.597929499999932,
                    "velocity": 0.30708661417322836,
                    "duration": 0.20618550000000013
                },
                {
                    "name": "C#3",
                    "midi": 49,
                    "time": 26.804114999999932,
                    "velocity": 0.25984251968503935,
                    "duration": 0.41237100000000027
                },
                {
                    "name": "F3",
                    "midi": 53,
                    "time": 26.804114999999932,
                    "velocity": 0.25984251968503935,
                    "duration": 0.41237100000000027
                },
                {
                    "name": "C#4",
                    "midi": 61,
                    "time": 26.804114999999932,
                    "velocity": 0.30708661417322836,
                    "duration": 0.41237100000000027
                },
                {
                    "name": "D#3",
                    "midi": 51,
                    "time": 27.216485999999932,
                    "velocity": 0.28346456692913385,
                    "duration": 0.3092782499999984
                },
                {
                    "name": "F3",
                    "midi": 53,
                    "time": 27.216485999999932,
                    "velocity": 0.28346456692913385,
                    "duration": 0.3092782499999984
                },
                {
                    "name": "C4",
                    "midi": 60,
                    "time": 27.216485999999932,
                    "velocity": 0.33858267716535434,
                    "duration": 0.3092782499999984
                },
                {
                    "name": "D#3",
                    "midi": 51,
                    "time": 27.52576424999993,
                    "velocity": 0.2283464566929134,
                    "duration": 0.10309274999999829
                },
                {
                    "name": "F3",
                    "midi": 53,
                    "time": 27.52576424999993,
                    "velocity": 0.2283464566929134,
                    "duration": 0.10309274999999829
                },
                {
                    "name": "C4",
                    "midi": 60,
                    "time": 27.52576424999993,
                    "velocity": 0.2755905511811024,
                    "duration": 0.10309274999999829
                },
                {
                    "name": "D#3",
                    "midi": 51,
                    "time": 27.62885699999993,
                    "velocity": 0.25196850393700787,
                    "duration": 0.10309274999999829
                },
                {
                    "name": "F3",
                    "midi": 53,
                    "time": 27.62885699999993,
                    "velocity": 0.25196850393700787,
                    "duration": 0.10309274999999829
                },
                {
                    "name": "C4",
                    "midi": 60,
                    "time": 27.62885699999993,
                    "velocity": 0.2992125984251969,
                    "duration": 0.10309274999999829
                },
                {
                    "name": "C#3",
                    "midi": 49,
                    "time": 27.835042499999926,
                    "velocity": 0.25984251968503935,
                    "duration": 0.20618550000000013
                },
                {
                    "name": "F3",
                    "midi": 53,
                    "time": 27.835042499999926,
                    "velocity": 0.25984251968503935,
                    "duration": 0.20618550000000013
                },
                {
                    "name": "A#3",
                    "midi": 58,
                    "time": 27.835042499999926,
                    "velocity": 0.30708661417322836,
                    "duration": 0.20618550000000013
                },
                {
                    "name": "A#2",
                    "midi": 46,
                    "time": 28.041227999999926,
                    "velocity": 0.25984251968503935,
                    "duration": 0.41237100000000027
                },
                {
                    "name": "C#3",
                    "midi": 49,
                    "time": 28.041227999999926,
                    "velocity": 0.25984251968503935,
                    "duration": 0.41237100000000027
                },
                {
                    "name": "A#3",
                    "midi": 58,
                    "time": 28.041227999999926,
                    "velocity": 0.30708661417322836,
                    "duration": 0.41237100000000027
                },
                {
                    "name": "D#3",
                    "midi": 51,
                    "time": 28.453598999999926,
                    "velocity": 0.33070866141732286,
                    "duration": 0.20618550000000013
                },
                {
                    "name": "D4",
                    "midi": 62,
                    "time": 28.659784499999926,
                    "velocity": 0.4015748031496063,
                    "duration": 0.10309274999999829
                },
                {
                    "name": "G3",
                    "midi": 55,
                    "time": 28.659784499999926,
                    "velocity": 0.33858267716535434,
                    "duration": 0.41237099999999316
                },
                {
                    "name": "D#4",
                    "midi": 63,
                    "time": 28.762877249999924,
                    "velocity": 0.33858267716535434,
                    "duration": 0.10309274999999829
                },
                {
                    "name": "A#4",
                    "midi": 70,
                    "time": 28.865969999999923,
                    "velocity": 0.4015748031496063,
                    "duration": 0.10309274999999829
                },
                {
                    "name": "D#3",
                    "midi": 51,
                    "time": 29.07215549999992,
                    "velocity": 0.3464566929133858,
                    "duration": 0.20618550000000013
                },
                {
                    "name": "D4",
                    "midi": 62,
                    "time": 29.27834099999992,
                    "velocity": 0.4251968503937008,
                    "duration": 0.10309274999999829
                },
                {
                    "name": "G#3",
                    "midi": 56,
                    "time": 29.27834099999992,
                    "velocity": 0.36220472440944884,
                    "duration": 0.41237099999999316
                },
                {
                    "name": "D#4",
                    "midi": 63,
                    "time": 29.381433749999918,
                    "velocity": 0.36220472440944884,
                    "duration": 0.10309274999999829
                },
                {
                    "name": "G#4",
                    "midi": 68,
                    "time": 29.484526499999916,
                    "velocity": 0.4409448818897638,
                    "duration": 0.10309274999999829
                },
                {
                    "name": "D#3",
                    "midi": 51,
                    "time": 29.690711999999913,
                    "velocity": 0.3779527559055118,
                    "duration": 0.20618550000000013
                },
                {
                    "name": "D4",
                    "midi": 62,
                    "time": 29.896897499999913,
                    "velocity": 0.44881889763779526,
                    "duration": 0.10309274999999829
                },
                {
                    "name": "G3",
                    "midi": 55,
                    "time": 29.896897499999913,
                    "velocity": 0.3779527559055118,
                    "duration": 0.41237099999999316
                },
                {
                    "name": "D#4",
                    "midi": 63,
                    "time": 29.99999024999991,
                    "velocity": 0.3858267716535433,
                    "duration": 0.10309274999999829
                },
                {
                    "name": "A#4",
                    "midi": 70,
                    "time": 30.10308299999991,
                    "velocity": 0.4645669291338583,
                    "duration": 0.10309274999999829
                },
                {
                    "name": "D#3",
                    "midi": 51,
                    "time": 30.309268499999906,
                    "velocity": 0.4015748031496063,
                    "duration": 0.20618550000000013
                },
                {
                    "name": "D4",
                    "midi": 62,
                    "time": 30.515453999999906,
                    "velocity": 0.48031496062992124,
                    "duration": 0.10309274999999829
                },
                {
                    "name": "G#3",
                    "midi": 56,
                    "time": 30.515453999999906,
                    "velocity": 0.4015748031496063,
                    "duration": 0.41237099999999316
                },
                {
                    "name": "D#4",
                    "midi": 63,
                    "time": 30.618546749999904,
                    "velocity": 0.4094488188976378,
                    "duration": 0.10309274999999829
                },
                {
                    "name": "G#4",
                    "midi": 68,
                    "time": 30.721639499999903,
                    "velocity": 0.49606299212598426,
                    "duration": 0.10309274999999829
                },
                {
                    "name": "E3",
                    "midi": 52,
                    "time": 30.9278249999999,
                    "velocity": 0.3937007874015748,
                    "duration": 0.3092782499999984
                },
                {
                    "name": "E4",
                    "midi": 64,
                    "time": 30.9278249999999,
                    "velocity": 0.4645669291338583,
                    "duration": 0.3092782499999984
                },
                {
                    "name": "E2",
                    "midi": 40,
                    "time": 31.237103249999898,
                    "velocity": 0.3543307086614173,
                    "duration": 0.09793811249999962
                },
                {
                    "name": "E3",
                    "midi": 52,
                    "time": 31.237103249999898,
                    "velocity": 0.4251968503937008,
                    "duration": 0.09793811249999962
                },
                {
                    "name": "E2",
                    "midi": 40,
                    "time": 31.340195999999896,
                    "velocity": 0.3543307086614173,
                    "duration": 0.10309274999999829
                },
                {
                    "name": "E3",
                    "midi": 52,
                    "time": 31.340195999999896,
                    "velocity": 0.4251968503937008,
                    "duration": 0.10309274999999829
                },
                {
                    "name": "E2",
                    "midi": 40,
                    "time": 31.546381499999892,
                    "velocity": 0.4015748031496063,
                    "duration": 0.10309274999999829
                },
                {
                    "name": "E3",
                    "midi": 52,
                    "time": 31.546381499999892,
                    "velocity": 0.47244094488188976,
                    "duration": 0.10309274999999829
                },
                {
                    "name": "E2",
                    "midi": 40,
                    "time": 31.75256699999989,
                    "velocity": 0.36220472440944884,
                    "duration": 0.10309274999999829
                },
                {
                    "name": "E3",
                    "midi": 52,
                    "time": 31.75256699999989,
                    "velocity": 0.4330708661417323,
                    "duration": 0.10309274999999829
                },
                {
                    "name": "E2",
                    "midi": 40,
                    "time": 31.958752499999886,
                    "velocity": 0.36220472440944884,
                    "duration": 0.10309274999999829
                },
                {
                    "name": "E3",
                    "midi": 52,
                    "time": 31.958752499999886,
                    "velocity": 0.4330708661417323,
                    "duration": 0.10309274999999829
                },
                {
                    "name": "F2",
                    "midi": 41,
                    "time": 32.164937999999886,
                    "velocity": 0.44881889763779526,
                    "duration": 0.10309275000000184
                },
                {
                    "name": "F#2",
                    "midi": 42,
                    "time": 32.26803074999989,
                    "velocity": 0.4645669291338583,
                    "duration": 0.10309275000000184
                },
                {
                    "name": "G2",
                    "midi": 43,
                    "time": 32.37112349999989,
                    "velocity": 0.48031496062992124,
                    "duration": 0.10309275000000184
                },
                {
                    "name": "G#2",
                    "midi": 44,
                    "time": 32.47421624999989,
                    "velocity": 0.4881889763779528,
                    "duration": 0.10309275000000184
                },
                {
                    "name": "A2",
                    "midi": 45,
                    "time": 32.57730899999989,
                    "velocity": 0.5039370078740157,
                    "duration": 0.10309275000000184
                },
                {
                    "name": "A#2",
                    "midi": 46,
                    "time": 32.680401749999895,
                    "velocity": 0.5196850393700787,
                    "duration": 0.10309275000000184
                },
                {
                    "name": "B2",
                    "midi": 47,
                    "time": 32.7834944999999,
                    "velocity": 0.5354330708661418,
                    "duration": 0.10309275000000184
                },
                {
                    "name": "C3",
                    "midi": 48,
                    "time": 32.8865872499999,
                    "velocity": 0.5511811023622047,
                    "duration": 0.10309275000000184
                },
                {
                    "name": "C#3",
                    "midi": 49,
                    "time": 32.9896799999999,
                    "velocity": 0.5590551181102362,
                    "duration": 0.10309275000000184
                },
                {
                    "name": "D3",
                    "midi": 50,
                    "time": 33.0927727499999,
                    "velocity": 0.5748031496062992,
                    "duration": 0.10309275000000184
                },
                {
                    "name": "D#3",
                    "midi": 51,
                    "time": 33.195865499999904,
                    "velocity": 0.5905511811023622,
                    "duration": 0.10309275000000184
                },
                {
                    "name": "E3",
                    "midi": 52,
                    "time": 33.298958249999906,
                    "velocity": 0.6062992125984252,
                    "duration": 0.10309275000000184
                },
                {
                    "name": "E2",
                    "midi": 40,
                    "time": 33.40205099999991,
                    "velocity": 0.5669291338582677,
                    "duration": 0.20618549999999658
                },
                {
                    "name": "E3",
                    "midi": 52,
                    "time": 33.40205099999991,
                    "velocity": 0.6692913385826772,
                    "duration": 0.20618549999999658
                },
                {
                    "name": "E3",
                    "midi": 52,
                    "time": 33.608236499999904,
                    "velocity": 0.5118110236220472,
                    "duration": 0.10309275000000184
                },
                {
                    "name": "E4",
                    "midi": 64,
                    "time": 33.608236499999904,
                    "velocity": 0.6062992125984252,
                    "duration": 0.10309275000000184
                },
                {
                    "name": "E4",
                    "midi": 64,
                    "time": 33.81442199999991,
                    "velocity": 0.6062992125984252,
                    "duration": 0.10309275000000184
                },
                {
                    "name": "E3",
                    "midi": 52,
                    "time": 33.81442199999991,
                    "velocity": 0.5118110236220472,
                    "duration": 0.10309275000000184
                },
                {
                    "name": "E3",
                    "midi": 52,
                    "time": 34.02060749999991,
                    "velocity": 0.5669291338582677,
                    "duration": 0.10309275000000184
                },
                {
                    "name": "E4",
                    "midi": 64,
                    "time": 34.02060749999991,
                    "velocity": 0.6692913385826772,
                    "duration": 0.10309275000000184
                },
                {
                    "name": "E3",
                    "midi": 52,
                    "time": 34.226792999999915,
                    "velocity": 0.5118110236220472,
                    "duration": 0.10309275000000184
                },
                {
                    "name": "E4",
                    "midi": 64,
                    "time": 34.226792999999915,
                    "velocity": 0.6062992125984252,
                    "duration": 0.10309275000000184
                },
                {
                    "name": "E3",
                    "midi": 52,
                    "time": 34.43297849999992,
                    "velocity": 0.5118110236220472,
                    "duration": 0.10309275000000184
                },
                {
                    "name": "E4",
                    "midi": 64,
                    "time": 34.43297849999992,
                    "velocity": 0.6062992125984252,
                    "duration": 0.10309275000000184
                },
                {
                    "name": "D#3",
                    "midi": 51,
                    "time": 34.63916399999992,
                    "velocity": 0.5748031496062992,
                    "duration": 0.10309275000000184
                },
                {
                    "name": "D#4",
                    "midi": 63,
                    "time": 34.63916399999992,
                    "velocity": 0.6850393700787402,
                    "duration": 0.10309275000000184
                },
                {
                    "name": "D#3",
                    "midi": 51,
                    "time": 34.84534949999993,
                    "velocity": 0.6062992125984252,
                    "duration": 0.10309275000000184
                },
                {
                    "name": "D#2",
                    "midi": 39,
                    "time": 34.84534949999993,
                    "velocity": 0.5118110236220472,
                    "duration": 0.10309275000000184
                },
                {
                    "name": "D#3",
                    "midi": 51,
                    "time": 35.25772049999993,
                    "velocity": 0.5354330708661418,
                    "duration": 0.10309275000000184
                },
                {
                    "name": "D#2",
                    "midi": 39,
                    "time": 35.25772049999993,
                    "velocity": 0.44881889763779526,
                    "duration": 0.10309275000000184
                },
                {
                    "name": "D#2",
                    "midi": 39,
                    "time": 35.46390599999993,
                    "velocity": 0.48031496062992124,
                    "duration": 0.10309275000000184
                },
                {
                    "name": "D#1",
                    "midi": 27,
                    "time": 35.46390599999993,
                    "velocity": 0.4094488188976378,
                    "duration": 0.10309275000000184
                },
                {
                    "name": "C#2",
                    "midi": 37,
                    "time": 35.87627699999993,
                    "velocity": 0.5748031496062992,
                    "duration": 0.30927825000000553
                },
                {
                    "name": "C#3",
                    "midi": 49,
                    "time": 35.87627699999993,
                    "velocity": 0.6771653543307087,
                    "duration": 0.30927825000000553
                },
                {
                    "name": "C#2",
                    "midi": 37,
                    "time": 36.185555249999936,
                    "velocity": 0.5354330708661418,
                    "duration": 0.10309275000000184
                },
                {
                    "name": "C#3",
                    "midi": 49,
                    "time": 36.185555249999936,
                    "velocity": 0.6299212598425197,
                    "duration": 0.10309275000000184
                },
                {
                    "name": "C#2",
                    "midi": 37,
                    "time": 36.28864799999994,
                    "velocity": 0.5748031496062992,
                    "duration": 0.20618549999999658
                },
                {
                    "name": "C#3",
                    "midi": 49,
                    "time": 36.28864799999994,
                    "velocity": 0.6850393700787402,
                    "duration": 0.20618549999999658
                },
                {
                    "name": "C#2",
                    "midi": 37,
                    "time": 36.494833499999935,
                    "velocity": 0.5748031496062992,
                    "duration": 0.3092782499999984
                },
                {
                    "name": "C#3",
                    "midi": 49,
                    "time": 36.494833499999935,
                    "velocity": 0.6771653543307087,
                    "duration": 0.3092782499999984
                },
                {
                    "name": "C#2",
                    "midi": 37,
                    "time": 36.80411174999993,
                    "velocity": 0.5354330708661418,
                    "duration": 0.10309275000000184
                },
                {
                    "name": "C#3",
                    "midi": 49,
                    "time": 36.80411174999993,
                    "velocity": 0.6299212598425197,
                    "duration": 0.10309275000000184
                },
                {
                    "name": "C#2",
                    "midi": 37,
                    "time": 36.907204499999935,
                    "velocity": 0.5748031496062992,
                    "duration": 0.20618549999999658
                },
                {
                    "name": "C#3",
                    "midi": 49,
                    "time": 36.907204499999935,
                    "velocity": 0.6850393700787402,
                    "duration": 0.20618549999999658
                },
                {
                    "name": "C#2",
                    "midi": 37,
                    "time": 37.11338999999993,
                    "velocity": 0.5748031496062992,
                    "duration": 0.9278347500000024
                },
                {
                    "name": "C#3",
                    "midi": 49,
                    "time": 37.11338999999993,
                    "velocity": 0.6771653543307087,
                    "duration": 0.9278347500000024
                },
                {
                    "name": "C#2",
                    "midi": 37,
                    "time": 38.041224749999934,
                    "velocity": 0.5354330708661418,
                    "duration": 0.09793811250000317
                },
                {
                    "name": "C#3",
                    "midi": 49,
                    "time": 38.041224749999934,
                    "velocity": 0.6299212598425197,
                    "duration": 0.09793811250000317
                },
                {
                    "name": "C#2",
                    "midi": 37,
                    "time": 38.144317499999936,
                    "velocity": 0.5748031496062992,
                    "duration": 0.20618549999999658
                },
                {
                    "name": "C#3",
                    "midi": 49,
                    "time": 38.144317499999936,
                    "velocity": 0.6850393700787402,
                    "duration": 0.20618549999999658
                },
                {
                    "name": "C#2",
                    "midi": 37,
                    "time": 38.35050299999993,
                    "velocity": 0.5748031496062992,
                    "duration": 0.9278347500000024
                },
                {
                    "name": "C#3",
                    "midi": 49,
                    "time": 38.35050299999993,
                    "velocity": 0.6771653543307087,
                    "duration": 0.9278347500000024
                },
                {
                    "name": "C#2",
                    "midi": 37,
                    "time": 39.278337749999935,
                    "velocity": 0.5354330708661418,
                    "duration": 0.09793811250000317
                },
                {
                    "name": "C#3",
                    "midi": 49,
                    "time": 39.278337749999935,
                    "velocity": 0.6299212598425197,
                    "duration": 0.09793811250000317
                },
                {
                    "name": "C#2",
                    "midi": 37,
                    "time": 39.38143049999994,
                    "velocity": 0.5748031496062992,
                    "duration": 0.20618549999999658
                },
                {
                    "name": "C#3",
                    "midi": 49,
                    "time": 39.38143049999994,
                    "velocity": 0.6850393700787402,
                    "duration": 0.20618549999999658
                },
                {
                    "name": "C#2",
                    "midi": 37,
                    "time": 39.58761599999993,
                    "velocity": 0.4251968503937008,
                    "duration": 0.3092782499999984
                },
                {
                    "name": "C#3",
                    "midi": 49,
                    "time": 39.58761599999993,
                    "velocity": 0.5039370078740157,
                    "duration": 0.3092782499999984
                },
                {
                    "name": "C#2",
                    "midi": 37,
                    "time": 39.89689424999993,
                    "velocity": 0.3937007874015748,
                    "duration": 0.09793811250000317
                },
                {
                    "name": "C#3",
                    "midi": 49,
                    "time": 39.89689424999993,
                    "velocity": 0.47244094488188976,
                    "duration": 0.09793811250000317
                },
                {
                    "name": "C#2",
                    "midi": 37,
                    "time": 39.99998699999993,
                    "velocity": 0.4330708661417323,
                    "duration": 0.10309275000000184
                },
                {
                    "name": "C#3",
                    "midi": 49,
                    "time": 39.99998699999993,
                    "velocity": 0.5118110236220472,
                    "duration": 0.10309275000000184
                },
                {
                    "name": "C#2",
                    "midi": 37,
                    "time": 40.20617249999994,
                    "velocity": 0.4251968503937008,
                    "duration": 0.3092782499999984
                },
                {
                    "name": "C#3",
                    "midi": 49,
                    "time": 40.20617249999994,
                    "velocity": 0.5039370078740157,
                    "duration": 0.3092782499999984
                },
                {
                    "name": "C#2",
                    "midi": 37,
                    "time": 40.515450749999935,
                    "velocity": 0.3937007874015748,
                    "duration": 0.09793811250000317
                },
                {
                    "name": "C#3",
                    "midi": 49,
                    "time": 40.515450749999935,
                    "velocity": 0.47244094488188976,
                    "duration": 0.09793811250000317
                },
                {
                    "name": "C#2",
                    "midi": 37,
                    "time": 40.61854349999994,
                    "velocity": 0.4330708661417323,
                    "duration": 0.10309275000000184
                },
                {
                    "name": "C#3",
                    "midi": 49,
                    "time": 40.61854349999994,
                    "velocity": 0.5118110236220472,
                    "duration": 0.10309275000000184
                },
                {
                    "name": "C#2",
                    "midi": 37,
                    "time": 40.82472899999994,
                    "velocity": 0.4251968503937008,
                    "duration": 0.3092782499999984
                },
                {
                    "name": "C#3",
                    "midi": 49,
                    "time": 40.82472899999994,
                    "velocity": 0.5039370078740157,
                    "duration": 0.3092782499999984
                },
                {
                    "name": "C#2",
                    "midi": 37,
                    "time": 41.13400724999994,
                    "velocity": 0.3937007874015748,
                    "duration": 0.09793811250000317
                },
                {
                    "name": "C#3",
                    "midi": 49,
                    "time": 41.13400724999994,
                    "velocity": 0.47244094488188976,
                    "duration": 0.09793811250000317
                },
                {
                    "name": "C#2",
                    "midi": 37,
                    "time": 41.23709999999994,
                    "velocity": 0.4330708661417323,
                    "duration": 0.10309275000000184
                },
                {
                    "name": "C#3",
                    "midi": 49,
                    "time": 41.23709999999994,
                    "velocity": 0.5118110236220472,
                    "duration": 0.10309275000000184
                },
                {
                    "name": "C#2",
                    "midi": 37,
                    "time": 41.443285499999945,
                    "velocity": 0.4251968503937008,
                    "duration": 0.3092782499999984
                },
                {
                    "name": "C#3",
                    "midi": 49,
                    "time": 41.443285499999945,
                    "velocity": 0.5039370078740157,
                    "duration": 0.3092782499999984
                },
                {
                    "name": "C#2",
                    "midi": 37,
                    "time": 41.75256374999994,
                    "velocity": 0.3937007874015748,
                    "duration": 0.09793811250000317
                },
                {
                    "name": "C#3",
                    "midi": 49,
                    "time": 41.75256374999994,
                    "velocity": 0.47244094488188976,
                    "duration": 0.09793811250000317
                },
                {
                    "name": "C#2",
                    "midi": 37,
                    "time": 41.855656499999945,
                    "velocity": 0.4330708661417323,
                    "duration": 0.10309275000000184
                },
                {
                    "name": "C#3",
                    "midi": 49,
                    "time": 41.855656499999945,
                    "velocity": 0.5118110236220472,
                    "duration": 0.10309275000000184
                },
                {
                    "name": "C#3",
                    "midi": 49,
                    "time": 42.06184199999995,
                    "velocity": 0.4251968503937008,
                    "duration": 0.3092782499999984
                },
                {
                    "name": "C#4",
                    "midi": 61,
                    "time": 42.06184199999995,
                    "velocity": 0.5039370078740157,
                    "duration": 0.3092782499999984
                },
                {
                    "name": "C#3",
                    "midi": 49,
                    "time": 42.37112024999995,
                    "velocity": 0.3937007874015748,
                    "duration": 0.09793811250000317
                },
                {
                    "name": "C#4",
                    "midi": 61,
                    "time": 42.37112024999995,
                    "velocity": 0.47244094488188976,
                    "duration": 0.09793811250000317
                },
                {
                    "name": "C#3",
                    "midi": 49,
                    "time": 42.47421299999995,
                    "velocity": 0.4330708661417323,
                    "duration": 0.10309275000000184
                },
                {
                    "name": "C#4",
                    "midi": 61,
                    "time": 42.47421299999995,
                    "velocity": 0.5118110236220472,
                    "duration": 0.10309275000000184
                },
                {
                    "name": "D#3",
                    "midi": 51,
                    "time": 42.68039849999995,
                    "velocity": 0.4251968503937008,
                    "duration": 0.3092782499999984
                },
                {
                    "name": "D#4",
                    "midi": 63,
                    "time": 42.68039849999995,
                    "velocity": 0.5039370078740157,
                    "duration": 0.3092782499999984
                },
                {
                    "name": "D#3",
                    "midi": 51,
                    "time": 42.98967674999995,
                    "velocity": 0.41732283464566927,
                    "duration": 0.09793811250000317
                },
                {
                    "name": "D#4",
                    "midi": 63,
                    "time": 42.98967674999995,
                    "velocity": 0.5039370078740157,
                    "duration": 0.09793811250000317
                },
                {
                    "name": "D#3",
                    "midi": 51,
                    "time": 43.09276949999995,
                    "velocity": 0.47244094488188976,
                    "duration": 0.10309275000000184
                },
                {
                    "name": "D#4",
                    "midi": 63,
                    "time": 43.09276949999995,
                    "velocity": 0.5590551181102362,
                    "duration": 0.10309275000000184
                },
                {
                    "name": "F#3",
                    "midi": 54,
                    "time": 43.29895499999996,
                    "velocity": 0.4881889763779528,
                    "duration": 0.3092782499999984
                },
                {
                    "name": "F#4",
                    "midi": 66,
                    "time": 43.29895499999996,
                    "velocity": 0.5748031496062992,
                    "duration": 0.3092782499999984
                },
                {
                    "name": "F#3",
                    "midi": 54,
                    "time": 43.608233249999955,
                    "velocity": 0.4251968503937008,
                    "duration": 0.09793811250000317
                },
                {
                    "name": "F#4",
                    "midi": 66,
                    "time": 43.608233249999955,
                    "velocity": 0.5039370078740157,
                    "duration": 0.09793811250000317
                },
                {
                    "name": "F#3",
                    "midi": 54,
                    "time": 43.71132599999996,
                    "velocity": 0.44881889763779526,
                    "duration": 0.10309275000000184
                },
                {
                    "name": "F#4",
                    "midi": 66,
                    "time": 43.71132599999996,
                    "velocity": 0.5354330708661418,
                    "duration": 0.10309275000000184
                },
                {
                    "name": "F#2",
                    "midi": 42,
                    "time": 43.91751149999996,
                    "velocity": 0.4251968503937008,
                    "duration": 0.3092782499999984
                },
                {
                    "name": "F#3",
                    "midi": 54,
                    "time": 43.91751149999996,
                    "velocity": 0.5039370078740157,
                    "duration": 0.3092782499999984
                },
                {
                    "name": "F#2",
                    "midi": 42,
                    "time": 44.22678974999996,
                    "velocity": 0.3937007874015748,
                    "duration": 0.09793811250000317
                },
                {
                    "name": "F#3",
                    "midi": 54,
                    "time": 44.22678974999996,
                    "velocity": 0.47244094488188976,
                    "duration": 0.09793811250000317
                },
                {
                    "name": "F#2",
                    "midi": 42,
                    "time": 44.32988249999996,
                    "velocity": 0.4330708661417323,
                    "duration": 0.10309275000000184
                },
                {
                    "name": "F#3",
                    "midi": 54,
                    "time": 44.32988249999996,
                    "velocity": 0.5118110236220472,
                    "duration": 0.10309275000000184
                },
                {
                    "name": "B1",
                    "midi": 35,
                    "time": 44.536067999999965,
                    "velocity": 0.5748031496062992,
                    "duration": 0.30927825000000553
                },
                {
                    "name": "B2",
                    "midi": 47,
                    "time": 44.536067999999965,
                    "velocity": 0.6771653543307087,
                    "duration": 0.30927825000000553
                },
                {
                    "name": "B1",
                    "midi": 35,
                    "time": 44.84534624999997,
                    "velocity": 0.5354330708661418,
                    "duration": 0.09793811250000317
                },
                {
                    "name": "B2",
                    "midi": 47,
                    "time": 44.84534624999997,
                    "velocity": 0.6299212598425197,
                    "duration": 0.09793811250000317
                },
                {
                    "name": "B1",
                    "midi": 35,
                    "time": 44.94843899999997,
                    "velocity": 0.5748031496062992,
                    "duration": 0.20618549999999658
                },
                {
                    "name": "B2",
                    "midi": 47,
                    "time": 44.94843899999997,
                    "velocity": 0.6850393700787402,
                    "duration": 0.20618549999999658
                },
                {
                    "name": "B1",
                    "midi": 35,
                    "time": 45.15462449999997,
                    "velocity": 0.5748031496062992,
                    "duration": 0.3092782499999984
                },
                {
                    "name": "B2",
                    "midi": 47,
                    "time": 45.15462449999997,
                    "velocity": 0.6771653543307087,
                    "duration": 0.3092782499999984
                },
                {
                    "name": "B1",
                    "midi": 35,
                    "time": 45.46390274999997,
                    "velocity": 0.5354330708661418,
                    "duration": 0.09793811250000317
                },
                {
                    "name": "B2",
                    "midi": 47,
                    "time": 45.46390274999997,
                    "velocity": 0.6299212598425197,
                    "duration": 0.09793811250000317
                },
                {
                    "name": "B1",
                    "midi": 35,
                    "time": 45.56699549999997,
                    "velocity": 0.5748031496062992,
                    "duration": 0.20618549999999658
                },
                {
                    "name": "B2",
                    "midi": 47,
                    "time": 45.56699549999997,
                    "velocity": 0.6850393700787402,
                    "duration": 0.20618549999999658
                },
                {
                    "name": "B1",
                    "midi": 35,
                    "time": 45.773180999999965,
                    "velocity": 0.5748031496062992,
                    "duration": 0.9278347500000024
                },
                {
                    "name": "B2",
                    "midi": 47,
                    "time": 45.773180999999965,
                    "velocity": 0.6771653543307087,
                    "duration": 0.9278347500000024
                },
                {
                    "name": "B1",
                    "midi": 35,
                    "time": 46.70101574999997,
                    "velocity": 0.5354330708661418,
                    "duration": 0.09793811250000317
                },
                {
                    "name": "B2",
                    "midi": 47,
                    "time": 46.70101574999997,
                    "velocity": 0.6299212598425197,
                    "duration": 0.09793811250000317
                },
                {
                    "name": "B1",
                    "midi": 35,
                    "time": 46.80410849999997,
                    "velocity": 0.5748031496062992,
                    "duration": 0.20618549999999658
                },
                {
                    "name": "B2",
                    "midi": 47,
                    "time": 46.80410849999997,
                    "velocity": 0.6850393700787402,
                    "duration": 0.20618549999999658
                },
                {
                    "name": "B1",
                    "midi": 35,
                    "time": 47.010293999999966,
                    "velocity": 0.5748031496062992,
                    "duration": 0.9278347500000024
                },
                {
                    "name": "B2",
                    "midi": 47,
                    "time": 47.010293999999966,
                    "velocity": 0.6771653543307087,
                    "duration": 0.9278347500000024
                },
                {
                    "name": "B1",
                    "midi": 35,
                    "time": 47.93812874999997,
                    "velocity": 0.5354330708661418,
                    "duration": 0.09793811250000317
                },
                {
                    "name": "B2",
                    "midi": 47,
                    "time": 47.93812874999997,
                    "velocity": 0.6299212598425197,
                    "duration": 0.09793811250000317
                },
                {
                    "name": "B1",
                    "midi": 35,
                    "time": 48.04122149999997,
                    "velocity": 0.5748031496062992,
                    "duration": 0.20618549999999658
                },
                {
                    "name": "B2",
                    "midi": 47,
                    "time": 48.04122149999997,
                    "velocity": 0.6850393700787402,
                    "duration": 0.20618549999999658
                },
                {
                    "name": "B2",
                    "midi": 47,
                    "time": 48.24740699999997,
                    "velocity": 0.3858267716535433,
                    "duration": 0.15463912499999566
                },
                {
                    "name": "D#4",
                    "midi": 63,
                    "time": 48.453592499999964,
                    "velocity": 0.2992125984251969,
                    "duration": 0.41237100000000027
                },
                {
                    "name": "B3",
                    "midi": 59,
                    "time": 48.453592499999964,
                    "velocity": 0.25196850393700787,
                    "duration": 0.41237100000000027
                },
                {
                    "name": "F#3",
                    "midi": 54,
                    "time": 48.453592499999964,
                    "velocity": 0.25196850393700787,
                    "duration": 0.41237100000000027
                },
                {
                    "name": "D#3",
                    "midi": 51,
                    "time": 48.865963499999964,
                    "velocity": 0.3858267716535433,
                    "duration": 0.15463912500000276
                },
                {
                    "name": "F#4",
                    "midi": 66,
                    "time": 49.07214899999997,
                    "velocity": 0.28346456692913385,
                    "duration": 0.41237100000000027
                },
                {
                    "name": "D#4",
                    "midi": 63,
                    "time": 49.07214899999997,
                    "velocity": 0.23622047244094488,
                    "duration": 0.41237100000000027
                },
                {
                    "name": "B3",
                    "midi": 59,
                    "time": 49.07214899999997,
                    "velocity": 0.23622047244094488,
                    "duration": 0.41237100000000027
                },
                {
                    "name": "C#3",
                    "midi": 49,
                    "time": 49.48451999999997,
                    "velocity": 0.3858267716535433,
                    "duration": 0.15463912500000276
                },
                {
                    "name": "F#4",
                    "midi": 66,
                    "time": 49.69070549999997,
                    "velocity": 0.28346456692913385,
                    "duration": 0.41237100000000027
                },
                {
                    "name": "E4",
                    "midi": 64,
                    "time": 49.69070549999997,
                    "velocity": 0.23622047244094488,
                    "duration": 0.41237100000000027
                },
                {
                    "name": "A#3",
                    "midi": 58,
                    "time": 49.69070549999997,
                    "velocity": 0.23622047244094488,
                    "duration": 0.41237100000000027
                },
                {
                    "name": "F#2",
                    "midi": 42,
                    "time": 50.10307649999997,
                    "velocity": 0.3858267716535433,
                    "duration": 0.15463912499999566
                },
                {
                    "name": "F#4",
                    "midi": 66,
                    "time": 50.30926199999997,
                    "velocity": 0.28346456692913385,
                    "duration": 0.41237100000000027
                },
                {
                    "name": "C#4",
                    "midi": 61,
                    "time": 50.30926199999997,
                    "velocity": 0.23622047244094488,
                    "duration": 0.41237100000000027
                },
                {
                    "name": "A#3",
                    "midi": 58,
                    "time": 50.30926199999997,
                    "velocity": 0.23622047244094488,
                    "duration": 0.41237100000000027
                },
                {
                    "name": "B2",
                    "midi": 47,
                    "time": 50.72163299999997,
                    "velocity": 0.3858267716535433,
                    "duration": 0.15463912500000276
                },
                {
                    "name": "F#4",
                    "midi": 66,
                    "time": 50.92781849999997,
                    "velocity": 0.28346456692913385,
                    "duration": 0.41237100000000027
                },
                {
                    "name": "D#4",
                    "midi": 63,
                    "time": 50.92781849999997,
                    "velocity": 0.23622047244094488,
                    "duration": 0.41237100000000027
                },
                {
                    "name": "B3",
                    "midi": 59,
                    "time": 50.92781849999997,
                    "velocity": 0.23622047244094488,
                    "duration": 0.41237100000000027
                },
                {
                    "name": "E2",
                    "midi": 40,
                    "time": 51.34018949999997,
                    "velocity": 0.3858267716535433,
                    "duration": 0.15463912500000276
                },
                {
                    "name": "E4",
                    "midi": 64,
                    "time": 51.546374999999976,
                    "velocity": 0.28346456692913385,
                    "duration": 0.41237100000000027
                },
                {
                    "name": "C#4",
                    "midi": 61,
                    "time": 51.546374999999976,
                    "velocity": 0.23622047244094488,
                    "duration": 0.41237100000000027
                },
                {
                    "name": "G#3",
                    "midi": 56,
                    "time": 51.546374999999976,
                    "velocity": 0.23622047244094488,
                    "duration": 0.41237100000000027
                },
                {
                    "name": "F#2",
                    "midi": 42,
                    "time": 51.95874599999998,
                    "velocity": 0.3858267716535433,
                    "duration": 0.15463912500000276
                },
                {
                    "name": "E4",
                    "midi": 64,
                    "time": 52.16493149999998,
                    "velocity": 0.28346456692913385,
                    "duration": 0.41237100000000027
                },
                {
                    "name": "A#3",
                    "midi": 58,
                    "time": 52.16493149999998,
                    "velocity": 0.23622047244094488,
                    "duration": 0.41237100000000027
                },
                {
                    "name": "F#3",
                    "midi": 54,
                    "time": 52.16493149999998,
                    "velocity": 0.23622047244094488,
                    "duration": 0.41237100000000027
                },
                {
                    "name": "A#2",
                    "midi": 46,
                    "time": 52.57730249999998,
                    "velocity": 0.3858267716535433,
                    "duration": 0.15463912500000276
                },
                {
                    "name": "E4",
                    "midi": 64,
                    "time": 52.783487999999984,
                    "velocity": 0.28346456692913385,
                    "duration": 0.41237100000000027
                },
                {
                    "name": "C#4",
                    "midi": 61,
                    "time": 52.783487999999984,
                    "velocity": 0.23622047244094488,
                    "duration": 0.41237100000000027
                },
                {
                    "name": "F#3",
                    "midi": 54,
                    "time": 52.783487999999984,
                    "velocity": 0.23622047244094488,
                    "duration": 0.41237100000000027
                },
                {
                    "name": "B2",
                    "midi": 47,
                    "time": 53.195858999999984,
                    "velocity": 0.3543307086614173,
                    "duration": 0.05154637500000092
                },
                {
                    "name": "F#3",
                    "midi": 54,
                    "time": 53.298951749999986,
                    "velocity": 0.2755905511811024,
                    "duration": 0.10309275000000184
                },
                {
                    "name": "B3",
                    "midi": 59,
                    "time": 53.40204449999999,
                    "velocity": 0.2755905511811024,
                    "duration": 0.10309275000000184
                },
                {
                    "name": "D#4",
                    "midi": 63,
                    "time": 53.50513724999999,
                    "velocity": 0.2755905511811024,
                    "duration": 0.10309275000000184
                },
                {
                    "name": "B3",
                    "midi": 59,
                    "time": 53.60822999999999,
                    "velocity": 0.2755905511811024,
                    "duration": 0.10309275000000184
                },
                {
                    "name": "F#3",
                    "midi": 54,
                    "time": 53.711322749999994,
                    "velocity": 0.2755905511811024,
                    "duration": 0.10309275000000184
                },
                {
                    "name": "D#3",
                    "midi": 51,
                    "time": 53.814415499999996,
                    "velocity": 0.3543307086614173,
                    "duration": 0.05154637500000092
                },
                {
                    "name": "B3",
                    "midi": 59,
                    "time": 53.91750825,
                    "velocity": 0.2755905511811024,
                    "duration": 0.10309275000000184
                },
                {
                    "name": "D#4",
                    "midi": 63,
                    "time": 54.020601,
                    "velocity": 0.2755905511811024,
                    "duration": 0.10309275000000184
                },
                {
                    "name": "F#4",
                    "midi": 66,
                    "time": 54.12369375,
                    "velocity": 0.2755905511811024,
                    "duration": 0.10309275000000184
                },
                {
                    "name": "D#4",
                    "midi": 63,
                    "time": 54.2267865,
                    "velocity": 0.2755905511811024,
                    "duration": 0.10309275000000184
                },
                {
                    "name": "B3",
                    "midi": 59,
                    "time": 54.329879250000005,
                    "velocity": 0.2755905511811024,
                    "duration": 0.10309275000000184
                },
                {
                    "name": "C#3",
                    "midi": 49,
                    "time": 54.43297200000001,
                    "velocity": 0.3937007874015748,
                    "duration": 0.05154637500000092
                },
                {
                    "name": "A#3",
                    "midi": 58,
                    "time": 54.53606475000001,
                    "velocity": 0.2755905511811024,
                    "duration": 0.10309275000000184
                },
                {
                    "name": "E4",
                    "midi": 64,
                    "time": 54.63915750000001,
                    "velocity": 0.2755905511811024,
                    "duration": 0.10309275000000184
                },
                {
                    "name": "F#4",
                    "midi": 66,
                    "time": 54.74225025000001,
                    "velocity": 0.2755905511811024,
                    "duration": 0.10309275000000184
                },
                {
                    "name": "E4",
                    "midi": 64,
                    "time": 54.845343000000014,
                    "velocity": 0.2755905511811024,
                    "duration": 0.10309275000000184
                },
                {
                    "name": "A#3",
                    "midi": 58,
                    "time": 54.948435750000016,
                    "velocity": 0.2755905511811024,
                    "duration": 0.10309275000000184
                },
                {
                    "name": "F#2",
                    "midi": 42,
                    "time": 55.05152850000002,
                    "velocity": 0.3700787401574803,
                    "duration": 0.05154637500000092
                },
                {
                    "name": "A#3",
                    "midi": 58,
                    "time": 55.15462125000002,
                    "velocity": 0.2755905511811024,
                    "duration": 0.10309275000000184
                },
                {
                    "name": "C#4",
                    "midi": 61,
                    "time": 55.25771400000002,
                    "velocity": 0.2755905511811024,
                    "duration": 0.10309275000000184
                },
                {
                    "name": "F#4",
                    "midi": 66,
                    "time": 55.36080675000002,
                    "velocity": 0.2755905511811024,
                    "duration": 0.10309275000000184
                },
                {
                    "name": "C#4",
                    "midi": 61,
                    "time": 55.463899500000025,
                    "velocity": 0.2755905511811024,
                    "duration": 0.10309275000000184
                },
                {
                    "name": "A#3",
                    "midi": 58,
                    "time": 55.56699225000003,
                    "velocity": 0.2755905511811024,
                    "duration": 0.10309275000000184
                },
                {
                    "name": "B2",
                    "midi": 47,
                    "time": 55.67008500000003,
                    "velocity": 0.36220472440944884,
                    "duration": 0.05154637500000092
                },
                {
                    "name": "B3",
                    "midi": 59,
                    "time": 55.77317775000003,
                    "velocity": 0.2755905511811024,
                    "duration": 0.10309275000000184
                },
                {
                    "name": "D#4",
                    "midi": 63,
                    "time": 55.87627050000003,
                    "velocity": 0.2755905511811024,
                    "duration": 0.10309275000000184
                },
                {
                    "name": "F#4",
                    "midi": 66,
                    "time": 55.979363250000034,
                    "velocity": 0.2755905511811024,
                    "duration": 0.10309275000000184
                },
                {
                    "name": "D#4",
                    "midi": 63,
                    "time": 56.082456000000036,
                    "velocity": 0.2755905511811024,
                    "duration": 0.10309275000000184
                },
                {
                    "name": "B3",
                    "midi": 59,
                    "time": 56.18554875000004,
                    "velocity": 0.2755905511811024,
                    "duration": 0.10309275000000184
                },
                {
                    "name": "E2",
                    "midi": 40,
                    "time": 56.28864150000004,
                    "velocity": 0.3858267716535433,
                    "duration": 0.05154637500000092
                },
                {
                    "name": "G#3",
                    "midi": 56,
                    "time": 56.39173425000004,
                    "velocity": 0.2755905511811024,
                    "duration": 0.10309275000000184
                },
                {
                    "name": "C#4",
                    "midi": 61,
                    "time": 56.49482700000004,
                    "velocity": 0.2755905511811024,
                    "duration": 0.10309275000000184
                },
                {
                    "name": "E4",
                    "midi": 64,
                    "time": 56.597919750000045,
                    "velocity": 0.2755905511811024,
                    "duration": 0.10309275000000184
                },
                {
                    "name": "C#4",
                    "midi": 61,
                    "time": 56.70101250000005,
                    "velocity": 0.2755905511811024,
                    "duration": 0.10309275000000184
                },
                {
                    "name": "G#3",
                    "midi": 56,
                    "time": 56.80410525000005,
                    "velocity": 0.2755905511811024,
                    "duration": 0.10309275000000184
                },
                {
                    "name": "F#2",
                    "midi": 42,
                    "time": 56.90719800000005,
                    "velocity": 0.4094488188976378,
                    "duration": 0.05154637500000092
                },
                {
                    "name": "F#3",
                    "midi": 54,
                    "time": 57.01029075000005,
                    "velocity": 0.2755905511811024,
                    "duration": 0.10309275000000184
                },
                {
                    "name": "A#3",
                    "midi": 58,
                    "time": 57.113383500000054,
                    "velocity": 0.2755905511811024,
                    "duration": 0.10309275000000184
                },
                {
                    "name": "E4",
                    "midi": 64,
                    "time": 57.216476250000056,
                    "velocity": 0.2755905511811024,
                    "duration": 0.10309275000000184
                },
                {
                    "name": "A#3",
                    "midi": 58,
                    "time": 57.31956900000006,
                    "velocity": 0.2755905511811024,
                    "duration": 0.10309275000000184
                },
                {
                    "name": "F#3",
                    "midi": 54,
                    "time": 57.42266175000006,
                    "velocity": 0.2755905511811024,
                    "duration": 0.10309275000000184
                },
                {
                    "name": "B2",
                    "midi": 47,
                    "time": 57.52575450000006,
                    "velocity": 0.3858267716535433,
                    "duration": 0.05154637500000092
                },
                {
                    "name": "F#3",
                    "midi": 54,
                    "time": 57.628847250000064,
                    "velocity": 0.2755905511811024,
                    "duration": 0.10309275000000184
                },
                {
                    "name": "B3",
                    "midi": 59,
                    "time": 57.731940000000066,
                    "velocity": 0.2755905511811024,
                    "duration": 0.10309275000000184
                },
                {
                    "name": "D#4",
                    "midi": 63,
                    "time": 57.83503275000007,
                    "velocity": 0.2755905511811024,
                    "duration": 0.10309275000000184
                },
                {
                    "name": "B3",
                    "midi": 59,
                    "time": 57.93812550000007,
                    "velocity": 0.2755905511811024,
                    "duration": 0.10309275000000184
                },
                {
                    "name": "F#3",
                    "midi": 54,
                    "time": 58.04121825000007,
                    "velocity": 0.2755905511811024,
                    "duration": 0.10309275000000184
                },
                {
                    "name": "B1",
                    "midi": 35,
                    "time": 58.14431100000007,
                    "velocity": 0.5826771653543307,
                    "duration": 0.3092782499999984
                },
                {
                    "name": "B2",
                    "midi": 47,
                    "time": 58.14431100000007,
                    "velocity": 0.6929133858267716,
                    "duration": 0.3092782499999984
                },
                {
                    "name": "B2",
                    "midi": 47,
                    "time": 58.45358925000007,
                    "velocity": 0.6062992125984252,
                    "duration": 0.09793811250000317
                },
                {
                    "name": "B1",
                    "midi": 35,
                    "time": 58.45358925000007,
                    "velocity": 0.5118110236220472,
                    "duration": 0.09793811250000317
                },
                {
                    "name": "B1",
                    "midi": 35,
                    "time": 58.55668200000007,
                    "velocity": 0.5590551181102362,
                    "duration": 0.10309275000000184
                },
                {
                    "name": "B2",
                    "midi": 47,
                    "time": 58.55668200000007,
                    "velocity": 0.6614173228346457,
                    "duration": 0.10309275000000184
                },
                {
                    "name": "D2",
                    "midi": 38,
                    "time": 58.76286750000008,
                    "velocity": 0.5905511811023622,
                    "duration": 0.3092782499999984
                },
                {
                    "name": "D3",
                    "midi": 50,
                    "time": 58.76286750000008,
                    "velocity": 0.7007874015748031,
                    "duration": 0.3092782499999984
                },
                {
                    "name": "D3",
                    "midi": 50,
                    "time": 59.072145750000075,
                    "velocity": 0.6062992125984252,
                    "duration": 0.09793811250000317
                },
                {
                    "name": "D2",
                    "midi": 38,
                    "time": 59.072145750000075,
                    "velocity": 0.5118110236220472,
                    "duration": 0.09793811250000317
                },
                {
                    "name": "D2",
                    "midi": 38,
                    "time": 59.17523850000008,
                    "velocity": 0.5354330708661418,
                    "duration": 0.10309275000000184
                },
                {
                    "name": "D3",
                    "midi": 50,
                    "time": 59.17523850000008,
                    "velocity": 0.6299212598425197,
                    "duration": 0.10309275000000184
                },
                {
                    "name": "D#2",
                    "midi": 39,
                    "time": 59.38142400000008,
                    "velocity": 0.5669291338582677,
                    "duration": 0.3092782499999984
                },
                {
                    "name": "D#3",
                    "midi": 51,
                    "time": 59.38142400000008,
                    "velocity": 0.6692913385826772,
                    "duration": 0.3092782499999984
                },
                {
                    "name": "D#3",
                    "midi": 51,
                    "time": 59.69070225000008,
                    "velocity": 0.6377952755905512,
                    "duration": 0.10309275000000184
                },
                {
                    "name": "D#2",
                    "midi": 39,
                    "time": 59.69070225000008,
                    "velocity": 0.5433070866141733,
                    "duration": 0.10309275000000184
                },
                {
                    "name": "F#2",
                    "midi": 42,
                    "time": 59.79379500000008,
                    "velocity": 0.5511811023622047,
                    "duration": 0.10309275000000184
                },
                {
                    "name": "F#3",
                    "midi": 54,
                    "time": 59.79379500000008,
                    "velocity": 0.6535433070866141,
                    "duration": 0.10309275000000184
                },
                {
                    "name": "A#2",
                    "midi": 46,
                    "time": 59.999980500000085,
                    "velocity": 0.5905511811023622,
                    "duration": 0.6185564999999968
                },
                {
                    "name": "A#3",
                    "midi": 58,
                    "time": 59.999980500000085,
                    "velocity": 0.7007874015748031,
                    "duration": 0.6185564999999968
                },
                {
                    "name": "C#2",
                    "midi": 37,
                    "time": 60.61853700000008,
                    "velocity": 0.5826771653543307,
                    "duration": 0.3092782499999984
                },
                {
                    "name": "C#3",
                    "midi": 49,
                    "time": 60.61853700000008,
                    "velocity": 0.6929133858267716,
                    "duration": 0.3092782499999984
                },
                {
                    "name": "C#3",
                    "midi": 49,
                    "time": 60.92781525000008,
                    "velocity": 0.6062992125984252,
                    "duration": 0.09793811250000317
                },
                {
                    "name": "C#2",
                    "midi": 37,
                    "time": 60.92781525000008,
                    "velocity": 0.5118110236220472,
                    "duration": 0.09793811250000317
                },
                {
                    "name": "C#2",
                    "midi": 37,
                    "time": 61.03090800000008,
                    "velocity": 0.5590551181102362,
                    "duration": 0.10309275000000184
                },
                {
                    "name": "C#3",
                    "midi": 49,
                    "time": 61.03090800000008,
                    "velocity": 0.6614173228346457,
                    "duration": 0.10309275000000184
                },
                {
                    "name": "E2",
                    "midi": 40,
                    "time": 61.237093500000086,
                    "velocity": 0.5905511811023622,
                    "duration": 0.3092782499999984
                },
                {
                    "name": "E3",
                    "midi": 52,
                    "time": 61.237093500000086,
                    "velocity": 0.7007874015748031,
                    "duration": 0.3092782499999984
                },
                {
                    "name": "E3",
                    "midi": 52,
                    "time": 61.546371750000084,
                    "velocity": 0.6062992125984252,
                    "duration": 0.09793811250000317
                },
                {
                    "name": "E2",
                    "midi": 40,
                    "time": 61.546371750000084,
                    "velocity": 0.5118110236220472,
                    "duration": 0.09793811250000317
                },
                {
                    "name": "E2",
                    "midi": 40,
                    "time": 61.649464500000086,
                    "velocity": 0.5354330708661418,
                    "duration": 0.10309275000000184
                },
                {
                    "name": "E3",
                    "midi": 52,
                    "time": 61.649464500000086,
                    "velocity": 0.6299212598425197,
                    "duration": 0.10309275000000184
                },
                {
                    "name": "F2",
                    "midi": 41,
                    "time": 61.85565000000009,
                    "velocity": 0.5669291338582677,
                    "duration": 0.3092782499999984
                },
                {
                    "name": "F3",
                    "midi": 53,
                    "time": 61.85565000000009,
                    "velocity": 0.6692913385826772,
                    "duration": 0.3092782499999984
                },
                {
                    "name": "F3",
                    "midi": 53,
                    "time": 62.16492825000009,
                    "velocity": 0.6377952755905512,
                    "duration": 0.10309275000000184
                },
                {
                    "name": "F2",
                    "midi": 41,
                    "time": 62.16492825000009,
                    "velocity": 0.5433070866141733,
                    "duration": 0.10309275000000184
                },
                {
                    "name": "G#2",
                    "midi": 44,
                    "time": 62.26802100000009,
                    "velocity": 0.5511811023622047,
                    "duration": 0.10309275000000184
                },
                {
                    "name": "G#3",
                    "midi": 56,
                    "time": 62.26802100000009,
                    "velocity": 0.6535433070866141,
                    "duration": 0.10309275000000184
                },
                {
                    "name": "C3",
                    "midi": 48,
                    "time": 62.47420650000009,
                    "velocity": 0.5905511811023622,
                    "duration": 0.6185564999999968
                },
                {
                    "name": "C4",
                    "midi": 60,
                    "time": 62.47420650000009,
                    "velocity": 0.7007874015748031,
                    "duration": 0.6185564999999968
                },
                {
                    "name": "D#2",
                    "midi": 39,
                    "time": 63.09276300000009,
                    "velocity": 0.6062992125984252,
                    "duration": 0.3092782499999984
                },
                {
                    "name": "D#3",
                    "midi": 51,
                    "time": 63.09276300000009,
                    "velocity": 0.7244094488188977,
                    "duration": 0.3092782499999984
                },
                {
                    "name": "D#3",
                    "midi": 51,
                    "time": 63.40204125000009,
                    "velocity": 0.6299212598425197,
                    "duration": 0.09793811250000317
                },
                {
                    "name": "D#2",
                    "midi": 39,
                    "time": 63.40204125000009,
                    "velocity": 0.5354330708661418,
                    "duration": 0.09793811250000317
                },
                {
                    "name": "D#2",
                    "midi": 39,
                    "time": 63.50513400000009,
                    "velocity": 0.5905511811023622,
                    "duration": 0.10309275000000184
                },
                {
                    "name": "D#3",
                    "midi": 51,
                    "time": 63.50513400000009,
                    "velocity": 0.7007874015748031,
                    "duration": 0.10309275000000184
                },
                {
                    "name": "G2",
                    "midi": 43,
                    "time": 63.711319500000094,
                    "velocity": 0.6220472440944882,
                    "duration": 0.3092782499999984
                },
                {
                    "name": "G3",
                    "midi": 55,
                    "time": 63.711319500000094,
                    "velocity": 0.7401574803149606,
                    "duration": 0.3092782499999984
                },
                {
                    "name": "G3",
                    "midi": 55,
                    "time": 64.02059775000009,
                    "velocity": 0.6456692913385826,
                    "duration": 0.09793811250000317
                },
                {
                    "name": "G2",
                    "midi": 43,
                    "time": 64.02059775000009,
                    "velocity": 0.5433070866141733,
                    "duration": 0.09793811250000317
                },
                {
                    "name": "G2",
                    "midi": 43,
                    "time": 64.1236905000001,
                    "velocity": 0.5669291338582677,
                    "duration": 0.10309275000000184
                },
                {
                    "name": "G3",
                    "midi": 55,
                    "time": 64.1236905000001,
                    "velocity": 0.6692913385826772,
                    "duration": 0.10309275000000184
                },
                {
                    "name": "G#2",
                    "midi": 44,
                    "time": 64.3298760000001,
                    "velocity": 0.6062992125984252,
                    "duration": 0.30927825000000553
                },
                {
                    "name": "G#3",
                    "midi": 56,
                    "time": 64.3298760000001,
                    "velocity": 0.7165354330708661,
                    "duration": 0.30927825000000553
                },
                {
                    "name": "G#3",
                    "midi": 56,
                    "time": 64.6391542500001,
                    "velocity": 0.6929133858267716,
                    "duration": 0.10309275000000184
                },
                {
                    "name": "G#2",
                    "midi": 44,
                    "time": 64.6391542500001,
                    "velocity": 0.5905511811023622,
                    "duration": 0.10309275000000184
                },
                {
                    "name": "B2",
                    "midi": 47,
                    "time": 64.7422470000001,
                    "velocity": 0.5984251968503937,
                    "duration": 0.10309275000000184
                },
                {
                    "name": "B3",
                    "midi": 59,
                    "time": 64.7422470000001,
                    "velocity": 0.7086614173228346,
                    "duration": 0.10309275000000184
                },
                {
                    "name": "D#3",
                    "midi": 51,
                    "time": 64.94843250000011,
                    "velocity": 0.6141732283464567,
                    "duration": 0.6185564999999968
                },
                {
                    "name": "D#4",
                    "midi": 63,
                    "time": 64.94843250000011,
                    "velocity": 0.7322834645669292,
                    "duration": 0.6185564999999968
                },
                {
                    "name": "C#3",
                    "midi": 49,
                    "time": 65.5669890000001,
                    "velocity": 0.5354330708661418,
                    "duration": 0.3092782499999913
                },
                {
                    "name": "C#4",
                    "midi": 61,
                    "time": 65.5669890000001,
                    "velocity": 0.6377952755905512,
                    "duration": 0.3092782499999913
                },
                {
                    "name": "C#3",
                    "midi": 49,
                    "time": 65.8762672500001,
                    "velocity": 0.4881889763779528,
                    "duration": 0.09793811250000317
                },
                {
                    "name": "C#4",
                    "midi": 61,
                    "time": 65.8762672500001,
                    "velocity": 0.5748031496062992,
                    "duration": 0.09793811250000317
                },
                {
                    "name": "C#3",
                    "midi": 49,
                    "time": 65.9793600000001,
                    "velocity": 0.5433070866141733,
                    "duration": 0.20618550000000369
                },
                {
                    "name": "C#4",
                    "midi": 61,
                    "time": 65.9793600000001,
                    "velocity": 0.6456692913385826,
                    "duration": 0.20618550000000369
                },
                {
                    "name": "C#3",
                    "midi": 49,
                    "time": 66.1855455000001,
                    "velocity": 0.4881889763779528,
                    "duration": 0.30927825000000553
                },
                {
                    "name": "C#4",
                    "midi": 61,
                    "time": 66.1855455000001,
                    "velocity": 0.6771653543307087,
                    "duration": 0.30927825000000553
                },
                {
                    "name": "C#3",
                    "midi": 49,
                    "time": 66.49482375000011,
                    "velocity": 0.48031496062992124,
                    "duration": 0.09793811250000317
                },
                {
                    "name": "C#4",
                    "midi": 61,
                    "time": 66.49482375000011,
                    "velocity": 0.5669291338582677,
                    "duration": 0.09793811250000317
                },
                {
                    "name": "C#3",
                    "midi": 49,
                    "time": 66.59791650000011,
                    "velocity": 0.5275590551181102,
                    "duration": 0.20618550000000369
                },
                {
                    "name": "C#4",
                    "midi": 61,
                    "time": 66.59791650000011,
                    "velocity": 0.6220472440944882,
                    "duration": 0.20618550000000369
                },
                {
                    "name": "C#3",
                    "midi": 49,
                    "time": 66.80410200000011,
                    "velocity": 0.7007874015748031,
                    "duration": 0.3092782499999913
                },
                {
                    "name": "C#4",
                    "midi": 61,
                    "time": 66.80410200000011,
                    "velocity": 0.7007874015748031,
                    "duration": 0.3092782499999913
                },
                {
                    "name": "C#2",
                    "midi": 37,
                    "time": 67.1133802500001,
                    "velocity": 0.6141732283464567,
                    "duration": 0.10309275000000184
                },
                {
                    "name": "C#3",
                    "midi": 49,
                    "time": 67.1133802500001,
                    "velocity": 0.6141732283464567,
                    "duration": 0.10309275000000184
                },
                {
                    "name": "C#2",
                    "midi": 37,
                    "time": 67.21647300000011,
                    "velocity": 0.6771653543307087,
                    "duration": 0.8247420000000005
                },
                {
                    "name": "C#3",
                    "midi": 49,
                    "time": 67.21647300000011,
                    "velocity": 0.6771653543307087,
                    "duration": 0.8247420000000005
                },
                {
                    "name": "D3",
                    "midi": 50,
                    "time": 68.04121500000011,
                    "velocity": 0.5354330708661418,
                    "duration": 0.3092782499999913
                },
                {
                    "name": "D4",
                    "midi": 62,
                    "time": 68.04121500000011,
                    "velocity": 0.6377952755905512,
                    "duration": 0.3092782499999913
                },
                {
                    "name": "D3",
                    "midi": 50,
                    "time": 68.3504932500001,
                    "velocity": 0.4881889763779528,
                    "duration": 0.09793811250000317
                },
                {
                    "name": "D4",
                    "midi": 62,
                    "time": 68.3504932500001,
                    "velocity": 0.5748031496062992,
                    "duration": 0.09793811250000317
                },
                {
                    "name": "D3",
                    "midi": 50,
                    "time": 68.4535860000001,
                    "velocity": 0.5433070866141733,
                    "duration": 0.20618550000000369
                },
                {
                    "name": "D4",
                    "midi": 62,
                    "time": 68.4535860000001,
                    "velocity": 0.6456692913385826,
                    "duration": 0.20618550000000369
                },
                {
                    "name": "D3",
                    "midi": 50,
                    "time": 68.6597715000001,
                    "velocity": 0.4881889763779528,
                    "duration": 0.30927825000000553
                },
                {
                    "name": "D4",
                    "midi": 62,
                    "time": 68.6597715000001,
                    "velocity": 0.6771653543307087,
                    "duration": 0.30927825000000553
                },
                {
                    "name": "D3",
                    "midi": 50,
                    "time": 68.96904975000011,
                    "velocity": 0.48031496062992124,
                    "duration": 0.09793811250000317
                },
                {
                    "name": "D4",
                    "midi": 62,
                    "time": 68.96904975000011,
                    "velocity": 0.5669291338582677,
                    "duration": 0.09793811250000317
                },
                {
                    "name": "D3",
                    "midi": 50,
                    "time": 69.07214250000011,
                    "velocity": 0.5275590551181102,
                    "duration": 0.20618550000000369
                },
                {
                    "name": "D4",
                    "midi": 62,
                    "time": 69.07214250000011,
                    "velocity": 0.6220472440944882,
                    "duration": 0.20618550000000369
                },
                {
                    "name": "D3",
                    "midi": 50,
                    "time": 69.27832800000012,
                    "velocity": 0.7007874015748031,
                    "duration": 0.3092782499999913
                },
                {
                    "name": "D4",
                    "midi": 62,
                    "time": 69.27832800000012,
                    "velocity": 0.7007874015748031,
                    "duration": 0.3092782499999913
                },
                {
                    "name": "D2",
                    "midi": 38,
                    "time": 69.5876062500001,
                    "velocity": 0.6141732283464567,
                    "duration": 0.10309275000000184
                },
                {
                    "name": "D3",
                    "midi": 50,
                    "time": 69.5876062500001,
                    "velocity": 0.6141732283464567,
                    "duration": 0.10309275000000184
                },
                {
                    "name": "D2",
                    "midi": 38,
                    "time": 69.69069900000011,
                    "velocity": 0.6771653543307087,
                    "duration": 0.8247420000000005
                },
                {
                    "name": "D3",
                    "midi": 50,
                    "time": 69.69069900000011,
                    "velocity": 0.6771653543307087,
                    "duration": 0.8247420000000005
                },
                {
                    "name": "E3",
                    "midi": 52,
                    "time": 70.51544100000011,
                    "velocity": 0.5354330708661418,
                    "duration": 0.3092782499999913
                },
                {
                    "name": "E4",
                    "midi": 64,
                    "time": 70.51544100000011,
                    "velocity": 0.6377952755905512,
                    "duration": 0.3092782499999913
                },
                {
                    "name": "E3",
                    "midi": 52,
                    "time": 70.8247192500001,
                    "velocity": 0.4881889763779528,
                    "duration": 0.09793811250000317
                },
                {
                    "name": "E4",
                    "midi": 64,
                    "time": 70.8247192500001,
                    "velocity": 0.5748031496062992,
                    "duration": 0.09793811250000317
                },
                {
                    "name": "E3",
                    "midi": 52,
                    "time": 70.9278120000001,
                    "velocity": 0.5433070866141733,
                    "duration": 0.20618550000000369
                },
                {
                    "name": "E4",
                    "midi": 64,
                    "time": 70.9278120000001,
                    "velocity": 0.6456692913385826,
                    "duration": 0.20618550000000369
                },
                {
                    "name": "E3",
                    "midi": 52,
                    "time": 71.1339975000001,
                    "velocity": 0.4881889763779528,
                    "duration": 0.30927825000000553
                },
                {
                    "name": "E4",
                    "midi": 64,
                    "time": 71.1339975000001,
                    "velocity": 0.6771653543307087,
                    "duration": 0.30927825000000553
                },
                {
                    "name": "E3",
                    "midi": 52,
                    "time": 71.44327575000011,
                    "velocity": 0.48031496062992124,
                    "duration": 0.09793811250000317
                },
                {
                    "name": "E4",
                    "midi": 64,
                    "time": 71.44327575000011,
                    "velocity": 0.5669291338582677,
                    "duration": 0.09793811250000317
                },
                {
                    "name": "E3",
                    "midi": 52,
                    "time": 71.54636850000011,
                    "velocity": 0.5275590551181102,
                    "duration": 0.20618550000000369
                },
                {
                    "name": "E4",
                    "midi": 64,
                    "time": 71.54636850000011,
                    "velocity": 0.6220472440944882,
                    "duration": 0.20618550000000369
                },
                {
                    "name": "E3",
                    "midi": 52,
                    "time": 71.75255400000012,
                    "velocity": 0.7007874015748031,
                    "duration": 0.3092782499999913
                },
                {
                    "name": "E4",
                    "midi": 64,
                    "time": 71.75255400000012,
                    "velocity": 0.7007874015748031,
                    "duration": 0.3092782499999913
                },
                {
                    "name": "E2",
                    "midi": 40,
                    "time": 72.06183225000011,
                    "velocity": 0.6141732283464567,
                    "duration": 0.10309275000000184
                },
                {
                    "name": "E3",
                    "midi": 52,
                    "time": 72.06183225000011,
                    "velocity": 0.6141732283464567,
                    "duration": 0.10309275000000184
                },
                {
                    "name": "E2",
                    "midi": 40,
                    "time": 72.16492500000011,
                    "velocity": 0.6771653543307087,
                    "duration": 0.8247420000000005
                },
                {
                    "name": "E3",
                    "midi": 52,
                    "time": 72.16492500000011,
                    "velocity": 0.6771653543307087,
                    "duration": 0.8247420000000005
                },
                {
                    "name": "A#3",
                    "midi": 58,
                    "time": 72.98966700000011,
                    "velocity": 0.5354330708661418,
                    "duration": 0.3092782499999913
                },
                {
                    "name": "D#3",
                    "midi": 51,
                    "time": 72.98966700000011,
                    "velocity": 0.5354330708661418,
                    "duration": 0.3092782499999913
                },
                {
                    "name": "G3",
                    "midi": 55,
                    "time": 72.98966700000011,
                    "velocity": 0.5354330708661418,
                    "duration": 0.3092782499999913
                },
                {
                    "name": "D#4",
                    "midi": 63,
                    "time": 72.98966700000011,
                    "velocity": 0.6377952755905512,
                    "duration": 0.3092782499999913
                },
                {
                    "name": "D#4",
                    "midi": 63,
                    "time": 73.2989452500001,
                    "velocity": 0.5748031496062992,
                    "duration": 0.09793811250000317
                },
                {
                    "name": "D#4",
                    "midi": 63,
                    "time": 73.4020380000001,
                    "velocity": 0.6456692913385826,
                    "duration": 0.10309275000000184
                },
                {
                    "name": "B3",
                    "midi": 59,
                    "time": 73.60822350000011,
                    "velocity": 0.5354330708661418,
                    "duration": 0.30927825000000553
                },
                {
                    "name": "D#3",
                    "midi": 51,
                    "time": 73.60822350000011,
                    "velocity": 0.5354330708661418,
                    "duration": 0.30927825000000553
                },
                {
                    "name": "G#3",
                    "midi": 56,
                    "time": 73.60822350000011,
                    "velocity": 0.5354330708661418,
                    "duration": 0.30927825000000553
                },
                {
                    "name": "D#4",
                    "midi": 63,
                    "time": 73.60822350000011,
                    "velocity": 0.6377952755905512,
                    "duration": 0.30927825000000553
                },
                {
                    "name": "D#4",
                    "midi": 63,
                    "time": 73.91750175000011,
                    "velocity": 0.5748031496062992,
                    "duration": 0.09793811250000317
                },
                {
                    "name": "D#4",
                    "midi": 63,
                    "time": 74.02059450000012,
                    "velocity": 0.6456692913385826,
                    "duration": 0.10309275000000184
                },
                {
                    "name": "A#3",
                    "midi": 58,
                    "time": 74.22678000000012,
                    "velocity": 0.5354330708661418,
                    "duration": 0.30927825000000553
                },
                {
                    "name": "D#3",
                    "midi": 51,
                    "time": 74.22678000000012,
                    "velocity": 0.5354330708661418,
                    "duration": 0.30927825000000553
                },
                {
                    "name": "G3",
                    "midi": 55,
                    "time": 74.22678000000012,
                    "velocity": 0.5354330708661418,
                    "duration": 0.30927825000000553
                },
                {
                    "name": "D#4",
                    "midi": 63,
                    "time": 74.22678000000012,
                    "velocity": 0.6377952755905512,
                    "duration": 0.30927825000000553
                },
                {
                    "name": "D#4",
                    "midi": 63,
                    "time": 74.53605825000012,
                    "velocity": 0.5748031496062992,
                    "duration": 0.09793811250000317
                },
                {
                    "name": "D#4",
                    "midi": 63,
                    "time": 74.63915100000013,
                    "velocity": 0.6456692913385826,
                    "duration": 0.10309275000000184
                },
                {
                    "name": "B3",
                    "midi": 59,
                    "time": 74.84533650000013,
                    "velocity": 0.5354330708661418,
                    "duration": 0.30927825000000553
                },
                {
                    "name": "D#3",
                    "midi": 51,
                    "time": 74.84533650000013,
                    "velocity": 0.5354330708661418,
                    "duration": 0.30927825000000553
                },
                {
                    "name": "G#3",
                    "midi": 56,
                    "time": 74.84533650000013,
                    "velocity": 0.5354330708661418,
                    "duration": 0.30927825000000553
                },
                {
                    "name": "D#4",
                    "midi": 63,
                    "time": 74.84533650000013,
                    "velocity": 0.6377952755905512,
                    "duration": 0.30927825000000553
                },
                {
                    "name": "D#4",
                    "midi": 63,
                    "time": 75.15461475000014,
                    "velocity": 0.5748031496062992,
                    "duration": 0.09793811250000317
                },
                {
                    "name": "D#4",
                    "midi": 63,
                    "time": 75.25770750000014,
                    "velocity": 0.6456692913385826,
                    "duration": 0.10309275000000184
                },
                {
                    "name": "D#2",
                    "midi": 39,
                    "time": 75.46389300000014,
                    "velocity": 0.2677165354330709,
                    "duration": 0.30927825000000553
                },
                {
                    "name": "D#3",
                    "midi": 51,
                    "time": 75.46389300000014,
                    "velocity": 0.36220472440944884,
                    "duration": 0.30927825000000553
                },
                {
                    "name": "D#3",
                    "midi": 51,
                    "time": 75.77317125000015,
                    "velocity": 0.33858267716535434,
                    "duration": 0.09793811250000317
                },
                {
                    "name": "D#3",
                    "midi": 51,
                    "time": 75.87626400000015,
                    "velocity": 0.3779527559055118,
                    "duration": 0.10309274999998763
                },
                {
                    "name": "D#2",
                    "midi": 39,
                    "time": 76.08244950000014,
                    "velocity": 0.2677165354330709,
                    "duration": 0.30927825000000553
                },
                {
                    "name": "D#3",
                    "midi": 51,
                    "time": 76.08244950000014,
                    "velocity": 0.36220472440944884,
                    "duration": 0.30927825000000553
                },
                {
                    "name": "D#3",
                    "midi": 51,
                    "time": 76.39172775000014,
                    "velocity": 0.3228346456692913,
                    "duration": 0.09793811250000317
                },
                {
                    "name": "D#3",
                    "midi": 51,
                    "time": 76.49482050000015,
                    "velocity": 0.3700787401574803,
                    "duration": 0.10309274999998763
                },
                {
                    "name": "D#2",
                    "midi": 39,
                    "time": 76.70100600000013,
                    "velocity": 0.2677165354330709,
                    "duration": 0.30927825000000553
                },
                {
                    "name": "D#3",
                    "midi": 51,
                    "time": 76.70100600000013,
                    "velocity": 0.36220472440944884,
                    "duration": 0.30927825000000553
                },
                {
                    "name": "D#3",
                    "midi": 51,
                    "time": 77.01028425000014,
                    "velocity": 0.33858267716535434,
                    "duration": 0.09793811250000317
                },
                {
                    "name": "D#3",
                    "midi": 51,
                    "time": 77.11337700000014,
                    "velocity": 0.3779527559055118,
                    "duration": 0.10309275000000184
                },
                {
                    "name": "D#2",
                    "midi": 39,
                    "time": 77.31956250000015,
                    "velocity": 0.2677165354330709,
                    "duration": 0.30927825000000553
                },
                {
                    "name": "D#3",
                    "midi": 51,
                    "time": 77.31956250000015,
                    "velocity": 0.36220472440944884,
                    "duration": 0.30927825000000553
                },
                {
                    "name": "D#3",
                    "midi": 51,
                    "time": 77.62884075000015,
                    "velocity": 0.3228346456692913,
                    "duration": 0.09793811250000317
                },
                {
                    "name": "D#3",
                    "midi": 51,
                    "time": 77.73193350000015,
                    "velocity": 0.3700787401574803,
                    "duration": 0.10309275000000184
                },
                {
                    "name": "D#2",
                    "midi": 39,
                    "time": 77.93811900000016,
                    "velocity": 0.25196850393700787,
                    "duration": 0.20618550000000369
                },
                {
                    "name": "D#2",
                    "midi": 39,
                    "time": 78.55667550000017,
                    "velocity": 0.23622047244094488,
                    "duration": 0.20618550000000369
                },
                {
                    "name": "D#2",
                    "midi": 39,
                    "time": 79.17523200000018,
                    "velocity": 0.2125984251968504,
                    "duration": 0.20618550000000369
                },
                {
                    "name": "D#2",
                    "midi": 39,
                    "time": 79.79378850000018,
                    "velocity": 0.1968503937007874,
                    "duration": 0.20618550000000369
                },
                {
                    "name": "G#2",
                    "midi": 44,
                    "time": 80.41234500000019,
                    "velocity": 0.2204724409448819,
                    "duration": 0.30927825000000553
                },
                {
                    "name": "D#3",
                    "midi": 51,
                    "time": 80.41234500000019,
                    "velocity": 0.2204724409448819,
                    "duration": 0.30927825000000553
                },
                {
                    "name": "G#3",
                    "midi": 56,
                    "time": 80.41234500000019,
                    "velocity": 0.2677165354330709,
                    "duration": 0.30927825000000553
                },
                {
                    "name": "G#2",
                    "midi": 44,
                    "time": 80.72162325000019,
                    "velocity": 0.2047244094488189,
                    "duration": 0.09793811250000317
                },
                {
                    "name": "D#3",
                    "midi": 51,
                    "time": 80.72162325000019,
                    "velocity": 0.2047244094488189,
                    "duration": 0.09793811250000317
                },
                {
                    "name": "G#3",
                    "midi": 56,
                    "time": 80.72162325000019,
                    "velocity": 0.25196850393700787,
                    "duration": 0.09793811250000317
                },
                {
                    "name": "G#2",
                    "midi": 44,
                    "time": 80.8247160000002,
                    "velocity": 0.2283464566929134,
                    "duration": 0.10309275000000184
                },
                {
                    "name": "D#3",
                    "midi": 51,
                    "time": 80.8247160000002,
                    "velocity": 0.2283464566929134,
                    "duration": 0.10309275000000184
                },
                {
                    "name": "G#3",
                    "midi": 56,
                    "time": 80.8247160000002,
                    "velocity": 0.2677165354330709,
                    "duration": 0.10309275000000184
                },
                {
                    "name": "G#2",
                    "midi": 44,
                    "time": 81.0309015000002,
                    "velocity": 0.2204724409448819,
                    "duration": 0.3092782499999913
                },
                {
                    "name": "D#3",
                    "midi": 51,
                    "time": 81.0309015000002,
                    "velocity": 0.2204724409448819,
                    "duration": 0.3092782499999913
                },
                {
                    "name": "G#3",
                    "midi": 56,
                    "time": 81.0309015000002,
                    "velocity": 0.2677165354330709,
                    "duration": 0.3092782499999913
                },
                {
                    "name": "G#2",
                    "midi": 44,
                    "time": 81.34017975000019,
                    "velocity": 0.2047244094488189,
                    "duration": 0.09793811250000317
                },
                {
                    "name": "D#3",
                    "midi": 51,
                    "time": 81.34017975000019,
                    "velocity": 0.2047244094488189,
                    "duration": 0.09793811250000317
                },
                {
                    "name": "G#3",
                    "midi": 56,
                    "time": 81.34017975000019,
                    "velocity": 0.25196850393700787,
                    "duration": 0.09793811250000317
                },
                {
                    "name": "G#2",
                    "midi": 44,
                    "time": 81.44327250000019,
                    "velocity": 0.2283464566929134,
                    "duration": 0.10309275000000184
                },
                {
                    "name": "D#3",
                    "midi": 51,
                    "time": 81.44327250000019,
                    "velocity": 0.2283464566929134,
                    "duration": 0.10309275000000184
                },
                {
                    "name": "G#3",
                    "midi": 56,
                    "time": 81.44327250000019,
                    "velocity": 0.2677165354330709,
                    "duration": 0.10309275000000184
                },
                {
                    "name": "G#2",
                    "midi": 44,
                    "time": 81.6494580000002,
                    "velocity": 0.25984251968503935,
                    "duration": 0.20618550000000369
                },
                {
                    "name": "D#3",
                    "midi": 51,
                    "time": 81.6494580000002,
                    "velocity": 0.25984251968503935,
                    "duration": 0.20618550000000369
                },
                {
                    "name": "G#3",
                    "midi": 56,
                    "time": 81.6494580000002,
                    "velocity": 0.30708661417322836,
                    "duration": 0.20618550000000369
                },
                {
                    "name": "D#4",
                    "midi": 63,
                    "time": 82.8865710000002,
                    "velocity": 0.3464566929133858,
                    "duration": 0.05154637500000092
                },
                {
                    "name": "C#4",
                    "midi": 61,
                    "time": 82.8865710000002,
                    "velocity": 0.29133858267716534,
                    "duration": 0.05154637500000092
                },
                {
                    "name": "G3",
                    "midi": 55,
                    "time": 82.8865710000002,
                    "velocity": 0.29133858267716534,
                    "duration": 0.05154637500000092
                },
                {
                    "name": "D#4",
                    "midi": 63,
                    "time": 83.0927565000002,
                    "velocity": 0.3464566929133858,
                    "duration": 0.41237099999999316
                },
                {
                    "name": "C#4",
                    "midi": 61,
                    "time": 83.0927565000002,
                    "velocity": 0.29133858267716534,
                    "duration": 0.41237099999999316
                },
                {
                    "name": "G3",
                    "midi": 55,
                    "time": 83.0927565000002,
                    "velocity": 0.29133858267716534,
                    "duration": 0.41237099999999316
                },
                {
                    "name": "D3",
                    "midi": 50,
                    "time": 83.5051275000002,
                    "velocity": 0.33858267716535434,
                    "duration": 0.10309275000000184
                },
                {
                    "name": "D#3",
                    "midi": 51,
                    "time": 83.6082202500002,
                    "velocity": 0.31496062992125984,
                    "duration": 0.10309275000000184
                },
                {
                    "name": "A#2",
                    "midi": 46,
                    "time": 83.7113130000002,
                    "velocity": 0.33070866141732286,
                    "duration": 0.10309275000000184
                },
                {
                    "name": "G2",
                    "midi": 43,
                    "time": 83.8144057500002,
                    "velocity": 0.31496062992125984,
                    "duration": 0.10309275000000184
                },
                {
                    "name": "D#2",
                    "midi": 39,
                    "time": 83.9174985000002,
                    "velocity": 0.33070866141732286,
                    "duration": 0.10309275000000184
                },
                {
                    "name": "A#2",
                    "midi": 46,
                    "time": 84.12368400000021,
                    "velocity": 0.28346456692913385,
                    "duration": 0.30927825000000553
                },
                {
                    "name": "D#3",
                    "midi": 51,
                    "time": 84.12368400000021,
                    "velocity": 0.28346456692913385,
                    "duration": 0.30927825000000553
                },
                {
                    "name": "A#3",
                    "midi": 58,
                    "time": 84.12368400000021,
                    "velocity": 0.33858267716535434,
                    "duration": 0.30927825000000553
                },
                {
                    "name": "A#2",
                    "midi": 46,
                    "time": 84.43296225000022,
                    "velocity": 0.25984251968503935,
                    "duration": 0.09793811250000317
                },
                {
                    "name": "D#3",
                    "midi": 51,
                    "time": 84.43296225000022,
                    "velocity": 0.25984251968503935,
                    "duration": 0.09793811250000317
                },
                {
                    "name": "A#3",
                    "midi": 58,
                    "time": 84.43296225000022,
                    "velocity": 0.31496062992125984,
                    "duration": 0.09793811250000317
                },
                {
                    "name": "A#2",
                    "midi": 46,
                    "time": 84.53605500000022,
                    "velocity": 0.29133858267716534,
                    "duration": 0.10309275000000184
                },
                {
                    "name": "D#3",
                    "midi": 51,
                    "time": 84.53605500000022,
                    "velocity": 0.29133858267716534,
                    "duration": 0.10309275000000184
                },
                {
                    "name": "A#3",
                    "midi": 58,
                    "time": 84.53605500000022,
                    "velocity": 0.33858267716535434,
                    "duration": 0.10309275000000184
                },
                {
                    "name": "A#2",
                    "midi": 46,
                    "time": 84.74224050000022,
                    "velocity": 0.28346456692913385,
                    "duration": 0.3092782499999913
                },
                {
                    "name": "D#3",
                    "midi": 51,
                    "time": 84.74224050000022,
                    "velocity": 0.28346456692913385,
                    "duration": 0.3092782499999913
                },
                {
                    "name": "A#3",
                    "midi": 58,
                    "time": 84.74224050000022,
                    "velocity": 0.33858267716535434,
                    "duration": 0.3092782499999913
                },
                {
                    "name": "A#2",
                    "midi": 46,
                    "time": 85.05151875000021,
                    "velocity": 0.25984251968503935,
                    "duration": 0.09793811250000317
                },
                {
                    "name": "D#3",
                    "midi": 51,
                    "time": 85.05151875000021,
                    "velocity": 0.25984251968503935,
                    "duration": 0.09793811250000317
                },
                {
                    "name": "A#3",
                    "midi": 58,
                    "time": 85.05151875000021,
                    "velocity": 0.31496062992125984,
                    "duration": 0.09793811250000317
                },
                {
                    "name": "A#2",
                    "midi": 46,
                    "time": 85.15461150000021,
                    "velocity": 0.29133858267716534,
                    "duration": 0.10309275000000184
                },
                {
                    "name": "D#3",
                    "midi": 51,
                    "time": 85.15461150000021,
                    "velocity": 0.29133858267716534,
                    "duration": 0.10309275000000184
                },
                {
                    "name": "A#3",
                    "midi": 58,
                    "time": 85.15461150000021,
                    "velocity": 0.33858267716535434,
                    "duration": 0.10309275000000184
                },
                {
                    "name": "A#2",
                    "midi": 46,
                    "time": 85.36079700000022,
                    "velocity": 0.29133858267716534,
                    "duration": 0.20618550000000369
                },
                {
                    "name": "D#3",
                    "midi": 51,
                    "time": 85.36079700000022,
                    "velocity": 0.29133858267716534,
                    "duration": 0.20618550000000369
                },
                {
                    "name": "A#3",
                    "midi": 58,
                    "time": 85.36079700000022,
                    "velocity": 0.3464566929133858,
                    "duration": 0.20618550000000369
                },
                {
                    "name": "G4",
                    "midi": 67,
                    "time": 86.59791000000023,
                    "velocity": 0.3464566929133858,
                    "duration": 0.05154637500000092
                },
                {
                    "name": "D#4",
                    "midi": 63,
                    "time": 86.59791000000023,
                    "velocity": 0.29133858267716534,
                    "duration": 0.05154637500000092
                },
                {
                    "name": "G#3",
                    "midi": 56,
                    "time": 86.59791000000023,
                    "velocity": 0.29133858267716534,
                    "duration": 0.05154637500000092
                },
                {
                    "name": "G#4",
                    "midi": 68,
                    "time": 86.80409550000023,
                    "velocity": 0.3464566929133858,
                    "duration": 0.41237099999999316
                },
                {
                    "name": "D#4",
                    "midi": 63,
                    "time": 86.80409550000023,
                    "velocity": 0.29133858267716534,
                    "duration": 0.41237099999999316
                },
                {
                    "name": "G#3",
                    "midi": 56,
                    "time": 86.80409550000023,
                    "velocity": 0.29133858267716534,
                    "duration": 0.41237099999999316
                },
                {
                    "name": "G3",
                    "midi": 55,
                    "time": 87.21646650000022,
                    "velocity": 0.33858267716535434,
                    "duration": 0.10309275000000184
                },
                {
                    "name": "G#3",
                    "midi": 56,
                    "time": 87.31955925000022,
                    "velocity": 0.31496062992125984,
                    "duration": 0.10309275000000184
                },
                {
                    "name": "D#3",
                    "midi": 51,
                    "time": 87.42265200000023,
                    "velocity": 0.33070866141732286,
                    "duration": 0.10309275000000184
                },
                {
                    "name": "C3",
                    "midi": 48,
                    "time": 87.52574475000023,
                    "velocity": 0.31496062992125984,
                    "duration": 0.10309275000000184
                },
                {
                    "name": "G#2",
                    "midi": 44,
                    "time": 87.62883750000023,
                    "velocity": 0.33070866141732286,
                    "duration": 0.10309275000000184
                },
                {
                    "name": "G#2",
                    "midi": 44,
                    "time": 87.83502300000023,
                    "velocity": 0.5748031496062992,
                    "duration": 0.10309275000000184
                },
                {
                    "name": "A2",
                    "midi": 45,
                    "time": 87.93811575000024,
                    "velocity": 0.5354330708661418,
                    "duration": 0.10309275000000184
                },
                {
                    "name": "A#2",
                    "midi": 46,
                    "time": 88.04120850000024,
                    "velocity": 0.5669291338582677,
                    "duration": 0.10309275000000184
                },
                {
                    "name": "B2",
                    "midi": 47,
                    "time": 88.14430125000024,
                    "velocity": 0.5984251968503937,
                    "duration": 0.10309275000000184
                },
                {
                    "name": "C3",
                    "midi": 48,
                    "time": 88.24739400000024,
                    "velocity": 0.6299212598425197,
                    "duration": 0.10309275000000184
                },
                {
                    "name": "C#3",
                    "midi": 49,
                    "time": 88.45357950000025,
                    "velocity": 0.5748031496062992,
                    "duration": 0.10309275000000184
                },
                {
                    "name": "C#4",
                    "midi": 61,
                    "time": 88.55667225000025,
                    "velocity": 0.5275590551181102,
                    "duration": 0.10309275000000184
                },
                {
                    "name": "G#3",
                    "midi": 56,
                    "time": 88.65976500000025,
                    "velocity": 0.5511811023622047,
                    "duration": 0.10309275000000184
                },
                {
                    "name": "F3",
                    "midi": 53,
                    "time": 88.76285775000025,
                    "velocity": 0.5275590551181102,
                    "duration": 0.10309275000000184
                },
                {
                    "name": "C#3",
                    "midi": 49,
                    "time": 88.86595050000025,
                    "velocity": 0.5511811023622047,
                    "duration": 0.10309275000000184
                },
                {
                    "name": "F2",
                    "midi": 41,
                    "time": 89.07213600000026,
                    "velocity": 0.5748031496062992,
                    "duration": 0.10309275000000184
                },
                {
                    "name": "F#2",
                    "midi": 42,
                    "time": 89.17522875000026,
                    "velocity": 0.5511811023622047,
                    "duration": 0.10309275000000184
                },
                {
                    "name": "G2",
                    "midi": 43,
                    "time": 89.27832150000026,
                    "velocity": 0.5826771653543307,
                    "duration": 0.10309275000000184
                },
                {
                    "name": "G#2",
                    "midi": 44,
                    "time": 89.38141425000026,
                    "velocity": 0.6062992125984252,
                    "duration": 0.10309275000000184
                },
                {
                    "name": "A2",
                    "midi": 45,
                    "time": 89.48450700000026,
                    "velocity": 0.6377952755905512,
                    "duration": 0.10309275000000184
                },
                {
                    "name": "A#2",
                    "midi": 46,
                    "time": 89.69069250000027,
                    "velocity": 0.5748031496062992,
                    "duration": 0.10309275000000184
                },
                {
                    "name": "A#3",
                    "midi": 58,
                    "time": 89.79378525000027,
                    "velocity": 0.5275590551181102,
                    "duration": 0.10309275000000184
                },
                {
                    "name": "F3",
                    "midi": 53,
                    "time": 89.89687800000027,
                    "velocity": 0.5511811023622047,
                    "duration": 0.10309275000000184
                },
                {
                    "name": "C#3",
                    "midi": 49,
                    "time": 89.99997075000027,
                    "velocity": 0.5275590551181102,
                    "duration": 0.10309275000000184
                },
                {
                    "name": "A#2",
                    "midi": 46,
                    "time": 90.10306350000027,
                    "velocity": 0.5511811023622047,
                    "duration": 0.10309275000000184
                },
                {
                    "name": "G2",
                    "midi": 43,
                    "time": 90.30924900000028,
                    "velocity": 0.29133858267716534,
                    "duration": 0.41237100000000737
                },
                {
                    "name": "G3",
                    "midi": 55,
                    "time": 90.30924900000028,
                    "velocity": 0.3543307086614173,
                    "duration": 0.41237100000000737
                },
                {
                    "name": "E4",
                    "midi": 64,
                    "time": 90.72162000000029,
                    "velocity": 0.29133858267716534,
                    "duration": 0.10309275000000184
                },
                {
                    "name": "C#4",
                    "midi": 61,
                    "time": 90.72162000000029,
                    "velocity": 0.2440944881889764,
                    "duration": 0.10309275000000184
                },
                {
                    "name": "A#3",
                    "midi": 58,
                    "time": 90.72162000000029,
                    "velocity": 0.2440944881889764,
                    "duration": 0.10309275000000184
                },
                {
                    "name": "G3",
                    "midi": 55,
                    "time": 90.72162000000029,
                    "velocity": 0.2440944881889764,
                    "duration": 0.10309275000000184
                },
                {
                    "name": "G#2",
                    "midi": 44,
                    "time": 90.92780550000029,
                    "velocity": 0.31496062992125984,
                    "duration": 0.41237100000000737
                },
                {
                    "name": "G#3",
                    "midi": 56,
                    "time": 90.92780550000029,
                    "velocity": 0.3858267716535433,
                    "duration": 0.41237100000000737
                },
                {
                    "name": "D#4",
                    "midi": 63,
                    "time": 91.3401765000003,
                    "velocity": 0.31496062992125984,
                    "duration": 0.10309275000000184
                },
                {
                    "name": "C4",
                    "midi": 60,
                    "time": 91.3401765000003,
                    "velocity": 0.2677165354330709,
                    "duration": 0.10309275000000184
                },
                {
                    "name": "G#3",
                    "midi": 56,
                    "time": 91.3401765000003,
                    "velocity": 0.2677165354330709,
                    "duration": 0.10309275000000184
                },
                {
                    "name": "A#1",
                    "midi": 34,
                    "time": 91.5463620000003,
                    "velocity": 0.3858267716535433,
                    "duration": 0.41237100000000737
                },
                {
                    "name": "A#2",
                    "midi": 46,
                    "time": 91.5463620000003,
                    "velocity": 0.4566929133858268,
                    "duration": 0.41237100000000737
                },
                {
                    "name": "G3",
                    "midi": 55,
                    "time": 91.95873300000031,
                    "velocity": 0.3858267716535433,
                    "duration": 0.10309275000000184
                },
                {
                    "name": "C#3",
                    "midi": 49,
                    "time": 91.95873300000031,
                    "velocity": 0.31496062992125984,
                    "duration": 0.10309275000000184
                },
                {
                    "name": "A#2",
                    "midi": 46,
                    "time": 91.95873300000031,
                    "velocity": 0.31496062992125984,
                    "duration": 0.10309275000000184
                },
                {
                    "name": "B1",
                    "midi": 35,
                    "time": 92.16491850000031,
                    "velocity": 0.4251968503937008,
                    "duration": 0.41237100000000737
                },
                {
                    "name": "B2",
                    "midi": 47,
                    "time": 92.16491850000031,
                    "velocity": 0.5039370078740157,
                    "duration": 0.41237100000000737
                },
                {
                    "name": "G#3",
                    "midi": 56,
                    "time": 92.57728950000032,
                    "velocity": 0.4251968503937008,
                    "duration": 0.10309275000000184
                },
                {
                    "name": "D#3",
                    "midi": 51,
                    "time": 92.57728950000032,
                    "velocity": 0.3464566929133858,
                    "duration": 0.10309275000000184
                },
                {
                    "name": "B2",
                    "midi": 47,
                    "time": 92.57728950000032,
                    "velocity": 0.3464566929133858,
                    "duration": 0.10309275000000184
                },
                {
                    "name": "E2",
                    "midi": 40,
                    "time": 92.78347500000032,
                    "velocity": 0.47244094488188976,
                    "duration": 0.30927825000000553
                },
                {
                    "name": "E3",
                    "midi": 52,
                    "time": 92.78347500000032,
                    "velocity": 0.5511811023622047,
                    "duration": 0.30927825000000553
                },
                {
                    "name": "E1",
                    "midi": 28,
                    "time": 93.09275325000033,
                    "velocity": 0.4251968503937008,
                    "duration": 0.09793811250000317
                },
                {
                    "name": "E2",
                    "midi": 40,
                    "time": 93.09275325000033,
                    "velocity": 0.5039370078740157,
                    "duration": 0.09793811250000317
                },
                {
                    "name": "E1",
                    "midi": 28,
                    "time": 93.19584600000033,
                    "velocity": 0.4251968503937008,
                    "duration": 0.20618550000000369
                },
                {
                    "name": "E2",
                    "midi": 40,
                    "time": 93.19584600000033,
                    "velocity": 0.5039370078740157,
                    "duration": 0.20618550000000369
                },
                {
                    "name": "E1",
                    "midi": 28,
                    "time": 93.40203150000033,
                    "velocity": 0.48031496062992124,
                    "duration": 0.19587622500000634
                },
                {
                    "name": "E2",
                    "midi": 40,
                    "time": 93.40203150000033,
                    "velocity": 0.5669291338582677,
                    "duration": 0.19587622500000634
                },
                {
                    "name": "E1",
                    "midi": 28,
                    "time": 93.60821700000034,
                    "velocity": 0.4330708661417323,
                    "duration": 0.19587622500000634
                },
                {
                    "name": "E2",
                    "midi": 40,
                    "time": 93.60821700000034,
                    "velocity": 0.5196850393700787,
                    "duration": 0.19587622500000634
                },
                {
                    "name": "E1",
                    "midi": 28,
                    "time": 93.81440250000034,
                    "velocity": 0.4330708661417323,
                    "duration": 0.19587622500000634
                },
                {
                    "name": "E2",
                    "midi": 40,
                    "time": 93.81440250000034,
                    "velocity": 0.5196850393700787,
                    "duration": 0.19587622500000634
                },
                {
                    "name": "F2",
                    "midi": 41,
                    "time": 94.02058800000034,
                    "velocity": 0.44881889763779526,
                    "duration": 0.10309275000000184
                },
                {
                    "name": "F#2",
                    "midi": 42,
                    "time": 94.12368075000035,
                    "velocity": 0.4645669291338583,
                    "duration": 0.10309275000000184
                },
                {
                    "name": "G2",
                    "midi": 43,
                    "time": 94.22677350000035,
                    "velocity": 0.48031496062992124,
                    "duration": 0.10309275000000184
                },
                {
                    "name": "G#2",
                    "midi": 44,
                    "time": 94.32986625000035,
                    "velocity": 0.4881889763779528,
                    "duration": 0.10309275000000184
                },
                {
                    "name": "A2",
                    "midi": 45,
                    "time": 94.43295900000035,
                    "velocity": 0.5039370078740157,
                    "duration": 0.10309275000000184
                },
                {
                    "name": "A#2",
                    "midi": 46,
                    "time": 94.53605175000035,
                    "velocity": 0.5196850393700787,
                    "duration": 0.10309275000000184
                },
                {
                    "name": "B2",
                    "midi": 47,
                    "time": 94.63914450000036,
                    "velocity": 0.5354330708661418,
                    "duration": 0.10309275000000184
                },
                {
                    "name": "C3",
                    "midi": 48,
                    "time": 94.74223725000036,
                    "velocity": 0.5511811023622047,
                    "duration": 0.10309275000000184
                },
                {
                    "name": "C#3",
                    "midi": 49,
                    "time": 94.84533000000036,
                    "velocity": 0.5590551181102362,
                    "duration": 0.10309275000000184
                },
                {
                    "name": "D3",
                    "midi": 50,
                    "time": 94.94842275000036,
                    "velocity": 0.5748031496062992,
                    "duration": 0.10309275000000184
                },
                {
                    "name": "D#3",
                    "midi": 51,
                    "time": 95.05151550000036,
                    "velocity": 0.5905511811023622,
                    "duration": 0.10309275000000184
                },
                {
                    "name": "E3",
                    "midi": 52,
                    "time": 95.15460825000036,
                    "velocity": 0.6062992125984252,
                    "duration": 0.10309275000000184
                },
                {
                    "name": "E2",
                    "midi": 40,
                    "time": 95.25770100000037,
                    "velocity": 0.5669291338582677,
                    "duration": 0.20618550000000369
                },
                {
                    "name": "E3",
                    "midi": 52,
                    "time": 95.25770100000037,
                    "velocity": 0.6692913385826772,
                    "duration": 0.20618550000000369
                },
                {
                    "name": "E3",
                    "midi": 52,
                    "time": 95.46388650000037,
                    "velocity": 0.5118110236220472,
                    "duration": 0.10309275000000184
                },
                {
                    "name": "E4",
                    "midi": 64,
                    "time": 95.46388650000037,
                    "velocity": 0.6062992125984252,
                    "duration": 0.10309275000000184
                },
                {
                    "name": "E4",
                    "midi": 64,
                    "time": 95.67007200000037,
                    "velocity": 0.6062992125984252,
                    "duration": 0.10309275000000184
                },
                {
                    "name": "E3",
                    "midi": 52,
                    "time": 95.67007200000037,
                    "velocity": 0.5118110236220472,
                    "duration": 0.10309275000000184
                },
                {
                    "name": "E3",
                    "midi": 52,
                    "time": 95.87625750000038,
                    "velocity": 0.5669291338582677,
                    "duration": 0.10309275000000184
                },
                {
                    "name": "E4",
                    "midi": 64,
                    "time": 95.87625750000038,
                    "velocity": 0.6692913385826772,
                    "duration": 0.10309275000000184
                },
                {
                    "name": "E3",
                    "midi": 52,
                    "time": 96.08244300000038,
                    "velocity": 0.5118110236220472,
                    "duration": 0.10309275000000184
                },
                {
                    "name": "E4",
                    "midi": 64,
                    "time": 96.08244300000038,
                    "velocity": 0.6062992125984252,
                    "duration": 0.10309275000000184
                },
                {
                    "name": "E3",
                    "midi": 52,
                    "time": 96.28862850000039,
                    "velocity": 0.5118110236220472,
                    "duration": 0.10309275000000184
                },
                {
                    "name": "E4",
                    "midi": 64,
                    "time": 96.28862850000039,
                    "velocity": 0.6062992125984252,
                    "duration": 0.10309275000000184
                },
                {
                    "name": "D#3",
                    "midi": 51,
                    "time": 96.49481400000039,
                    "velocity": 0.5748031496062992,
                    "duration": 0.10309275000000184
                },
                {
                    "name": "D#4",
                    "midi": 63,
                    "time": 96.49481400000039,
                    "velocity": 0.6850393700787402,
                    "duration": 0.10309275000000184
                },
                {
                    "name": "D#3",
                    "midi": 51,
                    "time": 96.70099950000039,
                    "velocity": 0.6062992125984252,
                    "duration": 0.10309275000000184
                },
                {
                    "name": "D#2",
                    "midi": 39,
                    "time": 96.70099950000039,
                    "velocity": 0.5118110236220472,
                    "duration": 0.10309275000000184
                },
                {
                    "name": "D#3",
                    "midi": 51,
                    "time": 97.1133705000004,
                    "velocity": 0.5748031496062992,
                    "duration": 0.10309275000000184
                },
                {
                    "name": "D#4",
                    "midi": 63,
                    "time": 97.1133705000004,
                    "velocity": 0.6850393700787402,
                    "duration": 0.10309275000000184
                },
                {
                    "name": "D#3",
                    "midi": 51,
                    "time": 97.3195560000004,
                    "velocity": 0.6062992125984252,
                    "duration": 0.10309275000000184
                },
                {
                    "name": "D#2",
                    "midi": 39,
                    "time": 97.3195560000004,
                    "velocity": 0.5118110236220472,
                    "duration": 0.10309275000000184
                },
                {
                    "name": "D#3",
                    "midi": 51,
                    "time": 97.73192700000041,
                    "velocity": 0.33858267716535434,
                    "duration": 0.07731956249999428
                },
                {
                    "name": "D#2",
                    "midi": 39,
                    "time": 97.9381125000004,
                    "velocity": 0.2992125984251969,
                    "duration": 0.07731956249999428
                },
                {
                    "name": "D#3",
                    "midi": 51,
                    "time": 98.3504835000004,
                    "velocity": 0.33858267716535434,
                    "duration": 0.07731956249999428
                },
                {
                    "name": "D#2",
                    "midi": 39,
                    "time": 98.55666900000038,
                    "velocity": 0.2992125984251969,
                    "duration": 0.07731956249999428
                },
                {
                    "name": "G#2",
                    "midi": 44,
                    "time": 98.96904000000038,
                    "velocity": 0.2755905511811024,
                    "duration": 0.15463912499998855
                },
                {
                    "name": "C4",
                    "midi": 60,
                    "time": 99.17522550000037,
                    "velocity": 0.23622047244094488,
                    "duration": 0.41237099999999316
                },
                {
                    "name": "G#3",
                    "midi": 56,
                    "time": 99.17522550000037,
                    "velocity": 0.1968503937007874,
                    "duration": 0.41237099999999316
                },
                {
                    "name": "D#3",
                    "midi": 51,
                    "time": 99.17522550000037,
                    "velocity": 0.1968503937007874,
                    "duration": 0.41237099999999316
                },
                {
                    "name": "C3",
                    "midi": 48,
                    "time": 99.58759650000036,
                    "velocity": 0.2755905511811024,
                    "duration": 0.15463912499998855
                },
                {
                    "name": "D#4",
                    "midi": 63,
                    "time": 99.79378200000035,
                    "velocity": 0.2204724409448819,
                    "duration": 0.41237099999999316
                },
                {
                    "name": "C4",
                    "midi": 60,
                    "time": 99.79378200000035,
                    "velocity": 0.1889763779527559,
                    "duration": 0.41237099999999316
                },
                {
                    "name": "G#3",
                    "midi": 56,
                    "time": 99.79378200000035,
                    "velocity": 0.1889763779527559,
                    "duration": 0.41237099999999316
                },
                {
                    "name": "A#2",
                    "midi": 46,
                    "time": 100.20615300000034,
                    "velocity": 0.2755905511811024,
                    "duration": 0.15463912500000276
                },
                {
                    "name": "D#4",
                    "midi": 63,
                    "time": 100.41233850000035,
                    "velocity": 0.2204724409448819,
                    "duration": 0.41237099999999316
                },
                {
                    "name": "C#4",
                    "midi": 61,
                    "time": 100.41233850000035,
                    "velocity": 0.1889763779527559,
                    "duration": 0.41237099999999316
                },
                {
                    "name": "G3",
                    "midi": 55,
                    "time": 100.41233850000035,
                    "velocity": 0.1889763779527559,
                    "duration": 0.41237099999999316
                },
                {
                    "name": "D#2",
                    "midi": 39,
                    "time": 100.82470950000034,
                    "velocity": 0.29133858267716534,
                    "duration": 0.15463912500000276
                },
                {
                    "name": "D#4",
                    "midi": 63,
                    "time": 101.03089500000034,
                    "velocity": 0.2204724409448819,
                    "duration": 0.41237099999999316
                },
                {
                    "name": "A#3",
                    "midi": 58,
                    "time": 101.03089500000034,
                    "velocity": 0.1889763779527559,
                    "duration": 0.41237099999999316
                },
                {
                    "name": "G3",
                    "midi": 55,
                    "time": 101.03089500000034,
                    "velocity": 0.1889763779527559,
                    "duration": 0.41237099999999316
                },
                {
                    "name": "G#2",
                    "midi": 44,
                    "time": 101.44326600000034,
                    "velocity": 0.28346456692913385,
                    "duration": 0.15463912499998855
                },
                {
                    "name": "D#4",
                    "midi": 63,
                    "time": 101.64945150000032,
                    "velocity": 0.2204724409448819,
                    "duration": 0.41237099999999316
                },
                {
                    "name": "C4",
                    "midi": 60,
                    "time": 101.64945150000032,
                    "velocity": 0.1889763779527559,
                    "duration": 0.41237099999999316
                },
                {
                    "name": "G#3",
                    "midi": 56,
                    "time": 101.64945150000032,
                    "velocity": 0.1889763779527559,
                    "duration": 0.41237099999999316
                },
                {
                    "name": "C#2",
                    "midi": 37,
                    "time": 102.06182250000032,
                    "velocity": 0.28346456692913385,
                    "duration": 0.15463912500000276
                },
                {
                    "name": "C#4",
                    "midi": 61,
                    "time": 102.26800800000032,
                    "velocity": 0.2204724409448819,
                    "duration": 0.41237099999999316
                },
                {
                    "name": "A#3",
                    "midi": 58,
                    "time": 102.26800800000032,
                    "velocity": 0.1889763779527559,
                    "duration": 0.41237099999999316
                },
                {
                    "name": "F3",
                    "midi": 53,
                    "time": 102.26800800000032,
                    "velocity": 0.1889763779527559,
                    "duration": 0.41237099999999316
                },
                {
                    "name": "D#2",
                    "midi": 39,
                    "time": 102.68037900000031,
                    "velocity": 0.28346456692913385,
                    "duration": 0.15463912499998855
                },
                {
                    "name": "A#3",
                    "midi": 58,
                    "time": 102.8865645000003,
                    "velocity": 0.2204724409448819,
                    "duration": 0.41237099999999316
                },
                {
                    "name": "G3",
                    "midi": 55,
                    "time": 102.8865645000003,
                    "velocity": 0.1889763779527559,
                    "duration": 0.41237099999999316
                },
                {
                    "name": "D#3",
                    "midi": 51,
                    "time": 102.8865645000003,
                    "velocity": 0.1889763779527559,
                    "duration": 0.41237099999999316
                },
                {
                    "name": "G2",
                    "midi": 43,
                    "time": 103.2989355000003,
                    "velocity": 0.2755905511811024,
                    "duration": 0.15463912500000276
                },
                {
                    "name": "C#4",
                    "midi": 61,
                    "time": 103.5051210000003,
                    "velocity": 0.2204724409448819,
                    "duration": 0.41237100000000737
                },
                {
                    "name": "A#3",
                    "midi": 58,
                    "time": 103.5051210000003,
                    "velocity": 0.1889763779527559,
                    "duration": 0.41237100000000737
                },
                {
                    "name": "D#3",
                    "midi": 51,
                    "time": 103.5051210000003,
                    "velocity": 0.1889763779527559,
                    "duration": 0.41237100000000737
                },
                {
                    "name": "G#2",
                    "midi": 44,
                    "time": 103.91749200000031,
                    "velocity": 0.28346456692913385,
                    "duration": 0.05154637500000092
                },
                {
                    "name": "D#3",
                    "midi": 51,
                    "time": 104.02058475000031,
                    "velocity": 0.2204724409448819,
                    "duration": 0.10309275000000184
                },
                {
                    "name": "G#3",
                    "midi": 56,
                    "time": 104.12367750000031,
                    "velocity": 0.2204724409448819,
                    "duration": 0.10309275000000184
                },
                {
                    "name": "C4",
                    "midi": 60,
                    "time": 104.22677025000031,
                    "velocity": 0.2204724409448819,
                    "duration": 0.10309275000000184
                },
                {
                    "name": "G#3",
                    "midi": 56,
                    "time": 104.32986300000032,
                    "velocity": 0.2204724409448819,
                    "duration": 0.10309275000000184
                },
                {
                    "name": "D#3",
                    "midi": 51,
                    "time": 104.43295575000032,
                    "velocity": 0.2204724409448819,
                    "duration": 0.10309275000000184
                },
                {
                    "name": "C3",
                    "midi": 48,
                    "time": 104.53604850000032,
                    "velocity": 0.28346456692913385,
                    "duration": 0.05154637500000092
                },
                {
                    "name": "G#3",
                    "midi": 56,
                    "time": 104.63914125000032,
                    "velocity": 0.2204724409448819,
                    "duration": 0.10309275000000184
                },
                {
                    "name": "C4",
                    "midi": 60,
                    "time": 104.74223400000032,
                    "velocity": 0.2204724409448819,
                    "duration": 0.10309275000000184
                },
                {
                    "name": "D#4",
                    "midi": 63,
                    "time": 104.84532675000032,
                    "velocity": 0.2204724409448819,
                    "duration": 0.10309275000000184
                },
                {
                    "name": "C4",
                    "midi": 60,
                    "time": 104.94841950000033,
                    "velocity": 0.2204724409448819,
                    "duration": 0.10309275000000184
                },
                {
                    "name": "G#3",
                    "midi": 56,
                    "time": 105.05151225000033,
                    "velocity": 0.2204724409448819,
                    "duration": 0.10309275000000184
                },
                {
                    "name": "A#2",
                    "midi": 46,
                    "time": 105.15460500000033,
                    "velocity": 0.31496062992125984,
                    "duration": 0.05154637499998671
                },
                {
                    "name": "G3",
                    "midi": 55,
                    "time": 105.25769775000032,
                    "velocity": 0.2204724409448819,
                    "duration": 0.10309275000000184
                },
                {
                    "name": "C#4",
                    "midi": 61,
                    "time": 105.36079050000032,
                    "velocity": 0.2204724409448819,
                    "duration": 0.10309275000000184
                },
                {
                    "name": "D#4",
                    "midi": 63,
                    "time": 105.46388325000032,
                    "velocity": 0.2204724409448819,
                    "duration": 0.10309275000000184
                },
                {
                    "name": "C#4",
                    "midi": 61,
                    "time": 105.56697600000032,
                    "velocity": 0.2204724409448819,
                    "duration": 0.10309275000000184
                },
                {
                    "name": "G3",
                    "midi": 55,
                    "time": 105.67006875000033,
                    "velocity": 0.2204724409448819,
                    "duration": 0.10309275000000184
                },
                {
                    "name": "D#2",
                    "midi": 39,
                    "time": 105.77316150000033,
                    "velocity": 0.29133858267716534,
                    "duration": 0.05154637500000092
                },
                {
                    "name": "G3",
                    "midi": 55,
                    "time": 105.87625425000033,
                    "velocity": 0.2204724409448819,
                    "duration": 0.10309275000000184
                },
                {
                    "name": "A#3",
                    "midi": 58,
                    "time": 105.97934700000033,
                    "velocity": 0.2204724409448819,
                    "duration": 0.10309275000000184
                },
                {
                    "name": "D#4",
                    "midi": 63,
                    "time": 106.08243975000033,
                    "velocity": 0.2204724409448819,
                    "duration": 0.10309275000000184
                },
                {
                    "name": "A#3",
                    "midi": 58,
                    "time": 106.18553250000033,
                    "velocity": 0.2204724409448819,
                    "duration": 0.10309275000000184
                },
                {
                    "name": "G3",
                    "midi": 55,
                    "time": 106.28862525000034,
                    "velocity": 0.2204724409448819,
                    "duration": 0.10309275000000184
                },
                {
                    "name": "G#2",
                    "midi": 44,
                    "time": 106.39171800000034,
                    "velocity": 0.28346456692913385,
                    "duration": 0.05154637500000092
                },
                {
                    "name": "G#3",
                    "midi": 56,
                    "time": 106.49481075000034,
                    "velocity": 0.2204724409448819,
                    "duration": 0.10309275000000184
                },
                {
                    "name": "C4",
                    "midi": 60,
                    "time": 106.59790350000034,
                    "velocity": 0.2204724409448819,
                    "duration": 0.10309275000000184
                },
                {
                    "name": "D#4",
                    "midi": 63,
                    "time": 106.70099625000034,
                    "velocity": 0.2204724409448819,
                    "duration": 0.10309275000000184
                },
                {
                    "name": "C4",
                    "midi": 60,
                    "time": 106.80408900000035,
                    "velocity": 0.2204724409448819,
                    "duration": 0.10309275000000184
                },
                {
                    "name": "G#3",
                    "midi": 56,
                    "time": 106.90718175000035,
                    "velocity": 0.2204724409448819,
                    "duration": 0.10309275000000184
                },
                {
                    "name": "C#2",
                    "midi": 37,
                    "time": 107.01027450000035,
                    "velocity": 0.30708661417322836,
                    "duration": 0.05154637499998671
                },
                {
                    "name": "F3",
                    "midi": 53,
                    "time": 107.11336725000034,
                    "velocity": 0.2204724409448819,
                    "duration": 0.10309275000000184
                },
                {
                    "name": "A#3",
                    "midi": 58,
                    "time": 107.21646000000034,
                    "velocity": 0.2204724409448819,
                    "duration": 0.10309275000000184
                },
                {
                    "name": "C#4",
                    "midi": 61,
                    "time": 107.31955275000034,
                    "velocity": 0.2204724409448819,
                    "duration": 0.10309275000000184
                },
                {
                    "name": "A#3",
                    "midi": 58,
                    "time": 107.42264550000034,
                    "velocity": 0.2204724409448819,
                    "duration": 0.10309275000000184
                },
                {
                    "name": "F3",
                    "midi": 53,
                    "time": 107.52573825000034,
                    "velocity": 0.2204724409448819,
                    "duration": 0.10309275000000184
                },
                {
                    "name": "D#2",
                    "midi": 39,
                    "time": 107.62883100000035,
                    "velocity": 0.3228346456692913,
                    "duration": 0.05154637499998671
                },
                {
                    "name": "D#3",
                    "midi": 51,
                    "time": 107.73192375000033,
                    "velocity": 0.2204724409448819,
                    "duration": 0.10309275000000184
                },
                {
                    "name": "G3",
                    "midi": 55,
                    "time": 107.83501650000034,
                    "velocity": 0.2204724409448819,
                    "duration": 0.10309275000000184
                },
                {
                    "name": "C#4",
                    "midi": 61,
                    "time": 107.93810925000034,
                    "velocity": 0.2204724409448819,
                    "duration": 0.10309275000000184
                },
                {
                    "name": "G3",
                    "midi": 55,
                    "time": 108.04120200000034,
                    "velocity": 0.2204724409448819,
                    "duration": 0.10309275000000184
                },
                {
                    "name": "D#3",
                    "midi": 51,
                    "time": 108.14429475000034,
                    "velocity": 0.2204724409448819,
                    "duration": 0.10309275000000184
                },
                {
                    "name": "G#2",
                    "midi": 44,
                    "time": 108.24738750000034,
                    "velocity": 0.30708661417322836,
                    "duration": 0.05154637499998671
                },
                {
                    "name": "D#3",
                    "midi": 51,
                    "time": 108.35048025000033,
                    "velocity": 0.2204724409448819,
                    "duration": 0.10309275000000184
                },
                {
                    "name": "G#3",
                    "midi": 56,
                    "time": 108.45357300000033,
                    "velocity": 0.2204724409448819,
                    "duration": 0.10309275000000184
                },
                {
                    "name": "C4",
                    "midi": 60,
                    "time": 108.55666575000033,
                    "velocity": 0.2204724409448819,
                    "duration": 0.10309275000000184
                },
                {
                    "name": "G#3",
                    "midi": 56,
                    "time": 108.65975850000034,
                    "velocity": 0.2204724409448819,
                    "duration": 0.10309275000000184
                },
                {
                    "name": "D#3",
                    "midi": 51,
                    "time": 108.76285125000034,
                    "velocity": 0.2204724409448819,
                    "duration": 0.10309275000000184
                },
                {
                    "name": "D#2",
                    "midi": 39,
                    "time": 108.86594400000034,
                    "velocity": 0.49606299212598426,
                    "duration": 0.20618550000000369
                },
                {
                    "name": "D#3",
                    "midi": 51,
                    "time": 108.86594400000034,
                    "velocity": 0.5905511811023622,
                    "duration": 0.20618550000000369
                },
                {
                    "name": "G#1",
                    "midi": 32,
                    "time": 109.48450050000034,
                    "velocity": 0.5354330708661418,
                    "duration": 0.20618550000000369
                },
                {
                    "name": "G#2",
                    "midi": 44,
                    "time": 109.48450050000034,
                    "velocity": 0.6377952755905512,
                    "duration": 0.20618550000000369
                },
                {
                    "name": "D#4",
                    "midi": 63,
                    "time": 112.57728300000034,
                    "velocity": 0.28346456692913385,
                    "duration": 0.6185564999999968
                },
                {
                    "name": "C4",
                    "midi": 60,
                    "time": 112.57728300000034,
                    "velocity": 0.23622047244094488,
                    "duration": 1.2371129999999937
                },
                {
                    "name": "E4",
                    "midi": 64,
                    "time": 113.19583950000033,
                    "velocity": 0.28346456692913385,
                    "duration": 0.6185564999999968
                },
                {
                    "name": "F4",
                    "midi": 65,
                    "time": 113.81439600000033,
                    "velocity": 0.28346456692913385,
                    "duration": 0.6185564999999968
                },
                {
                    "name": "C#4",
                    "midi": 61,
                    "time": 113.81439600000033,
                    "velocity": 0.23622047244094488,
                    "duration": 0.6185564999999968
                },
                {
                    "name": "D#4",
                    "midi": 63,
                    "time": 114.43295250000033,
                    "velocity": 0.28346456692913385,
                    "duration": 0.6185564999999968
                },
                {
                    "name": "G#3",
                    "midi": 56,
                    "time": 114.43295250000033,
                    "velocity": 0.23622047244094488,
                    "duration": 0.6185564999999968
                },
                {
                    "name": "C#3",
                    "midi": 49,
                    "time": 115.05150900000032,
                    "velocity": 0.23622047244094488,
                    "duration": 0.8247420000000005
                },
                {
                    "name": "F3",
                    "midi": 53,
                    "time": 115.05150900000032,
                    "velocity": 0.23622047244094488,
                    "duration": 0.8247420000000005
                },
                {
                    "name": "C#4",
                    "midi": 61,
                    "time": 115.05150900000032,
                    "velocity": 0.28346456692913385,
                    "duration": 0.8247420000000005
                },
                {
                    "name": "C#4",
                    "midi": 61,
                    "time": 115.87625100000032,
                    "velocity": 0.28346456692913385,
                    "duration": 0.20618550000000369
                },
                {
                    "name": "F4",
                    "midi": 65,
                    "time": 115.87625100000032,
                    "velocity": 0.33858267716535434,
                    "duration": 0.20618550000000369
                },
                {
                    "name": "G#3",
                    "midi": 56,
                    "time": 116.08243650000033,
                    "velocity": 0.23622047244094488,
                    "duration": 0.10309275000000184
                },
                {
                    "name": "C#3",
                    "midi": 49,
                    "time": 116.28862200000033,
                    "velocity": 0.23622047244094488,
                    "duration": 0.8247420000000005
                },
                {
                    "name": "F3",
                    "midi": 53,
                    "time": 116.28862200000033,
                    "velocity": 0.23622047244094488,
                    "duration": 0.8247420000000005
                },
                {
                    "name": "C#4",
                    "midi": 61,
                    "time": 116.28862200000033,
                    "velocity": 0.28346456692913385,
                    "duration": 0.8247420000000005
                },
                {
                    "name": "C#4",
                    "midi": 61,
                    "time": 117.11336400000033,
                    "velocity": 0.28346456692913385,
                    "duration": 0.20618550000000369
                },
                {
                    "name": "F4",
                    "midi": 65,
                    "time": 117.11336400000033,
                    "velocity": 0.33858267716535434,
                    "duration": 0.20618550000000369
                },
                {
                    "name": "G#3",
                    "midi": 56,
                    "time": 117.31954950000033,
                    "velocity": 0.2283464566929134,
                    "duration": 0.10309275000000184
                },
                {
                    "name": "C3",
                    "midi": 48,
                    "time": 117.52573500000034,
                    "velocity": 0.23622047244094488,
                    "duration": 0.8247420000000005
                },
                {
                    "name": "F#3",
                    "midi": 54,
                    "time": 117.52573500000034,
                    "velocity": 0.23622047244094488,
                    "duration": 0.8247420000000005
                },
                {
                    "name": "G#3",
                    "midi": 56,
                    "time": 117.52573500000034,
                    "velocity": 0.28346456692913385,
                    "duration": 0.8247420000000005
                },
                {
                    "name": "D#4",
                    "midi": 63,
                    "time": 118.35047700000034,
                    "velocity": 0.28346456692913385,
                    "duration": 0.20618550000000369
                },
                {
                    "name": "F#4",
                    "midi": 66,
                    "time": 118.35047700000034,
                    "velocity": 0.33858267716535434,
                    "duration": 0.20618550000000369
                },
                {
                    "name": "G#3",
                    "midi": 56,
                    "time": 118.55666250000034,
                    "velocity": 0.2440944881889764,
                    "duration": 0.10309275000000184
                },
                {
                    "name": "C3",
                    "midi": 48,
                    "time": 118.76284800000035,
                    "velocity": 0.23622047244094488,
                    "duration": 0.8247420000000005
                },
                {
                    "name": "F#3",
                    "midi": 54,
                    "time": 118.76284800000035,
                    "velocity": 0.23622047244094488,
                    "duration": 0.8247420000000005
                },
                {
                    "name": "G#3",
                    "midi": 56,
                    "time": 118.76284800000035,
                    "velocity": 0.28346456692913385,
                    "duration": 0.8247420000000005
                },
                {
                    "name": "D#4",
                    "midi": 63,
                    "time": 119.58759000000035,
                    "velocity": 0.28346456692913385,
                    "duration": 0.20618550000000369
                },
                {
                    "name": "F#4",
                    "midi": 66,
                    "time": 119.58759000000035,
                    "velocity": 0.33858267716535434,
                    "duration": 0.20618550000000369
                },
                {
                    "name": "G#3",
                    "midi": 56,
                    "time": 119.79377550000035,
                    "velocity": 0.2440944881889764,
                    "duration": 0.10309275000000184
                },
                {
                    "name": "C#3",
                    "midi": 49,
                    "time": 119.99996100000035,
                    "velocity": 0.23622047244094488,
                    "duration": 1.03092749999999
                },
                {
                    "name": "G#3",
                    "midi": 56,
                    "time": 119.99996100000035,
                    "velocity": 0.28346456692913385,
                    "duration": 0.41237099999999316
                },
                {
                    "name": "A3",
                    "midi": 57,
                    "time": 120.41233200000035,
                    "velocity": 0.3543307086614173,
                    "duration": 0.20618550000000369
                },
                {
                    "name": "A#3",
                    "midi": 58,
                    "time": 120.61851750000035,
                    "velocity": 0.3779527559055118,
                    "duration": 0.41237099999999316
                },
                {
                    "name": "D3",
                    "midi": 50,
                    "time": 121.03088850000034,
                    "velocity": 0.2755905511811024,
                    "duration": 0.20618550000000369
                },
                {
                    "name": "G#3",
                    "midi": 56,
                    "time": 121.03088850000034,
                    "velocity": 0.3228346456692913,
                    "duration": 0.20618550000000369
                },
                {
                    "name": "D#3",
                    "midi": 51,
                    "time": 121.23707400000035,
                    "velocity": 0.23622047244094488,
                    "duration": 0.9278347500000024
                },
                {
                    "name": "G3",
                    "midi": 55,
                    "time": 121.23707400000035,
                    "velocity": 0.28346456692913385,
                    "duration": 0.6185564999999968
                },
                {
                    "name": "G#2",
                    "midi": 44,
                    "time": 121.85563050000034,
                    "velocity": 0.2283464566929134,
                    "duration": 0.30927825000000553
                },
                {
                    "name": "G#3",
                    "midi": 56,
                    "time": 121.85563050000034,
                    "velocity": 0.28346456692913385,
                    "duration": 0.30927825000000553
                },
                {
                    "name": "C#3",
                    "midi": 49,
                    "time": 122.47418700000036,
                    "velocity": 0.23622047244094488,
                    "duration": 0.8247420000000005
                },
                {
                    "name": "F3",
                    "midi": 53,
                    "time": 122.47418700000036,
                    "velocity": 0.23622047244094488,
                    "duration": 0.8247420000000005
                },
                {
                    "name": "C#4",
                    "midi": 61,
                    "time": 122.47418700000036,
                    "velocity": 0.28346456692913385,
                    "duration": 0.8247420000000005
                },
                {
                    "name": "C#4",
                    "midi": 61,
                    "time": 123.29892900000036,
                    "velocity": 0.28346456692913385,
                    "duration": 0.20618549999998947
                },
                {
                    "name": "F4",
                    "midi": 65,
                    "time": 123.29892900000036,
                    "velocity": 0.33858267716535434,
                    "duration": 0.20618549999998947
                },
                {
                    "name": "F3",
                    "midi": 53,
                    "time": 123.50511450000035,
                    "velocity": 0.1968503937007874,
                    "duration": 0.10309275000000184
                },
                {
                    "name": "C#4",
                    "midi": 61,
                    "time": 123.50511450000035,
                    "velocity": 0.23622047244094488,
                    "duration": 0.10309275000000184
                },
                {
                    "name": "C#3",
                    "midi": 49,
                    "time": 123.71130000000035,
                    "velocity": 0.23622047244094488,
                    "duration": 0.8247420000000005
                },
                {
                    "name": "F3",
                    "midi": 53,
                    "time": 123.71130000000035,
                    "velocity": 0.23622047244094488,
                    "duration": 0.8247420000000005
                },
                {
                    "name": "C#4",
                    "midi": 61,
                    "time": 123.71130000000035,
                    "velocity": 0.28346456692913385,
                    "duration": 0.8247420000000005
                },
                {
                    "name": "C#4",
                    "midi": 61,
                    "time": 124.53604200000035,
                    "velocity": 0.28346456692913385,
                    "duration": 0.20618550000000369
                },
                {
                    "name": "F4",
                    "midi": 65,
                    "time": 124.53604200000035,
                    "velocity": 0.33858267716535434,
                    "duration": 0.20618550000000369
                },
                {
                    "name": "F3",
                    "midi": 53,
                    "time": 124.74222750000035,
                    "velocity": 0.1968503937007874,
                    "duration": 0.10309275000000184
                },
                {
                    "name": "C#4",
                    "midi": 61,
                    "time": 124.74222750000035,
                    "velocity": 0.2283464566929134,
                    "duration": 0.10309275000000184
                },
                {
                    "name": "C3",
                    "midi": 48,
                    "time": 124.94841300000036,
                    "velocity": 0.23622047244094488,
                    "duration": 0.8247420000000005
                },
                {
                    "name": "F#3",
                    "midi": 54,
                    "time": 124.94841300000036,
                    "velocity": 0.23622047244094488,
                    "duration": 0.8247420000000005
                },
                {
                    "name": "G#3",
                    "midi": 56,
                    "time": 124.94841300000036,
                    "velocity": 0.28346456692913385,
                    "duration": 0.8247420000000005
                },
                {
                    "name": "D#4",
                    "midi": 63,
                    "time": 125.77315500000036,
                    "velocity": 0.28346456692913385,
                    "duration": 0.20618550000000369
                },
                {
                    "name": "F#4",
                    "midi": 66,
                    "time": 125.77315500000036,
                    "velocity": 0.33858267716535434,
                    "duration": 0.20618550000000369
                },
                {
                    "name": "D#4",
                    "midi": 63,
                    "time": 125.97934050000036,
                    "velocity": 0.2440944881889764,
                    "duration": 0.10309275000000184
                },
                {
                    "name": "G#3",
                    "midi": 56,
                    "time": 125.97934050000036,
                    "velocity": 0.2047244094488189,
                    "duration": 0.10309275000000184
                },
                {
                    "name": "C3",
                    "midi": 48,
                    "time": 126.18552600000037,
                    "velocity": 0.23622047244094488,
                    "duration": 0.8247420000000005
                },
                {
                    "name": "F#3",
                    "midi": 54,
                    "time": 126.18552600000037,
                    "velocity": 0.23622047244094488,
                    "duration": 0.8247420000000005
                },
                {
                    "name": "G#3",
                    "midi": 56,
                    "time": 126.18552600000037,
                    "velocity": 0.28346456692913385,
                    "duration": 0.8247420000000005
                },
                {
                    "name": "D#4",
                    "midi": 63,
                    "time": 127.01026800000037,
                    "velocity": 0.28346456692913385,
                    "duration": 0.20618550000000369
                },
                {
                    "name": "F#4",
                    "midi": 66,
                    "time": 127.01026800000037,
                    "velocity": 0.33858267716535434,
                    "duration": 0.20618550000000369
                },
                {
                    "name": "D#4",
                    "midi": 63,
                    "time": 127.21645350000037,
                    "velocity": 0.2440944881889764,
                    "duration": 0.10309275000000184
                },
                {
                    "name": "G#3",
                    "midi": 56,
                    "time": 127.21645350000037,
                    "velocity": 0.2047244094488189,
                    "duration": 0.10309275000000184
                },
                {
                    "name": "C#3",
                    "midi": 49,
                    "time": 127.42263900000037,
                    "velocity": 0.23622047244094488,
                    "duration": 2.474226000000016
                },
                {
                    "name": "G#3",
                    "midi": 56,
                    "time": 127.42263900000037,
                    "velocity": 0.28346456692913385,
                    "duration": 0.41237099999999316
                },
                {
                    "name": "A3",
                    "midi": 57,
                    "time": 127.83501000000037,
                    "velocity": 0.3543307086614173,
                    "duration": 0.20618549999998947
                },
                {
                    "name": "A#3",
                    "midi": 58,
                    "time": 128.04119550000036,
                    "velocity": 0.3779527559055118,
                    "duration": 0.41237100000000737
                },
                {
                    "name": "A3",
                    "midi": 57,
                    "time": 128.45356650000036,
                    "velocity": 0.3228346456692913,
                    "duration": 0.20618550000000369
                },
                {
                    "name": "A#3",
                    "midi": 58,
                    "time": 128.65975200000037,
                    "velocity": 0.3779527559055118,
                    "duration": 0.41237100000000737
                },
                {
                    "name": "F3",
                    "midi": 53,
                    "time": 129.07212300000037,
                    "velocity": 0.3543307086614173,
                    "duration": 0.20618550000000369
                },
                {
                    "name": "C#4",
                    "midi": 61,
                    "time": 129.27830850000038,
                    "velocity": 0.3779527559055118,
                    "duration": 0.41237100000000737
                },
                {
                    "name": "B3",
                    "midi": 59,
                    "time": 129.69067950000039,
                    "velocity": 0.3464566929133858,
                    "duration": 0.20618550000000369
                },
                {
                    "name": "C3",
                    "midi": 48,
                    "time": 129.8968650000004,
                    "velocity": 0.23622047244094488,
                    "duration": 1.8556695000000332
                },
                {
                    "name": "A#3",
                    "midi": 58,
                    "time": 129.8968650000004,
                    "velocity": 0.3779527559055118,
                    "duration": 0.6185565000000111
                },
                {
                    "name": "G#3",
                    "midi": 56,
                    "time": 130.5154215000004,
                    "velocity": 0.3779527559055118,
                    "duration": 0.6185565000000111
                },
                {
                    "name": "A#3",
                    "midi": 58,
                    "time": 131.1339780000004,
                    "velocity": 0.3779527559055118,
                    "duration": 0.6185565000000111
                },
                {
                    "name": "F3",
                    "midi": 53,
                    "time": 131.75253450000042,
                    "velocity": 0.28346456692913385,
                    "duration": 0.20618550000000369
                },
                {
                    "name": "G#3",
                    "midi": 56,
                    "time": 131.75253450000042,
                    "velocity": 0.31496062992125984,
                    "duration": 0.20618550000000369
                },
                {
                    "name": "F3",
                    "midi": 53,
                    "time": 132.06181275000043,
                    "velocity": 0.4015748031496063,
                    "duration": 0.10309275000000184
                },
                {
                    "name": "F#3",
                    "midi": 54,
                    "time": 132.16490550000043,
                    "velocity": 0.4015748031496063,
                    "duration": 0.10309275000000184
                },
                {
                    "name": "F3",
                    "midi": 53,
                    "time": 132.26799825000043,
                    "velocity": 0.4015748031496063,
                    "duration": 0.10309275000000184
                },
                {
                    "name": "D#3",
                    "midi": 51,
                    "time": 132.37109100000043,
                    "velocity": 0.44881889763779526,
                    "duration": 0.20618550000000369
                },
                {
                    "name": "F#2",
                    "midi": 42,
                    "time": 132.57727650000044,
                    "velocity": 0.3937007874015748,
                    "duration": 0.22336762500000873
                },
                {
                    "name": "F#3",
                    "midi": 54,
                    "time": 132.57727650000044,
                    "velocity": 0.47244094488188976,
                    "duration": 0.22336762500000873
                },
                {
                    "name": "F2",
                    "midi": 41,
                    "time": 132.78346200000044,
                    "velocity": 0.36220472440944884,
                    "duration": 0.22336762500000873
                },
                {
                    "name": "F3",
                    "midi": 53,
                    "time": 132.78346200000044,
                    "velocity": 0.4330708661417323,
                    "duration": 0.22336762500000873
                },
                {
                    "name": "D#2",
                    "midi": 39,
                    "time": 132.98964750000044,
                    "velocity": 0.4015748031496063,
                    "duration": 0.22336762500000873
                },
                {
                    "name": "D#3",
                    "midi": 51,
                    "time": 132.98964750000044,
                    "velocity": 0.48031496062992124,
                    "duration": 0.22336762500000873
                },
                {
                    "name": "C#2",
                    "midi": 37,
                    "time": 133.19583300000045,
                    "velocity": 0.3543307086614173,
                    "duration": 0.22336762500000873
                },
                {
                    "name": "C#3",
                    "midi": 49,
                    "time": 133.19583300000045,
                    "velocity": 0.41732283464566927,
                    "duration": 0.22336762500000873
                },
                {
                    "name": "C2",
                    "midi": 36,
                    "time": 133.40201850000045,
                    "velocity": 0.3779527559055118,
                    "duration": 0.22336762500000873
                },
                {
                    "name": "C3",
                    "midi": 48,
                    "time": 133.40201850000045,
                    "velocity": 0.4566929133858268,
                    "duration": 0.22336762500000873
                },
                {
                    "name": "A#1",
                    "midi": 34,
                    "time": 133.60820400000046,
                    "velocity": 0.41732283464566927,
                    "duration": 0.6185565000000111
                },
                {
                    "name": "A#2",
                    "midi": 46,
                    "time": 133.60820400000046,
                    "velocity": 0.5039370078740157,
                    "duration": 0.6185565000000111
                },
                {
                    "name": "A1",
                    "midi": 33,
                    "time": 134.22676050000047,
                    "velocity": 0.4645669291338583,
                    "duration": 0.20618550000000369
                },
                {
                    "name": "A2",
                    "midi": 45,
                    "time": 134.22676050000047,
                    "velocity": 0.5433070866141733,
                    "duration": 0.20618550000000369
                },
                {
                    "name": "F3",
                    "midi": 53,
                    "time": 134.53603875000044,
                    "velocity": 0.4015748031496063,
                    "duration": 0.10309275000000184
                },
                {
                    "name": "F#3",
                    "midi": 54,
                    "time": 134.63913150000045,
                    "velocity": 0.4015748031496063,
                    "duration": 0.10309275000000184
                },
                {
                    "name": "F3",
                    "midi": 53,
                    "time": 134.74222425000045,
                    "velocity": 0.4015748031496063,
                    "duration": 0.10309275000000184
                },
                {
                    "name": "D#3",
                    "midi": 51,
                    "time": 134.84531700000045,
                    "velocity": 0.44881889763779526,
                    "duration": 0.20618550000000369
                },
                {
                    "name": "F#2",
                    "midi": 42,
                    "time": 135.05150250000045,
                    "velocity": 0.3937007874015748,
                    "duration": 0.22336762500000873
                },
                {
                    "name": "F#3",
                    "midi": 54,
                    "time": 135.05150250000045,
                    "velocity": 0.47244094488188976,
                    "duration": 0.22336762500000873
                },
                {
                    "name": "D#2",
                    "midi": 39,
                    "time": 135.25768800000046,
                    "velocity": 0.36220472440944884,
                    "duration": 0.22336762500000873
                },
                {
                    "name": "D#3",
                    "midi": 51,
                    "time": 135.25768800000046,
                    "velocity": 0.4330708661417323,
                    "duration": 0.22336762500000873
                },
                {
                    "name": "C#2",
                    "midi": 37,
                    "time": 135.46387350000046,
                    "velocity": 0.4015748031496063,
                    "duration": 0.22336762500000873
                },
                {
                    "name": "C#3",
                    "midi": 49,
                    "time": 135.46387350000046,
                    "velocity": 0.48031496062992124,
                    "duration": 0.22336762500000873
                },
                {
                    "name": "C2",
                    "midi": 36,
                    "time": 135.67005900000046,
                    "velocity": 0.3543307086614173,
                    "duration": 0.22336762500000873
                },
                {
                    "name": "C3",
                    "midi": 48,
                    "time": 135.67005900000046,
                    "velocity": 0.41732283464566927,
                    "duration": 0.22336762500000873
                },
                {
                    "name": "A#1",
                    "midi": 34,
                    "time": 135.87624450000047,
                    "velocity": 0.3779527559055118,
                    "duration": 0.22336762500000873
                },
                {
                    "name": "A#2",
                    "midi": 46,
                    "time": 135.87624450000047,
                    "velocity": 0.4566929133858268,
                    "duration": 0.22336762500000873
                },
                {
                    "name": "A1",
                    "midi": 33,
                    "time": 136.08243000000047,
                    "velocity": 0.41732283464566927,
                    "duration": 0.6185565000000111
                },
                {
                    "name": "A2",
                    "midi": 45,
                    "time": 136.08243000000047,
                    "velocity": 0.5039370078740157,
                    "duration": 0.6185565000000111
                },
                {
                    "name": "G#1",
                    "midi": 32,
                    "time": 136.70098650000048,
                    "velocity": 0.4645669291338583,
                    "duration": 0.20618550000000369
                },
                {
                    "name": "G#2",
                    "midi": 44,
                    "time": 136.70098650000048,
                    "velocity": 0.5433070866141733,
                    "duration": 0.20618550000000369
                },
                {
                    "name": "F3",
                    "midi": 53,
                    "time": 137.0102647500005,
                    "velocity": 0.4015748031496063,
                    "duration": 0.10309275000000184
                },
                {
                    "name": "F#3",
                    "midi": 54,
                    "time": 137.1133575000005,
                    "velocity": 0.4015748031496063,
                    "duration": 0.10309275000000184
                },
                {
                    "name": "F3",
                    "midi": 53,
                    "time": 137.2164502500005,
                    "velocity": 0.4015748031496063,
                    "duration": 0.10309275000000184
                },
                {
                    "name": "D#3",
                    "midi": 51,
                    "time": 137.3195430000005,
                    "velocity": 0.44881889763779526,
                    "duration": 0.20618550000000369
                },
                {
                    "name": "F#2",
                    "midi": 42,
                    "time": 137.5257285000005,
                    "velocity": 0.3464566929133858,
                    "duration": 0.22336762500000873
                },
                {
                    "name": "F#3",
                    "midi": 54,
                    "time": 137.5257285000005,
                    "velocity": 0.4094488188976378,
                    "duration": 0.22336762500000873
                },
                {
                    "name": "D#2",
                    "midi": 39,
                    "time": 137.7319140000005,
                    "velocity": 0.30708661417322836,
                    "duration": 0.22336762500000873
                },
                {
                    "name": "D#3",
                    "midi": 51,
                    "time": 137.7319140000005,
                    "velocity": 0.3700787401574803,
                    "duration": 0.22336762500000873
                },
                {
                    "name": "C2",
                    "midi": 36,
                    "time": 137.9380995000005,
                    "velocity": 0.29133858267716534,
                    "duration": 0.22336762500000873
                },
                {
                    "name": "C3",
                    "midi": 48,
                    "time": 137.9380995000005,
                    "velocity": 0.3464566929133858,
                    "duration": 0.22336762500000873
                },
                {
                    "name": "A1",
                    "midi": 33,
                    "time": 138.1442850000005,
                    "velocity": 0.2677165354330709,
                    "duration": 0.22336762500000873
                },
                {
                    "name": "A2",
                    "midi": 45,
                    "time": 138.1442850000005,
                    "velocity": 0.3228346456692913,
                    "duration": 0.22336762500000873
                },
                {
                    "name": "G#1",
                    "midi": 32,
                    "time": 138.3504705000005,
                    "velocity": 0.25196850393700787,
                    "duration": 0.22336762500000873
                },
                {
                    "name": "G#2",
                    "midi": 44,
                    "time": 138.3504705000005,
                    "velocity": 0.2992125984251969,
                    "duration": 0.22336762500000873
                },
                {
                    "name": "F#1",
                    "midi": 30,
                    "time": 138.55665600000052,
                    "velocity": 0.2283464566929134,
                    "duration": 7.422677999999991
                },
                {
                    "name": "F#2",
                    "midi": 42,
                    "time": 138.55665600000052,
                    "velocity": 0.2755905511811024,
                    "duration": 7.422677999999991
                },
                {
                    "name": "F#2",
                    "midi": 42,
                    "time": 145.9793340000005,
                    "velocity": 0.2755905511811024,
                    "duration": 2.474225999999959
                },
                {
                    "name": "D3",
                    "midi": 50,
                    "time": 146.5978905000005,
                    "velocity": 0.31496062992125984,
                    "duration": 0.6185564999999826
                },
                {
                    "name": "C#3",
                    "midi": 49,
                    "time": 147.21644700000047,
                    "velocity": 0.2992125984251969,
                    "duration": 0.6185565000000111
                },
                {
                    "name": "D3",
                    "midi": 50,
                    "time": 147.83500350000048,
                    "velocity": 0.28346456692913385,
                    "duration": 0.6185564999999826
                },
                {
                    "name": "F#2",
                    "midi": 42,
                    "time": 148.45356000000046,
                    "velocity": 0.25196850393700787,
                    "duration": 1.2371129999999937
                },
                {
                    "name": "C#3",
                    "midi": 49,
                    "time": 148.45356000000046,
                    "velocity": 0.28346456692913385,
                    "duration": 1.8556695000000047
                },
                {
                    "name": "G2",
                    "midi": 43,
                    "time": 149.69067300000046,
                    "velocity": 0.2677165354330709,
                    "duration": 0.6185565000000111
                },
                {
                    "name": "G#2",
                    "midi": 44,
                    "time": 150.30922950000047,
                    "velocity": 0.2047244094488189,
                    "duration": 0.6185565000000111
                },
                {
                    "name": "C3",
                    "midi": 48,
                    "time": 150.30922950000047,
                    "velocity": 0.2047244094488189,
                    "duration": 0.6185565000000111
                },
                {
                    "name": "F#3",
                    "midi": 54,
                    "time": 150.30922950000047,
                    "velocity": 0.2440944881889764,
                    "duration": 0.6185565000000111
                },
                {
                    "name": "C#3",
                    "midi": 49,
                    "time": 150.92778600000048,
                    "velocity": 0.2283464566929134,
                    "duration": 0.8247419999999863
                },
                {
                    "name": "F3",
                    "midi": 53,
                    "time": 150.92778600000048,
                    "velocity": 0.2283464566929134,
                    "duration": 0.8247419999999863
                },
                {
                    "name": "C#4",
                    "midi": 61,
                    "time": 150.92778600000048,
                    "velocity": 0.2755905511811024,
                    "duration": 0.8247419999999863
                },
                {
                    "name": "C#4",
                    "midi": 61,
                    "time": 151.75252800000047,
                    "velocity": 0.2755905511811024,
                    "duration": 0.20618550000000369
                },
                {
                    "name": "F4",
                    "midi": 65,
                    "time": 151.75252800000047,
                    "velocity": 0.3228346456692913,
                    "duration": 0.20618550000000369
                },
                {
                    "name": "G#3",
                    "midi": 56,
                    "time": 151.95871350000047,
                    "velocity": 0.2204724409448819,
                    "duration": 0.10309275000000184
                },
                {
                    "name": "F3",
                    "midi": 53,
                    "time": 152.16489900000047,
                    "velocity": 0.2283464566929134,
                    "duration": 0.8247419999999863
                },
                {
                    "name": "C#3",
                    "midi": 49,
                    "time": 152.16489900000047,
                    "velocity": 0.2283464566929134,
                    "duration": 0.8247419999999863
                },
                {
                    "name": "C#4",
                    "midi": 61,
                    "time": 152.16489900000047,
                    "velocity": 0.2755905511811024,
                    "duration": 0.8247419999999863
                },
                {
                    "name": "C#4",
                    "midi": 61,
                    "time": 152.98964100000046,
                    "velocity": 0.2755905511811024,
                    "duration": 0.20618550000000369
                },
                {
                    "name": "F4",
                    "midi": 65,
                    "time": 152.98964100000046,
                    "velocity": 0.3228346456692913,
                    "duration": 0.20618550000000369
                },
                {
                    "name": "G#3",
                    "midi": 56,
                    "time": 153.19582650000046,
                    "velocity": 0.2204724409448819,
                    "duration": 0.10309275000000184
                },
                {
                    "name": "C3",
                    "midi": 48,
                    "time": 153.40201200000047,
                    "velocity": 0.2283464566929134,
                    "duration": 0.8247419999999863
                },
                {
                    "name": "F#3",
                    "midi": 54,
                    "time": 153.40201200000047,
                    "velocity": 0.2283464566929134,
                    "duration": 0.8247419999999863
                },
                {
                    "name": "G#3",
                    "midi": 56,
                    "time": 153.40201200000047,
                    "velocity": 0.2755905511811024,
                    "duration": 0.8247419999999863
                },
                {
                    "name": "F#4",
                    "midi": 66,
                    "time": 154.22675400000045,
                    "velocity": 0.3228346456692913,
                    "duration": 0.20618550000000369
                },
                {
                    "name": "D#4",
                    "midi": 63,
                    "time": 154.22675400000045,
                    "velocity": 0.2755905511811024,
                    "duration": 0.20618550000000369
                },
                {
                    "name": "G#3",
                    "midi": 56,
                    "time": 154.43293950000046,
                    "velocity": 0.23622047244094488,
                    "duration": 0.10309275000000184
                },
                {
                    "name": "F#3",
                    "midi": 54,
                    "time": 154.63912500000046,
                    "velocity": 0.2283464566929134,
                    "duration": 0.8247419999999863
                },
                {
                    "name": "G#3",
                    "midi": 56,
                    "time": 154.63912500000046,
                    "velocity": 0.2755905511811024,
                    "duration": 0.8247419999999863
                },
                {
                    "name": "C3",
                    "midi": 48,
                    "time": 154.63912500000046,
                    "velocity": 0.2283464566929134,
                    "duration": 0.8247419999999863
                },
                {
                    "name": "D#4",
                    "midi": 63,
                    "time": 155.46386700000045,
                    "velocity": 0.2755905511811024,
                    "duration": 0.20618550000000369
                },
                {
                    "name": "F#4",
                    "midi": 66,
                    "time": 155.46386700000045,
                    "velocity": 0.3228346456692913,
                    "duration": 0.20618550000000369
                },
                {
                    "name": "G#3",
                    "midi": 56,
                    "time": 155.67005250000045,
                    "velocity": 0.23622047244094488,
                    "duration": 0.10309275000000184
                },
                {
                    "name": "G#3",
                    "midi": 56,
                    "time": 155.87623800000046,
                    "velocity": 0.2283464566929134,
                    "duration": 0.6185565000000111
                },
                {
                    "name": "C#3",
                    "midi": 49,
                    "time": 155.87623800000046,
                    "velocity": 0.2283464566929134,
                    "duration": 0.6185565000000111
                },
                {
                    "name": "C#4",
                    "midi": 61,
                    "time": 155.87623800000046,
                    "velocity": 0.2755905511811024,
                    "duration": 0.6185565000000111
                },
                {
                    "name": "F3",
                    "midi": 53,
                    "time": 156.49479450000047,
                    "velocity": 0.2283464566929134,
                    "duration": 0.6185565000000111
                },
                {
                    "name": "G#3",
                    "midi": 56,
                    "time": 156.49479450000047,
                    "velocity": 0.2283464566929134,
                    "duration": 0.6185565000000111
                },
                {
                    "name": "C#4",
                    "midi": 61,
                    "time": 156.49479450000047,
                    "velocity": 0.2755905511811024,
                    "duration": 0.6185565000000111
                },
                {
                    "name": "G#3",
                    "midi": 56,
                    "time": 157.11335100000048,
                    "velocity": 0.2283464566929134,
                    "duration": 0.6185565000000111
                },
                {
                    "name": "C4",
                    "midi": 60,
                    "time": 157.11335100000048,
                    "velocity": 0.2755905511811024,
                    "duration": 0.6185565000000111
                },
                {
                    "name": "F4",
                    "midi": 65,
                    "time": 157.7319075000005,
                    "velocity": 0.2755905511811024,
                    "duration": 0.41237100000000737
                },
                {
                    "name": "C#4",
                    "midi": 61,
                    "time": 157.7319075000005,
                    "velocity": 0.2283464566929134,
                    "duration": 0.41237100000000737
                },
                {
                    "name": "C#3",
                    "midi": 49,
                    "time": 158.3504640000005,
                    "velocity": 0.2283464566929134,
                    "duration": 0.8247419999999863
                },
                {
                    "name": "F3",
                    "midi": 53,
                    "time": 158.3504640000005,
                    "velocity": 0.2283464566929134,
                    "duration": 0.8247419999999863
                },
                {
                    "name": "C#4",
                    "midi": 61,
                    "time": 158.3504640000005,
                    "velocity": 0.2755905511811024,
                    "duration": 0.8247419999999863
                },
                {
                    "name": "C#4",
                    "midi": 61,
                    "time": 159.1752060000005,
                    "velocity": 0.2755905511811024,
                    "duration": 0.20618550000000369
                },
                {
                    "name": "F4",
                    "midi": 65,
                    "time": 159.1752060000005,
                    "velocity": 0.3228346456692913,
                    "duration": 0.20618550000000369
                },
                {
                    "name": "G#3",
                    "midi": 56,
                    "time": 159.3813915000005,
                    "velocity": 0.2204724409448819,
                    "duration": 0.10309275000000184
                },
                {
                    "name": "F3",
                    "midi": 53,
                    "time": 159.5875770000005,
                    "velocity": 0.2283464566929134,
                    "duration": 0.8247419999999863
                },
                {
                    "name": "C#3",
                    "midi": 49,
                    "time": 159.5875770000005,
                    "velocity": 0.2283464566929134,
                    "duration": 0.8247419999999863
                },
                {
                    "name": "C#4",
                    "midi": 61,
                    "time": 159.5875770000005,
                    "velocity": 0.2755905511811024,
                    "duration": 0.8247419999999863
                },
                {
                    "name": "C#4",
                    "midi": 61,
                    "time": 160.41231900000048,
                    "velocity": 0.2755905511811024,
                    "duration": 0.20618550000000369
                },
                {
                    "name": "F4",
                    "midi": 65,
                    "time": 160.41231900000048,
                    "velocity": 0.3228346456692913,
                    "duration": 0.20618550000000369
                },
                {
                    "name": "G#3",
                    "midi": 56,
                    "time": 160.61850450000048,
                    "velocity": 0.2204724409448819,
                    "duration": 0.10309275000000184
                },
                {
                    "name": "C3",
                    "midi": 48,
                    "time": 160.8246900000005,
                    "velocity": 0.2283464566929134,
                    "duration": 0.8247419999999863
                },
                {
                    "name": "F#3",
                    "midi": 54,
                    "time": 160.8246900000005,
                    "velocity": 0.2283464566929134,
                    "duration": 0.8247419999999863
                },
                {
                    "name": "G#3",
                    "midi": 56,
                    "time": 160.8246900000005,
                    "velocity": 0.2755905511811024,
                    "duration": 0.8247419999999863
                },
                {
                    "name": "F#4",
                    "midi": 66,
                    "time": 161.64943200000047,
                    "velocity": 0.3228346456692913,
                    "duration": 0.20618550000000369
                },
                {
                    "name": "D#4",
                    "midi": 63,
                    "time": 161.64943200000047,
                    "velocity": 0.2755905511811024,
                    "duration": 0.20618550000000369
                },
                {
                    "name": "G#3",
                    "midi": 56,
                    "time": 161.85561750000048,
                    "velocity": 0.23622047244094488,
                    "duration": 0.10309275000000184
                },
                {
                    "name": "F#3",
                    "midi": 54,
                    "time": 162.06180300000048,
                    "velocity": 0.2283464566929134,
                    "duration": 0.8247419999999863
                },
                {
                    "name": "G#3",
                    "midi": 56,
                    "time": 162.06180300000048,
                    "velocity": 0.2755905511811024,
                    "duration": 0.8247419999999863
                },
                {
                    "name": "C3",
                    "midi": 48,
                    "time": 162.06180300000048,
                    "velocity": 0.2283464566929134,
                    "duration": 0.8247419999999863
                },
                {
                    "name": "D#4",
                    "midi": 63,
                    "time": 162.88654500000047,
                    "velocity": 0.2755905511811024,
                    "duration": 0.20618550000000369
                },
                {
                    "name": "F#4",
                    "midi": 66,
                    "time": 162.88654500000047,
                    "velocity": 0.3228346456692913,
                    "duration": 0.20618550000000369
                },
                {
                    "name": "G#3",
                    "midi": 56,
                    "time": 163.09273050000047,
                    "velocity": 0.23622047244094488,
                    "duration": 0.10309275000000184
                },
                {
                    "name": "G#3",
                    "midi": 56,
                    "time": 163.29891600000047,
                    "velocity": 0.2283464566929134,
                    "duration": 0.6185565000000111
                },
                {
                    "name": "C#3",
                    "midi": 49,
                    "time": 163.29891600000047,
                    "velocity": 0.2283464566929134,
                    "duration": 0.6185565000000111
                },
                {
                    "name": "C#4",
                    "midi": 61,
                    "time": 163.29891600000047,
                    "velocity": 0.2755905511811024,
                    "duration": 0.6185565000000111
                },
                {
                    "name": "F3",
                    "midi": 53,
                    "time": 163.91747250000049,
                    "velocity": 0.2283464566929134,
                    "duration": 0.6185564999999826
                },
                {
                    "name": "G#3",
                    "midi": 56,
                    "time": 163.91747250000049,
                    "velocity": 0.2283464566929134,
                    "duration": 0.6185564999999826
                },
                {
                    "name": "C#4",
                    "midi": 61,
                    "time": 163.91747250000049,
                    "velocity": 0.2755905511811024,
                    "duration": 0.6185564999999826
                },
                {
                    "name": "F#4",
                    "midi": 66,
                    "time": 164.53602900000047,
                    "velocity": 0.2677165354330709,
                    "duration": 0.10309275000000184
                },
                {
                    "name": "G#3",
                    "midi": 56,
                    "time": 164.53602900000047,
                    "velocity": 0.2283464566929134,
                    "duration": 0.6185565000000111
                },
                {
                    "name": "C4",
                    "midi": 60,
                    "time": 164.53602900000047,
                    "velocity": 0.2755905511811024,
                    "duration": 0.6185565000000111
                },
                {
                    "name": "A#4",
                    "midi": 70,
                    "time": 164.74221450000047,
                    "velocity": 0.2992125984251969,
                    "duration": 0.20618550000000369
                },
                {
                    "name": "G#4",
                    "midi": 68,
                    "time": 164.94840000000048,
                    "velocity": 0.28346456692913385,
                    "duration": 0.20618550000000369
                },
                {
                    "name": "F4",
                    "midi": 65,
                    "time": 165.15458550000048,
                    "velocity": 0.2755905511811024,
                    "duration": 0.41237100000000737
                },
                {
                    "name": "C#4",
                    "midi": 61,
                    "time": 165.15458550000048,
                    "velocity": 0.2283464566929134,
                    "duration": 0.41237100000000737
                },
                {
                    "name": "A4",
                    "midi": 69,
                    "time": 168.24736800000048,
                    "velocity": 0.3858267716535433,
                    "duration": 0.30927825000000553
                },
                {
                    "name": "A4",
                    "midi": 69,
                    "time": 168.55664625000048,
                    "velocity": 0.3464566929133858,
                    "duration": 0.09793811250000317
                },
                {
                    "name": "A4",
                    "midi": 69,
                    "time": 168.65973900000049,
                    "velocity": 0.3858267716535433,
                    "duration": 0.20618550000000369
                },
                {
                    "name": "A4",
                    "midi": 69,
                    "time": 168.8659245000005,
                    "velocity": 0.3858267716535433,
                    "duration": 0.30927825000000553
                },
                {
                    "name": "A4",
                    "midi": 69,
                    "time": 169.1752027500005,
                    "velocity": 0.3543307086614173,
                    "duration": 0.09793811250000317
                },
                {
                    "name": "A4",
                    "midi": 69,
                    "time": 169.2782955000005,
                    "velocity": 0.3858267716535433,
                    "duration": 0.20618550000000369
                },
                {
                    "name": "G4",
                    "midi": 67,
                    "time": 169.4844810000005,
                    "velocity": 0.3937007874015748,
                    "duration": 0.30927825000000553
                },
                {
                    "name": "A#4",
                    "midi": 70,
                    "time": 169.4844810000005,
                    "velocity": 0.47244094488188976,
                    "duration": 0.30927825000000553
                },
                {
                    "name": "G4",
                    "midi": 67,
                    "time": 169.7937592500005,
                    "velocity": 0.3543307086614173,
                    "duration": 0.09793811250000317
                },
                {
                    "name": "A#4",
                    "midi": 70,
                    "time": 169.7937592500005,
                    "velocity": 0.4251968503937008,
                    "duration": 0.09793811250000317
                },
                {
                    "name": "G4",
                    "midi": 67,
                    "time": 169.8968520000005,
                    "velocity": 0.41732283464566927,
                    "duration": 0.20618550000000369
                },
                {
                    "name": "A#4",
                    "midi": 70,
                    "time": 169.8968520000005,
                    "velocity": 0.49606299212598426,
                    "duration": 0.20618550000000369
                },
                {
                    "name": "D#4",
                    "midi": 63,
                    "time": 170.1030375000005,
                    "velocity": 0.4566929133858268,
                    "duration": 0.30927825000000553
                },
                {
                    "name": "G4",
                    "midi": 67,
                    "time": 170.1030375000005,
                    "velocity": 0.4566929133858268,
                    "duration": 0.30927825000000553
                },
                {
                    "name": "A#4",
                    "midi": 70,
                    "time": 170.1030375000005,
                    "velocity": 0.5433070866141733,
                    "duration": 0.30927825000000553
                },
                {
                    "name": "D#4",
                    "midi": 63,
                    "time": 170.41231575000052,
                    "velocity": 0.41732283464566927,
                    "duration": 0.09793811250000317
                },
                {
                    "name": "G4",
                    "midi": 67,
                    "time": 170.41231575000052,
                    "velocity": 0.41732283464566927,
                    "duration": 0.09793811250000317
                },
                {
                    "name": "A#4",
                    "midi": 70,
                    "time": 170.41231575000052,
                    "velocity": 0.5039370078740157,
                    "duration": 0.09793811250000317
                },
                {
                    "name": "D#4",
                    "midi": 63,
                    "time": 170.51540850000052,
                    "velocity": 0.47244094488188976,
                    "duration": 0.20618550000000369
                },
                {
                    "name": "G4",
                    "midi": 67,
                    "time": 170.51540850000052,
                    "velocity": 0.47244094488188976,
                    "duration": 0.20618550000000369
                },
                {
                    "name": "A#4",
                    "midi": 70,
                    "time": 170.51540850000052,
                    "velocity": 0.5511811023622047,
                    "duration": 0.20618550000000369
                },
                {
                    "name": "G#2",
                    "midi": 44,
                    "time": 170.72159400000052,
                    "velocity": 0.48031496062992124,
                    "duration": 0.30927825000000553
                },
                {
                    "name": "D#3",
                    "midi": 51,
                    "time": 170.72159400000052,
                    "velocity": 0.48031496062992124,
                    "duration": 0.30927825000000553
                },
                {
                    "name": "G#3",
                    "midi": 56,
                    "time": 170.72159400000052,
                    "velocity": 0.5669291338582677,
                    "duration": 0.30927825000000553
                },
                {
                    "name": "G#2",
                    "midi": 44,
                    "time": 171.03087225000053,
                    "velocity": 0.4409448818897638,
                    "duration": 0.09793811250000317
                },
                {
                    "name": "D#3",
                    "midi": 51,
                    "time": 171.03087225000053,
                    "velocity": 0.4409448818897638,
                    "duration": 0.09793811250000317
                },
                {
                    "name": "G#3",
                    "midi": 56,
                    "time": 171.03087225000053,
                    "velocity": 0.5275590551181102,
                    "duration": 0.09793811250000317
                },
                {
                    "name": "G#2",
                    "midi": 44,
                    "time": 171.13396500000053,
                    "velocity": 0.4881889763779528,
                    "duration": 0.10309275000000184
                },
                {
                    "name": "D#3",
                    "midi": 51,
                    "time": 171.13396500000053,
                    "velocity": 0.4881889763779528,
                    "duration": 0.10309275000000184
                },
                {
                    "name": "G#3",
                    "midi": 56,
                    "time": 171.13396500000053,
                    "velocity": 0.5748031496062992,
                    "duration": 0.10309275000000184
                },
                {
                    "name": "G#2",
                    "midi": 44,
                    "time": 171.34015050000053,
                    "velocity": 0.48031496062992124,
                    "duration": 0.30927825000000553
                },
                {
                    "name": "D#3",
                    "midi": 51,
                    "time": 171.34015050000053,
                    "velocity": 0.48031496062992124,
                    "duration": 0.30927825000000553
                },
                {
                    "name": "G#3",
                    "midi": 56,
                    "time": 171.34015050000053,
                    "velocity": 0.5669291338582677,
                    "duration": 0.30927825000000553
                },
                {
                    "name": "G#2",
                    "midi": 44,
                    "time": 171.64942875000054,
                    "velocity": 0.4409448818897638,
                    "duration": 0.09793811250000317
                },
                {
                    "name": "D#3",
                    "midi": 51,
                    "time": 171.64942875000054,
                    "velocity": 0.4409448818897638,
                    "duration": 0.09793811250000317
                },
                {
                    "name": "G#3",
                    "midi": 56,
                    "time": 171.64942875000054,
                    "velocity": 0.5275590551181102,
                    "duration": 0.09793811250000317
                },
                {
                    "name": "G#2",
                    "midi": 44,
                    "time": 171.75252150000054,
                    "velocity": 0.4881889763779528,
                    "duration": 0.10309275000000184
                },
                {
                    "name": "D#3",
                    "midi": 51,
                    "time": 171.75252150000054,
                    "velocity": 0.4881889763779528,
                    "duration": 0.10309275000000184
                },
                {
                    "name": "G#3",
                    "midi": 56,
                    "time": 171.75252150000054,
                    "velocity": 0.5748031496062992,
                    "duration": 0.10309275000000184
                },
                {
                    "name": "G#2",
                    "midi": 44,
                    "time": 171.95870700000054,
                    "velocity": 0.4881889763779528,
                    "duration": 0.20618550000000369
                },
                {
                    "name": "D#3",
                    "midi": 51,
                    "time": 171.95870700000054,
                    "velocity": 0.4881889763779528,
                    "duration": 0.20618550000000369
                },
                {
                    "name": "G#3",
                    "midi": 56,
                    "time": 171.95870700000054,
                    "velocity": 0.5826771653543307,
                    "duration": 0.20618550000000369
                },
                {
                    "name": "D#4",
                    "midi": 63,
                    "time": 173.19582000000054,
                    "velocity": 0.5826771653543307,
                    "duration": 0.05154637499998671
                },
                {
                    "name": "C#4",
                    "midi": 61,
                    "time": 173.19582000000054,
                    "velocity": 0.4881889763779528,
                    "duration": 0.05154637499998671
                },
                {
                    "name": "G3",
                    "midi": 55,
                    "time": 173.19582000000054,
                    "velocity": 0.4881889763779528,
                    "duration": 0.05154637499998671
                },
                {
                    "name": "D#4",
                    "midi": 63,
                    "time": 173.4020055000005,
                    "velocity": 0.5826771653543307,
                    "duration": 0.41237100000000737
                },
                {
                    "name": "C#4",
                    "midi": 61,
                    "time": 173.4020055000005,
                    "velocity": 0.4881889763779528,
                    "duration": 0.41237100000000737
                },
                {
                    "name": "G3",
                    "midi": 55,
                    "time": 173.4020055000005,
                    "velocity": 0.4881889763779528,
                    "duration": 0.41237100000000737
                },
                {
                    "name": "D3",
                    "midi": 50,
                    "time": 173.81437650000052,
                    "velocity": 0.5748031496062992,
                    "duration": 0.10309275000000184
                },
                {
                    "name": "D#3",
                    "midi": 51,
                    "time": 173.91746925000052,
                    "velocity": 0.5275590551181102,
                    "duration": 0.10309275000000184
                },
                {
                    "name": "A#2",
                    "midi": 46,
                    "time": 174.02056200000052,
                    "velocity": 0.5511811023622047,
                    "duration": 0.10309275000000184
                },
                {
                    "name": "G2",
                    "midi": 43,
                    "time": 174.12365475000053,
                    "velocity": 0.5275590551181102,
                    "duration": 0.10309275000000184
                },
                {
                    "name": "D#2",
                    "midi": 39,
                    "time": 174.22674750000053,
                    "velocity": 0.5511811023622047,
                    "duration": 0.10309275000000184
                },
                {
                    "name": "A#2",
                    "midi": 46,
                    "time": 174.43293300000053,
                    "velocity": 0.48031496062992124,
                    "duration": 0.30927825000000553
                },
                {
                    "name": "D#3",
                    "midi": 51,
                    "time": 174.43293300000053,
                    "velocity": 0.48031496062992124,
                    "duration": 0.30927825000000553
                },
                {
                    "name": "A#3",
                    "midi": 58,
                    "time": 174.43293300000053,
                    "velocity": 0.5669291338582677,
                    "duration": 0.30927825000000553
                },
                {
                    "name": "A#2",
                    "midi": 46,
                    "time": 174.74221125000054,
                    "velocity": 0.4409448818897638,
                    "duration": 0.09793811250000317
                },
                {
                    "name": "D#3",
                    "midi": 51,
                    "time": 174.74221125000054,
                    "velocity": 0.4409448818897638,
                    "duration": 0.09793811250000317
                },
                {
                    "name": "A#3",
                    "midi": 58,
                    "time": 174.74221125000054,
                    "velocity": 0.5275590551181102,
                    "duration": 0.09793811250000317
                },
                {
                    "name": "A#2",
                    "midi": 46,
                    "time": 174.84530400000054,
                    "velocity": 0.4881889763779528,
                    "duration": 0.10309275000000184
                },
                {
                    "name": "D#3",
                    "midi": 51,
                    "time": 174.84530400000054,
                    "velocity": 0.4881889763779528,
                    "duration": 0.10309275000000184
                },
                {
                    "name": "A#3",
                    "midi": 58,
                    "time": 174.84530400000054,
                    "velocity": 0.5748031496062992,
                    "duration": 0.10309275000000184
                },
                {
                    "name": "A#2",
                    "midi": 46,
                    "time": 175.05148950000054,
                    "velocity": 0.48031496062992124,
                    "duration": 0.30927825000000553
                },
                {
                    "name": "D#3",
                    "midi": 51,
                    "time": 175.05148950000054,
                    "velocity": 0.48031496062992124,
                    "duration": 0.30927825000000553
                },
                {
                    "name": "A#3",
                    "midi": 58,
                    "time": 175.05148950000054,
                    "velocity": 0.5669291338582677,
                    "duration": 0.30927825000000553
                },
                {
                    "name": "A#2",
                    "midi": 46,
                    "time": 175.36076775000055,
                    "velocity": 0.4409448818897638,
                    "duration": 0.09793811250000317
                },
                {
                    "name": "D#3",
                    "midi": 51,
                    "time": 175.36076775000055,
                    "velocity": 0.4409448818897638,
                    "duration": 0.09793811250000317
                },
                {
                    "name": "A#3",
                    "midi": 58,
                    "time": 175.36076775000055,
                    "velocity": 0.5275590551181102,
                    "duration": 0.09793811250000317
                },
                {
                    "name": "A#2",
                    "midi": 46,
                    "time": 175.46386050000055,
                    "velocity": 0.4881889763779528,
                    "duration": 0.10309275000000184
                },
                {
                    "name": "D#3",
                    "midi": 51,
                    "time": 175.46386050000055,
                    "velocity": 0.4881889763779528,
                    "duration": 0.10309275000000184
                },
                {
                    "name": "A#3",
                    "midi": 58,
                    "time": 175.46386050000055,
                    "velocity": 0.5748031496062992,
                    "duration": 0.10309275000000184
                },
                {
                    "name": "A#2",
                    "midi": 46,
                    "time": 175.67004600000055,
                    "velocity": 0.4881889763779528,
                    "duration": 0.20618550000000369
                },
                {
                    "name": "D#3",
                    "midi": 51,
                    "time": 175.67004600000055,
                    "velocity": 0.4881889763779528,
                    "duration": 0.20618550000000369
                },
                {
                    "name": "A#3",
                    "midi": 58,
                    "time": 175.67004600000055,
                    "velocity": 0.5826771653543307,
                    "duration": 0.20618550000000369
                },
                {
                    "name": "G4",
                    "midi": 67,
                    "time": 176.90715900000055,
                    "velocity": 0.5826771653543307,
                    "duration": 0.05154637499998671
                },
                {
                    "name": "D#4",
                    "midi": 63,
                    "time": 176.90715900000055,
                    "velocity": 0.4881889763779528,
                    "duration": 0.05154637499998671
                },
                {
                    "name": "G#3",
                    "midi": 56,
                    "time": 176.90715900000055,
                    "velocity": 0.4881889763779528,
                    "duration": 0.05154637499998671
                },
                {
                    "name": "G#4",
                    "midi": 68,
                    "time": 177.11334450000052,
                    "velocity": 0.5826771653543307,
                    "duration": 0.41237100000000737
                },
                {
                    "name": "D#4",
                    "midi": 63,
                    "time": 177.11334450000052,
                    "velocity": 0.4881889763779528,
                    "duration": 0.41237100000000737
                },
                {
                    "name": "G#3",
                    "midi": 56,
                    "time": 177.11334450000052,
                    "velocity": 0.4881889763779528,
                    "duration": 0.41237100000000737
                },
                {
                    "name": "G3",
                    "midi": 55,
                    "time": 177.52571550000053,
                    "velocity": 0.5748031496062992,
                    "duration": 0.10309275000000184
                },
                {
                    "name": "G#3",
                    "midi": 56,
                    "time": 177.62880825000053,
                    "velocity": 0.5275590551181102,
                    "duration": 0.10309275000000184
                },
                {
                    "name": "D#3",
                    "midi": 51,
                    "time": 177.73190100000053,
                    "velocity": 0.5511811023622047,
                    "duration": 0.10309275000000184
                },
                {
                    "name": "C3",
                    "midi": 48,
                    "time": 177.83499375000054,
                    "velocity": 0.5275590551181102,
                    "duration": 0.10309275000000184
                },
                {
                    "name": "G#2",
                    "midi": 44,
                    "time": 177.93808650000054,
                    "velocity": 0.5511811023622047,
                    "duration": 0.10309275000000184
                },
                {
                    "name": "G#2",
                    "midi": 44,
                    "time": 178.14427200000054,
                    "velocity": 0.48031496062992124,
                    "duration": 0.30927825000000553
                },
                {
                    "name": "D#3",
                    "midi": 51,
                    "time": 178.14427200000054,
                    "velocity": 0.48031496062992124,
                    "duration": 0.30927825000000553
                },
                {
                    "name": "G#3",
                    "midi": 56,
                    "time": 178.14427200000054,
                    "velocity": 0.5669291338582677,
                    "duration": 0.30927825000000553
                },
                {
                    "name": "G#2",
                    "midi": 44,
                    "time": 178.45355025000055,
                    "velocity": 0.4409448818897638,
                    "duration": 0.09793811250000317
                },
                {
                    "name": "D#3",
                    "midi": 51,
                    "time": 178.45355025000055,
                    "velocity": 0.4409448818897638,
                    "duration": 0.09793811250000317
                },
                {
                    "name": "G#3",
                    "midi": 56,
                    "time": 178.45355025000055,
                    "velocity": 0.5275590551181102,
                    "duration": 0.09793811250000317
                },
                {
                    "name": "G#2",
                    "midi": 44,
                    "time": 178.55664300000055,
                    "velocity": 0.4881889763779528,
                    "duration": 0.10309275000000184
                },
                {
                    "name": "D#3",
                    "midi": 51,
                    "time": 178.55664300000055,
                    "velocity": 0.4881889763779528,
                    "duration": 0.10309275000000184
                },
                {
                    "name": "G#3",
                    "midi": 56,
                    "time": 178.55664300000055,
                    "velocity": 0.5748031496062992,
                    "duration": 0.10309275000000184
                },
                {
                    "name": "G#2",
                    "midi": 44,
                    "time": 178.76282850000055,
                    "velocity": 0.48031496062992124,
                    "duration": 0.30927825000000553
                },
                {
                    "name": "E3",
                    "midi": 52,
                    "time": 178.76282850000055,
                    "velocity": 0.48031496062992124,
                    "duration": 0.30927825000000553
                },
                {
                    "name": "G#3",
                    "midi": 56,
                    "time": 178.76282850000055,
                    "velocity": 0.5669291338582677,
                    "duration": 0.30927825000000553
                },
                {
                    "name": "G#2",
                    "midi": 44,
                    "time": 179.07210675000056,
                    "velocity": 0.4409448818897638,
                    "duration": 0.09793811250000317
                },
                {
                    "name": "E3",
                    "midi": 52,
                    "time": 179.07210675000056,
                    "velocity": 0.4409448818897638,
                    "duration": 0.09793811250000317
                },
                {
                    "name": "G#3",
                    "midi": 56,
                    "time": 179.07210675000056,
                    "velocity": 0.5275590551181102,
                    "duration": 0.09793811250000317
                },
                {
                    "name": "G#2",
                    "midi": 44,
                    "time": 179.17519950000056,
                    "velocity": 0.4881889763779528,
                    "duration": 0.10309275000000184
                },
                {
                    "name": "E3",
                    "midi": 52,
                    "time": 179.17519950000056,
                    "velocity": 0.4881889763779528,
                    "duration": 0.10309275000000184
                },
                {
                    "name": "G#3",
                    "midi": 56,
                    "time": 179.17519950000056,
                    "velocity": 0.5748031496062992,
                    "duration": 0.10309275000000184
                },
                {
                    "name": "A2",
                    "midi": 45,
                    "time": 179.38138500000056,
                    "velocity": 0.4881889763779528,
                    "duration": 0.20618550000000369
                },
                {
                    "name": "E3",
                    "midi": 52,
                    "time": 179.38138500000056,
                    "velocity": 0.4881889763779528,
                    "duration": 0.20618550000000369
                },
                {
                    "name": "A3",
                    "midi": 57,
                    "time": 179.38138500000056,
                    "velocity": 0.5826771653543307,
                    "duration": 0.20618550000000369
                },
                {
                    "name": "C3",
                    "midi": 48,
                    "time": 179.99994150000057,
                    "velocity": 0.49606299212598426,
                    "duration": 0.10309275000000184
                },
                {
                    "name": "A2",
                    "midi": 45,
                    "time": 180.10303425000058,
                    "velocity": 0.4330708661417323,
                    "duration": 0.10309275000000184
                },
                {
                    "name": "E2",
                    "midi": 40,
                    "time": 180.20612700000058,
                    "velocity": 0.4409448818897638,
                    "duration": 0.10309275000000184
                },
                {
                    "name": "C2",
                    "midi": 36,
                    "time": 180.30921975000058,
                    "velocity": 0.44881889763779526,
                    "duration": 0.10309275000000184
                },
                {
                    "name": "A1",
                    "midi": 33,
                    "time": 180.41231250000058,
                    "velocity": 0.4881889763779528,
                    "duration": 0.10309275000000184
                },
                {
                    "name": "A2",
                    "midi": 45,
                    "time": 180.61849800000059,
                    "velocity": 0.48031496062992124,
                    "duration": 0.30927825000000553
                },
                {
                    "name": "E3",
                    "midi": 52,
                    "time": 180.61849800000059,
                    "velocity": 0.48031496062992124,
                    "duration": 0.30927825000000553
                },
                {
                    "name": "A3",
                    "midi": 57,
                    "time": 180.61849800000059,
                    "velocity": 0.5669291338582677,
                    "duration": 0.30927825000000553
                },
                {
                    "name": "A2",
                    "midi": 45,
                    "time": 180.9277762500006,
                    "velocity": 0.4409448818897638,
                    "duration": 0.09793811250000317
                },
                {
                    "name": "E3",
                    "midi": 52,
                    "time": 180.9277762500006,
                    "velocity": 0.4409448818897638,
                    "duration": 0.09793811250000317
                },
                {
                    "name": "A3",
                    "midi": 57,
                    "time": 180.9277762500006,
                    "velocity": 0.5275590551181102,
                    "duration": 0.09793811250000317
                },
                {
                    "name": "A2",
                    "midi": 45,
                    "time": 181.0308690000006,
                    "velocity": 0.4881889763779528,
                    "duration": 0.10309275000000184
                },
                {
                    "name": "E3",
                    "midi": 52,
                    "time": 181.0308690000006,
                    "velocity": 0.4881889763779528,
                    "duration": 0.10309275000000184
                },
                {
                    "name": "A3",
                    "midi": 57,
                    "time": 181.0308690000006,
                    "velocity": 0.5748031496062992,
                    "duration": 0.10309275000000184
                },
                {
                    "name": "A2",
                    "midi": 45,
                    "time": 181.2370545000006,
                    "velocity": 0.48031496062992124,
                    "duration": 0.30927825000000553
                },
                {
                    "name": "F3",
                    "midi": 53,
                    "time": 181.2370545000006,
                    "velocity": 0.48031496062992124,
                    "duration": 0.30927825000000553
                },
                {
                    "name": "A3",
                    "midi": 57,
                    "time": 181.2370545000006,
                    "velocity": 0.5669291338582677,
                    "duration": 0.30927825000000553
                },
                {
                    "name": "A2",
                    "midi": 45,
                    "time": 181.5463327500006,
                    "velocity": 0.4409448818897638,
                    "duration": 0.09793811250000317
                },
                {
                    "name": "F3",
                    "midi": 53,
                    "time": 181.5463327500006,
                    "velocity": 0.4409448818897638,
                    "duration": 0.09793811250000317
                },
                {
                    "name": "A3",
                    "midi": 57,
                    "time": 181.5463327500006,
                    "velocity": 0.5275590551181102,
                    "duration": 0.09793811250000317
                },
                {
                    "name": "A2",
                    "midi": 45,
                    "time": 181.6494255000006,
                    "velocity": 0.4881889763779528,
                    "duration": 0.10309275000000184
                },
                {
                    "name": "F3",
                    "midi": 53,
                    "time": 181.6494255000006,
                    "velocity": 0.4881889763779528,
                    "duration": 0.10309275000000184
                },
                {
                    "name": "A3",
                    "midi": 57,
                    "time": 181.6494255000006,
                    "velocity": 0.5748031496062992,
                    "duration": 0.10309275000000184
                },
                {
                    "name": "A#2",
                    "midi": 46,
                    "time": 181.8556110000006,
                    "velocity": 0.4881889763779528,
                    "duration": 0.20618550000000369
                },
                {
                    "name": "F3",
                    "midi": 53,
                    "time": 181.8556110000006,
                    "velocity": 0.4881889763779528,
                    "duration": 0.20618550000000369
                },
                {
                    "name": "A#3",
                    "midi": 58,
                    "time": 181.8556110000006,
                    "velocity": 0.5826771653543307,
                    "duration": 0.20618550000000369
                },
                {
                    "name": "C#3",
                    "midi": 49,
                    "time": 182.47416750000062,
                    "velocity": 0.49606299212598426,
                    "duration": 0.10309275000000184
                },
                {
                    "name": "A#2",
                    "midi": 46,
                    "time": 182.57726025000062,
                    "velocity": 0.4409448818897638,
                    "duration": 0.10309275000000184
                },
                {
                    "name": "F2",
                    "midi": 41,
                    "time": 182.68035300000062,
                    "velocity": 0.44881889763779526,
                    "duration": 0.10309275000000184
                },
                {
                    "name": "C#2",
                    "midi": 37,
                    "time": 182.78344575000062,
                    "velocity": 0.4566929133858268,
                    "duration": 0.10309275000000184
                },
                {
                    "name": "A#1",
                    "midi": 34,
                    "time": 182.88653850000063,
                    "velocity": 0.49606299212598426,
                    "duration": 0.10309275000000184
                },
                {
                    "name": "A#2",
                    "midi": 46,
                    "time": 183.09272400000063,
                    "velocity": 0.48031496062992124,
                    "duration": 0.30927825000000553
                },
                {
                    "name": "F#3",
                    "midi": 54,
                    "time": 183.09272400000063,
                    "velocity": 0.48031496062992124,
                    "duration": 0.30927825000000553
                },
                {
                    "name": "A#3",
                    "midi": 58,
                    "time": 183.09272400000063,
                    "velocity": 0.5669291338582677,
                    "duration": 0.30927825000000553
                },
                {
                    "name": "A#2",
                    "midi": 46,
                    "time": 183.40200225000063,
                    "velocity": 0.4409448818897638,
                    "duration": 0.09793811250000317
                },
                {
                    "name": "F#3",
                    "midi": 54,
                    "time": 183.40200225000063,
                    "velocity": 0.4409448818897638,
                    "duration": 0.09793811250000317
                },
                {
                    "name": "A#3",
                    "midi": 58,
                    "time": 183.40200225000063,
                    "velocity": 0.5275590551181102,
                    "duration": 0.09793811250000317
                },
                {
                    "name": "A#2",
                    "midi": 46,
                    "time": 183.50509500000064,
                    "velocity": 0.4881889763779528,
                    "duration": 0.10309275000000184
                },
                {
                    "name": "F#3",
                    "midi": 54,
                    "time": 183.50509500000064,
                    "velocity": 0.4881889763779528,
                    "duration": 0.10309275000000184
                },
                {
                    "name": "A#3",
                    "midi": 58,
                    "time": 183.50509500000064,
                    "velocity": 0.5748031496062992,
                    "duration": 0.10309275000000184
                },
                {
                    "name": "B2",
                    "midi": 47,
                    "time": 183.71128050000064,
                    "velocity": 0.4881889763779528,
                    "duration": 0.20618550000000369
                },
                {
                    "name": "F#3",
                    "midi": 54,
                    "time": 183.71128050000064,
                    "velocity": 0.4881889763779528,
                    "duration": 0.20618550000000369
                },
                {
                    "name": "B3",
                    "midi": 59,
                    "time": 183.71128050000064,
                    "velocity": 0.5826771653543307,
                    "duration": 0.20618550000000369
                },
                {
                    "name": "B2",
                    "midi": 47,
                    "time": 184.32983700000065,
                    "velocity": 0.48031496062992124,
                    "duration": 0.30927825000000553
                },
                {
                    "name": "G3",
                    "midi": 55,
                    "time": 184.32983700000065,
                    "velocity": 0.48031496062992124,
                    "duration": 0.30927825000000553
                },
                {
                    "name": "B3",
                    "midi": 59,
                    "time": 184.32983700000065,
                    "velocity": 0.5669291338582677,
                    "duration": 0.30927825000000553
                },
                {
                    "name": "B2",
                    "midi": 47,
                    "time": 184.63911525000066,
                    "velocity": 0.4409448818897638,
                    "duration": 0.09793811250000317
                },
                {
                    "name": "G3",
                    "midi": 55,
                    "time": 184.63911525000066,
                    "velocity": 0.4409448818897638,
                    "duration": 0.09793811250000317
                },
                {
                    "name": "B3",
                    "midi": 59,
                    "time": 184.63911525000066,
                    "velocity": 0.5275590551181102,
                    "duration": 0.09793811250000317
                },
                {
                    "name": "B2",
                    "midi": 47,
                    "time": 184.74220800000066,
                    "velocity": 0.4881889763779528,
                    "duration": 0.10309275000000184
                },
                {
                    "name": "G3",
                    "midi": 55,
                    "time": 184.74220800000066,
                    "velocity": 0.4881889763779528,
                    "duration": 0.10309275000000184
                },
                {
                    "name": "B3",
                    "midi": 59,
                    "time": 184.74220800000066,
                    "velocity": 0.5748031496062992,
                    "duration": 0.10309275000000184
                },
                {
                    "name": "C3",
                    "midi": 48,
                    "time": 184.94839350000066,
                    "velocity": 0.4881889763779528,
                    "duration": 0.20618550000000369
                },
                {
                    "name": "G3",
                    "midi": 55,
                    "time": 184.94839350000066,
                    "velocity": 0.4881889763779528,
                    "duration": 0.20618550000000369
                },
                {
                    "name": "C4",
                    "midi": 60,
                    "time": 184.94839350000066,
                    "velocity": 0.5826771653543307,
                    "duration": 0.20618550000000369
                },
                {
                    "name": "G#1",
                    "midi": 32,
                    "time": 185.56695000000067,
                    "velocity": 0.30708661417322836,
                    "duration": 0.10309275000000184
                },
                {
                    "name": "G#2",
                    "midi": 44,
                    "time": 185.67004275000068,
                    "velocity": 0.3228346456692913,
                    "duration": 0.10309275000000184
                },
                {
                    "name": "G#1",
                    "midi": 32,
                    "time": 185.77313550000068,
                    "velocity": 0.33070866141732286,
                    "duration": 0.10309275000000184
                },
                {
                    "name": "G#2",
                    "midi": 44,
                    "time": 185.87622825000068,
                    "velocity": 0.33858267716535434,
                    "duration": 0.10309275000000184
                },
                {
                    "name": "G#1",
                    "midi": 32,
                    "time": 185.97932100000068,
                    "velocity": 0.3464566929133858,
                    "duration": 0.10309275000000184
                },
                {
                    "name": "G#2",
                    "midi": 44,
                    "time": 186.08241375000068,
                    "velocity": 0.36220472440944884,
                    "duration": 0.10309275000000184
                },
                {
                    "name": "G#1",
                    "midi": 32,
                    "time": 186.18550650000068,
                    "velocity": 0.3700787401574803,
                    "duration": 0.10309275000000184
                },
                {
                    "name": "G#2",
                    "midi": 44,
                    "time": 186.2885992500007,
                    "velocity": 0.3858267716535433,
                    "duration": 0.10309275000000184
                },
                {
                    "name": "G#1",
                    "midi": 32,
                    "time": 186.3916920000007,
                    "velocity": 0.3858267716535433,
                    "duration": 0.10309275000000184
                },
                {
                    "name": "G#2",
                    "midi": 44,
                    "time": 186.4947847500007,
                    "velocity": 0.4015748031496063,
                    "duration": 0.10309275000000184
                },
                {
                    "name": "G#1",
                    "midi": 32,
                    "time": 186.5978775000007,
                    "velocity": 0.4094488188976378,
                    "duration": 0.10309275000000184
                },
                {
                    "name": "G#2",
                    "midi": 44,
                    "time": 186.7009702500007,
                    "velocity": 0.41732283464566927,
                    "duration": 0.10309275000000184
                },
                {
                    "name": "A2",
                    "midi": 45,
                    "time": 186.8040630000007,
                    "velocity": 0.4015748031496063,
                    "duration": 0.10309275000000184
                },
                {
                    "name": "A#2",
                    "midi": 46,
                    "time": 186.9071557500007,
                    "velocity": 0.41732283464566927,
                    "duration": 0.10309275000000184
                },
                {
                    "name": "B2",
                    "midi": 47,
                    "time": 187.0102485000007,
                    "velocity": 0.4251968503937008,
                    "duration": 0.10309275000000184
                },
                {
                    "name": "C3",
                    "midi": 48,
                    "time": 187.1133412500007,
                    "velocity": 0.4330708661417323,
                    "duration": 0.10309275000000184
                },
                {
                    "name": "C#3",
                    "midi": 49,
                    "time": 187.2164340000007,
                    "velocity": 0.44881889763779526,
                    "duration": 0.10309275000000184
                },
                {
                    "name": "D3",
                    "midi": 50,
                    "time": 187.3195267500007,
                    "velocity": 0.4645669291338583,
                    "duration": 0.10309275000000184
                },
                {
                    "name": "D#3",
                    "midi": 51,
                    "time": 187.4226195000007,
                    "velocity": 0.48031496062992124,
                    "duration": 0.10309275000000184
                },
                {
                    "name": "E3",
                    "midi": 52,
                    "time": 187.5257122500007,
                    "velocity": 0.49606299212598426,
                    "duration": 0.10309275000000184
                },
                {
                    "name": "F3",
                    "midi": 53,
                    "time": 187.6288050000007,
                    "velocity": 0.49606299212598426,
                    "duration": 0.10309275000000184
                },
                {
                    "name": "F#3",
                    "midi": 54,
                    "time": 187.7318977500007,
                    "velocity": 0.5118110236220472,
                    "duration": 0.10309275000000184
                },
                {
                    "name": "G3",
                    "midi": 55,
                    "time": 187.8349905000007,
                    "velocity": 0.5275590551181102,
                    "duration": 0.10309275000000184
                },
                {
                    "name": "G#3",
                    "midi": 56,
                    "time": 187.93808325000072,
                    "velocity": 0.5433070866141733,
                    "duration": 0.10309275000000184
                },
                {
                    "name": "G#3",
                    "midi": 56,
                    "time": 188.04117600000072,
                    "velocity": 0.5984251968503937,
                    "duration": 0.20618550000000369
                },
                {
                    "name": "G#2",
                    "midi": 44,
                    "time": 188.04117600000072,
                    "velocity": 0.5039370078740157,
                    "duration": 0.20618550000000369
                },
                {
                    "name": "G#4",
                    "midi": 68,
                    "time": 188.24736150000072,
                    "velocity": 0.5433070866141733,
                    "duration": 0.10309275000000184
                },
                {
                    "name": "G#3",
                    "midi": 56,
                    "time": 188.24736150000072,
                    "velocity": 0.4566929133858268,
                    "duration": 0.10309275000000184
                },
                {
                    "name": "G#4",
                    "midi": 68,
                    "time": 188.45354700000073,
                    "velocity": 0.5433070866141733,
                    "duration": 0.10309275000000184
                },
                {
                    "name": "G#3",
                    "midi": 56,
                    "time": 188.45354700000073,
                    "velocity": 0.4566929133858268,
                    "duration": 0.10309275000000184
                },
                {
                    "name": "G#3",
                    "midi": 56,
                    "time": 188.65973250000073,
                    "velocity": 0.5039370078740157,
                    "duration": 0.10309275000000184
                },
                {
                    "name": "G#4",
                    "midi": 68,
                    "time": 188.65973250000073,
                    "velocity": 0.5984251968503937,
                    "duration": 0.10309275000000184
                },
                {
                    "name": "G#4",
                    "midi": 68,
                    "time": 188.86591800000073,
                    "velocity": 0.5433070866141733,
                    "duration": 0.10309275000000184
                },
                {
                    "name": "G#3",
                    "midi": 56,
                    "time": 188.86591800000073,
                    "velocity": 0.4566929133858268,
                    "duration": 0.10309275000000184
                },
                {
                    "name": "G#3",
                    "midi": 56,
                    "time": 189.07210350000074,
                    "velocity": 0.4566929133858268,
                    "duration": 0.10309275000000184
                },
                {
                    "name": "G#4",
                    "midi": 68,
                    "time": 189.07210350000074,
                    "velocity": 0.5433070866141733,
                    "duration": 0.10309275000000184
                },
                {
                    "name": "G3",
                    "midi": 55,
                    "time": 189.27828900000074,
                    "velocity": 0.5118110236220472,
                    "duration": 0.20618550000000369
                },
                {
                    "name": "G4",
                    "midi": 67,
                    "time": 189.27828900000074,
                    "velocity": 0.6141732283464567,
                    "duration": 0.20618550000000369
                },
                {
                    "name": "G2",
                    "midi": 43,
                    "time": 189.48447450000074,
                    "velocity": 0.4566929133858268,
                    "duration": 0.10309275000000184
                },
                {
                    "name": "G3",
                    "midi": 55,
                    "time": 189.48447450000074,
                    "velocity": 0.5433070866141733,
                    "duration": 0.10309275000000184
                },
                {
                    "name": "G1",
                    "midi": 31,
                    "time": 189.69066000000075,
                    "velocity": 0.4094488188976378,
                    "duration": 0.10309275000000184
                },
                {
                    "name": "G2",
                    "midi": 43,
                    "time": 189.69066000000075,
                    "velocity": 0.4881889763779528,
                    "duration": 0.10309275000000184
                },
                {
                    "name": "F4",
                    "midi": 65,
                    "time": 190.10303100000075,
                    "velocity": 0.5433070866141733,
                    "duration": 0.10309275000000184
                },
                {
                    "name": "F3",
                    "midi": 53,
                    "time": 190.10303100000075,
                    "velocity": 0.4566929133858268,
                    "duration": 0.10309275000000184
                },
                {
                    "name": "F3",
                    "midi": 53,
                    "time": 190.30921650000076,
                    "velocity": 0.4881889763779528,
                    "duration": 0.10309275000000184
                },
                {
                    "name": "F2",
                    "midi": 41,
                    "time": 190.30921650000076,
                    "velocity": 0.4094488188976378,
                    "duration": 0.10309275000000184
                },
                {
                    "name": "E4",
                    "midi": 64,
                    "time": 190.72158750000077,
                    "velocity": 0.5433070866141733,
                    "duration": 0.10309275000000184
                },
                {
                    "name": "E3",
                    "midi": 52,
                    "time": 190.72158750000077,
                    "velocity": 0.4566929133858268,
                    "duration": 0.10309275000000184
                },
                {
                    "name": "E3",
                    "midi": 52,
                    "time": 190.92777300000077,
                    "velocity": 0.49606299212598426,
                    "duration": 0.10309275000000184
                },
                {
                    "name": "E2",
                    "midi": 40,
                    "time": 190.92777300000077,
                    "velocity": 0.41732283464566927,
                    "duration": 0.10309275000000184
                },
                {
                    "name": "A4",
                    "midi": 69,
                    "time": 191.34014400000078,
                    "velocity": 0.5511811023622047,
                    "duration": 0.10309275000000184
                },
                {
                    "name": "A3",
                    "midi": 57,
                    "time": 191.34014400000078,
                    "velocity": 0.4645669291338583,
                    "duration": 0.10309275000000184
                },
                {
                    "name": "A3",
                    "midi": 57,
                    "time": 191.54632950000078,
                    "velocity": 0.49606299212598426,
                    "duration": 0.10309275000000184
                },
                {
                    "name": "A2",
                    "midi": 45,
                    "time": 191.54632950000078,
                    "velocity": 0.41732283464566927,
                    "duration": 0.10309275000000184
                },
                {
                    "name": "G4",
                    "midi": 67,
                    "time": 191.9587005000008,
                    "velocity": 0.5590551181102362,
                    "duration": 0.10309275000000184
                },
                {
                    "name": "G3",
                    "midi": 55,
                    "time": 191.9587005000008,
                    "velocity": 0.47244094488188976,
                    "duration": 0.10309275000000184
                },
                {
                    "name": "G2",
                    "midi": 43,
                    "time": 192.1648860000008,
                    "velocity": 0.4251968503937008,
                    "duration": 0.10309275000000184
                },
                {
                    "name": "G3",
                    "midi": 55,
                    "time": 192.1648860000008,
                    "velocity": 0.5039370078740157,
                    "duration": 0.10309275000000184
                },
                {
                    "name": "F#3",
                    "midi": 54,
                    "time": 192.5772570000008,
                    "velocity": 0.47244094488188976,
                    "duration": 0.10309275000000184
                },
                {
                    "name": "F#4",
                    "midi": 66,
                    "time": 192.5772570000008,
                    "velocity": 0.5669291338582677,
                    "duration": 0.10309275000000184
                },
                {
                    "name": "F#3",
                    "midi": 54,
                    "time": 192.7834425000008,
                    "velocity": 0.5118110236220472,
                    "duration": 0.10309275000000184
                },
                {
                    "name": "F#2",
                    "midi": 42,
                    "time": 192.7834425000008,
                    "velocity": 0.4251968503937008,
                    "duration": 0.10309275000000184
                },
                {
                    "name": "B3",
                    "midi": 59,
                    "time": 193.1958135000008,
                    "velocity": 0.5748031496062992,
                    "duration": 0.10309275000000184
                },
                {
                    "name": "B2",
                    "midi": 47,
                    "time": 193.1958135000008,
                    "velocity": 0.48031496062992124,
                    "duration": 0.10309275000000184
                },
                {
                    "name": "B1",
                    "midi": 35,
                    "time": 193.4019990000008,
                    "velocity": 0.4330708661417323,
                    "duration": 0.10309275000000184
                },
                {
                    "name": "B2",
                    "midi": 47,
                    "time": 193.4019990000008,
                    "velocity": 0.5196850393700787,
                    "duration": 0.10309275000000184
                },
                {
                    "name": "A2",
                    "midi": 45,
                    "time": 193.81437000000082,
                    "velocity": 0.4881889763779528,
                    "duration": 0.10309275000000184
                },
                {
                    "name": "A3",
                    "midi": 57,
                    "time": 193.81437000000082,
                    "velocity": 0.5748031496062992,
                    "duration": 0.10309275000000184
                },
                {
                    "name": "A2",
                    "midi": 45,
                    "time": 194.02055550000082,
                    "velocity": 0.5196850393700787,
                    "duration": 0.10309275000000184
                },
                {
                    "name": "A1",
                    "midi": 33,
                    "time": 194.02055550000082,
                    "velocity": 0.4409448818897638,
                    "duration": 0.10309275000000184
                },
                {
                    "name": "G#3",
                    "midi": 56,
                    "time": 194.43292650000083,
                    "velocity": 0.5905511811023622,
                    "duration": 0.10309275000000184
                },
                {
                    "name": "G#2",
                    "midi": 44,
                    "time": 194.43292650000083,
                    "velocity": 0.49606299212598426,
                    "duration": 0.10309275000000184
                },
                {
                    "name": "G#2",
                    "midi": 44,
                    "time": 194.63911200000084,
                    "velocity": 0.5275590551181102,
                    "duration": 0.10309275000000184
                },
                {
                    "name": "G#1",
                    "midi": 32,
                    "time": 194.63911200000084,
                    "velocity": 0.4409448818897638,
                    "duration": 0.10309275000000184
                },
                {
                    "name": "C#4",
                    "midi": 61,
                    "time": 195.05148300000084,
                    "velocity": 0.5905511811023622,
                    "duration": 0.10309275000000184
                },
                {
                    "name": "C#3",
                    "midi": 49,
                    "time": 195.05148300000084,
                    "velocity": 0.49606299212598426,
                    "duration": 0.10309275000000184
                },
                {
                    "name": "C#2",
                    "midi": 37,
                    "time": 195.25766850000085,
                    "velocity": 0.44881889763779526,
                    "duration": 0.10309275000000184
                },
                {
                    "name": "C#3",
                    "midi": 49,
                    "time": 195.25766850000085,
                    "velocity": 0.5354330708661418,
                    "duration": 0.10309275000000184
                },
                {
                    "name": "B3",
                    "midi": 59,
                    "time": 195.67003950000085,
                    "velocity": 0.5984251968503937,
                    "duration": 0.10309275000000184
                },
                {
                    "name": "B2",
                    "midi": 47,
                    "time": 195.67003950000085,
                    "velocity": 0.5039370078740157,
                    "duration": 0.10309275000000184
                },
                {
                    "name": "B2",
                    "midi": 47,
                    "time": 195.87622500000086,
                    "velocity": 0.5433070866141733,
                    "duration": 0.10309275000000184
                },
                {
                    "name": "B1",
                    "midi": 35,
                    "time": 195.87622500000086,
                    "velocity": 0.4566929133858268,
                    "duration": 0.10309275000000184
                },
                {
                    "name": "A3",
                    "midi": 57,
                    "time": 196.28859600000087,
                    "velocity": 0.6062992125984252,
                    "duration": 0.10309275000000184
                },
                {
                    "name": "A2",
                    "midi": 45,
                    "time": 196.28859600000087,
                    "velocity": 0.5039370078740157,
                    "duration": 0.10309275000000184
                },
                {
                    "name": "A1",
                    "midi": 33,
                    "time": 196.49478150000087,
                    "velocity": 0.4566929133858268,
                    "duration": 0.10309275000000184
                },
                {
                    "name": "A2",
                    "midi": 45,
                    "time": 196.49478150000087,
                    "velocity": 0.5511811023622047,
                    "duration": 0.10309275000000184
                },
                {
                    "name": "A3",
                    "midi": 57,
                    "time": 196.90715250000088,
                    "velocity": 0.6141732283464567,
                    "duration": 0.10309275000000184
                },
                {
                    "name": "A2",
                    "midi": 45,
                    "time": 196.90715250000088,
                    "velocity": 0.5196850393700787,
                    "duration": 0.10309275000000184
                },
                {
                    "name": "A2",
                    "midi": 45,
                    "time": 197.11333800000088,
                    "velocity": 0.6771653543307087,
                    "duration": 0.10309275000000184
                },
                {
                    "name": "A1",
                    "midi": 33,
                    "time": 197.11333800000088,
                    "velocity": 0.5511811023622047,
                    "duration": 0.10309275000000184
                },
                {
                    "name": "A1",
                    "midi": 33,
                    "time": 197.31952350000088,
                    "velocity": 0.6141732283464567,
                    "duration": 0.9278347499999882
                },
                {
                    "name": "A2",
                    "midi": 45,
                    "time": 197.31952350000088,
                    "velocity": 0.7244094488188977,
                    "duration": 0.9278347499999882
                },
                {
                    "name": "A2",
                    "midi": 45,
                    "time": 198.24735825000087,
                    "velocity": 0.5590551181102362,
                    "duration": 0.09793811250000317
                },
                {
                    "name": "A3",
                    "midi": 57,
                    "time": 198.24735825000087,
                    "velocity": 0.6614173228346457,
                    "duration": 0.09793811250000317
                },
                {
                    "name": "A2",
                    "midi": 45,
                    "time": 198.35045100000087,
                    "velocity": 0.5984251968503937,
                    "duration": 0.20618550000000369
                },
                {
                    "name": "A3",
                    "midi": 57,
                    "time": 198.35045100000087,
                    "velocity": 0.7165354330708661,
                    "duration": 0.20618550000000369
                },
                {
                    "name": "A1",
                    "midi": 33,
                    "time": 198.55663650000088,
                    "velocity": 0.5984251968503937,
                    "duration": 0.9278347499999882
                },
                {
                    "name": "A2",
                    "midi": 45,
                    "time": 198.55663650000088,
                    "velocity": 0.7086614173228346,
                    "duration": 0.9278347499999882
                },
                {
                    "name": "A2",
                    "midi": 45,
                    "time": 199.48447125000087,
                    "velocity": 0.5590551181102362,
                    "duration": 0.10309275000000184
                },
                {
                    "name": "A3",
                    "midi": 57,
                    "time": 199.48447125000087,
                    "velocity": 0.6614173228346457,
                    "duration": 0.10309275000000184
                },
                {
                    "name": "A2",
                    "midi": 45,
                    "time": 199.58756400000087,
                    "velocity": 0.5984251968503937,
                    "duration": 0.20618550000000369
                },
                {
                    "name": "A3",
                    "midi": 57,
                    "time": 199.58756400000087,
                    "velocity": 0.7165354330708661,
                    "duration": 0.20618550000000369
                },
                {
                    "name": "A#1",
                    "midi": 34,
                    "time": 199.79374950000087,
                    "velocity": 0.5984251968503937,
                    "duration": 0.9278347499999882
                },
                {
                    "name": "A#2",
                    "midi": 46,
                    "time": 199.79374950000087,
                    "velocity": 0.7086614173228346,
                    "duration": 0.9278347499999882
                },
                {
                    "name": "A#2",
                    "midi": 46,
                    "time": 200.72158425000086,
                    "velocity": 0.5590551181102362,
                    "duration": 0.09793811250000317
                },
                {
                    "name": "A#3",
                    "midi": 58,
                    "time": 200.72158425000086,
                    "velocity": 0.6614173228346457,
                    "duration": 0.09793811250000317
                },
                {
                    "name": "A#2",
                    "midi": 46,
                    "time": 200.82467700000086,
                    "velocity": 0.5984251968503937,
                    "duration": 0.20618550000000369
                },
                {
                    "name": "A#3",
                    "midi": 58,
                    "time": 200.82467700000086,
                    "velocity": 0.7165354330708661,
                    "duration": 0.20618550000000369
                },
                {
                    "name": "A#1",
                    "midi": 34,
                    "time": 201.03086250000086,
                    "velocity": 0.5984251968503937,
                    "duration": 0.9278347499999882
                },
                {
                    "name": "A#2",
                    "midi": 46,
                    "time": 201.03086250000086,
                    "velocity": 0.7086614173228346,
                    "duration": 0.9278347499999882
                },
                {
                    "name": "A#2",
                    "midi": 46,
                    "time": 201.95869725000085,
                    "velocity": 0.5590551181102362,
                    "duration": 0.09793811250000317
                },
                {
                    "name": "A#3",
                    "midi": 58,
                    "time": 201.95869725000085,
                    "velocity": 0.6614173228346457,
                    "duration": 0.09793811250000317
                },
                {
                    "name": "A#2",
                    "midi": 46,
                    "time": 202.06179000000085,
                    "velocity": 0.5984251968503937,
                    "duration": 0.20618550000000369
                },
                {
                    "name": "A#3",
                    "midi": 58,
                    "time": 202.06179000000085,
                    "velocity": 0.7165354330708661,
                    "duration": 0.20618550000000369
                },
                {
                    "name": "B1",
                    "midi": 35,
                    "time": 202.26797550000086,
                    "velocity": 0.6220472440944882,
                    "duration": 0.9278347499999882
                },
                {
                    "name": "B2",
                    "midi": 47,
                    "time": 202.26797550000086,
                    "velocity": 0.7322834645669292,
                    "duration": 0.9278347499999882
                },
                {
                    "name": "B2",
                    "midi": 47,
                    "time": 203.19581025000085,
                    "velocity": 0.5590551181102362,
                    "duration": 0.09793811250000317
                },
                {
                    "name": "B3",
                    "midi": 59,
                    "time": 203.19581025000085,
                    "velocity": 0.6614173228346457,
                    "duration": 0.09793811250000317
                },
                {
                    "name": "B2",
                    "midi": 47,
                    "time": 203.29890300000085,
                    "velocity": 0.5984251968503937,
                    "duration": 0.20618550000000369
                },
                {
                    "name": "B3",
                    "midi": 59,
                    "time": 203.29890300000085,
                    "velocity": 0.7165354330708661,
                    "duration": 0.20618550000000369
                },
                {
                    "name": "C2",
                    "midi": 36,
                    "time": 203.50508850000085,
                    "velocity": 0.5984251968503937,
                    "duration": 0.9278347500000166
                },
                {
                    "name": "C3",
                    "midi": 48,
                    "time": 203.50508850000085,
                    "velocity": 0.7165354330708661,
                    "duration": 0.9278347500000166
                },
                {
                    "name": "C3",
                    "midi": 48,
                    "time": 204.43292325000087,
                    "velocity": 0.5590551181102362,
                    "duration": 0.09793811250000317
                },
                {
                    "name": "C4",
                    "midi": 60,
                    "time": 204.43292325000087,
                    "velocity": 0.6614173228346457,
                    "duration": 0.09793811250000317
                },
                {
                    "name": "C3",
                    "midi": 48,
                    "time": 204.53601600000087,
                    "velocity": 0.5984251968503937,
                    "duration": 0.20618550000000369
                },
                {
                    "name": "C4",
                    "midi": 60,
                    "time": 204.53601600000087,
                    "velocity": 0.7165354330708661,
                    "duration": 0.20618550000000369
                },
                {
                    "name": "C#2",
                    "midi": 37,
                    "time": 204.74220150000087,
                    "velocity": 0.5984251968503937,
                    "duration": 0.9278347499999882
                },
                {
                    "name": "C#3",
                    "midi": 49,
                    "time": 204.74220150000087,
                    "velocity": 0.7086614173228346,
                    "duration": 0.9278347499999882
                },
                {
                    "name": "C#3",
                    "midi": 49,
                    "time": 205.67003625000086,
                    "velocity": 0.5590551181102362,
                    "duration": 0.09793811250000317
                },
                {
                    "name": "C#4",
                    "midi": 61,
                    "time": 205.67003625000086,
                    "velocity": 0.6614173228346457,
                    "duration": 0.09793811250000317
                },
                {
                    "name": "C#3",
                    "midi": 49,
                    "time": 205.77312900000086,
                    "velocity": 0.5984251968503937,
                    "duration": 0.20618550000000369
                },
                {
                    "name": "C#4",
                    "midi": 61,
                    "time": 205.77312900000086,
                    "velocity": 0.7165354330708661,
                    "duration": 0.20618550000000369
                },
                {
                    "name": "C#2",
                    "midi": 37,
                    "time": 205.97931450000087,
                    "velocity": 0.5984251968503937,
                    "duration": 0.9278347499999882
                },
                {
                    "name": "C#3",
                    "midi": 49,
                    "time": 205.97931450000087,
                    "velocity": 0.7086614173228346,
                    "duration": 0.9278347499999882
                },
                {
                    "name": "C#3",
                    "midi": 49,
                    "time": 206.90714925000086,
                    "velocity": 0.5590551181102362,
                    "duration": 0.09793811250000317
                },
                {
                    "name": "C#4",
                    "midi": 61,
                    "time": 206.90714925000086,
                    "velocity": 0.6614173228346457,
                    "duration": 0.09793811250000317
                },
                {
                    "name": "C#3",
                    "midi": 49,
                    "time": 207.01024200000086,
                    "velocity": 0.5984251968503937,
                    "duration": 0.20618550000000369
                },
                {
                    "name": "C#4",
                    "midi": 61,
                    "time": 207.01024200000086,
                    "velocity": 0.7165354330708661,
                    "duration": 0.20618550000000369
                },
                {
                    "name": "D2",
                    "midi": 38,
                    "time": 207.21642750000086,
                    "velocity": 0.5984251968503937,
                    "duration": 0.30927825000000553
                },
                {
                    "name": "D3",
                    "midi": 50,
                    "time": 207.21642750000086,
                    "velocity": 0.7086614173228346,
                    "duration": 0.30927825000000553
                },
                {
                    "name": "D3",
                    "midi": 50,
                    "time": 207.52570575000087,
                    "velocity": 0.5590551181102362,
                    "duration": 0.09793811250000317
                },
                {
                    "name": "D4",
                    "midi": 62,
                    "time": 207.52570575000087,
                    "velocity": 0.6614173228346457,
                    "duration": 0.09793811250000317
                },
                {
                    "name": "D3",
                    "midi": 50,
                    "time": 207.62879850000087,
                    "velocity": 0.5984251968503937,
                    "duration": 0.20618550000000369
                },
                {
                    "name": "D4",
                    "midi": 62,
                    "time": 207.62879850000087,
                    "velocity": 0.7165354330708661,
                    "duration": 0.20618550000000369
                },
                {
                    "name": "B1",
                    "midi": 35,
                    "time": 207.83498400000087,
                    "velocity": 0.5984251968503937,
                    "duration": 0.30927825000000553
                },
                {
                    "name": "B2",
                    "midi": 47,
                    "time": 207.83498400000087,
                    "velocity": 0.7086614173228346,
                    "duration": 0.30927825000000553
                },
                {
                    "name": "B2",
                    "midi": 47,
                    "time": 208.14426225000088,
                    "velocity": 0.5590551181102362,
                    "duration": 0.09793811250000317
                },
                {
                    "name": "B3",
                    "midi": 59,
                    "time": 208.14426225000088,
                    "velocity": 0.6614173228346457,
                    "duration": 0.09793811250000317
                },
                {
                    "name": "B2",
                    "midi": 47,
                    "time": 208.24735500000088,
                    "velocity": 0.5984251968503937,
                    "duration": 0.20618550000000369
                },
                {
                    "name": "B3",
                    "midi": 59,
                    "time": 208.24735500000088,
                    "velocity": 0.7165354330708661,
                    "duration": 0.20618550000000369
                },
                {
                    "name": "C2",
                    "midi": 36,
                    "time": 208.45354050000088,
                    "velocity": 0.5984251968503937,
                    "duration": 0.30927825000000553
                },
                {
                    "name": "C3",
                    "midi": 48,
                    "time": 208.45354050000088,
                    "velocity": 0.7086614173228346,
                    "duration": 0.30927825000000553
                },
                {
                    "name": "C3",
                    "midi": 48,
                    "time": 208.7628187500009,
                    "velocity": 0.5590551181102362,
                    "duration": 0.09793811250000317
                },
                {
                    "name": "C4",
                    "midi": 60,
                    "time": 208.7628187500009,
                    "velocity": 0.6614173228346457,
                    "duration": 0.09793811250000317
                },
                {
                    "name": "C3",
                    "midi": 48,
                    "time": 208.8659115000009,
                    "velocity": 0.5984251968503937,
                    "duration": 0.20618550000000369
                },
                {
                    "name": "C4",
                    "midi": 60,
                    "time": 208.8659115000009,
                    "velocity": 0.7165354330708661,
                    "duration": 0.20618550000000369
                },
                {
                    "name": "A1",
                    "midi": 33,
                    "time": 209.0720970000009,
                    "velocity": 0.5984251968503937,
                    "duration": 0.30927825000000553
                },
                {
                    "name": "A2",
                    "midi": 45,
                    "time": 209.0720970000009,
                    "velocity": 0.7086614173228346,
                    "duration": 0.30927825000000553
                },
                {
                    "name": "A2",
                    "midi": 45,
                    "time": 209.3813752500009,
                    "velocity": 0.5590551181102362,
                    "duration": 0.09793811250000317
                },
                {
                    "name": "A3",
                    "midi": 57,
                    "time": 209.3813752500009,
                    "velocity": 0.6614173228346457,
                    "duration": 0.09793811250000317
                },
                {
                    "name": "A2",
                    "midi": 45,
                    "time": 209.4844680000009,
                    "velocity": 0.5984251968503937,
                    "duration": 0.20618550000000369
                },
                {
                    "name": "A3",
                    "midi": 57,
                    "time": 209.4844680000009,
                    "velocity": 0.7165354330708661,
                    "duration": 0.20618550000000369
                },
                {
                    "name": "F1",
                    "midi": 29,
                    "time": 209.6906535000009,
                    "velocity": 0.5984251968503937,
                    "duration": 0.30927825000000553
                },
                {
                    "name": "F2",
                    "midi": 41,
                    "time": 209.6906535000009,
                    "velocity": 0.7086614173228346,
                    "duration": 0.30927825000000553
                },
                {
                    "name": "F2",
                    "midi": 41,
                    "time": 209.9999317500009,
                    "velocity": 0.5590551181102362,
                    "duration": 0.09793811250000317
                },
                {
                    "name": "F3",
                    "midi": 53,
                    "time": 209.9999317500009,
                    "velocity": 0.6614173228346457,
                    "duration": 0.09793811250000317
                },
                {
                    "name": "F2",
                    "midi": 41,
                    "time": 210.1030245000009,
                    "velocity": 0.5984251968503937,
                    "duration": 0.20618550000000369
                },
                {
                    "name": "F3",
                    "midi": 53,
                    "time": 210.1030245000009,
                    "velocity": 0.7165354330708661,
                    "duration": 0.20618550000000369
                },
                {
                    "name": "G1",
                    "midi": 31,
                    "time": 210.30921000000092,
                    "velocity": 0.5984251968503937,
                    "duration": 0.30927825000000553
                },
                {
                    "name": "G2",
                    "midi": 43,
                    "time": 210.30921000000092,
                    "velocity": 0.7086614173228346,
                    "duration": 0.30927825000000553
                },
                {
                    "name": "G2",
                    "midi": 43,
                    "time": 210.61848825000092,
                    "velocity": 0.5590551181102362,
                    "duration": 0.09793811250000317
                },
                {
                    "name": "G3",
                    "midi": 55,
                    "time": 210.61848825000092,
                    "velocity": 0.6614173228346457,
                    "duration": 0.09793811250000317
                },
                {
                    "name": "G2",
                    "midi": 43,
                    "time": 210.72158100000092,
                    "velocity": 0.5984251968503937,
                    "duration": 0.20618550000000369
                },
                {
                    "name": "G3",
                    "midi": 55,
                    "time": 210.72158100000092,
                    "velocity": 0.7165354330708661,
                    "duration": 0.20618550000000369
                },
                {
                    "name": "G#1",
                    "midi": 32,
                    "time": 210.92776650000093,
                    "velocity": 0.6377952755905512,
                    "duration": 0.10309275000000184
                },
                {
                    "name": "G#2",
                    "midi": 44,
                    "time": 211.03085925000093,
                    "velocity": 0.5669291338582677,
                    "duration": 0.10309275000000184
                },
                {
                    "name": "C2",
                    "midi": 36,
                    "time": 211.13395200000093,
                    "velocity": 0.6377952755905512,
                    "duration": 0.10309275000000184
                },
                {
                    "name": "C3",
                    "midi": 48,
                    "time": 211.23704475000093,
                    "velocity": 0.5433070866141733,
                    "duration": 0.10309275000000184
                },
                {
                    "name": "G#1",
                    "midi": 32,
                    "time": 211.34013750000094,
                    "velocity": 0.6377952755905512,
                    "duration": 0.10309275000000184
                },
                {
                    "name": "G#2",
                    "midi": 44,
                    "time": 211.44323025000094,
                    "velocity": 0.5433070866141733,
                    "duration": 0.10309275000000184
                },
                {
                    "name": "D#2",
                    "midi": 39,
                    "time": 211.54632300000094,
                    "velocity": 0.6377952755905512,
                    "duration": 0.10309275000000184
                },
                {
                    "name": "D#3",
                    "midi": 51,
                    "time": 211.64941575000094,
                    "velocity": 0.5669291338582677,
                    "duration": 0.10309275000000184
                },
                {
                    "name": "C2",
                    "midi": 36,
                    "time": 211.75250850000094,
                    "velocity": 0.6377952755905512,
                    "duration": 0.10309275000000184
                },
                {
                    "name": "C3",
                    "midi": 48,
                    "time": 211.85560125000094,
                    "velocity": 0.5433070866141733,
                    "duration": 0.10309275000000184
                },
                {
                    "name": "G#2",
                    "midi": 44,
                    "time": 211.95869400000095,
                    "velocity": 0.6377952755905512,
                    "duration": 0.10309275000000184
                },
                {
                    "name": "G#3",
                    "midi": 56,
                    "time": 212.06178675000095,
                    "velocity": 0.5433070866141733,
                    "duration": 0.10309275000000184
                },
                {
                    "name": "G#1",
                    "midi": 32,
                    "time": 212.16487950000095,
                    "velocity": 0.6377952755905512,
                    "duration": 0.10309275000000184
                },
                {
                    "name": "G#2",
                    "midi": 44,
                    "time": 212.26797225000095,
                    "velocity": 0.5669291338582677,
                    "duration": 0.10309275000000184
                },
                {
                    "name": "D#2",
                    "midi": 39,
                    "time": 212.37106500000095,
                    "velocity": 0.6377952755905512,
                    "duration": 0.10309275000000184
                },
                {
                    "name": "D#3",
                    "midi": 51,
                    "time": 212.47415775000096,
                    "velocity": 0.5433070866141733,
                    "duration": 0.10309275000000184
                },
                {
                    "name": "C2",
                    "midi": 36,
                    "time": 212.57725050000096,
                    "velocity": 0.6377952755905512,
                    "duration": 0.10309275000000184
                },
                {
                    "name": "C3",
                    "midi": 48,
                    "time": 212.68034325000096,
                    "velocity": 0.5433070866141733,
                    "duration": 0.10309275000000184
                },
                {
                    "name": "G#2",
                    "midi": 44,
                    "time": 212.78343600000096,
                    "velocity": 0.6377952755905512,
                    "duration": 0.10309275000000184
                },
                {
                    "name": "G#3",
                    "midi": 56,
                    "time": 212.88652875000096,
                    "velocity": 0.5669291338582677,
                    "duration": 0.10309275000000184
                },
                {
                    "name": "D#2",
                    "midi": 39,
                    "time": 212.98962150000096,
                    "velocity": 0.6377952755905512,
                    "duration": 0.10309275000000184
                },
                {
                    "name": "D#3",
                    "midi": 51,
                    "time": 213.09271425000097,
                    "velocity": 0.5433070866141733,
                    "duration": 0.10309275000000184
                },
                {
                    "name": "C3",
                    "midi": 48,
                    "time": 213.19580700000097,
                    "velocity": 0.6377952755905512,
                    "duration": 0.10309275000000184
                },
                {
                    "name": "C4",
                    "midi": 60,
                    "time": 213.29889975000097,
                    "velocity": 0.5433070866141733,
                    "duration": 0.10309275000000184
                },
                {
                    "name": "G#2",
                    "midi": 44,
                    "time": 213.40199250000097,
                    "velocity": 0.6535433070866141,
                    "duration": 0.10309275000000184
                },
                {
                    "name": "G#3",
                    "midi": 56,
                    "time": 213.50508525000097,
                    "velocity": 0.5748031496062992,
                    "duration": 0.10309275000000184
                },
                {
                    "name": "D#3",
                    "midi": 51,
                    "time": 213.60817800000098,
                    "velocity": 0.6377952755905512,
                    "duration": 0.10309275000000184
                },
                {
                    "name": "D#4",
                    "midi": 63,
                    "time": 213.71127075000098,
                    "velocity": 0.5590551181102362,
                    "duration": 0.10309275000000184
                },
                {
                    "name": "C3",
                    "midi": 48,
                    "time": 213.81436350000098,
                    "velocity": 0.6377952755905512,
                    "duration": 0.10309275000000184
                },
                {
                    "name": "C4",
                    "midi": 60,
                    "time": 213.91745625000098,
                    "velocity": 0.5511811023622047,
                    "duration": 0.10309275000000184
                },
                {
                    "name": "G#2",
                    "midi": 44,
                    "time": 214.02054900000098,
                    "velocity": 0.6299212598425197,
                    "duration": 0.10309275000000184
                },
                {
                    "name": "G#3",
                    "midi": 56,
                    "time": 214.12364175000098,
                    "velocity": 0.5669291338582677,
                    "duration": 0.10309275000000184
                },
                {
                    "name": "D#2",
                    "midi": 39,
                    "time": 214.226734500001,
                    "velocity": 0.6456692913385826,
                    "duration": 0.10309275000000184
                },
                {
                    "name": "D#3",
                    "midi": 51,
                    "time": 214.329827250001,
                    "velocity": 0.5590551181102362,
                    "duration": 0.10309275000000184
                },
                {
                    "name": "C2",
                    "midi": 36,
                    "time": 214.432920000001,
                    "velocity": 0.6614173228346457,
                    "duration": 0.10309275000000184
                },
                {
                    "name": "C3",
                    "midi": 48,
                    "time": 214.536012750001,
                    "velocity": 0.5669291338582677,
                    "duration": 0.10309275000000184
                },
                {
                    "name": "D#2",
                    "midi": 39,
                    "time": 214.639105500001,
                    "velocity": 0.6456692913385826,
                    "duration": 0.10309275000000184
                },
                {
                    "name": "D#3",
                    "midi": 51,
                    "time": 214.742198250001,
                    "velocity": 0.5826771653543307,
                    "duration": 0.10309275000000184
                },
                {
                    "name": "C3",
                    "midi": 48,
                    "time": 214.845291000001,
                    "velocity": 0.6614173228346457,
                    "duration": 0.10309275000000184
                },
                {
                    "name": "C4",
                    "midi": 60,
                    "time": 214.948383750001,
                    "velocity": 0.5669291338582677,
                    "duration": 0.10309275000000184
                },
                {
                    "name": "G#2",
                    "midi": 44,
                    "time": 215.051476500001,
                    "velocity": 0.6850393700787402,
                    "duration": 0.10309275000000184
                },
                {
                    "name": "G#3",
                    "midi": 56,
                    "time": 215.154569250001,
                    "velocity": 0.5748031496062992,
                    "duration": 0.10309275000000184
                },
                {
                    "name": "D#2",
                    "midi": 39,
                    "time": 215.257662000001,
                    "velocity": 0.7086614173228346,
                    "duration": 0.10309275000000184
                },
                {
                    "name": "D#3",
                    "midi": 51,
                    "time": 215.360754750001,
                    "velocity": 0.6299212598425197,
                    "duration": 0.10309275000000184
                },
                {
                    "name": "C2",
                    "midi": 36,
                    "time": 215.463847500001,
                    "velocity": 0.7244094488188977,
                    "duration": 0.10309275000000184
                },
                {
                    "name": "C3",
                    "midi": 48,
                    "time": 215.566940250001,
                    "velocity": 0.6220472440944882,
                    "duration": 0.10309275000000184
                },
                {
                    "name": "G#1",
                    "midi": 32,
                    "time": 215.670033000001,
                    "velocity": 0.7401574803149606,
                    "duration": 0.10309275000000184
                },
                {
                    "name": "G#2",
                    "midi": 44,
                    "time": 215.77312575000101,
                    "velocity": 0.6377952755905512,
                    "duration": 0.10309275000000184
                },
                {
                    "name": "G1",
                    "midi": 31,
                    "time": 215.87621850000102,
                    "velocity": 0.5905511811023622,
                    "duration": 0.20618550000000369
                },
                {
                    "name": "G2",
                    "midi": 43,
                    "time": 215.87621850000102,
                    "velocity": 0.7165354330708661,
                    "duration": 0.20618550000000369
                },
                {
                    "name": "D3",
                    "midi": 50,
                    "time": 217.113331500001,
                    "velocity": 0.6220472440944882,
                    "duration": 0.20618550000000369
                },
                {
                    "name": "B2",
                    "midi": 47,
                    "time": 217.113331500001,
                    "velocity": 0.6220472440944882,
                    "duration": 0.20618550000000369
                },
                {
                    "name": "G2",
                    "midi": 43,
                    "time": 217.113331500001,
                    "velocity": 0.6220472440944882,
                    "duration": 0.20618550000000369
                },
                {
                    "name": "G3",
                    "midi": 55,
                    "time": 217.113331500001,
                    "velocity": 0.7480314960629921,
                    "duration": 0.20618550000000369
                }
            ],
            "controlChanges": {
                "7": [
                    {
                        "number": 7,
                        "time": 0,
                        "value": 0.7874015748031497
                    }
                ],
                "10": [
                    {
                        "number": 10,
                        "time": 0,
                        "value": 0.5039370078740157
                    }
                ],
                "64": [
                    {
                        "number": 64,
                        "time": 1.237113,
                        "value": 1
                    },
                    {
                        "number": 64,
                        "time": 1.75257675,
                        "value": 0
                    },
                    {
                        "number": 64,
                        "time": 1.9226797875000001,
                        "value": 1
                    },
                    {
                        "number": 64,
                        "time": 2.37113325,
                        "value": 0
                    },
                    {
                        "number": 64,
                        "time": 4.948452000000001,
                        "value": 1
                    },
                    {
                        "number": 64,
                        "time": 5.463915750000001,
                        "value": 0
                    },
                    {
                        "number": 64,
                        "time": 5.6340187875000005,
                        "value": 1
                    },
                    {
                        "number": 64,
                        "time": 6.0824722499999995,
                        "value": 0
                    },
                    {
                        "number": 64,
                        "time": 8.659791,
                        "value": 1
                    },
                    {
                        "number": 64,
                        "time": 9.17525475,
                        "value": 0
                    },
                    {
                        "number": 64,
                        "time": 9.896904000000001,
                        "value": 1
                    },
                    {
                        "number": 64,
                        "time": 10.412367750000001,
                        "value": 0
                    },
                    {
                        "number": 64,
                        "time": 11.148621806250002,
                        "value": 1
                    },
                    {
                        "number": 64,
                        "time": 11.571302081250002,
                        "value": 0
                    },
                    {
                        "number": 64,
                        "time": 11.767178306250003,
                        "value": 1
                    },
                    {
                        "number": 64,
                        "time": 12.189858581250002,
                        "value": 0
                    },
                    {
                        "number": 64,
                        "time": 12.385734806250003,
                        "value": 1
                    },
                    {
                        "number": 64,
                        "time": 12.808415081250002,
                        "value": 0
                    },
                    {
                        "number": 64,
                        "time": 13.004291306250003,
                        "value": 1
                    },
                    {
                        "number": 64,
                        "time": 13.426971581250003,
                        "value": 0
                    },
                    {
                        "number": 64,
                        "time": 13.608243000000003,
                        "value": 1
                    },
                    {
                        "number": 64,
                        "time": 14.854806168750004,
                        "value": 0
                    },
                    {
                        "number": 64,
                        "time": 14.894325056250004,
                        "value": 1
                    },
                    {
                        "number": 64,
                        "time": 16.082469000000003,
                        "value": 0
                    },
                    {
                        "number": 64,
                        "time": 18.556694999999976,
                        "value": 1
                    },
                    {
                        "number": 64,
                        "time": 19.07215874999997,
                        "value": 0
                    },
                    {
                        "number": 64,
                        "time": 19.24226178749997,
                        "value": 1
                    },
                    {
                        "number": 64,
                        "time": 19.69071524999997,
                        "value": 0
                    },
                    {
                        "number": 64,
                        "time": 22.268033999999957,
                        "value": 1
                    },
                    {
                        "number": 64,
                        "time": 22.783497749999952,
                        "value": 0
                    },
                    {
                        "number": 64,
                        "time": 22.95360078749995,
                        "value": 1
                    },
                    {
                        "number": 64,
                        "time": 23.40205424999995,
                        "value": 0
                    },
                    {
                        "number": 64,
                        "time": 28.453598999999926,
                        "value": 1
                    },
                    {
                        "number": 64,
                        "time": 28.650334331249926,
                        "value": 0
                    },
                    {
                        "number": 64,
                        "time": 29.077310137499918,
                        "value": 1
                    },
                    {
                        "number": 64,
                        "time": 29.283495637499918,
                        "value": 0
                    },
                    {
                        "number": 64,
                        "time": 29.690711999999913,
                        "value": 1
                    },
                    {
                        "number": 64,
                        "time": 29.891742862499914,
                        "value": 0
                    },
                    {
                        "number": 64,
                        "time": 30.323873306249904,
                        "value": 1
                    },
                    {
                        "number": 64,
                        "time": 30.515453999999906,
                        "value": 0
                    },
                    {
                        "number": 64,
                        "time": 30.9278249999999,
                        "value": 1
                    },
                    {
                        "number": 64,
                        "time": 31.443288749999894,
                        "value": 0
                    },
                    {
                        "number": 64,
                        "time": 32.21390705624989,
                        "value": 1
                    },
                    {
                        "number": 64,
                        "time": 33.40205099999991,
                        "value": 0
                    },
                    {
                        "number": 64,
                        "time": 35.882290743749934,
                        "value": 1
                    },
                    {
                        "number": 64,
                        "time": 37.11338999999993,
                        "value": 0
                    },
                    {
                        "number": 64,
                        "time": 37.150331568749934,
                        "value": 1
                    },
                    {
                        "number": 64,
                        "time": 38.35050299999993,
                        "value": 0
                    },
                    {
                        "number": 64,
                        "time": 38.387444568749935,
                        "value": 1
                    },
                    {
                        "number": 64,
                        "time": 39.594488849999934,
                        "value": 0
                    },
                    {
                        "number": 64,
                        "time": 39.66064003124993,
                        "value": 1
                    },
                    {
                        "number": 64,
                        "time": 40.103079749999935,
                        "value": 0
                    },
                    {
                        "number": 64,
                        "time": 40.27919653124994,
                        "value": 1
                    },
                    {
                        "number": 64,
                        "time": 40.72163624999994,
                        "value": 0
                    },
                    {
                        "number": 64,
                        "time": 40.83160184999994,
                        "value": 0
                    },
                    {
                        "number": 64,
                        "time": 40.89775303124994,
                        "value": 1
                    },
                    {
                        "number": 64,
                        "time": 41.34019274999994,
                        "value": 0
                    },
                    {
                        "number": 64,
                        "time": 41.516309531249945,
                        "value": 1
                    },
                    {
                        "number": 64,
                        "time": 41.95874924999995,
                        "value": 0
                    },
                    {
                        "number": 64,
                        "time": 42.13486603124995,
                        "value": 1
                    },
                    {
                        "number": 64,
                        "time": 42.57730574999995,
                        "value": 0
                    },
                    {
                        "number": 64,
                        "time": 42.75342253124995,
                        "value": 1
                    },
                    {
                        "number": 64,
                        "time": 43.195862249999955,
                        "value": 0
                    },
                    {
                        "number": 64,
                        "time": 43.37197903124996,
                        "value": 1
                    },
                    {
                        "number": 64,
                        "time": 43.81441874999996,
                        "value": 0
                    },
                    {
                        "number": 64,
                        "time": 43.99053553124996,
                        "value": 1
                    },
                    {
                        "number": 64,
                        "time": 44.43297524999996,
                        "value": 0
                    },
                    {
                        "number": 64,
                        "time": 44.54208174374997,
                        "value": 1
                    },
                    {
                        "number": 64,
                        "time": 45.773180999999965,
                        "value": 0
                    },
                    {
                        "number": 64,
                        "time": 45.81012256874997,
                        "value": 1
                    },
                    {
                        "number": 64,
                        "time": 47.010293999999966,
                        "value": 0
                    },
                    {
                        "number": 64,
                        "time": 47.04723556874997,
                        "value": 1
                    },
                    {
                        "number": 64,
                        "time": 48.25427984999997,
                        "value": 0
                    },
                    {
                        "number": 64,
                        "time": 48.292939631249965,
                        "value": 1
                    },
                    {
                        "number": 64,
                        "time": 48.872836349999965,
                        "value": 0
                    },
                    {
                        "number": 64,
                        "time": 48.93297378749997,
                        "value": 1
                    },
                    {
                        "number": 64,
                        "time": 49.49139284999997,
                        "value": 0
                    },
                    {
                        "number": 64,
                        "time": 49.56957151874997,
                        "value": 1
                    },
                    {
                        "number": 64,
                        "time": 50.10994934999997,
                        "value": 0
                    },
                    {
                        "number": 64,
                        "time": 50.14860913124997,
                        "value": 1
                    },
                    {
                        "number": 64,
                        "time": 50.72850584999997,
                        "value": 0
                    },
                    {
                        "number": 64,
                        "time": 50.77919311874997,
                        "value": 1
                    },
                    {
                        "number": 64,
                        "time": 51.34706234999997,
                        "value": 0
                    },
                    {
                        "number": 64,
                        "time": 51.41321353124997,
                        "value": 1
                    },
                    {
                        "number": 64,
                        "time": 51.96561884999998,
                        "value": 0
                    },
                    {
                        "number": 64,
                        "time": 52.04122019999998,
                        "value": 1
                    },
                    {
                        "number": 64,
                        "time": 52.58417534999998,
                        "value": 0
                    },
                    {
                        "number": 64,
                        "time": 52.65290384999998,
                        "value": 1
                    },
                    {
                        "number": 64,
                        "time": 52.88314432499998,
                        "value": 0
                    },
                    {
                        "number": 64,
                        "time": 53.24139163124998,
                        "value": 1
                    },
                    {
                        "number": 64,
                        "time": 53.821288349999996,
                        "value": 0
                    },
                    {
                        "number": 64,
                        "time": 53.8539343875,
                        "value": 1
                    },
                    {
                        "number": 64,
                        "time": 54.43984485000001,
                        "value": 0
                    },
                    {
                        "number": 64,
                        "time": 54.469054462500004,
                        "value": 1
                    },
                    {
                        "number": 64,
                        "time": 55.05840135000002,
                        "value": 0
                    },
                    {
                        "number": 64,
                        "time": 55.097061131250015,
                        "value": 1
                    },
                    {
                        "number": 64,
                        "time": 55.67695785000003,
                        "value": 0
                    },
                    {
                        "number": 64,
                        "time": 55.70960388750003,
                        "value": 1
                    },
                    {
                        "number": 64,
                        "time": 56.29551435000004,
                        "value": 0
                    },
                    {
                        "number": 64,
                        "time": 56.32472396250004,
                        "value": 1
                    },
                    {
                        "number": 64,
                        "time": 56.91407085000005,
                        "value": 0
                    },
                    {
                        "number": 64,
                        "time": 56.94328046250005,
                        "value": 1
                    },
                    {
                        "number": 64,
                        "time": 57.53262735000006,
                        "value": 0
                    },
                    {
                        "number": 64,
                        "time": 57.56183696250006,
                        "value": 1
                    },
                    {
                        "number": 64,
                        "time": 58.150324743750076,
                        "value": 0
                    },
                    {
                        "number": 64,
                        "time": 58.19843469375007,
                        "value": 1
                    },
                    {
                        "number": 64,
                        "time": 58.770599456250075,
                        "value": 0
                    },
                    {
                        "number": 64,
                        "time": 58.82644136250008,
                        "value": 1
                    },
                    {
                        "number": 64,
                        "time": 59.39001506250008,
                        "value": 0
                    },
                    {
                        "number": 64,
                        "time": 59.43039305625008,
                        "value": 1
                    },
                    {
                        "number": 64,
                        "time": 60.00771245625008,
                        "value": 0
                    },
                    {
                        "number": 64,
                        "time": 60.054104193750085,
                        "value": 1
                    },
                    {
                        "number": 64,
                        "time": 60.624550743750085,
                        "value": 0
                    },
                    {
                        "number": 64,
                        "time": 60.67266069375008,
                        "value": 1
                    },
                    {
                        "number": 64,
                        "time": 61.244825456250084,
                        "value": 0
                    },
                    {
                        "number": 64,
                        "time": 61.300667362500086,
                        "value": 1
                    },
                    {
                        "number": 64,
                        "time": 61.86424106250009,
                        "value": 0
                    },
                    {
                        "number": 64,
                        "time": 61.90461905625009,
                        "value": 1
                    },
                    {
                        "number": 64,
                        "time": 62.48193845625009,
                        "value": 0
                    },
                    {
                        "number": 64,
                        "time": 62.528330193750094,
                        "value": 1
                    },
                    {
                        "number": 64,
                        "time": 63.09877674375009,
                        "value": 0
                    },
                    {
                        "number": 64,
                        "time": 63.14688669375009,
                        "value": 1
                    },
                    {
                        "number": 64,
                        "time": 63.71905145625009,
                        "value": 0
                    },
                    {
                        "number": 64,
                        "time": 63.774893362500094,
                        "value": 1
                    },
                    {
                        "number": 64,
                        "time": 64.3384670625001,
                        "value": 0
                    },
                    {
                        "number": 64,
                        "time": 64.3788450562501,
                        "value": 1
                    },
                    {
                        "number": 64,
                        "time": 64.95616445625011,
                        "value": 0
                    },
                    {
                        "number": 64,
                        "time": 65.00255619375011,
                        "value": 1
                    },
                    {
                        "number": 64,
                        "time": 65.5738618500001,
                        "value": 0
                    },
                    {
                        "number": 64,
                        "time": 65.63743571250009,
                        "value": 1
                    },
                    {
                        "number": 64,
                        "time": 66.80410200000011,
                        "value": 0
                    },
                    {
                        "number": 64,
                        "time": 66.84104356875011,
                        "value": 1
                    },
                    {
                        "number": 64,
                        "time": 68.0480878500001,
                        "value": 0
                    },
                    {
                        "number": 64,
                        "time": 68.1116617125001,
                        "value": 1
                    },
                    {
                        "number": 64,
                        "time": 69.27832800000012,
                        "value": 0
                    },
                    {
                        "number": 64,
                        "time": 69.31526956875011,
                        "value": 1
                    },
                    {
                        "number": 64,
                        "time": 70.5223138500001,
                        "value": 0
                    },
                    {
                        "number": 64,
                        "time": 70.5858877125001,
                        "value": 1
                    },
                    {
                        "number": 64,
                        "time": 71.75255400000012,
                        "value": 0
                    },
                    {
                        "number": 64,
                        "time": 71.78949556875011,
                        "value": 1
                    },
                    {
                        "number": 64,
                        "time": 72.9965398500001,
                        "value": 0
                    },
                    {
                        "number": 64,
                        "time": 73.1417288062501,
                        "value": 1
                    },
                    {
                        "number": 64,
                        "time": 73.5231719812501,
                        "value": 0
                    },
                    {
                        "number": 64,
                        "time": 73.76028530625011,
                        "value": 1
                    },
                    {
                        "number": 64,
                        "time": 74.02660824375012,
                        "value": 0
                    },
                    {
                        "number": 64,
                        "time": 74.37884180625012,
                        "value": 1
                    },
                    {
                        "number": 64,
                        "time": 74.67523346250013,
                        "value": 0
                    },
                    {
                        "number": 64,
                        "time": 74.99739830625013,
                        "value": 1
                    },
                    {
                        "number": 64,
                        "time": 75.26973498750014,
                        "value": 0
                    },
                    {
                        "number": 64,
                        "time": 75.61595480625014,
                        "value": 1
                    },
                    {
                        "number": 64,
                        "time": 75.93726054375014,
                        "value": 0
                    },
                    {
                        "number": 64,
                        "time": 76.23451130625014,
                        "value": 1
                    },
                    {
                        "number": 64,
                        "time": 76.55581704375014,
                        "value": 0
                    },
                    {
                        "number": 64,
                        "time": 76.85306780625014,
                        "value": 1
                    },
                    {
                        "number": 64,
                        "time": 77.16835980000015,
                        "value": 0
                    },
                    {
                        "number": 64,
                        "time": 77.47162430625015,
                        "value": 1
                    },
                    {
                        "number": 64,
                        "time": 77.73794724375016,
                        "value": 0
                    },
                    {
                        "number": 64,
                        "time": 78.09018080625016,
                        "value": 1
                    },
                    {
                        "number": 64,
                        "time": 78.42351403125016,
                        "value": 0
                    },
                    {
                        "number": 64,
                        "time": 78.70873730625017,
                        "value": 1
                    },
                    {
                        "number": 64,
                        "time": 78.99911521875018,
                        "value": 0
                    },
                    {
                        "number": 64,
                        "time": 79.32729380625018,
                        "value": 1
                    },
                    {
                        "number": 64,
                        "time": 79.62368546250018,
                        "value": 0
                    },
                    {
                        "number": 64,
                        "time": 79.94585030625018,
                        "value": 1
                    },
                    {
                        "number": 64,
                        "time": 80.23021447500018,
                        "value": 0
                    },
                    {
                        "number": 64,
                        "time": 80.54550646875019,
                        "value": 1
                    },
                    {
                        "number": 64,
                        "time": 80.9278087500002,
                        "value": 0
                    },
                    {
                        "number": 64,
                        "time": 81.0979117875002,
                        "value": 1
                    },
                    {
                        "number": 64,
                        "time": 81.54636525000019,
                        "value": 0
                    },
                    {
                        "number": 64,
                        "time": 84.12368400000021,
                        "value": 1
                    },
                    {
                        "number": 64,
                        "time": 84.63914775000022,
                        "value": 0
                    },
                    {
                        "number": 64,
                        "time": 84.80925078750022,
                        "value": 1
                    },
                    {
                        "number": 64,
                        "time": 85.25770425000022,
                        "value": 0
                    },
                    {
                        "number": 64,
                        "time": 87.83502300000023,
                        "value": 1
                    },
                    {
                        "number": 64,
                        "time": 88.35048675000024,
                        "value": 0
                    },
                    {
                        "number": 64,
                        "time": 89.07213600000026,
                        "value": 1
                    },
                    {
                        "number": 64,
                        "time": 89.58759975000027,
                        "value": 0
                    },
                    {
                        "number": 64,
                        "time": 90.32385380625028,
                        "value": 1
                    },
                    {
                        "number": 64,
                        "time": 90.74653408125029,
                        "value": 0
                    },
                    {
                        "number": 64,
                        "time": 90.9424103062503,
                        "value": 1
                    },
                    {
                        "number": 64,
                        "time": 91.3650905812503,
                        "value": 0
                    },
                    {
                        "number": 64,
                        "time": 91.5609668062503,
                        "value": 1
                    },
                    {
                        "number": 64,
                        "time": 91.98364708125031,
                        "value": 0
                    },
                    {
                        "number": 64,
                        "time": 92.17952330625032,
                        "value": 1
                    },
                    {
                        "number": 64,
                        "time": 92.60220358125032,
                        "value": 0
                    },
                    {
                        "number": 64,
                        "time": 92.78347500000032,
                        "value": 1
                    },
                    {
                        "number": 64,
                        "time": 94.03003816875035,
                        "value": 0
                    },
                    {
                        "number": 64,
                        "time": 94.06955705625035,
                        "value": 1
                    },
                    {
                        "number": 64,
                        "time": 95.25770100000037,
                        "value": 0
                    },
                    {
                        "number": 64,
                        "time": 98.97591285000037,
                        "value": 0
                    },
                    {
                        "number": 64,
                        "time": 99.04807777500037,
                        "value": 1
                    },
                    {
                        "number": 64,
                        "time": 99.59446935000035,
                        "value": 0
                    },
                    {
                        "number": 64,
                        "time": 99.66663427500035,
                        "value": 1
                    },
                    {
                        "number": 64,
                        "time": 100.21302585000034,
                        "value": 0
                    },
                    {
                        "number": 64,
                        "time": 100.28175435000034,
                        "value": 1
                    },
                    {
                        "number": 64,
                        "time": 100.83158235000033,
                        "value": 0
                    },
                    {
                        "number": 64,
                        "time": 100.92178850625034,
                        "value": 1
                    },
                    {
                        "number": 64,
                        "time": 101.45013885000033,
                        "value": 0
                    },
                    {
                        "number": 64,
                        "time": 101.52230377500032,
                        "value": 1
                    },
                    {
                        "number": 64,
                        "time": 102.06869535000031,
                        "value": 0
                    },
                    {
                        "number": 64,
                        "time": 102.13484653125032,
                        "value": 1
                    },
                    {
                        "number": 64,
                        "time": 102.68725185000031,
                        "value": 0
                    },
                    {
                        "number": 64,
                        "time": 102.74395286250031,
                        "value": 1
                    },
                    {
                        "number": 64,
                        "time": 103.30580835000029,
                        "value": 0
                    },
                    {
                        "number": 64,
                        "time": 103.3874234437503,
                        "value": 1
                    },
                    {
                        "number": 64,
                        "time": 103.6082137500003,
                        "value": 0
                    },
                    {
                        "number": 64,
                        "time": 103.9630246312503,
                        "value": 1
                    },
                    {
                        "number": 64,
                        "time": 104.54292135000031,
                        "value": 0
                    },
                    {
                        "number": 64,
                        "time": 104.57556738750031,
                        "value": 1
                    },
                    {
                        "number": 64,
                        "time": 105.16147785000032,
                        "value": 0
                    },
                    {
                        "number": 64,
                        "time": 105.19068746250032,
                        "value": 1
                    },
                    {
                        "number": 64,
                        "time": 105.78003435000032,
                        "value": 0
                    },
                    {
                        "number": 64,
                        "time": 105.81869413125033,
                        "value": 1
                    },
                    {
                        "number": 64,
                        "time": 106.39859085000033,
                        "value": 0
                    },
                    {
                        "number": 64,
                        "time": 106.43123688750033,
                        "value": 1
                    },
                    {
                        "number": 64,
                        "time": 107.01714735000034,
                        "value": 0
                    },
                    {
                        "number": 64,
                        "time": 107.04635696250034,
                        "value": 1
                    },
                    {
                        "number": 64,
                        "time": 107.63570385000034,
                        "value": 0
                    },
                    {
                        "number": 64,
                        "time": 107.66491346250034,
                        "value": 1
                    },
                    {
                        "number": 64,
                        "time": 108.25426035000034,
                        "value": 0
                    },
                    {
                        "number": 64,
                        "time": 108.28346996250033,
                        "value": 1
                    },
                    {
                        "number": 64,
                        "time": 108.86594400000034,
                        "value": 0
                    },
                    {
                        "number": 64,
                        "time": 115.68209298750033,
                        "value": 1
                    },
                    {
                        "number": 64,
                        "time": 116.07642275625032,
                        "value": 0
                    },
                    {
                        "number": 64,
                        "time": 116.91920598750033,
                        "value": 1
                    },
                    {
                        "number": 64,
                        "time": 117.31353575625033,
                        "value": 0
                    },
                    {
                        "number": 64,
                        "time": 118.15631898750034,
                        "value": 1
                    },
                    {
                        "number": 64,
                        "time": 118.56783088125034,
                        "value": 0
                    },
                    {
                        "number": 64,
                        "time": 119.39343198750035,
                        "value": 1
                    },
                    {
                        "number": 64,
                        "time": 119.79978924375035,
                        "value": 0
                    },
                    {
                        "number": 64,
                        "time": 123.10477098750036,
                        "value": 1
                    },
                    {
                        "number": 64,
                        "time": 123.48707326875035,
                        "value": 0
                    },
                    {
                        "number": 64,
                        "time": 124.34188398750035,
                        "value": 1
                    },
                    {
                        "number": 64,
                        "time": 124.75425498750036,
                        "value": 0
                    },
                    {
                        "number": 64,
                        "time": 125.57899698750036,
                        "value": 1
                    },
                    {
                        "number": 64,
                        "time": 125.97418586250036,
                        "value": 0
                    },
                    {
                        "number": 64,
                        "time": 126.81610998750037,
                        "value": 1
                    },
                    {
                        "number": 64,
                        "time": 127.21645350000037,
                        "value": 0
                    },
                    {
                        "number": 64,
                        "time": 134.26627938750048,
                        "value": 1
                    },
                    {
                        "number": 64,
                        "time": 134.48449237500046,
                        "value": 0
                    },
                    {
                        "number": 64,
                        "time": 136.7405053875005,
                        "value": 1
                    },
                    {
                        "number": 64,
                        "time": 136.97074586250048,
                        "value": 0
                    },
                    {
                        "number": 64,
                        "time": 146.0480625000005,
                        "value": 1
                    },
                    {
                        "number": 64,
                        "time": 146.60734066875048,
                        "value": 0
                    },
                    {
                        "number": 64,
                        "time": 146.72417911875047,
                        "value": 1
                    },
                    {
                        "number": 64,
                        "time": 147.22503806250046,
                        "value": 0
                    },
                    {
                        "number": 64,
                        "time": 147.30837136875047,
                        "value": 1
                    },
                    {
                        "number": 64,
                        "time": 147.84359456250047,
                        "value": 0
                    },
                    {
                        "number": 64,
                        "time": 147.97246050000047,
                        "value": 1
                    },
                    {
                        "number": 64,
                        "time": 148.46215106250045,
                        "value": 0
                    },
                    {
                        "number": 64,
                        "time": 148.60218538125045,
                        "value": 1
                    },
                    {
                        "number": 64,
                        "time": 149.08070756250046,
                        "value": 0
                    },
                    {
                        "number": 64,
                        "time": 149.20957350000046,
                        "value": 1
                    },
                    {
                        "number": 64,
                        "time": 149.69754585000047,
                        "value": 0
                    },
                    {
                        "number": 64,
                        "time": 149.81696161875047,
                        "value": 1
                    },
                    {
                        "number": 64,
                        "time": 150.30922950000047,
                        "value": 0
                    },
                    {
                        "number": 64,
                        "time": 151.55836998750047,
                        "value": 1
                    },
                    {
                        "number": 64,
                        "time": 151.95269975625047,
                        "value": 0
                    },
                    {
                        "number": 64,
                        "time": 152.79548298750046,
                        "value": 1
                    },
                    {
                        "number": 64,
                        "time": 153.17778526875045,
                        "value": 0
                    },
                    {
                        "number": 64,
                        "time": 154.03259598750046,
                        "value": 1
                    },
                    {
                        "number": 64,
                        "time": 154.41661648125046,
                        "value": 0
                    },
                    {
                        "number": 64,
                        "time": 155.26970898750045,
                        "value": 1
                    },
                    {
                        "number": 64,
                        "time": 155.67606624375045,
                        "value": 0
                    },
                    {
                        "number": 64,
                        "time": 158.9810479875005,
                        "value": 1
                    },
                    {
                        "number": 64,
                        "time": 159.36936401250048,
                        "value": 0
                    },
                    {
                        "number": 64,
                        "time": 160.21816098750048,
                        "value": 1
                    },
                    {
                        "number": 64,
                        "time": 160.60647701250048,
                        "value": 0
                    },
                    {
                        "number": 64,
                        "time": 161.06008511250047,
                        "value": 1
                    },
                    {
                        "number": 64,
                        "time": 161.44324650000047,
                        "value": 0
                    },
                    {
                        "number": 64,
                        "time": 161.48190628125047,
                        "value": 1
                    },
                    {
                        "number": 64,
                        "time": 161.86163124375048,
                        "value": 0
                    },
                    {
                        "number": 64,
                        "time": 162.40544550000047,
                        "value": 1
                    },
                    {
                        "number": 64,
                        "time": 162.68035950000046,
                        "value": 0
                    },
                    {
                        "number": 64,
                        "time": 162.74135604375047,
                        "value": 1
                    },
                    {
                        "number": 64,
                        "time": 163.08156211875047,
                        "value": 0
                    },
                    {
                        "number": 64,
                        "time": 163.55321145000048,
                        "value": 1
                    },
                    {
                        "number": 64,
                        "time": 163.91747250000049,
                        "value": 0
                    },
                    {
                        "number": 64,
                        "time": 164.15974046250048,
                        "value": 1
                    },
                    {
                        "number": 64,
                        "time": 164.53602900000047,
                        "value": 0
                    },
                    {
                        "number": 64,
                        "time": 164.77657875000048,
                        "value": 1
                    },
                    {
                        "number": 64,
                        "time": 165.15888103125047,
                        "value": 0
                    },
                    {
                        "number": 64,
                        "time": 165.79719697500047,
                        "value": 1
                    },
                    {
                        "number": 64,
                        "time": 167.01025500000048,
                        "value": 0
                    },
                    {
                        "number": 64,
                        "time": 167.05836495000048,
                        "value": 1
                    },
                    {
                        "number": 64,
                        "time": 168.24736800000048,
                        "value": 0
                    },
                    {
                        "number": 64,
                        "time": 168.30235080000048,
                        "value": 1
                    },
                    {
                        "number": 64,
                        "time": 169.4844810000005,
                        "value": 0
                    },
                    {
                        "number": 64,
                        "time": 169.5660960937505,
                        "value": 1
                    },
                    {
                        "number": 64,
                        "time": 170.72159400000052,
                        "value": 0
                    },
                    {
                        "number": 64,
                        "time": 170.8066455187505,
                        "value": 1
                    },
                    {
                        "number": 64,
                        "time": 171.23705775000053,
                        "value": 0
                    },
                    {
                        "number": 64,
                        "time": 171.40716078750054,
                        "value": 1
                    },
                    {
                        "number": 64,
                        "time": 171.85561425000054,
                        "value": 0
                    },
                    {
                        "number": 64,
                        "time": 174.43293300000053,
                        "value": 1
                    },
                    {
                        "number": 64,
                        "time": 174.94839675000054,
                        "value": 0
                    },
                    {
                        "number": 64,
                        "time": 175.11849978750055,
                        "value": 1
                    },
                    {
                        "number": 64,
                        "time": 175.56695325000055,
                        "value": 0
                    },
                    {
                        "number": 64,
                        "time": 178.14427200000054,
                        "value": 1
                    },
                    {
                        "number": 64,
                        "time": 178.65973575000055,
                        "value": 0
                    },
                    {
                        "number": 64,
                        "time": 178.82983878750056,
                        "value": 1
                    },
                    {
                        "number": 64,
                        "time": 179.27829225000056,
                        "value": 0
                    },
                    {
                        "number": 64,
                        "time": 180.61849800000059,
                        "value": 1
                    },
                    {
                        "number": 64,
                        "time": 181.1339617500006,
                        "value": 0
                    },
                    {
                        "number": 64,
                        "time": 181.3040647875006,
                        "value": 1
                    },
                    {
                        "number": 64,
                        "time": 181.7525182500006,
                        "value": 0
                    },
                    {
                        "number": 64,
                        "time": 183.09272400000063,
                        "value": 1
                    },
                    {
                        "number": 64,
                        "time": 183.60818775000064,
                        "value": 0
                    },
                    {
                        "number": 64,
                        "time": 184.32983700000065,
                        "value": 1
                    },
                    {
                        "number": 64,
                        "time": 184.84530075000066,
                        "value": 0
                    },
                    {
                        "number": 64,
                        "time": 185.57640016875067,
                        "value": 0
                    },
                    {
                        "number": 64,
                        "time": 185.61591905625068,
                        "value": 1
                    },
                    {
                        "number": 64,
                        "time": 186.8135131687507,
                        "value": 0
                    },
                    {
                        "number": 64,
                        "time": 186.8530320562507,
                        "value": 1
                    },
                    {
                        "number": 64,
                        "time": 188.04117600000072,
                        "value": 0
                    },
                    {
                        "number": 64,
                        "time": 189.27828900000074,
                        "value": 1
                    },
                    {
                        "number": 64,
                        "time": 189.52055696250073,
                        "value": 0
                    },
                    {
                        "number": 64,
                        "time": 189.95182830000076,
                        "value": 1
                    },
                    {
                        "number": 64,
                        "time": 190.12708597500077,
                        "value": 0
                    },
                    {
                        "number": 64,
                        "time": 190.57038480000077,
                        "value": 1
                    },
                    {
                        "number": 64,
                        "time": 190.74564247500078,
                        "value": 0
                    },
                    {
                        "number": 64,
                        "time": 191.18894130000078,
                        "value": 1
                    },
                    {
                        "number": 64,
                        "time": 191.3641989750008,
                        "value": 0
                    },
                    {
                        "number": 64,
                        "time": 191.8074978000008,
                        "value": 1
                    },
                    {
                        "number": 64,
                        "time": 191.9827554750008,
                        "value": 0
                    },
                    {
                        "number": 64,
                        "time": 192.4260543000008,
                        "value": 1
                    },
                    {
                        "number": 64,
                        "time": 192.6013119750008,
                        "value": 0
                    },
                    {
                        "number": 64,
                        "time": 193.0446108000008,
                        "value": 1
                    },
                    {
                        "number": 64,
                        "time": 193.21986847500082,
                        "value": 0
                    },
                    {
                        "number": 64,
                        "time": 193.66316730000082,
                        "value": 1
                    },
                    {
                        "number": 64,
                        "time": 193.83842497500083,
                        "value": 0
                    },
                    {
                        "number": 64,
                        "time": 194.28172380000083,
                        "value": 1
                    },
                    {
                        "number": 64,
                        "time": 194.45698147500084,
                        "value": 0
                    },
                    {
                        "number": 64,
                        "time": 194.90028030000084,
                        "value": 1
                    },
                    {
                        "number": 64,
                        "time": 195.07553797500086,
                        "value": 0
                    },
                    {
                        "number": 64,
                        "time": 195.51883680000086,
                        "value": 1
                    },
                    {
                        "number": 64,
                        "time": 195.69409447500087,
                        "value": 0
                    },
                    {
                        "number": 64,
                        "time": 196.13739330000087,
                        "value": 1
                    },
                    {
                        "number": 64,
                        "time": 196.31265097500088,
                        "value": 0
                    },
                    {
                        "number": 64,
                        "time": 196.75594980000088,
                        "value": 1
                    },
                    {
                        "number": 64,
                        "time": 196.9312074750009,
                        "value": 0
                    },
                    {
                        "number": 64,
                        "time": 197.31952350000088,
                        "value": 0
                    },
                    {
                        "number": 64,
                        "time": 197.35646506875088,
                        "value": 1
                    },
                    {
                        "number": 64,
                        "time": 198.55663650000088,
                        "value": 0
                    },
                    {
                        "number": 64,
                        "time": 198.59357806875087,
                        "value": 1
                    },
                    {
                        "number": 64,
                        "time": 199.80062235000088,
                        "value": 0
                    },
                    {
                        "number": 64,
                        "time": 199.83069106875087,
                        "value": 1
                    },
                    {
                        "number": 64,
                        "time": 201.03773535000087,
                        "value": 0
                    },
                    {
                        "number": 64,
                        "time": 201.06780406875086,
                        "value": 1
                    },
                    {
                        "number": 64,
                        "time": 202.27484835000087,
                        "value": 0
                    },
                    {
                        "number": 64,
                        "time": 202.30491706875085,
                        "value": 1
                    },
                    {
                        "number": 64,
                        "time": 203.51196135000086,
                        "value": 0
                    },
                    {
                        "number": 64,
                        "time": 203.55663487500087,
                        "value": 1
                    },
                    {
                        "number": 64,
                        "time": 204.74907435000088,
                        "value": 0
                    },
                    {
                        "number": 64,
                        "time": 204.77914306875087,
                        "value": 1
                    },
                    {
                        "number": 64,
                        "time": 205.98618735000088,
                        "value": 0
                    },
                    {
                        "number": 64,
                        "time": 206.01625606875086,
                        "value": 1
                    },
                    {
                        "number": 64,
                        "time": 207.22330035000087,
                        "value": 0
                    },
                    {
                        "number": 64,
                        "time": 207.25336906875086,
                        "value": 1
                    },
                    {
                        "number": 64,
                        "time": 207.84185685000088,
                        "value": 0
                    },
                    {
                        "number": 64,
                        "time": 207.87192556875087,
                        "value": 1
                    },
                    {
                        "number": 64,
                        "time": 208.4604133500009,
                        "value": 0
                    },
                    {
                        "number": 64,
                        "time": 208.49048206875088,
                        "value": 1
                    },
                    {
                        "number": 64,
                        "time": 209.0789698500009,
                        "value": 0
                    },
                    {
                        "number": 64,
                        "time": 209.1090385687509,
                        "value": 1
                    },
                    {
                        "number": 64,
                        "time": 209.6975263500009,
                        "value": 0
                    },
                    {
                        "number": 64,
                        "time": 209.7275950687509,
                        "value": 1
                    },
                    {
                        "number": 64,
                        "time": 210.31608285000092,
                        "value": 0
                    },
                    {
                        "number": 64,
                        "time": 210.3461515687509,
                        "value": 1
                    },
                    {
                        "number": 64,
                        "time": 210.92776650000093,
                        "value": 0
                    },
                    {
                        "number": 64,
                        "time": 210.98189019375093,
                        "value": 1
                    },
                    {
                        "number": 64,
                        "time": 212.16487950000095,
                        "value": 0
                    },
                    {
                        "number": 64,
                        "time": 212.21900319375095,
                        "value": 1
                    },
                    {
                        "number": 64,
                        "time": 213.40199250000097,
                        "value": 0
                    },
                    {
                        "number": 64,
                        "time": 213.45611619375097,
                        "value": 1
                    },
                    {
                        "number": 64,
                        "time": 214.639105500001,
                        "value": 0
                    },
                    {
                        "number": 64,
                        "time": 214.693229193751,
                        "value": 1
                    },
                    {
                        "number": 64,
                        "time": 215.88738688125102,
                        "value": 0
                    },
                    {
                        "number": 64,
                        "time": 215.97931125000102,
                        "value": 1
                    },
                    {
                        "number": 64,
                        "time": 216.334122131251,
                        "value": 0
                    },
                    {
                        "number": 64,
                        "time": 217.14683664375102,
                        "value": 1
                    },
                    {
                        "number": 64,
                        "time": 217.44580561875102,
                        "value": 0
                    }
                ]
            },
            "id": 2,
            "name": "Piano left",
            "instrumentNumber": 0,
            "instrument": "acoustic grand piano",
            "instrumentFamily": "piano",
            "channelNumber": 0,
            "isPercussion": false
        },
        {
            "startTime": 0,
            "duration": 0,
            "length": 0,
            "notes": [],
            "controlChanges": {},
            "id": 3,
            "name": "Schubert Wandererfantasie D760  3. Satz"
        },
        {
            "startTime": 0,
            "duration": 0,
            "length": 0,
            "notes": [],
            "controlChanges": {},
            "id": 4,
            "name": "Copyright  2004 by Bernd Krger"
        },
        {
            "startTime": 0,
            "duration": 0,
            "length": 0,
            "notes": [],
            "controlChanges": {},
            "id": 5,
            "name": "http://www.piano-midi.de"
        },
        {
            "startTime": 0,
            "duration": 0,
            "length": 0,
            "notes": [],
            "controlChanges": {},
            "id": 6,
            "name": "Edition:  2014-03-15"
        },
        {
            "startTime": 0,
            "duration": 0,
            "length": 0,
            "notes": [],
            "controlChanges": {},
            "id": 7,
            "name": "Spur 7"
        }
    ]
}