{
    "header": {
        "PPQ": 480,
        "timeSignature": [
            4,
            4
        ],
        "bpm": 48.50001576250512,
        "name": "Impromptu D 935 No. 1"
    },
    "startTime": 0,
    "duration": 1229.6903220000286,
    "tracks": [
        {
            "startTime": 0,
            "duration": 0,
            "length": 0,
            "notes": [],
            "controlChanges": {},
            "id": 0,
            "name": "Impromptu D 935 No. 1"
        },
        {
            "startTime": 0,
            "duration": 1229.6903220000208,
            "length": 2854,
            "notes": [
                {
                    "name": "C4",
                    "midi": 60,
                    "time": 0,
                    "velocity": 0.4330708661417323,
                    "duration": 0.10309275000000001
                },
                {
                    "name": "F4",
                    "midi": 65,
                    "time": 0.10309275000000001,
                    "velocity": 0.47244094488188976,
                    "duration": 0.10309275000000001
                },
                {
                    "name": "G#4",
                    "midi": 68,
                    "time": 0.20618550000000002,
                    "velocity": 0.5196850393700787,
                    "duration": 0.10309275000000001
                },
                {
                    "name": "C5",
                    "midi": 72,
                    "time": 0.30927825000000003,
                    "velocity": 0.5905511811023622,
                    "duration": 1.8556695000000005
                },
                {
                    "name": "A#4",
                    "midi": 70,
                    "time": 2.1649477500000005,
                    "velocity": 0.44881889763779526,
                    "duration": 0.3092782500000002
                },
                {
                    "name": "G#4",
                    "midi": 68,
                    "time": 2.4742260000000007,
                    "velocity": 0.5275590551181102,
                    "duration": 0.9278347500000002
                },
                {
                    "name": "A#4",
                    "midi": 70,
                    "time": 3.402060750000001,
                    "velocity": 0.4566929133858268,
                    "duration": 0.3092782500000002
                },
                {
                    "name": "G4",
                    "midi": 67,
                    "time": 3.711339000000001,
                    "velocity": 0.5354330708661418,
                    "duration": 0.9278347500000002
                },
                {
                    "name": "G#4",
                    "midi": 68,
                    "time": 4.639173750000001,
                    "velocity": 0.4015748031496063,
                    "duration": 0.3092782500000002
                },
                {
                    "name": "F4",
                    "midi": 65,
                    "time": 4.948452000000001,
                    "velocity": 0.47244094488188976,
                    "duration": 0.9278347500000006
                },
                {
                    "name": "F#4",
                    "midi": 66,
                    "time": 5.876286750000002,
                    "velocity": 0.4015748031496063,
                    "duration": 0.3092782500000002
                },
                {
                    "name": "D#4",
                    "midi": 63,
                    "time": 6.185565000000002,
                    "velocity": 0.4881889763779528,
                    "duration": 0.9278347500000006
                },
                {
                    "name": "F4",
                    "midi": 65,
                    "time": 7.113399750000003,
                    "velocity": 0.4094488188976378,
                    "duration": 0.3092782500000002
                },
                {
                    "name": "C#4",
                    "midi": 61,
                    "time": 7.422678000000003,
                    "velocity": 0.47244094488188976,
                    "duration": 0.9278347500000006
                },
                {
                    "name": "D#4",
                    "midi": 63,
                    "time": 8.350512750000004,
                    "velocity": 0.4015748031496063,
                    "duration": 0.3092782500000002
                },
                {
                    "name": "C4",
                    "midi": 60,
                    "time": 8.659791000000004,
                    "velocity": 0.47244094488188976,
                    "duration": 0.9278347500000006
                },
                {
                    "name": "C#4",
                    "midi": 61,
                    "time": 9.587625750000004,
                    "velocity": 0.4015748031496063,
                    "duration": 0.3092782500000002
                },
                {
                    "name": "A#3",
                    "midi": 58,
                    "time": 9.896904000000005,
                    "velocity": 0.47244094488188976,
                    "duration": 0.9278347500000006
                },
                {
                    "name": "C4",
                    "midi": 60,
                    "time": 10.824738750000005,
                    "velocity": 0.41732283464566927,
                    "duration": 0.3092782500000002
                },
                {
                    "name": "G#3",
                    "midi": 56,
                    "time": 11.134017000000005,
                    "velocity": 0.49606299212598426,
                    "duration": 0.9278347500000006
                },
                {
                    "name": "A#3",
                    "midi": 58,
                    "time": 12.061851750000006,
                    "velocity": 0.47244094488188976,
                    "duration": 0.3092782500000002
                },
                {
                    "name": "F#3",
                    "midi": 54,
                    "time": 12.371130000000006,
                    "velocity": 0.5354330708661418,
                    "duration": 0.9278347500000006
                },
                {
                    "name": "G#3",
                    "midi": 56,
                    "time": 13.298964750000007,
                    "velocity": 0.49606299212598426,
                    "duration": 0.3092782500000002
                },
                {
                    "name": "F3",
                    "midi": 53,
                    "time": 13.608243000000007,
                    "velocity": 0.5669291338582677,
                    "duration": 0.9278347500000006
                },
                {
                    "name": "G3",
                    "midi": 55,
                    "time": 14.536077750000008,
                    "velocity": 0.5275590551181102,
                    "duration": 0.3092782500000002
                },
                {
                    "name": "E3",
                    "midi": 52,
                    "time": 14.845356000000008,
                    "velocity": 0.6141732283464567,
                    "duration": 0.6185565000000004
                },
                {
                    "name": "C#5",
                    "midi": 73,
                    "time": 16.082469000000007,
                    "velocity": 0.6220472440944882,
                    "duration": 0.6185565000000004
                },
                {
                    "name": "G4",
                    "midi": 67,
                    "time": 16.082469000000007,
                    "velocity": 0.5196850393700787,
                    "duration": 0.6185565000000004
                },
                {
                    "name": "A#4",
                    "midi": 70,
                    "time": 16.082469000000007,
                    "velocity": 0.5196850393700787,
                    "duration": 0.6185565000000004
                },
                {
                    "name": "C5",
                    "midi": 72,
                    "time": 18.55669500000001,
                    "velocity": 0.3228346456692913,
                    "duration": 0.10309274999999829
                },
                {
                    "name": "C#5",
                    "midi": 73,
                    "time": 18.659787750000007,
                    "velocity": 0.3228346456692913,
                    "duration": 0.10309274999999829
                },
                {
                    "name": "D#5",
                    "midi": 75,
                    "time": 18.762880500000005,
                    "velocity": 0.3228346456692913,
                    "duration": 0.10309274999999829
                },
                {
                    "name": "C#5",
                    "midi": 73,
                    "time": 18.865973250000003,
                    "velocity": 0.3700787401574803,
                    "duration": 0.6185565000000004
                },
                {
                    "name": "C5",
                    "midi": 72,
                    "time": 19.484529750000004,
                    "velocity": 0.3228346456692913,
                    "duration": 0.3092782499999984
                },
                {
                    "name": "C5",
                    "midi": 72,
                    "time": 19.793808000000002,
                    "velocity": 0.3700787401574803,
                    "duration": 1.2371130000000008
                },
                {
                    "name": "F5",
                    "midi": 77,
                    "time": 21.030921000000003,
                    "velocity": 0.41732283464566927,
                    "duration": 1.649484000000001
                },
                {
                    "name": "G4",
                    "midi": 67,
                    "time": 22.680405000000004,
                    "velocity": 0.30708661417322836,
                    "duration": 0.41237100000000027
                },
                {
                    "name": "A#4",
                    "midi": 70,
                    "time": 23.092776000000004,
                    "velocity": 0.30708661417322836,
                    "duration": 0.41237100000000027
                },
                {
                    "name": "C#5",
                    "midi": 73,
                    "time": 23.505147000000004,
                    "velocity": 0.3464566929133858,
                    "duration": 0.41237100000000027
                },
                {
                    "name": "A#4",
                    "midi": 70,
                    "time": 23.917518000000005,
                    "velocity": 0.2992125984251969,
                    "duration": 0.41237100000000027
                },
                {
                    "name": "G4",
                    "midi": 67,
                    "time": 24.329889000000005,
                    "velocity": 0.29133858267716534,
                    "duration": 0.41237100000000027
                },
                {
                    "name": "F4",
                    "midi": 65,
                    "time": 24.742260000000005,
                    "velocity": 0.36220472440944884,
                    "duration": 2.4742260000000016
                },
                {
                    "name": "E4",
                    "midi": 64,
                    "time": 27.216486000000007,
                    "velocity": 0.3228346456692913,
                    "duration": 0.6185565000000004
                },
                {
                    "name": "F#5",
                    "midi": 78,
                    "time": 27.835042500000007,
                    "velocity": 0.4015748031496063,
                    "duration": 0.3092782499999984
                },
                {
                    "name": "G5",
                    "midi": 79,
                    "time": 28.144320750000006,
                    "velocity": 0.41732283464566927,
                    "duration": 0.3092782499999984
                },
                {
                    "name": "G#5",
                    "midi": 80,
                    "time": 28.453599000000004,
                    "velocity": 0.4409448818897638,
                    "duration": 0.3092782499999984
                },
                {
                    "name": "A5",
                    "midi": 81,
                    "time": 28.762877250000003,
                    "velocity": 0.4566929133858268,
                    "duration": 0.3092782499999984
                },
                {
                    "name": "A#5",
                    "midi": 82,
                    "time": 29.0721555,
                    "velocity": 0.48031496062992124,
                    "duration": 0.3092782499999984
                },
                {
                    "name": "B5",
                    "midi": 83,
                    "time": 29.38143375,
                    "velocity": 0.49606299212598426,
                    "duration": 0.3092782499999984
                },
                {
                    "name": "C5",
                    "midi": 72,
                    "time": 29.690711999999998,
                    "velocity": 0.4330708661417323,
                    "duration": 0.10309274999999829
                },
                {
                    "name": "F5",
                    "midi": 77,
                    "time": 29.793804749999996,
                    "velocity": 0.47244094488188976,
                    "duration": 0.10309274999999829
                },
                {
                    "name": "G#5",
                    "midi": 80,
                    "time": 29.896897499999994,
                    "velocity": 0.5196850393700787,
                    "duration": 0.10309274999999829
                },
                {
                    "name": "C6",
                    "midi": 84,
                    "time": 29.999990249999993,
                    "velocity": 0.5984251968503937,
                    "duration": 1.8556695000000012
                },
                {
                    "name": "A#5",
                    "midi": 82,
                    "time": 31.855659749999994,
                    "velocity": 0.3700787401574803,
                    "duration": 0.3092782499999984
                },
                {
                    "name": "G#5",
                    "midi": 80,
                    "time": 32.16493799999999,
                    "velocity": 0.47244094488188976,
                    "duration": 0.3092782499999984
                },
                {
                    "name": "A#5",
                    "midi": 82,
                    "time": 32.47421624999999,
                    "velocity": 0.3937007874015748,
                    "duration": 0.15463912500000276
                },
                {
                    "name": "G#5",
                    "midi": 80,
                    "time": 32.62885537499999,
                    "velocity": 0.3937007874015748,
                    "duration": 0.15463912500000276
                },
                {
                    "name": "G5",
                    "midi": 79,
                    "time": 32.783494499999996,
                    "velocity": 0.36220472440944884,
                    "duration": 0.15463912500000276
                },
                {
                    "name": "G#5",
                    "midi": 80,
                    "time": 32.938133625,
                    "velocity": 0.36220472440944884,
                    "duration": 0.15463912500000276
                },
                {
                    "name": "A#5",
                    "midi": 82,
                    "time": 33.09277275,
                    "velocity": 0.4251968503937008,
                    "duration": 0.3092782499999984
                },
                {
                    "name": "G5",
                    "midi": 79,
                    "time": 33.402051,
                    "velocity": 0.47244094488188976,
                    "duration": 0.3092782499999984
                },
                {
                    "name": "G#5",
                    "midi": 80,
                    "time": 33.71132925,
                    "velocity": 0.3858267716535433,
                    "duration": 0.15463912500000276
                },
                {
                    "name": "G5",
                    "midi": 79,
                    "time": 33.865968375,
                    "velocity": 0.3858267716535433,
                    "duration": 0.15463912500000276
                },
                {
                    "name": "F5",
                    "midi": 77,
                    "time": 34.020607500000004,
                    "velocity": 0.3543307086614173,
                    "duration": 0.15463912500000276
                },
                {
                    "name": "G5",
                    "midi": 79,
                    "time": 34.17524662500001,
                    "velocity": 0.3543307086614173,
                    "duration": 0.15463912500000276
                },
                {
                    "name": "G#5",
                    "midi": 80,
                    "time": 34.32988575000001,
                    "velocity": 0.4015748031496063,
                    "duration": 0.3092782499999984
                },
                {
                    "name": "F5",
                    "midi": 77,
                    "time": 34.63916400000001,
                    "velocity": 0.47244094488188976,
                    "duration": 0.3092782499999984
                },
                {
                    "name": "G5",
                    "midi": 79,
                    "time": 34.94844225000001,
                    "velocity": 0.3779527559055118,
                    "duration": 0.15463912500000276
                },
                {
                    "name": "F5",
                    "midi": 77,
                    "time": 35.10308137500001,
                    "velocity": 0.3779527559055118,
                    "duration": 0.15463912500000276
                },
                {
                    "name": "E5",
                    "midi": 76,
                    "time": 35.25772050000001,
                    "velocity": 0.33858267716535434,
                    "duration": 0.15463912500000276
                },
                {
                    "name": "F5",
                    "midi": 77,
                    "time": 35.412359625000015,
                    "velocity": 0.33858267716535434,
                    "duration": 0.15463912500000276
                },
                {
                    "name": "F#5",
                    "midi": 78,
                    "time": 35.56699875000002,
                    "velocity": 0.3858267716535433,
                    "duration": 0.3092782499999984
                },
                {
                    "name": "D#5",
                    "midi": 75,
                    "time": 35.876277000000016,
                    "velocity": 0.4881889763779528,
                    "duration": 0.3092782499999984
                },
                {
                    "name": "F5",
                    "midi": 77,
                    "time": 36.185555250000014,
                    "velocity": 0.3858267716535433,
                    "duration": 0.15463912500000276
                },
                {
                    "name": "D#5",
                    "midi": 75,
                    "time": 36.34019437500002,
                    "velocity": 0.3858267716535433,
                    "duration": 0.15463912500000276
                },
                {
                    "name": "D5",
                    "midi": 74,
                    "time": 36.49483350000002,
                    "velocity": 0.3464566929133858,
                    "duration": 0.15463912500000276
                },
                {
                    "name": "D#5",
                    "midi": 75,
                    "time": 36.64947262500002,
                    "velocity": 0.3464566929133858,
                    "duration": 0.15463912500000276
                },
                {
                    "name": "F5",
                    "midi": 77,
                    "time": 36.804111750000025,
                    "velocity": 0.4094488188976378,
                    "duration": 0.3092782499999984
                },
                {
                    "name": "C#5",
                    "midi": 73,
                    "time": 37.113390000000024,
                    "velocity": 0.47244094488188976,
                    "duration": 0.3092782499999984
                },
                {
                    "name": "D#5",
                    "midi": 75,
                    "time": 37.42266825000002,
                    "velocity": 0.3858267716535433,
                    "duration": 0.15463912500000276
                },
                {
                    "name": "C#5",
                    "midi": 73,
                    "time": 37.577307375000025,
                    "velocity": 0.3858267716535433,
                    "duration": 0.15463912500000276
                },
                {
                    "name": "C5",
                    "midi": 72,
                    "time": 37.73194650000003,
                    "velocity": 0.3700787401574803,
                    "duration": 0.15463912500000276
                },
                {
                    "name": "C#5",
                    "midi": 73,
                    "time": 37.88658562500003,
                    "velocity": 0.3700787401574803,
                    "duration": 0.15463912500000276
                },
                {
                    "name": "D#5",
                    "midi": 75,
                    "time": 38.04122475000003,
                    "velocity": 0.4015748031496063,
                    "duration": 0.3092782499999984
                },
                {
                    "name": "C5",
                    "midi": 72,
                    "time": 38.35050300000003,
                    "velocity": 0.47244094488188976,
                    "duration": 0.3092782499999984
                },
                {
                    "name": "C#5",
                    "midi": 73,
                    "time": 38.65978125000003,
                    "velocity": 0.3937007874015748,
                    "duration": 0.15463912500000276
                },
                {
                    "name": "C5",
                    "midi": 72,
                    "time": 38.81442037500003,
                    "velocity": 0.3937007874015748,
                    "duration": 0.15463912500000276
                },
                {
                    "name": "B4",
                    "midi": 71,
                    "time": 38.969059500000036,
                    "velocity": 0.3464566929133858,
                    "duration": 0.15463912500000276
                },
                {
                    "name": "C5",
                    "midi": 72,
                    "time": 39.12369862500004,
                    "velocity": 0.3464566929133858,
                    "duration": 0.15463912500000276
                },
                {
                    "name": "C#5",
                    "midi": 73,
                    "time": 39.27833775000004,
                    "velocity": 0.4015748031496063,
                    "duration": 0.3092782499999984
                },
                {
                    "name": "A#4",
                    "midi": 70,
                    "time": 39.58761600000004,
                    "velocity": 0.47244094488188976,
                    "duration": 0.3092782499999984
                },
                {
                    "name": "C#5",
                    "midi": 73,
                    "time": 39.89689425000004,
                    "velocity": 0.4094488188976378,
                    "duration": 0.3092782499999984
                },
                {
                    "name": "A#4",
                    "midi": 70,
                    "time": 40.20617250000004,
                    "velocity": 0.4094488188976378,
                    "duration": 0.3092782499999984
                },
                {
                    "name": "C#5",
                    "midi": 73,
                    "time": 40.515450750000035,
                    "velocity": 0.3779527559055118,
                    "duration": 0.3092782499999984
                },
                {
                    "name": "G#4",
                    "midi": 68,
                    "time": 40.82472900000003,
                    "velocity": 0.49606299212598426,
                    "duration": 0.3092782499999984
                },
                {
                    "name": "C#5",
                    "midi": 73,
                    "time": 41.13400725000003,
                    "velocity": 0.4409448818897638,
                    "duration": 0.3092782499999984
                },
                {
                    "name": "G#4",
                    "midi": 68,
                    "time": 41.44328550000003,
                    "velocity": 0.44881889763779526,
                    "duration": 0.3092782499999984
                },
                {
                    "name": "C#5",
                    "midi": 73,
                    "time": 41.75256375000003,
                    "velocity": 0.4330708661417323,
                    "duration": 0.3092782499999984
                },
                {
                    "name": "F#4",
                    "midi": 66,
                    "time": 42.06184200000003,
                    "velocity": 0.5354330708661418,
                    "duration": 0.3092782499999984
                },
                {
                    "name": "C#5",
                    "midi": 73,
                    "time": 42.371120250000025,
                    "velocity": 0.4881889763779528,
                    "duration": 0.3092782499999984
                },
                {
                    "name": "F#4",
                    "midi": 66,
                    "time": 42.680398500000024,
                    "velocity": 0.49606299212598426,
                    "duration": 0.3092782499999984
                },
                {
                    "name": "C#5",
                    "midi": 73,
                    "time": 42.98967675000002,
                    "velocity": 0.4645669291338583,
                    "duration": 0.3092782499999984
                },
                {
                    "name": "F4",
                    "midi": 65,
                    "time": 43.29895500000002,
                    "velocity": 0.5669291338582677,
                    "duration": 0.3092782499999984
                },
                {
                    "name": "C#5",
                    "midi": 73,
                    "time": 43.60823325000002,
                    "velocity": 0.5118110236220472,
                    "duration": 0.3092782499999984
                },
                {
                    "name": "F4",
                    "midi": 65,
                    "time": 43.91751150000002,
                    "velocity": 0.5275590551181102,
                    "duration": 0.3092782499999984
                },
                {
                    "name": "C#5",
                    "midi": 73,
                    "time": 44.226789750000016,
                    "velocity": 0.5275590551181102,
                    "duration": 0.3092782499999984
                },
                {
                    "name": "E4",
                    "midi": 64,
                    "time": 44.536068000000014,
                    "velocity": 0.7086614173228346,
                    "duration": 0.6185564999999968
                },
                {
                    "name": "A#5",
                    "midi": 82,
                    "time": 45.77318100000001,
                    "velocity": 0.5905511811023622,
                    "duration": 0.6185564999999968
                },
                {
                    "name": "C#6",
                    "midi": 85,
                    "time": 45.77318100000001,
                    "velocity": 0.7086614173228346,
                    "duration": 0.6185564999999968
                },
                {
                    "name": "G5",
                    "midi": 79,
                    "time": 45.77318100000001,
                    "velocity": 0.5905511811023622,
                    "duration": 0.6185564999999968
                },
                {
                    "name": "C5",
                    "midi": 72,
                    "time": 48.247407,
                    "velocity": 0.3228346456692913,
                    "duration": 0.10309275000000184
                },
                {
                    "name": "C#5",
                    "midi": 73,
                    "time": 48.350499750000004,
                    "velocity": 0.3228346456692913,
                    "duration": 0.10309275000000184
                },
                {
                    "name": "D#5",
                    "midi": 75,
                    "time": 48.453592500000006,
                    "velocity": 0.3228346456692913,
                    "duration": 0.10309275000000184
                },
                {
                    "name": "C#5",
                    "midi": 73,
                    "time": 48.55668525000001,
                    "velocity": 0.3700787401574803,
                    "duration": 0.6185564999999968
                },
                {
                    "name": "C5",
                    "midi": 72,
                    "time": 49.175241750000005,
                    "velocity": 0.3228346456692913,
                    "duration": 0.3092782499999984
                },
                {
                    "name": "C5",
                    "midi": 72,
                    "time": 49.48452,
                    "velocity": 0.36220472440944884,
                    "duration": 0.41237100000000027
                },
                {
                    "name": "G#5",
                    "midi": 80,
                    "time": 49.896891000000004,
                    "velocity": 0.41732283464566927,
                    "duration": 0.41237100000000027
                },
                {
                    "name": "G5",
                    "midi": 79,
                    "time": 50.309262000000004,
                    "velocity": 0.3700787401574803,
                    "duration": 0.41237100000000027
                },
                {
                    "name": "F5",
                    "midi": 77,
                    "time": 50.721633000000004,
                    "velocity": 0.3700787401574803,
                    "duration": 0.41237100000000027
                },
                {
                    "name": "C5",
                    "midi": 72,
                    "time": 51.134004000000004,
                    "velocity": 0.33858267716535434,
                    "duration": 0.41237100000000027
                },
                {
                    "name": "G#4",
                    "midi": 68,
                    "time": 51.546375000000005,
                    "velocity": 0.2992125984251969,
                    "duration": 0.41237100000000027
                },
                {
                    "name": "G4",
                    "midi": 67,
                    "time": 51.958746000000005,
                    "velocity": 0.3700787401574803,
                    "duration": 0.41237100000000027
                },
                {
                    "name": "D#5",
                    "midi": 75,
                    "time": 52.371117000000005,
                    "velocity": 0.4094488188976378,
                    "duration": 0.41237100000000027
                },
                {
                    "name": "C5",
                    "midi": 72,
                    "time": 52.783488000000006,
                    "velocity": 0.30708661417322836,
                    "duration": 0.41237100000000027
                },
                {
                    "name": "C#5",
                    "midi": 73,
                    "time": 53.195859000000006,
                    "velocity": 0.3464566929133858,
                    "duration": 0.41237100000000027
                },
                {
                    "name": "A#4",
                    "midi": 70,
                    "time": 53.608230000000006,
                    "velocity": 0.2992125984251969,
                    "duration": 0.41237100000000027
                },
                {
                    "name": "G4",
                    "midi": 67,
                    "time": 54.020601000000006,
                    "velocity": 0.2677165354330709,
                    "duration": 0.41237100000000027
                },
                {
                    "name": "F4",
                    "midi": 65,
                    "time": 54.43297200000001,
                    "velocity": 0.41732283464566927,
                    "duration": 0.41237100000000027
                },
                {
                    "name": "C4",
                    "midi": 60,
                    "time": 54.84534300000001,
                    "velocity": 0.3779527559055118,
                    "duration": 0.41237100000000027
                },
                {
                    "name": "F4",
                    "midi": 65,
                    "time": 55.25771400000001,
                    "velocity": 0.3858267716535433,
                    "duration": 0.41237100000000027
                },
                {
                    "name": "G#4",
                    "midi": 68,
                    "time": 55.67008500000001,
                    "velocity": 0.4566929133858268,
                    "duration": 0.41237100000000027
                },
                {
                    "name": "F4",
                    "midi": 65,
                    "time": 56.08245600000001,
                    "velocity": 0.3937007874015748,
                    "duration": 0.41237100000000027
                },
                {
                    "name": "C#5",
                    "midi": 73,
                    "time": 56.49482700000001,
                    "velocity": 0.4015748031496063,
                    "duration": 0.41237100000000027
                },
                {
                    "name": "C5",
                    "midi": 72,
                    "time": 56.90719800000001,
                    "velocity": 0.5196850393700787,
                    "duration": 0.6185564999999968
                },
                {
                    "name": "E5",
                    "midi": 76,
                    "time": 58.144311,
                    "velocity": 0.6141732283464567,
                    "duration": 0.4639173750000012
                },
                {
                    "name": "G4",
                    "midi": 67,
                    "time": 58.144311,
                    "velocity": 0.5196850393700787,
                    "duration": 0.4639173750000012
                },
                {
                    "name": "C5",
                    "midi": 72,
                    "time": 58.144311,
                    "velocity": 0.5196850393700787,
                    "duration": 0.4639173750000012
                },
                {
                    "name": "F5",
                    "midi": 77,
                    "time": 59.381424,
                    "velocity": 0.6141732283464567,
                    "duration": 0.4639173750000012
                },
                {
                    "name": "G#4",
                    "midi": 68,
                    "time": 59.381424,
                    "velocity": 0.5196850393700787,
                    "duration": 0.4639173750000012
                },
                {
                    "name": "C5",
                    "midi": 72,
                    "time": 59.381424,
                    "velocity": 0.5196850393700787,
                    "duration": 0.4639173750000012
                },
                {
                    "name": "G#4",
                    "midi": 68,
                    "time": 59.99998050000001,
                    "velocity": 0.3543307086614173,
                    "duration": 0.3092782499999984
                },
                {
                    "name": "C5",
                    "midi": 72,
                    "time": 60.309258750000005,
                    "velocity": 0.2204724409448819,
                    "duration": 0.3092782499999984
                },
                {
                    "name": "G#4",
                    "midi": 68,
                    "time": 60.618537,
                    "velocity": 0.30708661417322836,
                    "duration": 0.3092782499999984
                },
                {
                    "name": "C5",
                    "midi": 72,
                    "time": 60.92781525,
                    "velocity": 0.2204724409448819,
                    "duration": 0.3092782499999984
                },
                {
                    "name": "G#4",
                    "midi": 68,
                    "time": 61.2370935,
                    "velocity": 0.2992125984251969,
                    "duration": 0.3092782499999984
                },
                {
                    "name": "C5",
                    "midi": 72,
                    "time": 61.54637175,
                    "velocity": 0.2440944881889764,
                    "duration": 0.3092782499999984
                },
                {
                    "name": "G4",
                    "midi": 67,
                    "time": 61.85565,
                    "velocity": 0.3543307086614173,
                    "duration": 0.3092782499999984
                },
                {
                    "name": "B4",
                    "midi": 71,
                    "time": 62.164928249999996,
                    "velocity": 0.23622047244094488,
                    "duration": 0.3092782499999984
                },
                {
                    "name": "G#4",
                    "midi": 68,
                    "time": 62.474206499999994,
                    "velocity": 0.3543307086614173,
                    "duration": 0.3092782499999984
                },
                {
                    "name": "C5",
                    "midi": 72,
                    "time": 62.78348474999999,
                    "velocity": 0.25196850393700787,
                    "duration": 0.3092782499999984
                },
                {
                    "name": "G#4",
                    "midi": 68,
                    "time": 63.09276299999999,
                    "velocity": 0.30708661417322836,
                    "duration": 0.3092782499999984
                },
                {
                    "name": "C5",
                    "midi": 72,
                    "time": 63.40204124999999,
                    "velocity": 0.2125984251968504,
                    "duration": 0.3092782499999984
                },
                {
                    "name": "G#4",
                    "midi": 68,
                    "time": 63.71131949999999,
                    "velocity": 0.31496062992125984,
                    "duration": 0.30927825000000553
                },
                {
                    "name": "C5",
                    "midi": 72,
                    "time": 64.02059775,
                    "velocity": 0.23622047244094488,
                    "duration": 0.30927825000000553
                },
                {
                    "name": "A4",
                    "midi": 69,
                    "time": 64.329876,
                    "velocity": 0.3543307086614173,
                    "duration": 0.30927825000000553
                },
                {
                    "name": "D#5",
                    "midi": 75,
                    "time": 64.63915425,
                    "velocity": 0.2440944881889764,
                    "duration": 0.30927825000000553
                },
                {
                    "name": "A#4",
                    "midi": 70,
                    "time": 64.94843250000001,
                    "velocity": 0.2992125984251969,
                    "duration": 0.30927825000000553
                },
                {
                    "name": "C#5",
                    "midi": 73,
                    "time": 65.25771075000002,
                    "velocity": 0.23622047244094488,
                    "duration": 0.30927825000000553
                },
                {
                    "name": "A#4",
                    "midi": 70,
                    "time": 65.56698900000002,
                    "velocity": 0.2992125984251969,
                    "duration": 0.30927825000000553
                },
                {
                    "name": "C#5",
                    "midi": 73,
                    "time": 65.87626725000003,
                    "velocity": 0.25196850393700787,
                    "duration": 0.30927825000000553
                },
                {
                    "name": "A#4",
                    "midi": 70,
                    "time": 66.18554550000003,
                    "velocity": 0.31496062992125984,
                    "duration": 0.30927825000000553
                },
                {
                    "name": "C#5",
                    "midi": 73,
                    "time": 66.49482375000004,
                    "velocity": 0.2204724409448819,
                    "duration": 0.30927825000000553
                },
                {
                    "name": "C#5",
                    "midi": 73,
                    "time": 66.80410200000004,
                    "velocity": 0.3700787401574803,
                    "duration": 0.30927825000000553
                },
                {
                    "name": "F5",
                    "midi": 77,
                    "time": 67.11338025000005,
                    "velocity": 0.2992125984251969,
                    "duration": 0.30927825000000553
                },
                {
                    "name": "A#4",
                    "midi": 70,
                    "time": 67.42265850000005,
                    "velocity": 0.3543307086614173,
                    "duration": 0.30927825000000553
                },
                {
                    "name": "C#5",
                    "midi": 73,
                    "time": 67.73193675000006,
                    "velocity": 0.25196850393700787,
                    "duration": 0.30927825000000553
                },
                {
                    "name": "G#4",
                    "midi": 68,
                    "time": 68.04121500000007,
                    "velocity": 0.31496062992125984,
                    "duration": 0.30927825000000553
                },
                {
                    "name": "C#5",
                    "midi": 73,
                    "time": 68.35049325000007,
                    "velocity": 0.2440944881889764,
                    "duration": 0.30927825000000553
                },
                {
                    "name": "G4",
                    "midi": 67,
                    "time": 68.65977150000008,
                    "velocity": 0.29133858267716534,
                    "duration": 0.30927825000000553
                },
                {
                    "name": "C#5",
                    "midi": 73,
                    "time": 68.96904975000008,
                    "velocity": 0.2440944881889764,
                    "duration": 0.30927825000000553
                },
                {
                    "name": "G#4",
                    "midi": 68,
                    "time": 69.27832800000009,
                    "velocity": 0.3543307086614173,
                    "duration": 0.30927825000000553
                },
                {
                    "name": "C#5",
                    "midi": 73,
                    "time": 69.58760625000009,
                    "velocity": 0.23622047244094488,
                    "duration": 0.30927825000000553
                },
                {
                    "name": "G#4",
                    "midi": 68,
                    "time": 69.8968845000001,
                    "velocity": 0.28346456692913385,
                    "duration": 0.30927825000000553
                },
                {
                    "name": "C5",
                    "midi": 72,
                    "time": 70.2061627500001,
                    "velocity": 0.2125984251968504,
                    "duration": 0.30927825000000553
                },
                {
                    "name": "G#4",
                    "midi": 68,
                    "time": 70.51544100000011,
                    "velocity": 0.2992125984251969,
                    "duration": 0.30927825000000553
                },
                {
                    "name": "C5",
                    "midi": 72,
                    "time": 70.82471925000011,
                    "velocity": 0.2440944881889764,
                    "duration": 0.30927825000000553
                },
                {
                    "name": "G#4",
                    "midi": 68,
                    "time": 71.13399750000012,
                    "velocity": 0.25984251968503935,
                    "duration": 0.30927825000000553
                },
                {
                    "name": "C5",
                    "midi": 72,
                    "time": 71.44327575000013,
                    "velocity": 0.2204724409448819,
                    "duration": 0.30927825000000553
                },
                {
                    "name": "G#4",
                    "midi": 68,
                    "time": 71.75255400000013,
                    "velocity": 0.3700787401574803,
                    "duration": 0.30927825000000553
                },
                {
                    "name": "C5",
                    "midi": 72,
                    "time": 72.06183225000014,
                    "velocity": 0.23622047244094488,
                    "duration": 0.30927825000000553
                },
                {
                    "name": "F#4",
                    "midi": 66,
                    "time": 72.37111050000014,
                    "velocity": 0.2755905511811024,
                    "duration": 0.30927825000000553
                },
                {
                    "name": "A#4",
                    "midi": 70,
                    "time": 72.68038875000015,
                    "velocity": 0.2440944881889764,
                    "duration": 0.30927825000000553
                },
                {
                    "name": "F#4",
                    "midi": 66,
                    "time": 72.98966700000015,
                    "velocity": 0.31496062992125984,
                    "duration": 0.30927825000000553
                },
                {
                    "name": "A#4",
                    "midi": 70,
                    "time": 73.29894525000016,
                    "velocity": 0.2204724409448819,
                    "duration": 0.30927825000000553
                },
                {
                    "name": "F#4",
                    "midi": 66,
                    "time": 73.60822350000016,
                    "velocity": 0.28346456692913385,
                    "duration": 0.30927825000000553
                },
                {
                    "name": "A#4",
                    "midi": 70,
                    "time": 73.91750175000017,
                    "velocity": 0.2283464566929134,
                    "duration": 0.30927825000000553
                },
                {
                    "name": "F#4",
                    "midi": 66,
                    "time": 74.22678000000018,
                    "velocity": 0.3543307086614173,
                    "duration": 0.30927825000000553
                },
                {
                    "name": "A#4",
                    "midi": 70,
                    "time": 74.53605825000018,
                    "velocity": 0.2125984251968504,
                    "duration": 0.30927825000000553
                },
                {
                    "name": "F4",
                    "midi": 65,
                    "time": 74.84533650000019,
                    "velocity": 0.2677165354330709,
                    "duration": 0.30927825000000553
                },
                {
                    "name": "G#4",
                    "midi": 68,
                    "time": 75.15461475000019,
                    "velocity": 0.2125984251968504,
                    "duration": 0.30927825000000553
                },
                {
                    "name": "F4",
                    "midi": 65,
                    "time": 75.4638930000002,
                    "velocity": 0.28346456692913385,
                    "duration": 0.30927825000000553
                },
                {
                    "name": "G#4",
                    "midi": 68,
                    "time": 75.7731712500002,
                    "velocity": 0.2125984251968504,
                    "duration": 0.30927825000000553
                },
                {
                    "name": "F4",
                    "midi": 65,
                    "time": 76.08244950000021,
                    "velocity": 0.25196850393700787,
                    "duration": 0.30927825000000553
                },
                {
                    "name": "G#4",
                    "midi": 68,
                    "time": 76.39172775000021,
                    "velocity": 0.2204724409448819,
                    "duration": 0.30927825000000553
                },
                {
                    "name": "F4",
                    "midi": 65,
                    "time": 76.70100600000022,
                    "velocity": 0.3543307086614173,
                    "duration": 0.30927825000000553
                },
                {
                    "name": "G#4",
                    "midi": 68,
                    "time": 77.01028425000023,
                    "velocity": 0.2125984251968504,
                    "duration": 0.30927825000000553
                },
                {
                    "name": "E4",
                    "midi": 64,
                    "time": 77.31956250000023,
                    "velocity": 0.25984251968503935,
                    "duration": 0.30927825000000553
                },
                {
                    "name": "G4",
                    "midi": 67,
                    "time": 77.62884075000024,
                    "velocity": 0.2125984251968504,
                    "duration": 0.30927825000000553
                },
                {
                    "name": "E4",
                    "midi": 64,
                    "time": 77.93811900000024,
                    "velocity": 0.30708661417322836,
                    "duration": 0.30927825000000553
                },
                {
                    "name": "G4",
                    "midi": 67,
                    "time": 78.24739725000025,
                    "velocity": 0.2204724409448819,
                    "duration": 0.30927825000000553
                },
                {
                    "name": "E4",
                    "midi": 64,
                    "time": 78.55667550000025,
                    "velocity": 0.28346456692913385,
                    "duration": 0.30927825000000553
                },
                {
                    "name": "G4",
                    "midi": 67,
                    "time": 78.86595375000026,
                    "velocity": 0.2283464566929134,
                    "duration": 0.30927825000000553
                },
                {
                    "name": "F4",
                    "midi": 65,
                    "time": 79.17523200000026,
                    "velocity": 0.47244094488188976,
                    "duration": 0.6185564999999968
                },
                {
                    "name": "G#4",
                    "midi": 68,
                    "time": 79.79378850000026,
                    "velocity": 0.3543307086614173,
                    "duration": 0.30927825000000553
                },
                {
                    "name": "C5",
                    "midi": 72,
                    "time": 80.10306675000027,
                    "velocity": 0.2204724409448819,
                    "duration": 0.30927825000000553
                },
                {
                    "name": "G#4",
                    "midi": 68,
                    "time": 80.41234500000027,
                    "velocity": 0.30708661417322836,
                    "duration": 0.30927825000000553
                },
                {
                    "name": "C5",
                    "midi": 72,
                    "time": 80.72162325000028,
                    "velocity": 0.2204724409448819,
                    "duration": 0.30927825000000553
                },
                {
                    "name": "G#4",
                    "midi": 68,
                    "time": 81.03090150000028,
                    "velocity": 0.2992125984251969,
                    "duration": 0.30927825000000553
                },
                {
                    "name": "C5",
                    "midi": 72,
                    "time": 81.34017975000029,
                    "velocity": 0.2440944881889764,
                    "duration": 0.30927825000000553
                },
                {
                    "name": "G4",
                    "midi": 67,
                    "time": 81.6494580000003,
                    "velocity": 0.3543307086614173,
                    "duration": 0.30927825000000553
                },
                {
                    "name": "B4",
                    "midi": 71,
                    "time": 81.9587362500003,
                    "velocity": 0.23622047244094488,
                    "duration": 0.30927825000000553
                },
                {
                    "name": "G#4",
                    "midi": 68,
                    "time": 82.2680145000003,
                    "velocity": 0.3543307086614173,
                    "duration": 0.30927825000000553
                },
                {
                    "name": "C5",
                    "midi": 72,
                    "time": 82.57729275000031,
                    "velocity": 0.25196850393700787,
                    "duration": 0.30927825000000553
                },
                {
                    "name": "G#4",
                    "midi": 68,
                    "time": 82.88657100000032,
                    "velocity": 0.30708661417322836,
                    "duration": 0.30927825000000553
                },
                {
                    "name": "C5",
                    "midi": 72,
                    "time": 83.19584925000032,
                    "velocity": 0.2125984251968504,
                    "duration": 0.30927825000000553
                },
                {
                    "name": "G#4",
                    "midi": 68,
                    "time": 83.50512750000033,
                    "velocity": 0.31496062992125984,
                    "duration": 0.30927825000000553
                },
                {
                    "name": "C5",
                    "midi": 72,
                    "time": 83.81440575000033,
                    "velocity": 0.23622047244094488,
                    "duration": 0.30927825000000553
                },
                {
                    "name": "A4",
                    "midi": 69,
                    "time": 84.12368400000034,
                    "velocity": 0.3543307086614173,
                    "duration": 0.30927825000000553
                },
                {
                    "name": "D#5",
                    "midi": 75,
                    "time": 84.43296225000034,
                    "velocity": 0.2440944881889764,
                    "duration": 0.30927825000000553
                },
                {
                    "name": "A#4",
                    "midi": 70,
                    "time": 84.74224050000035,
                    "velocity": 0.2992125984251969,
                    "duration": 0.30927825000000553
                },
                {
                    "name": "C#5",
                    "midi": 73,
                    "time": 85.05151875000035,
                    "velocity": 0.23622047244094488,
                    "duration": 0.30927825000000553
                },
                {
                    "name": "A#4",
                    "midi": 70,
                    "time": 85.36079700000036,
                    "velocity": 0.2992125984251969,
                    "duration": 0.30927825000000553
                },
                {
                    "name": "C#5",
                    "midi": 73,
                    "time": 85.67007525000037,
                    "velocity": 0.2440944881889764,
                    "duration": 0.30927825000000553
                },
                {
                    "name": "A#4",
                    "midi": 70,
                    "time": 85.97935350000037,
                    "velocity": 0.25984251968503935,
                    "duration": 0.30927825000000553
                },
                {
                    "name": "C#5",
                    "midi": 73,
                    "time": 86.28863175000038,
                    "velocity": 0.2204724409448819,
                    "duration": 0.30927825000000553
                },
                {
                    "name": "C#5",
                    "midi": 73,
                    "time": 86.59791000000038,
                    "velocity": 0.3700787401574803,
                    "duration": 0.30927825000000553
                },
                {
                    "name": "F5",
                    "midi": 77,
                    "time": 86.90718825000039,
                    "velocity": 0.2992125984251969,
                    "duration": 0.30927825000000553
                },
                {
                    "name": "A#4",
                    "midi": 70,
                    "time": 87.2164665000004,
                    "velocity": 0.3543307086614173,
                    "duration": 0.30927825000000553
                },
                {
                    "name": "C#5",
                    "midi": 73,
                    "time": 87.5257447500004,
                    "velocity": 0.25196850393700787,
                    "duration": 0.30927825000000553
                },
                {
                    "name": "G#4",
                    "midi": 68,
                    "time": 87.8350230000004,
                    "velocity": 0.31496062992125984,
                    "duration": 0.30927825000000553
                },
                {
                    "name": "C#5",
                    "midi": 73,
                    "time": 88.14430125000041,
                    "velocity": 0.2440944881889764,
                    "duration": 0.30927825000000553
                },
                {
                    "name": "G4",
                    "midi": 67,
                    "time": 88.45357950000042,
                    "velocity": 0.29133858267716534,
                    "duration": 0.30927825000000553
                },
                {
                    "name": "C#5",
                    "midi": 73,
                    "time": 88.76285775000042,
                    "velocity": 0.2440944881889764,
                    "duration": 0.30927825000000553
                },
                {
                    "name": "G#4",
                    "midi": 68,
                    "time": 89.07213600000043,
                    "velocity": 0.3543307086614173,
                    "duration": 0.30927825000000553
                },
                {
                    "name": "C#5",
                    "midi": 73,
                    "time": 89.38141425000043,
                    "velocity": 0.23622047244094488,
                    "duration": 0.30927825000000553
                },
                {
                    "name": "G#4",
                    "midi": 68,
                    "time": 89.69069250000044,
                    "velocity": 0.28346456692913385,
                    "duration": 0.30927825000000553
                },
                {
                    "name": "C5",
                    "midi": 72,
                    "time": 89.99997075000044,
                    "velocity": 0.2125984251968504,
                    "duration": 0.30927825000000553
                },
                {
                    "name": "G#4",
                    "midi": 68,
                    "time": 90.30924900000045,
                    "velocity": 0.2992125984251969,
                    "duration": 0.30927825000000553
                },
                {
                    "name": "C5",
                    "midi": 72,
                    "time": 90.61852725000045,
                    "velocity": 0.2440944881889764,
                    "duration": 0.30927825000000553
                },
                {
                    "name": "G#4",
                    "midi": 68,
                    "time": 90.92780550000046,
                    "velocity": 0.25984251968503935,
                    "duration": 0.30927825000000553
                },
                {
                    "name": "C5",
                    "midi": 72,
                    "time": 91.23708375000047,
                    "velocity": 0.2204724409448819,
                    "duration": 0.30927825000000553
                },
                {
                    "name": "C5",
                    "midi": 72,
                    "time": 91.54636200000047,
                    "velocity": 0.3700787401574803,
                    "duration": 0.30927825000000553
                },
                {
                    "name": "D#5",
                    "midi": 75,
                    "time": 91.85564025000048,
                    "velocity": 0.23622047244094488,
                    "duration": 0.30927825000000553
                },
                {
                    "name": "F4",
                    "midi": 65,
                    "time": 92.16491850000048,
                    "velocity": 0.2755905511811024,
                    "duration": 0.30927825000000553
                },
                {
                    "name": "A#4",
                    "midi": 70,
                    "time": 92.47419675000049,
                    "velocity": 0.2440944881889764,
                    "duration": 0.30927825000000553
                },
                {
                    "name": "C#5",
                    "midi": 73,
                    "time": 92.7834750000005,
                    "velocity": 0.3937007874015748,
                    "duration": 0.30927825000000553
                },
                {
                    "name": "F5",
                    "midi": 77,
                    "time": 93.0927532500005,
                    "velocity": 0.2677165354330709,
                    "duration": 0.30927825000000553
                },
                {
                    "name": "D#5",
                    "midi": 75,
                    "time": 93.4020315000005,
                    "velocity": 0.33858267716535434,
                    "duration": 0.30927825000000553
                },
                {
                    "name": "C#5",
                    "midi": 73,
                    "time": 93.71130975000051,
                    "velocity": 0.2755905511811024,
                    "duration": 0.30927825000000553
                },
                {
                    "name": "A#4",
                    "midi": 70,
                    "time": 94.02058800000052,
                    "velocity": 0.3543307086614173,
                    "duration": 0.30927825000000553
                },
                {
                    "name": "C#5",
                    "midi": 73,
                    "time": 94.32986625000052,
                    "velocity": 0.2125984251968504,
                    "duration": 0.30927825000000553
                },
                {
                    "name": "D#4",
                    "midi": 63,
                    "time": 94.63914450000053,
                    "velocity": 0.2677165354330709,
                    "duration": 0.30927825000000553
                },
                {
                    "name": "G#4",
                    "midi": 68,
                    "time": 94.94842275000053,
                    "velocity": 0.2125984251968504,
                    "duration": 0.30927825000000553
                },
                {
                    "name": "C5",
                    "midi": 72,
                    "time": 95.25770100000054,
                    "velocity": 0.3700787401574803,
                    "duration": 0.30927825000000553
                },
                {
                    "name": "D#5",
                    "midi": 75,
                    "time": 95.56697925000054,
                    "velocity": 0.2755905511811024,
                    "duration": 0.30927825000000553
                },
                {
                    "name": "C#5",
                    "midi": 73,
                    "time": 95.87625750000055,
                    "velocity": 0.3228346456692913,
                    "duration": 0.30927825000000553
                },
                {
                    "name": "C5",
                    "midi": 72,
                    "time": 96.18553575000055,
                    "velocity": 0.28346456692913385,
                    "duration": 0.30927825000000553
                },
                {
                    "name": "A4",
                    "midi": 69,
                    "time": 96.49481400000056,
                    "velocity": 0.3543307086614173,
                    "duration": 0.30927825000000553
                },
                {
                    "name": "C5",
                    "midi": 72,
                    "time": 96.80409225000056,
                    "velocity": 0.2125984251968504,
                    "duration": 0.30927825000000553
                },
                {
                    "name": "D#4",
                    "midi": 63,
                    "time": 97.11337050000057,
                    "velocity": 0.25984251968503935,
                    "duration": 0.30927825000000553
                },
                {
                    "name": "G4",
                    "midi": 67,
                    "time": 97.42264875000058,
                    "velocity": 0.2125984251968504,
                    "duration": 0.30927825000000553
                },
                {
                    "name": "A#4",
                    "midi": 70,
                    "time": 97.73192700000058,
                    "velocity": 0.36220472440944884,
                    "duration": 0.30927825000000553
                },
                {
                    "name": "C#5",
                    "midi": 73,
                    "time": 98.04120525000059,
                    "velocity": 0.28346456692913385,
                    "duration": 0.30927825000000553
                },
                {
                    "name": "C5",
                    "midi": 72,
                    "time": 98.35048350000059,
                    "velocity": 0.31496062992125984,
                    "duration": 0.30927825000000553
                },
                {
                    "name": "A#4",
                    "midi": 70,
                    "time": 98.6597617500006,
                    "velocity": 0.2677165354330709,
                    "duration": 0.30927825000000553
                },
                {
                    "name": "G#4",
                    "midi": 68,
                    "time": 98.9690400000006,
                    "velocity": 0.3937007874015748,
                    "duration": 0.6185564999999968
                },
                {
                    "name": "G#4",
                    "midi": 68,
                    "time": 99.5875965000006,
                    "velocity": 0.3543307086614173,
                    "duration": 0.30927825000000553
                },
                {
                    "name": "C5",
                    "midi": 72,
                    "time": 99.8968747500006,
                    "velocity": 0.2204724409448819,
                    "duration": 0.30927825000000553
                },
                {
                    "name": "G#4",
                    "midi": 68,
                    "time": 100.20615300000061,
                    "velocity": 0.30708661417322836,
                    "duration": 0.30927825000000553
                },
                {
                    "name": "C5",
                    "midi": 72,
                    "time": 100.51543125000062,
                    "velocity": 0.2204724409448819,
                    "duration": 0.30927825000000553
                },
                {
                    "name": "G#4",
                    "midi": 68,
                    "time": 100.82470950000062,
                    "velocity": 0.2992125984251969,
                    "duration": 0.30927825000000553
                },
                {
                    "name": "C5",
                    "midi": 72,
                    "time": 101.13398775000063,
                    "velocity": 0.2440944881889764,
                    "duration": 0.30927825000000553
                },
                {
                    "name": "B4",
                    "midi": 71,
                    "time": 101.44326600000063,
                    "velocity": 0.3543307086614173,
                    "duration": 0.30927825000000553
                },
                {
                    "name": "D5",
                    "midi": 74,
                    "time": 101.75254425000064,
                    "velocity": 0.23622047244094488,
                    "duration": 0.30927825000000553
                },
                {
                    "name": "C5",
                    "midi": 72,
                    "time": 102.06182250000064,
                    "velocity": 0.3543307086614173,
                    "duration": 0.30927825000000553
                },
                {
                    "name": "D#5",
                    "midi": 75,
                    "time": 102.37110075000065,
                    "velocity": 0.25196850393700787,
                    "duration": 0.30927825000000553
                },
                {
                    "name": "C5",
                    "midi": 72,
                    "time": 102.68037900000066,
                    "velocity": 0.30708661417322836,
                    "duration": 0.30927825000000553
                },
                {
                    "name": "D#5",
                    "midi": 75,
                    "time": 102.98965725000066,
                    "velocity": 0.2125984251968504,
                    "duration": 0.30927825000000553
                },
                {
                    "name": "C5",
                    "midi": 72,
                    "time": 103.29893550000067,
                    "velocity": 0.31496062992125984,
                    "duration": 0.30927825000000553
                },
                {
                    "name": "D#5",
                    "midi": 75,
                    "time": 103.60821375000067,
                    "velocity": 0.23622047244094488,
                    "duration": 0.30927825000000553
                },
                {
                    "name": "C5",
                    "midi": 72,
                    "time": 103.91749200000068,
                    "velocity": 0.3543307086614173,
                    "duration": 0.30927825000000553
                },
                {
                    "name": "D#5",
                    "midi": 75,
                    "time": 104.22677025000068,
                    "velocity": 0.29133858267716534,
                    "duration": 0.30927825000000553
                },
                {
                    "name": "C#5",
                    "midi": 73,
                    "time": 104.53604850000069,
                    "velocity": 0.3464566929133858,
                    "duration": 0.30927825000000553
                },
                {
                    "name": "E5",
                    "midi": 76,
                    "time": 104.8453267500007,
                    "velocity": 0.30708661417322836,
                    "duration": 0.30927825000000553
                },
                {
                    "name": "G5",
                    "midi": 79,
                    "time": 105.1546050000007,
                    "velocity": 0.4094488188976378,
                    "duration": 0.30927825000000553
                },
                {
                    "name": "A#5",
                    "midi": 82,
                    "time": 105.4638832500007,
                    "velocity": 0.36220472440944884,
                    "duration": 0.30927825000000553
                },
                {
                    "name": "C5",
                    "midi": 72,
                    "time": 105.77316150000071,
                    "velocity": 0.3464566929133858,
                    "duration": 0.30927825000000553
                },
                {
                    "name": "D#5",
                    "midi": 75,
                    "time": 106.08243975000072,
                    "velocity": 0.28346456692913385,
                    "duration": 0.30927825000000553
                },
                {
                    "name": "C#5",
                    "midi": 73,
                    "time": 106.39171800000072,
                    "velocity": 0.3779527559055118,
                    "duration": 0.30927825000000553
                },
                {
                    "name": "E5",
                    "midi": 76,
                    "time": 106.70099625000073,
                    "velocity": 0.4015748031496063,
                    "duration": 0.30927825000000553
                },
                {
                    "name": "G5",
                    "midi": 79,
                    "time": 107.01027450000073,
                    "velocity": 0.4330708661417323,
                    "duration": 0.30927825000000553
                },
                {
                    "name": "A#5",
                    "midi": 82,
                    "time": 107.31955275000074,
                    "velocity": 0.4566929133858268,
                    "duration": 0.30927825000000553
                },
                {
                    "name": "G#5",
                    "midi": 80,
                    "time": 107.62883100000074,
                    "velocity": 0.48031496062992124,
                    "duration": 0.30927825000000553
                },
                {
                    "name": "G5",
                    "midi": 79,
                    "time": 107.93810925000075,
                    "velocity": 0.4645669291338583,
                    "duration": 0.30927825000000553
                },
                {
                    "name": "F5",
                    "midi": 77,
                    "time": 108.24738750000076,
                    "velocity": 0.44881889763779526,
                    "duration": 0.30927825000000553
                },
                {
                    "name": "G5",
                    "midi": 79,
                    "time": 108.55666575000076,
                    "velocity": 0.4881889763779528,
                    "duration": 0.30927825000000553
                },
                {
                    "name": "G#5",
                    "midi": 80,
                    "time": 108.86594400000077,
                    "velocity": 0.5669291338582677,
                    "duration": 0.6185564999999968
                },
                {
                    "name": "G#4",
                    "midi": 68,
                    "time": 109.48450050000076,
                    "velocity": 0.4015748031496063,
                    "duration": 0.30927825000000553
                },
                {
                    "name": "C5",
                    "midi": 72,
                    "time": 109.79377875000077,
                    "velocity": 0.25196850393700787,
                    "duration": 0.30927825000000553
                },
                {
                    "name": "G#4",
                    "midi": 68,
                    "time": 110.10305700000077,
                    "velocity": 0.3464566929133858,
                    "duration": 0.30927825000000553
                },
                {
                    "name": "C5",
                    "midi": 72,
                    "time": 110.41233525000078,
                    "velocity": 0.25196850393700787,
                    "duration": 0.30927825000000553
                },
                {
                    "name": "G#4",
                    "midi": 68,
                    "time": 110.72161350000079,
                    "velocity": 0.33858267716535434,
                    "duration": 0.30927825000000553
                },
                {
                    "name": "C5",
                    "midi": 72,
                    "time": 111.03089175000079,
                    "velocity": 0.2755905511811024,
                    "duration": 0.30927825000000553
                },
                {
                    "name": "B4",
                    "midi": 71,
                    "time": 111.3401700000008,
                    "velocity": 0.4015748031496063,
                    "duration": 0.30927825000000553
                },
                {
                    "name": "D5",
                    "midi": 74,
                    "time": 111.6494482500008,
                    "velocity": 0.2677165354330709,
                    "duration": 0.30927825000000553
                },
                {
                    "name": "C5",
                    "midi": 72,
                    "time": 111.95872650000081,
                    "velocity": 0.4015748031496063,
                    "duration": 0.30927825000000553
                },
                {
                    "name": "D#5",
                    "midi": 75,
                    "time": 112.26800475000081,
                    "velocity": 0.28346456692913385,
                    "duration": 0.30927825000000553
                },
                {
                    "name": "C5",
                    "midi": 72,
                    "time": 112.57728300000082,
                    "velocity": 0.3464566929133858,
                    "duration": 0.30927825000000553
                },
                {
                    "name": "D#5",
                    "midi": 75,
                    "time": 112.88656125000082,
                    "velocity": 0.2440944881889764,
                    "duration": 0.30927825000000553
                },
                {
                    "name": "C5",
                    "midi": 72,
                    "time": 113.19583950000083,
                    "velocity": 0.36220472440944884,
                    "duration": 0.30927825000000553
                },
                {
                    "name": "D#5",
                    "midi": 75,
                    "time": 113.50511775000084,
                    "velocity": 0.2677165354330709,
                    "duration": 0.30927825000000553
                },
                {
                    "name": "D5",
                    "midi": 74,
                    "time": 113.81439600000084,
                    "velocity": 0.4015748031496063,
                    "duration": 0.30927825000000553
                },
                {
                    "name": "F5",
                    "midi": 77,
                    "time": 114.12367425000085,
                    "velocity": 0.33070866141732286,
                    "duration": 0.30927825000000553
                },
                {
                    "name": "D#5",
                    "midi": 75,
                    "time": 114.43295250000085,
                    "velocity": 0.3937007874015748,
                    "duration": 0.30927825000000553
                },
                {
                    "name": "F#5",
                    "midi": 78,
                    "time": 114.74223075000086,
                    "velocity": 0.3464566929133858,
                    "duration": 0.30927825000000553
                },
                {
                    "name": "A5",
                    "midi": 81,
                    "time": 115.05150900000086,
                    "velocity": 0.4645669291338583,
                    "duration": 0.30927825000000553
                },
                {
                    "name": "C6",
                    "midi": 84,
                    "time": 115.36078725000087,
                    "velocity": 0.4094488188976378,
                    "duration": 0.30927825000000553
                },
                {
                    "name": "D5",
                    "midi": 74,
                    "time": 115.67006550000087,
                    "velocity": 0.3937007874015748,
                    "duration": 0.30927825000000553
                },
                {
                    "name": "F5",
                    "midi": 77,
                    "time": 115.97934375000088,
                    "velocity": 0.3228346456692913,
                    "duration": 0.30927825000000553
                },
                {
                    "name": "D#5",
                    "midi": 75,
                    "time": 116.28862200000088,
                    "velocity": 0.4330708661417323,
                    "duration": 0.30927825000000553
                },
                {
                    "name": "F#5",
                    "midi": 78,
                    "time": 116.59790025000089,
                    "velocity": 0.4566929133858268,
                    "duration": 0.30927825000000553
                },
                {
                    "name": "A5",
                    "midi": 81,
                    "time": 116.9071785000009,
                    "velocity": 0.49606299212598426,
                    "duration": 0.30927825000000553
                },
                {
                    "name": "C6",
                    "midi": 84,
                    "time": 117.2164567500009,
                    "velocity": 0.5196850393700787,
                    "duration": 0.30927825000000553
                },
                {
                    "name": "A#5",
                    "midi": 82,
                    "time": 117.5257350000009,
                    "velocity": 0.5511811023622047,
                    "duration": 0.30927825000000553
                },
                {
                    "name": "A5",
                    "midi": 81,
                    "time": 117.83501325000091,
                    "velocity": 0.5275590551181102,
                    "duration": 0.30927825000000553
                },
                {
                    "name": "G5",
                    "midi": 79,
                    "time": 118.14429150000092,
                    "velocity": 0.5118110236220472,
                    "duration": 0.30927825000000553
                },
                {
                    "name": "A5",
                    "midi": 81,
                    "time": 118.45356975000092,
                    "velocity": 0.5590551181102362,
                    "duration": 0.30927825000000553
                },
                {
                    "name": "A#5",
                    "midi": 82,
                    "time": 118.76284800000093,
                    "velocity": 0.6062992125984252,
                    "duration": 0.6185564999999968
                },
                {
                    "name": "C#5",
                    "midi": 73,
                    "time": 119.38140450000093,
                    "velocity": 0.4015748031496063,
                    "duration": 0.30927825000000553
                },
                {
                    "name": "F5",
                    "midi": 77,
                    "time": 119.69068275000093,
                    "velocity": 0.25196850393700787,
                    "duration": 0.30927825000000553
                },
                {
                    "name": "C#5",
                    "midi": 73,
                    "time": 119.99996100000094,
                    "velocity": 0.3464566929133858,
                    "duration": 0.30927825000000553
                },
                {
                    "name": "F5",
                    "midi": 77,
                    "time": 120.30923925000094,
                    "velocity": 0.25196850393700787,
                    "duration": 0.30927825000000553
                },
                {
                    "name": "C#5",
                    "midi": 73,
                    "time": 120.61851750000095,
                    "velocity": 0.33858267716535434,
                    "duration": 0.30927825000000553
                },
                {
                    "name": "F5",
                    "midi": 77,
                    "time": 120.92779575000095,
                    "velocity": 0.2755905511811024,
                    "duration": 0.30927825000000553
                },
                {
                    "name": "C5",
                    "midi": 72,
                    "time": 121.23707400000096,
                    "velocity": 0.4015748031496063,
                    "duration": 0.30927825000000553
                },
                {
                    "name": "E5",
                    "midi": 76,
                    "time": 121.54635225000096,
                    "velocity": 0.2677165354330709,
                    "duration": 0.30927825000000553
                },
                {
                    "name": "C#5",
                    "midi": 73,
                    "time": 121.85563050000097,
                    "velocity": 0.4015748031496063,
                    "duration": 0.30927825000000553
                },
                {
                    "name": "F5",
                    "midi": 77,
                    "time": 122.16490875000098,
                    "velocity": 0.28346456692913385,
                    "duration": 0.30927825000000553
                },
                {
                    "name": "C#5",
                    "midi": 73,
                    "time": 122.47418700000098,
                    "velocity": 0.3464566929133858,
                    "duration": 0.30927825000000553
                },
                {
                    "name": "F5",
                    "midi": 77,
                    "time": 122.78346525000099,
                    "velocity": 0.2440944881889764,
                    "duration": 0.30927825000000553
                },
                {
                    "name": "C#5",
                    "midi": 73,
                    "time": 123.09274350000099,
                    "velocity": 0.36220472440944884,
                    "duration": 0.30927825000000553
                },
                {
                    "name": "F5",
                    "midi": 77,
                    "time": 123.402021750001,
                    "velocity": 0.2677165354330709,
                    "duration": 0.30927825000000553
                },
                {
                    "name": "A#5",
                    "midi": 82,
                    "time": 123.711300000001,
                    "velocity": 0.5669291338582677,
                    "duration": 0.30927825000000553
                },
                {
                    "name": "C#5",
                    "midi": 73,
                    "time": 124.02057825000101,
                    "velocity": 0.2755905511811024,
                    "duration": 0.30927825000000553
                },
                {
                    "name": "E5",
                    "midi": 76,
                    "time": 124.32985650000101,
                    "velocity": 0.36220472440944884,
                    "duration": 0.30927825000000553
                },
                {
                    "name": "C#5",
                    "midi": 73,
                    "time": 124.63913475000102,
                    "velocity": 0.25196850393700787,
                    "duration": 0.30927825000000553
                },
                {
                    "name": "D#5",
                    "midi": 75,
                    "time": 124.94841300000103,
                    "velocity": 0.3464566929133858,
                    "duration": 0.30927825000000553
                },
                {
                    "name": "C#5",
                    "midi": 73,
                    "time": 125.25769125000103,
                    "velocity": 0.25196850393700787,
                    "duration": 0.30927825000000553
                },
                {
                    "name": "E5",
                    "midi": 76,
                    "time": 125.56696950000104,
                    "velocity": 0.33858267716535434,
                    "duration": 0.30927825000000553
                },
                {
                    "name": "C#5",
                    "midi": 73,
                    "time": 125.87624775000104,
                    "velocity": 0.2755905511811024,
                    "duration": 0.30927825000000553
                },
                {
                    "name": "G#5",
                    "midi": 80,
                    "time": 126.18552600000105,
                    "velocity": 0.5275590551181102,
                    "duration": 0.30927825000000553
                },
                {
                    "name": "C5",
                    "midi": 72,
                    "time": 126.49480425000105,
                    "velocity": 0.2677165354330709,
                    "duration": 0.30927825000000553
                },
                {
                    "name": "F5",
                    "midi": 77,
                    "time": 126.80408250000106,
                    "velocity": 0.3543307086614173,
                    "duration": 0.30927825000000553
                },
                {
                    "name": "C5",
                    "midi": 72,
                    "time": 127.11336075000106,
                    "velocity": 0.28346456692913385,
                    "duration": 0.30927825000000553
                },
                {
                    "name": "D#5",
                    "midi": 75,
                    "time": 127.42263900000107,
                    "velocity": 0.3464566929133858,
                    "duration": 0.30927825000000553
                },
                {
                    "name": "C5",
                    "midi": 72,
                    "time": 127.73191725000108,
                    "velocity": 0.2440944881889764,
                    "duration": 0.3092782499999913
                },
                {
                    "name": "G#5",
                    "midi": 80,
                    "time": 128.04119550000107,
                    "velocity": 0.49606299212598426,
                    "duration": 0.30927825000000553
                },
                {
                    "name": "C5",
                    "midi": 72,
                    "time": 128.35047375000107,
                    "velocity": 0.2677165354330709,
                    "duration": 0.30927825000000553
                },
                {
                    "name": "C#6",
                    "midi": 85,
                    "time": 128.65975200000108,
                    "velocity": 0.5669291338582677,
                    "duration": 0.30927825000000553
                },
                {
                    "name": "A#5",
                    "midi": 82,
                    "time": 128.65975200000108,
                    "velocity": 0.48031496062992124,
                    "duration": 0.30927825000000553
                },
                {
                    "name": "C#5",
                    "midi": 73,
                    "time": 128.96903025000108,
                    "velocity": 0.2755905511811024,
                    "duration": 0.30927825000000553
                },
                {
                    "name": "E5",
                    "midi": 76,
                    "time": 129.2783085000011,
                    "velocity": 0.36220472440944884,
                    "duration": 0.30927825000000553
                },
                {
                    "name": "C#5",
                    "midi": 73,
                    "time": 129.5875867500011,
                    "velocity": 0.25196850393700787,
                    "duration": 0.30927825000000553
                },
                {
                    "name": "D#5",
                    "midi": 75,
                    "time": 129.8968650000011,
                    "velocity": 0.3464566929133858,
                    "duration": 0.30927825000000553
                },
                {
                    "name": "C#5",
                    "midi": 73,
                    "time": 130.2061432500011,
                    "velocity": 0.25196850393700787,
                    "duration": 0.30927825000000553
                },
                {
                    "name": "E5",
                    "midi": 76,
                    "time": 130.5154215000011,
                    "velocity": 0.33858267716535434,
                    "duration": 0.30927825000000553
                },
                {
                    "name": "C#5",
                    "midi": 73,
                    "time": 130.82469975000112,
                    "velocity": 0.2755905511811024,
                    "duration": 0.30927825000000553
                },
                {
                    "name": "C6",
                    "midi": 84,
                    "time": 131.13397800000112,
                    "velocity": 0.5275590551181102,
                    "duration": 0.30927825000000553
                },
                {
                    "name": "G#5",
                    "midi": 80,
                    "time": 131.13397800000112,
                    "velocity": 0.4409448818897638,
                    "duration": 0.30927825000000553
                },
                {
                    "name": "C5",
                    "midi": 72,
                    "time": 131.44325625000113,
                    "velocity": 0.2677165354330709,
                    "duration": 0.30927825000000553
                },
                {
                    "name": "F5",
                    "midi": 77,
                    "time": 131.75253450000113,
                    "velocity": 0.3543307086614173,
                    "duration": 0.30927825000000553
                },
                {
                    "name": "C5",
                    "midi": 72,
                    "time": 132.06181275000114,
                    "velocity": 0.28346456692913385,
                    "duration": 0.30927825000000553
                },
                {
                    "name": "D#5",
                    "midi": 75,
                    "time": 132.37109100000114,
                    "velocity": 0.3464566929133858,
                    "duration": 0.30927825000000553
                },
                {
                    "name": "C5",
                    "midi": 72,
                    "time": 132.68036925000115,
                    "velocity": 0.2440944881889764,
                    "duration": 0.30927825000000553
                },
                {
                    "name": "G#5",
                    "midi": 80,
                    "time": 132.98964750000115,
                    "velocity": 0.49606299212598426,
                    "duration": 0.30927825000000553
                },
                {
                    "name": "C5",
                    "midi": 72,
                    "time": 133.29892575000116,
                    "velocity": 0.2677165354330709,
                    "duration": 0.30927825000000553
                },
                {
                    "name": "C6",
                    "midi": 84,
                    "time": 133.60820400000117,
                    "velocity": 0.5511811023622047,
                    "duration": 0.30927825000000553
                },
                {
                    "name": "D#6",
                    "midi": 87,
                    "time": 133.91748225000117,
                    "velocity": 0.4094488188976378,
                    "duration": 0.30927825000000553
                },
                {
                    "name": "F5",
                    "midi": 77,
                    "time": 134.22676050000118,
                    "velocity": 0.44881889763779526,
                    "duration": 0.30927825000000553
                },
                {
                    "name": "A#5",
                    "midi": 82,
                    "time": 134.53603875000118,
                    "velocity": 0.41732283464566927,
                    "duration": 0.30927825000000553
                },
                {
                    "name": "C#6",
                    "midi": 85,
                    "time": 134.8453170000012,
                    "velocity": 0.4881889763779528,
                    "duration": 0.30927825000000553
                },
                {
                    "name": "F6",
                    "midi": 89,
                    "time": 135.1545952500012,
                    "velocity": 0.5433070866141733,
                    "duration": 0.30927825000000553
                },
                {
                    "name": "D#6",
                    "midi": 87,
                    "time": 135.4638735000012,
                    "velocity": 0.44881889763779526,
                    "duration": 0.30927825000000553
                },
                {
                    "name": "C#6",
                    "midi": 85,
                    "time": 135.7731517500012,
                    "velocity": 0.44881889763779526,
                    "duration": 0.30927825000000553
                },
                {
                    "name": "A#5",
                    "midi": 82,
                    "time": 136.0824300000012,
                    "velocity": 0.49606299212598426,
                    "duration": 0.30927825000000553
                },
                {
                    "name": "C#6",
                    "midi": 85,
                    "time": 136.39170825000122,
                    "velocity": 0.41732283464566927,
                    "duration": 0.30927825000000553
                },
                {
                    "name": "D#5",
                    "midi": 75,
                    "time": 136.70098650000122,
                    "velocity": 0.41732283464566927,
                    "duration": 0.30927825000000553
                },
                {
                    "name": "G#5",
                    "midi": 80,
                    "time": 137.01026475000123,
                    "velocity": 0.3779527559055118,
                    "duration": 0.30927825000000553
                },
                {
                    "name": "C6",
                    "midi": 84,
                    "time": 137.31954300000123,
                    "velocity": 0.4881889763779528,
                    "duration": 0.30927825000000553
                },
                {
                    "name": "D#6",
                    "midi": 87,
                    "time": 137.62882125000124,
                    "velocity": 0.5275590551181102,
                    "duration": 0.30927825000000553
                },
                {
                    "name": "C#6",
                    "midi": 85,
                    "time": 137.93809950000124,
                    "velocity": 0.41732283464566927,
                    "duration": 0.30927825000000553
                },
                {
                    "name": "C6",
                    "midi": 84,
                    "time": 138.24737775000125,
                    "velocity": 0.41732283464566927,
                    "duration": 0.30927825000000553
                },
                {
                    "name": "A5",
                    "midi": 81,
                    "time": 138.55665600000125,
                    "velocity": 0.5196850393700787,
                    "duration": 0.30927825000000553
                },
                {
                    "name": "C6",
                    "midi": 84,
                    "time": 138.86593425000126,
                    "velocity": 0.3700787401574803,
                    "duration": 0.30927825000000553
                },
                {
                    "name": "D#5",
                    "midi": 75,
                    "time": 139.17521250000127,
                    "velocity": 0.41732283464566927,
                    "duration": 0.30927825000000553
                },
                {
                    "name": "G5",
                    "midi": 79,
                    "time": 139.48449075000127,
                    "velocity": 0.3937007874015748,
                    "duration": 0.30927825000000553
                },
                {
                    "name": "A#5",
                    "midi": 82,
                    "time": 139.79376900000128,
                    "velocity": 0.48031496062992124,
                    "duration": 0.30927825000000553
                },
                {
                    "name": "C#6",
                    "midi": 85,
                    "time": 140.10304725000128,
                    "velocity": 0.4566929133858268,
                    "duration": 0.30927825000000553
                },
                {
                    "name": "C6",
                    "midi": 84,
                    "time": 140.4123255000013,
                    "velocity": 0.41732283464566927,
                    "duration": 0.30927825000000553
                },
                {
                    "name": "A#5",
                    "midi": 82,
                    "time": 140.7216037500013,
                    "velocity": 0.41732283464566927,
                    "duration": 0.30927825000000553
                },
                {
                    "name": "G#5",
                    "midi": 80,
                    "time": 141.0308820000013,
                    "velocity": 0.5275590551181102,
                    "duration": 0.30927825000000553
                },
                {
                    "name": "G5",
                    "midi": 79,
                    "time": 141.3401602500013,
                    "velocity": 0.44881889763779526,
                    "duration": 0.30927825000000553
                },
                {
                    "name": "F5",
                    "midi": 77,
                    "time": 141.6494385000013,
                    "velocity": 0.5039370078740157,
                    "duration": 0.30927825000000553
                },
                {
                    "name": "E5",
                    "midi": 76,
                    "time": 141.95871675000132,
                    "velocity": 0.5118110236220472,
                    "duration": 0.30927825000000553
                },
                {
                    "name": "D#5",
                    "midi": 75,
                    "time": 142.26799500000132,
                    "velocity": 0.5275590551181102,
                    "duration": 0.30927825000000553
                },
                {
                    "name": "C#5",
                    "midi": 73,
                    "time": 142.57727325000133,
                    "velocity": 0.5354330708661418,
                    "duration": 0.30927825000000553
                },
                {
                    "name": "C5",
                    "midi": 72,
                    "time": 142.88655150000133,
                    "velocity": 0.5433070866141733,
                    "duration": 0.30927825000000553
                },
                {
                    "name": "A#4",
                    "midi": 70,
                    "time": 143.19582975000134,
                    "velocity": 0.5590551181102362,
                    "duration": 0.30927825000000553
                },
                {
                    "name": "G#4",
                    "midi": 68,
                    "time": 143.50510800000134,
                    "velocity": 0.5905511811023622,
                    "duration": 0.6185565000000111
                },
                {
                    "name": "G#3",
                    "midi": 56,
                    "time": 144.12366450000135,
                    "velocity": 0.5669291338582677,
                    "duration": 0.30927825000000553
                },
                {
                    "name": "G#3",
                    "midi": 56,
                    "time": 144.74222100000136,
                    "velocity": 0.5669291338582677,
                    "duration": 0.30927825000000553
                },
                {
                    "name": "G#3",
                    "midi": 56,
                    "time": 145.36077750000138,
                    "velocity": 0.5669291338582677,
                    "duration": 0.30927825000000553
                },
                {
                    "name": "G3",
                    "midi": 55,
                    "time": 145.9793340000014,
                    "velocity": 0.6141732283464567,
                    "duration": 0.6185565000000111
                },
                {
                    "name": "G#3",
                    "midi": 56,
                    "time": 146.5978905000014,
                    "velocity": 0.5433070866141733,
                    "duration": 0.30927825000000553
                },
                {
                    "name": "G#3",
                    "midi": 56,
                    "time": 147.2164470000014,
                    "velocity": 0.5433070866141733,
                    "duration": 0.30927825000000553
                },
                {
                    "name": "G#3",
                    "midi": 56,
                    "time": 147.83500350000142,
                    "velocity": 0.5433070866141733,
                    "duration": 0.30927825000000553
                },
                {
                    "name": "A3",
                    "midi": 57,
                    "time": 148.45356000000143,
                    "velocity": 0.5669291338582677,
                    "duration": 0.9278347499999882
                },
                {
                    "name": "A#3",
                    "midi": 58,
                    "time": 149.38139475000142,
                    "velocity": 0.5039370078740157,
                    "duration": 0.15463912499998855
                },
                {
                    "name": "C4",
                    "midi": 60,
                    "time": 149.5360338750014,
                    "velocity": 0.4645669291338583,
                    "duration": 0.15463912499998855
                },
                {
                    "name": "A#3",
                    "midi": 58,
                    "time": 149.6906730000014,
                    "velocity": 0.5669291338582677,
                    "duration": 0.9278347499999882
                },
                {
                    "name": "C4",
                    "midi": 60,
                    "time": 150.61850775000138,
                    "velocity": 0.5118110236220472,
                    "duration": 0.15463912499998855
                },
                {
                    "name": "C#4",
                    "midi": 61,
                    "time": 150.77314687500137,
                    "velocity": 0.48031496062992124,
                    "duration": 0.15463912499998855
                },
                {
                    "name": "D#4",
                    "midi": 63,
                    "time": 150.92778600000136,
                    "velocity": 0.5669291338582677,
                    "duration": 0.30927825000000553
                },
                {
                    "name": "G4",
                    "midi": 67,
                    "time": 151.54634250000137,
                    "velocity": 0.5511811023622047,
                    "duration": 0.30927825000000553
                },
                {
                    "name": "A#4",
                    "midi": 70,
                    "time": 151.85562075000138,
                    "velocity": 0.5511811023622047,
                    "duration": 0.30927825000000553
                },
                {
                    "name": "D#5",
                    "midi": 75,
                    "time": 152.16489900000138,
                    "velocity": 0.5275590551181102,
                    "duration": 0.30927825000000553
                },
                {
                    "name": "G5",
                    "midi": 79,
                    "time": 152.4741772500014,
                    "velocity": 0.5511811023622047,
                    "duration": 0.30927825000000553
                },
                {
                    "name": "A#5",
                    "midi": 82,
                    "time": 152.7834555000014,
                    "velocity": 0.5748031496062992,
                    "duration": 0.30927825000000553
                },
                {
                    "name": "D#6",
                    "midi": 87,
                    "time": 153.0927337500014,
                    "velocity": 0.5905511811023622,
                    "duration": 0.30927825000000553
                },
                {
                    "name": "G#5",
                    "midi": 80,
                    "time": 153.4020120000014,
                    "velocity": 0.6141732283464567,
                    "duration": 0.6185565000000111
                },
                {
                    "name": "G#3",
                    "midi": 56,
                    "time": 154.02056850000142,
                    "velocity": 0.5669291338582677,
                    "duration": 0.30927825000000553
                },
                {
                    "name": "G#3",
                    "midi": 56,
                    "time": 154.63912500000143,
                    "velocity": 0.5669291338582677,
                    "duration": 0.30927825000000553
                },
                {
                    "name": "G#3",
                    "midi": 56,
                    "time": 155.25768150000144,
                    "velocity": 0.5669291338582677,
                    "duration": 0.30927825000000553
                },
                {
                    "name": "G3",
                    "midi": 55,
                    "time": 155.87623800000145,
                    "velocity": 0.6141732283464567,
                    "duration": 0.6185565000000111
                },
                {
                    "name": "G#3",
                    "midi": 56,
                    "time": 156.49479450000146,
                    "velocity": 0.5433070866141733,
                    "duration": 0.30927825000000553
                },
                {
                    "name": "G#3",
                    "midi": 56,
                    "time": 157.11335100000147,
                    "velocity": 0.5433070866141733,
                    "duration": 0.30927825000000553
                },
                {
                    "name": "G#3",
                    "midi": 56,
                    "time": 157.73190750000148,
                    "velocity": 0.5433070866141733,
                    "duration": 0.30927825000000553
                },
                {
                    "name": "A3",
                    "midi": 57,
                    "time": 158.3504640000015,
                    "velocity": 0.5669291338582677,
                    "duration": 0.9278347499999882
                },
                {
                    "name": "A#3",
                    "midi": 58,
                    "time": 159.27829875000148,
                    "velocity": 0.5039370078740157,
                    "duration": 0.15463912499998855
                },
                {
                    "name": "C4",
                    "midi": 60,
                    "time": 159.43293787500147,
                    "velocity": 0.4645669291338583,
                    "duration": 0.15463912499998855
                },
                {
                    "name": "A#3",
                    "midi": 58,
                    "time": 159.58757700000146,
                    "velocity": 0.5669291338582677,
                    "duration": 0.9278347499999882
                },
                {
                    "name": "C4",
                    "midi": 60,
                    "time": 160.51541175000145,
                    "velocity": 0.5118110236220472,
                    "duration": 0.15463912499998855
                },
                {
                    "name": "C#4",
                    "midi": 61,
                    "time": 160.67005087500144,
                    "velocity": 0.4645669291338583,
                    "duration": 0.15463912499998855
                },
                {
                    "name": "D#4",
                    "midi": 63,
                    "time": 160.82469000000143,
                    "velocity": 0.5669291338582677,
                    "duration": 0.30927825000000553
                },
                {
                    "name": "E4",
                    "midi": 64,
                    "time": 161.44324650000144,
                    "velocity": 0.5511811023622047,
                    "duration": 0.30927825000000553
                },
                {
                    "name": "G4",
                    "midi": 67,
                    "time": 161.75252475000144,
                    "velocity": 0.5511811023622047,
                    "duration": 0.30927825000000553
                },
                {
                    "name": "C5",
                    "midi": 72,
                    "time": 162.06180300000145,
                    "velocity": 0.5275590551181102,
                    "duration": 0.30927825000000553
                },
                {
                    "name": "E5",
                    "midi": 76,
                    "time": 162.37108125000145,
                    "velocity": 0.5511811023622047,
                    "duration": 0.30927825000000553
                },
                {
                    "name": "G5",
                    "midi": 79,
                    "time": 162.68035950000146,
                    "velocity": 0.5748031496062992,
                    "duration": 0.30927825000000553
                },
                {
                    "name": "C6",
                    "midi": 84,
                    "time": 162.98963775000146,
                    "velocity": 0.5905511811023622,
                    "duration": 0.30927825000000553
                },
                {
                    "name": "F5",
                    "midi": 77,
                    "time": 163.29891600000147,
                    "velocity": 0.6141732283464567,
                    "duration": 0.6185565000000111
                },
                {
                    "name": "F4",
                    "midi": 65,
                    "time": 163.91747250000148,
                    "velocity": 0.5669291338582677,
                    "duration": 0.30927825000000553
                },
                {
                    "name": "G#3",
                    "midi": 56,
                    "time": 163.91747250000148,
                    "velocity": 0.48031496062992124,
                    "duration": 0.30927825000000553
                },
                {
                    "name": "G#3",
                    "midi": 56,
                    "time": 164.5360290000015,
                    "velocity": 0.48031496062992124,
                    "duration": 0.30927825000000553
                },
                {
                    "name": "F4",
                    "midi": 65,
                    "time": 164.5360290000015,
                    "velocity": 0.5669291338582677,
                    "duration": 0.30927825000000553
                },
                {
                    "name": "G#3",
                    "midi": 56,
                    "time": 165.1545855000015,
                    "velocity": 0.48031496062992124,
                    "duration": 0.30927825000000553
                },
                {
                    "name": "F4",
                    "midi": 65,
                    "time": 165.1545855000015,
                    "velocity": 0.5669291338582677,
                    "duration": 0.30927825000000553
                },
                {
                    "name": "G#3",
                    "midi": 56,
                    "time": 165.7731420000015,
                    "velocity": 0.48031496062992124,
                    "duration": 0.9278347500000166
                },
                {
                    "name": "E4",
                    "midi": 64,
                    "time": 165.7731420000015,
                    "velocity": 0.6141732283464567,
                    "duration": 0.6185565000000111
                },
                {
                    "name": "F4",
                    "midi": 65,
                    "time": 166.39169850000152,
                    "velocity": 0.5433070866141733,
                    "duration": 0.30927825000000553
                },
                {
                    "name": "G#3",
                    "midi": 56,
                    "time": 167.01025500000154,
                    "velocity": 0.4566929133858268,
                    "duration": 0.30927825000000553
                },
                {
                    "name": "F4",
                    "midi": 65,
                    "time": 167.01025500000154,
                    "velocity": 0.5433070866141733,
                    "duration": 0.30927825000000553
                },
                {
                    "name": "G#3",
                    "midi": 56,
                    "time": 167.62881150000155,
                    "velocity": 0.4566929133858268,
                    "duration": 0.30927825000000553
                },
                {
                    "name": "F4",
                    "midi": 65,
                    "time": 167.62881150000155,
                    "velocity": 0.5433070866141733,
                    "duration": 0.30927825000000553
                },
                {
                    "name": "F4",
                    "midi": 65,
                    "time": 168.24736800000156,
                    "velocity": 0.5669291338582677,
                    "duration": 0.9278347499999882
                },
                {
                    "name": "B3",
                    "midi": 59,
                    "time": 168.24736800000156,
                    "velocity": 0.48031496062992124,
                    "duration": 1.2371129999999653
                },
                {
                    "name": "F#4",
                    "midi": 66,
                    "time": 169.17520275000155,
                    "velocity": 0.5039370078740157,
                    "duration": 0.15463912499998855
                },
                {
                    "name": "G#4",
                    "midi": 68,
                    "time": 169.32984187500153,
                    "velocity": 0.4881889763779528,
                    "duration": 0.15463912499998855
                },
                {
                    "name": "F#4",
                    "midi": 66,
                    "time": 169.48448100000152,
                    "velocity": 0.5669291338582677,
                    "duration": 0.9278347500000166
                },
                {
                    "name": "A#3",
                    "midi": 58,
                    "time": 169.48448100000152,
                    "velocity": 0.48031496062992124,
                    "duration": 0.6185565000000111
                },
                {
                    "name": "G#4",
                    "midi": 68,
                    "time": 170.41231575000154,
                    "velocity": 0.5118110236220472,
                    "duration": 0.15463912499998855
                },
                {
                    "name": "A4",
                    "midi": 69,
                    "time": 170.56695487500153,
                    "velocity": 0.4881889763779528,
                    "duration": 0.15463912499998855
                },
                {
                    "name": "G#4",
                    "midi": 68,
                    "time": 170.72159400000152,
                    "velocity": 0.5669291338582677,
                    "duration": 0.30927825000000553
                },
                {
                    "name": "F#4",
                    "midi": 66,
                    "time": 170.72159400000152,
                    "velocity": 0.48031496062992124,
                    "duration": 0.30927825000000553
                },
                {
                    "name": "C4",
                    "midi": 60,
                    "time": 170.72159400000152,
                    "velocity": 0.48031496062992124,
                    "duration": 0.30927825000000553
                },
                {
                    "name": "C5",
                    "midi": 72,
                    "time": 171.34015050000153,
                    "velocity": 0.5511811023622047,
                    "duration": 0.30927825000000553
                },
                {
                    "name": "D#5",
                    "midi": 75,
                    "time": 171.64942875000153,
                    "velocity": 0.5511811023622047,
                    "duration": 0.30927825000000553
                },
                {
                    "name": "G#5",
                    "midi": 80,
                    "time": 171.95870700000154,
                    "velocity": 0.5275590551181102,
                    "duration": 0.30927825000000553
                },
                {
                    "name": "C6",
                    "midi": 84,
                    "time": 172.26798525000154,
                    "velocity": 0.5511811023622047,
                    "duration": 0.30927825000000553
                },
                {
                    "name": "D#6",
                    "midi": 87,
                    "time": 172.57726350000155,
                    "velocity": 0.5748031496062992,
                    "duration": 0.30927825000000553
                },
                {
                    "name": "G#6",
                    "midi": 92,
                    "time": 172.88654175000156,
                    "velocity": 0.5905511811023622,
                    "duration": 0.30927825000000553
                },
                {
                    "name": "C#6",
                    "midi": 85,
                    "time": 173.19582000000156,
                    "velocity": 0.6141732283464567,
                    "duration": 0.6185565000000111
                },
                {
                    "name": "F4",
                    "midi": 65,
                    "time": 173.81437650000157,
                    "velocity": 0.5669291338582677,
                    "duration": 0.30927825000000553
                },
                {
                    "name": "G#3",
                    "midi": 56,
                    "time": 173.81437650000157,
                    "velocity": 0.48031496062992124,
                    "duration": 0.30927825000000553
                },
                {
                    "name": "G#3",
                    "midi": 56,
                    "time": 174.43293300000158,
                    "velocity": 0.48031496062992124,
                    "duration": 0.30927825000000553
                },
                {
                    "name": "F4",
                    "midi": 65,
                    "time": 174.43293300000158,
                    "velocity": 0.5669291338582677,
                    "duration": 0.30927825000000553
                },
                {
                    "name": "G#3",
                    "midi": 56,
                    "time": 175.0514895000016,
                    "velocity": 0.48031496062992124,
                    "duration": 0.30927825000000553
                },
                {
                    "name": "F4",
                    "midi": 65,
                    "time": 175.0514895000016,
                    "velocity": 0.5669291338582677,
                    "duration": 0.30927825000000553
                },
                {
                    "name": "E4",
                    "midi": 64,
                    "time": 175.6700460000016,
                    "velocity": 0.6141732283464567,
                    "duration": 0.6185565000000111
                },
                {
                    "name": "G#3",
                    "midi": 56,
                    "time": 175.6700460000016,
                    "velocity": 0.48031496062992124,
                    "duration": 0.9278347500000166
                },
                {
                    "name": "F4",
                    "midi": 65,
                    "time": 176.28860250000162,
                    "velocity": 0.5433070866141733,
                    "duration": 0.30927825000000553
                },
                {
                    "name": "G#3",
                    "midi": 56,
                    "time": 176.90715900000163,
                    "velocity": 0.4566929133858268,
                    "duration": 0.30927825000000553
                },
                {
                    "name": "F4",
                    "midi": 65,
                    "time": 176.90715900000163,
                    "velocity": 0.5433070866141733,
                    "duration": 0.30927825000000553
                },
                {
                    "name": "F4",
                    "midi": 65,
                    "time": 177.52571550000164,
                    "velocity": 0.5433070866141733,
                    "duration": 0.30927825000000553
                },
                {
                    "name": "G#3",
                    "midi": 56,
                    "time": 177.52571550000164,
                    "velocity": 0.4566929133858268,
                    "duration": 0.30927825000000553
                },
                {
                    "name": "D4",
                    "midi": 62,
                    "time": 178.14427200000165,
                    "velocity": 0.48031496062992124,
                    "duration": 0.6185565000000111
                },
                {
                    "name": "F4",
                    "midi": 65,
                    "time": 178.14427200000165,
                    "velocity": 0.48031496062992124,
                    "duration": 0.6185565000000111
                },
                {
                    "name": "B4",
                    "midi": 71,
                    "time": 178.14427200000165,
                    "velocity": 0.6141732283464567,
                    "duration": 0.6185565000000111
                },
                {
                    "name": "F4",
                    "midi": 65,
                    "time": 178.76282850000166,
                    "velocity": 0.4566929133858268,
                    "duration": 0.30927825000000553
                },
                {
                    "name": "D4",
                    "midi": 62,
                    "time": 178.76282850000166,
                    "velocity": 0.4566929133858268,
                    "duration": 0.30927825000000553
                },
                {
                    "name": "A#4",
                    "midi": 70,
                    "time": 178.76282850000166,
                    "velocity": 0.5433070866141733,
                    "duration": 0.30927825000000553
                },
                {
                    "name": "D4",
                    "midi": 62,
                    "time": 179.38138500000167,
                    "velocity": 0.4566929133858268,
                    "duration": 0.30927825000000553
                },
                {
                    "name": "A#4",
                    "midi": 70,
                    "time": 179.38138500000167,
                    "velocity": 0.5433070866141733,
                    "duration": 0.30927825000000553
                },
                {
                    "name": "F4",
                    "midi": 65,
                    "time": 179.38138500000167,
                    "velocity": 0.4566929133858268,
                    "duration": 0.30927825000000553
                },
                {
                    "name": "D4",
                    "midi": 62,
                    "time": 179.99994150000168,
                    "velocity": 0.4566929133858268,
                    "duration": 0.30927825000000553
                },
                {
                    "name": "F4",
                    "midi": 65,
                    "time": 179.99994150000168,
                    "velocity": 0.4566929133858268,
                    "duration": 0.30927825000000553
                },
                {
                    "name": "A#4",
                    "midi": 70,
                    "time": 179.99994150000168,
                    "velocity": 0.5433070866141733,
                    "duration": 0.30927825000000553
                },
                {
                    "name": "D#4",
                    "midi": 63,
                    "time": 180.6184980000017,
                    "velocity": 0.48031496062992124,
                    "duration": 0.30927825000000553
                },
                {
                    "name": "G4",
                    "midi": 67,
                    "time": 180.6184980000017,
                    "velocity": 0.5669291338582677,
                    "duration": 0.30927825000000553
                },
                {
                    "name": "G4",
                    "midi": 67,
                    "time": 181.2370545000017,
                    "velocity": 0.5511811023622047,
                    "duration": 0.6185565000000111
                },
                {
                    "name": "A#4",
                    "midi": 70,
                    "time": 181.5463327500017,
                    "velocity": 0.5511811023622047,
                    "duration": 0.30927825000000553
                },
                {
                    "name": "D#5",
                    "midi": 75,
                    "time": 181.85561100000172,
                    "velocity": 0.5275590551181102,
                    "duration": 0.30927825000000553
                },
                {
                    "name": "G5",
                    "midi": 79,
                    "time": 182.16488925000172,
                    "velocity": 0.5511811023622047,
                    "duration": 0.30927825000000553
                },
                {
                    "name": "A#5",
                    "midi": 82,
                    "time": 182.47416750000173,
                    "velocity": 0.5748031496062992,
                    "duration": 0.30927825000000553
                },
                {
                    "name": "D#6",
                    "midi": 87,
                    "time": 182.78344575000173,
                    "velocity": 0.5905511811023622,
                    "duration": 0.30927825000000553
                },
                {
                    "name": "C#5",
                    "midi": 73,
                    "time": 183.09272400000174,
                    "velocity": 0.6141732283464567,
                    "duration": 0.6185565000000111
                },
                {
                    "name": "G4",
                    "midi": 67,
                    "time": 183.09272400000174,
                    "velocity": 0.48031496062992124,
                    "duration": 0.6185565000000111
                },
                {
                    "name": "E4",
                    "midi": 64,
                    "time": 183.09272400000174,
                    "velocity": 0.48031496062992124,
                    "duration": 0.6185565000000111
                },
                {
                    "name": "C5",
                    "midi": 72,
                    "time": 183.71128050000175,
                    "velocity": 0.5433070866141733,
                    "duration": 0.30927825000000553
                },
                {
                    "name": "G4",
                    "midi": 67,
                    "time": 183.71128050000175,
                    "velocity": 0.4566929133858268,
                    "duration": 0.30927825000000553
                },
                {
                    "name": "E4",
                    "midi": 64,
                    "time": 183.71128050000175,
                    "velocity": 0.4566929133858268,
                    "duration": 0.30927825000000553
                },
                {
                    "name": "G4",
                    "midi": 67,
                    "time": 184.32983700000176,
                    "velocity": 0.4566929133858268,
                    "duration": 0.30927825000000553
                },
                {
                    "name": "C5",
                    "midi": 72,
                    "time": 184.32983700000176,
                    "velocity": 0.5433070866141733,
                    "duration": 0.30927825000000553
                },
                {
                    "name": "E4",
                    "midi": 64,
                    "time": 184.32983700000176,
                    "velocity": 0.4566929133858268,
                    "duration": 0.30927825000000553
                },
                {
                    "name": "G4",
                    "midi": 67,
                    "time": 184.94839350000177,
                    "velocity": 0.4566929133858268,
                    "duration": 0.30927825000000553
                },
                {
                    "name": "E4",
                    "midi": 64,
                    "time": 184.94839350000177,
                    "velocity": 0.4566929133858268,
                    "duration": 0.30927825000000553
                },
                {
                    "name": "C5",
                    "midi": 72,
                    "time": 184.94839350000177,
                    "velocity": 0.5433070866141733,
                    "duration": 0.30927825000000553
                },
                {
                    "name": "F4",
                    "midi": 65,
                    "time": 185.56695000000178,
                    "velocity": 0.48031496062992124,
                    "duration": 0.30927825000000553
                },
                {
                    "name": "A4",
                    "midi": 69,
                    "time": 185.56695000000178,
                    "velocity": 0.5669291338582677,
                    "duration": 0.30927825000000553
                },
                {
                    "name": "A4",
                    "midi": 69,
                    "time": 186.1855065000018,
                    "velocity": 0.5511811023622047,
                    "duration": 0.6185565000000111
                },
                {
                    "name": "C5",
                    "midi": 72,
                    "time": 186.4947847500018,
                    "velocity": 0.5511811023622047,
                    "duration": 0.30927825000000553
                },
                {
                    "name": "F5",
                    "midi": 77,
                    "time": 186.8040630000018,
                    "velocity": 0.5275590551181102,
                    "duration": 0.30927825000000553
                },
                {
                    "name": "A5",
                    "midi": 81,
                    "time": 187.1133412500018,
                    "velocity": 0.5511811023622047,
                    "duration": 0.30927825000000553
                },
                {
                    "name": "C6",
                    "midi": 84,
                    "time": 187.42261950000182,
                    "velocity": 0.5748031496062992,
                    "duration": 0.30927825000000553
                },
                {
                    "name": "F6",
                    "midi": 89,
                    "time": 187.73189775000182,
                    "velocity": 0.5905511811023622,
                    "duration": 0.30927825000000553
                },
                {
                    "name": "F#5",
                    "midi": 78,
                    "time": 188.04117600000183,
                    "velocity": 0.5748031496062992,
                    "duration": 0.6185565000000111
                },
                {
                    "name": "F#6",
                    "midi": 90,
                    "time": 188.04117600000183,
                    "velocity": 0.6850393700787402,
                    "duration": 0.6185565000000111
                },
                {
                    "name": "F6",
                    "midi": 89,
                    "time": 188.65973250000184,
                    "velocity": 0.5905511811023622,
                    "duration": 0.4639173749999941
                },
                {
                    "name": "F5",
                    "midi": 77,
                    "time": 188.65973250000184,
                    "velocity": 0.49606299212598426,
                    "duration": 0.4639173749999941
                },
                {
                    "name": "F5",
                    "midi": 77,
                    "time": 189.27828900000182,
                    "velocity": 0.5748031496062992,
                    "duration": 0.6185565000000111
                },
                {
                    "name": "F6",
                    "midi": 89,
                    "time": 189.27828900000182,
                    "velocity": 0.6850393700787402,
                    "duration": 0.6185565000000111
                },
                {
                    "name": "E6",
                    "midi": 88,
                    "time": 189.89684550000183,
                    "velocity": 0.5905511811023622,
                    "duration": 0.4639173749999941
                },
                {
                    "name": "E5",
                    "midi": 76,
                    "time": 189.89684550000183,
                    "velocity": 0.49606299212598426,
                    "duration": 0.4639173749999941
                },
                {
                    "name": "E6",
                    "midi": 88,
                    "time": 190.5154020000018,
                    "velocity": 0.6771653543307087,
                    "duration": 0.6185565000000111
                },
                {
                    "name": "E5",
                    "midi": 76,
                    "time": 190.5154020000018,
                    "velocity": 0.5748031496062992,
                    "duration": 0.6185565000000111
                },
                {
                    "name": "F6",
                    "midi": 89,
                    "time": 191.13395850000182,
                    "velocity": 0.5511811023622047,
                    "duration": 0.4639173749999941
                },
                {
                    "name": "F5",
                    "midi": 77,
                    "time": 191.13395850000182,
                    "velocity": 0.4645669291338583,
                    "duration": 0.4639173749999941
                },
                {
                    "name": "F6",
                    "midi": 89,
                    "time": 191.7525150000018,
                    "velocity": 0.6141732283464567,
                    "duration": 0.6185565000000111
                },
                {
                    "name": "F5",
                    "midi": 77,
                    "time": 191.7525150000018,
                    "velocity": 0.5196850393700787,
                    "duration": 0.6185565000000111
                },
                {
                    "name": "C5",
                    "midi": 72,
                    "time": 192.37107150000182,
                    "velocity": 0.4645669291338583,
                    "duration": 0.4639173749999941
                },
                {
                    "name": "C6",
                    "midi": 84,
                    "time": 192.37107150000182,
                    "velocity": 0.5511811023622047,
                    "duration": 0.4639173749999941
                },
                {
                    "name": "A#5",
                    "midi": 82,
                    "time": 192.9896280000018,
                    "velocity": 0.6062992125984252,
                    "duration": 0.6185565000000111
                },
                {
                    "name": "A#4",
                    "midi": 70,
                    "time": 192.9896280000018,
                    "velocity": 0.5118110236220472,
                    "duration": 0.6185565000000111
                },
                {
                    "name": "A5",
                    "midi": 81,
                    "time": 193.6081845000018,
                    "velocity": 0.5354330708661418,
                    "duration": 0.4639173749999941
                },
                {
                    "name": "A4",
                    "midi": 69,
                    "time": 193.6081845000018,
                    "velocity": 0.44881889763779526,
                    "duration": 0.4639173749999941
                },
                {
                    "name": "A4",
                    "midi": 69,
                    "time": 194.2267410000018,
                    "velocity": 0.44881889763779526,
                    "duration": 0.6185565000000111
                },
                {
                    "name": "A5",
                    "midi": 81,
                    "time": 194.2267410000018,
                    "velocity": 0.5354330708661418,
                    "duration": 0.6185565000000111
                },
                {
                    "name": "G5",
                    "midi": 79,
                    "time": 194.8452975000018,
                    "velocity": 0.5354330708661418,
                    "duration": 0.4639173749999941
                },
                {
                    "name": "G4",
                    "midi": 67,
                    "time": 194.8452975000018,
                    "velocity": 0.44881889763779526,
                    "duration": 0.4639173749999941
                },
                {
                    "name": "G5",
                    "midi": 79,
                    "time": 195.4638540000018,
                    "velocity": 0.5826771653543307,
                    "duration": 0.6185565000000111
                },
                {
                    "name": "G4",
                    "midi": 67,
                    "time": 195.4638540000018,
                    "velocity": 0.4881889763779528,
                    "duration": 0.6185565000000111
                },
                {
                    "name": "F5",
                    "midi": 77,
                    "time": 196.0824105000018,
                    "velocity": 0.5039370078740157,
                    "duration": 0.31185556874999065
                },
                {
                    "name": "F4",
                    "midi": 65,
                    "time": 196.0824105000018,
                    "velocity": 0.4251968503937008,
                    "duration": 0.31185556874999065
                },
                {
                    "name": "F5",
                    "midi": 77,
                    "time": 196.70096700000178,
                    "velocity": 0.5275590551181102,
                    "duration": 0.31185556874999065
                },
                {
                    "name": "F4",
                    "midi": 65,
                    "time": 196.70096700000178,
                    "velocity": 0.4409448818897638,
                    "duration": 0.31185556874999065
                },
                {
                    "name": "F4",
                    "midi": 65,
                    "time": 197.31952350000176,
                    "velocity": 0.4251968503937008,
                    "duration": 0.31185556874999065
                },
                {
                    "name": "F5",
                    "midi": 77,
                    "time": 197.31952350000176,
                    "velocity": 0.5039370078740157,
                    "duration": 0.31185556874999065
                },
                {
                    "name": "F#4",
                    "midi": 66,
                    "time": 197.93808000000175,
                    "velocity": 0.4566929133858268,
                    "duration": 0.6185565000000111
                },
                {
                    "name": "F#5",
                    "midi": 78,
                    "time": 197.93808000000175,
                    "velocity": 0.5433070866141733,
                    "duration": 0.6185565000000111
                },
                {
                    "name": "F4",
                    "midi": 65,
                    "time": 198.55663650000176,
                    "velocity": 0.3937007874015748,
                    "duration": 0.4639173749999941
                },
                {
                    "name": "F5",
                    "midi": 77,
                    "time": 198.55663650000176,
                    "velocity": 0.47244094488188976,
                    "duration": 0.4639173749999941
                },
                {
                    "name": "F5",
                    "midi": 77,
                    "time": 199.17519300000174,
                    "velocity": 0.5433070866141733,
                    "duration": 0.6185565000000111
                },
                {
                    "name": "F4",
                    "midi": 65,
                    "time": 199.17519300000174,
                    "velocity": 0.4566929133858268,
                    "duration": 0.6185565000000111
                },
                {
                    "name": "E5",
                    "midi": 76,
                    "time": 199.79374950000175,
                    "velocity": 0.47244094488188976,
                    "duration": 0.4639173749999941
                },
                {
                    "name": "E4",
                    "midi": 64,
                    "time": 199.79374950000175,
                    "velocity": 0.3937007874015748,
                    "duration": 0.4639173749999941
                },
                {
                    "name": "E4",
                    "midi": 64,
                    "time": 200.41230600000173,
                    "velocity": 0.4566929133858268,
                    "duration": 0.6185565000000111
                },
                {
                    "name": "E5",
                    "midi": 76,
                    "time": 200.41230600000173,
                    "velocity": 0.5354330708661418,
                    "duration": 0.6185565000000111
                },
                {
                    "name": "F4",
                    "midi": 65,
                    "time": 201.03086250000175,
                    "velocity": 0.3700787401574803,
                    "duration": 0.4639173749999941
                },
                {
                    "name": "F5",
                    "midi": 77,
                    "time": 201.03086250000175,
                    "velocity": 0.4409448818897638,
                    "duration": 0.4639173749999941
                },
                {
                    "name": "F5",
                    "midi": 77,
                    "time": 201.64941900000173,
                    "velocity": 0.4881889763779528,
                    "duration": 0.6185565000000111
                },
                {
                    "name": "F4",
                    "midi": 65,
                    "time": 201.64941900000173,
                    "velocity": 0.4094488188976378,
                    "duration": 0.6185565000000111
                },
                {
                    "name": "C5",
                    "midi": 72,
                    "time": 202.26797550000174,
                    "velocity": 0.4409448818897638,
                    "duration": 0.4639173749999941
                },
                {
                    "name": "C4",
                    "midi": 60,
                    "time": 202.26797550000174,
                    "velocity": 0.3700787401574803,
                    "duration": 0.4639173749999941
                },
                {
                    "name": "A#3",
                    "midi": 58,
                    "time": 202.88653200000172,
                    "velocity": 0.3858267716535433,
                    "duration": 0.6185565000000111
                },
                {
                    "name": "A#4",
                    "midi": 70,
                    "time": 202.88653200000172,
                    "velocity": 0.44881889763779526,
                    "duration": 0.6185565000000111
                },
                {
                    "name": "A3",
                    "midi": 57,
                    "time": 203.50508850000173,
                    "velocity": 0.33070866141732286,
                    "duration": 0.4639173749999941
                },
                {
                    "name": "A4",
                    "midi": 69,
                    "time": 203.50508850000173,
                    "velocity": 0.3937007874015748,
                    "duration": 0.4639173749999941
                },
                {
                    "name": "A3",
                    "midi": 57,
                    "time": 204.12364500000172,
                    "velocity": 0.3228346456692913,
                    "duration": 0.6185565000000111
                },
                {
                    "name": "A4",
                    "midi": 69,
                    "time": 204.12364500000172,
                    "velocity": 0.3858267716535433,
                    "duration": 0.6185565000000111
                },
                {
                    "name": "G4",
                    "midi": 67,
                    "time": 204.74220150000173,
                    "velocity": 0.3779527559055118,
                    "duration": 0.4639173749999941
                },
                {
                    "name": "G3",
                    "midi": 55,
                    "time": 204.74220150000173,
                    "velocity": 0.31496062992125984,
                    "duration": 0.4639173749999941
                },
                {
                    "name": "G4",
                    "midi": 67,
                    "time": 205.3607580000017,
                    "velocity": 0.4015748031496063,
                    "duration": 0.6185565000000111
                },
                {
                    "name": "G3",
                    "midi": 55,
                    "time": 205.3607580000017,
                    "velocity": 0.33858267716535434,
                    "duration": 0.6185565000000111
                },
                {
                    "name": "F3",
                    "midi": 53,
                    "time": 205.97931450000172,
                    "velocity": 0.28346456692913385,
                    "duration": 0.31185556874999065
                },
                {
                    "name": "F4",
                    "midi": 65,
                    "time": 205.97931450000172,
                    "velocity": 0.33858267716535434,
                    "duration": 0.31185556874999065
                },
                {
                    "name": "F3",
                    "midi": 53,
                    "time": 206.5978710000017,
                    "velocity": 0.28346456692913385,
                    "duration": 0.31185556874999065
                },
                {
                    "name": "F4",
                    "midi": 65,
                    "time": 206.5978710000017,
                    "velocity": 0.3464566929133858,
                    "duration": 0.31185556874999065
                },
                {
                    "name": "F3",
                    "midi": 53,
                    "time": 207.21642750000169,
                    "velocity": 0.2755905511811024,
                    "duration": 0.31185556874999065
                },
                {
                    "name": "F4",
                    "midi": 65,
                    "time": 207.21642750000169,
                    "velocity": 0.3228346456692913,
                    "duration": 0.31185556874999065
                },
                {
                    "name": "F3",
                    "midi": 53,
                    "time": 207.83498400000167,
                    "velocity": 0.25196850393700787,
                    "duration": 0.31185556874999065
                },
                {
                    "name": "F4",
                    "midi": 65,
                    "time": 207.83498400000167,
                    "velocity": 0.30708661417322836,
                    "duration": 0.31185556874999065
                },
                {
                    "name": "F4",
                    "midi": 65,
                    "time": 208.45354050000165,
                    "velocity": 0.28346456692913385,
                    "duration": 0.31185556874999065
                },
                {
                    "name": "F3",
                    "midi": 53,
                    "time": 208.45354050000165,
                    "velocity": 0.2440944881889764,
                    "duration": 0.31185556874999065
                },
                {
                    "name": "F3",
                    "midi": 53,
                    "time": 209.07209700000163,
                    "velocity": 0.25196850393700787,
                    "duration": 0.31185556874999065
                },
                {
                    "name": "F4",
                    "midi": 65,
                    "time": 209.07209700000163,
                    "velocity": 0.30708661417322836,
                    "duration": 0.31185556874999065
                },
                {
                    "name": "F3",
                    "midi": 53,
                    "time": 209.69065350000162,
                    "velocity": 0.2440944881889764,
                    "duration": 0.31185556874999065
                },
                {
                    "name": "F4",
                    "midi": 65,
                    "time": 209.69065350000162,
                    "velocity": 0.28346456692913385,
                    "duration": 0.31185556874999065
                },
                {
                    "name": "F4",
                    "midi": 65,
                    "time": 210.3092100000016,
                    "velocity": 0.30708661417322836,
                    "duration": 0.31185556874999065
                },
                {
                    "name": "F3",
                    "midi": 53,
                    "time": 210.3092100000016,
                    "velocity": 0.25196850393700787,
                    "duration": 0.31185556874999065
                },
                {
                    "name": "F3",
                    "midi": 53,
                    "time": 210.92776650000158,
                    "velocity": 0.2440944881889764,
                    "duration": 0.31185556874999065
                },
                {
                    "name": "F4",
                    "midi": 65,
                    "time": 210.92776650000158,
                    "velocity": 0.28346456692913385,
                    "duration": 0.31185556874999065
                },
                {
                    "name": "F4",
                    "midi": 65,
                    "time": 211.54632300000156,
                    "velocity": 0.30708661417322836,
                    "duration": 0.31185556874999065
                },
                {
                    "name": "F3",
                    "midi": 53,
                    "time": 211.54632300000156,
                    "velocity": 0.25196850393700787,
                    "duration": 0.31185556874999065
                },
                {
                    "name": "F4",
                    "midi": 65,
                    "time": 212.16487950000155,
                    "velocity": 0.28346456692913385,
                    "duration": 0.31185556874999065
                },
                {
                    "name": "F3",
                    "midi": 53,
                    "time": 212.16487950000155,
                    "velocity": 0.2440944881889764,
                    "duration": 0.31185556874999065
                },
                {
                    "name": "A#3",
                    "midi": 58,
                    "time": 212.78343600000153,
                    "velocity": 0.16535433070866143,
                    "duration": 1.2371129999999937
                },
                {
                    "name": "E4",
                    "midi": 64,
                    "time": 212.78343600000153,
                    "velocity": 0.25984251968503935,
                    "duration": 0.6185565000000111
                },
                {
                    "name": "G3",
                    "midi": 55,
                    "time": 212.78343600000153,
                    "velocity": 0.16535433070866143,
                    "duration": 1.2371129999999937
                },
                {
                    "name": "C#4",
                    "midi": 61,
                    "time": 212.78343600000153,
                    "velocity": 0.16535433070866143,
                    "duration": 1.2371129999999937
                },
                {
                    "name": "D#4",
                    "midi": 63,
                    "time": 213.40199250000154,
                    "velocity": 0.23622047244094488,
                    "duration": 0.31185556874999065
                },
                {
                    "name": "D#4",
                    "midi": 63,
                    "time": 214.02054900000152,
                    "velocity": 0.25984251968503935,
                    "duration": 0.3118555687500191
                },
                {
                    "name": "A#3",
                    "midi": 58,
                    "time": 214.02054900000152,
                    "velocity": 0.16535433070866143,
                    "duration": 0.30927825000000553
                },
                {
                    "name": "G3",
                    "midi": 55,
                    "time": 214.02054900000152,
                    "velocity": 0.16535433070866143,
                    "duration": 0.30927825000000553
                },
                {
                    "name": "C#4",
                    "midi": 61,
                    "time": 214.02054900000152,
                    "velocity": 0.16535433070866143,
                    "duration": 0.3118555687500191
                },
                {
                    "name": "D#4",
                    "midi": 63,
                    "time": 214.63910550000153,
                    "velocity": 0.23622047244094488,
                    "duration": 0.3118555687500191
                },
                {
                    "name": "C#4",
                    "midi": 61,
                    "time": 214.63910550000153,
                    "velocity": 0.15748031496062992,
                    "duration": 0.3118555687500191
                },
                {
                    "name": "G3",
                    "midi": 55,
                    "time": 214.63910550000153,
                    "velocity": 0.15748031496062992,
                    "duration": 0.30927825000000553
                },
                {
                    "name": "A#3",
                    "midi": 58,
                    "time": 214.63910550000153,
                    "velocity": 0.15748031496062992,
                    "duration": 0.30927825000000553
                },
                {
                    "name": "C#4",
                    "midi": 61,
                    "time": 215.25766200000155,
                    "velocity": 0.16535433070866143,
                    "duration": 0.3118555687500191
                },
                {
                    "name": "D#4",
                    "midi": 63,
                    "time": 215.25766200000155,
                    "velocity": 0.25984251968503935,
                    "duration": 0.3118555687500191
                },
                {
                    "name": "G3",
                    "midi": 55,
                    "time": 215.25766200000155,
                    "velocity": 0.16535433070866143,
                    "duration": 0.30927825000000553
                },
                {
                    "name": "A#3",
                    "midi": 58,
                    "time": 215.25766200000155,
                    "velocity": 0.16535433070866143,
                    "duration": 0.30927825000000553
                },
                {
                    "name": "C#4",
                    "midi": 61,
                    "time": 215.87621850000156,
                    "velocity": 0.15748031496062992,
                    "duration": 0.3118555687500191
                },
                {
                    "name": "A#3",
                    "midi": 58,
                    "time": 215.87621850000156,
                    "velocity": 0.15748031496062992,
                    "duration": 0.30927825000000553
                },
                {
                    "name": "G3",
                    "midi": 55,
                    "time": 215.87621850000156,
                    "velocity": 0.15748031496062992,
                    "duration": 0.30927825000000553
                },
                {
                    "name": "D#4",
                    "midi": 63,
                    "time": 215.87621850000156,
                    "velocity": 0.23622047244094488,
                    "duration": 0.3118555687500191
                },
                {
                    "name": "D#4",
                    "midi": 63,
                    "time": 216.49477500000157,
                    "velocity": 0.25984251968503935,
                    "duration": 0.3118555687500191
                },
                {
                    "name": "A#3",
                    "midi": 58,
                    "time": 216.49477500000157,
                    "velocity": 0.16535433070866143,
                    "duration": 0.30927825000000553
                },
                {
                    "name": "G3",
                    "midi": 55,
                    "time": 216.49477500000157,
                    "velocity": 0.16535433070866143,
                    "duration": 0.30927825000000553
                },
                {
                    "name": "C#4",
                    "midi": 61,
                    "time": 216.49477500000157,
                    "velocity": 0.16535433070866143,
                    "duration": 0.3118555687500191
                },
                {
                    "name": "G3",
                    "midi": 55,
                    "time": 217.11333150000158,
                    "velocity": 0.15748031496062992,
                    "duration": 0.30927825000000553
                },
                {
                    "name": "C#4",
                    "midi": 61,
                    "time": 217.11333150000158,
                    "velocity": 0.15748031496062992,
                    "duration": 0.3118555687500191
                },
                {
                    "name": "A#3",
                    "midi": 58,
                    "time": 217.11333150000158,
                    "velocity": 0.15748031496062992,
                    "duration": 0.30927825000000553
                },
                {
                    "name": "D#4",
                    "midi": 63,
                    "time": 217.11333150000158,
                    "velocity": 0.23622047244094488,
                    "duration": 0.3118555687500191
                },
                {
                    "name": "G#3",
                    "midi": 56,
                    "time": 217.7318880000016,
                    "velocity": 0.2204724409448819,
                    "duration": 0.6185565000000111
                },
                {
                    "name": "C4",
                    "midi": 60,
                    "time": 217.7318880000016,
                    "velocity": 0.2204724409448819,
                    "duration": 0.6185565000000111
                },
                {
                    "name": "D#4",
                    "midi": 63,
                    "time": 217.7318880000016,
                    "velocity": 0.2755905511811024,
                    "duration": 0.6185565000000111
                },
                {
                    "name": "G#4",
                    "midi": 68,
                    "time": 218.3504445000016,
                    "velocity": 0.18110236220472442,
                    "duration": 0.4639173749999941
                },
                {
                    "name": "D#4",
                    "midi": 63,
                    "time": 218.3504445000016,
                    "velocity": 0.18110236220472442,
                    "duration": 0.4639173749999941
                },
                {
                    "name": "C5",
                    "midi": 72,
                    "time": 218.3504445000016,
                    "velocity": 0.2283464566929134,
                    "duration": 0.4639173749999941
                },
                {
                    "name": "G#4",
                    "midi": 68,
                    "time": 218.96900100000158,
                    "velocity": 0.18110236220472442,
                    "duration": 0.4639173749999941
                },
                {
                    "name": "D#4",
                    "midi": 63,
                    "time": 218.96900100000158,
                    "velocity": 0.18110236220472442,
                    "duration": 0.4639173749999941
                },
                {
                    "name": "C5",
                    "midi": 72,
                    "time": 218.96900100000158,
                    "velocity": 0.2283464566929134,
                    "duration": 0.4639173749999941
                },
                {
                    "name": "D#4",
                    "midi": 63,
                    "time": 219.58755750000157,
                    "velocity": 0.18110236220472442,
                    "duration": 0.4639173749999941
                },
                {
                    "name": "G#4",
                    "midi": 68,
                    "time": 219.58755750000157,
                    "velocity": 0.18110236220472442,
                    "duration": 0.4639173749999941
                },
                {
                    "name": "C5",
                    "midi": 72,
                    "time": 219.58755750000157,
                    "velocity": 0.2283464566929134,
                    "duration": 0.4639173749999941
                },
                {
                    "name": "B4",
                    "midi": 71,
                    "time": 220.20611400000155,
                    "velocity": 0.25984251968503935,
                    "duration": 0.6185565000000111
                },
                {
                    "name": "G#4",
                    "midi": 68,
                    "time": 220.20611400000155,
                    "velocity": 0.2047244094488189,
                    "duration": 0.6185565000000111
                },
                {
                    "name": "D4",
                    "midi": 62,
                    "time": 220.20611400000155,
                    "velocity": 0.2047244094488189,
                    "duration": 0.6185565000000111
                },
                {
                    "name": "C5",
                    "midi": 72,
                    "time": 220.82467050000156,
                    "velocity": 0.2204724409448819,
                    "duration": 0.4639173749999941
                },
                {
                    "name": "D#4",
                    "midi": 63,
                    "time": 220.82467050000156,
                    "velocity": 0.1732283464566929,
                    "duration": 0.4639173749999941
                },
                {
                    "name": "G#4",
                    "midi": 68,
                    "time": 220.82467050000156,
                    "velocity": 0.1732283464566929,
                    "duration": 0.4639173749999941
                },
                {
                    "name": "C5",
                    "midi": 72,
                    "time": 221.44322700000154,
                    "velocity": 0.2440944881889764,
                    "duration": 0.4639173749999941
                },
                {
                    "name": "G#4",
                    "midi": 68,
                    "time": 221.44322700000154,
                    "velocity": 0.1889763779527559,
                    "duration": 0.4639173749999941
                },
                {
                    "name": "D#4",
                    "midi": 63,
                    "time": 221.44322700000154,
                    "velocity": 0.1889763779527559,
                    "duration": 0.4639173749999941
                },
                {
                    "name": "G#4",
                    "midi": 68,
                    "time": 222.06178350000152,
                    "velocity": 0.2125984251968504,
                    "duration": 0.4639173749999941
                },
                {
                    "name": "C5",
                    "midi": 72,
                    "time": 222.06178350000152,
                    "velocity": 0.2677165354330709,
                    "duration": 0.4639173749999941
                },
                {
                    "name": "D#4",
                    "midi": 63,
                    "time": 222.06178350000152,
                    "velocity": 0.2125984251968504,
                    "duration": 0.4639173749999941
                },
                {
                    "name": "D#5",
                    "midi": 75,
                    "time": 222.6803400000015,
                    "velocity": 0.2992125984251969,
                    "duration": 0.6185565000000111
                },
                {
                    "name": "G#4",
                    "midi": 68,
                    "time": 222.6803400000015,
                    "velocity": 0.23622047244094488,
                    "duration": 0.6185565000000111
                },
                {
                    "name": "F#4",
                    "midi": 66,
                    "time": 222.6803400000015,
                    "velocity": 0.23622047244094488,
                    "duration": 0.6185565000000111
                },
                {
                    "name": "C#5",
                    "midi": 73,
                    "time": 223.29889650000152,
                    "velocity": 0.25196850393700787,
                    "duration": 0.4639173749999941
                },
                {
                    "name": "F4",
                    "midi": 65,
                    "time": 223.29889650000152,
                    "velocity": 0.1968503937007874,
                    "duration": 0.4639173749999941
                },
                {
                    "name": "G#4",
                    "midi": 68,
                    "time": 223.29889650000152,
                    "velocity": 0.1968503937007874,
                    "duration": 0.4639173749999941
                },
                {
                    "name": "G#4",
                    "midi": 68,
                    "time": 223.9174530000015,
                    "velocity": 0.1968503937007874,
                    "duration": 0.4639173749999941
                },
                {
                    "name": "C#5",
                    "midi": 73,
                    "time": 223.9174530000015,
                    "velocity": 0.25196850393700787,
                    "duration": 0.4639173749999941
                },
                {
                    "name": "F4",
                    "midi": 65,
                    "time": 223.9174530000015,
                    "velocity": 0.1968503937007874,
                    "duration": 0.4639173749999941
                },
                {
                    "name": "F4",
                    "midi": 65,
                    "time": 224.53600950000148,
                    "velocity": 0.1968503937007874,
                    "duration": 0.4639173749999941
                },
                {
                    "name": "G#4",
                    "midi": 68,
                    "time": 224.53600950000148,
                    "velocity": 0.1968503937007874,
                    "duration": 0.4639173749999941
                },
                {
                    "name": "C#5",
                    "midi": 73,
                    "time": 224.53600950000148,
                    "velocity": 0.25196850393700787,
                    "duration": 0.4639173749999941
                },
                {
                    "name": "C#5",
                    "midi": 73,
                    "time": 225.15456600000147,
                    "velocity": 0.25984251968503935,
                    "duration": 0.6185565000000111
                },
                {
                    "name": "F4",
                    "midi": 65,
                    "time": 225.15456600000147,
                    "velocity": 0.15748031496062992,
                    "duration": 0.6185565000000111
                },
                {
                    "name": "G#4",
                    "midi": 68,
                    "time": 225.15456600000147,
                    "velocity": 0.2047244094488189,
                    "duration": 0.6185565000000111
                },
                {
                    "name": "C5",
                    "midi": 72,
                    "time": 225.77312250000148,
                    "velocity": 0.23622047244094488,
                    "duration": 0.6185565000000111
                },
                {
                    "name": "F4",
                    "midi": 65,
                    "time": 225.77312250000148,
                    "velocity": 0.1889763779527559,
                    "duration": 0.6185565000000111
                },
                {
                    "name": "D#4",
                    "midi": 63,
                    "time": 225.77312250000148,
                    "velocity": 0.1889763779527559,
                    "duration": 0.6185565000000111
                },
                {
                    "name": "F4",
                    "midi": 65,
                    "time": 226.3916790000015,
                    "velocity": 0.1889763779527559,
                    "duration": 0.6185565000000111
                },
                {
                    "name": "A#4",
                    "midi": 70,
                    "time": 226.3916790000015,
                    "velocity": 0.23622047244094488,
                    "duration": 0.6185565000000111
                },
                {
                    "name": "C#4",
                    "midi": 61,
                    "time": 226.3916790000015,
                    "velocity": 0.1889763779527559,
                    "duration": 0.6185565000000111
                },
                {
                    "name": "G#4",
                    "midi": 68,
                    "time": 227.0102355000015,
                    "velocity": 0.23622047244094488,
                    "duration": 0.6185565000000111
                },
                {
                    "name": "F4",
                    "midi": 65,
                    "time": 227.0102355000015,
                    "velocity": 0.1889763779527559,
                    "duration": 0.6185565000000111
                },
                {
                    "name": "C4",
                    "midi": 60,
                    "time": 227.0102355000015,
                    "velocity": 0.1889763779527559,
                    "duration": 0.6185565000000111
                },
                {
                    "name": "D#4",
                    "midi": 63,
                    "time": 227.6287920000015,
                    "velocity": 0.2204724409448819,
                    "duration": 0.6185565000000111
                },
                {
                    "name": "C4",
                    "midi": 60,
                    "time": 227.6287920000015,
                    "velocity": 0.2204724409448819,
                    "duration": 0.6185565000000111
                },
                {
                    "name": "G#4",
                    "midi": 68,
                    "time": 227.6287920000015,
                    "velocity": 0.2755905511811024,
                    "duration": 0.6185565000000111
                },
                {
                    "name": "G4",
                    "midi": 67,
                    "time": 228.24734850000152,
                    "velocity": 0.2283464566929134,
                    "duration": 0.4639173749999941
                },
                {
                    "name": "A#3",
                    "midi": 58,
                    "time": 228.24734850000152,
                    "velocity": 0.18110236220472442,
                    "duration": 0.4639173749999941
                },
                {
                    "name": "D#4",
                    "midi": 63,
                    "time": 228.24734850000152,
                    "velocity": 0.18110236220472442,
                    "duration": 0.4639173749999941
                },
                {
                    "name": "G4",
                    "midi": 67,
                    "time": 228.8659050000015,
                    "velocity": 0.2283464566929134,
                    "duration": 0.4639173749999941
                },
                {
                    "name": "A#3",
                    "midi": 58,
                    "time": 228.8659050000015,
                    "velocity": 0.18110236220472442,
                    "duration": 0.4639173749999941
                },
                {
                    "name": "D#4",
                    "midi": 63,
                    "time": 228.8659050000015,
                    "velocity": 0.18110236220472442,
                    "duration": 0.4639173749999941
                },
                {
                    "name": "D#4",
                    "midi": 63,
                    "time": 229.4844615000015,
                    "velocity": 0.18110236220472442,
                    "duration": 0.4639173749999941
                },
                {
                    "name": "G4",
                    "midi": 67,
                    "time": 229.4844615000015,
                    "velocity": 0.2283464566929134,
                    "duration": 0.4639173749999941
                },
                {
                    "name": "A#3",
                    "midi": 58,
                    "time": 229.4844615000015,
                    "velocity": 0.18110236220472442,
                    "duration": 0.4639173749999941
                },
                {
                    "name": "A#3",
                    "midi": 58,
                    "time": 230.10301800000147,
                    "velocity": 0.2047244094488189,
                    "duration": 0.4639173749999941
                },
                {
                    "name": "G4",
                    "midi": 67,
                    "time": 230.10301800000147,
                    "velocity": 0.25984251968503935,
                    "duration": 0.4639173749999941
                },
                {
                    "name": "D#4",
                    "midi": 63,
                    "time": 230.10301800000147,
                    "velocity": 0.2047244094488189,
                    "duration": 0.4639173749999941
                },
                {
                    "name": "D#4",
                    "midi": 63,
                    "time": 230.72157450000145,
                    "velocity": 0.1732283464566929,
                    "duration": 0.4639173749999941
                },
                {
                    "name": "G4",
                    "midi": 67,
                    "time": 230.72157450000145,
                    "velocity": 0.2204724409448819,
                    "duration": 0.4639173749999941
                },
                {
                    "name": "A#3",
                    "midi": 58,
                    "time": 230.72157450000145,
                    "velocity": 0.1732283464566929,
                    "duration": 0.4639173749999941
                },
                {
                    "name": "D#4",
                    "midi": 63,
                    "time": 231.34013100000143,
                    "velocity": 0.1889763779527559,
                    "duration": 0.6185565000000111
                },
                {
                    "name": "C4",
                    "midi": 60,
                    "time": 231.34013100000143,
                    "velocity": 0.1889763779527559,
                    "duration": 0.6185565000000111
                },
                {
                    "name": "G#4",
                    "midi": 68,
                    "time": 231.34013100000143,
                    "velocity": 0.2440944881889764,
                    "duration": 0.6185565000000111
                },
                {
                    "name": "A#4",
                    "midi": 70,
                    "time": 231.95868750000145,
                    "velocity": 0.2677165354330709,
                    "duration": 0.6185565000000111
                },
                {
                    "name": "C#4",
                    "midi": 61,
                    "time": 231.95868750000145,
                    "velocity": 0.2125984251968504,
                    "duration": 0.6185565000000111
                },
                {
                    "name": "D#4",
                    "midi": 63,
                    "time": 231.95868750000145,
                    "velocity": 0.2125984251968504,
                    "duration": 0.6185565000000111
                },
                {
                    "name": "C#4",
                    "midi": 61,
                    "time": 232.57724400000146,
                    "velocity": 0.23622047244094488,
                    "duration": 0.6185565000000111
                },
                {
                    "name": "D#4",
                    "midi": 63,
                    "time": 232.57724400000146,
                    "velocity": 0.2992125984251969,
                    "duration": 0.6185565000000111
                },
                {
                    "name": "G#4",
                    "midi": 68,
                    "time": 233.19580050000147,
                    "velocity": 0.25196850393700787,
                    "duration": 0.4639173749999941
                },
                {
                    "name": "D#4",
                    "midi": 63,
                    "time": 233.19580050000147,
                    "velocity": 0.1968503937007874,
                    "duration": 0.4639173749999941
                },
                {
                    "name": "C4",
                    "midi": 60,
                    "time": 233.19580050000147,
                    "velocity": 0.1968503937007874,
                    "duration": 0.4639173749999941
                },
                {
                    "name": "D#4",
                    "midi": 63,
                    "time": 233.81435700000145,
                    "velocity": 0.1968503937007874,
                    "duration": 0.4639173749999941
                },
                {
                    "name": "C4",
                    "midi": 60,
                    "time": 233.81435700000145,
                    "velocity": 0.1968503937007874,
                    "duration": 0.4639173749999941
                },
                {
                    "name": "G#4",
                    "midi": 68,
                    "time": 233.81435700000145,
                    "velocity": 0.25196850393700787,
                    "duration": 0.4639173749999941
                },
                {
                    "name": "G#4",
                    "midi": 68,
                    "time": 234.43291350000143,
                    "velocity": 0.25196850393700787,
                    "duration": 0.4639173749999941
                },
                {
                    "name": "D#4",
                    "midi": 63,
                    "time": 234.43291350000143,
                    "velocity": 0.1968503937007874,
                    "duration": 0.4639173749999941
                },
                {
                    "name": "C4",
                    "midi": 60,
                    "time": 234.43291350000143,
                    "velocity": 0.1968503937007874,
                    "duration": 0.4639173749999941
                },
                {
                    "name": "C4",
                    "midi": 60,
                    "time": 235.05147000000142,
                    "velocity": 0.15748031496062992,
                    "duration": 0.4639173749999941
                },
                {
                    "name": "G#4",
                    "midi": 68,
                    "time": 235.05147000000142,
                    "velocity": 0.25984251968503935,
                    "duration": 0.4639173749999941
                },
                {
                    "name": "D#4",
                    "midi": 63,
                    "time": 235.05147000000142,
                    "velocity": 0.2047244094488189,
                    "duration": 0.4639173749999941
                },
                {
                    "name": "D#4",
                    "midi": 63,
                    "time": 235.6700265000014,
                    "velocity": 0.1889763779527559,
                    "duration": 0.4639173749999941
                },
                {
                    "name": "C4",
                    "midi": 60,
                    "time": 235.6700265000014,
                    "velocity": 0.1889763779527559,
                    "duration": 0.4639173749999941
                },
                {
                    "name": "G#4",
                    "midi": 68,
                    "time": 235.6700265000014,
                    "velocity": 0.23622047244094488,
                    "duration": 0.4639173749999941
                },
                {
                    "name": "G#4",
                    "midi": 68,
                    "time": 236.28858300000138,
                    "velocity": 0.23622047244094488,
                    "duration": 0.9278347499999882
                },
                {
                    "name": "C5",
                    "midi": 72,
                    "time": 236.44322212500137,
                    "velocity": 0.33070866141732286,
                    "duration": 0.7731956249999996
                },
                {
                    "name": "D#4",
                    "midi": 63,
                    "time": 236.44322212500137,
                    "velocity": 0.2755905511811024,
                    "duration": 0.7731956249999996
                },
                {
                    "name": "D#4",
                    "midi": 63,
                    "time": 237.21641775000137,
                    "velocity": 0.1889763779527559,
                    "duration": 0.30927825000000553
                },
                {
                    "name": "C4",
                    "midi": 60,
                    "time": 237.21641775000137,
                    "velocity": 0.1889763779527559,
                    "duration": 0.30927825000000553
                },
                {
                    "name": "G#4",
                    "midi": 68,
                    "time": 237.21641775000137,
                    "velocity": 0.23622047244094488,
                    "duration": 0.30927825000000553
                },
                {
                    "name": "C4",
                    "midi": 60,
                    "time": 237.52569600000137,
                    "velocity": 0.2204724409448819,
                    "duration": 0.6185565000000111
                },
                {
                    "name": "G#4",
                    "midi": 68,
                    "time": 237.52569600000137,
                    "velocity": 0.2755905511811024,
                    "duration": 0.6185565000000111
                },
                {
                    "name": "D#4",
                    "midi": 63,
                    "time": 237.52569600000137,
                    "velocity": 0.2204724409448819,
                    "duration": 0.6185565000000111
                },
                {
                    "name": "D#4",
                    "midi": 63,
                    "time": 238.1442525000014,
                    "velocity": 0.18110236220472442,
                    "duration": 0.4639173749999941
                },
                {
                    "name": "A#3",
                    "midi": 58,
                    "time": 238.1442525000014,
                    "velocity": 0.18110236220472442,
                    "duration": 0.4639173749999941
                },
                {
                    "name": "G4",
                    "midi": 67,
                    "time": 238.1442525000014,
                    "velocity": 0.2283464566929134,
                    "duration": 0.4639173749999941
                },
                {
                    "name": "A#3",
                    "midi": 58,
                    "time": 238.76280900000137,
                    "velocity": 0.18110236220472442,
                    "duration": 0.4639173749999941
                },
                {
                    "name": "D#4",
                    "midi": 63,
                    "time": 238.76280900000137,
                    "velocity": 0.18110236220472442,
                    "duration": 0.4639173749999941
                },
                {
                    "name": "G4",
                    "midi": 67,
                    "time": 238.76280900000137,
                    "velocity": 0.2283464566929134,
                    "duration": 0.4639173749999941
                },
                {
                    "name": "G4",
                    "midi": 67,
                    "time": 239.38136550000135,
                    "velocity": 0.2283464566929134,
                    "duration": 0.4639173749999941
                },
                {
                    "name": "D#4",
                    "midi": 63,
                    "time": 239.38136550000135,
                    "velocity": 0.18110236220472442,
                    "duration": 0.4639173749999941
                },
                {
                    "name": "A#3",
                    "midi": 58,
                    "time": 239.38136550000135,
                    "velocity": 0.18110236220472442,
                    "duration": 0.4639173749999941
                },
                {
                    "name": "G4",
                    "midi": 67,
                    "time": 239.99992200000133,
                    "velocity": 0.25984251968503935,
                    "duration": 0.4639173749999941
                },
                {
                    "name": "A#3",
                    "midi": 58,
                    "time": 239.99992200000133,
                    "velocity": 0.2047244094488189,
                    "duration": 0.4639173749999941
                },
                {
                    "name": "D#4",
                    "midi": 63,
                    "time": 239.99992200000133,
                    "velocity": 0.2047244094488189,
                    "duration": 0.4639173749999941
                },
                {
                    "name": "D#4",
                    "midi": 63,
                    "time": 240.61847850000132,
                    "velocity": 0.1732283464566929,
                    "duration": 0.4639173749999941
                },
                {
                    "name": "G4",
                    "midi": 67,
                    "time": 240.61847850000132,
                    "velocity": 0.2204724409448819,
                    "duration": 0.4639173749999941
                },
                {
                    "name": "A#3",
                    "midi": 58,
                    "time": 240.61847850000132,
                    "velocity": 0.1732283464566929,
                    "duration": 0.4639173749999941
                },
                {
                    "name": "C4",
                    "midi": 60,
                    "time": 241.2370350000013,
                    "velocity": 0.1889763779527559,
                    "duration": 0.6185565000000111
                },
                {
                    "name": "D#4",
                    "midi": 63,
                    "time": 241.2370350000013,
                    "velocity": 0.1889763779527559,
                    "duration": 0.6185565000000111
                },
                {
                    "name": "G#4",
                    "midi": 68,
                    "time": 241.2370350000013,
                    "velocity": 0.2440944881889764,
                    "duration": 0.6185565000000111
                },
                {
                    "name": "A#4",
                    "midi": 70,
                    "time": 241.8555915000013,
                    "velocity": 0.2677165354330709,
                    "duration": 0.6185565000000111
                },
                {
                    "name": "C#4",
                    "midi": 61,
                    "time": 241.8555915000013,
                    "velocity": 0.2125984251968504,
                    "duration": 0.6185565000000111
                },
                {
                    "name": "D#4",
                    "midi": 63,
                    "time": 241.8555915000013,
                    "velocity": 0.2125984251968504,
                    "duration": 0.6185565000000111
                },
                {
                    "name": "C#4",
                    "midi": 61,
                    "time": 242.47414800000132,
                    "velocity": 0.23622047244094488,
                    "duration": 0.6185565000000111
                },
                {
                    "name": "D#4",
                    "midi": 63,
                    "time": 242.47414800000132,
                    "velocity": 0.2992125984251969,
                    "duration": 0.6185565000000111
                },
                {
                    "name": "G#4",
                    "midi": 68,
                    "time": 243.09270450000133,
                    "velocity": 0.25196850393700787,
                    "duration": 0.4639173749999941
                },
                {
                    "name": "C4",
                    "midi": 60,
                    "time": 243.09270450000133,
                    "velocity": 0.1968503937007874,
                    "duration": 0.4639173749999941
                },
                {
                    "name": "D#4",
                    "midi": 63,
                    "time": 243.09270450000133,
                    "velocity": 0.1968503937007874,
                    "duration": 0.4639173749999941
                },
                {
                    "name": "C4",
                    "midi": 60,
                    "time": 243.71126100000131,
                    "velocity": 0.1968503937007874,
                    "duration": 0.4639173749999941
                },
                {
                    "name": "D#4",
                    "midi": 63,
                    "time": 243.71126100000131,
                    "velocity": 0.1968503937007874,
                    "duration": 0.4639173749999941
                },
                {
                    "name": "G#4",
                    "midi": 68,
                    "time": 243.71126100000131,
                    "velocity": 0.25196850393700787,
                    "duration": 0.4639173749999941
                },
                {
                    "name": "C4",
                    "midi": 60,
                    "time": 244.3298175000013,
                    "velocity": 0.1968503937007874,
                    "duration": 0.4639173749999941
                },
                {
                    "name": "D#4",
                    "midi": 63,
                    "time": 244.3298175000013,
                    "velocity": 0.1968503937007874,
                    "duration": 0.4639173749999941
                },
                {
                    "name": "G#4",
                    "midi": 68,
                    "time": 244.3298175000013,
                    "velocity": 0.25196850393700787,
                    "duration": 0.4639173749999941
                },
                {
                    "name": "G#4",
                    "midi": 68,
                    "time": 244.94837400000128,
                    "velocity": 0.25984251968503935,
                    "duration": 0.4639173749999941
                },
                {
                    "name": "C4",
                    "midi": 60,
                    "time": 244.94837400000128,
                    "velocity": 0.15748031496062992,
                    "duration": 0.4639173749999941
                },
                {
                    "name": "D#4",
                    "midi": 63,
                    "time": 244.94837400000128,
                    "velocity": 0.2047244094488189,
                    "duration": 0.4639173749999941
                },
                {
                    "name": "D#5",
                    "midi": 75,
                    "time": 245.56693050000126,
                    "velocity": 0.2677165354330709,
                    "duration": 0.6185565000000111
                },
                {
                    "name": "C5",
                    "midi": 72,
                    "time": 245.56693050000126,
                    "velocity": 0.2125984251968504,
                    "duration": 0.6185565000000111
                },
                {
                    "name": "C5",
                    "midi": 72,
                    "time": 246.18548700000127,
                    "velocity": 0.2125984251968504,
                    "duration": 0.6185565000000111
                },
                {
                    "name": "G#5",
                    "midi": 80,
                    "time": 246.18548700000127,
                    "velocity": 0.33070866141732286,
                    "duration": 0.6185565000000111
                },
                {
                    "name": "D#5",
                    "midi": 75,
                    "time": 246.18548700000127,
                    "velocity": 0.2125984251968504,
                    "duration": 0.6185565000000111
                },
                {
                    "name": "D#5",
                    "midi": 75,
                    "time": 246.80404350000128,
                    "velocity": 0.2125984251968504,
                    "duration": 0.6185565000000111
                },
                {
                    "name": "A#5",
                    "midi": 82,
                    "time": 246.80404350000128,
                    "velocity": 0.2677165354330709,
                    "duration": 0.6185565000000111
                },
                {
                    "name": "G5",
                    "midi": 79,
                    "time": 246.80404350000128,
                    "velocity": 0.2125984251968504,
                    "duration": 0.6185565000000111
                },
                {
                    "name": "D#5",
                    "midi": 75,
                    "time": 248.0411565000013,
                    "velocity": 0.2047244094488189,
                    "duration": 0.4639173749999941
                },
                {
                    "name": "C6",
                    "midi": 84,
                    "time": 248.0411565000013,
                    "velocity": 0.25984251968503935,
                    "duration": 0.4639173749999941
                },
                {
                    "name": "G#5",
                    "midi": 80,
                    "time": 248.0411565000013,
                    "velocity": 0.2047244094488189,
                    "duration": 0.4639173749999941
                },
                {
                    "name": "C6",
                    "midi": 84,
                    "time": 248.6597130000013,
                    "velocity": 0.25984251968503935,
                    "duration": 0.4639173749999941
                },
                {
                    "name": "G#5",
                    "midi": 80,
                    "time": 248.6597130000013,
                    "velocity": 0.2047244094488189,
                    "duration": 0.4639173749999941
                },
                {
                    "name": "D#5",
                    "midi": 75,
                    "time": 248.6597130000013,
                    "velocity": 0.2047244094488189,
                    "duration": 0.4639173749999941
                },
                {
                    "name": "C6",
                    "midi": 84,
                    "time": 249.27826950000127,
                    "velocity": 0.25984251968503935,
                    "duration": 0.4639173749999941
                },
                {
                    "name": "G#5",
                    "midi": 80,
                    "time": 249.27826950000127,
                    "velocity": 0.2047244094488189,
                    "duration": 0.4639173749999941
                },
                {
                    "name": "D#5",
                    "midi": 75,
                    "time": 249.27826950000127,
                    "velocity": 0.2047244094488189,
                    "duration": 0.4639173749999941
                },
                {
                    "name": "G#5",
                    "midi": 80,
                    "time": 249.89682600000125,
                    "velocity": 0.2283464566929134,
                    "duration": 0.6185565000000111
                },
                {
                    "name": "D5",
                    "midi": 74,
                    "time": 249.89682600000125,
                    "velocity": 0.2283464566929134,
                    "duration": 0.6185565000000111
                },
                {
                    "name": "B5",
                    "midi": 83,
                    "time": 249.89682600000125,
                    "velocity": 0.29133858267716534,
                    "duration": 0.6185565000000111
                },
                {
                    "name": "D#5",
                    "midi": 75,
                    "time": 250.51538250000127,
                    "velocity": 0.1968503937007874,
                    "duration": 0.4639173749999941
                },
                {
                    "name": "G#5",
                    "midi": 80,
                    "time": 250.51538250000127,
                    "velocity": 0.1968503937007874,
                    "duration": 0.4639173749999941
                },
                {
                    "name": "C6",
                    "midi": 84,
                    "time": 250.51538250000127,
                    "velocity": 0.25196850393700787,
                    "duration": 0.4639173749999941
                },
                {
                    "name": "C6",
                    "midi": 84,
                    "time": 251.13393900000125,
                    "velocity": 0.2755905511811024,
                    "duration": 0.4639173749999941
                },
                {
                    "name": "G#5",
                    "midi": 80,
                    "time": 251.13393900000125,
                    "velocity": 0.2125984251968504,
                    "duration": 0.4639173749999941
                },
                {
                    "name": "D#5",
                    "midi": 75,
                    "time": 251.13393900000125,
                    "velocity": 0.2125984251968504,
                    "duration": 0.4639173749999941
                },
                {
                    "name": "C6",
                    "midi": 84,
                    "time": 251.75249550000123,
                    "velocity": 0.30708661417322836,
                    "duration": 0.4639173749999941
                },
                {
                    "name": "D#5",
                    "midi": 75,
                    "time": 251.75249550000123,
                    "velocity": 0.2440944881889764,
                    "duration": 0.4639173749999941
                },
                {
                    "name": "G#5",
                    "midi": 80,
                    "time": 251.75249550000123,
                    "velocity": 0.2440944881889764,
                    "duration": 0.4639173749999941
                },
                {
                    "name": "D#6",
                    "midi": 87,
                    "time": 252.3710520000012,
                    "velocity": 0.33858267716535434,
                    "duration": 0.6185565000000111
                },
                {
                    "name": "G#5",
                    "midi": 80,
                    "time": 252.3710520000012,
                    "velocity": 0.2677165354330709,
                    "duration": 0.6185565000000111
                },
                {
                    "name": "F#5",
                    "midi": 78,
                    "time": 252.3710520000012,
                    "velocity": 0.2677165354330709,
                    "duration": 0.6185565000000111
                },
                {
                    "name": "G#5",
                    "midi": 80,
                    "time": 252.98960850000122,
                    "velocity": 0.2204724409448819,
                    "duration": 0.4639173749999941
                },
                {
                    "name": "F5",
                    "midi": 77,
                    "time": 252.98960850000122,
                    "velocity": 0.2204724409448819,
                    "duration": 0.4639173749999941
                },
                {
                    "name": "C#6",
                    "midi": 85,
                    "time": 252.98960850000122,
                    "velocity": 0.28346456692913385,
                    "duration": 0.4639173749999941
                },
                {
                    "name": "C#6",
                    "midi": 85,
                    "time": 253.6081650000012,
                    "velocity": 0.28346456692913385,
                    "duration": 0.4639173749999941
                },
                {
                    "name": "G#5",
                    "midi": 80,
                    "time": 253.6081650000012,
                    "velocity": 0.2204724409448819,
                    "duration": 0.4639173749999941
                },
                {
                    "name": "F5",
                    "midi": 77,
                    "time": 253.6081650000012,
                    "velocity": 0.2204724409448819,
                    "duration": 0.4639173749999941
                },
                {
                    "name": "F5",
                    "midi": 77,
                    "time": 254.2267215000012,
                    "velocity": 0.2204724409448819,
                    "duration": 0.4639173749999941
                },
                {
                    "name": "C#6",
                    "midi": 85,
                    "time": 254.2267215000012,
                    "velocity": 0.28346456692913385,
                    "duration": 0.4639173749999941
                },
                {
                    "name": "G#5",
                    "midi": 80,
                    "time": 254.2267215000012,
                    "velocity": 0.2204724409448819,
                    "duration": 0.4639173749999941
                },
                {
                    "name": "G#5",
                    "midi": 80,
                    "time": 254.84527800000117,
                    "velocity": 0.2283464566929134,
                    "duration": 0.6185565000000111
                },
                {
                    "name": "C#6",
                    "midi": 85,
                    "time": 254.84527800000117,
                    "velocity": 0.29133858267716534,
                    "duration": 0.6185565000000111
                },
                {
                    "name": "F5",
                    "midi": 77,
                    "time": 254.84527800000117,
                    "velocity": 0.18110236220472442,
                    "duration": 0.6185565000000111
                },
                {
                    "name": "D#5",
                    "midi": 75,
                    "time": 255.46383450000118,
                    "velocity": 0.2125984251968504,
                    "duration": 0.6185564999999826
                },
                {
                    "name": "F5",
                    "midi": 77,
                    "time": 255.46383450000118,
                    "velocity": 0.2125984251968504,
                    "duration": 0.6185564999999826
                },
                {
                    "name": "C6",
                    "midi": 84,
                    "time": 255.46383450000118,
                    "velocity": 0.2677165354330709,
                    "duration": 0.6185564999999826
                },
                {
                    "name": "F5",
                    "midi": 77,
                    "time": 256.08239100000117,
                    "velocity": 0.2125984251968504,
                    "duration": 0.6185565000000111
                },
                {
                    "name": "C#5",
                    "midi": 73,
                    "time": 256.08239100000117,
                    "velocity": 0.2125984251968504,
                    "duration": 0.6185565000000111
                },
                {
                    "name": "A#5",
                    "midi": 82,
                    "time": 256.08239100000117,
                    "velocity": 0.2677165354330709,
                    "duration": 0.6185565000000111
                },
                {
                    "name": "F5",
                    "midi": 77,
                    "time": 256.7009475000012,
                    "velocity": 0.2125984251968504,
                    "duration": 0.6185565000000111
                },
                {
                    "name": "G#5",
                    "midi": 80,
                    "time": 256.7009475000012,
                    "velocity": 0.2677165354330709,
                    "duration": 0.6185565000000111
                },
                {
                    "name": "C5",
                    "midi": 72,
                    "time": 256.7009475000012,
                    "velocity": 0.2125984251968504,
                    "duration": 0.6185565000000111
                },
                {
                    "name": "G#5",
                    "midi": 80,
                    "time": 257.3195040000012,
                    "velocity": 0.31496062992125984,
                    "duration": 0.6185565000000111
                },
                {
                    "name": "C5",
                    "midi": 72,
                    "time": 257.3195040000012,
                    "velocity": 0.25196850393700787,
                    "duration": 0.6185565000000111
                },
                {
                    "name": "D#5",
                    "midi": 75,
                    "time": 257.3195040000012,
                    "velocity": 0.25196850393700787,
                    "duration": 0.6185565000000111
                },
                {
                    "name": "D#5",
                    "midi": 75,
                    "time": 257.9380605000012,
                    "velocity": 0.2047244094488189,
                    "duration": 0.4639173749999941
                },
                {
                    "name": "A#4",
                    "midi": 70,
                    "time": 257.9380605000012,
                    "velocity": 0.2047244094488189,
                    "duration": 0.4639173749999941
                },
                {
                    "name": "G5",
                    "midi": 79,
                    "time": 257.9380605000012,
                    "velocity": 0.25984251968503935,
                    "duration": 0.4639173749999941
                },
                {
                    "name": "G5",
                    "midi": 79,
                    "time": 258.5566170000012,
                    "velocity": 0.25984251968503935,
                    "duration": 0.4639173749999941
                },
                {
                    "name": "D#5",
                    "midi": 75,
                    "time": 258.5566170000012,
                    "velocity": 0.2047244094488189,
                    "duration": 0.4639173749999941
                },
                {
                    "name": "A#4",
                    "midi": 70,
                    "time": 258.5566170000012,
                    "velocity": 0.2047244094488189,
                    "duration": 0.4639173749999941
                },
                {
                    "name": "D#5",
                    "midi": 75,
                    "time": 259.1751735000012,
                    "velocity": 0.2047244094488189,
                    "duration": 0.4639173749999941
                },
                {
                    "name": "G5",
                    "midi": 79,
                    "time": 259.1751735000012,
                    "velocity": 0.25984251968503935,
                    "duration": 0.4639173749999941
                },
                {
                    "name": "A#4",
                    "midi": 70,
                    "time": 259.1751735000012,
                    "velocity": 0.2047244094488189,
                    "duration": 0.4639173749999941
                },
                {
                    "name": "D#5",
                    "midi": 75,
                    "time": 259.79373000000123,
                    "velocity": 0.2283464566929134,
                    "duration": 0.4639173749999941
                },
                {
                    "name": "A#4",
                    "midi": 70,
                    "time": 259.79373000000123,
                    "velocity": 0.2283464566929134,
                    "duration": 0.4639173749999941
                },
                {
                    "name": "G5",
                    "midi": 79,
                    "time": 259.79373000000123,
                    "velocity": 0.29133858267716534,
                    "duration": 0.4639173749999941
                },
                {
                    "name": "D#5",
                    "midi": 75,
                    "time": 260.41228650000124,
                    "velocity": 0.1968503937007874,
                    "duration": 0.4639173749999941
                },
                {
                    "name": "G5",
                    "midi": 79,
                    "time": 260.41228650000124,
                    "velocity": 0.25196850393700787,
                    "duration": 0.4639173749999941
                },
                {
                    "name": "A#4",
                    "midi": 70,
                    "time": 260.41228650000124,
                    "velocity": 0.1968503937007874,
                    "duration": 0.4639173749999941
                },
                {
                    "name": "C5",
                    "midi": 72,
                    "time": 261.03084300000125,
                    "velocity": 0.2125984251968504,
                    "duration": 0.6185565000000111
                },
                {
                    "name": "D#5",
                    "midi": 75,
                    "time": 261.03084300000125,
                    "velocity": 0.2125984251968504,
                    "duration": 0.6185565000000111
                },
                {
                    "name": "G#5",
                    "midi": 80,
                    "time": 261.03084300000125,
                    "velocity": 0.2755905511811024,
                    "duration": 0.6185565000000111
                },
                {
                    "name": "D#5",
                    "midi": 75,
                    "time": 261.64939950000127,
                    "velocity": 0.2440944881889764,
                    "duration": 0.6185565000000111
                },
                {
                    "name": "A#5",
                    "midi": 82,
                    "time": 261.64939950000127,
                    "velocity": 0.30708661417322836,
                    "duration": 0.6185565000000111
                },
                {
                    "name": "C#5",
                    "midi": 73,
                    "time": 261.64939950000127,
                    "velocity": 0.2440944881889764,
                    "duration": 0.6185565000000111
                },
                {
                    "name": "C#5",
                    "midi": 73,
                    "time": 262.2679560000013,
                    "velocity": 0.2677165354330709,
                    "duration": 0.6185565000000111
                },
                {
                    "name": "D#5",
                    "midi": 75,
                    "time": 262.2679560000013,
                    "velocity": 0.33858267716535434,
                    "duration": 0.6185565000000111
                },
                {
                    "name": "D#5",
                    "midi": 75,
                    "time": 262.8865125000013,
                    "velocity": 0.2204724409448819,
                    "duration": 0.4639173749999941
                },
                {
                    "name": "G#5",
                    "midi": 80,
                    "time": 262.8865125000013,
                    "velocity": 0.28346456692913385,
                    "duration": 0.4639173749999941
                },
                {
                    "name": "C5",
                    "midi": 72,
                    "time": 262.8865125000013,
                    "velocity": 0.2204724409448819,
                    "duration": 0.4639173749999941
                },
                {
                    "name": "G#5",
                    "midi": 80,
                    "time": 263.5050690000013,
                    "velocity": 0.28346456692913385,
                    "duration": 0.4639173749999941
                },
                {
                    "name": "C5",
                    "midi": 72,
                    "time": 263.5050690000013,
                    "velocity": 0.2204724409448819,
                    "duration": 0.4639173749999941
                },
                {
                    "name": "D#5",
                    "midi": 75,
                    "time": 263.5050690000013,
                    "velocity": 0.2204724409448819,
                    "duration": 0.4639173749999941
                },
                {
                    "name": "D#5",
                    "midi": 75,
                    "time": 264.1236255000013,
                    "velocity": 0.2204724409448819,
                    "duration": 0.4639173749999941
                },
                {
                    "name": "G#5",
                    "midi": 80,
                    "time": 264.1236255000013,
                    "velocity": 0.28346456692913385,
                    "duration": 0.4639173749999941
                },
                {
                    "name": "C5",
                    "midi": 72,
                    "time": 264.1236255000013,
                    "velocity": 0.2204724409448819,
                    "duration": 0.4639173749999941
                },
                {
                    "name": "G#5",
                    "midi": 80,
                    "time": 264.7421820000013,
                    "velocity": 0.29133858267716534,
                    "duration": 0.4639173749999941
                },
                {
                    "name": "D#5",
                    "midi": 75,
                    "time": 264.7421820000013,
                    "velocity": 0.2283464566929134,
                    "duration": 0.4639173749999941
                },
                {
                    "name": "C5",
                    "midi": 72,
                    "time": 264.7421820000013,
                    "velocity": 0.18110236220472442,
                    "duration": 0.4639173749999941
                },
                {
                    "name": "G#5",
                    "midi": 80,
                    "time": 265.36073850000133,
                    "velocity": 0.2677165354330709,
                    "duration": 0.4639173749999941
                },
                {
                    "name": "D#5",
                    "midi": 75,
                    "time": 265.36073850000133,
                    "velocity": 0.2125984251968504,
                    "duration": 0.4639173749999941
                },
                {
                    "name": "C5",
                    "midi": 72,
                    "time": 265.36073850000133,
                    "velocity": 0.2125984251968504,
                    "duration": 0.4639173749999941
                },
                {
                    "name": "G#5",
                    "midi": 80,
                    "time": 265.97929500000134,
                    "velocity": 0.30708661417322836,
                    "duration": 0.927834750000045
                },
                {
                    "name": "D#5",
                    "midi": 75,
                    "time": 266.13393412500136,
                    "velocity": 0.3464566929133858,
                    "duration": 0.773195625000028
                },
                {
                    "name": "C6",
                    "midi": 84,
                    "time": 266.13393412500136,
                    "velocity": 0.4094488188976378,
                    "duration": 0.773195625000028
                },
                {
                    "name": "D#5",
                    "midi": 75,
                    "time": 266.9071297500014,
                    "velocity": 0.2125984251968504,
                    "duration": 0.3092782499999771
                },
                {
                    "name": "C5",
                    "midi": 72,
                    "time": 266.9071297500014,
                    "velocity": 0.2125984251968504,
                    "duration": 0.3092782499999771
                },
                {
                    "name": "G#5",
                    "midi": 80,
                    "time": 266.9071297500014,
                    "velocity": 0.2677165354330709,
                    "duration": 0.3092782499999771
                },
                {
                    "name": "D#5",
                    "midi": 75,
                    "time": 267.21640800000137,
                    "velocity": 0.25196850393700787,
                    "duration": 0.6185565000000111
                },
                {
                    "name": "G#5",
                    "midi": 80,
                    "time": 267.21640800000137,
                    "velocity": 0.31496062992125984,
                    "duration": 0.6185565000000111
                },
                {
                    "name": "C5",
                    "midi": 72,
                    "time": 267.21640800000137,
                    "velocity": 0.25196850393700787,
                    "duration": 0.6185565000000111
                },
                {
                    "name": "D#5",
                    "midi": 75,
                    "time": 267.8349645000014,
                    "velocity": 0.2047244094488189,
                    "duration": 0.4639173749999941
                },
                {
                    "name": "A#4",
                    "midi": 70,
                    "time": 267.8349645000014,
                    "velocity": 0.2047244094488189,
                    "duration": 0.4639173749999941
                },
                {
                    "name": "G5",
                    "midi": 79,
                    "time": 267.8349645000014,
                    "velocity": 0.25984251968503935,
                    "duration": 0.4639173749999941
                },
                {
                    "name": "D#5",
                    "midi": 75,
                    "time": 268.4535210000014,
                    "velocity": 0.2047244094488189,
                    "duration": 0.4639173749999941
                },
                {
                    "name": "A#4",
                    "midi": 70,
                    "time": 268.4535210000014,
                    "velocity": 0.2047244094488189,
                    "duration": 0.4639173749999941
                },
                {
                    "name": "G5",
                    "midi": 79,
                    "time": 268.4535210000014,
                    "velocity": 0.25984251968503935,
                    "duration": 0.4639173749999941
                },
                {
                    "name": "A#4",
                    "midi": 70,
                    "time": 269.0720775000014,
                    "velocity": 0.2047244094488189,
                    "duration": 0.4639173749999941
                },
                {
                    "name": "D#5",
                    "midi": 75,
                    "time": 269.0720775000014,
                    "velocity": 0.2047244094488189,
                    "duration": 0.4639173749999941
                },
                {
                    "name": "G5",
                    "midi": 79,
                    "time": 269.0720775000014,
                    "velocity": 0.25984251968503935,
                    "duration": 0.4639173749999941
                },
                {
                    "name": "A#4",
                    "midi": 70,
                    "time": 269.6906340000014,
                    "velocity": 0.2283464566929134,
                    "duration": 0.4639173749999941
                },
                {
                    "name": "G5",
                    "midi": 79,
                    "time": 269.6906340000014,
                    "velocity": 0.29133858267716534,
                    "duration": 0.4639173749999941
                },
                {
                    "name": "D#5",
                    "midi": 75,
                    "time": 269.6906340000014,
                    "velocity": 0.2283464566929134,
                    "duration": 0.4639173749999941
                },
                {
                    "name": "D#5",
                    "midi": 75,
                    "time": 270.3091905000014,
                    "velocity": 0.1968503937007874,
                    "duration": 0.4639173749999941
                },
                {
                    "name": "G5",
                    "midi": 79,
                    "time": 270.3091905000014,
                    "velocity": 0.25196850393700787,
                    "duration": 0.4639173749999941
                },
                {
                    "name": "A#4",
                    "midi": 70,
                    "time": 270.3091905000014,
                    "velocity": 0.1968503937007874,
                    "duration": 0.4639173749999941
                },
                {
                    "name": "G#5",
                    "midi": 80,
                    "time": 270.92774700000143,
                    "velocity": 0.2755905511811024,
                    "duration": 0.6185565000000111
                },
                {
                    "name": "D#5",
                    "midi": 75,
                    "time": 270.92774700000143,
                    "velocity": 0.2125984251968504,
                    "duration": 0.6185565000000111
                },
                {
                    "name": "C5",
                    "midi": 72,
                    "time": 270.92774700000143,
                    "velocity": 0.2125984251968504,
                    "duration": 0.6185565000000111
                },
                {
                    "name": "D#5",
                    "midi": 75,
                    "time": 271.54630350000144,
                    "velocity": 0.2440944881889764,
                    "duration": 0.6185565000000111
                },
                {
                    "name": "A#5",
                    "midi": 82,
                    "time": 271.54630350000144,
                    "velocity": 0.30708661417322836,
                    "duration": 0.6185565000000111
                },
                {
                    "name": "C#5",
                    "midi": 73,
                    "time": 271.54630350000144,
                    "velocity": 0.2440944881889764,
                    "duration": 0.6185565000000111
                },
                {
                    "name": "C#5",
                    "midi": 73,
                    "time": 272.16486000000145,
                    "velocity": 0.2677165354330709,
                    "duration": 0.6185565000000111
                },
                {
                    "name": "D#5",
                    "midi": 75,
                    "time": 272.16486000000145,
                    "velocity": 0.33858267716535434,
                    "duration": 0.6185565000000111
                },
                {
                    "name": "G#5",
                    "midi": 80,
                    "time": 272.78341650000147,
                    "velocity": 0.28346456692913385,
                    "duration": 0.4639173749999941
                },
                {
                    "name": "D#5",
                    "midi": 75,
                    "time": 272.78341650000147,
                    "velocity": 0.2204724409448819,
                    "duration": 0.4639173749999941
                },
                {
                    "name": "C5",
                    "midi": 72,
                    "time": 272.78341650000147,
                    "velocity": 0.2204724409448819,
                    "duration": 0.4639173749999941
                },
                {
                    "name": "D#5",
                    "midi": 75,
                    "time": 273.4019730000015,
                    "velocity": 0.2204724409448819,
                    "duration": 0.4639173749999941
                },
                {
                    "name": "C5",
                    "midi": 72,
                    "time": 273.4019730000015,
                    "velocity": 0.2204724409448819,
                    "duration": 0.4639173749999941
                },
                {
                    "name": "G#5",
                    "midi": 80,
                    "time": 273.4019730000015,
                    "velocity": 0.28346456692913385,
                    "duration": 0.4639173749999941
                },
                {
                    "name": "G#5",
                    "midi": 80,
                    "time": 274.0205295000015,
                    "velocity": 0.28346456692913385,
                    "duration": 0.4639173749999941
                },
                {
                    "name": "D#5",
                    "midi": 75,
                    "time": 274.0205295000015,
                    "velocity": 0.2204724409448819,
                    "duration": 0.4639173749999941
                },
                {
                    "name": "C5",
                    "midi": 72,
                    "time": 274.0205295000015,
                    "velocity": 0.2204724409448819,
                    "duration": 0.4639173749999941
                },
                {
                    "name": "G#5",
                    "midi": 80,
                    "time": 274.6390860000015,
                    "velocity": 0.29133858267716534,
                    "duration": 0.4639173749999941
                },
                {
                    "name": "D#5",
                    "midi": 75,
                    "time": 274.6390860000015,
                    "velocity": 0.2283464566929134,
                    "duration": 0.4639173749999941
                },
                {
                    "name": "C5",
                    "midi": 72,
                    "time": 274.6390860000015,
                    "velocity": 0.18110236220472442,
                    "duration": 0.4639173749999941
                },
                {
                    "name": "D#5",
                    "midi": 75,
                    "time": 275.2576425000015,
                    "velocity": 0.33858267716535434,
                    "duration": 0.3092782499999771
                },
                {
                    "name": "D#6",
                    "midi": 87,
                    "time": 275.5669207500015,
                    "velocity": 0.28346456692913385,
                    "duration": 0.3092782499999771
                },
                {
                    "name": "G#5",
                    "midi": 80,
                    "time": 275.87619900000146,
                    "velocity": 0.33858267716535434,
                    "duration": 0.3092782499999771
                },
                {
                    "name": "D#6",
                    "midi": 87,
                    "time": 276.18547725000144,
                    "velocity": 0.28346456692913385,
                    "duration": 0.3092782499999771
                },
                {
                    "name": "A#5",
                    "midi": 82,
                    "time": 276.4947555000014,
                    "velocity": 0.3464566929133858,
                    "duration": 0.3092782499999771
                },
                {
                    "name": "D#6",
                    "midi": 87,
                    "time": 276.8040337500014,
                    "velocity": 0.28346456692913385,
                    "duration": 0.3092782499999771
                },
                {
                    "name": "D#5",
                    "midi": 75,
                    "time": 277.1133120000014,
                    "velocity": 0.3700787401574803,
                    "duration": 0.3092782499999771
                },
                {
                    "name": "D#6",
                    "midi": 87,
                    "time": 277.42259025000135,
                    "velocity": 0.28346456692913385,
                    "duration": 0.3092782499999771
                },
                {
                    "name": "C6",
                    "midi": 84,
                    "time": 277.7318685000013,
                    "velocity": 0.33858267716535434,
                    "duration": 0.3092782499999771
                },
                {
                    "name": "D#5",
                    "midi": 75,
                    "time": 278.0411467500013,
                    "velocity": 0.28346456692913385,
                    "duration": 0.3092782499999771
                },
                {
                    "name": "D#5",
                    "midi": 75,
                    "time": 278.3504250000013,
                    "velocity": 0.33858267716535434,
                    "duration": 0.3092782499999771
                },
                {
                    "name": "D#6",
                    "midi": 87,
                    "time": 278.65970325000126,
                    "velocity": 0.28346456692913385,
                    "duration": 0.3092782499999771
                },
                {
                    "name": "C6",
                    "midi": 84,
                    "time": 278.96898150000123,
                    "velocity": 0.33858267716535434,
                    "duration": 0.3092782499999771
                },
                {
                    "name": "D#5",
                    "midi": 75,
                    "time": 279.2782597500012,
                    "velocity": 0.28346456692913385,
                    "duration": 0.3092782499999771
                },
                {
                    "name": "D#5",
                    "midi": 75,
                    "time": 279.5875380000012,
                    "velocity": 0.36220472440944884,
                    "duration": 0.3092782499999771
                },
                {
                    "name": "D#6",
                    "midi": 87,
                    "time": 279.89681625000117,
                    "velocity": 0.28346456692913385,
                    "duration": 0.3092782499999771
                },
                {
                    "name": "C6",
                    "midi": 84,
                    "time": 280.20609450000114,
                    "velocity": 0.3543307086614173,
                    "duration": 0.3092782499999771
                },
                {
                    "name": "D#5",
                    "midi": 75,
                    "time": 280.5153727500011,
                    "velocity": 0.28346456692913385,
                    "duration": 0.3092782499999771
                },
                {
                    "name": "D#5",
                    "midi": 75,
                    "time": 280.8246510000011,
                    "velocity": 0.3543307086614173,
                    "duration": 0.3092782499999771
                },
                {
                    "name": "D#6",
                    "midi": 87,
                    "time": 281.1339292500011,
                    "velocity": 0.30708661417322836,
                    "duration": 0.3092782499999771
                },
                {
                    "name": "G#5",
                    "midi": 80,
                    "time": 281.44320750000105,
                    "velocity": 0.36220472440944884,
                    "duration": 0.3092782499999771
                },
                {
                    "name": "G#6",
                    "midi": 92,
                    "time": 281.75248575000103,
                    "velocity": 0.28346456692913385,
                    "duration": 0.3092782499999771
                },
                {
                    "name": "G#5",
                    "midi": 80,
                    "time": 282.061764000001,
                    "velocity": 0.3937007874015748,
                    "duration": 0.3092782499999771
                },
                {
                    "name": "G#6",
                    "midi": 92,
                    "time": 282.371042250001,
                    "velocity": 0.28346456692913385,
                    "duration": 0.3092782499999771
                },
                {
                    "name": "F6",
                    "midi": 89,
                    "time": 282.68032050000096,
                    "velocity": 0.33858267716535434,
                    "duration": 0.3092782499999771
                },
                {
                    "name": "G#5",
                    "midi": 80,
                    "time": 282.98959875000094,
                    "velocity": 0.28346456692913385,
                    "duration": 0.3092782499999771
                },
                {
                    "name": "G#5",
                    "midi": 80,
                    "time": 283.2988770000009,
                    "velocity": 0.3937007874015748,
                    "duration": 0.3092782499999771
                },
                {
                    "name": "G#6",
                    "midi": 92,
                    "time": 283.6081552500009,
                    "velocity": 0.28346456692913385,
                    "duration": 0.3092782499999771
                },
                {
                    "name": "F6",
                    "midi": 89,
                    "time": 283.91743350000087,
                    "velocity": 0.33070866141732286,
                    "duration": 0.3092782499999771
                },
                {
                    "name": "G#5",
                    "midi": 80,
                    "time": 284.22671175000085,
                    "velocity": 0.28346456692913385,
                    "duration": 0.3092782499999771
                },
                {
                    "name": "G#5",
                    "midi": 80,
                    "time": 284.5359900000008,
                    "velocity": 0.36220472440944884,
                    "duration": 0.3092782499999771
                },
                {
                    "name": "G#6",
                    "midi": 92,
                    "time": 284.8452682500008,
                    "velocity": 0.28346456692913385,
                    "duration": 0.3092782499999771
                },
                {
                    "name": "A5",
                    "midi": 81,
                    "time": 285.1545465000008,
                    "velocity": 0.3700787401574803,
                    "duration": 0.3092782499999771
                },
                {
                    "name": "A6",
                    "midi": 93,
                    "time": 285.46382475000075,
                    "velocity": 0.31496062992125984,
                    "duration": 0.3092782499999771
                },
                {
                    "name": "A#5",
                    "midi": 82,
                    "time": 285.77310300000073,
                    "velocity": 0.4094488188976378,
                    "duration": 0.3092782499999771
                },
                {
                    "name": "A#6",
                    "midi": 94,
                    "time": 286.0823812500007,
                    "velocity": 0.28346456692913385,
                    "duration": 0.3092782499999771
                },
                {
                    "name": "C7",
                    "midi": 96,
                    "time": 286.3916595000007,
                    "velocity": 0.3779527559055118,
                    "duration": 0.3092782499999771
                },
                {
                    "name": "C6",
                    "midi": 84,
                    "time": 286.3916595000007,
                    "velocity": 0.3779527559055118,
                    "duration": 0.3092782499999771
                },
                {
                    "name": "C#7",
                    "midi": 97,
                    "time": 286.70093775000066,
                    "velocity": 0.41732283464566927,
                    "duration": 0.3092782499999771
                },
                {
                    "name": "C#6",
                    "midi": 85,
                    "time": 286.70093775000066,
                    "velocity": 0.41732283464566927,
                    "duration": 0.3092782499999771
                },
                {
                    "name": "D#6",
                    "midi": 87,
                    "time": 287.01021600000064,
                    "velocity": 0.5275590551181102,
                    "duration": 0.3092782499999771
                },
                {
                    "name": "D#7",
                    "midi": 99,
                    "time": 287.3194942500006,
                    "velocity": 0.41732283464566927,
                    "duration": 0.3092782499999771
                },
                {
                    "name": "C#7",
                    "midi": 97,
                    "time": 287.6287725000006,
                    "velocity": 0.47244094488188976,
                    "duration": 0.3092782499999771
                },
                {
                    "name": "D#6",
                    "midi": 87,
                    "time": 287.93805075000057,
                    "velocity": 0.41732283464566927,
                    "duration": 0.3092782499999771
                },
                {
                    "name": "D#6",
                    "midi": 87,
                    "time": 288.24732900000055,
                    "velocity": 0.49606299212598426,
                    "duration": 0.3092782499999771
                },
                {
                    "name": "D#7",
                    "midi": 99,
                    "time": 288.5566072500005,
                    "velocity": 0.41732283464566927,
                    "duration": 0.3092782499999771
                },
                {
                    "name": "C#7",
                    "midi": 97,
                    "time": 288.8658855000005,
                    "velocity": 0.47244094488188976,
                    "duration": 0.3092782499999771
                },
                {
                    "name": "D#6",
                    "midi": 87,
                    "time": 289.1751637500005,
                    "velocity": 0.3937007874015748,
                    "duration": 0.3092782499999771
                },
                {
                    "name": "D#6",
                    "midi": 87,
                    "time": 289.48444200000046,
                    "velocity": 0.4645669291338583,
                    "duration": 0.3092782499999771
                },
                {
                    "name": "D#7",
                    "midi": 99,
                    "time": 289.79372025000043,
                    "velocity": 0.3543307086614173,
                    "duration": 0.3092782499999771
                },
                {
                    "name": "C#7",
                    "midi": 97,
                    "time": 290.1029985000004,
                    "velocity": 0.4409448818897638,
                    "duration": 0.3092782499999771
                },
                {
                    "name": "D#6",
                    "midi": 87,
                    "time": 290.4122767500004,
                    "velocity": 0.3779527559055118,
                    "duration": 0.3092782499999771
                },
                {
                    "name": "C7",
                    "midi": 96,
                    "time": 290.72155500000036,
                    "velocity": 0.4566929133858268,
                    "duration": 0.3092782499999771
                },
                {
                    "name": "D#7",
                    "midi": 99,
                    "time": 291.03083325000034,
                    "velocity": 0.3700787401574803,
                    "duration": 0.3092782499999771
                },
                {
                    "name": "A#6",
                    "midi": 94,
                    "time": 291.3401115000003,
                    "velocity": 0.4645669291338583,
                    "duration": 0.3092782499999771
                },
                {
                    "name": "D#7",
                    "midi": 99,
                    "time": 291.6493897500003,
                    "velocity": 0.4094488188976378,
                    "duration": 0.3092782499999771
                },
                {
                    "name": "D#6",
                    "midi": 87,
                    "time": 291.9586680000003,
                    "velocity": 0.5039370078740157,
                    "duration": 0.3092782499999771
                },
                {
                    "name": "D#7",
                    "midi": 99,
                    "time": 292.26794625000025,
                    "velocity": 0.33858267716535434,
                    "duration": 0.3092782499999771
                },
                {
                    "name": "C7",
                    "midi": 96,
                    "time": 292.5772245000002,
                    "velocity": 0.4330708661417323,
                    "duration": 0.3092782499999771
                },
                {
                    "name": "D#6",
                    "midi": 87,
                    "time": 292.8865027500002,
                    "velocity": 0.3464566929133858,
                    "duration": 0.3092782499999771
                },
                {
                    "name": "D#5",
                    "midi": 75,
                    "time": 293.1957810000002,
                    "velocity": 0.4015748031496063,
                    "duration": 0.3092782499999771
                },
                {
                    "name": "D#6",
                    "midi": 87,
                    "time": 293.50505925000016,
                    "velocity": 0.33858267716535434,
                    "duration": 0.3092782499999771
                },
                {
                    "name": "C6",
                    "midi": 84,
                    "time": 293.81433750000014,
                    "velocity": 0.3700787401574803,
                    "duration": 0.3092782499999771
                },
                {
                    "name": "D#5",
                    "midi": 75,
                    "time": 294.1236157500001,
                    "velocity": 0.3228346456692913,
                    "duration": 0.3092782499999771
                },
                {
                    "name": "D#5",
                    "midi": 75,
                    "time": 294.4328940000001,
                    "velocity": 0.3700787401574803,
                    "duration": 0.3092782499999771
                },
                {
                    "name": "D#6",
                    "midi": 87,
                    "time": 294.74217225000007,
                    "velocity": 0.30708661417322836,
                    "duration": 0.3092782499999771
                },
                {
                    "name": "C6",
                    "midi": 84,
                    "time": 295.05145050000004,
                    "velocity": 0.3228346456692913,
                    "duration": 0.3092782499999771
                },
                {
                    "name": "D#5",
                    "midi": 75,
                    "time": 295.36072875,
                    "velocity": 0.2992125984251969,
                    "duration": 0.3092782499999771
                },
                {
                    "name": "G#5",
                    "midi": 80,
                    "time": 295.670007,
                    "velocity": 0.3700787401574803,
                    "duration": 0.3092782499999771
                },
                {
                    "name": "G#6",
                    "midi": 92,
                    "time": 295.97928525,
                    "velocity": 0.33070866141732286,
                    "duration": 0.3092782499999771
                },
                {
                    "name": "D#5",
                    "midi": 75,
                    "time": 296.28856349999995,
                    "velocity": 0.33858267716535434,
                    "duration": 0.3092782499999771
                },
                {
                    "name": "D#6",
                    "midi": 87,
                    "time": 296.59784174999993,
                    "velocity": 0.29133858267716534,
                    "duration": 0.3092782499999771
                },
                {
                    "name": "D#5",
                    "midi": 75,
                    "time": 296.9071199999999,
                    "velocity": 0.3937007874015748,
                    "duration": 0.3092782499999771
                },
                {
                    "name": "D#6",
                    "midi": 87,
                    "time": 297.2163982499999,
                    "velocity": 0.29133858267716534,
                    "duration": 0.3092782499999771
                },
                {
                    "name": "C#6",
                    "midi": 85,
                    "time": 297.52567649999986,
                    "velocity": 0.3464566929133858,
                    "duration": 0.3092782499999771
                },
                {
                    "name": "D#5",
                    "midi": 75,
                    "time": 297.83495474999984,
                    "velocity": 0.29133858267716534,
                    "duration": 0.3092782499999771
                },
                {
                    "name": "D#5",
                    "midi": 75,
                    "time": 298.1442329999998,
                    "velocity": 0.3779527559055118,
                    "duration": 0.3092782499999771
                },
                {
                    "name": "D#6",
                    "midi": 87,
                    "time": 298.4535112499998,
                    "velocity": 0.29133858267716534,
                    "duration": 0.3092782499999771
                },
                {
                    "name": "C#6",
                    "midi": 85,
                    "time": 298.76278949999977,
                    "velocity": 0.33858267716535434,
                    "duration": 0.3092782499999771
                },
                {
                    "name": "D#5",
                    "midi": 75,
                    "time": 299.07206774999975,
                    "velocity": 0.29133858267716534,
                    "duration": 0.3092782499999771
                },
                {
                    "name": "D#5",
                    "midi": 75,
                    "time": 299.3813459999997,
                    "velocity": 0.3779527559055118,
                    "duration": 0.3092782499999771
                },
                {
                    "name": "D#6",
                    "midi": 87,
                    "time": 299.6906242499997,
                    "velocity": 0.29133858267716534,
                    "duration": 0.3092782499999771
                },
                {
                    "name": "C#6",
                    "midi": 85,
                    "time": 299.9999024999997,
                    "velocity": 0.3779527559055118,
                    "duration": 0.3092782499999771
                },
                {
                    "name": "D#5",
                    "midi": 75,
                    "time": 300.30918074999965,
                    "velocity": 0.3464566929133858,
                    "duration": 0.3092782499999771
                },
                {
                    "name": "C6",
                    "midi": 84,
                    "time": 300.61845899999963,
                    "velocity": 0.41732283464566927,
                    "duration": 0.3092782499999771
                },
                {
                    "name": "D#6",
                    "midi": 87,
                    "time": 300.9277372499996,
                    "velocity": 0.36220472440944884,
                    "duration": 0.3092782499999771
                },
                {
                    "name": "A#5",
                    "midi": 82,
                    "time": 301.2370154999996,
                    "velocity": 0.4094488188976378,
                    "duration": 0.3092782499999771
                },
                {
                    "name": "D#6",
                    "midi": 87,
                    "time": 301.54629374999956,
                    "velocity": 0.3700787401574803,
                    "duration": 0.3092782499999771
                },
                {
                    "name": "D#5",
                    "midi": 75,
                    "time": 301.85557199999954,
                    "velocity": 0.4566929133858268,
                    "duration": 0.3092782499999771
                },
                {
                    "name": "D#6",
                    "midi": 87,
                    "time": 302.1648502499995,
                    "velocity": 0.28346456692913385,
                    "duration": 0.3092782499999771
                },
                {
                    "name": "C6",
                    "midi": 84,
                    "time": 302.4741284999995,
                    "velocity": 0.3464566929133858,
                    "duration": 0.3092782499999771
                },
                {
                    "name": "D#5",
                    "midi": 75,
                    "time": 302.7834067499995,
                    "velocity": 0.28346456692913385,
                    "duration": 0.3092782499999771
                },
                {
                    "name": "D#5",
                    "midi": 75,
                    "time": 303.09268499999945,
                    "velocity": 0.3937007874015748,
                    "duration": 0.3092782499999771
                },
                {
                    "name": "D#6",
                    "midi": 87,
                    "time": 303.4019632499994,
                    "velocity": 0.28346456692913385,
                    "duration": 0.3092782499999771
                },
                {
                    "name": "C6",
                    "midi": 84,
                    "time": 303.7112414999994,
                    "velocity": 0.33858267716535434,
                    "duration": 0.3092782499999771
                },
                {
                    "name": "D#5",
                    "midi": 75,
                    "time": 304.0205197499994,
                    "velocity": 0.28346456692913385,
                    "duration": 0.3092782499999771
                },
                {
                    "name": "D#5",
                    "midi": 75,
                    "time": 304.32979799999936,
                    "velocity": 0.3937007874015748,
                    "duration": 0.3092782499999771
                },
                {
                    "name": "D#6",
                    "midi": 87,
                    "time": 304.63907624999933,
                    "velocity": 0.28346456692913385,
                    "duration": 0.3092782499999771
                },
                {
                    "name": "C6",
                    "midi": 84,
                    "time": 304.9483544999993,
                    "velocity": 0.3464566929133858,
                    "duration": 0.3092782499999771
                },
                {
                    "name": "D#5",
                    "midi": 75,
                    "time": 305.2576327499993,
                    "velocity": 0.28346456692913385,
                    "duration": 0.3092782499999771
                },
                {
                    "name": "G#5",
                    "midi": 80,
                    "time": 305.56691099999927,
                    "velocity": 0.41732283464566927,
                    "duration": 0.3092782499999771
                },
                {
                    "name": "G#6",
                    "midi": 92,
                    "time": 305.87618924999924,
                    "velocity": 0.3464566929133858,
                    "duration": 0.3092782499999771
                },
                {
                    "name": "D#5",
                    "midi": 75,
                    "time": 306.1854674999992,
                    "velocity": 0.41732283464566927,
                    "duration": 0.3092782499999771
                },
                {
                    "name": "D#6",
                    "midi": 87,
                    "time": 306.4947457499992,
                    "velocity": 0.3700787401574803,
                    "duration": 0.3092782499999771
                },
                {
                    "name": "D#6",
                    "midi": 87,
                    "time": 306.8040239999992,
                    "velocity": 0.49606299212598426,
                    "duration": 0.3092782499999771
                },
                {
                    "name": "D#7",
                    "midi": 99,
                    "time": 307.11330224999915,
                    "velocity": 0.4094488188976378,
                    "duration": 0.3092782499999771
                },
                {
                    "name": "C#7",
                    "midi": 97,
                    "time": 307.4225804999991,
                    "velocity": 0.4881889763779528,
                    "duration": 0.3092782499999771
                },
                {
                    "name": "D#6",
                    "midi": 87,
                    "time": 307.7318587499991,
                    "velocity": 0.3937007874015748,
                    "duration": 0.3092782499999771
                },
                {
                    "name": "D#6",
                    "midi": 87,
                    "time": 308.0411369999991,
                    "velocity": 0.49606299212598426,
                    "duration": 0.3092782499999771
                },
                {
                    "name": "D#7",
                    "midi": 99,
                    "time": 308.35041524999906,
                    "velocity": 0.4251968503937008,
                    "duration": 0.3092782499999771
                },
                {
                    "name": "C#7",
                    "midi": 97,
                    "time": 308.65969349999904,
                    "velocity": 0.4645669291338583,
                    "duration": 0.3092782499999771
                },
                {
                    "name": "D#6",
                    "midi": 87,
                    "time": 308.968971749999,
                    "velocity": 0.4015748031496063,
                    "duration": 0.3092782499999771
                },
                {
                    "name": "D#6",
                    "midi": 87,
                    "time": 309.278249999999,
                    "velocity": 0.5039370078740157,
                    "duration": 0.3092782499999771
                },
                {
                    "name": "D#7",
                    "midi": 99,
                    "time": 309.58752824999897,
                    "velocity": 0.3779527559055118,
                    "duration": 0.3092782499999771
                },
                {
                    "name": "C#7",
                    "midi": 97,
                    "time": 309.89680649999895,
                    "velocity": 0.44881889763779526,
                    "duration": 0.3092782499999771
                },
                {
                    "name": "D#6",
                    "midi": 87,
                    "time": 310.2060847499989,
                    "velocity": 0.36220472440944884,
                    "duration": 0.3092782499999771
                },
                {
                    "name": "C7",
                    "midi": 96,
                    "time": 310.5153629999989,
                    "velocity": 0.49606299212598426,
                    "duration": 0.3092782499999771
                },
                {
                    "name": "D#7",
                    "midi": 99,
                    "time": 310.8246412499989,
                    "velocity": 0.4094488188976378,
                    "duration": 0.3092782499999771
                },
                {
                    "name": "A#6",
                    "midi": 94,
                    "time": 311.13391949999885,
                    "velocity": 0.4645669291338583,
                    "duration": 0.3092782499999771
                },
                {
                    "name": "D#7",
                    "midi": 99,
                    "time": 311.44319774999883,
                    "velocity": 0.3779527559055118,
                    "duration": 0.3092782499999771
                },
                {
                    "name": "A#6",
                    "midi": 94,
                    "time": 311.7524759999988,
                    "velocity": 0.4645669291338583,
                    "duration": 3.0927824999999984
                },
                {
                    "name": "C7",
                    "midi": 96,
                    "time": 314.8452584999988,
                    "velocity": 0.5196850393700787,
                    "duration": 0.6185565000000111
                },
                {
                    "name": "C#7",
                    "midi": 97,
                    "time": 315.4638149999988,
                    "velocity": 0.5590551181102362,
                    "duration": 0.6185565000000111
                },
                {
                    "name": "D7",
                    "midi": 98,
                    "time": 316.0823714999988,
                    "velocity": 0.5905511811023622,
                    "duration": 0.6185565000000111
                },
                {
                    "name": "D#7",
                    "midi": 99,
                    "time": 316.70092799999884,
                    "velocity": 0.6220472440944882,
                    "duration": 3.7113390000000095
                },
                {
                    "name": "G6",
                    "midi": 91,
                    "time": 320.41226699999885,
                    "velocity": 0.5196850393700787,
                    "duration": 1.2371130000000221
                },
                {
                    "name": "C7",
                    "midi": 96,
                    "time": 321.64937999999887,
                    "velocity": 0.4409448818897638,
                    "duration": 0.3092782499999771
                },
                {
                    "name": "D#7",
                    "midi": 99,
                    "time": 321.95865824999885,
                    "velocity": 0.3858267716535433,
                    "duration": 0.3092782499999771
                },
                {
                    "name": "G#6",
                    "midi": 92,
                    "time": 322.2679364999988,
                    "velocity": 0.3858267716535433,
                    "duration": 0.3092782499999771
                },
                {
                    "name": "C7",
                    "midi": 96,
                    "time": 322.5772147499988,
                    "velocity": 0.3543307086614173,
                    "duration": 0.3092782499999771
                },
                {
                    "name": "D#6",
                    "midi": 87,
                    "time": 322.8864929999988,
                    "velocity": 0.4409448818897638,
                    "duration": 0.3092782499999771
                },
                {
                    "name": "G#6",
                    "midi": 92,
                    "time": 323.19577124999876,
                    "velocity": 0.3937007874015748,
                    "duration": 0.3092782499999771
                },
                {
                    "name": "C6",
                    "midi": 84,
                    "time": 323.50504949999873,
                    "velocity": 0.3937007874015748,
                    "duration": 0.3092782499999771
                },
                {
                    "name": "D#6",
                    "midi": 87,
                    "time": 323.8143277499987,
                    "velocity": 0.3543307086614173,
                    "duration": 0.3092782499999771
                },
                {
                    "name": "G#5",
                    "midi": 80,
                    "time": 324.1236059999987,
                    "velocity": 0.4409448818897638,
                    "duration": 0.3092782499999771
                },
                {
                    "name": "C6",
                    "midi": 84,
                    "time": 324.43288424999866,
                    "velocity": 0.3937007874015748,
                    "duration": 0.3092782499999771
                },
                {
                    "name": "D#5",
                    "midi": 75,
                    "time": 324.74216249999864,
                    "velocity": 0.3937007874015748,
                    "duration": 0.3092782499999771
                },
                {
                    "name": "G#5",
                    "midi": 80,
                    "time": 325.0514407499986,
                    "velocity": 0.3937007874015748,
                    "duration": 0.3092782499999771
                },
                {
                    "name": "C5",
                    "midi": 72,
                    "time": 325.3607189999986,
                    "velocity": 0.4409448818897638,
                    "duration": 0.3092782499999771
                },
                {
                    "name": "D#5",
                    "midi": 75,
                    "time": 325.6699972499986,
                    "velocity": 0.3937007874015748,
                    "duration": 0.3092782499999771
                },
                {
                    "name": "G#4",
                    "midi": 68,
                    "time": 325.97927549999855,
                    "velocity": 0.3937007874015748,
                    "duration": 0.3092782499999771
                },
                {
                    "name": "C5",
                    "midi": 72,
                    "time": 326.2885537499985,
                    "velocity": 0.3543307086614173,
                    "duration": 0.3092782499999771
                },
                {
                    "name": "D#4",
                    "midi": 63,
                    "time": 326.5978319999985,
                    "velocity": 0.41732283464566927,
                    "duration": 0.3092782499999771
                },
                {
                    "name": "G#4",
                    "midi": 68,
                    "time": 326.9071102499985,
                    "velocity": 0.3464566929133858,
                    "duration": 0.3092782499999771
                },
                {
                    "name": "C4",
                    "midi": 60,
                    "time": 327.21638849999846,
                    "velocity": 0.3464566929133858,
                    "duration": 0.3092782499999771
                },
                {
                    "name": "D#4",
                    "midi": 63,
                    "time": 327.52566674999844,
                    "velocity": 0.31496062992125984,
                    "duration": 0.3092782499999771
                },
                {
                    "name": "B4",
                    "midi": 71,
                    "time": 340.2060749999984,
                    "velocity": 0.3543307086614173,
                    "duration": 0.6185565000000111
                },
                {
                    "name": "G#4",
                    "midi": 68,
                    "time": 340.2060749999984,
                    "velocity": 0.2992125984251969,
                    "duration": 0.6185565000000111
                },
                {
                    "name": "A#4",
                    "midi": 70,
                    "time": 340.8246314999984,
                    "velocity": 0.31496062992125984,
                    "duration": 0.6185565000000111
                },
                {
                    "name": "C#5",
                    "midi": 73,
                    "time": 340.8246314999984,
                    "velocity": 0.3779527559055118,
                    "duration": 0.6185565000000111
                },
                {
                    "name": "D#5",
                    "midi": 75,
                    "time": 341.44318799999843,
                    "velocity": 0.3937007874015748,
                    "duration": 1.2371130000000221
                },
                {
                    "name": "B4",
                    "midi": 71,
                    "time": 341.44318799999843,
                    "velocity": 0.33070866141732286,
                    "duration": 1.2371130000000221
                },
                {
                    "name": "B2",
                    "midi": 47,
                    "time": 344.5359704999984,
                    "velocity": 0.3464566929133858,
                    "duration": 0.6185565000000111
                },
                {
                    "name": "D#3",
                    "midi": 51,
                    "time": 344.5359704999984,
                    "velocity": 0.29133858267716534,
                    "duration": 0.6185565000000111
                },
                {
                    "name": "D#3",
                    "midi": 51,
                    "time": 345.15452699999844,
                    "velocity": 0.30708661417322836,
                    "duration": 0.6185565000000111
                },
                {
                    "name": "A#2",
                    "midi": 46,
                    "time": 345.15452699999844,
                    "velocity": 0.3700787401574803,
                    "duration": 0.6185565000000111
                },
                {
                    "name": "G#2",
                    "midi": 44,
                    "time": 345.77308349999845,
                    "velocity": 0.3937007874015748,
                    "duration": 0.6185565000000111
                },
                {
                    "name": "D#3",
                    "midi": 51,
                    "time": 345.77308349999845,
                    "velocity": 0.33070866141732286,
                    "duration": 0.6185565000000111
                },
                {
                    "name": "D#2",
                    "midi": 39,
                    "time": 346.39163999999846,
                    "velocity": 0.4330708661417323,
                    "duration": 0.6185565000000111
                },
                {
                    "name": "D#3",
                    "midi": 51,
                    "time": 346.39163999999846,
                    "velocity": 0.30708661417322836,
                    "duration": 0.6185565000000111
                },
                {
                    "name": "A#4",
                    "midi": 70,
                    "time": 350.10297899999847,
                    "velocity": 0.4251968503937008,
                    "duration": 0.6185565000000111
                },
                {
                    "name": "C#5",
                    "midi": 73,
                    "time": 350.10297899999847,
                    "velocity": 0.5039370078740157,
                    "duration": 0.6185565000000111
                },
                {
                    "name": "E5",
                    "midi": 76,
                    "time": 350.7215354999985,
                    "velocity": 0.48031496062992124,
                    "duration": 0.6185565000000111
                },
                {
                    "name": "C#5",
                    "midi": 73,
                    "time": 350.7215354999985,
                    "velocity": 0.4015748031496063,
                    "duration": 0.6185565000000111
                },
                {
                    "name": "D#5",
                    "midi": 75,
                    "time": 351.3400919999985,
                    "velocity": 0.44881889763779526,
                    "duration": 1.2371130000000221
                },
                {
                    "name": "B4",
                    "midi": 71,
                    "time": 351.3400919999985,
                    "velocity": 0.3779527559055118,
                    "duration": 1.2371130000000221
                },
                {
                    "name": "D#3",
                    "midi": 51,
                    "time": 355.0514309999985,
                    "velocity": 0.3228346456692913,
                    "duration": 0.6185565000000111
                },
                {
                    "name": "B2",
                    "midi": 47,
                    "time": 355.0514309999985,
                    "velocity": 0.44881889763779526,
                    "duration": 0.6185565000000111
                },
                {
                    "name": "A#2",
                    "midi": 46,
                    "time": 355.6699874999985,
                    "velocity": 0.3700787401574803,
                    "duration": 0.6185565000000111
                },
                {
                    "name": "D#3",
                    "midi": 51,
                    "time": 355.6699874999985,
                    "velocity": 0.30708661417322836,
                    "duration": 0.6185565000000111
                },
                {
                    "name": "G#2",
                    "midi": 44,
                    "time": 356.2885439999985,
                    "velocity": 0.3937007874015748,
                    "duration": 0.6185565000000111
                },
                {
                    "name": "D#3",
                    "midi": 51,
                    "time": 356.2885439999985,
                    "velocity": 0.33070866141732286,
                    "duration": 0.613401862499984
                },
                {
                    "name": "B4",
                    "midi": 71,
                    "time": 359.99988299999853,
                    "velocity": 0.4015748031496063,
                    "duration": 0.6185565000000111
                },
                {
                    "name": "G#4",
                    "midi": 68,
                    "time": 359.99988299999853,
                    "velocity": 0.33858267716535434,
                    "duration": 0.6185565000000111
                },
                {
                    "name": "C#5",
                    "midi": 73,
                    "time": 360.61843949999854,
                    "velocity": 0.4330708661417323,
                    "duration": 0.6185565000000111
                },
                {
                    "name": "A#4",
                    "midi": 70,
                    "time": 360.61843949999854,
                    "velocity": 0.36220472440944884,
                    "duration": 0.6185565000000111
                },
                {
                    "name": "B4",
                    "midi": 71,
                    "time": 361.23699599999856,
                    "velocity": 0.3779527559055118,
                    "duration": 1.2371130000000221
                },
                {
                    "name": "D#5",
                    "midi": 75,
                    "time": 361.23699599999856,
                    "velocity": 0.44881889763779526,
                    "duration": 1.2371130000000221
                },
                {
                    "name": "D#3",
                    "midi": 51,
                    "time": 364.32977849999855,
                    "velocity": 0.3937007874015748,
                    "duration": 0.6185565000000111
                },
                {
                    "name": "F#3",
                    "midi": 54,
                    "time": 364.32977849999855,
                    "velocity": 0.33070866141732286,
                    "duration": 0.6185565000000111
                },
                {
                    "name": "C#3",
                    "midi": 49,
                    "time": 364.94833499999856,
                    "velocity": 0.4015748031496063,
                    "duration": 0.6185565000000111
                },
                {
                    "name": "F#3",
                    "midi": 54,
                    "time": 364.94833499999856,
                    "velocity": 0.33070866141732286,
                    "duration": 0.6185565000000111
                },
                {
                    "name": "B2",
                    "midi": 47,
                    "time": 365.5668914999986,
                    "velocity": 0.4251968503937008,
                    "duration": 0.6185565000000111
                },
                {
                    "name": "F#3",
                    "midi": 54,
                    "time": 365.5668914999986,
                    "velocity": 0.3543307086614173,
                    "duration": 0.6185565000000111
                },
                {
                    "name": "F#2",
                    "midi": 42,
                    "time": 366.1854479999986,
                    "velocity": 0.49606299212598426,
                    "duration": 0.6185565000000111
                },
                {
                    "name": "F#3",
                    "midi": 54,
                    "time": 366.1854479999986,
                    "velocity": 0.3464566929133858,
                    "duration": 0.6185565000000111
                },
                {
                    "name": "E5",
                    "midi": 76,
                    "time": 369.8967869999986,
                    "velocity": 0.5748031496062992,
                    "duration": 0.6185565000000111
                },
                {
                    "name": "C#5",
                    "midi": 73,
                    "time": 369.8967869999986,
                    "velocity": 0.4881889763779528,
                    "duration": 0.6185565000000111
                },
                {
                    "name": "G#5",
                    "midi": 80,
                    "time": 370.5153434999986,
                    "velocity": 0.5511811023622047,
                    "duration": 0.6185565000000111
                },
                {
                    "name": "E5",
                    "midi": 76,
                    "time": 370.5153434999986,
                    "velocity": 0.4566929133858268,
                    "duration": 0.6185565000000111
                },
                {
                    "name": "D#5",
                    "midi": 75,
                    "time": 371.1338999999986,
                    "velocity": 0.5433070866141733,
                    "duration": 1.2371130000000221
                },
                {
                    "name": "F#5",
                    "midi": 78,
                    "time": 371.1338999999986,
                    "velocity": 0.5118110236220472,
                    "duration": 1.2371130000000221
                },
                {
                    "name": "D#3",
                    "midi": 51,
                    "time": 374.8452389999986,
                    "velocity": 0.4645669291338583,
                    "duration": 0.6185565000000111
                },
                {
                    "name": "F#3",
                    "midi": 54,
                    "time": 374.8452389999986,
                    "velocity": 0.33858267716535434,
                    "duration": 0.6185565000000111
                },
                {
                    "name": "C#3",
                    "midi": 49,
                    "time": 375.46379549999864,
                    "velocity": 0.3779527559055118,
                    "duration": 0.6185565000000111
                },
                {
                    "name": "F#3",
                    "midi": 54,
                    "time": 375.46379549999864,
                    "velocity": 0.31496062992125984,
                    "duration": 0.6185565000000111
                },
                {
                    "name": "F#3",
                    "midi": 54,
                    "time": 376.08235199999865,
                    "velocity": 0.33070866141732286,
                    "duration": 0.613401862499984
                },
                {
                    "name": "B2",
                    "midi": 47,
                    "time": 376.08235199999865,
                    "velocity": 0.3937007874015748,
                    "duration": 0.6185565000000111
                },
                {
                    "name": "D#5",
                    "midi": 75,
                    "time": 379.17513449999865,
                    "velocity": 0.48031496062992124,
                    "duration": 0.6185565000000111
                },
                {
                    "name": "C#5",
                    "midi": 73,
                    "time": 379.79369099999866,
                    "velocity": 0.5039370078740157,
                    "duration": 0.6185565000000111
                },
                {
                    "name": "B4",
                    "midi": 71,
                    "time": 380.41224749999867,
                    "velocity": 0.5196850393700787,
                    "duration": 0.6185565000000111
                },
                {
                    "name": "G#4",
                    "midi": 68,
                    "time": 381.0308039999987,
                    "velocity": 0.5196850393700787,
                    "duration": 1.2371130000000221
                },
                {
                    "name": "E3",
                    "midi": 52,
                    "time": 384.1235864999987,
                    "velocity": 0.5118110236220472,
                    "duration": 0.6185565000000111
                },
                {
                    "name": "D#3",
                    "midi": 51,
                    "time": 384.7421429999987,
                    "velocity": 0.5354330708661418,
                    "duration": 0.6185565000000111
                },
                {
                    "name": "C#3",
                    "midi": 49,
                    "time": 385.3606994999987,
                    "velocity": 0.5590551181102362,
                    "duration": 0.6185565000000111
                },
                {
                    "name": "A#2",
                    "midi": 46,
                    "time": 385.9792559999987,
                    "velocity": 0.5984251968503937,
                    "duration": 2.4742259999999874
                },
                {
                    "name": "B2",
                    "midi": 47,
                    "time": 388.4534819999987,
                    "velocity": 0.48031496062992124,
                    "duration": 0.6185565000000111
                },
                {
                    "name": "D#5",
                    "midi": 75,
                    "time": 389.0720384999987,
                    "velocity": 0.5354330708661418,
                    "duration": 0.6185565000000111
                },
                {
                    "name": "E5",
                    "midi": 76,
                    "time": 389.6905949999987,
                    "velocity": 0.5748031496062992,
                    "duration": 0.6185565000000111
                },
                {
                    "name": "F5",
                    "midi": 77,
                    "time": 390.30915149999873,
                    "velocity": 0.6062992125984252,
                    "duration": 0.6185565000000111
                },
                {
                    "name": "F#5",
                    "midi": 78,
                    "time": 390.92770799999874,
                    "velocity": 0.6456692913385826,
                    "duration": 4.948451999999975
                },
                {
                    "name": "D#5",
                    "midi": 75,
                    "time": 395.8761599999987,
                    "velocity": 0.5196850393700787,
                    "duration": 1.2371130000000221
                },
                {
                    "name": "B2",
                    "midi": 47,
                    "time": 398.9689424999987,
                    "velocity": 0.3464566929133858,
                    "duration": 0.6185565000000111
                },
                {
                    "name": "C#3",
                    "midi": 49,
                    "time": 399.58749899999873,
                    "velocity": 0.3779527559055118,
                    "duration": 0.6185565000000111
                },
                {
                    "name": "D3",
                    "midi": 50,
                    "time": 400.20605549999874,
                    "velocity": 0.3543307086614173,
                    "duration": 0.6185565000000111
                },
                {
                    "name": "F#2",
                    "midi": 42,
                    "time": 400.82461199999875,
                    "velocity": 0.3779527559055118,
                    "duration": 4.948451999999975
                },
                {
                    "name": "B1",
                    "midi": 35,
                    "time": 405.7730639999987,
                    "velocity": 0.3464566929133858,
                    "duration": 1.2371130000000221
                },
                {
                    "name": "D#2",
                    "midi": 39,
                    "time": 408.24728999999877,
                    "velocity": 0.3779527559055118,
                    "duration": 1.8556694999999763
                },
                {
                    "name": "C#2",
                    "midi": 37,
                    "time": 410.10295949999875,
                    "velocity": 0.3228346456692913,
                    "duration": 0.20618550000000369
                },
                {
                    "name": "B1",
                    "midi": 35,
                    "time": 410.30914499999875,
                    "velocity": 0.2755905511811024,
                    "duration": 0.20618550000000369
                },
                {
                    "name": "A#1",
                    "midi": 34,
                    "time": 410.51533049999875,
                    "velocity": 0.2755905511811024,
                    "duration": 0.20618550000000369
                },
                {
                    "name": "G#4",
                    "midi": 68,
                    "time": 414.43285499999877,
                    "velocity": 0.2992125984251969,
                    "duration": 0.6185565000000111
                },
                {
                    "name": "B4",
                    "midi": 71,
                    "time": 414.43285499999877,
                    "velocity": 0.3543307086614173,
                    "duration": 0.6185565000000111
                },
                {
                    "name": "A#4",
                    "midi": 70,
                    "time": 415.0514114999988,
                    "velocity": 0.31496062992125984,
                    "duration": 0.6185565000000111
                },
                {
                    "name": "C#5",
                    "midi": 73,
                    "time": 415.0514114999988,
                    "velocity": 0.3779527559055118,
                    "duration": 0.6185565000000111
                },
                {
                    "name": "D#5",
                    "midi": 75,
                    "time": 415.6699679999988,
                    "velocity": 0.3937007874015748,
                    "duration": 1.2371130000000221
                },
                {
                    "name": "B4",
                    "midi": 71,
                    "time": 415.6699679999988,
                    "velocity": 0.33070866141732286,
                    "duration": 1.2371130000000221
                },
                {
                    "name": "B2",
                    "midi": 47,
                    "time": 418.7627504999988,
                    "velocity": 0.3464566929133858,
                    "duration": 0.6185565000000111
                },
                {
                    "name": "D#3",
                    "midi": 51,
                    "time": 418.7627504999988,
                    "velocity": 0.29133858267716534,
                    "duration": 0.6185565000000111
                },
                {
                    "name": "D#3",
                    "midi": 51,
                    "time": 419.3813069999988,
                    "velocity": 0.30708661417322836,
                    "duration": 0.6185565000000111
                },
                {
                    "name": "A#2",
                    "midi": 46,
                    "time": 419.3813069999988,
                    "velocity": 0.3700787401574803,
                    "duration": 0.6185565000000111
                },
                {
                    "name": "G#2",
                    "midi": 44,
                    "time": 419.9998634999988,
                    "velocity": 0.3937007874015748,
                    "duration": 0.6185565000000111
                },
                {
                    "name": "D#3",
                    "midi": 51,
                    "time": 419.9998634999988,
                    "velocity": 0.33070866141732286,
                    "duration": 0.6185565000000111
                },
                {
                    "name": "D#2",
                    "midi": 39,
                    "time": 420.6184199999988,
                    "velocity": 0.4330708661417323,
                    "duration": 0.6185565000000111
                },
                {
                    "name": "D#3",
                    "midi": 51,
                    "time": 420.6184199999988,
                    "velocity": 0.30708661417322836,
                    "duration": 0.613401862499984
                },
                {
                    "name": "C#5",
                    "midi": 73,
                    "time": 424.32975899999883,
                    "velocity": 0.5039370078740157,
                    "duration": 0.6185565000000111
                },
                {
                    "name": "A#4",
                    "midi": 70,
                    "time": 424.32975899999883,
                    "velocity": 0.4251968503937008,
                    "duration": 0.6185565000000111
                },
                {
                    "name": "C#5",
                    "midi": 73,
                    "time": 424.94831549999884,
                    "velocity": 0.4015748031496063,
                    "duration": 0.6185565000000111
                },
                {
                    "name": "E5",
                    "midi": 76,
                    "time": 424.94831549999884,
                    "velocity": 0.48031496062992124,
                    "duration": 0.6185565000000111
                },
                {
                    "name": "D#5",
                    "midi": 75,
                    "time": 425.56687199999885,
                    "velocity": 0.44881889763779526,
                    "duration": 1.2371130000000221
                },
                {
                    "name": "B4",
                    "midi": 71,
                    "time": 425.56687199999885,
                    "velocity": 0.3779527559055118,
                    "duration": 1.2371130000000221
                },
                {
                    "name": "B2",
                    "midi": 47,
                    "time": 429.27821099999886,
                    "velocity": 0.44881889763779526,
                    "duration": 0.6185565000000111
                },
                {
                    "name": "D#3",
                    "midi": 51,
                    "time": 429.27821099999886,
                    "velocity": 0.3228346456692913,
                    "duration": 0.6185565000000111
                },
                {
                    "name": "D#3",
                    "midi": 51,
                    "time": 429.8967674999989,
                    "velocity": 0.30708661417322836,
                    "duration": 0.6185565000000111
                },
                {
                    "name": "A#2",
                    "midi": 46,
                    "time": 429.8967674999989,
                    "velocity": 0.3700787401574803,
                    "duration": 0.6185565000000111
                },
                {
                    "name": "D#3",
                    "midi": 51,
                    "time": 430.5153239999989,
                    "velocity": 0.33070866141732286,
                    "duration": 0.6185565000000111
                },
                {
                    "name": "G#2",
                    "midi": 44,
                    "time": 430.5153239999989,
                    "velocity": 0.3937007874015748,
                    "duration": 0.6185565000000111
                },
                {
                    "name": "G#4",
                    "midi": 68,
                    "time": 434.2266629999989,
                    "velocity": 0.33858267716535434,
                    "duration": 0.6185565000000111
                },
                {
                    "name": "B4",
                    "midi": 71,
                    "time": 434.2266629999989,
                    "velocity": 0.4015748031496063,
                    "duration": 0.6185565000000111
                },
                {
                    "name": "A#4",
                    "midi": 70,
                    "time": 434.8452194999989,
                    "velocity": 0.36220472440944884,
                    "duration": 0.6185565000000111
                },
                {
                    "name": "C#5",
                    "midi": 73,
                    "time": 434.8452194999989,
                    "velocity": 0.4330708661417323,
                    "duration": 0.6185565000000111
                },
                {
                    "name": "B4",
                    "midi": 71,
                    "time": 435.4637759999989,
                    "velocity": 0.3779527559055118,
                    "duration": 1.2371130000000221
                },
                {
                    "name": "D#5",
                    "midi": 75,
                    "time": 435.4637759999989,
                    "velocity": 0.44881889763779526,
                    "duration": 1.2371130000000221
                },
                {
                    "name": "D#3",
                    "midi": 51,
                    "time": 438.5565584999989,
                    "velocity": 0.3937007874015748,
                    "duration": 0.6185565000000111
                },
                {
                    "name": "F#3",
                    "midi": 54,
                    "time": 438.5565584999989,
                    "velocity": 0.33070866141732286,
                    "duration": 0.6185565000000111
                },
                {
                    "name": "F#3",
                    "midi": 54,
                    "time": 439.1751149999989,
                    "velocity": 0.33070866141732286,
                    "duration": 0.6185565000000111
                },
                {
                    "name": "C#3",
                    "midi": 49,
                    "time": 439.1751149999989,
                    "velocity": 0.4015748031496063,
                    "duration": 0.6185565000000111
                },
                {
                    "name": "B2",
                    "midi": 47,
                    "time": 439.79367149999894,
                    "velocity": 0.4251968503937008,
                    "duration": 0.6185565000000111
                },
                {
                    "name": "F#3",
                    "midi": 54,
                    "time": 439.79367149999894,
                    "velocity": 0.3543307086614173,
                    "duration": 0.6185565000000111
                },
                {
                    "name": "F#3",
                    "midi": 54,
                    "time": 440.41222799999895,
                    "velocity": 0.3464566929133858,
                    "duration": 0.6185565000000111
                },
                {
                    "name": "F#2",
                    "midi": 42,
                    "time": 440.41222799999895,
                    "velocity": 0.49606299212598426,
                    "duration": 0.6185565000000111
                },
                {
                    "name": "E5",
                    "midi": 76,
                    "time": 444.12356699999896,
                    "velocity": 0.5748031496062992,
                    "duration": 0.6185565000000111
                },
                {
                    "name": "C#5",
                    "midi": 73,
                    "time": 444.12356699999896,
                    "velocity": 0.4881889763779528,
                    "duration": 0.6185565000000111
                },
                {
                    "name": "G#5",
                    "midi": 80,
                    "time": 444.74212349999897,
                    "velocity": 0.5511811023622047,
                    "duration": 0.6185565000000111
                },
                {
                    "name": "E5",
                    "midi": 76,
                    "time": 444.74212349999897,
                    "velocity": 0.4566929133858268,
                    "duration": 0.6185565000000111
                },
                {
                    "name": "F#5",
                    "midi": 78,
                    "time": 445.360679999999,
                    "velocity": 0.5118110236220472,
                    "duration": 1.2371130000000221
                },
                {
                    "name": "D#5",
                    "midi": 75,
                    "time": 445.360679999999,
                    "velocity": 0.5433070866141733,
                    "duration": 1.2371130000000221
                },
                {
                    "name": "F#3",
                    "midi": 54,
                    "time": 449.072018999999,
                    "velocity": 0.33858267716535434,
                    "duration": 0.6185565000000111
                },
                {
                    "name": "D#3",
                    "midi": 51,
                    "time": 449.072018999999,
                    "velocity": 0.4645669291338583,
                    "duration": 0.6185565000000111
                },
                {
                    "name": "F#3",
                    "midi": 54,
                    "time": 449.690575499999,
                    "velocity": 0.31496062992125984,
                    "duration": 0.6185565000000111
                },
                {
                    "name": "C#3",
                    "midi": 49,
                    "time": 449.690575499999,
                    "velocity": 0.3779527559055118,
                    "duration": 0.6185565000000111
                },
                {
                    "name": "F#3",
                    "midi": 54,
                    "time": 450.309131999999,
                    "velocity": 0.33070866141732286,
                    "duration": 0.6185565000000111
                },
                {
                    "name": "B2",
                    "midi": 47,
                    "time": 450.309131999999,
                    "velocity": 0.3937007874015748,
                    "duration": 0.6185565000000111
                },
                {
                    "name": "D#5",
                    "midi": 75,
                    "time": 453.401914499999,
                    "velocity": 0.48031496062992124,
                    "duration": 0.6185565000000111
                },
                {
                    "name": "C#5",
                    "midi": 73,
                    "time": 454.020470999999,
                    "velocity": 0.5039370078740157,
                    "duration": 0.6185565000000111
                },
                {
                    "name": "B4",
                    "midi": 71,
                    "time": 454.63902749999903,
                    "velocity": 0.5196850393700787,
                    "duration": 0.6185565000000111
                },
                {
                    "name": "G#4",
                    "midi": 68,
                    "time": 455.25758399999904,
                    "velocity": 0.5196850393700787,
                    "duration": 1.2371130000000221
                },
                {
                    "name": "E3",
                    "midi": 52,
                    "time": 458.35036649999904,
                    "velocity": 0.5118110236220472,
                    "duration": 0.6185565000000111
                },
                {
                    "name": "D#3",
                    "midi": 51,
                    "time": 458.96892299999905,
                    "velocity": 0.5354330708661418,
                    "duration": 0.6185565000000111
                },
                {
                    "name": "C#3",
                    "midi": 49,
                    "time": 459.58747949999906,
                    "velocity": 0.5590551181102362,
                    "duration": 0.6185565000000111
                },
                {
                    "name": "A#2",
                    "midi": 46,
                    "time": 460.2060359999991,
                    "velocity": 0.5984251968503937,
                    "duration": 2.4742259999999874
                },
                {
                    "name": "B2",
                    "midi": 47,
                    "time": 462.68026199999906,
                    "velocity": 0.48031496062992124,
                    "duration": 0.6185565000000111
                },
                {
                    "name": "D#5",
                    "midi": 75,
                    "time": 463.2988184999991,
                    "velocity": 0.5354330708661418,
                    "duration": 0.6185565000000111
                },
                {
                    "name": "E5",
                    "midi": 76,
                    "time": 463.9173749999991,
                    "velocity": 0.5748031496062992,
                    "duration": 0.6185565000000111
                },
                {
                    "name": "F5",
                    "midi": 77,
                    "time": 464.5359314999991,
                    "velocity": 0.6062992125984252,
                    "duration": 0.6185565000000111
                },
                {
                    "name": "F#5",
                    "midi": 78,
                    "time": 465.1544879999991,
                    "velocity": 0.6456692913385826,
                    "duration": 4.948451999999975
                },
                {
                    "name": "D#5",
                    "midi": 75,
                    "time": 470.1029399999991,
                    "velocity": 0.5196850393700787,
                    "duration": 1.2371130000000221
                },
                {
                    "name": "B2",
                    "midi": 47,
                    "time": 473.1957224999991,
                    "velocity": 0.3464566929133858,
                    "duration": 0.6185565000000111
                },
                {
                    "name": "C#3",
                    "midi": 49,
                    "time": 473.8142789999991,
                    "velocity": 0.3779527559055118,
                    "duration": 0.6185565000000111
                },
                {
                    "name": "D3",
                    "midi": 50,
                    "time": 474.4328354999991,
                    "velocity": 0.3543307086614173,
                    "duration": 0.6185565000000111
                },
                {
                    "name": "F#2",
                    "midi": 42,
                    "time": 475.0513919999991,
                    "velocity": 0.3779527559055118,
                    "duration": 4.948451999999975
                },
                {
                    "name": "B1",
                    "midi": 35,
                    "time": 479.9998439999991,
                    "velocity": 0.3464566929133858,
                    "duration": 1.2371130000000221
                },
                {
                    "name": "D#5",
                    "midi": 75,
                    "time": 483.0926264999991,
                    "velocity": 0.4330708661417323,
                    "duration": 0.6185565000000111
                },
                {
                    "name": "D#5",
                    "midi": 75,
                    "time": 483.7111829999991,
                    "velocity": 0.4330708661417323,
                    "duration": 0.6185565000000111
                },
                {
                    "name": "E5",
                    "midi": 76,
                    "time": 484.3297394999991,
                    "velocity": 0.4330708661417323,
                    "duration": 0.6185565000000111
                },
                {
                    "name": "D#5",
                    "midi": 75,
                    "time": 484.9482959999991,
                    "velocity": 0.47244094488188976,
                    "duration": 1.2371130000000221
                },
                {
                    "name": "C#5",
                    "midi": 73,
                    "time": 484.9482959999991,
                    "velocity": 0.4015748031496063,
                    "duration": 1.2371130000000221
                },
                {
                    "name": "A#4",
                    "midi": 70,
                    "time": 484.9482959999991,
                    "velocity": 0.4015748031496063,
                    "duration": 1.2371130000000221
                },
                {
                    "name": "A#4",
                    "midi": 70,
                    "time": 486.18540899999914,
                    "velocity": 0.4330708661417323,
                    "duration": 0.6185565000000111
                },
                {
                    "name": "D#3",
                    "midi": 51,
                    "time": 488.0410784999992,
                    "velocity": 0.4330708661417323,
                    "duration": 0.6185565000000111
                },
                {
                    "name": "D#2",
                    "midi": 39,
                    "time": 488.0410784999992,
                    "velocity": 0.36220472440944884,
                    "duration": 0.6185565000000111
                },
                {
                    "name": "D#2",
                    "midi": 39,
                    "time": 488.6596349999992,
                    "velocity": 0.36220472440944884,
                    "duration": 0.6185565000000111
                },
                {
                    "name": "D#3",
                    "midi": 51,
                    "time": 488.6596349999992,
                    "velocity": 0.4330708661417323,
                    "duration": 0.6185565000000111
                },
                {
                    "name": "A#1",
                    "midi": 34,
                    "time": 489.2781914999992,
                    "velocity": 0.36220472440944884,
                    "duration": 0.6185565000000111
                },
                {
                    "name": "A#2",
                    "midi": 46,
                    "time": 489.2781914999992,
                    "velocity": 0.4330708661417323,
                    "duration": 0.6185565000000111
                },
                {
                    "name": "B2",
                    "midi": 47,
                    "time": 489.8967479999992,
                    "velocity": 0.47244094488188976,
                    "duration": 1.2371130000000221
                },
                {
                    "name": "B1",
                    "midi": 35,
                    "time": 489.8967479999992,
                    "velocity": 0.4015748031496063,
                    "duration": 1.2371130000000221
                },
                {
                    "name": "G#2",
                    "midi": 44,
                    "time": 491.13386099999923,
                    "velocity": 0.4645669291338583,
                    "duration": 0.6185565000000111
                },
                {
                    "name": "G#1",
                    "midi": 32,
                    "time": 491.13386099999923,
                    "velocity": 0.3937007874015748,
                    "duration": 0.6185565000000111
                },
                {
                    "name": "B4",
                    "midi": 71,
                    "time": 492.98953049999926,
                    "velocity": 0.4566929133858268,
                    "duration": 0.6185565000000111
                },
                {
                    "name": "D#5",
                    "midi": 75,
                    "time": 492.98953049999926,
                    "velocity": 0.5433070866141733,
                    "duration": 0.6185565000000111
                },
                {
                    "name": "D#5",
                    "midi": 75,
                    "time": 493.6080869999993,
                    "velocity": 0.5433070866141733,
                    "duration": 0.6185565000000111
                },
                {
                    "name": "B4",
                    "midi": 71,
                    "time": 493.6080869999993,
                    "velocity": 0.4566929133858268,
                    "duration": 0.6185565000000111
                },
                {
                    "name": "B4",
                    "midi": 71,
                    "time": 494.2266434999993,
                    "velocity": 0.4566929133858268,
                    "duration": 0.6185565000000111
                },
                {
                    "name": "E5",
                    "midi": 76,
                    "time": 494.2266434999993,
                    "velocity": 0.5433070866141733,
                    "duration": 0.6185565000000111
                },
                {
                    "name": "A#4",
                    "midi": 70,
                    "time": 494.8451999999993,
                    "velocity": 0.41732283464566927,
                    "duration": 1.2371130000000221
                },
                {
                    "name": "C#5",
                    "midi": 73,
                    "time": 494.8451999999993,
                    "velocity": 0.41732283464566927,
                    "duration": 1.2371130000000221
                },
                {
                    "name": "D#5",
                    "midi": 75,
                    "time": 494.8451999999993,
                    "velocity": 0.5905511811023622,
                    "duration": 1.2371130000000221
                },
                {
                    "name": "A#4",
                    "midi": 70,
                    "time": 496.0823129999993,
                    "velocity": 0.5433070866141733,
                    "duration": 0.6185565000000111
                },
                {
                    "name": "D#3",
                    "midi": 51,
                    "time": 497.93798249999935,
                    "velocity": 0.49606299212598426,
                    "duration": 0.6185565000000111
                },
                {
                    "name": "D#2",
                    "midi": 39,
                    "time": 497.93798249999935,
                    "velocity": 0.4094488188976378,
                    "duration": 0.6185565000000111
                },
                {
                    "name": "D#3",
                    "midi": 51,
                    "time": 498.55653899999936,
                    "velocity": 0.49606299212598426,
                    "duration": 0.6185565000000111
                },
                {
                    "name": "D#2",
                    "midi": 39,
                    "time": 498.55653899999936,
                    "velocity": 0.4094488188976378,
                    "duration": 0.6185565000000111
                },
                {
                    "name": "A#1",
                    "midi": 34,
                    "time": 499.1750954999994,
                    "velocity": 0.4094488188976378,
                    "duration": 0.6185565000000111
                },
                {
                    "name": "A#2",
                    "midi": 46,
                    "time": 499.1750954999994,
                    "velocity": 0.49606299212598426,
                    "duration": 0.6185565000000111
                },
                {
                    "name": "B1",
                    "midi": 35,
                    "time": 499.7936519999994,
                    "velocity": 0.4566929133858268,
                    "duration": 1.2371130000000221
                },
                {
                    "name": "B2",
                    "midi": 47,
                    "time": 499.7936519999994,
                    "velocity": 0.5433070866141733,
                    "duration": 1.2371130000000221
                },
                {
                    "name": "G#2",
                    "midi": 44,
                    "time": 501.0307649999994,
                    "velocity": 0.5039370078740157,
                    "duration": 0.6185565000000111
                },
                {
                    "name": "G#1",
                    "midi": 32,
                    "time": 501.0307649999994,
                    "velocity": 0.4251968503937008,
                    "duration": 0.6185565000000111
                },
                {
                    "name": "D#5",
                    "midi": 75,
                    "time": 502.88643449999944,
                    "velocity": 0.5669291338582677,
                    "duration": 0.6185565000000111
                },
                {
                    "name": "D#5",
                    "midi": 75,
                    "time": 503.50499099999945,
                    "velocity": 0.5905511811023622,
                    "duration": 0.6185565000000111
                },
                {
                    "name": "D#5",
                    "midi": 75,
                    "time": 504.12354749999946,
                    "velocity": 0.6220472440944882,
                    "duration": 0.6185565000000111
                },
                {
                    "name": "E5",
                    "midi": 76,
                    "time": 504.7421039999995,
                    "velocity": 0.6535433070866141,
                    "duration": 0.6185565000000111
                },
                {
                    "name": "E2",
                    "midi": 40,
                    "time": 505.9792169999995,
                    "velocity": 0.6062992125984252,
                    "duration": 2.4742259999999874
                },
                {
                    "name": "C5",
                    "midi": 72,
                    "time": 508.4534429999995,
                    "velocity": 0.5511811023622047,
                    "duration": 0.9278347499999882
                },
                {
                    "name": "D5",
                    "midi": 74,
                    "time": 509.38127774999947,
                    "velocity": 0.5275590551181102,
                    "duration": 0.3092782499999771
                },
                {
                    "name": "E5",
                    "midi": 76,
                    "time": 509.69055599999945,
                    "velocity": 0.6220472440944882,
                    "duration": 0.6185565000000111
                },
                {
                    "name": "E2",
                    "midi": 40,
                    "time": 510.92766899999947,
                    "velocity": 0.6062992125984252,
                    "duration": 2.4742260000000442
                },
                {
                    "name": "C5",
                    "midi": 72,
                    "time": 513.4018949999995,
                    "velocity": 0.5511811023622047,
                    "duration": 0.9278347499999882
                },
                {
                    "name": "D5",
                    "midi": 74,
                    "time": 514.3297297499995,
                    "velocity": 0.5275590551181102,
                    "duration": 0.30927825000003395
                },
                {
                    "name": "E5",
                    "midi": 76,
                    "time": 514.6390079999995,
                    "velocity": 0.6062992125984252,
                    "duration": 0.6185564999999542
                },
                {
                    "name": "E2",
                    "midi": 40,
                    "time": 515.8761209999994,
                    "velocity": 0.5196850393700787,
                    "duration": 2.4742260000000442
                },
                {
                    "name": "D#2",
                    "midi": 39,
                    "time": 518.3503469999995,
                    "velocity": 0.3858267716535433,
                    "duration": 1.2371130000000221
                },
                {
                    "name": "D2",
                    "midi": 38,
                    "time": 519.5874599999995,
                    "velocity": 0.4409448818897638,
                    "duration": 0.6185564999999542
                },
                {
                    "name": "F5",
                    "midi": 77,
                    "time": 520.8245729999994,
                    "velocity": 0.4330708661417323,
                    "duration": 1.8556694999999763
                },
                {
                    "name": "F5",
                    "midi": 77,
                    "time": 522.6802424999994,
                    "velocity": 0.3937007874015748,
                    "duration": 0.6185564999999542
                },
                {
                    "name": "G5",
                    "midi": 79,
                    "time": 523.2987989999993,
                    "velocity": 0.41732283464566927,
                    "duration": 0.6185564999999542
                },
                {
                    "name": "G#5",
                    "midi": 80,
                    "time": 523.9173554999993,
                    "velocity": 0.4409448818897638,
                    "duration": 0.6185564999999542
                },
                {
                    "name": "G5",
                    "midi": 79,
                    "time": 524.5359119999993,
                    "velocity": 0.49606299212598426,
                    "duration": 0.6185564999999542
                },
                {
                    "name": "D#2",
                    "midi": 39,
                    "time": 525.7730249999992,
                    "velocity": 0.33070866141732286,
                    "duration": 1.2371130000000221
                },
                {
                    "name": "F5",
                    "midi": 77,
                    "time": 527.6286944999991,
                    "velocity": 0.44881889763779526,
                    "duration": 0.6185564999999542
                },
                {
                    "name": "D#5",
                    "midi": 75,
                    "time": 528.2472509999991,
                    "velocity": 0.3937007874015748,
                    "duration": 0.6185564999999542
                },
                {
                    "name": "D5",
                    "midi": 74,
                    "time": 528.865807499999,
                    "velocity": 0.3937007874015748,
                    "duration": 0.6185564999999542
                },
                {
                    "name": "C5",
                    "midi": 72,
                    "time": 529.484363999999,
                    "velocity": 0.4645669291338583,
                    "duration": 0.6185564999999542
                },
                {
                    "name": "G#2",
                    "midi": 44,
                    "time": 530.7214769999989,
                    "velocity": 0.2283464566929134,
                    "duration": 1.2371130000000221
                },
                {
                    "name": "F2",
                    "midi": 41,
                    "time": 531.9585899999989,
                    "velocity": 0.2047244094488189,
                    "duration": 0.6185564999999542
                },
                {
                    "name": "C5",
                    "midi": 72,
                    "time": 533.1957029999988,
                    "velocity": 0.3700787401574803,
                    "duration": 1.2371130000000221
                },
                {
                    "name": "D5",
                    "midi": 74,
                    "time": 534.4328159999989,
                    "velocity": 0.4015748031496063,
                    "duration": 0.6185564999999542
                },
                {
                    "name": "A#2",
                    "midi": 46,
                    "time": 535.6699289999988,
                    "velocity": 0.2677165354330709,
                    "duration": 1.2371130000000221
                },
                {
                    "name": "B2",
                    "midi": 47,
                    "time": 536.9070419999988,
                    "velocity": 0.30708661417322836,
                    "duration": 1.2371130000000221
                },
                {
                    "name": "A#2",
                    "midi": 46,
                    "time": 538.1441549999988,
                    "velocity": 0.2755905511811024,
                    "duration": 1.2371130000000221
                },
                {
                    "name": "D#5",
                    "midi": 75,
                    "time": 539.3812679999988,
                    "velocity": 0.36220472440944884,
                    "duration": 1.2371130000000221
                },
                {
                    "name": "D#2",
                    "midi": 39,
                    "time": 541.8554939999989,
                    "velocity": 0.3858267716535433,
                    "duration": 2.4742260000000442
                },
                {
                    "name": "F2",
                    "midi": 41,
                    "time": 544.3297199999989,
                    "velocity": 0.48031496062992124,
                    "duration": 2.4742260000000442
                },
                {
                    "name": "G2",
                    "midi": 43,
                    "time": 546.803945999999,
                    "velocity": 0.30708661417322836,
                    "duration": 2.4742260000000442
                },
                {
                    "name": "G#2",
                    "midi": 44,
                    "time": 549.278171999999,
                    "velocity": 0.30708661417322836,
                    "duration": 1.2371130000000221
                },
                {
                    "name": "G#4",
                    "midi": 68,
                    "time": 552.9895109999991,
                    "velocity": 0.3543307086614173,
                    "duration": 0.6185564999999542
                },
                {
                    "name": "A#4",
                    "midi": 70,
                    "time": 553.608067499999,
                    "velocity": 0.3779527559055118,
                    "duration": 0.6185564999999542
                },
                {
                    "name": "G4",
                    "midi": 67,
                    "time": 553.608067499999,
                    "velocity": 0.31496062992125984,
                    "duration": 0.6185564999999542
                },
                {
                    "name": "G#4",
                    "midi": 68,
                    "time": 554.226623999999,
                    "velocity": 0.33070866141732286,
                    "duration": 1.2371130000000221
                },
                {
                    "name": "C5",
                    "midi": 72,
                    "time": 554.226623999999,
                    "velocity": 0.3937007874015748,
                    "duration": 1.2371130000000221
                },
                {
                    "name": "C3",
                    "midi": 48,
                    "time": 557.319406499999,
                    "velocity": 0.3464566929133858,
                    "duration": 0.6185564999999542
                },
                {
                    "name": "D#3",
                    "midi": 51,
                    "time": 557.319406499999,
                    "velocity": 0.29133858267716534,
                    "duration": 0.6185564999999542
                },
                {
                    "name": "D#3",
                    "midi": 51,
                    "time": 557.937962999999,
                    "velocity": 0.30708661417322836,
                    "duration": 0.6185564999999542
                },
                {
                    "name": "A#2",
                    "midi": 46,
                    "time": 557.937962999999,
                    "velocity": 0.3700787401574803,
                    "duration": 0.6185564999999542
                },
                {
                    "name": "G#2",
                    "midi": 44,
                    "time": 558.5565194999989,
                    "velocity": 0.3937007874015748,
                    "duration": 0.6185564999999542
                },
                {
                    "name": "D#3",
                    "midi": 51,
                    "time": 558.5565194999989,
                    "velocity": 0.33070866141732286,
                    "duration": 0.6185564999999542
                },
                {
                    "name": "D#3",
                    "midi": 51,
                    "time": 559.1750759999989,
                    "velocity": 0.30708661417322836,
                    "duration": 0.6185564999999542
                },
                {
                    "name": "D#2",
                    "midi": 39,
                    "time": 559.1750759999989,
                    "velocity": 0.4330708661417323,
                    "duration": 0.6185564999999542
                },
                {
                    "name": "A#4",
                    "midi": 70,
                    "time": 562.8864149999988,
                    "velocity": 0.4251968503937008,
                    "duration": 0.6185564999999542
                },
                {
                    "name": "C#5",
                    "midi": 73,
                    "time": 562.8864149999988,
                    "velocity": 0.5039370078740157,
                    "duration": 0.6185564999999542
                },
                {
                    "name": "F5",
                    "midi": 77,
                    "time": 563.5049714999988,
                    "velocity": 0.48031496062992124,
                    "duration": 0.6185564999999542
                },
                {
                    "name": "C#5",
                    "midi": 73,
                    "time": 563.5049714999988,
                    "velocity": 0.4015748031496063,
                    "duration": 0.6185564999999542
                },
                {
                    "name": "C5",
                    "midi": 72,
                    "time": 564.1235279999987,
                    "velocity": 0.3779527559055118,
                    "duration": 1.2371130000000221
                },
                {
                    "name": "D#5",
                    "midi": 75,
                    "time": 564.1235279999987,
                    "velocity": 0.44881889763779526,
                    "duration": 1.2371130000000221
                },
                {
                    "name": "D#3",
                    "midi": 51,
                    "time": 567.8348669999988,
                    "velocity": 0.3228346456692913,
                    "duration": 0.6185564999999542
                },
                {
                    "name": "C3",
                    "midi": 48,
                    "time": 567.8348669999988,
                    "velocity": 0.44881889763779526,
                    "duration": 0.6185564999999542
                },
                {
                    "name": "D#3",
                    "midi": 51,
                    "time": 568.4534234999987,
                    "velocity": 0.30708661417322836,
                    "duration": 0.6185564999999542
                },
                {
                    "name": "A#2",
                    "midi": 46,
                    "time": 568.4534234999987,
                    "velocity": 0.3700787401574803,
                    "duration": 0.6185564999999542
                },
                {
                    "name": "G#2",
                    "midi": 44,
                    "time": 569.0719799999987,
                    "velocity": 0.3937007874015748,
                    "duration": 0.6185565000000679
                },
                {
                    "name": "D#3",
                    "midi": 51,
                    "time": 569.0719799999987,
                    "velocity": 0.33070866141732286,
                    "duration": 0.6134018625000408
                },
                {
                    "name": "C5",
                    "midi": 72,
                    "time": 572.7833189999988,
                    "velocity": 0.4015748031496063,
                    "duration": 0.6185564999999542
                },
                {
                    "name": "G#4",
                    "midi": 68,
                    "time": 572.7833189999988,
                    "velocity": 0.33858267716535434,
                    "duration": 0.6185564999999542
                },
                {
                    "name": "A#4",
                    "midi": 70,
                    "time": 573.4018754999987,
                    "velocity": 0.36220472440944884,
                    "duration": 0.6185564999999542
                },
                {
                    "name": "C#5",
                    "midi": 73,
                    "time": 573.4018754999987,
                    "velocity": 0.4330708661417323,
                    "duration": 0.6185564999999542
                },
                {
                    "name": "C5",
                    "midi": 72,
                    "time": 574.0204319999987,
                    "velocity": 0.3779527559055118,
                    "duration": 1.2371130000000221
                },
                {
                    "name": "D#5",
                    "midi": 75,
                    "time": 574.0204319999987,
                    "velocity": 0.44881889763779526,
                    "duration": 1.2371130000000221
                },
                {
                    "name": "C3",
                    "midi": 48,
                    "time": 577.1132144999987,
                    "velocity": 0.33070866141732286,
                    "duration": 0.6185564999999542
                },
                {
                    "name": "G#2",
                    "midi": 44,
                    "time": 577.1132144999987,
                    "velocity": 0.33070866141732286,
                    "duration": 2.474225999999817
                },
                {
                    "name": "D#3",
                    "midi": 51,
                    "time": 577.1132144999987,
                    "velocity": 0.3937007874015748,
                    "duration": 0.6185564999999542
                },
                {
                    "name": "C#3",
                    "midi": 49,
                    "time": 577.7317709999986,
                    "velocity": 0.33070866141732286,
                    "duration": 0.6185564999999542
                },
                {
                    "name": "F3",
                    "midi": 53,
                    "time": 577.7317709999986,
                    "velocity": 0.4015748031496063,
                    "duration": 0.6185564999999542
                },
                {
                    "name": "G3",
                    "midi": 55,
                    "time": 578.3503274999986,
                    "velocity": 0.4251968503937008,
                    "duration": 0.6185564999999542
                },
                {
                    "name": "A#2",
                    "midi": 46,
                    "time": 578.3503274999986,
                    "velocity": 0.3543307086614173,
                    "duration": 0.6185564999999542
                },
                {
                    "name": "G#3",
                    "midi": 56,
                    "time": 578.9688839999985,
                    "velocity": 0.3464566929133858,
                    "duration": 0.6185564999999542
                },
                {
                    "name": "C3",
                    "midi": 48,
                    "time": 578.9688839999985,
                    "velocity": 0.49606299212598426,
                    "duration": 0.6185564999999542
                },
                {
                    "name": "G#5",
                    "midi": 80,
                    "time": 582.0616664999985,
                    "velocity": 0.5433070866141733,
                    "duration": 0.6185564999999542
                },
                {
                    "name": "C5",
                    "midi": 72,
                    "time": 582.0616664999985,
                    "velocity": 0.4566929133858268,
                    "duration": 0.6185564999999542
                },
                {
                    "name": "D#5",
                    "midi": 75,
                    "time": 582.6802229999985,
                    "velocity": 0.4330708661417323,
                    "duration": 0.6185564999999542
                },
                {
                    "name": "G5",
                    "midi": 79,
                    "time": 582.6802229999985,
                    "velocity": 0.5118110236220472,
                    "duration": 0.6185564999999542
                },
                {
                    "name": "F5",
                    "midi": 77,
                    "time": 583.2987794999984,
                    "velocity": 0.49606299212598426,
                    "duration": 0.6185564999999542
                },
                {
                    "name": "C#5",
                    "midi": 73,
                    "time": 583.2987794999984,
                    "velocity": 0.4094488188976378,
                    "duration": 0.6185564999999542
                },
                {
                    "name": "D#5",
                    "midi": 75,
                    "time": 583.9173359999984,
                    "velocity": 0.48031496062992124,
                    "duration": 1.2371130000000221
                },
                {
                    "name": "C5",
                    "midi": 72,
                    "time": 583.9173359999984,
                    "velocity": 0.47244094488188976,
                    "duration": 1.2371130000000221
                },
                {
                    "name": "C3",
                    "midi": 48,
                    "time": 587.0101184999984,
                    "velocity": 0.3779527559055118,
                    "duration": 0.6185564999999542
                },
                {
                    "name": "D#3",
                    "midi": 51,
                    "time": 587.0101184999984,
                    "velocity": 0.3779527559055118,
                    "duration": 0.6185564999999542
                },
                {
                    "name": "C#3",
                    "midi": 49,
                    "time": 587.6286749999983,
                    "velocity": 0.3228346456692913,
                    "duration": 0.6185564999999542
                },
                {
                    "name": "A#2",
                    "midi": 46,
                    "time": 587.6286749999983,
                    "velocity": 0.2677165354330709,
                    "duration": 0.6185564999999542
                },
                {
                    "name": "D#2",
                    "midi": 39,
                    "time": 588.2472314999983,
                    "velocity": 0.25984251968503935,
                    "duration": 0.6185564999999542
                },
                {
                    "name": "A#2",
                    "midi": 46,
                    "time": 588.2472314999983,
                    "velocity": 0.30708661417322836,
                    "duration": 0.6185564999999542
                },
                {
                    "name": "G#2",
                    "midi": 44,
                    "time": 588.8657879999982,
                    "velocity": 0.31496062992125984,
                    "duration": 0.6185564999999542
                },
                {
                    "name": "C3",
                    "midi": 48,
                    "time": 588.8657879999982,
                    "velocity": 0.3779527559055118,
                    "duration": 0.6185564999999542
                },
                {
                    "name": "C5",
                    "midi": 72,
                    "time": 592.5771269999982,
                    "velocity": 0.28346456692913385,
                    "duration": 0.6185564999999542
                },
                {
                    "name": "G#4",
                    "midi": 68,
                    "time": 592.5771269999982,
                    "velocity": 0.23622047244094488,
                    "duration": 0.6185564999999542
                },
                {
                    "name": "C#5",
                    "midi": 73,
                    "time": 593.1956834999982,
                    "velocity": 0.2992125984251969,
                    "duration": 0.6185564999999542
                },
                {
                    "name": "A#4",
                    "midi": 70,
                    "time": 593.1956834999982,
                    "velocity": 0.25196850393700787,
                    "duration": 0.6185564999999542
                },
                {
                    "name": "C5",
                    "midi": 72,
                    "time": 593.8142399999981,
                    "velocity": 0.2677165354330709,
                    "duration": 1.2371130000000221
                },
                {
                    "name": "D#5",
                    "midi": 75,
                    "time": 593.8142399999981,
                    "velocity": 0.3228346456692913,
                    "duration": 1.2371130000000221
                },
                {
                    "name": "D#3",
                    "midi": 51,
                    "time": 596.9070224999981,
                    "velocity": 0.23622047244094488,
                    "duration": 0.6185564999999542
                },
                {
                    "name": "C3",
                    "midi": 48,
                    "time": 596.9070224999981,
                    "velocity": 0.1968503937007874,
                    "duration": 0.6185564999999542
                },
                {
                    "name": "G#2",
                    "midi": 44,
                    "time": 596.9070224999981,
                    "velocity": 0.1968503937007874,
                    "duration": 2.474225999999817
                },
                {
                    "name": "C#3",
                    "midi": 49,
                    "time": 597.5255789999981,
                    "velocity": 0.2125984251968504,
                    "duration": 0.6185564999999542
                },
                {
                    "name": "F3",
                    "midi": 53,
                    "time": 597.5255789999981,
                    "velocity": 0.25196850393700787,
                    "duration": 0.6185564999999542
                },
                {
                    "name": "G3",
                    "midi": 55,
                    "time": 598.144135499998,
                    "velocity": 0.2677165354330709,
                    "duration": 0.6185564999999542
                },
                {
                    "name": "A#2",
                    "midi": 46,
                    "time": 598.144135499998,
                    "velocity": 0.2204724409448819,
                    "duration": 0.6185564999999542
                },
                {
                    "name": "C3",
                    "midi": 48,
                    "time": 598.762691999998,
                    "velocity": 0.29133858267716534,
                    "duration": 0.6185564999999542
                },
                {
                    "name": "G#3",
                    "midi": 56,
                    "time": 598.762691999998,
                    "velocity": 0.3464566929133858,
                    "duration": 0.6185564999999542
                },
                {
                    "name": "C5",
                    "midi": 72,
                    "time": 601.855474499998,
                    "velocity": 0.2755905511811024,
                    "duration": 0.6185564999999542
                },
                {
                    "name": "G#5",
                    "midi": 80,
                    "time": 601.855474499998,
                    "velocity": 0.33070866141732286,
                    "duration": 0.6185564999999542
                },
                {
                    "name": "D#5",
                    "midi": 75,
                    "time": 602.4740309999979,
                    "velocity": 0.25984251968503935,
                    "duration": 0.6185564999999542
                },
                {
                    "name": "G5",
                    "midi": 79,
                    "time": 602.4740309999979,
                    "velocity": 0.30708661417322836,
                    "duration": 0.6185564999999542
                },
                {
                    "name": "F5",
                    "midi": 77,
                    "time": 603.0925874999979,
                    "velocity": 0.28346456692913385,
                    "duration": 0.6185564999999542
                },
                {
                    "name": "C#5",
                    "midi": 73,
                    "time": 603.0925874999979,
                    "velocity": 0.23622047244094488,
                    "duration": 0.6185564999999542
                },
                {
                    "name": "D#5",
                    "midi": 75,
                    "time": 603.7111439999978,
                    "velocity": 0.33070866141732286,
                    "duration": 1.2371130000000221
                },
                {
                    "name": "C5",
                    "midi": 72,
                    "time": 603.7111439999978,
                    "velocity": 0.2755905511811024,
                    "duration": 1.2371130000000221
                },
                {
                    "name": "C3",
                    "midi": 48,
                    "time": 606.8039264999978,
                    "velocity": 0.29133858267716534,
                    "duration": 0.6185564999999542
                },
                {
                    "name": "D#3",
                    "midi": 51,
                    "time": 606.8039264999978,
                    "velocity": 0.29133858267716534,
                    "duration": 0.6185564999999542
                },
                {
                    "name": "A#2",
                    "midi": 46,
                    "time": 607.4224829999978,
                    "velocity": 0.2204724409448819,
                    "duration": 0.6185564999999542
                },
                {
                    "name": "C#3",
                    "midi": 49,
                    "time": 607.4224829999978,
                    "velocity": 0.25984251968503935,
                    "duration": 0.6185564999999542
                },
                {
                    "name": "A#2",
                    "midi": 46,
                    "time": 608.0410394999977,
                    "velocity": 0.25984251968503935,
                    "duration": 0.6185564999999542
                },
                {
                    "name": "D#2",
                    "midi": 39,
                    "time": 608.0410394999977,
                    "velocity": 0.2204724409448819,
                    "duration": 0.6185564999999542
                },
                {
                    "name": "C3",
                    "midi": 48,
                    "time": 608.6595959999977,
                    "velocity": 0.29133858267716534,
                    "duration": 0.6185564999999542
                },
                {
                    "name": "G#2",
                    "midi": 44,
                    "time": 608.6595959999977,
                    "velocity": 0.2440944881889764,
                    "duration": 0.6185564999999542
                },
                {
                    "name": "D#3",
                    "midi": 51,
                    "time": 611.7523784999977,
                    "velocity": 0.29133858267716534,
                    "duration": 0.6185564999999542
                },
                {
                    "name": "C3",
                    "midi": 48,
                    "time": 611.7523784999977,
                    "velocity": 0.29133858267716534,
                    "duration": 0.6185564999999542
                },
                {
                    "name": "A#2",
                    "midi": 46,
                    "time": 612.3709349999976,
                    "velocity": 0.2204724409448819,
                    "duration": 0.6185564999999542
                },
                {
                    "name": "C#3",
                    "midi": 49,
                    "time": 612.3709349999976,
                    "velocity": 0.25984251968503935,
                    "duration": 0.6185564999999542
                },
                {
                    "name": "D#2",
                    "midi": 39,
                    "time": 612.9894914999976,
                    "velocity": 0.2204724409448819,
                    "duration": 0.6185564999999542
                },
                {
                    "name": "A#2",
                    "midi": 46,
                    "time": 612.9894914999976,
                    "velocity": 0.25984251968503935,
                    "duration": 0.6185564999999542
                },
                {
                    "name": "G#2",
                    "midi": 44,
                    "time": 613.6080479999976,
                    "velocity": 0.2440944881889764,
                    "duration": 0.6185564999999542
                },
                {
                    "name": "C3",
                    "midi": 48,
                    "time": 613.6080479999976,
                    "velocity": 0.29133858267716534,
                    "duration": 0.6185564999999542
                },
                {
                    "name": "D#3",
                    "midi": 51,
                    "time": 616.7008304999976,
                    "velocity": 0.25196850393700787,
                    "duration": 0.6185564999999542
                },
                {
                    "name": "C3",
                    "midi": 48,
                    "time": 616.7008304999976,
                    "velocity": 0.25196850393700787,
                    "duration": 0.6185564999999542
                },
                {
                    "name": "A#2",
                    "midi": 46,
                    "time": 617.3193869999975,
                    "velocity": 0.18110236220472442,
                    "duration": 0.6185564999999542
                },
                {
                    "name": "C#3",
                    "midi": 49,
                    "time": 617.3193869999975,
                    "velocity": 0.2204724409448819,
                    "duration": 0.6185564999999542
                },
                {
                    "name": "D#2",
                    "midi": 39,
                    "time": 617.9379434999975,
                    "velocity": 0.18110236220472442,
                    "duration": 0.6185564999999542
                },
                {
                    "name": "A#2",
                    "midi": 46,
                    "time": 617.9379434999975,
                    "velocity": 0.2125984251968504,
                    "duration": 0.6185564999999542
                },
                {
                    "name": "G#1",
                    "midi": 32,
                    "time": 618.5564999999974,
                    "velocity": 0.1889763779527559,
                    "duration": 0.6185564999999542
                },
                {
                    "name": "C2",
                    "midi": 36,
                    "time": 618.5564999999974,
                    "velocity": 0.1889763779527559,
                    "duration": 0.6185564999999542
                },
                {
                    "name": "G#2",
                    "midi": 44,
                    "time": 618.5564999999974,
                    "velocity": 0.2283464566929134,
                    "duration": 0.6185564999999542
                },
                {
                    "name": "G#3",
                    "midi": 56,
                    "time": 623.5049519999974,
                    "velocity": 0.2047244094488189,
                    "duration": 0.30927825000003395
                },
                {
                    "name": "C4",
                    "midi": 60,
                    "time": 623.8142302499974,
                    "velocity": 0.1732283464566929,
                    "duration": 0.30927825000003395
                },
                {
                    "name": "C3",
                    "midi": 48,
                    "time": 624.1235084999975,
                    "velocity": 0.1732283464566929,
                    "duration": 0.30927825000003395
                },
                {
                    "name": "D#3",
                    "midi": 51,
                    "time": 624.4327867499975,
                    "velocity": 0.1732283464566929,
                    "duration": 0.30927825000003395
                },
                {
                    "name": "G#3",
                    "midi": 56,
                    "time": 624.7420649999975,
                    "velocity": 0.1889763779527559,
                    "duration": 0.30927825000003395
                },
                {
                    "name": "C4",
                    "midi": 60,
                    "time": 625.0513432499976,
                    "velocity": 0.14173228346456693,
                    "duration": 0.30927825000003395
                },
                {
                    "name": "C3",
                    "midi": 48,
                    "time": 625.3606214999976,
                    "velocity": 0.14173228346456693,
                    "duration": 0.30927825000003395
                },
                {
                    "name": "D#3",
                    "midi": 51,
                    "time": 625.6698997499976,
                    "velocity": 0.14173228346456693,
                    "duration": 0.30927825000003395
                },
                {
                    "name": "G#3",
                    "midi": 56,
                    "time": 625.9791779999977,
                    "velocity": 0.2047244094488189,
                    "duration": 0.30927825000003395
                },
                {
                    "name": "C4",
                    "midi": 60,
                    "time": 626.2884562499977,
                    "velocity": 0.1732283464566929,
                    "duration": 0.30927825000003395
                },
                {
                    "name": "C3",
                    "midi": 48,
                    "time": 626.5977344999977,
                    "velocity": 0.1732283464566929,
                    "duration": 0.30927825000003395
                },
                {
                    "name": "D#3",
                    "midi": 51,
                    "time": 626.9070127499978,
                    "velocity": 0.1732283464566929,
                    "duration": 0.30927825000003395
                },
                {
                    "name": "G#3",
                    "midi": 56,
                    "time": 627.2162909999978,
                    "velocity": 0.2440944881889764,
                    "duration": 0.30927825000003395
                },
                {
                    "name": "C4",
                    "midi": 60,
                    "time": 627.5255692499978,
                    "velocity": 0.1889763779527559,
                    "duration": 0.30927825000003395
                },
                {
                    "name": "C3",
                    "midi": 48,
                    "time": 627.8348474999979,
                    "velocity": 0.1889763779527559,
                    "duration": 0.30927825000003395
                },
                {
                    "name": "D#3",
                    "midi": 51,
                    "time": 628.1441257499979,
                    "velocity": 0.1889763779527559,
                    "duration": 0.30927825000003395
                },
                {
                    "name": "A#3",
                    "midi": 58,
                    "time": 628.4534039999979,
                    "velocity": 0.2677165354330709,
                    "duration": 0.30927825000003395
                },
                {
                    "name": "C4",
                    "midi": 60,
                    "time": 628.762682249998,
                    "velocity": 0.1889763779527559,
                    "duration": 0.30927825000003395
                },
                {
                    "name": "C3",
                    "midi": 48,
                    "time": 629.071960499998,
                    "velocity": 0.1889763779527559,
                    "duration": 0.30927825000003395
                },
                {
                    "name": "E3",
                    "midi": 52,
                    "time": 629.381238749998,
                    "velocity": 0.1889763779527559,
                    "duration": 0.30927825000003395
                },
                {
                    "name": "A#3",
                    "midi": 58,
                    "time": 629.6905169999981,
                    "velocity": 0.29133858267716534,
                    "duration": 0.30927825000003395
                },
                {
                    "name": "C4",
                    "midi": 60,
                    "time": 629.9997952499981,
                    "velocity": 0.2283464566929134,
                    "duration": 0.30927825000003395
                },
                {
                    "name": "E3",
                    "midi": 52,
                    "time": 630.3090734999981,
                    "velocity": 0.2440944881889764,
                    "duration": 0.30927825000003395
                },
                {
                    "name": "A#3",
                    "midi": 58,
                    "time": 630.6183517499982,
                    "velocity": 0.2440944881889764,
                    "duration": 0.30927825000003395
                },
                {
                    "name": "C4",
                    "midi": 60,
                    "time": 630.9276299999982,
                    "velocity": 0.3700787401574803,
                    "duration": 0.30927825000003395
                },
                {
                    "name": "E4",
                    "midi": 64,
                    "time": 631.2369082499982,
                    "velocity": 0.25984251968503935,
                    "duration": 0.30927825000003395
                },
                {
                    "name": "A#3",
                    "midi": 58,
                    "time": 631.5461864999983,
                    "velocity": 0.2677165354330709,
                    "duration": 0.30927825000003395
                },
                {
                    "name": "C4",
                    "midi": 60,
                    "time": 631.8554647499983,
                    "velocity": 0.2755905511811024,
                    "duration": 0.30927825000003395
                },
                {
                    "name": "E4",
                    "midi": 64,
                    "time": 632.1647429999983,
                    "velocity": 0.4015748031496063,
                    "duration": 0.30927825000003395
                },
                {
                    "name": "A#4",
                    "midi": 70,
                    "time": 632.4740212499984,
                    "velocity": 0.30708661417322836,
                    "duration": 0.30927825000003395
                },
                {
                    "name": "C4",
                    "midi": 60,
                    "time": 632.7832994999984,
                    "velocity": 0.3228346456692913,
                    "duration": 0.30927825000003395
                },
                {
                    "name": "E4",
                    "midi": 64,
                    "time": 633.0925777499984,
                    "velocity": 0.33070866141732286,
                    "duration": 0.30927825000003395
                },
                {
                    "name": "A#4",
                    "midi": 70,
                    "time": 633.4018559999985,
                    "velocity": 0.4409448818897638,
                    "duration": 0.30927825000003395
                },
                {
                    "name": "C5",
                    "midi": 72,
                    "time": 633.7111342499985,
                    "velocity": 0.3543307086614173,
                    "duration": 0.30927825000003395
                },
                {
                    "name": "C4",
                    "midi": 60,
                    "time": 634.0204124999985,
                    "velocity": 0.3700787401574803,
                    "duration": 0.30927825000003395
                },
                {
                    "name": "E4",
                    "midi": 64,
                    "time": 634.3296907499986,
                    "velocity": 0.3858267716535433,
                    "duration": 0.30927825000003395
                },
                {
                    "name": "A#4",
                    "midi": 70,
                    "time": 634.6389689999986,
                    "velocity": 0.47244094488188976,
                    "duration": 0.30927825000003395
                },
                {
                    "name": "C5",
                    "midi": 72,
                    "time": 634.9482472499986,
                    "velocity": 0.3779527559055118,
                    "duration": 0.30927825000003395
                },
                {
                    "name": "C4",
                    "midi": 60,
                    "time": 635.2575254999987,
                    "velocity": 0.3937007874015748,
                    "duration": 0.30927825000003395
                },
                {
                    "name": "E4",
                    "midi": 64,
                    "time": 635.5668037499987,
                    "velocity": 0.4015748031496063,
                    "duration": 0.30927825000003395
                },
                {
                    "name": "A#4",
                    "midi": 70,
                    "time": 635.8760819999987,
                    "velocity": 0.5039370078740157,
                    "duration": 0.30927825000003395
                },
                {
                    "name": "C5",
                    "midi": 72,
                    "time": 636.1853602499988,
                    "velocity": 0.3937007874015748,
                    "duration": 0.30927825000003395
                },
                {
                    "name": "C4",
                    "midi": 60,
                    "time": 636.4946384999988,
                    "velocity": 0.4094488188976378,
                    "duration": 0.30927825000003395
                },
                {
                    "name": "E4",
                    "midi": 64,
                    "time": 636.8039167499988,
                    "velocity": 0.4330708661417323,
                    "duration": 0.30927825000003395
                },
                {
                    "name": "A#4",
                    "midi": 70,
                    "time": 637.1131949999989,
                    "velocity": 0.5433070866141733,
                    "duration": 0.30927825000003395
                },
                {
                    "name": "C5",
                    "midi": 72,
                    "time": 637.4224732499989,
                    "velocity": 0.4645669291338583,
                    "duration": 0.30927825000003395
                },
                {
                    "name": "C4",
                    "midi": 60,
                    "time": 637.731751499999,
                    "velocity": 0.48031496062992124,
                    "duration": 0.30927825000003395
                },
                {
                    "name": "E4",
                    "midi": 64,
                    "time": 638.041029749999,
                    "velocity": 0.49606299212598426,
                    "duration": 0.30927825000003395
                },
                {
                    "name": "C4",
                    "midi": 60,
                    "time": 638.350307999999,
                    "velocity": 0.4330708661417323,
                    "duration": 0.10309274999997342
                },
                {
                    "name": "F4",
                    "midi": 65,
                    "time": 638.453400749999,
                    "velocity": 0.47244094488188976,
                    "duration": 0.10309274999997342
                },
                {
                    "name": "G#4",
                    "midi": 68,
                    "time": 638.556493499999,
                    "velocity": 0.5196850393700787,
                    "duration": 0.10309274999997342
                },
                {
                    "name": "C5",
                    "midi": 72,
                    "time": 638.6595862499989,
                    "velocity": 0.5984251968503937,
                    "duration": 1.8556694999999763
                },
                {
                    "name": "A#4",
                    "midi": 70,
                    "time": 640.5152557499989,
                    "velocity": 0.44881889763779526,
                    "duration": 0.30927825000003395
                },
                {
                    "name": "G#4",
                    "midi": 68,
                    "time": 640.824533999999,
                    "velocity": 0.5275590551181102,
                    "duration": 0.9278347499999882
                },
                {
                    "name": "A#4",
                    "midi": 70,
                    "time": 641.7523687499989,
                    "velocity": 0.4566929133858268,
                    "duration": 0.30927825000003395
                },
                {
                    "name": "G4",
                    "midi": 67,
                    "time": 642.061646999999,
                    "velocity": 0.5354330708661418,
                    "duration": 0.9278347499999882
                },
                {
                    "name": "G#4",
                    "midi": 68,
                    "time": 642.989481749999,
                    "velocity": 0.4015748031496063,
                    "duration": 0.30927825000003395
                },
                {
                    "name": "F4",
                    "midi": 65,
                    "time": 643.298759999999,
                    "velocity": 0.47244094488188976,
                    "duration": 0.9278347499999882
                },
                {
                    "name": "F#4",
                    "midi": 66,
                    "time": 644.226594749999,
                    "velocity": 0.4015748031496063,
                    "duration": 0.30927825000003395
                },
                {
                    "name": "D#4",
                    "midi": 63,
                    "time": 644.535872999999,
                    "velocity": 0.4881889763779528,
                    "duration": 0.9278347499999882
                },
                {
                    "name": "F4",
                    "midi": 65,
                    "time": 645.463707749999,
                    "velocity": 0.4094488188976378,
                    "duration": 0.30927825000003395
                },
                {
                    "name": "C#4",
                    "midi": 61,
                    "time": 645.772985999999,
                    "velocity": 0.47244094488188976,
                    "duration": 0.9278347499999882
                },
                {
                    "name": "D#4",
                    "midi": 63,
                    "time": 646.700820749999,
                    "velocity": 0.4015748031496063,
                    "duration": 0.30927825000003395
                },
                {
                    "name": "C4",
                    "midi": 60,
                    "time": 647.0100989999991,
                    "velocity": 0.47244094488188976,
                    "duration": 0.9278347499999882
                },
                {
                    "name": "C#4",
                    "midi": 61,
                    "time": 647.937933749999,
                    "velocity": 0.4015748031496063,
                    "duration": 0.30927825000003395
                },
                {
                    "name": "A#3",
                    "midi": 58,
                    "time": 648.2472119999991,
                    "velocity": 0.47244094488188976,
                    "duration": 0.9278347499999882
                },
                {
                    "name": "C4",
                    "midi": 60,
                    "time": 649.1750467499991,
                    "velocity": 0.41732283464566927,
                    "duration": 0.30927825000003395
                },
                {
                    "name": "G#3",
                    "midi": 56,
                    "time": 649.4843249999991,
                    "velocity": 0.49606299212598426,
                    "duration": 0.9278347499999882
                },
                {
                    "name": "A#3",
                    "midi": 58,
                    "time": 650.4121597499991,
                    "velocity": 0.47244094488188976,
                    "duration": 0.30927825000003395
                },
                {
                    "name": "F#3",
                    "midi": 54,
                    "time": 650.7214379999991,
                    "velocity": 0.5354330708661418,
                    "duration": 0.9278347499999882
                },
                {
                    "name": "G#3",
                    "midi": 56,
                    "time": 651.6492727499991,
                    "velocity": 0.49606299212598426,
                    "duration": 0.30927825000003395
                },
                {
                    "name": "F3",
                    "midi": 53,
                    "time": 651.9585509999991,
                    "velocity": 0.5669291338582677,
                    "duration": 0.9278347499999882
                },
                {
                    "name": "G3",
                    "midi": 55,
                    "time": 652.8863857499991,
                    "velocity": 0.5275590551181102,
                    "duration": 0.30927825000003395
                },
                {
                    "name": "E3",
                    "midi": 52,
                    "time": 653.1956639999992,
                    "velocity": 0.6141732283464567,
                    "duration": 0.6185564999999542
                },
                {
                    "name": "C#5",
                    "midi": 73,
                    "time": 654.4327769999991,
                    "velocity": 0.6220472440944882,
                    "duration": 0.6185564999999542
                },
                {
                    "name": "G4",
                    "midi": 67,
                    "time": 654.4327769999991,
                    "velocity": 0.5196850393700787,
                    "duration": 0.6185564999999542
                },
                {
                    "name": "A#4",
                    "midi": 70,
                    "time": 654.4327769999991,
                    "velocity": 0.5196850393700787,
                    "duration": 0.6185564999999542
                },
                {
                    "name": "C5",
                    "midi": 72,
                    "time": 656.907002999999,
                    "velocity": 0.3228346456692913,
                    "duration": 0.10309274999997342
                },
                {
                    "name": "C#5",
                    "midi": 73,
                    "time": 657.010095749999,
                    "velocity": 0.3228346456692913,
                    "duration": 0.10309274999997342
                },
                {
                    "name": "D#5",
                    "midi": 75,
                    "time": 657.113188499999,
                    "velocity": 0.29133858267716534,
                    "duration": 0.10309274999997342
                },
                {
                    "name": "C#5",
                    "midi": 73,
                    "time": 657.2162812499989,
                    "velocity": 0.3700787401574803,
                    "duration": 0.6185564999999542
                },
                {
                    "name": "C5",
                    "midi": 72,
                    "time": 657.8348377499989,
                    "velocity": 0.3228346456692913,
                    "duration": 0.30927825000003395
                },
                {
                    "name": "C5",
                    "midi": 72,
                    "time": 658.1441159999989,
                    "velocity": 0.3700787401574803,
                    "duration": 1.2371130000000221
                },
                {
                    "name": "F5",
                    "midi": 77,
                    "time": 659.3812289999989,
                    "velocity": 0.41732283464566927,
                    "duration": 1.6494840000000295
                },
                {
                    "name": "G4",
                    "midi": 67,
                    "time": 661.030712999999,
                    "velocity": 0.30708661417322836,
                    "duration": 0.41237100000000737
                },
                {
                    "name": "A#4",
                    "midi": 70,
                    "time": 661.443083999999,
                    "velocity": 0.30708661417322836,
                    "duration": 0.41237100000000737
                },
                {
                    "name": "C#5",
                    "midi": 73,
                    "time": 661.855454999999,
                    "velocity": 0.3464566929133858,
                    "duration": 0.41237100000000737
                },
                {
                    "name": "A#4",
                    "midi": 70,
                    "time": 662.267825999999,
                    "velocity": 0.2992125984251969,
                    "duration": 0.41237100000000737
                },
                {
                    "name": "G4",
                    "midi": 67,
                    "time": 662.680196999999,
                    "velocity": 0.29133858267716534,
                    "duration": 0.41237100000000737
                },
                {
                    "name": "F4",
                    "midi": 65,
                    "time": 663.092567999999,
                    "velocity": 0.36220472440944884,
                    "duration": 2.4742260000000442
                },
                {
                    "name": "E4",
                    "midi": 64,
                    "time": 665.566793999999,
                    "velocity": 0.3228346456692913,
                    "duration": 0.6185564999999542
                },
                {
                    "name": "F#5",
                    "midi": 78,
                    "time": 666.185350499999,
                    "velocity": 0.4015748031496063,
                    "duration": 0.30927825000003395
                },
                {
                    "name": "G5",
                    "midi": 79,
                    "time": 666.494628749999,
                    "velocity": 0.41732283464566927,
                    "duration": 0.30927825000003395
                },
                {
                    "name": "G#5",
                    "midi": 80,
                    "time": 666.8039069999991,
                    "velocity": 0.4409448818897638,
                    "duration": 0.30927825000003395
                },
                {
                    "name": "A5",
                    "midi": 81,
                    "time": 667.1131852499991,
                    "velocity": 0.4566929133858268,
                    "duration": 0.30927825000003395
                },
                {
                    "name": "A#5",
                    "midi": 82,
                    "time": 667.4224634999991,
                    "velocity": 0.48031496062992124,
                    "duration": 0.30927825000003395
                },
                {
                    "name": "B5",
                    "midi": 83,
                    "time": 667.7317417499992,
                    "velocity": 0.49606299212598426,
                    "duration": 0.30927825000003395
                },
                {
                    "name": "C5",
                    "midi": 72,
                    "time": 668.0410199999992,
                    "velocity": 0.4330708661417323,
                    "duration": 0.10309274999997342
                },
                {
                    "name": "F5",
                    "midi": 77,
                    "time": 668.1441127499992,
                    "velocity": 0.47244094488188976,
                    "duration": 0.10309274999997342
                },
                {
                    "name": "G#5",
                    "midi": 80,
                    "time": 668.2472054999992,
                    "velocity": 0.5196850393700787,
                    "duration": 0.10309274999997342
                },
                {
                    "name": "C6",
                    "midi": 84,
                    "time": 668.3502982499991,
                    "velocity": 0.5905511811023622,
                    "duration": 1.8556694999999763
                },
                {
                    "name": "A#5",
                    "midi": 82,
                    "time": 670.2059677499991,
                    "velocity": 0.3700787401574803,
                    "duration": 0.30927825000003395
                },
                {
                    "name": "G#5",
                    "midi": 80,
                    "time": 670.5152459999991,
                    "velocity": 0.47244094488188976,
                    "duration": 0.9278347499999882
                },
                {
                    "name": "G#6",
                    "midi": 92,
                    "time": 671.4430807499991,
                    "velocity": 0.47244094488188976,
                    "duration": 0.30927825000003395
                },
                {
                    "name": "G5",
                    "midi": 79,
                    "time": 671.7523589999992,
                    "velocity": 0.47244094488188976,
                    "duration": 0.9278347499999882
                },
                {
                    "name": "G6",
                    "midi": 91,
                    "time": 672.6801937499991,
                    "velocity": 0.4566929133858268,
                    "duration": 0.30927825000003395
                },
                {
                    "name": "F5",
                    "midi": 77,
                    "time": 672.9894719999992,
                    "velocity": 0.47244094488188976,
                    "duration": 0.9278347499999882
                },
                {
                    "name": "F6",
                    "midi": 89,
                    "time": 673.9173067499992,
                    "velocity": 0.4566929133858268,
                    "duration": 0.30927825000003395
                },
                {
                    "name": "D#5",
                    "midi": 75,
                    "time": 674.2265849999992,
                    "velocity": 0.4881889763779528,
                    "duration": 0.9278347499999882
                },
                {
                    "name": "D#6",
                    "midi": 87,
                    "time": 675.1544197499992,
                    "velocity": 0.5354330708661418,
                    "duration": 0.30927825000003395
                },
                {
                    "name": "C#5",
                    "midi": 73,
                    "time": 675.4636979999992,
                    "velocity": 0.47244094488188976,
                    "duration": 0.9278347499999882
                },
                {
                    "name": "C#6",
                    "midi": 85,
                    "time": 676.3915327499992,
                    "velocity": 0.5118110236220472,
                    "duration": 0.30927825000003395
                },
                {
                    "name": "C5",
                    "midi": 72,
                    "time": 676.7008109999992,
                    "velocity": 0.47244094488188976,
                    "duration": 0.9278347499999882
                },
                {
                    "name": "C6",
                    "midi": 84,
                    "time": 677.6286457499992,
                    "velocity": 0.48031496062992124,
                    "duration": 0.30927825000003395
                },
                {
                    "name": "A#4",
                    "midi": 70,
                    "time": 677.9379239999993,
                    "velocity": 0.47244094488188976,
                    "duration": 0.30927825000003395
                },
                {
                    "name": "A#5",
                    "midi": 82,
                    "time": 678.2626661624993,
                    "velocity": 0.4094488188976378,
                    "duration": 0.30927824999992026
                },
                {
                    "name": "A#4",
                    "midi": 70,
                    "time": 678.5564804999992,
                    "velocity": 0.4094488188976378,
                    "duration": 0.30927824999992026
                },
                {
                    "name": "A#5",
                    "midi": 82,
                    "time": 678.8657587499991,
                    "velocity": 0.3700787401574803,
                    "duration": 0.30927825000003395
                },
                {
                    "name": "G#4",
                    "midi": 68,
                    "time": 679.1750369999992,
                    "velocity": 0.49606299212598426,
                    "duration": 0.30927825000003395
                },
                {
                    "name": "G#5",
                    "midi": 80,
                    "time": 679.4843152499992,
                    "velocity": 0.4409448818897638,
                    "duration": 0.30927825000003395
                },
                {
                    "name": "G#4",
                    "midi": 68,
                    "time": 679.7935934999992,
                    "velocity": 0.44881889763779526,
                    "duration": 0.30927825000003395
                },
                {
                    "name": "G#5",
                    "midi": 80,
                    "time": 680.1028717499993,
                    "velocity": 0.47244094488188976,
                    "duration": 0.30927825000003395
                },
                {
                    "name": "F#4",
                    "midi": 66,
                    "time": 680.4121499999993,
                    "velocity": 0.5354330708661418,
                    "duration": 0.30927825000003395
                },
                {
                    "name": "F#5",
                    "midi": 78,
                    "time": 680.7214282499993,
                    "velocity": 0.4881889763779528,
                    "duration": 0.30927825000003395
                },
                {
                    "name": "F#4",
                    "midi": 66,
                    "time": 681.0307064999994,
                    "velocity": 0.49606299212598426,
                    "duration": 0.30927825000003395
                },
                {
                    "name": "F#5",
                    "midi": 78,
                    "time": 681.3399847499994,
                    "velocity": 0.4566929133858268,
                    "duration": 0.30927825000003395
                },
                {
                    "name": "F4",
                    "midi": 65,
                    "time": 681.6492629999995,
                    "velocity": 0.5669291338582677,
                    "duration": 0.30927825000003395
                },
                {
                    "name": "F5",
                    "midi": 77,
                    "time": 681.9585412499995,
                    "velocity": 0.5118110236220472,
                    "duration": 0.30927825000003395
                },
                {
                    "name": "F4",
                    "midi": 65,
                    "time": 682.2678194999995,
                    "velocity": 0.5275590551181102,
                    "duration": 0.30927825000003395
                },
                {
                    "name": "F5",
                    "midi": 77,
                    "time": 682.5770977499996,
                    "velocity": 0.4881889763779528,
                    "duration": 0.30927825000003395
                },
                {
                    "name": "E5",
                    "midi": 76,
                    "time": 682.8863759999996,
                    "velocity": 0.6535433070866141,
                    "duration": 0.6185564999999542
                },
                {
                    "name": "E4",
                    "midi": 64,
                    "time": 682.8863759999996,
                    "velocity": 0.5511811023622047,
                    "duration": 0.6185564999999542
                },
                {
                    "name": "C#6",
                    "midi": 85,
                    "time": 684.1234889999995,
                    "velocity": 0.7086614173228346,
                    "duration": 0.6185564999999542
                },
                {
                    "name": "A#5",
                    "midi": 82,
                    "time": 684.1234889999995,
                    "velocity": 0.5905511811023622,
                    "duration": 0.6185564999999542
                },
                {
                    "name": "G5",
                    "midi": 79,
                    "time": 684.1234889999995,
                    "velocity": 0.5905511811023622,
                    "duration": 0.6185564999999542
                },
                {
                    "name": "C5",
                    "midi": 72,
                    "time": 686.5977149999994,
                    "velocity": 0.3228346456692913,
                    "duration": 0.10309274999997342
                },
                {
                    "name": "C#5",
                    "midi": 73,
                    "time": 686.7008077499994,
                    "velocity": 0.3228346456692913,
                    "duration": 0.10309274999997342
                },
                {
                    "name": "D#5",
                    "midi": 75,
                    "time": 686.8039004999994,
                    "velocity": 0.2992125984251969,
                    "duration": 0.10309274999997342
                },
                {
                    "name": "C#5",
                    "midi": 73,
                    "time": 686.9069932499993,
                    "velocity": 0.3700787401574803,
                    "duration": 0.6185564999999542
                },
                {
                    "name": "C5",
                    "midi": 72,
                    "time": 687.5255497499993,
                    "velocity": 0.3228346456692913,
                    "duration": 0.30927825000003395
                },
                {
                    "name": "C5",
                    "midi": 72,
                    "time": 687.8348279999993,
                    "velocity": 0.36220472440944884,
                    "duration": 0.41237100000000737
                },
                {
                    "name": "G#5",
                    "midi": 80,
                    "time": 688.2471989999993,
                    "velocity": 0.41732283464566927,
                    "duration": 0.41237100000000737
                },
                {
                    "name": "G5",
                    "midi": 79,
                    "time": 688.6595699999993,
                    "velocity": 0.3700787401574803,
                    "duration": 0.41237100000000737
                },
                {
                    "name": "F5",
                    "midi": 77,
                    "time": 689.0719409999994,
                    "velocity": 0.3700787401574803,
                    "duration": 0.41237100000000737
                },
                {
                    "name": "C5",
                    "midi": 72,
                    "time": 689.4843119999994,
                    "velocity": 0.33858267716535434,
                    "duration": 0.41237100000000737
                },
                {
                    "name": "G#4",
                    "midi": 68,
                    "time": 689.8966829999994,
                    "velocity": 0.33858267716535434,
                    "duration": 0.41237100000000737
                },
                {
                    "name": "G4",
                    "midi": 67,
                    "time": 690.3090539999994,
                    "velocity": 0.3700787401574803,
                    "duration": 0.41237100000000737
                },
                {
                    "name": "D#5",
                    "midi": 75,
                    "time": 690.7214249999994,
                    "velocity": 0.4094488188976378,
                    "duration": 0.41237100000000737
                },
                {
                    "name": "C5",
                    "midi": 72,
                    "time": 691.1337959999994,
                    "velocity": 0.30708661417322836,
                    "duration": 0.41237100000000737
                },
                {
                    "name": "C#5",
                    "midi": 73,
                    "time": 691.5461669999994,
                    "velocity": 0.3464566929133858,
                    "duration": 0.41237100000000737
                },
                {
                    "name": "A#4",
                    "midi": 70,
                    "time": 691.9585379999994,
                    "velocity": 0.2992125984251969,
                    "duration": 0.41237100000000737
                },
                {
                    "name": "G4",
                    "midi": 67,
                    "time": 692.3709089999994,
                    "velocity": 0.29133858267716534,
                    "duration": 0.41237100000000737
                },
                {
                    "name": "F4",
                    "midi": 65,
                    "time": 692.7832799999994,
                    "velocity": 0.41732283464566927,
                    "duration": 0.41237100000000737
                },
                {
                    "name": "C4",
                    "midi": 60,
                    "time": 693.1956509999994,
                    "velocity": 0.3779527559055118,
                    "duration": 0.41237100000000737
                },
                {
                    "name": "F4",
                    "midi": 65,
                    "time": 693.6080219999994,
                    "velocity": 0.3858267716535433,
                    "duration": 0.41237100000000737
                },
                {
                    "name": "G#4",
                    "midi": 68,
                    "time": 694.0203929999994,
                    "velocity": 0.4566929133858268,
                    "duration": 0.41237100000000737
                },
                {
                    "name": "F4",
                    "midi": 65,
                    "time": 694.4327639999995,
                    "velocity": 0.3937007874015748,
                    "duration": 0.41237100000000737
                },
                {
                    "name": "C#5",
                    "midi": 73,
                    "time": 694.8451349999995,
                    "velocity": 0.4015748031496063,
                    "duration": 0.41237100000000737
                },
                {
                    "name": "C5",
                    "midi": 72,
                    "time": 695.2575059999995,
                    "velocity": 0.5196850393700787,
                    "duration": 0.6185564999999542
                },
                {
                    "name": "E5",
                    "midi": 76,
                    "time": 696.4946189999994,
                    "velocity": 0.6141732283464567,
                    "duration": 0.4639173750000509
                },
                {
                    "name": "C5",
                    "midi": 72,
                    "time": 696.4946189999994,
                    "velocity": 0.5196850393700787,
                    "duration": 0.4639173750000509
                },
                {
                    "name": "G4",
                    "midi": 67,
                    "time": 696.4946189999994,
                    "velocity": 0.5196850393700787,
                    "duration": 0.4639173750000509
                },
                {
                    "name": "G#4",
                    "midi": 68,
                    "time": 697.7317319999994,
                    "velocity": 0.5196850393700787,
                    "duration": 0.4639173750000509
                },
                {
                    "name": "C5",
                    "midi": 72,
                    "time": 697.7317319999994,
                    "velocity": 0.5196850393700787,
                    "duration": 0.4639173750000509
                },
                {
                    "name": "F5",
                    "midi": 77,
                    "time": 697.7317319999994,
                    "velocity": 0.6141732283464567,
                    "duration": 0.4639173750000509
                },
                {
                    "name": "G#4",
                    "midi": 68,
                    "time": 698.3502884999995,
                    "velocity": 0.3543307086614173,
                    "duration": 0.30927825000003395
                },
                {
                    "name": "C5",
                    "midi": 72,
                    "time": 698.6595667499995,
                    "velocity": 0.2204724409448819,
                    "duration": 0.30927825000003395
                },
                {
                    "name": "G#4",
                    "midi": 68,
                    "time": 698.9688449999995,
                    "velocity": 0.30708661417322836,
                    "duration": 0.30927825000003395
                },
                {
                    "name": "C5",
                    "midi": 72,
                    "time": 699.2781232499996,
                    "velocity": 0.2204724409448819,
                    "duration": 0.30927825000003395
                },
                {
                    "name": "G#4",
                    "midi": 68,
                    "time": 699.5874014999996,
                    "velocity": 0.2992125984251969,
                    "duration": 0.30927825000003395
                },
                {
                    "name": "C5",
                    "midi": 72,
                    "time": 699.8966797499996,
                    "velocity": 0.2440944881889764,
                    "duration": 0.30927825000003395
                },
                {
                    "name": "G4",
                    "midi": 67,
                    "time": 700.2059579999997,
                    "velocity": 0.3543307086614173,
                    "duration": 0.30927825000003395
                },
                {
                    "name": "B4",
                    "midi": 71,
                    "time": 700.5152362499997,
                    "velocity": 0.23622047244094488,
                    "duration": 0.30927825000003395
                },
                {
                    "name": "G#4",
                    "midi": 68,
                    "time": 700.8245144999997,
                    "velocity": 0.3543307086614173,
                    "duration": 0.30927825000003395
                },
                {
                    "name": "C5",
                    "midi": 72,
                    "time": 701.1337927499998,
                    "velocity": 0.25196850393700787,
                    "duration": 0.30927825000003395
                },
                {
                    "name": "G#4",
                    "midi": 68,
                    "time": 701.4430709999998,
                    "velocity": 0.30708661417322836,
                    "duration": 0.30927825000003395
                },
                {
                    "name": "C5",
                    "midi": 72,
                    "time": 701.7523492499998,
                    "velocity": 0.2125984251968504,
                    "duration": 0.30927825000003395
                },
                {
                    "name": "G#4",
                    "midi": 68,
                    "time": 702.0616274999999,
                    "velocity": 0.31496062992125984,
                    "duration": 0.30927825000003395
                },
                {
                    "name": "C5",
                    "midi": 72,
                    "time": 702.3709057499999,
                    "velocity": 0.23622047244094488,
                    "duration": 0.30927825000003395
                },
                {
                    "name": "A4",
                    "midi": 69,
                    "time": 702.6801839999999,
                    "velocity": 0.3543307086614173,
                    "duration": 0.30927825000003395
                },
                {
                    "name": "D#5",
                    "midi": 75,
                    "time": 702.98946225,
                    "velocity": 0.2440944881889764,
                    "duration": 0.30927825000003395
                },
                {
                    "name": "A#4",
                    "midi": 70,
                    "time": 703.2987405,
                    "velocity": 0.2992125984251969,
                    "duration": 0.30927825000003395
                },
                {
                    "name": "C#5",
                    "midi": 73,
                    "time": 703.60801875,
                    "velocity": 0.23622047244094488,
                    "duration": 0.30927825000003395
                },
                {
                    "name": "A#4",
                    "midi": 70,
                    "time": 703.9172970000001,
                    "velocity": 0.2992125984251969,
                    "duration": 0.30927825000003395
                },
                {
                    "name": "C#5",
                    "midi": 73,
                    "time": 704.2265752500001,
                    "velocity": 0.2440944881889764,
                    "duration": 0.30927825000003395
                },
                {
                    "name": "A#4",
                    "midi": 70,
                    "time": 704.5358535000001,
                    "velocity": 0.25984251968503935,
                    "duration": 0.30927825000003395
                },
                {
                    "name": "C#5",
                    "midi": 73,
                    "time": 704.8451317500002,
                    "velocity": 0.2204724409448819,
                    "duration": 0.30927825000003395
                },
                {
                    "name": "C#5",
                    "midi": 73,
                    "time": 705.1544100000002,
                    "velocity": 0.3700787401574803,
                    "duration": 0.30927825000003395
                },
                {
                    "name": "F5",
                    "midi": 77,
                    "time": 705.4636882500002,
                    "velocity": 0.2992125984251969,
                    "duration": 0.30927825000003395
                },
                {
                    "name": "A#4",
                    "midi": 70,
                    "time": 705.7729665000003,
                    "velocity": 0.3543307086614173,
                    "duration": 0.30927825000003395
                },
                {
                    "name": "C#5",
                    "midi": 73,
                    "time": 706.0822447500003,
                    "velocity": 0.25196850393700787,
                    "duration": 0.30927825000003395
                },
                {
                    "name": "G#4",
                    "midi": 68,
                    "time": 706.3915230000003,
                    "velocity": 0.31496062992125984,
                    "duration": 0.30927825000003395
                },
                {
                    "name": "C#5",
                    "midi": 73,
                    "time": 706.7008012500004,
                    "velocity": 0.2440944881889764,
                    "duration": 0.30927825000003395
                },
                {
                    "name": "G4",
                    "midi": 67,
                    "time": 707.0100795000004,
                    "velocity": 0.29133858267716534,
                    "duration": 0.30927825000003395
                },
                {
                    "name": "C#5",
                    "midi": 73,
                    "time": 707.3193577500004,
                    "velocity": 0.2440944881889764,
                    "duration": 0.30927825000003395
                },
                {
                    "name": "G#4",
                    "midi": 68,
                    "time": 707.6286360000005,
                    "velocity": 0.3543307086614173,
                    "duration": 0.30927825000003395
                },
                {
                    "name": "D#5",
                    "midi": 75,
                    "time": 707.9379142500005,
                    "velocity": 0.23622047244094488,
                    "duration": 0.30927825000003395
                },
                {
                    "name": "G#4",
                    "midi": 68,
                    "time": 708.2471925000006,
                    "velocity": 0.28346456692913385,
                    "duration": 0.30927825000003395
                },
                {
                    "name": "C5",
                    "midi": 72,
                    "time": 708.5564707500006,
                    "velocity": 0.2125984251968504,
                    "duration": 0.30927825000003395
                },
                {
                    "name": "G#4",
                    "midi": 68,
                    "time": 708.8657490000006,
                    "velocity": 0.2992125984251969,
                    "duration": 0.30927825000003395
                },
                {
                    "name": "C5",
                    "midi": 72,
                    "time": 709.1750272500007,
                    "velocity": 0.2440944881889764,
                    "duration": 0.30927825000003395
                },
                {
                    "name": "G#4",
                    "midi": 68,
                    "time": 709.4843055000007,
                    "velocity": 0.25984251968503935,
                    "duration": 0.30927825000003395
                },
                {
                    "name": "C5",
                    "midi": 72,
                    "time": 709.7935837500007,
                    "velocity": 0.2204724409448819,
                    "duration": 0.30927825000003395
                },
                {
                    "name": "G#4",
                    "midi": 68,
                    "time": 710.1028620000008,
                    "velocity": 0.3700787401574803,
                    "duration": 0.30927825000003395
                },
                {
                    "name": "C5",
                    "midi": 72,
                    "time": 710.4121402500008,
                    "velocity": 0.23622047244094488,
                    "duration": 0.30927825000003395
                },
                {
                    "name": "F#4",
                    "midi": 66,
                    "time": 710.7214185000008,
                    "velocity": 0.2755905511811024,
                    "duration": 0.30927825000003395
                },
                {
                    "name": "A#4",
                    "midi": 70,
                    "time": 711.0306967500009,
                    "velocity": 0.2440944881889764,
                    "duration": 0.30927825000003395
                },
                {
                    "name": "F#4",
                    "midi": 66,
                    "time": 711.3399750000009,
                    "velocity": 0.31496062992125984,
                    "duration": 0.30927825000003395
                },
                {
                    "name": "A#4",
                    "midi": 70,
                    "time": 711.6492532500009,
                    "velocity": 0.2204724409448819,
                    "duration": 0.30927825000003395
                },
                {
                    "name": "F#4",
                    "midi": 66,
                    "time": 711.958531500001,
                    "velocity": 0.28346456692913385,
                    "duration": 0.30927825000003395
                },
                {
                    "name": "A#4",
                    "midi": 70,
                    "time": 712.267809750001,
                    "velocity": 0.2283464566929134,
                    "duration": 0.30927825000003395
                },
                {
                    "name": "F#4",
                    "midi": 66,
                    "time": 712.577088000001,
                    "velocity": 0.3543307086614173,
                    "duration": 0.30927825000003395
                },
                {
                    "name": "A#4",
                    "midi": 70,
                    "time": 712.8863662500011,
                    "velocity": 0.2125984251968504,
                    "duration": 0.30927825000003395
                },
                {
                    "name": "F4",
                    "midi": 65,
                    "time": 713.1956445000011,
                    "velocity": 0.2677165354330709,
                    "duration": 0.30927825000003395
                },
                {
                    "name": "G#4",
                    "midi": 68,
                    "time": 713.5049227500011,
                    "velocity": 0.2125984251968504,
                    "duration": 0.30927825000003395
                },
                {
                    "name": "F4",
                    "midi": 65,
                    "time": 713.8142010000012,
                    "velocity": 0.28346456692913385,
                    "duration": 0.30927825000003395
                },
                {
                    "name": "G#4",
                    "midi": 68,
                    "time": 714.1234792500012,
                    "velocity": 0.2125984251968504,
                    "duration": 0.30927825000003395
                },
                {
                    "name": "F4",
                    "midi": 65,
                    "time": 714.4327575000012,
                    "velocity": 0.25196850393700787,
                    "duration": 0.30927825000003395
                },
                {
                    "name": "G#4",
                    "midi": 68,
                    "time": 714.7420357500013,
                    "velocity": 0.2204724409448819,
                    "duration": 0.30927825000003395
                },
                {
                    "name": "F4",
                    "midi": 65,
                    "time": 715.0513140000013,
                    "velocity": 0.3543307086614173,
                    "duration": 0.30927825000003395
                },
                {
                    "name": "G#4",
                    "midi": 68,
                    "time": 715.3605922500013,
                    "velocity": 0.2125984251968504,
                    "duration": 0.30927825000003395
                },
                {
                    "name": "E4",
                    "midi": 64,
                    "time": 715.6698705000014,
                    "velocity": 0.25984251968503935,
                    "duration": 0.30927825000003395
                },
                {
                    "name": "G4",
                    "midi": 67,
                    "time": 715.9791487500014,
                    "velocity": 0.2125984251968504,
                    "duration": 0.30927825000003395
                },
                {
                    "name": "E4",
                    "midi": 64,
                    "time": 716.2884270000014,
                    "velocity": 0.30708661417322836,
                    "duration": 0.30927825000003395
                },
                {
                    "name": "G4",
                    "midi": 67,
                    "time": 716.5977052500015,
                    "velocity": 0.2204724409448819,
                    "duration": 0.30927825000003395
                },
                {
                    "name": "E4",
                    "midi": 64,
                    "time": 716.9069835000015,
                    "velocity": 0.28346456692913385,
                    "duration": 0.30927825000003395
                },
                {
                    "name": "G4",
                    "midi": 67,
                    "time": 717.2162617500015,
                    "velocity": 0.2283464566929134,
                    "duration": 0.30927825000003395
                },
                {
                    "name": "F4",
                    "midi": 65,
                    "time": 717.5255400000016,
                    "velocity": 0.4251968503937008,
                    "duration": 0.6185564999999542
                },
                {
                    "name": "A4",
                    "midi": 69,
                    "time": 718.1440965000015,
                    "velocity": 0.3543307086614173,
                    "duration": 0.30927825000003395
                },
                {
                    "name": "C5",
                    "midi": 72,
                    "time": 718.4533747500016,
                    "velocity": 0.2204724409448819,
                    "duration": 0.30927825000003395
                },
                {
                    "name": "A4",
                    "midi": 69,
                    "time": 718.7626530000016,
                    "velocity": 0.30708661417322836,
                    "duration": 0.30927825000003395
                },
                {
                    "name": "C5",
                    "midi": 72,
                    "time": 719.0719312500016,
                    "velocity": 0.2204724409448819,
                    "duration": 0.30927825000003395
                },
                {
                    "name": "A4",
                    "midi": 69,
                    "time": 719.3812095000017,
                    "velocity": 0.2992125984251969,
                    "duration": 0.30927825000003395
                },
                {
                    "name": "C5",
                    "midi": 72,
                    "time": 719.6904877500017,
                    "velocity": 0.2440944881889764,
                    "duration": 0.30927825000003395
                },
                {
                    "name": "G#4",
                    "midi": 68,
                    "time": 719.9997660000017,
                    "velocity": 0.3543307086614173,
                    "duration": 0.30927825000003395
                },
                {
                    "name": "B4",
                    "midi": 71,
                    "time": 720.3090442500018,
                    "velocity": 0.23622047244094488,
                    "duration": 0.30927825000003395
                },
                {
                    "name": "A4",
                    "midi": 69,
                    "time": 720.6183225000018,
                    "velocity": 0.3543307086614173,
                    "duration": 0.30927825000003395
                },
                {
                    "name": "C5",
                    "midi": 72,
                    "time": 720.9276007500018,
                    "velocity": 0.25196850393700787,
                    "duration": 0.30927825000003395
                },
                {
                    "name": "A4",
                    "midi": 69,
                    "time": 721.2368790000019,
                    "velocity": 0.30708661417322836,
                    "duration": 0.30927825000003395
                },
                {
                    "name": "C5",
                    "midi": 72,
                    "time": 721.5461572500019,
                    "velocity": 0.2125984251968504,
                    "duration": 0.30927825000003395
                },
                {
                    "name": "A4",
                    "midi": 69,
                    "time": 721.8554355000019,
                    "velocity": 0.31496062992125984,
                    "duration": 0.30927825000003395
                },
                {
                    "name": "C5",
                    "midi": 72,
                    "time": 722.164713750002,
                    "velocity": 0.23622047244094488,
                    "duration": 0.30927825000003395
                },
                {
                    "name": "A4",
                    "midi": 69,
                    "time": 722.473992000002,
                    "velocity": 0.3543307086614173,
                    "duration": 0.30927825000003395
                },
                {
                    "name": "D#5",
                    "midi": 75,
                    "time": 722.783270250002,
                    "velocity": 0.2440944881889764,
                    "duration": 0.30927825000003395
                },
                {
                    "name": "A#4",
                    "midi": 70,
                    "time": 723.0925485000021,
                    "velocity": 0.2992125984251969,
                    "duration": 0.30927825000003395
                },
                {
                    "name": "D5",
                    "midi": 74,
                    "time": 723.4018267500021,
                    "velocity": 0.23622047244094488,
                    "duration": 0.30927825000003395
                },
                {
                    "name": "A#4",
                    "midi": 70,
                    "time": 723.7111050000021,
                    "velocity": 0.2992125984251969,
                    "duration": 0.30927825000003395
                },
                {
                    "name": "D5",
                    "midi": 74,
                    "time": 724.0203832500022,
                    "velocity": 0.2440944881889764,
                    "duration": 0.30927825000003395
                },
                {
                    "name": "A#4",
                    "midi": 70,
                    "time": 724.3296615000022,
                    "velocity": 0.25984251968503935,
                    "duration": 0.30927825000003395
                },
                {
                    "name": "D5",
                    "midi": 74,
                    "time": 724.6389397500022,
                    "velocity": 0.2204724409448819,
                    "duration": 0.30927825000003395
                },
                {
                    "name": "D5",
                    "midi": 74,
                    "time": 724.9482180000023,
                    "velocity": 0.3700787401574803,
                    "duration": 0.30927825000003395
                },
                {
                    "name": "F5",
                    "midi": 77,
                    "time": 725.2574962500023,
                    "velocity": 0.2992125984251969,
                    "duration": 0.30927825000003395
                },
                {
                    "name": "A#4",
                    "midi": 70,
                    "time": 725.5667745000023,
                    "velocity": 0.3543307086614173,
                    "duration": 0.30927825000003395
                },
                {
                    "name": "D5",
                    "midi": 74,
                    "time": 725.8760527500024,
                    "velocity": 0.25196850393700787,
                    "duration": 0.30927825000003395
                },
                {
                    "name": "A4",
                    "midi": 69,
                    "time": 726.1853310000024,
                    "velocity": 0.31496062992125984,
                    "duration": 0.30927825000003395
                },
                {
                    "name": "D5",
                    "midi": 74,
                    "time": 726.4946092500024,
                    "velocity": 0.2440944881889764,
                    "duration": 0.30927825000003395
                },
                {
                    "name": "G#4",
                    "midi": 68,
                    "time": 726.8038875000025,
                    "velocity": 0.29133858267716534,
                    "duration": 0.30927825000003395
                },
                {
                    "name": "D5",
                    "midi": 74,
                    "time": 727.1131657500025,
                    "velocity": 0.2440944881889764,
                    "duration": 0.30927825000003395
                },
                {
                    "name": "A4",
                    "midi": 69,
                    "time": 727.4224440000025,
                    "velocity": 0.3543307086614173,
                    "duration": 0.30927825000003395
                },
                {
                    "name": "D5",
                    "midi": 74,
                    "time": 727.7471861625025,
                    "velocity": 0.23622047244094488,
                    "duration": 0.30927824999992026
                },
                {
                    "name": "A4",
                    "midi": 69,
                    "time": 728.0410005000025,
                    "velocity": 0.28346456692913385,
                    "duration": 0.30927824999992026
                },
                {
                    "name": "C5",
                    "midi": 72,
                    "time": 728.3502787500024,
                    "velocity": 0.2125984251968504,
                    "duration": 0.30927825000003395
                },
                {
                    "name": "A4",
                    "midi": 69,
                    "time": 728.6595570000025,
                    "velocity": 0.2992125984251969,
                    "duration": 0.30927825000003395
                },
                {
                    "name": "C5",
                    "midi": 72,
                    "time": 728.9688352500025,
                    "velocity": 0.2440944881889764,
                    "duration": 0.30927825000003395
                },
                {
                    "name": "A4",
                    "midi": 69,
                    "time": 729.2781135000025,
                    "velocity": 0.25984251968503935,
                    "duration": 0.30927825000003395
                },
                {
                    "name": "C5",
                    "midi": 72,
                    "time": 729.5873917500026,
                    "velocity": 0.2204724409448819,
                    "duration": 0.30927825000003395
                },
                {
                    "name": "A4",
                    "midi": 69,
                    "time": 729.8966700000026,
                    "velocity": 0.3700787401574803,
                    "duration": 0.30927825000003395
                },
                {
                    "name": "C5",
                    "midi": 72,
                    "time": 730.2059482500026,
                    "velocity": 0.23622047244094488,
                    "duration": 0.30927825000003395
                },
                {
                    "name": "D4",
                    "midi": 62,
                    "time": 730.5152265000027,
                    "velocity": 0.2755905511811024,
                    "duration": 0.30927825000003395
                },
                {
                    "name": "G4",
                    "midi": 67,
                    "time": 730.8245047500027,
                    "velocity": 0.2440944881889764,
                    "duration": 0.30927825000003395
                },
                {
                    "name": "A#4",
                    "midi": 70,
                    "time": 731.1337830000027,
                    "velocity": 0.3937007874015748,
                    "duration": 0.30927825000003395
                },
                {
                    "name": "D5",
                    "midi": 74,
                    "time": 731.4430612500028,
                    "velocity": 0.2677165354330709,
                    "duration": 0.30927825000003395
                },
                {
                    "name": "C5",
                    "midi": 72,
                    "time": 731.7523395000028,
                    "velocity": 0.33858267716535434,
                    "duration": 0.30927825000003395
                },
                {
                    "name": "A#4",
                    "midi": 70,
                    "time": 732.0616177500028,
                    "velocity": 0.2755905511811024,
                    "duration": 0.30927825000003395
                },
                {
                    "name": "G4",
                    "midi": 67,
                    "time": 732.3708960000029,
                    "velocity": 0.3543307086614173,
                    "duration": 0.30927825000003395
                },
                {
                    "name": "A#4",
                    "midi": 70,
                    "time": 732.6801742500029,
                    "velocity": 0.2125984251968504,
                    "duration": 0.30927825000003395
                },
                {
                    "name": "C4",
                    "midi": 60,
                    "time": 732.9894525000029,
                    "velocity": 0.2677165354330709,
                    "duration": 0.30927825000003395
                },
                {
                    "name": "F4",
                    "midi": 65,
                    "time": 733.298730750003,
                    "velocity": 0.2125984251968504,
                    "duration": 0.30927825000003395
                },
                {
                    "name": "A4",
                    "midi": 69,
                    "time": 733.608009000003,
                    "velocity": 0.3700787401574803,
                    "duration": 0.30927825000003395
                },
                {
                    "name": "C5",
                    "midi": 72,
                    "time": 733.917287250003,
                    "velocity": 0.2755905511811024,
                    "duration": 0.30927825000003395
                },
                {
                    "name": "A#4",
                    "midi": 70,
                    "time": 734.2265655000031,
                    "velocity": 0.3228346456692913,
                    "duration": 0.30927825000003395
                },
                {
                    "name": "A4",
                    "midi": 69,
                    "time": 734.5358437500031,
                    "velocity": 0.28346456692913385,
                    "duration": 0.30927825000003395
                },
                {
                    "name": "F#4",
                    "midi": 66,
                    "time": 734.8451220000031,
                    "velocity": 0.3543307086614173,
                    "duration": 0.30927825000003395
                },
                {
                    "name": "A4",
                    "midi": 69,
                    "time": 735.1544002500032,
                    "velocity": 0.2125984251968504,
                    "duration": 0.30927825000003395
                },
                {
                    "name": "C4",
                    "midi": 60,
                    "time": 735.4636785000032,
                    "velocity": 0.25984251968503935,
                    "duration": 0.30927825000003395
                },
                {
                    "name": "E4",
                    "midi": 64,
                    "time": 735.7729567500032,
                    "velocity": 0.2125984251968504,
                    "duration": 0.30927825000003395
                },
                {
                    "name": "G4",
                    "midi": 67,
                    "time": 736.0822350000033,
                    "velocity": 0.36220472440944884,
                    "duration": 0.30927825000003395
                },
                {
                    "name": "A#4",
                    "midi": 70,
                    "time": 736.3915132500033,
                    "velocity": 0.28346456692913385,
                    "duration": 0.30927825000003395
                },
                {
                    "name": "A4",
                    "midi": 69,
                    "time": 736.7007915000033,
                    "velocity": 0.31496062992125984,
                    "duration": 0.30927825000003395
                },
                {
                    "name": "G4",
                    "midi": 67,
                    "time": 737.0100697500034,
                    "velocity": 0.2677165354330709,
                    "duration": 0.30927825000003395
                },
                {
                    "name": "F4",
                    "midi": 65,
                    "time": 737.3193480000034,
                    "velocity": 0.3937007874015748,
                    "duration": 0.6185564999999542
                },
                {
                    "name": "A4",
                    "midi": 69,
                    "time": 737.9379045000034,
                    "velocity": 0.3543307086614173,
                    "duration": 0.30927825000003395
                },
                {
                    "name": "C5",
                    "midi": 72,
                    "time": 738.2471827500034,
                    "velocity": 0.2204724409448819,
                    "duration": 0.30927825000003395
                },
                {
                    "name": "A4",
                    "midi": 69,
                    "time": 738.5564610000034,
                    "velocity": 0.30708661417322836,
                    "duration": 0.30927825000003395
                },
                {
                    "name": "C5",
                    "midi": 72,
                    "time": 738.8657392500035,
                    "velocity": 0.2204724409448819,
                    "duration": 0.30927825000003395
                },
                {
                    "name": "A4",
                    "midi": 69,
                    "time": 739.1750175000035,
                    "velocity": 0.2992125984251969,
                    "duration": 0.30927825000003395
                },
                {
                    "name": "C5",
                    "midi": 72,
                    "time": 739.4842957500035,
                    "velocity": 0.2440944881889764,
                    "duration": 0.30927825000003395
                },
                {
                    "name": "G#4",
                    "midi": 68,
                    "time": 739.7935740000036,
                    "velocity": 0.3543307086614173,
                    "duration": 0.30927825000003395
                },
                {
                    "name": "B4",
                    "midi": 71,
                    "time": 740.1028522500036,
                    "velocity": 0.23622047244094488,
                    "duration": 0.30927825000003395
                },
                {
                    "name": "A4",
                    "midi": 69,
                    "time": 740.4121305000036,
                    "velocity": 0.3543307086614173,
                    "duration": 0.30927825000003395
                },
                {
                    "name": "C5",
                    "midi": 72,
                    "time": 740.7214087500037,
                    "velocity": 0.25196850393700787,
                    "duration": 0.30927825000003395
                },
                {
                    "name": "A4",
                    "midi": 69,
                    "time": 741.0306870000037,
                    "velocity": 0.30708661417322836,
                    "duration": 0.30927825000003395
                },
                {
                    "name": "C5",
                    "midi": 72,
                    "time": 741.3399652500037,
                    "velocity": 0.2125984251968504,
                    "duration": 0.30927825000003395
                },
                {
                    "name": "A4",
                    "midi": 69,
                    "time": 741.6492435000038,
                    "velocity": 0.31496062992125984,
                    "duration": 0.30927825000003395
                },
                {
                    "name": "C5",
                    "midi": 72,
                    "time": 741.9585217500038,
                    "velocity": 0.23622047244094488,
                    "duration": 0.30927825000003395
                },
                {
                    "name": "A4",
                    "midi": 69,
                    "time": 742.2678000000038,
                    "velocity": 0.3543307086614173,
                    "duration": 0.30927825000003395
                },
                {
                    "name": "C5",
                    "midi": 72,
                    "time": 742.5770782500039,
                    "velocity": 0.29133858267716534,
                    "duration": 0.30927825000003395
                },
                {
                    "name": "A#4",
                    "midi": 70,
                    "time": 742.8863565000039,
                    "velocity": 0.3464566929133858,
                    "duration": 0.30927825000003395
                },
                {
                    "name": "C#5",
                    "midi": 73,
                    "time": 743.1956347500039,
                    "velocity": 0.30708661417322836,
                    "duration": 0.30927825000003395
                },
                {
                    "name": "E5",
                    "midi": 76,
                    "time": 743.504913000004,
                    "velocity": 0.4094488188976378,
                    "duration": 0.30927825000003395
                },
                {
                    "name": "G5",
                    "midi": 79,
                    "time": 743.814191250004,
                    "velocity": 0.36220472440944884,
                    "duration": 0.30927825000003395
                },
                {
                    "name": "A4",
                    "midi": 69,
                    "time": 744.123469500004,
                    "velocity": 0.3464566929133858,
                    "duration": 0.30927825000003395
                },
                {
                    "name": "C5",
                    "midi": 72,
                    "time": 744.4327477500041,
                    "velocity": 0.28346456692913385,
                    "duration": 0.30927825000003395
                },
                {
                    "name": "A#4",
                    "midi": 70,
                    "time": 744.7420260000041,
                    "velocity": 0.3779527559055118,
                    "duration": 0.30927825000003395
                },
                {
                    "name": "C#5",
                    "midi": 73,
                    "time": 745.0513042500041,
                    "velocity": 0.4015748031496063,
                    "duration": 0.30927825000003395
                },
                {
                    "name": "E5",
                    "midi": 76,
                    "time": 745.3605825000042,
                    "velocity": 0.4330708661417323,
                    "duration": 0.30927825000003395
                },
                {
                    "name": "G5",
                    "midi": 79,
                    "time": 745.6698607500042,
                    "velocity": 0.4566929133858268,
                    "duration": 0.30927825000003395
                },
                {
                    "name": "F5",
                    "midi": 77,
                    "time": 745.9791390000042,
                    "velocity": 0.48031496062992124,
                    "duration": 0.30927825000003395
                },
                {
                    "name": "E5",
                    "midi": 76,
                    "time": 746.2884172500043,
                    "velocity": 0.4645669291338583,
                    "duration": 0.30927825000003395
                },
                {
                    "name": "D5",
                    "midi": 74,
                    "time": 746.5976955000043,
                    "velocity": 0.44881889763779526,
                    "duration": 0.30927825000003395
                },
                {
                    "name": "E5",
                    "midi": 76,
                    "time": 746.9069737500043,
                    "velocity": 0.4881889763779528,
                    "duration": 0.30927825000003395
                },
                {
                    "name": "F5",
                    "midi": 77,
                    "time": 747.2162520000044,
                    "velocity": 0.5275590551181102,
                    "duration": 0.6185564999999542
                },
                {
                    "name": "A4",
                    "midi": 69,
                    "time": 747.8348085000043,
                    "velocity": 0.4015748031496063,
                    "duration": 0.30927825000003395
                },
                {
                    "name": "C5",
                    "midi": 72,
                    "time": 748.1440867500044,
                    "velocity": 0.25196850393700787,
                    "duration": 0.30927825000003395
                },
                {
                    "name": "A4",
                    "midi": 69,
                    "time": 748.4533650000044,
                    "velocity": 0.3464566929133858,
                    "duration": 0.30927825000003395
                },
                {
                    "name": "C5",
                    "midi": 72,
                    "time": 748.7626432500044,
                    "velocity": 0.25196850393700787,
                    "duration": 0.30927825000003395
                },
                {
                    "name": "A4",
                    "midi": 69,
                    "time": 749.0719215000045,
                    "velocity": 0.33858267716535434,
                    "duration": 0.30927825000003395
                },
                {
                    "name": "C5",
                    "midi": 72,
                    "time": 749.3811997500045,
                    "velocity": 0.2755905511811024,
                    "duration": 0.30927825000003395
                },
                {
                    "name": "G#4",
                    "midi": 68,
                    "time": 749.6904780000045,
                    "velocity": 0.4015748031496063,
                    "duration": 0.30927825000003395
                },
                {
                    "name": "B4",
                    "midi": 71,
                    "time": 749.9997562500046,
                    "velocity": 0.2677165354330709,
                    "duration": 0.30927825000003395
                },
                {
                    "name": "A4",
                    "midi": 69,
                    "time": 750.3090345000046,
                    "velocity": 0.4015748031496063,
                    "duration": 0.30927825000003395
                },
                {
                    "name": "C5",
                    "midi": 72,
                    "time": 750.6183127500046,
                    "velocity": 0.28346456692913385,
                    "duration": 0.30927825000003395
                },
                {
                    "name": "A4",
                    "midi": 69,
                    "time": 750.9275910000047,
                    "velocity": 0.3464566929133858,
                    "duration": 0.30927825000003395
                },
                {
                    "name": "C5",
                    "midi": 72,
                    "time": 751.2368692500047,
                    "velocity": 0.2440944881889764,
                    "duration": 0.30927825000003395
                },
                {
                    "name": "A4",
                    "midi": 69,
                    "time": 751.5461475000047,
                    "velocity": 0.36220472440944884,
                    "duration": 0.30927825000003395
                },
                {
                    "name": "C5",
                    "midi": 72,
                    "time": 751.8554257500048,
                    "velocity": 0.2677165354330709,
                    "duration": 0.30927825000003395
                },
                {
                    "name": "B4",
                    "midi": 71,
                    "time": 752.1647040000048,
                    "velocity": 0.4015748031496063,
                    "duration": 0.30927825000003395
                },
                {
                    "name": "D5",
                    "midi": 74,
                    "time": 752.4739822500048,
                    "velocity": 0.33070866141732286,
                    "duration": 0.30927825000003395
                },
                {
                    "name": "C5",
                    "midi": 72,
                    "time": 752.7832605000049,
                    "velocity": 0.3937007874015748,
                    "duration": 0.30927825000003395
                },
                {
                    "name": "D#5",
                    "midi": 75,
                    "time": 753.0925387500049,
                    "velocity": 0.3464566929133858,
                    "duration": 0.30927825000003395
                },
                {
                    "name": "F#5",
                    "midi": 78,
                    "time": 753.4018170000049,
                    "velocity": 0.4645669291338583,
                    "duration": 0.30927825000003395
                },
                {
                    "name": "A5",
                    "midi": 81,
                    "time": 753.711095250005,
                    "velocity": 0.4094488188976378,
                    "duration": 0.30927825000003395
                },
                {
                    "name": "B4",
                    "midi": 71,
                    "time": 754.020373500005,
                    "velocity": 0.3937007874015748,
                    "duration": 0.30927825000003395
                },
                {
                    "name": "D5",
                    "midi": 74,
                    "time": 754.329651750005,
                    "velocity": 0.3228346456692913,
                    "duration": 0.30927825000003395
                },
                {
                    "name": "C5",
                    "midi": 72,
                    "time": 754.6389300000051,
                    "velocity": 0.4330708661417323,
                    "duration": 0.30927825000003395
                },
                {
                    "name": "D#5",
                    "midi": 75,
                    "time": 754.9482082500051,
                    "velocity": 0.4566929133858268,
                    "duration": 0.30927825000003395
                },
                {
                    "name": "F#5",
                    "midi": 78,
                    "time": 755.2574865000051,
                    "velocity": 0.49606299212598426,
                    "duration": 0.30927825000003395
                },
                {
                    "name": "A5",
                    "midi": 81,
                    "time": 755.5667647500052,
                    "velocity": 0.5196850393700787,
                    "duration": 0.30927825000003395
                },
                {
                    "name": "G5",
                    "midi": 79,
                    "time": 755.8760430000052,
                    "velocity": 0.5511811023622047,
                    "duration": 0.30927825000003395
                },
                {
                    "name": "F#5",
                    "midi": 78,
                    "time": 756.1853212500052,
                    "velocity": 0.5275590551181102,
                    "duration": 0.30927825000003395
                },
                {
                    "name": "E5",
                    "midi": 76,
                    "time": 756.4945995000053,
                    "velocity": 0.5118110236220472,
                    "duration": 0.30927825000003395
                },
                {
                    "name": "F#5",
                    "midi": 78,
                    "time": 756.8038777500053,
                    "velocity": 0.5590551181102362,
                    "duration": 0.30927825000003395
                },
                {
                    "name": "G5",
                    "midi": 79,
                    "time": 757.1131560000053,
                    "velocity": 0.6062992125984252,
                    "duration": 0.6185564999999542
                },
                {
                    "name": "A#4",
                    "midi": 70,
                    "time": 757.7317125000053,
                    "velocity": 0.4015748031496063,
                    "duration": 0.30927825000003395
                },
                {
                    "name": "D5",
                    "midi": 74,
                    "time": 758.0409907500053,
                    "velocity": 0.25196850393700787,
                    "duration": 0.30927825000003395
                },
                {
                    "name": "A#4",
                    "midi": 70,
                    "time": 758.3502690000054,
                    "velocity": 0.3464566929133858,
                    "duration": 0.30927825000003395
                },
                {
                    "name": "D5",
                    "midi": 74,
                    "time": 758.6595472500054,
                    "velocity": 0.25196850393700787,
                    "duration": 0.30927825000003395
                },
                {
                    "name": "A#4",
                    "midi": 70,
                    "time": 758.9688255000054,
                    "velocity": 0.33858267716535434,
                    "duration": 0.30927825000003395
                },
                {
                    "name": "D5",
                    "midi": 74,
                    "time": 759.2781037500055,
                    "velocity": 0.2755905511811024,
                    "duration": 0.30927825000003395
                },
                {
                    "name": "A4",
                    "midi": 69,
                    "time": 759.5873820000055,
                    "velocity": 0.4015748031496063,
                    "duration": 0.30927825000003395
                },
                {
                    "name": "C#5",
                    "midi": 73,
                    "time": 759.8966602500055,
                    "velocity": 0.2677165354330709,
                    "duration": 0.30927825000003395
                },
                {
                    "name": "A#4",
                    "midi": 70,
                    "time": 760.2059385000056,
                    "velocity": 0.4015748031496063,
                    "duration": 0.30927825000003395
                },
                {
                    "name": "D5",
                    "midi": 74,
                    "time": 760.5152167500056,
                    "velocity": 0.28346456692913385,
                    "duration": 0.30927825000003395
                },
                {
                    "name": "A#4",
                    "midi": 70,
                    "time": 760.8244950000056,
                    "velocity": 0.3464566929133858,
                    "duration": 0.30927825000003395
                },
                {
                    "name": "D5",
                    "midi": 74,
                    "time": 761.1337732500057,
                    "velocity": 0.2440944881889764,
                    "duration": 0.30927825000003395
                },
                {
                    "name": "A#4",
                    "midi": 70,
                    "time": 761.4430515000057,
                    "velocity": 0.36220472440944884,
                    "duration": 0.30927825000003395
                },
                {
                    "name": "D5",
                    "midi": 74,
                    "time": 761.7523297500057,
                    "velocity": 0.2677165354330709,
                    "duration": 0.30927825000003395
                },
                {
                    "name": "G5",
                    "midi": 79,
                    "time": 762.0616080000058,
                    "velocity": 0.5669291338582677,
                    "duration": 0.30927825000003395
                },
                {
                    "name": "A#4",
                    "midi": 70,
                    "time": 762.3708862500058,
                    "velocity": 0.2755905511811024,
                    "duration": 0.30927825000003395
                },
                {
                    "name": "C#5",
                    "midi": 73,
                    "time": 762.6801645000058,
                    "velocity": 0.36220472440944884,
                    "duration": 0.30927825000003395
                },
                {
                    "name": "A#4",
                    "midi": 70,
                    "time": 762.9894427500059,
                    "velocity": 0.25196850393700787,
                    "duration": 0.30927825000003395
                },
                {
                    "name": "C5",
                    "midi": 72,
                    "time": 763.2987210000059,
                    "velocity": 0.3464566929133858,
                    "duration": 0.30927825000003395
                },
                {
                    "name": "A#4",
                    "midi": 70,
                    "time": 763.607999250006,
                    "velocity": 0.25196850393700787,
                    "duration": 0.30927825000003395
                },
                {
                    "name": "C#5",
                    "midi": 73,
                    "time": 763.917277500006,
                    "velocity": 0.33858267716535434,
                    "duration": 0.30927825000003395
                },
                {
                    "name": "A#4",
                    "midi": 70,
                    "time": 764.226555750006,
                    "velocity": 0.2755905511811024,
                    "duration": 0.30927825000003395
                },
                {
                    "name": "F5",
                    "midi": 77,
                    "time": 764.535834000006,
                    "velocity": 0.5275590551181102,
                    "duration": 0.30927825000003395
                },
                {
                    "name": "A4",
                    "midi": 69,
                    "time": 764.8451122500061,
                    "velocity": 0.2677165354330709,
                    "duration": 0.30927825000003395
                },
                {
                    "name": "D5",
                    "midi": 74,
                    "time": 765.1543905000061,
                    "velocity": 0.3543307086614173,
                    "duration": 0.30927825000003395
                },
                {
                    "name": "A4",
                    "midi": 69,
                    "time": 765.4636687500061,
                    "velocity": 0.28346456692913385,
                    "duration": 0.30927825000003395
                },
                {
                    "name": "C5",
                    "midi": 72,
                    "time": 765.7729470000062,
                    "velocity": 0.3464566929133858,
                    "duration": 0.30927825000003395
                },
                {
                    "name": "A4",
                    "midi": 69,
                    "time": 766.0822252500062,
                    "velocity": 0.2440944881889764,
                    "duration": 0.30927825000003395
                },
                {
                    "name": "F5",
                    "midi": 77,
                    "time": 766.3915035000063,
                    "velocity": 0.49606299212598426,
                    "duration": 0.30927825000003395
                },
                {
                    "name": "A4",
                    "midi": 69,
                    "time": 766.7007817500063,
                    "velocity": 0.2677165354330709,
                    "duration": 0.30927825000003395
                },
                {
                    "name": "G5",
                    "midi": 79,
                    "time": 767.0100600000063,
                    "velocity": 0.48031496062992124,
                    "duration": 0.30927825000003395
                },
                {
                    "name": "A#5",
                    "midi": 82,
                    "time": 767.0100600000063,
                    "velocity": 0.5669291338582677,
                    "duration": 0.30927825000003395
                },
                {
                    "name": "A#4",
                    "midi": 70,
                    "time": 767.3193382500064,
                    "velocity": 0.2755905511811024,
                    "duration": 0.30927825000003395
                },
                {
                    "name": "C#5",
                    "midi": 73,
                    "time": 767.6286165000064,
                    "velocity": 0.36220472440944884,
                    "duration": 0.30927825000003395
                },
                {
                    "name": "A#4",
                    "midi": 70,
                    "time": 767.9378947500064,
                    "velocity": 0.25196850393700787,
                    "duration": 0.30927825000003395
                },
                {
                    "name": "C5",
                    "midi": 72,
                    "time": 768.2471730000065,
                    "velocity": 0.3464566929133858,
                    "duration": 0.30927825000003395
                },
                {
                    "name": "A#4",
                    "midi": 70,
                    "time": 768.5564512500065,
                    "velocity": 0.25196850393700787,
                    "duration": 0.30927825000003395
                },
                {
                    "name": "C#5",
                    "midi": 73,
                    "time": 768.8657295000065,
                    "velocity": 0.33858267716535434,
                    "duration": 0.30927825000003395
                },
                {
                    "name": "A#4",
                    "midi": 70,
                    "time": 769.1750077500066,
                    "velocity": 0.2755905511811024,
                    "duration": 0.30927825000003395
                },
                {
                    "name": "A5",
                    "midi": 81,
                    "time": 769.4842860000066,
                    "velocity": 0.5275590551181102,
                    "duration": 0.30927825000003395
                },
                {
                    "name": "F5",
                    "midi": 77,
                    "time": 769.4842860000066,
                    "velocity": 0.4409448818897638,
                    "duration": 0.30927825000003395
                },
                {
                    "name": "A4",
                    "midi": 69,
                    "time": 769.7935642500066,
                    "velocity": 0.2677165354330709,
                    "duration": 0.30927825000003395
                },
                {
                    "name": "D5",
                    "midi": 74,
                    "time": 770.1028425000067,
                    "velocity": 0.3543307086614173,
                    "duration": 0.30927825000003395
                },
                {
                    "name": "A4",
                    "midi": 69,
                    "time": 770.4121207500067,
                    "velocity": 0.28346456692913385,
                    "duration": 0.30927825000003395
                },
                {
                    "name": "C5",
                    "midi": 72,
                    "time": 770.7213990000067,
                    "velocity": 0.3464566929133858,
                    "duration": 0.30927825000003395
                },
                {
                    "name": "A4",
                    "midi": 69,
                    "time": 771.0306772500068,
                    "velocity": 0.2440944881889764,
                    "duration": 0.30927825000003395
                },
                {
                    "name": "F5",
                    "midi": 77,
                    "time": 771.3399555000068,
                    "velocity": 0.49606299212598426,
                    "duration": 0.30927825000003395
                },
                {
                    "name": "A4",
                    "midi": 69,
                    "time": 771.6492337500068,
                    "velocity": 0.2677165354330709,
                    "duration": 0.30927825000003395
                },
                {
                    "name": "A5",
                    "midi": 81,
                    "time": 771.9585120000069,
                    "velocity": 0.5511811023622047,
                    "duration": 0.30927825000003395
                },
                {
                    "name": "C6",
                    "midi": 84,
                    "time": 772.2677902500069,
                    "velocity": 0.4094488188976378,
                    "duration": 0.30927825000003395
                },
                {
                    "name": "D5",
                    "midi": 74,
                    "time": 772.5770685000069,
                    "velocity": 0.44881889763779526,
                    "duration": 0.30927825000003395
                },
                {
                    "name": "G5",
                    "midi": 79,
                    "time": 772.886346750007,
                    "velocity": 0.41732283464566927,
                    "duration": 0.30927825000003395
                },
                {
                    "name": "A#5",
                    "midi": 82,
                    "time": 773.195625000007,
                    "velocity": 0.4881889763779528,
                    "duration": 0.30927825000003395
                },
                {
                    "name": "D6",
                    "midi": 86,
                    "time": 773.504903250007,
                    "velocity": 0.5433070866141733,
                    "duration": 0.30927825000003395
                },
                {
                    "name": "C6",
                    "midi": 84,
                    "time": 773.8141815000071,
                    "velocity": 0.44881889763779526,
                    "duration": 0.30927825000003395
                },
                {
                    "name": "A#5",
                    "midi": 82,
                    "time": 774.1234597500071,
                    "velocity": 0.44881889763779526,
                    "duration": 0.30927825000003395
                },
                {
                    "name": "G5",
                    "midi": 79,
                    "time": 774.4327380000071,
                    "velocity": 0.49606299212598426,
                    "duration": 0.30927825000003395
                },
                {
                    "name": "A#5",
                    "midi": 82,
                    "time": 774.7420162500072,
                    "velocity": 0.41732283464566927,
                    "duration": 0.30927825000003395
                },
                {
                    "name": "C5",
                    "midi": 72,
                    "time": 775.0512945000072,
                    "velocity": 0.41732283464566927,
                    "duration": 0.30927825000003395
                },
                {
                    "name": "F5",
                    "midi": 77,
                    "time": 775.3605727500072,
                    "velocity": 0.3937007874015748,
                    "duration": 0.30927825000003395
                },
                {
                    "name": "A5",
                    "midi": 81,
                    "time": 775.6698510000073,
                    "velocity": 0.4881889763779528,
                    "duration": 0.30927825000003395
                },
                {
                    "name": "C6",
                    "midi": 84,
                    "time": 775.9791292500073,
                    "velocity": 0.5275590551181102,
                    "duration": 0.30927825000003395
                },
                {
                    "name": "A#5",
                    "midi": 82,
                    "time": 776.2884075000073,
                    "velocity": 0.41732283464566927,
                    "duration": 0.30927825000003395
                },
                {
                    "name": "A5",
                    "midi": 81,
                    "time": 776.5976857500074,
                    "velocity": 0.3858267716535433,
                    "duration": 0.30927825000003395
                },
                {
                    "name": "F#5",
                    "midi": 78,
                    "time": 776.9069640000074,
                    "velocity": 0.5196850393700787,
                    "duration": 0.30927825000003395
                },
                {
                    "name": "A5",
                    "midi": 81,
                    "time": 777.2162422500074,
                    "velocity": 0.3700787401574803,
                    "duration": 0.30927825000003395
                },
                {
                    "name": "C5",
                    "midi": 72,
                    "time": 777.5255205000075,
                    "velocity": 0.41732283464566927,
                    "duration": 0.30927825000003395
                },
                {
                    "name": "E5",
                    "midi": 76,
                    "time": 777.8347987500075,
                    "velocity": 0.3937007874015748,
                    "duration": 0.30927825000003395
                },
                {
                    "name": "G5",
                    "midi": 79,
                    "time": 778.1440770000075,
                    "velocity": 0.48031496062992124,
                    "duration": 0.30927825000003395
                },
                {
                    "name": "A#5",
                    "midi": 82,
                    "time": 778.4533552500076,
                    "velocity": 0.5196850393700787,
                    "duration": 0.30927825000003395
                },
                {
                    "name": "A5",
                    "midi": 81,
                    "time": 778.7626335000076,
                    "velocity": 0.41732283464566927,
                    "duration": 0.30927825000003395
                },
                {
                    "name": "G5",
                    "midi": 79,
                    "time": 779.0719117500076,
                    "velocity": 0.3858267716535433,
                    "duration": 0.30927825000003395
                },
                {
                    "name": "F5",
                    "midi": 77,
                    "time": 779.3811900000077,
                    "velocity": 0.5275590551181102,
                    "duration": 0.30927825000003395
                },
                {
                    "name": "E5",
                    "midi": 76,
                    "time": 779.6904682500077,
                    "velocity": 0.44881889763779526,
                    "duration": 0.30927825000003395
                },
                {
                    "name": "D5",
                    "midi": 74,
                    "time": 779.9997465000077,
                    "velocity": 0.5039370078740157,
                    "duration": 0.30927825000003395
                },
                {
                    "name": "C#5",
                    "midi": 73,
                    "time": 780.3090247500078,
                    "velocity": 0.5118110236220472,
                    "duration": 0.30927825000003395
                },
                {
                    "name": "C5",
                    "midi": 72,
                    "time": 780.6183030000078,
                    "velocity": 0.5275590551181102,
                    "duration": 0.30927825000003395
                },
                {
                    "name": "A#4",
                    "midi": 70,
                    "time": 780.9275812500078,
                    "velocity": 0.5354330708661418,
                    "duration": 0.30927825000003395
                },
                {
                    "name": "A4",
                    "midi": 69,
                    "time": 781.2368595000079,
                    "velocity": 0.5433070866141733,
                    "duration": 0.30927825000003395
                },
                {
                    "name": "G4",
                    "midi": 67,
                    "time": 781.5461377500079,
                    "velocity": 0.5590551181102362,
                    "duration": 0.30927825000003395
                },
                {
                    "name": "F4",
                    "midi": 65,
                    "time": 781.855416000008,
                    "velocity": 0.5905511811023622,
                    "duration": 0.6185564999999542
                },
                {
                    "name": "F3",
                    "midi": 53,
                    "time": 782.4739725000079,
                    "velocity": 0.5669291338582677,
                    "duration": 0.30927825000003395
                },
                {
                    "name": "F3",
                    "midi": 53,
                    "time": 783.092529000008,
                    "velocity": 0.5669291338582677,
                    "duration": 0.30927825000003395
                },
                {
                    "name": "F3",
                    "midi": 53,
                    "time": 783.711085500008,
                    "velocity": 0.5669291338582677,
                    "duration": 0.30927825000003395
                },
                {
                    "name": "E3",
                    "midi": 52,
                    "time": 784.3296420000081,
                    "velocity": 0.6141732283464567,
                    "duration": 0.6185564999999542
                },
                {
                    "name": "F3",
                    "midi": 53,
                    "time": 784.9481985000081,
                    "velocity": 0.5433070866141733,
                    "duration": 0.30927825000003395
                },
                {
                    "name": "F3",
                    "midi": 53,
                    "time": 785.5667550000081,
                    "velocity": 0.5433070866141733,
                    "duration": 0.30927825000003395
                },
                {
                    "name": "F3",
                    "midi": 53,
                    "time": 786.1853115000082,
                    "velocity": 0.5433070866141733,
                    "duration": 0.30927825000003395
                },
                {
                    "name": "F#3",
                    "midi": 54,
                    "time": 786.8038680000083,
                    "velocity": 0.5669291338582677,
                    "duration": 0.9278347499999882
                },
                {
                    "name": "G3",
                    "midi": 55,
                    "time": 787.7317027500083,
                    "velocity": 0.5039370078740157,
                    "duration": 0.15463912500001697
                },
                {
                    "name": "A3",
                    "midi": 57,
                    "time": 787.8863418750083,
                    "velocity": 0.4645669291338583,
                    "duration": 0.15463912500001697
                },
                {
                    "name": "G3",
                    "midi": 55,
                    "time": 788.0409810000083,
                    "velocity": 0.5669291338582677,
                    "duration": 0.9278347499999882
                },
                {
                    "name": "A3",
                    "midi": 57,
                    "time": 788.9688157500083,
                    "velocity": 0.5118110236220472,
                    "duration": 0.15463912500001697
                },
                {
                    "name": "A#3",
                    "midi": 58,
                    "time": 789.1234548750083,
                    "velocity": 0.4881889763779528,
                    "duration": 0.15463912500001697
                },
                {
                    "name": "C4",
                    "midi": 60,
                    "time": 789.2780940000083,
                    "velocity": 0.5669291338582677,
                    "duration": 0.30927825000003395
                },
                {
                    "name": "E4",
                    "midi": 64,
                    "time": 789.8966505000084,
                    "velocity": 0.5511811023622047,
                    "duration": 0.30927825000003395
                },
                {
                    "name": "G4",
                    "midi": 67,
                    "time": 790.2059287500084,
                    "velocity": 0.5511811023622047,
                    "duration": 0.30927825000003395
                },
                {
                    "name": "C5",
                    "midi": 72,
                    "time": 790.5152070000084,
                    "velocity": 0.5275590551181102,
                    "duration": 0.30927825000003395
                },
                {
                    "name": "E5",
                    "midi": 76,
                    "time": 790.8244852500085,
                    "velocity": 0.5511811023622047,
                    "duration": 0.30927825000003395
                },
                {
                    "name": "G5",
                    "midi": 79,
                    "time": 791.1337635000085,
                    "velocity": 0.5748031496062992,
                    "duration": 0.30927825000003395
                },
                {
                    "name": "C6",
                    "midi": 84,
                    "time": 791.4430417500085,
                    "velocity": 0.5905511811023622,
                    "duration": 0.30927825000003395
                },
                {
                    "name": "F5",
                    "midi": 77,
                    "time": 791.7523200000086,
                    "velocity": 0.6141732283464567,
                    "duration": 0.6185564999999542
                },
                {
                    "name": "F3",
                    "midi": 53,
                    "time": 792.3708765000085,
                    "velocity": 0.5669291338582677,
                    "duration": 0.30927825000003395
                },
                {
                    "name": "F3",
                    "midi": 53,
                    "time": 792.9894330000086,
                    "velocity": 0.5669291338582677,
                    "duration": 0.30927825000003395
                },
                {
                    "name": "F3",
                    "midi": 53,
                    "time": 793.6079895000087,
                    "velocity": 0.5669291338582677,
                    "duration": 0.30927825000003395
                },
                {
                    "name": "E3",
                    "midi": 52,
                    "time": 794.2265460000087,
                    "velocity": 0.6141732283464567,
                    "duration": 0.6185564999999542
                },
                {
                    "name": "F3",
                    "midi": 53,
                    "time": 794.8451025000087,
                    "velocity": 0.5433070866141733,
                    "duration": 0.30927825000003395
                },
                {
                    "name": "F3",
                    "midi": 53,
                    "time": 795.4636590000088,
                    "velocity": 0.5433070866141733,
                    "duration": 0.30927825000003395
                },
                {
                    "name": "F3",
                    "midi": 53,
                    "time": 796.0822155000088,
                    "velocity": 0.5433070866141733,
                    "duration": 0.30927825000003395
                },
                {
                    "name": "F#3",
                    "midi": 54,
                    "time": 796.7007720000089,
                    "velocity": 0.5669291338582677,
                    "duration": 0.9278347499999882
                },
                {
                    "name": "G3",
                    "midi": 55,
                    "time": 797.6286067500089,
                    "velocity": 0.5039370078740157,
                    "duration": 0.15463912500001697
                },
                {
                    "name": "A3",
                    "midi": 57,
                    "time": 797.7832458750089,
                    "velocity": 0.4645669291338583,
                    "duration": 0.15463912500001697
                },
                {
                    "name": "G3",
                    "midi": 55,
                    "time": 797.9378850000089,
                    "velocity": 0.5669291338582677,
                    "duration": 0.9278347499999882
                },
                {
                    "name": "A3",
                    "midi": 57,
                    "time": 798.8657197500089,
                    "velocity": 0.5118110236220472,
                    "duration": 0.15463912500001697
                },
                {
                    "name": "A#3",
                    "midi": 58,
                    "time": 799.0203588750089,
                    "velocity": 0.47244094488188976,
                    "duration": 0.15463912500001697
                },
                {
                    "name": "C4",
                    "midi": 60,
                    "time": 799.1749980000089,
                    "velocity": 0.5669291338582677,
                    "duration": 0.30927825000003395
                },
                {
                    "name": "C#4",
                    "midi": 61,
                    "time": 799.793554500009,
                    "velocity": 0.5511811023622047,
                    "duration": 0.30927825000003395
                },
                {
                    "name": "E4",
                    "midi": 64,
                    "time": 800.102832750009,
                    "velocity": 0.5511811023622047,
                    "duration": 0.30927825000003395
                },
                {
                    "name": "A4",
                    "midi": 69,
                    "time": 800.4121110000091,
                    "velocity": 0.5275590551181102,
                    "duration": 0.30927825000003395
                },
                {
                    "name": "C#5",
                    "midi": 73,
                    "time": 800.7213892500091,
                    "velocity": 0.5511811023622047,
                    "duration": 0.30927825000003395
                },
                {
                    "name": "E5",
                    "midi": 76,
                    "time": 801.0306675000091,
                    "velocity": 0.5748031496062992,
                    "duration": 0.30927825000003395
                },
                {
                    "name": "A5",
                    "midi": 81,
                    "time": 801.3399457500092,
                    "velocity": 0.5905511811023622,
                    "duration": 0.30927825000003395
                },
                {
                    "name": "D5",
                    "midi": 74,
                    "time": 801.6492240000092,
                    "velocity": 0.6141732283464567,
                    "duration": 0.6185564999999542
                },
                {
                    "name": "D4",
                    "midi": 62,
                    "time": 802.2677805000092,
                    "velocity": 0.5669291338582677,
                    "duration": 0.30927825000003395
                },
                {
                    "name": "F3",
                    "midi": 53,
                    "time": 802.2677805000092,
                    "velocity": 0.48031496062992124,
                    "duration": 0.30927825000003395
                },
                {
                    "name": "F3",
                    "midi": 53,
                    "time": 802.8863370000092,
                    "velocity": 0.48031496062992124,
                    "duration": 0.30927825000003395
                },
                {
                    "name": "D4",
                    "midi": 62,
                    "time": 802.8863370000092,
                    "velocity": 0.5669291338582677,
                    "duration": 0.30927825000003395
                },
                {
                    "name": "F3",
                    "midi": 53,
                    "time": 803.5048935000093,
                    "velocity": 0.48031496062992124,
                    "duration": 0.30927825000003395
                },
                {
                    "name": "D4",
                    "midi": 62,
                    "time": 803.5048935000093,
                    "velocity": 0.5669291338582677,
                    "duration": 0.30927825000003395
                },
                {
                    "name": "F3",
                    "midi": 53,
                    "time": 804.1234500000094,
                    "velocity": 0.48031496062992124,
                    "duration": 0.6185564999999542
                },
                {
                    "name": "C#4",
                    "midi": 61,
                    "time": 804.1234500000094,
                    "velocity": 0.6141732283464567,
                    "duration": 0.6185564999999542
                },
                {
                    "name": "F3",
                    "midi": 53,
                    "time": 804.7420065000093,
                    "velocity": 0.4566929133858268,
                    "duration": 0.30927825000003395
                },
                {
                    "name": "D4",
                    "midi": 62,
                    "time": 804.7420065000093,
                    "velocity": 0.5433070866141733,
                    "duration": 0.30927825000003395
                },
                {
                    "name": "D4",
                    "midi": 62,
                    "time": 805.3605630000094,
                    "velocity": 0.5433070866141733,
                    "duration": 0.30927825000003395
                },
                {
                    "name": "F3",
                    "midi": 53,
                    "time": 805.3605630000094,
                    "velocity": 0.4566929133858268,
                    "duration": 0.30927825000003395
                },
                {
                    "name": "F3",
                    "midi": 53,
                    "time": 805.9791195000095,
                    "velocity": 0.4566929133858268,
                    "duration": 0.30927825000003395
                },
                {
                    "name": "D4",
                    "midi": 62,
                    "time": 805.9791195000095,
                    "velocity": 0.5433070866141733,
                    "duration": 0.30927825000003395
                },
                {
                    "name": "D4",
                    "midi": 62,
                    "time": 806.5976760000095,
                    "velocity": 0.5669291338582677,
                    "duration": 0.9278347499999882
                },
                {
                    "name": "G#3",
                    "midi": 56,
                    "time": 806.5976760000095,
                    "velocity": 0.48031496062992124,
                    "duration": 1.2371130000000221
                },
                {
                    "name": "D#4",
                    "midi": 63,
                    "time": 807.5255107500095,
                    "velocity": 0.5039370078740157,
                    "duration": 0.15463912500001697
                },
                {
                    "name": "F4",
                    "midi": 65,
                    "time": 807.6801498750095,
                    "velocity": 0.4645669291338583,
                    "duration": 0.15463912500001697
                },
                {
                    "name": "D#4",
                    "midi": 63,
                    "time": 807.8347890000096,
                    "velocity": 0.5669291338582677,
                    "duration": 0.9278347499999882
                },
                {
                    "name": "G3",
                    "midi": 55,
                    "time": 807.8347890000096,
                    "velocity": 0.48031496062992124,
                    "duration": 0.6185564999999542
                },
                {
                    "name": "F4",
                    "midi": 65,
                    "time": 808.7626237500095,
                    "velocity": 0.5118110236220472,
                    "duration": 0.15463912500001697
                },
                {
                    "name": "F#4",
                    "midi": 66,
                    "time": 808.9172628750096,
                    "velocity": 0.48031496062992124,
                    "duration": 0.15463912500001697
                },
                {
                    "name": "F4",
                    "midi": 65,
                    "time": 809.0719020000096,
                    "velocity": 0.5669291338582677,
                    "duration": 0.30927825000003395
                },
                {
                    "name": "D#4",
                    "midi": 63,
                    "time": 809.0719020000096,
                    "velocity": 0.48031496062992124,
                    "duration": 0.30927825000003395
                },
                {
                    "name": "A3",
                    "midi": 57,
                    "time": 809.0719020000096,
                    "velocity": 0.48031496062992124,
                    "duration": 0.30927825000003395
                },
                {
                    "name": "A4",
                    "midi": 69,
                    "time": 809.6904585000096,
                    "velocity": 0.5511811023622047,
                    "duration": 0.30927825000003395
                },
                {
                    "name": "C5",
                    "midi": 72,
                    "time": 809.9997367500097,
                    "velocity": 0.5511811023622047,
                    "duration": 0.30927825000003395
                },
                {
                    "name": "F5",
                    "midi": 77,
                    "time": 810.3090150000097,
                    "velocity": 0.5275590551181102,
                    "duration": 0.30927825000003395
                },
                {
                    "name": "A5",
                    "midi": 81,
                    "time": 810.6182932500097,
                    "velocity": 0.5511811023622047,
                    "duration": 0.30927825000003395
                },
                {
                    "name": "C6",
                    "midi": 84,
                    "time": 810.9275715000098,
                    "velocity": 0.5748031496062992,
                    "duration": 0.30927825000003395
                },
                {
                    "name": "F6",
                    "midi": 89,
                    "time": 811.2368497500098,
                    "velocity": 0.5905511811023622,
                    "duration": 0.30927825000003395
                },
                {
                    "name": "A#5",
                    "midi": 82,
                    "time": 811.5461280000098,
                    "velocity": 0.6141732283464567,
                    "duration": 0.6185564999999542
                },
                {
                    "name": "D4",
                    "midi": 62,
                    "time": 812.1646845000098,
                    "velocity": 0.5669291338582677,
                    "duration": 0.30927825000003395
                },
                {
                    "name": "F3",
                    "midi": 53,
                    "time": 812.1646845000098,
                    "velocity": 0.48031496062992124,
                    "duration": 0.30927825000003395
                },
                {
                    "name": "F3",
                    "midi": 53,
                    "time": 812.7832410000099,
                    "velocity": 0.48031496062992124,
                    "duration": 0.30927825000003395
                },
                {
                    "name": "D4",
                    "midi": 62,
                    "time": 812.7832410000099,
                    "velocity": 0.5669291338582677,
                    "duration": 0.30927825000003395
                },
                {
                    "name": "F3",
                    "midi": 53,
                    "time": 813.4017975000099,
                    "velocity": 0.48031496062992124,
                    "duration": 0.30927825000003395
                },
                {
                    "name": "D4",
                    "midi": 62,
                    "time": 813.4017975000099,
                    "velocity": 0.5669291338582677,
                    "duration": 0.30927825000003395
                },
                {
                    "name": "C#4",
                    "midi": 61,
                    "time": 814.02035400001,
                    "velocity": 0.6141732283464567,
                    "duration": 0.6185564999999542
                },
                {
                    "name": "F3",
                    "midi": 53,
                    "time": 814.02035400001,
                    "velocity": 0.48031496062992124,
                    "duration": 0.6185564999999542
                },
                {
                    "name": "F3",
                    "midi": 53,
                    "time": 814.63891050001,
                    "velocity": 0.4566929133858268,
                    "duration": 0.30927825000003395
                },
                {
                    "name": "D4",
                    "midi": 62,
                    "time": 814.63891050001,
                    "velocity": 0.5433070866141733,
                    "duration": 0.30927825000003395
                },
                {
                    "name": "D4",
                    "midi": 62,
                    "time": 815.25746700001,
                    "velocity": 0.5433070866141733,
                    "duration": 0.30927825000003395
                },
                {
                    "name": "F3",
                    "midi": 53,
                    "time": 815.25746700001,
                    "velocity": 0.4566929133858268,
                    "duration": 0.30927825000003395
                },
                {
                    "name": "F3",
                    "midi": 53,
                    "time": 815.8760235000101,
                    "velocity": 0.4566929133858268,
                    "duration": 0.30927825000003395
                },
                {
                    "name": "D4",
                    "midi": 62,
                    "time": 815.8760235000101,
                    "velocity": 0.5433070866141733,
                    "duration": 0.30927825000003395
                },
                {
                    "name": "G#4",
                    "midi": 68,
                    "time": 816.4945800000102,
                    "velocity": 0.6141732283464567,
                    "duration": 0.6185564999999542
                },
                {
                    "name": "D4",
                    "midi": 62,
                    "time": 816.4945800000102,
                    "velocity": 0.48031496062992124,
                    "duration": 0.6185564999999542
                },
                {
                    "name": "B3",
                    "midi": 59,
                    "time": 816.4945800000102,
                    "velocity": 0.48031496062992124,
                    "duration": 0.6185564999999542
                },
                {
                    "name": "B3",
                    "midi": 59,
                    "time": 817.1131365000101,
                    "velocity": 0.4566929133858268,
                    "duration": 0.30927825000003395
                },
                {
                    "name": "D4",
                    "midi": 62,
                    "time": 817.1131365000101,
                    "velocity": 0.4566929133858268,
                    "duration": 0.30927825000003395
                },
                {
                    "name": "G4",
                    "midi": 67,
                    "time": 817.1131365000101,
                    "velocity": 0.5433070866141733,
                    "duration": 0.30927825000003395
                },
                {
                    "name": "B3",
                    "midi": 59,
                    "time": 817.7316930000102,
                    "velocity": 0.4566929133858268,
                    "duration": 0.30927825000003395
                },
                {
                    "name": "D4",
                    "midi": 62,
                    "time": 817.7316930000102,
                    "velocity": 0.4566929133858268,
                    "duration": 0.30927825000003395
                },
                {
                    "name": "G4",
                    "midi": 67,
                    "time": 817.7316930000102,
                    "velocity": 0.5433070866141733,
                    "duration": 0.30927825000003395
                },
                {
                    "name": "D4",
                    "midi": 62,
                    "time": 818.3502495000102,
                    "velocity": 0.4566929133858268,
                    "duration": 0.30927825000003395
                },
                {
                    "name": "G4",
                    "midi": 67,
                    "time": 818.3502495000102,
                    "velocity": 0.5433070866141733,
                    "duration": 0.30927825000003395
                },
                {
                    "name": "B3",
                    "midi": 59,
                    "time": 818.3502495000102,
                    "velocity": 0.4566929133858268,
                    "duration": 0.30927825000003395
                },
                {
                    "name": "E4",
                    "midi": 64,
                    "time": 818.9688060000103,
                    "velocity": 0.5669291338582677,
                    "duration": 0.30927825000003395
                },
                {
                    "name": "C4",
                    "midi": 60,
                    "time": 818.9688060000103,
                    "velocity": 0.48031496062992124,
                    "duration": 0.30927825000003395
                },
                {
                    "name": "E4",
                    "midi": 64,
                    "time": 819.5873625000104,
                    "velocity": 0.5511811023622047,
                    "duration": 0.6185565000000679
                },
                {
                    "name": "G4",
                    "midi": 67,
                    "time": 819.8966407500104,
                    "velocity": 0.5511811023622047,
                    "duration": 0.30927825000003395
                },
                {
                    "name": "C5",
                    "midi": 72,
                    "time": 820.2059190000105,
                    "velocity": 0.5275590551181102,
                    "duration": 0.30927825000003395
                },
                {
                    "name": "E5",
                    "midi": 76,
                    "time": 820.5151972500105,
                    "velocity": 0.5511811023622047,
                    "duration": 0.30927825000003395
                },
                {
                    "name": "G5",
                    "midi": 79,
                    "time": 820.8244755000105,
                    "velocity": 0.5748031496062992,
                    "duration": 0.30927825000003395
                },
                {
                    "name": "C6",
                    "midi": 84,
                    "time": 821.1337537500106,
                    "velocity": 0.5905511811023622,
                    "duration": 0.30927825000003395
                },
                {
                    "name": "C#4",
                    "midi": 61,
                    "time": 821.4430320000106,
                    "velocity": 0.48031496062992124,
                    "duration": 0.6185564999999542
                },
                {
                    "name": "A#4",
                    "midi": 70,
                    "time": 821.4430320000106,
                    "velocity": 0.6141732283464567,
                    "duration": 0.6185564999999542
                },
                {
                    "name": "E4",
                    "midi": 64,
                    "time": 821.4430320000106,
                    "velocity": 0.48031496062992124,
                    "duration": 0.6185564999999542
                },
                {
                    "name": "E4",
                    "midi": 64,
                    "time": 822.0615885000105,
                    "velocity": 0.4566929133858268,
                    "duration": 0.30927825000003395
                },
                {
                    "name": "A4",
                    "midi": 69,
                    "time": 822.0615885000105,
                    "velocity": 0.5433070866141733,
                    "duration": 0.30927825000003395
                },
                {
                    "name": "C#4",
                    "midi": 61,
                    "time": 822.0615885000105,
                    "velocity": 0.4566929133858268,
                    "duration": 0.30927825000003395
                },
                {
                    "name": "E4",
                    "midi": 64,
                    "time": 822.6801450000106,
                    "velocity": 0.4566929133858268,
                    "duration": 0.30927825000003395
                },
                {
                    "name": "A4",
                    "midi": 69,
                    "time": 822.6801450000106,
                    "velocity": 0.5433070866141733,
                    "duration": 0.30927825000003395
                },
                {
                    "name": "C#4",
                    "midi": 61,
                    "time": 822.6801450000106,
                    "velocity": 0.4566929133858268,
                    "duration": 0.30927825000003395
                },
                {
                    "name": "E4",
                    "midi": 64,
                    "time": 823.2987015000107,
                    "velocity": 0.4566929133858268,
                    "duration": 0.30927825000003395
                },
                {
                    "name": "C#4",
                    "midi": 61,
                    "time": 823.2987015000107,
                    "velocity": 0.4566929133858268,
                    "duration": 0.30927825000003395
                },
                {
                    "name": "A4",
                    "midi": 69,
                    "time": 823.2987015000107,
                    "velocity": 0.5433070866141733,
                    "duration": 0.30927825000003395
                },
                {
                    "name": "D4",
                    "midi": 62,
                    "time": 823.9172580000107,
                    "velocity": 0.48031496062992124,
                    "duration": 0.30927825000003395
                },
                {
                    "name": "F#4",
                    "midi": 66,
                    "time": 823.9172580000107,
                    "velocity": 0.5669291338582677,
                    "duration": 0.30927825000003395
                },
                {
                    "name": "F#4",
                    "midi": 66,
                    "time": 824.5358145000108,
                    "velocity": 0.5511811023622047,
                    "duration": 0.6185565000000679
                },
                {
                    "name": "A4",
                    "midi": 69,
                    "time": 824.8450927500108,
                    "velocity": 0.5511811023622047,
                    "duration": 0.30927825000003395
                },
                {
                    "name": "D5",
                    "midi": 74,
                    "time": 825.1543710000109,
                    "velocity": 0.5275590551181102,
                    "duration": 0.30927825000003395
                },
                {
                    "name": "F#5",
                    "midi": 78,
                    "time": 825.4636492500109,
                    "velocity": 0.5511811023622047,
                    "duration": 0.30927825000003395
                },
                {
                    "name": "A5",
                    "midi": 81,
                    "time": 825.772927500011,
                    "velocity": 0.5748031496062992,
                    "duration": 0.30927825000003395
                },
                {
                    "name": "D6",
                    "midi": 86,
                    "time": 826.082205750011,
                    "velocity": 0.5905511811023622,
                    "duration": 0.30927825000003395
                },
                {
                    "name": "D#5",
                    "midi": 75,
                    "time": 826.391484000011,
                    "velocity": 0.5748031496062992,
                    "duration": 0.6185564999999542
                },
                {
                    "name": "D#6",
                    "midi": 87,
                    "time": 826.391484000011,
                    "velocity": 0.6850393700787402,
                    "duration": 0.6185564999999542
                },
                {
                    "name": "D6",
                    "midi": 86,
                    "time": 827.010040500011,
                    "velocity": 0.5905511811023622,
                    "duration": 0.4639173750000509
                },
                {
                    "name": "D5",
                    "midi": 74,
                    "time": 827.010040500011,
                    "velocity": 0.49606299212598426,
                    "duration": 0.4639173750000509
                },
                {
                    "name": "D6",
                    "midi": 86,
                    "time": 827.628597000011,
                    "velocity": 0.6850393700787402,
                    "duration": 0.6185564999999542
                },
                {
                    "name": "D5",
                    "midi": 74,
                    "time": 827.628597000011,
                    "velocity": 0.5748031496062992,
                    "duration": 0.6185564999999542
                },
                {
                    "name": "C#6",
                    "midi": 85,
                    "time": 828.247153500011,
                    "velocity": 0.5905511811023622,
                    "duration": 0.4639173750000509
                },
                {
                    "name": "C#5",
                    "midi": 73,
                    "time": 828.247153500011,
                    "velocity": 0.49606299212598426,
                    "duration": 0.4639173750000509
                },
                {
                    "name": "C#5",
                    "midi": 73,
                    "time": 828.8657100000111,
                    "velocity": 0.5748031496062992,
                    "duration": 0.6185564999999542
                },
                {
                    "name": "C#6",
                    "midi": 85,
                    "time": 828.8657100000111,
                    "velocity": 0.6771653543307087,
                    "duration": 0.6185564999999542
                },
                {
                    "name": "D6",
                    "midi": 86,
                    "time": 829.484266500011,
                    "velocity": 0.5511811023622047,
                    "duration": 0.4639173750000509
                },
                {
                    "name": "D5",
                    "midi": 74,
                    "time": 829.484266500011,
                    "velocity": 0.4645669291338583,
                    "duration": 0.4639173750000509
                },
                {
                    "name": "D6",
                    "midi": 86,
                    "time": 830.1028230000111,
                    "velocity": 0.6141732283464567,
                    "duration": 0.6185564999999542
                },
                {
                    "name": "D5",
                    "midi": 74,
                    "time": 830.1028230000111,
                    "velocity": 0.5196850393700787,
                    "duration": 0.6185564999999542
                },
                {
                    "name": "A4",
                    "midi": 69,
                    "time": 830.721379500011,
                    "velocity": 0.4645669291338583,
                    "duration": 0.4639173750000509
                },
                {
                    "name": "A5",
                    "midi": 81,
                    "time": 830.721379500011,
                    "velocity": 0.5511811023622047,
                    "duration": 0.4639173750000509
                },
                {
                    "name": "G5",
                    "midi": 79,
                    "time": 831.3399360000111,
                    "velocity": 0.6062992125984252,
                    "duration": 0.6185564999999542
                },
                {
                    "name": "G4",
                    "midi": 67,
                    "time": 831.3399360000111,
                    "velocity": 0.5118110236220472,
                    "duration": 0.6185564999999542
                },
                {
                    "name": "F#5",
                    "midi": 78,
                    "time": 831.9584925000111,
                    "velocity": 0.5354330708661418,
                    "duration": 0.4639173750000509
                },
                {
                    "name": "F#4",
                    "midi": 66,
                    "time": 831.9584925000111,
                    "velocity": 0.44881889763779526,
                    "duration": 0.4639173750000509
                },
                {
                    "name": "F#5",
                    "midi": 78,
                    "time": 832.5770490000111,
                    "velocity": 0.5354330708661418,
                    "duration": 0.6185564999999542
                },
                {
                    "name": "F#4",
                    "midi": 66,
                    "time": 832.5770490000111,
                    "velocity": 0.44881889763779526,
                    "duration": 0.6185564999999542
                },
                {
                    "name": "E4",
                    "midi": 64,
                    "time": 833.1956055000111,
                    "velocity": 0.44881889763779526,
                    "duration": 0.4639173750000509
                },
                {
                    "name": "E5",
                    "midi": 76,
                    "time": 833.1956055000111,
                    "velocity": 0.5354330708661418,
                    "duration": 0.4639173750000509
                },
                {
                    "name": "E4",
                    "midi": 64,
                    "time": 833.8141620000112,
                    "velocity": 0.4881889763779528,
                    "duration": 0.6185564999999542
                },
                {
                    "name": "E5",
                    "midi": 76,
                    "time": 833.8141620000112,
                    "velocity": 0.5826771653543307,
                    "duration": 0.6185564999999542
                },
                {
                    "name": "D4",
                    "midi": 62,
                    "time": 834.4327185000111,
                    "velocity": 0.4251968503937008,
                    "duration": 0.3118555687500475
                },
                {
                    "name": "D5",
                    "midi": 74,
                    "time": 834.4327185000111,
                    "velocity": 0.5039370078740157,
                    "duration": 0.3118555687500475
                },
                {
                    "name": "D4",
                    "midi": 62,
                    "time": 835.0512750000112,
                    "velocity": 0.4409448818897638,
                    "duration": 0.3118555687500475
                },
                {
                    "name": "D5",
                    "midi": 74,
                    "time": 835.0512750000112,
                    "velocity": 0.5275590551181102,
                    "duration": 0.3118555687500475
                },
                {
                    "name": "D5",
                    "midi": 74,
                    "time": 835.6698315000112,
                    "velocity": 0.5039370078740157,
                    "duration": 0.3118555687500475
                },
                {
                    "name": "D4",
                    "midi": 62,
                    "time": 835.6698315000112,
                    "velocity": 0.4251968503937008,
                    "duration": 0.3118555687500475
                },
                {
                    "name": "D#4",
                    "midi": 63,
                    "time": 836.2883880000113,
                    "velocity": 0.4566929133858268,
                    "duration": 0.6185564999999542
                },
                {
                    "name": "D#5",
                    "midi": 75,
                    "time": 836.2883880000113,
                    "velocity": 0.5433070866141733,
                    "duration": 0.6185564999999542
                },
                {
                    "name": "D5",
                    "midi": 74,
                    "time": 836.9069445000113,
                    "velocity": 0.47244094488188976,
                    "duration": 0.4639173750000509
                },
                {
                    "name": "D4",
                    "midi": 62,
                    "time": 836.9069445000113,
                    "velocity": 0.3937007874015748,
                    "duration": 0.4639173750000509
                },
                {
                    "name": "D4",
                    "midi": 62,
                    "time": 837.5255010000113,
                    "velocity": 0.4566929133858268,
                    "duration": 0.6185564999999542
                },
                {
                    "name": "D5",
                    "midi": 74,
                    "time": 837.5255010000113,
                    "velocity": 0.5433070866141733,
                    "duration": 0.6185564999999542
                },
                {
                    "name": "C#5",
                    "midi": 73,
                    "time": 838.1440575000113,
                    "velocity": 0.47244094488188976,
                    "duration": 0.4639173750000509
                },
                {
                    "name": "C#4",
                    "midi": 61,
                    "time": 838.1440575000113,
                    "velocity": 0.3937007874015748,
                    "duration": 0.4639173750000509
                },
                {
                    "name": "C#5",
                    "midi": 73,
                    "time": 838.7626140000114,
                    "velocity": 0.5354330708661418,
                    "duration": 0.6185564999999542
                },
                {
                    "name": "C#4",
                    "midi": 61,
                    "time": 838.7626140000114,
                    "velocity": 0.4566929133858268,
                    "duration": 0.6185564999999542
                },
                {
                    "name": "D4",
                    "midi": 62,
                    "time": 839.3811705000113,
                    "velocity": 0.3700787401574803,
                    "duration": 0.4639173750000509
                },
                {
                    "name": "D5",
                    "midi": 74,
                    "time": 839.3811705000113,
                    "velocity": 0.4409448818897638,
                    "duration": 0.4639173750000509
                },
                {
                    "name": "D5",
                    "midi": 74,
                    "time": 839.9997270000114,
                    "velocity": 0.4881889763779528,
                    "duration": 0.6185564999999542
                },
                {
                    "name": "D4",
                    "midi": 62,
                    "time": 839.9997270000114,
                    "velocity": 0.4094488188976378,
                    "duration": 0.6185564999999542
                },
                {
                    "name": "A3",
                    "midi": 57,
                    "time": 840.6182835000113,
                    "velocity": 0.3700787401574803,
                    "duration": 0.4639173750000509
                },
                {
                    "name": "A4",
                    "midi": 69,
                    "time": 840.6182835000113,
                    "velocity": 0.4409448818897638,
                    "duration": 0.4639173750000509
                },
                {
                    "name": "G4",
                    "midi": 67,
                    "time": 841.2368400000114,
                    "velocity": 0.44881889763779526,
                    "duration": 0.6185564999999542
                },
                {
                    "name": "G3",
                    "midi": 55,
                    "time": 841.2368400000114,
                    "velocity": 0.3858267716535433,
                    "duration": 0.6185564999999542
                },
                {
                    "name": "F#4",
                    "midi": 66,
                    "time": 841.8553965000114,
                    "velocity": 0.3937007874015748,
                    "duration": 0.4639173750000509
                },
                {
                    "name": "F#3",
                    "midi": 54,
                    "time": 841.8553965000114,
                    "velocity": 0.33070866141732286,
                    "duration": 0.4639173750000509
                },
                {
                    "name": "F#4",
                    "midi": 66,
                    "time": 842.4739530000114,
                    "velocity": 0.3858267716535433,
                    "duration": 0.6185564999999542
                },
                {
                    "name": "F#3",
                    "midi": 54,
                    "time": 842.4739530000114,
                    "velocity": 0.3228346456692913,
                    "duration": 0.6185564999999542
                },
                {
                    "name": "E4",
                    "midi": 64,
                    "time": 843.0925095000114,
                    "velocity": 0.3779527559055118,
                    "duration": 0.4639173750000509
                },
                {
                    "name": "E3",
                    "midi": 52,
                    "time": 843.0925095000114,
                    "velocity": 0.31496062992125984,
                    "duration": 0.4639173750000509
                },
                {
                    "name": "E3",
                    "midi": 52,
                    "time": 843.7110660000114,
                    "velocity": 0.33858267716535434,
                    "duration": 0.6185564999999542
                },
                {
                    "name": "E4",
                    "midi": 64,
                    "time": 843.7110660000114,
                    "velocity": 0.4015748031496063,
                    "duration": 0.6185564999999542
                },
                {
                    "name": "D4",
                    "midi": 62,
                    "time": 844.3296225000114,
                    "velocity": 0.33858267716535434,
                    "duration": 0.3118555687500475
                },
                {
                    "name": "D3",
                    "midi": 50,
                    "time": 844.3296225000114,
                    "velocity": 0.28346456692913385,
                    "duration": 0.3118555687500475
                },
                {
                    "name": "D3",
                    "midi": 50,
                    "time": 844.9481790000115,
                    "velocity": 0.28346456692913385,
                    "duration": 0.3118555687500475
                },
                {
                    "name": "D4",
                    "midi": 62,
                    "time": 844.9481790000115,
                    "velocity": 0.3464566929133858,
                    "duration": 0.3118555687500475
                },
                {
                    "name": "D4",
                    "midi": 62,
                    "time": 845.5667355000115,
                    "velocity": 0.3228346456692913,
                    "duration": 0.3118555687500475
                },
                {
                    "name": "D3",
                    "midi": 50,
                    "time": 845.5667355000115,
                    "velocity": 0.2755905511811024,
                    "duration": 0.3118555687500475
                },
                {
                    "name": "D3",
                    "midi": 50,
                    "time": 846.1852920000116,
                    "velocity": 0.25196850393700787,
                    "duration": 0.3118555687500475
                },
                {
                    "name": "D4",
                    "midi": 62,
                    "time": 846.1852920000116,
                    "velocity": 0.30708661417322836,
                    "duration": 0.3118555687500475
                },
                {
                    "name": "D4",
                    "midi": 62,
                    "time": 846.8038485000117,
                    "velocity": 0.28346456692913385,
                    "duration": 0.3118555687500475
                },
                {
                    "name": "D3",
                    "midi": 50,
                    "time": 846.8038485000117,
                    "velocity": 0.2440944881889764,
                    "duration": 0.3118555687500475
                },
                {
                    "name": "D4",
                    "midi": 62,
                    "time": 847.4224050000117,
                    "velocity": 0.30708661417322836,
                    "duration": 0.3118555687500475
                },
                {
                    "name": "D3",
                    "midi": 50,
                    "time": 847.4224050000117,
                    "velocity": 0.25196850393700787,
                    "duration": 0.3118555687500475
                },
                {
                    "name": "D3",
                    "midi": 50,
                    "time": 848.0409615000118,
                    "velocity": 0.2440944881889764,
                    "duration": 0.3118555687500475
                },
                {
                    "name": "D4",
                    "midi": 62,
                    "time": 848.0409615000118,
                    "velocity": 0.28346456692913385,
                    "duration": 0.3118555687500475
                },
                {
                    "name": "D3",
                    "midi": 50,
                    "time": 848.6595180000119,
                    "velocity": 0.25196850393700787,
                    "duration": 0.3118555687500475
                },
                {
                    "name": "D4",
                    "midi": 62,
                    "time": 848.6595180000119,
                    "velocity": 0.30708661417322836,
                    "duration": 0.3118555687500475
                },
                {
                    "name": "D3",
                    "midi": 50,
                    "time": 849.2780745000119,
                    "velocity": 0.2440944881889764,
                    "duration": 0.3118555687500475
                },
                {
                    "name": "D4",
                    "midi": 62,
                    "time": 849.2780745000119,
                    "velocity": 0.28346456692913385,
                    "duration": 0.3118555687500475
                },
                {
                    "name": "D4",
                    "midi": 62,
                    "time": 849.896631000012,
                    "velocity": 0.30708661417322836,
                    "duration": 0.3118555687500475
                },
                {
                    "name": "D3",
                    "midi": 50,
                    "time": 849.896631000012,
                    "velocity": 0.25196850393700787,
                    "duration": 0.3118555687500475
                },
                {
                    "name": "D4",
                    "midi": 62,
                    "time": 850.5151875000121,
                    "velocity": 0.28346456692913385,
                    "duration": 0.3118555687500475
                },
                {
                    "name": "D3",
                    "midi": 50,
                    "time": 850.5151875000121,
                    "velocity": 0.2440944881889764,
                    "duration": 0.3118555687500475
                },
                {
                    "name": "A#3",
                    "midi": 58,
                    "time": 851.1337440000121,
                    "velocity": 0.16535433070866143,
                    "duration": 0.6185564999999542
                },
                {
                    "name": "C#4",
                    "midi": 61,
                    "time": 851.1337440000121,
                    "velocity": 0.25984251968503935,
                    "duration": 0.6185564999999542
                },
                {
                    "name": "E3",
                    "midi": 52,
                    "time": 851.1337440000121,
                    "velocity": 0.16535433070866143,
                    "duration": 0.6185564999999542
                },
                {
                    "name": "G3",
                    "midi": 55,
                    "time": 851.1337440000121,
                    "velocity": 0.16535433070866143,
                    "duration": 0.6185564999999542
                },
                {
                    "name": "E3",
                    "midi": 52,
                    "time": 851.7523005000121,
                    "velocity": 0.16535433070866143,
                    "duration": 0.30927825000003395
                },
                {
                    "name": "G3",
                    "midi": 55,
                    "time": 851.7523005000121,
                    "velocity": 0.16535433070866143,
                    "duration": 0.30927825000003395
                },
                {
                    "name": "A#3",
                    "midi": 58,
                    "time": 851.7523005000121,
                    "velocity": 0.16535433070866143,
                    "duration": 0.30927825000003395
                },
                {
                    "name": "C4",
                    "midi": 60,
                    "time": 851.7523005000121,
                    "velocity": 0.23622047244094488,
                    "duration": 0.3118555687500475
                },
                {
                    "name": "C4",
                    "midi": 60,
                    "time": 852.3708570000122,
                    "velocity": 0.25984251968503935,
                    "duration": 0.3118555687500475
                },
                {
                    "name": "G3",
                    "midi": 55,
                    "time": 852.3708570000122,
                    "velocity": 0.16535433070866143,
                    "duration": 0.30927825000003395
                },
                {
                    "name": "A#3",
                    "midi": 58,
                    "time": 852.3708570000122,
                    "velocity": 0.16535433070866143,
                    "duration": 0.3118555687500475
                },
                {
                    "name": "E3",
                    "midi": 52,
                    "time": 852.3708570000122,
                    "velocity": 0.16535433070866143,
                    "duration": 0.30927825000003395
                },
                {
                    "name": "A#3",
                    "midi": 58,
                    "time": 852.9894135000122,
                    "velocity": 0.15748031496062992,
                    "duration": 0.3118555687500475
                },
                {
                    "name": "C4",
                    "midi": 60,
                    "time": 852.9894135000122,
                    "velocity": 0.23622047244094488,
                    "duration": 0.3118555687500475
                },
                {
                    "name": "G3",
                    "midi": 55,
                    "time": 852.9894135000122,
                    "velocity": 0.15748031496062992,
                    "duration": 0.30927825000003395
                },
                {
                    "name": "E3",
                    "midi": 52,
                    "time": 852.9894135000122,
                    "velocity": 0.15748031496062992,
                    "duration": 0.30927825000003395
                },
                {
                    "name": "A#3",
                    "midi": 58,
                    "time": 853.6079700000123,
                    "velocity": 0.16535433070866143,
                    "duration": 0.3118555687500475
                },
                {
                    "name": "E3",
                    "midi": 52,
                    "time": 853.6079700000123,
                    "velocity": 0.16535433070866143,
                    "duration": 0.30927825000003395
                },
                {
                    "name": "C4",
                    "midi": 60,
                    "time": 853.6079700000123,
                    "velocity": 0.25984251968503935,
                    "duration": 0.3118555687500475
                },
                {
                    "name": "G3",
                    "midi": 55,
                    "time": 853.6079700000123,
                    "velocity": 0.16535433070866143,
                    "duration": 0.30927825000003395
                },
                {
                    "name": "G3",
                    "midi": 55,
                    "time": 854.2265265000124,
                    "velocity": 0.15748031496062992,
                    "duration": 0.30927825000003395
                },
                {
                    "name": "E3",
                    "midi": 52,
                    "time": 854.2265265000124,
                    "velocity": 0.15748031496062992,
                    "duration": 0.30927825000003395
                },
                {
                    "name": "A#3",
                    "midi": 58,
                    "time": 854.2265265000124,
                    "velocity": 0.15748031496062992,
                    "duration": 0.3118555687500475
                },
                {
                    "name": "C4",
                    "midi": 60,
                    "time": 854.2265265000124,
                    "velocity": 0.23622047244094488,
                    "duration": 0.3118555687500475
                },
                {
                    "name": "G3",
                    "midi": 55,
                    "time": 854.8450830000124,
                    "velocity": 0.16535433070866143,
                    "duration": 0.30927825000003395
                },
                {
                    "name": "E3",
                    "midi": 52,
                    "time": 854.8450830000124,
                    "velocity": 0.16535433070866143,
                    "duration": 0.30927825000003395
                },
                {
                    "name": "A#3",
                    "midi": 58,
                    "time": 854.8450830000124,
                    "velocity": 0.16535433070866143,
                    "duration": 0.3118555687500475
                },
                {
                    "name": "C4",
                    "midi": 60,
                    "time": 854.8450830000124,
                    "velocity": 0.25984251968503935,
                    "duration": 0.3118555687500475
                },
                {
                    "name": "E3",
                    "midi": 52,
                    "time": 855.4636395000125,
                    "velocity": 0.15748031496062992,
                    "duration": 0.30927825000003395
                },
                {
                    "name": "C4",
                    "midi": 60,
                    "time": 855.4636395000125,
                    "velocity": 0.23622047244094488,
                    "duration": 0.3118555687500475
                },
                {
                    "name": "G3",
                    "midi": 55,
                    "time": 855.4636395000125,
                    "velocity": 0.15748031496062992,
                    "duration": 0.30927825000003395
                },
                {
                    "name": "A#3",
                    "midi": 58,
                    "time": 855.4636395000125,
                    "velocity": 0.15748031496062992,
                    "duration": 0.3118555687500475
                },
                {
                    "name": "F3",
                    "midi": 53,
                    "time": 856.0821960000126,
                    "velocity": 0.2204724409448819,
                    "duration": 0.6185564999999542
                },
                {
                    "name": "C4",
                    "midi": 60,
                    "time": 856.0821960000126,
                    "velocity": 0.2755905511811024,
                    "duration": 0.6185564999999542
                },
                {
                    "name": "A3",
                    "midi": 57,
                    "time": 856.0821960000126,
                    "velocity": 0.2204724409448819,
                    "duration": 0.6185564999999542
                },
                {
                    "name": "F4",
                    "midi": 65,
                    "time": 856.7007525000125,
                    "velocity": 0.18110236220472442,
                    "duration": 0.4639173750000509
                },
                {
                    "name": "A4",
                    "midi": 69,
                    "time": 856.7007525000125,
                    "velocity": 0.2283464566929134,
                    "duration": 0.4639173750000509
                },
                {
                    "name": "C4",
                    "midi": 60,
                    "time": 856.7007525000125,
                    "velocity": 0.18110236220472442,
                    "duration": 0.4639173750000509
                },
                {
                    "name": "F4",
                    "midi": 65,
                    "time": 857.3193090000126,
                    "velocity": 0.18110236220472442,
                    "duration": 0.4639173750000509
                },
                {
                    "name": "A4",
                    "midi": 69,
                    "time": 857.3193090000126,
                    "velocity": 0.2283464566929134,
                    "duration": 0.4639173750000509
                },
                {
                    "name": "C4",
                    "midi": 60,
                    "time": 857.3193090000126,
                    "velocity": 0.18110236220472442,
                    "duration": 0.4639173750000509
                },
                {
                    "name": "F4",
                    "midi": 65,
                    "time": 857.9378655000127,
                    "velocity": 0.18110236220472442,
                    "duration": 0.4639173750000509
                },
                {
                    "name": "A4",
                    "midi": 69,
                    "time": 857.9378655000127,
                    "velocity": 0.2283464566929134,
                    "duration": 0.4639173750000509
                },
                {
                    "name": "C4",
                    "midi": 60,
                    "time": 857.9378655000127,
                    "velocity": 0.18110236220472442,
                    "duration": 0.4639173750000509
                },
                {
                    "name": "F4",
                    "midi": 65,
                    "time": 858.5564220000127,
                    "velocity": 0.2047244094488189,
                    "duration": 0.6185564999999542
                },
                {
                    "name": "G#4",
                    "midi": 68,
                    "time": 858.5564220000127,
                    "velocity": 0.25984251968503935,
                    "duration": 0.6185564999999542
                },
                {
                    "name": "B3",
                    "midi": 59,
                    "time": 858.5564220000127,
                    "velocity": 0.2047244094488189,
                    "duration": 0.6185564999999542
                },
                {
                    "name": "A4",
                    "midi": 69,
                    "time": 859.1749785000127,
                    "velocity": 0.2204724409448819,
                    "duration": 0.4639173750000509
                },
                {
                    "name": "F4",
                    "midi": 65,
                    "time": 859.1749785000127,
                    "velocity": 0.1732283464566929,
                    "duration": 0.4639173750000509
                },
                {
                    "name": "C4",
                    "midi": 60,
                    "time": 859.1749785000127,
                    "velocity": 0.1732283464566929,
                    "duration": 0.4639173750000509
                },
                {
                    "name": "F4",
                    "midi": 65,
                    "time": 859.7935350000128,
                    "velocity": 0.1889763779527559,
                    "duration": 0.4639173750000509
                },
                {
                    "name": "A4",
                    "midi": 69,
                    "time": 859.7935350000128,
                    "velocity": 0.2440944881889764,
                    "duration": 0.4639173750000509
                },
                {
                    "name": "C4",
                    "midi": 60,
                    "time": 859.7935350000128,
                    "velocity": 0.1889763779527559,
                    "duration": 0.4639173750000509
                },
                {
                    "name": "A4",
                    "midi": 69,
                    "time": 860.4120915000128,
                    "velocity": 0.2677165354330709,
                    "duration": 0.4639173750000509
                },
                {
                    "name": "F4",
                    "midi": 65,
                    "time": 860.4120915000128,
                    "velocity": 0.2125984251968504,
                    "duration": 0.4639173750000509
                },
                {
                    "name": "C4",
                    "midi": 60,
                    "time": 860.4120915000128,
                    "velocity": 0.2125984251968504,
                    "duration": 0.4639173750000509
                },
                {
                    "name": "C5",
                    "midi": 72,
                    "time": 861.0306480000129,
                    "velocity": 0.2992125984251969,
                    "duration": 0.6185564999999542
                },
                {
                    "name": "F4",
                    "midi": 65,
                    "time": 861.0306480000129,
                    "velocity": 0.23622047244094488,
                    "duration": 0.6185564999999542
                },
                {
                    "name": "D#4",
                    "midi": 63,
                    "time": 861.0306480000129,
                    "velocity": 0.23622047244094488,
                    "duration": 0.6185564999999542
                },
                {
                    "name": "A#4",
                    "midi": 70,
                    "time": 861.6492045000128,
                    "velocity": 0.25196850393700787,
                    "duration": 0.4639173750000509
                },
                {
                    "name": "D4",
                    "midi": 62,
                    "time": 861.6492045000128,
                    "velocity": 0.1968503937007874,
                    "duration": 0.4639173750000509
                },
                {
                    "name": "F4",
                    "midi": 65,
                    "time": 861.6492045000128,
                    "velocity": 0.1968503937007874,
                    "duration": 0.4639173750000509
                },
                {
                    "name": "F4",
                    "midi": 65,
                    "time": 862.2677610000129,
                    "velocity": 0.1968503937007874,
                    "duration": 0.4639173750000509
                },
                {
                    "name": "D4",
                    "midi": 62,
                    "time": 862.2677610000129,
                    "velocity": 0.1968503937007874,
                    "duration": 0.4639173750000509
                },
                {
                    "name": "A#4",
                    "midi": 70,
                    "time": 862.2677610000129,
                    "velocity": 0.25196850393700787,
                    "duration": 0.4639173750000509
                },
                {
                    "name": "D4",
                    "midi": 62,
                    "time": 862.886317500013,
                    "velocity": 0.1968503937007874,
                    "duration": 0.4639173750000509
                },
                {
                    "name": "A#4",
                    "midi": 70,
                    "time": 862.886317500013,
                    "velocity": 0.25196850393700787,
                    "duration": 0.4639173750000509
                },
                {
                    "name": "F4",
                    "midi": 65,
                    "time": 862.886317500013,
                    "velocity": 0.1968503937007874,
                    "duration": 0.4639173750000509
                },
                {
                    "name": "A#4",
                    "midi": 70,
                    "time": 863.504874000013,
                    "velocity": 0.25984251968503935,
                    "duration": 0.6185564999999542
                },
                {
                    "name": "F4",
                    "midi": 65,
                    "time": 863.504874000013,
                    "velocity": 0.2047244094488189,
                    "duration": 0.6185564999999542
                },
                {
                    "name": "D4",
                    "midi": 62,
                    "time": 863.504874000013,
                    "velocity": 0.15748031496062992,
                    "duration": 0.6185564999999542
                },
                {
                    "name": "A4",
                    "midi": 69,
                    "time": 864.123430500013,
                    "velocity": 0.23622047244094488,
                    "duration": 0.6185564999999542
                },
                {
                    "name": "C4",
                    "midi": 60,
                    "time": 864.123430500013,
                    "velocity": 0.1889763779527559,
                    "duration": 0.6185564999999542
                },
                {
                    "name": "D4",
                    "midi": 62,
                    "time": 864.123430500013,
                    "velocity": 0.1889763779527559,
                    "duration": 0.6185564999999542
                },
                {
                    "name": "G4",
                    "midi": 67,
                    "time": 864.741987000013,
                    "velocity": 0.23622047244094488,
                    "duration": 0.6185564999999542
                },
                {
                    "name": "A#3",
                    "midi": 58,
                    "time": 864.741987000013,
                    "velocity": 0.1889763779527559,
                    "duration": 0.6185564999999542
                },
                {
                    "name": "D4",
                    "midi": 62,
                    "time": 864.741987000013,
                    "velocity": 0.1889763779527559,
                    "duration": 0.6185564999999542
                },
                {
                    "name": "D4",
                    "midi": 62,
                    "time": 865.3605435000129,
                    "velocity": 0.1889763779527559,
                    "duration": 0.6185564999999542
                },
                {
                    "name": "F4",
                    "midi": 65,
                    "time": 865.3605435000129,
                    "velocity": 0.23622047244094488,
                    "duration": 0.6185564999999542
                },
                {
                    "name": "A3",
                    "midi": 57,
                    "time": 865.3605435000129,
                    "velocity": 0.1889763779527559,
                    "duration": 0.6185564999999542
                },
                {
                    "name": "A3",
                    "midi": 57,
                    "time": 865.9791000000129,
                    "velocity": 0.2204724409448819,
                    "duration": 0.6185564999999542
                },
                {
                    "name": "F4",
                    "midi": 65,
                    "time": 865.9791000000129,
                    "velocity": 0.2755905511811024,
                    "duration": 0.6185564999999542
                },
                {
                    "name": "C4",
                    "midi": 60,
                    "time": 865.9791000000129,
                    "velocity": 0.2204724409448819,
                    "duration": 0.6185564999999542
                },
                {
                    "name": "E4",
                    "midi": 64,
                    "time": 866.5976565000128,
                    "velocity": 0.2283464566929134,
                    "duration": 0.4639173750000509
                },
                {
                    "name": "G3",
                    "midi": 55,
                    "time": 866.5976565000128,
                    "velocity": 0.18110236220472442,
                    "duration": 0.4639173750000509
                },
                {
                    "name": "C4",
                    "midi": 60,
                    "time": 866.5976565000128,
                    "velocity": 0.18110236220472442,
                    "duration": 0.4639173750000509
                },
                {
                    "name": "E4",
                    "midi": 64,
                    "time": 867.2162130000129,
                    "velocity": 0.2283464566929134,
                    "duration": 0.4639173750000509
                },
                {
                    "name": "G3",
                    "midi": 55,
                    "time": 867.2162130000129,
                    "velocity": 0.18110236220472442,
                    "duration": 0.4639173750000509
                },
                {
                    "name": "C4",
                    "midi": 60,
                    "time": 867.2162130000129,
                    "velocity": 0.18110236220472442,
                    "duration": 0.4639173750000509
                },
                {
                    "name": "E4",
                    "midi": 64,
                    "time": 867.834769500013,
                    "velocity": 0.2283464566929134,
                    "duration": 0.4639173750000509
                },
                {
                    "name": "G3",
                    "midi": 55,
                    "time": 867.834769500013,
                    "velocity": 0.18110236220472442,
                    "duration": 0.4639173750000509
                },
                {
                    "name": "C4",
                    "midi": 60,
                    "time": 867.834769500013,
                    "velocity": 0.18110236220472442,
                    "duration": 0.4639173750000509
                },
                {
                    "name": "C4",
                    "midi": 60,
                    "time": 868.453326000013,
                    "velocity": 0.2047244094488189,
                    "duration": 0.4639173750000509
                },
                {
                    "name": "E4",
                    "midi": 64,
                    "time": 868.453326000013,
                    "velocity": 0.25984251968503935,
                    "duration": 0.4639173750000509
                },
                {
                    "name": "G3",
                    "midi": 55,
                    "time": 868.453326000013,
                    "velocity": 0.2047244094488189,
                    "duration": 0.4639173750000509
                },
                {
                    "name": "C4",
                    "midi": 60,
                    "time": 869.0718825000131,
                    "velocity": 0.1732283464566929,
                    "duration": 0.4639173750000509
                },
                {
                    "name": "E4",
                    "midi": 64,
                    "time": 869.0718825000131,
                    "velocity": 0.2204724409448819,
                    "duration": 0.4639173750000509
                },
                {
                    "name": "G3",
                    "midi": 55,
                    "time": 869.0718825000131,
                    "velocity": 0.1732283464566929,
                    "duration": 0.4639173750000509
                },
                {
                    "name": "C4",
                    "midi": 60,
                    "time": 869.6904390000132,
                    "velocity": 0.1889763779527559,
                    "duration": 0.6185564999999542
                },
                {
                    "name": "F4",
                    "midi": 65,
                    "time": 869.6904390000132,
                    "velocity": 0.2440944881889764,
                    "duration": 0.6185564999999542
                },
                {
                    "name": "A3",
                    "midi": 57,
                    "time": 869.6904390000132,
                    "velocity": 0.1889763779527559,
                    "duration": 0.6185564999999542
                },
                {
                    "name": "A#3",
                    "midi": 58,
                    "time": 870.3089955000131,
                    "velocity": 0.2125984251968504,
                    "duration": 0.6185564999999542
                },
                {
                    "name": "G4",
                    "midi": 67,
                    "time": 870.3089955000131,
                    "velocity": 0.2677165354330709,
                    "duration": 0.6185564999999542
                },
                {
                    "name": "C4",
                    "midi": 60,
                    "time": 870.3089955000131,
                    "velocity": 0.2125984251968504,
                    "duration": 0.6185564999999542
                },
                {
                    "name": "C4",
                    "midi": 60,
                    "time": 870.9275520000131,
                    "velocity": 0.2992125984251969,
                    "duration": 0.6185564999999542
                },
                {
                    "name": "A#3",
                    "midi": 58,
                    "time": 870.9275520000131,
                    "velocity": 0.23622047244094488,
                    "duration": 0.6185564999999542
                },
                {
                    "name": "C4",
                    "midi": 60,
                    "time": 871.546108500013,
                    "velocity": 0.1968503937007874,
                    "duration": 0.4639173750000509
                },
                {
                    "name": "F4",
                    "midi": 65,
                    "time": 871.546108500013,
                    "velocity": 0.25196850393700787,
                    "duration": 0.4639173750000509
                },
                {
                    "name": "A3",
                    "midi": 57,
                    "time": 871.546108500013,
                    "velocity": 0.1968503937007874,
                    "duration": 0.4639173750000509
                },
                {
                    "name": "A3",
                    "midi": 57,
                    "time": 872.1646650000131,
                    "velocity": 0.1968503937007874,
                    "duration": 0.4639173750000509
                },
                {
                    "name": "F4",
                    "midi": 65,
                    "time": 872.1646650000131,
                    "velocity": 0.25196850393700787,
                    "duration": 0.4639173750000509
                },
                {
                    "name": "C4",
                    "midi": 60,
                    "time": 872.1646650000131,
                    "velocity": 0.1968503937007874,
                    "duration": 0.4639173750000509
                },
                {
                    "name": "C4",
                    "midi": 60,
                    "time": 872.7832215000132,
                    "velocity": 0.1968503937007874,
                    "duration": 0.4639173750000509
                },
                {
                    "name": "F4",
                    "midi": 65,
                    "time": 872.7832215000132,
                    "velocity": 0.25196850393700787,
                    "duration": 0.4639173750000509
                },
                {
                    "name": "A3",
                    "midi": 57,
                    "time": 872.7832215000132,
                    "velocity": 0.1968503937007874,
                    "duration": 0.4639173750000509
                },
                {
                    "name": "A3",
                    "midi": 57,
                    "time": 873.4017780000132,
                    "velocity": 0.15748031496062992,
                    "duration": 0.4639173750000509
                },
                {
                    "name": "C4",
                    "midi": 60,
                    "time": 873.4017780000132,
                    "velocity": 0.2047244094488189,
                    "duration": 0.4639173750000509
                },
                {
                    "name": "F4",
                    "midi": 65,
                    "time": 873.4017780000132,
                    "velocity": 0.25984251968503935,
                    "duration": 0.4639173750000509
                },
                {
                    "name": "F4",
                    "midi": 65,
                    "time": 874.0203345000133,
                    "velocity": 0.23622047244094488,
                    "duration": 0.4639173750000509
                },
                {
                    "name": "C4",
                    "midi": 60,
                    "time": 874.0203345000133,
                    "velocity": 0.1889763779527559,
                    "duration": 0.4639173750000509
                },
                {
                    "name": "A3",
                    "midi": 57,
                    "time": 874.0203345000133,
                    "velocity": 0.1889763779527559,
                    "duration": 0.4639173750000509
                },
                {
                    "name": "F4",
                    "midi": 65,
                    "time": 874.6388910000134,
                    "velocity": 0.23622047244094488,
                    "duration": 0.9278347499999882
                },
                {
                    "name": "C4",
                    "midi": 60,
                    "time": 874.7935301250134,
                    "velocity": 0.2755905511811024,
                    "duration": 0.7731956249999712
                },
                {
                    "name": "A4",
                    "midi": 69,
                    "time": 874.7935301250134,
                    "velocity": 0.33070866141732286,
                    "duration": 0.7731956249999712
                },
                {
                    "name": "C4",
                    "midi": 60,
                    "time": 875.5667257500133,
                    "velocity": 0.1889763779527559,
                    "duration": 0.30927825000003395
                },
                {
                    "name": "F4",
                    "midi": 65,
                    "time": 875.5667257500133,
                    "velocity": 0.23622047244094488,
                    "duration": 0.30927825000003395
                },
                {
                    "name": "A3",
                    "midi": 57,
                    "time": 875.5667257500133,
                    "velocity": 0.1889763779527559,
                    "duration": 0.30927825000003395
                },
                {
                    "name": "A3",
                    "midi": 57,
                    "time": 875.8760040000134,
                    "velocity": 0.2204724409448819,
                    "duration": 0.6185564999999542
                },
                {
                    "name": "C4",
                    "midi": 60,
                    "time": 875.8760040000134,
                    "velocity": 0.2204724409448819,
                    "duration": 0.6185564999999542
                },
                {
                    "name": "F4",
                    "midi": 65,
                    "time": 875.8760040000134,
                    "velocity": 0.2755905511811024,
                    "duration": 0.6185564999999542
                },
                {
                    "name": "G3",
                    "midi": 55,
                    "time": 876.4945605000133,
                    "velocity": 0.18110236220472442,
                    "duration": 0.4639173750000509
                },
                {
                    "name": "E4",
                    "midi": 64,
                    "time": 876.4945605000133,
                    "velocity": 0.2283464566929134,
                    "duration": 0.4639173750000509
                },
                {
                    "name": "C4",
                    "midi": 60,
                    "time": 876.4945605000133,
                    "velocity": 0.18110236220472442,
                    "duration": 0.4639173750000509
                },
                {
                    "name": "C4",
                    "midi": 60,
                    "time": 877.1131170000134,
                    "velocity": 0.18110236220472442,
                    "duration": 0.4639173750000509
                },
                {
                    "name": "G3",
                    "midi": 55,
                    "time": 877.1131170000134,
                    "velocity": 0.18110236220472442,
                    "duration": 0.4639173750000509
                },
                {
                    "name": "E4",
                    "midi": 64,
                    "time": 877.1131170000134,
                    "velocity": 0.2283464566929134,
                    "duration": 0.4639173750000509
                },
                {
                    "name": "E4",
                    "midi": 64,
                    "time": 877.7316735000135,
                    "velocity": 0.2283464566929134,
                    "duration": 0.4639173750000509
                },
                {
                    "name": "G3",
                    "midi": 55,
                    "time": 877.7316735000135,
                    "velocity": 0.18110236220472442,
                    "duration": 0.4639173750000509
                },
                {
                    "name": "C4",
                    "midi": 60,
                    "time": 877.7316735000135,
                    "velocity": 0.18110236220472442,
                    "duration": 0.4639173750000509
                },
                {
                    "name": "G3",
                    "midi": 55,
                    "time": 878.3502300000135,
                    "velocity": 0.2047244094488189,
                    "duration": 0.4639173750000509
                },
                {
                    "name": "E4",
                    "midi": 64,
                    "time": 878.3502300000135,
                    "velocity": 0.25984251968503935,
                    "duration": 0.4639173750000509
                },
                {
                    "name": "C4",
                    "midi": 60,
                    "time": 878.3502300000135,
                    "velocity": 0.2047244094488189,
                    "duration": 0.4639173750000509
                },
                {
                    "name": "E4",
                    "midi": 64,
                    "time": 878.9687865000136,
                    "velocity": 0.2204724409448819,
                    "duration": 0.4639173750000509
                },
                {
                    "name": "C4",
                    "midi": 60,
                    "time": 878.9687865000136,
                    "velocity": 0.1732283464566929,
                    "duration": 0.4639173750000509
                },
                {
                    "name": "G3",
                    "midi": 55,
                    "time": 878.9687865000136,
                    "velocity": 0.1732283464566929,
                    "duration": 0.4639173750000509
                },
                {
                    "name": "A3",
                    "midi": 57,
                    "time": 879.5873430000137,
                    "velocity": 0.1889763779527559,
                    "duration": 0.6185564999999542
                },
                {
                    "name": "C4",
                    "midi": 60,
                    "time": 879.5873430000137,
                    "velocity": 0.1889763779527559,
                    "duration": 0.6185564999999542
                },
                {
                    "name": "F4",
                    "midi": 65,
                    "time": 879.5873430000137,
                    "velocity": 0.2440944881889764,
                    "duration": 0.6185564999999542
                },
                {
                    "name": "G4",
                    "midi": 67,
                    "time": 880.2058995000136,
                    "velocity": 0.2677165354330709,
                    "duration": 0.6185564999999542
                },
                {
                    "name": "A#3",
                    "midi": 58,
                    "time": 880.2058995000136,
                    "velocity": 0.2125984251968504,
                    "duration": 0.6185564999999542
                },
                {
                    "name": "C4",
                    "midi": 60,
                    "time": 880.2058995000136,
                    "velocity": 0.2125984251968504,
                    "duration": 0.6185564999999542
                },
                {
                    "name": "A#3",
                    "midi": 58,
                    "time": 880.8244560000136,
                    "velocity": 0.23622047244094488,
                    "duration": 0.6185564999999542
                },
                {
                    "name": "C4",
                    "midi": 60,
                    "time": 880.8244560000136,
                    "velocity": 0.2992125984251969,
                    "duration": 0.6185564999999542
                },
                {
                    "name": "A3",
                    "midi": 57,
                    "time": 881.4430125000135,
                    "velocity": 0.1968503937007874,
                    "duration": 0.4639173750000509
                },
                {
                    "name": "F4",
                    "midi": 65,
                    "time": 881.4430125000135,
                    "velocity": 0.25196850393700787,
                    "duration": 0.4639173750000509
                },
                {
                    "name": "C4",
                    "midi": 60,
                    "time": 881.4430125000135,
                    "velocity": 0.1968503937007874,
                    "duration": 0.4639173750000509
                },
                {
                    "name": "A3",
                    "midi": 57,
                    "time": 882.0615690000136,
                    "velocity": 0.1968503937007874,
                    "duration": 0.4639173750000509
                },
                {
                    "name": "C4",
                    "midi": 60,
                    "time": 882.0615690000136,
                    "velocity": 0.1968503937007874,
                    "duration": 0.4639173750000509
                },
                {
                    "name": "F4",
                    "midi": 65,
                    "time": 882.0615690000136,
                    "velocity": 0.25196850393700787,
                    "duration": 0.4639173750000509
                },
                {
                    "name": "A3",
                    "midi": 57,
                    "time": 882.6801255000137,
                    "velocity": 0.1968503937007874,
                    "duration": 0.4639173750000509
                },
                {
                    "name": "C4",
                    "midi": 60,
                    "time": 882.6801255000137,
                    "velocity": 0.1968503937007874,
                    "duration": 0.4639173750000509
                },
                {
                    "name": "F4",
                    "midi": 65,
                    "time": 882.6801255000137,
                    "velocity": 0.25196850393700787,
                    "duration": 0.4639173750000509
                },
                {
                    "name": "F4",
                    "midi": 65,
                    "time": 883.2986820000137,
                    "velocity": 0.25984251968503935,
                    "duration": 0.4639173750000509
                },
                {
                    "name": "C4",
                    "midi": 60,
                    "time": 883.2986820000137,
                    "velocity": 0.2047244094488189,
                    "duration": 0.4639173750000509
                },
                {
                    "name": "A3",
                    "midi": 57,
                    "time": 883.2986820000137,
                    "velocity": 0.15748031496062992,
                    "duration": 0.4639173750000509
                },
                {
                    "name": "C5",
                    "midi": 72,
                    "time": 883.9172385000138,
                    "velocity": 0.2677165354330709,
                    "duration": 0.6185564999999542
                },
                {
                    "name": "A4",
                    "midi": 69,
                    "time": 883.9172385000138,
                    "velocity": 0.2125984251968504,
                    "duration": 0.6185564999999542
                },
                {
                    "name": "A4",
                    "midi": 69,
                    "time": 884.5357950000138,
                    "velocity": 0.2125984251968504,
                    "duration": 0.6185564999999542
                },
                {
                    "name": "F5",
                    "midi": 77,
                    "time": 884.5357950000138,
                    "velocity": 0.33070866141732286,
                    "duration": 0.6185564999999542
                },
                {
                    "name": "C5",
                    "midi": 72,
                    "time": 884.5357950000138,
                    "velocity": 0.2125984251968504,
                    "duration": 0.6185564999999542
                },
                {
                    "name": "G5",
                    "midi": 79,
                    "time": 885.1543515000137,
                    "velocity": 0.2677165354330709,
                    "duration": 0.6185564999999542
                },
                {
                    "name": "E5",
                    "midi": 76,
                    "time": 885.1543515000137,
                    "velocity": 0.2125984251968504,
                    "duration": 0.6185564999999542
                },
                {
                    "name": "C5",
                    "midi": 72,
                    "time": 885.1543515000137,
                    "velocity": 0.2125984251968504,
                    "duration": 0.6185564999999542
                },
                {
                    "name": "C5",
                    "midi": 72,
                    "time": 886.3914645000136,
                    "velocity": 0.2047244094488189,
                    "duration": 0.4639173750000509
                },
                {
                    "name": "A5",
                    "midi": 81,
                    "time": 886.3914645000136,
                    "velocity": 0.25984251968503935,
                    "duration": 0.4639173750000509
                },
                {
                    "name": "F5",
                    "midi": 77,
                    "time": 886.3914645000136,
                    "velocity": 0.2047244094488189,
                    "duration": 0.4639173750000509
                },
                {
                    "name": "A5",
                    "midi": 81,
                    "time": 887.0100210000137,
                    "velocity": 0.25984251968503935,
                    "duration": 0.4639173750000509
                },
                {
                    "name": "C5",
                    "midi": 72,
                    "time": 887.0100210000137,
                    "velocity": 0.2047244094488189,
                    "duration": 0.4639173750000509
                },
                {
                    "name": "F5",
                    "midi": 77,
                    "time": 887.0100210000137,
                    "velocity": 0.2047244094488189,
                    "duration": 0.4639173750000509
                },
                {
                    "name": "F5",
                    "midi": 77,
                    "time": 887.6285775000138,
                    "velocity": 0.2047244094488189,
                    "duration": 0.4639173750000509
                },
                {
                    "name": "A5",
                    "midi": 81,
                    "time": 887.6285775000138,
                    "velocity": 0.25984251968503935,
                    "duration": 0.4639173750000509
                },
                {
                    "name": "C5",
                    "midi": 72,
                    "time": 887.6285775000138,
                    "velocity": 0.2047244094488189,
                    "duration": 0.4639173750000509
                },
                {
                    "name": "B4",
                    "midi": 71,
                    "time": 888.2471340000138,
                    "velocity": 0.2283464566929134,
                    "duration": 0.6185564999999542
                },
                {
                    "name": "F5",
                    "midi": 77,
                    "time": 888.2471340000138,
                    "velocity": 0.2283464566929134,
                    "duration": 0.6185564999999542
                },
                {
                    "name": "G#5",
                    "midi": 80,
                    "time": 888.2471340000138,
                    "velocity": 0.29133858267716534,
                    "duration": 0.6185564999999542
                },
                {
                    "name": "C5",
                    "midi": 72,
                    "time": 888.8656905000138,
                    "velocity": 0.1968503937007874,
                    "duration": 0.4639173750000509
                },
                {
                    "name": "F5",
                    "midi": 77,
                    "time": 888.8656905000138,
                    "velocity": 0.1968503937007874,
                    "duration": 0.4639173750000509
                },
                {
                    "name": "A5",
                    "midi": 81,
                    "time": 888.8656905000138,
                    "velocity": 0.25196850393700787,
                    "duration": 0.4639173750000509
                },
                {
                    "name": "F5",
                    "midi": 77,
                    "time": 889.4842470000139,
                    "velocity": 0.2125984251968504,
                    "duration": 0.4639173750000509
                },
                {
                    "name": "A5",
                    "midi": 81,
                    "time": 889.4842470000139,
                    "velocity": 0.2755905511811024,
                    "duration": 0.4639173750000509
                },
                {
                    "name": "C5",
                    "midi": 72,
                    "time": 889.4842470000139,
                    "velocity": 0.2125984251968504,
                    "duration": 0.4639173750000509
                },
                {
                    "name": "A5",
                    "midi": 81,
                    "time": 890.1028035000139,
                    "velocity": 0.30708661417322836,
                    "duration": 0.4639173750000509
                },
                {
                    "name": "F5",
                    "midi": 77,
                    "time": 890.1028035000139,
                    "velocity": 0.2440944881889764,
                    "duration": 0.4639173750000509
                },
                {
                    "name": "C5",
                    "midi": 72,
                    "time": 890.1028035000139,
                    "velocity": 0.2440944881889764,
                    "duration": 0.4639173750000509
                },
                {
                    "name": "C6",
                    "midi": 84,
                    "time": 890.721360000014,
                    "velocity": 0.33858267716535434,
                    "duration": 0.6185564999999542
                },
                {
                    "name": "D#5",
                    "midi": 75,
                    "time": 890.721360000014,
                    "velocity": 0.2677165354330709,
                    "duration": 0.6185564999999542
                },
                {
                    "name": "F5",
                    "midi": 77,
                    "time": 890.721360000014,
                    "velocity": 0.2677165354330709,
                    "duration": 0.6185564999999542
                },
                {
                    "name": "D5",
                    "midi": 74,
                    "time": 891.3399165000139,
                    "velocity": 0.2204724409448819,
                    "duration": 0.4639173750000509
                },
                {
                    "name": "A#5",
                    "midi": 82,
                    "time": 891.3399165000139,
                    "velocity": 0.28346456692913385,
                    "duration": 0.4639173750000509
                },
                {
                    "name": "F5",
                    "midi": 77,
                    "time": 891.3399165000139,
                    "velocity": 0.2204724409448819,
                    "duration": 0.4639173750000509
                },
                {
                    "name": "A#5",
                    "midi": 82,
                    "time": 891.958473000014,
                    "velocity": 0.28346456692913385,
                    "duration": 0.4639173750000509
                },
                {
                    "name": "D5",
                    "midi": 74,
                    "time": 891.958473000014,
                    "velocity": 0.2204724409448819,
                    "duration": 0.4639173750000509
                },
                {
                    "name": "F5",
                    "midi": 77,
                    "time": 891.958473000014,
                    "velocity": 0.2204724409448819,
                    "duration": 0.4639173750000509
                },
                {
                    "name": "D5",
                    "midi": 74,
                    "time": 892.5770295000141,
                    "velocity": 0.2204724409448819,
                    "duration": 0.4639173750000509
                },
                {
                    "name": "F5",
                    "midi": 77,
                    "time": 892.5770295000141,
                    "velocity": 0.2204724409448819,
                    "duration": 0.4639173750000509
                },
                {
                    "name": "A#5",
                    "midi": 82,
                    "time": 892.5770295000141,
                    "velocity": 0.28346456692913385,
                    "duration": 0.4639173750000509
                },
                {
                    "name": "F5",
                    "midi": 77,
                    "time": 893.1955860000141,
                    "velocity": 0.2283464566929134,
                    "duration": 0.6185564999999542
                },
                {
                    "name": "D5",
                    "midi": 74,
                    "time": 893.1955860000141,
                    "velocity": 0.18110236220472442,
                    "duration": 0.6185564999999542
                },
                {
                    "name": "A#5",
                    "midi": 82,
                    "time": 893.1955860000141,
                    "velocity": 0.29133858267716534,
                    "duration": 0.6185564999999542
                },
                {
                    "name": "C5",
                    "midi": 72,
                    "time": 893.8141425000141,
                    "velocity": 0.2125984251968504,
                    "duration": 0.6185564999999542
                },
                {
                    "name": "D5",
                    "midi": 74,
                    "time": 893.8141425000141,
                    "velocity": 0.2125984251968504,
                    "duration": 0.6185564999999542
                },
                {
                    "name": "A5",
                    "midi": 81,
                    "time": 893.8141425000141,
                    "velocity": 0.2677165354330709,
                    "duration": 0.6185564999999542
                },
                {
                    "name": "D5",
                    "midi": 74,
                    "time": 894.432699000014,
                    "velocity": 0.2125984251968504,
                    "duration": 0.6185564999999542
                },
                {
                    "name": "A#4",
                    "midi": 70,
                    "time": 894.432699000014,
                    "velocity": 0.2125984251968504,
                    "duration": 0.6185564999999542
                },
                {
                    "name": "G5",
                    "midi": 79,
                    "time": 894.432699000014,
                    "velocity": 0.2677165354330709,
                    "duration": 0.6185564999999542
                },
                {
                    "name": "D5",
                    "midi": 74,
                    "time": 895.051255500014,
                    "velocity": 0.2125984251968504,
                    "duration": 0.6185564999999542
                },
                {
                    "name": "F5",
                    "midi": 77,
                    "time": 895.051255500014,
                    "velocity": 0.2677165354330709,
                    "duration": 0.6185564999999542
                },
                {
                    "name": "A4",
                    "midi": 69,
                    "time": 895.051255500014,
                    "velocity": 0.2125984251968504,
                    "duration": 0.6185564999999542
                },
                {
                    "name": "F5",
                    "midi": 77,
                    "time": 895.669812000014,
                    "velocity": 0.31496062992125984,
                    "duration": 0.6185564999999542
                },
                {
                    "name": "C5",
                    "midi": 72,
                    "time": 895.669812000014,
                    "velocity": 0.25196850393700787,
                    "duration": 0.6185564999999542
                },
                {
                    "name": "A4",
                    "midi": 69,
                    "time": 895.669812000014,
                    "velocity": 0.25196850393700787,
                    "duration": 0.6185564999999542
                },
                {
                    "name": "C5",
                    "midi": 72,
                    "time": 896.2883685000139,
                    "velocity": 0.2047244094488189,
                    "duration": 0.4639173750000509
                },
                {
                    "name": "E5",
                    "midi": 76,
                    "time": 896.2883685000139,
                    "velocity": 0.25984251968503935,
                    "duration": 0.4639173750000509
                },
                {
                    "name": "G4",
                    "midi": 67,
                    "time": 896.2883685000139,
                    "velocity": 0.2047244094488189,
                    "duration": 0.4639173750000509
                },
                {
                    "name": "E5",
                    "midi": 76,
                    "time": 896.906925000014,
                    "velocity": 0.25984251968503935,
                    "duration": 0.4639173750000509
                },
                {
                    "name": "G4",
                    "midi": 67,
                    "time": 896.906925000014,
                    "velocity": 0.2047244094488189,
                    "duration": 0.4639173750000509
                },
                {
                    "name": "C5",
                    "midi": 72,
                    "time": 896.906925000014,
                    "velocity": 0.2047244094488189,
                    "duration": 0.4639173750000509
                },
                {
                    "name": "C5",
                    "midi": 72,
                    "time": 897.525481500014,
                    "velocity": 0.2047244094488189,
                    "duration": 0.4639173750000509
                },
                {
                    "name": "G4",
                    "midi": 67,
                    "time": 897.525481500014,
                    "velocity": 0.2047244094488189,
                    "duration": 0.4639173750000509
                },
                {
                    "name": "E5",
                    "midi": 76,
                    "time": 897.525481500014,
                    "velocity": 0.25984251968503935,
                    "duration": 0.4639173750000509
                },
                {
                    "name": "G4",
                    "midi": 67,
                    "time": 898.1440380000141,
                    "velocity": 0.2283464566929134,
                    "duration": 0.4639173750000509
                },
                {
                    "name": "E5",
                    "midi": 76,
                    "time": 898.1440380000141,
                    "velocity": 0.29133858267716534,
                    "duration": 0.4639173750000509
                },
                {
                    "name": "C5",
                    "midi": 72,
                    "time": 898.1440380000141,
                    "velocity": 0.2283464566929134,
                    "duration": 0.4639173750000509
                },
                {
                    "name": "E5",
                    "midi": 76,
                    "time": 898.7625945000142,
                    "velocity": 0.25196850393700787,
                    "duration": 0.4639173750000509
                },
                {
                    "name": "C5",
                    "midi": 72,
                    "time": 898.7625945000142,
                    "velocity": 0.1968503937007874,
                    "duration": 0.4639173750000509
                },
                {
                    "name": "G4",
                    "midi": 67,
                    "time": 898.7625945000142,
                    "velocity": 0.1968503937007874,
                    "duration": 0.4639173750000509
                },
                {
                    "name": "A4",
                    "midi": 69,
                    "time": 899.3811510000143,
                    "velocity": 0.2125984251968504,
                    "duration": 0.6185564999999542
                },
                {
                    "name": "F5",
                    "midi": 77,
                    "time": 899.3811510000143,
                    "velocity": 0.2755905511811024,
                    "duration": 0.6185564999999542
                },
                {
                    "name": "C5",
                    "midi": 72,
                    "time": 899.3811510000143,
                    "velocity": 0.2125984251968504,
                    "duration": 0.6185564999999542
                },
                {
                    "name": "G5",
                    "midi": 79,
                    "time": 899.9997075000142,
                    "velocity": 0.30708661417322836,
                    "duration": 0.6185564999999542
                },
                {
                    "name": "C5",
                    "midi": 72,
                    "time": 899.9997075000142,
                    "velocity": 0.2440944881889764,
                    "duration": 0.6185564999999542
                },
                {
                    "name": "A#4",
                    "midi": 70,
                    "time": 899.9997075000142,
                    "velocity": 0.2440944881889764,
                    "duration": 0.6185564999999542
                },
                {
                    "name": "C5",
                    "midi": 72,
                    "time": 900.6182640000142,
                    "velocity": 0.33858267716535434,
                    "duration": 0.6185564999999542
                },
                {
                    "name": "A#4",
                    "midi": 70,
                    "time": 900.6182640000142,
                    "velocity": 0.2677165354330709,
                    "duration": 0.6185564999999542
                },
                {
                    "name": "F5",
                    "midi": 77,
                    "time": 901.2368205000141,
                    "velocity": 0.28346456692913385,
                    "duration": 0.4639173750000509
                },
                {
                    "name": "C5",
                    "midi": 72,
                    "time": 901.2368205000141,
                    "velocity": 0.2204724409448819,
                    "duration": 0.4639173750000509
                },
                {
                    "name": "A4",
                    "midi": 69,
                    "time": 901.2368205000141,
                    "velocity": 0.2204724409448819,
                    "duration": 0.4639173750000509
                },
                {
                    "name": "F5",
                    "midi": 77,
                    "time": 901.8553770000142,
                    "velocity": 0.28346456692913385,
                    "duration": 0.4639173750000509
                },
                {
                    "name": "C5",
                    "midi": 72,
                    "time": 901.8553770000142,
                    "velocity": 0.2204724409448819,
                    "duration": 0.4639173750000509
                },
                {
                    "name": "A4",
                    "midi": 69,
                    "time": 901.8553770000142,
                    "velocity": 0.2204724409448819,
                    "duration": 0.4639173750000509
                },
                {
                    "name": "F5",
                    "midi": 77,
                    "time": 902.4739335000143,
                    "velocity": 0.28346456692913385,
                    "duration": 0.4639173750000509
                },
                {
                    "name": "C5",
                    "midi": 72,
                    "time": 902.4739335000143,
                    "velocity": 0.2204724409448819,
                    "duration": 0.4639173750000509
                },
                {
                    "name": "A4",
                    "midi": 69,
                    "time": 902.4739335000143,
                    "velocity": 0.2204724409448819,
                    "duration": 0.4639173750000509
                },
                {
                    "name": "C5",
                    "midi": 72,
                    "time": 903.0924900000143,
                    "velocity": 0.2283464566929134,
                    "duration": 0.4639173750000509
                },
                {
                    "name": "F5",
                    "midi": 77,
                    "time": 903.0924900000143,
                    "velocity": 0.29133858267716534,
                    "duration": 0.4639173750000509
                },
                {
                    "name": "A4",
                    "midi": 69,
                    "time": 903.0924900000143,
                    "velocity": 0.18110236220472442,
                    "duration": 0.4639173750000509
                },
                {
                    "name": "F5",
                    "midi": 77,
                    "time": 903.7110465000144,
                    "velocity": 0.2677165354330709,
                    "duration": 0.4639173750000509
                },
                {
                    "name": "C5",
                    "midi": 72,
                    "time": 903.7110465000144,
                    "velocity": 0.2125984251968504,
                    "duration": 0.4639173750000509
                },
                {
                    "name": "A4",
                    "midi": 69,
                    "time": 903.7110465000144,
                    "velocity": 0.2125984251968504,
                    "duration": 0.4639173750000509
                },
                {
                    "name": "F5",
                    "midi": 77,
                    "time": 904.3296030000145,
                    "velocity": 0.30708661417322836,
                    "duration": 0.9278347499999882
                },
                {
                    "name": "A5",
                    "midi": 81,
                    "time": 904.4842421250145,
                    "velocity": 0.4094488188976378,
                    "duration": 0.7731956249999712
                },
                {
                    "name": "C5",
                    "midi": 72,
                    "time": 904.4842421250145,
                    "velocity": 0.3464566929133858,
                    "duration": 0.7731956249999712
                },
                {
                    "name": "C5",
                    "midi": 72,
                    "time": 905.2574377500144,
                    "velocity": 0.2125984251968504,
                    "duration": 0.30927825000003395
                },
                {
                    "name": "A4",
                    "midi": 69,
                    "time": 905.2574377500144,
                    "velocity": 0.2125984251968504,
                    "duration": 0.30927825000003395
                },
                {
                    "name": "F5",
                    "midi": 77,
                    "time": 905.2574377500144,
                    "velocity": 0.2677165354330709,
                    "duration": 0.30927825000003395
                },
                {
                    "name": "C5",
                    "midi": 72,
                    "time": 905.5667160000145,
                    "velocity": 0.25196850393700787,
                    "duration": 0.6185564999999542
                },
                {
                    "name": "A4",
                    "midi": 69,
                    "time": 905.5667160000145,
                    "velocity": 0.25196850393700787,
                    "duration": 0.6185564999999542
                },
                {
                    "name": "F5",
                    "midi": 77,
                    "time": 905.5667160000145,
                    "velocity": 0.31496062992125984,
                    "duration": 0.6185564999999542
                },
                {
                    "name": "G4",
                    "midi": 67,
                    "time": 906.1852725000144,
                    "velocity": 0.2047244094488189,
                    "duration": 0.4639173750000509
                },
                {
                    "name": "C5",
                    "midi": 72,
                    "time": 906.1852725000144,
                    "velocity": 0.2047244094488189,
                    "duration": 0.4639173750000509
                },
                {
                    "name": "E5",
                    "midi": 76,
                    "time": 906.1852725000144,
                    "velocity": 0.25984251968503935,
                    "duration": 0.4639173750000509
                },
                {
                    "name": "G4",
                    "midi": 67,
                    "time": 906.8038290000145,
                    "velocity": 0.2047244094488189,
                    "duration": 0.4639173750000509
                },
                {
                    "name": "C5",
                    "midi": 72,
                    "time": 906.8038290000145,
                    "velocity": 0.2047244094488189,
                    "duration": 0.4639173750000509
                },
                {
                    "name": "E5",
                    "midi": 76,
                    "time": 906.8038290000145,
                    "velocity": 0.25984251968503935,
                    "duration": 0.4639173750000509
                },
                {
                    "name": "G4",
                    "midi": 67,
                    "time": 907.4223855000146,
                    "velocity": 0.2047244094488189,
                    "duration": 0.4639173750000509
                },
                {
                    "name": "C5",
                    "midi": 72,
                    "time": 907.4223855000146,
                    "velocity": 0.2047244094488189,
                    "duration": 0.4639173750000509
                },
                {
                    "name": "E5",
                    "midi": 76,
                    "time": 907.4223855000146,
                    "velocity": 0.25984251968503935,
                    "duration": 0.4639173750000509
                },
                {
                    "name": "E5",
                    "midi": 76,
                    "time": 908.0409420000146,
                    "velocity": 0.29133858267716534,
                    "duration": 0.4639173750000509
                },
                {
                    "name": "G4",
                    "midi": 67,
                    "time": 908.0409420000146,
                    "velocity": 0.2283464566929134,
                    "duration": 0.4639173750000509
                },
                {
                    "name": "C5",
                    "midi": 72,
                    "time": 908.0409420000146,
                    "velocity": 0.2283464566929134,
                    "duration": 0.4639173750000509
                },
                {
                    "name": "C5",
                    "midi": 72,
                    "time": 908.6594985000147,
                    "velocity": 0.1968503937007874,
                    "duration": 0.4639173750000509
                },
                {
                    "name": "G4",
                    "midi": 67,
                    "time": 908.6594985000147,
                    "velocity": 0.1968503937007874,
                    "duration": 0.4639173750000509
                },
                {
                    "name": "E5",
                    "midi": 76,
                    "time": 908.6594985000147,
                    "velocity": 0.25196850393700787,
                    "duration": 0.4639173750000509
                },
                {
                    "name": "F5",
                    "midi": 77,
                    "time": 909.2780550000148,
                    "velocity": 0.2755905511811024,
                    "duration": 0.6185564999999542
                },
                {
                    "name": "A4",
                    "midi": 69,
                    "time": 909.2780550000148,
                    "velocity": 0.2125984251968504,
                    "duration": 0.6185564999999542
                },
                {
                    "name": "C5",
                    "midi": 72,
                    "time": 909.2780550000148,
                    "velocity": 0.2125984251968504,
                    "duration": 0.6185564999999542
                },
                {
                    "name": "G5",
                    "midi": 79,
                    "time": 909.8966115000147,
                    "velocity": 0.30708661417322836,
                    "duration": 0.6185564999999542
                },
                {
                    "name": "A#4",
                    "midi": 70,
                    "time": 909.8966115000147,
                    "velocity": 0.2440944881889764,
                    "duration": 0.6185564999999542
                },
                {
                    "name": "C5",
                    "midi": 72,
                    "time": 909.8966115000147,
                    "velocity": 0.2440944881889764,
                    "duration": 0.6185564999999542
                },
                {
                    "name": "A#4",
                    "midi": 70,
                    "time": 910.5151680000147,
                    "velocity": 0.2677165354330709,
                    "duration": 0.6185564999999542
                },
                {
                    "name": "C5",
                    "midi": 72,
                    "time": 910.5151680000147,
                    "velocity": 0.33858267716535434,
                    "duration": 0.6185564999999542
                },
                {
                    "name": "F5",
                    "midi": 77,
                    "time": 911.1337245000146,
                    "velocity": 0.28346456692913385,
                    "duration": 0.4639173750000509
                },
                {
                    "name": "A4",
                    "midi": 69,
                    "time": 911.1337245000146,
                    "velocity": 0.2204724409448819,
                    "duration": 0.4639173750000509
                },
                {
                    "name": "C5",
                    "midi": 72,
                    "time": 911.1337245000146,
                    "velocity": 0.2204724409448819,
                    "duration": 0.4639173750000509
                },
                {
                    "name": "F5",
                    "midi": 77,
                    "time": 911.7522810000147,
                    "velocity": 0.28346456692913385,
                    "duration": 0.4639173750000509
                },
                {
                    "name": "A4",
                    "midi": 69,
                    "time": 911.7522810000147,
                    "velocity": 0.2204724409448819,
                    "duration": 0.4639173750000509
                },
                {
                    "name": "C5",
                    "midi": 72,
                    "time": 911.7522810000147,
                    "velocity": 0.2204724409448819,
                    "duration": 0.4639173750000509
                },
                {
                    "name": "C5",
                    "midi": 72,
                    "time": 912.3708375000148,
                    "velocity": 0.2204724409448819,
                    "duration": 0.4639173750000509
                },
                {
                    "name": "F5",
                    "midi": 77,
                    "time": 912.3708375000148,
                    "velocity": 0.28346456692913385,
                    "duration": 0.4639173750000509
                },
                {
                    "name": "A4",
                    "midi": 69,
                    "time": 912.3708375000148,
                    "velocity": 0.2204724409448819,
                    "duration": 0.4639173750000509
                },
                {
                    "name": "C5",
                    "midi": 72,
                    "time": 912.9893940000148,
                    "velocity": 0.2283464566929134,
                    "duration": 0.4639173750000509
                },
                {
                    "name": "F5",
                    "midi": 77,
                    "time": 912.9893940000148,
                    "velocity": 0.29133858267716534,
                    "duration": 0.4639173750000509
                },
                {
                    "name": "A4",
                    "midi": 69,
                    "time": 912.9893940000148,
                    "velocity": 0.18110236220472442,
                    "duration": 0.4639173750000509
                },
                {
                    "name": "C5",
                    "midi": 72,
                    "time": 913.6079505000149,
                    "velocity": 0.33858267716535434,
                    "duration": 0.30927825000003395
                },
                {
                    "name": "C6",
                    "midi": 84,
                    "time": 913.9172287500149,
                    "velocity": 0.28346456692913385,
                    "duration": 0.30927825000003395
                },
                {
                    "name": "F5",
                    "midi": 77,
                    "time": 914.226507000015,
                    "velocity": 0.33858267716535434,
                    "duration": 0.30927825000003395
                },
                {
                    "name": "C6",
                    "midi": 84,
                    "time": 914.535785250015,
                    "velocity": 0.28346456692913385,
                    "duration": 0.30927825000003395
                },
                {
                    "name": "G5",
                    "midi": 79,
                    "time": 914.845063500015,
                    "velocity": 0.3464566929133858,
                    "duration": 0.30927825000003395
                },
                {
                    "name": "C6",
                    "midi": 84,
                    "time": 915.1543417500151,
                    "velocity": 0.28346456692913385,
                    "duration": 0.30927825000003395
                },
                {
                    "name": "C5",
                    "midi": 72,
                    "time": 915.4636200000151,
                    "velocity": 0.3700787401574803,
                    "duration": 0.30927825000003395
                },
                {
                    "name": "C6",
                    "midi": 84,
                    "time": 915.7728982500151,
                    "velocity": 0.28346456692913385,
                    "duration": 0.30927825000003395
                },
                {
                    "name": "A5",
                    "midi": 81,
                    "time": 916.0821765000152,
                    "velocity": 0.33858267716535434,
                    "duration": 0.30927825000003395
                },
                {
                    "name": "C5",
                    "midi": 72,
                    "time": 916.3914547500152,
                    "velocity": 0.28346456692913385,
                    "duration": 0.30927825000003395
                },
                {
                    "name": "C5",
                    "midi": 72,
                    "time": 916.7007330000152,
                    "velocity": 0.33858267716535434,
                    "duration": 0.30927825000003395
                },
                {
                    "name": "C6",
                    "midi": 84,
                    "time": 917.0100112500153,
                    "velocity": 0.28346456692913385,
                    "duration": 0.30927825000003395
                },
                {
                    "name": "A5",
                    "midi": 81,
                    "time": 917.3192895000153,
                    "velocity": 0.33858267716535434,
                    "duration": 0.30927825000003395
                },
                {
                    "name": "C5",
                    "midi": 72,
                    "time": 917.6285677500153,
                    "velocity": 0.28346456692913385,
                    "duration": 0.30927825000003395
                },
                {
                    "name": "C5",
                    "midi": 72,
                    "time": 917.9378460000154,
                    "velocity": 0.36220472440944884,
                    "duration": 0.30927825000003395
                },
                {
                    "name": "C6",
                    "midi": 84,
                    "time": 918.2471242500154,
                    "velocity": 0.28346456692913385,
                    "duration": 0.30927825000003395
                },
                {
                    "name": "A5",
                    "midi": 81,
                    "time": 918.5564025000155,
                    "velocity": 0.3543307086614173,
                    "duration": 0.30927825000003395
                },
                {
                    "name": "C5",
                    "midi": 72,
                    "time": 918.8656807500155,
                    "velocity": 0.28346456692913385,
                    "duration": 0.30927825000003395
                },
                {
                    "name": "C5",
                    "midi": 72,
                    "time": 919.1749590000155,
                    "velocity": 0.3543307086614173,
                    "duration": 0.30927825000003395
                },
                {
                    "name": "C6",
                    "midi": 84,
                    "time": 919.4842372500156,
                    "velocity": 0.30708661417322836,
                    "duration": 0.30927825000003395
                },
                {
                    "name": "F5",
                    "midi": 77,
                    "time": 919.7935155000156,
                    "velocity": 0.36220472440944884,
                    "duration": 0.30927825000003395
                },
                {
                    "name": "F6",
                    "midi": 89,
                    "time": 920.1027937500156,
                    "velocity": 0.28346456692913385,
                    "duration": 0.30927825000003395
                },
                {
                    "name": "F5",
                    "midi": 77,
                    "time": 920.4120720000157,
                    "velocity": 0.3937007874015748,
                    "duration": 0.30927825000003395
                },
                {
                    "name": "F6",
                    "midi": 89,
                    "time": 920.7213502500157,
                    "velocity": 0.28346456692913385,
                    "duration": 0.30927825000003395
                },
                {
                    "name": "D6",
                    "midi": 86,
                    "time": 921.0306285000157,
                    "velocity": 0.33858267716535434,
                    "duration": 0.30927825000003395
                },
                {
                    "name": "F5",
                    "midi": 77,
                    "time": 921.3399067500158,
                    "velocity": 0.28346456692913385,
                    "duration": 0.30927825000003395
                },
                {
                    "name": "F5",
                    "midi": 77,
                    "time": 921.6491850000158,
                    "velocity": 0.3937007874015748,
                    "duration": 0.30927825000003395
                },
                {
                    "name": "F6",
                    "midi": 89,
                    "time": 921.9584632500158,
                    "velocity": 0.28346456692913385,
                    "duration": 0.30927825000003395
                },
                {
                    "name": "D6",
                    "midi": 86,
                    "time": 922.2677415000159,
                    "velocity": 0.33070866141732286,
                    "duration": 0.30927825000003395
                },
                {
                    "name": "F5",
                    "midi": 77,
                    "time": 922.5770197500159,
                    "velocity": 0.28346456692913385,
                    "duration": 0.30927825000003395
                },
                {
                    "name": "F5",
                    "midi": 77,
                    "time": 922.8862980000159,
                    "velocity": 0.3779527559055118,
                    "duration": 0.30927825000003395
                },
                {
                    "name": "F6",
                    "midi": 89,
                    "time": 923.195576250016,
                    "velocity": 0.31496062992125984,
                    "duration": 0.30927825000003395
                },
                {
                    "name": "F#5",
                    "midi": 78,
                    "time": 923.504854500016,
                    "velocity": 0.4015748031496063,
                    "duration": 0.30927825000003395
                },
                {
                    "name": "F#6",
                    "midi": 90,
                    "time": 923.814132750016,
                    "velocity": 0.33070866141732286,
                    "duration": 0.30927825000003395
                },
                {
                    "name": "G5",
                    "midi": 79,
                    "time": 924.1234110000161,
                    "velocity": 0.44881889763779526,
                    "duration": 0.30927825000003395
                },
                {
                    "name": "G6",
                    "midi": 91,
                    "time": 924.4326892500161,
                    "velocity": 0.33858267716535434,
                    "duration": 0.30927825000003395
                },
                {
                    "name": "A5",
                    "midi": 81,
                    "time": 924.7419675000161,
                    "velocity": 0.41732283464566927,
                    "duration": 0.30927825000003395
                },
                {
                    "name": "A6",
                    "midi": 93,
                    "time": 924.7419675000161,
                    "velocity": 0.41732283464566927,
                    "duration": 0.30927825000003395
                },
                {
                    "name": "A#5",
                    "midi": 82,
                    "time": 925.0512457500162,
                    "velocity": 0.4645669291338583,
                    "duration": 0.30927825000003395
                },
                {
                    "name": "A#6",
                    "midi": 94,
                    "time": 925.0512457500162,
                    "velocity": 0.4645669291338583,
                    "duration": 0.30927825000003395
                },
                {
                    "name": "C6",
                    "midi": 84,
                    "time": 925.3605240000162,
                    "velocity": 0.5275590551181102,
                    "duration": 0.30927825000003395
                },
                {
                    "name": "C7",
                    "midi": 96,
                    "time": 925.6698022500162,
                    "velocity": 0.41732283464566927,
                    "duration": 0.30927825000003395
                },
                {
                    "name": "A#6",
                    "midi": 94,
                    "time": 925.9790805000163,
                    "velocity": 0.47244094488188976,
                    "duration": 0.30927825000003395
                },
                {
                    "name": "C6",
                    "midi": 84,
                    "time": 926.2883587500163,
                    "velocity": 0.41732283464566927,
                    "duration": 0.30927825000003395
                },
                {
                    "name": "C6",
                    "midi": 84,
                    "time": 926.5976370000163,
                    "velocity": 0.49606299212598426,
                    "duration": 0.30927825000003395
                },
                {
                    "name": "C7",
                    "midi": 96,
                    "time": 926.9069152500164,
                    "velocity": 0.41732283464566927,
                    "duration": 0.30927825000003395
                },
                {
                    "name": "A#6",
                    "midi": 94,
                    "time": 927.2161935000164,
                    "velocity": 0.47244094488188976,
                    "duration": 0.30927825000003395
                },
                {
                    "name": "C6",
                    "midi": 84,
                    "time": 927.5254717500164,
                    "velocity": 0.3937007874015748,
                    "duration": 0.30927825000003395
                },
                {
                    "name": "C6",
                    "midi": 84,
                    "time": 927.8347500000165,
                    "velocity": 0.4645669291338583,
                    "duration": 0.30927825000003395
                },
                {
                    "name": "C7",
                    "midi": 96,
                    "time": 928.1440282500165,
                    "velocity": 0.3543307086614173,
                    "duration": 0.30927825000003395
                },
                {
                    "name": "A#6",
                    "midi": 94,
                    "time": 928.4533065000165,
                    "velocity": 0.4409448818897638,
                    "duration": 0.30927825000003395
                },
                {
                    "name": "C6",
                    "midi": 84,
                    "time": 928.7625847500166,
                    "velocity": 0.3779527559055118,
                    "duration": 0.30927825000003395
                },
                {
                    "name": "A6",
                    "midi": 93,
                    "time": 929.0718630000166,
                    "velocity": 0.4566929133858268,
                    "duration": 0.30927825000003395
                },
                {
                    "name": "C7",
                    "midi": 96,
                    "time": 929.3811412500166,
                    "velocity": 0.3700787401574803,
                    "duration": 0.30927825000003395
                },
                {
                    "name": "G6",
                    "midi": 91,
                    "time": 929.6904195000167,
                    "velocity": 0.4645669291338583,
                    "duration": 0.30927825000003395
                },
                {
                    "name": "C7",
                    "midi": 96,
                    "time": 929.9996977500167,
                    "velocity": 0.4094488188976378,
                    "duration": 0.30927825000003395
                },
                {
                    "name": "C6",
                    "midi": 84,
                    "time": 930.3089760000167,
                    "velocity": 0.5039370078740157,
                    "duration": 0.30927825000003395
                },
                {
                    "name": "C7",
                    "midi": 96,
                    "time": 930.6182542500168,
                    "velocity": 0.33858267716535434,
                    "duration": 0.30927825000003395
                },
                {
                    "name": "A6",
                    "midi": 93,
                    "time": 930.9275325000168,
                    "velocity": 0.4330708661417323,
                    "duration": 0.30927825000003395
                },
                {
                    "name": "C6",
                    "midi": 84,
                    "time": 931.2368107500168,
                    "velocity": 0.3464566929133858,
                    "duration": 0.30927825000003395
                },
                {
                    "name": "C6",
                    "midi": 84,
                    "time": 931.5460890000169,
                    "velocity": 0.4015748031496063,
                    "duration": 0.30927825000003395
                },
                {
                    "name": "C7",
                    "midi": 96,
                    "time": 931.8553672500169,
                    "velocity": 0.33858267716535434,
                    "duration": 0.30927825000003395
                },
                {
                    "name": "A6",
                    "midi": 93,
                    "time": 932.164645500017,
                    "velocity": 0.3700787401574803,
                    "duration": 0.30927825000003395
                },
                {
                    "name": "C6",
                    "midi": 84,
                    "time": 932.473923750017,
                    "velocity": 0.3228346456692913,
                    "duration": 0.30927825000003395
                },
                {
                    "name": "C6",
                    "midi": 84,
                    "time": 932.783202000017,
                    "velocity": 0.3700787401574803,
                    "duration": 0.30927825000003395
                },
                {
                    "name": "C7",
                    "midi": 96,
                    "time": 933.092480250017,
                    "velocity": 0.30708661417322836,
                    "duration": 0.30927825000003395
                },
                {
                    "name": "A6",
                    "midi": 93,
                    "time": 933.4017585000171,
                    "velocity": 0.3228346456692913,
                    "duration": 0.30927825000003395
                },
                {
                    "name": "C6",
                    "midi": 84,
                    "time": 933.7110367500171,
                    "velocity": 0.2992125984251969,
                    "duration": 0.30927825000003395
                },
                {
                    "name": "F6",
                    "midi": 89,
                    "time": 934.0203150000171,
                    "velocity": 0.3700787401574803,
                    "duration": 0.30927825000003395
                },
                {
                    "name": "F7",
                    "midi": 101,
                    "time": 934.3295932500172,
                    "velocity": 0.33070866141732286,
                    "duration": 0.30927825000003395
                },
                {
                    "name": "C6",
                    "midi": 84,
                    "time": 934.6388715000172,
                    "velocity": 0.33858267716535434,
                    "duration": 0.30927825000003395
                },
                {
                    "name": "C7",
                    "midi": 96,
                    "time": 934.9481497500173,
                    "velocity": 0.29133858267716534,
                    "duration": 0.30927825000003395
                },
                {
                    "name": "C6",
                    "midi": 84,
                    "time": 935.2574280000173,
                    "velocity": 0.3937007874015748,
                    "duration": 0.30927825000003395
                },
                {
                    "name": "C7",
                    "midi": 96,
                    "time": 935.5667062500173,
                    "velocity": 0.29133858267716534,
                    "duration": 0.30927825000003395
                },
                {
                    "name": "A#6",
                    "midi": 94,
                    "time": 935.8759845000174,
                    "velocity": 0.3464566929133858,
                    "duration": 0.30927825000003395
                },
                {
                    "name": "C6",
                    "midi": 84,
                    "time": 936.1852627500174,
                    "velocity": 0.29133858267716534,
                    "duration": 0.30927825000003395
                },
                {
                    "name": "C6",
                    "midi": 84,
                    "time": 936.4945410000174,
                    "velocity": 0.3779527559055118,
                    "duration": 0.30927825000003395
                },
                {
                    "name": "C7",
                    "midi": 96,
                    "time": 936.8038192500175,
                    "velocity": 0.29133858267716534,
                    "duration": 0.30927825000003395
                },
                {
                    "name": "A#6",
                    "midi": 94,
                    "time": 937.1130975000175,
                    "velocity": 0.33858267716535434,
                    "duration": 0.30927825000003395
                },
                {
                    "name": "C6",
                    "midi": 84,
                    "time": 937.4223757500175,
                    "velocity": 0.29133858267716534,
                    "duration": 0.30927825000003395
                },
                {
                    "name": "C6",
                    "midi": 84,
                    "time": 937.7316540000176,
                    "velocity": 0.3779527559055118,
                    "duration": 0.30927825000003395
                },
                {
                    "name": "C7",
                    "midi": 96,
                    "time": 938.0409322500176,
                    "velocity": 0.29133858267716534,
                    "duration": 0.30927825000003395
                },
                {
                    "name": "A#6",
                    "midi": 94,
                    "time": 938.3502105000176,
                    "velocity": 0.3779527559055118,
                    "duration": 0.30927825000003395
                },
                {
                    "name": "C6",
                    "midi": 84,
                    "time": 938.6594887500177,
                    "velocity": 0.3464566929133858,
                    "duration": 0.30927825000003395
                },
                {
                    "name": "A6",
                    "midi": 93,
                    "time": 938.9687670000177,
                    "velocity": 0.41732283464566927,
                    "duration": 0.30927825000003395
                },
                {
                    "name": "C7",
                    "midi": 96,
                    "time": 939.2780452500177,
                    "velocity": 0.36220472440944884,
                    "duration": 0.30927825000003395
                },
                {
                    "name": "G6",
                    "midi": 91,
                    "time": 939.5873235000178,
                    "velocity": 0.4094488188976378,
                    "duration": 0.30927825000003395
                },
                {
                    "name": "C7",
                    "midi": 96,
                    "time": 939.8966017500178,
                    "velocity": 0.3700787401574803,
                    "duration": 0.30927825000003395
                },
                {
                    "name": "C6",
                    "midi": 84,
                    "time": 940.2058800000178,
                    "velocity": 0.4566929133858268,
                    "duration": 0.30927825000003395
                },
                {
                    "name": "C7",
                    "midi": 96,
                    "time": 940.5151582500179,
                    "velocity": 0.28346456692913385,
                    "duration": 0.30927825000003395
                },
                {
                    "name": "A6",
                    "midi": 93,
                    "time": 940.8244365000179,
                    "velocity": 0.3779527559055118,
                    "duration": 0.30927825000003395
                },
                {
                    "name": "C6",
                    "midi": 84,
                    "time": 941.1337147500179,
                    "velocity": 0.3228346456692913,
                    "duration": 0.30927825000003395
                },
                {
                    "name": "C6",
                    "midi": 84,
                    "time": 941.442993000018,
                    "velocity": 0.4251968503937008,
                    "duration": 0.30927825000003395
                },
                {
                    "name": "C7",
                    "midi": 96,
                    "time": 941.752271250018,
                    "velocity": 0.28346456692913385,
                    "duration": 0.30927825000003395
                },
                {
                    "name": "A6",
                    "midi": 93,
                    "time": 942.061549500018,
                    "velocity": 0.3779527559055118,
                    "duration": 0.30927825000003395
                },
                {
                    "name": "C6",
                    "midi": 84,
                    "time": 942.3708277500181,
                    "velocity": 0.33070866141732286,
                    "duration": 0.30927825000003395
                },
                {
                    "name": "C6",
                    "midi": 84,
                    "time": 942.6801060000181,
                    "velocity": 0.44881889763779526,
                    "duration": 0.30927825000003395
                },
                {
                    "name": "C7",
                    "midi": 96,
                    "time": 942.9893842500181,
                    "velocity": 0.3228346456692913,
                    "duration": 0.30927825000003395
                },
                {
                    "name": "A6",
                    "midi": 93,
                    "time": 943.2986625000182,
                    "velocity": 0.3779527559055118,
                    "duration": 0.30927825000003395
                },
                {
                    "name": "C6",
                    "midi": 84,
                    "time": 943.6079407500182,
                    "velocity": 0.33070866141732286,
                    "duration": 0.30927825000003395
                },
                {
                    "name": "F6",
                    "midi": 89,
                    "time": 943.9172190000182,
                    "velocity": 0.41732283464566927,
                    "duration": 0.30927825000003395
                },
                {
                    "name": "F7",
                    "midi": 101,
                    "time": 944.2264972500183,
                    "velocity": 0.3464566929133858,
                    "duration": 0.30927825000003395
                },
                {
                    "name": "C6",
                    "midi": 84,
                    "time": 944.5357755000183,
                    "velocity": 0.41732283464566927,
                    "duration": 0.30927825000003395
                },
                {
                    "name": "C7",
                    "midi": 96,
                    "time": 944.8450537500183,
                    "velocity": 0.3700787401574803,
                    "duration": 0.30927825000003395
                },
                {
                    "name": "C6",
                    "midi": 84,
                    "time": 945.1543320000184,
                    "velocity": 0.49606299212598426,
                    "duration": 0.30927825000003395
                },
                {
                    "name": "C7",
                    "midi": 96,
                    "time": 945.4636102500184,
                    "velocity": 0.4094488188976378,
                    "duration": 0.30927825000003395
                },
                {
                    "name": "A#6",
                    "midi": 94,
                    "time": 945.7728885000184,
                    "velocity": 0.4881889763779528,
                    "duration": 0.30927825000003395
                },
                {
                    "name": "C6",
                    "midi": 84,
                    "time": 946.0821667500185,
                    "velocity": 0.3937007874015748,
                    "duration": 0.30927825000003395
                },
                {
                    "name": "C6",
                    "midi": 84,
                    "time": 946.3914450000185,
                    "velocity": 0.49606299212598426,
                    "duration": 0.30927825000003395
                },
                {
                    "name": "C7",
                    "midi": 96,
                    "time": 946.7007232500185,
                    "velocity": 0.4251968503937008,
                    "duration": 0.30927825000003395
                },
                {
                    "name": "A#6",
                    "midi": 94,
                    "time": 947.0100015000186,
                    "velocity": 0.4645669291338583,
                    "duration": 0.30927825000003395
                },
                {
                    "name": "C6",
                    "midi": 84,
                    "time": 947.3192797500186,
                    "velocity": 0.4015748031496063,
                    "duration": 0.30927825000003395
                },
                {
                    "name": "C6",
                    "midi": 84,
                    "time": 947.6285580000186,
                    "velocity": 0.5039370078740157,
                    "duration": 0.30927825000003395
                },
                {
                    "name": "C7",
                    "midi": 96,
                    "time": 947.9378362500187,
                    "velocity": 0.3779527559055118,
                    "duration": 0.30927825000003395
                },
                {
                    "name": "A#6",
                    "midi": 94,
                    "time": 948.2471145000187,
                    "velocity": 0.44881889763779526,
                    "duration": 0.30927825000003395
                },
                {
                    "name": "C6",
                    "midi": 84,
                    "time": 948.5563927500187,
                    "velocity": 0.36220472440944884,
                    "duration": 0.30927825000003395
                },
                {
                    "name": "A6",
                    "midi": 93,
                    "time": 948.8656710000188,
                    "velocity": 0.49606299212598426,
                    "duration": 0.30927825000003395
                },
                {
                    "name": "C7",
                    "midi": 96,
                    "time": 949.1749492500188,
                    "velocity": 0.4094488188976378,
                    "duration": 0.30927825000003395
                },
                {
                    "name": "G6",
                    "midi": 91,
                    "time": 949.4842275000188,
                    "velocity": 0.4645669291338583,
                    "duration": 0.30927825000003395
                },
                {
                    "name": "C7",
                    "midi": 96,
                    "time": 949.7935057500189,
                    "velocity": 0.3779527559055118,
                    "duration": 0.30927825000003395
                },
                {
                    "name": "G6",
                    "midi": 91,
                    "time": 950.1027840000189,
                    "velocity": 0.4645669291338583,
                    "duration": 3.0927824999999984
                },
                {
                    "name": "A6",
                    "midi": 93,
                    "time": 953.1955665000189,
                    "velocity": 0.5196850393700787,
                    "duration": 0.6185564999999542
                },
                {
                    "name": "A#6",
                    "midi": 94,
                    "time": 953.8141230000189,
                    "velocity": 0.5590551181102362,
                    "duration": 0.6185564999999542
                },
                {
                    "name": "B6",
                    "midi": 95,
                    "time": 954.4326795000188,
                    "velocity": 0.5905511811023622,
                    "duration": 0.6185564999999542
                },
                {
                    "name": "C7",
                    "midi": 96,
                    "time": 955.0512360000188,
                    "velocity": 0.6220472440944882,
                    "duration": 3.7113389999999526
                },
                {
                    "name": "E6",
                    "midi": 88,
                    "time": 958.7625750000187,
                    "velocity": 0.5196850393700787,
                    "duration": 1.2371130000000221
                },
                {
                    "name": "F6",
                    "midi": 89,
                    "time": 959.9996880000188,
                    "velocity": 0.4409448818897638,
                    "duration": 0.30927825000003395
                },
                {
                    "name": "A6",
                    "midi": 93,
                    "time": 960.3089662500188,
                    "velocity": 0.3858267716535433,
                    "duration": 0.30927825000003395
                },
                {
                    "name": "C6",
                    "midi": 84,
                    "time": 960.6182445000188,
                    "velocity": 0.3858267716535433,
                    "duration": 0.30927825000003395
                },
                {
                    "name": "F6",
                    "midi": 89,
                    "time": 960.9275227500189,
                    "velocity": 0.3858267716535433,
                    "duration": 0.30927825000003395
                },
                {
                    "name": "A5",
                    "midi": 81,
                    "time": 961.2368010000189,
                    "velocity": 0.4409448818897638,
                    "duration": 0.30927825000003395
                },
                {
                    "name": "C6",
                    "midi": 84,
                    "time": 961.5460792500189,
                    "velocity": 0.3464566929133858,
                    "duration": 0.30927825000003395
                },
                {
                    "name": "F5",
                    "midi": 77,
                    "time": 961.855357500019,
                    "velocity": 0.36220472440944884,
                    "duration": 0.30927825000003395
                },
                {
                    "name": "A5",
                    "midi": 81,
                    "time": 962.164635750019,
                    "velocity": 0.36220472440944884,
                    "duration": 0.30927825000003395
                },
                {
                    "name": "C5",
                    "midi": 72,
                    "time": 962.473914000019,
                    "velocity": 0.4015748031496063,
                    "duration": 0.30927825000003395
                },
                {
                    "name": "F5",
                    "midi": 77,
                    "time": 962.783192250019,
                    "velocity": 0.3464566929133858,
                    "duration": 0.30927825000003395
                },
                {
                    "name": "A4",
                    "midi": 69,
                    "time": 963.0924705000191,
                    "velocity": 0.3464566929133858,
                    "duration": 0.30927825000003395
                },
                {
                    "name": "C5",
                    "midi": 72,
                    "time": 963.4017487500191,
                    "velocity": 0.3464566929133858,
                    "duration": 0.30927825000003395
                },
                {
                    "name": "F4",
                    "midi": 65,
                    "time": 963.7110270000192,
                    "velocity": 0.4015748031496063,
                    "duration": 0.30927825000003395
                },
                {
                    "name": "A4",
                    "midi": 69,
                    "time": 964.0203052500192,
                    "velocity": 0.33858267716535434,
                    "duration": 0.30927825000003395
                },
                {
                    "name": "C4",
                    "midi": 60,
                    "time": 964.3295835000192,
                    "velocity": 0.33858267716535434,
                    "duration": 0.30927825000003395
                },
                {
                    "name": "F4",
                    "midi": 65,
                    "time": 964.6388617500193,
                    "velocity": 0.33858267716535434,
                    "duration": 0.30927825000003395
                },
                {
                    "name": "A4",
                    "midi": 69,
                    "time": 964.9481400000193,
                    "velocity": 0.3700787401574803,
                    "duration": 0.30927825000003395
                },
                {
                    "name": "C5",
                    "midi": 72,
                    "time": 965.2574182500193,
                    "velocity": 0.2992125984251969,
                    "duration": 0.30927825000003395
                },
                {
                    "name": "C4",
                    "midi": 60,
                    "time": 965.5666965000194,
                    "velocity": 0.2992125984251969,
                    "duration": 0.30927825000003395
                },
                {
                    "name": "F4",
                    "midi": 65,
                    "time": 965.8759747500194,
                    "velocity": 0.2992125984251969,
                    "duration": 0.30927825000003395
                },
                {
                    "name": "A4",
                    "midi": 69,
                    "time": 966.1852530000194,
                    "velocity": 0.31496062992125984,
                    "duration": 0.30927825000003395
                },
                {
                    "name": "C5",
                    "midi": 72,
                    "time": 966.4945312500195,
                    "velocity": 0.28346456692913385,
                    "duration": 0.30927825000003395
                },
                {
                    "name": "C4",
                    "midi": 60,
                    "time": 966.8038095000195,
                    "velocity": 0.2755905511811024,
                    "duration": 0.30927825000003395
                },
                {
                    "name": "F4",
                    "midi": 65,
                    "time": 967.1130877500195,
                    "velocity": 0.2677165354330709,
                    "duration": 0.30927825000003395
                },
                {
                    "name": "A4",
                    "midi": 69,
                    "time": 967.4223660000196,
                    "velocity": 0.30708661417322836,
                    "duration": 0.30927825000003395
                },
                {
                    "name": "C5",
                    "midi": 72,
                    "time": 967.7316442500196,
                    "velocity": 0.2440944881889764,
                    "duration": 0.30927825000003395
                },
                {
                    "name": "C4",
                    "midi": 60,
                    "time": 968.0409225000196,
                    "velocity": 0.23622047244094488,
                    "duration": 0.30927825000003395
                },
                {
                    "name": "F4",
                    "midi": 65,
                    "time": 968.3502007500197,
                    "velocity": 0.23622047244094488,
                    "duration": 0.30927825000003395
                },
                {
                    "name": "A4",
                    "midi": 69,
                    "time": 968.6594790000197,
                    "velocity": 0.2992125984251969,
                    "duration": 0.30927825000003395
                },
                {
                    "name": "C5",
                    "midi": 72,
                    "time": 968.9687572500197,
                    "velocity": 0.2283464566929134,
                    "duration": 0.30927825000003395
                },
                {
                    "name": "C4",
                    "midi": 60,
                    "time": 969.2780355000198,
                    "velocity": 0.2283464566929134,
                    "duration": 0.30927825000003395
                },
                {
                    "name": "F4",
                    "midi": 65,
                    "time": 969.5873137500198,
                    "velocity": 0.2283464566929134,
                    "duration": 0.30927825000003395
                },
                {
                    "name": "G#5",
                    "midi": 80,
                    "time": 973.6079310000198,
                    "velocity": 0.3543307086614173,
                    "duration": 0.6185564999999542
                },
                {
                    "name": "F5",
                    "midi": 77,
                    "time": 973.6079310000198,
                    "velocity": 0.2992125984251969,
                    "duration": 0.6185564999999542
                },
                {
                    "name": "A#5",
                    "midi": 82,
                    "time": 974.2264875000197,
                    "velocity": 0.3779527559055118,
                    "duration": 0.6185564999999542
                },
                {
                    "name": "G5",
                    "midi": 79,
                    "time": 974.2264875000197,
                    "velocity": 0.31496062992125984,
                    "duration": 0.6185564999999542
                },
                {
                    "name": "C6",
                    "midi": 84,
                    "time": 974.8450440000197,
                    "velocity": 0.3937007874015748,
                    "duration": 1.2371130000000221
                },
                {
                    "name": "G#5",
                    "midi": 80,
                    "time": 974.8450440000197,
                    "velocity": 0.33070866141732286,
                    "duration": 1.2371130000000221
                },
                {
                    "name": "G#3",
                    "midi": 56,
                    "time": 977.9378265000197,
                    "velocity": 0.3464566929133858,
                    "duration": 0.6185564999999542
                },
                {
                    "name": "C4",
                    "midi": 60,
                    "time": 977.9378265000197,
                    "velocity": 0.29133858267716534,
                    "duration": 0.6185564999999542
                },
                {
                    "name": "C4",
                    "midi": 60,
                    "time": 978.5563830000197,
                    "velocity": 0.30708661417322836,
                    "duration": 0.6185564999999542
                },
                {
                    "name": "G3",
                    "midi": 55,
                    "time": 978.5563830000197,
                    "velocity": 0.3700787401574803,
                    "duration": 0.6185564999999542
                },
                {
                    "name": "F3",
                    "midi": 53,
                    "time": 979.1749395000196,
                    "velocity": 0.3937007874015748,
                    "duration": 0.6185564999999542
                },
                {
                    "name": "C4",
                    "midi": 60,
                    "time": 979.1749395000196,
                    "velocity": 0.33070866141732286,
                    "duration": 0.6185564999999542
                },
                {
                    "name": "C4",
                    "midi": 60,
                    "time": 979.7934960000196,
                    "velocity": 0.30708661417322836,
                    "duration": 0.6185564999999542
                },
                {
                    "name": "C3",
                    "midi": 48,
                    "time": 979.7934960000196,
                    "velocity": 0.4330708661417323,
                    "duration": 0.6185564999999542
                },
                {
                    "name": "G5",
                    "midi": 79,
                    "time": 983.5048350000195,
                    "velocity": 0.4251968503937008,
                    "duration": 0.6185564999999542
                },
                {
                    "name": "A#5",
                    "midi": 82,
                    "time": 983.5048350000195,
                    "velocity": 0.5039370078740157,
                    "duration": 0.6185564999999542
                },
                {
                    "name": "C#6",
                    "midi": 85,
                    "time": 984.1233915000195,
                    "velocity": 0.48031496062992124,
                    "duration": 0.6185564999999542
                },
                {
                    "name": "A#5",
                    "midi": 82,
                    "time": 984.1233915000195,
                    "velocity": 0.4015748031496063,
                    "duration": 0.6185564999999542
                },
                {
                    "name": "C6",
                    "midi": 84,
                    "time": 984.7419480000194,
                    "velocity": 0.44881889763779526,
                    "duration": 1.2371130000000221
                },
                {
                    "name": "G#5",
                    "midi": 80,
                    "time": 984.7419480000194,
                    "velocity": 0.3779527559055118,
                    "duration": 1.2371130000000221
                },
                {
                    "name": "G#3",
                    "midi": 56,
                    "time": 988.4532870000195,
                    "velocity": 0.44881889763779526,
                    "duration": 0.6185564999999542
                },
                {
                    "name": "C4",
                    "midi": 60,
                    "time": 988.4532870000195,
                    "velocity": 0.3228346456692913,
                    "duration": 0.6185564999999542
                },
                {
                    "name": "G3",
                    "midi": 55,
                    "time": 989.0718435000194,
                    "velocity": 0.3700787401574803,
                    "duration": 0.6185564999999542
                },
                {
                    "name": "C4",
                    "midi": 60,
                    "time": 989.0718435000194,
                    "velocity": 0.30708661417322836,
                    "duration": 0.6185564999999542
                },
                {
                    "name": "F3",
                    "midi": 53,
                    "time": 989.6904000000194,
                    "velocity": 0.3937007874015748,
                    "duration": 0.6185564999999542
                },
                {
                    "name": "C4",
                    "midi": 60,
                    "time": 989.6904000000194,
                    "velocity": 0.33070866141732286,
                    "duration": 0.6185564999999542
                },
                {
                    "name": "F5",
                    "midi": 77,
                    "time": 993.4017390000193,
                    "velocity": 0.33858267716535434,
                    "duration": 0.6185564999999542
                },
                {
                    "name": "G#5",
                    "midi": 80,
                    "time": 993.4017390000193,
                    "velocity": 0.4015748031496063,
                    "duration": 0.6185564999999542
                },
                {
                    "name": "G5",
                    "midi": 79,
                    "time": 994.0202955000193,
                    "velocity": 0.36220472440944884,
                    "duration": 0.6185564999999542
                },
                {
                    "name": "A#5",
                    "midi": 82,
                    "time": 994.0202955000193,
                    "velocity": 0.4330708661417323,
                    "duration": 0.6185564999999542
                },
                {
                    "name": "G#5",
                    "midi": 80,
                    "time": 994.6388520000193,
                    "velocity": 0.3779527559055118,
                    "duration": 1.2371130000000221
                },
                {
                    "name": "C6",
                    "midi": 84,
                    "time": 994.6388520000193,
                    "velocity": 0.44881889763779526,
                    "duration": 1.2371130000000221
                },
                {
                    "name": "D#4",
                    "midi": 63,
                    "time": 997.7316345000193,
                    "velocity": 0.33070866141732286,
                    "duration": 0.6185564999999542
                },
                {
                    "name": "C4",
                    "midi": 60,
                    "time": 997.7316345000193,
                    "velocity": 0.3937007874015748,
                    "duration": 0.6185564999999542
                },
                {
                    "name": "A#3",
                    "midi": 58,
                    "time": 998.3501910000192,
                    "velocity": 0.4015748031496063,
                    "duration": 0.6185564999999542
                },
                {
                    "name": "D#4",
                    "midi": 63,
                    "time": 998.3501910000192,
                    "velocity": 0.33070866141732286,
                    "duration": 0.6185564999999542
                },
                {
                    "name": "G#3",
                    "midi": 56,
                    "time": 998.9687475000192,
                    "velocity": 0.4251968503937008,
                    "duration": 0.6185564999999542
                },
                {
                    "name": "D#4",
                    "midi": 63,
                    "time": 998.9687475000192,
                    "velocity": 0.3543307086614173,
                    "duration": 0.6185564999999542
                },
                {
                    "name": "D#3",
                    "midi": 51,
                    "time": 999.5873040000191,
                    "velocity": 0.49606299212598426,
                    "duration": 0.6185564999999542
                },
                {
                    "name": "D#4",
                    "midi": 63,
                    "time": 999.5873040000191,
                    "velocity": 0.3464566929133858,
                    "duration": 0.6185564999999542
                },
                {
                    "name": "C#6",
                    "midi": 85,
                    "time": 1003.2986430000191,
                    "velocity": 0.5748031496062992,
                    "duration": 0.6185564999999542
                },
                {
                    "name": "A#5",
                    "midi": 82,
                    "time": 1003.2986430000191,
                    "velocity": 0.4881889763779528,
                    "duration": 0.6185564999999542
                },
                {
                    "name": "C#6",
                    "midi": 85,
                    "time": 1003.917199500019,
                    "velocity": 0.4566929133858268,
                    "duration": 0.6185564999999542
                },
                {
                    "name": "F6",
                    "midi": 89,
                    "time": 1003.917199500019,
                    "velocity": 0.5511811023622047,
                    "duration": 0.6185564999999542
                },
                {
                    "name": "C6",
                    "midi": 84,
                    "time": 1004.535756000019,
                    "velocity": 0.5433070866141733,
                    "duration": 1.2371130000000221
                },
                {
                    "name": "D#6",
                    "midi": 87,
                    "time": 1004.535756000019,
                    "velocity": 0.5118110236220472,
                    "duration": 1.2371130000000221
                },
                {
                    "name": "C4",
                    "midi": 60,
                    "time": 1008.247095000019,
                    "velocity": 0.4645669291338583,
                    "duration": 0.6185564999999542
                },
                {
                    "name": "D#4",
                    "midi": 63,
                    "time": 1008.247095000019,
                    "velocity": 0.33858267716535434,
                    "duration": 0.6185564999999542
                },
                {
                    "name": "D#4",
                    "midi": 63,
                    "time": 1008.865651500019,
                    "velocity": 0.31496062992125984,
                    "duration": 0.6185564999999542
                },
                {
                    "name": "A#3",
                    "midi": 58,
                    "time": 1008.865651500019,
                    "velocity": 0.3779527559055118,
                    "duration": 0.6185564999999542
                },
                {
                    "name": "G#3",
                    "midi": 56,
                    "time": 1009.484208000019,
                    "velocity": 0.3937007874015748,
                    "duration": 0.6185564999999542
                },
                {
                    "name": "D#4",
                    "midi": 63,
                    "time": 1009.484208000019,
                    "velocity": 0.33070866141732286,
                    "duration": 0.6185564999999542
                },
                {
                    "name": "C6",
                    "midi": 84,
                    "time": 1012.576990500019,
                    "velocity": 0.48031496062992124,
                    "duration": 0.6185564999999542
                },
                {
                    "name": "A#5",
                    "midi": 82,
                    "time": 1013.1955470000189,
                    "velocity": 0.5039370078740157,
                    "duration": 0.6185564999999542
                },
                {
                    "name": "G#5",
                    "midi": 80,
                    "time": 1013.8141035000189,
                    "velocity": 0.5196850393700787,
                    "duration": 0.6185564999999542
                },
                {
                    "name": "F5",
                    "midi": 77,
                    "time": 1014.4326600000188,
                    "velocity": 0.5196850393700787,
                    "duration": 1.2371130000000221
                },
                {
                    "name": "C#3",
                    "midi": 49,
                    "time": 1017.5254425000188,
                    "velocity": 0.5118110236220472,
                    "duration": 0.6185564999999542
                },
                {
                    "name": "C3",
                    "midi": 48,
                    "time": 1018.1439990000188,
                    "velocity": 0.5354330708661418,
                    "duration": 0.6185564999999542
                },
                {
                    "name": "A#2",
                    "midi": 46,
                    "time": 1018.7625555000187,
                    "velocity": 0.5590551181102362,
                    "duration": 0.6185564999999542
                },
                {
                    "name": "G2",
                    "midi": 43,
                    "time": 1019.3811120000187,
                    "velocity": 0.5984251968503937,
                    "duration": 2.4742260000000442
                },
                {
                    "name": "G#2",
                    "midi": 44,
                    "time": 1021.8553380000187,
                    "velocity": 0.48031496062992124,
                    "duration": 0.6185564999999542
                },
                {
                    "name": "C6",
                    "midi": 84,
                    "time": 1022.4738945000187,
                    "velocity": 0.5354330708661418,
                    "duration": 0.6185564999999542
                },
                {
                    "name": "C#6",
                    "midi": 85,
                    "time": 1023.0924510000186,
                    "velocity": 0.5748031496062992,
                    "duration": 0.6185564999999542
                },
                {
                    "name": "D6",
                    "midi": 86,
                    "time": 1023.7110075000186,
                    "velocity": 0.6062992125984252,
                    "duration": 0.6185564999999542
                },
                {
                    "name": "D#6",
                    "midi": 87,
                    "time": 1024.3295640000185,
                    "velocity": 0.6456692913385826,
                    "duration": 4.9484520000000884
                },
                {
                    "name": "C6",
                    "midi": 84,
                    "time": 1029.2780160000186,
                    "velocity": 0.5196850393700787,
                    "duration": 1.2371129999999084
                },
                {
                    "name": "G#2",
                    "midi": 44,
                    "time": 1032.3707985000185,
                    "velocity": 0.3464566929133858,
                    "duration": 0.6185565000000679
                },
                {
                    "name": "A#2",
                    "midi": 46,
                    "time": 1032.9893550000186,
                    "velocity": 0.3779527559055118,
                    "duration": 0.6185565000000679
                },
                {
                    "name": "B2",
                    "midi": 47,
                    "time": 1033.6079115000186,
                    "velocity": 0.3543307086614173,
                    "duration": 0.6185565000000679
                },
                {
                    "name": "D#2",
                    "midi": 39,
                    "time": 1034.2264680000187,
                    "velocity": 0.3779527559055118,
                    "duration": 4.9484520000000884
                },
                {
                    "name": "G#1",
                    "midi": 32,
                    "time": 1039.1749200000188,
                    "velocity": 0.3464566929133858,
                    "duration": 1.2371129999999084
                },
                {
                    "name": "G#5",
                    "midi": 80,
                    "time": 1042.2677025000187,
                    "velocity": 0.36220472440944884,
                    "duration": 0.6185565000000679
                },
                {
                    "name": "C6",
                    "midi": 84,
                    "time": 1042.2677025000187,
                    "velocity": 0.4330708661417323,
                    "duration": 0.6185565000000679
                },
                {
                    "name": "C6",
                    "midi": 84,
                    "time": 1042.8862590000188,
                    "velocity": 0.4330708661417323,
                    "duration": 0.6185565000000679
                },
                {
                    "name": "G#5",
                    "midi": 80,
                    "time": 1042.8862590000188,
                    "velocity": 0.36220472440944884,
                    "duration": 0.6185565000000679
                },
                {
                    "name": "G#5",
                    "midi": 80,
                    "time": 1043.5048155000188,
                    "velocity": 0.36220472440944884,
                    "duration": 0.6185565000000679
                },
                {
                    "name": "C#6",
                    "midi": 85,
                    "time": 1043.5048155000188,
                    "velocity": 0.4330708661417323,
                    "duration": 0.6185565000000679
                },
                {
                    "name": "A#5",
                    "midi": 82,
                    "time": 1044.123372000019,
                    "velocity": 0.4015748031496063,
                    "duration": 1.2371129999999084
                },
                {
                    "name": "C6",
                    "midi": 84,
                    "time": 1044.123372000019,
                    "velocity": 0.47244094488188976,
                    "duration": 1.2371129999999084
                },
                {
                    "name": "G5",
                    "midi": 79,
                    "time": 1044.123372000019,
                    "velocity": 0.4015748031496063,
                    "duration": 1.2371129999999084
                },
                {
                    "name": "G5",
                    "midi": 79,
                    "time": 1045.3604850000188,
                    "velocity": 0.4330708661417323,
                    "duration": 0.6185565000000679
                },
                {
                    "name": "C4",
                    "midi": 60,
                    "time": 1047.2161545000188,
                    "velocity": 0.4330708661417323,
                    "duration": 0.6185565000000679
                },
                {
                    "name": "C3",
                    "midi": 48,
                    "time": 1047.2161545000188,
                    "velocity": 0.36220472440944884,
                    "duration": 0.6185565000000679
                },
                {
                    "name": "C4",
                    "midi": 60,
                    "time": 1047.8347110000188,
                    "velocity": 0.4330708661417323,
                    "duration": 0.6185565000000679
                },
                {
                    "name": "C3",
                    "midi": 48,
                    "time": 1047.8347110000188,
                    "velocity": 0.36220472440944884,
                    "duration": 0.6185565000000679
                },
                {
                    "name": "G3",
                    "midi": 55,
                    "time": 1048.453267500019,
                    "velocity": 0.4330708661417323,
                    "duration": 0.6185565000000679
                },
                {
                    "name": "G2",
                    "midi": 43,
                    "time": 1048.453267500019,
                    "velocity": 0.36220472440944884,
                    "duration": 0.6185565000000679
                },
                {
                    "name": "G#3",
                    "midi": 56,
                    "time": 1049.071824000019,
                    "velocity": 0.47244094488188976,
                    "duration": 1.2371129999999084
                },
                {
                    "name": "G#2",
                    "midi": 44,
                    "time": 1049.071824000019,
                    "velocity": 0.4015748031496063,
                    "duration": 1.2371129999999084
                },
                {
                    "name": "F3",
                    "midi": 53,
                    "time": 1050.308937000019,
                    "velocity": 0.4645669291338583,
                    "duration": 0.6185565000000679
                },
                {
                    "name": "F2",
                    "midi": 41,
                    "time": 1050.308937000019,
                    "velocity": 0.3937007874015748,
                    "duration": 0.6185565000000679
                },
                {
                    "name": "G#5",
                    "midi": 80,
                    "time": 1052.1646065000189,
                    "velocity": 0.4566929133858268,
                    "duration": 0.6185565000000679
                },
                {
                    "name": "C6",
                    "midi": 84,
                    "time": 1052.1646065000189,
                    "velocity": 0.5433070866141733,
                    "duration": 0.6185565000000679
                },
                {
                    "name": "C6",
                    "midi": 84,
                    "time": 1052.783163000019,
                    "velocity": 0.5433070866141733,
                    "duration": 0.6185565000000679
                },
                {
                    "name": "G#5",
                    "midi": 80,
                    "time": 1052.783163000019,
                    "velocity": 0.4566929133858268,
                    "duration": 0.6185565000000679
                },
                {
                    "name": "C#6",
                    "midi": 85,
                    "time": 1053.401719500019,
                    "velocity": 0.5433070866141733,
                    "duration": 0.6185565000000679
                },
                {
                    "name": "G#5",
                    "midi": 80,
                    "time": 1053.401719500019,
                    "velocity": 0.4566929133858268,
                    "duration": 0.6185565000000679
                },
                {
                    "name": "G5",
                    "midi": 79,
                    "time": 1054.020276000019,
                    "velocity": 0.41732283464566927,
                    "duration": 1.2371129999999084
                },
                {
                    "name": "A#5",
                    "midi": 82,
                    "time": 1054.020276000019,
                    "velocity": 0.41732283464566927,
                    "duration": 1.2371129999999084
                },
                {
                    "name": "C6",
                    "midi": 84,
                    "time": 1054.020276000019,
                    "velocity": 0.5905511811023622,
                    "duration": 1.2371129999999084
                },
                {
                    "name": "G5",
                    "midi": 79,
                    "time": 1055.257389000019,
                    "velocity": 0.5433070866141733,
                    "duration": 0.6185565000000679
                },
                {
                    "name": "C4",
                    "midi": 60,
                    "time": 1057.113058500019,
                    "velocity": 0.49606299212598426,
                    "duration": 0.6185565000000679
                },
                {
                    "name": "C3",
                    "midi": 48,
                    "time": 1057.113058500019,
                    "velocity": 0.4094488188976378,
                    "duration": 0.6185565000000679
                },
                {
                    "name": "C4",
                    "midi": 60,
                    "time": 1057.731615000019,
                    "velocity": 0.49606299212598426,
                    "duration": 0.6185565000000679
                },
                {
                    "name": "C3",
                    "midi": 48,
                    "time": 1057.731615000019,
                    "velocity": 0.4094488188976378,
                    "duration": 0.6185565000000679
                },
                {
                    "name": "G3",
                    "midi": 55,
                    "time": 1058.350171500019,
                    "velocity": 0.49606299212598426,
                    "duration": 0.6185565000000679
                },
                {
                    "name": "G2",
                    "midi": 43,
                    "time": 1058.350171500019,
                    "velocity": 0.4094488188976378,
                    "duration": 0.6185565000000679
                },
                {
                    "name": "G#2",
                    "midi": 44,
                    "time": 1058.9687280000192,
                    "velocity": 0.4566929133858268,
                    "duration": 1.2371129999999084
                },
                {
                    "name": "G#3",
                    "midi": 56,
                    "time": 1058.9687280000192,
                    "velocity": 0.5433070866141733,
                    "duration": 1.2371129999999084
                },
                {
                    "name": "F3",
                    "midi": 53,
                    "time": 1060.205841000019,
                    "velocity": 0.5039370078740157,
                    "duration": 0.6185565000000679
                },
                {
                    "name": "F2",
                    "midi": 41,
                    "time": 1060.205841000019,
                    "velocity": 0.4251968503937008,
                    "duration": 0.6185565000000679
                },
                {
                    "name": "C6",
                    "midi": 84,
                    "time": 1062.061510500019,
                    "velocity": 0.5669291338582677,
                    "duration": 0.6185565000000679
                },
                {
                    "name": "C6",
                    "midi": 84,
                    "time": 1062.680067000019,
                    "velocity": 0.5905511811023622,
                    "duration": 0.6185565000000679
                },
                {
                    "name": "C6",
                    "midi": 84,
                    "time": 1063.2986235000192,
                    "velocity": 0.6220472440944882,
                    "duration": 0.6185565000000679
                },
                {
                    "name": "C#6",
                    "midi": 85,
                    "time": 1063.9171800000192,
                    "velocity": 0.6535433070866141,
                    "duration": 1.2371129999999084
                },
                {
                    "name": "C#3",
                    "midi": 49,
                    "time": 1065.1542930000192,
                    "velocity": 0.6062992125984252,
                    "duration": 2.4742260000000442
                },
                {
                    "name": "A5",
                    "midi": 81,
                    "time": 1067.6285190000192,
                    "velocity": 0.5511811023622047,
                    "duration": 0.9278347500001018
                },
                {
                    "name": "B5",
                    "midi": 83,
                    "time": 1068.5563537500193,
                    "velocity": 0.5275590551181102,
                    "duration": 0.30927825000003395
                },
                {
                    "name": "C#6",
                    "midi": 85,
                    "time": 1068.8656320000193,
                    "velocity": 0.6220472440944882,
                    "duration": 1.2371129999999084
                },
                {
                    "name": "C#3",
                    "midi": 49,
                    "time": 1070.1027450000192,
                    "velocity": 0.6062992125984252,
                    "duration": 2.4742260000000442
                },
                {
                    "name": "A5",
                    "midi": 81,
                    "time": 1072.5769710000193,
                    "velocity": 0.5511811023622047,
                    "duration": 0.9278347500001018
                },
                {
                    "name": "B5",
                    "midi": 83,
                    "time": 1073.5048057500194,
                    "velocity": 0.5275590551181102,
                    "duration": 0.30927825000003395
                },
                {
                    "name": "C#6",
                    "midi": 85,
                    "time": 1073.8140840000194,
                    "velocity": 0.6062992125984252,
                    "duration": 1.2371129999999084
                },
                {
                    "name": "C#3",
                    "midi": 49,
                    "time": 1075.0511970000193,
                    "velocity": 0.5196850393700787,
                    "duration": 2.4742260000000442
                },
                {
                    "name": "C3",
                    "midi": 48,
                    "time": 1077.5254230000194,
                    "velocity": 0.3858267716535433,
                    "duration": 1.2371129999999084
                },
                {
                    "name": "B2",
                    "midi": 47,
                    "time": 1078.7625360000193,
                    "velocity": 0.4409448818897638,
                    "duration": 0.6185565000000679
                },
                {
                    "name": "D6",
                    "midi": 86,
                    "time": 1079.9996490000194,
                    "velocity": 0.49606299212598426,
                    "duration": 1.8556694999999763
                },
                {
                    "name": "D6",
                    "midi": 86,
                    "time": 1081.8553185000194,
                    "velocity": 0.44881889763779526,
                    "duration": 0.6185565000000679
                },
                {
                    "name": "E6",
                    "midi": 88,
                    "time": 1082.4738750000195,
                    "velocity": 0.47244094488188976,
                    "duration": 0.6185565000000679
                },
                {
                    "name": "F6",
                    "midi": 89,
                    "time": 1083.0924315000195,
                    "velocity": 0.47244094488188976,
                    "duration": 0.6185565000000679
                },
                {
                    "name": "E6",
                    "midi": 88,
                    "time": 1083.7109880000196,
                    "velocity": 0.5433070866141733,
                    "duration": 0.6185565000000679
                },
                {
                    "name": "C3",
                    "midi": 48,
                    "time": 1084.9481010000197,
                    "velocity": 0.33070866141732286,
                    "duration": 1.2371129999999084
                },
                {
                    "name": "D6",
                    "midi": 86,
                    "time": 1086.8037705000197,
                    "velocity": 0.49606299212598426,
                    "duration": 0.6185565000000679
                },
                {
                    "name": "C6",
                    "midi": 84,
                    "time": 1087.4223270000198,
                    "velocity": 0.4409448818897638,
                    "duration": 0.6185565000000679
                },
                {
                    "name": "B5",
                    "midi": 83,
                    "time": 1088.0408835000198,
                    "velocity": 0.4409448818897638,
                    "duration": 0.6185565000000679
                },
                {
                    "name": "A5",
                    "midi": 81,
                    "time": 1088.65944000002,
                    "velocity": 0.5039370078740157,
                    "duration": 0.6185565000000679
                },
                {
                    "name": "F3",
                    "midi": 53,
                    "time": 1089.89655300002,
                    "velocity": 0.2283464566929134,
                    "duration": 1.2371129999999084
                },
                {
                    "name": "D3",
                    "midi": 50,
                    "time": 1091.13366600002,
                    "velocity": 0.2047244094488189,
                    "duration": 0.6185565000000679
                },
                {
                    "name": "A5",
                    "midi": 81,
                    "time": 1092.37077900002,
                    "velocity": 0.4251968503937008,
                    "duration": 1.2371129999999084
                },
                {
                    "name": "B5",
                    "midi": 83,
                    "time": 1093.60789200002,
                    "velocity": 0.4566929133858268,
                    "duration": 0.6185565000000679
                },
                {
                    "name": "G3",
                    "midi": 55,
                    "time": 1094.8450050000201,
                    "velocity": 0.2677165354330709,
                    "duration": 1.2371129999999084
                },
                {
                    "name": "G#3",
                    "midi": 56,
                    "time": 1096.08211800002,
                    "velocity": 0.30708661417322836,
                    "duration": 1.2371129999999084
                },
                {
                    "name": "G3",
                    "midi": 55,
                    "time": 1097.31923100002,
                    "velocity": 0.2755905511811024,
                    "duration": 1.2371129999999084
                },
                {
                    "name": "C6",
                    "midi": 84,
                    "time": 1098.5563440000199,
                    "velocity": 0.4094488188976378,
                    "duration": 1.2371129999999084
                },
                {
                    "name": "C3",
                    "midi": 48,
                    "time": 1101.0305700000197,
                    "velocity": 0.3858267716535433,
                    "duration": 2.4742260000000442
                },
                {
                    "name": "D3",
                    "midi": 50,
                    "time": 1103.5047960000197,
                    "velocity": 0.48031496062992124,
                    "duration": 2.4742260000000442
                },
                {
                    "name": "E3",
                    "midi": 52,
                    "time": 1105.9790220000198,
                    "velocity": 0.30708661417322836,
                    "duration": 2.4742260000000442
                },
                {
                    "name": "F3",
                    "midi": 53,
                    "time": 1108.4532480000198,
                    "velocity": 0.30708661417322836,
                    "duration": 1.2371129999999084
                },
                {
                    "name": "F5",
                    "midi": 77,
                    "time": 1112.1645870000198,
                    "velocity": 0.3543307086614173,
                    "duration": 0.6185565000000679
                },
                {
                    "name": "E5",
                    "midi": 76,
                    "time": 1112.7831435000198,
                    "velocity": 0.31496062992125984,
                    "duration": 0.6185565000000679
                },
                {
                    "name": "G5",
                    "midi": 79,
                    "time": 1112.7831435000198,
                    "velocity": 0.3779527559055118,
                    "duration": 0.6185565000000679
                },
                {
                    "name": "F5",
                    "midi": 77,
                    "time": 1113.40170000002,
                    "velocity": 0.33070866141732286,
                    "duration": 1.2371129999999084
                },
                {
                    "name": "A5",
                    "midi": 81,
                    "time": 1113.40170000002,
                    "velocity": 0.3937007874015748,
                    "duration": 1.2371129999999084
                },
                {
                    "name": "A3",
                    "midi": 57,
                    "time": 1116.4944825000198,
                    "velocity": 0.3464566929133858,
                    "duration": 0.6185565000000679
                },
                {
                    "name": "C4",
                    "midi": 60,
                    "time": 1116.4944825000198,
                    "velocity": 0.29133858267716534,
                    "duration": 0.6185565000000679
                },
                {
                    "name": "G3",
                    "midi": 55,
                    "time": 1117.1130390000199,
                    "velocity": 0.3700787401574803,
                    "duration": 0.6185565000000679
                },
                {
                    "name": "C4",
                    "midi": 60,
                    "time": 1117.1130390000199,
                    "velocity": 0.30708661417322836,
                    "duration": 0.6185565000000679
                },
                {
                    "name": "C4",
                    "midi": 60,
                    "time": 1117.73159550002,
                    "velocity": 0.33070866141732286,
                    "duration": 0.6185565000000679
                },
                {
                    "name": "F3",
                    "midi": 53,
                    "time": 1117.73159550002,
                    "velocity": 0.3937007874015748,
                    "duration": 0.6185565000000679
                },
                {
                    "name": "C3",
                    "midi": 48,
                    "time": 1118.35015200002,
                    "velocity": 0.4330708661417323,
                    "duration": 0.6185565000000679
                },
                {
                    "name": "C4",
                    "midi": 60,
                    "time": 1118.35015200002,
                    "velocity": 0.30708661417322836,
                    "duration": 0.6185565000000679
                },
                {
                    "name": "G5",
                    "midi": 79,
                    "time": 1122.0614910000202,
                    "velocity": 0.4251968503937008,
                    "duration": 0.6185565000000679
                },
                {
                    "name": "A#5",
                    "midi": 82,
                    "time": 1122.0614910000202,
                    "velocity": 0.5039370078740157,
                    "duration": 0.6185565000000679
                },
                {
                    "name": "A#5",
                    "midi": 82,
                    "time": 1122.6800475000202,
                    "velocity": 0.4015748031496063,
                    "duration": 0.6185565000000679
                },
                {
                    "name": "D6",
                    "midi": 86,
                    "time": 1122.6800475000202,
                    "velocity": 0.48031496062992124,
                    "duration": 0.6185565000000679
                },
                {
                    "name": "A5",
                    "midi": 81,
                    "time": 1123.2986040000203,
                    "velocity": 0.3779527559055118,
                    "duration": 1.2371129999999084
                },
                {
                    "name": "C6",
                    "midi": 84,
                    "time": 1123.2986040000203,
                    "velocity": 0.44881889763779526,
                    "duration": 1.2371129999999084
                },
                {
                    "name": "C4",
                    "midi": 60,
                    "time": 1127.0099430000203,
                    "velocity": 0.3228346456692913,
                    "duration": 0.6185565000000679
                },
                {
                    "name": "A3",
                    "midi": 57,
                    "time": 1127.0099430000203,
                    "velocity": 0.44881889763779526,
                    "duration": 0.6185565000000679
                },
                {
                    "name": "G3",
                    "midi": 55,
                    "time": 1127.6284995000203,
                    "velocity": 0.3700787401574803,
                    "duration": 0.6185565000000679
                },
                {
                    "name": "C4",
                    "midi": 60,
                    "time": 1127.6284995000203,
                    "velocity": 0.30708661417322836,
                    "duration": 0.6185565000000679
                },
                {
                    "name": "C4",
                    "midi": 60,
                    "time": 1128.2470560000204,
                    "velocity": 0.33070866141732286,
                    "duration": 0.6185565000000679
                },
                {
                    "name": "F3",
                    "midi": 53,
                    "time": 1128.2470560000204,
                    "velocity": 0.3937007874015748,
                    "duration": 0.6185565000000679
                },
                {
                    "name": "F5",
                    "midi": 77,
                    "time": 1131.9583950000206,
                    "velocity": 0.33858267716535434,
                    "duration": 0.6185565000000679
                },
                {
                    "name": "A5",
                    "midi": 81,
                    "time": 1131.9583950000206,
                    "velocity": 0.4015748031496063,
                    "duration": 0.6185565000000679
                },
                {
                    "name": "G5",
                    "midi": 79,
                    "time": 1132.5769515000206,
                    "velocity": 0.36220472440944884,
                    "duration": 0.6185565000000679
                },
                {
                    "name": "A#5",
                    "midi": 82,
                    "time": 1132.5769515000206,
                    "velocity": 0.4330708661417323,
                    "duration": 0.6185565000000679
                },
                {
                    "name": "A5",
                    "midi": 81,
                    "time": 1133.1955080000207,
                    "velocity": 0.3779527559055118,
                    "duration": 1.2371129999999084
                },
                {
                    "name": "C6",
                    "midi": 84,
                    "time": 1133.1955080000207,
                    "velocity": 0.44881889763779526,
                    "duration": 1.2371129999999084
                },
                {
                    "name": "F3",
                    "midi": 53,
                    "time": 1136.2882905000206,
                    "velocity": 0.33070866141732286,
                    "duration": 2.4742260000002716
                },
                {
                    "name": "C4",
                    "midi": 60,
                    "time": 1136.2882905000206,
                    "velocity": 0.3937007874015748,
                    "duration": 0.6185565000000679
                },
                {
                    "name": "A3",
                    "midi": 57,
                    "time": 1136.2882905000206,
                    "velocity": 0.33070866141732286,
                    "duration": 0.6185565000000679
                },
                {
                    "name": "D4",
                    "midi": 62,
                    "time": 1136.9068470000207,
                    "velocity": 0.4015748031496063,
                    "duration": 0.6185565000000679
                },
                {
                    "name": "A#3",
                    "midi": 58,
                    "time": 1136.9068470000207,
                    "velocity": 0.33070866141732286,
                    "duration": 0.6185565000000679
                },
                {
                    "name": "G3",
                    "midi": 55,
                    "time": 1137.5254035000207,
                    "velocity": 0.3543307086614173,
                    "duration": 0.6185565000000679
                },
                {
                    "name": "E4",
                    "midi": 64,
                    "time": 1137.5254035000207,
                    "velocity": 0.4251968503937008,
                    "duration": 0.6185565000000679
                },
                {
                    "name": "F4",
                    "midi": 65,
                    "time": 1138.1439600000208,
                    "velocity": 0.3464566929133858,
                    "duration": 0.6185565000000679
                },
                {
                    "name": "A3",
                    "midi": 57,
                    "time": 1138.1439600000208,
                    "velocity": 0.49606299212598426,
                    "duration": 0.6185565000000679
                },
                {
                    "name": "A5",
                    "midi": 81,
                    "time": 1141.236742500021,
                    "velocity": 0.4566929133858268,
                    "duration": 0.6185565000000679
                },
                {
                    "name": "F6",
                    "midi": 89,
                    "time": 1141.236742500021,
                    "velocity": 0.5433070866141733,
                    "duration": 0.6185565000000679
                },
                {
                    "name": "C6",
                    "midi": 84,
                    "time": 1141.855299000021,
                    "velocity": 0.4330708661417323,
                    "duration": 0.6185565000000679
                },
                {
                    "name": "E6",
                    "midi": 88,
                    "time": 1141.855299000021,
                    "velocity": 0.5118110236220472,
                    "duration": 0.6185565000000679
                },
                {
                    "name": "A#5",
                    "midi": 82,
                    "time": 1142.473855500021,
                    "velocity": 0.4094488188976378,
                    "duration": 0.6185565000000679
                },
                {
                    "name": "D6",
                    "midi": 86,
                    "time": 1142.473855500021,
                    "velocity": 0.49606299212598426,
                    "duration": 0.6185565000000679
                },
                {
                    "name": "A5",
                    "midi": 81,
                    "time": 1143.092412000021,
                    "velocity": 0.47244094488188976,
                    "duration": 1.2371129999999084
                },
                {
                    "name": "C6",
                    "midi": 84,
                    "time": 1143.092412000021,
                    "velocity": 0.48031496062992124,
                    "duration": 1.2371129999999084
                },
                {
                    "name": "C4",
                    "midi": 60,
                    "time": 1146.185194500021,
                    "velocity": 0.3779527559055118,
                    "duration": 0.6185565000000679
                },
                {
                    "name": "A3",
                    "midi": 57,
                    "time": 1146.185194500021,
                    "velocity": 0.3779527559055118,
                    "duration": 0.6185565000000679
                },
                {
                    "name": "G3",
                    "midi": 55,
                    "time": 1146.803751000021,
                    "velocity": 0.2677165354330709,
                    "duration": 0.6185565000000679
                },
                {
                    "name": "A#3",
                    "midi": 58,
                    "time": 1146.803751000021,
                    "velocity": 0.3228346456692913,
                    "duration": 0.6185565000000679
                },
                {
                    "name": "C3",
                    "midi": 48,
                    "time": 1147.4223075000211,
                    "velocity": 0.25984251968503935,
                    "duration": 0.6185565000000679
                },
                {
                    "name": "G3",
                    "midi": 55,
                    "time": 1147.4223075000211,
                    "velocity": 0.30708661417322836,
                    "duration": 0.6185565000000679
                },
                {
                    "name": "A3",
                    "midi": 57,
                    "time": 1148.0408640000212,
                    "velocity": 0.3779527559055118,
                    "duration": 0.6185565000000679
                },
                {
                    "name": "F3",
                    "midi": 53,
                    "time": 1148.0408640000212,
                    "velocity": 0.31496062992125984,
                    "duration": 0.6185565000000679
                },
                {
                    "name": "A5",
                    "midi": 81,
                    "time": 1151.7522030000214,
                    "velocity": 0.28346456692913385,
                    "duration": 0.6185565000000679
                },
                {
                    "name": "F5",
                    "midi": 77,
                    "time": 1151.7522030000214,
                    "velocity": 0.23622047244094488,
                    "duration": 0.6185565000000679
                },
                {
                    "name": "A#5",
                    "midi": 82,
                    "time": 1152.3707595000214,
                    "velocity": 0.2992125984251969,
                    "duration": 0.6185565000000679
                },
                {
                    "name": "G5",
                    "midi": 79,
                    "time": 1152.3707595000214,
                    "velocity": 0.25196850393700787,
                    "duration": 0.6185565000000679
                },
                {
                    "name": "A5",
                    "midi": 81,
                    "time": 1152.9893160000215,
                    "velocity": 0.2677165354330709,
                    "duration": 1.2371129999999084
                },
                {
                    "name": "C6",
                    "midi": 84,
                    "time": 1152.9893160000215,
                    "velocity": 0.3228346456692913,
                    "duration": 1.2371129999999084
                },
                {
                    "name": "A3",
                    "midi": 57,
                    "time": 1156.0820985000214,
                    "velocity": 0.1968503937007874,
                    "duration": 0.6185565000000679
                },
                {
                    "name": "F3",
                    "midi": 53,
                    "time": 1156.0820985000214,
                    "velocity": 0.1968503937007874,
                    "duration": 2.4742260000002716
                },
                {
                    "name": "C4",
                    "midi": 60,
                    "time": 1156.0820985000214,
                    "velocity": 0.23622047244094488,
                    "duration": 0.6185565000000679
                },
                {
                    "name": "A#3",
                    "midi": 58,
                    "time": 1156.7006550000215,
                    "velocity": 0.2125984251968504,
                    "duration": 0.6185565000000679
                },
                {
                    "name": "D4",
                    "midi": 62,
                    "time": 1156.7006550000215,
                    "velocity": 0.25196850393700787,
                    "duration": 0.6185565000000679
                },
                {
                    "name": "E4",
                    "midi": 64,
                    "time": 1157.3192115000215,
                    "velocity": 0.2677165354330709,
                    "duration": 0.6185565000000679
                },
                {
                    "name": "G3",
                    "midi": 55,
                    "time": 1157.3192115000215,
                    "velocity": 0.2204724409448819,
                    "duration": 0.6185565000000679
                },
                {
                    "name": "F4",
                    "midi": 65,
                    "time": 1157.9377680000216,
                    "velocity": 0.3464566929133858,
                    "duration": 0.6185565000000679
                },
                {
                    "name": "A3",
                    "midi": 57,
                    "time": 1157.9377680000216,
                    "velocity": 0.29133858267716534,
                    "duration": 0.6185565000000679
                },
                {
                    "name": "A5",
                    "midi": 81,
                    "time": 1161.0305505000217,
                    "velocity": 0.2755905511811024,
                    "duration": 0.6185565000000679
                },
                {
                    "name": "F6",
                    "midi": 89,
                    "time": 1161.0305505000217,
                    "velocity": 0.33070866141732286,
                    "duration": 0.6185565000000679
                },
                {
                    "name": "E6",
                    "midi": 88,
                    "time": 1161.6491070000218,
                    "velocity": 0.30708661417322836,
                    "duration": 0.6185565000000679
                },
                {
                    "name": "C6",
                    "midi": 84,
                    "time": 1161.6491070000218,
                    "velocity": 0.25984251968503935,
                    "duration": 0.6185565000000679
                },
                {
                    "name": "A#5",
                    "midi": 82,
                    "time": 1162.2676635000219,
                    "velocity": 0.23622047244094488,
                    "duration": 0.6185565000000679
                },
                {
                    "name": "D6",
                    "midi": 86,
                    "time": 1162.2676635000219,
                    "velocity": 0.28346456692913385,
                    "duration": 0.6185565000000679
                },
                {
                    "name": "C6",
                    "midi": 84,
                    "time": 1162.886220000022,
                    "velocity": 0.33070866141732286,
                    "duration": 1.2371129999999084
                },
                {
                    "name": "A5",
                    "midi": 81,
                    "time": 1162.886220000022,
                    "velocity": 0.2755905511811024,
                    "duration": 1.2371129999999084
                },
                {
                    "name": "A3",
                    "midi": 57,
                    "time": 1165.9790025000218,
                    "velocity": 0.29133858267716534,
                    "duration": 0.6185565000000679
                },
                {
                    "name": "C4",
                    "midi": 60,
                    "time": 1165.9790025000218,
                    "velocity": 0.29133858267716534,
                    "duration": 0.6185565000000679
                },
                {
                    "name": "G3",
                    "midi": 55,
                    "time": 1166.5975590000219,
                    "velocity": 0.2204724409448819,
                    "duration": 0.6185565000000679
                },
                {
                    "name": "A#3",
                    "midi": 58,
                    "time": 1166.5975590000219,
                    "velocity": 0.25984251968503935,
                    "duration": 0.6185565000000679
                },
                {
                    "name": "C3",
                    "midi": 48,
                    "time": 1167.216115500022,
                    "velocity": 0.2204724409448819,
                    "duration": 0.6185565000000679
                },
                {
                    "name": "G3",
                    "midi": 55,
                    "time": 1167.216115500022,
                    "velocity": 0.25984251968503935,
                    "duration": 0.6185565000000679
                },
                {
                    "name": "F3",
                    "midi": 53,
                    "time": 1167.834672000022,
                    "velocity": 0.2440944881889764,
                    "duration": 0.6185565000000679
                },
                {
                    "name": "A3",
                    "midi": 57,
                    "time": 1167.834672000022,
                    "velocity": 0.29133858267716534,
                    "duration": 0.6185565000000679
                },
                {
                    "name": "C4",
                    "midi": 60,
                    "time": 1170.9274545000221,
                    "velocity": 0.29133858267716534,
                    "duration": 0.6185565000000679
                },
                {
                    "name": "A3",
                    "midi": 57,
                    "time": 1170.9274545000221,
                    "velocity": 0.29133858267716534,
                    "duration": 0.6185565000000679
                },
                {
                    "name": "G3",
                    "midi": 55,
                    "time": 1171.5460110000222,
                    "velocity": 0.2204724409448819,
                    "duration": 0.6185565000000679
                },
                {
                    "name": "A#3",
                    "midi": 58,
                    "time": 1171.5460110000222,
                    "velocity": 0.25984251968503935,
                    "duration": 0.6185565000000679
                },
                {
                    "name": "G3",
                    "midi": 55,
                    "time": 1172.1645675000223,
                    "velocity": 0.25984251968503935,
                    "duration": 0.6185565000000679
                },
                {
                    "name": "C3",
                    "midi": 48,
                    "time": 1172.1645675000223,
                    "velocity": 0.2204724409448819,
                    "duration": 0.6185565000000679
                },
                {
                    "name": "A3",
                    "midi": 57,
                    "time": 1172.7831240000223,
                    "velocity": 0.29133858267716534,
                    "duration": 0.6185565000000679
                },
                {
                    "name": "F3",
                    "midi": 53,
                    "time": 1172.7831240000223,
                    "velocity": 0.2440944881889764,
                    "duration": 0.6185565000000679
                },
                {
                    "name": "C4",
                    "midi": 60,
                    "time": 1175.8759065000224,
                    "velocity": 0.25196850393700787,
                    "duration": 0.6185565000000679
                },
                {
                    "name": "A3",
                    "midi": 57,
                    "time": 1175.8759065000224,
                    "velocity": 0.25196850393700787,
                    "duration": 0.6185565000000679
                },
                {
                    "name": "A#3",
                    "midi": 58,
                    "time": 1176.4944630000225,
                    "velocity": 0.2204724409448819,
                    "duration": 0.6185565000000679
                },
                {
                    "name": "G3",
                    "midi": 55,
                    "time": 1176.4944630000225,
                    "velocity": 0.18110236220472442,
                    "duration": 0.6185565000000679
                },
                {
                    "name": "C3",
                    "midi": 48,
                    "time": 1177.1130195000226,
                    "velocity": 0.18110236220472442,
                    "duration": 0.6185565000000679
                },
                {
                    "name": "G3",
                    "midi": 55,
                    "time": 1177.1130195000226,
                    "velocity": 0.2125984251968504,
                    "duration": 0.6185565000000679
                },
                {
                    "name": "A2",
                    "midi": 45,
                    "time": 1177.7315760000226,
                    "velocity": 0.1889763779527559,
                    "duration": 0.6185565000000679
                },
                {
                    "name": "F2",
                    "midi": 41,
                    "time": 1177.7315760000226,
                    "velocity": 0.1889763779527559,
                    "duration": 0.6185565000000679
                },
                {
                    "name": "F3",
                    "midi": 53,
                    "time": 1177.7315760000226,
                    "velocity": 0.2283464566929134,
                    "duration": 0.6185565000000679
                },
                {
                    "name": "F4",
                    "midi": 65,
                    "time": 1182.6800280000227,
                    "velocity": 0.3700787401574803,
                    "duration": 0.30927825000003395
                },
                {
                    "name": "G#4",
                    "midi": 68,
                    "time": 1182.9893062500228,
                    "velocity": 0.30708661417322836,
                    "duration": 0.30927825000003395
                },
                {
                    "name": "G#3",
                    "midi": 56,
                    "time": 1183.2985845000228,
                    "velocity": 0.30708661417322836,
                    "duration": 0.30927825000003395
                },
                {
                    "name": "C4",
                    "midi": 60,
                    "time": 1183.6078627500228,
                    "velocity": 0.33858267716535434,
                    "duration": 0.30927825000003395
                },
                {
                    "name": "F4",
                    "midi": 65,
                    "time": 1183.9171410000229,
                    "velocity": 0.4251968503937008,
                    "duration": 0.30927825000003395
                },
                {
                    "name": "G#4",
                    "midi": 68,
                    "time": 1184.226419250023,
                    "velocity": 0.3543307086614173,
                    "duration": 0.30927825000003395
                },
                {
                    "name": "G#3",
                    "midi": 56,
                    "time": 1184.535697500023,
                    "velocity": 0.3543307086614173,
                    "duration": 0.30927825000003395
                },
                {
                    "name": "C4",
                    "midi": 60,
                    "time": 1184.844975750023,
                    "velocity": 0.3779527559055118,
                    "duration": 0.30927825000003395
                },
                {
                    "name": "F4",
                    "midi": 65,
                    "time": 1185.154254000023,
                    "velocity": 0.5039370078740157,
                    "duration": 0.30927825000003395
                },
                {
                    "name": "G#4",
                    "midi": 68,
                    "time": 1185.463532250023,
                    "velocity": 0.3937007874015748,
                    "duration": 0.30927825000003395
                },
                {
                    "name": "G#3",
                    "midi": 56,
                    "time": 1185.772810500023,
                    "velocity": 0.4094488188976378,
                    "duration": 0.30927825000003395
                },
                {
                    "name": "C4",
                    "midi": 60,
                    "time": 1186.082088750023,
                    "velocity": 0.4330708661417323,
                    "duration": 0.30927825000003395
                },
                {
                    "name": "G#4",
                    "midi": 68,
                    "time": 1186.3913670000231,
                    "velocity": 0.5433070866141733,
                    "duration": 0.30927825000003395
                },
                {
                    "name": "C5",
                    "midi": 72,
                    "time": 1186.7006452500232,
                    "velocity": 0.4645669291338583,
                    "duration": 0.30927825000003395
                },
                {
                    "name": "C4",
                    "midi": 60,
                    "time": 1187.0099235000232,
                    "velocity": 0.48031496062992124,
                    "duration": 0.30927825000003395
                },
                {
                    "name": "F4",
                    "midi": 65,
                    "time": 1187.3192017500232,
                    "velocity": 0.49606299212598426,
                    "duration": 0.30927825000003395
                },
                {
                    "name": "C4",
                    "midi": 60,
                    "time": 1187.6284800000233,
                    "velocity": 0.4330708661417323,
                    "duration": 0.10309275000008711
                },
                {
                    "name": "F4",
                    "midi": 65,
                    "time": 1187.7315727500234,
                    "velocity": 0.47244094488188976,
                    "duration": 0.10309275000008711
                },
                {
                    "name": "G#4",
                    "midi": 68,
                    "time": 1187.8346655000234,
                    "velocity": 0.5196850393700787,
                    "duration": 0.10309275000008711
                },
                {
                    "name": "C5",
                    "midi": 72,
                    "time": 1187.9377582500235,
                    "velocity": 0.6062992125984252,
                    "duration": 1.8556694999999763
                },
                {
                    "name": "A#4",
                    "midi": 70,
                    "time": 1189.7934277500235,
                    "velocity": 0.3700787401574803,
                    "duration": 0.30927825000003395
                },
                {
                    "name": "G#4",
                    "midi": 68,
                    "time": 1190.1027060000235,
                    "velocity": 0.47244094488188976,
                    "duration": 0.9278347500001018
                },
                {
                    "name": "A#4",
                    "midi": 70,
                    "time": 1191.0305407500236,
                    "velocity": 0.4251968503937008,
                    "duration": 0.30927825000003395
                },
                {
                    "name": "G4",
                    "midi": 67,
                    "time": 1191.3398190000237,
                    "velocity": 0.47244094488188976,
                    "duration": 0.9278347500001018
                },
                {
                    "name": "G#4",
                    "midi": 68,
                    "time": 1192.2676537500238,
                    "velocity": 0.4015748031496063,
                    "duration": 0.30927825000003395
                },
                {
                    "name": "F4",
                    "midi": 65,
                    "time": 1192.5769320000238,
                    "velocity": 0.47244094488188976,
                    "duration": 0.30927825000003395
                },
                {
                    "name": "G4",
                    "midi": 67,
                    "time": 1192.8862102500239,
                    "velocity": 0.3779527559055118,
                    "duration": 0.1546391249999033
                },
                {
                    "name": "F4",
                    "midi": 65,
                    "time": 1193.0408493750238,
                    "velocity": 0.3779527559055118,
                    "duration": 0.1546391249999033
                },
                {
                    "name": "E4",
                    "midi": 64,
                    "time": 1193.1954885000237,
                    "velocity": 0.3779527559055118,
                    "duration": 0.1546391249999033
                },
                {
                    "name": "F4",
                    "midi": 65,
                    "time": 1193.3501276250236,
                    "velocity": 0.3543307086614173,
                    "duration": 0.1546391249999033
                },
                {
                    "name": "F#4",
                    "midi": 66,
                    "time": 1193.5047667500235,
                    "velocity": 0.3543307086614173,
                    "duration": 0.30927825000003395
                },
                {
                    "name": "D#4",
                    "midi": 63,
                    "time": 1193.8140450000235,
                    "velocity": 0.4881889763779528,
                    "duration": 0.30927825000003395
                },
                {
                    "name": "F4",
                    "midi": 65,
                    "time": 1194.1233232500235,
                    "velocity": 0.3858267716535433,
                    "duration": 0.1546391249999033
                },
                {
                    "name": "D#4",
                    "midi": 63,
                    "time": 1194.2779623750234,
                    "velocity": 0.3858267716535433,
                    "duration": 0.1546391249999033
                },
                {
                    "name": "D4",
                    "midi": 62,
                    "time": 1194.4326015000233,
                    "velocity": 0.3858267716535433,
                    "duration": 0.1546391249999033
                },
                {
                    "name": "D#4",
                    "midi": 63,
                    "time": 1194.5872406250232,
                    "velocity": 0.3464566929133858,
                    "duration": 0.1546391249999033
                },
                {
                    "name": "F4",
                    "midi": 65,
                    "time": 1194.7418797500231,
                    "velocity": 0.3700787401574803,
                    "duration": 0.30927825000003395
                },
                {
                    "name": "C#4",
                    "midi": 61,
                    "time": 1195.0511580000232,
                    "velocity": 0.47244094488188976,
                    "duration": 0.30927825000003395
                },
                {
                    "name": "D#4",
                    "midi": 63,
                    "time": 1195.3604362500232,
                    "velocity": 0.3858267716535433,
                    "duration": 0.1546391249999033
                },
                {
                    "name": "C#4",
                    "midi": 61,
                    "time": 1195.5150753750231,
                    "velocity": 0.3858267716535433,
                    "duration": 0.1546391249999033
                },
                {
                    "name": "C4",
                    "midi": 60,
                    "time": 1195.669714500023,
                    "velocity": 0.3858267716535433,
                    "duration": 0.1546391249999033
                },
                {
                    "name": "C#4",
                    "midi": 61,
                    "time": 1195.824353625023,
                    "velocity": 0.36220472440944884,
                    "duration": 0.1546391249999033
                },
                {
                    "name": "D#4",
                    "midi": 63,
                    "time": 1195.9789927500228,
                    "velocity": 0.36220472440944884,
                    "duration": 0.30927825000003395
                },
                {
                    "name": "C4",
                    "midi": 60,
                    "time": 1196.2882710000229,
                    "velocity": 0.47244094488188976,
                    "duration": 0.30927825000003395
                },
                {
                    "name": "C#4",
                    "midi": 61,
                    "time": 1196.597549250023,
                    "velocity": 0.3937007874015748,
                    "duration": 0.1546391249999033
                },
                {
                    "name": "C4",
                    "midi": 60,
                    "time": 1196.7521883750228,
                    "velocity": 0.3937007874015748,
                    "duration": 0.1546391249999033
                },
                {
                    "name": "B3",
                    "midi": 59,
                    "time": 1196.9068275000227,
                    "velocity": 0.3937007874015748,
                    "duration": 0.1546391249999033
                },
                {
                    "name": "C4",
                    "midi": 60,
                    "time": 1197.0614666250226,
                    "velocity": 0.36220472440944884,
                    "duration": 0.1546391249999033
                },
                {
                    "name": "C#4",
                    "midi": 61,
                    "time": 1197.2161057500225,
                    "velocity": 0.36220472440944884,
                    "duration": 0.30927825000003395
                },
                {
                    "name": "A#3",
                    "midi": 58,
                    "time": 1197.5253840000225,
                    "velocity": 0.47244094488188976,
                    "duration": 0.30927825000003395
                },
                {
                    "name": "C#4",
                    "midi": 61,
                    "time": 1197.8346622500226,
                    "velocity": 0.4094488188976378,
                    "duration": 0.30927825000003395
                },
                {
                    "name": "A#3",
                    "midi": 58,
                    "time": 1198.1439405000226,
                    "velocity": 0.4094488188976378,
                    "duration": 0.30927825000003395
                },
                {
                    "name": "C#4",
                    "midi": 61,
                    "time": 1198.4532187500226,
                    "velocity": 0.41732283464566927,
                    "duration": 0.30927825000003395
                },
                {
                    "name": "G#3",
                    "midi": 56,
                    "time": 1198.7624970000227,
                    "velocity": 0.49606299212598426,
                    "duration": 0.30927825000003395
                },
                {
                    "name": "C#4",
                    "midi": 61,
                    "time": 1199.0717752500227,
                    "velocity": 0.4409448818897638,
                    "duration": 0.30927825000003395
                },
                {
                    "name": "G#3",
                    "midi": 56,
                    "time": 1199.3810535000227,
                    "velocity": 0.44881889763779526,
                    "duration": 0.30927825000003395
                },
                {
                    "name": "C#4",
                    "midi": 61,
                    "time": 1199.6903317500228,
                    "velocity": 0.47244094488188976,
                    "duration": 0.30927825000003395
                },
                {
                    "name": "F#3",
                    "midi": 54,
                    "time": 1199.9996100000228,
                    "velocity": 0.5354330708661418,
                    "duration": 0.30927825000003395
                },
                {
                    "name": "C#4",
                    "midi": 61,
                    "time": 1200.3088882500228,
                    "velocity": 0.4881889763779528,
                    "duration": 0.30927825000003395
                },
                {
                    "name": "F#3",
                    "midi": 54,
                    "time": 1200.6181665000229,
                    "velocity": 0.49606299212598426,
                    "duration": 0.30927825000003395
                },
                {
                    "name": "C#4",
                    "midi": 61,
                    "time": 1200.927444750023,
                    "velocity": 0.4645669291338583,
                    "duration": 0.30927825000003395
                },
                {
                    "name": "F3",
                    "midi": 53,
                    "time": 1201.236723000023,
                    "velocity": 0.5669291338582677,
                    "duration": 0.30927825000003395
                },
                {
                    "name": "C#4",
                    "midi": 61,
                    "time": 1201.546001250023,
                    "velocity": 0.5118110236220472,
                    "duration": 0.30927825000003395
                },
                {
                    "name": "F3",
                    "midi": 53,
                    "time": 1201.855279500023,
                    "velocity": 0.5275590551181102,
                    "duration": 0.30927825000003395
                },
                {
                    "name": "C#4",
                    "midi": 61,
                    "time": 1202.164557750023,
                    "velocity": 0.5275590551181102,
                    "duration": 0.30927825000003395
                },
                {
                    "name": "E3",
                    "midi": 52,
                    "time": 1202.473836000023,
                    "velocity": 0.7086614173228346,
                    "duration": 0.6185565000000679
                },
                {
                    "name": "G4",
                    "midi": 67,
                    "time": 1203.7109490000232,
                    "velocity": 0.5905511811023622,
                    "duration": 0.6185565000000679
                },
                {
                    "name": "A#4",
                    "midi": 70,
                    "time": 1203.7109490000232,
                    "velocity": 0.5905511811023622,
                    "duration": 0.6185565000000679
                },
                {
                    "name": "C#5",
                    "midi": 73,
                    "time": 1203.7109490000232,
                    "velocity": 0.7086614173228346,
                    "duration": 0.6185565000000679
                },
                {
                    "name": "C5",
                    "midi": 72,
                    "time": 1206.1851750000233,
                    "velocity": 0.3228346456692913,
                    "duration": 0.10309275000008711
                },
                {
                    "name": "C#5",
                    "midi": 73,
                    "time": 1206.2882677500234,
                    "velocity": 0.3228346456692913,
                    "duration": 0.10309275000008711
                },
                {
                    "name": "D#5",
                    "midi": 75,
                    "time": 1206.3913605000234,
                    "velocity": 0.28346456692913385,
                    "duration": 0.10309275000008711
                },
                {
                    "name": "C#5",
                    "midi": 73,
                    "time": 1206.4944532500235,
                    "velocity": 0.3700787401574803,
                    "duration": 0.6185565000000679
                },
                {
                    "name": "C5",
                    "midi": 72,
                    "time": 1207.1130097500236,
                    "velocity": 0.3228346456692913,
                    "duration": 0.30927825000003395
                },
                {
                    "name": "C5",
                    "midi": 72,
                    "time": 1207.4222880000236,
                    "velocity": 0.36220472440944884,
                    "duration": 0.4123709999998937
                },
                {
                    "name": "G#5",
                    "midi": 80,
                    "time": 1207.8346590000235,
                    "velocity": 0.41732283464566927,
                    "duration": 0.4123709999998937
                },
                {
                    "name": "G5",
                    "midi": 79,
                    "time": 1208.2470300000234,
                    "velocity": 0.3700787401574803,
                    "duration": 0.4123709999998937
                },
                {
                    "name": "F5",
                    "midi": 77,
                    "time": 1208.6594010000233,
                    "velocity": 0.3700787401574803,
                    "duration": 0.4123709999998937
                },
                {
                    "name": "C5",
                    "midi": 72,
                    "time": 1209.0717720000232,
                    "velocity": 0.33858267716535434,
                    "duration": 0.4123709999998937
                },
                {
                    "name": "G#4",
                    "midi": 68,
                    "time": 1209.484143000023,
                    "velocity": 0.33858267716535434,
                    "duration": 0.4123709999998937
                },
                {
                    "name": "G4",
                    "midi": 67,
                    "time": 1209.896514000023,
                    "velocity": 0.3700787401574803,
                    "duration": 0.4123709999998937
                },
                {
                    "name": "D#5",
                    "midi": 75,
                    "time": 1210.3088850000229,
                    "velocity": 0.4094488188976378,
                    "duration": 0.4123709999998937
                },
                {
                    "name": "C5",
                    "midi": 72,
                    "time": 1210.7212560000228,
                    "velocity": 0.30708661417322836,
                    "duration": 0.4123709999998937
                },
                {
                    "name": "C#5",
                    "midi": 73,
                    "time": 1211.1336270000227,
                    "velocity": 0.3464566929133858,
                    "duration": 0.4123709999998937
                },
                {
                    "name": "A#4",
                    "midi": 70,
                    "time": 1211.5459980000226,
                    "velocity": 0.2992125984251969,
                    "duration": 0.4123709999998937
                },
                {
                    "name": "G4",
                    "midi": 67,
                    "time": 1211.9583690000225,
                    "velocity": 0.29133858267716534,
                    "duration": 0.4123709999998937
                },
                {
                    "name": "F4",
                    "midi": 65,
                    "time": 1212.3707400000224,
                    "velocity": 0.3464566929133858,
                    "duration": 2.474225999999362
                },
                {
                    "name": "G#3",
                    "midi": 56,
                    "time": 1212.7831110000222,
                    "velocity": 0.28346456692913385,
                    "duration": 0.4123709999998937
                },
                {
                    "name": "A#3",
                    "midi": 58,
                    "time": 1213.1954820000221,
                    "velocity": 0.29133858267716534,
                    "duration": 0.4123709999998937
                },
                {
                    "name": "C4",
                    "midi": 60,
                    "time": 1213.607853000022,
                    "velocity": 0.2992125984251969,
                    "duration": 0.4123709999998937
                },
                {
                    "name": "A#3",
                    "midi": 58,
                    "time": 1214.020224000022,
                    "velocity": 0.28346456692913385,
                    "duration": 0.4123709999998937
                },
                {
                    "name": "G#3",
                    "midi": 56,
                    "time": 1214.4325950000218,
                    "velocity": 0.2677165354330709,
                    "duration": 0.4123709999998937
                },
                {
                    "name": "C#4",
                    "midi": 61,
                    "time": 1214.8449660000217,
                    "velocity": 0.25196850393700787,
                    "duration": 1.2371129999999084
                },
                {
                    "name": "E4",
                    "midi": 64,
                    "time": 1214.8449660000217,
                    "velocity": 0.25196850393700787,
                    "duration": 2.4742260000000442
                },
                {
                    "name": "C4",
                    "midi": 60,
                    "time": 1216.0820790000216,
                    "velocity": 0.3464566929133858,
                    "duration": 0.6185565000000679
                },
                {
                    "name": "A#3",
                    "midi": 58,
                    "time": 1216.7006355000217,
                    "velocity": 0.31496062992125984,
                    "duration": 0.6185565000000679
                },
                {
                    "name": "F4",
                    "midi": 65,
                    "time": 1217.3191920000218,
                    "velocity": 0.2992125984251969,
                    "duration": 2.474225999999362
                },
                {
                    "name": "G#3",
                    "midi": 56,
                    "time": 1217.7315630000217,
                    "velocity": 0.2204724409448819,
                    "duration": 0.4123709999998937
                },
                {
                    "name": "A#3",
                    "midi": 58,
                    "time": 1218.1439340000215,
                    "velocity": 0.2440944881889764,
                    "duration": 0.4123709999998937
                },
                {
                    "name": "C4",
                    "midi": 60,
                    "time": 1218.5563050000214,
                    "velocity": 0.2440944881889764,
                    "duration": 0.4123709999998937
                },
                {
                    "name": "A#3",
                    "midi": 58,
                    "time": 1218.9686760000213,
                    "velocity": 0.2283464566929134,
                    "duration": 0.4123709999998937
                },
                {
                    "name": "G#3",
                    "midi": 56,
                    "time": 1219.3810470000212,
                    "velocity": 0.2125984251968504,
                    "duration": 0.4123709999998937
                },
                {
                    "name": "E4",
                    "midi": 64,
                    "time": 1219.7934180000211,
                    "velocity": 0.1968503937007874,
                    "duration": 2.4742260000000442
                },
                {
                    "name": "C#4",
                    "midi": 61,
                    "time": 1219.7934180000211,
                    "velocity": 0.1968503937007874,
                    "duration": 1.2371129999999084
                },
                {
                    "name": "C4",
                    "midi": 60,
                    "time": 1221.030531000021,
                    "velocity": 0.2755905511811024,
                    "duration": 0.6185565000000679
                },
                {
                    "name": "A#3",
                    "midi": 58,
                    "time": 1221.649087500021,
                    "velocity": 0.2283464566929134,
                    "duration": 0.6185565000000679
                },
                {
                    "name": "G#3",
                    "midi": 56,
                    "time": 1222.2676440000212,
                    "velocity": 0.2047244094488189,
                    "duration": 1.2371129999999084
                },
                {
                    "name": "F4",
                    "midi": 65,
                    "time": 1222.2676440000212,
                    "velocity": 0.2440944881889764,
                    "duration": 1.2371129999999084
                },
                {
                    "name": "G#3",
                    "midi": 56,
                    "time": 1224.741870000021,
                    "velocity": 0.1968503937007874,
                    "duration": 1.2371129999999084
                },
                {
                    "name": "F4",
                    "midi": 65,
                    "time": 1224.741870000021,
                    "velocity": 0.23622047244094488,
                    "duration": 1.2371129999999084
                },
                {
                    "name": "C4",
                    "midi": 60,
                    "time": 1224.741870000021,
                    "velocity": 0.1968503937007874,
                    "duration": 1.2371129999999084
                },
                {
                    "name": "G#3",
                    "midi": 56,
                    "time": 1227.2160960000208,
                    "velocity": 0.18110236220472442,
                    "duration": 2.4742260000000442
                },
                {
                    "name": "C4",
                    "midi": 60,
                    "time": 1227.2160960000208,
                    "velocity": 0.18110236220472442,
                    "duration": 2.4742260000000442
                },
                {
                    "name": "F4",
                    "midi": 65,
                    "time": 1227.2160960000208,
                    "velocity": 0.2204724409448819,
                    "duration": 2.4742260000000442
                }
            ],
            "controlChanges": {},
            "id": 1,
            "name": "Piano right",
            "instrumentNumber": 0,
            "instrument": "acoustic grand piano",
            "instrumentFamily": "piano",
            "channelNumber": 0,
            "isPercussion": false
        },
        {
            "startTime": 0,
            "duration": 1229.6903220000286,
            "length": 3395,
            "notes": [
                {
                    "name": "C3",
                    "midi": 48,
                    "time": 0,
                    "velocity": 0.4015748031496063,
                    "duration": 4.9484520000000005
                },
                {
                    "name": "F2",
                    "midi": 41,
                    "time": 0,
                    "velocity": 0.33858267716535434,
                    "duration": 12.371130000000003
                },
                {
                    "name": "G#3",
                    "midi": 56,
                    "time": 0,
                    "velocity": 0.4015748031496063,
                    "duration": 3.7113390000000006
                },
                {
                    "name": "E3",
                    "midi": 52,
                    "time": 3.7113390000000006,
                    "velocity": 0.33858267716535434,
                    "duration": 1.237113
                },
                {
                    "name": "G2",
                    "midi": 43,
                    "time": 3.7113390000000006,
                    "velocity": 0.28346456692913385,
                    "duration": 1.237113
                },
                {
                    "name": "F3",
                    "midi": 53,
                    "time": 4.9484520000000005,
                    "velocity": 0.33858267716535434,
                    "duration": 7.422678000000002
                },
                {
                    "name": "G#2",
                    "midi": 44,
                    "time": 4.9484520000000005,
                    "velocity": 0.33858267716535434,
                    "duration": 1.237113
                },
                {
                    "name": "A2",
                    "midi": 45,
                    "time": 6.185565,
                    "velocity": 0.30708661417322836,
                    "duration": 1.237113
                },
                {
                    "name": "G2",
                    "midi": 43,
                    "time": 7.422678,
                    "velocity": 0.33858267716535434,
                    "duration": 1.237113
                },
                {
                    "name": "A2",
                    "midi": 45,
                    "time": 8.659791,
                    "velocity": 0.31496062992125984,
                    "duration": 1.2371130000000008
                },
                {
                    "name": "C#3",
                    "midi": 49,
                    "time": 9.896904000000001,
                    "velocity": 0.3464566929133858,
                    "duration": 1.2371130000000008
                },
                {
                    "name": "C3",
                    "midi": 48,
                    "time": 11.134017000000002,
                    "velocity": 0.3228346456692913,
                    "duration": 1.2371130000000008
                },
                {
                    "name": "A#2",
                    "midi": 46,
                    "time": 12.371130000000003,
                    "velocity": 0.3228346456692913,
                    "duration": 1.2371130000000008
                },
                {
                    "name": "C#3",
                    "midi": 49,
                    "time": 12.371130000000003,
                    "velocity": 0.3858267716535433,
                    "duration": 1.2371130000000008
                },
                {
                    "name": "C3",
                    "midi": 48,
                    "time": 13.608243000000003,
                    "velocity": 0.3543307086614173,
                    "duration": 1.2371130000000008
                },
                {
                    "name": "G#2",
                    "midi": 44,
                    "time": 13.608243000000003,
                    "velocity": 0.2992125984251969,
                    "duration": 1.2371130000000008
                },
                {
                    "name": "A#2",
                    "midi": 46,
                    "time": 14.845356000000004,
                    "velocity": 0.44881889763779526,
                    "duration": 0.6185565000000004
                },
                {
                    "name": "G2",
                    "midi": 43,
                    "time": 14.845356000000004,
                    "velocity": 0.3700787401574803,
                    "duration": 0.6185565000000004
                },
                {
                    "name": "E3",
                    "midi": 52,
                    "time": 16.082469000000003,
                    "velocity": 0.3779527559055118,
                    "duration": 0.6185565000000004
                },
                {
                    "name": "G3",
                    "midi": 55,
                    "time": 16.082469000000003,
                    "velocity": 0.3779527559055118,
                    "duration": 0.6185565000000004
                },
                {
                    "name": "A#3",
                    "midi": 58,
                    "time": 16.082469000000003,
                    "velocity": 0.3779527559055118,
                    "duration": 0.6185565000000004
                },
                {
                    "name": "C#4",
                    "midi": 61,
                    "time": 16.082469000000003,
                    "velocity": 0.44881889763779526,
                    "duration": 0.6185565000000004
                },
                {
                    "name": "G#3",
                    "midi": 56,
                    "time": 19.793808000000006,
                    "velocity": 0.2755905511811024,
                    "duration": 1.2371130000000008
                },
                {
                    "name": "F3",
                    "midi": 53,
                    "time": 19.793808000000006,
                    "velocity": 0.2283464566929134,
                    "duration": 1.2371130000000008
                },
                {
                    "name": "A#2",
                    "midi": 46,
                    "time": 22.268034000000007,
                    "velocity": 0.2125984251968504,
                    "duration": 1.2371130000000008
                },
                {
                    "name": "C#3",
                    "midi": 49,
                    "time": 22.268034000000007,
                    "velocity": 0.2125984251968504,
                    "duration": 1.2371130000000008
                },
                {
                    "name": "G3",
                    "midi": 55,
                    "time": 22.268034000000007,
                    "velocity": 0.25196850393700787,
                    "duration": 1.2371130000000008
                },
                {
                    "name": "C3",
                    "midi": 48,
                    "time": 24.74226000000001,
                    "velocity": 0.2283464566929134,
                    "duration": 3.092782500000002
                },
                {
                    "name": "F3",
                    "midi": 53,
                    "time": 25.15463100000001,
                    "velocity": 0.25196850393700787,
                    "duration": 0.41237100000000027
                },
                {
                    "name": "G#3",
                    "midi": 56,
                    "time": 25.56700200000001,
                    "velocity": 0.2677165354330709,
                    "duration": 0.41237100000000027
                },
                {
                    "name": "C4",
                    "midi": 60,
                    "time": 25.97937300000001,
                    "velocity": 0.29133858267716534,
                    "duration": 0.41237100000000027
                },
                {
                    "name": "A#3",
                    "midi": 58,
                    "time": 26.39174400000001,
                    "velocity": 0.2440944881889764,
                    "duration": 0.41237100000000027
                },
                {
                    "name": "G#3",
                    "midi": 56,
                    "time": 26.80411500000001,
                    "velocity": 0.2440944881889764,
                    "duration": 0.41237100000000027
                },
                {
                    "name": "G3",
                    "midi": 55,
                    "time": 27.21648600000001,
                    "velocity": 0.2755905511811024,
                    "duration": 0.6185565000000004
                },
                {
                    "name": "C3",
                    "midi": 48,
                    "time": 29.690712000000012,
                    "velocity": 0.4015748031496063,
                    "duration": 4.948452000000003
                },
                {
                    "name": "G#3",
                    "midi": 56,
                    "time": 29.690712000000012,
                    "velocity": 0.4015748031496063,
                    "duration": 3.7113390000000024
                },
                {
                    "name": "F2",
                    "midi": 41,
                    "time": 29.690712000000012,
                    "velocity": 0.33858267716535434,
                    "duration": 10.515460500000003
                },
                {
                    "name": "E3",
                    "midi": 52,
                    "time": 33.402051000000014,
                    "velocity": 0.33858267716535434,
                    "duration": 1.2371130000000008
                },
                {
                    "name": "G2",
                    "midi": 43,
                    "time": 33.402051000000014,
                    "velocity": 0.28346456692913385,
                    "duration": 1.2371130000000008
                },
                {
                    "name": "F3",
                    "midi": 53,
                    "time": 34.639164000000015,
                    "velocity": 0.33858267716535434,
                    "duration": 5.5670085
                },
                {
                    "name": "G#2",
                    "midi": 44,
                    "time": 34.639164000000015,
                    "velocity": 0.33858267716535434,
                    "duration": 1.2371130000000008
                },
                {
                    "name": "A2",
                    "midi": 45,
                    "time": 35.876277000000016,
                    "velocity": 0.30708661417322836,
                    "duration": 1.2371130000000008
                },
                {
                    "name": "G2",
                    "midi": 43,
                    "time": 37.11339000000002,
                    "velocity": 0.33858267716535434,
                    "duration": 1.2371130000000008
                },
                {
                    "name": "A2",
                    "midi": 45,
                    "time": 38.35050300000002,
                    "velocity": 0.31496062992125984,
                    "duration": 1.2371130000000008
                },
                {
                    "name": "C#3",
                    "midi": 49,
                    "time": 39.58761600000002,
                    "velocity": 0.3464566929133858,
                    "duration": 0.6185564999999968
                },
                {
                    "name": "C#3",
                    "midi": 49,
                    "time": 40.206172500000015,
                    "velocity": 0.25196850393700787,
                    "duration": 0.3092782499999984
                },
                {
                    "name": "F3",
                    "midi": 53,
                    "time": 40.206172500000015,
                    "velocity": 0.29133858267716534,
                    "duration": 0.3092782499999984
                },
                {
                    "name": "D#3",
                    "midi": 51,
                    "time": 40.82472900000001,
                    "velocity": 0.3228346456692913,
                    "duration": 0.3092782499999984
                },
                {
                    "name": "C3",
                    "midi": 48,
                    "time": 40.82472900000001,
                    "velocity": 0.25196850393700787,
                    "duration": 0.3092782499999984
                },
                {
                    "name": "C3",
                    "midi": 48,
                    "time": 41.44328550000001,
                    "velocity": 0.28346456692913385,
                    "duration": 0.3092782499999984
                },
                {
                    "name": "D#3",
                    "midi": 51,
                    "time": 41.44328550000001,
                    "velocity": 0.3464566929133858,
                    "duration": 0.3092782499999984
                },
                {
                    "name": "C#3",
                    "midi": 49,
                    "time": 42.061842000000006,
                    "velocity": 0.3700787401574803,
                    "duration": 0.3092782499999984
                },
                {
                    "name": "A#2",
                    "midi": 46,
                    "time": 42.061842000000006,
                    "velocity": 0.30708661417322836,
                    "duration": 0.3092782499999984
                },
                {
                    "name": "A#2",
                    "midi": 46,
                    "time": 42.6803985,
                    "velocity": 0.33858267716535434,
                    "duration": 0.3092782499999984
                },
                {
                    "name": "C#3",
                    "midi": 49,
                    "time": 42.6803985,
                    "velocity": 0.4015748031496063,
                    "duration": 0.3092782499999984
                },
                {
                    "name": "C3",
                    "midi": 48,
                    "time": 43.298955,
                    "velocity": 0.4330708661417323,
                    "duration": 0.3092782499999984
                },
                {
                    "name": "G#2",
                    "midi": 44,
                    "time": 43.298955,
                    "velocity": 0.36220472440944884,
                    "duration": 0.3092782499999984
                },
                {
                    "name": "C3",
                    "midi": 48,
                    "time": 43.917511499999996,
                    "velocity": 0.47244094488188976,
                    "duration": 0.3092782499999984
                },
                {
                    "name": "G#2",
                    "midi": 44,
                    "time": 43.917511499999996,
                    "velocity": 0.3858267716535433,
                    "duration": 0.3092782499999984
                },
                {
                    "name": "A#2",
                    "midi": 46,
                    "time": 44.53606799999999,
                    "velocity": 0.5039370078740157,
                    "duration": 0.6185564999999968
                },
                {
                    "name": "G2",
                    "midi": 43,
                    "time": 44.53606799999999,
                    "velocity": 0.4251968503937008,
                    "duration": 0.6185564999999968
                },
                {
                    "name": "G3",
                    "midi": 55,
                    "time": 45.77318099999999,
                    "velocity": 0.4330708661417323,
                    "duration": 0.6185564999999968
                },
                {
                    "name": "A#3",
                    "midi": 58,
                    "time": 45.77318099999999,
                    "velocity": 0.4330708661417323,
                    "duration": 0.6185564999999968
                },
                {
                    "name": "E3",
                    "midi": 52,
                    "time": 45.77318099999999,
                    "velocity": 0.4330708661417323,
                    "duration": 0.6185564999999968
                },
                {
                    "name": "C#4",
                    "midi": 61,
                    "time": 45.77318099999999,
                    "velocity": 0.5118110236220472,
                    "duration": 0.6185564999999968
                },
                {
                    "name": "F3",
                    "midi": 53,
                    "time": 49.48451999999998,
                    "velocity": 0.2283464566929134,
                    "duration": 1.2371130000000008
                },
                {
                    "name": "G#3",
                    "midi": 56,
                    "time": 49.48451999999998,
                    "velocity": 0.2755905511811024,
                    "duration": 1.2371130000000008
                },
                {
                    "name": "G3",
                    "midi": 55,
                    "time": 51.958745999999984,
                    "velocity": 0.25196850393700787,
                    "duration": 1.2371130000000008
                },
                {
                    "name": "C#3",
                    "midi": 49,
                    "time": 51.958745999999984,
                    "velocity": 0.2125984251968504,
                    "duration": 1.2371130000000008
                },
                {
                    "name": "A#2",
                    "midi": 46,
                    "time": 51.958745999999984,
                    "velocity": 0.2125984251968504,
                    "duration": 1.2371130000000008
                },
                {
                    "name": "G#3",
                    "midi": 56,
                    "time": 54.432971999999985,
                    "velocity": 0.33858267716535434,
                    "duration": 0.6185564999999968
                },
                {
                    "name": "C3",
                    "midi": 48,
                    "time": 54.432971999999985,
                    "velocity": 0.2755905511811024,
                    "duration": 0.6185564999999968
                },
                {
                    "name": "F3",
                    "midi": 53,
                    "time": 54.432971999999985,
                    "velocity": 0.2755905511811024,
                    "duration": 0.6185564999999968
                },
                {
                    "name": "G#3",
                    "midi": 56,
                    "time": 55.67008499999998,
                    "velocity": 0.4251968503937008,
                    "duration": 0.41237100000000027
                },
                {
                    "name": "F3",
                    "midi": 53,
                    "time": 56.08245599999998,
                    "velocity": 0.36220472440944884,
                    "duration": 0.41237100000000027
                },
                {
                    "name": "C#4",
                    "midi": 61,
                    "time": 56.49482699999998,
                    "velocity": 0.3779527559055118,
                    "duration": 0.41237100000000027
                },
                {
                    "name": "C4",
                    "midi": 60,
                    "time": 56.90719799999998,
                    "velocity": 0.4251968503937008,
                    "duration": 0.6185564999999968
                },
                {
                    "name": "C3",
                    "midi": 48,
                    "time": 58.14431099999997,
                    "velocity": 0.3937007874015748,
                    "duration": 0.4639173750000012
                },
                {
                    "name": "C4",
                    "midi": 60,
                    "time": 58.14431099999997,
                    "velocity": 0.47244094488188976,
                    "duration": 0.4639173750000012
                },
                {
                    "name": "F2",
                    "midi": 41,
                    "time": 59.381423999999974,
                    "velocity": 0.3937007874015748,
                    "duration": 0.4639173750000012
                },
                {
                    "name": "F3",
                    "midi": 53,
                    "time": 59.381423999999974,
                    "velocity": 0.47244094488188976,
                    "duration": 0.4639173750000012
                },
                {
                    "name": "F4",
                    "midi": 65,
                    "time": 60.618536999999975,
                    "velocity": 0.2125984251968504,
                    "duration": 1.2371130000000008
                },
                {
                    "name": "F3",
                    "midi": 53,
                    "time": 60.618536999999975,
                    "velocity": 0.1732283464566929,
                    "duration": 1.2371130000000008
                },
                {
                    "name": "F3",
                    "midi": 53,
                    "time": 63.09276299999998,
                    "velocity": 0.1732283464566929,
                    "duration": 1.2371129999999937
                },
                {
                    "name": "F4",
                    "midi": 65,
                    "time": 63.09276299999998,
                    "velocity": 0.2125984251968504,
                    "duration": 1.2371129999999937
                },
                {
                    "name": "F4",
                    "midi": 65,
                    "time": 65.56698899999996,
                    "velocity": 0.2125984251968504,
                    "duration": 1.2371129999999937
                },
                {
                    "name": "F3",
                    "midi": 53,
                    "time": 65.56698899999996,
                    "velocity": 0.1732283464566929,
                    "duration": 1.2371129999999937
                },
                {
                    "name": "F3",
                    "midi": 53,
                    "time": 68.04121499999995,
                    "velocity": 0.1732283464566929,
                    "duration": 1.2371129999999937
                },
                {
                    "name": "F4",
                    "midi": 65,
                    "time": 68.04121499999995,
                    "velocity": 0.2125984251968504,
                    "duration": 1.2371129999999937
                },
                {
                    "name": "F3",
                    "midi": 53,
                    "time": 70.51544099999994,
                    "velocity": 0.1732283464566929,
                    "duration": 1.2371129999999937
                },
                {
                    "name": "F4",
                    "midi": 65,
                    "time": 70.51544099999994,
                    "velocity": 0.2125984251968504,
                    "duration": 1.2371129999999937
                },
                {
                    "name": "A#2",
                    "midi": 46,
                    "time": 71.75255399999993,
                    "velocity": 0.2125984251968504,
                    "duration": 0.6185564999999968
                },
                {
                    "name": "F#3",
                    "midi": 54,
                    "time": 72.98966699999993,
                    "velocity": 0.1732283464566929,
                    "duration": 0.6185564999999968
                },
                {
                    "name": "A#3",
                    "midi": 58,
                    "time": 72.98966699999993,
                    "velocity": 0.2125984251968504,
                    "duration": 0.6185564999999968
                },
                {
                    "name": "C3",
                    "midi": 48,
                    "time": 74.22677999999992,
                    "velocity": 0.2125984251968504,
                    "duration": 0.6185564999999968
                },
                {
                    "name": "F3",
                    "midi": 53,
                    "time": 75.46389299999991,
                    "velocity": 0.1732283464566929,
                    "duration": 0.6185564999999968
                },
                {
                    "name": "G#3",
                    "midi": 56,
                    "time": 75.46389299999991,
                    "velocity": 0.2125984251968504,
                    "duration": 0.6185564999999968
                },
                {
                    "name": "C3",
                    "midi": 48,
                    "time": 76.70100599999991,
                    "velocity": 0.2125984251968504,
                    "duration": 0.6185564999999968
                },
                {
                    "name": "E3",
                    "midi": 52,
                    "time": 77.9381189999999,
                    "velocity": 0.1732283464566929,
                    "duration": 0.6185564999999968
                },
                {
                    "name": "G3",
                    "midi": 55,
                    "time": 77.9381189999999,
                    "velocity": 0.2125984251968504,
                    "duration": 0.6185564999999968
                },
                {
                    "name": "F2",
                    "midi": 41,
                    "time": 79.1752319999999,
                    "velocity": 0.31496062992125984,
                    "duration": 0.6185564999999968
                },
                {
                    "name": "F4",
                    "midi": 65,
                    "time": 80.41234499999989,
                    "velocity": 0.2125984251968504,
                    "duration": 1.2371129999999937
                },
                {
                    "name": "F3",
                    "midi": 53,
                    "time": 80.41234499999989,
                    "velocity": 0.1732283464566929,
                    "duration": 1.2371129999999937
                },
                {
                    "name": "F4",
                    "midi": 65,
                    "time": 82.88657099999988,
                    "velocity": 0.2125984251968504,
                    "duration": 1.2371129999999937
                },
                {
                    "name": "F3",
                    "midi": 53,
                    "time": 82.88657099999988,
                    "velocity": 0.1732283464566929,
                    "duration": 1.2371129999999937
                },
                {
                    "name": "F4",
                    "midi": 65,
                    "time": 85.36079699999986,
                    "velocity": 0.2125984251968504,
                    "duration": 1.2371129999999937
                },
                {
                    "name": "A#3",
                    "midi": 58,
                    "time": 85.36079699999986,
                    "velocity": 0.1732283464566929,
                    "duration": 1.2371129999999937
                },
                {
                    "name": "D#3",
                    "midi": 51,
                    "time": 87.83502299999985,
                    "velocity": 0.1732283464566929,
                    "duration": 1.2371129999999937
                },
                {
                    "name": "D#4",
                    "midi": 63,
                    "time": 87.83502299999985,
                    "velocity": 0.2125984251968504,
                    "duration": 1.2371129999999937
                },
                {
                    "name": "G#3",
                    "midi": 56,
                    "time": 90.30924899999984,
                    "velocity": 0.1732283464566929,
                    "duration": 1.2371129999999937
                },
                {
                    "name": "D#4",
                    "midi": 63,
                    "time": 90.30924899999984,
                    "velocity": 0.2125984251968504,
                    "duration": 1.2371129999999937
                },
                {
                    "name": "C#3",
                    "midi": 49,
                    "time": 91.54636199999983,
                    "velocity": 0.2125984251968504,
                    "duration": 0.6185564999999968
                },
                {
                    "name": "C#4",
                    "midi": 61,
                    "time": 92.78347499999983,
                    "velocity": 0.1732283464566929,
                    "duration": 0.6185564999999968
                },
                {
                    "name": "F4",
                    "midi": 65,
                    "time": 92.78347499999983,
                    "velocity": 0.2125984251968504,
                    "duration": 0.6185564999999968
                },
                {
                    "name": "D#3",
                    "midi": 51,
                    "time": 94.02058799999982,
                    "velocity": 0.2125984251968504,
                    "duration": 0.6185564999999968
                },
                {
                    "name": "D#4",
                    "midi": 63,
                    "time": 95.25770099999981,
                    "velocity": 0.2125984251968504,
                    "duration": 0.6185564999999968
                },
                {
                    "name": "C4",
                    "midi": 60,
                    "time": 95.25770099999981,
                    "velocity": 0.1732283464566929,
                    "duration": 0.6185564999999968
                },
                {
                    "name": "D#3",
                    "midi": 51,
                    "time": 96.4948139999998,
                    "velocity": 0.2125984251968504,
                    "duration": 0.6185564999999968
                },
                {
                    "name": "G3",
                    "midi": 55,
                    "time": 97.7319269999998,
                    "velocity": 0.1732283464566929,
                    "duration": 0.6185564999999968
                },
                {
                    "name": "C#4",
                    "midi": 61,
                    "time": 97.7319269999998,
                    "velocity": 0.2125984251968504,
                    "duration": 0.6185564999999968
                },
                {
                    "name": "G#3",
                    "midi": 56,
                    "time": 98.9690399999998,
                    "velocity": 0.3228346456692913,
                    "duration": 0.6185564999999968
                },
                {
                    "name": "C4",
                    "midi": 60,
                    "time": 98.9690399999998,
                    "velocity": 0.3228346456692913,
                    "duration": 0.6185564999999968
                },
                {
                    "name": "D#4",
                    "midi": 63,
                    "time": 99.58759649999979,
                    "velocity": 0.2125984251968504,
                    "duration": 0.30927825000000553
                },
                {
                    "name": "D#4",
                    "midi": 63,
                    "time": 100.2061529999998,
                    "velocity": 0.23622047244094488,
                    "duration": 0.30927825000000553
                },
                {
                    "name": "D#4",
                    "midi": 63,
                    "time": 100.82470949999981,
                    "velocity": 0.2125984251968504,
                    "duration": 0.30927825000000553
                },
                {
                    "name": "E4",
                    "midi": 64,
                    "time": 101.44326599999982,
                    "velocity": 0.29133858267716534,
                    "duration": 0.6185564999999968
                },
                {
                    "name": "D#4",
                    "midi": 63,
                    "time": 102.06182249999982,
                    "velocity": 0.2125984251968504,
                    "duration": 0.6185564999999968
                },
                {
                    "name": "D#4",
                    "midi": 63,
                    "time": 102.68037899999982,
                    "velocity": 0.23622047244094488,
                    "duration": 0.30927825000000553
                },
                {
                    "name": "D#4",
                    "midi": 63,
                    "time": 103.29893549999983,
                    "velocity": 0.2125984251968504,
                    "duration": 0.30927825000000553
                },
                {
                    "name": "D#3",
                    "midi": 51,
                    "time": 103.91749199999984,
                    "velocity": 0.2992125984251969,
                    "duration": 0.6185564999999968
                },
                {
                    "name": "D#4",
                    "midi": 63,
                    "time": 104.53604849999984,
                    "velocity": 0.2125984251968504,
                    "duration": 0.30927825000000553
                },
                {
                    "name": "D#4",
                    "midi": 63,
                    "time": 105.15460499999985,
                    "velocity": 0.2125984251968504,
                    "duration": 0.30927825000000553
                },
                {
                    "name": "D#4",
                    "midi": 63,
                    "time": 105.77316149999986,
                    "velocity": 0.2125984251968504,
                    "duration": 0.30927825000000553
                },
                {
                    "name": "D#3",
                    "midi": 51,
                    "time": 106.39171799999987,
                    "velocity": 0.3464566929133858,
                    "duration": 0.6185564999999968
                },
                {
                    "name": "D#4",
                    "midi": 63,
                    "time": 107.01027449999987,
                    "velocity": 0.29133858267716534,
                    "duration": 0.30927825000000553
                },
                {
                    "name": "D#4",
                    "midi": 63,
                    "time": 107.62883099999988,
                    "velocity": 0.31496062992125984,
                    "duration": 0.30927825000000553
                },
                {
                    "name": "D#3",
                    "midi": 51,
                    "time": 108.24738749999989,
                    "velocity": 0.3464566929133858,
                    "duration": 0.30927825000000553
                },
                {
                    "name": "C#4",
                    "midi": 61,
                    "time": 108.24738749999989,
                    "velocity": 0.3464566929133858,
                    "duration": 0.30927825000000553
                },
                {
                    "name": "D#4",
                    "midi": 63,
                    "time": 108.24738749999989,
                    "velocity": 0.3464566929133858,
                    "duration": 0.30927825000000553
                },
                {
                    "name": "G#3",
                    "midi": 56,
                    "time": 108.8659439999999,
                    "velocity": 0.3779527559055118,
                    "duration": 0.6185564999999968
                },
                {
                    "name": "D#4",
                    "midi": 63,
                    "time": 108.8659439999999,
                    "velocity": 0.3779527559055118,
                    "duration": 0.6185564999999968
                },
                {
                    "name": "C4",
                    "midi": 60,
                    "time": 108.8659439999999,
                    "velocity": 0.3779527559055118,
                    "duration": 0.6185564999999968
                },
                {
                    "name": "D#4",
                    "midi": 63,
                    "time": 109.4845004999999,
                    "velocity": 0.2440944881889764,
                    "duration": 0.30927825000000553
                },
                {
                    "name": "D#4",
                    "midi": 63,
                    "time": 110.10305699999991,
                    "velocity": 0.2677165354330709,
                    "duration": 0.30927825000000553
                },
                {
                    "name": "D#4",
                    "midi": 63,
                    "time": 110.72161349999992,
                    "velocity": 0.2440944881889764,
                    "duration": 0.30927825000000553
                },
                {
                    "name": "E4",
                    "midi": 64,
                    "time": 111.34016999999993,
                    "velocity": 0.33070866141732286,
                    "duration": 0.6185564999999968
                },
                {
                    "name": "D#4",
                    "midi": 63,
                    "time": 111.95872649999993,
                    "velocity": 0.2440944881889764,
                    "duration": 0.30927825000000553
                },
                {
                    "name": "D#4",
                    "midi": 63,
                    "time": 112.57728299999994,
                    "velocity": 0.2677165354330709,
                    "duration": 0.30927825000000553
                },
                {
                    "name": "F#4",
                    "midi": 66,
                    "time": 113.19583949999995,
                    "velocity": 0.2440944881889764,
                    "duration": 0.30927825000000553
                },
                {
                    "name": "F3",
                    "midi": 53,
                    "time": 113.81439599999996,
                    "velocity": 0.33858267716535434,
                    "duration": 0.6185564999999968
                },
                {
                    "name": "F4",
                    "midi": 65,
                    "time": 114.43295249999996,
                    "velocity": 0.2440944881889764,
                    "duration": 0.30927825000000553
                },
                {
                    "name": "F4",
                    "midi": 65,
                    "time": 115.05150899999997,
                    "velocity": 0.2440944881889764,
                    "duration": 0.30927825000000553
                },
                {
                    "name": "F4",
                    "midi": 65,
                    "time": 115.67006549999998,
                    "velocity": 0.2440944881889764,
                    "duration": 0.30927825000000553
                },
                {
                    "name": "F3",
                    "midi": 53,
                    "time": 116.28862199999999,
                    "velocity": 0.3937007874015748,
                    "duration": 0.6185564999999968
                },
                {
                    "name": "F4",
                    "midi": 65,
                    "time": 116.90717849999999,
                    "velocity": 0.33070866141732286,
                    "duration": 0.30927825000000553
                },
                {
                    "name": "F4",
                    "midi": 65,
                    "time": 117.525735,
                    "velocity": 0.36220472440944884,
                    "duration": 0.30927825000000553
                },
                {
                    "name": "F4",
                    "midi": 65,
                    "time": 118.14429150000001,
                    "velocity": 0.3937007874015748,
                    "duration": 0.30927825000000553
                },
                {
                    "name": "D#4",
                    "midi": 63,
                    "time": 118.14429150000001,
                    "velocity": 0.3937007874015748,
                    "duration": 0.30927825000000553
                },
                {
                    "name": "F3",
                    "midi": 53,
                    "time": 118.14429150000001,
                    "velocity": 0.3937007874015748,
                    "duration": 0.30927825000000553
                },
                {
                    "name": "A#3",
                    "midi": 58,
                    "time": 118.76284800000002,
                    "velocity": 0.4330708661417323,
                    "duration": 0.6185564999999968
                },
                {
                    "name": "C#4",
                    "midi": 61,
                    "time": 118.76284800000002,
                    "velocity": 0.4330708661417323,
                    "duration": 0.6185564999999968
                },
                {
                    "name": "F4",
                    "midi": 65,
                    "time": 118.76284800000002,
                    "velocity": 0.4330708661417323,
                    "duration": 0.6185564999999968
                },
                {
                    "name": "F4",
                    "midi": 65,
                    "time": 119.38140450000002,
                    "velocity": 0.2440944881889764,
                    "duration": 0.30927825000000553
                },
                {
                    "name": "F4",
                    "midi": 65,
                    "time": 119.99996100000003,
                    "velocity": 0.2677165354330709,
                    "duration": 0.30927825000000553
                },
                {
                    "name": "F4",
                    "midi": 65,
                    "time": 120.61851750000004,
                    "velocity": 0.2440944881889764,
                    "duration": 0.30927825000000553
                },
                {
                    "name": "F#4",
                    "midi": 66,
                    "time": 121.23707400000005,
                    "velocity": 0.33070866141732286,
                    "duration": 0.6185564999999968
                },
                {
                    "name": "F4",
                    "midi": 65,
                    "time": 121.85563050000005,
                    "velocity": 0.2440944881889764,
                    "duration": 0.30927825000000553
                },
                {
                    "name": "F4",
                    "midi": 65,
                    "time": 122.47418700000006,
                    "velocity": 0.2677165354330709,
                    "duration": 0.30927825000000553
                },
                {
                    "name": "F4",
                    "midi": 65,
                    "time": 123.09274350000007,
                    "velocity": 0.2440944881889764,
                    "duration": 0.30927825000000553
                },
                {
                    "name": "G3",
                    "midi": 55,
                    "time": 123.71130000000008,
                    "velocity": 0.3858267716535433,
                    "duration": 2.4742259999999874
                },
                {
                    "name": "C#4",
                    "midi": 61,
                    "time": 124.32985650000008,
                    "velocity": 0.2440944881889764,
                    "duration": 1.8556694999999905
                },
                {
                    "name": "E4",
                    "midi": 64,
                    "time": 124.32985650000008,
                    "velocity": 0.2440944881889764,
                    "duration": 0.6185564999999968
                },
                {
                    "name": "D#4",
                    "midi": 63,
                    "time": 124.94841300000007,
                    "velocity": 0.2677165354330709,
                    "duration": 0.6185564999999968
                },
                {
                    "name": "E4",
                    "midi": 64,
                    "time": 125.56696950000007,
                    "velocity": 0.2440944881889764,
                    "duration": 0.6185564999999968
                },
                {
                    "name": "G#3",
                    "midi": 56,
                    "time": 126.18552600000007,
                    "velocity": 0.3937007874015748,
                    "duration": 2.474226000000016
                },
                {
                    "name": "F4",
                    "midi": 65,
                    "time": 126.80408250000006,
                    "velocity": 0.2440944881889764,
                    "duration": 0.6185564999999968
                },
                {
                    "name": "C4",
                    "midi": 60,
                    "time": 126.80408250000006,
                    "velocity": 0.2440944881889764,
                    "duration": 1.855669500000019
                },
                {
                    "name": "D#4",
                    "midi": 63,
                    "time": 127.42263900000006,
                    "velocity": 0.2677165354330709,
                    "duration": 0.6185565000000111
                },
                {
                    "name": "G#4",
                    "midi": 68,
                    "time": 128.04119550000007,
                    "velocity": 0.2440944881889764,
                    "duration": 0.6185565000000111
                },
                {
                    "name": "G3",
                    "midi": 55,
                    "time": 128.65975200000008,
                    "velocity": 0.3858267716535433,
                    "duration": 2.4742260000000442
                },
                {
                    "name": "C#4",
                    "midi": 61,
                    "time": 129.2783085000001,
                    "velocity": 0.2440944881889764,
                    "duration": 1.8556695000000332
                },
                {
                    "name": "E4",
                    "midi": 64,
                    "time": 129.2783085000001,
                    "velocity": 0.2440944881889764,
                    "duration": 0.6185565000000111
                },
                {
                    "name": "D#4",
                    "midi": 63,
                    "time": 129.8968650000001,
                    "velocity": 0.2677165354330709,
                    "duration": 0.6185565000000111
                },
                {
                    "name": "E4",
                    "midi": 64,
                    "time": 130.51542150000012,
                    "velocity": 0.2440944881889764,
                    "duration": 0.6185565000000111
                },
                {
                    "name": "G#3",
                    "midi": 56,
                    "time": 131.13397800000013,
                    "velocity": 0.3937007874015748,
                    "duration": 2.4742260000000442
                },
                {
                    "name": "F4",
                    "midi": 65,
                    "time": 131.75253450000014,
                    "velocity": 0.2440944881889764,
                    "duration": 0.6185565000000111
                },
                {
                    "name": "C4",
                    "midi": 60,
                    "time": 131.75253450000014,
                    "velocity": 0.2440944881889764,
                    "duration": 1.8556695000000332
                },
                {
                    "name": "D#4",
                    "midi": 63,
                    "time": 132.37109100000015,
                    "velocity": 0.2677165354330709,
                    "duration": 0.6185565000000111
                },
                {
                    "name": "G#4",
                    "midi": 68,
                    "time": 132.98964750000016,
                    "velocity": 0.2440944881889764,
                    "duration": 0.6185565000000111
                },
                {
                    "name": "C#3",
                    "midi": 49,
                    "time": 133.60820400000017,
                    "velocity": 0.47244094488188976,
                    "duration": 0.30927825000000553
                },
                {
                    "name": "F4",
                    "midi": 65,
                    "time": 134.22676050000018,
                    "velocity": 0.41732283464566927,
                    "duration": 1.2371129999999937
                },
                {
                    "name": "C#4",
                    "midi": 61,
                    "time": 134.22676050000018,
                    "velocity": 0.41732283464566927,
                    "duration": 1.2371129999999937
                },
                {
                    "name": "C#4",
                    "midi": 61,
                    "time": 135.46387350000018,
                    "velocity": 0.3464566929133858,
                    "duration": 0.6185565000000111
                },
                {
                    "name": "F4",
                    "midi": 65,
                    "time": 135.46387350000018,
                    "velocity": 0.3464566929133858,
                    "duration": 0.6185565000000111
                },
                {
                    "name": "D#3",
                    "midi": 51,
                    "time": 136.0824300000002,
                    "velocity": 0.47244094488188976,
                    "duration": 0.30927825000000553
                },
                {
                    "name": "C4",
                    "midi": 60,
                    "time": 136.7009865000002,
                    "velocity": 0.4094488188976378,
                    "duration": 1.2371129999999937
                },
                {
                    "name": "D#4",
                    "midi": 63,
                    "time": 136.7009865000002,
                    "velocity": 0.4094488188976378,
                    "duration": 1.2371129999999937
                },
                {
                    "name": "D#4",
                    "midi": 63,
                    "time": 137.9380995000002,
                    "velocity": 0.3543307086614173,
                    "duration": 0.6185565000000111
                },
                {
                    "name": "C4",
                    "midi": 60,
                    "time": 137.9380995000002,
                    "velocity": 0.3543307086614173,
                    "duration": 0.6185565000000111
                },
                {
                    "name": "D#3",
                    "midi": 51,
                    "time": 138.5566560000002,
                    "velocity": 0.47244094488188976,
                    "duration": 0.30927825000000553
                },
                {
                    "name": "C#4",
                    "midi": 61,
                    "time": 139.1752125000002,
                    "velocity": 0.36220472440944884,
                    "duration": 2.474226000000016
                },
                {
                    "name": "G3",
                    "midi": 55,
                    "time": 139.1752125000002,
                    "velocity": 0.36220472440944884,
                    "duration": 1.2371129999999937
                },
                {
                    "name": "D#4",
                    "midi": 63,
                    "time": 139.1752125000002,
                    "velocity": 0.36220472440944884,
                    "duration": 2.474226000000016
                },
                {
                    "name": "G#3",
                    "midi": 56,
                    "time": 140.4123255000002,
                    "velocity": 0.36220472440944884,
                    "duration": 0.6185565000000111
                },
                {
                    "name": "A#3",
                    "midi": 58,
                    "time": 141.03088200000022,
                    "velocity": 0.36220472440944884,
                    "duration": 0.6185565000000111
                },
                {
                    "name": "D#4",
                    "midi": 63,
                    "time": 141.64943850000023,
                    "velocity": 0.3700787401574803,
                    "duration": 0.30927825000000553
                },
                {
                    "name": "C#4",
                    "midi": 61,
                    "time": 141.64943850000023,
                    "velocity": 0.3700787401574803,
                    "duration": 0.30927825000000553
                },
                {
                    "name": "G#3",
                    "midi": 56,
                    "time": 141.64943850000023,
                    "velocity": 0.3700787401574803,
                    "duration": 0.30927825000000553
                },
                {
                    "name": "D#4",
                    "midi": 63,
                    "time": 142.26799500000024,
                    "velocity": 0.4015748031496063,
                    "duration": 0.30927825000000553
                },
                {
                    "name": "C#4",
                    "midi": 61,
                    "time": 142.26799500000024,
                    "velocity": 0.4015748031496063,
                    "duration": 0.30927825000000553
                },
                {
                    "name": "G3",
                    "midi": 55,
                    "time": 142.26799500000024,
                    "velocity": 0.4015748031496063,
                    "duration": 0.30927825000000553
                },
                {
                    "name": "D#4",
                    "midi": 63,
                    "time": 142.88655150000025,
                    "velocity": 0.4330708661417323,
                    "duration": 0.30927825000000553
                },
                {
                    "name": "D#3",
                    "midi": 51,
                    "time": 142.88655150000025,
                    "velocity": 0.4330708661417323,
                    "duration": 0.30927825000000553
                },
                {
                    "name": "C#4",
                    "midi": 61,
                    "time": 142.88655150000025,
                    "velocity": 0.4330708661417323,
                    "duration": 0.30927825000000553
                },
                {
                    "name": "C4",
                    "midi": 60,
                    "time": 143.50510800000026,
                    "velocity": 0.4645669291338583,
                    "duration": 0.6185565000000111
                },
                {
                    "name": "D#4",
                    "midi": 63,
                    "time": 143.50510800000026,
                    "velocity": 0.4645669291338583,
                    "duration": 0.6185565000000111
                },
                {
                    "name": "G#3",
                    "midi": 56,
                    "time": 143.50510800000026,
                    "velocity": 0.4645669291338583,
                    "duration": 0.6185565000000111
                },
                {
                    "name": "G#2",
                    "midi": 44,
                    "time": 144.12366450000027,
                    "velocity": 0.5196850393700787,
                    "duration": 0.30927825000000553
                },
                {
                    "name": "G#2",
                    "midi": 44,
                    "time": 144.74222100000028,
                    "velocity": 0.5196850393700787,
                    "duration": 0.30927825000000553
                },
                {
                    "name": "G#2",
                    "midi": 44,
                    "time": 145.3607775000003,
                    "velocity": 0.5196850393700787,
                    "duration": 0.30927825000000553
                },
                {
                    "name": "G2",
                    "midi": 43,
                    "time": 145.9793340000003,
                    "velocity": 0.5433070866141733,
                    "duration": 0.6185565000000111
                },
                {
                    "name": "G#2",
                    "midi": 44,
                    "time": 146.59789050000032,
                    "velocity": 0.5118110236220472,
                    "duration": 0.30927825000000553
                },
                {
                    "name": "G#2",
                    "midi": 44,
                    "time": 147.21644700000033,
                    "velocity": 0.5118110236220472,
                    "duration": 0.30927825000000553
                },
                {
                    "name": "G#2",
                    "midi": 44,
                    "time": 147.83500350000034,
                    "velocity": 0.5118110236220472,
                    "duration": 0.30927825000000553
                },
                {
                    "name": "A2",
                    "midi": 45,
                    "time": 148.45356000000035,
                    "velocity": 0.5354330708661418,
                    "duration": 0.9278347499999882
                },
                {
                    "name": "A#2",
                    "midi": 46,
                    "time": 149.38139475000034,
                    "velocity": 0.47244094488188976,
                    "duration": 0.15463912499998855
                },
                {
                    "name": "C3",
                    "midi": 48,
                    "time": 149.53603387500033,
                    "velocity": 0.44881889763779526,
                    "duration": 0.15463912499998855
                },
                {
                    "name": "A#2",
                    "midi": 46,
                    "time": 149.69067300000032,
                    "velocity": 0.5354330708661418,
                    "duration": 0.9278347499999882
                },
                {
                    "name": "C3",
                    "midi": 48,
                    "time": 150.6185077500003,
                    "velocity": 0.4881889763779528,
                    "duration": 0.15463912499998855
                },
                {
                    "name": "C#3",
                    "midi": 49,
                    "time": 150.7731468750003,
                    "velocity": 0.4566929133858268,
                    "duration": 0.15463912499998855
                },
                {
                    "name": "D#3",
                    "midi": 51,
                    "time": 150.92778600000028,
                    "velocity": 0.5354330708661418,
                    "duration": 0.30927825000000553
                },
                {
                    "name": "A#3",
                    "midi": 58,
                    "time": 151.5463425000003,
                    "velocity": 0.4409448818897638,
                    "duration": 0.6185565000000111
                },
                {
                    "name": "D#3",
                    "midi": 51,
                    "time": 151.5463425000003,
                    "velocity": 0.4409448818897638,
                    "duration": 0.6185565000000111
                },
                {
                    "name": "C#4",
                    "midi": 61,
                    "time": 151.5463425000003,
                    "velocity": 0.5196850393700787,
                    "duration": 0.6185565000000111
                },
                {
                    "name": "D#3",
                    "midi": 51,
                    "time": 152.1648990000003,
                    "velocity": 0.4409448818897638,
                    "duration": 0.6185565000000111
                },
                {
                    "name": "C#4",
                    "midi": 61,
                    "time": 152.1648990000003,
                    "velocity": 0.5196850393700787,
                    "duration": 0.6185565000000111
                },
                {
                    "name": "A#3",
                    "midi": 58,
                    "time": 152.1648990000003,
                    "velocity": 0.4409448818897638,
                    "duration": 0.6185565000000111
                },
                {
                    "name": "D#3",
                    "midi": 51,
                    "time": 152.78345550000031,
                    "velocity": 0.4409448818897638,
                    "duration": 0.6185565000000111
                },
                {
                    "name": "C#4",
                    "midi": 61,
                    "time": 152.78345550000031,
                    "velocity": 0.5196850393700787,
                    "duration": 0.6185565000000111
                },
                {
                    "name": "A#3",
                    "midi": 58,
                    "time": 152.78345550000031,
                    "velocity": 0.4409448818897638,
                    "duration": 0.6185565000000111
                },
                {
                    "name": "C4",
                    "midi": 60,
                    "time": 153.40201200000033,
                    "velocity": 0.5669291338582677,
                    "duration": 0.6185565000000111
                },
                {
                    "name": "G#3",
                    "midi": 56,
                    "time": 153.40201200000033,
                    "velocity": 0.48031496062992124,
                    "duration": 0.6185565000000111
                },
                {
                    "name": "G#2",
                    "midi": 44,
                    "time": 154.02056850000034,
                    "velocity": 0.5196850393700787,
                    "duration": 0.30927825000000553
                },
                {
                    "name": "G#2",
                    "midi": 44,
                    "time": 154.63912500000035,
                    "velocity": 0.5196850393700787,
                    "duration": 0.30927825000000553
                },
                {
                    "name": "G#2",
                    "midi": 44,
                    "time": 155.25768150000036,
                    "velocity": 0.5196850393700787,
                    "duration": 0.30927825000000553
                },
                {
                    "name": "G2",
                    "midi": 43,
                    "time": 155.87623800000037,
                    "velocity": 0.5433070866141733,
                    "duration": 0.6185565000000111
                },
                {
                    "name": "G#2",
                    "midi": 44,
                    "time": 156.49479450000038,
                    "velocity": 0.5118110236220472,
                    "duration": 0.30927825000000553
                },
                {
                    "name": "G#2",
                    "midi": 44,
                    "time": 157.1133510000004,
                    "velocity": 0.5118110236220472,
                    "duration": 0.30927825000000553
                },
                {
                    "name": "G#2",
                    "midi": 44,
                    "time": 157.7319075000004,
                    "velocity": 0.5118110236220472,
                    "duration": 0.30927825000000553
                },
                {
                    "name": "A2",
                    "midi": 45,
                    "time": 158.35046400000041,
                    "velocity": 0.5354330708661418,
                    "duration": 0.9278347499999882
                },
                {
                    "name": "A#2",
                    "midi": 46,
                    "time": 159.2782987500004,
                    "velocity": 0.47244094488188976,
                    "duration": 0.15463912499998855
                },
                {
                    "name": "C3",
                    "midi": 48,
                    "time": 159.4329378750004,
                    "velocity": 0.4409448818897638,
                    "duration": 0.15463912499998855
                },
                {
                    "name": "A#2",
                    "midi": 46,
                    "time": 159.58757700000038,
                    "velocity": 0.5354330708661418,
                    "duration": 0.9278347499999882
                },
                {
                    "name": "C3",
                    "midi": 48,
                    "time": 160.51541175000037,
                    "velocity": 0.4881889763779528,
                    "duration": 0.15463912499998855
                },
                {
                    "name": "C#3",
                    "midi": 49,
                    "time": 160.67005087500036,
                    "velocity": 0.4566929133858268,
                    "duration": 0.15463912499998855
                },
                {
                    "name": "D#3",
                    "midi": 51,
                    "time": 160.82469000000034,
                    "velocity": 0.5354330708661418,
                    "duration": 0.30927825000000553
                },
                {
                    "name": "G3",
                    "midi": 55,
                    "time": 161.44324650000036,
                    "velocity": 0.4409448818897638,
                    "duration": 0.6185565000000111
                },
                {
                    "name": "A#3",
                    "midi": 58,
                    "time": 161.44324650000036,
                    "velocity": 0.5196850393700787,
                    "duration": 0.6185565000000111
                },
                {
                    "name": "C3",
                    "midi": 48,
                    "time": 161.44324650000036,
                    "velocity": 0.4409448818897638,
                    "duration": 0.6185565000000111
                },
                {
                    "name": "C3",
                    "midi": 48,
                    "time": 162.06180300000037,
                    "velocity": 0.4409448818897638,
                    "duration": 0.6185565000000111
                },
                {
                    "name": "A#3",
                    "midi": 58,
                    "time": 162.06180300000037,
                    "velocity": 0.5196850393700787,
                    "duration": 0.6185565000000111
                },
                {
                    "name": "G3",
                    "midi": 55,
                    "time": 162.06180300000037,
                    "velocity": 0.4409448818897638,
                    "duration": 0.6185565000000111
                },
                {
                    "name": "C3",
                    "midi": 48,
                    "time": 162.68035950000038,
                    "velocity": 0.4409448818897638,
                    "duration": 0.6185565000000111
                },
                {
                    "name": "A#3",
                    "midi": 58,
                    "time": 162.68035950000038,
                    "velocity": 0.5196850393700787,
                    "duration": 0.6185565000000111
                },
                {
                    "name": "G3",
                    "midi": 55,
                    "time": 162.68035950000038,
                    "velocity": 0.4409448818897638,
                    "duration": 0.6185565000000111
                },
                {
                    "name": "F3",
                    "midi": 53,
                    "time": 163.2989160000004,
                    "velocity": 0.48031496062992124,
                    "duration": 0.6185565000000111
                },
                {
                    "name": "G#3",
                    "midi": 56,
                    "time": 163.2989160000004,
                    "velocity": 0.5669291338582677,
                    "duration": 0.6185565000000111
                },
                {
                    "name": "C#3",
                    "midi": 49,
                    "time": 163.9174725000004,
                    "velocity": 0.4409448818897638,
                    "duration": 0.30927825000000553
                },
                {
                    "name": "F3",
                    "midi": 53,
                    "time": 163.9174725000004,
                    "velocity": 0.5196850393700787,
                    "duration": 0.30927825000000553
                },
                {
                    "name": "F3",
                    "midi": 53,
                    "time": 164.5360290000004,
                    "velocity": 0.5196850393700787,
                    "duration": 0.30927825000000553
                },
                {
                    "name": "C#3",
                    "midi": 49,
                    "time": 164.5360290000004,
                    "velocity": 0.4409448818897638,
                    "duration": 0.30927825000000553
                },
                {
                    "name": "C#3",
                    "midi": 49,
                    "time": 165.15458550000042,
                    "velocity": 0.4409448818897638,
                    "duration": 0.30927825000000553
                },
                {
                    "name": "F3",
                    "midi": 53,
                    "time": 165.15458550000042,
                    "velocity": 0.5196850393700787,
                    "duration": 0.30927825000000553
                },
                {
                    "name": "C3",
                    "midi": 48,
                    "time": 165.77314200000043,
                    "velocity": 0.4566929133858268,
                    "duration": 0.6185565000000111
                },
                {
                    "name": "E3",
                    "midi": 52,
                    "time": 165.77314200000043,
                    "velocity": 0.5433070866141733,
                    "duration": 0.6185565000000111
                },
                {
                    "name": "F3",
                    "midi": 53,
                    "time": 166.39169850000044,
                    "velocity": 0.5118110236220472,
                    "duration": 0.30927825000000553
                },
                {
                    "name": "C#3",
                    "midi": 49,
                    "time": 166.39169850000044,
                    "velocity": 0.4330708661417323,
                    "duration": 0.30927825000000553
                },
                {
                    "name": "C#3",
                    "midi": 49,
                    "time": 167.01025500000046,
                    "velocity": 0.4330708661417323,
                    "duration": 0.30927825000000553
                },
                {
                    "name": "F3",
                    "midi": 53,
                    "time": 167.01025500000046,
                    "velocity": 0.5118110236220472,
                    "duration": 0.30927825000000553
                },
                {
                    "name": "C#3",
                    "midi": 49,
                    "time": 167.62881150000047,
                    "velocity": 0.4330708661417323,
                    "duration": 0.30927825000000553
                },
                {
                    "name": "F3",
                    "midi": 53,
                    "time": 167.62881150000047,
                    "velocity": 0.5118110236220472,
                    "duration": 0.30927825000000553
                },
                {
                    "name": "D3",
                    "midi": 50,
                    "time": 168.24736800000048,
                    "velocity": 0.44881889763779526,
                    "duration": 1.2371129999999653
                },
                {
                    "name": "F3",
                    "midi": 53,
                    "time": 168.24736800000048,
                    "velocity": 0.5354330708661418,
                    "duration": 0.9278347499999882
                },
                {
                    "name": "F#3",
                    "midi": 54,
                    "time": 169.17520275000047,
                    "velocity": 0.47244094488188976,
                    "duration": 0.15463912499998855
                },
                {
                    "name": "G#3",
                    "midi": 56,
                    "time": 169.32984187500045,
                    "velocity": 0.44881889763779526,
                    "duration": 0.15463912499998855
                },
                {
                    "name": "D#3",
                    "midi": 51,
                    "time": 169.48448100000044,
                    "velocity": 0.44881889763779526,
                    "duration": 1.2371129999999653
                },
                {
                    "name": "F#3",
                    "midi": 54,
                    "time": 169.48448100000044,
                    "velocity": 0.5354330708661418,
                    "duration": 0.9278347499999882
                },
                {
                    "name": "G#3",
                    "midi": 56,
                    "time": 170.41231575000043,
                    "velocity": 0.4881889763779528,
                    "duration": 0.15463912499998855
                },
                {
                    "name": "A3",
                    "midi": 57,
                    "time": 170.56695487500042,
                    "velocity": 0.4645669291338583,
                    "duration": 0.15463912499998855
                },
                {
                    "name": "G#2",
                    "midi": 44,
                    "time": 170.7215940000004,
                    "velocity": 0.44881889763779526,
                    "duration": 0.30927825000000553
                },
                {
                    "name": "D#3",
                    "midi": 51,
                    "time": 170.7215940000004,
                    "velocity": 0.5354330708661418,
                    "duration": 0.30927825000000553
                },
                {
                    "name": "G#3",
                    "midi": 56,
                    "time": 171.34015050000042,
                    "velocity": 0.4409448818897638,
                    "duration": 0.6185565000000111
                },
                {
                    "name": "F#4",
                    "midi": 66,
                    "time": 171.34015050000042,
                    "velocity": 0.5196850393700787,
                    "duration": 0.6185565000000111
                },
                {
                    "name": "D#4",
                    "midi": 63,
                    "time": 171.34015050000042,
                    "velocity": 0.4409448818897638,
                    "duration": 0.6185565000000111
                },
                {
                    "name": "F#4",
                    "midi": 66,
                    "time": 171.95870700000043,
                    "velocity": 0.5196850393700787,
                    "duration": 0.6185565000000111
                },
                {
                    "name": "G#3",
                    "midi": 56,
                    "time": 171.95870700000043,
                    "velocity": 0.4409448818897638,
                    "duration": 0.6185565000000111
                },
                {
                    "name": "D#4",
                    "midi": 63,
                    "time": 171.95870700000043,
                    "velocity": 0.4409448818897638,
                    "duration": 0.6185565000000111
                },
                {
                    "name": "G#3",
                    "midi": 56,
                    "time": 172.57726350000044,
                    "velocity": 0.4409448818897638,
                    "duration": 0.6185565000000111
                },
                {
                    "name": "F#4",
                    "midi": 66,
                    "time": 172.57726350000044,
                    "velocity": 0.5196850393700787,
                    "duration": 0.6185565000000111
                },
                {
                    "name": "D#4",
                    "midi": 63,
                    "time": 172.57726350000044,
                    "velocity": 0.4409448818897638,
                    "duration": 0.6185565000000111
                },
                {
                    "name": "F4",
                    "midi": 65,
                    "time": 173.19582000000045,
                    "velocity": 0.5669291338582677,
                    "duration": 0.6185565000000111
                },
                {
                    "name": "C#4",
                    "midi": 61,
                    "time": 173.19582000000045,
                    "velocity": 0.48031496062992124,
                    "duration": 0.6185565000000111
                },
                {
                    "name": "F3",
                    "midi": 53,
                    "time": 173.81437650000046,
                    "velocity": 0.5196850393700787,
                    "duration": 0.30927825000000553
                },
                {
                    "name": "C#3",
                    "midi": 49,
                    "time": 173.81437650000046,
                    "velocity": 0.4409448818897638,
                    "duration": 0.30927825000000553
                },
                {
                    "name": "F3",
                    "midi": 53,
                    "time": 174.43293300000047,
                    "velocity": 0.5196850393700787,
                    "duration": 0.30927825000000553
                },
                {
                    "name": "C#3",
                    "midi": 49,
                    "time": 174.43293300000047,
                    "velocity": 0.4409448818897638,
                    "duration": 0.30927825000000553
                },
                {
                    "name": "F3",
                    "midi": 53,
                    "time": 175.05148950000049,
                    "velocity": 0.5196850393700787,
                    "duration": 0.30927825000000553
                },
                {
                    "name": "C#3",
                    "midi": 49,
                    "time": 175.05148950000049,
                    "velocity": 0.4409448818897638,
                    "duration": 0.30927825000000553
                },
                {
                    "name": "C3",
                    "midi": 48,
                    "time": 175.6700460000005,
                    "velocity": 0.4566929133858268,
                    "duration": 0.6185565000000111
                },
                {
                    "name": "E3",
                    "midi": 52,
                    "time": 175.6700460000005,
                    "velocity": 0.5433070866141733,
                    "duration": 0.6185565000000111
                },
                {
                    "name": "C#3",
                    "midi": 49,
                    "time": 176.2886025000005,
                    "velocity": 0.4330708661417323,
                    "duration": 0.30927825000000553
                },
                {
                    "name": "F3",
                    "midi": 53,
                    "time": 176.2886025000005,
                    "velocity": 0.5118110236220472,
                    "duration": 0.30927825000000553
                },
                {
                    "name": "C#3",
                    "midi": 49,
                    "time": 176.90715900000052,
                    "velocity": 0.4330708661417323,
                    "duration": 0.30927825000000553
                },
                {
                    "name": "F3",
                    "midi": 53,
                    "time": 176.90715900000052,
                    "velocity": 0.5118110236220472,
                    "duration": 0.30927825000000553
                },
                {
                    "name": "F3",
                    "midi": 53,
                    "time": 177.52571550000053,
                    "velocity": 0.5118110236220472,
                    "duration": 0.30927825000000553
                },
                {
                    "name": "C#3",
                    "midi": 49,
                    "time": 177.52571550000053,
                    "velocity": 0.4330708661417323,
                    "duration": 0.30927825000000553
                },
                {
                    "name": "G#3",
                    "midi": 56,
                    "time": 178.14427200000054,
                    "velocity": 0.5433070866141733,
                    "duration": 0.6185565000000111
                },
                {
                    "name": "B2",
                    "midi": 47,
                    "time": 178.14427200000054,
                    "velocity": 0.4566929133858268,
                    "duration": 0.6185565000000111
                },
                {
                    "name": "F3",
                    "midi": 53,
                    "time": 178.14427200000054,
                    "velocity": 0.4566929133858268,
                    "duration": 0.6185565000000111
                },
                {
                    "name": "A#2",
                    "midi": 46,
                    "time": 178.76282850000055,
                    "velocity": 0.4330708661417323,
                    "duration": 0.30927825000000553
                },
                {
                    "name": "F3",
                    "midi": 53,
                    "time": 178.76282850000055,
                    "velocity": 0.4330708661417323,
                    "duration": 0.30927825000000553
                },
                {
                    "name": "G#3",
                    "midi": 56,
                    "time": 178.76282850000055,
                    "velocity": 0.5118110236220472,
                    "duration": 0.30927825000000553
                },
                {
                    "name": "G#3",
                    "midi": 56,
                    "time": 179.38138500000056,
                    "velocity": 0.5118110236220472,
                    "duration": 0.30927825000000553
                },
                {
                    "name": "F3",
                    "midi": 53,
                    "time": 179.38138500000056,
                    "velocity": 0.4330708661417323,
                    "duration": 0.30927825000000553
                },
                {
                    "name": "A#2",
                    "midi": 46,
                    "time": 179.38138500000056,
                    "velocity": 0.4330708661417323,
                    "duration": 0.30927825000000553
                },
                {
                    "name": "G#3",
                    "midi": 56,
                    "time": 179.99994150000057,
                    "velocity": 0.5118110236220472,
                    "duration": 0.30927825000000553
                },
                {
                    "name": "A#2",
                    "midi": 46,
                    "time": 179.99994150000057,
                    "velocity": 0.4330708661417323,
                    "duration": 0.30927825000000553
                },
                {
                    "name": "F3",
                    "midi": 53,
                    "time": 179.99994150000057,
                    "velocity": 0.4330708661417323,
                    "duration": 0.30927825000000553
                },
                {
                    "name": "D#3",
                    "midi": 51,
                    "time": 180.61849800000059,
                    "velocity": 0.44881889763779526,
                    "duration": 0.30927825000000553
                },
                {
                    "name": "G3",
                    "midi": 55,
                    "time": 180.61849800000059,
                    "velocity": 0.5354330708661418,
                    "duration": 0.30927825000000553
                },
                {
                    "name": "D#4",
                    "midi": 63,
                    "time": 181.2370545000006,
                    "velocity": 0.4409448818897638,
                    "duration": 0.6185565000000111
                },
                {
                    "name": "D#4",
                    "midi": 63,
                    "time": 181.8556110000006,
                    "velocity": 0.4409448818897638,
                    "duration": 0.6185565000000111
                },
                {
                    "name": "G4",
                    "midi": 67,
                    "time": 181.8556110000006,
                    "velocity": 0.5196850393700787,
                    "duration": 0.6185565000000111
                },
                {
                    "name": "D#4",
                    "midi": 63,
                    "time": 182.47416750000062,
                    "velocity": 0.4409448818897638,
                    "duration": 0.6185565000000111
                },
                {
                    "name": "G4",
                    "midi": 67,
                    "time": 182.47416750000062,
                    "velocity": 0.5196850393700787,
                    "duration": 0.6185565000000111
                },
                {
                    "name": "A#3",
                    "midi": 58,
                    "time": 183.09272400000063,
                    "velocity": 0.5433070866141733,
                    "duration": 0.6185565000000111
                },
                {
                    "name": "C#3",
                    "midi": 49,
                    "time": 183.09272400000063,
                    "velocity": 0.4566929133858268,
                    "duration": 0.6185565000000111
                },
                {
                    "name": "G3",
                    "midi": 55,
                    "time": 183.09272400000063,
                    "velocity": 0.4566929133858268,
                    "duration": 0.6185565000000111
                },
                {
                    "name": "G3",
                    "midi": 55,
                    "time": 183.71128050000064,
                    "velocity": 0.4330708661417323,
                    "duration": 0.30927825000000553
                },
                {
                    "name": "A#3",
                    "midi": 58,
                    "time": 183.71128050000064,
                    "velocity": 0.5118110236220472,
                    "duration": 0.30927825000000553
                },
                {
                    "name": "C3",
                    "midi": 48,
                    "time": 183.71128050000064,
                    "velocity": 0.4330708661417323,
                    "duration": 0.30927825000000553
                },
                {
                    "name": "C3",
                    "midi": 48,
                    "time": 184.32983700000065,
                    "velocity": 0.4330708661417323,
                    "duration": 0.30927825000000553
                },
                {
                    "name": "A#3",
                    "midi": 58,
                    "time": 184.32983700000065,
                    "velocity": 0.5118110236220472,
                    "duration": 0.30927825000000553
                },
                {
                    "name": "G3",
                    "midi": 55,
                    "time": 184.32983700000065,
                    "velocity": 0.4330708661417323,
                    "duration": 0.30927825000000553
                },
                {
                    "name": "C3",
                    "midi": 48,
                    "time": 184.94839350000066,
                    "velocity": 0.4330708661417323,
                    "duration": 0.30927825000000553
                },
                {
                    "name": "A#3",
                    "midi": 58,
                    "time": 184.94839350000066,
                    "velocity": 0.5118110236220472,
                    "duration": 0.30927825000000553
                },
                {
                    "name": "G3",
                    "midi": 55,
                    "time": 184.94839350000066,
                    "velocity": 0.4330708661417323,
                    "duration": 0.30927825000000553
                },
                {
                    "name": "F3",
                    "midi": 53,
                    "time": 185.56695000000067,
                    "velocity": 0.44881889763779526,
                    "duration": 0.30927825000000553
                },
                {
                    "name": "A3",
                    "midi": 57,
                    "time": 185.56695000000067,
                    "velocity": 0.5354330708661418,
                    "duration": 0.30927825000000553
                },
                {
                    "name": "F4",
                    "midi": 65,
                    "time": 186.18550650000068,
                    "velocity": 0.4409448818897638,
                    "duration": 0.6185565000000111
                },
                {
                    "name": "A4",
                    "midi": 69,
                    "time": 186.8040630000007,
                    "velocity": 0.5196850393700787,
                    "duration": 0.6185565000000111
                },
                {
                    "name": "F4",
                    "midi": 65,
                    "time": 186.8040630000007,
                    "velocity": 0.4409448818897638,
                    "duration": 0.6185565000000111
                },
                {
                    "name": "F4",
                    "midi": 65,
                    "time": 187.4226195000007,
                    "velocity": 0.4409448818897638,
                    "duration": 0.6185565000000111
                },
                {
                    "name": "A4",
                    "midi": 69,
                    "time": 187.4226195000007,
                    "velocity": 0.5196850393700787,
                    "duration": 0.6185565000000111
                },
                {
                    "name": "F#3",
                    "midi": 54,
                    "time": 188.04117600000072,
                    "velocity": 0.4015748031496063,
                    "duration": 0.6185565000000111
                },
                {
                    "name": "F#4",
                    "midi": 66,
                    "time": 188.04117600000072,
                    "velocity": 0.47244094488188976,
                    "duration": 0.6185565000000111
                },
                {
                    "name": "F4",
                    "midi": 65,
                    "time": 188.65973250000073,
                    "velocity": 0.4094488188976378,
                    "duration": 0.4639173749999941
                },
                {
                    "name": "F3",
                    "midi": 53,
                    "time": 188.65973250000073,
                    "velocity": 0.3464566929133858,
                    "duration": 0.4639173749999941
                },
                {
                    "name": "F3",
                    "midi": 53,
                    "time": 189.2782890000007,
                    "velocity": 0.4015748031496063,
                    "duration": 0.6185565000000111
                },
                {
                    "name": "F4",
                    "midi": 65,
                    "time": 189.2782890000007,
                    "velocity": 0.47244094488188976,
                    "duration": 0.6185565000000111
                },
                {
                    "name": "E3",
                    "midi": 52,
                    "time": 189.89684550000072,
                    "velocity": 0.3464566929133858,
                    "duration": 0.4639173749999941
                },
                {
                    "name": "E4",
                    "midi": 64,
                    "time": 189.89684550000072,
                    "velocity": 0.4094488188976378,
                    "duration": 0.4639173749999941
                },
                {
                    "name": "E4",
                    "midi": 64,
                    "time": 190.5154020000007,
                    "velocity": 0.47244094488188976,
                    "duration": 0.6185565000000111
                },
                {
                    "name": "E3",
                    "midi": 52,
                    "time": 190.5154020000007,
                    "velocity": 0.4015748031496063,
                    "duration": 0.6185565000000111
                },
                {
                    "name": "F4",
                    "midi": 65,
                    "time": 191.13395850000072,
                    "velocity": 0.3858267716535433,
                    "duration": 0.4639173749999941
                },
                {
                    "name": "F3",
                    "midi": 53,
                    "time": 191.13395850000072,
                    "velocity": 0.3228346456692913,
                    "duration": 0.4639173749999941
                },
                {
                    "name": "F4",
                    "midi": 65,
                    "time": 191.7525150000007,
                    "velocity": 0.4251968503937008,
                    "duration": 0.6185565000000111
                },
                {
                    "name": "F3",
                    "midi": 53,
                    "time": 191.7525150000007,
                    "velocity": 0.36220472440944884,
                    "duration": 0.6185565000000111
                },
                {
                    "name": "C3",
                    "midi": 48,
                    "time": 192.3710715000007,
                    "velocity": 0.3228346456692913,
                    "duration": 0.4639173749999941
                },
                {
                    "name": "C4",
                    "midi": 60,
                    "time": 192.3710715000007,
                    "velocity": 0.3858267716535433,
                    "duration": 0.4639173749999941
                },
                {
                    "name": "A#2",
                    "midi": 46,
                    "time": 192.9896280000007,
                    "velocity": 0.3543307086614173,
                    "duration": 0.6185565000000111
                },
                {
                    "name": "A#3",
                    "midi": 58,
                    "time": 192.9896280000007,
                    "velocity": 0.41732283464566927,
                    "duration": 0.6185565000000111
                },
                {
                    "name": "A2",
                    "midi": 45,
                    "time": 193.6081845000007,
                    "velocity": 0.30708661417322836,
                    "duration": 0.4639173749999941
                },
                {
                    "name": "A3",
                    "midi": 57,
                    "time": 193.6081845000007,
                    "velocity": 0.3700787401574803,
                    "duration": 0.4639173749999941
                },
                {
                    "name": "A3",
                    "midi": 57,
                    "time": 194.2267410000007,
                    "velocity": 0.3700787401574803,
                    "duration": 0.6185565000000111
                },
                {
                    "name": "A2",
                    "midi": 45,
                    "time": 194.2267410000007,
                    "velocity": 0.30708661417322836,
                    "duration": 0.6185565000000111
                },
                {
                    "name": "G3",
                    "midi": 55,
                    "time": 194.8452975000007,
                    "velocity": 0.3700787401574803,
                    "duration": 0.4639173749999941
                },
                {
                    "name": "G2",
                    "midi": 43,
                    "time": 194.8452975000007,
                    "velocity": 0.30708661417322836,
                    "duration": 0.4639173749999941
                },
                {
                    "name": "G2",
                    "midi": 43,
                    "time": 195.46385400000068,
                    "velocity": 0.33858267716535434,
                    "duration": 0.6185565000000111
                },
                {
                    "name": "G3",
                    "midi": 55,
                    "time": 195.46385400000068,
                    "velocity": 0.4015748031496063,
                    "duration": 0.6185565000000111
                },
                {
                    "name": "F2",
                    "midi": 41,
                    "time": 196.0824105000007,
                    "velocity": 0.29133858267716534,
                    "duration": 0.31185556874999065
                },
                {
                    "name": "F3",
                    "midi": 53,
                    "time": 196.0824105000007,
                    "velocity": 0.3464566929133858,
                    "duration": 0.31185556874999065
                },
                {
                    "name": "F2",
                    "midi": 41,
                    "time": 196.70096700000067,
                    "velocity": 0.30708661417322836,
                    "duration": 0.31185556874999065
                },
                {
                    "name": "F3",
                    "midi": 53,
                    "time": 196.70096700000067,
                    "velocity": 0.36220472440944884,
                    "duration": 0.31185556874999065
                },
                {
                    "name": "F2",
                    "midi": 41,
                    "time": 197.31952350000066,
                    "velocity": 0.29133858267716534,
                    "duration": 0.31185556874999065
                },
                {
                    "name": "F3",
                    "midi": 53,
                    "time": 197.31952350000066,
                    "velocity": 0.3464566929133858,
                    "duration": 0.31185556874999065
                },
                {
                    "name": "F#3",
                    "midi": 54,
                    "time": 197.93808000000064,
                    "velocity": 0.3779527559055118,
                    "duration": 0.6185565000000111
                },
                {
                    "name": "F#2",
                    "midi": 42,
                    "time": 197.93808000000064,
                    "velocity": 0.31496062992125984,
                    "duration": 0.6185565000000111
                },
                {
                    "name": "F3",
                    "midi": 53,
                    "time": 198.55663650000065,
                    "velocity": 0.3228346456692913,
                    "duration": 0.4639173749999941
                },
                {
                    "name": "F2",
                    "midi": 41,
                    "time": 198.55663650000065,
                    "velocity": 0.2755905511811024,
                    "duration": 0.4639173749999941
                },
                {
                    "name": "F3",
                    "midi": 53,
                    "time": 199.17519300000063,
                    "velocity": 0.3779527559055118,
                    "duration": 0.6185565000000111
                },
                {
                    "name": "F2",
                    "midi": 41,
                    "time": 199.17519300000063,
                    "velocity": 0.31496062992125984,
                    "duration": 0.6185565000000111
                },
                {
                    "name": "E3",
                    "midi": 52,
                    "time": 199.79374950000064,
                    "velocity": 0.3228346456692913,
                    "duration": 0.4639173749999941
                },
                {
                    "name": "E2",
                    "midi": 40,
                    "time": 199.79374950000064,
                    "velocity": 0.2755905511811024,
                    "duration": 0.4639173749999941
                },
                {
                    "name": "E3",
                    "midi": 52,
                    "time": 200.41230600000063,
                    "velocity": 0.3779527559055118,
                    "duration": 0.6185565000000111
                },
                {
                    "name": "E2",
                    "midi": 40,
                    "time": 200.41230600000063,
                    "velocity": 0.31496062992125984,
                    "duration": 0.6185565000000111
                },
                {
                    "name": "F3",
                    "midi": 53,
                    "time": 201.03086250000064,
                    "velocity": 0.30708661417322836,
                    "duration": 0.4639173749999941
                },
                {
                    "name": "F2",
                    "midi": 41,
                    "time": 201.03086250000064,
                    "velocity": 0.25196850393700787,
                    "duration": 0.4639173749999941
                },
                {
                    "name": "F2",
                    "midi": 41,
                    "time": 201.64941900000062,
                    "velocity": 0.28346456692913385,
                    "duration": 0.6185565000000111
                },
                {
                    "name": "F3",
                    "midi": 53,
                    "time": 201.64941900000062,
                    "velocity": 0.33858267716535434,
                    "duration": 0.6185565000000111
                },
                {
                    "name": "C3",
                    "midi": 48,
                    "time": 202.26797550000063,
                    "velocity": 0.30708661417322836,
                    "duration": 0.4639173749999941
                },
                {
                    "name": "C2",
                    "midi": 36,
                    "time": 202.26797550000063,
                    "velocity": 0.25196850393700787,
                    "duration": 0.4639173749999941
                },
                {
                    "name": "A#2",
                    "midi": 46,
                    "time": 202.8865320000006,
                    "velocity": 0.30708661417322836,
                    "duration": 0.6185565000000111
                },
                {
                    "name": "A#1",
                    "midi": 34,
                    "time": 202.8865320000006,
                    "velocity": 0.2677165354330709,
                    "duration": 0.6185565000000111
                },
                {
                    "name": "A1",
                    "midi": 33,
                    "time": 203.50508850000062,
                    "velocity": 0.2283464566929134,
                    "duration": 0.4639173749999941
                },
                {
                    "name": "A2",
                    "midi": 45,
                    "time": 203.50508850000062,
                    "velocity": 0.2677165354330709,
                    "duration": 0.4639173749999941
                },
                {
                    "name": "A1",
                    "midi": 33,
                    "time": 204.1236450000006,
                    "velocity": 0.2204724409448819,
                    "duration": 0.6185565000000111
                },
                {
                    "name": "A2",
                    "midi": 45,
                    "time": 204.1236450000006,
                    "velocity": 0.2677165354330709,
                    "duration": 0.6185565000000111
                },
                {
                    "name": "G2",
                    "midi": 43,
                    "time": 204.74220150000062,
                    "velocity": 0.25984251968503935,
                    "duration": 0.4639173749999941
                },
                {
                    "name": "G1",
                    "midi": 31,
                    "time": 204.74220150000062,
                    "velocity": 0.2125984251968504,
                    "duration": 0.4639173749999941
                },
                {
                    "name": "G2",
                    "midi": 43,
                    "time": 205.3607580000006,
                    "velocity": 0.2755905511811024,
                    "duration": 0.6185565000000111
                },
                {
                    "name": "G1",
                    "midi": 31,
                    "time": 205.3607580000006,
                    "velocity": 0.2283464566929134,
                    "duration": 0.6185565000000111
                },
                {
                    "name": "F1",
                    "midi": 29,
                    "time": 205.9793145000006,
                    "velocity": 0.1889763779527559,
                    "duration": 0.31185556874999065
                },
                {
                    "name": "F2",
                    "midi": 41,
                    "time": 205.9793145000006,
                    "velocity": 0.23622047244094488,
                    "duration": 0.31185556874999065
                },
                {
                    "name": "F2",
                    "midi": 41,
                    "time": 206.5978710000006,
                    "velocity": 0.23622047244094488,
                    "duration": 0.31185556874999065
                },
                {
                    "name": "F1",
                    "midi": 29,
                    "time": 206.5978710000006,
                    "velocity": 0.2047244094488189,
                    "duration": 0.31185556874999065
                },
                {
                    "name": "F2",
                    "midi": 41,
                    "time": 207.21642750000058,
                    "velocity": 0.2204724409448819,
                    "duration": 0.31185556874999065
                },
                {
                    "name": "F1",
                    "midi": 29,
                    "time": 207.21642750000058,
                    "velocity": 0.18110236220472442,
                    "duration": 0.31185556874999065
                },
                {
                    "name": "F2",
                    "midi": 41,
                    "time": 207.83498400000056,
                    "velocity": 0.2125984251968504,
                    "duration": 0.31185556874999065
                },
                {
                    "name": "F2",
                    "midi": 41,
                    "time": 208.45354050000054,
                    "velocity": 0.1968503937007874,
                    "duration": 0.31185556874999065
                },
                {
                    "name": "F2",
                    "midi": 41,
                    "time": 209.07209700000053,
                    "velocity": 0.2125984251968504,
                    "duration": 0.31185556874999065
                },
                {
                    "name": "F2",
                    "midi": 41,
                    "time": 209.6906535000005,
                    "velocity": 0.1968503937007874,
                    "duration": 0.31185556874999065
                },
                {
                    "name": "F2",
                    "midi": 41,
                    "time": 210.3092100000005,
                    "velocity": 0.2125984251968504,
                    "duration": 0.31185556874999065
                },
                {
                    "name": "F2",
                    "midi": 41,
                    "time": 210.92776650000047,
                    "velocity": 0.1968503937007874,
                    "duration": 0.31185556874999065
                },
                {
                    "name": "F2",
                    "midi": 41,
                    "time": 211.54632300000046,
                    "velocity": 0.2125984251968504,
                    "duration": 0.31185556874999065
                },
                {
                    "name": "F2",
                    "midi": 41,
                    "time": 212.16487950000044,
                    "velocity": 0.1968503937007874,
                    "duration": 0.31185556874999065
                },
                {
                    "name": "E3",
                    "midi": 52,
                    "time": 212.78343600000042,
                    "velocity": 0.1732283464566929,
                    "duration": 0.6185565000000111
                },
                {
                    "name": "D#3",
                    "midi": 51,
                    "time": 213.40199250000043,
                    "velocity": 0.16535433070866143,
                    "duration": 0.31185556874999065
                },
                {
                    "name": "D#3",
                    "midi": 51,
                    "time": 214.02054900000041,
                    "velocity": 0.1732283464566929,
                    "duration": 0.31185556874999065
                },
                {
                    "name": "D#3",
                    "midi": 51,
                    "time": 214.6391055000004,
                    "velocity": 0.16535433070866143,
                    "duration": 0.31185556874999065
                },
                {
                    "name": "D#3",
                    "midi": 51,
                    "time": 215.25766200000038,
                    "velocity": 0.1732283464566929,
                    "duration": 0.31185556874999065
                },
                {
                    "name": "D#3",
                    "midi": 51,
                    "time": 215.87621850000036,
                    "velocity": 0.16535433070866143,
                    "duration": 0.31185556874999065
                },
                {
                    "name": "D#3",
                    "midi": 51,
                    "time": 216.49477500000035,
                    "velocity": 0.1732283464566929,
                    "duration": 0.31185556874999065
                },
                {
                    "name": "D#3",
                    "midi": 51,
                    "time": 217.11333150000033,
                    "velocity": 0.16535433070866143,
                    "duration": 0.31185556874999065
                },
                {
                    "name": "G#2",
                    "midi": 44,
                    "time": 217.7318880000003,
                    "velocity": 0.25984251968503935,
                    "duration": 4.948451999999918
                },
                {
                    "name": "D#3",
                    "midi": 51,
                    "time": 218.35044450000032,
                    "velocity": 0.1968503937007874,
                    "duration": 0.4639173749999941
                },
                {
                    "name": "D#3",
                    "midi": 51,
                    "time": 218.9690010000003,
                    "velocity": 0.1968503937007874,
                    "duration": 0.4639173749999941
                },
                {
                    "name": "D#3",
                    "midi": 51,
                    "time": 219.5875575000003,
                    "velocity": 0.1968503937007874,
                    "duration": 0.4639173749999941
                },
                {
                    "name": "D#3",
                    "midi": 51,
                    "time": 220.20611400000027,
                    "velocity": 0.25984251968503935,
                    "duration": 0.6185565000000111
                },
                {
                    "name": "G#3",
                    "midi": 56,
                    "time": 220.82467050000028,
                    "velocity": 0.2047244094488189,
                    "duration": 0.4639173749999941
                },
                {
                    "name": "G#3",
                    "midi": 56,
                    "time": 221.44322700000026,
                    "velocity": 0.2125984251968504,
                    "duration": 0.4639173749999941
                },
                {
                    "name": "G#3",
                    "midi": 56,
                    "time": 222.06178350000025,
                    "velocity": 0.2283464566929134,
                    "duration": 0.4639173749999941
                },
                {
                    "name": "C#3",
                    "midi": 49,
                    "time": 222.68034000000023,
                    "velocity": 0.2992125984251969,
                    "duration": 4.329895499999992
                },
                {
                    "name": "G#3",
                    "midi": 56,
                    "time": 223.29889650000024,
                    "velocity": 0.1968503937007874,
                    "duration": 0.4639173749999941
                },
                {
                    "name": "G#3",
                    "midi": 56,
                    "time": 223.91745300000022,
                    "velocity": 0.1968503937007874,
                    "duration": 0.4639173749999941
                },
                {
                    "name": "G#3",
                    "midi": 56,
                    "time": 224.5360095000002,
                    "velocity": 0.2125984251968504,
                    "duration": 0.4639173749999941
                },
                {
                    "name": "G#3",
                    "midi": 56,
                    "time": 225.1545660000002,
                    "velocity": 0.25984251968503935,
                    "duration": 0.6185565000000111
                },
                {
                    "name": "A3",
                    "midi": 57,
                    "time": 225.7731225000002,
                    "velocity": 0.2125984251968504,
                    "duration": 0.6185565000000111
                },
                {
                    "name": "A#3",
                    "midi": 58,
                    "time": 226.3916790000002,
                    "velocity": 0.2125984251968504,
                    "duration": 0.6185565000000111
                },
                {
                    "name": "D3",
                    "midi": 50,
                    "time": 227.01023550000022,
                    "velocity": 0.2125984251968504,
                    "duration": 0.6185565000000111
                },
                {
                    "name": "F3",
                    "midi": 53,
                    "time": 227.01023550000022,
                    "velocity": 0.2125984251968504,
                    "duration": 0.6185565000000111
                },
                {
                    "name": "D#2",
                    "midi": 39,
                    "time": 227.62879200000023,
                    "velocity": 0.25984251968503935,
                    "duration": 4.948451999999946
                },
                {
                    "name": "D#3",
                    "midi": 51,
                    "time": 228.24734850000024,
                    "velocity": 0.1968503937007874,
                    "duration": 0.4639173749999941
                },
                {
                    "name": "D#3",
                    "midi": 51,
                    "time": 228.86590500000023,
                    "velocity": 0.1968503937007874,
                    "duration": 0.4639173749999941
                },
                {
                    "name": "D#3",
                    "midi": 51,
                    "time": 229.4844615000002,
                    "velocity": 0.1968503937007874,
                    "duration": 0.4639173749999941
                },
                {
                    "name": "D#3",
                    "midi": 51,
                    "time": 230.1030180000002,
                    "velocity": 0.25984251968503935,
                    "duration": 0.4639173749999941
                },
                {
                    "name": "D#3",
                    "midi": 51,
                    "time": 230.72157450000017,
                    "velocity": 0.2047244094488189,
                    "duration": 0.4639173749999941
                },
                {
                    "name": "D#3",
                    "midi": 51,
                    "time": 231.34013100000016,
                    "velocity": 0.2125984251968504,
                    "duration": 0.6185565000000111
                },
                {
                    "name": "D#3",
                    "midi": 51,
                    "time": 231.95868750000017,
                    "velocity": 0.2283464566929134,
                    "duration": 0.6185565000000111
                },
                {
                    "name": "G#2",
                    "midi": 44,
                    "time": 232.57724400000018,
                    "velocity": 0.2992125984251969,
                    "duration": 3.7113389999999242
                },
                {
                    "name": "D#3",
                    "midi": 51,
                    "time": 233.1958005000002,
                    "velocity": 0.1968503937007874,
                    "duration": 0.4639173749999941
                },
                {
                    "name": "D#3",
                    "midi": 51,
                    "time": 233.81435700000017,
                    "velocity": 0.1968503937007874,
                    "duration": 0.4639173749999941
                },
                {
                    "name": "D#3",
                    "midi": 51,
                    "time": 234.43291350000015,
                    "velocity": 0.2125984251968504,
                    "duration": 0.4639173749999941
                },
                {
                    "name": "D#3",
                    "midi": 51,
                    "time": 235.05147000000014,
                    "velocity": 0.25984251968503935,
                    "duration": 0.4639173749999941
                },
                {
                    "name": "D#3",
                    "midi": 51,
                    "time": 235.67002650000012,
                    "velocity": 0.2125984251968504,
                    "duration": 0.4639173749999941
                },
                {
                    "name": "D#3",
                    "midi": 51,
                    "time": 236.2885830000001,
                    "velocity": 0.2125984251968504,
                    "duration": 0.6185565000000111
                },
                {
                    "name": "G#2",
                    "midi": 44,
                    "time": 236.2885830000001,
                    "velocity": 0.2125984251968504,
                    "duration": 0.6185565000000111
                },
                {
                    "name": "D#3",
                    "midi": 51,
                    "time": 236.9071395000001,
                    "velocity": 0.2125984251968504,
                    "duration": 0.6185565000000111
                },
                {
                    "name": "C3",
                    "midi": 48,
                    "time": 236.9071395000001,
                    "velocity": 0.2125984251968504,
                    "duration": 0.6185565000000111
                },
                {
                    "name": "D#2",
                    "midi": 39,
                    "time": 237.52569600000012,
                    "velocity": 0.25984251968503935,
                    "duration": 4.948451999999946
                },
                {
                    "name": "D#3",
                    "midi": 51,
                    "time": 238.14425250000014,
                    "velocity": 0.1968503937007874,
                    "duration": 0.4639173749999941
                },
                {
                    "name": "D#3",
                    "midi": 51,
                    "time": 238.76280900000012,
                    "velocity": 0.1968503937007874,
                    "duration": 0.4639173749999941
                },
                {
                    "name": "D#3",
                    "midi": 51,
                    "time": 239.3813655000001,
                    "velocity": 0.1968503937007874,
                    "duration": 0.4639173749999941
                },
                {
                    "name": "D#3",
                    "midi": 51,
                    "time": 239.99992200000008,
                    "velocity": 0.25984251968503935,
                    "duration": 0.4639173749999941
                },
                {
                    "name": "D#3",
                    "midi": 51,
                    "time": 240.61847850000007,
                    "velocity": 0.2047244094488189,
                    "duration": 0.4639173749999941
                },
                {
                    "name": "D#3",
                    "midi": 51,
                    "time": 241.23703500000005,
                    "velocity": 0.2125984251968504,
                    "duration": 0.6185565000000111
                },
                {
                    "name": "D#3",
                    "midi": 51,
                    "time": 241.85559150000006,
                    "velocity": 0.2283464566929134,
                    "duration": 0.6185565000000111
                },
                {
                    "name": "G#2",
                    "midi": 44,
                    "time": 242.47414800000007,
                    "velocity": 0.2992125984251969,
                    "duration": 2.938143374999953
                },
                {
                    "name": "D#3",
                    "midi": 51,
                    "time": 243.09270450000008,
                    "velocity": 0.1968503937007874,
                    "duration": 0.4639173749999941
                },
                {
                    "name": "C3",
                    "midi": 48,
                    "time": 243.71126100000006,
                    "velocity": 0.1968503937007874,
                    "duration": 0.4639173749999941
                },
                {
                    "name": "D#3",
                    "midi": 51,
                    "time": 244.32981750000005,
                    "velocity": 0.2125984251968504,
                    "duration": 0.4639173749999941
                },
                {
                    "name": "G#3",
                    "midi": 56,
                    "time": 244.94837400000003,
                    "velocity": 0.25984251968503935,
                    "duration": 0.4639173749999941
                },
                {
                    "name": "D#4",
                    "midi": 63,
                    "time": 245.5669305,
                    "velocity": 0.2440944881889764,
                    "duration": 0.6185565000000111
                },
                {
                    "name": "C4",
                    "midi": 60,
                    "time": 245.5669305,
                    "velocity": 0.2440944881889764,
                    "duration": 0.6185565000000111
                },
                {
                    "name": "G#4",
                    "midi": 68,
                    "time": 246.18548700000002,
                    "velocity": 0.2440944881889764,
                    "duration": 0.6185565000000111
                },
                {
                    "name": "C4",
                    "midi": 60,
                    "time": 246.18548700000002,
                    "velocity": 0.2440944881889764,
                    "duration": 0.6185565000000111
                },
                {
                    "name": "D#4",
                    "midi": 63,
                    "time": 246.18548700000002,
                    "velocity": 0.2440944881889764,
                    "duration": 0.6185565000000111
                },
                {
                    "name": "G4",
                    "midi": 67,
                    "time": 246.80404350000003,
                    "velocity": 0.2440944881889764,
                    "duration": 0.6185565000000111
                },
                {
                    "name": "A#4",
                    "midi": 70,
                    "time": 246.80404350000003,
                    "velocity": 0.2440944881889764,
                    "duration": 0.6185565000000111
                },
                {
                    "name": "D#4",
                    "midi": 63,
                    "time": 246.80404350000003,
                    "velocity": 0.2440944881889764,
                    "duration": 0.6185565000000111
                },
                {
                    "name": "G#3",
                    "midi": 56,
                    "time": 247.42260000000005,
                    "velocity": 0.36220472440944884,
                    "duration": 0.30927825000000553
                },
                {
                    "name": "C5",
                    "midi": 72,
                    "time": 248.04115650000006,
                    "velocity": 0.2204724409448819,
                    "duration": 0.4639173749999941
                },
                {
                    "name": "G#4",
                    "midi": 68,
                    "time": 248.04115650000006,
                    "velocity": 0.18110236220472442,
                    "duration": 0.4639173749999941
                },
                {
                    "name": "D#4",
                    "midi": 63,
                    "time": 248.04115650000006,
                    "velocity": 0.18110236220472442,
                    "duration": 0.4639173749999941
                },
                {
                    "name": "G#4",
                    "midi": 68,
                    "time": 248.65971300000004,
                    "velocity": 0.18110236220472442,
                    "duration": 0.4639173749999941
                },
                {
                    "name": "C5",
                    "midi": 72,
                    "time": 248.65971300000004,
                    "velocity": 0.2204724409448819,
                    "duration": 0.4639173749999941
                },
                {
                    "name": "D#4",
                    "midi": 63,
                    "time": 248.65971300000004,
                    "velocity": 0.18110236220472442,
                    "duration": 0.4639173749999941
                },
                {
                    "name": "C5",
                    "midi": 72,
                    "time": 249.27826950000002,
                    "velocity": 0.2204724409448819,
                    "duration": 0.4639173749999941
                },
                {
                    "name": "D#4",
                    "midi": 63,
                    "time": 249.27826950000002,
                    "velocity": 0.18110236220472442,
                    "duration": 0.4639173749999941
                },
                {
                    "name": "G#4",
                    "midi": 68,
                    "time": 249.27826950000002,
                    "velocity": 0.18110236220472442,
                    "duration": 0.4639173749999941
                },
                {
                    "name": "G#4",
                    "midi": 68,
                    "time": 249.896826,
                    "velocity": 0.2440944881889764,
                    "duration": 0.6185565000000111
                },
                {
                    "name": "D4",
                    "midi": 62,
                    "time": 249.896826,
                    "velocity": 0.2440944881889764,
                    "duration": 0.6185565000000111
                },
                {
                    "name": "B4",
                    "midi": 71,
                    "time": 249.896826,
                    "velocity": 0.29133858267716534,
                    "duration": 0.6185565000000111
                },
                {
                    "name": "G#4",
                    "midi": 68,
                    "time": 250.51538250000002,
                    "velocity": 0.1889763779527559,
                    "duration": 0.4639173749999941
                },
                {
                    "name": "D#4",
                    "midi": 63,
                    "time": 250.51538250000002,
                    "velocity": 0.1889763779527559,
                    "duration": 0.4639173749999941
                },
                {
                    "name": "C5",
                    "midi": 72,
                    "time": 250.51538250000002,
                    "velocity": 0.2283464566929134,
                    "duration": 0.4639173749999941
                },
                {
                    "name": "D#4",
                    "midi": 63,
                    "time": 251.133939,
                    "velocity": 0.2047244094488189,
                    "duration": 0.4639173749999941
                },
                {
                    "name": "G#4",
                    "midi": 68,
                    "time": 251.133939,
                    "velocity": 0.2047244094488189,
                    "duration": 0.4639173749999941
                },
                {
                    "name": "C5",
                    "midi": 72,
                    "time": 251.133939,
                    "velocity": 0.2440944881889764,
                    "duration": 0.4639173749999941
                },
                {
                    "name": "C5",
                    "midi": 72,
                    "time": 251.75249549999998,
                    "velocity": 0.25984251968503935,
                    "duration": 0.4639173749999941
                },
                {
                    "name": "G#4",
                    "midi": 68,
                    "time": 251.75249549999998,
                    "velocity": 0.2204724409448819,
                    "duration": 0.4639173749999941
                },
                {
                    "name": "D#4",
                    "midi": 63,
                    "time": 251.75249549999998,
                    "velocity": 0.2204724409448819,
                    "duration": 0.4639173749999941
                },
                {
                    "name": "C#4",
                    "midi": 61,
                    "time": 252.37105199999996,
                    "velocity": 0.33858267716535434,
                    "duration": 4.329895499999964
                },
                {
                    "name": "G#4",
                    "midi": 68,
                    "time": 252.98960849999997,
                    "velocity": 0.18110236220472442,
                    "duration": 0.4639173749999941
                },
                {
                    "name": "C#5",
                    "midi": 73,
                    "time": 252.98960849999997,
                    "velocity": 0.2204724409448819,
                    "duration": 0.4639173749999941
                },
                {
                    "name": "F4",
                    "midi": 65,
                    "time": 252.98960849999997,
                    "velocity": 0.18110236220472442,
                    "duration": 0.4639173749999941
                },
                {
                    "name": "F4",
                    "midi": 65,
                    "time": 253.60816499999996,
                    "velocity": 0.18110236220472442,
                    "duration": 0.4639173749999941
                },
                {
                    "name": "C#5",
                    "midi": 73,
                    "time": 253.60816499999996,
                    "velocity": 0.2204724409448819,
                    "duration": 0.4639173749999941
                },
                {
                    "name": "G#4",
                    "midi": 68,
                    "time": 253.60816499999996,
                    "velocity": 0.18110236220472442,
                    "duration": 0.4639173749999941
                },
                {
                    "name": "G#4",
                    "midi": 68,
                    "time": 254.22672149999994,
                    "velocity": 0.2047244094488189,
                    "duration": 0.4639173749999941
                },
                {
                    "name": "F4",
                    "midi": 65,
                    "time": 254.22672149999994,
                    "velocity": 0.2047244094488189,
                    "duration": 0.4639173749999941
                },
                {
                    "name": "C#5",
                    "midi": 73,
                    "time": 254.22672149999994,
                    "velocity": 0.2440944881889764,
                    "duration": 0.4639173749999941
                },
                {
                    "name": "C#5",
                    "midi": 73,
                    "time": 254.84527799999992,
                    "velocity": 0.29133858267716534,
                    "duration": 0.6185565000000111
                },
                {
                    "name": "G#4",
                    "midi": 68,
                    "time": 254.84527799999992,
                    "velocity": 0.2440944881889764,
                    "duration": 0.6185565000000111
                },
                {
                    "name": "F4",
                    "midi": 65,
                    "time": 254.84527799999992,
                    "velocity": 0.2440944881889764,
                    "duration": 0.6185565000000111
                },
                {
                    "name": "F4",
                    "midi": 65,
                    "time": 255.46383449999993,
                    "velocity": 0.2047244094488189,
                    "duration": 0.6185564999999826
                },
                {
                    "name": "A4",
                    "midi": 69,
                    "time": 255.46383449999993,
                    "velocity": 0.2047244094488189,
                    "duration": 0.6185564999999826
                },
                {
                    "name": "C5",
                    "midi": 72,
                    "time": 255.46383449999993,
                    "velocity": 0.2440944881889764,
                    "duration": 0.6185564999999826
                },
                {
                    "name": "F4",
                    "midi": 65,
                    "time": 256.0823909999999,
                    "velocity": 0.2047244094488189,
                    "duration": 0.6185565000000111
                },
                {
                    "name": "A#4",
                    "midi": 70,
                    "time": 256.0823909999999,
                    "velocity": 0.2440944881889764,
                    "duration": 0.6185565000000111
                },
                {
                    "name": "F4",
                    "midi": 65,
                    "time": 256.7009474999999,
                    "velocity": 0.2047244094488189,
                    "duration": 0.6185565000000111
                },
                {
                    "name": "D4",
                    "midi": 62,
                    "time": 256.7009474999999,
                    "velocity": 0.2047244094488189,
                    "duration": 0.6185565000000111
                },
                {
                    "name": "G#4",
                    "midi": 68,
                    "time": 256.7009474999999,
                    "velocity": 0.2440944881889764,
                    "duration": 0.6185565000000111
                },
                {
                    "name": "D#3",
                    "midi": 51,
                    "time": 257.31950399999994,
                    "velocity": 0.29133858267716534,
                    "duration": 0.6185565000000111
                },
                {
                    "name": "D#4",
                    "midi": 63,
                    "time": 257.93806049999995,
                    "velocity": 0.18110236220472442,
                    "duration": 0.4639173749999941
                },
                {
                    "name": "A#3",
                    "midi": 58,
                    "time": 257.93806049999995,
                    "velocity": 0.18110236220472442,
                    "duration": 0.4639173749999941
                },
                {
                    "name": "G4",
                    "midi": 67,
                    "time": 257.93806049999995,
                    "velocity": 0.2204724409448819,
                    "duration": 0.4639173749999941
                },
                {
                    "name": "A#3",
                    "midi": 58,
                    "time": 258.55661699999996,
                    "velocity": 0.18110236220472442,
                    "duration": 0.4639173749999941
                },
                {
                    "name": "D#4",
                    "midi": 63,
                    "time": 258.55661699999996,
                    "velocity": 0.18110236220472442,
                    "duration": 0.4639173749999941
                },
                {
                    "name": "G4",
                    "midi": 67,
                    "time": 258.55661699999996,
                    "velocity": 0.2204724409448819,
                    "duration": 0.4639173749999941
                },
                {
                    "name": "D#4",
                    "midi": 63,
                    "time": 259.17517349999997,
                    "velocity": 0.18110236220472442,
                    "duration": 0.4639173749999941
                },
                {
                    "name": "G4",
                    "midi": 67,
                    "time": 259.17517349999997,
                    "velocity": 0.2204724409448819,
                    "duration": 0.4639173749999941
                },
                {
                    "name": "A#3",
                    "midi": 58,
                    "time": 259.17517349999997,
                    "velocity": 0.18110236220472442,
                    "duration": 0.4639173749999941
                },
                {
                    "name": "D#4",
                    "midi": 63,
                    "time": 259.79373,
                    "velocity": 0.2440944881889764,
                    "duration": 0.4639173749999941
                },
                {
                    "name": "G4",
                    "midi": 67,
                    "time": 259.79373,
                    "velocity": 0.29133858267716534,
                    "duration": 0.4639173749999941
                },
                {
                    "name": "A#3",
                    "midi": 58,
                    "time": 259.79373,
                    "velocity": 0.2440944881889764,
                    "duration": 0.4639173749999941
                },
                {
                    "name": "A#3",
                    "midi": 58,
                    "time": 260.4122865,
                    "velocity": 0.1889763779527559,
                    "duration": 0.4639173749999941
                },
                {
                    "name": "D#4",
                    "midi": 63,
                    "time": 260.4122865,
                    "velocity": 0.1889763779527559,
                    "duration": 0.4639173749999941
                },
                {
                    "name": "G4",
                    "midi": 67,
                    "time": 260.4122865,
                    "velocity": 0.2283464566929134,
                    "duration": 0.4639173749999941
                },
                {
                    "name": "G#4",
                    "midi": 68,
                    "time": 261.030843,
                    "velocity": 0.2440944881889764,
                    "duration": 0.6185565000000111
                },
                {
                    "name": "C4",
                    "midi": 60,
                    "time": 261.030843,
                    "velocity": 0.2047244094488189,
                    "duration": 0.6185565000000111
                },
                {
                    "name": "D#4",
                    "midi": 63,
                    "time": 261.030843,
                    "velocity": 0.2047244094488189,
                    "duration": 0.6185565000000111
                },
                {
                    "name": "D#4",
                    "midi": 63,
                    "time": 261.6493995,
                    "velocity": 0.2204724409448819,
                    "duration": 0.6185565000000111
                },
                {
                    "name": "C#4",
                    "midi": 61,
                    "time": 261.6493995,
                    "velocity": 0.2204724409448819,
                    "duration": 0.6185565000000111
                },
                {
                    "name": "A#4",
                    "midi": 70,
                    "time": 261.6493995,
                    "velocity": 0.25984251968503935,
                    "duration": 0.6185565000000111
                },
                {
                    "name": "G#3",
                    "midi": 56,
                    "time": 262.267956,
                    "velocity": 0.33858267716535434,
                    "duration": 3.0927825000000553
                },
                {
                    "name": "D#4",
                    "midi": 63,
                    "time": 262.88651250000004,
                    "velocity": 0.18110236220472442,
                    "duration": 0.4639173749999941
                },
                {
                    "name": "C4",
                    "midi": 60,
                    "time": 262.88651250000004,
                    "velocity": 0.18110236220472442,
                    "duration": 0.4639173749999941
                },
                {
                    "name": "G#4",
                    "midi": 68,
                    "time": 262.88651250000004,
                    "velocity": 0.2204724409448819,
                    "duration": 0.4639173749999941
                },
                {
                    "name": "G#4",
                    "midi": 68,
                    "time": 263.50506900000005,
                    "velocity": 0.2204724409448819,
                    "duration": 0.4639173749999941
                },
                {
                    "name": "D#4",
                    "midi": 63,
                    "time": 263.50506900000005,
                    "velocity": 0.18110236220472442,
                    "duration": 0.4639173749999941
                },
                {
                    "name": "C4",
                    "midi": 60,
                    "time": 263.50506900000005,
                    "velocity": 0.18110236220472442,
                    "duration": 0.4639173749999941
                },
                {
                    "name": "C4",
                    "midi": 60,
                    "time": 264.12362550000006,
                    "velocity": 0.2047244094488189,
                    "duration": 0.4639173749999941
                },
                {
                    "name": "G#4",
                    "midi": 68,
                    "time": 264.12362550000006,
                    "velocity": 0.2440944881889764,
                    "duration": 0.4639173749999941
                },
                {
                    "name": "D#4",
                    "midi": 63,
                    "time": 264.12362550000006,
                    "velocity": 0.2047244094488189,
                    "duration": 0.4639173749999941
                },
                {
                    "name": "G#4",
                    "midi": 68,
                    "time": 264.74218200000007,
                    "velocity": 0.29133858267716534,
                    "duration": 0.4639173749999941
                },
                {
                    "name": "D#4",
                    "midi": 63,
                    "time": 264.74218200000007,
                    "velocity": 0.2440944881889764,
                    "duration": 0.4639173749999941
                },
                {
                    "name": "C4",
                    "midi": 60,
                    "time": 264.74218200000007,
                    "velocity": 0.2440944881889764,
                    "duration": 0.4639173749999941
                },
                {
                    "name": "C4",
                    "midi": 60,
                    "time": 265.3607385000001,
                    "velocity": 0.2047244094488189,
                    "duration": 0.4639173749999941
                },
                {
                    "name": "G#4",
                    "midi": 68,
                    "time": 265.3607385000001,
                    "velocity": 0.2440944881889764,
                    "duration": 0.4639173749999941
                },
                {
                    "name": "D#4",
                    "midi": 63,
                    "time": 265.3607385000001,
                    "velocity": 0.2047244094488189,
                    "duration": 0.4639173749999941
                },
                {
                    "name": "D#4",
                    "midi": 63,
                    "time": 265.9792950000001,
                    "velocity": 0.2047244094488189,
                    "duration": 0.6185565000000111
                },
                {
                    "name": "C5",
                    "midi": 72,
                    "time": 265.9792950000001,
                    "velocity": 0.2440944881889764,
                    "duration": 0.6185565000000111
                },
                {
                    "name": "G#4",
                    "midi": 68,
                    "time": 265.9792950000001,
                    "velocity": 0.2047244094488189,
                    "duration": 0.6185565000000111
                },
                {
                    "name": "D#4",
                    "midi": 63,
                    "time": 266.5978515000001,
                    "velocity": 0.2047244094488189,
                    "duration": 0.6185565000000111
                },
                {
                    "name": "C4",
                    "midi": 60,
                    "time": 266.5978515000001,
                    "velocity": 0.2047244094488189,
                    "duration": 0.6185565000000111
                },
                {
                    "name": "G#4",
                    "midi": 68,
                    "time": 266.5978515000001,
                    "velocity": 0.2440944881889764,
                    "duration": 0.6185565000000111
                },
                {
                    "name": "D#3",
                    "midi": 51,
                    "time": 267.2164080000001,
                    "velocity": 0.29133858267716534,
                    "duration": 0.6185565000000111
                },
                {
                    "name": "D#4",
                    "midi": 63,
                    "time": 267.8349645000001,
                    "velocity": 0.18110236220472442,
                    "duration": 0.4639173749999941
                },
                {
                    "name": "A#3",
                    "midi": 58,
                    "time": 267.8349645000001,
                    "velocity": 0.18110236220472442,
                    "duration": 0.4639173749999941
                },
                {
                    "name": "G4",
                    "midi": 67,
                    "time": 267.8349645000001,
                    "velocity": 0.2204724409448819,
                    "duration": 0.4639173749999941
                },
                {
                    "name": "G4",
                    "midi": 67,
                    "time": 268.45352100000014,
                    "velocity": 0.2204724409448819,
                    "duration": 0.4639173749999941
                },
                {
                    "name": "D#4",
                    "midi": 63,
                    "time": 268.45352100000014,
                    "velocity": 0.18110236220472442,
                    "duration": 0.4639173749999941
                },
                {
                    "name": "A#3",
                    "midi": 58,
                    "time": 268.45352100000014,
                    "velocity": 0.18110236220472442,
                    "duration": 0.4639173749999941
                },
                {
                    "name": "D#4",
                    "midi": 63,
                    "time": 269.07207750000015,
                    "velocity": 0.18110236220472442,
                    "duration": 0.4639173749999941
                },
                {
                    "name": "G4",
                    "midi": 67,
                    "time": 269.07207750000015,
                    "velocity": 0.2204724409448819,
                    "duration": 0.4639173749999941
                },
                {
                    "name": "A#3",
                    "midi": 58,
                    "time": 269.07207750000015,
                    "velocity": 0.18110236220472442,
                    "duration": 0.4639173749999941
                },
                {
                    "name": "A#3",
                    "midi": 58,
                    "time": 269.69063400000016,
                    "velocity": 0.2440944881889764,
                    "duration": 0.4639173749999941
                },
                {
                    "name": "G4",
                    "midi": 67,
                    "time": 269.69063400000016,
                    "velocity": 0.29133858267716534,
                    "duration": 0.4639173749999941
                },
                {
                    "name": "D#4",
                    "midi": 63,
                    "time": 269.69063400000016,
                    "velocity": 0.2440944881889764,
                    "duration": 0.4639173749999941
                },
                {
                    "name": "D#4",
                    "midi": 63,
                    "time": 270.30919050000017,
                    "velocity": 0.1889763779527559,
                    "duration": 0.4639173749999941
                },
                {
                    "name": "G4",
                    "midi": 67,
                    "time": 270.30919050000017,
                    "velocity": 0.2283464566929134,
                    "duration": 0.4639173749999941
                },
                {
                    "name": "A#3",
                    "midi": 58,
                    "time": 270.30919050000017,
                    "velocity": 0.1889763779527559,
                    "duration": 0.4639173749999941
                },
                {
                    "name": "C4",
                    "midi": 60,
                    "time": 270.9277470000002,
                    "velocity": 0.2047244094488189,
                    "duration": 0.6185565000000111
                },
                {
                    "name": "D#4",
                    "midi": 63,
                    "time": 270.9277470000002,
                    "velocity": 0.2047244094488189,
                    "duration": 0.6185565000000111
                },
                {
                    "name": "G#4",
                    "midi": 68,
                    "time": 270.9277470000002,
                    "velocity": 0.2440944881889764,
                    "duration": 0.6185565000000111
                },
                {
                    "name": "A#4",
                    "midi": 70,
                    "time": 271.5463035000002,
                    "velocity": 0.25984251968503935,
                    "duration": 0.6185565000000111
                },
                {
                    "name": "C#4",
                    "midi": 61,
                    "time": 271.5463035000002,
                    "velocity": 0.2204724409448819,
                    "duration": 0.6185565000000111
                },
                {
                    "name": "D#4",
                    "midi": 63,
                    "time": 271.5463035000002,
                    "velocity": 0.2204724409448819,
                    "duration": 0.6185565000000111
                },
                {
                    "name": "G#3",
                    "midi": 56,
                    "time": 272.1648600000002,
                    "velocity": 0.33858267716535434,
                    "duration": 2.9381433750000383
                },
                {
                    "name": "G#4",
                    "midi": 68,
                    "time": 272.7834165000002,
                    "velocity": 0.2204724409448819,
                    "duration": 0.4639173749999941
                },
                {
                    "name": "D#4",
                    "midi": 63,
                    "time": 272.7834165000002,
                    "velocity": 0.18110236220472442,
                    "duration": 0.4639173749999941
                },
                {
                    "name": "C4",
                    "midi": 60,
                    "time": 272.7834165000002,
                    "velocity": 0.18110236220472442,
                    "duration": 0.4639173749999941
                },
                {
                    "name": "D#4",
                    "midi": 63,
                    "time": 273.4019730000002,
                    "velocity": 0.18110236220472442,
                    "duration": 0.4639173749999941
                },
                {
                    "name": "C4",
                    "midi": 60,
                    "time": 273.4019730000002,
                    "velocity": 0.18110236220472442,
                    "duration": 0.4639173749999941
                },
                {
                    "name": "G#4",
                    "midi": 68,
                    "time": 273.4019730000002,
                    "velocity": 0.2204724409448819,
                    "duration": 0.4639173749999941
                },
                {
                    "name": "C4",
                    "midi": 60,
                    "time": 274.02052950000024,
                    "velocity": 0.2047244094488189,
                    "duration": 0.4639173749999941
                },
                {
                    "name": "D#4",
                    "midi": 63,
                    "time": 274.02052950000024,
                    "velocity": 0.2047244094488189,
                    "duration": 0.4639173749999941
                },
                {
                    "name": "G#4",
                    "midi": 68,
                    "time": 274.02052950000024,
                    "velocity": 0.2440944881889764,
                    "duration": 0.4639173749999941
                },
                {
                    "name": "C4",
                    "midi": 60,
                    "time": 274.63908600000025,
                    "velocity": 0.2440944881889764,
                    "duration": 0.4639173749999941
                },
                {
                    "name": "D#4",
                    "midi": 63,
                    "time": 274.63908600000025,
                    "velocity": 0.2440944881889764,
                    "duration": 0.4639173749999941
                },
                {
                    "name": "G#4",
                    "midi": 68,
                    "time": 274.63908600000025,
                    "velocity": 0.29133858267716534,
                    "duration": 0.4639173749999941
                },
                {
                    "name": "D#4",
                    "midi": 63,
                    "time": 275.25764250000026,
                    "velocity": 0.2440944881889764,
                    "duration": 0.6185565000000111
                },
                {
                    "name": "C4",
                    "midi": 60,
                    "time": 275.25764250000026,
                    "velocity": 0.2440944881889764,
                    "duration": 0.6185565000000111
                },
                {
                    "name": "C4",
                    "midi": 60,
                    "time": 275.87619900000027,
                    "velocity": 0.2440944881889764,
                    "duration": 0.6185565000000111
                },
                {
                    "name": "G#4",
                    "midi": 68,
                    "time": 275.87619900000027,
                    "velocity": 0.2440944881889764,
                    "duration": 0.6185565000000111
                },
                {
                    "name": "D#4",
                    "midi": 63,
                    "time": 275.87619900000027,
                    "velocity": 0.2440944881889764,
                    "duration": 0.6185565000000111
                },
                {
                    "name": "G4",
                    "midi": 67,
                    "time": 276.4947555000003,
                    "velocity": 0.2440944881889764,
                    "duration": 0.6185565000000111
                },
                {
                    "name": "D#4",
                    "midi": 63,
                    "time": 276.4947555000003,
                    "velocity": 0.2440944881889764,
                    "duration": 0.6185565000000111
                },
                {
                    "name": "A#4",
                    "midi": 70,
                    "time": 276.4947555000003,
                    "velocity": 0.2440944881889764,
                    "duration": 0.6185565000000111
                },
                {
                    "name": "G#3",
                    "midi": 56,
                    "time": 277.1133120000003,
                    "velocity": 0.36220472440944884,
                    "duration": 0.3092782499999771
                },
                {
                    "name": "D#4",
                    "midi": 63,
                    "time": 277.73186850000025,
                    "velocity": 0.18110236220472442,
                    "duration": 0.4639173749999941
                },
                {
                    "name": "G#4",
                    "midi": 68,
                    "time": 277.73186850000025,
                    "velocity": 0.18110236220472442,
                    "duration": 0.4639173749999941
                },
                {
                    "name": "C5",
                    "midi": 72,
                    "time": 277.73186850000025,
                    "velocity": 0.2204724409448819,
                    "duration": 0.4639173749999941
                },
                {
                    "name": "D#4",
                    "midi": 63,
                    "time": 278.35042500000026,
                    "velocity": 0.18110236220472442,
                    "duration": 0.4639173749999941
                },
                {
                    "name": "G#4",
                    "midi": 68,
                    "time": 278.35042500000026,
                    "velocity": 0.18110236220472442,
                    "duration": 0.4639173749999941
                },
                {
                    "name": "C5",
                    "midi": 72,
                    "time": 278.35042500000026,
                    "velocity": 0.2204724409448819,
                    "duration": 0.4639173749999941
                },
                {
                    "name": "D#4",
                    "midi": 63,
                    "time": 278.96898150000027,
                    "velocity": 0.18110236220472442,
                    "duration": 0.4639173749999941
                },
                {
                    "name": "G#4",
                    "midi": 68,
                    "time": 278.96898150000027,
                    "velocity": 0.18110236220472442,
                    "duration": 0.4639173749999941
                },
                {
                    "name": "C5",
                    "midi": 72,
                    "time": 278.96898150000027,
                    "velocity": 0.2204724409448819,
                    "duration": 0.4639173749999941
                },
                {
                    "name": "G#4",
                    "midi": 68,
                    "time": 279.5875380000003,
                    "velocity": 0.2440944881889764,
                    "duration": 0.6185565000000111
                },
                {
                    "name": "D4",
                    "midi": 62,
                    "time": 279.5875380000003,
                    "velocity": 0.2440944881889764,
                    "duration": 0.6185565000000111
                },
                {
                    "name": "B4",
                    "midi": 71,
                    "time": 279.5875380000003,
                    "velocity": 0.29133858267716534,
                    "duration": 0.6185565000000111
                },
                {
                    "name": "D#4",
                    "midi": 63,
                    "time": 280.2060945000003,
                    "velocity": 0.1889763779527559,
                    "duration": 0.4639173749999941
                },
                {
                    "name": "G#4",
                    "midi": 68,
                    "time": 280.2060945000003,
                    "velocity": 0.1889763779527559,
                    "duration": 0.4639173749999941
                },
                {
                    "name": "C5",
                    "midi": 72,
                    "time": 280.2060945000003,
                    "velocity": 0.2283464566929134,
                    "duration": 0.4639173749999941
                },
                {
                    "name": "D#4",
                    "midi": 63,
                    "time": 280.8246510000003,
                    "velocity": 0.2047244094488189,
                    "duration": 0.4639173749999941
                },
                {
                    "name": "G#4",
                    "midi": 68,
                    "time": 280.8246510000003,
                    "velocity": 0.2047244094488189,
                    "duration": 0.4639173749999941
                },
                {
                    "name": "C5",
                    "midi": 72,
                    "time": 280.8246510000003,
                    "velocity": 0.2440944881889764,
                    "duration": 0.4639173749999941
                },
                {
                    "name": "C5",
                    "midi": 72,
                    "time": 281.4432075000003,
                    "velocity": 0.25984251968503935,
                    "duration": 0.4639173749999941
                },
                {
                    "name": "D#4",
                    "midi": 63,
                    "time": 281.4432075000003,
                    "velocity": 0.2204724409448819,
                    "duration": 0.4639173749999941
                },
                {
                    "name": "G#4",
                    "midi": 68,
                    "time": 281.4432075000003,
                    "velocity": 0.2204724409448819,
                    "duration": 0.4639173749999941
                },
                {
                    "name": "C#4",
                    "midi": 61,
                    "time": 282.0617640000003,
                    "velocity": 0.33858267716535434,
                    "duration": 3.0927825000000553
                },
                {
                    "name": "D#5",
                    "midi": 75,
                    "time": 282.0617640000003,
                    "velocity": 0.29133858267716534,
                    "duration": 0.6185565000000111
                },
                {
                    "name": "G#4",
                    "midi": 68,
                    "time": 282.0617640000003,
                    "velocity": 0.2440944881889764,
                    "duration": 0.6185565000000111
                },
                {
                    "name": "F#4",
                    "midi": 66,
                    "time": 282.0617640000003,
                    "velocity": 0.2440944881889764,
                    "duration": 0.6185565000000111
                },
                {
                    "name": "G#4",
                    "midi": 68,
                    "time": 282.68032050000033,
                    "velocity": 0.18110236220472442,
                    "duration": 0.4639173749999941
                },
                {
                    "name": "F4",
                    "midi": 65,
                    "time": 282.68032050000033,
                    "velocity": 0.18110236220472442,
                    "duration": 0.4639173749999941
                },
                {
                    "name": "C#5",
                    "midi": 73,
                    "time": 282.68032050000033,
                    "velocity": 0.2204724409448819,
                    "duration": 0.4639173749999941
                },
                {
                    "name": "G#4",
                    "midi": 68,
                    "time": 283.29887700000035,
                    "velocity": 0.18110236220472442,
                    "duration": 0.4639173749999941
                },
                {
                    "name": "C#5",
                    "midi": 73,
                    "time": 283.29887700000035,
                    "velocity": 0.2204724409448819,
                    "duration": 0.4639173749999941
                },
                {
                    "name": "F4",
                    "midi": 65,
                    "time": 283.29887700000035,
                    "velocity": 0.18110236220472442,
                    "duration": 0.4639173749999941
                },
                {
                    "name": "F4",
                    "midi": 65,
                    "time": 283.91743350000036,
                    "velocity": 0.2047244094488189,
                    "duration": 0.4639173749999941
                },
                {
                    "name": "G#4",
                    "midi": 68,
                    "time": 283.91743350000036,
                    "velocity": 0.2047244094488189,
                    "duration": 0.4639173749999941
                },
                {
                    "name": "C#5",
                    "midi": 73,
                    "time": 283.91743350000036,
                    "velocity": 0.2440944881889764,
                    "duration": 0.4639173749999941
                },
                {
                    "name": "F4",
                    "midi": 65,
                    "time": 284.53599000000037,
                    "velocity": 0.2440944881889764,
                    "duration": 0.6185565000000111
                },
                {
                    "name": "C#5",
                    "midi": 73,
                    "time": 284.53599000000037,
                    "velocity": 0.29133858267716534,
                    "duration": 0.6185565000000111
                },
                {
                    "name": "G#4",
                    "midi": 68,
                    "time": 284.53599000000037,
                    "velocity": 0.2440944881889764,
                    "duration": 0.6185565000000111
                },
                {
                    "name": "D#4",
                    "midi": 63,
                    "time": 285.1545465000004,
                    "velocity": 0.2047244094488189,
                    "duration": 0.6185565000000111
                },
                {
                    "name": "C5",
                    "midi": 72,
                    "time": 285.1545465000004,
                    "velocity": 0.2440944881889764,
                    "duration": 0.6185565000000111
                },
                {
                    "name": "F4",
                    "midi": 65,
                    "time": 285.1545465000004,
                    "velocity": 0.2047244094488189,
                    "duration": 0.6185565000000111
                },
                {
                    "name": "A#4",
                    "midi": 70,
                    "time": 285.7731030000004,
                    "velocity": 0.25196850393700787,
                    "duration": 0.6185565000000111
                },
                {
                    "name": "C#4",
                    "midi": 61,
                    "time": 285.7731030000004,
                    "velocity": 0.2125984251968504,
                    "duration": 0.6185565000000111
                },
                {
                    "name": "F4",
                    "midi": 65,
                    "time": 285.7731030000004,
                    "velocity": 0.2125984251968504,
                    "duration": 0.6185565000000111
                },
                {
                    "name": "G#4",
                    "midi": 68,
                    "time": 286.3916595000004,
                    "velocity": 0.25984251968503935,
                    "duration": 0.6185565000000111
                },
                {
                    "name": "C4",
                    "midi": 60,
                    "time": 286.3916595000004,
                    "velocity": 0.2204724409448819,
                    "duration": 0.6185565000000111
                },
                {
                    "name": "D#4",
                    "midi": 63,
                    "time": 286.3916595000004,
                    "velocity": 0.2204724409448819,
                    "duration": 0.6185565000000111
                },
                {
                    "name": "D#3",
                    "midi": 51,
                    "time": 287.0102160000004,
                    "velocity": 0.3228346456692913,
                    "duration": 0.6185565000000111
                },
                {
                    "name": "G4",
                    "midi": 67,
                    "time": 287.6287725000004,
                    "velocity": 0.25196850393700787,
                    "duration": 0.4639173749999941
                },
                {
                    "name": "A#3",
                    "midi": 58,
                    "time": 287.6287725000004,
                    "velocity": 0.2047244094488189,
                    "duration": 0.4639173749999941
                },
                {
                    "name": "D#4",
                    "midi": 63,
                    "time": 287.6287725000004,
                    "velocity": 0.2047244094488189,
                    "duration": 0.4639173749999941
                },
                {
                    "name": "D#4",
                    "midi": 63,
                    "time": 288.24732900000043,
                    "velocity": 0.2047244094488189,
                    "duration": 0.4639173749999941
                },
                {
                    "name": "G4",
                    "midi": 67,
                    "time": 288.24732900000043,
                    "velocity": 0.25196850393700787,
                    "duration": 0.4639173749999941
                },
                {
                    "name": "A#3",
                    "midi": 58,
                    "time": 288.24732900000043,
                    "velocity": 0.2047244094488189,
                    "duration": 0.4639173749999941
                },
                {
                    "name": "G4",
                    "midi": 67,
                    "time": 288.86588550000045,
                    "velocity": 0.25196850393700787,
                    "duration": 0.4639173749999941
                },
                {
                    "name": "A#3",
                    "midi": 58,
                    "time": 288.86588550000045,
                    "velocity": 0.2047244094488189,
                    "duration": 0.4639173749999941
                },
                {
                    "name": "D#4",
                    "midi": 63,
                    "time": 288.86588550000045,
                    "velocity": 0.2047244094488189,
                    "duration": 0.4639173749999941
                },
                {
                    "name": "A#3",
                    "midi": 58,
                    "time": 289.48444200000046,
                    "velocity": 0.2755905511811024,
                    "duration": 0.4639173749999941
                },
                {
                    "name": "D#4",
                    "midi": 63,
                    "time": 289.48444200000046,
                    "velocity": 0.2755905511811024,
                    "duration": 0.4639173749999941
                },
                {
                    "name": "G4",
                    "midi": 67,
                    "time": 289.48444200000046,
                    "velocity": 0.33070866141732286,
                    "duration": 0.4639173749999941
                },
                {
                    "name": "D#4",
                    "midi": 63,
                    "time": 290.10299850000047,
                    "velocity": 0.2125984251968504,
                    "duration": 0.4639173749999941
                },
                {
                    "name": "G4",
                    "midi": 67,
                    "time": 290.10299850000047,
                    "velocity": 0.25984251968503935,
                    "duration": 0.4639173749999941
                },
                {
                    "name": "A#3",
                    "midi": 58,
                    "time": 290.10299850000047,
                    "velocity": 0.2125984251968504,
                    "duration": 0.4639173749999941
                },
                {
                    "name": "C4",
                    "midi": 60,
                    "time": 290.7215550000005,
                    "velocity": 0.2283464566929134,
                    "duration": 0.6185565000000111
                },
                {
                    "name": "D#4",
                    "midi": 63,
                    "time": 290.7215550000005,
                    "velocity": 0.2283464566929134,
                    "duration": 0.6185565000000111
                },
                {
                    "name": "G#4",
                    "midi": 68,
                    "time": 290.7215550000005,
                    "velocity": 0.2755905511811024,
                    "duration": 0.6185565000000111
                },
                {
                    "name": "A#4",
                    "midi": 70,
                    "time": 291.3401115000005,
                    "velocity": 0.29133858267716534,
                    "duration": 0.6185565000000111
                },
                {
                    "name": "C#4",
                    "midi": 61,
                    "time": 291.3401115000005,
                    "velocity": 0.25196850393700787,
                    "duration": 0.6185565000000111
                },
                {
                    "name": "D#4",
                    "midi": 63,
                    "time": 291.3401115000005,
                    "velocity": 0.25196850393700787,
                    "duration": 0.6185565000000111
                },
                {
                    "name": "G#3",
                    "midi": 56,
                    "time": 291.9586680000005,
                    "velocity": 0.33858267716535434,
                    "duration": 2.4742260000000442
                },
                {
                    "name": "C#4",
                    "midi": 61,
                    "time": 291.9586680000005,
                    "velocity": 0.2440944881889764,
                    "duration": 0.6185565000000111
                },
                {
                    "name": "D#4",
                    "midi": 63,
                    "time": 291.9586680000005,
                    "velocity": 0.29133858267716534,
                    "duration": 0.6185565000000111
                },
                {
                    "name": "G#4",
                    "midi": 68,
                    "time": 292.5772245000005,
                    "velocity": 0.25196850393700787,
                    "duration": 0.4639173749999941
                },
                {
                    "name": "D#4",
                    "midi": 63,
                    "time": 292.5772245000005,
                    "velocity": 0.2047244094488189,
                    "duration": 0.4639173749999941
                },
                {
                    "name": "C4",
                    "midi": 60,
                    "time": 292.5772245000005,
                    "velocity": 0.2047244094488189,
                    "duration": 0.4639173749999941
                },
                {
                    "name": "G#4",
                    "midi": 68,
                    "time": 293.1957810000005,
                    "velocity": 0.25196850393700787,
                    "duration": 0.4639173749999941
                },
                {
                    "name": "C4",
                    "midi": 60,
                    "time": 293.1957810000005,
                    "velocity": 0.2047244094488189,
                    "duration": 0.4639173749999941
                },
                {
                    "name": "D#4",
                    "midi": 63,
                    "time": 293.1957810000005,
                    "velocity": 0.2047244094488189,
                    "duration": 0.4639173749999941
                },
                {
                    "name": "G#4",
                    "midi": 68,
                    "time": 293.81433750000053,
                    "velocity": 0.2755905511811024,
                    "duration": 0.4639173749999941
                },
                {
                    "name": "D#4",
                    "midi": 63,
                    "time": 293.81433750000053,
                    "velocity": 0.2283464566929134,
                    "duration": 0.4639173749999941
                },
                {
                    "name": "C4",
                    "midi": 60,
                    "time": 293.81433750000053,
                    "velocity": 0.2283464566929134,
                    "duration": 0.4639173749999941
                },
                {
                    "name": "G#4",
                    "midi": 68,
                    "time": 294.43289400000054,
                    "velocity": 0.2755905511811024,
                    "duration": 0.6185565000000111
                },
                {
                    "name": "C5",
                    "midi": 72,
                    "time": 294.58753312500056,
                    "velocity": 0.33070866141732286,
                    "duration": 0.4639173749999941
                },
                {
                    "name": "D#4",
                    "midi": 63,
                    "time": 294.58753312500056,
                    "velocity": 0.2755905511811024,
                    "duration": 0.4639173749999941
                },
                {
                    "name": "C4",
                    "midi": 60,
                    "time": 295.05145050000056,
                    "velocity": 0.2047244094488189,
                    "duration": 0.4639173749999941
                },
                {
                    "name": "G#4",
                    "midi": 68,
                    "time": 295.05145050000056,
                    "velocity": 0.2440944881889764,
                    "duration": 0.4639173749999941
                },
                {
                    "name": "D#4",
                    "midi": 63,
                    "time": 295.05145050000056,
                    "velocity": 0.2047244094488189,
                    "duration": 0.4639173749999941
                },
                {
                    "name": "C4",
                    "midi": 60,
                    "time": 295.67000700000057,
                    "velocity": 0.2047244094488189,
                    "duration": 0.4639173749999941
                },
                {
                    "name": "G#4",
                    "midi": 68,
                    "time": 295.67000700000057,
                    "velocity": 0.2440944881889764,
                    "duration": 0.4639173749999941
                },
                {
                    "name": "D#4",
                    "midi": 63,
                    "time": 295.67000700000057,
                    "velocity": 0.2047244094488189,
                    "duration": 0.4639173749999941
                },
                {
                    "name": "D#4",
                    "midi": 63,
                    "time": 296.2885635000006,
                    "velocity": 0.2047244094488189,
                    "duration": 0.4639173749999941
                },
                {
                    "name": "G#4",
                    "midi": 68,
                    "time": 296.2885635000006,
                    "velocity": 0.2440944881889764,
                    "duration": 0.4639173749999941
                },
                {
                    "name": "C4",
                    "midi": 60,
                    "time": 296.2885635000006,
                    "velocity": 0.2047244094488189,
                    "duration": 0.4639173749999941
                },
                {
                    "name": "D#3",
                    "midi": 51,
                    "time": 296.9071200000006,
                    "velocity": 0.29133858267716534,
                    "duration": 0.6185565000000111
                },
                {
                    "name": "G4",
                    "midi": 67,
                    "time": 297.5256765000006,
                    "velocity": 0.2204724409448819,
                    "duration": 0.4639173749999941
                },
                {
                    "name": "A#3",
                    "midi": 58,
                    "time": 297.5256765000006,
                    "velocity": 0.18110236220472442,
                    "duration": 0.4639173749999941
                },
                {
                    "name": "D#4",
                    "midi": 63,
                    "time": 297.5256765000006,
                    "velocity": 0.18110236220472442,
                    "duration": 0.4639173749999941
                },
                {
                    "name": "D#4",
                    "midi": 63,
                    "time": 298.1442330000006,
                    "velocity": 0.18110236220472442,
                    "duration": 0.4639173749999941
                },
                {
                    "name": "A#3",
                    "midi": 58,
                    "time": 298.1442330000006,
                    "velocity": 0.18110236220472442,
                    "duration": 0.4639173749999941
                },
                {
                    "name": "G4",
                    "midi": 67,
                    "time": 298.1442330000006,
                    "velocity": 0.2204724409448819,
                    "duration": 0.4639173749999941
                },
                {
                    "name": "D#4",
                    "midi": 63,
                    "time": 298.7627895000006,
                    "velocity": 0.18110236220472442,
                    "duration": 0.4639173749999941
                },
                {
                    "name": "A#3",
                    "midi": 58,
                    "time": 298.7627895000006,
                    "velocity": 0.18110236220472442,
                    "duration": 0.4639173749999941
                },
                {
                    "name": "G4",
                    "midi": 67,
                    "time": 298.7627895000006,
                    "velocity": 0.2204724409448819,
                    "duration": 0.4639173749999941
                },
                {
                    "name": "A#3",
                    "midi": 58,
                    "time": 299.38134600000063,
                    "velocity": 0.2440944881889764,
                    "duration": 0.4639173749999941
                },
                {
                    "name": "D#4",
                    "midi": 63,
                    "time": 299.38134600000063,
                    "velocity": 0.2440944881889764,
                    "duration": 0.4639173749999941
                },
                {
                    "name": "G4",
                    "midi": 67,
                    "time": 299.38134600000063,
                    "velocity": 0.29133858267716534,
                    "duration": 0.4639173749999941
                },
                {
                    "name": "D#4",
                    "midi": 63,
                    "time": 299.99990250000064,
                    "velocity": 0.1889763779527559,
                    "duration": 0.4639173749999941
                },
                {
                    "name": "G4",
                    "midi": 67,
                    "time": 299.99990250000064,
                    "velocity": 0.2283464566929134,
                    "duration": 0.4639173749999941
                },
                {
                    "name": "A#3",
                    "midi": 58,
                    "time": 299.99990250000064,
                    "velocity": 0.1889763779527559,
                    "duration": 0.4639173749999941
                },
                {
                    "name": "G#4",
                    "midi": 68,
                    "time": 300.61845900000066,
                    "velocity": 0.2440944881889764,
                    "duration": 0.6185565000000111
                },
                {
                    "name": "D#4",
                    "midi": 63,
                    "time": 300.61845900000066,
                    "velocity": 0.2047244094488189,
                    "duration": 0.6185565000000111
                },
                {
                    "name": "C4",
                    "midi": 60,
                    "time": 300.61845900000066,
                    "velocity": 0.2047244094488189,
                    "duration": 0.6185565000000111
                },
                {
                    "name": "C#4",
                    "midi": 61,
                    "time": 301.23701550000067,
                    "velocity": 0.2204724409448819,
                    "duration": 0.6185565000000111
                },
                {
                    "name": "A#4",
                    "midi": 70,
                    "time": 301.23701550000067,
                    "velocity": 0.25984251968503935,
                    "duration": 0.6185565000000111
                },
                {
                    "name": "D#4",
                    "midi": 63,
                    "time": 301.23701550000067,
                    "velocity": 0.2204724409448819,
                    "duration": 0.6185565000000111
                },
                {
                    "name": "C#4",
                    "midi": 61,
                    "time": 301.8555720000007,
                    "velocity": 0.2283464566929134,
                    "duration": 0.6185565000000111
                },
                {
                    "name": "D#4",
                    "midi": 63,
                    "time": 301.8555720000007,
                    "velocity": 0.25984251968503935,
                    "duration": 0.6185565000000111
                },
                {
                    "name": "G#3",
                    "midi": 56,
                    "time": 301.8555720000007,
                    "velocity": 0.33858267716535434,
                    "duration": 2.4742260000000442
                },
                {
                    "name": "D#4",
                    "midi": 63,
                    "time": 302.4741285000007,
                    "velocity": 0.18110236220472442,
                    "duration": 0.4639173749999941
                },
                {
                    "name": "G#4",
                    "midi": 68,
                    "time": 302.4741285000007,
                    "velocity": 0.2204724409448819,
                    "duration": 0.4639173749999941
                },
                {
                    "name": "C4",
                    "midi": 60,
                    "time": 302.4741285000007,
                    "velocity": 0.18110236220472442,
                    "duration": 0.4639173749999941
                },
                {
                    "name": "D#4",
                    "midi": 63,
                    "time": 303.0926850000007,
                    "velocity": 0.18110236220472442,
                    "duration": 0.4639173749999941
                },
                {
                    "name": "G#4",
                    "midi": 68,
                    "time": 303.0926850000007,
                    "velocity": 0.2204724409448819,
                    "duration": 0.4639173749999941
                },
                {
                    "name": "C4",
                    "midi": 60,
                    "time": 303.0926850000007,
                    "velocity": 0.18110236220472442,
                    "duration": 0.4639173749999941
                },
                {
                    "name": "G#4",
                    "midi": 68,
                    "time": 303.7112415000007,
                    "velocity": 0.2440944881889764,
                    "duration": 0.4639173749999941
                },
                {
                    "name": "C4",
                    "midi": 60,
                    "time": 303.7112415000007,
                    "velocity": 0.2047244094488189,
                    "duration": 0.4639173749999941
                },
                {
                    "name": "D#4",
                    "midi": 63,
                    "time": 303.7112415000007,
                    "velocity": 0.2047244094488189,
                    "duration": 0.4639173749999941
                },
                {
                    "name": "G#4",
                    "midi": 68,
                    "time": 304.3297980000007,
                    "velocity": 0.2440944881889764,
                    "duration": 0.6185565000000111
                },
                {
                    "name": "C5",
                    "midi": 72,
                    "time": 304.48443712500074,
                    "velocity": 0.29133858267716534,
                    "duration": 0.4639173749999941
                },
                {
                    "name": "D#4",
                    "midi": 63,
                    "time": 304.48443712500074,
                    "velocity": 0.2440944881889764,
                    "duration": 0.4639173749999941
                },
                {
                    "name": "D#4",
                    "midi": 63,
                    "time": 304.94835450000073,
                    "velocity": 0.2047244094488189,
                    "duration": 0.4639173749999941
                },
                {
                    "name": "G#4",
                    "midi": 68,
                    "time": 304.94835450000073,
                    "velocity": 0.2440944881889764,
                    "duration": 0.4639173749999941
                },
                {
                    "name": "C4",
                    "midi": 60,
                    "time": 304.94835450000073,
                    "velocity": 0.2047244094488189,
                    "duration": 0.4639173749999941
                },
                {
                    "name": "G#4",
                    "midi": 68,
                    "time": 305.56691100000074,
                    "velocity": 0.2440944881889764,
                    "duration": 0.4639173749999941
                },
                {
                    "name": "C4",
                    "midi": 60,
                    "time": 305.56691100000074,
                    "velocity": 0.2047244094488189,
                    "duration": 0.4639173749999941
                },
                {
                    "name": "D#4",
                    "midi": 63,
                    "time": 305.56691100000074,
                    "velocity": 0.2047244094488189,
                    "duration": 0.4639173749999941
                },
                {
                    "name": "G#4",
                    "midi": 68,
                    "time": 306.18546750000075,
                    "velocity": 0.2440944881889764,
                    "duration": 0.4639173749999941
                },
                {
                    "name": "C4",
                    "midi": 60,
                    "time": 306.18546750000075,
                    "velocity": 0.2047244094488189,
                    "duration": 0.4639173749999941
                },
                {
                    "name": "D#4",
                    "midi": 63,
                    "time": 306.18546750000075,
                    "velocity": 0.2047244094488189,
                    "duration": 0.4639173749999941
                },
                {
                    "name": "D#3",
                    "midi": 51,
                    "time": 306.80402400000077,
                    "velocity": 0.29133858267716534,
                    "duration": 0.6185565000000111
                },
                {
                    "name": "A#3",
                    "midi": 58,
                    "time": 307.4225805000008,
                    "velocity": 0.18110236220472442,
                    "duration": 0.4639173749999941
                },
                {
                    "name": "D#4",
                    "midi": 63,
                    "time": 307.4225805000008,
                    "velocity": 0.18110236220472442,
                    "duration": 0.4639173749999941
                },
                {
                    "name": "G4",
                    "midi": 67,
                    "time": 307.4225805000008,
                    "velocity": 0.2204724409448819,
                    "duration": 0.4639173749999941
                },
                {
                    "name": "G4",
                    "midi": 67,
                    "time": 308.0411370000008,
                    "velocity": 0.2204724409448819,
                    "duration": 0.4639173749999941
                },
                {
                    "name": "D#4",
                    "midi": 63,
                    "time": 308.0411370000008,
                    "velocity": 0.18110236220472442,
                    "duration": 0.4639173749999941
                },
                {
                    "name": "A#3",
                    "midi": 58,
                    "time": 308.0411370000008,
                    "velocity": 0.18110236220472442,
                    "duration": 0.4639173749999941
                },
                {
                    "name": "D#4",
                    "midi": 63,
                    "time": 308.6596935000008,
                    "velocity": 0.18110236220472442,
                    "duration": 0.4639173749999941
                },
                {
                    "name": "G4",
                    "midi": 67,
                    "time": 308.6596935000008,
                    "velocity": 0.2204724409448819,
                    "duration": 0.4639173749999941
                },
                {
                    "name": "A#3",
                    "midi": 58,
                    "time": 308.6596935000008,
                    "velocity": 0.18110236220472442,
                    "duration": 0.4639173749999941
                },
                {
                    "name": "A#3",
                    "midi": 58,
                    "time": 309.2782500000008,
                    "velocity": 0.2440944881889764,
                    "duration": 0.4639173749999941
                },
                {
                    "name": "G4",
                    "midi": 67,
                    "time": 309.2782500000008,
                    "velocity": 0.29133858267716534,
                    "duration": 0.4639173749999941
                },
                {
                    "name": "D#4",
                    "midi": 63,
                    "time": 309.2782500000008,
                    "velocity": 0.2440944881889764,
                    "duration": 0.4639173749999941
                },
                {
                    "name": "D#4",
                    "midi": 63,
                    "time": 309.8968065000008,
                    "velocity": 0.1889763779527559,
                    "duration": 0.4639173749999941
                },
                {
                    "name": "G4",
                    "midi": 67,
                    "time": 309.8968065000008,
                    "velocity": 0.2283464566929134,
                    "duration": 0.4639173749999941
                },
                {
                    "name": "A#3",
                    "midi": 58,
                    "time": 309.8968065000008,
                    "velocity": 0.1889763779527559,
                    "duration": 0.4639173749999941
                },
                {
                    "name": "G#4",
                    "midi": 68,
                    "time": 310.51536300000083,
                    "velocity": 0.2440944881889764,
                    "duration": 0.6185565000000111
                },
                {
                    "name": "D#4",
                    "midi": 63,
                    "time": 310.51536300000083,
                    "velocity": 0.2047244094488189,
                    "duration": 0.6185565000000111
                },
                {
                    "name": "C4",
                    "midi": 60,
                    "time": 310.51536300000083,
                    "velocity": 0.2047244094488189,
                    "duration": 0.6185565000000111
                },
                {
                    "name": "A#4",
                    "midi": 70,
                    "time": 311.13391950000084,
                    "velocity": 0.25984251968503935,
                    "duration": 0.6185565000000111
                },
                {
                    "name": "D#4",
                    "midi": 63,
                    "time": 311.13391950000084,
                    "velocity": 0.2204724409448819,
                    "duration": 0.6185565000000111
                },
                {
                    "name": "C#4",
                    "midi": 61,
                    "time": 311.13391950000084,
                    "velocity": 0.2204724409448819,
                    "duration": 0.6185565000000111
                },
                {
                    "name": "D#3",
                    "midi": 51,
                    "time": 311.75247600000085,
                    "velocity": 0.25984251968503935,
                    "duration": 0.6185565000000111
                },
                {
                    "name": "A#4",
                    "midi": 70,
                    "time": 312.9895890000009,
                    "velocity": 0.25984251968503935,
                    "duration": 8.659790999999984
                },
                {
                    "name": "D#4",
                    "midi": 63,
                    "time": 312.9895890000009,
                    "velocity": 0.25984251968503935,
                    "duration": 8.659790999999984
                },
                {
                    "name": "C#4",
                    "midi": 61,
                    "time": 312.9895890000009,
                    "velocity": 0.25984251968503935,
                    "duration": 8.659790999999984
                },
                {
                    "name": "G#4",
                    "midi": 68,
                    "time": 321.64938000000086,
                    "velocity": 0.25984251968503935,
                    "duration": 3.7113390000000095
                },
                {
                    "name": "G#3",
                    "midi": 56,
                    "time": 321.64938000000086,
                    "velocity": 0.25984251968503935,
                    "duration": 3.7113390000000095
                },
                {
                    "name": "D#4",
                    "midi": 63,
                    "time": 321.64938000000086,
                    "velocity": 0.25984251968503935,
                    "duration": 3.7113390000000095
                },
                {
                    "name": "C4",
                    "midi": 60,
                    "time": 321.64938000000086,
                    "velocity": 0.25984251968503935,
                    "duration": 3.7113390000000095
                },
                {
                    "name": "G#3",
                    "midi": 56,
                    "time": 327.83494500000086,
                    "velocity": 0.36220472440944884,
                    "duration": 0.3092782499999771
                },
                {
                    "name": "C4",
                    "midi": 60,
                    "time": 328.14422325000083,
                    "velocity": 0.30708661417322836,
                    "duration": 0.3092782499999771
                },
                {
                    "name": "D#3",
                    "midi": 51,
                    "time": 328.4535015000008,
                    "velocity": 0.30708661417322836,
                    "duration": 0.3092782499999771
                },
                {
                    "name": "G#3",
                    "midi": 56,
                    "time": 328.7627797500008,
                    "velocity": 0.2755905511811024,
                    "duration": 0.3092782499999771
                },
                {
                    "name": "C4",
                    "midi": 60,
                    "time": 329.07205800000077,
                    "velocity": 0.3464566929133858,
                    "duration": 0.3092782499999771
                },
                {
                    "name": "D#4",
                    "midi": 63,
                    "time": 329.38133625000074,
                    "velocity": 0.29133858267716534,
                    "duration": 0.3092782499999771
                },
                {
                    "name": "D#3",
                    "midi": 51,
                    "time": 329.6906145000007,
                    "velocity": 0.29133858267716534,
                    "duration": 0.3092782499999771
                },
                {
                    "name": "G#3",
                    "midi": 56,
                    "time": 329.9998927500007,
                    "velocity": 0.25984251968503935,
                    "duration": 0.3092782499999771
                },
                {
                    "name": "C4",
                    "midi": 60,
                    "time": 330.3091710000007,
                    "velocity": 0.33858267716535434,
                    "duration": 0.3092782499999771
                },
                {
                    "name": "D#4",
                    "midi": 63,
                    "time": 330.61844925000065,
                    "velocity": 0.2755905511811024,
                    "duration": 0.3092782499999771
                },
                {
                    "name": "D#3",
                    "midi": 51,
                    "time": 330.92772750000063,
                    "velocity": 0.2755905511811024,
                    "duration": 0.3092782499999771
                },
                {
                    "name": "G#3",
                    "midi": 56,
                    "time": 331.2370057500006,
                    "velocity": 0.23622047244094488,
                    "duration": 0.3092782499999771
                },
                {
                    "name": "C4",
                    "midi": 60,
                    "time": 331.5462840000006,
                    "velocity": 0.3228346456692913,
                    "duration": 0.3092782499999771
                },
                {
                    "name": "D#4",
                    "midi": 63,
                    "time": 331.85556225000056,
                    "velocity": 0.2677165354330709,
                    "duration": 0.3092782499999771
                },
                {
                    "name": "D#3",
                    "midi": 51,
                    "time": 332.16484050000054,
                    "velocity": 0.2677165354330709,
                    "duration": 0.3092782499999771
                },
                {
                    "name": "G#3",
                    "midi": 56,
                    "time": 332.4741187500005,
                    "velocity": 0.2204724409448819,
                    "duration": 0.3092782499999771
                },
                {
                    "name": "C4",
                    "midi": 60,
                    "time": 332.7833970000005,
                    "velocity": 0.31496062992125984,
                    "duration": 0.3092782499999771
                },
                {
                    "name": "D#4",
                    "midi": 63,
                    "time": 333.09267525000047,
                    "velocity": 0.2440944881889764,
                    "duration": 0.3092782499999771
                },
                {
                    "name": "D#3",
                    "midi": 51,
                    "time": 333.40195350000045,
                    "velocity": 0.2440944881889764,
                    "duration": 0.3092782499999771
                },
                {
                    "name": "G#3",
                    "midi": 56,
                    "time": 333.7112317500004,
                    "velocity": 0.2125984251968504,
                    "duration": 0.3092782499999771
                },
                {
                    "name": "C4",
                    "midi": 60,
                    "time": 334.0205100000004,
                    "velocity": 0.2992125984251969,
                    "duration": 0.3092782499999771
                },
                {
                    "name": "D#4",
                    "midi": 63,
                    "time": 334.3297882500004,
                    "velocity": 0.2440944881889764,
                    "duration": 0.3092782499999771
                },
                {
                    "name": "D#3",
                    "midi": 51,
                    "time": 334.63906650000035,
                    "velocity": 0.23622047244094488,
                    "duration": 0.3092782499999771
                },
                {
                    "name": "G#3",
                    "midi": 56,
                    "time": 334.94834475000033,
                    "velocity": 0.2204724409448819,
                    "duration": 0.3092782499999771
                },
                {
                    "name": "C4",
                    "midi": 60,
                    "time": 335.2576230000003,
                    "velocity": 0.2992125984251969,
                    "duration": 0.3092782499999771
                },
                {
                    "name": "D#4",
                    "midi": 63,
                    "time": 335.5669012500003,
                    "velocity": 0.2283464566929134,
                    "duration": 0.3092782499999771
                },
                {
                    "name": "D#3",
                    "midi": 51,
                    "time": 335.87617950000026,
                    "velocity": 0.2283464566929134,
                    "duration": 0.3092782499999771
                },
                {
                    "name": "G#3",
                    "midi": 56,
                    "time": 336.18545775000024,
                    "velocity": 0.1968503937007874,
                    "duration": 0.3092782499999771
                },
                {
                    "name": "G#2",
                    "midi": 44,
                    "time": 336.4947360000002,
                    "velocity": 0.29133858267716534,
                    "duration": 1.2371130000000221
                },
                {
                    "name": "B3",
                    "midi": 59,
                    "time": 336.4947360000002,
                    "velocity": 0.29133858267716534,
                    "duration": 0.30927825000003395
                },
                {
                    "name": "G#1",
                    "midi": 32,
                    "time": 336.4947360000002,
                    "velocity": 0.2204724409448819,
                    "duration": 1.2371130000000221
                },
                {
                    "name": "D#4",
                    "midi": 63,
                    "time": 336.79112765625024,
                    "velocity": 0.2283464566929134,
                    "duration": 0.30927825000003395
                },
                {
                    "name": "D#3",
                    "midi": 51,
                    "time": 337.1132925000003,
                    "velocity": 0.2283464566929134,
                    "duration": 0.3092782499999771
                },
                {
                    "name": "G#3",
                    "midi": 56,
                    "time": 337.42257075000026,
                    "velocity": 0.1968503937007874,
                    "duration": 0.3092782499999771
                },
                {
                    "name": "B3",
                    "midi": 59,
                    "time": 337.73184900000024,
                    "velocity": 0.29133858267716534,
                    "duration": 0.3092782499999771
                },
                {
                    "name": "D#4",
                    "midi": 63,
                    "time": 338.0411272500002,
                    "velocity": 0.2283464566929134,
                    "duration": 0.3092782499999771
                },
                {
                    "name": "D#3",
                    "midi": 51,
                    "time": 338.3504055000002,
                    "velocity": 0.2283464566929134,
                    "duration": 0.3092782499999771
                },
                {
                    "name": "G#3",
                    "midi": 56,
                    "time": 338.65968375000017,
                    "velocity": 0.1968503937007874,
                    "duration": 0.3092782499999771
                },
                {
                    "name": "B3",
                    "midi": 59,
                    "time": 338.96896200000015,
                    "velocity": 0.29133858267716534,
                    "duration": 0.3092782499999771
                },
                {
                    "name": "D#4",
                    "midi": 63,
                    "time": 339.2782402500001,
                    "velocity": 0.2283464566929134,
                    "duration": 0.3092782499999771
                },
                {
                    "name": "D#3",
                    "midi": 51,
                    "time": 339.5875185000001,
                    "velocity": 0.2283464566929134,
                    "duration": 0.3092782499999771
                },
                {
                    "name": "G#3",
                    "midi": 56,
                    "time": 339.8967967500001,
                    "velocity": 0.2047244094488189,
                    "duration": 0.3092782499999771
                },
                {
                    "name": "B3",
                    "midi": 59,
                    "time": 340.20607500000006,
                    "velocity": 0.29133858267716534,
                    "duration": 0.3092782499999771
                },
                {
                    "name": "D#4",
                    "midi": 63,
                    "time": 340.51535325000003,
                    "velocity": 0.2283464566929134,
                    "duration": 0.3092782499999771
                },
                {
                    "name": "C#4",
                    "midi": 61,
                    "time": 340.8246315,
                    "velocity": 0.28346456692913385,
                    "duration": 0.3092782499999771
                },
                {
                    "name": "D#4",
                    "midi": 63,
                    "time": 341.13390975,
                    "velocity": 0.30708661417322836,
                    "duration": 0.3092782499999771
                },
                {
                    "name": "B3",
                    "midi": 59,
                    "time": 341.44318799999996,
                    "velocity": 0.3700787401574803,
                    "duration": 0.3092782499999771
                },
                {
                    "name": "D#4",
                    "midi": 63,
                    "time": 341.75246624999994,
                    "velocity": 0.28346456692913385,
                    "duration": 0.3092782499999771
                },
                {
                    "name": "D#3",
                    "midi": 51,
                    "time": 342.0617444999999,
                    "velocity": 0.28346456692913385,
                    "duration": 0.3092782499999771
                },
                {
                    "name": "G#3",
                    "midi": 56,
                    "time": 342.3710227499999,
                    "velocity": 0.25196850393700787,
                    "duration": 0.3092782499999771
                },
                {
                    "name": "B3",
                    "midi": 59,
                    "time": 342.6803009999999,
                    "velocity": 0.31496062992125984,
                    "duration": 0.3092782499999771
                },
                {
                    "name": "D#4",
                    "midi": 63,
                    "time": 342.98957924999985,
                    "velocity": 0.28346456692913385,
                    "duration": 0.3092782499999771
                },
                {
                    "name": "D#3",
                    "midi": 51,
                    "time": 343.2988574999998,
                    "velocity": 0.28346456692913385,
                    "duration": 0.3092782499999771
                },
                {
                    "name": "G#3",
                    "midi": 56,
                    "time": 343.6081357499998,
                    "velocity": 0.25984251968503935,
                    "duration": 0.3092782499999771
                },
                {
                    "name": "B3",
                    "midi": 59,
                    "time": 343.9174139999998,
                    "velocity": 0.3543307086614173,
                    "duration": 0.3092782499999771
                },
                {
                    "name": "D#4",
                    "midi": 63,
                    "time": 344.22669224999976,
                    "velocity": 0.2755905511811024,
                    "duration": 0.3092782499999771
                },
                {
                    "name": "G#3",
                    "midi": 56,
                    "time": 344.53597049999973,
                    "velocity": 0.2755905511811024,
                    "duration": 0.3092782499999771
                },
                {
                    "name": "B3",
                    "midi": 59,
                    "time": 344.53597049999973,
                    "velocity": 0.2755905511811024,
                    "duration": 0.3092782499999771
                },
                {
                    "name": "D#4",
                    "midi": 63,
                    "time": 344.8452487499997,
                    "velocity": 0.2755905511811024,
                    "duration": 0.3092782499999771
                },
                {
                    "name": "G3",
                    "midi": 55,
                    "time": 345.1545269999997,
                    "velocity": 0.3464566929133858,
                    "duration": 0.3092782499999771
                },
                {
                    "name": "C#4",
                    "midi": 61,
                    "time": 345.1545269999997,
                    "velocity": 0.3464566929133858,
                    "duration": 0.3092782499999771
                },
                {
                    "name": "D#4",
                    "midi": 63,
                    "time": 345.46380524999967,
                    "velocity": 0.2283464566929134,
                    "duration": 0.3092782499999771
                },
                {
                    "name": "B3",
                    "midi": 59,
                    "time": 345.77308349999964,
                    "velocity": 0.2440944881889764,
                    "duration": 0.3092782499999771
                },
                {
                    "name": "G#3",
                    "midi": 56,
                    "time": 345.77308349999964,
                    "velocity": 0.2440944881889764,
                    "duration": 0.3092782499999771
                },
                {
                    "name": "D#4",
                    "midi": 63,
                    "time": 346.0823617499996,
                    "velocity": 0.2125984251968504,
                    "duration": 0.3092782499999771
                },
                {
                    "name": "A#3",
                    "midi": 58,
                    "time": 346.3916399999996,
                    "velocity": 0.29133858267716534,
                    "duration": 0.30927825000003395
                },
                {
                    "name": "G3",
                    "midi": 55,
                    "time": 346.3916399999996,
                    "velocity": 0.29133858267716534,
                    "duration": 0.30927825000003395
                },
                {
                    "name": "D#4",
                    "midi": 63,
                    "time": 346.6880316562496,
                    "velocity": 0.2283464566929134,
                    "duration": 0.30927825000003395
                },
                {
                    "name": "D#3",
                    "midi": 51,
                    "time": 347.01019649999967,
                    "velocity": 0.2283464566929134,
                    "duration": 0.3092782499999771
                },
                {
                    "name": "G3",
                    "midi": 55,
                    "time": 347.31947474999964,
                    "velocity": 0.2047244094488189,
                    "duration": 0.3092782499999771
                },
                {
                    "name": "A#3",
                    "midi": 58,
                    "time": 347.6287529999996,
                    "velocity": 0.29133858267716534,
                    "duration": 0.3092782499999771
                },
                {
                    "name": "D#4",
                    "midi": 63,
                    "time": 347.9380312499996,
                    "velocity": 0.2283464566929134,
                    "duration": 0.3092782499999771
                },
                {
                    "name": "D#3",
                    "midi": 51,
                    "time": 348.2473094999996,
                    "velocity": 0.2283464566929134,
                    "duration": 0.3092782499999771
                },
                {
                    "name": "G3",
                    "midi": 55,
                    "time": 348.55658774999955,
                    "velocity": 0.1889763779527559,
                    "duration": 0.3092782499999771
                },
                {
                    "name": "A#3",
                    "midi": 58,
                    "time": 348.8658659999995,
                    "velocity": 0.29133858267716534,
                    "duration": 0.3092782499999771
                },
                {
                    "name": "D#4",
                    "midi": 63,
                    "time": 349.1751442499995,
                    "velocity": 0.2283464566929134,
                    "duration": 0.3092782499999771
                },
                {
                    "name": "D#3",
                    "midi": 51,
                    "time": 349.4844224999995,
                    "velocity": 0.2283464566929134,
                    "duration": 0.3092782499999771
                },
                {
                    "name": "G3",
                    "midi": 55,
                    "time": 349.79370074999946,
                    "velocity": 0.2047244094488189,
                    "duration": 0.3092782499999771
                },
                {
                    "name": "A#3",
                    "midi": 58,
                    "time": 350.10297899999944,
                    "velocity": 0.33070866141732286,
                    "duration": 0.3092782499999771
                },
                {
                    "name": "D#4",
                    "midi": 63,
                    "time": 350.4122572499994,
                    "velocity": 0.2440944881889764,
                    "duration": 0.3092782499999771
                },
                {
                    "name": "C#4",
                    "midi": 61,
                    "time": 350.7215354999994,
                    "velocity": 0.2440944881889764,
                    "duration": 0.3092782499999771
                },
                {
                    "name": "D#4",
                    "midi": 63,
                    "time": 351.03081374999937,
                    "velocity": 0.2125984251968504,
                    "duration": 0.3092782499999771
                },
                {
                    "name": "B3",
                    "midi": 59,
                    "time": 351.34009199999934,
                    "velocity": 0.30708661417322836,
                    "duration": 0.3092782499999771
                },
                {
                    "name": "D#4",
                    "midi": 63,
                    "time": 351.6674114812493,
                    "velocity": 0.2283464566929134,
                    "duration": 0.3092782499999771
                },
                {
                    "name": "D#3",
                    "midi": 51,
                    "time": 351.9895763249993,
                    "velocity": 0.2283464566929134,
                    "duration": 0.3092782499999771
                },
                {
                    "name": "G#3",
                    "midi": 56,
                    "time": 352.29885457499927,
                    "velocity": 0.1968503937007874,
                    "duration": 0.3092782499999771
                },
                {
                    "name": "B3",
                    "midi": 59,
                    "time": 352.60813282499925,
                    "velocity": 0.33070866141732286,
                    "duration": 0.3092782499999771
                },
                {
                    "name": "D#4",
                    "midi": 63,
                    "time": 352.9174110749992,
                    "velocity": 0.2677165354330709,
                    "duration": 0.3092782499999771
                },
                {
                    "name": "D#3",
                    "midi": 51,
                    "time": 353.2266893249992,
                    "velocity": 0.2677165354330709,
                    "duration": 0.3092782499999771
                },
                {
                    "name": "G#3",
                    "midi": 56,
                    "time": 353.5359675749992,
                    "velocity": 0.2125984251968504,
                    "duration": 0.3092782499999771
                },
                {
                    "name": "B3",
                    "midi": 59,
                    "time": 353.84524582499915,
                    "velocity": 0.3228346456692913,
                    "duration": 0.3092782499999771
                },
                {
                    "name": "D#4",
                    "midi": 63,
                    "time": 354.15452407499913,
                    "velocity": 0.25984251968503935,
                    "duration": 0.3092782499999771
                },
                {
                    "name": "D#3",
                    "midi": 51,
                    "time": 354.4328744999991,
                    "velocity": 0.25984251968503935,
                    "duration": 0.3092782499999771
                },
                {
                    "name": "G#3",
                    "midi": 56,
                    "time": 354.7421527499991,
                    "velocity": 0.2283464566929134,
                    "duration": 0.3092782499999771
                },
                {
                    "name": "B3",
                    "midi": 59,
                    "time": 355.05143099999907,
                    "velocity": 0.29133858267716534,
                    "duration": 0.3092782499999771
                },
                {
                    "name": "D#4",
                    "midi": 63,
                    "time": 355.39163707499904,
                    "velocity": 0.2283464566929134,
                    "duration": 0.3092782499999771
                },
                {
                    "name": "C#4",
                    "midi": 61,
                    "time": 355.669987499999,
                    "velocity": 0.2283464566929134,
                    "duration": 0.3092782499999771
                },
                {
                    "name": "G3",
                    "midi": 55,
                    "time": 355.669987499999,
                    "velocity": 0.2283464566929134,
                    "duration": 0.3092782499999771
                },
                {
                    "name": "D#4",
                    "midi": 63,
                    "time": 356.010193574999,
                    "velocity": 0.2047244094488189,
                    "duration": 0.2783504249999851
                },
                {
                    "name": "B3",
                    "midi": 59,
                    "time": 356.288543999999,
                    "velocity": 0.29133858267716534,
                    "duration": 0.30927825000003395
                },
                {
                    "name": "G#3",
                    "midi": 56,
                    "time": 356.288543999999,
                    "velocity": 0.29133858267716534,
                    "duration": 0.30927825000003395
                },
                {
                    "name": "D#4",
                    "midi": 63,
                    "time": 356.584935656249,
                    "velocity": 0.2283464566929134,
                    "duration": 0.30927825000003395
                },
                {
                    "name": "D#3",
                    "midi": 51,
                    "time": 356.90710049999905,
                    "velocity": 0.2283464566929134,
                    "duration": 0.3092782499999771
                },
                {
                    "name": "G#3",
                    "midi": 56,
                    "time": 357.216378749999,
                    "velocity": 0.1889763779527559,
                    "duration": 0.3092782499999771
                },
                {
                    "name": "B3",
                    "midi": 59,
                    "time": 357.525656999999,
                    "velocity": 0.2992125984251969,
                    "duration": 0.3092782499999771
                },
                {
                    "name": "D#4",
                    "midi": 63,
                    "time": 357.834935249999,
                    "velocity": 0.23622047244094488,
                    "duration": 0.3092782499999771
                },
                {
                    "name": "D#3",
                    "midi": 51,
                    "time": 358.14421349999895,
                    "velocity": 0.2440944881889764,
                    "duration": 0.3092782499999771
                },
                {
                    "name": "G#3",
                    "midi": 56,
                    "time": 358.45349174999893,
                    "velocity": 0.2440944881889764,
                    "duration": 0.3092782499999771
                },
                {
                    "name": "B3",
                    "midi": 59,
                    "time": 358.7627699999989,
                    "velocity": 0.31496062992125984,
                    "duration": 0.3092782499999771
                },
                {
                    "name": "D#4",
                    "midi": 63,
                    "time": 359.0720482499989,
                    "velocity": 0.25196850393700787,
                    "duration": 0.3092782499999771
                },
                {
                    "name": "D#3",
                    "midi": 51,
                    "time": 359.38132649999886,
                    "velocity": 0.25196850393700787,
                    "duration": 0.3092782499999771
                },
                {
                    "name": "G#3",
                    "midi": 56,
                    "time": 359.69060474999884,
                    "velocity": 0.2204724409448819,
                    "duration": 0.3092782499999771
                },
                {
                    "name": "B3",
                    "midi": 59,
                    "time": 359.9998829999988,
                    "velocity": 0.33070866141732286,
                    "duration": 0.3092782499999771
                },
                {
                    "name": "D#4",
                    "midi": 63,
                    "time": 360.3091612499988,
                    "velocity": 0.25984251968503935,
                    "duration": 0.3092782499999771
                },
                {
                    "name": "F#3",
                    "midi": 54,
                    "time": 360.6184394999988,
                    "velocity": 0.3228346456692913,
                    "duration": 0.3092782499999771
                },
                {
                    "name": "C#4",
                    "midi": 61,
                    "time": 360.6184394999988,
                    "velocity": 0.3228346456692913,
                    "duration": 0.3092782499999771
                },
                {
                    "name": "F#4",
                    "midi": 66,
                    "time": 360.92771774999875,
                    "velocity": 0.3464566929133858,
                    "duration": 0.3092782499999771
                },
                {
                    "name": "D#4",
                    "midi": 63,
                    "time": 361.2369959999987,
                    "velocity": 0.4251968503937008,
                    "duration": 0.3092782499999771
                },
                {
                    "name": "B3",
                    "midi": 59,
                    "time": 361.2369959999987,
                    "velocity": 0.4251968503937008,
                    "duration": 0.3092782499999771
                },
                {
                    "name": "F#4",
                    "midi": 66,
                    "time": 361.5462742499987,
                    "velocity": 0.3228346456692913,
                    "duration": 0.3092782499999771
                },
                {
                    "name": "F#3",
                    "midi": 54,
                    "time": 361.8607071374987,
                    "velocity": 0.3228346456692913,
                    "duration": 0.30927825000003395
                },
                {
                    "name": "B3",
                    "midi": 59,
                    "time": 362.1648307499987,
                    "velocity": 0.2755905511811024,
                    "duration": 0.30927825000003395
                },
                {
                    "name": "D#4",
                    "midi": 63,
                    "time": 362.47410899999875,
                    "velocity": 0.36220472440944884,
                    "duration": 0.3092782499999771
                },
                {
                    "name": "F#4",
                    "midi": 66,
                    "time": 362.7833872499987,
                    "velocity": 0.3228346456692913,
                    "duration": 0.3092782499999771
                },
                {
                    "name": "F#3",
                    "midi": 54,
                    "time": 363.0926654999987,
                    "velocity": 0.3228346456692913,
                    "duration": 0.3092782499999771
                },
                {
                    "name": "B3",
                    "midi": 59,
                    "time": 363.4019437499987,
                    "velocity": 0.28346456692913385,
                    "duration": 0.3092782499999771
                },
                {
                    "name": "D#4",
                    "midi": 63,
                    "time": 363.71122199999866,
                    "velocity": 0.4015748031496063,
                    "duration": 0.3092782499999771
                },
                {
                    "name": "F#4",
                    "midi": 66,
                    "time": 364.02050024999863,
                    "velocity": 0.3464566929133858,
                    "duration": 0.3092782499999771
                },
                {
                    "name": "B3",
                    "midi": 59,
                    "time": 364.3297784999986,
                    "velocity": 0.36220472440944884,
                    "duration": 0.3092782499999771
                },
                {
                    "name": "D#4",
                    "midi": 63,
                    "time": 364.3297784999986,
                    "velocity": 0.36220472440944884,
                    "duration": 0.3092782499999771
                },
                {
                    "name": "F#4",
                    "midi": 66,
                    "time": 364.6390567499986,
                    "velocity": 0.3700787401574803,
                    "duration": 0.3092782499999771
                },
                {
                    "name": "A#3",
                    "midi": 58,
                    "time": 364.94833499999856,
                    "velocity": 0.4330708661417323,
                    "duration": 0.3092782499999771
                },
                {
                    "name": "E4",
                    "midi": 64,
                    "time": 364.94833499999856,
                    "velocity": 0.4330708661417323,
                    "duration": 0.3092782499999771
                },
                {
                    "name": "F#4",
                    "midi": 66,
                    "time": 365.25761324999854,
                    "velocity": 0.3779527559055118,
                    "duration": 0.3092782499999771
                },
                {
                    "name": "D#4",
                    "midi": 63,
                    "time": 365.5668914999985,
                    "velocity": 0.3937007874015748,
                    "duration": 0.3092782499999771
                },
                {
                    "name": "B3",
                    "midi": 59,
                    "time": 365.5668914999985,
                    "velocity": 0.3937007874015748,
                    "duration": 0.3092782499999771
                },
                {
                    "name": "F#4",
                    "midi": 66,
                    "time": 365.8761697499985,
                    "velocity": 0.4251968503937008,
                    "duration": 0.3092782499999771
                },
                {
                    "name": "C#4",
                    "midi": 61,
                    "time": 366.1854479999985,
                    "velocity": 0.47244094488188976,
                    "duration": 0.3092782499999771
                },
                {
                    "name": "A#3",
                    "midi": 58,
                    "time": 366.1854479999985,
                    "velocity": 0.47244094488188976,
                    "duration": 0.3092782499999771
                },
                {
                    "name": "F#4",
                    "midi": 66,
                    "time": 366.49472624999845,
                    "velocity": 0.3858267716535433,
                    "duration": 0.3092782499999771
                },
                {
                    "name": "F#3",
                    "midi": 54,
                    "time": 366.8040044999984,
                    "velocity": 0.3858267716535433,
                    "duration": 0.3092782499999771
                },
                {
                    "name": "A#3",
                    "midi": 58,
                    "time": 367.1132827499984,
                    "velocity": 0.33070866141732286,
                    "duration": 0.3092782499999771
                },
                {
                    "name": "C#4",
                    "midi": 61,
                    "time": 367.4225609999984,
                    "velocity": 0.4094488188976378,
                    "duration": 0.3092782499999771
                },
                {
                    "name": "F#4",
                    "midi": 66,
                    "time": 367.73183924999836,
                    "velocity": 0.33070866141732286,
                    "duration": 0.3092782499999771
                },
                {
                    "name": "F#3",
                    "midi": 54,
                    "time": 368.04111749999834,
                    "velocity": 0.33070866141732286,
                    "duration": 0.3092782499999771
                },
                {
                    "name": "A#3",
                    "midi": 58,
                    "time": 368.3503957499983,
                    "velocity": 0.28346456692913385,
                    "duration": 0.3092782499999771
                },
                {
                    "name": "C#4",
                    "midi": 61,
                    "time": 368.6596739999983,
                    "velocity": 0.4566929133858268,
                    "duration": 0.3092782499999771
                },
                {
                    "name": "F#4",
                    "midi": 66,
                    "time": 368.96895224999827,
                    "velocity": 0.3543307086614173,
                    "duration": 0.3092782499999771
                },
                {
                    "name": "F#3",
                    "midi": 54,
                    "time": 369.27823049999824,
                    "velocity": 0.3543307086614173,
                    "duration": 0.3092782499999771
                },
                {
                    "name": "A#3",
                    "midi": 58,
                    "time": 369.5875087499982,
                    "velocity": 0.31496062992125984,
                    "duration": 0.3092782499999771
                },
                {
                    "name": "C#4",
                    "midi": 61,
                    "time": 369.8967869999982,
                    "velocity": 0.4409448818897638,
                    "duration": 0.3092782499999771
                },
                {
                    "name": "F#4",
                    "midi": 66,
                    "time": 370.2060652499982,
                    "velocity": 0.3228346456692913,
                    "duration": 0.3092782499999771
                },
                {
                    "name": "E4",
                    "midi": 64,
                    "time": 370.51534349999815,
                    "velocity": 0.3228346456692913,
                    "duration": 0.3092782499999771
                },
                {
                    "name": "F#4",
                    "midi": 66,
                    "time": 370.82462174999813,
                    "velocity": 0.2755905511811024,
                    "duration": 0.3092782499999771
                },
                {
                    "name": "D#4",
                    "midi": 63,
                    "time": 371.1338999999981,
                    "velocity": 0.41732283464566927,
                    "duration": 0.3092782499999771
                },
                {
                    "name": "F#4",
                    "midi": 66,
                    "time": 371.4431782499981,
                    "velocity": 0.33858267716535434,
                    "duration": 0.3092782499999771
                },
                {
                    "name": "F#3",
                    "midi": 54,
                    "time": 371.75245649999806,
                    "velocity": 0.33858267716535434,
                    "duration": 0.3092782499999771
                },
                {
                    "name": "B3",
                    "midi": 59,
                    "time": 372.06173474999804,
                    "velocity": 0.2992125984251969,
                    "duration": 0.3092782499999771
                },
                {
                    "name": "D#4",
                    "midi": 63,
                    "time": 372.371012999998,
                    "velocity": 0.3779527559055118,
                    "duration": 0.3092782499999771
                },
                {
                    "name": "F#4",
                    "midi": 66,
                    "time": 372.680291249998,
                    "velocity": 0.2992125984251969,
                    "duration": 0.3092782499999771
                },
                {
                    "name": "F#3",
                    "midi": 54,
                    "time": 372.98956949999797,
                    "velocity": 0.2992125984251969,
                    "duration": 0.3092782499999771
                },
                {
                    "name": "B3",
                    "midi": 59,
                    "time": 373.29884774999795,
                    "velocity": 0.25984251968503935,
                    "duration": 0.3092782499999771
                },
                {
                    "name": "D#4",
                    "midi": 63,
                    "time": 373.6081259999979,
                    "velocity": 0.3543307086614173,
                    "duration": 0.3092782499999771
                },
                {
                    "name": "F#4",
                    "midi": 66,
                    "time": 373.9174042499979,
                    "velocity": 0.2755905511811024,
                    "duration": 0.3092782499999771
                },
                {
                    "name": "F#3",
                    "midi": 54,
                    "time": 374.2266824999979,
                    "velocity": 0.2755905511811024,
                    "duration": 0.3092782499999771
                },
                {
                    "name": "B3",
                    "midi": 59,
                    "time": 374.53596074999786,
                    "velocity": 0.2440944881889764,
                    "duration": 0.3092782499999771
                },
                {
                    "name": "B3",
                    "midi": 59,
                    "time": 374.84523899999783,
                    "velocity": 0.2992125984251969,
                    "duration": 0.3092782499999771
                },
                {
                    "name": "D#4",
                    "midi": 63,
                    "time": 374.84523899999783,
                    "velocity": 0.2992125984251969,
                    "duration": 0.3092782499999771
                },
                {
                    "name": "F#4",
                    "midi": 66,
                    "time": 375.1545172499978,
                    "velocity": 0.23622047244094488,
                    "duration": 0.3092782499999771
                },
                {
                    "name": "E4",
                    "midi": 64,
                    "time": 375.4637954999978,
                    "velocity": 0.2283464566929134,
                    "duration": 0.3092782499999771
                },
                {
                    "name": "A#3",
                    "midi": 58,
                    "time": 375.4637954999978,
                    "velocity": 0.2283464566929134,
                    "duration": 0.3092782499999771
                },
                {
                    "name": "F#4",
                    "midi": 66,
                    "time": 375.77307374999776,
                    "velocity": 0.2047244094488189,
                    "duration": 0.2783504249999851
                },
                {
                    "name": "D#4",
                    "midi": 63,
                    "time": 376.08235199999774,
                    "velocity": 0.29133858267716534,
                    "duration": 0.3092782499999771
                },
                {
                    "name": "B3",
                    "midi": 59,
                    "time": 376.08235199999774,
                    "velocity": 0.29133858267716534,
                    "duration": 0.3092782499999771
                },
                {
                    "name": "F#4",
                    "midi": 66,
                    "time": 376.3916302499977,
                    "velocity": 0.2283464566929134,
                    "duration": 0.3092782499999771
                },
                {
                    "name": "F#3",
                    "midi": 54,
                    "time": 376.7009084999977,
                    "velocity": 0.2283464566929134,
                    "duration": 0.3092782499999771
                },
                {
                    "name": "B3",
                    "midi": 59,
                    "time": 377.0101867499977,
                    "velocity": 0.1968503937007874,
                    "duration": 0.3092782499999771
                },
                {
                    "name": "D#4",
                    "midi": 63,
                    "time": 377.31946499999765,
                    "velocity": 0.2992125984251969,
                    "duration": 0.3092782499999771
                },
                {
                    "name": "F#4",
                    "midi": 66,
                    "time": 377.6287432499976,
                    "velocity": 0.23622047244094488,
                    "duration": 0.3092782499999771
                },
                {
                    "name": "F#3",
                    "midi": 54,
                    "time": 377.9380214999976,
                    "velocity": 0.2440944881889764,
                    "duration": 0.3092782499999771
                },
                {
                    "name": "B3",
                    "midi": 59,
                    "time": 378.2472997499976,
                    "velocity": 0.2047244094488189,
                    "duration": 0.3092782499999771
                },
                {
                    "name": "D#4",
                    "midi": 63,
                    "time": 378.55657799999756,
                    "velocity": 0.31496062992125984,
                    "duration": 0.3092782499999771
                },
                {
                    "name": "F#4",
                    "midi": 66,
                    "time": 378.86585624999753,
                    "velocity": 0.25196850393700787,
                    "duration": 0.3092782499999771
                },
                {
                    "name": "F#3",
                    "midi": 54,
                    "time": 379.1751344999975,
                    "velocity": 0.25196850393700787,
                    "duration": 0.3092782499999771
                },
                {
                    "name": "B3",
                    "midi": 59,
                    "time": 379.4844127499975,
                    "velocity": 0.2204724409448819,
                    "duration": 0.3092782499999771
                },
                {
                    "name": "D#4",
                    "midi": 63,
                    "time": 379.79369099999747,
                    "velocity": 0.33070866141732286,
                    "duration": 0.3092782499999771
                },
                {
                    "name": "F#4",
                    "midi": 66,
                    "time": 380.10296924999744,
                    "velocity": 0.25984251968503935,
                    "duration": 0.3092782499999771
                },
                {
                    "name": "F#3",
                    "midi": 54,
                    "time": 380.4122474999974,
                    "velocity": 0.3228346456692913,
                    "duration": 0.3092782499999771
                },
                {
                    "name": "B3",
                    "midi": 59,
                    "time": 380.7215257499974,
                    "velocity": 0.3464566929133858,
                    "duration": 0.3092782499999771
                },
                {
                    "name": "E4",
                    "midi": 64,
                    "time": 381.0308039999974,
                    "velocity": 0.3937007874015748,
                    "duration": 0.3092782499999771
                },
                {
                    "name": "B3",
                    "midi": 59,
                    "time": 381.34008224999735,
                    "velocity": 0.28346456692913385,
                    "duration": 0.3092782499999771
                },
                {
                    "name": "G#3",
                    "midi": 56,
                    "time": 381.64936049999733,
                    "velocity": 0.28346456692913385,
                    "duration": 0.3092782499999771
                },
                {
                    "name": "B3",
                    "midi": 59,
                    "time": 381.9586387499973,
                    "velocity": 0.25196850393700787,
                    "duration": 0.3092782499999771
                },
                {
                    "name": "E4",
                    "midi": 64,
                    "time": 382.2679169999973,
                    "velocity": 0.3543307086614173,
                    "duration": 0.3092782499999771
                },
                {
                    "name": "G#4",
                    "midi": 68,
                    "time": 382.57719524999726,
                    "velocity": 0.28346456692913385,
                    "duration": 0.3092782499999771
                },
                {
                    "name": "G#3",
                    "midi": 56,
                    "time": 382.88647349999724,
                    "velocity": 0.28346456692913385,
                    "duration": 0.3092782499999771
                },
                {
                    "name": "B3",
                    "midi": 59,
                    "time": 383.1957517499972,
                    "velocity": 0.25984251968503935,
                    "duration": 0.3092782499999771
                },
                {
                    "name": "E4",
                    "midi": 64,
                    "time": 383.5050299999972,
                    "velocity": 0.3464566929133858,
                    "duration": 0.3092782499999771
                },
                {
                    "name": "G#4",
                    "midi": 68,
                    "time": 383.81430824999717,
                    "velocity": 0.29133858267716534,
                    "duration": 0.3092782499999771
                },
                {
                    "name": "G#3",
                    "midi": 56,
                    "time": 384.12358649999715,
                    "velocity": 0.29133858267716534,
                    "duration": 0.3092782499999771
                },
                {
                    "name": "C#4",
                    "midi": 61,
                    "time": 384.4328647499971,
                    "velocity": 0.29133858267716534,
                    "duration": 0.3092782499999771
                },
                {
                    "name": "E4",
                    "midi": 64,
                    "time": 384.7421429999971,
                    "velocity": 0.3779527559055118,
                    "duration": 0.3092782499999771
                },
                {
                    "name": "G#4",
                    "midi": 68,
                    "time": 385.0514212499971,
                    "velocity": 0.2992125984251969,
                    "duration": 0.3092782499999771
                },
                {
                    "name": "G#3",
                    "midi": 56,
                    "time": 385.36069949999705,
                    "velocity": 0.3228346456692913,
                    "duration": 0.3092782499999771
                },
                {
                    "name": "C#4",
                    "midi": 61,
                    "time": 385.66997774999703,
                    "velocity": 0.3464566929133858,
                    "duration": 0.3092782499999771
                },
                {
                    "name": "E4",
                    "midi": 64,
                    "time": 385.979255999997,
                    "velocity": 0.4409448818897638,
                    "duration": 0.3092782499999771
                },
                {
                    "name": "F#4",
                    "midi": 66,
                    "time": 386.288534249997,
                    "velocity": 0.33070866141732286,
                    "duration": 0.3092782499999771
                },
                {
                    "name": "F#3",
                    "midi": 54,
                    "time": 386.59781249999696,
                    "velocity": 0.33070866141732286,
                    "duration": 0.3092782499999771
                },
                {
                    "name": "C#4",
                    "midi": 61,
                    "time": 386.90709074999694,
                    "velocity": 0.2755905511811024,
                    "duration": 0.3092782499999771
                },
                {
                    "name": "E4",
                    "midi": 64,
                    "time": 387.2163689999969,
                    "velocity": 0.4094488188976378,
                    "duration": 0.3092782499999771
                },
                {
                    "name": "F#4",
                    "midi": 66,
                    "time": 387.5256472499969,
                    "velocity": 0.33070866141732286,
                    "duration": 0.3092782499999771
                },
                {
                    "name": "F#3",
                    "midi": 54,
                    "time": 387.83492549999687,
                    "velocity": 0.33070866141732286,
                    "duration": 0.3092782499999771
                },
                {
                    "name": "C#4",
                    "midi": 61,
                    "time": 388.14420374999685,
                    "velocity": 0.28346456692913385,
                    "duration": 0.3092782499999771
                },
                {
                    "name": "D#4",
                    "midi": 63,
                    "time": 388.4534819999968,
                    "velocity": 0.3937007874015748,
                    "duration": 0.3092782499999771
                },
                {
                    "name": "F#4",
                    "midi": 66,
                    "time": 388.7627602499968,
                    "velocity": 0.31496062992125984,
                    "duration": 0.3092782499999771
                },
                {
                    "name": "F#3",
                    "midi": 54,
                    "time": 389.0720384999968,
                    "velocity": 0.31496062992125984,
                    "duration": 0.3092782499999771
                },
                {
                    "name": "B3",
                    "midi": 59,
                    "time": 389.38131674999676,
                    "velocity": 0.28346456692913385,
                    "duration": 0.3092782499999771
                },
                {
                    "name": "D#4",
                    "midi": 63,
                    "time": 389.69059499999673,
                    "velocity": 0.33070866141732286,
                    "duration": 0.3092782499999771
                },
                {
                    "name": "F#4",
                    "midi": 66,
                    "time": 389.9998732499967,
                    "velocity": 0.25984251968503935,
                    "duration": 0.3092782499999771
                },
                {
                    "name": "F#3",
                    "midi": 54,
                    "time": 390.3091514999967,
                    "velocity": 0.3228346456692913,
                    "duration": 0.3092782499999771
                },
                {
                    "name": "B3",
                    "midi": 59,
                    "time": 390.61842974999666,
                    "velocity": 0.3464566929133858,
                    "duration": 0.3092782499999771
                },
                {
                    "name": "C#4",
                    "midi": 61,
                    "time": 390.92770799999664,
                    "velocity": 0.4251968503937008,
                    "duration": 0.3092782499999771
                },
                {
                    "name": "F#4",
                    "midi": 66,
                    "time": 391.2369862499966,
                    "velocity": 0.3228346456692913,
                    "duration": 0.3092782499999771
                },
                {
                    "name": "F#3",
                    "midi": 54,
                    "time": 391.5462644999966,
                    "velocity": 0.3228346456692913,
                    "duration": 0.3092782499999771
                },
                {
                    "name": "B3",
                    "midi": 59,
                    "time": 391.8555427499966,
                    "velocity": 0.2755905511811024,
                    "duration": 0.3092782499999771
                },
                {
                    "name": "C#4",
                    "midi": 61,
                    "time": 392.16482099999655,
                    "velocity": 0.3779527559055118,
                    "duration": 0.3092782499999771
                },
                {
                    "name": "F#4",
                    "midi": 66,
                    "time": 392.4740992499965,
                    "velocity": 0.30708661417322836,
                    "duration": 0.3092782499999771
                },
                {
                    "name": "F#3",
                    "midi": 54,
                    "time": 392.7833774999965,
                    "velocity": 0.30708661417322836,
                    "duration": 0.3092782499999771
                },
                {
                    "name": "B3",
                    "midi": 59,
                    "time": 393.0926557499965,
                    "velocity": 0.30708661417322836,
                    "duration": 0.3092782499999771
                },
                {
                    "name": "C#4",
                    "midi": 61,
                    "time": 393.40193399999646,
                    "velocity": 0.3779527559055118,
                    "duration": 0.3092782499999771
                },
                {
                    "name": "F#4",
                    "midi": 66,
                    "time": 393.71121224999644,
                    "velocity": 0.25196850393700787,
                    "duration": 0.3092782499999771
                },
                {
                    "name": "F#3",
                    "midi": 54,
                    "time": 394.0204904999964,
                    "velocity": 0.29133858267716534,
                    "duration": 0.3092782499999771
                },
                {
                    "name": "A#3",
                    "midi": 58,
                    "time": 394.3297687499964,
                    "velocity": 0.2755905511811024,
                    "duration": 0.3092782499999771
                },
                {
                    "name": "C#4",
                    "midi": 61,
                    "time": 394.63904699999637,
                    "velocity": 0.33070866141732286,
                    "duration": 0.3092782499999771
                },
                {
                    "name": "F#4",
                    "midi": 66,
                    "time": 394.94832524999634,
                    "velocity": 0.2283464566929134,
                    "duration": 0.3092782499999771
                },
                {
                    "name": "F#3",
                    "midi": 54,
                    "time": 395.2576034999963,
                    "velocity": 0.2283464566929134,
                    "duration": 0.3092782499999771
                },
                {
                    "name": "A#3",
                    "midi": 58,
                    "time": 395.5668817499963,
                    "velocity": 0.1968503937007874,
                    "duration": 0.3092782499999771
                },
                {
                    "name": "D#4",
                    "midi": 63,
                    "time": 395.8761599999963,
                    "velocity": 0.29133858267716534,
                    "duration": 0.3092782499999771
                },
                {
                    "name": "F#4",
                    "midi": 66,
                    "time": 396.18543824999625,
                    "velocity": 0.2283464566929134,
                    "duration": 0.3092782499999771
                },
                {
                    "name": "F#3",
                    "midi": 54,
                    "time": 396.49471649999623,
                    "velocity": 0.2283464566929134,
                    "duration": 0.3092782499999771
                },
                {
                    "name": "B3",
                    "midi": 59,
                    "time": 396.8039947499962,
                    "velocity": 0.1968503937007874,
                    "duration": 0.3092782499999771
                },
                {
                    "name": "D#4",
                    "midi": 63,
                    "time": 397.1132729999962,
                    "velocity": 0.2992125984251969,
                    "duration": 0.3092782499999771
                },
                {
                    "name": "F#4",
                    "midi": 66,
                    "time": 397.42255124999616,
                    "velocity": 0.23622047244094488,
                    "duration": 0.3092782499999771
                },
                {
                    "name": "F#3",
                    "midi": 54,
                    "time": 397.73182949999614,
                    "velocity": 0.2440944881889764,
                    "duration": 0.3092782499999771
                },
                {
                    "name": "B3",
                    "midi": 59,
                    "time": 398.0411077499961,
                    "velocity": 0.2204724409448819,
                    "duration": 0.3092782499999771
                },
                {
                    "name": "D4",
                    "midi": 62,
                    "time": 398.3503859999961,
                    "velocity": 0.31496062992125984,
                    "duration": 0.3092782499999771
                },
                {
                    "name": "F#4",
                    "midi": 66,
                    "time": 398.65966424999607,
                    "velocity": 0.25196850393700787,
                    "duration": 0.3092782499999771
                },
                {
                    "name": "F#3",
                    "midi": 54,
                    "time": 398.96894249999605,
                    "velocity": 0.25196850393700787,
                    "duration": 0.3092782499999771
                },
                {
                    "name": "B3",
                    "midi": 59,
                    "time": 399.278220749996,
                    "velocity": 0.2204724409448819,
                    "duration": 0.3092782499999771
                },
                {
                    "name": "D4",
                    "midi": 62,
                    "time": 399.587498999996,
                    "velocity": 0.33070866141732286,
                    "duration": 0.3092782499999771
                },
                {
                    "name": "F#4",
                    "midi": 66,
                    "time": 399.896777249996,
                    "velocity": 0.25984251968503935,
                    "duration": 0.3092782499999771
                },
                {
                    "name": "F#3",
                    "midi": 54,
                    "time": 400.20605549999595,
                    "velocity": 0.25984251968503935,
                    "duration": 0.3092782499999771
                },
                {
                    "name": "B3",
                    "midi": 59,
                    "time": 400.51533374999593,
                    "velocity": 0.2204724409448819,
                    "duration": 0.3092782499999771
                },
                {
                    "name": "C#4",
                    "midi": 61,
                    "time": 400.8246119999959,
                    "velocity": 0.29133858267716534,
                    "duration": 0.3092782499999771
                },
                {
                    "name": "F#4",
                    "midi": 66,
                    "time": 401.1338902499959,
                    "velocity": 0.2283464566929134,
                    "duration": 0.3092782499999771
                },
                {
                    "name": "F#3",
                    "midi": 54,
                    "time": 401.44316849999586,
                    "velocity": 0.2283464566929134,
                    "duration": 0.3092782499999771
                },
                {
                    "name": "B3",
                    "midi": 59,
                    "time": 401.75244674999584,
                    "velocity": 0.1889763779527559,
                    "duration": 0.3092782499999771
                },
                {
                    "name": "C#4",
                    "midi": 61,
                    "time": 402.0617249999958,
                    "velocity": 0.2992125984251969,
                    "duration": 0.3092782499999771
                },
                {
                    "name": "F#4",
                    "midi": 66,
                    "time": 402.3710032499958,
                    "velocity": 0.2283464566929134,
                    "duration": 0.3092782499999771
                },
                {
                    "name": "F#3",
                    "midi": 54,
                    "time": 402.6802814999958,
                    "velocity": 0.2283464566929134,
                    "duration": 0.3092782499999771
                },
                {
                    "name": "B3",
                    "midi": 59,
                    "time": 402.98955974999575,
                    "velocity": 0.1889763779527559,
                    "duration": 0.3092782499999771
                },
                {
                    "name": "C#4",
                    "midi": 61,
                    "time": 403.2988379999957,
                    "velocity": 0.31496062992125984,
                    "duration": 0.3092782499999771
                },
                {
                    "name": "F#4",
                    "midi": 66,
                    "time": 403.6081162499957,
                    "velocity": 0.2204724409448819,
                    "duration": 0.3092782499999771
                },
                {
                    "name": "F#3",
                    "midi": 54,
                    "time": 403.9173944999957,
                    "velocity": 0.2204724409448819,
                    "duration": 0.3092782499999771
                },
                {
                    "name": "A#3",
                    "midi": 58,
                    "time": 404.22667274999566,
                    "velocity": 0.2204724409448819,
                    "duration": 0.3092782499999771
                },
                {
                    "name": "C#4",
                    "midi": 61,
                    "time": 404.53595099999563,
                    "velocity": 0.3228346456692913,
                    "duration": 0.3092782499999771
                },
                {
                    "name": "F#4",
                    "midi": 66,
                    "time": 404.8452292499956,
                    "velocity": 0.2283464566929134,
                    "duration": 0.3092782499999771
                },
                {
                    "name": "F#3",
                    "midi": 54,
                    "time": 405.1545074999956,
                    "velocity": 0.2283464566929134,
                    "duration": 0.3092782499999771
                },
                {
                    "name": "A#3",
                    "midi": 58,
                    "time": 405.46378574999557,
                    "velocity": 0.1968503937007874,
                    "duration": 0.3092782499999771
                },
                {
                    "name": "B3",
                    "midi": 59,
                    "time": 405.77306399999554,
                    "velocity": 0.29133858267716534,
                    "duration": 0.3092782499999771
                },
                {
                    "name": "D#4",
                    "midi": 63,
                    "time": 406.0823422499955,
                    "velocity": 0.2283464566929134,
                    "duration": 0.3092782499999771
                },
                {
                    "name": "D#3",
                    "midi": 51,
                    "time": 406.3916204999955,
                    "velocity": 0.2283464566929134,
                    "duration": 0.3092782499999771
                },
                {
                    "name": "F#3",
                    "midi": 54,
                    "time": 406.7008987499955,
                    "velocity": 0.1968503937007874,
                    "duration": 0.3092782499999771
                },
                {
                    "name": "B3",
                    "midi": 59,
                    "time": 407.01017699999545,
                    "velocity": 0.2992125984251969,
                    "duration": 0.3092782499999771
                },
                {
                    "name": "D#4",
                    "midi": 63,
                    "time": 407.3194552499954,
                    "velocity": 0.23622047244094488,
                    "duration": 0.3092782499999771
                },
                {
                    "name": "D#3",
                    "midi": 51,
                    "time": 407.6287334999954,
                    "velocity": 0.2440944881889764,
                    "duration": 0.3092782499999771
                },
                {
                    "name": "F#3",
                    "midi": 54,
                    "time": 407.9380117499954,
                    "velocity": 0.2204724409448819,
                    "duration": 0.3092782499999771
                },
                {
                    "name": "C#4",
                    "midi": 61,
                    "time": 408.24728999999536,
                    "velocity": 0.31496062992125984,
                    "duration": 0.3092782499999771
                },
                {
                    "name": "D#4",
                    "midi": 63,
                    "time": 408.55656824999534,
                    "velocity": 0.25196850393700787,
                    "duration": 0.3092782499999771
                },
                {
                    "name": "D#3",
                    "midi": 51,
                    "time": 408.8658464999953,
                    "velocity": 0.25196850393700787,
                    "duration": 0.3092782499999771
                },
                {
                    "name": "G3",
                    "midi": 55,
                    "time": 409.1751247499953,
                    "velocity": 0.2204724409448819,
                    "duration": 0.3092782499999771
                },
                {
                    "name": "C#4",
                    "midi": 61,
                    "time": 409.48440299999527,
                    "velocity": 0.33070866141732286,
                    "duration": 0.30927825000003395
                },
                {
                    "name": "D#4",
                    "midi": 63,
                    "time": 409.7807946562453,
                    "velocity": 0.2283464566929134,
                    "duration": 0.30927825000003395
                },
                {
                    "name": "D#3",
                    "midi": 51,
                    "time": 410.10295949999534,
                    "velocity": 0.2283464566929134,
                    "duration": 0.3092782499999771
                },
                {
                    "name": "G3",
                    "midi": 55,
                    "time": 410.4122377499953,
                    "velocity": 0.2047244094488189,
                    "duration": 0.3092782499999771
                },
                {
                    "name": "G#1",
                    "midi": 32,
                    "time": 410.7215159999953,
                    "velocity": 0.2204724409448819,
                    "duration": 1.2371130000000221
                },
                {
                    "name": "G#2",
                    "midi": 44,
                    "time": 410.7215159999953,
                    "velocity": 0.29133858267716534,
                    "duration": 1.2371130000000221
                },
                {
                    "name": "B3",
                    "midi": 59,
                    "time": 410.7215159999953,
                    "velocity": 0.29133858267716534,
                    "duration": 0.30927825000003395
                },
                {
                    "name": "D#4",
                    "midi": 63,
                    "time": 411.0179076562453,
                    "velocity": 0.2283464566929134,
                    "duration": 0.30927825000003395
                },
                {
                    "name": "D#3",
                    "midi": 51,
                    "time": 411.34007249999536,
                    "velocity": 0.2283464566929134,
                    "duration": 0.3092782499999771
                },
                {
                    "name": "G#3",
                    "midi": 56,
                    "time": 411.64935074999534,
                    "velocity": 0.2047244094488189,
                    "duration": 0.3092782499999771
                },
                {
                    "name": "B3",
                    "midi": 59,
                    "time": 411.9586289999953,
                    "velocity": 0.29133858267716534,
                    "duration": 0.3092782499999771
                },
                {
                    "name": "D#4",
                    "midi": 63,
                    "time": 412.2679072499953,
                    "velocity": 0.2283464566929134,
                    "duration": 0.3092782499999771
                },
                {
                    "name": "D#3",
                    "midi": 51,
                    "time": 412.57718549999527,
                    "velocity": 0.2283464566929134,
                    "duration": 0.3092782499999771
                },
                {
                    "name": "G#3",
                    "midi": 56,
                    "time": 412.88646374999524,
                    "velocity": 0.2047244094488189,
                    "duration": 0.3092782499999771
                },
                {
                    "name": "B3",
                    "midi": 59,
                    "time": 413.1957419999952,
                    "velocity": 0.29133858267716534,
                    "duration": 0.3092782499999771
                },
                {
                    "name": "D#4",
                    "midi": 63,
                    "time": 413.5050202499952,
                    "velocity": 0.2283464566929134,
                    "duration": 0.3092782499999771
                },
                {
                    "name": "D#3",
                    "midi": 51,
                    "time": 413.8142984999952,
                    "velocity": 0.2283464566929134,
                    "duration": 0.3092782499999771
                },
                {
                    "name": "G#3",
                    "midi": 56,
                    "time": 414.12357674999515,
                    "velocity": 0.2047244094488189,
                    "duration": 0.3092782499999771
                },
                {
                    "name": "B3",
                    "midi": 59,
                    "time": 414.43285499999513,
                    "velocity": 0.29133858267716534,
                    "duration": 0.3092782499999771
                },
                {
                    "name": "D#4",
                    "midi": 63,
                    "time": 414.7421332499951,
                    "velocity": 0.2283464566929134,
                    "duration": 0.3092782499999771
                },
                {
                    "name": "C#4",
                    "midi": 61,
                    "time": 415.0514114999951,
                    "velocity": 0.28346456692913385,
                    "duration": 0.3092782499999771
                },
                {
                    "name": "D#4",
                    "midi": 63,
                    "time": 415.36068974999506,
                    "velocity": 0.30708661417322836,
                    "duration": 0.3092782499999771
                },
                {
                    "name": "B3",
                    "midi": 59,
                    "time": 415.66996799999504,
                    "velocity": 0.3700787401574803,
                    "duration": 0.3092782499999771
                },
                {
                    "name": "D#4",
                    "midi": 63,
                    "time": 415.979246249995,
                    "velocity": 0.28346456692913385,
                    "duration": 0.3092782499999771
                },
                {
                    "name": "D#3",
                    "midi": 51,
                    "time": 416.288524499995,
                    "velocity": 0.28346456692913385,
                    "duration": 0.3092782499999771
                },
                {
                    "name": "G#3",
                    "midi": 56,
                    "time": 416.59780274999497,
                    "velocity": 0.25196850393700787,
                    "duration": 0.3092782499999771
                },
                {
                    "name": "B3",
                    "midi": 59,
                    "time": 416.90708099999495,
                    "velocity": 0.31496062992125984,
                    "duration": 0.3092782499999771
                },
                {
                    "name": "D#4",
                    "midi": 63,
                    "time": 417.2163592499949,
                    "velocity": 0.28346456692913385,
                    "duration": 0.3092782499999771
                },
                {
                    "name": "D#3",
                    "midi": 51,
                    "time": 417.5256374999949,
                    "velocity": 0.28346456692913385,
                    "duration": 0.3092782499999771
                },
                {
                    "name": "G#3",
                    "midi": 56,
                    "time": 417.8349157499949,
                    "velocity": 0.25196850393700787,
                    "duration": 0.3092782499999771
                },
                {
                    "name": "B3",
                    "midi": 59,
                    "time": 418.14419399999485,
                    "velocity": 0.3543307086614173,
                    "duration": 0.3092782499999771
                },
                {
                    "name": "D#4",
                    "midi": 63,
                    "time": 418.45347224999483,
                    "velocity": 0.2755905511811024,
                    "duration": 0.3092782499999771
                },
                {
                    "name": "B3",
                    "midi": 59,
                    "time": 418.7627504999948,
                    "velocity": 0.2755905511811024,
                    "duration": 0.3092782499999771
                },
                {
                    "name": "G#3",
                    "midi": 56,
                    "time": 418.7627504999948,
                    "velocity": 0.2755905511811024,
                    "duration": 0.3092782499999771
                },
                {
                    "name": "D#4",
                    "midi": 63,
                    "time": 419.0720287499948,
                    "velocity": 0.2283464566929134,
                    "duration": 0.3092782499999771
                },
                {
                    "name": "C#4",
                    "midi": 61,
                    "time": 419.38130699999476,
                    "velocity": 0.3464566929133858,
                    "duration": 0.3092782499999771
                },
                {
                    "name": "G3",
                    "midi": 55,
                    "time": 419.38130699999476,
                    "velocity": 0.3464566929133858,
                    "duration": 0.3092782499999771
                },
                {
                    "name": "D#4",
                    "midi": 63,
                    "time": 419.69058524999474,
                    "velocity": 0.2283464566929134,
                    "duration": 0.3092782499999771
                },
                {
                    "name": "G#3",
                    "midi": 56,
                    "time": 419.9998634999947,
                    "velocity": 0.2440944881889764,
                    "duration": 0.3092782499999771
                },
                {
                    "name": "B3",
                    "midi": 59,
                    "time": 419.9998634999947,
                    "velocity": 0.2440944881889764,
                    "duration": 0.3092782499999771
                },
                {
                    "name": "D#4",
                    "midi": 63,
                    "time": 420.3091417499947,
                    "velocity": 0.2204724409448819,
                    "duration": 0.3092782499999771
                },
                {
                    "name": "G3",
                    "midi": 55,
                    "time": 420.61841999999467,
                    "velocity": 0.29133858267716534,
                    "duration": 0.30927825000003395
                },
                {
                    "name": "A#3",
                    "midi": 58,
                    "time": 420.61841999999467,
                    "velocity": 0.29133858267716534,
                    "duration": 0.30927825000003395
                },
                {
                    "name": "D#4",
                    "midi": 63,
                    "time": 420.9148116562447,
                    "velocity": 0.2283464566929134,
                    "duration": 0.30927825000003395
                },
                {
                    "name": "D#3",
                    "midi": 51,
                    "time": 421.23697649999474,
                    "velocity": 0.2283464566929134,
                    "duration": 0.3092782499999771
                },
                {
                    "name": "G3",
                    "midi": 55,
                    "time": 421.5462547499947,
                    "velocity": 0.1889763779527559,
                    "duration": 0.3092782499999771
                },
                {
                    "name": "A#3",
                    "midi": 58,
                    "time": 421.8555329999947,
                    "velocity": 0.29133858267716534,
                    "duration": 0.3092782499999771
                },
                {
                    "name": "D#4",
                    "midi": 63,
                    "time": 422.16481124999467,
                    "velocity": 0.2283464566929134,
                    "duration": 0.3092782499999771
                },
                {
                    "name": "D#3",
                    "midi": 51,
                    "time": 422.47408949999465,
                    "velocity": 0.2283464566929134,
                    "duration": 0.3092782499999771
                },
                {
                    "name": "G3",
                    "midi": 55,
                    "time": 422.7833677499946,
                    "velocity": 0.1968503937007874,
                    "duration": 0.3092782499999771
                },
                {
                    "name": "A#3",
                    "midi": 58,
                    "time": 423.0926459999946,
                    "velocity": 0.29133858267716534,
                    "duration": 0.3092782499999771
                },
                {
                    "name": "D#4",
                    "midi": 63,
                    "time": 423.4019242499946,
                    "velocity": 0.2283464566929134,
                    "duration": 0.3092782499999771
                },
                {
                    "name": "D#3",
                    "midi": 51,
                    "time": 423.71120249999456,
                    "velocity": 0.2283464566929134,
                    "duration": 0.3092782499999771
                },
                {
                    "name": "G3",
                    "midi": 55,
                    "time": 424.02048074999453,
                    "velocity": 0.2047244094488189,
                    "duration": 0.3092782499999771
                },
                {
                    "name": "A#3",
                    "midi": 58,
                    "time": 424.3297589999945,
                    "velocity": 0.33070866141732286,
                    "duration": 0.3092782499999771
                },
                {
                    "name": "D#4",
                    "midi": 63,
                    "time": 424.6390372499945,
                    "velocity": 0.2440944881889764,
                    "duration": 0.3092782499999771
                },
                {
                    "name": "C#4",
                    "midi": 61,
                    "time": 424.94831549999446,
                    "velocity": 0.2440944881889764,
                    "duration": 0.3092782499999771
                },
                {
                    "name": "D#4",
                    "midi": 63,
                    "time": 425.25759374999444,
                    "velocity": 0.2283464566929134,
                    "duration": 0.3092782499999771
                },
                {
                    "name": "B3",
                    "midi": 59,
                    "time": 425.5668719999944,
                    "velocity": 0.30708661417322836,
                    "duration": 0.3092782499999771
                },
                {
                    "name": "D#4",
                    "midi": 63,
                    "time": 425.8941914812444,
                    "velocity": 0.2283464566929134,
                    "duration": 0.3092782499999771
                },
                {
                    "name": "D#3",
                    "midi": 51,
                    "time": 426.21635632499436,
                    "velocity": 0.2283464566929134,
                    "duration": 0.3092782499999771
                },
                {
                    "name": "G#3",
                    "midi": 56,
                    "time": 426.52563457499434,
                    "velocity": 0.1889763779527559,
                    "duration": 0.3092782499999771
                },
                {
                    "name": "B3",
                    "midi": 59,
                    "time": 426.8349128249943,
                    "velocity": 0.33070866141732286,
                    "duration": 0.3092782499999771
                },
                {
                    "name": "D#4",
                    "midi": 63,
                    "time": 427.1441910749943,
                    "velocity": 0.2677165354330709,
                    "duration": 0.3092782499999771
                },
                {
                    "name": "D#3",
                    "midi": 51,
                    "time": 427.4534693249943,
                    "velocity": 0.2677165354330709,
                    "duration": 0.3092782499999771
                },
                {
                    "name": "G#3",
                    "midi": 56,
                    "time": 427.76274757499425,
                    "velocity": 0.2204724409448819,
                    "duration": 0.3092782499999771
                },
                {
                    "name": "B3",
                    "midi": 59,
                    "time": 428.0720258249942,
                    "velocity": 0.3228346456692913,
                    "duration": 0.3092782499999771
                },
                {
                    "name": "D#4",
                    "midi": 63,
                    "time": 428.3813040749942,
                    "velocity": 0.25984251968503935,
                    "duration": 0.3092782499999771
                },
                {
                    "name": "D#3",
                    "midi": 51,
                    "time": 428.6596544999942,
                    "velocity": 0.25984251968503935,
                    "duration": 0.3092782499999771
                },
                {
                    "name": "G#3",
                    "midi": 56,
                    "time": 428.96893274999417,
                    "velocity": 0.2283464566929134,
                    "duration": 0.3092782499999771
                },
                {
                    "name": "B3",
                    "midi": 59,
                    "time": 429.27821099999414,
                    "velocity": 0.29133858267716534,
                    "duration": 0.3092782499999771
                },
                {
                    "name": "D#4",
                    "midi": 63,
                    "time": 429.6184170749941,
                    "velocity": 0.2283464566929134,
                    "duration": 0.3092782499999771
                },
                {
                    "name": "C#4",
                    "midi": 61,
                    "time": 429.8967674999941,
                    "velocity": 0.2283464566929134,
                    "duration": 0.3092782499999771
                },
                {
                    "name": "G3",
                    "midi": 55,
                    "time": 429.8967674999941,
                    "velocity": 0.2283464566929134,
                    "duration": 0.3092782499999771
                },
                {
                    "name": "D#4",
                    "midi": 63,
                    "time": 430.23697357499407,
                    "velocity": 0.1968503937007874,
                    "duration": 0.2783504249999851
                },
                {
                    "name": "B3",
                    "midi": 59,
                    "time": 430.51532399999405,
                    "velocity": 0.29133858267716534,
                    "duration": 0.30927825000003395
                },
                {
                    "name": "G#3",
                    "midi": 56,
                    "time": 430.51532399999405,
                    "velocity": 0.29133858267716534,
                    "duration": 0.30927825000003395
                },
                {
                    "name": "D#4",
                    "midi": 63,
                    "time": 430.8117156562441,
                    "velocity": 0.2283464566929134,
                    "duration": 0.30927825000003395
                },
                {
                    "name": "D#3",
                    "midi": 51,
                    "time": 431.1338804999941,
                    "velocity": 0.2283464566929134,
                    "duration": 0.3092782499999771
                },
                {
                    "name": "G#3",
                    "midi": 56,
                    "time": 431.4431587499941,
                    "velocity": 0.1968503937007874,
                    "duration": 0.3092782499999771
                },
                {
                    "name": "B3",
                    "midi": 59,
                    "time": 431.7524369999941,
                    "velocity": 0.2992125984251969,
                    "duration": 0.3092782499999771
                },
                {
                    "name": "D#4",
                    "midi": 63,
                    "time": 432.06171524999405,
                    "velocity": 0.23622047244094488,
                    "duration": 0.3092782499999771
                },
                {
                    "name": "D#3",
                    "midi": 51,
                    "time": 432.37099349999403,
                    "velocity": 0.2440944881889764,
                    "duration": 0.3092782499999771
                },
                {
                    "name": "G#3",
                    "midi": 56,
                    "time": 432.680271749994,
                    "velocity": 0.2204724409448819,
                    "duration": 0.3092782499999771
                },
                {
                    "name": "B3",
                    "midi": 59,
                    "time": 432.989549999994,
                    "velocity": 0.31496062992125984,
                    "duration": 0.3092782499999771
                },
                {
                    "name": "D#4",
                    "midi": 63,
                    "time": 433.29882824999396,
                    "velocity": 0.25196850393700787,
                    "duration": 0.3092782499999771
                },
                {
                    "name": "D#3",
                    "midi": 51,
                    "time": 433.60810649999394,
                    "velocity": 0.25196850393700787,
                    "duration": 0.3092782499999771
                },
                {
                    "name": "G#3",
                    "midi": 56,
                    "time": 433.9173847499939,
                    "velocity": 0.2125984251968504,
                    "duration": 0.3092782499999771
                },
                {
                    "name": "B3",
                    "midi": 59,
                    "time": 434.2266629999939,
                    "velocity": 0.33070866141732286,
                    "duration": 0.3092782499999771
                },
                {
                    "name": "D#4",
                    "midi": 63,
                    "time": 434.53594124999387,
                    "velocity": 0.25984251968503935,
                    "duration": 0.3092782499999771
                },
                {
                    "name": "C#4",
                    "midi": 61,
                    "time": 434.84521949999385,
                    "velocity": 0.3228346456692913,
                    "duration": 0.3092782499999771
                },
                {
                    "name": "F#3",
                    "midi": 54,
                    "time": 434.84521949999385,
                    "velocity": 0.3228346456692913,
                    "duration": 0.3092782499999771
                },
                {
                    "name": "F#4",
                    "midi": 66,
                    "time": 435.1544977499938,
                    "velocity": 0.3464566929133858,
                    "duration": 0.3092782499999771
                },
                {
                    "name": "D#4",
                    "midi": 63,
                    "time": 435.4637759999938,
                    "velocity": 0.4251968503937008,
                    "duration": 0.3092782499999771
                },
                {
                    "name": "B3",
                    "midi": 59,
                    "time": 435.4637759999938,
                    "velocity": 0.4251968503937008,
                    "duration": 0.3092782499999771
                },
                {
                    "name": "F#4",
                    "midi": 66,
                    "time": 435.7730542499938,
                    "velocity": 0.3228346456692913,
                    "duration": 0.3092782499999771
                },
                {
                    "name": "F#3",
                    "midi": 54,
                    "time": 436.0874871374938,
                    "velocity": 0.3228346456692913,
                    "duration": 0.30927825000003395
                },
                {
                    "name": "B3",
                    "midi": 59,
                    "time": 436.3916107499938,
                    "velocity": 0.28346456692913385,
                    "duration": 0.30927825000003395
                },
                {
                    "name": "D#4",
                    "midi": 63,
                    "time": 436.7008889999938,
                    "velocity": 0.36220472440944884,
                    "duration": 0.3092782499999771
                },
                {
                    "name": "F#4",
                    "midi": 66,
                    "time": 437.0101672499938,
                    "velocity": 0.3228346456692913,
                    "duration": 0.3092782499999771
                },
                {
                    "name": "F#3",
                    "midi": 54,
                    "time": 437.3194454999938,
                    "velocity": 0.3228346456692913,
                    "duration": 0.3092782499999771
                },
                {
                    "name": "B3",
                    "midi": 59,
                    "time": 437.62872374999375,
                    "velocity": 0.28346456692913385,
                    "duration": 0.3092782499999771
                },
                {
                    "name": "D#4",
                    "midi": 63,
                    "time": 437.93800199999373,
                    "velocity": 0.4015748031496063,
                    "duration": 0.3092782499999771
                },
                {
                    "name": "F#4",
                    "midi": 66,
                    "time": 438.2472802499937,
                    "velocity": 0.3464566929133858,
                    "duration": 0.3092782499999771
                },
                {
                    "name": "D#4",
                    "midi": 63,
                    "time": 438.5565584999937,
                    "velocity": 0.36220472440944884,
                    "duration": 0.3092782499999771
                },
                {
                    "name": "B3",
                    "midi": 59,
                    "time": 438.5565584999937,
                    "velocity": 0.36220472440944884,
                    "duration": 0.3092782499999771
                },
                {
                    "name": "F#4",
                    "midi": 66,
                    "time": 438.86583674999366,
                    "velocity": 0.3700787401574803,
                    "duration": 0.3092782499999771
                },
                {
                    "name": "E4",
                    "midi": 64,
                    "time": 439.17511499999364,
                    "velocity": 0.4330708661417323,
                    "duration": 0.3092782499999771
                },
                {
                    "name": "A#3",
                    "midi": 58,
                    "time": 439.17511499999364,
                    "velocity": 0.4330708661417323,
                    "duration": 0.3092782499999771
                },
                {
                    "name": "F#4",
                    "midi": 66,
                    "time": 439.4843932499936,
                    "velocity": 0.3779527559055118,
                    "duration": 0.3092782499999771
                },
                {
                    "name": "B3",
                    "midi": 59,
                    "time": 439.7936714999936,
                    "velocity": 0.3937007874015748,
                    "duration": 0.3092782499999771
                },
                {
                    "name": "D#4",
                    "midi": 63,
                    "time": 439.7936714999936,
                    "velocity": 0.3937007874015748,
                    "duration": 0.3092782499999771
                },
                {
                    "name": "F#4",
                    "midi": 66,
                    "time": 440.10294974999357,
                    "velocity": 0.4251968503937008,
                    "duration": 0.3092782499999771
                },
                {
                    "name": "C#4",
                    "midi": 61,
                    "time": 440.41222799999355,
                    "velocity": 0.47244094488188976,
                    "duration": 0.3092782499999771
                },
                {
                    "name": "A#3",
                    "midi": 58,
                    "time": 440.41222799999355,
                    "velocity": 0.47244094488188976,
                    "duration": 0.3092782499999771
                },
                {
                    "name": "F#4",
                    "midi": 66,
                    "time": 440.7215062499935,
                    "velocity": 0.3858267716535433,
                    "duration": 0.3092782499999771
                },
                {
                    "name": "F#3",
                    "midi": 54,
                    "time": 441.0307844999935,
                    "velocity": 0.3858267716535433,
                    "duration": 0.3092782499999771
                },
                {
                    "name": "A#3",
                    "midi": 58,
                    "time": 441.3400627499935,
                    "velocity": 0.33858267716535434,
                    "duration": 0.3092782499999771
                },
                {
                    "name": "C#4",
                    "midi": 61,
                    "time": 441.64934099999346,
                    "velocity": 0.4094488188976378,
                    "duration": 0.3092782499999771
                },
                {
                    "name": "F#4",
                    "midi": 66,
                    "time": 441.95861924999343,
                    "velocity": 0.33070866141732286,
                    "duration": 0.3092782499999771
                },
                {
                    "name": "F#3",
                    "midi": 54,
                    "time": 442.2678974999934,
                    "velocity": 0.33070866141732286,
                    "duration": 0.3092782499999771
                },
                {
                    "name": "A#3",
                    "midi": 58,
                    "time": 442.5771757499934,
                    "velocity": 0.28346456692913385,
                    "duration": 0.3092782499999771
                },
                {
                    "name": "C#4",
                    "midi": 61,
                    "time": 442.88645399999336,
                    "velocity": 0.4566929133858268,
                    "duration": 0.3092782499999771
                },
                {
                    "name": "F#4",
                    "midi": 66,
                    "time": 443.19573224999334,
                    "velocity": 0.3543307086614173,
                    "duration": 0.3092782499999771
                },
                {
                    "name": "F#3",
                    "midi": 54,
                    "time": 443.5050104999933,
                    "velocity": 0.3543307086614173,
                    "duration": 0.3092782499999771
                },
                {
                    "name": "A#3",
                    "midi": 58,
                    "time": 443.8142887499933,
                    "velocity": 0.28346456692913385,
                    "duration": 0.3092782499999771
                },
                {
                    "name": "C#4",
                    "midi": 61,
                    "time": 444.1235669999933,
                    "velocity": 0.4409448818897638,
                    "duration": 0.3092782499999771
                },
                {
                    "name": "F#4",
                    "midi": 66,
                    "time": 444.43284524999325,
                    "velocity": 0.3228346456692913,
                    "duration": 0.3092782499999771
                },
                {
                    "name": "E4",
                    "midi": 64,
                    "time": 444.7421234999932,
                    "velocity": 0.3228346456692913,
                    "duration": 0.3092782499999771
                },
                {
                    "name": "F#4",
                    "midi": 66,
                    "time": 445.0514017499932,
                    "velocity": 0.28346456692913385,
                    "duration": 0.3092782499999771
                },
                {
                    "name": "D#4",
                    "midi": 63,
                    "time": 445.3606799999932,
                    "velocity": 0.41732283464566927,
                    "duration": 0.3092782499999771
                },
                {
                    "name": "F#4",
                    "midi": 66,
                    "time": 445.66995824999316,
                    "velocity": 0.33858267716535434,
                    "duration": 0.3092782499999771
                },
                {
                    "name": "F#3",
                    "midi": 54,
                    "time": 445.97923649999314,
                    "velocity": 0.33858267716535434,
                    "duration": 0.3092782499999771
                },
                {
                    "name": "B3",
                    "midi": 59,
                    "time": 446.2885147499931,
                    "velocity": 0.2992125984251969,
                    "duration": 0.3092782499999771
                },
                {
                    "name": "D#4",
                    "midi": 63,
                    "time": 446.5977929999931,
                    "velocity": 0.3779527559055118,
                    "duration": 0.3092782499999771
                },
                {
                    "name": "F#4",
                    "midi": 66,
                    "time": 446.90707124999307,
                    "velocity": 0.2992125984251969,
                    "duration": 0.3092782499999771
                },
                {
                    "name": "F#3",
                    "midi": 54,
                    "time": 447.21634949999304,
                    "velocity": 0.2992125984251969,
                    "duration": 0.3092782499999771
                },
                {
                    "name": "B3",
                    "midi": 59,
                    "time": 447.525627749993,
                    "velocity": 0.25984251968503935,
                    "duration": 0.3092782499999771
                },
                {
                    "name": "D#4",
                    "midi": 63,
                    "time": 447.834905999993,
                    "velocity": 0.3543307086614173,
                    "duration": 0.3092782499999771
                },
                {
                    "name": "F#4",
                    "midi": 66,
                    "time": 448.144184249993,
                    "velocity": 0.2755905511811024,
                    "duration": 0.3092782499999771
                },
                {
                    "name": "F#3",
                    "midi": 54,
                    "time": 448.45346249999295,
                    "velocity": 0.2755905511811024,
                    "duration": 0.3092782499999771
                },
                {
                    "name": "B3",
                    "midi": 59,
                    "time": 448.76274074999293,
                    "velocity": 0.25196850393700787,
                    "duration": 0.3092782499999771
                },
                {
                    "name": "B3",
                    "midi": 59,
                    "time": 449.0720189999929,
                    "velocity": 0.2992125984251969,
                    "duration": 0.3092782499999771
                },
                {
                    "name": "D#4",
                    "midi": 63,
                    "time": 449.0720189999929,
                    "velocity": 0.2992125984251969,
                    "duration": 0.3092782499999771
                },
                {
                    "name": "F#4",
                    "midi": 66,
                    "time": 449.3812972499929,
                    "velocity": 0.23622047244094488,
                    "duration": 0.3092782499999771
                },
                {
                    "name": "E4",
                    "midi": 64,
                    "time": 449.69057549999286,
                    "velocity": 0.2283464566929134,
                    "duration": 0.3092782499999771
                },
                {
                    "name": "A#3",
                    "midi": 58,
                    "time": 449.69057549999286,
                    "velocity": 0.2283464566929134,
                    "duration": 0.3092782499999771
                },
                {
                    "name": "F#4",
                    "midi": 66,
                    "time": 449.99985374999284,
                    "velocity": 0.1968503937007874,
                    "duration": 0.2783504249999851
                },
                {
                    "name": "D#4",
                    "midi": 63,
                    "time": 450.3091319999928,
                    "velocity": 0.29133858267716534,
                    "duration": 0.3092782499999771
                },
                {
                    "name": "B3",
                    "midi": 59,
                    "time": 450.3091319999928,
                    "velocity": 0.29133858267716534,
                    "duration": 0.3092782499999771
                },
                {
                    "name": "F#4",
                    "midi": 66,
                    "time": 450.6184102499928,
                    "velocity": 0.2283464566929134,
                    "duration": 0.3092782499999771
                },
                {
                    "name": "F#3",
                    "midi": 54,
                    "time": 450.92768849999277,
                    "velocity": 0.2283464566929134,
                    "duration": 0.3092782499999771
                },
                {
                    "name": "B3",
                    "midi": 59,
                    "time": 451.23696674999275,
                    "velocity": 0.18110236220472442,
                    "duration": 0.3092782499999771
                },
                {
                    "name": "D#4",
                    "midi": 63,
                    "time": 451.5462449999927,
                    "velocity": 0.2992125984251969,
                    "duration": 0.3092782499999771
                },
                {
                    "name": "F#4",
                    "midi": 66,
                    "time": 451.8555232499927,
                    "velocity": 0.23622047244094488,
                    "duration": 0.3092782499999771
                },
                {
                    "name": "F#3",
                    "midi": 54,
                    "time": 452.1648014999927,
                    "velocity": 0.2440944881889764,
                    "duration": 0.3092782499999771
                },
                {
                    "name": "B3",
                    "midi": 59,
                    "time": 452.47407974999265,
                    "velocity": 0.2047244094488189,
                    "duration": 0.3092782499999771
                },
                {
                    "name": "D#4",
                    "midi": 63,
                    "time": 452.78335799999263,
                    "velocity": 0.31496062992125984,
                    "duration": 0.3092782499999771
                },
                {
                    "name": "F#4",
                    "midi": 66,
                    "time": 453.0926362499926,
                    "velocity": 0.25196850393700787,
                    "duration": 0.3092782499999771
                },
                {
                    "name": "F#3",
                    "midi": 54,
                    "time": 453.4019144999926,
                    "velocity": 0.25196850393700787,
                    "duration": 0.3092782499999771
                },
                {
                    "name": "B3",
                    "midi": 59,
                    "time": 453.71119274999256,
                    "velocity": 0.2204724409448819,
                    "duration": 0.3092782499999771
                },
                {
                    "name": "D#4",
                    "midi": 63,
                    "time": 454.02047099999254,
                    "velocity": 0.33070866141732286,
                    "duration": 0.3092782499999771
                },
                {
                    "name": "F#4",
                    "midi": 66,
                    "time": 454.3297492499925,
                    "velocity": 0.25984251968503935,
                    "duration": 0.3092782499999771
                },
                {
                    "name": "F#3",
                    "midi": 54,
                    "time": 454.6390274999925,
                    "velocity": 0.3228346456692913,
                    "duration": 0.3092782499999771
                },
                {
                    "name": "B3",
                    "midi": 59,
                    "time": 454.94830574999247,
                    "velocity": 0.3464566929133858,
                    "duration": 0.3092782499999771
                },
                {
                    "name": "E4",
                    "midi": 64,
                    "time": 455.25758399999245,
                    "velocity": 0.3937007874015748,
                    "duration": 0.3092782499999771
                },
                {
                    "name": "B3",
                    "midi": 59,
                    "time": 455.5668622499924,
                    "velocity": 0.28346456692913385,
                    "duration": 0.3092782499999771
                },
                {
                    "name": "G#3",
                    "midi": 56,
                    "time": 455.8761404999924,
                    "velocity": 0.28346456692913385,
                    "duration": 0.3092782499999771
                },
                {
                    "name": "B3",
                    "midi": 59,
                    "time": 456.1854187499924,
                    "velocity": 0.2440944881889764,
                    "duration": 0.3092782499999771
                },
                {
                    "name": "E4",
                    "midi": 64,
                    "time": 456.49469699999236,
                    "velocity": 0.3543307086614173,
                    "duration": 0.3092782499999771
                },
                {
                    "name": "G#4",
                    "midi": 68,
                    "time": 456.80397524999233,
                    "velocity": 0.28346456692913385,
                    "duration": 0.3092782499999771
                },
                {
                    "name": "G#3",
                    "midi": 56,
                    "time": 457.1132534999923,
                    "velocity": 0.28346456692913385,
                    "duration": 0.3092782499999771
                },
                {
                    "name": "B3",
                    "midi": 59,
                    "time": 457.4225317499923,
                    "velocity": 0.2440944881889764,
                    "duration": 0.3092782499999771
                },
                {
                    "name": "E4",
                    "midi": 64,
                    "time": 457.73180999999227,
                    "velocity": 0.3464566929133858,
                    "duration": 0.3092782499999771
                },
                {
                    "name": "G#4",
                    "midi": 68,
                    "time": 458.04108824999224,
                    "velocity": 0.29133858267716534,
                    "duration": 0.3092782499999771
                },
                {
                    "name": "G#3",
                    "midi": 56,
                    "time": 458.3503664999922,
                    "velocity": 0.29133858267716534,
                    "duration": 0.3092782499999771
                },
                {
                    "name": "C#4",
                    "midi": 61,
                    "time": 458.6596447499922,
                    "velocity": 0.2677165354330709,
                    "duration": 0.3092782499999771
                },
                {
                    "name": "E4",
                    "midi": 64,
                    "time": 458.9689229999922,
                    "velocity": 0.3779527559055118,
                    "duration": 0.3092782499999771
                },
                {
                    "name": "G#4",
                    "midi": 68,
                    "time": 459.27820124999215,
                    "velocity": 0.2992125984251969,
                    "duration": 0.3092782499999771
                },
                {
                    "name": "G#3",
                    "midi": 56,
                    "time": 459.5874794999921,
                    "velocity": 0.3228346456692913,
                    "duration": 0.3092782499999771
                },
                {
                    "name": "C#4",
                    "midi": 61,
                    "time": 459.8967577499921,
                    "velocity": 0.3464566929133858,
                    "duration": 0.3092782499999771
                },
                {
                    "name": "E4",
                    "midi": 64,
                    "time": 460.2060359999921,
                    "velocity": 0.4409448818897638,
                    "duration": 0.3092782499999771
                },
                {
                    "name": "F#4",
                    "midi": 66,
                    "time": 460.51531424999206,
                    "velocity": 0.33070866141732286,
                    "duration": 0.3092782499999771
                },
                {
                    "name": "F#3",
                    "midi": 54,
                    "time": 460.82459249999204,
                    "velocity": 0.33070866141732286,
                    "duration": 0.3092782499999771
                },
                {
                    "name": "C#4",
                    "midi": 61,
                    "time": 461.133870749992,
                    "velocity": 0.29133858267716534,
                    "duration": 0.3092782499999771
                },
                {
                    "name": "E4",
                    "midi": 64,
                    "time": 461.443148999992,
                    "velocity": 0.4094488188976378,
                    "duration": 0.3092782499999771
                },
                {
                    "name": "F#4",
                    "midi": 66,
                    "time": 461.75242724999197,
                    "velocity": 0.33070866141732286,
                    "duration": 0.3092782499999771
                },
                {
                    "name": "F#3",
                    "midi": 54,
                    "time": 462.06170549999194,
                    "velocity": 0.33070866141732286,
                    "duration": 0.3092782499999771
                },
                {
                    "name": "C#4",
                    "midi": 61,
                    "time": 462.3709837499919,
                    "velocity": 0.28346456692913385,
                    "duration": 0.3092782499999771
                },
                {
                    "name": "D#4",
                    "midi": 63,
                    "time": 462.6802619999919,
                    "velocity": 0.3937007874015748,
                    "duration": 0.3092782499999771
                },
                {
                    "name": "F#4",
                    "midi": 66,
                    "time": 462.9895402499919,
                    "velocity": 0.31496062992125984,
                    "duration": 0.3092782499999771
                },
                {
                    "name": "F#3",
                    "midi": 54,
                    "time": 463.29881849999185,
                    "velocity": 0.31496062992125984,
                    "duration": 0.3092782499999771
                },
                {
                    "name": "B3",
                    "midi": 59,
                    "time": 463.60809674999183,
                    "velocity": 0.28346456692913385,
                    "duration": 0.3092782499999771
                },
                {
                    "name": "D#4",
                    "midi": 63,
                    "time": 463.9173749999918,
                    "velocity": 0.33070866141732286,
                    "duration": 0.3092782499999771
                },
                {
                    "name": "F#4",
                    "midi": 66,
                    "time": 464.2266532499918,
                    "velocity": 0.25984251968503935,
                    "duration": 0.3092782499999771
                },
                {
                    "name": "F#3",
                    "midi": 54,
                    "time": 464.53593149999176,
                    "velocity": 0.3228346456692913,
                    "duration": 0.3092782499999771
                },
                {
                    "name": "B3",
                    "midi": 59,
                    "time": 464.84520974999174,
                    "velocity": 0.3464566929133858,
                    "duration": 0.3092782499999771
                },
                {
                    "name": "C#4",
                    "midi": 61,
                    "time": 465.1544879999917,
                    "velocity": 0.4251968503937008,
                    "duration": 0.3092782499999771
                },
                {
                    "name": "F#4",
                    "midi": 66,
                    "time": 465.4637662499917,
                    "velocity": 0.3228346456692913,
                    "duration": 0.3092782499999771
                },
                {
                    "name": "F#3",
                    "midi": 54,
                    "time": 465.77304449999167,
                    "velocity": 0.3228346456692913,
                    "duration": 0.3092782499999771
                },
                {
                    "name": "B3",
                    "midi": 59,
                    "time": 466.08232274999165,
                    "velocity": 0.28346456692913385,
                    "duration": 0.3092782499999771
                },
                {
                    "name": "C#4",
                    "midi": 61,
                    "time": 466.3916009999916,
                    "velocity": 0.3779527559055118,
                    "duration": 0.3092782499999771
                },
                {
                    "name": "F#4",
                    "midi": 66,
                    "time": 466.7008792499916,
                    "velocity": 0.30708661417322836,
                    "duration": 0.3092782499999771
                },
                {
                    "name": "F#3",
                    "midi": 54,
                    "time": 467.0101574999916,
                    "velocity": 0.30708661417322836,
                    "duration": 0.3092782499999771
                },
                {
                    "name": "B3",
                    "midi": 59,
                    "time": 467.31943574999156,
                    "velocity": 0.28346456692913385,
                    "duration": 0.3092782499999771
                },
                {
                    "name": "C#4",
                    "midi": 61,
                    "time": 467.62871399999153,
                    "velocity": 0.3779527559055118,
                    "duration": 0.3092782499999771
                },
                {
                    "name": "F#4",
                    "midi": 66,
                    "time": 467.9379922499915,
                    "velocity": 0.25196850393700787,
                    "duration": 0.3092782499999771
                },
                {
                    "name": "F#3",
                    "midi": 54,
                    "time": 468.2472704999915,
                    "velocity": 0.29133858267716534,
                    "duration": 0.3092782499999771
                },
                {
                    "name": "A#3",
                    "midi": 58,
                    "time": 468.55654874999146,
                    "velocity": 0.29133858267716534,
                    "duration": 0.3092782499999771
                },
                {
                    "name": "C#4",
                    "midi": 61,
                    "time": 468.86582699999144,
                    "velocity": 0.33070866141732286,
                    "duration": 0.3092782499999771
                },
                {
                    "name": "F#4",
                    "midi": 66,
                    "time": 469.1751052499914,
                    "velocity": 0.2283464566929134,
                    "duration": 0.3092782499999771
                },
                {
                    "name": "F#3",
                    "midi": 54,
                    "time": 469.4843834999914,
                    "velocity": 0.2283464566929134,
                    "duration": 0.3092782499999771
                },
                {
                    "name": "A#3",
                    "midi": 58,
                    "time": 469.7936617499914,
                    "velocity": 0.2283464566929134,
                    "duration": 0.3092782499999771
                },
                {
                    "name": "D#4",
                    "midi": 63,
                    "time": 470.10293999999135,
                    "velocity": 0.29133858267716534,
                    "duration": 0.3092782499999771
                },
                {
                    "name": "F#4",
                    "midi": 66,
                    "time": 470.4122182499913,
                    "velocity": 0.2283464566929134,
                    "duration": 0.3092782499999771
                },
                {
                    "name": "F#3",
                    "midi": 54,
                    "time": 470.7214964999913,
                    "velocity": 0.2283464566929134,
                    "duration": 0.3092782499999771
                },
                {
                    "name": "B3",
                    "midi": 59,
                    "time": 471.0307747499913,
                    "velocity": 0.1968503937007874,
                    "duration": 0.3092782499999771
                },
                {
                    "name": "D#4",
                    "midi": 63,
                    "time": 471.34005299999126,
                    "velocity": 0.2992125984251969,
                    "duration": 0.3092782499999771
                },
                {
                    "name": "F#4",
                    "midi": 66,
                    "time": 471.64933124999123,
                    "velocity": 0.23622047244094488,
                    "duration": 0.3092782499999771
                },
                {
                    "name": "F#3",
                    "midi": 54,
                    "time": 471.9586094999912,
                    "velocity": 0.2440944881889764,
                    "duration": 0.3092782499999771
                },
                {
                    "name": "B3",
                    "midi": 59,
                    "time": 472.2678877499912,
                    "velocity": 0.2047244094488189,
                    "duration": 0.3092782499999771
                },
                {
                    "name": "D4",
                    "midi": 62,
                    "time": 472.57716599999117,
                    "velocity": 0.31496062992125984,
                    "duration": 0.3092782499999771
                },
                {
                    "name": "F#4",
                    "midi": 66,
                    "time": 472.88644424999114,
                    "velocity": 0.25196850393700787,
                    "duration": 0.3092782499999771
                },
                {
                    "name": "F#3",
                    "midi": 54,
                    "time": 473.1957224999911,
                    "velocity": 0.25196850393700787,
                    "duration": 0.3092782499999771
                },
                {
                    "name": "B3",
                    "midi": 59,
                    "time": 473.5050007499911,
                    "velocity": 0.2283464566929134,
                    "duration": 0.3092782499999771
                },
                {
                    "name": "D4",
                    "midi": 62,
                    "time": 473.8142789999911,
                    "velocity": 0.33070866141732286,
                    "duration": 0.3092782499999771
                },
                {
                    "name": "F#4",
                    "midi": 66,
                    "time": 474.12355724999105,
                    "velocity": 0.25984251968503935,
                    "duration": 0.3092782499999771
                },
                {
                    "name": "F#3",
                    "midi": 54,
                    "time": 474.43283549999103,
                    "velocity": 0.25984251968503935,
                    "duration": 0.3092782499999771
                },
                {
                    "name": "B3",
                    "midi": 59,
                    "time": 474.742113749991,
                    "velocity": 0.2204724409448819,
                    "duration": 0.3092782499999771
                },
                {
                    "name": "C#4",
                    "midi": 61,
                    "time": 475.051391999991,
                    "velocity": 0.29133858267716534,
                    "duration": 0.3092782499999771
                },
                {
                    "name": "F#4",
                    "midi": 66,
                    "time": 475.36067024999096,
                    "velocity": 0.2283464566929134,
                    "duration": 0.3092782499999771
                },
                {
                    "name": "F#3",
                    "midi": 54,
                    "time": 475.66994849999094,
                    "velocity": 0.2283464566929134,
                    "duration": 0.3092782499999771
                },
                {
                    "name": "B3",
                    "midi": 59,
                    "time": 475.9792267499909,
                    "velocity": 0.2047244094488189,
                    "duration": 0.3092782499999771
                },
                {
                    "name": "C#4",
                    "midi": 61,
                    "time": 476.2885049999909,
                    "velocity": 0.2992125984251969,
                    "duration": 0.3092782499999771
                },
                {
                    "name": "F#4",
                    "midi": 66,
                    "time": 476.59778324999087,
                    "velocity": 0.2283464566929134,
                    "duration": 0.3092782499999771
                },
                {
                    "name": "F#3",
                    "midi": 54,
                    "time": 476.90706149999085,
                    "velocity": 0.2283464566929134,
                    "duration": 0.3092782499999771
                },
                {
                    "name": "B3",
                    "midi": 59,
                    "time": 477.2163397499908,
                    "velocity": 0.2125984251968504,
                    "duration": 0.3092782499999771
                },
                {
                    "name": "C#4",
                    "midi": 61,
                    "time": 477.5256179999908,
                    "velocity": 0.31496062992125984,
                    "duration": 0.3092782499999771
                },
                {
                    "name": "F#4",
                    "midi": 66,
                    "time": 477.8348962499908,
                    "velocity": 0.2204724409448819,
                    "duration": 0.3092782499999771
                },
                {
                    "name": "F#3",
                    "midi": 54,
                    "time": 478.14417449999075,
                    "velocity": 0.2204724409448819,
                    "duration": 0.3092782499999771
                },
                {
                    "name": "A#3",
                    "midi": 58,
                    "time": 478.45345274999073,
                    "velocity": 0.2047244094488189,
                    "duration": 0.3092782499999771
                },
                {
                    "name": "C#4",
                    "midi": 61,
                    "time": 478.7627309999907,
                    "velocity": 0.3228346456692913,
                    "duration": 0.3092782499999771
                },
                {
                    "name": "F#4",
                    "midi": 66,
                    "time": 479.0720092499907,
                    "velocity": 0.2283464566929134,
                    "duration": 0.3092782499999771
                },
                {
                    "name": "F#3",
                    "midi": 54,
                    "time": 479.38128749999066,
                    "velocity": 0.2283464566929134,
                    "duration": 0.3092782499999771
                },
                {
                    "name": "A#3",
                    "midi": 58,
                    "time": 479.69056574999064,
                    "velocity": 0.2047244094488189,
                    "duration": 0.3092782499999771
                },
                {
                    "name": "D#4",
                    "midi": 63,
                    "time": 479.9998439999906,
                    "velocity": 0.29133858267716534,
                    "duration": 0.3092782499999771
                },
                {
                    "name": "F#4",
                    "midi": 66,
                    "time": 480.3091222499906,
                    "velocity": 0.2283464566929134,
                    "duration": 0.3092782499999771
                },
                {
                    "name": "F#3",
                    "midi": 54,
                    "time": 480.61840049999057,
                    "velocity": 0.2283464566929134,
                    "duration": 0.3092782499999771
                },
                {
                    "name": "B3",
                    "midi": 59,
                    "time": 480.92767874999055,
                    "velocity": 0.1968503937007874,
                    "duration": 0.3092782499999771
                },
                {
                    "name": "D#4",
                    "midi": 63,
                    "time": 481.2369569999905,
                    "velocity": 0.2992125984251969,
                    "duration": 0.3092782499999771
                },
                {
                    "name": "F#4",
                    "midi": 66,
                    "time": 481.5462352499905,
                    "velocity": 0.23622047244094488,
                    "duration": 0.3092782499999771
                },
                {
                    "name": "F#3",
                    "midi": 54,
                    "time": 481.8555134999905,
                    "velocity": 0.2440944881889764,
                    "duration": 0.3092782499999771
                },
                {
                    "name": "B3",
                    "midi": 59,
                    "time": 482.16479174999046,
                    "velocity": 0.1889763779527559,
                    "duration": 0.3092782499999771
                },
                {
                    "name": "D#4",
                    "midi": 63,
                    "time": 482.47406999999043,
                    "velocity": 0.3543307086614173,
                    "duration": 0.3092782499999771
                },
                {
                    "name": "F#4",
                    "midi": 66,
                    "time": 482.7833482499904,
                    "velocity": 0.25196850393700787,
                    "duration": 0.3092782499999771
                },
                {
                    "name": "F#3",
                    "midi": 54,
                    "time": 483.0926264999904,
                    "velocity": 0.25196850393700787,
                    "duration": 0.3092782499999771
                },
                {
                    "name": "B3",
                    "midi": 59,
                    "time": 483.40190474999036,
                    "velocity": 0.25196850393700787,
                    "duration": 0.3092782499999771
                },
                {
                    "name": "D#4",
                    "midi": 63,
                    "time": 483.71118299999034,
                    "velocity": 0.3700787401574803,
                    "duration": 0.3092782499999771
                },
                {
                    "name": "F#4",
                    "midi": 66,
                    "time": 484.0204612499903,
                    "velocity": 0.2677165354330709,
                    "duration": 0.3092782499999771
                },
                {
                    "name": "F#3",
                    "midi": 54,
                    "time": 484.3297394999903,
                    "velocity": 0.2992125984251969,
                    "duration": 0.3092782499999771
                },
                {
                    "name": "B3",
                    "midi": 59,
                    "time": 484.6390177499903,
                    "velocity": 0.2992125984251969,
                    "duration": 0.3092782499999771
                },
                {
                    "name": "D#4",
                    "midi": 63,
                    "time": 484.94829599999025,
                    "velocity": 0.3937007874015748,
                    "duration": 0.3092782499999771
                },
                {
                    "name": "G4",
                    "midi": 67,
                    "time": 485.2575742499902,
                    "velocity": 0.30708661417322836,
                    "duration": 0.3092782499999771
                },
                {
                    "name": "G3",
                    "midi": 55,
                    "time": 485.5668524999902,
                    "velocity": 0.30708661417322836,
                    "duration": 0.3092782499999771
                },
                {
                    "name": "A#3",
                    "midi": 58,
                    "time": 485.8761307499902,
                    "velocity": 0.2677165354330709,
                    "duration": 0.3092782499999771
                },
                {
                    "name": "D#4",
                    "midi": 63,
                    "time": 486.18540899999016,
                    "velocity": 0.4015748031496063,
                    "duration": 0.3092782499999771
                },
                {
                    "name": "G4",
                    "midi": 67,
                    "time": 486.49468724999014,
                    "velocity": 0.30708661417322836,
                    "duration": 0.3092782499999771
                },
                {
                    "name": "G3",
                    "midi": 55,
                    "time": 486.8039654999901,
                    "velocity": 0.31496062992125984,
                    "duration": 0.3092782499999771
                },
                {
                    "name": "A#3",
                    "midi": 58,
                    "time": 487.1132437499901,
                    "velocity": 0.2755905511811024,
                    "duration": 0.3092782499999771
                },
                {
                    "name": "D#4",
                    "midi": 63,
                    "time": 487.42252199999007,
                    "velocity": 0.3858267716535433,
                    "duration": 0.3092782499999771
                },
                {
                    "name": "G4",
                    "midi": 67,
                    "time": 487.73180024999004,
                    "velocity": 0.2992125984251969,
                    "duration": 0.3092782499999771
                },
                {
                    "name": "G3",
                    "midi": 55,
                    "time": 488.04107849999,
                    "velocity": 0.2992125984251969,
                    "duration": 0.3092782499999771
                },
                {
                    "name": "A#3",
                    "midi": 58,
                    "time": 488.35035674999,
                    "velocity": 0.25984251968503935,
                    "duration": 0.3092782499999771
                },
                {
                    "name": "D#4",
                    "midi": 63,
                    "time": 488.65963499999,
                    "velocity": 0.4015748031496063,
                    "duration": 0.3092782499999771
                },
                {
                    "name": "G4",
                    "midi": 67,
                    "time": 488.96891324998995,
                    "velocity": 0.31496062992125984,
                    "duration": 0.3092782499999771
                },
                {
                    "name": "G3",
                    "midi": 55,
                    "time": 489.27819149998993,
                    "velocity": 0.3228346456692913,
                    "duration": 0.3092782499999771
                },
                {
                    "name": "A#3",
                    "midi": 58,
                    "time": 489.5874697499899,
                    "velocity": 0.2755905511811024,
                    "duration": 0.3092782499999771
                },
                {
                    "name": "D#4",
                    "midi": 63,
                    "time": 489.8967479999899,
                    "velocity": 0.4645669291338583,
                    "duration": 0.3092782499999771
                },
                {
                    "name": "G#4",
                    "midi": 68,
                    "time": 490.20602624998986,
                    "velocity": 0.3543307086614173,
                    "duration": 0.3092782499999771
                },
                {
                    "name": "G#3",
                    "midi": 56,
                    "time": 490.51530449998984,
                    "velocity": 0.36220472440944884,
                    "duration": 0.3092782499999771
                },
                {
                    "name": "B3",
                    "midi": 59,
                    "time": 490.8245827499898,
                    "velocity": 0.33070866141732286,
                    "duration": 0.3092782499999771
                },
                {
                    "name": "D#4",
                    "midi": 63,
                    "time": 491.1338609999898,
                    "velocity": 0.5039370078740157,
                    "duration": 0.3092782499999771
                },
                {
                    "name": "G#4",
                    "midi": 68,
                    "time": 491.44313924998977,
                    "velocity": 0.3779527559055118,
                    "duration": 0.3092782499999771
                },
                {
                    "name": "G#3",
                    "midi": 56,
                    "time": 491.75241749998975,
                    "velocity": 0.3937007874015748,
                    "duration": 0.3092782499999771
                },
                {
                    "name": "B3",
                    "midi": 59,
                    "time": 492.0616957499897,
                    "velocity": 0.3700787401574803,
                    "duration": 0.3092782499999771
                },
                {
                    "name": "D#4",
                    "midi": 63,
                    "time": 492.3709739999897,
                    "velocity": 0.4566929133858268,
                    "duration": 0.3092782499999771
                },
                {
                    "name": "G#4",
                    "midi": 68,
                    "time": 492.6802522499897,
                    "velocity": 0.3700787401574803,
                    "duration": 0.3092782499999771
                },
                {
                    "name": "G#3",
                    "midi": 56,
                    "time": 492.98953049998966,
                    "velocity": 0.3700787401574803,
                    "duration": 0.3092782499999771
                },
                {
                    "name": "B3",
                    "midi": 59,
                    "time": 493.29880874998963,
                    "velocity": 0.3464566929133858,
                    "duration": 0.3092782499999771
                },
                {
                    "name": "D#4",
                    "midi": 63,
                    "time": 493.6080869999896,
                    "velocity": 0.4251968503937008,
                    "duration": 0.3092782499999771
                },
                {
                    "name": "G#4",
                    "midi": 68,
                    "time": 493.9173652499896,
                    "velocity": 0.36220472440944884,
                    "duration": 0.3092782499999771
                },
                {
                    "name": "G#3",
                    "midi": 56,
                    "time": 494.22664349998956,
                    "velocity": 0.36220472440944884,
                    "duration": 0.3092782499999771
                },
                {
                    "name": "B3",
                    "midi": 59,
                    "time": 494.53592174998954,
                    "velocity": 0.3464566929133858,
                    "duration": 0.3092782499999771
                },
                {
                    "name": "D#4",
                    "midi": 63,
                    "time": 494.8451999999895,
                    "velocity": 0.44881889763779526,
                    "duration": 0.3092782499999771
                },
                {
                    "name": "G4",
                    "midi": 67,
                    "time": 495.1544782499895,
                    "velocity": 0.3464566929133858,
                    "duration": 0.3092782499999771
                },
                {
                    "name": "G3",
                    "midi": 55,
                    "time": 495.4637564999895,
                    "velocity": 0.3464566929133858,
                    "duration": 0.3092782499999771
                },
                {
                    "name": "A#3",
                    "midi": 58,
                    "time": 495.77303474998945,
                    "velocity": 0.31496062992125984,
                    "duration": 0.3092782499999771
                },
                {
                    "name": "D#4",
                    "midi": 63,
                    "time": 496.0823129999894,
                    "velocity": 0.4566929133858268,
                    "duration": 0.3092782499999771
                },
                {
                    "name": "G4",
                    "midi": 67,
                    "time": 496.3915912499894,
                    "velocity": 0.3464566929133858,
                    "duration": 0.3092782499999771
                },
                {
                    "name": "G3",
                    "midi": 55,
                    "time": 496.7008694999894,
                    "velocity": 0.36220472440944884,
                    "duration": 0.3092782499999771
                },
                {
                    "name": "A#3",
                    "midi": 58,
                    "time": 497.01014774998936,
                    "velocity": 0.33070866141732286,
                    "duration": 0.3092782499999771
                },
                {
                    "name": "D#4",
                    "midi": 63,
                    "time": 497.31942599998933,
                    "velocity": 0.4409448818897638,
                    "duration": 0.3092782499999771
                },
                {
                    "name": "G4",
                    "midi": 67,
                    "time": 497.6287042499893,
                    "velocity": 0.33858267716535434,
                    "duration": 0.3092782499999771
                },
                {
                    "name": "G3",
                    "midi": 55,
                    "time": 497.9379824999893,
                    "velocity": 0.33858267716535434,
                    "duration": 0.3092782499999771
                },
                {
                    "name": "A#3",
                    "midi": 58,
                    "time": 498.24726074998927,
                    "velocity": 0.30708661417322836,
                    "duration": 0.3092782499999771
                },
                {
                    "name": "D#4",
                    "midi": 63,
                    "time": 498.55653899998924,
                    "velocity": 0.4566929133858268,
                    "duration": 0.3092782499999771
                },
                {
                    "name": "G4",
                    "midi": 67,
                    "time": 498.8658172499892,
                    "velocity": 0.36220472440944884,
                    "duration": 0.3092782499999771
                },
                {
                    "name": "G3",
                    "midi": 55,
                    "time": 499.1750954999892,
                    "velocity": 0.3700787401574803,
                    "duration": 0.3092782499999771
                },
                {
                    "name": "A#3",
                    "midi": 58,
                    "time": 499.4843737499892,
                    "velocity": 0.33070866141732286,
                    "duration": 0.3092782499999771
                },
                {
                    "name": "D#4",
                    "midi": 63,
                    "time": 499.79365199998915,
                    "velocity": 0.5275590551181102,
                    "duration": 0.3092782499999771
                },
                {
                    "name": "G#4",
                    "midi": 68,
                    "time": 500.10293024998913,
                    "velocity": 0.4015748031496063,
                    "duration": 0.3092782499999771
                },
                {
                    "name": "G#3",
                    "midi": 56,
                    "time": 500.4122084999891,
                    "velocity": 0.4015748031496063,
                    "duration": 0.3092782499999771
                },
                {
                    "name": "B3",
                    "midi": 59,
                    "time": 500.7214867499891,
                    "velocity": 0.3700787401574803,
                    "duration": 0.3092782499999771
                },
                {
                    "name": "D#4",
                    "midi": 63,
                    "time": 501.03076499998906,
                    "velocity": 0.5433070866141733,
                    "duration": 0.3092782499999771
                },
                {
                    "name": "G#4",
                    "midi": 68,
                    "time": 501.34004324998904,
                    "velocity": 0.4015748031496063,
                    "duration": 0.3092782499999771
                },
                {
                    "name": "G#3",
                    "midi": 56,
                    "time": 501.649321499989,
                    "velocity": 0.4015748031496063,
                    "duration": 0.3092782499999771
                },
                {
                    "name": "B3",
                    "midi": 59,
                    "time": 501.958599749989,
                    "velocity": 0.3543307086614173,
                    "duration": 0.3092782499999771
                },
                {
                    "name": "D#4",
                    "midi": 63,
                    "time": 502.26787799998897,
                    "velocity": 0.47244094488188976,
                    "duration": 0.3092782499999771
                },
                {
                    "name": "G#4",
                    "midi": 68,
                    "time": 502.57715624998895,
                    "velocity": 0.3858267716535433,
                    "duration": 0.3092782499999771
                },
                {
                    "name": "G#3",
                    "midi": 56,
                    "time": 502.8864344999889,
                    "velocity": 0.3858267716535433,
                    "duration": 0.3092782499999771
                },
                {
                    "name": "B3",
                    "midi": 59,
                    "time": 503.1957127499889,
                    "velocity": 0.3464566929133858,
                    "duration": 0.3092782499999771
                },
                {
                    "name": "D#4",
                    "midi": 63,
                    "time": 503.5049909999889,
                    "velocity": 0.4645669291338583,
                    "duration": 0.3092782499999771
                },
                {
                    "name": "G#4",
                    "midi": 68,
                    "time": 503.81426924998885,
                    "velocity": 0.4015748031496063,
                    "duration": 0.3092782499999771
                },
                {
                    "name": "G#3",
                    "midi": 56,
                    "time": 504.12354749998883,
                    "velocity": 0.4015748031496063,
                    "duration": 0.3092782499999771
                },
                {
                    "name": "B3",
                    "midi": 59,
                    "time": 504.4328257499888,
                    "velocity": 0.36220472440944884,
                    "duration": 0.3092782499999771
                },
                {
                    "name": "E4",
                    "midi": 64,
                    "time": 504.7421039999888,
                    "velocity": 0.5118110236220472,
                    "duration": 0.3092782499999771
                },
                {
                    "name": "G#4",
                    "midi": 68,
                    "time": 505.05138224998876,
                    "velocity": 0.41732283464566927,
                    "duration": 0.3092782499999771
                },
                {
                    "name": "G#3",
                    "midi": 56,
                    "time": 505.36066049998874,
                    "velocity": 0.41732283464566927,
                    "duration": 0.3092782499999771
                },
                {
                    "name": "B3",
                    "midi": 59,
                    "time": 505.6699387499887,
                    "velocity": 0.4015748031496063,
                    "duration": 0.3092782499999771
                },
                {
                    "name": "E4",
                    "midi": 64,
                    "time": 505.9792169999887,
                    "velocity": 0.4881889763779528,
                    "duration": 0.3092782499999771
                },
                {
                    "name": "G#4",
                    "midi": 68,
                    "time": 506.28849524998867,
                    "velocity": 0.41732283464566927,
                    "duration": 0.3092782499999771
                },
                {
                    "name": "G#3",
                    "midi": 56,
                    "time": 506.59777349998865,
                    "velocity": 0.41732283464566927,
                    "duration": 0.3092782499999771
                },
                {
                    "name": "B3",
                    "midi": 59,
                    "time": 506.9070517499886,
                    "velocity": 0.3779527559055118,
                    "duration": 0.3092782499999771
                },
                {
                    "name": "E4",
                    "midi": 64,
                    "time": 507.2163299999886,
                    "velocity": 0.4881889763779528,
                    "duration": 0.3092782499999771
                },
                {
                    "name": "A4",
                    "midi": 69,
                    "time": 507.5256082499886,
                    "velocity": 0.41732283464566927,
                    "duration": 0.3092782499999771
                },
                {
                    "name": "A3",
                    "midi": 57,
                    "time": 507.83488649998856,
                    "velocity": 0.41732283464566927,
                    "duration": 0.3092782499999771
                },
                {
                    "name": "C4",
                    "midi": 60,
                    "time": 508.14416474998853,
                    "velocity": 0.3779527559055118,
                    "duration": 0.3092782499999771
                },
                {
                    "name": "E4",
                    "midi": 64,
                    "time": 508.4534429999885,
                    "velocity": 0.4881889763779528,
                    "duration": 0.3092782499999771
                },
                {
                    "name": "A4",
                    "midi": 69,
                    "time": 508.7627212499885,
                    "velocity": 0.41732283464566927,
                    "duration": 0.3092782499999771
                },
                {
                    "name": "A3",
                    "midi": 57,
                    "time": 509.07199949998846,
                    "velocity": 0.41732283464566927,
                    "duration": 0.3092782499999771
                },
                {
                    "name": "C4",
                    "midi": 60,
                    "time": 509.38127774998844,
                    "velocity": 0.3700787401574803,
                    "duration": 0.3092782499999771
                },
                {
                    "name": "E4",
                    "midi": 64,
                    "time": 509.6905559999884,
                    "velocity": 0.5118110236220472,
                    "duration": 0.3092782499999771
                },
                {
                    "name": "G#4",
                    "midi": 68,
                    "time": 509.9998342499884,
                    "velocity": 0.41732283464566927,
                    "duration": 0.3092782499999771
                },
                {
                    "name": "G#3",
                    "midi": 56,
                    "time": 510.3091124999884,
                    "velocity": 0.41732283464566927,
                    "duration": 0.3092782499999771
                },
                {
                    "name": "B3",
                    "midi": 59,
                    "time": 510.61839074998835,
                    "velocity": 0.3858267716535433,
                    "duration": 0.3092782499999771
                },
                {
                    "name": "E4",
                    "midi": 64,
                    "time": 510.9276689999883,
                    "velocity": 0.4881889763779528,
                    "duration": 0.3092782499999771
                },
                {
                    "name": "G#4",
                    "midi": 68,
                    "time": 511.2369472499883,
                    "velocity": 0.41732283464566927,
                    "duration": 0.3092782499999771
                },
                {
                    "name": "G#3",
                    "midi": 56,
                    "time": 511.5462254999883,
                    "velocity": 0.41732283464566927,
                    "duration": 0.3092782499999771
                },
                {
                    "name": "B3",
                    "midi": 59,
                    "time": 511.85550374998826,
                    "velocity": 0.3779527559055118,
                    "duration": 0.3092782499999771
                },
                {
                    "name": "E4",
                    "midi": 64,
                    "time": 512.1647819999882,
                    "velocity": 0.4881889763779528,
                    "duration": 0.30927825000003395
                },
                {
                    "name": "A4",
                    "midi": 69,
                    "time": 512.4740602499883,
                    "velocity": 0.41732283464566927,
                    "duration": 0.30927825000003395
                },
                {
                    "name": "A3",
                    "midi": 57,
                    "time": 512.7833384999883,
                    "velocity": 0.41732283464566927,
                    "duration": 0.30927825000003395
                },
                {
                    "name": "C4",
                    "midi": 60,
                    "time": 513.0926167499883,
                    "velocity": 0.3779527559055118,
                    "duration": 0.30927825000003395
                },
                {
                    "name": "E4",
                    "midi": 64,
                    "time": 513.4018949999884,
                    "velocity": 0.4881889763779528,
                    "duration": 0.30927825000003395
                },
                {
                    "name": "A4",
                    "midi": 69,
                    "time": 513.7111732499884,
                    "velocity": 0.41732283464566927,
                    "duration": 0.30927825000003395
                },
                {
                    "name": "A3",
                    "midi": 57,
                    "time": 514.0204514999884,
                    "velocity": 0.41732283464566927,
                    "duration": 0.30927825000003395
                },
                {
                    "name": "C4",
                    "midi": 60,
                    "time": 514.3297297499885,
                    "velocity": 0.3700787401574803,
                    "duration": 0.30927825000003395
                },
                {
                    "name": "E4",
                    "midi": 64,
                    "time": 514.6390079999885,
                    "velocity": 0.5118110236220472,
                    "duration": 0.30927825000003395
                },
                {
                    "name": "G#4",
                    "midi": 68,
                    "time": 514.9482862499885,
                    "velocity": 0.36220472440944884,
                    "duration": 0.30927825000003395
                },
                {
                    "name": "G#3",
                    "midi": 56,
                    "time": 515.2575644999886,
                    "velocity": 0.36220472440944884,
                    "duration": 0.30927825000003395
                },
                {
                    "name": "B3",
                    "midi": 59,
                    "time": 515.5668427499886,
                    "velocity": 0.3228346456692913,
                    "duration": 0.30927825000003395
                },
                {
                    "name": "E4",
                    "midi": 64,
                    "time": 515.8761209999886,
                    "velocity": 0.4330708661417323,
                    "duration": 0.30927825000003395
                },
                {
                    "name": "G#4",
                    "midi": 68,
                    "time": 516.1853992499887,
                    "velocity": 0.31496062992125984,
                    "duration": 0.30927825000003395
                },
                {
                    "name": "G#3",
                    "midi": 56,
                    "time": 516.4946774999887,
                    "velocity": 0.31496062992125984,
                    "duration": 0.30927825000003395
                },
                {
                    "name": "B3",
                    "midi": 59,
                    "time": 516.8039557499887,
                    "velocity": 0.28346456692913385,
                    "duration": 0.30927825000003395
                },
                {
                    "name": "E4",
                    "midi": 64,
                    "time": 517.1132339999888,
                    "velocity": 0.31496062992125984,
                    "duration": 0.30927825000003395
                },
                {
                    "name": "G#4",
                    "midi": 68,
                    "time": 517.4225122499888,
                    "velocity": 0.36220472440944884,
                    "duration": 0.30927825000003395
                },
                {
                    "name": "G#3",
                    "midi": 56,
                    "time": 517.7317904999888,
                    "velocity": 0.29133858267716534,
                    "duration": 0.30927825000003395
                },
                {
                    "name": "B3",
                    "midi": 59,
                    "time": 518.0410687499889,
                    "velocity": 0.29133858267716534,
                    "duration": 0.30927825000003395
                },
                {
                    "name": "D#4",
                    "midi": 63,
                    "time": 518.3503469999889,
                    "velocity": 0.29133858267716534,
                    "duration": 0.30927825000003395
                },
                {
                    "name": "G#4",
                    "midi": 68,
                    "time": 518.659625249989,
                    "velocity": 0.33858267716535434,
                    "duration": 0.30927825000003395
                },
                {
                    "name": "G#3",
                    "midi": 56,
                    "time": 518.968903499989,
                    "velocity": 0.29133858267716534,
                    "duration": 0.30927825000003395
                },
                {
                    "name": "B3",
                    "midi": 59,
                    "time": 519.278181749989,
                    "velocity": 0.2677165354330709,
                    "duration": 0.30927825000003395
                },
                {
                    "name": "F4",
                    "midi": 65,
                    "time": 519.587459999989,
                    "velocity": 0.29133858267716534,
                    "duration": 0.30927825000003395
                },
                {
                    "name": "G#4",
                    "midi": 68,
                    "time": 519.8967382499891,
                    "velocity": 0.2283464566929134,
                    "duration": 0.30927825000003395
                },
                {
                    "name": "G#3",
                    "midi": 56,
                    "time": 520.2060164999891,
                    "velocity": 0.2283464566929134,
                    "duration": 0.30927825000003395
                },
                {
                    "name": "A#3",
                    "midi": 58,
                    "time": 520.5152947499892,
                    "velocity": 0.2047244094488189,
                    "duration": 0.30927825000003395
                },
                {
                    "name": "F4",
                    "midi": 65,
                    "time": 520.8245729999892,
                    "velocity": 0.2992125984251969,
                    "duration": 0.30927825000003395
                },
                {
                    "name": "G#4",
                    "midi": 68,
                    "time": 521.1338512499892,
                    "velocity": 0.23622047244094488,
                    "duration": 0.30927825000003395
                },
                {
                    "name": "G#3",
                    "midi": 56,
                    "time": 521.4431294999893,
                    "velocity": 0.2440944881889764,
                    "duration": 0.30927825000003395
                },
                {
                    "name": "A#3",
                    "midi": 58,
                    "time": 521.7524077499893,
                    "velocity": 0.2204724409448819,
                    "duration": 0.30927825000003395
                },
                {
                    "name": "F4",
                    "midi": 65,
                    "time": 522.0616859999893,
                    "velocity": 0.3228346456692913,
                    "duration": 0.30927825000003395
                },
                {
                    "name": "G#4",
                    "midi": 68,
                    "time": 522.3709642499894,
                    "velocity": 0.2440944881889764,
                    "duration": 0.30927825000003395
                },
                {
                    "name": "G#3",
                    "midi": 56,
                    "time": 522.6802424999894,
                    "velocity": 0.2440944881889764,
                    "duration": 0.30927825000003395
                },
                {
                    "name": "A#3",
                    "midi": 58,
                    "time": 522.9895207499894,
                    "velocity": 0.1968503937007874,
                    "duration": 0.30927825000003395
                },
                {
                    "name": "F4",
                    "midi": 65,
                    "time": 523.2987989999895,
                    "velocity": 0.31496062992125984,
                    "duration": 0.30927825000003395
                },
                {
                    "name": "G#4",
                    "midi": 68,
                    "time": 523.6080772499895,
                    "velocity": 0.2283464566929134,
                    "duration": 0.30927825000003395
                },
                {
                    "name": "G#3",
                    "midi": 56,
                    "time": 523.9173554999895,
                    "velocity": 0.25196850393700787,
                    "duration": 0.30927825000003395
                },
                {
                    "name": "A#3",
                    "midi": 58,
                    "time": 524.2266337499896,
                    "velocity": 0.23622047244094488,
                    "duration": 0.30927825000003395
                },
                {
                    "name": "D#4",
                    "midi": 63,
                    "time": 524.5359119999896,
                    "velocity": 0.3464566929133858,
                    "duration": 0.30927825000003395
                },
                {
                    "name": "G4",
                    "midi": 67,
                    "time": 524.8451902499896,
                    "velocity": 0.25196850393700787,
                    "duration": 0.30927825000003395
                },
                {
                    "name": "G3",
                    "midi": 55,
                    "time": 525.1544684999897,
                    "velocity": 0.25196850393700787,
                    "duration": 0.30927825000003395
                },
                {
                    "name": "A#3",
                    "midi": 58,
                    "time": 525.4637467499897,
                    "velocity": 0.2204724409448819,
                    "duration": 0.30927825000003395
                },
                {
                    "name": "D#4",
                    "midi": 63,
                    "time": 525.7730249999897,
                    "velocity": 0.3464566929133858,
                    "duration": 0.30927825000003395
                },
                {
                    "name": "G4",
                    "midi": 67,
                    "time": 526.0823032499898,
                    "velocity": 0.2677165354330709,
                    "duration": 0.30927825000003395
                },
                {
                    "name": "G3",
                    "midi": 55,
                    "time": 526.3915814999898,
                    "velocity": 0.2677165354330709,
                    "duration": 0.30927825000003395
                },
                {
                    "name": "A#3",
                    "midi": 58,
                    "time": 526.7008597499898,
                    "velocity": 0.25984251968503935,
                    "duration": 0.30927825000003395
                },
                {
                    "name": "D#4",
                    "midi": 63,
                    "time": 527.0101379999899,
                    "velocity": 0.3228346456692913,
                    "duration": 0.30927825000003395
                },
                {
                    "name": "G4",
                    "midi": 67,
                    "time": 527.3194162499899,
                    "velocity": 0.2440944881889764,
                    "duration": 0.30927825000003395
                },
                {
                    "name": "G3",
                    "midi": 55,
                    "time": 527.6286944999899,
                    "velocity": 0.2440944881889764,
                    "duration": 0.30927825000003395
                },
                {
                    "name": "A#3",
                    "midi": 58,
                    "time": 527.93797274999,
                    "velocity": 0.1968503937007874,
                    "duration": 0.30927825000003395
                },
                {
                    "name": "D#4",
                    "midi": 63,
                    "time": 528.24725099999,
                    "velocity": 0.31496062992125984,
                    "duration": 0.30927825000003395
                },
                {
                    "name": "G4",
                    "midi": 67,
                    "time": 528.55652924999,
                    "velocity": 0.2283464566929134,
                    "duration": 0.30927825000003395
                },
                {
                    "name": "G3",
                    "midi": 55,
                    "time": 528.8658074999901,
                    "velocity": 0.2440944881889764,
                    "duration": 0.30927825000003395
                },
                {
                    "name": "A#3",
                    "midi": 58,
                    "time": 529.1750857499901,
                    "velocity": 0.2047244094488189,
                    "duration": 0.30927825000003395
                },
                {
                    "name": "D#4",
                    "midi": 63,
                    "time": 529.4843639999901,
                    "velocity": 0.29133858267716534,
                    "duration": 0.30927825000003395
                },
                {
                    "name": "G#4",
                    "midi": 68,
                    "time": 529.7936422499902,
                    "velocity": 0.2125984251968504,
                    "duration": 0.30927825000003395
                },
                {
                    "name": "G#3",
                    "midi": 56,
                    "time": 530.1029204999902,
                    "velocity": 0.2125984251968504,
                    "duration": 0.30927825000003395
                },
                {
                    "name": "C4",
                    "midi": 60,
                    "time": 530.4121987499902,
                    "velocity": 0.1889763779527559,
                    "duration": 0.30927825000003395
                },
                {
                    "name": "D#4",
                    "midi": 63,
                    "time": 530.7214769999903,
                    "velocity": 0.29133858267716534,
                    "duration": 0.30927825000003395
                },
                {
                    "name": "G#4",
                    "midi": 68,
                    "time": 531.0307552499903,
                    "velocity": 0.2204724409448819,
                    "duration": 0.30927825000003395
                },
                {
                    "name": "G#3",
                    "midi": 56,
                    "time": 531.3400334999903,
                    "velocity": 0.2204724409448819,
                    "duration": 0.30927825000003395
                },
                {
                    "name": "C4",
                    "midi": 60,
                    "time": 531.6493117499904,
                    "velocity": 0.1889763779527559,
                    "duration": 0.30927825000003395
                },
                {
                    "name": "F4",
                    "midi": 65,
                    "time": 531.9585899999904,
                    "velocity": 0.29133858267716534,
                    "duration": 0.30927825000003395
                },
                {
                    "name": "G#4",
                    "midi": 68,
                    "time": 532.2678682499904,
                    "velocity": 0.2125984251968504,
                    "duration": 0.30927825000003395
                },
                {
                    "name": "G#3",
                    "midi": 56,
                    "time": 532.5771464999905,
                    "velocity": 0.2125984251968504,
                    "duration": 0.30927825000003395
                },
                {
                    "name": "C4",
                    "midi": 60,
                    "time": 532.8864247499905,
                    "velocity": 0.1968503937007874,
                    "duration": 0.30927825000003395
                },
                {
                    "name": "F4",
                    "midi": 65,
                    "time": 533.1957029999905,
                    "velocity": 0.29133858267716534,
                    "duration": 0.30927825000003395
                },
                {
                    "name": "G#4",
                    "midi": 68,
                    "time": 533.5049812499906,
                    "velocity": 0.2204724409448819,
                    "duration": 0.30927825000003395
                },
                {
                    "name": "G#3",
                    "midi": 56,
                    "time": 533.8142594999906,
                    "velocity": 0.2204724409448819,
                    "duration": 0.30927825000003395
                },
                {
                    "name": "C4",
                    "midi": 60,
                    "time": 534.1235377499906,
                    "velocity": 0.1889763779527559,
                    "duration": 0.30927825000003395
                },
                {
                    "name": "F4",
                    "midi": 65,
                    "time": 534.4328159999907,
                    "velocity": 0.29133858267716534,
                    "duration": 0.30927825000003395
                },
                {
                    "name": "G#4",
                    "midi": 68,
                    "time": 534.7420942499907,
                    "velocity": 0.2125984251968504,
                    "duration": 0.30927825000003395
                },
                {
                    "name": "G#3",
                    "midi": 56,
                    "time": 535.0513724999907,
                    "velocity": 0.2125984251968504,
                    "duration": 0.30927825000003395
                },
                {
                    "name": "D4",
                    "midi": 62,
                    "time": 535.3606507499908,
                    "velocity": 0.1889763779527559,
                    "duration": 0.30927825000003395
                },
                {
                    "name": "F4",
                    "midi": 65,
                    "time": 535.6699289999908,
                    "velocity": 0.29133858267716534,
                    "duration": 0.30927825000003395
                },
                {
                    "name": "G#4",
                    "midi": 68,
                    "time": 535.9792072499908,
                    "velocity": 0.2204724409448819,
                    "duration": 0.30927825000003395
                },
                {
                    "name": "G#3",
                    "midi": 56,
                    "time": 536.2884854999909,
                    "velocity": 0.2204724409448819,
                    "duration": 0.30927825000003395
                },
                {
                    "name": "D4",
                    "midi": 62,
                    "time": 536.5977637499909,
                    "velocity": 0.1968503937007874,
                    "duration": 0.30927825000003395
                },
                {
                    "name": "F4",
                    "midi": 65,
                    "time": 536.907041999991,
                    "velocity": 0.29133858267716534,
                    "duration": 0.30927825000003395
                },
                {
                    "name": "G#4",
                    "midi": 68,
                    "time": 537.216320249991,
                    "velocity": 0.2125984251968504,
                    "duration": 0.30927825000003395
                },
                {
                    "name": "G#3",
                    "midi": 56,
                    "time": 537.525598499991,
                    "velocity": 0.2125984251968504,
                    "duration": 0.30927825000003395
                },
                {
                    "name": "D4",
                    "midi": 62,
                    "time": 537.834876749991,
                    "velocity": 0.1889763779527559,
                    "duration": 0.30927825000003395
                },
                {
                    "name": "F4",
                    "midi": 65,
                    "time": 538.1441549999911,
                    "velocity": 0.29133858267716534,
                    "duration": 0.30927825000003395
                },
                {
                    "name": "G#4",
                    "midi": 68,
                    "time": 538.4534332499911,
                    "velocity": 0.2283464566929134,
                    "duration": 0.30927825000003395
                },
                {
                    "name": "G#3",
                    "midi": 56,
                    "time": 538.7627114999912,
                    "velocity": 0.2283464566929134,
                    "duration": 0.30927825000003395
                },
                {
                    "name": "D4",
                    "midi": 62,
                    "time": 539.0719897499912,
                    "velocity": 0.2047244094488189,
                    "duration": 0.30927825000003395
                },
                {
                    "name": "D#4",
                    "midi": 63,
                    "time": 539.3812679999912,
                    "velocity": 0.31496062992125984,
                    "duration": 0.30927825000003395
                },
                {
                    "name": "G4",
                    "midi": 67,
                    "time": 539.6905462499913,
                    "velocity": 0.2283464566929134,
                    "duration": 0.30927825000003395
                },
                {
                    "name": "G3",
                    "midi": 55,
                    "time": 539.9998244999913,
                    "velocity": 0.2283464566929134,
                    "duration": 0.30927825000003395
                },
                {
                    "name": "A#3",
                    "midi": 58,
                    "time": 540.3091027499913,
                    "velocity": 0.18110236220472442,
                    "duration": 0.30927825000003395
                },
                {
                    "name": "D#4",
                    "midi": 63,
                    "time": 540.6183809999914,
                    "velocity": 0.2992125984251969,
                    "duration": 0.30927825000003395
                },
                {
                    "name": "G4",
                    "midi": 67,
                    "time": 540.9276592499914,
                    "velocity": 0.23622047244094488,
                    "duration": 0.30927825000003395
                },
                {
                    "name": "G3",
                    "midi": 55,
                    "time": 541.2369374999914,
                    "velocity": 0.23622047244094488,
                    "duration": 0.30927825000003395
                },
                {
                    "name": "A#3",
                    "midi": 58,
                    "time": 541.5462157499915,
                    "velocity": 0.2204724409448819,
                    "duration": 0.30927825000003395
                },
                {
                    "name": "D#4",
                    "midi": 63,
                    "time": 541.8554939999915,
                    "velocity": 0.23622047244094488,
                    "duration": 0.30927825000003395
                },
                {
                    "name": "G4",
                    "midi": 67,
                    "time": 542.1647722499915,
                    "velocity": 0.2125984251968504,
                    "duration": 0.30927825000003395
                },
                {
                    "name": "G3",
                    "midi": 55,
                    "time": 542.4740504999916,
                    "velocity": 0.2125984251968504,
                    "duration": 0.30927825000003395
                },
                {
                    "name": "A#3",
                    "midi": 58,
                    "time": 542.7833287499916,
                    "velocity": 0.2125984251968504,
                    "duration": 0.30927825000003395
                },
                {
                    "name": "D#4",
                    "midi": 63,
                    "time": 543.0926069999916,
                    "velocity": 0.3543307086614173,
                    "duration": 0.30927825000003395
                },
                {
                    "name": "G4",
                    "midi": 67,
                    "time": 543.4018852499917,
                    "velocity": 0.25196850393700787,
                    "duration": 0.30927825000003395
                },
                {
                    "name": "G3",
                    "midi": 55,
                    "time": 543.7111634999917,
                    "velocity": 0.2755905511811024,
                    "duration": 0.30927825000003395
                },
                {
                    "name": "A#3",
                    "midi": 58,
                    "time": 544.0204417499917,
                    "velocity": 0.30708661417322836,
                    "duration": 0.30927825000003395
                },
                {
                    "name": "D4",
                    "midi": 62,
                    "time": 544.3297199999918,
                    "velocity": 0.3858267716535433,
                    "duration": 0.30927825000003395
                },
                {
                    "name": "G#4",
                    "midi": 68,
                    "time": 544.6389982499918,
                    "velocity": 0.28346456692913385,
                    "duration": 0.30927825000003395
                },
                {
                    "name": "G#3",
                    "midi": 56,
                    "time": 544.9482764999918,
                    "velocity": 0.28346456692913385,
                    "duration": 0.30927825000003395
                },
                {
                    "name": "A#3",
                    "midi": 58,
                    "time": 545.2575547499919,
                    "velocity": 0.23622047244094488,
                    "duration": 0.30927825000003395
                },
                {
                    "name": "D4",
                    "midi": 62,
                    "time": 545.5668329999919,
                    "velocity": 0.36220472440944884,
                    "duration": 0.30927825000003395
                },
                {
                    "name": "G#4",
                    "midi": 68,
                    "time": 545.8761112499919,
                    "velocity": 0.25984251968503935,
                    "duration": 0.30927825000003395
                },
                {
                    "name": "G#3",
                    "midi": 56,
                    "time": 546.185389499992,
                    "velocity": 0.2440944881889764,
                    "duration": 0.30927825000003395
                },
                {
                    "name": "A#3",
                    "midi": 58,
                    "time": 546.494667749992,
                    "velocity": 0.2047244094488189,
                    "duration": 0.30927825000003395
                },
                {
                    "name": "C#4",
                    "midi": 61,
                    "time": 546.803945999992,
                    "velocity": 0.29133858267716534,
                    "duration": 0.30927825000003395
                },
                {
                    "name": "D#4",
                    "midi": 63,
                    "time": 547.1132242499921,
                    "velocity": 0.2125984251968504,
                    "duration": 0.30927825000003395
                },
                {
                    "name": "D#3",
                    "midi": 51,
                    "time": 547.4225024999921,
                    "velocity": 0.2125984251968504,
                    "duration": 0.30927825000003395
                },
                {
                    "name": "A#3",
                    "midi": 58,
                    "time": 547.7317807499921,
                    "velocity": 0.1889763779527559,
                    "duration": 0.30927825000003395
                },
                {
                    "name": "C#4",
                    "midi": 61,
                    "time": 548.0410589999922,
                    "velocity": 0.29133858267716534,
                    "duration": 0.30927825000003395
                },
                {
                    "name": "D#4",
                    "midi": 63,
                    "time": 548.3503372499922,
                    "velocity": 0.2204724409448819,
                    "duration": 0.30927825000003395
                },
                {
                    "name": "D#3",
                    "midi": 51,
                    "time": 548.6596154999922,
                    "velocity": 0.2204724409448819,
                    "duration": 0.30927825000003395
                },
                {
                    "name": "A#3",
                    "midi": 58,
                    "time": 548.9688937499923,
                    "velocity": 0.1889763779527559,
                    "duration": 0.30927825000003395
                },
                {
                    "name": "C4",
                    "midi": 60,
                    "time": 549.2781719999923,
                    "velocity": 0.29133858267716534,
                    "duration": 0.30927825000003395
                },
                {
                    "name": "D#4",
                    "midi": 63,
                    "time": 549.5874502499923,
                    "velocity": 0.2125984251968504,
                    "duration": 0.30927825000003395
                },
                {
                    "name": "D#3",
                    "midi": 51,
                    "time": 549.8967284999924,
                    "velocity": 0.2125984251968504,
                    "duration": 0.30927825000003395
                },
                {
                    "name": "G#3",
                    "midi": 56,
                    "time": 550.2060067499924,
                    "velocity": 0.1889763779527559,
                    "duration": 0.30927825000003395
                },
                {
                    "name": "C4",
                    "midi": 60,
                    "time": 550.5152849999924,
                    "velocity": 0.29133858267716534,
                    "duration": 0.30927825000003395
                },
                {
                    "name": "D#4",
                    "midi": 63,
                    "time": 550.8245632499925,
                    "velocity": 0.2204724409448819,
                    "duration": 0.30927825000003395
                },
                {
                    "name": "D#3",
                    "midi": 51,
                    "time": 551.1338414999925,
                    "velocity": 0.2204724409448819,
                    "duration": 0.30927825000003395
                },
                {
                    "name": "G#3",
                    "midi": 56,
                    "time": 551.4431197499925,
                    "velocity": 0.2204724409448819,
                    "duration": 0.30927825000003395
                },
                {
                    "name": "C4",
                    "midi": 60,
                    "time": 551.7523979999926,
                    "velocity": 0.29133858267716534,
                    "duration": 0.30927825000003395
                },
                {
                    "name": "D#4",
                    "midi": 63,
                    "time": 552.0616762499926,
                    "velocity": 0.2204724409448819,
                    "duration": 0.30927825000003395
                },
                {
                    "name": "D#3",
                    "midi": 51,
                    "time": 552.3709544999926,
                    "velocity": 0.2204724409448819,
                    "duration": 0.30927825000003395
                },
                {
                    "name": "G#3",
                    "midi": 56,
                    "time": 552.6802327499927,
                    "velocity": 0.1968503937007874,
                    "duration": 0.30927825000003395
                },
                {
                    "name": "C4",
                    "midi": 60,
                    "time": 552.9895109999927,
                    "velocity": 0.29133858267716534,
                    "duration": 0.30927825000003395
                },
                {
                    "name": "D#4",
                    "midi": 63,
                    "time": 553.2987892499928,
                    "velocity": 0.2283464566929134,
                    "duration": 0.30927825000003395
                },
                {
                    "name": "A#3",
                    "midi": 58,
                    "time": 553.6080674999928,
                    "velocity": 0.28346456692913385,
                    "duration": 0.30927825000003395
                },
                {
                    "name": "D#4",
                    "midi": 63,
                    "time": 553.9173457499928,
                    "velocity": 0.30708661417322836,
                    "duration": 0.30927825000003395
                },
                {
                    "name": "C4",
                    "midi": 60,
                    "time": 554.2266239999929,
                    "velocity": 0.3700787401574803,
                    "duration": 0.30927825000003395
                },
                {
                    "name": "D#4",
                    "midi": 63,
                    "time": 554.5359022499929,
                    "velocity": 0.28346456692913385,
                    "duration": 0.30927825000003395
                },
                {
                    "name": "D#3",
                    "midi": 51,
                    "time": 554.8451804999929,
                    "velocity": 0.28346456692913385,
                    "duration": 0.30927825000003395
                },
                {
                    "name": "G#3",
                    "midi": 56,
                    "time": 555.154458749993,
                    "velocity": 0.2440944881889764,
                    "duration": 0.30927825000003395
                },
                {
                    "name": "C4",
                    "midi": 60,
                    "time": 555.463736999993,
                    "velocity": 0.31496062992125984,
                    "duration": 0.30927825000003395
                },
                {
                    "name": "D#4",
                    "midi": 63,
                    "time": 555.773015249993,
                    "velocity": 0.28346456692913385,
                    "duration": 0.30927825000003395
                },
                {
                    "name": "D#3",
                    "midi": 51,
                    "time": 556.082293499993,
                    "velocity": 0.28346456692913385,
                    "duration": 0.30927825000003395
                },
                {
                    "name": "G#3",
                    "midi": 56,
                    "time": 556.3915717499931,
                    "velocity": 0.25196850393700787,
                    "duration": 0.30927825000003395
                },
                {
                    "name": "C4",
                    "midi": 60,
                    "time": 556.7008499999931,
                    "velocity": 0.3543307086614173,
                    "duration": 0.30927825000003395
                },
                {
                    "name": "D#4",
                    "midi": 63,
                    "time": 557.0101282499932,
                    "velocity": 0.2755905511811024,
                    "duration": 0.30927825000003395
                },
                {
                    "name": "C4",
                    "midi": 60,
                    "time": 557.3194064999932,
                    "velocity": 0.2755905511811024,
                    "duration": 0.30927825000003395
                },
                {
                    "name": "G#3",
                    "midi": 56,
                    "time": 557.3194064999932,
                    "velocity": 0.2755905511811024,
                    "duration": 0.30927825000003395
                },
                {
                    "name": "D#4",
                    "midi": 63,
                    "time": 557.6286847499932,
                    "velocity": 0.2440944881889764,
                    "duration": 0.30927825000003395
                },
                {
                    "name": "G3",
                    "midi": 55,
                    "time": 557.9379629999933,
                    "velocity": 0.3464566929133858,
                    "duration": 0.30927825000003395
                },
                {
                    "name": "C#4",
                    "midi": 61,
                    "time": 557.9379629999933,
                    "velocity": 0.3464566929133858,
                    "duration": 0.30927825000003395
                },
                {
                    "name": "D#4",
                    "midi": 63,
                    "time": 558.2472412499933,
                    "velocity": 0.2283464566929134,
                    "duration": 0.30927825000003395
                },
                {
                    "name": "G#3",
                    "midi": 56,
                    "time": 558.5565194999933,
                    "velocity": 0.2440944881889764,
                    "duration": 0.30927825000003395
                },
                {
                    "name": "C4",
                    "midi": 60,
                    "time": 558.5565194999933,
                    "velocity": 0.2440944881889764,
                    "duration": 0.30927825000003395
                },
                {
                    "name": "D#4",
                    "midi": 63,
                    "time": 558.8657977499934,
                    "velocity": 0.2125984251968504,
                    "duration": 0.30927825000003395
                },
                {
                    "name": "G3",
                    "midi": 55,
                    "time": 559.1750759999934,
                    "velocity": 0.29133858267716534,
                    "duration": 0.30927824999992026
                },
                {
                    "name": "A#3",
                    "midi": 58,
                    "time": 559.1750759999934,
                    "velocity": 0.29133858267716534,
                    "duration": 0.30927824999992026
                },
                {
                    "name": "D#4",
                    "midi": 63,
                    "time": 559.4714676562434,
                    "velocity": 0.2283464566929134,
                    "duration": 0.30927824999992026
                },
                {
                    "name": "D#3",
                    "midi": 51,
                    "time": 559.7936324999932,
                    "velocity": 0.2283464566929134,
                    "duration": 0.30927825000003395
                },
                {
                    "name": "G3",
                    "midi": 55,
                    "time": 560.1029107499933,
                    "velocity": 0.1968503937007874,
                    "duration": 0.30927825000003395
                },
                {
                    "name": "A#3",
                    "midi": 58,
                    "time": 560.4121889999933,
                    "velocity": 0.29133858267716534,
                    "duration": 0.30927825000003395
                },
                {
                    "name": "D#4",
                    "midi": 63,
                    "time": 560.7214672499933,
                    "velocity": 0.2283464566929134,
                    "duration": 0.30927825000003395
                },
                {
                    "name": "D#3",
                    "midi": 51,
                    "time": 561.0307454999934,
                    "velocity": 0.2283464566929134,
                    "duration": 0.30927825000003395
                },
                {
                    "name": "G3",
                    "midi": 55,
                    "time": 561.3400237499934,
                    "velocity": 0.1968503937007874,
                    "duration": 0.30927825000003395
                },
                {
                    "name": "A#3",
                    "midi": 58,
                    "time": 561.6493019999934,
                    "velocity": 0.29133858267716534,
                    "duration": 0.30927825000003395
                },
                {
                    "name": "D#4",
                    "midi": 63,
                    "time": 561.9585802499935,
                    "velocity": 0.2283464566929134,
                    "duration": 0.30927825000003395
                },
                {
                    "name": "D#3",
                    "midi": 51,
                    "time": 562.2678584999935,
                    "velocity": 0.2283464566929134,
                    "duration": 0.30927825000003395
                },
                {
                    "name": "G3",
                    "midi": 55,
                    "time": 562.5771367499935,
                    "velocity": 0.1889763779527559,
                    "duration": 0.30927825000003395
                },
                {
                    "name": "A#3",
                    "midi": 58,
                    "time": 562.8864149999936,
                    "velocity": 0.33070866141732286,
                    "duration": 0.30927825000003395
                },
                {
                    "name": "D#4",
                    "midi": 63,
                    "time": 563.1956932499936,
                    "velocity": 0.2440944881889764,
                    "duration": 0.30927825000003395
                },
                {
                    "name": "C#4",
                    "midi": 61,
                    "time": 563.5049714999936,
                    "velocity": 0.2440944881889764,
                    "duration": 0.30927825000003395
                },
                {
                    "name": "D#4",
                    "midi": 63,
                    "time": 563.8142497499937,
                    "velocity": 0.2204724409448819,
                    "duration": 0.30927825000003395
                },
                {
                    "name": "C4",
                    "midi": 60,
                    "time": 564.1235279999937,
                    "velocity": 0.30708661417322836,
                    "duration": 0.30927825000003395
                },
                {
                    "name": "D#4",
                    "midi": 63,
                    "time": 564.4508474812437,
                    "velocity": 0.2283464566929134,
                    "duration": 0.30927825000003395
                },
                {
                    "name": "D#3",
                    "midi": 51,
                    "time": 564.7730123249937,
                    "velocity": 0.2283464566929134,
                    "duration": 0.30927825000003395
                },
                {
                    "name": "G#3",
                    "midi": 56,
                    "time": 565.0822905749937,
                    "velocity": 0.1968503937007874,
                    "duration": 0.30927825000003395
                },
                {
                    "name": "C4",
                    "midi": 60,
                    "time": 565.3915688249938,
                    "velocity": 0.33070866141732286,
                    "duration": 0.30927825000003395
                },
                {
                    "name": "D#4",
                    "midi": 63,
                    "time": 565.7008470749938,
                    "velocity": 0.2677165354330709,
                    "duration": 0.30927825000003395
                },
                {
                    "name": "D#3",
                    "midi": 51,
                    "time": 566.0101253249939,
                    "velocity": 0.2677165354330709,
                    "duration": 0.30927825000003395
                },
                {
                    "name": "G#3",
                    "midi": 56,
                    "time": 566.3194035749939,
                    "velocity": 0.2283464566929134,
                    "duration": 0.30927825000003395
                },
                {
                    "name": "C4",
                    "midi": 60,
                    "time": 566.5977539999939,
                    "velocity": 0.3228346456692913,
                    "duration": 0.30927825000003395
                },
                {
                    "name": "D#4",
                    "midi": 63,
                    "time": 566.937960074994,
                    "velocity": 0.25984251968503935,
                    "duration": 0.30927825000003395
                },
                {
                    "name": "D#3",
                    "midi": 51,
                    "time": 567.2163104999939,
                    "velocity": 0.25984251968503935,
                    "duration": 0.30927825000003395
                },
                {
                    "name": "G#3",
                    "midi": 56,
                    "time": 567.525588749994,
                    "velocity": 0.2283464566929134,
                    "duration": 0.30927825000003395
                },
                {
                    "name": "C4",
                    "midi": 60,
                    "time": 567.834866999994,
                    "velocity": 0.29133858267716534,
                    "duration": 0.30927825000003395
                },
                {
                    "name": "D#4",
                    "midi": 63,
                    "time": 568.1750730749941,
                    "velocity": 0.2283464566929134,
                    "duration": 0.30927825000003395
                },
                {
                    "name": "C#4",
                    "midi": 61,
                    "time": 568.4534234999941,
                    "velocity": 0.2283464566929134,
                    "duration": 0.30927825000003395
                },
                {
                    "name": "G3",
                    "midi": 55,
                    "time": 568.4534234999941,
                    "velocity": 0.2283464566929134,
                    "duration": 0.30927825000003395
                },
                {
                    "name": "D#4",
                    "midi": 63,
                    "time": 568.7936295749942,
                    "velocity": 0.2204724409448819,
                    "duration": 0.2783504249999851
                },
                {
                    "name": "C4",
                    "midi": 60,
                    "time": 569.0719799999941,
                    "velocity": 0.29133858267716534,
                    "duration": 0.30927824999992026
                },
                {
                    "name": "G#3",
                    "midi": 56,
                    "time": 569.0719799999941,
                    "velocity": 0.29133858267716534,
                    "duration": 0.30927824999992026
                },
                {
                    "name": "D#4",
                    "midi": 63,
                    "time": 569.3683716562441,
                    "velocity": 0.2283464566929134,
                    "duration": 0.30927824999992026
                },
                {
                    "name": "D#3",
                    "midi": 51,
                    "time": 569.690536499994,
                    "velocity": 0.2283464566929134,
                    "duration": 0.30927825000003395
                },
                {
                    "name": "G#3",
                    "midi": 56,
                    "time": 569.999814749994,
                    "velocity": 0.2125984251968504,
                    "duration": 0.30927825000003395
                },
                {
                    "name": "C4",
                    "midi": 60,
                    "time": 570.309092999994,
                    "velocity": 0.2992125984251969,
                    "duration": 0.30927825000003395
                },
                {
                    "name": "D#4",
                    "midi": 63,
                    "time": 570.6183712499941,
                    "velocity": 0.23622047244094488,
                    "duration": 0.30927825000003395
                },
                {
                    "name": "D#3",
                    "midi": 51,
                    "time": 570.9276494999941,
                    "velocity": 0.2440944881889764,
                    "duration": 0.30927825000003395
                },
                {
                    "name": "G#3",
                    "midi": 56,
                    "time": 571.2369277499942,
                    "velocity": 0.2283464566929134,
                    "duration": 0.30927825000003395
                },
                {
                    "name": "C4",
                    "midi": 60,
                    "time": 571.5462059999942,
                    "velocity": 0.31496062992125984,
                    "duration": 0.30927825000003395
                },
                {
                    "name": "D#4",
                    "midi": 63,
                    "time": 571.8554842499942,
                    "velocity": 0.25196850393700787,
                    "duration": 0.30927825000003395
                },
                {
                    "name": "D#3",
                    "midi": 51,
                    "time": 572.1647624999943,
                    "velocity": 0.25196850393700787,
                    "duration": 0.30927825000003395
                },
                {
                    "name": "G#3",
                    "midi": 56,
                    "time": 572.4740407499943,
                    "velocity": 0.2283464566929134,
                    "duration": 0.30927825000003395
                },
                {
                    "name": "C4",
                    "midi": 60,
                    "time": 572.7833189999943,
                    "velocity": 0.33070866141732286,
                    "duration": 0.30927825000003395
                },
                {
                    "name": "D#4",
                    "midi": 63,
                    "time": 573.0925972499944,
                    "velocity": 0.25984251968503935,
                    "duration": 0.30927825000003395
                },
                {
                    "name": "C#4",
                    "midi": 61,
                    "time": 573.4018754999944,
                    "velocity": 0.3228346456692913,
                    "duration": 0.30927825000003395
                },
                {
                    "name": "D#4",
                    "midi": 63,
                    "time": 573.7111537499944,
                    "velocity": 0.3464566929133858,
                    "duration": 0.30927825000003395
                },
                {
                    "name": "C4",
                    "midi": 60,
                    "time": 574.0204319999945,
                    "velocity": 0.4251968503937008,
                    "duration": 0.30927825000003395
                },
                {
                    "name": "D#4",
                    "midi": 63,
                    "time": 574.3297102499945,
                    "velocity": 0.3228346456692913,
                    "duration": 0.30927825000003395
                },
                {
                    "name": "D#3",
                    "midi": 51,
                    "time": 574.6389884999945,
                    "velocity": 0.3228346456692913,
                    "duration": 0.30927825000003395
                },
                {
                    "name": "G#3",
                    "midi": 56,
                    "time": 574.9482667499946,
                    "velocity": 0.29133858267716534,
                    "duration": 0.30927825000003395
                },
                {
                    "name": "C4",
                    "midi": 60,
                    "time": 575.2575449999946,
                    "velocity": 0.36220472440944884,
                    "duration": 0.30927825000003395
                },
                {
                    "name": "D#4",
                    "midi": 63,
                    "time": 575.5668232499946,
                    "velocity": 0.3228346456692913,
                    "duration": 0.30927825000003395
                },
                {
                    "name": "D#3",
                    "midi": 51,
                    "time": 575.8761014999947,
                    "velocity": 0.3228346456692913,
                    "duration": 0.30927825000003395
                },
                {
                    "name": "G#3",
                    "midi": 56,
                    "time": 576.1853797499947,
                    "velocity": 0.28346456692913385,
                    "duration": 0.30927825000003395
                },
                {
                    "name": "C4",
                    "midi": 60,
                    "time": 576.4946579999947,
                    "velocity": 0.4015748031496063,
                    "duration": 0.30927825000003395
                },
                {
                    "name": "D#4",
                    "midi": 63,
                    "time": 576.8039362499948,
                    "velocity": 0.3464566929133858,
                    "duration": 0.30927825000003395
                },
                {
                    "name": "C4",
                    "midi": 60,
                    "time": 577.1132144999948,
                    "velocity": 0.36220472440944884,
                    "duration": 0.30927825000003395
                },
                {
                    "name": "D#4",
                    "midi": 63,
                    "time": 577.4224927499948,
                    "velocity": 0.3700787401574803,
                    "duration": 0.30927825000003395
                },
                {
                    "name": "C#4",
                    "midi": 61,
                    "time": 577.7317709999949,
                    "velocity": 0.4330708661417323,
                    "duration": 0.30927825000003395
                },
                {
                    "name": "F4",
                    "midi": 65,
                    "time": 578.0410492499949,
                    "velocity": 0.3779527559055118,
                    "duration": 0.30927825000003395
                },
                {
                    "name": "A#3",
                    "midi": 58,
                    "time": 578.3503274999949,
                    "velocity": 0.3937007874015748,
                    "duration": 0.30927825000003395
                },
                {
                    "name": "G4",
                    "midi": 67,
                    "time": 578.659605749995,
                    "velocity": 0.4251968503937008,
                    "duration": 0.30927825000003395
                },
                {
                    "name": "C4",
                    "midi": 60,
                    "time": 578.968883999995,
                    "velocity": 0.47244094488188976,
                    "duration": 0.30927825000003395
                },
                {
                    "name": "G#4",
                    "midi": 68,
                    "time": 579.278162249995,
                    "velocity": 0.3858267716535433,
                    "duration": 0.30927825000003395
                },
                {
                    "name": "G#3",
                    "midi": 56,
                    "time": 579.5874404999951,
                    "velocity": 0.3858267716535433,
                    "duration": 0.30927825000003395
                },
                {
                    "name": "C4",
                    "midi": 60,
                    "time": 579.8967187499951,
                    "velocity": 0.3543307086614173,
                    "duration": 0.30927825000003395
                },
                {
                    "name": "D#4",
                    "midi": 63,
                    "time": 580.2059969999951,
                    "velocity": 0.4094488188976378,
                    "duration": 0.30927825000003395
                },
                {
                    "name": "G#4",
                    "midi": 68,
                    "time": 580.5152752499952,
                    "velocity": 0.33070866141732286,
                    "duration": 0.30927825000003395
                },
                {
                    "name": "G#3",
                    "midi": 56,
                    "time": 580.8245534999952,
                    "velocity": 0.33070866141732286,
                    "duration": 0.30927825000003395
                },
                {
                    "name": "C4",
                    "midi": 60,
                    "time": 581.1338317499952,
                    "velocity": 0.2992125984251969,
                    "duration": 0.30927825000003395
                },
                {
                    "name": "D#4",
                    "midi": 63,
                    "time": 581.4431099999953,
                    "velocity": 0.4566929133858268,
                    "duration": 0.30927825000003395
                },
                {
                    "name": "G#4",
                    "midi": 68,
                    "time": 581.7523882499953,
                    "velocity": 0.3543307086614173,
                    "duration": 0.30927825000003395
                },
                {
                    "name": "C4",
                    "midi": 60,
                    "time": 582.0616664999953,
                    "velocity": 0.3543307086614173,
                    "duration": 0.30927825000003395
                },
                {
                    "name": "G#4",
                    "midi": 68,
                    "time": 582.3709447499954,
                    "velocity": 0.30708661417322836,
                    "duration": 0.30927825000003395
                },
                {
                    "name": "D#4",
                    "midi": 63,
                    "time": 582.6802229999954,
                    "velocity": 0.4409448818897638,
                    "duration": 0.30927825000003395
                },
                {
                    "name": "G4",
                    "midi": 67,
                    "time": 582.9895012499954,
                    "velocity": 0.3228346456692913,
                    "duration": 0.30927825000003395
                },
                {
                    "name": "C#4",
                    "midi": 61,
                    "time": 583.2987794999955,
                    "velocity": 0.3228346456692913,
                    "duration": 0.30927825000003395
                },
                {
                    "name": "F4",
                    "midi": 65,
                    "time": 583.6080577499955,
                    "velocity": 0.30708661417322836,
                    "duration": 0.30927825000003395
                },
                {
                    "name": "C4",
                    "midi": 60,
                    "time": 583.9173359999955,
                    "velocity": 0.41732283464566927,
                    "duration": 0.30927825000003395
                },
                {
                    "name": "D#4",
                    "midi": 63,
                    "time": 584.2266142499956,
                    "velocity": 0.30708661417322836,
                    "duration": 0.30927825000003395
                },
                {
                    "name": "D#3",
                    "midi": 51,
                    "time": 584.5358924999956,
                    "velocity": 0.30708661417322836,
                    "duration": 0.30927825000003395
                },
                {
                    "name": "G#3",
                    "midi": 56,
                    "time": 584.8451707499956,
                    "velocity": 0.29133858267716534,
                    "duration": 0.30927825000003395
                },
                {
                    "name": "C4",
                    "midi": 60,
                    "time": 585.1544489999957,
                    "velocity": 0.36220472440944884,
                    "duration": 0.30927825000003395
                },
                {
                    "name": "D#4",
                    "midi": 63,
                    "time": 585.4637272499957,
                    "velocity": 0.2677165354330709,
                    "duration": 0.30927825000003395
                },
                {
                    "name": "D#3",
                    "midi": 51,
                    "time": 585.7730054999957,
                    "velocity": 0.2677165354330709,
                    "duration": 0.30927825000003395
                },
                {
                    "name": "G#3",
                    "midi": 56,
                    "time": 586.0822837499958,
                    "velocity": 0.23622047244094488,
                    "duration": 0.30927825000003395
                },
                {
                    "name": "C4",
                    "midi": 60,
                    "time": 586.3915619999958,
                    "velocity": 0.31496062992125984,
                    "duration": 0.30927825000003395
                },
                {
                    "name": "D#4",
                    "midi": 63,
                    "time": 586.7008402499958,
                    "velocity": 0.2440944881889764,
                    "duration": 0.30927825000003395
                },
                {
                    "name": "C4",
                    "midi": 60,
                    "time": 587.0101184999959,
                    "velocity": 0.2440944881889764,
                    "duration": 0.30927825000003395
                },
                {
                    "name": "G#3",
                    "midi": 56,
                    "time": 587.0101184999959,
                    "velocity": 0.2440944881889764,
                    "duration": 0.30927825000003395
                },
                {
                    "name": "D#4",
                    "midi": 63,
                    "time": 587.3193967499959,
                    "velocity": 0.2125984251968504,
                    "duration": 0.30927825000003395
                },
                {
                    "name": "G3",
                    "midi": 55,
                    "time": 587.628674999996,
                    "velocity": 0.33858267716535434,
                    "duration": 0.30927825000003395
                },
                {
                    "name": "C#4",
                    "midi": 61,
                    "time": 587.628674999996,
                    "velocity": 0.33858267716535434,
                    "duration": 0.30927825000003395
                },
                {
                    "name": "D#4",
                    "midi": 63,
                    "time": 587.937953249996,
                    "velocity": 0.2755905511811024,
                    "duration": 0.30927825000003395
                },
                {
                    "name": "A#3",
                    "midi": 58,
                    "time": 588.247231499996,
                    "velocity": 0.2755905511811024,
                    "duration": 0.30927825000003395
                },
                {
                    "name": "G3",
                    "midi": 55,
                    "time": 588.247231499996,
                    "velocity": 0.2755905511811024,
                    "duration": 0.30927825000003395
                },
                {
                    "name": "D#4",
                    "midi": 63,
                    "time": 588.556509749996,
                    "velocity": 0.25984251968503935,
                    "duration": 0.30927825000003395
                },
                {
                    "name": "C4",
                    "midi": 60,
                    "time": 588.8657879999961,
                    "velocity": 0.28346456692913385,
                    "duration": 0.30927825000003395
                },
                {
                    "name": "G#3",
                    "midi": 56,
                    "time": 588.8657879999961,
                    "velocity": 0.28346456692913385,
                    "duration": 0.30927825000003395
                },
                {
                    "name": "D#4",
                    "midi": 63,
                    "time": 589.1750662499961,
                    "velocity": 0.23622047244094488,
                    "duration": 0.30927825000003395
                },
                {
                    "name": "D#3",
                    "midi": 51,
                    "time": 589.4843444999962,
                    "velocity": 0.23622047244094488,
                    "duration": 0.30927825000003395
                },
                {
                    "name": "G#3",
                    "midi": 56,
                    "time": 589.7936227499962,
                    "velocity": 0.2125984251968504,
                    "duration": 0.30927825000003395
                },
                {
                    "name": "C4",
                    "midi": 60,
                    "time": 590.1029009999962,
                    "velocity": 0.2125984251968504,
                    "duration": 0.30927825000003395
                },
                {
                    "name": "D#4",
                    "midi": 63,
                    "time": 590.4121792499963,
                    "velocity": 0.25984251968503935,
                    "duration": 0.30927825000003395
                },
                {
                    "name": "D#3",
                    "midi": 51,
                    "time": 590.7214574999963,
                    "velocity": 0.25984251968503935,
                    "duration": 0.30927825000003395
                },
                {
                    "name": "G#3",
                    "midi": 56,
                    "time": 591.0307357499963,
                    "velocity": 0.2283464566929134,
                    "duration": 0.30927825000003395
                },
                {
                    "name": "C4",
                    "midi": 60,
                    "time": 591.3400139999964,
                    "velocity": 0.3543307086614173,
                    "duration": 0.30927825000003395
                },
                {
                    "name": "D#4",
                    "midi": 63,
                    "time": 591.6492922499964,
                    "velocity": 0.2440944881889764,
                    "duration": 0.30927825000003395
                },
                {
                    "name": "D#3",
                    "midi": 51,
                    "time": 591.9585704999964,
                    "velocity": 0.2440944881889764,
                    "duration": 0.30927825000003395
                },
                {
                    "name": "G#3",
                    "midi": 56,
                    "time": 592.2678487499965,
                    "velocity": 0.1968503937007874,
                    "duration": 0.30927825000003395
                },
                {
                    "name": "C4",
                    "midi": 60,
                    "time": 592.5771269999965,
                    "velocity": 0.1968503937007874,
                    "duration": 0.30927825000003395
                },
                {
                    "name": "D#4",
                    "midi": 63,
                    "time": 592.8864052499965,
                    "velocity": 0.14960629921259844,
                    "duration": 0.30927825000003395
                },
                {
                    "name": "C#4",
                    "midi": 61,
                    "time": 593.1956834999966,
                    "velocity": 0.1889763779527559,
                    "duration": 0.30927825000003395
                },
                {
                    "name": "D#4",
                    "midi": 63,
                    "time": 593.5049617499966,
                    "velocity": 0.2047244094488189,
                    "duration": 0.30927825000003395
                },
                {
                    "name": "C4",
                    "midi": 60,
                    "time": 593.8142399999966,
                    "velocity": 0.25196850393700787,
                    "duration": 0.30927825000003395
                },
                {
                    "name": "D#4",
                    "midi": 63,
                    "time": 594.1235182499967,
                    "velocity": 0.1889763779527559,
                    "duration": 0.30927825000003395
                },
                {
                    "name": "D#3",
                    "midi": 51,
                    "time": 594.4327964999967,
                    "velocity": 0.1889763779527559,
                    "duration": 0.30927825000003395
                },
                {
                    "name": "G#3",
                    "midi": 56,
                    "time": 594.7420747499967,
                    "velocity": 0.1889763779527559,
                    "duration": 0.30927825000003395
                },
                {
                    "name": "C4",
                    "midi": 60,
                    "time": 595.0513529999968,
                    "velocity": 0.2125984251968504,
                    "duration": 0.30927825000003395
                },
                {
                    "name": "D#4",
                    "midi": 63,
                    "time": 595.3606312499968,
                    "velocity": 0.1889763779527559,
                    "duration": 0.30927825000003395
                },
                {
                    "name": "D#3",
                    "midi": 51,
                    "time": 595.6699094999968,
                    "velocity": 0.1889763779527559,
                    "duration": 0.30927825000003395
                },
                {
                    "name": "G#3",
                    "midi": 56,
                    "time": 595.9791877499969,
                    "velocity": 0.1889763779527559,
                    "duration": 0.30927825000003395
                },
                {
                    "name": "C4",
                    "midi": 60,
                    "time": 596.2884659999969,
                    "velocity": 0.23622047244094488,
                    "duration": 0.30927825000003395
                },
                {
                    "name": "D#4",
                    "midi": 63,
                    "time": 596.5977442499969,
                    "velocity": 0.2047244094488189,
                    "duration": 0.30927825000003395
                },
                {
                    "name": "C4",
                    "midi": 60,
                    "time": 596.907022499997,
                    "velocity": 0.2125984251968504,
                    "duration": 0.30927825000003395
                },
                {
                    "name": "D#4",
                    "midi": 63,
                    "time": 597.216300749997,
                    "velocity": 0.2204724409448819,
                    "duration": 0.30927825000003395
                },
                {
                    "name": "C#4",
                    "midi": 61,
                    "time": 597.525578999997,
                    "velocity": 0.25984251968503935,
                    "duration": 0.30927825000003395
                },
                {
                    "name": "F4",
                    "midi": 65,
                    "time": 597.8348572499971,
                    "velocity": 0.2204724409448819,
                    "duration": 0.30927825000003395
                },
                {
                    "name": "A#3",
                    "midi": 58,
                    "time": 598.1441354999971,
                    "velocity": 0.23622047244094488,
                    "duration": 0.30927825000003395
                },
                {
                    "name": "G4",
                    "midi": 67,
                    "time": 598.4534137499971,
                    "velocity": 0.25196850393700787,
                    "duration": 0.30927825000003395
                },
                {
                    "name": "C4",
                    "midi": 60,
                    "time": 598.7626919999972,
                    "velocity": 0.28346456692913385,
                    "duration": 0.30927825000003395
                },
                {
                    "name": "G#4",
                    "midi": 68,
                    "time": 599.0719702499972,
                    "velocity": 0.2283464566929134,
                    "duration": 0.30927825000003395
                },
                {
                    "name": "G#3",
                    "midi": 56,
                    "time": 599.3812484999972,
                    "velocity": 0.2283464566929134,
                    "duration": 0.30927825000003395
                },
                {
                    "name": "C4",
                    "midi": 60,
                    "time": 599.6905267499973,
                    "velocity": 0.2283464566929134,
                    "duration": 0.30927825000003395
                },
                {
                    "name": "D#4",
                    "midi": 63,
                    "time": 599.9998049999973,
                    "velocity": 0.2440944881889764,
                    "duration": 0.30927825000003395
                },
                {
                    "name": "G#4",
                    "midi": 68,
                    "time": 600.3090832499973,
                    "velocity": 0.1968503937007874,
                    "duration": 0.30927825000003395
                },
                {
                    "name": "G#3",
                    "midi": 56,
                    "time": 600.6183614999974,
                    "velocity": 0.1968503937007874,
                    "duration": 0.30927825000003395
                },
                {
                    "name": "C4",
                    "midi": 60,
                    "time": 600.9276397499974,
                    "velocity": 0.1968503937007874,
                    "duration": 0.30927825000003395
                },
                {
                    "name": "D#4",
                    "midi": 63,
                    "time": 601.2369179999974,
                    "velocity": 0.2677165354330709,
                    "duration": 0.30927825000003395
                },
                {
                    "name": "G#4",
                    "midi": 68,
                    "time": 601.5461962499975,
                    "velocity": 0.1889763779527559,
                    "duration": 0.30927825000003395
                },
                {
                    "name": "C4",
                    "midi": 60,
                    "time": 601.8554744999975,
                    "velocity": 0.1889763779527559,
                    "duration": 0.30927825000003395
                },
                {
                    "name": "G#4",
                    "midi": 68,
                    "time": 602.1647527499975,
                    "velocity": 0.1889763779527559,
                    "duration": 0.30927825000003395
                },
                {
                    "name": "D#4",
                    "midi": 63,
                    "time": 602.4740309999976,
                    "velocity": 0.25984251968503935,
                    "duration": 0.30927825000003395
                },
                {
                    "name": "G4",
                    "midi": 67,
                    "time": 602.7833092499976,
                    "velocity": 0.1889763779527559,
                    "duration": 0.30927825000003395
                },
                {
                    "name": "C#4",
                    "midi": 61,
                    "time": 603.0925874999976,
                    "velocity": 0.1889763779527559,
                    "duration": 0.30927825000003395
                },
                {
                    "name": "F4",
                    "midi": 65,
                    "time": 603.4018657499977,
                    "velocity": 0.1889763779527559,
                    "duration": 0.30927825000003395
                },
                {
                    "name": "C4",
                    "midi": 60,
                    "time": 603.7111439999977,
                    "velocity": 0.2440944881889764,
                    "duration": 0.30927825000003395
                },
                {
                    "name": "D#4",
                    "midi": 63,
                    "time": 604.0204222499978,
                    "velocity": 0.1889763779527559,
                    "duration": 0.30927825000003395
                },
                {
                    "name": "D#3",
                    "midi": 51,
                    "time": 604.3297004999978,
                    "velocity": 0.1889763779527559,
                    "duration": 0.30927825000003395
                },
                {
                    "name": "G#3",
                    "midi": 56,
                    "time": 604.6389787499978,
                    "velocity": 0.1889763779527559,
                    "duration": 0.30927825000003395
                },
                {
                    "name": "C4",
                    "midi": 60,
                    "time": 604.9482569999979,
                    "velocity": 0.2204724409448819,
                    "duration": 0.30927825000003395
                },
                {
                    "name": "D#4",
                    "midi": 63,
                    "time": 605.2575352499979,
                    "velocity": 0.1732283464566929,
                    "duration": 0.30927825000003395
                },
                {
                    "name": "D#3",
                    "midi": 51,
                    "time": 605.5668134999979,
                    "velocity": 0.1732283464566929,
                    "duration": 0.30927825000003395
                },
                {
                    "name": "G#3",
                    "midi": 56,
                    "time": 605.876091749998,
                    "velocity": 0.1732283464566929,
                    "duration": 0.30927825000003395
                },
                {
                    "name": "C4",
                    "midi": 60,
                    "time": 606.185369999998,
                    "velocity": 0.2125984251968504,
                    "duration": 0.30927825000003395
                },
                {
                    "name": "D#4",
                    "midi": 63,
                    "time": 606.494648249998,
                    "velocity": 0.16535433070866143,
                    "duration": 0.30927825000003395
                },
                {
                    "name": "C4",
                    "midi": 60,
                    "time": 606.803926499998,
                    "velocity": 0.16535433070866143,
                    "duration": 0.30927825000003395
                },
                {
                    "name": "G#3",
                    "midi": 56,
                    "time": 606.803926499998,
                    "velocity": 0.16535433070866143,
                    "duration": 0.30927825000003395
                },
                {
                    "name": "D#4",
                    "midi": 63,
                    "time": 607.1132047499981,
                    "velocity": 0.16535433070866143,
                    "duration": 0.30927825000003395
                },
                {
                    "name": "G3",
                    "midi": 55,
                    "time": 607.4224829999981,
                    "velocity": 0.25984251968503935,
                    "duration": 0.30927825000003395
                },
                {
                    "name": "C#4",
                    "midi": 61,
                    "time": 607.4224829999981,
                    "velocity": 0.25984251968503935,
                    "duration": 0.30927825000003395
                },
                {
                    "name": "D#4",
                    "midi": 63,
                    "time": 607.7317612499982,
                    "velocity": 0.1889763779527559,
                    "duration": 0.30927825000003395
                },
                {
                    "name": "A#3",
                    "midi": 58,
                    "time": 608.0410394999982,
                    "velocity": 0.1889763779527559,
                    "duration": 0.30927825000003395
                },
                {
                    "name": "G3",
                    "midi": 55,
                    "time": 608.0410394999982,
                    "velocity": 0.1889763779527559,
                    "duration": 0.30927825000003395
                },
                {
                    "name": "D#4",
                    "midi": 63,
                    "time": 608.3503177499982,
                    "velocity": 0.1889763779527559,
                    "duration": 0.30927825000003395
                },
                {
                    "name": "C4",
                    "midi": 60,
                    "time": 608.6595959999983,
                    "velocity": 0.2440944881889764,
                    "duration": 0.30927825000003395
                },
                {
                    "name": "G#3",
                    "midi": 56,
                    "time": 608.6595959999983,
                    "velocity": 0.2440944881889764,
                    "duration": 0.30927825000003395
                },
                {
                    "name": "D#4",
                    "midi": 63,
                    "time": 608.9688742499983,
                    "velocity": 0.1968503937007874,
                    "duration": 0.30927825000003395
                },
                {
                    "name": "D#3",
                    "midi": 51,
                    "time": 609.2781524999983,
                    "velocity": 0.1968503937007874,
                    "duration": 0.30927825000003395
                },
                {
                    "name": "G#3",
                    "midi": 56,
                    "time": 609.5874307499984,
                    "velocity": 0.1889763779527559,
                    "duration": 0.30927825000003395
                },
                {
                    "name": "C4",
                    "midi": 60,
                    "time": 609.8967089999984,
                    "velocity": 0.2204724409448819,
                    "duration": 0.30927825000003395
                },
                {
                    "name": "D#4",
                    "midi": 63,
                    "time": 610.2059872499984,
                    "velocity": 0.1732283464566929,
                    "duration": 0.30927825000003395
                },
                {
                    "name": "D#3",
                    "midi": 51,
                    "time": 610.5152654999985,
                    "velocity": 0.1732283464566929,
                    "duration": 0.30927825000003395
                },
                {
                    "name": "G#3",
                    "midi": 56,
                    "time": 610.8245437499985,
                    "velocity": 0.1732283464566929,
                    "duration": 0.30927825000003395
                },
                {
                    "name": "C4",
                    "midi": 60,
                    "time": 611.1338219999985,
                    "velocity": 0.2125984251968504,
                    "duration": 0.30927825000003395
                },
                {
                    "name": "D#4",
                    "midi": 63,
                    "time": 611.4431002499986,
                    "velocity": 0.16535433070866143,
                    "duration": 0.30927825000003395
                },
                {
                    "name": "C4",
                    "midi": 60,
                    "time": 611.7523784999986,
                    "velocity": 0.16535433070866143,
                    "duration": 0.30927825000003395
                },
                {
                    "name": "G#3",
                    "midi": 56,
                    "time": 611.7523784999986,
                    "velocity": 0.16535433070866143,
                    "duration": 0.30927825000003395
                },
                {
                    "name": "D#4",
                    "midi": 63,
                    "time": 612.0616567499986,
                    "velocity": 0.16535433070866143,
                    "duration": 0.30927825000003395
                },
                {
                    "name": "C#4",
                    "midi": 61,
                    "time": 612.3709349999987,
                    "velocity": 0.25984251968503935,
                    "duration": 0.30927825000003395
                },
                {
                    "name": "G3",
                    "midi": 55,
                    "time": 612.3709349999987,
                    "velocity": 0.25984251968503935,
                    "duration": 0.30927825000003395
                },
                {
                    "name": "D#4",
                    "midi": 63,
                    "time": 612.6802132499987,
                    "velocity": 0.1889763779527559,
                    "duration": 0.30927825000003395
                },
                {
                    "name": "G3",
                    "midi": 55,
                    "time": 612.9894914999987,
                    "velocity": 0.1889763779527559,
                    "duration": 0.30927825000003395
                },
                {
                    "name": "A#3",
                    "midi": 58,
                    "time": 612.9894914999987,
                    "velocity": 0.1889763779527559,
                    "duration": 0.30927825000003395
                },
                {
                    "name": "D#4",
                    "midi": 63,
                    "time": 613.2987697499988,
                    "velocity": 0.1889763779527559,
                    "duration": 0.30927825000003395
                },
                {
                    "name": "C4",
                    "midi": 60,
                    "time": 613.6080479999988,
                    "velocity": 0.2440944881889764,
                    "duration": 0.30927825000003395
                },
                {
                    "name": "G#3",
                    "midi": 56,
                    "time": 613.6080479999988,
                    "velocity": 0.2440944881889764,
                    "duration": 0.30927825000003395
                },
                {
                    "name": "D#4",
                    "midi": 63,
                    "time": 613.9173262499988,
                    "velocity": 0.1889763779527559,
                    "duration": 0.30927825000003395
                },
                {
                    "name": "D#3",
                    "midi": 51,
                    "time": 614.2266044999989,
                    "velocity": 0.1889763779527559,
                    "duration": 0.30927825000003395
                },
                {
                    "name": "G#3",
                    "midi": 56,
                    "time": 614.5358827499989,
                    "velocity": 0.15748031496062992,
                    "duration": 0.30927825000003395
                },
                {
                    "name": "C4",
                    "midi": 60,
                    "time": 614.8451609999989,
                    "velocity": 0.2047244094488189,
                    "duration": 0.30927825000003395
                },
                {
                    "name": "D#4",
                    "midi": 63,
                    "time": 615.154439249999,
                    "velocity": 0.15748031496062992,
                    "duration": 0.30927825000003395
                },
                {
                    "name": "D#3",
                    "midi": 51,
                    "time": 615.463717499999,
                    "velocity": 0.15748031496062992,
                    "duration": 0.30927825000003395
                },
                {
                    "name": "G#3",
                    "midi": 56,
                    "time": 615.772995749999,
                    "velocity": 0.15748031496062992,
                    "duration": 0.30927825000003395
                },
                {
                    "name": "C4",
                    "midi": 60,
                    "time": 616.0822739999991,
                    "velocity": 0.1889763779527559,
                    "duration": 0.30927825000003395
                },
                {
                    "name": "D#4",
                    "midi": 63,
                    "time": 616.3915522499991,
                    "velocity": 0.14173228346456693,
                    "duration": 0.30927825000003395
                },
                {
                    "name": "G#3",
                    "midi": 56,
                    "time": 616.7008304999991,
                    "velocity": 0.14173228346456693,
                    "duration": 0.30927825000003395
                },
                {
                    "name": "C4",
                    "midi": 60,
                    "time": 616.7008304999991,
                    "velocity": 0.14173228346456693,
                    "duration": 0.30927825000003395
                },
                {
                    "name": "D#4",
                    "midi": 63,
                    "time": 617.0101087499992,
                    "velocity": 0.14173228346456693,
                    "duration": 0.30927825000003395
                },
                {
                    "name": "C#4",
                    "midi": 61,
                    "time": 617.3193869999992,
                    "velocity": 0.2204724409448819,
                    "duration": 0.30927825000003395
                },
                {
                    "name": "G3",
                    "midi": 55,
                    "time": 617.3193869999992,
                    "velocity": 0.2204724409448819,
                    "duration": 0.30927825000003395
                },
                {
                    "name": "D#4",
                    "midi": 63,
                    "time": 617.6286652499992,
                    "velocity": 0.15748031496062992,
                    "duration": 0.30927825000003395
                },
                {
                    "name": "G3",
                    "midi": 55,
                    "time": 617.9379434999993,
                    "velocity": 0.14960629921259844,
                    "duration": 0.30927825000003395
                },
                {
                    "name": "A#3",
                    "midi": 58,
                    "time": 617.9379434999993,
                    "velocity": 0.14960629921259844,
                    "duration": 0.30927825000003395
                },
                {
                    "name": "D#4",
                    "midi": 63,
                    "time": 618.2472217499993,
                    "velocity": 0.14960629921259844,
                    "duration": 0.30927825000003395
                },
                {
                    "name": "G#3",
                    "midi": 56,
                    "time": 618.5564999999993,
                    "velocity": 0.1889763779527559,
                    "duration": 0.30927825000003395
                },
                {
                    "name": "C4",
                    "midi": 60,
                    "time": 618.8657782499994,
                    "velocity": 0.15748031496062992,
                    "duration": 0.30927825000003395
                },
                {
                    "name": "C3",
                    "midi": 48,
                    "time": 619.1750564999994,
                    "velocity": 0.15748031496062992,
                    "duration": 0.30927825000003395
                },
                {
                    "name": "D#3",
                    "midi": 51,
                    "time": 619.4843347499994,
                    "velocity": 0.15748031496062992,
                    "duration": 0.30927825000003395
                },
                {
                    "name": "G#3",
                    "midi": 56,
                    "time": 619.7936129999995,
                    "velocity": 0.1732283464566929,
                    "duration": 0.30927825000003395
                },
                {
                    "name": "C4",
                    "midi": 60,
                    "time": 620.1028912499995,
                    "velocity": 0.13385826771653545,
                    "duration": 0.30927825000003395
                },
                {
                    "name": "C3",
                    "midi": 48,
                    "time": 620.4121694999995,
                    "velocity": 0.13385826771653545,
                    "duration": 0.30927825000003395
                },
                {
                    "name": "D#3",
                    "midi": 51,
                    "time": 620.7214477499996,
                    "velocity": 0.13385826771653545,
                    "duration": 0.30927825000003395
                },
                {
                    "name": "G#3",
                    "midi": 56,
                    "time": 621.0307259999996,
                    "velocity": 0.1889763779527559,
                    "duration": 0.30927825000003395
                },
                {
                    "name": "C4",
                    "midi": 60,
                    "time": 621.3400042499997,
                    "velocity": 0.15748031496062992,
                    "duration": 0.30927825000003395
                },
                {
                    "name": "C3",
                    "midi": 48,
                    "time": 621.6492824999997,
                    "velocity": 0.15748031496062992,
                    "duration": 0.30927825000003395
                },
                {
                    "name": "D#3",
                    "midi": 51,
                    "time": 621.9585607499997,
                    "velocity": 0.15748031496062992,
                    "duration": 0.30927825000003395
                },
                {
                    "name": "G#3",
                    "midi": 56,
                    "time": 622.2678389999998,
                    "velocity": 0.1732283464566929,
                    "duration": 0.30927825000003395
                },
                {
                    "name": "C4",
                    "midi": 60,
                    "time": 622.5771172499998,
                    "velocity": 0.13385826771653545,
                    "duration": 0.30927825000003395
                },
                {
                    "name": "C3",
                    "midi": 48,
                    "time": 622.8863954999998,
                    "velocity": 0.13385826771653545,
                    "duration": 0.30927825000003395
                },
                {
                    "name": "D#3",
                    "midi": 51,
                    "time": 623.1956737499999,
                    "velocity": 0.13385826771653545,
                    "duration": 0.30927825000003395
                },
                {
                    "name": "G#1",
                    "midi": 32,
                    "time": 624.7420649999999,
                    "velocity": 0.2440944881889764,
                    "duration": 0.6185564999999542
                },
                {
                    "name": "G#1",
                    "midi": 32,
                    "time": 625.9791779999998,
                    "velocity": 0.2677165354330709,
                    "duration": 0.6185564999999542
                },
                {
                    "name": "G#1",
                    "midi": 32,
                    "time": 627.2162909999997,
                    "velocity": 0.28346456692913385,
                    "duration": 0.6185564999999542
                },
                {
                    "name": "G2",
                    "midi": 43,
                    "time": 628.4534039999996,
                    "velocity": 0.33858267716535434,
                    "duration": 6.185564999999997
                },
                {
                    "name": "G1",
                    "midi": 31,
                    "time": 628.4534039999996,
                    "velocity": 0.28346456692913385,
                    "duration": 6.185564999999997
                },
                {
                    "name": "C2",
                    "midi": 36,
                    "time": 628.4534039999996,
                    "velocity": 0.28346456692913385,
                    "duration": 6.185564999999997
                },
                {
                    "name": "G3",
                    "midi": 55,
                    "time": 634.6389689999996,
                    "velocity": 0.30708661417322836,
                    "duration": 1.2371130000000221
                },
                {
                    "name": "G2",
                    "midi": 43,
                    "time": 634.6389689999996,
                    "velocity": 0.25984251968503935,
                    "duration": 1.2371130000000221
                },
                {
                    "name": "C3",
                    "midi": 48,
                    "time": 634.6389689999996,
                    "velocity": 0.25984251968503935,
                    "duration": 1.2371130000000221
                },
                {
                    "name": "G3",
                    "midi": 55,
                    "time": 635.8760819999997,
                    "velocity": 0.3543307086614173,
                    "duration": 1.2371130000000221
                },
                {
                    "name": "C3",
                    "midi": 48,
                    "time": 635.8760819999997,
                    "velocity": 0.2992125984251969,
                    "duration": 1.2371130000000221
                },
                {
                    "name": "G2",
                    "midi": 43,
                    "time": 635.8760819999997,
                    "velocity": 0.2992125984251969,
                    "duration": 1.2371130000000221
                },
                {
                    "name": "G2",
                    "midi": 43,
                    "time": 637.1131949999997,
                    "velocity": 0.33070866141732286,
                    "duration": 1.2371130000000221
                },
                {
                    "name": "C3",
                    "midi": 48,
                    "time": 637.1131949999997,
                    "velocity": 0.33070866141732286,
                    "duration": 1.2371130000000221
                },
                {
                    "name": "G3",
                    "midi": 55,
                    "time": 637.1131949999997,
                    "velocity": 0.3937007874015748,
                    "duration": 1.2371130000000221
                },
                {
                    "name": "G#3",
                    "midi": 56,
                    "time": 638.3503079999997,
                    "velocity": 0.4015748031496063,
                    "duration": 3.7113389999999526
                },
                {
                    "name": "C3",
                    "midi": 48,
                    "time": 638.3503079999997,
                    "velocity": 0.4015748031496063,
                    "duration": 4.948451999999975
                },
                {
                    "name": "F2",
                    "midi": 41,
                    "time": 638.3503079999997,
                    "velocity": 0.33858267716535434,
                    "duration": 12.371130000000107
                },
                {
                    "name": "G2",
                    "midi": 43,
                    "time": 642.0616469999997,
                    "velocity": 0.28346456692913385,
                    "duration": 1.2371130000000221
                },
                {
                    "name": "E3",
                    "midi": 52,
                    "time": 642.0616469999997,
                    "velocity": 0.33858267716535434,
                    "duration": 1.2371130000000221
                },
                {
                    "name": "G#2",
                    "midi": 44,
                    "time": 643.2987599999997,
                    "velocity": 0.33858267716535434,
                    "duration": 1.2371130000000221
                },
                {
                    "name": "F3",
                    "midi": 53,
                    "time": 643.2987599999997,
                    "velocity": 0.33858267716535434,
                    "duration": 7.422678000000133
                },
                {
                    "name": "A2",
                    "midi": 45,
                    "time": 644.5358729999997,
                    "velocity": 0.30708661417322836,
                    "duration": 1.2371130000000221
                },
                {
                    "name": "G2",
                    "midi": 43,
                    "time": 645.7729859999997,
                    "velocity": 0.33858267716535434,
                    "duration": 1.2371130000000221
                },
                {
                    "name": "A2",
                    "midi": 45,
                    "time": 647.0100989999997,
                    "velocity": 0.31496062992125984,
                    "duration": 1.2371130000000221
                },
                {
                    "name": "C#3",
                    "midi": 49,
                    "time": 648.2472119999998,
                    "velocity": 0.3464566929133858,
                    "duration": 1.2371130000000221
                },
                {
                    "name": "C3",
                    "midi": 48,
                    "time": 649.4843249999998,
                    "velocity": 0.3228346456692913,
                    "duration": 1.2371130000000221
                },
                {
                    "name": "C#3",
                    "midi": 49,
                    "time": 650.7214379999998,
                    "velocity": 0.3858267716535433,
                    "duration": 1.2371130000000221
                },
                {
                    "name": "A#2",
                    "midi": 46,
                    "time": 650.7214379999998,
                    "velocity": 0.3228346456692913,
                    "duration": 1.2371130000000221
                },
                {
                    "name": "G#2",
                    "midi": 44,
                    "time": 651.9585509999998,
                    "velocity": 0.2992125984251969,
                    "duration": 1.2371130000000221
                },
                {
                    "name": "C3",
                    "midi": 48,
                    "time": 651.9585509999998,
                    "velocity": 0.3543307086614173,
                    "duration": 1.2371130000000221
                },
                {
                    "name": "G2",
                    "midi": 43,
                    "time": 653.1956639999999,
                    "velocity": 0.3700787401574803,
                    "duration": 0.6185564999999542
                },
                {
                    "name": "A#2",
                    "midi": 46,
                    "time": 653.1956639999999,
                    "velocity": 0.44881889763779526,
                    "duration": 0.6185564999999542
                },
                {
                    "name": "E3",
                    "midi": 52,
                    "time": 654.4327769999998,
                    "velocity": 0.3779527559055118,
                    "duration": 0.6185564999999542
                },
                {
                    "name": "C#4",
                    "midi": 61,
                    "time": 654.4327769999998,
                    "velocity": 0.44881889763779526,
                    "duration": 0.6185564999999542
                },
                {
                    "name": "A#3",
                    "midi": 58,
                    "time": 654.4327769999998,
                    "velocity": 0.3779527559055118,
                    "duration": 0.6185564999999542
                },
                {
                    "name": "G3",
                    "midi": 55,
                    "time": 654.4327769999998,
                    "velocity": 0.3779527559055118,
                    "duration": 0.6185564999999542
                },
                {
                    "name": "G#3",
                    "midi": 56,
                    "time": 658.1441159999997,
                    "velocity": 0.2755905511811024,
                    "duration": 1.2371130000000221
                },
                {
                    "name": "F3",
                    "midi": 53,
                    "time": 658.1441159999997,
                    "velocity": 0.2283464566929134,
                    "duration": 1.2371130000000221
                },
                {
                    "name": "C#3",
                    "midi": 49,
                    "time": 660.6183419999998,
                    "velocity": 0.2125984251968504,
                    "duration": 1.2371130000000221
                },
                {
                    "name": "G3",
                    "midi": 55,
                    "time": 660.6183419999998,
                    "velocity": 0.25196850393700787,
                    "duration": 1.2371130000000221
                },
                {
                    "name": "A#2",
                    "midi": 46,
                    "time": 660.6183419999998,
                    "velocity": 0.2125984251968504,
                    "duration": 1.2371130000000221
                },
                {
                    "name": "C3",
                    "midi": 48,
                    "time": 663.0925679999998,
                    "velocity": 0.2283464566929134,
                    "duration": 3.0927824999999984
                },
                {
                    "name": "F3",
                    "midi": 53,
                    "time": 663.5049389999998,
                    "velocity": 0.25196850393700787,
                    "duration": 0.41237100000000737
                },
                {
                    "name": "G#3",
                    "midi": 56,
                    "time": 663.9173099999998,
                    "velocity": 0.2677165354330709,
                    "duration": 0.41237100000000737
                },
                {
                    "name": "C4",
                    "midi": 60,
                    "time": 664.3296809999998,
                    "velocity": 0.29133858267716534,
                    "duration": 0.41237100000000737
                },
                {
                    "name": "A#3",
                    "midi": 58,
                    "time": 664.7420519999998,
                    "velocity": 0.2440944881889764,
                    "duration": 0.41237100000000737
                },
                {
                    "name": "G#3",
                    "midi": 56,
                    "time": 665.1544229999998,
                    "velocity": 0.2204724409448819,
                    "duration": 0.41237100000000737
                },
                {
                    "name": "G3",
                    "midi": 55,
                    "time": 665.5667939999998,
                    "velocity": 0.2755905511811024,
                    "duration": 0.6185564999999542
                },
                {
                    "name": "G#3",
                    "midi": 56,
                    "time": 668.0410199999998,
                    "velocity": 0.4015748031496063,
                    "duration": 3.7113389999999526
                },
                {
                    "name": "C3",
                    "midi": 48,
                    "time": 668.0410199999998,
                    "velocity": 0.4015748031496063,
                    "duration": 4.948451999999975
                },
                {
                    "name": "F2",
                    "midi": 41,
                    "time": 668.0410199999998,
                    "velocity": 0.33858267716535434,
                    "duration": 10.515460500000017
                },
                {
                    "name": "G2",
                    "midi": 43,
                    "time": 671.7523589999997,
                    "velocity": 0.28346456692913385,
                    "duration": 1.2371130000000221
                },
                {
                    "name": "E3",
                    "midi": 52,
                    "time": 671.7523589999997,
                    "velocity": 0.33858267716535434,
                    "duration": 1.2371130000000221
                },
                {
                    "name": "F3",
                    "midi": 53,
                    "time": 672.9894719999998,
                    "velocity": 0.33858267716535434,
                    "duration": 5.567008500000043
                },
                {
                    "name": "G#2",
                    "midi": 44,
                    "time": 672.9894719999998,
                    "velocity": 0.33858267716535434,
                    "duration": 1.2371130000000221
                },
                {
                    "name": "A2",
                    "midi": 45,
                    "time": 674.2265849999998,
                    "velocity": 0.30708661417322836,
                    "duration": 1.2371130000000221
                },
                {
                    "name": "G2",
                    "midi": 43,
                    "time": 675.4636979999998,
                    "velocity": 0.33858267716535434,
                    "duration": 1.2371130000000221
                },
                {
                    "name": "A2",
                    "midi": 45,
                    "time": 676.7008109999998,
                    "velocity": 0.31496062992125984,
                    "duration": 1.2371130000000221
                },
                {
                    "name": "C#3",
                    "midi": 49,
                    "time": 677.9379239999998,
                    "velocity": 0.3464566929133858,
                    "duration": 0.6185564999999542
                },
                {
                    "name": "C#3",
                    "midi": 49,
                    "time": 678.5564804999998,
                    "velocity": 0.25196850393700787,
                    "duration": 0.30927825000003395
                },
                {
                    "name": "F3",
                    "midi": 53,
                    "time": 678.5564804999998,
                    "velocity": 0.29133858267716534,
                    "duration": 0.30927825000003395
                },
                {
                    "name": "C3",
                    "midi": 48,
                    "time": 679.1750369999999,
                    "velocity": 0.25196850393700787,
                    "duration": 0.30927825000003395
                },
                {
                    "name": "D#3",
                    "midi": 51,
                    "time": 679.1750369999999,
                    "velocity": 0.3228346456692913,
                    "duration": 0.30927825000003395
                },
                {
                    "name": "C3",
                    "midi": 48,
                    "time": 679.7935934999999,
                    "velocity": 0.28346456692913385,
                    "duration": 0.30927825000003395
                },
                {
                    "name": "D#3",
                    "midi": 51,
                    "time": 679.7935934999999,
                    "velocity": 0.3464566929133858,
                    "duration": 0.30927825000003395
                },
                {
                    "name": "A#2",
                    "midi": 46,
                    "time": 680.41215,
                    "velocity": 0.30708661417322836,
                    "duration": 0.30927825000003395
                },
                {
                    "name": "C#3",
                    "midi": 49,
                    "time": 680.41215,
                    "velocity": 0.3700787401574803,
                    "duration": 0.30927825000003395
                },
                {
                    "name": "C#3",
                    "midi": 49,
                    "time": 681.0307065000001,
                    "velocity": 0.4015748031496063,
                    "duration": 0.30927825000003395
                },
                {
                    "name": "A#2",
                    "midi": 46,
                    "time": 681.0307065000001,
                    "velocity": 0.33858267716535434,
                    "duration": 0.30927825000003395
                },
                {
                    "name": "C3",
                    "midi": 48,
                    "time": 681.6492630000001,
                    "velocity": 0.3228346456692913,
                    "duration": 0.30927825000003395
                },
                {
                    "name": "G#2",
                    "midi": 44,
                    "time": 681.6492630000001,
                    "velocity": 0.3228346456692913,
                    "duration": 0.30927825000003395
                },
                {
                    "name": "C#3",
                    "midi": 49,
                    "time": 681.6492630000001,
                    "velocity": 0.4330708661417323,
                    "duration": 0.30927825000003395
                },
                {
                    "name": "C3",
                    "midi": 48,
                    "time": 682.2678195000002,
                    "velocity": 0.3464566929133858,
                    "duration": 0.30927825000003395
                },
                {
                    "name": "C#3",
                    "midi": 49,
                    "time": 682.2678195000002,
                    "velocity": 0.47244094488188976,
                    "duration": 0.30927825000003395
                },
                {
                    "name": "G#2",
                    "midi": 44,
                    "time": 682.2678195000002,
                    "velocity": 0.3464566929133858,
                    "duration": 0.30927825000003395
                },
                {
                    "name": "G2",
                    "midi": 43,
                    "time": 682.8863760000003,
                    "velocity": 0.4015748031496063,
                    "duration": 0.6185564999999542
                },
                {
                    "name": "C#3",
                    "midi": 49,
                    "time": 682.8863760000003,
                    "velocity": 0.5039370078740157,
                    "duration": 0.6185564999999542
                },
                {
                    "name": "A#2",
                    "midi": 46,
                    "time": 682.8863760000003,
                    "velocity": 0.4251968503937008,
                    "duration": 0.6185564999999542
                },
                {
                    "name": "A#3",
                    "midi": 58,
                    "time": 684.1234890000002,
                    "velocity": 0.4330708661417323,
                    "duration": 0.6185564999999542
                },
                {
                    "name": "G3",
                    "midi": 55,
                    "time": 684.1234890000002,
                    "velocity": 0.4330708661417323,
                    "duration": 0.6185564999999542
                },
                {
                    "name": "E3",
                    "midi": 52,
                    "time": 684.1234890000002,
                    "velocity": 0.4330708661417323,
                    "duration": 0.6185564999999542
                },
                {
                    "name": "C#4",
                    "midi": 61,
                    "time": 684.1234890000002,
                    "velocity": 0.5118110236220472,
                    "duration": 0.6185564999999542
                },
                {
                    "name": "G#3",
                    "midi": 56,
                    "time": 687.8348280000001,
                    "velocity": 0.2755905511811024,
                    "duration": 1.2371130000000221
                },
                {
                    "name": "F3",
                    "midi": 53,
                    "time": 687.8348280000001,
                    "velocity": 0.2283464566929134,
                    "duration": 1.2371130000000221
                },
                {
                    "name": "G3",
                    "midi": 55,
                    "time": 690.3090540000002,
                    "velocity": 0.25196850393700787,
                    "duration": 1.2371130000000221
                },
                {
                    "name": "A#2",
                    "midi": 46,
                    "time": 690.3090540000002,
                    "velocity": 0.2125984251968504,
                    "duration": 1.2371130000000221
                },
                {
                    "name": "C#3",
                    "midi": 49,
                    "time": 690.3090540000002,
                    "velocity": 0.2125984251968504,
                    "duration": 1.2371130000000221
                },
                {
                    "name": "F3",
                    "midi": 53,
                    "time": 692.7832800000002,
                    "velocity": 0.2755905511811024,
                    "duration": 0.6185564999999542
                },
                {
                    "name": "C3",
                    "midi": 48,
                    "time": 692.7832800000002,
                    "velocity": 0.2755905511811024,
                    "duration": 0.6185564999999542
                },
                {
                    "name": "G#3",
                    "midi": 56,
                    "time": 692.7832800000002,
                    "velocity": 0.33858267716535434,
                    "duration": 0.6185564999999542
                },
                {
                    "name": "G#3",
                    "midi": 56,
                    "time": 694.0203930000001,
                    "velocity": 0.4251968503937008,
                    "duration": 0.41237100000000737
                },
                {
                    "name": "F3",
                    "midi": 53,
                    "time": 694.4327640000001,
                    "velocity": 0.36220472440944884,
                    "duration": 0.41237100000000737
                },
                {
                    "name": "C#4",
                    "midi": 61,
                    "time": 694.8451350000001,
                    "velocity": 0.3779527559055118,
                    "duration": 0.41237100000000737
                },
                {
                    "name": "C4",
                    "midi": 60,
                    "time": 695.2575060000001,
                    "velocity": 0.4251968503937008,
                    "duration": 0.6185564999999542
                },
                {
                    "name": "C4",
                    "midi": 60,
                    "time": 696.4946190000001,
                    "velocity": 0.47244094488188976,
                    "duration": 0.4639173750000509
                },
                {
                    "name": "C3",
                    "midi": 48,
                    "time": 696.4946190000001,
                    "velocity": 0.3937007874015748,
                    "duration": 0.4639173750000509
                },
                {
                    "name": "F3",
                    "midi": 53,
                    "time": 697.7317320000001,
                    "velocity": 0.47244094488188976,
                    "duration": 0.4639173750000509
                },
                {
                    "name": "F2",
                    "midi": 41,
                    "time": 697.7317320000001,
                    "velocity": 0.3937007874015748,
                    "duration": 0.4639173750000509
                },
                {
                    "name": "F3",
                    "midi": 53,
                    "time": 698.9688450000001,
                    "velocity": 0.1732283464566929,
                    "duration": 1.2371130000000221
                },
                {
                    "name": "F4",
                    "midi": 65,
                    "time": 698.9688450000001,
                    "velocity": 0.2125984251968504,
                    "duration": 1.2371130000000221
                },
                {
                    "name": "F4",
                    "midi": 65,
                    "time": 701.4430710000001,
                    "velocity": 0.2125984251968504,
                    "duration": 1.2371130000000221
                },
                {
                    "name": "F3",
                    "midi": 53,
                    "time": 701.4430710000001,
                    "velocity": 0.1732283464566929,
                    "duration": 1.2371130000000221
                },
                {
                    "name": "F3",
                    "midi": 53,
                    "time": 703.9172970000002,
                    "velocity": 0.1732283464566929,
                    "duration": 1.2371130000000221
                },
                {
                    "name": "F4",
                    "midi": 65,
                    "time": 703.9172970000002,
                    "velocity": 0.2125984251968504,
                    "duration": 1.2371130000000221
                },
                {
                    "name": "F4",
                    "midi": 65,
                    "time": 706.3915230000002,
                    "velocity": 0.2125984251968504,
                    "duration": 1.2371130000000221
                },
                {
                    "name": "F3",
                    "midi": 53,
                    "time": 706.3915230000002,
                    "velocity": 0.1732283464566929,
                    "duration": 1.2371130000000221
                },
                {
                    "name": "F3",
                    "midi": 53,
                    "time": 708.8657490000003,
                    "velocity": 0.1732283464566929,
                    "duration": 1.2371130000000221
                },
                {
                    "name": "F4",
                    "midi": 65,
                    "time": 708.8657490000003,
                    "velocity": 0.2125984251968504,
                    "duration": 1.2371130000000221
                },
                {
                    "name": "A#2",
                    "midi": 46,
                    "time": 710.1028620000003,
                    "velocity": 0.2125984251968504,
                    "duration": 0.6185564999999542
                },
                {
                    "name": "F#3",
                    "midi": 54,
                    "time": 711.3399750000002,
                    "velocity": 0.1732283464566929,
                    "duration": 0.6185564999999542
                },
                {
                    "name": "A#3",
                    "midi": 58,
                    "time": 711.3399750000002,
                    "velocity": 0.2125984251968504,
                    "duration": 0.6185564999999542
                },
                {
                    "name": "C3",
                    "midi": 48,
                    "time": 712.5770880000001,
                    "velocity": 0.2125984251968504,
                    "duration": 0.6185564999999542
                },
                {
                    "name": "G#3",
                    "midi": 56,
                    "time": 713.814201,
                    "velocity": 0.2125984251968504,
                    "duration": 0.6185564999999542
                },
                {
                    "name": "F3",
                    "midi": 53,
                    "time": 713.814201,
                    "velocity": 0.1732283464566929,
                    "duration": 0.6185564999999542
                },
                {
                    "name": "C3",
                    "midi": 48,
                    "time": 715.0513139999999,
                    "velocity": 0.2125984251968504,
                    "duration": 0.6185564999999542
                },
                {
                    "name": "G3",
                    "midi": 55,
                    "time": 716.2884269999998,
                    "velocity": 0.2125984251968504,
                    "duration": 0.6185564999999542
                },
                {
                    "name": "E3",
                    "midi": 52,
                    "time": 716.2884269999998,
                    "velocity": 0.1732283464566929,
                    "duration": 0.6185564999999542
                },
                {
                    "name": "F2",
                    "midi": 41,
                    "time": 717.5255399999998,
                    "velocity": 0.31496062992125984,
                    "duration": 0.6185564999999542
                },
                {
                    "name": "F3",
                    "midi": 53,
                    "time": 718.7626529999997,
                    "velocity": 0.1732283464566929,
                    "duration": 1.2371130000000221
                },
                {
                    "name": "F4",
                    "midi": 65,
                    "time": 718.7626529999997,
                    "velocity": 0.2125984251968504,
                    "duration": 1.2371130000000221
                },
                {
                    "name": "F4",
                    "midi": 65,
                    "time": 721.2368789999997,
                    "velocity": 0.2125984251968504,
                    "duration": 1.2371130000000221
                },
                {
                    "name": "F3",
                    "midi": 53,
                    "time": 721.2368789999997,
                    "velocity": 0.1732283464566929,
                    "duration": 1.2371130000000221
                },
                {
                    "name": "F3",
                    "midi": 53,
                    "time": 723.7111049999997,
                    "velocity": 0.1732283464566929,
                    "duration": 1.2371130000000221
                },
                {
                    "name": "F4",
                    "midi": 65,
                    "time": 723.7111049999997,
                    "velocity": 0.2125984251968504,
                    "duration": 1.2371130000000221
                },
                {
                    "name": "F3",
                    "midi": 53,
                    "time": 726.1853309999998,
                    "velocity": 0.1732283464566929,
                    "duration": 1.2371130000000221
                },
                {
                    "name": "F4",
                    "midi": 65,
                    "time": 726.1853309999998,
                    "velocity": 0.2125984251968504,
                    "duration": 1.2371130000000221
                },
                {
                    "name": "F3",
                    "midi": 53,
                    "time": 728.6595569999998,
                    "velocity": 0.1732283464566929,
                    "duration": 1.2371130000000221
                },
                {
                    "name": "F4",
                    "midi": 65,
                    "time": 728.6750209124998,
                    "velocity": 0.2125984251968504,
                    "duration": 1.2371130000000221
                },
                {
                    "name": "A#2",
                    "midi": 46,
                    "time": 729.8966699999999,
                    "velocity": 0.2125984251968504,
                    "duration": 0.6185564999999542
                },
                {
                    "name": "G3",
                    "midi": 55,
                    "time": 731.1337829999998,
                    "velocity": 0.1732283464566929,
                    "duration": 0.6185564999999542
                },
                {
                    "name": "A#3",
                    "midi": 58,
                    "time": 731.1337829999998,
                    "velocity": 0.2125984251968504,
                    "duration": 0.6185564999999542
                },
                {
                    "name": "C3",
                    "midi": 48,
                    "time": 732.3708959999997,
                    "velocity": 0.2125984251968504,
                    "duration": 0.6185564999999542
                },
                {
                    "name": "F3",
                    "midi": 53,
                    "time": 733.6080089999996,
                    "velocity": 0.1732283464566929,
                    "duration": 0.6185564999999542
                },
                {
                    "name": "A3",
                    "midi": 57,
                    "time": 733.6080089999996,
                    "velocity": 0.2125984251968504,
                    "duration": 0.6185564999999542
                },
                {
                    "name": "C3",
                    "midi": 48,
                    "time": 734.8451219999995,
                    "velocity": 0.2125984251968504,
                    "duration": 0.6185564999999542
                },
                {
                    "name": "A#3",
                    "midi": 58,
                    "time": 736.0822349999994,
                    "velocity": 0.2125984251968504,
                    "duration": 0.6185564999999542
                },
                {
                    "name": "E3",
                    "midi": 52,
                    "time": 736.0822349999994,
                    "velocity": 0.1732283464566929,
                    "duration": 0.6185564999999542
                },
                {
                    "name": "F3",
                    "midi": 53,
                    "time": 737.3193479999993,
                    "velocity": 0.3228346456692913,
                    "duration": 0.6185564999999542
                },
                {
                    "name": "A3",
                    "midi": 57,
                    "time": 737.3193479999993,
                    "velocity": 0.3228346456692913,
                    "duration": 0.6185564999999542
                },
                {
                    "name": "C4",
                    "midi": 60,
                    "time": 737.9379044999993,
                    "velocity": 0.2125984251968504,
                    "duration": 0.30927825000003395
                },
                {
                    "name": "C4",
                    "midi": 60,
                    "time": 738.5564609999993,
                    "velocity": 0.23622047244094488,
                    "duration": 0.30927825000003395
                },
                {
                    "name": "C4",
                    "midi": 60,
                    "time": 739.1750174999994,
                    "velocity": 0.2125984251968504,
                    "duration": 0.30927825000003395
                },
                {
                    "name": "C#4",
                    "midi": 61,
                    "time": 739.7935739999995,
                    "velocity": 0.29133858267716534,
                    "duration": 0.6185564999999542
                },
                {
                    "name": "C4",
                    "midi": 60,
                    "time": 740.4121304999994,
                    "velocity": 0.2125984251968504,
                    "duration": 0.6185564999999542
                },
                {
                    "name": "C4",
                    "midi": 60,
                    "time": 741.0306869999994,
                    "velocity": 0.23622047244094488,
                    "duration": 0.30927825000003395
                },
                {
                    "name": "C4",
                    "midi": 60,
                    "time": 741.6492434999994,
                    "velocity": 0.2125984251968504,
                    "duration": 0.30927825000003395
                },
                {
                    "name": "C3",
                    "midi": 48,
                    "time": 742.2677999999995,
                    "velocity": 0.2992125984251969,
                    "duration": 0.6185564999999542
                },
                {
                    "name": "C4",
                    "midi": 60,
                    "time": 742.8863564999995,
                    "velocity": 0.2125984251968504,
                    "duration": 0.30927825000003395
                },
                {
                    "name": "C4",
                    "midi": 60,
                    "time": 743.5049129999995,
                    "velocity": 0.2125984251968504,
                    "duration": 0.30927825000003395
                },
                {
                    "name": "C4",
                    "midi": 60,
                    "time": 744.1234694999996,
                    "velocity": 0.2125984251968504,
                    "duration": 0.30927825000003395
                },
                {
                    "name": "C3",
                    "midi": 48,
                    "time": 744.7420259999997,
                    "velocity": 0.3464566929133858,
                    "duration": 0.6185564999999542
                },
                {
                    "name": "C4",
                    "midi": 60,
                    "time": 745.3605824999996,
                    "velocity": 0.29133858267716534,
                    "duration": 0.30927825000003395
                },
                {
                    "name": "C4",
                    "midi": 60,
                    "time": 745.9791389999997,
                    "velocity": 0.31496062992125984,
                    "duration": 0.30927825000003395
                },
                {
                    "name": "C4",
                    "midi": 60,
                    "time": 746.5976954999998,
                    "velocity": 0.3464566929133858,
                    "duration": 0.30927825000003395
                },
                {
                    "name": "C3",
                    "midi": 48,
                    "time": 746.5976954999998,
                    "velocity": 0.3464566929133858,
                    "duration": 0.30927825000003395
                },
                {
                    "name": "A#3",
                    "midi": 58,
                    "time": 746.5976954999998,
                    "velocity": 0.3464566929133858,
                    "duration": 0.30927825000003395
                },
                {
                    "name": "A3",
                    "midi": 57,
                    "time": 747.2162519999998,
                    "velocity": 0.3779527559055118,
                    "duration": 0.6185564999999542
                },
                {
                    "name": "C4",
                    "midi": 60,
                    "time": 747.2162519999998,
                    "velocity": 0.3779527559055118,
                    "duration": 0.6185564999999542
                },
                {
                    "name": "F3",
                    "midi": 53,
                    "time": 747.2162519999998,
                    "velocity": 0.3779527559055118,
                    "duration": 0.6185564999999542
                },
                {
                    "name": "C4",
                    "midi": 60,
                    "time": 747.8348084999998,
                    "velocity": 0.2440944881889764,
                    "duration": 0.30927825000003395
                },
                {
                    "name": "C4",
                    "midi": 60,
                    "time": 748.4533649999998,
                    "velocity": 0.2677165354330709,
                    "duration": 0.30927825000003395
                },
                {
                    "name": "C4",
                    "midi": 60,
                    "time": 749.0719214999999,
                    "velocity": 0.2440944881889764,
                    "duration": 0.30927825000003395
                },
                {
                    "name": "C#4",
                    "midi": 61,
                    "time": 749.690478,
                    "velocity": 0.33070866141732286,
                    "duration": 0.6185564999999542
                },
                {
                    "name": "C4",
                    "midi": 60,
                    "time": 750.3090344999999,
                    "velocity": 0.2440944881889764,
                    "duration": 0.30927825000003395
                },
                {
                    "name": "C4",
                    "midi": 60,
                    "time": 750.927591,
                    "velocity": 0.2677165354330709,
                    "duration": 0.30927825000003395
                },
                {
                    "name": "D#4",
                    "midi": 63,
                    "time": 751.5461475000001,
                    "velocity": 0.2440944881889764,
                    "duration": 0.30927825000003395
                },
                {
                    "name": "D3",
                    "midi": 50,
                    "time": 752.1647040000001,
                    "velocity": 0.33858267716535434,
                    "duration": 0.6185564999999542
                },
                {
                    "name": "D4",
                    "midi": 62,
                    "time": 752.7832605000001,
                    "velocity": 0.2440944881889764,
                    "duration": 0.30927825000003395
                },
                {
                    "name": "D4",
                    "midi": 62,
                    "time": 753.4018170000002,
                    "velocity": 0.2440944881889764,
                    "duration": 0.30927825000003395
                },
                {
                    "name": "D4",
                    "midi": 62,
                    "time": 754.0203735000002,
                    "velocity": 0.2440944881889764,
                    "duration": 0.30927825000003395
                },
                {
                    "name": "D3",
                    "midi": 50,
                    "time": 754.6389300000003,
                    "velocity": 0.3937007874015748,
                    "duration": 0.6185564999999542
                },
                {
                    "name": "D4",
                    "midi": 62,
                    "time": 755.2574865000003,
                    "velocity": 0.33070866141732286,
                    "duration": 0.30927825000003395
                },
                {
                    "name": "D4",
                    "midi": 62,
                    "time": 755.8760430000003,
                    "velocity": 0.36220472440944884,
                    "duration": 0.30927825000003395
                },
                {
                    "name": "C4",
                    "midi": 60,
                    "time": 756.4945995000004,
                    "velocity": 0.3937007874015748,
                    "duration": 0.30927825000003395
                },
                {
                    "name": "D3",
                    "midi": 50,
                    "time": 756.4945995000004,
                    "velocity": 0.3937007874015748,
                    "duration": 0.30927825000003395
                },
                {
                    "name": "D4",
                    "midi": 62,
                    "time": 756.4945995000004,
                    "velocity": 0.3937007874015748,
                    "duration": 0.30927825000003395
                },
                {
                    "name": "G3",
                    "midi": 55,
                    "time": 757.1131560000005,
                    "velocity": 0.4330708661417323,
                    "duration": 0.6185564999999542
                },
                {
                    "name": "D4",
                    "midi": 62,
                    "time": 757.1131560000005,
                    "velocity": 0.4330708661417323,
                    "duration": 0.6185564999999542
                },
                {
                    "name": "A#3",
                    "midi": 58,
                    "time": 757.1131560000005,
                    "velocity": 0.4330708661417323,
                    "duration": 0.6185564999999542
                },
                {
                    "name": "D4",
                    "midi": 62,
                    "time": 757.7317125000004,
                    "velocity": 0.2440944881889764,
                    "duration": 0.30927825000003395
                },
                {
                    "name": "D4",
                    "midi": 62,
                    "time": 758.3502690000005,
                    "velocity": 0.2677165354330709,
                    "duration": 0.30927825000003395
                },
                {
                    "name": "D4",
                    "midi": 62,
                    "time": 758.9688255000005,
                    "velocity": 0.2440944881889764,
                    "duration": 0.30927825000003395
                },
                {
                    "name": "D#4",
                    "midi": 63,
                    "time": 759.5873820000006,
                    "velocity": 0.33070866141732286,
                    "duration": 0.6185564999999542
                },
                {
                    "name": "D4",
                    "midi": 62,
                    "time": 760.2059385000006,
                    "velocity": 0.2440944881889764,
                    "duration": 0.30927825000003395
                },
                {
                    "name": "D4",
                    "midi": 62,
                    "time": 760.8244950000006,
                    "velocity": 0.2677165354330709,
                    "duration": 0.30927825000003395
                },
                {
                    "name": "D4",
                    "midi": 62,
                    "time": 761.4430515000007,
                    "velocity": 0.2440944881889764,
                    "duration": 0.30927825000003395
                },
                {
                    "name": "E3",
                    "midi": 52,
                    "time": 762.0616080000008,
                    "velocity": 0.3858267716535433,
                    "duration": 2.474225999999817
                },
                {
                    "name": "C#4",
                    "midi": 61,
                    "time": 762.6801645000007,
                    "velocity": 0.2440944881889764,
                    "duration": 0.6185564999999542
                },
                {
                    "name": "A#3",
                    "midi": 58,
                    "time": 762.6801645000007,
                    "velocity": 0.2440944881889764,
                    "duration": 1.8556694999998626
                },
                {
                    "name": "C4",
                    "midi": 60,
                    "time": 763.2987210000007,
                    "velocity": 0.2677165354330709,
                    "duration": 0.6185564999999542
                },
                {
                    "name": "C#4",
                    "midi": 61,
                    "time": 763.9172775000006,
                    "velocity": 0.2440944881889764,
                    "duration": 0.6185564999999542
                },
                {
                    "name": "F3",
                    "midi": 53,
                    "time": 764.5358340000006,
                    "velocity": 0.3937007874015748,
                    "duration": 2.474225999999817
                },
                {
                    "name": "A3",
                    "midi": 57,
                    "time": 765.1543905000005,
                    "velocity": 0.2440944881889764,
                    "duration": 1.8556694999998626
                },
                {
                    "name": "D4",
                    "midi": 62,
                    "time": 765.1543905000005,
                    "velocity": 0.2440944881889764,
                    "duration": 0.6185564999999542
                },
                {
                    "name": "C4",
                    "midi": 60,
                    "time": 765.7729470000005,
                    "velocity": 0.2677165354330709,
                    "duration": 0.6185564999999542
                },
                {
                    "name": "F4",
                    "midi": 65,
                    "time": 766.3915035000005,
                    "velocity": 0.2440944881889764,
                    "duration": 0.6185564999999542
                },
                {
                    "name": "E3",
                    "midi": 52,
                    "time": 767.0100600000004,
                    "velocity": 0.3858267716535433,
                    "duration": 2.474225999999817
                },
                {
                    "name": "C#4",
                    "midi": 61,
                    "time": 767.6286165000004,
                    "velocity": 0.2440944881889764,
                    "duration": 0.6185564999999542
                },
                {
                    "name": "A#3",
                    "midi": 58,
                    "time": 767.6286165000004,
                    "velocity": 0.2440944881889764,
                    "duration": 1.8556694999998626
                },
                {
                    "name": "C4",
                    "midi": 60,
                    "time": 768.2471730000003,
                    "velocity": 0.2677165354330709,
                    "duration": 0.6185564999999542
                },
                {
                    "name": "C#4",
                    "midi": 61,
                    "time": 768.8657295000003,
                    "velocity": 0.2440944881889764,
                    "duration": 0.6185564999999542
                },
                {
                    "name": "F3",
                    "midi": 53,
                    "time": 769.4842860000002,
                    "velocity": 0.3937007874015748,
                    "duration": 2.474225999999817
                },
                {
                    "name": "D4",
                    "midi": 62,
                    "time": 770.1028425000002,
                    "velocity": 0.2440944881889764,
                    "duration": 0.6185564999999542
                },
                {
                    "name": "A3",
                    "midi": 57,
                    "time": 770.1028425000002,
                    "velocity": 0.2440944881889764,
                    "duration": 1.8556694999998626
                },
                {
                    "name": "C4",
                    "midi": 60,
                    "time": 770.7213990000001,
                    "velocity": 0.2677165354330709,
                    "duration": 0.6185564999999542
                },
                {
                    "name": "F4",
                    "midi": 65,
                    "time": 771.3399555000001,
                    "velocity": 0.2440944881889764,
                    "duration": 0.6185564999999542
                },
                {
                    "name": "A#2",
                    "midi": 46,
                    "time": 771.958512,
                    "velocity": 0.47244094488188976,
                    "duration": 0.30927825000003395
                },
                {
                    "name": "D4",
                    "midi": 62,
                    "time": 772.5770685000001,
                    "velocity": 0.41732283464566927,
                    "duration": 1.2371130000000221
                },
                {
                    "name": "A#3",
                    "midi": 58,
                    "time": 772.5770685000001,
                    "velocity": 0.41732283464566927,
                    "duration": 1.2371130000000221
                },
                {
                    "name": "A#3",
                    "midi": 58,
                    "time": 773.8141815000001,
                    "velocity": 0.3464566929133858,
                    "duration": 0.6185564999999542
                },
                {
                    "name": "D4",
                    "midi": 62,
                    "time": 773.8141815000001,
                    "velocity": 0.3464566929133858,
                    "duration": 0.6185564999999542
                },
                {
                    "name": "C3",
                    "midi": 48,
                    "time": 774.4327380000001,
                    "velocity": 0.47244094488188976,
                    "duration": 0.30927825000003395
                },
                {
                    "name": "C4",
                    "midi": 60,
                    "time": 775.0512945000002,
                    "velocity": 0.4094488188976378,
                    "duration": 1.2371130000000221
                },
                {
                    "name": "A3",
                    "midi": 57,
                    "time": 775.0512945000002,
                    "velocity": 0.4094488188976378,
                    "duration": 1.2371130000000221
                },
                {
                    "name": "A3",
                    "midi": 57,
                    "time": 776.2884075000002,
                    "velocity": 0.3543307086614173,
                    "duration": 0.6185564999999542
                },
                {
                    "name": "C4",
                    "midi": 60,
                    "time": 776.2884075000002,
                    "velocity": 0.3543307086614173,
                    "duration": 0.6185564999999542
                },
                {
                    "name": "C3",
                    "midi": 48,
                    "time": 776.9069640000001,
                    "velocity": 0.47244094488188976,
                    "duration": 0.30927825000003395
                },
                {
                    "name": "E3",
                    "midi": 52,
                    "time": 777.5255205000002,
                    "velocity": 0.36220472440944884,
                    "duration": 1.2371130000000221
                },
                {
                    "name": "A#3",
                    "midi": 58,
                    "time": 777.5255205000002,
                    "velocity": 0.36220472440944884,
                    "duration": 2.4742259999999305
                },
                {
                    "name": "C4",
                    "midi": 60,
                    "time": 777.5255205000002,
                    "velocity": 0.36220472440944884,
                    "duration": 2.4742259999999305
                },
                {
                    "name": "F3",
                    "midi": 53,
                    "time": 778.7626335000002,
                    "velocity": 0.36220472440944884,
                    "duration": 0.6185564999999542
                },
                {
                    "name": "G3",
                    "midi": 55,
                    "time": 779.3811900000002,
                    "velocity": 0.36220472440944884,
                    "duration": 0.6185564999999542
                },
                {
                    "name": "F3",
                    "midi": 53,
                    "time": 779.9997465000001,
                    "velocity": 0.3700787401574803,
                    "duration": 0.30927825000003395
                },
                {
                    "name": "C4",
                    "midi": 60,
                    "time": 779.9997465000001,
                    "velocity": 0.3700787401574803,
                    "duration": 0.30927825000003395
                },
                {
                    "name": "A#3",
                    "midi": 58,
                    "time": 779.9997465000001,
                    "velocity": 0.3700787401574803,
                    "duration": 0.30927825000003395
                },
                {
                    "name": "A#3",
                    "midi": 58,
                    "time": 780.6183030000002,
                    "velocity": 0.4015748031496063,
                    "duration": 0.30927825000003395
                },
                {
                    "name": "E3",
                    "midi": 52,
                    "time": 780.6183030000002,
                    "velocity": 0.4015748031496063,
                    "duration": 0.30927825000003395
                },
                {
                    "name": "C4",
                    "midi": 60,
                    "time": 780.6183030000002,
                    "velocity": 0.4015748031496063,
                    "duration": 0.30927825000003395
                },
                {
                    "name": "C4",
                    "midi": 60,
                    "time": 781.2368595000003,
                    "velocity": 0.4330708661417323,
                    "duration": 0.30927825000003395
                },
                {
                    "name": "A#3",
                    "midi": 58,
                    "time": 781.2368595000003,
                    "velocity": 0.4330708661417323,
                    "duration": 0.30927825000003395
                },
                {
                    "name": "C3",
                    "midi": 48,
                    "time": 781.2368595000003,
                    "velocity": 0.4330708661417323,
                    "duration": 0.30927825000003395
                },
                {
                    "name": "F3",
                    "midi": 53,
                    "time": 781.8554160000003,
                    "velocity": 0.4645669291338583,
                    "duration": 0.6185564999999542
                },
                {
                    "name": "C4",
                    "midi": 60,
                    "time": 781.8554160000003,
                    "velocity": 0.4645669291338583,
                    "duration": 0.6185564999999542
                },
                {
                    "name": "A3",
                    "midi": 57,
                    "time": 781.8554160000003,
                    "velocity": 0.4645669291338583,
                    "duration": 0.6185564999999542
                },
                {
                    "name": "F2",
                    "midi": 41,
                    "time": 782.4739725000003,
                    "velocity": 0.5196850393700787,
                    "duration": 0.30927825000003395
                },
                {
                    "name": "F2",
                    "midi": 41,
                    "time": 783.0925290000004,
                    "velocity": 0.5196850393700787,
                    "duration": 0.30927825000003395
                },
                {
                    "name": "F2",
                    "midi": 41,
                    "time": 783.7110855000004,
                    "velocity": 0.5196850393700787,
                    "duration": 0.30927825000003395
                },
                {
                    "name": "E2",
                    "midi": 40,
                    "time": 784.3296420000005,
                    "velocity": 0.5433070866141733,
                    "duration": 0.6185564999999542
                },
                {
                    "name": "F2",
                    "midi": 41,
                    "time": 784.9481985000004,
                    "velocity": 0.5118110236220472,
                    "duration": 0.30927825000003395
                },
                {
                    "name": "F2",
                    "midi": 41,
                    "time": 785.5667550000005,
                    "velocity": 0.5118110236220472,
                    "duration": 0.30927825000003395
                },
                {
                    "name": "F2",
                    "midi": 41,
                    "time": 786.1853115000006,
                    "velocity": 0.5118110236220472,
                    "duration": 0.30927825000003395
                },
                {
                    "name": "F#2",
                    "midi": 42,
                    "time": 786.8038680000006,
                    "velocity": 0.5354330708661418,
                    "duration": 0.9278347499999882
                },
                {
                    "name": "G2",
                    "midi": 43,
                    "time": 787.7317027500006,
                    "velocity": 0.47244094488188976,
                    "duration": 0.15463912500001697
                },
                {
                    "name": "A2",
                    "midi": 45,
                    "time": 787.8863418750007,
                    "velocity": 0.4409448818897638,
                    "duration": 0.15463912500001697
                },
                {
                    "name": "G2",
                    "midi": 43,
                    "time": 788.0409810000007,
                    "velocity": 0.5354330708661418,
                    "duration": 0.9278347499999882
                },
                {
                    "name": "A2",
                    "midi": 45,
                    "time": 788.9688157500007,
                    "velocity": 0.4881889763779528,
                    "duration": 0.15463912500001697
                },
                {
                    "name": "A#2",
                    "midi": 46,
                    "time": 789.1234548750007,
                    "velocity": 0.4566929133858268,
                    "duration": 0.15463912500001697
                },
                {
                    "name": "C3",
                    "midi": 48,
                    "time": 789.2780940000007,
                    "velocity": 0.5354330708661418,
                    "duration": 0.30927825000003395
                },
                {
                    "name": "A#3",
                    "midi": 58,
                    "time": 789.8966505000008,
                    "velocity": 0.5196850393700787,
                    "duration": 0.6185564999999542
                },
                {
                    "name": "G3",
                    "midi": 55,
                    "time": 789.8966505000008,
                    "velocity": 0.4409448818897638,
                    "duration": 0.6185564999999542
                },
                {
                    "name": "C3",
                    "midi": 48,
                    "time": 789.8966505000008,
                    "velocity": 0.4409448818897638,
                    "duration": 0.6185564999999542
                },
                {
                    "name": "G3",
                    "midi": 55,
                    "time": 790.5152070000007,
                    "velocity": 0.4409448818897638,
                    "duration": 0.6185564999999542
                },
                {
                    "name": "A#3",
                    "midi": 58,
                    "time": 790.5152070000007,
                    "velocity": 0.5196850393700787,
                    "duration": 0.6185564999999542
                },
                {
                    "name": "C3",
                    "midi": 48,
                    "time": 790.5152070000007,
                    "velocity": 0.4409448818897638,
                    "duration": 0.6185564999999542
                },
                {
                    "name": "C3",
                    "midi": 48,
                    "time": 791.1337635000007,
                    "velocity": 0.4409448818897638,
                    "duration": 0.6185564999999542
                },
                {
                    "name": "G3",
                    "midi": 55,
                    "time": 791.1337635000007,
                    "velocity": 0.4409448818897638,
                    "duration": 0.6185564999999542
                },
                {
                    "name": "A#3",
                    "midi": 58,
                    "time": 791.1337635000007,
                    "velocity": 0.5196850393700787,
                    "duration": 0.6185564999999542
                },
                {
                    "name": "F3",
                    "midi": 53,
                    "time": 791.7523200000006,
                    "velocity": 0.48031496062992124,
                    "duration": 0.6185564999999542
                },
                {
                    "name": "A3",
                    "midi": 57,
                    "time": 791.7523200000006,
                    "velocity": 0.5669291338582677,
                    "duration": 0.6185564999999542
                },
                {
                    "name": "F2",
                    "midi": 41,
                    "time": 792.3708765000006,
                    "velocity": 0.5196850393700787,
                    "duration": 0.30927825000003395
                },
                {
                    "name": "F2",
                    "midi": 41,
                    "time": 792.9894330000006,
                    "velocity": 0.5196850393700787,
                    "duration": 0.30927825000003395
                },
                {
                    "name": "F2",
                    "midi": 41,
                    "time": 793.6079895000007,
                    "velocity": 0.5196850393700787,
                    "duration": 0.30927825000003395
                },
                {
                    "name": "E2",
                    "midi": 40,
                    "time": 794.2265460000008,
                    "velocity": 0.5433070866141733,
                    "duration": 0.6185564999999542
                },
                {
                    "name": "F2",
                    "midi": 41,
                    "time": 794.8451025000007,
                    "velocity": 0.5118110236220472,
                    "duration": 0.30927825000003395
                },
                {
                    "name": "F2",
                    "midi": 41,
                    "time": 795.4636590000008,
                    "velocity": 0.5118110236220472,
                    "duration": 0.30927825000003395
                },
                {
                    "name": "F2",
                    "midi": 41,
                    "time": 796.0822155000009,
                    "velocity": 0.5118110236220472,
                    "duration": 0.30927825000003395
                },
                {
                    "name": "F#2",
                    "midi": 42,
                    "time": 796.7007720000009,
                    "velocity": 0.5354330708661418,
                    "duration": 0.9278347499999882
                },
                {
                    "name": "G2",
                    "midi": 43,
                    "time": 797.6286067500009,
                    "velocity": 0.47244094488188976,
                    "duration": 0.15463912500001697
                },
                {
                    "name": "A2",
                    "midi": 45,
                    "time": 797.783245875001,
                    "velocity": 0.4330708661417323,
                    "duration": 0.15463912500001697
                },
                {
                    "name": "G2",
                    "midi": 43,
                    "time": 797.937885000001,
                    "velocity": 0.5354330708661418,
                    "duration": 0.9278347499999882
                },
                {
                    "name": "A2",
                    "midi": 45,
                    "time": 798.865719750001,
                    "velocity": 0.4881889763779528,
                    "duration": 0.15463912500001697
                },
                {
                    "name": "A#2",
                    "midi": 46,
                    "time": 799.020358875001,
                    "velocity": 0.44881889763779526,
                    "duration": 0.15463912500001697
                },
                {
                    "name": "C3",
                    "midi": 48,
                    "time": 799.174998000001,
                    "velocity": 0.5354330708661418,
                    "duration": 0.30927825000003395
                },
                {
                    "name": "G3",
                    "midi": 55,
                    "time": 799.793554500001,
                    "velocity": 0.5196850393700787,
                    "duration": 0.6185564999999542
                },
                {
                    "name": "E3",
                    "midi": 52,
                    "time": 799.793554500001,
                    "velocity": 0.4409448818897638,
                    "duration": 0.6185564999999542
                },
                {
                    "name": "A2",
                    "midi": 45,
                    "time": 799.793554500001,
                    "velocity": 0.4409448818897638,
                    "duration": 0.6185564999999542
                },
                {
                    "name": "G3",
                    "midi": 55,
                    "time": 800.412111000001,
                    "velocity": 0.5196850393700787,
                    "duration": 0.6185564999999542
                },
                {
                    "name": "A2",
                    "midi": 45,
                    "time": 800.412111000001,
                    "velocity": 0.4409448818897638,
                    "duration": 0.6185564999999542
                },
                {
                    "name": "E3",
                    "midi": 52,
                    "time": 800.412111000001,
                    "velocity": 0.4409448818897638,
                    "duration": 0.6185564999999542
                },
                {
                    "name": "G3",
                    "midi": 55,
                    "time": 801.030667500001,
                    "velocity": 0.5196850393700787,
                    "duration": 0.6185564999999542
                },
                {
                    "name": "A2",
                    "midi": 45,
                    "time": 801.030667500001,
                    "velocity": 0.4409448818897638,
                    "duration": 0.6185564999999542
                },
                {
                    "name": "E3",
                    "midi": 52,
                    "time": 801.030667500001,
                    "velocity": 0.4409448818897638,
                    "duration": 0.6185564999999542
                },
                {
                    "name": "D3",
                    "midi": 50,
                    "time": 801.6492240000009,
                    "velocity": 0.48031496062992124,
                    "duration": 0.6185564999999542
                },
                {
                    "name": "F3",
                    "midi": 53,
                    "time": 801.6492240000009,
                    "velocity": 0.5669291338582677,
                    "duration": 0.6185564999999542
                },
                {
                    "name": "A#2",
                    "midi": 46,
                    "time": 802.2677805000009,
                    "velocity": 0.4409448818897638,
                    "duration": 0.30927825000003395
                },
                {
                    "name": "D3",
                    "midi": 50,
                    "time": 802.2677805000009,
                    "velocity": 0.5196850393700787,
                    "duration": 0.30927825000003395
                },
                {
                    "name": "D3",
                    "midi": 50,
                    "time": 802.8863370000009,
                    "velocity": 0.5196850393700787,
                    "duration": 0.30927825000003395
                },
                {
                    "name": "A#2",
                    "midi": 46,
                    "time": 802.8863370000009,
                    "velocity": 0.4409448818897638,
                    "duration": 0.30927825000003395
                },
                {
                    "name": "D3",
                    "midi": 50,
                    "time": 803.504893500001,
                    "velocity": 0.5196850393700787,
                    "duration": 0.30927825000003395
                },
                {
                    "name": "A#2",
                    "midi": 46,
                    "time": 803.504893500001,
                    "velocity": 0.4409448818897638,
                    "duration": 0.30927825000003395
                },
                {
                    "name": "A2",
                    "midi": 45,
                    "time": 804.1234500000011,
                    "velocity": 0.4566929133858268,
                    "duration": 0.6185564999999542
                },
                {
                    "name": "C#3",
                    "midi": 49,
                    "time": 804.1234500000011,
                    "velocity": 0.5433070866141733,
                    "duration": 0.6185564999999542
                },
                {
                    "name": "D3",
                    "midi": 50,
                    "time": 804.742006500001,
                    "velocity": 0.5118110236220472,
                    "duration": 0.30927825000003395
                },
                {
                    "name": "A#2",
                    "midi": 46,
                    "time": 804.742006500001,
                    "velocity": 0.4330708661417323,
                    "duration": 0.30927825000003395
                },
                {
                    "name": "D3",
                    "midi": 50,
                    "time": 805.3605630000011,
                    "velocity": 0.5118110236220472,
                    "duration": 0.30927825000003395
                },
                {
                    "name": "A#2",
                    "midi": 46,
                    "time": 805.3605630000011,
                    "velocity": 0.4330708661417323,
                    "duration": 0.30927825000003395
                },
                {
                    "name": "A#2",
                    "midi": 46,
                    "time": 805.9791195000012,
                    "velocity": 0.4330708661417323,
                    "duration": 0.30927825000003395
                },
                {
                    "name": "D3",
                    "midi": 50,
                    "time": 805.9791195000012,
                    "velocity": 0.5118110236220472,
                    "duration": 0.30927825000003395
                },
                {
                    "name": "B2",
                    "midi": 47,
                    "time": 806.5976760000012,
                    "velocity": 0.44881889763779526,
                    "duration": 1.2371130000000221
                },
                {
                    "name": "D3",
                    "midi": 50,
                    "time": 806.5976760000012,
                    "velocity": 0.5354330708661418,
                    "duration": 0.9278347499999882
                },
                {
                    "name": "D#3",
                    "midi": 51,
                    "time": 807.5255107500012,
                    "velocity": 0.47244094488188976,
                    "duration": 0.15463912500001697
                },
                {
                    "name": "F3",
                    "midi": 53,
                    "time": 807.6801498750012,
                    "velocity": 0.4409448818897638,
                    "duration": 0.15463912500001697
                },
                {
                    "name": "C3",
                    "midi": 48,
                    "time": 807.8347890000013,
                    "velocity": 0.44881889763779526,
                    "duration": 1.2371130000000221
                },
                {
                    "name": "D#3",
                    "midi": 51,
                    "time": 807.8347890000013,
                    "velocity": 0.5354330708661418,
                    "duration": 0.9278347499999882
                },
                {
                    "name": "F3",
                    "midi": 53,
                    "time": 808.7626237500012,
                    "velocity": 0.4881889763779528,
                    "duration": 0.15463912500001697
                },
                {
                    "name": "F#3",
                    "midi": 54,
                    "time": 808.9172628750013,
                    "velocity": 0.4566929133858268,
                    "duration": 0.15463912500001697
                },
                {
                    "name": "F2",
                    "midi": 41,
                    "time": 809.0719020000013,
                    "velocity": 0.44881889763779526,
                    "duration": 0.30927825000003395
                },
                {
                    "name": "C3",
                    "midi": 48,
                    "time": 809.0719020000013,
                    "velocity": 0.5354330708661418,
                    "duration": 0.30927825000003395
                },
                {
                    "name": "C4",
                    "midi": 60,
                    "time": 809.6904585000013,
                    "velocity": 0.4409448818897638,
                    "duration": 0.6185564999999542
                },
                {
                    "name": "F3",
                    "midi": 53,
                    "time": 809.6904585000013,
                    "velocity": 0.4409448818897638,
                    "duration": 0.6185564999999542
                },
                {
                    "name": "D#4",
                    "midi": 63,
                    "time": 809.6904585000013,
                    "velocity": 0.5196850393700787,
                    "duration": 0.6185564999999542
                },
                {
                    "name": "C4",
                    "midi": 60,
                    "time": 810.3090150000013,
                    "velocity": 0.4409448818897638,
                    "duration": 0.6185564999999542
                },
                {
                    "name": "D#4",
                    "midi": 63,
                    "time": 810.3090150000013,
                    "velocity": 0.5196850393700787,
                    "duration": 0.6185564999999542
                },
                {
                    "name": "F3",
                    "midi": 53,
                    "time": 810.3090150000013,
                    "velocity": 0.4409448818897638,
                    "duration": 0.6185564999999542
                },
                {
                    "name": "F3",
                    "midi": 53,
                    "time": 810.9275715000012,
                    "velocity": 0.4409448818897638,
                    "duration": 0.6185564999999542
                },
                {
                    "name": "C4",
                    "midi": 60,
                    "time": 810.9275715000012,
                    "velocity": 0.4409448818897638,
                    "duration": 0.6185564999999542
                },
                {
                    "name": "D#4",
                    "midi": 63,
                    "time": 810.9275715000012,
                    "velocity": 0.5196850393700787,
                    "duration": 0.6185564999999542
                },
                {
                    "name": "A#3",
                    "midi": 58,
                    "time": 811.5461280000012,
                    "velocity": 0.48031496062992124,
                    "duration": 0.6185564999999542
                },
                {
                    "name": "D4",
                    "midi": 62,
                    "time": 811.5461280000012,
                    "velocity": 0.5669291338582677,
                    "duration": 0.6185564999999542
                },
                {
                    "name": "D3",
                    "midi": 50,
                    "time": 812.1646845000012,
                    "velocity": 0.5196850393700787,
                    "duration": 0.30927825000003395
                },
                {
                    "name": "A#2",
                    "midi": 46,
                    "time": 812.1646845000012,
                    "velocity": 0.4409448818897638,
                    "duration": 0.30927825000003395
                },
                {
                    "name": "A#2",
                    "midi": 46,
                    "time": 812.7832410000012,
                    "velocity": 0.4409448818897638,
                    "duration": 0.30927825000003395
                },
                {
                    "name": "D3",
                    "midi": 50,
                    "time": 812.7832410000012,
                    "velocity": 0.5196850393700787,
                    "duration": 0.30927825000003395
                },
                {
                    "name": "A#2",
                    "midi": 46,
                    "time": 813.4017975000013,
                    "velocity": 0.4409448818897638,
                    "duration": 0.30927825000003395
                },
                {
                    "name": "D3",
                    "midi": 50,
                    "time": 813.4017975000013,
                    "velocity": 0.5196850393700787,
                    "duration": 0.30927825000003395
                },
                {
                    "name": "C#3",
                    "midi": 49,
                    "time": 814.0203540000014,
                    "velocity": 0.5433070866141733,
                    "duration": 0.6185564999999542
                },
                {
                    "name": "A2",
                    "midi": 45,
                    "time": 814.0203540000014,
                    "velocity": 0.4566929133858268,
                    "duration": 0.6185564999999542
                },
                {
                    "name": "D3",
                    "midi": 50,
                    "time": 814.6389105000013,
                    "velocity": 0.5118110236220472,
                    "duration": 0.30927825000003395
                },
                {
                    "name": "A#2",
                    "midi": 46,
                    "time": 814.6389105000013,
                    "velocity": 0.4330708661417323,
                    "duration": 0.30927825000003395
                },
                {
                    "name": "D3",
                    "midi": 50,
                    "time": 815.2574670000014,
                    "velocity": 0.5118110236220472,
                    "duration": 0.30927825000003395
                },
                {
                    "name": "A#2",
                    "midi": 46,
                    "time": 815.2574670000014,
                    "velocity": 0.4330708661417323,
                    "duration": 0.30927825000003395
                },
                {
                    "name": "A#2",
                    "midi": 46,
                    "time": 815.8760235000015,
                    "velocity": 0.4330708661417323,
                    "duration": 0.30927825000003395
                },
                {
                    "name": "D3",
                    "midi": 50,
                    "time": 815.8760235000015,
                    "velocity": 0.5118110236220472,
                    "duration": 0.30927825000003395
                },
                {
                    "name": "G#2",
                    "midi": 44,
                    "time": 816.4945800000015,
                    "velocity": 0.4566929133858268,
                    "duration": 0.6185564999999542
                },
                {
                    "name": "D3",
                    "midi": 50,
                    "time": 816.4945800000015,
                    "velocity": 0.4566929133858268,
                    "duration": 0.6185564999999542
                },
                {
                    "name": "F3",
                    "midi": 53,
                    "time": 816.4945800000015,
                    "velocity": 0.5433070866141733,
                    "duration": 0.6185564999999542
                },
                {
                    "name": "G2",
                    "midi": 43,
                    "time": 817.1131365000015,
                    "velocity": 0.4330708661417323,
                    "duration": 0.30927825000003395
                },
                {
                    "name": "F3",
                    "midi": 53,
                    "time": 817.1131365000015,
                    "velocity": 0.5118110236220472,
                    "duration": 0.30927825000003395
                },
                {
                    "name": "D3",
                    "midi": 50,
                    "time": 817.1131365000015,
                    "velocity": 0.4330708661417323,
                    "duration": 0.30927825000003395
                },
                {
                    "name": "G2",
                    "midi": 43,
                    "time": 817.7316930000015,
                    "velocity": 0.4330708661417323,
                    "duration": 0.30927825000003395
                },
                {
                    "name": "F3",
                    "midi": 53,
                    "time": 817.7316930000015,
                    "velocity": 0.5118110236220472,
                    "duration": 0.30927825000003395
                },
                {
                    "name": "D3",
                    "midi": 50,
                    "time": 817.7316930000015,
                    "velocity": 0.4330708661417323,
                    "duration": 0.30927825000003395
                },
                {
                    "name": "D3",
                    "midi": 50,
                    "time": 818.3502495000016,
                    "velocity": 0.4330708661417323,
                    "duration": 0.30927825000003395
                },
                {
                    "name": "F3",
                    "midi": 53,
                    "time": 818.3502495000016,
                    "velocity": 0.5118110236220472,
                    "duration": 0.30927825000003395
                },
                {
                    "name": "G2",
                    "midi": 43,
                    "time": 818.3502495000016,
                    "velocity": 0.4330708661417323,
                    "duration": 0.30927825000003395
                },
                {
                    "name": "C3",
                    "midi": 48,
                    "time": 818.9688060000017,
                    "velocity": 0.44881889763779526,
                    "duration": 0.30927825000003395
                },
                {
                    "name": "E3",
                    "midi": 52,
                    "time": 818.9688060000017,
                    "velocity": 0.5354330708661418,
                    "duration": 0.30927825000003395
                },
                {
                    "name": "C4",
                    "midi": 60,
                    "time": 819.5873625000017,
                    "velocity": 0.4409448818897638,
                    "duration": 0.6185564999999542
                },
                {
                    "name": "E4",
                    "midi": 64,
                    "time": 820.2059190000017,
                    "velocity": 0.5196850393700787,
                    "duration": 0.6185564999999542
                },
                {
                    "name": "C4",
                    "midi": 60,
                    "time": 820.2059190000017,
                    "velocity": 0.4409448818897638,
                    "duration": 0.6185564999999542
                },
                {
                    "name": "E4",
                    "midi": 64,
                    "time": 820.8244755000017,
                    "velocity": 0.5196850393700787,
                    "duration": 0.6185564999999542
                },
                {
                    "name": "C4",
                    "midi": 60,
                    "time": 820.8244755000017,
                    "velocity": 0.4409448818897638,
                    "duration": 0.6185564999999542
                },
                {
                    "name": "A#2",
                    "midi": 46,
                    "time": 821.4430320000016,
                    "velocity": 0.4566929133858268,
                    "duration": 0.6185564999999542
                },
                {
                    "name": "G3",
                    "midi": 55,
                    "time": 821.4430320000016,
                    "velocity": 0.5433070866141733,
                    "duration": 0.6185564999999542
                },
                {
                    "name": "E3",
                    "midi": 52,
                    "time": 821.4430320000016,
                    "velocity": 0.4566929133858268,
                    "duration": 0.6185564999999542
                },
                {
                    "name": "G3",
                    "midi": 55,
                    "time": 822.0615885000016,
                    "velocity": 0.5118110236220472,
                    "duration": 0.30927825000003395
                },
                {
                    "name": "E3",
                    "midi": 52,
                    "time": 822.0615885000016,
                    "velocity": 0.4330708661417323,
                    "duration": 0.30927825000003395
                },
                {
                    "name": "A2",
                    "midi": 45,
                    "time": 822.0615885000016,
                    "velocity": 0.4330708661417323,
                    "duration": 0.30927825000003395
                },
                {
                    "name": "G3",
                    "midi": 55,
                    "time": 822.6801450000016,
                    "velocity": 0.5118110236220472,
                    "duration": 0.30927825000003395
                },
                {
                    "name": "A2",
                    "midi": 45,
                    "time": 822.6801450000016,
                    "velocity": 0.4330708661417323,
                    "duration": 0.30927825000003395
                },
                {
                    "name": "E3",
                    "midi": 52,
                    "time": 822.6801450000016,
                    "velocity": 0.4330708661417323,
                    "duration": 0.30927825000003395
                },
                {
                    "name": "A2",
                    "midi": 45,
                    "time": 823.2987015000017,
                    "velocity": 0.4330708661417323,
                    "duration": 0.30927825000003395
                },
                {
                    "name": "G3",
                    "midi": 55,
                    "time": 823.2987015000017,
                    "velocity": 0.5118110236220472,
                    "duration": 0.30927825000003395
                },
                {
                    "name": "E3",
                    "midi": 52,
                    "time": 823.2987015000017,
                    "velocity": 0.4330708661417323,
                    "duration": 0.30927825000003395
                },
                {
                    "name": "D3",
                    "midi": 50,
                    "time": 823.9172580000018,
                    "velocity": 0.44881889763779526,
                    "duration": 0.30927825000003395
                },
                {
                    "name": "F#3",
                    "midi": 54,
                    "time": 823.9172580000018,
                    "velocity": 0.5354330708661418,
                    "duration": 0.30927825000003395
                },
                {
                    "name": "D4",
                    "midi": 62,
                    "time": 824.5358145000018,
                    "velocity": 0.4409448818897638,
                    "duration": 0.6185564999999542
                },
                {
                    "name": "D4",
                    "midi": 62,
                    "time": 825.1543710000018,
                    "velocity": 0.4409448818897638,
                    "duration": 0.6185564999999542
                },
                {
                    "name": "F#4",
                    "midi": 66,
                    "time": 825.1543710000018,
                    "velocity": 0.5196850393700787,
                    "duration": 0.6185564999999542
                },
                {
                    "name": "F#4",
                    "midi": 66,
                    "time": 825.7729275000017,
                    "velocity": 0.5196850393700787,
                    "duration": 0.6185564999999542
                },
                {
                    "name": "D4",
                    "midi": 62,
                    "time": 825.7729275000017,
                    "velocity": 0.4409448818897638,
                    "duration": 0.6185564999999542
                },
                {
                    "name": "D#3",
                    "midi": 51,
                    "time": 826.3914840000017,
                    "velocity": 0.4015748031496063,
                    "duration": 0.6185564999999542
                },
                {
                    "name": "D#4",
                    "midi": 63,
                    "time": 826.3914840000017,
                    "velocity": 0.47244094488188976,
                    "duration": 0.6185564999999542
                },
                {
                    "name": "D4",
                    "midi": 62,
                    "time": 827.0100405000017,
                    "velocity": 0.4094488188976378,
                    "duration": 0.4639173750000509
                },
                {
                    "name": "D3",
                    "midi": 50,
                    "time": 827.0100405000017,
                    "velocity": 0.3464566929133858,
                    "duration": 0.4639173750000509
                },
                {
                    "name": "D4",
                    "midi": 62,
                    "time": 827.6285970000017,
                    "velocity": 0.47244094488188976,
                    "duration": 0.6185564999999542
                },
                {
                    "name": "D3",
                    "midi": 50,
                    "time": 827.6285970000017,
                    "velocity": 0.4015748031496063,
                    "duration": 0.6185564999999542
                },
                {
                    "name": "C#3",
                    "midi": 49,
                    "time": 828.2471535000017,
                    "velocity": 0.3464566929133858,
                    "duration": 0.4639173750000509
                },
                {
                    "name": "C#4",
                    "midi": 61,
                    "time": 828.2471535000017,
                    "velocity": 0.4094488188976378,
                    "duration": 0.4639173750000509
                },
                {
                    "name": "C#3",
                    "midi": 49,
                    "time": 828.8657100000017,
                    "velocity": 0.4015748031496063,
                    "duration": 0.6185564999999542
                },
                {
                    "name": "C#4",
                    "midi": 61,
                    "time": 828.8657100000017,
                    "velocity": 0.47244094488188976,
                    "duration": 0.6185564999999542
                },
                {
                    "name": "D3",
                    "midi": 50,
                    "time": 829.4842665000017,
                    "velocity": 0.3228346456692913,
                    "duration": 0.4639173750000509
                },
                {
                    "name": "D4",
                    "midi": 62,
                    "time": 829.4842665000017,
                    "velocity": 0.3858267716535433,
                    "duration": 0.4639173750000509
                },
                {
                    "name": "D4",
                    "midi": 62,
                    "time": 830.1028230000018,
                    "velocity": 0.4251968503937008,
                    "duration": 0.6185564999999542
                },
                {
                    "name": "D3",
                    "midi": 50,
                    "time": 830.1028230000018,
                    "velocity": 0.36220472440944884,
                    "duration": 0.6185564999999542
                },
                {
                    "name": "A3",
                    "midi": 57,
                    "time": 830.7213795000017,
                    "velocity": 0.3858267716535433,
                    "duration": 0.4639173750000509
                },
                {
                    "name": "A2",
                    "midi": 45,
                    "time": 830.7213795000017,
                    "velocity": 0.3228346456692913,
                    "duration": 0.4639173750000509
                },
                {
                    "name": "G2",
                    "midi": 43,
                    "time": 831.3399360000018,
                    "velocity": 0.3543307086614173,
                    "duration": 0.6185564999999542
                },
                {
                    "name": "G3",
                    "midi": 55,
                    "time": 831.3399360000018,
                    "velocity": 0.41732283464566927,
                    "duration": 0.6185564999999542
                },
                {
                    "name": "F#2",
                    "midi": 42,
                    "time": 831.9584925000017,
                    "velocity": 0.30708661417322836,
                    "duration": 0.4639173750000509
                },
                {
                    "name": "F#3",
                    "midi": 54,
                    "time": 831.9584925000017,
                    "velocity": 0.3700787401574803,
                    "duration": 0.4639173750000509
                },
                {
                    "name": "F#3",
                    "midi": 54,
                    "time": 832.5770490000018,
                    "velocity": 0.3700787401574803,
                    "duration": 0.6185564999999542
                },
                {
                    "name": "F#2",
                    "midi": 42,
                    "time": 832.5770490000018,
                    "velocity": 0.30708661417322836,
                    "duration": 0.6185564999999542
                },
                {
                    "name": "E3",
                    "midi": 52,
                    "time": 833.1956055000018,
                    "velocity": 0.3700787401574803,
                    "duration": 0.4639173750000509
                },
                {
                    "name": "E2",
                    "midi": 40,
                    "time": 833.1956055000018,
                    "velocity": 0.30708661417322836,
                    "duration": 0.4639173750000509
                },
                {
                    "name": "E3",
                    "midi": 52,
                    "time": 833.8141620000018,
                    "velocity": 0.4015748031496063,
                    "duration": 0.6185564999999542
                },
                {
                    "name": "E2",
                    "midi": 40,
                    "time": 833.8141620000018,
                    "velocity": 0.33858267716535434,
                    "duration": 0.6185564999999542
                },
                {
                    "name": "D3",
                    "midi": 50,
                    "time": 834.4327185000018,
                    "velocity": 0.3464566929133858,
                    "duration": 0.3118555687500475
                },
                {
                    "name": "D2",
                    "midi": 38,
                    "time": 834.4327185000018,
                    "velocity": 0.29133858267716534,
                    "duration": 0.3118555687500475
                },
                {
                    "name": "D2",
                    "midi": 38,
                    "time": 835.0512750000019,
                    "velocity": 0.30708661417322836,
                    "duration": 0.3118555687500475
                },
                {
                    "name": "D3",
                    "midi": 50,
                    "time": 835.0512750000019,
                    "velocity": 0.36220472440944884,
                    "duration": 0.3118555687500475
                },
                {
                    "name": "D3",
                    "midi": 50,
                    "time": 835.6698315000019,
                    "velocity": 0.3464566929133858,
                    "duration": 0.3118555687500475
                },
                {
                    "name": "D2",
                    "midi": 38,
                    "time": 835.6698315000019,
                    "velocity": 0.29133858267716534,
                    "duration": 0.3118555687500475
                },
                {
                    "name": "D#3",
                    "midi": 51,
                    "time": 836.288388000002,
                    "velocity": 0.3779527559055118,
                    "duration": 0.6185564999999542
                },
                {
                    "name": "D#2",
                    "midi": 39,
                    "time": 836.288388000002,
                    "velocity": 0.31496062992125984,
                    "duration": 0.6185564999999542
                },
                {
                    "name": "D2",
                    "midi": 38,
                    "time": 836.9069445000019,
                    "velocity": 0.2755905511811024,
                    "duration": 0.4639173750000509
                },
                {
                    "name": "D3",
                    "midi": 50,
                    "time": 836.9069445000019,
                    "velocity": 0.3228346456692913,
                    "duration": 0.4639173750000509
                },
                {
                    "name": "D3",
                    "midi": 50,
                    "time": 837.525501000002,
                    "velocity": 0.3779527559055118,
                    "duration": 0.6185564999999542
                },
                {
                    "name": "D2",
                    "midi": 38,
                    "time": 837.525501000002,
                    "velocity": 0.31496062992125984,
                    "duration": 0.6185564999999542
                },
                {
                    "name": "C#2",
                    "midi": 37,
                    "time": 838.144057500002,
                    "velocity": 0.2755905511811024,
                    "duration": 0.4639173750000509
                },
                {
                    "name": "C#3",
                    "midi": 49,
                    "time": 838.144057500002,
                    "velocity": 0.3228346456692913,
                    "duration": 0.4639173750000509
                },
                {
                    "name": "C#2",
                    "midi": 37,
                    "time": 838.762614000002,
                    "velocity": 0.31496062992125984,
                    "duration": 0.6185564999999542
                },
                {
                    "name": "C#3",
                    "midi": 49,
                    "time": 838.762614000002,
                    "velocity": 0.3779527559055118,
                    "duration": 0.6185564999999542
                },
                {
                    "name": "D3",
                    "midi": 50,
                    "time": 839.381170500002,
                    "velocity": 0.30708661417322836,
                    "duration": 0.4639173750000509
                },
                {
                    "name": "D2",
                    "midi": 38,
                    "time": 839.381170500002,
                    "velocity": 0.25196850393700787,
                    "duration": 0.4639173750000509
                },
                {
                    "name": "D3",
                    "midi": 50,
                    "time": 839.999727000002,
                    "velocity": 0.33858267716535434,
                    "duration": 0.6185564999999542
                },
                {
                    "name": "D2",
                    "midi": 38,
                    "time": 839.999727000002,
                    "velocity": 0.28346456692913385,
                    "duration": 0.6185564999999542
                },
                {
                    "name": "A2",
                    "midi": 45,
                    "time": 840.618283500002,
                    "velocity": 0.30708661417322836,
                    "duration": 0.4639173750000509
                },
                {
                    "name": "G2",
                    "midi": 43,
                    "time": 841.2368400000021,
                    "velocity": 0.30708661417322836,
                    "duration": 0.6185564999999542
                },
                {
                    "name": "F#2",
                    "midi": 42,
                    "time": 841.855396500002,
                    "velocity": 0.2677165354330709,
                    "duration": 0.4639173750000509
                },
                {
                    "name": "F#2",
                    "midi": 42,
                    "time": 842.4739530000021,
                    "velocity": 0.2677165354330709,
                    "duration": 0.6185564999999542
                },
                {
                    "name": "E2",
                    "midi": 40,
                    "time": 843.092509500002,
                    "velocity": 0.25984251968503935,
                    "duration": 0.4639173750000509
                },
                {
                    "name": "E2",
                    "midi": 40,
                    "time": 843.7110660000021,
                    "velocity": 0.2755905511811024,
                    "duration": 0.6185564999999542
                },
                {
                    "name": "D2",
                    "midi": 38,
                    "time": 844.3296225000021,
                    "velocity": 0.23622047244094488,
                    "duration": 0.3118555687500475
                },
                {
                    "name": "D2",
                    "midi": 38,
                    "time": 844.9481790000021,
                    "velocity": 0.23622047244094488,
                    "duration": 0.3118555687500475
                },
                {
                    "name": "D2",
                    "midi": 38,
                    "time": 845.5667355000022,
                    "velocity": 0.2204724409448819,
                    "duration": 0.3118555687500475
                },
                {
                    "name": "D2",
                    "midi": 38,
                    "time": 846.1852920000023,
                    "velocity": 0.2125984251968504,
                    "duration": 0.3118555687500475
                },
                {
                    "name": "D2",
                    "midi": 38,
                    "time": 846.8038485000023,
                    "velocity": 0.1968503937007874,
                    "duration": 0.3118555687500475
                },
                {
                    "name": "D2",
                    "midi": 38,
                    "time": 847.4224050000024,
                    "velocity": 0.2125984251968504,
                    "duration": 0.3118555687500475
                },
                {
                    "name": "D2",
                    "midi": 38,
                    "time": 848.0409615000025,
                    "velocity": 0.1968503937007874,
                    "duration": 0.3118555687500475
                },
                {
                    "name": "D2",
                    "midi": 38,
                    "time": 848.6595180000025,
                    "velocity": 0.2125984251968504,
                    "duration": 0.3118555687500475
                },
                {
                    "name": "D2",
                    "midi": 38,
                    "time": 849.2780745000026,
                    "velocity": 0.1968503937007874,
                    "duration": 0.3118555687500475
                },
                {
                    "name": "D2",
                    "midi": 38,
                    "time": 849.8966310000027,
                    "velocity": 0.2125984251968504,
                    "duration": 0.3118555687500475
                },
                {
                    "name": "D2",
                    "midi": 38,
                    "time": 850.5151875000028,
                    "velocity": 0.1968503937007874,
                    "duration": 0.3118555687500475
                },
                {
                    "name": "C#3",
                    "midi": 49,
                    "time": 851.1337440000028,
                    "velocity": 0.1732283464566929,
                    "duration": 0.6185564999999542
                },
                {
                    "name": "C3",
                    "midi": 48,
                    "time": 851.7523005000028,
                    "velocity": 0.16535433070866143,
                    "duration": 0.3118555687500475
                },
                {
                    "name": "C3",
                    "midi": 48,
                    "time": 852.3708570000028,
                    "velocity": 0.1732283464566929,
                    "duration": 0.3118555687500475
                },
                {
                    "name": "C3",
                    "midi": 48,
                    "time": 852.9894135000029,
                    "velocity": 0.16535433070866143,
                    "duration": 0.3118555687500475
                },
                {
                    "name": "C3",
                    "midi": 48,
                    "time": 853.607970000003,
                    "velocity": 0.1732283464566929,
                    "duration": 0.3118555687500475
                },
                {
                    "name": "C3",
                    "midi": 48,
                    "time": 854.226526500003,
                    "velocity": 0.16535433070866143,
                    "duration": 0.3118555687500475
                },
                {
                    "name": "C3",
                    "midi": 48,
                    "time": 854.8450830000031,
                    "velocity": 0.1732283464566929,
                    "duration": 0.3118555687500475
                },
                {
                    "name": "C3",
                    "midi": 48,
                    "time": 855.4636395000032,
                    "velocity": 0.16535433070866143,
                    "duration": 0.3118555687500475
                },
                {
                    "name": "F2",
                    "midi": 41,
                    "time": 856.0821960000033,
                    "velocity": 0.25984251968503935,
                    "duration": 4.948452000000316
                },
                {
                    "name": "C3",
                    "midi": 48,
                    "time": 856.7007525000032,
                    "velocity": 0.1968503937007874,
                    "duration": 0.4639173750000509
                },
                {
                    "name": "C3",
                    "midi": 48,
                    "time": 857.3193090000033,
                    "velocity": 0.1968503937007874,
                    "duration": 0.4639173750000509
                },
                {
                    "name": "C3",
                    "midi": 48,
                    "time": 857.9378655000033,
                    "velocity": 0.1968503937007874,
                    "duration": 0.4639173750000509
                },
                {
                    "name": "C3",
                    "midi": 48,
                    "time": 858.5564220000034,
                    "velocity": 0.25984251968503935,
                    "duration": 0.6185564999999542
                },
                {
                    "name": "F3",
                    "midi": 53,
                    "time": 859.1749785000034,
                    "velocity": 0.2047244094488189,
                    "duration": 0.4639173750000509
                },
                {
                    "name": "F3",
                    "midi": 53,
                    "time": 859.7935350000034,
                    "velocity": 0.2125984251968504,
                    "duration": 0.4639173750000509
                },
                {
                    "name": "F3",
                    "midi": 53,
                    "time": 860.4120915000035,
                    "velocity": 0.2283464566929134,
                    "duration": 0.4639173750000509
                },
                {
                    "name": "A#2",
                    "midi": 46,
                    "time": 861.0306480000036,
                    "velocity": 0.2992125984251969,
                    "duration": 4.3298955000000205
                },
                {
                    "name": "F3",
                    "midi": 53,
                    "time": 861.6492045000035,
                    "velocity": 0.1968503937007874,
                    "duration": 0.4639173750000509
                },
                {
                    "name": "F3",
                    "midi": 53,
                    "time": 862.2677610000036,
                    "velocity": 0.1968503937007874,
                    "duration": 0.4639173750000509
                },
                {
                    "name": "F3",
                    "midi": 53,
                    "time": 862.8863175000037,
                    "velocity": 0.2125984251968504,
                    "duration": 0.4639173750000509
                },
                {
                    "name": "F3",
                    "midi": 53,
                    "time": 863.5048740000037,
                    "velocity": 0.25984251968503935,
                    "duration": 0.6185564999999542
                },
                {
                    "name": "F#3",
                    "midi": 54,
                    "time": 864.1234305000037,
                    "velocity": 0.2125984251968504,
                    "duration": 0.6185564999999542
                },
                {
                    "name": "G3",
                    "midi": 55,
                    "time": 864.7419870000036,
                    "velocity": 0.2125984251968504,
                    "duration": 0.6185564999999542
                },
                {
                    "name": "D3",
                    "midi": 50,
                    "time": 865.3605435000036,
                    "velocity": 0.2125984251968504,
                    "duration": 0.6185564999999542
                },
                {
                    "name": "B2",
                    "midi": 47,
                    "time": 865.3605435000036,
                    "velocity": 0.2125984251968504,
                    "duration": 0.6185564999999542
                },
                {
                    "name": "C2",
                    "midi": 36,
                    "time": 865.9791000000035,
                    "velocity": 0.25984251968503935,
                    "duration": 4.948452000000202
                },
                {
                    "name": "C3",
                    "midi": 48,
                    "time": 866.5976565000035,
                    "velocity": 0.1968503937007874,
                    "duration": 0.4639173750000509
                },
                {
                    "name": "C3",
                    "midi": 48,
                    "time": 867.2162130000036,
                    "velocity": 0.1968503937007874,
                    "duration": 0.4639173750000509
                },
                {
                    "name": "C3",
                    "midi": 48,
                    "time": 867.8347695000036,
                    "velocity": 0.1968503937007874,
                    "duration": 0.4639173750000509
                },
                {
                    "name": "C3",
                    "midi": 48,
                    "time": 868.4533260000037,
                    "velocity": 0.25984251968503935,
                    "duration": 0.4639173750000509
                },
                {
                    "name": "C3",
                    "midi": 48,
                    "time": 869.0718825000038,
                    "velocity": 0.2047244094488189,
                    "duration": 0.4639173750000509
                },
                {
                    "name": "C3",
                    "midi": 48,
                    "time": 869.6904390000038,
                    "velocity": 0.2125984251968504,
                    "duration": 0.6185564999999542
                },
                {
                    "name": "C3",
                    "midi": 48,
                    "time": 870.3089955000038,
                    "velocity": 0.2283464566929134,
                    "duration": 0.6185564999999542
                },
                {
                    "name": "F2",
                    "midi": 41,
                    "time": 870.9275520000037,
                    "velocity": 0.2992125984251969,
                    "duration": 3.7113390000002937
                },
                {
                    "name": "C3",
                    "midi": 48,
                    "time": 871.5461085000037,
                    "velocity": 0.1968503937007874,
                    "duration": 0.4639173750000509
                },
                {
                    "name": "C3",
                    "midi": 48,
                    "time": 872.1646650000038,
                    "velocity": 0.1968503937007874,
                    "duration": 0.4639173750000509
                },
                {
                    "name": "C3",
                    "midi": 48,
                    "time": 872.7832215000038,
                    "velocity": 0.2125984251968504,
                    "duration": 0.4639173750000509
                },
                {
                    "name": "C3",
                    "midi": 48,
                    "time": 873.4017780000039,
                    "velocity": 0.25984251968503935,
                    "duration": 0.4639173750000509
                },
                {
                    "name": "C3",
                    "midi": 48,
                    "time": 874.020334500004,
                    "velocity": 0.2125984251968504,
                    "duration": 0.4639173750000509
                },
                {
                    "name": "C3",
                    "midi": 48,
                    "time": 874.638891000004,
                    "velocity": 0.2125984251968504,
                    "duration": 0.6185564999999542
                },
                {
                    "name": "F2",
                    "midi": 41,
                    "time": 874.638891000004,
                    "velocity": 0.2125984251968504,
                    "duration": 0.6185564999999542
                },
                {
                    "name": "A2",
                    "midi": 45,
                    "time": 875.257447500004,
                    "velocity": 0.2125984251968504,
                    "duration": 0.6185564999999542
                },
                {
                    "name": "C3",
                    "midi": 48,
                    "time": 875.257447500004,
                    "velocity": 0.2125984251968504,
                    "duration": 0.6185564999999542
                },
                {
                    "name": "C2",
                    "midi": 36,
                    "time": 875.876004000004,
                    "velocity": 0.25984251968503935,
                    "duration": 4.948452000000202
                },
                {
                    "name": "C3",
                    "midi": 48,
                    "time": 876.4945605000039,
                    "velocity": 0.1968503937007874,
                    "duration": 0.4639173750000509
                },
                {
                    "name": "C3",
                    "midi": 48,
                    "time": 877.113117000004,
                    "velocity": 0.1968503937007874,
                    "duration": 0.4639173750000509
                },
                {
                    "name": "C3",
                    "midi": 48,
                    "time": 877.731673500004,
                    "velocity": 0.1968503937007874,
                    "duration": 0.4639173750000509
                },
                {
                    "name": "C3",
                    "midi": 48,
                    "time": 878.3502300000041,
                    "velocity": 0.25984251968503935,
                    "duration": 0.4639173750000509
                },
                {
                    "name": "C3",
                    "midi": 48,
                    "time": 878.9687865000042,
                    "velocity": 0.2047244094488189,
                    "duration": 0.4639173750000509
                },
                {
                    "name": "C3",
                    "midi": 48,
                    "time": 879.5873430000042,
                    "velocity": 0.2125984251968504,
                    "duration": 0.6185564999999542
                },
                {
                    "name": "C3",
                    "midi": 48,
                    "time": 880.2058995000042,
                    "velocity": 0.2283464566929134,
                    "duration": 0.6185564999999542
                },
                {
                    "name": "F2",
                    "midi": 41,
                    "time": 880.8244560000041,
                    "velocity": 0.2992125984251969,
                    "duration": 2.938143375000209
                },
                {
                    "name": "C3",
                    "midi": 48,
                    "time": 881.4430125000041,
                    "velocity": 0.1968503937007874,
                    "duration": 0.4639173750000509
                },
                {
                    "name": "A2",
                    "midi": 45,
                    "time": 882.0615690000042,
                    "velocity": 0.1968503937007874,
                    "duration": 0.4639173750000509
                },
                {
                    "name": "C3",
                    "midi": 48,
                    "time": 882.6801255000042,
                    "velocity": 0.2125984251968504,
                    "duration": 0.4639173750000509
                },
                {
                    "name": "F3",
                    "midi": 53,
                    "time": 883.2986820000043,
                    "velocity": 0.25984251968503935,
                    "duration": 0.4639173750000509
                },
                {
                    "name": "C4",
                    "midi": 60,
                    "time": 883.9172385000044,
                    "velocity": 0.2440944881889764,
                    "duration": 0.6185564999999542
                },
                {
                    "name": "A3",
                    "midi": 57,
                    "time": 883.9172385000044,
                    "velocity": 0.2440944881889764,
                    "duration": 0.6185564999999542
                },
                {
                    "name": "F4",
                    "midi": 65,
                    "time": 884.5357950000043,
                    "velocity": 0.2440944881889764,
                    "duration": 0.6185564999999542
                },
                {
                    "name": "A3",
                    "midi": 57,
                    "time": 884.5357950000043,
                    "velocity": 0.2440944881889764,
                    "duration": 0.6185564999999542
                },
                {
                    "name": "C4",
                    "midi": 60,
                    "time": 884.5357950000043,
                    "velocity": 0.2440944881889764,
                    "duration": 0.6185564999999542
                },
                {
                    "name": "C4",
                    "midi": 60,
                    "time": 885.1543515000043,
                    "velocity": 0.2440944881889764,
                    "duration": 0.6185564999999542
                },
                {
                    "name": "G4",
                    "midi": 67,
                    "time": 885.1543515000043,
                    "velocity": 0.2440944881889764,
                    "duration": 0.6185564999999542
                },
                {
                    "name": "E4",
                    "midi": 64,
                    "time": 885.1543515000043,
                    "velocity": 0.2440944881889764,
                    "duration": 0.6185564999999542
                },
                {
                    "name": "F3",
                    "midi": 53,
                    "time": 885.7729080000042,
                    "velocity": 0.36220472440944884,
                    "duration": 0.30927825000003395
                },
                {
                    "name": "C4",
                    "midi": 60,
                    "time": 886.3914645000043,
                    "velocity": 0.18110236220472442,
                    "duration": 0.4639173750000509
                },
                {
                    "name": "A4",
                    "midi": 69,
                    "time": 886.3914645000043,
                    "velocity": 0.2204724409448819,
                    "duration": 0.4639173750000509
                },
                {
                    "name": "F4",
                    "midi": 65,
                    "time": 886.3914645000043,
                    "velocity": 0.18110236220472442,
                    "duration": 0.4639173750000509
                },
                {
                    "name": "A4",
                    "midi": 69,
                    "time": 887.0100210000044,
                    "velocity": 0.2204724409448819,
                    "duration": 0.4639173750000509
                },
                {
                    "name": "C4",
                    "midi": 60,
                    "time": 887.0100210000044,
                    "velocity": 0.18110236220472442,
                    "duration": 0.4639173750000509
                },
                {
                    "name": "F4",
                    "midi": 65,
                    "time": 887.0100210000044,
                    "velocity": 0.18110236220472442,
                    "duration": 0.4639173750000509
                },
                {
                    "name": "A4",
                    "midi": 69,
                    "time": 887.6285775000044,
                    "velocity": 0.2204724409448819,
                    "duration": 0.4639173750000509
                },
                {
                    "name": "F4",
                    "midi": 65,
                    "time": 887.6285775000044,
                    "velocity": 0.18110236220472442,
                    "duration": 0.4639173750000509
                },
                {
                    "name": "C4",
                    "midi": 60,
                    "time": 887.6285775000044,
                    "velocity": 0.18110236220472442,
                    "duration": 0.4639173750000509
                },
                {
                    "name": "G#4",
                    "midi": 68,
                    "time": 888.2471340000045,
                    "velocity": 0.29133858267716534,
                    "duration": 0.6185564999999542
                },
                {
                    "name": "F4",
                    "midi": 65,
                    "time": 888.2471340000045,
                    "velocity": 0.2440944881889764,
                    "duration": 0.6185564999999542
                },
                {
                    "name": "B3",
                    "midi": 59,
                    "time": 888.2471340000045,
                    "velocity": 0.2440944881889764,
                    "duration": 0.6185564999999542
                },
                {
                    "name": "A4",
                    "midi": 69,
                    "time": 888.8656905000045,
                    "velocity": 0.2283464566929134,
                    "duration": 0.4639173750000509
                },
                {
                    "name": "C4",
                    "midi": 60,
                    "time": 888.8656905000045,
                    "velocity": 0.1889763779527559,
                    "duration": 0.4639173750000509
                },
                {
                    "name": "F4",
                    "midi": 65,
                    "time": 888.8656905000045,
                    "velocity": 0.1889763779527559,
                    "duration": 0.4639173750000509
                },
                {
                    "name": "F4",
                    "midi": 65,
                    "time": 889.4842470000045,
                    "velocity": 0.2047244094488189,
                    "duration": 0.4639173750000509
                },
                {
                    "name": "A4",
                    "midi": 69,
                    "time": 889.4842470000045,
                    "velocity": 0.2440944881889764,
                    "duration": 0.4639173750000509
                },
                {
                    "name": "C4",
                    "midi": 60,
                    "time": 889.4842470000045,
                    "velocity": 0.2047244094488189,
                    "duration": 0.4639173750000509
                },
                {
                    "name": "F4",
                    "midi": 65,
                    "time": 890.1028035000046,
                    "velocity": 0.2204724409448819,
                    "duration": 0.4639173750000509
                },
                {
                    "name": "C4",
                    "midi": 60,
                    "time": 890.1028035000046,
                    "velocity": 0.2204724409448819,
                    "duration": 0.4639173750000509
                },
                {
                    "name": "A4",
                    "midi": 69,
                    "time": 890.1028035000046,
                    "velocity": 0.25984251968503935,
                    "duration": 0.4639173750000509
                },
                {
                    "name": "A#3",
                    "midi": 58,
                    "time": 890.7213600000047,
                    "velocity": 0.33858267716535434,
                    "duration": 4.3298955000000205
                },
                {
                    "name": "F4",
                    "midi": 65,
                    "time": 891.3399165000046,
                    "velocity": 0.18110236220472442,
                    "duration": 0.4639173750000509
                },
                {
                    "name": "A#4",
                    "midi": 70,
                    "time": 891.3399165000046,
                    "velocity": 0.2204724409448819,
                    "duration": 0.4639173750000509
                },
                {
                    "name": "D4",
                    "midi": 62,
                    "time": 891.3399165000046,
                    "velocity": 0.18110236220472442,
                    "duration": 0.4639173750000509
                },
                {
                    "name": "F4",
                    "midi": 65,
                    "time": 891.9584730000047,
                    "velocity": 0.18110236220472442,
                    "duration": 0.4639173750000509
                },
                {
                    "name": "A#4",
                    "midi": 70,
                    "time": 891.9584730000047,
                    "velocity": 0.2204724409448819,
                    "duration": 0.4639173750000509
                },
                {
                    "name": "D4",
                    "midi": 62,
                    "time": 891.9584730000047,
                    "velocity": 0.18110236220472442,
                    "duration": 0.4639173750000509
                },
                {
                    "name": "F4",
                    "midi": 65,
                    "time": 892.5770295000048,
                    "velocity": 0.2047244094488189,
                    "duration": 0.4639173750000509
                },
                {
                    "name": "A#4",
                    "midi": 70,
                    "time": 892.5770295000048,
                    "velocity": 0.2440944881889764,
                    "duration": 0.4639173750000509
                },
                {
                    "name": "D4",
                    "midi": 62,
                    "time": 892.5770295000048,
                    "velocity": 0.2047244094488189,
                    "duration": 0.4639173750000509
                },
                {
                    "name": "F4",
                    "midi": 65,
                    "time": 893.1955860000048,
                    "velocity": 0.2440944881889764,
                    "duration": 0.6185564999999542
                },
                {
                    "name": "A#4",
                    "midi": 70,
                    "time": 893.1955860000048,
                    "velocity": 0.29133858267716534,
                    "duration": 0.6185564999999542
                },
                {
                    "name": "D4",
                    "midi": 62,
                    "time": 893.1955860000048,
                    "velocity": 0.2440944881889764,
                    "duration": 0.6185564999999542
                },
                {
                    "name": "A4",
                    "midi": 69,
                    "time": 893.8141425000048,
                    "velocity": 0.2440944881889764,
                    "duration": 0.6185564999999542
                },
                {
                    "name": "D4",
                    "midi": 62,
                    "time": 893.8141425000048,
                    "velocity": 0.2047244094488189,
                    "duration": 0.6185564999999542
                },
                {
                    "name": "F#4",
                    "midi": 66,
                    "time": 893.8141425000048,
                    "velocity": 0.2047244094488189,
                    "duration": 0.6185564999999542
                },
                {
                    "name": "G4",
                    "midi": 67,
                    "time": 894.4326990000047,
                    "velocity": 0.2440944881889764,
                    "duration": 0.6185564999999542
                },
                {
                    "name": "D4",
                    "midi": 62,
                    "time": 894.4326990000047,
                    "velocity": 0.2047244094488189,
                    "duration": 0.6185564999999542
                },
                {
                    "name": "B3",
                    "midi": 59,
                    "time": 895.0512555000047,
                    "velocity": 0.2047244094488189,
                    "duration": 0.6185564999999542
                },
                {
                    "name": "F4",
                    "midi": 65,
                    "time": 895.0512555000047,
                    "velocity": 0.2440944881889764,
                    "duration": 0.6185564999999542
                },
                {
                    "name": "D4",
                    "midi": 62,
                    "time": 895.0512555000047,
                    "velocity": 0.2047244094488189,
                    "duration": 0.6185564999999542
                },
                {
                    "name": "C3",
                    "midi": 48,
                    "time": 895.6698120000046,
                    "velocity": 0.29133858267716534,
                    "duration": 0.6185564999999542
                },
                {
                    "name": "E4",
                    "midi": 64,
                    "time": 896.2883685000046,
                    "velocity": 0.2204724409448819,
                    "duration": 0.4639173750000509
                },
                {
                    "name": "G3",
                    "midi": 55,
                    "time": 896.2883685000046,
                    "velocity": 0.18110236220472442,
                    "duration": 0.4639173750000509
                },
                {
                    "name": "C4",
                    "midi": 60,
                    "time": 896.2883685000046,
                    "velocity": 0.18110236220472442,
                    "duration": 0.4639173750000509
                },
                {
                    "name": "E4",
                    "midi": 64,
                    "time": 896.9069250000047,
                    "velocity": 0.2204724409448819,
                    "duration": 0.4639173750000509
                },
                {
                    "name": "G3",
                    "midi": 55,
                    "time": 896.9069250000047,
                    "velocity": 0.18110236220472442,
                    "duration": 0.4639173750000509
                },
                {
                    "name": "C4",
                    "midi": 60,
                    "time": 896.9069250000047,
                    "velocity": 0.18110236220472442,
                    "duration": 0.4639173750000509
                },
                {
                    "name": "E4",
                    "midi": 64,
                    "time": 897.5254815000047,
                    "velocity": 0.2204724409448819,
                    "duration": 0.4639173750000509
                },
                {
                    "name": "C4",
                    "midi": 60,
                    "time": 897.5254815000047,
                    "velocity": 0.18110236220472442,
                    "duration": 0.4639173750000509
                },
                {
                    "name": "G3",
                    "midi": 55,
                    "time": 897.5254815000047,
                    "velocity": 0.18110236220472442,
                    "duration": 0.4639173750000509
                },
                {
                    "name": "G3",
                    "midi": 55,
                    "time": 898.1440380000048,
                    "velocity": 0.2440944881889764,
                    "duration": 0.4639173750000509
                },
                {
                    "name": "E4",
                    "midi": 64,
                    "time": 898.1440380000048,
                    "velocity": 0.29133858267716534,
                    "duration": 0.4639173750000509
                },
                {
                    "name": "C4",
                    "midi": 60,
                    "time": 898.1440380000048,
                    "velocity": 0.2440944881889764,
                    "duration": 0.4639173750000509
                },
                {
                    "name": "G3",
                    "midi": 55,
                    "time": 898.7625945000049,
                    "velocity": 0.1889763779527559,
                    "duration": 0.4639173750000509
                },
                {
                    "name": "E4",
                    "midi": 64,
                    "time": 898.7625945000049,
                    "velocity": 0.2283464566929134,
                    "duration": 0.4639173750000509
                },
                {
                    "name": "C4",
                    "midi": 60,
                    "time": 898.7625945000049,
                    "velocity": 0.1889763779527559,
                    "duration": 0.4639173750000509
                },
                {
                    "name": "A3",
                    "midi": 57,
                    "time": 899.3811510000049,
                    "velocity": 0.2047244094488189,
                    "duration": 0.6185564999999542
                },
                {
                    "name": "C4",
                    "midi": 60,
                    "time": 899.3811510000049,
                    "velocity": 0.2047244094488189,
                    "duration": 0.6185564999999542
                },
                {
                    "name": "F4",
                    "midi": 65,
                    "time": 899.3811510000049,
                    "velocity": 0.2440944881889764,
                    "duration": 0.6185564999999542
                },
                {
                    "name": "C4",
                    "midi": 60,
                    "time": 899.9997075000049,
                    "velocity": 0.2204724409448819,
                    "duration": 0.6185564999999542
                },
                {
                    "name": "G4",
                    "midi": 67,
                    "time": 899.9997075000049,
                    "velocity": 0.25984251968503935,
                    "duration": 0.6185564999999542
                },
                {
                    "name": "A#3",
                    "midi": 58,
                    "time": 899.9997075000049,
                    "velocity": 0.2204724409448819,
                    "duration": 0.6185564999999542
                },
                {
                    "name": "F3",
                    "midi": 53,
                    "time": 900.6182640000048,
                    "velocity": 0.33858267716535434,
                    "duration": 3.092782500000226
                },
                {
                    "name": "C4",
                    "midi": 60,
                    "time": 901.2368205000048,
                    "velocity": 0.18110236220472442,
                    "duration": 0.4639173750000509
                },
                {
                    "name": "A3",
                    "midi": 57,
                    "time": 901.2368205000048,
                    "velocity": 0.18110236220472442,
                    "duration": 0.4639173750000509
                },
                {
                    "name": "F4",
                    "midi": 65,
                    "time": 901.2368205000048,
                    "velocity": 0.2204724409448819,
                    "duration": 0.4639173750000509
                },
                {
                    "name": "A3",
                    "midi": 57,
                    "time": 901.8553770000049,
                    "velocity": 0.18110236220472442,
                    "duration": 0.4639173750000509
                },
                {
                    "name": "F4",
                    "midi": 65,
                    "time": 901.8553770000049,
                    "velocity": 0.2204724409448819,
                    "duration": 0.4639173750000509
                },
                {
                    "name": "C4",
                    "midi": 60,
                    "time": 901.8553770000049,
                    "velocity": 0.18110236220472442,
                    "duration": 0.4639173750000509
                },
                {
                    "name": "F4",
                    "midi": 65,
                    "time": 902.4739335000049,
                    "velocity": 0.2440944881889764,
                    "duration": 0.4639173750000509
                },
                {
                    "name": "A3",
                    "midi": 57,
                    "time": 902.4739335000049,
                    "velocity": 0.2047244094488189,
                    "duration": 0.4639173750000509
                },
                {
                    "name": "C4",
                    "midi": 60,
                    "time": 902.4739335000049,
                    "velocity": 0.2047244094488189,
                    "duration": 0.4639173750000509
                },
                {
                    "name": "A3",
                    "midi": 57,
                    "time": 903.092490000005,
                    "velocity": 0.2440944881889764,
                    "duration": 0.4639173750000509
                },
                {
                    "name": "C4",
                    "midi": 60,
                    "time": 903.092490000005,
                    "velocity": 0.2440944881889764,
                    "duration": 0.4639173750000509
                },
                {
                    "name": "F4",
                    "midi": 65,
                    "time": 903.092490000005,
                    "velocity": 0.29133858267716534,
                    "duration": 0.4639173750000509
                },
                {
                    "name": "F4",
                    "midi": 65,
                    "time": 903.7110465000051,
                    "velocity": 0.2440944881889764,
                    "duration": 0.4639173750000509
                },
                {
                    "name": "C4",
                    "midi": 60,
                    "time": 903.7110465000051,
                    "velocity": 0.2047244094488189,
                    "duration": 0.4639173750000509
                },
                {
                    "name": "A3",
                    "midi": 57,
                    "time": 903.7110465000051,
                    "velocity": 0.2047244094488189,
                    "duration": 0.4639173750000509
                },
                {
                    "name": "F4",
                    "midi": 65,
                    "time": 904.3296030000051,
                    "velocity": 0.2047244094488189,
                    "duration": 0.6185564999999542
                },
                {
                    "name": "A4",
                    "midi": 69,
                    "time": 904.3296030000051,
                    "velocity": 0.2440944881889764,
                    "duration": 0.6185564999999542
                },
                {
                    "name": "C4",
                    "midi": 60,
                    "time": 904.3296030000051,
                    "velocity": 0.2047244094488189,
                    "duration": 0.6185564999999542
                },
                {
                    "name": "C4",
                    "midi": 60,
                    "time": 904.9481595000051,
                    "velocity": 0.2047244094488189,
                    "duration": 0.6185564999999542
                },
                {
                    "name": "A3",
                    "midi": 57,
                    "time": 904.9481595000051,
                    "velocity": 0.2047244094488189,
                    "duration": 0.6185564999999542
                },
                {
                    "name": "F4",
                    "midi": 65,
                    "time": 904.9481595000051,
                    "velocity": 0.2440944881889764,
                    "duration": 0.6185564999999542
                },
                {
                    "name": "C3",
                    "midi": 48,
                    "time": 905.566716000005,
                    "velocity": 0.29133858267716534,
                    "duration": 0.6185564999999542
                },
                {
                    "name": "C4",
                    "midi": 60,
                    "time": 906.185272500005,
                    "velocity": 0.18110236220472442,
                    "duration": 0.4639173750000509
                },
                {
                    "name": "G3",
                    "midi": 55,
                    "time": 906.185272500005,
                    "velocity": 0.18110236220472442,
                    "duration": 0.4639173750000509
                },
                {
                    "name": "E4",
                    "midi": 64,
                    "time": 906.185272500005,
                    "velocity": 0.2204724409448819,
                    "duration": 0.4639173750000509
                },
                {
                    "name": "C4",
                    "midi": 60,
                    "time": 906.8038290000051,
                    "velocity": 0.18110236220472442,
                    "duration": 0.4639173750000509
                },
                {
                    "name": "E4",
                    "midi": 64,
                    "time": 906.8038290000051,
                    "velocity": 0.2204724409448819,
                    "duration": 0.4639173750000509
                },
                {
                    "name": "G3",
                    "midi": 55,
                    "time": 906.8038290000051,
                    "velocity": 0.18110236220472442,
                    "duration": 0.4639173750000509
                },
                {
                    "name": "E4",
                    "midi": 64,
                    "time": 907.4223855000051,
                    "velocity": 0.2204724409448819,
                    "duration": 0.4639173750000509
                },
                {
                    "name": "G3",
                    "midi": 55,
                    "time": 907.4223855000051,
                    "velocity": 0.18110236220472442,
                    "duration": 0.4639173750000509
                },
                {
                    "name": "C4",
                    "midi": 60,
                    "time": 907.4223855000051,
                    "velocity": 0.18110236220472442,
                    "duration": 0.4639173750000509
                },
                {
                    "name": "G3",
                    "midi": 55,
                    "time": 908.0409420000052,
                    "velocity": 0.2440944881889764,
                    "duration": 0.4639173750000509
                },
                {
                    "name": "E4",
                    "midi": 64,
                    "time": 908.0409420000052,
                    "velocity": 0.29133858267716534,
                    "duration": 0.4639173750000509
                },
                {
                    "name": "C4",
                    "midi": 60,
                    "time": 908.0409420000052,
                    "velocity": 0.2440944881889764,
                    "duration": 0.4639173750000509
                },
                {
                    "name": "G3",
                    "midi": 55,
                    "time": 908.6594985000053,
                    "velocity": 0.1889763779527559,
                    "duration": 0.4639173750000509
                },
                {
                    "name": "C4",
                    "midi": 60,
                    "time": 908.6594985000053,
                    "velocity": 0.1889763779527559,
                    "duration": 0.4639173750000509
                },
                {
                    "name": "E4",
                    "midi": 64,
                    "time": 908.6594985000053,
                    "velocity": 0.2283464566929134,
                    "duration": 0.4639173750000509
                },
                {
                    "name": "C4",
                    "midi": 60,
                    "time": 909.2780550000053,
                    "velocity": 0.2047244094488189,
                    "duration": 0.6185564999999542
                },
                {
                    "name": "A3",
                    "midi": 57,
                    "time": 909.2780550000053,
                    "velocity": 0.2047244094488189,
                    "duration": 0.6185564999999542
                },
                {
                    "name": "F4",
                    "midi": 65,
                    "time": 909.2780550000053,
                    "velocity": 0.2440944881889764,
                    "duration": 0.6185564999999542
                },
                {
                    "name": "C4",
                    "midi": 60,
                    "time": 909.8966115000053,
                    "velocity": 0.2204724409448819,
                    "duration": 0.6185564999999542
                },
                {
                    "name": "G4",
                    "midi": 67,
                    "time": 909.8966115000053,
                    "velocity": 0.25984251968503935,
                    "duration": 0.6185564999999542
                },
                {
                    "name": "A#3",
                    "midi": 58,
                    "time": 909.8966115000053,
                    "velocity": 0.2204724409448819,
                    "duration": 0.6185564999999542
                },
                {
                    "name": "F3",
                    "midi": 53,
                    "time": 910.5151680000052,
                    "velocity": 0.33858267716535434,
                    "duration": 2.938143375000209
                },
                {
                    "name": "A3",
                    "midi": 57,
                    "time": 911.1337245000052,
                    "velocity": 0.18110236220472442,
                    "duration": 0.4639173750000509
                },
                {
                    "name": "C4",
                    "midi": 60,
                    "time": 911.1337245000052,
                    "velocity": 0.18110236220472442,
                    "duration": 0.4639173750000509
                },
                {
                    "name": "F4",
                    "midi": 65,
                    "time": 911.1337245000052,
                    "velocity": 0.2204724409448819,
                    "duration": 0.4639173750000509
                },
                {
                    "name": "C4",
                    "midi": 60,
                    "time": 911.7522810000053,
                    "velocity": 0.18110236220472442,
                    "duration": 0.4639173750000509
                },
                {
                    "name": "F4",
                    "midi": 65,
                    "time": 911.7522810000053,
                    "velocity": 0.2204724409448819,
                    "duration": 0.4639173750000509
                },
                {
                    "name": "A3",
                    "midi": 57,
                    "time": 911.7522810000053,
                    "velocity": 0.18110236220472442,
                    "duration": 0.4639173750000509
                },
                {
                    "name": "F4",
                    "midi": 65,
                    "time": 912.3708375000053,
                    "velocity": 0.2440944881889764,
                    "duration": 0.4639173750000509
                },
                {
                    "name": "C4",
                    "midi": 60,
                    "time": 912.3708375000053,
                    "velocity": 0.2047244094488189,
                    "duration": 0.4639173750000509
                },
                {
                    "name": "A3",
                    "midi": 57,
                    "time": 912.3708375000053,
                    "velocity": 0.2047244094488189,
                    "duration": 0.4639173750000509
                },
                {
                    "name": "A3",
                    "midi": 57,
                    "time": 912.9893940000054,
                    "velocity": 0.2440944881889764,
                    "duration": 0.4639173750000509
                },
                {
                    "name": "C4",
                    "midi": 60,
                    "time": 912.9893940000054,
                    "velocity": 0.2440944881889764,
                    "duration": 0.4639173750000509
                },
                {
                    "name": "F4",
                    "midi": 65,
                    "time": 912.9893940000054,
                    "velocity": 0.29133858267716534,
                    "duration": 0.4639173750000509
                },
                {
                    "name": "C4",
                    "midi": 60,
                    "time": 913.6079505000055,
                    "velocity": 0.2440944881889764,
                    "duration": 0.6185564999999542
                },
                {
                    "name": "A3",
                    "midi": 57,
                    "time": 913.6079505000055,
                    "velocity": 0.2440944881889764,
                    "duration": 0.6185564999999542
                },
                {
                    "name": "C4",
                    "midi": 60,
                    "time": 914.2265070000054,
                    "velocity": 0.2440944881889764,
                    "duration": 0.6185564999999542
                },
                {
                    "name": "F4",
                    "midi": 65,
                    "time": 914.2265070000054,
                    "velocity": 0.2440944881889764,
                    "duration": 0.6185564999999542
                },
                {
                    "name": "A3",
                    "midi": 57,
                    "time": 914.2265070000054,
                    "velocity": 0.2440944881889764,
                    "duration": 0.6185564999999542
                },
                {
                    "name": "E4",
                    "midi": 64,
                    "time": 914.8450635000054,
                    "velocity": 0.2440944881889764,
                    "duration": 0.6185564999999542
                },
                {
                    "name": "C4",
                    "midi": 60,
                    "time": 914.8450635000054,
                    "velocity": 0.2440944881889764,
                    "duration": 0.6185564999999542
                },
                {
                    "name": "G4",
                    "midi": 67,
                    "time": 914.8450635000054,
                    "velocity": 0.2440944881889764,
                    "duration": 0.6185564999999542
                },
                {
                    "name": "F3",
                    "midi": 53,
                    "time": 915.4636200000053,
                    "velocity": 0.36220472440944884,
                    "duration": 0.30927825000003395
                },
                {
                    "name": "A4",
                    "midi": 69,
                    "time": 916.0821765000054,
                    "velocity": 0.2204724409448819,
                    "duration": 0.4639173750000509
                },
                {
                    "name": "F4",
                    "midi": 65,
                    "time": 916.0821765000054,
                    "velocity": 0.18110236220472442,
                    "duration": 0.4639173750000509
                },
                {
                    "name": "C4",
                    "midi": 60,
                    "time": 916.0821765000054,
                    "velocity": 0.18110236220472442,
                    "duration": 0.4639173750000509
                },
                {
                    "name": "C4",
                    "midi": 60,
                    "time": 916.7007330000055,
                    "velocity": 0.18110236220472442,
                    "duration": 0.4639173750000509
                },
                {
                    "name": "F4",
                    "midi": 65,
                    "time": 916.7007330000055,
                    "velocity": 0.18110236220472442,
                    "duration": 0.4639173750000509
                },
                {
                    "name": "A4",
                    "midi": 69,
                    "time": 916.7007330000055,
                    "velocity": 0.2204724409448819,
                    "duration": 0.4639173750000509
                },
                {
                    "name": "A4",
                    "midi": 69,
                    "time": 917.3192895000055,
                    "velocity": 0.2204724409448819,
                    "duration": 0.4639173750000509
                },
                {
                    "name": "F4",
                    "midi": 65,
                    "time": 917.3192895000055,
                    "velocity": 0.18110236220472442,
                    "duration": 0.4639173750000509
                },
                {
                    "name": "C4",
                    "midi": 60,
                    "time": 917.3192895000055,
                    "velocity": 0.18110236220472442,
                    "duration": 0.4639173750000509
                },
                {
                    "name": "B3",
                    "midi": 59,
                    "time": 917.9378460000056,
                    "velocity": 0.2440944881889764,
                    "duration": 0.6185564999999542
                },
                {
                    "name": "F4",
                    "midi": 65,
                    "time": 917.9378460000056,
                    "velocity": 0.2440944881889764,
                    "duration": 0.6185564999999542
                },
                {
                    "name": "G#4",
                    "midi": 68,
                    "time": 917.9378460000056,
                    "velocity": 0.29133858267716534,
                    "duration": 0.6185564999999542
                },
                {
                    "name": "C4",
                    "midi": 60,
                    "time": 918.5564025000056,
                    "velocity": 0.1889763779527559,
                    "duration": 0.4639173750000509
                },
                {
                    "name": "F4",
                    "midi": 65,
                    "time": 918.5564025000056,
                    "velocity": 0.1889763779527559,
                    "duration": 0.4639173750000509
                },
                {
                    "name": "A4",
                    "midi": 69,
                    "time": 918.5564025000056,
                    "velocity": 0.2283464566929134,
                    "duration": 0.4639173750000509
                },
                {
                    "name": "F4",
                    "midi": 65,
                    "time": 919.1749590000056,
                    "velocity": 0.2047244094488189,
                    "duration": 0.4639173750000509
                },
                {
                    "name": "A4",
                    "midi": 69,
                    "time": 919.1749590000056,
                    "velocity": 0.2440944881889764,
                    "duration": 0.4639173750000509
                },
                {
                    "name": "C4",
                    "midi": 60,
                    "time": 919.1749590000056,
                    "velocity": 0.2047244094488189,
                    "duration": 0.4639173750000509
                },
                {
                    "name": "F4",
                    "midi": 65,
                    "time": 919.7935155000057,
                    "velocity": 0.2204724409448819,
                    "duration": 0.4639173750000509
                },
                {
                    "name": "A4",
                    "midi": 69,
                    "time": 919.7935155000057,
                    "velocity": 0.25984251968503935,
                    "duration": 0.4639173750000509
                },
                {
                    "name": "C4",
                    "midi": 60,
                    "time": 919.7935155000057,
                    "velocity": 0.2204724409448819,
                    "duration": 0.4639173750000509
                },
                {
                    "name": "F4",
                    "midi": 65,
                    "time": 920.4120720000058,
                    "velocity": 0.2440944881889764,
                    "duration": 0.6185564999999542
                },
                {
                    "name": "A#3",
                    "midi": 58,
                    "time": 920.4120720000058,
                    "velocity": 0.33858267716535434,
                    "duration": 3.092782500000112
                },
                {
                    "name": "D#4",
                    "midi": 63,
                    "time": 920.4120720000058,
                    "velocity": 0.2440944881889764,
                    "duration": 0.6185564999999542
                },
                {
                    "name": "C5",
                    "midi": 72,
                    "time": 920.4120720000058,
                    "velocity": 0.29133858267716534,
                    "duration": 0.6185564999999542
                },
                {
                    "name": "A#4",
                    "midi": 70,
                    "time": 921.0306285000057,
                    "velocity": 0.2204724409448819,
                    "duration": 0.4639173750000509
                },
                {
                    "name": "D4",
                    "midi": 62,
                    "time": 921.0306285000057,
                    "velocity": 0.18110236220472442,
                    "duration": 0.4639173750000509
                },
                {
                    "name": "F4",
                    "midi": 65,
                    "time": 921.0306285000057,
                    "velocity": 0.18110236220472442,
                    "duration": 0.4639173750000509
                },
                {
                    "name": "A#4",
                    "midi": 70,
                    "time": 921.6491850000058,
                    "velocity": 0.2204724409448819,
                    "duration": 0.4639173750000509
                },
                {
                    "name": "F4",
                    "midi": 65,
                    "time": 921.6491850000058,
                    "velocity": 0.18110236220472442,
                    "duration": 0.4639173750000509
                },
                {
                    "name": "D4",
                    "midi": 62,
                    "time": 921.6491850000058,
                    "velocity": 0.18110236220472442,
                    "duration": 0.4639173750000509
                },
                {
                    "name": "D4",
                    "midi": 62,
                    "time": 922.2677415000059,
                    "velocity": 0.2047244094488189,
                    "duration": 0.4639173750000509
                },
                {
                    "name": "A#4",
                    "midi": 70,
                    "time": 922.2677415000059,
                    "velocity": 0.2440944881889764,
                    "duration": 0.4639173750000509
                },
                {
                    "name": "F4",
                    "midi": 65,
                    "time": 922.2677415000059,
                    "velocity": 0.2047244094488189,
                    "duration": 0.4639173750000509
                },
                {
                    "name": "D4",
                    "midi": 62,
                    "time": 922.8862980000059,
                    "velocity": 0.2440944881889764,
                    "duration": 0.6185564999999542
                },
                {
                    "name": "A#4",
                    "midi": 70,
                    "time": 922.8862980000059,
                    "velocity": 0.29133858267716534,
                    "duration": 0.6185564999999542
                },
                {
                    "name": "F4",
                    "midi": 65,
                    "time": 922.8862980000059,
                    "velocity": 0.2440944881889764,
                    "duration": 0.6185564999999542
                },
                {
                    "name": "A4",
                    "midi": 69,
                    "time": 923.5048545000059,
                    "velocity": 0.2440944881889764,
                    "duration": 0.6185564999999542
                },
                {
                    "name": "C4",
                    "midi": 60,
                    "time": 923.5048545000059,
                    "velocity": 0.2047244094488189,
                    "duration": 0.6185564999999542
                },
                {
                    "name": "D4",
                    "midi": 62,
                    "time": 923.5048545000059,
                    "velocity": 0.2047244094488189,
                    "duration": 0.6185564999999542
                },
                {
                    "name": "D4",
                    "midi": 62,
                    "time": 924.1234110000058,
                    "velocity": 0.2125984251968504,
                    "duration": 0.6185564999999542
                },
                {
                    "name": "G4",
                    "midi": 67,
                    "time": 924.1234110000058,
                    "velocity": 0.25196850393700787,
                    "duration": 0.6185564999999542
                },
                {
                    "name": "A#3",
                    "midi": 58,
                    "time": 924.1234110000058,
                    "velocity": 0.2125984251968504,
                    "duration": 0.6185564999999542
                },
                {
                    "name": "A3",
                    "midi": 57,
                    "time": 924.7419675000058,
                    "velocity": 0.2204724409448819,
                    "duration": 0.6185564999999542
                },
                {
                    "name": "F4",
                    "midi": 65,
                    "time": 924.7419675000058,
                    "velocity": 0.25984251968503935,
                    "duration": 0.6185564999999542
                },
                {
                    "name": "C4",
                    "midi": 60,
                    "time": 924.7419675000058,
                    "velocity": 0.2204724409448819,
                    "duration": 0.6185564999999542
                },
                {
                    "name": "C3",
                    "midi": 48,
                    "time": 925.3605240000057,
                    "velocity": 0.3228346456692913,
                    "duration": 0.6185564999999542
                },
                {
                    "name": "C4",
                    "midi": 60,
                    "time": 925.9790805000057,
                    "velocity": 0.2047244094488189,
                    "duration": 0.4639173750000509
                },
                {
                    "name": "G3",
                    "midi": 55,
                    "time": 925.9790805000057,
                    "velocity": 0.2047244094488189,
                    "duration": 0.4639173750000509
                },
                {
                    "name": "E4",
                    "midi": 64,
                    "time": 925.9790805000057,
                    "velocity": 0.25196850393700787,
                    "duration": 0.4639173750000509
                },
                {
                    "name": "E4",
                    "midi": 64,
                    "time": 926.5976370000058,
                    "velocity": 0.25196850393700787,
                    "duration": 0.4639173750000509
                },
                {
                    "name": "G3",
                    "midi": 55,
                    "time": 926.5976370000058,
                    "velocity": 0.2047244094488189,
                    "duration": 0.4639173750000509
                },
                {
                    "name": "C4",
                    "midi": 60,
                    "time": 926.5976370000058,
                    "velocity": 0.2047244094488189,
                    "duration": 0.4639173750000509
                },
                {
                    "name": "G3",
                    "midi": 55,
                    "time": 927.2161935000058,
                    "velocity": 0.2047244094488189,
                    "duration": 0.4639173750000509
                },
                {
                    "name": "E4",
                    "midi": 64,
                    "time": 927.2161935000058,
                    "velocity": 0.25196850393700787,
                    "duration": 0.4639173750000509
                },
                {
                    "name": "C4",
                    "midi": 60,
                    "time": 927.2161935000058,
                    "velocity": 0.2047244094488189,
                    "duration": 0.4639173750000509
                },
                {
                    "name": "C4",
                    "midi": 60,
                    "time": 927.8347500000059,
                    "velocity": 0.2755905511811024,
                    "duration": 0.4639173750000509
                },
                {
                    "name": "G3",
                    "midi": 55,
                    "time": 927.8347500000059,
                    "velocity": 0.2755905511811024,
                    "duration": 0.4639173750000509
                },
                {
                    "name": "E4",
                    "midi": 64,
                    "time": 927.8347500000059,
                    "velocity": 0.33070866141732286,
                    "duration": 0.4639173750000509
                },
                {
                    "name": "E4",
                    "midi": 64,
                    "time": 928.453306500006,
                    "velocity": 0.25984251968503935,
                    "duration": 0.4639173750000509
                },
                {
                    "name": "G3",
                    "midi": 55,
                    "time": 928.453306500006,
                    "velocity": 0.2125984251968504,
                    "duration": 0.4639173750000509
                },
                {
                    "name": "C4",
                    "midi": 60,
                    "time": 928.453306500006,
                    "velocity": 0.2125984251968504,
                    "duration": 0.4639173750000509
                },
                {
                    "name": "F4",
                    "midi": 65,
                    "time": 929.071863000006,
                    "velocity": 0.2755905511811024,
                    "duration": 0.6185564999999542
                },
                {
                    "name": "A3",
                    "midi": 57,
                    "time": 929.071863000006,
                    "velocity": 0.2283464566929134,
                    "duration": 0.6185564999999542
                },
                {
                    "name": "C4",
                    "midi": 60,
                    "time": 929.071863000006,
                    "velocity": 0.2283464566929134,
                    "duration": 0.6185564999999542
                },
                {
                    "name": "A#3",
                    "midi": 58,
                    "time": 929.690419500006,
                    "velocity": 0.25196850393700787,
                    "duration": 0.6185564999999542
                },
                {
                    "name": "G4",
                    "midi": 67,
                    "time": 929.690419500006,
                    "velocity": 0.29133858267716534,
                    "duration": 0.6185564999999542
                },
                {
                    "name": "C4",
                    "midi": 60,
                    "time": 929.690419500006,
                    "velocity": 0.25196850393700787,
                    "duration": 0.6185564999999542
                },
                {
                    "name": "F3",
                    "midi": 53,
                    "time": 930.3089760000059,
                    "velocity": 0.33858267716535434,
                    "duration": 3.092782500000226
                },
                {
                    "name": "A#3",
                    "midi": 58,
                    "time": 930.3089760000059,
                    "velocity": 0.2440944881889764,
                    "duration": 0.6185564999999542
                },
                {
                    "name": "C4",
                    "midi": 60,
                    "time": 930.3089760000059,
                    "velocity": 0.29133858267716534,
                    "duration": 0.6185564999999542
                },
                {
                    "name": "A3",
                    "midi": 57,
                    "time": 930.9275325000059,
                    "velocity": 0.2047244094488189,
                    "duration": 0.4639173750000509
                },
                {
                    "name": "F4",
                    "midi": 65,
                    "time": 930.9275325000059,
                    "velocity": 0.25196850393700787,
                    "duration": 0.4639173750000509
                },
                {
                    "name": "C4",
                    "midi": 60,
                    "time": 930.9275325000059,
                    "velocity": 0.2047244094488189,
                    "duration": 0.4639173750000509
                },
                {
                    "name": "F4",
                    "midi": 65,
                    "time": 931.546089000006,
                    "velocity": 0.25196850393700787,
                    "duration": 0.4639173750000509
                },
                {
                    "name": "C4",
                    "midi": 60,
                    "time": 931.546089000006,
                    "velocity": 0.2047244094488189,
                    "duration": 0.4639173750000509
                },
                {
                    "name": "A3",
                    "midi": 57,
                    "time": 931.546089000006,
                    "velocity": 0.2047244094488189,
                    "duration": 0.4639173750000509
                },
                {
                    "name": "A3",
                    "midi": 57,
                    "time": 932.164645500006,
                    "velocity": 0.2283464566929134,
                    "duration": 0.4639173750000509
                },
                {
                    "name": "C4",
                    "midi": 60,
                    "time": 932.164645500006,
                    "velocity": 0.2283464566929134,
                    "duration": 0.4639173750000509
                },
                {
                    "name": "F4",
                    "midi": 65,
                    "time": 932.164645500006,
                    "velocity": 0.2755905511811024,
                    "duration": 0.4639173750000509
                },
                {
                    "name": "F4",
                    "midi": 65,
                    "time": 932.7832020000061,
                    "velocity": 0.2755905511811024,
                    "duration": 0.6185565000000679
                },
                {
                    "name": "C4",
                    "midi": 60,
                    "time": 932.9378411250061,
                    "velocity": 0.2755905511811024,
                    "duration": 0.4639173750000509
                },
                {
                    "name": "A4",
                    "midi": 69,
                    "time": 932.9378411250061,
                    "velocity": 0.33070866141732286,
                    "duration": 0.4639173750000509
                },
                {
                    "name": "C4",
                    "midi": 60,
                    "time": 933.4017585000062,
                    "velocity": 0.2047244094488189,
                    "duration": 0.4639173750000509
                },
                {
                    "name": "F4",
                    "midi": 65,
                    "time": 933.4017585000062,
                    "velocity": 0.2440944881889764,
                    "duration": 0.4639173750000509
                },
                {
                    "name": "A3",
                    "midi": 57,
                    "time": 933.4017585000062,
                    "velocity": 0.2047244094488189,
                    "duration": 0.4639173750000509
                },
                {
                    "name": "A3",
                    "midi": 57,
                    "time": 934.0203150000062,
                    "velocity": 0.2047244094488189,
                    "duration": 0.4639173750000509
                },
                {
                    "name": "C4",
                    "midi": 60,
                    "time": 934.0203150000062,
                    "velocity": 0.2047244094488189,
                    "duration": 0.4639173750000509
                },
                {
                    "name": "F4",
                    "midi": 65,
                    "time": 934.0203150000062,
                    "velocity": 0.2440944881889764,
                    "duration": 0.4639173750000509
                },
                {
                    "name": "F4",
                    "midi": 65,
                    "time": 934.6388715000063,
                    "velocity": 0.2440944881889764,
                    "duration": 0.4639173750000509
                },
                {
                    "name": "A3",
                    "midi": 57,
                    "time": 934.6388715000063,
                    "velocity": 0.2047244094488189,
                    "duration": 0.4639173750000509
                },
                {
                    "name": "C4",
                    "midi": 60,
                    "time": 934.6388715000063,
                    "velocity": 0.2047244094488189,
                    "duration": 0.4639173750000509
                },
                {
                    "name": "C3",
                    "midi": 48,
                    "time": 935.2574280000064,
                    "velocity": 0.29133858267716534,
                    "duration": 0.6185564999999542
                },
                {
                    "name": "C4",
                    "midi": 60,
                    "time": 935.8759845000063,
                    "velocity": 0.18110236220472442,
                    "duration": 0.4639173750000509
                },
                {
                    "name": "G3",
                    "midi": 55,
                    "time": 935.8759845000063,
                    "velocity": 0.18110236220472442,
                    "duration": 0.4639173750000509
                },
                {
                    "name": "E4",
                    "midi": 64,
                    "time": 935.8759845000063,
                    "velocity": 0.2204724409448819,
                    "duration": 0.4639173750000509
                },
                {
                    "name": "E4",
                    "midi": 64,
                    "time": 936.4945410000064,
                    "velocity": 0.2204724409448819,
                    "duration": 0.4639173750000509
                },
                {
                    "name": "C4",
                    "midi": 60,
                    "time": 936.4945410000064,
                    "velocity": 0.18110236220472442,
                    "duration": 0.4639173750000509
                },
                {
                    "name": "G3",
                    "midi": 55,
                    "time": 936.4945410000064,
                    "velocity": 0.18110236220472442,
                    "duration": 0.4639173750000509
                },
                {
                    "name": "E4",
                    "midi": 64,
                    "time": 937.1130975000065,
                    "velocity": 0.2204724409448819,
                    "duration": 0.4639173750000509
                },
                {
                    "name": "G3",
                    "midi": 55,
                    "time": 937.1130975000065,
                    "velocity": 0.18110236220472442,
                    "duration": 0.4639173750000509
                },
                {
                    "name": "C4",
                    "midi": 60,
                    "time": 937.1130975000065,
                    "velocity": 0.18110236220472442,
                    "duration": 0.4639173750000509
                },
                {
                    "name": "G3",
                    "midi": 55,
                    "time": 937.7316540000065,
                    "velocity": 0.2440944881889764,
                    "duration": 0.4639173750000509
                },
                {
                    "name": "C4",
                    "midi": 60,
                    "time": 937.7316540000065,
                    "velocity": 0.2440944881889764,
                    "duration": 0.4639173750000509
                },
                {
                    "name": "E4",
                    "midi": 64,
                    "time": 937.7316540000065,
                    "velocity": 0.29133858267716534,
                    "duration": 0.4639173750000509
                },
                {
                    "name": "E4",
                    "midi": 64,
                    "time": 938.3502105000066,
                    "velocity": 0.2283464566929134,
                    "duration": 0.4639173750000509
                },
                {
                    "name": "G3",
                    "midi": 55,
                    "time": 938.3502105000066,
                    "velocity": 0.1889763779527559,
                    "duration": 0.4639173750000509
                },
                {
                    "name": "C4",
                    "midi": 60,
                    "time": 938.3502105000066,
                    "velocity": 0.1889763779527559,
                    "duration": 0.4639173750000509
                },
                {
                    "name": "F4",
                    "midi": 65,
                    "time": 938.9687670000067,
                    "velocity": 0.2440944881889764,
                    "duration": 0.6185564999999542
                },
                {
                    "name": "A3",
                    "midi": 57,
                    "time": 938.9687670000067,
                    "velocity": 0.2047244094488189,
                    "duration": 0.6185564999999542
                },
                {
                    "name": "C4",
                    "midi": 60,
                    "time": 938.9687670000067,
                    "velocity": 0.2047244094488189,
                    "duration": 0.6185564999999542
                },
                {
                    "name": "A#3",
                    "midi": 58,
                    "time": 939.5873235000066,
                    "velocity": 0.2204724409448819,
                    "duration": 0.6185564999999542
                },
                {
                    "name": "C4",
                    "midi": 60,
                    "time": 939.5873235000066,
                    "velocity": 0.2204724409448819,
                    "duration": 0.6185564999999542
                },
                {
                    "name": "G4",
                    "midi": 67,
                    "time": 939.5873235000066,
                    "velocity": 0.25984251968503935,
                    "duration": 0.6185564999999542
                },
                {
                    "name": "C4",
                    "midi": 60,
                    "time": 940.2058800000066,
                    "velocity": 0.25984251968503935,
                    "duration": 0.6185564999999542
                },
                {
                    "name": "A#3",
                    "midi": 58,
                    "time": 940.2058800000066,
                    "velocity": 0.2283464566929134,
                    "duration": 0.6185564999999542
                },
                {
                    "name": "F3",
                    "midi": 53,
                    "time": 940.2058800000066,
                    "velocity": 0.33858267716535434,
                    "duration": 3.092782500000226
                },
                {
                    "name": "C4",
                    "midi": 60,
                    "time": 940.8244365000065,
                    "velocity": 0.18110236220472442,
                    "duration": 0.4639173750000509
                },
                {
                    "name": "A3",
                    "midi": 57,
                    "time": 940.8244365000065,
                    "velocity": 0.18110236220472442,
                    "duration": 0.4639173750000509
                },
                {
                    "name": "F4",
                    "midi": 65,
                    "time": 940.8244365000065,
                    "velocity": 0.2204724409448819,
                    "duration": 0.4639173750000509
                },
                {
                    "name": "C4",
                    "midi": 60,
                    "time": 941.4429930000066,
                    "velocity": 0.18110236220472442,
                    "duration": 0.4639173750000509
                },
                {
                    "name": "A3",
                    "midi": 57,
                    "time": 941.4429930000066,
                    "velocity": 0.18110236220472442,
                    "duration": 0.4639173750000509
                },
                {
                    "name": "F4",
                    "midi": 65,
                    "time": 941.4429930000066,
                    "velocity": 0.2204724409448819,
                    "duration": 0.4639173750000509
                },
                {
                    "name": "F4",
                    "midi": 65,
                    "time": 942.0615495000067,
                    "velocity": 0.2440944881889764,
                    "duration": 0.4639173750000509
                },
                {
                    "name": "C4",
                    "midi": 60,
                    "time": 942.0615495000067,
                    "velocity": 0.2047244094488189,
                    "duration": 0.4639173750000509
                },
                {
                    "name": "A3",
                    "midi": 57,
                    "time": 942.0615495000067,
                    "velocity": 0.2047244094488189,
                    "duration": 0.4639173750000509
                },
                {
                    "name": "F4",
                    "midi": 65,
                    "time": 942.6801060000067,
                    "velocity": 0.2440944881889764,
                    "duration": 0.6185565000000679
                },
                {
                    "name": "C4",
                    "midi": 60,
                    "time": 942.8347451250067,
                    "velocity": 0.2440944881889764,
                    "duration": 0.4639173750000509
                },
                {
                    "name": "A4",
                    "midi": 69,
                    "time": 942.8347451250067,
                    "velocity": 0.29133858267716534,
                    "duration": 0.4639173750000509
                },
                {
                    "name": "C4",
                    "midi": 60,
                    "time": 943.2986625000068,
                    "velocity": 0.2047244094488189,
                    "duration": 0.4639173750000509
                },
                {
                    "name": "F4",
                    "midi": 65,
                    "time": 943.2986625000068,
                    "velocity": 0.2440944881889764,
                    "duration": 0.4639173750000509
                },
                {
                    "name": "A3",
                    "midi": 57,
                    "time": 943.2986625000068,
                    "velocity": 0.2047244094488189,
                    "duration": 0.4639173750000509
                },
                {
                    "name": "A3",
                    "midi": 57,
                    "time": 943.9172190000069,
                    "velocity": 0.2047244094488189,
                    "duration": 0.4639173750000509
                },
                {
                    "name": "F4",
                    "midi": 65,
                    "time": 943.9172190000069,
                    "velocity": 0.2440944881889764,
                    "duration": 0.4639173750000509
                },
                {
                    "name": "C4",
                    "midi": 60,
                    "time": 943.9172190000069,
                    "velocity": 0.2047244094488189,
                    "duration": 0.4639173750000509
                },
                {
                    "name": "F4",
                    "midi": 65,
                    "time": 944.5357755000069,
                    "velocity": 0.2440944881889764,
                    "duration": 0.4639173750000509
                },
                {
                    "name": "A3",
                    "midi": 57,
                    "time": 944.5357755000069,
                    "velocity": 0.2047244094488189,
                    "duration": 0.4639173750000509
                },
                {
                    "name": "C4",
                    "midi": 60,
                    "time": 944.5357755000069,
                    "velocity": 0.2047244094488189,
                    "duration": 0.4639173750000509
                },
                {
                    "name": "C3",
                    "midi": 48,
                    "time": 945.154332000007,
                    "velocity": 0.29133858267716534,
                    "duration": 0.6185564999999542
                },
                {
                    "name": "E4",
                    "midi": 64,
                    "time": 945.772888500007,
                    "velocity": 0.2204724409448819,
                    "duration": 0.4639173750000509
                },
                {
                    "name": "G3",
                    "midi": 55,
                    "time": 945.772888500007,
                    "velocity": 0.18110236220472442,
                    "duration": 0.4639173750000509
                },
                {
                    "name": "C4",
                    "midi": 60,
                    "time": 945.772888500007,
                    "velocity": 0.18110236220472442,
                    "duration": 0.4639173750000509
                },
                {
                    "name": "G3",
                    "midi": 55,
                    "time": 946.391445000007,
                    "velocity": 0.18110236220472442,
                    "duration": 0.4639173750000509
                },
                {
                    "name": "C4",
                    "midi": 60,
                    "time": 946.391445000007,
                    "velocity": 0.18110236220472442,
                    "duration": 0.4639173750000509
                },
                {
                    "name": "E4",
                    "midi": 64,
                    "time": 946.391445000007,
                    "velocity": 0.2204724409448819,
                    "duration": 0.4639173750000509
                },
                {
                    "name": "C4",
                    "midi": 60,
                    "time": 947.0100015000071,
                    "velocity": 0.18110236220472442,
                    "duration": 0.4639173750000509
                },
                {
                    "name": "G3",
                    "midi": 55,
                    "time": 947.0100015000071,
                    "velocity": 0.18110236220472442,
                    "duration": 0.4639173750000509
                },
                {
                    "name": "E4",
                    "midi": 64,
                    "time": 947.0100015000071,
                    "velocity": 0.2204724409448819,
                    "duration": 0.4639173750000509
                },
                {
                    "name": "G3",
                    "midi": 55,
                    "time": 947.6285580000072,
                    "velocity": 0.2440944881889764,
                    "duration": 0.4639173750000509
                },
                {
                    "name": "E4",
                    "midi": 64,
                    "time": 947.6285580000072,
                    "velocity": 0.29133858267716534,
                    "duration": 0.4639173750000509
                },
                {
                    "name": "C4",
                    "midi": 60,
                    "time": 947.6285580000072,
                    "velocity": 0.2440944881889764,
                    "duration": 0.4639173750000509
                },
                {
                    "name": "G3",
                    "midi": 55,
                    "time": 948.2471145000072,
                    "velocity": 0.1889763779527559,
                    "duration": 0.4639173750000509
                },
                {
                    "name": "E4",
                    "midi": 64,
                    "time": 948.2471145000072,
                    "velocity": 0.2283464566929134,
                    "duration": 0.4639173750000509
                },
                {
                    "name": "C4",
                    "midi": 60,
                    "time": 948.2471145000072,
                    "velocity": 0.1889763779527559,
                    "duration": 0.4639173750000509
                },
                {
                    "name": "A3",
                    "midi": 57,
                    "time": 948.8656710000073,
                    "velocity": 0.2047244094488189,
                    "duration": 0.6185564999999542
                },
                {
                    "name": "C4",
                    "midi": 60,
                    "time": 948.8656710000073,
                    "velocity": 0.2047244094488189,
                    "duration": 0.6185564999999542
                },
                {
                    "name": "F4",
                    "midi": 65,
                    "time": 948.8656710000073,
                    "velocity": 0.2440944881889764,
                    "duration": 0.6185564999999542
                },
                {
                    "name": "G4",
                    "midi": 67,
                    "time": 949.4842275000073,
                    "velocity": 0.25984251968503935,
                    "duration": 0.6185564999999542
                },
                {
                    "name": "C4",
                    "midi": 60,
                    "time": 949.4842275000073,
                    "velocity": 0.2204724409448819,
                    "duration": 0.6185564999999542
                },
                {
                    "name": "A#3",
                    "midi": 58,
                    "time": 949.4842275000073,
                    "velocity": 0.2204724409448819,
                    "duration": 0.6185564999999542
                },
                {
                    "name": "C3",
                    "midi": 48,
                    "time": 950.1027840000072,
                    "velocity": 0.25984251968503935,
                    "duration": 0.6185564999999542
                },
                {
                    "name": "G4",
                    "midi": 67,
                    "time": 951.3398970000071,
                    "velocity": 0.25984251968503935,
                    "duration": 8.659791000000041
                },
                {
                    "name": "A#3",
                    "midi": 58,
                    "time": 951.3398970000071,
                    "velocity": 0.25984251968503935,
                    "duration": 8.659791000000041
                },
                {
                    "name": "C4",
                    "midi": 60,
                    "time": 951.3398970000071,
                    "velocity": 0.25984251968503935,
                    "duration": 8.659791000000041
                },
                {
                    "name": "F3",
                    "midi": 53,
                    "time": 959.9996880000072,
                    "velocity": 0.25984251968503935,
                    "duration": 3.7113389999999526
                },
                {
                    "name": "C4",
                    "midi": 60,
                    "time": 959.9996880000072,
                    "velocity": 0.25984251968503935,
                    "duration": 3.7113389999999526
                },
                {
                    "name": "A3",
                    "midi": 57,
                    "time": 959.9996880000072,
                    "velocity": 0.25984251968503935,
                    "duration": 3.7113389999999526
                },
                {
                    "name": "F4",
                    "midi": 65,
                    "time": 959.9996880000072,
                    "velocity": 0.25984251968503935,
                    "duration": 3.7113389999999526
                },
                {
                    "name": "F2",
                    "midi": 41,
                    "time": 969.8965920000071,
                    "velocity": 0.29133858267716534,
                    "duration": 1.2371129999999084
                },
                {
                    "name": "G#4",
                    "midi": 68,
                    "time": 969.8965920000071,
                    "velocity": 0.29133858267716534,
                    "duration": 0.30927824999992026
                },
                {
                    "name": "C5",
                    "midi": 72,
                    "time": 970.1929836562571,
                    "velocity": 0.2283464566929134,
                    "duration": 0.30927824999992026
                },
                {
                    "name": "C4",
                    "midi": 60,
                    "time": 970.515148500007,
                    "velocity": 0.2283464566929134,
                    "duration": 0.30927825000003395
                },
                {
                    "name": "F4",
                    "midi": 65,
                    "time": 970.824426750007,
                    "velocity": 0.2125984251968504,
                    "duration": 0.30927825000003395
                },
                {
                    "name": "G#4",
                    "midi": 68,
                    "time": 971.133705000007,
                    "velocity": 0.29133858267716534,
                    "duration": 0.30927825000003395
                },
                {
                    "name": "C5",
                    "midi": 72,
                    "time": 971.442983250007,
                    "velocity": 0.2283464566929134,
                    "duration": 0.30927825000003395
                },
                {
                    "name": "C4",
                    "midi": 60,
                    "time": 971.7522615000071,
                    "velocity": 0.2283464566929134,
                    "duration": 0.30927825000003395
                },
                {
                    "name": "F4",
                    "midi": 65,
                    "time": 972.0615397500071,
                    "velocity": 0.2204724409448819,
                    "duration": 0.30927825000003395
                },
                {
                    "name": "G#4",
                    "midi": 68,
                    "time": 972.3708180000071,
                    "velocity": 0.29133858267716534,
                    "duration": 0.30927825000003395
                },
                {
                    "name": "C5",
                    "midi": 72,
                    "time": 972.6800962500072,
                    "velocity": 0.2283464566929134,
                    "duration": 0.30927825000003395
                },
                {
                    "name": "C4",
                    "midi": 60,
                    "time": 972.9893745000072,
                    "velocity": 0.2283464566929134,
                    "duration": 0.30927825000003395
                },
                {
                    "name": "F4",
                    "midi": 65,
                    "time": 973.2986527500072,
                    "velocity": 0.2047244094488189,
                    "duration": 0.30927825000003395
                },
                {
                    "name": "G#4",
                    "midi": 68,
                    "time": 973.6079310000073,
                    "velocity": 0.29133858267716534,
                    "duration": 0.30927825000003395
                },
                {
                    "name": "C5",
                    "midi": 72,
                    "time": 973.9172092500073,
                    "velocity": 0.2283464566929134,
                    "duration": 0.30927825000003395
                },
                {
                    "name": "A#4",
                    "midi": 70,
                    "time": 974.2264875000074,
                    "velocity": 0.28346456692913385,
                    "duration": 0.30927825000003395
                },
                {
                    "name": "C5",
                    "midi": 72,
                    "time": 974.5357657500074,
                    "velocity": 0.30708661417322836,
                    "duration": 0.30927825000003395
                },
                {
                    "name": "G#4",
                    "midi": 68,
                    "time": 974.8450440000074,
                    "velocity": 0.3700787401574803,
                    "duration": 0.30927825000003395
                },
                {
                    "name": "C5",
                    "midi": 72,
                    "time": 975.1543222500075,
                    "velocity": 0.28346456692913385,
                    "duration": 0.30927825000003395
                },
                {
                    "name": "C4",
                    "midi": 60,
                    "time": 975.4636005000075,
                    "velocity": 0.28346456692913385,
                    "duration": 0.30927825000003395
                },
                {
                    "name": "F4",
                    "midi": 65,
                    "time": 975.7728787500075,
                    "velocity": 0.25196850393700787,
                    "duration": 0.30927825000003395
                },
                {
                    "name": "G#4",
                    "midi": 68,
                    "time": 976.0821570000076,
                    "velocity": 0.31496062992125984,
                    "duration": 0.30927825000003395
                },
                {
                    "name": "C5",
                    "midi": 72,
                    "time": 976.3914352500076,
                    "velocity": 0.28346456692913385,
                    "duration": 0.30927825000003395
                },
                {
                    "name": "C4",
                    "midi": 60,
                    "time": 976.7007135000076,
                    "velocity": 0.28346456692913385,
                    "duration": 0.30927825000003395
                },
                {
                    "name": "F4",
                    "midi": 65,
                    "time": 977.0099917500077,
                    "velocity": 0.25196850393700787,
                    "duration": 0.30927825000003395
                },
                {
                    "name": "G#4",
                    "midi": 68,
                    "time": 977.3192700000077,
                    "velocity": 0.3543307086614173,
                    "duration": 0.30927825000003395
                },
                {
                    "name": "C5",
                    "midi": 72,
                    "time": 977.6285482500077,
                    "velocity": 0.2755905511811024,
                    "duration": 0.30927825000003395
                },
                {
                    "name": "F4",
                    "midi": 65,
                    "time": 977.9378265000078,
                    "velocity": 0.2755905511811024,
                    "duration": 0.30927825000003395
                },
                {
                    "name": "G#4",
                    "midi": 68,
                    "time": 977.9378265000078,
                    "velocity": 0.2755905511811024,
                    "duration": 0.30927825000003395
                },
                {
                    "name": "C5",
                    "midi": 72,
                    "time": 978.2471047500078,
                    "velocity": 0.2440944881889764,
                    "duration": 0.30927825000003395
                },
                {
                    "name": "A#4",
                    "midi": 70,
                    "time": 978.5563830000078,
                    "velocity": 0.3464566929133858,
                    "duration": 0.30927825000003395
                },
                {
                    "name": "E4",
                    "midi": 64,
                    "time": 978.5563830000078,
                    "velocity": 0.3464566929133858,
                    "duration": 0.30927825000003395
                },
                {
                    "name": "C5",
                    "midi": 72,
                    "time": 978.8656612500079,
                    "velocity": 0.2283464566929134,
                    "duration": 0.30927825000003395
                },
                {
                    "name": "G#4",
                    "midi": 68,
                    "time": 979.1749395000079,
                    "velocity": 0.2440944881889764,
                    "duration": 0.30927825000003395
                },
                {
                    "name": "F4",
                    "midi": 65,
                    "time": 979.1749395000079,
                    "velocity": 0.2440944881889764,
                    "duration": 0.30927825000003395
                },
                {
                    "name": "C5",
                    "midi": 72,
                    "time": 979.4842177500079,
                    "velocity": 0.2204724409448819,
                    "duration": 0.30927825000003395
                },
                {
                    "name": "G4",
                    "midi": 67,
                    "time": 979.793496000008,
                    "velocity": 0.29133858267716534,
                    "duration": 0.30927824999992026
                },
                {
                    "name": "E4",
                    "midi": 64,
                    "time": 979.793496000008,
                    "velocity": 0.29133858267716534,
                    "duration": 0.30927824999992026
                },
                {
                    "name": "C5",
                    "midi": 72,
                    "time": 980.0898876562579,
                    "velocity": 0.2283464566929134,
                    "duration": 0.30927824999992026
                },
                {
                    "name": "C4",
                    "midi": 60,
                    "time": 980.4120525000078,
                    "velocity": 0.2283464566929134,
                    "duration": 0.30927825000003395
                },
                {
                    "name": "E4",
                    "midi": 64,
                    "time": 980.7213307500078,
                    "velocity": 0.2125984251968504,
                    "duration": 0.30927825000003395
                },
                {
                    "name": "G4",
                    "midi": 67,
                    "time": 981.0306090000079,
                    "velocity": 0.29133858267716534,
                    "duration": 0.30927825000003395
                },
                {
                    "name": "C5",
                    "midi": 72,
                    "time": 981.3398872500079,
                    "velocity": 0.2283464566929134,
                    "duration": 0.30927825000003395
                },
                {
                    "name": "C4",
                    "midi": 60,
                    "time": 981.6491655000079,
                    "velocity": 0.2283464566929134,
                    "duration": 0.30927825000003395
                },
                {
                    "name": "E4",
                    "midi": 64,
                    "time": 981.958443750008,
                    "velocity": 0.2125984251968504,
                    "duration": 0.30927825000003395
                },
                {
                    "name": "G4",
                    "midi": 67,
                    "time": 982.267722000008,
                    "velocity": 0.29133858267716534,
                    "duration": 0.30927825000003395
                },
                {
                    "name": "C5",
                    "midi": 72,
                    "time": 982.577000250008,
                    "velocity": 0.2283464566929134,
                    "duration": 0.30927825000003395
                },
                {
                    "name": "C4",
                    "midi": 60,
                    "time": 982.8862785000081,
                    "velocity": 0.2283464566929134,
                    "duration": 0.30927825000003395
                },
                {
                    "name": "E4",
                    "midi": 64,
                    "time": 983.1955567500081,
                    "velocity": 0.2047244094488189,
                    "duration": 0.30927825000003395
                },
                {
                    "name": "G4",
                    "midi": 67,
                    "time": 983.5048350000081,
                    "velocity": 0.33070866141732286,
                    "duration": 0.30927825000003395
                },
                {
                    "name": "C5",
                    "midi": 72,
                    "time": 983.8141132500082,
                    "velocity": 0.2440944881889764,
                    "duration": 0.30927825000003395
                },
                {
                    "name": "A#4",
                    "midi": 70,
                    "time": 984.1233915000082,
                    "velocity": 0.2440944881889764,
                    "duration": 0.30927825000003395
                },
                {
                    "name": "C5",
                    "midi": 72,
                    "time": 984.4326697500082,
                    "velocity": 0.2204724409448819,
                    "duration": 0.30927825000003395
                },
                {
                    "name": "G#4",
                    "midi": 68,
                    "time": 984.7419480000083,
                    "velocity": 0.30708661417322836,
                    "duration": 0.30927825000003395
                },
                {
                    "name": "C5",
                    "midi": 72,
                    "time": 985.0692674812583,
                    "velocity": 0.2283464566929134,
                    "duration": 0.30927825000003395
                },
                {
                    "name": "C4",
                    "midi": 60,
                    "time": 985.3914323250083,
                    "velocity": 0.2283464566929134,
                    "duration": 0.30927825000003395
                },
                {
                    "name": "F4",
                    "midi": 65,
                    "time": 985.7007105750083,
                    "velocity": 0.2125984251968504,
                    "duration": 0.30927825000003395
                },
                {
                    "name": "G#4",
                    "midi": 68,
                    "time": 986.0099888250083,
                    "velocity": 0.33070866141732286,
                    "duration": 0.30927825000003395
                },
                {
                    "name": "C5",
                    "midi": 72,
                    "time": 986.3192670750084,
                    "velocity": 0.2677165354330709,
                    "duration": 0.30927825000003395
                },
                {
                    "name": "C4",
                    "midi": 60,
                    "time": 986.6285453250084,
                    "velocity": 0.2677165354330709,
                    "duration": 0.30927825000003395
                },
                {
                    "name": "F4",
                    "midi": 65,
                    "time": 986.9378235750085,
                    "velocity": 0.2283464566929134,
                    "duration": 0.30927825000003395
                },
                {
                    "name": "G#4",
                    "midi": 68,
                    "time": 987.2471018250085,
                    "velocity": 0.3228346456692913,
                    "duration": 0.30927825000003395
                },
                {
                    "name": "C5",
                    "midi": 72,
                    "time": 987.5563800750085,
                    "velocity": 0.25984251968503935,
                    "duration": 0.30927825000003395
                },
                {
                    "name": "C4",
                    "midi": 60,
                    "time": 987.8347305000085,
                    "velocity": 0.25984251968503935,
                    "duration": 0.30927825000003395
                },
                {
                    "name": "F4",
                    "midi": 65,
                    "time": 988.1440087500085,
                    "velocity": 0.23622047244094488,
                    "duration": 0.30927825000003395
                },
                {
                    "name": "G#4",
                    "midi": 68,
                    "time": 988.4532870000086,
                    "velocity": 0.29133858267716534,
                    "duration": 0.30927825000003395
                },
                {
                    "name": "C5",
                    "midi": 72,
                    "time": 988.7934930750087,
                    "velocity": 0.2283464566929134,
                    "duration": 0.30927825000003395
                },
                {
                    "name": "A#4",
                    "midi": 70,
                    "time": 989.0718435000086,
                    "velocity": 0.2283464566929134,
                    "duration": 0.30927825000003395
                },
                {
                    "name": "E4",
                    "midi": 64,
                    "time": 989.0718435000086,
                    "velocity": 0.2283464566929134,
                    "duration": 0.30927825000003395
                },
                {
                    "name": "C5",
                    "midi": 72,
                    "time": 989.4120495750087,
                    "velocity": 0.2047244094488189,
                    "duration": 0.2783504249999851
                },
                {
                    "name": "F4",
                    "midi": 65,
                    "time": 989.6904000000087,
                    "velocity": 0.29133858267716534,
                    "duration": 0.30927824999992026
                },
                {
                    "name": "G#4",
                    "midi": 68,
                    "time": 989.6904000000087,
                    "velocity": 0.29133858267716534,
                    "duration": 0.30927824999992026
                },
                {
                    "name": "C5",
                    "midi": 72,
                    "time": 989.9867916562587,
                    "velocity": 0.2283464566929134,
                    "duration": 0.30927824999992026
                },
                {
                    "name": "C4",
                    "midi": 60,
                    "time": 990.3089565000085,
                    "velocity": 0.2283464566929134,
                    "duration": 0.30927825000003395
                },
                {
                    "name": "F4",
                    "midi": 65,
                    "time": 990.6182347500086,
                    "velocity": 0.1968503937007874,
                    "duration": 0.30927825000003395
                },
                {
                    "name": "G#4",
                    "midi": 68,
                    "time": 990.9275130000086,
                    "velocity": 0.2992125984251969,
                    "duration": 0.30927825000003395
                },
                {
                    "name": "C5",
                    "midi": 72,
                    "time": 991.2367912500087,
                    "velocity": 0.23622047244094488,
                    "duration": 0.30927825000003395
                },
                {
                    "name": "C4",
                    "midi": 60,
                    "time": 991.5460695000087,
                    "velocity": 0.2440944881889764,
                    "duration": 0.30927825000003395
                },
                {
                    "name": "F4",
                    "midi": 65,
                    "time": 991.8553477500087,
                    "velocity": 0.2283464566929134,
                    "duration": 0.30927825000003395
                },
                {
                    "name": "G#4",
                    "midi": 68,
                    "time": 992.1646260000088,
                    "velocity": 0.31496062992125984,
                    "duration": 0.30927825000003395
                },
                {
                    "name": "C5",
                    "midi": 72,
                    "time": 992.4739042500088,
                    "velocity": 0.25196850393700787,
                    "duration": 0.30927825000003395
                },
                {
                    "name": "C4",
                    "midi": 60,
                    "time": 992.7831825000088,
                    "velocity": 0.25196850393700787,
                    "duration": 0.30927825000003395
                },
                {
                    "name": "F4",
                    "midi": 65,
                    "time": 993.0924607500089,
                    "velocity": 0.23622047244094488,
                    "duration": 0.30927825000003395
                },
                {
                    "name": "G#4",
                    "midi": 68,
                    "time": 993.4017390000089,
                    "velocity": 0.33070866141732286,
                    "duration": 0.30927825000003395
                },
                {
                    "name": "C5",
                    "midi": 72,
                    "time": 993.7110172500089,
                    "velocity": 0.25984251968503935,
                    "duration": 0.30927825000003395
                },
                {
                    "name": "D#4",
                    "midi": 63,
                    "time": 994.020295500009,
                    "velocity": 0.3228346456692913,
                    "duration": 0.30927825000003395
                },
                {
                    "name": "A#4",
                    "midi": 70,
                    "time": 994.020295500009,
                    "velocity": 0.3228346456692913,
                    "duration": 0.30927825000003395
                },
                {
                    "name": "D#5",
                    "midi": 75,
                    "time": 994.329573750009,
                    "velocity": 0.3464566929133858,
                    "duration": 0.30927825000003395
                },
                {
                    "name": "C5",
                    "midi": 72,
                    "time": 994.638852000009,
                    "velocity": 0.4251968503937008,
                    "duration": 0.30927825000003395
                },
                {
                    "name": "G#4",
                    "midi": 68,
                    "time": 994.638852000009,
                    "velocity": 0.4251968503937008,
                    "duration": 0.30927825000003395
                },
                {
                    "name": "D#5",
                    "midi": 75,
                    "time": 994.9481302500091,
                    "velocity": 0.3228346456692913,
                    "duration": 0.30927825000003395
                },
                {
                    "name": "D#4",
                    "midi": 63,
                    "time": 995.2625631375091,
                    "velocity": 0.3228346456692913,
                    "duration": 0.30927825000003395
                },
                {
                    "name": "G#4",
                    "midi": 68,
                    "time": 995.5666867500091,
                    "velocity": 0.29133858267716534,
                    "duration": 0.30927825000003395
                },
                {
                    "name": "C5",
                    "midi": 72,
                    "time": 995.8759650000092,
                    "velocity": 0.36220472440944884,
                    "duration": 0.30927825000003395
                },
                {
                    "name": "D#5",
                    "midi": 75,
                    "time": 996.1852432500092,
                    "velocity": 0.3228346456692913,
                    "duration": 0.30927825000003395
                },
                {
                    "name": "D#4",
                    "midi": 63,
                    "time": 996.4945215000092,
                    "velocity": 0.3228346456692913,
                    "duration": 0.30927825000003395
                },
                {
                    "name": "G#4",
                    "midi": 68,
                    "time": 996.8037997500093,
                    "velocity": 0.31496062992125984,
                    "duration": 0.30927825000003395
                },
                {
                    "name": "C5",
                    "midi": 72,
                    "time": 997.1130780000093,
                    "velocity": 0.4015748031496063,
                    "duration": 0.30927825000003395
                },
                {
                    "name": "D#5",
                    "midi": 75,
                    "time": 997.4223562500093,
                    "velocity": 0.3464566929133858,
                    "duration": 0.30927825000003395
                },
                {
                    "name": "G#4",
                    "midi": 68,
                    "time": 997.7316345000094,
                    "velocity": 0.36220472440944884,
                    "duration": 0.30927825000003395
                },
                {
                    "name": "C5",
                    "midi": 72,
                    "time": 997.7316345000094,
                    "velocity": 0.36220472440944884,
                    "duration": 0.30927825000003395
                },
                {
                    "name": "D#5",
                    "midi": 75,
                    "time": 998.0409127500094,
                    "velocity": 0.3464566929133858,
                    "duration": 0.30927825000003395
                },
                {
                    "name": "G4",
                    "midi": 67,
                    "time": 998.3501910000094,
                    "velocity": 0.4330708661417323,
                    "duration": 0.30927825000003395
                },
                {
                    "name": "C#5",
                    "midi": 73,
                    "time": 998.3501910000094,
                    "velocity": 0.4330708661417323,
                    "duration": 0.30927825000003395
                },
                {
                    "name": "D#5",
                    "midi": 75,
                    "time": 998.6594692500095,
                    "velocity": 0.3779527559055118,
                    "duration": 0.30927825000003395
                },
                {
                    "name": "C5",
                    "midi": 72,
                    "time": 998.9687475000095,
                    "velocity": 0.3937007874015748,
                    "duration": 0.30927825000003395
                },
                {
                    "name": "G#4",
                    "midi": 68,
                    "time": 998.9687475000095,
                    "velocity": 0.3937007874015748,
                    "duration": 0.30927825000003395
                },
                {
                    "name": "D#5",
                    "midi": 75,
                    "time": 999.2780257500095,
                    "velocity": 0.4251968503937008,
                    "duration": 0.30927825000003395
                },
                {
                    "name": "G4",
                    "midi": 67,
                    "time": 999.5873040000096,
                    "velocity": 0.47244094488188976,
                    "duration": 0.30927825000003395
                },
                {
                    "name": "A#4",
                    "midi": 70,
                    "time": 999.5873040000096,
                    "velocity": 0.47244094488188976,
                    "duration": 0.30927825000003395
                },
                {
                    "name": "D#5",
                    "midi": 75,
                    "time": 999.8965822500096,
                    "velocity": 0.3858267716535433,
                    "duration": 0.30927825000003395
                },
                {
                    "name": "D#4",
                    "midi": 63,
                    "time": 1000.2058605000096,
                    "velocity": 0.3858267716535433,
                    "duration": 0.30927825000003395
                },
                {
                    "name": "G4",
                    "midi": 67,
                    "time": 1000.5151387500097,
                    "velocity": 0.3543307086614173,
                    "duration": 0.30927825000003395
                },
                {
                    "name": "A#4",
                    "midi": 70,
                    "time": 1000.8244170000097,
                    "velocity": 0.4094488188976378,
                    "duration": 0.30927825000003395
                },
                {
                    "name": "D#5",
                    "midi": 75,
                    "time": 1001.1336952500097,
                    "velocity": 0.33070866141732286,
                    "duration": 0.30927825000003395
                },
                {
                    "name": "D#4",
                    "midi": 63,
                    "time": 1001.4429735000098,
                    "velocity": 0.33070866141732286,
                    "duration": 0.30927825000003395
                },
                {
                    "name": "G4",
                    "midi": 67,
                    "time": 1001.7522517500098,
                    "velocity": 0.30708661417322836,
                    "duration": 0.30927825000003395
                },
                {
                    "name": "A#4",
                    "midi": 70,
                    "time": 1002.0615300000098,
                    "velocity": 0.4566929133858268,
                    "duration": 0.30927825000003395
                },
                {
                    "name": "D#5",
                    "midi": 75,
                    "time": 1002.3708082500099,
                    "velocity": 0.3543307086614173,
                    "duration": 0.30927825000003395
                },
                {
                    "name": "D#4",
                    "midi": 63,
                    "time": 1002.6800865000099,
                    "velocity": 0.3543307086614173,
                    "duration": 0.30927825000003395
                },
                {
                    "name": "G4",
                    "midi": 67,
                    "time": 1002.9893647500099,
                    "velocity": 0.31496062992125984,
                    "duration": 0.30927825000003395
                },
                {
                    "name": "A#4",
                    "midi": 70,
                    "time": 1003.29864300001,
                    "velocity": 0.4409448818897638,
                    "duration": 0.30927825000003395
                },
                {
                    "name": "D#5",
                    "midi": 75,
                    "time": 1003.60792125001,
                    "velocity": 0.3228346456692913,
                    "duration": 0.30927825000003395
                },
                {
                    "name": "C#5",
                    "midi": 73,
                    "time": 1003.91719950001,
                    "velocity": 0.3228346456692913,
                    "duration": 0.30927825000003395
                },
                {
                    "name": "D#5",
                    "midi": 75,
                    "time": 1004.2264777500101,
                    "velocity": 0.2992125984251969,
                    "duration": 0.30927825000003395
                },
                {
                    "name": "C5",
                    "midi": 72,
                    "time": 1004.5357560000101,
                    "velocity": 0.41732283464566927,
                    "duration": 0.30927825000003395
                },
                {
                    "name": "D#5",
                    "midi": 75,
                    "time": 1004.8450342500101,
                    "velocity": 0.33858267716535434,
                    "duration": 0.30927825000003395
                },
                {
                    "name": "D#4",
                    "midi": 63,
                    "time": 1005.1543125000102,
                    "velocity": 0.33858267716535434,
                    "duration": 0.30927825000003395
                },
                {
                    "name": "G#4",
                    "midi": 68,
                    "time": 1005.4635907500102,
                    "velocity": 0.30708661417322836,
                    "duration": 0.30927825000003395
                },
                {
                    "name": "C5",
                    "midi": 72,
                    "time": 1005.7728690000102,
                    "velocity": 0.3779527559055118,
                    "duration": 0.30927825000003395
                },
                {
                    "name": "D#5",
                    "midi": 75,
                    "time": 1006.0821472500103,
                    "velocity": 0.2992125984251969,
                    "duration": 0.30927825000003395
                },
                {
                    "name": "D#4",
                    "midi": 63,
                    "time": 1006.3914255000103,
                    "velocity": 0.2992125984251969,
                    "duration": 0.30927825000003395
                },
                {
                    "name": "G#4",
                    "midi": 68,
                    "time": 1006.7007037500103,
                    "velocity": 0.2755905511811024,
                    "duration": 0.30927825000003395
                },
                {
                    "name": "C5",
                    "midi": 72,
                    "time": 1007.0099820000104,
                    "velocity": 0.3543307086614173,
                    "duration": 0.30927825000003395
                },
                {
                    "name": "D#5",
                    "midi": 75,
                    "time": 1007.3192602500104,
                    "velocity": 0.2755905511811024,
                    "duration": 0.30927825000003395
                },
                {
                    "name": "D#4",
                    "midi": 63,
                    "time": 1007.6285385000104,
                    "velocity": 0.2755905511811024,
                    "duration": 0.30927825000003395
                },
                {
                    "name": "G#4",
                    "midi": 68,
                    "time": 1007.9378167500105,
                    "velocity": 0.2677165354330709,
                    "duration": 0.30927825000003395
                },
                {
                    "name": "G#4",
                    "midi": 68,
                    "time": 1008.2470950000105,
                    "velocity": 0.2992125984251969,
                    "duration": 0.30927825000003395
                },
                {
                    "name": "C5",
                    "midi": 72,
                    "time": 1008.2470950000105,
                    "velocity": 0.2992125984251969,
                    "duration": 0.30927825000003395
                },
                {
                    "name": "D#5",
                    "midi": 75,
                    "time": 1008.5563732500106,
                    "velocity": 0.23622047244094488,
                    "duration": 0.30927825000003395
                },
                {
                    "name": "G4",
                    "midi": 67,
                    "time": 1008.8656515000106,
                    "velocity": 0.2283464566929134,
                    "duration": 0.30927825000003395
                },
                {
                    "name": "C#5",
                    "midi": 73,
                    "time": 1008.8656515000106,
                    "velocity": 0.2283464566929134,
                    "duration": 0.30927825000003395
                },
                {
                    "name": "D#5",
                    "midi": 75,
                    "time": 1009.1749297500106,
                    "velocity": 0.2204724409448819,
                    "duration": 0.2783504249999851
                },
                {
                    "name": "G#4",
                    "midi": 68,
                    "time": 1009.4842080000107,
                    "velocity": 0.29133858267716534,
                    "duration": 0.30927825000003395
                },
                {
                    "name": "C5",
                    "midi": 72,
                    "time": 1009.4842080000107,
                    "velocity": 0.29133858267716534,
                    "duration": 0.30927825000003395
                },
                {
                    "name": "D#5",
                    "midi": 75,
                    "time": 1009.7934862500107,
                    "velocity": 0.2283464566929134,
                    "duration": 0.30927825000003395
                },
                {
                    "name": "D#4",
                    "midi": 63,
                    "time": 1010.1027645000107,
                    "velocity": 0.2283464566929134,
                    "duration": 0.30927825000003395
                },
                {
                    "name": "G#4",
                    "midi": 68,
                    "time": 1010.4120427500108,
                    "velocity": 0.2047244094488189,
                    "duration": 0.30927825000003395
                },
                {
                    "name": "C5",
                    "midi": 72,
                    "time": 1010.7213210000108,
                    "velocity": 0.2992125984251969,
                    "duration": 0.30927825000003395
                },
                {
                    "name": "D#5",
                    "midi": 75,
                    "time": 1011.0305992500108,
                    "velocity": 0.23622047244094488,
                    "duration": 0.30927825000003395
                },
                {
                    "name": "D#4",
                    "midi": 63,
                    "time": 1011.3398775000109,
                    "velocity": 0.2440944881889764,
                    "duration": 0.30927825000003395
                },
                {
                    "name": "G#4",
                    "midi": 68,
                    "time": 1011.6491557500109,
                    "velocity": 0.2283464566929134,
                    "duration": 0.30927825000003395
                },
                {
                    "name": "C5",
                    "midi": 72,
                    "time": 1011.9584340000109,
                    "velocity": 0.31496062992125984,
                    "duration": 0.30927825000003395
                },
                {
                    "name": "D#5",
                    "midi": 75,
                    "time": 1012.267712250011,
                    "velocity": 0.25196850393700787,
                    "duration": 0.30927825000003395
                },
                {
                    "name": "D#4",
                    "midi": 63,
                    "time": 1012.576990500011,
                    "velocity": 0.25196850393700787,
                    "duration": 0.30927825000003395
                },
                {
                    "name": "G#4",
                    "midi": 68,
                    "time": 1012.886268750011,
                    "velocity": 0.23622047244094488,
                    "duration": 0.30927825000003395
                },
                {
                    "name": "C5",
                    "midi": 72,
                    "time": 1013.1955470000111,
                    "velocity": 0.33070866141732286,
                    "duration": 0.30927825000003395
                },
                {
                    "name": "D#5",
                    "midi": 75,
                    "time": 1013.5048252500111,
                    "velocity": 0.25984251968503935,
                    "duration": 0.30927825000003395
                },
                {
                    "name": "D#4",
                    "midi": 63,
                    "time": 1013.8141035000111,
                    "velocity": 0.3228346456692913,
                    "duration": 0.30927825000003395
                },
                {
                    "name": "G#4",
                    "midi": 68,
                    "time": 1014.1233817500112,
                    "velocity": 0.3464566929133858,
                    "duration": 0.30927825000003395
                },
                {
                    "name": "C#5",
                    "midi": 73,
                    "time": 1014.4326600000112,
                    "velocity": 0.3937007874015748,
                    "duration": 0.30927825000003395
                },
                {
                    "name": "G#4",
                    "midi": 68,
                    "time": 1014.7419382500112,
                    "velocity": 0.28346456692913385,
                    "duration": 0.30927825000003395
                },
                {
                    "name": "F4",
                    "midi": 65,
                    "time": 1015.0512165000113,
                    "velocity": 0.28346456692913385,
                    "duration": 0.30927825000003395
                },
                {
                    "name": "G#4",
                    "midi": 68,
                    "time": 1015.3604947500113,
                    "velocity": 0.2755905511811024,
                    "duration": 0.30927825000003395
                },
                {
                    "name": "C#5",
                    "midi": 73,
                    "time": 1015.6697730000113,
                    "velocity": 0.3543307086614173,
                    "duration": 0.30927825000003395
                },
                {
                    "name": "F5",
                    "midi": 77,
                    "time": 1015.9790512500114,
                    "velocity": 0.28346456692913385,
                    "duration": 0.30927825000003395
                },
                {
                    "name": "F4",
                    "midi": 65,
                    "time": 1016.2883295000114,
                    "velocity": 0.28346456692913385,
                    "duration": 0.30927825000003395
                },
                {
                    "name": "G#4",
                    "midi": 68,
                    "time": 1016.5976077500114,
                    "velocity": 0.25984251968503935,
                    "duration": 0.30927825000003395
                },
                {
                    "name": "C#5",
                    "midi": 73,
                    "time": 1016.9068860000115,
                    "velocity": 0.3464566929133858,
                    "duration": 0.30927825000003395
                },
                {
                    "name": "F5",
                    "midi": 77,
                    "time": 1017.2161642500115,
                    "velocity": 0.29133858267716534,
                    "duration": 0.30927825000003395
                },
                {
                    "name": "F4",
                    "midi": 65,
                    "time": 1017.5254425000115,
                    "velocity": 0.29133858267716534,
                    "duration": 0.30927825000003395
                },
                {
                    "name": "A#4",
                    "midi": 70,
                    "time": 1017.8347207500116,
                    "velocity": 0.29133858267716534,
                    "duration": 0.30927825000003395
                },
                {
                    "name": "C#5",
                    "midi": 73,
                    "time": 1018.1439990000116,
                    "velocity": 0.3779527559055118,
                    "duration": 0.30927825000003395
                },
                {
                    "name": "F5",
                    "midi": 77,
                    "time": 1018.4532772500116,
                    "velocity": 0.2992125984251969,
                    "duration": 0.30927825000003395
                },
                {
                    "name": "F4",
                    "midi": 65,
                    "time": 1018.7625555000117,
                    "velocity": 0.3228346456692913,
                    "duration": 0.30927825000003395
                },
                {
                    "name": "A#4",
                    "midi": 70,
                    "time": 1019.0718337500117,
                    "velocity": 0.3464566929133858,
                    "duration": 0.30927825000003395
                },
                {
                    "name": "C#5",
                    "midi": 73,
                    "time": 1019.3811120000117,
                    "velocity": 0.4409448818897638,
                    "duration": 0.30927825000003395
                },
                {
                    "name": "D#5",
                    "midi": 75,
                    "time": 1019.6903902500118,
                    "velocity": 0.33070866141732286,
                    "duration": 0.30927825000003395
                },
                {
                    "name": "D#4",
                    "midi": 63,
                    "time": 1019.9996685000118,
                    "velocity": 0.33070866141732286,
                    "duration": 0.30927825000003395
                },
                {
                    "name": "A#4",
                    "midi": 70,
                    "time": 1020.3089467500118,
                    "velocity": 0.31496062992125984,
                    "duration": 0.30927825000003395
                },
                {
                    "name": "C#5",
                    "midi": 73,
                    "time": 1020.6182250000119,
                    "velocity": 0.4094488188976378,
                    "duration": 0.30927825000003395
                },
                {
                    "name": "D#5",
                    "midi": 75,
                    "time": 1020.9275032500119,
                    "velocity": 0.33070866141732286,
                    "duration": 0.30927825000003395
                },
                {
                    "name": "D#4",
                    "midi": 63,
                    "time": 1021.236781500012,
                    "velocity": 0.33070866141732286,
                    "duration": 0.30927825000003395
                },
                {
                    "name": "A#4",
                    "midi": 70,
                    "time": 1021.546059750012,
                    "velocity": 0.30708661417322836,
                    "duration": 0.30927825000003395
                },
                {
                    "name": "C5",
                    "midi": 72,
                    "time": 1021.855338000012,
                    "velocity": 0.3937007874015748,
                    "duration": 0.30927825000003395
                },
                {
                    "name": "D#5",
                    "midi": 75,
                    "time": 1022.164616250012,
                    "velocity": 0.31496062992125984,
                    "duration": 0.30927825000003395
                },
                {
                    "name": "D#4",
                    "midi": 63,
                    "time": 1022.4738945000121,
                    "velocity": 0.31496062992125984,
                    "duration": 0.30927825000003395
                },
                {
                    "name": "G#4",
                    "midi": 68,
                    "time": 1022.7831727500121,
                    "velocity": 0.2992125984251969,
                    "duration": 0.30927825000003395
                },
                {
                    "name": "C5",
                    "midi": 72,
                    "time": 1023.0924510000121,
                    "velocity": 0.33070866141732286,
                    "duration": 0.30927825000003395
                },
                {
                    "name": "D#5",
                    "midi": 75,
                    "time": 1023.4017292500122,
                    "velocity": 0.25984251968503935,
                    "duration": 0.30927825000003395
                },
                {
                    "name": "D#4",
                    "midi": 63,
                    "time": 1023.7110075000122,
                    "velocity": 0.3228346456692913,
                    "duration": 0.30927824999992026
                },
                {
                    "name": "G#4",
                    "midi": 68,
                    "time": 1024.0202857500121,
                    "velocity": 0.3464566929133858,
                    "duration": 0.30927825000003395
                },
                {
                    "name": "A#4",
                    "midi": 70,
                    "time": 1024.3295640000122,
                    "velocity": 0.4251968503937008,
                    "duration": 0.30927825000003395
                },
                {
                    "name": "D#5",
                    "midi": 75,
                    "time": 1024.6388422500122,
                    "velocity": 0.3228346456692913,
                    "duration": 0.30927825000003395
                },
                {
                    "name": "D#4",
                    "midi": 63,
                    "time": 1024.9481205000122,
                    "velocity": 0.3228346456692913,
                    "duration": 0.30927825000003395
                },
                {
                    "name": "G#4",
                    "midi": 68,
                    "time": 1025.2573987500123,
                    "velocity": 0.28346456692913385,
                    "duration": 0.30927825000003395
                },
                {
                    "name": "A#4",
                    "midi": 70,
                    "time": 1025.5666770000123,
                    "velocity": 0.3779527559055118,
                    "duration": 0.30927825000003395
                },
                {
                    "name": "D#5",
                    "midi": 75,
                    "time": 1025.8759552500123,
                    "velocity": 0.30708661417322836,
                    "duration": 0.30927825000003395
                },
                {
                    "name": "D#4",
                    "midi": 63,
                    "time": 1026.1852335000124,
                    "velocity": 0.30708661417322836,
                    "duration": 0.30927825000003395
                },
                {
                    "name": "G#4",
                    "midi": 68,
                    "time": 1026.4945117500124,
                    "velocity": 0.2755905511811024,
                    "duration": 0.30927825000003395
                },
                {
                    "name": "A#4",
                    "midi": 70,
                    "time": 1026.8037900000124,
                    "velocity": 0.3779527559055118,
                    "duration": 0.30927825000003395
                },
                {
                    "name": "D#5",
                    "midi": 75,
                    "time": 1027.1130682500125,
                    "velocity": 0.25196850393700787,
                    "duration": 0.30927825000003395
                },
                {
                    "name": "D#4",
                    "midi": 63,
                    "time": 1027.4223465000125,
                    "velocity": 0.29133858267716534,
                    "duration": 0.30927825000003395
                },
                {
                    "name": "G4",
                    "midi": 67,
                    "time": 1027.7316247500125,
                    "velocity": 0.25984251968503935,
                    "duration": 0.30927825000003395
                },
                {
                    "name": "A#4",
                    "midi": 70,
                    "time": 1028.0409030000126,
                    "velocity": 0.33070866141732286,
                    "duration": 0.30927825000003395
                },
                {
                    "name": "D#5",
                    "midi": 75,
                    "time": 1028.3501812500126,
                    "velocity": 0.2283464566929134,
                    "duration": 0.30927825000003395
                },
                {
                    "name": "D#4",
                    "midi": 63,
                    "time": 1028.6594595000126,
                    "velocity": 0.2283464566929134,
                    "duration": 0.30927825000003395
                },
                {
                    "name": "G4",
                    "midi": 67,
                    "time": 1028.9687377500127,
                    "velocity": 0.2047244094488189,
                    "duration": 0.30927825000003395
                },
                {
                    "name": "C5",
                    "midi": 72,
                    "time": 1029.2780160000127,
                    "velocity": 0.29133858267716534,
                    "duration": 0.30927825000003395
                },
                {
                    "name": "D#5",
                    "midi": 75,
                    "time": 1029.5872942500127,
                    "velocity": 0.2283464566929134,
                    "duration": 0.30927825000003395
                },
                {
                    "name": "D#4",
                    "midi": 63,
                    "time": 1029.8965725000128,
                    "velocity": 0.2283464566929134,
                    "duration": 0.30927825000003395
                },
                {
                    "name": "G#4",
                    "midi": 68,
                    "time": 1030.2058507500128,
                    "velocity": 0.2125984251968504,
                    "duration": 0.30927825000003395
                },
                {
                    "name": "C5",
                    "midi": 72,
                    "time": 1030.5151290000128,
                    "velocity": 0.2992125984251969,
                    "duration": 0.30927825000003395
                },
                {
                    "name": "D#5",
                    "midi": 75,
                    "time": 1030.8244072500129,
                    "velocity": 0.23622047244094488,
                    "duration": 0.30927825000003395
                },
                {
                    "name": "D#4",
                    "midi": 63,
                    "time": 1031.133685500013,
                    "velocity": 0.2440944881889764,
                    "duration": 0.30927825000003395
                },
                {
                    "name": "G#4",
                    "midi": 68,
                    "time": 1031.442963750013,
                    "velocity": 0.2204724409448819,
                    "duration": 0.30927825000003395
                },
                {
                    "name": "B4",
                    "midi": 71,
                    "time": 1031.752242000013,
                    "velocity": 0.31496062992125984,
                    "duration": 0.30927825000003395
                },
                {
                    "name": "D#5",
                    "midi": 75,
                    "time": 1032.061520250013,
                    "velocity": 0.25196850393700787,
                    "duration": 0.30927825000003395
                },
                {
                    "name": "D#4",
                    "midi": 63,
                    "time": 1032.370798500013,
                    "velocity": 0.25196850393700787,
                    "duration": 0.30927825000003395
                },
                {
                    "name": "G#4",
                    "midi": 68,
                    "time": 1032.680076750013,
                    "velocity": 0.2204724409448819,
                    "duration": 0.30927825000003395
                },
                {
                    "name": "B4",
                    "midi": 71,
                    "time": 1032.9893550000131,
                    "velocity": 0.33070866141732286,
                    "duration": 0.30927825000003395
                },
                {
                    "name": "D#5",
                    "midi": 75,
                    "time": 1033.2986332500132,
                    "velocity": 0.25984251968503935,
                    "duration": 0.30927825000003395
                },
                {
                    "name": "D#4",
                    "midi": 63,
                    "time": 1033.6079115000132,
                    "velocity": 0.25984251968503935,
                    "duration": 0.30927825000003395
                },
                {
                    "name": "G#4",
                    "midi": 68,
                    "time": 1033.9171897500132,
                    "velocity": 0.2204724409448819,
                    "duration": 0.30927825000003395
                },
                {
                    "name": "A#4",
                    "midi": 70,
                    "time": 1034.2264680000133,
                    "velocity": 0.29133858267716534,
                    "duration": 0.30927825000003395
                },
                {
                    "name": "D#5",
                    "midi": 75,
                    "time": 1034.5357462500133,
                    "velocity": 0.2283464566929134,
                    "duration": 0.30927825000003395
                },
                {
                    "name": "D#4",
                    "midi": 63,
                    "time": 1034.8450245000133,
                    "velocity": 0.2283464566929134,
                    "duration": 0.30927825000003395
                },
                {
                    "name": "G#4",
                    "midi": 68,
                    "time": 1035.1543027500134,
                    "velocity": 0.2047244094488189,
                    "duration": 0.30927825000003395
                },
                {
                    "name": "A#4",
                    "midi": 70,
                    "time": 1035.4635810000134,
                    "velocity": 0.2992125984251969,
                    "duration": 0.30927825000003395
                },
                {
                    "name": "D#5",
                    "midi": 75,
                    "time": 1035.7728592500134,
                    "velocity": 0.2283464566929134,
                    "duration": 0.30927825000003395
                },
                {
                    "name": "D#4",
                    "midi": 63,
                    "time": 1036.0821375000135,
                    "velocity": 0.2283464566929134,
                    "duration": 0.30927825000003395
                },
                {
                    "name": "G#4",
                    "midi": 68,
                    "time": 1036.3914157500135,
                    "velocity": 0.2125984251968504,
                    "duration": 0.30927825000003395
                },
                {
                    "name": "A#4",
                    "midi": 70,
                    "time": 1036.7006940000135,
                    "velocity": 0.31496062992125984,
                    "duration": 0.30927825000003395
                },
                {
                    "name": "D#5",
                    "midi": 75,
                    "time": 1037.0099722500136,
                    "velocity": 0.2204724409448819,
                    "duration": 0.30927825000003395
                },
                {
                    "name": "D#4",
                    "midi": 63,
                    "time": 1037.3192505000136,
                    "velocity": 0.2204724409448819,
                    "duration": 0.30927825000003395
                },
                {
                    "name": "G4",
                    "midi": 67,
                    "time": 1037.6285287500136,
                    "velocity": 0.2047244094488189,
                    "duration": 0.30927825000003395
                },
                {
                    "name": "A#4",
                    "midi": 70,
                    "time": 1037.9378070000137,
                    "velocity": 0.3228346456692913,
                    "duration": 0.30927825000003395
                },
                {
                    "name": "D#5",
                    "midi": 75,
                    "time": 1038.2470852500137,
                    "velocity": 0.2283464566929134,
                    "duration": 0.30927825000003395
                },
                {
                    "name": "D#4",
                    "midi": 63,
                    "time": 1038.5563635000137,
                    "velocity": 0.2283464566929134,
                    "duration": 0.30927825000003395
                },
                {
                    "name": "G4",
                    "midi": 67,
                    "time": 1038.8656417500138,
                    "velocity": 0.1968503937007874,
                    "duration": 0.30927825000003395
                },
                {
                    "name": "C5",
                    "midi": 72,
                    "time": 1039.1749200000138,
                    "velocity": 0.29133858267716534,
                    "duration": 0.30927825000003395
                },
                {
                    "name": "D#5",
                    "midi": 75,
                    "time": 1039.4841982500138,
                    "velocity": 0.2755905511811024,
                    "duration": 0.30927825000003395
                },
                {
                    "name": "D#4",
                    "midi": 63,
                    "time": 1039.7934765000139,
                    "velocity": 0.2283464566929134,
                    "duration": 0.30927825000003395
                },
                {
                    "name": "G#4",
                    "midi": 68,
                    "time": 1040.102754750014,
                    "velocity": 0.2204724409448819,
                    "duration": 0.30927825000003395
                },
                {
                    "name": "C5",
                    "midi": 72,
                    "time": 1040.412033000014,
                    "velocity": 0.2992125984251969,
                    "duration": 0.30927825000003395
                },
                {
                    "name": "D#5",
                    "midi": 75,
                    "time": 1040.721311250014,
                    "velocity": 0.23622047244094488,
                    "duration": 0.30927825000003395
                },
                {
                    "name": "D#4",
                    "midi": 63,
                    "time": 1041.030589500014,
                    "velocity": 0.2440944881889764,
                    "duration": 0.30927825000003395
                },
                {
                    "name": "G#4",
                    "midi": 68,
                    "time": 1041.339867750014,
                    "velocity": 0.2204724409448819,
                    "duration": 0.30927825000003395
                },
                {
                    "name": "C5",
                    "midi": 72,
                    "time": 1041.649146000014,
                    "velocity": 0.3543307086614173,
                    "duration": 0.30927825000003395
                },
                {
                    "name": "D#5",
                    "midi": 75,
                    "time": 1041.958424250014,
                    "velocity": 0.25196850393700787,
                    "duration": 0.30927825000003395
                },
                {
                    "name": "D#4",
                    "midi": 63,
                    "time": 1042.2677025000141,
                    "velocity": 0.25196850393700787,
                    "duration": 0.30927825000003395
                },
                {
                    "name": "G#4",
                    "midi": 68,
                    "time": 1042.5769807500142,
                    "velocity": 0.23622047244094488,
                    "duration": 0.30927825000003395
                },
                {
                    "name": "C5",
                    "midi": 72,
                    "time": 1042.8862590000142,
                    "velocity": 0.3700787401574803,
                    "duration": 0.30927825000003395
                },
                {
                    "name": "D#5",
                    "midi": 75,
                    "time": 1043.1955372500142,
                    "velocity": 0.2677165354330709,
                    "duration": 0.30927825000003395
                },
                {
                    "name": "D#4",
                    "midi": 63,
                    "time": 1043.5048155000143,
                    "velocity": 0.2992125984251969,
                    "duration": 0.30927825000003395
                },
                {
                    "name": "G#4",
                    "midi": 68,
                    "time": 1043.8140937500143,
                    "velocity": 0.2755905511811024,
                    "duration": 0.30927825000003395
                },
                {
                    "name": "C5",
                    "midi": 72,
                    "time": 1044.1233720000143,
                    "velocity": 0.3937007874015748,
                    "duration": 0.30927825000003395
                },
                {
                    "name": "E5",
                    "midi": 76,
                    "time": 1044.4326502500144,
                    "velocity": 0.30708661417322836,
                    "duration": 0.30927825000003395
                },
                {
                    "name": "E4",
                    "midi": 64,
                    "time": 1044.7419285000144,
                    "velocity": 0.30708661417322836,
                    "duration": 0.30927825000003395
                },
                {
                    "name": "G4",
                    "midi": 67,
                    "time": 1045.0512067500144,
                    "velocity": 0.2677165354330709,
                    "duration": 0.30927825000003395
                },
                {
                    "name": "C5",
                    "midi": 72,
                    "time": 1045.3604850000145,
                    "velocity": 0.4015748031496063,
                    "duration": 0.30927825000003395
                },
                {
                    "name": "E5",
                    "midi": 76,
                    "time": 1045.6697632500145,
                    "velocity": 0.30708661417322836,
                    "duration": 0.30927825000003395
                },
                {
                    "name": "E4",
                    "midi": 64,
                    "time": 1045.9790415000145,
                    "velocity": 0.31496062992125984,
                    "duration": 0.30927825000003395
                },
                {
                    "name": "G4",
                    "midi": 67,
                    "time": 1046.2883197500146,
                    "velocity": 0.2677165354330709,
                    "duration": 0.30927825000003395
                },
                {
                    "name": "C5",
                    "midi": 72,
                    "time": 1046.5975980000146,
                    "velocity": 0.3858267716535433,
                    "duration": 0.30927825000003395
                },
                {
                    "name": "E5",
                    "midi": 76,
                    "time": 1046.9068762500146,
                    "velocity": 0.2992125984251969,
                    "duration": 0.30927825000003395
                },
                {
                    "name": "E4",
                    "midi": 64,
                    "time": 1047.2161545000147,
                    "velocity": 0.2992125984251969,
                    "duration": 0.30927825000003395
                },
                {
                    "name": "G4",
                    "midi": 67,
                    "time": 1047.5254327500147,
                    "velocity": 0.2755905511811024,
                    "duration": 0.30927825000003395
                },
                {
                    "name": "C5",
                    "midi": 72,
                    "time": 1047.8347110000147,
                    "velocity": 0.4015748031496063,
                    "duration": 0.30927825000003395
                },
                {
                    "name": "E5",
                    "midi": 76,
                    "time": 1048.1439892500148,
                    "velocity": 0.31496062992125984,
                    "duration": 0.30927825000003395
                },
                {
                    "name": "E4",
                    "midi": 64,
                    "time": 1048.4532675000148,
                    "velocity": 0.3228346456692913,
                    "duration": 0.30927825000003395
                },
                {
                    "name": "G4",
                    "midi": 67,
                    "time": 1048.7625457500149,
                    "velocity": 0.2992125984251969,
                    "duration": 0.30927825000003395
                },
                {
                    "name": "C5",
                    "midi": 72,
                    "time": 1049.0718240000149,
                    "velocity": 0.4645669291338583,
                    "duration": 0.30927825000003395
                },
                {
                    "name": "F5",
                    "midi": 77,
                    "time": 1049.381102250015,
                    "velocity": 0.3543307086614173,
                    "duration": 0.30927825000003395
                },
                {
                    "name": "F4",
                    "midi": 65,
                    "time": 1049.690380500015,
                    "velocity": 0.36220472440944884,
                    "duration": 0.30927825000003395
                },
                {
                    "name": "G#4",
                    "midi": 68,
                    "time": 1049.999658750015,
                    "velocity": 0.3543307086614173,
                    "duration": 0.30927825000003395
                },
                {
                    "name": "C5",
                    "midi": 72,
                    "time": 1050.308937000015,
                    "velocity": 0.5039370078740157,
                    "duration": 0.30927825000003395
                },
                {
                    "name": "F5",
                    "midi": 77,
                    "time": 1050.618215250015,
                    "velocity": 0.3779527559055118,
                    "duration": 0.30927825000003395
                },
                {
                    "name": "F4",
                    "midi": 65,
                    "time": 1050.927493500015,
                    "velocity": 0.3937007874015748,
                    "duration": 0.30927825000003395
                },
                {
                    "name": "G#4",
                    "midi": 68,
                    "time": 1051.2367717500151,
                    "velocity": 0.3937007874015748,
                    "duration": 0.30927825000003395
                },
                {
                    "name": "C5",
                    "midi": 72,
                    "time": 1051.5460500000152,
                    "velocity": 0.4566929133858268,
                    "duration": 0.30927825000003395
                },
                {
                    "name": "F5",
                    "midi": 77,
                    "time": 1051.8553282500152,
                    "velocity": 0.3700787401574803,
                    "duration": 0.30927825000003395
                },
                {
                    "name": "F4",
                    "midi": 65,
                    "time": 1052.1646065000152,
                    "velocity": 0.3700787401574803,
                    "duration": 0.30927825000003395
                },
                {
                    "name": "G#4",
                    "midi": 68,
                    "time": 1052.4738847500153,
                    "velocity": 0.33858267716535434,
                    "duration": 0.30927825000003395
                },
                {
                    "name": "C5",
                    "midi": 72,
                    "time": 1052.7831630000153,
                    "velocity": 0.4251968503937008,
                    "duration": 0.30927825000003395
                },
                {
                    "name": "F5",
                    "midi": 77,
                    "time": 1053.0924412500153,
                    "velocity": 0.36220472440944884,
                    "duration": 0.30927825000003395
                },
                {
                    "name": "F4",
                    "midi": 65,
                    "time": 1053.4017195000154,
                    "velocity": 0.36220472440944884,
                    "duration": 0.30927825000003395
                },
                {
                    "name": "G#4",
                    "midi": 68,
                    "time": 1053.7109977500154,
                    "velocity": 0.3228346456692913,
                    "duration": 0.30927825000003395
                },
                {
                    "name": "C5",
                    "midi": 72,
                    "time": 1054.0202760000154,
                    "velocity": 0.44881889763779526,
                    "duration": 0.30927825000003395
                },
                {
                    "name": "E5",
                    "midi": 76,
                    "time": 1054.3295542500155,
                    "velocity": 0.3464566929133858,
                    "duration": 0.30927825000003395
                },
                {
                    "name": "E4",
                    "midi": 64,
                    "time": 1054.6388325000155,
                    "velocity": 0.3464566929133858,
                    "duration": 0.30927825000003395
                },
                {
                    "name": "G4",
                    "midi": 67,
                    "time": 1054.9481107500155,
                    "velocity": 0.31496062992125984,
                    "duration": 0.30927825000003395
                },
                {
                    "name": "C5",
                    "midi": 72,
                    "time": 1055.2573890000156,
                    "velocity": 0.4566929133858268,
                    "duration": 0.30927825000003395
                },
                {
                    "name": "E5",
                    "midi": 76,
                    "time": 1055.5666672500156,
                    "velocity": 0.3464566929133858,
                    "duration": 0.30927825000003395
                },
                {
                    "name": "E4",
                    "midi": 64,
                    "time": 1055.8759455000156,
                    "velocity": 0.36220472440944884,
                    "duration": 0.30927825000003395
                },
                {
                    "name": "G4",
                    "midi": 67,
                    "time": 1056.1852237500157,
                    "velocity": 0.3228346456692913,
                    "duration": 0.30927825000003395
                },
                {
                    "name": "C5",
                    "midi": 72,
                    "time": 1056.4945020000157,
                    "velocity": 0.4409448818897638,
                    "duration": 0.30927825000003395
                },
                {
                    "name": "E5",
                    "midi": 76,
                    "time": 1056.8037802500157,
                    "velocity": 0.33858267716535434,
                    "duration": 0.30927825000003395
                },
                {
                    "name": "E4",
                    "midi": 64,
                    "time": 1057.1130585000158,
                    "velocity": 0.33858267716535434,
                    "duration": 0.30927825000003395
                },
                {
                    "name": "G4",
                    "midi": 67,
                    "time": 1057.4223367500158,
                    "velocity": 0.30708661417322836,
                    "duration": 0.30927825000003395
                },
                {
                    "name": "C5",
                    "midi": 72,
                    "time": 1057.7316150000158,
                    "velocity": 0.4566929133858268,
                    "duration": 0.30927825000003395
                },
                {
                    "name": "E5",
                    "midi": 76,
                    "time": 1058.0408932500159,
                    "velocity": 0.36220472440944884,
                    "duration": 0.30927825000003395
                },
                {
                    "name": "E4",
                    "midi": 64,
                    "time": 1058.350171500016,
                    "velocity": 0.3700787401574803,
                    "duration": 0.30927825000003395
                },
                {
                    "name": "G4",
                    "midi": 67,
                    "time": 1058.659449750016,
                    "velocity": 0.3464566929133858,
                    "duration": 0.30927825000003395
                },
                {
                    "name": "C5",
                    "midi": 72,
                    "time": 1058.968728000016,
                    "velocity": 0.5275590551181102,
                    "duration": 0.30927825000003395
                },
                {
                    "name": "F5",
                    "midi": 77,
                    "time": 1059.278006250016,
                    "velocity": 0.4015748031496063,
                    "duration": 0.30927825000003395
                },
                {
                    "name": "F4",
                    "midi": 65,
                    "time": 1059.587284500016,
                    "velocity": 0.4015748031496063,
                    "duration": 0.30927825000003395
                },
                {
                    "name": "G#4",
                    "midi": 68,
                    "time": 1059.896562750016,
                    "velocity": 0.3700787401574803,
                    "duration": 0.30927825000003395
                },
                {
                    "name": "C5",
                    "midi": 72,
                    "time": 1060.205841000016,
                    "velocity": 0.5433070866141733,
                    "duration": 0.30927825000003395
                },
                {
                    "name": "F5",
                    "midi": 77,
                    "time": 1060.5151192500161,
                    "velocity": 0.4015748031496063,
                    "duration": 0.30927825000003395
                },
                {
                    "name": "F4",
                    "midi": 65,
                    "time": 1060.8243975000162,
                    "velocity": 0.4015748031496063,
                    "duration": 0.30927825000003395
                },
                {
                    "name": "G#4",
                    "midi": 68,
                    "time": 1061.1336757500162,
                    "velocity": 0.3779527559055118,
                    "duration": 0.30927825000003395
                },
                {
                    "name": "C5",
                    "midi": 72,
                    "time": 1061.4429540000162,
                    "velocity": 0.47244094488188976,
                    "duration": 0.30927825000003395
                },
                {
                    "name": "F5",
                    "midi": 77,
                    "time": 1061.7522322500163,
                    "velocity": 0.3858267716535433,
                    "duration": 0.30927825000003395
                },
                {
                    "name": "F4",
                    "midi": 65,
                    "time": 1062.0615105000163,
                    "velocity": 0.3858267716535433,
                    "duration": 0.30927825000003395
                },
                {
                    "name": "G#4",
                    "midi": 68,
                    "time": 1062.3707887500163,
                    "velocity": 0.3779527559055118,
                    "duration": 0.30927825000003395
                },
                {
                    "name": "C5",
                    "midi": 72,
                    "time": 1062.6800670000164,
                    "velocity": 0.4645669291338583,
                    "duration": 0.30927825000003395
                },
                {
                    "name": "F5",
                    "midi": 77,
                    "time": 1062.9893452500164,
                    "velocity": 0.4015748031496063,
                    "duration": 0.30927825000003395
                },
                {
                    "name": "F4",
                    "midi": 65,
                    "time": 1063.2986235000164,
                    "velocity": 0.4015748031496063,
                    "duration": 0.30927825000003395
                },
                {
                    "name": "G#4",
                    "midi": 68,
                    "time": 1063.6079017500165,
                    "velocity": 0.3700787401574803,
                    "duration": 0.30927825000003395
                },
                {
                    "name": "C#5",
                    "midi": 73,
                    "time": 1063.9171800000165,
                    "velocity": 0.5118110236220472,
                    "duration": 0.30927825000003395
                },
                {
                    "name": "F5",
                    "midi": 77,
                    "time": 1064.2264582500165,
                    "velocity": 0.41732283464566927,
                    "duration": 0.30927825000003395
                },
                {
                    "name": "F4",
                    "midi": 65,
                    "time": 1064.5357365000166,
                    "velocity": 0.41732283464566927,
                    "duration": 0.30927825000003395
                },
                {
                    "name": "G#4",
                    "midi": 68,
                    "time": 1064.8450147500166,
                    "velocity": 0.3858267716535433,
                    "duration": 0.30927825000003395
                },
                {
                    "name": "C#5",
                    "midi": 73,
                    "time": 1065.1542930000167,
                    "velocity": 0.4881889763779528,
                    "duration": 0.30927825000003395
                },
                {
                    "name": "F5",
                    "midi": 77,
                    "time": 1065.4635712500167,
                    "velocity": 0.41732283464566927,
                    "duration": 0.30927825000003395
                },
                {
                    "name": "F4",
                    "midi": 65,
                    "time": 1065.7728495000167,
                    "velocity": 0.41732283464566927,
                    "duration": 0.30927825000003395
                },
                {
                    "name": "G#4",
                    "midi": 68,
                    "time": 1066.0821277500168,
                    "velocity": 0.3858267716535433,
                    "duration": 0.30927825000003395
                },
                {
                    "name": "C#5",
                    "midi": 73,
                    "time": 1066.3914060000168,
                    "velocity": 0.4881889763779528,
                    "duration": 0.30927825000003395
                },
                {
                    "name": "F#5",
                    "midi": 78,
                    "time": 1066.7006842500168,
                    "velocity": 0.41732283464566927,
                    "duration": 0.30927825000003395
                },
                {
                    "name": "F#4",
                    "midi": 66,
                    "time": 1067.0099625000169,
                    "velocity": 0.41732283464566927,
                    "duration": 0.30927825000003395
                },
                {
                    "name": "A4",
                    "midi": 69,
                    "time": 1067.319240750017,
                    "velocity": 0.3858267716535433,
                    "duration": 0.30927825000003395
                },
                {
                    "name": "C#5",
                    "midi": 73,
                    "time": 1067.628519000017,
                    "velocity": 0.4881889763779528,
                    "duration": 0.30927825000003395
                },
                {
                    "name": "F#5",
                    "midi": 78,
                    "time": 1067.937797250017,
                    "velocity": 0.41732283464566927,
                    "duration": 0.30927825000003395
                },
                {
                    "name": "F#4",
                    "midi": 66,
                    "time": 1068.247075500017,
                    "velocity": 0.41732283464566927,
                    "duration": 0.30927825000003395
                },
                {
                    "name": "A4",
                    "midi": 69,
                    "time": 1068.556353750017,
                    "velocity": 0.3858267716535433,
                    "duration": 0.30927825000003395
                },
                {
                    "name": "C#5",
                    "midi": 73,
                    "time": 1068.865632000017,
                    "velocity": 0.5118110236220472,
                    "duration": 0.30927825000003395
                },
                {
                    "name": "F5",
                    "midi": 77,
                    "time": 1069.174910250017,
                    "velocity": 0.41732283464566927,
                    "duration": 0.30927825000003395
                },
                {
                    "name": "F4",
                    "midi": 65,
                    "time": 1069.4841885000171,
                    "velocity": 0.41732283464566927,
                    "duration": 0.30927825000003395
                },
                {
                    "name": "G#4",
                    "midi": 68,
                    "time": 1069.7934667500172,
                    "velocity": 0.3700787401574803,
                    "duration": 0.30927825000003395
                },
                {
                    "name": "C#5",
                    "midi": 73,
                    "time": 1070.1027450000172,
                    "velocity": 0.4881889763779528,
                    "duration": 0.30927825000003395
                },
                {
                    "name": "F5",
                    "midi": 77,
                    "time": 1070.4120232500172,
                    "velocity": 0.41732283464566927,
                    "duration": 0.30927825000003395
                },
                {
                    "name": "F4",
                    "midi": 65,
                    "time": 1070.7213015000173,
                    "velocity": 0.41732283464566927,
                    "duration": 0.30927825000003395
                },
                {
                    "name": "G#4",
                    "midi": 68,
                    "time": 1071.0305797500173,
                    "velocity": 0.3779527559055118,
                    "duration": 0.30927825000003395
                },
                {
                    "name": "C#5",
                    "midi": 73,
                    "time": 1071.3398580000173,
                    "velocity": 0.4881889763779528,
                    "duration": 0.30927825000003395
                },
                {
                    "name": "F#5",
                    "midi": 78,
                    "time": 1071.6491362500174,
                    "velocity": 0.41732283464566927,
                    "duration": 0.30927825000003395
                },
                {
                    "name": "F#4",
                    "midi": 66,
                    "time": 1071.9584145000174,
                    "velocity": 0.41732283464566927,
                    "duration": 0.30927825000003395
                },
                {
                    "name": "A4",
                    "midi": 69,
                    "time": 1072.2676927500174,
                    "velocity": 0.3858267716535433,
                    "duration": 0.30927825000003395
                },
                {
                    "name": "C#5",
                    "midi": 73,
                    "time": 1072.5769710000175,
                    "velocity": 0.4881889763779528,
                    "duration": 0.30927825000003395
                },
                {
                    "name": "F#5",
                    "midi": 78,
                    "time": 1072.8862492500175,
                    "velocity": 0.41732283464566927,
                    "duration": 0.30927825000003395
                },
                {
                    "name": "F#4",
                    "midi": 66,
                    "time": 1073.1955275000175,
                    "velocity": 0.41732283464566927,
                    "duration": 0.30927825000003395
                },
                {
                    "name": "A4",
                    "midi": 69,
                    "time": 1073.5048057500176,
                    "velocity": 0.3779527559055118,
                    "duration": 0.30927825000003395
                },
                {
                    "name": "C#5",
                    "midi": 73,
                    "time": 1073.8140840000176,
                    "velocity": 0.5118110236220472,
                    "duration": 0.30927825000003395
                },
                {
                    "name": "F5",
                    "midi": 77,
                    "time": 1074.1233622500176,
                    "velocity": 0.36220472440944884,
                    "duration": 0.30927825000003395
                },
                {
                    "name": "F4",
                    "midi": 65,
                    "time": 1074.4326405000177,
                    "velocity": 0.36220472440944884,
                    "duration": 0.30927825000003395
                },
                {
                    "name": "G#4",
                    "midi": 68,
                    "time": 1074.7419187500177,
                    "velocity": 0.33070866141732286,
                    "duration": 0.30927825000003395
                },
                {
                    "name": "C#5",
                    "midi": 73,
                    "time": 1075.0511970000177,
                    "velocity": 0.4330708661417323,
                    "duration": 0.30927825000003395
                },
                {
                    "name": "F5",
                    "midi": 77,
                    "time": 1075.3604752500178,
                    "velocity": 0.31496062992125984,
                    "duration": 0.30927825000003395
                },
                {
                    "name": "F4",
                    "midi": 65,
                    "time": 1075.6697535000178,
                    "velocity": 0.31496062992125984,
                    "duration": 0.30927825000003395
                },
                {
                    "name": "G#4",
                    "midi": 68,
                    "time": 1075.9790317500178,
                    "velocity": 0.28346456692913385,
                    "duration": 0.30927825000003395
                },
                {
                    "name": "C#5",
                    "midi": 73,
                    "time": 1076.2883100000179,
                    "velocity": 0.31496062992125984,
                    "duration": 0.30927825000003395
                },
                {
                    "name": "F5",
                    "midi": 77,
                    "time": 1076.597588250018,
                    "velocity": 0.36220472440944884,
                    "duration": 0.30927825000003395
                },
                {
                    "name": "F4",
                    "midi": 65,
                    "time": 1076.906866500018,
                    "velocity": 0.29133858267716534,
                    "duration": 0.30927825000003395
                },
                {
                    "name": "G#4",
                    "midi": 68,
                    "time": 1077.216144750018,
                    "velocity": 0.2755905511811024,
                    "duration": 0.30927825000003395
                },
                {
                    "name": "C5",
                    "midi": 72,
                    "time": 1077.525423000018,
                    "velocity": 0.29133858267716534,
                    "duration": 0.30927825000003395
                },
                {
                    "name": "F5",
                    "midi": 77,
                    "time": 1077.834701250018,
                    "velocity": 0.33858267716535434,
                    "duration": 0.30927825000003395
                },
                {
                    "name": "F4",
                    "midi": 65,
                    "time": 1078.143979500018,
                    "velocity": 0.29133858267716534,
                    "duration": 0.30927825000003395
                },
                {
                    "name": "G#4",
                    "midi": 68,
                    "time": 1078.453257750018,
                    "velocity": 0.2677165354330709,
                    "duration": 0.30927825000003395
                },
                {
                    "name": "D5",
                    "midi": 74,
                    "time": 1078.7625360000181,
                    "velocity": 0.29133858267716534,
                    "duration": 0.30927825000003395
                },
                {
                    "name": "F5",
                    "midi": 77,
                    "time": 1079.0718142500182,
                    "velocity": 0.2283464566929134,
                    "duration": 0.30927825000003395
                },
                {
                    "name": "F4",
                    "midi": 65,
                    "time": 1079.3810925000182,
                    "velocity": 0.2283464566929134,
                    "duration": 0.30927825000003395
                },
                {
                    "name": "G4",
                    "midi": 67,
                    "time": 1079.6903707500182,
                    "velocity": 0.2125984251968504,
                    "duration": 0.30927825000003395
                },
                {
                    "name": "D5",
                    "midi": 74,
                    "time": 1079.9996490000183,
                    "velocity": 0.2992125984251969,
                    "duration": 0.30927825000003395
                },
                {
                    "name": "F5",
                    "midi": 77,
                    "time": 1080.3089272500183,
                    "velocity": 0.23622047244094488,
                    "duration": 0.30927825000003395
                },
                {
                    "name": "F4",
                    "midi": 65,
                    "time": 1080.6182055000183,
                    "velocity": 0.2440944881889764,
                    "duration": 0.30927825000003395
                },
                {
                    "name": "G4",
                    "midi": 67,
                    "time": 1080.9274837500184,
                    "velocity": 0.2204724409448819,
                    "duration": 0.30927825000003395
                },
                {
                    "name": "D5",
                    "midi": 74,
                    "time": 1081.2367620000184,
                    "velocity": 0.3228346456692913,
                    "duration": 0.30927825000003395
                },
                {
                    "name": "F5",
                    "midi": 77,
                    "time": 1081.5460402500185,
                    "velocity": 0.2440944881889764,
                    "duration": 0.30927825000003395
                },
                {
                    "name": "F4",
                    "midi": 65,
                    "time": 1081.8553185000185,
                    "velocity": 0.2440944881889764,
                    "duration": 0.30927825000003395
                },
                {
                    "name": "G4",
                    "midi": 67,
                    "time": 1082.1645967500185,
                    "velocity": 0.2283464566929134,
                    "duration": 0.30927825000003395
                },
                {
                    "name": "D5",
                    "midi": 74,
                    "time": 1082.4738750000186,
                    "velocity": 0.31496062992125984,
                    "duration": 0.30927825000003395
                },
                {
                    "name": "F5",
                    "midi": 77,
                    "time": 1082.7831532500186,
                    "velocity": 0.2283464566929134,
                    "duration": 0.30927825000003395
                },
                {
                    "name": "F4",
                    "midi": 65,
                    "time": 1083.0924315000186,
                    "velocity": 0.25196850393700787,
                    "duration": 0.30927825000003395
                },
                {
                    "name": "G4",
                    "midi": 67,
                    "time": 1083.4017097500187,
                    "velocity": 0.2204724409448819,
                    "duration": 0.30927825000003395
                },
                {
                    "name": "C5",
                    "midi": 72,
                    "time": 1083.7109880000187,
                    "velocity": 0.3464566929133858,
                    "duration": 0.30927825000003395
                },
                {
                    "name": "E5",
                    "midi": 76,
                    "time": 1084.0202662500187,
                    "velocity": 0.25196850393700787,
                    "duration": 0.30927825000003395
                },
                {
                    "name": "E4",
                    "midi": 64,
                    "time": 1084.3295445000188,
                    "velocity": 0.25196850393700787,
                    "duration": 0.30927825000003395
                },
                {
                    "name": "G4",
                    "midi": 67,
                    "time": 1084.6388227500188,
                    "velocity": 0.23622047244094488,
                    "duration": 0.30927825000003395
                },
                {
                    "name": "C5",
                    "midi": 72,
                    "time": 1084.9481010000188,
                    "velocity": 0.3464566929133858,
                    "duration": 0.30927825000003395
                },
                {
                    "name": "E5",
                    "midi": 76,
                    "time": 1085.2573792500189,
                    "velocity": 0.2677165354330709,
                    "duration": 0.30927825000003395
                },
                {
                    "name": "E4",
                    "midi": 64,
                    "time": 1085.566657500019,
                    "velocity": 0.2677165354330709,
                    "duration": 0.30927825000003395
                },
                {
                    "name": "G4",
                    "midi": 67,
                    "time": 1085.875935750019,
                    "velocity": 0.2440944881889764,
                    "duration": 0.30927825000003395
                },
                {
                    "name": "C5",
                    "midi": 72,
                    "time": 1086.185214000019,
                    "velocity": 0.3228346456692913,
                    "duration": 0.30927825000003395
                },
                {
                    "name": "E5",
                    "midi": 76,
                    "time": 1086.494492250019,
                    "velocity": 0.2440944881889764,
                    "duration": 0.30927825000003395
                },
                {
                    "name": "E4",
                    "midi": 64,
                    "time": 1086.803770500019,
                    "velocity": 0.2440944881889764,
                    "duration": 0.30927825000003395
                },
                {
                    "name": "G4",
                    "midi": 67,
                    "time": 1087.113048750019,
                    "velocity": 0.2283464566929134,
                    "duration": 0.30927825000003395
                },
                {
                    "name": "C5",
                    "midi": 72,
                    "time": 1087.422327000019,
                    "velocity": 0.31496062992125984,
                    "duration": 0.30927825000003395
                },
                {
                    "name": "E5",
                    "midi": 76,
                    "time": 1087.7316052500191,
                    "velocity": 0.2283464566929134,
                    "duration": 0.30927825000003395
                },
                {
                    "name": "E4",
                    "midi": 64,
                    "time": 1088.0408835000192,
                    "velocity": 0.2440944881889764,
                    "duration": 0.30927825000003395
                },
                {
                    "name": "G4",
                    "midi": 67,
                    "time": 1088.3501617500192,
                    "velocity": 0.2047244094488189,
                    "duration": 0.30927825000003395
                },
                {
                    "name": "C5",
                    "midi": 72,
                    "time": 1088.6594400000192,
                    "velocity": 0.29133858267716534,
                    "duration": 0.30927825000003395
                },
                {
                    "name": "F5",
                    "midi": 77,
                    "time": 1088.9687182500193,
                    "velocity": 0.2125984251968504,
                    "duration": 0.30927825000003395
                },
                {
                    "name": "F4",
                    "midi": 65,
                    "time": 1089.2779965000193,
                    "velocity": 0.2125984251968504,
                    "duration": 0.30927825000003395
                },
                {
                    "name": "A4",
                    "midi": 69,
                    "time": 1089.5872747500193,
                    "velocity": 0.1889763779527559,
                    "duration": 0.30927825000003395
                },
                {
                    "name": "C5",
                    "midi": 72,
                    "time": 1089.8965530000194,
                    "velocity": 0.29133858267716534,
                    "duration": 0.30927825000003395
                },
                {
                    "name": "F5",
                    "midi": 77,
                    "time": 1090.2058312500194,
                    "velocity": 0.2204724409448819,
                    "duration": 0.30927825000003395
                },
                {
                    "name": "F4",
                    "midi": 65,
                    "time": 1090.5151095000194,
                    "velocity": 0.2204724409448819,
                    "duration": 0.30927825000003395
                },
                {
                    "name": "A4",
                    "midi": 69,
                    "time": 1090.8243877500195,
                    "velocity": 0.1889763779527559,
                    "duration": 0.30927825000003395
                },
                {
                    "name": "D5",
                    "midi": 74,
                    "time": 1091.1336660000195,
                    "velocity": 0.29133858267716534,
                    "duration": 0.30927825000003395
                },
                {
                    "name": "F5",
                    "midi": 77,
                    "time": 1091.4429442500195,
                    "velocity": 0.2125984251968504,
                    "duration": 0.30927825000003395
                },
                {
                    "name": "F4",
                    "midi": 65,
                    "time": 1091.7522225000196,
                    "velocity": 0.2125984251968504,
                    "duration": 0.30927825000003395
                },
                {
                    "name": "A4",
                    "midi": 69,
                    "time": 1092.0615007500196,
                    "velocity": 0.1968503937007874,
                    "duration": 0.30927825000003395
                },
                {
                    "name": "D5",
                    "midi": 74,
                    "time": 1092.3707790000196,
                    "velocity": 0.29133858267716534,
                    "duration": 0.30927825000003395
                },
                {
                    "name": "F5",
                    "midi": 77,
                    "time": 1092.6800572500197,
                    "velocity": 0.2204724409448819,
                    "duration": 0.30927825000003395
                },
                {
                    "name": "F4",
                    "midi": 65,
                    "time": 1092.9893355000197,
                    "velocity": 0.2204724409448819,
                    "duration": 0.30927825000003395
                },
                {
                    "name": "A4",
                    "midi": 69,
                    "time": 1093.2986137500197,
                    "velocity": 0.2047244094488189,
                    "duration": 0.30927825000003395
                },
                {
                    "name": "D5",
                    "midi": 74,
                    "time": 1093.6078920000198,
                    "velocity": 0.29133858267716534,
                    "duration": 0.30927825000003395
                },
                {
                    "name": "F5",
                    "midi": 77,
                    "time": 1093.9171702500198,
                    "velocity": 0.2125984251968504,
                    "duration": 0.30927825000003395
                },
                {
                    "name": "F4",
                    "midi": 65,
                    "time": 1094.2264485000198,
                    "velocity": 0.2125984251968504,
                    "duration": 0.30927825000003395
                },
                {
                    "name": "B4",
                    "midi": 71,
                    "time": 1094.5357267500199,
                    "velocity": 0.1889763779527559,
                    "duration": 0.30927825000003395
                },
                {
                    "name": "D5",
                    "midi": 74,
                    "time": 1094.84500500002,
                    "velocity": 0.29133858267716534,
                    "duration": 0.30927825000003395
                },
                {
                    "name": "F5",
                    "midi": 77,
                    "time": 1095.15428325002,
                    "velocity": 0.2204724409448819,
                    "duration": 0.30927825000003395
                },
                {
                    "name": "F4",
                    "midi": 65,
                    "time": 1095.46356150002,
                    "velocity": 0.2204724409448819,
                    "duration": 0.30927825000003395
                },
                {
                    "name": "B4",
                    "midi": 71,
                    "time": 1095.77283975002,
                    "velocity": 0.1968503937007874,
                    "duration": 0.30927825000003395
                },
                {
                    "name": "D5",
                    "midi": 74,
                    "time": 1096.08211800002,
                    "velocity": 0.29133858267716534,
                    "duration": 0.30927825000003395
                },
                {
                    "name": "F5",
                    "midi": 77,
                    "time": 1096.39139625002,
                    "velocity": 0.2125984251968504,
                    "duration": 0.30927825000003395
                },
                {
                    "name": "F4",
                    "midi": 65,
                    "time": 1096.70067450002,
                    "velocity": 0.2125984251968504,
                    "duration": 0.30927825000003395
                },
                {
                    "name": "B4",
                    "midi": 71,
                    "time": 1097.0099527500201,
                    "velocity": 0.1889763779527559,
                    "duration": 0.30927825000003395
                },
                {
                    "name": "D5",
                    "midi": 74,
                    "time": 1097.3192310000202,
                    "velocity": 0.29133858267716534,
                    "duration": 0.30927825000003395
                },
                {
                    "name": "F5",
                    "midi": 77,
                    "time": 1097.6285092500202,
                    "velocity": 0.2283464566929134,
                    "duration": 0.30927825000003395
                },
                {
                    "name": "F4",
                    "midi": 65,
                    "time": 1097.9377875000202,
                    "velocity": 0.2283464566929134,
                    "duration": 0.30927825000003395
                },
                {
                    "name": "B4",
                    "midi": 71,
                    "time": 1098.2470657500203,
                    "velocity": 0.1968503937007874,
                    "duration": 0.30927825000003395
                },
                {
                    "name": "C5",
                    "midi": 72,
                    "time": 1098.5563440000203,
                    "velocity": 0.31496062992125984,
                    "duration": 0.30927825000003395
                },
                {
                    "name": "E5",
                    "midi": 76,
                    "time": 1098.8656222500204,
                    "velocity": 0.2283464566929134,
                    "duration": 0.30927825000003395
                },
                {
                    "name": "E4",
                    "midi": 64,
                    "time": 1099.1749005000204,
                    "velocity": 0.2283464566929134,
                    "duration": 0.30927825000003395
                },
                {
                    "name": "G4",
                    "midi": 67,
                    "time": 1099.4841787500204,
                    "velocity": 0.2047244094488189,
                    "duration": 0.30927825000003395
                },
                {
                    "name": "C5",
                    "midi": 72,
                    "time": 1099.7934570000205,
                    "velocity": 0.2992125984251969,
                    "duration": 0.30927825000003395
                },
                {
                    "name": "E5",
                    "midi": 76,
                    "time": 1100.1027352500205,
                    "velocity": 0.23622047244094488,
                    "duration": 0.30927825000003395
                },
                {
                    "name": "E4",
                    "midi": 64,
                    "time": 1100.4120135000205,
                    "velocity": 0.23622047244094488,
                    "duration": 0.30927825000003395
                },
                {
                    "name": "G4",
                    "midi": 67,
                    "time": 1100.7212917500206,
                    "velocity": 0.2125984251968504,
                    "duration": 0.30927825000003395
                },
                {
                    "name": "C5",
                    "midi": 72,
                    "time": 1101.0305700000206,
                    "velocity": 0.23622047244094488,
                    "duration": 0.30927825000003395
                },
                {
                    "name": "E5",
                    "midi": 76,
                    "time": 1101.3398482500206,
                    "velocity": 0.2125984251968504,
                    "duration": 0.30927825000003395
                },
                {
                    "name": "E4",
                    "midi": 64,
                    "time": 1101.6491265000207,
                    "velocity": 0.2125984251968504,
                    "duration": 0.30927825000003395
                },
                {
                    "name": "G4",
                    "midi": 67,
                    "time": 1101.9584047500207,
                    "velocity": 0.18110236220472442,
                    "duration": 0.30927825000003395
                },
                {
                    "name": "C5",
                    "midi": 72,
                    "time": 1102.2676830000207,
                    "velocity": 0.3543307086614173,
                    "duration": 0.30927825000003395
                },
                {
                    "name": "E5",
                    "midi": 76,
                    "time": 1102.5769612500208,
                    "velocity": 0.25196850393700787,
                    "duration": 0.30927825000003395
                },
                {
                    "name": "E4",
                    "midi": 64,
                    "time": 1102.8862395000208,
                    "velocity": 0.2755905511811024,
                    "duration": 0.30927825000003395
                },
                {
                    "name": "G4",
                    "midi": 67,
                    "time": 1103.1955177500208,
                    "velocity": 0.30708661417322836,
                    "duration": 0.30927825000003395
                },
                {
                    "name": "B4",
                    "midi": 71,
                    "time": 1103.5047960000209,
                    "velocity": 0.3858267716535433,
                    "duration": 0.30927825000003395
                },
                {
                    "name": "F5",
                    "midi": 77,
                    "time": 1103.814074250021,
                    "velocity": 0.28346456692913385,
                    "duration": 0.30927825000003395
                },
                {
                    "name": "F4",
                    "midi": 65,
                    "time": 1104.123352500021,
                    "velocity": 0.28346456692913385,
                    "duration": 0.30927825000003395
                },
                {
                    "name": "G4",
                    "midi": 67,
                    "time": 1104.432630750021,
                    "velocity": 0.25984251968503935,
                    "duration": 0.30927825000003395
                },
                {
                    "name": "B4",
                    "midi": 71,
                    "time": 1104.741909000021,
                    "velocity": 0.36220472440944884,
                    "duration": 0.30927825000003395
                },
                {
                    "name": "F5",
                    "midi": 77,
                    "time": 1105.051187250021,
                    "velocity": 0.25984251968503935,
                    "duration": 0.30927825000003395
                },
                {
                    "name": "F4",
                    "midi": 65,
                    "time": 1105.360465500021,
                    "velocity": 0.2440944881889764,
                    "duration": 0.30927825000003395
                },
                {
                    "name": "G4",
                    "midi": 67,
                    "time": 1105.669743750021,
                    "velocity": 0.2283464566929134,
                    "duration": 0.30927825000003395
                },
                {
                    "name": "A#4",
                    "midi": 70,
                    "time": 1105.9790220000211,
                    "velocity": 0.29133858267716534,
                    "duration": 0.30927825000003395
                },
                {
                    "name": "C5",
                    "midi": 72,
                    "time": 1106.2883002500212,
                    "velocity": 0.2125984251968504,
                    "duration": 0.30927825000003395
                },
                {
                    "name": "C4",
                    "midi": 60,
                    "time": 1106.5975785000212,
                    "velocity": 0.2125984251968504,
                    "duration": 0.30927825000003395
                },
                {
                    "name": "G4",
                    "midi": 67,
                    "time": 1106.9068567500212,
                    "velocity": 0.1968503937007874,
                    "duration": 0.30927825000003395
                },
                {
                    "name": "A#4",
                    "midi": 70,
                    "time": 1107.2161350000213,
                    "velocity": 0.29133858267716534,
                    "duration": 0.30927825000003395
                },
                {
                    "name": "C5",
                    "midi": 72,
                    "time": 1107.5254132500213,
                    "velocity": 0.2204724409448819,
                    "duration": 0.30927825000003395
                },
                {
                    "name": "C4",
                    "midi": 60,
                    "time": 1107.8346915000213,
                    "velocity": 0.2204724409448819,
                    "duration": 0.30927825000003395
                },
                {
                    "name": "G4",
                    "midi": 67,
                    "time": 1108.1439697500214,
                    "velocity": 0.2125984251968504,
                    "duration": 0.30927825000003395
                },
                {
                    "name": "A4",
                    "midi": 69,
                    "time": 1108.4532480000214,
                    "velocity": 0.29133858267716534,
                    "duration": 0.30927825000003395
                },
                {
                    "name": "C5",
                    "midi": 72,
                    "time": 1108.7625262500214,
                    "velocity": 0.2125984251968504,
                    "duration": 0.30927825000003395
                },
                {
                    "name": "C4",
                    "midi": 60,
                    "time": 1109.0718045000215,
                    "velocity": 0.2125984251968504,
                    "duration": 0.30927825000003395
                },
                {
                    "name": "F4",
                    "midi": 65,
                    "time": 1109.3810827500215,
                    "velocity": 0.1889763779527559,
                    "duration": 0.30927825000003395
                },
                {
                    "name": "A4",
                    "midi": 69,
                    "time": 1109.6903610000215,
                    "velocity": 0.29133858267716534,
                    "duration": 0.30927825000003395
                },
                {
                    "name": "C5",
                    "midi": 72,
                    "time": 1109.9996392500216,
                    "velocity": 0.2204724409448819,
                    "duration": 0.30927825000003395
                },
                {
                    "name": "C4",
                    "midi": 60,
                    "time": 1110.3089175000216,
                    "velocity": 0.2204724409448819,
                    "duration": 0.30927825000003395
                },
                {
                    "name": "F4",
                    "midi": 65,
                    "time": 1110.6181957500216,
                    "velocity": 0.18110236220472442,
                    "duration": 0.30927825000003395
                },
                {
                    "name": "A4",
                    "midi": 69,
                    "time": 1110.9274740000217,
                    "velocity": 0.29133858267716534,
                    "duration": 0.30927825000003395
                },
                {
                    "name": "C5",
                    "midi": 72,
                    "time": 1111.2367522500217,
                    "velocity": 0.2204724409448819,
                    "duration": 0.30927825000003395
                },
                {
                    "name": "C4",
                    "midi": 60,
                    "time": 1111.5460305000217,
                    "velocity": 0.2204724409448819,
                    "duration": 0.30927825000003395
                },
                {
                    "name": "F4",
                    "midi": 65,
                    "time": 1111.8553087500218,
                    "velocity": 0.1968503937007874,
                    "duration": 0.30927825000003395
                },
                {
                    "name": "A4",
                    "midi": 69,
                    "time": 1112.1645870000218,
                    "velocity": 0.29133858267716534,
                    "duration": 0.30927825000003395
                },
                {
                    "name": "C5",
                    "midi": 72,
                    "time": 1112.4738652500218,
                    "velocity": 0.2283464566929134,
                    "duration": 0.30927825000003395
                },
                {
                    "name": "G4",
                    "midi": 67,
                    "time": 1112.7831435000219,
                    "velocity": 0.28346456692913385,
                    "duration": 0.30927825000003395
                },
                {
                    "name": "C5",
                    "midi": 72,
                    "time": 1113.092421750022,
                    "velocity": 0.30708661417322836,
                    "duration": 0.30927825000003395
                },
                {
                    "name": "A4",
                    "midi": 69,
                    "time": 1113.401700000022,
                    "velocity": 0.3700787401574803,
                    "duration": 0.30927825000003395
                },
                {
                    "name": "C5",
                    "midi": 72,
                    "time": 1113.710978250022,
                    "velocity": 0.28346456692913385,
                    "duration": 0.30927825000003395
                },
                {
                    "name": "C4",
                    "midi": 60,
                    "time": 1114.020256500022,
                    "velocity": 0.28346456692913385,
                    "duration": 0.30927825000003395
                },
                {
                    "name": "F4",
                    "midi": 65,
                    "time": 1114.329534750022,
                    "velocity": 0.25196850393700787,
                    "duration": 0.30927825000003395
                },
                {
                    "name": "A4",
                    "midi": 69,
                    "time": 1114.638813000022,
                    "velocity": 0.31496062992125984,
                    "duration": 0.30927825000003395
                },
                {
                    "name": "C5",
                    "midi": 72,
                    "time": 1114.9480912500221,
                    "velocity": 0.28346456692913385,
                    "duration": 0.30927825000003395
                },
                {
                    "name": "C4",
                    "midi": 60,
                    "time": 1115.2573695000222,
                    "velocity": 0.28346456692913385,
                    "duration": 0.30927825000003395
                },
                {
                    "name": "F4",
                    "midi": 65,
                    "time": 1115.5666477500222,
                    "velocity": 0.2677165354330709,
                    "duration": 0.30927825000003395
                },
                {
                    "name": "A4",
                    "midi": 69,
                    "time": 1115.8759260000222,
                    "velocity": 0.3543307086614173,
                    "duration": 0.30927825000003395
                },
                {
                    "name": "C5",
                    "midi": 72,
                    "time": 1116.1852042500223,
                    "velocity": 0.2755905511811024,
                    "duration": 0.30927825000003395
                },
                {
                    "name": "A4",
                    "midi": 69,
                    "time": 1116.4944825000223,
                    "velocity": 0.2755905511811024,
                    "duration": 0.30927825000003395
                },
                {
                    "name": "F4",
                    "midi": 65,
                    "time": 1116.4944825000223,
                    "velocity": 0.2755905511811024,
                    "duration": 0.30927825000003395
                },
                {
                    "name": "C5",
                    "midi": 72,
                    "time": 1116.8037607500223,
                    "velocity": 0.2440944881889764,
                    "duration": 0.30927825000003395
                },
                {
                    "name": "E4",
                    "midi": 64,
                    "time": 1117.1130390000224,
                    "velocity": 0.3464566929133858,
                    "duration": 0.30927825000003395
                },
                {
                    "name": "A#4",
                    "midi": 70,
                    "time": 1117.1130390000224,
                    "velocity": 0.3464566929133858,
                    "duration": 0.30927825000003395
                },
                {
                    "name": "C5",
                    "midi": 72,
                    "time": 1117.4223172500224,
                    "velocity": 0.2283464566929134,
                    "duration": 0.30927825000003395
                },
                {
                    "name": "A4",
                    "midi": 69,
                    "time": 1117.7315955000224,
                    "velocity": 0.2440944881889764,
                    "duration": 0.30927825000003395
                },
                {
                    "name": "F4",
                    "midi": 65,
                    "time": 1117.7315955000224,
                    "velocity": 0.2440944881889764,
                    "duration": 0.30927825000003395
                },
                {
                    "name": "C5",
                    "midi": 72,
                    "time": 1118.0408737500225,
                    "velocity": 0.2204724409448819,
                    "duration": 0.30927825000003395
                },
                {
                    "name": "E4",
                    "midi": 64,
                    "time": 1118.3501520000225,
                    "velocity": 0.29133858267716534,
                    "duration": 0.30927825000003395
                },
                {
                    "name": "G4",
                    "midi": 67,
                    "time": 1118.3501520000225,
                    "velocity": 0.29133858267716534,
                    "duration": 0.30927825000003395
                },
                {
                    "name": "C5",
                    "midi": 72,
                    "time": 1118.6594302500225,
                    "velocity": 0.2283464566929134,
                    "duration": 0.30927825000003395
                },
                {
                    "name": "C4",
                    "midi": 60,
                    "time": 1118.9687085000226,
                    "velocity": 0.2283464566929134,
                    "duration": 0.30927825000003395
                },
                {
                    "name": "E4",
                    "midi": 64,
                    "time": 1119.2779867500226,
                    "velocity": 0.1968503937007874,
                    "duration": 0.30927825000003395
                },
                {
                    "name": "G4",
                    "midi": 67,
                    "time": 1119.5872650000226,
                    "velocity": 0.29133858267716534,
                    "duration": 0.30927825000003395
                },
                {
                    "name": "C5",
                    "midi": 72,
                    "time": 1119.8965432500227,
                    "velocity": 0.2283464566929134,
                    "duration": 0.30927825000003395
                },
                {
                    "name": "C4",
                    "midi": 60,
                    "time": 1120.2058215000227,
                    "velocity": 0.2283464566929134,
                    "duration": 0.30927825000003395
                },
                {
                    "name": "E4",
                    "midi": 64,
                    "time": 1120.5150997500227,
                    "velocity": 0.2125984251968504,
                    "duration": 0.30927825000003395
                },
                {
                    "name": "G4",
                    "midi": 67,
                    "time": 1120.8243780000228,
                    "velocity": 0.29133858267716534,
                    "duration": 0.30927825000003395
                },
                {
                    "name": "C5",
                    "midi": 72,
                    "time": 1121.1336562500228,
                    "velocity": 0.2283464566929134,
                    "duration": 0.30927825000003395
                },
                {
                    "name": "C4",
                    "midi": 60,
                    "time": 1121.4429345000228,
                    "velocity": 0.2283464566929134,
                    "duration": 0.30927825000003395
                },
                {
                    "name": "E4",
                    "midi": 64,
                    "time": 1121.7522127500229,
                    "velocity": 0.2047244094488189,
                    "duration": 0.30927825000003395
                },
                {
                    "name": "G4",
                    "midi": 67,
                    "time": 1122.061491000023,
                    "velocity": 0.33070866141732286,
                    "duration": 0.30927825000003395
                },
                {
                    "name": "C5",
                    "midi": 72,
                    "time": 1122.370769250023,
                    "velocity": 0.2440944881889764,
                    "duration": 0.30927825000003395
                },
                {
                    "name": "A#4",
                    "midi": 70,
                    "time": 1122.680047500023,
                    "velocity": 0.2440944881889764,
                    "duration": 0.30927825000003395
                },
                {
                    "name": "C5",
                    "midi": 72,
                    "time": 1122.989325750023,
                    "velocity": 0.2204724409448819,
                    "duration": 0.30927825000003395
                },
                {
                    "name": "A4",
                    "midi": 69,
                    "time": 1123.298604000023,
                    "velocity": 0.30708661417322836,
                    "duration": 0.30927825000003395
                },
                {
                    "name": "C5",
                    "midi": 72,
                    "time": 1123.607882250023,
                    "velocity": 0.2283464566929134,
                    "duration": 0.30927825000003395
                },
                {
                    "name": "C4",
                    "midi": 60,
                    "time": 1123.917160500023,
                    "velocity": 0.2283464566929134,
                    "duration": 0.30927825000003395
                },
                {
                    "name": "F4",
                    "midi": 65,
                    "time": 1124.2264387500231,
                    "velocity": 0.2125984251968504,
                    "duration": 0.30927825000003395
                },
                {
                    "name": "A4",
                    "midi": 69,
                    "time": 1124.5357170000232,
                    "velocity": 0.33070866141732286,
                    "duration": 0.30927825000003395
                },
                {
                    "name": "C5",
                    "midi": 72,
                    "time": 1124.8449952500232,
                    "velocity": 0.2677165354330709,
                    "duration": 0.30927825000003395
                },
                {
                    "name": "C4",
                    "midi": 60,
                    "time": 1125.1542735000232,
                    "velocity": 0.2677165354330709,
                    "duration": 0.30927825000003395
                },
                {
                    "name": "F4",
                    "midi": 65,
                    "time": 1125.4635517500233,
                    "velocity": 0.23622047244094488,
                    "duration": 0.30927825000003395
                },
                {
                    "name": "A4",
                    "midi": 69,
                    "time": 1125.7728300000233,
                    "velocity": 0.3228346456692913,
                    "duration": 0.30927825000003395
                },
                {
                    "name": "C5",
                    "midi": 72,
                    "time": 1126.0821082500233,
                    "velocity": 0.25984251968503935,
                    "duration": 0.30927825000003395
                },
                {
                    "name": "C4",
                    "midi": 60,
                    "time": 1126.3913865000234,
                    "velocity": 0.25984251968503935,
                    "duration": 0.30927825000003395
                },
                {
                    "name": "F4",
                    "midi": 65,
                    "time": 1126.7006647500234,
                    "velocity": 0.23622047244094488,
                    "duration": 0.30927825000003395
                },
                {
                    "name": "A4",
                    "midi": 69,
                    "time": 1127.0099430000234,
                    "velocity": 0.29133858267716534,
                    "duration": 0.30927825000003395
                },
                {
                    "name": "F4",
                    "midi": 65,
                    "time": 1127.0099430000234,
                    "velocity": 0.29133858267716534,
                    "duration": 0.30927825000003395
                },
                {
                    "name": "C5",
                    "midi": 72,
                    "time": 1127.3192212500235,
                    "velocity": 0.2283464566929134,
                    "duration": 0.30927825000003395
                },
                {
                    "name": "E4",
                    "midi": 64,
                    "time": 1127.6284995000235,
                    "velocity": 0.2283464566929134,
                    "duration": 0.30927825000003395
                },
                {
                    "name": "A#4",
                    "midi": 70,
                    "time": 1127.6284995000235,
                    "velocity": 0.2283464566929134,
                    "duration": 0.30927825000003395
                },
                {
                    "name": "C5",
                    "midi": 72,
                    "time": 1127.9687055750235,
                    "velocity": 0.2047244094488189,
                    "duration": 0.27835042500009877
                },
                {
                    "name": "A4",
                    "midi": 69,
                    "time": 1128.2470560000236,
                    "velocity": 0.29133858267716534,
                    "duration": 0.30927825000003395
                },
                {
                    "name": "F4",
                    "midi": 65,
                    "time": 1128.2470560000236,
                    "velocity": 0.29133858267716534,
                    "duration": 0.30927825000003395
                },
                {
                    "name": "C5",
                    "midi": 72,
                    "time": 1128.5434476562737,
                    "velocity": 0.2283464566929134,
                    "duration": 0.30927825000003395
                },
                {
                    "name": "C4",
                    "midi": 60,
                    "time": 1128.8656125000236,
                    "velocity": 0.2283464566929134,
                    "duration": 0.30927825000003395
                },
                {
                    "name": "F4",
                    "midi": 65,
                    "time": 1129.1748907500237,
                    "velocity": 0.2204724409448819,
                    "duration": 0.30927825000003395
                },
                {
                    "name": "A4",
                    "midi": 69,
                    "time": 1129.4841690000237,
                    "velocity": 0.2992125984251969,
                    "duration": 0.30927825000003395
                },
                {
                    "name": "C5",
                    "midi": 72,
                    "time": 1129.7934472500237,
                    "velocity": 0.23622047244094488,
                    "duration": 0.30927825000003395
                },
                {
                    "name": "C4",
                    "midi": 60,
                    "time": 1130.1027255000238,
                    "velocity": 0.2440944881889764,
                    "duration": 0.30927825000003395
                },
                {
                    "name": "F4",
                    "midi": 65,
                    "time": 1130.4120037500238,
                    "velocity": 0.2283464566929134,
                    "duration": 0.30927825000003395
                },
                {
                    "name": "A4",
                    "midi": 69,
                    "time": 1130.7212820000238,
                    "velocity": 0.31496062992125984,
                    "duration": 0.30927825000003395
                },
                {
                    "name": "C5",
                    "midi": 72,
                    "time": 1131.0305602500239,
                    "velocity": 0.25196850393700787,
                    "duration": 0.30927825000003395
                },
                {
                    "name": "C4",
                    "midi": 60,
                    "time": 1131.339838500024,
                    "velocity": 0.25196850393700787,
                    "duration": 0.30927825000003395
                },
                {
                    "name": "F4",
                    "midi": 65,
                    "time": 1131.649116750024,
                    "velocity": 0.2283464566929134,
                    "duration": 0.30927825000003395
                },
                {
                    "name": "A4",
                    "midi": 69,
                    "time": 1131.958395000024,
                    "velocity": 0.33070866141732286,
                    "duration": 0.30927825000003395
                },
                {
                    "name": "C5",
                    "midi": 72,
                    "time": 1132.267673250024,
                    "velocity": 0.25984251968503935,
                    "duration": 0.30927825000003395
                },
                {
                    "name": "A#4",
                    "midi": 70,
                    "time": 1132.576951500024,
                    "velocity": 0.3228346456692913,
                    "duration": 0.30927825000003395
                },
                {
                    "name": "C5",
                    "midi": 72,
                    "time": 1132.886229750024,
                    "velocity": 0.3464566929133858,
                    "duration": 0.30927825000003395
                },
                {
                    "name": "A4",
                    "midi": 69,
                    "time": 1133.1955080000241,
                    "velocity": 0.4251968503937008,
                    "duration": 0.30927825000003395
                },
                {
                    "name": "C5",
                    "midi": 72,
                    "time": 1133.5047862500242,
                    "velocity": 0.3228346456692913,
                    "duration": 0.30927825000003395
                },
                {
                    "name": "C4",
                    "midi": 60,
                    "time": 1133.8140645000242,
                    "velocity": 0.3228346456692913,
                    "duration": 0.30927825000003395
                },
                {
                    "name": "F4",
                    "midi": 65,
                    "time": 1134.1233427500242,
                    "velocity": 0.28346456692913385,
                    "duration": 0.30927825000003395
                },
                {
                    "name": "A4",
                    "midi": 69,
                    "time": 1134.4326210000243,
                    "velocity": 0.36220472440944884,
                    "duration": 0.30927825000003395
                },
                {
                    "name": "C5",
                    "midi": 72,
                    "time": 1134.7418992500243,
                    "velocity": 0.3228346456692913,
                    "duration": 0.30927825000003395
                },
                {
                    "name": "C4",
                    "midi": 60,
                    "time": 1135.0511775000243,
                    "velocity": 0.3228346456692913,
                    "duration": 0.30927825000003395
                },
                {
                    "name": "F4",
                    "midi": 65,
                    "time": 1135.3604557500244,
                    "velocity": 0.31496062992125984,
                    "duration": 0.30927825000003395
                },
                {
                    "name": "A4",
                    "midi": 69,
                    "time": 1135.6697340000244,
                    "velocity": 0.4015748031496063,
                    "duration": 0.30927825000003395
                },
                {
                    "name": "C5",
                    "midi": 72,
                    "time": 1135.9790122500244,
                    "velocity": 0.3464566929133858,
                    "duration": 0.30927825000003395
                },
                {
                    "name": "A4",
                    "midi": 69,
                    "time": 1136.2882905000245,
                    "velocity": 0.36220472440944884,
                    "duration": 0.30927825000003395
                },
                {
                    "name": "C5",
                    "midi": 72,
                    "time": 1136.5975687500245,
                    "velocity": 0.3464566929133858,
                    "duration": 0.30927825000003395
                },
                {
                    "name": "A#4",
                    "midi": 70,
                    "time": 1136.9068470000245,
                    "velocity": 0.4330708661417323,
                    "duration": 0.30927825000003395
                },
                {
                    "name": "D5",
                    "midi": 74,
                    "time": 1137.2161252500246,
                    "velocity": 0.3779527559055118,
                    "duration": 0.30927825000003395
                },
                {
                    "name": "G4",
                    "midi": 67,
                    "time": 1137.5254035000246,
                    "velocity": 0.3937007874015748,
                    "duration": 0.30927825000003395
                },
                {
                    "name": "E5",
                    "midi": 76,
                    "time": 1137.8346817500246,
                    "velocity": 0.4251968503937008,
                    "duration": 0.30927825000003395
                },
                {
                    "name": "A4",
                    "midi": 69,
                    "time": 1138.1439600000247,
                    "velocity": 0.47244094488188976,
                    "duration": 0.30927825000003395
                },
                {
                    "name": "F5",
                    "midi": 77,
                    "time": 1138.4532382500247,
                    "velocity": 0.3858267716535433,
                    "duration": 0.30927825000003395
                },
                {
                    "name": "F4",
                    "midi": 65,
                    "time": 1138.7625165000247,
                    "velocity": 0.3858267716535433,
                    "duration": 0.30927825000003395
                },
                {
                    "name": "A4",
                    "midi": 69,
                    "time": 1139.0717947500248,
                    "velocity": 0.36220472440944884,
                    "duration": 0.30927825000003395
                },
                {
                    "name": "C5",
                    "midi": 72,
                    "time": 1139.3810730000248,
                    "velocity": 0.4094488188976378,
                    "duration": 0.30927825000003395
                },
                {
                    "name": "F5",
                    "midi": 77,
                    "time": 1139.6903512500248,
                    "velocity": 0.33070866141732286,
                    "duration": 0.30927825000003395
                },
                {
                    "name": "F4",
                    "midi": 65,
                    "time": 1139.9996295000249,
                    "velocity": 0.33070866141732286,
                    "duration": 0.30927825000003395
                },
                {
                    "name": "A4",
                    "midi": 69,
                    "time": 1140.308907750025,
                    "velocity": 0.2992125984251969,
                    "duration": 0.30927825000003395
                },
                {
                    "name": "C5",
                    "midi": 72,
                    "time": 1140.618186000025,
                    "velocity": 0.4566929133858268,
                    "duration": 0.30927825000003395
                },
                {
                    "name": "F5",
                    "midi": 77,
                    "time": 1140.927464250025,
                    "velocity": 0.3543307086614173,
                    "duration": 0.30927825000003395
                },
                {
                    "name": "A4",
                    "midi": 69,
                    "time": 1141.236742500025,
                    "velocity": 0.3543307086614173,
                    "duration": 0.30927825000003395
                },
                {
                    "name": "F5",
                    "midi": 77,
                    "time": 1141.546020750025,
                    "velocity": 0.31496062992125984,
                    "duration": 0.30927825000003395
                },
                {
                    "name": "C5",
                    "midi": 72,
                    "time": 1141.855299000025,
                    "velocity": 0.4409448818897638,
                    "duration": 0.30927825000003395
                },
                {
                    "name": "E5",
                    "midi": 76,
                    "time": 1142.164577250025,
                    "velocity": 0.3228346456692913,
                    "duration": 0.30927825000003395
                },
                {
                    "name": "A#4",
                    "midi": 70,
                    "time": 1142.4738555000251,
                    "velocity": 0.3228346456692913,
                    "duration": 0.30927825000003395
                },
                {
                    "name": "D5",
                    "midi": 74,
                    "time": 1142.7831337500252,
                    "velocity": 0.29133858267716534,
                    "duration": 0.30927825000003395
                },
                {
                    "name": "A4",
                    "midi": 69,
                    "time": 1143.0924120000252,
                    "velocity": 0.41732283464566927,
                    "duration": 0.30927825000003395
                },
                {
                    "name": "C5",
                    "midi": 72,
                    "time": 1143.4016902500252,
                    "velocity": 0.30708661417322836,
                    "duration": 0.30927825000003395
                },
                {
                    "name": "C4",
                    "midi": 60,
                    "time": 1143.7109685000253,
                    "velocity": 0.30708661417322836,
                    "duration": 0.30927825000003395
                },
                {
                    "name": "F4",
                    "midi": 65,
                    "time": 1144.0202467500253,
                    "velocity": 0.2677165354330709,
                    "duration": 0.30927825000003395
                },
                {
                    "name": "A4",
                    "midi": 69,
                    "time": 1144.3295250000253,
                    "velocity": 0.36220472440944884,
                    "duration": 0.30927825000003395
                },
                {
                    "name": "C5",
                    "midi": 72,
                    "time": 1144.6388032500254,
                    "velocity": 0.2677165354330709,
                    "duration": 0.30927825000003395
                },
                {
                    "name": "C4",
                    "midi": 60,
                    "time": 1144.9480815000254,
                    "velocity": 0.2677165354330709,
                    "duration": 0.30927825000003395
                },
                {
                    "name": "F4",
                    "midi": 65,
                    "time": 1145.2573597500254,
                    "velocity": 0.2440944881889764,
                    "duration": 0.30927825000003395
                },
                {
                    "name": "A4",
                    "midi": 69,
                    "time": 1145.5666380000255,
                    "velocity": 0.31496062992125984,
                    "duration": 0.30927825000003395
                },
                {
                    "name": "C5",
                    "midi": 72,
                    "time": 1145.8759162500255,
                    "velocity": 0.2440944881889764,
                    "duration": 0.30927825000003395
                },
                {
                    "name": "A4",
                    "midi": 69,
                    "time": 1146.1851945000255,
                    "velocity": 0.2440944881889764,
                    "duration": 0.30927825000003395
                },
                {
                    "name": "F4",
                    "midi": 65,
                    "time": 1146.1851945000255,
                    "velocity": 0.2440944881889764,
                    "duration": 0.30927825000003395
                },
                {
                    "name": "C5",
                    "midi": 72,
                    "time": 1146.4944727500256,
                    "velocity": 0.23622047244094488,
                    "duration": 0.30927825000003395
                },
                {
                    "name": "E4",
                    "midi": 64,
                    "time": 1146.8037510000256,
                    "velocity": 0.33858267716535434,
                    "duration": 0.30927825000003395
                },
                {
                    "name": "A#4",
                    "midi": 70,
                    "time": 1146.8037510000256,
                    "velocity": 0.33858267716535434,
                    "duration": 0.30927825000003395
                },
                {
                    "name": "C5",
                    "midi": 72,
                    "time": 1147.1130292500256,
                    "velocity": 0.2755905511811024,
                    "duration": 0.30927825000003395
                },
                {
                    "name": "G4",
                    "midi": 67,
                    "time": 1147.4223075000257,
                    "velocity": 0.2755905511811024,
                    "duration": 0.30927825000003395
                },
                {
                    "name": "E4",
                    "midi": 64,
                    "time": 1147.4223075000257,
                    "velocity": 0.2755905511811024,
                    "duration": 0.30927825000003395
                },
                {
                    "name": "C5",
                    "midi": 72,
                    "time": 1147.7315857500257,
                    "velocity": 0.25984251968503935,
                    "duration": 0.30927825000003395
                },
                {
                    "name": "A4",
                    "midi": 69,
                    "time": 1148.0408640000257,
                    "velocity": 0.28346456692913385,
                    "duration": 0.30927825000003395
                },
                {
                    "name": "F4",
                    "midi": 65,
                    "time": 1148.0408640000257,
                    "velocity": 0.28346456692913385,
                    "duration": 0.30927825000003395
                },
                {
                    "name": "C5",
                    "midi": 72,
                    "time": 1148.3501422500258,
                    "velocity": 0.23622047244094488,
                    "duration": 0.30927825000003395
                },
                {
                    "name": "C4",
                    "midi": 60,
                    "time": 1148.6594205000258,
                    "velocity": 0.23622047244094488,
                    "duration": 0.30927825000003395
                },
                {
                    "name": "F4",
                    "midi": 65,
                    "time": 1148.9686987500259,
                    "velocity": 0.2047244094488189,
                    "duration": 0.30927825000003395
                },
                {
                    "name": "A4",
                    "midi": 69,
                    "time": 1149.2779770000259,
                    "velocity": 0.23622047244094488,
                    "duration": 0.30927825000003395
                },
                {
                    "name": "C5",
                    "midi": 72,
                    "time": 1149.587255250026,
                    "velocity": 0.25984251968503935,
                    "duration": 0.30927825000003395
                },
                {
                    "name": "C4",
                    "midi": 60,
                    "time": 1149.896533500026,
                    "velocity": 0.25984251968503935,
                    "duration": 0.30927825000003395
                },
                {
                    "name": "F4",
                    "midi": 65,
                    "time": 1150.205811750026,
                    "velocity": 0.25984251968503935,
                    "duration": 0.30927825000003395
                },
                {
                    "name": "A4",
                    "midi": 69,
                    "time": 1150.515090000026,
                    "velocity": 0.3543307086614173,
                    "duration": 0.30927825000003395
                },
                {
                    "name": "C5",
                    "midi": 72,
                    "time": 1150.824368250026,
                    "velocity": 0.2440944881889764,
                    "duration": 0.30927825000003395
                },
                {
                    "name": "C4",
                    "midi": 60,
                    "time": 1151.133646500026,
                    "velocity": 0.2440944881889764,
                    "duration": 0.30927825000003395
                },
                {
                    "name": "F4",
                    "midi": 65,
                    "time": 1151.4429247500261,
                    "velocity": 0.2125984251968504,
                    "duration": 0.30927825000003395
                },
                {
                    "name": "A4",
                    "midi": 69,
                    "time": 1151.7522030000262,
                    "velocity": 0.1968503937007874,
                    "duration": 0.30927825000003395
                },
                {
                    "name": "C5",
                    "midi": 72,
                    "time": 1152.0614812500262,
                    "velocity": 0.14960629921259844,
                    "duration": 0.30927825000003395
                },
                {
                    "name": "A#4",
                    "midi": 70,
                    "time": 1152.3707595000262,
                    "velocity": 0.1889763779527559,
                    "duration": 0.30927825000003395
                },
                {
                    "name": "C5",
                    "midi": 72,
                    "time": 1152.6800377500263,
                    "velocity": 0.2047244094488189,
                    "duration": 0.30927825000003395
                },
                {
                    "name": "A4",
                    "midi": 69,
                    "time": 1152.9893160000263,
                    "velocity": 0.25196850393700787,
                    "duration": 0.30927825000003395
                },
                {
                    "name": "C5",
                    "midi": 72,
                    "time": 1153.2985942500263,
                    "velocity": 0.1889763779527559,
                    "duration": 0.30927825000003395
                },
                {
                    "name": "C4",
                    "midi": 60,
                    "time": 1153.6078725000264,
                    "velocity": 0.1889763779527559,
                    "duration": 0.30927825000003395
                },
                {
                    "name": "F4",
                    "midi": 65,
                    "time": 1153.9171507500264,
                    "velocity": 0.1889763779527559,
                    "duration": 0.30927825000003395
                },
                {
                    "name": "A4",
                    "midi": 69,
                    "time": 1154.2264290000264,
                    "velocity": 0.2125984251968504,
                    "duration": 0.30927825000003395
                },
                {
                    "name": "C5",
                    "midi": 72,
                    "time": 1154.5357072500265,
                    "velocity": 0.1889763779527559,
                    "duration": 0.30927825000003395
                },
                {
                    "name": "C4",
                    "midi": 60,
                    "time": 1154.8449855000265,
                    "velocity": 0.1889763779527559,
                    "duration": 0.30927825000003395
                },
                {
                    "name": "F4",
                    "midi": 65,
                    "time": 1155.1542637500265,
                    "velocity": 0.1889763779527559,
                    "duration": 0.30927825000003395
                },
                {
                    "name": "A4",
                    "midi": 69,
                    "time": 1155.4635420000266,
                    "velocity": 0.23622047244094488,
                    "duration": 0.30927825000003395
                },
                {
                    "name": "C5",
                    "midi": 72,
                    "time": 1155.7728202500266,
                    "velocity": 0.2047244094488189,
                    "duration": 0.30927825000003395
                },
                {
                    "name": "A4",
                    "midi": 69,
                    "time": 1156.0820985000266,
                    "velocity": 0.2125984251968504,
                    "duration": 0.30927825000003395
                },
                {
                    "name": "C5",
                    "midi": 72,
                    "time": 1156.3913767500267,
                    "velocity": 0.2204724409448819,
                    "duration": 0.30927825000003395
                },
                {
                    "name": "A#4",
                    "midi": 70,
                    "time": 1156.7006550000267,
                    "velocity": 0.25984251968503935,
                    "duration": 0.30927825000003395
                },
                {
                    "name": "D5",
                    "midi": 74,
                    "time": 1157.0099332500267,
                    "velocity": 0.2204724409448819,
                    "duration": 0.30927825000003395
                },
                {
                    "name": "G4",
                    "midi": 67,
                    "time": 1157.3192115000268,
                    "velocity": 0.23622047244094488,
                    "duration": 0.30927825000003395
                },
                {
                    "name": "E5",
                    "midi": 76,
                    "time": 1157.6284897500268,
                    "velocity": 0.25196850393700787,
                    "duration": 0.30927825000003395
                },
                {
                    "name": "A4",
                    "midi": 69,
                    "time": 1157.9377680000268,
                    "velocity": 0.28346456692913385,
                    "duration": 0.30927825000003395
                },
                {
                    "name": "F5",
                    "midi": 77,
                    "time": 1158.2470462500269,
                    "velocity": 0.2283464566929134,
                    "duration": 0.30927825000003395
                },
                {
                    "name": "F4",
                    "midi": 65,
                    "time": 1158.556324500027,
                    "velocity": 0.2283464566929134,
                    "duration": 0.30927825000003395
                },
                {
                    "name": "A4",
                    "midi": 69,
                    "time": 1158.865602750027,
                    "velocity": 0.2125984251968504,
                    "duration": 0.30927825000003395
                },
                {
                    "name": "C5",
                    "midi": 72,
                    "time": 1159.174881000027,
                    "velocity": 0.2440944881889764,
                    "duration": 0.30927825000003395
                },
                {
                    "name": "F5",
                    "midi": 77,
                    "time": 1159.484159250027,
                    "velocity": 0.1968503937007874,
                    "duration": 0.30927825000003395
                },
                {
                    "name": "F4",
                    "midi": 65,
                    "time": 1159.793437500027,
                    "velocity": 0.1968503937007874,
                    "duration": 0.30927825000003395
                },
                {
                    "name": "A4",
                    "midi": 69,
                    "time": 1160.102715750027,
                    "velocity": 0.1968503937007874,
                    "duration": 0.30927825000003395
                },
                {
                    "name": "C5",
                    "midi": 72,
                    "time": 1160.411994000027,
                    "velocity": 0.2677165354330709,
                    "duration": 0.30927825000003395
                },
                {
                    "name": "F5",
                    "midi": 77,
                    "time": 1160.7212722500271,
                    "velocity": 0.1889763779527559,
                    "duration": 0.30927825000003395
                },
                {
                    "name": "A4",
                    "midi": 69,
                    "time": 1161.0305505000272,
                    "velocity": 0.1889763779527559,
                    "duration": 0.30927825000003395
                },
                {
                    "name": "F5",
                    "midi": 77,
                    "time": 1161.3398287500272,
                    "velocity": 0.16535433070866143,
                    "duration": 0.30927825000003395
                },
                {
                    "name": "C5",
                    "midi": 72,
                    "time": 1161.6491070000272,
                    "velocity": 0.25984251968503935,
                    "duration": 0.30927825000003395
                },
                {
                    "name": "E5",
                    "midi": 76,
                    "time": 1161.9583852500273,
                    "velocity": 0.1889763779527559,
                    "duration": 0.30927825000003395
                },
                {
                    "name": "A#4",
                    "midi": 70,
                    "time": 1162.2676635000273,
                    "velocity": 0.1889763779527559,
                    "duration": 0.30927825000003395
                },
                {
                    "name": "D5",
                    "midi": 74,
                    "time": 1162.5769417500273,
                    "velocity": 0.18110236220472442,
                    "duration": 0.30927825000003395
                },
                {
                    "name": "A4",
                    "midi": 69,
                    "time": 1162.8862200000274,
                    "velocity": 0.2440944881889764,
                    "duration": 0.30927825000003395
                },
                {
                    "name": "C5",
                    "midi": 72,
                    "time": 1163.1954982500274,
                    "velocity": 0.1889763779527559,
                    "duration": 0.30927825000003395
                },
                {
                    "name": "C4",
                    "midi": 60,
                    "time": 1163.5047765000274,
                    "velocity": 0.1889763779527559,
                    "duration": 0.30927825000003395
                },
                {
                    "name": "F4",
                    "midi": 65,
                    "time": 1163.8140547500275,
                    "velocity": 0.1889763779527559,
                    "duration": 0.30927825000003395
                },
                {
                    "name": "A4",
                    "midi": 69,
                    "time": 1164.1233330000275,
                    "velocity": 0.2204724409448819,
                    "duration": 0.30927825000003395
                },
                {
                    "name": "C5",
                    "midi": 72,
                    "time": 1164.4326112500275,
                    "velocity": 0.1732283464566929,
                    "duration": 0.30927825000003395
                },
                {
                    "name": "C4",
                    "midi": 60,
                    "time": 1164.7418895000276,
                    "velocity": 0.1732283464566929,
                    "duration": 0.30927825000003395
                },
                {
                    "name": "F4",
                    "midi": 65,
                    "time": 1165.0511677500276,
                    "velocity": 0.1732283464566929,
                    "duration": 0.30927825000003395
                },
                {
                    "name": "A4",
                    "midi": 69,
                    "time": 1165.3604460000277,
                    "velocity": 0.2125984251968504,
                    "duration": 0.30927825000003395
                },
                {
                    "name": "C5",
                    "midi": 72,
                    "time": 1165.6697242500277,
                    "velocity": 0.16535433070866143,
                    "duration": 0.30927825000003395
                },
                {
                    "name": "A4",
                    "midi": 69,
                    "time": 1165.9790025000277,
                    "velocity": 0.16535433070866143,
                    "duration": 0.30927825000003395
                },
                {
                    "name": "F4",
                    "midi": 65,
                    "time": 1165.9790025000277,
                    "velocity": 0.16535433070866143,
                    "duration": 0.30927825000003395
                },
                {
                    "name": "C5",
                    "midi": 72,
                    "time": 1166.2882807500278,
                    "velocity": 0.16535433070866143,
                    "duration": 0.30927825000003395
                },
                {
                    "name": "A#4",
                    "midi": 70,
                    "time": 1166.5975590000278,
                    "velocity": 0.25984251968503935,
                    "duration": 0.30927825000003395
                },
                {
                    "name": "E4",
                    "midi": 64,
                    "time": 1166.5975590000278,
                    "velocity": 0.25984251968503935,
                    "duration": 0.30927825000003395
                },
                {
                    "name": "C5",
                    "midi": 72,
                    "time": 1166.9068372500278,
                    "velocity": 0.1889763779527559,
                    "duration": 0.30927825000003395
                },
                {
                    "name": "E4",
                    "midi": 64,
                    "time": 1167.2161155000279,
                    "velocity": 0.1889763779527559,
                    "duration": 0.30927825000003395
                },
                {
                    "name": "G4",
                    "midi": 67,
                    "time": 1167.2161155000279,
                    "velocity": 0.1889763779527559,
                    "duration": 0.30927825000003395
                },
                {
                    "name": "C5",
                    "midi": 72,
                    "time": 1167.525393750028,
                    "velocity": 0.1732283464566929,
                    "duration": 0.30927825000003395
                },
                {
                    "name": "F4",
                    "midi": 65,
                    "time": 1167.834672000028,
                    "velocity": 0.2440944881889764,
                    "duration": 0.30927825000003395
                },
                {
                    "name": "A4",
                    "midi": 69,
                    "time": 1167.834672000028,
                    "velocity": 0.2440944881889764,
                    "duration": 0.30927825000003395
                },
                {
                    "name": "C5",
                    "midi": 72,
                    "time": 1168.143950250028,
                    "velocity": 0.1968503937007874,
                    "duration": 0.30927825000003395
                },
                {
                    "name": "C4",
                    "midi": 60,
                    "time": 1168.453228500028,
                    "velocity": 0.1968503937007874,
                    "duration": 0.30927825000003395
                },
                {
                    "name": "F4",
                    "midi": 65,
                    "time": 1168.762506750028,
                    "velocity": 0.1889763779527559,
                    "duration": 0.30927825000003395
                },
                {
                    "name": "A4",
                    "midi": 69,
                    "time": 1169.071785000028,
                    "velocity": 0.2204724409448819,
                    "duration": 0.30927825000003395
                },
                {
                    "name": "C5",
                    "midi": 72,
                    "time": 1169.381063250028,
                    "velocity": 0.1732283464566929,
                    "duration": 0.30927825000003395
                },
                {
                    "name": "C4",
                    "midi": 60,
                    "time": 1169.6903415000281,
                    "velocity": 0.1732283464566929,
                    "duration": 0.30927825000003395
                },
                {
                    "name": "F4",
                    "midi": 65,
                    "time": 1169.9996197500282,
                    "velocity": 0.1732283464566929,
                    "duration": 0.30927825000003395
                },
                {
                    "name": "A4",
                    "midi": 69,
                    "time": 1170.3088980000282,
                    "velocity": 0.2125984251968504,
                    "duration": 0.30927825000003395
                },
                {
                    "name": "C5",
                    "midi": 72,
                    "time": 1170.6181762500282,
                    "velocity": 0.16535433070866143,
                    "duration": 0.30927825000003395
                },
                {
                    "name": "F4",
                    "midi": 65,
                    "time": 1170.9274545000283,
                    "velocity": 0.16535433070866143,
                    "duration": 0.30927825000003395
                },
                {
                    "name": "A4",
                    "midi": 69,
                    "time": 1170.9274545000283,
                    "velocity": 0.16535433070866143,
                    "duration": 0.30927825000003395
                },
                {
                    "name": "C5",
                    "midi": 72,
                    "time": 1171.2367327500283,
                    "velocity": 0.16535433070866143,
                    "duration": 0.30927825000003395
                },
                {
                    "name": "A#4",
                    "midi": 70,
                    "time": 1171.5460110000283,
                    "velocity": 0.25984251968503935,
                    "duration": 0.30927825000003395
                },
                {
                    "name": "E4",
                    "midi": 64,
                    "time": 1171.5460110000283,
                    "velocity": 0.25984251968503935,
                    "duration": 0.30927825000003395
                },
                {
                    "name": "C5",
                    "midi": 72,
                    "time": 1171.8552892500284,
                    "velocity": 0.1889763779527559,
                    "duration": 0.30927825000003395
                },
                {
                    "name": "G4",
                    "midi": 67,
                    "time": 1172.1645675000284,
                    "velocity": 0.1889763779527559,
                    "duration": 0.30927825000003395
                },
                {
                    "name": "E4",
                    "midi": 64,
                    "time": 1172.1645675000284,
                    "velocity": 0.1889763779527559,
                    "duration": 0.30927825000003395
                },
                {
                    "name": "C5",
                    "midi": 72,
                    "time": 1172.4738457500284,
                    "velocity": 0.18110236220472442,
                    "duration": 0.30927825000003395
                },
                {
                    "name": "A4",
                    "midi": 69,
                    "time": 1172.7831240000285,
                    "velocity": 0.2440944881889764,
                    "duration": 0.30927825000003395
                },
                {
                    "name": "F4",
                    "midi": 65,
                    "time": 1172.7831240000285,
                    "velocity": 0.2440944881889764,
                    "duration": 0.30927825000003395
                },
                {
                    "name": "C5",
                    "midi": 72,
                    "time": 1173.0924022500285,
                    "velocity": 0.1889763779527559,
                    "duration": 0.30927825000003395
                },
                {
                    "name": "C4",
                    "midi": 60,
                    "time": 1173.4016805000285,
                    "velocity": 0.1889763779527559,
                    "duration": 0.30927825000003395
                },
                {
                    "name": "F4",
                    "midi": 65,
                    "time": 1173.7109587500286,
                    "velocity": 0.1968503937007874,
                    "duration": 0.30927825000003395
                },
                {
                    "name": "A4",
                    "midi": 69,
                    "time": 1174.0202370000286,
                    "velocity": 0.2047244094488189,
                    "duration": 0.30927825000003395
                },
                {
                    "name": "C5",
                    "midi": 72,
                    "time": 1174.3295152500286,
                    "velocity": 0.15748031496062992,
                    "duration": 0.30927825000003395
                },
                {
                    "name": "C4",
                    "midi": 60,
                    "time": 1174.6387935000287,
                    "velocity": 0.15748031496062992,
                    "duration": 0.30927825000003395
                },
                {
                    "name": "F4",
                    "midi": 65,
                    "time": 1174.9480717500287,
                    "velocity": 0.15748031496062992,
                    "duration": 0.30927825000003395
                },
                {
                    "name": "A4",
                    "midi": 69,
                    "time": 1175.2573500000287,
                    "velocity": 0.1889763779527559,
                    "duration": 0.30927825000003395
                },
                {
                    "name": "C5",
                    "midi": 72,
                    "time": 1175.5666282500288,
                    "velocity": 0.14173228346456693,
                    "duration": 0.30927825000003395
                },
                {
                    "name": "F4",
                    "midi": 65,
                    "time": 1175.8759065000288,
                    "velocity": 0.14173228346456693,
                    "duration": 0.30927825000003395
                },
                {
                    "name": "A4",
                    "midi": 69,
                    "time": 1175.8759065000288,
                    "velocity": 0.14173228346456693,
                    "duration": 0.30927825000003395
                },
                {
                    "name": "C5",
                    "midi": 72,
                    "time": 1176.1851847500288,
                    "velocity": 0.14173228346456693,
                    "duration": 0.30927825000003395
                },
                {
                    "name": "A#4",
                    "midi": 70,
                    "time": 1176.4944630000289,
                    "velocity": 0.2204724409448819,
                    "duration": 0.30927825000003395
                },
                {
                    "name": "E4",
                    "midi": 64,
                    "time": 1176.4944630000289,
                    "velocity": 0.2204724409448819,
                    "duration": 0.30927825000003395
                },
                {
                    "name": "C5",
                    "midi": 72,
                    "time": 1176.803741250029,
                    "velocity": 0.15748031496062992,
                    "duration": 0.30927825000003395
                },
                {
                    "name": "G4",
                    "midi": 67,
                    "time": 1177.113019500029,
                    "velocity": 0.14960629921259844,
                    "duration": 0.30927825000003395
                },
                {
                    "name": "E4",
                    "midi": 64,
                    "time": 1177.113019500029,
                    "velocity": 0.14960629921259844,
                    "duration": 0.30927825000003395
                },
                {
                    "name": "C5",
                    "midi": 72,
                    "time": 1177.422297750029,
                    "velocity": 0.14960629921259844,
                    "duration": 0.30927825000003395
                },
                {
                    "name": "F4",
                    "midi": 65,
                    "time": 1177.731576000029,
                    "velocity": 0.23622047244094488,
                    "duration": 0.30927825000003395
                },
                {
                    "name": "A4",
                    "midi": 69,
                    "time": 1178.040854250029,
                    "velocity": 0.1732283464566929,
                    "duration": 0.30927825000003395
                },
                {
                    "name": "A3",
                    "midi": 57,
                    "time": 1178.350132500029,
                    "velocity": 0.1732283464566929,
                    "duration": 0.30927825000003395
                },
                {
                    "name": "C4",
                    "midi": 60,
                    "time": 1178.659410750029,
                    "velocity": 0.15748031496062992,
                    "duration": 0.30927825000003395
                },
                {
                    "name": "F4",
                    "midi": 65,
                    "time": 1178.9686890000291,
                    "velocity": 0.25984251968503935,
                    "duration": 0.30927825000003395
                },
                {
                    "name": "A4",
                    "midi": 69,
                    "time": 1179.2779672500292,
                    "velocity": 0.1968503937007874,
                    "duration": 0.30927825000003395
                },
                {
                    "name": "A3",
                    "midi": 57,
                    "time": 1179.5872455000292,
                    "velocity": 0.1968503937007874,
                    "duration": 0.30927825000003395
                },
                {
                    "name": "C4",
                    "midi": 60,
                    "time": 1179.8965237500292,
                    "velocity": 0.1889763779527559,
                    "duration": 0.30927825000003395
                },
                {
                    "name": "F4",
                    "midi": 65,
                    "time": 1180.2058020000293,
                    "velocity": 0.29133858267716534,
                    "duration": 0.30927825000003395
                },
                {
                    "name": "A4",
                    "midi": 69,
                    "time": 1180.5150802500293,
                    "velocity": 0.2047244094488189,
                    "duration": 0.30927825000003395
                },
                {
                    "name": "A3",
                    "midi": 57,
                    "time": 1180.8243585000293,
                    "velocity": 0.2047244094488189,
                    "duration": 0.30927825000003395
                },
                {
                    "name": "C4",
                    "midi": 60,
                    "time": 1181.1336367500294,
                    "velocity": 0.1968503937007874,
                    "duration": 0.30927825000003395
                },
                {
                    "name": "F4",
                    "midi": 65,
                    "time": 1181.4429150000294,
                    "velocity": 0.28346456692913385,
                    "duration": 0.30927825000003395
                },
                {
                    "name": "A4",
                    "midi": 69,
                    "time": 1181.7521932500294,
                    "velocity": 0.2125984251968504,
                    "duration": 0.30927825000003395
                },
                {
                    "name": "A3",
                    "midi": 57,
                    "time": 1182.0614715000295,
                    "velocity": 0.2204724409448819,
                    "duration": 0.30927825000003395
                },
                {
                    "name": "C4",
                    "midi": 60,
                    "time": 1182.3707497500295,
                    "velocity": 0.2204724409448819,
                    "duration": 0.30927825000003395
                },
                {
                    "name": "E2",
                    "midi": 40,
                    "time": 1183.2985845000296,
                    "velocity": 0.30708661417322836,
                    "duration": 0.6185565000000679
                },
                {
                    "name": "F2",
                    "midi": 41,
                    "time": 1183.9171410000297,
                    "velocity": 0.31496062992125984,
                    "duration": 0.6185565000000679
                },
                {
                    "name": "G#2",
                    "midi": 44,
                    "time": 1184.5356975000298,
                    "velocity": 0.33070866141732286,
                    "duration": 0.6185565000000679
                },
                {
                    "name": "B2",
                    "midi": 47,
                    "time": 1185.1542540000298,
                    "velocity": 0.33858267716535434,
                    "duration": 0.6185565000000679
                },
                {
                    "name": "C3",
                    "midi": 48,
                    "time": 1185.77281050003,
                    "velocity": 0.3464566929133858,
                    "duration": 0.6185565000000679
                },
                {
                    "name": "F3",
                    "midi": 53,
                    "time": 1186.39136700003,
                    "velocity": 0.36220472440944884,
                    "duration": 0.6185565000000679
                },
                {
                    "name": "G3",
                    "midi": 55,
                    "time": 1187.00992350003,
                    "velocity": 0.3700787401574803,
                    "duration": 0.6185565000000679
                },
                {
                    "name": "G#3",
                    "midi": 56,
                    "time": 1187.62848000003,
                    "velocity": 0.4015748031496063,
                    "duration": 3.7113389999999526
                },
                {
                    "name": "C3",
                    "midi": 48,
                    "time": 1187.62848000003,
                    "velocity": 0.4015748031496063,
                    "duration": 4.948451999999861
                },
                {
                    "name": "F2",
                    "midi": 41,
                    "time": 1187.62848000003,
                    "velocity": 0.33858267716535434,
                    "duration": 10.515460499999563
                },
                {
                    "name": "E3",
                    "midi": 52,
                    "time": 1191.33981900003,
                    "velocity": 0.33858267716535434,
                    "duration": 1.2371129999999084
                },
                {
                    "name": "G2",
                    "midi": 43,
                    "time": 1191.33981900003,
                    "velocity": 0.28346456692913385,
                    "duration": 1.2371129999999084
                },
                {
                    "name": "G#2",
                    "midi": 44,
                    "time": 1192.57693200003,
                    "velocity": 0.33858267716535434,
                    "duration": 1.2371129999999084
                },
                {
                    "name": "F3",
                    "midi": 53,
                    "time": 1192.57693200003,
                    "velocity": 0.33858267716535434,
                    "duration": 5.567008499999702
                },
                {
                    "name": "A2",
                    "midi": 45,
                    "time": 1193.8140450000299,
                    "velocity": 0.30708661417322836,
                    "duration": 1.2371129999999084
                },
                {
                    "name": "G2",
                    "midi": 43,
                    "time": 1195.0511580000298,
                    "velocity": 0.33858267716535434,
                    "duration": 1.2371129999999084
                },
                {
                    "name": "A2",
                    "midi": 45,
                    "time": 1196.2882710000297,
                    "velocity": 0.31496062992125984,
                    "duration": 1.2371129999999084
                },
                {
                    "name": "C#3",
                    "midi": 49,
                    "time": 1197.5253840000296,
                    "velocity": 0.3464566929133858,
                    "duration": 0.6185565000000679
                },
                {
                    "name": "C#3",
                    "midi": 49,
                    "time": 1198.1439405000297,
                    "velocity": 0.25196850393700787,
                    "duration": 0.30927825000003395
                },
                {
                    "name": "F3",
                    "midi": 53,
                    "time": 1198.1439405000297,
                    "velocity": 0.29133858267716534,
                    "duration": 0.30927825000003395
                },
                {
                    "name": "C3",
                    "midi": 48,
                    "time": 1198.7624970000297,
                    "velocity": 0.25196850393700787,
                    "duration": 0.30927825000003395
                },
                {
                    "name": "D#3",
                    "midi": 51,
                    "time": 1198.7624970000297,
                    "velocity": 0.3228346456692913,
                    "duration": 0.30927825000003395
                },
                {
                    "name": "C3",
                    "midi": 48,
                    "time": 1199.3810535000298,
                    "velocity": 0.28346456692913385,
                    "duration": 0.30927825000003395
                },
                {
                    "name": "D#3",
                    "midi": 51,
                    "time": 1199.3810535000298,
                    "velocity": 0.3464566929133858,
                    "duration": 0.30927825000003395
                },
                {
                    "name": "C#3",
                    "midi": 49,
                    "time": 1199.9996100000299,
                    "velocity": 0.3700787401574803,
                    "duration": 0.30927825000003395
                },
                {
                    "name": "A#2",
                    "midi": 46,
                    "time": 1199.9996100000299,
                    "velocity": 0.30708661417322836,
                    "duration": 0.30927825000003395
                },
                {
                    "name": "A#2",
                    "midi": 46,
                    "time": 1200.61816650003,
                    "velocity": 0.33858267716535434,
                    "duration": 0.30927825000003395
                },
                {
                    "name": "C#3",
                    "midi": 49,
                    "time": 1200.61816650003,
                    "velocity": 0.4015748031496063,
                    "duration": 0.30927825000003395
                },
                {
                    "name": "G#2",
                    "midi": 44,
                    "time": 1201.23672300003,
                    "velocity": 0.36220472440944884,
                    "duration": 0.30927825000003395
                },
                {
                    "name": "C3",
                    "midi": 48,
                    "time": 1201.23672300003,
                    "velocity": 0.4330708661417323,
                    "duration": 0.30927825000003395
                },
                {
                    "name": "C3",
                    "midi": 48,
                    "time": 1201.85527950003,
                    "velocity": 0.47244094488188976,
                    "duration": 0.30927825000003395
                },
                {
                    "name": "G#2",
                    "midi": 44,
                    "time": 1201.85527950003,
                    "velocity": 0.3858267716535433,
                    "duration": 0.30927825000003395
                },
                {
                    "name": "G2",
                    "midi": 43,
                    "time": 1202.4738360000301,
                    "velocity": 0.4251968503937008,
                    "duration": 0.6185565000000679
                },
                {
                    "name": "A#2",
                    "midi": 46,
                    "time": 1202.4738360000301,
                    "velocity": 0.5039370078740157,
                    "duration": 0.6185565000000679
                },
                {
                    "name": "E3",
                    "midi": 52,
                    "time": 1203.7109490000303,
                    "velocity": 0.4330708661417323,
                    "duration": 0.6185565000000679
                },
                {
                    "name": "A#3",
                    "midi": 58,
                    "time": 1203.7109490000303,
                    "velocity": 0.4330708661417323,
                    "duration": 0.6185565000000679
                },
                {
                    "name": "C#4",
                    "midi": 61,
                    "time": 1203.7109490000303,
                    "velocity": 0.5118110236220472,
                    "duration": 0.6185565000000679
                },
                {
                    "name": "G3",
                    "midi": 55,
                    "time": 1203.7109490000303,
                    "velocity": 0.4330708661417323,
                    "duration": 0.6185565000000679
                },
                {
                    "name": "F3",
                    "midi": 53,
                    "time": 1207.4222880000304,
                    "velocity": 0.2283464566929134,
                    "duration": 1.2371129999999084
                },
                {
                    "name": "G#3",
                    "midi": 56,
                    "time": 1207.4222880000304,
                    "velocity": 0.2755905511811024,
                    "duration": 1.2371129999999084
                },
                {
                    "name": "C#3",
                    "midi": 49,
                    "time": 1209.8965140000303,
                    "velocity": 0.2125984251968504,
                    "duration": 1.2371129999999084
                },
                {
                    "name": "A#2",
                    "midi": 46,
                    "time": 1209.8965140000303,
                    "velocity": 0.2125984251968504,
                    "duration": 1.2371129999999084
                },
                {
                    "name": "G3",
                    "midi": 55,
                    "time": 1209.8965140000303,
                    "velocity": 0.25196850393700787,
                    "duration": 1.2371129999999084
                },
                {
                    "name": "C3",
                    "midi": 48,
                    "time": 1212.37074000003,
                    "velocity": 0.3228346456692913,
                    "duration": 2.474225999999362
                },
                {
                    "name": "F3",
                    "midi": 53,
                    "time": 1212.78311100003,
                    "velocity": 0.25196850393700787,
                    "duration": 0.4123709999998937
                },
                {
                    "name": "G3",
                    "midi": 55,
                    "time": 1213.1954820000299,
                    "velocity": 0.25984251968503935,
                    "duration": 0.4123709999998937
                },
                {
                    "name": "G#3",
                    "midi": 56,
                    "time": 1213.6078530000298,
                    "velocity": 0.2755905511811024,
                    "duration": 0.4123709999998937
                },
                {
                    "name": "G3",
                    "midi": 55,
                    "time": 1214.0202240000297,
                    "velocity": 0.2677165354330709,
                    "duration": 0.4123709999998937
                },
                {
                    "name": "F3",
                    "midi": 53,
                    "time": 1214.4351723187795,
                    "velocity": 0.23622047244094488,
                    "duration": 0.4123709999998937
                },
                {
                    "name": "C3",
                    "midi": 48,
                    "time": 1214.8449660000294,
                    "velocity": 0.31496062992125984,
                    "duration": 2.4742260000000442
                },
                {
                    "name": "A#3",
                    "midi": 58,
                    "time": 1214.8552752750293,
                    "velocity": 0.31496062992125984,
                    "duration": 1.2371130000001358
                },
                {
                    "name": "G#3",
                    "midi": 56,
                    "time": 1216.0820790000294,
                    "velocity": 0.2755905511811024,
                    "duration": 0.6185565000000679
                },
                {
                    "name": "G3",
                    "midi": 55,
                    "time": 1216.7006355000294,
                    "velocity": 0.2755905511811024,
                    "duration": 0.6185565000000679
                },
                {
                    "name": "C3",
                    "midi": 48,
                    "time": 1217.3191920000295,
                    "velocity": 0.2992125984251969,
                    "duration": 2.474225999999362
                },
                {
                    "name": "F3",
                    "midi": 53,
                    "time": 1217.7315630000294,
                    "velocity": 0.1968503937007874,
                    "duration": 0.4123709999998937
                },
                {
                    "name": "G3",
                    "midi": 55,
                    "time": 1218.1439340000293,
                    "velocity": 0.2125984251968504,
                    "duration": 0.4123709999998937
                },
                {
                    "name": "G#3",
                    "midi": 56,
                    "time": 1218.5563050000292,
                    "velocity": 0.2283464566929134,
                    "duration": 0.4123709999998937
                },
                {
                    "name": "G3",
                    "midi": 55,
                    "time": 1218.968676000029,
                    "velocity": 0.2283464566929134,
                    "duration": 0.4123709999998937
                },
                {
                    "name": "F3",
                    "midi": 53,
                    "time": 1219.3836243187789,
                    "velocity": 0.2204724409448819,
                    "duration": 0.4123709999998937
                },
                {
                    "name": "C3",
                    "midi": 48,
                    "time": 1219.7934180000289,
                    "velocity": 0.2755905511811024,
                    "duration": 2.4742260000000442
                },
                {
                    "name": "A#3",
                    "midi": 58,
                    "time": 1219.8037272750287,
                    "velocity": 0.2755905511811024,
                    "duration": 1.2371130000001358
                },
                {
                    "name": "G#3",
                    "midi": 56,
                    "time": 1221.0305310000288,
                    "velocity": 0.23622047244094488,
                    "duration": 0.6185565000000679
                },
                {
                    "name": "G3",
                    "midi": 55,
                    "time": 1221.6490875000288,
                    "velocity": 0.2283464566929134,
                    "duration": 0.6185565000000679
                },
                {
                    "name": "F2",
                    "midi": 41,
                    "time": 1222.267644000029,
                    "velocity": 0.1732283464566929,
                    "duration": 1.2371129999999084
                },
                {
                    "name": "F3",
                    "midi": 53,
                    "time": 1222.267644000029,
                    "velocity": 0.2125984251968504,
                    "duration": 1.2371129999999084
                },
                {
                    "name": "F2",
                    "midi": 41,
                    "time": 1224.7418700000287,
                    "velocity": 0.1732283464566929,
                    "duration": 1.2371129999999084
                },
                {
                    "name": "C3",
                    "midi": 48,
                    "time": 1224.7418700000287,
                    "velocity": 0.1732283464566929,
                    "duration": 1.2371129999999084
                },
                {
                    "name": "F3",
                    "midi": 53,
                    "time": 1224.7418700000287,
                    "velocity": 0.2125984251968504,
                    "duration": 1.2371129999999084
                },
                {
                    "name": "C3",
                    "midi": 48,
                    "time": 1227.2160960000285,
                    "velocity": 0.1732283464566929,
                    "duration": 2.4742260000000442
                },
                {
                    "name": "F3",
                    "midi": 53,
                    "time": 1227.2160960000285,
                    "velocity": 0.2047244094488189,
                    "duration": 2.4742260000000442
                },
                {
                    "name": "F2",
                    "midi": 41,
                    "time": 1227.2160960000285,
                    "velocity": 0.1732283464566929,
                    "duration": 2.4742260000000442
                }
            ],
            "controlChanges": {},
            "id": 2,
            "name": "Piano left",
            "instrumentNumber": 0,
            "instrument": "acoustic grand piano",
            "instrumentFamily": "piano",
            "channelNumber": 0,
            "isPercussion": false
        },
        {
            "startTime": 0,
            "duration": 0,
            "length": 0,
            "notes": [],
            "controlChanges": {
                "64": [
                    {
                        "number": 64,
                        "time": 0.01804123125,
                        "value": 1
                    },
                    {
                        "number": 64,
                        "time": 2.49484455,
                        "value": 0
                    },
                    {
                        "number": 64,
                        "time": 2.7396898312499998,
                        "value": 1
                    },
                    {
                        "number": 64,
                        "time": 3.7371121874999997,
                        "value": 0
                    },
                    {
                        "number": 64,
                        "time": 3.948452325,
                        "value": 1
                    },
                    {
                        "number": 64,
                        "time": 4.948452,
                        "value": 0
                    },
                    {
                        "number": 64,
                        "time": 5.301544668749999,
                        "value": 1
                    },
                    {
                        "number": 64,
                        "time": 6.219070143749999,
                        "value": 0
                    },
                    {
                        "number": 64,
                        "time": 6.597935999999999,
                        "value": 1
                    },
                    {
                        "number": 64,
                        "time": 7.456183143749999,
                        "value": 0
                    },
                    {
                        "number": 64,
                        "time": 7.791234581249999,
                        "value": 1
                    },
                    {
                        "number": 64,
                        "time": 8.69845078125,
                        "value": 0
                    },
                    {
                        "number": 64,
                        "time": 9.043811493749999,
                        "value": 1
                    },
                    {
                        "number": 64,
                        "time": 9.987110156249999,
                        "value": 0
                    },
                    {
                        "number": 64,
                        "time": 10.19329565625,
                        "value": 1
                    },
                    {
                        "number": 64,
                        "time": 11.167522143749999,
                        "value": 0
                    },
                    {
                        "number": 64,
                        "time": 11.39948083125,
                        "value": 1
                    },
                    {
                        "number": 64,
                        "time": 12.40978978125,
                        "value": 0
                    },
                    {
                        "number": 64,
                        "time": 12.65205774375,
                        "value": 1
                    },
                    {
                        "number": 64,
                        "time": 13.64174814375,
                        "value": 0
                    },
                    {
                        "number": 64,
                        "time": 13.96133566875,
                        "value": 1
                    },
                    {
                        "number": 64,
                        "time": 14.85824259375,
                        "value": 0
                    },
                    {
                        "number": 64,
                        "time": 14.999995125,
                        "value": 1
                    },
                    {
                        "number": 64,
                        "time": 15.35824243125,
                        "value": 0
                    },
                    {
                        "number": 64,
                        "time": 16.17267515625,
                        "value": 1
                    },
                    {
                        "number": 64,
                        "time": 16.6597884,
                        "value": 0
                    },
                    {
                        "number": 64,
                        "time": 19.793808,
                        "value": 1
                    },
                    {
                        "number": 64,
                        "time": 22.28607523125,
                        "value": 0
                    },
                    {
                        "number": 64,
                        "time": 22.57731225,
                        "value": 1
                    },
                    {
                        "number": 64,
                        "time": 24.742259999999998,
                        "value": 0
                    },
                    {
                        "number": 64,
                        "time": 27.40978490625,
                        "value": 1
                    },
                    {
                        "number": 64,
                        "time": 27.84792909375,
                        "value": 0
                    },
                    {
                        "number": 64,
                        "time": 29.89947481875,
                        "value": 1
                    },
                    {
                        "number": 64,
                        "time": 32.18297923125,
                        "value": 0
                    },
                    {
                        "number": 64,
                        "time": 32.38401009375,
                        "value": 1
                    },
                    {
                        "number": 64,
                        "time": 33.4381334625,
                        "value": 0
                    },
                    {
                        "number": 64,
                        "time": 33.693288018749996,
                        "value": 1
                    },
                    {
                        "number": 64,
                        "time": 34.664937187499994,
                        "value": 0
                    },
                    {
                        "number": 64,
                        "time": 34.824730949999996,
                        "value": 1
                    },
                    {
                        "number": 64,
                        "time": 35.907204824999994,
                        "value": 0
                    },
                    {
                        "number": 64,
                        "time": 36.16493669999999,
                        "value": 1
                    },
                    {
                        "number": 64,
                        "time": 37.13916318749999,
                        "value": 0
                    },
                    {
                        "number": 64,
                        "time": 37.29895694999999,
                        "value": 1
                    },
                    {
                        "number": 64,
                        "time": 38.38658546249999,
                        "value": 0
                    },
                    {
                        "number": 64,
                        "time": 38.536069949999984,
                        "value": 1
                    },
                    {
                        "number": 64,
                        "time": 39.605657231249985,
                        "value": 0
                    },
                    {
                        "number": 64,
                        "time": 39.83761591874998,
                        "value": 1
                    },
                    {
                        "number": 64,
                        "time": 40.85823414374998,
                        "value": 0
                    },
                    {
                        "number": 64,
                        "time": 41.13400724999998,
                        "value": 1
                    },
                    {
                        "number": 64,
                        "time": 42.09792446249998,
                        "value": 0
                    },
                    {
                        "number": 64,
                        "time": 42.35823365624998,
                        "value": 1
                    },
                    {
                        "number": 64,
                        "time": 43.335037462499976,
                        "value": 0
                    },
                    {
                        "number": 64,
                        "time": 43.564418831249974,
                        "value": 1
                    },
                    {
                        "number": 64,
                        "time": 44.53606799999997,
                        "value": 0
                    },
                    {
                        "number": 64,
                        "time": 44.716480312499975,
                        "value": 1
                    },
                    {
                        "number": 64,
                        "time": 45.11338739999997,
                        "value": 0
                    },
                    {
                        "number": 64,
                        "time": 45.871119112499976,
                        "value": 1
                    },
                    {
                        "number": 64,
                        "time": 46.399469456249975,
                        "value": 0
                    },
                    {
                        "number": 64,
                        "time": 49.79379824999997,
                        "value": 1
                    },
                    {
                        "number": 64,
                        "time": 51.997405781249974,
                        "value": 0
                    },
                    {
                        "number": 64,
                        "time": 52.322147943749975,
                        "value": 1
                    },
                    {
                        "number": 64,
                        "time": 53.21647754999997,
                        "value": 0
                    },
                    {
                        "number": 64,
                        "time": 53.451013556249976,
                        "value": 1
                    },
                    {
                        "number": 64,
                        "time": 54.443281274999975,
                        "value": 0
                    },
                    {
                        "number": 64,
                        "time": 54.62369358749998,
                        "value": 1
                    },
                    {
                        "number": 64,
                        "time": 56.922661912499976,
                        "value": 0
                    },
                    {
                        "number": 64,
                        "time": 57.05410516874998,
                        "value": 1
                    },
                    {
                        "number": 64,
                        "time": 57.43554834374998,
                        "value": 0
                    },
                    {
                        "number": 64,
                        "time": 58.32472331249998,
                        "value": 1
                    },
                    {
                        "number": 64,
                        "time": 58.79121800624998,
                        "value": 0
                    },
                    {
                        "number": 64,
                        "time": 59.518021893749975,
                        "value": 1
                    },
                    {
                        "number": 64,
                        "time": 59.80925891249998,
                        "value": 0
                    },
                    {
                        "number": 64,
                        "time": 60.71905243124998,
                        "value": 1
                    },
                    {
                        "number": 64,
                        "time": 61.87111391249998,
                        "value": 0
                    },
                    {
                        "number": 64,
                        "time": 61.992247893749976,
                        "value": 1
                    },
                    {
                        "number": 64,
                        "time": 62.42008280624998,
                        "value": 0
                    },
                    {
                        "number": 64,
                        "time": 64.32987599999998,
                        "value": 0
                    },
                    {
                        "number": 64,
                        "time": 64.53606149999999,
                        "value": 1
                    },
                    {
                        "number": 64,
                        "time": 64.94843249999998,
                        "value": 0
                    },
                    {
                        "number": 64,
                        "time": 65.58760754999999,
                        "value": 0
                    },
                    {
                        "number": 64,
                        "time": 65.77317449999998,
                        "value": 1
                    },
                    {
                        "number": 64,
                        "time": 67.01028749999998,
                        "value": 0
                    },
                    {
                        "number": 64,
                        "time": 67.17265858124998,
                        "value": 1
                    },
                    {
                        "number": 64,
                        "time": 68.17523557499997,
                        "value": 0
                    },
                    {
                        "number": 64,
                        "time": 70.59018324374998,
                        "value": 1
                    },
                    {
                        "number": 64,
                        "time": 71.77832718749998,
                        "value": 0
                    },
                    {
                        "number": 64,
                        "time": 73.02059482499999,
                        "value": 1
                    },
                    {
                        "number": 64,
                        "time": 74.22677999999999,
                        "value": 0
                    },
                    {
                        "number": 64,
                        "time": 74.52317165624999,
                        "value": 1
                    },
                    {
                        "number": 64,
                        "time": 74.87626432499998,
                        "value": 0
                    },
                    {
                        "number": 64,
                        "time": 75.76028465624998,
                        "value": 1
                    },
                    {
                        "number": 64,
                        "time": 76.12626391874998,
                        "value": 0
                    },
                    {
                        "number": 64,
                        "time": 76.93811932499999,
                        "value": 1
                    },
                    {
                        "number": 64,
                        "time": 77.39430474374998,
                        "value": 0
                    },
                    {
                        "number": 64,
                        "time": 78.21904674374998,
                        "value": 1
                    },
                    {
                        "number": 64,
                        "time": 78.69069607499999,
                        "value": 0
                    },
                    {
                        "number": 64,
                        "time": 79.84791219374999,
                        "value": 1
                    },
                    {
                        "number": 64,
                        "time": 81.66492191249999,
                        "value": 0
                    },
                    {
                        "number": 64,
                        "time": 81.84275690624999,
                        "value": 1
                    },
                    {
                        "number": 64,
                        "time": 82.29894232499998,
                        "value": 0
                    },
                    {
                        "number": 64,
                        "time": 82.91234418749998,
                        "value": 0
                    },
                    {
                        "number": 64,
                        "time": 83.13399359999998,
                        "value": 1
                    },
                    {
                        "number": 64,
                        "time": 84.12368399999998,
                        "value": 0
                    },
                    {
                        "number": 64,
                        "time": 84.28605508124998,
                        "value": 1
                    },
                    {
                        "number": 64,
                        "time": 84.68296216874998,
                        "value": 0
                    },
                    {
                        "number": 64,
                        "time": 85.38141554999999,
                        "value": 0
                    },
                    {
                        "number": 64,
                        "time": 85.56698249999998,
                        "value": 1
                    },
                    {
                        "number": 64,
                        "time": 86.76028108124999,
                        "value": 0
                    },
                    {
                        "number": 64,
                        "time": 86.96646658124999,
                        "value": 1
                    },
                    {
                        "number": 64,
                        "time": 87.84533227499999,
                        "value": 0
                    },
                    {
                        "number": 64,
                        "time": 90.309249,
                        "value": 1
                    },
                    {
                        "number": 64,
                        "time": 91.5721351875,
                        "value": 0
                    },
                    {
                        "number": 64,
                        "time": 91.85564025,
                        "value": 1
                    },
                    {
                        "number": 64,
                        "time": 92.19069168749999,
                        "value": 0
                    },
                    {
                        "number": 64,
                        "time": 93.02058832499999,
                        "value": 1
                    },
                    {
                        "number": 64,
                        "time": 93.453577875,
                        "value": 0
                    },
                    {
                        "number": 64,
                        "time": 94.31697965625,
                        "value": 1
                    },
                    {
                        "number": 64,
                        "time": 94.6649176875,
                        "value": 0
                    },
                    {
                        "number": 64,
                        "time": 95.55409265624999,
                        "value": 1
                    },
                    {
                        "number": 64,
                        "time": 95.92007191875,
                        "value": 0
                    },
                    {
                        "number": 64,
                        "time": 96.731927325,
                        "value": 1
                    },
                    {
                        "number": 64,
                        "time": 97.1391436875,
                        "value": 0
                    },
                    {
                        "number": 64,
                        "time": 98.01285474375,
                        "value": 1
                    },
                    {
                        "number": 64,
                        "time": 98.3762566875,
                        "value": 0
                    },
                    {
                        "number": 64,
                        "time": 99.64172019375,
                        "value": 1
                    },
                    {
                        "number": 64,
                        "time": 101.4587299125,
                        "value": 0
                    },
                    {
                        "number": 64,
                        "time": 101.57986389375,
                        "value": 1
                    },
                    {
                        "number": 64,
                        "time": 102.092750325,
                        "value": 0
                    },
                    {
                        "number": 64,
                        "time": 102.917492325,
                        "value": 1
                    },
                    {
                        "number": 64,
                        "time": 103.917492,
                        "value": 0
                    },
                    {
                        "number": 64,
                        "time": 104.18295583125,
                        "value": 1
                    },
                    {
                        "number": 64,
                        "time": 104.57986291875,
                        "value": 0
                    },
                    {
                        "number": 64,
                        "time": 106.41749118749999,
                        "value": 0
                    },
                    {
                        "number": 64,
                        "time": 106.731924075,
                        "value": 1
                    },
                    {
                        "number": 64,
                        "time": 107.06955283125,
                        "value": 0
                    },
                    {
                        "number": 64,
                        "time": 108.865944,
                        "value": 0
                    },
                    {
                        "number": 64,
                        "time": 109.53862419375,
                        "value": 1
                    },
                    {
                        "number": 64,
                        "time": 110.09017040625,
                        "value": 0
                    },
                    {
                        "number": 64,
                        "time": 111.3556339125,
                        "value": 1
                    },
                    {
                        "number": 64,
                        "time": 111.97676773124999,
                        "value": 0
                    },
                    {
                        "number": 64,
                        "time": 113.81439599999999,
                        "value": 0
                    },
                    {
                        "number": 64,
                        "time": 114.07985983124999,
                        "value": 1
                    },
                    {
                        "number": 64,
                        "time": 114.47161228124999,
                        "value": 0
                    },
                    {
                        "number": 64,
                        "time": 116.31439518749998,
                        "value": 0
                    },
                    {
                        "number": 64,
                        "time": 116.58501365624998,
                        "value": 1
                    },
                    {
                        "number": 64,
                        "time": 116.92779704999998,
                        "value": 0
                    },
                    {
                        "number": 64,
                        "time": 118.76284799999998,
                        "value": 0
                    },
                    {
                        "number": 64,
                        "time": 119.08759016249998,
                        "value": 1
                    },
                    {
                        "number": 64,
                        "time": 120.03088882499998,
                        "value": 0
                    },
                    {
                        "number": 64,
                        "time": 121.37367189374997,
                        "value": 1
                    },
                    {
                        "number": 64,
                        "time": 121.90202223749998,
                        "value": 0
                    },
                    {
                        "number": 64,
                        "time": 123.71129999999998,
                        "value": 0
                    },
                    {
                        "number": 64,
                        "time": 123.97676383124998,
                        "value": 1
                    },
                    {
                        "number": 64,
                        "time": 124.95356763749999,
                        "value": 0
                    },
                    {
                        "number": 64,
                        "time": 126.32212389374999,
                        "value": 1
                    },
                    {
                        "number": 64,
                        "time": 127.45098950624998,
                        "value": 0
                    },
                    {
                        "number": 64,
                        "time": 128.92521583124997,
                        "value": 1
                    },
                    {
                        "number": 64,
                        "time": 129.95098869374996,
                        "value": 0
                    },
                    {
                        "number": 64,
                        "time": 131.27057589374996,
                        "value": 1
                    },
                    {
                        "number": 64,
                        "time": 132.41232809999997,
                        "value": 0
                    },
                    {
                        "number": 64,
                        "time": 134.39170889999997,
                        "value": 1
                    },
                    {
                        "number": 64,
                        "time": 136.10820318749998,
                        "value": 0
                    },
                    {
                        "number": 64,
                        "time": 136.88397613125,
                        "value": 1
                    },
                    {
                        "number": 64,
                        "time": 138.59531578125,
                        "value": 0
                    },
                    {
                        "number": 64,
                        "time": 139.24995474375,
                        "value": 1
                    },
                    {
                        "number": 64,
                        "time": 141.16232525625,
                        "value": 0
                    },
                    {
                        "number": 64,
                        "time": 143.52830386875,
                        "value": 0
                    },
                    {
                        "number": 64,
                        "time": 146.05149892499998,
                        "value": 1
                    },
                    {
                        "number": 64,
                        "time": 146.62108636874999,
                        "value": 0
                    },
                    {
                        "number": 64,
                        "time": 151.66489916249998,
                        "value": 1
                    },
                    {
                        "number": 64,
                        "time": 153.42778518749998,
                        "value": 0
                    },
                    {
                        "number": 64,
                        "time": 155.94840292499998,
                        "value": 1
                    },
                    {
                        "number": 64,
                        "time": 156.51799036875,
                        "value": 0
                    },
                    {
                        "number": 64,
                        "time": 161.56180316249998,
                        "value": 1
                    },
                    {
                        "number": 64,
                        "time": 163.32468918749998,
                        "value": 0
                    },
                    {
                        "number": 64,
                        "time": 165.845306925,
                        "value": 1
                    },
                    {
                        "number": 64,
                        "time": 166.41489436875,
                        "value": 0
                    },
                    {
                        "number": 64,
                        "time": 171.4587071625,
                        "value": 1
                    },
                    {
                        "number": 64,
                        "time": 173.2215931875,
                        "value": 0
                    },
                    {
                        "number": 64,
                        "time": 173.90715997499998,
                        "value": 1
                    },
                    {
                        "number": 64,
                        "time": 175.68550991249998,
                        "value": 0
                    },
                    {
                        "number": 64,
                        "time": 175.90715932499998,
                        "value": 1
                    },
                    {
                        "number": 64,
                        "time": 176.31179836874998,
                        "value": 0
                    },
                    {
                        "number": 64,
                        "time": 178.32726163124997,
                        "value": 1
                    },
                    {
                        "number": 64,
                        "time": 178.78602436874996,
                        "value": 0
                    },
                    {
                        "number": 64,
                        "time": 181.35561116249997,
                        "value": 1
                    },
                    {
                        "number": 64,
                        "time": 183.10818791249997,
                        "value": 0
                    },
                    {
                        "number": 64,
                        "time": 183.27313631249996,
                        "value": 1
                    },
                    {
                        "number": 64,
                        "time": 183.73447636874997,
                        "value": 0
                    },
                    {
                        "number": 64,
                        "time": 183.97674433124996,
                        "value": 1
                    },
                    {
                        "number": 64,
                        "time": 185.60045514374997,
                        "value": 0
                    },
                    {
                        "number": 64,
                        "time": 186.43550641874998,
                        "value": 1
                    },
                    {
                        "number": 64,
                        "time": 188.14169143124997,
                        "value": 1
                    },
                    {
                        "number": 64,
                        "time": 188.77055720624998,
                        "value": 0
                    },
                    {
                        "number": 64,
                        "time": 189.39684566249997,
                        "value": 1
                    },
                    {
                        "number": 64,
                        "time": 190.09787636249996,
                        "value": 0
                    },
                    {
                        "number": 64,
                        "time": 190.71643286249997,
                        "value": 1
                    },
                    {
                        "number": 64,
                        "time": 191.29890689999996,
                        "value": 0
                    },
                    {
                        "number": 64,
                        "time": 191.91746339999997,
                        "value": 1
                    },
                    {
                        "number": 64,
                        "time": 192.62622605624998,
                        "value": 0
                    },
                    {
                        "number": 64,
                        "time": 193.1906588625,
                        "value": 1
                    },
                    {
                        "number": 64,
                        "time": 193.89168956249998,
                        "value": 0
                    },
                    {
                        "number": 64,
                        "time": 194.41746258749998,
                        "value": 1
                    },
                    {
                        "number": 64,
                        "time": 195.07210154999999,
                        "value": 0
                    },
                    {
                        "number": 64,
                        "time": 195.67261681875,
                        "value": 1
                    },
                    {
                        "number": 64,
                        "time": 196.43808048749997,
                        "value": 0
                    },
                    {
                        "number": 64,
                        "time": 198.03859543124997,
                        "value": 1
                    },
                    {
                        "number": 64,
                        "time": 198.78344054999997,
                        "value": 0
                    },
                    {
                        "number": 64,
                        "time": 199.29374966249998,
                        "value": 1
                    },
                    {
                        "number": 64,
                        "time": 200.05921333124996,
                        "value": 0
                    },
                    {
                        "number": 64,
                        "time": 200.61333686249998,
                        "value": 1
                    },
                    {
                        "number": 64,
                        "time": 201.30405828749997,
                        "value": 0
                    },
                    {
                        "number": 64,
                        "time": 201.81436739999998,
                        "value": 1
                    },
                    {
                        "number": 64,
                        "time": 202.50508882499997,
                        "value": 0
                    },
                    {
                        "number": 64,
                        "time": 203.08756286249996,
                        "value": 1
                    },
                    {
                        "number": 64,
                        "time": 203.72416059374996,
                        "value": 0
                    },
                    {
                        "number": 64,
                        "time": 204.31436658749996,
                        "value": 1
                    },
                    {
                        "number": 64,
                        "time": 205.07983025624995,
                        "value": 0
                    },
                    {
                        "number": 64,
                        "time": 205.56952081874994,
                        "value": 1
                    },
                    {
                        "number": 64,
                        "time": 206.33498448749992,
                        "value": 0
                    },
                    {
                        "number": 64,
                        "time": 208.1442622499999,
                        "value": 1
                    },
                    {
                        "number": 64,
                        "time": 212.81178650624992,
                        "value": 0
                    },
                    {
                        "number": 64,
                        "time": 213.01281736874992,
                        "value": 1
                    },
                    {
                        "number": 64,
                        "time": 213.58240481249993,
                        "value": 0
                    },
                    {
                        "number": 64,
                        "time": 215.50250728124993,
                        "value": 1
                    },
                    {
                        "number": 64,
                        "time": 217.73188799999994,
                        "value": 0
                    },
                    {
                        "number": 64,
                        "time": 217.97931059999993,
                        "value": 1
                    },
                    {
                        "number": 64,
                        "time": 220.23188718749992,
                        "value": 0
                    },
                    {
                        "number": 64,
                        "time": 220.86075296249993,
                        "value": 1
                    },
                    {
                        "number": 64,
                        "time": 221.47157750624993,
                        "value": 0
                    },
                    {
                        "number": 64,
                        "time": 221.61590735624992,
                        "value": 1
                    },
                    {
                        "number": 64,
                        "time": 222.68033999999992,
                        "value": 0
                    },
                    {
                        "number": 64,
                        "time": 223.39941193124992,
                        "value": 1
                    },
                    {
                        "number": 64,
                        "time": 223.9277622749999,
                        "value": 0
                    },
                    {
                        "number": 64,
                        "time": 224.1004426312499,
                        "value": 1
                    },
                    {
                        "number": 64,
                        "time": 225.1777618687499,
                        "value": 0
                    },
                    {
                        "number": 64,
                        "time": 225.3452875874999,
                        "value": 1
                    },
                    {
                        "number": 64,
                        "time": 225.7988956874999,
                        "value": 0
                    },
                    {
                        "number": 64,
                        "time": 226.0102358249999,
                        "value": 1
                    },
                    {
                        "number": 64,
                        "time": 226.41745218749992,
                        "value": 0
                    },
                    {
                        "number": 64,
                        "time": 226.65714283124993,
                        "value": 1
                    },
                    {
                        "number": 64,
                        "time": 227.03600868749993,
                        "value": 0
                    },
                    {
                        "number": 64,
                        "time": 227.28343128749992,
                        "value": 1
                    },
                    {
                        "number": 64,
                        "time": 227.62879199999992,
                        "value": 0
                    },
                    {
                        "number": 64,
                        "time": 228.30147219374993,
                        "value": 1
                    },
                    {
                        "number": 64,
                        "time": 228.88910086874992,
                        "value": 0
                    },
                    {
                        "number": 64,
                        "time": 229.05662658749992,
                        "value": 1
                    },
                    {
                        "number": 64,
                        "time": 231.3684815062499,
                        "value": 0
                    },
                    {
                        "number": 64,
                        "time": 231.5128113562499,
                        "value": 1
                    },
                    {
                        "number": 64,
                        "time": 232.5772439999999,
                        "value": 0
                    },
                    {
                        "number": 64,
                        "time": 233.33239839374988,
                        "value": 1
                    },
                    {
                        "number": 64,
                        "time": 236.3143561874999,
                        "value": 0
                    },
                    {
                        "number": 64,
                        "time": 236.5540468312499,
                        "value": 1
                    },
                    {
                        "number": 64,
                        "time": 237.5256959999999,
                        "value": 0
                    },
                    {
                        "number": 64,
                        "time": 238.2628091624999,
                        "value": 1
                    },
                    {
                        "number": 64,
                        "time": 241.2653855062499,
                        "value": 0
                    },
                    {
                        "number": 64,
                        "time": 241.4097153562499,
                        "value": 1
                    },
                    {
                        "number": 64,
                        "time": 242.4741479999999,
                        "value": 0
                    },
                    {
                        "number": 64,
                        "time": 243.2396116687499,
                        "value": 1
                    },
                    {
                        "number": 64,
                        "time": 245.3117759437499,
                        "value": 0
                    },
                    {
                        "number": 64,
                        "time": 245.6854871624999,
                        "value": 1
                    },
                    {
                        "number": 64,
                        "time": 246.2396106937499,
                        "value": 0
                    },
                    {
                        "number": 64,
                        "time": 246.46899206249992,
                        "value": 1
                    },
                    {
                        "number": 64,
                        "time": 247.42259999999993,
                        "value": 0
                    },
                    {
                        "number": 64,
                        "time": 247.67002259999992,
                        "value": 1
                    },
                    {
                        "number": 64,
                        "time": 249.9225991874999,
                        "value": 0
                    },
                    {
                        "number": 64,
                        "time": 250.5978566999999,
                        "value": 1
                    },
                    {
                        "number": 64,
                        "time": 252.3710519999999,
                        "value": 0
                    },
                    {
                        "number": 64,
                        "time": 253.0360002374999,
                        "value": 1
                    },
                    {
                        "number": 64,
                        "time": 254.8684738687499,
                        "value": 0
                    },
                    {
                        "number": 64,
                        "time": 255.0359995874999,
                        "value": 1
                    },
                    {
                        "number": 64,
                        "time": 255.4896076874999,
                        "value": 0
                    },
                    {
                        "number": 64,
                        "time": 255.7009478249999,
                        "value": 1
                    },
                    {
                        "number": 64,
                        "time": 256.1081641874999,
                        "value": 0
                    },
                    {
                        "number": 64,
                        "time": 256.3478548312499,
                        "value": 1
                    },
                    {
                        "number": 64,
                        "time": 256.7267206874999,
                        "value": 0
                    },
                    {
                        "number": 64,
                        "time": 256.9741432874999,
                        "value": 1
                    },
                    {
                        "number": 64,
                        "time": 257.3195039999999,
                        "value": 0
                    },
                    {
                        "number": 64,
                        "time": 258.03084397499987,
                        "value": 1
                    },
                    {
                        "number": 64,
                        "time": 261.05919350624987,
                        "value": 0
                    },
                    {
                        "number": 64,
                        "time": 261.2035233562499,
                        "value": 1
                    },
                    {
                        "number": 64,
                        "time": 262.2679559999999,
                        "value": 0
                    },
                    {
                        "number": 64,
                        "time": 263.04115162499994,
                        "value": 1
                    },
                    {
                        "number": 64,
                        "time": 266.00506818749994,
                        "value": 0
                    },
                    {
                        "number": 64,
                        "time": 266.24475883124995,
                        "value": 1
                    },
                    {
                        "number": 64,
                        "time": 267.21640799999994,
                        "value": 0
                    },
                    {
                        "number": 64,
                        "time": 267.86331500624993,
                        "value": 1
                    },
                    {
                        "number": 64,
                        "time": 270.95609750624993,
                        "value": 0
                    },
                    {
                        "number": 64,
                        "time": 271.10042735624995,
                        "value": 1
                    },
                    {
                        "number": 64,
                        "time": 272.16486,
                        "value": 0
                    },
                    {
                        "number": 64,
                        "time": 272.9122824375,
                        "value": 1
                    },
                    {
                        "number": 64,
                        "time": 274.8040344,
                        "value": 0
                    },
                    {
                        "number": 64,
                        "time": 275.20351880625,
                        "value": 1
                    },
                    {
                        "number": 64,
                        "time": 275.876199,
                        "value": 0
                    },
                    {
                        "number": 64,
                        "time": 276.07722986249996,
                        "value": 1
                    },
                    {
                        "number": 64,
                        "time": 277.11331199999995,
                        "value": 0
                    },
                    {
                        "number": 64,
                        "time": 277.30403358749993,
                        "value": 1
                    },
                    {
                        "number": 64,
                        "time": 279.6133111874999,
                        "value": 0
                    },
                    {
                        "number": 64,
                        "time": 280.3066099312499,
                        "value": 1
                    },
                    {
                        "number": 64,
                        "time": 282.0617639999999,
                        "value": 0
                    },
                    {
                        "number": 64,
                        "time": 282.8169183937499,
                        "value": 1
                    },
                    {
                        "number": 64,
                        "time": 284.5591858687499,
                        "value": 0
                    },
                    {
                        "number": 64,
                        "time": 284.72671158749995,
                        "value": 1
                    },
                    {
                        "number": 64,
                        "time": 285.18031968749995,
                        "value": 0
                    },
                    {
                        "number": 64,
                        "time": 285.3272268562499,
                        "value": 1
                    },
                    {
                        "number": 64,
                        "time": 285.7988761874999,
                        "value": 0
                    },
                    {
                        "number": 64,
                        "time": 285.9277421249999,
                        "value": 1
                    },
                    {
                        "number": 64,
                        "time": 286.4174326874999,
                        "value": 0
                    },
                    {
                        "number": 64,
                        "time": 286.5643398562499,
                        "value": 1
                    },
                    {
                        "number": 64,
                        "time": 287.0102159999999,
                        "value": 0
                    },
                    {
                        "number": 64,
                        "time": 287.2576385999999,
                        "value": 1
                    },
                    {
                        "number": 64,
                        "time": 290.7499055062499,
                        "value": 0
                    },
                    {
                        "number": 64,
                        "time": 290.8942353562499,
                        "value": 1
                    },
                    {
                        "number": 64,
                        "time": 291.95866799999993,
                        "value": 0
                    },
                    {
                        "number": 64,
                        "time": 292.6700079749999,
                        "value": 1
                    },
                    {
                        "number": 64,
                        "time": 294.4741310999999,
                        "value": 0
                    },
                    {
                        "number": 64,
                        "time": 294.7421722499999,
                        "value": 1
                    },
                    {
                        "number": 64,
                        "time": 296.9071199999999,
                        "value": 0
                    },
                    {
                        "number": 64,
                        "time": 297.1545425999999,
                        "value": 1
                    },
                    {
                        "number": 64,
                        "time": 300.6468095062499,
                        "value": 0
                    },
                    {
                        "number": 64,
                        "time": 300.7911393562499,
                        "value": 1
                    },
                    {
                        "number": 64,
                        "time": 301.85557199999994,
                        "value": 0
                    },
                    {
                        "number": 64,
                        "time": 302.02825235624994,
                        "value": 1
                    },
                    {
                        "number": 64,
                        "time": 304.3504165499999,
                        "value": 0
                    },
                    {
                        "number": 64,
                        "time": 304.5205195874999,
                        "value": 1
                    },
                    {
                        "number": 64,
                        "time": 306.8040239999999,
                        "value": 0
                    },
                    {
                        "number": 64,
                        "time": 307.0514465999999,
                        "value": 1
                    },
                    {
                        "number": 64,
                        "time": 310.5437135062499,
                        "value": 0
                    },
                    {
                        "number": 64,
                        "time": 310.6880433562499,
                        "value": 1
                    },
                    {
                        "number": 64,
                        "time": 311.75247599999994,
                        "value": 0
                    },
                    {
                        "number": 64,
                        "time": 312.2241253312499,
                        "value": 1
                    },
                    {
                        "number": 64,
                        "time": 314.8581450937499,
                        "value": 0
                    },
                    {
                        "number": 64,
                        "time": 316.7009279999999,
                        "value": 1
                    },
                    {
                        "number": 64,
                        "time": 321.6493799999999,
                        "value": 0
                    },
                    {
                        "number": 64,
                        "time": 321.90453455624987,
                        "value": 1
                    },
                    {
                        "number": 64,
                        "time": 336.4947359999999,
                        "value": 0
                    },
                    {
                        "number": 64,
                        "time": 336.7163854124999,
                        "value": 1
                    },
                    {
                        "number": 64,
                        "time": 340.2498894187499,
                        "value": 0
                    },
                    {
                        "number": 64,
                        "time": 340.3993739062499,
                        "value": 1
                    },
                    {
                        "number": 64,
                        "time": 341.44318799999985,
                        "value": 0
                    },
                    {
                        "number": 64,
                        "time": 341.6210229937499,
                        "value": 1
                    },
                    {
                        "number": 64,
                        "time": 344.5668983249999,
                        "value": 0
                    },
                    {
                        "number": 64,
                        "time": 344.7138054937499,
                        "value": 1
                    },
                    {
                        "number": 64,
                        "time": 345.20865069374986,
                        "value": 0
                    },
                    {
                        "number": 64,
                        "time": 345.3761764124999,
                        "value": 1
                    },
                    {
                        "number": 64,
                        "time": 345.80401132499986,
                        "value": 0
                    },
                    {
                        "number": 64,
                        "time": 345.93545458124987,
                        "value": 1
                    },
                    {
                        "number": 64,
                        "time": 346.3916399999999,
                        "value": 0
                    },
                    {
                        "number": 64,
                        "time": 346.75504194374986,
                        "value": 1
                    },
                    {
                        "number": 64,
                        "time": 350.15710269374983,
                        "value": 0
                    },
                    {
                        "number": 64,
                        "time": 350.39421601874983,
                        "value": 1
                    },
                    {
                        "number": 64,
                        "time": 351.34009199999986,
                        "value": 0
                    },
                    {
                        "number": 64,
                        "time": 351.5179269937499,
                        "value": 1
                    },
                    {
                        "number": 64,
                        "time": 355.1081320124999,
                        "value": 0
                    },
                    {
                        "number": 64,
                        "time": 355.3168948312499,
                        "value": 1
                    },
                    {
                        "number": 64,
                        "time": 355.6854514124999,
                        "value": 0
                    },
                    {
                        "number": 64,
                        "time": 355.9354513312499,
                        "value": 1
                    },
                    {
                        "number": 64,
                        "time": 356.2885439999999,
                        "value": 0
                    },
                    {
                        "number": 64,
                        "time": 356.2885439999999,
                        "value": 0
                    },
                    {
                        "number": 64,
                        "time": 356.5101934124999,
                        "value": 1
                    },
                    {
                        "number": 64,
                        "time": 360.0488520562499,
                        "value": 0
                    },
                    {
                        "number": 64,
                        "time": 360.2962746562499,
                        "value": 1
                    },
                    {
                        "number": 64,
                        "time": 361.2369959999999,
                        "value": 0
                    },
                    {
                        "number": 64,
                        "time": 361.41483099374994,
                        "value": 1
                    },
                    {
                        "number": 64,
                        "time": 364.3735929187499,
                        "value": 0
                    },
                    {
                        "number": 64,
                        "time": 364.59524233124995,
                        "value": 1
                    },
                    {
                        "number": 64,
                        "time": 364.98699478124996,
                        "value": 0
                    },
                    {
                        "number": 64,
                        "time": 365.14163390625,
                        "value": 1
                    },
                    {
                        "number": 64,
                        "time": 365.61070591875,
                        "value": 0
                    },
                    {
                        "number": 64,
                        "time": 365.804004825,
                        "value": 1
                    },
                    {
                        "number": 64,
                        "time": 366.185448,
                        "value": 0
                    },
                    {
                        "number": 64,
                        "time": 366.40709741250004,
                        "value": 1
                    },
                    {
                        "number": 64,
                        "time": 369.93802410000006,
                        "value": 0
                    },
                    {
                        "number": 64,
                        "time": 370.16225083125005,
                        "value": 1
                    },
                    {
                        "number": 64,
                        "time": 371.13390000000004,
                        "value": 0
                    },
                    {
                        "number": 64,
                        "time": 371.31173499375006,
                        "value": 1
                    },
                    {
                        "number": 64,
                        "time": 374.88647610000004,
                        "value": 0
                    },
                    {
                        "number": 64,
                        "time": 375.0668884125,
                        "value": 1
                    },
                    {
                        "number": 64,
                        "time": 375.50245528125004,
                        "value": 0
                    },
                    {
                        "number": 64,
                        "time": 375.68544491250003,
                        "value": 1
                    },
                    {
                        "number": 64,
                        "time": 376.082352,
                        "value": 0
                    },
                    {
                        "number": 64,
                        "time": 376.082352,
                        "value": 0
                    },
                    {
                        "number": 64,
                        "time": 376.30400141250004,
                        "value": 1
                    },
                    {
                        "number": 64,
                        "time": 379.84523737500007,
                        "value": 0
                    },
                    {
                        "number": 64,
                        "time": 380.10296925000006,
                        "value": 1
                    },
                    {
                        "number": 64,
                        "time": 381.03080400000005,
                        "value": 0
                    },
                    {
                        "number": 64,
                        "time": 381.03080400000005,
                        "value": 0
                    },
                    {
                        "number": 64,
                        "time": 381.2524534125001,
                        "value": 1
                    },
                    {
                        "number": 64,
                        "time": 384.1622462812501,
                        "value": 0
                    },
                    {
                        "number": 64,
                        "time": 384.4483286625001,
                        "value": 1
                    },
                    {
                        "number": 64,
                        "time": 384.7808027812501,
                        "value": 0
                    },
                    {
                        "number": 64,
                        "time": 384.9483285000001,
                        "value": 1
                    },
                    {
                        "number": 64,
                        "time": 385.3761634125001,
                        "value": 0
                    },
                    {
                        "number": 64,
                        "time": 385.5385344937501,
                        "value": 1
                    },
                    {
                        "number": 64,
                        "time": 385.9792560000001,
                        "value": 0
                    },
                    {
                        "number": 64,
                        "time": 385.9792560000001,
                        "value": 0
                    },
                    {
                        "number": 64,
                        "time": 386.2009054125001,
                        "value": 1
                    },
                    {
                        "number": 64,
                        "time": 388.5875025750001,
                        "value": 0
                    },
                    {
                        "number": 64,
                        "time": 388.82203858125007,
                        "value": 1
                    },
                    {
                        "number": 64,
                        "time": 389.72925478125006,
                        "value": 0
                    },
                    {
                        "number": 64,
                        "time": 389.8967805000001,
                        "value": 1
                    },
                    {
                        "number": 64,
                        "time": 390.9277080000001,
                        "value": 0
                    },
                    {
                        "number": 64,
                        "time": 390.9277080000001,
                        "value": 0
                    },
                    {
                        "number": 64,
                        "time": 391.14935741250014,
                        "value": 1
                    },
                    {
                        "number": 64,
                        "time": 395.87616000000014,
                        "value": 0
                    },
                    {
                        "number": 64,
                        "time": 395.87616000000014,
                        "value": 0
                    },
                    {
                        "number": 64,
                        "time": 396.09780941250017,
                        "value": 1
                    },
                    {
                        "number": 64,
                        "time": 398.37873650625016,
                        "value": 0
                    },
                    {
                        "number": 64,
                        "time": 398.63646838125015,
                        "value": 1
                    },
                    {
                        "number": 64,
                        "time": 398.99471568750016,
                        "value": 0
                    },
                    {
                        "number": 64,
                        "time": 399.1931692312502,
                        "value": 1
                    },
                    {
                        "number": 64,
                        "time": 399.6364680562502,
                        "value": 0
                    },
                    {
                        "number": 64,
                        "time": 399.8838906562502,
                        "value": 1
                    },
                    {
                        "number": 64,
                        "time": 400.2318286875002,
                        "value": 0
                    },
                    {
                        "number": 64,
                        "time": 400.4045090437502,
                        "value": 1
                    },
                    {
                        "number": 64,
                        "time": 400.8246120000002,
                        "value": 0
                    },
                    {
                        "number": 64,
                        "time": 400.8297666375002,
                        "value": 0
                    },
                    {
                        "number": 64,
                        "time": 401.0462614125002,
                        "value": 1
                    },
                    {
                        "number": 64,
                        "time": 405.7730640000002,
                        "value": 0
                    },
                    {
                        "number": 64,
                        "time": 405.77821863750023,
                        "value": 0
                    },
                    {
                        "number": 64,
                        "time": 405.99471341250023,
                        "value": 1
                    },
                    {
                        "number": 64,
                        "time": 408.27821782500024,
                        "value": 0
                    },
                    {
                        "number": 64,
                        "time": 408.5127538312502,
                        "value": 1
                    },
                    {
                        "number": 64,
                        "time": 410.72151600000024,
                        "value": 0
                    },
                    {
                        "number": 64,
                        "time": 410.94316541250026,
                        "value": 1
                    },
                    {
                        "number": 64,
                        "time": 414.48955601250026,
                        "value": 0
                    },
                    {
                        "number": 64,
                        "time": 414.71378274375024,
                        "value": 1
                    },
                    {
                        "number": 64,
                        "time": 415.66996800000027,
                        "value": 0
                    },
                    {
                        "number": 64,
                        "time": 415.8478029937503,
                        "value": 1
                    },
                    {
                        "number": 64,
                        "time": 418.7704824562503,
                        "value": 0
                    },
                    {
                        "number": 64,
                        "time": 419.01275041875033,
                        "value": 1
                    },
                    {
                        "number": 64,
                        "time": 419.4225441000003,
                        "value": 0
                    },
                    {
                        "number": 64,
                        "time": 419.70604916250034,
                        "value": 1
                    },
                    {
                        "number": 64,
                        "time": 420.0153274125003,
                        "value": 0
                    },
                    {
                        "number": 64,
                        "time": 420.2807912437503,
                        "value": 1
                    },
                    {
                        "number": 64,
                        "time": 420.6184200000003,
                        "value": 0
                    },
                    {
                        "number": 64,
                        "time": 420.8400694125003,
                        "value": 1
                    },
                    {
                        "number": 64,
                        "time": 424.37099610000035,
                        "value": 0
                    },
                    {
                        "number": 64,
                        "time": 424.6029547875004,
                        "value": 1
                    },
                    {
                        "number": 64,
                        "time": 425.5668720000004,
                        "value": 0
                    },
                    {
                        "number": 64,
                        "time": 425.7447069937504,
                        "value": 1
                    },
                    {
                        "number": 64,
                        "time": 429.3091388250004,
                        "value": 0
                    },
                    {
                        "number": 64,
                        "time": 429.5153243250004,
                        "value": 1
                    },
                    {
                        "number": 64,
                        "time": 429.9354272812504,
                        "value": 0
                    },
                    {
                        "number": 64,
                        "time": 430.1776952437504,
                        "value": 1
                    },
                    {
                        "number": 64,
                        "time": 430.5153240000004,
                        "value": 0
                    },
                    {
                        "number": 64,
                        "time": 430.5153240000004,
                        "value": 0
                    },
                    {
                        "number": 64,
                        "time": 430.73697341250045,
                        "value": 1
                    },
                    {
                        "number": 64,
                        "time": 434.27563205625046,
                        "value": 0
                    },
                    {
                        "number": 64,
                        "time": 434.57975566875047,
                        "value": 1
                    },
                    {
                        "number": 64,
                        "time": 434.87099268750046,
                        "value": 0
                    },
                    {
                        "number": 64,
                        "time": 435.09521941875045,
                        "value": 1
                    },
                    {
                        "number": 64,
                        "time": 435.46377600000045,
                        "value": 0
                    },
                    {
                        "number": 64,
                        "time": 435.6416109937505,
                        "value": 1
                    },
                    {
                        "number": 64,
                        "time": 438.5977956000005,
                        "value": 0
                    },
                    {
                        "number": 64,
                        "time": 438.7627440000005,
                        "value": 1
                    },
                    {
                        "number": 64,
                        "time": 439.2086201437505,
                        "value": 0
                    },
                    {
                        "number": 64,
                        "time": 439.32202216875055,
                        "value": 1
                    },
                    {
                        "number": 64,
                        "time": 439.81944468750055,
                        "value": 0
                    },
                    {
                        "number": 64,
                        "time": 440.01532091250056,
                        "value": 1
                    },
                    {
                        "number": 64,
                        "time": 440.41222800000054,
                        "value": 0
                    },
                    {
                        "number": 64,
                        "time": 440.63387741250057,
                        "value": 1
                    },
                    {
                        "number": 64,
                        "time": 444.15449482500054,
                        "value": 0
                    },
                    {
                        "number": 64,
                        "time": 444.37356691875056,
                        "value": 1
                    },
                    {
                        "number": 64,
                        "time": 445.36068000000057,
                        "value": 0
                    },
                    {
                        "number": 64,
                        "time": 445.5385149937506,
                        "value": 1
                    },
                    {
                        "number": 64,
                        "time": 449.1235653750006,
                        "value": 0
                    },
                    {
                        "number": 64,
                        "time": 449.4122250750006,
                        "value": 1
                    },
                    {
                        "number": 64,
                        "time": 449.7215033250006,
                        "value": 0
                    },
                    {
                        "number": 64,
                        "time": 449.9276888250006,
                        "value": 1
                    },
                    {
                        "number": 64,
                        "time": 450.3091320000006,
                        "value": 0
                    },
                    {
                        "number": 64,
                        "time": 450.3091320000006,
                        "value": 0
                    },
                    {
                        "number": 64,
                        "time": 450.53078141250063,
                        "value": 1
                    },
                    {
                        "number": 64,
                        "time": 453.4611928312506,
                        "value": 0
                    },
                    {
                        "number": 64,
                        "time": 453.63902782500065,
                        "value": 1
                    },
                    {
                        "number": 64,
                        "time": 454.06170810000066,
                        "value": 0
                    },
                    {
                        "number": 64,
                        "time": 454.21376990625066,
                        "value": 1
                    },
                    {
                        "number": 64,
                        "time": 455.25758400000063,
                        "value": 0
                    },
                    {
                        "number": 64,
                        "time": 455.25758400000063,
                        "value": 0
                    },
                    {
                        "number": 64,
                        "time": 455.47923341250066,
                        "value": 1
                    },
                    {
                        "number": 64,
                        "time": 458.39933555625066,
                        "value": 0
                    },
                    {
                        "number": 64,
                        "time": 458.55655200000064,
                        "value": 1
                    },
                    {
                        "number": 64,
                        "time": 459.0178920562506,
                        "value": 0
                    },
                    {
                        "number": 64,
                        "time": 459.08747966250064,
                        "value": 1
                    },
                    {
                        "number": 64,
                        "time": 459.5926341375006,
                        "value": 0
                    },
                    {
                        "number": 64,
                        "time": 459.73438666875063,
                        "value": 1
                    },
                    {
                        "number": 64,
                        "time": 460.2060360000006,
                        "value": 0
                    },
                    {
                        "number": 64,
                        "time": 460.2060360000006,
                        "value": 0
                    },
                    {
                        "number": 64,
                        "time": 460.42768541250064,
                        "value": 1
                    },
                    {
                        "number": 64,
                        "time": 462.7292310562506,
                        "value": 0
                    },
                    {
                        "number": 64,
                        "time": 462.91737532500065,
                        "value": 1
                    },
                    {
                        "number": 64,
                        "time": 463.9611894187506,
                        "value": 0
                    },
                    {
                        "number": 64,
                        "time": 464.1235605000006,
                        "value": 1
                    },
                    {
                        "number": 64,
                        "time": 465.15448800000064,
                        "value": 0
                    },
                    {
                        "number": 64,
                        "time": 465.15448800000064,
                        "value": 0
                    },
                    {
                        "number": 64,
                        "time": 465.37613741250067,
                        "value": 1
                    },
                    {
                        "number": 64,
                        "time": 470.1029400000007,
                        "value": 0
                    },
                    {
                        "number": 64,
                        "time": 470.1029400000007,
                        "value": 0
                    },
                    {
                        "number": 64,
                        "time": 470.3245894125007,
                        "value": 1
                    },
                    {
                        "number": 64,
                        "time": 472.6055165062507,
                        "value": 0
                    },
                    {
                        "number": 64,
                        "time": 472.8632483812507,
                        "value": 1
                    },
                    {
                        "number": 64,
                        "time": 473.2343822812507,
                        "value": 0
                    },
                    {
                        "number": 64,
                        "time": 473.4431451000007,
                        "value": 1
                    },
                    {
                        "number": 64,
                        "time": 473.8529387812507,
                        "value": 0
                    },
                    {
                        "number": 64,
                        "time": 473.9637634875007,
                        "value": 1
                    },
                    {
                        "number": 64,
                        "time": 474.47407260000074,
                        "value": 0
                    },
                    {
                        "number": 64,
                        "time": 474.5565468000007,
                        "value": 1
                    },
                    {
                        "number": 64,
                        "time": 475.0513920000007,
                        "value": 0
                    },
                    {
                        "number": 64,
                        "time": 475.05654663750073,
                        "value": 0
                    },
                    {
                        "number": 64,
                        "time": 475.27304141250073,
                        "value": 1
                    },
                    {
                        "number": 64,
                        "time": 479.99984400000073,
                        "value": 0
                    },
                    {
                        "number": 64,
                        "time": 480.00499863750076,
                        "value": 0
                    },
                    {
                        "number": 64,
                        "time": 480.22149341250076,
                        "value": 1
                    },
                    {
                        "number": 64,
                        "time": 483.13644091875074,
                        "value": 0
                    },
                    {
                        "number": 64,
                        "time": 483.34262641875074,
                        "value": 1
                    },
                    {
                        "number": 64,
                        "time": 484.94829600000077,
                        "value": 0
                    },
                    {
                        "number": 64,
                        "time": 485.29365671250076,
                        "value": 1
                    },
                    {
                        "number": 64,
                        "time": 488.0771609625008,
                        "value": 0
                    },
                    {
                        "number": 64,
                        "time": 488.3683979812508,
                        "value": 1
                    },
                    {
                        "number": 64,
                        "time": 489.9147892312508,
                        "value": 0
                    },
                    {
                        "number": 64,
                        "time": 490.1467479187508,
                        "value": 1
                    },
                    {
                        "number": 64,
                        "time": 493.0204583250008,
                        "value": 0
                    },
                    {
                        "number": 64,
                        "time": 493.1828294062508,
                        "value": 1
                    },
                    {
                        "number": 64,
                        "time": 494.8452000000008,
                        "value": 0
                    },
                    {
                        "number": 64,
                        "time": 495.19056071250077,
                        "value": 1
                    },
                    {
                        "number": 64,
                        "time": 497.9637556875008,
                        "value": 0
                    },
                    {
                        "number": 64,
                        "time": 498.2472607500008,
                        "value": 1
                    },
                    {
                        "number": 64,
                        "time": 499.8116932312508,
                        "value": 0
                    },
                    {
                        "number": 64,
                        "time": 500.0436519187508,
                        "value": 1
                    },
                    {
                        "number": 64,
                        "time": 504.74210400000084,
                        "value": 0
                    },
                    {
                        "number": 64,
                        "time": 505.08746471250083,
                        "value": 1
                    },
                    {
                        "number": 64,
                        "time": 507.24983514375083,
                        "value": 0
                    },
                    {
                        "number": 64,
                        "time": 507.50241238125085,
                        "value": 1
                    },
                    {
                        "number": 64,
                        "time": 509.69055600000087,
                        "value": 0
                    },
                    {
                        "number": 64,
                        "time": 510.03591671250086,
                        "value": 1
                    },
                    {
                        "number": 64,
                        "time": 512.1982871437509,
                        "value": 0
                    },
                    {
                        "number": 64,
                        "time": 512.4508643812509,
                        "value": 1
                    },
                    {
                        "number": 64,
                        "time": 514.6390080000009,
                        "value": 0
                    },
                    {
                        "number": 64,
                        "time": 514.9843687125009,
                        "value": 1
                    },
                    {
                        "number": 64,
                        "time": 518.3838521437509,
                        "value": 0
                    },
                    {
                        "number": 64,
                        "time": 518.6596252500009,
                        "value": 1
                    },
                    {
                        "number": 64,
                        "time": 519.5874600000009,
                        "value": 0
                    },
                    {
                        "number": 64,
                        "time": 519.5926146375009,
                        "value": 0
                    },
                    {
                        "number": 64,
                        "time": 519.8091094125009,
                        "value": 1
                    },
                    {
                        "number": 64,
                        "time": 522.6982837312509,
                        "value": 0
                    },
                    {
                        "number": 64,
                        "time": 522.9714795187508,
                        "value": 1
                    },
                    {
                        "number": 64,
                        "time": 524.5359120000008,
                        "value": 0
                    },
                    {
                        "number": 64,
                        "time": 524.8812727125008,
                        "value": 1
                    },
                    {
                        "number": 64,
                        "time": 527.6725089187509,
                        "value": 0
                    },
                    {
                        "number": 64,
                        "time": 527.9018902875008,
                        "value": 1
                    },
                    {
                        "number": 64,
                        "time": 529.4843640000008,
                        "value": 0
                    },
                    {
                        "number": 64,
                        "time": 529.8297247125008,
                        "value": 1
                    },
                    {
                        "number": 64,
                        "time": 531.9843631875008,
                        "value": 0
                    },
                    {
                        "number": 64,
                        "time": 532.2317857875008,
                        "value": 1
                    },
                    {
                        "number": 64,
                        "time": 534.4328160000008,
                        "value": 0
                    },
                    {
                        "number": 64,
                        "time": 534.7781767125008,
                        "value": 1
                    },
                    {
                        "number": 64,
                        "time": 539.3812680000008,
                        "value": 0
                    },
                    {
                        "number": 64,
                        "time": 539.7266287125008,
                        "value": 1
                    },
                    {
                        "number": 64,
                        "time": 544.3297200000007,
                        "value": 0
                    },
                    {
                        "number": 64,
                        "time": 544.6750807125007,
                        "value": 1
                    },
                    {
                        "number": 64,
                        "time": 546.8322965062507,
                        "value": 0
                    },
                    {
                        "number": 64,
                        "time": 547.0848737437507,
                        "value": 1
                    },
                    {
                        "number": 64,
                        "time": 549.3065225062506,
                        "value": 0
                    },
                    {
                        "number": 64,
                        "time": 549.5590997437506,
                        "value": 1
                    },
                    {
                        "number": 64,
                        "time": 552.9972429562506,
                        "value": 0
                    },
                    {
                        "number": 64,
                        "time": 553.2085830937506,
                        "value": 1
                    },
                    {
                        "number": 64,
                        "time": 554.2266240000006,
                        "value": 0
                    },
                    {
                        "number": 64,
                        "time": 554.4044589937506,
                        "value": 1
                    },
                    {
                        "number": 64,
                        "time": 557.3451796875006,
                        "value": 0
                    },
                    {
                        "number": 64,
                        "time": 557.5745610562506,
                        "value": 1
                    },
                    {
                        "number": 64,
                        "time": 557.9817774187505,
                        "value": 0
                    },
                    {
                        "number": 64,
                        "time": 558.2472412500006,
                        "value": 1
                    },
                    {
                        "number": 64,
                        "time": 558.5822926875006,
                        "value": 0
                    },
                    {
                        "number": 64,
                        "time": 558.7755915937506,
                        "value": 1
                    },
                    {
                        "number": 64,
                        "time": 559.1750760000007,
                        "value": 0
                    },
                    {
                        "number": 64,
                        "time": 559.3967254125007,
                        "value": 1
                    },
                    {
                        "number": 64,
                        "time": 562.9328067375008,
                        "value": 0
                    },
                    {
                        "number": 64,
                        "time": 563.1776520187508,
                        "value": 1
                    },
                    {
                        "number": 64,
                        "time": 564.1235280000008,
                        "value": 0
                    },
                    {
                        "number": 64,
                        "time": 564.3013629937508,
                        "value": 1
                    },
                    {
                        "number": 64,
                        "time": 567.8761041000008,
                        "value": 0
                    },
                    {
                        "number": 64,
                        "time": 568.1080627875008,
                        "value": 1
                    },
                    {
                        "number": 64,
                        "time": 569.0719800000007,
                        "value": 0
                    },
                    {
                        "number": 64,
                        "time": 569.0719800000007,
                        "value": 0
                    },
                    {
                        "number": 64,
                        "time": 569.2936294125008,
                        "value": 1
                    },
                    {
                        "number": 64,
                        "time": 572.8245561000008,
                        "value": 0
                    },
                    {
                        "number": 64,
                        "time": 573.0384735562508,
                        "value": 1
                    },
                    {
                        "number": 64,
                        "time": 574.0204320000008,
                        "value": 0
                    },
                    {
                        "number": 64,
                        "time": 574.1982669937508,
                        "value": 1
                    },
                    {
                        "number": 64,
                        "time": 577.1596062375008,
                        "value": 0
                    },
                    {
                        "number": 64,
                        "time": 577.3683690562508,
                        "value": 1
                    },
                    {
                        "number": 64,
                        "time": 577.7575441875008,
                        "value": 0
                    },
                    {
                        "number": 64,
                        "time": 577.9328018625008,
                        "value": 1
                    },
                    {
                        "number": 64,
                        "time": 578.9688840000008,
                        "value": 0
                    },
                    {
                        "number": 64,
                        "time": 579.1905334125008,
                        "value": 1
                    },
                    {
                        "number": 64,
                        "time": 582.1080582375008,
                        "value": 0
                    },
                    {
                        "number": 64,
                        "time": 582.2807385937508,
                        "value": 1
                    },
                    {
                        "number": 64,
                        "time": 582.7266147375008,
                        "value": 0
                    },
                    {
                        "number": 64,
                        "time": 582.9534187875008,
                        "value": 1
                    },
                    {
                        "number": 64,
                        "time": 583.9173360000008,
                        "value": 0
                    },
                    {
                        "number": 64,
                        "time": 584.0951709937508,
                        "value": 1
                    },
                    {
                        "number": 64,
                        "time": 587.0178504562508,
                        "value": 0
                    },
                    {
                        "number": 64,
                        "time": 587.2111493625008,
                        "value": 1
                    },
                    {
                        "number": 64,
                        "time": 587.6467162312508,
                        "value": 0
                    },
                    {
                        "number": 64,
                        "time": 587.9199120187508,
                        "value": 1
                    },
                    {
                        "number": 64,
                        "time": 588.2549634562508,
                        "value": 0
                    },
                    {
                        "number": 64,
                        "time": 588.4482623625008,
                        "value": 1
                    },
                    {
                        "number": 64,
                        "time": 588.8657880000009,
                        "value": 0
                    },
                    {
                        "number": 64,
                        "time": 589.0771281375008,
                        "value": 1
                    },
                    {
                        "number": 64,
                        "time": 592.6132094625009,
                        "value": 0
                    },
                    {
                        "number": 64,
                        "time": 592.9224877125009,
                        "value": 1
                    },
                    {
                        "number": 64,
                        "time": 593.814240000001,
                        "value": 0
                    },
                    {
                        "number": 64,
                        "time": 593.992074993751,
                        "value": 1
                    },
                    {
                        "number": 64,
                        "time": 596.950836918751,
                        "value": 0
                    },
                    {
                        "number": 64,
                        "time": 597.090012131251,
                        "value": 1
                    },
                    {
                        "number": 64,
                        "time": 597.574548056251,
                        "value": 0
                    },
                    {
                        "number": 64,
                        "time": 597.834857250001,
                        "value": 1
                    },
                    {
                        "number": 64,
                        "time": 598.1879499187511,
                        "value": 0
                    },
                    {
                        "number": 64,
                        "time": 598.3992900562511,
                        "value": 1
                    },
                    {
                        "number": 64,
                        "time": 598.762692000001,
                        "value": 0
                    },
                    {
                        "number": 64,
                        "time": 598.9843414125011,
                        "value": 1
                    },
                    {
                        "number": 64,
                        "time": 601.8632064562511,
                        "value": 0
                    },
                    {
                        "number": 64,
                        "time": 602.1106290562511,
                        "value": 1
                    },
                    {
                        "number": 64,
                        "time": 602.4946495500011,
                        "value": 0
                    },
                    {
                        "number": 64,
                        "time": 602.7111443250011,
                        "value": 1
                    },
                    {
                        "number": 64,
                        "time": 603.1106287312512,
                        "value": 0
                    },
                    {
                        "number": 64,
                        "time": 603.4018657500012,
                        "value": 1
                    },
                    {
                        "number": 64,
                        "time": 603.7111440000012,
                        "value": 0
                    },
                    {
                        "number": 64,
                        "time": 603.8889789937513,
                        "value": 1
                    },
                    {
                        "number": 64,
                        "time": 606.8116584562513,
                        "value": 0
                    },
                    {
                        "number": 64,
                        "time": 606.9869161312513,
                        "value": 1
                    },
                    {
                        "number": 64,
                        "time": 607.4714520562513,
                        "value": 0
                    },
                    {
                        "number": 64,
                        "time": 607.5693901687513,
                        "value": 1
                    },
                    {
                        "number": 64,
                        "time": 608.0771219625013,
                        "value": 0
                    },
                    {
                        "number": 64,
                        "time": 608.2961940562514,
                        "value": 1
                    },
                    {
                        "number": 64,
                        "time": 608.6595960000013,
                        "value": 0
                    },
                    {
                        "number": 64,
                        "time": 608.8374309937514,
                        "value": 1
                    },
                    {
                        "number": 64,
                        "time": 611.7858836437514,
                        "value": 0
                    },
                    {
                        "number": 64,
                        "time": 611.9714505937513,
                        "value": 1
                    },
                    {
                        "number": 64,
                        "time": 612.4070174625014,
                        "value": 0
                    },
                    {
                        "number": 64,
                        "time": 612.5178421687514,
                        "value": 1
                    },
                    {
                        "number": 64,
                        "time": 613.0333059187514,
                        "value": 0
                    },
                    {
                        "number": 64,
                        "time": 613.3168109812514,
                        "value": 1
                    },
                    {
                        "number": 64,
                        "time": 613.6080480000014,
                        "value": 0
                    },
                    {
                        "number": 64,
                        "time": 613.7858829937514,
                        "value": 1
                    },
                    {
                        "number": 64,
                        "time": 616.7394902812514,
                        "value": 0
                    },
                    {
                        "number": 64,
                        "time": 616.9199025937514,
                        "value": 1
                    },
                    {
                        "number": 64,
                        "time": 617.3425828687514,
                        "value": 0
                    },
                    {
                        "number": 64,
                        "time": 617.4843354000013,
                        "value": 1
                    },
                    {
                        "number": 64,
                        "time": 617.9559847312513,
                        "value": 0
                    },
                    {
                        "number": 64,
                        "time": 618.1570155937513,
                        "value": 1
                    },
                    {
                        "number": 64,
                        "time": 618.5565000000014,
                        "value": 0
                    },
                    {
                        "number": 64,
                        "time": 618.7343349937514,
                        "value": 1
                    },
                    {
                        "number": 64,
                        "time": 628.4534040000015,
                        "value": 0
                    },
                    {
                        "number": 64,
                        "time": 628.7626822500015,
                        "value": 1
                    },
                    {
                        "number": 64,
                        "time": 638.3838131437515,
                        "value": 0
                    },
                    {
                        "number": 64,
                        "time": 638.7317511750015,
                        "value": 1
                    },
                    {
                        "number": 64,
                        "time": 640.8451525500014,
                        "value": 0
                    },
                    {
                        "number": 64,
                        "time": 641.0899978312515,
                        "value": 1
                    },
                    {
                        "number": 64,
                        "time": 642.0874201875015,
                        "value": 0
                    },
                    {
                        "number": 64,
                        "time": 642.2987603250015,
                        "value": 1
                    },
                    {
                        "number": 64,
                        "time": 643.2987600000015,
                        "value": 0
                    },
                    {
                        "number": 64,
                        "time": 643.6518526687515,
                        "value": 1
                    },
                    {
                        "number": 64,
                        "time": 644.5693781437516,
                        "value": 0
                    },
                    {
                        "number": 64,
                        "time": 644.9482440000015,
                        "value": 1
                    },
                    {
                        "number": 64,
                        "time": 645.8064911437515,
                        "value": 0
                    },
                    {
                        "number": 64,
                        "time": 646.1415425812515,
                        "value": 1
                    },
                    {
                        "number": 64,
                        "time": 647.0487587812515,
                        "value": 0
                    },
                    {
                        "number": 64,
                        "time": 647.3941194937515,
                        "value": 1
                    },
                    {
                        "number": 64,
                        "time": 648.3374181562515,
                        "value": 0
                    },
                    {
                        "number": 64,
                        "time": 648.5436036562514,
                        "value": 1
                    },
                    {
                        "number": 64,
                        "time": 649.5178301437514,
                        "value": 0
                    },
                    {
                        "number": 64,
                        "time": 649.7497888312514,
                        "value": 1
                    },
                    {
                        "number": 64,
                        "time": 650.7600977812514,
                        "value": 0
                    },
                    {
                        "number": 64,
                        "time": 651.0023657437514,
                        "value": 1
                    },
                    {
                        "number": 64,
                        "time": 651.9920561437514,
                        "value": 0
                    },
                    {
                        "number": 64,
                        "time": 652.3116436687513,
                        "value": 1
                    },
                    {
                        "number": 64,
                        "time": 653.2085505937514,
                        "value": 0
                    },
                    {
                        "number": 64,
                        "time": 653.3503031250013,
                        "value": 1
                    },
                    {
                        "number": 64,
                        "time": 653.7085504312513,
                        "value": 0
                    },
                    {
                        "number": 64,
                        "time": 654.5229831562513,
                        "value": 1
                    },
                    {
                        "number": 64,
                        "time": 655.0100964000012,
                        "value": 0
                    },
                    {
                        "number": 64,
                        "time": 658.1441160000012,
                        "value": 1
                    },
                    {
                        "number": 64,
                        "time": 660.6363832312512,
                        "value": 0
                    },
                    {
                        "number": 64,
                        "time": 660.9276202500013,
                        "value": 1
                    },
                    {
                        "number": 64,
                        "time": 663.0925680000013,
                        "value": 0
                    },
                    {
                        "number": 64,
                        "time": 665.7600929062513,
                        "value": 1
                    },
                    {
                        "number": 64,
                        "time": 666.1982370937513,
                        "value": 0
                    },
                    {
                        "number": 64,
                        "time": 668.2497828187513,
                        "value": 1
                    },
                    {
                        "number": 64,
                        "time": 670.5332872312513,
                        "value": 0
                    },
                    {
                        "number": 64,
                        "time": 670.7343180937513,
                        "value": 1
                    },
                    {
                        "number": 64,
                        "time": 671.7884414625013,
                        "value": 0
                    },
                    {
                        "number": 64,
                        "time": 672.0435960187513,
                        "value": 1
                    },
                    {
                        "number": 64,
                        "time": 673.0152451875013,
                        "value": 0
                    },
                    {
                        "number": 64,
                        "time": 673.1750389500013,
                        "value": 1
                    },
                    {
                        "number": 64,
                        "time": 674.2575128250013,
                        "value": 0
                    },
                    {
                        "number": 64,
                        "time": 674.5152447000013,
                        "value": 1
                    },
                    {
                        "number": 64,
                        "time": 675.4894711875013,
                        "value": 0
                    },
                    {
                        "number": 64,
                        "time": 675.6492649500013,
                        "value": 1
                    },
                    {
                        "number": 64,
                        "time": 676.7368934625014,
                        "value": 0
                    },
                    {
                        "number": 64,
                        "time": 676.8863779500014,
                        "value": 1
                    },
                    {
                        "number": 64,
                        "time": 677.9559652312514,
                        "value": 0
                    },
                    {
                        "number": 64,
                        "time": 678.1879239187514,
                        "value": 1
                    },
                    {
                        "number": 64,
                        "time": 679.2085421437514,
                        "value": 0
                    },
                    {
                        "number": 64,
                        "time": 679.4843152500014,
                        "value": 1
                    },
                    {
                        "number": 64,
                        "time": 680.4482324625013,
                        "value": 0
                    },
                    {
                        "number": 64,
                        "time": 680.7085416562513,
                        "value": 1
                    },
                    {
                        "number": 64,
                        "time": 681.6853454625013,
                        "value": 0
                    },
                    {
                        "number": 64,
                        "time": 681.9147268312513,
                        "value": 1
                    },
                    {
                        "number": 64,
                        "time": 682.8863760000013,
                        "value": 0
                    },
                    {
                        "number": 64,
                        "time": 683.0667883125013,
                        "value": 1
                    },
                    {
                        "number": 64,
                        "time": 683.4636954000014,
                        "value": 0
                    },
                    {
                        "number": 64,
                        "time": 684.2214271125014,
                        "value": 1
                    },
                    {
                        "number": 64,
                        "time": 684.7497774562514,
                        "value": 0
                    },
                    {
                        "number": 64,
                        "time": 687.9276114750014,
                        "value": 1
                    },
                    {
                        "number": 64,
                        "time": 690.3477137812514,
                        "value": 0
                    },
                    {
                        "number": 64,
                        "time": 690.6363734812514,
                        "value": 1
                    },
                    {
                        "number": 64,
                        "time": 691.5745175062515,
                        "value": 0
                    },
                    {
                        "number": 64,
                        "time": 691.7111154000015,
                        "value": 1
                    },
                    {
                        "number": 64,
                        "time": 692.7935892750015,
                        "value": 0
                    },
                    {
                        "number": 64,
                        "time": 692.9740015875016,
                        "value": 1
                    },
                    {
                        "number": 64,
                        "time": 695.2729699125016,
                        "value": 0
                    },
                    {
                        "number": 64,
                        "time": 695.4044131687516,
                        "value": 1
                    },
                    {
                        "number": 64,
                        "time": 695.7858563437516,
                        "value": 0
                    },
                    {
                        "number": 64,
                        "time": 696.6750313125016,
                        "value": 1
                    },
                    {
                        "number": 64,
                        "time": 697.1415260062515,
                        "value": 0
                    },
                    {
                        "number": 64,
                        "time": 697.8683298937515,
                        "value": 1
                    },
                    {
                        "number": 64,
                        "time": 698.1595669125015,
                        "value": 0
                    },
                    {
                        "number": 64,
                        "time": 698.4044121937516,
                        "value": 1
                    },
                    {
                        "number": 64,
                        "time": 700.2214219125016,
                        "value": 0
                    },
                    {
                        "number": 64,
                        "time": 700.8786381937516,
                        "value": 0
                    },
                    {
                        "number": 64,
                        "time": 701.6904936000016,
                        "value": 1
                    },
                    {
                        "number": 64,
                        "time": 702.6801840000015,
                        "value": 0
                    },
                    {
                        "number": 64,
                        "time": 703.9379155500015,
                        "value": 0
                    },
                    {
                        "number": 64,
                        "time": 704.1234825000015,
                        "value": 1
                    },
                    {
                        "number": 64,
                        "time": 705.3167810812515,
                        "value": 0
                    },
                    {
                        "number": 64,
                        "time": 705.5229665812515,
                        "value": 1
                    },
                    {
                        "number": 64,
                        "time": 706.4404920562515,
                        "value": 0
                    },
                    {
                        "number": 64,
                        "time": 708.0126564937515,
                        "value": 1
                    },
                    {
                        "number": 64,
                        "time": 710.1286351875015,
                        "value": 0
                    },
                    {
                        "number": 64,
                        "time": 710.4121402500015,
                        "value": 1
                    },
                    {
                        "number": 64,
                        "time": 710.7214185000015,
                        "value": 0
                    },
                    {
                        "number": 64,
                        "time": 712.8734796562516,
                        "value": 1
                    },
                    {
                        "number": 64,
                        "time": 713.2343042812515,
                        "value": 0
                    },
                    {
                        "number": 64,
                        "time": 714.1105926562515,
                        "value": 1
                    },
                    {
                        "number": 64,
                        "time": 714.4611080062515,
                        "value": 0
                    },
                    {
                        "number": 64,
                        "time": 715.2884273250015,
                        "value": 1
                    },
                    {
                        "number": 64,
                        "time": 715.7136849187515,
                        "value": 0
                    },
                    {
                        "number": 64,
                        "time": 716.5693547437514,
                        "value": 1
                    },
                    {
                        "number": 64,
                        "time": 717.5616224625014,
                        "value": 0
                    },
                    {
                        "number": 64,
                        "time": 718.1982201937515,
                        "value": 1
                    },
                    {
                        "number": 64,
                        "time": 720.0152299125015,
                        "value": 0
                    },
                    {
                        "number": 64,
                        "time": 721.2626521875014,
                        "value": 0
                    },
                    {
                        "number": 64,
                        "time": 721.4843016000015,
                        "value": 1
                    },
                    {
                        "number": 64,
                        "time": 722.4739920000014,
                        "value": 0
                    },
                    {
                        "number": 64,
                        "time": 722.6080125750015,
                        "value": 1
                    },
                    {
                        "number": 64,
                        "time": 723.0641979937515,
                        "value": 0
                    },
                    {
                        "number": 64,
                        "time": 723.7317235500014,
                        "value": 0
                    },
                    {
                        "number": 64,
                        "time": 723.9172905000014,
                        "value": 1
                    },
                    {
                        "number": 64,
                        "time": 725.1105890812514,
                        "value": 0
                    },
                    {
                        "number": 64,
                        "time": 725.3167745812514,
                        "value": 1
                    },
                    {
                        "number": 64,
                        "time": 726.2136815062514,
                        "value": 0
                    },
                    {
                        "number": 64,
                        "time": 727.4224440000014,
                        "value": 0
                    },
                    {
                        "number": 64,
                        "time": 727.6054336312515,
                        "value": 1
                    },
                    {
                        "number": 64,
                        "time": 728.0049180375015,
                        "value": 0
                    },
                    {
                        "number": 64,
                        "time": 728.7136806937515,
                        "value": 1
                    },
                    {
                        "number": 64,
                        "time": 729.9224431875015,
                        "value": 0
                    },
                    {
                        "number": 64,
                        "time": 730.2059482500015,
                        "value": 1
                    },
                    {
                        "number": 64,
                        "time": 730.5513089625015,
                        "value": 0
                    },
                    {
                        "number": 64,
                        "time": 731.3708963250015,
                        "value": 1
                    },
                    {
                        "number": 64,
                        "time": 731.8013085562515,
                        "value": 0
                    },
                    {
                        "number": 64,
                        "time": 732.6672876562515,
                        "value": 1
                    },
                    {
                        "number": 64,
                        "time": 733.0409988750015,
                        "value": 0
                    },
                    {
                        "number": 64,
                        "time": 733.7265656625015,
                        "value": 1
                    },
                    {
                        "number": 64,
                        "time": 734.2394520937514,
                        "value": 0
                    },
                    {
                        "number": 64,
                        "time": 734.9044003312514,
                        "value": 1
                    },
                    {
                        "number": 64,
                        "time": 735.4817197312514,
                        "value": 0
                    },
                    {
                        "number": 64,
                        "time": 736.1569772437514,
                        "value": 1
                    },
                    {
                        "number": 64,
                        "time": 736.7394512812514,
                        "value": 0
                    },
                    {
                        "number": 64,
                        "time": 737.9920281937514,
                        "value": 1
                    },
                    {
                        "number": 64,
                        "time": 739.8090379125014,
                        "value": 0
                    },
                    {
                        "number": 64,
                        "time": 739.9301718937513,
                        "value": 1
                    },
                    {
                        "number": 64,
                        "time": 740.4198624562513,
                        "value": 0
                    },
                    {
                        "number": 64,
                        "time": 741.2678003250013,
                        "value": 1
                    },
                    {
                        "number": 64,
                        "time": 742.2678000000013,
                        "value": 0
                    },
                    {
                        "number": 64,
                        "time": 742.5332638312514,
                        "value": 1
                    },
                    {
                        "number": 64,
                        "time": 742.8915111375013,
                        "value": 0
                    },
                    {
                        "number": 64,
                        "time": 744.7677991875013,
                        "value": 0
                    },
                    {
                        "number": 64,
                        "time": 745.0822320750012,
                        "value": 1
                    },
                    {
                        "number": 64,
                        "time": 745.3837783687512,
                        "value": 0
                    },
                    {
                        "number": 64,
                        "time": 747.2162520000012,
                        "value": 0
                    },
                    {
                        "number": 64,
                        "time": 747.8889321937512,
                        "value": 1
                    },
                    {
                        "number": 64,
                        "time": 749.7059419125012,
                        "value": 0
                    },
                    {
                        "number": 64,
                        "time": 749.8502717625012,
                        "value": 1
                    },
                    {
                        "number": 64,
                        "time": 750.3399623250011,
                        "value": 0
                    },
                    {
                        "number": 64,
                        "time": 751.1647043250011,
                        "value": 1
                    },
                    {
                        "number": 64,
                        "time": 752.1647040000012,
                        "value": 0
                    },
                    {
                        "number": 64,
                        "time": 752.4301678312512,
                        "value": 1
                    },
                    {
                        "number": 64,
                        "time": 752.7884151375011,
                        "value": 0
                    },
                    {
                        "number": 64,
                        "time": 754.6647031875011,
                        "value": 0
                    },
                    {
                        "number": 64,
                        "time": 757.1131560000011,
                        "value": 0
                    },
                    {
                        "number": 64,
                        "time": 757.7858361937512,
                        "value": 1
                    },
                    {
                        "number": 64,
                        "time": 759.6028459125012,
                        "value": 0
                    },
                    {
                        "number": 64,
                        "time": 759.7239798937511,
                        "value": 1
                    },
                    {
                        "number": 64,
                        "time": 760.2214024125011,
                        "value": 0
                    },
                    {
                        "number": 64,
                        "time": 761.0616083250011,
                        "value": 1
                    },
                    {
                        "number": 64,
                        "time": 762.0616080000011,
                        "value": 0
                    },
                    {
                        "number": 64,
                        "time": 762.3270718312511,
                        "value": 1
                    },
                    {
                        "number": 64,
                        "time": 763.2394426687512,
                        "value": 0
                    },
                    {
                        "number": 64,
                        "time": 764.6724318937512,
                        "value": 1
                    },
                    {
                        "number": 64,
                        "time": 765.8038748250012,
                        "value": 0
                    },
                    {
                        "number": 64,
                        "time": 765.9945964125012,
                        "value": 1
                    },
                    {
                        "number": 64,
                        "time": 767.0100600000012,
                        "value": 0
                    },
                    {
                        "number": 64,
                        "time": 767.2755238312512,
                        "value": 1
                    },
                    {
                        "number": 64,
                        "time": 768.2858327812512,
                        "value": 0
                    },
                    {
                        "number": 64,
                        "time": 769.6208838937512,
                        "value": 1
                    },
                    {
                        "number": 64,
                        "time": 770.7549041437512,
                        "value": 0
                    },
                    {
                        "number": 64,
                        "time": 770.9146979062513,
                        "value": 1
                    },
                    {
                        "number": 64,
                        "time": 771.9585120000013,
                        "value": 0
                    },
                    {
                        "number": 64,
                        "time": 772.6492334250013,
                        "value": 1
                    },
                    {
                        "number": 64,
                        "time": 774.4585111875012,
                        "value": 0
                    },
                    {
                        "number": 64,
                        "time": 775.1801604375013,
                        "value": 1
                    },
                    {
                        "number": 64,
                        "time": 776.9456237812512,
                        "value": 0
                    },
                    {
                        "number": 64,
                        "time": 777.1569639187512,
                        "value": 1
                    },
                    {
                        "number": 64,
                        "time": 778.2626336625012,
                        "value": 0
                    },
                    {
                        "number": 64,
                        "time": 782.2239725812512,
                        "value": 0
                    },
                    {
                        "number": 64,
                        "time": 784.4018069250012,
                        "value": 1
                    },
                    {
                        "number": 64,
                        "time": 784.9713943687512,
                        "value": 0
                    },
                    {
                        "number": 64,
                        "time": 790.0152071625013,
                        "value": 1
                    },
                    {
                        "number": 64,
                        "time": 791.7780931875013,
                        "value": 0
                    },
                    {
                        "number": 64,
                        "time": 794.2987109250013,
                        "value": 1
                    },
                    {
                        "number": 64,
                        "time": 794.8682983687513,
                        "value": 0
                    },
                    {
                        "number": 64,
                        "time": 799.9121111625013,
                        "value": 1
                    },
                    {
                        "number": 64,
                        "time": 801.6749971875013,
                        "value": 0
                    },
                    {
                        "number": 64,
                        "time": 804.1956149250012,
                        "value": 1
                    },
                    {
                        "number": 64,
                        "time": 804.7652023687513,
                        "value": 0
                    },
                    {
                        "number": 64,
                        "time": 809.8090151625013,
                        "value": 1
                    },
                    {
                        "number": 64,
                        "time": 811.5719011875012,
                        "value": 0
                    },
                    {
                        "number": 64,
                        "time": 812.2574679750012,
                        "value": 1
                    },
                    {
                        "number": 64,
                        "time": 814.0358179125012,
                        "value": 0
                    },
                    {
                        "number": 64,
                        "time": 814.2574673250012,
                        "value": 1
                    },
                    {
                        "number": 64,
                        "time": 814.6621063687512,
                        "value": 0
                    },
                    {
                        "number": 64,
                        "time": 816.6775696312512,
                        "value": 1
                    },
                    {
                        "number": 64,
                        "time": 817.1363323687513,
                        "value": 0
                    },
                    {
                        "number": 64,
                        "time": 819.7059191625012,
                        "value": 1
                    },
                    {
                        "number": 64,
                        "time": 821.4584959125012,
                        "value": 0
                    },
                    {
                        "number": 64,
                        "time": 821.6234443125012,
                        "value": 1
                    },
                    {
                        "number": 64,
                        "time": 822.0847843687512,
                        "value": 0
                    },
                    {
                        "number": 64,
                        "time": 822.3270523312513,
                        "value": 1
                    },
                    {
                        "number": 64,
                        "time": 823.9507631437513,
                        "value": 0
                    },
                    {
                        "number": 64,
                        "time": 824.7858144187512,
                        "value": 1
                    },
                    {
                        "number": 64,
                        "time": 826.4919994312512,
                        "value": 1
                    },
                    {
                        "number": 64,
                        "time": 827.0203497750013,
                        "value": 0
                    },
                    {
                        "number": 64,
                        "time": 827.7471536625012,
                        "value": 1
                    },
                    {
                        "number": 64,
                        "time": 828.2935452375012,
                        "value": 0
                    },
                    {
                        "number": 64,
                        "time": 829.0667408625012,
                        "value": 1
                    },
                    {
                        "number": 64,
                        "time": 829.6311736687512,
                        "value": 0
                    },
                    {
                        "number": 64,
                        "time": 830.2677714000013,
                        "value": 1
                    },
                    {
                        "number": 64,
                        "time": 830.8038537000012,
                        "value": 0
                    },
                    {
                        "number": 64,
                        "time": 831.5409668625013,
                        "value": 1
                    },
                    {
                        "number": 64,
                        "time": 832.0409667000013,
                        "value": 0
                    },
                    {
                        "number": 64,
                        "time": 832.7677705875012,
                        "value": 1
                    },
                    {
                        "number": 64,
                        "time": 833.2497291937513,
                        "value": 0
                    },
                    {
                        "number": 64,
                        "time": 834.0229248187512,
                        "value": 1
                    },
                    {
                        "number": 64,
                        "time": 834.5873576250012,
                        "value": 0
                    },
                    {
                        "number": 64,
                        "time": 836.3889034312513,
                        "value": 1
                    },
                    {
                        "number": 64,
                        "time": 837.0435423937513,
                        "value": 0
                    },
                    {
                        "number": 64,
                        "time": 837.6440576625013,
                        "value": 1
                    },
                    {
                        "number": 64,
                        "time": 838.2548822062513,
                        "value": 0
                    },
                    {
                        "number": 64,
                        "time": 838.9636448625013,
                        "value": 1
                    },
                    {
                        "number": 64,
                        "time": 839.5822013625012,
                        "value": 0
                    },
                    {
                        "number": 64,
                        "time": 840.1646754000012,
                        "value": 1
                    },
                    {
                        "number": 64,
                        "time": 840.7368401625013,
                        "value": 0
                    },
                    {
                        "number": 64,
                        "time": 841.4378708625013,
                        "value": 1
                    },
                    {
                        "number": 64,
                        "time": 841.9017882375014,
                        "value": 0
                    },
                    {
                        "number": 64,
                        "time": 842.6646745875014,
                        "value": 1
                    },
                    {
                        "number": 64,
                        "time": 843.2291073937514,
                        "value": 0
                    },
                    {
                        "number": 64,
                        "time": 843.9198288187514,
                        "value": 1
                    },
                    {
                        "number": 64,
                        "time": 844.4945709000013,
                        "value": 0
                    },
                    {
                        "number": 64,
                        "time": 846.4945702500014,
                        "value": 1
                    },
                    {
                        "number": 64,
                        "time": 851.1620945062514,
                        "value": 0
                    },
                    {
                        "number": 64,
                        "time": 851.3631253687514,
                        "value": 1
                    },
                    {
                        "number": 64,
                        "time": 851.9327128125014,
                        "value": 0
                    },
                    {
                        "number": 64,
                        "time": 853.8528152812514,
                        "value": 1
                    },
                    {
                        "number": 64,
                        "time": 856.0821960000014,
                        "value": 0
                    },
                    {
                        "number": 64,
                        "time": 856.3296186000015,
                        "value": 1
                    },
                    {
                        "number": 64,
                        "time": 858.5821951875015,
                        "value": 0
                    },
                    {
                        "number": 64,
                        "time": 859.3115763937515,
                        "value": 1
                    },
                    {
                        "number": 64,
                        "time": 861.0306480000015,
                        "value": 0
                    },
                    {
                        "number": 64,
                        "time": 861.7497199312515,
                        "value": 1
                    },
                    {
                        "number": 64,
                        "time": 863.5280698687516,
                        "value": 0
                    },
                    {
                        "number": 64,
                        "time": 863.6955955875015,
                        "value": 1
                    },
                    {
                        "number": 64,
                        "time": 864.1492036875015,
                        "value": 0
                    },
                    {
                        "number": 64,
                        "time": 864.3605438250015,
                        "value": 1
                    },
                    {
                        "number": 64,
                        "time": 864.7677601875015,
                        "value": 0
                    },
                    {
                        "number": 64,
                        "time": 865.0074508312515,
                        "value": 1
                    },
                    {
                        "number": 64,
                        "time": 865.3863166875014,
                        "value": 0
                    },
                    {
                        "number": 64,
                        "time": 865.6337392875015,
                        "value": 1
                    },
                    {
                        "number": 64,
                        "time": 865.9791000000015,
                        "value": 0
                    },
                    {
                        "number": 64,
                        "time": 866.7522956250015,
                        "value": 1
                    },
                    {
                        "number": 64,
                        "time": 869.7187895062515,
                        "value": 0
                    },
                    {
                        "number": 64,
                        "time": 869.8631193562514,
                        "value": 1
                    },
                    {
                        "number": 64,
                        "time": 870.9275520000015,
                        "value": 0
                    },
                    {
                        "number": 64,
                        "time": 871.6182734250015,
                        "value": 1
                    },
                    {
                        "number": 64,
                        "time": 874.6646641875014,
                        "value": 0
                    },
                    {
                        "number": 64,
                        "time": 874.9043548312515,
                        "value": 1
                    },
                    {
                        "number": 64,
                        "time": 875.8760040000014,
                        "value": 0
                    },
                    {
                        "number": 64,
                        "time": 876.6234264375014,
                        "value": 1
                    },
                    {
                        "number": 64,
                        "time": 879.6156935062514,
                        "value": 0
                    },
                    {
                        "number": 64,
                        "time": 879.7600233562514,
                        "value": 1
                    },
                    {
                        "number": 64,
                        "time": 880.8244560000014,
                        "value": 0
                    },
                    {
                        "number": 64,
                        "time": 881.5254867000015,
                        "value": 1
                    },
                    {
                        "number": 64,
                        "time": 883.6620839437514,
                        "value": 0
                    },
                    {
                        "number": 64,
                        "time": 884.0357951625015,
                        "value": 1
                    },
                    {
                        "number": 64,
                        "time": 885.7729080000015,
                        "value": 0
                    },
                    {
                        "number": 64,
                        "time": 886.0203306000016,
                        "value": 1
                    },
                    {
                        "number": 64,
                        "time": 888.2729071875016,
                        "value": 0
                    },
                    {
                        "number": 64,
                        "time": 889.0022883937515,
                        "value": 1
                    },
                    {
                        "number": 64,
                        "time": 890.7213600000016,
                        "value": 0
                    },
                    {
                        "number": 64,
                        "time": 891.4584731625016,
                        "value": 1
                    },
                    {
                        "number": 64,
                        "time": 893.2187818687516,
                        "value": 0
                    },
                    {
                        "number": 64,
                        "time": 893.3863075875016,
                        "value": 1
                    },
                    {
                        "number": 64,
                        "time": 893.8399156875016,
                        "value": 0
                    },
                    {
                        "number": 64,
                        "time": 894.0512558250016,
                        "value": 1
                    },
                    {
                        "number": 64,
                        "time": 894.4584721875016,
                        "value": 0
                    },
                    {
                        "number": 64,
                        "time": 894.6981628312516,
                        "value": 1
                    },
                    {
                        "number": 64,
                        "time": 895.0770286875015,
                        "value": 0
                    },
                    {
                        "number": 64,
                        "time": 895.3244512875016,
                        "value": 1
                    },
                    {
                        "number": 64,
                        "time": 895.6698120000016,
                        "value": 0
                    },
                    {
                        "number": 64,
                        "time": 896.3347602375015,
                        "value": 1
                    },
                    {
                        "number": 64,
                        "time": 899.4095015062516,
                        "value": 0
                    },
                    {
                        "number": 64,
                        "time": 899.5538313562515,
                        "value": 1
                    },
                    {
                        "number": 64,
                        "time": 900.6182640000015,
                        "value": 0
                    },
                    {
                        "number": 64,
                        "time": 901.4017689000016,
                        "value": 1
                    },
                    {
                        "number": 64,
                        "time": 904.3553761875015,
                        "value": 0
                    },
                    {
                        "number": 64,
                        "time": 904.5950668312515,
                        "value": 1
                    },
                    {
                        "number": 64,
                        "time": 905.5667160000015,
                        "value": 0
                    },
                    {
                        "number": 64,
                        "time": 906.2857879312515,
                        "value": 1
                    },
                    {
                        "number": 64,
                        "time": 909.3064055062515,
                        "value": 0
                    },
                    {
                        "number": 64,
                        "time": 909.4507353562515,
                        "value": 1
                    },
                    {
                        "number": 64,
                        "time": 910.5151680000015,
                        "value": 0
                    },
                    {
                        "number": 64,
                        "time": 911.2161987000015,
                        "value": 1
                    },
                    {
                        "number": 64,
                        "time": 913.1543424000015,
                        "value": 0
                    },
                    {
                        "number": 64,
                        "time": 913.5538268062515,
                        "value": 1
                    },
                    {
                        "number": 64,
                        "time": 914.2548575062516,
                        "value": 0
                    },
                    {
                        "number": 64,
                        "time": 914.3991873562516,
                        "value": 1
                    },
                    {
                        "number": 64,
                        "time": 914.8605274125016,
                        "value": 0
                    },
                    {
                        "number": 64,
                        "time": 915.0177438562516,
                        "value": 1
                    },
                    {
                        "number": 64,
                        "time": 915.4636200000016,
                        "value": 0
                    },
                    {
                        "number": 64,
                        "time": 915.6543415875016,
                        "value": 1
                    },
                    {
                        "number": 64,
                        "time": 917.9636191875015,
                        "value": 0
                    },
                    {
                        "number": 64,
                        "time": 918.6388767000016,
                        "value": 1
                    },
                    {
                        "number": 64,
                        "time": 920.4120720000016,
                        "value": 0
                    },
                    {
                        "number": 64,
                        "time": 921.1234119750015,
                        "value": 1
                    },
                    {
                        "number": 64,
                        "time": 922.9094938687515,
                        "value": 0
                    },
                    {
                        "number": 64,
                        "time": 923.0770195875015,
                        "value": 1
                    },
                    {
                        "number": 64,
                        "time": 923.5306276875015,
                        "value": 0
                    },
                    {
                        "number": 64,
                        "time": 923.6775348562514,
                        "value": 1
                    },
                    {
                        "number": 64,
                        "time": 924.1491841875014,
                        "value": 0
                    },
                    {
                        "number": 64,
                        "time": 924.2780501250014,
                        "value": 1
                    },
                    {
                        "number": 64,
                        "time": 924.7677406875014,
                        "value": 0
                    },
                    {
                        "number": 64,
                        "time": 924.9146478562513,
                        "value": 1
                    },
                    {
                        "number": 64,
                        "time": 925.3605240000013,
                        "value": 0
                    },
                    {
                        "number": 64,
                        "time": 925.6079466000014,
                        "value": 1
                    },
                    {
                        "number": 64,
                        "time": 929.1002135062514,
                        "value": 0
                    },
                    {
                        "number": 64,
                        "time": 929.2445433562514,
                        "value": 1
                    },
                    {
                        "number": 64,
                        "time": 930.3089760000014,
                        "value": 0
                    },
                    {
                        "number": 64,
                        "time": 931.0460891625014,
                        "value": 1
                    },
                    {
                        "number": 64,
                        "time": 932.8244391000014,
                        "value": 0
                    },
                    {
                        "number": 64,
                        "time": 933.0924802500015,
                        "value": 1
                    },
                    {
                        "number": 64,
                        "time": 935.2574280000015,
                        "value": 0
                    },
                    {
                        "number": 64,
                        "time": 935.5048506000015,
                        "value": 1
                    },
                    {
                        "number": 64,
                        "time": 938.9971175062516,
                        "value": 0
                    },
                    {
                        "number": 64,
                        "time": 939.1414473562515,
                        "value": 1
                    },
                    {
                        "number": 64,
                        "time": 940.2058800000016,
                        "value": 0
                    },
                    {
                        "number": 64,
                        "time": 940.8424777312516,
                        "value": 1
                    },
                    {
                        "number": 64,
                        "time": 942.7007245500016,
                        "value": 0
                    },
                    {
                        "number": 64,
                        "time": 942.8708275875016,
                        "value": 1
                    },
                    {
                        "number": 64,
                        "time": 945.1543320000015,
                        "value": 0
                    },
                    {
                        "number": 64,
                        "time": 945.4017546000016,
                        "value": 1
                    },
                    {
                        "number": 64,
                        "time": 948.8940215062516,
                        "value": 0
                    },
                    {
                        "number": 64,
                        "time": 949.0383513562516,
                        "value": 1
                    },
                    {
                        "number": 64,
                        "time": 950.1027840000016,
                        "value": 0
                    },
                    {
                        "number": 64,
                        "time": 950.5744333312516,
                        "value": 1
                    },
                    {
                        "number": 64,
                        "time": 953.2084530937516,
                        "value": 0
                    },
                    {
                        "number": 64,
                        "time": 955.0512360000016,
                        "value": 1
                    },
                    {
                        "number": 64,
                        "time": 959.9996880000016,
                        "value": 0
                    },
                    {
                        "number": 64,
                        "time": 960.2548425562516,
                        "value": 1
                    },
                    {
                        "number": 64,
                        "time": 969.8965920000015,
                        "value": 0
                    },
                    {
                        "number": 64,
                        "time": 970.1182414125016,
                        "value": 1
                    },
                    {
                        "number": 64,
                        "time": 973.6440134625016,
                        "value": 0
                    },
                    {
                        "number": 64,
                        "time": 973.9713329437516,
                        "value": 1
                    },
                    {
                        "number": 64,
                        "time": 974.8450440000016,
                        "value": 0
                    },
                    {
                        "number": 64,
                        "time": 975.0228789937516,
                        "value": 1
                    },
                    {
                        "number": 64,
                        "time": 977.9816409187516,
                        "value": 0
                    },
                    {
                        "number": 64,
                        "time": 978.2187542437516,
                        "value": 1
                    },
                    {
                        "number": 64,
                        "time": 978.5950427812517,
                        "value": 0
                    },
                    {
                        "number": 64,
                        "time": 978.8373107437517,
                        "value": 1
                    },
                    {
                        "number": 64,
                        "time": 979.2161766000016,
                        "value": 0
                    },
                    {
                        "number": 64,
                        "time": 979.4120528250016,
                        "value": 1
                    },
                    {
                        "number": 64,
                        "time": 979.7934960000016,
                        "value": 0
                    },
                    {
                        "number": 64,
                        "time": 980.0151454125016,
                        "value": 1
                    },
                    {
                        "number": 64,
                        "time": 983.5486494187517,
                        "value": 0
                    },
                    {
                        "number": 64,
                        "time": 983.7548349187516,
                        "value": 1
                    },
                    {
                        "number": 64,
                        "time": 984.7419480000016,
                        "value": 0
                    },
                    {
                        "number": 64,
                        "time": 984.9197829937516,
                        "value": 1
                    },
                    {
                        "number": 64,
                        "time": 988.4687509125016,
                        "value": 0
                    },
                    {
                        "number": 64,
                        "time": 988.7032869187516,
                        "value": 1
                    },
                    {
                        "number": 64,
                        "time": 989.1130806000016,
                        "value": 0
                    },
                    {
                        "number": 64,
                        "time": 989.3682351562516,
                        "value": 1
                    },
                    {
                        "number": 64,
                        "time": 989.6904000000015,
                        "value": 0
                    },
                    {
                        "number": 64,
                        "time": 989.6904000000015,
                        "value": 0
                    },
                    {
                        "number": 64,
                        "time": 989.9120494125016,
                        "value": 1
                    },
                    {
                        "number": 64,
                        "time": 993.4197802312516,
                        "value": 0
                    },
                    {
                        "number": 64,
                        "time": 993.6929760187516,
                        "value": 1
                    },
                    {
                        "number": 64,
                        "time": 994.6388520000015,
                        "value": 0
                    },
                    {
                        "number": 64,
                        "time": 994.8166869937515,
                        "value": 1
                    },
                    {
                        "number": 64,
                        "time": 997.7496757312515,
                        "value": 0
                    },
                    {
                        "number": 64,
                        "time": 998.0950364437515,
                        "value": 1
                    },
                    {
                        "number": 64,
                        "time": 998.3862734625015,
                        "value": 0
                    },
                    {
                        "number": 64,
                        "time": 998.7135929437516,
                        "value": 1
                    },
                    {
                        "number": 64,
                        "time": 998.9996753250016,
                        "value": 0
                    },
                    {
                        "number": 64,
                        "time": 999.2239020562516,
                        "value": 1
                    },
                    {
                        "number": 64,
                        "time": 999.5873040000016,
                        "value": 0
                    },
                    {
                        "number": 64,
                        "time": 999.8089534125016,
                        "value": 1
                    },
                    {
                        "number": 64,
                        "time": 1003.3373027812517,
                        "value": 0
                    },
                    {
                        "number": 64,
                        "time": 1003.5898800187516,
                        "value": 1
                    },
                    {
                        "number": 64,
                        "time": 1004.5357560000016,
                        "value": 0
                    },
                    {
                        "number": 64,
                        "time": 1004.7135909937516,
                        "value": 1
                    },
                    {
                        "number": 64,
                        "time": 1008.2831774625016,
                        "value": 0
                    },
                    {
                        "number": 64,
                        "time": 1008.4842083250016,
                        "value": 1
                    },
                    {
                        "number": 64,
                        "time": 1008.9017339625017,
                        "value": 0
                    },
                    {
                        "number": 64,
                        "time": 1009.1929709812517,
                        "value": 1
                    },
                    {
                        "number": 64,
                        "time": 1009.4842080000018,
                        "value": 0
                    },
                    {
                        "number": 64,
                        "time": 1009.4842080000018,
                        "value": 0
                    },
                    {
                        "number": 64,
                        "time": 1009.7058574125018,
                        "value": 1
                    },
                    {
                        "number": 64,
                        "time": 1013.2419387375019,
                        "value": 0
                    },
                    {
                        "number": 64,
                        "time": 1013.4146190937519,
                        "value": 1
                    },
                    {
                        "number": 64,
                        "time": 1014.4326600000019,
                        "value": 0
                    },
                    {
                        "number": 64,
                        "time": 1014.4326600000019,
                        "value": 0
                    },
                    {
                        "number": 64,
                        "time": 1014.6543094125019,
                        "value": 1
                    },
                    {
                        "number": 64,
                        "time": 1017.561524962502,
                        "value": 0
                    },
                    {
                        "number": 64,
                        "time": 1017.852761981252,
                        "value": 1
                    },
                    {
                        "number": 64,
                        "time": 1018.1878134187521,
                        "value": 0
                    },
                    {
                        "number": 64,
                        "time": 1018.399153556252,
                        "value": 1
                    },
                    {
                        "number": 64,
                        "time": 1018.803792600002,
                        "value": 0
                    },
                    {
                        "number": 64,
                        "time": 1018.927503900002,
                        "value": 1
                    },
                    {
                        "number": 64,
                        "time": 1019.381112000002,
                        "value": 0
                    },
                    {
                        "number": 64,
                        "time": 1019.381112000002,
                        "value": 0
                    },
                    {
                        "number": 64,
                        "time": 1019.602761412502,
                        "value": 1
                    },
                    {
                        "number": 64,
                        "time": 1022.509976962502,
                        "value": 0
                    },
                    {
                        "number": 64,
                        "time": 1022.7110078250021,
                        "value": 1
                    },
                    {
                        "number": 64,
                        "time": 1023.138842737502,
                        "value": 0
                    },
                    {
                        "number": 64,
                        "time": 1023.3656467875021,
                        "value": 1
                    },
                    {
                        "number": 64,
                        "time": 1023.7290487312521,
                        "value": 0
                    },
                    {
                        "number": 64,
                        "time": 1023.893997131252,
                        "value": 1
                    },
                    {
                        "number": 64,
                        "time": 1024.329564000002,
                        "value": 0
                    },
                    {
                        "number": 64,
                        "time": 1024.329564000002,
                        "value": 0
                    },
                    {
                        "number": 64,
                        "time": 1024.551213412502,
                        "value": 1
                    },
                    {
                        "number": 64,
                        "time": 1029.278016000002,
                        "value": 0
                    },
                    {
                        "number": 64,
                        "time": 1029.278016000002,
                        "value": 0
                    },
                    {
                        "number": 64,
                        "time": 1029.499665412502,
                        "value": 1
                    },
                    {
                        "number": 64,
                        "time": 1031.780592506252,
                        "value": 0
                    },
                    {
                        "number": 64,
                        "time": 1032.038324381252,
                        "value": 1
                    },
                    {
                        "number": 64,
                        "time": 1033.033169418752,
                        "value": 0
                    },
                    {
                        "number": 64,
                        "time": 1033.3888394062521,
                        "value": 1
                    },
                    {
                        "number": 64,
                        "time": 1033.649148600002,
                        "value": 0
                    },
                    {
                        "number": 64,
                        "time": 1033.829560912502,
                        "value": 1
                    },
                    {
                        "number": 64,
                        "time": 1034.2264680000021,
                        "value": 0
                    },
                    {
                        "number": 64,
                        "time": 1034.2316226375021,
                        "value": 0
                    },
                    {
                        "number": 64,
                        "time": 1034.4481174125021,
                        "value": 1
                    },
                    {
                        "number": 64,
                        "time": 1039.1749200000022,
                        "value": 0
                    },
                    {
                        "number": 64,
                        "time": 1039.1800746375022,
                        "value": 0
                    },
                    {
                        "number": 64,
                        "time": 1039.3965694125022,
                        "value": 1
                    },
                    {
                        "number": 64,
                        "time": 1042.3037849625023,
                        "value": 0
                    },
                    {
                        "number": 64,
                        "time": 1042.5769807500023,
                        "value": 1
                    },
                    {
                        "number": 64,
                        "time": 1044.1233720000023,
                        "value": 0
                    },
                    {
                        "number": 64,
                        "time": 1044.4687327125023,
                        "value": 1
                    },
                    {
                        "number": 64,
                        "time": 1049.0898652312524,
                        "value": 0
                    },
                    {
                        "number": 64,
                        "time": 1049.3218239187524,
                        "value": 1
                    },
                    {
                        "number": 64,
                        "time": 1052.1826477312525,
                        "value": 0
                    },
                    {
                        "number": 64,
                        "time": 1052.4197610562526,
                        "value": 1
                    },
                    {
                        "number": 64,
                        "time": 1054.0202760000027,
                        "value": 0
                    },
                    {
                        "number": 64,
                        "time": 1054.3656367125027,
                        "value": 1
                    },
                    {
                        "number": 64,
                        "time": 1058.9867692312528,
                        "value": 0
                    },
                    {
                        "number": 64,
                        "time": 1059.2187279187528,
                        "value": 1
                    },
                    {
                        "number": 64,
                        "time": 1063.9171800000029,
                        "value": 0
                    },
                    {
                        "number": 64,
                        "time": 1064.2625407125029,
                        "value": 1
                    },
                    {
                        "number": 64,
                        "time": 1066.424911143753,
                        "value": 0
                    },
                    {
                        "number": 64,
                        "time": 1066.677488381253,
                        "value": 1
                    },
                    {
                        "number": 64,
                        "time": 1068.865632000003,
                        "value": 0
                    },
                    {
                        "number": 64,
                        "time": 1069.210992712503,
                        "value": 1
                    },
                    {
                        "number": 64,
                        "time": 1071.373363143753,
                        "value": 0
                    },
                    {
                        "number": 64,
                        "time": 1071.625940381253,
                        "value": 1
                    },
                    {
                        "number": 64,
                        "time": 1073.814084000003,
                        "value": 0
                    },
                    {
                        "number": 64,
                        "time": 1074.159444712503,
                        "value": 1
                    },
                    {
                        "number": 64,
                        "time": 1077.558928143753,
                        "value": 0
                    },
                    {
                        "number": 64,
                        "time": 1077.834701250003,
                        "value": 1
                    },
                    {
                        "number": 64,
                        "time": 1078.7625360000031,
                        "value": 0
                    },
                    {
                        "number": 64,
                        "time": 1078.7676906375032,
                        "value": 0
                    },
                    {
                        "number": 64,
                        "time": 1078.9841854125032,
                        "value": 1
                    },
                    {
                        "number": 64,
                        "time": 1082.5228440562532,
                        "value": 0
                    },
                    {
                        "number": 64,
                        "time": 1082.7238749187532,
                        "value": 1
                    },
                    {
                        "number": 64,
                        "time": 1083.7109880000032,
                        "value": 0
                    },
                    {
                        "number": 64,
                        "time": 1084.0563487125032,
                        "value": 1
                    },
                    {
                        "number": 64,
                        "time": 1086.8475849187532,
                        "value": 0
                    },
                    {
                        "number": 64,
                        "time": 1087.0692343312533,
                        "value": 1
                    },
                    {
                        "number": 64,
                        "time": 1087.4661414187533,
                        "value": 0
                    },
                    {
                        "number": 64,
                        "time": 1087.6285125000034,
                        "value": 1
                    },
                    {
                        "number": 64,
                        "time": 1088.6594400000033,
                        "value": 0
                    },
                    {
                        "number": 64,
                        "time": 1089.0048007125033,
                        "value": 1
                    },
                    {
                        "number": 64,
                        "time": 1091.1594391875033,
                        "value": 0
                    },
                    {
                        "number": 64,
                        "time": 1091.4068617875032,
                        "value": 1
                    },
                    {
                        "number": 64,
                        "time": 1093.6078920000032,
                        "value": 0
                    },
                    {
                        "number": 64,
                        "time": 1093.9532527125032,
                        "value": 1
                    },
                    {
                        "number": 64,
                        "time": 1098.5563440000033,
                        "value": 0
                    },
                    {
                        "number": 64,
                        "time": 1098.9017047125033,
                        "value": 1
                    },
                    {
                        "number": 64,
                        "time": 1103.5047960000034,
                        "value": 0
                    },
                    {
                        "number": 64,
                        "time": 1103.8501567125033,
                        "value": 1
                    },
                    {
                        "number": 64,
                        "time": 1106.0073725062534,
                        "value": 0
                    },
                    {
                        "number": 64,
                        "time": 1106.2599497437534,
                        "value": 1
                    },
                    {
                        "number": 64,
                        "time": 1108.4815985062535,
                        "value": 0
                    },
                    {
                        "number": 64,
                        "time": 1108.7341757437534,
                        "value": 1
                    },
                    {
                        "number": 64,
                        "time": 1112.1980921437535,
                        "value": 0
                    },
                    {
                        "number": 64,
                        "time": 1112.4738652500034,
                        "value": 1
                    },
                    {
                        "number": 64,
                        "time": 1113.4017000000035,
                        "value": 0
                    },
                    {
                        "number": 64,
                        "time": 1113.5795349937534,
                        "value": 1
                    },
                    {
                        "number": 64,
                        "time": 1116.4996371375034,
                        "value": 0
                    },
                    {
                        "number": 64,
                        "time": 1116.7315958250035,
                        "value": 1
                    },
                    {
                        "number": 64,
                        "time": 1117.1594307375035,
                        "value": 0
                    },
                    {
                        "number": 64,
                        "time": 1117.3501523250036,
                        "value": 1
                    },
                    {
                        "number": 64,
                        "time": 1117.7496367312535,
                        "value": 0
                    },
                    {
                        "number": 64,
                        "time": 1117.9687088250034,
                        "value": 1
                    },
                    {
                        "number": 64,
                        "time": 1118.3501520000034,
                        "value": 0
                    },
                    {
                        "number": 64,
                        "time": 1118.5718014125034,
                        "value": 1
                    },
                    {
                        "number": 64,
                        "time": 1122.0846868687534,
                        "value": 0
                    },
                    {
                        "number": 64,
                        "time": 1122.2805630937532,
                        "value": 1
                    },
                    {
                        "number": 64,
                        "time": 1123.2986040000033,
                        "value": 0
                    },
                    {
                        "number": 64,
                        "time": 1123.4764389937532,
                        "value": 1
                    },
                    {
                        "number": 64,
                        "time": 1127.0279842312532,
                        "value": 0
                    },
                    {
                        "number": 64,
                        "time": 1127.2109738625031,
                        "value": 1
                    },
                    {
                        "number": 64,
                        "time": 1127.669736600003,
                        "value": 0
                    },
                    {
                        "number": 64,
                        "time": 1127.847571593753,
                        "value": 1
                    },
                    {
                        "number": 64,
                        "time": 1128.2470560000029,
                        "value": 0
                    },
                    {
                        "number": 64,
                        "time": 1128.2470560000029,
                        "value": 0
                    },
                    {
                        "number": 64,
                        "time": 1128.468705412503,
                        "value": 1
                    },
                    {
                        "number": 64,
                        "time": 1131.979013550003,
                        "value": 0
                    },
                    {
                        "number": 64,
                        "time": 1132.360456725003,
                        "value": 1
                    },
                    {
                        "number": 64,
                        "time": 1133.195508000003,
                        "value": 0
                    },
                    {
                        "number": 64,
                        "time": 1133.3733429937529,
                        "value": 1
                    },
                    {
                        "number": 64,
                        "time": 1136.3114863687529,
                        "value": 0
                    },
                    {
                        "number": 64,
                        "time": 1136.579527518753,
                        "value": 1
                    },
                    {
                        "number": 64,
                        "time": 1136.948084100003,
                        "value": 0
                    },
                    {
                        "number": 64,
                        "time": 1137.1439603250028,
                        "value": 1
                    },
                    {
                        "number": 64,
                        "time": 1137.5614859625027,
                        "value": 0
                    },
                    {
                        "number": 64,
                        "time": 1137.7985992875028,
                        "value": 1
                    },
                    {
                        "number": 64,
                        "time": 1138.1439600000028,
                        "value": 0
                    },
                    {
                        "number": 64,
                        "time": 1138.3656094125029,
                        "value": 1
                    },
                    {
                        "number": 64,
                        "time": 1141.272824962503,
                        "value": 0
                    },
                    {
                        "number": 64,
                        "time": 1141.401690900003,
                        "value": 1
                    },
                    {
                        "number": 64,
                        "time": 1141.899113418753,
                        "value": 0
                    },
                    {
                        "number": 64,
                        "time": 1142.038288631253,
                        "value": 1
                    },
                    {
                        "number": 64,
                        "time": 1142.509937962503,
                        "value": 0
                    },
                    {
                        "number": 64,
                        "time": 1142.7470512875032,
                        "value": 1
                    },
                    {
                        "number": 64,
                        "time": 1143.0924120000032,
                        "value": 0
                    },
                    {
                        "number": 64,
                        "time": 1143.270246993753,
                        "value": 1
                    },
                    {
                        "number": 64,
                        "time": 1146.221276962503,
                        "value": 0
                    },
                    {
                        "number": 64,
                        "time": 1146.440349056253,
                        "value": 1
                    },
                    {
                        "number": 64,
                        "time": 1146.8398334625028,
                        "value": 0
                    },
                    {
                        "number": 64,
                        "time": 1147.0228230937528,
                        "value": 1
                    },
                    {
                        "number": 64,
                        "time": 1147.4274621375027,
                        "value": 0
                    },
                    {
                        "number": 64,
                        "time": 1147.6955032875028,
                        "value": 1
                    },
                    {
                        "number": 64,
                        "time": 1148.0408640000028,
                        "value": 0
                    },
                    {
                        "number": 64,
                        "time": 1148.2960185562529,
                        "value": 1
                    },
                    {
                        "number": 64,
                        "time": 1151.793440100003,
                        "value": 0
                    },
                    {
                        "number": 64,
                        "time": 1152.007357556253,
                        "value": 1
                    },
                    {
                        "number": 64,
                        "time": 1152.989316000003,
                        "value": 0
                    },
                    {
                        "number": 64,
                        "time": 1153.167150993753,
                        "value": 1
                    },
                    {
                        "number": 64,
                        "time": 1156.125912918753,
                        "value": 0
                    },
                    {
                        "number": 64,
                        "time": 1156.319211825003,
                        "value": 1
                    },
                    {
                        "number": 64,
                        "time": 1156.741892100003,
                        "value": 0
                    },
                    {
                        "number": 64,
                        "time": 1156.9558095562531,
                        "value": 1
                    },
                    {
                        "number": 64,
                        "time": 1157.3656032375031,
                        "value": 0
                    },
                    {
                        "number": 64,
                        "time": 1157.5743660562532,
                        "value": 1
                    },
                    {
                        "number": 64,
                        "time": 1157.9377680000032,
                        "value": 0
                    },
                    {
                        "number": 64,
                        "time": 1158.1594174125032,
                        "value": 1
                    },
                    {
                        "number": 64,
                        "time": 1161.0666329625033,
                        "value": 0
                    },
                    {
                        "number": 64,
                        "time": 1161.2496225937532,
                        "value": 1
                    },
                    {
                        "number": 64,
                        "time": 1161.6954987375032,
                        "value": 0
                    },
                    {
                        "number": 64,
                        "time": 1161.9223027875032,
                        "value": 1
                    },
                    {
                        "number": 64,
                        "time": 1162.2908593687532,
                        "value": 0
                    },
                    {
                        "number": 64,
                        "time": 1162.5047768250033,
                        "value": 1
                    },
                    {
                        "number": 64,
                        "time": 1162.8862200000033,
                        "value": 0
                    },
                    {
                        "number": 64,
                        "time": 1163.0640549937532,
                        "value": 1
                    },
                    {
                        "number": 64,
                        "time": 1166.0253942375032,
                        "value": 0
                    },
                    {
                        "number": 64,
                        "time": 1166.1980745937533,
                        "value": 1
                    },
                    {
                        "number": 64,
                        "time": 1166.6439507375032,
                        "value": 0
                    },
                    {
                        "number": 64,
                        "time": 1166.8887960187533,
                        "value": 1
                    },
                    {
                        "number": 64,
                        "time": 1167.2315794125034,
                        "value": 0
                    },
                    {
                        "number": 64,
                        "time": 1167.4532288250034,
                        "value": 1
                    },
                    {
                        "number": 64,
                        "time": 1167.8346720000034,
                        "value": 0
                    },
                    {
                        "number": 64,
                        "time": 1168.0331255437534,
                        "value": 1
                    },
                    {
                        "number": 64,
                        "time": 1170.9686916000035,
                        "value": 0
                    },
                    {
                        "number": 64,
                        "time": 1171.1826090562536,
                        "value": 1
                    },
                    {
                        "number": 64,
                        "time": 1171.5820934625035,
                        "value": 0
                    },
                    {
                        "number": 64,
                        "time": 1171.8192067875036,
                        "value": 1
                    },
                    {
                        "number": 64,
                        "time": 1172.1980726437537,
                        "value": 0
                    },
                    {
                        "number": 64,
                        "time": 1172.4377632875037,
                        "value": 1
                    },
                    {
                        "number": 64,
                        "time": 1172.7831240000037,
                        "value": 0
                    },
                    {
                        "number": 64,
                        "time": 1172.9970414562538,
                        "value": 1
                    },
                    {
                        "number": 64,
                        "time": 1175.8862157750038,
                        "value": 0
                    },
                    {
                        "number": 64,
                        "time": 1176.2779682250039,
                        "value": 1
                    },
                    {
                        "number": 64,
                        "time": 1176.5382774187538,
                        "value": 0
                    },
                    {
                        "number": 64,
                        "time": 1176.7135350937538,
                        "value": 1
                    },
                    {
                        "number": 64,
                        "time": 1177.1336380500038,
                        "value": 0
                    },
                    {
                        "number": 64,
                        "time": 1177.4222977500037,
                        "value": 1
                    },
                    {
                        "number": 64,
                        "time": 1177.7315760000038,
                        "value": 0
                    },
                    {
                        "number": 64,
                        "time": 1177.9351841812538,
                        "value": 1
                    },
                    {
                        "number": 64,
                        "time": 1182.7161104625038,
                        "value": 0
                    },
                    {
                        "number": 64,
                        "time": 1182.989306250004,
                        "value": 1
                    },
                    {
                        "number": 64,
                        "time": 1187.628480000004,
                        "value": 0
                    },
                    {
                        "number": 64,
                        "time": 1187.837242818754,
                        "value": 1
                    },
                    {
                        "number": 64,
                        "time": 1190.120747231254,
                        "value": 0
                    },
                    {
                        "number": 64,
                        "time": 1190.321778093754,
                        "value": 1
                    },
                    {
                        "number": 64,
                        "time": 1191.3759014625039,
                        "value": 0
                    },
                    {
                        "number": 64,
                        "time": 1191.631056018754,
                        "value": 1
                    },
                    {
                        "number": 64,
                        "time": 1192.602705187504,
                        "value": 0
                    },
                    {
                        "number": 64,
                        "time": 1192.718684531254,
                        "value": 1
                    },
                    {
                        "number": 64,
                        "time": 1193.8449728250039,
                        "value": 0
                    },
                    {
                        "number": 64,
                        "time": 1194.035694412504,
                        "value": 1
                    },
                    {
                        "number": 64,
                        "time": 1195.076931187504,
                        "value": 0
                    },
                    {
                        "number": 64,
                        "time": 1195.213529081254,
                        "value": 1
                    },
                    {
                        "number": 64,
                        "time": 1196.324353462504,
                        "value": 0
                    },
                    {
                        "number": 64,
                        "time": 1196.435178168754,
                        "value": 1
                    },
                    {
                        "number": 64,
                        "time": 1197.5434252312539,
                        "value": 0
                    },
                    {
                        "number": 64,
                        "time": 1197.775383918754,
                        "value": 1
                    },
                    {
                        "number": 64,
                        "time": 1198.7960021437539,
                        "value": 0
                    },
                    {
                        "number": 64,
                        "time": 1199.0717752500038,
                        "value": 1
                    },
                    {
                        "number": 64,
                        "time": 1200.035692462504,
                        "value": 0
                    },
                    {
                        "number": 64,
                        "time": 1200.2960016562538,
                        "value": 1
                    },
                    {
                        "number": 64,
                        "time": 1201.2728054625038,
                        "value": 0
                    },
                    {
                        "number": 64,
                        "time": 1201.5021868312538,
                        "value": 1
                    },
                    {
                        "number": 64,
                        "time": 1202.4738360000038,
                        "value": 0
                    },
                    {
                        "number": 64,
                        "time": 1202.6542483125038,
                        "value": 1
                    },
                    {
                        "number": 64,
                        "time": 1203.0511554000038,
                        "value": 0
                    },
                    {
                        "number": 64,
                        "time": 1203.8088871125037,
                        "value": 1
                    },
                    {
                        "number": 64,
                        "time": 1204.3372374562537,
                        "value": 0
                    },
                    {
                        "number": 64,
                        "time": 1207.5150714750037,
                        "value": 1
                    },
                    {
                        "number": 64,
                        "time": 1209.9351737812538,
                        "value": 0
                    },
                    {
                        "number": 64,
                        "time": 1210.2599159437536,
                        "value": 1
                    },
                    {
                        "number": 64,
                        "time": 1211.1800187375036,
                        "value": 0
                    },
                    {
                        "number": 64,
                        "time": 1211.4789877125036,
                        "value": 1
                    },
                    {
                        "number": 64,
                        "time": 1212.3810492750035,
                        "value": 0
                    },
                    {
                        "number": 64,
                        "time": 1212.5356884000034,
                        "value": 1
                    },
                    {
                        "number": 64,
                        "time": 1214.8810484625035,
                        "value": 0
                    },
                    {
                        "number": 64,
                        "time": 1215.1903267125035,
                        "value": 1
                    },
                    {
                        "number": 64,
                        "time": 1216.1233161000034,
                        "value": 0
                    },
                    {
                        "number": 64,
                        "time": 1217.5743465562534,
                        "value": 1
                    },
                    {
                        "number": 64,
                        "time": 1219.8243458250033,
                        "value": 0
                    },
                    {
                        "number": 64,
                        "time": 1220.1748611750033,
                        "value": 1
                    },
                    {
                        "number": 64,
                        "time": 1221.0563041875034,
                        "value": 0
                    },
                    {
                        "number": 64,
                        "time": 1223.2315612125035,
                        "value": 1
                    },
                    {
                        "number": 64,
                        "time": 1236.2882580000035,
                        "value": 0
                    }
                ]
            },
            "id": 3,
            "name": "Pedale",
            "instrumentNumber": 0,
            "instrument": "acoustic grand piano",
            "instrumentFamily": "piano",
            "channelNumber": 0,
            "isPercussion": false
        },
        {
            "startTime": 0,
            "duration": 0,
            "length": 0,
            "notes": [],
            "controlChanges": {
                "64": [
                    {
                        "number": 64,
                        "time": 188.041176,
                        "value": 0
                    }
                ]
            },
            "id": 4,
            "name": "Schubert: Impromptu No. 1 D935"
        },
        {
            "startTime": 0,
            "duration": 0,
            "length": 0,
            "notes": [],
            "controlChanges": {},
            "id": 5,
            "name": "Copyright  2007 by Bernd Krueger"
        },
        {
            "startTime": 0,
            "duration": 0,
            "length": 0,
            "notes": [],
            "controlChanges": {},
            "id": 6,
            "name": "http://www.piano-midi.de/"
        },
        {
            "startTime": 0,
            "duration": 0,
            "length": 0,
            "notes": [],
            "controlChanges": {},
            "id": 7,
            "name": "Edition: 2014-03-20"
        },
        {
            "startTime": 0,
            "duration": 0,
            "length": 0,
            "notes": [],
            "controlChanges": {},
            "id": 8,
            "name": "Spur 8"
        },
        {
            "startTime": 0,
            "duration": 0,
            "length": 0,
            "notes": [],
            "controlChanges": {},
            "id": 9,
            "name": "Spur 9"
        },
        {
            "startTime": 0,
            "duration": 0,
            "length": 0,
            "notes": [],
            "controlChanges": {},
            "id": 10,
            "name": "Spur 10"
        },
        {
            "startTime": 0,
            "duration": 0,
            "length": 0,
            "notes": [],
            "controlChanges": {},
            "id": 11,
            "name": "Spur 11"
        },
        {
            "startTime": 0,
            "duration": 0,
            "length": 0,
            "notes": [],
            "controlChanges": {},
            "id": 12,
            "name": "Spur 12"
        },
        {
            "startTime": 0,
            "duration": 0,
            "length": 0,
            "notes": [],
            "controlChanges": {},
            "id": 13,
            "name": "Spur 13"
        },
        {
            "startTime": 0,
            "duration": 0,
            "length": 0,
            "notes": [],
            "controlChanges": {},
            "id": 14,
            "name": "Spur 14"
        },
        {
            "startTime": 0,
            "duration": 0,
            "length": 0,
            "notes": [],
            "controlChanges": {},
            "id": 15,
            "name": "Spur 15"
        },
        {
            "startTime": 0,
            "duration": 0,
            "length": 0,
            "notes": [],
            "controlChanges": {},
            "id": 16,
            "name": "Spur 16"
        }
    ]
}