{
    "header": {
        "PPQ": 480,
        "timeSignature": [
            2,
            4
        ],
        "bpm": 46.99999060000188,
        "name": "Kind im Einschlummern"
    },
    "startTime": 0,
    "duration": 80.42554800000003,
    "tracks": [
        {
            "startTime": 0,
            "duration": 0,
            "length": 0,
            "notes": [],
            "controlChanges": {},
            "id": 0,
            "name": "Kind im Einschlummern"
        },
        {
            "startTime": 1.276596,
            "duration": 80.42554799999996,
            "length": 180,
            "notes": [
                {
                    "name": "B4",
                    "midi": 71,
                    "time": 1.276596,
                    "velocity": 0.4015748031496063,
                    "duration": 0.9308512499999999
                },
                {
                    "name": "F#5",
                    "midi": 78,
                    "time": 1.914894,
                    "velocity": 0.3228346456692913,
                    "duration": 0.3191489999999997
                },
                {
                    "name": "B4",
                    "midi": 71,
                    "time": 2.234043,
                    "velocity": 0.28346456692913385,
                    "duration": 0.3191489999999999
                },
                {
                    "name": "B4",
                    "midi": 71,
                    "time": 2.5531919999999997,
                    "velocity": 0.3937007874015748,
                    "duration": 1.276596
                },
                {
                    "name": "G5",
                    "midi": 79,
                    "time": 2.8723409999999996,
                    "velocity": 0.3858267716535433,
                    "duration": 0.9574470000000002
                },
                {
                    "name": "B4",
                    "midi": 71,
                    "time": 3.8297879999999997,
                    "velocity": 0.36220472440944884,
                    "duration": 0.9308512499999999
                },
                {
                    "name": "F#5",
                    "midi": 78,
                    "time": 4.468086,
                    "velocity": 0.29133858267716534,
                    "duration": 0.31914900000000035
                },
                {
                    "name": "B4",
                    "midi": 71,
                    "time": 4.787235,
                    "velocity": 0.23622047244094488,
                    "duration": 0.31914900000000035
                },
                {
                    "name": "B4",
                    "midi": 71,
                    "time": 5.106384,
                    "velocity": 0.36220472440944884,
                    "duration": 1.2765960000000005
                },
                {
                    "name": "G5",
                    "midi": 79,
                    "time": 5.425533000000001,
                    "velocity": 0.3228346456692913,
                    "duration": 0.9574470000000002
                },
                {
                    "name": "B4",
                    "midi": 71,
                    "time": 6.382980000000001,
                    "velocity": 0.31496062992125984,
                    "duration": 0.9308512499999999
                },
                {
                    "name": "F#5",
                    "midi": 78,
                    "time": 7.021278000000001,
                    "velocity": 0.2677165354330709,
                    "duration": 0.31914900000000035
                },
                {
                    "name": "B4",
                    "midi": 71,
                    "time": 7.340427000000001,
                    "velocity": 0.2125984251968504,
                    "duration": 0.31914900000000035
                },
                {
                    "name": "B4",
                    "midi": 71,
                    "time": 7.659576000000001,
                    "velocity": 0.30708661417322836,
                    "duration": 1.2765959999999996
                },
                {
                    "name": "E5",
                    "midi": 76,
                    "time": 7.978725000000002,
                    "velocity": 0.23622047244094488,
                    "duration": 0.9574469999999993
                },
                {
                    "name": "B4",
                    "midi": 71,
                    "time": 8.936172000000001,
                    "velocity": 0.30708661417322836,
                    "duration": 0.9308512499999999
                },
                {
                    "name": "F#5",
                    "midi": 78,
                    "time": 9.574470000000002,
                    "velocity": 0.23622047244094488,
                    "duration": 0.31914899999999946
                },
                {
                    "name": "B4",
                    "midi": 71,
                    "time": 9.893619000000001,
                    "velocity": 0.1968503937007874,
                    "duration": 0.31914899999999946
                },
                {
                    "name": "B4",
                    "midi": 71,
                    "time": 10.212768,
                    "velocity": 0.3779527559055118,
                    "duration": 1.2765959999999996
                },
                {
                    "name": "B5",
                    "midi": 83,
                    "time": 10.531917,
                    "velocity": 0.3858267716535433,
                    "duration": 0.9574470000000002
                },
                {
                    "name": "B4",
                    "midi": 71,
                    "time": 11.489364,
                    "velocity": 0.36220472440944884,
                    "duration": 0.9308512499999999
                },
                {
                    "name": "F#5",
                    "midi": 78,
                    "time": 12.127662,
                    "velocity": 0.29133858267716534,
                    "duration": 0.31914899999999946
                },
                {
                    "name": "B4",
                    "midi": 71,
                    "time": 12.446811,
                    "velocity": 0.2440944881889764,
                    "duration": 0.31914899999999946
                },
                {
                    "name": "B4",
                    "midi": 71,
                    "time": 12.76596,
                    "velocity": 0.3937007874015748,
                    "duration": 1.2765959999999996
                },
                {
                    "name": "G5",
                    "midi": 79,
                    "time": 13.085109,
                    "velocity": 0.3858267716535433,
                    "duration": 0.9574470000000002
                },
                {
                    "name": "B4",
                    "midi": 71,
                    "time": 14.042556,
                    "velocity": 0.33070866141732286,
                    "duration": 0.9308512499999999
                },
                {
                    "name": "F#5",
                    "midi": 78,
                    "time": 14.680854,
                    "velocity": 0.29133858267716534,
                    "duration": 0.31914899999999946
                },
                {
                    "name": "B4",
                    "midi": 71,
                    "time": 15.000003,
                    "velocity": 0.23622047244094488,
                    "duration": 0.31914899999999946
                },
                {
                    "name": "B4",
                    "midi": 71,
                    "time": 15.319151999999999,
                    "velocity": 0.3228346456692913,
                    "duration": 1.2765959999999978
                },
                {
                    "name": "G5",
                    "midi": 79,
                    "time": 15.638300999999998,
                    "velocity": 0.30708661417322836,
                    "duration": 0.9574469999999984
                },
                {
                    "name": "B4",
                    "midi": 71,
                    "time": 16.595747999999997,
                    "velocity": 0.30708661417322836,
                    "duration": 0.9308512499999999
                },
                {
                    "name": "F#5",
                    "midi": 78,
                    "time": 17.234045999999996,
                    "velocity": 0.2440944881889764,
                    "duration": 0.31914899999999946
                },
                {
                    "name": "B4",
                    "midi": 71,
                    "time": 17.553194999999995,
                    "velocity": 0.1968503937007874,
                    "duration": 0.31914899999999946
                },
                {
                    "name": "B4",
                    "midi": 71,
                    "time": 17.872343999999995,
                    "velocity": 0.2992125984251969,
                    "duration": 1.2765959999999978
                },
                {
                    "name": "E5",
                    "midi": 76,
                    "time": 18.191492999999994,
                    "velocity": 0.2204724409448819,
                    "duration": 0.9574469999999984
                },
                {
                    "name": "B4",
                    "midi": 71,
                    "time": 19.148939999999993,
                    "velocity": 0.2677165354330709,
                    "duration": 0.9308512499999999
                },
                {
                    "name": "F#5",
                    "midi": 78,
                    "time": 19.78723799999999,
                    "velocity": 0.2047244094488189,
                    "duration": 0.31914899999999946
                },
                {
                    "name": "B4",
                    "midi": 71,
                    "time": 20.10638699999999,
                    "velocity": 0.1889763779527559,
                    "duration": 0.31914899999999946
                },
                {
                    "name": "G#5",
                    "midi": 80,
                    "time": 20.42553599999999,
                    "velocity": 0.2204724409448819,
                    "duration": 1.2765960000000014
                },
                {
                    "name": "B4",
                    "midi": 71,
                    "time": 20.42553599999999,
                    "velocity": 0.2204724409448819,
                    "duration": 1.2765960000000014
                },
                {
                    "name": "E5",
                    "midi": 76,
                    "time": 20.42553599999999,
                    "velocity": 0.2204724409448819,
                    "duration": 1.2765960000000014
                },
                {
                    "name": "B5",
                    "midi": 83,
                    "time": 20.42553599999999,
                    "velocity": 0.30708661417322836,
                    "duration": 1.2765960000000014
                },
                {
                    "name": "B4",
                    "midi": 71,
                    "time": 21.70213199999999,
                    "velocity": 0.31496062992125984,
                    "duration": 0.31914899999999946
                },
                {
                    "name": "B5",
                    "midi": 83,
                    "time": 21.70213199999999,
                    "velocity": 0.23622047244094488,
                    "duration": 1.2765959999999978
                },
                {
                    "name": "F#5",
                    "midi": 78,
                    "time": 21.70213199999999,
                    "velocity": 0.23622047244094488,
                    "duration": 1.2765959999999978
                },
                {
                    "name": "D#5",
                    "midi": 75,
                    "time": 21.70213199999999,
                    "velocity": 0.23622047244094488,
                    "duration": 1.2765959999999978
                },
                {
                    "name": "A4",
                    "midi": 69,
                    "time": 21.70213199999999,
                    "velocity": 0.23622047244094488,
                    "duration": 1.2765959999999978
                },
                {
                    "name": "G#5",
                    "midi": 80,
                    "time": 22.02128099999999,
                    "velocity": 0.33070866141732286,
                    "duration": 0.6382979999999989
                },
                {
                    "name": "F#5",
                    "midi": 78,
                    "time": 22.65957899999999,
                    "velocity": 0.2992125984251969,
                    "duration": 0.31914899999999946
                },
                {
                    "name": "G#4",
                    "midi": 68,
                    "time": 22.97872799999999,
                    "velocity": 0.2283464566929134,
                    "duration": 1.2765960000000014
                },
                {
                    "name": "B4",
                    "midi": 71,
                    "time": 22.97872799999999,
                    "velocity": 0.2283464566929134,
                    "duration": 1.2765960000000014
                },
                {
                    "name": "E5",
                    "midi": 76,
                    "time": 22.97872799999999,
                    "velocity": 0.30708661417322836,
                    "duration": 1.2765960000000014
                },
                {
                    "name": "B3",
                    "midi": 59,
                    "time": 24.25532399999999,
                    "velocity": 0.31496062992125984,
                    "duration": 0.31914899999999946
                },
                {
                    "name": "A3",
                    "midi": 57,
                    "time": 24.25532399999999,
                    "velocity": 0.2283464566929134,
                    "duration": 1.2765959999999978
                },
                {
                    "name": "D#4",
                    "midi": 63,
                    "time": 24.25532399999999,
                    "velocity": 0.2283464566929134,
                    "duration": 1.2765959999999978
                },
                {
                    "name": "F#4",
                    "midi": 66,
                    "time": 24.25532399999999,
                    "velocity": 0.2283464566929134,
                    "duration": 1.2765959999999978
                },
                {
                    "name": "B4",
                    "midi": 71,
                    "time": 24.25532399999999,
                    "velocity": 0.2283464566929134,
                    "duration": 1.2765959999999978
                },
                {
                    "name": "G#4",
                    "midi": 68,
                    "time": 24.57447299999999,
                    "velocity": 0.31496062992125984,
                    "duration": 0.6382979999999989
                },
                {
                    "name": "F#4",
                    "midi": 66,
                    "time": 25.21277099999999,
                    "velocity": 0.29133858267716534,
                    "duration": 0.31914899999999946
                },
                {
                    "name": "G#3",
                    "midi": 56,
                    "time": 25.53191999999999,
                    "velocity": 0.2283464566929134,
                    "duration": 1.2765960000000014
                },
                {
                    "name": "B3",
                    "midi": 59,
                    "time": 25.53191999999999,
                    "velocity": 0.2283464566929134,
                    "duration": 1.2765960000000014
                },
                {
                    "name": "E4",
                    "midi": 64,
                    "time": 25.53191999999999,
                    "velocity": 0.2992125984251969,
                    "duration": 1.2765960000000014
                },
                {
                    "name": "D#4",
                    "midi": 63,
                    "time": 26.80851599999999,
                    "velocity": 0.2283464566929134,
                    "duration": 1.2765959999999978
                },
                {
                    "name": "B3",
                    "midi": 59,
                    "time": 26.80851599999999,
                    "velocity": 0.2283464566929134,
                    "duration": 1.2765959999999978
                },
                {
                    "name": "F#3",
                    "midi": 54,
                    "time": 26.80851599999999,
                    "velocity": 0.28346456692913385,
                    "duration": 0.31914899999999946
                },
                {
                    "name": "G#3",
                    "midi": 56,
                    "time": 27.12766499999999,
                    "velocity": 0.30708661417322836,
                    "duration": 0.6382979999999989
                },
                {
                    "name": "F#3",
                    "midi": 54,
                    "time": 27.76596299999999,
                    "velocity": 0.2755905511811024,
                    "duration": 0.31914899999999946
                },
                {
                    "name": "E3",
                    "midi": 52,
                    "time": 28.085111999999988,
                    "velocity": 0.28346456692913385,
                    "duration": 1.2765959999999978
                },
                {
                    "name": "A#3",
                    "midi": 58,
                    "time": 28.085111999999988,
                    "velocity": 0.1968503937007874,
                    "duration": 1.2765959999999978
                },
                {
                    "name": "C#4",
                    "midi": 61,
                    "time": 28.085111999999988,
                    "velocity": 0.2047244094488189,
                    "duration": 0.6382979999999989
                },
                {
                    "name": "D#4",
                    "midi": 63,
                    "time": 28.723409999999987,
                    "velocity": 0.25984251968503935,
                    "duration": 0.31914899999999946
                },
                {
                    "name": "C#4",
                    "midi": 61,
                    "time": 29.042558999999986,
                    "velocity": 0.23622047244094488,
                    "duration": 0.31914899999999946
                },
                {
                    "name": "D#3",
                    "midi": 51,
                    "time": 29.361707999999986,
                    "velocity": 0.2125984251968504,
                    "duration": 1.2765960000000014
                },
                {
                    "name": "B3",
                    "midi": 59,
                    "time": 29.361707999999986,
                    "velocity": 0.2125984251968504,
                    "duration": 1.2765960000000014
                },
                {
                    "name": "B4",
                    "midi": 71,
                    "time": 30.638303999999987,
                    "velocity": 0.28346456692913385,
                    "duration": 1.2765960000000014
                },
                {
                    "name": "G#5",
                    "midi": 80,
                    "time": 30.638303999999987,
                    "velocity": 0.28346456692913385,
                    "duration": 1.2765960000000014
                },
                {
                    "name": "E5",
                    "midi": 76,
                    "time": 30.638303999999987,
                    "velocity": 0.28346456692913385,
                    "duration": 1.2765960000000014
                },
                {
                    "name": "B5",
                    "midi": 83,
                    "time": 30.638303999999987,
                    "velocity": 0.33070866141732286,
                    "duration": 1.2765960000000014
                },
                {
                    "name": "B4",
                    "midi": 71,
                    "time": 31.91489999999999,
                    "velocity": 0.31496062992125984,
                    "duration": 0.319149000000003
                },
                {
                    "name": "B5",
                    "midi": 83,
                    "time": 31.91489999999999,
                    "velocity": 0.2125984251968504,
                    "duration": 1.276596000000005
                },
                {
                    "name": "F#5",
                    "midi": 78,
                    "time": 31.91489999999999,
                    "velocity": 0.2125984251968504,
                    "duration": 1.276596000000005
                },
                {
                    "name": "D#5",
                    "midi": 75,
                    "time": 31.91489999999999,
                    "velocity": 0.2125984251968504,
                    "duration": 1.276596000000005
                },
                {
                    "name": "A4",
                    "midi": 69,
                    "time": 31.91489999999999,
                    "velocity": 0.2125984251968504,
                    "duration": 1.276596000000005
                },
                {
                    "name": "G#5",
                    "midi": 80,
                    "time": 32.23404899999999,
                    "velocity": 0.33070866141732286,
                    "duration": 0.6382979999999989
                },
                {
                    "name": "F#5",
                    "midi": 78,
                    "time": 32.87234699999999,
                    "velocity": 0.2992125984251969,
                    "duration": 0.319149000000003
                },
                {
                    "name": "G#4",
                    "midi": 68,
                    "time": 33.191495999999994,
                    "velocity": 0.2283464566929134,
                    "duration": 1.2765959999999978
                },
                {
                    "name": "B4",
                    "midi": 71,
                    "time": 33.191495999999994,
                    "velocity": 0.2283464566929134,
                    "duration": 1.2765959999999978
                },
                {
                    "name": "E5",
                    "midi": 76,
                    "time": 33.191495999999994,
                    "velocity": 0.30708661417322836,
                    "duration": 1.2765959999999978
                },
                {
                    "name": "B3",
                    "midi": 59,
                    "time": 34.46809199999999,
                    "velocity": 0.31496062992125984,
                    "duration": 0.319149000000003
                },
                {
                    "name": "A3",
                    "midi": 57,
                    "time": 34.46809199999999,
                    "velocity": 0.2283464566929134,
                    "duration": 1.276596000000005
                },
                {
                    "name": "D#4",
                    "midi": 63,
                    "time": 34.46809199999999,
                    "velocity": 0.2283464566929134,
                    "duration": 1.276596000000005
                },
                {
                    "name": "F#4",
                    "midi": 66,
                    "time": 34.46809199999999,
                    "velocity": 0.2283464566929134,
                    "duration": 1.276596000000005
                },
                {
                    "name": "B4",
                    "midi": 71,
                    "time": 34.46809199999999,
                    "velocity": 0.2283464566929134,
                    "duration": 1.276596000000005
                },
                {
                    "name": "G#4",
                    "midi": 68,
                    "time": 34.787240999999995,
                    "velocity": 0.31496062992125984,
                    "duration": 0.6382979999999989
                },
                {
                    "name": "F#4",
                    "midi": 66,
                    "time": 35.42553899999999,
                    "velocity": 0.29133858267716534,
                    "duration": 0.319149000000003
                },
                {
                    "name": "G#3",
                    "midi": 56,
                    "time": 35.744688,
                    "velocity": 0.2283464566929134,
                    "duration": 1.2765959999999978
                },
                {
                    "name": "B3",
                    "midi": 59,
                    "time": 35.744688,
                    "velocity": 0.2283464566929134,
                    "duration": 1.2765959999999978
                },
                {
                    "name": "E4",
                    "midi": 64,
                    "time": 35.744688,
                    "velocity": 0.2992125984251969,
                    "duration": 1.2765959999999978
                },
                {
                    "name": "D#4",
                    "midi": 63,
                    "time": 37.021283999999994,
                    "velocity": 0.2283464566929134,
                    "duration": 1.276596000000005
                },
                {
                    "name": "B3",
                    "midi": 59,
                    "time": 37.021283999999994,
                    "velocity": 0.2283464566929134,
                    "duration": 1.276596000000005
                },
                {
                    "name": "F#3",
                    "midi": 54,
                    "time": 37.021283999999994,
                    "velocity": 0.28346456692913385,
                    "duration": 0.319149000000003
                },
                {
                    "name": "G#3",
                    "midi": 56,
                    "time": 37.340433,
                    "velocity": 0.30708661417322836,
                    "duration": 0.6382979999999989
                },
                {
                    "name": "F#3",
                    "midi": 54,
                    "time": 37.978730999999996,
                    "velocity": 0.2755905511811024,
                    "duration": 0.319149000000003
                },
                {
                    "name": "E3",
                    "midi": 52,
                    "time": 38.29788,
                    "velocity": 0.28346456692913385,
                    "duration": 1.276596000000005
                },
                {
                    "name": "A#3",
                    "midi": 58,
                    "time": 38.29788,
                    "velocity": 0.1968503937007874,
                    "duration": 1.276596000000005
                },
                {
                    "name": "C#4",
                    "midi": 61,
                    "time": 38.29788,
                    "velocity": 0.2047244094488189,
                    "duration": 0.6382979999999989
                },
                {
                    "name": "D#4",
                    "midi": 63,
                    "time": 38.936178,
                    "velocity": 0.23622047244094488,
                    "duration": 0.319149000000003
                },
                {
                    "name": "C#4",
                    "midi": 61,
                    "time": 39.255327,
                    "velocity": 0.2204724409448819,
                    "duration": 0.319149000000003
                },
                {
                    "name": "D#3",
                    "midi": 51,
                    "time": 39.574476000000004,
                    "velocity": 0.1968503937007874,
                    "duration": 1.2765959999999978
                },
                {
                    "name": "B3",
                    "midi": 59,
                    "time": 39.574476000000004,
                    "velocity": 0.1968503937007874,
                    "duration": 1.2765959999999978
                },
                {
                    "name": "D4",
                    "midi": 62,
                    "time": 40.851072,
                    "velocity": 0.29133858267716534,
                    "duration": 1.2765959999999978
                },
                {
                    "name": "B3",
                    "midi": 59,
                    "time": 40.851072,
                    "velocity": 0.2047244094488189,
                    "duration": 3.8297879999999935
                },
                {
                    "name": "F#3",
                    "midi": 54,
                    "time": 40.851072,
                    "velocity": 0.2047244094488189,
                    "duration": 2.5531919999999957
                },
                {
                    "name": "C#4",
                    "midi": 61,
                    "time": 42.127668,
                    "velocity": 0.2677165354330709,
                    "duration": 1.2765959999999978
                },
                {
                    "name": "A3",
                    "midi": 57,
                    "time": 42.765966,
                    "velocity": 0.25196850393700787,
                    "duration": 1.2765959999999978
                },
                {
                    "name": "E4",
                    "midi": 64,
                    "time": 43.404264,
                    "velocity": 0.29133858267716534,
                    "duration": 2.5531919999999957
                },
                {
                    "name": "G#3",
                    "midi": 56,
                    "time": 44.042562,
                    "velocity": 0.25196850393700787,
                    "duration": 0.6382979999999989
                },
                {
                    "name": "A3",
                    "midi": 57,
                    "time": 44.680859999999996,
                    "velocity": 0.2440944881889764,
                    "duration": 1.2765959999999978
                },
                {
                    "name": "C#4",
                    "midi": 61,
                    "time": 44.680859999999996,
                    "velocity": 0.2755905511811024,
                    "duration": 1.2765959999999978
                },
                {
                    "name": "C#4",
                    "midi": 61,
                    "time": 45.95745599999999,
                    "velocity": 0.2677165354330709,
                    "duration": 3.8297879999999935
                },
                {
                    "name": "F#4",
                    "midi": 66,
                    "time": 45.95745599999999,
                    "velocity": 0.2992125984251969,
                    "duration": 1.9148939999999968
                },
                {
                    "name": "A4",
                    "midi": 69,
                    "time": 45.95745599999999,
                    "velocity": 0.2992125984251969,
                    "duration": 1.2765959999999978
                },
                {
                    "name": "G#4",
                    "midi": 68,
                    "time": 47.23405199999999,
                    "velocity": 0.2755905511811024,
                    "duration": 1.2765959999999978
                },
                {
                    "name": "E4",
                    "midi": 64,
                    "time": 47.87234999999999,
                    "velocity": 0.2677165354330709,
                    "duration": 1.9148939999999968
                },
                {
                    "name": "G#4",
                    "midi": 68,
                    "time": 48.51064799999999,
                    "velocity": 0.2677165354330709,
                    "duration": 0.6382979999999989
                },
                {
                    "name": "A#4",
                    "midi": 70,
                    "time": 48.51064799999999,
                    "velocity": 0.3464566929133858,
                    "duration": 1.2765959999999978
                },
                {
                    "name": "F#4",
                    "midi": 66,
                    "time": 49.14894599999999,
                    "velocity": 0.2992125984251969,
                    "duration": 1.9148939999999968
                },
                {
                    "name": "D#4",
                    "midi": 63,
                    "time": 49.78724399999999,
                    "velocity": 0.2440944881889764,
                    "duration": 1.2765959999999978
                },
                {
                    "name": "B4",
                    "midi": 71,
                    "time": 49.78724399999999,
                    "velocity": 0.2992125984251969,
                    "duration": 1.2765959999999978
                },
                {
                    "name": "B4",
                    "midi": 71,
                    "time": 51.063839999999985,
                    "velocity": 0.2677165354330709,
                    "duration": 1.2765959999999978
                },
                {
                    "name": "E4",
                    "midi": 64,
                    "time": 51.063839999999985,
                    "velocity": 0.2677165354330709,
                    "duration": 1.2765959999999978
                },
                {
                    "name": "E4",
                    "midi": 64,
                    "time": 52.34043599999998,
                    "velocity": 0.2283464566929134,
                    "duration": 1.2765959999999978
                },
                {
                    "name": "A4",
                    "midi": 69,
                    "time": 52.34043599999998,
                    "velocity": 0.2283464566929134,
                    "duration": 1.2765959999999978
                },
                {
                    "name": "F#4",
                    "midi": 66,
                    "time": 53.61703199999998,
                    "velocity": 0.2283464566929134,
                    "duration": 1.276596000000005
                },
                {
                    "name": "C4",
                    "midi": 60,
                    "time": 53.61703199999998,
                    "velocity": 0.36220472440944884,
                    "duration": 0.6382979999999989
                },
                {
                    "name": "D4",
                    "midi": 62,
                    "time": 54.25532999999998,
                    "velocity": 0.3543307086614173,
                    "duration": 0.319149000000003
                },
                {
                    "name": "C4",
                    "midi": 60,
                    "time": 54.57447899999998,
                    "velocity": 0.33070866141732286,
                    "duration": 0.319149000000003
                },
                {
                    "name": "G4",
                    "midi": 67,
                    "time": 54.893627999999985,
                    "velocity": 0.2283464566929134,
                    "duration": 1.2765959999999978
                },
                {
                    "name": "B3",
                    "midi": 59,
                    "time": 54.893627999999985,
                    "velocity": 0.30708661417322836,
                    "duration": 0.319149000000003
                },
                {
                    "name": "E4",
                    "midi": 64,
                    "time": 55.21277699999999,
                    "velocity": 0.29133858267716534,
                    "duration": 0.6382979999999989
                },
                {
                    "name": "D4",
                    "midi": 62,
                    "time": 55.85107499999999,
                    "velocity": 0.2677165354330709,
                    "duration": 0.30585112499999667
                },
                {
                    "name": "B4",
                    "midi": 71,
                    "time": 56.17022399999998,
                    "velocity": 0.2204724409448819,
                    "duration": 1.2765959999999978
                },
                {
                    "name": "E4",
                    "midi": 64,
                    "time": 56.17022399999998,
                    "velocity": 0.2204724409448819,
                    "duration": 1.2765959999999978
                },
                {
                    "name": "E4",
                    "midi": 64,
                    "time": 57.44681999999998,
                    "velocity": 0.2047244094488189,
                    "duration": 1.2765959999999978
                },
                {
                    "name": "A4",
                    "midi": 69,
                    "time": 57.44681999999998,
                    "velocity": 0.2047244094488189,
                    "duration": 1.2765959999999978
                },
                {
                    "name": "F#4",
                    "midi": 66,
                    "time": 58.72341599999998,
                    "velocity": 0.1889763779527559,
                    "duration": 1.276596000000005
                },
                {
                    "name": "C4",
                    "midi": 60,
                    "time": 58.72341599999998,
                    "velocity": 0.28346456692913385,
                    "duration": 0.6382979999999989
                },
                {
                    "name": "D4",
                    "midi": 62,
                    "time": 59.36171399999998,
                    "velocity": 0.2755905511811024,
                    "duration": 0.319149000000003
                },
                {
                    "name": "C4",
                    "midi": 60,
                    "time": 59.68086299999998,
                    "velocity": 0.2677165354330709,
                    "duration": 0.319149000000003
                },
                {
                    "name": "B4",
                    "midi": 71,
                    "time": 60.000011999999984,
                    "velocity": 0.2047244094488189,
                    "duration": 1.2765959999999978
                },
                {
                    "name": "B3",
                    "midi": 59,
                    "time": 60.000011999999984,
                    "velocity": 0.23622047244094488,
                    "duration": 0.319149000000003
                },
                {
                    "name": "G4",
                    "midi": 67,
                    "time": 60.31916099999999,
                    "velocity": 0.2283464566929134,
                    "duration": 0.6382979999999989
                },
                {
                    "name": "F#4",
                    "midi": 66,
                    "time": 60.957458999999986,
                    "velocity": 0.2047244094488189,
                    "duration": 0.30585112499999667
                },
                {
                    "name": "B4",
                    "midi": 71,
                    "time": 62.55320399999998,
                    "velocity": 0.33070866141732286,
                    "duration": 0.9308512499999964
                },
                {
                    "name": "F#5",
                    "midi": 78,
                    "time": 63.19150199999998,
                    "velocity": 0.29133858267716534,
                    "duration": 0.3191489999999959
                },
                {
                    "name": "B4",
                    "midi": 71,
                    "time": 63.510650999999974,
                    "velocity": 0.25984251968503935,
                    "duration": 0.319149000000003
                },
                {
                    "name": "B4",
                    "midi": 71,
                    "time": 63.82979999999998,
                    "velocity": 0.33070866141732286,
                    "duration": 1.2765959999999978
                },
                {
                    "name": "G5",
                    "midi": 79,
                    "time": 64.14894899999997,
                    "velocity": 0.3228346456692913,
                    "duration": 0.9574470000000019
                },
                {
                    "name": "B4",
                    "midi": 71,
                    "time": 65.10639599999998,
                    "velocity": 0.2992125984251969,
                    "duration": 0.9308512500000035
                },
                {
                    "name": "F#5",
                    "midi": 78,
                    "time": 65.74469399999998,
                    "velocity": 0.25984251968503935,
                    "duration": 0.3191489999999959
                },
                {
                    "name": "B4",
                    "midi": 71,
                    "time": 66.06384299999998,
                    "velocity": 0.1968503937007874,
                    "duration": 0.3191489999999959
                },
                {
                    "name": "B4",
                    "midi": 71,
                    "time": 66.38299199999997,
                    "velocity": 0.31496062992125984,
                    "duration": 1.2765959999999978
                },
                {
                    "name": "B5",
                    "midi": 83,
                    "time": 66.70214099999997,
                    "velocity": 0.3228346456692913,
                    "duration": 0.9574470000000019
                },
                {
                    "name": "C5",
                    "midi": 72,
                    "time": 67.65958799999997,
                    "velocity": 0.29133858267716534,
                    "duration": 0.9308512500000035
                },
                {
                    "name": "B5",
                    "midi": 83,
                    "time": 68.29788599999998,
                    "velocity": 0.2283464566929134,
                    "duration": 0.3191489999999959
                },
                {
                    "name": "C5",
                    "midi": 72,
                    "time": 68.61703499999997,
                    "velocity": 0.1889763779527559,
                    "duration": 0.3191489999999959
                },
                {
                    "name": "C5",
                    "midi": 72,
                    "time": 68.93618399999997,
                    "velocity": 0.2125984251968504,
                    "duration": 1.2765959999999978
                },
                {
                    "name": "A5",
                    "midi": 81,
                    "time": 69.25533299999996,
                    "velocity": 0.2204724409448819,
                    "duration": 0.9574470000000019
                },
                {
                    "name": "B4",
                    "midi": 71,
                    "time": 70.21277999999997,
                    "velocity": 0.25984251968503935,
                    "duration": 0.9308512500000035
                },
                {
                    "name": "A5",
                    "midi": 81,
                    "time": 70.85107799999997,
                    "velocity": 0.2047244094488189,
                    "duration": 0.3191489999999959
                },
                {
                    "name": "B4",
                    "midi": 71,
                    "time": 71.17022699999997,
                    "velocity": 0.1732283464566929,
                    "duration": 0.3191489999999959
                },
                {
                    "name": "B4",
                    "midi": 71,
                    "time": 71.48937599999996,
                    "velocity": 0.2047244094488189,
                    "duration": 1.2765959999999978
                },
                {
                    "name": "G5",
                    "midi": 79,
                    "time": 71.80852499999996,
                    "velocity": 0.2047244094488189,
                    "duration": 0.9574470000000019
                },
                {
                    "name": "A4",
                    "midi": 69,
                    "time": 72.76597199999996,
                    "velocity": 0.25196850393700787,
                    "duration": 0.9308512500000035
                },
                {
                    "name": "G5",
                    "midi": 79,
                    "time": 73.40426999999997,
                    "velocity": 0.1968503937007874,
                    "duration": 0.3191489999999959
                },
                {
                    "name": "A4",
                    "midi": 69,
                    "time": 73.72341899999996,
                    "velocity": 0.16535433070866143,
                    "duration": 0.3191489999999959
                },
                {
                    "name": "A4",
                    "midi": 69,
                    "time": 74.04256799999996,
                    "velocity": 0.1968503937007874,
                    "duration": 1.2765959999999978
                },
                {
                    "name": "F#5",
                    "midi": 78,
                    "time": 74.36171699999996,
                    "velocity": 0.2047244094488189,
                    "duration": 0.9574470000000019
                },
                {
                    "name": "A4",
                    "midi": 69,
                    "time": 75.31916399999996,
                    "velocity": 0.15748031496062992,
                    "duration": 5.106384000000006
                },
                {
                    "name": "E5",
                    "midi": 76,
                    "time": 75.31916399999996,
                    "velocity": 0.15748031496062992,
                    "duration": 5.106384000000006
                }
            ],
            "controlChanges": {
                "7": [
                    {
                        "number": 7,
                        "time": 0,
                        "value": 0.7874015748031497
                    }
                ],
                "10": [
                    {
                        "number": 10,
                        "time": 0,
                        "value": 0.5039370078740157
                    }
                ],
                "91": [
                    {
                        "number": 91,
                        "time": 0,
                        "value": 1
                    },
                    {
                        "number": 91,
                        "time": 10.212768,
                        "value": 1
                    },
                    {
                        "number": 91,
                        "time": 40.851072,
                        "value": 1
                    },
                    {
                        "number": 91,
                        "time": 61.27660799999998,
                        "value": 1
                    }
                ]
            },
            "id": 1,
            "name": "Piano right",
            "instrumentNumber": 0,
            "instrument": "acoustic grand piano",
            "instrumentFamily": "piano",
            "channelNumber": 0,
            "isPercussion": false
        },
        {
            "startTime": 0,
            "duration": 80.42554800000003,
            "length": 234,
            "notes": [
                {
                    "name": "E3",
                    "midi": 52,
                    "time": 0,
                    "velocity": 0.2992125984251969,
                    "duration": 1.276596
                },
                {
                    "name": "G3",
                    "midi": 55,
                    "time": 0,
                    "velocity": 0.2992125984251969,
                    "duration": 1.276596
                },
                {
                    "name": "B3",
                    "midi": 59,
                    "time": 0,
                    "velocity": 0.4330708661417323,
                    "duration": 0.638298
                },
                {
                    "name": "C4",
                    "midi": 60,
                    "time": 0.638298,
                    "velocity": 0.3937007874015748,
                    "duration": 0.319149
                },
                {
                    "name": "B3",
                    "midi": 59,
                    "time": 0.957447,
                    "velocity": 0.3937007874015748,
                    "duration": 0.319149
                },
                {
                    "name": "D#3",
                    "midi": 51,
                    "time": 1.276596,
                    "velocity": 0.25984251968503935,
                    "duration": 1.276596
                },
                {
                    "name": "B3",
                    "midi": 59,
                    "time": 1.276596,
                    "velocity": 0.41732283464566927,
                    "duration": 0.3191489999999999
                },
                {
                    "name": "F#3",
                    "midi": 54,
                    "time": 1.276596,
                    "velocity": 0.25984251968503935,
                    "duration": 1.276596
                },
                {
                    "name": "F#4",
                    "midi": 66,
                    "time": 1.595745,
                    "velocity": 0.3464566929133858,
                    "duration": 0.9574470000000002
                },
                {
                    "name": "E3",
                    "midi": 52,
                    "time": 2.553192,
                    "velocity": 0.28346456692913385,
                    "duration": 1.2765959999999996
                },
                {
                    "name": "B3",
                    "midi": 59,
                    "time": 2.553192,
                    "velocity": 0.3937007874015748,
                    "duration": 0.6382979999999998
                },
                {
                    "name": "G3",
                    "midi": 55,
                    "time": 2.553192,
                    "velocity": 0.28346456692913385,
                    "duration": 1.2765959999999996
                },
                {
                    "name": "C4",
                    "midi": 60,
                    "time": 3.19149,
                    "velocity": 0.3937007874015748,
                    "duration": 0.3191489999999999
                },
                {
                    "name": "B3",
                    "midi": 59,
                    "time": 3.510639,
                    "velocity": 0.3937007874015748,
                    "duration": 0.3191489999999999
                },
                {
                    "name": "D#3",
                    "midi": 51,
                    "time": 3.8297879999999997,
                    "velocity": 0.2283464566929134,
                    "duration": 1.2765960000000005
                },
                {
                    "name": "B3",
                    "midi": 59,
                    "time": 3.8297879999999997,
                    "velocity": 0.3779527559055118,
                    "duration": 0.31914900000000035
                },
                {
                    "name": "F#3",
                    "midi": 54,
                    "time": 3.8297879999999997,
                    "velocity": 0.2283464566929134,
                    "duration": 1.2765960000000005
                },
                {
                    "name": "F#4",
                    "midi": 66,
                    "time": 4.148937,
                    "velocity": 0.30708661417322836,
                    "duration": 0.9574470000000002
                },
                {
                    "name": "E3",
                    "midi": 52,
                    "time": 5.106384,
                    "velocity": 0.23622047244094488,
                    "duration": 1.2765960000000005
                },
                {
                    "name": "B3",
                    "midi": 59,
                    "time": 5.106384,
                    "velocity": 0.3228346456692913,
                    "duration": 0.6382979999999998
                },
                {
                    "name": "G3",
                    "midi": 55,
                    "time": 5.106384,
                    "velocity": 0.23622047244094488,
                    "duration": 1.2765960000000005
                },
                {
                    "name": "C4",
                    "midi": 60,
                    "time": 5.744682,
                    "velocity": 0.3228346456692913,
                    "duration": 0.31914900000000035
                },
                {
                    "name": "B3",
                    "midi": 59,
                    "time": 6.063831,
                    "velocity": 0.3228346456692913,
                    "duration": 0.31914900000000035
                },
                {
                    "name": "D3",
                    "midi": 50,
                    "time": 6.382980000000001,
                    "velocity": 0.2047244094488189,
                    "duration": 1.2765959999999996
                },
                {
                    "name": "F#3",
                    "midi": 54,
                    "time": 6.382980000000001,
                    "velocity": 0.2047244094488189,
                    "duration": 1.2765959999999996
                },
                {
                    "name": "B3",
                    "midi": 59,
                    "time": 6.382980000000001,
                    "velocity": 0.30708661417322836,
                    "duration": 0.31914899999999946
                },
                {
                    "name": "F#4",
                    "midi": 66,
                    "time": 6.702129,
                    "velocity": 0.2755905511811024,
                    "duration": 0.9574470000000002
                },
                {
                    "name": "C3",
                    "midi": 48,
                    "time": 7.659576,
                    "velocity": 0.18110236220472442,
                    "duration": 1.2765959999999987
                },
                {
                    "name": "E3",
                    "midi": 52,
                    "time": 7.659576,
                    "velocity": 0.1732283464566929,
                    "duration": 1.2765959999999987
                },
                {
                    "name": "B3",
                    "midi": 59,
                    "time": 7.659576,
                    "velocity": 0.29133858267716534,
                    "duration": 0.6382979999999998
                },
                {
                    "name": "C4",
                    "midi": 60,
                    "time": 8.297874,
                    "velocity": 0.25984251968503935,
                    "duration": 0.31914899999999946
                },
                {
                    "name": "B3",
                    "midi": 59,
                    "time": 8.617023,
                    "velocity": 0.2677165354330709,
                    "duration": 0.31914899999999946
                },
                {
                    "name": "B2",
                    "midi": 47,
                    "time": 8.936172,
                    "velocity": 0.14960629921259844,
                    "duration": 1.2765959999999996
                },
                {
                    "name": "D#3",
                    "midi": 51,
                    "time": 8.936172,
                    "velocity": 0.14960629921259844,
                    "duration": 1.2765959999999996
                },
                {
                    "name": "B3",
                    "midi": 59,
                    "time": 8.936172,
                    "velocity": 0.28346456692913385,
                    "duration": 0.31914899999999946
                },
                {
                    "name": "F#4",
                    "midi": 66,
                    "time": 9.255320999999999,
                    "velocity": 0.2440944881889764,
                    "duration": 0.9574470000000002
                },
                {
                    "name": "E3",
                    "midi": 52,
                    "time": 10.212767999999999,
                    "velocity": 0.2440944881889764,
                    "duration": 1.2765959999999978
                },
                {
                    "name": "B3",
                    "midi": 59,
                    "time": 10.212767999999999,
                    "velocity": 0.3700787401574803,
                    "duration": 0.6382979999999989
                },
                {
                    "name": "G3",
                    "midi": 55,
                    "time": 10.212767999999999,
                    "velocity": 0.2677165354330709,
                    "duration": 1.2765959999999978
                },
                {
                    "name": "C4",
                    "midi": 60,
                    "time": 10.851065999999998,
                    "velocity": 0.3543307086614173,
                    "duration": 0.31914899999999946
                },
                {
                    "name": "B3",
                    "midi": 59,
                    "time": 11.170214999999997,
                    "velocity": 0.3543307086614173,
                    "duration": 0.31914899999999946
                },
                {
                    "name": "D#3",
                    "midi": 51,
                    "time": 11.489363999999997,
                    "velocity": 0.2283464566929134,
                    "duration": 1.2765959999999996
                },
                {
                    "name": "F#3",
                    "midi": 54,
                    "time": 11.489363999999997,
                    "velocity": 0.2283464566929134,
                    "duration": 1.2765959999999996
                },
                {
                    "name": "B3",
                    "midi": 59,
                    "time": 11.489363999999997,
                    "velocity": 0.3779527559055118,
                    "duration": 0.31914899999999946
                },
                {
                    "name": "F#4",
                    "midi": 66,
                    "time": 11.808512999999996,
                    "velocity": 0.30708661417322836,
                    "duration": 0.9574470000000002
                },
                {
                    "name": "E3",
                    "midi": 52,
                    "time": 12.765959999999996,
                    "velocity": 0.2755905511811024,
                    "duration": 1.2765959999999978
                },
                {
                    "name": "G3",
                    "midi": 55,
                    "time": 12.765959999999996,
                    "velocity": 0.2755905511811024,
                    "duration": 1.2765959999999978
                },
                {
                    "name": "B3",
                    "midi": 59,
                    "time": 12.765959999999996,
                    "velocity": 0.3779527559055118,
                    "duration": 0.6382979999999989
                },
                {
                    "name": "C4",
                    "midi": 60,
                    "time": 13.404257999999995,
                    "velocity": 0.3937007874015748,
                    "duration": 0.31914899999999946
                },
                {
                    "name": "B3",
                    "midi": 59,
                    "time": 13.723406999999995,
                    "velocity": 0.3937007874015748,
                    "duration": 0.31914899999999946
                },
                {
                    "name": "D#3",
                    "midi": 51,
                    "time": 14.042555999999994,
                    "velocity": 0.2125984251968504,
                    "duration": 1.2765959999999996
                },
                {
                    "name": "F#3",
                    "midi": 54,
                    "time": 14.042555999999994,
                    "velocity": 0.2125984251968504,
                    "duration": 1.2765959999999996
                },
                {
                    "name": "B3",
                    "midi": 59,
                    "time": 14.042555999999994,
                    "velocity": 0.3543307086614173,
                    "duration": 0.31914899999999946
                },
                {
                    "name": "F#4",
                    "midi": 66,
                    "time": 14.361704999999994,
                    "velocity": 0.30708661417322836,
                    "duration": 0.9574470000000002
                },
                {
                    "name": "E3",
                    "midi": 52,
                    "time": 15.319151999999994,
                    "velocity": 0.2283464566929134,
                    "duration": 1.2765959999999996
                },
                {
                    "name": "G3",
                    "midi": 55,
                    "time": 15.319151999999994,
                    "velocity": 0.2283464566929134,
                    "duration": 1.2765959999999996
                },
                {
                    "name": "B3",
                    "midi": 59,
                    "time": 15.319151999999994,
                    "velocity": 0.30708661417322836,
                    "duration": 0.6382979999999989
                },
                {
                    "name": "C4",
                    "midi": 60,
                    "time": 15.957449999999993,
                    "velocity": 0.29133858267716534,
                    "duration": 0.31914900000000124
                },
                {
                    "name": "B3",
                    "midi": 59,
                    "time": 16.276598999999994,
                    "velocity": 0.28346456692913385,
                    "duration": 0.31914899999999946
                },
                {
                    "name": "F#3",
                    "midi": 54,
                    "time": 16.595747999999993,
                    "velocity": 0.1968503937007874,
                    "duration": 1.2765959999999978
                },
                {
                    "name": "B3",
                    "midi": 59,
                    "time": 16.595747999999993,
                    "velocity": 0.28346456692913385,
                    "duration": 0.31914899999999946
                },
                {
                    "name": "D3",
                    "midi": 50,
                    "time": 16.595747999999993,
                    "velocity": 0.1968503937007874,
                    "duration": 1.2765959999999978
                },
                {
                    "name": "F#4",
                    "midi": 66,
                    "time": 16.914896999999993,
                    "velocity": 0.25984251968503935,
                    "duration": 0.9574469999999984
                },
                {
                    "name": "E3",
                    "midi": 52,
                    "time": 17.87234399999999,
                    "velocity": 0.14960629921259844,
                    "duration": 1.2765959999999978
                },
                {
                    "name": "B3",
                    "midi": 59,
                    "time": 17.87234399999999,
                    "velocity": 0.2677165354330709,
                    "duration": 0.6382979999999989
                },
                {
                    "name": "C3",
                    "midi": 48,
                    "time": 17.87234399999999,
                    "velocity": 0.15748031496062992,
                    "duration": 1.2765959999999978
                },
                {
                    "name": "C4",
                    "midi": 60,
                    "time": 18.51064199999999,
                    "velocity": 0.2283464566929134,
                    "duration": 0.31914899999999946
                },
                {
                    "name": "B3",
                    "midi": 59,
                    "time": 18.82979099999999,
                    "velocity": 0.23622047244094488,
                    "duration": 0.31914899999999946
                },
                {
                    "name": "D#3",
                    "midi": 51,
                    "time": 19.14893999999999,
                    "velocity": 0.12598425196850394,
                    "duration": 1.2765959999999978
                },
                {
                    "name": "B3",
                    "midi": 59,
                    "time": 19.14893999999999,
                    "velocity": 0.23622047244094488,
                    "duration": 0.31914899999999946
                },
                {
                    "name": "B2",
                    "midi": 47,
                    "time": 19.14893999999999,
                    "velocity": 0.12598425196850394,
                    "duration": 1.2765959999999978
                },
                {
                    "name": "F#4",
                    "midi": 66,
                    "time": 19.46808899999999,
                    "velocity": 0.2204724409448819,
                    "duration": 0.9574469999999984
                },
                {
                    "name": "E2",
                    "midi": 40,
                    "time": 20.425535999999987,
                    "velocity": 0.2677165354330709,
                    "duration": 1.2765959999999978
                },
                {
                    "name": "B2",
                    "midi": 47,
                    "time": 20.425535999999987,
                    "velocity": 0.2677165354330709,
                    "duration": 0.6382979999999989
                },
                {
                    "name": "C#3",
                    "midi": 49,
                    "time": 21.063833999999986,
                    "velocity": 0.31496062992125984,
                    "duration": 0.31914899999999946
                },
                {
                    "name": "B2",
                    "midi": 47,
                    "time": 21.382982999999985,
                    "velocity": 0.2992125984251969,
                    "duration": 0.31914899999999946
                },
                {
                    "name": "E2",
                    "midi": 40,
                    "time": 21.702131999999985,
                    "velocity": 0.25984251968503935,
                    "duration": 1.2765959999999978
                },
                {
                    "name": "B2",
                    "midi": 47,
                    "time": 21.702131999999985,
                    "velocity": 0.2992125984251969,
                    "duration": 0.31914899999999946
                },
                {
                    "name": "G#3",
                    "midi": 56,
                    "time": 22.021280999999984,
                    "velocity": 0.31496062992125984,
                    "duration": 0.6382979999999989
                },
                {
                    "name": "F#3",
                    "midi": 54,
                    "time": 22.659578999999983,
                    "velocity": 0.28346456692913385,
                    "duration": 0.31914899999999946
                },
                {
                    "name": "E2",
                    "midi": 40,
                    "time": 22.978727999999983,
                    "velocity": 0.25984251968503935,
                    "duration": 1.2765959999999978
                },
                {
                    "name": "B2",
                    "midi": 47,
                    "time": 22.978727999999983,
                    "velocity": 0.2992125984251969,
                    "duration": 0.6382979999999989
                },
                {
                    "name": "C#3",
                    "midi": 49,
                    "time": 23.61702599999998,
                    "velocity": 0.29133858267716534,
                    "duration": 0.31914899999999946
                },
                {
                    "name": "B2",
                    "midi": 47,
                    "time": 23.93617499999998,
                    "velocity": 0.29133858267716534,
                    "duration": 0.31914899999999946
                },
                {
                    "name": "E2",
                    "midi": 40,
                    "time": 24.25532399999998,
                    "velocity": 0.25984251968503935,
                    "duration": 1.2765959999999978
                },
                {
                    "name": "B2",
                    "midi": 47,
                    "time": 24.25532399999998,
                    "velocity": 0.2992125984251969,
                    "duration": 0.31914899999999946
                },
                {
                    "name": "G#3",
                    "midi": 56,
                    "time": 24.57447299999998,
                    "velocity": 0.2992125984251969,
                    "duration": 0.6382979999999989
                },
                {
                    "name": "F#3",
                    "midi": 54,
                    "time": 25.21277099999998,
                    "velocity": 0.2755905511811024,
                    "duration": 0.31914899999999946
                },
                {
                    "name": "E2",
                    "midi": 40,
                    "time": 25.531919999999978,
                    "velocity": 0.25984251968503935,
                    "duration": 1.2765959999999978
                },
                {
                    "name": "B2",
                    "midi": 47,
                    "time": 25.531919999999978,
                    "velocity": 0.2992125984251969,
                    "duration": 0.6382979999999989
                },
                {
                    "name": "C#3",
                    "midi": 49,
                    "time": 26.170217999999977,
                    "velocity": 0.2755905511811024,
                    "duration": 0.31914899999999946
                },
                {
                    "name": "B2",
                    "midi": 47,
                    "time": 26.489366999999977,
                    "velocity": 0.2755905511811024,
                    "duration": 0.31914899999999946
                },
                {
                    "name": "B2",
                    "midi": 47,
                    "time": 26.808515999999976,
                    "velocity": 0.25984251968503935,
                    "duration": 1.2765959999999978
                },
                {
                    "name": "F#2",
                    "midi": 42,
                    "time": 26.808515999999976,
                    "velocity": 0.2677165354330709,
                    "duration": 0.31914899999999946
                },
                {
                    "name": "G#2",
                    "midi": 44,
                    "time": 27.127664999999975,
                    "velocity": 0.28346456692913385,
                    "duration": 0.6382979999999989
                },
                {
                    "name": "F#2",
                    "midi": 42,
                    "time": 27.765962999999974,
                    "velocity": 0.25984251968503935,
                    "duration": 0.31914899999999946
                },
                {
                    "name": "F#2",
                    "midi": 42,
                    "time": 28.085111999999974,
                    "velocity": 0.2125984251968504,
                    "duration": 1.2765960000000014
                },
                {
                    "name": "F#1",
                    "midi": 30,
                    "time": 29.361707999999975,
                    "velocity": 0.25984251968503935,
                    "duration": 0.31914899999999946
                },
                {
                    "name": "F#2",
                    "midi": 42,
                    "time": 29.361707999999975,
                    "velocity": 0.25984251968503935,
                    "duration": 0.31914899999999946
                },
                {
                    "name": "G#1",
                    "midi": 32,
                    "time": 29.680856999999975,
                    "velocity": 0.25984251968503935,
                    "duration": 0.6382979999999989
                },
                {
                    "name": "G#2",
                    "midi": 44,
                    "time": 29.680856999999975,
                    "velocity": 0.25984251968503935,
                    "duration": 0.6382979999999989
                },
                {
                    "name": "F#1",
                    "midi": 30,
                    "time": 30.319154999999974,
                    "velocity": 0.2125984251968504,
                    "duration": 0.31914899999999946
                },
                {
                    "name": "F#2",
                    "midi": 42,
                    "time": 30.319154999999974,
                    "velocity": 0.2125984251968504,
                    "duration": 0.31914899999999946
                },
                {
                    "name": "E1",
                    "midi": 28,
                    "time": 30.638303999999973,
                    "velocity": 0.28346456692913385,
                    "duration": 0.6382980000000025
                },
                {
                    "name": "E2",
                    "midi": 40,
                    "time": 30.638303999999973,
                    "velocity": 0.28346456692913385,
                    "duration": 0.6382980000000025
                },
                {
                    "name": "C#3",
                    "midi": 49,
                    "time": 31.276601999999976,
                    "velocity": 0.2992125984251969,
                    "duration": 0.31914899999999946
                },
                {
                    "name": "B2",
                    "midi": 47,
                    "time": 31.595750999999975,
                    "velocity": 0.28346456692913385,
                    "duration": 0.31914899999999946
                },
                {
                    "name": "E2",
                    "midi": 40,
                    "time": 31.914899999999975,
                    "velocity": 0.25984251968503935,
                    "duration": 1.2765959999999978
                },
                {
                    "name": "B2",
                    "midi": 47,
                    "time": 31.914899999999975,
                    "velocity": 0.2677165354330709,
                    "duration": 0.3191489999999959
                },
                {
                    "name": "G#3",
                    "midi": 56,
                    "time": 32.23404899999997,
                    "velocity": 0.31496062992125984,
                    "duration": 0.6382979999999989
                },
                {
                    "name": "F#3",
                    "midi": 54,
                    "time": 32.87234699999997,
                    "velocity": 0.28346456692913385,
                    "duration": 0.319149000000003
                },
                {
                    "name": "E2",
                    "midi": 40,
                    "time": 33.19149599999997,
                    "velocity": 0.25984251968503935,
                    "duration": 1.276596000000005
                },
                {
                    "name": "B2",
                    "midi": 47,
                    "time": 33.19149599999997,
                    "velocity": 0.2992125984251969,
                    "duration": 0.6382979999999989
                },
                {
                    "name": "C#3",
                    "midi": 49,
                    "time": 33.82979399999997,
                    "velocity": 0.29133858267716534,
                    "duration": 0.319149000000003
                },
                {
                    "name": "B2",
                    "midi": 47,
                    "time": 34.148942999999974,
                    "velocity": 0.28346456692913385,
                    "duration": 0.319149000000003
                },
                {
                    "name": "E2",
                    "midi": 40,
                    "time": 34.46809199999998,
                    "velocity": 0.25984251968503935,
                    "duration": 1.276596000000005
                },
                {
                    "name": "B2",
                    "midi": 47,
                    "time": 34.46809199999998,
                    "velocity": 0.2992125984251969,
                    "duration": 0.319149000000003
                },
                {
                    "name": "G#3",
                    "midi": 56,
                    "time": 34.78724099999998,
                    "velocity": 0.2992125984251969,
                    "duration": 0.6382979999999989
                },
                {
                    "name": "F#3",
                    "midi": 54,
                    "time": 35.42553899999998,
                    "velocity": 0.2755905511811024,
                    "duration": 0.319149000000003
                },
                {
                    "name": "E2",
                    "midi": 40,
                    "time": 35.74468799999998,
                    "velocity": 0.25984251968503935,
                    "duration": 1.276596000000005
                },
                {
                    "name": "B2",
                    "midi": 47,
                    "time": 35.74468799999998,
                    "velocity": 0.2992125984251969,
                    "duration": 0.6382979999999989
                },
                {
                    "name": "C#3",
                    "midi": 49,
                    "time": 36.38298599999998,
                    "velocity": 0.2755905511811024,
                    "duration": 0.319149000000003
                },
                {
                    "name": "B2",
                    "midi": 47,
                    "time": 36.702134999999984,
                    "velocity": 0.2755905511811024,
                    "duration": 0.319149000000003
                },
                {
                    "name": "B2",
                    "midi": 47,
                    "time": 37.02128399999999,
                    "velocity": 0.25984251968503935,
                    "duration": 1.2765959999999978
                },
                {
                    "name": "F#2",
                    "midi": 42,
                    "time": 37.02128399999999,
                    "velocity": 0.2677165354330709,
                    "duration": 0.3191489999999959
                },
                {
                    "name": "G#2",
                    "midi": 44,
                    "time": 37.34043299999998,
                    "velocity": 0.28346456692913385,
                    "duration": 0.6382979999999989
                },
                {
                    "name": "F#2",
                    "midi": 42,
                    "time": 37.97873099999998,
                    "velocity": 0.25984251968503935,
                    "duration": 0.319149000000003
                },
                {
                    "name": "F#2",
                    "midi": 42,
                    "time": 38.297879999999985,
                    "velocity": 0.2125984251968504,
                    "duration": 1.2765959999999978
                },
                {
                    "name": "F#1",
                    "midi": 30,
                    "time": 39.57447599999998,
                    "velocity": 0.23622047244094488,
                    "duration": 0.319149000000003
                },
                {
                    "name": "F#2",
                    "midi": 42,
                    "time": 39.57447599999998,
                    "velocity": 0.23622047244094488,
                    "duration": 0.319149000000003
                },
                {
                    "name": "G#1",
                    "midi": 32,
                    "time": 39.893624999999986,
                    "velocity": 0.23622047244094488,
                    "duration": 0.6382979999999989
                },
                {
                    "name": "G#2",
                    "midi": 44,
                    "time": 39.893624999999986,
                    "velocity": 0.23622047244094488,
                    "duration": 0.6382979999999989
                },
                {
                    "name": "F#1",
                    "midi": 30,
                    "time": 40.531922999999985,
                    "velocity": 0.18110236220472442,
                    "duration": 0.319149000000003
                },
                {
                    "name": "F#2",
                    "midi": 42,
                    "time": 40.531922999999985,
                    "velocity": 0.18110236220472442,
                    "duration": 0.319149000000003
                },
                {
                    "name": "B1",
                    "midi": 35,
                    "time": 40.85107199999999,
                    "velocity": 0.33070866141732286,
                    "duration": 0.6382979999999989
                },
                {
                    "name": "C#2",
                    "midi": 37,
                    "time": 41.48936999999999,
                    "velocity": 0.2755905511811024,
                    "duration": 0.319149000000003
                },
                {
                    "name": "B1",
                    "midi": 35,
                    "time": 41.80851899999999,
                    "velocity": 0.2755905511811024,
                    "duration": 0.319149000000003
                },
                {
                    "name": "F#1",
                    "midi": 30,
                    "time": 42.12766799999999,
                    "velocity": 0.2677165354330709,
                    "duration": 0.319149000000003
                },
                {
                    "name": "F#2",
                    "midi": 42,
                    "time": 42.446816999999996,
                    "velocity": 0.2677165354330709,
                    "duration": 0.6382979999999989
                },
                {
                    "name": "F#1",
                    "midi": 30,
                    "time": 43.085114999999995,
                    "velocity": 0.25984251968503935,
                    "duration": 0.319149000000003
                },
                {
                    "name": "E1",
                    "midi": 28,
                    "time": 43.404264,
                    "velocity": 0.2677165354330709,
                    "duration": 0.6382979999999989
                },
                {
                    "name": "F#1",
                    "midi": 30,
                    "time": 44.042562,
                    "velocity": 0.2677165354330709,
                    "duration": 0.319149000000003
                },
                {
                    "name": "E1",
                    "midi": 28,
                    "time": 44.361711,
                    "velocity": 0.2677165354330709,
                    "duration": 0.319149000000003
                },
                {
                    "name": "A1",
                    "midi": 33,
                    "time": 44.68086,
                    "velocity": 0.29133858267716534,
                    "duration": 0.319149000000003
                },
                {
                    "name": "A2",
                    "midi": 45,
                    "time": 45.000009000000006,
                    "velocity": 0.31496062992125984,
                    "duration": 0.6382979999999989
                },
                {
                    "name": "G#2",
                    "midi": 44,
                    "time": 45.638307000000005,
                    "velocity": 0.29133858267716534,
                    "duration": 0.319149000000003
                },
                {
                    "name": "F#2",
                    "midi": 42,
                    "time": 45.95745600000001,
                    "velocity": 0.2755905511811024,
                    "duration": 0.6382979999999989
                },
                {
                    "name": "G#2",
                    "midi": 44,
                    "time": 46.59575400000001,
                    "velocity": 0.2677165354330709,
                    "duration": 0.319149000000003
                },
                {
                    "name": "F#2",
                    "midi": 42,
                    "time": 46.91490300000001,
                    "velocity": 0.2677165354330709,
                    "duration": 0.319149000000003
                },
                {
                    "name": "C#2",
                    "midi": 37,
                    "time": 47.23405200000001,
                    "velocity": 0.23622047244094488,
                    "duration": 0.319149000000003
                },
                {
                    "name": "C#3",
                    "midi": 49,
                    "time": 47.553201000000016,
                    "velocity": 0.25984251968503935,
                    "duration": 0.6382979999999989
                },
                {
                    "name": "C#2",
                    "midi": 37,
                    "time": 48.191499000000015,
                    "velocity": 0.2047244094488189,
                    "duration": 0.319149000000003
                },
                {
                    "name": "F#2",
                    "midi": 42,
                    "time": 48.51064800000002,
                    "velocity": 0.25984251968503935,
                    "duration": 0.319149000000003
                },
                {
                    "name": "F#3",
                    "midi": 54,
                    "time": 48.82979700000002,
                    "velocity": 0.29133858267716534,
                    "duration": 0.6382979999999989
                },
                {
                    "name": "F#2",
                    "midi": 42,
                    "time": 49.46809500000002,
                    "velocity": 0.2677165354330709,
                    "duration": 0.319149000000003
                },
                {
                    "name": "B1",
                    "midi": 35,
                    "time": 49.78724400000002,
                    "velocity": 0.29133858267716534,
                    "duration": 0.319149000000003
                },
                {
                    "name": "B2",
                    "midi": 47,
                    "time": 50.106393000000025,
                    "velocity": 0.3228346456692913,
                    "duration": 0.6382979999999989
                },
                {
                    "name": "B2",
                    "midi": 47,
                    "time": 50.744691000000024,
                    "velocity": 0.3228346456692913,
                    "duration": 0.319149000000003
                },
                {
                    "name": "C3",
                    "midi": 48,
                    "time": 51.06384000000003,
                    "velocity": 0.2440944881889764,
                    "duration": 2.55319200000001
                },
                {
                    "name": "B3",
                    "midi": 59,
                    "time": 51.06384000000003,
                    "velocity": 0.3779527559055118,
                    "duration": 0.6382979999999989
                },
                {
                    "name": "C4",
                    "midi": 60,
                    "time": 51.702138000000026,
                    "velocity": 0.36220472440944884,
                    "duration": 0.319149000000003
                },
                {
                    "name": "B3",
                    "midi": 59,
                    "time": 52.02128700000003,
                    "velocity": 0.3543307086614173,
                    "duration": 0.319149000000003
                },
                {
                    "name": "B3",
                    "midi": 59,
                    "time": 52.34043600000003,
                    "velocity": 0.3779527559055118,
                    "duration": 0.319149000000003
                },
                {
                    "name": "D4",
                    "midi": 62,
                    "time": 52.659585000000035,
                    "velocity": 0.3937007874015748,
                    "duration": 0.6382979999999989
                },
                {
                    "name": "C4",
                    "midi": 60,
                    "time": 53.297883000000034,
                    "velocity": 0.3464566929133858,
                    "duration": 0.319149000000003
                },
                {
                    "name": "B3",
                    "midi": 59,
                    "time": 53.61703200000004,
                    "velocity": 0.2677165354330709,
                    "duration": 0.6382979999999989
                },
                {
                    "name": "D3",
                    "midi": 50,
                    "time": 53.61703200000004,
                    "velocity": 0.2283464566929134,
                    "duration": 1.2765959999999978
                },
                {
                    "name": "A3",
                    "midi": 57,
                    "time": 54.255330000000036,
                    "velocity": 0.2283464566929134,
                    "duration": 0.6382979999999989
                },
                {
                    "name": "G3",
                    "midi": 55,
                    "time": 54.893628000000035,
                    "velocity": 0.25984251968503935,
                    "duration": 1.276596000000005
                },
                {
                    "name": "C4",
                    "midi": 60,
                    "time": 55.21277700000004,
                    "velocity": 0.29133858267716534,
                    "duration": 0.6382979999999989
                },
                {
                    "name": "B3",
                    "midi": 59,
                    "time": 55.85107500000004,
                    "velocity": 0.2677165354330709,
                    "duration": 0.319149000000003
                },
                {
                    "name": "C3",
                    "midi": 48,
                    "time": 56.17022400000004,
                    "velocity": 0.2283464566929134,
                    "duration": 2.55319200000001
                },
                {
                    "name": "B3",
                    "midi": 59,
                    "time": 56.17022400000004,
                    "velocity": 0.30708661417322836,
                    "duration": 0.6382979999999989
                },
                {
                    "name": "C4",
                    "midi": 60,
                    "time": 56.80852200000004,
                    "velocity": 0.25984251968503935,
                    "duration": 0.319149000000003
                },
                {
                    "name": "B3",
                    "midi": 59,
                    "time": 57.12767100000004,
                    "velocity": 0.25984251968503935,
                    "duration": 0.319149000000003
                },
                {
                    "name": "B3",
                    "midi": 59,
                    "time": 57.446820000000045,
                    "velocity": 0.28346456692913385,
                    "duration": 0.319149000000003
                },
                {
                    "name": "D4",
                    "midi": 62,
                    "time": 57.76596900000005,
                    "velocity": 0.2992125984251969,
                    "duration": 0.6382979999999989
                },
                {
                    "name": "C4",
                    "midi": 60,
                    "time": 58.40426700000005,
                    "velocity": 0.25984251968503935,
                    "duration": 0.319149000000003
                },
                {
                    "name": "B3",
                    "midi": 59,
                    "time": 58.72341600000005,
                    "velocity": 0.2283464566929134,
                    "duration": 0.6382979999999989
                },
                {
                    "name": "D3",
                    "midi": 50,
                    "time": 58.72341600000005,
                    "velocity": 0.1889763779527559,
                    "duration": 1.2765959999999978
                },
                {
                    "name": "A3",
                    "midi": 57,
                    "time": 59.36171400000005,
                    "velocity": 0.2047244094488189,
                    "duration": 0.6382979999999989
                },
                {
                    "name": "G3",
                    "midi": 55,
                    "time": 60.00001200000005,
                    "velocity": 0.2047244094488189,
                    "duration": 0.319149000000003
                },
                {
                    "name": "D#3",
                    "midi": 51,
                    "time": 60.00001200000005,
                    "velocity": 0.2283464566929134,
                    "duration": 1.276596000000005
                },
                {
                    "name": "B3",
                    "midi": 59,
                    "time": 60.31916100000005,
                    "velocity": 0.2283464566929134,
                    "duration": 0.6382979999999989
                },
                {
                    "name": "A3",
                    "midi": 57,
                    "time": 60.95745900000005,
                    "velocity": 0.2047244094488189,
                    "duration": 0.319149000000003
                },
                {
                    "name": "E3",
                    "midi": 52,
                    "time": 61.27660800000005,
                    "velocity": 0.2440944881889764,
                    "duration": 1.276596000000005
                },
                {
                    "name": "G3",
                    "midi": 55,
                    "time": 61.27660800000005,
                    "velocity": 0.2440944881889764,
                    "duration": 0.6382979999999989
                },
                {
                    "name": "C4",
                    "midi": 60,
                    "time": 61.91490600000005,
                    "velocity": 0.31496062992125984,
                    "duration": 0.319149000000003
                },
                {
                    "name": "B3",
                    "midi": 59,
                    "time": 62.234055000000055,
                    "velocity": 0.31496062992125984,
                    "duration": 0.319149000000003
                },
                {
                    "name": "D#3",
                    "midi": 51,
                    "time": 62.55320400000006,
                    "velocity": 0.2125984251968504,
                    "duration": 1.276596000000005
                },
                {
                    "name": "F#3",
                    "midi": 54,
                    "time": 62.55320400000006,
                    "velocity": 0.2125984251968504,
                    "duration": 1.276596000000005
                },
                {
                    "name": "B3",
                    "midi": 59,
                    "time": 62.55320400000006,
                    "velocity": 0.33070866141732286,
                    "duration": 0.319149000000003
                },
                {
                    "name": "F#4",
                    "midi": 66,
                    "time": 62.87235300000006,
                    "velocity": 0.29133858267716534,
                    "duration": 0.9574470000000019
                },
                {
                    "name": "E3",
                    "midi": 52,
                    "time": 63.82980000000006,
                    "velocity": 0.23622047244094488,
                    "duration": 1.2765959999999978
                },
                {
                    "name": "G3",
                    "midi": 55,
                    "time": 63.82980000000006,
                    "velocity": 0.23622047244094488,
                    "duration": 1.2765959999999978
                },
                {
                    "name": "B3",
                    "midi": 59,
                    "time": 63.82980000000006,
                    "velocity": 0.33070866141732286,
                    "duration": 0.638298000000006
                },
                {
                    "name": "C4",
                    "midi": 60,
                    "time": 64.46809800000007,
                    "velocity": 0.33070866141732286,
                    "duration": 0.3191489999999959
                },
                {
                    "name": "B3",
                    "midi": 59,
                    "time": 64.78724700000006,
                    "velocity": 0.33070866141732286,
                    "duration": 0.3191489999999959
                },
                {
                    "name": "D#3",
                    "midi": 51,
                    "time": 65.10639600000006,
                    "velocity": 0.1889763779527559,
                    "duration": 1.2765959999999978
                },
                {
                    "name": "F#3",
                    "midi": 54,
                    "time": 65.10639600000006,
                    "velocity": 0.1889763779527559,
                    "duration": 1.2765959999999978
                },
                {
                    "name": "B3",
                    "midi": 59,
                    "time": 65.10639600000006,
                    "velocity": 0.31496062992125984,
                    "duration": 0.3191489999999959
                },
                {
                    "name": "F#4",
                    "midi": 66,
                    "time": 65.42554500000006,
                    "velocity": 0.25984251968503935,
                    "duration": 0.9574470000000019
                },
                {
                    "name": "E3",
                    "midi": 52,
                    "time": 66.38299200000006,
                    "velocity": 0.2204724409448819,
                    "duration": 1.2765959999999978
                },
                {
                    "name": "G3",
                    "midi": 55,
                    "time": 66.38299200000006,
                    "velocity": 0.2204724409448819,
                    "duration": 1.2765959999999978
                },
                {
                    "name": "B3",
                    "midi": 59,
                    "time": 66.38299200000006,
                    "velocity": 0.2992125984251969,
                    "duration": 0.638298000000006
                },
                {
                    "name": "C4",
                    "midi": 60,
                    "time": 67.02129000000006,
                    "velocity": 0.2992125984251969,
                    "duration": 0.3191489999999959
                },
                {
                    "name": "B3",
                    "midi": 59,
                    "time": 67.34043900000006,
                    "velocity": 0.29133858267716534,
                    "duration": 0.3191489999999959
                },
                {
                    "name": "A3",
                    "midi": 57,
                    "time": 67.65958800000006,
                    "velocity": 0.18110236220472442,
                    "duration": 1.276596000000012
                },
                {
                    "name": "C4",
                    "midi": 60,
                    "time": 67.65958800000006,
                    "velocity": 0.29133858267716534,
                    "duration": 0.3191490000000101
                },
                {
                    "name": "B4",
                    "midi": 71,
                    "time": 67.97873700000007,
                    "velocity": 0.25196850393700787,
                    "duration": 0.9574470000000019
                },
                {
                    "name": "D3",
                    "midi": 50,
                    "time": 68.93618400000007,
                    "velocity": 0.18110236220472442,
                    "duration": 1.2765959999999836
                },
                {
                    "name": "F#3",
                    "midi": 54,
                    "time": 68.93618400000007,
                    "velocity": 0.18110236220472442,
                    "duration": 1.2765959999999836
                },
                {
                    "name": "C4",
                    "midi": 60,
                    "time": 68.93618400000007,
                    "velocity": 0.25196850393700787,
                    "duration": 0.6382979999999918
                },
                {
                    "name": "D4",
                    "midi": 62,
                    "time": 69.57448200000006,
                    "velocity": 0.2283464566929134,
                    "duration": 0.3191489999999959
                },
                {
                    "name": "C4",
                    "midi": 60,
                    "time": 69.89363100000006,
                    "velocity": 0.2283464566929134,
                    "duration": 0.3191489999999959
                },
                {
                    "name": "G3",
                    "midi": 55,
                    "time": 70.21278000000005,
                    "velocity": 0.1732283464566929,
                    "duration": 1.276596000000012
                },
                {
                    "name": "B3",
                    "midi": 59,
                    "time": 70.21278000000005,
                    "velocity": 0.2440944881889764,
                    "duration": 0.3191490000000101
                },
                {
                    "name": "A4",
                    "midi": 69,
                    "time": 70.53192900000006,
                    "velocity": 0.2440944881889764,
                    "duration": 0.9574470000000019
                },
                {
                    "name": "C3",
                    "midi": 48,
                    "time": 71.48937600000006,
                    "velocity": 0.1732283464566929,
                    "duration": 1.2765959999999978
                },
                {
                    "name": "E3",
                    "midi": 52,
                    "time": 71.48937600000006,
                    "velocity": 0.1732283464566929,
                    "duration": 1.2765959999999978
                },
                {
                    "name": "B3",
                    "midi": 59,
                    "time": 71.48937600000006,
                    "velocity": 0.2440944881889764,
                    "duration": 0.638298000000006
                },
                {
                    "name": "C4",
                    "midi": 60,
                    "time": 72.12767400000007,
                    "velocity": 0.2204724409448819,
                    "duration": 0.3191489999999959
                },
                {
                    "name": "B3",
                    "midi": 59,
                    "time": 72.44682300000007,
                    "velocity": 0.2204724409448819,
                    "duration": 0.3191489999999959
                },
                {
                    "name": "F#3",
                    "midi": 54,
                    "time": 72.76597200000006,
                    "velocity": 0.1732283464566929,
                    "duration": 1.2765959999999978
                },
                {
                    "name": "A3",
                    "midi": 57,
                    "time": 72.76597200000006,
                    "velocity": 0.23622047244094488,
                    "duration": 0.3191489999999959
                },
                {
                    "name": "G4",
                    "midi": 67,
                    "time": 73.08512100000006,
                    "velocity": 0.2204724409448819,
                    "duration": 0.9574470000000019
                },
                {
                    "name": "B2",
                    "midi": 47,
                    "time": 74.04256800000006,
                    "velocity": 0.16535433070866143,
                    "duration": 1.2765959999999836
                },
                {
                    "name": "D#3",
                    "midi": 51,
                    "time": 74.04256800000006,
                    "velocity": 0.16535433070866143,
                    "duration": 1.2765959999999836
                },
                {
                    "name": "A3",
                    "midi": 57,
                    "time": 74.04256800000006,
                    "velocity": 0.2125984251968504,
                    "duration": 0.6382979999999918
                },
                {
                    "name": "B3",
                    "midi": 59,
                    "time": 74.68086600000005,
                    "velocity": 0.1968503937007874,
                    "duration": 0.3191489999999959
                },
                {
                    "name": "A3",
                    "midi": 57,
                    "time": 75.00001500000005,
                    "velocity": 0.1889763779527559,
                    "duration": 5.425532999999987
                },
                {
                    "name": "C4",
                    "midi": 60,
                    "time": 75.31916400000004,
                    "velocity": 0.15748031496062992,
                    "duration": 5.106383999999991
                },
                {
                    "name": "E3",
                    "midi": 52,
                    "time": 75.31916400000004,
                    "velocity": 0.15748031496062992,
                    "duration": 5.106383999999991
                },
                {
                    "name": "A2",
                    "midi": 45,
                    "time": 79.14895200000004,
                    "velocity": 0.11023622047244094,
                    "duration": 1.2765959999999978
                }
            ],
            "controlChanges": {
                "7": [
                    {
                        "number": 7,
                        "time": 0,
                        "value": 0.7874015748031497
                    }
                ],
                "10": [
                    {
                        "number": 10,
                        "time": 0,
                        "value": 0.5039370078740157
                    }
                ],
                "64": [
                    {
                        "number": 64,
                        "time": 0,
                        "value": 0
                    },
                    {
                        "number": 64,
                        "time": 1.406915175,
                        "value": 1
                    },
                    {
                        "number": 64,
                        "time": 2.553192,
                        "value": 0
                    },
                    {
                        "number": 64,
                        "time": 2.683511175,
                        "value": 1
                    },
                    {
                        "number": 64,
                        "time": 3.8510646,
                        "value": 0
                    },
                    {
                        "number": 64,
                        "time": 4.11170295,
                        "value": 1
                    },
                    {
                        "number": 64,
                        "time": 5.106384,
                        "value": 0
                    },
                    {
                        "number": 64,
                        "time": 5.369681925,
                        "value": 1
                    },
                    {
                        "number": 64,
                        "time": 6.406916175000001,
                        "value": 0
                    },
                    {
                        "number": 64,
                        "time": 6.553192800000001,
                        "value": 1
                    },
                    {
                        "number": 64,
                        "time": 7.659576,
                        "value": 0
                    },
                    {
                        "number": 64,
                        "time": 7.8085122,
                        "value": 1
                    },
                    {
                        "number": 64,
                        "time": 8.97340605,
                        "value": 0
                    },
                    {
                        "number": 64,
                        "time": 9.255320999999999,
                        "value": 1
                    },
                    {
                        "number": 64,
                        "time": 10.082448824999998,
                        "value": 0
                    },
                    {
                        "number": 64,
                        "time": 10.531916999999998,
                        "value": 1
                    },
                    {
                        "number": 64,
                        "time": 11.505321449999997,
                        "value": 0
                    },
                    {
                        "number": 64,
                        "time": 11.638300199999996,
                        "value": 1
                    },
                    {
                        "number": 64,
                        "time": 12.765959999999996,
                        "value": 0
                    },
                    {
                        "number": 64,
                        "time": 12.936172799999996,
                        "value": 1
                    },
                    {
                        "number": 64,
                        "time": 14.058513449999994,
                        "value": 0
                    },
                    {
                        "number": 64,
                        "time": 14.305853924999994,
                        "value": 1
                    },
                    {
                        "number": 64,
                        "time": 15.319151999999994,
                        "value": 0
                    },
                    {
                        "number": 64,
                        "time": 15.545215874999993,
                        "value": 1
                    },
                    {
                        "number": 64,
                        "time": 16.61170544999999,
                        "value": 0
                    },
                    {
                        "number": 64,
                        "time": 16.859045924999993,
                        "value": 1
                    },
                    {
                        "number": 64,
                        "time": 17.87234399999999,
                        "value": 0
                    },
                    {
                        "number": 64,
                        "time": 18.11702489999999,
                        "value": 1
                    },
                    {
                        "number": 64,
                        "time": 19.164897449999987,
                        "value": 0
                    },
                    {
                        "number": 64,
                        "time": 19.297876199999987,
                        "value": 1
                    },
                    {
                        "number": 64,
                        "time": 20.162238074999987,
                        "value": 0
                    },
                    {
                        "number": 64,
                        "time": 20.425535999999987,
                        "value": 1
                    },
                    {
                        "number": 64,
                        "time": 21.720749024999986,
                        "value": 0
                    },
                    {
                        "number": 64,
                        "time": 23.186174849999983,
                        "value": 1
                    },
                    {
                        "number": 64,
                        "time": 24.29255804999998,
                        "value": 0
                    },
                    {
                        "number": 64,
                        "time": 25.73936684999998,
                        "value": 1
                    },
                    {
                        "number": 64,
                        "time": 26.845750049999975,
                        "value": 0
                    },
                    {
                        "number": 64,
                        "time": 30.808516799999975,
                        "value": 1
                    },
                    {
                        "number": 64,
                        "time": 31.952134049999973,
                        "value": 0
                    },
                    {
                        "number": 64,
                        "time": 33.32181517499997,
                        "value": 1
                    },
                    {
                        "number": 64,
                        "time": 34.48936859999998,
                        "value": 0
                    },
                    {
                        "number": 64,
                        "time": 35.837773124999984,
                        "value": 1
                    },
                    {
                        "number": 64,
                        "time": 37.039901024999985,
                        "value": 0
                    },
                    {
                        "number": 64,
                        "time": 62.72341680000006,
                        "value": 1
                    },
                    {
                        "number": 64,
                        "time": 63.82980000000006,
                        "value": 0
                    },
                    {
                        "number": 64,
                        "time": 63.978736200000064,
                        "value": 1
                    },
                    {
                        "number": 64,
                        "time": 65.14363005000006,
                        "value": 0
                    },
                    {
                        "number": 64,
                        "time": 65.33245987500005,
                        "value": 1
                    },
                    {
                        "number": 64,
                        "time": 66.38299200000006,
                        "value": 0
                    },
                    {
                        "number": 64,
                        "time": 66.55320480000006,
                        "value": 1
                    },
                    {
                        "number": 64,
                        "time": 67.67554545000006,
                        "value": 0
                    },
                    {
                        "number": 64,
                        "time": 67.88565187500006,
                        "value": 1
                    },
                    {
                        "number": 64,
                        "time": 68.93618400000007,
                        "value": 0
                    },
                    {
                        "number": 64,
                        "time": 69.06650317500007,
                        "value": 1
                    },
                    {
                        "number": 64,
                        "time": 70.26863107500006,
                        "value": 0
                    },
                    {
                        "number": 64,
                        "time": 70.47607792500006,
                        "value": 1
                    },
                    {
                        "number": 64,
                        "time": 71.48937600000006,
                        "value": 0
                    },
                    {
                        "number": 64,
                        "time": 71.65958880000007,
                        "value": 1
                    },
                    {
                        "number": 64,
                        "time": 72.78458902500006,
                        "value": 0
                    },
                    {
                        "number": 64,
                        "time": 72.97341885000006,
                        "value": 1
                    },
                    {
                        "number": 64,
                        "time": 74.04256800000006,
                        "value": 0
                    },
                    {
                        "number": 64,
                        "time": 74.26863187500005,
                        "value": 1
                    },
                    {
                        "number": 64,
                        "time": 75.33778102500004,
                        "value": 0
                    },
                    {
                        "number": 64,
                        "time": 75.63831300000004,
                        "value": 1
                    },
                    {
                        "number": 64,
                        "time": 83.12235705000003,
                        "value": 0
                    }
                ],
                "91": [
                    {
                        "number": 91,
                        "time": 0,
                        "value": 1
                    },
                    {
                        "number": 91,
                        "time": 10.212767999999999,
                        "value": 1
                    },
                    {
                        "number": 91,
                        "time": 40.85107199999999,
                        "value": 1
                    },
                    {
                        "number": 91,
                        "time": 61.27660800000005,
                        "value": 1
                    }
                ]
            },
            "id": 2,
            "name": "Piano left",
            "instrumentNumber": 0,
            "instrument": "acoustic grand piano",
            "instrumentFamily": "piano",
            "channelNumber": 0,
            "isPercussion": false
        },
        {
            "startTime": 0,
            "duration": 0,
            "length": 0,
            "notes": [],
            "controlChanges": {},
            "id": 3,
            "name": "Schumann: Scenes from Childhood Op. 15"
        },
        {
            "startTime": 0,
            "duration": 0,
            "length": 0,
            "notes": [],
            "controlChanges": {},
            "id": 4,
            "name": "Copyright  1997 by Bernd Krueger"
        },
        {
            "startTime": 0,
            "duration": 0,
            "length": 0,
            "notes": [],
            "controlChanges": {},
            "id": 5,
            "name": "http://www.piano-midi.de"
        },
        {
            "startTime": 0,
            "duration": 0,
            "length": 0,
            "notes": [],
            "controlChanges": {},
            "id": 6,
            "name": "Edition: 2008-10-19"
        },
        {
            "startTime": 0,
            "duration": 0,
            "length": 0,
            "notes": [],
            "controlChanges": {},
            "id": 7,
            "name": "Spur 7"
        }
    ]
}