{
    "header": {
        "PPQ": 240,
        "timeSignature": [
            3,
            4
        ],
        "bpm": 120,
        "name": "TEMPO,EXCLUSIVE"
    },
    "startTime": 0,
    "duration": 179.31250000000009,
    "tracks": [
        {
            "startTime": 0,
            "duration": 0,
            "length": 0,
            "notes": [],
            "controlChanges": {},
            "id": 0
        },
        {
            "startTime": 1.75,
            "duration": 179.31249999999994,
            "length": 579,
            "notes": [
                {
                    "name": "B5",
                    "midi": 83,
                    "time": 1.75,
                    "velocity": 0.8582677165354331,
                    "duration": 0.13541666666666674
                },
                {
                    "name": "A#5",
                    "midi": 82,
                    "time": 1.875,
                    "velocity": 0.8582677165354331,
                    "duration": 0.13541666666666652
                },
                {
                    "name": "B5",
                    "midi": 83,
                    "time": 2,
                    "velocity": 0.8503937007874016,
                    "duration": 0.09375
                },
                {
                    "name": "A5",
                    "midi": 81,
                    "time": 2.125,
                    "velocity": 0.84251968503937,
                    "duration": 0.09375
                },
                {
                    "name": "B5",
                    "midi": 83,
                    "time": 2.25,
                    "velocity": 0.84251968503937,
                    "duration": 0.09375
                },
                {
                    "name": "G5",
                    "midi": 79,
                    "time": 2.375,
                    "velocity": 0.8346456692913385,
                    "duration": 0.09375
                },
                {
                    "name": "B5",
                    "midi": 83,
                    "time": 2.5,
                    "velocity": 0.8346456692913385,
                    "duration": 0.09375
                },
                {
                    "name": "F#5",
                    "midi": 78,
                    "time": 2.625,
                    "velocity": 0.8267716535433071,
                    "duration": 0.09375
                },
                {
                    "name": "B5",
                    "midi": 83,
                    "time": 2.75,
                    "velocity": 0.8188976377952756,
                    "duration": 0.09375
                },
                {
                    "name": "B5",
                    "midi": 83,
                    "time": 3,
                    "velocity": 0.8110236220472441,
                    "duration": 0.09375
                },
                {
                    "name": "B5",
                    "midi": 83,
                    "time": 3.25,
                    "velocity": 0.8031496062992126,
                    "duration": 0.09375
                },
                {
                    "name": "B5",
                    "midi": 83,
                    "time": 3.5,
                    "velocity": 0.7952755905511811,
                    "duration": 0.09375
                },
                {
                    "name": "B5",
                    "midi": 83,
                    "time": 3.75,
                    "velocity": 0.7874015748031497,
                    "duration": 0.09375
                },
                {
                    "name": "B5",
                    "midi": 83,
                    "time": 4,
                    "velocity": 0.7716535433070866,
                    "duration": 0.09375
                },
                {
                    "name": "B5",
                    "midi": 83,
                    "time": 4.25,
                    "velocity": 0.7637795275590551,
                    "duration": 0.09375
                },
                {
                    "name": "B5",
                    "midi": 83,
                    "time": 4.5,
                    "velocity": 0.7559055118110236,
                    "duration": 0.09375
                },
                {
                    "name": "A#5",
                    "midi": 82,
                    "time": 4.75,
                    "velocity": 0.8661417322834646,
                    "duration": 0.13541666666666696
                },
                {
                    "name": "G5",
                    "midi": 79,
                    "time": 4.875,
                    "velocity": 0.8582677165354331,
                    "duration": 0.13541666666666696
                },
                {
                    "name": "A#5",
                    "midi": 82,
                    "time": 5,
                    "velocity": 0.8503937007874016,
                    "duration": 0.09375
                },
                {
                    "name": "F#5",
                    "midi": 78,
                    "time": 5.125,
                    "velocity": 0.8503937007874016,
                    "duration": 0.09375
                },
                {
                    "name": "A#5",
                    "midi": 82,
                    "time": 5.25,
                    "velocity": 0.84251968503937,
                    "duration": 0.09375
                },
                {
                    "name": "A#5",
                    "midi": 82,
                    "time": 5.5,
                    "velocity": 0.8346456692913385,
                    "duration": 0.09375
                },
                {
                    "name": "A#5",
                    "midi": 82,
                    "time": 5.75,
                    "velocity": 0.8267716535433071,
                    "duration": 0.09375
                },
                {
                    "name": "A#5",
                    "midi": 82,
                    "time": 6,
                    "velocity": 0.8188976377952756,
                    "duration": 0.09375
                },
                {
                    "name": "A#5",
                    "midi": 82,
                    "time": 6.25,
                    "velocity": 0.8031496062992126,
                    "duration": 0.09375
                },
                {
                    "name": "A#5",
                    "midi": 82,
                    "time": 6.5,
                    "velocity": 0.7952755905511811,
                    "duration": 0.09375
                },
                {
                    "name": "A#5",
                    "midi": 82,
                    "time": 6.75,
                    "velocity": 0.7874015748031497,
                    "duration": 0.09375
                },
                {
                    "name": "A#5",
                    "midi": 82,
                    "time": 7,
                    "velocity": 0.7795275590551181,
                    "duration": 0.09375
                },
                {
                    "name": "A#5",
                    "midi": 82,
                    "time": 7.25,
                    "velocity": 0.7637795275590551,
                    "duration": 0.09375
                },
                {
                    "name": "A#5",
                    "midi": 82,
                    "time": 7.5,
                    "velocity": 0.7559055118110236,
                    "duration": 0.09375
                },
                {
                    "name": "B5",
                    "midi": 83,
                    "time": 7.75,
                    "velocity": 0.8582677165354331,
                    "duration": 0.13541666666666696
                },
                {
                    "name": "B5",
                    "midi": 83,
                    "time": 8,
                    "velocity": 0.84251968503937,
                    "duration": 0.09375
                },
                {
                    "name": "B5",
                    "midi": 83,
                    "time": 8.25,
                    "velocity": 0.8188976377952756,
                    "duration": 0.09375
                },
                {
                    "name": "B5",
                    "midi": 83,
                    "time": 8.5,
                    "velocity": 0.8031496062992126,
                    "duration": 0.09375
                },
                {
                    "name": "B5",
                    "midi": 83,
                    "time": 8.75,
                    "velocity": 0.7795275590551181,
                    "duration": 0.09375
                },
                {
                    "name": "B5",
                    "midi": 83,
                    "time": 9,
                    "velocity": 0.7637795275590551,
                    "duration": 0.09375
                },
                {
                    "name": "D6",
                    "midi": 86,
                    "time": 9.25,
                    "velocity": 0.7480314960629921,
                    "duration": 0.13541666666666607
                },
                {
                    "name": "D6",
                    "midi": 86,
                    "time": 9.5,
                    "velocity": 0.937007874015748,
                    "duration": 0.09375
                },
                {
                    "name": "D6",
                    "midi": 86,
                    "time": 9.75,
                    "velocity": 0.9212598425196851,
                    "duration": 0.09375
                },
                {
                    "name": "D6",
                    "midi": 86,
                    "time": 10,
                    "velocity": 0.8976377952755905,
                    "duration": 0.09375
                },
                {
                    "name": "D6",
                    "midi": 86,
                    "time": 10.25,
                    "velocity": 0.8818897637795275,
                    "duration": 0.09375
                },
                {
                    "name": "D6",
                    "midi": 86,
                    "time": 10.5,
                    "velocity": 0.8582677165354331,
                    "duration": 0.09375
                },
                {
                    "name": "D6",
                    "midi": 86,
                    "time": 10.75,
                    "velocity": 0.84251968503937,
                    "duration": 0.13541666666666607
                },
                {
                    "name": "D6",
                    "midi": 86,
                    "time": 11,
                    "velocity": 0.937007874015748,
                    "duration": 0.09375
                },
                {
                    "name": "D6",
                    "midi": 86,
                    "time": 11.25,
                    "velocity": 0.9212598425196851,
                    "duration": 0.09375
                },
                {
                    "name": "D6",
                    "midi": 86,
                    "time": 11.5,
                    "velocity": 0.8976377952755905,
                    "duration": 0.09375
                },
                {
                    "name": "D6",
                    "midi": 86,
                    "time": 11.75,
                    "velocity": 0.8818897637795275,
                    "duration": 0.09375
                },
                {
                    "name": "D6",
                    "midi": 86,
                    "time": 12,
                    "velocity": 0.8582677165354331,
                    "duration": 0.09375
                },
                {
                    "name": "D6",
                    "midi": 86,
                    "time": 12.25,
                    "velocity": 0.84251968503937,
                    "duration": 0.13541666666666607
                },
                {
                    "name": "D6",
                    "midi": 86,
                    "time": 12.5,
                    "velocity": 0.937007874015748,
                    "duration": 0.09375
                },
                {
                    "name": "D6",
                    "midi": 86,
                    "time": 12.75,
                    "velocity": 0.9212598425196851,
                    "duration": 0.09375
                },
                {
                    "name": "D6",
                    "midi": 86,
                    "time": 13,
                    "velocity": 0.8976377952755905,
                    "duration": 0.09375
                },
                {
                    "name": "D6",
                    "midi": 86,
                    "time": 13.25,
                    "velocity": 0.8818897637795275,
                    "duration": 0.09375
                },
                {
                    "name": "D6",
                    "midi": 86,
                    "time": 13.5,
                    "velocity": 0.8582677165354331,
                    "duration": 0.09375
                },
                {
                    "name": "C#6",
                    "midi": 85,
                    "time": 13.75,
                    "velocity": 0.84251968503937,
                    "duration": 0.13541666666666607
                },
                {
                    "name": "C#6",
                    "midi": 85,
                    "time": 14,
                    "velocity": 0.8582677165354331,
                    "duration": 0.09375
                },
                {
                    "name": "C#6",
                    "midi": 85,
                    "time": 14.25,
                    "velocity": 0.84251968503937,
                    "duration": 0.09375
                },
                {
                    "name": "C#6",
                    "midi": 85,
                    "time": 14.5,
                    "velocity": 0.8188976377952756,
                    "duration": 0.09375
                },
                {
                    "name": "C#6",
                    "midi": 85,
                    "time": 14.75,
                    "velocity": 0.8031496062992126,
                    "duration": 0.09375
                },
                {
                    "name": "C#6",
                    "midi": 85,
                    "time": 15,
                    "velocity": 0.7795275590551181,
                    "duration": 0.09375
                },
                {
                    "name": "B5",
                    "midi": 83,
                    "time": 15.25,
                    "velocity": 0.7637795275590551,
                    "duration": 0.13541666666666607
                },
                {
                    "name": "D6",
                    "midi": 86,
                    "time": 15.5,
                    "velocity": 0.7480314960629921,
                    "duration": 0.09375
                },
                {
                    "name": "C#6",
                    "midi": 85,
                    "time": 15.75,
                    "velocity": 0.8503937007874016,
                    "duration": 0.09375
                },
                {
                    "name": "B5",
                    "midi": 83,
                    "time": 16,
                    "velocity": 0.8188976377952756,
                    "duration": 0.09375
                },
                {
                    "name": "B5",
                    "midi": 83,
                    "time": 16.25,
                    "velocity": 0.7952755905511811,
                    "duration": 0.09375
                },
                {
                    "name": "B5",
                    "midi": 83,
                    "time": 16.5,
                    "velocity": 0.7795275590551181,
                    "duration": 0.09375
                },
                {
                    "name": "A#5",
                    "midi": 82,
                    "time": 16.75,
                    "velocity": 0.7086614173228346,
                    "duration": 0.13541666666666785
                },
                {
                    "name": "F#5",
                    "midi": 78,
                    "time": 17,
                    "velocity": 0.7244094488188977,
                    "duration": 0.09375
                },
                {
                    "name": "G#5",
                    "midi": 80,
                    "time": 17.25,
                    "velocity": 0.7480314960629921,
                    "duration": 0.09375
                },
                {
                    "name": "A#5",
                    "midi": 82,
                    "time": 17.5,
                    "velocity": 0.7716535433070866,
                    "duration": 0.09375
                },
                {
                    "name": "B5",
                    "midi": 83,
                    "time": 17.75,
                    "velocity": 0.7874015748031497,
                    "duration": 0.09375
                },
                {
                    "name": "C#6",
                    "midi": 85,
                    "time": 18,
                    "velocity": 0.8110236220472441,
                    "duration": 0.09375
                },
                {
                    "name": "D6",
                    "midi": 86,
                    "time": 18.25,
                    "velocity": 0.8582677165354331,
                    "duration": 0.13541666666666785
                },
                {
                    "name": "C#6",
                    "midi": 85,
                    "time": 21.75,
                    "velocity": 0.7874015748031497,
                    "duration": 0.09375
                },
                {
                    "name": "F#6",
                    "midi": 90,
                    "time": 22,
                    "velocity": 0.8661417322834646,
                    "duration": 0.09375
                },
                {
                    "name": "C#6",
                    "midi": 85,
                    "time": 22.25,
                    "velocity": 0.84251968503937,
                    "duration": 0.09375
                },
                {
                    "name": "A5",
                    "midi": 81,
                    "time": 24.5625,
                    "velocity": 0.8110236220472441,
                    "duration": 0.13541666666666785
                },
                {
                    "name": "G#5",
                    "midi": 80,
                    "time": 24.6875,
                    "velocity": 0.8031496062992126,
                    "duration": 0.13541666666666785
                },
                {
                    "name": "A5",
                    "midi": 81,
                    "time": 24.8125,
                    "velocity": 0.7874015748031497,
                    "duration": 0.09375
                },
                {
                    "name": "G5",
                    "midi": 79,
                    "time": 24.9375,
                    "velocity": 0.7716535433070866,
                    "duration": 0.09375
                },
                {
                    "name": "A5",
                    "midi": 81,
                    "time": 25.0625,
                    "velocity": 0.7637795275590551,
                    "duration": 0.09375
                },
                {
                    "name": "F5",
                    "midi": 77,
                    "time": 25.1875,
                    "velocity": 0.7480314960629921,
                    "duration": 0.09375
                },
                {
                    "name": "A5",
                    "midi": 81,
                    "time": 25.3125,
                    "velocity": 0.7322834645669292,
                    "duration": 0.09375
                },
                {
                    "name": "F#5",
                    "midi": 78,
                    "time": 25.4375,
                    "velocity": 0.7244094488188977,
                    "duration": 0.09375
                },
                {
                    "name": "A5",
                    "midi": 81,
                    "time": 25.5625,
                    "velocity": 0.7086614173228346,
                    "duration": 0.09375
                },
                {
                    "name": "A5",
                    "midi": 81,
                    "time": 25.8125,
                    "velocity": 0.6850393700787402,
                    "duration": 0.09375
                },
                {
                    "name": "A5",
                    "midi": 81,
                    "time": 26.0625,
                    "velocity": 0.6850393700787402,
                    "duration": 0.09375
                },
                {
                    "name": "A5",
                    "midi": 81,
                    "time": 26.3125,
                    "velocity": 0.7165354330708661,
                    "duration": 0.09375
                },
                {
                    "name": "A5",
                    "midi": 81,
                    "time": 26.5625,
                    "velocity": 0.7480314960629921,
                    "duration": 0.09375
                },
                {
                    "name": "A5",
                    "midi": 81,
                    "time": 26.8125,
                    "velocity": 0.7795275590551181,
                    "duration": 0.09375
                },
                {
                    "name": "A5",
                    "midi": 81,
                    "time": 27.0625,
                    "velocity": 0.8110236220472441,
                    "duration": 0.09375
                },
                {
                    "name": "A5",
                    "midi": 81,
                    "time": 27.3125,
                    "velocity": 0.84251968503937,
                    "duration": 0.09375
                },
                {
                    "name": "A5",
                    "midi": 81,
                    "time": 27.604166666666668,
                    "velocity": 0.8661417322834646,
                    "duration": 0.13541666666666785
                },
                {
                    "name": "G#5",
                    "midi": 80,
                    "time": 27.729166666666668,
                    "velocity": 0.8661417322834646,
                    "duration": 0.13541666666666785
                },
                {
                    "name": "A5",
                    "midi": 81,
                    "time": 27.854166666666668,
                    "velocity": 0.8582677165354331,
                    "duration": 0.09375
                },
                {
                    "name": "G5",
                    "midi": 79,
                    "time": 27.979166666666668,
                    "velocity": 0.8503937007874016,
                    "duration": 0.09375
                },
                {
                    "name": "A5",
                    "midi": 81,
                    "time": 28.104166666666668,
                    "velocity": 0.84251968503937,
                    "duration": 0.09375
                },
                {
                    "name": "A5",
                    "midi": 81,
                    "time": 28.354166666666668,
                    "velocity": 0.8267716535433071,
                    "duration": 0.09375
                },
                {
                    "name": "A5",
                    "midi": 81,
                    "time": 28.604166666666668,
                    "velocity": 0.8188976377952756,
                    "duration": 0.09375
                },
                {
                    "name": "A5",
                    "midi": 81,
                    "time": 28.854166666666668,
                    "velocity": 0.8031496062992126,
                    "duration": 0.09375
                },
                {
                    "name": "A5",
                    "midi": 81,
                    "time": 29.104166666666668,
                    "velocity": 0.7874015748031497,
                    "duration": 0.09375
                },
                {
                    "name": "A5",
                    "midi": 81,
                    "time": 29.354166666666668,
                    "velocity": 0.7716535433070866,
                    "duration": 0.09375
                },
                {
                    "name": "A5",
                    "midi": 81,
                    "time": 29.604166666666668,
                    "velocity": 0.7637795275590551,
                    "duration": 0.09375
                },
                {
                    "name": "A5",
                    "midi": 81,
                    "time": 29.854166666666668,
                    "velocity": 0.7480314960629921,
                    "duration": 0.09375
                },
                {
                    "name": "A5",
                    "midi": 81,
                    "time": 30.104166666666668,
                    "velocity": 0.7322834645669292,
                    "duration": 0.09375
                },
                {
                    "name": "A5",
                    "midi": 81,
                    "time": 30.354166666666668,
                    "velocity": 0.7165354330708661,
                    "duration": 0.09375
                },
                {
                    "name": "D6",
                    "midi": 86,
                    "time": 30.604166666666668,
                    "velocity": 0.8267716535433071,
                    "duration": 0.13541666666666785
                },
                {
                    "name": "A5",
                    "midi": 81,
                    "time": 30.729166666666668,
                    "velocity": 0.8267716535433071,
                    "duration": 0.13541666666666785
                },
                {
                    "name": "D6",
                    "midi": 86,
                    "time": 30.854166666666668,
                    "velocity": 0.8188976377952756,
                    "duration": 0.09375
                },
                {
                    "name": "G#5",
                    "midi": 80,
                    "time": 30.979166666666668,
                    "velocity": 0.8188976377952756,
                    "duration": 0.09375
                },
                {
                    "name": "D6",
                    "midi": 86,
                    "time": 31.104166666666668,
                    "velocity": 0.8110236220472441,
                    "duration": 0.09375
                },
                {
                    "name": "A5",
                    "midi": 81,
                    "time": 31.229166666666668,
                    "velocity": 0.8031496062992126,
                    "duration": 0.09375
                },
                {
                    "name": "D6",
                    "midi": 86,
                    "time": 31.354166666666668,
                    "velocity": 0.7952755905511811,
                    "duration": 0.09375
                },
                {
                    "name": "D6",
                    "midi": 86,
                    "time": 31.604166666666668,
                    "velocity": 0.7874015748031497,
                    "duration": 0.09375
                },
                {
                    "name": "C#6",
                    "midi": 85,
                    "time": 31.854166666666668,
                    "velocity": 0.7795275590551181,
                    "duration": 0.13541666666666785
                },
                {
                    "name": "G5",
                    "midi": 79,
                    "time": 31.979166666666668,
                    "velocity": 0.7480314960629921,
                    "duration": 0.13541666666666785
                },
                {
                    "name": "C#6",
                    "midi": 85,
                    "time": 32.10416666666667,
                    "velocity": 0.7637795275590551,
                    "duration": 0.09375
                },
                {
                    "name": "G5",
                    "midi": 79,
                    "time": 32.22916666666667,
                    "velocity": 0.7874015748031497,
                    "duration": 0.09375
                },
                {
                    "name": "B5",
                    "midi": 83,
                    "time": 32.35416666666667,
                    "velocity": 0.7559055118110236,
                    "duration": 0.09375
                },
                {
                    "name": "B5",
                    "midi": 83,
                    "time": 32.60416666666667,
                    "velocity": 0.7480314960629921,
                    "duration": 0.09375
                },
                {
                    "name": "B5",
                    "midi": 83,
                    "time": 32.85416666666667,
                    "velocity": 0.7480314960629921,
                    "duration": 0.09375
                },
                {
                    "name": "B5",
                    "midi": 83,
                    "time": 33.10416666666667,
                    "velocity": 0.7480314960629921,
                    "duration": 0.09375
                },
                {
                    "name": "B5",
                    "midi": 83,
                    "time": 33.35416666666667,
                    "velocity": 0.7480314960629921,
                    "duration": 0.1354166666666643
                },
                {
                    "name": "F#5",
                    "midi": 78,
                    "time": 33.47916666666667,
                    "velocity": 0.7480314960629921,
                    "duration": 0.1354166666666643
                },
                {
                    "name": "B5",
                    "midi": 83,
                    "time": 33.60416666666667,
                    "velocity": 0.7637795275590551,
                    "duration": 0.09375
                },
                {
                    "name": "F#5",
                    "midi": 78,
                    "time": 33.72916666666667,
                    "velocity": 0.7637795275590551,
                    "duration": 0.09375
                },
                {
                    "name": "A5",
                    "midi": 81,
                    "time": 33.85416666666667,
                    "velocity": 0.7559055118110236,
                    "duration": 0.09375
                },
                {
                    "name": "A5",
                    "midi": 81,
                    "time": 34.10416666666667,
                    "velocity": 0.7480314960629921,
                    "duration": 0.09375
                },
                {
                    "name": "A5",
                    "midi": 81,
                    "time": 34.35416666666667,
                    "velocity": 0.7480314960629921,
                    "duration": 0.09375
                },
                {
                    "name": "A5",
                    "midi": 81,
                    "time": 34.60416666666667,
                    "velocity": 0.7480314960629921,
                    "duration": 0.09375
                },
                {
                    "name": "A5",
                    "midi": 81,
                    "time": 34.85416666666667,
                    "velocity": 0.7480314960629921,
                    "duration": 0.1354166666666643
                },
                {
                    "name": "A5",
                    "midi": 81,
                    "time": 35.10416666666667,
                    "velocity": 0.7637795275590551,
                    "duration": 0.09375
                },
                {
                    "name": "G5",
                    "midi": 79,
                    "time": 35.35416666666667,
                    "velocity": 0.7559055118110236,
                    "duration": 0.09375
                },
                {
                    "name": "G5",
                    "midi": 79,
                    "time": 35.60416666666667,
                    "velocity": 0.7480314960629921,
                    "duration": 0.09375
                },
                {
                    "name": "G5",
                    "midi": 79,
                    "time": 35.85416666666667,
                    "velocity": 0.7480314960629921,
                    "duration": 0.09375
                },
                {
                    "name": "G5",
                    "midi": 79,
                    "time": 36.10416666666667,
                    "velocity": 0.7480314960629921,
                    "duration": 0.09375
                },
                {
                    "name": "F#6",
                    "midi": 90,
                    "time": 36.72916666666667,
                    "velocity": 0.9448818897637795,
                    "duration": 0.09375
                },
                {
                    "name": "F6",
                    "midi": 89,
                    "time": 36.97916666666667,
                    "velocity": 0.9448818897637795,
                    "duration": 0.09375
                },
                {
                    "name": "F#6",
                    "midi": 90,
                    "time": 37.22916666666667,
                    "velocity": 0.9448818897637795,
                    "duration": 0.09375
                },
                {
                    "name": "E6",
                    "midi": 88,
                    "time": 37.47916666666667,
                    "velocity": 0.9448818897637795,
                    "duration": 0.09375
                },
                {
                    "name": "D6",
                    "midi": 86,
                    "time": 37.72916666666667,
                    "velocity": 0.9448818897637795,
                    "duration": 0.09375
                },
                {
                    "name": "C#6",
                    "midi": 85,
                    "time": 37.97916666666667,
                    "velocity": 0.9448818897637795,
                    "duration": 0.09375
                },
                {
                    "name": "F#6",
                    "midi": 90,
                    "time": 39.72916666666667,
                    "velocity": 0.9448818897637795,
                    "duration": 0.09375
                },
                {
                    "name": "F6",
                    "midi": 89,
                    "time": 39.97916666666667,
                    "velocity": 0.9448818897637795,
                    "duration": 0.09375
                },
                {
                    "name": "F#6",
                    "midi": 90,
                    "time": 40.22916666666667,
                    "velocity": 0.9448818897637795,
                    "duration": 0.09375
                },
                {
                    "name": "E6",
                    "midi": 88,
                    "time": 40.47916666666667,
                    "velocity": 0.9448818897637795,
                    "duration": 0.09375
                },
                {
                    "name": "D6",
                    "midi": 86,
                    "time": 40.72916666666667,
                    "velocity": 0.9448818897637795,
                    "duration": 0.09375
                },
                {
                    "name": "C#6",
                    "midi": 85,
                    "time": 40.97916666666667,
                    "velocity": 0.9448818897637795,
                    "duration": 0.09375
                },
                {
                    "name": "A6",
                    "midi": 93,
                    "time": 42.72916666666667,
                    "velocity": 0.905511811023622,
                    "duration": 0.09375
                },
                {
                    "name": "G6",
                    "midi": 91,
                    "time": 42.97916666666667,
                    "velocity": 0.905511811023622,
                    "duration": 0.09375
                },
                {
                    "name": "F#6",
                    "midi": 90,
                    "time": 43.22916666666667,
                    "velocity": 0.905511811023622,
                    "duration": 0.09375
                },
                {
                    "name": "G6",
                    "midi": 91,
                    "time": 43.47916666666667,
                    "velocity": 0.905511811023622,
                    "duration": 0.09375
                },
                {
                    "name": "A6",
                    "midi": 93,
                    "time": 43.72916666666667,
                    "velocity": 0.905511811023622,
                    "duration": 0.09375
                },
                {
                    "name": "B6",
                    "midi": 95,
                    "time": 44.10416666666667,
                    "velocity": 0.7086614173228346,
                    "duration": 0.0729166666666643
                },
                {
                    "name": "B6",
                    "midi": 95,
                    "time": 44.35416666666667,
                    "velocity": 0.7086614173228346,
                    "duration": 0.0729166666666643
                },
                {
                    "name": "B6",
                    "midi": 95,
                    "time": 44.60416666666667,
                    "velocity": 0.7165354330708661,
                    "duration": 0.0729166666666643
                },
                {
                    "name": "B6",
                    "midi": 95,
                    "time": 44.85416666666667,
                    "velocity": 0.7165354330708661,
                    "duration": 0.0729166666666643
                },
                {
                    "name": "D7",
                    "midi": 98,
                    "time": 45.10416666666667,
                    "velocity": 0.7244094488188977,
                    "duration": 0.0729166666666643
                },
                {
                    "name": "D7",
                    "midi": 98,
                    "time": 45.35416666666667,
                    "velocity": 0.7322834645669292,
                    "duration": 0.0729166666666643
                },
                {
                    "name": "C#7",
                    "midi": 97,
                    "time": 45.60416666666667,
                    "velocity": 0.7322834645669292,
                    "duration": 0.0729166666666643
                },
                {
                    "name": "D7",
                    "midi": 98,
                    "time": 45.85416666666667,
                    "velocity": 0.7401574803149606,
                    "duration": 0.0729166666666643
                },
                {
                    "name": "E7",
                    "midi": 100,
                    "time": 46.10416666666667,
                    "velocity": 0.7401574803149606,
                    "duration": 0.0729166666666643
                },
                {
                    "name": "F#7",
                    "midi": 102,
                    "time": 46.35416666666667,
                    "velocity": 0.7480314960629921,
                    "duration": 0.0729166666666643
                },
                {
                    "name": "D7",
                    "midi": 98,
                    "time": 46.60416666666667,
                    "velocity": 0.7480314960629921,
                    "duration": 0.0729166666666643
                },
                {
                    "name": "B6",
                    "midi": 95,
                    "time": 46.85416666666667,
                    "velocity": 0.7559055118110236,
                    "duration": 0.0729166666666643
                },
                {
                    "name": "A6",
                    "midi": 93,
                    "time": 47.10416666666667,
                    "velocity": 0.7559055118110236,
                    "duration": 0.0729166666666643
                },
                {
                    "name": "F#6",
                    "midi": 90,
                    "time": 47.35416666666667,
                    "velocity": 0.7637795275590551,
                    "duration": 0.0729166666666643
                },
                {
                    "name": "F#6",
                    "midi": 90,
                    "time": 47.60416666666667,
                    "velocity": 0.7716535433070866,
                    "duration": 0.0729166666666643
                },
                {
                    "name": "G6",
                    "midi": 91,
                    "time": 47.85416666666667,
                    "velocity": 0.7716535433070866,
                    "duration": 0.0729166666666643
                },
                {
                    "name": "E6",
                    "midi": 88,
                    "time": 48.10416666666667,
                    "velocity": 0.7795275590551181,
                    "duration": 0.0729166666666643
                },
                {
                    "name": "E6",
                    "midi": 88,
                    "time": 48.35416666666667,
                    "velocity": 0.7795275590551181,
                    "duration": 0.0729166666666643
                },
                {
                    "name": "F#6",
                    "midi": 90,
                    "time": 48.72916666666667,
                    "velocity": 0.937007874015748,
                    "duration": 0.09375
                },
                {
                    "name": "E6",
                    "midi": 88,
                    "time": 48.97916666666667,
                    "velocity": 0.9212598425196851,
                    "duration": 0.09375
                },
                {
                    "name": "D6",
                    "midi": 86,
                    "time": 49.22916666666667,
                    "velocity": 0.9133858267716536,
                    "duration": 0.09375
                },
                {
                    "name": "C#6",
                    "midi": 85,
                    "time": 49.47916666666667,
                    "velocity": 0.8976377952755905,
                    "duration": 0.09375
                },
                {
                    "name": "B5",
                    "midi": 83,
                    "time": 49.72916666666667,
                    "velocity": 0.889763779527559,
                    "duration": 0.09375
                },
                {
                    "name": "A5",
                    "midi": 81,
                    "time": 49.97916666666667,
                    "velocity": 0.8740157480314961,
                    "duration": 0.09375
                },
                {
                    "name": "D6",
                    "midi": 86,
                    "time": 50.10416666666667,
                    "velocity": 0.9448818897637795,
                    "duration": 0.09375
                },
                {
                    "name": "C#6",
                    "midi": 85,
                    "time": 50.35416666666667,
                    "velocity": 0.937007874015748,
                    "duration": 0.09375
                },
                {
                    "name": "B5",
                    "midi": 83,
                    "time": 50.60416666666667,
                    "velocity": 0.9212598425196851,
                    "duration": 0.09375
                },
                {
                    "name": "A5",
                    "midi": 81,
                    "time": 50.85416666666667,
                    "velocity": 0.9133858267716536,
                    "duration": 0.09375
                },
                {
                    "name": "G5",
                    "midi": 79,
                    "time": 51.10416666666667,
                    "velocity": 0.8976377952755905,
                    "duration": 0.09375
                },
                {
                    "name": "C#6",
                    "midi": 85,
                    "time": 52.22916666666667,
                    "velocity": 0.9133858267716536,
                    "duration": 0.1354166666666643
                },
                {
                    "name": "D6",
                    "midi": 86,
                    "time": 52.35416666666667,
                    "velocity": 0.905511811023622,
                    "duration": 0.1354166666666572
                },
                {
                    "name": "G5",
                    "midi": 79,
                    "time": 52.479166666666664,
                    "velocity": 0.905511811023622,
                    "duration": 0.1145833333333286
                },
                {
                    "name": "F#5",
                    "midi": 78,
                    "time": 52.60416666666666,
                    "velocity": 0.8976377952755905,
                    "duration": 0.09375
                },
                {
                    "name": "B5",
                    "midi": 83,
                    "time": 53.35416666666666,
                    "velocity": 0.8582677165354331,
                    "duration": 0.1354166666666643
                },
                {
                    "name": "A#5",
                    "midi": 82,
                    "time": 53.47916666666666,
                    "velocity": 0.8582677165354331,
                    "duration": 0.1354166666666643
                },
                {
                    "name": "B5",
                    "midi": 83,
                    "time": 53.60416666666666,
                    "velocity": 0.8503937007874016,
                    "duration": 0.09375
                },
                {
                    "name": "A5",
                    "midi": 81,
                    "time": 53.72916666666666,
                    "velocity": 0.84251968503937,
                    "duration": 0.09375
                },
                {
                    "name": "B5",
                    "midi": 83,
                    "time": 53.85416666666666,
                    "velocity": 0.84251968503937,
                    "duration": 0.09375
                },
                {
                    "name": "G5",
                    "midi": 79,
                    "time": 53.97916666666666,
                    "velocity": 0.8346456692913385,
                    "duration": 0.09375
                },
                {
                    "name": "B5",
                    "midi": 83,
                    "time": 54.10416666666666,
                    "velocity": 0.8346456692913385,
                    "duration": 0.09375
                },
                {
                    "name": "F#5",
                    "midi": 78,
                    "time": 54.22916666666666,
                    "velocity": 0.8267716535433071,
                    "duration": 0.09375
                },
                {
                    "name": "B5",
                    "midi": 83,
                    "time": 54.35416666666666,
                    "velocity": 0.8188976377952756,
                    "duration": 0.09375
                },
                {
                    "name": "B5",
                    "midi": 83,
                    "time": 54.60416666666666,
                    "velocity": 0.8110236220472441,
                    "duration": 0.09375
                },
                {
                    "name": "B5",
                    "midi": 83,
                    "time": 54.85416666666666,
                    "velocity": 0.8031496062992126,
                    "duration": 0.09375
                },
                {
                    "name": "B5",
                    "midi": 83,
                    "time": 55.10416666666666,
                    "velocity": 0.7952755905511811,
                    "duration": 0.09375
                },
                {
                    "name": "B5",
                    "midi": 83,
                    "time": 55.35416666666666,
                    "velocity": 0.7874015748031497,
                    "duration": 0.09375
                },
                {
                    "name": "B5",
                    "midi": 83,
                    "time": 55.60416666666666,
                    "velocity": 0.7716535433070866,
                    "duration": 0.09375
                },
                {
                    "name": "B5",
                    "midi": 83,
                    "time": 55.85416666666666,
                    "velocity": 0.7637795275590551,
                    "duration": 0.09375
                },
                {
                    "name": "B5",
                    "midi": 83,
                    "time": 56.10416666666666,
                    "velocity": 0.7559055118110236,
                    "duration": 0.09375
                },
                {
                    "name": "A#5",
                    "midi": 82,
                    "time": 56.35416666666666,
                    "velocity": 0.8661417322834646,
                    "duration": 0.1354166666666643
                },
                {
                    "name": "G5",
                    "midi": 79,
                    "time": 56.47916666666666,
                    "velocity": 0.8582677165354331,
                    "duration": 0.1354166666666643
                },
                {
                    "name": "A#5",
                    "midi": 82,
                    "time": 56.60416666666666,
                    "velocity": 0.8503937007874016,
                    "duration": 0.09375
                },
                {
                    "name": "F#5",
                    "midi": 78,
                    "time": 56.72916666666666,
                    "velocity": 0.8503937007874016,
                    "duration": 0.09375
                },
                {
                    "name": "A#5",
                    "midi": 82,
                    "time": 56.85416666666666,
                    "velocity": 0.84251968503937,
                    "duration": 0.09375
                },
                {
                    "name": "A#5",
                    "midi": 82,
                    "time": 57.10416666666666,
                    "velocity": 0.8346456692913385,
                    "duration": 0.09375
                },
                {
                    "name": "A#5",
                    "midi": 82,
                    "time": 57.35416666666666,
                    "velocity": 0.8267716535433071,
                    "duration": 0.09375
                },
                {
                    "name": "A#5",
                    "midi": 82,
                    "time": 57.60416666666666,
                    "velocity": 0.8188976377952756,
                    "duration": 0.09375
                },
                {
                    "name": "A#5",
                    "midi": 82,
                    "time": 57.85416666666666,
                    "velocity": 0.8031496062992126,
                    "duration": 0.09375
                },
                {
                    "name": "A#5",
                    "midi": 82,
                    "time": 58.10416666666666,
                    "velocity": 0.7952755905511811,
                    "duration": 0.09375
                },
                {
                    "name": "A#5",
                    "midi": 82,
                    "time": 58.35416666666666,
                    "velocity": 0.7874015748031497,
                    "duration": 0.09375
                },
                {
                    "name": "A#5",
                    "midi": 82,
                    "time": 58.60416666666666,
                    "velocity": 0.7795275590551181,
                    "duration": 0.09375
                },
                {
                    "name": "A#5",
                    "midi": 82,
                    "time": 58.85416666666666,
                    "velocity": 0.7637795275590551,
                    "duration": 0.09375
                },
                {
                    "name": "A#5",
                    "midi": 82,
                    "time": 59.10416666666666,
                    "velocity": 0.7559055118110236,
                    "duration": 0.09375
                },
                {
                    "name": "B5",
                    "midi": 83,
                    "time": 59.35416666666666,
                    "velocity": 0.8582677165354331,
                    "duration": 0.1354166666666643
                },
                {
                    "name": "B5",
                    "midi": 83,
                    "time": 59.60416666666666,
                    "velocity": 0.84251968503937,
                    "duration": 0.09375
                },
                {
                    "name": "B5",
                    "midi": 83,
                    "time": 59.85416666666666,
                    "velocity": 0.8188976377952756,
                    "duration": 0.09375
                },
                {
                    "name": "B5",
                    "midi": 83,
                    "time": 60.10416666666666,
                    "velocity": 0.8031496062992126,
                    "duration": 0.09375
                },
                {
                    "name": "B5",
                    "midi": 83,
                    "time": 60.35416666666666,
                    "velocity": 0.7795275590551181,
                    "duration": 0.09375
                },
                {
                    "name": "B5",
                    "midi": 83,
                    "time": 60.60416666666666,
                    "velocity": 0.7637795275590551,
                    "duration": 0.09375
                },
                {
                    "name": "D6",
                    "midi": 86,
                    "time": 60.85416666666666,
                    "velocity": 0.7480314960629921,
                    "duration": 0.1354166666666643
                },
                {
                    "name": "D6",
                    "midi": 86,
                    "time": 61.10416666666666,
                    "velocity": 0.937007874015748,
                    "duration": 0.09375
                },
                {
                    "name": "D6",
                    "midi": 86,
                    "time": 61.35416666666666,
                    "velocity": 0.9212598425196851,
                    "duration": 0.09375
                },
                {
                    "name": "D6",
                    "midi": 86,
                    "time": 61.60416666666666,
                    "velocity": 0.8976377952755905,
                    "duration": 0.09375
                },
                {
                    "name": "D6",
                    "midi": 86,
                    "time": 61.85416666666666,
                    "velocity": 0.8818897637795275,
                    "duration": 0.09375
                },
                {
                    "name": "D6",
                    "midi": 86,
                    "time": 62.10416666666666,
                    "velocity": 0.8582677165354331,
                    "duration": 0.09375
                },
                {
                    "name": "D6",
                    "midi": 86,
                    "time": 62.35416666666666,
                    "velocity": 0.84251968503937,
                    "duration": 0.1354166666666643
                },
                {
                    "name": "D6",
                    "midi": 86,
                    "time": 62.60416666666666,
                    "velocity": 0.937007874015748,
                    "duration": 0.09375
                },
                {
                    "name": "D6",
                    "midi": 86,
                    "time": 62.85416666666666,
                    "velocity": 0.9212598425196851,
                    "duration": 0.09375
                },
                {
                    "name": "D6",
                    "midi": 86,
                    "time": 63.10416666666666,
                    "velocity": 0.8976377952755905,
                    "duration": 0.09375
                },
                {
                    "name": "D6",
                    "midi": 86,
                    "time": 63.35416666666666,
                    "velocity": 0.8818897637795275,
                    "duration": 0.09375
                },
                {
                    "name": "D6",
                    "midi": 86,
                    "time": 63.60416666666666,
                    "velocity": 0.8582677165354331,
                    "duration": 0.09375
                },
                {
                    "name": "D6",
                    "midi": 86,
                    "time": 63.85416666666666,
                    "velocity": 0.84251968503937,
                    "duration": 0.1354166666666643
                },
                {
                    "name": "D6",
                    "midi": 86,
                    "time": 64.10416666666666,
                    "velocity": 0.937007874015748,
                    "duration": 0.09375
                },
                {
                    "name": "D6",
                    "midi": 86,
                    "time": 64.35416666666666,
                    "velocity": 0.9212598425196851,
                    "duration": 0.09375
                },
                {
                    "name": "D6",
                    "midi": 86,
                    "time": 64.60416666666666,
                    "velocity": 0.8976377952755905,
                    "duration": 0.09375
                },
                {
                    "name": "D6",
                    "midi": 86,
                    "time": 64.85416666666666,
                    "velocity": 0.8818897637795275,
                    "duration": 0.09375
                },
                {
                    "name": "D6",
                    "midi": 86,
                    "time": 65.10416666666666,
                    "velocity": 0.8582677165354331,
                    "duration": 0.09375
                },
                {
                    "name": "C#6",
                    "midi": 85,
                    "time": 65.35416666666666,
                    "velocity": 0.84251968503937,
                    "duration": 0.1354166666666714
                },
                {
                    "name": "C#6",
                    "midi": 85,
                    "time": 65.60416666666666,
                    "velocity": 0.8582677165354331,
                    "duration": 0.09375
                },
                {
                    "name": "C#6",
                    "midi": 85,
                    "time": 65.85416666666666,
                    "velocity": 0.84251968503937,
                    "duration": 0.09375
                },
                {
                    "name": "C#6",
                    "midi": 85,
                    "time": 66.10416666666666,
                    "velocity": 0.8188976377952756,
                    "duration": 0.09375
                },
                {
                    "name": "C#6",
                    "midi": 85,
                    "time": 66.35416666666666,
                    "velocity": 0.8031496062992126,
                    "duration": 0.09375
                },
                {
                    "name": "C#6",
                    "midi": 85,
                    "time": 66.60416666666666,
                    "velocity": 0.7795275590551181,
                    "duration": 0.09375
                },
                {
                    "name": "B5",
                    "midi": 83,
                    "time": 66.85416666666666,
                    "velocity": 0.7637795275590551,
                    "duration": 0.1354166666666714
                },
                {
                    "name": "D6",
                    "midi": 86,
                    "time": 67.10416666666666,
                    "velocity": 0.7480314960629921,
                    "duration": 0.09375
                },
                {
                    "name": "C#6",
                    "midi": 85,
                    "time": 67.35416666666666,
                    "velocity": 0.8503937007874016,
                    "duration": 0.09375
                },
                {
                    "name": "B5",
                    "midi": 83,
                    "time": 67.60416666666666,
                    "velocity": 0.8188976377952756,
                    "duration": 0.09375
                },
                {
                    "name": "B5",
                    "midi": 83,
                    "time": 67.85416666666666,
                    "velocity": 0.7952755905511811,
                    "duration": 0.09375
                },
                {
                    "name": "B5",
                    "midi": 83,
                    "time": 68.10416666666666,
                    "velocity": 0.7795275590551181,
                    "duration": 0.09375
                },
                {
                    "name": "A#5",
                    "midi": 82,
                    "time": 68.35416666666666,
                    "velocity": 0.7086614173228346,
                    "duration": 0.1354166666666714
                },
                {
                    "name": "F#5",
                    "midi": 78,
                    "time": 68.60416666666666,
                    "velocity": 0.7244094488188977,
                    "duration": 0.09375
                },
                {
                    "name": "G#5",
                    "midi": 80,
                    "time": 68.85416666666666,
                    "velocity": 0.7480314960629921,
                    "duration": 0.09375
                },
                {
                    "name": "A#5",
                    "midi": 82,
                    "time": 69.10416666666666,
                    "velocity": 0.7716535433070866,
                    "duration": 0.09375
                },
                {
                    "name": "B5",
                    "midi": 83,
                    "time": 69.35416666666666,
                    "velocity": 0.7874015748031497,
                    "duration": 0.09375
                },
                {
                    "name": "C#6",
                    "midi": 85,
                    "time": 69.60416666666666,
                    "velocity": 0.8110236220472441,
                    "duration": 0.09375
                },
                {
                    "name": "D6",
                    "midi": 86,
                    "time": 69.85416666666666,
                    "velocity": 0.8582677165354331,
                    "duration": 0.1354166666666714
                },
                {
                    "name": "C#6",
                    "midi": 85,
                    "time": 73.35416666666666,
                    "velocity": 0.7874015748031497,
                    "duration": 0.09375
                },
                {
                    "name": "F#6",
                    "midi": 90,
                    "time": 73.60416666666666,
                    "velocity": 0.8661417322834646,
                    "duration": 0.09375
                },
                {
                    "name": "C#6",
                    "midi": 85,
                    "time": 73.85416666666666,
                    "velocity": 0.84251968503937,
                    "duration": 0.09375
                },
                {
                    "name": "A5",
                    "midi": 81,
                    "time": 76.16666666666666,
                    "velocity": 0.8110236220472441,
                    "duration": 0.1354166666666714
                },
                {
                    "name": "G#5",
                    "midi": 80,
                    "time": 76.29166666666666,
                    "velocity": 0.8031496062992126,
                    "duration": 0.1354166666666714
                },
                {
                    "name": "A5",
                    "midi": 81,
                    "time": 76.41666666666666,
                    "velocity": 0.7874015748031497,
                    "duration": 0.09375
                },
                {
                    "name": "G5",
                    "midi": 79,
                    "time": 76.54166666666666,
                    "velocity": 0.7716535433070866,
                    "duration": 0.09375
                },
                {
                    "name": "A5",
                    "midi": 81,
                    "time": 76.66666666666666,
                    "velocity": 0.7637795275590551,
                    "duration": 0.09375
                },
                {
                    "name": "F5",
                    "midi": 77,
                    "time": 76.79166666666666,
                    "velocity": 0.7480314960629921,
                    "duration": 0.09375
                },
                {
                    "name": "A5",
                    "midi": 81,
                    "time": 76.91666666666666,
                    "velocity": 0.7322834645669292,
                    "duration": 0.09375
                },
                {
                    "name": "F#5",
                    "midi": 78,
                    "time": 77.04166666666666,
                    "velocity": 0.7244094488188977,
                    "duration": 0.09375
                },
                {
                    "name": "A5",
                    "midi": 81,
                    "time": 77.16666666666666,
                    "velocity": 0.7086614173228346,
                    "duration": 0.09375
                },
                {
                    "name": "A5",
                    "midi": 81,
                    "time": 77.41666666666666,
                    "velocity": 0.6850393700787402,
                    "duration": 0.09375
                },
                {
                    "name": "A5",
                    "midi": 81,
                    "time": 77.66666666666666,
                    "velocity": 0.6850393700787402,
                    "duration": 0.09375
                },
                {
                    "name": "A5",
                    "midi": 81,
                    "time": 77.91666666666666,
                    "velocity": 0.7165354330708661,
                    "duration": 0.09375
                },
                {
                    "name": "A5",
                    "midi": 81,
                    "time": 78.16666666666666,
                    "velocity": 0.7480314960629921,
                    "duration": 0.09375
                },
                {
                    "name": "A5",
                    "midi": 81,
                    "time": 78.41666666666666,
                    "velocity": 0.7795275590551181,
                    "duration": 0.09375
                },
                {
                    "name": "A5",
                    "midi": 81,
                    "time": 78.66666666666666,
                    "velocity": 0.8110236220472441,
                    "duration": 0.09375
                },
                {
                    "name": "A5",
                    "midi": 81,
                    "time": 78.91666666666666,
                    "velocity": 0.84251968503937,
                    "duration": 0.09375
                },
                {
                    "name": "A5",
                    "midi": 81,
                    "time": 79.20833333333333,
                    "velocity": 0.8661417322834646,
                    "duration": 0.1354166666666714
                },
                {
                    "name": "G#5",
                    "midi": 80,
                    "time": 79.33333333333333,
                    "velocity": 0.8661417322834646,
                    "duration": 0.1354166666666714
                },
                {
                    "name": "A5",
                    "midi": 81,
                    "time": 79.45833333333333,
                    "velocity": 0.8582677165354331,
                    "duration": 0.09375
                },
                {
                    "name": "G5",
                    "midi": 79,
                    "time": 79.58333333333333,
                    "velocity": 0.8503937007874016,
                    "duration": 0.09375
                },
                {
                    "name": "A5",
                    "midi": 81,
                    "time": 79.70833333333333,
                    "velocity": 0.84251968503937,
                    "duration": 0.09375
                },
                {
                    "name": "A5",
                    "midi": 81,
                    "time": 79.95833333333333,
                    "velocity": 0.8267716535433071,
                    "duration": 0.09375
                },
                {
                    "name": "A5",
                    "midi": 81,
                    "time": 80.20833333333333,
                    "velocity": 0.8188976377952756,
                    "duration": 0.09375
                },
                {
                    "name": "A5",
                    "midi": 81,
                    "time": 80.45833333333333,
                    "velocity": 0.8031496062992126,
                    "duration": 0.09375
                },
                {
                    "name": "A5",
                    "midi": 81,
                    "time": 80.70833333333333,
                    "velocity": 0.7874015748031497,
                    "duration": 0.09375
                },
                {
                    "name": "A5",
                    "midi": 81,
                    "time": 80.95833333333333,
                    "velocity": 0.7716535433070866,
                    "duration": 0.09375
                },
                {
                    "name": "A5",
                    "midi": 81,
                    "time": 81.20833333333333,
                    "velocity": 0.7637795275590551,
                    "duration": 0.09375
                },
                {
                    "name": "A5",
                    "midi": 81,
                    "time": 81.45833333333333,
                    "velocity": 0.7480314960629921,
                    "duration": 0.09375
                },
                {
                    "name": "A5",
                    "midi": 81,
                    "time": 81.70833333333333,
                    "velocity": 0.7322834645669292,
                    "duration": 0.09375
                },
                {
                    "name": "A5",
                    "midi": 81,
                    "time": 81.95833333333333,
                    "velocity": 0.7165354330708661,
                    "duration": 0.09375
                },
                {
                    "name": "D6",
                    "midi": 86,
                    "time": 82.20833333333333,
                    "velocity": 0.8267716535433071,
                    "duration": 0.1354166666666714
                },
                {
                    "name": "A5",
                    "midi": 81,
                    "time": 82.33333333333333,
                    "velocity": 0.8267716535433071,
                    "duration": 0.1354166666666714
                },
                {
                    "name": "D6",
                    "midi": 86,
                    "time": 82.45833333333333,
                    "velocity": 0.8188976377952756,
                    "duration": 0.09375
                },
                {
                    "name": "G#5",
                    "midi": 80,
                    "time": 82.58333333333333,
                    "velocity": 0.8188976377952756,
                    "duration": 0.09375
                },
                {
                    "name": "D6",
                    "midi": 86,
                    "time": 82.70833333333333,
                    "velocity": 0.8110236220472441,
                    "duration": 0.09375
                },
                {
                    "name": "A5",
                    "midi": 81,
                    "time": 82.83333333333333,
                    "velocity": 0.8031496062992126,
                    "duration": 0.09375
                },
                {
                    "name": "D6",
                    "midi": 86,
                    "time": 82.95833333333333,
                    "velocity": 0.7952755905511811,
                    "duration": 0.09375
                },
                {
                    "name": "D6",
                    "midi": 86,
                    "time": 83.20833333333333,
                    "velocity": 0.7874015748031497,
                    "duration": 0.09375
                },
                {
                    "name": "C#6",
                    "midi": 85,
                    "time": 83.45833333333333,
                    "velocity": 0.7795275590551181,
                    "duration": 0.1354166666666714
                },
                {
                    "name": "G5",
                    "midi": 79,
                    "time": 83.58333333333333,
                    "velocity": 0.7480314960629921,
                    "duration": 0.1354166666666714
                },
                {
                    "name": "C#6",
                    "midi": 85,
                    "time": 83.70833333333333,
                    "velocity": 0.7637795275590551,
                    "duration": 0.09375
                },
                {
                    "name": "G5",
                    "midi": 79,
                    "time": 83.83333333333333,
                    "velocity": 0.7874015748031497,
                    "duration": 0.09375
                },
                {
                    "name": "B5",
                    "midi": 83,
                    "time": 83.95833333333333,
                    "velocity": 0.7559055118110236,
                    "duration": 0.09375
                },
                {
                    "name": "B5",
                    "midi": 83,
                    "time": 84.20833333333333,
                    "velocity": 0.7480314960629921,
                    "duration": 0.09375
                },
                {
                    "name": "B5",
                    "midi": 83,
                    "time": 84.45833333333333,
                    "velocity": 0.7480314960629921,
                    "duration": 0.09375
                },
                {
                    "name": "B5",
                    "midi": 83,
                    "time": 84.70833333333333,
                    "velocity": 0.7480314960629921,
                    "duration": 0.09375
                },
                {
                    "name": "B5",
                    "midi": 83,
                    "time": 84.95833333333333,
                    "velocity": 0.7480314960629921,
                    "duration": 0.1354166666666714
                },
                {
                    "name": "F#5",
                    "midi": 78,
                    "time": 85.08333333333333,
                    "velocity": 0.7480314960629921,
                    "duration": 0.1354166666666714
                },
                {
                    "name": "B5",
                    "midi": 83,
                    "time": 85.20833333333333,
                    "velocity": 0.7637795275590551,
                    "duration": 0.09375
                },
                {
                    "name": "F#5",
                    "midi": 78,
                    "time": 85.33333333333333,
                    "velocity": 0.7637795275590551,
                    "duration": 0.09375
                },
                {
                    "name": "A5",
                    "midi": 81,
                    "time": 85.45833333333333,
                    "velocity": 0.7559055118110236,
                    "duration": 0.09375
                },
                {
                    "name": "A5",
                    "midi": 81,
                    "time": 85.70833333333333,
                    "velocity": 0.7480314960629921,
                    "duration": 0.09375
                },
                {
                    "name": "A5",
                    "midi": 81,
                    "time": 85.95833333333333,
                    "velocity": 0.7480314960629921,
                    "duration": 0.09375
                },
                {
                    "name": "A5",
                    "midi": 81,
                    "time": 86.20833333333333,
                    "velocity": 0.7480314960629921,
                    "duration": 0.09375
                },
                {
                    "name": "A5",
                    "midi": 81,
                    "time": 86.45833333333333,
                    "velocity": 0.7480314960629921,
                    "duration": 0.1354166666666714
                },
                {
                    "name": "A5",
                    "midi": 81,
                    "time": 86.70833333333333,
                    "velocity": 0.7637795275590551,
                    "duration": 0.09375
                },
                {
                    "name": "G5",
                    "midi": 79,
                    "time": 86.95833333333333,
                    "velocity": 0.7559055118110236,
                    "duration": 0.09375
                },
                {
                    "name": "G5",
                    "midi": 79,
                    "time": 87.20833333333333,
                    "velocity": 0.7480314960629921,
                    "duration": 0.09375
                },
                {
                    "name": "G5",
                    "midi": 79,
                    "time": 87.45833333333333,
                    "velocity": 0.7480314960629921,
                    "duration": 0.09375
                },
                {
                    "name": "G5",
                    "midi": 79,
                    "time": 87.70833333333333,
                    "velocity": 0.7480314960629921,
                    "duration": 0.09375
                },
                {
                    "name": "F#6",
                    "midi": 90,
                    "time": 88.33333333333333,
                    "velocity": 0.9448818897637795,
                    "duration": 0.09375
                },
                {
                    "name": "F6",
                    "midi": 89,
                    "time": 88.58333333333333,
                    "velocity": 0.9448818897637795,
                    "duration": 0.09375
                },
                {
                    "name": "F#6",
                    "midi": 90,
                    "time": 88.83333333333333,
                    "velocity": 0.9448818897637795,
                    "duration": 0.09375
                },
                {
                    "name": "E6",
                    "midi": 88,
                    "time": 89.08333333333333,
                    "velocity": 0.9448818897637795,
                    "duration": 0.09375
                },
                {
                    "name": "D6",
                    "midi": 86,
                    "time": 89.33333333333333,
                    "velocity": 0.9448818897637795,
                    "duration": 0.09375
                },
                {
                    "name": "C#6",
                    "midi": 85,
                    "time": 89.58333333333333,
                    "velocity": 0.9448818897637795,
                    "duration": 0.09375
                },
                {
                    "name": "F#6",
                    "midi": 90,
                    "time": 91.33333333333333,
                    "velocity": 0.9448818897637795,
                    "duration": 0.09375
                },
                {
                    "name": "F6",
                    "midi": 89,
                    "time": 91.58333333333333,
                    "velocity": 0.9448818897637795,
                    "duration": 0.09375
                },
                {
                    "name": "F#6",
                    "midi": 90,
                    "time": 91.83333333333333,
                    "velocity": 0.9448818897637795,
                    "duration": 0.09375
                },
                {
                    "name": "E6",
                    "midi": 88,
                    "time": 92.08333333333333,
                    "velocity": 0.9448818897637795,
                    "duration": 0.09375
                },
                {
                    "name": "D6",
                    "midi": 86,
                    "time": 92.33333333333333,
                    "velocity": 0.9448818897637795,
                    "duration": 0.09375
                },
                {
                    "name": "C#6",
                    "midi": 85,
                    "time": 92.58333333333333,
                    "velocity": 0.9448818897637795,
                    "duration": 0.09375
                },
                {
                    "name": "A6",
                    "midi": 93,
                    "time": 94.33333333333333,
                    "velocity": 0.905511811023622,
                    "duration": 0.09375
                },
                {
                    "name": "G6",
                    "midi": 91,
                    "time": 94.58333333333333,
                    "velocity": 0.905511811023622,
                    "duration": 0.09375
                },
                {
                    "name": "F#6",
                    "midi": 90,
                    "time": 94.83333333333333,
                    "velocity": 0.905511811023622,
                    "duration": 0.09375
                },
                {
                    "name": "G6",
                    "midi": 91,
                    "time": 95.08333333333333,
                    "velocity": 0.905511811023622,
                    "duration": 0.09375
                },
                {
                    "name": "A6",
                    "midi": 93,
                    "time": 95.33333333333333,
                    "velocity": 0.905511811023622,
                    "duration": 0.09375
                },
                {
                    "name": "B6",
                    "midi": 95,
                    "time": 95.70833333333333,
                    "velocity": 0.7086614173228346,
                    "duration": 0.0729166666666714
                },
                {
                    "name": "B6",
                    "midi": 95,
                    "time": 95.95833333333333,
                    "velocity": 0.7086614173228346,
                    "duration": 0.0729166666666714
                },
                {
                    "name": "B6",
                    "midi": 95,
                    "time": 96.20833333333333,
                    "velocity": 0.7165354330708661,
                    "duration": 0.0729166666666714
                },
                {
                    "name": "B6",
                    "midi": 95,
                    "time": 96.45833333333333,
                    "velocity": 0.7165354330708661,
                    "duration": 0.0729166666666714
                },
                {
                    "name": "D7",
                    "midi": 98,
                    "time": 96.70833333333333,
                    "velocity": 0.7244094488188977,
                    "duration": 0.0729166666666714
                },
                {
                    "name": "D7",
                    "midi": 98,
                    "time": 96.95833333333333,
                    "velocity": 0.7322834645669292,
                    "duration": 0.0729166666666714
                },
                {
                    "name": "C#7",
                    "midi": 97,
                    "time": 97.20833333333333,
                    "velocity": 0.7322834645669292,
                    "duration": 0.0729166666666714
                },
                {
                    "name": "D7",
                    "midi": 98,
                    "time": 97.45833333333333,
                    "velocity": 0.7401574803149606,
                    "duration": 0.0729166666666714
                },
                {
                    "name": "E7",
                    "midi": 100,
                    "time": 97.70833333333333,
                    "velocity": 0.7401574803149606,
                    "duration": 0.0729166666666714
                },
                {
                    "name": "F#7",
                    "midi": 102,
                    "time": 97.95833333333333,
                    "velocity": 0.7480314960629921,
                    "duration": 0.0729166666666714
                },
                {
                    "name": "D7",
                    "midi": 98,
                    "time": 98.20833333333333,
                    "velocity": 0.7480314960629921,
                    "duration": 0.0729166666666714
                },
                {
                    "name": "B6",
                    "midi": 95,
                    "time": 98.45833333333333,
                    "velocity": 0.7559055118110236,
                    "duration": 0.0729166666666714
                },
                {
                    "name": "A6",
                    "midi": 93,
                    "time": 98.70833333333333,
                    "velocity": 0.7559055118110236,
                    "duration": 0.0729166666666714
                },
                {
                    "name": "F#6",
                    "midi": 90,
                    "time": 98.95833333333333,
                    "velocity": 0.7637795275590551,
                    "duration": 0.0729166666666714
                },
                {
                    "name": "F#6",
                    "midi": 90,
                    "time": 99.20833333333333,
                    "velocity": 0.7716535433070866,
                    "duration": 0.0729166666666714
                },
                {
                    "name": "G6",
                    "midi": 91,
                    "time": 99.45833333333333,
                    "velocity": 0.7716535433070866,
                    "duration": 0.0729166666666714
                },
                {
                    "name": "E6",
                    "midi": 88,
                    "time": 99.70833333333333,
                    "velocity": 0.7795275590551181,
                    "duration": 0.0729166666666714
                },
                {
                    "name": "E6",
                    "midi": 88,
                    "time": 99.95833333333333,
                    "velocity": 0.7795275590551181,
                    "duration": 0.0729166666666714
                },
                {
                    "name": "F#6",
                    "midi": 90,
                    "time": 100.33333333333333,
                    "velocity": 0.937007874015748,
                    "duration": 0.09375
                },
                {
                    "name": "E6",
                    "midi": 88,
                    "time": 100.58333333333333,
                    "velocity": 0.9212598425196851,
                    "duration": 0.09375
                },
                {
                    "name": "D6",
                    "midi": 86,
                    "time": 100.83333333333333,
                    "velocity": 0.9133858267716536,
                    "duration": 0.09375
                },
                {
                    "name": "C#6",
                    "midi": 85,
                    "time": 101.08333333333333,
                    "velocity": 0.8976377952755905,
                    "duration": 0.09375
                },
                {
                    "name": "B5",
                    "midi": 83,
                    "time": 101.33333333333333,
                    "velocity": 0.889763779527559,
                    "duration": 0.09375
                },
                {
                    "name": "A5",
                    "midi": 81,
                    "time": 101.58333333333333,
                    "velocity": 0.8740157480314961,
                    "duration": 0.09375
                },
                {
                    "name": "D6",
                    "midi": 86,
                    "time": 101.70833333333333,
                    "velocity": 0.9448818897637795,
                    "duration": 0.09375
                },
                {
                    "name": "C#6",
                    "midi": 85,
                    "time": 101.95833333333333,
                    "velocity": 0.937007874015748,
                    "duration": 0.09375
                },
                {
                    "name": "B5",
                    "midi": 83,
                    "time": 102.20833333333333,
                    "velocity": 0.9212598425196851,
                    "duration": 0.09375
                },
                {
                    "name": "A5",
                    "midi": 81,
                    "time": 102.45833333333333,
                    "velocity": 0.9133858267716536,
                    "duration": 0.09375
                },
                {
                    "name": "G5",
                    "midi": 79,
                    "time": 102.70833333333333,
                    "velocity": 0.8976377952755905,
                    "duration": 0.09375
                },
                {
                    "name": "C#6",
                    "midi": 85,
                    "time": 103.83333333333333,
                    "velocity": 0.9133858267716536,
                    "duration": 0.1354166666666714
                },
                {
                    "name": "D6",
                    "midi": 86,
                    "time": 103.95833333333333,
                    "velocity": 0.905511811023622,
                    "duration": 0.13541666666668561
                },
                {
                    "name": "G5",
                    "midi": 79,
                    "time": 104.08333333333334,
                    "velocity": 0.905511811023622,
                    "duration": 0.11458333333334281
                },
                {
                    "name": "F#5",
                    "midi": 78,
                    "time": 104.20833333333336,
                    "velocity": 0.8976377952755905,
                    "duration": 0.09375
                },
                {
                    "name": "B5",
                    "midi": 83,
                    "time": 105.28125000000003,
                    "velocity": 0.8661417322834646,
                    "duration": 0.09375
                },
                {
                    "name": "A#5",
                    "midi": 82,
                    "time": 105.53125000000003,
                    "velocity": 0.8503937007874016,
                    "duration": 0.09375
                },
                {
                    "name": "A5",
                    "midi": 81,
                    "time": 105.78125000000003,
                    "velocity": 0.8346456692913385,
                    "duration": 0.09375
                },
                {
                    "name": "B5",
                    "midi": 83,
                    "time": 107.90625000000003,
                    "velocity": 0.7086614173228346,
                    "duration": 0.1354166666666714
                },
                {
                    "name": "A#5",
                    "midi": 82,
                    "time": 108.03125000000003,
                    "velocity": 0.7086614173228346,
                    "duration": 0.1354166666666714
                },
                {
                    "name": "B5",
                    "midi": 83,
                    "time": 108.15625000000003,
                    "velocity": 0.7086614173228346,
                    "duration": 0.09375
                },
                {
                    "name": "B5",
                    "midi": 83,
                    "time": 108.40625000000003,
                    "velocity": 0.8582677165354331,
                    "duration": 0.09375
                },
                {
                    "name": "B5",
                    "midi": 83,
                    "time": 108.65625000000003,
                    "velocity": 0.84251968503937,
                    "duration": 0.09375
                },
                {
                    "name": "B5",
                    "midi": 83,
                    "time": 108.90625000000003,
                    "velocity": 0.8267716535433071,
                    "duration": 0.09375
                },
                {
                    "name": "B5",
                    "midi": 83,
                    "time": 109.15625000000003,
                    "velocity": 0.8110236220472441,
                    "duration": 0.09375
                },
                {
                    "name": "B5",
                    "midi": 83,
                    "time": 109.40625000000003,
                    "velocity": 0.7952755905511811,
                    "duration": 0.09375
                },
                {
                    "name": "B5",
                    "midi": 83,
                    "time": 109.65625000000003,
                    "velocity": 0.7795275590551181,
                    "duration": 0.09375
                },
                {
                    "name": "B5",
                    "midi": 83,
                    "time": 109.90625000000003,
                    "velocity": 0.7637795275590551,
                    "duration": 0.09375
                },
                {
                    "name": "B5",
                    "midi": 83,
                    "time": 110.15625000000003,
                    "velocity": 0.7480314960629921,
                    "duration": 0.09375
                },
                {
                    "name": "B5",
                    "midi": 83,
                    "time": 110.40625000000003,
                    "velocity": 0.7322834645669292,
                    "duration": 0.09375
                },
                {
                    "name": "B5",
                    "midi": 83,
                    "time": 110.65625000000003,
                    "velocity": 0.7165354330708661,
                    "duration": 0.09375
                },
                {
                    "name": "E6",
                    "midi": 88,
                    "time": 110.78125000000003,
                    "velocity": 0.7086614173228346,
                    "duration": 0.09375
                },
                {
                    "name": "E6",
                    "midi": 88,
                    "time": 111.28125000000003,
                    "velocity": 0.8661417322834646,
                    "duration": 0.09375
                },
                {
                    "name": "D#6",
                    "midi": 87,
                    "time": 111.53125000000003,
                    "velocity": 0.8503937007874016,
                    "duration": 0.09375
                },
                {
                    "name": "D6",
                    "midi": 86,
                    "time": 111.78125000000003,
                    "velocity": 0.8346456692913385,
                    "duration": 0.09375
                },
                {
                    "name": "C#6",
                    "midi": 85,
                    "time": 112.03125000000003,
                    "velocity": 0.8188976377952756,
                    "duration": 0.09375
                },
                {
                    "name": "C6",
                    "midi": 84,
                    "time": 112.28125000000003,
                    "velocity": 0.8031496062992126,
                    "duration": 0.09375
                },
                {
                    "name": "B5",
                    "midi": 83,
                    "time": 112.53125000000003,
                    "velocity": 0.7874015748031497,
                    "duration": 0.09375
                },
                {
                    "name": "A5",
                    "midi": 81,
                    "time": 112.78125000000003,
                    "velocity": 0.7716535433070866,
                    "duration": 0.09375
                },
                {
                    "name": "G#5",
                    "midi": 80,
                    "time": 113.03125000000003,
                    "velocity": 0.7559055118110236,
                    "duration": 0.09375
                },
                {
                    "name": "G5",
                    "midi": 79,
                    "time": 113.28125000000003,
                    "velocity": 0.7401574803149606,
                    "duration": 0.09375
                },
                {
                    "name": "E6",
                    "midi": 88,
                    "time": 113.90625000000003,
                    "velocity": 0.7086614173228346,
                    "duration": 0.1354166666666714
                },
                {
                    "name": "D#6",
                    "midi": 87,
                    "time": 114.03125000000003,
                    "velocity": 0.7086614173228346,
                    "duration": 0.1354166666666714
                },
                {
                    "name": "E6",
                    "midi": 88,
                    "time": 114.15625000000003,
                    "velocity": 0.7086614173228346,
                    "duration": 0.09375
                },
                {
                    "name": "E6",
                    "midi": 88,
                    "time": 114.40625000000003,
                    "velocity": 0.8582677165354331,
                    "duration": 0.09375
                },
                {
                    "name": "E6",
                    "midi": 88,
                    "time": 114.65625000000003,
                    "velocity": 0.84251968503937,
                    "duration": 0.09375
                },
                {
                    "name": "E6",
                    "midi": 88,
                    "time": 114.90625000000003,
                    "velocity": 0.8267716535433071,
                    "duration": 0.09375
                },
                {
                    "name": "E6",
                    "midi": 88,
                    "time": 115.15625000000003,
                    "velocity": 0.8110236220472441,
                    "duration": 0.09375
                },
                {
                    "name": "E6",
                    "midi": 88,
                    "time": 115.40625000000003,
                    "velocity": 0.7952755905511811,
                    "duration": 0.09375
                },
                {
                    "name": "E6",
                    "midi": 88,
                    "time": 115.65625000000003,
                    "velocity": 0.7795275590551181,
                    "duration": 0.09375
                },
                {
                    "name": "E6",
                    "midi": 88,
                    "time": 115.90625000000003,
                    "velocity": 0.7637795275590551,
                    "duration": 0.09375
                },
                {
                    "name": "E6",
                    "midi": 88,
                    "time": 116.15625000000003,
                    "velocity": 0.7480314960629921,
                    "duration": 0.09375
                },
                {
                    "name": "E6",
                    "midi": 88,
                    "time": 116.40625000000003,
                    "velocity": 0.7322834645669292,
                    "duration": 0.09375
                },
                {
                    "name": "E6",
                    "midi": 88,
                    "time": 116.65625000000003,
                    "velocity": 0.7165354330708661,
                    "duration": 0.09375
                },
                {
                    "name": "D6",
                    "midi": 86,
                    "time": 118.78125000000003,
                    "velocity": 0.8661417322834646,
                    "duration": 0.09375
                },
                {
                    "name": "D6",
                    "midi": 86,
                    "time": 119.03125000000003,
                    "velocity": 0.8503937007874016,
                    "duration": 0.09375
                },
                {
                    "name": "D6",
                    "midi": 86,
                    "time": 119.28125000000003,
                    "velocity": 0.8267716535433071,
                    "duration": 0.09375
                },
                {
                    "name": "D6",
                    "midi": 86,
                    "time": 119.53125000000003,
                    "velocity": 0.8110236220472441,
                    "duration": 0.09375
                },
                {
                    "name": "C6",
                    "midi": 84,
                    "time": 121.78125000000003,
                    "velocity": 0.8661417322834646,
                    "duration": 0.09375
                },
                {
                    "name": "C6",
                    "midi": 84,
                    "time": 122.03125000000003,
                    "velocity": 0.8503937007874016,
                    "duration": 0.09375
                },
                {
                    "name": "C6",
                    "midi": 84,
                    "time": 122.28125000000003,
                    "velocity": 0.8267716535433071,
                    "duration": 0.09375
                },
                {
                    "name": "C6",
                    "midi": 84,
                    "time": 122.53125000000003,
                    "velocity": 0.8110236220472441,
                    "duration": 0.09375
                },
                {
                    "name": "C6",
                    "midi": 84,
                    "time": 123.28125000000003,
                    "velocity": 0.8661417322834646,
                    "duration": 0.09375
                },
                {
                    "name": "D6",
                    "midi": 86,
                    "time": 123.53125000000003,
                    "velocity": 0.8503937007874016,
                    "duration": 0.09375
                },
                {
                    "name": "C#6",
                    "midi": 85,
                    "time": 123.78125000000003,
                    "velocity": 0.8267716535433071,
                    "duration": 0.09375
                },
                {
                    "name": "C6",
                    "midi": 84,
                    "time": 124.03125000000003,
                    "velocity": 0.8110236220472441,
                    "duration": 0.09375
                },
                {
                    "name": "B5",
                    "midi": 83,
                    "time": 124.28125000000003,
                    "velocity": 0.7874015748031497,
                    "duration": 0.09375
                },
                {
                    "name": "A#5",
                    "midi": 82,
                    "time": 124.53125000000003,
                    "velocity": 0.7795275590551181,
                    "duration": 0.09375
                },
                {
                    "name": "A5",
                    "midi": 81,
                    "time": 124.78125000000003,
                    "velocity": 0.7716535433070866,
                    "duration": 0.09375
                },
                {
                    "name": "G#5",
                    "midi": 80,
                    "time": 125.03125000000003,
                    "velocity": 0.7637795275590551,
                    "duration": 0.09375
                },
                {
                    "name": "F5",
                    "midi": 77,
                    "time": 132.15625000000003,
                    "velocity": 0.7637795275590551,
                    "duration": 0.09375
                },
                {
                    "name": "F#5",
                    "midi": 78,
                    "time": 132.40625000000003,
                    "velocity": 0.7795275590551181,
                    "duration": 0.09375
                },
                {
                    "name": "G5",
                    "midi": 79,
                    "time": 132.65625000000003,
                    "velocity": 0.7874015748031497,
                    "duration": 0.09375
                },
                {
                    "name": "G#5",
                    "midi": 80,
                    "time": 132.90625000000003,
                    "velocity": 0.8031496062992126,
                    "duration": 0.09375
                },
                {
                    "name": "A5",
                    "midi": 81,
                    "time": 133.15625000000003,
                    "velocity": 0.8188976377952756,
                    "duration": 0.09375
                },
                {
                    "name": "A#5",
                    "midi": 82,
                    "time": 133.40625000000003,
                    "velocity": 0.8267716535433071,
                    "duration": 0.09375
                },
                {
                    "name": "B5",
                    "midi": 83,
                    "time": 133.65625000000003,
                    "velocity": 0.84251968503937,
                    "duration": 0.09375
                },
                {
                    "name": "C6",
                    "midi": 84,
                    "time": 133.90625000000003,
                    "velocity": 0.8582677165354331,
                    "duration": 0.09375
                },
                {
                    "name": "C#6",
                    "midi": 85,
                    "time": 134.15625000000003,
                    "velocity": 0.8661417322834646,
                    "duration": 0.1354166666666572
                },
                {
                    "name": "C6",
                    "midi": 84,
                    "time": 134.65625000000003,
                    "velocity": 0.8661417322834646,
                    "duration": 0.1354166666666572
                },
                {
                    "name": "B5",
                    "midi": 83,
                    "time": 135.15625000000003,
                    "velocity": 0.8661417322834646,
                    "duration": 0.1354166666666572
                },
                {
                    "name": "A#5",
                    "midi": 82,
                    "time": 135.65625000000003,
                    "velocity": 0.8661417322834646,
                    "duration": 0.1354166666666572
                },
                {
                    "name": "A5",
                    "midi": 81,
                    "time": 136.15625000000003,
                    "velocity": 0.8661417322834646,
                    "duration": 0.1354166666666572
                },
                {
                    "name": "F#5",
                    "midi": 78,
                    "time": 136.28125000000003,
                    "velocity": 0.8503937007874016,
                    "duration": 0.09375
                },
                {
                    "name": "G#5",
                    "midi": 80,
                    "time": 136.65625000000003,
                    "velocity": 0.8661417322834646,
                    "duration": 0.1354166666666572
                },
                {
                    "name": "F5",
                    "midi": 77,
                    "time": 136.78125000000003,
                    "velocity": 0.8503937007874016,
                    "duration": 0.09375
                },
                {
                    "name": "G5",
                    "midi": 79,
                    "time": 137.15625000000003,
                    "velocity": 0.8661417322834646,
                    "duration": 0.1354166666666572
                },
                {
                    "name": "F#5",
                    "midi": 78,
                    "time": 137.65625000000003,
                    "velocity": 0.8661417322834646,
                    "duration": 0.1354166666666572
                },
                {
                    "name": "A#5",
                    "midi": 82,
                    "time": 139.90625000000003,
                    "velocity": 0.8110236220472441,
                    "duration": 0.09375
                },
                {
                    "name": "B5",
                    "midi": 83,
                    "time": 140.15625000000003,
                    "velocity": 0.8346456692913385,
                    "duration": 0.09375
                },
                {
                    "name": "C#6",
                    "midi": 85,
                    "time": 140.40625000000003,
                    "velocity": 0.8582677165354331,
                    "duration": 0.09375
                },
                {
                    "name": "D6",
                    "midi": 86,
                    "time": 140.65625000000003,
                    "velocity": 0.889763779527559,
                    "duration": 0.09375
                },
                {
                    "name": "E6",
                    "midi": 88,
                    "time": 140.90625000000003,
                    "velocity": 0.8976377952755905,
                    "duration": 0.09375
                },
                {
                    "name": "D6",
                    "midi": 86,
                    "time": 141.15625000000003,
                    "velocity": 0.8661417322834646,
                    "duration": 0.09375
                },
                {
                    "name": "C#6",
                    "midi": 85,
                    "time": 141.40625000000003,
                    "velocity": 0.84251968503937,
                    "duration": 0.09375
                },
                {
                    "name": "B5",
                    "midi": 83,
                    "time": 141.65625000000003,
                    "velocity": 0.8188976377952756,
                    "duration": 0.09375
                },
                {
                    "name": "B5",
                    "midi": 83,
                    "time": 141.90625000000003,
                    "velocity": 0.7952755905511811,
                    "duration": 0.09375
                },
                {
                    "name": "B5",
                    "midi": 83,
                    "time": 142.15625000000003,
                    "velocity": 0.7637795275590551,
                    "duration": 0.09375
                },
                {
                    "name": "A#5",
                    "midi": 82,
                    "time": 142.28125000000003,
                    "velocity": 0.7480314960629921,
                    "duration": 0.09375
                },
                {
                    "name": "E6",
                    "midi": 88,
                    "time": 142.78125000000003,
                    "velocity": 0.7480314960629921,
                    "duration": 0.09375
                },
                {
                    "name": "D6",
                    "midi": 86,
                    "time": 143.03125000000003,
                    "velocity": 0.7637795275590551,
                    "duration": 0.09375
                },
                {
                    "name": "C#6",
                    "midi": 85,
                    "time": 143.28125000000003,
                    "velocity": 0.7795275590551181,
                    "duration": 0.09375
                },
                {
                    "name": "B5",
                    "midi": 83,
                    "time": 143.53125000000003,
                    "velocity": 0.7952755905511811,
                    "duration": 0.09375
                },
                {
                    "name": "A#5",
                    "midi": 82,
                    "time": 143.78125000000003,
                    "velocity": 0.8110236220472441,
                    "duration": 0.09375
                },
                {
                    "name": "B5",
                    "midi": 83,
                    "time": 144.03125000000003,
                    "velocity": 0.8267716535433071,
                    "duration": 0.09375
                },
                {
                    "name": "C#6",
                    "midi": 85,
                    "time": 144.28125000000003,
                    "velocity": 0.84251968503937,
                    "duration": 0.09375
                },
                {
                    "name": "D6",
                    "midi": 86,
                    "time": 144.53125000000003,
                    "velocity": 0.8582677165354331,
                    "duration": 0.09375
                },
                {
                    "name": "E6",
                    "midi": 88,
                    "time": 144.78125000000003,
                    "velocity": 0.8740157480314961,
                    "duration": 0.09375
                },
                {
                    "name": "F6",
                    "midi": 89,
                    "time": 145.03125000000003,
                    "velocity": 0.889763779527559,
                    "duration": 0.09375
                },
                {
                    "name": "F#6",
                    "midi": 90,
                    "time": 145.40625000000003,
                    "velocity": 0.7874015748031497,
                    "duration": 0.1354166666666572
                },
                {
                    "name": "F6",
                    "midi": 89,
                    "time": 145.53125000000003,
                    "velocity": 0.7716535433070866,
                    "duration": 0.1354166666666572
                },
                {
                    "name": "F#6",
                    "midi": 90,
                    "time": 145.65625000000003,
                    "velocity": 0.7637795275590551,
                    "duration": 0.09375
                },
                {
                    "name": "F#6",
                    "midi": 90,
                    "time": 145.90625000000003,
                    "velocity": 0.8031496062992126,
                    "duration": 0.09375
                },
                {
                    "name": "F#6",
                    "midi": 90,
                    "time": 146.15625000000003,
                    "velocity": 0.7874015748031497,
                    "duration": 0.1354166666666572
                },
                {
                    "name": "F6",
                    "midi": 89,
                    "time": 146.28125000000003,
                    "velocity": 0.7716535433070866,
                    "duration": 0.1354166666666572
                },
                {
                    "name": "F#6",
                    "midi": 90,
                    "time": 146.40625000000003,
                    "velocity": 0.7637795275590551,
                    "duration": 0.09375
                },
                {
                    "name": "F#6",
                    "midi": 90,
                    "time": 146.65625000000003,
                    "velocity": 0.8031496062992126,
                    "duration": 0.09375
                },
                {
                    "name": "F#6",
                    "midi": 90,
                    "time": 146.90625000000003,
                    "velocity": 0.7874015748031497,
                    "duration": 0.1354166666666572
                },
                {
                    "name": "F6",
                    "midi": 89,
                    "time": 147.03125000000003,
                    "velocity": 0.7716535433070866,
                    "duration": 0.1354166666666572
                },
                {
                    "name": "F#6",
                    "midi": 90,
                    "time": 147.15625000000003,
                    "velocity": 0.7637795275590551,
                    "duration": 0.09375
                },
                {
                    "name": "F#6",
                    "midi": 90,
                    "time": 147.40625000000003,
                    "velocity": 0.8031496062992126,
                    "duration": 0.09375
                },
                {
                    "name": "F#6",
                    "midi": 90,
                    "time": 147.65625000000003,
                    "velocity": 0.7874015748031497,
                    "duration": 0.1354166666666572
                },
                {
                    "name": "F6",
                    "midi": 89,
                    "time": 147.78125000000003,
                    "velocity": 0.7716535433070866,
                    "duration": 0.1354166666666572
                },
                {
                    "name": "F#6",
                    "midi": 90,
                    "time": 147.90625000000003,
                    "velocity": 0.7637795275590551,
                    "duration": 0.09375
                },
                {
                    "name": "F#6",
                    "midi": 90,
                    "time": 148.15625000000003,
                    "velocity": 0.8031496062992126,
                    "duration": 0.09375
                },
                {
                    "name": "F#6",
                    "midi": 90,
                    "time": 148.40625000000003,
                    "velocity": 0.7874015748031497,
                    "duration": 0.1354166666666572
                },
                {
                    "name": "F6",
                    "midi": 89,
                    "time": 148.53125000000003,
                    "velocity": 0.7716535433070866,
                    "duration": 0.1354166666666572
                },
                {
                    "name": "F#6",
                    "midi": 90,
                    "time": 148.65625000000003,
                    "velocity": 0.7637795275590551,
                    "duration": 0.09375
                },
                {
                    "name": "F#6",
                    "midi": 90,
                    "time": 148.90625000000003,
                    "velocity": 0.8976377952755905,
                    "duration": 0.09375
                },
                {
                    "name": "G6",
                    "midi": 91,
                    "time": 149.15625000000003,
                    "velocity": 0.8818897637795275,
                    "duration": 0.09375
                },
                {
                    "name": "F#6",
                    "midi": 90,
                    "time": 149.40625000000003,
                    "velocity": 0.8582677165354331,
                    "duration": 0.09375
                },
                {
                    "name": "E6",
                    "midi": 88,
                    "time": 149.65625000000003,
                    "velocity": 0.84251968503937,
                    "duration": 0.09375
                },
                {
                    "name": "D6",
                    "midi": 86,
                    "time": 149.90625000000003,
                    "velocity": 0.8267716535433071,
                    "duration": 0.09375
                },
                {
                    "name": "E6",
                    "midi": 88,
                    "time": 150.15625000000003,
                    "velocity": 0.8346456692913385,
                    "duration": 0.09375
                },
                {
                    "name": "F#6",
                    "midi": 90,
                    "time": 150.40625000000003,
                    "velocity": 0.84251968503937,
                    "duration": 0.09375
                },
                {
                    "name": "E6",
                    "midi": 88,
                    "time": 150.65625000000003,
                    "velocity": 0.84251968503937,
                    "duration": 0.09375
                },
                {
                    "name": "D6",
                    "midi": 86,
                    "time": 150.90625000000003,
                    "velocity": 0.8503937007874016,
                    "duration": 0.09375
                },
                {
                    "name": "C#6",
                    "midi": 85,
                    "time": 151.15625000000003,
                    "velocity": 0.8582677165354331,
                    "duration": 0.09375
                },
                {
                    "name": "B5",
                    "midi": 83,
                    "time": 153.03125000000003,
                    "velocity": 0.8582677165354331,
                    "duration": 0.1354166666666572
                },
                {
                    "name": "A#5",
                    "midi": 82,
                    "time": 153.15625000000003,
                    "velocity": 0.8582677165354331,
                    "duration": 0.1354166666666572
                },
                {
                    "name": "B5",
                    "midi": 83,
                    "time": 153.28125000000003,
                    "velocity": 0.8503937007874016,
                    "duration": 0.09375
                },
                {
                    "name": "A5",
                    "midi": 81,
                    "time": 153.40625000000003,
                    "velocity": 0.84251968503937,
                    "duration": 0.09375
                },
                {
                    "name": "B5",
                    "midi": 83,
                    "time": 153.53125000000003,
                    "velocity": 0.84251968503937,
                    "duration": 0.09375
                },
                {
                    "name": "G5",
                    "midi": 79,
                    "time": 153.65625000000003,
                    "velocity": 0.8346456692913385,
                    "duration": 0.09375
                },
                {
                    "name": "B5",
                    "midi": 83,
                    "time": 153.78125000000003,
                    "velocity": 0.8346456692913385,
                    "duration": 0.09375
                },
                {
                    "name": "F#5",
                    "midi": 78,
                    "time": 153.90625000000003,
                    "velocity": 0.8267716535433071,
                    "duration": 0.09375
                },
                {
                    "name": "B5",
                    "midi": 83,
                    "time": 154.03125000000003,
                    "velocity": 0.8188976377952756,
                    "duration": 0.09375
                },
                {
                    "name": "B5",
                    "midi": 83,
                    "time": 154.28125000000003,
                    "velocity": 0.8110236220472441,
                    "duration": 0.09375
                },
                {
                    "name": "B5",
                    "midi": 83,
                    "time": 154.53125000000003,
                    "velocity": 0.8031496062992126,
                    "duration": 0.09375
                },
                {
                    "name": "B5",
                    "midi": 83,
                    "time": 154.78125000000003,
                    "velocity": 0.7952755905511811,
                    "duration": 0.09375
                },
                {
                    "name": "B5",
                    "midi": 83,
                    "time": 155.03125000000003,
                    "velocity": 0.7874015748031497,
                    "duration": 0.09375
                },
                {
                    "name": "B5",
                    "midi": 83,
                    "time": 155.28125000000003,
                    "velocity": 0.7716535433070866,
                    "duration": 0.09375
                },
                {
                    "name": "B5",
                    "midi": 83,
                    "time": 155.53125000000003,
                    "velocity": 0.7637795275590551,
                    "duration": 0.09375
                },
                {
                    "name": "B5",
                    "midi": 83,
                    "time": 155.78125000000003,
                    "velocity": 0.7559055118110236,
                    "duration": 0.09375
                },
                {
                    "name": "A#5",
                    "midi": 82,
                    "time": 156.03125000000003,
                    "velocity": 0.8661417322834646,
                    "duration": 0.1354166666666572
                },
                {
                    "name": "G5",
                    "midi": 79,
                    "time": 156.15625000000003,
                    "velocity": 0.8582677165354331,
                    "duration": 0.1354166666666572
                },
                {
                    "name": "A#5",
                    "midi": 82,
                    "time": 156.28125000000003,
                    "velocity": 0.8503937007874016,
                    "duration": 0.09375
                },
                {
                    "name": "F#5",
                    "midi": 78,
                    "time": 156.40625000000003,
                    "velocity": 0.8503937007874016,
                    "duration": 0.09375
                },
                {
                    "name": "A#5",
                    "midi": 82,
                    "time": 156.53125000000003,
                    "velocity": 0.84251968503937,
                    "duration": 0.09375
                },
                {
                    "name": "A#5",
                    "midi": 82,
                    "time": 156.78125000000003,
                    "velocity": 0.8346456692913385,
                    "duration": 0.09375
                },
                {
                    "name": "A#5",
                    "midi": 82,
                    "time": 157.03125000000003,
                    "velocity": 0.8267716535433071,
                    "duration": 0.09375
                },
                {
                    "name": "A#5",
                    "midi": 82,
                    "time": 157.28125000000003,
                    "velocity": 0.8188976377952756,
                    "duration": 0.09375
                },
                {
                    "name": "A#5",
                    "midi": 82,
                    "time": 157.53125000000003,
                    "velocity": 0.8031496062992126,
                    "duration": 0.09375
                },
                {
                    "name": "A#5",
                    "midi": 82,
                    "time": 157.78125000000003,
                    "velocity": 0.7952755905511811,
                    "duration": 0.09375
                },
                {
                    "name": "A#5",
                    "midi": 82,
                    "time": 158.03125000000003,
                    "velocity": 0.7874015748031497,
                    "duration": 0.09375
                },
                {
                    "name": "A#5",
                    "midi": 82,
                    "time": 158.28125000000003,
                    "velocity": 0.7795275590551181,
                    "duration": 0.09375
                },
                {
                    "name": "A#5",
                    "midi": 82,
                    "time": 158.53125000000003,
                    "velocity": 0.7637795275590551,
                    "duration": 0.09375
                },
                {
                    "name": "A#5",
                    "midi": 82,
                    "time": 158.78125000000003,
                    "velocity": 0.7559055118110236,
                    "duration": 0.09375
                },
                {
                    "name": "B5",
                    "midi": 83,
                    "time": 159.03125000000003,
                    "velocity": 0.8661417322834646,
                    "duration": 0.1354166666666572
                },
                {
                    "name": "B5",
                    "midi": 83,
                    "time": 159.28125000000003,
                    "velocity": 0.8503937007874016,
                    "duration": 0.09375
                },
                {
                    "name": "G5",
                    "midi": 79,
                    "time": 159.53125000000003,
                    "velocity": 0.8346456692913385,
                    "duration": 0.1354166666666572
                },
                {
                    "name": "A5",
                    "midi": 81,
                    "time": 159.78125000000003,
                    "velocity": 0.8267716535433071,
                    "duration": 0.09375
                },
                {
                    "name": "F#5",
                    "midi": 78,
                    "time": 160.03125000000003,
                    "velocity": 0.8110236220472441,
                    "duration": 0.1354166666666572
                },
                {
                    "name": "G5",
                    "midi": 79,
                    "time": 160.28125000000003,
                    "velocity": 0.7952755905511811,
                    "duration": 0.09375
                },
                {
                    "name": "F#5",
                    "midi": 78,
                    "time": 160.78125000000003,
                    "velocity": 0.7716535433070866,
                    "duration": 0.09375
                },
                {
                    "name": "F5",
                    "midi": 77,
                    "time": 161.53125000000003,
                    "velocity": 0.8346456692913385,
                    "duration": 0.1354166666666572
                },
                {
                    "name": "G5",
                    "midi": 79,
                    "time": 161.65625000000003,
                    "velocity": 0.8188976377952756,
                    "duration": 0.1354166666666572
                },
                {
                    "name": "B5",
                    "midi": 83,
                    "time": 161.78125000000003,
                    "velocity": 0.8031496062992126,
                    "duration": 0.09375
                },
                {
                    "name": "F#5",
                    "midi": 78,
                    "time": 162.28125000000003,
                    "velocity": 0.8031496062992126,
                    "duration": 0.09375
                },
                {
                    "name": "A#5",
                    "midi": 82,
                    "time": 162.40625000000003,
                    "velocity": 0.8188976377952756,
                    "duration": 0.1354166666666572
                },
                {
                    "name": "G5",
                    "midi": 79,
                    "time": 162.53125000000003,
                    "velocity": 0.8267716535433071,
                    "duration": 0.09375
                },
                {
                    "name": "F#5",
                    "midi": 78,
                    "time": 162.65625000000003,
                    "velocity": 0.8346456692913385,
                    "duration": 0.09375
                },
                {
                    "name": "A#5",
                    "midi": 82,
                    "time": 162.78125000000003,
                    "velocity": 0.84251968503937,
                    "duration": 0.09375
                },
                {
                    "name": "C#6",
                    "midi": 85,
                    "time": 162.90625000000003,
                    "velocity": 0.8503937007874016,
                    "duration": 0.1354166666666572
                },
                {
                    "name": "B5",
                    "midi": 83,
                    "time": 163.03125000000003,
                    "velocity": 0.8582677165354331,
                    "duration": 0.09375
                },
                {
                    "name": "A#5",
                    "midi": 82,
                    "time": 163.15625000000003,
                    "velocity": 0.8661417322834646,
                    "duration": 0.09375
                },
                {
                    "name": "C#6",
                    "midi": 85,
                    "time": 163.28125000000003,
                    "velocity": 0.8740157480314961,
                    "duration": 0.09375
                },
                {
                    "name": "E6",
                    "midi": 88,
                    "time": 163.40625000000003,
                    "velocity": 0.8818897637795275,
                    "duration": 0.1354166666666572
                },
                {
                    "name": "D6",
                    "midi": 86,
                    "time": 163.53125000000003,
                    "velocity": 0.889763779527559,
                    "duration": 0.09375
                },
                {
                    "name": "C#6",
                    "midi": 85,
                    "time": 163.65625000000003,
                    "velocity": 0.8976377952755905,
                    "duration": 0.09375
                },
                {
                    "name": "G6",
                    "midi": 91,
                    "time": 163.78125000000003,
                    "velocity": 0.905511811023622,
                    "duration": 0.09375
                },
                {
                    "name": "F#6",
                    "midi": 90,
                    "time": 163.90625000000003,
                    "velocity": 0.905511811023622,
                    "duration": 0.13541666666662877
                },
                {
                    "name": "E6",
                    "midi": 88,
                    "time": 164.03125,
                    "velocity": 0.8976377952755905,
                    "duration": 0.09375
                },
                {
                    "name": "D6",
                    "midi": 86,
                    "time": 164.15625,
                    "velocity": 0.889763779527559,
                    "duration": 0.09375
                },
                {
                    "name": "C#6",
                    "midi": 85,
                    "time": 164.28125,
                    "velocity": 0.8818897637795275,
                    "duration": 0.09375
                },
                {
                    "name": "B5",
                    "midi": 83,
                    "time": 164.40625,
                    "velocity": 0.8661417322834646,
                    "duration": 0.09375
                },
                {
                    "name": "A#5",
                    "midi": 82,
                    "time": 164.53125,
                    "velocity": 0.8582677165354331,
                    "duration": 0.09375
                },
                {
                    "name": "B5",
                    "midi": 83,
                    "time": 164.90625,
                    "velocity": 0.8661417322834646,
                    "duration": 0.09375
                },
                {
                    "name": "C#6",
                    "midi": 85,
                    "time": 165.03125,
                    "velocity": 0.8661417322834646,
                    "duration": 0.09375
                },
                {
                    "name": "D6",
                    "midi": 86,
                    "time": 165.15625,
                    "velocity": 0.8582677165354331,
                    "duration": 0.09375
                },
                {
                    "name": "C#6",
                    "midi": 85,
                    "time": 165.40625,
                    "velocity": 0.8503937007874016,
                    "duration": 0.09375
                },
                {
                    "name": "C6",
                    "midi": 84,
                    "time": 165.65625,
                    "velocity": 0.84251968503937,
                    "duration": 0.09375
                },
                {
                    "name": "B5",
                    "midi": 83,
                    "time": 165.90625,
                    "velocity": 0.8267716535433071,
                    "duration": 0.09375
                },
                {
                    "name": "A#5",
                    "midi": 82,
                    "time": 166.15625,
                    "velocity": 0.8188976377952756,
                    "duration": 0.09375
                },
                {
                    "name": "A5",
                    "midi": 81,
                    "time": 166.40625,
                    "velocity": 0.7874015748031497,
                    "duration": 0.09375
                },
                {
                    "name": "G#5",
                    "midi": 80,
                    "time": 166.65625,
                    "velocity": 0.8031496062992126,
                    "duration": 0.09375
                },
                {
                    "name": "G5",
                    "midi": 79,
                    "time": 166.90625,
                    "velocity": 0.7874015748031497,
                    "duration": 0.09375
                },
                {
                    "name": "F#5",
                    "midi": 78,
                    "time": 167.15625,
                    "velocity": 0.7716535433070866,
                    "duration": 0.09375
                },
                {
                    "name": "F5",
                    "midi": 77,
                    "time": 167.40625,
                    "velocity": 0.7716535433070866,
                    "duration": 0.09375
                },
                {
                    "name": "F#6",
                    "midi": 90,
                    "time": 175.28125,
                    "velocity": 0.8740157480314961,
                    "duration": 0.09375
                },
                {
                    "name": "B6",
                    "midi": 95,
                    "time": 175.53125,
                    "velocity": 0.905511811023622,
                    "duration": 0.13541666666662877
                },
                {
                    "name": "A#6",
                    "midi": 94,
                    "time": 175.65624999999997,
                    "velocity": 0.905511811023622,
                    "duration": 0.1354166666666572
                },
                {
                    "name": "B6",
                    "midi": 95,
                    "time": 175.78124999999997,
                    "velocity": 0.8976377952755905,
                    "duration": 0.09375
                },
                {
                    "name": "F#6",
                    "midi": 90,
                    "time": 176.03124999999997,
                    "velocity": 0.8818897637795275,
                    "duration": 0.09375
                },
                {
                    "name": "B5",
                    "midi": 83,
                    "time": 177.15624999999997,
                    "velocity": 0.84251968503937,
                    "duration": 0.1354166666666572
                },
                {
                    "name": "A#5",
                    "midi": 82,
                    "time": 177.28124999999997,
                    "velocity": 0.8503937007874016,
                    "duration": 0.1354166666666572
                },
                {
                    "name": "B5",
                    "midi": 83,
                    "time": 177.40624999999997,
                    "velocity": 0.8582677165354331,
                    "duration": 0.09375
                },
                {
                    "name": "B5",
                    "midi": 83,
                    "time": 177.65624999999997,
                    "velocity": 0.8740157480314961,
                    "duration": 0.09375
                },
                {
                    "name": "B5",
                    "midi": 83,
                    "time": 177.90624999999997,
                    "velocity": 0.8976377952755905,
                    "duration": 0.09375
                },
                {
                    "name": "B5",
                    "midi": 83,
                    "time": 178.15624999999997,
                    "velocity": 0.9133858267716536,
                    "duration": 0.09375
                },
                {
                    "name": "B5",
                    "midi": 83,
                    "time": 178.40624999999997,
                    "velocity": 0.9291338582677166,
                    "duration": 0.09375
                },
                {
                    "name": "B5",
                    "midi": 83,
                    "time": 178.60416666666663,
                    "velocity": 0.9448818897637795,
                    "duration": 0.7083333333333144
                }
            ],
            "controlChanges": {
                "1": [
                    {
                        "number": 1,
                        "time": 163.78125000000003,
                        "value": 0.07874015748031496
                    },
                    {
                        "number": 1,
                        "time": 163.90625000000003,
                        "value": 0
                    },
                    {
                        "number": 1,
                        "time": 163.91666666666669,
                        "value": 0.047244094488188976
                    },
                    {
                        "number": 1,
                        "time": 163.92708333333334,
                        "value": 0.07086614173228346
                    },
                    {
                        "number": 1,
                        "time": 163.9375,
                        "value": 0.08661417322834646
                    },
                    {
                        "number": 1,
                        "time": 163.94791666666666,
                        "value": 0.10236220472440945
                    },
                    {
                        "number": 1,
                        "time": 163.96875,
                        "value": 0.11023622047244094
                    },
                    {
                        "number": 1,
                        "time": 164.03125,
                        "value": 0
                    },
                    {
                        "number": 1,
                        "time": 175.53125,
                        "value": 0
                    },
                    {
                        "number": 1,
                        "time": 175.54166666666666,
                        "value": 0.047244094488188976
                    },
                    {
                        "number": 1,
                        "time": 175.55208333333331,
                        "value": 0.07086614173228346
                    },
                    {
                        "number": 1,
                        "time": 175.56249999999997,
                        "value": 0.08661417322834646
                    },
                    {
                        "number": 1,
                        "time": 175.57291666666663,
                        "value": 0.09448818897637795
                    },
                    {
                        "number": 1,
                        "time": 175.59374999999997,
                        "value": 0.10236220472440945
                    },
                    {
                        "number": 1,
                        "time": 175.65624999999997,
                        "value": 0
                    },
                    {
                        "number": 1,
                        "time": 178.53124999999997,
                        "value": 0
                    },
                    {
                        "number": 1,
                        "time": 178.69791666666663,
                        "value": 0.007874015748031496
                    },
                    {
                        "number": 1,
                        "time": 178.7083333333333,
                        "value": 0.015748031496062992
                    },
                    {
                        "number": 1,
                        "time": 178.71874999999994,
                        "value": 0.023622047244094488
                    },
                    {
                        "number": 1,
                        "time": 178.7291666666666,
                        "value": 0.031496062992125984
                    },
                    {
                        "number": 1,
                        "time": 178.74999999999994,
                        "value": 0.03937007874015748
                    },
                    {
                        "number": 1,
                        "time": 178.7604166666666,
                        "value": 0.047244094488188976
                    },
                    {
                        "number": 1,
                        "time": 178.78124999999994,
                        "value": 0.05511811023622047
                    },
                    {
                        "number": 1,
                        "time": 178.7916666666666,
                        "value": 0.06299212598425197
                    },
                    {
                        "number": 1,
                        "time": 178.81249999999994,
                        "value": 0.07086614173228346
                    },
                    {
                        "number": 1,
                        "time": 178.8333333333333,
                        "value": 0.07874015748031496
                    },
                    {
                        "number": 1,
                        "time": 178.8645833333333,
                        "value": 0.08661417322834646
                    },
                    {
                        "number": 1,
                        "time": 178.88541666666663,
                        "value": 0.09448818897637795
                    },
                    {
                        "number": 1,
                        "time": 178.91666666666663,
                        "value": 0.10236220472440945
                    },
                    {
                        "number": 1,
                        "time": 178.94791666666663,
                        "value": 0.11023622047244094
                    },
                    {
                        "number": 1,
                        "time": 178.97916666666663,
                        "value": 0.11811023622047244
                    },
                    {
                        "number": 1,
                        "time": 179.03124999999997,
                        "value": 0.12598425196850394
                    },
                    {
                        "number": 1,
                        "time": 179.07291666666663,
                        "value": 0.13385826771653545
                    },
                    {
                        "number": 1,
                        "time": 179.1458333333333,
                        "value": 0.14173228346456693
                    },
                    {
                        "number": 1,
                        "time": 179.2395833333333,
                        "value": 0.14960629921259844
                    },
                    {
                        "number": 1,
                        "time": 179.40624999999994,
                        "value": 0.15748031496062992
                    }
                ],
                "6": [
                    {
                        "number": 6,
                        "time": 0.25,
                        "value": 0.09448818897637795
                    },
                    {
                        "number": 6,
                        "time": 0.28125000000000006,
                        "value": 0.5039370078740157
                    }
                ],
                "7": [
                    {
                        "number": 7,
                        "time": 0,
                        "value": 0.9448818897637795
                    }
                ],
                "11": [
                    {
                        "number": 11,
                        "time": 0.32291666666666674,
                        "value": 0.9448818897637795
                    }
                ],
                "32": [
                    {
                        "number": 32,
                        "time": 0.20833333333333334,
                        "value": 0.007874015748031496
                    }
                ],
                "91": [
                    {
                        "number": 91,
                        "time": 0.29166666666666674,
                        "value": 0.31496062992125984
                    }
                ],
                "93": [
                    {
                        "number": 93,
                        "time": 0.3020833333333334,
                        "value": 0.03937007874015748
                    }
                ],
                "98": [
                    {
                        "number": 98,
                        "time": 0.27083333333333337,
                        "value": 0.25196850393700787
                    }
                ],
                "99": [
                    {
                        "number": 99,
                        "time": 0.2604166666666667,
                        "value": 0.007874015748031496
                    }
                ],
                "100": [
                    {
                        "number": 100,
                        "time": 0.23958333333333334,
                        "value": 0
                    }
                ],
                "101": [
                    {
                        "number": 101,
                        "time": 0.22916666666666669,
                        "value": 0
                    }
                ]
            },
            "id": 1,
            "name": "E",
            "instrumentNumber": 40,
            "instrument": "violin",
            "instrumentFamily": "strings",
            "channelNumber": 0,
            "isPercussion": false
        },
        {
            "startTime": 1.5000000000000002,
            "duration": 179.31250000000009,
            "length": 322,
            "notes": [
                {
                    "name": "B4",
                    "midi": 71,
                    "time": 1.5000000000000002,
                    "velocity": 0.8661417322834646,
                    "duration": 0.2083333333333337
                },
                {
                    "name": "D5",
                    "midi": 74,
                    "time": 3.125000000000001,
                    "velocity": 0.8110236220472441,
                    "duration": 0.09375
                },
                {
                    "name": "C#5",
                    "midi": 73,
                    "time": 3.375000000000001,
                    "velocity": 0.7952755905511811,
                    "duration": 0.09375
                },
                {
                    "name": "B4",
                    "midi": 71,
                    "time": 3.625000000000001,
                    "velocity": 0.7795275590551181,
                    "duration": 0.09375
                },
                {
                    "name": "A#4",
                    "midi": 70,
                    "time": 3.875000000000001,
                    "velocity": 0.7716535433070866,
                    "duration": 0.09375
                },
                {
                    "name": "B4",
                    "midi": 71,
                    "time": 4.125000000000001,
                    "velocity": 0.7716535433070866,
                    "duration": 0.09375
                },
                {
                    "name": "D5",
                    "midi": 74,
                    "time": 4.375000000000001,
                    "velocity": 0.7637795275590551,
                    "duration": 0.09375
                },
                {
                    "name": "C#5",
                    "midi": 73,
                    "time": 4.625000000000001,
                    "velocity": 0.8661417322834646,
                    "duration": 0.11458333333333304
                },
                {
                    "name": "D5",
                    "midi": 74,
                    "time": 5.625000000000001,
                    "velocity": 0.8267716535433071,
                    "duration": 0.09375
                },
                {
                    "name": "C#5",
                    "midi": 73,
                    "time": 5.875000000000001,
                    "velocity": 0.8188976377952756,
                    "duration": 0.09375
                },
                {
                    "name": "B4",
                    "midi": 71,
                    "time": 6.125000000000001,
                    "velocity": 0.8110236220472441,
                    "duration": 0.09375
                },
                {
                    "name": "A#4",
                    "midi": 70,
                    "time": 6.375000000000001,
                    "velocity": 0.8031496062992126,
                    "duration": 0.09375
                },
                {
                    "name": "B4",
                    "midi": 71,
                    "time": 6.625000000000001,
                    "velocity": 0.7874015748031497,
                    "duration": 0.09375
                },
                {
                    "name": "C#5",
                    "midi": 73,
                    "time": 6.875000000000001,
                    "velocity": 0.7795275590551181,
                    "duration": 0.09375
                },
                {
                    "name": "D5",
                    "midi": 74,
                    "time": 7.125000000000001,
                    "velocity": 0.7716535433070866,
                    "duration": 0.09375
                },
                {
                    "name": "E5",
                    "midi": 76,
                    "time": 7.375000000000001,
                    "velocity": 0.7637795275590551,
                    "duration": 0.09375
                },
                {
                    "name": "D5",
                    "midi": 74,
                    "time": 7.625000000000001,
                    "velocity": 0.8661417322834646,
                    "duration": 0.11458333333333304
                },
                {
                    "name": "B4",
                    "midi": 71,
                    "time": 9.375,
                    "velocity": 0.8267716535433071,
                    "duration": 0.11458333333333393
                },
                {
                    "name": "B4",
                    "midi": 71,
                    "time": 10.875,
                    "velocity": 0.8267716535433071,
                    "duration": 0.11458333333333393
                },
                {
                    "name": "D5",
                    "midi": 74,
                    "time": 12.375,
                    "velocity": 0.8267716535433071,
                    "duration": 0.11458333333333393
                },
                {
                    "name": "C#5",
                    "midi": 73,
                    "time": 12.625,
                    "velocity": 0.9291338582677166,
                    "duration": 0.09375
                },
                {
                    "name": "B4",
                    "midi": 71,
                    "time": 12.875,
                    "velocity": 0.905511811023622,
                    "duration": 0.09375
                },
                {
                    "name": "A#4",
                    "midi": 70,
                    "time": 13.875,
                    "velocity": 0.7874015748031497,
                    "duration": 0.11458333333333393
                },
                {
                    "name": "B4",
                    "midi": 71,
                    "time": 15.375,
                    "velocity": 0.7480314960629921,
                    "duration": 0.13541666666666607
                },
                {
                    "name": "F#5",
                    "midi": 78,
                    "time": 16.875,
                    "velocity": 0.7165354330708661,
                    "duration": 0.13541666666666785
                },
                {
                    "name": "F5",
                    "midi": 77,
                    "time": 17.125,
                    "velocity": 0.7401574803149606,
                    "duration": 0.09375
                },
                {
                    "name": "E5",
                    "midi": 76,
                    "time": 17.375,
                    "velocity": 0.7559055118110236,
                    "duration": 0.09375
                },
                {
                    "name": "D5",
                    "midi": 74,
                    "time": 17.625,
                    "velocity": 0.7795275590551181,
                    "duration": 0.09375
                },
                {
                    "name": "B4",
                    "midi": 71,
                    "time": 18.125,
                    "velocity": 0.8661417322834646,
                    "duration": 0.09375
                },
                {
                    "name": "B5",
                    "midi": 83,
                    "time": 18.5,
                    "velocity": 0.84251968503937,
                    "duration": 0.09375
                },
                {
                    "name": "A5",
                    "midi": 81,
                    "time": 18.75,
                    "velocity": 0.8188976377952756,
                    "duration": 0.09375
                },
                {
                    "name": "G5",
                    "midi": 79,
                    "time": 19,
                    "velocity": 0.8031496062992126,
                    "duration": 0.09375
                },
                {
                    "name": "F#5",
                    "midi": 78,
                    "time": 19.25,
                    "velocity": 0.7795275590551181,
                    "duration": 0.09375
                },
                {
                    "name": "F5",
                    "midi": 77,
                    "time": 19.5,
                    "velocity": 0.7637795275590551,
                    "duration": 0.09375
                },
                {
                    "name": "F#5",
                    "midi": 78,
                    "time": 19.75,
                    "velocity": 0.7480314960629921,
                    "duration": 0.13541666666666785
                },
                {
                    "name": "A#5",
                    "midi": 82,
                    "time": 20,
                    "velocity": 0.7322834645669292,
                    "duration": 0.09375
                },
                {
                    "name": "F5",
                    "midi": 77,
                    "time": 20.25,
                    "velocity": 0.7165354330708661,
                    "duration": 0.09375
                },
                {
                    "name": "F#5",
                    "midi": 78,
                    "time": 20.5,
                    "velocity": 0.7480314960629921,
                    "duration": 0.13541666666666785
                },
                {
                    "name": "A#5",
                    "midi": 82,
                    "time": 20.75,
                    "velocity": 0.7322834645669292,
                    "duration": 0.09375
                },
                {
                    "name": "F5",
                    "midi": 77,
                    "time": 21,
                    "velocity": 0.7165354330708661,
                    "duration": 0.09375
                },
                {
                    "name": "F#5",
                    "midi": 78,
                    "time": 21.25,
                    "velocity": 0.7559055118110236,
                    "duration": 0.13541666666666785
                },
                {
                    "name": "A#5",
                    "midi": 82,
                    "time": 21.5,
                    "velocity": 0.7874015748031497,
                    "duration": 0.09375
                },
                {
                    "name": "A#5",
                    "midi": 82,
                    "time": 22.5,
                    "velocity": 0.8031496062992126,
                    "duration": 0.09375
                },
                {
                    "name": "F#5",
                    "midi": 78,
                    "time": 22.625,
                    "velocity": 0.7874015748031497,
                    "duration": 0.7500000000000213
                },
                {
                    "name": "D5",
                    "midi": 74,
                    "time": 24.37500000000002,
                    "velocity": 0.8267716535433071,
                    "duration": 0.17708333333333925
                },
                {
                    "name": "D5",
                    "midi": 74,
                    "time": 25.93750000000003,
                    "velocity": 0.7480314960629921,
                    "duration": 0.09375
                },
                {
                    "name": "D#5",
                    "midi": 75,
                    "time": 28.229166666666696,
                    "velocity": 0.8346456692913385,
                    "duration": 0.09375
                },
                {
                    "name": "E5",
                    "midi": 76,
                    "time": 28.479166666666696,
                    "velocity": 0.8188976377952756,
                    "duration": 0.09375
                },
                {
                    "name": "D5",
                    "midi": 74,
                    "time": 28.729166666666696,
                    "velocity": 0.8110236220472441,
                    "duration": 0.09375
                },
                {
                    "name": "C#5",
                    "midi": 73,
                    "time": 28.979166666666696,
                    "velocity": 0.7952755905511811,
                    "duration": 0.09375
                },
                {
                    "name": "F#5",
                    "midi": 78,
                    "time": 31.479166666666696,
                    "velocity": 0.7952755905511811,
                    "duration": 0.09375
                },
                {
                    "name": "D5",
                    "midi": 74,
                    "time": 31.729166666666696,
                    "velocity": 0.7795275590551181,
                    "duration": 0.09375
                },
                {
                    "name": "C#5",
                    "midi": 73,
                    "time": 33.2291666666667,
                    "velocity": 0.7480314960629921,
                    "duration": 0.09375
                },
                {
                    "name": "B4",
                    "midi": 71,
                    "time": 34.7291666666667,
                    "velocity": 0.7480314960629921,
                    "duration": 0.09375
                },
                {
                    "name": "G5",
                    "midi": 79,
                    "time": 36.3541666666667,
                    "velocity": 0.7480314960629921,
                    "duration": 0.1354166666666643
                },
                {
                    "name": "D5",
                    "midi": 74,
                    "time": 36.4791666666667,
                    "velocity": 0.7480314960629921,
                    "duration": 0.12499999999998579
                },
                {
                    "name": "F#5",
                    "midi": 78,
                    "time": 36.604166666666686,
                    "velocity": 0.7480314960629921,
                    "duration": 0.09375
                },
                {
                    "name": "A5",
                    "midi": 81,
                    "time": 36.729166666666686,
                    "velocity": 0.9448818897637795,
                    "duration": 0.09375
                },
                {
                    "name": "G#5",
                    "midi": 80,
                    "time": 36.979166666666686,
                    "velocity": 0.9448818897637795,
                    "duration": 0.09375
                },
                {
                    "name": "A5",
                    "midi": 81,
                    "time": 37.229166666666686,
                    "velocity": 0.9448818897637795,
                    "duration": 0.09375
                },
                {
                    "name": "G5",
                    "midi": 79,
                    "time": 37.479166666666686,
                    "velocity": 0.9448818897637795,
                    "duration": 0.09375
                },
                {
                    "name": "F#5",
                    "midi": 78,
                    "time": 37.729166666666686,
                    "velocity": 0.9448818897637795,
                    "duration": 0.09375
                },
                {
                    "name": "E5",
                    "midi": 76,
                    "time": 37.979166666666686,
                    "velocity": 0.9448818897637795,
                    "duration": 0.09375
                },
                {
                    "name": "A5",
                    "midi": 81,
                    "time": 39.729166666666686,
                    "velocity": 0.9448818897637795,
                    "duration": 0.09375
                },
                {
                    "name": "G#5",
                    "midi": 80,
                    "time": 39.979166666666686,
                    "velocity": 0.9448818897637795,
                    "duration": 0.09375
                },
                {
                    "name": "A5",
                    "midi": 81,
                    "time": 40.229166666666686,
                    "velocity": 0.9448818897637795,
                    "duration": 0.09375
                },
                {
                    "name": "G5",
                    "midi": 79,
                    "time": 40.479166666666686,
                    "velocity": 0.9448818897637795,
                    "duration": 0.09375
                },
                {
                    "name": "F#5",
                    "midi": 78,
                    "time": 40.729166666666686,
                    "velocity": 0.9448818897637795,
                    "duration": 0.09375
                },
                {
                    "name": "E5",
                    "midi": 76,
                    "time": 40.979166666666686,
                    "velocity": 0.9448818897637795,
                    "duration": 0.09375
                },
                {
                    "name": "F#5",
                    "midi": 78,
                    "time": 42.729166666666686,
                    "velocity": 0.905511811023622,
                    "duration": 0.09375
                },
                {
                    "name": "E5",
                    "midi": 76,
                    "time": 42.979166666666686,
                    "velocity": 0.905511811023622,
                    "duration": 0.09375
                },
                {
                    "name": "D5",
                    "midi": 74,
                    "time": 43.229166666666686,
                    "velocity": 0.905511811023622,
                    "duration": 0.09375
                },
                {
                    "name": "E5",
                    "midi": 76,
                    "time": 43.479166666666686,
                    "velocity": 0.905511811023622,
                    "duration": 0.09375
                },
                {
                    "name": "F#5",
                    "midi": 78,
                    "time": 43.729166666666686,
                    "velocity": 0.905511811023622,
                    "duration": 0.09375
                },
                {
                    "name": "G5",
                    "midi": 79,
                    "time": 43.979166666666686,
                    "velocity": 0.7086614173228346,
                    "duration": 0.09375
                },
                {
                    "name": "D6",
                    "midi": 86,
                    "time": 48.729166666666686,
                    "velocity": 0.937007874015748,
                    "duration": 0.09375
                },
                {
                    "name": "C#6",
                    "midi": 85,
                    "time": 48.979166666666686,
                    "velocity": 0.9212598425196851,
                    "duration": 0.09375
                },
                {
                    "name": "B5",
                    "midi": 83,
                    "time": 49.229166666666686,
                    "velocity": 0.9133858267716536,
                    "duration": 0.09375
                },
                {
                    "name": "A5",
                    "midi": 81,
                    "time": 49.479166666666686,
                    "velocity": 0.8976377952755905,
                    "duration": 0.09375
                },
                {
                    "name": "G5",
                    "midi": 79,
                    "time": 49.729166666666686,
                    "velocity": 0.889763779527559,
                    "duration": 0.09375
                },
                {
                    "name": "F#5",
                    "midi": 78,
                    "time": 49.979166666666686,
                    "velocity": 0.8740157480314961,
                    "duration": 0.09375
                },
                {
                    "name": "B5",
                    "midi": 83,
                    "time": 50.104166666666686,
                    "velocity": 0.9448818897637795,
                    "duration": 0.09375
                },
                {
                    "name": "A5",
                    "midi": 81,
                    "time": 50.354166666666686,
                    "velocity": 0.937007874015748,
                    "duration": 0.09375
                },
                {
                    "name": "G5",
                    "midi": 79,
                    "time": 50.604166666666686,
                    "velocity": 0.9212598425196851,
                    "duration": 0.09375
                },
                {
                    "name": "F#5",
                    "midi": 78,
                    "time": 50.854166666666686,
                    "velocity": 0.905511811023622,
                    "duration": 0.09375
                },
                {
                    "name": "E5",
                    "midi": 76,
                    "time": 51.104166666666686,
                    "velocity": 0.8976377952755905,
                    "duration": 0.09375
                },
                {
                    "name": "C#5",
                    "midi": 73,
                    "time": 51.354166666666686,
                    "velocity": 0.8818897637795275,
                    "duration": 0.09375
                },
                {
                    "name": "D5",
                    "midi": 74,
                    "time": 51.604166666666686,
                    "velocity": 0.9448818897637795,
                    "duration": 0.09375
                },
                {
                    "name": "C#5",
                    "midi": 73,
                    "time": 51.979166666666686,
                    "velocity": 0.9291338582677166,
                    "duration": 0.09375
                },
                {
                    "name": "D5",
                    "midi": 74,
                    "time": 52.104166666666686,
                    "velocity": 0.9212598425196851,
                    "duration": 0.09375
                },
                {
                    "name": "E5",
                    "midi": 76,
                    "time": 52.729166666666686,
                    "velocity": 0.889763779527559,
                    "duration": 0.09375
                },
                {
                    "name": "D5",
                    "midi": 74,
                    "time": 52.854166666666686,
                    "velocity": 0.8818897637795275,
                    "duration": 0.09375
                },
                {
                    "name": "C#5",
                    "midi": 73,
                    "time": 52.979166666666686,
                    "velocity": 0.8740157480314961,
                    "duration": 0.09375
                },
                {
                    "name": "B4",
                    "midi": 71,
                    "time": 53.104166666666686,
                    "velocity": 0.8661417322834646,
                    "duration": 0.2083333333333215
                },
                {
                    "name": "D5",
                    "midi": 74,
                    "time": 54.72916666666667,
                    "velocity": 0.8110236220472441,
                    "duration": 0.09375
                },
                {
                    "name": "C#5",
                    "midi": 73,
                    "time": 54.97916666666667,
                    "velocity": 0.7952755905511811,
                    "duration": 0.09375
                },
                {
                    "name": "B4",
                    "midi": 71,
                    "time": 55.22916666666667,
                    "velocity": 0.7795275590551181,
                    "duration": 0.09375
                },
                {
                    "name": "A#4",
                    "midi": 70,
                    "time": 55.47916666666667,
                    "velocity": 0.7716535433070866,
                    "duration": 0.09375
                },
                {
                    "name": "B4",
                    "midi": 71,
                    "time": 55.72916666666667,
                    "velocity": 0.7716535433070866,
                    "duration": 0.09375
                },
                {
                    "name": "D5",
                    "midi": 74,
                    "time": 55.97916666666667,
                    "velocity": 0.7637795275590551,
                    "duration": 0.09375
                },
                {
                    "name": "C#5",
                    "midi": 73,
                    "time": 56.22916666666667,
                    "velocity": 0.8661417322834646,
                    "duration": 0.1145833333333357
                },
                {
                    "name": "D5",
                    "midi": 74,
                    "time": 57.22916666666667,
                    "velocity": 0.8267716535433071,
                    "duration": 0.09375
                },
                {
                    "name": "C#5",
                    "midi": 73,
                    "time": 57.47916666666667,
                    "velocity": 0.8188976377952756,
                    "duration": 0.09375
                },
                {
                    "name": "B4",
                    "midi": 71,
                    "time": 57.72916666666667,
                    "velocity": 0.8110236220472441,
                    "duration": 0.09375
                },
                {
                    "name": "A#4",
                    "midi": 70,
                    "time": 57.97916666666667,
                    "velocity": 0.8031496062992126,
                    "duration": 0.09375
                },
                {
                    "name": "B4",
                    "midi": 71,
                    "time": 58.22916666666667,
                    "velocity": 0.7874015748031497,
                    "duration": 0.09375
                },
                {
                    "name": "C#5",
                    "midi": 73,
                    "time": 58.47916666666667,
                    "velocity": 0.7795275590551181,
                    "duration": 0.09375
                },
                {
                    "name": "D5",
                    "midi": 74,
                    "time": 58.72916666666667,
                    "velocity": 0.7716535433070866,
                    "duration": 0.09375
                },
                {
                    "name": "E5",
                    "midi": 76,
                    "time": 58.97916666666667,
                    "velocity": 0.7637795275590551,
                    "duration": 0.09375
                },
                {
                    "name": "D5",
                    "midi": 74,
                    "time": 59.22916666666667,
                    "velocity": 0.8661417322834646,
                    "duration": 0.1145833333333357
                },
                {
                    "name": "B4",
                    "midi": 71,
                    "time": 60.97916666666667,
                    "velocity": 0.8267716535433071,
                    "duration": 0.1145833333333357
                },
                {
                    "name": "B4",
                    "midi": 71,
                    "time": 62.47916666666667,
                    "velocity": 0.8267716535433071,
                    "duration": 0.1145833333333357
                },
                {
                    "name": "D5",
                    "midi": 74,
                    "time": 63.97916666666667,
                    "velocity": 0.8267716535433071,
                    "duration": 0.1145833333333286
                },
                {
                    "name": "C#5",
                    "midi": 73,
                    "time": 64.22916666666667,
                    "velocity": 0.9291338582677166,
                    "duration": 0.09375
                },
                {
                    "name": "B4",
                    "midi": 71,
                    "time": 64.47916666666667,
                    "velocity": 0.905511811023622,
                    "duration": 0.09375
                },
                {
                    "name": "A#4",
                    "midi": 70,
                    "time": 65.47916666666667,
                    "velocity": 0.7874015748031497,
                    "duration": 0.1145833333333286
                },
                {
                    "name": "B4",
                    "midi": 71,
                    "time": 66.97916666666667,
                    "velocity": 0.7480314960629921,
                    "duration": 0.1354166666666714
                },
                {
                    "name": "F#5",
                    "midi": 78,
                    "time": 68.47916666666667,
                    "velocity": 0.7165354330708661,
                    "duration": 0.1354166666666714
                },
                {
                    "name": "F5",
                    "midi": 77,
                    "time": 68.72916666666667,
                    "velocity": 0.7401574803149606,
                    "duration": 0.09375
                },
                {
                    "name": "E5",
                    "midi": 76,
                    "time": 68.97916666666667,
                    "velocity": 0.7559055118110236,
                    "duration": 0.09375
                },
                {
                    "name": "D5",
                    "midi": 74,
                    "time": 69.22916666666667,
                    "velocity": 0.7795275590551181,
                    "duration": 0.09375
                },
                {
                    "name": "B4",
                    "midi": 71,
                    "time": 69.72916666666667,
                    "velocity": 0.8661417322834646,
                    "duration": 0.09375
                },
                {
                    "name": "B5",
                    "midi": 83,
                    "time": 70.10416666666667,
                    "velocity": 0.84251968503937,
                    "duration": 0.09375
                },
                {
                    "name": "A5",
                    "midi": 81,
                    "time": 70.35416666666667,
                    "velocity": 0.8188976377952756,
                    "duration": 0.09375
                },
                {
                    "name": "G5",
                    "midi": 79,
                    "time": 70.60416666666667,
                    "velocity": 0.8031496062992126,
                    "duration": 0.09375
                },
                {
                    "name": "F#5",
                    "midi": 78,
                    "time": 70.85416666666667,
                    "velocity": 0.7795275590551181,
                    "duration": 0.09375
                },
                {
                    "name": "F5",
                    "midi": 77,
                    "time": 71.10416666666667,
                    "velocity": 0.7637795275590551,
                    "duration": 0.09375
                },
                {
                    "name": "F#5",
                    "midi": 78,
                    "time": 71.35416666666667,
                    "velocity": 0.7480314960629921,
                    "duration": 0.1354166666666714
                },
                {
                    "name": "A#5",
                    "midi": 82,
                    "time": 71.60416666666667,
                    "velocity": 0.7322834645669292,
                    "duration": 0.09375
                },
                {
                    "name": "F5",
                    "midi": 77,
                    "time": 71.85416666666667,
                    "velocity": 0.7165354330708661,
                    "duration": 0.09375
                },
                {
                    "name": "F#5",
                    "midi": 78,
                    "time": 72.10416666666667,
                    "velocity": 0.7480314960629921,
                    "duration": 0.1354166666666714
                },
                {
                    "name": "A#5",
                    "midi": 82,
                    "time": 72.35416666666667,
                    "velocity": 0.7322834645669292,
                    "duration": 0.09375
                },
                {
                    "name": "F5",
                    "midi": 77,
                    "time": 72.60416666666667,
                    "velocity": 0.7165354330708661,
                    "duration": 0.09375
                },
                {
                    "name": "F#5",
                    "midi": 78,
                    "time": 72.85416666666667,
                    "velocity": 0.7559055118110236,
                    "duration": 0.1354166666666714
                },
                {
                    "name": "A#5",
                    "midi": 82,
                    "time": 73.10416666666667,
                    "velocity": 0.7874015748031497,
                    "duration": 0.09375
                },
                {
                    "name": "A#5",
                    "midi": 82,
                    "time": 74.10416666666667,
                    "velocity": 0.8031496062992126,
                    "duration": 0.09375
                },
                {
                    "name": "F#5",
                    "midi": 78,
                    "time": 74.22916666666667,
                    "velocity": 0.7874015748031497,
                    "duration": 0.7500000000000853
                },
                {
                    "name": "D5",
                    "midi": 74,
                    "time": 75.97916666666676,
                    "velocity": 0.8267716535433071,
                    "duration": 0.17708333333335702
                },
                {
                    "name": "D5",
                    "midi": 74,
                    "time": 77.54166666666679,
                    "velocity": 0.7480314960629921,
                    "duration": 0.09375
                },
                {
                    "name": "D#5",
                    "midi": 75,
                    "time": 79.83333333333346,
                    "velocity": 0.8346456692913385,
                    "duration": 0.09375
                },
                {
                    "name": "E5",
                    "midi": 76,
                    "time": 80.08333333333346,
                    "velocity": 0.8188976377952756,
                    "duration": 0.09375
                },
                {
                    "name": "D5",
                    "midi": 74,
                    "time": 80.33333333333346,
                    "velocity": 0.8110236220472441,
                    "duration": 0.09375
                },
                {
                    "name": "C#5",
                    "midi": 73,
                    "time": 80.58333333333346,
                    "velocity": 0.7952755905511811,
                    "duration": 0.09375
                },
                {
                    "name": "F#5",
                    "midi": 78,
                    "time": 83.08333333333346,
                    "velocity": 0.7952755905511811,
                    "duration": 0.09375
                },
                {
                    "name": "D5",
                    "midi": 74,
                    "time": 83.33333333333346,
                    "velocity": 0.7795275590551181,
                    "duration": 0.09375
                },
                {
                    "name": "C#5",
                    "midi": 73,
                    "time": 84.83333333333346,
                    "velocity": 0.7480314960629921,
                    "duration": 0.09375
                },
                {
                    "name": "B4",
                    "midi": 71,
                    "time": 86.33333333333346,
                    "velocity": 0.7480314960629921,
                    "duration": 0.09375
                },
                {
                    "name": "G5",
                    "midi": 79,
                    "time": 87.95833333333346,
                    "velocity": 0.7480314960629921,
                    "duration": 0.1354166666666714
                },
                {
                    "name": "D5",
                    "midi": 74,
                    "time": 88.08333333333346,
                    "velocity": 0.7480314960629921,
                    "duration": 0.12500000000002842
                },
                {
                    "name": "F#5",
                    "midi": 78,
                    "time": 88.20833333333348,
                    "velocity": 0.7480314960629921,
                    "duration": 0.09375
                },
                {
                    "name": "A5",
                    "midi": 81,
                    "time": 88.33333333333348,
                    "velocity": 0.9448818897637795,
                    "duration": 0.09375
                },
                {
                    "name": "G#5",
                    "midi": 80,
                    "time": 88.58333333333348,
                    "velocity": 0.9448818897637795,
                    "duration": 0.09375
                },
                {
                    "name": "A5",
                    "midi": 81,
                    "time": 88.83333333333348,
                    "velocity": 0.9448818897637795,
                    "duration": 0.09375
                },
                {
                    "name": "G5",
                    "midi": 79,
                    "time": 89.08333333333348,
                    "velocity": 0.9448818897637795,
                    "duration": 0.09375
                },
                {
                    "name": "F#5",
                    "midi": 78,
                    "time": 89.33333333333348,
                    "velocity": 0.9448818897637795,
                    "duration": 0.09375
                },
                {
                    "name": "E5",
                    "midi": 76,
                    "time": 89.58333333333348,
                    "velocity": 0.9448818897637795,
                    "duration": 0.09375
                },
                {
                    "name": "A5",
                    "midi": 81,
                    "time": 91.33333333333348,
                    "velocity": 0.9448818897637795,
                    "duration": 0.09375
                },
                {
                    "name": "G#5",
                    "midi": 80,
                    "time": 91.58333333333348,
                    "velocity": 0.9448818897637795,
                    "duration": 0.09375
                },
                {
                    "name": "A5",
                    "midi": 81,
                    "time": 91.83333333333348,
                    "velocity": 0.9448818897637795,
                    "duration": 0.09375
                },
                {
                    "name": "G5",
                    "midi": 79,
                    "time": 92.08333333333348,
                    "velocity": 0.9448818897637795,
                    "duration": 0.09375
                },
                {
                    "name": "F#5",
                    "midi": 78,
                    "time": 92.33333333333348,
                    "velocity": 0.9448818897637795,
                    "duration": 0.09375
                },
                {
                    "name": "E5",
                    "midi": 76,
                    "time": 92.58333333333348,
                    "velocity": 0.9448818897637795,
                    "duration": 0.09375
                },
                {
                    "name": "F#5",
                    "midi": 78,
                    "time": 94.33333333333348,
                    "velocity": 0.905511811023622,
                    "duration": 0.09375
                },
                {
                    "name": "E5",
                    "midi": 76,
                    "time": 94.58333333333348,
                    "velocity": 0.905511811023622,
                    "duration": 0.09375
                },
                {
                    "name": "D5",
                    "midi": 74,
                    "time": 94.83333333333348,
                    "velocity": 0.905511811023622,
                    "duration": 0.09375
                },
                {
                    "name": "E5",
                    "midi": 76,
                    "time": 95.08333333333348,
                    "velocity": 0.905511811023622,
                    "duration": 0.09375
                },
                {
                    "name": "F#5",
                    "midi": 78,
                    "time": 95.33333333333348,
                    "velocity": 0.905511811023622,
                    "duration": 0.09375
                },
                {
                    "name": "G5",
                    "midi": 79,
                    "time": 95.58333333333348,
                    "velocity": 0.7086614173228346,
                    "duration": 0.09375
                },
                {
                    "name": "D6",
                    "midi": 86,
                    "time": 100.33333333333348,
                    "velocity": 0.937007874015748,
                    "duration": 0.09375
                },
                {
                    "name": "C#6",
                    "midi": 85,
                    "time": 100.58333333333348,
                    "velocity": 0.9212598425196851,
                    "duration": 0.09375
                },
                {
                    "name": "B5",
                    "midi": 83,
                    "time": 100.83333333333348,
                    "velocity": 0.9133858267716536,
                    "duration": 0.09375
                },
                {
                    "name": "A5",
                    "midi": 81,
                    "time": 101.08333333333348,
                    "velocity": 0.8976377952755905,
                    "duration": 0.09375
                },
                {
                    "name": "G5",
                    "midi": 79,
                    "time": 101.33333333333348,
                    "velocity": 0.889763779527559,
                    "duration": 0.09375
                },
                {
                    "name": "F#5",
                    "midi": 78,
                    "time": 101.58333333333348,
                    "velocity": 0.8740157480314961,
                    "duration": 0.09375
                },
                {
                    "name": "B5",
                    "midi": 83,
                    "time": 101.70833333333348,
                    "velocity": 0.9448818897637795,
                    "duration": 0.09375
                },
                {
                    "name": "A5",
                    "midi": 81,
                    "time": 101.95833333333348,
                    "velocity": 0.937007874015748,
                    "duration": 0.09375
                },
                {
                    "name": "G5",
                    "midi": 79,
                    "time": 102.20833333333348,
                    "velocity": 0.9212598425196851,
                    "duration": 0.09375
                },
                {
                    "name": "F#5",
                    "midi": 78,
                    "time": 102.45833333333348,
                    "velocity": 0.905511811023622,
                    "duration": 0.09375
                },
                {
                    "name": "E5",
                    "midi": 76,
                    "time": 102.70833333333348,
                    "velocity": 0.8976377952755905,
                    "duration": 0.09375
                },
                {
                    "name": "C#5",
                    "midi": 73,
                    "time": 102.95833333333348,
                    "velocity": 0.8818897637795275,
                    "duration": 0.09375
                },
                {
                    "name": "D5",
                    "midi": 74,
                    "time": 103.20833333333348,
                    "velocity": 0.9448818897637795,
                    "duration": 0.09375
                },
                {
                    "name": "C#5",
                    "midi": 73,
                    "time": 103.58333333333348,
                    "velocity": 0.9291338582677166,
                    "duration": 0.09375
                },
                {
                    "name": "D5",
                    "midi": 74,
                    "time": 103.70833333333348,
                    "velocity": 0.9212598425196851,
                    "duration": 0.09375
                },
                {
                    "name": "E5",
                    "midi": 76,
                    "time": 104.33333333333348,
                    "velocity": 0.889763779527559,
                    "duration": 0.09375
                },
                {
                    "name": "D5",
                    "midi": 74,
                    "time": 104.45833333333348,
                    "velocity": 0.8818897637795275,
                    "duration": 0.09375
                },
                {
                    "name": "C#5",
                    "midi": 73,
                    "time": 104.58333333333348,
                    "velocity": 0.8740157480314961,
                    "duration": 0.09375
                },
                {
                    "name": "B4",
                    "midi": 71,
                    "time": 104.70833333333348,
                    "velocity": 0.8661417322834646,
                    "duration": 0.16666666666668561
                },
                {
                    "name": "G#5",
                    "midi": 80,
                    "time": 106.03125000000017,
                    "velocity": 0.8188976377952756,
                    "duration": 0.09375
                },
                {
                    "name": "G5",
                    "midi": 79,
                    "time": 106.28125000000017,
                    "velocity": 0.8031496062992126,
                    "duration": 0.09375
                },
                {
                    "name": "F#5",
                    "midi": 78,
                    "time": 106.53125000000017,
                    "velocity": 0.7874015748031497,
                    "duration": 0.09375
                },
                {
                    "name": "E5",
                    "midi": 76,
                    "time": 106.78125000000017,
                    "velocity": 0.7716535433070866,
                    "duration": 0.09375
                },
                {
                    "name": "D#5",
                    "midi": 75,
                    "time": 107.03125000000017,
                    "velocity": 0.7559055118110236,
                    "duration": 0.09375
                },
                {
                    "name": "D5",
                    "midi": 74,
                    "time": 107.28125000000017,
                    "velocity": 0.7401574803149606,
                    "duration": 0.09375
                },
                {
                    "name": "F#5",
                    "midi": 78,
                    "time": 113.53125000000017,
                    "velocity": 0.7244094488188977,
                    "duration": 0.09375
                },
                {
                    "name": "E5",
                    "midi": 76,
                    "time": 113.78125000000017,
                    "velocity": 0.7086614173228346,
                    "duration": 0.09375
                },
                {
                    "name": "A5",
                    "midi": 81,
                    "time": 116.78125000000017,
                    "velocity": 0.7086614173228346,
                    "duration": 0.09375
                },
                {
                    "name": "A5",
                    "midi": 81,
                    "time": 117.28125000000017,
                    "velocity": 0.8661417322834646,
                    "duration": 0.09375
                },
                {
                    "name": "A5",
                    "midi": 81,
                    "time": 117.53125000000017,
                    "velocity": 0.8503937007874016,
                    "duration": 0.09375
                },
                {
                    "name": "G#5",
                    "midi": 80,
                    "time": 117.78125000000017,
                    "velocity": 0.8267716535433071,
                    "duration": 0.09375
                },
                {
                    "name": "G5",
                    "midi": 79,
                    "time": 118.03125000000017,
                    "velocity": 0.8110236220472441,
                    "duration": 0.09375
                },
                {
                    "name": "F#5",
                    "midi": 78,
                    "time": 118.28125000000017,
                    "velocity": 0.7874015748031497,
                    "duration": 0.09375
                },
                {
                    "name": "G5",
                    "midi": 79,
                    "time": 119.78125000000017,
                    "velocity": 0.7874015748031497,
                    "duration": 0.09375
                },
                {
                    "name": "G5",
                    "midi": 79,
                    "time": 120.28125000000017,
                    "velocity": 0.8661417322834646,
                    "duration": 0.09375
                },
                {
                    "name": "G5",
                    "midi": 79,
                    "time": 120.53125000000017,
                    "velocity": 0.8503937007874016,
                    "duration": 0.09375
                },
                {
                    "name": "F#5",
                    "midi": 78,
                    "time": 120.78125000000017,
                    "velocity": 0.8267716535433071,
                    "duration": 0.09375
                },
                {
                    "name": "F5",
                    "midi": 77,
                    "time": 121.03125000000017,
                    "velocity": 0.8110236220472441,
                    "duration": 0.09375
                },
                {
                    "name": "E5",
                    "midi": 76,
                    "time": 121.28125000000017,
                    "velocity": 0.7874015748031497,
                    "duration": 0.09375
                },
                {
                    "name": "F5",
                    "midi": 77,
                    "time": 122.78125000000017,
                    "velocity": 0.7874015748031497,
                    "duration": 0.09375
                },
                {
                    "name": "G5",
                    "midi": 79,
                    "time": 125.28125000000017,
                    "velocity": 0.7480314960629921,
                    "duration": 0.09375
                },
                {
                    "name": "E5",
                    "midi": 76,
                    "time": 125.53125000000017,
                    "velocity": 0.7322834645669292,
                    "duration": 0.09375
                },
                {
                    "name": "F5",
                    "midi": 77,
                    "time": 125.78125000000017,
                    "velocity": 0.7244094488188977,
                    "duration": 0.09375
                },
                {
                    "name": "A#4",
                    "midi": 70,
                    "time": 130.40625000000017,
                    "velocity": 0.6692913385826772,
                    "duration": 0.09375
                },
                {
                    "name": "B4",
                    "midi": 71,
                    "time": 130.65625000000017,
                    "velocity": 0.6850393700787402,
                    "duration": 0.09375
                },
                {
                    "name": "C5",
                    "midi": 72,
                    "time": 130.90625000000017,
                    "velocity": 0.7007874015748031,
                    "duration": 0.09375
                },
                {
                    "name": "C#5",
                    "midi": 73,
                    "time": 131.15625000000017,
                    "velocity": 0.7086614173228346,
                    "duration": 0.09375
                },
                {
                    "name": "D5",
                    "midi": 74,
                    "time": 131.40625000000017,
                    "velocity": 0.7244094488188977,
                    "duration": 0.09375
                },
                {
                    "name": "D#5",
                    "midi": 75,
                    "time": 131.65625000000017,
                    "velocity": 0.7401574803149606,
                    "duration": 0.09375
                },
                {
                    "name": "C#5",
                    "midi": 73,
                    "time": 131.78125000000017,
                    "velocity": 0.7480314960629921,
                    "duration": 0.09375
                },
                {
                    "name": "D5",
                    "midi": 74,
                    "time": 132.03125000000017,
                    "velocity": 0.7559055118110236,
                    "duration": 0.09375
                },
                {
                    "name": "D#5",
                    "midi": 75,
                    "time": 132.28125000000017,
                    "velocity": 0.7716535433070866,
                    "duration": 0.09375
                },
                {
                    "name": "E5",
                    "midi": 76,
                    "time": 132.53125000000017,
                    "velocity": 0.7874015748031497,
                    "duration": 0.09375
                },
                {
                    "name": "F5",
                    "midi": 77,
                    "time": 132.78125000000017,
                    "velocity": 0.7952755905511811,
                    "duration": 0.09375
                },
                {
                    "name": "F#5",
                    "midi": 78,
                    "time": 133.03125000000017,
                    "velocity": 0.8110236220472441,
                    "duration": 0.09375
                },
                {
                    "name": "G5",
                    "midi": 79,
                    "time": 133.28125000000017,
                    "velocity": 0.8267716535433071,
                    "duration": 0.09375
                },
                {
                    "name": "G#5",
                    "midi": 80,
                    "time": 133.53125000000017,
                    "velocity": 0.8346456692913385,
                    "duration": 0.09375
                },
                {
                    "name": "A5",
                    "midi": 81,
                    "time": 133.78125000000017,
                    "velocity": 0.8503937007874016,
                    "duration": 0.09375
                },
                {
                    "name": "A#5",
                    "midi": 82,
                    "time": 134.03125000000017,
                    "velocity": 0.8661417322834646,
                    "duration": 0.09375
                },
                {
                    "name": "A#5",
                    "midi": 82,
                    "time": 134.28125000000017,
                    "velocity": 0.8503937007874016,
                    "duration": 0.09375
                },
                {
                    "name": "G5",
                    "midi": 79,
                    "time": 134.40625000000017,
                    "velocity": 0.8267716535433071,
                    "duration": 0.09375
                },
                {
                    "name": "E5",
                    "midi": 76,
                    "time": 134.53125000000017,
                    "velocity": 0.8110236220472441,
                    "duration": 0.09375
                },
                {
                    "name": "A5",
                    "midi": 81,
                    "time": 134.78125000000017,
                    "velocity": 0.8503937007874016,
                    "duration": 0.09375
                },
                {
                    "name": "F#5",
                    "midi": 78,
                    "time": 134.90625000000017,
                    "velocity": 0.8267716535433071,
                    "duration": 0.09375
                },
                {
                    "name": "D#5",
                    "midi": 75,
                    "time": 135.03125000000017,
                    "velocity": 0.8110236220472441,
                    "duration": 0.09375
                },
                {
                    "name": "G#5",
                    "midi": 80,
                    "time": 135.28125000000017,
                    "velocity": 0.8503937007874016,
                    "duration": 0.09375
                },
                {
                    "name": "F5",
                    "midi": 77,
                    "time": 135.40625000000017,
                    "velocity": 0.8267716535433071,
                    "duration": 0.09375
                },
                {
                    "name": "D5",
                    "midi": 74,
                    "time": 135.53125000000017,
                    "velocity": 0.8110236220472441,
                    "duration": 0.09375
                },
                {
                    "name": "G5",
                    "midi": 79,
                    "time": 135.78125000000017,
                    "velocity": 0.8503937007874016,
                    "duration": 0.09375
                },
                {
                    "name": "E5",
                    "midi": 76,
                    "time": 135.90625000000017,
                    "velocity": 0.8267716535433071,
                    "duration": 0.09375
                },
                {
                    "name": "C#5",
                    "midi": 73,
                    "time": 136.03125000000017,
                    "velocity": 0.8110236220472441,
                    "duration": 0.09375
                },
                {
                    "name": "D#5",
                    "midi": 75,
                    "time": 136.40625000000017,
                    "velocity": 0.8267716535433071,
                    "duration": 0.09375
                },
                {
                    "name": "C5",
                    "midi": 72,
                    "time": 136.53125000000017,
                    "velocity": 0.8110236220472441,
                    "duration": 0.09375
                },
                {
                    "name": "D5",
                    "midi": 74,
                    "time": 136.90625000000017,
                    "velocity": 0.8267716535433071,
                    "duration": 0.09375
                },
                {
                    "name": "B4",
                    "midi": 71,
                    "time": 137.03125000000017,
                    "velocity": 0.8110236220472441,
                    "duration": 0.09375
                },
                {
                    "name": "C#5",
                    "midi": 73,
                    "time": 137.40625000000017,
                    "velocity": 0.8267716535433071,
                    "duration": 0.09375
                },
                {
                    "name": "A#4",
                    "midi": 70,
                    "time": 137.53125000000017,
                    "velocity": 0.8110236220472441,
                    "duration": 0.09375
                },
                {
                    "name": "D#5",
                    "midi": 75,
                    "time": 137.78125000000017,
                    "velocity": 0.8503937007874016,
                    "duration": 0.09375
                },
                {
                    "name": "C5",
                    "midi": 72,
                    "time": 137.90625000000017,
                    "velocity": 0.8267716535433071,
                    "duration": 0.09375
                },
                {
                    "name": "F5",
                    "midi": 77,
                    "time": 138.15625000000017,
                    "velocity": 0.8267716535433071,
                    "duration": 0.1354166666666572
                },
                {
                    "name": "D5",
                    "midi": 74,
                    "time": 138.28125000000017,
                    "velocity": 0.8110236220472441,
                    "duration": 0.09375
                },
                {
                    "name": "F5",
                    "midi": 77,
                    "time": 138.65625000000017,
                    "velocity": 0.8267716535433071,
                    "duration": 0.1354166666666572
                },
                {
                    "name": "D5",
                    "midi": 74,
                    "time": 138.78125000000017,
                    "velocity": 0.8110236220472441,
                    "duration": 0.09375
                },
                {
                    "name": "F5",
                    "midi": 77,
                    "time": 139.15625000000017,
                    "velocity": 0.7480314960629921,
                    "duration": 0.09375
                },
                {
                    "name": "F#5",
                    "midi": 78,
                    "time": 139.40625000000017,
                    "velocity": 0.7559055118110236,
                    "duration": 0.1354166666666572
                },
                {
                    "name": "F5",
                    "midi": 77,
                    "time": 139.53125000000017,
                    "velocity": 0.7716535433070866,
                    "duration": 0.1354166666666572
                },
                {
                    "name": "F#5",
                    "midi": 78,
                    "time": 139.65625000000017,
                    "velocity": 0.7874015748031497,
                    "duration": 0.09375
                },
                {
                    "name": "C#5",
                    "midi": 73,
                    "time": 143.40625000000017,
                    "velocity": 0.7874015748031497,
                    "duration": 0.09375
                },
                {
                    "name": "D5",
                    "midi": 74,
                    "time": 143.65625000000017,
                    "velocity": 0.8031496062992126,
                    "duration": 0.09375
                },
                {
                    "name": "E5",
                    "midi": 76,
                    "time": 143.90625000000017,
                    "velocity": 0.8188976377952756,
                    "duration": 0.09375
                },
                {
                    "name": "D5",
                    "midi": 74,
                    "time": 144.15625000000017,
                    "velocity": 0.8346456692913385,
                    "duration": 0.09375
                },
                {
                    "name": "C#5",
                    "midi": 73,
                    "time": 144.40625000000017,
                    "velocity": 0.8503937007874016,
                    "duration": 0.09375
                },
                {
                    "name": "B4",
                    "midi": 71,
                    "time": 152.78125000000017,
                    "velocity": 0.8661417322834646,
                    "duration": 0.20833333333328596
                },
                {
                    "name": "D5",
                    "midi": 74,
                    "time": 154.4062500000001,
                    "velocity": 0.8110236220472441,
                    "duration": 0.09375
                },
                {
                    "name": "C#5",
                    "midi": 73,
                    "time": 154.6562500000001,
                    "velocity": 0.7952755905511811,
                    "duration": 0.09375
                },
                {
                    "name": "B4",
                    "midi": 71,
                    "time": 154.9062500000001,
                    "velocity": 0.7795275590551181,
                    "duration": 0.09375
                },
                {
                    "name": "A#4",
                    "midi": 70,
                    "time": 155.1562500000001,
                    "velocity": 0.7716535433070866,
                    "duration": 0.09375
                },
                {
                    "name": "B4",
                    "midi": 71,
                    "time": 155.4062500000001,
                    "velocity": 0.7716535433070866,
                    "duration": 0.09375
                },
                {
                    "name": "D5",
                    "midi": 74,
                    "time": 155.6562500000001,
                    "velocity": 0.7637795275590551,
                    "duration": 0.09375
                },
                {
                    "name": "C#5",
                    "midi": 73,
                    "time": 155.9062500000001,
                    "velocity": 0.8661417322834646,
                    "duration": 0.11458333333334281
                },
                {
                    "name": "D5",
                    "midi": 74,
                    "time": 156.9062500000001,
                    "velocity": 0.8267716535433071,
                    "duration": 0.09375
                },
                {
                    "name": "C#5",
                    "midi": 73,
                    "time": 157.1562500000001,
                    "velocity": 0.8188976377952756,
                    "duration": 0.09375
                },
                {
                    "name": "B4",
                    "midi": 71,
                    "time": 157.4062500000001,
                    "velocity": 0.8110236220472441,
                    "duration": 0.09375
                },
                {
                    "name": "A#4",
                    "midi": 70,
                    "time": 157.6562500000001,
                    "velocity": 0.8031496062992126,
                    "duration": 0.09375
                },
                {
                    "name": "B4",
                    "midi": 71,
                    "time": 157.9062500000001,
                    "velocity": 0.7874015748031497,
                    "duration": 0.09375
                },
                {
                    "name": "C#5",
                    "midi": 73,
                    "time": 158.1562500000001,
                    "velocity": 0.7795275590551181,
                    "duration": 0.09375
                },
                {
                    "name": "D5",
                    "midi": 74,
                    "time": 158.4062500000001,
                    "velocity": 0.7716535433070866,
                    "duration": 0.09375
                },
                {
                    "name": "E5",
                    "midi": 76,
                    "time": 158.6562500000001,
                    "velocity": 0.7637795275590551,
                    "duration": 0.09375
                },
                {
                    "name": "D5",
                    "midi": 74,
                    "time": 158.9062500000001,
                    "velocity": 0.8661417322834646,
                    "duration": 0.09375
                },
                {
                    "name": "D#5",
                    "midi": 75,
                    "time": 159.1562500000001,
                    "velocity": 0.8582677165354331,
                    "duration": 0.09375
                },
                {
                    "name": "C#5",
                    "midi": 73,
                    "time": 159.6562500000001,
                    "velocity": 0.8267716535433071,
                    "duration": 0.09375
                },
                {
                    "name": "D5",
                    "midi": 74,
                    "time": 159.9062500000001,
                    "velocity": 0.8188976377952756,
                    "duration": 0.09375
                },
                {
                    "name": "B4",
                    "midi": 71,
                    "time": 160.1562500000001,
                    "velocity": 0.8031496062992126,
                    "duration": 0.09375
                },
                {
                    "name": "C#5",
                    "midi": 73,
                    "time": 160.4062500000001,
                    "velocity": 0.7874015748031497,
                    "duration": 0.09375
                },
                {
                    "name": "A#4",
                    "midi": 70,
                    "time": 160.6562500000001,
                    "velocity": 0.7795275590551181,
                    "duration": 0.09375
                },
                {
                    "name": "B4",
                    "midi": 71,
                    "time": 160.9062500000001,
                    "velocity": 0.7716535433070866,
                    "duration": 0.09375
                },
                {
                    "name": "D5",
                    "midi": 74,
                    "time": 161.0312500000001,
                    "velocity": 0.7559055118110236,
                    "duration": 0.09375
                },
                {
                    "name": "B4",
                    "midi": 71,
                    "time": 161.2812500000001,
                    "velocity": 0.8582677165354331,
                    "duration": 0.09375
                },
                {
                    "name": "D5",
                    "midi": 74,
                    "time": 161.4062500000001,
                    "velocity": 0.84251968503937,
                    "duration": 0.09375
                },
                {
                    "name": "F#4",
                    "midi": 66,
                    "time": 161.9062500000001,
                    "velocity": 0.7874015748031497,
                    "duration": 0.09375
                },
                {
                    "name": "A#4",
                    "midi": 70,
                    "time": 162.0312500000001,
                    "velocity": 0.7952755905511811,
                    "duration": 0.09375
                },
                {
                    "name": "C#5",
                    "midi": 73,
                    "time": 162.1562500000001,
                    "velocity": 0.8031496062992126,
                    "duration": 0.09375
                },
                {
                    "name": "G5",
                    "midi": 79,
                    "time": 164.6562500000001,
                    "velocity": 0.8503937007874016,
                    "duration": 0.09375
                },
                {
                    "name": "F#5",
                    "midi": 78,
                    "time": 164.7812500000001,
                    "velocity": 0.84251968503937,
                    "duration": 0.09375
                },
                {
                    "name": "B5",
                    "midi": 83,
                    "time": 165.2812500000001,
                    "velocity": 0.8582677165354331,
                    "duration": 0.1354166666666572
                },
                {
                    "name": "A#5",
                    "midi": 82,
                    "time": 165.5312500000001,
                    "velocity": 0.84251968503937,
                    "duration": 0.1354166666666572
                },
                {
                    "name": "A5",
                    "midi": 81,
                    "time": 165.7812500000001,
                    "velocity": 0.8346456692913385,
                    "duration": 0.1354166666666572
                },
                {
                    "name": "G#5",
                    "midi": 80,
                    "time": 166.0312500000001,
                    "velocity": 0.8267716535433071,
                    "duration": 0.1354166666666572
                },
                {
                    "name": "G5",
                    "midi": 79,
                    "time": 166.2812500000001,
                    "velocity": 0.8188976377952756,
                    "duration": 0.1354166666666572
                },
                {
                    "name": "F#5",
                    "midi": 78,
                    "time": 166.5312500000001,
                    "velocity": 0.8031496062992126,
                    "duration": 0.1354166666666572
                },
                {
                    "name": "F5",
                    "midi": 77,
                    "time": 166.7812500000001,
                    "velocity": 0.7952755905511811,
                    "duration": 0.1354166666666572
                },
                {
                    "name": "E5",
                    "midi": 76,
                    "time": 167.0312500000001,
                    "velocity": 0.7874015748031497,
                    "duration": 0.1354166666666572
                },
                {
                    "name": "D#5",
                    "midi": 75,
                    "time": 167.2812500000001,
                    "velocity": 0.7795275590551181,
                    "duration": 0.1354166666666572
                },
                {
                    "name": "D5",
                    "midi": 74,
                    "time": 167.5312500000001,
                    "velocity": 0.7637795275590551,
                    "duration": 0.1354166666666572
                },
                {
                    "name": "C#5",
                    "midi": 73,
                    "time": 167.7812500000001,
                    "velocity": 0.7559055118110236,
                    "duration": 0.1354166666666572
                },
                {
                    "name": "D5",
                    "midi": 74,
                    "time": 167.9062500000001,
                    "velocity": 0.7480314960629921,
                    "duration": 0.1354166666666572
                },
                {
                    "name": "F5",
                    "midi": 77,
                    "time": 168.0312500000001,
                    "velocity": 0.7559055118110236,
                    "duration": 0.09375
                },
                {
                    "name": "G5",
                    "midi": 79,
                    "time": 168.1562500000001,
                    "velocity": 0.7716535433070866,
                    "duration": 0.09375
                },
                {
                    "name": "E5",
                    "midi": 76,
                    "time": 168.2812500000001,
                    "velocity": 0.7874015748031497,
                    "duration": 0.09375
                },
                {
                    "name": "F#5",
                    "midi": 78,
                    "time": 168.4062500000001,
                    "velocity": 0.7952755905511811,
                    "duration": 0.09375
                },
                {
                    "name": "F#5",
                    "midi": 78,
                    "time": 174.5312500000001,
                    "velocity": 0.7795275590551181,
                    "duration": 0.09375
                },
                {
                    "name": "B5",
                    "midi": 83,
                    "time": 174.7812500000001,
                    "velocity": 0.8110236220472441,
                    "duration": 0.1354166666666572
                },
                {
                    "name": "A#5",
                    "midi": 82,
                    "time": 174.9062500000001,
                    "velocity": 0.8267716535433071,
                    "duration": 0.1354166666666572
                },
                {
                    "name": "B5",
                    "midi": 83,
                    "time": 175.0312500000001,
                    "velocity": 0.84251968503937,
                    "duration": 0.09375
                },
                {
                    "name": "F#5",
                    "midi": 78,
                    "time": 175.1562500000001,
                    "velocity": 0.8582677165354331,
                    "duration": 0.09375
                },
                {
                    "name": "B5",
                    "midi": 83,
                    "time": 175.4062500000001,
                    "velocity": 0.889763779527559,
                    "duration": 0.09375
                },
                {
                    "name": "F#5",
                    "midi": 78,
                    "time": 175.9062500000001,
                    "velocity": 0.889763779527559,
                    "duration": 0.09375
                },
                {
                    "name": "B5",
                    "midi": 83,
                    "time": 176.2812500000001,
                    "velocity": 0.8661417322834646,
                    "duration": 0.1354166666666572
                },
                {
                    "name": "A#5",
                    "midi": 82,
                    "time": 176.4062500000001,
                    "velocity": 0.8582677165354331,
                    "duration": 0.1354166666666572
                },
                {
                    "name": "B5",
                    "midi": 83,
                    "time": 176.5312500000001,
                    "velocity": 0.8582677165354331,
                    "duration": 0.09375
                },
                {
                    "name": "F#5",
                    "midi": 78,
                    "time": 176.7812500000001,
                    "velocity": 0.8346456692913385,
                    "duration": 0.09375
                },
                {
                    "name": "D5",
                    "midi": 74,
                    "time": 177.5312500000001,
                    "velocity": 0.8661417322834646,
                    "duration": 0.09375
                },
                {
                    "name": "B4",
                    "midi": 71,
                    "time": 177.7812500000001,
                    "velocity": 0.889763779527559,
                    "duration": 0.09375
                },
                {
                    "name": "D5",
                    "midi": 74,
                    "time": 178.60416666666677,
                    "velocity": 0.9448818897637795,
                    "duration": 0.7083333333333144
                }
            ],
            "controlChanges": {
                "1": [
                    {
                        "number": 1,
                        "time": 1.5000000000000002,
                        "value": 0
                    },
                    {
                        "number": 1,
                        "time": 1.510416666666667,
                        "value": 0.031496062992125984
                    },
                    {
                        "number": 1,
                        "time": 1.5208333333333337,
                        "value": 0.047244094488188976
                    },
                    {
                        "number": 1,
                        "time": 1.5312500000000004,
                        "value": 0.06299212598425197
                    },
                    {
                        "number": 1,
                        "time": 1.5416666666666672,
                        "value": 0.07874015748031496
                    },
                    {
                        "number": 1,
                        "time": 1.552083333333334,
                        "value": 0.08661417322834646
                    },
                    {
                        "number": 1,
                        "time": 1.5625000000000007,
                        "value": 0.09448818897637795
                    },
                    {
                        "number": 1,
                        "time": 1.5729166666666674,
                        "value": 0.10236220472440945
                    },
                    {
                        "number": 1,
                        "time": 1.5937500000000007,
                        "value": 0.11023622047244094
                    },
                    {
                        "number": 1,
                        "time": 1.614583333333334,
                        "value": 0.11811023622047244
                    },
                    {
                        "number": 1,
                        "time": 3.125000000000001,
                        "value": 0
                    },
                    {
                        "number": 1,
                        "time": 22.625,
                        "value": 0
                    },
                    {
                        "number": 1,
                        "time": 22.635416666666668,
                        "value": 0.007874015748031496
                    },
                    {
                        "number": 1,
                        "time": 22.645833333333336,
                        "value": 0.015748031496062992
                    },
                    {
                        "number": 1,
                        "time": 22.656250000000004,
                        "value": 0.023622047244094488
                    },
                    {
                        "number": 1,
                        "time": 22.66666666666667,
                        "value": 0.031496062992125984
                    },
                    {
                        "number": 1,
                        "time": 22.687500000000007,
                        "value": 0.03937007874015748
                    },
                    {
                        "number": 1,
                        "time": 22.708333333333343,
                        "value": 0.047244094488188976
                    },
                    {
                        "number": 1,
                        "time": 22.71875000000001,
                        "value": 0.05511811023622047
                    },
                    {
                        "number": 1,
                        "time": 22.739583333333346,
                        "value": 0.06299212598425197
                    },
                    {
                        "number": 1,
                        "time": 22.760416666666682,
                        "value": 0.07086614173228346
                    },
                    {
                        "number": 1,
                        "time": 22.791666666666682,
                        "value": 0.07874015748031496
                    },
                    {
                        "number": 1,
                        "time": 22.812500000000018,
                        "value": 0.08661417322834646
                    },
                    {
                        "number": 1,
                        "time": 22.843750000000018,
                        "value": 0.09448818897637795
                    },
                    {
                        "number": 1,
                        "time": 22.875000000000018,
                        "value": 0.10236220472440945
                    },
                    {
                        "number": 1,
                        "time": 22.906250000000018,
                        "value": 0.11023622047244094
                    },
                    {
                        "number": 1,
                        "time": 22.947916666666686,
                        "value": 0.11811023622047244
                    },
                    {
                        "number": 1,
                        "time": 23.000000000000018,
                        "value": 0.12598425196850394
                    },
                    {
                        "number": 1,
                        "time": 23.05208333333335,
                        "value": 0.13385826771653545
                    },
                    {
                        "number": 1,
                        "time": 23.135416666666682,
                        "value": 0.14173228346456693
                    },
                    {
                        "number": 1,
                        "time": 23.239583333333346,
                        "value": 0.14960629921259844
                    },
                    {
                        "number": 1,
                        "time": 23.427083333333353,
                        "value": 0
                    },
                    {
                        "number": 1,
                        "time": 24.37500000000002,
                        "value": 0
                    },
                    {
                        "number": 1,
                        "time": 24.38541666666669,
                        "value": 0.03937007874015748
                    },
                    {
                        "number": 1,
                        "time": 24.395833333333357,
                        "value": 0.06299212598425197
                    },
                    {
                        "number": 1,
                        "time": 24.406250000000025,
                        "value": 0.07874015748031496
                    },
                    {
                        "number": 1,
                        "time": 24.416666666666693,
                        "value": 0.09448818897637795
                    },
                    {
                        "number": 1,
                        "time": 24.42708333333336,
                        "value": 0.10236220472440945
                    },
                    {
                        "number": 1,
                        "time": 24.43750000000003,
                        "value": 0.11023622047244094
                    },
                    {
                        "number": 1,
                        "time": 24.45833333333336,
                        "value": 0.11811023622047244
                    },
                    {
                        "number": 1,
                        "time": 24.71875000000003,
                        "value": 0
                    },
                    {
                        "number": 1,
                        "time": 53.104166666666686,
                        "value": 0
                    },
                    {
                        "number": 1,
                        "time": 53.11458333333335,
                        "value": 0.031496062992125984
                    },
                    {
                        "number": 1,
                        "time": 53.125000000000014,
                        "value": 0.047244094488188976
                    },
                    {
                        "number": 1,
                        "time": 53.13541666666668,
                        "value": 0.06299212598425197
                    },
                    {
                        "number": 1,
                        "time": 53.14583333333334,
                        "value": 0.07874015748031496
                    },
                    {
                        "number": 1,
                        "time": 53.15625000000001,
                        "value": 0.08661417322834646
                    },
                    {
                        "number": 1,
                        "time": 53.16666666666667,
                        "value": 0.09448818897637795
                    },
                    {
                        "number": 1,
                        "time": 53.177083333333336,
                        "value": 0.10236220472440945
                    },
                    {
                        "number": 1,
                        "time": 53.19791666666667,
                        "value": 0.11023622047244094
                    },
                    {
                        "number": 1,
                        "time": 53.21875000000001,
                        "value": 0.11811023622047244
                    },
                    {
                        "number": 1,
                        "time": 54.72916666666667,
                        "value": 0
                    },
                    {
                        "number": 1,
                        "time": 74.22916666666667,
                        "value": 0
                    },
                    {
                        "number": 1,
                        "time": 74.23958333333334,
                        "value": 0.007874015748031496
                    },
                    {
                        "number": 1,
                        "time": 74.25000000000001,
                        "value": 0.015748031496062992
                    },
                    {
                        "number": 1,
                        "time": 74.26041666666669,
                        "value": 0.023622047244094488
                    },
                    {
                        "number": 1,
                        "time": 74.27083333333336,
                        "value": 0.031496062992125984
                    },
                    {
                        "number": 1,
                        "time": 74.2916666666667,
                        "value": 0.03937007874015748
                    },
                    {
                        "number": 1,
                        "time": 74.31250000000004,
                        "value": 0.047244094488188976
                    },
                    {
                        "number": 1,
                        "time": 74.32291666666671,
                        "value": 0.05511811023622047
                    },
                    {
                        "number": 1,
                        "time": 74.34375000000006,
                        "value": 0.06299212598425197
                    },
                    {
                        "number": 1,
                        "time": 74.3645833333334,
                        "value": 0.07086614173228346
                    },
                    {
                        "number": 1,
                        "time": 74.3958333333334,
                        "value": 0.07874015748031496
                    },
                    {
                        "number": 1,
                        "time": 74.41666666666674,
                        "value": 0.08661417322834646
                    },
                    {
                        "number": 1,
                        "time": 74.44791666666674,
                        "value": 0.09448818897637795
                    },
                    {
                        "number": 1,
                        "time": 74.47916666666674,
                        "value": 0.10236220472440945
                    },
                    {
                        "number": 1,
                        "time": 74.51041666666674,
                        "value": 0.11023622047244094
                    },
                    {
                        "number": 1,
                        "time": 74.55208333333341,
                        "value": 0.11811023622047244
                    },
                    {
                        "number": 1,
                        "time": 74.60416666666674,
                        "value": 0.12598425196850394
                    },
                    {
                        "number": 1,
                        "time": 74.65625000000007,
                        "value": 0.13385826771653545
                    },
                    {
                        "number": 1,
                        "time": 74.7395833333334,
                        "value": 0.14173228346456693
                    },
                    {
                        "number": 1,
                        "time": 74.84375000000006,
                        "value": 0.14960629921259844
                    },
                    {
                        "number": 1,
                        "time": 75.03125000000009,
                        "value": 0
                    },
                    {
                        "number": 1,
                        "time": 75.97916666666676,
                        "value": 0
                    },
                    {
                        "number": 1,
                        "time": 75.98958333333343,
                        "value": 0.03937007874015748
                    },
                    {
                        "number": 1,
                        "time": 76.0000000000001,
                        "value": 0.06299212598425197
                    },
                    {
                        "number": 1,
                        "time": 76.01041666666677,
                        "value": 0.07874015748031496
                    },
                    {
                        "number": 1,
                        "time": 76.02083333333344,
                        "value": 0.09448818897637795
                    },
                    {
                        "number": 1,
                        "time": 76.03125000000011,
                        "value": 0.10236220472440945
                    },
                    {
                        "number": 1,
                        "time": 76.04166666666679,
                        "value": 0.11023622047244094
                    },
                    {
                        "number": 1,
                        "time": 76.06250000000011,
                        "value": 0.11811023622047244
                    },
                    {
                        "number": 1,
                        "time": 76.32291666666679,
                        "value": 0
                    },
                    {
                        "number": 1,
                        "time": 104.70833333333348,
                        "value": 0
                    },
                    {
                        "number": 1,
                        "time": 104.71875000000016,
                        "value": 0.03937007874015748
                    },
                    {
                        "number": 1,
                        "time": 104.72916666666683,
                        "value": 0.06299212598425197
                    },
                    {
                        "number": 1,
                        "time": 104.7395833333335,
                        "value": 0.07874015748031496
                    },
                    {
                        "number": 1,
                        "time": 104.75000000000017,
                        "value": 0.08661417322834646
                    },
                    {
                        "number": 1,
                        "time": 104.76041666666684,
                        "value": 0.09448818897637795
                    },
                    {
                        "number": 1,
                        "time": 104.77083333333351,
                        "value": 0.10236220472440945
                    },
                    {
                        "number": 1,
                        "time": 104.79166666666684,
                        "value": 0.11023622047244094
                    },
                    {
                        "number": 1,
                        "time": 106.03125000000017,
                        "value": 0
                    },
                    {
                        "number": 1,
                        "time": 152.78125000000017,
                        "value": 0
                    },
                    {
                        "number": 1,
                        "time": 152.79166666666683,
                        "value": 0.031496062992125984
                    },
                    {
                        "number": 1,
                        "time": 152.80208333333348,
                        "value": 0.047244094488188976
                    },
                    {
                        "number": 1,
                        "time": 152.81250000000014,
                        "value": 0.06299212598425197
                    },
                    {
                        "number": 1,
                        "time": 152.8229166666668,
                        "value": 0.07874015748031496
                    },
                    {
                        "number": 1,
                        "time": 152.83333333333346,
                        "value": 0.08661417322834646
                    },
                    {
                        "number": 1,
                        "time": 152.8437500000001,
                        "value": 0.09448818897637795
                    },
                    {
                        "number": 1,
                        "time": 152.85416666666677,
                        "value": 0.10236220472440945
                    },
                    {
                        "number": 1,
                        "time": 152.8750000000001,
                        "value": 0.11023622047244094
                    },
                    {
                        "number": 1,
                        "time": 152.89583333333346,
                        "value": 0.11811023622047244
                    },
                    {
                        "number": 1,
                        "time": 154.4062500000001,
                        "value": 0
                    },
                    {
                        "number": 1,
                        "time": 178.5312500000001,
                        "value": 0
                    },
                    {
                        "number": 1,
                        "time": 178.69791666666677,
                        "value": 0.007874015748031496
                    },
                    {
                        "number": 1,
                        "time": 178.70833333333343,
                        "value": 0.015748031496062992
                    },
                    {
                        "number": 1,
                        "time": 178.71875000000009,
                        "value": 0.023622047244094488
                    },
                    {
                        "number": 1,
                        "time": 178.72916666666674,
                        "value": 0.031496062992125984
                    },
                    {
                        "number": 1,
                        "time": 178.75000000000009,
                        "value": 0.03937007874015748
                    },
                    {
                        "number": 1,
                        "time": 178.76041666666674,
                        "value": 0.047244094488188976
                    },
                    {
                        "number": 1,
                        "time": 178.78125000000009,
                        "value": 0.05511811023622047
                    },
                    {
                        "number": 1,
                        "time": 178.79166666666674,
                        "value": 0.06299212598425197
                    },
                    {
                        "number": 1,
                        "time": 178.81250000000009,
                        "value": 0.07086614173228346
                    },
                    {
                        "number": 1,
                        "time": 178.83333333333343,
                        "value": 0.07874015748031496
                    },
                    {
                        "number": 1,
                        "time": 178.86458333333343,
                        "value": 0.08661417322834646
                    },
                    {
                        "number": 1,
                        "time": 178.88541666666677,
                        "value": 0.09448818897637795
                    },
                    {
                        "number": 1,
                        "time": 178.91666666666677,
                        "value": 0.10236220472440945
                    },
                    {
                        "number": 1,
                        "time": 178.94791666666677,
                        "value": 0.11023622047244094
                    },
                    {
                        "number": 1,
                        "time": 178.97916666666677,
                        "value": 0.11811023622047244
                    },
                    {
                        "number": 1,
                        "time": 179.0312500000001,
                        "value": 0.12598425196850394
                    },
                    {
                        "number": 1,
                        "time": 179.07291666666677,
                        "value": 0.13385826771653545
                    },
                    {
                        "number": 1,
                        "time": 179.14583333333343,
                        "value": 0.14173228346456693
                    },
                    {
                        "number": 1,
                        "time": 179.23958333333343,
                        "value": 0.14960629921259844
                    },
                    {
                        "number": 1,
                        "time": 179.40625000000009,
                        "value": 0.15748031496062992
                    }
                ],
                "6": [
                    {
                        "number": 6,
                        "time": 0.3541666666666667,
                        "value": 0.09448818897637795
                    },
                    {
                        "number": 6,
                        "time": 0.38541666666666674,
                        "value": 0.4645669291338583
                    }
                ],
                "7": [
                    {
                        "number": 7,
                        "time": 0,
                        "value": 0.9448818897637795
                    }
                ],
                "11": [
                    {
                        "number": 11,
                        "time": 0.4270833333333334,
                        "value": 0.9448818897637795
                    },
                    {
                        "number": 11,
                        "time": 22.625,
                        "value": 0.7086614173228346
                    },
                    {
                        "number": 11,
                        "time": 22.635416666666668,
                        "value": 0.7322834645669292
                    },
                    {
                        "number": 11,
                        "time": 22.645833333333336,
                        "value": 0.7480314960629921
                    },
                    {
                        "number": 11,
                        "time": 22.656250000000004,
                        "value": 0.7637795275590551
                    },
                    {
                        "number": 11,
                        "time": 22.66666666666667,
                        "value": 0.7795275590551181
                    },
                    {
                        "number": 11,
                        "time": 22.67708333333334,
                        "value": 0.7952755905511811
                    },
                    {
                        "number": 11,
                        "time": 22.687500000000007,
                        "value": 0.8031496062992126
                    },
                    {
                        "number": 11,
                        "time": 22.697916666666675,
                        "value": 0.8188976377952756
                    },
                    {
                        "number": 11,
                        "time": 22.708333333333343,
                        "value": 0.8267716535433071
                    },
                    {
                        "number": 11,
                        "time": 22.71875000000001,
                        "value": 0.8346456692913385
                    },
                    {
                        "number": 11,
                        "time": 22.72916666666668,
                        "value": 0.84251968503937
                    },
                    {
                        "number": 11,
                        "time": 22.739583333333346,
                        "value": 0.8503937007874016
                    },
                    {
                        "number": 11,
                        "time": 22.750000000000014,
                        "value": 0.8582677165354331
                    },
                    {
                        "number": 11,
                        "time": 22.760416666666682,
                        "value": 0.8661417322834646
                    },
                    {
                        "number": 11,
                        "time": 22.77083333333335,
                        "value": 0.8740157480314961
                    },
                    {
                        "number": 11,
                        "time": 22.791666666666682,
                        "value": 0.8818897637795275
                    },
                    {
                        "number": 11,
                        "time": 22.80208333333335,
                        "value": 0.889763779527559
                    },
                    {
                        "number": 11,
                        "time": 22.822916666666686,
                        "value": 0.8976377952755905
                    },
                    {
                        "number": 11,
                        "time": 22.843750000000018,
                        "value": 0.905511811023622
                    },
                    {
                        "number": 11,
                        "time": 22.86458333333335,
                        "value": 0.9133858267716536
                    },
                    {
                        "number": 11,
                        "time": 22.89583333333335,
                        "value": 0.9212598425196851
                    },
                    {
                        "number": 11,
                        "time": 22.937500000000018,
                        "value": 0.9291338582677166
                    },
                    {
                        "number": 11,
                        "time": 22.979166666666686,
                        "value": 0.937007874015748
                    },
                    {
                        "number": 11,
                        "time": 23.072916666666682,
                        "value": 0.9448818897637795
                    },
                    {
                        "number": 11,
                        "time": 23.218750000000014,
                        "value": 0.937007874015748
                    },
                    {
                        "number": 11,
                        "time": 23.250000000000014,
                        "value": 0.9291338582677166
                    },
                    {
                        "number": 11,
                        "time": 23.270833333333346,
                        "value": 0.9212598425196851
                    },
                    {
                        "number": 11,
                        "time": 23.29166666666668,
                        "value": 0.905511811023622
                    },
                    {
                        "number": 11,
                        "time": 23.302083333333346,
                        "value": 0.8976377952755905
                    },
                    {
                        "number": 11,
                        "time": 23.312500000000014,
                        "value": 0.889763779527559
                    },
                    {
                        "number": 11,
                        "time": 23.322916666666682,
                        "value": 0.8818897637795275
                    },
                    {
                        "number": 11,
                        "time": 23.33333333333335,
                        "value": 0.8661417322834646
                    },
                    {
                        "number": 11,
                        "time": 23.343750000000018,
                        "value": 0.84251968503937
                    },
                    {
                        "number": 11,
                        "time": 23.354166666666686,
                        "value": 0.8188976377952756
                    },
                    {
                        "number": 11,
                        "time": 23.364583333333353,
                        "value": 0.7874015748031497
                    },
                    {
                        "number": 11,
                        "time": 24.333333333333353,
                        "value": 0.9448818897637795
                    },
                    {
                        "number": 11,
                        "time": 74.22916666666667,
                        "value": 0.7086614173228346
                    },
                    {
                        "number": 11,
                        "time": 74.23958333333334,
                        "value": 0.7322834645669292
                    },
                    {
                        "number": 11,
                        "time": 74.25000000000001,
                        "value": 0.7480314960629921
                    },
                    {
                        "number": 11,
                        "time": 74.26041666666669,
                        "value": 0.7637795275590551
                    },
                    {
                        "number": 11,
                        "time": 74.27083333333336,
                        "value": 0.7795275590551181
                    },
                    {
                        "number": 11,
                        "time": 74.28125000000003,
                        "value": 0.7952755905511811
                    },
                    {
                        "number": 11,
                        "time": 74.2916666666667,
                        "value": 0.8031496062992126
                    },
                    {
                        "number": 11,
                        "time": 74.30208333333337,
                        "value": 0.8188976377952756
                    },
                    {
                        "number": 11,
                        "time": 74.31250000000004,
                        "value": 0.8267716535433071
                    },
                    {
                        "number": 11,
                        "time": 74.32291666666671,
                        "value": 0.8346456692913385
                    },
                    {
                        "number": 11,
                        "time": 74.33333333333339,
                        "value": 0.84251968503937
                    },
                    {
                        "number": 11,
                        "time": 74.34375000000006,
                        "value": 0.8503937007874016
                    },
                    {
                        "number": 11,
                        "time": 74.35416666666673,
                        "value": 0.8582677165354331
                    },
                    {
                        "number": 11,
                        "time": 74.3645833333334,
                        "value": 0.8661417322834646
                    },
                    {
                        "number": 11,
                        "time": 74.37500000000007,
                        "value": 0.8740157480314961
                    },
                    {
                        "number": 11,
                        "time": 74.3958333333334,
                        "value": 0.8818897637795275
                    },
                    {
                        "number": 11,
                        "time": 74.40625000000007,
                        "value": 0.889763779527559
                    },
                    {
                        "number": 11,
                        "time": 74.42708333333341,
                        "value": 0.8976377952755905
                    },
                    {
                        "number": 11,
                        "time": 74.44791666666674,
                        "value": 0.905511811023622
                    },
                    {
                        "number": 11,
                        "time": 74.46875000000007,
                        "value": 0.9133858267716536
                    },
                    {
                        "number": 11,
                        "time": 74.50000000000007,
                        "value": 0.9212598425196851
                    },
                    {
                        "number": 11,
                        "time": 74.54166666666674,
                        "value": 0.9291338582677166
                    },
                    {
                        "number": 11,
                        "time": 74.58333333333341,
                        "value": 0.937007874015748
                    },
                    {
                        "number": 11,
                        "time": 74.6770833333334,
                        "value": 0.9448818897637795
                    },
                    {
                        "number": 11,
                        "time": 74.82291666666673,
                        "value": 0.937007874015748
                    },
                    {
                        "number": 11,
                        "time": 74.85416666666673,
                        "value": 0.9291338582677166
                    },
                    {
                        "number": 11,
                        "time": 74.87500000000006,
                        "value": 0.9212598425196851
                    },
                    {
                        "number": 11,
                        "time": 74.89583333333339,
                        "value": 0.905511811023622
                    },
                    {
                        "number": 11,
                        "time": 74.90625000000006,
                        "value": 0.8976377952755905
                    },
                    {
                        "number": 11,
                        "time": 74.91666666666673,
                        "value": 0.889763779527559
                    },
                    {
                        "number": 11,
                        "time": 74.9270833333334,
                        "value": 0.8818897637795275
                    },
                    {
                        "number": 11,
                        "time": 74.93750000000007,
                        "value": 0.8661417322834646
                    },
                    {
                        "number": 11,
                        "time": 74.94791666666674,
                        "value": 0.84251968503937
                    },
                    {
                        "number": 11,
                        "time": 74.95833333333341,
                        "value": 0.8188976377952756
                    },
                    {
                        "number": 11,
                        "time": 74.96875000000009,
                        "value": 0.7874015748031497
                    },
                    {
                        "number": 11,
                        "time": 75.93750000000009,
                        "value": 0.9448818897637795
                    }
                ],
                "32": [
                    {
                        "number": 32,
                        "time": 0.3125,
                        "value": 0.007874015748031496
                    }
                ],
                "91": [
                    {
                        "number": 91,
                        "time": 0.3958333333333334,
                        "value": 0.31496062992125984
                    }
                ],
                "93": [
                    {
                        "number": 93,
                        "time": 0.4062500000000001,
                        "value": 0.07874015748031496
                    }
                ],
                "98": [
                    {
                        "number": 98,
                        "time": 0.37500000000000006,
                        "value": 0.25196850393700787
                    }
                ],
                "99": [
                    {
                        "number": 99,
                        "time": 0.36458333333333337,
                        "value": 0.007874015748031496
                    }
                ],
                "100": [
                    {
                        "number": 100,
                        "time": 0.34375,
                        "value": 0
                    }
                ],
                "101": [
                    {
                        "number": 101,
                        "time": 0.3333333333333333,
                        "value": 0
                    }
                ]
            },
            "id": 2,
            "name": "A",
            "instrumentNumber": 40,
            "instrument": "violin",
            "instrumentFamily": "strings",
            "channelNumber": 1,
            "isPercussion": false
        },
        {
            "startTime": 7.875,
            "duration": 178.79166666666669,
            "length": 248,
            "notes": [
                {
                    "name": "F#4",
                    "midi": 66,
                    "time": 7.875,
                    "velocity": 0.8503937007874016,
                    "duration": 0.13541666666666607
                },
                {
                    "name": "E4",
                    "midi": 64,
                    "time": 8.125,
                    "velocity": 0.8267716535433071,
                    "duration": 0.09375
                },
                {
                    "name": "G4",
                    "midi": 67,
                    "time": 9.125,
                    "velocity": 0.7480314960629921,
                    "duration": 0.09375
                },
                {
                    "name": "G4",
                    "midi": 67,
                    "time": 9.875,
                    "velocity": 0.905511811023622,
                    "duration": 0.09375
                },
                {
                    "name": "F#4",
                    "midi": 66,
                    "time": 10.125,
                    "velocity": 0.889763779527559,
                    "duration": 0.09375
                },
                {
                    "name": "G4",
                    "midi": 67,
                    "time": 10.375,
                    "velocity": 0.8661417322834646,
                    "duration": 0.09375
                },
                {
                    "name": "F#4",
                    "midi": 66,
                    "time": 10.625,
                    "velocity": 0.8503937007874016,
                    "duration": 0.09375
                },
                {
                    "name": "G4",
                    "midi": 67,
                    "time": 11.125,
                    "velocity": 0.9291338582677166,
                    "duration": 0.09375
                },
                {
                    "name": "F#4",
                    "midi": 66,
                    "time": 11.375,
                    "velocity": 0.905511811023622,
                    "duration": 0.09375
                },
                {
                    "name": "F4",
                    "midi": 65,
                    "time": 11.625,
                    "velocity": 0.889763779527559,
                    "duration": 0.09375
                },
                {
                    "name": "F#4",
                    "midi": 66,
                    "time": 11.875,
                    "velocity": 0.8740157480314961,
                    "duration": 0.09375
                },
                {
                    "name": "F4",
                    "midi": 65,
                    "time": 12.125,
                    "velocity": 0.8503937007874016,
                    "duration": 0.09375
                },
                {
                    "name": "G4",
                    "midi": 67,
                    "time": 13.125,
                    "velocity": 0.889763779527559,
                    "duration": 0.09375
                },
                {
                    "name": "F4",
                    "midi": 65,
                    "time": 13.375,
                    "velocity": 0.8661417322834646,
                    "duration": 0.09375
                },
                {
                    "name": "F#4",
                    "midi": 66,
                    "time": 13.625,
                    "velocity": 0.8503937007874016,
                    "duration": 0.08333333333333393
                },
                {
                    "name": "G4",
                    "midi": 67,
                    "time": 14.125,
                    "velocity": 0.8503937007874016,
                    "duration": 0.09375
                },
                {
                    "name": "F#4",
                    "midi": 66,
                    "time": 14.375,
                    "velocity": 0.8267716535433071,
                    "duration": 0.09375
                },
                {
                    "name": "F#4",
                    "midi": 66,
                    "time": 14.625,
                    "velocity": 0.8110236220472441,
                    "duration": 0.09375
                },
                {
                    "name": "F#4",
                    "midi": 66,
                    "time": 14.875,
                    "velocity": 0.7874015748031497,
                    "duration": 0.09375
                },
                {
                    "name": "G4",
                    "midi": 67,
                    "time": 15.125,
                    "velocity": 0.7716535433070866,
                    "duration": 0.09375
                },
                {
                    "name": "G4",
                    "midi": 67,
                    "time": 15.875,
                    "velocity": 0.8346456692913385,
                    "duration": 0.09375
                },
                {
                    "name": "F#4",
                    "midi": 66,
                    "time": 16.125,
                    "velocity": 0.8110236220472441,
                    "duration": 0.09375
                },
                {
                    "name": "F4",
                    "midi": 65,
                    "time": 16.375,
                    "velocity": 0.7874015748031497,
                    "duration": 0.09375
                },
                {
                    "name": "F#4",
                    "midi": 66,
                    "time": 16.625,
                    "velocity": 0.7637795275590551,
                    "duration": 0.09375
                },
                {
                    "name": "A#4",
                    "midi": 70,
                    "time": 17.875,
                    "velocity": 0.8031496062992126,
                    "duration": 0.09375
                },
                {
                    "name": "G4",
                    "midi": 67,
                    "time": 18.375,
                    "velocity": 0.8503937007874016,
                    "duration": 0.13541666666666785
                },
                {
                    "name": "G4",
                    "midi": 67,
                    "time": 18.625,
                    "velocity": 0.8267716535433071,
                    "duration": 0.09375
                },
                {
                    "name": "G4",
                    "midi": 67,
                    "time": 18.875,
                    "velocity": 0.8110236220472441,
                    "duration": 0.09375
                },
                {
                    "name": "G4",
                    "midi": 67,
                    "time": 19.125,
                    "velocity": 0.7874015748031497,
                    "duration": 0.09375
                },
                {
                    "name": "G4",
                    "midi": 67,
                    "time": 19.375,
                    "velocity": 0.7716535433070866,
                    "duration": 0.09375
                },
                {
                    "name": "F#4",
                    "midi": 66,
                    "time": 19.625,
                    "velocity": 0.7480314960629921,
                    "duration": 0.09375
                },
                {
                    "name": "F#4",
                    "midi": 66,
                    "time": 19.875,
                    "velocity": 0.7401574803149606,
                    "duration": 0.13541666666666785
                },
                {
                    "name": "G4",
                    "midi": 67,
                    "time": 20.125,
                    "velocity": 0.7244094488188977,
                    "duration": 0.09375
                },
                {
                    "name": "F#4",
                    "midi": 66,
                    "time": 20.375,
                    "velocity": 0.7480314960629921,
                    "duration": 0.09375
                },
                {
                    "name": "F#4",
                    "midi": 66,
                    "time": 20.625,
                    "velocity": 0.7401574803149606,
                    "duration": 0.13541666666666785
                },
                {
                    "name": "G4",
                    "midi": 67,
                    "time": 20.875,
                    "velocity": 0.7244094488188977,
                    "duration": 0.09375
                },
                {
                    "name": "F#4",
                    "midi": 66,
                    "time": 21.125,
                    "velocity": 0.7480314960629921,
                    "duration": 0.09375
                },
                {
                    "name": "F#4",
                    "midi": 66,
                    "time": 21.375,
                    "velocity": 0.7716535433070866,
                    "duration": 0.13541666666666785
                },
                {
                    "name": "F#4",
                    "midi": 66,
                    "time": 21.625,
                    "velocity": 0.7952755905511811,
                    "duration": 0.09375
                },
                {
                    "name": "F#4",
                    "midi": 66,
                    "time": 21.875,
                    "velocity": 0.8267716535433071,
                    "duration": 0.09375
                },
                {
                    "name": "F#4",
                    "midi": 66,
                    "time": 22.125,
                    "velocity": 0.8503937007874016,
                    "duration": 0.09375
                },
                {
                    "name": "F#4",
                    "midi": 66,
                    "time": 22.375,
                    "velocity": 0.8188976377952756,
                    "duration": 0.09375
                },
                {
                    "name": "F#4",
                    "midi": 66,
                    "time": 22.625,
                    "velocity": 0.7874015748031497,
                    "duration": 0.7500000000000213
                },
                {
                    "name": "G4",
                    "midi": 67,
                    "time": 26.43750000000002,
                    "velocity": 0.7322834645669292,
                    "duration": 0.09375
                },
                {
                    "name": "F#4",
                    "midi": 66,
                    "time": 26.68750000000002,
                    "velocity": 0.7637795275590551,
                    "duration": 0.09375
                },
                {
                    "name": "E4",
                    "midi": 64,
                    "time": 26.93750000000002,
                    "velocity": 0.7952755905511811,
                    "duration": 0.09375
                },
                {
                    "name": "G4",
                    "midi": 67,
                    "time": 29.22916666666669,
                    "velocity": 0.7795275590551181,
                    "duration": 0.09375
                },
                {
                    "name": "F#4",
                    "midi": 66,
                    "time": 29.47916666666669,
                    "velocity": 0.7637795275590551,
                    "duration": 0.09375
                },
                {
                    "name": "E4",
                    "midi": 64,
                    "time": 29.72916666666669,
                    "velocity": 0.7559055118110236,
                    "duration": 0.09375
                },
                {
                    "name": "G4",
                    "midi": 67,
                    "time": 30.22916666666669,
                    "velocity": 0.7244094488188977,
                    "duration": 0.09375
                },
                {
                    "name": "F#4",
                    "midi": 66,
                    "time": 30.47916666666669,
                    "velocity": 0.7086614173228346,
                    "duration": 0.09375
                },
                {
                    "name": "G4",
                    "midi": 67,
                    "time": 32.479166666666686,
                    "velocity": 0.8661417322834646,
                    "duration": 0.09375
                },
                {
                    "name": "E4",
                    "midi": 64,
                    "time": 32.729166666666686,
                    "velocity": 0.905511811023622,
                    "duration": 0.09375
                },
                {
                    "name": "F#4",
                    "midi": 66,
                    "time": 33.979166666666686,
                    "velocity": 0.8661417322834646,
                    "duration": 0.09375
                },
                {
                    "name": "E4",
                    "midi": 64,
                    "time": 35.479166666666686,
                    "velocity": 0.8661417322834646,
                    "duration": 0.09375
                },
                {
                    "name": "C#5",
                    "midi": 73,
                    "time": 38.229166666666686,
                    "velocity": 0.8267716535433071,
                    "duration": 0.09375
                },
                {
                    "name": "D5",
                    "midi": 74,
                    "time": 38.479166666666686,
                    "velocity": 0.8267716535433071,
                    "duration": 0.09375
                },
                {
                    "name": "E5",
                    "midi": 76,
                    "time": 38.729166666666686,
                    "velocity": 0.8267716535433071,
                    "duration": 0.09375
                },
                {
                    "name": "F#5",
                    "midi": 78,
                    "time": 38.979166666666686,
                    "velocity": 0.8267716535433071,
                    "duration": 0.09375
                },
                {
                    "name": "G5",
                    "midi": 79,
                    "time": 39.229166666666686,
                    "velocity": 0.8267716535433071,
                    "duration": 0.09375
                },
                {
                    "name": "F#5",
                    "midi": 78,
                    "time": 39.479166666666686,
                    "velocity": 0.8267716535433071,
                    "duration": 0.09375
                },
                {
                    "name": "C#5",
                    "midi": 73,
                    "time": 41.229166666666686,
                    "velocity": 0.7480314960629921,
                    "duration": 0.09375
                },
                {
                    "name": "D5",
                    "midi": 74,
                    "time": 41.479166666666686,
                    "velocity": 0.7480314960629921,
                    "duration": 0.09375
                },
                {
                    "name": "E5",
                    "midi": 76,
                    "time": 41.729166666666686,
                    "velocity": 0.7480314960629921,
                    "duration": 0.09375
                },
                {
                    "name": "F#5",
                    "midi": 78,
                    "time": 41.979166666666686,
                    "velocity": 0.7480314960629921,
                    "duration": 0.09375
                },
                {
                    "name": "G5",
                    "midi": 79,
                    "time": 42.229166666666686,
                    "velocity": 0.7480314960629921,
                    "duration": 0.09375
                },
                {
                    "name": "F#5",
                    "midi": 78,
                    "time": 42.479166666666686,
                    "velocity": 0.8267716535433071,
                    "duration": 0.09375
                },
                {
                    "name": "D5",
                    "midi": 74,
                    "time": 44.229166666666686,
                    "velocity": 0.7086614173228346,
                    "duration": 0.0729166666666643
                },
                {
                    "name": "A4",
                    "midi": 69,
                    "time": 47.229166666666686,
                    "velocity": 0.7637795275590551,
                    "duration": 0.0729166666666643
                },
                {
                    "name": "G4",
                    "midi": 67,
                    "time": 47.979166666666686,
                    "velocity": 0.7716535433070866,
                    "duration": 0.0729166666666643
                },
                {
                    "name": "F#4",
                    "midi": 66,
                    "time": 59.479166666666686,
                    "velocity": 0.8503937007874016,
                    "duration": 0.1354166666666643
                },
                {
                    "name": "E4",
                    "midi": 64,
                    "time": 59.729166666666686,
                    "velocity": 0.8267716535433071,
                    "duration": 0.09375
                },
                {
                    "name": "G4",
                    "midi": 67,
                    "time": 60.729166666666686,
                    "velocity": 0.7480314960629921,
                    "duration": 0.09375
                },
                {
                    "name": "G4",
                    "midi": 67,
                    "time": 61.479166666666686,
                    "velocity": 0.905511811023622,
                    "duration": 0.09375
                },
                {
                    "name": "F#4",
                    "midi": 66,
                    "time": 61.729166666666686,
                    "velocity": 0.889763779527559,
                    "duration": 0.09375
                },
                {
                    "name": "G4",
                    "midi": 67,
                    "time": 61.979166666666686,
                    "velocity": 0.8661417322834646,
                    "duration": 0.09375
                },
                {
                    "name": "F#4",
                    "midi": 66,
                    "time": 62.229166666666686,
                    "velocity": 0.8503937007874016,
                    "duration": 0.09375
                },
                {
                    "name": "G4",
                    "midi": 67,
                    "time": 62.729166666666686,
                    "velocity": 0.9291338582677166,
                    "duration": 0.09375
                },
                {
                    "name": "F#4",
                    "midi": 66,
                    "time": 62.979166666666686,
                    "velocity": 0.905511811023622,
                    "duration": 0.09375
                },
                {
                    "name": "F4",
                    "midi": 65,
                    "time": 63.229166666666686,
                    "velocity": 0.889763779527559,
                    "duration": 0.09375
                },
                {
                    "name": "F#4",
                    "midi": 66,
                    "time": 63.479166666666686,
                    "velocity": 0.8740157480314961,
                    "duration": 0.09375
                },
                {
                    "name": "F4",
                    "midi": 65,
                    "time": 63.729166666666686,
                    "velocity": 0.8503937007874016,
                    "duration": 0.09375
                },
                {
                    "name": "G4",
                    "midi": 67,
                    "time": 64.72916666666669,
                    "velocity": 0.889763779527559,
                    "duration": 0.09375
                },
                {
                    "name": "F4",
                    "midi": 65,
                    "time": 64.97916666666669,
                    "velocity": 0.8661417322834646,
                    "duration": 0.09375
                },
                {
                    "name": "F#4",
                    "midi": 66,
                    "time": 65.22916666666669,
                    "velocity": 0.8503937007874016,
                    "duration": 0.0833333333333286
                },
                {
                    "name": "G4",
                    "midi": 67,
                    "time": 65.72916666666669,
                    "velocity": 0.8503937007874016,
                    "duration": 0.09375
                },
                {
                    "name": "F#4",
                    "midi": 66,
                    "time": 65.97916666666669,
                    "velocity": 0.8267716535433071,
                    "duration": 0.09375
                },
                {
                    "name": "F#4",
                    "midi": 66,
                    "time": 66.22916666666669,
                    "velocity": 0.8110236220472441,
                    "duration": 0.09375
                },
                {
                    "name": "F#4",
                    "midi": 66,
                    "time": 66.47916666666669,
                    "velocity": 0.7874015748031497,
                    "duration": 0.09375
                },
                {
                    "name": "G4",
                    "midi": 67,
                    "time": 66.72916666666669,
                    "velocity": 0.7716535433070866,
                    "duration": 0.09375
                },
                {
                    "name": "G4",
                    "midi": 67,
                    "time": 67.47916666666669,
                    "velocity": 0.8346456692913385,
                    "duration": 0.09375
                },
                {
                    "name": "F#4",
                    "midi": 66,
                    "time": 67.72916666666669,
                    "velocity": 0.8110236220472441,
                    "duration": 0.09375
                },
                {
                    "name": "F4",
                    "midi": 65,
                    "time": 67.97916666666669,
                    "velocity": 0.7874015748031497,
                    "duration": 0.09375
                },
                {
                    "name": "F#4",
                    "midi": 66,
                    "time": 68.22916666666669,
                    "velocity": 0.7637795275590551,
                    "duration": 0.09375
                },
                {
                    "name": "A#4",
                    "midi": 70,
                    "time": 69.47916666666669,
                    "velocity": 0.8031496062992126,
                    "duration": 0.09375
                },
                {
                    "name": "G4",
                    "midi": 67,
                    "time": 69.97916666666669,
                    "velocity": 0.8503937007874016,
                    "duration": 0.1354166666666714
                },
                {
                    "name": "G4",
                    "midi": 67,
                    "time": 70.22916666666669,
                    "velocity": 0.8267716535433071,
                    "duration": 0.09375
                },
                {
                    "name": "G4",
                    "midi": 67,
                    "time": 70.47916666666669,
                    "velocity": 0.8110236220472441,
                    "duration": 0.09375
                },
                {
                    "name": "G4",
                    "midi": 67,
                    "time": 70.72916666666669,
                    "velocity": 0.7874015748031497,
                    "duration": 0.09375
                },
                {
                    "name": "G4",
                    "midi": 67,
                    "time": 70.97916666666669,
                    "velocity": 0.7716535433070866,
                    "duration": 0.09375
                },
                {
                    "name": "F#4",
                    "midi": 66,
                    "time": 71.22916666666669,
                    "velocity": 0.7480314960629921,
                    "duration": 0.09375
                },
                {
                    "name": "F#4",
                    "midi": 66,
                    "time": 71.47916666666669,
                    "velocity": 0.7401574803149606,
                    "duration": 0.1354166666666714
                },
                {
                    "name": "G4",
                    "midi": 67,
                    "time": 71.72916666666669,
                    "velocity": 0.7244094488188977,
                    "duration": 0.09375
                },
                {
                    "name": "F#4",
                    "midi": 66,
                    "time": 71.97916666666669,
                    "velocity": 0.7480314960629921,
                    "duration": 0.09375
                },
                {
                    "name": "F#4",
                    "midi": 66,
                    "time": 72.22916666666669,
                    "velocity": 0.7401574803149606,
                    "duration": 0.1354166666666714
                },
                {
                    "name": "G4",
                    "midi": 67,
                    "time": 72.47916666666669,
                    "velocity": 0.7244094488188977,
                    "duration": 0.09375
                },
                {
                    "name": "F#4",
                    "midi": 66,
                    "time": 72.72916666666669,
                    "velocity": 0.7480314960629921,
                    "duration": 0.09375
                },
                {
                    "name": "F#4",
                    "midi": 66,
                    "time": 72.97916666666669,
                    "velocity": 0.7716535433070866,
                    "duration": 0.1354166666666714
                },
                {
                    "name": "F#4",
                    "midi": 66,
                    "time": 73.22916666666669,
                    "velocity": 0.7952755905511811,
                    "duration": 0.09375
                },
                {
                    "name": "F#4",
                    "midi": 66,
                    "time": 73.47916666666669,
                    "velocity": 0.8267716535433071,
                    "duration": 0.09375
                },
                {
                    "name": "F#4",
                    "midi": 66,
                    "time": 73.72916666666669,
                    "velocity": 0.8503937007874016,
                    "duration": 0.09375
                },
                {
                    "name": "F#4",
                    "midi": 66,
                    "time": 73.97916666666669,
                    "velocity": 0.8188976377952756,
                    "duration": 0.09375
                },
                {
                    "name": "F#4",
                    "midi": 66,
                    "time": 74.22916666666669,
                    "velocity": 0.7874015748031497,
                    "duration": 0.7500000000000853
                },
                {
                    "name": "G4",
                    "midi": 67,
                    "time": 78.04166666666677,
                    "velocity": 0.7322834645669292,
                    "duration": 0.09375
                },
                {
                    "name": "F#4",
                    "midi": 66,
                    "time": 78.29166666666677,
                    "velocity": 0.7637795275590551,
                    "duration": 0.09375
                },
                {
                    "name": "E4",
                    "midi": 64,
                    "time": 78.54166666666677,
                    "velocity": 0.7952755905511811,
                    "duration": 0.09375
                },
                {
                    "name": "G4",
                    "midi": 67,
                    "time": 80.83333333333344,
                    "velocity": 0.7795275590551181,
                    "duration": 0.09375
                },
                {
                    "name": "F#4",
                    "midi": 66,
                    "time": 81.08333333333344,
                    "velocity": 0.7637795275590551,
                    "duration": 0.09375
                },
                {
                    "name": "E4",
                    "midi": 64,
                    "time": 81.33333333333344,
                    "velocity": 0.7559055118110236,
                    "duration": 0.09375
                },
                {
                    "name": "G4",
                    "midi": 67,
                    "time": 81.83333333333344,
                    "velocity": 0.7244094488188977,
                    "duration": 0.09375
                },
                {
                    "name": "F#4",
                    "midi": 66,
                    "time": 82.08333333333344,
                    "velocity": 0.7086614173228346,
                    "duration": 0.09375
                },
                {
                    "name": "G4",
                    "midi": 67,
                    "time": 84.08333333333344,
                    "velocity": 0.8661417322834646,
                    "duration": 0.09375
                },
                {
                    "name": "E4",
                    "midi": 64,
                    "time": 84.33333333333344,
                    "velocity": 0.905511811023622,
                    "duration": 0.09375
                },
                {
                    "name": "F#4",
                    "midi": 66,
                    "time": 85.58333333333344,
                    "velocity": 0.8661417322834646,
                    "duration": 0.09375
                },
                {
                    "name": "E4",
                    "midi": 64,
                    "time": 87.08333333333344,
                    "velocity": 0.8661417322834646,
                    "duration": 0.09375
                },
                {
                    "name": "C#5",
                    "midi": 73,
                    "time": 89.83333333333344,
                    "velocity": 0.8267716535433071,
                    "duration": 0.09375
                },
                {
                    "name": "D5",
                    "midi": 74,
                    "time": 90.08333333333344,
                    "velocity": 0.8267716535433071,
                    "duration": 0.09375
                },
                {
                    "name": "E5",
                    "midi": 76,
                    "time": 90.33333333333344,
                    "velocity": 0.8267716535433071,
                    "duration": 0.09375
                },
                {
                    "name": "F#5",
                    "midi": 78,
                    "time": 90.58333333333344,
                    "velocity": 0.8267716535433071,
                    "duration": 0.09375
                },
                {
                    "name": "G5",
                    "midi": 79,
                    "time": 90.83333333333344,
                    "velocity": 0.8267716535433071,
                    "duration": 0.09375
                },
                {
                    "name": "F#5",
                    "midi": 78,
                    "time": 91.08333333333344,
                    "velocity": 0.8267716535433071,
                    "duration": 0.09375
                },
                {
                    "name": "C#5",
                    "midi": 73,
                    "time": 92.83333333333344,
                    "velocity": 0.7480314960629921,
                    "duration": 0.09375
                },
                {
                    "name": "D5",
                    "midi": 74,
                    "time": 93.08333333333344,
                    "velocity": 0.7480314960629921,
                    "duration": 0.09375
                },
                {
                    "name": "E5",
                    "midi": 76,
                    "time": 93.33333333333344,
                    "velocity": 0.7480314960629921,
                    "duration": 0.09375
                },
                {
                    "name": "F#5",
                    "midi": 78,
                    "time": 93.58333333333344,
                    "velocity": 0.7480314960629921,
                    "duration": 0.09375
                },
                {
                    "name": "G5",
                    "midi": 79,
                    "time": 93.83333333333344,
                    "velocity": 0.7480314960629921,
                    "duration": 0.09375
                },
                {
                    "name": "F#5",
                    "midi": 78,
                    "time": 94.08333333333344,
                    "velocity": 0.8267716535433071,
                    "duration": 0.09375
                },
                {
                    "name": "D5",
                    "midi": 74,
                    "time": 95.83333333333344,
                    "velocity": 0.7086614173228346,
                    "duration": 0.0729166666666714
                },
                {
                    "name": "A4",
                    "midi": 69,
                    "time": 98.83333333333344,
                    "velocity": 0.7637795275590551,
                    "duration": 0.0729166666666714
                },
                {
                    "name": "G4",
                    "midi": 67,
                    "time": 99.58333333333344,
                    "velocity": 0.7716535433070866,
                    "duration": 0.0729166666666714
                },
                {
                    "name": "C#5",
                    "midi": 73,
                    "time": 107.53125000000011,
                    "velocity": 0.7244094488188977,
                    "duration": 0.09375
                },
                {
                    "name": "B4",
                    "midi": 71,
                    "time": 107.78125000000011,
                    "velocity": 0.7086614173228346,
                    "duration": 0.09375
                },
                {
                    "name": "D#4",
                    "midi": 63,
                    "time": 109.28125000000011,
                    "velocity": 0.8031496062992126,
                    "duration": 0.09375
                },
                {
                    "name": "E4",
                    "midi": 64,
                    "time": 109.53125000000011,
                    "velocity": 0.7874015748031497,
                    "duration": 0.09375
                },
                {
                    "name": "F#4",
                    "midi": 66,
                    "time": 109.78125000000011,
                    "velocity": 0.7716535433070866,
                    "duration": 0.09375
                },
                {
                    "name": "G4",
                    "midi": 67,
                    "time": 110.28125000000011,
                    "velocity": 0.7401574803149606,
                    "duration": 0.09375
                },
                {
                    "name": "F#4",
                    "midi": 66,
                    "time": 110.53125000000011,
                    "velocity": 0.7244094488188977,
                    "duration": 0.09375
                },
                {
                    "name": "G#4",
                    "midi": 68,
                    "time": 115.28125000000011,
                    "velocity": 0.8031496062992126,
                    "duration": 0.09375
                },
                {
                    "name": "A4",
                    "midi": 69,
                    "time": 115.53125000000011,
                    "velocity": 0.7874015748031497,
                    "duration": 0.09375
                },
                {
                    "name": "B4",
                    "midi": 71,
                    "time": 115.78125000000011,
                    "velocity": 0.7716535433070866,
                    "duration": 0.09375
                },
                {
                    "name": "D5",
                    "midi": 74,
                    "time": 116.03125000000011,
                    "velocity": 0.7559055118110236,
                    "duration": 0.09375
                },
                {
                    "name": "C#5",
                    "midi": 73,
                    "time": 116.28125000000011,
                    "velocity": 0.7401574803149606,
                    "duration": 0.09375
                },
                {
                    "name": "B4",
                    "midi": 71,
                    "time": 116.53125000000011,
                    "velocity": 0.7244094488188977,
                    "duration": 0.09375
                },
                {
                    "name": "A4",
                    "midi": 69,
                    "time": 116.90625000000011,
                    "velocity": 0.7086614173228346,
                    "duration": 0.1354166666666714
                },
                {
                    "name": "G#4",
                    "midi": 68,
                    "time": 117.03125000000011,
                    "velocity": 0.7086614173228346,
                    "duration": 0.1354166666666714
                },
                {
                    "name": "A4",
                    "midi": 69,
                    "time": 117.15625000000011,
                    "velocity": 0.7086614173228346,
                    "duration": 0.09375
                },
                {
                    "name": "A4",
                    "midi": 69,
                    "time": 117.40625000000011,
                    "velocity": 0.8582677165354331,
                    "duration": 0.09375
                },
                {
                    "name": "A4",
                    "midi": 69,
                    "time": 117.65625000000011,
                    "velocity": 0.84251968503937,
                    "duration": 0.09375
                },
                {
                    "name": "A4",
                    "midi": 69,
                    "time": 117.90625000000011,
                    "velocity": 0.8188976377952756,
                    "duration": 0.09375
                },
                {
                    "name": "A4",
                    "midi": 69,
                    "time": 118.15625000000011,
                    "velocity": 0.8031496062992126,
                    "duration": 0.09375
                },
                {
                    "name": "E4",
                    "midi": 64,
                    "time": 119.15625000000011,
                    "velocity": 0.84251968503937,
                    "duration": 0.09375
                },
                {
                    "name": "F4",
                    "midi": 65,
                    "time": 119.40625000000011,
                    "velocity": 0.8188976377952756,
                    "duration": 0.09375
                },
                {
                    "name": "F#4",
                    "midi": 66,
                    "time": 119.65625000000011,
                    "velocity": 0.8031496062992126,
                    "duration": 0.09375
                },
                {
                    "name": "G4",
                    "midi": 67,
                    "time": 119.90625000000011,
                    "velocity": 0.7874015748031497,
                    "duration": 0.1354166666666714
                },
                {
                    "name": "F#4",
                    "midi": 66,
                    "time": 120.03125000000011,
                    "velocity": 0.7874015748031497,
                    "duration": 0.1354166666666714
                },
                {
                    "name": "G4",
                    "midi": 67,
                    "time": 120.15625000000011,
                    "velocity": 0.7874015748031497,
                    "duration": 0.09375
                },
                {
                    "name": "G4",
                    "midi": 67,
                    "time": 120.40625000000011,
                    "velocity": 0.8582677165354331,
                    "duration": 0.09375
                },
                {
                    "name": "G4",
                    "midi": 67,
                    "time": 120.65625000000011,
                    "velocity": 0.84251968503937,
                    "duration": 0.09375
                },
                {
                    "name": "G4",
                    "midi": 67,
                    "time": 120.90625000000011,
                    "velocity": 0.8188976377952756,
                    "duration": 0.09375
                },
                {
                    "name": "G4",
                    "midi": 67,
                    "time": 121.15625000000011,
                    "velocity": 0.8031496062992126,
                    "duration": 0.09375
                },
                {
                    "name": "D#4",
                    "midi": 63,
                    "time": 122.40625000000011,
                    "velocity": 0.8188976377952756,
                    "duration": 0.09375
                },
                {
                    "name": "E4",
                    "midi": 64,
                    "time": 122.65625000000011,
                    "velocity": 0.8031496062992126,
                    "duration": 0.09375
                },
                {
                    "name": "F4",
                    "midi": 65,
                    "time": 122.90625000000011,
                    "velocity": 0.7874015748031497,
                    "duration": 0.1354166666666714
                },
                {
                    "name": "E4",
                    "midi": 64,
                    "time": 123.03125000000011,
                    "velocity": 0.7874015748031497,
                    "duration": 0.1354166666666714
                },
                {
                    "name": "F4",
                    "midi": 65,
                    "time": 123.15625000000011,
                    "velocity": 0.7874015748031497,
                    "duration": 0.09375
                },
                {
                    "name": "F4",
                    "midi": 65,
                    "time": 123.40625000000011,
                    "velocity": 0.8582677165354331,
                    "duration": 0.09375
                },
                {
                    "name": "F4",
                    "midi": 65,
                    "time": 123.65625000000011,
                    "velocity": 0.84251968503937,
                    "duration": 0.09375
                },
                {
                    "name": "F4",
                    "midi": 65,
                    "time": 123.90625000000011,
                    "velocity": 0.8188976377952756,
                    "duration": 0.09375
                },
                {
                    "name": "F4",
                    "midi": 65,
                    "time": 124.15625000000011,
                    "velocity": 0.8031496062992126,
                    "duration": 0.09375
                },
                {
                    "name": "F4",
                    "midi": 65,
                    "time": 124.40625000000011,
                    "velocity": 0.7874015748031497,
                    "duration": 0.09375
                },
                {
                    "name": "F4",
                    "midi": 65,
                    "time": 124.65625000000011,
                    "velocity": 0.7795275590551181,
                    "duration": 0.09375
                },
                {
                    "name": "F4",
                    "midi": 65,
                    "time": 124.90625000000011,
                    "velocity": 0.7637795275590551,
                    "duration": 0.09375
                },
                {
                    "name": "F4",
                    "midi": 65,
                    "time": 125.15625000000011,
                    "velocity": 0.7559055118110236,
                    "duration": 0.09375
                },
                {
                    "name": "F4",
                    "midi": 65,
                    "time": 125.40625000000011,
                    "velocity": 0.7480314960629921,
                    "duration": 0.09375
                },
                {
                    "name": "F4",
                    "midi": 65,
                    "time": 125.65625000000011,
                    "velocity": 0.7401574803149606,
                    "duration": 0.09375
                },
                {
                    "name": "F4",
                    "midi": 65,
                    "time": 125.90625000000011,
                    "velocity": 0.7244094488188977,
                    "duration": 0.1354166666666714
                },
                {
                    "name": "E4",
                    "midi": 64,
                    "time": 126.03125000000011,
                    "velocity": 0.7244094488188977,
                    "duration": 0.1354166666666714
                },
                {
                    "name": "F4",
                    "midi": 65,
                    "time": 126.15625000000011,
                    "velocity": 0.7165354330708661,
                    "duration": 0.09375
                },
                {
                    "name": "F4",
                    "midi": 65,
                    "time": 126.40625000000011,
                    "velocity": 0.7086614173228346,
                    "duration": 0.09375
                },
                {
                    "name": "F4",
                    "midi": 65,
                    "time": 126.65625000000011,
                    "velocity": 0.7007874015748031,
                    "duration": 0.09375
                },
                {
                    "name": "F4",
                    "midi": 65,
                    "time": 126.90625000000011,
                    "velocity": 0.6850393700787402,
                    "duration": 0.09375
                },
                {
                    "name": "F4",
                    "midi": 65,
                    "time": 127.15625000000011,
                    "velocity": 0.6771653543307087,
                    "duration": 0.09375
                },
                {
                    "name": "F4",
                    "midi": 65,
                    "time": 127.40625000000011,
                    "velocity": 0.6692913385826772,
                    "duration": 0.09375
                },
                {
                    "name": "F4",
                    "midi": 65,
                    "time": 127.65625000000011,
                    "velocity": 0.6535433070866141,
                    "duration": 0.09375
                },
                {
                    "name": "F4",
                    "midi": 65,
                    "time": 127.90625000000011,
                    "velocity": 0.6377952755905512,
                    "duration": 0.09375
                },
                {
                    "name": "F4",
                    "midi": 65,
                    "time": 128.1562500000001,
                    "velocity": 0.6299212598425197,
                    "duration": 0.09375
                },
                {
                    "name": "F4",
                    "midi": 65,
                    "time": 128.4062500000001,
                    "velocity": 0.6141732283464567,
                    "duration": 0.09375
                },
                {
                    "name": "E4",
                    "midi": 64,
                    "time": 128.6562500000001,
                    "velocity": 0.5984251968503937,
                    "duration": 0.09375
                },
                {
                    "name": "E4",
                    "midi": 64,
                    "time": 128.9062500000001,
                    "velocity": 0.5905511811023622,
                    "duration": 0.09375
                },
                {
                    "name": "F4",
                    "midi": 65,
                    "time": 129.1562500000001,
                    "velocity": 0.6062992125984252,
                    "duration": 0.09375
                },
                {
                    "name": "F#4",
                    "midi": 66,
                    "time": 129.4062500000001,
                    "velocity": 0.6220472440944882,
                    "duration": 0.09375
                },
                {
                    "name": "G4",
                    "midi": 67,
                    "time": 129.6562500000001,
                    "velocity": 0.6299212598425197,
                    "duration": 0.09375
                },
                {
                    "name": "G#4",
                    "midi": 68,
                    "time": 129.9062500000001,
                    "velocity": 0.6456692913385826,
                    "duration": 0.09374999999997158
                },
                {
                    "name": "F#4",
                    "midi": 66,
                    "time": 130.03125000000006,
                    "velocity": 0.6535433070866141,
                    "duration": 0.09375
                },
                {
                    "name": "G4",
                    "midi": 67,
                    "time": 130.28125000000006,
                    "velocity": 0.6614173228346457,
                    "duration": 0.09375
                },
                {
                    "name": "G#4",
                    "midi": 68,
                    "time": 130.53125000000006,
                    "velocity": 0.6771653543307087,
                    "duration": 0.09375
                },
                {
                    "name": "A4",
                    "midi": 69,
                    "time": 130.78125000000006,
                    "velocity": 0.6929133858267716,
                    "duration": 0.09375
                },
                {
                    "name": "A#4",
                    "midi": 70,
                    "time": 131.03125000000006,
                    "velocity": 0.7086614173228346,
                    "duration": 0.09375
                },
                {
                    "name": "B4",
                    "midi": 71,
                    "time": 131.28125000000006,
                    "velocity": 0.7165354330708661,
                    "duration": 0.09375
                },
                {
                    "name": "C5",
                    "midi": 72,
                    "time": 131.53125000000006,
                    "velocity": 0.7322834645669292,
                    "duration": 0.09375
                },
                {
                    "name": "B4",
                    "midi": 71,
                    "time": 138.40625000000006,
                    "velocity": 0.7874015748031497,
                    "duration": 0.09375
                },
                {
                    "name": "G#4",
                    "midi": 68,
                    "time": 138.53125000000006,
                    "velocity": 0.7716535433070866,
                    "duration": 0.09375
                },
                {
                    "name": "B4",
                    "midi": 71,
                    "time": 138.90625000000006,
                    "velocity": 0.7874015748031497,
                    "duration": 0.09375
                },
                {
                    "name": "G4",
                    "midi": 67,
                    "time": 139.03125000000006,
                    "velocity": 0.7716535433070866,
                    "duration": 0.09375
                },
                {
                    "name": "F#4",
                    "midi": 66,
                    "time": 139.28125000000006,
                    "velocity": 0.7480314960629921,
                    "duration": 0.09375
                },
                {
                    "name": "E4",
                    "midi": 64,
                    "time": 139.78125000000006,
                    "velocity": 0.7952755905511811,
                    "duration": 0.09375
                },
                {
                    "name": "E4",
                    "midi": 64,
                    "time": 141.78125000000006,
                    "velocity": 0.8031496062992126,
                    "duration": 0.09375
                },
                {
                    "name": "F4",
                    "midi": 65,
                    "time": 142.03125000000006,
                    "velocity": 0.7795275590551181,
                    "duration": 0.09375
                },
                {
                    "name": "A#4",
                    "midi": 70,
                    "time": 142.90625000000006,
                    "velocity": 0.7559055118110236,
                    "duration": 0.09375
                },
                {
                    "name": "B4",
                    "midi": 71,
                    "time": 143.15625000000006,
                    "velocity": 0.7716535433070866,
                    "duration": 0.09375
                },
                {
                    "name": "B4",
                    "midi": 71,
                    "time": 144.65625000000006,
                    "velocity": 0.7874015748031497,
                    "duration": 0.09375
                },
                {
                    "name": "B4",
                    "midi": 71,
                    "time": 144.90625000000006,
                    "velocity": 0.8818897637795275,
                    "duration": 0.09375
                },
                {
                    "name": "B4",
                    "midi": 71,
                    "time": 145.15625000000006,
                    "velocity": 0.8976377952755905,
                    "duration": 0.09375
                },
                {
                    "name": "A#4",
                    "midi": 70,
                    "time": 145.28125000000006,
                    "velocity": 0.905511811023622,
                    "duration": 0.09375
                },
                {
                    "name": "G4",
                    "midi": 67,
                    "time": 161.15625000000006,
                    "velocity": 0.8661417322834646,
                    "duration": 0.09375
                },
                {
                    "name": "B4",
                    "midi": 71,
                    "time": 168.53125000000006,
                    "velocity": 0.8110236220472441,
                    "duration": 0.09375
                },
                {
                    "name": "B4",
                    "midi": 71,
                    "time": 169.40625000000006,
                    "velocity": 0.8661417322834646,
                    "duration": 0.09375
                },
                {
                    "name": "C#5",
                    "midi": 73,
                    "time": 169.53125000000006,
                    "velocity": 0.8661417322834646,
                    "duration": 0.09375
                },
                {
                    "name": "D5",
                    "midi": 74,
                    "time": 169.65625000000006,
                    "velocity": 0.8582677165354331,
                    "duration": 0.09375
                },
                {
                    "name": "C#5",
                    "midi": 73,
                    "time": 169.90625000000006,
                    "velocity": 0.84251968503937,
                    "duration": 0.09375
                },
                {
                    "name": "C5",
                    "midi": 72,
                    "time": 170.15625000000006,
                    "velocity": 0.8267716535433071,
                    "duration": 0.09375
                },
                {
                    "name": "B4",
                    "midi": 71,
                    "time": 170.40625000000006,
                    "velocity": 0.8188976377952756,
                    "duration": 0.09375
                },
                {
                    "name": "A#4",
                    "midi": 70,
                    "time": 170.65625000000006,
                    "velocity": 0.8031496062992126,
                    "duration": 0.09375
                },
                {
                    "name": "A4",
                    "midi": 69,
                    "time": 170.90625000000006,
                    "velocity": 0.7874015748031497,
                    "duration": 0.09375
                },
                {
                    "name": "G#4",
                    "midi": 68,
                    "time": 171.15625000000006,
                    "velocity": 0.7795275590551181,
                    "duration": 0.09375
                },
                {
                    "name": "G4",
                    "midi": 67,
                    "time": 171.40625000000006,
                    "velocity": 0.7637795275590551,
                    "duration": 0.09375
                },
                {
                    "name": "F#4",
                    "midi": 66,
                    "time": 171.65625000000006,
                    "velocity": 0.7559055118110236,
                    "duration": 0.09375
                },
                {
                    "name": "F4",
                    "midi": 65,
                    "time": 171.90625000000006,
                    "velocity": 0.7401574803149606,
                    "duration": 0.09375
                },
                {
                    "name": "E4",
                    "midi": 64,
                    "time": 172.15625000000006,
                    "velocity": 0.7244094488188977,
                    "duration": 0.09375
                },
                {
                    "name": "B4",
                    "midi": 71,
                    "time": 174.03125000000006,
                    "velocity": 0.7165354330708661,
                    "duration": 0.1354166666666572
                },
                {
                    "name": "A#4",
                    "midi": 70,
                    "time": 174.15625000000006,
                    "velocity": 0.7322834645669292,
                    "duration": 0.1354166666666572
                },
                {
                    "name": "B4",
                    "midi": 71,
                    "time": 174.28125000000006,
                    "velocity": 0.7480314960629921,
                    "duration": 0.09375
                },
                {
                    "name": "F#4",
                    "midi": 66,
                    "time": 174.40625000000006,
                    "velocity": 0.7637795275590551,
                    "duration": 0.09375
                },
                {
                    "name": "B4",
                    "midi": 71,
                    "time": 174.65625000000006,
                    "velocity": 0.7952755905511811,
                    "duration": 0.09375
                },
                {
                    "name": "B4",
                    "midi": 71,
                    "time": 176.15625000000006,
                    "velocity": 0.8740157480314961,
                    "duration": 0.09375
                },
                {
                    "name": "F#4",
                    "midi": 66,
                    "time": 176.65625000000006,
                    "velocity": 0.84251968503937,
                    "duration": 0.09375
                },
                {
                    "name": "F#4",
                    "midi": 66,
                    "time": 178.03125000000006,
                    "velocity": 0.905511811023622,
                    "duration": 0.09375
                },
                {
                    "name": "F#4",
                    "midi": 66,
                    "time": 178.53125000000006,
                    "velocity": 0.9448818897637795,
                    "duration": 0.26041666666662877
                }
            ],
            "controlChanges": {
                "1": [
                    {
                        "number": 1,
                        "time": 22.625,
                        "value": 0
                    },
                    {
                        "number": 1,
                        "time": 22.635416666666668,
                        "value": 0.007874015748031496
                    },
                    {
                        "number": 1,
                        "time": 22.645833333333336,
                        "value": 0.015748031496062992
                    },
                    {
                        "number": 1,
                        "time": 22.656250000000004,
                        "value": 0.023622047244094488
                    },
                    {
                        "number": 1,
                        "time": 22.66666666666667,
                        "value": 0.031496062992125984
                    },
                    {
                        "number": 1,
                        "time": 22.687500000000007,
                        "value": 0.03937007874015748
                    },
                    {
                        "number": 1,
                        "time": 22.708333333333343,
                        "value": 0.047244094488188976
                    },
                    {
                        "number": 1,
                        "time": 22.71875000000001,
                        "value": 0.05511811023622047
                    },
                    {
                        "number": 1,
                        "time": 22.739583333333346,
                        "value": 0.06299212598425197
                    },
                    {
                        "number": 1,
                        "time": 22.760416666666682,
                        "value": 0.07086614173228346
                    },
                    {
                        "number": 1,
                        "time": 22.791666666666682,
                        "value": 0.07874015748031496
                    },
                    {
                        "number": 1,
                        "time": 22.812500000000018,
                        "value": 0.08661417322834646
                    },
                    {
                        "number": 1,
                        "time": 22.843750000000018,
                        "value": 0.09448818897637795
                    },
                    {
                        "number": 1,
                        "time": 22.875000000000018,
                        "value": 0.10236220472440945
                    },
                    {
                        "number": 1,
                        "time": 22.906250000000018,
                        "value": 0.11023622047244094
                    },
                    {
                        "number": 1,
                        "time": 22.947916666666686,
                        "value": 0.11811023622047244
                    },
                    {
                        "number": 1,
                        "time": 23.000000000000018,
                        "value": 0.12598425196850394
                    },
                    {
                        "number": 1,
                        "time": 23.05208333333335,
                        "value": 0.13385826771653545
                    },
                    {
                        "number": 1,
                        "time": 23.135416666666682,
                        "value": 0.14173228346456693
                    },
                    {
                        "number": 1,
                        "time": 23.239583333333346,
                        "value": 0.14960629921259844
                    },
                    {
                        "number": 1,
                        "time": 23.427083333333353,
                        "value": 0
                    },
                    {
                        "number": 1,
                        "time": 74.22916666666669,
                        "value": 0
                    },
                    {
                        "number": 1,
                        "time": 74.23958333333336,
                        "value": 0.007874015748031496
                    },
                    {
                        "number": 1,
                        "time": 74.25000000000003,
                        "value": 0.015748031496062992
                    },
                    {
                        "number": 1,
                        "time": 74.2604166666667,
                        "value": 0.023622047244094488
                    },
                    {
                        "number": 1,
                        "time": 74.27083333333337,
                        "value": 0.031496062992125984
                    },
                    {
                        "number": 1,
                        "time": 74.29166666666671,
                        "value": 0.03937007874015748
                    },
                    {
                        "number": 1,
                        "time": 74.31250000000006,
                        "value": 0.047244094488188976
                    },
                    {
                        "number": 1,
                        "time": 74.32291666666673,
                        "value": 0.05511811023622047
                    },
                    {
                        "number": 1,
                        "time": 74.34375000000007,
                        "value": 0.06299212598425197
                    },
                    {
                        "number": 1,
                        "time": 74.36458333333341,
                        "value": 0.07086614173228346
                    },
                    {
                        "number": 1,
                        "time": 74.39583333333341,
                        "value": 0.07874015748031496
                    },
                    {
                        "number": 1,
                        "time": 74.41666666666676,
                        "value": 0.08661417322834646
                    },
                    {
                        "number": 1,
                        "time": 74.44791666666676,
                        "value": 0.09448818897637795
                    },
                    {
                        "number": 1,
                        "time": 74.47916666666676,
                        "value": 0.10236220472440945
                    },
                    {
                        "number": 1,
                        "time": 74.51041666666676,
                        "value": 0.11023622047244094
                    },
                    {
                        "number": 1,
                        "time": 74.55208333333343,
                        "value": 0.11811023622047244
                    },
                    {
                        "number": 1,
                        "time": 74.60416666666676,
                        "value": 0.12598425196850394
                    },
                    {
                        "number": 1,
                        "time": 74.65625000000009,
                        "value": 0.13385826771653545
                    },
                    {
                        "number": 1,
                        "time": 74.73958333333341,
                        "value": 0.14173228346456693
                    },
                    {
                        "number": 1,
                        "time": 74.84375000000007,
                        "value": 0.14960629921259844
                    },
                    {
                        "number": 1,
                        "time": 75.0312500000001,
                        "value": 0
                    },
                    {
                        "number": 1,
                        "time": 178.53125000000006,
                        "value": 0
                    },
                    {
                        "number": 1,
                        "time": 178.6979166666667,
                        "value": 0.007874015748031496
                    },
                    {
                        "number": 1,
                        "time": 178.70833333333337,
                        "value": 0.015748031496062992
                    },
                    {
                        "number": 1,
                        "time": 178.71875000000003,
                        "value": 0.023622047244094488
                    },
                    {
                        "number": 1,
                        "time": 178.72916666666669,
                        "value": 0.031496062992125984
                    },
                    {
                        "number": 1,
                        "time": 178.75000000000003,
                        "value": 0.03937007874015748
                    },
                    {
                        "number": 1,
                        "time": 178.76041666666669,
                        "value": 0.047244094488188976
                    },
                    {
                        "number": 1,
                        "time": 178.78125000000003,
                        "value": 0.05511811023622047
                    },
                    {
                        "number": 1,
                        "time": 178.79166666666669,
                        "value": 0.06299212598425197
                    },
                    {
                        "number": 1,
                        "time": 178.81250000000003,
                        "value": 0.07086614173228346
                    },
                    {
                        "number": 1,
                        "time": 178.83333333333337,
                        "value": 0.07874015748031496
                    },
                    {
                        "number": 1,
                        "time": 178.86458333333337,
                        "value": 0.08661417322834646
                    },
                    {
                        "number": 1,
                        "time": 178.8854166666667,
                        "value": 0.09448818897637795
                    },
                    {
                        "number": 1,
                        "time": 178.9166666666667,
                        "value": 0.10236220472440945
                    },
                    {
                        "number": 1,
                        "time": 178.9479166666667,
                        "value": 0.11023622047244094
                    },
                    {
                        "number": 1,
                        "time": 178.9791666666667,
                        "value": 0.11811023622047244
                    },
                    {
                        "number": 1,
                        "time": 179.03125000000006,
                        "value": 0.12598425196850394
                    },
                    {
                        "number": 1,
                        "time": 179.0729166666667,
                        "value": 0.13385826771653545
                    },
                    {
                        "number": 1,
                        "time": 179.14583333333337,
                        "value": 0.14173228346456693
                    },
                    {
                        "number": 1,
                        "time": 179.23958333333337,
                        "value": 0.14960629921259844
                    },
                    {
                        "number": 1,
                        "time": 179.40625000000003,
                        "value": 0.15748031496062992
                    }
                ],
                "6": [
                    {
                        "number": 6,
                        "time": 0.45833333333333337,
                        "value": 0.09448818897637795
                    },
                    {
                        "number": 6,
                        "time": 0.4895833333333334,
                        "value": 0.4251968503937008
                    },
                    {
                        "number": 6,
                        "time": 178.53125000000006,
                        "value": 0.5826771653543307
                    }
                ],
                "7": [
                    {
                        "number": 7,
                        "time": 0,
                        "value": 0.9448818897637795
                    }
                ],
                "11": [
                    {
                        "number": 11,
                        "time": 0.5312500000000001,
                        "value": 0.9448818897637795
                    },
                    {
                        "number": 11,
                        "time": 22.625,
                        "value": 0.7086614173228346
                    },
                    {
                        "number": 11,
                        "time": 22.635416666666668,
                        "value": 0.7322834645669292
                    },
                    {
                        "number": 11,
                        "time": 22.645833333333336,
                        "value": 0.7480314960629921
                    },
                    {
                        "number": 11,
                        "time": 22.656250000000004,
                        "value": 0.7637795275590551
                    },
                    {
                        "number": 11,
                        "time": 22.66666666666667,
                        "value": 0.7795275590551181
                    },
                    {
                        "number": 11,
                        "time": 22.67708333333334,
                        "value": 0.7952755905511811
                    },
                    {
                        "number": 11,
                        "time": 22.687500000000007,
                        "value": 0.8031496062992126
                    },
                    {
                        "number": 11,
                        "time": 22.697916666666675,
                        "value": 0.8188976377952756
                    },
                    {
                        "number": 11,
                        "time": 22.708333333333343,
                        "value": 0.8267716535433071
                    },
                    {
                        "number": 11,
                        "time": 22.71875000000001,
                        "value": 0.8346456692913385
                    },
                    {
                        "number": 11,
                        "time": 22.72916666666668,
                        "value": 0.84251968503937
                    },
                    {
                        "number": 11,
                        "time": 22.739583333333346,
                        "value": 0.8503937007874016
                    },
                    {
                        "number": 11,
                        "time": 22.750000000000014,
                        "value": 0.8582677165354331
                    },
                    {
                        "number": 11,
                        "time": 22.760416666666682,
                        "value": 0.8661417322834646
                    },
                    {
                        "number": 11,
                        "time": 22.77083333333335,
                        "value": 0.8740157480314961
                    },
                    {
                        "number": 11,
                        "time": 22.791666666666682,
                        "value": 0.8818897637795275
                    },
                    {
                        "number": 11,
                        "time": 22.80208333333335,
                        "value": 0.889763779527559
                    },
                    {
                        "number": 11,
                        "time": 22.822916666666686,
                        "value": 0.8976377952755905
                    },
                    {
                        "number": 11,
                        "time": 22.843750000000018,
                        "value": 0.905511811023622
                    },
                    {
                        "number": 11,
                        "time": 22.86458333333335,
                        "value": 0.9133858267716536
                    },
                    {
                        "number": 11,
                        "time": 22.89583333333335,
                        "value": 0.9212598425196851
                    },
                    {
                        "number": 11,
                        "time": 22.937500000000018,
                        "value": 0.9291338582677166
                    },
                    {
                        "number": 11,
                        "time": 22.979166666666686,
                        "value": 0.937007874015748
                    },
                    {
                        "number": 11,
                        "time": 23.072916666666682,
                        "value": 0.9448818897637795
                    },
                    {
                        "number": 11,
                        "time": 23.218750000000014,
                        "value": 0.937007874015748
                    },
                    {
                        "number": 11,
                        "time": 23.250000000000014,
                        "value": 0.9291338582677166
                    },
                    {
                        "number": 11,
                        "time": 23.270833333333346,
                        "value": 0.9212598425196851
                    },
                    {
                        "number": 11,
                        "time": 23.29166666666668,
                        "value": 0.905511811023622
                    },
                    {
                        "number": 11,
                        "time": 23.302083333333346,
                        "value": 0.8976377952755905
                    },
                    {
                        "number": 11,
                        "time": 23.312500000000014,
                        "value": 0.889763779527559
                    },
                    {
                        "number": 11,
                        "time": 23.322916666666682,
                        "value": 0.8818897637795275
                    },
                    {
                        "number": 11,
                        "time": 23.33333333333335,
                        "value": 0.8661417322834646
                    },
                    {
                        "number": 11,
                        "time": 23.343750000000018,
                        "value": 0.84251968503937
                    },
                    {
                        "number": 11,
                        "time": 23.354166666666686,
                        "value": 0.8188976377952756
                    },
                    {
                        "number": 11,
                        "time": 23.364583333333353,
                        "value": 0.7874015748031497
                    },
                    {
                        "number": 11,
                        "time": 24.34375000000002,
                        "value": 0.9448818897637795
                    },
                    {
                        "number": 11,
                        "time": 74.22916666666669,
                        "value": 0.7086614173228346
                    },
                    {
                        "number": 11,
                        "time": 74.23958333333336,
                        "value": 0.7322834645669292
                    },
                    {
                        "number": 11,
                        "time": 74.25000000000003,
                        "value": 0.7480314960629921
                    },
                    {
                        "number": 11,
                        "time": 74.2604166666667,
                        "value": 0.7637795275590551
                    },
                    {
                        "number": 11,
                        "time": 74.27083333333337,
                        "value": 0.7795275590551181
                    },
                    {
                        "number": 11,
                        "time": 74.28125000000004,
                        "value": 0.7952755905511811
                    },
                    {
                        "number": 11,
                        "time": 74.29166666666671,
                        "value": 0.8031496062992126
                    },
                    {
                        "number": 11,
                        "time": 74.30208333333339,
                        "value": 0.8188976377952756
                    },
                    {
                        "number": 11,
                        "time": 74.31250000000006,
                        "value": 0.8267716535433071
                    },
                    {
                        "number": 11,
                        "time": 74.32291666666673,
                        "value": 0.8346456692913385
                    },
                    {
                        "number": 11,
                        "time": 74.3333333333334,
                        "value": 0.84251968503937
                    },
                    {
                        "number": 11,
                        "time": 74.34375000000007,
                        "value": 0.8503937007874016
                    },
                    {
                        "number": 11,
                        "time": 74.35416666666674,
                        "value": 0.8582677165354331
                    },
                    {
                        "number": 11,
                        "time": 74.36458333333341,
                        "value": 0.8661417322834646
                    },
                    {
                        "number": 11,
                        "time": 74.37500000000009,
                        "value": 0.8740157480314961
                    },
                    {
                        "number": 11,
                        "time": 74.39583333333341,
                        "value": 0.8818897637795275
                    },
                    {
                        "number": 11,
                        "time": 74.40625000000009,
                        "value": 0.889763779527559
                    },
                    {
                        "number": 11,
                        "time": 74.42708333333343,
                        "value": 0.8976377952755905
                    },
                    {
                        "number": 11,
                        "time": 74.44791666666676,
                        "value": 0.905511811023622
                    },
                    {
                        "number": 11,
                        "time": 74.46875000000009,
                        "value": 0.9133858267716536
                    },
                    {
                        "number": 11,
                        "time": 74.50000000000009,
                        "value": 0.9212598425196851
                    },
                    {
                        "number": 11,
                        "time": 74.54166666666676,
                        "value": 0.9291338582677166
                    },
                    {
                        "number": 11,
                        "time": 74.58333333333343,
                        "value": 0.937007874015748
                    },
                    {
                        "number": 11,
                        "time": 74.67708333333341,
                        "value": 0.9448818897637795
                    },
                    {
                        "number": 11,
                        "time": 74.82291666666674,
                        "value": 0.937007874015748
                    },
                    {
                        "number": 11,
                        "time": 74.85416666666674,
                        "value": 0.9291338582677166
                    },
                    {
                        "number": 11,
                        "time": 74.87500000000007,
                        "value": 0.9212598425196851
                    },
                    {
                        "number": 11,
                        "time": 74.8958333333334,
                        "value": 0.905511811023622
                    },
                    {
                        "number": 11,
                        "time": 74.90625000000007,
                        "value": 0.8976377952755905
                    },
                    {
                        "number": 11,
                        "time": 74.91666666666674,
                        "value": 0.889763779527559
                    },
                    {
                        "number": 11,
                        "time": 74.92708333333341,
                        "value": 0.8818897637795275
                    },
                    {
                        "number": 11,
                        "time": 74.93750000000009,
                        "value": 0.8661417322834646
                    },
                    {
                        "number": 11,
                        "time": 74.94791666666676,
                        "value": 0.84251968503937
                    },
                    {
                        "number": 11,
                        "time": 74.95833333333343,
                        "value": 0.8188976377952756
                    },
                    {
                        "number": 11,
                        "time": 74.9687500000001,
                        "value": 0.7874015748031497
                    },
                    {
                        "number": 11,
                        "time": 75.94791666666677,
                        "value": 0.9448818897637795
                    }
                ],
                "32": [
                    {
                        "number": 32,
                        "time": 0.4166666666666667,
                        "value": 0.007874015748031496
                    }
                ],
                "91": [
                    {
                        "number": 91,
                        "time": 0.5000000000000001,
                        "value": 0.31496062992125984
                    }
                ],
                "93": [
                    {
                        "number": 93,
                        "time": 0.5104166666666667,
                        "value": 0.11811023622047244
                    }
                ],
                "98": [
                    {
                        "number": 98,
                        "time": 0.47916666666666674,
                        "value": 0.25196850393700787
                    },
                    {
                        "number": 98,
                        "time": 178.53125000000006,
                        "value": 0.8031496062992126
                    }
                ],
                "99": [
                    {
                        "number": 99,
                        "time": 0.46875000000000006,
                        "value": 0.007874015748031496
                    },
                    {
                        "number": 99,
                        "time": 178.53125000000006,
                        "value": 0.007874015748031496
                    }
                ],
                "100": [
                    {
                        "number": 100,
                        "time": 0.4479166666666667,
                        "value": 0
                    }
                ],
                "101": [
                    {
                        "number": 101,
                        "time": 0.4375,
                        "value": 0
                    }
                ]
            },
            "id": 3,
            "name": "D",
            "instrumentNumber": 40,
            "instrument": "violin",
            "instrumentFamily": "strings",
            "channelNumber": 2,
            "isPercussion": false
        },
        {
            "startTime": 8.625,
            "duration": 178.78124999999994,
            "length": 177,
            "notes": [
                {
                    "name": "C#4",
                    "midi": 61,
                    "time": 8.625,
                    "velocity": 0.7874015748031497,
                    "duration": 0.09375
                },
                {
                    "name": "B3",
                    "midi": 59,
                    "time": 8.875,
                    "velocity": 0.7716535433070866,
                    "duration": 0.09375
                },
                {
                    "name": "C#4",
                    "midi": 61,
                    "time": 27.4375,
                    "velocity": 0.9448818897637795,
                    "duration": 0.1354166666666714
                },
                {
                    "name": "C#4",
                    "midi": 61,
                    "time": 32.97916666666667,
                    "velocity": 0.9448818897637795,
                    "duration": 0.09375
                },
                {
                    "name": "B3",
                    "midi": 59,
                    "time": 34.47916666666667,
                    "velocity": 0.9448818897637795,
                    "duration": 0.09375
                },
                {
                    "name": "C#4",
                    "midi": 61,
                    "time": 35.72916666666667,
                    "velocity": 0.905511811023622,
                    "duration": 0.09375
                },
                {
                    "name": "A3",
                    "midi": 57,
                    "time": 35.97916666666667,
                    "velocity": 0.9448818897637795,
                    "duration": 0.09375
                },
                {
                    "name": "A3",
                    "midi": 57,
                    "time": 38.22916666666667,
                    "velocity": 0.8267716535433071,
                    "duration": 0.09375
                },
                {
                    "name": "B3",
                    "midi": 59,
                    "time": 38.47916666666667,
                    "velocity": 0.8267716535433071,
                    "duration": 0.09375
                },
                {
                    "name": "C#4",
                    "midi": 61,
                    "time": 38.72916666666667,
                    "velocity": 0.8267716535433071,
                    "duration": 0.09375
                },
                {
                    "name": "D4",
                    "midi": 62,
                    "time": 38.97916666666667,
                    "velocity": 0.8267716535433071,
                    "duration": 0.09375
                },
                {
                    "name": "E4",
                    "midi": 64,
                    "time": 39.22916666666667,
                    "velocity": 0.8267716535433071,
                    "duration": 0.09375
                },
                {
                    "name": "D4",
                    "midi": 62,
                    "time": 39.47916666666667,
                    "velocity": 0.8267716535433071,
                    "duration": 0.09375
                },
                {
                    "name": "A3",
                    "midi": 57,
                    "time": 41.22916666666667,
                    "velocity": 0.7480314960629921,
                    "duration": 0.09375
                },
                {
                    "name": "B3",
                    "midi": 59,
                    "time": 41.47916666666667,
                    "velocity": 0.7480314960629921,
                    "duration": 0.09375
                },
                {
                    "name": "C#4",
                    "midi": 61,
                    "time": 41.72916666666667,
                    "velocity": 0.7480314960629921,
                    "duration": 0.09375
                },
                {
                    "name": "D4",
                    "midi": 62,
                    "time": 41.97916666666667,
                    "velocity": 0.7480314960629921,
                    "duration": 0.09375
                },
                {
                    "name": "E4",
                    "midi": 64,
                    "time": 42.22916666666667,
                    "velocity": 0.7480314960629921,
                    "duration": 0.09375
                },
                {
                    "name": "D4",
                    "midi": 62,
                    "time": 42.47916666666667,
                    "velocity": 0.8267716535433071,
                    "duration": 0.09375
                },
                {
                    "name": "B4",
                    "midi": 71,
                    "time": 44.47916666666667,
                    "velocity": 0.7165354330708661,
                    "duration": 0.0729166666666643
                },
                {
                    "name": "G4",
                    "midi": 67,
                    "time": 44.72916666666667,
                    "velocity": 0.7165354330708661,
                    "duration": 0.0729166666666643
                },
                {
                    "name": "B4",
                    "midi": 71,
                    "time": 44.97916666666667,
                    "velocity": 0.7244094488188977,
                    "duration": 0.0729166666666643
                },
                {
                    "name": "G#4",
                    "midi": 68,
                    "time": 45.22916666666667,
                    "velocity": 0.7244094488188977,
                    "duration": 0.0729166666666643
                },
                {
                    "name": "A4",
                    "midi": 69,
                    "time": 45.47916666666667,
                    "velocity": 0.7322834645669292,
                    "duration": 0.0729166666666643
                },
                {
                    "name": "B4",
                    "midi": 71,
                    "time": 45.72916666666667,
                    "velocity": 0.7322834645669292,
                    "duration": 0.0729166666666643
                },
                {
                    "name": "C#5",
                    "midi": 73,
                    "time": 45.97916666666667,
                    "velocity": 0.7401574803149606,
                    "duration": 0.0729166666666643
                },
                {
                    "name": "D5",
                    "midi": 74,
                    "time": 46.22916666666667,
                    "velocity": 0.7480314960629921,
                    "duration": 0.0729166666666643
                },
                {
                    "name": "B4",
                    "midi": 71,
                    "time": 46.47916666666667,
                    "velocity": 0.7480314960629921,
                    "duration": 0.0729166666666643
                },
                {
                    "name": "G4",
                    "midi": 67,
                    "time": 46.72916666666667,
                    "velocity": 0.7559055118110236,
                    "duration": 0.0729166666666643
                },
                {
                    "name": "F#4",
                    "midi": 66,
                    "time": 46.97916666666667,
                    "velocity": 0.7874015748031497,
                    "duration": 0.0729166666666643
                },
                {
                    "name": "D4",
                    "midi": 62,
                    "time": 47.47916666666667,
                    "velocity": 0.7637795275590551,
                    "duration": 0.0729166666666643
                },
                {
                    "name": "E4",
                    "midi": 64,
                    "time": 47.72916666666667,
                    "velocity": 0.7716535433070866,
                    "duration": 0.0729166666666643
                },
                {
                    "name": "C#4",
                    "midi": 61,
                    "time": 48.22916666666667,
                    "velocity": 0.7795275590551181,
                    "duration": 0.0729166666666643
                },
                {
                    "name": "A3",
                    "midi": 57,
                    "time": 50.97916666666667,
                    "velocity": 0.905511811023622,
                    "duration": 0.09375
                },
                {
                    "name": "A3",
                    "midi": 57,
                    "time": 51.22916666666667,
                    "velocity": 0.889763779527559,
                    "duration": 0.09375
                },
                {
                    "name": "A3",
                    "midi": 57,
                    "time": 51.47916666666667,
                    "velocity": 0.8740157480314961,
                    "duration": 0.09375
                },
                {
                    "name": "C#4",
                    "midi": 61,
                    "time": 51.72916666666667,
                    "velocity": 0.9448818897637795,
                    "duration": 0.1354166666666643
                },
                {
                    "name": "D4",
                    "midi": 62,
                    "time": 51.85416666666667,
                    "velocity": 0.937007874015748,
                    "duration": 0.1354166666666643
                },
                {
                    "name": "C#4",
                    "midi": 61,
                    "time": 60.22916666666667,
                    "velocity": 0.7874015748031497,
                    "duration": 0.09375
                },
                {
                    "name": "B3",
                    "midi": 59,
                    "time": 60.47916666666667,
                    "velocity": 0.7716535433070866,
                    "duration": 0.09375
                },
                {
                    "name": "C#4",
                    "midi": 61,
                    "time": 79.04166666666667,
                    "velocity": 0.9448818897637795,
                    "duration": 0.13541666666668561
                },
                {
                    "name": "C#4",
                    "midi": 61,
                    "time": 84.58333333333336,
                    "velocity": 0.9448818897637795,
                    "duration": 0.09375
                },
                {
                    "name": "B3",
                    "midi": 59,
                    "time": 86.08333333333336,
                    "velocity": 0.9448818897637795,
                    "duration": 0.09375
                },
                {
                    "name": "C#4",
                    "midi": 61,
                    "time": 87.33333333333336,
                    "velocity": 0.905511811023622,
                    "duration": 0.09375
                },
                {
                    "name": "A3",
                    "midi": 57,
                    "time": 87.58333333333336,
                    "velocity": 0.9448818897637795,
                    "duration": 0.09375
                },
                {
                    "name": "A3",
                    "midi": 57,
                    "time": 89.83333333333336,
                    "velocity": 0.8267716535433071,
                    "duration": 0.09375
                },
                {
                    "name": "B3",
                    "midi": 59,
                    "time": 90.08333333333336,
                    "velocity": 0.8267716535433071,
                    "duration": 0.09375
                },
                {
                    "name": "C#4",
                    "midi": 61,
                    "time": 90.33333333333336,
                    "velocity": 0.8267716535433071,
                    "duration": 0.09375
                },
                {
                    "name": "D4",
                    "midi": 62,
                    "time": 90.58333333333336,
                    "velocity": 0.8267716535433071,
                    "duration": 0.09375
                },
                {
                    "name": "E4",
                    "midi": 64,
                    "time": 90.83333333333336,
                    "velocity": 0.8267716535433071,
                    "duration": 0.09375
                },
                {
                    "name": "D4",
                    "midi": 62,
                    "time": 91.08333333333336,
                    "velocity": 0.8267716535433071,
                    "duration": 0.09375
                },
                {
                    "name": "A3",
                    "midi": 57,
                    "time": 92.83333333333336,
                    "velocity": 0.7480314960629921,
                    "duration": 0.09375
                },
                {
                    "name": "B3",
                    "midi": 59,
                    "time": 93.08333333333336,
                    "velocity": 0.7480314960629921,
                    "duration": 0.09375
                },
                {
                    "name": "C#4",
                    "midi": 61,
                    "time": 93.33333333333336,
                    "velocity": 0.7480314960629921,
                    "duration": 0.09375
                },
                {
                    "name": "D4",
                    "midi": 62,
                    "time": 93.58333333333336,
                    "velocity": 0.7480314960629921,
                    "duration": 0.09375
                },
                {
                    "name": "E4",
                    "midi": 64,
                    "time": 93.83333333333336,
                    "velocity": 0.7480314960629921,
                    "duration": 0.09375
                },
                {
                    "name": "D4",
                    "midi": 62,
                    "time": 94.08333333333336,
                    "velocity": 0.8267716535433071,
                    "duration": 0.09375
                },
                {
                    "name": "B4",
                    "midi": 71,
                    "time": 96.08333333333336,
                    "velocity": 0.7165354330708661,
                    "duration": 0.0729166666666714
                },
                {
                    "name": "G4",
                    "midi": 67,
                    "time": 96.33333333333336,
                    "velocity": 0.7165354330708661,
                    "duration": 0.0729166666666714
                },
                {
                    "name": "B4",
                    "midi": 71,
                    "time": 96.58333333333336,
                    "velocity": 0.7244094488188977,
                    "duration": 0.0729166666666714
                },
                {
                    "name": "G#4",
                    "midi": 68,
                    "time": 96.83333333333336,
                    "velocity": 0.7244094488188977,
                    "duration": 0.0729166666666714
                },
                {
                    "name": "A4",
                    "midi": 69,
                    "time": 97.08333333333336,
                    "velocity": 0.7322834645669292,
                    "duration": 0.0729166666666714
                },
                {
                    "name": "B4",
                    "midi": 71,
                    "time": 97.33333333333336,
                    "velocity": 0.7322834645669292,
                    "duration": 0.0729166666666714
                },
                {
                    "name": "C#5",
                    "midi": 73,
                    "time": 97.58333333333336,
                    "velocity": 0.7401574803149606,
                    "duration": 0.0729166666666714
                },
                {
                    "name": "D5",
                    "midi": 74,
                    "time": 97.83333333333336,
                    "velocity": 0.7480314960629921,
                    "duration": 0.0729166666666714
                },
                {
                    "name": "B4",
                    "midi": 71,
                    "time": 98.08333333333336,
                    "velocity": 0.7480314960629921,
                    "duration": 0.0729166666666714
                },
                {
                    "name": "G4",
                    "midi": 67,
                    "time": 98.33333333333336,
                    "velocity": 0.7559055118110236,
                    "duration": 0.0729166666666714
                },
                {
                    "name": "F#4",
                    "midi": 66,
                    "time": 98.58333333333336,
                    "velocity": 0.7874015748031497,
                    "duration": 0.0729166666666714
                },
                {
                    "name": "D4",
                    "midi": 62,
                    "time": 99.08333333333336,
                    "velocity": 0.7637795275590551,
                    "duration": 0.0729166666666714
                },
                {
                    "name": "E4",
                    "midi": 64,
                    "time": 99.33333333333336,
                    "velocity": 0.7716535433070866,
                    "duration": 0.0729166666666714
                },
                {
                    "name": "C#4",
                    "midi": 61,
                    "time": 99.83333333333336,
                    "velocity": 0.7795275590551181,
                    "duration": 0.0729166666666714
                },
                {
                    "name": "A3",
                    "midi": 57,
                    "time": 102.58333333333336,
                    "velocity": 0.905511811023622,
                    "duration": 0.09375
                },
                {
                    "name": "A3",
                    "midi": 57,
                    "time": 102.83333333333336,
                    "velocity": 0.889763779527559,
                    "duration": 0.09375
                },
                {
                    "name": "A3",
                    "midi": 57,
                    "time": 103.08333333333336,
                    "velocity": 0.8740157480314961,
                    "duration": 0.09375
                },
                {
                    "name": "C#4",
                    "midi": 61,
                    "time": 103.33333333333336,
                    "velocity": 0.9448818897637795,
                    "duration": 0.1354166666666714
                },
                {
                    "name": "D4",
                    "midi": 62,
                    "time": 103.45833333333336,
                    "velocity": 0.937007874015748,
                    "duration": 0.1354166666666714
                },
                {
                    "name": "B3",
                    "midi": 59,
                    "time": 104.90625000000003,
                    "velocity": 0.7086614173228346,
                    "duration": 0.1354166666666714
                },
                {
                    "name": "A#3",
                    "midi": 58,
                    "time": 105.03125000000003,
                    "velocity": 0.7086614173228346,
                    "duration": 0.1354166666666714
                },
                {
                    "name": "B3",
                    "midi": 59,
                    "time": 105.15625000000003,
                    "velocity": 0.7086614173228346,
                    "duration": 0.09375
                },
                {
                    "name": "B3",
                    "midi": 59,
                    "time": 105.40625000000003,
                    "velocity": 0.8582677165354331,
                    "duration": 0.09375
                },
                {
                    "name": "B3",
                    "midi": 59,
                    "time": 105.65625000000003,
                    "velocity": 0.84251968503937,
                    "duration": 0.09375
                },
                {
                    "name": "B3",
                    "midi": 59,
                    "time": 105.90625000000003,
                    "velocity": 0.8267716535433071,
                    "duration": 0.09375
                },
                {
                    "name": "B3",
                    "midi": 59,
                    "time": 106.15625000000003,
                    "velocity": 0.8110236220472441,
                    "duration": 0.09375
                },
                {
                    "name": "B3",
                    "midi": 59,
                    "time": 106.40625000000003,
                    "velocity": 0.7952755905511811,
                    "duration": 0.09375
                },
                {
                    "name": "B3",
                    "midi": 59,
                    "time": 106.65625000000003,
                    "velocity": 0.7795275590551181,
                    "duration": 0.09375
                },
                {
                    "name": "B3",
                    "midi": 59,
                    "time": 106.90625000000003,
                    "velocity": 0.7637795275590551,
                    "duration": 0.09375
                },
                {
                    "name": "B3",
                    "midi": 59,
                    "time": 107.15625000000003,
                    "velocity": 0.7480314960629921,
                    "duration": 0.09375
                },
                {
                    "name": "B3",
                    "midi": 59,
                    "time": 107.40625000000003,
                    "velocity": 0.7322834645669292,
                    "duration": 0.09375
                },
                {
                    "name": "B3",
                    "midi": 59,
                    "time": 107.65625000000003,
                    "velocity": 0.7165354330708661,
                    "duration": 0.09375
                },
                {
                    "name": "B3",
                    "midi": 59,
                    "time": 108.28125000000003,
                    "velocity": 0.8661417322834646,
                    "duration": 0.09375
                },
                {
                    "name": "C4",
                    "midi": 60,
                    "time": 108.53125000000003,
                    "velocity": 0.8503937007874016,
                    "duration": 0.09375
                },
                {
                    "name": "C#4",
                    "midi": 61,
                    "time": 108.78125000000003,
                    "velocity": 0.8346456692913385,
                    "duration": 0.09375
                },
                {
                    "name": "E4",
                    "midi": 64,
                    "time": 110.90625000000003,
                    "velocity": 0.7086614173228346,
                    "duration": 0.1354166666666714
                },
                {
                    "name": "D#4",
                    "midi": 63,
                    "time": 111.03125000000003,
                    "velocity": 0.7086614173228346,
                    "duration": 0.1354166666666714
                },
                {
                    "name": "E4",
                    "midi": 64,
                    "time": 111.15625000000003,
                    "velocity": 0.8661417322834646,
                    "duration": 0.09375
                },
                {
                    "name": "E4",
                    "midi": 64,
                    "time": 111.40625000000003,
                    "velocity": 0.8582677165354331,
                    "duration": 0.09375
                },
                {
                    "name": "E4",
                    "midi": 64,
                    "time": 111.65625000000003,
                    "velocity": 0.84251968503937,
                    "duration": 0.09375
                },
                {
                    "name": "E4",
                    "midi": 64,
                    "time": 111.90625000000003,
                    "velocity": 0.8267716535433071,
                    "duration": 0.09375
                },
                {
                    "name": "E4",
                    "midi": 64,
                    "time": 112.15625000000003,
                    "velocity": 0.8110236220472441,
                    "duration": 0.09375
                },
                {
                    "name": "E4",
                    "midi": 64,
                    "time": 112.40625000000003,
                    "velocity": 0.7952755905511811,
                    "duration": 0.09375
                },
                {
                    "name": "E4",
                    "midi": 64,
                    "time": 112.65625000000003,
                    "velocity": 0.7795275590551181,
                    "duration": 0.09375
                },
                {
                    "name": "E4",
                    "midi": 64,
                    "time": 112.90625000000003,
                    "velocity": 0.7637795275590551,
                    "duration": 0.09375
                },
                {
                    "name": "E4",
                    "midi": 64,
                    "time": 113.15625000000003,
                    "velocity": 0.7480314960629921,
                    "duration": 0.09375
                },
                {
                    "name": "E4",
                    "midi": 64,
                    "time": 113.40625000000003,
                    "velocity": 0.7322834645669292,
                    "duration": 0.09375
                },
                {
                    "name": "E4",
                    "midi": 64,
                    "time": 113.65625000000003,
                    "velocity": 0.7165354330708661,
                    "duration": 0.09375
                },
                {
                    "name": "E4",
                    "midi": 64,
                    "time": 114.28125000000003,
                    "velocity": 0.8661417322834646,
                    "duration": 0.09375
                },
                {
                    "name": "F4",
                    "midi": 65,
                    "time": 114.53125000000003,
                    "velocity": 0.8503937007874016,
                    "duration": 0.09375
                },
                {
                    "name": "F#4",
                    "midi": 66,
                    "time": 114.78125000000003,
                    "velocity": 0.8346456692913385,
                    "duration": 0.09375
                },
                {
                    "name": "G4",
                    "midi": 67,
                    "time": 115.03125000000003,
                    "velocity": 0.8188976377952756,
                    "duration": 0.09375
                },
                {
                    "name": "D4",
                    "midi": 62,
                    "time": 118.40625000000003,
                    "velocity": 0.7874015748031497,
                    "duration": 0.1354166666666714
                },
                {
                    "name": "C#4",
                    "midi": 61,
                    "time": 118.53125000000003,
                    "velocity": 0.7874015748031497,
                    "duration": 0.1354166666666714
                },
                {
                    "name": "D4",
                    "midi": 62,
                    "time": 118.65625000000003,
                    "velocity": 0.7874015748031497,
                    "duration": 0.09375
                },
                {
                    "name": "C4",
                    "midi": 60,
                    "time": 121.40625000000003,
                    "velocity": 0.7874015748031497,
                    "duration": 0.1354166666666714
                },
                {
                    "name": "B3",
                    "midi": 59,
                    "time": 121.53125000000003,
                    "velocity": 0.7874015748031497,
                    "duration": 0.1354166666666714
                },
                {
                    "name": "C4",
                    "midi": 60,
                    "time": 121.65625000000003,
                    "velocity": 0.7874015748031497,
                    "duration": 0.09375
                },
                {
                    "name": "C4",
                    "midi": 60,
                    "time": 121.90625000000003,
                    "velocity": 0.8582677165354331,
                    "duration": 0.09375
                },
                {
                    "name": "F4",
                    "midi": 65,
                    "time": 126.28125000000003,
                    "velocity": 0.7086614173228346,
                    "duration": 0.09375
                },
                {
                    "name": "E4",
                    "midi": 64,
                    "time": 126.53125000000003,
                    "velocity": 0.7007874015748031,
                    "duration": 0.09375
                },
                {
                    "name": "D#4",
                    "midi": 63,
                    "time": 126.78125000000003,
                    "velocity": 0.6929133858267716,
                    "duration": 0.09375
                },
                {
                    "name": "D4",
                    "midi": 62,
                    "time": 127.03125000000003,
                    "velocity": 0.6850393700787402,
                    "duration": 0.09375
                },
                {
                    "name": "C#4",
                    "midi": 61,
                    "time": 127.28125000000003,
                    "velocity": 0.6692913385826772,
                    "duration": 0.09375
                },
                {
                    "name": "C4",
                    "midi": 60,
                    "time": 127.53125000000003,
                    "velocity": 0.6614173228346457,
                    "duration": 0.09375
                },
                {
                    "name": "B3",
                    "midi": 59,
                    "time": 127.78125000000003,
                    "velocity": 0.6456692913385826,
                    "duration": 0.09375
                },
                {
                    "name": "A#3",
                    "midi": 58,
                    "time": 128.03125000000003,
                    "velocity": 0.6299212598425197,
                    "duration": 0.09375
                },
                {
                    "name": "B3",
                    "midi": 59,
                    "time": 128.28125000000003,
                    "velocity": 0.6220472440944882,
                    "duration": 0.09375
                },
                {
                    "name": "C4",
                    "midi": 60,
                    "time": 128.53125000000003,
                    "velocity": 0.6062992125984252,
                    "duration": 0.09375
                },
                {
                    "name": "C#4",
                    "midi": 61,
                    "time": 128.78125000000003,
                    "velocity": 0.5905511811023622,
                    "duration": 0.09375
                },
                {
                    "name": "D4",
                    "midi": 62,
                    "time": 129.03125000000003,
                    "velocity": 0.5984251968503937,
                    "duration": 0.09375
                },
                {
                    "name": "D#4",
                    "midi": 63,
                    "time": 129.28125000000003,
                    "velocity": 0.6141732283464567,
                    "duration": 0.09375
                },
                {
                    "name": "E4",
                    "midi": 64,
                    "time": 129.53125000000003,
                    "velocity": 0.6220472440944882,
                    "duration": 0.09375
                },
                {
                    "name": "F4",
                    "midi": 65,
                    "time": 129.78125000000003,
                    "velocity": 0.6377952755905512,
                    "duration": 0.09375
                },
                {
                    "name": "C#4",
                    "midi": 61,
                    "time": 140.28125000000003,
                    "velocity": 0.8503937007874016,
                    "duration": 0.09375
                },
                {
                    "name": "B3",
                    "midi": 59,
                    "time": 140.53125000000003,
                    "velocity": 0.8740157480314961,
                    "duration": 0.09375
                },
                {
                    "name": "A#3",
                    "midi": 58,
                    "time": 140.78125000000003,
                    "velocity": 0.905511811023622,
                    "duration": 0.09375
                },
                {
                    "name": "B3",
                    "midi": 59,
                    "time": 141.03125000000003,
                    "velocity": 0.8818897637795275,
                    "duration": 0.09375
                },
                {
                    "name": "C#4",
                    "midi": 61,
                    "time": 141.28125000000003,
                    "velocity": 0.8582677165354331,
                    "duration": 0.09375
                },
                {
                    "name": "F#4",
                    "midi": 66,
                    "time": 142.40625000000003,
                    "velocity": 0.7480314960629921,
                    "duration": 0.1354166666666572
                },
                {
                    "name": "F4",
                    "midi": 65,
                    "time": 142.53125000000003,
                    "velocity": 0.7480314960629921,
                    "duration": 0.1354166666666572
                },
                {
                    "name": "F#4",
                    "midi": 66,
                    "time": 142.65625000000003,
                    "velocity": 0.7480314960629921,
                    "duration": 0.09375
                },
                {
                    "name": "F#4",
                    "midi": 66,
                    "time": 145.78125000000003,
                    "velocity": 0.905511811023622,
                    "duration": 0.09375
                },
                {
                    "name": "G4",
                    "midi": 67,
                    "time": 146.03125000000003,
                    "velocity": 0.905511811023622,
                    "duration": 0.09375
                },
                {
                    "name": "F#4",
                    "midi": 66,
                    "time": 146.53125000000003,
                    "velocity": 0.905511811023622,
                    "duration": 0.09375
                },
                {
                    "name": "E4",
                    "midi": 64,
                    "time": 146.78125000000003,
                    "velocity": 0.905511811023622,
                    "duration": 0.09375
                },
                {
                    "name": "F4",
                    "midi": 65,
                    "time": 147.28125000000003,
                    "velocity": 0.905511811023622,
                    "duration": 0.09375
                },
                {
                    "name": "F#4",
                    "midi": 66,
                    "time": 147.53125000000003,
                    "velocity": 0.905511811023622,
                    "duration": 0.09375
                },
                {
                    "name": "E4",
                    "midi": 64,
                    "time": 148.03125000000003,
                    "velocity": 0.905511811023622,
                    "duration": 0.09375
                },
                {
                    "name": "D4",
                    "midi": 62,
                    "time": 148.28125000000003,
                    "velocity": 0.905511811023622,
                    "duration": 0.09375
                },
                {
                    "name": "D4",
                    "midi": 62,
                    "time": 148.78125000000003,
                    "velocity": 0.905511811023622,
                    "duration": 0.09375
                },
                {
                    "name": "E4",
                    "midi": 64,
                    "time": 149.03125000000003,
                    "velocity": 0.8818897637795275,
                    "duration": 0.09375
                },
                {
                    "name": "D4",
                    "midi": 62,
                    "time": 149.28125000000003,
                    "velocity": 0.8661417322834646,
                    "duration": 0.09375
                },
                {
                    "name": "C#4",
                    "midi": 61,
                    "time": 149.53125000000003,
                    "velocity": 0.8503937007874016,
                    "duration": 0.09375
                },
                {
                    "name": "B3",
                    "midi": 59,
                    "time": 149.78125000000003,
                    "velocity": 0.8267716535433071,
                    "duration": 0.09375
                },
                {
                    "name": "C#4",
                    "midi": 61,
                    "time": 150.03125000000003,
                    "velocity": 0.8267716535433071,
                    "duration": 0.09375
                },
                {
                    "name": "D4",
                    "midi": 62,
                    "time": 150.28125000000003,
                    "velocity": 0.8346456692913385,
                    "duration": 0.09375
                },
                {
                    "name": "C#4",
                    "midi": 61,
                    "time": 150.53125000000003,
                    "velocity": 0.84251968503937,
                    "duration": 0.09375
                },
                {
                    "name": "B3",
                    "midi": 59,
                    "time": 150.78125000000003,
                    "velocity": 0.8503937007874016,
                    "duration": 0.09375
                },
                {
                    "name": "A#3",
                    "midi": 58,
                    "time": 151.03125000000003,
                    "velocity": 0.8582677165354331,
                    "duration": 0.09375
                },
                {
                    "name": "B4",
                    "midi": 71,
                    "time": 169.78125000000003,
                    "velocity": 0.8503937007874016,
                    "duration": 0.1354166666666572
                },
                {
                    "name": "A#4",
                    "midi": 70,
                    "time": 170.03125000000003,
                    "velocity": 0.8346456692913385,
                    "duration": 0.1354166666666572
                },
                {
                    "name": "A4",
                    "midi": 69,
                    "time": 170.28125000000003,
                    "velocity": 0.8267716535433071,
                    "duration": 0.1354166666666572
                },
                {
                    "name": "G#4",
                    "midi": 68,
                    "time": 170.53125000000003,
                    "velocity": 0.8110236220472441,
                    "duration": 0.1354166666666572
                },
                {
                    "name": "G4",
                    "midi": 67,
                    "time": 170.78125000000003,
                    "velocity": 0.7952755905511811,
                    "duration": 0.1354166666666572
                },
                {
                    "name": "F#4",
                    "midi": 66,
                    "time": 171.03125000000003,
                    "velocity": 0.7874015748031497,
                    "duration": 0.1354166666666572
                },
                {
                    "name": "F4",
                    "midi": 65,
                    "time": 171.28125000000003,
                    "velocity": 0.7716535433070866,
                    "duration": 0.1354166666666572
                },
                {
                    "name": "E4",
                    "midi": 64,
                    "time": 171.53125000000003,
                    "velocity": 0.7559055118110236,
                    "duration": 0.1354166666666572
                },
                {
                    "name": "D#4",
                    "midi": 63,
                    "time": 171.78125000000003,
                    "velocity": 0.7480314960629921,
                    "duration": 0.1354166666666572
                },
                {
                    "name": "D4",
                    "midi": 62,
                    "time": 172.03125000000003,
                    "velocity": 0.7322834645669292,
                    "duration": 0.1354166666666572
                },
                {
                    "name": "C#4",
                    "midi": 61,
                    "time": 172.28125000000003,
                    "velocity": 0.7165354330708661,
                    "duration": 0.1354166666666572
                },
                {
                    "name": "D4",
                    "midi": 62,
                    "time": 172.40625000000003,
                    "velocity": 0.7086614173228346,
                    "duration": 0.1354166666666572
                },
                {
                    "name": "F4",
                    "midi": 65,
                    "time": 172.53125000000003,
                    "velocity": 0.7795275590551181,
                    "duration": 0.09375
                },
                {
                    "name": "G4",
                    "midi": 67,
                    "time": 172.65625000000003,
                    "velocity": 0.7637795275590551,
                    "duration": 0.09375
                },
                {
                    "name": "F4",
                    "midi": 65,
                    "time": 172.78125000000003,
                    "velocity": 0.7559055118110236,
                    "duration": 0.09375
                },
                {
                    "name": "F#4",
                    "midi": 66,
                    "time": 172.90625000000003,
                    "velocity": 0.7401574803149606,
                    "duration": 0.09375
                },
                {
                    "name": "B3",
                    "midi": 59,
                    "time": 173.03125000000003,
                    "velocity": 0.7244094488188977,
                    "duration": 0.09375
                },
                {
                    "name": "B3",
                    "midi": 59,
                    "time": 173.90625000000003,
                    "velocity": 0.7086614173228346,
                    "duration": 0.09375
                },
                {
                    "name": "B3",
                    "midi": 59,
                    "time": 176.90625000000003,
                    "velocity": 0.8267716535433071,
                    "duration": 0.22916666666660035
                },
                {
                    "name": "B3",
                    "midi": 59,
                    "time": 178.53124999999997,
                    "velocity": 0.9448818897637795,
                    "duration": 0.24999999999997158
                }
            ],
            "controlChanges": {
                "1": [
                    {
                        "number": 1,
                        "time": 27.4375,
                        "value": 0
                    },
                    {
                        "number": 1,
                        "time": 27.447916666666668,
                        "value": 0.05511811023622047
                    },
                    {
                        "number": 1,
                        "time": 27.458333333333336,
                        "value": 0.07874015748031496
                    },
                    {
                        "number": 1,
                        "time": 27.468750000000004,
                        "value": 0.09448818897637795
                    },
                    {
                        "number": 1,
                        "time": 27.47916666666667,
                        "value": 0.11023622047244094
                    },
                    {
                        "number": 1,
                        "time": 27.48958333333334,
                        "value": 0.11811023622047244
                    },
                    {
                        "number": 1,
                        "time": 27.51041666666667,
                        "value": 0.12598425196850394
                    },
                    {
                        "number": 1,
                        "time": 28.97916666666667,
                        "value": 0
                    },
                    {
                        "number": 1,
                        "time": 79.04166666666667,
                        "value": 0
                    },
                    {
                        "number": 1,
                        "time": 79.05208333333334,
                        "value": 0.05511811023622047
                    },
                    {
                        "number": 1,
                        "time": 79.06250000000001,
                        "value": 0.07874015748031496
                    },
                    {
                        "number": 1,
                        "time": 79.07291666666669,
                        "value": 0.09448818897637795
                    },
                    {
                        "number": 1,
                        "time": 79.08333333333336,
                        "value": 0.11023622047244094
                    },
                    {
                        "number": 1,
                        "time": 79.09375000000003,
                        "value": 0.11811023622047244
                    },
                    {
                        "number": 1,
                        "time": 79.11458333333336,
                        "value": 0.12598425196850394
                    },
                    {
                        "number": 1,
                        "time": 80.58333333333336,
                        "value": 0
                    },
                    {
                        "number": 1,
                        "time": 176.90625000000003,
                        "value": 0
                    },
                    {
                        "number": 1,
                        "time": 176.91666666666669,
                        "value": 0.03937007874015748
                    },
                    {
                        "number": 1,
                        "time": 176.92708333333334,
                        "value": 0.06299212598425197
                    },
                    {
                        "number": 1,
                        "time": 176.9375,
                        "value": 0.07874015748031496
                    },
                    {
                        "number": 1,
                        "time": 176.94791666666666,
                        "value": 0.09448818897637795
                    },
                    {
                        "number": 1,
                        "time": 176.95833333333331,
                        "value": 0.11023622047244094
                    },
                    {
                        "number": 1,
                        "time": 176.96874999999997,
                        "value": 0.11811023622047244
                    },
                    {
                        "number": 1,
                        "time": 176.97916666666663,
                        "value": 0.12598425196850394
                    },
                    {
                        "number": 1,
                        "time": 176.9895833333333,
                        "value": 0.13385826771653545
                    },
                    {
                        "number": 1,
                        "time": 177.01041666666663,
                        "value": 0.14173228346456693
                    },
                    {
                        "number": 1,
                        "time": 177.04166666666663,
                        "value": 0.14960629921259844
                    },
                    {
                        "number": 1,
                        "time": 178.53124999999997,
                        "value": 0
                    },
                    {
                        "number": 1,
                        "time": 178.69791666666663,
                        "value": 0.007874015748031496
                    },
                    {
                        "number": 1,
                        "time": 178.7083333333333,
                        "value": 0.015748031496062992
                    },
                    {
                        "number": 1,
                        "time": 178.71874999999994,
                        "value": 0.023622047244094488
                    },
                    {
                        "number": 1,
                        "time": 178.7291666666666,
                        "value": 0.031496062992125984
                    },
                    {
                        "number": 1,
                        "time": 178.74999999999994,
                        "value": 0.03937007874015748
                    },
                    {
                        "number": 1,
                        "time": 178.7604166666666,
                        "value": 0.047244094488188976
                    },
                    {
                        "number": 1,
                        "time": 178.78124999999994,
                        "value": 0.05511811023622047
                    },
                    {
                        "number": 1,
                        "time": 178.7916666666666,
                        "value": 0.06299212598425197
                    },
                    {
                        "number": 1,
                        "time": 178.81249999999994,
                        "value": 0.07086614173228346
                    },
                    {
                        "number": 1,
                        "time": 178.8333333333333,
                        "value": 0.07874015748031496
                    },
                    {
                        "number": 1,
                        "time": 178.8645833333333,
                        "value": 0.08661417322834646
                    },
                    {
                        "number": 1,
                        "time": 178.88541666666663,
                        "value": 0.09448818897637795
                    },
                    {
                        "number": 1,
                        "time": 178.91666666666663,
                        "value": 0.10236220472440945
                    },
                    {
                        "number": 1,
                        "time": 178.94791666666663,
                        "value": 0.11023622047244094
                    },
                    {
                        "number": 1,
                        "time": 178.97916666666663,
                        "value": 0.11811023622047244
                    },
                    {
                        "number": 1,
                        "time": 179.03124999999997,
                        "value": 0.12598425196850394
                    },
                    {
                        "number": 1,
                        "time": 179.07291666666663,
                        "value": 0.13385826771653545
                    },
                    {
                        "number": 1,
                        "time": 179.1458333333333,
                        "value": 0.14173228346456693
                    },
                    {
                        "number": 1,
                        "time": 179.2395833333333,
                        "value": 0.14960629921259844
                    },
                    {
                        "number": 1,
                        "time": 179.40624999999994,
                        "value": 0.15748031496062992
                    }
                ],
                "6": [
                    {
                        "number": 6,
                        "time": 0.5625,
                        "value": 0.09448818897637795
                    },
                    {
                        "number": 6,
                        "time": 0.5937499999999999,
                        "value": 0.3858267716535433
                    },
                    {
                        "number": 6,
                        "time": 178.53124999999997,
                        "value": 0.11811023622047244
                    },
                    {
                        "number": 6,
                        "time": 178.53124999999997,
                        "value": 0.5826771653543307
                    }
                ],
                "7": [
                    {
                        "number": 7,
                        "time": 0,
                        "value": 0.9448818897637795
                    }
                ],
                "11": [
                    {
                        "number": 11,
                        "time": 0.6354166666666665,
                        "value": 0.9448818897637795
                    }
                ],
                "32": [
                    {
                        "number": 32,
                        "time": 0.5208333333333334,
                        "value": 0.007874015748031496
                    }
                ],
                "91": [
                    {
                        "number": 91,
                        "time": 0.6041666666666665,
                        "value": 0.31496062992125984
                    }
                ],
                "93": [
                    {
                        "number": 93,
                        "time": 0.6145833333333331,
                        "value": 0.15748031496062992
                    }
                ],
                "98": [
                    {
                        "number": 98,
                        "time": 0.5833333333333333,
                        "value": 0.25196850393700787
                    },
                    {
                        "number": 98,
                        "time": 178.53124999999997,
                        "value": 0.7795275590551181
                    },
                    {
                        "number": 98,
                        "time": 178.53124999999997,
                        "value": 0.8031496062992126
                    }
                ],
                "99": [
                    {
                        "number": 99,
                        "time": 0.5729166666666666,
                        "value": 0.007874015748031496
                    },
                    {
                        "number": 99,
                        "time": 178.53124999999997,
                        "value": 0.007874015748031496
                    }
                ],
                "100": [
                    {
                        "number": 100,
                        "time": 0.5520833333333334,
                        "value": 0
                    }
                ],
                "101": [
                    {
                        "number": 101,
                        "time": 0.5416666666666667,
                        "value": 0
                    }
                ]
            },
            "id": 4,
            "name": "G",
            "instrumentNumber": 40,
            "instrument": "violin",
            "instrumentFamily": "strings",
            "channelNumber": 3,
            "isPercussion": false
        },
        {
            "startTime": 2.875,
            "duration": 167.75,
            "length": 19,
            "notes": [
                {
                    "name": "E5",
                    "midi": 76,
                    "time": 2.875,
                    "velocity": 0.8188976377952756,
                    "duration": 0.09375
                },
                {
                    "name": "E5",
                    "midi": 76,
                    "time": 5.375,
                    "velocity": 0.84251968503937,
                    "duration": 0.09375
                },
                {
                    "name": "E5",
                    "midi": 76,
                    "time": 25.6875,
                    "velocity": 0.7007874015748031,
                    "duration": 0.09375
                },
                {
                    "name": "E5",
                    "midi": 76,
                    "time": 34.979166666666664,
                    "velocity": 0.7480314960629921,
                    "duration": 0.1354166666666643
                },
                {
                    "name": "E5",
                    "midi": 76,
                    "time": 35.229166666666664,
                    "velocity": 0.7637795275590551,
                    "duration": 0.09375
                },
                {
                    "name": "E5",
                    "midi": 76,
                    "time": 51.354166666666664,
                    "velocity": 0.8818897637795275,
                    "duration": 0.09375
                },
                {
                    "name": "E5",
                    "midi": 76,
                    "time": 54.479166666666664,
                    "velocity": 0.8188976377952756,
                    "duration": 0.09375
                },
                {
                    "name": "E5",
                    "midi": 76,
                    "time": 56.979166666666664,
                    "velocity": 0.84251968503937,
                    "duration": 0.09375
                },
                {
                    "name": "E5",
                    "midi": 76,
                    "time": 77.29166666666666,
                    "velocity": 0.7007874015748031,
                    "duration": 0.09375
                },
                {
                    "name": "E5",
                    "midi": 76,
                    "time": 86.58333333333333,
                    "velocity": 0.7480314960629921,
                    "duration": 0.1354166666666714
                },
                {
                    "name": "E5",
                    "midi": 76,
                    "time": 86.83333333333333,
                    "velocity": 0.7637795275590551,
                    "duration": 0.09375
                },
                {
                    "name": "E5",
                    "midi": 76,
                    "time": 102.95833333333333,
                    "velocity": 0.8818897637795275,
                    "duration": 0.09375
                },
                {
                    "name": "E5",
                    "midi": 76,
                    "time": 131.90625,
                    "velocity": 0.7480314960629921,
                    "duration": 0.09375
                },
                {
                    "name": "E5",
                    "midi": 76,
                    "time": 137.28125,
                    "velocity": 0.8503937007874016,
                    "duration": 0.09375
                },
                {
                    "name": "E5",
                    "midi": 76,
                    "time": 154.15625,
                    "velocity": 0.8188976377952756,
                    "duration": 0.09375
                },
                {
                    "name": "E5",
                    "midi": 76,
                    "time": 156.65625,
                    "velocity": 0.84251968503937,
                    "duration": 0.09375
                },
                {
                    "name": "E5",
                    "midi": 76,
                    "time": 159.40625,
                    "velocity": 0.84251968503937,
                    "duration": 0.09375
                },
                {
                    "name": "E5",
                    "midi": 76,
                    "time": 160.53125,
                    "velocity": 0.7874015748031497,
                    "duration": 0.1354166666666572
                },
                {
                    "name": "E5",
                    "midi": 76,
                    "time": 167.65625,
                    "velocity": 0.7637795275590551,
                    "duration": 0.09375
                }
            ],
            "controlChanges": {
                "6": [
                    {
                        "number": 6,
                        "time": 0.6666666666666666,
                        "value": 0.5196850393700787
                    },
                    {
                        "number": 6,
                        "time": 0.6874999999999999,
                        "value": 0.5275590551181102
                    }
                ],
                "7": [
                    {
                        "number": 7,
                        "time": 0,
                        "value": 0.9448818897637795
                    }
                ],
                "11": [
                    {
                        "number": 11,
                        "time": 0.7291666666666665,
                        "value": 0.9448818897637795
                    }
                ],
                "32": [
                    {
                        "number": 32,
                        "time": 0.625,
                        "value": 0.007874015748031496
                    }
                ],
                "91": [
                    {
                        "number": 91,
                        "time": 0.6979166666666665,
                        "value": 0.31496062992125984
                    }
                ],
                "93": [
                    {
                        "number": 93,
                        "time": 0.7083333333333331,
                        "value": 0.03937007874015748
                    }
                ],
                "98": [
                    {
                        "number": 98,
                        "time": 0.65625,
                        "value": 0.25196850393700787
                    },
                    {
                        "number": 98,
                        "time": 0.6770833333333333,
                        "value": 0.8031496062992126
                    }
                ],
                "99": [
                    {
                        "number": 99,
                        "time": 0.6458333333333334,
                        "value": 0.007874015748031496
                    }
                ]
            },
            "id": 5,
            "name": "E-OPEN",
            "instrumentNumber": 40,
            "instrument": "violin",
            "instrumentFamily": "strings",
            "channelNumber": 4,
            "isPercussion": false
        },
        {
            "startTime": 9.625,
            "duration": 138.125,
            "length": 37,
            "notes": [
                {
                    "name": "A4",
                    "midi": 69,
                    "time": 9.625,
                    "velocity": 0.9291338582677166,
                    "duration": 0.09375
                },
                {
                    "name": "A4",
                    "midi": 69,
                    "time": 15.625,
                    "velocity": 0.8582677165354331,
                    "duration": 0.09375
                },
                {
                    "name": "A4",
                    "midi": 69,
                    "time": 26.1875,
                    "velocity": 0.7007874015748031,
                    "duration": 0.09375
                },
                {
                    "name": "A4",
                    "midi": 69,
                    "time": 29.979166666666668,
                    "velocity": 0.7401574803149606,
                    "duration": 0.09375
                },
                {
                    "name": "A4",
                    "midi": 69,
                    "time": 36.22916666666667,
                    "velocity": 0.7480314960629921,
                    "duration": 0.09375
                },
                {
                    "name": "A4",
                    "midi": 69,
                    "time": 38.10416666666667,
                    "velocity": 0.9448818897637795,
                    "duration": 0.09375
                },
                {
                    "name": "A4",
                    "midi": 69,
                    "time": 38.35416666666667,
                    "velocity": 0.8267716535433071,
                    "duration": 0.09375
                },
                {
                    "name": "A4",
                    "midi": 69,
                    "time": 38.60416666666667,
                    "velocity": 0.8267716535433071,
                    "duration": 0.09375
                },
                {
                    "name": "A4",
                    "midi": 69,
                    "time": 38.85416666666667,
                    "velocity": 0.8267716535433071,
                    "duration": 0.09375
                },
                {
                    "name": "A4",
                    "midi": 69,
                    "time": 39.10416666666667,
                    "velocity": 0.8267716535433071,
                    "duration": 0.09375
                },
                {
                    "name": "A4",
                    "midi": 69,
                    "time": 39.35416666666667,
                    "velocity": 0.8267716535433071,
                    "duration": 0.09375
                },
                {
                    "name": "A4",
                    "midi": 69,
                    "time": 41.10416666666667,
                    "velocity": 0.7874015748031497,
                    "duration": 0.09375
                },
                {
                    "name": "A4",
                    "midi": 69,
                    "time": 41.35416666666667,
                    "velocity": 0.7480314960629921,
                    "duration": 0.09375
                },
                {
                    "name": "A4",
                    "midi": 69,
                    "time": 41.60416666666667,
                    "velocity": 0.7480314960629921,
                    "duration": 0.09375
                },
                {
                    "name": "A4",
                    "midi": 69,
                    "time": 41.85416666666667,
                    "velocity": 0.7480314960629921,
                    "duration": 0.09375
                },
                {
                    "name": "A4",
                    "midi": 69,
                    "time": 42.10416666666667,
                    "velocity": 0.7480314960629921,
                    "duration": 0.09375
                },
                {
                    "name": "A4",
                    "midi": 69,
                    "time": 42.35416666666667,
                    "velocity": 0.7480314960629921,
                    "duration": 0.09375
                },
                {
                    "name": "A4",
                    "midi": 69,
                    "time": 61.22916666666667,
                    "velocity": 0.9291338582677166,
                    "duration": 0.09375
                },
                {
                    "name": "A4",
                    "midi": 69,
                    "time": 67.22916666666667,
                    "velocity": 0.8582677165354331,
                    "duration": 0.09375
                },
                {
                    "name": "A4",
                    "midi": 69,
                    "time": 77.79166666666667,
                    "velocity": 0.7007874015748031,
                    "duration": 0.09375
                },
                {
                    "name": "A4",
                    "midi": 69,
                    "time": 81.58333333333334,
                    "velocity": 0.7401574803149606,
                    "duration": 0.09375
                },
                {
                    "name": "A4",
                    "midi": 69,
                    "time": 87.83333333333334,
                    "velocity": 0.7480314960629921,
                    "duration": 0.09375
                },
                {
                    "name": "A4",
                    "midi": 69,
                    "time": 89.70833333333334,
                    "velocity": 0.9448818897637795,
                    "duration": 0.09375
                },
                {
                    "name": "A4",
                    "midi": 69,
                    "time": 89.95833333333334,
                    "velocity": 0.8267716535433071,
                    "duration": 0.09375
                },
                {
                    "name": "A4",
                    "midi": 69,
                    "time": 90.20833333333334,
                    "velocity": 0.8267716535433071,
                    "duration": 0.09375
                },
                {
                    "name": "A4",
                    "midi": 69,
                    "time": 90.45833333333334,
                    "velocity": 0.8267716535433071,
                    "duration": 0.09375
                },
                {
                    "name": "A4",
                    "midi": 69,
                    "time": 90.70833333333334,
                    "velocity": 0.8267716535433071,
                    "duration": 0.09375
                },
                {
                    "name": "A4",
                    "midi": 69,
                    "time": 90.95833333333334,
                    "velocity": 0.8267716535433071,
                    "duration": 0.09375
                },
                {
                    "name": "A4",
                    "midi": 69,
                    "time": 92.70833333333334,
                    "velocity": 0.7874015748031497,
                    "duration": 0.09375
                },
                {
                    "name": "A4",
                    "midi": 69,
                    "time": 92.95833333333334,
                    "velocity": 0.7480314960629921,
                    "duration": 0.09375
                },
                {
                    "name": "A4",
                    "midi": 69,
                    "time": 93.20833333333334,
                    "velocity": 0.7480314960629921,
                    "duration": 0.09375
                },
                {
                    "name": "A4",
                    "midi": 69,
                    "time": 93.45833333333334,
                    "velocity": 0.7480314960629921,
                    "duration": 0.09375
                },
                {
                    "name": "A4",
                    "midi": 69,
                    "time": 93.70833333333334,
                    "velocity": 0.7480314960629921,
                    "duration": 0.09375
                },
                {
                    "name": "A4",
                    "midi": 69,
                    "time": 93.95833333333334,
                    "velocity": 0.7480314960629921,
                    "duration": 0.09375
                },
                {
                    "name": "A4",
                    "midi": 69,
                    "time": 110.03125000000001,
                    "velocity": 0.7559055118110236,
                    "duration": 0.09375
                },
                {
                    "name": "A4",
                    "midi": 69,
                    "time": 130.15625,
                    "velocity": 0.6614173228346457,
                    "duration": 0.09375
                },
                {
                    "name": "A4",
                    "midi": 69,
                    "time": 138.03125,
                    "velocity": 0.8110236220472441,
                    "duration": 0.09375
                }
            ],
            "controlChanges": {
                "6": [
                    {
                        "number": 6,
                        "time": 0.7708333333333333,
                        "value": 0.48031496062992124
                    },
                    {
                        "number": 6,
                        "time": 0.7916666666666665,
                        "value": 0.5275590551181102
                    }
                ],
                "7": [
                    {
                        "number": 7,
                        "time": 0,
                        "value": 0.9448818897637795
                    }
                ],
                "11": [
                    {
                        "number": 11,
                        "time": 0.8333333333333331,
                        "value": 0.9448818897637795
                    }
                ],
                "32": [
                    {
                        "number": 32,
                        "time": 0.7291666666666666,
                        "value": 0.007874015748031496
                    }
                ],
                "91": [
                    {
                        "number": 91,
                        "time": 0.8020833333333331,
                        "value": 0.31496062992125984
                    }
                ],
                "93": [
                    {
                        "number": 93,
                        "time": 0.8124999999999998,
                        "value": 0.07874015748031496
                    }
                ],
                "98": [
                    {
                        "number": 98,
                        "time": 0.7604166666666666,
                        "value": 0.25196850393700787
                    },
                    {
                        "number": 98,
                        "time": 0.7812499999999999,
                        "value": 0.8031496062992126
                    }
                ],
                "99": [
                    {
                        "number": 99,
                        "time": 0.75,
                        "value": 0.007874015748031496
                    }
                ]
            },
            "id": 6,
            "name": "A-OPEN",
            "instrumentNumber": 40,
            "instrument": "violin",
            "instrumentFamily": "strings",
            "channelNumber": 5,
            "isPercussion": false
        },
        {
            "startTime": 8.375,
            "duration": 178.375,
            "length": 58,
            "notes": [
                {
                    "name": "D4",
                    "midi": 62,
                    "time": 8.375,
                    "velocity": 0.8110236220472441,
                    "duration": 0.09375
                },
                {
                    "name": "D4",
                    "midi": 62,
                    "time": 27.1875,
                    "velocity": 0.8267716535433071,
                    "duration": 0.09375
                },
                {
                    "name": "D4",
                    "midi": 62,
                    "time": 34.229166666666664,
                    "velocity": 0.905511811023622,
                    "duration": 0.09375
                },
                {
                    "name": "D4",
                    "midi": 62,
                    "time": 36.854166666666664,
                    "velocity": 0.9448818897637795,
                    "duration": 0.09375
                },
                {
                    "name": "D4",
                    "midi": 62,
                    "time": 37.104166666666664,
                    "velocity": 0.9448818897637795,
                    "duration": 0.09375
                },
                {
                    "name": "D4",
                    "midi": 62,
                    "time": 37.354166666666664,
                    "velocity": 0.9448818897637795,
                    "duration": 0.09375
                },
                {
                    "name": "D4",
                    "midi": 62,
                    "time": 37.604166666666664,
                    "velocity": 0.9448818897637795,
                    "duration": 0.09375
                },
                {
                    "name": "D4",
                    "midi": 62,
                    "time": 37.854166666666664,
                    "velocity": 0.9448818897637795,
                    "duration": 0.09375
                },
                {
                    "name": "D4",
                    "midi": 62,
                    "time": 39.604166666666664,
                    "velocity": 0.7480314960629921,
                    "duration": 0.09375
                },
                {
                    "name": "D4",
                    "midi": 62,
                    "time": 39.854166666666664,
                    "velocity": 0.9448818897637795,
                    "duration": 0.09375
                },
                {
                    "name": "D4",
                    "midi": 62,
                    "time": 40.104166666666664,
                    "velocity": 0.9448818897637795,
                    "duration": 0.09375
                },
                {
                    "name": "D4",
                    "midi": 62,
                    "time": 40.354166666666664,
                    "velocity": 0.9448818897637795,
                    "duration": 0.09375
                },
                {
                    "name": "D4",
                    "midi": 62,
                    "time": 40.604166666666664,
                    "velocity": 0.9448818897637795,
                    "duration": 0.09375
                },
                {
                    "name": "D4",
                    "midi": 62,
                    "time": 40.854166666666664,
                    "velocity": 0.9448818897637795,
                    "duration": 0.09375
                },
                {
                    "name": "D4",
                    "midi": 62,
                    "time": 42.604166666666664,
                    "velocity": 0.7874015748031497,
                    "duration": 0.09375
                },
                {
                    "name": "D4",
                    "midi": 62,
                    "time": 42.854166666666664,
                    "velocity": 0.905511811023622,
                    "duration": 0.09375
                },
                {
                    "name": "D4",
                    "midi": 62,
                    "time": 43.104166666666664,
                    "velocity": 0.905511811023622,
                    "duration": 0.09375
                },
                {
                    "name": "D4",
                    "midi": 62,
                    "time": 43.354166666666664,
                    "velocity": 0.905511811023622,
                    "duration": 0.09375
                },
                {
                    "name": "D4",
                    "midi": 62,
                    "time": 43.604166666666664,
                    "velocity": 0.905511811023622,
                    "duration": 0.09375
                },
                {
                    "name": "D4",
                    "midi": 62,
                    "time": 43.854166666666664,
                    "velocity": 0.905511811023622,
                    "duration": 0.09375
                },
                {
                    "name": "D4",
                    "midi": 62,
                    "time": 48.479166666666664,
                    "velocity": 0.9448818897637795,
                    "duration": 0.1875
                },
                {
                    "name": "D4",
                    "midi": 62,
                    "time": 48.854166666666664,
                    "velocity": 0.9291338582677166,
                    "duration": 0.09375
                },
                {
                    "name": "D4",
                    "midi": 62,
                    "time": 49.104166666666664,
                    "velocity": 0.9212598425196851,
                    "duration": 0.09375
                },
                {
                    "name": "D4",
                    "midi": 62,
                    "time": 49.354166666666664,
                    "velocity": 0.905511811023622,
                    "duration": 0.09375
                },
                {
                    "name": "D4",
                    "midi": 62,
                    "time": 49.604166666666664,
                    "velocity": 0.8976377952755905,
                    "duration": 0.09375
                },
                {
                    "name": "D4",
                    "midi": 62,
                    "time": 49.854166666666664,
                    "velocity": 0.8818897637795275,
                    "duration": 0.09375
                },
                {
                    "name": "D4",
                    "midi": 62,
                    "time": 59.979166666666664,
                    "velocity": 0.8110236220472441,
                    "duration": 0.09375
                },
                {
                    "name": "D4",
                    "midi": 62,
                    "time": 78.79166666666666,
                    "velocity": 0.8267716535433071,
                    "duration": 0.09375
                },
                {
                    "name": "D4",
                    "midi": 62,
                    "time": 85.83333333333333,
                    "velocity": 0.905511811023622,
                    "duration": 0.09375
                },
                {
                    "name": "D4",
                    "midi": 62,
                    "time": 88.45833333333333,
                    "velocity": 0.9448818897637795,
                    "duration": 0.09375
                },
                {
                    "name": "D4",
                    "midi": 62,
                    "time": 88.70833333333333,
                    "velocity": 0.9448818897637795,
                    "duration": 0.09375
                },
                {
                    "name": "D4",
                    "midi": 62,
                    "time": 88.95833333333333,
                    "velocity": 0.9448818897637795,
                    "duration": 0.09375
                },
                {
                    "name": "D4",
                    "midi": 62,
                    "time": 89.20833333333333,
                    "velocity": 0.9448818897637795,
                    "duration": 0.09375
                },
                {
                    "name": "D4",
                    "midi": 62,
                    "time": 89.45833333333333,
                    "velocity": 0.9448818897637795,
                    "duration": 0.09375
                },
                {
                    "name": "D4",
                    "midi": 62,
                    "time": 91.20833333333333,
                    "velocity": 0.7480314960629921,
                    "duration": 0.09375
                },
                {
                    "name": "D4",
                    "midi": 62,
                    "time": 91.45833333333333,
                    "velocity": 0.9448818897637795,
                    "duration": 0.09375
                },
                {
                    "name": "D4",
                    "midi": 62,
                    "time": 91.70833333333333,
                    "velocity": 0.9448818897637795,
                    "duration": 0.09375
                },
                {
                    "name": "D4",
                    "midi": 62,
                    "time": 91.95833333333333,
                    "velocity": 0.9448818897637795,
                    "duration": 0.09375
                },
                {
                    "name": "D4",
                    "midi": 62,
                    "time": 92.20833333333333,
                    "velocity": 0.9448818897637795,
                    "duration": 0.09375
                },
                {
                    "name": "D4",
                    "midi": 62,
                    "time": 92.45833333333333,
                    "velocity": 0.9448818897637795,
                    "duration": 0.09375
                },
                {
                    "name": "D4",
                    "midi": 62,
                    "time": 94.20833333333333,
                    "velocity": 0.7874015748031497,
                    "duration": 0.09375
                },
                {
                    "name": "D4",
                    "midi": 62,
                    "time": 94.45833333333333,
                    "velocity": 0.905511811023622,
                    "duration": 0.09375
                },
                {
                    "name": "D4",
                    "midi": 62,
                    "time": 94.70833333333333,
                    "velocity": 0.905511811023622,
                    "duration": 0.09375
                },
                {
                    "name": "D4",
                    "midi": 62,
                    "time": 94.95833333333333,
                    "velocity": 0.905511811023622,
                    "duration": 0.09375
                },
                {
                    "name": "D4",
                    "midi": 62,
                    "time": 95.20833333333333,
                    "velocity": 0.905511811023622,
                    "duration": 0.09375
                },
                {
                    "name": "D4",
                    "midi": 62,
                    "time": 95.45833333333333,
                    "velocity": 0.905511811023622,
                    "duration": 0.09375
                },
                {
                    "name": "D4",
                    "midi": 62,
                    "time": 100.08333333333333,
                    "velocity": 0.9448818897637795,
                    "duration": 0.1875
                },
                {
                    "name": "D4",
                    "midi": 62,
                    "time": 100.45833333333333,
                    "velocity": 0.9291338582677166,
                    "duration": 0.09375
                },
                {
                    "name": "D4",
                    "midi": 62,
                    "time": 100.70833333333333,
                    "velocity": 0.9212598425196851,
                    "duration": 0.09375
                },
                {
                    "name": "D4",
                    "midi": 62,
                    "time": 100.95833333333333,
                    "velocity": 0.905511811023622,
                    "duration": 0.09375
                },
                {
                    "name": "D4",
                    "midi": 62,
                    "time": 101.20833333333333,
                    "velocity": 0.8976377952755905,
                    "duration": 0.09375
                },
                {
                    "name": "D4",
                    "midi": 62,
                    "time": 101.45833333333333,
                    "velocity": 0.8818897637795275,
                    "duration": 0.09375
                },
                {
                    "name": "D4",
                    "midi": 62,
                    "time": 109.03125,
                    "velocity": 0.8188976377952756,
                    "duration": 0.09375
                },
                {
                    "name": "D4",
                    "midi": 62,
                    "time": 118.90625,
                    "velocity": 0.8582677165354331,
                    "duration": 0.09375
                },
                {
                    "name": "D4",
                    "midi": 62,
                    "time": 122.15625,
                    "velocity": 0.84251968503937,
                    "duration": 0.09375
                },
                {
                    "name": "D4",
                    "midi": 62,
                    "time": 140.03125,
                    "velocity": 0.8267716535433071,
                    "duration": 0.09375
                },
                {
                    "name": "D4",
                    "midi": 62,
                    "time": 141.53125,
                    "velocity": 0.8267716535433071,
                    "duration": 0.09375
                },
                {
                    "name": "D4",
                    "midi": 62,
                    "time": 178.28125,
                    "velocity": 0.9212598425196851,
                    "duration": 0.09375
                }
            ],
            "controlChanges": {
                "6": [
                    {
                        "number": 6,
                        "time": 0.875,
                        "value": 0.4409448818897638
                    },
                    {
                        "number": 6,
                        "time": 0.8958333333333333,
                        "value": 0.5826771653543307
                    }
                ],
                "7": [
                    {
                        "number": 7,
                        "time": 0,
                        "value": 0.9448818897637795
                    }
                ],
                "11": [
                    {
                        "number": 11,
                        "time": 0.9374999999999999,
                        "value": 0.9448818897637795
                    }
                ],
                "32": [
                    {
                        "number": 32,
                        "time": 0.8333333333333334,
                        "value": 0.007874015748031496
                    }
                ],
                "91": [
                    {
                        "number": 91,
                        "time": 0.9062499999999999,
                        "value": 0.31496062992125984
                    }
                ],
                "93": [
                    {
                        "number": 93,
                        "time": 0.9166666666666665,
                        "value": 0.11811023622047244
                    }
                ],
                "98": [
                    {
                        "number": 98,
                        "time": 0.8645833333333334,
                        "value": 0.25196850393700787
                    },
                    {
                        "number": 98,
                        "time": 0.8854166666666666,
                        "value": 0.8031496062992126
                    }
                ],
                "99": [
                    {
                        "number": 99,
                        "time": 0.8541666666666667,
                        "value": 0.007874015748031496
                    }
                ]
            },
            "id": 7,
            "name": "D-OPEN",
            "instrumentNumber": 40,
            "instrument": "violin",
            "instrumentFamily": "strings",
            "channelNumber": 6,
            "isPercussion": false
        },
        {
            "startTime": 50.229166666666664,
            "duration": 102.42708333333333,
            "length": 6,
            "notes": [
                {
                    "name": "G3",
                    "midi": 55,
                    "time": 50.229166666666664,
                    "velocity": 0.9448818897637795,
                    "duration": 0.09375
                },
                {
                    "name": "G3",
                    "midi": 55,
                    "time": 50.479166666666664,
                    "velocity": 0.9291338582677166,
                    "duration": 0.09375
                },
                {
                    "name": "G3",
                    "midi": 55,
                    "time": 50.729166666666664,
                    "velocity": 0.9133858267716536,
                    "duration": 0.09375
                },
                {
                    "name": "G3",
                    "midi": 55,
                    "time": 101.83333333333333,
                    "velocity": 0.9448818897637795,
                    "duration": 0.09375
                },
                {
                    "name": "G3",
                    "midi": 55,
                    "time": 102.08333333333333,
                    "velocity": 0.9291338582677166,
                    "duration": 0.09375
                },
                {
                    "name": "G3",
                    "midi": 55,
                    "time": 102.33333333333333,
                    "velocity": 0.9133858267716536,
                    "duration": 0.09375
                }
            ],
            "controlChanges": {
                "6": [
                    {
                        "number": 6,
                        "time": 0.9791666666666666,
                        "value": 0.4015748031496063
                    },
                    {
                        "number": 6,
                        "time": 0.9999999999999999,
                        "value": 0.5984251968503937
                    }
                ],
                "7": [
                    {
                        "number": 7,
                        "time": 0,
                        "value": 0.9448818897637795
                    }
                ],
                "11": [
                    {
                        "number": 11,
                        "time": 1.0416666666666665,
                        "value": 0.9448818897637795
                    }
                ],
                "32": [
                    {
                        "number": 32,
                        "time": 0.9375,
                        "value": 0.007874015748031496
                    }
                ],
                "91": [
                    {
                        "number": 91,
                        "time": 1.0104166666666665,
                        "value": 0.31496062992125984
                    }
                ],
                "93": [
                    {
                        "number": 93,
                        "time": 1.0208333333333333,
                        "value": 0.15748031496062992
                    }
                ],
                "98": [
                    {
                        "number": 98,
                        "time": 0.96875,
                        "value": 0.25196850393700787
                    },
                    {
                        "number": 98,
                        "time": 0.9895833333333333,
                        "value": 0.8031496062992126
                    }
                ],
                "99": [
                    {
                        "number": 99,
                        "time": 0.9583333333333334,
                        "value": 0.007874015748031496
                    }
                ]
            },
            "id": 8,
            "name": "G-OPEN",
            "instrumentNumber": 40,
            "instrument": "violin",
            "instrumentFamily": "strings",
            "channelNumber": 7,
            "isPercussion": false
        },
        {
            "startTime": 168.65625,
            "duration": 169.395833333333,
            "length": 12,
            "notes": [
                {
                    "name": "D5",
                    "midi": 74,
                    "time": 168.65625,
                    "velocity": 0.8110236220472441,
                    "duration": 0.1458333333332007
                },
                {
                    "name": "C#5",
                    "midi": 73,
                    "time": 168.79166666666654,
                    "velocity": 0.8267716535433071,
                    "duration": 0.06249999999997158
                },
                {
                    "name": "D5",
                    "midi": 74,
                    "time": 168.84374999999986,
                    "velocity": 0.8110236220472441,
                    "duration": 0.0625
                },
                {
                    "name": "C#5",
                    "midi": 73,
                    "time": 168.8958333333332,
                    "velocity": 0.8267716535433071,
                    "duration": 0.06249999999997158
                },
                {
                    "name": "D5",
                    "midi": 74,
                    "time": 168.94791666666652,
                    "velocity": 0.8110236220472441,
                    "duration": 0.06249999999997158
                },
                {
                    "name": "C#5",
                    "midi": 73,
                    "time": 168.99999999999983,
                    "velocity": 0.8267716535433071,
                    "duration": 0.06249999999997158
                },
                {
                    "name": "D5",
                    "midi": 74,
                    "time": 169.05208333333314,
                    "velocity": 0.8110236220472441,
                    "duration": 0.06249999999997158
                },
                {
                    "name": "C#5",
                    "midi": 73,
                    "time": 169.10416666666646,
                    "velocity": 0.8267716535433071,
                    "duration": 0.06249999999997158
                },
                {
                    "name": "D5",
                    "midi": 74,
                    "time": 169.15624999999977,
                    "velocity": 0.8110236220472441,
                    "duration": 0.06249999999997158
                },
                {
                    "name": "C#5",
                    "midi": 73,
                    "time": 169.2083333333331,
                    "velocity": 0.8267716535433071,
                    "duration": 0.06249999999997158
                },
                {
                    "name": "D5",
                    "midi": 74,
                    "time": 169.2604166666664,
                    "velocity": 0.8110236220472441,
                    "duration": 0.0625
                },
                {
                    "name": "C#5",
                    "midi": 73,
                    "time": 169.31249999999974,
                    "velocity": 0.8267716535433071,
                    "duration": 0.08333333333325754
                }
            ],
            "controlChanges": {
                "6": [
                    {
                        "number": 6,
                        "time": 1.0833333333333335,
                        "value": 0.09448818897637795
                    },
                    {
                        "number": 6,
                        "time": 1.1145833333333337,
                        "value": 0.4251968503937008
                    },
                    {
                        "number": 6,
                        "time": 1.1354166666666672,
                        "value": 0.5196850393700787
                    },
                    {
                        "number": 6,
                        "time": 1.1562500000000007,
                        "value": 0.5196850393700787
                    }
                ],
                "7": [
                    {
                        "number": 7,
                        "time": 0,
                        "value": 0.9448818897637795
                    }
                ],
                "11": [
                    {
                        "number": 11,
                        "time": 1.1979166666666674,
                        "value": 0.9448818897637795
                    },
                    {
                        "number": 11,
                        "time": 168.65625,
                        "value": 0.6692913385826772
                    },
                    {
                        "number": 11,
                        "time": 168.66666666666666,
                        "value": 0.7007874015748031
                    },
                    {
                        "number": 11,
                        "time": 168.67708333333331,
                        "value": 0.7165354330708661
                    },
                    {
                        "number": 11,
                        "time": 168.68749999999997,
                        "value": 0.7322834645669292
                    },
                    {
                        "number": 11,
                        "time": 168.69791666666663,
                        "value": 0.7480314960629921
                    },
                    {
                        "number": 11,
                        "time": 168.7083333333333,
                        "value": 0.7637795275590551
                    },
                    {
                        "number": 11,
                        "time": 168.71874999999994,
                        "value": 0.7795275590551181
                    },
                    {
                        "number": 11,
                        "time": 168.7291666666666,
                        "value": 0.7952755905511811
                    },
                    {
                        "number": 11,
                        "time": 168.73958333333326,
                        "value": 0.8031496062992126
                    },
                    {
                        "number": 11,
                        "time": 168.74999999999991,
                        "value": 0.8110236220472441
                    },
                    {
                        "number": 11,
                        "time": 168.76041666666657,
                        "value": 0.8267716535433071
                    },
                    {
                        "number": 11,
                        "time": 168.77083333333323,
                        "value": 0.8346456692913385
                    },
                    {
                        "number": 11,
                        "time": 168.7812499999999,
                        "value": 0.84251968503937
                    },
                    {
                        "number": 11,
                        "time": 168.79166666666654,
                        "value": 0.8503937007874016
                    },
                    {
                        "number": 11,
                        "time": 168.8020833333332,
                        "value": 0.8582677165354331
                    },
                    {
                        "number": 11,
                        "time": 168.81249999999986,
                        "value": 0.8661417322834646
                    },
                    {
                        "number": 11,
                        "time": 168.82291666666652,
                        "value": 0.8740157480314961
                    },
                    {
                        "number": 11,
                        "time": 168.84374999999986,
                        "value": 0.8818897637795275
                    },
                    {
                        "number": 11,
                        "time": 168.85416666666652,
                        "value": 0.889763779527559
                    },
                    {
                        "number": 11,
                        "time": 168.87499999999986,
                        "value": 0.8976377952755905
                    },
                    {
                        "number": 11,
                        "time": 168.8958333333332,
                        "value": 0.905511811023622
                    },
                    {
                        "number": 11,
                        "time": 168.91666666666652,
                        "value": 0.9133858267716536
                    },
                    {
                        "number": 11,
                        "time": 168.94791666666652,
                        "value": 0.9212598425196851
                    },
                    {
                        "number": 11,
                        "time": 168.98958333333317,
                        "value": 0.9291338582677166
                    },
                    {
                        "number": 11,
                        "time": 169.0416666666665,
                        "value": 0.937007874015748
                    },
                    {
                        "number": 11,
                        "time": 169.12499999999977,
                        "value": 0.9448818897637795
                    },
                    {
                        "number": 11,
                        "time": 169.2604166666664,
                        "value": 0.937007874015748
                    },
                    {
                        "number": 11,
                        "time": 169.2916666666664,
                        "value": 0.9291338582677166
                    },
                    {
                        "number": 11,
                        "time": 169.31249999999974,
                        "value": 0.9212598425196851
                    },
                    {
                        "number": 11,
                        "time": 169.3229166666664,
                        "value": 0.9133858267716536
                    },
                    {
                        "number": 11,
                        "time": 169.33333333333306,
                        "value": 0.905511811023622
                    },
                    {
                        "number": 11,
                        "time": 169.34374999999972,
                        "value": 0.8976377952755905
                    },
                    {
                        "number": 11,
                        "time": 169.35416666666637,
                        "value": 0.8818897637795275
                    },
                    {
                        "number": 11,
                        "time": 169.36458333333303,
                        "value": 0.8661417322834646
                    },
                    {
                        "number": 11,
                        "time": 169.3749999999997,
                        "value": 0.8503937007874016
                    },
                    {
                        "number": 11,
                        "time": 169.38541666666634,
                        "value": 0.8188976377952756
                    },
                    {
                        "number": 11,
                        "time": 169.395833333333,
                        "value": 0.7874015748031497
                    }
                ],
                "32": [
                    {
                        "number": 32,
                        "time": 1.0416666666666667,
                        "value": 0.007874015748031496
                    }
                ],
                "91": [
                    {
                        "number": 91,
                        "time": 1.1666666666666674,
                        "value": 0.31496062992125984
                    }
                ],
                "93": [
                    {
                        "number": 93,
                        "time": 1.1770833333333341,
                        "value": 0.11811023622047244
                    }
                ],
                "98": [
                    {
                        "number": 98,
                        "time": 1.104166666666667,
                        "value": 0.25196850393700787
                    },
                    {
                        "number": 98,
                        "time": 1.1250000000000004,
                        "value": 0.7795275590551181
                    },
                    {
                        "number": 98,
                        "time": 1.145833333333334,
                        "value": 0.8031496062992126
                    }
                ],
                "99": [
                    {
                        "number": 99,
                        "time": 1.0937500000000002,
                        "value": 0.007874015748031496
                    }
                ],
                "100": [
                    {
                        "number": 100,
                        "time": 1.0729166666666667,
                        "value": 0
                    }
                ],
                "101": [
                    {
                        "number": 101,
                        "time": 1.0625,
                        "value": 0
                    }
                ]
            },
            "id": 9,
            "name": "Tr.",
            "instrumentNumber": 40,
            "instrument": "violin",
            "instrumentFamily": "strings",
            "channelNumber": 8,
            "isPercussion": false
        },
        {
            "startTime": 173.15625,
            "duration": 173.895833333333,
            "length": 12,
            "notes": [
                {
                    "name": "D4",
                    "midi": 62,
                    "time": 173.15625,
                    "velocity": 0.7086614173228346,
                    "duration": 0.1458333333332007
                },
                {
                    "name": "C#4",
                    "midi": 61,
                    "time": 173.29166666666654,
                    "velocity": 0.7244094488188977,
                    "duration": 0.06249999999997158
                },
                {
                    "name": "D4",
                    "midi": 62,
                    "time": 173.34374999999986,
                    "velocity": 0.7086614173228346,
                    "duration": 0.0625
                },
                {
                    "name": "C#4",
                    "midi": 61,
                    "time": 173.3958333333332,
                    "velocity": 0.7244094488188977,
                    "duration": 0.06249999999997158
                },
                {
                    "name": "D4",
                    "midi": 62,
                    "time": 173.44791666666652,
                    "velocity": 0.7086614173228346,
                    "duration": 0.06249999999997158
                },
                {
                    "name": "C#4",
                    "midi": 61,
                    "time": 173.49999999999983,
                    "velocity": 0.7244094488188977,
                    "duration": 0.06249999999997158
                },
                {
                    "name": "D4",
                    "midi": 62,
                    "time": 173.55208333333314,
                    "velocity": 0.7086614173228346,
                    "duration": 0.06249999999997158
                },
                {
                    "name": "C#4",
                    "midi": 61,
                    "time": 173.60416666666646,
                    "velocity": 0.7244094488188977,
                    "duration": 0.06249999999997158
                },
                {
                    "name": "D4",
                    "midi": 62,
                    "time": 173.65624999999977,
                    "velocity": 0.7086614173228346,
                    "duration": 0.06249999999997158
                },
                {
                    "name": "C#4",
                    "midi": 61,
                    "time": 173.7083333333331,
                    "velocity": 0.7244094488188977,
                    "duration": 0.06249999999997158
                },
                {
                    "name": "D4",
                    "midi": 62,
                    "time": 173.7604166666664,
                    "velocity": 0.7086614173228346,
                    "duration": 0.0625
                },
                {
                    "name": "C#4",
                    "midi": 61,
                    "time": 173.81249999999974,
                    "velocity": 0.7244094488188977,
                    "duration": 0.08333333333325754
                }
            ],
            "controlChanges": {
                "6": [
                    {
                        "number": 6,
                        "time": 1.1875,
                        "value": 0.09448818897637795
                    },
                    {
                        "number": 6,
                        "time": 1.2187500000000002,
                        "value": 0.3858267716535433
                    },
                    {
                        "number": 6,
                        "time": 1.2395833333333337,
                        "value": 0.5196850393700787
                    },
                    {
                        "number": 6,
                        "time": 1.2604166666666672,
                        "value": 0.5196850393700787
                    }
                ],
                "7": [
                    {
                        "number": 7,
                        "time": 0,
                        "value": 0.9448818897637795
                    }
                ],
                "11": [
                    {
                        "number": 11,
                        "time": 1.302083333333334,
                        "value": 0.9448818897637795
                    },
                    {
                        "number": 11,
                        "time": 173.15625,
                        "value": 0.6692913385826772
                    },
                    {
                        "number": 11,
                        "time": 173.16666666666666,
                        "value": 0.7007874015748031
                    },
                    {
                        "number": 11,
                        "time": 173.17708333333331,
                        "value": 0.7165354330708661
                    },
                    {
                        "number": 11,
                        "time": 173.18749999999997,
                        "value": 0.7322834645669292
                    },
                    {
                        "number": 11,
                        "time": 173.19791666666663,
                        "value": 0.7480314960629921
                    },
                    {
                        "number": 11,
                        "time": 173.2083333333333,
                        "value": 0.7637795275590551
                    },
                    {
                        "number": 11,
                        "time": 173.21874999999994,
                        "value": 0.7795275590551181
                    },
                    {
                        "number": 11,
                        "time": 173.2291666666666,
                        "value": 0.7952755905511811
                    },
                    {
                        "number": 11,
                        "time": 173.23958333333326,
                        "value": 0.8031496062992126
                    },
                    {
                        "number": 11,
                        "time": 173.24999999999991,
                        "value": 0.8110236220472441
                    },
                    {
                        "number": 11,
                        "time": 173.26041666666657,
                        "value": 0.8267716535433071
                    },
                    {
                        "number": 11,
                        "time": 173.27083333333323,
                        "value": 0.8346456692913385
                    },
                    {
                        "number": 11,
                        "time": 173.2812499999999,
                        "value": 0.84251968503937
                    },
                    {
                        "number": 11,
                        "time": 173.29166666666654,
                        "value": 0.8503937007874016
                    },
                    {
                        "number": 11,
                        "time": 173.3020833333332,
                        "value": 0.8582677165354331
                    },
                    {
                        "number": 11,
                        "time": 173.31249999999986,
                        "value": 0.8661417322834646
                    },
                    {
                        "number": 11,
                        "time": 173.32291666666652,
                        "value": 0.8740157480314961
                    },
                    {
                        "number": 11,
                        "time": 173.34374999999986,
                        "value": 0.8818897637795275
                    },
                    {
                        "number": 11,
                        "time": 173.35416666666652,
                        "value": 0.889763779527559
                    },
                    {
                        "number": 11,
                        "time": 173.37499999999986,
                        "value": 0.8976377952755905
                    },
                    {
                        "number": 11,
                        "time": 173.3958333333332,
                        "value": 0.905511811023622
                    },
                    {
                        "number": 11,
                        "time": 173.41666666666652,
                        "value": 0.9133858267716536
                    },
                    {
                        "number": 11,
                        "time": 173.44791666666652,
                        "value": 0.9212598425196851
                    },
                    {
                        "number": 11,
                        "time": 173.48958333333317,
                        "value": 0.9291338582677166
                    },
                    {
                        "number": 11,
                        "time": 173.5416666666665,
                        "value": 0.937007874015748
                    },
                    {
                        "number": 11,
                        "time": 173.62499999999977,
                        "value": 0.9448818897637795
                    },
                    {
                        "number": 11,
                        "time": 173.7604166666664,
                        "value": 0.937007874015748
                    },
                    {
                        "number": 11,
                        "time": 173.7916666666664,
                        "value": 0.9291338582677166
                    },
                    {
                        "number": 11,
                        "time": 173.81249999999974,
                        "value": 0.9212598425196851
                    },
                    {
                        "number": 11,
                        "time": 173.8229166666664,
                        "value": 0.9133858267716536
                    },
                    {
                        "number": 11,
                        "time": 173.83333333333306,
                        "value": 0.905511811023622
                    },
                    {
                        "number": 11,
                        "time": 173.84374999999972,
                        "value": 0.8976377952755905
                    },
                    {
                        "number": 11,
                        "time": 173.85416666666637,
                        "value": 0.8818897637795275
                    },
                    {
                        "number": 11,
                        "time": 173.86458333333303,
                        "value": 0.8661417322834646
                    },
                    {
                        "number": 11,
                        "time": 173.8749999999997,
                        "value": 0.8503937007874016
                    },
                    {
                        "number": 11,
                        "time": 173.88541666666634,
                        "value": 0.8188976377952756
                    },
                    {
                        "number": 11,
                        "time": 173.895833333333,
                        "value": 0.7874015748031497
                    }
                ],
                "32": [
                    {
                        "number": 32,
                        "time": 1.1458333333333333,
                        "value": 0.007874015748031496
                    }
                ],
                "91": [
                    {
                        "number": 91,
                        "time": 1.270833333333334,
                        "value": 0.31496062992125984
                    }
                ],
                "93": [
                    {
                        "number": 93,
                        "time": 1.2812500000000007,
                        "value": 0.15748031496062992
                    }
                ],
                "98": [
                    {
                        "number": 98,
                        "time": 1.2083333333333335,
                        "value": 0.25196850393700787
                    },
                    {
                        "number": 98,
                        "time": 1.229166666666667,
                        "value": 0.7795275590551181
                    },
                    {
                        "number": 98,
                        "time": 1.2500000000000004,
                        "value": 0.8031496062992126
                    }
                ],
                "99": [
                    {
                        "number": 99,
                        "time": 1.1979166666666667,
                        "value": 0.007874015748031496
                    }
                ],
                "100": [
                    {
                        "number": 100,
                        "time": 1.1770833333333333,
                        "value": 0
                    }
                ],
                "101": [
                    {
                        "number": 101,
                        "time": 1.1666666666666665,
                        "value": 0
                    }
                ]
            },
            "id": 10,
            "name": "Tr.",
            "instrumentNumber": 40,
            "instrument": "brush kit",
            "instrumentFamily": "drums",
            "channelNumber": 10,
            "isPercussion": true
        },
        {
            "startTime": 0,
            "duration": 0,
            "length": 0,
            "notes": [],
            "controlChanges": {},
            "id": 11,
            "name": "TEMPO,EXCLUSIVE"
        }
    ]
}