{
    "header": {
        "PPQ": 120,
        "timeSignature": [
            2,
            4
        ],
        "bpm": 120,
        "name": ""
    },
    "startTime": 0,
    "duration": 206.50000000000034,
    "tracks": [
        {
            "startTime": 0,
            "duration": 0,
            "length": 0,
            "notes": [],
            "controlChanges": {},
            "id": 0
        },
        {
            "startTime": 0,
            "duration": 206.50000000000034,
            "length": 1700,
            "notes": [
                {
                    "name": "A4",
                    "midi": 69,
                    "time": 0,
                    "velocity": 0.7874015748031497,
                    "duration": 0.25
                },
                {
                    "name": "A4",
                    "midi": 69,
                    "time": 0.375,
                    "velocity": 0.7874015748031497,
                    "duration": 0.125
                },
                {
                    "name": "A4",
                    "midi": 69,
                    "time": 0.5,
                    "velocity": 0.7874015748031497,
                    "duration": 0.125
                },
                {
                    "name": "C5",
                    "midi": 72,
                    "time": 0.625,
                    "velocity": 0.7874015748031497,
                    "duration": 0.125
                },
                {
                    "name": "B4",
                    "midi": 71,
                    "time": 0.75,
                    "velocity": 0.7874015748031497,
                    "duration": 0.125
                },
                {
                    "name": "A4",
                    "midi": 69,
                    "time": 0.875,
                    "velocity": 0.7874015748031497,
                    "duration": 0.125
                },
                {
                    "name": "E5",
                    "midi": 76,
                    "time": 1,
                    "velocity": 0.7874015748031497,
                    "duration": 0.25
                },
                {
                    "name": "E4",
                    "midi": 64,
                    "time": 1.375,
                    "velocity": 0.7874015748031497,
                    "duration": 0.125
                },
                {
                    "name": "E4",
                    "midi": 64,
                    "time": 1.5,
                    "velocity": 0.7874015748031497,
                    "duration": 0.125
                },
                {
                    "name": "G#4",
                    "midi": 68,
                    "time": 1.625,
                    "velocity": 0.7874015748031497,
                    "duration": 0.125
                },
                {
                    "name": "F#4",
                    "midi": 66,
                    "time": 1.75,
                    "velocity": 0.7874015748031497,
                    "duration": 0.125
                },
                {
                    "name": "E4",
                    "midi": 64,
                    "time": 1.875,
                    "velocity": 0.7874015748031497,
                    "duration": 0.125
                },
                {
                    "name": "A4",
                    "midi": 69,
                    "time": 2,
                    "velocity": 0.7874015748031497,
                    "duration": 0.25
                },
                {
                    "name": "A4",
                    "midi": 69,
                    "time": 2.375,
                    "velocity": 0.7874015748031497,
                    "duration": 0.125
                },
                {
                    "name": "A4",
                    "midi": 69,
                    "time": 2.5,
                    "velocity": 0.7874015748031497,
                    "duration": 0.125
                },
                {
                    "name": "C5",
                    "midi": 72,
                    "time": 2.625,
                    "velocity": 0.7874015748031497,
                    "duration": 0.125
                },
                {
                    "name": "B4",
                    "midi": 71,
                    "time": 2.75,
                    "velocity": 0.7874015748031497,
                    "duration": 0.125
                },
                {
                    "name": "A4",
                    "midi": 69,
                    "time": 2.875,
                    "velocity": 0.7874015748031497,
                    "duration": 0.125
                },
                {
                    "name": "E5",
                    "midi": 76,
                    "time": 3,
                    "velocity": 0.7874015748031497,
                    "duration": 0.5
                },
                {
                    "name": "E4",
                    "midi": 64,
                    "time": 3.5,
                    "velocity": 0.7874015748031497,
                    "duration": 0.25
                },
                {
                    "name": "A4",
                    "midi": 69,
                    "time": 4,
                    "velocity": 0.7874015748031497,
                    "duration": 0.25
                },
                {
                    "name": "A4",
                    "midi": 69,
                    "time": 4.375,
                    "velocity": 0.7874015748031497,
                    "duration": 0.125
                },
                {
                    "name": "A4",
                    "midi": 69,
                    "time": 4.5,
                    "velocity": 0.7874015748031497,
                    "duration": 0.125
                },
                {
                    "name": "C5",
                    "midi": 72,
                    "time": 4.625,
                    "velocity": 0.7874015748031497,
                    "duration": 0.125
                },
                {
                    "name": "B4",
                    "midi": 71,
                    "time": 4.75,
                    "velocity": 0.7874015748031497,
                    "duration": 0.125
                },
                {
                    "name": "A4",
                    "midi": 69,
                    "time": 4.875,
                    "velocity": 0.7874015748031497,
                    "duration": 0.125
                },
                {
                    "name": "E5",
                    "midi": 76,
                    "time": 5,
                    "velocity": 0.7874015748031497,
                    "duration": 0.25
                },
                {
                    "name": "E4",
                    "midi": 64,
                    "time": 5.375,
                    "velocity": 0.7874015748031497,
                    "duration": 0.125
                },
                {
                    "name": "E4",
                    "midi": 64,
                    "time": 5.5,
                    "velocity": 0.7874015748031497,
                    "duration": 0.125
                },
                {
                    "name": "G#4",
                    "midi": 68,
                    "time": 5.625,
                    "velocity": 0.7874015748031497,
                    "duration": 0.125
                },
                {
                    "name": "F#4",
                    "midi": 66,
                    "time": 5.75,
                    "velocity": 0.7874015748031497,
                    "duration": 0.125
                },
                {
                    "name": "E4",
                    "midi": 64,
                    "time": 5.875,
                    "velocity": 0.7874015748031497,
                    "duration": 0.125
                },
                {
                    "name": "A4",
                    "midi": 69,
                    "time": 6,
                    "velocity": 0.7874015748031497,
                    "duration": 0.25
                },
                {
                    "name": "A4",
                    "midi": 69,
                    "time": 6.375,
                    "velocity": 0.7874015748031497,
                    "duration": 0.125
                },
                {
                    "name": "A4",
                    "midi": 69,
                    "time": 6.5,
                    "velocity": 0.7874015748031497,
                    "duration": 0.125
                },
                {
                    "name": "C5",
                    "midi": 72,
                    "time": 6.625,
                    "velocity": 0.7874015748031497,
                    "duration": 0.125
                },
                {
                    "name": "B4",
                    "midi": 71,
                    "time": 6.75,
                    "velocity": 0.7874015748031497,
                    "duration": 0.125
                },
                {
                    "name": "A4",
                    "midi": 69,
                    "time": 6.875,
                    "velocity": 0.7874015748031497,
                    "duration": 0.125
                },
                {
                    "name": "E5",
                    "midi": 76,
                    "time": 7,
                    "velocity": 0.7874015748031497,
                    "duration": 0.5
                },
                {
                    "name": "E4",
                    "midi": 64,
                    "time": 7.5,
                    "velocity": 0.7874015748031497,
                    "duration": 0.25
                },
                {
                    "name": "A5",
                    "midi": 81,
                    "time": 8,
                    "velocity": 0.7874015748031497,
                    "duration": 0.25
                },
                {
                    "name": "A5",
                    "midi": 81,
                    "time": 8.375,
                    "velocity": 0.7874015748031497,
                    "duration": 0.125
                },
                {
                    "name": "A5",
                    "midi": 81,
                    "time": 8.5,
                    "velocity": 0.7874015748031497,
                    "duration": 0.125
                },
                {
                    "name": "A#5",
                    "midi": 82,
                    "time": 8.625,
                    "velocity": 0.7874015748031497,
                    "duration": 0.125
                },
                {
                    "name": "A5",
                    "midi": 81,
                    "time": 8.75,
                    "velocity": 0.7874015748031497,
                    "duration": 0.125
                },
                {
                    "name": "G5",
                    "midi": 79,
                    "time": 8.875,
                    "velocity": 0.7874015748031497,
                    "duration": 0.125
                },
                {
                    "name": "F5",
                    "midi": 77,
                    "time": 9,
                    "velocity": 0.7874015748031497,
                    "duration": 0.25
                },
                {
                    "name": "D5",
                    "midi": 74,
                    "time": 9.375,
                    "velocity": 0.7874015748031497,
                    "duration": 0.125
                },
                {
                    "name": "D5",
                    "midi": 74,
                    "time": 9.5,
                    "velocity": 0.7874015748031497,
                    "duration": 0.125
                },
                {
                    "name": "F5",
                    "midi": 77,
                    "time": 9.625,
                    "velocity": 0.7874015748031497,
                    "duration": 0.125
                },
                {
                    "name": "E5",
                    "midi": 76,
                    "time": 9.75,
                    "velocity": 0.7874015748031497,
                    "duration": 0.125
                },
                {
                    "name": "D5",
                    "midi": 74,
                    "time": 9.875,
                    "velocity": 0.7874015748031497,
                    "duration": 0.125
                },
                {
                    "name": "G5",
                    "midi": 79,
                    "time": 10,
                    "velocity": 0.7874015748031497,
                    "duration": 0.25
                },
                {
                    "name": "G5",
                    "midi": 79,
                    "time": 10.375,
                    "velocity": 0.7874015748031497,
                    "duration": 0.125
                },
                {
                    "name": "G5",
                    "midi": 79,
                    "time": 10.5,
                    "velocity": 0.7874015748031497,
                    "duration": 0.125
                },
                {
                    "name": "A5",
                    "midi": 81,
                    "time": 10.625,
                    "velocity": 0.7874015748031497,
                    "duration": 0.125
                },
                {
                    "name": "G5",
                    "midi": 79,
                    "time": 10.75,
                    "velocity": 0.7874015748031497,
                    "duration": 0.125
                },
                {
                    "name": "F5",
                    "midi": 77,
                    "time": 10.875,
                    "velocity": 0.7874015748031497,
                    "duration": 0.125
                },
                {
                    "name": "E5",
                    "midi": 76,
                    "time": 11,
                    "velocity": 0.7874015748031497,
                    "duration": 0.25
                },
                {
                    "name": "C5",
                    "midi": 72,
                    "time": 11.375,
                    "velocity": 0.7874015748031497,
                    "duration": 0.125
                },
                {
                    "name": "C5",
                    "midi": 72,
                    "time": 11.5,
                    "velocity": 0.7874015748031497,
                    "duration": 0.125
                },
                {
                    "name": "E5",
                    "midi": 76,
                    "time": 11.625,
                    "velocity": 0.7874015748031497,
                    "duration": 0.125
                },
                {
                    "name": "D5",
                    "midi": 74,
                    "time": 11.75,
                    "velocity": 0.7874015748031497,
                    "duration": 0.125
                },
                {
                    "name": "C5",
                    "midi": 72,
                    "time": 11.875,
                    "velocity": 0.7874015748031497,
                    "duration": 0.125
                },
                {
                    "name": "F5",
                    "midi": 77,
                    "time": 12,
                    "velocity": 0.7874015748031497,
                    "duration": 0.25
                },
                {
                    "name": "B4",
                    "midi": 71,
                    "time": 12.375,
                    "velocity": 0.7874015748031497,
                    "duration": 0.125
                },
                {
                    "name": "B4",
                    "midi": 71,
                    "time": 12.5,
                    "velocity": 0.7874015748031497,
                    "duration": 0.125
                },
                {
                    "name": "D5",
                    "midi": 74,
                    "time": 12.625,
                    "velocity": 0.7874015748031497,
                    "duration": 0.125
                },
                {
                    "name": "C5",
                    "midi": 72,
                    "time": 12.75,
                    "velocity": 0.7874015748031497,
                    "duration": 0.125
                },
                {
                    "name": "B4",
                    "midi": 71,
                    "time": 12.875,
                    "velocity": 0.7874015748031497,
                    "duration": 0.125
                },
                {
                    "name": "E5",
                    "midi": 76,
                    "time": 13,
                    "velocity": 0.7874015748031497,
                    "duration": 0.25
                },
                {
                    "name": "A4",
                    "midi": 69,
                    "time": 13.375,
                    "velocity": 0.7874015748031497,
                    "duration": 0.125
                },
                {
                    "name": "A4",
                    "midi": 69,
                    "time": 13.5,
                    "velocity": 0.7874015748031497,
                    "duration": 0.125
                },
                {
                    "name": "C5",
                    "midi": 72,
                    "time": 13.625,
                    "velocity": 0.7874015748031497,
                    "duration": 0.125
                },
                {
                    "name": "B4",
                    "midi": 71,
                    "time": 13.75,
                    "velocity": 0.7874015748031497,
                    "duration": 0.125
                },
                {
                    "name": "A4",
                    "midi": 69,
                    "time": 13.875,
                    "velocity": 0.7874015748031497,
                    "duration": 0.125
                },
                {
                    "name": "F4",
                    "midi": 65,
                    "time": 14,
                    "velocity": 0.7874015748031497,
                    "duration": 0.25
                },
                {
                    "name": "D#5",
                    "midi": 75,
                    "time": 14.375,
                    "velocity": 0.7874015748031497,
                    "duration": 0.125
                },
                {
                    "name": "E4",
                    "midi": 64,
                    "time": 14.5,
                    "velocity": 0.7874015748031497,
                    "duration": 0.125
                },
                {
                    "name": "E5",
                    "midi": 76,
                    "time": 14.625,
                    "velocity": 0.7874015748031497,
                    "duration": 0.125
                },
                {
                    "name": "D5",
                    "midi": 74,
                    "time": 14.75,
                    "velocity": 0.7874015748031497,
                    "duration": 0.125
                },
                {
                    "name": "B4",
                    "midi": 71,
                    "time": 14.875,
                    "velocity": 0.7874015748031497,
                    "duration": 0.125
                },
                {
                    "name": "A4",
                    "midi": 69,
                    "time": 15,
                    "velocity": 0.7874015748031497,
                    "duration": 0.5
                },
                {
                    "name": "A3",
                    "midi": 57,
                    "time": 15.5,
                    "velocity": 0.7874015748031497,
                    "duration": 0.25
                },
                {
                    "name": "E6",
                    "midi": 88,
                    "time": 16,
                    "velocity": 0.7874015748031497,
                    "duration": 0.16666666666666785
                },
                {
                    "name": "C6",
                    "midi": 84,
                    "time": 16.166666666666668,
                    "velocity": 0.7874015748031497,
                    "duration": 0.16666666666666785
                },
                {
                    "name": "A5",
                    "midi": 81,
                    "time": 16.333333333333336,
                    "velocity": 0.7874015748031497,
                    "duration": 0.16666666666666785
                },
                {
                    "name": "E5",
                    "midi": 76,
                    "time": 16.500000000000004,
                    "velocity": 0.7874015748031497,
                    "duration": 0.16666666666666785
                },
                {
                    "name": "C5",
                    "midi": 72,
                    "time": 16.66666666666667,
                    "velocity": 0.7874015748031497,
                    "duration": 0.16666666666666785
                },
                {
                    "name": "A4",
                    "midi": 69,
                    "time": 16.83333333333334,
                    "velocity": 0.7874015748031497,
                    "duration": 0.16666666666666785
                },
                {
                    "name": "B5",
                    "midi": 83,
                    "time": 17.000000000000007,
                    "velocity": 0.7874015748031497,
                    "duration": 0.16666666666666785
                },
                {
                    "name": "G#5",
                    "midi": 80,
                    "time": 17.166666666666675,
                    "velocity": 0.7874015748031497,
                    "duration": 0.16666666666666785
                },
                {
                    "name": "E5",
                    "midi": 76,
                    "time": 17.333333333333343,
                    "velocity": 0.7874015748031497,
                    "duration": 0.16666666666666785
                },
                {
                    "name": "B4",
                    "midi": 71,
                    "time": 17.50000000000001,
                    "velocity": 0.7874015748031497,
                    "duration": 0.16666666666666785
                },
                {
                    "name": "G#4",
                    "midi": 68,
                    "time": 17.66666666666668,
                    "velocity": 0.7874015748031497,
                    "duration": 0.16666666666666785
                },
                {
                    "name": "E4",
                    "midi": 64,
                    "time": 17.833333333333346,
                    "velocity": 0.7874015748031497,
                    "duration": 0.16666666666666785
                },
                {
                    "name": "E6",
                    "midi": 88,
                    "time": 18.000000000000014,
                    "velocity": 0.7874015748031497,
                    "duration": 0.16666666666666785
                },
                {
                    "name": "C6",
                    "midi": 84,
                    "time": 18.166666666666682,
                    "velocity": 0.7874015748031497,
                    "duration": 0.16666666666666785
                },
                {
                    "name": "A5",
                    "midi": 81,
                    "time": 18.33333333333335,
                    "velocity": 0.7874015748031497,
                    "duration": 0.16666666666666785
                },
                {
                    "name": "E5",
                    "midi": 76,
                    "time": 18.500000000000018,
                    "velocity": 0.7874015748031497,
                    "duration": 0.16666666666666785
                },
                {
                    "name": "C5",
                    "midi": 72,
                    "time": 18.666666666666686,
                    "velocity": 0.7874015748031497,
                    "duration": 0.16666666666666785
                },
                {
                    "name": "A4",
                    "midi": 69,
                    "time": 18.833333333333353,
                    "velocity": 0.7874015748031497,
                    "duration": 0.16666666666666785
                },
                {
                    "name": "E5",
                    "midi": 76,
                    "time": 19.00000000000002,
                    "velocity": 0.7874015748031497,
                    "duration": 0.5
                },
                {
                    "name": "E4",
                    "midi": 64,
                    "time": 19.50000000000002,
                    "velocity": 0.7874015748031497,
                    "duration": 0.25
                },
                {
                    "name": "E6",
                    "midi": 88,
                    "time": 20.00000000000002,
                    "velocity": 0.7874015748031497,
                    "duration": 0.16666666666666785
                },
                {
                    "name": "C6",
                    "midi": 84,
                    "time": 20.16666666666669,
                    "velocity": 0.7874015748031497,
                    "duration": 0.16666666666666785
                },
                {
                    "name": "A5",
                    "midi": 81,
                    "time": 20.333333333333357,
                    "velocity": 0.7874015748031497,
                    "duration": 0.16666666666666785
                },
                {
                    "name": "E5",
                    "midi": 76,
                    "time": 20.500000000000025,
                    "velocity": 0.7874015748031497,
                    "duration": 0.16666666666666785
                },
                {
                    "name": "C5",
                    "midi": 72,
                    "time": 20.666666666666693,
                    "velocity": 0.7874015748031497,
                    "duration": 0.16666666666666785
                },
                {
                    "name": "A4",
                    "midi": 69,
                    "time": 20.83333333333336,
                    "velocity": 0.7874015748031497,
                    "duration": 0.16666666666666785
                },
                {
                    "name": "B5",
                    "midi": 83,
                    "time": 21.00000000000003,
                    "velocity": 0.7874015748031497,
                    "duration": 0.16666666666666785
                },
                {
                    "name": "G#5",
                    "midi": 80,
                    "time": 21.166666666666696,
                    "velocity": 0.7874015748031497,
                    "duration": 0.16666666666666785
                },
                {
                    "name": "E5",
                    "midi": 76,
                    "time": 21.333333333333364,
                    "velocity": 0.7874015748031497,
                    "duration": 0.16666666666666785
                },
                {
                    "name": "B4",
                    "midi": 71,
                    "time": 21.500000000000032,
                    "velocity": 0.7874015748031497,
                    "duration": 0.16666666666666785
                },
                {
                    "name": "G#4",
                    "midi": 68,
                    "time": 21.6666666666667,
                    "velocity": 0.7874015748031497,
                    "duration": 0.16666666666666785
                },
                {
                    "name": "E4",
                    "midi": 64,
                    "time": 21.833333333333368,
                    "velocity": 0.7874015748031497,
                    "duration": 0.16666666666666785
                },
                {
                    "name": "E6",
                    "midi": 88,
                    "time": 22.000000000000036,
                    "velocity": 0.7874015748031497,
                    "duration": 0.16666666666666785
                },
                {
                    "name": "C6",
                    "midi": 84,
                    "time": 22.166666666666703,
                    "velocity": 0.7874015748031497,
                    "duration": 0.16666666666666785
                },
                {
                    "name": "A5",
                    "midi": 81,
                    "time": 22.33333333333337,
                    "velocity": 0.7874015748031497,
                    "duration": 0.16666666666666785
                },
                {
                    "name": "E5",
                    "midi": 76,
                    "time": 22.50000000000004,
                    "velocity": 0.7874015748031497,
                    "duration": 0.16666666666666785
                },
                {
                    "name": "C5",
                    "midi": 72,
                    "time": 22.666666666666707,
                    "velocity": 0.7874015748031497,
                    "duration": 0.16666666666666785
                },
                {
                    "name": "A4",
                    "midi": 69,
                    "time": 22.833333333333375,
                    "velocity": 0.7874015748031497,
                    "duration": 0.16666666666666785
                },
                {
                    "name": "E5",
                    "midi": 76,
                    "time": 23.000000000000043,
                    "velocity": 0.7874015748031497,
                    "duration": 0.5
                },
                {
                    "name": "E4",
                    "midi": 64,
                    "time": 23.500000000000043,
                    "velocity": 0.7874015748031497,
                    "duration": 0.25
                },
                {
                    "name": "A6",
                    "midi": 93,
                    "time": 24.000000000000043,
                    "velocity": 0.7874015748031497,
                    "duration": 0.16666666666666785
                },
                {
                    "name": "E6",
                    "midi": 88,
                    "time": 24.16666666666671,
                    "velocity": 0.7874015748031497,
                    "duration": 0.16666666666666785
                },
                {
                    "name": "C#6",
                    "midi": 85,
                    "time": 24.33333333333338,
                    "velocity": 0.7874015748031497,
                    "duration": 0.16666666666666785
                },
                {
                    "name": "A5",
                    "midi": 81,
                    "time": 24.500000000000046,
                    "velocity": 0.7874015748031497,
                    "duration": 0.16666666666666785
                },
                {
                    "name": "E5",
                    "midi": 76,
                    "time": 24.666666666666714,
                    "velocity": 0.7874015748031497,
                    "duration": 0.16666666666666785
                },
                {
                    "name": "C5",
                    "midi": 72,
                    "time": 24.833333333333382,
                    "velocity": 0.7874015748031497,
                    "duration": 0.16666666666666785
                },
                {
                    "name": "A4",
                    "midi": 69,
                    "time": 25.00000000000005,
                    "velocity": 0.7874015748031497,
                    "duration": 0.16666666666666785
                },
                {
                    "name": "D5",
                    "midi": 74,
                    "time": 25.166666666666718,
                    "velocity": 0.7874015748031497,
                    "duration": 0.16666666666666785
                },
                {
                    "name": "F5",
                    "midi": 77,
                    "time": 25.333333333333385,
                    "velocity": 0.7874015748031497,
                    "duration": 0.16666666666666785
                },
                {
                    "name": "A5",
                    "midi": 81,
                    "time": 25.500000000000053,
                    "velocity": 0.7874015748031497,
                    "duration": 0.16666666666666785
                },
                {
                    "name": "D6",
                    "midi": 86,
                    "time": 25.66666666666672,
                    "velocity": 0.7874015748031497,
                    "duration": 0.16666666666666785
                },
                {
                    "name": "F6",
                    "midi": 89,
                    "time": 25.83333333333339,
                    "velocity": 0.7874015748031497,
                    "duration": 0.16666666666666785
                },
                {
                    "name": "G6",
                    "midi": 91,
                    "time": 26.000000000000057,
                    "velocity": 0.7874015748031497,
                    "duration": 0.16666666666666785
                },
                {
                    "name": "D6",
                    "midi": 86,
                    "time": 26.166666666666725,
                    "velocity": 0.7874015748031497,
                    "duration": 0.16666666666666785
                },
                {
                    "name": "B5",
                    "midi": 83,
                    "time": 26.333333333333393,
                    "velocity": 0.7874015748031497,
                    "duration": 0.16666666666666785
                },
                {
                    "name": "G5",
                    "midi": 79,
                    "time": 26.50000000000006,
                    "velocity": 0.7874015748031497,
                    "duration": 0.16666666666666785
                },
                {
                    "name": "D5",
                    "midi": 74,
                    "time": 26.66666666666673,
                    "velocity": 0.7874015748031497,
                    "duration": 0.16666666666666785
                },
                {
                    "name": "B4",
                    "midi": 71,
                    "time": 26.833333333333396,
                    "velocity": 0.7874015748031497,
                    "duration": 0.16666666666666785
                },
                {
                    "name": "G4",
                    "midi": 67,
                    "time": 27.000000000000064,
                    "velocity": 0.7874015748031497,
                    "duration": 0.16666666666666785
                },
                {
                    "name": "C5",
                    "midi": 72,
                    "time": 27.166666666666732,
                    "velocity": 0.7874015748031497,
                    "duration": 0.16666666666666785
                },
                {
                    "name": "E5",
                    "midi": 76,
                    "time": 27.3333333333334,
                    "velocity": 0.7874015748031497,
                    "duration": 0.16666666666666785
                },
                {
                    "name": "G5",
                    "midi": 79,
                    "time": 27.500000000000068,
                    "velocity": 0.7874015748031497,
                    "duration": 0.16666666666666785
                },
                {
                    "name": "C6",
                    "midi": 84,
                    "time": 27.666666666666735,
                    "velocity": 0.7874015748031497,
                    "duration": 0.16666666666666785
                },
                {
                    "name": "E6",
                    "midi": 88,
                    "time": 27.833333333333403,
                    "velocity": 0.7874015748031497,
                    "duration": 0.16666666666666785
                },
                {
                    "name": "B5",
                    "midi": 83,
                    "time": 28.00000000000007,
                    "velocity": 0.7874015748031497,
                    "duration": 0.16666666666666785
                },
                {
                    "name": "G#5",
                    "midi": 80,
                    "time": 28.16666666666674,
                    "velocity": 0.7874015748031497,
                    "duration": 0.16666666666666785
                },
                {
                    "name": "F5",
                    "midi": 77,
                    "time": 28.333333333333407,
                    "velocity": 0.7874015748031497,
                    "duration": 0.16666666666666785
                },
                {
                    "name": "D5",
                    "midi": 74,
                    "time": 28.500000000000075,
                    "velocity": 0.7874015748031497,
                    "duration": 0.16666666666666785
                },
                {
                    "name": "B4",
                    "midi": 71,
                    "time": 28.666666666666742,
                    "velocity": 0.7874015748031497,
                    "duration": 0.16666666666666785
                },
                {
                    "name": "G#4",
                    "midi": 68,
                    "time": 28.83333333333341,
                    "velocity": 0.7874015748031497,
                    "duration": 0.16666666666666785
                },
                {
                    "name": "A5",
                    "midi": 81,
                    "time": 29.000000000000078,
                    "velocity": 0.7874015748031497,
                    "duration": 0.16666666666666785
                },
                {
                    "name": "E5",
                    "midi": 76,
                    "time": 29.166666666666746,
                    "velocity": 0.7874015748031497,
                    "duration": 0.16666666666666785
                },
                {
                    "name": "C5",
                    "midi": 72,
                    "time": 29.333333333333414,
                    "velocity": 0.7874015748031497,
                    "duration": 0.16666666666666785
                },
                {
                    "name": "A4",
                    "midi": 69,
                    "time": 29.50000000000008,
                    "velocity": 0.7874015748031497,
                    "duration": 0.16666666666666785
                },
                {
                    "name": "E4",
                    "midi": 64,
                    "time": 29.66666666666675,
                    "velocity": 0.7874015748031497,
                    "duration": 0.16666666666666785
                },
                {
                    "name": "C4",
                    "midi": 60,
                    "time": 29.833333333333417,
                    "velocity": 0.7874015748031497,
                    "duration": 0.16666666666666785
                },
                {
                    "name": "B4",
                    "midi": 71,
                    "time": 30.000000000000085,
                    "velocity": 0.7874015748031497,
                    "duration": 0.16666666666666785
                },
                {
                    "name": "D5",
                    "midi": 74,
                    "time": 30.166666666666753,
                    "velocity": 0.7874015748031497,
                    "duration": 0.16666666666666785
                },
                {
                    "name": "F5",
                    "midi": 77,
                    "time": 30.33333333333342,
                    "velocity": 0.7874015748031497,
                    "duration": 0.16666666666666785
                },
                {
                    "name": "E4",
                    "midi": 64,
                    "time": 30.50000000000009,
                    "velocity": 0.7874015748031497,
                    "duration": 0.16666666666666785
                },
                {
                    "name": "E5",
                    "midi": 76,
                    "time": 30.666666666666757,
                    "velocity": 0.7874015748031497,
                    "duration": 0.16666666666666785
                },
                {
                    "name": "G#4",
                    "midi": 68,
                    "time": 30.833333333333425,
                    "velocity": 0.7874015748031497,
                    "duration": 0.16666666666666785
                },
                {
                    "name": "A4",
                    "midi": 69,
                    "time": 31.000000000000092,
                    "velocity": 0.7874015748031497,
                    "duration": 0.5
                },
                {
                    "name": "A3",
                    "midi": 57,
                    "time": 31.500000000000092,
                    "velocity": 0.7874015748031497,
                    "duration": 0.25
                },
                {
                    "name": "A4",
                    "midi": 69,
                    "time": 32.00000000000009,
                    "velocity": 0.7874015748031497,
                    "duration": 0.125
                },
                {
                    "name": "G#4",
                    "midi": 68,
                    "time": 32.12500000000009,
                    "velocity": 0.7874015748031497,
                    "duration": 0.125
                },
                {
                    "name": "A4",
                    "midi": 69,
                    "time": 32.25000000000009,
                    "velocity": 0.7874015748031497,
                    "duration": 0.125
                },
                {
                    "name": "G#4",
                    "midi": 68,
                    "time": 32.37500000000009,
                    "velocity": 0.7874015748031497,
                    "duration": 0.125
                },
                {
                    "name": "A4",
                    "midi": 69,
                    "time": 32.50000000000009,
                    "velocity": 0.7874015748031497,
                    "duration": 0.125
                },
                {
                    "name": "B4",
                    "midi": 71,
                    "time": 32.62500000000009,
                    "velocity": 0.7874015748031497,
                    "duration": 0.125
                },
                {
                    "name": "C5",
                    "midi": 72,
                    "time": 32.75000000000009,
                    "velocity": 0.7874015748031497,
                    "duration": 0.125
                },
                {
                    "name": "D5",
                    "midi": 74,
                    "time": 32.87500000000009,
                    "velocity": 0.7874015748031497,
                    "duration": 0.125
                },
                {
                    "name": "E5",
                    "midi": 76,
                    "time": 33.00000000000009,
                    "velocity": 0.7874015748031497,
                    "duration": 0.125
                },
                {
                    "name": "D#5",
                    "midi": 75,
                    "time": 33.12500000000009,
                    "velocity": 0.7874015748031497,
                    "duration": 0.125
                },
                {
                    "name": "E5",
                    "midi": 76,
                    "time": 33.25000000000009,
                    "velocity": 0.7874015748031497,
                    "duration": 0.125
                },
                {
                    "name": "D#5",
                    "midi": 75,
                    "time": 33.37500000000009,
                    "velocity": 0.7874015748031497,
                    "duration": 0.125
                },
                {
                    "name": "E5",
                    "midi": 76,
                    "time": 33.50000000000009,
                    "velocity": 0.7874015748031497,
                    "duration": 0.125
                },
                {
                    "name": "D5",
                    "midi": 74,
                    "time": 33.62500000000009,
                    "velocity": 0.7874015748031497,
                    "duration": 0.125
                },
                {
                    "name": "C5",
                    "midi": 72,
                    "time": 33.75000000000009,
                    "velocity": 0.7874015748031497,
                    "duration": 0.125
                },
                {
                    "name": "B4",
                    "midi": 71,
                    "time": 33.87500000000009,
                    "velocity": 0.7874015748031497,
                    "duration": 0.125
                },
                {
                    "name": "A4",
                    "midi": 69,
                    "time": 34.00000000000009,
                    "velocity": 0.7874015748031497,
                    "duration": 0.125
                },
                {
                    "name": "G#4",
                    "midi": 68,
                    "time": 34.12500000000009,
                    "velocity": 0.7874015748031497,
                    "duration": 0.125
                },
                {
                    "name": "A4",
                    "midi": 69,
                    "time": 34.25000000000009,
                    "velocity": 0.7874015748031497,
                    "duration": 0.125
                },
                {
                    "name": "G#4",
                    "midi": 68,
                    "time": 34.37500000000009,
                    "velocity": 0.7874015748031497,
                    "duration": 0.125
                },
                {
                    "name": "A4",
                    "midi": 69,
                    "time": 34.50000000000009,
                    "velocity": 0.7874015748031497,
                    "duration": 0.125
                },
                {
                    "name": "B4",
                    "midi": 71,
                    "time": 34.62500000000009,
                    "velocity": 0.7874015748031497,
                    "duration": 0.125
                },
                {
                    "name": "C5",
                    "midi": 72,
                    "time": 34.75000000000009,
                    "velocity": 0.7874015748031497,
                    "duration": 0.125
                },
                {
                    "name": "D5",
                    "midi": 74,
                    "time": 34.87500000000009,
                    "velocity": 0.7874015748031497,
                    "duration": 0.125
                },
                {
                    "name": "E5",
                    "midi": 76,
                    "time": 35.00000000000009,
                    "velocity": 0.7874015748031497,
                    "duration": 0.125
                },
                {
                    "name": "D#5",
                    "midi": 75,
                    "time": 35.12500000000009,
                    "velocity": 0.7874015748031497,
                    "duration": 0.125
                },
                {
                    "name": "E5",
                    "midi": 76,
                    "time": 35.25000000000009,
                    "velocity": 0.7874015748031497,
                    "duration": 0.125
                },
                {
                    "name": "D#5",
                    "midi": 75,
                    "time": 35.37500000000009,
                    "velocity": 0.7874015748031497,
                    "duration": 0.125
                },
                {
                    "name": "E5",
                    "midi": 76,
                    "time": 35.50000000000009,
                    "velocity": 0.7874015748031497,
                    "duration": 0.25
                },
                {
                    "name": "E4",
                    "midi": 64,
                    "time": 35.75000000000009,
                    "velocity": 0.7874015748031497,
                    "duration": 0.1041666666666643
                },
                {
                    "name": "A4",
                    "midi": 69,
                    "time": 36.00000000000009,
                    "velocity": 0.7874015748031497,
                    "duration": 0.125
                },
                {
                    "name": "G#4",
                    "midi": 68,
                    "time": 36.12500000000009,
                    "velocity": 0.7874015748031497,
                    "duration": 0.125
                },
                {
                    "name": "A4",
                    "midi": 69,
                    "time": 36.25000000000009,
                    "velocity": 0.7874015748031497,
                    "duration": 0.125
                },
                {
                    "name": "G#4",
                    "midi": 68,
                    "time": 36.37500000000009,
                    "velocity": 0.7874015748031497,
                    "duration": 0.125
                },
                {
                    "name": "A4",
                    "midi": 69,
                    "time": 36.50000000000009,
                    "velocity": 0.7874015748031497,
                    "duration": 0.125
                },
                {
                    "name": "B4",
                    "midi": 71,
                    "time": 36.62500000000009,
                    "velocity": 0.7874015748031497,
                    "duration": 0.125
                },
                {
                    "name": "C5",
                    "midi": 72,
                    "time": 36.75000000000009,
                    "velocity": 0.7874015748031497,
                    "duration": 0.125
                },
                {
                    "name": "D5",
                    "midi": 74,
                    "time": 36.87500000000009,
                    "velocity": 0.7874015748031497,
                    "duration": 0.125
                },
                {
                    "name": "E5",
                    "midi": 76,
                    "time": 37.00000000000009,
                    "velocity": 0.7874015748031497,
                    "duration": 0.125
                },
                {
                    "name": "D#5",
                    "midi": 75,
                    "time": 37.12500000000009,
                    "velocity": 0.7874015748031497,
                    "duration": 0.125
                },
                {
                    "name": "E5",
                    "midi": 76,
                    "time": 37.25000000000009,
                    "velocity": 0.7874015748031497,
                    "duration": 0.125
                },
                {
                    "name": "D#5",
                    "midi": 75,
                    "time": 37.37500000000009,
                    "velocity": 0.7874015748031497,
                    "duration": 0.125
                },
                {
                    "name": "E5",
                    "midi": 76,
                    "time": 37.50000000000009,
                    "velocity": 0.7874015748031497,
                    "duration": 0.125
                },
                {
                    "name": "D5",
                    "midi": 74,
                    "time": 37.62500000000009,
                    "velocity": 0.7874015748031497,
                    "duration": 0.125
                },
                {
                    "name": "C5",
                    "midi": 72,
                    "time": 37.75000000000009,
                    "velocity": 0.7874015748031497,
                    "duration": 0.125
                },
                {
                    "name": "B4",
                    "midi": 71,
                    "time": 37.87500000000009,
                    "velocity": 0.7874015748031497,
                    "duration": 0.125
                },
                {
                    "name": "A4",
                    "midi": 69,
                    "time": 38.00000000000009,
                    "velocity": 0.7874015748031497,
                    "duration": 0.125
                },
                {
                    "name": "G#4",
                    "midi": 68,
                    "time": 38.12500000000009,
                    "velocity": 0.7874015748031497,
                    "duration": 0.125
                },
                {
                    "name": "A4",
                    "midi": 69,
                    "time": 38.25000000000009,
                    "velocity": 0.7874015748031497,
                    "duration": 0.125
                },
                {
                    "name": "G#4",
                    "midi": 68,
                    "time": 38.37500000000009,
                    "velocity": 0.7874015748031497,
                    "duration": 0.125
                },
                {
                    "name": "A4",
                    "midi": 69,
                    "time": 38.50000000000009,
                    "velocity": 0.7874015748031497,
                    "duration": 0.125
                },
                {
                    "name": "B4",
                    "midi": 71,
                    "time": 38.62500000000009,
                    "velocity": 0.7874015748031497,
                    "duration": 0.125
                },
                {
                    "name": "C5",
                    "midi": 72,
                    "time": 38.75000000000009,
                    "velocity": 0.7874015748031497,
                    "duration": 0.125
                },
                {
                    "name": "D5",
                    "midi": 74,
                    "time": 38.87500000000009,
                    "velocity": 0.7874015748031497,
                    "duration": 0.125
                },
                {
                    "name": "E5",
                    "midi": 76,
                    "time": 39.00000000000009,
                    "velocity": 0.7874015748031497,
                    "duration": 0.125
                },
                {
                    "name": "D#5",
                    "midi": 75,
                    "time": 39.12500000000009,
                    "velocity": 0.7874015748031497,
                    "duration": 0.125
                },
                {
                    "name": "E5",
                    "midi": 76,
                    "time": 39.25000000000009,
                    "velocity": 0.7874015748031497,
                    "duration": 0.125
                },
                {
                    "name": "D#5",
                    "midi": 75,
                    "time": 39.37500000000009,
                    "velocity": 0.7874015748031497,
                    "duration": 0.125
                },
                {
                    "name": "E5",
                    "midi": 76,
                    "time": 39.50000000000009,
                    "velocity": 0.7874015748031497,
                    "duration": 0.25
                },
                {
                    "name": "E4",
                    "midi": 64,
                    "time": 39.75000000000009,
                    "velocity": 0.7874015748031497,
                    "duration": 0.1041666666666643
                },
                {
                    "name": "A5",
                    "midi": 81,
                    "time": 40.00000000000009,
                    "velocity": 0.7874015748031497,
                    "duration": 0.125
                },
                {
                    "name": "G#5",
                    "midi": 80,
                    "time": 40.12500000000009,
                    "velocity": 0.7874015748031497,
                    "duration": 0.125
                },
                {
                    "name": "A5",
                    "midi": 81,
                    "time": 40.25000000000009,
                    "velocity": 0.7874015748031497,
                    "duration": 0.125
                },
                {
                    "name": "G#5",
                    "midi": 80,
                    "time": 40.37500000000009,
                    "velocity": 0.7874015748031497,
                    "duration": 0.125
                },
                {
                    "name": "A5",
                    "midi": 81,
                    "time": 40.50000000000009,
                    "velocity": 0.7874015748031497,
                    "duration": 0.125
                },
                {
                    "name": "G5",
                    "midi": 79,
                    "time": 40.62500000000009,
                    "velocity": 0.7874015748031497,
                    "duration": 0.125
                },
                {
                    "name": "F5",
                    "midi": 77,
                    "time": 40.75000000000009,
                    "velocity": 0.7874015748031497,
                    "duration": 0.125
                },
                {
                    "name": "E5",
                    "midi": 76,
                    "time": 40.87500000000009,
                    "velocity": 0.7874015748031497,
                    "duration": 0.125
                },
                {
                    "name": "D5",
                    "midi": 74,
                    "time": 41.00000000000009,
                    "velocity": 0.7874015748031497,
                    "duration": 0.125
                },
                {
                    "name": "C#5",
                    "midi": 73,
                    "time": 41.12500000000009,
                    "velocity": 0.7874015748031497,
                    "duration": 0.125
                },
                {
                    "name": "D5",
                    "midi": 74,
                    "time": 41.25000000000009,
                    "velocity": 0.7874015748031497,
                    "duration": 0.125
                },
                {
                    "name": "C#5",
                    "midi": 73,
                    "time": 41.37500000000009,
                    "velocity": 0.7874015748031497,
                    "duration": 0.125
                },
                {
                    "name": "D5",
                    "midi": 74,
                    "time": 41.50000000000009,
                    "velocity": 0.7874015748031497,
                    "duration": 0.125
                },
                {
                    "name": "E5",
                    "midi": 76,
                    "time": 41.62500000000009,
                    "velocity": 0.7874015748031497,
                    "duration": 0.125
                },
                {
                    "name": "F5",
                    "midi": 77,
                    "time": 41.75000000000009,
                    "velocity": 0.7874015748031497,
                    "duration": 0.125
                },
                {
                    "name": "D5",
                    "midi": 74,
                    "time": 41.87500000000009,
                    "velocity": 0.7874015748031497,
                    "duration": 0.125
                },
                {
                    "name": "G5",
                    "midi": 79,
                    "time": 42.00000000000009,
                    "velocity": 0.7874015748031497,
                    "duration": 0.125
                },
                {
                    "name": "F#5",
                    "midi": 78,
                    "time": 42.12500000000009,
                    "velocity": 0.7874015748031497,
                    "duration": 0.125
                },
                {
                    "name": "G5",
                    "midi": 79,
                    "time": 42.25000000000009,
                    "velocity": 0.7874015748031497,
                    "duration": 0.125
                },
                {
                    "name": "F#5",
                    "midi": 78,
                    "time": 42.37500000000009,
                    "velocity": 0.7874015748031497,
                    "duration": 0.125
                },
                {
                    "name": "G5",
                    "midi": 79,
                    "time": 42.50000000000009,
                    "velocity": 0.7874015748031497,
                    "duration": 0.125
                },
                {
                    "name": "F5",
                    "midi": 77,
                    "time": 42.62500000000009,
                    "velocity": 0.7874015748031497,
                    "duration": 0.125
                },
                {
                    "name": "E5",
                    "midi": 76,
                    "time": 42.75000000000009,
                    "velocity": 0.7874015748031497,
                    "duration": 0.125
                },
                {
                    "name": "D5",
                    "midi": 74,
                    "time": 42.87500000000009,
                    "velocity": 0.7874015748031497,
                    "duration": 0.125
                },
                {
                    "name": "C5",
                    "midi": 72,
                    "time": 43.00000000000009,
                    "velocity": 0.7874015748031497,
                    "duration": 0.125
                },
                {
                    "name": "B4",
                    "midi": 71,
                    "time": 43.12500000000009,
                    "velocity": 0.7874015748031497,
                    "duration": 0.125
                },
                {
                    "name": "C5",
                    "midi": 72,
                    "time": 43.25000000000009,
                    "velocity": 0.7874015748031497,
                    "duration": 0.125
                },
                {
                    "name": "B4",
                    "midi": 71,
                    "time": 43.37500000000009,
                    "velocity": 0.7874015748031497,
                    "duration": 0.125
                },
                {
                    "name": "C5",
                    "midi": 72,
                    "time": 43.50000000000009,
                    "velocity": 0.7874015748031497,
                    "duration": 0.125
                },
                {
                    "name": "D5",
                    "midi": 74,
                    "time": 43.62500000000009,
                    "velocity": 0.7874015748031497,
                    "duration": 0.125
                },
                {
                    "name": "E5",
                    "midi": 76,
                    "time": 43.75000000000009,
                    "velocity": 0.7874015748031497,
                    "duration": 0.125
                },
                {
                    "name": "C5",
                    "midi": 72,
                    "time": 43.87500000000009,
                    "velocity": 0.7874015748031497,
                    "duration": 0.125
                },
                {
                    "name": "F5",
                    "midi": 77,
                    "time": 44.00000000000009,
                    "velocity": 0.7874015748031497,
                    "duration": 0.125
                },
                {
                    "name": "E5",
                    "midi": 76,
                    "time": 44.12500000000009,
                    "velocity": 0.7874015748031497,
                    "duration": 0.125
                },
                {
                    "name": "F5",
                    "midi": 77,
                    "time": 44.25000000000009,
                    "velocity": 0.7874015748031497,
                    "duration": 0.125
                },
                {
                    "name": "E5",
                    "midi": 76,
                    "time": 44.37500000000009,
                    "velocity": 0.7874015748031497,
                    "duration": 0.125
                },
                {
                    "name": "F5",
                    "midi": 77,
                    "time": 44.50000000000009,
                    "velocity": 0.7874015748031497,
                    "duration": 0.125
                },
                {
                    "name": "D5",
                    "midi": 74,
                    "time": 44.62500000000009,
                    "velocity": 0.7874015748031497,
                    "duration": 0.125
                },
                {
                    "name": "C5",
                    "midi": 72,
                    "time": 44.75000000000009,
                    "velocity": 0.7874015748031497,
                    "duration": 0.125
                },
                {
                    "name": "B4",
                    "midi": 71,
                    "time": 44.87500000000009,
                    "velocity": 0.7874015748031497,
                    "duration": 0.125
                },
                {
                    "name": "E5",
                    "midi": 76,
                    "time": 45.00000000000009,
                    "velocity": 0.7874015748031497,
                    "duration": 0.125
                },
                {
                    "name": "D#5",
                    "midi": 75,
                    "time": 45.12500000000009,
                    "velocity": 0.7874015748031497,
                    "duration": 0.125
                },
                {
                    "name": "E5",
                    "midi": 76,
                    "time": 45.25000000000009,
                    "velocity": 0.7874015748031497,
                    "duration": 0.125
                },
                {
                    "name": "D#5",
                    "midi": 75,
                    "time": 45.37500000000009,
                    "velocity": 0.7874015748031497,
                    "duration": 0.125
                },
                {
                    "name": "E5",
                    "midi": 76,
                    "time": 45.50000000000009,
                    "velocity": 0.7874015748031497,
                    "duration": 0.125
                },
                {
                    "name": "C5",
                    "midi": 72,
                    "time": 45.62500000000009,
                    "velocity": 0.7874015748031497,
                    "duration": 0.125
                },
                {
                    "name": "B4",
                    "midi": 71,
                    "time": 45.75000000000009,
                    "velocity": 0.7874015748031497,
                    "duration": 0.125
                },
                {
                    "name": "A4",
                    "midi": 69,
                    "time": 45.87500000000009,
                    "velocity": 0.7874015748031497,
                    "duration": 0.125
                },
                {
                    "name": "B4",
                    "midi": 71,
                    "time": 46.00000000000009,
                    "velocity": 0.7874015748031497,
                    "duration": 0.125
                },
                {
                    "name": "A#4",
                    "midi": 70,
                    "time": 46.12500000000009,
                    "velocity": 0.7874015748031497,
                    "duration": 0.125
                },
                {
                    "name": "B4",
                    "midi": 71,
                    "time": 46.25000000000009,
                    "velocity": 0.7874015748031497,
                    "duration": 0.125
                },
                {
                    "name": "A#4",
                    "midi": 70,
                    "time": 46.37500000000009,
                    "velocity": 0.7874015748031497,
                    "duration": 0.125
                },
                {
                    "name": "B4",
                    "midi": 71,
                    "time": 46.50000000000009,
                    "velocity": 0.7874015748031497,
                    "duration": 0.125
                },
                {
                    "name": "F5",
                    "midi": 77,
                    "time": 46.62500000000009,
                    "velocity": 0.7874015748031497,
                    "duration": 0.125
                },
                {
                    "name": "E5",
                    "midi": 76,
                    "time": 46.75000000000009,
                    "velocity": 0.7874015748031497,
                    "duration": 0.125
                },
                {
                    "name": "G#4",
                    "midi": 68,
                    "time": 46.87500000000009,
                    "velocity": 0.7874015748031497,
                    "duration": 0.125
                },
                {
                    "name": "A4",
                    "midi": 69,
                    "time": 47.00000000000009,
                    "velocity": 0.7874015748031497,
                    "duration": 0.125
                },
                {
                    "name": "G#4",
                    "midi": 68,
                    "time": 47.12500000000009,
                    "velocity": 0.7874015748031497,
                    "duration": 0.125
                },
                {
                    "name": "A4",
                    "midi": 69,
                    "time": 47.25000000000009,
                    "velocity": 0.7874015748031497,
                    "duration": 0.125
                },
                {
                    "name": "G#4",
                    "midi": 68,
                    "time": 47.37500000000009,
                    "velocity": 0.7874015748031497,
                    "duration": 0.125
                },
                {
                    "name": "A4",
                    "midi": 69,
                    "time": 47.50000000000009,
                    "velocity": 0.7874015748031497,
                    "duration": 0.5
                },
                {
                    "name": "C6",
                    "midi": 84,
                    "time": 48.00000000000009,
                    "velocity": 0.7874015748031497,
                    "duration": 0.75
                },
                {
                    "name": "C5",
                    "midi": 72,
                    "time": 48.00000000000009,
                    "velocity": 0.7874015748031497,
                    "duration": 0.75
                },
                {
                    "name": "C4",
                    "midi": 60,
                    "time": 48.00000000000009,
                    "velocity": 0.7874015748031497,
                    "duration": 0.75
                },
                {
                    "name": "A5",
                    "midi": 81,
                    "time": 48.75000000000009,
                    "velocity": 0.7874015748031497,
                    "duration": 0.25
                },
                {
                    "name": "A4",
                    "midi": 69,
                    "time": 48.75000000000009,
                    "velocity": 0.7874015748031497,
                    "duration": 0.25
                },
                {
                    "name": "A3",
                    "midi": 57,
                    "time": 48.75000000000009,
                    "velocity": 0.7874015748031497,
                    "duration": 0.25
                },
                {
                    "name": "G#5",
                    "midi": 80,
                    "time": 49.00000000000009,
                    "velocity": 0.7874015748031497,
                    "duration": 0.25
                },
                {
                    "name": "G#4",
                    "midi": 68,
                    "time": 49.00000000000009,
                    "velocity": 0.7874015748031497,
                    "duration": 0.25
                },
                {
                    "name": "G#3",
                    "midi": 56,
                    "time": 49.00000000000009,
                    "velocity": 0.7874015748031497,
                    "duration": 0.25
                },
                {
                    "name": "B3",
                    "midi": 59,
                    "time": 49.25000000000009,
                    "velocity": 0.7874015748031497,
                    "duration": 0.25
                },
                {
                    "name": "B4",
                    "midi": 71,
                    "time": 49.25000000000009,
                    "velocity": 0.7874015748031497,
                    "duration": 0.25
                },
                {
                    "name": "B5",
                    "midi": 83,
                    "time": 49.25000000000009,
                    "velocity": 0.7874015748031497,
                    "duration": 0.25
                },
                {
                    "name": "E6",
                    "midi": 88,
                    "time": 49.50000000000009,
                    "velocity": 0.7874015748031497,
                    "duration": 0.5
                },
                {
                    "name": "E5",
                    "midi": 76,
                    "time": 49.50000000000009,
                    "velocity": 0.7874015748031497,
                    "duration": 0.5
                },
                {
                    "name": "E4",
                    "midi": 64,
                    "time": 49.50000000000009,
                    "velocity": 0.7874015748031497,
                    "duration": 0.5
                },
                {
                    "name": "C6",
                    "midi": 84,
                    "time": 50.00000000000009,
                    "velocity": 0.7874015748031497,
                    "duration": 0.75
                },
                {
                    "name": "C5",
                    "midi": 72,
                    "time": 50.00000000000009,
                    "velocity": 0.7874015748031497,
                    "duration": 0.75
                },
                {
                    "name": "C4",
                    "midi": 60,
                    "time": 50.00000000000009,
                    "velocity": 0.7874015748031497,
                    "duration": 0.75
                },
                {
                    "name": "A5",
                    "midi": 81,
                    "time": 50.75000000000009,
                    "velocity": 0.7874015748031497,
                    "duration": 0.25
                },
                {
                    "name": "A4",
                    "midi": 69,
                    "time": 50.75000000000009,
                    "velocity": 0.7874015748031497,
                    "duration": 0.25
                },
                {
                    "name": "A3",
                    "midi": 57,
                    "time": 50.75000000000009,
                    "velocity": 0.7874015748031497,
                    "duration": 0.25
                },
                {
                    "name": "B5",
                    "midi": 83,
                    "time": 51.00000000000009,
                    "velocity": 0.7874015748031497,
                    "duration": 0.25
                },
                {
                    "name": "B4",
                    "midi": 71,
                    "time": 51.00000000000009,
                    "velocity": 0.7874015748031497,
                    "duration": 0.25
                },
                {
                    "name": "B3",
                    "midi": 59,
                    "time": 51.00000000000009,
                    "velocity": 0.7874015748031497,
                    "duration": 0.25
                },
                {
                    "name": "D#6",
                    "midi": 87,
                    "time": 51.25000000000009,
                    "velocity": 0.7874015748031497,
                    "duration": 0.25
                },
                {
                    "name": "D#5",
                    "midi": 75,
                    "time": 51.25000000000009,
                    "velocity": 0.7874015748031497,
                    "duration": 0.25
                },
                {
                    "name": "D#4",
                    "midi": 63,
                    "time": 51.25000000000009,
                    "velocity": 0.7874015748031497,
                    "duration": 0.25
                },
                {
                    "name": "F4",
                    "midi": 65,
                    "time": 51.50000000000009,
                    "velocity": 0.7874015748031497,
                    "duration": 0.25
                },
                {
                    "name": "F6",
                    "midi": 89,
                    "time": 51.50000000000009,
                    "velocity": 0.7874015748031497,
                    "duration": 0.25
                },
                {
                    "name": "F5",
                    "midi": 77,
                    "time": 51.50000000000009,
                    "velocity": 0.7874015748031497,
                    "duration": 0.25
                },
                {
                    "name": "E6",
                    "midi": 88,
                    "time": 51.75000000000009,
                    "velocity": 0.7874015748031497,
                    "duration": 0.25
                },
                {
                    "name": "E5",
                    "midi": 76,
                    "time": 51.75000000000009,
                    "velocity": 0.7874015748031497,
                    "duration": 0.25
                },
                {
                    "name": "E4",
                    "midi": 64,
                    "time": 51.75000000000009,
                    "velocity": 0.7874015748031497,
                    "duration": 0.25
                },
                {
                    "name": "C4",
                    "midi": 60,
                    "time": 52.00000000000009,
                    "velocity": 0.7874015748031497,
                    "duration": 0.75
                },
                {
                    "name": "C5",
                    "midi": 72,
                    "time": 52.00000000000009,
                    "velocity": 0.7874015748031497,
                    "duration": 0.75
                },
                {
                    "name": "C6",
                    "midi": 84,
                    "time": 52.00000000000009,
                    "velocity": 0.7874015748031497,
                    "duration": 0.75
                },
                {
                    "name": "A5",
                    "midi": 81,
                    "time": 52.75000000000009,
                    "velocity": 0.7874015748031497,
                    "duration": 0.25
                },
                {
                    "name": "A4",
                    "midi": 69,
                    "time": 52.75000000000009,
                    "velocity": 0.7874015748031497,
                    "duration": 0.25
                },
                {
                    "name": "A3",
                    "midi": 57,
                    "time": 52.75000000000009,
                    "velocity": 0.7874015748031497,
                    "duration": 0.25
                },
                {
                    "name": "G#3",
                    "midi": 56,
                    "time": 53.00000000000009,
                    "velocity": 0.7874015748031497,
                    "duration": 0.25
                },
                {
                    "name": "G#4",
                    "midi": 68,
                    "time": 53.00000000000009,
                    "velocity": 0.7874015748031497,
                    "duration": 0.25
                },
                {
                    "name": "G#5",
                    "midi": 80,
                    "time": 53.00000000000009,
                    "velocity": 0.7874015748031497,
                    "duration": 0.25
                },
                {
                    "name": "B5",
                    "midi": 83,
                    "time": 53.25000000000009,
                    "velocity": 0.7874015748031497,
                    "duration": 0.25
                },
                {
                    "name": "B4",
                    "midi": 71,
                    "time": 53.25000000000009,
                    "velocity": 0.7874015748031497,
                    "duration": 0.25
                },
                {
                    "name": "B3",
                    "midi": 59,
                    "time": 53.25000000000009,
                    "velocity": 0.7874015748031497,
                    "duration": 0.25
                },
                {
                    "name": "E6",
                    "midi": 88,
                    "time": 53.50000000000009,
                    "velocity": 0.7874015748031497,
                    "duration": 0.5
                },
                {
                    "name": "E5",
                    "midi": 76,
                    "time": 53.50000000000009,
                    "velocity": 0.7874015748031497,
                    "duration": 0.5
                },
                {
                    "name": "E4",
                    "midi": 64,
                    "time": 53.50000000000009,
                    "velocity": 0.7874015748031497,
                    "duration": 0.5
                },
                {
                    "name": "C6",
                    "midi": 84,
                    "time": 54.00000000000009,
                    "velocity": 0.7874015748031497,
                    "duration": 0.75
                },
                {
                    "name": "C5",
                    "midi": 72,
                    "time": 54.00000000000009,
                    "velocity": 0.7874015748031497,
                    "duration": 0.75
                },
                {
                    "name": "C4",
                    "midi": 60,
                    "time": 54.00000000000009,
                    "velocity": 0.7874015748031497,
                    "duration": 0.75
                },
                {
                    "name": "A5",
                    "midi": 81,
                    "time": 54.75000000000009,
                    "velocity": 0.7874015748031497,
                    "duration": 0.25
                },
                {
                    "name": "A4",
                    "midi": 69,
                    "time": 54.75000000000009,
                    "velocity": 0.7874015748031497,
                    "duration": 0.25
                },
                {
                    "name": "A3",
                    "midi": 57,
                    "time": 54.75000000000009,
                    "velocity": 0.7874015748031497,
                    "duration": 0.25
                },
                {
                    "name": "B5",
                    "midi": 83,
                    "time": 55.00000000000009,
                    "velocity": 0.7874015748031497,
                    "duration": 0.25
                },
                {
                    "name": "B4",
                    "midi": 71,
                    "time": 55.00000000000009,
                    "velocity": 0.7874015748031497,
                    "duration": 0.25
                },
                {
                    "name": "B3",
                    "midi": 59,
                    "time": 55.00000000000009,
                    "velocity": 0.7874015748031497,
                    "duration": 0.25
                },
                {
                    "name": "D#4",
                    "midi": 63,
                    "time": 55.25000000000009,
                    "velocity": 0.7874015748031497,
                    "duration": 0.25
                },
                {
                    "name": "D#5",
                    "midi": 75,
                    "time": 55.25000000000009,
                    "velocity": 0.7874015748031497,
                    "duration": 0.25
                },
                {
                    "name": "D#6",
                    "midi": 87,
                    "time": 55.25000000000009,
                    "velocity": 0.7874015748031497,
                    "duration": 0.25
                },
                {
                    "name": "F4",
                    "midi": 65,
                    "time": 55.50000000000009,
                    "velocity": 0.7874015748031497,
                    "duration": 0.25
                },
                {
                    "name": "F5",
                    "midi": 77,
                    "time": 55.50000000000009,
                    "velocity": 0.7874015748031497,
                    "duration": 0.25
                },
                {
                    "name": "F6",
                    "midi": 89,
                    "time": 55.50000000000009,
                    "velocity": 0.7874015748031497,
                    "duration": 0.25
                },
                {
                    "name": "E6",
                    "midi": 88,
                    "time": 55.75000000000009,
                    "velocity": 0.7874015748031497,
                    "duration": 0.25
                },
                {
                    "name": "E5",
                    "midi": 76,
                    "time": 55.75000000000009,
                    "velocity": 0.7874015748031497,
                    "duration": 0.25
                },
                {
                    "name": "E4",
                    "midi": 64,
                    "time": 55.75000000000009,
                    "velocity": 0.7874015748031497,
                    "duration": 0.25
                },
                {
                    "name": "A4",
                    "midi": 69,
                    "time": 56.00000000000009,
                    "velocity": 0.7874015748031497,
                    "duration": 0.75
                },
                {
                    "name": "A5",
                    "midi": 81,
                    "time": 56.00000000000009,
                    "velocity": 0.7874015748031497,
                    "duration": 0.75
                },
                {
                    "name": "A6",
                    "midi": 93,
                    "time": 56.00000000000009,
                    "velocity": 0.7874015748031497,
                    "duration": 0.75
                },
                {
                    "name": "C#4",
                    "midi": 61,
                    "time": 56.75000000000009,
                    "velocity": 0.7874015748031497,
                    "duration": 0.25
                },
                {
                    "name": "C#5",
                    "midi": 73,
                    "time": 56.75000000000009,
                    "velocity": 0.7874015748031497,
                    "duration": 0.25
                },
                {
                    "name": "C#6",
                    "midi": 85,
                    "time": 56.75000000000009,
                    "velocity": 0.7874015748031497,
                    "duration": 0.25
                },
                {
                    "name": "D6",
                    "midi": 86,
                    "time": 57.00000000000009,
                    "velocity": 0.7874015748031497,
                    "duration": 0.25
                },
                {
                    "name": "D5",
                    "midi": 74,
                    "time": 57.00000000000009,
                    "velocity": 0.7874015748031497,
                    "duration": 0.25
                },
                {
                    "name": "D4",
                    "midi": 62,
                    "time": 57.00000000000009,
                    "velocity": 0.7874015748031497,
                    "duration": 0.25
                },
                {
                    "name": "E6",
                    "midi": 88,
                    "time": 57.25000000000009,
                    "velocity": 0.7874015748031497,
                    "duration": 0.25
                },
                {
                    "name": "E5",
                    "midi": 76,
                    "time": 57.25000000000009,
                    "velocity": 0.7874015748031497,
                    "duration": 0.25
                },
                {
                    "name": "E4",
                    "midi": 64,
                    "time": 57.25000000000009,
                    "velocity": 0.7874015748031497,
                    "duration": 0.25
                },
                {
                    "name": "F4",
                    "midi": 65,
                    "time": 57.50000000000009,
                    "velocity": 0.7874015748031497,
                    "duration": 0.25
                },
                {
                    "name": "F5",
                    "midi": 77,
                    "time": 57.50000000000009,
                    "velocity": 0.7874015748031497,
                    "duration": 0.25
                },
                {
                    "name": "F6",
                    "midi": 89,
                    "time": 57.50000000000009,
                    "velocity": 0.7874015748031497,
                    "duration": 0.25
                },
                {
                    "name": "F#4",
                    "midi": 66,
                    "time": 57.75000000000009,
                    "velocity": 0.7874015748031497,
                    "duration": 0.25
                },
                {
                    "name": "F#5",
                    "midi": 78,
                    "time": 57.75000000000009,
                    "velocity": 0.7874015748031497,
                    "duration": 0.25
                },
                {
                    "name": "F#6",
                    "midi": 90,
                    "time": 57.75000000000009,
                    "velocity": 0.7874015748031497,
                    "duration": 0.25
                },
                {
                    "name": "G4",
                    "midi": 67,
                    "time": 58.00000000000009,
                    "velocity": 0.7874015748031497,
                    "duration": 0.75
                },
                {
                    "name": "G5",
                    "midi": 79,
                    "time": 58.00000000000009,
                    "velocity": 0.7874015748031497,
                    "duration": 0.75
                },
                {
                    "name": "G6",
                    "midi": 91,
                    "time": 58.00000000000009,
                    "velocity": 0.7874015748031497,
                    "duration": 0.75
                },
                {
                    "name": "B3",
                    "midi": 59,
                    "time": 58.75000000000009,
                    "velocity": 0.7874015748031497,
                    "duration": 0.25
                },
                {
                    "name": "B4",
                    "midi": 71,
                    "time": 58.75000000000009,
                    "velocity": 0.7874015748031497,
                    "duration": 0.25
                },
                {
                    "name": "B5",
                    "midi": 83,
                    "time": 58.75000000000009,
                    "velocity": 0.7874015748031497,
                    "duration": 0.25
                },
                {
                    "name": "C6",
                    "midi": 84,
                    "time": 59.00000000000009,
                    "velocity": 0.7874015748031497,
                    "duration": 0.25
                },
                {
                    "name": "C5",
                    "midi": 72,
                    "time": 59.00000000000009,
                    "velocity": 0.7874015748031497,
                    "duration": 0.25
                },
                {
                    "name": "C4",
                    "midi": 60,
                    "time": 59.00000000000009,
                    "velocity": 0.7874015748031497,
                    "duration": 0.25
                },
                {
                    "name": "D4",
                    "midi": 62,
                    "time": 59.25000000000009,
                    "velocity": 0.7874015748031497,
                    "duration": 0.25
                },
                {
                    "name": "D5",
                    "midi": 74,
                    "time": 59.25000000000009,
                    "velocity": 0.7874015748031497,
                    "duration": 0.25
                },
                {
                    "name": "D6",
                    "midi": 86,
                    "time": 59.25000000000009,
                    "velocity": 0.7874015748031497,
                    "duration": 0.25
                },
                {
                    "name": "D#4",
                    "midi": 63,
                    "time": 59.50000000000009,
                    "velocity": 0.7874015748031497,
                    "duration": 0.25
                },
                {
                    "name": "D#5",
                    "midi": 75,
                    "time": 59.50000000000009,
                    "velocity": 0.7874015748031497,
                    "duration": 0.25
                },
                {
                    "name": "D#6",
                    "midi": 87,
                    "time": 59.50000000000009,
                    "velocity": 0.7874015748031497,
                    "duration": 0.25
                },
                {
                    "name": "E6",
                    "midi": 88,
                    "time": 59.75000000000009,
                    "velocity": 0.7874015748031497,
                    "duration": 0.25
                },
                {
                    "name": "E5",
                    "midi": 76,
                    "time": 59.75000000000009,
                    "velocity": 0.7874015748031497,
                    "duration": 0.25
                },
                {
                    "name": "E4",
                    "midi": 64,
                    "time": 59.75000000000009,
                    "velocity": 0.7874015748031497,
                    "duration": 0.25
                },
                {
                    "name": "F6",
                    "midi": 89,
                    "time": 60.00000000000009,
                    "velocity": 0.7874015748031497,
                    "duration": 0.75
                },
                {
                    "name": "F5",
                    "midi": 77,
                    "time": 60.00000000000009,
                    "velocity": 0.7874015748031497,
                    "duration": 0.75
                },
                {
                    "name": "F4",
                    "midi": 65,
                    "time": 60.00000000000009,
                    "velocity": 0.7874015748031497,
                    "duration": 0.75
                },
                {
                    "name": "B5",
                    "midi": 83,
                    "time": 60.75000000000009,
                    "velocity": 0.7874015748031497,
                    "duration": 0.25
                },
                {
                    "name": "B4",
                    "midi": 71,
                    "time": 60.75000000000009,
                    "velocity": 0.7874015748031497,
                    "duration": 0.25
                },
                {
                    "name": "B3",
                    "midi": 59,
                    "time": 60.75000000000009,
                    "velocity": 0.7874015748031497,
                    "duration": 0.25
                },
                {
                    "name": "E6",
                    "midi": 88,
                    "time": 61.00000000000009,
                    "velocity": 0.7874015748031497,
                    "duration": 0.75
                },
                {
                    "name": "E5",
                    "midi": 76,
                    "time": 61.00000000000009,
                    "velocity": 0.7874015748031497,
                    "duration": 0.75
                },
                {
                    "name": "E4",
                    "midi": 64,
                    "time": 61.00000000000009,
                    "velocity": 0.7874015748031497,
                    "duration": 0.75
                },
                {
                    "name": "A5",
                    "midi": 81,
                    "time": 61.75000000000009,
                    "velocity": 0.7874015748031497,
                    "duration": 0.25
                },
                {
                    "name": "A4",
                    "midi": 69,
                    "time": 61.75000000000009,
                    "velocity": 0.7874015748031497,
                    "duration": 0.25
                },
                {
                    "name": "A3",
                    "midi": 57,
                    "time": 61.75000000000009,
                    "velocity": 0.7874015748031497,
                    "duration": 0.25
                },
                {
                    "name": "B3",
                    "midi": 59,
                    "time": 62.00000000000009,
                    "velocity": 0.7874015748031497,
                    "duration": 0.25
                },
                {
                    "name": "B4",
                    "midi": 71,
                    "time": 62.00000000000009,
                    "velocity": 0.7874015748031497,
                    "duration": 0.25
                },
                {
                    "name": "B5",
                    "midi": 83,
                    "time": 62.00000000000009,
                    "velocity": 0.7874015748031497,
                    "duration": 0.25
                },
                {
                    "name": "F6",
                    "midi": 89,
                    "time": 62.25000000000009,
                    "velocity": 0.7874015748031497,
                    "duration": 0.25
                },
                {
                    "name": "F5",
                    "midi": 77,
                    "time": 62.25000000000009,
                    "velocity": 0.7874015748031497,
                    "duration": 0.25
                },
                {
                    "name": "F4",
                    "midi": 65,
                    "time": 62.25000000000009,
                    "velocity": 0.7874015748031497,
                    "duration": 0.25
                },
                {
                    "name": "E4",
                    "midi": 64,
                    "time": 62.50000000000009,
                    "velocity": 0.7874015748031497,
                    "duration": 0.25
                },
                {
                    "name": "E5",
                    "midi": 76,
                    "time": 62.50000000000009,
                    "velocity": 0.7874015748031497,
                    "duration": 0.25
                },
                {
                    "name": "E6",
                    "midi": 88,
                    "time": 62.50000000000009,
                    "velocity": 0.7874015748031497,
                    "duration": 0.25
                },
                {
                    "name": "G#5",
                    "midi": 80,
                    "time": 62.75000000000009,
                    "velocity": 0.7874015748031497,
                    "duration": 0.25
                },
                {
                    "name": "G#4",
                    "midi": 68,
                    "time": 62.75000000000009,
                    "velocity": 0.7874015748031497,
                    "duration": 0.25
                },
                {
                    "name": "G#3",
                    "midi": 56,
                    "time": 62.75000000000009,
                    "velocity": 0.7874015748031497,
                    "duration": 0.25
                },
                {
                    "name": "B3",
                    "midi": 59,
                    "time": 63.00000000000009,
                    "velocity": 0.7874015748031497,
                    "duration": 0.5
                },
                {
                    "name": "B4",
                    "midi": 71,
                    "time": 63.00000000000009,
                    "velocity": 0.7874015748031497,
                    "duration": 0.5
                },
                {
                    "name": "B5",
                    "midi": 83,
                    "time": 63.00000000000009,
                    "velocity": 0.7874015748031497,
                    "duration": 0.5
                },
                {
                    "name": "A5",
                    "midi": 81,
                    "time": 63.50000000000009,
                    "velocity": 0.7874015748031497,
                    "duration": 0.25
                },
                {
                    "name": "A4",
                    "midi": 69,
                    "time": 63.50000000000009,
                    "velocity": 0.7874015748031497,
                    "duration": 0.25
                },
                {
                    "name": "A3",
                    "midi": 57,
                    "time": 63.50000000000009,
                    "velocity": 0.7874015748031497,
                    "duration": 0.25
                },
                {
                    "name": "A5",
                    "midi": 81,
                    "time": 64.00000000000009,
                    "velocity": 0.7874015748031497,
                    "duration": 0.125
                },
                {
                    "name": "A5",
                    "midi": 81,
                    "time": 64.12500000000009,
                    "velocity": 0.7874015748031497,
                    "duration": 0.125
                },
                {
                    "name": "G#5",
                    "midi": 80,
                    "time": 64.25000000000009,
                    "velocity": 0.7874015748031497,
                    "duration": 0.125
                },
                {
                    "name": "G5",
                    "midi": 79,
                    "time": 64.37500000000009,
                    "velocity": 0.7874015748031497,
                    "duration": 0.125
                },
                {
                    "name": "F#5",
                    "midi": 78,
                    "time": 64.50000000000009,
                    "velocity": 0.7874015748031497,
                    "duration": 0.125
                },
                {
                    "name": "F5",
                    "midi": 77,
                    "time": 64.62500000000009,
                    "velocity": 0.7874015748031497,
                    "duration": 0.125
                },
                {
                    "name": "E5",
                    "midi": 76,
                    "time": 64.75000000000009,
                    "velocity": 0.7874015748031497,
                    "duration": 0.125
                },
                {
                    "name": "D#5",
                    "midi": 75,
                    "time": 64.87500000000009,
                    "velocity": 0.7874015748031497,
                    "duration": 0.125
                },
                {
                    "name": "F5",
                    "midi": 77,
                    "time": 65.00000000000009,
                    "velocity": 0.7874015748031497,
                    "duration": 0.125
                },
                {
                    "name": "E5",
                    "midi": 76,
                    "time": 65.12500000000009,
                    "velocity": 0.7874015748031497,
                    "duration": 0.125
                },
                {
                    "name": "D#5",
                    "midi": 75,
                    "time": 65.25000000000009,
                    "velocity": 0.7874015748031497,
                    "duration": 0.125
                },
                {
                    "name": "F5",
                    "midi": 77,
                    "time": 65.37500000000009,
                    "velocity": 0.7874015748031497,
                    "duration": 0.125
                },
                {
                    "name": "E5",
                    "midi": 76,
                    "time": 65.50000000000009,
                    "velocity": 0.7874015748031497,
                    "duration": 0.125
                },
                {
                    "name": "B4",
                    "midi": 71,
                    "time": 65.62500000000009,
                    "velocity": 0.7874015748031497,
                    "duration": 0.125
                },
                {
                    "name": "G#4",
                    "midi": 68,
                    "time": 65.75000000000009,
                    "velocity": 0.7874015748031497,
                    "duration": 0.125
                },
                {
                    "name": "E4",
                    "midi": 64,
                    "time": 65.87500000000009,
                    "velocity": 0.7874015748031497,
                    "duration": 0.125
                },
                {
                    "name": "A4",
                    "midi": 69,
                    "time": 66.00000000000009,
                    "velocity": 0.7874015748031497,
                    "duration": 0.125
                },
                {
                    "name": "A5",
                    "midi": 81,
                    "time": 66.12500000000009,
                    "velocity": 0.7874015748031497,
                    "duration": 0.125
                },
                {
                    "name": "G#5",
                    "midi": 80,
                    "time": 66.25000000000009,
                    "velocity": 0.7874015748031497,
                    "duration": 0.125
                },
                {
                    "name": "G5",
                    "midi": 79,
                    "time": 66.37500000000009,
                    "velocity": 0.7874015748031497,
                    "duration": 0.125
                },
                {
                    "name": "F#5",
                    "midi": 78,
                    "time": 66.50000000000009,
                    "velocity": 0.7874015748031497,
                    "duration": 0.125
                },
                {
                    "name": "F5",
                    "midi": 77,
                    "time": 66.62500000000009,
                    "velocity": 0.7874015748031497,
                    "duration": 0.125
                },
                {
                    "name": "E5",
                    "midi": 76,
                    "time": 66.75000000000009,
                    "velocity": 0.7874015748031497,
                    "duration": 0.125
                },
                {
                    "name": "D#5",
                    "midi": 75,
                    "time": 66.87500000000009,
                    "velocity": 0.7874015748031497,
                    "duration": 0.125
                },
                {
                    "name": "F5",
                    "midi": 77,
                    "time": 67.00000000000009,
                    "velocity": 0.7874015748031497,
                    "duration": 0.125
                },
                {
                    "name": "E5",
                    "midi": 76,
                    "time": 67.12500000000009,
                    "velocity": 0.7874015748031497,
                    "duration": 0.125
                },
                {
                    "name": "D#5",
                    "midi": 75,
                    "time": 67.25000000000009,
                    "velocity": 0.7874015748031497,
                    "duration": 0.125
                },
                {
                    "name": "F5",
                    "midi": 77,
                    "time": 67.37500000000009,
                    "velocity": 0.7874015748031497,
                    "duration": 0.125
                },
                {
                    "name": "E5",
                    "midi": 76,
                    "time": 67.50000000000009,
                    "velocity": 0.7874015748031497,
                    "duration": 0.25
                },
                {
                    "name": "E4",
                    "midi": 64,
                    "time": 67.75000000000009,
                    "velocity": 0.7874015748031497,
                    "duration": 0.1041666666666714
                },
                {
                    "name": "A4",
                    "midi": 69,
                    "time": 68.00000000000009,
                    "velocity": 0.7874015748031497,
                    "duration": 0.125
                },
                {
                    "name": "A5",
                    "midi": 81,
                    "time": 68.12500000000009,
                    "velocity": 0.7874015748031497,
                    "duration": 0.125
                },
                {
                    "name": "G#5",
                    "midi": 80,
                    "time": 68.25000000000009,
                    "velocity": 0.7874015748031497,
                    "duration": 0.125
                },
                {
                    "name": "G5",
                    "midi": 79,
                    "time": 68.37500000000009,
                    "velocity": 0.7874015748031497,
                    "duration": 0.125
                },
                {
                    "name": "F#5",
                    "midi": 78,
                    "time": 68.50000000000009,
                    "velocity": 0.7874015748031497,
                    "duration": 0.125
                },
                {
                    "name": "F5",
                    "midi": 77,
                    "time": 68.62500000000009,
                    "velocity": 0.7874015748031497,
                    "duration": 0.125
                },
                {
                    "name": "E5",
                    "midi": 76,
                    "time": 68.75000000000009,
                    "velocity": 0.7874015748031497,
                    "duration": 0.125
                },
                {
                    "name": "D#5",
                    "midi": 75,
                    "time": 68.87500000000009,
                    "velocity": 0.7874015748031497,
                    "duration": 0.125
                },
                {
                    "name": "F5",
                    "midi": 77,
                    "time": 69.00000000000009,
                    "velocity": 0.7874015748031497,
                    "duration": 0.125
                },
                {
                    "name": "E5",
                    "midi": 76,
                    "time": 69.12500000000009,
                    "velocity": 0.7874015748031497,
                    "duration": 0.125
                },
                {
                    "name": "D#5",
                    "midi": 75,
                    "time": 69.25000000000009,
                    "velocity": 0.7874015748031497,
                    "duration": 0.125
                },
                {
                    "name": "F5",
                    "midi": 77,
                    "time": 69.37500000000009,
                    "velocity": 0.7874015748031497,
                    "duration": 0.125
                },
                {
                    "name": "E5",
                    "midi": 76,
                    "time": 69.50000000000009,
                    "velocity": 0.7874015748031497,
                    "duration": 0.125
                },
                {
                    "name": "B4",
                    "midi": 71,
                    "time": 69.62500000000009,
                    "velocity": 0.7874015748031497,
                    "duration": 0.125
                },
                {
                    "name": "G#4",
                    "midi": 68,
                    "time": 69.75000000000009,
                    "velocity": 0.7874015748031497,
                    "duration": 0.125
                },
                {
                    "name": "E4",
                    "midi": 64,
                    "time": 69.87500000000009,
                    "velocity": 0.7874015748031497,
                    "duration": 0.125
                },
                {
                    "name": "A4",
                    "midi": 69,
                    "time": 70.00000000000009,
                    "velocity": 0.7874015748031497,
                    "duration": 0.125
                },
                {
                    "name": "A5",
                    "midi": 81,
                    "time": 70.12500000000009,
                    "velocity": 0.7874015748031497,
                    "duration": 0.125
                },
                {
                    "name": "G#5",
                    "midi": 80,
                    "time": 70.25000000000009,
                    "velocity": 0.7874015748031497,
                    "duration": 0.125
                },
                {
                    "name": "G5",
                    "midi": 79,
                    "time": 70.37500000000009,
                    "velocity": 0.7874015748031497,
                    "duration": 0.125
                },
                {
                    "name": "F#5",
                    "midi": 78,
                    "time": 70.50000000000009,
                    "velocity": 0.7874015748031497,
                    "duration": 0.125
                },
                {
                    "name": "F5",
                    "midi": 77,
                    "time": 70.62500000000009,
                    "velocity": 0.7874015748031497,
                    "duration": 0.125
                },
                {
                    "name": "E5",
                    "midi": 76,
                    "time": 70.75000000000009,
                    "velocity": 0.7874015748031497,
                    "duration": 0.125
                },
                {
                    "name": "D#5",
                    "midi": 75,
                    "time": 70.87500000000009,
                    "velocity": 0.7874015748031497,
                    "duration": 0.125
                },
                {
                    "name": "F5",
                    "midi": 77,
                    "time": 71.00000000000009,
                    "velocity": 0.7874015748031497,
                    "duration": 0.125
                },
                {
                    "name": "E5",
                    "midi": 76,
                    "time": 71.12500000000009,
                    "velocity": 0.7874015748031497,
                    "duration": 0.125
                },
                {
                    "name": "D#5",
                    "midi": 75,
                    "time": 71.25000000000009,
                    "velocity": 0.7874015748031497,
                    "duration": 0.125
                },
                {
                    "name": "F5",
                    "midi": 77,
                    "time": 71.37500000000009,
                    "velocity": 0.7874015748031497,
                    "duration": 0.125
                },
                {
                    "name": "E5",
                    "midi": 76,
                    "time": 71.50000000000009,
                    "velocity": 0.7874015748031497,
                    "duration": 0.25
                },
                {
                    "name": "E4",
                    "midi": 64,
                    "time": 71.75000000000009,
                    "velocity": 0.7874015748031497,
                    "duration": 0.1041666666666714
                },
                {
                    "name": "A4",
                    "midi": 69,
                    "time": 72.00000000000009,
                    "velocity": 0.7874015748031497,
                    "duration": 0.125
                },
                {
                    "name": "A5",
                    "midi": 81,
                    "time": 72.12500000000009,
                    "velocity": 0.7874015748031497,
                    "duration": 0.125
                },
                {
                    "name": "G#5",
                    "midi": 80,
                    "time": 72.25000000000009,
                    "velocity": 0.7874015748031497,
                    "duration": 0.125
                },
                {
                    "name": "G5",
                    "midi": 79,
                    "time": 72.37500000000009,
                    "velocity": 0.7874015748031497,
                    "duration": 0.125
                },
                {
                    "name": "F#5",
                    "midi": 78,
                    "time": 72.50000000000009,
                    "velocity": 0.7874015748031497,
                    "duration": 0.125
                },
                {
                    "name": "F5",
                    "midi": 77,
                    "time": 72.62500000000009,
                    "velocity": 0.7874015748031497,
                    "duration": 0.125
                },
                {
                    "name": "E5",
                    "midi": 76,
                    "time": 72.75000000000009,
                    "velocity": 0.7874015748031497,
                    "duration": 0.125
                },
                {
                    "name": "D5",
                    "midi": 74,
                    "time": 72.87500000000009,
                    "velocity": 0.7874015748031497,
                    "duration": 0.125
                },
                {
                    "name": "C#5",
                    "midi": 73,
                    "time": 73.00000000000009,
                    "velocity": 0.7874015748031497,
                    "duration": 0.125
                },
                {
                    "name": "E5",
                    "midi": 76,
                    "time": 73.12500000000009,
                    "velocity": 0.7874015748031497,
                    "duration": 0.125
                },
                {
                    "name": "A4",
                    "midi": 69,
                    "time": 73.25000000000009,
                    "velocity": 0.7874015748031497,
                    "duration": 0.125
                },
                {
                    "name": "C5",
                    "midi": 72,
                    "time": 73.37500000000009,
                    "velocity": 0.7874015748031497,
                    "duration": 0.125
                },
                {
                    "name": "D5",
                    "midi": 74,
                    "time": 73.50000000000009,
                    "velocity": 0.7874015748031497,
                    "duration": 0.125
                },
                {
                    "name": "A4",
                    "midi": 69,
                    "time": 73.62500000000009,
                    "velocity": 0.7874015748031497,
                    "duration": 0.125
                },
                {
                    "name": "F4",
                    "midi": 65,
                    "time": 73.75000000000009,
                    "velocity": 0.7874015748031497,
                    "duration": 0.125
                },
                {
                    "name": "D4",
                    "midi": 62,
                    "time": 73.87500000000009,
                    "velocity": 0.7874015748031497,
                    "duration": 0.125
                },
                {
                    "name": "G4",
                    "midi": 67,
                    "time": 74.00000000000009,
                    "velocity": 0.7874015748031497,
                    "duration": 0.125
                },
                {
                    "name": "G5",
                    "midi": 79,
                    "time": 74.12500000000009,
                    "velocity": 0.7874015748031497,
                    "duration": 0.125
                },
                {
                    "name": "F#5",
                    "midi": 78,
                    "time": 74.25000000000009,
                    "velocity": 0.7874015748031497,
                    "duration": 0.125
                },
                {
                    "name": "F5",
                    "midi": 77,
                    "time": 74.37500000000009,
                    "velocity": 0.7874015748031497,
                    "duration": 0.125
                },
                {
                    "name": "E5",
                    "midi": 76,
                    "time": 74.50000000000009,
                    "velocity": 0.7874015748031497,
                    "duration": 0.125
                },
                {
                    "name": "D#5",
                    "midi": 75,
                    "time": 74.62500000000009,
                    "velocity": 0.7874015748031497,
                    "duration": 0.125
                },
                {
                    "name": "D5",
                    "midi": 74,
                    "time": 74.75000000000009,
                    "velocity": 0.7874015748031497,
                    "duration": 0.125
                },
                {
                    "name": "C5",
                    "midi": 72,
                    "time": 74.87500000000009,
                    "velocity": 0.7874015748031497,
                    "duration": 0.125
                },
                {
                    "name": "B4",
                    "midi": 71,
                    "time": 75.00000000000009,
                    "velocity": 0.7874015748031497,
                    "duration": 0.125
                },
                {
                    "name": "D5",
                    "midi": 74,
                    "time": 75.12500000000009,
                    "velocity": 0.7874015748031497,
                    "duration": 0.125
                },
                {
                    "name": "G4",
                    "midi": 67,
                    "time": 75.25000000000009,
                    "velocity": 0.7874015748031497,
                    "duration": 0.125
                },
                {
                    "name": "B4",
                    "midi": 71,
                    "time": 75.37500000000009,
                    "velocity": 0.7874015748031497,
                    "duration": 0.125
                },
                {
                    "name": "C5",
                    "midi": 72,
                    "time": 75.50000000000009,
                    "velocity": 0.7874015748031497,
                    "duration": 0.125
                },
                {
                    "name": "G4",
                    "midi": 67,
                    "time": 75.62500000000009,
                    "velocity": 0.7874015748031497,
                    "duration": 0.125
                },
                {
                    "name": "E4",
                    "midi": 64,
                    "time": 75.75000000000009,
                    "velocity": 0.7874015748031497,
                    "duration": 0.125
                },
                {
                    "name": "C4",
                    "midi": 60,
                    "time": 75.87500000000009,
                    "velocity": 0.7874015748031497,
                    "duration": 0.125
                },
                {
                    "name": "F4",
                    "midi": 65,
                    "time": 76.00000000000009,
                    "velocity": 0.7874015748031497,
                    "duration": 0.125
                },
                {
                    "name": "F5",
                    "midi": 77,
                    "time": 76.12500000000009,
                    "velocity": 0.7874015748031497,
                    "duration": 0.125
                },
                {
                    "name": "E5",
                    "midi": 76,
                    "time": 76.25000000000009,
                    "velocity": 0.7874015748031497,
                    "duration": 0.125
                },
                {
                    "name": "D#5",
                    "midi": 75,
                    "time": 76.37500000000009,
                    "velocity": 0.7874015748031497,
                    "duration": 0.125
                },
                {
                    "name": "D5",
                    "midi": 74,
                    "time": 76.50000000000009,
                    "velocity": 0.7874015748031497,
                    "duration": 0.125
                },
                {
                    "name": "C#5",
                    "midi": 73,
                    "time": 76.62500000000009,
                    "velocity": 0.7874015748031497,
                    "duration": 0.125
                },
                {
                    "name": "C5",
                    "midi": 72,
                    "time": 76.75000000000009,
                    "velocity": 0.7874015748031497,
                    "duration": 0.125
                },
                {
                    "name": "B4",
                    "midi": 71,
                    "time": 76.87500000000009,
                    "velocity": 0.7874015748031497,
                    "duration": 0.125
                },
                {
                    "name": "E4",
                    "midi": 64,
                    "time": 77.00000000000009,
                    "velocity": 0.7874015748031497,
                    "duration": 0.125
                },
                {
                    "name": "E5",
                    "midi": 76,
                    "time": 77.12500000000009,
                    "velocity": 0.7874015748031497,
                    "duration": 0.125
                },
                {
                    "name": "D#5",
                    "midi": 75,
                    "time": 77.25000000000009,
                    "velocity": 0.7874015748031497,
                    "duration": 0.125
                },
                {
                    "name": "D5",
                    "midi": 74,
                    "time": 77.37500000000009,
                    "velocity": 0.7874015748031497,
                    "duration": 0.125
                },
                {
                    "name": "C#5",
                    "midi": 73,
                    "time": 77.50000000000009,
                    "velocity": 0.7874015748031497,
                    "duration": 0.125
                },
                {
                    "name": "C5",
                    "midi": 72,
                    "time": 77.62500000000009,
                    "velocity": 0.7874015748031497,
                    "duration": 0.125
                },
                {
                    "name": "B4",
                    "midi": 71,
                    "time": 77.75000000000009,
                    "velocity": 0.7874015748031497,
                    "duration": 0.125
                },
                {
                    "name": "A4",
                    "midi": 69,
                    "time": 77.87500000000009,
                    "velocity": 0.7874015748031497,
                    "duration": 0.125
                },
                {
                    "name": "F4",
                    "midi": 65,
                    "time": 78.00000000000009,
                    "velocity": 0.7874015748031497,
                    "duration": 0.125
                },
                {
                    "name": "E4",
                    "midi": 64,
                    "time": 78.12500000000009,
                    "velocity": 0.7874015748031497,
                    "duration": 0.125
                },
                {
                    "name": "D#4",
                    "midi": 63,
                    "time": 78.25000000000009,
                    "velocity": 0.7874015748031497,
                    "duration": 0.125
                },
                {
                    "name": "D4",
                    "midi": 62,
                    "time": 78.37500000000009,
                    "velocity": 0.7874015748031497,
                    "duration": 0.125
                },
                {
                    "name": "C#4",
                    "midi": 61,
                    "time": 78.50000000000009,
                    "velocity": 0.7874015748031497,
                    "duration": 0.125
                },
                {
                    "name": "C4",
                    "midi": 60,
                    "time": 78.62500000000009,
                    "velocity": 0.7874015748031497,
                    "duration": 0.125
                },
                {
                    "name": "B3",
                    "midi": 59,
                    "time": 78.75000000000009,
                    "velocity": 0.7874015748031497,
                    "duration": 0.125
                },
                {
                    "name": "G#3",
                    "midi": 56,
                    "time": 78.87500000000009,
                    "velocity": 0.7874015748031497,
                    "duration": 0.125
                },
                {
                    "name": "A3",
                    "midi": 57,
                    "time": 79.00000000000009,
                    "velocity": 0.7874015748031497,
                    "duration": 0.125
                },
                {
                    "name": "A5",
                    "midi": 81,
                    "time": 79.12500000000009,
                    "velocity": 0.7874015748031497,
                    "duration": 0.125
                },
                {
                    "name": "E5",
                    "midi": 76,
                    "time": 79.25000000000009,
                    "velocity": 0.7874015748031497,
                    "duration": 0.125
                },
                {
                    "name": "C5",
                    "midi": 72,
                    "time": 79.37500000000009,
                    "velocity": 0.7874015748031497,
                    "duration": 0.125
                },
                {
                    "name": "A4",
                    "midi": 69,
                    "time": 79.50000000000009,
                    "velocity": 0.7874015748031497,
                    "duration": 0.125
                },
                {
                    "name": "E4",
                    "midi": 64,
                    "time": 79.62500000000009,
                    "velocity": 0.7874015748031497,
                    "duration": 0.125
                },
                {
                    "name": "C4",
                    "midi": 60,
                    "time": 79.75000000000009,
                    "velocity": 0.7874015748031497,
                    "duration": 0.125
                },
                {
                    "name": "A3",
                    "midi": 57,
                    "time": 79.87500000000009,
                    "velocity": 0.7874015748031497,
                    "duration": 0.125
                },
                {
                    "name": "A3",
                    "midi": 57,
                    "time": 80.00000000000009,
                    "velocity": 0.7874015748031497,
                    "duration": 0.25
                },
                {
                    "name": "F5",
                    "midi": 77,
                    "time": 80.25000000000009,
                    "velocity": 0.7874015748031497,
                    "duration": 0.125
                },
                {
                    "name": "F4",
                    "midi": 65,
                    "time": 80.37500000000009,
                    "velocity": 0.7874015748031497,
                    "duration": 0.125
                },
                {
                    "name": "E5",
                    "midi": 76,
                    "time": 80.50000000000009,
                    "velocity": 0.7874015748031497,
                    "duration": 0.125
                },
                {
                    "name": "E4",
                    "midi": 64,
                    "time": 80.62500000000009,
                    "velocity": 0.7874015748031497,
                    "duration": 0.125
                },
                {
                    "name": "A3",
                    "midi": 57,
                    "time": 80.75000000000009,
                    "velocity": 0.7874015748031497,
                    "duration": 0.25
                },
                {
                    "name": "G#3",
                    "midi": 56,
                    "time": 81.00000000000009,
                    "velocity": 0.7874015748031497,
                    "duration": 0.25
                },
                {
                    "name": "D#6",
                    "midi": 87,
                    "time": 81.25000000000009,
                    "velocity": 0.7874015748031497,
                    "duration": 0.125
                },
                {
                    "name": "D#5",
                    "midi": 75,
                    "time": 81.37500000000009,
                    "velocity": 0.7874015748031497,
                    "duration": 0.125
                },
                {
                    "name": "E6",
                    "midi": 88,
                    "time": 81.50000000000009,
                    "velocity": 0.7874015748031497,
                    "duration": 0.125
                },
                {
                    "name": "E5",
                    "midi": 76,
                    "time": 81.62500000000009,
                    "velocity": 0.7874015748031497,
                    "duration": 0.125
                },
                {
                    "name": "G4",
                    "midi": 67,
                    "time": 81.75000000000009,
                    "velocity": 0.7874015748031497,
                    "duration": 0.25
                },
                {
                    "name": "A3",
                    "midi": 57,
                    "time": 82.00000000000009,
                    "velocity": 0.7874015748031497,
                    "duration": 0.25
                },
                {
                    "name": "F5",
                    "midi": 77,
                    "time": 82.25000000000009,
                    "velocity": 0.7874015748031497,
                    "duration": 0.125
                },
                {
                    "name": "F4",
                    "midi": 65,
                    "time": 82.37500000000009,
                    "velocity": 0.7874015748031497,
                    "duration": 0.125
                },
                {
                    "name": "E5",
                    "midi": 76,
                    "time": 82.50000000000009,
                    "velocity": 0.7874015748031497,
                    "duration": 0.125
                },
                {
                    "name": "E4",
                    "midi": 64,
                    "time": 82.62500000000009,
                    "velocity": 0.7874015748031497,
                    "duration": 0.125
                },
                {
                    "name": "A3",
                    "midi": 57,
                    "time": 82.75000000000009,
                    "velocity": 0.7874015748031497,
                    "duration": 0.25
                },
                {
                    "name": "G#3",
                    "midi": 56,
                    "time": 83.00000000000009,
                    "velocity": 0.7874015748031497,
                    "duration": 0.25
                },
                {
                    "name": "D#6",
                    "midi": 87,
                    "time": 83.25000000000009,
                    "velocity": 0.7874015748031497,
                    "duration": 0.125
                },
                {
                    "name": "D#5",
                    "midi": 75,
                    "time": 83.37500000000009,
                    "velocity": 0.7874015748031497,
                    "duration": 0.125
                },
                {
                    "name": "E6",
                    "midi": 88,
                    "time": 83.50000000000009,
                    "velocity": 0.7874015748031497,
                    "duration": 0.125
                },
                {
                    "name": "E5",
                    "midi": 76,
                    "time": 83.62500000000009,
                    "velocity": 0.7874015748031497,
                    "duration": 0.125
                },
                {
                    "name": "A3",
                    "midi": 57,
                    "time": 84.00000000000009,
                    "velocity": 0.7874015748031497,
                    "duration": 0.25
                },
                {
                    "name": "F5",
                    "midi": 77,
                    "time": 84.25000000000009,
                    "velocity": 0.7874015748031497,
                    "duration": 0.125
                },
                {
                    "name": "F4",
                    "midi": 65,
                    "time": 84.37500000000009,
                    "velocity": 0.7874015748031497,
                    "duration": 0.125
                },
                {
                    "name": "E5",
                    "midi": 76,
                    "time": 84.50000000000009,
                    "velocity": 0.7874015748031497,
                    "duration": 0.125
                },
                {
                    "name": "E4",
                    "midi": 64,
                    "time": 84.62500000000009,
                    "velocity": 0.7874015748031497,
                    "duration": 0.125
                },
                {
                    "name": "A3",
                    "midi": 57,
                    "time": 84.75000000000009,
                    "velocity": 0.7874015748031497,
                    "duration": 0.25
                },
                {
                    "name": "G#3",
                    "midi": 56,
                    "time": 85.00000000000009,
                    "velocity": 0.7874015748031497,
                    "duration": 0.25
                },
                {
                    "name": "D#6",
                    "midi": 87,
                    "time": 85.25000000000009,
                    "velocity": 0.7874015748031497,
                    "duration": 0.125
                },
                {
                    "name": "D#5",
                    "midi": 75,
                    "time": 85.37500000000009,
                    "velocity": 0.7874015748031497,
                    "duration": 0.125
                },
                {
                    "name": "E6",
                    "midi": 88,
                    "time": 85.50000000000009,
                    "velocity": 0.7874015748031497,
                    "duration": 0.125
                },
                {
                    "name": "E5",
                    "midi": 76,
                    "time": 85.62500000000009,
                    "velocity": 0.7874015748031497,
                    "duration": 0.125
                },
                {
                    "name": "G4",
                    "midi": 67,
                    "time": 85.75000000000009,
                    "velocity": 0.7874015748031497,
                    "duration": 0.25
                },
                {
                    "name": "A3",
                    "midi": 57,
                    "time": 86.00000000000009,
                    "velocity": 0.7874015748031497,
                    "duration": 0.25
                },
                {
                    "name": "F5",
                    "midi": 77,
                    "time": 86.25000000000009,
                    "velocity": 0.7874015748031497,
                    "duration": 0.125
                },
                {
                    "name": "F4",
                    "midi": 65,
                    "time": 86.37500000000009,
                    "velocity": 0.7874015748031497,
                    "duration": 0.125
                },
                {
                    "name": "E5",
                    "midi": 76,
                    "time": 86.50000000000009,
                    "velocity": 0.7874015748031497,
                    "duration": 0.125
                },
                {
                    "name": "E4",
                    "midi": 64,
                    "time": 86.62500000000009,
                    "velocity": 0.7874015748031497,
                    "duration": 0.125
                },
                {
                    "name": "A3",
                    "midi": 57,
                    "time": 86.75000000000009,
                    "velocity": 0.7874015748031497,
                    "duration": 0.25
                },
                {
                    "name": "G#3",
                    "midi": 56,
                    "time": 87.00000000000009,
                    "velocity": 0.7874015748031497,
                    "duration": 0.25
                },
                {
                    "name": "D#6",
                    "midi": 87,
                    "time": 87.25000000000009,
                    "velocity": 0.7874015748031497,
                    "duration": 0.125
                },
                {
                    "name": "D#5",
                    "midi": 75,
                    "time": 87.37500000000009,
                    "velocity": 0.7874015748031497,
                    "duration": 0.125
                },
                {
                    "name": "E6",
                    "midi": 88,
                    "time": 87.50000000000009,
                    "velocity": 0.7874015748031497,
                    "duration": 0.125
                },
                {
                    "name": "E5",
                    "midi": 76,
                    "time": 87.62500000000009,
                    "velocity": 0.7874015748031497,
                    "duration": 0.125
                },
                {
                    "name": "C#4",
                    "midi": 61,
                    "time": 88.00000000000009,
                    "velocity": 0.7874015748031497,
                    "duration": 0.25
                },
                {
                    "name": "A#6",
                    "midi": 94,
                    "time": 88.25000000000009,
                    "velocity": 0.7874015748031497,
                    "duration": 0.125
                },
                {
                    "name": "A#5",
                    "midi": 82,
                    "time": 88.37500000000009,
                    "velocity": 0.7874015748031497,
                    "duration": 0.125
                },
                {
                    "name": "A6",
                    "midi": 93,
                    "time": 88.50000000000009,
                    "velocity": 0.7874015748031497,
                    "duration": 0.125
                },
                {
                    "name": "A5",
                    "midi": 81,
                    "time": 88.62500000000009,
                    "velocity": 0.7874015748031497,
                    "duration": 0.125
                },
                {
                    "name": "C4",
                    "midi": 60,
                    "time": 88.75000000000009,
                    "velocity": 0.7874015748031497,
                    "duration": 0.25
                },
                {
                    "name": "D4",
                    "midi": 62,
                    "time": 89.00000000000009,
                    "velocity": 0.7874015748031497,
                    "duration": 0.25
                },
                {
                    "name": "E5",
                    "midi": 76,
                    "time": 89.25000000000009,
                    "velocity": 0.7874015748031497,
                    "duration": 0.125
                },
                {
                    "name": "E4",
                    "midi": 64,
                    "time": 89.37500000000009,
                    "velocity": 0.7874015748031497,
                    "duration": 0.125
                },
                {
                    "name": "F5",
                    "midi": 77,
                    "time": 89.50000000000009,
                    "velocity": 0.7874015748031497,
                    "duration": 0.125
                },
                {
                    "name": "F4",
                    "midi": 65,
                    "time": 89.62500000000009,
                    "velocity": 0.7874015748031497,
                    "duration": 0.125
                },
                {
                    "name": "C4",
                    "midi": 60,
                    "time": 89.75000000000009,
                    "velocity": 0.7874015748031497,
                    "duration": 0.25
                },
                {
                    "name": "B3",
                    "midi": 59,
                    "time": 90.00000000000009,
                    "velocity": 0.7874015748031497,
                    "duration": 0.25
                },
                {
                    "name": "G#6",
                    "midi": 92,
                    "time": 90.25000000000009,
                    "velocity": 0.7874015748031497,
                    "duration": 0.125
                },
                {
                    "name": "G#5",
                    "midi": 80,
                    "time": 90.37500000000009,
                    "velocity": 0.7874015748031497,
                    "duration": 0.125
                },
                {
                    "name": "G6",
                    "midi": 91,
                    "time": 90.50000000000009,
                    "velocity": 0.7874015748031497,
                    "duration": 0.125
                },
                {
                    "name": "G5",
                    "midi": 79,
                    "time": 90.62500000000009,
                    "velocity": 0.7874015748031497,
                    "duration": 0.125
                },
                {
                    "name": "B3",
                    "midi": 59,
                    "time": 90.75000000000009,
                    "velocity": 0.7874015748031497,
                    "duration": 0.25
                },
                {
                    "name": "C4",
                    "midi": 60,
                    "time": 91.00000000000009,
                    "velocity": 0.7874015748031497,
                    "duration": 0.25
                },
                {
                    "name": "D#5",
                    "midi": 75,
                    "time": 91.25000000000009,
                    "velocity": 0.7874015748031497,
                    "duration": 0.125
                },
                {
                    "name": "D#4",
                    "midi": 63,
                    "time": 91.37500000000009,
                    "velocity": 0.7874015748031497,
                    "duration": 0.125
                },
                {
                    "name": "E5",
                    "midi": 76,
                    "time": 91.50000000000009,
                    "velocity": 0.7874015748031497,
                    "duration": 0.125
                },
                {
                    "name": "E4",
                    "midi": 64,
                    "time": 91.62500000000009,
                    "velocity": 0.7874015748031497,
                    "duration": 0.125
                },
                {
                    "name": "C4",
                    "midi": 60,
                    "time": 91.75000000000009,
                    "velocity": 0.7874015748031497,
                    "duration": 0.25
                },
                {
                    "name": "D4",
                    "midi": 62,
                    "time": 92.00000000000009,
                    "velocity": 0.7874015748031497,
                    "duration": 0.25
                },
                {
                    "name": "B5",
                    "midi": 83,
                    "time": 92.25000000000009,
                    "velocity": 0.7874015748031497,
                    "duration": 0.125
                },
                {
                    "name": "B4",
                    "midi": 71,
                    "time": 92.37500000000009,
                    "velocity": 0.7874015748031497,
                    "duration": 0.125
                },
                {
                    "name": "A#5",
                    "midi": 82,
                    "time": 92.50000000000009,
                    "velocity": 0.7874015748031497,
                    "duration": 0.125
                },
                {
                    "name": "A#4",
                    "midi": 70,
                    "time": 92.62500000000009,
                    "velocity": 0.7874015748031497,
                    "duration": 0.125
                },
                {
                    "name": "D4",
                    "midi": 62,
                    "time": 92.75000000000009,
                    "velocity": 0.7874015748031497,
                    "duration": 0.25
                },
                {
                    "name": "E4",
                    "midi": 64,
                    "time": 93.00000000000009,
                    "velocity": 0.7874015748031497,
                    "duration": 0.25
                },
                {
                    "name": "G#5",
                    "midi": 80,
                    "time": 93.25000000000009,
                    "velocity": 0.7874015748031497,
                    "duration": 0.125
                },
                {
                    "name": "G#4",
                    "midi": 68,
                    "time": 93.37500000000009,
                    "velocity": 0.7874015748031497,
                    "duration": 0.125
                },
                {
                    "name": "A5",
                    "midi": 81,
                    "time": 93.50000000000009,
                    "velocity": 0.7874015748031497,
                    "duration": 0.125
                },
                {
                    "name": "A4",
                    "midi": 69,
                    "time": 93.62500000000009,
                    "velocity": 0.7874015748031497,
                    "duration": 0.125
                },
                {
                    "name": "F4",
                    "midi": 65,
                    "time": 93.75000000000009,
                    "velocity": 0.7874015748031497,
                    "duration": 0.25
                },
                {
                    "name": "D4",
                    "midi": 62,
                    "time": 94.00000000000009,
                    "velocity": 0.7874015748031497,
                    "duration": 0.25
                },
                {
                    "name": "F6",
                    "midi": 89,
                    "time": 94.25000000000009,
                    "velocity": 0.7874015748031497,
                    "duration": 0.125
                },
                {
                    "name": "F5",
                    "midi": 77,
                    "time": 94.37500000000009,
                    "velocity": 0.7874015748031497,
                    "duration": 0.125
                },
                {
                    "name": "E6",
                    "midi": 88,
                    "time": 94.50000000000009,
                    "velocity": 0.7874015748031497,
                    "duration": 0.125
                },
                {
                    "name": "E5",
                    "midi": 76,
                    "time": 94.62500000000009,
                    "velocity": 0.7874015748031497,
                    "duration": 0.125
                },
                {
                    "name": "E4",
                    "midi": 64,
                    "time": 94.75000000000009,
                    "velocity": 0.7874015748031497,
                    "duration": 0.25
                },
                {
                    "name": "A3",
                    "midi": 57,
                    "time": 95.00000000000009,
                    "velocity": 0.7874015748031497,
                    "duration": 0.25
                },
                {
                    "name": "C6",
                    "midi": 84,
                    "time": 95.25000000000009,
                    "velocity": 0.7874015748031497,
                    "duration": 0.125
                },
                {
                    "name": "C5",
                    "midi": 72,
                    "time": 95.37500000000009,
                    "velocity": 0.7874015748031497,
                    "duration": 0.125
                },
                {
                    "name": "A5",
                    "midi": 81,
                    "time": 95.50000000000009,
                    "velocity": 0.7874015748031497,
                    "duration": 0.125
                },
                {
                    "name": "A4",
                    "midi": 69,
                    "time": 95.62500000000009,
                    "velocity": 0.7874015748031497,
                    "duration": 0.125
                },
                {
                    "name": "C6",
                    "midi": 84,
                    "time": 96.00000000000009,
                    "velocity": 0.7874015748031497,
                    "duration": 0.75
                },
                {
                    "name": "E6",
                    "midi": 88,
                    "time": 96.00000000000009,
                    "velocity": 0.7874015748031497,
                    "duration": 0.75
                },
                {
                    "name": "D6",
                    "midi": 86,
                    "time": 96.75000000000009,
                    "velocity": 0.7874015748031497,
                    "duration": 0.125
                },
                {
                    "name": "B5",
                    "midi": 83,
                    "time": 96.75000000000009,
                    "velocity": 0.7874015748031497,
                    "duration": 0.125
                },
                {
                    "name": "C6",
                    "midi": 84,
                    "time": 96.87500000000009,
                    "velocity": 0.7874015748031497,
                    "duration": 0.125
                },
                {
                    "name": "A5",
                    "midi": 81,
                    "time": 96.87500000000009,
                    "velocity": 0.7874015748031497,
                    "duration": 0.125
                },
                {
                    "name": "G#5",
                    "midi": 80,
                    "time": 97.00000000000009,
                    "velocity": 0.7874015748031497,
                    "duration": 0.125
                },
                {
                    "name": "B5",
                    "midi": 83,
                    "time": 97.00000000000009,
                    "velocity": 0.7874015748031497,
                    "duration": 0.125
                },
                {
                    "name": "A5",
                    "midi": 81,
                    "time": 97.12500000000009,
                    "velocity": 0.7874015748031497,
                    "duration": 0.125
                },
                {
                    "name": "F5",
                    "midi": 77,
                    "time": 97.12500000000009,
                    "velocity": 0.7874015748031497,
                    "duration": 0.125
                },
                {
                    "name": "G5",
                    "midi": 79,
                    "time": 97.25000000000009,
                    "velocity": 0.7874015748031497,
                    "duration": 0.125
                },
                {
                    "name": "E5",
                    "midi": 76,
                    "time": 97.25000000000009,
                    "velocity": 0.7874015748031497,
                    "duration": 0.125
                },
                {
                    "name": "F5",
                    "midi": 77,
                    "time": 97.37500000000009,
                    "velocity": 0.7874015748031497,
                    "duration": 0.125
                },
                {
                    "name": "D5",
                    "midi": 74,
                    "time": 97.37500000000009,
                    "velocity": 0.7874015748031497,
                    "duration": 0.125
                },
                {
                    "name": "C5",
                    "midi": 72,
                    "time": 97.50000000000009,
                    "velocity": 0.7874015748031497,
                    "duration": 0.125
                },
                {
                    "name": "E5",
                    "midi": 76,
                    "time": 97.50000000000009,
                    "velocity": 0.7874015748031497,
                    "duration": 0.125
                },
                {
                    "name": "B4",
                    "midi": 71,
                    "time": 97.62500000000009,
                    "velocity": 0.7874015748031497,
                    "duration": 0.125
                },
                {
                    "name": "D5",
                    "midi": 74,
                    "time": 97.62500000000009,
                    "velocity": 0.7874015748031497,
                    "duration": 0.125
                },
                {
                    "name": "A4",
                    "midi": 69,
                    "time": 97.75000000000009,
                    "velocity": 0.7874015748031497,
                    "duration": 0.125
                },
                {
                    "name": "C5",
                    "midi": 72,
                    "time": 97.75000000000009,
                    "velocity": 0.7874015748031497,
                    "duration": 0.125
                },
                {
                    "name": "G#4",
                    "midi": 68,
                    "time": 97.87500000000009,
                    "velocity": 0.7874015748031497,
                    "duration": 0.125
                },
                {
                    "name": "B4",
                    "midi": 71,
                    "time": 97.87500000000009,
                    "velocity": 0.7874015748031497,
                    "duration": 0.125
                },
                {
                    "name": "C5",
                    "midi": 72,
                    "time": 98.00000000000009,
                    "velocity": 0.7874015748031497,
                    "duration": 0.75
                },
                {
                    "name": "A4",
                    "midi": 69,
                    "time": 98.00000000000009,
                    "velocity": 0.7874015748031497,
                    "duration": 0.75
                },
                {
                    "name": "D5",
                    "midi": 74,
                    "time": 98.75000000000009,
                    "velocity": 0.7874015748031497,
                    "duration": 0.125
                },
                {
                    "name": "B4",
                    "midi": 71,
                    "time": 98.75000000000009,
                    "velocity": 0.7874015748031497,
                    "duration": 0.125
                },
                {
                    "name": "E5",
                    "midi": 76,
                    "time": 98.87500000000009,
                    "velocity": 0.7874015748031497,
                    "duration": 0.125
                },
                {
                    "name": "C5",
                    "midi": 72,
                    "time": 98.87500000000009,
                    "velocity": 0.7874015748031497,
                    "duration": 0.125
                },
                {
                    "name": "B4",
                    "midi": 71,
                    "time": 99.00000000000009,
                    "velocity": 0.7874015748031497,
                    "duration": 0.125
                },
                {
                    "name": "D5",
                    "midi": 74,
                    "time": 99.00000000000009,
                    "velocity": 0.7874015748031497,
                    "duration": 0.125
                },
                {
                    "name": "A4",
                    "midi": 69,
                    "time": 99.12500000000009,
                    "velocity": 0.7874015748031497,
                    "duration": 0.125
                },
                {
                    "name": "C5",
                    "midi": 72,
                    "time": 99.12500000000009,
                    "velocity": 0.7874015748031497,
                    "duration": 0.125
                },
                {
                    "name": "G#4",
                    "midi": 68,
                    "time": 99.25000000000009,
                    "velocity": 0.7874015748031497,
                    "duration": 0.125
                },
                {
                    "name": "B4",
                    "midi": 71,
                    "time": 99.25000000000009,
                    "velocity": 0.7874015748031497,
                    "duration": 0.125
                },
                {
                    "name": "A4",
                    "midi": 69,
                    "time": 99.37500000000009,
                    "velocity": 0.7874015748031497,
                    "duration": 0.125
                },
                {
                    "name": "F4",
                    "midi": 65,
                    "time": 99.37500000000009,
                    "velocity": 0.7874015748031497,
                    "duration": 0.125
                },
                {
                    "name": "G4",
                    "midi": 67,
                    "time": 99.50000000000009,
                    "velocity": 0.7874015748031497,
                    "duration": 0.5
                },
                {
                    "name": "E4",
                    "midi": 64,
                    "time": 99.50000000000009,
                    "velocity": 0.7874015748031497,
                    "duration": 0.5
                },
                {
                    "name": "C6",
                    "midi": 84,
                    "time": 100.00000000000009,
                    "velocity": 0.7874015748031497,
                    "duration": 0.75
                },
                {
                    "name": "E6",
                    "midi": 88,
                    "time": 100.00000000000009,
                    "velocity": 0.7874015748031497,
                    "duration": 0.75
                },
                {
                    "name": "D6",
                    "midi": 86,
                    "time": 100.75000000000009,
                    "velocity": 0.7874015748031497,
                    "duration": 0.125
                },
                {
                    "name": "B5",
                    "midi": 83,
                    "time": 100.75000000000009,
                    "velocity": 0.7874015748031497,
                    "duration": 0.125
                },
                {
                    "name": "C6",
                    "midi": 84,
                    "time": 100.87500000000009,
                    "velocity": 0.7874015748031497,
                    "duration": 0.125
                },
                {
                    "name": "A5",
                    "midi": 81,
                    "time": 100.87500000000009,
                    "velocity": 0.7874015748031497,
                    "duration": 0.125
                },
                {
                    "name": "G#5",
                    "midi": 80,
                    "time": 101.00000000000009,
                    "velocity": 0.7874015748031497,
                    "duration": 0.125
                },
                {
                    "name": "B5",
                    "midi": 83,
                    "time": 101.00000000000009,
                    "velocity": 0.7874015748031497,
                    "duration": 0.125
                },
                {
                    "name": "A5",
                    "midi": 81,
                    "time": 101.12500000000009,
                    "velocity": 0.7874015748031497,
                    "duration": 0.125
                },
                {
                    "name": "F5",
                    "midi": 77,
                    "time": 101.12500000000009,
                    "velocity": 0.7874015748031497,
                    "duration": 0.125
                },
                {
                    "name": "G5",
                    "midi": 79,
                    "time": 101.25000000000009,
                    "velocity": 0.7874015748031497,
                    "duration": 0.125
                },
                {
                    "name": "E5",
                    "midi": 76,
                    "time": 101.25000000000009,
                    "velocity": 0.7874015748031497,
                    "duration": 0.125
                },
                {
                    "name": "F5",
                    "midi": 77,
                    "time": 101.37500000000009,
                    "velocity": 0.7874015748031497,
                    "duration": 0.125
                },
                {
                    "name": "D5",
                    "midi": 74,
                    "time": 101.37500000000009,
                    "velocity": 0.7874015748031497,
                    "duration": 0.125
                },
                {
                    "name": "C5",
                    "midi": 72,
                    "time": 101.50000000000009,
                    "velocity": 0.7874015748031497,
                    "duration": 0.125
                },
                {
                    "name": "E5",
                    "midi": 76,
                    "time": 101.50000000000009,
                    "velocity": 0.7874015748031497,
                    "duration": 0.125
                },
                {
                    "name": "B4",
                    "midi": 71,
                    "time": 101.62500000000009,
                    "velocity": 0.7874015748031497,
                    "duration": 0.125
                },
                {
                    "name": "D5",
                    "midi": 74,
                    "time": 101.62500000000009,
                    "velocity": 0.7874015748031497,
                    "duration": 0.125
                },
                {
                    "name": "A4",
                    "midi": 69,
                    "time": 101.75000000000009,
                    "velocity": 0.7874015748031497,
                    "duration": 0.125
                },
                {
                    "name": "C5",
                    "midi": 72,
                    "time": 101.75000000000009,
                    "velocity": 0.7874015748031497,
                    "duration": 0.125
                },
                {
                    "name": "G#4",
                    "midi": 68,
                    "time": 101.87500000000009,
                    "velocity": 0.7874015748031497,
                    "duration": 0.125
                },
                {
                    "name": "B4",
                    "midi": 71,
                    "time": 101.87500000000009,
                    "velocity": 0.7874015748031497,
                    "duration": 0.125
                },
                {
                    "name": "C5",
                    "midi": 72,
                    "time": 102.00000000000009,
                    "velocity": 0.7874015748031497,
                    "duration": 0.75
                },
                {
                    "name": "A4",
                    "midi": 69,
                    "time": 102.00000000000009,
                    "velocity": 0.7874015748031497,
                    "duration": 0.75
                },
                {
                    "name": "D5",
                    "midi": 74,
                    "time": 102.75000000000009,
                    "velocity": 0.7874015748031497,
                    "duration": 0.125
                },
                {
                    "name": "B4",
                    "midi": 71,
                    "time": 102.75000000000009,
                    "velocity": 0.7874015748031497,
                    "duration": 0.125
                },
                {
                    "name": "E5",
                    "midi": 76,
                    "time": 102.87500000000009,
                    "velocity": 0.7874015748031497,
                    "duration": 0.125
                },
                {
                    "name": "C5",
                    "midi": 72,
                    "time": 102.87500000000009,
                    "velocity": 0.7874015748031497,
                    "duration": 0.125
                },
                {
                    "name": "B4",
                    "midi": 71,
                    "time": 103.00000000000009,
                    "velocity": 0.7874015748031497,
                    "duration": 0.125
                },
                {
                    "name": "D5",
                    "midi": 74,
                    "time": 103.00000000000009,
                    "velocity": 0.7874015748031497,
                    "duration": 0.125
                },
                {
                    "name": "A4",
                    "midi": 69,
                    "time": 103.12500000000009,
                    "velocity": 0.7874015748031497,
                    "duration": 0.125
                },
                {
                    "name": "C5",
                    "midi": 72,
                    "time": 103.12500000000009,
                    "velocity": 0.7874015748031497,
                    "duration": 0.125
                },
                {
                    "name": "G#4",
                    "midi": 68,
                    "time": 103.25000000000009,
                    "velocity": 0.7874015748031497,
                    "duration": 0.125
                },
                {
                    "name": "B4",
                    "midi": 71,
                    "time": 103.25000000000009,
                    "velocity": 0.7874015748031497,
                    "duration": 0.125
                },
                {
                    "name": "A4",
                    "midi": 69,
                    "time": 103.37500000000009,
                    "velocity": 0.7874015748031497,
                    "duration": 0.125
                },
                {
                    "name": "F4",
                    "midi": 65,
                    "time": 103.37500000000009,
                    "velocity": 0.7874015748031497,
                    "duration": 0.125
                },
                {
                    "name": "G4",
                    "midi": 67,
                    "time": 103.50000000000009,
                    "velocity": 0.7874015748031497,
                    "duration": 0.5
                },
                {
                    "name": "E4",
                    "midi": 64,
                    "time": 103.50000000000009,
                    "velocity": 0.7874015748031497,
                    "duration": 0.5
                },
                {
                    "name": "C#5",
                    "midi": 73,
                    "time": 104.00000000000009,
                    "velocity": 0.7874015748031497,
                    "duration": 0.75
                },
                {
                    "name": "A3",
                    "midi": 57,
                    "time": 104.00000000000009,
                    "velocity": 0.7874015748031497,
                    "duration": 0.75
                },
                {
                    "name": "D5",
                    "midi": 74,
                    "time": 104.75000000000009,
                    "velocity": 0.7874015748031497,
                    "duration": 0.125
                },
                {
                    "name": "B3",
                    "midi": 59,
                    "time": 104.75000000000009,
                    "velocity": 0.7874015748031497,
                    "duration": 0.125
                },
                {
                    "name": "C#4",
                    "midi": 61,
                    "time": 104.87500000000009,
                    "velocity": 0.7874015748031497,
                    "duration": 0.125
                },
                {
                    "name": "E5",
                    "midi": 76,
                    "time": 104.87500000000009,
                    "velocity": 0.7874015748031497,
                    "duration": 0.125
                },
                {
                    "name": "F5",
                    "midi": 77,
                    "time": 105.00000000000009,
                    "velocity": 0.7874015748031497,
                    "duration": 0.125
                },
                {
                    "name": "D4",
                    "midi": 62,
                    "time": 105.00000000000009,
                    "velocity": 0.7874015748031497,
                    "duration": 0.125
                },
                {
                    "name": "G5",
                    "midi": 79,
                    "time": 105.12500000000009,
                    "velocity": 0.7874015748031497,
                    "duration": 0.125
                },
                {
                    "name": "E4",
                    "midi": 64,
                    "time": 105.12500000000009,
                    "velocity": 0.7874015748031497,
                    "duration": 0.125
                },
                {
                    "name": "A5",
                    "midi": 81,
                    "time": 105.25000000000009,
                    "velocity": 0.7874015748031497,
                    "duration": 0.125
                },
                {
                    "name": "F4",
                    "midi": 65,
                    "time": 105.25000000000009,
                    "velocity": 0.7874015748031497,
                    "duration": 0.125
                },
                {
                    "name": "B5",
                    "midi": 83,
                    "time": 105.37500000000009,
                    "velocity": 0.7874015748031497,
                    "duration": 0.125
                },
                {
                    "name": "G4",
                    "midi": 67,
                    "time": 105.37500000000009,
                    "velocity": 0.7874015748031497,
                    "duration": 0.125
                },
                {
                    "name": "C#6",
                    "midi": 85,
                    "time": 105.50000000000009,
                    "velocity": 0.7874015748031497,
                    "duration": 0.125
                },
                {
                    "name": "A4",
                    "midi": 69,
                    "time": 105.50000000000009,
                    "velocity": 0.7874015748031497,
                    "duration": 0.125
                },
                {
                    "name": "D6",
                    "midi": 86,
                    "time": 105.62500000000009,
                    "velocity": 0.7874015748031497,
                    "duration": 0.125
                },
                {
                    "name": "B4",
                    "midi": 71,
                    "time": 105.62500000000009,
                    "velocity": 0.7874015748031497,
                    "duration": 0.125
                },
                {
                    "name": "E6",
                    "midi": 88,
                    "time": 105.75000000000009,
                    "velocity": 0.7874015748031497,
                    "duration": 0.125
                },
                {
                    "name": "C#5",
                    "midi": 73,
                    "time": 105.75000000000009,
                    "velocity": 0.7874015748031497,
                    "duration": 0.125
                },
                {
                    "name": "F6",
                    "midi": 89,
                    "time": 105.87500000000009,
                    "velocity": 0.7874015748031497,
                    "duration": 0.125
                },
                {
                    "name": "D5",
                    "midi": 74,
                    "time": 105.87500000000009,
                    "velocity": 0.7874015748031497,
                    "duration": 0.125
                },
                {
                    "name": "B4",
                    "midi": 71,
                    "time": 106.00000000000009,
                    "velocity": 0.7874015748031497,
                    "duration": 0.75
                },
                {
                    "name": "G3",
                    "midi": 55,
                    "time": 106.00000000000009,
                    "velocity": 0.7874015748031497,
                    "duration": 0.75
                },
                {
                    "name": "C5",
                    "midi": 72,
                    "time": 106.75000000000009,
                    "velocity": 0.7874015748031497,
                    "duration": 0.125
                },
                {
                    "name": "A3",
                    "midi": 57,
                    "time": 106.75000000000009,
                    "velocity": 0.7874015748031497,
                    "duration": 0.125
                },
                {
                    "name": "B3",
                    "midi": 59,
                    "time": 106.87500000000009,
                    "velocity": 0.7874015748031497,
                    "duration": 0.125
                },
                {
                    "name": "D5",
                    "midi": 74,
                    "time": 106.87500000000009,
                    "velocity": 0.7874015748031497,
                    "duration": 0.125
                },
                {
                    "name": "E5",
                    "midi": 76,
                    "time": 107.00000000000009,
                    "velocity": 0.7874015748031497,
                    "duration": 0.125
                },
                {
                    "name": "C4",
                    "midi": 60,
                    "time": 107.00000000000009,
                    "velocity": 0.7874015748031497,
                    "duration": 0.125
                },
                {
                    "name": "F5",
                    "midi": 77,
                    "time": 107.12500000000009,
                    "velocity": 0.7874015748031497,
                    "duration": 0.125
                },
                {
                    "name": "D4",
                    "midi": 62,
                    "time": 107.12500000000009,
                    "velocity": 0.7874015748031497,
                    "duration": 0.125
                },
                {
                    "name": "G5",
                    "midi": 79,
                    "time": 107.25000000000009,
                    "velocity": 0.7874015748031497,
                    "duration": 0.125
                },
                {
                    "name": "E4",
                    "midi": 64,
                    "time": 107.25000000000009,
                    "velocity": 0.7874015748031497,
                    "duration": 0.125
                },
                {
                    "name": "A5",
                    "midi": 81,
                    "time": 107.37500000000009,
                    "velocity": 0.7874015748031497,
                    "duration": 0.125
                },
                {
                    "name": "F4",
                    "midi": 65,
                    "time": 107.37500000000009,
                    "velocity": 0.7874015748031497,
                    "duration": 0.125
                },
                {
                    "name": "B5",
                    "midi": 83,
                    "time": 107.50000000000009,
                    "velocity": 0.7874015748031497,
                    "duration": 0.125
                },
                {
                    "name": "G4",
                    "midi": 67,
                    "time": 107.50000000000009,
                    "velocity": 0.7874015748031497,
                    "duration": 0.125
                },
                {
                    "name": "C6",
                    "midi": 84,
                    "time": 107.62500000000009,
                    "velocity": 0.7874015748031497,
                    "duration": 0.125
                },
                {
                    "name": "A4",
                    "midi": 69,
                    "time": 107.62500000000009,
                    "velocity": 0.7874015748031497,
                    "duration": 0.125
                },
                {
                    "name": "D6",
                    "midi": 86,
                    "time": 107.75000000000009,
                    "velocity": 0.7874015748031497,
                    "duration": 0.125
                },
                {
                    "name": "B4",
                    "midi": 71,
                    "time": 107.75000000000009,
                    "velocity": 0.7874015748031497,
                    "duration": 0.125
                },
                {
                    "name": "E6",
                    "midi": 88,
                    "time": 107.87500000000009,
                    "velocity": 0.7874015748031497,
                    "duration": 0.125
                },
                {
                    "name": "C5",
                    "midi": 72,
                    "time": 107.87500000000009,
                    "velocity": 0.7874015748031497,
                    "duration": 0.125
                },
                {
                    "name": "D5",
                    "midi": 74,
                    "time": 108.00000000000009,
                    "velocity": 0.7874015748031497,
                    "duration": 0.75
                },
                {
                    "name": "F6",
                    "midi": 89,
                    "time": 108.00000000000009,
                    "velocity": 0.7874015748031497,
                    "duration": 0.75
                },
                {
                    "name": "E6",
                    "midi": 88,
                    "time": 108.75000000000009,
                    "velocity": 0.7874015748031497,
                    "duration": 0.125
                },
                {
                    "name": "C5",
                    "midi": 72,
                    "time": 108.75000000000009,
                    "velocity": 0.7874015748031497,
                    "duration": 0.125
                },
                {
                    "name": "D6",
                    "midi": 86,
                    "time": 108.87500000000009,
                    "velocity": 0.7874015748031497,
                    "duration": 0.125
                },
                {
                    "name": "B4",
                    "midi": 71,
                    "time": 108.87500000000009,
                    "velocity": 0.7874015748031497,
                    "duration": 0.125
                },
                {
                    "name": "C5",
                    "midi": 72,
                    "time": 109.00000000000009,
                    "velocity": 0.7874015748031497,
                    "duration": 0.75
                },
                {
                    "name": "E6",
                    "midi": 88,
                    "time": 109.00000000000009,
                    "velocity": 0.7874015748031497,
                    "duration": 0.75
                },
                {
                    "name": "D6",
                    "midi": 86,
                    "time": 109.75000000000009,
                    "velocity": 0.7874015748031497,
                    "duration": 0.125
                },
                {
                    "name": "B4",
                    "midi": 71,
                    "time": 109.75000000000009,
                    "velocity": 0.7874015748031497,
                    "duration": 0.125
                },
                {
                    "name": "C6",
                    "midi": 84,
                    "time": 109.87500000000009,
                    "velocity": 0.7874015748031497,
                    "duration": 0.125
                },
                {
                    "name": "A4",
                    "midi": 69,
                    "time": 109.87500000000009,
                    "velocity": 0.7874015748031497,
                    "duration": 0.125
                },
                {
                    "name": "F5",
                    "midi": 77,
                    "time": 110.00000000000009,
                    "velocity": 0.7874015748031497,
                    "duration": 0.25
                },
                {
                    "name": "D4",
                    "midi": 62,
                    "time": 110.00000000000009,
                    "velocity": 0.7874015748031497,
                    "duration": 0.25
                },
                {
                    "name": "E5",
                    "midi": 76,
                    "time": 110.25000000000009,
                    "velocity": 0.7874015748031497,
                    "duration": 0.125
                },
                {
                    "name": "E4",
                    "midi": 64,
                    "time": 110.25000000000009,
                    "velocity": 0.7874015748031497,
                    "duration": 0.125
                },
                {
                    "name": "F4",
                    "midi": 65,
                    "time": 110.37500000000009,
                    "velocity": 0.7874015748031497,
                    "duration": 0.125
                },
                {
                    "name": "D5",
                    "midi": 74,
                    "time": 110.37500000000009,
                    "velocity": 0.7874015748031497,
                    "duration": 0.125
                },
                {
                    "name": "C5",
                    "midi": 72,
                    "time": 110.50000000000009,
                    "velocity": 0.7874015748031497,
                    "duration": 0.125
                },
                {
                    "name": "E4",
                    "midi": 64,
                    "time": 110.50000000000009,
                    "velocity": 0.7874015748031497,
                    "duration": 0.125
                },
                {
                    "name": "A4",
                    "midi": 69,
                    "time": 110.62500000000009,
                    "velocity": 0.7874015748031497,
                    "duration": 0.125
                },
                {
                    "name": "C5",
                    "midi": 72,
                    "time": 110.62500000000009,
                    "velocity": 0.7874015748031497,
                    "duration": 0.125
                },
                {
                    "name": "E4",
                    "midi": 64,
                    "time": 110.75000000000009,
                    "velocity": 0.7874015748031497,
                    "duration": 0.125
                },
                {
                    "name": "B4",
                    "midi": 71,
                    "time": 110.75000000000009,
                    "velocity": 0.7874015748031497,
                    "duration": 0.125
                },
                {
                    "name": "G#4",
                    "midi": 68,
                    "time": 110.87500000000009,
                    "velocity": 0.7874015748031497,
                    "duration": 0.125
                },
                {
                    "name": "B4",
                    "midi": 71,
                    "time": 110.87500000000009,
                    "velocity": 0.7874015748031497,
                    "duration": 0.125
                },
                {
                    "name": "A4",
                    "midi": 69,
                    "time": 111.00000000000009,
                    "velocity": 0.7874015748031497,
                    "duration": 0.5
                },
                {
                    "name": "C5",
                    "midi": 72,
                    "time": 111.00000000000009,
                    "velocity": 0.7874015748031497,
                    "duration": 0.5
                },
                {
                    "name": "A3",
                    "midi": 57,
                    "time": 111.50000000000009,
                    "velocity": 0.7874015748031497,
                    "duration": 0.25
                },
                {
                    "name": "A4",
                    "midi": 69,
                    "time": 111.50000000000009,
                    "velocity": 0.7874015748031497,
                    "duration": 0.25
                },
                {
                    "name": "E6",
                    "midi": 88,
                    "time": 112.00000000000009,
                    "velocity": 0.7874015748031497,
                    "duration": 0.0833333333333286
                },
                {
                    "name": "F6",
                    "midi": 89,
                    "time": 112.08333333333341,
                    "velocity": 0.7874015748031497,
                    "duration": 0.0833333333333286
                },
                {
                    "name": "E6",
                    "midi": 88,
                    "time": 112.16666666666674,
                    "velocity": 0.7874015748031497,
                    "duration": 0.0833333333333286
                },
                {
                    "name": "C6",
                    "midi": 84,
                    "time": 112.25000000000007,
                    "velocity": 0.7874015748031497,
                    "duration": 0.4833333333333343
                },
                {
                    "name": "A5",
                    "midi": 81,
                    "time": 112.75000000000007,
                    "velocity": 0.7874015748031497,
                    "duration": 0.0833333333333286
                },
                {
                    "name": "B5",
                    "midi": 83,
                    "time": 112.8333333333334,
                    "velocity": 0.7874015748031497,
                    "duration": 0.0833333333333286
                },
                {
                    "name": "A5",
                    "midi": 81,
                    "time": 112.91666666666673,
                    "velocity": 0.7874015748031497,
                    "duration": 0.0833333333333286
                },
                {
                    "name": "B5",
                    "midi": 83,
                    "time": 113.00000000000006,
                    "velocity": 0.7874015748031497,
                    "duration": 0.0833333333333286
                },
                {
                    "name": "C6",
                    "midi": 84,
                    "time": 113.08333333333339,
                    "velocity": 0.7874015748031497,
                    "duration": 0.0833333333333286
                },
                {
                    "name": "B5",
                    "midi": 83,
                    "time": 113.16666666666671,
                    "velocity": 0.7874015748031497,
                    "duration": 0.04583333333333428
                },
                {
                    "name": "G#5",
                    "midi": 80,
                    "time": 113.25000000000004,
                    "velocity": 0.7874015748031497,
                    "duration": 0.0833333333333286
                },
                {
                    "name": "A5",
                    "midi": 81,
                    "time": 113.33333333333337,
                    "velocity": 0.7874015748031497,
                    "duration": 0.0833333333333286
                },
                {
                    "name": "G#5",
                    "midi": 80,
                    "time": 113.4166666666667,
                    "velocity": 0.7874015748031497,
                    "duration": 0.0833333333333286
                },
                {
                    "name": "E5",
                    "midi": 76,
                    "time": 113.50000000000003,
                    "velocity": 0.7874015748031497,
                    "duration": 0.0833333333333286
                },
                {
                    "name": "F5",
                    "midi": 77,
                    "time": 113.58333333333336,
                    "velocity": 0.7874015748031497,
                    "duration": 0.0833333333333286
                },
                {
                    "name": "E5",
                    "midi": 76,
                    "time": 113.66666666666669,
                    "velocity": 0.7874015748031497,
                    "duration": 0.0833333333333286
                },
                {
                    "name": "E4",
                    "midi": 64,
                    "time": 113.75000000000001,
                    "velocity": 0.7874015748031497,
                    "duration": 0.1875
                },
                {
                    "name": "E6",
                    "midi": 88,
                    "time": 114.00000000000001,
                    "velocity": 0.7874015748031497,
                    "duration": 0.04583333333333428
                },
                {
                    "name": "F6",
                    "midi": 89,
                    "time": 114.08333333333334,
                    "velocity": 0.7874015748031497,
                    "duration": 0.04583333333333428
                },
                {
                    "name": "E6",
                    "midi": 88,
                    "time": 114.16666666666667,
                    "velocity": 0.7874015748031497,
                    "duration": 0.04583333333333428
                },
                {
                    "name": "C6",
                    "midi": 84,
                    "time": 114.25,
                    "velocity": 0.7874015748031497,
                    "duration": 0.4833333333333343
                },
                {
                    "name": "A3",
                    "midi": 57,
                    "time": 114.75,
                    "velocity": 0.7874015748031497,
                    "duration": 0.0833333333333286
                },
                {
                    "name": "B3",
                    "midi": 59,
                    "time": 114.83333333333333,
                    "velocity": 0.7874015748031497,
                    "duration": 0.0833333333333286
                },
                {
                    "name": "A3",
                    "midi": 57,
                    "time": 114.91666666666666,
                    "velocity": 0.7874015748031497,
                    "duration": 0.0833333333333286
                },
                {
                    "name": "B3",
                    "midi": 59,
                    "time": 114.99999999999999,
                    "velocity": 0.7874015748031497,
                    "duration": 0.0833333333333286
                },
                {
                    "name": "C4",
                    "midi": 60,
                    "time": 115.08333333333331,
                    "velocity": 0.7874015748031497,
                    "duration": 0.0833333333333286
                },
                {
                    "name": "B3",
                    "midi": 59,
                    "time": 115.16666666666664,
                    "velocity": 0.7874015748031497,
                    "duration": 0.04583333333333428
                },
                {
                    "name": "E4",
                    "midi": 64,
                    "time": 115.24999999999997,
                    "velocity": 0.7874015748031497,
                    "duration": 0.0833333333333286
                },
                {
                    "name": "F4",
                    "midi": 65,
                    "time": 115.3333333333333,
                    "velocity": 0.7874015748031497,
                    "duration": 0.0833333333333286
                },
                {
                    "name": "E4",
                    "midi": 64,
                    "time": 115.41666666666663,
                    "velocity": 0.7874015748031497,
                    "duration": 0.0833333333333286
                },
                {
                    "name": "G#4",
                    "midi": 68,
                    "time": 115.49999999999996,
                    "velocity": 0.7874015748031497,
                    "duration": 0.0833333333333286
                },
                {
                    "name": "A4",
                    "midi": 69,
                    "time": 115.58333333333329,
                    "velocity": 0.7874015748031497,
                    "duration": 0.0833333333333286
                },
                {
                    "name": "G#4",
                    "midi": 68,
                    "time": 115.66666666666661,
                    "velocity": 0.7874015748031497,
                    "duration": 0.0833333333333286
                },
                {
                    "name": "E4",
                    "midi": 64,
                    "time": 115.74999999999994,
                    "velocity": 0.7874015748031497,
                    "duration": 0.1875
                },
                {
                    "name": "E6",
                    "midi": 88,
                    "time": 115.99999999999994,
                    "velocity": 0.7874015748031497,
                    "duration": 0.0833333333333286
                },
                {
                    "name": "F6",
                    "midi": 89,
                    "time": 116.08333333333327,
                    "velocity": 0.7874015748031497,
                    "duration": 0.0833333333333286
                },
                {
                    "name": "E6",
                    "midi": 88,
                    "time": 116.1666666666666,
                    "velocity": 0.7874015748031497,
                    "duration": 0.0833333333333286
                },
                {
                    "name": "C6",
                    "midi": 84,
                    "time": 116.24999999999993,
                    "velocity": 0.7874015748031497,
                    "duration": 0.4833333333333343
                },
                {
                    "name": "A5",
                    "midi": 81,
                    "time": 116.74999999999993,
                    "velocity": 0.7874015748031497,
                    "duration": 0.0833333333333286
                },
                {
                    "name": "B5",
                    "midi": 83,
                    "time": 116.83333333333326,
                    "velocity": 0.7874015748031497,
                    "duration": 0.0833333333333286
                },
                {
                    "name": "A5",
                    "midi": 81,
                    "time": 116.91666666666659,
                    "velocity": 0.7874015748031497,
                    "duration": 0.0833333333333286
                },
                {
                    "name": "B5",
                    "midi": 83,
                    "time": 116.99999999999991,
                    "velocity": 0.7874015748031497,
                    "duration": 0.0833333333333286
                },
                {
                    "name": "C6",
                    "midi": 84,
                    "time": 117.08333333333324,
                    "velocity": 0.7874015748031497,
                    "duration": 0.0833333333333286
                },
                {
                    "name": "B5",
                    "midi": 83,
                    "time": 117.16666666666657,
                    "velocity": 0.7874015748031497,
                    "duration": 0.04583333333333428
                },
                {
                    "name": "G#5",
                    "midi": 80,
                    "time": 117.2499999999999,
                    "velocity": 0.7874015748031497,
                    "duration": 0.0833333333333286
                },
                {
                    "name": "A5",
                    "midi": 81,
                    "time": 117.33333333333323,
                    "velocity": 0.7874015748031497,
                    "duration": 0.0833333333333286
                },
                {
                    "name": "G#5",
                    "midi": 80,
                    "time": 117.41666666666656,
                    "velocity": 0.7874015748031497,
                    "duration": 0.0833333333333286
                },
                {
                    "name": "E5",
                    "midi": 76,
                    "time": 117.49999999999989,
                    "velocity": 0.7874015748031497,
                    "duration": 0.0833333333333286
                },
                {
                    "name": "F5",
                    "midi": 77,
                    "time": 117.58333333333321,
                    "velocity": 0.7874015748031497,
                    "duration": 0.0833333333333286
                },
                {
                    "name": "E5",
                    "midi": 76,
                    "time": 117.66666666666654,
                    "velocity": 0.7874015748031497,
                    "duration": 0.0833333333333286
                },
                {
                    "name": "E4",
                    "midi": 64,
                    "time": 117.74999999999987,
                    "velocity": 0.7874015748031497,
                    "duration": 0.1875
                },
                {
                    "name": "E6",
                    "midi": 88,
                    "time": 117.99999999999987,
                    "velocity": 0.7874015748031497,
                    "duration": 0.04583333333333428
                },
                {
                    "name": "F6",
                    "midi": 89,
                    "time": 118.0833333333332,
                    "velocity": 0.7874015748031497,
                    "duration": 0.04583333333333428
                },
                {
                    "name": "E6",
                    "midi": 88,
                    "time": 118.16666666666653,
                    "velocity": 0.7874015748031497,
                    "duration": 0.04583333333333428
                },
                {
                    "name": "C6",
                    "midi": 84,
                    "time": 118.24999999999986,
                    "velocity": 0.7874015748031497,
                    "duration": 0.4833333333333343
                },
                {
                    "name": "A3",
                    "midi": 57,
                    "time": 118.74999999999986,
                    "velocity": 0.7874015748031497,
                    "duration": 0.0833333333333286
                },
                {
                    "name": "B3",
                    "midi": 59,
                    "time": 118.83333333333319,
                    "velocity": 0.7874015748031497,
                    "duration": 0.0833333333333286
                },
                {
                    "name": "A3",
                    "midi": 57,
                    "time": 118.91666666666652,
                    "velocity": 0.7874015748031497,
                    "duration": 0.0833333333333286
                },
                {
                    "name": "B3",
                    "midi": 59,
                    "time": 118.99999999999984,
                    "velocity": 0.7874015748031497,
                    "duration": 0.0833333333333286
                },
                {
                    "name": "C4",
                    "midi": 60,
                    "time": 119.08333333333317,
                    "velocity": 0.7874015748031497,
                    "duration": 0.0833333333333286
                },
                {
                    "name": "B3",
                    "midi": 59,
                    "time": 119.1666666666665,
                    "velocity": 0.7874015748031497,
                    "duration": 0.04583333333333428
                },
                {
                    "name": "E4",
                    "midi": 64,
                    "time": 119.24999999999983,
                    "velocity": 0.7874015748031497,
                    "duration": 0.0833333333333286
                },
                {
                    "name": "F4",
                    "midi": 65,
                    "time": 119.33333333333316,
                    "velocity": 0.7874015748031497,
                    "duration": 0.0833333333333286
                },
                {
                    "name": "E4",
                    "midi": 64,
                    "time": 119.41666666666649,
                    "velocity": 0.7874015748031497,
                    "duration": 0.0833333333333286
                },
                {
                    "name": "G#4",
                    "midi": 68,
                    "time": 119.49999999999982,
                    "velocity": 0.7874015748031497,
                    "duration": 0.0833333333333286
                },
                {
                    "name": "A4",
                    "midi": 69,
                    "time": 119.58333333333314,
                    "velocity": 0.7874015748031497,
                    "duration": 0.0833333333333286
                },
                {
                    "name": "G#4",
                    "midi": 68,
                    "time": 119.66666666666647,
                    "velocity": 0.7874015748031497,
                    "duration": 0.0833333333333286
                },
                {
                    "name": "E4",
                    "midi": 64,
                    "time": 119.7499999999998,
                    "velocity": 0.7874015748031497,
                    "duration": 0.1875
                },
                {
                    "name": "E6",
                    "midi": 88,
                    "time": 119.9999999999998,
                    "velocity": 0.7874015748031497,
                    "duration": 0.0833333333333286
                },
                {
                    "name": "F6",
                    "midi": 89,
                    "time": 120.08333333333313,
                    "velocity": 0.7874015748031497,
                    "duration": 0.0833333333333286
                },
                {
                    "name": "E6",
                    "midi": 88,
                    "time": 120.16666666666646,
                    "velocity": 0.7874015748031497,
                    "duration": 0.0833333333333286
                },
                {
                    "name": "C#6",
                    "midi": 85,
                    "time": 120.24999999999979,
                    "velocity": 0.7874015748031497,
                    "duration": 0.4833333333333343
                },
                {
                    "name": "A5",
                    "midi": 81,
                    "time": 120.74999999999979,
                    "velocity": 0.7874015748031497,
                    "duration": 0.0833333333333286
                },
                {
                    "name": "A#5",
                    "midi": 82,
                    "time": 120.83333333333312,
                    "velocity": 0.7874015748031497,
                    "duration": 0.0833333333333286
                },
                {
                    "name": "A5",
                    "midi": 81,
                    "time": 120.91666666666644,
                    "velocity": 0.7874015748031497,
                    "duration": 0.0833333333333286
                },
                {
                    "name": "D6",
                    "midi": 86,
                    "time": 120.99999999999977,
                    "velocity": 0.7874015748031497,
                    "duration": 0.0833333333333286
                },
                {
                    "name": "E6",
                    "midi": 88,
                    "time": 121.0833333333331,
                    "velocity": 0.7874015748031497,
                    "duration": 0.0833333333333286
                },
                {
                    "name": "D6",
                    "midi": 86,
                    "time": 121.16666666666643,
                    "velocity": 0.7874015748031497,
                    "duration": 0.04583333333333428
                },
                {
                    "name": "A4",
                    "midi": 69,
                    "time": 121.24999999999976,
                    "velocity": 0.7874015748031497,
                    "duration": 0.0833333333333286
                },
                {
                    "name": "A#4",
                    "midi": 70,
                    "time": 121.33333333333309,
                    "velocity": 0.7874015748031497,
                    "duration": 0.0833333333333286
                },
                {
                    "name": "A4",
                    "midi": 69,
                    "time": 121.41666666666642,
                    "velocity": 0.7874015748031497,
                    "duration": 0.0833333333333286
                },
                {
                    "name": "F4",
                    "midi": 65,
                    "time": 121.49999999999974,
                    "velocity": 0.7874015748031497,
                    "duration": 0.0833333333333286
                },
                {
                    "name": "G4",
                    "midi": 67,
                    "time": 121.58333333333307,
                    "velocity": 0.7874015748031497,
                    "duration": 0.0833333333333286
                },
                {
                    "name": "F4",
                    "midi": 65,
                    "time": 121.6666666666664,
                    "velocity": 0.7874015748031497,
                    "duration": 0.04583333333333428
                },
                {
                    "name": "D4",
                    "midi": 62,
                    "time": 121.74999999999973,
                    "velocity": 0.7874015748031497,
                    "duration": 0.0833333333333286
                },
                {
                    "name": "E4",
                    "midi": 64,
                    "time": 121.83333333333306,
                    "velocity": 0.7874015748031497,
                    "duration": 0.0833333333333286
                },
                {
                    "name": "D4",
                    "midi": 62,
                    "time": 121.91666666666639,
                    "velocity": 0.7874015748031497,
                    "duration": 0.0833333333333286
                },
                {
                    "name": "D6",
                    "midi": 86,
                    "time": 121.99999999999972,
                    "velocity": 0.7874015748031497,
                    "duration": 0.04583333333333428
                },
                {
                    "name": "E6",
                    "midi": 88,
                    "time": 122.08333333333304,
                    "velocity": 0.7874015748031497,
                    "duration": 0.04583333333333428
                },
                {
                    "name": "D6",
                    "midi": 86,
                    "time": 122.16666666666637,
                    "velocity": 0.7874015748031497,
                    "duration": 0.04583333333333428
                },
                {
                    "name": "B5",
                    "midi": 83,
                    "time": 122.2499999999997,
                    "velocity": 0.7874015748031497,
                    "duration": 0.4833333333333343
                },
                {
                    "name": "G5",
                    "midi": 79,
                    "time": 122.7499999999997,
                    "velocity": 0.7874015748031497,
                    "duration": 0.0833333333333286
                },
                {
                    "name": "A5",
                    "midi": 81,
                    "time": 122.83333333333303,
                    "velocity": 0.7874015748031497,
                    "duration": 0.0833333333333286
                },
                {
                    "name": "G5",
                    "midi": 79,
                    "time": 122.91666666666636,
                    "velocity": 0.7874015748031497,
                    "duration": 0.041666666666671404
                },
                {
                    "name": "C6",
                    "midi": 84,
                    "time": 122.9999999999997,
                    "velocity": 0.7874015748031497,
                    "duration": 0.0833333333333286
                },
                {
                    "name": "D6",
                    "midi": 86,
                    "time": 123.08333333333303,
                    "velocity": 0.7874015748031497,
                    "duration": 0.0833333333333286
                },
                {
                    "name": "C6",
                    "midi": 84,
                    "time": 123.16666666666636,
                    "velocity": 0.7874015748031497,
                    "duration": 0.04583333333333428
                },
                {
                    "name": "G4",
                    "midi": 67,
                    "time": 123.24999999999969,
                    "velocity": 0.7874015748031497,
                    "duration": 0.04583333333333428
                },
                {
                    "name": "A4",
                    "midi": 69,
                    "time": 123.33333333333302,
                    "velocity": 0.7874015748031497,
                    "duration": 0.04583333333333428
                },
                {
                    "name": "G4",
                    "midi": 67,
                    "time": 123.41666666666634,
                    "velocity": 0.7874015748031497,
                    "duration": 0.04583333333333428
                },
                {
                    "name": "E4",
                    "midi": 64,
                    "time": 123.49999999999967,
                    "velocity": 0.7874015748031497,
                    "duration": 0.04583333333333428
                },
                {
                    "name": "F4",
                    "midi": 65,
                    "time": 123.583333333333,
                    "velocity": 0.7874015748031497,
                    "duration": 0.04583333333333428
                },
                {
                    "name": "E4",
                    "midi": 64,
                    "time": 123.66666666666633,
                    "velocity": 0.7874015748031497,
                    "duration": 0.04583333333333428
                },
                {
                    "name": "C4",
                    "midi": 60,
                    "time": 123.74999999999966,
                    "velocity": 0.7874015748031497,
                    "duration": 0.04583333333333428
                },
                {
                    "name": "D4",
                    "midi": 62,
                    "time": 123.83333333333299,
                    "velocity": 0.7874015748031497,
                    "duration": 0.04583333333333428
                },
                {
                    "name": "C4",
                    "midi": 60,
                    "time": 123.91666666666632,
                    "velocity": 0.7874015748031497,
                    "duration": 0.04583333333333428
                },
                {
                    "name": "D6",
                    "midi": 86,
                    "time": 123.99999999999964,
                    "velocity": 0.7874015748031497,
                    "duration": 0.04583333333333428
                },
                {
                    "name": "E6",
                    "midi": 88,
                    "time": 124.08333333333297,
                    "velocity": 0.7874015748031497,
                    "duration": 0.04583333333333428
                },
                {
                    "name": "D6",
                    "midi": 86,
                    "time": 124.1666666666663,
                    "velocity": 0.7874015748031497,
                    "duration": 0.04583333333333428
                },
                {
                    "name": "F6",
                    "midi": 89,
                    "time": 124.24999999999963,
                    "velocity": 0.7874015748031497,
                    "duration": 0.4833333333333343
                },
                {
                    "name": "D4",
                    "midi": 62,
                    "time": 124.74999999999963,
                    "velocity": 0.7874015748031497,
                    "duration": 0.0833333333333286
                },
                {
                    "name": "E4",
                    "midi": 64,
                    "time": 124.83333333333296,
                    "velocity": 0.7874015748031497,
                    "duration": 0.0833333333333286
                },
                {
                    "name": "D4",
                    "midi": 62,
                    "time": 124.91666666666629,
                    "velocity": 0.7874015748031497,
                    "duration": 0.0833333333333286
                },
                {
                    "name": "C6",
                    "midi": 84,
                    "time": 124.99999999999962,
                    "velocity": 0.7874015748031497,
                    "duration": 0.0833333333333286
                },
                {
                    "name": "D6",
                    "midi": 86,
                    "time": 125.08333333333294,
                    "velocity": 0.7874015748031497,
                    "duration": 0.0833333333333286
                },
                {
                    "name": "C6",
                    "midi": 84,
                    "time": 125.16666666666627,
                    "velocity": 0.7874015748031497,
                    "duration": 0.0833333333333286
                },
                {
                    "name": "E6",
                    "midi": 88,
                    "time": 125.2499999999996,
                    "velocity": 0.7874015748031497,
                    "duration": 0.4833333333333343
                },
                {
                    "name": "C4",
                    "midi": 60,
                    "time": 125.7499999999996,
                    "velocity": 0.7874015748031497,
                    "duration": 0.0833333333333286
                },
                {
                    "name": "D4",
                    "midi": 62,
                    "time": 125.83333333333293,
                    "velocity": 0.7874015748031497,
                    "duration": 0.0833333333333286
                },
                {
                    "name": "C4",
                    "midi": 60,
                    "time": 125.91666666666626,
                    "velocity": 0.7874015748031497,
                    "duration": 0.0833333333333286
                },
                {
                    "name": "D6",
                    "midi": 86,
                    "time": 125.99999999999959,
                    "velocity": 0.7874015748031497,
                    "duration": 0.0833333333333286
                },
                {
                    "name": "E6",
                    "midi": 88,
                    "time": 126.08333333333292,
                    "velocity": 0.7874015748031497,
                    "duration": 0.0833333333333286
                },
                {
                    "name": "D6",
                    "midi": 86,
                    "time": 126.16666666666625,
                    "velocity": 0.7874015748031497,
                    "duration": 0.04583333333333428
                },
                {
                    "name": "B3",
                    "midi": 59,
                    "time": 126.24999999999957,
                    "velocity": 0.7874015748031497,
                    "duration": 0.04583333333333428
                },
                {
                    "name": "C4",
                    "midi": 60,
                    "time": 126.3333333333329,
                    "velocity": 0.7874015748031497,
                    "duration": 0.04583333333333428
                },
                {
                    "name": "B3",
                    "midi": 59,
                    "time": 126.41666666666623,
                    "velocity": 0.7874015748031497,
                    "duration": 0.04583333333333428
                },
                {
                    "name": "B5",
                    "midi": 83,
                    "time": 126.49999999999956,
                    "velocity": 0.7874015748031497,
                    "duration": 0.04583333333333428
                },
                {
                    "name": "C6",
                    "midi": 84,
                    "time": 126.58333333333289,
                    "velocity": 0.7874015748031497,
                    "duration": 0.04583333333333428
                },
                {
                    "name": "B5",
                    "midi": 83,
                    "time": 126.66666666666622,
                    "velocity": 0.7874015748031497,
                    "duration": 0.04583333333333428
                },
                {
                    "name": "G#3",
                    "midi": 56,
                    "time": 126.74999999999955,
                    "velocity": 0.7874015748031497,
                    "duration": 0.04583333333333428
                },
                {
                    "name": "A3",
                    "midi": 57,
                    "time": 126.83333333333287,
                    "velocity": 0.7874015748031497,
                    "duration": 0.04583333333333428
                },
                {
                    "name": "G#3",
                    "midi": 56,
                    "time": 126.9166666666662,
                    "velocity": 0.7874015748031497,
                    "duration": 0.04583333333333428
                },
                {
                    "name": "A3",
                    "midi": 57,
                    "time": 126.99999999999953,
                    "velocity": 0.7874015748031497,
                    "duration": 0.04583333333333428
                },
                {
                    "name": "B3",
                    "midi": 59,
                    "time": 127.08333333333286,
                    "velocity": 0.7874015748031497,
                    "duration": 0.04583333333333428
                },
                {
                    "name": "A3",
                    "midi": 57,
                    "time": 127.16666666666619,
                    "velocity": 0.7874015748031497,
                    "duration": 0.04583333333333428
                },
                {
                    "name": "A5",
                    "midi": 81,
                    "time": 127.24999999999952,
                    "velocity": 0.7874015748031497,
                    "duration": 0.04583333333333428
                },
                {
                    "name": "B5",
                    "midi": 83,
                    "time": 127.33333333333285,
                    "velocity": 0.7874015748031497,
                    "duration": 0.04583333333333428
                },
                {
                    "name": "A5",
                    "midi": 81,
                    "time": 127.41666666666617,
                    "velocity": 0.7874015748031497,
                    "duration": 0.04583333333333428
                },
                {
                    "name": "A3",
                    "midi": 57,
                    "time": 127.4999999999995,
                    "velocity": 0.7874015748031497,
                    "duration": 0.5
                },
                {
                    "name": "E5",
                    "midi": 76,
                    "time": 127.9999999999995,
                    "velocity": 0.7874015748031497,
                    "duration": 0.2499999999999858
                },
                {
                    "name": "C5",
                    "midi": 72,
                    "time": 127.9999999999995,
                    "velocity": 0.7874015748031497,
                    "duration": 0.2499999999999858
                },
                {
                    "name": "A4",
                    "midi": 69,
                    "time": 127.9999999999995,
                    "velocity": 0.7874015748031497,
                    "duration": 0.2499999999999858
                },
                {
                    "name": "C5",
                    "midi": 72,
                    "time": 128.2499999999995,
                    "velocity": 0.7874015748031497,
                    "duration": 0.25
                },
                {
                    "name": "D5",
                    "midi": 74,
                    "time": 128.2499999999995,
                    "velocity": 0.7874015748031497,
                    "duration": 0.25
                },
                {
                    "name": "E5",
                    "midi": 76,
                    "time": 128.2499999999995,
                    "velocity": 0.7874015748031497,
                    "duration": 0.25
                },
                {
                    "name": "B4",
                    "midi": 71,
                    "time": 128.4999999999995,
                    "velocity": 0.7874015748031497,
                    "duration": 0.25
                },
                {
                    "name": "D5",
                    "midi": 74,
                    "time": 128.4999999999995,
                    "velocity": 0.7874015748031497,
                    "duration": 0.25
                },
                {
                    "name": "E5",
                    "midi": 76,
                    "time": 128.4999999999995,
                    "velocity": 0.7874015748031497,
                    "duration": 0.25
                },
                {
                    "name": "E5",
                    "midi": 76,
                    "time": 128.7499999999995,
                    "velocity": 0.7874015748031497,
                    "duration": 0.25
                },
                {
                    "name": "C5",
                    "midi": 72,
                    "time": 128.7499999999995,
                    "velocity": 0.7874015748031497,
                    "duration": 0.25
                },
                {
                    "name": "A4",
                    "midi": 69,
                    "time": 128.7499999999995,
                    "velocity": 0.7874015748031497,
                    "duration": 0.25
                },
                {
                    "name": "G#4",
                    "midi": 68,
                    "time": 128.9999999999995,
                    "velocity": 0.7874015748031497,
                    "duration": 0.25
                },
                {
                    "name": "E5",
                    "midi": 76,
                    "time": 128.9999999999995,
                    "velocity": 0.7874015748031497,
                    "duration": 0.25
                },
                {
                    "name": "B4",
                    "midi": 71,
                    "time": 128.9999999999995,
                    "velocity": 0.7874015748031497,
                    "duration": 0.25
                },
                {
                    "name": "B5",
                    "midi": 83,
                    "time": 129.2499999999995,
                    "velocity": 0.7874015748031497,
                    "duration": 0.25
                },
                {
                    "name": "B4",
                    "midi": 71,
                    "time": 129.2499999999995,
                    "velocity": 0.7874015748031497,
                    "duration": 0.25
                },
                {
                    "name": "E4",
                    "midi": 64,
                    "time": 129.2499999999995,
                    "velocity": 0.7874015748031497,
                    "duration": 0.25
                },
                {
                    "name": "F#4",
                    "midi": 66,
                    "time": 129.4999999999995,
                    "velocity": 0.7874015748031497,
                    "duration": 0.25
                },
                {
                    "name": "B5",
                    "midi": 83,
                    "time": 129.4999999999995,
                    "velocity": 0.7874015748031497,
                    "duration": 0.25
                },
                {
                    "name": "A4",
                    "midi": 69,
                    "time": 129.4999999999995,
                    "velocity": 0.7874015748031497,
                    "duration": 0.25
                },
                {
                    "name": "E5",
                    "midi": 76,
                    "time": 129.7499999999995,
                    "velocity": 0.7874015748031497,
                    "duration": 0.25
                },
                {
                    "name": "B4",
                    "midi": 71,
                    "time": 129.7499999999995,
                    "velocity": 0.7874015748031497,
                    "duration": 0.25
                },
                {
                    "name": "G4",
                    "midi": 67,
                    "time": 129.7499999999995,
                    "velocity": 0.7874015748031497,
                    "duration": 0.25
                },
                {
                    "name": "E5",
                    "midi": 76,
                    "time": 129.9999999999995,
                    "velocity": 0.7874015748031497,
                    "duration": 0.25
                },
                {
                    "name": "C5",
                    "midi": 72,
                    "time": 129.9999999999995,
                    "velocity": 0.7874015748031497,
                    "duration": 0.25
                },
                {
                    "name": "A4",
                    "midi": 69,
                    "time": 129.9999999999995,
                    "velocity": 0.7874015748031497,
                    "duration": 0.25
                },
                {
                    "name": "C5",
                    "midi": 72,
                    "time": 130.2499999999995,
                    "velocity": 0.7874015748031497,
                    "duration": 0.25
                },
                {
                    "name": "D5",
                    "midi": 74,
                    "time": 130.2499999999995,
                    "velocity": 0.7874015748031497,
                    "duration": 0.25
                },
                {
                    "name": "E5",
                    "midi": 76,
                    "time": 130.2499999999995,
                    "velocity": 0.7874015748031497,
                    "duration": 0.25
                },
                {
                    "name": "B4",
                    "midi": 71,
                    "time": 130.4999999999995,
                    "velocity": 0.7874015748031497,
                    "duration": 0.25
                },
                {
                    "name": "D5",
                    "midi": 74,
                    "time": 130.4999999999995,
                    "velocity": 0.7874015748031497,
                    "duration": 0.25
                },
                {
                    "name": "E5",
                    "midi": 76,
                    "time": 130.4999999999995,
                    "velocity": 0.7874015748031497,
                    "duration": 0.25
                },
                {
                    "name": "A4",
                    "midi": 69,
                    "time": 130.7499999999995,
                    "velocity": 0.7874015748031497,
                    "duration": 0.25
                },
                {
                    "name": "C5",
                    "midi": 72,
                    "time": 130.7499999999995,
                    "velocity": 0.7874015748031497,
                    "duration": 0.25
                },
                {
                    "name": "E5",
                    "midi": 76,
                    "time": 130.7499999999995,
                    "velocity": 0.7874015748031497,
                    "duration": 0.25
                },
                {
                    "name": "G#4",
                    "midi": 68,
                    "time": 130.9999999999995,
                    "velocity": 0.7874015748031497,
                    "duration": 0.25
                },
                {
                    "name": "E5",
                    "midi": 76,
                    "time": 130.9999999999995,
                    "velocity": 0.7874015748031497,
                    "duration": 0.25
                },
                {
                    "name": "B4",
                    "midi": 71,
                    "time": 130.9999999999995,
                    "velocity": 0.7874015748031497,
                    "duration": 0.25
                },
                {
                    "name": "D#5",
                    "midi": 75,
                    "time": 131.2499999999995,
                    "velocity": 0.7874015748031497,
                    "duration": 0.25
                },
                {
                    "name": "A5",
                    "midi": 81,
                    "time": 131.2499999999995,
                    "velocity": 0.7874015748031497,
                    "duration": 0.25
                },
                {
                    "name": "F4",
                    "midi": 65,
                    "time": 131.2499999999995,
                    "velocity": 0.7874015748031497,
                    "duration": 0.25
                },
                {
                    "name": "G#5",
                    "midi": 80,
                    "time": 131.4999999999995,
                    "velocity": 0.7874015748031497,
                    "duration": 0.25
                },
                {
                    "name": "E4",
                    "midi": 64,
                    "time": 131.4999999999995,
                    "velocity": 0.7874015748031497,
                    "duration": 0.25
                },
                {
                    "name": "E5",
                    "midi": 76,
                    "time": 131.4999999999995,
                    "velocity": 0.7874015748031497,
                    "duration": 0.25
                },
                {
                    "name": "E4",
                    "midi": 64,
                    "time": 131.7499999999995,
                    "velocity": 0.7874015748031497,
                    "duration": 0.25
                },
                {
                    "name": "B4",
                    "midi": 71,
                    "time": 131.7499999999995,
                    "velocity": 0.7874015748031497,
                    "duration": 0.25
                },
                {
                    "name": "E5",
                    "midi": 76,
                    "time": 131.7499999999995,
                    "velocity": 0.7874015748031497,
                    "duration": 0.25
                },
                {
                    "name": "E5",
                    "midi": 76,
                    "time": 131.9999999999995,
                    "velocity": 0.7874015748031497,
                    "duration": 0.25
                },
                {
                    "name": "C5",
                    "midi": 72,
                    "time": 131.9999999999995,
                    "velocity": 0.7874015748031497,
                    "duration": 0.25
                },
                {
                    "name": "A4",
                    "midi": 69,
                    "time": 131.9999999999995,
                    "velocity": 0.7874015748031497,
                    "duration": 0.25
                },
                {
                    "name": "C5",
                    "midi": 72,
                    "time": 132.2499999999995,
                    "velocity": 0.7874015748031497,
                    "duration": 0.25
                },
                {
                    "name": "D5",
                    "midi": 74,
                    "time": 132.2499999999995,
                    "velocity": 0.7874015748031497,
                    "duration": 0.25
                },
                {
                    "name": "E5",
                    "midi": 76,
                    "time": 132.2499999999995,
                    "velocity": 0.7874015748031497,
                    "duration": 0.25
                },
                {
                    "name": "B4",
                    "midi": 71,
                    "time": 132.4999999999995,
                    "velocity": 0.7874015748031497,
                    "duration": 0.25
                },
                {
                    "name": "D5",
                    "midi": 74,
                    "time": 132.4999999999995,
                    "velocity": 0.7874015748031497,
                    "duration": 0.25
                },
                {
                    "name": "E5",
                    "midi": 76,
                    "time": 132.4999999999995,
                    "velocity": 0.7874015748031497,
                    "duration": 0.25
                },
                {
                    "name": "E5",
                    "midi": 76,
                    "time": 132.7499999999995,
                    "velocity": 0.7874015748031497,
                    "duration": 0.25
                },
                {
                    "name": "C5",
                    "midi": 72,
                    "time": 132.7499999999995,
                    "velocity": 0.7874015748031497,
                    "duration": 0.25
                },
                {
                    "name": "A4",
                    "midi": 69,
                    "time": 132.7499999999995,
                    "velocity": 0.7874015748031497,
                    "duration": 0.25
                },
                {
                    "name": "G#4",
                    "midi": 68,
                    "time": 132.9999999999995,
                    "velocity": 0.7874015748031497,
                    "duration": 0.25
                },
                {
                    "name": "E5",
                    "midi": 76,
                    "time": 132.9999999999995,
                    "velocity": 0.7874015748031497,
                    "duration": 0.25
                },
                {
                    "name": "B4",
                    "midi": 71,
                    "time": 132.9999999999995,
                    "velocity": 0.7874015748031497,
                    "duration": 0.25
                },
                {
                    "name": "B5",
                    "midi": 83,
                    "time": 133.2499999999995,
                    "velocity": 0.7874015748031497,
                    "duration": 0.25
                },
                {
                    "name": "B4",
                    "midi": 71,
                    "time": 133.2499999999995,
                    "velocity": 0.7874015748031497,
                    "duration": 0.25
                },
                {
                    "name": "E4",
                    "midi": 64,
                    "time": 133.2499999999995,
                    "velocity": 0.7874015748031497,
                    "duration": 0.25
                },
                {
                    "name": "F#4",
                    "midi": 66,
                    "time": 133.4999999999995,
                    "velocity": 0.7874015748031497,
                    "duration": 0.25
                },
                {
                    "name": "B5",
                    "midi": 83,
                    "time": 133.4999999999995,
                    "velocity": 0.7874015748031497,
                    "duration": 0.25
                },
                {
                    "name": "A4",
                    "midi": 69,
                    "time": 133.4999999999995,
                    "velocity": 0.7874015748031497,
                    "duration": 0.25
                },
                {
                    "name": "E5",
                    "midi": 76,
                    "time": 133.7499999999995,
                    "velocity": 0.7874015748031497,
                    "duration": 0.25
                },
                {
                    "name": "B4",
                    "midi": 71,
                    "time": 133.7499999999995,
                    "velocity": 0.7874015748031497,
                    "duration": 0.25
                },
                {
                    "name": "G4",
                    "midi": 67,
                    "time": 133.7499999999995,
                    "velocity": 0.7874015748031497,
                    "duration": 0.25
                },
                {
                    "name": "E5",
                    "midi": 76,
                    "time": 133.9999999999995,
                    "velocity": 0.7874015748031497,
                    "duration": 0.25
                },
                {
                    "name": "C5",
                    "midi": 72,
                    "time": 133.9999999999995,
                    "velocity": 0.7874015748031497,
                    "duration": 0.25
                },
                {
                    "name": "A4",
                    "midi": 69,
                    "time": 133.9999999999995,
                    "velocity": 0.7874015748031497,
                    "duration": 0.25
                },
                {
                    "name": "C5",
                    "midi": 72,
                    "time": 134.2499999999995,
                    "velocity": 0.7874015748031497,
                    "duration": 0.25
                },
                {
                    "name": "D5",
                    "midi": 74,
                    "time": 134.2499999999995,
                    "velocity": 0.7874015748031497,
                    "duration": 0.25
                },
                {
                    "name": "E5",
                    "midi": 76,
                    "time": 134.2499999999995,
                    "velocity": 0.7874015748031497,
                    "duration": 0.25
                },
                {
                    "name": "B4",
                    "midi": 71,
                    "time": 134.4999999999995,
                    "velocity": 0.7874015748031497,
                    "duration": 0.25
                },
                {
                    "name": "D5",
                    "midi": 74,
                    "time": 134.4999999999995,
                    "velocity": 0.7874015748031497,
                    "duration": 0.25
                },
                {
                    "name": "E5",
                    "midi": 76,
                    "time": 134.4999999999995,
                    "velocity": 0.7874015748031497,
                    "duration": 0.25
                },
                {
                    "name": "A4",
                    "midi": 69,
                    "time": 134.7499999999995,
                    "velocity": 0.7874015748031497,
                    "duration": 0.25
                },
                {
                    "name": "C5",
                    "midi": 72,
                    "time": 134.7499999999995,
                    "velocity": 0.7874015748031497,
                    "duration": 0.25
                },
                {
                    "name": "E5",
                    "midi": 76,
                    "time": 134.7499999999995,
                    "velocity": 0.7874015748031497,
                    "duration": 0.25
                },
                {
                    "name": "G#4",
                    "midi": 68,
                    "time": 134.9999999999995,
                    "velocity": 0.7874015748031497,
                    "duration": 0.25
                },
                {
                    "name": "E5",
                    "midi": 76,
                    "time": 134.9999999999995,
                    "velocity": 0.7874015748031497,
                    "duration": 0.25
                },
                {
                    "name": "B4",
                    "midi": 71,
                    "time": 134.9999999999995,
                    "velocity": 0.7874015748031497,
                    "duration": 0.25
                },
                {
                    "name": "D#5",
                    "midi": 75,
                    "time": 135.2499999999995,
                    "velocity": 0.7874015748031497,
                    "duration": 0.25
                },
                {
                    "name": "A5",
                    "midi": 81,
                    "time": 135.2499999999995,
                    "velocity": 0.7874015748031497,
                    "duration": 0.25
                },
                {
                    "name": "F4",
                    "midi": 65,
                    "time": 135.2499999999995,
                    "velocity": 0.7874015748031497,
                    "duration": 0.25
                },
                {
                    "name": "G#5",
                    "midi": 80,
                    "time": 135.4999999999995,
                    "velocity": 0.7874015748031497,
                    "duration": 0.25
                },
                {
                    "name": "E4",
                    "midi": 64,
                    "time": 135.4999999999995,
                    "velocity": 0.7874015748031497,
                    "duration": 0.25
                },
                {
                    "name": "E5",
                    "midi": 76,
                    "time": 135.4999999999995,
                    "velocity": 0.7874015748031497,
                    "duration": 0.25
                },
                {
                    "name": "E4",
                    "midi": 64,
                    "time": 135.7499999999995,
                    "velocity": 0.7874015748031497,
                    "duration": 0.25
                },
                {
                    "name": "B4",
                    "midi": 71,
                    "time": 135.7499999999995,
                    "velocity": 0.7874015748031497,
                    "duration": 0.25
                },
                {
                    "name": "E5",
                    "midi": 76,
                    "time": 135.7499999999995,
                    "velocity": 0.7874015748031497,
                    "duration": 0.25
                },
                {
                    "name": "C#5",
                    "midi": 73,
                    "time": 135.9999999999995,
                    "velocity": 0.7874015748031497,
                    "duration": 0.25
                },
                {
                    "name": "E5",
                    "midi": 76,
                    "time": 135.9999999999995,
                    "velocity": 0.7874015748031497,
                    "duration": 0.25
                },
                {
                    "name": "A4",
                    "midi": 69,
                    "time": 135.9999999999995,
                    "velocity": 0.7874015748031497,
                    "duration": 0.25
                },
                {
                    "name": "B4",
                    "midi": 71,
                    "time": 136.2499999999995,
                    "velocity": 0.7874015748031497,
                    "duration": 0.25
                },
                {
                    "name": "D5",
                    "midi": 74,
                    "time": 136.2499999999995,
                    "velocity": 0.7874015748031497,
                    "duration": 0.25
                },
                {
                    "name": "E5",
                    "midi": 76,
                    "time": 136.2499999999995,
                    "velocity": 0.7874015748031497,
                    "duration": 0.25
                },
                {
                    "name": "C5",
                    "midi": 72,
                    "time": 136.4999999999995,
                    "velocity": 0.7874015748031497,
                    "duration": 0.25
                },
                {
                    "name": "D5",
                    "midi": 74,
                    "time": 136.4999999999995,
                    "velocity": 0.7874015748031497,
                    "duration": 0.25
                },
                {
                    "name": "E5",
                    "midi": 76,
                    "time": 136.4999999999995,
                    "velocity": 0.7874015748031497,
                    "duration": 0.25
                },
                {
                    "name": "E5",
                    "midi": 76,
                    "time": 136.7499999999995,
                    "velocity": 0.7874015748031497,
                    "duration": 0.25
                },
                {
                    "name": "C5",
                    "midi": 72,
                    "time": 136.7499999999995,
                    "velocity": 0.7874015748031497,
                    "duration": 0.25
                },
                {
                    "name": "A4",
                    "midi": 69,
                    "time": 136.7499999999995,
                    "velocity": 0.7874015748031497,
                    "duration": 0.25
                },
                {
                    "name": "D6",
                    "midi": 86,
                    "time": 136.9999999999995,
                    "velocity": 0.7874015748031497,
                    "duration": 0.25
                },
                {
                    "name": "F5",
                    "midi": 77,
                    "time": 136.9999999999995,
                    "velocity": 0.7874015748031497,
                    "duration": 0.25
                },
                {
                    "name": "D4",
                    "midi": 62,
                    "time": 136.9999999999995,
                    "velocity": 0.7874015748031497,
                    "duration": 0.25
                },
                {
                    "name": "E6",
                    "midi": 88,
                    "time": 137.2499999999995,
                    "velocity": 0.7874015748031497,
                    "duration": 0.25
                },
                {
                    "name": "G5",
                    "midi": 79,
                    "time": 137.2499999999995,
                    "velocity": 0.7874015748031497,
                    "duration": 0.25
                },
                {
                    "name": "D4",
                    "midi": 62,
                    "time": 137.2499999999995,
                    "velocity": 0.7874015748031497,
                    "duration": 0.25
                },
                {
                    "name": "D4",
                    "midi": 62,
                    "time": 137.4999999999995,
                    "velocity": 0.7874015748031497,
                    "duration": 0.25
                },
                {
                    "name": "F6",
                    "midi": 89,
                    "time": 137.4999999999995,
                    "velocity": 0.7874015748031497,
                    "duration": 0.25
                },
                {
                    "name": "A5",
                    "midi": 81,
                    "time": 137.4999999999995,
                    "velocity": 0.7874015748031497,
                    "duration": 0.25
                },
                {
                    "name": "D6",
                    "midi": 86,
                    "time": 137.7499999999995,
                    "velocity": 0.7874015748031497,
                    "duration": 0.25
                },
                {
                    "name": "F5",
                    "midi": 77,
                    "time": 137.7499999999995,
                    "velocity": 0.7874015748031497,
                    "duration": 0.25
                },
                {
                    "name": "D4",
                    "midi": 62,
                    "time": 137.7499999999995,
                    "velocity": 0.7874015748031497,
                    "duration": 0.25
                },
                {
                    "name": "B4",
                    "midi": 71,
                    "time": 137.9999999999995,
                    "velocity": 0.7874015748031497,
                    "duration": 0.25
                },
                {
                    "name": "D4",
                    "midi": 62,
                    "time": 137.9999999999995,
                    "velocity": 0.7874015748031497,
                    "duration": 0.25
                },
                {
                    "name": "G3",
                    "midi": 55,
                    "time": 137.9999999999995,
                    "velocity": 0.7874015748031497,
                    "duration": 0.25
                },
                {
                    "name": "G3",
                    "midi": 55,
                    "time": 138.2499999999995,
                    "velocity": 0.7874015748031497,
                    "duration": 0.25
                },
                {
                    "name": "E4",
                    "midi": 64,
                    "time": 138.2499999999995,
                    "velocity": 0.7874015748031497,
                    "duration": 0.25
                },
                {
                    "name": "C5",
                    "midi": 72,
                    "time": 138.2499999999995,
                    "velocity": 0.7874015748031497,
                    "duration": 0.25
                },
                {
                    "name": "D5",
                    "midi": 74,
                    "time": 138.4999999999995,
                    "velocity": 0.7874015748031497,
                    "duration": 0.25
                },
                {
                    "name": "F4",
                    "midi": 65,
                    "time": 138.4999999999995,
                    "velocity": 0.7874015748031497,
                    "duration": 0.25
                },
                {
                    "name": "G3",
                    "midi": 55,
                    "time": 138.4999999999995,
                    "velocity": 0.7874015748031497,
                    "duration": 0.25
                },
                {
                    "name": "G3",
                    "midi": 55,
                    "time": 138.7499999999995,
                    "velocity": 0.7874015748031497,
                    "duration": 0.25
                },
                {
                    "name": "D4",
                    "midi": 62,
                    "time": 138.7499999999995,
                    "velocity": 0.7874015748031497,
                    "duration": 0.25
                },
                {
                    "name": "B4",
                    "midi": 71,
                    "time": 138.7499999999995,
                    "velocity": 0.7874015748031497,
                    "duration": 0.25
                },
                {
                    "name": "E5",
                    "midi": 76,
                    "time": 138.9999999999995,
                    "velocity": 0.7874015748031497,
                    "duration": 0.25
                },
                {
                    "name": "G4",
                    "midi": 67,
                    "time": 138.9999999999995,
                    "velocity": 0.7874015748031497,
                    "duration": 0.25
                },
                {
                    "name": "C4",
                    "midi": 60,
                    "time": 138.9999999999995,
                    "velocity": 0.7874015748031497,
                    "duration": 0.25
                },
                {
                    "name": "D4",
                    "midi": 62,
                    "time": 139.2499999999995,
                    "velocity": 0.7874015748031497,
                    "duration": 0.25
                },
                {
                    "name": "G4",
                    "midi": 67,
                    "time": 139.2499999999995,
                    "velocity": 0.7874015748031497,
                    "duration": 0.25
                },
                {
                    "name": "F5",
                    "midi": 77,
                    "time": 139.2499999999995,
                    "velocity": 0.7874015748031497,
                    "duration": 0.25
                },
                {
                    "name": "G5",
                    "midi": 79,
                    "time": 139.4999999999995,
                    "velocity": 0.7874015748031497,
                    "duration": 0.25
                },
                {
                    "name": "G4",
                    "midi": 67,
                    "time": 139.4999999999995,
                    "velocity": 0.7874015748031497,
                    "duration": 0.25
                },
                {
                    "name": "E4",
                    "midi": 64,
                    "time": 139.4999999999995,
                    "velocity": 0.7874015748031497,
                    "duration": 0.25
                },
                {
                    "name": "C4",
                    "midi": 60,
                    "time": 139.7499999999995,
                    "velocity": 0.7874015748031497,
                    "duration": 0.25
                },
                {
                    "name": "G4",
                    "midi": 67,
                    "time": 139.7499999999995,
                    "velocity": 0.7874015748031497,
                    "duration": 0.25
                },
                {
                    "name": "E5",
                    "midi": 76,
                    "time": 139.7499999999995,
                    "velocity": 0.7874015748031497,
                    "duration": 0.25
                },
                {
                    "name": "F5",
                    "midi": 77,
                    "time": 139.9999999999995,
                    "velocity": 0.7874015748031497,
                    "duration": 0.25
                },
                {
                    "name": "B4",
                    "midi": 71,
                    "time": 139.9999999999995,
                    "velocity": 0.7874015748031497,
                    "duration": 0.25
                },
                {
                    "name": "D4",
                    "midi": 62,
                    "time": 139.9999999999995,
                    "velocity": 0.7874015748031497,
                    "duration": 0.25
                },
                {
                    "name": "D4",
                    "midi": 62,
                    "time": 140.2499999999995,
                    "velocity": 0.7874015748031497,
                    "duration": 0.25
                },
                {
                    "name": "B4",
                    "midi": 71,
                    "time": 140.2499999999995,
                    "velocity": 0.7874015748031497,
                    "duration": 0.25
                },
                {
                    "name": "D5",
                    "midi": 74,
                    "time": 140.2499999999995,
                    "velocity": 0.7874015748031497,
                    "duration": 0.25
                },
                {
                    "name": "D4",
                    "midi": 62,
                    "time": 140.4999999999995,
                    "velocity": 0.7874015748031497,
                    "duration": 0.25
                },
                {
                    "name": "B4",
                    "midi": 71,
                    "time": 140.4999999999995,
                    "velocity": 0.7874015748031497,
                    "duration": 0.25
                },
                {
                    "name": "E5",
                    "midi": 76,
                    "time": 140.4999999999995,
                    "velocity": 0.7874015748031497,
                    "duration": 0.25
                },
                {
                    "name": "F5",
                    "midi": 77,
                    "time": 140.7499999999995,
                    "velocity": 0.7874015748031497,
                    "duration": 0.25
                },
                {
                    "name": "B4",
                    "midi": 71,
                    "time": 140.7499999999995,
                    "velocity": 0.7874015748031497,
                    "duration": 0.25
                },
                {
                    "name": "D4",
                    "midi": 62,
                    "time": 140.7499999999995,
                    "velocity": 0.7874015748031497,
                    "duration": 0.25
                },
                {
                    "name": "C4",
                    "midi": 60,
                    "time": 140.9999999999995,
                    "velocity": 0.7874015748031497,
                    "duration": 0.25
                },
                {
                    "name": "C5",
                    "midi": 72,
                    "time": 140.9999999999995,
                    "velocity": 0.7874015748031497,
                    "duration": 0.25
                },
                {
                    "name": "E5",
                    "midi": 76,
                    "time": 140.9999999999995,
                    "velocity": 0.7874015748031497,
                    "duration": 0.25
                },
                {
                    "name": "B4",
                    "midi": 71,
                    "time": 141.2499999999995,
                    "velocity": 0.7874015748031497,
                    "duration": 0.25
                },
                {
                    "name": "D5",
                    "midi": 74,
                    "time": 141.2499999999995,
                    "velocity": 0.7874015748031497,
                    "duration": 0.25
                },
                {
                    "name": "B3",
                    "midi": 59,
                    "time": 141.2499999999995,
                    "velocity": 0.7874015748031497,
                    "duration": 0.25
                },
                {
                    "name": "A3",
                    "midi": 57,
                    "time": 141.4999999999995,
                    "velocity": 0.7874015748031497,
                    "duration": 0.25
                },
                {
                    "name": "A4",
                    "midi": 69,
                    "time": 141.4999999999995,
                    "velocity": 0.7874015748031497,
                    "duration": 0.25
                },
                {
                    "name": "C5",
                    "midi": 72,
                    "time": 141.4999999999995,
                    "velocity": 0.7874015748031497,
                    "duration": 0.25
                },
                {
                    "name": "C#5",
                    "midi": 73,
                    "time": 141.7499999999995,
                    "velocity": 0.7874015748031497,
                    "duration": 0.25
                },
                {
                    "name": "G4",
                    "midi": 67,
                    "time": 141.7499999999995,
                    "velocity": 0.7874015748031497,
                    "duration": 0.25
                },
                {
                    "name": "A3",
                    "midi": 57,
                    "time": 141.7499999999995,
                    "velocity": 0.7874015748031497,
                    "duration": 0.25
                },
                {
                    "name": "D5",
                    "midi": 74,
                    "time": 141.9999999999995,
                    "velocity": 0.7874015748031497,
                    "duration": 0.25
                },
                {
                    "name": "F4",
                    "midi": 65,
                    "time": 141.9999999999995,
                    "velocity": 0.7874015748031497,
                    "duration": 0.25
                },
                {
                    "name": "D4",
                    "midi": 62,
                    "time": 141.9999999999995,
                    "velocity": 0.7874015748031497,
                    "duration": 0.25
                },
                {
                    "name": "D#4",
                    "midi": 63,
                    "time": 142.2499999999995,
                    "velocity": 0.7874015748031497,
                    "duration": 0.25
                },
                {
                    "name": "A5",
                    "midi": 81,
                    "time": 142.2499999999995,
                    "velocity": 0.7874015748031497,
                    "duration": 0.25
                },
                {
                    "name": "C5",
                    "midi": 72,
                    "time": 142.2499999999995,
                    "velocity": 0.7874015748031497,
                    "duration": 0.25
                },
                {
                    "name": "A5",
                    "midi": 81,
                    "time": 142.4999999999995,
                    "velocity": 0.7874015748031497,
                    "duration": 0.25
                },
                {
                    "name": "C5",
                    "midi": 72,
                    "time": 142.4999999999995,
                    "velocity": 0.7874015748031497,
                    "duration": 0.25
                },
                {
                    "name": "E4",
                    "midi": 64,
                    "time": 142.4999999999995,
                    "velocity": 0.7874015748031497,
                    "duration": 0.25
                },
                {
                    "name": "G#5",
                    "midi": 80,
                    "time": 142.7499999999995,
                    "velocity": 0.7874015748031497,
                    "duration": 0.25
                },
                {
                    "name": "E4",
                    "midi": 64,
                    "time": 142.7499999999995,
                    "velocity": 0.7874015748031497,
                    "duration": 0.25
                },
                {
                    "name": "B4",
                    "midi": 71,
                    "time": 142.7499999999995,
                    "velocity": 0.7874015748031497,
                    "duration": 0.25
                },
                {
                    "name": "A4",
                    "midi": 69,
                    "time": 142.9999999999995,
                    "velocity": 0.7874015748031497,
                    "duration": 0.5
                },
                {
                    "name": "C5",
                    "midi": 72,
                    "time": 142.9999999999995,
                    "velocity": 0.7874015748031497,
                    "duration": 0.5
                },
                {
                    "name": "A5",
                    "midi": 81,
                    "time": 142.9999999999995,
                    "velocity": 0.7874015748031497,
                    "duration": 0.5
                },
                {
                    "name": "A3",
                    "midi": 57,
                    "time": 143.4999999999995,
                    "velocity": 0.7874015748031497,
                    "duration": 0.25
                },
                {
                    "name": "C6",
                    "midi": 84,
                    "time": 143.9999999999995,
                    "velocity": 0.7874015748031497,
                    "duration": 0.125
                },
                {
                    "name": "A5",
                    "midi": 81,
                    "time": 144.1249999999995,
                    "velocity": 0.7874015748031497,
                    "duration": 0.125
                },
                {
                    "name": "E5",
                    "midi": 76,
                    "time": 144.2499999999995,
                    "velocity": 0.7874015748031497,
                    "duration": 0.125
                },
                {
                    "name": "C5",
                    "midi": 72,
                    "time": 144.3749999999995,
                    "velocity": 0.7874015748031497,
                    "duration": 0.125
                },
                {
                    "name": "A4",
                    "midi": 69,
                    "time": 144.4999999999995,
                    "velocity": 0.7874015748031497,
                    "duration": 0.125
                },
                {
                    "name": "E5",
                    "midi": 76,
                    "time": 144.6249999999995,
                    "velocity": 0.7874015748031497,
                    "duration": 0.125
                },
                {
                    "name": "C5",
                    "midi": 72,
                    "time": 144.7499999999995,
                    "velocity": 0.7874015748031497,
                    "duration": 0.125
                },
                {
                    "name": "A4",
                    "midi": 69,
                    "time": 144.8749999999995,
                    "velocity": 0.7874015748031497,
                    "duration": 0.125
                },
                {
                    "name": "B5",
                    "midi": 83,
                    "time": 144.9999999999995,
                    "velocity": 0.7874015748031497,
                    "duration": 0.125
                },
                {
                    "name": "G#5",
                    "midi": 80,
                    "time": 145.1249999999995,
                    "velocity": 0.7874015748031497,
                    "duration": 0.125
                },
                {
                    "name": "E5",
                    "midi": 76,
                    "time": 145.2499999999995,
                    "velocity": 0.7874015748031497,
                    "duration": 0.125
                },
                {
                    "name": "D6",
                    "midi": 86,
                    "time": 145.3749999999995,
                    "velocity": 0.7874015748031497,
                    "duration": 0.125
                },
                {
                    "name": "B5",
                    "midi": 83,
                    "time": 145.4999999999995,
                    "velocity": 0.7874015748031497,
                    "duration": 0.125
                },
                {
                    "name": "E5",
                    "midi": 76,
                    "time": 145.6249999999995,
                    "velocity": 0.7874015748031497,
                    "duration": 0.125
                },
                {
                    "name": "G#5",
                    "midi": 80,
                    "time": 145.7499999999995,
                    "velocity": 0.7874015748031497,
                    "duration": 0.125
                },
                {
                    "name": "E5",
                    "midi": 76,
                    "time": 145.8749999999995,
                    "velocity": 0.7874015748031497,
                    "duration": 0.125
                },
                {
                    "name": "C6",
                    "midi": 84,
                    "time": 145.9999999999995,
                    "velocity": 0.7874015748031497,
                    "duration": 0.125
                },
                {
                    "name": "A5",
                    "midi": 81,
                    "time": 146.1249999999995,
                    "velocity": 0.7874015748031497,
                    "duration": 0.125
                },
                {
                    "name": "E5",
                    "midi": 76,
                    "time": 146.2499999999995,
                    "velocity": 0.7874015748031497,
                    "duration": 0.125
                },
                {
                    "name": "C5",
                    "midi": 72,
                    "time": 146.3749999999995,
                    "velocity": 0.7874015748031497,
                    "duration": 0.125
                },
                {
                    "name": "A4",
                    "midi": 69,
                    "time": 146.4999999999995,
                    "velocity": 0.7874015748031497,
                    "duration": 0.125
                },
                {
                    "name": "E5",
                    "midi": 76,
                    "time": 146.6249999999995,
                    "velocity": 0.7874015748031497,
                    "duration": 0.125
                },
                {
                    "name": "C5",
                    "midi": 72,
                    "time": 146.7499999999995,
                    "velocity": 0.7874015748031497,
                    "duration": 0.125
                },
                {
                    "name": "A4",
                    "midi": 69,
                    "time": 146.8749999999995,
                    "velocity": 0.7874015748031497,
                    "duration": 0.125
                },
                {
                    "name": "B5",
                    "midi": 83,
                    "time": 146.9999999999995,
                    "velocity": 0.7874015748031497,
                    "duration": 0.125
                },
                {
                    "name": "G#5",
                    "midi": 80,
                    "time": 147.1249999999995,
                    "velocity": 0.7874015748031497,
                    "duration": 0.125
                },
                {
                    "name": "E5",
                    "midi": 76,
                    "time": 147.2499999999995,
                    "velocity": 0.7874015748031497,
                    "duration": 0.125
                },
                {
                    "name": "E5",
                    "midi": 76,
                    "time": 147.3749999999995,
                    "velocity": 0.7874015748031497,
                    "duration": 0.125
                },
                {
                    "name": "B4",
                    "midi": 71,
                    "time": 147.4999999999995,
                    "velocity": 0.7874015748031497,
                    "duration": 0.125
                },
                {
                    "name": "G#4",
                    "midi": 68,
                    "time": 147.6249999999995,
                    "velocity": 0.7874015748031497,
                    "duration": 0.125
                },
                {
                    "name": "E4",
                    "midi": 64,
                    "time": 147.7499999999995,
                    "velocity": 0.7874015748031497,
                    "duration": 0.25
                },
                {
                    "name": "C6",
                    "midi": 84,
                    "time": 147.9999999999995,
                    "velocity": 0.7874015748031497,
                    "duration": 0.125
                },
                {
                    "name": "A5",
                    "midi": 81,
                    "time": 148.1249999999995,
                    "velocity": 0.7874015748031497,
                    "duration": 0.125
                },
                {
                    "name": "E5",
                    "midi": 76,
                    "time": 148.2499999999995,
                    "velocity": 0.7874015748031497,
                    "duration": 0.125
                },
                {
                    "name": "C5",
                    "midi": 72,
                    "time": 148.3749999999995,
                    "velocity": 0.7874015748031497,
                    "duration": 0.125
                },
                {
                    "name": "A4",
                    "midi": 69,
                    "time": 148.4999999999995,
                    "velocity": 0.7874015748031497,
                    "duration": 0.125
                },
                {
                    "name": "E5",
                    "midi": 76,
                    "time": 148.6249999999995,
                    "velocity": 0.7874015748031497,
                    "duration": 0.125
                },
                {
                    "name": "C5",
                    "midi": 72,
                    "time": 148.7499999999995,
                    "velocity": 0.7874015748031497,
                    "duration": 0.125
                },
                {
                    "name": "A4",
                    "midi": 69,
                    "time": 148.8749999999995,
                    "velocity": 0.7874015748031497,
                    "duration": 0.125
                },
                {
                    "name": "B5",
                    "midi": 83,
                    "time": 148.9999999999995,
                    "velocity": 0.7874015748031497,
                    "duration": 0.125
                },
                {
                    "name": "G#5",
                    "midi": 80,
                    "time": 149.1249999999995,
                    "velocity": 0.7874015748031497,
                    "duration": 0.125
                },
                {
                    "name": "E5",
                    "midi": 76,
                    "time": 149.2499999999995,
                    "velocity": 0.7874015748031497,
                    "duration": 0.125
                },
                {
                    "name": "D6",
                    "midi": 86,
                    "time": 149.3749999999995,
                    "velocity": 0.7874015748031497,
                    "duration": 0.125
                },
                {
                    "name": "B5",
                    "midi": 83,
                    "time": 149.4999999999995,
                    "velocity": 0.7874015748031497,
                    "duration": 0.125
                },
                {
                    "name": "E5",
                    "midi": 76,
                    "time": 149.6249999999995,
                    "velocity": 0.7874015748031497,
                    "duration": 0.125
                },
                {
                    "name": "G#5",
                    "midi": 80,
                    "time": 149.7499999999995,
                    "velocity": 0.7874015748031497,
                    "duration": 0.125
                },
                {
                    "name": "E5",
                    "midi": 76,
                    "time": 149.8749999999995,
                    "velocity": 0.7874015748031497,
                    "duration": 0.125
                },
                {
                    "name": "C6",
                    "midi": 84,
                    "time": 149.9999999999995,
                    "velocity": 0.7874015748031497,
                    "duration": 0.125
                },
                {
                    "name": "A5",
                    "midi": 81,
                    "time": 150.1249999999995,
                    "velocity": 0.7874015748031497,
                    "duration": 0.125
                },
                {
                    "name": "E5",
                    "midi": 76,
                    "time": 150.2499999999995,
                    "velocity": 0.7874015748031497,
                    "duration": 0.125
                },
                {
                    "name": "C5",
                    "midi": 72,
                    "time": 150.3749999999995,
                    "velocity": 0.7874015748031497,
                    "duration": 0.125
                },
                {
                    "name": "A4",
                    "midi": 69,
                    "time": 150.4999999999995,
                    "velocity": 0.7874015748031497,
                    "duration": 0.125
                },
                {
                    "name": "E5",
                    "midi": 76,
                    "time": 150.6249999999995,
                    "velocity": 0.7874015748031497,
                    "duration": 0.125
                },
                {
                    "name": "C5",
                    "midi": 72,
                    "time": 150.7499999999995,
                    "velocity": 0.7874015748031497,
                    "duration": 0.125
                },
                {
                    "name": "A4",
                    "midi": 69,
                    "time": 150.8749999999995,
                    "velocity": 0.7874015748031497,
                    "duration": 0.125
                },
                {
                    "name": "B5",
                    "midi": 83,
                    "time": 150.9999999999995,
                    "velocity": 0.7874015748031497,
                    "duration": 0.125
                },
                {
                    "name": "G#5",
                    "midi": 80,
                    "time": 151.1249999999995,
                    "velocity": 0.7874015748031497,
                    "duration": 0.125
                },
                {
                    "name": "E5",
                    "midi": 76,
                    "time": 151.2499999999995,
                    "velocity": 0.7874015748031497,
                    "duration": 0.125
                },
                {
                    "name": "E5",
                    "midi": 76,
                    "time": 151.3749999999995,
                    "velocity": 0.7874015748031497,
                    "duration": 0.125
                },
                {
                    "name": "B4",
                    "midi": 71,
                    "time": 151.4999999999995,
                    "velocity": 0.7874015748031497,
                    "duration": 0.125
                },
                {
                    "name": "G#4",
                    "midi": 68,
                    "time": 151.6249999999995,
                    "velocity": 0.7874015748031497,
                    "duration": 0.125
                },
                {
                    "name": "E4",
                    "midi": 64,
                    "time": 151.7499999999995,
                    "velocity": 0.7874015748031497,
                    "duration": 0.25
                },
                {
                    "name": "E6",
                    "midi": 88,
                    "time": 151.9999999999995,
                    "velocity": 0.7874015748031497,
                    "duration": 0.125
                },
                {
                    "name": "C#6",
                    "midi": 85,
                    "time": 152.1249999999995,
                    "velocity": 0.7874015748031497,
                    "duration": 0.125
                },
                {
                    "name": "A5",
                    "midi": 81,
                    "time": 152.2499999999995,
                    "velocity": 0.7874015748031497,
                    "duration": 0.125
                },
                {
                    "name": "E5",
                    "midi": 76,
                    "time": 152.3749999999995,
                    "velocity": 0.7874015748031497,
                    "duration": 0.125
                },
                {
                    "name": "C#5",
                    "midi": 73,
                    "time": 152.4999999999995,
                    "velocity": 0.7874015748031497,
                    "duration": 0.125
                },
                {
                    "name": "A4",
                    "midi": 69,
                    "time": 152.6249999999995,
                    "velocity": 0.7874015748031497,
                    "duration": 0.125
                },
                {
                    "name": "G4",
                    "midi": 67,
                    "time": 152.7499999999995,
                    "velocity": 0.7874015748031497,
                    "duration": 0.125
                },
                {
                    "name": "E4",
                    "midi": 64,
                    "time": 152.8749999999995,
                    "velocity": 0.7874015748031497,
                    "duration": 0.125
                },
                {
                    "name": "F4",
                    "midi": 65,
                    "time": 152.9999999999995,
                    "velocity": 0.7874015748031497,
                    "duration": 0.125
                },
                {
                    "name": "D4",
                    "midi": 62,
                    "time": 153.1249999999995,
                    "velocity": 0.7874015748031497,
                    "duration": 0.125
                },
                {
                    "name": "C6",
                    "midi": 84,
                    "time": 153.2499999999995,
                    "velocity": 0.7874015748031497,
                    "duration": 0.125
                },
                {
                    "name": "A5",
                    "midi": 81,
                    "time": 153.3749999999995,
                    "velocity": 0.7874015748031497,
                    "duration": 0.125
                },
                {
                    "name": "F5",
                    "midi": 77,
                    "time": 153.4999999999995,
                    "velocity": 0.7874015748031497,
                    "duration": 0.125
                },
                {
                    "name": "D5",
                    "midi": 74,
                    "time": 153.6249999999995,
                    "velocity": 0.7874015748031497,
                    "duration": 0.125
                },
                {
                    "name": "F4",
                    "midi": 65,
                    "time": 153.7499999999995,
                    "velocity": 0.7874015748031497,
                    "duration": 0.125
                },
                {
                    "name": "D4",
                    "midi": 62,
                    "time": 153.8749999999995,
                    "velocity": 0.7874015748031497,
                    "duration": 0.125
                },
                {
                    "name": "D6",
                    "midi": 86,
                    "time": 153.9999999999995,
                    "velocity": 0.7874015748031497,
                    "duration": 0.125
                },
                {
                    "name": "B5",
                    "midi": 83,
                    "time": 154.1249999999995,
                    "velocity": 0.7874015748031497,
                    "duration": 0.125
                },
                {
                    "name": "G5",
                    "midi": 79,
                    "time": 154.2499999999995,
                    "velocity": 0.7874015748031497,
                    "duration": 0.125
                },
                {
                    "name": "F5",
                    "midi": 77,
                    "time": 154.3749999999995,
                    "velocity": 0.7874015748031497,
                    "duration": 0.125
                },
                {
                    "name": "D5",
                    "midi": 74,
                    "time": 154.4999999999995,
                    "velocity": 0.7874015748031497,
                    "duration": 0.125
                },
                {
                    "name": "B4",
                    "midi": 71,
                    "time": 154.6249999999995,
                    "velocity": 0.7874015748031497,
                    "duration": 0.125
                },
                {
                    "name": "F4",
                    "midi": 65,
                    "time": 154.7499999999995,
                    "velocity": 0.7874015748031497,
                    "duration": 0.125
                },
                {
                    "name": "D4",
                    "midi": 62,
                    "time": 154.8749999999995,
                    "velocity": 0.7874015748031497,
                    "duration": 0.125
                },
                {
                    "name": "E4",
                    "midi": 64,
                    "time": 154.9999999999995,
                    "velocity": 0.7874015748031497,
                    "duration": 0.125
                },
                {
                    "name": "C4",
                    "midi": 60,
                    "time": 155.1249999999995,
                    "velocity": 0.7874015748031497,
                    "duration": 0.125
                },
                {
                    "name": "C6",
                    "midi": 84,
                    "time": 155.2499999999995,
                    "velocity": 0.7874015748031497,
                    "duration": 0.125
                },
                {
                    "name": "G5",
                    "midi": 79,
                    "time": 155.3749999999995,
                    "velocity": 0.7874015748031497,
                    "duration": 0.125
                },
                {
                    "name": "E5",
                    "midi": 76,
                    "time": 155.4999999999995,
                    "velocity": 0.7874015748031497,
                    "duration": 0.125
                },
                {
                    "name": "C5",
                    "midi": 72,
                    "time": 155.6249999999995,
                    "velocity": 0.7874015748031497,
                    "duration": 0.125
                },
                {
                    "name": "E4",
                    "midi": 64,
                    "time": 155.7499999999995,
                    "velocity": 0.7874015748031497,
                    "duration": 0.125
                },
                {
                    "name": "C4",
                    "midi": 60,
                    "time": 155.8749999999995,
                    "velocity": 0.7874015748031497,
                    "duration": 0.125
                },
                {
                    "name": "B5",
                    "midi": 83,
                    "time": 155.9999999999995,
                    "velocity": 0.7874015748031497,
                    "duration": 0.125
                },
                {
                    "name": "A5",
                    "midi": 81,
                    "time": 156.1249999999995,
                    "velocity": 0.7874015748031497,
                    "duration": 0.125
                },
                {
                    "name": "G#5",
                    "midi": 80,
                    "time": 156.2499999999995,
                    "velocity": 0.7874015748031497,
                    "duration": 0.125
                },
                {
                    "name": "F5",
                    "midi": 77,
                    "time": 156.3749999999995,
                    "velocity": 0.7874015748031497,
                    "duration": 0.125
                },
                {
                    "name": "E5",
                    "midi": 76,
                    "time": 156.4999999999995,
                    "velocity": 0.7874015748031497,
                    "duration": 0.125
                },
                {
                    "name": "D5",
                    "midi": 74,
                    "time": 156.6249999999995,
                    "velocity": 0.7874015748031497,
                    "duration": 0.125
                },
                {
                    "name": "C5",
                    "midi": 72,
                    "time": 156.7499999999995,
                    "velocity": 0.7874015748031497,
                    "duration": 0.125
                },
                {
                    "name": "B4",
                    "midi": 71,
                    "time": 156.8749999999995,
                    "velocity": 0.7874015748031497,
                    "duration": 0.125
                },
                {
                    "name": "A4",
                    "midi": 69,
                    "time": 156.9999999999995,
                    "velocity": 0.7874015748031497,
                    "duration": 0.125
                },
                {
                    "name": "G4",
                    "midi": 67,
                    "time": 157.1249999999995,
                    "velocity": 0.7874015748031497,
                    "duration": 0.125
                },
                {
                    "name": "F4",
                    "midi": 65,
                    "time": 157.2499999999995,
                    "velocity": 0.7874015748031497,
                    "duration": 0.125
                },
                {
                    "name": "E4",
                    "midi": 64,
                    "time": 157.3749999999995,
                    "velocity": 0.7874015748031497,
                    "duration": 0.125
                },
                {
                    "name": "D4",
                    "midi": 62,
                    "time": 157.4999999999995,
                    "velocity": 0.7874015748031497,
                    "duration": 0.125
                },
                {
                    "name": "C4",
                    "midi": 60,
                    "time": 157.6249999999995,
                    "velocity": 0.7874015748031497,
                    "duration": 0.125
                },
                {
                    "name": "B3",
                    "midi": 59,
                    "time": 157.7499999999995,
                    "velocity": 0.7874015748031497,
                    "duration": 0.125
                },
                {
                    "name": "A3",
                    "midi": 57,
                    "time": 157.8749999999995,
                    "velocity": 0.7874015748031497,
                    "duration": 0.125
                },
                {
                    "name": "F4",
                    "midi": 65,
                    "time": 157.9999999999995,
                    "velocity": 0.7874015748031497,
                    "duration": 0.125
                },
                {
                    "name": "D4",
                    "midi": 62,
                    "time": 158.1249999999995,
                    "velocity": 0.7874015748031497,
                    "duration": 0.125
                },
                {
                    "name": "A5",
                    "midi": 81,
                    "time": 158.2499999999995,
                    "velocity": 0.7874015748031497,
                    "duration": 0.125
                },
                {
                    "name": "F5",
                    "midi": 77,
                    "time": 158.3749999999995,
                    "velocity": 0.7874015748031497,
                    "duration": 0.125
                },
                {
                    "name": "G#4",
                    "midi": 68,
                    "time": 158.4999999999995,
                    "velocity": 0.7874015748031497,
                    "duration": 0.125
                },
                {
                    "name": "E4",
                    "midi": 64,
                    "time": 158.6249999999995,
                    "velocity": 0.7874015748031497,
                    "duration": 0.125
                },
                {
                    "name": "A5",
                    "midi": 81,
                    "time": 158.7499999999995,
                    "velocity": 0.7874015748031497,
                    "duration": 0.125
                },
                {
                    "name": "G#5",
                    "midi": 80,
                    "time": 158.8749999999995,
                    "velocity": 0.7874015748031497,
                    "duration": 0.125
                },
                {
                    "name": "A5",
                    "midi": 81,
                    "time": 158.9999999999995,
                    "velocity": 0.7874015748031497,
                    "duration": 0.125
                },
                {
                    "name": "E5",
                    "midi": 76,
                    "time": 159.1249999999995,
                    "velocity": 0.7874015748031497,
                    "duration": 0.125
                },
                {
                    "name": "C5",
                    "midi": 72,
                    "time": 159.2499999999995,
                    "velocity": 0.7874015748031497,
                    "duration": 0.125
                },
                {
                    "name": "A4",
                    "midi": 69,
                    "time": 159.3749999999995,
                    "velocity": 0.7874015748031497,
                    "duration": 0.125
                },
                {
                    "name": "A3",
                    "midi": 57,
                    "time": 159.4999999999995,
                    "velocity": 0.7874015748031497,
                    "duration": 0.25
                },
                {
                    "name": "A6",
                    "midi": 93,
                    "time": 159.9999999999995,
                    "velocity": 0.7874015748031497,
                    "duration": 0.75
                },
                {
                    "name": "E6",
                    "midi": 88,
                    "time": 160.7499999999995,
                    "velocity": 0.7874015748031497,
                    "duration": 0.125
                },
                {
                    "name": "C7",
                    "midi": 96,
                    "time": 160.8749999999995,
                    "velocity": 0.7874015748031497,
                    "duration": 0.125
                },
                {
                    "name": "B6",
                    "midi": 95,
                    "time": 160.9999999999995,
                    "velocity": 0.7874015748031497,
                    "duration": 0.125
                },
                {
                    "name": "A6",
                    "midi": 93,
                    "time": 161.1249999999995,
                    "velocity": 0.7874015748031497,
                    "duration": 0.125
                },
                {
                    "name": "G#6",
                    "midi": 92,
                    "time": 161.2499999999995,
                    "velocity": 0.7874015748031497,
                    "duration": 0.125
                },
                {
                    "name": "F#6",
                    "midi": 90,
                    "time": 161.3749999999995,
                    "velocity": 0.7874015748031497,
                    "duration": 0.125
                },
                {
                    "name": "E6",
                    "midi": 88,
                    "time": 161.4999999999995,
                    "velocity": 0.7874015748031497,
                    "duration": 0.125
                },
                {
                    "name": "F#6",
                    "midi": 90,
                    "time": 161.6249999999995,
                    "velocity": 0.7874015748031497,
                    "duration": 0.125
                },
                {
                    "name": "G#6",
                    "midi": 92,
                    "time": 161.7499999999995,
                    "velocity": 0.7874015748031497,
                    "duration": 0.125
                },
                {
                    "name": "E6",
                    "midi": 88,
                    "time": 161.8749999999995,
                    "velocity": 0.7874015748031497,
                    "duration": 0.125
                },
                {
                    "name": "A6",
                    "midi": 93,
                    "time": 161.9999999999995,
                    "velocity": 0.7874015748031497,
                    "duration": 0.6374999999999886
                },
                {
                    "name": "B6",
                    "midi": 95,
                    "time": 162.6249999999995,
                    "velocity": 0.7874015748031497,
                    "duration": 0.125
                },
                {
                    "name": "C7",
                    "midi": 96,
                    "time": 162.7499999999995,
                    "velocity": 0.7874015748031497,
                    "duration": 0.125
                },
                {
                    "name": "D7",
                    "midi": 98,
                    "time": 162.8749999999995,
                    "velocity": 0.7874015748031497,
                    "duration": 0.125
                },
                {
                    "name": "D#7",
                    "midi": 99,
                    "time": 162.9999999999995,
                    "velocity": 0.7874015748031497,
                    "duration": 0.375
                },
                {
                    "name": "E7",
                    "midi": 100,
                    "time": 163.3749999999995,
                    "velocity": 0.7874015748031497,
                    "duration": 0.125
                },
                {
                    "name": "E6",
                    "midi": 88,
                    "time": 163.4999999999995,
                    "velocity": 0.7874015748031497,
                    "duration": 0.5
                },
                {
                    "name": "A6",
                    "midi": 93,
                    "time": 163.9999999999995,
                    "velocity": 0.7874015748031497,
                    "duration": 0.75
                },
                {
                    "name": "E6",
                    "midi": 88,
                    "time": 164.7499999999995,
                    "velocity": 0.7874015748031497,
                    "duration": 0.125
                },
                {
                    "name": "C7",
                    "midi": 96,
                    "time": 164.8749999999995,
                    "velocity": 0.7874015748031497,
                    "duration": 0.125
                },
                {
                    "name": "B6",
                    "midi": 95,
                    "time": 164.9999999999995,
                    "velocity": 0.7874015748031497,
                    "duration": 0.125
                },
                {
                    "name": "A6",
                    "midi": 93,
                    "time": 165.1249999999995,
                    "velocity": 0.7874015748031497,
                    "duration": 0.125
                },
                {
                    "name": "G#6",
                    "midi": 92,
                    "time": 165.2499999999995,
                    "velocity": 0.7874015748031497,
                    "duration": 0.125
                },
                {
                    "name": "F#6",
                    "midi": 90,
                    "time": 165.3749999999995,
                    "velocity": 0.7874015748031497,
                    "duration": 0.125
                },
                {
                    "name": "E6",
                    "midi": 88,
                    "time": 165.4999999999995,
                    "velocity": 0.7874015748031497,
                    "duration": 0.125
                },
                {
                    "name": "F#6",
                    "midi": 90,
                    "time": 165.6249999999995,
                    "velocity": 0.7874015748031497,
                    "duration": 0.125
                },
                {
                    "name": "G#6",
                    "midi": 92,
                    "time": 165.7499999999995,
                    "velocity": 0.7874015748031497,
                    "duration": 0.125
                },
                {
                    "name": "E6",
                    "midi": 88,
                    "time": 165.8749999999995,
                    "velocity": 0.7874015748031497,
                    "duration": 0.125
                },
                {
                    "name": "A6",
                    "midi": 93,
                    "time": 165.9999999999995,
                    "velocity": 0.7874015748031497,
                    "duration": 0.6374999999999886
                },
                {
                    "name": "B6",
                    "midi": 95,
                    "time": 166.6249999999995,
                    "velocity": 0.7874015748031497,
                    "duration": 0.125
                },
                {
                    "name": "C7",
                    "midi": 96,
                    "time": 166.7499999999995,
                    "velocity": 0.7874015748031497,
                    "duration": 0.125
                },
                {
                    "name": "D7",
                    "midi": 98,
                    "time": 166.8749999999995,
                    "velocity": 0.7874015748031497,
                    "duration": 0.125
                },
                {
                    "name": "D#7",
                    "midi": 99,
                    "time": 166.9999999999995,
                    "velocity": 0.7874015748031497,
                    "duration": 0.375
                },
                {
                    "name": "E7",
                    "midi": 100,
                    "time": 167.3749999999995,
                    "velocity": 0.7874015748031497,
                    "duration": 0.125
                },
                {
                    "name": "E6",
                    "midi": 88,
                    "time": 167.4999999999995,
                    "velocity": 0.7874015748031497,
                    "duration": 0.5
                },
                {
                    "name": "A6",
                    "midi": 93,
                    "time": 167.9999999999995,
                    "velocity": 0.7874015748031497,
                    "duration": 0.6374999999999886
                },
                {
                    "name": "E7",
                    "midi": 100,
                    "time": 168.6249999999995,
                    "velocity": 0.7874015748031497,
                    "duration": 0.125
                },
                {
                    "name": "C#7",
                    "midi": 97,
                    "time": 168.7499999999995,
                    "velocity": 0.7874015748031497,
                    "duration": 0.125
                },
                {
                    "name": "A6",
                    "midi": 93,
                    "time": 168.8749999999995,
                    "velocity": 0.7874015748031497,
                    "duration": 0.125
                },
                {
                    "name": "G6",
                    "midi": 91,
                    "time": 168.9999999999995,
                    "velocity": 0.7874015748031497,
                    "duration": 0.125
                },
                {
                    "name": "E6",
                    "midi": 88,
                    "time": 169.1249999999995,
                    "velocity": 0.7874015748031497,
                    "duration": 0.125
                },
                {
                    "name": "C#6",
                    "midi": 85,
                    "time": 169.2499999999995,
                    "velocity": 0.7874015748031497,
                    "duration": 0.125
                },
                {
                    "name": "A5",
                    "midi": 81,
                    "time": 169.3749999999995,
                    "velocity": 0.7874015748031497,
                    "duration": 0.125
                },
                {
                    "name": "G5",
                    "midi": 79,
                    "time": 169.4999999999995,
                    "velocity": 0.7874015748031497,
                    "duration": 0.125
                },
                {
                    "name": "F5",
                    "midi": 77,
                    "time": 169.6249999999995,
                    "velocity": 0.7874015748031497,
                    "duration": 0.125
                },
                {
                    "name": "E5",
                    "midi": 76,
                    "time": 169.7499999999995,
                    "velocity": 0.7874015748031497,
                    "duration": 0.125
                },
                {
                    "name": "D5",
                    "midi": 74,
                    "time": 169.8749999999995,
                    "velocity": 0.7874015748031497,
                    "duration": 0.125
                },
                {
                    "name": "G6",
                    "midi": 91,
                    "time": 169.9999999999995,
                    "velocity": 0.7874015748031497,
                    "duration": 0.6374999999999886
                },
                {
                    "name": "D7",
                    "midi": 98,
                    "time": 170.6249999999995,
                    "velocity": 0.7874015748031497,
                    "duration": 0.125
                },
                {
                    "name": "B6",
                    "midi": 95,
                    "time": 170.7499999999995,
                    "velocity": 0.7874015748031497,
                    "duration": 0.125
                },
                {
                    "name": "G6",
                    "midi": 91,
                    "time": 170.8749999999995,
                    "velocity": 0.7874015748031497,
                    "duration": 0.125
                },
                {
                    "name": "F6",
                    "midi": 89,
                    "time": 170.9999999999995,
                    "velocity": 0.7874015748031497,
                    "duration": 0.125
                },
                {
                    "name": "D6",
                    "midi": 86,
                    "time": 171.1249999999995,
                    "velocity": 0.7874015748031497,
                    "duration": 0.125
                },
                {
                    "name": "B5",
                    "midi": 83,
                    "time": 171.2499999999995,
                    "velocity": 0.7874015748031497,
                    "duration": 0.125
                },
                {
                    "name": "G5",
                    "midi": 79,
                    "time": 171.3749999999995,
                    "velocity": 0.7874015748031497,
                    "duration": 0.125
                },
                {
                    "name": "F5",
                    "midi": 77,
                    "time": 171.4999999999995,
                    "velocity": 0.7874015748031497,
                    "duration": 0.125
                },
                {
                    "name": "E5",
                    "midi": 76,
                    "time": 171.6249999999995,
                    "velocity": 0.7874015748031497,
                    "duration": 0.125
                },
                {
                    "name": "D5",
                    "midi": 74,
                    "time": 171.7499999999995,
                    "velocity": 0.7874015748031497,
                    "duration": 0.125
                },
                {
                    "name": "C5",
                    "midi": 72,
                    "time": 171.8749999999995,
                    "velocity": 0.7874015748031497,
                    "duration": 0.125
                },
                {
                    "name": "F6",
                    "midi": 89,
                    "time": 171.9999999999995,
                    "velocity": 0.7874015748031497,
                    "duration": 0.6374999999999886
                },
                {
                    "name": "D6",
                    "midi": 86,
                    "time": 172.6249999999995,
                    "velocity": 0.7874015748031497,
                    "duration": 0.125
                },
                {
                    "name": "B5",
                    "midi": 83,
                    "time": 172.7499999999995,
                    "velocity": 0.7874015748031497,
                    "duration": 0.125
                },
                {
                    "name": "A5",
                    "midi": 81,
                    "time": 172.8749999999995,
                    "velocity": 0.7874015748031497,
                    "duration": 0.125
                },
                {
                    "name": "G#5",
                    "midi": 80,
                    "time": 172.9999999999995,
                    "velocity": 0.7874015748031497,
                    "duration": 0.125
                },
                {
                    "name": "E5",
                    "midi": 76,
                    "time": 173.1249999999995,
                    "velocity": 0.7874015748031497,
                    "duration": 0.125
                },
                {
                    "name": "D5",
                    "midi": 74,
                    "time": 173.2499999999995,
                    "velocity": 0.7874015748031497,
                    "duration": 0.125
                },
                {
                    "name": "B4",
                    "midi": 71,
                    "time": 173.3749999999995,
                    "velocity": 0.7874015748031497,
                    "duration": 0.125
                },
                {
                    "name": "C5",
                    "midi": 72,
                    "time": 173.4999999999995,
                    "velocity": 0.7874015748031497,
                    "duration": 0.125
                },
                {
                    "name": "E5",
                    "midi": 76,
                    "time": 173.6249999999995,
                    "velocity": 0.7874015748031497,
                    "duration": 0.125
                },
                {
                    "name": "A5",
                    "midi": 81,
                    "time": 173.7499999999995,
                    "velocity": 0.7874015748031497,
                    "duration": 0.125
                },
                {
                    "name": "G5",
                    "midi": 79,
                    "time": 173.8749999999995,
                    "velocity": 0.7874015748031497,
                    "duration": 0.125
                },
                {
                    "name": "F5",
                    "midi": 77,
                    "time": 173.9999999999995,
                    "velocity": 0.7874015748031497,
                    "duration": 0.125
                },
                {
                    "name": "D6",
                    "midi": 86,
                    "time": 174.1249999999995,
                    "velocity": 0.7874015748031497,
                    "duration": 0.125
                },
                {
                    "name": "B5",
                    "midi": 83,
                    "time": 174.2499999999995,
                    "velocity": 0.7874015748031497,
                    "duration": 0.125
                },
                {
                    "name": "A5",
                    "midi": 81,
                    "time": 174.3749999999995,
                    "velocity": 0.7874015748031497,
                    "duration": 0.125
                },
                {
                    "name": "G#5",
                    "midi": 80,
                    "time": 174.4999999999995,
                    "velocity": 0.7874015748031497,
                    "duration": 0.125
                },
                {
                    "name": "B6",
                    "midi": 95,
                    "time": 174.6249999999995,
                    "velocity": 0.7874015748031497,
                    "duration": 0.125
                },
                {
                    "name": "G#6",
                    "midi": 92,
                    "time": 174.7499999999995,
                    "velocity": 0.7874015748031497,
                    "duration": 0.125
                },
                {
                    "name": "E6",
                    "midi": 88,
                    "time": 174.8749999999995,
                    "velocity": 0.7874015748031497,
                    "duration": 0.125
                },
                {
                    "name": "A6",
                    "midi": 93,
                    "time": 174.9999999999995,
                    "velocity": 0.7874015748031497,
                    "duration": 0.5
                },
                {
                    "name": "A5",
                    "midi": 81,
                    "time": 175.4999999999995,
                    "velocity": 0.7874015748031497,
                    "duration": 0.25
                },
                {
                    "name": "E4",
                    "midi": 64,
                    "time": 175.9999999999995,
                    "velocity": 0.7874015748031497,
                    "duration": 0.125
                },
                {
                    "name": "C4",
                    "midi": 60,
                    "time": 175.9999999999995,
                    "velocity": 0.7874015748031497,
                    "duration": 0.125
                },
                {
                    "name": "E5",
                    "midi": 76,
                    "time": 176.1249999999995,
                    "velocity": 0.7874015748031497,
                    "duration": 0.125
                },
                {
                    "name": "A4",
                    "midi": 69,
                    "time": 176.1249999999995,
                    "velocity": 0.7874015748031497,
                    "duration": 0.125
                },
                {
                    "name": "E4",
                    "midi": 64,
                    "time": 176.2499999999995,
                    "velocity": 0.7874015748031497,
                    "duration": 0.125
                },
                {
                    "name": "C4",
                    "midi": 60,
                    "time": 176.2499999999995,
                    "velocity": 0.7874015748031497,
                    "duration": 0.125
                },
                {
                    "name": "E5",
                    "midi": 76,
                    "time": 176.3749999999995,
                    "velocity": 0.7874015748031497,
                    "duration": 0.125
                },
                {
                    "name": "A4",
                    "midi": 69,
                    "time": 176.3749999999995,
                    "velocity": 0.7874015748031497,
                    "duration": 0.125
                },
                {
                    "name": "G#4",
                    "midi": 68,
                    "time": 176.4999999999995,
                    "velocity": 0.7874015748031497,
                    "duration": 0.125
                },
                {
                    "name": "B3",
                    "midi": 59,
                    "time": 176.4999999999995,
                    "velocity": 0.7874015748031497,
                    "duration": 0.125
                },
                {
                    "name": "E5",
                    "midi": 76,
                    "time": 176.6249999999995,
                    "velocity": 0.7874015748031497,
                    "duration": 0.125
                },
                {
                    "name": "B4",
                    "midi": 71,
                    "time": 176.6249999999995,
                    "velocity": 0.7874015748031497,
                    "duration": 0.125
                },
                {
                    "name": "E4",
                    "midi": 64,
                    "time": 176.7499999999995,
                    "velocity": 0.7874015748031497,
                    "duration": 0.125
                },
                {
                    "name": "A3",
                    "midi": 57,
                    "time": 176.7499999999995,
                    "velocity": 0.7874015748031497,
                    "duration": 0.125
                },
                {
                    "name": "E5",
                    "midi": 76,
                    "time": 176.8749999999995,
                    "velocity": 0.7874015748031497,
                    "duration": 0.125
                },
                {
                    "name": "C5",
                    "midi": 72,
                    "time": 176.8749999999995,
                    "velocity": 0.7874015748031497,
                    "duration": 0.125
                },
                {
                    "name": "G#3",
                    "midi": 56,
                    "time": 176.9999999999995,
                    "velocity": 0.7874015748031497,
                    "duration": 0.0625
                },
                {
                    "name": "B3",
                    "midi": 59,
                    "time": 177.0624999999995,
                    "velocity": 0.7874015748031497,
                    "duration": 0.0625
                },
                {
                    "name": "E4",
                    "midi": 64,
                    "time": 177.1249999999995,
                    "velocity": 0.7874015748031497,
                    "duration": 0.0625
                },
                {
                    "name": "G#4",
                    "midi": 68,
                    "time": 177.1874999999995,
                    "velocity": 0.7874015748031497,
                    "duration": 0.0625
                },
                {
                    "name": "B4",
                    "midi": 71,
                    "time": 177.2499999999995,
                    "velocity": 0.7874015748031497,
                    "duration": 0.0625
                },
                {
                    "name": "E5",
                    "midi": 76,
                    "time": 177.3124999999995,
                    "velocity": 0.7874015748031497,
                    "duration": 0.0625
                },
                {
                    "name": "G#5",
                    "midi": 80,
                    "time": 177.3749999999995,
                    "velocity": 0.7874015748031497,
                    "duration": 0.0625
                },
                {
                    "name": "B5",
                    "midi": 83,
                    "time": 177.4374999999995,
                    "velocity": 0.7874015748031497,
                    "duration": 0.0625
                },
                {
                    "name": "E6",
                    "midi": 88,
                    "time": 177.4999999999995,
                    "velocity": 0.7874015748031497,
                    "duration": 0.125
                },
                {
                    "name": "G6",
                    "midi": 91,
                    "time": 177.6249999999995,
                    "velocity": 0.7874015748031497,
                    "duration": 0.125
                },
                {
                    "name": "B6",
                    "midi": 95,
                    "time": 177.7499999999995,
                    "velocity": 0.7874015748031497,
                    "duration": 0.125
                },
                {
                    "name": "E7",
                    "midi": 100,
                    "time": 177.8749999999995,
                    "velocity": 0.7874015748031497,
                    "duration": 0.1458333333333428
                },
                {
                    "name": "C4",
                    "midi": 60,
                    "time": 177.9999999999995,
                    "velocity": 0.7874015748031497,
                    "duration": 0.125
                },
                {
                    "name": "E4",
                    "midi": 64,
                    "time": 177.9999999999995,
                    "velocity": 0.7874015748031497,
                    "duration": 0.125
                },
                {
                    "name": "E5",
                    "midi": 76,
                    "time": 178.1249999999995,
                    "velocity": 0.7874015748031497,
                    "duration": 0.125
                },
                {
                    "name": "A4",
                    "midi": 69,
                    "time": 178.1249999999995,
                    "velocity": 0.7874015748031497,
                    "duration": 0.125
                },
                {
                    "name": "E4",
                    "midi": 64,
                    "time": 178.2499999999995,
                    "velocity": 0.7874015748031497,
                    "duration": 0.125
                },
                {
                    "name": "C4",
                    "midi": 60,
                    "time": 178.2499999999995,
                    "velocity": 0.7874015748031497,
                    "duration": 0.125
                },
                {
                    "name": "E5",
                    "midi": 76,
                    "time": 178.3749999999995,
                    "velocity": 0.7874015748031497,
                    "duration": 0.125
                },
                {
                    "name": "A4",
                    "midi": 69,
                    "time": 178.3749999999995,
                    "velocity": 0.7874015748031497,
                    "duration": 0.125
                },
                {
                    "name": "G#4",
                    "midi": 68,
                    "time": 178.4999999999995,
                    "velocity": 0.7874015748031497,
                    "duration": 0.125
                },
                {
                    "name": "B3",
                    "midi": 59,
                    "time": 178.4999999999995,
                    "velocity": 0.7874015748031497,
                    "duration": 0.125
                },
                {
                    "name": "B5",
                    "midi": 83,
                    "time": 178.6249999999995,
                    "velocity": 0.7874015748031497,
                    "duration": 0.125
                },
                {
                    "name": "E5",
                    "midi": 76,
                    "time": 178.6249999999995,
                    "velocity": 0.7874015748031497,
                    "duration": 0.125
                },
                {
                    "name": "E4",
                    "midi": 64,
                    "time": 178.7499999999995,
                    "velocity": 0.7874015748031497,
                    "duration": 0.125
                },
                {
                    "name": "A3",
                    "midi": 57,
                    "time": 178.7499999999995,
                    "velocity": 0.7874015748031497,
                    "duration": 0.125
                },
                {
                    "name": "A5",
                    "midi": 81,
                    "time": 178.8749999999995,
                    "velocity": 0.7874015748031497,
                    "duration": 0.125
                },
                {
                    "name": "C5",
                    "midi": 72,
                    "time": 178.8749999999995,
                    "velocity": 0.7874015748031497,
                    "duration": 0.125
                },
                {
                    "name": "G#3",
                    "midi": 56,
                    "time": 178.9999999999995,
                    "velocity": 0.7874015748031497,
                    "duration": 0.125
                },
                {
                    "name": "E4",
                    "midi": 64,
                    "time": 178.9999999999995,
                    "velocity": 0.7874015748031497,
                    "duration": 0.125
                },
                {
                    "name": "E6",
                    "midi": 88,
                    "time": 179.1249999999995,
                    "velocity": 0.7874015748031497,
                    "duration": 0.125
                },
                {
                    "name": "B5",
                    "midi": 83,
                    "time": 179.2499999999995,
                    "velocity": 0.7874015748031497,
                    "duration": 0.125
                },
                {
                    "name": "G#5",
                    "midi": 80,
                    "time": 179.3749999999995,
                    "velocity": 0.7874015748031497,
                    "duration": 0.125
                },
                {
                    "name": "E5",
                    "midi": 76,
                    "time": 179.4999999999995,
                    "velocity": 0.7874015748031497,
                    "duration": 0.125
                },
                {
                    "name": "B4",
                    "midi": 71,
                    "time": 179.6249999999995,
                    "velocity": 0.7874015748031497,
                    "duration": 0.125
                },
                {
                    "name": "G#4",
                    "midi": 68,
                    "time": 179.7499999999995,
                    "velocity": 0.7874015748031497,
                    "duration": 0.125
                },
                {
                    "name": "E4",
                    "midi": 64,
                    "time": 179.8749999999995,
                    "velocity": 0.7874015748031497,
                    "duration": 0.125
                },
                {
                    "name": "E4",
                    "midi": 64,
                    "time": 179.9999999999995,
                    "velocity": 0.7874015748031497,
                    "duration": 0.125
                },
                {
                    "name": "C4",
                    "midi": 60,
                    "time": 179.9999999999995,
                    "velocity": 0.7874015748031497,
                    "duration": 0.125
                },
                {
                    "name": "A4",
                    "midi": 69,
                    "time": 180.1249999999995,
                    "velocity": 0.7874015748031497,
                    "duration": 0.125
                },
                {
                    "name": "E5",
                    "midi": 76,
                    "time": 180.1249999999995,
                    "velocity": 0.7874015748031497,
                    "duration": 0.125
                },
                {
                    "name": "E4",
                    "midi": 64,
                    "time": 180.2499999999995,
                    "velocity": 0.7874015748031497,
                    "duration": 0.125
                },
                {
                    "name": "C4",
                    "midi": 60,
                    "time": 180.2499999999995,
                    "velocity": 0.7874015748031497,
                    "duration": 0.125
                },
                {
                    "name": "E5",
                    "midi": 76,
                    "time": 180.3749999999995,
                    "velocity": 0.7874015748031497,
                    "duration": 0.125
                },
                {
                    "name": "A4",
                    "midi": 69,
                    "time": 180.3749999999995,
                    "velocity": 0.7874015748031497,
                    "duration": 0.125
                },
                {
                    "name": "G#4",
                    "midi": 68,
                    "time": 180.4999999999995,
                    "velocity": 0.7874015748031497,
                    "duration": 0.125
                },
                {
                    "name": "B3",
                    "midi": 59,
                    "time": 180.4999999999995,
                    "velocity": 0.7874015748031497,
                    "duration": 0.125
                },
                {
                    "name": "E5",
                    "midi": 76,
                    "time": 180.6249999999995,
                    "velocity": 0.7874015748031497,
                    "duration": 0.125
                },
                {
                    "name": "B4",
                    "midi": 71,
                    "time": 180.6249999999995,
                    "velocity": 0.7874015748031497,
                    "duration": 0.125
                },
                {
                    "name": "E4",
                    "midi": 64,
                    "time": 180.7499999999995,
                    "velocity": 0.7874015748031497,
                    "duration": 0.125
                },
                {
                    "name": "A3",
                    "midi": 57,
                    "time": 180.7499999999995,
                    "velocity": 0.7874015748031497,
                    "duration": 0.125
                },
                {
                    "name": "E5",
                    "midi": 76,
                    "time": 180.8749999999995,
                    "velocity": 0.7874015748031497,
                    "duration": 0.125
                },
                {
                    "name": "C5",
                    "midi": 72,
                    "time": 180.8749999999995,
                    "velocity": 0.7874015748031497,
                    "duration": 0.125
                },
                {
                    "name": "G#3",
                    "midi": 56,
                    "time": 180.9999999999995,
                    "velocity": 0.7874015748031497,
                    "duration": 0.0625
                },
                {
                    "name": "B3",
                    "midi": 59,
                    "time": 181.0624999999995,
                    "velocity": 0.7874015748031497,
                    "duration": 0.0625
                },
                {
                    "name": "E4",
                    "midi": 64,
                    "time": 181.1249999999995,
                    "velocity": 0.7874015748031497,
                    "duration": 0.0625
                },
                {
                    "name": "G#4",
                    "midi": 68,
                    "time": 181.1874999999995,
                    "velocity": 0.7874015748031497,
                    "duration": 0.0625
                },
                {
                    "name": "B4",
                    "midi": 71,
                    "time": 181.2499999999995,
                    "velocity": 0.7874015748031497,
                    "duration": 0.0625
                },
                {
                    "name": "E5",
                    "midi": 76,
                    "time": 181.3124999999995,
                    "velocity": 0.7874015748031497,
                    "duration": 0.0625
                },
                {
                    "name": "G#5",
                    "midi": 80,
                    "time": 181.3749999999995,
                    "velocity": 0.7874015748031497,
                    "duration": 0.0625
                },
                {
                    "name": "B5",
                    "midi": 83,
                    "time": 181.4374999999995,
                    "velocity": 0.7874015748031497,
                    "duration": 0.0625
                },
                {
                    "name": "E6",
                    "midi": 88,
                    "time": 181.4999999999995,
                    "velocity": 0.7874015748031497,
                    "duration": 0.125
                },
                {
                    "name": "G6",
                    "midi": 91,
                    "time": 181.6249999999995,
                    "velocity": 0.7874015748031497,
                    "duration": 0.125
                },
                {
                    "name": "B6",
                    "midi": 95,
                    "time": 181.7499999999995,
                    "velocity": 0.7874015748031497,
                    "duration": 0.125
                },
                {
                    "name": "E7",
                    "midi": 100,
                    "time": 181.8749999999995,
                    "velocity": 0.7874015748031497,
                    "duration": 0.1458333333333428
                },
                {
                    "name": "E4",
                    "midi": 64,
                    "time": 181.9999999999995,
                    "velocity": 0.7874015748031497,
                    "duration": 0.125
                },
                {
                    "name": "C4",
                    "midi": 60,
                    "time": 181.9999999999995,
                    "velocity": 0.7874015748031497,
                    "duration": 0.125
                },
                {
                    "name": "E5",
                    "midi": 76,
                    "time": 182.1249999999995,
                    "velocity": 0.7874015748031497,
                    "duration": 0.125
                },
                {
                    "name": "A4",
                    "midi": 69,
                    "time": 182.1249999999995,
                    "velocity": 0.7874015748031497,
                    "duration": 0.125
                },
                {
                    "name": "E4",
                    "midi": 64,
                    "time": 182.2499999999995,
                    "velocity": 0.7874015748031497,
                    "duration": 0.125
                },
                {
                    "name": "C4",
                    "midi": 60,
                    "time": 182.2499999999995,
                    "velocity": 0.7874015748031497,
                    "duration": 0.125
                },
                {
                    "name": "E5",
                    "midi": 76,
                    "time": 182.3749999999995,
                    "velocity": 0.7874015748031497,
                    "duration": 0.125
                },
                {
                    "name": "A4",
                    "midi": 69,
                    "time": 182.3749999999995,
                    "velocity": 0.7874015748031497,
                    "duration": 0.125
                },
                {
                    "name": "G#4",
                    "midi": 68,
                    "time": 182.4999999999995,
                    "velocity": 0.7874015748031497,
                    "duration": 0.125
                },
                {
                    "name": "B3",
                    "midi": 59,
                    "time": 182.4999999999995,
                    "velocity": 0.7874015748031497,
                    "duration": 0.125
                },
                {
                    "name": "B5",
                    "midi": 83,
                    "time": 182.6249999999995,
                    "velocity": 0.7874015748031497,
                    "duration": 0.125
                },
                {
                    "name": "E5",
                    "midi": 76,
                    "time": 182.6249999999995,
                    "velocity": 0.7874015748031497,
                    "duration": 0.125
                },
                {
                    "name": "E4",
                    "midi": 64,
                    "time": 182.7499999999995,
                    "velocity": 0.7874015748031497,
                    "duration": 0.125
                },
                {
                    "name": "A3",
                    "midi": 57,
                    "time": 182.7499999999995,
                    "velocity": 0.7874015748031497,
                    "duration": 0.125
                },
                {
                    "name": "A5",
                    "midi": 81,
                    "time": 182.8749999999995,
                    "velocity": 0.7874015748031497,
                    "duration": 0.125
                },
                {
                    "name": "C5",
                    "midi": 72,
                    "time": 182.8749999999995,
                    "velocity": 0.7874015748031497,
                    "duration": 0.125
                },
                {
                    "name": "G#3",
                    "midi": 56,
                    "time": 182.9999999999995,
                    "velocity": 0.7874015748031497,
                    "duration": 0.125
                },
                {
                    "name": "E4",
                    "midi": 64,
                    "time": 182.9999999999995,
                    "velocity": 0.7874015748031497,
                    "duration": 0.125
                },
                {
                    "name": "E6",
                    "midi": 88,
                    "time": 183.1249999999995,
                    "velocity": 0.7874015748031497,
                    "duration": 0.125
                },
                {
                    "name": "B5",
                    "midi": 83,
                    "time": 183.2499999999995,
                    "velocity": 0.7874015748031497,
                    "duration": 0.125
                },
                {
                    "name": "G#5",
                    "midi": 80,
                    "time": 183.3749999999995,
                    "velocity": 0.7874015748031497,
                    "duration": 0.125
                },
                {
                    "name": "E5",
                    "midi": 76,
                    "time": 183.4999999999995,
                    "velocity": 0.7874015748031497,
                    "duration": 0.125
                },
                {
                    "name": "B4",
                    "midi": 71,
                    "time": 183.6249999999995,
                    "velocity": 0.7874015748031497,
                    "duration": 0.125
                },
                {
                    "name": "G#4",
                    "midi": 68,
                    "time": 183.7499999999995,
                    "velocity": 0.7874015748031497,
                    "duration": 0.125
                },
                {
                    "name": "E4",
                    "midi": 64,
                    "time": 183.8749999999995,
                    "velocity": 0.7874015748031497,
                    "duration": 0.1458333333333428
                },
                {
                    "name": "C#4",
                    "midi": 61,
                    "time": 183.9999999999995,
                    "velocity": 0.7874015748031497,
                    "duration": 0.1458333333333428
                },
                {
                    "name": "A4",
                    "midi": 69,
                    "time": 183.9999999999995,
                    "velocity": 0.7874015748031497,
                    "duration": 0.1458333333333428
                },
                {
                    "name": "C#6",
                    "midi": 85,
                    "time": 184.1249999999995,
                    "velocity": 0.7874015748031497,
                    "duration": 0.1458333333333428
                },
                {
                    "name": "E5",
                    "midi": 76,
                    "time": 184.1249999999995,
                    "velocity": 0.7874015748031497,
                    "duration": 0.1458333333333428
                },
                {
                    "name": "A4",
                    "midi": 69,
                    "time": 184.2499999999995,
                    "velocity": 0.7874015748031497,
                    "duration": 0.1458333333333428
                },
                {
                    "name": "C4",
                    "midi": 60,
                    "time": 184.2499999999995,
                    "velocity": 0.7874015748031497,
                    "duration": 0.1458333333333428
                },
                {
                    "name": "C6",
                    "midi": 84,
                    "time": 184.3749999999995,
                    "velocity": 0.7874015748031497,
                    "duration": 0.1458333333333428
                },
                {
                    "name": "E5",
                    "midi": 76,
                    "time": 184.3749999999995,
                    "velocity": 0.7874015748031497,
                    "duration": 0.1458333333333428
                },
                {
                    "name": "A4",
                    "midi": 69,
                    "time": 184.4999999999995,
                    "velocity": 0.7874015748031497,
                    "duration": 0.1458333333333428
                },
                {
                    "name": "D4",
                    "midi": 62,
                    "time": 184.4999999999995,
                    "velocity": 0.7874015748031497,
                    "duration": 0.1458333333333428
                },
                {
                    "name": "D6",
                    "midi": 86,
                    "time": 184.6249999999995,
                    "velocity": 0.7874015748031497,
                    "duration": 0.1458333333333428
                },
                {
                    "name": "F5",
                    "midi": 77,
                    "time": 184.6249999999995,
                    "velocity": 0.7874015748031497,
                    "duration": 0.1458333333333428
                },
                {
                    "name": "E4",
                    "midi": 64,
                    "time": 184.7499999999995,
                    "velocity": 0.7874015748031497,
                    "duration": 0.1458333333333428
                },
                {
                    "name": "C#5",
                    "midi": 73,
                    "time": 184.7499999999995,
                    "velocity": 0.7874015748031497,
                    "duration": 0.1458333333333428
                },
                {
                    "name": "E6",
                    "midi": 88,
                    "time": 184.8749999999995,
                    "velocity": 0.7874015748031497,
                    "duration": 0.1458333333333428
                },
                {
                    "name": "A5",
                    "midi": 81,
                    "time": 184.8749999999995,
                    "velocity": 0.7874015748031497,
                    "duration": 0.1458333333333428
                },
                {
                    "name": "F4",
                    "midi": 65,
                    "time": 184.9999999999995,
                    "velocity": 0.7874015748031497,
                    "duration": 0.0625
                },
                {
                    "name": "D4",
                    "midi": 62,
                    "time": 185.0624999999995,
                    "velocity": 0.7874015748031497,
                    "duration": 0.0625
                },
                {
                    "name": "F4",
                    "midi": 65,
                    "time": 185.1249999999995,
                    "velocity": 0.7874015748031497,
                    "duration": 0.0625
                },
                {
                    "name": "A4",
                    "midi": 69,
                    "time": 185.1874999999995,
                    "velocity": 0.7874015748031497,
                    "duration": 0.0625
                },
                {
                    "name": "D5",
                    "midi": 74,
                    "time": 185.2499999999995,
                    "velocity": 0.7874015748031497,
                    "duration": 0.0625
                },
                {
                    "name": "F5",
                    "midi": 77,
                    "time": 185.3124999999995,
                    "velocity": 0.7874015748031497,
                    "duration": 0.0625
                },
                {
                    "name": "A5",
                    "midi": 81,
                    "time": 185.3749999999995,
                    "velocity": 0.7874015748031497,
                    "duration": 0.11250000000001137
                },
                {
                    "name": "D6",
                    "midi": 86,
                    "time": 185.4999999999995,
                    "velocity": 0.7874015748031497,
                    "duration": 0.125
                },
                {
                    "name": "F6",
                    "midi": 89,
                    "time": 185.6249999999995,
                    "velocity": 0.7874015748031497,
                    "duration": 0.125
                },
                {
                    "name": "A6",
                    "midi": 93,
                    "time": 185.7499999999995,
                    "velocity": 0.7874015748031497,
                    "duration": 0.125
                },
                {
                    "name": "D7",
                    "midi": 98,
                    "time": 185.8749999999995,
                    "velocity": 0.7874015748031497,
                    "duration": 0.125
                },
                {
                    "name": "G4",
                    "midi": 67,
                    "time": 185.9999999999995,
                    "velocity": 0.7874015748031497,
                    "duration": 0.11250000000001137
                },
                {
                    "name": "B3",
                    "midi": 59,
                    "time": 185.9999999999995,
                    "velocity": 0.7874015748031497,
                    "duration": 0.11250000000001137
                },
                {
                    "name": "B5",
                    "midi": 83,
                    "time": 186.1249999999995,
                    "velocity": 0.7874015748031497,
                    "duration": 0.11250000000001137
                },
                {
                    "name": "D5",
                    "midi": 74,
                    "time": 186.1249999999995,
                    "velocity": 0.7874015748031497,
                    "duration": 0.11250000000001137
                },
                {
                    "name": "G4",
                    "midi": 67,
                    "time": 186.2499999999995,
                    "velocity": 0.7874015748031497,
                    "duration": 0.11250000000001137
                },
                {
                    "name": "B3",
                    "midi": 59,
                    "time": 186.2499999999995,
                    "velocity": 0.7874015748031497,
                    "duration": 0.11250000000001137
                },
                {
                    "name": "B5",
                    "midi": 83,
                    "time": 186.3749999999995,
                    "velocity": 0.7874015748031497,
                    "duration": 0.11250000000001137
                },
                {
                    "name": "D5",
                    "midi": 74,
                    "time": 186.3749999999995,
                    "velocity": 0.7874015748031497,
                    "duration": 0.11250000000001137
                },
                {
                    "name": "G4",
                    "midi": 67,
                    "time": 186.4999999999995,
                    "velocity": 0.7874015748031497,
                    "duration": 0.11250000000001137
                },
                {
                    "name": "C4",
                    "midi": 60,
                    "time": 186.4999999999995,
                    "velocity": 0.7874015748031497,
                    "duration": 0.11250000000001137
                },
                {
                    "name": "C6",
                    "midi": 84,
                    "time": 186.6249999999995,
                    "velocity": 0.7874015748031497,
                    "duration": 0.11250000000001137
                },
                {
                    "name": "E5",
                    "midi": 76,
                    "time": 186.6249999999995,
                    "velocity": 0.7874015748031497,
                    "duration": 0.11250000000001137
                },
                {
                    "name": "D4",
                    "midi": 62,
                    "time": 186.7499999999995,
                    "velocity": 0.7874015748031497,
                    "duration": 0.11250000000001137
                },
                {
                    "name": "B4",
                    "midi": 71,
                    "time": 186.7499999999995,
                    "velocity": 0.7874015748031497,
                    "duration": 0.11250000000001137
                },
                {
                    "name": "D6",
                    "midi": 86,
                    "time": 186.8749999999995,
                    "velocity": 0.7874015748031497,
                    "duration": 0.11250000000001137
                },
                {
                    "name": "G5",
                    "midi": 79,
                    "time": 186.8749999999995,
                    "velocity": 0.7874015748031497,
                    "duration": 0.11250000000001137
                },
                {
                    "name": "E4",
                    "midi": 64,
                    "time": 186.9999999999995,
                    "velocity": 0.7874015748031497,
                    "duration": 0.0625
                },
                {
                    "name": "C4",
                    "midi": 60,
                    "time": 187.0624999999995,
                    "velocity": 0.7874015748031497,
                    "duration": 0.0625
                },
                {
                    "name": "E4",
                    "midi": 64,
                    "time": 187.1249999999995,
                    "velocity": 0.7874015748031497,
                    "duration": 0.0625
                },
                {
                    "name": "G4",
                    "midi": 67,
                    "time": 187.1874999999995,
                    "velocity": 0.7874015748031497,
                    "duration": 0.0625
                },
                {
                    "name": "C5",
                    "midi": 72,
                    "time": 187.2499999999995,
                    "velocity": 0.7874015748031497,
                    "duration": 0.0625
                },
                {
                    "name": "E5",
                    "midi": 76,
                    "time": 187.3124999999995,
                    "velocity": 0.7874015748031497,
                    "duration": 0.0625
                },
                {
                    "name": "G5",
                    "midi": 79,
                    "time": 187.3749999999995,
                    "velocity": 0.7874015748031497,
                    "duration": 0.10416666666665719
                },
                {
                    "name": "C6",
                    "midi": 84,
                    "time": 187.4999999999995,
                    "velocity": 0.7874015748031497,
                    "duration": 0.125
                },
                {
                    "name": "E6",
                    "midi": 88,
                    "time": 187.6249999999995,
                    "velocity": 0.7874015748031497,
                    "duration": 0.125
                },
                {
                    "name": "G6",
                    "midi": 91,
                    "time": 187.7499999999995,
                    "velocity": 0.7874015748031497,
                    "duration": 0.125
                },
                {
                    "name": "C7",
                    "midi": 96,
                    "time": 187.8749999999995,
                    "velocity": 0.7874015748031497,
                    "duration": 0.125
                },
                {
                    "name": "B4",
                    "midi": 71,
                    "time": 187.9999999999995,
                    "velocity": 0.7874015748031497,
                    "duration": 0.125
                },
                {
                    "name": "D4",
                    "midi": 62,
                    "time": 187.9999999999995,
                    "velocity": 0.7874015748031497,
                    "duration": 0.125
                },
                {
                    "name": "D6",
                    "midi": 86,
                    "time": 188.1249999999995,
                    "velocity": 0.7874015748031497,
                    "duration": 0.125
                },
                {
                    "name": "F5",
                    "midi": 77,
                    "time": 188.1249999999995,
                    "velocity": 0.7874015748031497,
                    "duration": 0.125
                },
                {
                    "name": "B4",
                    "midi": 71,
                    "time": 188.2499999999995,
                    "velocity": 0.7874015748031497,
                    "duration": 0.125
                },
                {
                    "name": "D4",
                    "midi": 62,
                    "time": 188.2499999999995,
                    "velocity": 0.7874015748031497,
                    "duration": 0.125
                },
                {
                    "name": "D6",
                    "midi": 86,
                    "time": 188.3749999999995,
                    "velocity": 0.7874015748031497,
                    "duration": 0.125
                },
                {
                    "name": "F5",
                    "midi": 77,
                    "time": 188.3749999999995,
                    "velocity": 0.7874015748031497,
                    "duration": 0.125
                },
                {
                    "name": "A4",
                    "midi": 69,
                    "time": 188.4999999999995,
                    "velocity": 0.7874015748031497,
                    "duration": 0.125
                },
                {
                    "name": "C4",
                    "midi": 60,
                    "time": 188.4999999999995,
                    "velocity": 0.7874015748031497,
                    "duration": 0.125
                },
                {
                    "name": "E5",
                    "midi": 76,
                    "time": 188.6249999999995,
                    "velocity": 0.7874015748031497,
                    "duration": 0.125
                },
                {
                    "name": "C6",
                    "midi": 84,
                    "time": 188.6249999999995,
                    "velocity": 0.7874015748031497,
                    "duration": 0.125
                },
                {
                    "name": "G#4",
                    "midi": 68,
                    "time": 188.7499999999995,
                    "velocity": 0.7874015748031497,
                    "duration": 0.125
                },
                {
                    "name": "B3",
                    "midi": 59,
                    "time": 188.7499999999995,
                    "velocity": 0.7874015748031497,
                    "duration": 0.125
                },
                {
                    "name": "B5",
                    "midi": 83,
                    "time": 188.8749999999995,
                    "velocity": 0.7874015748031497,
                    "duration": 0.125
                },
                {
                    "name": "E5",
                    "midi": 76,
                    "time": 188.8749999999995,
                    "velocity": 0.7874015748031497,
                    "duration": 0.125
                },
                {
                    "name": "E4",
                    "midi": 64,
                    "time": 188.9999999999995,
                    "velocity": 0.7874015748031497,
                    "duration": 0.125
                },
                {
                    "name": "A3",
                    "midi": 57,
                    "time": 188.9999999999995,
                    "velocity": 0.7874015748031497,
                    "duration": 0.125
                },
                {
                    "name": "A5",
                    "midi": 81,
                    "time": 189.1249999999995,
                    "velocity": 0.7874015748031497,
                    "duration": 0.125
                },
                {
                    "name": "C5",
                    "midi": 72,
                    "time": 189.1249999999995,
                    "velocity": 0.7874015748031497,
                    "duration": 0.125
                },
                {
                    "name": "G#4",
                    "midi": 68,
                    "time": 189.2499999999995,
                    "velocity": 0.7874015748031497,
                    "duration": 0.125
                },
                {
                    "name": "B3",
                    "midi": 59,
                    "time": 189.2499999999995,
                    "velocity": 0.7874015748031497,
                    "duration": 0.125
                },
                {
                    "name": "B5",
                    "midi": 83,
                    "time": 189.3749999999995,
                    "velocity": 0.7874015748031497,
                    "duration": 0.125
                },
                {
                    "name": "E5",
                    "midi": 76,
                    "time": 189.3749999999995,
                    "velocity": 0.7874015748031497,
                    "duration": 0.125
                },
                {
                    "name": "A4",
                    "midi": 69,
                    "time": 189.4999999999995,
                    "velocity": 0.7874015748031497,
                    "duration": 0.125
                },
                {
                    "name": "C4",
                    "midi": 60,
                    "time": 189.4999999999995,
                    "velocity": 0.7874015748031497,
                    "duration": 0.125
                },
                {
                    "name": "C6",
                    "midi": 84,
                    "time": 189.6249999999995,
                    "velocity": 0.7874015748031497,
                    "duration": 0.125
                },
                {
                    "name": "E5",
                    "midi": 76,
                    "time": 189.6249999999995,
                    "velocity": 0.7874015748031497,
                    "duration": 0.125
                },
                {
                    "name": "C5",
                    "midi": 72,
                    "time": 189.7499999999995,
                    "velocity": 0.7874015748031497,
                    "duration": 0.125
                },
                {
                    "name": "D#4",
                    "midi": 63,
                    "time": 189.7499999999995,
                    "velocity": 0.7874015748031497,
                    "duration": 0.125
                },
                {
                    "name": "F#6",
                    "midi": 90,
                    "time": 189.8749999999995,
                    "velocity": 0.7874015748031497,
                    "duration": 0.125
                },
                {
                    "name": "A5",
                    "midi": 81,
                    "time": 189.8749999999995,
                    "velocity": 0.7874015748031497,
                    "duration": 0.125
                },
                {
                    "name": "E4",
                    "midi": 64,
                    "time": 189.9999999999995,
                    "velocity": 0.7874015748031497,
                    "duration": 0.08333333333334281
                },
                {
                    "name": "A4",
                    "midi": 69,
                    "time": 190.08333333333283,
                    "velocity": 0.7874015748031497,
                    "duration": 0.08333333333334281
                },
                {
                    "name": "C5",
                    "midi": 72,
                    "time": 190.16666666666617,
                    "velocity": 0.7874015748031497,
                    "duration": 0.08333333333334281
                },
                {
                    "name": "E5",
                    "midi": 76,
                    "time": 190.24999999999952,
                    "velocity": 0.7874015748031497,
                    "duration": 0.08333333333334281
                },
                {
                    "name": "A5",
                    "midi": 81,
                    "time": 190.33333333333286,
                    "velocity": 0.7874015748031497,
                    "duration": 0.08333333333334281
                },
                {
                    "name": "C6",
                    "midi": 84,
                    "time": 190.4166666666662,
                    "velocity": 0.7874015748031497,
                    "duration": 0.08333333333334281
                },
                {
                    "name": "E4",
                    "midi": 64,
                    "time": 190.49999999999955,
                    "velocity": 0.7874015748031497,
                    "duration": 0.08333333333334281
                },
                {
                    "name": "G#4",
                    "midi": 68,
                    "time": 190.5833333333329,
                    "velocity": 0.7874015748031497,
                    "duration": 0.08333333333334281
                },
                {
                    "name": "B4",
                    "midi": 71,
                    "time": 190.66666666666623,
                    "velocity": 0.7874015748031497,
                    "duration": 0.08333333333334281
                },
                {
                    "name": "E5",
                    "midi": 76,
                    "time": 190.74999999999957,
                    "velocity": 0.7874015748031497,
                    "duration": 0.08333333333334281
                },
                {
                    "name": "G#5",
                    "midi": 80,
                    "time": 190.83333333333292,
                    "velocity": 0.7874015748031497,
                    "duration": 0.08333333333334281
                },
                {
                    "name": "B5",
                    "midi": 83,
                    "time": 190.91666666666626,
                    "velocity": 0.7874015748031497,
                    "duration": 0.08333333333334281
                },
                {
                    "name": "A3",
                    "midi": 57,
                    "time": 190.9999999999996,
                    "velocity": 0.7874015748031497,
                    "duration": 0.08333333333334281
                },
                {
                    "name": "C4",
                    "midi": 60,
                    "time": 191.08333333333294,
                    "velocity": 0.7874015748031497,
                    "duration": 0.08333333333334281
                },
                {
                    "name": "E4",
                    "midi": 64,
                    "time": 191.1666666666663,
                    "velocity": 0.7874015748031497,
                    "duration": 0.08333333333334281
                },
                {
                    "name": "A4",
                    "midi": 69,
                    "time": 191.24999999999963,
                    "velocity": 0.7874015748031497,
                    "duration": 0.08333333333334281
                },
                {
                    "name": "C5",
                    "midi": 72,
                    "time": 191.33333333333297,
                    "velocity": 0.7874015748031497,
                    "duration": 0.08333333333334281
                },
                {
                    "name": "E5",
                    "midi": 76,
                    "time": 191.41666666666632,
                    "velocity": 0.7874015748031497,
                    "duration": 0.08333333333334281
                },
                {
                    "name": "A5",
                    "midi": 81,
                    "time": 191.49999999999966,
                    "velocity": 0.7874015748031497,
                    "duration": 0.08333333333334281
                },
                {
                    "name": "E5",
                    "midi": 76,
                    "time": 191.583333333333,
                    "velocity": 0.7874015748031497,
                    "duration": 0.08333333333334281
                },
                {
                    "name": "C5",
                    "midi": 72,
                    "time": 191.66666666666634,
                    "velocity": 0.7874015748031497,
                    "duration": 0.08333333333334281
                },
                {
                    "name": "A4",
                    "midi": 69,
                    "time": 191.7499999999997,
                    "velocity": 0.7874015748031497,
                    "duration": 0.08333333333334281
                },
                {
                    "name": "E4",
                    "midi": 64,
                    "time": 191.83333333333303,
                    "velocity": 0.7874015748031497,
                    "duration": 0.08333333333334281
                },
                {
                    "name": "C4",
                    "midi": 60,
                    "time": 191.91666666666637,
                    "velocity": 0.7874015748031497,
                    "duration": 0.08333333333334281
                },
                {
                    "name": "A3",
                    "midi": 57,
                    "time": 191.99999999999972,
                    "velocity": 0.7874015748031497,
                    "duration": 0.08333333333334281
                },
                {
                    "name": "C#4",
                    "midi": 61,
                    "time": 192.08333333333306,
                    "velocity": 0.7874015748031497,
                    "duration": 0.08333333333334281
                },
                {
                    "name": "E4",
                    "midi": 64,
                    "time": 192.1666666666664,
                    "velocity": 0.7874015748031497,
                    "duration": 0.08333333333334281
                },
                {
                    "name": "A4",
                    "midi": 69,
                    "time": 192.24999999999974,
                    "velocity": 0.7874015748031497,
                    "duration": 0.08333333333334281
                },
                {
                    "name": "C#5",
                    "midi": 73,
                    "time": 192.3333333333331,
                    "velocity": 0.7874015748031497,
                    "duration": 0.08333333333334281
                },
                {
                    "name": "E5",
                    "midi": 76,
                    "time": 192.41666666666643,
                    "velocity": 0.7874015748031497,
                    "duration": 0.08333333333334281
                },
                {
                    "name": "A5",
                    "midi": 81,
                    "time": 192.49999999999977,
                    "velocity": 0.7874015748031497,
                    "duration": 0.08333333333334281
                },
                {
                    "name": "E5",
                    "midi": 76,
                    "time": 192.58333333333312,
                    "velocity": 0.7874015748031497,
                    "duration": 0.08333333333334281
                },
                {
                    "name": "C5",
                    "midi": 72,
                    "time": 192.66666666666646,
                    "velocity": 0.7874015748031497,
                    "duration": 0.08333333333334281
                },
                {
                    "name": "A4",
                    "midi": 69,
                    "time": 192.7499999999998,
                    "velocity": 0.7874015748031497,
                    "duration": 0.08333333333334281
                },
                {
                    "name": "E4",
                    "midi": 64,
                    "time": 192.83333333333314,
                    "velocity": 0.7874015748031497,
                    "duration": 0.08333333333334281
                },
                {
                    "name": "C4",
                    "midi": 60,
                    "time": 192.9166666666665,
                    "velocity": 0.7874015748031497,
                    "duration": 0.08333333333334281
                },
                {
                    "name": "D4",
                    "midi": 62,
                    "time": 192.99999999999983,
                    "velocity": 0.7874015748031497,
                    "duration": 0.08333333333334281
                },
                {
                    "name": "F4",
                    "midi": 65,
                    "time": 193.08333333333317,
                    "velocity": 0.7874015748031497,
                    "duration": 0.08333333333334281
                },
                {
                    "name": "A4",
                    "midi": 69,
                    "time": 193.16666666666652,
                    "velocity": 0.7874015748031497,
                    "duration": 0.08333333333334281
                },
                {
                    "name": "D5",
                    "midi": 74,
                    "time": 193.24999999999986,
                    "velocity": 0.7874015748031497,
                    "duration": 0.08333333333334281
                },
                {
                    "name": "F5",
                    "midi": 77,
                    "time": 193.3333333333332,
                    "velocity": 0.7874015748031497,
                    "duration": 0.08333333333334281
                },
                {
                    "name": "A5",
                    "midi": 81,
                    "time": 193.41666666666654,
                    "velocity": 0.7874015748031497,
                    "duration": 0.08333333333334281
                },
                {
                    "name": "D6",
                    "midi": 86,
                    "time": 193.4999999999999,
                    "velocity": 0.7874015748031497,
                    "duration": 0.125
                },
                {
                    "name": "F6",
                    "midi": 89,
                    "time": 193.6249999999999,
                    "velocity": 0.7874015748031497,
                    "duration": 0.125
                },
                {
                    "name": "A6",
                    "midi": 93,
                    "time": 193.7499999999999,
                    "velocity": 0.7874015748031497,
                    "duration": 0.125
                },
                {
                    "name": "D7",
                    "midi": 98,
                    "time": 193.8749999999999,
                    "velocity": 0.7874015748031497,
                    "duration": 0.125
                },
                {
                    "name": "G#3",
                    "midi": 56,
                    "time": 193.9999999999999,
                    "velocity": 0.7874015748031497,
                    "duration": 0.125
                },
                {
                    "name": "F4",
                    "midi": 65,
                    "time": 193.9999999999999,
                    "velocity": 0.7874015748031497,
                    "duration": 0.125
                },
                {
                    "name": "D5",
                    "midi": 74,
                    "time": 194.1249999999999,
                    "velocity": 0.7874015748031497,
                    "duration": 0.125
                },
                {
                    "name": "B4",
                    "midi": 71,
                    "time": 194.1249999999999,
                    "velocity": 0.7874015748031497,
                    "duration": 0.125
                },
                {
                    "name": "G#4",
                    "midi": 68,
                    "time": 194.2499999999999,
                    "velocity": 0.7874015748031497,
                    "duration": 0.125
                },
                {
                    "name": "B3",
                    "midi": 59,
                    "time": 194.2499999999999,
                    "velocity": 0.7874015748031497,
                    "duration": 0.125
                },
                {
                    "name": "F5",
                    "midi": 77,
                    "time": 194.3749999999999,
                    "velocity": 0.7874015748031497,
                    "duration": 0.125
                },
                {
                    "name": "D5",
                    "midi": 74,
                    "time": 194.3749999999999,
                    "velocity": 0.7874015748031497,
                    "duration": 0.125
                },
                {
                    "name": "B4",
                    "midi": 71,
                    "time": 194.4999999999999,
                    "velocity": 0.7874015748031497,
                    "duration": 0.125
                },
                {
                    "name": "D4",
                    "midi": 62,
                    "time": 194.4999999999999,
                    "velocity": 0.7874015748031497,
                    "duration": 0.125
                },
                {
                    "name": "G#5",
                    "midi": 80,
                    "time": 194.6249999999999,
                    "velocity": 0.7874015748031497,
                    "duration": 0.125
                },
                {
                    "name": "F5",
                    "midi": 77,
                    "time": 194.6249999999999,
                    "velocity": 0.7874015748031497,
                    "duration": 0.125
                },
                {
                    "name": "F4",
                    "midi": 65,
                    "time": 194.7499999999999,
                    "velocity": 0.7874015748031497,
                    "duration": 0.125
                },
                {
                    "name": "G#3",
                    "midi": 56,
                    "time": 194.7499999999999,
                    "velocity": 0.7874015748031497,
                    "duration": 0.125
                },
                {
                    "name": "D5",
                    "midi": 74,
                    "time": 194.8749999999999,
                    "velocity": 0.7874015748031497,
                    "duration": 0.125
                },
                {
                    "name": "B4",
                    "midi": 71,
                    "time": 194.8749999999999,
                    "velocity": 0.7874015748031497,
                    "duration": 0.125
                },
                {
                    "name": "A3",
                    "midi": 57,
                    "time": 194.9999999999999,
                    "velocity": 0.7874015748031497,
                    "duration": 0.08333333333334281
                },
                {
                    "name": "C4",
                    "midi": 60,
                    "time": 195.08333333333323,
                    "velocity": 0.7874015748031497,
                    "duration": 0.08333333333334281
                },
                {
                    "name": "E4",
                    "midi": 64,
                    "time": 195.16666666666657,
                    "velocity": 0.7874015748031497,
                    "duration": 0.08333333333334281
                },
                {
                    "name": "A4",
                    "midi": 69,
                    "time": 195.24999999999991,
                    "velocity": 0.7874015748031497,
                    "duration": 0.08333333333334281
                },
                {
                    "name": "C5",
                    "midi": 72,
                    "time": 195.33333333333326,
                    "velocity": 0.7874015748031497,
                    "duration": 0.08333333333334281
                },
                {
                    "name": "E5",
                    "midi": 76,
                    "time": 195.4166666666666,
                    "velocity": 0.7874015748031497,
                    "duration": 0.08333333333334281
                },
                {
                    "name": "A5",
                    "midi": 81,
                    "time": 195.49999999999994,
                    "velocity": 0.7874015748031497,
                    "duration": 0.08333333333334281
                },
                {
                    "name": "E5",
                    "midi": 76,
                    "time": 195.5833333333333,
                    "velocity": 0.7874015748031497,
                    "duration": 0.08333333333334281
                },
                {
                    "name": "C5",
                    "midi": 72,
                    "time": 195.66666666666663,
                    "velocity": 0.7874015748031497,
                    "duration": 0.08333333333334281
                },
                {
                    "name": "A4",
                    "midi": 69,
                    "time": 195.74999999999997,
                    "velocity": 0.7874015748031497,
                    "duration": 0.08333333333334281
                },
                {
                    "name": "E4",
                    "midi": 64,
                    "time": 195.83333333333331,
                    "velocity": 0.7874015748031497,
                    "duration": 0.08333333333334281
                },
                {
                    "name": "C4",
                    "midi": 60,
                    "time": 195.91666666666666,
                    "velocity": 0.7874015748031497,
                    "duration": 0.08333333333334281
                },
                {
                    "name": "A3",
                    "midi": 57,
                    "time": 196,
                    "velocity": 0.7874015748031497,
                    "duration": 0.08333333333334281
                },
                {
                    "name": "C#4",
                    "midi": 61,
                    "time": 196.08333333333334,
                    "velocity": 0.7874015748031497,
                    "duration": 0.08333333333334281
                },
                {
                    "name": "E4",
                    "midi": 64,
                    "time": 196.16666666666669,
                    "velocity": 0.7874015748031497,
                    "duration": 0.08333333333334281
                },
                {
                    "name": "A4",
                    "midi": 69,
                    "time": 196.25000000000003,
                    "velocity": 0.7874015748031497,
                    "duration": 0.08333333333334281
                },
                {
                    "name": "C#5",
                    "midi": 73,
                    "time": 196.33333333333337,
                    "velocity": 0.7874015748031497,
                    "duration": 0.08333333333334281
                },
                {
                    "name": "E5",
                    "midi": 76,
                    "time": 196.4166666666667,
                    "velocity": 0.7874015748031497,
                    "duration": 0.08333333333334281
                },
                {
                    "name": "A5",
                    "midi": 81,
                    "time": 196.50000000000006,
                    "velocity": 0.7874015748031497,
                    "duration": 0.08333333333334281
                },
                {
                    "name": "E5",
                    "midi": 76,
                    "time": 196.5833333333334,
                    "velocity": 0.7874015748031497,
                    "duration": 0.08333333333334281
                },
                {
                    "name": "C5",
                    "midi": 72,
                    "time": 196.66666666666674,
                    "velocity": 0.7874015748031497,
                    "duration": 0.08333333333334281
                },
                {
                    "name": "A4",
                    "midi": 69,
                    "time": 196.75000000000009,
                    "velocity": 0.7874015748031497,
                    "duration": 0.08333333333334281
                },
                {
                    "name": "E4",
                    "midi": 64,
                    "time": 196.83333333333343,
                    "velocity": 0.7874015748031497,
                    "duration": 0.08333333333334281
                },
                {
                    "name": "C4",
                    "midi": 60,
                    "time": 196.91666666666677,
                    "velocity": 0.7874015748031497,
                    "duration": 0.08333333333334281
                },
                {
                    "name": "D4",
                    "midi": 62,
                    "time": 197.0000000000001,
                    "velocity": 0.7874015748031497,
                    "duration": 0.08333333333334281
                },
                {
                    "name": "F4",
                    "midi": 65,
                    "time": 197.08333333333346,
                    "velocity": 0.7874015748031497,
                    "duration": 0.08333333333334281
                },
                {
                    "name": "A4",
                    "midi": 69,
                    "time": 197.1666666666668,
                    "velocity": 0.7874015748031497,
                    "duration": 0.08333333333334281
                },
                {
                    "name": "D5",
                    "midi": 74,
                    "time": 197.25000000000014,
                    "velocity": 0.7874015748031497,
                    "duration": 0.08333333333334281
                },
                {
                    "name": "F5",
                    "midi": 77,
                    "time": 197.33333333333348,
                    "velocity": 0.7874015748031497,
                    "duration": 0.08333333333334281
                },
                {
                    "name": "A5",
                    "midi": 81,
                    "time": 197.41666666666683,
                    "velocity": 0.7874015748031497,
                    "duration": 0.08333333333334281
                },
                {
                    "name": "D6",
                    "midi": 86,
                    "time": 197.50000000000017,
                    "velocity": 0.7874015748031497,
                    "duration": 0.125
                },
                {
                    "name": "F6",
                    "midi": 89,
                    "time": 197.62500000000017,
                    "velocity": 0.7874015748031497,
                    "duration": 0.125
                },
                {
                    "name": "A6",
                    "midi": 93,
                    "time": 197.75000000000017,
                    "velocity": 0.7874015748031497,
                    "duration": 0.125
                },
                {
                    "name": "D7",
                    "midi": 98,
                    "time": 197.87500000000017,
                    "velocity": 0.7874015748031497,
                    "duration": 0.125
                },
                {
                    "name": "G#3",
                    "midi": 56,
                    "time": 198.00000000000017,
                    "velocity": 0.7874015748031497,
                    "duration": 0.125
                },
                {
                    "name": "F4",
                    "midi": 65,
                    "time": 198.00000000000017,
                    "velocity": 0.7874015748031497,
                    "duration": 0.125
                },
                {
                    "name": "D5",
                    "midi": 74,
                    "time": 198.12500000000017,
                    "velocity": 0.7874015748031497,
                    "duration": 0.125
                },
                {
                    "name": "B4",
                    "midi": 71,
                    "time": 198.12500000000017,
                    "velocity": 0.7874015748031497,
                    "duration": 0.125
                },
                {
                    "name": "G#4",
                    "midi": 68,
                    "time": 198.25000000000017,
                    "velocity": 0.7874015748031497,
                    "duration": 0.125
                },
                {
                    "name": "B3",
                    "midi": 59,
                    "time": 198.25000000000017,
                    "velocity": 0.7874015748031497,
                    "duration": 0.125
                },
                {
                    "name": "F5",
                    "midi": 77,
                    "time": 198.37500000000017,
                    "velocity": 0.7874015748031497,
                    "duration": 0.125
                },
                {
                    "name": "D5",
                    "midi": 74,
                    "time": 198.37500000000017,
                    "velocity": 0.7874015748031497,
                    "duration": 0.125
                },
                {
                    "name": "B4",
                    "midi": 71,
                    "time": 198.50000000000017,
                    "velocity": 0.7874015748031497,
                    "duration": 0.125
                },
                {
                    "name": "D4",
                    "midi": 62,
                    "time": 198.50000000000017,
                    "velocity": 0.7874015748031497,
                    "duration": 0.125
                },
                {
                    "name": "G#5",
                    "midi": 80,
                    "time": 198.62500000000017,
                    "velocity": 0.7874015748031497,
                    "duration": 0.125
                },
                {
                    "name": "F5",
                    "midi": 77,
                    "time": 198.62500000000017,
                    "velocity": 0.7874015748031497,
                    "duration": 0.125
                },
                {
                    "name": "F4",
                    "midi": 65,
                    "time": 198.75000000000017,
                    "velocity": 0.7874015748031497,
                    "duration": 0.125
                },
                {
                    "name": "G#3",
                    "midi": 56,
                    "time": 198.75000000000017,
                    "velocity": 0.7874015748031497,
                    "duration": 0.125
                },
                {
                    "name": "D5",
                    "midi": 74,
                    "time": 198.87500000000017,
                    "velocity": 0.7874015748031497,
                    "duration": 0.125
                },
                {
                    "name": "B4",
                    "midi": 71,
                    "time": 198.87500000000017,
                    "velocity": 0.7874015748031497,
                    "duration": 0.125
                },
                {
                    "name": "A3",
                    "midi": 57,
                    "time": 199.00000000000017,
                    "velocity": 0.7874015748031497,
                    "duration": 0.08333333333334281
                },
                {
                    "name": "C#4",
                    "midi": 61,
                    "time": 199.0833333333335,
                    "velocity": 0.7874015748031497,
                    "duration": 0.08333333333334281
                },
                {
                    "name": "E4",
                    "midi": 64,
                    "time": 199.16666666666686,
                    "velocity": 0.7874015748031497,
                    "duration": 0.08333333333334281
                },
                {
                    "name": "A4",
                    "midi": 69,
                    "time": 199.2500000000002,
                    "velocity": 0.7874015748031497,
                    "duration": 0.08333333333334281
                },
                {
                    "name": "C#5",
                    "midi": 73,
                    "time": 199.33333333333354,
                    "velocity": 0.7874015748031497,
                    "duration": 0.08333333333334281
                },
                {
                    "name": "E5",
                    "midi": 76,
                    "time": 199.41666666666688,
                    "velocity": 0.7874015748031497,
                    "duration": 0.08333333333334281
                },
                {
                    "name": "A5",
                    "midi": 81,
                    "time": 199.50000000000023,
                    "velocity": 0.7874015748031497,
                    "duration": 0.08333333333334281
                },
                {
                    "name": "E5",
                    "midi": 76,
                    "time": 199.58333333333357,
                    "velocity": 0.7874015748031497,
                    "duration": 0.08333333333334281
                },
                {
                    "name": "C#5",
                    "midi": 73,
                    "time": 199.6666666666669,
                    "velocity": 0.7874015748031497,
                    "duration": 0.08333333333334281
                },
                {
                    "name": "A4",
                    "midi": 69,
                    "time": 199.75000000000026,
                    "velocity": 0.7874015748031497,
                    "duration": 0.08333333333334281
                },
                {
                    "name": "E4",
                    "midi": 64,
                    "time": 199.8333333333336,
                    "velocity": 0.7874015748031497,
                    "duration": 0.08333333333334281
                },
                {
                    "name": "C#4",
                    "midi": 61,
                    "time": 199.91666666666694,
                    "velocity": 0.7874015748031497,
                    "duration": 0.08333333333334281
                },
                {
                    "name": "A3",
                    "midi": 57,
                    "time": 200.00000000000028,
                    "velocity": 0.7874015748031497,
                    "duration": 0.08333333333334281
                },
                {
                    "name": "C#4",
                    "midi": 61,
                    "time": 200.08333333333363,
                    "velocity": 0.7874015748031497,
                    "duration": 0.08333333333334281
                },
                {
                    "name": "E4",
                    "midi": 64,
                    "time": 200.16666666666697,
                    "velocity": 0.7874015748031497,
                    "duration": 0.08333333333334281
                },
                {
                    "name": "A4",
                    "midi": 69,
                    "time": 200.2500000000003,
                    "velocity": 0.7874015748031497,
                    "duration": 0.08333333333334281
                },
                {
                    "name": "C#5",
                    "midi": 73,
                    "time": 200.33333333333366,
                    "velocity": 0.7874015748031497,
                    "duration": 0.08333333333334281
                },
                {
                    "name": "E5",
                    "midi": 76,
                    "time": 200.416666666667,
                    "velocity": 0.7874015748031497,
                    "duration": 0.08333333333334281
                },
                {
                    "name": "A5",
                    "midi": 81,
                    "time": 200.50000000000034,
                    "velocity": 0.7874015748031497,
                    "duration": 0.125
                },
                {
                    "name": "C#6",
                    "midi": 85,
                    "time": 200.56250000000034,
                    "velocity": 0.7874015748031497,
                    "duration": 0.0625
                },
                {
                    "name": "A5",
                    "midi": 81,
                    "time": 200.62500000000034,
                    "velocity": 0.7874015748031497,
                    "duration": 0.0625
                },
                {
                    "name": "E5",
                    "midi": 76,
                    "time": 200.68750000000034,
                    "velocity": 0.7874015748031497,
                    "duration": 0.0625
                },
                {
                    "name": "C#5",
                    "midi": 73,
                    "time": 200.75000000000034,
                    "velocity": 0.7874015748031497,
                    "duration": 0.0625
                },
                {
                    "name": "A4",
                    "midi": 69,
                    "time": 200.81250000000034,
                    "velocity": 0.7874015748031497,
                    "duration": 0.0625
                },
                {
                    "name": "E4",
                    "midi": 64,
                    "time": 200.87500000000034,
                    "velocity": 0.7874015748031497,
                    "duration": 0.0625
                },
                {
                    "name": "C#4",
                    "midi": 61,
                    "time": 200.93750000000034,
                    "velocity": 0.7874015748031497,
                    "duration": 0.0625
                },
                {
                    "name": "A3",
                    "midi": 57,
                    "time": 201.00000000000034,
                    "velocity": 0.7874015748031497,
                    "duration": 0.0625
                },
                {
                    "name": "C#4",
                    "midi": 61,
                    "time": 201.06250000000034,
                    "velocity": 0.7874015748031497,
                    "duration": 0.0625
                },
                {
                    "name": "E4",
                    "midi": 64,
                    "time": 201.12500000000034,
                    "velocity": 0.7874015748031497,
                    "duration": 0.0625
                },
                {
                    "name": "A4",
                    "midi": 69,
                    "time": 201.18750000000034,
                    "velocity": 0.7874015748031497,
                    "duration": 0.0625
                },
                {
                    "name": "C#5",
                    "midi": 73,
                    "time": 201.25000000000034,
                    "velocity": 0.7874015748031497,
                    "duration": 0.0625
                },
                {
                    "name": "E5",
                    "midi": 76,
                    "time": 201.31250000000034,
                    "velocity": 0.7874015748031497,
                    "duration": 0.0625
                },
                {
                    "name": "A5",
                    "midi": 81,
                    "time": 201.37500000000034,
                    "velocity": 0.7874015748031497,
                    "duration": 0.0625
                },
                {
                    "name": "C#6",
                    "midi": 85,
                    "time": 201.43750000000034,
                    "velocity": 0.7874015748031497,
                    "duration": 0.0625
                },
                {
                    "name": "E6",
                    "midi": 88,
                    "time": 201.50000000000034,
                    "velocity": 0.7874015748031497,
                    "duration": 0.0625
                },
                {
                    "name": "C#6",
                    "midi": 85,
                    "time": 201.56250000000034,
                    "velocity": 0.7874015748031497,
                    "duration": 0.0625
                },
                {
                    "name": "A5",
                    "midi": 81,
                    "time": 201.62500000000034,
                    "velocity": 0.7874015748031497,
                    "duration": 0.0625
                },
                {
                    "name": "E5",
                    "midi": 76,
                    "time": 201.68750000000034,
                    "velocity": 0.7874015748031497,
                    "duration": 0.0625
                },
                {
                    "name": "C#5",
                    "midi": 73,
                    "time": 201.75000000000034,
                    "velocity": 0.7874015748031497,
                    "duration": 0.0625
                },
                {
                    "name": "A4",
                    "midi": 69,
                    "time": 201.81250000000034,
                    "velocity": 0.7874015748031497,
                    "duration": 0.0625
                },
                {
                    "name": "E4",
                    "midi": 64,
                    "time": 201.87500000000034,
                    "velocity": 0.7874015748031497,
                    "duration": 0.0625
                },
                {
                    "name": "C#4",
                    "midi": 61,
                    "time": 201.93750000000034,
                    "velocity": 0.7874015748031497,
                    "duration": 0.0625
                },
                {
                    "name": "A3",
                    "midi": 57,
                    "time": 202.00000000000034,
                    "velocity": 0.7874015748031497,
                    "duration": 0.0625
                },
                {
                    "name": "C#4",
                    "midi": 61,
                    "time": 202.06250000000034,
                    "velocity": 0.7874015748031497,
                    "duration": 0.0625
                },
                {
                    "name": "E4",
                    "midi": 64,
                    "time": 202.12500000000034,
                    "velocity": 0.7874015748031497,
                    "duration": 0.0625
                },
                {
                    "name": "A4",
                    "midi": 69,
                    "time": 202.18750000000034,
                    "velocity": 0.7874015748031497,
                    "duration": 0.0625
                },
                {
                    "name": "C#5",
                    "midi": 73,
                    "time": 202.25000000000034,
                    "velocity": 0.7874015748031497,
                    "duration": 0.0625
                },
                {
                    "name": "E5",
                    "midi": 76,
                    "time": 202.31250000000034,
                    "velocity": 0.7874015748031497,
                    "duration": 0.0625
                },
                {
                    "name": "A5",
                    "midi": 81,
                    "time": 202.37500000000034,
                    "velocity": 0.7874015748031497,
                    "duration": 0.0625
                },
                {
                    "name": "C#6",
                    "midi": 85,
                    "time": 202.43750000000034,
                    "velocity": 0.7874015748031497,
                    "duration": 0.0625
                },
                {
                    "name": "E6",
                    "midi": 88,
                    "time": 202.50000000000034,
                    "velocity": 0.7874015748031497,
                    "duration": 0.0625
                },
                {
                    "name": "G#6",
                    "midi": 92,
                    "time": 202.56250000000034,
                    "velocity": 0.7874015748031497,
                    "duration": 0.0625
                },
                {
                    "name": "E6",
                    "midi": 88,
                    "time": 202.62500000000034,
                    "velocity": 0.7874015748031497,
                    "duration": 0.0625
                },
                {
                    "name": "C#6",
                    "midi": 85,
                    "time": 202.68750000000034,
                    "velocity": 0.7874015748031497,
                    "duration": 0.0625
                },
                {
                    "name": "A5",
                    "midi": 81,
                    "time": 202.75000000000034,
                    "velocity": 0.7874015748031497,
                    "duration": 0.0625
                },
                {
                    "name": "E5",
                    "midi": 76,
                    "time": 202.81250000000034,
                    "velocity": 0.7874015748031497,
                    "duration": 0.0625
                },
                {
                    "name": "C#5",
                    "midi": 73,
                    "time": 202.87500000000034,
                    "velocity": 0.7874015748031497,
                    "duration": 0.0625
                },
                {
                    "name": "A4",
                    "midi": 69,
                    "time": 202.93750000000034,
                    "velocity": 0.7874015748031497,
                    "duration": 0.0625
                },
                {
                    "name": "E4",
                    "midi": 64,
                    "time": 203.00000000000034,
                    "velocity": 0.7874015748031497,
                    "duration": 0.0625
                },
                {
                    "name": "C#4",
                    "midi": 61,
                    "time": 203.06250000000034,
                    "velocity": 0.7874015748031497,
                    "duration": 0.0625
                },
                {
                    "name": "A3",
                    "midi": 57,
                    "time": 203.31250000000034,
                    "velocity": 0.7874015748031497,
                    "duration": 0.0625
                },
                {
                    "name": "B3",
                    "midi": 59,
                    "time": 203.37500000000034,
                    "velocity": 0.7874015748031497,
                    "duration": 0.0625
                },
                {
                    "name": "A3",
                    "midi": 57,
                    "time": 203.43750000000034,
                    "velocity": 0.7874015748031497,
                    "duration": 0.0625
                },
                {
                    "name": "B3",
                    "midi": 59,
                    "time": 203.50000000000034,
                    "velocity": 0.7874015748031497,
                    "duration": 0.0625
                },
                {
                    "name": "A3",
                    "midi": 57,
                    "time": 203.56250000000034,
                    "velocity": 0.7874015748031497,
                    "duration": 0.0625
                },
                {
                    "name": "B3",
                    "midi": 59,
                    "time": 203.62500000000034,
                    "velocity": 0.7874015748031497,
                    "duration": 0.0625
                },
                {
                    "name": "A3",
                    "midi": 57,
                    "time": 203.68750000000034,
                    "velocity": 0.7874015748031497,
                    "duration": 0.0625
                },
                {
                    "name": "B3",
                    "midi": 59,
                    "time": 203.75000000000034,
                    "velocity": 0.7874015748031497,
                    "duration": 0.0625
                },
                {
                    "name": "A3",
                    "midi": 57,
                    "time": 203.81250000000034,
                    "velocity": 0.7874015748031497,
                    "duration": 0.0625
                },
                {
                    "name": "B3",
                    "midi": 59,
                    "time": 203.87500000000034,
                    "velocity": 0.7874015748031497,
                    "duration": 0.0625
                },
                {
                    "name": "A3",
                    "midi": 57,
                    "time": 203.93750000000034,
                    "velocity": 0.7874015748031497,
                    "duration": 0.0625
                },
                {
                    "name": "A3",
                    "midi": 57,
                    "time": 204.00000000000034,
                    "velocity": 0.7874015748031497,
                    "duration": 1.1458333333333428
                },
                {
                    "name": "G#3",
                    "midi": 56,
                    "time": 205.25000000000034,
                    "velocity": 0.7874015748031497,
                    "duration": 0.125
                },
                {
                    "name": "A3",
                    "midi": 57,
                    "time": 205.37500000000034,
                    "velocity": 0.7874015748031497,
                    "duration": 0.125
                },
                {
                    "name": "C#5",
                    "midi": 73,
                    "time": 205.50000000000034,
                    "velocity": 0.7874015748031497,
                    "duration": 1
                },
                {
                    "name": "A3",
                    "midi": 57,
                    "time": 205.50000000000034,
                    "velocity": 0.7874015748031497,
                    "duration": 1
                },
                {
                    "name": "A5",
                    "midi": 81,
                    "time": 205.50000000000034,
                    "velocity": 0.7874015748031497,
                    "duration": 1
                },
                {
                    "name": "E5",
                    "midi": 76,
                    "time": 205.50000000000034,
                    "velocity": 0.7874015748031497,
                    "duration": 1
                },
                {
                    "name": "A4",
                    "midi": 69,
                    "time": 205.50000000000034,
                    "velocity": 0.7874015748031497,
                    "duration": 1
                },
                {
                    "name": "E4",
                    "midi": 64,
                    "time": 205.50000000000034,
                    "velocity": 0.7874015748031497,
                    "duration": 1
                }
            ],
            "controlChanges": {
                "10": [
                    {
                        "number": 10,
                        "time": 0,
                        "value": 0.5039370078740157
                    }
                ]
            },
            "id": 1,
            "instrumentNumber": 41,
            "instrument": "viola",
            "instrumentFamily": "strings",
            "channelNumber": 0,
            "isPercussion": false
        }
    ]
}