{
    "header": {
        "PPQ": 480,
        "bpm": 100,
        "timeSignature": [
            3,
            8
        ],
        "name": "LA CAMPANELLA"
    },
    "startTime": 0,
    "duration": 287.40000000000106,
    "tracks": [
        {
            "startTime": 0,
            "duration": 0,
            "length": 0,
            "notes": [],
            "controlChanges": {},
            "id": 0,
            "name": "LA CAMPANELLA"
        },
        {
            "startTime": 0,
            "duration": 0,
            "length": 0,
            "notes": [],
            "controlChanges": {},
            "id": 1,
            "name": "LA CAMPANELLA"
        },
        {
            "startTime": 0,
            "duration": 0,
            "length": 0,
            "notes": [],
            "controlChanges": {},
            "id": 2,
            "name": "by Nicolo Paganini"
        },
        {
            "startTime": 0,
            "duration": 0,
            "length": 0,
            "notes": [],
            "controlChanges": {},
            "id": 3,
            "name": "Taken from 2 violin"
        },
        {
            "startTime": 0,
            "duration": 287.39999999999714,
            "length": 1218,
            "notes": [
                {
                    "name": "G5",
                    "midi": 79,
                    "time": 0,
                    "velocity": 0.5905511811023622,
                    "duration": 0.09999999999999999
                },
                {
                    "name": "G6",
                    "midi": 91,
                    "time": 0.3,
                    "velocity": 0.5905511811023622,
                    "duration": 0.09999999999999998
                },
                {
                    "name": "G6",
                    "midi": 91,
                    "time": 0.6,
                    "velocity": 0.5905511811023622,
                    "duration": 0.09999999999999998
                },
                {
                    "name": "F6",
                    "midi": 89,
                    "time": 0.8999999999999999,
                    "velocity": 0.5905511811023622,
                    "duration": 0.09999999999999998
                },
                {
                    "name": "D#6",
                    "midi": 87,
                    "time": 1.2,
                    "velocity": 0.5905511811023622,
                    "duration": 0.10000000000000009
                },
                {
                    "name": "D#6",
                    "midi": 87,
                    "time": 1.5,
                    "velocity": 0.5905511811023622,
                    "duration": 0.10000000000000009
                },
                {
                    "name": "D6",
                    "midi": 86,
                    "time": 1.8,
                    "velocity": 0.5905511811023622,
                    "duration": 0.10000000000000009
                },
                {
                    "name": "C6",
                    "midi": 84,
                    "time": 2.1,
                    "velocity": 0.5905511811023622,
                    "duration": 0.10000000000000009
                },
                {
                    "name": "B5",
                    "midi": 83,
                    "time": 2.4000000000000004,
                    "velocity": 0.5905511811023622,
                    "duration": 0.10000000000000009
                },
                {
                    "name": "C6",
                    "midi": 84,
                    "time": 2.7000000000000006,
                    "velocity": 0.5905511811023622,
                    "duration": 0.10000000000000009
                },
                {
                    "name": "B5",
                    "midi": 83,
                    "time": 3.000000000000001,
                    "velocity": 0.5905511811023622,
                    "duration": 0.07500000000000018
                },
                {
                    "name": "C6",
                    "midi": 84,
                    "time": 3.075000000000001,
                    "velocity": 0.5905511811023622,
                    "duration": 0.07500000000000018
                },
                {
                    "name": "D6",
                    "midi": 86,
                    "time": 3.1500000000000012,
                    "velocity": 0.5905511811023622,
                    "duration": 0.10000000000000009
                },
                {
                    "name": "G5",
                    "midi": 79,
                    "time": 3.300000000000001,
                    "velocity": 0.5905511811023622,
                    "duration": 0.10000000000000009
                },
                {
                    "name": "G5",
                    "midi": 79,
                    "time": 3.6000000000000014,
                    "velocity": 0.5905511811023622,
                    "duration": 0.10000000000000009
                },
                {
                    "name": "A#5",
                    "midi": 82,
                    "time": 3.9000000000000017,
                    "velocity": 0.5905511811023622,
                    "duration": 0.07500000000000018
                },
                {
                    "name": "G#5",
                    "midi": 80,
                    "time": 3.975000000000002,
                    "velocity": 0.5905511811023622,
                    "duration": 0.1499999999999999
                },
                {
                    "name": "G5",
                    "midi": 79,
                    "time": 4.200000000000002,
                    "velocity": 0.5905511811023622,
                    "duration": 0.09999999999999964
                },
                {
                    "name": "F5",
                    "midi": 77,
                    "time": 4.500000000000002,
                    "velocity": 0.5905511811023622,
                    "duration": 0.09999999999999964
                },
                {
                    "name": "D#5",
                    "midi": 75,
                    "time": 4.800000000000002,
                    "velocity": 0.5905511811023622,
                    "duration": 0.09999999999999964
                },
                {
                    "name": "D5",
                    "midi": 74,
                    "time": 5.100000000000001,
                    "velocity": 0.5905511811023622,
                    "duration": 0.09999999999999964
                },
                {
                    "name": "C5",
                    "midi": 72,
                    "time": 5.400000000000001,
                    "velocity": 0.5905511811023622,
                    "duration": 0.09999999999999964
                },
                {
                    "name": "F5",
                    "midi": 77,
                    "time": 5.700000000000001,
                    "velocity": 0.5905511811023622,
                    "duration": 0.07500000000000018
                },
                {
                    "name": "D#5",
                    "midi": 75,
                    "time": 5.775000000000001,
                    "velocity": 0.5905511811023622,
                    "duration": 0.15000000000000036
                },
                {
                    "name": "D5",
                    "midi": 74,
                    "time": 6.000000000000002,
                    "velocity": 0.5905511811023622,
                    "duration": 0.09999999999999964
                },
                {
                    "name": "C5",
                    "midi": 72,
                    "time": 6.300000000000002,
                    "velocity": 0.5905511811023622,
                    "duration": 0.09999999999999964
                },
                {
                    "name": "D5",
                    "midi": 74,
                    "time": 6.600000000000001,
                    "velocity": 0.5905511811023622,
                    "duration": 0.5999999999999996
                },
                {
                    "name": "G5",
                    "midi": 79,
                    "time": 7.200000000000001,
                    "velocity": 0.5905511811023622,
                    "duration": 0.2999999999999998
                },
                {
                    "name": "G6",
                    "midi": 91,
                    "time": 7.500000000000001,
                    "velocity": 0.5905511811023622,
                    "duration": 0.09999999999999964
                },
                {
                    "name": "G6",
                    "midi": 91,
                    "time": 7.800000000000001,
                    "velocity": 0.5905511811023622,
                    "duration": 0.09999999999999964
                },
                {
                    "name": "F6",
                    "midi": 89,
                    "time": 8.1,
                    "velocity": 0.5905511811023622,
                    "duration": 0.09999999999999964
                },
                {
                    "name": "D#6",
                    "midi": 87,
                    "time": 8.399999999999999,
                    "velocity": 0.5905511811023622,
                    "duration": 0.09999999999999964
                },
                {
                    "name": "D#6",
                    "midi": 87,
                    "time": 8.699999999999998,
                    "velocity": 0.5905511811023622,
                    "duration": 0.09999999999999964
                },
                {
                    "name": "D6",
                    "midi": 86,
                    "time": 8.999999999999996,
                    "velocity": 0.5905511811023622,
                    "duration": 0.09999999999999964
                },
                {
                    "name": "C6",
                    "midi": 84,
                    "time": 9.299999999999995,
                    "velocity": 0.5905511811023622,
                    "duration": 0.09999999999999964
                },
                {
                    "name": "B5",
                    "midi": 83,
                    "time": 9.599999999999994,
                    "velocity": 0.5905511811023622,
                    "duration": 0.09999999999999964
                },
                {
                    "name": "C6",
                    "midi": 84,
                    "time": 9.899999999999993,
                    "velocity": 0.5905511811023622,
                    "duration": 0.09999999999999964
                },
                {
                    "name": "B5",
                    "midi": 83,
                    "time": 10.199999999999992,
                    "velocity": 0.5905511811023622,
                    "duration": 0.07499999999999929
                },
                {
                    "name": "C6",
                    "midi": 84,
                    "time": 10.274999999999991,
                    "velocity": 0.5905511811023622,
                    "duration": 0.07499999999999929
                },
                {
                    "name": "D6",
                    "midi": 86,
                    "time": 10.34999999999999,
                    "velocity": 0.5905511811023622,
                    "duration": 0.09999999999999964
                },
                {
                    "name": "G5",
                    "midi": 79,
                    "time": 10.499999999999991,
                    "velocity": 0.5905511811023622,
                    "duration": 0.09999999999999964
                },
                {
                    "name": "G5",
                    "midi": 79,
                    "time": 10.79999999999999,
                    "velocity": 0.5905511811023622,
                    "duration": 0.09999999999999964
                },
                {
                    "name": "A#5",
                    "midi": 82,
                    "time": 11.099999999999989,
                    "velocity": 0.5905511811023622,
                    "duration": 0.07499999999999929
                },
                {
                    "name": "G#5",
                    "midi": 80,
                    "time": 11.174999999999988,
                    "velocity": 0.5905511811023622,
                    "duration": 0.15000000000000036
                },
                {
                    "name": "G5",
                    "midi": 79,
                    "time": 11.399999999999988,
                    "velocity": 0.5905511811023622,
                    "duration": 0.09999999999999964
                },
                {
                    "name": "F5",
                    "midi": 77,
                    "time": 11.699999999999987,
                    "velocity": 0.5905511811023622,
                    "duration": 0.09999999999999964
                },
                {
                    "name": "G5",
                    "midi": 79,
                    "time": 11.999999999999986,
                    "velocity": 0.5905511811023622,
                    "duration": 0.09999999999999964
                },
                {
                    "name": "C6",
                    "midi": 84,
                    "time": 12.299999999999985,
                    "velocity": 0.5905511811023622,
                    "duration": 0.09999999999999964
                },
                {
                    "name": "D#6",
                    "midi": 87,
                    "time": 12.449999999999985,
                    "velocity": 0.5905511811023622,
                    "duration": 0.09999999999999964
                },
                {
                    "name": "G6",
                    "midi": 91,
                    "time": 12.599999999999985,
                    "velocity": 0.5905511811023622,
                    "duration": 0.09999999999999964
                },
                {
                    "name": "G5",
                    "midi": 79,
                    "time": 12.899999999999984,
                    "velocity": 0.5905511811023622,
                    "duration": 0.09999999999999964
                },
                {
                    "name": "B5",
                    "midi": 83,
                    "time": 13.199999999999983,
                    "velocity": 0.5905511811023622,
                    "duration": 0.09999999999999964
                },
                {
                    "name": "D6",
                    "midi": 86,
                    "time": 13.349999999999984,
                    "velocity": 0.5905511811023622,
                    "duration": 0.09999999999999964
                },
                {
                    "name": "G6",
                    "midi": 91,
                    "time": 13.499999999999984,
                    "velocity": 0.5905511811023622,
                    "duration": 0.09999999999999964
                },
                {
                    "name": "C6",
                    "midi": 84,
                    "time": 13.799999999999983,
                    "velocity": 0.5905511811023622,
                    "duration": 0.09999999999999964
                },
                {
                    "name": "C7",
                    "midi": 96,
                    "time": 14.099999999999982,
                    "velocity": 0.5905511811023622,
                    "duration": 0.09999999999999964
                },
                {
                    "name": "G5",
                    "midi": 79,
                    "time": 14.39999999999998,
                    "velocity": 0.7244094488188977,
                    "duration": 0.3000000000000007
                },
                {
                    "name": "G6",
                    "midi": 91,
                    "time": 14.699999999999982,
                    "velocity": 0.7244094488188977,
                    "duration": 0.09999999999999964
                },
                {
                    "name": "G6",
                    "midi": 91,
                    "time": 14.99999999999998,
                    "velocity": 0.7244094488188977,
                    "duration": 0.09999999999999964
                },
                {
                    "name": "F6",
                    "midi": 89,
                    "time": 15.29999999999998,
                    "velocity": 0.7244094488188977,
                    "duration": 0.09999999999999964
                },
                {
                    "name": "D#6",
                    "midi": 87,
                    "time": 15.599999999999978,
                    "velocity": 0.7244094488188977,
                    "duration": 0.09999999999999964
                },
                {
                    "name": "D#6",
                    "midi": 87,
                    "time": 15.899999999999977,
                    "velocity": 0.7244094488188977,
                    "duration": 0.09999999999999964
                },
                {
                    "name": "D6",
                    "midi": 86,
                    "time": 16.199999999999978,
                    "velocity": 0.7244094488188977,
                    "duration": 0.10000000000000142
                },
                {
                    "name": "C6",
                    "midi": 84,
                    "time": 16.49999999999998,
                    "velocity": 0.7244094488188977,
                    "duration": 0.10000000000000142
                },
                {
                    "name": "B5",
                    "midi": 83,
                    "time": 16.79999999999998,
                    "velocity": 0.7244094488188977,
                    "duration": 0.10000000000000142
                },
                {
                    "name": "C6",
                    "midi": 84,
                    "time": 17.09999999999998,
                    "velocity": 0.7244094488188977,
                    "duration": 0.10000000000000142
                },
                {
                    "name": "B5",
                    "midi": 83,
                    "time": 17.39999999999998,
                    "velocity": 0.7244094488188977,
                    "duration": 0.07499999999999929
                },
                {
                    "name": "C6",
                    "midi": 84,
                    "time": 17.47499999999998,
                    "velocity": 0.7244094488188977,
                    "duration": 0.07499999999999929
                },
                {
                    "name": "D6",
                    "midi": 86,
                    "time": 17.54999999999998,
                    "velocity": 0.7244094488188977,
                    "duration": 0.10000000000000142
                },
                {
                    "name": "G5",
                    "midi": 79,
                    "time": 17.69999999999998,
                    "velocity": 0.7244094488188977,
                    "duration": 0.10000000000000142
                },
                {
                    "name": "G5",
                    "midi": 79,
                    "time": 17.999999999999982,
                    "velocity": 0.7244094488188977,
                    "duration": 0.10000000000000142
                },
                {
                    "name": "A#5",
                    "midi": 82,
                    "time": 18.299999999999983,
                    "velocity": 0.7244094488188977,
                    "duration": 0.07499999999999929
                },
                {
                    "name": "G#5",
                    "midi": 80,
                    "time": 18.374999999999982,
                    "velocity": 0.7244094488188977,
                    "duration": 0.14999999999999858
                },
                {
                    "name": "G5",
                    "midi": 79,
                    "time": 18.59999999999998,
                    "velocity": 0.7244094488188977,
                    "duration": 0.10000000000000142
                },
                {
                    "name": "F5",
                    "midi": 77,
                    "time": 18.89999999999998,
                    "velocity": 0.7244094488188977,
                    "duration": 0.10000000000000142
                },
                {
                    "name": "D#5",
                    "midi": 75,
                    "time": 19.19999999999998,
                    "velocity": 0.7244094488188977,
                    "duration": 0.10000000000000142
                },
                {
                    "name": "D5",
                    "midi": 74,
                    "time": 19.499999999999982,
                    "velocity": 0.7244094488188977,
                    "duration": 0.10000000000000142
                },
                {
                    "name": "C5",
                    "midi": 72,
                    "time": 19.799999999999983,
                    "velocity": 0.7244094488188977,
                    "duration": 0.10000000000000142
                },
                {
                    "name": "F5",
                    "midi": 77,
                    "time": 20.099999999999984,
                    "velocity": 0.7244094488188977,
                    "duration": 0.07499999999999929
                },
                {
                    "name": "D#5",
                    "midi": 75,
                    "time": 20.174999999999983,
                    "velocity": 0.7244094488188977,
                    "duration": 0.14999999999999858
                },
                {
                    "name": "D5",
                    "midi": 74,
                    "time": 20.39999999999998,
                    "velocity": 0.7244094488188977,
                    "duration": 0.10000000000000142
                },
                {
                    "name": "C5",
                    "midi": 72,
                    "time": 20.69999999999998,
                    "velocity": 0.7244094488188977,
                    "duration": 0.10000000000000142
                },
                {
                    "name": "D5",
                    "midi": 74,
                    "time": 20.999999999999982,
                    "velocity": 0.7244094488188977,
                    "duration": 0.6000000000000014
                },
                {
                    "name": "G5",
                    "midi": 79,
                    "time": 21.599999999999984,
                    "velocity": 0.7244094488188977,
                    "duration": 0.3000000000000007
                },
                {
                    "name": "G6",
                    "midi": 91,
                    "time": 21.899999999999984,
                    "velocity": 0.7244094488188977,
                    "duration": 0.10000000000000142
                },
                {
                    "name": "G6",
                    "midi": 91,
                    "time": 22.199999999999985,
                    "velocity": 0.7244094488188977,
                    "duration": 0.10000000000000142
                },
                {
                    "name": "F6",
                    "midi": 89,
                    "time": 22.499999999999986,
                    "velocity": 0.7244094488188977,
                    "duration": 0.10000000000000142
                },
                {
                    "name": "D#6",
                    "midi": 87,
                    "time": 22.799999999999986,
                    "velocity": 0.7244094488188977,
                    "duration": 0.10000000000000142
                },
                {
                    "name": "D#6",
                    "midi": 87,
                    "time": 23.099999999999987,
                    "velocity": 0.7244094488188977,
                    "duration": 0.10000000000000142
                },
                {
                    "name": "D6",
                    "midi": 86,
                    "time": 23.399999999999988,
                    "velocity": 0.7244094488188977,
                    "duration": 0.10000000000000142
                },
                {
                    "name": "C6",
                    "midi": 84,
                    "time": 23.69999999999999,
                    "velocity": 0.7244094488188977,
                    "duration": 0.10000000000000142
                },
                {
                    "name": "B5",
                    "midi": 83,
                    "time": 23.99999999999999,
                    "velocity": 0.7244094488188977,
                    "duration": 0.10000000000000142
                },
                {
                    "name": "C6",
                    "midi": 84,
                    "time": 24.29999999999999,
                    "velocity": 0.7244094488188977,
                    "duration": 0.10000000000000142
                },
                {
                    "name": "B5",
                    "midi": 83,
                    "time": 24.59999999999999,
                    "velocity": 0.7244094488188977,
                    "duration": 0.07499999999999929
                },
                {
                    "name": "C6",
                    "midi": 84,
                    "time": 24.67499999999999,
                    "velocity": 0.7244094488188977,
                    "duration": 0.07499999999999929
                },
                {
                    "name": "D6",
                    "midi": 86,
                    "time": 24.74999999999999,
                    "velocity": 0.7244094488188977,
                    "duration": 0.10000000000000142
                },
                {
                    "name": "G5",
                    "midi": 79,
                    "time": 24.89999999999999,
                    "velocity": 0.7244094488188977,
                    "duration": 0.10000000000000142
                },
                {
                    "name": "G5",
                    "midi": 79,
                    "time": 25.199999999999992,
                    "velocity": 0.7244094488188977,
                    "duration": 0.10000000000000142
                },
                {
                    "name": "A#5",
                    "midi": 82,
                    "time": 25.499999999999993,
                    "velocity": 0.7244094488188977,
                    "duration": 0.07499999999999929
                },
                {
                    "name": "G#5",
                    "midi": 80,
                    "time": 25.574999999999992,
                    "velocity": 0.7244094488188977,
                    "duration": 0.14999999999999858
                },
                {
                    "name": "G5",
                    "midi": 79,
                    "time": 25.79999999999999,
                    "velocity": 0.7244094488188977,
                    "duration": 0.10000000000000142
                },
                {
                    "name": "F5",
                    "midi": 77,
                    "time": 26.09999999999999,
                    "velocity": 0.7244094488188977,
                    "duration": 0.10000000000000142
                },
                {
                    "name": "G5",
                    "midi": 79,
                    "time": 26.39999999999999,
                    "velocity": 0.7244094488188977,
                    "duration": 0.10000000000000142
                },
                {
                    "name": "C6",
                    "midi": 84,
                    "time": 26.699999999999992,
                    "velocity": 0.7244094488188977,
                    "duration": 0.10000000000000142
                },
                {
                    "name": "D#6",
                    "midi": 87,
                    "time": 26.849999999999994,
                    "velocity": 0.7244094488188977,
                    "duration": 0.10000000000000142
                },
                {
                    "name": "G6",
                    "midi": 91,
                    "time": 26.999999999999996,
                    "velocity": 0.7244094488188977,
                    "duration": 0.10000000000000142
                },
                {
                    "name": "G5",
                    "midi": 79,
                    "time": 27.299999999999997,
                    "velocity": 0.7244094488188977,
                    "duration": 0.10000000000000142
                },
                {
                    "name": "B5",
                    "midi": 83,
                    "time": 27.599999999999998,
                    "velocity": 0.7244094488188977,
                    "duration": 0.10000000000000142
                },
                {
                    "name": "D6",
                    "midi": 86,
                    "time": 27.75,
                    "velocity": 0.7244094488188977,
                    "duration": 0.10000000000000142
                },
                {
                    "name": "G6",
                    "midi": 91,
                    "time": 27.900000000000002,
                    "velocity": 0.7244094488188977,
                    "duration": 0.10000000000000142
                },
                {
                    "name": "C6",
                    "midi": 84,
                    "time": 28.200000000000003,
                    "velocity": 0.7244094488188977,
                    "duration": 0.6000000000000014
                },
                {
                    "name": "D#5",
                    "midi": 75,
                    "time": 28.800000000000004,
                    "velocity": 0.5905511811023622,
                    "duration": 0.10000000000000142
                },
                {
                    "name": "D#5",
                    "midi": 75,
                    "time": 29.100000000000005,
                    "velocity": 0.5905511811023622,
                    "duration": 0.10000000000000142
                },
                {
                    "name": "D#5",
                    "midi": 75,
                    "time": 29.400000000000006,
                    "velocity": 0.5905511811023622,
                    "duration": 0.10000000000000142
                },
                {
                    "name": "D#5",
                    "midi": 75,
                    "time": 29.700000000000006,
                    "velocity": 0.5905511811023622,
                    "duration": 0.10000000000000142
                },
                {
                    "name": "D#5",
                    "midi": 75,
                    "time": 30.000000000000007,
                    "velocity": 0.5905511811023622,
                    "duration": 0.05000000000000071
                },
                {
                    "name": "F5",
                    "midi": 77,
                    "time": 30.050000000000008,
                    "velocity": 0.5905511811023622,
                    "duration": 0.05000000000000071
                },
                {
                    "name": "D#5",
                    "midi": 75,
                    "time": 30.10000000000001,
                    "velocity": 0.5905511811023622,
                    "duration": 0.05000000000000071
                },
                {
                    "name": "D5",
                    "midi": 74,
                    "time": 30.15000000000001,
                    "velocity": 0.5905511811023622,
                    "duration": 0.07499999999999929
                },
                {
                    "name": "C5",
                    "midi": 72,
                    "time": 30.22500000000001,
                    "velocity": 0.5905511811023622,
                    "duration": 0.07499999999999929
                },
                {
                    "name": "A#4",
                    "midi": 70,
                    "time": 30.300000000000008,
                    "velocity": 0.5905511811023622,
                    "duration": 0.10000000000000142
                },
                {
                    "name": "D#5",
                    "midi": 75,
                    "time": 30.60000000000001,
                    "velocity": 0.5905511811023622,
                    "duration": 0.10000000000000142
                },
                {
                    "name": "F5",
                    "midi": 77,
                    "time": 30.90000000000001,
                    "velocity": 0.5905511811023622,
                    "duration": 0.05000000000000071
                },
                {
                    "name": "G5",
                    "midi": 79,
                    "time": 30.95000000000001,
                    "velocity": 0.5905511811023622,
                    "duration": 0.05000000000000071
                },
                {
                    "name": "F5",
                    "midi": 77,
                    "time": 31.00000000000001,
                    "velocity": 0.5905511811023622,
                    "duration": 0.05000000000000071
                },
                {
                    "name": "D5",
                    "midi": 74,
                    "time": 31.05000000000001,
                    "velocity": 0.5905511811023622,
                    "duration": 0.07499999999999929
                },
                {
                    "name": "C5",
                    "midi": 72,
                    "time": 31.12500000000001,
                    "velocity": 0.5905511811023622,
                    "duration": 0.07499999999999929
                },
                {
                    "name": "A#4",
                    "midi": 70,
                    "time": 31.20000000000001,
                    "velocity": 0.5905511811023622,
                    "duration": 0.10000000000000142
                },
                {
                    "name": "F5",
                    "midi": 77,
                    "time": 31.50000000000001,
                    "velocity": 0.5905511811023622,
                    "duration": 0.10000000000000142
                },
                {
                    "name": "G5",
                    "midi": 79,
                    "time": 31.80000000000001,
                    "velocity": 0.5905511811023622,
                    "duration": 0.29999999999999716
                },
                {
                    "name": "D#5",
                    "midi": 75,
                    "time": 32.10000000000001,
                    "velocity": 0.5905511811023622,
                    "duration": 0.10000000000000142
                },
                {
                    "name": "G5",
                    "midi": 79,
                    "time": 32.40000000000001,
                    "velocity": 0.5905511811023622,
                    "duration": 0.10000000000000142
                },
                {
                    "name": "G5",
                    "midi": 79,
                    "time": 32.70000000000002,
                    "velocity": 0.5905511811023622,
                    "duration": 0.10000000000000142
                },
                {
                    "name": "G5",
                    "midi": 79,
                    "time": 33.00000000000002,
                    "velocity": 0.5905511811023622,
                    "duration": 0.10000000000000142
                },
                {
                    "name": "G5",
                    "midi": 79,
                    "time": 33.300000000000026,
                    "velocity": 0.5905511811023622,
                    "duration": 0.10000000000000142
                },
                {
                    "name": "G5",
                    "midi": 79,
                    "time": 33.60000000000003,
                    "velocity": 0.5905511811023622,
                    "duration": 0.04999999999999716
                },
                {
                    "name": "A5",
                    "midi": 81,
                    "time": 33.65000000000003,
                    "velocity": 0.5905511811023622,
                    "duration": 0.04999999999999716
                },
                {
                    "name": "G5",
                    "midi": 79,
                    "time": 33.700000000000024,
                    "velocity": 0.5905511811023622,
                    "duration": 0.04999999999999716
                },
                {
                    "name": "F#5",
                    "midi": 78,
                    "time": 33.75000000000002,
                    "velocity": 0.5905511811023622,
                    "duration": 0.07500000000000284
                },
                {
                    "name": "E5",
                    "midi": 76,
                    "time": 33.825000000000024,
                    "velocity": 0.5905511811023622,
                    "duration": 0.07500000000000284
                },
                {
                    "name": "D5",
                    "midi": 74,
                    "time": 33.90000000000003,
                    "velocity": 0.5905511811023622,
                    "duration": 0.10000000000000142
                },
                {
                    "name": "G5",
                    "midi": 79,
                    "time": 34.20000000000003,
                    "velocity": 0.5905511811023622,
                    "duration": 0.10000000000000142
                },
                {
                    "name": "A5",
                    "midi": 81,
                    "time": 34.500000000000036,
                    "velocity": 0.5905511811023622,
                    "duration": 0.04999999999999716
                },
                {
                    "name": "B5",
                    "midi": 83,
                    "time": 34.55000000000003,
                    "velocity": 0.5905511811023622,
                    "duration": 0.04999999999999716
                },
                {
                    "name": "A5",
                    "midi": 81,
                    "time": 34.60000000000003,
                    "velocity": 0.5905511811023622,
                    "duration": 0.04999999999999716
                },
                {
                    "name": "F#5",
                    "midi": 78,
                    "time": 34.65000000000003,
                    "velocity": 0.5905511811023622,
                    "duration": 0.07500000000000284
                },
                {
                    "name": "E5",
                    "midi": 76,
                    "time": 34.72500000000003,
                    "velocity": 0.5905511811023622,
                    "duration": 0.07500000000000284
                },
                {
                    "name": "D5",
                    "midi": 74,
                    "time": 34.80000000000003,
                    "velocity": 0.5905511811023622,
                    "duration": 0.10000000000000142
                },
                {
                    "name": "A5",
                    "midi": 81,
                    "time": 35.10000000000004,
                    "velocity": 0.5905511811023622,
                    "duration": 0.10000000000000142
                },
                {
                    "name": "A#5",
                    "midi": 82,
                    "time": 35.40000000000004,
                    "velocity": 0.5905511811023622,
                    "duration": 0.29999999999999716
                },
                {
                    "name": "G5",
                    "midi": 79,
                    "time": 35.70000000000004,
                    "velocity": 0.5905511811023622,
                    "duration": 0.10000000000000142
                },
                {
                    "name": "A#5",
                    "midi": 82,
                    "time": 36.00000000000004,
                    "velocity": 0.5905511811023622,
                    "duration": 0.10000000000000142
                },
                {
                    "name": "A#5",
                    "midi": 82,
                    "time": 36.30000000000005,
                    "velocity": 0.5905511811023622,
                    "duration": 0.10000000000000142
                },
                {
                    "name": "A#5",
                    "midi": 82,
                    "time": 36.60000000000005,
                    "velocity": 0.5905511811023622,
                    "duration": 0.10000000000000142
                },
                {
                    "name": "A#5",
                    "midi": 82,
                    "time": 36.900000000000055,
                    "velocity": 0.5905511811023622,
                    "duration": 0.10000000000000142
                },
                {
                    "name": "A#5",
                    "midi": 82,
                    "time": 37.20000000000006,
                    "velocity": 0.5905511811023622,
                    "duration": 0.04999999999999716
                },
                {
                    "name": "C6",
                    "midi": 84,
                    "time": 37.25000000000006,
                    "velocity": 0.5905511811023622,
                    "duration": 0.04999999999999716
                },
                {
                    "name": "A#5",
                    "midi": 82,
                    "time": 37.300000000000054,
                    "velocity": 0.5905511811023622,
                    "duration": 0.04999999999999716
                },
                {
                    "name": "A5",
                    "midi": 81,
                    "time": 37.35000000000005,
                    "velocity": 0.5905511811023622,
                    "duration": 0.07500000000000284
                },
                {
                    "name": "G5",
                    "midi": 79,
                    "time": 37.425000000000054,
                    "velocity": 0.5905511811023622,
                    "duration": 0.07500000000000284
                },
                {
                    "name": "F5",
                    "midi": 77,
                    "time": 37.50000000000006,
                    "velocity": 0.5905511811023622,
                    "duration": 0.10000000000000142
                },
                {
                    "name": "A#5",
                    "midi": 82,
                    "time": 37.80000000000006,
                    "velocity": 0.5905511811023622,
                    "duration": 0.10000000000000142
                },
                {
                    "name": "C6",
                    "midi": 84,
                    "time": 38.100000000000065,
                    "velocity": 0.5905511811023622,
                    "duration": 0.04999999999999716
                },
                {
                    "name": "D6",
                    "midi": 86,
                    "time": 38.15000000000006,
                    "velocity": 0.5905511811023622,
                    "duration": 0.04999999999999716
                },
                {
                    "name": "C6",
                    "midi": 84,
                    "time": 38.20000000000006,
                    "velocity": 0.5905511811023622,
                    "duration": 0.04999999999999716
                },
                {
                    "name": "A5",
                    "midi": 81,
                    "time": 38.25000000000006,
                    "velocity": 0.5905511811023622,
                    "duration": 0.07500000000000284
                },
                {
                    "name": "G5",
                    "midi": 79,
                    "time": 38.32500000000006,
                    "velocity": 0.5905511811023622,
                    "duration": 0.07500000000000284
                },
                {
                    "name": "F5",
                    "midi": 77,
                    "time": 38.40000000000006,
                    "velocity": 0.5905511811023622,
                    "duration": 0.10000000000000142
                },
                {
                    "name": "C6",
                    "midi": 84,
                    "time": 38.70000000000007,
                    "velocity": 0.5905511811023622,
                    "duration": 0.10000000000000142
                },
                {
                    "name": "D6",
                    "midi": 86,
                    "time": 39.00000000000007,
                    "velocity": 0.5905511811023622,
                    "duration": 0.07500000000000284
                },
                {
                    "name": "D#6",
                    "midi": 87,
                    "time": 39.075000000000074,
                    "velocity": 0.5905511811023622,
                    "duration": 0.07500000000000284
                },
                {
                    "name": "D6",
                    "midi": 86,
                    "time": 39.15000000000008,
                    "velocity": 0.5905511811023622,
                    "duration": 0.07500000000000284
                },
                {
                    "name": "D#6",
                    "midi": 87,
                    "time": 39.22500000000008,
                    "velocity": 0.5905511811023622,
                    "duration": 0.07500000000000284
                },
                {
                    "name": "F6",
                    "midi": 89,
                    "time": 39.30000000000008,
                    "velocity": 0.5905511811023622,
                    "duration": 0.10000000000000142
                },
                {
                    "name": "D#6",
                    "midi": 87,
                    "time": 39.60000000000009,
                    "velocity": 0.5905511811023622,
                    "duration": 0.10000000000000142
                },
                {
                    "name": "D6",
                    "midi": 86,
                    "time": 39.750000000000085,
                    "velocity": 0.5905511811023622,
                    "duration": 0.10000000000000142
                },
                {
                    "name": "C6",
                    "midi": 84,
                    "time": 39.900000000000084,
                    "velocity": 0.5905511811023622,
                    "duration": 0.07500000000000284
                },
                {
                    "name": "D6",
                    "midi": 86,
                    "time": 39.97500000000009,
                    "velocity": 0.5905511811023622,
                    "duration": 0.07500000000000284
                },
                {
                    "name": "C6",
                    "midi": 84,
                    "time": 40.05000000000009,
                    "velocity": 0.5905511811023622,
                    "duration": 0.07500000000000284
                },
                {
                    "name": "D6",
                    "midi": 86,
                    "time": 40.12500000000009,
                    "velocity": 0.5905511811023622,
                    "duration": 0.07500000000000284
                },
                {
                    "name": "D#6",
                    "midi": 87,
                    "time": 40.200000000000095,
                    "velocity": 0.5905511811023622,
                    "duration": 0.10000000000000142
                },
                {
                    "name": "D6",
                    "midi": 86,
                    "time": 40.5000000000001,
                    "velocity": 0.5905511811023622,
                    "duration": 0.10000000000000142
                },
                {
                    "name": "C6",
                    "midi": 84,
                    "time": 40.6500000000001,
                    "velocity": 0.5905511811023622,
                    "duration": 0.10000000000000142
                },
                {
                    "name": "A#5",
                    "midi": 82,
                    "time": 40.8000000000001,
                    "velocity": 0.5905511811023622,
                    "duration": 0.07500000000000284
                },
                {
                    "name": "C6",
                    "midi": 84,
                    "time": 40.8750000000001,
                    "velocity": 0.5905511811023622,
                    "duration": 0.07500000000000284
                },
                {
                    "name": "A#5",
                    "midi": 82,
                    "time": 40.9500000000001,
                    "velocity": 0.5905511811023622,
                    "duration": 0.07500000000000284
                },
                {
                    "name": "C6",
                    "midi": 84,
                    "time": 41.025000000000105,
                    "velocity": 0.5905511811023622,
                    "duration": 0.07500000000000284
                },
                {
                    "name": "D6",
                    "midi": 86,
                    "time": 41.10000000000011,
                    "velocity": 0.5905511811023622,
                    "duration": 0.10000000000000142
                },
                {
                    "name": "C6",
                    "midi": 84,
                    "time": 41.40000000000011,
                    "velocity": 0.5905511811023622,
                    "duration": 0.10000000000000142
                },
                {
                    "name": "A#5",
                    "midi": 82,
                    "time": 41.55000000000011,
                    "velocity": 0.5905511811023622,
                    "duration": 0.10000000000000142
                },
                {
                    "name": "A5",
                    "midi": 81,
                    "time": 41.70000000000011,
                    "velocity": 0.5905511811023622,
                    "duration": 0.07500000000000284
                },
                {
                    "name": "A#5",
                    "midi": 82,
                    "time": 41.77500000000011,
                    "velocity": 0.5905511811023622,
                    "duration": 0.07500000000000284
                },
                {
                    "name": "A5",
                    "midi": 81,
                    "time": 41.850000000000115,
                    "velocity": 0.5905511811023622,
                    "duration": 0.07500000000000284
                },
                {
                    "name": "A#5",
                    "midi": 82,
                    "time": 41.92500000000012,
                    "velocity": 0.5905511811023622,
                    "duration": 0.07500000000000284
                },
                {
                    "name": "C6",
                    "midi": 84,
                    "time": 42.00000000000012,
                    "velocity": 0.5905511811023622,
                    "duration": 0.10000000000000142
                },
                {
                    "name": "A#5",
                    "midi": 82,
                    "time": 42.300000000000125,
                    "velocity": 0.5905511811023622,
                    "duration": 0.10000000000000142
                },
                {
                    "name": "A5",
                    "midi": 81,
                    "time": 42.450000000000124,
                    "velocity": 0.5905511811023622,
                    "duration": 0.10000000000000142
                },
                {
                    "name": "A#5",
                    "midi": 82,
                    "time": 42.60000000000012,
                    "velocity": 0.5905511811023622,
                    "duration": 0.6000000000000014
                },
                {
                    "name": "B5",
                    "midi": 83,
                    "time": 43.200000000000124,
                    "velocity": 0.5905511811023622,
                    "duration": 0.29999999999999716
                },
                {
                    "name": "C6",
                    "midi": 84,
                    "time": 43.50000000000012,
                    "velocity": 0.8267716535433071,
                    "duration": 1.1937500000000014
                },
                {
                    "name": "A#5",
                    "midi": 82,
                    "time": 44.700000000000124,
                    "velocity": 0.5905511811023622,
                    "duration": 0.10000000000000142
                },
                {
                    "name": "G#5",
                    "midi": 80,
                    "time": 45.00000000000013,
                    "velocity": 0.5905511811023622,
                    "duration": 0.10000000000000142
                },
                {
                    "name": "G5",
                    "midi": 79,
                    "time": 45.30000000000013,
                    "velocity": 0.5905511811023622,
                    "duration": 0.10000000000000142
                },
                {
                    "name": "G#5",
                    "midi": 80,
                    "time": 45.400000000000134,
                    "velocity": 0.5905511811023622,
                    "duration": 0.10000000000000142
                },
                {
                    "name": "G5",
                    "midi": 79,
                    "time": 45.500000000000135,
                    "velocity": 0.5905511811023622,
                    "duration": 0.10000000000000142
                },
                {
                    "name": "F5",
                    "midi": 77,
                    "time": 45.600000000000136,
                    "velocity": 0.5905511811023622,
                    "duration": 0.10000000000000142
                },
                {
                    "name": "G5",
                    "midi": 79,
                    "time": 45.90000000000014,
                    "velocity": 0.5905511811023622,
                    "duration": 0.10000000000000142
                },
                {
                    "name": "G#5",
                    "midi": 80,
                    "time": 46.200000000000145,
                    "velocity": 0.5905511811023622,
                    "duration": 0.29999999999999716
                },
                {
                    "name": "F6",
                    "midi": 89,
                    "time": 46.50000000000014,
                    "velocity": 0.5905511811023622,
                    "duration": 0.10000000000000142
                },
                {
                    "name": "F5",
                    "midi": 77,
                    "time": 46.800000000000146,
                    "velocity": 0.5905511811023622,
                    "duration": 0.10000000000000142
                },
                {
                    "name": "A#5",
                    "midi": 82,
                    "time": 47.10000000000015,
                    "velocity": 0.8267716535433071,
                    "duration": 1.1937500000000014
                },
                {
                    "name": "G#5",
                    "midi": 80,
                    "time": 48.30000000000015,
                    "velocity": 0.5905511811023622,
                    "duration": 0.10000000000000142
                },
                {
                    "name": "G5",
                    "midi": 79,
                    "time": 48.60000000000016,
                    "velocity": 0.5905511811023622,
                    "duration": 0.10000000000000142
                },
                {
                    "name": "F5",
                    "midi": 77,
                    "time": 48.90000000000016,
                    "velocity": 0.5905511811023622,
                    "duration": 0.10000000000000142
                },
                {
                    "name": "G5",
                    "midi": 79,
                    "time": 49.00000000000016,
                    "velocity": 0.5905511811023622,
                    "duration": 0.10000000000000142
                },
                {
                    "name": "F5",
                    "midi": 77,
                    "time": 49.100000000000165,
                    "velocity": 0.5905511811023622,
                    "duration": 0.10000000000000142
                },
                {
                    "name": "D#5",
                    "midi": 75,
                    "time": 49.200000000000166,
                    "velocity": 0.5905511811023622,
                    "duration": 0.10000000000000142
                },
                {
                    "name": "F5",
                    "midi": 77,
                    "time": 49.50000000000017,
                    "velocity": 0.5905511811023622,
                    "duration": 0.10000000000000142
                },
                {
                    "name": "G5",
                    "midi": 79,
                    "time": 49.800000000000175,
                    "velocity": 0.5905511811023622,
                    "duration": 0.29999999999999716
                },
                {
                    "name": "D#6",
                    "midi": 87,
                    "time": 50.10000000000017,
                    "velocity": 0.5905511811023622,
                    "duration": 0.10000000000000142
                },
                {
                    "name": "D#5",
                    "midi": 75,
                    "time": 50.400000000000176,
                    "velocity": 0.5905511811023622,
                    "duration": 0.10000000000000142
                },
                {
                    "name": "G5",
                    "midi": 79,
                    "time": 50.70000000000018,
                    "velocity": 0.5905511811023622,
                    "duration": 1.1937500000000014
                },
                {
                    "name": "G6",
                    "midi": 91,
                    "time": 51.90000000000018,
                    "velocity": 0.5905511811023622,
                    "duration": 0.10000000000000142
                },
                {
                    "name": "G6",
                    "midi": 91,
                    "time": 52.20000000000019,
                    "velocity": 0.5905511811023622,
                    "duration": 0.10000000000000142
                },
                {
                    "name": "G#6",
                    "midi": 92,
                    "time": 52.50000000000019,
                    "velocity": 0.5905511811023622,
                    "duration": 0.14999999999999858
                },
                {
                    "name": "G6",
                    "midi": 91,
                    "time": 52.65000000000019,
                    "velocity": 0.5905511811023622,
                    "duration": 0.10000000000000142
                },
                {
                    "name": "F6",
                    "midi": 89,
                    "time": 52.80000000000019,
                    "velocity": 0.5905511811023622,
                    "duration": 0.10000000000000142
                },
                {
                    "name": "D#6",
                    "midi": 87,
                    "time": 52.95000000000019,
                    "velocity": 0.5905511811023622,
                    "duration": 0.10000000000000142
                },
                {
                    "name": "D6",
                    "midi": 86,
                    "time": 53.100000000000186,
                    "velocity": 0.5905511811023622,
                    "duration": 0.10000000000000142
                },
                {
                    "name": "C6",
                    "midi": 84,
                    "time": 53.250000000000185,
                    "velocity": 0.5905511811023622,
                    "duration": 0.10000000000000142
                },
                {
                    "name": "B5",
                    "midi": 83,
                    "time": 53.40000000000018,
                    "velocity": 0.5905511811023622,
                    "duration": 0.29999999999999716
                },
                {
                    "name": "G5",
                    "midi": 79,
                    "time": 53.70000000000018,
                    "velocity": 0.5905511811023622,
                    "duration": 0.10000000000000142
                },
                {
                    "name": "G5",
                    "midi": 79,
                    "time": 54.000000000000185,
                    "velocity": 0.5905511811023622,
                    "duration": 0.10000000000000142
                },
                {
                    "name": "G6",
                    "midi": 91,
                    "time": 54.30000000000019,
                    "velocity": 0.5905511811023622,
                    "duration": 1.1937500000000014
                },
                {
                    "name": "G6",
                    "midi": 91,
                    "time": 55.50000000000019,
                    "velocity": 0.5905511811023622,
                    "duration": 0.10000000000000142
                },
                {
                    "name": "G6",
                    "midi": 91,
                    "time": 55.800000000000196,
                    "velocity": 0.5905511811023622,
                    "duration": 0.10000000000000142
                },
                {
                    "name": "G#6",
                    "midi": 92,
                    "time": 56.1000000000002,
                    "velocity": 0.5905511811023622,
                    "duration": 0.14999999999999858
                },
                {
                    "name": "G6",
                    "midi": 91,
                    "time": 56.2500000000002,
                    "velocity": 0.5905511811023622,
                    "duration": 0.10000000000000142
                },
                {
                    "name": "F6",
                    "midi": 89,
                    "time": 56.4000000000002,
                    "velocity": 0.5905511811023622,
                    "duration": 0.10000000000000142
                },
                {
                    "name": "D#6",
                    "midi": 87,
                    "time": 56.550000000000196,
                    "velocity": 0.5905511811023622,
                    "duration": 0.10000000000000142
                },
                {
                    "name": "D6",
                    "midi": 86,
                    "time": 56.700000000000195,
                    "velocity": 0.5905511811023622,
                    "duration": 0.10000000000000142
                },
                {
                    "name": "C6",
                    "midi": 84,
                    "time": 56.85000000000019,
                    "velocity": 0.5905511811023622,
                    "duration": 0.10000000000000142
                },
                {
                    "name": "B5",
                    "midi": 83,
                    "time": 57.00000000000019,
                    "velocity": 0.5905511811023622,
                    "duration": 0.6000000000000014
                },
                {
                    "name": "G5",
                    "midi": 79,
                    "time": 57.60000000000019,
                    "velocity": 0.5905511811023622,
                    "duration": 0.10000000000000142
                },
                {
                    "name": "G6",
                    "midi": 91,
                    "time": 57.9000000000002,
                    "velocity": 0.3543307086614173,
                    "duration": 0.10000000000000142
                },
                {
                    "name": "G6",
                    "midi": 91,
                    "time": 58.2000000000002,
                    "velocity": 0.3543307086614173,
                    "duration": 0.10000000000000142
                },
                {
                    "name": "G6",
                    "midi": 91,
                    "time": 58.500000000000206,
                    "velocity": 0.3543307086614173,
                    "duration": 0.10000000000000142
                },
                {
                    "name": "G5",
                    "midi": 79,
                    "time": 58.80000000000021,
                    "velocity": 0.3543307086614173,
                    "duration": 0.10000000000000142
                },
                {
                    "name": "G5",
                    "midi": 79,
                    "time": 59.100000000000215,
                    "velocity": 0.3543307086614173,
                    "duration": 0.10000000000000142
                },
                {
                    "name": "G5",
                    "midi": 79,
                    "time": 59.40000000000022,
                    "velocity": 0.3543307086614173,
                    "duration": 0.10000000000000142
                },
                {
                    "name": "G4",
                    "midi": 67,
                    "time": 59.70000000000022,
                    "velocity": 0.3543307086614173,
                    "duration": 0.10000000000000142
                },
                {
                    "name": "G4",
                    "midi": 67,
                    "time": 60.00000000000023,
                    "velocity": 0.3543307086614173,
                    "duration": 0.10000000000000142
                },
                {
                    "name": "G4",
                    "midi": 67,
                    "time": 60.30000000000023,
                    "velocity": 0.3543307086614173,
                    "duration": 0.10000000000000142
                },
                {
                    "name": "G5",
                    "midi": 79,
                    "time": 62.100000000000236,
                    "velocity": 0.5905511811023622,
                    "duration": 0.10000000000000142
                },
                {
                    "name": "G6",
                    "midi": 91,
                    "time": 62.40000000000024,
                    "velocity": 0.5905511811023622,
                    "duration": 0.10000000000000142
                },
                {
                    "name": "G6",
                    "midi": 91,
                    "time": 62.700000000000244,
                    "velocity": 0.5905511811023622,
                    "duration": 0.10000000000000142
                },
                {
                    "name": "F6",
                    "midi": 89,
                    "time": 63.00000000000025,
                    "velocity": 0.5905511811023622,
                    "duration": 0.10000000000000142
                },
                {
                    "name": "D#6",
                    "midi": 87,
                    "time": 63.30000000000025,
                    "velocity": 0.5905511811023622,
                    "duration": 0.10000000000000142
                },
                {
                    "name": "D#6",
                    "midi": 87,
                    "time": 63.60000000000026,
                    "velocity": 0.5905511811023622,
                    "duration": 0.10000000000000142
                },
                {
                    "name": "D6",
                    "midi": 86,
                    "time": 63.90000000000026,
                    "velocity": 0.5905511811023622,
                    "duration": 0.09999999999999432
                },
                {
                    "name": "C6",
                    "midi": 84,
                    "time": 64.20000000000026,
                    "velocity": 0.5905511811023622,
                    "duration": 0.09999999999999432
                },
                {
                    "name": "B5",
                    "midi": 83,
                    "time": 64.50000000000026,
                    "velocity": 0.5905511811023622,
                    "duration": 0.09999999999999432
                },
                {
                    "name": "C6",
                    "midi": 84,
                    "time": 64.80000000000025,
                    "velocity": 0.5905511811023622,
                    "duration": 0.09999999999999432
                },
                {
                    "name": "B5",
                    "midi": 83,
                    "time": 65.10000000000025,
                    "velocity": 0.5905511811023622,
                    "duration": 0.07500000000000284
                },
                {
                    "name": "C6",
                    "midi": 84,
                    "time": 65.17500000000025,
                    "velocity": 0.5905511811023622,
                    "duration": 0.07500000000000284
                },
                {
                    "name": "D6",
                    "midi": 86,
                    "time": 65.25000000000026,
                    "velocity": 0.5905511811023622,
                    "duration": 0.09999999999999432
                },
                {
                    "name": "G5",
                    "midi": 79,
                    "time": 65.40000000000025,
                    "velocity": 0.5905511811023622,
                    "duration": 0.09999999999999432
                },
                {
                    "name": "G5",
                    "midi": 79,
                    "time": 65.70000000000024,
                    "velocity": 0.5905511811023622,
                    "duration": 0.09999999999999432
                },
                {
                    "name": "A#5",
                    "midi": 82,
                    "time": 66.00000000000024,
                    "velocity": 0.5905511811023622,
                    "duration": 0.07500000000000284
                },
                {
                    "name": "G#5",
                    "midi": 80,
                    "time": 66.07500000000024,
                    "velocity": 0.5905511811023622,
                    "duration": 0.15000000000000568
                },
                {
                    "name": "G5",
                    "midi": 79,
                    "time": 66.30000000000025,
                    "velocity": 0.5905511811023622,
                    "duration": 0.09999999999999432
                },
                {
                    "name": "F5",
                    "midi": 77,
                    "time": 66.60000000000025,
                    "velocity": 0.5905511811023622,
                    "duration": 0.09999999999999432
                },
                {
                    "name": "D#5",
                    "midi": 75,
                    "time": 66.90000000000025,
                    "velocity": 0.5905511811023622,
                    "duration": 0.09999999999999432
                },
                {
                    "name": "D5",
                    "midi": 74,
                    "time": 67.20000000000024,
                    "velocity": 0.5905511811023622,
                    "duration": 0.09999999999999432
                },
                {
                    "name": "C5",
                    "midi": 72,
                    "time": 67.50000000000024,
                    "velocity": 0.5905511811023622,
                    "duration": 0.09999999999999432
                },
                {
                    "name": "F5",
                    "midi": 77,
                    "time": 67.80000000000024,
                    "velocity": 0.5905511811023622,
                    "duration": 0.07500000000000284
                },
                {
                    "name": "D#5",
                    "midi": 75,
                    "time": 67.87500000000024,
                    "velocity": 0.5905511811023622,
                    "duration": 0.15000000000000568
                },
                {
                    "name": "D5",
                    "midi": 74,
                    "time": 68.10000000000025,
                    "velocity": 0.5905511811023622,
                    "duration": 0.09999999999999432
                },
                {
                    "name": "C5",
                    "midi": 72,
                    "time": 68.40000000000025,
                    "velocity": 0.5905511811023622,
                    "duration": 0.09999999999999432
                },
                {
                    "name": "D5",
                    "midi": 74,
                    "time": 68.70000000000024,
                    "velocity": 0.5905511811023622,
                    "duration": 0.5999999999999943
                },
                {
                    "name": "G5",
                    "midi": 79,
                    "time": 69.30000000000024,
                    "velocity": 0.5905511811023622,
                    "duration": 0.29999999999999716
                },
                {
                    "name": "G6",
                    "midi": 91,
                    "time": 69.60000000000024,
                    "velocity": 0.5905511811023622,
                    "duration": 0.09999999999999432
                },
                {
                    "name": "G6",
                    "midi": 91,
                    "time": 69.90000000000023,
                    "velocity": 0.5905511811023622,
                    "duration": 0.09999999999999432
                },
                {
                    "name": "F6",
                    "midi": 89,
                    "time": 70.20000000000023,
                    "velocity": 0.5905511811023622,
                    "duration": 0.09999999999999432
                },
                {
                    "name": "E6",
                    "midi": 88,
                    "time": 70.50000000000023,
                    "velocity": 0.5905511811023622,
                    "duration": 0.09999999999999432
                },
                {
                    "name": "E6",
                    "midi": 88,
                    "time": 70.80000000000022,
                    "velocity": 0.5905511811023622,
                    "duration": 0.09999999999999432
                },
                {
                    "name": "D6",
                    "midi": 86,
                    "time": 71.10000000000022,
                    "velocity": 0.5905511811023622,
                    "duration": 0.09999999999999432
                },
                {
                    "name": "C6",
                    "midi": 84,
                    "time": 71.40000000000022,
                    "velocity": 0.5905511811023622,
                    "duration": 0.09999999999999432
                },
                {
                    "name": "C6",
                    "midi": 84,
                    "time": 71.70000000000022,
                    "velocity": 0.5905511811023622,
                    "duration": 0.09999999999999432
                },
                {
                    "name": "A#5",
                    "midi": 82,
                    "time": 72.00000000000021,
                    "velocity": 0.5905511811023622,
                    "duration": 0.09999999999999432
                },
                {
                    "name": "A5",
                    "midi": 81,
                    "time": 72.30000000000021,
                    "velocity": 0.5905511811023622,
                    "duration": 0.09999999999999432
                },
                {
                    "name": "G5",
                    "midi": 79,
                    "time": 72.60000000000021,
                    "velocity": 0.5905511811023622,
                    "duration": 0.09999999999999432
                },
                {
                    "name": "F5",
                    "midi": 77,
                    "time": 72.9000000000002,
                    "velocity": 0.5905511811023622,
                    "duration": 0.09999999999999432
                },
                {
                    "name": "A#5",
                    "midi": 82,
                    "time": 73.2000000000002,
                    "velocity": 0.5905511811023622,
                    "duration": 0.07500000000000284
                },
                {
                    "name": "G#5",
                    "midi": 80,
                    "time": 73.2750000000002,
                    "velocity": 0.5905511811023622,
                    "duration": 0.15000000000000568
                },
                {
                    "name": "G5",
                    "midi": 79,
                    "time": 73.50000000000021,
                    "velocity": 0.5905511811023622,
                    "duration": 0.09999999999999432
                },
                {
                    "name": "F5",
                    "midi": 77,
                    "time": 73.80000000000021,
                    "velocity": 0.5905511811023622,
                    "duration": 0.09999999999999432
                },
                {
                    "name": "G5",
                    "midi": 79,
                    "time": 74.10000000000021,
                    "velocity": 0.5905511811023622,
                    "duration": 0.09999999999999432
                },
                {
                    "name": "C6",
                    "midi": 84,
                    "time": 74.4000000000002,
                    "velocity": 0.5905511811023622,
                    "duration": 0.09999999999999432
                },
                {
                    "name": "D#6",
                    "midi": 87,
                    "time": 74.5500000000002,
                    "velocity": 0.5905511811023622,
                    "duration": 0.09999999999999432
                },
                {
                    "name": "G6",
                    "midi": 91,
                    "time": 74.70000000000019,
                    "velocity": 0.5905511811023622,
                    "duration": 0.09999999999999432
                },
                {
                    "name": "G5",
                    "midi": 79,
                    "time": 75.00000000000018,
                    "velocity": 0.5905511811023622,
                    "duration": 0.09999999999999432
                },
                {
                    "name": "B5",
                    "midi": 83,
                    "time": 75.30000000000018,
                    "velocity": 0.5905511811023622,
                    "duration": 0.09999999999999432
                },
                {
                    "name": "D6",
                    "midi": 86,
                    "time": 75.45000000000017,
                    "velocity": 0.5905511811023622,
                    "duration": 0.09999999999999432
                },
                {
                    "name": "G6",
                    "midi": 91,
                    "time": 75.60000000000016,
                    "velocity": 0.5905511811023622,
                    "duration": 0.09999999999999432
                },
                {
                    "name": "C6",
                    "midi": 84,
                    "time": 75.90000000000016,
                    "velocity": 0.5905511811023622,
                    "duration": 0.09999999999999432
                },
                {
                    "name": "C7",
                    "midi": 96,
                    "time": 76.20000000000016,
                    "velocity": 0.5905511811023622,
                    "duration": 0.09999999999999432
                },
                {
                    "name": "G5",
                    "midi": 79,
                    "time": 76.50000000000016,
                    "velocity": 0.7244094488188977,
                    "duration": 0.29999999999999716
                },
                {
                    "name": "G6",
                    "midi": 91,
                    "time": 76.80000000000015,
                    "velocity": 0.7244094488188977,
                    "duration": 0.09999999999999432
                },
                {
                    "name": "G6",
                    "midi": 91,
                    "time": 77.10000000000015,
                    "velocity": 0.7244094488188977,
                    "duration": 0.09999999999999432
                },
                {
                    "name": "F6",
                    "midi": 89,
                    "time": 77.40000000000015,
                    "velocity": 0.7244094488188977,
                    "duration": 0.09999999999999432
                },
                {
                    "name": "D#6",
                    "midi": 87,
                    "time": 77.70000000000014,
                    "velocity": 0.7244094488188977,
                    "duration": 0.09999999999999432
                },
                {
                    "name": "D#6",
                    "midi": 87,
                    "time": 78.00000000000014,
                    "velocity": 0.7244094488188977,
                    "duration": 0.09999999999999432
                },
                {
                    "name": "D6",
                    "midi": 86,
                    "time": 78.30000000000014,
                    "velocity": 0.7244094488188977,
                    "duration": 0.09999999999999432
                },
                {
                    "name": "C6",
                    "midi": 84,
                    "time": 78.60000000000014,
                    "velocity": 0.7244094488188977,
                    "duration": 0.09999999999999432
                },
                {
                    "name": "B5",
                    "midi": 83,
                    "time": 78.90000000000013,
                    "velocity": 0.7244094488188977,
                    "duration": 0.09999999999999432
                },
                {
                    "name": "C6",
                    "midi": 84,
                    "time": 79.20000000000013,
                    "velocity": 0.7244094488188977,
                    "duration": 0.09999999999999432
                },
                {
                    "name": "B5",
                    "midi": 83,
                    "time": 79.50000000000013,
                    "velocity": 0.7244094488188977,
                    "duration": 0.07500000000000284
                },
                {
                    "name": "C6",
                    "midi": 84,
                    "time": 79.57500000000013,
                    "velocity": 0.7244094488188977,
                    "duration": 0.07500000000000284
                },
                {
                    "name": "D6",
                    "midi": 86,
                    "time": 79.65000000000013,
                    "velocity": 0.7244094488188977,
                    "duration": 0.09999999999999432
                },
                {
                    "name": "G5",
                    "midi": 79,
                    "time": 79.80000000000013,
                    "velocity": 0.7244094488188977,
                    "duration": 0.09999999999999432
                },
                {
                    "name": "G5",
                    "midi": 79,
                    "time": 80.10000000000012,
                    "velocity": 0.7244094488188977,
                    "duration": 0.09999999999999432
                },
                {
                    "name": "A#5",
                    "midi": 82,
                    "time": 80.40000000000012,
                    "velocity": 0.7244094488188977,
                    "duration": 0.07500000000000284
                },
                {
                    "name": "G#5",
                    "midi": 80,
                    "time": 80.47500000000012,
                    "velocity": 0.7244094488188977,
                    "duration": 0.15000000000000568
                },
                {
                    "name": "G5",
                    "midi": 79,
                    "time": 80.70000000000013,
                    "velocity": 0.7244094488188977,
                    "duration": 0.09999999999999432
                },
                {
                    "name": "F5",
                    "midi": 77,
                    "time": 81.00000000000013,
                    "velocity": 0.7244094488188977,
                    "duration": 0.09999999999999432
                },
                {
                    "name": "D#5",
                    "midi": 75,
                    "time": 81.30000000000013,
                    "velocity": 0.7244094488188977,
                    "duration": 0.09999999999999432
                },
                {
                    "name": "D5",
                    "midi": 74,
                    "time": 81.60000000000012,
                    "velocity": 0.7244094488188977,
                    "duration": 0.09999999999999432
                },
                {
                    "name": "C5",
                    "midi": 72,
                    "time": 81.90000000000012,
                    "velocity": 0.7244094488188977,
                    "duration": 0.09999999999999432
                },
                {
                    "name": "F5",
                    "midi": 77,
                    "time": 82.20000000000012,
                    "velocity": 0.7244094488188977,
                    "duration": 0.07500000000000284
                },
                {
                    "name": "D#5",
                    "midi": 75,
                    "time": 82.27500000000012,
                    "velocity": 0.7244094488188977,
                    "duration": 0.15000000000000568
                },
                {
                    "name": "D5",
                    "midi": 74,
                    "time": 82.50000000000013,
                    "velocity": 0.7244094488188977,
                    "duration": 0.09999999999999432
                },
                {
                    "name": "C5",
                    "midi": 72,
                    "time": 82.80000000000013,
                    "velocity": 0.7244094488188977,
                    "duration": 0.09999999999999432
                },
                {
                    "name": "D5",
                    "midi": 74,
                    "time": 83.10000000000012,
                    "velocity": 0.7244094488188977,
                    "duration": 0.5999999999999943
                },
                {
                    "name": "G5",
                    "midi": 79,
                    "time": 83.70000000000012,
                    "velocity": 0.7244094488188977,
                    "duration": 0.29999999999999716
                },
                {
                    "name": "G6",
                    "midi": 91,
                    "time": 84.00000000000011,
                    "velocity": 0.7244094488188977,
                    "duration": 0.09999999999999432
                },
                {
                    "name": "G6",
                    "midi": 91,
                    "time": 84.30000000000011,
                    "velocity": 0.7244094488188977,
                    "duration": 0.09999999999999432
                },
                {
                    "name": "F6",
                    "midi": 89,
                    "time": 84.60000000000011,
                    "velocity": 0.7244094488188977,
                    "duration": 0.09999999999999432
                },
                {
                    "name": "E6",
                    "midi": 88,
                    "time": 84.9000000000001,
                    "velocity": 0.7244094488188977,
                    "duration": 0.09999999999999432
                },
                {
                    "name": "E6",
                    "midi": 88,
                    "time": 85.2000000000001,
                    "velocity": 0.7244094488188977,
                    "duration": 0.09999999999999432
                },
                {
                    "name": "D6",
                    "midi": 86,
                    "time": 85.5000000000001,
                    "velocity": 0.7244094488188977,
                    "duration": 0.09999999999999432
                },
                {
                    "name": "C6",
                    "midi": 84,
                    "time": 85.8000000000001,
                    "velocity": 0.7244094488188977,
                    "duration": 0.09999999999999432
                },
                {
                    "name": "B5",
                    "midi": 83,
                    "time": 86.1000000000001,
                    "velocity": 0.7244094488188977,
                    "duration": 0.09999999999999432
                },
                {
                    "name": "C6",
                    "midi": 84,
                    "time": 86.40000000000009,
                    "velocity": 0.7244094488188977,
                    "duration": 0.09999999999999432
                },
                {
                    "name": "B5",
                    "midi": 83,
                    "time": 86.70000000000009,
                    "velocity": 0.7244094488188977,
                    "duration": 0.07500000000000284
                },
                {
                    "name": "C6",
                    "midi": 84,
                    "time": 86.77500000000009,
                    "velocity": 0.7244094488188977,
                    "duration": 0.07500000000000284
                },
                {
                    "name": "D6",
                    "midi": 86,
                    "time": 86.8500000000001,
                    "velocity": 0.7244094488188977,
                    "duration": 0.09999999999999432
                },
                {
                    "name": "G5",
                    "midi": 79,
                    "time": 87.00000000000009,
                    "velocity": 0.7244094488188977,
                    "duration": 0.09999999999999432
                },
                {
                    "name": "G5",
                    "midi": 79,
                    "time": 87.30000000000008,
                    "velocity": 0.7244094488188977,
                    "duration": 0.09999999999999432
                },
                {
                    "name": "A#5",
                    "midi": 82,
                    "time": 87.60000000000008,
                    "velocity": 0.7244094488188977,
                    "duration": 0.07500000000000284
                },
                {
                    "name": "G#5",
                    "midi": 80,
                    "time": 87.67500000000008,
                    "velocity": 0.7244094488188977,
                    "duration": 0.15000000000000568
                },
                {
                    "name": "G5",
                    "midi": 79,
                    "time": 87.90000000000009,
                    "velocity": 0.7244094488188977,
                    "duration": 0.09999999999999432
                },
                {
                    "name": "F5",
                    "midi": 77,
                    "time": 88.20000000000009,
                    "velocity": 0.7244094488188977,
                    "duration": 0.09999999999999432
                },
                {
                    "name": "G5",
                    "midi": 79,
                    "time": 88.50000000000009,
                    "velocity": 0.7244094488188977,
                    "duration": 0.09999999999999432
                },
                {
                    "name": "C6",
                    "midi": 84,
                    "time": 88.80000000000008,
                    "velocity": 0.7244094488188977,
                    "duration": 0.09999999999999432
                },
                {
                    "name": "D#6",
                    "midi": 87,
                    "time": 88.95000000000007,
                    "velocity": 0.7244094488188977,
                    "duration": 0.09999999999999432
                },
                {
                    "name": "G6",
                    "midi": 91,
                    "time": 89.10000000000007,
                    "velocity": 0.7244094488188977,
                    "duration": 0.09999999999999432
                },
                {
                    "name": "G5",
                    "midi": 79,
                    "time": 89.40000000000006,
                    "velocity": 0.7244094488188977,
                    "duration": 0.09999999999999432
                },
                {
                    "name": "B5",
                    "midi": 83,
                    "time": 89.70000000000006,
                    "velocity": 0.7244094488188977,
                    "duration": 0.09999999999999432
                },
                {
                    "name": "D6",
                    "midi": 86,
                    "time": 89.85000000000005,
                    "velocity": 0.7244094488188977,
                    "duration": 0.09999999999999432
                },
                {
                    "name": "G6",
                    "midi": 91,
                    "time": 90.00000000000004,
                    "velocity": 0.7244094488188977,
                    "duration": 0.09999999999999432
                },
                {
                    "name": "C6",
                    "midi": 84,
                    "time": 90.30000000000004,
                    "velocity": 0.5905511811023622,
                    "duration": 0.9000000000000057
                },
                {
                    "name": "C6",
                    "midi": 84,
                    "time": 91.20000000000005,
                    "velocity": 0.3543307086614173,
                    "duration": 0.5
                },
                {
                    "name": "G#5",
                    "midi": 80,
                    "time": 120.90000000000003,
                    "velocity": 0.5905511811023622,
                    "duration": 0.09999999999999432
                },
                {
                    "name": "C6",
                    "midi": 84,
                    "time": 120.90000000000003,
                    "velocity": 0.5905511811023622,
                    "duration": 0.09999999999999432
                },
                {
                    "name": "G#5",
                    "midi": 80,
                    "time": 121.20000000000003,
                    "velocity": 0.5905511811023622,
                    "duration": 0.09999999999999432
                },
                {
                    "name": "C6",
                    "midi": 84,
                    "time": 121.20000000000003,
                    "velocity": 0.5905511811023622,
                    "duration": 0.09999999999999432
                },
                {
                    "name": "G#5",
                    "midi": 80,
                    "time": 121.35000000000002,
                    "velocity": 0.5905511811023622,
                    "duration": 0.09999999999999432
                },
                {
                    "name": "C6",
                    "midi": 84,
                    "time": 121.35000000000002,
                    "velocity": 0.5905511811023622,
                    "duration": 0.09999999999999432
                },
                {
                    "name": "G#5",
                    "midi": 80,
                    "time": 121.50000000000001,
                    "velocity": 0.5905511811023622,
                    "duration": 0.09999999999999432
                },
                {
                    "name": "C6",
                    "midi": 84,
                    "time": 121.50000000000001,
                    "velocity": 0.5905511811023622,
                    "duration": 0.09999999999999432
                },
                {
                    "name": "G#5",
                    "midi": 80,
                    "time": 121.80000000000001,
                    "velocity": 0.5905511811023622,
                    "duration": 0.09999999999999432
                },
                {
                    "name": "C6",
                    "midi": 84,
                    "time": 121.80000000000001,
                    "velocity": 0.5905511811023622,
                    "duration": 0.09999999999999432
                },
                {
                    "name": "G#5",
                    "midi": 80,
                    "time": 122.10000000000001,
                    "velocity": 0.5905511811023622,
                    "duration": 0.09999999999999432
                },
                {
                    "name": "C6",
                    "midi": 84,
                    "time": 122.10000000000001,
                    "velocity": 0.5905511811023622,
                    "duration": 0.09999999999999432
                },
                {
                    "name": "G5",
                    "midi": 79,
                    "time": 122.4,
                    "velocity": 0.5905511811023622,
                    "duration": 0.09999999999999432
                },
                {
                    "name": "C6",
                    "midi": 84,
                    "time": 122.4,
                    "velocity": 0.5905511811023622,
                    "duration": 0.09999999999999432
                },
                {
                    "name": "G#5",
                    "midi": 80,
                    "time": 122.7,
                    "velocity": 0.5905511811023622,
                    "duration": 0.09999999999999432
                },
                {
                    "name": "C6",
                    "midi": 84,
                    "time": 122.7,
                    "velocity": 0.5905511811023622,
                    "duration": 0.09999999999999432
                },
                {
                    "name": "G#5",
                    "midi": 80,
                    "time": 123,
                    "velocity": 0.5905511811023622,
                    "duration": 0.09999999999999432
                },
                {
                    "name": "C6",
                    "midi": 84,
                    "time": 123,
                    "velocity": 0.5905511811023622,
                    "duration": 0.09999999999999432
                },
                {
                    "name": "G#5",
                    "midi": 80,
                    "time": 123.14999999999999,
                    "velocity": 0.5905511811023622,
                    "duration": 0.09999999999999432
                },
                {
                    "name": "C6",
                    "midi": 84,
                    "time": 123.14999999999999,
                    "velocity": 0.5905511811023622,
                    "duration": 0.09999999999999432
                },
                {
                    "name": "G#5",
                    "midi": 80,
                    "time": 123.29999999999998,
                    "velocity": 0.5905511811023622,
                    "duration": 0.09999999999999432
                },
                {
                    "name": "C6",
                    "midi": 84,
                    "time": 123.29999999999998,
                    "velocity": 0.5905511811023622,
                    "duration": 0.09999999999999432
                },
                {
                    "name": "G#5",
                    "midi": 80,
                    "time": 123.59999999999998,
                    "velocity": 0.5905511811023622,
                    "duration": 0.09999999999999432
                },
                {
                    "name": "C6",
                    "midi": 84,
                    "time": 123.59999999999998,
                    "velocity": 0.5905511811023622,
                    "duration": 0.09999999999999432
                },
                {
                    "name": "G#5",
                    "midi": 80,
                    "time": 123.89999999999998,
                    "velocity": 0.5905511811023622,
                    "duration": 0.09999999999999432
                },
                {
                    "name": "C6",
                    "midi": 84,
                    "time": 123.89999999999998,
                    "velocity": 0.5905511811023622,
                    "duration": 0.09999999999999432
                },
                {
                    "name": "G#5",
                    "midi": 80,
                    "time": 124.19999999999997,
                    "velocity": 0.5905511811023622,
                    "duration": 0.09999999999999432
                },
                {
                    "name": "C6",
                    "midi": 84,
                    "time": 124.19999999999997,
                    "velocity": 0.5905511811023622,
                    "duration": 0.09999999999999432
                },
                {
                    "name": "G5",
                    "midi": 79,
                    "time": 124.49999999999997,
                    "velocity": 0.5905511811023622,
                    "duration": 0.09999999999999432
                },
                {
                    "name": "A#5",
                    "midi": 82,
                    "time": 124.49999999999997,
                    "velocity": 0.5905511811023622,
                    "duration": 0.09999999999999432
                },
                {
                    "name": "G5",
                    "midi": 79,
                    "time": 124.79999999999997,
                    "velocity": 0.5905511811023622,
                    "duration": 0.09999999999999432
                },
                {
                    "name": "A#5",
                    "midi": 82,
                    "time": 124.79999999999997,
                    "velocity": 0.5905511811023622,
                    "duration": 0.09999999999999432
                },
                {
                    "name": "G5",
                    "midi": 79,
                    "time": 124.94999999999996,
                    "velocity": 0.5905511811023622,
                    "duration": 0.09999999999999432
                },
                {
                    "name": "A#5",
                    "midi": 82,
                    "time": 124.94999999999996,
                    "velocity": 0.5905511811023622,
                    "duration": 0.09999999999999432
                },
                {
                    "name": "G5",
                    "midi": 79,
                    "time": 125.09999999999995,
                    "velocity": 0.5905511811023622,
                    "duration": 0.09999999999999432
                },
                {
                    "name": "A#5",
                    "midi": 82,
                    "time": 125.09999999999995,
                    "velocity": 0.5905511811023622,
                    "duration": 0.09999999999999432
                },
                {
                    "name": "G5",
                    "midi": 79,
                    "time": 125.39999999999995,
                    "velocity": 0.5905511811023622,
                    "duration": 0.09999999999999432
                },
                {
                    "name": "A#5",
                    "midi": 82,
                    "time": 125.39999999999995,
                    "velocity": 0.5905511811023622,
                    "duration": 0.09999999999999432
                },
                {
                    "name": "G5",
                    "midi": 79,
                    "time": 125.69999999999995,
                    "velocity": 0.5905511811023622,
                    "duration": 0.09999999999999432
                },
                {
                    "name": "A#5",
                    "midi": 82,
                    "time": 125.69999999999995,
                    "velocity": 0.5905511811023622,
                    "duration": 0.09999999999999432
                },
                {
                    "name": "G5",
                    "midi": 79,
                    "time": 125.99999999999994,
                    "velocity": 0.5905511811023622,
                    "duration": 0.09999999999999432
                },
                {
                    "name": "A#5",
                    "midi": 82,
                    "time": 125.99999999999994,
                    "velocity": 0.5905511811023622,
                    "duration": 0.09999999999999432
                },
                {
                    "name": "G5",
                    "midi": 79,
                    "time": 126.29999999999994,
                    "velocity": 0.5905511811023622,
                    "duration": 0.09999999999999432
                },
                {
                    "name": "A#5",
                    "midi": 82,
                    "time": 126.29999999999994,
                    "velocity": 0.5905511811023622,
                    "duration": 0.09999999999999432
                },
                {
                    "name": "G5",
                    "midi": 79,
                    "time": 126.59999999999994,
                    "velocity": 0.5905511811023622,
                    "duration": 0.09999999999999432
                },
                {
                    "name": "A#5",
                    "midi": 82,
                    "time": 126.59999999999994,
                    "velocity": 0.5905511811023622,
                    "duration": 0.09999999999999432
                },
                {
                    "name": "G5",
                    "midi": 79,
                    "time": 126.74999999999993,
                    "velocity": 0.5905511811023622,
                    "duration": 0.09999999999999432
                },
                {
                    "name": "A#5",
                    "midi": 82,
                    "time": 126.74999999999993,
                    "velocity": 0.5905511811023622,
                    "duration": 0.09999999999999432
                },
                {
                    "name": "G5",
                    "midi": 79,
                    "time": 126.89999999999992,
                    "velocity": 0.5905511811023622,
                    "duration": 0.09999999999999432
                },
                {
                    "name": "A#5",
                    "midi": 82,
                    "time": 126.89999999999992,
                    "velocity": 0.5905511811023622,
                    "duration": 0.09999999999999432
                },
                {
                    "name": "G5",
                    "midi": 79,
                    "time": 127.19999999999992,
                    "velocity": 0.5905511811023622,
                    "duration": 0.09999999999999432
                },
                {
                    "name": "A#5",
                    "midi": 82,
                    "time": 127.19999999999992,
                    "velocity": 0.5905511811023622,
                    "duration": 0.09999999999999432
                },
                {
                    "name": "G5",
                    "midi": 79,
                    "time": 127.49999999999991,
                    "velocity": 0.5905511811023622,
                    "duration": 0.09999999999999432
                },
                {
                    "name": "A#5",
                    "midi": 82,
                    "time": 127.49999999999991,
                    "velocity": 0.5905511811023622,
                    "duration": 0.09999999999999432
                },
                {
                    "name": "G5",
                    "midi": 79,
                    "time": 127.79999999999991,
                    "velocity": 0.5905511811023622,
                    "duration": 0.09999999999999432
                },
                {
                    "name": "A#5",
                    "midi": 82,
                    "time": 127.79999999999991,
                    "velocity": 0.5905511811023622,
                    "duration": 0.09999999999999432
                },
                {
                    "name": "G#5",
                    "midi": 80,
                    "time": 128.0999999999999,
                    "velocity": 0.5905511811023622,
                    "duration": 0.09999999999999432
                },
                {
                    "name": "C6",
                    "midi": 84,
                    "time": 128.0999999999999,
                    "velocity": 0.5905511811023622,
                    "duration": 0.09999999999999432
                },
                {
                    "name": "G#5",
                    "midi": 80,
                    "time": 128.3999999999999,
                    "velocity": 0.5905511811023622,
                    "duration": 0.09999999999999432
                },
                {
                    "name": "C6",
                    "midi": 84,
                    "time": 128.3999999999999,
                    "velocity": 0.5905511811023622,
                    "duration": 0.09999999999999432
                },
                {
                    "name": "G#5",
                    "midi": 80,
                    "time": 128.5499999999999,
                    "velocity": 0.5905511811023622,
                    "duration": 0.09999999999999432
                },
                {
                    "name": "C6",
                    "midi": 84,
                    "time": 128.5499999999999,
                    "velocity": 0.5905511811023622,
                    "duration": 0.09999999999999432
                },
                {
                    "name": "G#5",
                    "midi": 80,
                    "time": 128.6999999999999,
                    "velocity": 0.5905511811023622,
                    "duration": 0.09999999999999432
                },
                {
                    "name": "C6",
                    "midi": 84,
                    "time": 128.6999999999999,
                    "velocity": 0.5905511811023622,
                    "duration": 0.09999999999999432
                },
                {
                    "name": "G#5",
                    "midi": 80,
                    "time": 128.9999999999999,
                    "velocity": 0.5905511811023622,
                    "duration": 0.09999999999999432
                },
                {
                    "name": "C6",
                    "midi": 84,
                    "time": 128.9999999999999,
                    "velocity": 0.5905511811023622,
                    "duration": 0.09999999999999432
                },
                {
                    "name": "G#5",
                    "midi": 80,
                    "time": 129.29999999999987,
                    "velocity": 0.5905511811023622,
                    "duration": 0.09999999999999432
                },
                {
                    "name": "C6",
                    "midi": 84,
                    "time": 129.29999999999987,
                    "velocity": 0.5905511811023622,
                    "duration": 0.09999999999999432
                },
                {
                    "name": "G#5",
                    "midi": 80,
                    "time": 129.59999999999985,
                    "velocity": 0.5905511811023622,
                    "duration": 0.09999999999999432
                },
                {
                    "name": "C6",
                    "midi": 84,
                    "time": 129.59999999999985,
                    "velocity": 0.5905511811023622,
                    "duration": 0.09999999999999432
                },
                {
                    "name": "A#5",
                    "midi": 82,
                    "time": 129.89999999999984,
                    "velocity": 0.5905511811023622,
                    "duration": 0.09999999999999432
                },
                {
                    "name": "C6",
                    "midi": 84,
                    "time": 129.89999999999984,
                    "velocity": 0.5905511811023622,
                    "duration": 0.09999999999999432
                },
                {
                    "name": "A#5",
                    "midi": 82,
                    "time": 130.19999999999982,
                    "velocity": 0.5905511811023622,
                    "duration": 0.09999999999999432
                },
                {
                    "name": "C6",
                    "midi": 84,
                    "time": 130.19999999999982,
                    "velocity": 0.5905511811023622,
                    "duration": 0.09999999999999432
                },
                {
                    "name": "A#5",
                    "midi": 82,
                    "time": 130.34999999999982,
                    "velocity": 0.5905511811023622,
                    "duration": 0.09999999999999432
                },
                {
                    "name": "C6",
                    "midi": 84,
                    "time": 130.34999999999982,
                    "velocity": 0.5905511811023622,
                    "duration": 0.09999999999999432
                },
                {
                    "name": "A#5",
                    "midi": 82,
                    "time": 130.49999999999983,
                    "velocity": 0.5905511811023622,
                    "duration": 0.09999999999999432
                },
                {
                    "name": "C6",
                    "midi": 84,
                    "time": 130.49999999999983,
                    "velocity": 0.5905511811023622,
                    "duration": 0.09999999999999432
                },
                {
                    "name": "A#5",
                    "midi": 82,
                    "time": 130.7999999999998,
                    "velocity": 0.5905511811023622,
                    "duration": 0.09999999999999432
                },
                {
                    "name": "C6",
                    "midi": 84,
                    "time": 130.7999999999998,
                    "velocity": 0.5905511811023622,
                    "duration": 0.09999999999999432
                },
                {
                    "name": "A#5",
                    "midi": 82,
                    "time": 131.0999999999998,
                    "velocity": 0.5905511811023622,
                    "duration": 0.09999999999999432
                },
                {
                    "name": "C6",
                    "midi": 84,
                    "time": 131.0999999999998,
                    "velocity": 0.5905511811023622,
                    "duration": 0.09999999999999432
                },
                {
                    "name": "A#5",
                    "midi": 82,
                    "time": 131.39999999999978,
                    "velocity": 0.5905511811023622,
                    "duration": 0.09999999999999432
                },
                {
                    "name": "C6",
                    "midi": 84,
                    "time": 131.39999999999978,
                    "velocity": 0.5905511811023622,
                    "duration": 0.09999999999999432
                },
                {
                    "name": "A#5",
                    "midi": 82,
                    "time": 131.69999999999976,
                    "velocity": 0.5905511811023622,
                    "duration": 0.09999999999999432
                },
                {
                    "name": "C#6",
                    "midi": 85,
                    "time": 131.69999999999976,
                    "velocity": 0.5905511811023622,
                    "duration": 0.09999999999999432
                },
                {
                    "name": "A#5",
                    "midi": 82,
                    "time": 131.99999999999974,
                    "velocity": 0.5905511811023622,
                    "duration": 0.09999999999999432
                },
                {
                    "name": "C#6",
                    "midi": 85,
                    "time": 131.99999999999974,
                    "velocity": 0.5905511811023622,
                    "duration": 0.09999999999999432
                },
                {
                    "name": "A#5",
                    "midi": 82,
                    "time": 132.14999999999975,
                    "velocity": 0.5905511811023622,
                    "duration": 0.09999999999999432
                },
                {
                    "name": "C#6",
                    "midi": 85,
                    "time": 132.14999999999975,
                    "velocity": 0.5905511811023622,
                    "duration": 0.09999999999999432
                },
                {
                    "name": "A#5",
                    "midi": 82,
                    "time": 132.29999999999976,
                    "velocity": 0.5905511811023622,
                    "duration": 0.09999999999999432
                },
                {
                    "name": "C#6",
                    "midi": 85,
                    "time": 132.29999999999976,
                    "velocity": 0.5905511811023622,
                    "duration": 0.09999999999999432
                },
                {
                    "name": "A#5",
                    "midi": 82,
                    "time": 132.59999999999974,
                    "velocity": 0.5905511811023622,
                    "duration": 0.09999999999999432
                },
                {
                    "name": "C#6",
                    "midi": 85,
                    "time": 132.59999999999974,
                    "velocity": 0.5905511811023622,
                    "duration": 0.09999999999999432
                },
                {
                    "name": "A#5",
                    "midi": 82,
                    "time": 132.89999999999972,
                    "velocity": 0.5905511811023622,
                    "duration": 0.09999999999999432
                },
                {
                    "name": "C#6",
                    "midi": 85,
                    "time": 132.89999999999972,
                    "velocity": 0.5905511811023622,
                    "duration": 0.09999999999999432
                },
                {
                    "name": "A#5",
                    "midi": 82,
                    "time": 133.1999999999997,
                    "velocity": 0.5905511811023622,
                    "duration": 0.09999999999999432
                },
                {
                    "name": "C#6",
                    "midi": 85,
                    "time": 133.1999999999997,
                    "velocity": 0.5905511811023622,
                    "duration": 0.09999999999999432
                },
                {
                    "name": "A5",
                    "midi": 81,
                    "time": 133.4999999999997,
                    "velocity": 0.5905511811023622,
                    "duration": 0.09999999999999432
                },
                {
                    "name": "C6",
                    "midi": 84,
                    "time": 133.4999999999997,
                    "velocity": 0.5905511811023622,
                    "duration": 0.09999999999999432
                },
                {
                    "name": "A5",
                    "midi": 81,
                    "time": 133.79999999999967,
                    "velocity": 0.5905511811023622,
                    "duration": 0.09999999999999432
                },
                {
                    "name": "C6",
                    "midi": 84,
                    "time": 133.79999999999967,
                    "velocity": 0.5905511811023622,
                    "duration": 0.09999999999999432
                },
                {
                    "name": "A5",
                    "midi": 81,
                    "time": 133.94999999999968,
                    "velocity": 0.5905511811023622,
                    "duration": 0.09999999999999432
                },
                {
                    "name": "C6",
                    "midi": 84,
                    "time": 133.94999999999968,
                    "velocity": 0.5905511811023622,
                    "duration": 0.09999999999999432
                },
                {
                    "name": "A5",
                    "midi": 81,
                    "time": 134.09999999999968,
                    "velocity": 0.5905511811023622,
                    "duration": 0.09999999999999432
                },
                {
                    "name": "C6",
                    "midi": 84,
                    "time": 134.09999999999968,
                    "velocity": 0.5905511811023622,
                    "duration": 0.09999999999999432
                },
                {
                    "name": "A5",
                    "midi": 81,
                    "time": 134.39999999999966,
                    "velocity": 0.5905511811023622,
                    "duration": 0.09999999999999432
                },
                {
                    "name": "C6",
                    "midi": 84,
                    "time": 134.39999999999966,
                    "velocity": 0.5905511811023622,
                    "duration": 0.09999999999999432
                },
                {
                    "name": "A5",
                    "midi": 81,
                    "time": 134.69999999999965,
                    "velocity": 0.5905511811023622,
                    "duration": 0.09999999999999432
                },
                {
                    "name": "C6",
                    "midi": 84,
                    "time": 134.69999999999965,
                    "velocity": 0.5905511811023622,
                    "duration": 0.09999999999999432
                },
                {
                    "name": "A5",
                    "midi": 81,
                    "time": 134.99999999999963,
                    "velocity": 0.5905511811023622,
                    "duration": 0.09999999999999432
                },
                {
                    "name": "C6",
                    "midi": 84,
                    "time": 134.99999999999963,
                    "velocity": 0.5905511811023622,
                    "duration": 0.09999999999999432
                },
                {
                    "name": "A#5",
                    "midi": 82,
                    "time": 135.2999999999996,
                    "velocity": 0.5905511811023622,
                    "duration": 0.09999999999999432
                },
                {
                    "name": "C#6",
                    "midi": 85,
                    "time": 135.2999999999996,
                    "velocity": 0.5905511811023622,
                    "duration": 0.09999999999999432
                },
                {
                    "name": "A#5",
                    "midi": 82,
                    "time": 135.5999999999996,
                    "velocity": 0.5905511811023622,
                    "duration": 0.09999999999999432
                },
                {
                    "name": "C#6",
                    "midi": 85,
                    "time": 135.5999999999996,
                    "velocity": 0.5905511811023622,
                    "duration": 0.09999999999999432
                },
                {
                    "name": "A#5",
                    "midi": 82,
                    "time": 135.7499999999996,
                    "velocity": 0.5905511811023622,
                    "duration": 0.09999999999999432
                },
                {
                    "name": "C#6",
                    "midi": 85,
                    "time": 135.7499999999996,
                    "velocity": 0.5905511811023622,
                    "duration": 0.09999999999999432
                },
                {
                    "name": "A#5",
                    "midi": 82,
                    "time": 135.8999999999996,
                    "velocity": 0.5905511811023622,
                    "duration": 0.09999999999999432
                },
                {
                    "name": "C#6",
                    "midi": 85,
                    "time": 135.8999999999996,
                    "velocity": 0.5905511811023622,
                    "duration": 0.09999999999999432
                },
                {
                    "name": "A#5",
                    "midi": 82,
                    "time": 136.1999999999996,
                    "velocity": 0.5905511811023622,
                    "duration": 0.09999999999999432
                },
                {
                    "name": "C#6",
                    "midi": 85,
                    "time": 136.1999999999996,
                    "velocity": 0.5905511811023622,
                    "duration": 0.09999999999999432
                },
                {
                    "name": "A#5",
                    "midi": 82,
                    "time": 136.49999999999957,
                    "velocity": 0.5905511811023622,
                    "duration": 0.09999999999999432
                },
                {
                    "name": "C#6",
                    "midi": 85,
                    "time": 136.49999999999957,
                    "velocity": 0.5905511811023622,
                    "duration": 0.09999999999999432
                },
                {
                    "name": "A5",
                    "midi": 81,
                    "time": 136.79999999999956,
                    "velocity": 0.5905511811023622,
                    "duration": 0.09999999999999432
                },
                {
                    "name": "C#6",
                    "midi": 85,
                    "time": 136.79999999999956,
                    "velocity": 0.5905511811023622,
                    "duration": 0.09999999999999432
                },
                {
                    "name": "A#5",
                    "midi": 82,
                    "time": 137.09999999999954,
                    "velocity": 0.5905511811023622,
                    "duration": 0.09999999999999432
                },
                {
                    "name": "C#6",
                    "midi": 85,
                    "time": 137.09999999999954,
                    "velocity": 0.5905511811023622,
                    "duration": 0.09999999999999432
                },
                {
                    "name": "A#5",
                    "midi": 82,
                    "time": 137.39999999999952,
                    "velocity": 0.5905511811023622,
                    "duration": 0.09999999999999432
                },
                {
                    "name": "C#6",
                    "midi": 85,
                    "time": 137.39999999999952,
                    "velocity": 0.5905511811023622,
                    "duration": 0.09999999999999432
                },
                {
                    "name": "A#5",
                    "midi": 82,
                    "time": 137.54999999999953,
                    "velocity": 0.5905511811023622,
                    "duration": 0.09999999999999432
                },
                {
                    "name": "C#6",
                    "midi": 85,
                    "time": 137.54999999999953,
                    "velocity": 0.5905511811023622,
                    "duration": 0.09999999999999432
                },
                {
                    "name": "A#5",
                    "midi": 82,
                    "time": 137.69999999999953,
                    "velocity": 0.5905511811023622,
                    "duration": 0.09999999999999432
                },
                {
                    "name": "C#6",
                    "midi": 85,
                    "time": 137.69999999999953,
                    "velocity": 0.5905511811023622,
                    "duration": 0.09999999999999432
                },
                {
                    "name": "A#5",
                    "midi": 82,
                    "time": 137.99999999999952,
                    "velocity": 0.5905511811023622,
                    "duration": 0.09999999999999432
                },
                {
                    "name": "C#6",
                    "midi": 85,
                    "time": 137.99999999999952,
                    "velocity": 0.5905511811023622,
                    "duration": 0.09999999999999432
                },
                {
                    "name": "A#5",
                    "midi": 82,
                    "time": 138.2999999999995,
                    "velocity": 0.5905511811023622,
                    "duration": 0.09999999999999432
                },
                {
                    "name": "C#6",
                    "midi": 85,
                    "time": 138.2999999999995,
                    "velocity": 0.5905511811023622,
                    "duration": 0.09999999999999432
                },
                {
                    "name": "A#5",
                    "midi": 82,
                    "time": 138.59999999999948,
                    "velocity": 0.5905511811023622,
                    "duration": 0.09999999999999432
                },
                {
                    "name": "C#6",
                    "midi": 85,
                    "time": 138.59999999999948,
                    "velocity": 0.5905511811023622,
                    "duration": 0.09999999999999432
                },
                {
                    "name": "A5",
                    "midi": 81,
                    "time": 138.89999999999947,
                    "velocity": 0.5905511811023622,
                    "duration": 0.09999999999999432
                },
                {
                    "name": "C6",
                    "midi": 84,
                    "time": 138.89999999999947,
                    "velocity": 0.5905511811023622,
                    "duration": 0.09999999999999432
                },
                {
                    "name": "A5",
                    "midi": 81,
                    "time": 139.19999999999945,
                    "velocity": 0.5905511811023622,
                    "duration": 0.09999999999999432
                },
                {
                    "name": "B5",
                    "midi": 83,
                    "time": 139.19999999999945,
                    "velocity": 0.5905511811023622,
                    "duration": 0.09999999999999432
                },
                {
                    "name": "A5",
                    "midi": 81,
                    "time": 139.34999999999945,
                    "velocity": 0.5905511811023622,
                    "duration": 0.09999999999999432
                },
                {
                    "name": "B5",
                    "midi": 83,
                    "time": 139.34999999999945,
                    "velocity": 0.5905511811023622,
                    "duration": 0.09999999999999432
                },
                {
                    "name": "A5",
                    "midi": 81,
                    "time": 139.49999999999946,
                    "velocity": 0.5905511811023622,
                    "duration": 0.09999999999999432
                },
                {
                    "name": "C6",
                    "midi": 84,
                    "time": 139.49999999999946,
                    "velocity": 0.5905511811023622,
                    "duration": 0.09999999999999432
                },
                {
                    "name": "A5",
                    "midi": 81,
                    "time": 139.79999999999944,
                    "velocity": 0.5905511811023622,
                    "duration": 0.09999999999999432
                },
                {
                    "name": "C6",
                    "midi": 84,
                    "time": 139.79999999999944,
                    "velocity": 0.5905511811023622,
                    "duration": 0.09999999999999432
                },
                {
                    "name": "A5",
                    "midi": 81,
                    "time": 140.09999999999943,
                    "velocity": 0.5905511811023622,
                    "duration": 0.09999999999999432
                },
                {
                    "name": "C6",
                    "midi": 84,
                    "time": 140.09999999999943,
                    "velocity": 0.5905511811023622,
                    "duration": 0.09999999999999432
                },
                {
                    "name": "A5",
                    "midi": 81,
                    "time": 140.3999999999994,
                    "velocity": 0.5905511811023622,
                    "duration": 0.09999999999999432
                },
                {
                    "name": "C6",
                    "midi": 84,
                    "time": 140.3999999999994,
                    "velocity": 0.5905511811023622,
                    "duration": 0.09999999999999432
                },
                {
                    "name": "A#5",
                    "midi": 82,
                    "time": 140.6999999999994,
                    "velocity": 0.5905511811023622,
                    "duration": 0.09999999999999432
                },
                {
                    "name": "D#6",
                    "midi": 87,
                    "time": 140.6999999999994,
                    "velocity": 0.5905511811023622,
                    "duration": 0.09999999999999432
                },
                {
                    "name": "A#5",
                    "midi": 82,
                    "time": 140.99999999999937,
                    "velocity": 0.5905511811023622,
                    "duration": 0.09999999999999432
                },
                {
                    "name": "D#6",
                    "midi": 87,
                    "time": 140.99999999999937,
                    "velocity": 0.5905511811023622,
                    "duration": 0.09999999999999432
                },
                {
                    "name": "A#5",
                    "midi": 82,
                    "time": 141.14999999999938,
                    "velocity": 0.5905511811023622,
                    "duration": 0.09999999999999432
                },
                {
                    "name": "D#6",
                    "midi": 87,
                    "time": 141.14999999999938,
                    "velocity": 0.5905511811023622,
                    "duration": 0.09999999999999432
                },
                {
                    "name": "A#5",
                    "midi": 82,
                    "time": 141.2999999999994,
                    "velocity": 0.5905511811023622,
                    "duration": 0.09999999999999432
                },
                {
                    "name": "D#6",
                    "midi": 87,
                    "time": 141.2999999999994,
                    "velocity": 0.5905511811023622,
                    "duration": 0.09999999999999432
                },
                {
                    "name": "A#5",
                    "midi": 82,
                    "time": 141.59999999999937,
                    "velocity": 0.5905511811023622,
                    "duration": 0.09999999999999432
                },
                {
                    "name": "C#6",
                    "midi": 85,
                    "time": 141.59999999999937,
                    "velocity": 0.5905511811023622,
                    "duration": 0.09999999999999432
                },
                {
                    "name": "A#5",
                    "midi": 82,
                    "time": 141.89999999999935,
                    "velocity": 0.5905511811023622,
                    "duration": 0.09999999999999432
                },
                {
                    "name": "C#6",
                    "midi": 85,
                    "time": 141.89999999999935,
                    "velocity": 0.5905511811023622,
                    "duration": 0.09999999999999432
                },
                {
                    "name": "A#5",
                    "midi": 82,
                    "time": 142.19999999999933,
                    "velocity": 0.5905511811023622,
                    "duration": 0.09999999999999432
                },
                {
                    "name": "C#6",
                    "midi": 85,
                    "time": 142.19999999999933,
                    "velocity": 0.5905511811023622,
                    "duration": 0.09999999999999432
                },
                {
                    "name": "A#5",
                    "midi": 82,
                    "time": 142.49999999999932,
                    "velocity": 0.5905511811023622,
                    "duration": 0.09999999999999432
                },
                {
                    "name": "C#6",
                    "midi": 85,
                    "time": 142.49999999999932,
                    "velocity": 0.5905511811023622,
                    "duration": 0.09999999999999432
                },
                {
                    "name": "A#5",
                    "midi": 82,
                    "time": 142.7999999999993,
                    "velocity": 0.5905511811023622,
                    "duration": 0.09999999999999432
                },
                {
                    "name": "C#6",
                    "midi": 85,
                    "time": 142.7999999999993,
                    "velocity": 0.5905511811023622,
                    "duration": 0.09999999999999432
                },
                {
                    "name": "A#5",
                    "midi": 82,
                    "time": 142.9499999999993,
                    "velocity": 0.5905511811023622,
                    "duration": 0.09999999999999432
                },
                {
                    "name": "C#6",
                    "midi": 85,
                    "time": 142.9499999999993,
                    "velocity": 0.5905511811023622,
                    "duration": 0.09999999999999432
                },
                {
                    "name": "A#5",
                    "midi": 82,
                    "time": 143.0999999999993,
                    "velocity": 0.5905511811023622,
                    "duration": 0.09999999999999432
                },
                {
                    "name": "C#6",
                    "midi": 85,
                    "time": 143.0999999999993,
                    "velocity": 0.5905511811023622,
                    "duration": 0.09999999999999432
                },
                {
                    "name": "A#5",
                    "midi": 82,
                    "time": 143.3999999999993,
                    "velocity": 0.5905511811023622,
                    "duration": 0.09999999999999432
                },
                {
                    "name": "C#6",
                    "midi": 85,
                    "time": 143.3999999999993,
                    "velocity": 0.5905511811023622,
                    "duration": 0.09999999999999432
                },
                {
                    "name": "A#5",
                    "midi": 82,
                    "time": 143.69999999999928,
                    "velocity": 0.5905511811023622,
                    "duration": 0.09999999999999432
                },
                {
                    "name": "C#6",
                    "midi": 85,
                    "time": 143.69999999999928,
                    "velocity": 0.5905511811023622,
                    "duration": 0.09999999999999432
                },
                {
                    "name": "A#5",
                    "midi": 82,
                    "time": 143.99999999999926,
                    "velocity": 0.5905511811023622,
                    "duration": 0.09999999999999432
                },
                {
                    "name": "C#6",
                    "midi": 85,
                    "time": 143.99999999999926,
                    "velocity": 0.5905511811023622,
                    "duration": 0.09999999999999432
                },
                {
                    "name": "G#5",
                    "midi": 80,
                    "time": 144.29999999999924,
                    "velocity": 0.5905511811023622,
                    "duration": 0.09999999999999432
                },
                {
                    "name": "C6",
                    "midi": 84,
                    "time": 144.29999999999924,
                    "velocity": 0.5905511811023622,
                    "duration": 0.09999999999999432
                },
                {
                    "name": "G#5",
                    "midi": 80,
                    "time": 144.59999999999923,
                    "velocity": 0.5905511811023622,
                    "duration": 0.09999999999999432
                },
                {
                    "name": "C6",
                    "midi": 84,
                    "time": 144.59999999999923,
                    "velocity": 0.5905511811023622,
                    "duration": 0.09999999999999432
                },
                {
                    "name": "G#5",
                    "midi": 80,
                    "time": 144.74999999999923,
                    "velocity": 0.5905511811023622,
                    "duration": 0.09999999999999432
                },
                {
                    "name": "C6",
                    "midi": 84,
                    "time": 144.74999999999923,
                    "velocity": 0.5905511811023622,
                    "duration": 0.09999999999999432
                },
                {
                    "name": "G#5",
                    "midi": 80,
                    "time": 144.89999999999924,
                    "velocity": 0.5905511811023622,
                    "duration": 0.09999999999999432
                },
                {
                    "name": "C6",
                    "midi": 84,
                    "time": 144.89999999999924,
                    "velocity": 0.5905511811023622,
                    "duration": 0.09999999999999432
                },
                {
                    "name": "G#5",
                    "midi": 80,
                    "time": 145.19999999999922,
                    "velocity": 0.5905511811023622,
                    "duration": 0.09999999999999432
                },
                {
                    "name": "C6",
                    "midi": 84,
                    "time": 145.19999999999922,
                    "velocity": 0.5905511811023622,
                    "duration": 0.09999999999999432
                },
                {
                    "name": "G#5",
                    "midi": 80,
                    "time": 145.4999999999992,
                    "velocity": 0.5905511811023622,
                    "duration": 0.09999999999999432
                },
                {
                    "name": "C6",
                    "midi": 84,
                    "time": 145.4999999999992,
                    "velocity": 0.5905511811023622,
                    "duration": 0.09999999999999432
                },
                {
                    "name": "G#5",
                    "midi": 80,
                    "time": 145.7999999999992,
                    "velocity": 0.5905511811023622,
                    "duration": 0.09999999999999432
                },
                {
                    "name": "C6",
                    "midi": 84,
                    "time": 145.7999999999992,
                    "velocity": 0.5905511811023622,
                    "duration": 0.09999999999999432
                },
                {
                    "name": "G5",
                    "midi": 79,
                    "time": 146.09999999999917,
                    "velocity": 0.5905511811023622,
                    "duration": 0.09999999999999432
                },
                {
                    "name": "A#5",
                    "midi": 82,
                    "time": 146.09999999999917,
                    "velocity": 0.5905511811023622,
                    "duration": 0.09999999999999432
                },
                {
                    "name": "G5",
                    "midi": 79,
                    "time": 146.39999999999915,
                    "velocity": 0.5905511811023622,
                    "duration": 0.09999999999999432
                },
                {
                    "name": "A5",
                    "midi": 81,
                    "time": 146.39999999999915,
                    "velocity": 0.5905511811023622,
                    "duration": 0.09999999999999432
                },
                {
                    "name": "G5",
                    "midi": 79,
                    "time": 146.54999999999916,
                    "velocity": 0.5905511811023622,
                    "duration": 0.09999999999999432
                },
                {
                    "name": "A5",
                    "midi": 81,
                    "time": 146.54999999999916,
                    "velocity": 0.5905511811023622,
                    "duration": 0.09999999999999432
                },
                {
                    "name": "G5",
                    "midi": 79,
                    "time": 146.69999999999916,
                    "velocity": 0.5905511811023622,
                    "duration": 0.09999999999999432
                },
                {
                    "name": "A#5",
                    "midi": 82,
                    "time": 146.69999999999916,
                    "velocity": 0.5905511811023622,
                    "duration": 0.09999999999999432
                },
                {
                    "name": "G5",
                    "midi": 79,
                    "time": 146.99999999999915,
                    "velocity": 0.5905511811023622,
                    "duration": 0.09999999999999432
                },
                {
                    "name": "A#5",
                    "midi": 82,
                    "time": 146.99999999999915,
                    "velocity": 0.5905511811023622,
                    "duration": 0.09999999999999432
                },
                {
                    "name": "G5",
                    "midi": 79,
                    "time": 147.29999999999913,
                    "velocity": 0.5905511811023622,
                    "duration": 0.09999999999999432
                },
                {
                    "name": "A#5",
                    "midi": 82,
                    "time": 147.29999999999913,
                    "velocity": 0.5905511811023622,
                    "duration": 0.09999999999999432
                },
                {
                    "name": "G5",
                    "midi": 79,
                    "time": 147.5999999999991,
                    "velocity": 0.5905511811023622,
                    "duration": 0.09999999999999432
                },
                {
                    "name": "A#5",
                    "midi": 82,
                    "time": 147.5999999999991,
                    "velocity": 0.5905511811023622,
                    "duration": 0.09999999999999432
                },
                {
                    "name": "G#5",
                    "midi": 80,
                    "time": 147.8999999999991,
                    "velocity": 0.5905511811023622,
                    "duration": 0.09999999999999432
                },
                {
                    "name": "C#6",
                    "midi": 85,
                    "time": 147.8999999999991,
                    "velocity": 0.5905511811023622,
                    "duration": 0.09999999999999432
                },
                {
                    "name": "G#5",
                    "midi": 80,
                    "time": 148.19999999999908,
                    "velocity": 0.5905511811023622,
                    "duration": 0.09999999999999432
                },
                {
                    "name": "C#6",
                    "midi": 85,
                    "time": 148.19999999999908,
                    "velocity": 0.5905511811023622,
                    "duration": 0.09999999999999432
                },
                {
                    "name": "G#5",
                    "midi": 80,
                    "time": 148.34999999999908,
                    "velocity": 0.5905511811023622,
                    "duration": 0.09999999999999432
                },
                {
                    "name": "C#6",
                    "midi": 85,
                    "time": 148.34999999999908,
                    "velocity": 0.5905511811023622,
                    "duration": 0.09999999999999432
                },
                {
                    "name": "G#5",
                    "midi": 80,
                    "time": 148.4999999999991,
                    "velocity": 0.5905511811023622,
                    "duration": 0.09999999999999432
                },
                {
                    "name": "C#6",
                    "midi": 85,
                    "time": 148.4999999999991,
                    "velocity": 0.5905511811023622,
                    "duration": 0.09999999999999432
                },
                {
                    "name": "G#5",
                    "midi": 80,
                    "time": 148.79999999999907,
                    "velocity": 0.5905511811023622,
                    "duration": 0.09999999999999432
                },
                {
                    "name": "C6",
                    "midi": 84,
                    "time": 148.79999999999907,
                    "velocity": 0.5905511811023622,
                    "duration": 0.09999999999999432
                },
                {
                    "name": "G#5",
                    "midi": 80,
                    "time": 149.09999999999906,
                    "velocity": 0.5905511811023622,
                    "duration": 0.09999999999999432
                },
                {
                    "name": "C6",
                    "midi": 84,
                    "time": 149.09999999999906,
                    "velocity": 0.5905511811023622,
                    "duration": 0.09999999999999432
                },
                {
                    "name": "G#5",
                    "midi": 80,
                    "time": 149.39999999999904,
                    "velocity": 0.5905511811023622,
                    "duration": 0.09999999999999432
                },
                {
                    "name": "C6",
                    "midi": 84,
                    "time": 149.39999999999904,
                    "velocity": 0.5905511811023622,
                    "duration": 0.09999999999999432
                },
                {
                    "name": "G#5",
                    "midi": 80,
                    "time": 149.69999999999902,
                    "velocity": 0.5905511811023622,
                    "duration": 0.09999999999999432
                },
                {
                    "name": "C6",
                    "midi": 84,
                    "time": 149.69999999999902,
                    "velocity": 0.5905511811023622,
                    "duration": 0.09999999999999432
                },
                {
                    "name": "G#5",
                    "midi": 80,
                    "time": 149.999999999999,
                    "velocity": 0.5905511811023622,
                    "duration": 0.09999999999999432
                },
                {
                    "name": "C6",
                    "midi": 84,
                    "time": 149.999999999999,
                    "velocity": 0.5905511811023622,
                    "duration": 0.09999999999999432
                },
                {
                    "name": "G#5",
                    "midi": 80,
                    "time": 150.149999999999,
                    "velocity": 0.5905511811023622,
                    "duration": 0.09999999999999432
                },
                {
                    "name": "C6",
                    "midi": 84,
                    "time": 150.149999999999,
                    "velocity": 0.5905511811023622,
                    "duration": 0.09999999999999432
                },
                {
                    "name": "G#5",
                    "midi": 80,
                    "time": 150.29999999999902,
                    "velocity": 0.5905511811023622,
                    "duration": 0.09999999999999432
                },
                {
                    "name": "C6",
                    "midi": 84,
                    "time": 150.29999999999902,
                    "velocity": 0.5905511811023622,
                    "duration": 0.09999999999999432
                },
                {
                    "name": "G5",
                    "midi": 79,
                    "time": 150.599999999999,
                    "velocity": 0.5905511811023622,
                    "duration": 0.09999999999999432
                },
                {
                    "name": "C6",
                    "midi": 84,
                    "time": 150.599999999999,
                    "velocity": 0.5905511811023622,
                    "duration": 0.09999999999999432
                },
                {
                    "name": "G5",
                    "midi": 79,
                    "time": 150.89999999999898,
                    "velocity": 0.5905511811023622,
                    "duration": 0.09999999999999432
                },
                {
                    "name": "C6",
                    "midi": 84,
                    "time": 150.89999999999898,
                    "velocity": 0.5905511811023622,
                    "duration": 0.09999999999999432
                },
                {
                    "name": "F#5",
                    "midi": 78,
                    "time": 151.19999999999897,
                    "velocity": 0.5905511811023622,
                    "duration": 0.09999999999999432
                },
                {
                    "name": "C6",
                    "midi": 84,
                    "time": 151.19999999999897,
                    "velocity": 0.5905511811023622,
                    "duration": 0.09999999999999432
                },
                {
                    "name": "G#5",
                    "midi": 80,
                    "time": 151.49999999999895,
                    "velocity": 0.5905511811023622,
                    "duration": 0.09999999999999432
                },
                {
                    "name": "C#6",
                    "midi": 85,
                    "time": 151.49999999999895,
                    "velocity": 0.5905511811023622,
                    "duration": 0.09999999999999432
                },
                {
                    "name": "G#5",
                    "midi": 80,
                    "time": 151.79999999999893,
                    "velocity": 0.5905511811023622,
                    "duration": 0.09999999999999432
                },
                {
                    "name": "C#6",
                    "midi": 85,
                    "time": 151.79999999999893,
                    "velocity": 0.5905511811023622,
                    "duration": 0.09999999999999432
                },
                {
                    "name": "G#5",
                    "midi": 80,
                    "time": 151.94999999999894,
                    "velocity": 0.5905511811023622,
                    "duration": 0.09999999999999432
                },
                {
                    "name": "C#6",
                    "midi": 85,
                    "time": 151.94999999999894,
                    "velocity": 0.5905511811023622,
                    "duration": 0.09999999999999432
                },
                {
                    "name": "G#5",
                    "midi": 80,
                    "time": 152.09999999999894,
                    "velocity": 0.5905511811023622,
                    "duration": 0.09999999999999432
                },
                {
                    "name": "C#6",
                    "midi": 85,
                    "time": 152.09999999999894,
                    "velocity": 0.5905511811023622,
                    "duration": 0.09999999999999432
                },
                {
                    "name": "G#5",
                    "midi": 80,
                    "time": 152.39999999999893,
                    "velocity": 0.5905511811023622,
                    "duration": 0.09999999999999432
                },
                {
                    "name": "C#6",
                    "midi": 85,
                    "time": 152.39999999999893,
                    "velocity": 0.5905511811023622,
                    "duration": 0.09999999999999432
                },
                {
                    "name": "G#5",
                    "midi": 80,
                    "time": 152.6999999999989,
                    "velocity": 0.5905511811023622,
                    "duration": 0.09999999999999432
                },
                {
                    "name": "C#6",
                    "midi": 85,
                    "time": 152.6999999999989,
                    "velocity": 0.5905511811023622,
                    "duration": 0.09999999999999432
                },
                {
                    "name": "G#5",
                    "midi": 80,
                    "time": 152.9999999999989,
                    "velocity": 0.5905511811023622,
                    "duration": 0.09999999999999432
                },
                {
                    "name": "C#6",
                    "midi": 85,
                    "time": 152.9999999999989,
                    "velocity": 0.5905511811023622,
                    "duration": 0.09999999999999432
                },
                {
                    "name": "G#5",
                    "midi": 80,
                    "time": 153.29999999999887,
                    "velocity": 0.5905511811023622,
                    "duration": 0.09999999999999432
                },
                {
                    "name": "C6",
                    "midi": 84,
                    "time": 153.29999999999887,
                    "velocity": 0.5905511811023622,
                    "duration": 0.09999999999999432
                },
                {
                    "name": "G#5",
                    "midi": 80,
                    "time": 153.59999999999886,
                    "velocity": 0.5905511811023622,
                    "duration": 0.09999999999999432
                },
                {
                    "name": "C6",
                    "midi": 84,
                    "time": 153.59999999999886,
                    "velocity": 0.5905511811023622,
                    "duration": 0.09999999999999432
                },
                {
                    "name": "G#5",
                    "midi": 80,
                    "time": 153.74999999999886,
                    "velocity": 0.5905511811023622,
                    "duration": 0.09999999999999432
                },
                {
                    "name": "C6",
                    "midi": 84,
                    "time": 153.74999999999886,
                    "velocity": 0.5905511811023622,
                    "duration": 0.09999999999999432
                },
                {
                    "name": "G#5",
                    "midi": 80,
                    "time": 153.89999999999887,
                    "velocity": 0.5905511811023622,
                    "duration": 0.09999999999999432
                },
                {
                    "name": "C6",
                    "midi": 84,
                    "time": 153.89999999999887,
                    "velocity": 0.5905511811023622,
                    "duration": 0.09999999999999432
                },
                {
                    "name": "G#5",
                    "midi": 80,
                    "time": 154.19999999999885,
                    "velocity": 0.5905511811023622,
                    "duration": 0.09999999999999432
                },
                {
                    "name": "C6",
                    "midi": 84,
                    "time": 154.19999999999885,
                    "velocity": 0.5905511811023622,
                    "duration": 0.09999999999999432
                },
                {
                    "name": "G#5",
                    "midi": 80,
                    "time": 154.49999999999883,
                    "velocity": 0.5905511811023622,
                    "duration": 0.09999999999999432
                },
                {
                    "name": "C6",
                    "midi": 84,
                    "time": 154.49999999999883,
                    "velocity": 0.5905511811023622,
                    "duration": 0.09999999999999432
                },
                {
                    "name": "G#5",
                    "midi": 80,
                    "time": 154.79999999999882,
                    "velocity": 0.5905511811023622,
                    "duration": 0.09999999999999432
                },
                {
                    "name": "C6",
                    "midi": 84,
                    "time": 154.79999999999882,
                    "velocity": 0.5905511811023622,
                    "duration": 0.09999999999999432
                },
                {
                    "name": "B5",
                    "midi": 83,
                    "time": 155.0999999999988,
                    "velocity": 0.5905511811023622,
                    "duration": 0.09999999999999432
                },
                {
                    "name": "D6",
                    "midi": 86,
                    "time": 155.0999999999988,
                    "velocity": 0.5905511811023622,
                    "duration": 0.09999999999999432
                },
                {
                    "name": "B5",
                    "midi": 83,
                    "time": 155.39999999999878,
                    "velocity": 0.5905511811023622,
                    "duration": 0.09999999999999432
                },
                {
                    "name": "D6",
                    "midi": 86,
                    "time": 155.39999999999878,
                    "velocity": 0.5905511811023622,
                    "duration": 0.09999999999999432
                },
                {
                    "name": "B5",
                    "midi": 83,
                    "time": 155.5499999999988,
                    "velocity": 0.5905511811023622,
                    "duration": 0.09999999999999432
                },
                {
                    "name": "D6",
                    "midi": 86,
                    "time": 155.5499999999988,
                    "velocity": 0.5905511811023622,
                    "duration": 0.09999999999999432
                },
                {
                    "name": "B5",
                    "midi": 83,
                    "time": 155.6999999999988,
                    "velocity": 0.5905511811023622,
                    "duration": 0.09999999999999432
                },
                {
                    "name": "D6",
                    "midi": 86,
                    "time": 155.6999999999988,
                    "velocity": 0.5905511811023622,
                    "duration": 0.09999999999999432
                },
                {
                    "name": "B5",
                    "midi": 83,
                    "time": 155.99999999999878,
                    "velocity": 0.5905511811023622,
                    "duration": 0.09999999999999432
                },
                {
                    "name": "D6",
                    "midi": 86,
                    "time": 155.99999999999878,
                    "velocity": 0.5905511811023622,
                    "duration": 0.09999999999999432
                },
                {
                    "name": "B5",
                    "midi": 83,
                    "time": 156.29999999999876,
                    "velocity": 0.5905511811023622,
                    "duration": 0.09999999999999432
                },
                {
                    "name": "D6",
                    "midi": 86,
                    "time": 156.29999999999876,
                    "velocity": 0.5905511811023622,
                    "duration": 0.09999999999999432
                },
                {
                    "name": "B5",
                    "midi": 83,
                    "time": 156.59999999999874,
                    "velocity": 0.5905511811023622,
                    "duration": 0.09999999999999432
                },
                {
                    "name": "D6",
                    "midi": 86,
                    "time": 156.59999999999874,
                    "velocity": 0.5905511811023622,
                    "duration": 0.09999999999999432
                },
                {
                    "name": "A#5",
                    "midi": 82,
                    "time": 156.89999999999873,
                    "velocity": 0.5905511811023622,
                    "duration": 0.09999999999999432
                },
                {
                    "name": "D6",
                    "midi": 86,
                    "time": 156.89999999999873,
                    "velocity": 0.5905511811023622,
                    "duration": 0.09999999999999432
                },
                {
                    "name": "A#5",
                    "midi": 82,
                    "time": 157.1999999999987,
                    "velocity": 0.5905511811023622,
                    "duration": 0.09999999999999432
                },
                {
                    "name": "D6",
                    "midi": 86,
                    "time": 157.1999999999987,
                    "velocity": 0.5905511811023622,
                    "duration": 0.09999999999999432
                },
                {
                    "name": "A#5",
                    "midi": 82,
                    "time": 157.34999999999872,
                    "velocity": 0.5905511811023622,
                    "duration": 0.09999999999999432
                },
                {
                    "name": "D6",
                    "midi": 86,
                    "time": 157.34999999999872,
                    "velocity": 0.5905511811023622,
                    "duration": 0.09999999999999432
                },
                {
                    "name": "A#5",
                    "midi": 82,
                    "time": 157.49999999999872,
                    "velocity": 0.5905511811023622,
                    "duration": 0.09999999999999432
                },
                {
                    "name": "D6",
                    "midi": 86,
                    "time": 157.49999999999872,
                    "velocity": 0.5905511811023622,
                    "duration": 0.09999999999999432
                },
                {
                    "name": "A#5",
                    "midi": 82,
                    "time": 157.7999999999987,
                    "velocity": 0.5905511811023622,
                    "duration": 0.09999999999999432
                },
                {
                    "name": "C#6",
                    "midi": 85,
                    "time": 157.7999999999987,
                    "velocity": 0.5905511811023622,
                    "duration": 0.09999999999999432
                },
                {
                    "name": "A#5",
                    "midi": 82,
                    "time": 158.0999999999987,
                    "velocity": 0.5905511811023622,
                    "duration": 0.09999999999999432
                },
                {
                    "name": "C#6",
                    "midi": 85,
                    "time": 158.0999999999987,
                    "velocity": 0.5905511811023622,
                    "duration": 0.09999999999999432
                },
                {
                    "name": "A#5",
                    "midi": 82,
                    "time": 158.39999999999867,
                    "velocity": 0.5905511811023622,
                    "duration": 0.09999999999999432
                },
                {
                    "name": "C#6",
                    "midi": 85,
                    "time": 158.39999999999867,
                    "velocity": 0.5905511811023622,
                    "duration": 0.09999999999999432
                },
                {
                    "name": "G#5",
                    "midi": 80,
                    "time": 158.69999999999865,
                    "velocity": 0.5905511811023622,
                    "duration": 0.09999999999999432
                },
                {
                    "name": "C6",
                    "midi": 84,
                    "time": 158.69999999999865,
                    "velocity": 0.5905511811023622,
                    "duration": 0.09999999999999432
                },
                {
                    "name": "G#5",
                    "midi": 80,
                    "time": 158.99999999999864,
                    "velocity": 0.5905511811023622,
                    "duration": 0.09999999999999432
                },
                {
                    "name": "C6",
                    "midi": 84,
                    "time": 158.99999999999864,
                    "velocity": 0.5905511811023622,
                    "duration": 0.09999999999999432
                },
                {
                    "name": "G#5",
                    "midi": 80,
                    "time": 159.14999999999864,
                    "velocity": 0.5905511811023622,
                    "duration": 0.09999999999999432
                },
                {
                    "name": "C6",
                    "midi": 84,
                    "time": 159.14999999999864,
                    "velocity": 0.5905511811023622,
                    "duration": 0.09999999999999432
                },
                {
                    "name": "G#5",
                    "midi": 80,
                    "time": 159.29999999999865,
                    "velocity": 0.5905511811023622,
                    "duration": 0.09999999999999432
                },
                {
                    "name": "C6",
                    "midi": 84,
                    "time": 159.29999999999865,
                    "velocity": 0.5905511811023622,
                    "duration": 0.09999999999999432
                },
                {
                    "name": "G#5",
                    "midi": 80,
                    "time": 159.59999999999863,
                    "velocity": 0.5905511811023622,
                    "duration": 0.09999999999999432
                },
                {
                    "name": "C6",
                    "midi": 84,
                    "time": 159.59999999999863,
                    "velocity": 0.5905511811023622,
                    "duration": 0.09999999999999432
                },
                {
                    "name": "G#5",
                    "midi": 80,
                    "time": 159.8999999999986,
                    "velocity": 0.5905511811023622,
                    "duration": 0.09999999999999432
                },
                {
                    "name": "C6",
                    "midi": 84,
                    "time": 159.8999999999986,
                    "velocity": 0.5905511811023622,
                    "duration": 0.09999999999999432
                },
                {
                    "name": "G#5",
                    "midi": 80,
                    "time": 160.1999999999986,
                    "velocity": 0.5905511811023622,
                    "duration": 0.09999999999999432
                },
                {
                    "name": "C6",
                    "midi": 84,
                    "time": 160.1999999999986,
                    "velocity": 0.5905511811023622,
                    "duration": 0.09999999999999432
                },
                {
                    "name": "G5",
                    "midi": 79,
                    "time": 160.49999999999858,
                    "velocity": 0.5905511811023622,
                    "duration": 0.09999999999999432
                },
                {
                    "name": "A#5",
                    "midi": 82,
                    "time": 160.49999999999858,
                    "velocity": 0.5905511811023622,
                    "duration": 0.09999999999999432
                },
                {
                    "name": "G5",
                    "midi": 79,
                    "time": 160.79999999999856,
                    "velocity": 0.5905511811023622,
                    "duration": 0.09999999999999432
                },
                {
                    "name": "A#5",
                    "midi": 82,
                    "time": 160.79999999999856,
                    "velocity": 0.5905511811023622,
                    "duration": 0.09999999999999432
                },
                {
                    "name": "G5",
                    "midi": 79,
                    "time": 160.94999999999857,
                    "velocity": 0.5905511811023622,
                    "duration": 0.09999999999999432
                },
                {
                    "name": "A#5",
                    "midi": 82,
                    "time": 160.94999999999857,
                    "velocity": 0.5905511811023622,
                    "duration": 0.09999999999999432
                },
                {
                    "name": "G5",
                    "midi": 79,
                    "time": 161.09999999999857,
                    "velocity": 0.5905511811023622,
                    "duration": 0.09999999999999432
                },
                {
                    "name": "A#5",
                    "midi": 82,
                    "time": 161.09999999999857,
                    "velocity": 0.5905511811023622,
                    "duration": 0.09999999999999432
                },
                {
                    "name": "G5",
                    "midi": 79,
                    "time": 161.39999999999856,
                    "velocity": 0.5905511811023622,
                    "duration": 0.09999999999999432
                },
                {
                    "name": "A#5",
                    "midi": 82,
                    "time": 161.39999999999856,
                    "velocity": 0.5905511811023622,
                    "duration": 0.09999999999999432
                },
                {
                    "name": "G5",
                    "midi": 79,
                    "time": 161.69999999999854,
                    "velocity": 0.5905511811023622,
                    "duration": 0.09999999999999432
                },
                {
                    "name": "A#5",
                    "midi": 82,
                    "time": 161.69999999999854,
                    "velocity": 0.5905511811023622,
                    "duration": 0.09999999999999432
                },
                {
                    "name": "G5",
                    "midi": 79,
                    "time": 161.99999999999852,
                    "velocity": 0.5905511811023622,
                    "duration": 0.09999999999999432
                },
                {
                    "name": "A#5",
                    "midi": 82,
                    "time": 161.99999999999852,
                    "velocity": 0.5905511811023622,
                    "duration": 0.09999999999999432
                },
                {
                    "name": "C6",
                    "midi": 84,
                    "time": 162.2999999999985,
                    "velocity": 0.47244094488188976,
                    "duration": 0.15000000000000568
                },
                {
                    "name": "B5",
                    "midi": 83,
                    "time": 162.4499999999985,
                    "velocity": 0.47244094488188976,
                    "duration": 0.09999999999999432
                },
                {
                    "name": "C6",
                    "midi": 84,
                    "time": 162.59999999999852,
                    "velocity": 0.47244094488188976,
                    "duration": 0.09999999999999432
                },
                {
                    "name": "D6",
                    "midi": 86,
                    "time": 162.74999999999852,
                    "velocity": 0.47244094488188976,
                    "duration": 0.09999999999999432
                },
                {
                    "name": "E6",
                    "midi": 88,
                    "time": 162.89999999999853,
                    "velocity": 0.47244094488188976,
                    "duration": 0.09999999999999432
                },
                {
                    "name": "F6",
                    "midi": 89,
                    "time": 163.04999999999853,
                    "velocity": 0.47244094488188976,
                    "duration": 0.09999999999999432
                },
                {
                    "name": "G6",
                    "midi": 91,
                    "time": 163.19999999999854,
                    "velocity": 0.47244094488188976,
                    "duration": 0.09999999999999432
                },
                {
                    "name": "G6",
                    "midi": 91,
                    "time": 163.49999999999852,
                    "velocity": 0.47244094488188976,
                    "duration": 0.09999999999999432
                },
                {
                    "name": "G6",
                    "midi": 91,
                    "time": 163.7999999999985,
                    "velocity": 0.47244094488188976,
                    "duration": 0.09999999999999432
                },
                {
                    "name": "C6",
                    "midi": 84,
                    "time": 166.7999999999985,
                    "velocity": 0.47244094488188976,
                    "duration": 0.15000000000000568
                },
                {
                    "name": "B5",
                    "midi": 83,
                    "time": 166.9499999999985,
                    "velocity": 0.47244094488188976,
                    "duration": 0.09999999999999432
                },
                {
                    "name": "C6",
                    "midi": 84,
                    "time": 167.09999999999852,
                    "velocity": 0.47244094488188976,
                    "duration": 0.09999999999999432
                },
                {
                    "name": "D6",
                    "midi": 86,
                    "time": 167.24999999999852,
                    "velocity": 0.47244094488188976,
                    "duration": 0.09999999999999432
                },
                {
                    "name": "E6",
                    "midi": 88,
                    "time": 167.39999999999853,
                    "velocity": 0.47244094488188976,
                    "duration": 0.09999999999999432
                },
                {
                    "name": "F6",
                    "midi": 89,
                    "time": 167.54999999999853,
                    "velocity": 0.47244094488188976,
                    "duration": 0.09999999999999432
                },
                {
                    "name": "G6",
                    "midi": 91,
                    "time": 167.69999999999854,
                    "velocity": 0.6614173228346457,
                    "duration": 0.29374999999998863
                },
                {
                    "name": "G5",
                    "midi": 79,
                    "time": 169.19999999999854,
                    "velocity": 0.5905511811023622,
                    "duration": 0.09999999999999432
                },
                {
                    "name": "G6",
                    "midi": 91,
                    "time": 169.49999999999852,
                    "velocity": 0.5905511811023622,
                    "duration": 0.09999999999999432
                },
                {
                    "name": "G6",
                    "midi": 91,
                    "time": 169.7999999999985,
                    "velocity": 0.5905511811023622,
                    "duration": 0.09999999999999432
                },
                {
                    "name": "F6",
                    "midi": 89,
                    "time": 170.0999999999985,
                    "velocity": 0.5905511811023622,
                    "duration": 0.09999999999999432
                },
                {
                    "name": "D#6",
                    "midi": 87,
                    "time": 170.39999999999847,
                    "velocity": 0.5905511811023622,
                    "duration": 0.09999999999999432
                },
                {
                    "name": "D#6",
                    "midi": 87,
                    "time": 170.69999999999845,
                    "velocity": 0.5905511811023622,
                    "duration": 0.09999999999999432
                },
                {
                    "name": "D6",
                    "midi": 86,
                    "time": 170.99999999999844,
                    "velocity": 0.5905511811023622,
                    "duration": 0.09999999999999432
                },
                {
                    "name": "C6",
                    "midi": 84,
                    "time": 171.29999999999842,
                    "velocity": 0.5905511811023622,
                    "duration": 0.09999999999999432
                },
                {
                    "name": "B5",
                    "midi": 83,
                    "time": 171.5999999999984,
                    "velocity": 0.5905511811023622,
                    "duration": 0.09999999999999432
                },
                {
                    "name": "C6",
                    "midi": 84,
                    "time": 171.89999999999839,
                    "velocity": 0.5905511811023622,
                    "duration": 0.09999999999999432
                },
                {
                    "name": "B5",
                    "midi": 83,
                    "time": 172.19999999999837,
                    "velocity": 0.5905511811023622,
                    "duration": 0.07499999999998863
                },
                {
                    "name": "C6",
                    "midi": 84,
                    "time": 172.27499999999836,
                    "velocity": 0.5905511811023622,
                    "duration": 0.07499999999998863
                },
                {
                    "name": "D6",
                    "midi": 86,
                    "time": 172.34999999999835,
                    "velocity": 0.5905511811023622,
                    "duration": 0.09999999999999432
                },
                {
                    "name": "G5",
                    "midi": 79,
                    "time": 172.49999999999835,
                    "velocity": 0.5905511811023622,
                    "duration": 0.09999999999999432
                },
                {
                    "name": "G5",
                    "midi": 79,
                    "time": 172.79999999999833,
                    "velocity": 0.5905511811023622,
                    "duration": 0.09999999999999432
                },
                {
                    "name": "A#5",
                    "midi": 82,
                    "time": 173.09999999999832,
                    "velocity": 0.5905511811023622,
                    "duration": 0.07499999999998863
                },
                {
                    "name": "G#5",
                    "midi": 80,
                    "time": 173.1749999999983,
                    "velocity": 0.5905511811023622,
                    "duration": 0.15000000000000568
                },
                {
                    "name": "G5",
                    "midi": 79,
                    "time": 173.3999999999983,
                    "velocity": 0.5905511811023622,
                    "duration": 0.09999999999999432
                },
                {
                    "name": "F5",
                    "midi": 77,
                    "time": 173.69999999999828,
                    "velocity": 0.5905511811023622,
                    "duration": 0.09999999999999432
                },
                {
                    "name": "D#5",
                    "midi": 75,
                    "time": 173.99999999999827,
                    "velocity": 0.5905511811023622,
                    "duration": 0.09999999999999432
                },
                {
                    "name": "D5",
                    "midi": 74,
                    "time": 174.29999999999825,
                    "velocity": 0.5905511811023622,
                    "duration": 0.09999999999999432
                },
                {
                    "name": "C5",
                    "midi": 72,
                    "time": 174.59999999999823,
                    "velocity": 0.5905511811023622,
                    "duration": 0.09999999999999432
                },
                {
                    "name": "F5",
                    "midi": 77,
                    "time": 174.89999999999822,
                    "velocity": 0.5905511811023622,
                    "duration": 0.07499999999998863
                },
                {
                    "name": "D#5",
                    "midi": 75,
                    "time": 174.9749999999982,
                    "velocity": 0.5905511811023622,
                    "duration": 0.15000000000000568
                },
                {
                    "name": "D5",
                    "midi": 74,
                    "time": 175.1999999999982,
                    "velocity": 0.5905511811023622,
                    "duration": 0.09999999999999432
                },
                {
                    "name": "C5",
                    "midi": 72,
                    "time": 175.49999999999818,
                    "velocity": 0.5905511811023622,
                    "duration": 0.09999999999999432
                },
                {
                    "name": "D5",
                    "midi": 74,
                    "time": 175.79999999999816,
                    "velocity": 0.5905511811023622,
                    "duration": 0.5999999999999943
                },
                {
                    "name": "G5",
                    "midi": 79,
                    "time": 176.39999999999816,
                    "velocity": 0.5905511811023622,
                    "duration": 0.30000000000001137
                },
                {
                    "name": "G6",
                    "midi": 91,
                    "time": 176.69999999999817,
                    "velocity": 0.5905511811023622,
                    "duration": 0.09999999999999432
                },
                {
                    "name": "G6",
                    "midi": 91,
                    "time": 176.99999999999815,
                    "velocity": 0.5905511811023622,
                    "duration": 0.09999999999999432
                },
                {
                    "name": "F6",
                    "midi": 89,
                    "time": 177.29999999999814,
                    "velocity": 0.5905511811023622,
                    "duration": 0.09999999999999432
                },
                {
                    "name": "D#6",
                    "midi": 87,
                    "time": 177.59999999999812,
                    "velocity": 0.5905511811023622,
                    "duration": 0.09999999999999432
                },
                {
                    "name": "D#6",
                    "midi": 87,
                    "time": 177.8999999999981,
                    "velocity": 0.5905511811023622,
                    "duration": 0.09999999999999432
                },
                {
                    "name": "D6",
                    "midi": 86,
                    "time": 178.19999999999808,
                    "velocity": 0.5905511811023622,
                    "duration": 0.09999999999999432
                },
                {
                    "name": "C6",
                    "midi": 84,
                    "time": 178.49999999999807,
                    "velocity": 0.5905511811023622,
                    "duration": 0.09999999999999432
                },
                {
                    "name": "B5",
                    "midi": 83,
                    "time": 178.79999999999805,
                    "velocity": 0.5905511811023622,
                    "duration": 0.09999999999999432
                },
                {
                    "name": "C6",
                    "midi": 84,
                    "time": 179.09999999999803,
                    "velocity": 0.5905511811023622,
                    "duration": 0.09999999999999432
                },
                {
                    "name": "B5",
                    "midi": 83,
                    "time": 179.39999999999802,
                    "velocity": 0.5905511811023622,
                    "duration": 0.07499999999998863
                },
                {
                    "name": "C6",
                    "midi": 84,
                    "time": 179.474999999998,
                    "velocity": 0.5905511811023622,
                    "duration": 0.07499999999998863
                },
                {
                    "name": "D6",
                    "midi": 86,
                    "time": 179.549999999998,
                    "velocity": 0.5905511811023622,
                    "duration": 0.09999999999999432
                },
                {
                    "name": "G5",
                    "midi": 79,
                    "time": 179.699999999998,
                    "velocity": 0.5905511811023622,
                    "duration": 0.09999999999999432
                },
                {
                    "name": "G5",
                    "midi": 79,
                    "time": 179.99999999999798,
                    "velocity": 0.5905511811023622,
                    "duration": 0.09999999999999432
                },
                {
                    "name": "A#5",
                    "midi": 82,
                    "time": 180.29999999999797,
                    "velocity": 0.5905511811023622,
                    "duration": 0.07499999999998863
                },
                {
                    "name": "G#5",
                    "midi": 80,
                    "time": 180.37499999999795,
                    "velocity": 0.5905511811023622,
                    "duration": 0.15000000000000568
                },
                {
                    "name": "G5",
                    "midi": 79,
                    "time": 180.59999999999795,
                    "velocity": 0.5905511811023622,
                    "duration": 0.09999999999999432
                },
                {
                    "name": "F5",
                    "midi": 77,
                    "time": 180.89999999999793,
                    "velocity": 0.5905511811023622,
                    "duration": 0.09999999999999432
                },
                {
                    "name": "G5",
                    "midi": 79,
                    "time": 181.1999999999979,
                    "velocity": 0.5905511811023622,
                    "duration": 0.09999999999999432
                },
                {
                    "name": "C6",
                    "midi": 84,
                    "time": 181.4999999999979,
                    "velocity": 0.5905511811023622,
                    "duration": 0.09999999999999432
                },
                {
                    "name": "D#6",
                    "midi": 87,
                    "time": 181.6499999999979,
                    "velocity": 0.5905511811023622,
                    "duration": 0.09999999999999432
                },
                {
                    "name": "G6",
                    "midi": 91,
                    "time": 181.7999999999979,
                    "velocity": 0.5905511811023622,
                    "duration": 0.09999999999999432
                },
                {
                    "name": "G5",
                    "midi": 79,
                    "time": 182.0999999999979,
                    "velocity": 0.5905511811023622,
                    "duration": 0.09999999999999432
                },
                {
                    "name": "B5",
                    "midi": 83,
                    "time": 182.39999999999787,
                    "velocity": 0.5905511811023622,
                    "duration": 0.09999999999999432
                },
                {
                    "name": "D6",
                    "midi": 86,
                    "time": 182.54999999999788,
                    "velocity": 0.5905511811023622,
                    "duration": 0.09999999999999432
                },
                {
                    "name": "G6",
                    "midi": 91,
                    "time": 182.69999999999789,
                    "velocity": 0.5905511811023622,
                    "duration": 0.09999999999999432
                },
                {
                    "name": "C6",
                    "midi": 84,
                    "time": 182.99999999999787,
                    "velocity": 0.5905511811023622,
                    "duration": 0.09999999999999432
                },
                {
                    "name": "C7",
                    "midi": 96,
                    "time": 183.29999999999785,
                    "velocity": 0.5905511811023622,
                    "duration": 0.09999999999999432
                },
                {
                    "name": "G5",
                    "midi": 79,
                    "time": 183.59999999999783,
                    "velocity": 0.7244094488188977,
                    "duration": 0.30000000000001137
                },
                {
                    "name": "G6",
                    "midi": 91,
                    "time": 183.89999999999785,
                    "velocity": 0.7244094488188977,
                    "duration": 0.09999999999999432
                },
                {
                    "name": "G6",
                    "midi": 91,
                    "time": 184.19999999999783,
                    "velocity": 0.7244094488188977,
                    "duration": 0.09999999999999432
                },
                {
                    "name": "F6",
                    "midi": 89,
                    "time": 184.4999999999978,
                    "velocity": 0.7244094488188977,
                    "duration": 0.09999999999999432
                },
                {
                    "name": "D#6",
                    "midi": 87,
                    "time": 184.7999999999978,
                    "velocity": 0.7244094488188977,
                    "duration": 0.09999999999999432
                },
                {
                    "name": "D#6",
                    "midi": 87,
                    "time": 185.09999999999778,
                    "velocity": 0.7244094488188977,
                    "duration": 0.09999999999999432
                },
                {
                    "name": "D6",
                    "midi": 86,
                    "time": 185.39999999999776,
                    "velocity": 0.7244094488188977,
                    "duration": 0.09999999999999432
                },
                {
                    "name": "C6",
                    "midi": 84,
                    "time": 185.69999999999774,
                    "velocity": 0.7244094488188977,
                    "duration": 0.09999999999999432
                },
                {
                    "name": "B5",
                    "midi": 83,
                    "time": 185.99999999999773,
                    "velocity": 0.7244094488188977,
                    "duration": 0.09999999999999432
                },
                {
                    "name": "C6",
                    "midi": 84,
                    "time": 186.2999999999977,
                    "velocity": 0.7244094488188977,
                    "duration": 0.09999999999999432
                },
                {
                    "name": "B5",
                    "midi": 83,
                    "time": 186.5999999999977,
                    "velocity": 0.7244094488188977,
                    "duration": 0.07499999999998863
                },
                {
                    "name": "C6",
                    "midi": 84,
                    "time": 186.67499999999768,
                    "velocity": 0.7244094488188977,
                    "duration": 0.07499999999998863
                },
                {
                    "name": "D6",
                    "midi": 86,
                    "time": 186.74999999999767,
                    "velocity": 0.7244094488188977,
                    "duration": 0.09999999999999432
                },
                {
                    "name": "G5",
                    "midi": 79,
                    "time": 186.89999999999768,
                    "velocity": 0.7244094488188977,
                    "duration": 0.09999999999999432
                },
                {
                    "name": "G5",
                    "midi": 79,
                    "time": 187.19999999999766,
                    "velocity": 0.7244094488188977,
                    "duration": 0.09999999999999432
                },
                {
                    "name": "A#5",
                    "midi": 82,
                    "time": 187.49999999999764,
                    "velocity": 0.7244094488188977,
                    "duration": 0.07499999999998863
                },
                {
                    "name": "G#5",
                    "midi": 80,
                    "time": 187.57499999999763,
                    "velocity": 0.7244094488188977,
                    "duration": 0.15000000000000568
                },
                {
                    "name": "G5",
                    "midi": 79,
                    "time": 187.79999999999762,
                    "velocity": 0.7244094488188977,
                    "duration": 0.09999999999999432
                },
                {
                    "name": "F5",
                    "midi": 77,
                    "time": 188.0999999999976,
                    "velocity": 0.7244094488188977,
                    "duration": 0.09999999999999432
                },
                {
                    "name": "D#5",
                    "midi": 75,
                    "time": 188.3999999999976,
                    "velocity": 0.7244094488188977,
                    "duration": 0.09999999999999432
                },
                {
                    "name": "D5",
                    "midi": 74,
                    "time": 188.69999999999757,
                    "velocity": 0.7244094488188977,
                    "duration": 0.09999999999999432
                },
                {
                    "name": "C5",
                    "midi": 72,
                    "time": 188.99999999999756,
                    "velocity": 0.7244094488188977,
                    "duration": 0.09999999999999432
                },
                {
                    "name": "F5",
                    "midi": 77,
                    "time": 189.29999999999754,
                    "velocity": 0.7244094488188977,
                    "duration": 0.07499999999998863
                },
                {
                    "name": "D#5",
                    "midi": 75,
                    "time": 189.37499999999753,
                    "velocity": 0.7244094488188977,
                    "duration": 0.15000000000000568
                },
                {
                    "name": "D5",
                    "midi": 74,
                    "time": 189.59999999999752,
                    "velocity": 0.7244094488188977,
                    "duration": 0.09999999999999432
                },
                {
                    "name": "C5",
                    "midi": 72,
                    "time": 189.8999999999975,
                    "velocity": 0.7244094488188977,
                    "duration": 0.09999999999999432
                },
                {
                    "name": "D5",
                    "midi": 74,
                    "time": 190.1999999999975,
                    "velocity": 0.7244094488188977,
                    "duration": 0.5999999999999943
                },
                {
                    "name": "G5",
                    "midi": 79,
                    "time": 190.79999999999748,
                    "velocity": 0.7244094488188977,
                    "duration": 0.30000000000001137
                },
                {
                    "name": "G6",
                    "midi": 91,
                    "time": 191.0999999999975,
                    "velocity": 0.7244094488188977,
                    "duration": 0.09999999999999432
                },
                {
                    "name": "G6",
                    "midi": 91,
                    "time": 191.39999999999748,
                    "velocity": 0.7244094488188977,
                    "duration": 0.09999999999999432
                },
                {
                    "name": "F6",
                    "midi": 89,
                    "time": 191.69999999999746,
                    "velocity": 0.7244094488188977,
                    "duration": 0.09999999999999432
                },
                {
                    "name": "D#6",
                    "midi": 87,
                    "time": 191.99999999999744,
                    "velocity": 0.7244094488188977,
                    "duration": 0.09999999999999432
                },
                {
                    "name": "D#6",
                    "midi": 87,
                    "time": 192.29999999999742,
                    "velocity": 0.7244094488188977,
                    "duration": 0.09999999999999432
                },
                {
                    "name": "D6",
                    "midi": 86,
                    "time": 192.5999999999974,
                    "velocity": 0.7244094488188977,
                    "duration": 0.09999999999999432
                },
                {
                    "name": "C6",
                    "midi": 84,
                    "time": 192.8999999999974,
                    "velocity": 0.7244094488188977,
                    "duration": 0.09999999999999432
                },
                {
                    "name": "B5",
                    "midi": 83,
                    "time": 193.19999999999737,
                    "velocity": 0.7244094488188977,
                    "duration": 0.09999999999999432
                },
                {
                    "name": "C6",
                    "midi": 84,
                    "time": 193.49999999999736,
                    "velocity": 0.7244094488188977,
                    "duration": 0.09999999999999432
                },
                {
                    "name": "B5",
                    "midi": 83,
                    "time": 193.79999999999734,
                    "velocity": 0.7244094488188977,
                    "duration": 0.07499999999998863
                },
                {
                    "name": "C6",
                    "midi": 84,
                    "time": 193.87499999999733,
                    "velocity": 0.7244094488188977,
                    "duration": 0.07499999999998863
                },
                {
                    "name": "D6",
                    "midi": 86,
                    "time": 193.94999999999732,
                    "velocity": 0.7244094488188977,
                    "duration": 0.09999999999999432
                },
                {
                    "name": "G5",
                    "midi": 79,
                    "time": 194.09999999999732,
                    "velocity": 0.7244094488188977,
                    "duration": 0.09999999999999432
                },
                {
                    "name": "G5",
                    "midi": 79,
                    "time": 194.3999999999973,
                    "velocity": 0.7244094488188977,
                    "duration": 0.09999999999999432
                },
                {
                    "name": "A#5",
                    "midi": 82,
                    "time": 194.6999999999973,
                    "velocity": 0.7244094488188977,
                    "duration": 0.07499999999998863
                },
                {
                    "name": "G#5",
                    "midi": 80,
                    "time": 194.77499999999728,
                    "velocity": 0.7244094488188977,
                    "duration": 0.15000000000000568
                },
                {
                    "name": "G5",
                    "midi": 79,
                    "time": 194.99999999999727,
                    "velocity": 0.7244094488188977,
                    "duration": 0.09999999999999432
                },
                {
                    "name": "F5",
                    "midi": 77,
                    "time": 195.29999999999725,
                    "velocity": 0.7244094488188977,
                    "duration": 0.09999999999999432
                },
                {
                    "name": "G5",
                    "midi": 79,
                    "time": 195.59999999999724,
                    "velocity": 0.7244094488188977,
                    "duration": 0.09999999999999432
                },
                {
                    "name": "C6",
                    "midi": 84,
                    "time": 195.89999999999722,
                    "velocity": 0.7244094488188977,
                    "duration": 0.09999999999999432
                },
                {
                    "name": "D#6",
                    "midi": 87,
                    "time": 196.04999999999723,
                    "velocity": 0.7244094488188977,
                    "duration": 0.09999999999999432
                },
                {
                    "name": "G6",
                    "midi": 91,
                    "time": 196.19999999999723,
                    "velocity": 0.7244094488188977,
                    "duration": 0.09999999999999432
                },
                {
                    "name": "G5",
                    "midi": 79,
                    "time": 196.49999999999721,
                    "velocity": 0.7244094488188977,
                    "duration": 0.09999999999999432
                },
                {
                    "name": "B5",
                    "midi": 83,
                    "time": 196.7999999999972,
                    "velocity": 0.7244094488188977,
                    "duration": 0.09999999999999432
                },
                {
                    "name": "D6",
                    "midi": 86,
                    "time": 196.9499999999972,
                    "velocity": 0.7244094488188977,
                    "duration": 0.09999999999999432
                },
                {
                    "name": "G6",
                    "midi": 91,
                    "time": 197.0999999999972,
                    "velocity": 0.7244094488188977,
                    "duration": 0.09999999999999432
                },
                {
                    "name": "C6",
                    "midi": 84,
                    "time": 197.3999999999972,
                    "velocity": 0.7244094488188977,
                    "duration": 0.5999999999999943
                },
                {
                    "name": "D#5",
                    "midi": 75,
                    "time": 197.9999999999972,
                    "velocity": 0.5905511811023622,
                    "duration": 0.09999999999999432
                },
                {
                    "name": "D#5",
                    "midi": 75,
                    "time": 198.29999999999717,
                    "velocity": 0.5905511811023622,
                    "duration": 0.09999999999999432
                },
                {
                    "name": "D#5",
                    "midi": 75,
                    "time": 198.59999999999715,
                    "velocity": 0.5905511811023622,
                    "duration": 0.09999999999999432
                },
                {
                    "name": "D#5",
                    "midi": 75,
                    "time": 198.89999999999714,
                    "velocity": 0.5905511811023622,
                    "duration": 0.09999999999999432
                },
                {
                    "name": "D#5",
                    "midi": 75,
                    "time": 199.19999999999712,
                    "velocity": 0.5905511811023622,
                    "duration": 0.05000000000001137
                },
                {
                    "name": "F5",
                    "midi": 77,
                    "time": 199.24999999999713,
                    "velocity": 0.5905511811023622,
                    "duration": 0.05000000000001137
                },
                {
                    "name": "D#5",
                    "midi": 75,
                    "time": 199.29999999999714,
                    "velocity": 0.5905511811023622,
                    "duration": 0.05000000000001137
                },
                {
                    "name": "D5",
                    "midi": 74,
                    "time": 199.34999999999715,
                    "velocity": 0.5905511811023622,
                    "duration": 0.07499999999998863
                },
                {
                    "name": "C5",
                    "midi": 72,
                    "time": 199.42499999999714,
                    "velocity": 0.5905511811023622,
                    "duration": 0.07499999999998863
                },
                {
                    "name": "A#4",
                    "midi": 70,
                    "time": 199.49999999999713,
                    "velocity": 0.5905511811023622,
                    "duration": 0.09999999999999432
                },
                {
                    "name": "D#5",
                    "midi": 75,
                    "time": 199.7999999999971,
                    "velocity": 0.5905511811023622,
                    "duration": 0.09999999999999432
                },
                {
                    "name": "F5",
                    "midi": 77,
                    "time": 200.0999999999971,
                    "velocity": 0.5905511811023622,
                    "duration": 0.05000000000001137
                },
                {
                    "name": "G5",
                    "midi": 79,
                    "time": 200.1499999999971,
                    "velocity": 0.5905511811023622,
                    "duration": 0.05000000000001137
                },
                {
                    "name": "F5",
                    "midi": 77,
                    "time": 200.19999999999712,
                    "velocity": 0.5905511811023622,
                    "duration": 0.05000000000001137
                },
                {
                    "name": "D5",
                    "midi": 74,
                    "time": 200.24999999999713,
                    "velocity": 0.5905511811023622,
                    "duration": 0.07499999999998863
                },
                {
                    "name": "C5",
                    "midi": 72,
                    "time": 200.32499999999712,
                    "velocity": 0.5905511811023622,
                    "duration": 0.07499999999998863
                },
                {
                    "name": "A#4",
                    "midi": 70,
                    "time": 200.3999999999971,
                    "velocity": 0.5905511811023622,
                    "duration": 0.09999999999999432
                },
                {
                    "name": "F5",
                    "midi": 77,
                    "time": 200.6999999999971,
                    "velocity": 0.5905511811023622,
                    "duration": 0.09999999999999432
                },
                {
                    "name": "G5",
                    "midi": 79,
                    "time": 200.99999999999707,
                    "velocity": 0.5905511811023622,
                    "duration": 0.30000000000001137
                },
                {
                    "name": "D#5",
                    "midi": 75,
                    "time": 201.29999999999708,
                    "velocity": 0.5905511811023622,
                    "duration": 0.09999999999999432
                },
                {
                    "name": "G5",
                    "midi": 79,
                    "time": 201.59999999999707,
                    "velocity": 0.5905511811023622,
                    "duration": 0.09999999999999432
                },
                {
                    "name": "G5",
                    "midi": 79,
                    "time": 201.89999999999705,
                    "velocity": 0.5905511811023622,
                    "duration": 0.09999999999999432
                },
                {
                    "name": "G5",
                    "midi": 79,
                    "time": 202.19999999999703,
                    "velocity": 0.5905511811023622,
                    "duration": 0.09999999999999432
                },
                {
                    "name": "G5",
                    "midi": 79,
                    "time": 202.49999999999702,
                    "velocity": 0.5905511811023622,
                    "duration": 0.09999999999999432
                },
                {
                    "name": "G5",
                    "midi": 79,
                    "time": 202.799999999997,
                    "velocity": 0.5905511811023622,
                    "duration": 0.05000000000001137
                },
                {
                    "name": "A5",
                    "midi": 81,
                    "time": 202.849999999997,
                    "velocity": 0.5905511811023622,
                    "duration": 0.05000000000001137
                },
                {
                    "name": "G5",
                    "midi": 79,
                    "time": 202.89999999999702,
                    "velocity": 0.5905511811023622,
                    "duration": 0.05000000000001137
                },
                {
                    "name": "F#5",
                    "midi": 78,
                    "time": 202.94999999999703,
                    "velocity": 0.5905511811023622,
                    "duration": 0.07499999999998863
                },
                {
                    "name": "E5",
                    "midi": 76,
                    "time": 203.02499999999702,
                    "velocity": 0.5905511811023622,
                    "duration": 0.07499999999998863
                },
                {
                    "name": "D5",
                    "midi": 74,
                    "time": 203.099999999997,
                    "velocity": 0.5905511811023622,
                    "duration": 0.09999999999999432
                },
                {
                    "name": "G5",
                    "midi": 79,
                    "time": 203.399999999997,
                    "velocity": 0.5905511811023622,
                    "duration": 0.09999999999999432
                },
                {
                    "name": "A5",
                    "midi": 81,
                    "time": 203.69999999999698,
                    "velocity": 0.5905511811023622,
                    "duration": 0.05000000000001137
                },
                {
                    "name": "B5",
                    "midi": 83,
                    "time": 203.749999999997,
                    "velocity": 0.5905511811023622,
                    "duration": 0.05000000000001137
                },
                {
                    "name": "A5",
                    "midi": 81,
                    "time": 203.799999999997,
                    "velocity": 0.5905511811023622,
                    "duration": 0.05000000000001137
                },
                {
                    "name": "F#5",
                    "midi": 78,
                    "time": 203.849999999997,
                    "velocity": 0.5905511811023622,
                    "duration": 0.07499999999998863
                },
                {
                    "name": "E5",
                    "midi": 76,
                    "time": 203.924999999997,
                    "velocity": 0.5905511811023622,
                    "duration": 0.07499999999998863
                },
                {
                    "name": "D5",
                    "midi": 74,
                    "time": 203.999999999997,
                    "velocity": 0.5905511811023622,
                    "duration": 0.09999999999999432
                },
                {
                    "name": "A5",
                    "midi": 81,
                    "time": 204.29999999999697,
                    "velocity": 0.5905511811023622,
                    "duration": 0.09999999999999432
                },
                {
                    "name": "A#5",
                    "midi": 82,
                    "time": 204.59999999999695,
                    "velocity": 0.5905511811023622,
                    "duration": 0.30000000000001137
                },
                {
                    "name": "G5",
                    "midi": 79,
                    "time": 204.89999999999696,
                    "velocity": 0.5905511811023622,
                    "duration": 0.09999999999999432
                },
                {
                    "name": "A#5",
                    "midi": 82,
                    "time": 205.19999999999695,
                    "velocity": 0.5905511811023622,
                    "duration": 0.09999999999999432
                },
                {
                    "name": "A#5",
                    "midi": 82,
                    "time": 205.49999999999693,
                    "velocity": 0.5905511811023622,
                    "duration": 0.09999999999999432
                },
                {
                    "name": "A#5",
                    "midi": 82,
                    "time": 205.7999999999969,
                    "velocity": 0.5905511811023622,
                    "duration": 0.09999999999999432
                },
                {
                    "name": "A#5",
                    "midi": 82,
                    "time": 206.0999999999969,
                    "velocity": 0.5905511811023622,
                    "duration": 0.09999999999999432
                },
                {
                    "name": "A#5",
                    "midi": 82,
                    "time": 206.39999999999688,
                    "velocity": 0.5905511811023622,
                    "duration": 0.05000000000001137
                },
                {
                    "name": "C6",
                    "midi": 84,
                    "time": 206.4499999999969,
                    "velocity": 0.5905511811023622,
                    "duration": 0.05000000000001137
                },
                {
                    "name": "A#5",
                    "midi": 82,
                    "time": 206.4999999999969,
                    "velocity": 0.5905511811023622,
                    "duration": 0.05000000000001137
                },
                {
                    "name": "A5",
                    "midi": 81,
                    "time": 206.5499999999969,
                    "velocity": 0.5905511811023622,
                    "duration": 0.07499999999998863
                },
                {
                    "name": "G5",
                    "midi": 79,
                    "time": 206.6249999999969,
                    "velocity": 0.5905511811023622,
                    "duration": 0.07499999999998863
                },
                {
                    "name": "F5",
                    "midi": 77,
                    "time": 206.6999999999969,
                    "velocity": 0.5905511811023622,
                    "duration": 0.09999999999999432
                },
                {
                    "name": "A#5",
                    "midi": 82,
                    "time": 206.99999999999687,
                    "velocity": 0.5905511811023622,
                    "duration": 0.09999999999999432
                },
                {
                    "name": "C6",
                    "midi": 84,
                    "time": 207.29999999999686,
                    "velocity": 0.5905511811023622,
                    "duration": 0.05000000000001137
                },
                {
                    "name": "D6",
                    "midi": 86,
                    "time": 207.34999999999687,
                    "velocity": 0.5905511811023622,
                    "duration": 0.05000000000001137
                },
                {
                    "name": "C6",
                    "midi": 84,
                    "time": 207.39999999999688,
                    "velocity": 0.5905511811023622,
                    "duration": 0.05000000000001137
                },
                {
                    "name": "A5",
                    "midi": 81,
                    "time": 207.4499999999969,
                    "velocity": 0.5905511811023622,
                    "duration": 0.07499999999998863
                },
                {
                    "name": "G5",
                    "midi": 79,
                    "time": 207.52499999999688,
                    "velocity": 0.5905511811023622,
                    "duration": 0.07499999999998863
                },
                {
                    "name": "F5",
                    "midi": 77,
                    "time": 207.59999999999687,
                    "velocity": 0.5905511811023622,
                    "duration": 0.09999999999999432
                },
                {
                    "name": "C6",
                    "midi": 84,
                    "time": 207.89999999999685,
                    "velocity": 0.5905511811023622,
                    "duration": 0.09999999999999432
                },
                {
                    "name": "D6",
                    "midi": 86,
                    "time": 208.19999999999683,
                    "velocity": 0.5905511811023622,
                    "duration": 0.07499999999998863
                },
                {
                    "name": "D#6",
                    "midi": 87,
                    "time": 208.27499999999682,
                    "velocity": 0.5905511811023622,
                    "duration": 0.07499999999998863
                },
                {
                    "name": "D6",
                    "midi": 86,
                    "time": 208.3499999999968,
                    "velocity": 0.5905511811023622,
                    "duration": 0.07499999999998863
                },
                {
                    "name": "D#6",
                    "midi": 87,
                    "time": 208.4249999999968,
                    "velocity": 0.5905511811023622,
                    "duration": 0.07499999999998863
                },
                {
                    "name": "F6",
                    "midi": 89,
                    "time": 208.4999999999968,
                    "velocity": 0.5905511811023622,
                    "duration": 0.09999999999999432
                },
                {
                    "name": "D#6",
                    "midi": 87,
                    "time": 208.79999999999677,
                    "velocity": 0.5905511811023622,
                    "duration": 0.09999999999999432
                },
                {
                    "name": "D6",
                    "midi": 86,
                    "time": 208.94999999999678,
                    "velocity": 0.5905511811023622,
                    "duration": 0.09999999999999432
                },
                {
                    "name": "C6",
                    "midi": 84,
                    "time": 209.09999999999678,
                    "velocity": 0.5905511811023622,
                    "duration": 0.07499999999998863
                },
                {
                    "name": "D6",
                    "midi": 86,
                    "time": 209.17499999999677,
                    "velocity": 0.5905511811023622,
                    "duration": 0.07499999999998863
                },
                {
                    "name": "C6",
                    "midi": 84,
                    "time": 209.24999999999676,
                    "velocity": 0.5905511811023622,
                    "duration": 0.07499999999998863
                },
                {
                    "name": "D6",
                    "midi": 86,
                    "time": 209.32499999999675,
                    "velocity": 0.5905511811023622,
                    "duration": 0.07499999999998863
                },
                {
                    "name": "D#6",
                    "midi": 87,
                    "time": 209.39999999999674,
                    "velocity": 0.5905511811023622,
                    "duration": 0.09999999999999432
                },
                {
                    "name": "D6",
                    "midi": 86,
                    "time": 209.69999999999672,
                    "velocity": 0.5905511811023622,
                    "duration": 0.09999999999999432
                },
                {
                    "name": "C6",
                    "midi": 84,
                    "time": 209.84999999999673,
                    "velocity": 0.5905511811023622,
                    "duration": 0.09999999999999432
                },
                {
                    "name": "A#5",
                    "midi": 82,
                    "time": 209.99999999999673,
                    "velocity": 0.5905511811023622,
                    "duration": 0.07499999999998863
                },
                {
                    "name": "C6",
                    "midi": 84,
                    "time": 210.07499999999672,
                    "velocity": 0.5905511811023622,
                    "duration": 0.07499999999998863
                },
                {
                    "name": "A#5",
                    "midi": 82,
                    "time": 210.1499999999967,
                    "velocity": 0.5905511811023622,
                    "duration": 0.07499999999998863
                },
                {
                    "name": "C6",
                    "midi": 84,
                    "time": 210.2249999999967,
                    "velocity": 0.5905511811023622,
                    "duration": 0.07499999999998863
                },
                {
                    "name": "D6",
                    "midi": 86,
                    "time": 210.2999999999967,
                    "velocity": 0.5905511811023622,
                    "duration": 0.09999999999999432
                },
                {
                    "name": "C6",
                    "midi": 84,
                    "time": 210.59999999999667,
                    "velocity": 0.5905511811023622,
                    "duration": 0.09999999999999432
                },
                {
                    "name": "A#5",
                    "midi": 82,
                    "time": 210.74999999999667,
                    "velocity": 0.5905511811023622,
                    "duration": 0.09999999999999432
                },
                {
                    "name": "A5",
                    "midi": 81,
                    "time": 210.89999999999668,
                    "velocity": 0.5905511811023622,
                    "duration": 0.07499999999998863
                },
                {
                    "name": "A#5",
                    "midi": 82,
                    "time": 210.97499999999667,
                    "velocity": 0.5905511811023622,
                    "duration": 0.07499999999998863
                },
                {
                    "name": "A5",
                    "midi": 81,
                    "time": 211.04999999999666,
                    "velocity": 0.5905511811023622,
                    "duration": 0.07499999999998863
                },
                {
                    "name": "A#5",
                    "midi": 82,
                    "time": 211.12499999999665,
                    "velocity": 0.5905511811023622,
                    "duration": 0.07499999999998863
                },
                {
                    "name": "C6",
                    "midi": 84,
                    "time": 211.19999999999663,
                    "velocity": 0.5905511811023622,
                    "duration": 0.09999999999999432
                },
                {
                    "name": "A#5",
                    "midi": 82,
                    "time": 211.49999999999662,
                    "velocity": 0.5905511811023622,
                    "duration": 0.09999999999999432
                },
                {
                    "name": "A5",
                    "midi": 81,
                    "time": 211.64999999999662,
                    "velocity": 0.5905511811023622,
                    "duration": 0.09999999999999432
                },
                {
                    "name": "A#5",
                    "midi": 82,
                    "time": 211.79999999999663,
                    "velocity": 0.5905511811023622,
                    "duration": 0.5999999999999943
                },
                {
                    "name": "B5",
                    "midi": 83,
                    "time": 212.39999999999662,
                    "velocity": 0.5905511811023622,
                    "duration": 0.30000000000001137
                },
                {
                    "name": "C6",
                    "midi": 84,
                    "time": 212.69999999999663,
                    "velocity": 0.8267716535433071,
                    "duration": 1.1937499999999943
                },
                {
                    "name": "A#5",
                    "midi": 82,
                    "time": 213.89999999999662,
                    "velocity": 0.5905511811023622,
                    "duration": 0.09999999999999432
                },
                {
                    "name": "G#5",
                    "midi": 80,
                    "time": 214.1999999999966,
                    "velocity": 0.5905511811023622,
                    "duration": 0.09999999999999432
                },
                {
                    "name": "G5",
                    "midi": 79,
                    "time": 214.4999999999966,
                    "velocity": 0.5905511811023622,
                    "duration": 0.09999999999999432
                },
                {
                    "name": "G#5",
                    "midi": 80,
                    "time": 214.59999999999658,
                    "velocity": 0.5905511811023622,
                    "duration": 0.09999999999999432
                },
                {
                    "name": "G5",
                    "midi": 79,
                    "time": 214.69999999999658,
                    "velocity": 0.5905511811023622,
                    "duration": 0.09999999999999432
                },
                {
                    "name": "F5",
                    "midi": 77,
                    "time": 214.79999999999657,
                    "velocity": 0.5905511811023622,
                    "duration": 0.09999999999999432
                },
                {
                    "name": "G5",
                    "midi": 79,
                    "time": 215.09999999999656,
                    "velocity": 0.5905511811023622,
                    "duration": 0.09999999999999432
                },
                {
                    "name": "G#5",
                    "midi": 80,
                    "time": 215.39999999999654,
                    "velocity": 0.5905511811023622,
                    "duration": 0.30000000000001137
                },
                {
                    "name": "F6",
                    "midi": 89,
                    "time": 215.69999999999655,
                    "velocity": 0.5905511811023622,
                    "duration": 0.09999999999999432
                },
                {
                    "name": "F5",
                    "midi": 77,
                    "time": 215.99999999999653,
                    "velocity": 0.5905511811023622,
                    "duration": 0.09999999999999432
                },
                {
                    "name": "A#5",
                    "midi": 82,
                    "time": 216.29999999999652,
                    "velocity": 0.8267716535433071,
                    "duration": 1.1937499999999943
                },
                {
                    "name": "G#5",
                    "midi": 80,
                    "time": 217.4999999999965,
                    "velocity": 0.5905511811023622,
                    "duration": 0.09999999999999432
                },
                {
                    "name": "G5",
                    "midi": 79,
                    "time": 217.7999999999965,
                    "velocity": 0.5905511811023622,
                    "duration": 0.09999999999999432
                },
                {
                    "name": "F5",
                    "midi": 77,
                    "time": 218.09999999999647,
                    "velocity": 0.5905511811023622,
                    "duration": 0.09999999999999432
                },
                {
                    "name": "G5",
                    "midi": 79,
                    "time": 218.19999999999646,
                    "velocity": 0.5905511811023622,
                    "duration": 0.09999999999999432
                },
                {
                    "name": "F5",
                    "midi": 77,
                    "time": 218.29999999999646,
                    "velocity": 0.5905511811023622,
                    "duration": 0.09999999999999432
                },
                {
                    "name": "D#5",
                    "midi": 75,
                    "time": 218.39999999999645,
                    "velocity": 0.5905511811023622,
                    "duration": 0.09999999999999432
                },
                {
                    "name": "F5",
                    "midi": 77,
                    "time": 218.69999999999644,
                    "velocity": 0.5905511811023622,
                    "duration": 0.09999999999999432
                },
                {
                    "name": "G5",
                    "midi": 79,
                    "time": 218.99999999999642,
                    "velocity": 0.5905511811023622,
                    "duration": 0.30000000000001137
                },
                {
                    "name": "D#6",
                    "midi": 87,
                    "time": 219.29999999999643,
                    "velocity": 0.5905511811023622,
                    "duration": 0.09999999999999432
                },
                {
                    "name": "D#5",
                    "midi": 75,
                    "time": 219.5999999999964,
                    "velocity": 0.5905511811023622,
                    "duration": 0.09999999999999432
                },
                {
                    "name": "G5",
                    "midi": 79,
                    "time": 219.8999999999964,
                    "velocity": 0.5905511811023622,
                    "duration": 1.1937499999999943
                },
                {
                    "name": "G6",
                    "midi": 91,
                    "time": 221.09999999999638,
                    "velocity": 0.5905511811023622,
                    "duration": 0.09999999999999432
                },
                {
                    "name": "G6",
                    "midi": 91,
                    "time": 221.39999999999637,
                    "velocity": 0.5905511811023622,
                    "duration": 0.09999999999999432
                },
                {
                    "name": "G#6",
                    "midi": 92,
                    "time": 221.69999999999635,
                    "velocity": 0.5905511811023622,
                    "duration": 0.15000000000000568
                },
                {
                    "name": "G6",
                    "midi": 91,
                    "time": 221.84999999999636,
                    "velocity": 0.5905511811023622,
                    "duration": 0.09999999999999432
                },
                {
                    "name": "F6",
                    "midi": 89,
                    "time": 221.99999999999636,
                    "velocity": 0.5905511811023622,
                    "duration": 0.09999999999999432
                },
                {
                    "name": "D#6",
                    "midi": 87,
                    "time": 222.14999999999637,
                    "velocity": 0.5905511811023622,
                    "duration": 0.09999999999999432
                },
                {
                    "name": "D6",
                    "midi": 86,
                    "time": 222.29999999999637,
                    "velocity": 0.5905511811023622,
                    "duration": 0.09999999999999432
                },
                {
                    "name": "C6",
                    "midi": 84,
                    "time": 222.44999999999638,
                    "velocity": 0.5905511811023622,
                    "duration": 0.09999999999999432
                },
                {
                    "name": "B5",
                    "midi": 83,
                    "time": 222.59999999999638,
                    "velocity": 0.5905511811023622,
                    "duration": 0.30000000000001137
                },
                {
                    "name": "G5",
                    "midi": 79,
                    "time": 222.8999999999964,
                    "velocity": 0.5905511811023622,
                    "duration": 0.09999999999999432
                },
                {
                    "name": "G5",
                    "midi": 79,
                    "time": 223.19999999999638,
                    "velocity": 0.5905511811023622,
                    "duration": 0.09999999999999432
                },
                {
                    "name": "G6",
                    "midi": 91,
                    "time": 223.49999999999636,
                    "velocity": 0.5905511811023622,
                    "duration": 1.1937499999999943
                },
                {
                    "name": "G6",
                    "midi": 91,
                    "time": 224.69999999999635,
                    "velocity": 0.5905511811023622,
                    "duration": 0.09999999999999432
                },
                {
                    "name": "G6",
                    "midi": 91,
                    "time": 224.99999999999633,
                    "velocity": 0.5905511811023622,
                    "duration": 0.09999999999999432
                },
                {
                    "name": "G#6",
                    "midi": 92,
                    "time": 225.29999999999632,
                    "velocity": 0.5905511811023622,
                    "duration": 0.15000000000000568
                },
                {
                    "name": "G6",
                    "midi": 91,
                    "time": 225.44999999999632,
                    "velocity": 0.5905511811023622,
                    "duration": 0.09999999999999432
                },
                {
                    "name": "F6",
                    "midi": 89,
                    "time": 225.59999999999633,
                    "velocity": 0.5905511811023622,
                    "duration": 0.09999999999999432
                },
                {
                    "name": "D#6",
                    "midi": 87,
                    "time": 225.74999999999633,
                    "velocity": 0.5905511811023622,
                    "duration": 0.09999999999999432
                },
                {
                    "name": "D6",
                    "midi": 86,
                    "time": 225.89999999999634,
                    "velocity": 0.5905511811023622,
                    "duration": 0.09999999999999432
                },
                {
                    "name": "C6",
                    "midi": 84,
                    "time": 226.04999999999634,
                    "velocity": 0.5905511811023622,
                    "duration": 0.09999999999999432
                },
                {
                    "name": "B5",
                    "midi": 83,
                    "time": 226.19999999999635,
                    "velocity": 0.5905511811023622,
                    "duration": 0.5999999999999943
                },
                {
                    "name": "G5",
                    "midi": 79,
                    "time": 226.79999999999634,
                    "velocity": 0.5905511811023622,
                    "duration": 0.09999999999999432
                },
                {
                    "name": "G6",
                    "midi": 91,
                    "time": 227.09999999999633,
                    "velocity": 0.3543307086614173,
                    "duration": 0.09999999999999432
                },
                {
                    "name": "G6",
                    "midi": 91,
                    "time": 227.3999999999963,
                    "velocity": 0.3543307086614173,
                    "duration": 0.09999999999999432
                },
                {
                    "name": "G6",
                    "midi": 91,
                    "time": 227.6999999999963,
                    "velocity": 0.3543307086614173,
                    "duration": 0.09999999999999432
                },
                {
                    "name": "G5",
                    "midi": 79,
                    "time": 227.99999999999628,
                    "velocity": 0.3543307086614173,
                    "duration": 0.09999999999999432
                },
                {
                    "name": "G5",
                    "midi": 79,
                    "time": 228.29999999999626,
                    "velocity": 0.3543307086614173,
                    "duration": 0.09999999999999432
                },
                {
                    "name": "G5",
                    "midi": 79,
                    "time": 228.59999999999624,
                    "velocity": 0.3543307086614173,
                    "duration": 0.09999999999999432
                },
                {
                    "name": "G4",
                    "midi": 67,
                    "time": 228.89999999999623,
                    "velocity": 0.3543307086614173,
                    "duration": 0.09999999999999432
                },
                {
                    "name": "G4",
                    "midi": 67,
                    "time": 229.1999999999962,
                    "velocity": 0.3543307086614173,
                    "duration": 0.09999999999999432
                },
                {
                    "name": "G4",
                    "midi": 67,
                    "time": 229.4999999999962,
                    "velocity": 0.3543307086614173,
                    "duration": 0.09999999999999432
                },
                {
                    "name": "G5",
                    "midi": 79,
                    "time": 231.29999999999617,
                    "velocity": 0.5905511811023622,
                    "duration": 0.09999999999999432
                },
                {
                    "name": "G6",
                    "midi": 91,
                    "time": 231.59999999999616,
                    "velocity": 0.5905511811023622,
                    "duration": 0.09999999999999432
                },
                {
                    "name": "G6",
                    "midi": 91,
                    "time": 231.89999999999614,
                    "velocity": 0.5905511811023622,
                    "duration": 0.09999999999999432
                },
                {
                    "name": "F6",
                    "midi": 89,
                    "time": 232.19999999999612,
                    "velocity": 0.5905511811023622,
                    "duration": 0.09999999999999432
                },
                {
                    "name": "D#6",
                    "midi": 87,
                    "time": 232.4999999999961,
                    "velocity": 0.5905511811023622,
                    "duration": 0.09999999999999432
                },
                {
                    "name": "D#6",
                    "midi": 87,
                    "time": 232.7999999999961,
                    "velocity": 0.5905511811023622,
                    "duration": 0.09999999999999432
                },
                {
                    "name": "D6",
                    "midi": 86,
                    "time": 233.09999999999607,
                    "velocity": 0.5905511811023622,
                    "duration": 0.09999999999999432
                },
                {
                    "name": "C6",
                    "midi": 84,
                    "time": 233.39999999999606,
                    "velocity": 0.5905511811023622,
                    "duration": 0.09999999999999432
                },
                {
                    "name": "B5",
                    "midi": 83,
                    "time": 233.69999999999604,
                    "velocity": 0.5905511811023622,
                    "duration": 0.09999999999999432
                },
                {
                    "name": "C6",
                    "midi": 84,
                    "time": 233.99999999999602,
                    "velocity": 0.5905511811023622,
                    "duration": 0.09999999999999432
                },
                {
                    "name": "B5",
                    "midi": 83,
                    "time": 234.299999999996,
                    "velocity": 0.5905511811023622,
                    "duration": 0.07499999999998863
                },
                {
                    "name": "C6",
                    "midi": 84,
                    "time": 234.374999999996,
                    "velocity": 0.5905511811023622,
                    "duration": 0.07499999999998863
                },
                {
                    "name": "D6",
                    "midi": 86,
                    "time": 234.44999999999598,
                    "velocity": 0.5905511811023622,
                    "duration": 0.09999999999999432
                },
                {
                    "name": "G5",
                    "midi": 79,
                    "time": 234.599999999996,
                    "velocity": 0.5905511811023622,
                    "duration": 0.09999999999999432
                },
                {
                    "name": "G5",
                    "midi": 79,
                    "time": 234.89999999999597,
                    "velocity": 0.5905511811023622,
                    "duration": 0.09999999999999432
                },
                {
                    "name": "A#5",
                    "midi": 82,
                    "time": 235.19999999999595,
                    "velocity": 0.5905511811023622,
                    "duration": 0.07499999999998863
                },
                {
                    "name": "G#5",
                    "midi": 80,
                    "time": 235.27499999999594,
                    "velocity": 0.5905511811023622,
                    "duration": 0.15000000000000568
                },
                {
                    "name": "G5",
                    "midi": 79,
                    "time": 235.49999999999594,
                    "velocity": 0.5905511811023622,
                    "duration": 0.09999999999999432
                },
                {
                    "name": "F5",
                    "midi": 77,
                    "time": 235.79999999999592,
                    "velocity": 0.5905511811023622,
                    "duration": 0.09999999999999432
                },
                {
                    "name": "D#5",
                    "midi": 75,
                    "time": 236.0999999999959,
                    "velocity": 0.5905511811023622,
                    "duration": 0.09999999999999432
                },
                {
                    "name": "D5",
                    "midi": 74,
                    "time": 236.39999999999588,
                    "velocity": 0.5905511811023622,
                    "duration": 0.09999999999999432
                },
                {
                    "name": "C5",
                    "midi": 72,
                    "time": 236.69999999999587,
                    "velocity": 0.5905511811023622,
                    "duration": 0.09999999999999432
                },
                {
                    "name": "F5",
                    "midi": 77,
                    "time": 236.99999999999585,
                    "velocity": 0.5905511811023622,
                    "duration": 0.07499999999998863
                },
                {
                    "name": "D#5",
                    "midi": 75,
                    "time": 237.07499999999584,
                    "velocity": 0.5905511811023622,
                    "duration": 0.15000000000000568
                },
                {
                    "name": "D5",
                    "midi": 74,
                    "time": 237.29999999999583,
                    "velocity": 0.5905511811023622,
                    "duration": 0.09999999999999432
                },
                {
                    "name": "C5",
                    "midi": 72,
                    "time": 237.59999999999582,
                    "velocity": 0.5905511811023622,
                    "duration": 0.09999999999999432
                },
                {
                    "name": "D5",
                    "midi": 74,
                    "time": 237.8999999999958,
                    "velocity": 0.5905511811023622,
                    "duration": 0.5999999999999943
                },
                {
                    "name": "G5",
                    "midi": 79,
                    "time": 238.4999999999958,
                    "velocity": 0.5905511811023622,
                    "duration": 0.30000000000001137
                },
                {
                    "name": "G6",
                    "midi": 91,
                    "time": 238.7999999999958,
                    "velocity": 0.5905511811023622,
                    "duration": 0.09999999999999432
                },
                {
                    "name": "G6",
                    "midi": 91,
                    "time": 239.0999999999958,
                    "velocity": 0.5905511811023622,
                    "duration": 0.09999999999999432
                },
                {
                    "name": "F6",
                    "midi": 89,
                    "time": 239.39999999999577,
                    "velocity": 0.5905511811023622,
                    "duration": 0.09999999999999432
                },
                {
                    "name": "E6",
                    "midi": 88,
                    "time": 239.69999999999575,
                    "velocity": 0.5905511811023622,
                    "duration": 0.09999999999999432
                },
                {
                    "name": "E6",
                    "midi": 88,
                    "time": 239.99999999999574,
                    "velocity": 0.5905511811023622,
                    "duration": 0.09999999999999432
                },
                {
                    "name": "D6",
                    "midi": 86,
                    "time": 240.29999999999572,
                    "velocity": 0.5905511811023622,
                    "duration": 0.09999999999999432
                },
                {
                    "name": "C6",
                    "midi": 84,
                    "time": 240.5999999999957,
                    "velocity": 0.5905511811023622,
                    "duration": 0.09999999999999432
                },
                {
                    "name": "C6",
                    "midi": 84,
                    "time": 240.89999999999569,
                    "velocity": 0.5905511811023622,
                    "duration": 0.09999999999999432
                },
                {
                    "name": "A#5",
                    "midi": 82,
                    "time": 241.19999999999567,
                    "velocity": 0.5905511811023622,
                    "duration": 0.09999999999999432
                },
                {
                    "name": "A5",
                    "midi": 81,
                    "time": 241.49999999999565,
                    "velocity": 0.5905511811023622,
                    "duration": 0.09999999999999432
                },
                {
                    "name": "G5",
                    "midi": 79,
                    "time": 241.79999999999563,
                    "velocity": 0.5905511811023622,
                    "duration": 0.09999999999999432
                },
                {
                    "name": "F5",
                    "midi": 77,
                    "time": 242.09999999999562,
                    "velocity": 0.5905511811023622,
                    "duration": 0.09999999999999432
                },
                {
                    "name": "A#5",
                    "midi": 82,
                    "time": 242.3999999999956,
                    "velocity": 0.5905511811023622,
                    "duration": 0.07499999999998863
                },
                {
                    "name": "G#5",
                    "midi": 80,
                    "time": 242.4749999999956,
                    "velocity": 0.5905511811023622,
                    "duration": 0.15000000000000568
                },
                {
                    "name": "G5",
                    "midi": 79,
                    "time": 242.69999999999558,
                    "velocity": 0.5905511811023622,
                    "duration": 0.09999999999999432
                },
                {
                    "name": "F5",
                    "midi": 77,
                    "time": 242.99999999999557,
                    "velocity": 0.5905511811023622,
                    "duration": 0.09999999999999432
                },
                {
                    "name": "G5",
                    "midi": 79,
                    "time": 243.29999999999555,
                    "velocity": 0.5905511811023622,
                    "duration": 0.09999999999999432
                },
                {
                    "name": "C6",
                    "midi": 84,
                    "time": 243.59999999999553,
                    "velocity": 0.5905511811023622,
                    "duration": 0.09999999999999432
                },
                {
                    "name": "D#6",
                    "midi": 87,
                    "time": 243.74999999999554,
                    "velocity": 0.5905511811023622,
                    "duration": 0.09999999999999432
                },
                {
                    "name": "G6",
                    "midi": 91,
                    "time": 243.89999999999554,
                    "velocity": 0.5905511811023622,
                    "duration": 0.09999999999999432
                },
                {
                    "name": "G5",
                    "midi": 79,
                    "time": 244.19999999999553,
                    "velocity": 0.5905511811023622,
                    "duration": 0.09999999999999432
                },
                {
                    "name": "B5",
                    "midi": 83,
                    "time": 244.4999999999955,
                    "velocity": 0.5905511811023622,
                    "duration": 0.09999999999999432
                },
                {
                    "name": "D6",
                    "midi": 86,
                    "time": 244.64999999999552,
                    "velocity": 0.5905511811023622,
                    "duration": 0.09999999999999432
                },
                {
                    "name": "G6",
                    "midi": 91,
                    "time": 244.79999999999552,
                    "velocity": 0.5905511811023622,
                    "duration": 0.09999999999999432
                },
                {
                    "name": "C6",
                    "midi": 84,
                    "time": 245.0999999999955,
                    "velocity": 0.5905511811023622,
                    "duration": 0.09999999999999432
                },
                {
                    "name": "C7",
                    "midi": 96,
                    "time": 245.3999999999955,
                    "velocity": 0.5905511811023622,
                    "duration": 0.09999999999999432
                },
                {
                    "name": "G5",
                    "midi": 79,
                    "time": 245.69999999999547,
                    "velocity": 0.7244094488188977,
                    "duration": 0.30000000000001137
                },
                {
                    "name": "G6",
                    "midi": 91,
                    "time": 245.99999999999548,
                    "velocity": 0.7244094488188977,
                    "duration": 0.09999999999999432
                },
                {
                    "name": "G6",
                    "midi": 91,
                    "time": 246.29999999999546,
                    "velocity": 0.7244094488188977,
                    "duration": 0.09999999999999432
                },
                {
                    "name": "F6",
                    "midi": 89,
                    "time": 246.59999999999545,
                    "velocity": 0.7244094488188977,
                    "duration": 0.09999999999999432
                },
                {
                    "name": "D#6",
                    "midi": 87,
                    "time": 246.89999999999543,
                    "velocity": 0.7244094488188977,
                    "duration": 0.09999999999999432
                },
                {
                    "name": "D#6",
                    "midi": 87,
                    "time": 247.1999999999954,
                    "velocity": 0.7244094488188977,
                    "duration": 0.09999999999999432
                },
                {
                    "name": "D6",
                    "midi": 86,
                    "time": 247.4999999999954,
                    "velocity": 0.7244094488188977,
                    "duration": 0.09999999999999432
                },
                {
                    "name": "C6",
                    "midi": 84,
                    "time": 247.79999999999538,
                    "velocity": 0.7244094488188977,
                    "duration": 0.09999999999999432
                },
                {
                    "name": "B5",
                    "midi": 83,
                    "time": 248.09999999999536,
                    "velocity": 0.7244094488188977,
                    "duration": 0.09999999999999432
                },
                {
                    "name": "C6",
                    "midi": 84,
                    "time": 248.39999999999534,
                    "velocity": 0.7244094488188977,
                    "duration": 0.09999999999999432
                },
                {
                    "name": "B5",
                    "midi": 83,
                    "time": 248.69999999999533,
                    "velocity": 0.7244094488188977,
                    "duration": 0.07499999999998863
                },
                {
                    "name": "C6",
                    "midi": 84,
                    "time": 248.77499999999532,
                    "velocity": 0.7244094488188977,
                    "duration": 0.07499999999998863
                },
                {
                    "name": "D6",
                    "midi": 86,
                    "time": 248.8499999999953,
                    "velocity": 0.7244094488188977,
                    "duration": 0.09999999999999432
                },
                {
                    "name": "G5",
                    "midi": 79,
                    "time": 248.9999999999953,
                    "velocity": 0.7244094488188977,
                    "duration": 0.09999999999999432
                },
                {
                    "name": "G5",
                    "midi": 79,
                    "time": 249.2999999999953,
                    "velocity": 0.7244094488188977,
                    "duration": 0.09999999999999432
                },
                {
                    "name": "A#5",
                    "midi": 82,
                    "time": 249.59999999999528,
                    "velocity": 0.7244094488188977,
                    "duration": 0.07499999999998863
                },
                {
                    "name": "G#5",
                    "midi": 80,
                    "time": 249.67499999999526,
                    "velocity": 0.7244094488188977,
                    "duration": 0.15000000000000568
                },
                {
                    "name": "G5",
                    "midi": 79,
                    "time": 249.89999999999526,
                    "velocity": 0.7244094488188977,
                    "duration": 0.09999999999999432
                },
                {
                    "name": "F5",
                    "midi": 77,
                    "time": 250.19999999999524,
                    "velocity": 0.7244094488188977,
                    "duration": 0.09999999999999432
                },
                {
                    "name": "D#5",
                    "midi": 75,
                    "time": 250.49999999999523,
                    "velocity": 0.7244094488188977,
                    "duration": 0.09999999999999432
                },
                {
                    "name": "D5",
                    "midi": 74,
                    "time": 250.7999999999952,
                    "velocity": 0.7244094488188977,
                    "duration": 0.09999999999999432
                },
                {
                    "name": "C5",
                    "midi": 72,
                    "time": 251.0999999999952,
                    "velocity": 0.7244094488188977,
                    "duration": 0.09999999999999432
                },
                {
                    "name": "F5",
                    "midi": 77,
                    "time": 251.39999999999517,
                    "velocity": 0.7244094488188977,
                    "duration": 0.07499999999998863
                },
                {
                    "name": "D#5",
                    "midi": 75,
                    "time": 251.47499999999516,
                    "velocity": 0.7244094488188977,
                    "duration": 0.15000000000000568
                },
                {
                    "name": "D5",
                    "midi": 74,
                    "time": 251.69999999999516,
                    "velocity": 0.7244094488188977,
                    "duration": 0.09999999999999432
                },
                {
                    "name": "C5",
                    "midi": 72,
                    "time": 251.99999999999514,
                    "velocity": 0.7244094488188977,
                    "duration": 0.09999999999999432
                },
                {
                    "name": "D5",
                    "midi": 74,
                    "time": 252.29999999999512,
                    "velocity": 0.7244094488188977,
                    "duration": 0.5999999999999943
                },
                {
                    "name": "G5",
                    "midi": 79,
                    "time": 252.89999999999512,
                    "velocity": 0.7244094488188977,
                    "duration": 0.30000000000001137
                },
                {
                    "name": "G6",
                    "midi": 91,
                    "time": 253.19999999999513,
                    "velocity": 0.7244094488188977,
                    "duration": 0.09999999999999432
                },
                {
                    "name": "G6",
                    "midi": 91,
                    "time": 253.4999999999951,
                    "velocity": 0.7244094488188977,
                    "duration": 0.09999999999999432
                },
                {
                    "name": "F6",
                    "midi": 89,
                    "time": 253.7999999999951,
                    "velocity": 0.7244094488188977,
                    "duration": 0.09999999999999432
                },
                {
                    "name": "E6",
                    "midi": 88,
                    "time": 254.09999999999508,
                    "velocity": 0.7244094488188977,
                    "duration": 0.09999999999999432
                },
                {
                    "name": "E6",
                    "midi": 88,
                    "time": 254.39999999999506,
                    "velocity": 0.7244094488188977,
                    "duration": 0.09999999999999432
                },
                {
                    "name": "D6",
                    "midi": 86,
                    "time": 254.69999999999504,
                    "velocity": 0.7244094488188977,
                    "duration": 0.09999999999999432
                },
                {
                    "name": "C6",
                    "midi": 84,
                    "time": 254.99999999999503,
                    "velocity": 0.7244094488188977,
                    "duration": 0.09999999999999432
                },
                {
                    "name": "B5",
                    "midi": 83,
                    "time": 255.299999999995,
                    "velocity": 0.7244094488188977,
                    "duration": 0.09999999999999432
                },
                {
                    "name": "C6",
                    "midi": 84,
                    "time": 255.599999999995,
                    "velocity": 0.7244094488188977,
                    "duration": 0.09999999999999432
                },
                {
                    "name": "B5",
                    "midi": 83,
                    "time": 255.89999999999498,
                    "velocity": 0.7244094488188977,
                    "duration": 0.07499999999998863
                },
                {
                    "name": "C6",
                    "midi": 84,
                    "time": 255.97499999999496,
                    "velocity": 0.7244094488188977,
                    "duration": 0.07499999999998863
                },
                {
                    "name": "D6",
                    "midi": 86,
                    "time": 256.04999999999495,
                    "velocity": 0.7244094488188977,
                    "duration": 0.10000000000002274
                },
                {
                    "name": "G5",
                    "midi": 79,
                    "time": 256.199999999995,
                    "velocity": 0.7244094488188977,
                    "duration": 0.10000000000002274
                },
                {
                    "name": "G5",
                    "midi": 79,
                    "time": 256.499999999995,
                    "velocity": 0.7244094488188977,
                    "duration": 0.10000000000002274
                },
                {
                    "name": "A#5",
                    "midi": 82,
                    "time": 256.799999999995,
                    "velocity": 0.7244094488188977,
                    "duration": 0.07499999999998863
                },
                {
                    "name": "G#5",
                    "midi": 80,
                    "time": 256.874999999995,
                    "velocity": 0.7244094488188977,
                    "duration": 0.14999999999997726
                },
                {
                    "name": "G5",
                    "midi": 79,
                    "time": 257.09999999999496,
                    "velocity": 0.7244094488188977,
                    "duration": 0.10000000000002274
                },
                {
                    "name": "F5",
                    "midi": 77,
                    "time": 257.399999999995,
                    "velocity": 0.7244094488188977,
                    "duration": 0.10000000000002274
                },
                {
                    "name": "G5",
                    "midi": 79,
                    "time": 257.699999999995,
                    "velocity": 0.7244094488188977,
                    "duration": 0.10000000000002274
                },
                {
                    "name": "C6",
                    "midi": 84,
                    "time": 257.999999999995,
                    "velocity": 0.7244094488188977,
                    "duration": 0.10000000000002274
                },
                {
                    "name": "D#6",
                    "midi": 87,
                    "time": 258.14999999999503,
                    "velocity": 0.7244094488188977,
                    "duration": 0.10000000000002274
                },
                {
                    "name": "G6",
                    "midi": 91,
                    "time": 258.29999999999507,
                    "velocity": 0.7244094488188977,
                    "duration": 0.10000000000002274
                },
                {
                    "name": "G5",
                    "midi": 79,
                    "time": 258.5999999999951,
                    "velocity": 0.7244094488188977,
                    "duration": 0.10000000000002274
                },
                {
                    "name": "B5",
                    "midi": 83,
                    "time": 258.8999999999951,
                    "velocity": 0.7244094488188977,
                    "duration": 0.10000000000002274
                },
                {
                    "name": "D6",
                    "midi": 86,
                    "time": 259.0499999999951,
                    "velocity": 0.7244094488188977,
                    "duration": 0.10000000000002274
                },
                {
                    "name": "G6",
                    "midi": 91,
                    "time": 259.19999999999516,
                    "velocity": 0.7244094488188977,
                    "duration": 0.10000000000002274
                },
                {
                    "name": "C5",
                    "midi": 72,
                    "time": 260.0999999999952,
                    "velocity": 0.7244094488188977,
                    "duration": 0.10000000000002274
                },
                {
                    "name": "C5",
                    "midi": 72,
                    "time": 260.2499999999952,
                    "velocity": 0.7244094488188977,
                    "duration": 0.10000000000002274
                },
                {
                    "name": "C5",
                    "midi": 72,
                    "time": 260.39999999999526,
                    "velocity": 0.7244094488188977,
                    "duration": 0.14999999999997726
                },
                {
                    "name": "D#5",
                    "midi": 75,
                    "time": 260.54999999999524,
                    "velocity": 0.7244094488188977,
                    "duration": 0.14375000000001137
                },
                {
                    "name": "D5",
                    "midi": 74,
                    "time": 260.69999999999527,
                    "velocity": 0.7244094488188977,
                    "duration": 0.14999999999997726
                },
                {
                    "name": "F5",
                    "midi": 77,
                    "time": 260.84999999999525,
                    "velocity": 0.7244094488188977,
                    "duration": 0.14375000000001137
                },
                {
                    "name": "D#5",
                    "midi": 75,
                    "time": 260.9999999999953,
                    "velocity": 0.7244094488188977,
                    "duration": 0.14999999999997726
                },
                {
                    "name": "G5",
                    "midi": 79,
                    "time": 261.14999999999526,
                    "velocity": 0.7244094488188977,
                    "duration": 0.14375000000001137
                },
                {
                    "name": "F5",
                    "midi": 77,
                    "time": 261.2999999999953,
                    "velocity": 0.7244094488188977,
                    "duration": 0.14999999999997726
                },
                {
                    "name": "G#5",
                    "midi": 80,
                    "time": 261.44999999999527,
                    "velocity": 0.7244094488188977,
                    "duration": 0.14375000000001137
                },
                {
                    "name": "G5",
                    "midi": 79,
                    "time": 261.5999999999953,
                    "velocity": 0.7244094488188977,
                    "duration": 0.14999999999997726
                },
                {
                    "name": "A#5",
                    "midi": 82,
                    "time": 261.7499999999953,
                    "velocity": 0.7244094488188977,
                    "duration": 0.14375000000001137
                },
                {
                    "name": "G#5",
                    "midi": 80,
                    "time": 261.8999999999953,
                    "velocity": 0.7244094488188977,
                    "duration": 0.14999999999997726
                },
                {
                    "name": "C6",
                    "midi": 84,
                    "time": 262.0499999999953,
                    "velocity": 0.7244094488188977,
                    "duration": 0.14375000000001137
                },
                {
                    "name": "A#5",
                    "midi": 82,
                    "time": 262.1999999999953,
                    "velocity": 0.7244094488188977,
                    "duration": 0.14999999999997726
                },
                {
                    "name": "D6",
                    "midi": 86,
                    "time": 262.3499999999953,
                    "velocity": 0.7244094488188977,
                    "duration": 0.14375000000001137
                },
                {
                    "name": "C6",
                    "midi": 84,
                    "time": 262.49999999999534,
                    "velocity": 0.7244094488188977,
                    "duration": 0.14999999999997726
                },
                {
                    "name": "D#6",
                    "midi": 87,
                    "time": 262.6499999999953,
                    "velocity": 0.7244094488188977,
                    "duration": 0.14375000000001137
                },
                {
                    "name": "D6",
                    "midi": 86,
                    "time": 262.79999999999535,
                    "velocity": 0.7244094488188977,
                    "duration": 0.14999999999997726
                },
                {
                    "name": "F6",
                    "midi": 89,
                    "time": 262.9499999999953,
                    "velocity": 0.7244094488188977,
                    "duration": 0.14375000000001137
                },
                {
                    "name": "D#6",
                    "midi": 87,
                    "time": 263.09999999999536,
                    "velocity": 0.7244094488188977,
                    "duration": 0.14999999999997726
                },
                {
                    "name": "G6",
                    "midi": 91,
                    "time": 263.24999999999534,
                    "velocity": 0.7244094488188977,
                    "duration": 0.14375000000001137
                },
                {
                    "name": "F6",
                    "midi": 89,
                    "time": 263.3999999999954,
                    "velocity": 0.7244094488188977,
                    "duration": 0.14999999999997726
                },
                {
                    "name": "G#6",
                    "midi": 92,
                    "time": 263.54999999999535,
                    "velocity": 0.7244094488188977,
                    "duration": 0.14375000000001137
                },
                {
                    "name": "G6",
                    "midi": 91,
                    "time": 263.6999999999954,
                    "velocity": 0.7244094488188977,
                    "duration": 0.14999999999997726
                },
                {
                    "name": "A#6",
                    "midi": 94,
                    "time": 263.84999999999536,
                    "velocity": 0.7244094488188977,
                    "duration": 0.14375000000001137
                },
                {
                    "name": "A#6",
                    "midi": 94,
                    "time": 263.9999999999954,
                    "velocity": 1,
                    "duration": 0.14999999999997726
                },
                {
                    "name": "G#6",
                    "midi": 92,
                    "time": 264.1499999999954,
                    "velocity": 0.7244094488188977,
                    "duration": 0.10000000000002274
                },
                {
                    "name": "G6",
                    "midi": 91,
                    "time": 264.2999999999954,
                    "velocity": 0.7244094488188977,
                    "duration": 0.10000000000002274
                },
                {
                    "name": "F6",
                    "midi": 89,
                    "time": 264.44999999999544,
                    "velocity": 0.7244094488188977,
                    "duration": 0.10000000000002274
                },
                {
                    "name": "D#6",
                    "midi": 87,
                    "time": 264.5999999999955,
                    "velocity": 0.7244094488188977,
                    "duration": 0.10000000000002274
                },
                {
                    "name": "D6",
                    "midi": 86,
                    "time": 264.7499999999955,
                    "velocity": 0.7244094488188977,
                    "duration": 0.10000000000002274
                },
                {
                    "name": "G#6",
                    "midi": 92,
                    "time": 264.89999999999554,
                    "velocity": 1,
                    "duration": 0.14999999999997726
                },
                {
                    "name": "G6",
                    "midi": 91,
                    "time": 265.0499999999955,
                    "velocity": 0.7244094488188977,
                    "duration": 0.10000000000002274
                },
                {
                    "name": "F6",
                    "midi": 89,
                    "time": 265.19999999999555,
                    "velocity": 0.7244094488188977,
                    "duration": 0.10000000000002274
                },
                {
                    "name": "D#6",
                    "midi": 87,
                    "time": 265.3499999999956,
                    "velocity": 0.7244094488188977,
                    "duration": 0.10000000000002274
                },
                {
                    "name": "D6",
                    "midi": 86,
                    "time": 265.4999999999956,
                    "velocity": 0.7244094488188977,
                    "duration": 0.10000000000002274
                },
                {
                    "name": "C6",
                    "midi": 84,
                    "time": 265.64999999999566,
                    "velocity": 0.7244094488188977,
                    "duration": 0.10000000000002274
                },
                {
                    "name": "G6",
                    "midi": 91,
                    "time": 265.7999999999957,
                    "velocity": 1,
                    "duration": 0.14999999999997726
                },
                {
                    "name": "F6",
                    "midi": 89,
                    "time": 265.94999999999567,
                    "velocity": 0.7244094488188977,
                    "duration": 0.10000000000002274
                },
                {
                    "name": "D#6",
                    "midi": 87,
                    "time": 266.0999999999957,
                    "velocity": 0.7244094488188977,
                    "duration": 0.10000000000002274
                },
                {
                    "name": "D6",
                    "midi": 86,
                    "time": 266.24999999999574,
                    "velocity": 0.7244094488188977,
                    "duration": 0.10000000000002274
                },
                {
                    "name": "C6",
                    "midi": 84,
                    "time": 266.39999999999577,
                    "velocity": 0.7244094488188977,
                    "duration": 0.10000000000002274
                },
                {
                    "name": "B5",
                    "midi": 83,
                    "time": 266.5499999999958,
                    "velocity": 0.7244094488188977,
                    "duration": 0.10000000000002274
                },
                {
                    "name": "C6",
                    "midi": 84,
                    "time": 266.69999999999584,
                    "velocity": 0.7244094488188977,
                    "duration": 0.6000000000000227
                },
                {
                    "name": "C5",
                    "midi": 72,
                    "time": 267.29999999999586,
                    "velocity": 0.7244094488188977,
                    "duration": 0.10000000000002274
                },
                {
                    "name": "C5",
                    "midi": 72,
                    "time": 267.4499999999959,
                    "velocity": 0.7244094488188977,
                    "duration": 0.10000000000002274
                },
                {
                    "name": "C5",
                    "midi": 72,
                    "time": 267.59999999999593,
                    "velocity": 0.7244094488188977,
                    "duration": 0.14999999999997726
                },
                {
                    "name": "D#5",
                    "midi": 75,
                    "time": 267.7499999999959,
                    "velocity": 0.7244094488188977,
                    "duration": 0.14375000000001137
                },
                {
                    "name": "D5",
                    "midi": 74,
                    "time": 267.89999999999594,
                    "velocity": 0.7244094488188977,
                    "duration": 0.14999999999997726
                },
                {
                    "name": "F5",
                    "midi": 77,
                    "time": 268.0499999999959,
                    "velocity": 0.7244094488188977,
                    "duration": 0.14375000000001137
                },
                {
                    "name": "D#5",
                    "midi": 75,
                    "time": 268.19999999999595,
                    "velocity": 0.7244094488188977,
                    "duration": 0.14999999999997726
                },
                {
                    "name": "G5",
                    "midi": 79,
                    "time": 268.34999999999593,
                    "velocity": 0.7244094488188977,
                    "duration": 0.14375000000001137
                },
                {
                    "name": "F5",
                    "midi": 77,
                    "time": 268.49999999999596,
                    "velocity": 0.7244094488188977,
                    "duration": 0.14999999999997726
                },
                {
                    "name": "G#5",
                    "midi": 80,
                    "time": 268.64999999999594,
                    "velocity": 0.7244094488188977,
                    "duration": 0.14375000000001137
                },
                {
                    "name": "G5",
                    "midi": 79,
                    "time": 268.799999999996,
                    "velocity": 0.7244094488188977,
                    "duration": 0.14999999999997726
                },
                {
                    "name": "A#5",
                    "midi": 82,
                    "time": 268.94999999999595,
                    "velocity": 0.7244094488188977,
                    "duration": 0.14375000000001137
                },
                {
                    "name": "G#5",
                    "midi": 80,
                    "time": 269.099999999996,
                    "velocity": 0.7244094488188977,
                    "duration": 0.14999999999997726
                },
                {
                    "name": "C6",
                    "midi": 84,
                    "time": 269.24999999999596,
                    "velocity": 0.7244094488188977,
                    "duration": 0.14375000000001137
                },
                {
                    "name": "A#5",
                    "midi": 82,
                    "time": 269.399999999996,
                    "velocity": 0.7244094488188977,
                    "duration": 0.14999999999997726
                },
                {
                    "name": "D6",
                    "midi": 86,
                    "time": 269.549999999996,
                    "velocity": 0.7244094488188977,
                    "duration": 0.14375000000001137
                },
                {
                    "name": "C6",
                    "midi": 84,
                    "time": 269.699999999996,
                    "velocity": 0.7244094488188977,
                    "duration": 0.14999999999997726
                },
                {
                    "name": "D#6",
                    "midi": 87,
                    "time": 269.849999999996,
                    "velocity": 0.7244094488188977,
                    "duration": 0.14375000000001137
                },
                {
                    "name": "D6",
                    "midi": 86,
                    "time": 269.999999999996,
                    "velocity": 0.7244094488188977,
                    "duration": 0.14999999999997726
                },
                {
                    "name": "F6",
                    "midi": 89,
                    "time": 270.149999999996,
                    "velocity": 0.7244094488188977,
                    "duration": 0.14375000000001137
                },
                {
                    "name": "D#6",
                    "midi": 87,
                    "time": 270.29999999999603,
                    "velocity": 0.7244094488188977,
                    "duration": 0.14999999999997726
                },
                {
                    "name": "G6",
                    "midi": 91,
                    "time": 270.449999999996,
                    "velocity": 0.7244094488188977,
                    "duration": 0.14375000000001137
                },
                {
                    "name": "F6",
                    "midi": 89,
                    "time": 270.59999999999604,
                    "velocity": 0.7244094488188977,
                    "duration": 0.14999999999997726
                },
                {
                    "name": "G#6",
                    "midi": 92,
                    "time": 270.749999999996,
                    "velocity": 0.7244094488188977,
                    "duration": 0.14375000000001137
                },
                {
                    "name": "G6",
                    "midi": 91,
                    "time": 270.89999999999606,
                    "velocity": 0.7244094488188977,
                    "duration": 0.14999999999997726
                },
                {
                    "name": "A#6",
                    "midi": 94,
                    "time": 271.04999999999603,
                    "velocity": 0.7244094488188977,
                    "duration": 0.14375000000001137
                },
                {
                    "name": "A#6",
                    "midi": 94,
                    "time": 271.19999999999607,
                    "velocity": 1,
                    "duration": 0.14999999999997726
                },
                {
                    "name": "G#6",
                    "midi": 92,
                    "time": 271.34999999999604,
                    "velocity": 0.7244094488188977,
                    "duration": 0.10000000000002274
                },
                {
                    "name": "G6",
                    "midi": 91,
                    "time": 271.4999999999961,
                    "velocity": 0.7244094488188977,
                    "duration": 0.10000000000002274
                },
                {
                    "name": "F6",
                    "midi": 89,
                    "time": 271.6499999999961,
                    "velocity": 0.7244094488188977,
                    "duration": 0.10000000000002274
                },
                {
                    "name": "D#6",
                    "midi": 87,
                    "time": 271.79999999999615,
                    "velocity": 0.7244094488188977,
                    "duration": 0.10000000000002274
                },
                {
                    "name": "D6",
                    "midi": 86,
                    "time": 271.9499999999962,
                    "velocity": 0.7244094488188977,
                    "duration": 0.10000000000002274
                },
                {
                    "name": "G#6",
                    "midi": 92,
                    "time": 272.0999999999962,
                    "velocity": 1,
                    "duration": 0.14999999999997726
                },
                {
                    "name": "G6",
                    "midi": 91,
                    "time": 272.2499999999962,
                    "velocity": 0.7244094488188977,
                    "duration": 0.10000000000002274
                },
                {
                    "name": "F6",
                    "midi": 89,
                    "time": 272.3999999999962,
                    "velocity": 0.7244094488188977,
                    "duration": 0.10000000000002274
                },
                {
                    "name": "D#6",
                    "midi": 87,
                    "time": 272.54999999999626,
                    "velocity": 0.7244094488188977,
                    "duration": 0.10000000000002274
                },
                {
                    "name": "D6",
                    "midi": 86,
                    "time": 272.6999999999963,
                    "velocity": 0.7244094488188977,
                    "duration": 0.10000000000002274
                },
                {
                    "name": "C6",
                    "midi": 84,
                    "time": 272.8499999999963,
                    "velocity": 0.7244094488188977,
                    "duration": 0.10000000000002274
                },
                {
                    "name": "G6",
                    "midi": 91,
                    "time": 272.99999999999636,
                    "velocity": 1,
                    "duration": 0.14999999999997726
                },
                {
                    "name": "F6",
                    "midi": 89,
                    "time": 273.14999999999634,
                    "velocity": 0.7244094488188977,
                    "duration": 0.10000000000002274
                },
                {
                    "name": "D#6",
                    "midi": 87,
                    "time": 273.2999999999964,
                    "velocity": 0.7244094488188977,
                    "duration": 0.10000000000002274
                },
                {
                    "name": "D6",
                    "midi": 86,
                    "time": 273.4499999999964,
                    "velocity": 0.7244094488188977,
                    "duration": 0.10000000000002274
                },
                {
                    "name": "C6",
                    "midi": 84,
                    "time": 273.59999999999644,
                    "velocity": 0.7244094488188977,
                    "duration": 0.10000000000002274
                },
                {
                    "name": "B5",
                    "midi": 83,
                    "time": 273.7499999999965,
                    "velocity": 0.7244094488188977,
                    "duration": 0.10000000000002274
                },
                {
                    "name": "C6",
                    "midi": 84,
                    "time": 273.8999999999965,
                    "velocity": 0.7244094488188977,
                    "duration": 0.6000000000000227
                },
                {
                    "name": "E6",
                    "midi": 88,
                    "time": 274.49999999999653,
                    "velocity": 0.5905511811023622,
                    "duration": 0.10000000000002274
                },
                {
                    "name": "D6",
                    "midi": 86,
                    "time": 274.79999999999654,
                    "velocity": 0.5905511811023622,
                    "duration": 0.14999999999997726
                },
                {
                    "name": "E6",
                    "midi": 88,
                    "time": 274.9499999999965,
                    "velocity": 0.5905511811023622,
                    "duration": 0.14999999999997726
                },
                {
                    "name": "F6",
                    "midi": 89,
                    "time": 275.0999999999965,
                    "velocity": 0.5905511811023622,
                    "duration": 0.10000000000002274
                },
                {
                    "name": "E6",
                    "midi": 88,
                    "time": 275.3999999999965,
                    "velocity": 0.5905511811023622,
                    "duration": 0.10000000000002274
                },
                {
                    "name": "D6",
                    "midi": 86,
                    "time": 275.54999999999654,
                    "velocity": 0.5905511811023622,
                    "duration": 0.10000000000002274
                },
                {
                    "name": "C6",
                    "midi": 84,
                    "time": 275.6999999999966,
                    "velocity": 0.5905511811023622,
                    "duration": 0.14999999999997726
                },
                {
                    "name": "D6",
                    "midi": 86,
                    "time": 275.84999999999656,
                    "velocity": 0.5905511811023622,
                    "duration": 0.14999999999997726
                },
                {
                    "name": "E6",
                    "midi": 88,
                    "time": 275.99999999999653,
                    "velocity": 0.5905511811023622,
                    "duration": 0.10000000000002274
                },
                {
                    "name": "D6",
                    "midi": 86,
                    "time": 276.29999999999654,
                    "velocity": 0.5905511811023622,
                    "duration": 0.10000000000002274
                },
                {
                    "name": "C6",
                    "midi": 84,
                    "time": 276.4499999999966,
                    "velocity": 0.5905511811023622,
                    "duration": 0.10000000000002274
                },
                {
                    "name": "B5",
                    "midi": 83,
                    "time": 276.5999999999966,
                    "velocity": 0.5905511811023622,
                    "duration": 0.14999999999997726
                },
                {
                    "name": "C6",
                    "midi": 84,
                    "time": 276.7499999999966,
                    "velocity": 0.5905511811023622,
                    "duration": 0.14999999999997726
                },
                {
                    "name": "D6",
                    "midi": 86,
                    "time": 276.89999999999657,
                    "velocity": 0.5905511811023622,
                    "duration": 0.10000000000002274
                },
                {
                    "name": "C6",
                    "midi": 84,
                    "time": 277.1999999999966,
                    "velocity": 0.5905511811023622,
                    "duration": 0.10000000000002274
                },
                {
                    "name": "B5",
                    "midi": 83,
                    "time": 277.3499999999966,
                    "velocity": 0.5905511811023622,
                    "duration": 0.10000000000002274
                },
                {
                    "name": "C6",
                    "midi": 84,
                    "time": 277.49999999999665,
                    "velocity": 0.5905511811023622,
                    "duration": 0.30000000000001137
                },
                {
                    "name": "G5",
                    "midi": 79,
                    "time": 277.79999999999666,
                    "velocity": 0.5905511811023622,
                    "duration": 0.10000000000002274
                },
                {
                    "name": "D#6",
                    "midi": 87,
                    "time": 278.09999999999667,
                    "velocity": 0.7244094488188977,
                    "duration": 0.10000000000002274
                },
                {
                    "name": "D6",
                    "midi": 86,
                    "time": 278.3999999999967,
                    "velocity": 0.7244094488188977,
                    "duration": 0.07499999999998863
                },
                {
                    "name": "D#6",
                    "midi": 87,
                    "time": 278.47499999999667,
                    "velocity": 0.7244094488188977,
                    "duration": 0.07499999999998863
                },
                {
                    "name": "D6",
                    "midi": 86,
                    "time": 278.54999999999666,
                    "velocity": 0.7244094488188977,
                    "duration": 0.07499999999998863
                },
                {
                    "name": "D#6",
                    "midi": 87,
                    "time": 278.62499999999665,
                    "velocity": 0.7244094488188977,
                    "duration": 0.07499999999998863
                },
                {
                    "name": "F6",
                    "midi": 89,
                    "time": 278.69999999999663,
                    "velocity": 0.7244094488188977,
                    "duration": 0.10000000000002274
                },
                {
                    "name": "D#6",
                    "midi": 87,
                    "time": 278.99999999999665,
                    "velocity": 0.7244094488188977,
                    "duration": 0.10000000000002274
                },
                {
                    "name": "D6",
                    "midi": 86,
                    "time": 279.1499999999967,
                    "velocity": 0.7244094488188977,
                    "duration": 0.10000000000002274
                },
                {
                    "name": "C6",
                    "midi": 84,
                    "time": 279.2999999999967,
                    "velocity": 0.7244094488188977,
                    "duration": 0.07499999999998863
                },
                {
                    "name": "D6",
                    "midi": 86,
                    "time": 279.3749999999967,
                    "velocity": 0.7244094488188977,
                    "duration": 0.07499999999998863
                },
                {
                    "name": "C6",
                    "midi": 84,
                    "time": 279.4499999999967,
                    "velocity": 0.7244094488188977,
                    "duration": 0.07499999999998863
                },
                {
                    "name": "D6",
                    "midi": 86,
                    "time": 279.5249999999967,
                    "velocity": 0.7244094488188977,
                    "duration": 0.07499999999998863
                },
                {
                    "name": "D#6",
                    "midi": 87,
                    "time": 279.59999999999667,
                    "velocity": 0.7244094488188977,
                    "duration": 0.10000000000002274
                },
                {
                    "name": "G5",
                    "midi": 79,
                    "time": 279.8999999999967,
                    "velocity": 0.8503937007874016,
                    "duration": 0.10000000000002274
                },
                {
                    "name": "G5",
                    "midi": 79,
                    "time": 280.0499999999967,
                    "velocity": 0.8503937007874016,
                    "duration": 0.10000000000002274
                },
                {
                    "name": "G#5",
                    "midi": 80,
                    "time": 280.19999999999675,
                    "velocity": 0.8503937007874016,
                    "duration": 0.14999999999997726
                },
                {
                    "name": "G5",
                    "midi": 79,
                    "time": 280.3499999999967,
                    "velocity": 0.8503937007874016,
                    "duration": 0.14375000000001137
                },
                {
                    "name": "A5",
                    "midi": 81,
                    "time": 280.49999999999676,
                    "velocity": 0.8503937007874016,
                    "duration": 0.14999999999997726
                },
                {
                    "name": "G5",
                    "midi": 79,
                    "time": 280.64999999999674,
                    "velocity": 0.8503937007874016,
                    "duration": 0.14375000000001137
                },
                {
                    "name": "B5",
                    "midi": 83,
                    "time": 280.79999999999677,
                    "velocity": 0.8503937007874016,
                    "duration": 0.14999999999997726
                },
                {
                    "name": "G5",
                    "midi": 79,
                    "time": 280.94999999999675,
                    "velocity": 0.8503937007874016,
                    "duration": 0.14375000000001137
                },
                {
                    "name": "C6",
                    "midi": 84,
                    "time": 281.0999999999968,
                    "velocity": 0.8503937007874016,
                    "duration": 0.14999999999997726
                },
                {
                    "name": "D#6",
                    "midi": 87,
                    "time": 281.24999999999676,
                    "velocity": 0.8503937007874016,
                    "duration": 0.10000000000002274
                },
                {
                    "name": "D6",
                    "midi": 86,
                    "time": 281.3999999999968,
                    "velocity": 0.8503937007874016,
                    "duration": 0.10000000000002274
                },
                {
                    "name": "C6",
                    "midi": 84,
                    "time": 281.5499999999968,
                    "velocity": 0.8503937007874016,
                    "duration": 0.10000000000002274
                },
                {
                    "name": "B5",
                    "midi": 83,
                    "time": 281.69999999999686,
                    "velocity": 0.8503937007874016,
                    "duration": 0.10000000000002274
                },
                {
                    "name": "A5",
                    "midi": 81,
                    "time": 281.8499999999969,
                    "velocity": 0.8503937007874016,
                    "duration": 0.10000000000002274
                },
                {
                    "name": "G5",
                    "midi": 79,
                    "time": 281.99999999999693,
                    "velocity": 0.8503937007874016,
                    "duration": 0.14999999999997726
                },
                {
                    "name": "G#5",
                    "midi": 80,
                    "time": 282.1499999999969,
                    "velocity": 0.8503937007874016,
                    "duration": 0.10000000000002274
                },
                {
                    "name": "A5",
                    "midi": 81,
                    "time": 282.29999999999694,
                    "velocity": 0.8503937007874016,
                    "duration": 0.10000000000002274
                },
                {
                    "name": "A#5",
                    "midi": 82,
                    "time": 282.449999999997,
                    "velocity": 0.8503937007874016,
                    "duration": 0.10000000000002274
                },
                {
                    "name": "B5",
                    "midi": 83,
                    "time": 282.599999999997,
                    "velocity": 0.8503937007874016,
                    "duration": 0.10000000000002274
                },
                {
                    "name": "C6",
                    "midi": 84,
                    "time": 282.899999999997,
                    "velocity": 0.8503937007874016,
                    "duration": 0.14999999999997726
                },
                {
                    "name": "D#6",
                    "midi": 87,
                    "time": 283.049999999997,
                    "velocity": 0.8503937007874016,
                    "duration": 0.14375000000001137
                },
                {
                    "name": "G5",
                    "midi": 79,
                    "time": 283.19999999999703,
                    "velocity": 0.8503937007874016,
                    "duration": 0.14999999999997726
                },
                {
                    "name": "C6",
                    "midi": 84,
                    "time": 283.349999999997,
                    "velocity": 0.8503937007874016,
                    "duration": 0.14375000000001137
                },
                {
                    "name": "D#5",
                    "midi": 75,
                    "time": 283.49999999999704,
                    "velocity": 0.8503937007874016,
                    "duration": 0.14999999999997726
                },
                {
                    "name": "G5",
                    "midi": 79,
                    "time": 283.649999999997,
                    "velocity": 0.8503937007874016,
                    "duration": 0.14375000000001137
                },
                {
                    "name": "C5",
                    "midi": 72,
                    "time": 283.79999999999706,
                    "velocity": 0.8503937007874016,
                    "duration": 0.14999999999997726
                },
                {
                    "name": "D#5",
                    "midi": 75,
                    "time": 283.94999999999703,
                    "velocity": 0.8503937007874016,
                    "duration": 0.14375000000001137
                },
                {
                    "name": "G4",
                    "midi": 67,
                    "time": 284.09999999999707,
                    "velocity": 0.8503937007874016,
                    "duration": 0.14999999999997726
                },
                {
                    "name": "C5",
                    "midi": 72,
                    "time": 284.24999999999704,
                    "velocity": 0.8503937007874016,
                    "duration": 0.14375000000001137
                },
                {
                    "name": "D#4",
                    "midi": 63,
                    "time": 284.3999999999971,
                    "velocity": 0.8503937007874016,
                    "duration": 0.14999999999997726
                },
                {
                    "name": "G4",
                    "midi": 67,
                    "time": 284.54999999999706,
                    "velocity": 0.8503937007874016,
                    "duration": 0.14375000000001137
                },
                {
                    "name": "C5",
                    "midi": 72,
                    "time": 284.6999999999971,
                    "velocity": 0.8503937007874016,
                    "duration": 0.6000000000000227
                },
                {
                    "name": "D#6",
                    "midi": 87,
                    "time": 285.5999999999971,
                    "velocity": 0.8503937007874016,
                    "duration": 0.6000000000000227
                },
                {
                    "name": "C5",
                    "midi": 72,
                    "time": 286.3499999999971,
                    "velocity": 0.8503937007874016,
                    "duration": 0.10000000000002274
                },
                {
                    "name": "C5",
                    "midi": 72,
                    "time": 286.49999999999716,
                    "velocity": 0.8503937007874016,
                    "duration": 0.8999999999999773
                }
            ],
            "controlChanges": {
                "7": [
                    {
                        "number": 7,
                        "time": 0,
                        "value": 0.7637795275590551
                    }
                ],
                "10": [
                    {
                        "number": 10,
                        "time": 0,
                        "value": 0.47244094488188976
                    }
                ],
                "91": [
                    {
                        "number": 91,
                        "time": 0,
                        "value": 0.2992125984251969
                    }
                ]
            },
            "id": 4,
            "name": "concertos",
            "instrumentNumber": 73,
            "instrument": "flute",
            "instrumentFamily": "pipe",
            "channelNumber": 0,
            "isPercussion": false
        },
        {
            "startTime": 0,
            "duration": 287.39999999999714,
            "length": 1057,
            "notes": [
                {
                    "name": "G6",
                    "midi": 91,
                    "time": 0,
                    "velocity": 0.5905511811023622,
                    "duration": 0.09999999999999999
                },
                {
                    "name": "G7",
                    "midi": 103,
                    "time": 0.3,
                    "velocity": 0.5905511811023622,
                    "duration": 0.09999999999999998
                },
                {
                    "name": "G7",
                    "midi": 103,
                    "time": 0.6,
                    "velocity": 0.5905511811023622,
                    "duration": 0.09999999999999998
                },
                {
                    "name": "F7",
                    "midi": 101,
                    "time": 0.8999999999999999,
                    "velocity": 0.5905511811023622,
                    "duration": 0.09999999999999998
                },
                {
                    "name": "D#7",
                    "midi": 99,
                    "time": 1.2,
                    "velocity": 0.5905511811023622,
                    "duration": 0.10000000000000009
                },
                {
                    "name": "D#7",
                    "midi": 99,
                    "time": 1.5,
                    "velocity": 0.5905511811023622,
                    "duration": 0.10000000000000009
                },
                {
                    "name": "D7",
                    "midi": 98,
                    "time": 1.8,
                    "velocity": 0.5905511811023622,
                    "duration": 0.10000000000000009
                },
                {
                    "name": "C7",
                    "midi": 96,
                    "time": 2.1,
                    "velocity": 0.5905511811023622,
                    "duration": 0.10000000000000009
                },
                {
                    "name": "B6",
                    "midi": 95,
                    "time": 2.4000000000000004,
                    "velocity": 0.5905511811023622,
                    "duration": 0.10000000000000009
                },
                {
                    "name": "C7",
                    "midi": 96,
                    "time": 2.7000000000000006,
                    "velocity": 0.5905511811023622,
                    "duration": 0.10000000000000009
                },
                {
                    "name": "B6",
                    "midi": 95,
                    "time": 3.000000000000001,
                    "velocity": 0.5905511811023622,
                    "duration": 0.07500000000000018
                },
                {
                    "name": "C7",
                    "midi": 96,
                    "time": 3.075000000000001,
                    "velocity": 0.5905511811023622,
                    "duration": 0.07500000000000018
                },
                {
                    "name": "D7",
                    "midi": 98,
                    "time": 3.1500000000000012,
                    "velocity": 0.5905511811023622,
                    "duration": 0.10000000000000009
                },
                {
                    "name": "G6",
                    "midi": 91,
                    "time": 3.300000000000001,
                    "velocity": 0.5905511811023622,
                    "duration": 0.10000000000000009
                },
                {
                    "name": "G6",
                    "midi": 91,
                    "time": 3.6000000000000014,
                    "velocity": 0.5905511811023622,
                    "duration": 0.10000000000000009
                },
                {
                    "name": "A#6",
                    "midi": 94,
                    "time": 3.9000000000000017,
                    "velocity": 0.5905511811023622,
                    "duration": 0.07500000000000018
                },
                {
                    "name": "G#6",
                    "midi": 92,
                    "time": 3.975000000000002,
                    "velocity": 0.5905511811023622,
                    "duration": 0.1499999999999999
                },
                {
                    "name": "G6",
                    "midi": 91,
                    "time": 4.200000000000002,
                    "velocity": 0.5905511811023622,
                    "duration": 0.09999999999999964
                },
                {
                    "name": "F6",
                    "midi": 89,
                    "time": 4.500000000000002,
                    "velocity": 0.5905511811023622,
                    "duration": 0.09999999999999964
                },
                {
                    "name": "D#6",
                    "midi": 87,
                    "time": 4.800000000000002,
                    "velocity": 0.5905511811023622,
                    "duration": 0.09999999999999964
                },
                {
                    "name": "D6",
                    "midi": 86,
                    "time": 5.100000000000001,
                    "velocity": 0.5905511811023622,
                    "duration": 0.09999999999999964
                },
                {
                    "name": "C6",
                    "midi": 84,
                    "time": 5.400000000000001,
                    "velocity": 0.5905511811023622,
                    "duration": 0.09999999999999964
                },
                {
                    "name": "F6",
                    "midi": 89,
                    "time": 5.700000000000001,
                    "velocity": 0.5905511811023622,
                    "duration": 0.07500000000000018
                },
                {
                    "name": "D#6",
                    "midi": 87,
                    "time": 5.775000000000001,
                    "velocity": 0.5905511811023622,
                    "duration": 0.15000000000000036
                },
                {
                    "name": "D6",
                    "midi": 86,
                    "time": 6.000000000000002,
                    "velocity": 0.5905511811023622,
                    "duration": 0.09999999999999964
                },
                {
                    "name": "C6",
                    "midi": 84,
                    "time": 6.300000000000002,
                    "velocity": 0.5905511811023622,
                    "duration": 0.09999999999999964
                },
                {
                    "name": "D6",
                    "midi": 86,
                    "time": 6.600000000000001,
                    "velocity": 0.5905511811023622,
                    "duration": 0.5999999999999996
                },
                {
                    "name": "G6",
                    "midi": 91,
                    "time": 7.200000000000001,
                    "velocity": 0.5905511811023622,
                    "duration": 0.2999999999999998
                },
                {
                    "name": "G7",
                    "midi": 103,
                    "time": 7.500000000000001,
                    "velocity": 0.5905511811023622,
                    "duration": 0.09999999999999964
                },
                {
                    "name": "G7",
                    "midi": 103,
                    "time": 7.800000000000001,
                    "velocity": 0.5905511811023622,
                    "duration": 0.09999999999999964
                },
                {
                    "name": "F7",
                    "midi": 101,
                    "time": 8.1,
                    "velocity": 0.5905511811023622,
                    "duration": 0.09999999999999964
                },
                {
                    "name": "D#7",
                    "midi": 99,
                    "time": 8.399999999999999,
                    "velocity": 0.5905511811023622,
                    "duration": 0.09999999999999964
                },
                {
                    "name": "D#7",
                    "midi": 99,
                    "time": 8.699999999999998,
                    "velocity": 0.5905511811023622,
                    "duration": 0.09999999999999964
                },
                {
                    "name": "D7",
                    "midi": 98,
                    "time": 8.999999999999996,
                    "velocity": 0.5905511811023622,
                    "duration": 0.09999999999999964
                },
                {
                    "name": "C7",
                    "midi": 96,
                    "time": 9.299999999999995,
                    "velocity": 0.5905511811023622,
                    "duration": 0.09999999999999964
                },
                {
                    "name": "B6",
                    "midi": 95,
                    "time": 9.599999999999994,
                    "velocity": 0.5905511811023622,
                    "duration": 0.09999999999999964
                },
                {
                    "name": "C7",
                    "midi": 96,
                    "time": 9.899999999999993,
                    "velocity": 0.5905511811023622,
                    "duration": 0.09999999999999964
                },
                {
                    "name": "B6",
                    "midi": 95,
                    "time": 10.199999999999992,
                    "velocity": 0.5905511811023622,
                    "duration": 0.07499999999999929
                },
                {
                    "name": "C7",
                    "midi": 96,
                    "time": 10.274999999999991,
                    "velocity": 0.5905511811023622,
                    "duration": 0.07499999999999929
                },
                {
                    "name": "D7",
                    "midi": 98,
                    "time": 10.34999999999999,
                    "velocity": 0.5905511811023622,
                    "duration": 0.09999999999999964
                },
                {
                    "name": "G6",
                    "midi": 91,
                    "time": 10.499999999999991,
                    "velocity": 0.5905511811023622,
                    "duration": 0.09999999999999964
                },
                {
                    "name": "G6",
                    "midi": 91,
                    "time": 10.79999999999999,
                    "velocity": 0.5905511811023622,
                    "duration": 0.09999999999999964
                },
                {
                    "name": "A#6",
                    "midi": 94,
                    "time": 11.099999999999989,
                    "velocity": 0.5905511811023622,
                    "duration": 0.07499999999999929
                },
                {
                    "name": "G#6",
                    "midi": 92,
                    "time": 11.174999999999988,
                    "velocity": 0.5905511811023622,
                    "duration": 0.15000000000000036
                },
                {
                    "name": "G6",
                    "midi": 91,
                    "time": 11.399999999999988,
                    "velocity": 0.5905511811023622,
                    "duration": 0.09999999999999964
                },
                {
                    "name": "F6",
                    "midi": 89,
                    "time": 11.699999999999987,
                    "velocity": 0.5905511811023622,
                    "duration": 0.09999999999999964
                },
                {
                    "name": "G6",
                    "midi": 91,
                    "time": 11.999999999999986,
                    "velocity": 0.5905511811023622,
                    "duration": 0.09999999999999964
                },
                {
                    "name": "C7",
                    "midi": 96,
                    "time": 12.299999999999985,
                    "velocity": 0.5905511811023622,
                    "duration": 0.09999999999999964
                },
                {
                    "name": "D#7",
                    "midi": 99,
                    "time": 12.449999999999985,
                    "velocity": 0.5905511811023622,
                    "duration": 0.09999999999999964
                },
                {
                    "name": "G7",
                    "midi": 103,
                    "time": 12.599999999999985,
                    "velocity": 0.5905511811023622,
                    "duration": 0.09999999999999964
                },
                {
                    "name": "G6",
                    "midi": 91,
                    "time": 12.899999999999984,
                    "velocity": 0.5905511811023622,
                    "duration": 0.09999999999999964
                },
                {
                    "name": "B6",
                    "midi": 95,
                    "time": 13.199999999999983,
                    "velocity": 0.5905511811023622,
                    "duration": 0.09999999999999964
                },
                {
                    "name": "D7",
                    "midi": 98,
                    "time": 13.349999999999984,
                    "velocity": 0.5905511811023622,
                    "duration": 0.09999999999999964
                },
                {
                    "name": "G7",
                    "midi": 103,
                    "time": 13.499999999999984,
                    "velocity": 0.5905511811023622,
                    "duration": 0.09999999999999964
                },
                {
                    "name": "C7",
                    "midi": 96,
                    "time": 13.799999999999983,
                    "velocity": 0.5905511811023622,
                    "duration": 0.09999999999999964
                },
                {
                    "name": "C8",
                    "midi": 108,
                    "time": 14.099999999999982,
                    "velocity": 0.5905511811023622,
                    "duration": 0.09999999999999964
                },
                {
                    "name": "G6",
                    "midi": 91,
                    "time": 14.39999999999998,
                    "velocity": 0.7244094488188977,
                    "duration": 0.3000000000000007
                },
                {
                    "name": "G7",
                    "midi": 103,
                    "time": 14.699999999999982,
                    "velocity": 0.7244094488188977,
                    "duration": 0.09999999999999964
                },
                {
                    "name": "G7",
                    "midi": 103,
                    "time": 14.99999999999998,
                    "velocity": 0.7244094488188977,
                    "duration": 0.09999999999999964
                },
                {
                    "name": "F7",
                    "midi": 101,
                    "time": 15.29999999999998,
                    "velocity": 0.7244094488188977,
                    "duration": 0.09999999999999964
                },
                {
                    "name": "D#7",
                    "midi": 99,
                    "time": 15.599999999999978,
                    "velocity": 0.7244094488188977,
                    "duration": 0.09999999999999964
                },
                {
                    "name": "D#7",
                    "midi": 99,
                    "time": 15.899999999999977,
                    "velocity": 0.7244094488188977,
                    "duration": 0.09999999999999964
                },
                {
                    "name": "D7",
                    "midi": 98,
                    "time": 16.199999999999978,
                    "velocity": 0.7244094488188977,
                    "duration": 0.10000000000000142
                },
                {
                    "name": "C7",
                    "midi": 96,
                    "time": 16.49999999999998,
                    "velocity": 0.7244094488188977,
                    "duration": 0.10000000000000142
                },
                {
                    "name": "B6",
                    "midi": 95,
                    "time": 16.79999999999998,
                    "velocity": 0.7244094488188977,
                    "duration": 0.10000000000000142
                },
                {
                    "name": "C7",
                    "midi": 96,
                    "time": 17.09999999999998,
                    "velocity": 0.7244094488188977,
                    "duration": 0.10000000000000142
                },
                {
                    "name": "B6",
                    "midi": 95,
                    "time": 17.39999999999998,
                    "velocity": 0.7244094488188977,
                    "duration": 0.07499999999999929
                },
                {
                    "name": "C7",
                    "midi": 96,
                    "time": 17.47499999999998,
                    "velocity": 0.7244094488188977,
                    "duration": 0.07499999999999929
                },
                {
                    "name": "D7",
                    "midi": 98,
                    "time": 17.54999999999998,
                    "velocity": 0.7244094488188977,
                    "duration": 0.10000000000000142
                },
                {
                    "name": "G6",
                    "midi": 91,
                    "time": 17.69999999999998,
                    "velocity": 0.7244094488188977,
                    "duration": 0.10000000000000142
                },
                {
                    "name": "G6",
                    "midi": 91,
                    "time": 17.999999999999982,
                    "velocity": 0.7244094488188977,
                    "duration": 0.10000000000000142
                },
                {
                    "name": "A#6",
                    "midi": 94,
                    "time": 18.299999999999983,
                    "velocity": 0.7244094488188977,
                    "duration": 0.07499999999999929
                },
                {
                    "name": "G#6",
                    "midi": 92,
                    "time": 18.374999999999982,
                    "velocity": 0.7244094488188977,
                    "duration": 0.14999999999999858
                },
                {
                    "name": "G6",
                    "midi": 91,
                    "time": 18.59999999999998,
                    "velocity": 0.7244094488188977,
                    "duration": 0.10000000000000142
                },
                {
                    "name": "F6",
                    "midi": 89,
                    "time": 18.89999999999998,
                    "velocity": 0.7244094488188977,
                    "duration": 0.10000000000000142
                },
                {
                    "name": "D#6",
                    "midi": 87,
                    "time": 19.19999999999998,
                    "velocity": 0.7244094488188977,
                    "duration": 0.10000000000000142
                },
                {
                    "name": "D6",
                    "midi": 86,
                    "time": 19.499999999999982,
                    "velocity": 0.7244094488188977,
                    "duration": 0.10000000000000142
                },
                {
                    "name": "C6",
                    "midi": 84,
                    "time": 19.799999999999983,
                    "velocity": 0.7244094488188977,
                    "duration": 0.10000000000000142
                },
                {
                    "name": "F6",
                    "midi": 89,
                    "time": 20.099999999999984,
                    "velocity": 0.7244094488188977,
                    "duration": 0.07499999999999929
                },
                {
                    "name": "D#6",
                    "midi": 87,
                    "time": 20.174999999999983,
                    "velocity": 0.7244094488188977,
                    "duration": 0.14999999999999858
                },
                {
                    "name": "D6",
                    "midi": 86,
                    "time": 20.39999999999998,
                    "velocity": 0.7244094488188977,
                    "duration": 0.10000000000000142
                },
                {
                    "name": "C6",
                    "midi": 84,
                    "time": 20.69999999999998,
                    "velocity": 0.7244094488188977,
                    "duration": 0.10000000000000142
                },
                {
                    "name": "D6",
                    "midi": 86,
                    "time": 20.999999999999982,
                    "velocity": 0.7244094488188977,
                    "duration": 0.6000000000000014
                },
                {
                    "name": "G6",
                    "midi": 91,
                    "time": 21.599999999999984,
                    "velocity": 0.7244094488188977,
                    "duration": 0.3000000000000007
                },
                {
                    "name": "G7",
                    "midi": 103,
                    "time": 21.899999999999984,
                    "velocity": 0.7244094488188977,
                    "duration": 0.10000000000000142
                },
                {
                    "name": "G7",
                    "midi": 103,
                    "time": 22.199999999999985,
                    "velocity": 0.7244094488188977,
                    "duration": 0.10000000000000142
                },
                {
                    "name": "F7",
                    "midi": 101,
                    "time": 22.499999999999986,
                    "velocity": 0.7244094488188977,
                    "duration": 0.10000000000000142
                },
                {
                    "name": "D#7",
                    "midi": 99,
                    "time": 22.799999999999986,
                    "velocity": 0.7244094488188977,
                    "duration": 0.10000000000000142
                },
                {
                    "name": "D#7",
                    "midi": 99,
                    "time": 23.099999999999987,
                    "velocity": 0.7244094488188977,
                    "duration": 0.10000000000000142
                },
                {
                    "name": "D7",
                    "midi": 98,
                    "time": 23.399999999999988,
                    "velocity": 0.7244094488188977,
                    "duration": 0.10000000000000142
                },
                {
                    "name": "C7",
                    "midi": 96,
                    "time": 23.69999999999999,
                    "velocity": 0.7244094488188977,
                    "duration": 0.10000000000000142
                },
                {
                    "name": "B6",
                    "midi": 95,
                    "time": 23.99999999999999,
                    "velocity": 0.7244094488188977,
                    "duration": 0.10000000000000142
                },
                {
                    "name": "C7",
                    "midi": 96,
                    "time": 24.29999999999999,
                    "velocity": 0.7244094488188977,
                    "duration": 0.10000000000000142
                },
                {
                    "name": "B6",
                    "midi": 95,
                    "time": 24.59999999999999,
                    "velocity": 0.7244094488188977,
                    "duration": 0.07499999999999929
                },
                {
                    "name": "C7",
                    "midi": 96,
                    "time": 24.67499999999999,
                    "velocity": 0.7244094488188977,
                    "duration": 0.07499999999999929
                },
                {
                    "name": "D7",
                    "midi": 98,
                    "time": 24.74999999999999,
                    "velocity": 0.7244094488188977,
                    "duration": 0.10000000000000142
                },
                {
                    "name": "G6",
                    "midi": 91,
                    "time": 24.89999999999999,
                    "velocity": 0.7244094488188977,
                    "duration": 0.10000000000000142
                },
                {
                    "name": "G6",
                    "midi": 91,
                    "time": 25.199999999999992,
                    "velocity": 0.7244094488188977,
                    "duration": 0.10000000000000142
                },
                {
                    "name": "A#6",
                    "midi": 94,
                    "time": 25.499999999999993,
                    "velocity": 0.7244094488188977,
                    "duration": 0.07499999999999929
                },
                {
                    "name": "G#6",
                    "midi": 92,
                    "time": 25.574999999999992,
                    "velocity": 0.7244094488188977,
                    "duration": 0.14999999999999858
                },
                {
                    "name": "G6",
                    "midi": 91,
                    "time": 25.79999999999999,
                    "velocity": 0.7244094488188977,
                    "duration": 0.10000000000000142
                },
                {
                    "name": "F6",
                    "midi": 89,
                    "time": 26.09999999999999,
                    "velocity": 0.7244094488188977,
                    "duration": 0.10000000000000142
                },
                {
                    "name": "G6",
                    "midi": 91,
                    "time": 26.39999999999999,
                    "velocity": 0.7244094488188977,
                    "duration": 0.10000000000000142
                },
                {
                    "name": "C7",
                    "midi": 96,
                    "time": 26.699999999999992,
                    "velocity": 0.7244094488188977,
                    "duration": 0.10000000000000142
                },
                {
                    "name": "D#7",
                    "midi": 99,
                    "time": 26.849999999999994,
                    "velocity": 0.7244094488188977,
                    "duration": 0.10000000000000142
                },
                {
                    "name": "G7",
                    "midi": 103,
                    "time": 26.999999999999996,
                    "velocity": 0.7244094488188977,
                    "duration": 0.10000000000000142
                },
                {
                    "name": "G6",
                    "midi": 91,
                    "time": 27.299999999999997,
                    "velocity": 0.7244094488188977,
                    "duration": 0.10000000000000142
                },
                {
                    "name": "B6",
                    "midi": 95,
                    "time": 27.599999999999998,
                    "velocity": 0.7244094488188977,
                    "duration": 0.10000000000000142
                },
                {
                    "name": "D7",
                    "midi": 98,
                    "time": 27.75,
                    "velocity": 0.7244094488188977,
                    "duration": 0.10000000000000142
                },
                {
                    "name": "G7",
                    "midi": 103,
                    "time": 27.900000000000002,
                    "velocity": 0.7244094488188977,
                    "duration": 0.10000000000000142
                },
                {
                    "name": "C7",
                    "midi": 96,
                    "time": 28.200000000000003,
                    "velocity": 0.7244094488188977,
                    "duration": 0.6000000000000014
                },
                {
                    "name": "D#6",
                    "midi": 87,
                    "time": 28.800000000000004,
                    "velocity": 0.5905511811023622,
                    "duration": 0.10000000000000142
                },
                {
                    "name": "D#6",
                    "midi": 87,
                    "time": 29.100000000000005,
                    "velocity": 0.5905511811023622,
                    "duration": 0.10000000000000142
                },
                {
                    "name": "D#6",
                    "midi": 87,
                    "time": 29.400000000000006,
                    "velocity": 0.5905511811023622,
                    "duration": 0.10000000000000142
                },
                {
                    "name": "D#6",
                    "midi": 87,
                    "time": 29.700000000000006,
                    "velocity": 0.5905511811023622,
                    "duration": 0.10000000000000142
                },
                {
                    "name": "D#6",
                    "midi": 87,
                    "time": 30.000000000000007,
                    "velocity": 0.5905511811023622,
                    "duration": 0.05000000000000071
                },
                {
                    "name": "F6",
                    "midi": 89,
                    "time": 30.050000000000008,
                    "velocity": 0.5905511811023622,
                    "duration": 0.05000000000000071
                },
                {
                    "name": "D#6",
                    "midi": 87,
                    "time": 30.10000000000001,
                    "velocity": 0.5905511811023622,
                    "duration": 0.05000000000000071
                },
                {
                    "name": "D6",
                    "midi": 86,
                    "time": 30.15000000000001,
                    "velocity": 0.5905511811023622,
                    "duration": 0.07499999999999929
                },
                {
                    "name": "C6",
                    "midi": 84,
                    "time": 30.22500000000001,
                    "velocity": 0.5905511811023622,
                    "duration": 0.07499999999999929
                },
                {
                    "name": "A#5",
                    "midi": 82,
                    "time": 30.300000000000008,
                    "velocity": 0.5905511811023622,
                    "duration": 0.10000000000000142
                },
                {
                    "name": "D#6",
                    "midi": 87,
                    "time": 30.60000000000001,
                    "velocity": 0.5905511811023622,
                    "duration": 0.10000000000000142
                },
                {
                    "name": "F6",
                    "midi": 89,
                    "time": 30.90000000000001,
                    "velocity": 0.5905511811023622,
                    "duration": 0.05000000000000071
                },
                {
                    "name": "G6",
                    "midi": 91,
                    "time": 30.95000000000001,
                    "velocity": 0.5905511811023622,
                    "duration": 0.05000000000000071
                },
                {
                    "name": "F6",
                    "midi": 89,
                    "time": 31.00000000000001,
                    "velocity": 0.5905511811023622,
                    "duration": 0.05000000000000071
                },
                {
                    "name": "D6",
                    "midi": 86,
                    "time": 31.05000000000001,
                    "velocity": 0.5905511811023622,
                    "duration": 0.07499999999999929
                },
                {
                    "name": "C6",
                    "midi": 84,
                    "time": 31.12500000000001,
                    "velocity": 0.5905511811023622,
                    "duration": 0.07499999999999929
                },
                {
                    "name": "A#5",
                    "midi": 82,
                    "time": 31.20000000000001,
                    "velocity": 0.5905511811023622,
                    "duration": 0.10000000000000142
                },
                {
                    "name": "F6",
                    "midi": 89,
                    "time": 31.50000000000001,
                    "velocity": 0.5905511811023622,
                    "duration": 0.10000000000000142
                },
                {
                    "name": "G6",
                    "midi": 91,
                    "time": 31.80000000000001,
                    "velocity": 0.5905511811023622,
                    "duration": 0.29999999999999716
                },
                {
                    "name": "D#6",
                    "midi": 87,
                    "time": 32.10000000000001,
                    "velocity": 0.5905511811023622,
                    "duration": 0.10000000000000142
                },
                {
                    "name": "G6",
                    "midi": 91,
                    "time": 32.40000000000001,
                    "velocity": 0.5905511811023622,
                    "duration": 0.10000000000000142
                },
                {
                    "name": "G6",
                    "midi": 91,
                    "time": 32.70000000000002,
                    "velocity": 0.5905511811023622,
                    "duration": 0.10000000000000142
                },
                {
                    "name": "G6",
                    "midi": 91,
                    "time": 33.00000000000002,
                    "velocity": 0.5905511811023622,
                    "duration": 0.10000000000000142
                },
                {
                    "name": "G6",
                    "midi": 91,
                    "time": 33.300000000000026,
                    "velocity": 0.5905511811023622,
                    "duration": 0.10000000000000142
                },
                {
                    "name": "G6",
                    "midi": 91,
                    "time": 33.60000000000003,
                    "velocity": 0.5905511811023622,
                    "duration": 0.04999999999999716
                },
                {
                    "name": "A6",
                    "midi": 93,
                    "time": 33.65000000000003,
                    "velocity": 0.5905511811023622,
                    "duration": 0.04999999999999716
                },
                {
                    "name": "G6",
                    "midi": 91,
                    "time": 33.700000000000024,
                    "velocity": 0.5905511811023622,
                    "duration": 0.04999999999999716
                },
                {
                    "name": "F#6",
                    "midi": 90,
                    "time": 33.75000000000002,
                    "velocity": 0.5905511811023622,
                    "duration": 0.07500000000000284
                },
                {
                    "name": "E6",
                    "midi": 88,
                    "time": 33.825000000000024,
                    "velocity": 0.5905511811023622,
                    "duration": 0.07500000000000284
                },
                {
                    "name": "D6",
                    "midi": 86,
                    "time": 33.90000000000003,
                    "velocity": 0.5905511811023622,
                    "duration": 0.10000000000000142
                },
                {
                    "name": "G6",
                    "midi": 91,
                    "time": 34.20000000000003,
                    "velocity": 0.5905511811023622,
                    "duration": 0.10000000000000142
                },
                {
                    "name": "A6",
                    "midi": 93,
                    "time": 34.500000000000036,
                    "velocity": 0.5905511811023622,
                    "duration": 0.04999999999999716
                },
                {
                    "name": "B6",
                    "midi": 95,
                    "time": 34.55000000000003,
                    "velocity": 0.5905511811023622,
                    "duration": 0.04999999999999716
                },
                {
                    "name": "A6",
                    "midi": 93,
                    "time": 34.60000000000003,
                    "velocity": 0.5905511811023622,
                    "duration": 0.04999999999999716
                },
                {
                    "name": "F#6",
                    "midi": 90,
                    "time": 34.65000000000003,
                    "velocity": 0.5905511811023622,
                    "duration": 0.07500000000000284
                },
                {
                    "name": "E6",
                    "midi": 88,
                    "time": 34.72500000000003,
                    "velocity": 0.5905511811023622,
                    "duration": 0.07500000000000284
                },
                {
                    "name": "D6",
                    "midi": 86,
                    "time": 34.80000000000003,
                    "velocity": 0.5905511811023622,
                    "duration": 0.10000000000000142
                },
                {
                    "name": "A6",
                    "midi": 93,
                    "time": 35.10000000000004,
                    "velocity": 0.5905511811023622,
                    "duration": 0.10000000000000142
                },
                {
                    "name": "A#6",
                    "midi": 94,
                    "time": 35.40000000000004,
                    "velocity": 0.5905511811023622,
                    "duration": 0.29999999999999716
                },
                {
                    "name": "G6",
                    "midi": 91,
                    "time": 35.70000000000004,
                    "velocity": 0.5905511811023622,
                    "duration": 0.10000000000000142
                },
                {
                    "name": "A#6",
                    "midi": 94,
                    "time": 36.00000000000004,
                    "velocity": 0.5905511811023622,
                    "duration": 0.10000000000000142
                },
                {
                    "name": "A#6",
                    "midi": 94,
                    "time": 36.30000000000005,
                    "velocity": 0.5905511811023622,
                    "duration": 0.10000000000000142
                },
                {
                    "name": "A#6",
                    "midi": 94,
                    "time": 36.60000000000005,
                    "velocity": 0.5905511811023622,
                    "duration": 0.10000000000000142
                },
                {
                    "name": "A#6",
                    "midi": 94,
                    "time": 36.900000000000055,
                    "velocity": 0.5905511811023622,
                    "duration": 0.10000000000000142
                },
                {
                    "name": "A#6",
                    "midi": 94,
                    "time": 37.20000000000006,
                    "velocity": 0.5905511811023622,
                    "duration": 0.04999999999999716
                },
                {
                    "name": "C7",
                    "midi": 96,
                    "time": 37.25000000000006,
                    "velocity": 0.5905511811023622,
                    "duration": 0.04999999999999716
                },
                {
                    "name": "A#6",
                    "midi": 94,
                    "time": 37.300000000000054,
                    "velocity": 0.5905511811023622,
                    "duration": 0.04999999999999716
                },
                {
                    "name": "A6",
                    "midi": 93,
                    "time": 37.35000000000005,
                    "velocity": 0.5905511811023622,
                    "duration": 0.07500000000000284
                },
                {
                    "name": "G6",
                    "midi": 91,
                    "time": 37.425000000000054,
                    "velocity": 0.5905511811023622,
                    "duration": 0.07500000000000284
                },
                {
                    "name": "F6",
                    "midi": 89,
                    "time": 37.50000000000006,
                    "velocity": 0.5905511811023622,
                    "duration": 0.10000000000000142
                },
                {
                    "name": "A#6",
                    "midi": 94,
                    "time": 37.80000000000006,
                    "velocity": 0.5905511811023622,
                    "duration": 0.10000000000000142
                },
                {
                    "name": "C7",
                    "midi": 96,
                    "time": 38.100000000000065,
                    "velocity": 0.5905511811023622,
                    "duration": 0.04999999999999716
                },
                {
                    "name": "D7",
                    "midi": 98,
                    "time": 38.15000000000006,
                    "velocity": 0.5905511811023622,
                    "duration": 0.04999999999999716
                },
                {
                    "name": "C7",
                    "midi": 96,
                    "time": 38.20000000000006,
                    "velocity": 0.5905511811023622,
                    "duration": 0.04999999999999716
                },
                {
                    "name": "A6",
                    "midi": 93,
                    "time": 38.25000000000006,
                    "velocity": 0.5905511811023622,
                    "duration": 0.07500000000000284
                },
                {
                    "name": "G6",
                    "midi": 91,
                    "time": 38.32500000000006,
                    "velocity": 0.5905511811023622,
                    "duration": 0.07500000000000284
                },
                {
                    "name": "F6",
                    "midi": 89,
                    "time": 38.40000000000006,
                    "velocity": 0.5905511811023622,
                    "duration": 0.10000000000000142
                },
                {
                    "name": "C7",
                    "midi": 96,
                    "time": 38.70000000000007,
                    "velocity": 0.5905511811023622,
                    "duration": 0.10000000000000142
                },
                {
                    "name": "D7",
                    "midi": 98,
                    "time": 39.00000000000007,
                    "velocity": 0.5905511811023622,
                    "duration": 0.07500000000000284
                },
                {
                    "name": "D#7",
                    "midi": 99,
                    "time": 39.075000000000074,
                    "velocity": 0.5905511811023622,
                    "duration": 0.07500000000000284
                },
                {
                    "name": "D7",
                    "midi": 98,
                    "time": 39.15000000000008,
                    "velocity": 0.5905511811023622,
                    "duration": 0.07500000000000284
                },
                {
                    "name": "D#7",
                    "midi": 99,
                    "time": 39.22500000000008,
                    "velocity": 0.5905511811023622,
                    "duration": 0.07500000000000284
                },
                {
                    "name": "F7",
                    "midi": 101,
                    "time": 39.30000000000008,
                    "velocity": 0.5905511811023622,
                    "duration": 0.10000000000000142
                },
                {
                    "name": "D#7",
                    "midi": 99,
                    "time": 39.60000000000009,
                    "velocity": 0.5905511811023622,
                    "duration": 0.10000000000000142
                },
                {
                    "name": "D7",
                    "midi": 98,
                    "time": 39.750000000000085,
                    "velocity": 0.5905511811023622,
                    "duration": 0.10000000000000142
                },
                {
                    "name": "C7",
                    "midi": 96,
                    "time": 39.900000000000084,
                    "velocity": 0.5905511811023622,
                    "duration": 0.07500000000000284
                },
                {
                    "name": "D7",
                    "midi": 98,
                    "time": 39.97500000000009,
                    "velocity": 0.5905511811023622,
                    "duration": 0.07500000000000284
                },
                {
                    "name": "C7",
                    "midi": 96,
                    "time": 40.05000000000009,
                    "velocity": 0.5905511811023622,
                    "duration": 0.07500000000000284
                },
                {
                    "name": "D7",
                    "midi": 98,
                    "time": 40.12500000000009,
                    "velocity": 0.5905511811023622,
                    "duration": 0.07500000000000284
                },
                {
                    "name": "D#7",
                    "midi": 99,
                    "time": 40.200000000000095,
                    "velocity": 0.5905511811023622,
                    "duration": 0.10000000000000142
                },
                {
                    "name": "D7",
                    "midi": 98,
                    "time": 40.5000000000001,
                    "velocity": 0.5905511811023622,
                    "duration": 0.10000000000000142
                },
                {
                    "name": "C7",
                    "midi": 96,
                    "time": 40.6500000000001,
                    "velocity": 0.5905511811023622,
                    "duration": 0.10000000000000142
                },
                {
                    "name": "A#6",
                    "midi": 94,
                    "time": 40.8000000000001,
                    "velocity": 0.5905511811023622,
                    "duration": 0.07500000000000284
                },
                {
                    "name": "C7",
                    "midi": 96,
                    "time": 40.8750000000001,
                    "velocity": 0.5905511811023622,
                    "duration": 0.07500000000000284
                },
                {
                    "name": "A#6",
                    "midi": 94,
                    "time": 40.9500000000001,
                    "velocity": 0.5905511811023622,
                    "duration": 0.07500000000000284
                },
                {
                    "name": "C7",
                    "midi": 96,
                    "time": 41.025000000000105,
                    "velocity": 0.5905511811023622,
                    "duration": 0.07500000000000284
                },
                {
                    "name": "D7",
                    "midi": 98,
                    "time": 41.10000000000011,
                    "velocity": 0.5905511811023622,
                    "duration": 0.10000000000000142
                },
                {
                    "name": "C7",
                    "midi": 96,
                    "time": 41.40000000000011,
                    "velocity": 0.5905511811023622,
                    "duration": 0.10000000000000142
                },
                {
                    "name": "A#6",
                    "midi": 94,
                    "time": 41.55000000000011,
                    "velocity": 0.5905511811023622,
                    "duration": 0.10000000000000142
                },
                {
                    "name": "A6",
                    "midi": 93,
                    "time": 41.70000000000011,
                    "velocity": 0.5905511811023622,
                    "duration": 0.07500000000000284
                },
                {
                    "name": "A#6",
                    "midi": 94,
                    "time": 41.77500000000011,
                    "velocity": 0.5905511811023622,
                    "duration": 0.07500000000000284
                },
                {
                    "name": "A6",
                    "midi": 93,
                    "time": 41.850000000000115,
                    "velocity": 0.5905511811023622,
                    "duration": 0.07500000000000284
                },
                {
                    "name": "A#6",
                    "midi": 94,
                    "time": 41.92500000000012,
                    "velocity": 0.5905511811023622,
                    "duration": 0.07500000000000284
                },
                {
                    "name": "C7",
                    "midi": 96,
                    "time": 42.00000000000012,
                    "velocity": 0.5905511811023622,
                    "duration": 0.10000000000000142
                },
                {
                    "name": "A#6",
                    "midi": 94,
                    "time": 42.300000000000125,
                    "velocity": 0.5905511811023622,
                    "duration": 0.10000000000000142
                },
                {
                    "name": "A6",
                    "midi": 93,
                    "time": 42.450000000000124,
                    "velocity": 0.5905511811023622,
                    "duration": 0.10000000000000142
                },
                {
                    "name": "A#6",
                    "midi": 94,
                    "time": 42.60000000000012,
                    "velocity": 0.5905511811023622,
                    "duration": 0.6000000000000014
                },
                {
                    "name": "B6",
                    "midi": 95,
                    "time": 43.200000000000124,
                    "velocity": 0.5905511811023622,
                    "duration": 0.29999999999999716
                },
                {
                    "name": "C7",
                    "midi": 96,
                    "time": 43.50000000000012,
                    "velocity": 0.8267716535433071,
                    "duration": 1.1937500000000014
                },
                {
                    "name": "A#6",
                    "midi": 94,
                    "time": 44.700000000000124,
                    "velocity": 0.5905511811023622,
                    "duration": 0.10000000000000142
                },
                {
                    "name": "G#6",
                    "midi": 92,
                    "time": 45.00000000000013,
                    "velocity": 0.5905511811023622,
                    "duration": 0.10000000000000142
                },
                {
                    "name": "G6",
                    "midi": 91,
                    "time": 45.30000000000013,
                    "velocity": 0.5905511811023622,
                    "duration": 0.10000000000000142
                },
                {
                    "name": "G#6",
                    "midi": 92,
                    "time": 45.400000000000134,
                    "velocity": 0.5905511811023622,
                    "duration": 0.10000000000000142
                },
                {
                    "name": "G6",
                    "midi": 91,
                    "time": 45.500000000000135,
                    "velocity": 0.5905511811023622,
                    "duration": 0.10000000000000142
                },
                {
                    "name": "F6",
                    "midi": 89,
                    "time": 45.600000000000136,
                    "velocity": 0.5905511811023622,
                    "duration": 0.10000000000000142
                },
                {
                    "name": "G6",
                    "midi": 91,
                    "time": 45.90000000000014,
                    "velocity": 0.5905511811023622,
                    "duration": 0.10000000000000142
                },
                {
                    "name": "G#6",
                    "midi": 92,
                    "time": 46.200000000000145,
                    "velocity": 0.5905511811023622,
                    "duration": 0.29999999999999716
                },
                {
                    "name": "F7",
                    "midi": 101,
                    "time": 46.50000000000014,
                    "velocity": 0.5905511811023622,
                    "duration": 0.10000000000000142
                },
                {
                    "name": "F6",
                    "midi": 89,
                    "time": 46.800000000000146,
                    "velocity": 0.5905511811023622,
                    "duration": 0.10000000000000142
                },
                {
                    "name": "A#6",
                    "midi": 94,
                    "time": 47.10000000000015,
                    "velocity": 0.8267716535433071,
                    "duration": 1.1937500000000014
                },
                {
                    "name": "G#6",
                    "midi": 92,
                    "time": 48.30000000000015,
                    "velocity": 0.5905511811023622,
                    "duration": 0.10000000000000142
                },
                {
                    "name": "G6",
                    "midi": 91,
                    "time": 48.60000000000016,
                    "velocity": 0.5905511811023622,
                    "duration": 0.10000000000000142
                },
                {
                    "name": "F6",
                    "midi": 89,
                    "time": 48.90000000000016,
                    "velocity": 0.5905511811023622,
                    "duration": 0.10000000000000142
                },
                {
                    "name": "G6",
                    "midi": 91,
                    "time": 49.00000000000016,
                    "velocity": 0.5905511811023622,
                    "duration": 0.10000000000000142
                },
                {
                    "name": "F6",
                    "midi": 89,
                    "time": 49.100000000000165,
                    "velocity": 0.5905511811023622,
                    "duration": 0.10000000000000142
                },
                {
                    "name": "D#6",
                    "midi": 87,
                    "time": 49.200000000000166,
                    "velocity": 0.5905511811023622,
                    "duration": 0.10000000000000142
                },
                {
                    "name": "F6",
                    "midi": 89,
                    "time": 49.50000000000017,
                    "velocity": 0.5905511811023622,
                    "duration": 0.10000000000000142
                },
                {
                    "name": "G6",
                    "midi": 91,
                    "time": 49.800000000000175,
                    "velocity": 0.5905511811023622,
                    "duration": 0.29999999999999716
                },
                {
                    "name": "D#7",
                    "midi": 99,
                    "time": 50.10000000000017,
                    "velocity": 0.5905511811023622,
                    "duration": 0.10000000000000142
                },
                {
                    "name": "D#6",
                    "midi": 87,
                    "time": 50.400000000000176,
                    "velocity": 0.5905511811023622,
                    "duration": 0.10000000000000142
                },
                {
                    "name": "G6",
                    "midi": 91,
                    "time": 50.70000000000018,
                    "velocity": 0.5905511811023622,
                    "duration": 1.1937500000000014
                },
                {
                    "name": "G7",
                    "midi": 103,
                    "time": 51.90000000000018,
                    "velocity": 0.5905511811023622,
                    "duration": 0.10000000000000142
                },
                {
                    "name": "G7",
                    "midi": 103,
                    "time": 52.20000000000019,
                    "velocity": 0.5905511811023622,
                    "duration": 0.10000000000000142
                },
                {
                    "name": "G#7",
                    "midi": 104,
                    "time": 52.50000000000019,
                    "velocity": 0.5905511811023622,
                    "duration": 0.14999999999999858
                },
                {
                    "name": "G7",
                    "midi": 103,
                    "time": 52.65000000000019,
                    "velocity": 0.5905511811023622,
                    "duration": 0.10000000000000142
                },
                {
                    "name": "F7",
                    "midi": 101,
                    "time": 52.80000000000019,
                    "velocity": 0.5905511811023622,
                    "duration": 0.10000000000000142
                },
                {
                    "name": "D#7",
                    "midi": 99,
                    "time": 52.95000000000019,
                    "velocity": 0.5905511811023622,
                    "duration": 0.10000000000000142
                },
                {
                    "name": "D7",
                    "midi": 98,
                    "time": 53.100000000000186,
                    "velocity": 0.5905511811023622,
                    "duration": 0.10000000000000142
                },
                {
                    "name": "C7",
                    "midi": 96,
                    "time": 53.250000000000185,
                    "velocity": 0.5905511811023622,
                    "duration": 0.10000000000000142
                },
                {
                    "name": "B6",
                    "midi": 95,
                    "time": 53.40000000000018,
                    "velocity": 0.5905511811023622,
                    "duration": 0.29999999999999716
                },
                {
                    "name": "G6",
                    "midi": 91,
                    "time": 53.70000000000018,
                    "velocity": 0.5905511811023622,
                    "duration": 0.10000000000000142
                },
                {
                    "name": "G6",
                    "midi": 91,
                    "time": 54.000000000000185,
                    "velocity": 0.5905511811023622,
                    "duration": 0.10000000000000142
                },
                {
                    "name": "G7",
                    "midi": 103,
                    "time": 54.30000000000019,
                    "velocity": 0.5905511811023622,
                    "duration": 1.1937500000000014
                },
                {
                    "name": "G7",
                    "midi": 103,
                    "time": 55.50000000000019,
                    "velocity": 0.5905511811023622,
                    "duration": 0.10000000000000142
                },
                {
                    "name": "G7",
                    "midi": 103,
                    "time": 55.800000000000196,
                    "velocity": 0.5905511811023622,
                    "duration": 0.10000000000000142
                },
                {
                    "name": "G#7",
                    "midi": 104,
                    "time": 56.1000000000002,
                    "velocity": 0.5905511811023622,
                    "duration": 0.14999999999999858
                },
                {
                    "name": "G7",
                    "midi": 103,
                    "time": 56.2500000000002,
                    "velocity": 0.5905511811023622,
                    "duration": 0.10000000000000142
                },
                {
                    "name": "F7",
                    "midi": 101,
                    "time": 56.4000000000002,
                    "velocity": 0.5905511811023622,
                    "duration": 0.10000000000000142
                },
                {
                    "name": "D#7",
                    "midi": 99,
                    "time": 56.550000000000196,
                    "velocity": 0.5905511811023622,
                    "duration": 0.10000000000000142
                },
                {
                    "name": "D7",
                    "midi": 98,
                    "time": 56.700000000000195,
                    "velocity": 0.5905511811023622,
                    "duration": 0.10000000000000142
                },
                {
                    "name": "C7",
                    "midi": 96,
                    "time": 56.85000000000019,
                    "velocity": 0.5905511811023622,
                    "duration": 0.10000000000000142
                },
                {
                    "name": "B6",
                    "midi": 95,
                    "time": 57.00000000000019,
                    "velocity": 0.5905511811023622,
                    "duration": 0.6000000000000014
                },
                {
                    "name": "G6",
                    "midi": 91,
                    "time": 57.60000000000019,
                    "velocity": 0.5905511811023622,
                    "duration": 0.10000000000000142
                },
                {
                    "name": "G7",
                    "midi": 103,
                    "time": 57.9000000000002,
                    "velocity": 0.3543307086614173,
                    "duration": 0.10000000000000142
                },
                {
                    "name": "G7",
                    "midi": 103,
                    "time": 58.2000000000002,
                    "velocity": 0.3543307086614173,
                    "duration": 0.10000000000000142
                },
                {
                    "name": "G7",
                    "midi": 103,
                    "time": 58.500000000000206,
                    "velocity": 0.3543307086614173,
                    "duration": 0.10000000000000142
                },
                {
                    "name": "G6",
                    "midi": 91,
                    "time": 58.80000000000021,
                    "velocity": 0.3543307086614173,
                    "duration": 0.10000000000000142
                },
                {
                    "name": "G6",
                    "midi": 91,
                    "time": 59.100000000000215,
                    "velocity": 0.3543307086614173,
                    "duration": 0.10000000000000142
                },
                {
                    "name": "G6",
                    "midi": 91,
                    "time": 59.40000000000022,
                    "velocity": 0.3543307086614173,
                    "duration": 0.10000000000000142
                },
                {
                    "name": "G5",
                    "midi": 79,
                    "time": 59.70000000000022,
                    "velocity": 0.3543307086614173,
                    "duration": 0.10000000000000142
                },
                {
                    "name": "G5",
                    "midi": 79,
                    "time": 60.00000000000023,
                    "velocity": 0.3543307086614173,
                    "duration": 0.10000000000000142
                },
                {
                    "name": "G5",
                    "midi": 79,
                    "time": 60.30000000000023,
                    "velocity": 0.3543307086614173,
                    "duration": 0.10000000000000142
                },
                {
                    "name": "G6",
                    "midi": 91,
                    "time": 62.100000000000236,
                    "velocity": 0.5905511811023622,
                    "duration": 0.10000000000000142
                },
                {
                    "name": "G7",
                    "midi": 103,
                    "time": 62.40000000000024,
                    "velocity": 0.5905511811023622,
                    "duration": 0.10000000000000142
                },
                {
                    "name": "G7",
                    "midi": 103,
                    "time": 62.700000000000244,
                    "velocity": 0.5905511811023622,
                    "duration": 0.10000000000000142
                },
                {
                    "name": "F7",
                    "midi": 101,
                    "time": 63.00000000000025,
                    "velocity": 0.5905511811023622,
                    "duration": 0.10000000000000142
                },
                {
                    "name": "D#7",
                    "midi": 99,
                    "time": 63.30000000000025,
                    "velocity": 0.5905511811023622,
                    "duration": 0.10000000000000142
                },
                {
                    "name": "D#7",
                    "midi": 99,
                    "time": 63.60000000000026,
                    "velocity": 0.5905511811023622,
                    "duration": 0.10000000000000142
                },
                {
                    "name": "D7",
                    "midi": 98,
                    "time": 63.90000000000026,
                    "velocity": 0.5905511811023622,
                    "duration": 0.09999999999999432
                },
                {
                    "name": "C7",
                    "midi": 96,
                    "time": 64.20000000000026,
                    "velocity": 0.5905511811023622,
                    "duration": 0.09999999999999432
                },
                {
                    "name": "B6",
                    "midi": 95,
                    "time": 64.50000000000026,
                    "velocity": 0.5905511811023622,
                    "duration": 0.09999999999999432
                },
                {
                    "name": "C7",
                    "midi": 96,
                    "time": 64.80000000000025,
                    "velocity": 0.5905511811023622,
                    "duration": 0.09999999999999432
                },
                {
                    "name": "B6",
                    "midi": 95,
                    "time": 65.10000000000025,
                    "velocity": 0.5905511811023622,
                    "duration": 0.07500000000000284
                },
                {
                    "name": "C7",
                    "midi": 96,
                    "time": 65.17500000000025,
                    "velocity": 0.5905511811023622,
                    "duration": 0.07500000000000284
                },
                {
                    "name": "D7",
                    "midi": 98,
                    "time": 65.25000000000026,
                    "velocity": 0.5905511811023622,
                    "duration": 0.09999999999999432
                },
                {
                    "name": "G6",
                    "midi": 91,
                    "time": 65.40000000000025,
                    "velocity": 0.5905511811023622,
                    "duration": 0.09999999999999432
                },
                {
                    "name": "G6",
                    "midi": 91,
                    "time": 65.70000000000024,
                    "velocity": 0.5905511811023622,
                    "duration": 0.09999999999999432
                },
                {
                    "name": "A#6",
                    "midi": 94,
                    "time": 66.00000000000024,
                    "velocity": 0.5905511811023622,
                    "duration": 0.07500000000000284
                },
                {
                    "name": "G#6",
                    "midi": 92,
                    "time": 66.07500000000024,
                    "velocity": 0.5905511811023622,
                    "duration": 0.15000000000000568
                },
                {
                    "name": "G6",
                    "midi": 91,
                    "time": 66.30000000000025,
                    "velocity": 0.5905511811023622,
                    "duration": 0.09999999999999432
                },
                {
                    "name": "F6",
                    "midi": 89,
                    "time": 66.60000000000025,
                    "velocity": 0.5905511811023622,
                    "duration": 0.09999999999999432
                },
                {
                    "name": "D#6",
                    "midi": 87,
                    "time": 66.90000000000025,
                    "velocity": 0.5905511811023622,
                    "duration": 0.09999999999999432
                },
                {
                    "name": "D6",
                    "midi": 86,
                    "time": 67.20000000000024,
                    "velocity": 0.5905511811023622,
                    "duration": 0.09999999999999432
                },
                {
                    "name": "C6",
                    "midi": 84,
                    "time": 67.50000000000024,
                    "velocity": 0.5905511811023622,
                    "duration": 0.09999999999999432
                },
                {
                    "name": "F6",
                    "midi": 89,
                    "time": 67.80000000000024,
                    "velocity": 0.5905511811023622,
                    "duration": 0.07500000000000284
                },
                {
                    "name": "D#6",
                    "midi": 87,
                    "time": 67.87500000000024,
                    "velocity": 0.5905511811023622,
                    "duration": 0.15000000000000568
                },
                {
                    "name": "D6",
                    "midi": 86,
                    "time": 68.10000000000025,
                    "velocity": 0.5905511811023622,
                    "duration": 0.09999999999999432
                },
                {
                    "name": "C6",
                    "midi": 84,
                    "time": 68.40000000000025,
                    "velocity": 0.5905511811023622,
                    "duration": 0.09999999999999432
                },
                {
                    "name": "D6",
                    "midi": 86,
                    "time": 68.70000000000024,
                    "velocity": 0.5905511811023622,
                    "duration": 0.5999999999999943
                },
                {
                    "name": "G6",
                    "midi": 91,
                    "time": 69.30000000000024,
                    "velocity": 0.5905511811023622,
                    "duration": 0.29999999999999716
                },
                {
                    "name": "G7",
                    "midi": 103,
                    "time": 69.60000000000024,
                    "velocity": 0.5905511811023622,
                    "duration": 0.09999999999999432
                },
                {
                    "name": "G7",
                    "midi": 103,
                    "time": 69.90000000000023,
                    "velocity": 0.5905511811023622,
                    "duration": 0.09999999999999432
                },
                {
                    "name": "F7",
                    "midi": 101,
                    "time": 70.20000000000023,
                    "velocity": 0.5905511811023622,
                    "duration": 0.09999999999999432
                },
                {
                    "name": "E7",
                    "midi": 100,
                    "time": 70.50000000000023,
                    "velocity": 0.5905511811023622,
                    "duration": 0.09999999999999432
                },
                {
                    "name": "E7",
                    "midi": 100,
                    "time": 70.80000000000022,
                    "velocity": 0.5905511811023622,
                    "duration": 0.09999999999999432
                },
                {
                    "name": "D7",
                    "midi": 98,
                    "time": 71.10000000000022,
                    "velocity": 0.5905511811023622,
                    "duration": 0.09999999999999432
                },
                {
                    "name": "C7",
                    "midi": 96,
                    "time": 71.40000000000022,
                    "velocity": 0.5905511811023622,
                    "duration": 0.09999999999999432
                },
                {
                    "name": "C7",
                    "midi": 96,
                    "time": 71.70000000000022,
                    "velocity": 0.5905511811023622,
                    "duration": 0.09999999999999432
                },
                {
                    "name": "A#6",
                    "midi": 94,
                    "time": 72.00000000000021,
                    "velocity": 0.5905511811023622,
                    "duration": 0.09999999999999432
                },
                {
                    "name": "A6",
                    "midi": 93,
                    "time": 72.30000000000021,
                    "velocity": 0.5905511811023622,
                    "duration": 0.09999999999999432
                },
                {
                    "name": "G6",
                    "midi": 91,
                    "time": 72.60000000000021,
                    "velocity": 0.5905511811023622,
                    "duration": 0.09999999999999432
                },
                {
                    "name": "F6",
                    "midi": 89,
                    "time": 72.9000000000002,
                    "velocity": 0.5905511811023622,
                    "duration": 0.09999999999999432
                },
                {
                    "name": "A#6",
                    "midi": 94,
                    "time": 73.2000000000002,
                    "velocity": 0.5905511811023622,
                    "duration": 0.07500000000000284
                },
                {
                    "name": "G#6",
                    "midi": 92,
                    "time": 73.2750000000002,
                    "velocity": 0.5905511811023622,
                    "duration": 0.15000000000000568
                },
                {
                    "name": "G6",
                    "midi": 91,
                    "time": 73.50000000000021,
                    "velocity": 0.5905511811023622,
                    "duration": 0.09999999999999432
                },
                {
                    "name": "F6",
                    "midi": 89,
                    "time": 73.80000000000021,
                    "velocity": 0.5905511811023622,
                    "duration": 0.09999999999999432
                },
                {
                    "name": "G6",
                    "midi": 91,
                    "time": 74.10000000000021,
                    "velocity": 0.5905511811023622,
                    "duration": 0.09999999999999432
                },
                {
                    "name": "C7",
                    "midi": 96,
                    "time": 74.4000000000002,
                    "velocity": 0.5905511811023622,
                    "duration": 0.09999999999999432
                },
                {
                    "name": "D#7",
                    "midi": 99,
                    "time": 74.5500000000002,
                    "velocity": 0.5905511811023622,
                    "duration": 0.09999999999999432
                },
                {
                    "name": "G7",
                    "midi": 103,
                    "time": 74.70000000000019,
                    "velocity": 0.5905511811023622,
                    "duration": 0.09999999999999432
                },
                {
                    "name": "G6",
                    "midi": 91,
                    "time": 75.00000000000018,
                    "velocity": 0.5905511811023622,
                    "duration": 0.09999999999999432
                },
                {
                    "name": "B6",
                    "midi": 95,
                    "time": 75.30000000000018,
                    "velocity": 0.5905511811023622,
                    "duration": 0.09999999999999432
                },
                {
                    "name": "D7",
                    "midi": 98,
                    "time": 75.45000000000017,
                    "velocity": 0.5905511811023622,
                    "duration": 0.09999999999999432
                },
                {
                    "name": "G7",
                    "midi": 103,
                    "time": 75.60000000000016,
                    "velocity": 0.5905511811023622,
                    "duration": 0.09999999999999432
                },
                {
                    "name": "C7",
                    "midi": 96,
                    "time": 75.90000000000016,
                    "velocity": 0.5905511811023622,
                    "duration": 0.09999999999999432
                },
                {
                    "name": "C8",
                    "midi": 108,
                    "time": 76.20000000000016,
                    "velocity": 0.5905511811023622,
                    "duration": 0.09999999999999432
                },
                {
                    "name": "G6",
                    "midi": 91,
                    "time": 76.50000000000016,
                    "velocity": 0.7244094488188977,
                    "duration": 0.29999999999999716
                },
                {
                    "name": "G7",
                    "midi": 103,
                    "time": 76.80000000000015,
                    "velocity": 0.7244094488188977,
                    "duration": 0.09999999999999432
                },
                {
                    "name": "G7",
                    "midi": 103,
                    "time": 77.10000000000015,
                    "velocity": 0.7244094488188977,
                    "duration": 0.09999999999999432
                },
                {
                    "name": "F7",
                    "midi": 101,
                    "time": 77.40000000000015,
                    "velocity": 0.7244094488188977,
                    "duration": 0.09999999999999432
                },
                {
                    "name": "D#7",
                    "midi": 99,
                    "time": 77.70000000000014,
                    "velocity": 0.7244094488188977,
                    "duration": 0.09999999999999432
                },
                {
                    "name": "D#7",
                    "midi": 99,
                    "time": 78.00000000000014,
                    "velocity": 0.7244094488188977,
                    "duration": 0.09999999999999432
                },
                {
                    "name": "D7",
                    "midi": 98,
                    "time": 78.30000000000014,
                    "velocity": 0.7244094488188977,
                    "duration": 0.09999999999999432
                },
                {
                    "name": "C7",
                    "midi": 96,
                    "time": 78.60000000000014,
                    "velocity": 0.7244094488188977,
                    "duration": 0.09999999999999432
                },
                {
                    "name": "B6",
                    "midi": 95,
                    "time": 78.90000000000013,
                    "velocity": 0.7244094488188977,
                    "duration": 0.09999999999999432
                },
                {
                    "name": "C7",
                    "midi": 96,
                    "time": 79.20000000000013,
                    "velocity": 0.7244094488188977,
                    "duration": 0.09999999999999432
                },
                {
                    "name": "B6",
                    "midi": 95,
                    "time": 79.50000000000013,
                    "velocity": 0.7244094488188977,
                    "duration": 0.07500000000000284
                },
                {
                    "name": "C7",
                    "midi": 96,
                    "time": 79.57500000000013,
                    "velocity": 0.7244094488188977,
                    "duration": 0.07500000000000284
                },
                {
                    "name": "D7",
                    "midi": 98,
                    "time": 79.65000000000013,
                    "velocity": 0.7244094488188977,
                    "duration": 0.09999999999999432
                },
                {
                    "name": "G6",
                    "midi": 91,
                    "time": 79.80000000000013,
                    "velocity": 0.7244094488188977,
                    "duration": 0.09999999999999432
                },
                {
                    "name": "G6",
                    "midi": 91,
                    "time": 80.10000000000012,
                    "velocity": 0.7244094488188977,
                    "duration": 0.09999999999999432
                },
                {
                    "name": "A#6",
                    "midi": 94,
                    "time": 80.40000000000012,
                    "velocity": 0.7244094488188977,
                    "duration": 0.07500000000000284
                },
                {
                    "name": "G#6",
                    "midi": 92,
                    "time": 80.47500000000012,
                    "velocity": 0.7244094488188977,
                    "duration": 0.15000000000000568
                },
                {
                    "name": "G6",
                    "midi": 91,
                    "time": 80.70000000000013,
                    "velocity": 0.7244094488188977,
                    "duration": 0.09999999999999432
                },
                {
                    "name": "F6",
                    "midi": 89,
                    "time": 81.00000000000013,
                    "velocity": 0.7244094488188977,
                    "duration": 0.09999999999999432
                },
                {
                    "name": "D#6",
                    "midi": 87,
                    "time": 81.30000000000013,
                    "velocity": 0.7244094488188977,
                    "duration": 0.09999999999999432
                },
                {
                    "name": "D6",
                    "midi": 86,
                    "time": 81.60000000000012,
                    "velocity": 0.7244094488188977,
                    "duration": 0.09999999999999432
                },
                {
                    "name": "C6",
                    "midi": 84,
                    "time": 81.90000000000012,
                    "velocity": 0.7244094488188977,
                    "duration": 0.09999999999999432
                },
                {
                    "name": "F6",
                    "midi": 89,
                    "time": 82.20000000000012,
                    "velocity": 0.7244094488188977,
                    "duration": 0.07500000000000284
                },
                {
                    "name": "D#6",
                    "midi": 87,
                    "time": 82.27500000000012,
                    "velocity": 0.7244094488188977,
                    "duration": 0.15000000000000568
                },
                {
                    "name": "D6",
                    "midi": 86,
                    "time": 82.50000000000013,
                    "velocity": 0.7244094488188977,
                    "duration": 0.09999999999999432
                },
                {
                    "name": "C6",
                    "midi": 84,
                    "time": 82.80000000000013,
                    "velocity": 0.7244094488188977,
                    "duration": 0.09999999999999432
                },
                {
                    "name": "D6",
                    "midi": 86,
                    "time": 83.10000000000012,
                    "velocity": 0.7244094488188977,
                    "duration": 0.5999999999999943
                },
                {
                    "name": "G6",
                    "midi": 91,
                    "time": 83.70000000000012,
                    "velocity": 0.7244094488188977,
                    "duration": 0.29999999999999716
                },
                {
                    "name": "G7",
                    "midi": 103,
                    "time": 84.00000000000011,
                    "velocity": 0.7244094488188977,
                    "duration": 0.09999999999999432
                },
                {
                    "name": "G7",
                    "midi": 103,
                    "time": 84.30000000000011,
                    "velocity": 0.7244094488188977,
                    "duration": 0.09999999999999432
                },
                {
                    "name": "F7",
                    "midi": 101,
                    "time": 84.60000000000011,
                    "velocity": 0.7244094488188977,
                    "duration": 0.09999999999999432
                },
                {
                    "name": "E7",
                    "midi": 100,
                    "time": 84.9000000000001,
                    "velocity": 0.7244094488188977,
                    "duration": 0.09999999999999432
                },
                {
                    "name": "E7",
                    "midi": 100,
                    "time": 85.2000000000001,
                    "velocity": 0.7244094488188977,
                    "duration": 0.09999999999999432
                },
                {
                    "name": "D7",
                    "midi": 98,
                    "time": 85.5000000000001,
                    "velocity": 0.7244094488188977,
                    "duration": 0.09999999999999432
                },
                {
                    "name": "C7",
                    "midi": 96,
                    "time": 85.8000000000001,
                    "velocity": 0.7244094488188977,
                    "duration": 0.09999999999999432
                },
                {
                    "name": "B6",
                    "midi": 95,
                    "time": 86.1000000000001,
                    "velocity": 0.7244094488188977,
                    "duration": 0.09999999999999432
                },
                {
                    "name": "C7",
                    "midi": 96,
                    "time": 86.40000000000009,
                    "velocity": 0.7244094488188977,
                    "duration": 0.09999999999999432
                },
                {
                    "name": "B6",
                    "midi": 95,
                    "time": 86.70000000000009,
                    "velocity": 0.7244094488188977,
                    "duration": 0.07500000000000284
                },
                {
                    "name": "C7",
                    "midi": 96,
                    "time": 86.77500000000009,
                    "velocity": 0.7244094488188977,
                    "duration": 0.07500000000000284
                },
                {
                    "name": "D7",
                    "midi": 98,
                    "time": 86.8500000000001,
                    "velocity": 0.7244094488188977,
                    "duration": 0.09999999999999432
                },
                {
                    "name": "G6",
                    "midi": 91,
                    "time": 87.00000000000009,
                    "velocity": 0.7244094488188977,
                    "duration": 0.09999999999999432
                },
                {
                    "name": "G6",
                    "midi": 91,
                    "time": 87.30000000000008,
                    "velocity": 0.7244094488188977,
                    "duration": 0.09999999999999432
                },
                {
                    "name": "A#6",
                    "midi": 94,
                    "time": 87.60000000000008,
                    "velocity": 0.7244094488188977,
                    "duration": 0.07500000000000284
                },
                {
                    "name": "G#6",
                    "midi": 92,
                    "time": 87.67500000000008,
                    "velocity": 0.7244094488188977,
                    "duration": 0.15000000000000568
                },
                {
                    "name": "G6",
                    "midi": 91,
                    "time": 87.90000000000009,
                    "velocity": 0.7244094488188977,
                    "duration": 0.09999999999999432
                },
                {
                    "name": "F6",
                    "midi": 89,
                    "time": 88.20000000000009,
                    "velocity": 0.7244094488188977,
                    "duration": 0.09999999999999432
                },
                {
                    "name": "G6",
                    "midi": 91,
                    "time": 88.50000000000009,
                    "velocity": 0.7244094488188977,
                    "duration": 0.09999999999999432
                },
                {
                    "name": "C7",
                    "midi": 96,
                    "time": 88.80000000000008,
                    "velocity": 0.7244094488188977,
                    "duration": 0.09999999999999432
                },
                {
                    "name": "D#7",
                    "midi": 99,
                    "time": 88.95000000000007,
                    "velocity": 0.7244094488188977,
                    "duration": 0.09999999999999432
                },
                {
                    "name": "G7",
                    "midi": 103,
                    "time": 89.10000000000007,
                    "velocity": 0.7244094488188977,
                    "duration": 0.09999999999999432
                },
                {
                    "name": "G6",
                    "midi": 91,
                    "time": 89.40000000000006,
                    "velocity": 0.7244094488188977,
                    "duration": 0.09999999999999432
                },
                {
                    "name": "B6",
                    "midi": 95,
                    "time": 89.70000000000006,
                    "velocity": 0.7244094488188977,
                    "duration": 0.09999999999999432
                },
                {
                    "name": "D7",
                    "midi": 98,
                    "time": 89.85000000000005,
                    "velocity": 0.7244094488188977,
                    "duration": 0.09999999999999432
                },
                {
                    "name": "G7",
                    "midi": 103,
                    "time": 90.00000000000004,
                    "velocity": 0.7244094488188977,
                    "duration": 0.09999999999999432
                },
                {
                    "name": "C7",
                    "midi": 96,
                    "time": 90.30000000000004,
                    "velocity": 0.5905511811023622,
                    "duration": 0.9000000000000057
                },
                {
                    "name": "C7",
                    "midi": 96,
                    "time": 91.20000000000005,
                    "velocity": 0.3543307086614173,
                    "duration": 0.5
                },
                {
                    "name": "C7",
                    "midi": 96,
                    "time": 120.90000000000003,
                    "velocity": 0.5905511811023622,
                    "duration": 0.09999999999999432
                },
                {
                    "name": "C7",
                    "midi": 96,
                    "time": 121.20000000000003,
                    "velocity": 0.5905511811023622,
                    "duration": 0.09999999999999432
                },
                {
                    "name": "C7",
                    "midi": 96,
                    "time": 121.35000000000002,
                    "velocity": 0.5905511811023622,
                    "duration": 0.09999999999999432
                },
                {
                    "name": "C7",
                    "midi": 96,
                    "time": 121.50000000000001,
                    "velocity": 0.5905511811023622,
                    "duration": 0.09999999999999432
                },
                {
                    "name": "C7",
                    "midi": 96,
                    "time": 121.80000000000001,
                    "velocity": 0.5905511811023622,
                    "duration": 0.09999999999999432
                },
                {
                    "name": "C7",
                    "midi": 96,
                    "time": 122.10000000000001,
                    "velocity": 0.5905511811023622,
                    "duration": 0.09999999999999432
                },
                {
                    "name": "C7",
                    "midi": 96,
                    "time": 122.4,
                    "velocity": 0.5905511811023622,
                    "duration": 0.09999999999999432
                },
                {
                    "name": "C7",
                    "midi": 96,
                    "time": 122.7,
                    "velocity": 0.5905511811023622,
                    "duration": 0.09999999999999432
                },
                {
                    "name": "C7",
                    "midi": 96,
                    "time": 123,
                    "velocity": 0.5905511811023622,
                    "duration": 0.09999999999999432
                },
                {
                    "name": "C7",
                    "midi": 96,
                    "time": 123.14999999999999,
                    "velocity": 0.5905511811023622,
                    "duration": 0.09999999999999432
                },
                {
                    "name": "C7",
                    "midi": 96,
                    "time": 123.29999999999998,
                    "velocity": 0.5905511811023622,
                    "duration": 0.09999999999999432
                },
                {
                    "name": "C7",
                    "midi": 96,
                    "time": 123.59999999999998,
                    "velocity": 0.5905511811023622,
                    "duration": 0.09999999999999432
                },
                {
                    "name": "C7",
                    "midi": 96,
                    "time": 123.89999999999998,
                    "velocity": 0.5905511811023622,
                    "duration": 0.09999999999999432
                },
                {
                    "name": "C7",
                    "midi": 96,
                    "time": 124.19999999999997,
                    "velocity": 0.5905511811023622,
                    "duration": 0.09999999999999432
                },
                {
                    "name": "A#6",
                    "midi": 94,
                    "time": 124.49999999999997,
                    "velocity": 0.5905511811023622,
                    "duration": 0.09999999999999432
                },
                {
                    "name": "A#6",
                    "midi": 94,
                    "time": 124.79999999999997,
                    "velocity": 0.5905511811023622,
                    "duration": 0.09999999999999432
                },
                {
                    "name": "A#6",
                    "midi": 94,
                    "time": 124.94999999999996,
                    "velocity": 0.5905511811023622,
                    "duration": 0.09999999999999432
                },
                {
                    "name": "A#6",
                    "midi": 94,
                    "time": 125.09999999999995,
                    "velocity": 0.5905511811023622,
                    "duration": 0.09999999999999432
                },
                {
                    "name": "A#6",
                    "midi": 94,
                    "time": 125.39999999999995,
                    "velocity": 0.5905511811023622,
                    "duration": 0.09999999999999432
                },
                {
                    "name": "A#6",
                    "midi": 94,
                    "time": 125.69999999999995,
                    "velocity": 0.5905511811023622,
                    "duration": 0.09999999999999432
                },
                {
                    "name": "A#6",
                    "midi": 94,
                    "time": 125.99999999999994,
                    "velocity": 0.5905511811023622,
                    "duration": 0.09999999999999432
                },
                {
                    "name": "A#6",
                    "midi": 94,
                    "time": 126.29999999999994,
                    "velocity": 0.5905511811023622,
                    "duration": 0.09999999999999432
                },
                {
                    "name": "A#6",
                    "midi": 94,
                    "time": 126.59999999999994,
                    "velocity": 0.5905511811023622,
                    "duration": 0.09999999999999432
                },
                {
                    "name": "A#6",
                    "midi": 94,
                    "time": 126.74999999999993,
                    "velocity": 0.5905511811023622,
                    "duration": 0.09999999999999432
                },
                {
                    "name": "A#6",
                    "midi": 94,
                    "time": 126.89999999999992,
                    "velocity": 0.5905511811023622,
                    "duration": 0.09999999999999432
                },
                {
                    "name": "A#6",
                    "midi": 94,
                    "time": 127.19999999999992,
                    "velocity": 0.5905511811023622,
                    "duration": 0.09999999999999432
                },
                {
                    "name": "A#6",
                    "midi": 94,
                    "time": 127.49999999999991,
                    "velocity": 0.5905511811023622,
                    "duration": 0.09999999999999432
                },
                {
                    "name": "A#6",
                    "midi": 94,
                    "time": 127.79999999999991,
                    "velocity": 0.5905511811023622,
                    "duration": 0.09999999999999432
                },
                {
                    "name": "C7",
                    "midi": 96,
                    "time": 128.0999999999999,
                    "velocity": 0.5905511811023622,
                    "duration": 0.09999999999999432
                },
                {
                    "name": "C7",
                    "midi": 96,
                    "time": 128.3999999999999,
                    "velocity": 0.5905511811023622,
                    "duration": 0.09999999999999432
                },
                {
                    "name": "C7",
                    "midi": 96,
                    "time": 128.5499999999999,
                    "velocity": 0.5905511811023622,
                    "duration": 0.09999999999999432
                },
                {
                    "name": "C7",
                    "midi": 96,
                    "time": 128.6999999999999,
                    "velocity": 0.5905511811023622,
                    "duration": 0.09999999999999432
                },
                {
                    "name": "C7",
                    "midi": 96,
                    "time": 128.9999999999999,
                    "velocity": 0.5905511811023622,
                    "duration": 0.09999999999999432
                },
                {
                    "name": "C7",
                    "midi": 96,
                    "time": 129.29999999999987,
                    "velocity": 0.5905511811023622,
                    "duration": 0.09999999999999432
                },
                {
                    "name": "C7",
                    "midi": 96,
                    "time": 129.59999999999985,
                    "velocity": 0.5905511811023622,
                    "duration": 0.09999999999999432
                },
                {
                    "name": "C7",
                    "midi": 96,
                    "time": 129.89999999999984,
                    "velocity": 0.5905511811023622,
                    "duration": 0.09999999999999432
                },
                {
                    "name": "C7",
                    "midi": 96,
                    "time": 130.19999999999982,
                    "velocity": 0.5905511811023622,
                    "duration": 0.09999999999999432
                },
                {
                    "name": "C7",
                    "midi": 96,
                    "time": 130.34999999999982,
                    "velocity": 0.5905511811023622,
                    "duration": 0.09999999999999432
                },
                {
                    "name": "C7",
                    "midi": 96,
                    "time": 130.49999999999983,
                    "velocity": 0.5905511811023622,
                    "duration": 0.09999999999999432
                },
                {
                    "name": "C7",
                    "midi": 96,
                    "time": 130.7999999999998,
                    "velocity": 0.5905511811023622,
                    "duration": 0.09999999999999432
                },
                {
                    "name": "C7",
                    "midi": 96,
                    "time": 131.0999999999998,
                    "velocity": 0.5905511811023622,
                    "duration": 0.09999999999999432
                },
                {
                    "name": "C7",
                    "midi": 96,
                    "time": 131.39999999999978,
                    "velocity": 0.5905511811023622,
                    "duration": 0.09999999999999432
                },
                {
                    "name": "C#7",
                    "midi": 97,
                    "time": 131.69999999999976,
                    "velocity": 0.5905511811023622,
                    "duration": 0.09999999999999432
                },
                {
                    "name": "C#7",
                    "midi": 97,
                    "time": 131.99999999999974,
                    "velocity": 0.5905511811023622,
                    "duration": 0.09999999999999432
                },
                {
                    "name": "C#7",
                    "midi": 97,
                    "time": 132.14999999999975,
                    "velocity": 0.5905511811023622,
                    "duration": 0.09999999999999432
                },
                {
                    "name": "C#7",
                    "midi": 97,
                    "time": 132.29999999999976,
                    "velocity": 0.5905511811023622,
                    "duration": 0.09999999999999432
                },
                {
                    "name": "C#7",
                    "midi": 97,
                    "time": 132.59999999999974,
                    "velocity": 0.5905511811023622,
                    "duration": 0.09999999999999432
                },
                {
                    "name": "C#7",
                    "midi": 97,
                    "time": 132.89999999999972,
                    "velocity": 0.5905511811023622,
                    "duration": 0.09999999999999432
                },
                {
                    "name": "C#7",
                    "midi": 97,
                    "time": 133.1999999999997,
                    "velocity": 0.5905511811023622,
                    "duration": 0.09999999999999432
                },
                {
                    "name": "C7",
                    "midi": 96,
                    "time": 133.4999999999997,
                    "velocity": 0.5905511811023622,
                    "duration": 0.09999999999999432
                },
                {
                    "name": "C7",
                    "midi": 96,
                    "time": 133.79999999999967,
                    "velocity": 0.5905511811023622,
                    "duration": 0.09999999999999432
                },
                {
                    "name": "C7",
                    "midi": 96,
                    "time": 133.94999999999968,
                    "velocity": 0.5905511811023622,
                    "duration": 0.09999999999999432
                },
                {
                    "name": "C7",
                    "midi": 96,
                    "time": 134.09999999999968,
                    "velocity": 0.5905511811023622,
                    "duration": 0.09999999999999432
                },
                {
                    "name": "C7",
                    "midi": 96,
                    "time": 134.39999999999966,
                    "velocity": 0.5905511811023622,
                    "duration": 0.09999999999999432
                },
                {
                    "name": "C7",
                    "midi": 96,
                    "time": 134.69999999999965,
                    "velocity": 0.5905511811023622,
                    "duration": 0.09999999999999432
                },
                {
                    "name": "C7",
                    "midi": 96,
                    "time": 134.99999999999963,
                    "velocity": 0.5905511811023622,
                    "duration": 0.09999999999999432
                },
                {
                    "name": "C#7",
                    "midi": 97,
                    "time": 135.2999999999996,
                    "velocity": 0.5905511811023622,
                    "duration": 0.09999999999999432
                },
                {
                    "name": "C#7",
                    "midi": 97,
                    "time": 135.5999999999996,
                    "velocity": 0.5905511811023622,
                    "duration": 0.09999999999999432
                },
                {
                    "name": "C#7",
                    "midi": 97,
                    "time": 135.7499999999996,
                    "velocity": 0.5905511811023622,
                    "duration": 0.09999999999999432
                },
                {
                    "name": "C#7",
                    "midi": 97,
                    "time": 135.8999999999996,
                    "velocity": 0.5905511811023622,
                    "duration": 0.09999999999999432
                },
                {
                    "name": "C#7",
                    "midi": 97,
                    "time": 136.1999999999996,
                    "velocity": 0.5905511811023622,
                    "duration": 0.09999999999999432
                },
                {
                    "name": "C#7",
                    "midi": 97,
                    "time": 136.49999999999957,
                    "velocity": 0.5905511811023622,
                    "duration": 0.09999999999999432
                },
                {
                    "name": "C#7",
                    "midi": 97,
                    "time": 136.79999999999956,
                    "velocity": 0.5905511811023622,
                    "duration": 0.09999999999999432
                },
                {
                    "name": "C#7",
                    "midi": 97,
                    "time": 137.09999999999954,
                    "velocity": 0.5905511811023622,
                    "duration": 0.09999999999999432
                },
                {
                    "name": "C#7",
                    "midi": 97,
                    "time": 137.39999999999952,
                    "velocity": 0.5905511811023622,
                    "duration": 0.09999999999999432
                },
                {
                    "name": "C#7",
                    "midi": 97,
                    "time": 137.54999999999953,
                    "velocity": 0.5905511811023622,
                    "duration": 0.09999999999999432
                },
                {
                    "name": "C#7",
                    "midi": 97,
                    "time": 137.69999999999953,
                    "velocity": 0.5905511811023622,
                    "duration": 0.09999999999999432
                },
                {
                    "name": "C#7",
                    "midi": 97,
                    "time": 137.99999999999952,
                    "velocity": 0.5905511811023622,
                    "duration": 0.09999999999999432
                },
                {
                    "name": "C#7",
                    "midi": 97,
                    "time": 138.2999999999995,
                    "velocity": 0.5905511811023622,
                    "duration": 0.09999999999999432
                },
                {
                    "name": "C#7",
                    "midi": 97,
                    "time": 138.59999999999948,
                    "velocity": 0.5905511811023622,
                    "duration": 0.09999999999999432
                },
                {
                    "name": "C7",
                    "midi": 96,
                    "time": 138.89999999999947,
                    "velocity": 0.5905511811023622,
                    "duration": 0.09999999999999432
                },
                {
                    "name": "B6",
                    "midi": 95,
                    "time": 139.19999999999945,
                    "velocity": 0.5905511811023622,
                    "duration": 0.09999999999999432
                },
                {
                    "name": "B6",
                    "midi": 95,
                    "time": 139.34999999999945,
                    "velocity": 0.5905511811023622,
                    "duration": 0.09999999999999432
                },
                {
                    "name": "C7",
                    "midi": 96,
                    "time": 139.49999999999946,
                    "velocity": 0.5905511811023622,
                    "duration": 0.09999999999999432
                },
                {
                    "name": "C7",
                    "midi": 96,
                    "time": 139.79999999999944,
                    "velocity": 0.5905511811023622,
                    "duration": 0.09999999999999432
                },
                {
                    "name": "C7",
                    "midi": 96,
                    "time": 140.09999999999943,
                    "velocity": 0.5905511811023622,
                    "duration": 0.09999999999999432
                },
                {
                    "name": "C7",
                    "midi": 96,
                    "time": 140.3999999999994,
                    "velocity": 0.5905511811023622,
                    "duration": 0.09999999999999432
                },
                {
                    "name": "D#7",
                    "midi": 99,
                    "time": 140.6999999999994,
                    "velocity": 0.5905511811023622,
                    "duration": 0.09999999999999432
                },
                {
                    "name": "D#7",
                    "midi": 99,
                    "time": 140.99999999999937,
                    "velocity": 0.5905511811023622,
                    "duration": 0.09999999999999432
                },
                {
                    "name": "D#7",
                    "midi": 99,
                    "time": 141.14999999999938,
                    "velocity": 0.5905511811023622,
                    "duration": 0.09999999999999432
                },
                {
                    "name": "D#7",
                    "midi": 99,
                    "time": 141.2999999999994,
                    "velocity": 0.5905511811023622,
                    "duration": 0.09999999999999432
                },
                {
                    "name": "C#7",
                    "midi": 97,
                    "time": 141.59999999999937,
                    "velocity": 0.5905511811023622,
                    "duration": 0.09999999999999432
                },
                {
                    "name": "C#7",
                    "midi": 97,
                    "time": 141.89999999999935,
                    "velocity": 0.5905511811023622,
                    "duration": 0.09999999999999432
                },
                {
                    "name": "C#7",
                    "midi": 97,
                    "time": 142.19999999999933,
                    "velocity": 0.5905511811023622,
                    "duration": 0.09999999999999432
                },
                {
                    "name": "C#7",
                    "midi": 97,
                    "time": 142.49999999999932,
                    "velocity": 0.5905511811023622,
                    "duration": 0.09999999999999432
                },
                {
                    "name": "C#7",
                    "midi": 97,
                    "time": 142.7999999999993,
                    "velocity": 0.5905511811023622,
                    "duration": 0.09999999999999432
                },
                {
                    "name": "C#7",
                    "midi": 97,
                    "time": 142.9499999999993,
                    "velocity": 0.5905511811023622,
                    "duration": 0.09999999999999432
                },
                {
                    "name": "C#7",
                    "midi": 97,
                    "time": 143.0999999999993,
                    "velocity": 0.5905511811023622,
                    "duration": 0.09999999999999432
                },
                {
                    "name": "C#7",
                    "midi": 97,
                    "time": 143.3999999999993,
                    "velocity": 0.5905511811023622,
                    "duration": 0.09999999999999432
                },
                {
                    "name": "C#7",
                    "midi": 97,
                    "time": 143.69999999999928,
                    "velocity": 0.5905511811023622,
                    "duration": 0.09999999999999432
                },
                {
                    "name": "C#7",
                    "midi": 97,
                    "time": 143.99999999999926,
                    "velocity": 0.5905511811023622,
                    "duration": 0.09999999999999432
                },
                {
                    "name": "C7",
                    "midi": 96,
                    "time": 144.29999999999924,
                    "velocity": 0.5905511811023622,
                    "duration": 0.09999999999999432
                },
                {
                    "name": "C7",
                    "midi": 96,
                    "time": 144.59999999999923,
                    "velocity": 0.5905511811023622,
                    "duration": 0.09999999999999432
                },
                {
                    "name": "C7",
                    "midi": 96,
                    "time": 144.74999999999923,
                    "velocity": 0.5905511811023622,
                    "duration": 0.09999999999999432
                },
                {
                    "name": "C7",
                    "midi": 96,
                    "time": 144.89999999999924,
                    "velocity": 0.5905511811023622,
                    "duration": 0.09999999999999432
                },
                {
                    "name": "C7",
                    "midi": 96,
                    "time": 145.19999999999922,
                    "velocity": 0.5905511811023622,
                    "duration": 0.09999999999999432
                },
                {
                    "name": "C7",
                    "midi": 96,
                    "time": 145.4999999999992,
                    "velocity": 0.5905511811023622,
                    "duration": 0.09999999999999432
                },
                {
                    "name": "C7",
                    "midi": 96,
                    "time": 145.7999999999992,
                    "velocity": 0.5905511811023622,
                    "duration": 0.09999999999999432
                },
                {
                    "name": "A#6",
                    "midi": 94,
                    "time": 146.09999999999917,
                    "velocity": 0.5905511811023622,
                    "duration": 0.09999999999999432
                },
                {
                    "name": "A6",
                    "midi": 93,
                    "time": 146.39999999999915,
                    "velocity": 0.5905511811023622,
                    "duration": 0.09999999999999432
                },
                {
                    "name": "A6",
                    "midi": 93,
                    "time": 146.54999999999916,
                    "velocity": 0.5905511811023622,
                    "duration": 0.09999999999999432
                },
                {
                    "name": "A#6",
                    "midi": 94,
                    "time": 146.69999999999916,
                    "velocity": 0.5905511811023622,
                    "duration": 0.09999999999999432
                },
                {
                    "name": "A#6",
                    "midi": 94,
                    "time": 146.99999999999915,
                    "velocity": 0.5905511811023622,
                    "duration": 0.09999999999999432
                },
                {
                    "name": "A#6",
                    "midi": 94,
                    "time": 147.29999999999913,
                    "velocity": 0.5905511811023622,
                    "duration": 0.09999999999999432
                },
                {
                    "name": "A#6",
                    "midi": 94,
                    "time": 147.5999999999991,
                    "velocity": 0.5905511811023622,
                    "duration": 0.09999999999999432
                },
                {
                    "name": "C#7",
                    "midi": 97,
                    "time": 147.8999999999991,
                    "velocity": 0.5905511811023622,
                    "duration": 0.09999999999999432
                },
                {
                    "name": "C#7",
                    "midi": 97,
                    "time": 148.19999999999908,
                    "velocity": 0.5905511811023622,
                    "duration": 0.09999999999999432
                },
                {
                    "name": "C#7",
                    "midi": 97,
                    "time": 148.34999999999908,
                    "velocity": 0.5905511811023622,
                    "duration": 0.09999999999999432
                },
                {
                    "name": "C#7",
                    "midi": 97,
                    "time": 148.4999999999991,
                    "velocity": 0.5905511811023622,
                    "duration": 0.09999999999999432
                },
                {
                    "name": "C7",
                    "midi": 96,
                    "time": 148.79999999999907,
                    "velocity": 0.5905511811023622,
                    "duration": 0.09999999999999432
                },
                {
                    "name": "C7",
                    "midi": 96,
                    "time": 149.09999999999906,
                    "velocity": 0.5905511811023622,
                    "duration": 0.09999999999999432
                },
                {
                    "name": "C7",
                    "midi": 96,
                    "time": 149.39999999999904,
                    "velocity": 0.5905511811023622,
                    "duration": 0.09999999999999432
                },
                {
                    "name": "C7",
                    "midi": 96,
                    "time": 149.69999999999902,
                    "velocity": 0.5905511811023622,
                    "duration": 0.09999999999999432
                },
                {
                    "name": "C7",
                    "midi": 96,
                    "time": 149.999999999999,
                    "velocity": 0.5905511811023622,
                    "duration": 0.09999999999999432
                },
                {
                    "name": "C7",
                    "midi": 96,
                    "time": 150.149999999999,
                    "velocity": 0.5905511811023622,
                    "duration": 0.09999999999999432
                },
                {
                    "name": "C7",
                    "midi": 96,
                    "time": 150.29999999999902,
                    "velocity": 0.5905511811023622,
                    "duration": 0.09999999999999432
                },
                {
                    "name": "C7",
                    "midi": 96,
                    "time": 150.599999999999,
                    "velocity": 0.5905511811023622,
                    "duration": 0.09999999999999432
                },
                {
                    "name": "C7",
                    "midi": 96,
                    "time": 150.89999999999898,
                    "velocity": 0.5905511811023622,
                    "duration": 0.09999999999999432
                },
                {
                    "name": "C7",
                    "midi": 96,
                    "time": 151.19999999999897,
                    "velocity": 0.5905511811023622,
                    "duration": 0.09999999999999432
                },
                {
                    "name": "C#7",
                    "midi": 97,
                    "time": 151.49999999999895,
                    "velocity": 0.5905511811023622,
                    "duration": 0.09999999999999432
                },
                {
                    "name": "C#7",
                    "midi": 97,
                    "time": 151.79999999999893,
                    "velocity": 0.5905511811023622,
                    "duration": 0.09999999999999432
                },
                {
                    "name": "C#7",
                    "midi": 97,
                    "time": 151.94999999999894,
                    "velocity": 0.5905511811023622,
                    "duration": 0.09999999999999432
                },
                {
                    "name": "C#7",
                    "midi": 97,
                    "time": 152.09999999999894,
                    "velocity": 0.5905511811023622,
                    "duration": 0.09999999999999432
                },
                {
                    "name": "C#7",
                    "midi": 97,
                    "time": 152.39999999999893,
                    "velocity": 0.5905511811023622,
                    "duration": 0.09999999999999432
                },
                {
                    "name": "C#7",
                    "midi": 97,
                    "time": 152.6999999999989,
                    "velocity": 0.5905511811023622,
                    "duration": 0.09999999999999432
                },
                {
                    "name": "C#7",
                    "midi": 97,
                    "time": 152.9999999999989,
                    "velocity": 0.5905511811023622,
                    "duration": 0.09999999999999432
                },
                {
                    "name": "C7",
                    "midi": 96,
                    "time": 153.29999999999887,
                    "velocity": 0.5905511811023622,
                    "duration": 0.09999999999999432
                },
                {
                    "name": "C7",
                    "midi": 96,
                    "time": 153.59999999999886,
                    "velocity": 0.5905511811023622,
                    "duration": 0.09999999999999432
                },
                {
                    "name": "C7",
                    "midi": 96,
                    "time": 153.74999999999886,
                    "velocity": 0.5905511811023622,
                    "duration": 0.09999999999999432
                },
                {
                    "name": "C7",
                    "midi": 96,
                    "time": 153.89999999999887,
                    "velocity": 0.5905511811023622,
                    "duration": 0.09999999999999432
                },
                {
                    "name": "C7",
                    "midi": 96,
                    "time": 154.19999999999885,
                    "velocity": 0.5905511811023622,
                    "duration": 0.09999999999999432
                },
                {
                    "name": "C7",
                    "midi": 96,
                    "time": 154.49999999999883,
                    "velocity": 0.5905511811023622,
                    "duration": 0.09999999999999432
                },
                {
                    "name": "C7",
                    "midi": 96,
                    "time": 154.79999999999882,
                    "velocity": 0.5905511811023622,
                    "duration": 0.09999999999999432
                },
                {
                    "name": "D7",
                    "midi": 98,
                    "time": 155.0999999999988,
                    "velocity": 0.5905511811023622,
                    "duration": 0.09999999999999432
                },
                {
                    "name": "D7",
                    "midi": 98,
                    "time": 155.39999999999878,
                    "velocity": 0.5905511811023622,
                    "duration": 0.09999999999999432
                },
                {
                    "name": "D7",
                    "midi": 98,
                    "time": 155.5499999999988,
                    "velocity": 0.5905511811023622,
                    "duration": 0.09999999999999432
                },
                {
                    "name": "D7",
                    "midi": 98,
                    "time": 155.6999999999988,
                    "velocity": 0.5905511811023622,
                    "duration": 0.09999999999999432
                },
                {
                    "name": "D7",
                    "midi": 98,
                    "time": 155.99999999999878,
                    "velocity": 0.5905511811023622,
                    "duration": 0.09999999999999432
                },
                {
                    "name": "D7",
                    "midi": 98,
                    "time": 156.29999999999876,
                    "velocity": 0.5905511811023622,
                    "duration": 0.09999999999999432
                },
                {
                    "name": "D7",
                    "midi": 98,
                    "time": 156.59999999999874,
                    "velocity": 0.5905511811023622,
                    "duration": 0.09999999999999432
                },
                {
                    "name": "D7",
                    "midi": 98,
                    "time": 156.89999999999873,
                    "velocity": 0.5905511811023622,
                    "duration": 0.09999999999999432
                },
                {
                    "name": "D7",
                    "midi": 98,
                    "time": 157.1999999999987,
                    "velocity": 0.5905511811023622,
                    "duration": 0.09999999999999432
                },
                {
                    "name": "D7",
                    "midi": 98,
                    "time": 157.34999999999872,
                    "velocity": 0.5905511811023622,
                    "duration": 0.09999999999999432
                },
                {
                    "name": "D7",
                    "midi": 98,
                    "time": 157.49999999999872,
                    "velocity": 0.5905511811023622,
                    "duration": 0.09999999999999432
                },
                {
                    "name": "C#7",
                    "midi": 97,
                    "time": 157.7999999999987,
                    "velocity": 0.5905511811023622,
                    "duration": 0.09999999999999432
                },
                {
                    "name": "C#7",
                    "midi": 97,
                    "time": 158.0999999999987,
                    "velocity": 0.5905511811023622,
                    "duration": 0.09999999999999432
                },
                {
                    "name": "C#7",
                    "midi": 97,
                    "time": 158.39999999999867,
                    "velocity": 0.5905511811023622,
                    "duration": 0.09999999999999432
                },
                {
                    "name": "C7",
                    "midi": 96,
                    "time": 158.69999999999865,
                    "velocity": 0.5905511811023622,
                    "duration": 0.09999999999999432
                },
                {
                    "name": "C7",
                    "midi": 96,
                    "time": 158.99999999999864,
                    "velocity": 0.5905511811023622,
                    "duration": 0.09999999999999432
                },
                {
                    "name": "C7",
                    "midi": 96,
                    "time": 159.14999999999864,
                    "velocity": 0.5905511811023622,
                    "duration": 0.09999999999999432
                },
                {
                    "name": "C7",
                    "midi": 96,
                    "time": 159.29999999999865,
                    "velocity": 0.5905511811023622,
                    "duration": 0.09999999999999432
                },
                {
                    "name": "C7",
                    "midi": 96,
                    "time": 159.59999999999863,
                    "velocity": 0.5905511811023622,
                    "duration": 0.09999999999999432
                },
                {
                    "name": "C7",
                    "midi": 96,
                    "time": 159.8999999999986,
                    "velocity": 0.5905511811023622,
                    "duration": 0.09999999999999432
                },
                {
                    "name": "C7",
                    "midi": 96,
                    "time": 160.1999999999986,
                    "velocity": 0.5905511811023622,
                    "duration": 0.09999999999999432
                },
                {
                    "name": "A#6",
                    "midi": 94,
                    "time": 160.49999999999858,
                    "velocity": 0.5905511811023622,
                    "duration": 0.09999999999999432
                },
                {
                    "name": "A#6",
                    "midi": 94,
                    "time": 160.79999999999856,
                    "velocity": 0.5905511811023622,
                    "duration": 0.09999999999999432
                },
                {
                    "name": "A#6",
                    "midi": 94,
                    "time": 160.94999999999857,
                    "velocity": 0.5905511811023622,
                    "duration": 0.09999999999999432
                },
                {
                    "name": "A#6",
                    "midi": 94,
                    "time": 161.09999999999857,
                    "velocity": 0.5905511811023622,
                    "duration": 0.09999999999999432
                },
                {
                    "name": "A#6",
                    "midi": 94,
                    "time": 161.39999999999856,
                    "velocity": 0.5905511811023622,
                    "duration": 0.09999999999999432
                },
                {
                    "name": "A#6",
                    "midi": 94,
                    "time": 161.69999999999854,
                    "velocity": 0.5905511811023622,
                    "duration": 0.09999999999999432
                },
                {
                    "name": "A#6",
                    "midi": 94,
                    "time": 161.99999999999852,
                    "velocity": 0.5905511811023622,
                    "duration": 0.09999999999999432
                },
                {
                    "name": "C7",
                    "midi": 96,
                    "time": 162.2999999999985,
                    "velocity": 0.47244094488188976,
                    "duration": 0.15000000000000568
                },
                {
                    "name": "B6",
                    "midi": 95,
                    "time": 162.4499999999985,
                    "velocity": 0.47244094488188976,
                    "duration": 0.09999999999999432
                },
                {
                    "name": "C7",
                    "midi": 96,
                    "time": 162.59999999999852,
                    "velocity": 0.47244094488188976,
                    "duration": 0.09999999999999432
                },
                {
                    "name": "D7",
                    "midi": 98,
                    "time": 162.74999999999852,
                    "velocity": 0.47244094488188976,
                    "duration": 0.09999999999999432
                },
                {
                    "name": "E7",
                    "midi": 100,
                    "time": 162.89999999999853,
                    "velocity": 0.47244094488188976,
                    "duration": 0.09999999999999432
                },
                {
                    "name": "F7",
                    "midi": 101,
                    "time": 163.04999999999853,
                    "velocity": 0.47244094488188976,
                    "duration": 0.09999999999999432
                },
                {
                    "name": "G7",
                    "midi": 103,
                    "time": 163.19999999999854,
                    "velocity": 0.47244094488188976,
                    "duration": 0.09999999999999432
                },
                {
                    "name": "G7",
                    "midi": 103,
                    "time": 163.49999999999852,
                    "velocity": 0.47244094488188976,
                    "duration": 0.09999999999999432
                },
                {
                    "name": "G7",
                    "midi": 103,
                    "time": 163.7999999999985,
                    "velocity": 0.47244094488188976,
                    "duration": 0.09999999999999432
                },
                {
                    "name": "C7",
                    "midi": 96,
                    "time": 166.7999999999985,
                    "velocity": 0.47244094488188976,
                    "duration": 0.15000000000000568
                },
                {
                    "name": "B6",
                    "midi": 95,
                    "time": 166.9499999999985,
                    "velocity": 0.47244094488188976,
                    "duration": 0.09999999999999432
                },
                {
                    "name": "C7",
                    "midi": 96,
                    "time": 167.09999999999852,
                    "velocity": 0.47244094488188976,
                    "duration": 0.09999999999999432
                },
                {
                    "name": "D7",
                    "midi": 98,
                    "time": 167.24999999999852,
                    "velocity": 0.47244094488188976,
                    "duration": 0.09999999999999432
                },
                {
                    "name": "E7",
                    "midi": 100,
                    "time": 167.39999999999853,
                    "velocity": 0.47244094488188976,
                    "duration": 0.09999999999999432
                },
                {
                    "name": "F7",
                    "midi": 101,
                    "time": 167.54999999999853,
                    "velocity": 0.47244094488188976,
                    "duration": 0.09999999999999432
                },
                {
                    "name": "G7",
                    "midi": 103,
                    "time": 167.69999999999854,
                    "velocity": 0.6614173228346457,
                    "duration": 0.29374999999998863
                },
                {
                    "name": "G6",
                    "midi": 91,
                    "time": 169.19999999999854,
                    "velocity": 0.5905511811023622,
                    "duration": 0.09999999999999432
                },
                {
                    "name": "G7",
                    "midi": 103,
                    "time": 169.49999999999852,
                    "velocity": 0.5905511811023622,
                    "duration": 0.09999999999999432
                },
                {
                    "name": "G7",
                    "midi": 103,
                    "time": 169.7999999999985,
                    "velocity": 0.5905511811023622,
                    "duration": 0.09999999999999432
                },
                {
                    "name": "F7",
                    "midi": 101,
                    "time": 170.0999999999985,
                    "velocity": 0.5905511811023622,
                    "duration": 0.09999999999999432
                },
                {
                    "name": "D#7",
                    "midi": 99,
                    "time": 170.39999999999847,
                    "velocity": 0.5905511811023622,
                    "duration": 0.09999999999999432
                },
                {
                    "name": "D#7",
                    "midi": 99,
                    "time": 170.69999999999845,
                    "velocity": 0.5905511811023622,
                    "duration": 0.09999999999999432
                },
                {
                    "name": "D7",
                    "midi": 98,
                    "time": 170.99999999999844,
                    "velocity": 0.5905511811023622,
                    "duration": 0.09999999999999432
                },
                {
                    "name": "C7",
                    "midi": 96,
                    "time": 171.29999999999842,
                    "velocity": 0.5905511811023622,
                    "duration": 0.09999999999999432
                },
                {
                    "name": "B6",
                    "midi": 95,
                    "time": 171.5999999999984,
                    "velocity": 0.5905511811023622,
                    "duration": 0.09999999999999432
                },
                {
                    "name": "C7",
                    "midi": 96,
                    "time": 171.89999999999839,
                    "velocity": 0.5905511811023622,
                    "duration": 0.09999999999999432
                },
                {
                    "name": "B6",
                    "midi": 95,
                    "time": 172.19999999999837,
                    "velocity": 0.5905511811023622,
                    "duration": 0.07499999999998863
                },
                {
                    "name": "C7",
                    "midi": 96,
                    "time": 172.27499999999836,
                    "velocity": 0.5905511811023622,
                    "duration": 0.07499999999998863
                },
                {
                    "name": "D7",
                    "midi": 98,
                    "time": 172.34999999999835,
                    "velocity": 0.5905511811023622,
                    "duration": 0.09999999999999432
                },
                {
                    "name": "G6",
                    "midi": 91,
                    "time": 172.49999999999835,
                    "velocity": 0.5905511811023622,
                    "duration": 0.09999999999999432
                },
                {
                    "name": "G6",
                    "midi": 91,
                    "time": 172.79999999999833,
                    "velocity": 0.5905511811023622,
                    "duration": 0.09999999999999432
                },
                {
                    "name": "A#6",
                    "midi": 94,
                    "time": 173.09999999999832,
                    "velocity": 0.5905511811023622,
                    "duration": 0.07499999999998863
                },
                {
                    "name": "G#6",
                    "midi": 92,
                    "time": 173.1749999999983,
                    "velocity": 0.5905511811023622,
                    "duration": 0.15000000000000568
                },
                {
                    "name": "G6",
                    "midi": 91,
                    "time": 173.3999999999983,
                    "velocity": 0.5905511811023622,
                    "duration": 0.09999999999999432
                },
                {
                    "name": "F6",
                    "midi": 89,
                    "time": 173.69999999999828,
                    "velocity": 0.5905511811023622,
                    "duration": 0.09999999999999432
                },
                {
                    "name": "D#6",
                    "midi": 87,
                    "time": 173.99999999999827,
                    "velocity": 0.5905511811023622,
                    "duration": 0.09999999999999432
                },
                {
                    "name": "D6",
                    "midi": 86,
                    "time": 174.29999999999825,
                    "velocity": 0.5905511811023622,
                    "duration": 0.09999999999999432
                },
                {
                    "name": "C6",
                    "midi": 84,
                    "time": 174.59999999999823,
                    "velocity": 0.5905511811023622,
                    "duration": 0.09999999999999432
                },
                {
                    "name": "F6",
                    "midi": 89,
                    "time": 174.89999999999822,
                    "velocity": 0.5905511811023622,
                    "duration": 0.07499999999998863
                },
                {
                    "name": "D#6",
                    "midi": 87,
                    "time": 174.9749999999982,
                    "velocity": 0.5905511811023622,
                    "duration": 0.15000000000000568
                },
                {
                    "name": "D6",
                    "midi": 86,
                    "time": 175.1999999999982,
                    "velocity": 0.5905511811023622,
                    "duration": 0.09999999999999432
                },
                {
                    "name": "C6",
                    "midi": 84,
                    "time": 175.49999999999818,
                    "velocity": 0.5905511811023622,
                    "duration": 0.09999999999999432
                },
                {
                    "name": "D6",
                    "midi": 86,
                    "time": 175.79999999999816,
                    "velocity": 0.5905511811023622,
                    "duration": 0.5999999999999943
                },
                {
                    "name": "G6",
                    "midi": 91,
                    "time": 176.39999999999816,
                    "velocity": 0.5905511811023622,
                    "duration": 0.30000000000001137
                },
                {
                    "name": "G7",
                    "midi": 103,
                    "time": 176.69999999999817,
                    "velocity": 0.5905511811023622,
                    "duration": 0.09999999999999432
                },
                {
                    "name": "G7",
                    "midi": 103,
                    "time": 176.99999999999815,
                    "velocity": 0.5905511811023622,
                    "duration": 0.09999999999999432
                },
                {
                    "name": "F7",
                    "midi": 101,
                    "time": 177.29999999999814,
                    "velocity": 0.5905511811023622,
                    "duration": 0.09999999999999432
                },
                {
                    "name": "D#7",
                    "midi": 99,
                    "time": 177.59999999999812,
                    "velocity": 0.5905511811023622,
                    "duration": 0.09999999999999432
                },
                {
                    "name": "D#7",
                    "midi": 99,
                    "time": 177.8999999999981,
                    "velocity": 0.5905511811023622,
                    "duration": 0.09999999999999432
                },
                {
                    "name": "D7",
                    "midi": 98,
                    "time": 178.19999999999808,
                    "velocity": 0.5905511811023622,
                    "duration": 0.09999999999999432
                },
                {
                    "name": "C7",
                    "midi": 96,
                    "time": 178.49999999999807,
                    "velocity": 0.5905511811023622,
                    "duration": 0.09999999999999432
                },
                {
                    "name": "B6",
                    "midi": 95,
                    "time": 178.79999999999805,
                    "velocity": 0.5905511811023622,
                    "duration": 0.09999999999999432
                },
                {
                    "name": "C7",
                    "midi": 96,
                    "time": 179.09999999999803,
                    "velocity": 0.5905511811023622,
                    "duration": 0.09999999999999432
                },
                {
                    "name": "B6",
                    "midi": 95,
                    "time": 179.39999999999802,
                    "velocity": 0.5905511811023622,
                    "duration": 0.07499999999998863
                },
                {
                    "name": "C7",
                    "midi": 96,
                    "time": 179.474999999998,
                    "velocity": 0.5905511811023622,
                    "duration": 0.07499999999998863
                },
                {
                    "name": "D7",
                    "midi": 98,
                    "time": 179.549999999998,
                    "velocity": 0.5905511811023622,
                    "duration": 0.09999999999999432
                },
                {
                    "name": "G6",
                    "midi": 91,
                    "time": 179.699999999998,
                    "velocity": 0.5905511811023622,
                    "duration": 0.09999999999999432
                },
                {
                    "name": "G6",
                    "midi": 91,
                    "time": 179.99999999999798,
                    "velocity": 0.5905511811023622,
                    "duration": 0.09999999999999432
                },
                {
                    "name": "A#6",
                    "midi": 94,
                    "time": 180.29999999999797,
                    "velocity": 0.5905511811023622,
                    "duration": 0.07499999999998863
                },
                {
                    "name": "G#6",
                    "midi": 92,
                    "time": 180.37499999999795,
                    "velocity": 0.5905511811023622,
                    "duration": 0.15000000000000568
                },
                {
                    "name": "G6",
                    "midi": 91,
                    "time": 180.59999999999795,
                    "velocity": 0.5905511811023622,
                    "duration": 0.09999999999999432
                },
                {
                    "name": "F6",
                    "midi": 89,
                    "time": 180.89999999999793,
                    "velocity": 0.5905511811023622,
                    "duration": 0.09999999999999432
                },
                {
                    "name": "G6",
                    "midi": 91,
                    "time": 181.1999999999979,
                    "velocity": 0.5905511811023622,
                    "duration": 0.09999999999999432
                },
                {
                    "name": "C7",
                    "midi": 96,
                    "time": 181.4999999999979,
                    "velocity": 0.5905511811023622,
                    "duration": 0.09999999999999432
                },
                {
                    "name": "D#7",
                    "midi": 99,
                    "time": 181.6499999999979,
                    "velocity": 0.5905511811023622,
                    "duration": 0.09999999999999432
                },
                {
                    "name": "G7",
                    "midi": 103,
                    "time": 181.7999999999979,
                    "velocity": 0.5905511811023622,
                    "duration": 0.09999999999999432
                },
                {
                    "name": "G6",
                    "midi": 91,
                    "time": 182.0999999999979,
                    "velocity": 0.5905511811023622,
                    "duration": 0.09999999999999432
                },
                {
                    "name": "B6",
                    "midi": 95,
                    "time": 182.39999999999787,
                    "velocity": 0.5905511811023622,
                    "duration": 0.09999999999999432
                },
                {
                    "name": "D7",
                    "midi": 98,
                    "time": 182.54999999999788,
                    "velocity": 0.5905511811023622,
                    "duration": 0.09999999999999432
                },
                {
                    "name": "G7",
                    "midi": 103,
                    "time": 182.69999999999789,
                    "velocity": 0.5905511811023622,
                    "duration": 0.09999999999999432
                },
                {
                    "name": "C7",
                    "midi": 96,
                    "time": 182.99999999999787,
                    "velocity": 0.5905511811023622,
                    "duration": 0.09999999999999432
                },
                {
                    "name": "C8",
                    "midi": 108,
                    "time": 183.29999999999785,
                    "velocity": 0.5905511811023622,
                    "duration": 0.09999999999999432
                },
                {
                    "name": "G6",
                    "midi": 91,
                    "time": 183.59999999999783,
                    "velocity": 0.7244094488188977,
                    "duration": 0.30000000000001137
                },
                {
                    "name": "G7",
                    "midi": 103,
                    "time": 183.89999999999785,
                    "velocity": 0.7244094488188977,
                    "duration": 0.09999999999999432
                },
                {
                    "name": "G7",
                    "midi": 103,
                    "time": 184.19999999999783,
                    "velocity": 0.7244094488188977,
                    "duration": 0.09999999999999432
                },
                {
                    "name": "F7",
                    "midi": 101,
                    "time": 184.4999999999978,
                    "velocity": 0.7244094488188977,
                    "duration": 0.09999999999999432
                },
                {
                    "name": "D#7",
                    "midi": 99,
                    "time": 184.7999999999978,
                    "velocity": 0.7244094488188977,
                    "duration": 0.09999999999999432
                },
                {
                    "name": "D#7",
                    "midi": 99,
                    "time": 185.09999999999778,
                    "velocity": 0.7244094488188977,
                    "duration": 0.09999999999999432
                },
                {
                    "name": "D7",
                    "midi": 98,
                    "time": 185.39999999999776,
                    "velocity": 0.7244094488188977,
                    "duration": 0.09999999999999432
                },
                {
                    "name": "C7",
                    "midi": 96,
                    "time": 185.69999999999774,
                    "velocity": 0.7244094488188977,
                    "duration": 0.09999999999999432
                },
                {
                    "name": "B6",
                    "midi": 95,
                    "time": 185.99999999999773,
                    "velocity": 0.7244094488188977,
                    "duration": 0.09999999999999432
                },
                {
                    "name": "C7",
                    "midi": 96,
                    "time": 186.2999999999977,
                    "velocity": 0.7244094488188977,
                    "duration": 0.09999999999999432
                },
                {
                    "name": "B6",
                    "midi": 95,
                    "time": 186.5999999999977,
                    "velocity": 0.7244094488188977,
                    "duration": 0.07499999999998863
                },
                {
                    "name": "C7",
                    "midi": 96,
                    "time": 186.67499999999768,
                    "velocity": 0.7244094488188977,
                    "duration": 0.07499999999998863
                },
                {
                    "name": "D7",
                    "midi": 98,
                    "time": 186.74999999999767,
                    "velocity": 0.7244094488188977,
                    "duration": 0.09999999999999432
                },
                {
                    "name": "G6",
                    "midi": 91,
                    "time": 186.89999999999768,
                    "velocity": 0.7244094488188977,
                    "duration": 0.09999999999999432
                },
                {
                    "name": "G6",
                    "midi": 91,
                    "time": 187.19999999999766,
                    "velocity": 0.7244094488188977,
                    "duration": 0.09999999999999432
                },
                {
                    "name": "A#6",
                    "midi": 94,
                    "time": 187.49999999999764,
                    "velocity": 0.7244094488188977,
                    "duration": 0.07499999999998863
                },
                {
                    "name": "G#6",
                    "midi": 92,
                    "time": 187.57499999999763,
                    "velocity": 0.7244094488188977,
                    "duration": 0.15000000000000568
                },
                {
                    "name": "G6",
                    "midi": 91,
                    "time": 187.79999999999762,
                    "velocity": 0.7244094488188977,
                    "duration": 0.09999999999999432
                },
                {
                    "name": "F6",
                    "midi": 89,
                    "time": 188.0999999999976,
                    "velocity": 0.7244094488188977,
                    "duration": 0.09999999999999432
                },
                {
                    "name": "D#6",
                    "midi": 87,
                    "time": 188.3999999999976,
                    "velocity": 0.7244094488188977,
                    "duration": 0.09999999999999432
                },
                {
                    "name": "D6",
                    "midi": 86,
                    "time": 188.69999999999757,
                    "velocity": 0.7244094488188977,
                    "duration": 0.09999999999999432
                },
                {
                    "name": "C6",
                    "midi": 84,
                    "time": 188.99999999999756,
                    "velocity": 0.7244094488188977,
                    "duration": 0.09999999999999432
                },
                {
                    "name": "F6",
                    "midi": 89,
                    "time": 189.29999999999754,
                    "velocity": 0.7244094488188977,
                    "duration": 0.07499999999998863
                },
                {
                    "name": "D#6",
                    "midi": 87,
                    "time": 189.37499999999753,
                    "velocity": 0.7244094488188977,
                    "duration": 0.15000000000000568
                },
                {
                    "name": "D6",
                    "midi": 86,
                    "time": 189.59999999999752,
                    "velocity": 0.7244094488188977,
                    "duration": 0.09999999999999432
                },
                {
                    "name": "C6",
                    "midi": 84,
                    "time": 189.8999999999975,
                    "velocity": 0.7244094488188977,
                    "duration": 0.09999999999999432
                },
                {
                    "name": "D6",
                    "midi": 86,
                    "time": 190.1999999999975,
                    "velocity": 0.7244094488188977,
                    "duration": 0.5999999999999943
                },
                {
                    "name": "G6",
                    "midi": 91,
                    "time": 190.79999999999748,
                    "velocity": 0.7244094488188977,
                    "duration": 0.30000000000001137
                },
                {
                    "name": "G7",
                    "midi": 103,
                    "time": 191.0999999999975,
                    "velocity": 0.7244094488188977,
                    "duration": 0.09999999999999432
                },
                {
                    "name": "G7",
                    "midi": 103,
                    "time": 191.39999999999748,
                    "velocity": 0.7244094488188977,
                    "duration": 0.09999999999999432
                },
                {
                    "name": "F7",
                    "midi": 101,
                    "time": 191.69999999999746,
                    "velocity": 0.7244094488188977,
                    "duration": 0.09999999999999432
                },
                {
                    "name": "D#7",
                    "midi": 99,
                    "time": 191.99999999999744,
                    "velocity": 0.7244094488188977,
                    "duration": 0.09999999999999432
                },
                {
                    "name": "D#7",
                    "midi": 99,
                    "time": 192.29999999999742,
                    "velocity": 0.7244094488188977,
                    "duration": 0.09999999999999432
                },
                {
                    "name": "D7",
                    "midi": 98,
                    "time": 192.5999999999974,
                    "velocity": 0.7244094488188977,
                    "duration": 0.09999999999999432
                },
                {
                    "name": "C7",
                    "midi": 96,
                    "time": 192.8999999999974,
                    "velocity": 0.7244094488188977,
                    "duration": 0.09999999999999432
                },
                {
                    "name": "B6",
                    "midi": 95,
                    "time": 193.19999999999737,
                    "velocity": 0.7244094488188977,
                    "duration": 0.09999999999999432
                },
                {
                    "name": "C7",
                    "midi": 96,
                    "time": 193.49999999999736,
                    "velocity": 0.7244094488188977,
                    "duration": 0.09999999999999432
                },
                {
                    "name": "B6",
                    "midi": 95,
                    "time": 193.79999999999734,
                    "velocity": 0.7244094488188977,
                    "duration": 0.07499999999998863
                },
                {
                    "name": "C7",
                    "midi": 96,
                    "time": 193.87499999999733,
                    "velocity": 0.7244094488188977,
                    "duration": 0.07499999999998863
                },
                {
                    "name": "D7",
                    "midi": 98,
                    "time": 193.94999999999732,
                    "velocity": 0.7244094488188977,
                    "duration": 0.09999999999999432
                },
                {
                    "name": "G6",
                    "midi": 91,
                    "time": 194.09999999999732,
                    "velocity": 0.7244094488188977,
                    "duration": 0.09999999999999432
                },
                {
                    "name": "G6",
                    "midi": 91,
                    "time": 194.3999999999973,
                    "velocity": 0.7244094488188977,
                    "duration": 0.09999999999999432
                },
                {
                    "name": "A#6",
                    "midi": 94,
                    "time": 194.6999999999973,
                    "velocity": 0.7244094488188977,
                    "duration": 0.07499999999998863
                },
                {
                    "name": "G#6",
                    "midi": 92,
                    "time": 194.77499999999728,
                    "velocity": 0.7244094488188977,
                    "duration": 0.15000000000000568
                },
                {
                    "name": "G6",
                    "midi": 91,
                    "time": 194.99999999999727,
                    "velocity": 0.7244094488188977,
                    "duration": 0.09999999999999432
                },
                {
                    "name": "F6",
                    "midi": 89,
                    "time": 195.29999999999725,
                    "velocity": 0.7244094488188977,
                    "duration": 0.09999999999999432
                },
                {
                    "name": "G6",
                    "midi": 91,
                    "time": 195.59999999999724,
                    "velocity": 0.7244094488188977,
                    "duration": 0.09999999999999432
                },
                {
                    "name": "C7",
                    "midi": 96,
                    "time": 195.89999999999722,
                    "velocity": 0.7244094488188977,
                    "duration": 0.09999999999999432
                },
                {
                    "name": "D#7",
                    "midi": 99,
                    "time": 196.04999999999723,
                    "velocity": 0.7244094488188977,
                    "duration": 0.09999999999999432
                },
                {
                    "name": "G7",
                    "midi": 103,
                    "time": 196.19999999999723,
                    "velocity": 0.7244094488188977,
                    "duration": 0.09999999999999432
                },
                {
                    "name": "G6",
                    "midi": 91,
                    "time": 196.49999999999721,
                    "velocity": 0.7244094488188977,
                    "duration": 0.09999999999999432
                },
                {
                    "name": "B6",
                    "midi": 95,
                    "time": 196.7999999999972,
                    "velocity": 0.7244094488188977,
                    "duration": 0.09999999999999432
                },
                {
                    "name": "D7",
                    "midi": 98,
                    "time": 196.9499999999972,
                    "velocity": 0.7244094488188977,
                    "duration": 0.09999999999999432
                },
                {
                    "name": "G7",
                    "midi": 103,
                    "time": 197.0999999999972,
                    "velocity": 0.7244094488188977,
                    "duration": 0.09999999999999432
                },
                {
                    "name": "C7",
                    "midi": 96,
                    "time": 197.3999999999972,
                    "velocity": 0.7244094488188977,
                    "duration": 0.5999999999999943
                },
                {
                    "name": "D#6",
                    "midi": 87,
                    "time": 197.9999999999972,
                    "velocity": 0.5905511811023622,
                    "duration": 0.09999999999999432
                },
                {
                    "name": "D#6",
                    "midi": 87,
                    "time": 198.29999999999717,
                    "velocity": 0.5905511811023622,
                    "duration": 0.09999999999999432
                },
                {
                    "name": "D#6",
                    "midi": 87,
                    "time": 198.59999999999715,
                    "velocity": 0.5905511811023622,
                    "duration": 0.09999999999999432
                },
                {
                    "name": "D#6",
                    "midi": 87,
                    "time": 198.89999999999714,
                    "velocity": 0.5905511811023622,
                    "duration": 0.09999999999999432
                },
                {
                    "name": "D#6",
                    "midi": 87,
                    "time": 199.19999999999712,
                    "velocity": 0.5905511811023622,
                    "duration": 0.05000000000001137
                },
                {
                    "name": "F6",
                    "midi": 89,
                    "time": 199.24999999999713,
                    "velocity": 0.5905511811023622,
                    "duration": 0.05000000000001137
                },
                {
                    "name": "D#6",
                    "midi": 87,
                    "time": 199.29999999999714,
                    "velocity": 0.5905511811023622,
                    "duration": 0.05000000000001137
                },
                {
                    "name": "D6",
                    "midi": 86,
                    "time": 199.34999999999715,
                    "velocity": 0.5905511811023622,
                    "duration": 0.07499999999998863
                },
                {
                    "name": "C6",
                    "midi": 84,
                    "time": 199.42499999999714,
                    "velocity": 0.5905511811023622,
                    "duration": 0.07499999999998863
                },
                {
                    "name": "A#5",
                    "midi": 82,
                    "time": 199.49999999999713,
                    "velocity": 0.5905511811023622,
                    "duration": 0.09999999999999432
                },
                {
                    "name": "D#6",
                    "midi": 87,
                    "time": 199.7999999999971,
                    "velocity": 0.5905511811023622,
                    "duration": 0.09999999999999432
                },
                {
                    "name": "F6",
                    "midi": 89,
                    "time": 200.0999999999971,
                    "velocity": 0.5905511811023622,
                    "duration": 0.05000000000001137
                },
                {
                    "name": "G6",
                    "midi": 91,
                    "time": 200.1499999999971,
                    "velocity": 0.5905511811023622,
                    "duration": 0.05000000000001137
                },
                {
                    "name": "F6",
                    "midi": 89,
                    "time": 200.19999999999712,
                    "velocity": 0.5905511811023622,
                    "duration": 0.05000000000001137
                },
                {
                    "name": "D6",
                    "midi": 86,
                    "time": 200.24999999999713,
                    "velocity": 0.5905511811023622,
                    "duration": 0.07499999999998863
                },
                {
                    "name": "C6",
                    "midi": 84,
                    "time": 200.32499999999712,
                    "velocity": 0.5905511811023622,
                    "duration": 0.07499999999998863
                },
                {
                    "name": "A#5",
                    "midi": 82,
                    "time": 200.3999999999971,
                    "velocity": 0.5905511811023622,
                    "duration": 0.09999999999999432
                },
                {
                    "name": "F6",
                    "midi": 89,
                    "time": 200.6999999999971,
                    "velocity": 0.5905511811023622,
                    "duration": 0.09999999999999432
                },
                {
                    "name": "G6",
                    "midi": 91,
                    "time": 200.99999999999707,
                    "velocity": 0.5905511811023622,
                    "duration": 0.30000000000001137
                },
                {
                    "name": "D#6",
                    "midi": 87,
                    "time": 201.29999999999708,
                    "velocity": 0.5905511811023622,
                    "duration": 0.09999999999999432
                },
                {
                    "name": "G6",
                    "midi": 91,
                    "time": 201.59999999999707,
                    "velocity": 0.5905511811023622,
                    "duration": 0.09999999999999432
                },
                {
                    "name": "G6",
                    "midi": 91,
                    "time": 201.89999999999705,
                    "velocity": 0.5905511811023622,
                    "duration": 0.09999999999999432
                },
                {
                    "name": "G6",
                    "midi": 91,
                    "time": 202.19999999999703,
                    "velocity": 0.5905511811023622,
                    "duration": 0.09999999999999432
                },
                {
                    "name": "G6",
                    "midi": 91,
                    "time": 202.49999999999702,
                    "velocity": 0.5905511811023622,
                    "duration": 0.09999999999999432
                },
                {
                    "name": "G6",
                    "midi": 91,
                    "time": 202.799999999997,
                    "velocity": 0.5905511811023622,
                    "duration": 0.05000000000001137
                },
                {
                    "name": "A6",
                    "midi": 93,
                    "time": 202.849999999997,
                    "velocity": 0.5905511811023622,
                    "duration": 0.05000000000001137
                },
                {
                    "name": "G6",
                    "midi": 91,
                    "time": 202.89999999999702,
                    "velocity": 0.5905511811023622,
                    "duration": 0.05000000000001137
                },
                {
                    "name": "F#6",
                    "midi": 90,
                    "time": 202.94999999999703,
                    "velocity": 0.5905511811023622,
                    "duration": 0.07499999999998863
                },
                {
                    "name": "E6",
                    "midi": 88,
                    "time": 203.02499999999702,
                    "velocity": 0.5905511811023622,
                    "duration": 0.07499999999998863
                },
                {
                    "name": "D6",
                    "midi": 86,
                    "time": 203.099999999997,
                    "velocity": 0.5905511811023622,
                    "duration": 0.09999999999999432
                },
                {
                    "name": "G6",
                    "midi": 91,
                    "time": 203.399999999997,
                    "velocity": 0.5905511811023622,
                    "duration": 0.09999999999999432
                },
                {
                    "name": "A6",
                    "midi": 93,
                    "time": 203.69999999999698,
                    "velocity": 0.5905511811023622,
                    "duration": 0.05000000000001137
                },
                {
                    "name": "B6",
                    "midi": 95,
                    "time": 203.749999999997,
                    "velocity": 0.5905511811023622,
                    "duration": 0.05000000000001137
                },
                {
                    "name": "A6",
                    "midi": 93,
                    "time": 203.799999999997,
                    "velocity": 0.5905511811023622,
                    "duration": 0.05000000000001137
                },
                {
                    "name": "F#6",
                    "midi": 90,
                    "time": 203.849999999997,
                    "velocity": 0.5905511811023622,
                    "duration": 0.07499999999998863
                },
                {
                    "name": "E6",
                    "midi": 88,
                    "time": 203.924999999997,
                    "velocity": 0.5905511811023622,
                    "duration": 0.07499999999998863
                },
                {
                    "name": "D6",
                    "midi": 86,
                    "time": 203.999999999997,
                    "velocity": 0.5905511811023622,
                    "duration": 0.09999999999999432
                },
                {
                    "name": "A6",
                    "midi": 93,
                    "time": 204.29999999999697,
                    "velocity": 0.5905511811023622,
                    "duration": 0.09999999999999432
                },
                {
                    "name": "A#6",
                    "midi": 94,
                    "time": 204.59999999999695,
                    "velocity": 0.5905511811023622,
                    "duration": 0.30000000000001137
                },
                {
                    "name": "G6",
                    "midi": 91,
                    "time": 204.89999999999696,
                    "velocity": 0.5905511811023622,
                    "duration": 0.09999999999999432
                },
                {
                    "name": "A#6",
                    "midi": 94,
                    "time": 205.19999999999695,
                    "velocity": 0.5905511811023622,
                    "duration": 0.09999999999999432
                },
                {
                    "name": "A#6",
                    "midi": 94,
                    "time": 205.49999999999693,
                    "velocity": 0.5905511811023622,
                    "duration": 0.09999999999999432
                },
                {
                    "name": "A#6",
                    "midi": 94,
                    "time": 205.7999999999969,
                    "velocity": 0.5905511811023622,
                    "duration": 0.09999999999999432
                },
                {
                    "name": "A#6",
                    "midi": 94,
                    "time": 206.0999999999969,
                    "velocity": 0.5905511811023622,
                    "duration": 0.09999999999999432
                },
                {
                    "name": "A#6",
                    "midi": 94,
                    "time": 206.39999999999688,
                    "velocity": 0.5905511811023622,
                    "duration": 0.05000000000001137
                },
                {
                    "name": "C7",
                    "midi": 96,
                    "time": 206.4499999999969,
                    "velocity": 0.5905511811023622,
                    "duration": 0.05000000000001137
                },
                {
                    "name": "A#6",
                    "midi": 94,
                    "time": 206.4999999999969,
                    "velocity": 0.5905511811023622,
                    "duration": 0.05000000000001137
                },
                {
                    "name": "A6",
                    "midi": 93,
                    "time": 206.5499999999969,
                    "velocity": 0.5905511811023622,
                    "duration": 0.07499999999998863
                },
                {
                    "name": "G6",
                    "midi": 91,
                    "time": 206.6249999999969,
                    "velocity": 0.5905511811023622,
                    "duration": 0.07499999999998863
                },
                {
                    "name": "F6",
                    "midi": 89,
                    "time": 206.6999999999969,
                    "velocity": 0.5905511811023622,
                    "duration": 0.09999999999999432
                },
                {
                    "name": "A#6",
                    "midi": 94,
                    "time": 206.99999999999687,
                    "velocity": 0.5905511811023622,
                    "duration": 0.09999999999999432
                },
                {
                    "name": "C7",
                    "midi": 96,
                    "time": 207.29999999999686,
                    "velocity": 0.5905511811023622,
                    "duration": 0.05000000000001137
                },
                {
                    "name": "D7",
                    "midi": 98,
                    "time": 207.34999999999687,
                    "velocity": 0.5905511811023622,
                    "duration": 0.05000000000001137
                },
                {
                    "name": "C7",
                    "midi": 96,
                    "time": 207.39999999999688,
                    "velocity": 0.5905511811023622,
                    "duration": 0.05000000000001137
                },
                {
                    "name": "A6",
                    "midi": 93,
                    "time": 207.4499999999969,
                    "velocity": 0.5905511811023622,
                    "duration": 0.07499999999998863
                },
                {
                    "name": "G6",
                    "midi": 91,
                    "time": 207.52499999999688,
                    "velocity": 0.5905511811023622,
                    "duration": 0.07499999999998863
                },
                {
                    "name": "F6",
                    "midi": 89,
                    "time": 207.59999999999687,
                    "velocity": 0.5905511811023622,
                    "duration": 0.09999999999999432
                },
                {
                    "name": "C7",
                    "midi": 96,
                    "time": 207.89999999999685,
                    "velocity": 0.5905511811023622,
                    "duration": 0.09999999999999432
                },
                {
                    "name": "D7",
                    "midi": 98,
                    "time": 208.19999999999683,
                    "velocity": 0.5905511811023622,
                    "duration": 0.07499999999998863
                },
                {
                    "name": "D#7",
                    "midi": 99,
                    "time": 208.27499999999682,
                    "velocity": 0.5905511811023622,
                    "duration": 0.07499999999998863
                },
                {
                    "name": "D7",
                    "midi": 98,
                    "time": 208.3499999999968,
                    "velocity": 0.5905511811023622,
                    "duration": 0.07499999999998863
                },
                {
                    "name": "D#7",
                    "midi": 99,
                    "time": 208.4249999999968,
                    "velocity": 0.5905511811023622,
                    "duration": 0.07499999999998863
                },
                {
                    "name": "F7",
                    "midi": 101,
                    "time": 208.4999999999968,
                    "velocity": 0.5905511811023622,
                    "duration": 0.09999999999999432
                },
                {
                    "name": "D#7",
                    "midi": 99,
                    "time": 208.79999999999677,
                    "velocity": 0.5905511811023622,
                    "duration": 0.09999999999999432
                },
                {
                    "name": "D7",
                    "midi": 98,
                    "time": 208.94999999999678,
                    "velocity": 0.5905511811023622,
                    "duration": 0.09999999999999432
                },
                {
                    "name": "C7",
                    "midi": 96,
                    "time": 209.09999999999678,
                    "velocity": 0.5905511811023622,
                    "duration": 0.07499999999998863
                },
                {
                    "name": "D7",
                    "midi": 98,
                    "time": 209.17499999999677,
                    "velocity": 0.5905511811023622,
                    "duration": 0.07499999999998863
                },
                {
                    "name": "C7",
                    "midi": 96,
                    "time": 209.24999999999676,
                    "velocity": 0.5905511811023622,
                    "duration": 0.07499999999998863
                },
                {
                    "name": "D7",
                    "midi": 98,
                    "time": 209.32499999999675,
                    "velocity": 0.5905511811023622,
                    "duration": 0.07499999999998863
                },
                {
                    "name": "D#7",
                    "midi": 99,
                    "time": 209.39999999999674,
                    "velocity": 0.5905511811023622,
                    "duration": 0.09999999999999432
                },
                {
                    "name": "D7",
                    "midi": 98,
                    "time": 209.69999999999672,
                    "velocity": 0.5905511811023622,
                    "duration": 0.09999999999999432
                },
                {
                    "name": "C7",
                    "midi": 96,
                    "time": 209.84999999999673,
                    "velocity": 0.5905511811023622,
                    "duration": 0.09999999999999432
                },
                {
                    "name": "A#6",
                    "midi": 94,
                    "time": 209.99999999999673,
                    "velocity": 0.5905511811023622,
                    "duration": 0.07499999999998863
                },
                {
                    "name": "C7",
                    "midi": 96,
                    "time": 210.07499999999672,
                    "velocity": 0.5905511811023622,
                    "duration": 0.07499999999998863
                },
                {
                    "name": "A#6",
                    "midi": 94,
                    "time": 210.1499999999967,
                    "velocity": 0.5905511811023622,
                    "duration": 0.07499999999998863
                },
                {
                    "name": "C7",
                    "midi": 96,
                    "time": 210.2249999999967,
                    "velocity": 0.5905511811023622,
                    "duration": 0.07499999999998863
                },
                {
                    "name": "D7",
                    "midi": 98,
                    "time": 210.2999999999967,
                    "velocity": 0.5905511811023622,
                    "duration": 0.09999999999999432
                },
                {
                    "name": "C7",
                    "midi": 96,
                    "time": 210.59999999999667,
                    "velocity": 0.5905511811023622,
                    "duration": 0.09999999999999432
                },
                {
                    "name": "A#6",
                    "midi": 94,
                    "time": 210.74999999999667,
                    "velocity": 0.5905511811023622,
                    "duration": 0.09999999999999432
                },
                {
                    "name": "A6",
                    "midi": 93,
                    "time": 210.89999999999668,
                    "velocity": 0.5905511811023622,
                    "duration": 0.07499999999998863
                },
                {
                    "name": "A#6",
                    "midi": 94,
                    "time": 210.97499999999667,
                    "velocity": 0.5905511811023622,
                    "duration": 0.07499999999998863
                },
                {
                    "name": "A6",
                    "midi": 93,
                    "time": 211.04999999999666,
                    "velocity": 0.5905511811023622,
                    "duration": 0.07499999999998863
                },
                {
                    "name": "A#6",
                    "midi": 94,
                    "time": 211.12499999999665,
                    "velocity": 0.5905511811023622,
                    "duration": 0.07499999999998863
                },
                {
                    "name": "C7",
                    "midi": 96,
                    "time": 211.19999999999663,
                    "velocity": 0.5905511811023622,
                    "duration": 0.09999999999999432
                },
                {
                    "name": "A#6",
                    "midi": 94,
                    "time": 211.49999999999662,
                    "velocity": 0.5905511811023622,
                    "duration": 0.09999999999999432
                },
                {
                    "name": "A6",
                    "midi": 93,
                    "time": 211.64999999999662,
                    "velocity": 0.5905511811023622,
                    "duration": 0.09999999999999432
                },
                {
                    "name": "A#6",
                    "midi": 94,
                    "time": 211.79999999999663,
                    "velocity": 0.5905511811023622,
                    "duration": 0.5999999999999943
                },
                {
                    "name": "B6",
                    "midi": 95,
                    "time": 212.39999999999662,
                    "velocity": 0.5905511811023622,
                    "duration": 0.30000000000001137
                },
                {
                    "name": "C7",
                    "midi": 96,
                    "time": 212.69999999999663,
                    "velocity": 0.8267716535433071,
                    "duration": 1.1937499999999943
                },
                {
                    "name": "A#6",
                    "midi": 94,
                    "time": 213.89999999999662,
                    "velocity": 0.5905511811023622,
                    "duration": 0.09999999999999432
                },
                {
                    "name": "G#6",
                    "midi": 92,
                    "time": 214.1999999999966,
                    "velocity": 0.5905511811023622,
                    "duration": 0.09999999999999432
                },
                {
                    "name": "G6",
                    "midi": 91,
                    "time": 214.4999999999966,
                    "velocity": 0.5905511811023622,
                    "duration": 0.09999999999999432
                },
                {
                    "name": "G#6",
                    "midi": 92,
                    "time": 214.59999999999658,
                    "velocity": 0.5905511811023622,
                    "duration": 0.09999999999999432
                },
                {
                    "name": "G6",
                    "midi": 91,
                    "time": 214.69999999999658,
                    "velocity": 0.5905511811023622,
                    "duration": 0.09999999999999432
                },
                {
                    "name": "F6",
                    "midi": 89,
                    "time": 214.79999999999657,
                    "velocity": 0.5905511811023622,
                    "duration": 0.09999999999999432
                },
                {
                    "name": "G6",
                    "midi": 91,
                    "time": 215.09999999999656,
                    "velocity": 0.5905511811023622,
                    "duration": 0.09999999999999432
                },
                {
                    "name": "G#6",
                    "midi": 92,
                    "time": 215.39999999999654,
                    "velocity": 0.5905511811023622,
                    "duration": 0.30000000000001137
                },
                {
                    "name": "F7",
                    "midi": 101,
                    "time": 215.69999999999655,
                    "velocity": 0.5905511811023622,
                    "duration": 0.09999999999999432
                },
                {
                    "name": "F6",
                    "midi": 89,
                    "time": 215.99999999999653,
                    "velocity": 0.5905511811023622,
                    "duration": 0.09999999999999432
                },
                {
                    "name": "A#6",
                    "midi": 94,
                    "time": 216.29999999999652,
                    "velocity": 0.8267716535433071,
                    "duration": 1.1937499999999943
                },
                {
                    "name": "G#6",
                    "midi": 92,
                    "time": 217.4999999999965,
                    "velocity": 0.5905511811023622,
                    "duration": 0.09999999999999432
                },
                {
                    "name": "G6",
                    "midi": 91,
                    "time": 217.7999999999965,
                    "velocity": 0.5905511811023622,
                    "duration": 0.09999999999999432
                },
                {
                    "name": "F6",
                    "midi": 89,
                    "time": 218.09999999999647,
                    "velocity": 0.5905511811023622,
                    "duration": 0.09999999999999432
                },
                {
                    "name": "G6",
                    "midi": 91,
                    "time": 218.19999999999646,
                    "velocity": 0.5905511811023622,
                    "duration": 0.09999999999999432
                },
                {
                    "name": "F6",
                    "midi": 89,
                    "time": 218.29999999999646,
                    "velocity": 0.5905511811023622,
                    "duration": 0.09999999999999432
                },
                {
                    "name": "D#6",
                    "midi": 87,
                    "time": 218.39999999999645,
                    "velocity": 0.5905511811023622,
                    "duration": 0.09999999999999432
                },
                {
                    "name": "F6",
                    "midi": 89,
                    "time": 218.69999999999644,
                    "velocity": 0.5905511811023622,
                    "duration": 0.09999999999999432
                },
                {
                    "name": "G6",
                    "midi": 91,
                    "time": 218.99999999999642,
                    "velocity": 0.5905511811023622,
                    "duration": 0.30000000000001137
                },
                {
                    "name": "D#7",
                    "midi": 99,
                    "time": 219.29999999999643,
                    "velocity": 0.5905511811023622,
                    "duration": 0.09999999999999432
                },
                {
                    "name": "D#6",
                    "midi": 87,
                    "time": 219.5999999999964,
                    "velocity": 0.5905511811023622,
                    "duration": 0.09999999999999432
                },
                {
                    "name": "G6",
                    "midi": 91,
                    "time": 219.8999999999964,
                    "velocity": 0.5905511811023622,
                    "duration": 1.1937499999999943
                },
                {
                    "name": "G7",
                    "midi": 103,
                    "time": 221.09999999999638,
                    "velocity": 0.5905511811023622,
                    "duration": 0.09999999999999432
                },
                {
                    "name": "G7",
                    "midi": 103,
                    "time": 221.39999999999637,
                    "velocity": 0.5905511811023622,
                    "duration": 0.09999999999999432
                },
                {
                    "name": "G#7",
                    "midi": 104,
                    "time": 221.69999999999635,
                    "velocity": 0.5905511811023622,
                    "duration": 0.15000000000000568
                },
                {
                    "name": "G7",
                    "midi": 103,
                    "time": 221.84999999999636,
                    "velocity": 0.5905511811023622,
                    "duration": 0.09999999999999432
                },
                {
                    "name": "F7",
                    "midi": 101,
                    "time": 221.99999999999636,
                    "velocity": 0.5905511811023622,
                    "duration": 0.09999999999999432
                },
                {
                    "name": "D#7",
                    "midi": 99,
                    "time": 222.14999999999637,
                    "velocity": 0.5905511811023622,
                    "duration": 0.09999999999999432
                },
                {
                    "name": "D7",
                    "midi": 98,
                    "time": 222.29999999999637,
                    "velocity": 0.5905511811023622,
                    "duration": 0.09999999999999432
                },
                {
                    "name": "C7",
                    "midi": 96,
                    "time": 222.44999999999638,
                    "velocity": 0.5905511811023622,
                    "duration": 0.09999999999999432
                },
                {
                    "name": "B6",
                    "midi": 95,
                    "time": 222.59999999999638,
                    "velocity": 0.5905511811023622,
                    "duration": 0.30000000000001137
                },
                {
                    "name": "G6",
                    "midi": 91,
                    "time": 222.8999999999964,
                    "velocity": 0.5905511811023622,
                    "duration": 0.09999999999999432
                },
                {
                    "name": "G6",
                    "midi": 91,
                    "time": 223.19999999999638,
                    "velocity": 0.5905511811023622,
                    "duration": 0.09999999999999432
                },
                {
                    "name": "G7",
                    "midi": 103,
                    "time": 223.49999999999636,
                    "velocity": 0.5905511811023622,
                    "duration": 1.1937499999999943
                },
                {
                    "name": "G7",
                    "midi": 103,
                    "time": 224.69999999999635,
                    "velocity": 0.5905511811023622,
                    "duration": 0.09999999999999432
                },
                {
                    "name": "G7",
                    "midi": 103,
                    "time": 224.99999999999633,
                    "velocity": 0.5905511811023622,
                    "duration": 0.09999999999999432
                },
                {
                    "name": "G#7",
                    "midi": 104,
                    "time": 225.29999999999632,
                    "velocity": 0.5905511811023622,
                    "duration": 0.15000000000000568
                },
                {
                    "name": "G7",
                    "midi": 103,
                    "time": 225.44999999999632,
                    "velocity": 0.5905511811023622,
                    "duration": 0.09999999999999432
                },
                {
                    "name": "F7",
                    "midi": 101,
                    "time": 225.59999999999633,
                    "velocity": 0.5905511811023622,
                    "duration": 0.09999999999999432
                },
                {
                    "name": "D#7",
                    "midi": 99,
                    "time": 225.74999999999633,
                    "velocity": 0.5905511811023622,
                    "duration": 0.09999999999999432
                },
                {
                    "name": "D7",
                    "midi": 98,
                    "time": 225.89999999999634,
                    "velocity": 0.5905511811023622,
                    "duration": 0.09999999999999432
                },
                {
                    "name": "C7",
                    "midi": 96,
                    "time": 226.04999999999634,
                    "velocity": 0.5905511811023622,
                    "duration": 0.09999999999999432
                },
                {
                    "name": "B6",
                    "midi": 95,
                    "time": 226.19999999999635,
                    "velocity": 0.5905511811023622,
                    "duration": 0.5999999999999943
                },
                {
                    "name": "G6",
                    "midi": 91,
                    "time": 226.79999999999634,
                    "velocity": 0.5905511811023622,
                    "duration": 0.09999999999999432
                },
                {
                    "name": "G7",
                    "midi": 103,
                    "time": 227.09999999999633,
                    "velocity": 0.3543307086614173,
                    "duration": 0.09999999999999432
                },
                {
                    "name": "G7",
                    "midi": 103,
                    "time": 227.3999999999963,
                    "velocity": 0.3543307086614173,
                    "duration": 0.09999999999999432
                },
                {
                    "name": "G7",
                    "midi": 103,
                    "time": 227.6999999999963,
                    "velocity": 0.3543307086614173,
                    "duration": 0.09999999999999432
                },
                {
                    "name": "G6",
                    "midi": 91,
                    "time": 227.99999999999628,
                    "velocity": 0.3543307086614173,
                    "duration": 0.09999999999999432
                },
                {
                    "name": "G6",
                    "midi": 91,
                    "time": 228.29999999999626,
                    "velocity": 0.3543307086614173,
                    "duration": 0.09999999999999432
                },
                {
                    "name": "G6",
                    "midi": 91,
                    "time": 228.59999999999624,
                    "velocity": 0.3543307086614173,
                    "duration": 0.09999999999999432
                },
                {
                    "name": "G5",
                    "midi": 79,
                    "time": 228.89999999999623,
                    "velocity": 0.3543307086614173,
                    "duration": 0.09999999999999432
                },
                {
                    "name": "G5",
                    "midi": 79,
                    "time": 229.1999999999962,
                    "velocity": 0.3543307086614173,
                    "duration": 0.09999999999999432
                },
                {
                    "name": "G5",
                    "midi": 79,
                    "time": 229.4999999999962,
                    "velocity": 0.3543307086614173,
                    "duration": 0.09999999999999432
                },
                {
                    "name": "G6",
                    "midi": 91,
                    "time": 231.29999999999617,
                    "velocity": 0.5905511811023622,
                    "duration": 0.09999999999999432
                },
                {
                    "name": "G7",
                    "midi": 103,
                    "time": 231.59999999999616,
                    "velocity": 0.5905511811023622,
                    "duration": 0.09999999999999432
                },
                {
                    "name": "G7",
                    "midi": 103,
                    "time": 231.89999999999614,
                    "velocity": 0.5905511811023622,
                    "duration": 0.09999999999999432
                },
                {
                    "name": "F7",
                    "midi": 101,
                    "time": 232.19999999999612,
                    "velocity": 0.5905511811023622,
                    "duration": 0.09999999999999432
                },
                {
                    "name": "D#7",
                    "midi": 99,
                    "time": 232.4999999999961,
                    "velocity": 0.5905511811023622,
                    "duration": 0.09999999999999432
                },
                {
                    "name": "D#7",
                    "midi": 99,
                    "time": 232.7999999999961,
                    "velocity": 0.5905511811023622,
                    "duration": 0.09999999999999432
                },
                {
                    "name": "D7",
                    "midi": 98,
                    "time": 233.09999999999607,
                    "velocity": 0.5905511811023622,
                    "duration": 0.09999999999999432
                },
                {
                    "name": "C7",
                    "midi": 96,
                    "time": 233.39999999999606,
                    "velocity": 0.5905511811023622,
                    "duration": 0.09999999999999432
                },
                {
                    "name": "B6",
                    "midi": 95,
                    "time": 233.69999999999604,
                    "velocity": 0.5905511811023622,
                    "duration": 0.09999999999999432
                },
                {
                    "name": "C7",
                    "midi": 96,
                    "time": 233.99999999999602,
                    "velocity": 0.5905511811023622,
                    "duration": 0.09999999999999432
                },
                {
                    "name": "B6",
                    "midi": 95,
                    "time": 234.299999999996,
                    "velocity": 0.5905511811023622,
                    "duration": 0.07499999999998863
                },
                {
                    "name": "C7",
                    "midi": 96,
                    "time": 234.374999999996,
                    "velocity": 0.5905511811023622,
                    "duration": 0.07499999999998863
                },
                {
                    "name": "D7",
                    "midi": 98,
                    "time": 234.44999999999598,
                    "velocity": 0.5905511811023622,
                    "duration": 0.09999999999999432
                },
                {
                    "name": "G6",
                    "midi": 91,
                    "time": 234.599999999996,
                    "velocity": 0.5905511811023622,
                    "duration": 0.09999999999999432
                },
                {
                    "name": "G6",
                    "midi": 91,
                    "time": 234.89999999999597,
                    "velocity": 0.5905511811023622,
                    "duration": 0.09999999999999432
                },
                {
                    "name": "A#6",
                    "midi": 94,
                    "time": 235.19999999999595,
                    "velocity": 0.5905511811023622,
                    "duration": 0.07499999999998863
                },
                {
                    "name": "G#6",
                    "midi": 92,
                    "time": 235.27499999999594,
                    "velocity": 0.5905511811023622,
                    "duration": 0.15000000000000568
                },
                {
                    "name": "G6",
                    "midi": 91,
                    "time": 235.49999999999594,
                    "velocity": 0.5905511811023622,
                    "duration": 0.09999999999999432
                },
                {
                    "name": "F6",
                    "midi": 89,
                    "time": 235.79999999999592,
                    "velocity": 0.5905511811023622,
                    "duration": 0.09999999999999432
                },
                {
                    "name": "D#6",
                    "midi": 87,
                    "time": 236.0999999999959,
                    "velocity": 0.5905511811023622,
                    "duration": 0.09999999999999432
                },
                {
                    "name": "D6",
                    "midi": 86,
                    "time": 236.39999999999588,
                    "velocity": 0.5905511811023622,
                    "duration": 0.09999999999999432
                },
                {
                    "name": "C6",
                    "midi": 84,
                    "time": 236.69999999999587,
                    "velocity": 0.5905511811023622,
                    "duration": 0.09999999999999432
                },
                {
                    "name": "F6",
                    "midi": 89,
                    "time": 236.99999999999585,
                    "velocity": 0.5905511811023622,
                    "duration": 0.07499999999998863
                },
                {
                    "name": "D#6",
                    "midi": 87,
                    "time": 237.07499999999584,
                    "velocity": 0.5905511811023622,
                    "duration": 0.15000000000000568
                },
                {
                    "name": "D6",
                    "midi": 86,
                    "time": 237.29999999999583,
                    "velocity": 0.5905511811023622,
                    "duration": 0.09999999999999432
                },
                {
                    "name": "C6",
                    "midi": 84,
                    "time": 237.59999999999582,
                    "velocity": 0.5905511811023622,
                    "duration": 0.09999999999999432
                },
                {
                    "name": "D6",
                    "midi": 86,
                    "time": 237.8999999999958,
                    "velocity": 0.5905511811023622,
                    "duration": 0.5999999999999943
                },
                {
                    "name": "G6",
                    "midi": 91,
                    "time": 238.4999999999958,
                    "velocity": 0.5905511811023622,
                    "duration": 0.30000000000001137
                },
                {
                    "name": "G7",
                    "midi": 103,
                    "time": 238.7999999999958,
                    "velocity": 0.5905511811023622,
                    "duration": 0.09999999999999432
                },
                {
                    "name": "G7",
                    "midi": 103,
                    "time": 239.0999999999958,
                    "velocity": 0.5905511811023622,
                    "duration": 0.09999999999999432
                },
                {
                    "name": "F7",
                    "midi": 101,
                    "time": 239.39999999999577,
                    "velocity": 0.5905511811023622,
                    "duration": 0.09999999999999432
                },
                {
                    "name": "E7",
                    "midi": 100,
                    "time": 239.69999999999575,
                    "velocity": 0.5905511811023622,
                    "duration": 0.09999999999999432
                },
                {
                    "name": "E7",
                    "midi": 100,
                    "time": 239.99999999999574,
                    "velocity": 0.5905511811023622,
                    "duration": 0.09999999999999432
                },
                {
                    "name": "D7",
                    "midi": 98,
                    "time": 240.29999999999572,
                    "velocity": 0.5905511811023622,
                    "duration": 0.09999999999999432
                },
                {
                    "name": "C7",
                    "midi": 96,
                    "time": 240.5999999999957,
                    "velocity": 0.5905511811023622,
                    "duration": 0.09999999999999432
                },
                {
                    "name": "C7",
                    "midi": 96,
                    "time": 240.89999999999569,
                    "velocity": 0.5905511811023622,
                    "duration": 0.09999999999999432
                },
                {
                    "name": "A#6",
                    "midi": 94,
                    "time": 241.19999999999567,
                    "velocity": 0.5905511811023622,
                    "duration": 0.09999999999999432
                },
                {
                    "name": "A6",
                    "midi": 93,
                    "time": 241.49999999999565,
                    "velocity": 0.5905511811023622,
                    "duration": 0.09999999999999432
                },
                {
                    "name": "G6",
                    "midi": 91,
                    "time": 241.79999999999563,
                    "velocity": 0.5905511811023622,
                    "duration": 0.09999999999999432
                },
                {
                    "name": "F6",
                    "midi": 89,
                    "time": 242.09999999999562,
                    "velocity": 0.5905511811023622,
                    "duration": 0.09999999999999432
                },
                {
                    "name": "A#6",
                    "midi": 94,
                    "time": 242.3999999999956,
                    "velocity": 0.5905511811023622,
                    "duration": 0.07499999999998863
                },
                {
                    "name": "G#6",
                    "midi": 92,
                    "time": 242.4749999999956,
                    "velocity": 0.5905511811023622,
                    "duration": 0.15000000000000568
                },
                {
                    "name": "G6",
                    "midi": 91,
                    "time": 242.69999999999558,
                    "velocity": 0.5905511811023622,
                    "duration": 0.09999999999999432
                },
                {
                    "name": "F6",
                    "midi": 89,
                    "time": 242.99999999999557,
                    "velocity": 0.5905511811023622,
                    "duration": 0.09999999999999432
                },
                {
                    "name": "G6",
                    "midi": 91,
                    "time": 243.29999999999555,
                    "velocity": 0.5905511811023622,
                    "duration": 0.09999999999999432
                },
                {
                    "name": "C7",
                    "midi": 96,
                    "time": 243.59999999999553,
                    "velocity": 0.5905511811023622,
                    "duration": 0.09999999999999432
                },
                {
                    "name": "D#7",
                    "midi": 99,
                    "time": 243.74999999999554,
                    "velocity": 0.5905511811023622,
                    "duration": 0.09999999999999432
                },
                {
                    "name": "G7",
                    "midi": 103,
                    "time": 243.89999999999554,
                    "velocity": 0.5905511811023622,
                    "duration": 0.09999999999999432
                },
                {
                    "name": "G6",
                    "midi": 91,
                    "time": 244.19999999999553,
                    "velocity": 0.5905511811023622,
                    "duration": 0.09999999999999432
                },
                {
                    "name": "B6",
                    "midi": 95,
                    "time": 244.4999999999955,
                    "velocity": 0.5905511811023622,
                    "duration": 0.09999999999999432
                },
                {
                    "name": "D7",
                    "midi": 98,
                    "time": 244.64999999999552,
                    "velocity": 0.5905511811023622,
                    "duration": 0.09999999999999432
                },
                {
                    "name": "G7",
                    "midi": 103,
                    "time": 244.79999999999552,
                    "velocity": 0.5905511811023622,
                    "duration": 0.09999999999999432
                },
                {
                    "name": "C7",
                    "midi": 96,
                    "time": 245.0999999999955,
                    "velocity": 0.5905511811023622,
                    "duration": 0.09999999999999432
                },
                {
                    "name": "C8",
                    "midi": 108,
                    "time": 245.3999999999955,
                    "velocity": 0.5905511811023622,
                    "duration": 0.09999999999999432
                },
                {
                    "name": "G6",
                    "midi": 91,
                    "time": 245.69999999999547,
                    "velocity": 0.7244094488188977,
                    "duration": 0.30000000000001137
                },
                {
                    "name": "G7",
                    "midi": 103,
                    "time": 245.99999999999548,
                    "velocity": 0.7244094488188977,
                    "duration": 0.09999999999999432
                },
                {
                    "name": "G7",
                    "midi": 103,
                    "time": 246.29999999999546,
                    "velocity": 0.7244094488188977,
                    "duration": 0.09999999999999432
                },
                {
                    "name": "F7",
                    "midi": 101,
                    "time": 246.59999999999545,
                    "velocity": 0.7244094488188977,
                    "duration": 0.09999999999999432
                },
                {
                    "name": "D#7",
                    "midi": 99,
                    "time": 246.89999999999543,
                    "velocity": 0.7244094488188977,
                    "duration": 0.09999999999999432
                },
                {
                    "name": "D#7",
                    "midi": 99,
                    "time": 247.1999999999954,
                    "velocity": 0.7244094488188977,
                    "duration": 0.09999999999999432
                },
                {
                    "name": "D7",
                    "midi": 98,
                    "time": 247.4999999999954,
                    "velocity": 0.7244094488188977,
                    "duration": 0.09999999999999432
                },
                {
                    "name": "C7",
                    "midi": 96,
                    "time": 247.79999999999538,
                    "velocity": 0.7244094488188977,
                    "duration": 0.09999999999999432
                },
                {
                    "name": "B6",
                    "midi": 95,
                    "time": 248.09999999999536,
                    "velocity": 0.7244094488188977,
                    "duration": 0.09999999999999432
                },
                {
                    "name": "C7",
                    "midi": 96,
                    "time": 248.39999999999534,
                    "velocity": 0.7244094488188977,
                    "duration": 0.09999999999999432
                },
                {
                    "name": "B6",
                    "midi": 95,
                    "time": 248.69999999999533,
                    "velocity": 0.7244094488188977,
                    "duration": 0.07499999999998863
                },
                {
                    "name": "C7",
                    "midi": 96,
                    "time": 248.77499999999532,
                    "velocity": 0.7244094488188977,
                    "duration": 0.07499999999998863
                },
                {
                    "name": "D7",
                    "midi": 98,
                    "time": 248.8499999999953,
                    "velocity": 0.7244094488188977,
                    "duration": 0.09999999999999432
                },
                {
                    "name": "G6",
                    "midi": 91,
                    "time": 248.9999999999953,
                    "velocity": 0.7244094488188977,
                    "duration": 0.09999999999999432
                },
                {
                    "name": "G6",
                    "midi": 91,
                    "time": 249.2999999999953,
                    "velocity": 0.7244094488188977,
                    "duration": 0.09999999999999432
                },
                {
                    "name": "A#6",
                    "midi": 94,
                    "time": 249.59999999999528,
                    "velocity": 0.7244094488188977,
                    "duration": 0.07499999999998863
                },
                {
                    "name": "G#6",
                    "midi": 92,
                    "time": 249.67499999999526,
                    "velocity": 0.7244094488188977,
                    "duration": 0.15000000000000568
                },
                {
                    "name": "G6",
                    "midi": 91,
                    "time": 249.89999999999526,
                    "velocity": 0.7244094488188977,
                    "duration": 0.09999999999999432
                },
                {
                    "name": "F6",
                    "midi": 89,
                    "time": 250.19999999999524,
                    "velocity": 0.7244094488188977,
                    "duration": 0.09999999999999432
                },
                {
                    "name": "D#6",
                    "midi": 87,
                    "time": 250.49999999999523,
                    "velocity": 0.7244094488188977,
                    "duration": 0.09999999999999432
                },
                {
                    "name": "D6",
                    "midi": 86,
                    "time": 250.7999999999952,
                    "velocity": 0.7244094488188977,
                    "duration": 0.09999999999999432
                },
                {
                    "name": "C6",
                    "midi": 84,
                    "time": 251.0999999999952,
                    "velocity": 0.7244094488188977,
                    "duration": 0.09999999999999432
                },
                {
                    "name": "F6",
                    "midi": 89,
                    "time": 251.39999999999517,
                    "velocity": 0.7244094488188977,
                    "duration": 0.07499999999998863
                },
                {
                    "name": "D#6",
                    "midi": 87,
                    "time": 251.47499999999516,
                    "velocity": 0.7244094488188977,
                    "duration": 0.15000000000000568
                },
                {
                    "name": "D6",
                    "midi": 86,
                    "time": 251.69999999999516,
                    "velocity": 0.7244094488188977,
                    "duration": 0.09999999999999432
                },
                {
                    "name": "C6",
                    "midi": 84,
                    "time": 251.99999999999514,
                    "velocity": 0.7244094488188977,
                    "duration": 0.09999999999999432
                },
                {
                    "name": "D6",
                    "midi": 86,
                    "time": 252.29999999999512,
                    "velocity": 0.7244094488188977,
                    "duration": 0.5999999999999943
                },
                {
                    "name": "G6",
                    "midi": 91,
                    "time": 252.89999999999512,
                    "velocity": 0.7244094488188977,
                    "duration": 0.30000000000001137
                },
                {
                    "name": "G7",
                    "midi": 103,
                    "time": 253.19999999999513,
                    "velocity": 0.7244094488188977,
                    "duration": 0.09999999999999432
                },
                {
                    "name": "G7",
                    "midi": 103,
                    "time": 253.4999999999951,
                    "velocity": 0.7244094488188977,
                    "duration": 0.09999999999999432
                },
                {
                    "name": "F7",
                    "midi": 101,
                    "time": 253.7999999999951,
                    "velocity": 0.7244094488188977,
                    "duration": 0.09999999999999432
                },
                {
                    "name": "E7",
                    "midi": 100,
                    "time": 254.09999999999508,
                    "velocity": 0.7244094488188977,
                    "duration": 0.09999999999999432
                },
                {
                    "name": "E7",
                    "midi": 100,
                    "time": 254.39999999999506,
                    "velocity": 0.7244094488188977,
                    "duration": 0.09999999999999432
                },
                {
                    "name": "D7",
                    "midi": 98,
                    "time": 254.69999999999504,
                    "velocity": 0.7244094488188977,
                    "duration": 0.09999999999999432
                },
                {
                    "name": "C7",
                    "midi": 96,
                    "time": 254.99999999999503,
                    "velocity": 0.7244094488188977,
                    "duration": 0.09999999999999432
                },
                {
                    "name": "B6",
                    "midi": 95,
                    "time": 255.299999999995,
                    "velocity": 0.7244094488188977,
                    "duration": 0.09999999999999432
                },
                {
                    "name": "C7",
                    "midi": 96,
                    "time": 255.599999999995,
                    "velocity": 0.7244094488188977,
                    "duration": 0.09999999999999432
                },
                {
                    "name": "B6",
                    "midi": 95,
                    "time": 255.89999999999498,
                    "velocity": 0.7244094488188977,
                    "duration": 0.07499999999998863
                },
                {
                    "name": "C7",
                    "midi": 96,
                    "time": 255.97499999999496,
                    "velocity": 0.7244094488188977,
                    "duration": 0.07499999999998863
                },
                {
                    "name": "D7",
                    "midi": 98,
                    "time": 256.04999999999495,
                    "velocity": 0.7244094488188977,
                    "duration": 0.10000000000002274
                },
                {
                    "name": "G6",
                    "midi": 91,
                    "time": 256.199999999995,
                    "velocity": 0.7244094488188977,
                    "duration": 0.10000000000002274
                },
                {
                    "name": "G6",
                    "midi": 91,
                    "time": 256.499999999995,
                    "velocity": 0.7244094488188977,
                    "duration": 0.10000000000002274
                },
                {
                    "name": "A#6",
                    "midi": 94,
                    "time": 256.799999999995,
                    "velocity": 0.7244094488188977,
                    "duration": 0.07499999999998863
                },
                {
                    "name": "G#6",
                    "midi": 92,
                    "time": 256.874999999995,
                    "velocity": 0.7244094488188977,
                    "duration": 0.14999999999997726
                },
                {
                    "name": "G6",
                    "midi": 91,
                    "time": 257.09999999999496,
                    "velocity": 0.7244094488188977,
                    "duration": 0.10000000000002274
                },
                {
                    "name": "F6",
                    "midi": 89,
                    "time": 257.399999999995,
                    "velocity": 0.7244094488188977,
                    "duration": 0.10000000000002274
                },
                {
                    "name": "G6",
                    "midi": 91,
                    "time": 257.699999999995,
                    "velocity": 0.7244094488188977,
                    "duration": 0.10000000000002274
                },
                {
                    "name": "C7",
                    "midi": 96,
                    "time": 257.999999999995,
                    "velocity": 0.7244094488188977,
                    "duration": 0.10000000000002274
                },
                {
                    "name": "D#7",
                    "midi": 99,
                    "time": 258.14999999999503,
                    "velocity": 0.7244094488188977,
                    "duration": 0.10000000000002274
                },
                {
                    "name": "G7",
                    "midi": 103,
                    "time": 258.29999999999507,
                    "velocity": 0.7244094488188977,
                    "duration": 0.10000000000002274
                },
                {
                    "name": "G6",
                    "midi": 91,
                    "time": 258.5999999999951,
                    "velocity": 0.7244094488188977,
                    "duration": 0.10000000000002274
                },
                {
                    "name": "B6",
                    "midi": 95,
                    "time": 258.8999999999951,
                    "velocity": 0.7244094488188977,
                    "duration": 0.10000000000002274
                },
                {
                    "name": "D7",
                    "midi": 98,
                    "time": 259.0499999999951,
                    "velocity": 0.7244094488188977,
                    "duration": 0.10000000000002274
                },
                {
                    "name": "G7",
                    "midi": 103,
                    "time": 259.19999999999516,
                    "velocity": 0.7244094488188977,
                    "duration": 0.10000000000002274
                },
                {
                    "name": "C6",
                    "midi": 84,
                    "time": 260.0999999999952,
                    "velocity": 0.7244094488188977,
                    "duration": 0.10000000000002274
                },
                {
                    "name": "C6",
                    "midi": 84,
                    "time": 260.2499999999952,
                    "velocity": 0.7244094488188977,
                    "duration": 0.10000000000002274
                },
                {
                    "name": "C6",
                    "midi": 84,
                    "time": 260.39999999999526,
                    "velocity": 0.7244094488188977,
                    "duration": 0.14999999999997726
                },
                {
                    "name": "D#6",
                    "midi": 87,
                    "time": 260.54999999999524,
                    "velocity": 0.7244094488188977,
                    "duration": 0.14375000000001137
                },
                {
                    "name": "D6",
                    "midi": 86,
                    "time": 260.69999999999527,
                    "velocity": 0.7244094488188977,
                    "duration": 0.14999999999997726
                },
                {
                    "name": "F6",
                    "midi": 89,
                    "time": 260.84999999999525,
                    "velocity": 0.7244094488188977,
                    "duration": 0.14375000000001137
                },
                {
                    "name": "D#6",
                    "midi": 87,
                    "time": 260.9999999999953,
                    "velocity": 0.7244094488188977,
                    "duration": 0.14999999999997726
                },
                {
                    "name": "G6",
                    "midi": 91,
                    "time": 261.14999999999526,
                    "velocity": 0.7244094488188977,
                    "duration": 0.14375000000001137
                },
                {
                    "name": "F6",
                    "midi": 89,
                    "time": 261.2999999999953,
                    "velocity": 0.7244094488188977,
                    "duration": 0.14999999999997726
                },
                {
                    "name": "G#6",
                    "midi": 92,
                    "time": 261.44999999999527,
                    "velocity": 0.7244094488188977,
                    "duration": 0.14375000000001137
                },
                {
                    "name": "G6",
                    "midi": 91,
                    "time": 261.5999999999953,
                    "velocity": 0.7244094488188977,
                    "duration": 0.14999999999997726
                },
                {
                    "name": "A#6",
                    "midi": 94,
                    "time": 261.7499999999953,
                    "velocity": 0.7244094488188977,
                    "duration": 0.14375000000001137
                },
                {
                    "name": "G#6",
                    "midi": 92,
                    "time": 261.8999999999953,
                    "velocity": 0.7244094488188977,
                    "duration": 0.14999999999997726
                },
                {
                    "name": "C7",
                    "midi": 96,
                    "time": 262.0499999999953,
                    "velocity": 0.7244094488188977,
                    "duration": 0.14375000000001137
                },
                {
                    "name": "A#5",
                    "midi": 82,
                    "time": 262.1999999999953,
                    "velocity": 0.7244094488188977,
                    "duration": 0.14999999999997726
                },
                {
                    "name": "D6",
                    "midi": 86,
                    "time": 262.3499999999953,
                    "velocity": 0.7244094488188977,
                    "duration": 0.14375000000001137
                },
                {
                    "name": "C6",
                    "midi": 84,
                    "time": 262.49999999999534,
                    "velocity": 0.7244094488188977,
                    "duration": 0.14999999999997726
                },
                {
                    "name": "D#6",
                    "midi": 87,
                    "time": 262.6499999999953,
                    "velocity": 0.7244094488188977,
                    "duration": 0.14375000000001137
                },
                {
                    "name": "D6",
                    "midi": 86,
                    "time": 262.79999999999535,
                    "velocity": 0.7244094488188977,
                    "duration": 0.14999999999997726
                },
                {
                    "name": "F6",
                    "midi": 89,
                    "time": 262.9499999999953,
                    "velocity": 0.7244094488188977,
                    "duration": 0.14375000000001137
                },
                {
                    "name": "D#6",
                    "midi": 87,
                    "time": 263.09999999999536,
                    "velocity": 0.7244094488188977,
                    "duration": 0.14999999999997726
                },
                {
                    "name": "G6",
                    "midi": 91,
                    "time": 263.24999999999534,
                    "velocity": 0.7244094488188977,
                    "duration": 0.14375000000001137
                },
                {
                    "name": "F6",
                    "midi": 89,
                    "time": 263.3999999999954,
                    "velocity": 0.7244094488188977,
                    "duration": 0.14999999999997726
                },
                {
                    "name": "G#6",
                    "midi": 92,
                    "time": 263.54999999999535,
                    "velocity": 0.7244094488188977,
                    "duration": 0.14375000000001137
                },
                {
                    "name": "G6",
                    "midi": 91,
                    "time": 263.6999999999954,
                    "velocity": 0.7244094488188977,
                    "duration": 0.14999999999997726
                },
                {
                    "name": "A#6",
                    "midi": 94,
                    "time": 263.84999999999536,
                    "velocity": 0.7244094488188977,
                    "duration": 0.14375000000001137
                },
                {
                    "name": "A#6",
                    "midi": 94,
                    "time": 263.9999999999954,
                    "velocity": 1,
                    "duration": 0.14999999999997726
                },
                {
                    "name": "G#6",
                    "midi": 92,
                    "time": 264.1499999999954,
                    "velocity": 0.7244094488188977,
                    "duration": 0.10000000000002274
                },
                {
                    "name": "G6",
                    "midi": 91,
                    "time": 264.2999999999954,
                    "velocity": 0.7244094488188977,
                    "duration": 0.10000000000002274
                },
                {
                    "name": "F6",
                    "midi": 89,
                    "time": 264.44999999999544,
                    "velocity": 0.7244094488188977,
                    "duration": 0.10000000000002274
                },
                {
                    "name": "D#6",
                    "midi": 87,
                    "time": 264.5999999999955,
                    "velocity": 0.7244094488188977,
                    "duration": 0.10000000000002274
                },
                {
                    "name": "D6",
                    "midi": 86,
                    "time": 264.7499999999955,
                    "velocity": 0.7244094488188977,
                    "duration": 0.10000000000002274
                },
                {
                    "name": "G#6",
                    "midi": 92,
                    "time": 264.89999999999554,
                    "velocity": 1,
                    "duration": 0.14999999999997726
                },
                {
                    "name": "G6",
                    "midi": 91,
                    "time": 265.0499999999955,
                    "velocity": 0.7244094488188977,
                    "duration": 0.10000000000002274
                },
                {
                    "name": "F6",
                    "midi": 89,
                    "time": 265.19999999999555,
                    "velocity": 0.7244094488188977,
                    "duration": 0.10000000000002274
                },
                {
                    "name": "D#6",
                    "midi": 87,
                    "time": 265.3499999999956,
                    "velocity": 0.7244094488188977,
                    "duration": 0.10000000000002274
                },
                {
                    "name": "D6",
                    "midi": 86,
                    "time": 265.4999999999956,
                    "velocity": 0.7244094488188977,
                    "duration": 0.10000000000002274
                },
                {
                    "name": "C6",
                    "midi": 84,
                    "time": 265.64999999999566,
                    "velocity": 0.7244094488188977,
                    "duration": 0.10000000000002274
                },
                {
                    "name": "G6",
                    "midi": 91,
                    "time": 265.7999999999957,
                    "velocity": 1,
                    "duration": 0.14999999999997726
                },
                {
                    "name": "F6",
                    "midi": 89,
                    "time": 265.94999999999567,
                    "velocity": 0.7244094488188977,
                    "duration": 0.10000000000002274
                },
                {
                    "name": "D#6",
                    "midi": 87,
                    "time": 266.0999999999957,
                    "velocity": 0.7244094488188977,
                    "duration": 0.10000000000002274
                },
                {
                    "name": "D6",
                    "midi": 86,
                    "time": 266.24999999999574,
                    "velocity": 0.7244094488188977,
                    "duration": 0.10000000000002274
                },
                {
                    "name": "C6",
                    "midi": 84,
                    "time": 266.39999999999577,
                    "velocity": 0.7244094488188977,
                    "duration": 0.10000000000002274
                },
                {
                    "name": "B5",
                    "midi": 83,
                    "time": 266.5499999999958,
                    "velocity": 0.7244094488188977,
                    "duration": 0.10000000000002274
                },
                {
                    "name": "C6",
                    "midi": 84,
                    "time": 266.69999999999584,
                    "velocity": 0.7244094488188977,
                    "duration": 0.6000000000000227
                },
                {
                    "name": "C6",
                    "midi": 84,
                    "time": 267.29999999999586,
                    "velocity": 0.7244094488188977,
                    "duration": 0.10000000000002274
                },
                {
                    "name": "C6",
                    "midi": 84,
                    "time": 267.4499999999959,
                    "velocity": 0.7244094488188977,
                    "duration": 0.10000000000002274
                },
                {
                    "name": "C6",
                    "midi": 84,
                    "time": 267.59999999999593,
                    "velocity": 0.7244094488188977,
                    "duration": 0.14999999999997726
                },
                {
                    "name": "D#6",
                    "midi": 87,
                    "time": 267.7499999999959,
                    "velocity": 0.7244094488188977,
                    "duration": 0.14375000000001137
                },
                {
                    "name": "D6",
                    "midi": 86,
                    "time": 267.89999999999594,
                    "velocity": 0.7244094488188977,
                    "duration": 0.14999999999997726
                },
                {
                    "name": "F6",
                    "midi": 89,
                    "time": 268.0499999999959,
                    "velocity": 0.7244094488188977,
                    "duration": 0.14375000000001137
                },
                {
                    "name": "D#6",
                    "midi": 87,
                    "time": 268.19999999999595,
                    "velocity": 0.7244094488188977,
                    "duration": 0.14999999999997726
                },
                {
                    "name": "G6",
                    "midi": 91,
                    "time": 268.34999999999593,
                    "velocity": 0.7244094488188977,
                    "duration": 0.14375000000001137
                },
                {
                    "name": "F6",
                    "midi": 89,
                    "time": 268.49999999999596,
                    "velocity": 0.7244094488188977,
                    "duration": 0.14999999999997726
                },
                {
                    "name": "G#6",
                    "midi": 92,
                    "time": 268.64999999999594,
                    "velocity": 0.7244094488188977,
                    "duration": 0.14375000000001137
                },
                {
                    "name": "G6",
                    "midi": 91,
                    "time": 268.799999999996,
                    "velocity": 0.7244094488188977,
                    "duration": 0.14999999999997726
                },
                {
                    "name": "A#6",
                    "midi": 94,
                    "time": 268.94999999999595,
                    "velocity": 0.7244094488188977,
                    "duration": 0.14375000000001137
                },
                {
                    "name": "G#6",
                    "midi": 92,
                    "time": 269.099999999996,
                    "velocity": 0.7244094488188977,
                    "duration": 0.14999999999997726
                },
                {
                    "name": "C7",
                    "midi": 96,
                    "time": 269.24999999999596,
                    "velocity": 0.7244094488188977,
                    "duration": 0.14375000000001137
                },
                {
                    "name": "A#5",
                    "midi": 82,
                    "time": 269.399999999996,
                    "velocity": 0.7244094488188977,
                    "duration": 0.14999999999997726
                },
                {
                    "name": "D6",
                    "midi": 86,
                    "time": 269.549999999996,
                    "velocity": 0.7244094488188977,
                    "duration": 0.14375000000001137
                },
                {
                    "name": "C6",
                    "midi": 84,
                    "time": 269.699999999996,
                    "velocity": 0.7244094488188977,
                    "duration": 0.14999999999997726
                },
                {
                    "name": "D#6",
                    "midi": 87,
                    "time": 269.849999999996,
                    "velocity": 0.7244094488188977,
                    "duration": 0.14375000000001137
                },
                {
                    "name": "D6",
                    "midi": 86,
                    "time": 269.999999999996,
                    "velocity": 0.7244094488188977,
                    "duration": 0.14999999999997726
                },
                {
                    "name": "F6",
                    "midi": 89,
                    "time": 270.149999999996,
                    "velocity": 0.7244094488188977,
                    "duration": 0.14375000000001137
                },
                {
                    "name": "D#6",
                    "midi": 87,
                    "time": 270.29999999999603,
                    "velocity": 0.7244094488188977,
                    "duration": 0.14999999999997726
                },
                {
                    "name": "G6",
                    "midi": 91,
                    "time": 270.449999999996,
                    "velocity": 0.7244094488188977,
                    "duration": 0.14375000000001137
                },
                {
                    "name": "F6",
                    "midi": 89,
                    "time": 270.59999999999604,
                    "velocity": 0.7244094488188977,
                    "duration": 0.14999999999997726
                },
                {
                    "name": "G#6",
                    "midi": 92,
                    "time": 270.749999999996,
                    "velocity": 0.7244094488188977,
                    "duration": 0.14375000000001137
                },
                {
                    "name": "G6",
                    "midi": 91,
                    "time": 270.89999999999606,
                    "velocity": 0.7244094488188977,
                    "duration": 0.14999999999997726
                },
                {
                    "name": "A#6",
                    "midi": 94,
                    "time": 271.04999999999603,
                    "velocity": 0.7244094488188977,
                    "duration": 0.14375000000001137
                },
                {
                    "name": "A#6",
                    "midi": 94,
                    "time": 271.19999999999607,
                    "velocity": 1,
                    "duration": 0.14999999999997726
                },
                {
                    "name": "G#6",
                    "midi": 92,
                    "time": 271.34999999999604,
                    "velocity": 0.7244094488188977,
                    "duration": 0.10000000000002274
                },
                {
                    "name": "G6",
                    "midi": 91,
                    "time": 271.4999999999961,
                    "velocity": 0.7244094488188977,
                    "duration": 0.10000000000002274
                },
                {
                    "name": "F6",
                    "midi": 89,
                    "time": 271.6499999999961,
                    "velocity": 0.7244094488188977,
                    "duration": 0.10000000000002274
                },
                {
                    "name": "D#6",
                    "midi": 87,
                    "time": 271.79999999999615,
                    "velocity": 0.7244094488188977,
                    "duration": 0.10000000000002274
                },
                {
                    "name": "D6",
                    "midi": 86,
                    "time": 271.9499999999962,
                    "velocity": 0.7244094488188977,
                    "duration": 0.10000000000002274
                },
                {
                    "name": "G#6",
                    "midi": 92,
                    "time": 272.0999999999962,
                    "velocity": 1,
                    "duration": 0.14999999999997726
                },
                {
                    "name": "G6",
                    "midi": 91,
                    "time": 272.2499999999962,
                    "velocity": 0.7244094488188977,
                    "duration": 0.10000000000002274
                },
                {
                    "name": "F6",
                    "midi": 89,
                    "time": 272.3999999999962,
                    "velocity": 0.7244094488188977,
                    "duration": 0.10000000000002274
                },
                {
                    "name": "D#6",
                    "midi": 87,
                    "time": 272.54999999999626,
                    "velocity": 0.7244094488188977,
                    "duration": 0.10000000000002274
                },
                {
                    "name": "D6",
                    "midi": 86,
                    "time": 272.6999999999963,
                    "velocity": 0.7244094488188977,
                    "duration": 0.10000000000002274
                },
                {
                    "name": "C6",
                    "midi": 84,
                    "time": 272.8499999999963,
                    "velocity": 0.7244094488188977,
                    "duration": 0.10000000000002274
                },
                {
                    "name": "G6",
                    "midi": 91,
                    "time": 272.99999999999636,
                    "velocity": 1,
                    "duration": 0.14999999999997726
                },
                {
                    "name": "F6",
                    "midi": 89,
                    "time": 273.14999999999634,
                    "velocity": 0.7244094488188977,
                    "duration": 0.10000000000002274
                },
                {
                    "name": "D#6",
                    "midi": 87,
                    "time": 273.2999999999964,
                    "velocity": 0.7244094488188977,
                    "duration": 0.10000000000002274
                },
                {
                    "name": "D6",
                    "midi": 86,
                    "time": 273.4499999999964,
                    "velocity": 0.7244094488188977,
                    "duration": 0.10000000000002274
                },
                {
                    "name": "C6",
                    "midi": 84,
                    "time": 273.59999999999644,
                    "velocity": 0.7244094488188977,
                    "duration": 0.10000000000002274
                },
                {
                    "name": "B5",
                    "midi": 83,
                    "time": 273.7499999999965,
                    "velocity": 0.7244094488188977,
                    "duration": 0.10000000000002274
                },
                {
                    "name": "C7",
                    "midi": 96,
                    "time": 273.8999999999965,
                    "velocity": 0.7244094488188977,
                    "duration": 0.6000000000000227
                },
                {
                    "name": "E7",
                    "midi": 100,
                    "time": 274.49999999999653,
                    "velocity": 0.5905511811023622,
                    "duration": 0.10000000000002274
                },
                {
                    "name": "D7",
                    "midi": 98,
                    "time": 274.79999999999654,
                    "velocity": 0.5905511811023622,
                    "duration": 0.14999999999997726
                },
                {
                    "name": "E7",
                    "midi": 100,
                    "time": 274.9499999999965,
                    "velocity": 0.5905511811023622,
                    "duration": 0.14999999999997726
                },
                {
                    "name": "F7",
                    "midi": 101,
                    "time": 275.0999999999965,
                    "velocity": 0.5905511811023622,
                    "duration": 0.10000000000002274
                },
                {
                    "name": "E7",
                    "midi": 100,
                    "time": 275.3999999999965,
                    "velocity": 0.5905511811023622,
                    "duration": 0.10000000000002274
                },
                {
                    "name": "D7",
                    "midi": 98,
                    "time": 275.54999999999654,
                    "velocity": 0.5905511811023622,
                    "duration": 0.10000000000002274
                },
                {
                    "name": "C7",
                    "midi": 96,
                    "time": 275.6999999999966,
                    "velocity": 0.5905511811023622,
                    "duration": 0.14999999999997726
                },
                {
                    "name": "D7",
                    "midi": 98,
                    "time": 275.84999999999656,
                    "velocity": 0.5905511811023622,
                    "duration": 0.14999999999997726
                },
                {
                    "name": "E7",
                    "midi": 100,
                    "time": 275.99999999999653,
                    "velocity": 0.5905511811023622,
                    "duration": 0.10000000000002274
                },
                {
                    "name": "D7",
                    "midi": 98,
                    "time": 276.29999999999654,
                    "velocity": 0.5905511811023622,
                    "duration": 0.10000000000002274
                },
                {
                    "name": "C7",
                    "midi": 96,
                    "time": 276.4499999999966,
                    "velocity": 0.5905511811023622,
                    "duration": 0.10000000000002274
                },
                {
                    "name": "B6",
                    "midi": 95,
                    "time": 276.5999999999966,
                    "velocity": 0.5905511811023622,
                    "duration": 0.14999999999997726
                },
                {
                    "name": "C7",
                    "midi": 96,
                    "time": 276.7499999999966,
                    "velocity": 0.5905511811023622,
                    "duration": 0.14999999999997726
                },
                {
                    "name": "D7",
                    "midi": 98,
                    "time": 276.89999999999657,
                    "velocity": 0.5905511811023622,
                    "duration": 0.10000000000002274
                },
                {
                    "name": "C7",
                    "midi": 96,
                    "time": 277.1999999999966,
                    "velocity": 0.5905511811023622,
                    "duration": 0.10000000000002274
                },
                {
                    "name": "B6",
                    "midi": 95,
                    "time": 277.3499999999966,
                    "velocity": 0.5905511811023622,
                    "duration": 0.10000000000002274
                },
                {
                    "name": "C7",
                    "midi": 96,
                    "time": 277.49999999999665,
                    "velocity": 0.5905511811023622,
                    "duration": 0.30000000000001137
                },
                {
                    "name": "G6",
                    "midi": 91,
                    "time": 277.79999999999666,
                    "velocity": 0.5905511811023622,
                    "duration": 0.10000000000002274
                },
                {
                    "name": "D#7",
                    "midi": 99,
                    "time": 278.09999999999667,
                    "velocity": 0.7244094488188977,
                    "duration": 0.10000000000002274
                },
                {
                    "name": "D7",
                    "midi": 98,
                    "time": 278.3999999999967,
                    "velocity": 0.7244094488188977,
                    "duration": 0.07499999999998863
                },
                {
                    "name": "D#7",
                    "midi": 99,
                    "time": 278.47499999999667,
                    "velocity": 0.7244094488188977,
                    "duration": 0.07499999999998863
                },
                {
                    "name": "D7",
                    "midi": 98,
                    "time": 278.54999999999666,
                    "velocity": 0.7244094488188977,
                    "duration": 0.07499999999998863
                },
                {
                    "name": "D#7",
                    "midi": 99,
                    "time": 278.62499999999665,
                    "velocity": 0.7244094488188977,
                    "duration": 0.07499999999998863
                },
                {
                    "name": "F7",
                    "midi": 101,
                    "time": 278.69999999999663,
                    "velocity": 0.7244094488188977,
                    "duration": 0.10000000000002274
                },
                {
                    "name": "D#7",
                    "midi": 99,
                    "time": 278.99999999999665,
                    "velocity": 0.7244094488188977,
                    "duration": 0.10000000000002274
                },
                {
                    "name": "D7",
                    "midi": 98,
                    "time": 279.1499999999967,
                    "velocity": 0.7244094488188977,
                    "duration": 0.10000000000002274
                },
                {
                    "name": "C7",
                    "midi": 96,
                    "time": 279.2999999999967,
                    "velocity": 0.7244094488188977,
                    "duration": 0.07499999999998863
                },
                {
                    "name": "D7",
                    "midi": 98,
                    "time": 279.3749999999967,
                    "velocity": 0.7244094488188977,
                    "duration": 0.07499999999998863
                },
                {
                    "name": "C7",
                    "midi": 96,
                    "time": 279.4499999999967,
                    "velocity": 0.7244094488188977,
                    "duration": 0.07499999999998863
                },
                {
                    "name": "D7",
                    "midi": 98,
                    "time": 279.5249999999967,
                    "velocity": 0.7244094488188977,
                    "duration": 0.07499999999998863
                },
                {
                    "name": "D#7",
                    "midi": 99,
                    "time": 279.59999999999667,
                    "velocity": 0.7244094488188977,
                    "duration": 0.10000000000002274
                },
                {
                    "name": "G6",
                    "midi": 91,
                    "time": 279.8999999999967,
                    "velocity": 0.8503937007874016,
                    "duration": 0.10000000000002274
                },
                {
                    "name": "G6",
                    "midi": 91,
                    "time": 280.0499999999967,
                    "velocity": 0.8503937007874016,
                    "duration": 0.10000000000002274
                },
                {
                    "name": "G#6",
                    "midi": 92,
                    "time": 280.19999999999675,
                    "velocity": 0.8503937007874016,
                    "duration": 0.14999999999997726
                },
                {
                    "name": "G6",
                    "midi": 91,
                    "time": 280.3499999999967,
                    "velocity": 0.8503937007874016,
                    "duration": 0.14375000000001137
                },
                {
                    "name": "A6",
                    "midi": 93,
                    "time": 280.49999999999676,
                    "velocity": 0.8503937007874016,
                    "duration": 0.14999999999997726
                },
                {
                    "name": "G6",
                    "midi": 91,
                    "time": 280.64999999999674,
                    "velocity": 0.8503937007874016,
                    "duration": 0.14375000000001137
                },
                {
                    "name": "B6",
                    "midi": 95,
                    "time": 280.79999999999677,
                    "velocity": 0.8503937007874016,
                    "duration": 0.14999999999997726
                },
                {
                    "name": "G6",
                    "midi": 91,
                    "time": 280.94999999999675,
                    "velocity": 0.8503937007874016,
                    "duration": 0.14375000000001137
                },
                {
                    "name": "C7",
                    "midi": 96,
                    "time": 281.0999999999968,
                    "velocity": 0.8503937007874016,
                    "duration": 0.14999999999997726
                },
                {
                    "name": "D#7",
                    "midi": 99,
                    "time": 281.24999999999676,
                    "velocity": 0.8503937007874016,
                    "duration": 0.10000000000002274
                },
                {
                    "name": "D7",
                    "midi": 98,
                    "time": 281.3999999999968,
                    "velocity": 0.8503937007874016,
                    "duration": 0.10000000000002274
                },
                {
                    "name": "C7",
                    "midi": 96,
                    "time": 281.5499999999968,
                    "velocity": 0.8503937007874016,
                    "duration": 0.10000000000002274
                },
                {
                    "name": "B6",
                    "midi": 95,
                    "time": 281.69999999999686,
                    "velocity": 0.8503937007874016,
                    "duration": 0.10000000000002274
                },
                {
                    "name": "A6",
                    "midi": 93,
                    "time": 281.8499999999969,
                    "velocity": 0.8503937007874016,
                    "duration": 0.10000000000002274
                },
                {
                    "name": "G6",
                    "midi": 91,
                    "time": 281.99999999999693,
                    "velocity": 0.8503937007874016,
                    "duration": 0.14999999999997726
                },
                {
                    "name": "G#6",
                    "midi": 92,
                    "time": 282.1499999999969,
                    "velocity": 0.8503937007874016,
                    "duration": 0.10000000000002274
                },
                {
                    "name": "A6",
                    "midi": 93,
                    "time": 282.29999999999694,
                    "velocity": 0.8503937007874016,
                    "duration": 0.10000000000002274
                },
                {
                    "name": "A#6",
                    "midi": 94,
                    "time": 282.449999999997,
                    "velocity": 0.8503937007874016,
                    "duration": 0.10000000000002274
                },
                {
                    "name": "B6",
                    "midi": 95,
                    "time": 282.599999999997,
                    "velocity": 0.8503937007874016,
                    "duration": 0.10000000000002274
                },
                {
                    "name": "C7",
                    "midi": 96,
                    "time": 282.899999999997,
                    "velocity": 0.8503937007874016,
                    "duration": 0.14999999999997726
                },
                {
                    "name": "D#7",
                    "midi": 99,
                    "time": 283.049999999997,
                    "velocity": 0.8503937007874016,
                    "duration": 0.14375000000001137
                },
                {
                    "name": "G6",
                    "midi": 91,
                    "time": 283.19999999999703,
                    "velocity": 0.8503937007874016,
                    "duration": 0.14999999999997726
                },
                {
                    "name": "C7",
                    "midi": 96,
                    "time": 283.349999999997,
                    "velocity": 0.8503937007874016,
                    "duration": 0.14375000000001137
                },
                {
                    "name": "D#6",
                    "midi": 87,
                    "time": 283.49999999999704,
                    "velocity": 0.8503937007874016,
                    "duration": 0.14999999999997726
                },
                {
                    "name": "G6",
                    "midi": 91,
                    "time": 283.649999999997,
                    "velocity": 0.8503937007874016,
                    "duration": 0.14375000000001137
                },
                {
                    "name": "C6",
                    "midi": 84,
                    "time": 283.79999999999706,
                    "velocity": 0.8503937007874016,
                    "duration": 0.14999999999997726
                },
                {
                    "name": "D#6",
                    "midi": 87,
                    "time": 283.94999999999703,
                    "velocity": 0.8503937007874016,
                    "duration": 0.14375000000001137
                },
                {
                    "name": "G5",
                    "midi": 79,
                    "time": 284.09999999999707,
                    "velocity": 0.8503937007874016,
                    "duration": 0.14999999999997726
                },
                {
                    "name": "C6",
                    "midi": 84,
                    "time": 284.24999999999704,
                    "velocity": 0.8503937007874016,
                    "duration": 0.14375000000001137
                },
                {
                    "name": "D#5",
                    "midi": 75,
                    "time": 284.3999999999971,
                    "velocity": 0.8503937007874016,
                    "duration": 0.14999999999997726
                },
                {
                    "name": "G5",
                    "midi": 79,
                    "time": 284.54999999999706,
                    "velocity": 0.8503937007874016,
                    "duration": 0.14375000000001137
                },
                {
                    "name": "C6",
                    "midi": 84,
                    "time": 284.6999999999971,
                    "velocity": 0.8503937007874016,
                    "duration": 0.6000000000000227
                },
                {
                    "name": "D#7",
                    "midi": 99,
                    "time": 285.5999999999971,
                    "velocity": 0.8503937007874016,
                    "duration": 0.6000000000000227
                },
                {
                    "name": "C6",
                    "midi": 84,
                    "time": 286.3499999999971,
                    "velocity": 0.8503937007874016,
                    "duration": 0.10000000000002274
                },
                {
                    "name": "C6",
                    "midi": 84,
                    "time": 286.49999999999716,
                    "velocity": 0.8503937007874016,
                    "duration": 0.8999999999999773
                }
            ],
            "controlChanges": {
                "7": [
                    {
                        "number": 7,
                        "time": 0,
                        "value": 0.7637795275590551
                    }
                ],
                "10": [
                    {
                        "number": 10,
                        "time": 0,
                        "value": 0.3937007874015748
                    }
                ],
                "91": [
                    {
                        "number": 91,
                        "time": 0,
                        "value": 0.2755905511811024
                    }
                ]
            },
            "id": 5,
            "name": "arr. G. Pollen",
            "instrumentNumber": 72,
            "instrument": "piccolo",
            "instrumentFamily": "pipe",
            "channelNumber": 1,
            "isPercussion": false
        },
        {
            "startTime": 0,
            "duration": 287.39999999999714,
            "length": 1245,
            "notes": [
                {
                    "name": "G4",
                    "midi": 67,
                    "time": 0,
                    "velocity": 0.5905511811023622,
                    "duration": 0.09999999999999999
                },
                {
                    "name": "G5",
                    "midi": 79,
                    "time": 0.3,
                    "velocity": 0.5905511811023622,
                    "duration": 0.09999999999999998
                },
                {
                    "name": "G5",
                    "midi": 79,
                    "time": 0.6,
                    "velocity": 0.5905511811023622,
                    "duration": 0.09999999999999998
                },
                {
                    "name": "F5",
                    "midi": 77,
                    "time": 0.8999999999999999,
                    "velocity": 0.5905511811023622,
                    "duration": 0.09999999999999998
                },
                {
                    "name": "D#5",
                    "midi": 75,
                    "time": 1.2,
                    "velocity": 0.5905511811023622,
                    "duration": 0.10000000000000009
                },
                {
                    "name": "D#5",
                    "midi": 75,
                    "time": 1.5,
                    "velocity": 0.5905511811023622,
                    "duration": 0.10000000000000009
                },
                {
                    "name": "D5",
                    "midi": 74,
                    "time": 1.8,
                    "velocity": 0.5905511811023622,
                    "duration": 0.10000000000000009
                },
                {
                    "name": "C5",
                    "midi": 72,
                    "time": 2.1,
                    "velocity": 0.5905511811023622,
                    "duration": 0.10000000000000009
                },
                {
                    "name": "B4",
                    "midi": 71,
                    "time": 2.4000000000000004,
                    "velocity": 0.5905511811023622,
                    "duration": 0.10000000000000009
                },
                {
                    "name": "C5",
                    "midi": 72,
                    "time": 2.7000000000000006,
                    "velocity": 0.5905511811023622,
                    "duration": 0.10000000000000009
                },
                {
                    "name": "B4",
                    "midi": 71,
                    "time": 3.000000000000001,
                    "velocity": 0.5905511811023622,
                    "duration": 0.07500000000000018
                },
                {
                    "name": "C5",
                    "midi": 72,
                    "time": 3.075000000000001,
                    "velocity": 0.5905511811023622,
                    "duration": 0.07500000000000018
                },
                {
                    "name": "D5",
                    "midi": 74,
                    "time": 3.1500000000000012,
                    "velocity": 0.5905511811023622,
                    "duration": 0.10000000000000009
                },
                {
                    "name": "G4",
                    "midi": 67,
                    "time": 3.300000000000001,
                    "velocity": 0.5905511811023622,
                    "duration": 0.10000000000000009
                },
                {
                    "name": "G4",
                    "midi": 67,
                    "time": 3.6000000000000014,
                    "velocity": 0.5905511811023622,
                    "duration": 0.10000000000000009
                },
                {
                    "name": "A#4",
                    "midi": 70,
                    "time": 3.9000000000000017,
                    "velocity": 0.5905511811023622,
                    "duration": 0.07500000000000018
                },
                {
                    "name": "G#4",
                    "midi": 68,
                    "time": 3.975000000000002,
                    "velocity": 0.5905511811023622,
                    "duration": 0.1499999999999999
                },
                {
                    "name": "G4",
                    "midi": 67,
                    "time": 4.200000000000002,
                    "velocity": 0.5905511811023622,
                    "duration": 0.09999999999999964
                },
                {
                    "name": "F4",
                    "midi": 65,
                    "time": 4.500000000000002,
                    "velocity": 0.5905511811023622,
                    "duration": 0.09999999999999964
                },
                {
                    "name": "D#5",
                    "midi": 75,
                    "time": 4.800000000000002,
                    "velocity": 0.5905511811023622,
                    "duration": 0.09999999999999964
                },
                {
                    "name": "D5",
                    "midi": 74,
                    "time": 5.100000000000001,
                    "velocity": 0.5905511811023622,
                    "duration": 0.09999999999999964
                },
                {
                    "name": "C5",
                    "midi": 72,
                    "time": 5.400000000000001,
                    "velocity": 0.5905511811023622,
                    "duration": 0.09999999999999964
                },
                {
                    "name": "F5",
                    "midi": 77,
                    "time": 5.700000000000001,
                    "velocity": 0.5905511811023622,
                    "duration": 0.07500000000000018
                },
                {
                    "name": "D#5",
                    "midi": 75,
                    "time": 5.775000000000001,
                    "velocity": 0.5905511811023622,
                    "duration": 0.15000000000000036
                },
                {
                    "name": "D5",
                    "midi": 74,
                    "time": 6.000000000000002,
                    "velocity": 0.5905511811023622,
                    "duration": 0.09999999999999964
                },
                {
                    "name": "C5",
                    "midi": 72,
                    "time": 6.300000000000002,
                    "velocity": 0.5905511811023622,
                    "duration": 0.09999999999999964
                },
                {
                    "name": "D5",
                    "midi": 74,
                    "time": 6.600000000000001,
                    "velocity": 0.5905511811023622,
                    "duration": 0.5999999999999996
                },
                {
                    "name": "G4",
                    "midi": 67,
                    "time": 7.200000000000001,
                    "velocity": 0.5905511811023622,
                    "duration": 0.2999999999999998
                },
                {
                    "name": "G5",
                    "midi": 79,
                    "time": 7.500000000000001,
                    "velocity": 0.5905511811023622,
                    "duration": 0.09999999999999964
                },
                {
                    "name": "G5",
                    "midi": 79,
                    "time": 7.800000000000001,
                    "velocity": 0.5905511811023622,
                    "duration": 0.09999999999999964
                },
                {
                    "name": "F5",
                    "midi": 77,
                    "time": 8.1,
                    "velocity": 0.5905511811023622,
                    "duration": 0.09999999999999964
                },
                {
                    "name": "D#5",
                    "midi": 75,
                    "time": 8.399999999999999,
                    "velocity": 0.5905511811023622,
                    "duration": 0.09999999999999964
                },
                {
                    "name": "D#5",
                    "midi": 75,
                    "time": 8.699999999999998,
                    "velocity": 0.5905511811023622,
                    "duration": 0.09999999999999964
                },
                {
                    "name": "D5",
                    "midi": 74,
                    "time": 8.999999999999996,
                    "velocity": 0.5905511811023622,
                    "duration": 0.09999999999999964
                },
                {
                    "name": "C5",
                    "midi": 72,
                    "time": 9.299999999999995,
                    "velocity": 0.5905511811023622,
                    "duration": 0.09999999999999964
                },
                {
                    "name": "B4",
                    "midi": 71,
                    "time": 9.599999999999994,
                    "velocity": 0.5905511811023622,
                    "duration": 0.09999999999999964
                },
                {
                    "name": "C5",
                    "midi": 72,
                    "time": 9.899999999999993,
                    "velocity": 0.5905511811023622,
                    "duration": 0.09999999999999964
                },
                {
                    "name": "B4",
                    "midi": 71,
                    "time": 10.199999999999992,
                    "velocity": 0.5905511811023622,
                    "duration": 0.07499999999999929
                },
                {
                    "name": "C5",
                    "midi": 72,
                    "time": 10.274999999999991,
                    "velocity": 0.5905511811023622,
                    "duration": 0.07499999999999929
                },
                {
                    "name": "D5",
                    "midi": 74,
                    "time": 10.34999999999999,
                    "velocity": 0.5905511811023622,
                    "duration": 0.09999999999999964
                },
                {
                    "name": "G4",
                    "midi": 67,
                    "time": 10.499999999999991,
                    "velocity": 0.5905511811023622,
                    "duration": 0.09999999999999964
                },
                {
                    "name": "G4",
                    "midi": 67,
                    "time": 10.79999999999999,
                    "velocity": 0.5905511811023622,
                    "duration": 0.09999999999999964
                },
                {
                    "name": "A#4",
                    "midi": 70,
                    "time": 11.099999999999989,
                    "velocity": 0.5905511811023622,
                    "duration": 0.07499999999999929
                },
                {
                    "name": "G#4",
                    "midi": 68,
                    "time": 11.174999999999988,
                    "velocity": 0.5905511811023622,
                    "duration": 0.15000000000000036
                },
                {
                    "name": "G4",
                    "midi": 67,
                    "time": 11.399999999999988,
                    "velocity": 0.5905511811023622,
                    "duration": 0.09999999999999964
                },
                {
                    "name": "F4",
                    "midi": 65,
                    "time": 11.699999999999987,
                    "velocity": 0.5905511811023622,
                    "duration": 0.09999999999999964
                },
                {
                    "name": "G4",
                    "midi": 67,
                    "time": 11.999999999999986,
                    "velocity": 0.5905511811023622,
                    "duration": 0.09999999999999964
                },
                {
                    "name": "C5",
                    "midi": 72,
                    "time": 12.299999999999985,
                    "velocity": 0.5905511811023622,
                    "duration": 0.09999999999999964
                },
                {
                    "name": "D#5",
                    "midi": 75,
                    "time": 12.449999999999985,
                    "velocity": 0.5905511811023622,
                    "duration": 0.09999999999999964
                },
                {
                    "name": "G5",
                    "midi": 79,
                    "time": 12.599999999999985,
                    "velocity": 0.5905511811023622,
                    "duration": 0.09999999999999964
                },
                {
                    "name": "G4",
                    "midi": 67,
                    "time": 12.899999999999984,
                    "velocity": 0.5905511811023622,
                    "duration": 0.09999999999999964
                },
                {
                    "name": "B4",
                    "midi": 71,
                    "time": 13.199999999999983,
                    "velocity": 0.5905511811023622,
                    "duration": 0.09999999999999964
                },
                {
                    "name": "D5",
                    "midi": 74,
                    "time": 13.349999999999984,
                    "velocity": 0.5905511811023622,
                    "duration": 0.09999999999999964
                },
                {
                    "name": "G5",
                    "midi": 79,
                    "time": 13.499999999999984,
                    "velocity": 0.5905511811023622,
                    "duration": 0.09999999999999964
                },
                {
                    "name": "C5",
                    "midi": 72,
                    "time": 13.799999999999983,
                    "velocity": 0.5905511811023622,
                    "duration": 0.09999999999999964
                },
                {
                    "name": "C6",
                    "midi": 84,
                    "time": 14.099999999999982,
                    "velocity": 0.5905511811023622,
                    "duration": 0.09999999999999964
                },
                {
                    "name": "G4",
                    "midi": 67,
                    "time": 14.39999999999998,
                    "velocity": 0.7244094488188977,
                    "duration": 0.3000000000000007
                },
                {
                    "name": "G5",
                    "midi": 79,
                    "time": 14.699999999999982,
                    "velocity": 0.7244094488188977,
                    "duration": 0.09999999999999964
                },
                {
                    "name": "G5",
                    "midi": 79,
                    "time": 14.99999999999998,
                    "velocity": 0.7244094488188977,
                    "duration": 0.09999999999999964
                },
                {
                    "name": "F5",
                    "midi": 77,
                    "time": 15.29999999999998,
                    "velocity": 0.7244094488188977,
                    "duration": 0.09999999999999964
                },
                {
                    "name": "D#5",
                    "midi": 75,
                    "time": 15.599999999999978,
                    "velocity": 0.7244094488188977,
                    "duration": 0.09999999999999964
                },
                {
                    "name": "D#5",
                    "midi": 75,
                    "time": 15.899999999999977,
                    "velocity": 0.7244094488188977,
                    "duration": 0.09999999999999964
                },
                {
                    "name": "D5",
                    "midi": 74,
                    "time": 16.199999999999978,
                    "velocity": 0.7244094488188977,
                    "duration": 0.10000000000000142
                },
                {
                    "name": "C5",
                    "midi": 72,
                    "time": 16.49999999999998,
                    "velocity": 0.7244094488188977,
                    "duration": 0.10000000000000142
                },
                {
                    "name": "B4",
                    "midi": 71,
                    "time": 16.79999999999998,
                    "velocity": 0.7244094488188977,
                    "duration": 0.10000000000000142
                },
                {
                    "name": "C5",
                    "midi": 72,
                    "time": 17.09999999999998,
                    "velocity": 0.7244094488188977,
                    "duration": 0.10000000000000142
                },
                {
                    "name": "B4",
                    "midi": 71,
                    "time": 17.39999999999998,
                    "velocity": 0.7244094488188977,
                    "duration": 0.07499999999999929
                },
                {
                    "name": "C5",
                    "midi": 72,
                    "time": 17.47499999999998,
                    "velocity": 0.7244094488188977,
                    "duration": 0.07499999999999929
                },
                {
                    "name": "D5",
                    "midi": 74,
                    "time": 17.54999999999998,
                    "velocity": 0.7244094488188977,
                    "duration": 0.10000000000000142
                },
                {
                    "name": "G4",
                    "midi": 67,
                    "time": 17.69999999999998,
                    "velocity": 0.7244094488188977,
                    "duration": 0.10000000000000142
                },
                {
                    "name": "G4",
                    "midi": 67,
                    "time": 17.999999999999982,
                    "velocity": 0.7244094488188977,
                    "duration": 0.10000000000000142
                },
                {
                    "name": "A#4",
                    "midi": 70,
                    "time": 18.299999999999983,
                    "velocity": 0.7244094488188977,
                    "duration": 0.07499999999999929
                },
                {
                    "name": "G#4",
                    "midi": 68,
                    "time": 18.374999999999982,
                    "velocity": 0.7244094488188977,
                    "duration": 0.14999999999999858
                },
                {
                    "name": "G4",
                    "midi": 67,
                    "time": 18.59999999999998,
                    "velocity": 0.7244094488188977,
                    "duration": 0.10000000000000142
                },
                {
                    "name": "F4",
                    "midi": 65,
                    "time": 18.89999999999998,
                    "velocity": 0.7244094488188977,
                    "duration": 0.10000000000000142
                },
                {
                    "name": "D#5",
                    "midi": 75,
                    "time": 19.19999999999998,
                    "velocity": 0.7244094488188977,
                    "duration": 0.10000000000000142
                },
                {
                    "name": "D5",
                    "midi": 74,
                    "time": 19.499999999999982,
                    "velocity": 0.7244094488188977,
                    "duration": 0.10000000000000142
                },
                {
                    "name": "C5",
                    "midi": 72,
                    "time": 19.799999999999983,
                    "velocity": 0.7244094488188977,
                    "duration": 0.10000000000000142
                },
                {
                    "name": "F5",
                    "midi": 77,
                    "time": 20.099999999999984,
                    "velocity": 0.7244094488188977,
                    "duration": 0.07499999999999929
                },
                {
                    "name": "D#5",
                    "midi": 75,
                    "time": 20.174999999999983,
                    "velocity": 0.7244094488188977,
                    "duration": 0.14999999999999858
                },
                {
                    "name": "D5",
                    "midi": 74,
                    "time": 20.39999999999998,
                    "velocity": 0.7244094488188977,
                    "duration": 0.10000000000000142
                },
                {
                    "name": "C5",
                    "midi": 72,
                    "time": 20.69999999999998,
                    "velocity": 0.7244094488188977,
                    "duration": 0.10000000000000142
                },
                {
                    "name": "D5",
                    "midi": 74,
                    "time": 20.999999999999982,
                    "velocity": 0.7244094488188977,
                    "duration": 0.6000000000000014
                },
                {
                    "name": "G4",
                    "midi": 67,
                    "time": 21.599999999999984,
                    "velocity": 0.7244094488188977,
                    "duration": 0.3000000000000007
                },
                {
                    "name": "G5",
                    "midi": 79,
                    "time": 21.899999999999984,
                    "velocity": 0.7244094488188977,
                    "duration": 0.10000000000000142
                },
                {
                    "name": "G5",
                    "midi": 79,
                    "time": 22.199999999999985,
                    "velocity": 0.7244094488188977,
                    "duration": 0.10000000000000142
                },
                {
                    "name": "F5",
                    "midi": 77,
                    "time": 22.499999999999986,
                    "velocity": 0.7244094488188977,
                    "duration": 0.10000000000000142
                },
                {
                    "name": "D#5",
                    "midi": 75,
                    "time": 22.799999999999986,
                    "velocity": 0.7244094488188977,
                    "duration": 0.10000000000000142
                },
                {
                    "name": "D#5",
                    "midi": 75,
                    "time": 23.099999999999987,
                    "velocity": 0.7244094488188977,
                    "duration": 0.10000000000000142
                },
                {
                    "name": "D5",
                    "midi": 74,
                    "time": 23.399999999999988,
                    "velocity": 0.7244094488188977,
                    "duration": 0.10000000000000142
                },
                {
                    "name": "C5",
                    "midi": 72,
                    "time": 23.69999999999999,
                    "velocity": 0.7244094488188977,
                    "duration": 0.10000000000000142
                },
                {
                    "name": "B4",
                    "midi": 71,
                    "time": 23.99999999999999,
                    "velocity": 0.7244094488188977,
                    "duration": 0.10000000000000142
                },
                {
                    "name": "C5",
                    "midi": 72,
                    "time": 24.29999999999999,
                    "velocity": 0.7244094488188977,
                    "duration": 0.10000000000000142
                },
                {
                    "name": "B4",
                    "midi": 71,
                    "time": 24.59999999999999,
                    "velocity": 0.7244094488188977,
                    "duration": 0.07499999999999929
                },
                {
                    "name": "C5",
                    "midi": 72,
                    "time": 24.67499999999999,
                    "velocity": 0.7244094488188977,
                    "duration": 0.07499999999999929
                },
                {
                    "name": "D5",
                    "midi": 74,
                    "time": 24.74999999999999,
                    "velocity": 0.7244094488188977,
                    "duration": 0.10000000000000142
                },
                {
                    "name": "G4",
                    "midi": 67,
                    "time": 24.89999999999999,
                    "velocity": 0.7244094488188977,
                    "duration": 0.10000000000000142
                },
                {
                    "name": "G4",
                    "midi": 67,
                    "time": 25.199999999999992,
                    "velocity": 0.7244094488188977,
                    "duration": 0.10000000000000142
                },
                {
                    "name": "A#4",
                    "midi": 70,
                    "time": 25.499999999999993,
                    "velocity": 0.7244094488188977,
                    "duration": 0.07499999999999929
                },
                {
                    "name": "G#4",
                    "midi": 68,
                    "time": 25.574999999999992,
                    "velocity": 0.7244094488188977,
                    "duration": 0.14999999999999858
                },
                {
                    "name": "G4",
                    "midi": 67,
                    "time": 25.79999999999999,
                    "velocity": 0.7244094488188977,
                    "duration": 0.10000000000000142
                },
                {
                    "name": "F4",
                    "midi": 65,
                    "time": 26.09999999999999,
                    "velocity": 0.7244094488188977,
                    "duration": 0.10000000000000142
                },
                {
                    "name": "G4",
                    "midi": 67,
                    "time": 26.39999999999999,
                    "velocity": 0.7244094488188977,
                    "duration": 0.10000000000000142
                },
                {
                    "name": "C5",
                    "midi": 72,
                    "time": 26.699999999999992,
                    "velocity": 0.7244094488188977,
                    "duration": 0.10000000000000142
                },
                {
                    "name": "D#5",
                    "midi": 75,
                    "time": 26.849999999999994,
                    "velocity": 0.7244094488188977,
                    "duration": 0.10000000000000142
                },
                {
                    "name": "G5",
                    "midi": 79,
                    "time": 26.999999999999996,
                    "velocity": 0.7244094488188977,
                    "duration": 0.10000000000000142
                },
                {
                    "name": "G4",
                    "midi": 67,
                    "time": 27.299999999999997,
                    "velocity": 0.7244094488188977,
                    "duration": 0.10000000000000142
                },
                {
                    "name": "B4",
                    "midi": 71,
                    "time": 27.599999999999998,
                    "velocity": 0.7244094488188977,
                    "duration": 0.10000000000000142
                },
                {
                    "name": "D5",
                    "midi": 74,
                    "time": 27.75,
                    "velocity": 0.7244094488188977,
                    "duration": 0.10000000000000142
                },
                {
                    "name": "G5",
                    "midi": 79,
                    "time": 27.900000000000002,
                    "velocity": 0.7244094488188977,
                    "duration": 0.10000000000000142
                },
                {
                    "name": "C5",
                    "midi": 72,
                    "time": 28.200000000000003,
                    "velocity": 0.7244094488188977,
                    "duration": 0.6000000000000014
                },
                {
                    "name": "D#4",
                    "midi": 63,
                    "time": 28.800000000000004,
                    "velocity": 0.5905511811023622,
                    "duration": 0.10000000000000142
                },
                {
                    "name": "D#5",
                    "midi": 75,
                    "time": 28.800000000000004,
                    "velocity": 0.5905511811023622,
                    "duration": 0.10000000000000142
                },
                {
                    "name": "D#4",
                    "midi": 63,
                    "time": 29.100000000000005,
                    "velocity": 0.5905511811023622,
                    "duration": 0.10000000000000142
                },
                {
                    "name": "D5",
                    "midi": 74,
                    "time": 29.100000000000005,
                    "velocity": 0.5905511811023622,
                    "duration": 0.10000000000000142
                },
                {
                    "name": "D#4",
                    "midi": 63,
                    "time": 29.400000000000006,
                    "velocity": 0.5905511811023622,
                    "duration": 0.10000000000000142
                },
                {
                    "name": "C#5",
                    "midi": 73,
                    "time": 29.400000000000006,
                    "velocity": 0.5905511811023622,
                    "duration": 0.10000000000000142
                },
                {
                    "name": "D#4",
                    "midi": 63,
                    "time": 29.700000000000006,
                    "velocity": 0.5905511811023622,
                    "duration": 0.10000000000000142
                },
                {
                    "name": "C5",
                    "midi": 72,
                    "time": 29.700000000000006,
                    "velocity": 0.5905511811023622,
                    "duration": 0.10000000000000142
                },
                {
                    "name": "D#5",
                    "midi": 75,
                    "time": 30.000000000000007,
                    "velocity": 0.5905511811023622,
                    "duration": 0.05000000000000071
                },
                {
                    "name": "F5",
                    "midi": 77,
                    "time": 30.050000000000008,
                    "velocity": 0.5905511811023622,
                    "duration": 0.05000000000000071
                },
                {
                    "name": "D#5",
                    "midi": 75,
                    "time": 30.10000000000001,
                    "velocity": 0.5905511811023622,
                    "duration": 0.05000000000000071
                },
                {
                    "name": "D5",
                    "midi": 74,
                    "time": 30.15000000000001,
                    "velocity": 0.5905511811023622,
                    "duration": 0.07499999999999929
                },
                {
                    "name": "C5",
                    "midi": 72,
                    "time": 30.22500000000001,
                    "velocity": 0.5905511811023622,
                    "duration": 0.07499999999999929
                },
                {
                    "name": "A#4",
                    "midi": 70,
                    "time": 30.300000000000008,
                    "velocity": 0.5905511811023622,
                    "duration": 0.10000000000000142
                },
                {
                    "name": "D#5",
                    "midi": 75,
                    "time": 30.60000000000001,
                    "velocity": 0.5905511811023622,
                    "duration": 0.10000000000000142
                },
                {
                    "name": "F5",
                    "midi": 77,
                    "time": 30.90000000000001,
                    "velocity": 0.5905511811023622,
                    "duration": 0.05000000000000071
                },
                {
                    "name": "G5",
                    "midi": 79,
                    "time": 30.95000000000001,
                    "velocity": 0.5905511811023622,
                    "duration": 0.05000000000000071
                },
                {
                    "name": "F5",
                    "midi": 77,
                    "time": 31.00000000000001,
                    "velocity": 0.5905511811023622,
                    "duration": 0.05000000000000071
                },
                {
                    "name": "D5",
                    "midi": 74,
                    "time": 31.05000000000001,
                    "velocity": 0.5905511811023622,
                    "duration": 0.07499999999999929
                },
                {
                    "name": "C5",
                    "midi": 72,
                    "time": 31.12500000000001,
                    "velocity": 0.5905511811023622,
                    "duration": 0.07499999999999929
                },
                {
                    "name": "A#4",
                    "midi": 70,
                    "time": 31.20000000000001,
                    "velocity": 0.5905511811023622,
                    "duration": 0.10000000000000142
                },
                {
                    "name": "F5",
                    "midi": 77,
                    "time": 31.50000000000001,
                    "velocity": 0.5905511811023622,
                    "duration": 0.10000000000000142
                },
                {
                    "name": "G5",
                    "midi": 79,
                    "time": 31.80000000000001,
                    "velocity": 0.5905511811023622,
                    "duration": 0.29999999999999716
                },
                {
                    "name": "D#5",
                    "midi": 75,
                    "time": 32.10000000000001,
                    "velocity": 0.5905511811023622,
                    "duration": 0.10000000000000142
                },
                {
                    "name": "G4",
                    "midi": 67,
                    "time": 32.40000000000001,
                    "velocity": 0.5905511811023622,
                    "duration": 0.10000000000000142
                },
                {
                    "name": "G5",
                    "midi": 79,
                    "time": 32.40000000000001,
                    "velocity": 0.5905511811023622,
                    "duration": 0.10000000000000142
                },
                {
                    "name": "G4",
                    "midi": 67,
                    "time": 32.70000000000002,
                    "velocity": 0.5905511811023622,
                    "duration": 0.10000000000000142
                },
                {
                    "name": "F#5",
                    "midi": 78,
                    "time": 32.70000000000002,
                    "velocity": 0.5905511811023622,
                    "duration": 0.10000000000000142
                },
                {
                    "name": "G4",
                    "midi": 67,
                    "time": 33.00000000000002,
                    "velocity": 0.5905511811023622,
                    "duration": 0.10000000000000142
                },
                {
                    "name": "F5",
                    "midi": 77,
                    "time": 33.00000000000002,
                    "velocity": 0.5905511811023622,
                    "duration": 0.10000000000000142
                },
                {
                    "name": "G4",
                    "midi": 67,
                    "time": 33.300000000000026,
                    "velocity": 0.5905511811023622,
                    "duration": 0.10000000000000142
                },
                {
                    "name": "D#5",
                    "midi": 75,
                    "time": 33.300000000000026,
                    "velocity": 0.5905511811023622,
                    "duration": 0.10000000000000142
                },
                {
                    "name": "G5",
                    "midi": 79,
                    "time": 33.60000000000003,
                    "velocity": 0.5905511811023622,
                    "duration": 0.04999999999999716
                },
                {
                    "name": "A5",
                    "midi": 81,
                    "time": 33.65000000000003,
                    "velocity": 0.5905511811023622,
                    "duration": 0.04999999999999716
                },
                {
                    "name": "G5",
                    "midi": 79,
                    "time": 33.700000000000024,
                    "velocity": 0.5905511811023622,
                    "duration": 0.04999999999999716
                },
                {
                    "name": "F#5",
                    "midi": 78,
                    "time": 33.75000000000002,
                    "velocity": 0.5905511811023622,
                    "duration": 0.07500000000000284
                },
                {
                    "name": "E5",
                    "midi": 76,
                    "time": 33.825000000000024,
                    "velocity": 0.5905511811023622,
                    "duration": 0.07500000000000284
                },
                {
                    "name": "D5",
                    "midi": 74,
                    "time": 33.90000000000003,
                    "velocity": 0.5905511811023622,
                    "duration": 0.10000000000000142
                },
                {
                    "name": "G5",
                    "midi": 79,
                    "time": 34.20000000000003,
                    "velocity": 0.5905511811023622,
                    "duration": 0.10000000000000142
                },
                {
                    "name": "A5",
                    "midi": 81,
                    "time": 34.500000000000036,
                    "velocity": 0.5905511811023622,
                    "duration": 0.04999999999999716
                },
                {
                    "name": "B5",
                    "midi": 83,
                    "time": 34.55000000000003,
                    "velocity": 0.5905511811023622,
                    "duration": 0.04999999999999716
                },
                {
                    "name": "A5",
                    "midi": 81,
                    "time": 34.60000000000003,
                    "velocity": 0.5905511811023622,
                    "duration": 0.04999999999999716
                },
                {
                    "name": "F#5",
                    "midi": 78,
                    "time": 34.65000000000003,
                    "velocity": 0.5905511811023622,
                    "duration": 0.07500000000000284
                },
                {
                    "name": "E5",
                    "midi": 76,
                    "time": 34.72500000000003,
                    "velocity": 0.5905511811023622,
                    "duration": 0.07500000000000284
                },
                {
                    "name": "D5",
                    "midi": 74,
                    "time": 34.80000000000003,
                    "velocity": 0.5905511811023622,
                    "duration": 0.10000000000000142
                },
                {
                    "name": "A5",
                    "midi": 81,
                    "time": 35.10000000000004,
                    "velocity": 0.5905511811023622,
                    "duration": 0.10000000000000142
                },
                {
                    "name": "A#5",
                    "midi": 82,
                    "time": 35.40000000000004,
                    "velocity": 0.5905511811023622,
                    "duration": 0.29999999999999716
                },
                {
                    "name": "G5",
                    "midi": 79,
                    "time": 35.70000000000004,
                    "velocity": 0.5905511811023622,
                    "duration": 0.10000000000000142
                },
                {
                    "name": "A#4",
                    "midi": 70,
                    "time": 36.00000000000004,
                    "velocity": 0.5905511811023622,
                    "duration": 0.10000000000000142
                },
                {
                    "name": "A#5",
                    "midi": 82,
                    "time": 36.00000000000004,
                    "velocity": 0.5905511811023622,
                    "duration": 0.10000000000000142
                },
                {
                    "name": "A#4",
                    "midi": 70,
                    "time": 36.30000000000005,
                    "velocity": 0.5905511811023622,
                    "duration": 0.10000000000000142
                },
                {
                    "name": "A5",
                    "midi": 81,
                    "time": 36.30000000000005,
                    "velocity": 0.5905511811023622,
                    "duration": 0.10000000000000142
                },
                {
                    "name": "A#4",
                    "midi": 70,
                    "time": 36.60000000000005,
                    "velocity": 0.5905511811023622,
                    "duration": 0.10000000000000142
                },
                {
                    "name": "G#5",
                    "midi": 80,
                    "time": 36.60000000000005,
                    "velocity": 0.5905511811023622,
                    "duration": 0.10000000000000142
                },
                {
                    "name": "A#4",
                    "midi": 70,
                    "time": 36.900000000000055,
                    "velocity": 0.5905511811023622,
                    "duration": 0.10000000000000142
                },
                {
                    "name": "G5",
                    "midi": 79,
                    "time": 36.900000000000055,
                    "velocity": 0.5905511811023622,
                    "duration": 0.10000000000000142
                },
                {
                    "name": "A#5",
                    "midi": 82,
                    "time": 37.20000000000006,
                    "velocity": 0.5905511811023622,
                    "duration": 0.04999999999999716
                },
                {
                    "name": "C6",
                    "midi": 84,
                    "time": 37.25000000000006,
                    "velocity": 0.5905511811023622,
                    "duration": 0.04999999999999716
                },
                {
                    "name": "A#5",
                    "midi": 82,
                    "time": 37.300000000000054,
                    "velocity": 0.5905511811023622,
                    "duration": 0.04999999999999716
                },
                {
                    "name": "A5",
                    "midi": 81,
                    "time": 37.35000000000005,
                    "velocity": 0.5905511811023622,
                    "duration": 0.07500000000000284
                },
                {
                    "name": "G5",
                    "midi": 79,
                    "time": 37.425000000000054,
                    "velocity": 0.5905511811023622,
                    "duration": 0.07500000000000284
                },
                {
                    "name": "F5",
                    "midi": 77,
                    "time": 37.50000000000006,
                    "velocity": 0.5905511811023622,
                    "duration": 0.10000000000000142
                },
                {
                    "name": "A#5",
                    "midi": 82,
                    "time": 37.80000000000006,
                    "velocity": 0.5905511811023622,
                    "duration": 0.10000000000000142
                },
                {
                    "name": "C6",
                    "midi": 84,
                    "time": 38.100000000000065,
                    "velocity": 0.5905511811023622,
                    "duration": 0.04999999999999716
                },
                {
                    "name": "D6",
                    "midi": 86,
                    "time": 38.15000000000006,
                    "velocity": 0.5905511811023622,
                    "duration": 0.04999999999999716
                },
                {
                    "name": "C6",
                    "midi": 84,
                    "time": 38.20000000000006,
                    "velocity": 0.5905511811023622,
                    "duration": 0.04999999999999716
                },
                {
                    "name": "A5",
                    "midi": 81,
                    "time": 38.25000000000006,
                    "velocity": 0.5905511811023622,
                    "duration": 0.07500000000000284
                },
                {
                    "name": "G5",
                    "midi": 79,
                    "time": 38.32500000000006,
                    "velocity": 0.5905511811023622,
                    "duration": 0.07500000000000284
                },
                {
                    "name": "F5",
                    "midi": 77,
                    "time": 38.40000000000006,
                    "velocity": 0.5905511811023622,
                    "duration": 0.10000000000000142
                },
                {
                    "name": "C5",
                    "midi": 72,
                    "time": 38.70000000000007,
                    "velocity": 0.5905511811023622,
                    "duration": 0.10000000000000142
                },
                {
                    "name": "D5",
                    "midi": 74,
                    "time": 39.00000000000007,
                    "velocity": 0.5905511811023622,
                    "duration": 0.07500000000000284
                },
                {
                    "name": "D#5",
                    "midi": 75,
                    "time": 39.075000000000074,
                    "velocity": 0.5905511811023622,
                    "duration": 0.07500000000000284
                },
                {
                    "name": "D5",
                    "midi": 74,
                    "time": 39.15000000000008,
                    "velocity": 0.5905511811023622,
                    "duration": 0.07500000000000284
                },
                {
                    "name": "D#5",
                    "midi": 75,
                    "time": 39.22500000000008,
                    "velocity": 0.5905511811023622,
                    "duration": 0.07500000000000284
                },
                {
                    "name": "F5",
                    "midi": 77,
                    "time": 39.30000000000008,
                    "velocity": 0.5905511811023622,
                    "duration": 0.10000000000000142
                },
                {
                    "name": "D#5",
                    "midi": 75,
                    "time": 39.60000000000009,
                    "velocity": 0.5905511811023622,
                    "duration": 0.10000000000000142
                },
                {
                    "name": "D5",
                    "midi": 74,
                    "time": 39.750000000000085,
                    "velocity": 0.5905511811023622,
                    "duration": 0.10000000000000142
                },
                {
                    "name": "C5",
                    "midi": 72,
                    "time": 39.900000000000084,
                    "velocity": 0.5905511811023622,
                    "duration": 0.07500000000000284
                },
                {
                    "name": "D5",
                    "midi": 74,
                    "time": 39.97500000000009,
                    "velocity": 0.5905511811023622,
                    "duration": 0.07500000000000284
                },
                {
                    "name": "C5",
                    "midi": 72,
                    "time": 40.05000000000009,
                    "velocity": 0.5905511811023622,
                    "duration": 0.07500000000000284
                },
                {
                    "name": "D5",
                    "midi": 74,
                    "time": 40.12500000000009,
                    "velocity": 0.5905511811023622,
                    "duration": 0.07500000000000284
                },
                {
                    "name": "D#5",
                    "midi": 75,
                    "time": 40.200000000000095,
                    "velocity": 0.5905511811023622,
                    "duration": 0.10000000000000142
                },
                {
                    "name": "D5",
                    "midi": 74,
                    "time": 40.5000000000001,
                    "velocity": 0.5905511811023622,
                    "duration": 0.10000000000000142
                },
                {
                    "name": "C5",
                    "midi": 72,
                    "time": 40.6500000000001,
                    "velocity": 0.5905511811023622,
                    "duration": 0.10000000000000142
                },
                {
                    "name": "A#4",
                    "midi": 70,
                    "time": 40.8000000000001,
                    "velocity": 0.5905511811023622,
                    "duration": 0.07500000000000284
                },
                {
                    "name": "C5",
                    "midi": 72,
                    "time": 40.8750000000001,
                    "velocity": 0.5905511811023622,
                    "duration": 0.07500000000000284
                },
                {
                    "name": "A#4",
                    "midi": 70,
                    "time": 40.9500000000001,
                    "velocity": 0.5905511811023622,
                    "duration": 0.07500000000000284
                },
                {
                    "name": "C5",
                    "midi": 72,
                    "time": 41.025000000000105,
                    "velocity": 0.5905511811023622,
                    "duration": 0.07500000000000284
                },
                {
                    "name": "D5",
                    "midi": 74,
                    "time": 41.10000000000011,
                    "velocity": 0.5905511811023622,
                    "duration": 0.10000000000000142
                },
                {
                    "name": "C5",
                    "midi": 72,
                    "time": 41.40000000000011,
                    "velocity": 0.5905511811023622,
                    "duration": 0.10000000000000142
                },
                {
                    "name": "A#4",
                    "midi": 70,
                    "time": 41.55000000000011,
                    "velocity": 0.5905511811023622,
                    "duration": 0.10000000000000142
                },
                {
                    "name": "A4",
                    "midi": 69,
                    "time": 41.70000000000011,
                    "velocity": 0.5905511811023622,
                    "duration": 0.07500000000000284
                },
                {
                    "name": "A#4",
                    "midi": 70,
                    "time": 41.77500000000011,
                    "velocity": 0.5905511811023622,
                    "duration": 0.07500000000000284
                },
                {
                    "name": "A4",
                    "midi": 69,
                    "time": 41.850000000000115,
                    "velocity": 0.5905511811023622,
                    "duration": 0.07500000000000284
                },
                {
                    "name": "A#4",
                    "midi": 70,
                    "time": 41.92500000000012,
                    "velocity": 0.5905511811023622,
                    "duration": 0.07500000000000284
                },
                {
                    "name": "C5",
                    "midi": 72,
                    "time": 42.00000000000012,
                    "velocity": 0.5905511811023622,
                    "duration": 0.10000000000000142
                },
                {
                    "name": "A#4",
                    "midi": 70,
                    "time": 42.300000000000125,
                    "velocity": 0.5905511811023622,
                    "duration": 0.10000000000000142
                },
                {
                    "name": "A4",
                    "midi": 69,
                    "time": 42.450000000000124,
                    "velocity": 0.5905511811023622,
                    "duration": 0.10000000000000142
                },
                {
                    "name": "A#4",
                    "midi": 70,
                    "time": 42.60000000000012,
                    "velocity": 0.5905511811023622,
                    "duration": 0.6000000000000014
                },
                {
                    "name": "B4",
                    "midi": 71,
                    "time": 43.200000000000124,
                    "velocity": 0.5905511811023622,
                    "duration": 0.29999999999999716
                },
                {
                    "name": "C5",
                    "midi": 72,
                    "time": 43.50000000000012,
                    "velocity": 0.8267716535433071,
                    "duration": 1.1937500000000014
                },
                {
                    "name": "A#4",
                    "midi": 70,
                    "time": 44.700000000000124,
                    "velocity": 0.5905511811023622,
                    "duration": 0.10000000000000142
                },
                {
                    "name": "G#4",
                    "midi": 68,
                    "time": 45.00000000000013,
                    "velocity": 0.5905511811023622,
                    "duration": 0.10000000000000142
                },
                {
                    "name": "G4",
                    "midi": 67,
                    "time": 45.30000000000013,
                    "velocity": 0.5905511811023622,
                    "duration": 0.10000000000000142
                },
                {
                    "name": "G#4",
                    "midi": 68,
                    "time": 45.400000000000134,
                    "velocity": 0.5905511811023622,
                    "duration": 0.10000000000000142
                },
                {
                    "name": "G4",
                    "midi": 67,
                    "time": 45.500000000000135,
                    "velocity": 0.5905511811023622,
                    "duration": 0.10000000000000142
                },
                {
                    "name": "F4",
                    "midi": 65,
                    "time": 45.600000000000136,
                    "velocity": 0.5905511811023622,
                    "duration": 0.10000000000000142
                },
                {
                    "name": "G4",
                    "midi": 67,
                    "time": 45.90000000000014,
                    "velocity": 0.5905511811023622,
                    "duration": 0.10000000000000142
                },
                {
                    "name": "G#4",
                    "midi": 68,
                    "time": 46.200000000000145,
                    "velocity": 0.5905511811023622,
                    "duration": 0.29999999999999716
                },
                {
                    "name": "F5",
                    "midi": 77,
                    "time": 46.50000000000014,
                    "velocity": 0.5905511811023622,
                    "duration": 0.10000000000000142
                },
                {
                    "name": "F4",
                    "midi": 65,
                    "time": 46.800000000000146,
                    "velocity": 0.5905511811023622,
                    "duration": 0.10000000000000142
                },
                {
                    "name": "A#4",
                    "midi": 70,
                    "time": 47.10000000000015,
                    "velocity": 0.8267716535433071,
                    "duration": 1.1937500000000014
                },
                {
                    "name": "G#4",
                    "midi": 68,
                    "time": 48.30000000000015,
                    "velocity": 0.5905511811023622,
                    "duration": 0.10000000000000142
                },
                {
                    "name": "G4",
                    "midi": 67,
                    "time": 48.60000000000016,
                    "velocity": 0.5905511811023622,
                    "duration": 0.10000000000000142
                },
                {
                    "name": "F4",
                    "midi": 65,
                    "time": 48.90000000000016,
                    "velocity": 0.5905511811023622,
                    "duration": 0.10000000000000142
                },
                {
                    "name": "G4",
                    "midi": 67,
                    "time": 49.00000000000016,
                    "velocity": 0.5905511811023622,
                    "duration": 0.10000000000000142
                },
                {
                    "name": "F4",
                    "midi": 65,
                    "time": 49.100000000000165,
                    "velocity": 0.5905511811023622,
                    "duration": 0.10000000000000142
                },
                {
                    "name": "D#4",
                    "midi": 63,
                    "time": 49.200000000000166,
                    "velocity": 0.5905511811023622,
                    "duration": 0.10000000000000142
                },
                {
                    "name": "F4",
                    "midi": 65,
                    "time": 49.50000000000017,
                    "velocity": 0.5905511811023622,
                    "duration": 0.10000000000000142
                },
                {
                    "name": "G4",
                    "midi": 67,
                    "time": 49.800000000000175,
                    "velocity": 0.5905511811023622,
                    "duration": 0.29999999999999716
                },
                {
                    "name": "D#5",
                    "midi": 75,
                    "time": 50.10000000000017,
                    "velocity": 0.5905511811023622,
                    "duration": 0.10000000000000142
                },
                {
                    "name": "D#4",
                    "midi": 63,
                    "time": 50.400000000000176,
                    "velocity": 0.5905511811023622,
                    "duration": 0.10000000000000142
                },
                {
                    "name": "G4",
                    "midi": 67,
                    "time": 50.70000000000018,
                    "velocity": 0.5905511811023622,
                    "duration": 1.1937500000000014
                },
                {
                    "name": "G5",
                    "midi": 79,
                    "time": 51.90000000000018,
                    "velocity": 0.5905511811023622,
                    "duration": 0.10000000000000142
                },
                {
                    "name": "G5",
                    "midi": 79,
                    "time": 52.20000000000019,
                    "velocity": 0.5905511811023622,
                    "duration": 0.10000000000000142
                },
                {
                    "name": "G#5",
                    "midi": 80,
                    "time": 52.50000000000019,
                    "velocity": 0.5905511811023622,
                    "duration": 0.14999999999999858
                },
                {
                    "name": "G5",
                    "midi": 79,
                    "time": 52.65000000000019,
                    "velocity": 0.5905511811023622,
                    "duration": 0.10000000000000142
                },
                {
                    "name": "F5",
                    "midi": 77,
                    "time": 52.80000000000019,
                    "velocity": 0.5905511811023622,
                    "duration": 0.10000000000000142
                },
                {
                    "name": "D#5",
                    "midi": 75,
                    "time": 52.95000000000019,
                    "velocity": 0.5905511811023622,
                    "duration": 0.10000000000000142
                },
                {
                    "name": "D5",
                    "midi": 74,
                    "time": 53.100000000000186,
                    "velocity": 0.5905511811023622,
                    "duration": 0.10000000000000142
                },
                {
                    "name": "C5",
                    "midi": 72,
                    "time": 53.250000000000185,
                    "velocity": 0.5905511811023622,
                    "duration": 0.10000000000000142
                },
                {
                    "name": "B4",
                    "midi": 71,
                    "time": 53.40000000000018,
                    "velocity": 0.5905511811023622,
                    "duration": 0.29999999999999716
                },
                {
                    "name": "G4",
                    "midi": 67,
                    "time": 53.70000000000018,
                    "velocity": 0.5905511811023622,
                    "duration": 0.10000000000000142
                },
                {
                    "name": "G4",
                    "midi": 67,
                    "time": 54.000000000000185,
                    "velocity": 0.5905511811023622,
                    "duration": 0.10000000000000142
                },
                {
                    "name": "G5",
                    "midi": 79,
                    "time": 54.30000000000019,
                    "velocity": 0.5905511811023622,
                    "duration": 1.1937500000000014
                },
                {
                    "name": "G5",
                    "midi": 79,
                    "time": 55.50000000000019,
                    "velocity": 0.5905511811023622,
                    "duration": 0.10000000000000142
                },
                {
                    "name": "G5",
                    "midi": 79,
                    "time": 55.800000000000196,
                    "velocity": 0.5905511811023622,
                    "duration": 0.10000000000000142
                },
                {
                    "name": "G#5",
                    "midi": 80,
                    "time": 56.1000000000002,
                    "velocity": 0.5905511811023622,
                    "duration": 0.14999999999999858
                },
                {
                    "name": "G5",
                    "midi": 79,
                    "time": 56.2500000000002,
                    "velocity": 0.5905511811023622,
                    "duration": 0.10000000000000142
                },
                {
                    "name": "F5",
                    "midi": 77,
                    "time": 56.4000000000002,
                    "velocity": 0.5905511811023622,
                    "duration": 0.10000000000000142
                },
                {
                    "name": "D#5",
                    "midi": 75,
                    "time": 56.550000000000196,
                    "velocity": 0.5905511811023622,
                    "duration": 0.10000000000000142
                },
                {
                    "name": "D5",
                    "midi": 74,
                    "time": 56.700000000000195,
                    "velocity": 0.5905511811023622,
                    "duration": 0.10000000000000142
                },
                {
                    "name": "C5",
                    "midi": 72,
                    "time": 56.85000000000019,
                    "velocity": 0.5905511811023622,
                    "duration": 0.10000000000000142
                },
                {
                    "name": "B4",
                    "midi": 71,
                    "time": 57.00000000000019,
                    "velocity": 0.5905511811023622,
                    "duration": 0.6000000000000014
                },
                {
                    "name": "G4",
                    "midi": 67,
                    "time": 57.60000000000019,
                    "velocity": 0.5905511811023622,
                    "duration": 0.10000000000000142
                },
                {
                    "name": "G5",
                    "midi": 79,
                    "time": 57.9000000000002,
                    "velocity": 0.3543307086614173,
                    "duration": 0.10000000000000142
                },
                {
                    "name": "G5",
                    "midi": 79,
                    "time": 58.2000000000002,
                    "velocity": 0.3543307086614173,
                    "duration": 0.10000000000000142
                },
                {
                    "name": "G5",
                    "midi": 79,
                    "time": 58.500000000000206,
                    "velocity": 0.3543307086614173,
                    "duration": 0.10000000000000142
                },
                {
                    "name": "G4",
                    "midi": 67,
                    "time": 58.80000000000021,
                    "velocity": 0.3543307086614173,
                    "duration": 0.10000000000000142
                },
                {
                    "name": "G5",
                    "midi": 79,
                    "time": 58.80000000000021,
                    "velocity": 0.3543307086614173,
                    "duration": 0.10000000000000142
                },
                {
                    "name": "G4",
                    "midi": 67,
                    "time": 59.100000000000215,
                    "velocity": 0.3543307086614173,
                    "duration": 0.10000000000000142
                },
                {
                    "name": "G5",
                    "midi": 79,
                    "time": 59.100000000000215,
                    "velocity": 0.3543307086614173,
                    "duration": 0.10000000000000142
                },
                {
                    "name": "G4",
                    "midi": 67,
                    "time": 59.40000000000022,
                    "velocity": 0.3543307086614173,
                    "duration": 0.10000000000000142
                },
                {
                    "name": "G5",
                    "midi": 79,
                    "time": 59.40000000000022,
                    "velocity": 0.3543307086614173,
                    "duration": 0.10000000000000142
                },
                {
                    "name": "G4",
                    "midi": 67,
                    "time": 59.70000000000022,
                    "velocity": 0.3543307086614173,
                    "duration": 0.10000000000000142
                },
                {
                    "name": "G4",
                    "midi": 67,
                    "time": 60.00000000000023,
                    "velocity": 0.3543307086614173,
                    "duration": 0.10000000000000142
                },
                {
                    "name": "G4",
                    "midi": 67,
                    "time": 60.30000000000023,
                    "velocity": 0.3543307086614173,
                    "duration": 0.10000000000000142
                },
                {
                    "name": "G4",
                    "midi": 67,
                    "time": 62.100000000000236,
                    "velocity": 0.5905511811023622,
                    "duration": 0.10000000000000142
                },
                {
                    "name": "G5",
                    "midi": 79,
                    "time": 62.40000000000024,
                    "velocity": 0.5905511811023622,
                    "duration": 0.10000000000000142
                },
                {
                    "name": "G5",
                    "midi": 79,
                    "time": 62.700000000000244,
                    "velocity": 0.5905511811023622,
                    "duration": 0.10000000000000142
                },
                {
                    "name": "F5",
                    "midi": 77,
                    "time": 63.00000000000025,
                    "velocity": 0.5905511811023622,
                    "duration": 0.10000000000000142
                },
                {
                    "name": "D#5",
                    "midi": 75,
                    "time": 63.30000000000025,
                    "velocity": 0.5905511811023622,
                    "duration": 0.10000000000000142
                },
                {
                    "name": "D#5",
                    "midi": 75,
                    "time": 63.60000000000026,
                    "velocity": 0.5905511811023622,
                    "duration": 0.10000000000000142
                },
                {
                    "name": "D5",
                    "midi": 74,
                    "time": 63.90000000000026,
                    "velocity": 0.5905511811023622,
                    "duration": 0.09999999999999432
                },
                {
                    "name": "C5",
                    "midi": 72,
                    "time": 64.20000000000026,
                    "velocity": 0.5905511811023622,
                    "duration": 0.09999999999999432
                },
                {
                    "name": "B4",
                    "midi": 71,
                    "time": 64.50000000000026,
                    "velocity": 0.5905511811023622,
                    "duration": 0.09999999999999432
                },
                {
                    "name": "C5",
                    "midi": 72,
                    "time": 64.80000000000025,
                    "velocity": 0.5905511811023622,
                    "duration": 0.09999999999999432
                },
                {
                    "name": "B4",
                    "midi": 71,
                    "time": 65.10000000000025,
                    "velocity": 0.5905511811023622,
                    "duration": 0.07500000000000284
                },
                {
                    "name": "C5",
                    "midi": 72,
                    "time": 65.17500000000025,
                    "velocity": 0.5905511811023622,
                    "duration": 0.07500000000000284
                },
                {
                    "name": "D5",
                    "midi": 74,
                    "time": 65.25000000000026,
                    "velocity": 0.5905511811023622,
                    "duration": 0.09999999999999432
                },
                {
                    "name": "G4",
                    "midi": 67,
                    "time": 65.40000000000025,
                    "velocity": 0.5905511811023622,
                    "duration": 0.09999999999999432
                },
                {
                    "name": "G4",
                    "midi": 67,
                    "time": 65.70000000000024,
                    "velocity": 0.5905511811023622,
                    "duration": 0.09999999999999432
                },
                {
                    "name": "A#4",
                    "midi": 70,
                    "time": 66.00000000000024,
                    "velocity": 0.5905511811023622,
                    "duration": 0.07500000000000284
                },
                {
                    "name": "G#4",
                    "midi": 68,
                    "time": 66.07500000000024,
                    "velocity": 0.5905511811023622,
                    "duration": 0.15000000000000568
                },
                {
                    "name": "G4",
                    "midi": 67,
                    "time": 66.30000000000025,
                    "velocity": 0.5905511811023622,
                    "duration": 0.09999999999999432
                },
                {
                    "name": "F4",
                    "midi": 65,
                    "time": 66.60000000000025,
                    "velocity": 0.5905511811023622,
                    "duration": 0.09999999999999432
                },
                {
                    "name": "D#4",
                    "midi": 63,
                    "time": 66.90000000000025,
                    "velocity": 0.5905511811023622,
                    "duration": 0.09999999999999432
                },
                {
                    "name": "D4",
                    "midi": 62,
                    "time": 67.20000000000024,
                    "velocity": 0.5905511811023622,
                    "duration": 0.09999999999999432
                },
                {
                    "name": "C4",
                    "midi": 60,
                    "time": 67.50000000000024,
                    "velocity": 0.5905511811023622,
                    "duration": 0.09999999999999432
                },
                {
                    "name": "F4",
                    "midi": 65,
                    "time": 67.80000000000024,
                    "velocity": 0.5905511811023622,
                    "duration": 0.07500000000000284
                },
                {
                    "name": "D#4",
                    "midi": 63,
                    "time": 67.87500000000024,
                    "velocity": 0.5905511811023622,
                    "duration": 0.15000000000000568
                },
                {
                    "name": "D4",
                    "midi": 62,
                    "time": 68.10000000000025,
                    "velocity": 0.5905511811023622,
                    "duration": 0.09999999999999432
                },
                {
                    "name": "C4",
                    "midi": 60,
                    "time": 68.40000000000025,
                    "velocity": 0.5905511811023622,
                    "duration": 0.09999999999999432
                },
                {
                    "name": "D4",
                    "midi": 62,
                    "time": 68.70000000000024,
                    "velocity": 0.5905511811023622,
                    "duration": 0.5999999999999943
                },
                {
                    "name": "G4",
                    "midi": 67,
                    "time": 69.30000000000024,
                    "velocity": 0.5905511811023622,
                    "duration": 0.29999999999999716
                },
                {
                    "name": "G5",
                    "midi": 79,
                    "time": 69.60000000000024,
                    "velocity": 0.5905511811023622,
                    "duration": 0.09999999999999432
                },
                {
                    "name": "G5",
                    "midi": 79,
                    "time": 69.90000000000023,
                    "velocity": 0.5905511811023622,
                    "duration": 0.09999999999999432
                },
                {
                    "name": "F5",
                    "midi": 77,
                    "time": 70.20000000000023,
                    "velocity": 0.5905511811023622,
                    "duration": 0.09999999999999432
                },
                {
                    "name": "E5",
                    "midi": 76,
                    "time": 70.50000000000023,
                    "velocity": 0.5905511811023622,
                    "duration": 0.09999999999999432
                },
                {
                    "name": "E5",
                    "midi": 76,
                    "time": 70.80000000000022,
                    "velocity": 0.5905511811023622,
                    "duration": 0.09999999999999432
                },
                {
                    "name": "D5",
                    "midi": 74,
                    "time": 71.10000000000022,
                    "velocity": 0.5905511811023622,
                    "duration": 0.09999999999999432
                },
                {
                    "name": "C5",
                    "midi": 72,
                    "time": 71.40000000000022,
                    "velocity": 0.5905511811023622,
                    "duration": 0.09999999999999432
                },
                {
                    "name": "C5",
                    "midi": 72,
                    "time": 71.70000000000022,
                    "velocity": 0.5905511811023622,
                    "duration": 0.09999999999999432
                },
                {
                    "name": "A#4",
                    "midi": 70,
                    "time": 72.00000000000021,
                    "velocity": 0.5905511811023622,
                    "duration": 0.09999999999999432
                },
                {
                    "name": "A4",
                    "midi": 69,
                    "time": 72.30000000000021,
                    "velocity": 0.5905511811023622,
                    "duration": 0.09999999999999432
                },
                {
                    "name": "G4",
                    "midi": 67,
                    "time": 72.60000000000021,
                    "velocity": 0.5905511811023622,
                    "duration": 0.09999999999999432
                },
                {
                    "name": "F4",
                    "midi": 65,
                    "time": 72.9000000000002,
                    "velocity": 0.5905511811023622,
                    "duration": 0.09999999999999432
                },
                {
                    "name": "A#4",
                    "midi": 70,
                    "time": 73.2000000000002,
                    "velocity": 0.5905511811023622,
                    "duration": 0.07500000000000284
                },
                {
                    "name": "G#4",
                    "midi": 68,
                    "time": 73.2750000000002,
                    "velocity": 0.5905511811023622,
                    "duration": 0.15000000000000568
                },
                {
                    "name": "G4",
                    "midi": 67,
                    "time": 73.50000000000021,
                    "velocity": 0.5905511811023622,
                    "duration": 0.09999999999999432
                },
                {
                    "name": "F4",
                    "midi": 65,
                    "time": 73.80000000000021,
                    "velocity": 0.5905511811023622,
                    "duration": 0.09999999999999432
                },
                {
                    "name": "G4",
                    "midi": 67,
                    "time": 74.10000000000021,
                    "velocity": 0.5905511811023622,
                    "duration": 0.09999999999999432
                },
                {
                    "name": "C5",
                    "midi": 72,
                    "time": 74.4000000000002,
                    "velocity": 0.5905511811023622,
                    "duration": 0.09999999999999432
                },
                {
                    "name": "D#5",
                    "midi": 75,
                    "time": 74.5500000000002,
                    "velocity": 0.5905511811023622,
                    "duration": 0.09999999999999432
                },
                {
                    "name": "G5",
                    "midi": 79,
                    "time": 74.70000000000019,
                    "velocity": 0.5905511811023622,
                    "duration": 0.09999999999999432
                },
                {
                    "name": "G4",
                    "midi": 67,
                    "time": 75.00000000000018,
                    "velocity": 0.5905511811023622,
                    "duration": 0.09999999999999432
                },
                {
                    "name": "B4",
                    "midi": 71,
                    "time": 75.30000000000018,
                    "velocity": 0.5905511811023622,
                    "duration": 0.09999999999999432
                },
                {
                    "name": "D5",
                    "midi": 74,
                    "time": 75.45000000000017,
                    "velocity": 0.5905511811023622,
                    "duration": 0.09999999999999432
                },
                {
                    "name": "G5",
                    "midi": 79,
                    "time": 75.60000000000016,
                    "velocity": 0.5905511811023622,
                    "duration": 0.09999999999999432
                },
                {
                    "name": "C5",
                    "midi": 72,
                    "time": 75.90000000000016,
                    "velocity": 0.5905511811023622,
                    "duration": 0.09999999999999432
                },
                {
                    "name": "C6",
                    "midi": 84,
                    "time": 76.20000000000016,
                    "velocity": 0.5905511811023622,
                    "duration": 0.09999999999999432
                },
                {
                    "name": "G4",
                    "midi": 67,
                    "time": 76.50000000000016,
                    "velocity": 0.7244094488188977,
                    "duration": 0.29999999999999716
                },
                {
                    "name": "G5",
                    "midi": 79,
                    "time": 76.80000000000015,
                    "velocity": 0.7244094488188977,
                    "duration": 0.09999999999999432
                },
                {
                    "name": "G5",
                    "midi": 79,
                    "time": 77.10000000000015,
                    "velocity": 0.7244094488188977,
                    "duration": 0.09999999999999432
                },
                {
                    "name": "F5",
                    "midi": 77,
                    "time": 77.40000000000015,
                    "velocity": 0.7244094488188977,
                    "duration": 0.09999999999999432
                },
                {
                    "name": "D#5",
                    "midi": 75,
                    "time": 77.70000000000014,
                    "velocity": 0.7244094488188977,
                    "duration": 0.09999999999999432
                },
                {
                    "name": "D#5",
                    "midi": 75,
                    "time": 78.00000000000014,
                    "velocity": 0.7244094488188977,
                    "duration": 0.09999999999999432
                },
                {
                    "name": "D5",
                    "midi": 74,
                    "time": 78.30000000000014,
                    "velocity": 0.7244094488188977,
                    "duration": 0.09999999999999432
                },
                {
                    "name": "C5",
                    "midi": 72,
                    "time": 78.60000000000014,
                    "velocity": 0.7244094488188977,
                    "duration": 0.09999999999999432
                },
                {
                    "name": "B4",
                    "midi": 71,
                    "time": 78.90000000000013,
                    "velocity": 0.7244094488188977,
                    "duration": 0.09999999999999432
                },
                {
                    "name": "C5",
                    "midi": 72,
                    "time": 79.20000000000013,
                    "velocity": 0.7244094488188977,
                    "duration": 0.09999999999999432
                },
                {
                    "name": "B4",
                    "midi": 71,
                    "time": 79.50000000000013,
                    "velocity": 0.7244094488188977,
                    "duration": 0.07500000000000284
                },
                {
                    "name": "C5",
                    "midi": 72,
                    "time": 79.57500000000013,
                    "velocity": 0.7244094488188977,
                    "duration": 0.07500000000000284
                },
                {
                    "name": "D5",
                    "midi": 74,
                    "time": 79.65000000000013,
                    "velocity": 0.7244094488188977,
                    "duration": 0.09999999999999432
                },
                {
                    "name": "G4",
                    "midi": 67,
                    "time": 79.80000000000013,
                    "velocity": 0.7244094488188977,
                    "duration": 0.09999999999999432
                },
                {
                    "name": "G4",
                    "midi": 67,
                    "time": 80.10000000000012,
                    "velocity": 0.7244094488188977,
                    "duration": 0.09999999999999432
                },
                {
                    "name": "A#4",
                    "midi": 70,
                    "time": 80.40000000000012,
                    "velocity": 0.7244094488188977,
                    "duration": 0.07500000000000284
                },
                {
                    "name": "G#4",
                    "midi": 68,
                    "time": 80.47500000000012,
                    "velocity": 0.7244094488188977,
                    "duration": 0.15000000000000568
                },
                {
                    "name": "G4",
                    "midi": 67,
                    "time": 80.70000000000013,
                    "velocity": 0.7244094488188977,
                    "duration": 0.09999999999999432
                },
                {
                    "name": "F4",
                    "midi": 65,
                    "time": 81.00000000000013,
                    "velocity": 0.7244094488188977,
                    "duration": 0.09999999999999432
                },
                {
                    "name": "D#5",
                    "midi": 75,
                    "time": 81.30000000000013,
                    "velocity": 0.7244094488188977,
                    "duration": 0.09999999999999432
                },
                {
                    "name": "D5",
                    "midi": 74,
                    "time": 81.60000000000012,
                    "velocity": 0.7244094488188977,
                    "duration": 0.09999999999999432
                },
                {
                    "name": "C5",
                    "midi": 72,
                    "time": 81.90000000000012,
                    "velocity": 0.7244094488188977,
                    "duration": 0.09999999999999432
                },
                {
                    "name": "F5",
                    "midi": 77,
                    "time": 82.20000000000012,
                    "velocity": 0.7244094488188977,
                    "duration": 0.07500000000000284
                },
                {
                    "name": "D#5",
                    "midi": 75,
                    "time": 82.27500000000012,
                    "velocity": 0.7244094488188977,
                    "duration": 0.15000000000000568
                },
                {
                    "name": "D5",
                    "midi": 74,
                    "time": 82.50000000000013,
                    "velocity": 0.7244094488188977,
                    "duration": 0.09999999999999432
                },
                {
                    "name": "C5",
                    "midi": 72,
                    "time": 82.80000000000013,
                    "velocity": 0.7244094488188977,
                    "duration": 0.09999999999999432
                },
                {
                    "name": "D5",
                    "midi": 74,
                    "time": 83.10000000000012,
                    "velocity": 0.7244094488188977,
                    "duration": 0.5999999999999943
                },
                {
                    "name": "G4",
                    "midi": 67,
                    "time": 83.70000000000012,
                    "velocity": 0.7244094488188977,
                    "duration": 0.29999999999999716
                },
                {
                    "name": "G5",
                    "midi": 79,
                    "time": 84.00000000000011,
                    "velocity": 0.7244094488188977,
                    "duration": 0.09999999999999432
                },
                {
                    "name": "G5",
                    "midi": 79,
                    "time": 84.30000000000011,
                    "velocity": 0.7244094488188977,
                    "duration": 0.09999999999999432
                },
                {
                    "name": "F5",
                    "midi": 77,
                    "time": 84.60000000000011,
                    "velocity": 0.7244094488188977,
                    "duration": 0.09999999999999432
                },
                {
                    "name": "E5",
                    "midi": 76,
                    "time": 84.9000000000001,
                    "velocity": 0.7244094488188977,
                    "duration": 0.09999999999999432
                },
                {
                    "name": "E5",
                    "midi": 76,
                    "time": 85.2000000000001,
                    "velocity": 0.7244094488188977,
                    "duration": 0.09999999999999432
                },
                {
                    "name": "D5",
                    "midi": 74,
                    "time": 85.5000000000001,
                    "velocity": 0.7244094488188977,
                    "duration": 0.09999999999999432
                },
                {
                    "name": "C5",
                    "midi": 72,
                    "time": 85.8000000000001,
                    "velocity": 0.7244094488188977,
                    "duration": 0.09999999999999432
                },
                {
                    "name": "B4",
                    "midi": 71,
                    "time": 86.1000000000001,
                    "velocity": 0.7244094488188977,
                    "duration": 0.09999999999999432
                },
                {
                    "name": "C5",
                    "midi": 72,
                    "time": 86.40000000000009,
                    "velocity": 0.7244094488188977,
                    "duration": 0.09999999999999432
                },
                {
                    "name": "B4",
                    "midi": 71,
                    "time": 86.70000000000009,
                    "velocity": 0.7244094488188977,
                    "duration": 0.07500000000000284
                },
                {
                    "name": "C5",
                    "midi": 72,
                    "time": 86.77500000000009,
                    "velocity": 0.7244094488188977,
                    "duration": 0.07500000000000284
                },
                {
                    "name": "D5",
                    "midi": 74,
                    "time": 86.8500000000001,
                    "velocity": 0.7244094488188977,
                    "duration": 0.09999999999999432
                },
                {
                    "name": "G4",
                    "midi": 67,
                    "time": 87.00000000000009,
                    "velocity": 0.7244094488188977,
                    "duration": 0.09999999999999432
                },
                {
                    "name": "G4",
                    "midi": 67,
                    "time": 87.30000000000008,
                    "velocity": 0.7244094488188977,
                    "duration": 0.09999999999999432
                },
                {
                    "name": "A#4",
                    "midi": 70,
                    "time": 87.60000000000008,
                    "velocity": 0.7244094488188977,
                    "duration": 0.07500000000000284
                },
                {
                    "name": "G#4",
                    "midi": 68,
                    "time": 87.67500000000008,
                    "velocity": 0.7244094488188977,
                    "duration": 0.15000000000000568
                },
                {
                    "name": "G4",
                    "midi": 67,
                    "time": 87.90000000000009,
                    "velocity": 0.7244094488188977,
                    "duration": 0.09999999999999432
                },
                {
                    "name": "F4",
                    "midi": 65,
                    "time": 88.20000000000009,
                    "velocity": 0.7244094488188977,
                    "duration": 0.09999999999999432
                },
                {
                    "name": "G4",
                    "midi": 67,
                    "time": 88.50000000000009,
                    "velocity": 0.7244094488188977,
                    "duration": 0.09999999999999432
                },
                {
                    "name": "C5",
                    "midi": 72,
                    "time": 88.80000000000008,
                    "velocity": 0.7244094488188977,
                    "duration": 0.09999999999999432
                },
                {
                    "name": "D#5",
                    "midi": 75,
                    "time": 88.95000000000007,
                    "velocity": 0.7244094488188977,
                    "duration": 0.09999999999999432
                },
                {
                    "name": "G5",
                    "midi": 79,
                    "time": 89.10000000000007,
                    "velocity": 0.7244094488188977,
                    "duration": 0.09999999999999432
                },
                {
                    "name": "G4",
                    "midi": 67,
                    "time": 89.40000000000006,
                    "velocity": 0.7244094488188977,
                    "duration": 0.09999999999999432
                },
                {
                    "name": "B4",
                    "midi": 71,
                    "time": 89.70000000000006,
                    "velocity": 0.7244094488188977,
                    "duration": 0.09999999999999432
                },
                {
                    "name": "D5",
                    "midi": 74,
                    "time": 89.85000000000005,
                    "velocity": 0.7244094488188977,
                    "duration": 0.09999999999999432
                },
                {
                    "name": "G5",
                    "midi": 79,
                    "time": 90.00000000000004,
                    "velocity": 0.7244094488188977,
                    "duration": 0.09999999999999432
                },
                {
                    "name": "C5",
                    "midi": 72,
                    "time": 90.30000000000004,
                    "velocity": 0.5905511811023622,
                    "duration": 0.9000000000000057
                },
                {
                    "name": "C5",
                    "midi": 72,
                    "time": 91.20000000000005,
                    "velocity": 0.3543307086614173,
                    "duration": 0.5
                },
                {
                    "name": "C5",
                    "midi": 72,
                    "time": 120.90000000000003,
                    "velocity": 0.5905511811023622,
                    "duration": 0.09999999999999432
                },
                {
                    "name": "D#5",
                    "midi": 75,
                    "time": 120.90000000000003,
                    "velocity": 0.5905511811023622,
                    "duration": 0.09999999999999432
                },
                {
                    "name": "C5",
                    "midi": 72,
                    "time": 121.20000000000003,
                    "velocity": 0.5905511811023622,
                    "duration": 0.09999999999999432
                },
                {
                    "name": "D#5",
                    "midi": 75,
                    "time": 121.20000000000003,
                    "velocity": 0.5905511811023622,
                    "duration": 0.09999999999999432
                },
                {
                    "name": "C5",
                    "midi": 72,
                    "time": 121.35000000000002,
                    "velocity": 0.5905511811023622,
                    "duration": 0.09999999999999432
                },
                {
                    "name": "D#5",
                    "midi": 75,
                    "time": 121.35000000000002,
                    "velocity": 0.5905511811023622,
                    "duration": 0.09999999999999432
                },
                {
                    "name": "C5",
                    "midi": 72,
                    "time": 121.50000000000001,
                    "velocity": 0.5905511811023622,
                    "duration": 0.09999999999999432
                },
                {
                    "name": "D#5",
                    "midi": 75,
                    "time": 121.50000000000001,
                    "velocity": 0.5905511811023622,
                    "duration": 0.09999999999999432
                },
                {
                    "name": "C5",
                    "midi": 72,
                    "time": 121.80000000000001,
                    "velocity": 0.5905511811023622,
                    "duration": 0.09999999999999432
                },
                {
                    "name": "F5",
                    "midi": 77,
                    "time": 121.80000000000001,
                    "velocity": 0.5905511811023622,
                    "duration": 0.09999999999999432
                },
                {
                    "name": "C5",
                    "midi": 72,
                    "time": 122.10000000000001,
                    "velocity": 0.5905511811023622,
                    "duration": 0.09999999999999432
                },
                {
                    "name": "F5",
                    "midi": 77,
                    "time": 122.10000000000001,
                    "velocity": 0.5905511811023622,
                    "duration": 0.09999999999999432
                },
                {
                    "name": "C5",
                    "midi": 72,
                    "time": 122.4,
                    "velocity": 0.5905511811023622,
                    "duration": 0.09999999999999432
                },
                {
                    "name": "D#5",
                    "midi": 75,
                    "time": 122.4,
                    "velocity": 0.5905511811023622,
                    "duration": 0.09999999999999432
                },
                {
                    "name": "C5",
                    "midi": 72,
                    "time": 122.7,
                    "velocity": 0.5905511811023622,
                    "duration": 0.09999999999999432
                },
                {
                    "name": "D#5",
                    "midi": 75,
                    "time": 122.7,
                    "velocity": 0.5905511811023622,
                    "duration": 0.09999999999999432
                },
                {
                    "name": "C5",
                    "midi": 72,
                    "time": 123,
                    "velocity": 0.5905511811023622,
                    "duration": 0.09999999999999432
                },
                {
                    "name": "D#5",
                    "midi": 75,
                    "time": 123,
                    "velocity": 0.5905511811023622,
                    "duration": 0.09999999999999432
                },
                {
                    "name": "C5",
                    "midi": 72,
                    "time": 123.14999999999999,
                    "velocity": 0.5905511811023622,
                    "duration": 0.09999999999999432
                },
                {
                    "name": "D#5",
                    "midi": 75,
                    "time": 123.14999999999999,
                    "velocity": 0.5905511811023622,
                    "duration": 0.09999999999999432
                },
                {
                    "name": "C5",
                    "midi": 72,
                    "time": 123.29999999999998,
                    "velocity": 0.5905511811023622,
                    "duration": 0.09999999999999432
                },
                {
                    "name": "D#5",
                    "midi": 75,
                    "time": 123.29999999999998,
                    "velocity": 0.5905511811023622,
                    "duration": 0.09999999999999432
                },
                {
                    "name": "C5",
                    "midi": 72,
                    "time": 123.59999999999998,
                    "velocity": 0.5905511811023622,
                    "duration": 0.09999999999999432
                },
                {
                    "name": "D#5",
                    "midi": 75,
                    "time": 123.59999999999998,
                    "velocity": 0.5905511811023622,
                    "duration": 0.09999999999999432
                },
                {
                    "name": "C5",
                    "midi": 72,
                    "time": 123.89999999999998,
                    "velocity": 0.5905511811023622,
                    "duration": 0.09999999999999432
                },
                {
                    "name": "D#5",
                    "midi": 75,
                    "time": 123.89999999999998,
                    "velocity": 0.5905511811023622,
                    "duration": 0.09999999999999432
                },
                {
                    "name": "C5",
                    "midi": 72,
                    "time": 124.19999999999997,
                    "velocity": 0.5905511811023622,
                    "duration": 0.09999999999999432
                },
                {
                    "name": "D#5",
                    "midi": 75,
                    "time": 124.19999999999997,
                    "velocity": 0.5905511811023622,
                    "duration": 0.09999999999999432
                },
                {
                    "name": "A#4",
                    "midi": 70,
                    "time": 124.49999999999997,
                    "velocity": 0.5905511811023622,
                    "duration": 0.09999999999999432
                },
                {
                    "name": "D#5",
                    "midi": 75,
                    "time": 124.49999999999997,
                    "velocity": 0.5905511811023622,
                    "duration": 0.09999999999999432
                },
                {
                    "name": "A#4",
                    "midi": 70,
                    "time": 124.79999999999997,
                    "velocity": 0.5905511811023622,
                    "duration": 0.09999999999999432
                },
                {
                    "name": "D#5",
                    "midi": 75,
                    "time": 124.79999999999997,
                    "velocity": 0.5905511811023622,
                    "duration": 0.09999999999999432
                },
                {
                    "name": "A#4",
                    "midi": 70,
                    "time": 124.94999999999996,
                    "velocity": 0.5905511811023622,
                    "duration": 0.09999999999999432
                },
                {
                    "name": "D#5",
                    "midi": 75,
                    "time": 124.94999999999996,
                    "velocity": 0.5905511811023622,
                    "duration": 0.09999999999999432
                },
                {
                    "name": "A#4",
                    "midi": 70,
                    "time": 125.09999999999995,
                    "velocity": 0.5905511811023622,
                    "duration": 0.09999999999999432
                },
                {
                    "name": "D#5",
                    "midi": 75,
                    "time": 125.09999999999995,
                    "velocity": 0.5905511811023622,
                    "duration": 0.09999999999999432
                },
                {
                    "name": "A#4",
                    "midi": 70,
                    "time": 125.39999999999995,
                    "velocity": 0.5905511811023622,
                    "duration": 0.09999999999999432
                },
                {
                    "name": "D#5",
                    "midi": 75,
                    "time": 125.39999999999995,
                    "velocity": 0.5905511811023622,
                    "duration": 0.09999999999999432
                },
                {
                    "name": "A#4",
                    "midi": 70,
                    "time": 125.69999999999995,
                    "velocity": 0.5905511811023622,
                    "duration": 0.09999999999999432
                },
                {
                    "name": "D#5",
                    "midi": 75,
                    "time": 125.69999999999995,
                    "velocity": 0.5905511811023622,
                    "duration": 0.09999999999999432
                },
                {
                    "name": "A#4",
                    "midi": 70,
                    "time": 125.99999999999994,
                    "velocity": 0.5905511811023622,
                    "duration": 0.09999999999999432
                },
                {
                    "name": "D#5",
                    "midi": 75,
                    "time": 125.99999999999994,
                    "velocity": 0.5905511811023622,
                    "duration": 0.09999999999999432
                },
                {
                    "name": "A#4",
                    "midi": 70,
                    "time": 126.29999999999994,
                    "velocity": 0.5905511811023622,
                    "duration": 0.09999999999999432
                },
                {
                    "name": "D#5",
                    "midi": 75,
                    "time": 126.29999999999994,
                    "velocity": 0.5905511811023622,
                    "duration": 0.09999999999999432
                },
                {
                    "name": "A#4",
                    "midi": 70,
                    "time": 126.59999999999994,
                    "velocity": 0.5905511811023622,
                    "duration": 0.09999999999999432
                },
                {
                    "name": "D#5",
                    "midi": 75,
                    "time": 126.59999999999994,
                    "velocity": 0.5905511811023622,
                    "duration": 0.09999999999999432
                },
                {
                    "name": "A#4",
                    "midi": 70,
                    "time": 126.74999999999993,
                    "velocity": 0.5905511811023622,
                    "duration": 0.09999999999999432
                },
                {
                    "name": "D#5",
                    "midi": 75,
                    "time": 126.74999999999993,
                    "velocity": 0.5905511811023622,
                    "duration": 0.09999999999999432
                },
                {
                    "name": "A#4",
                    "midi": 70,
                    "time": 126.89999999999992,
                    "velocity": 0.5905511811023622,
                    "duration": 0.09999999999999432
                },
                {
                    "name": "D#5",
                    "midi": 75,
                    "time": 126.89999999999992,
                    "velocity": 0.5905511811023622,
                    "duration": 0.09999999999999432
                },
                {
                    "name": "A#4",
                    "midi": 70,
                    "time": 127.19999999999992,
                    "velocity": 0.5905511811023622,
                    "duration": 0.09999999999999432
                },
                {
                    "name": "C#5",
                    "midi": 73,
                    "time": 127.19999999999992,
                    "velocity": 0.5905511811023622,
                    "duration": 0.09999999999999432
                },
                {
                    "name": "A#4",
                    "midi": 70,
                    "time": 127.49999999999991,
                    "velocity": 0.5905511811023622,
                    "duration": 0.09999999999999432
                },
                {
                    "name": "C#5",
                    "midi": 73,
                    "time": 127.49999999999991,
                    "velocity": 0.5905511811023622,
                    "duration": 0.09999999999999432
                },
                {
                    "name": "A#4",
                    "midi": 70,
                    "time": 127.79999999999991,
                    "velocity": 0.5905511811023622,
                    "duration": 0.09999999999999432
                },
                {
                    "name": "D#5",
                    "midi": 75,
                    "time": 127.79999999999991,
                    "velocity": 0.5905511811023622,
                    "duration": 0.09999999999999432
                },
                {
                    "name": "C5",
                    "midi": 72,
                    "time": 128.0999999999999,
                    "velocity": 0.5905511811023622,
                    "duration": 0.09999999999999432
                },
                {
                    "name": "D#5",
                    "midi": 75,
                    "time": 128.0999999999999,
                    "velocity": 0.5905511811023622,
                    "duration": 0.09999999999999432
                },
                {
                    "name": "C5",
                    "midi": 72,
                    "time": 128.3999999999999,
                    "velocity": 0.5905511811023622,
                    "duration": 0.09999999999999432
                },
                {
                    "name": "D#5",
                    "midi": 75,
                    "time": 128.3999999999999,
                    "velocity": 0.5905511811023622,
                    "duration": 0.09999999999999432
                },
                {
                    "name": "C5",
                    "midi": 72,
                    "time": 128.5499999999999,
                    "velocity": 0.5905511811023622,
                    "duration": 0.09999999999999432
                },
                {
                    "name": "D#5",
                    "midi": 75,
                    "time": 128.5499999999999,
                    "velocity": 0.5905511811023622,
                    "duration": 0.09999999999999432
                },
                {
                    "name": "C5",
                    "midi": 72,
                    "time": 128.6999999999999,
                    "velocity": 0.5905511811023622,
                    "duration": 0.09999999999999432
                },
                {
                    "name": "D#5",
                    "midi": 75,
                    "time": 128.6999999999999,
                    "velocity": 0.5905511811023622,
                    "duration": 0.09999999999999432
                },
                {
                    "name": "C5",
                    "midi": 72,
                    "time": 128.9999999999999,
                    "velocity": 0.5905511811023622,
                    "duration": 0.09999999999999432
                },
                {
                    "name": "D#5",
                    "midi": 75,
                    "time": 128.9999999999999,
                    "velocity": 0.5905511811023622,
                    "duration": 0.09999999999999432
                },
                {
                    "name": "C5",
                    "midi": 72,
                    "time": 129.29999999999987,
                    "velocity": 0.5905511811023622,
                    "duration": 0.09999999999999432
                },
                {
                    "name": "D#5",
                    "midi": 75,
                    "time": 129.29999999999987,
                    "velocity": 0.5905511811023622,
                    "duration": 0.09999999999999432
                },
                {
                    "name": "C5",
                    "midi": 72,
                    "time": 129.59999999999985,
                    "velocity": 0.5905511811023622,
                    "duration": 0.09999999999999432
                },
                {
                    "name": "D#5",
                    "midi": 75,
                    "time": 129.59999999999985,
                    "velocity": 0.5905511811023622,
                    "duration": 0.09999999999999432
                },
                {
                    "name": "C5",
                    "midi": 72,
                    "time": 129.89999999999984,
                    "velocity": 0.5905511811023622,
                    "duration": 0.09999999999999432
                },
                {
                    "name": "E5",
                    "midi": 76,
                    "time": 129.89999999999984,
                    "velocity": 0.5905511811023622,
                    "duration": 0.09999999999999432
                },
                {
                    "name": "C5",
                    "midi": 72,
                    "time": 130.19999999999982,
                    "velocity": 0.5905511811023622,
                    "duration": 0.09999999999999432
                },
                {
                    "name": "E5",
                    "midi": 76,
                    "time": 130.19999999999982,
                    "velocity": 0.5905511811023622,
                    "duration": 0.09999999999999432
                },
                {
                    "name": "C5",
                    "midi": 72,
                    "time": 130.34999999999982,
                    "velocity": 0.5905511811023622,
                    "duration": 0.09999999999999432
                },
                {
                    "name": "E5",
                    "midi": 76,
                    "time": 130.34999999999982,
                    "velocity": 0.5905511811023622,
                    "duration": 0.09999999999999432
                },
                {
                    "name": "C5",
                    "midi": 72,
                    "time": 130.49999999999983,
                    "velocity": 0.5905511811023622,
                    "duration": 0.09999999999999432
                },
                {
                    "name": "E5",
                    "midi": 76,
                    "time": 130.49999999999983,
                    "velocity": 0.5905511811023622,
                    "duration": 0.09999999999999432
                },
                {
                    "name": "C5",
                    "midi": 72,
                    "time": 130.7999999999998,
                    "velocity": 0.5905511811023622,
                    "duration": 0.09999999999999432
                },
                {
                    "name": "E5",
                    "midi": 76,
                    "time": 130.7999999999998,
                    "velocity": 0.5905511811023622,
                    "duration": 0.09999999999999432
                },
                {
                    "name": "C5",
                    "midi": 72,
                    "time": 131.0999999999998,
                    "velocity": 0.5905511811023622,
                    "duration": 0.09999999999999432
                },
                {
                    "name": "E5",
                    "midi": 76,
                    "time": 131.0999999999998,
                    "velocity": 0.5905511811023622,
                    "duration": 0.09999999999999432
                },
                {
                    "name": "C5",
                    "midi": 72,
                    "time": 131.39999999999978,
                    "velocity": 0.5905511811023622,
                    "duration": 0.09999999999999432
                },
                {
                    "name": "E5",
                    "midi": 76,
                    "time": 131.39999999999978,
                    "velocity": 0.5905511811023622,
                    "duration": 0.09999999999999432
                },
                {
                    "name": "C#5",
                    "midi": 73,
                    "time": 131.69999999999976,
                    "velocity": 0.5905511811023622,
                    "duration": 0.09999999999999432
                },
                {
                    "name": "F5",
                    "midi": 77,
                    "time": 131.69999999999976,
                    "velocity": 0.5905511811023622,
                    "duration": 0.09999999999999432
                },
                {
                    "name": "C#5",
                    "midi": 73,
                    "time": 131.99999999999974,
                    "velocity": 0.5905511811023622,
                    "duration": 0.09999999999999432
                },
                {
                    "name": "F5",
                    "midi": 77,
                    "time": 131.99999999999974,
                    "velocity": 0.5905511811023622,
                    "duration": 0.09999999999999432
                },
                {
                    "name": "C#5",
                    "midi": 73,
                    "time": 132.14999999999975,
                    "velocity": 0.5905511811023622,
                    "duration": 0.09999999999999432
                },
                {
                    "name": "F5",
                    "midi": 77,
                    "time": 132.14999999999975,
                    "velocity": 0.5905511811023622,
                    "duration": 0.09999999999999432
                },
                {
                    "name": "C#5",
                    "midi": 73,
                    "time": 132.29999999999976,
                    "velocity": 0.5905511811023622,
                    "duration": 0.09999999999999432
                },
                {
                    "name": "F5",
                    "midi": 77,
                    "time": 132.29999999999976,
                    "velocity": 0.5905511811023622,
                    "duration": 0.09999999999999432
                },
                {
                    "name": "C#5",
                    "midi": 73,
                    "time": 132.59999999999974,
                    "velocity": 0.5905511811023622,
                    "duration": 0.09999999999999432
                },
                {
                    "name": "F5",
                    "midi": 77,
                    "time": 132.59999999999974,
                    "velocity": 0.5905511811023622,
                    "duration": 0.09999999999999432
                },
                {
                    "name": "C#5",
                    "midi": 73,
                    "time": 132.89999999999972,
                    "velocity": 0.5905511811023622,
                    "duration": 0.09999999999999432
                },
                {
                    "name": "F5",
                    "midi": 77,
                    "time": 132.89999999999972,
                    "velocity": 0.5905511811023622,
                    "duration": 0.09999999999999432
                },
                {
                    "name": "C#5",
                    "midi": 73,
                    "time": 133.1999999999997,
                    "velocity": 0.5905511811023622,
                    "duration": 0.09999999999999432
                },
                {
                    "name": "F5",
                    "midi": 77,
                    "time": 133.1999999999997,
                    "velocity": 0.5905511811023622,
                    "duration": 0.09999999999999432
                },
                {
                    "name": "C5",
                    "midi": 72,
                    "time": 133.4999999999997,
                    "velocity": 0.5905511811023622,
                    "duration": 0.09999999999999432
                },
                {
                    "name": "D#5",
                    "midi": 75,
                    "time": 133.4999999999997,
                    "velocity": 0.5905511811023622,
                    "duration": 0.09999999999999432
                },
                {
                    "name": "C5",
                    "midi": 72,
                    "time": 133.79999999999967,
                    "velocity": 0.5905511811023622,
                    "duration": 0.09999999999999432
                },
                {
                    "name": "D#5",
                    "midi": 75,
                    "time": 133.79999999999967,
                    "velocity": 0.5905511811023622,
                    "duration": 0.09999999999999432
                },
                {
                    "name": "C5",
                    "midi": 72,
                    "time": 133.94999999999968,
                    "velocity": 0.5905511811023622,
                    "duration": 0.09999999999999432
                },
                {
                    "name": "D#5",
                    "midi": 75,
                    "time": 133.94999999999968,
                    "velocity": 0.5905511811023622,
                    "duration": 0.09999999999999432
                },
                {
                    "name": "C5",
                    "midi": 72,
                    "time": 134.09999999999968,
                    "velocity": 0.5905511811023622,
                    "duration": 0.09999999999999432
                },
                {
                    "name": "D#5",
                    "midi": 75,
                    "time": 134.09999999999968,
                    "velocity": 0.5905511811023622,
                    "duration": 0.09999999999999432
                },
                {
                    "name": "C5",
                    "midi": 72,
                    "time": 134.39999999999966,
                    "velocity": 0.5905511811023622,
                    "duration": 0.09999999999999432
                },
                {
                    "name": "F5",
                    "midi": 77,
                    "time": 134.39999999999966,
                    "velocity": 0.5905511811023622,
                    "duration": 0.09999999999999432
                },
                {
                    "name": "C5",
                    "midi": 72,
                    "time": 134.69999999999965,
                    "velocity": 0.5905511811023622,
                    "duration": 0.09999999999999432
                },
                {
                    "name": "F5",
                    "midi": 77,
                    "time": 134.69999999999965,
                    "velocity": 0.5905511811023622,
                    "duration": 0.09999999999999432
                },
                {
                    "name": "C5",
                    "midi": 72,
                    "time": 134.99999999999963,
                    "velocity": 0.5905511811023622,
                    "duration": 0.09999999999999432
                },
                {
                    "name": "D#5",
                    "midi": 75,
                    "time": 134.99999999999963,
                    "velocity": 0.5905511811023622,
                    "duration": 0.09999999999999432
                },
                {
                    "name": "C#5",
                    "midi": 73,
                    "time": 135.2999999999996,
                    "velocity": 0.5905511811023622,
                    "duration": 0.09999999999999432
                },
                {
                    "name": "F5",
                    "midi": 77,
                    "time": 135.2999999999996,
                    "velocity": 0.5905511811023622,
                    "duration": 0.09999999999999432
                },
                {
                    "name": "C#5",
                    "midi": 73,
                    "time": 135.5999999999996,
                    "velocity": 0.5905511811023622,
                    "duration": 0.09999999999999432
                },
                {
                    "name": "F5",
                    "midi": 77,
                    "time": 135.5999999999996,
                    "velocity": 0.5905511811023622,
                    "duration": 0.09999999999999432
                },
                {
                    "name": "C#5",
                    "midi": 73,
                    "time": 135.7499999999996,
                    "velocity": 0.5905511811023622,
                    "duration": 0.09999999999999432
                },
                {
                    "name": "F5",
                    "midi": 77,
                    "time": 135.7499999999996,
                    "velocity": 0.5905511811023622,
                    "duration": 0.09999999999999432
                },
                {
                    "name": "C#5",
                    "midi": 73,
                    "time": 135.8999999999996,
                    "velocity": 0.5905511811023622,
                    "duration": 0.09999999999999432
                },
                {
                    "name": "F5",
                    "midi": 77,
                    "time": 135.8999999999996,
                    "velocity": 0.5905511811023622,
                    "duration": 0.09999999999999432
                },
                {
                    "name": "C#5",
                    "midi": 73,
                    "time": 136.1999999999996,
                    "velocity": 0.5905511811023622,
                    "duration": 0.09999999999999432
                },
                {
                    "name": "G5",
                    "midi": 79,
                    "time": 136.1999999999996,
                    "velocity": 0.5905511811023622,
                    "duration": 0.09999999999999432
                },
                {
                    "name": "C#5",
                    "midi": 73,
                    "time": 136.49999999999957,
                    "velocity": 0.5905511811023622,
                    "duration": 0.09999999999999432
                },
                {
                    "name": "G5",
                    "midi": 79,
                    "time": 136.49999999999957,
                    "velocity": 0.5905511811023622,
                    "duration": 0.09999999999999432
                },
                {
                    "name": "C#5",
                    "midi": 73,
                    "time": 136.79999999999956,
                    "velocity": 0.5905511811023622,
                    "duration": 0.09999999999999432
                },
                {
                    "name": "F5",
                    "midi": 77,
                    "time": 136.79999999999956,
                    "velocity": 0.5905511811023622,
                    "duration": 0.09999999999999432
                },
                {
                    "name": "C#5",
                    "midi": 73,
                    "time": 137.09999999999954,
                    "velocity": 0.5905511811023622,
                    "duration": 0.09999999999999432
                },
                {
                    "name": "F5",
                    "midi": 77,
                    "time": 137.09999999999954,
                    "velocity": 0.5905511811023622,
                    "duration": 0.09999999999999432
                },
                {
                    "name": "C#5",
                    "midi": 73,
                    "time": 137.39999999999952,
                    "velocity": 0.5905511811023622,
                    "duration": 0.09999999999999432
                },
                {
                    "name": "F5",
                    "midi": 77,
                    "time": 137.39999999999952,
                    "velocity": 0.5905511811023622,
                    "duration": 0.09999999999999432
                },
                {
                    "name": "C#5",
                    "midi": 73,
                    "time": 137.54999999999953,
                    "velocity": 0.5905511811023622,
                    "duration": 0.09999999999999432
                },
                {
                    "name": "F5",
                    "midi": 77,
                    "time": 137.54999999999953,
                    "velocity": 0.5905511811023622,
                    "duration": 0.09999999999999432
                },
                {
                    "name": "C#5",
                    "midi": 73,
                    "time": 137.69999999999953,
                    "velocity": 0.5905511811023622,
                    "duration": 0.09999999999999432
                },
                {
                    "name": "F5",
                    "midi": 77,
                    "time": 137.69999999999953,
                    "velocity": 0.5905511811023622,
                    "duration": 0.09999999999999432
                },
                {
                    "name": "C#5",
                    "midi": 73,
                    "time": 137.99999999999952,
                    "velocity": 0.5905511811023622,
                    "duration": 0.09999999999999432
                },
                {
                    "name": "F5",
                    "midi": 77,
                    "time": 137.99999999999952,
                    "velocity": 0.5905511811023622,
                    "duration": 0.09999999999999432
                },
                {
                    "name": "C#5",
                    "midi": 73,
                    "time": 138.2999999999995,
                    "velocity": 0.5905511811023622,
                    "duration": 0.09999999999999432
                },
                {
                    "name": "F5",
                    "midi": 77,
                    "time": 138.2999999999995,
                    "velocity": 0.5905511811023622,
                    "duration": 0.09999999999999432
                },
                {
                    "name": "C#5",
                    "midi": 73,
                    "time": 138.59999999999948,
                    "velocity": 0.5905511811023622,
                    "duration": 0.09999999999999432
                },
                {
                    "name": "F5",
                    "midi": 77,
                    "time": 138.59999999999948,
                    "velocity": 0.5905511811023622,
                    "duration": 0.09999999999999432
                },
                {
                    "name": "C5",
                    "midi": 72,
                    "time": 138.89999999999947,
                    "velocity": 0.5905511811023622,
                    "duration": 0.09999999999999432
                },
                {
                    "name": "F5",
                    "midi": 77,
                    "time": 138.89999999999947,
                    "velocity": 0.5905511811023622,
                    "duration": 0.09999999999999432
                },
                {
                    "name": "B4",
                    "midi": 71,
                    "time": 139.19999999999945,
                    "velocity": 0.5905511811023622,
                    "duration": 0.09999999999999432
                },
                {
                    "name": "F5",
                    "midi": 77,
                    "time": 139.19999999999945,
                    "velocity": 0.5905511811023622,
                    "duration": 0.09999999999999432
                },
                {
                    "name": "B4",
                    "midi": 71,
                    "time": 139.34999999999945,
                    "velocity": 0.5905511811023622,
                    "duration": 0.09999999999999432
                },
                {
                    "name": "F5",
                    "midi": 77,
                    "time": 139.34999999999945,
                    "velocity": 0.5905511811023622,
                    "duration": 0.09999999999999432
                },
                {
                    "name": "C5",
                    "midi": 72,
                    "time": 139.49999999999946,
                    "velocity": 0.5905511811023622,
                    "duration": 0.09999999999999432
                },
                {
                    "name": "F5",
                    "midi": 77,
                    "time": 139.49999999999946,
                    "velocity": 0.5905511811023622,
                    "duration": 0.09999999999999432
                },
                {
                    "name": "C5",
                    "midi": 72,
                    "time": 139.79999999999944,
                    "velocity": 0.5905511811023622,
                    "duration": 0.09999999999999432
                },
                {
                    "name": "F5",
                    "midi": 77,
                    "time": 139.79999999999944,
                    "velocity": 0.5905511811023622,
                    "duration": 0.09999999999999432
                },
                {
                    "name": "C5",
                    "midi": 72,
                    "time": 140.09999999999943,
                    "velocity": 0.5905511811023622,
                    "duration": 0.09999999999999432
                },
                {
                    "name": "F5",
                    "midi": 77,
                    "time": 140.09999999999943,
                    "velocity": 0.5905511811023622,
                    "duration": 0.09999999999999432
                },
                {
                    "name": "C5",
                    "midi": 72,
                    "time": 140.3999999999994,
                    "velocity": 0.5905511811023622,
                    "duration": 0.09999999999999432
                },
                {
                    "name": "D#5",
                    "midi": 75,
                    "time": 140.3999999999994,
                    "velocity": 0.5905511811023622,
                    "duration": 0.09999999999999432
                },
                {
                    "name": "D#5",
                    "midi": 75,
                    "time": 140.6999999999994,
                    "velocity": 0.5905511811023622,
                    "duration": 0.09999999999999432
                },
                {
                    "name": "F5",
                    "midi": 77,
                    "time": 140.6999999999994,
                    "velocity": 0.5905511811023622,
                    "duration": 0.09999999999999432
                },
                {
                    "name": "D#5",
                    "midi": 75,
                    "time": 140.99999999999937,
                    "velocity": 0.5905511811023622,
                    "duration": 0.09999999999999432
                },
                {
                    "name": "F5",
                    "midi": 77,
                    "time": 140.99999999999937,
                    "velocity": 0.5905511811023622,
                    "duration": 0.09999999999999432
                },
                {
                    "name": "D#5",
                    "midi": 75,
                    "time": 141.14999999999938,
                    "velocity": 0.5905511811023622,
                    "duration": 0.09999999999999432
                },
                {
                    "name": "F5",
                    "midi": 77,
                    "time": 141.14999999999938,
                    "velocity": 0.5905511811023622,
                    "duration": 0.09999999999999432
                },
                {
                    "name": "D#5",
                    "midi": 75,
                    "time": 141.2999999999994,
                    "velocity": 0.5905511811023622,
                    "duration": 0.09999999999999432
                },
                {
                    "name": "F5",
                    "midi": 77,
                    "time": 141.2999999999994,
                    "velocity": 0.5905511811023622,
                    "duration": 0.09999999999999432
                },
                {
                    "name": "D#5",
                    "midi": 75,
                    "time": 141.59999999999937,
                    "velocity": 0.5905511811023622,
                    "duration": 0.09999999999999432
                },
                {
                    "name": "F5",
                    "midi": 77,
                    "time": 141.59999999999937,
                    "velocity": 0.5905511811023622,
                    "duration": 0.09999999999999432
                },
                {
                    "name": "D#5",
                    "midi": 75,
                    "time": 141.89999999999935,
                    "velocity": 0.5905511811023622,
                    "duration": 0.09999999999999432
                },
                {
                    "name": "F5",
                    "midi": 77,
                    "time": 141.89999999999935,
                    "velocity": 0.5905511811023622,
                    "duration": 0.09999999999999432
                },
                {
                    "name": "D#5",
                    "midi": 75,
                    "time": 142.19999999999933,
                    "velocity": 0.5905511811023622,
                    "duration": 0.09999999999999432
                },
                {
                    "name": "F5",
                    "midi": 77,
                    "time": 142.19999999999933,
                    "velocity": 0.5905511811023622,
                    "duration": 0.09999999999999432
                },
                {
                    "name": "C#5",
                    "midi": 73,
                    "time": 142.49999999999932,
                    "velocity": 0.5905511811023622,
                    "duration": 0.09999999999999432
                },
                {
                    "name": "G5",
                    "midi": 79,
                    "time": 142.49999999999932,
                    "velocity": 0.5905511811023622,
                    "duration": 0.09999999999999432
                },
                {
                    "name": "C#5",
                    "midi": 73,
                    "time": 142.7999999999993,
                    "velocity": 0.5905511811023622,
                    "duration": 0.09999999999999432
                },
                {
                    "name": "G5",
                    "midi": 79,
                    "time": 142.7999999999993,
                    "velocity": 0.5905511811023622,
                    "duration": 0.09999999999999432
                },
                {
                    "name": "C#5",
                    "midi": 73,
                    "time": 142.9499999999993,
                    "velocity": 0.5905511811023622,
                    "duration": 0.09999999999999432
                },
                {
                    "name": "G5",
                    "midi": 79,
                    "time": 142.9499999999993,
                    "velocity": 0.5905511811023622,
                    "duration": 0.09999999999999432
                },
                {
                    "name": "C#5",
                    "midi": 73,
                    "time": 143.0999999999993,
                    "velocity": 0.5905511811023622,
                    "duration": 0.09999999999999432
                },
                {
                    "name": "G5",
                    "midi": 79,
                    "time": 143.0999999999993,
                    "velocity": 0.5905511811023622,
                    "duration": 0.09999999999999432
                },
                {
                    "name": "C#5",
                    "midi": 73,
                    "time": 143.3999999999993,
                    "velocity": 0.5905511811023622,
                    "duration": 0.09999999999999432
                },
                {
                    "name": "G5",
                    "midi": 79,
                    "time": 143.3999999999993,
                    "velocity": 0.5905511811023622,
                    "duration": 0.09999999999999432
                },
                {
                    "name": "C#5",
                    "midi": 73,
                    "time": 143.69999999999928,
                    "velocity": 0.5905511811023622,
                    "duration": 0.09999999999999432
                },
                {
                    "name": "G5",
                    "midi": 79,
                    "time": 143.69999999999928,
                    "velocity": 0.5905511811023622,
                    "duration": 0.09999999999999432
                },
                {
                    "name": "C#5",
                    "midi": 73,
                    "time": 143.99999999999926,
                    "velocity": 0.5905511811023622,
                    "duration": 0.09999999999999432
                },
                {
                    "name": "G5",
                    "midi": 79,
                    "time": 143.99999999999926,
                    "velocity": 0.5905511811023622,
                    "duration": 0.09999999999999432
                },
                {
                    "name": "C5",
                    "midi": 72,
                    "time": 144.29999999999924,
                    "velocity": 0.5905511811023622,
                    "duration": 0.09999999999999432
                },
                {
                    "name": "D#5",
                    "midi": 75,
                    "time": 144.29999999999924,
                    "velocity": 0.5905511811023622,
                    "duration": 0.09999999999999432
                },
                {
                    "name": "C5",
                    "midi": 72,
                    "time": 144.59999999999923,
                    "velocity": 0.5905511811023622,
                    "duration": 0.09999999999999432
                },
                {
                    "name": "D#5",
                    "midi": 75,
                    "time": 144.59999999999923,
                    "velocity": 0.5905511811023622,
                    "duration": 0.09999999999999432
                },
                {
                    "name": "C5",
                    "midi": 72,
                    "time": 144.74999999999923,
                    "velocity": 0.5905511811023622,
                    "duration": 0.09999999999999432
                },
                {
                    "name": "D#5",
                    "midi": 75,
                    "time": 144.74999999999923,
                    "velocity": 0.5905511811023622,
                    "duration": 0.09999999999999432
                },
                {
                    "name": "C5",
                    "midi": 72,
                    "time": 144.89999999999924,
                    "velocity": 0.5905511811023622,
                    "duration": 0.09999999999999432
                },
                {
                    "name": "D#5",
                    "midi": 75,
                    "time": 144.89999999999924,
                    "velocity": 0.5905511811023622,
                    "duration": 0.09999999999999432
                },
                {
                    "name": "C5",
                    "midi": 72,
                    "time": 145.19999999999922,
                    "velocity": 0.5905511811023622,
                    "duration": 0.09999999999999432
                },
                {
                    "name": "D#5",
                    "midi": 75,
                    "time": 145.19999999999922,
                    "velocity": 0.5905511811023622,
                    "duration": 0.09999999999999432
                },
                {
                    "name": "C5",
                    "midi": 72,
                    "time": 145.4999999999992,
                    "velocity": 0.5905511811023622,
                    "duration": 0.09999999999999432
                },
                {
                    "name": "D#5",
                    "midi": 75,
                    "time": 145.4999999999992,
                    "velocity": 0.5905511811023622,
                    "duration": 0.09999999999999432
                },
                {
                    "name": "C5",
                    "midi": 72,
                    "time": 145.7999999999992,
                    "velocity": 0.5905511811023622,
                    "duration": 0.09999999999999432
                },
                {
                    "name": "D#5",
                    "midi": 75,
                    "time": 145.7999999999992,
                    "velocity": 0.5905511811023622,
                    "duration": 0.09999999999999432
                },
                {
                    "name": "A#4",
                    "midi": 70,
                    "time": 146.09999999999917,
                    "velocity": 0.5905511811023622,
                    "duration": 0.09999999999999432
                },
                {
                    "name": "D#5",
                    "midi": 75,
                    "time": 146.09999999999917,
                    "velocity": 0.5905511811023622,
                    "duration": 0.09999999999999432
                },
                {
                    "name": "A4",
                    "midi": 69,
                    "time": 146.39999999999915,
                    "velocity": 0.5905511811023622,
                    "duration": 0.09999999999999432
                },
                {
                    "name": "D#5",
                    "midi": 75,
                    "time": 146.39999999999915,
                    "velocity": 0.5905511811023622,
                    "duration": 0.09999999999999432
                },
                {
                    "name": "A4",
                    "midi": 69,
                    "time": 146.54999999999916,
                    "velocity": 0.5905511811023622,
                    "duration": 0.09999999999999432
                },
                {
                    "name": "D#5",
                    "midi": 75,
                    "time": 146.54999999999916,
                    "velocity": 0.5905511811023622,
                    "duration": 0.09999999999999432
                },
                {
                    "name": "A#4",
                    "midi": 70,
                    "time": 146.69999999999916,
                    "velocity": 0.5905511811023622,
                    "duration": 0.09999999999999432
                },
                {
                    "name": "D#5",
                    "midi": 75,
                    "time": 146.69999999999916,
                    "velocity": 0.5905511811023622,
                    "duration": 0.09999999999999432
                },
                {
                    "name": "A#4",
                    "midi": 70,
                    "time": 146.99999999999915,
                    "velocity": 0.5905511811023622,
                    "duration": 0.09999999999999432
                },
                {
                    "name": "D#5",
                    "midi": 75,
                    "time": 146.99999999999915,
                    "velocity": 0.5905511811023622,
                    "duration": 0.09999999999999432
                },
                {
                    "name": "A#4",
                    "midi": 70,
                    "time": 147.29999999999913,
                    "velocity": 0.5905511811023622,
                    "duration": 0.09999999999999432
                },
                {
                    "name": "D#5",
                    "midi": 75,
                    "time": 147.29999999999913,
                    "velocity": 0.5905511811023622,
                    "duration": 0.09999999999999432
                },
                {
                    "name": "A#4",
                    "midi": 70,
                    "time": 147.5999999999991,
                    "velocity": 0.5905511811023622,
                    "duration": 0.09999999999999432
                },
                {
                    "name": "C#5",
                    "midi": 73,
                    "time": 147.5999999999991,
                    "velocity": 0.5905511811023622,
                    "duration": 0.09999999999999432
                },
                {
                    "name": "C#5",
                    "midi": 73,
                    "time": 147.8999999999991,
                    "velocity": 0.5905511811023622,
                    "duration": 0.09999999999999432
                },
                {
                    "name": "D#5",
                    "midi": 75,
                    "time": 147.8999999999991,
                    "velocity": 0.5905511811023622,
                    "duration": 0.09999999999999432
                },
                {
                    "name": "C#5",
                    "midi": 73,
                    "time": 148.19999999999908,
                    "velocity": 0.5905511811023622,
                    "duration": 0.09999999999999432
                },
                {
                    "name": "D#5",
                    "midi": 75,
                    "time": 148.19999999999908,
                    "velocity": 0.5905511811023622,
                    "duration": 0.09999999999999432
                },
                {
                    "name": "C#5",
                    "midi": 73,
                    "time": 148.34999999999908,
                    "velocity": 0.5905511811023622,
                    "duration": 0.09999999999999432
                },
                {
                    "name": "D#5",
                    "midi": 75,
                    "time": 148.34999999999908,
                    "velocity": 0.5905511811023622,
                    "duration": 0.09999999999999432
                },
                {
                    "name": "C#5",
                    "midi": 73,
                    "time": 148.4999999999991,
                    "velocity": 0.5905511811023622,
                    "duration": 0.09999999999999432
                },
                {
                    "name": "D#5",
                    "midi": 75,
                    "time": 148.4999999999991,
                    "velocity": 0.5905511811023622,
                    "duration": 0.09999999999999432
                },
                {
                    "name": "C5",
                    "midi": 72,
                    "time": 148.79999999999907,
                    "velocity": 0.5905511811023622,
                    "duration": 0.09999999999999432
                },
                {
                    "name": "D#5",
                    "midi": 75,
                    "time": 148.79999999999907,
                    "velocity": 0.5905511811023622,
                    "duration": 0.09999999999999432
                },
                {
                    "name": "C5",
                    "midi": 72,
                    "time": 149.09999999999906,
                    "velocity": 0.5905511811023622,
                    "duration": 0.09999999999999432
                },
                {
                    "name": "D#5",
                    "midi": 75,
                    "time": 149.09999999999906,
                    "velocity": 0.5905511811023622,
                    "duration": 0.09999999999999432
                },
                {
                    "name": "C5",
                    "midi": 72,
                    "time": 149.39999999999904,
                    "velocity": 0.5905511811023622,
                    "duration": 0.09999999999999432
                },
                {
                    "name": "D#5",
                    "midi": 75,
                    "time": 149.39999999999904,
                    "velocity": 0.5905511811023622,
                    "duration": 0.09999999999999432
                },
                {
                    "name": "C5",
                    "midi": 72,
                    "time": 149.69999999999902,
                    "velocity": 0.5905511811023622,
                    "duration": 0.09999999999999432
                },
                {
                    "name": "D#5",
                    "midi": 75,
                    "time": 149.69999999999902,
                    "velocity": 0.5905511811023622,
                    "duration": 0.09999999999999432
                },
                {
                    "name": "C5",
                    "midi": 72,
                    "time": 149.999999999999,
                    "velocity": 0.5905511811023622,
                    "duration": 0.09999999999999432
                },
                {
                    "name": "D#5",
                    "midi": 75,
                    "time": 149.999999999999,
                    "velocity": 0.5905511811023622,
                    "duration": 0.09999999999999432
                },
                {
                    "name": "C5",
                    "midi": 72,
                    "time": 150.149999999999,
                    "velocity": 0.5905511811023622,
                    "duration": 0.09999999999999432
                },
                {
                    "name": "D#5",
                    "midi": 75,
                    "time": 150.149999999999,
                    "velocity": 0.5905511811023622,
                    "duration": 0.09999999999999432
                },
                {
                    "name": "C5",
                    "midi": 72,
                    "time": 150.29999999999902,
                    "velocity": 0.5905511811023622,
                    "duration": 0.09999999999999432
                },
                {
                    "name": "D#5",
                    "midi": 75,
                    "time": 150.29999999999902,
                    "velocity": 0.5905511811023622,
                    "duration": 0.09999999999999432
                },
                {
                    "name": "C5",
                    "midi": 72,
                    "time": 150.599999999999,
                    "velocity": 0.5905511811023622,
                    "duration": 0.09999999999999432
                },
                {
                    "name": "D#5",
                    "midi": 75,
                    "time": 150.599999999999,
                    "velocity": 0.5905511811023622,
                    "duration": 0.09999999999999432
                },
                {
                    "name": "C5",
                    "midi": 72,
                    "time": 150.89999999999898,
                    "velocity": 0.5905511811023622,
                    "duration": 0.09999999999999432
                },
                {
                    "name": "D#5",
                    "midi": 75,
                    "time": 150.89999999999898,
                    "velocity": 0.5905511811023622,
                    "duration": 0.09999999999999432
                },
                {
                    "name": "C5",
                    "midi": 72,
                    "time": 151.19999999999897,
                    "velocity": 0.5905511811023622,
                    "duration": 0.09999999999999432
                },
                {
                    "name": "F#5",
                    "midi": 78,
                    "time": 151.19999999999897,
                    "velocity": 0.5905511811023622,
                    "duration": 0.09999999999999432
                },
                {
                    "name": "C#5",
                    "midi": 73,
                    "time": 151.49999999999895,
                    "velocity": 0.5905511811023622,
                    "duration": 0.09999999999999432
                },
                {
                    "name": "F5",
                    "midi": 77,
                    "time": 151.49999999999895,
                    "velocity": 0.5905511811023622,
                    "duration": 0.09999999999999432
                },
                {
                    "name": "C#5",
                    "midi": 73,
                    "time": 151.79999999999893,
                    "velocity": 0.5905511811023622,
                    "duration": 0.09999999999999432
                },
                {
                    "name": "F5",
                    "midi": 77,
                    "time": 151.79999999999893,
                    "velocity": 0.5905511811023622,
                    "duration": 0.09999999999999432
                },
                {
                    "name": "C#5",
                    "midi": 73,
                    "time": 151.94999999999894,
                    "velocity": 0.5905511811023622,
                    "duration": 0.09999999999999432
                },
                {
                    "name": "F5",
                    "midi": 77,
                    "time": 151.94999999999894,
                    "velocity": 0.5905511811023622,
                    "duration": 0.09999999999999432
                },
                {
                    "name": "C#5",
                    "midi": 73,
                    "time": 152.09999999999894,
                    "velocity": 0.5905511811023622,
                    "duration": 0.09999999999999432
                },
                {
                    "name": "F5",
                    "midi": 77,
                    "time": 152.09999999999894,
                    "velocity": 0.5905511811023622,
                    "duration": 0.09999999999999432
                },
                {
                    "name": "C#5",
                    "midi": 73,
                    "time": 152.39999999999893,
                    "velocity": 0.5905511811023622,
                    "duration": 0.09999999999999432
                },
                {
                    "name": "F5",
                    "midi": 77,
                    "time": 152.39999999999893,
                    "velocity": 0.5905511811023622,
                    "duration": 0.09999999999999432
                },
                {
                    "name": "C#5",
                    "midi": 73,
                    "time": 152.6999999999989,
                    "velocity": 0.5905511811023622,
                    "duration": 0.09999999999999432
                },
                {
                    "name": "F5",
                    "midi": 77,
                    "time": 152.6999999999989,
                    "velocity": 0.5905511811023622,
                    "duration": 0.09999999999999432
                },
                {
                    "name": "C#5",
                    "midi": 73,
                    "time": 152.9999999999989,
                    "velocity": 0.5905511811023622,
                    "duration": 0.09999999999999432
                },
                {
                    "name": "F5",
                    "midi": 77,
                    "time": 152.9999999999989,
                    "velocity": 0.5905511811023622,
                    "duration": 0.09999999999999432
                },
                {
                    "name": "C5",
                    "midi": 72,
                    "time": 153.29999999999887,
                    "velocity": 0.5905511811023622,
                    "duration": 0.09999999999999432
                },
                {
                    "name": "D#5",
                    "midi": 75,
                    "time": 153.29999999999887,
                    "velocity": 0.5905511811023622,
                    "duration": 0.09999999999999432
                },
                {
                    "name": "C5",
                    "midi": 72,
                    "time": 153.59999999999886,
                    "velocity": 0.5905511811023622,
                    "duration": 0.09999999999999432
                },
                {
                    "name": "D#5",
                    "midi": 75,
                    "time": 153.59999999999886,
                    "velocity": 0.5905511811023622,
                    "duration": 0.09999999999999432
                },
                {
                    "name": "C5",
                    "midi": 72,
                    "time": 153.74999999999886,
                    "velocity": 0.5905511811023622,
                    "duration": 0.09999999999999432
                },
                {
                    "name": "D#5",
                    "midi": 75,
                    "time": 153.74999999999886,
                    "velocity": 0.5905511811023622,
                    "duration": 0.09999999999999432
                },
                {
                    "name": "C5",
                    "midi": 72,
                    "time": 153.89999999999887,
                    "velocity": 0.5905511811023622,
                    "duration": 0.09999999999999432
                },
                {
                    "name": "D#5",
                    "midi": 75,
                    "time": 153.89999999999887,
                    "velocity": 0.5905511811023622,
                    "duration": 0.09999999999999432
                },
                {
                    "name": "C5",
                    "midi": 72,
                    "time": 154.19999999999885,
                    "velocity": 0.5905511811023622,
                    "duration": 0.09999999999999432
                },
                {
                    "name": "D#5",
                    "midi": 75,
                    "time": 154.19999999999885,
                    "velocity": 0.5905511811023622,
                    "duration": 0.09999999999999432
                },
                {
                    "name": "C5",
                    "midi": 72,
                    "time": 154.49999999999883,
                    "velocity": 0.5905511811023622,
                    "duration": 0.09999999999999432
                },
                {
                    "name": "D#5",
                    "midi": 75,
                    "time": 154.49999999999883,
                    "velocity": 0.5905511811023622,
                    "duration": 0.09999999999999432
                },
                {
                    "name": "C5",
                    "midi": 72,
                    "time": 154.79999999999882,
                    "velocity": 0.5905511811023622,
                    "duration": 0.09999999999999432
                },
                {
                    "name": "D#5",
                    "midi": 75,
                    "time": 154.79999999999882,
                    "velocity": 0.5905511811023622,
                    "duration": 0.09999999999999432
                },
                {
                    "name": "D5",
                    "midi": 74,
                    "time": 155.0999999999988,
                    "velocity": 0.5905511811023622,
                    "duration": 0.09999999999999432
                },
                {
                    "name": "F5",
                    "midi": 77,
                    "time": 155.0999999999988,
                    "velocity": 0.5905511811023622,
                    "duration": 0.09999999999999432
                },
                {
                    "name": "D5",
                    "midi": 74,
                    "time": 155.39999999999878,
                    "velocity": 0.5905511811023622,
                    "duration": 0.09999999999999432
                },
                {
                    "name": "F5",
                    "midi": 77,
                    "time": 155.39999999999878,
                    "velocity": 0.5905511811023622,
                    "duration": 0.09999999999999432
                },
                {
                    "name": "D5",
                    "midi": 74,
                    "time": 155.5499999999988,
                    "velocity": 0.5905511811023622,
                    "duration": 0.09999999999999432
                },
                {
                    "name": "F5",
                    "midi": 77,
                    "time": 155.5499999999988,
                    "velocity": 0.5905511811023622,
                    "duration": 0.09999999999999432
                },
                {
                    "name": "D5",
                    "midi": 74,
                    "time": 155.6999999999988,
                    "velocity": 0.5905511811023622,
                    "duration": 0.09999999999999432
                },
                {
                    "name": "F5",
                    "midi": 77,
                    "time": 155.6999999999988,
                    "velocity": 0.5905511811023622,
                    "duration": 0.09999999999999432
                },
                {
                    "name": "D5",
                    "midi": 74,
                    "time": 155.99999999999878,
                    "velocity": 0.5905511811023622,
                    "duration": 0.09999999999999432
                },
                {
                    "name": "F5",
                    "midi": 77,
                    "time": 155.99999999999878,
                    "velocity": 0.5905511811023622,
                    "duration": 0.09999999999999432
                },
                {
                    "name": "D5",
                    "midi": 74,
                    "time": 156.29999999999876,
                    "velocity": 0.5905511811023622,
                    "duration": 0.09999999999999432
                },
                {
                    "name": "F5",
                    "midi": 77,
                    "time": 156.29999999999876,
                    "velocity": 0.5905511811023622,
                    "duration": 0.09999999999999432
                },
                {
                    "name": "D5",
                    "midi": 74,
                    "time": 156.59999999999874,
                    "velocity": 0.5905511811023622,
                    "duration": 0.09999999999999432
                },
                {
                    "name": "F5",
                    "midi": 77,
                    "time": 156.59999999999874,
                    "velocity": 0.5905511811023622,
                    "duration": 0.09999999999999432
                },
                {
                    "name": "D5",
                    "midi": 74,
                    "time": 156.89999999999873,
                    "velocity": 0.5905511811023622,
                    "duration": 0.09999999999999432
                },
                {
                    "name": "F5",
                    "midi": 77,
                    "time": 156.89999999999873,
                    "velocity": 0.5905511811023622,
                    "duration": 0.09999999999999432
                },
                {
                    "name": "D5",
                    "midi": 74,
                    "time": 157.1999999999987,
                    "velocity": 0.5905511811023622,
                    "duration": 0.09999999999999432
                },
                {
                    "name": "F5",
                    "midi": 77,
                    "time": 157.1999999999987,
                    "velocity": 0.5905511811023622,
                    "duration": 0.09999999999999432
                },
                {
                    "name": "D5",
                    "midi": 74,
                    "time": 157.34999999999872,
                    "velocity": 0.5905511811023622,
                    "duration": 0.09999999999999432
                },
                {
                    "name": "F5",
                    "midi": 77,
                    "time": 157.34999999999872,
                    "velocity": 0.5905511811023622,
                    "duration": 0.09999999999999432
                },
                {
                    "name": "D5",
                    "midi": 74,
                    "time": 157.49999999999872,
                    "velocity": 0.5905511811023622,
                    "duration": 0.09999999999999432
                },
                {
                    "name": "F5",
                    "midi": 77,
                    "time": 157.49999999999872,
                    "velocity": 0.5905511811023622,
                    "duration": 0.09999999999999432
                },
                {
                    "name": "C#5",
                    "midi": 73,
                    "time": 157.7999999999987,
                    "velocity": 0.5905511811023622,
                    "duration": 0.09999999999999432
                },
                {
                    "name": "G5",
                    "midi": 79,
                    "time": 157.7999999999987,
                    "velocity": 0.5905511811023622,
                    "duration": 0.09999999999999432
                },
                {
                    "name": "C#5",
                    "midi": 73,
                    "time": 158.0999999999987,
                    "velocity": 0.5905511811023622,
                    "duration": 0.09999999999999432
                },
                {
                    "name": "G5",
                    "midi": 79,
                    "time": 158.0999999999987,
                    "velocity": 0.5905511811023622,
                    "duration": 0.09999999999999432
                },
                {
                    "name": "C#5",
                    "midi": 73,
                    "time": 158.39999999999867,
                    "velocity": 0.5905511811023622,
                    "duration": 0.09999999999999432
                },
                {
                    "name": "F5",
                    "midi": 77,
                    "time": 158.39999999999867,
                    "velocity": 0.5905511811023622,
                    "duration": 0.09999999999999432
                },
                {
                    "name": "C5",
                    "midi": 72,
                    "time": 158.69999999999865,
                    "velocity": 0.5905511811023622,
                    "duration": 0.09999999999999432
                },
                {
                    "name": "D#5",
                    "midi": 75,
                    "time": 158.69999999999865,
                    "velocity": 0.5905511811023622,
                    "duration": 0.09999999999999432
                },
                {
                    "name": "C5",
                    "midi": 72,
                    "time": 158.99999999999864,
                    "velocity": 0.5905511811023622,
                    "duration": 0.09999999999999432
                },
                {
                    "name": "D#5",
                    "midi": 75,
                    "time": 158.99999999999864,
                    "velocity": 0.5905511811023622,
                    "duration": 0.09999999999999432
                },
                {
                    "name": "C5",
                    "midi": 72,
                    "time": 159.14999999999864,
                    "velocity": 0.5905511811023622,
                    "duration": 0.09999999999999432
                },
                {
                    "name": "D#5",
                    "midi": 75,
                    "time": 159.14999999999864,
                    "velocity": 0.5905511811023622,
                    "duration": 0.09999999999999432
                },
                {
                    "name": "C5",
                    "midi": 72,
                    "time": 159.29999999999865,
                    "velocity": 0.5905511811023622,
                    "duration": 0.09999999999999432
                },
                {
                    "name": "D#5",
                    "midi": 75,
                    "time": 159.29999999999865,
                    "velocity": 0.5905511811023622,
                    "duration": 0.09999999999999432
                },
                {
                    "name": "C5",
                    "midi": 72,
                    "time": 159.59999999999863,
                    "velocity": 0.5905511811023622,
                    "duration": 0.09999999999999432
                },
                {
                    "name": "D#5",
                    "midi": 75,
                    "time": 159.59999999999863,
                    "velocity": 0.5905511811023622,
                    "duration": 0.09999999999999432
                },
                {
                    "name": "C5",
                    "midi": 72,
                    "time": 159.8999999999986,
                    "velocity": 0.5905511811023622,
                    "duration": 0.09999999999999432
                },
                {
                    "name": "D#5",
                    "midi": 75,
                    "time": 159.8999999999986,
                    "velocity": 0.5905511811023622,
                    "duration": 0.09999999999999432
                },
                {
                    "name": "C5",
                    "midi": 72,
                    "time": 160.1999999999986,
                    "velocity": 0.5905511811023622,
                    "duration": 0.09999999999999432
                },
                {
                    "name": "D#5",
                    "midi": 75,
                    "time": 160.1999999999986,
                    "velocity": 0.5905511811023622,
                    "duration": 0.09999999999999432
                },
                {
                    "name": "A#4",
                    "midi": 70,
                    "time": 160.49999999999858,
                    "velocity": 0.5905511811023622,
                    "duration": 0.09999999999999432
                },
                {
                    "name": "D#5",
                    "midi": 75,
                    "time": 160.49999999999858,
                    "velocity": 0.5905511811023622,
                    "duration": 0.09999999999999432
                },
                {
                    "name": "A#4",
                    "midi": 70,
                    "time": 160.79999999999856,
                    "velocity": 0.5905511811023622,
                    "duration": 0.09999999999999432
                },
                {
                    "name": "D#5",
                    "midi": 75,
                    "time": 160.79999999999856,
                    "velocity": 0.5905511811023622,
                    "duration": 0.09999999999999432
                },
                {
                    "name": "A#4",
                    "midi": 70,
                    "time": 160.94999999999857,
                    "velocity": 0.5905511811023622,
                    "duration": 0.09999999999999432
                },
                {
                    "name": "D#5",
                    "midi": 75,
                    "time": 160.94999999999857,
                    "velocity": 0.5905511811023622,
                    "duration": 0.09999999999999432
                },
                {
                    "name": "A#4",
                    "midi": 70,
                    "time": 161.09999999999857,
                    "velocity": 0.5905511811023622,
                    "duration": 0.09999999999999432
                },
                {
                    "name": "D#5",
                    "midi": 75,
                    "time": 161.09999999999857,
                    "velocity": 0.5905511811023622,
                    "duration": 0.09999999999999432
                },
                {
                    "name": "A#4",
                    "midi": 70,
                    "time": 161.39999999999856,
                    "velocity": 0.5905511811023622,
                    "duration": 0.09999999999999432
                },
                {
                    "name": "C#5",
                    "midi": 73,
                    "time": 161.39999999999856,
                    "velocity": 0.5905511811023622,
                    "duration": 0.09999999999999432
                },
                {
                    "name": "A#4",
                    "midi": 70,
                    "time": 161.69999999999854,
                    "velocity": 0.5905511811023622,
                    "duration": 0.09999999999999432
                },
                {
                    "name": "C#5",
                    "midi": 73,
                    "time": 161.69999999999854,
                    "velocity": 0.5905511811023622,
                    "duration": 0.09999999999999432
                },
                {
                    "name": "A#4",
                    "midi": 70,
                    "time": 161.99999999999852,
                    "velocity": 0.5905511811023622,
                    "duration": 0.09999999999999432
                },
                {
                    "name": "C#5",
                    "midi": 73,
                    "time": 161.99999999999852,
                    "velocity": 0.5905511811023622,
                    "duration": 0.09999999999999432
                },
                {
                    "name": "C5",
                    "midi": 72,
                    "time": 162.2999999999985,
                    "velocity": 0.47244094488188976,
                    "duration": 0.15000000000000568
                },
                {
                    "name": "B4",
                    "midi": 71,
                    "time": 162.4499999999985,
                    "velocity": 0.47244094488188976,
                    "duration": 0.09999999999999432
                },
                {
                    "name": "C5",
                    "midi": 72,
                    "time": 162.59999999999852,
                    "velocity": 0.47244094488188976,
                    "duration": 0.09999999999999432
                },
                {
                    "name": "D5",
                    "midi": 74,
                    "time": 162.74999999999852,
                    "velocity": 0.47244094488188976,
                    "duration": 0.09999999999999432
                },
                {
                    "name": "E5",
                    "midi": 76,
                    "time": 162.89999999999853,
                    "velocity": 0.47244094488188976,
                    "duration": 0.09999999999999432
                },
                {
                    "name": "F5",
                    "midi": 77,
                    "time": 163.04999999999853,
                    "velocity": 0.47244094488188976,
                    "duration": 0.09999999999999432
                },
                {
                    "name": "G5",
                    "midi": 79,
                    "time": 163.19999999999854,
                    "velocity": 0.47244094488188976,
                    "duration": 0.09999999999999432
                },
                {
                    "name": "G5",
                    "midi": 79,
                    "time": 163.49999999999852,
                    "velocity": 0.47244094488188976,
                    "duration": 0.09999999999999432
                },
                {
                    "name": "G5",
                    "midi": 79,
                    "time": 163.7999999999985,
                    "velocity": 0.47244094488188976,
                    "duration": 0.09999999999999432
                },
                {
                    "name": "C5",
                    "midi": 72,
                    "time": 166.7999999999985,
                    "velocity": 0.47244094488188976,
                    "duration": 0.15000000000000568
                },
                {
                    "name": "B4",
                    "midi": 71,
                    "time": 166.9499999999985,
                    "velocity": 0.47244094488188976,
                    "duration": 0.09999999999999432
                },
                {
                    "name": "C5",
                    "midi": 72,
                    "time": 167.09999999999852,
                    "velocity": 0.47244094488188976,
                    "duration": 0.09999999999999432
                },
                {
                    "name": "D5",
                    "midi": 74,
                    "time": 167.24999999999852,
                    "velocity": 0.47244094488188976,
                    "duration": 0.09999999999999432
                },
                {
                    "name": "E5",
                    "midi": 76,
                    "time": 167.39999999999853,
                    "velocity": 0.47244094488188976,
                    "duration": 0.09999999999999432
                },
                {
                    "name": "F5",
                    "midi": 77,
                    "time": 167.54999999999853,
                    "velocity": 0.47244094488188976,
                    "duration": 0.09999999999999432
                },
                {
                    "name": "B4",
                    "midi": 71,
                    "time": 167.69999999999854,
                    "velocity": 0.6614173228346457,
                    "duration": 0.29374999999998863
                },
                {
                    "name": "G5",
                    "midi": 79,
                    "time": 167.69999999999854,
                    "velocity": 0.6614173228346457,
                    "duration": 0.29374999999998863
                },
                {
                    "name": "G4",
                    "midi": 67,
                    "time": 169.19999999999854,
                    "velocity": 0.5905511811023622,
                    "duration": 0.09999999999999432
                },
                {
                    "name": "G5",
                    "midi": 79,
                    "time": 169.49999999999852,
                    "velocity": 0.5905511811023622,
                    "duration": 0.09999999999999432
                },
                {
                    "name": "G5",
                    "midi": 79,
                    "time": 169.7999999999985,
                    "velocity": 0.5905511811023622,
                    "duration": 0.09999999999999432
                },
                {
                    "name": "F5",
                    "midi": 77,
                    "time": 170.0999999999985,
                    "velocity": 0.5905511811023622,
                    "duration": 0.09999999999999432
                },
                {
                    "name": "D#5",
                    "midi": 75,
                    "time": 170.39999999999847,
                    "velocity": 0.5905511811023622,
                    "duration": 0.09999999999999432
                },
                {
                    "name": "D#5",
                    "midi": 75,
                    "time": 170.69999999999845,
                    "velocity": 0.5905511811023622,
                    "duration": 0.09999999999999432
                },
                {
                    "name": "D5",
                    "midi": 74,
                    "time": 170.99999999999844,
                    "velocity": 0.5905511811023622,
                    "duration": 0.09999999999999432
                },
                {
                    "name": "C5",
                    "midi": 72,
                    "time": 171.29999999999842,
                    "velocity": 0.5905511811023622,
                    "duration": 0.09999999999999432
                },
                {
                    "name": "B4",
                    "midi": 71,
                    "time": 171.5999999999984,
                    "velocity": 0.5905511811023622,
                    "duration": 0.09999999999999432
                },
                {
                    "name": "C5",
                    "midi": 72,
                    "time": 171.89999999999839,
                    "velocity": 0.5905511811023622,
                    "duration": 0.09999999999999432
                },
                {
                    "name": "B4",
                    "midi": 71,
                    "time": 172.19999999999837,
                    "velocity": 0.5905511811023622,
                    "duration": 0.07499999999998863
                },
                {
                    "name": "C5",
                    "midi": 72,
                    "time": 172.27499999999836,
                    "velocity": 0.5905511811023622,
                    "duration": 0.07499999999998863
                },
                {
                    "name": "D5",
                    "midi": 74,
                    "time": 172.34999999999835,
                    "velocity": 0.5905511811023622,
                    "duration": 0.09999999999999432
                },
                {
                    "name": "G4",
                    "midi": 67,
                    "time": 172.49999999999835,
                    "velocity": 0.5905511811023622,
                    "duration": 0.09999999999999432
                },
                {
                    "name": "G4",
                    "midi": 67,
                    "time": 172.79999999999833,
                    "velocity": 0.5905511811023622,
                    "duration": 0.09999999999999432
                },
                {
                    "name": "A#4",
                    "midi": 70,
                    "time": 173.09999999999832,
                    "velocity": 0.5905511811023622,
                    "duration": 0.07499999999998863
                },
                {
                    "name": "G#4",
                    "midi": 68,
                    "time": 173.1749999999983,
                    "velocity": 0.5905511811023622,
                    "duration": 0.15000000000000568
                },
                {
                    "name": "G4",
                    "midi": 67,
                    "time": 173.3999999999983,
                    "velocity": 0.5905511811023622,
                    "duration": 0.09999999999999432
                },
                {
                    "name": "F4",
                    "midi": 65,
                    "time": 173.69999999999828,
                    "velocity": 0.5905511811023622,
                    "duration": 0.09999999999999432
                },
                {
                    "name": "D#5",
                    "midi": 75,
                    "time": 173.99999999999827,
                    "velocity": 0.5905511811023622,
                    "duration": 0.09999999999999432
                },
                {
                    "name": "D5",
                    "midi": 74,
                    "time": 174.29999999999825,
                    "velocity": 0.5905511811023622,
                    "duration": 0.09999999999999432
                },
                {
                    "name": "C5",
                    "midi": 72,
                    "time": 174.59999999999823,
                    "velocity": 0.5905511811023622,
                    "duration": 0.09999999999999432
                },
                {
                    "name": "F5",
                    "midi": 77,
                    "time": 174.89999999999822,
                    "velocity": 0.5905511811023622,
                    "duration": 0.07499999999998863
                },
                {
                    "name": "D#5",
                    "midi": 75,
                    "time": 174.9749999999982,
                    "velocity": 0.5905511811023622,
                    "duration": 0.15000000000000568
                },
                {
                    "name": "D5",
                    "midi": 74,
                    "time": 175.1999999999982,
                    "velocity": 0.5905511811023622,
                    "duration": 0.09999999999999432
                },
                {
                    "name": "C5",
                    "midi": 72,
                    "time": 175.49999999999818,
                    "velocity": 0.5905511811023622,
                    "duration": 0.09999999999999432
                },
                {
                    "name": "D5",
                    "midi": 74,
                    "time": 175.79999999999816,
                    "velocity": 0.5905511811023622,
                    "duration": 0.5999999999999943
                },
                {
                    "name": "G4",
                    "midi": 67,
                    "time": 176.39999999999816,
                    "velocity": 0.5905511811023622,
                    "duration": 0.30000000000001137
                },
                {
                    "name": "G5",
                    "midi": 79,
                    "time": 176.69999999999817,
                    "velocity": 0.5905511811023622,
                    "duration": 0.09999999999999432
                },
                {
                    "name": "G5",
                    "midi": 79,
                    "time": 176.99999999999815,
                    "velocity": 0.5905511811023622,
                    "duration": 0.09999999999999432
                },
                {
                    "name": "F5",
                    "midi": 77,
                    "time": 177.29999999999814,
                    "velocity": 0.5905511811023622,
                    "duration": 0.09999999999999432
                },
                {
                    "name": "D#5",
                    "midi": 75,
                    "time": 177.59999999999812,
                    "velocity": 0.5905511811023622,
                    "duration": 0.09999999999999432
                },
                {
                    "name": "D#5",
                    "midi": 75,
                    "time": 177.8999999999981,
                    "velocity": 0.5905511811023622,
                    "duration": 0.09999999999999432
                },
                {
                    "name": "D5",
                    "midi": 74,
                    "time": 178.19999999999808,
                    "velocity": 0.5905511811023622,
                    "duration": 0.09999999999999432
                },
                {
                    "name": "C5",
                    "midi": 72,
                    "time": 178.49999999999807,
                    "velocity": 0.5905511811023622,
                    "duration": 0.09999999999999432
                },
                {
                    "name": "B4",
                    "midi": 71,
                    "time": 178.79999999999805,
                    "velocity": 0.5905511811023622,
                    "duration": 0.09999999999999432
                },
                {
                    "name": "C5",
                    "midi": 72,
                    "time": 179.09999999999803,
                    "velocity": 0.5905511811023622,
                    "duration": 0.09999999999999432
                },
                {
                    "name": "B4",
                    "midi": 71,
                    "time": 179.39999999999802,
                    "velocity": 0.5905511811023622,
                    "duration": 0.07499999999998863
                },
                {
                    "name": "C5",
                    "midi": 72,
                    "time": 179.474999999998,
                    "velocity": 0.5905511811023622,
                    "duration": 0.07499999999998863
                },
                {
                    "name": "D5",
                    "midi": 74,
                    "time": 179.549999999998,
                    "velocity": 0.5905511811023622,
                    "duration": 0.09999999999999432
                },
                {
                    "name": "G4",
                    "midi": 67,
                    "time": 179.699999999998,
                    "velocity": 0.5905511811023622,
                    "duration": 0.09999999999999432
                },
                {
                    "name": "G4",
                    "midi": 67,
                    "time": 179.99999999999798,
                    "velocity": 0.5905511811023622,
                    "duration": 0.09999999999999432
                },
                {
                    "name": "A#4",
                    "midi": 70,
                    "time": 180.29999999999797,
                    "velocity": 0.5905511811023622,
                    "duration": 0.07499999999998863
                },
                {
                    "name": "G#4",
                    "midi": 68,
                    "time": 180.37499999999795,
                    "velocity": 0.5905511811023622,
                    "duration": 0.15000000000000568
                },
                {
                    "name": "G4",
                    "midi": 67,
                    "time": 180.59999999999795,
                    "velocity": 0.5905511811023622,
                    "duration": 0.09999999999999432
                },
                {
                    "name": "F4",
                    "midi": 65,
                    "time": 180.89999999999793,
                    "velocity": 0.5905511811023622,
                    "duration": 0.09999999999999432
                },
                {
                    "name": "G4",
                    "midi": 67,
                    "time": 181.1999999999979,
                    "velocity": 0.5905511811023622,
                    "duration": 0.09999999999999432
                },
                {
                    "name": "C5",
                    "midi": 72,
                    "time": 181.4999999999979,
                    "velocity": 0.5905511811023622,
                    "duration": 0.09999999999999432
                },
                {
                    "name": "D#5",
                    "midi": 75,
                    "time": 181.6499999999979,
                    "velocity": 0.5905511811023622,
                    "duration": 0.09999999999999432
                },
                {
                    "name": "G5",
                    "midi": 79,
                    "time": 181.7999999999979,
                    "velocity": 0.5905511811023622,
                    "duration": 0.09999999999999432
                },
                {
                    "name": "G4",
                    "midi": 67,
                    "time": 182.0999999999979,
                    "velocity": 0.5905511811023622,
                    "duration": 0.09999999999999432
                },
                {
                    "name": "B4",
                    "midi": 71,
                    "time": 182.39999999999787,
                    "velocity": 0.5905511811023622,
                    "duration": 0.09999999999999432
                },
                {
                    "name": "D5",
                    "midi": 74,
                    "time": 182.54999999999788,
                    "velocity": 0.5905511811023622,
                    "duration": 0.09999999999999432
                },
                {
                    "name": "G5",
                    "midi": 79,
                    "time": 182.69999999999789,
                    "velocity": 0.5905511811023622,
                    "duration": 0.09999999999999432
                },
                {
                    "name": "C5",
                    "midi": 72,
                    "time": 182.99999999999787,
                    "velocity": 0.5905511811023622,
                    "duration": 0.09999999999999432
                },
                {
                    "name": "C6",
                    "midi": 84,
                    "time": 183.29999999999785,
                    "velocity": 0.5905511811023622,
                    "duration": 0.09999999999999432
                },
                {
                    "name": "G4",
                    "midi": 67,
                    "time": 183.59999999999783,
                    "velocity": 0.7244094488188977,
                    "duration": 0.30000000000001137
                },
                {
                    "name": "G5",
                    "midi": 79,
                    "time": 183.89999999999785,
                    "velocity": 0.7244094488188977,
                    "duration": 0.09999999999999432
                },
                {
                    "name": "G5",
                    "midi": 79,
                    "time": 184.19999999999783,
                    "velocity": 0.7244094488188977,
                    "duration": 0.09999999999999432
                },
                {
                    "name": "F5",
                    "midi": 77,
                    "time": 184.4999999999978,
                    "velocity": 0.7244094488188977,
                    "duration": 0.09999999999999432
                },
                {
                    "name": "D#5",
                    "midi": 75,
                    "time": 184.7999999999978,
                    "velocity": 0.7244094488188977,
                    "duration": 0.09999999999999432
                },
                {
                    "name": "D#5",
                    "midi": 75,
                    "time": 185.09999999999778,
                    "velocity": 0.7244094488188977,
                    "duration": 0.09999999999999432
                },
                {
                    "name": "D5",
                    "midi": 74,
                    "time": 185.39999999999776,
                    "velocity": 0.7244094488188977,
                    "duration": 0.09999999999999432
                },
                {
                    "name": "C5",
                    "midi": 72,
                    "time": 185.69999999999774,
                    "velocity": 0.7244094488188977,
                    "duration": 0.09999999999999432
                },
                {
                    "name": "B4",
                    "midi": 71,
                    "time": 185.99999999999773,
                    "velocity": 0.7244094488188977,
                    "duration": 0.09999999999999432
                },
                {
                    "name": "C5",
                    "midi": 72,
                    "time": 186.2999999999977,
                    "velocity": 0.7244094488188977,
                    "duration": 0.09999999999999432
                },
                {
                    "name": "B4",
                    "midi": 71,
                    "time": 186.5999999999977,
                    "velocity": 0.7244094488188977,
                    "duration": 0.07499999999998863
                },
                {
                    "name": "C5",
                    "midi": 72,
                    "time": 186.67499999999768,
                    "velocity": 0.7244094488188977,
                    "duration": 0.07499999999998863
                },
                {
                    "name": "D5",
                    "midi": 74,
                    "time": 186.74999999999767,
                    "velocity": 0.7244094488188977,
                    "duration": 0.09999999999999432
                },
                {
                    "name": "G4",
                    "midi": 67,
                    "time": 186.89999999999768,
                    "velocity": 0.7244094488188977,
                    "duration": 0.09999999999999432
                },
                {
                    "name": "G4",
                    "midi": 67,
                    "time": 187.19999999999766,
                    "velocity": 0.7244094488188977,
                    "duration": 0.09999999999999432
                },
                {
                    "name": "A#4",
                    "midi": 70,
                    "time": 187.49999999999764,
                    "velocity": 0.7244094488188977,
                    "duration": 0.07499999999998863
                },
                {
                    "name": "G#4",
                    "midi": 68,
                    "time": 187.57499999999763,
                    "velocity": 0.7244094488188977,
                    "duration": 0.15000000000000568
                },
                {
                    "name": "G4",
                    "midi": 67,
                    "time": 187.79999999999762,
                    "velocity": 0.7244094488188977,
                    "duration": 0.09999999999999432
                },
                {
                    "name": "F4",
                    "midi": 65,
                    "time": 188.0999999999976,
                    "velocity": 0.7244094488188977,
                    "duration": 0.09999999999999432
                },
                {
                    "name": "D#5",
                    "midi": 75,
                    "time": 188.3999999999976,
                    "velocity": 0.7244094488188977,
                    "duration": 0.09999999999999432
                },
                {
                    "name": "D5",
                    "midi": 74,
                    "time": 188.69999999999757,
                    "velocity": 0.7244094488188977,
                    "duration": 0.09999999999999432
                },
                {
                    "name": "C5",
                    "midi": 72,
                    "time": 188.99999999999756,
                    "velocity": 0.7244094488188977,
                    "duration": 0.09999999999999432
                },
                {
                    "name": "F5",
                    "midi": 77,
                    "time": 189.29999999999754,
                    "velocity": 0.7244094488188977,
                    "duration": 0.07499999999998863
                },
                {
                    "name": "D#5",
                    "midi": 75,
                    "time": 189.37499999999753,
                    "velocity": 0.7244094488188977,
                    "duration": 0.15000000000000568
                },
                {
                    "name": "D5",
                    "midi": 74,
                    "time": 189.59999999999752,
                    "velocity": 0.7244094488188977,
                    "duration": 0.09999999999999432
                },
                {
                    "name": "C5",
                    "midi": 72,
                    "time": 189.8999999999975,
                    "velocity": 0.7244094488188977,
                    "duration": 0.09999999999999432
                },
                {
                    "name": "D5",
                    "midi": 74,
                    "time": 190.1999999999975,
                    "velocity": 0.7244094488188977,
                    "duration": 0.5999999999999943
                },
                {
                    "name": "G4",
                    "midi": 67,
                    "time": 190.79999999999748,
                    "velocity": 0.7244094488188977,
                    "duration": 0.30000000000001137
                },
                {
                    "name": "G5",
                    "midi": 79,
                    "time": 191.0999999999975,
                    "velocity": 0.7244094488188977,
                    "duration": 0.09999999999999432
                },
                {
                    "name": "G5",
                    "midi": 79,
                    "time": 191.39999999999748,
                    "velocity": 0.7244094488188977,
                    "duration": 0.09999999999999432
                },
                {
                    "name": "F5",
                    "midi": 77,
                    "time": 191.69999999999746,
                    "velocity": 0.7244094488188977,
                    "duration": 0.09999999999999432
                },
                {
                    "name": "D#5",
                    "midi": 75,
                    "time": 191.99999999999744,
                    "velocity": 0.7244094488188977,
                    "duration": 0.09999999999999432
                },
                {
                    "name": "D#5",
                    "midi": 75,
                    "time": 192.29999999999742,
                    "velocity": 0.7244094488188977,
                    "duration": 0.09999999999999432
                },
                {
                    "name": "D5",
                    "midi": 74,
                    "time": 192.5999999999974,
                    "velocity": 0.7244094488188977,
                    "duration": 0.09999999999999432
                },
                {
                    "name": "C5",
                    "midi": 72,
                    "time": 192.8999999999974,
                    "velocity": 0.7244094488188977,
                    "duration": 0.09999999999999432
                },
                {
                    "name": "B4",
                    "midi": 71,
                    "time": 193.19999999999737,
                    "velocity": 0.7244094488188977,
                    "duration": 0.09999999999999432
                },
                {
                    "name": "C5",
                    "midi": 72,
                    "time": 193.49999999999736,
                    "velocity": 0.7244094488188977,
                    "duration": 0.09999999999999432
                },
                {
                    "name": "B4",
                    "midi": 71,
                    "time": 193.79999999999734,
                    "velocity": 0.7244094488188977,
                    "duration": 0.07499999999998863
                },
                {
                    "name": "C5",
                    "midi": 72,
                    "time": 193.87499999999733,
                    "velocity": 0.7244094488188977,
                    "duration": 0.07499999999998863
                },
                {
                    "name": "D5",
                    "midi": 74,
                    "time": 193.94999999999732,
                    "velocity": 0.7244094488188977,
                    "duration": 0.09999999999999432
                },
                {
                    "name": "G4",
                    "midi": 67,
                    "time": 194.09999999999732,
                    "velocity": 0.7244094488188977,
                    "duration": 0.09999999999999432
                },
                {
                    "name": "G4",
                    "midi": 67,
                    "time": 194.3999999999973,
                    "velocity": 0.7244094488188977,
                    "duration": 0.09999999999999432
                },
                {
                    "name": "A#4",
                    "midi": 70,
                    "time": 194.6999999999973,
                    "velocity": 0.7244094488188977,
                    "duration": 0.07499999999998863
                },
                {
                    "name": "G#4",
                    "midi": 68,
                    "time": 194.77499999999728,
                    "velocity": 0.7244094488188977,
                    "duration": 0.15000000000000568
                },
                {
                    "name": "G4",
                    "midi": 67,
                    "time": 194.99999999999727,
                    "velocity": 0.7244094488188977,
                    "duration": 0.09999999999999432
                },
                {
                    "name": "F4",
                    "midi": 65,
                    "time": 195.29999999999725,
                    "velocity": 0.7244094488188977,
                    "duration": 0.09999999999999432
                },
                {
                    "name": "G4",
                    "midi": 67,
                    "time": 195.59999999999724,
                    "velocity": 0.7244094488188977,
                    "duration": 0.09999999999999432
                },
                {
                    "name": "C5",
                    "midi": 72,
                    "time": 195.89999999999722,
                    "velocity": 0.7244094488188977,
                    "duration": 0.09999999999999432
                },
                {
                    "name": "D#5",
                    "midi": 75,
                    "time": 196.04999999999723,
                    "velocity": 0.7244094488188977,
                    "duration": 0.09999999999999432
                },
                {
                    "name": "G5",
                    "midi": 79,
                    "time": 196.19999999999723,
                    "velocity": 0.7244094488188977,
                    "duration": 0.09999999999999432
                },
                {
                    "name": "G4",
                    "midi": 67,
                    "time": 196.49999999999721,
                    "velocity": 0.7244094488188977,
                    "duration": 0.09999999999999432
                },
                {
                    "name": "B4",
                    "midi": 71,
                    "time": 196.7999999999972,
                    "velocity": 0.7244094488188977,
                    "duration": 0.09999999999999432
                },
                {
                    "name": "D5",
                    "midi": 74,
                    "time": 196.9499999999972,
                    "velocity": 0.7244094488188977,
                    "duration": 0.09999999999999432
                },
                {
                    "name": "G5",
                    "midi": 79,
                    "time": 197.0999999999972,
                    "velocity": 0.7244094488188977,
                    "duration": 0.09999999999999432
                },
                {
                    "name": "C5",
                    "midi": 72,
                    "time": 197.3999999999972,
                    "velocity": 0.7244094488188977,
                    "duration": 0.5999999999999943
                },
                {
                    "name": "D#4",
                    "midi": 63,
                    "time": 197.9999999999972,
                    "velocity": 0.5905511811023622,
                    "duration": 0.09999999999999432
                },
                {
                    "name": "D#5",
                    "midi": 75,
                    "time": 197.9999999999972,
                    "velocity": 0.5905511811023622,
                    "duration": 0.09999999999999432
                },
                {
                    "name": "D#4",
                    "midi": 63,
                    "time": 198.29999999999717,
                    "velocity": 0.5905511811023622,
                    "duration": 0.09999999999999432
                },
                {
                    "name": "D5",
                    "midi": 74,
                    "time": 198.29999999999717,
                    "velocity": 0.5905511811023622,
                    "duration": 0.09999999999999432
                },
                {
                    "name": "D#4",
                    "midi": 63,
                    "time": 198.59999999999715,
                    "velocity": 0.5905511811023622,
                    "duration": 0.09999999999999432
                },
                {
                    "name": "C#5",
                    "midi": 73,
                    "time": 198.59999999999715,
                    "velocity": 0.5905511811023622,
                    "duration": 0.09999999999999432
                },
                {
                    "name": "D#4",
                    "midi": 63,
                    "time": 198.89999999999714,
                    "velocity": 0.5905511811023622,
                    "duration": 0.09999999999999432
                },
                {
                    "name": "C5",
                    "midi": 72,
                    "time": 198.89999999999714,
                    "velocity": 0.5905511811023622,
                    "duration": 0.09999999999999432
                },
                {
                    "name": "D#5",
                    "midi": 75,
                    "time": 199.19999999999712,
                    "velocity": 0.5905511811023622,
                    "duration": 0.05000000000001137
                },
                {
                    "name": "F5",
                    "midi": 77,
                    "time": 199.24999999999713,
                    "velocity": 0.5905511811023622,
                    "duration": 0.05000000000001137
                },
                {
                    "name": "D#5",
                    "midi": 75,
                    "time": 199.29999999999714,
                    "velocity": 0.5905511811023622,
                    "duration": 0.05000000000001137
                },
                {
                    "name": "D5",
                    "midi": 74,
                    "time": 199.34999999999715,
                    "velocity": 0.5905511811023622,
                    "duration": 0.07499999999998863
                },
                {
                    "name": "C5",
                    "midi": 72,
                    "time": 199.42499999999714,
                    "velocity": 0.5905511811023622,
                    "duration": 0.07499999999998863
                },
                {
                    "name": "A#4",
                    "midi": 70,
                    "time": 199.49999999999713,
                    "velocity": 0.5905511811023622,
                    "duration": 0.09999999999999432
                },
                {
                    "name": "D#5",
                    "midi": 75,
                    "time": 199.7999999999971,
                    "velocity": 0.5905511811023622,
                    "duration": 0.09999999999999432
                },
                {
                    "name": "F5",
                    "midi": 77,
                    "time": 200.0999999999971,
                    "velocity": 0.5905511811023622,
                    "duration": 0.05000000000001137
                },
                {
                    "name": "G5",
                    "midi": 79,
                    "time": 200.1499999999971,
                    "velocity": 0.5905511811023622,
                    "duration": 0.05000000000001137
                },
                {
                    "name": "F5",
                    "midi": 77,
                    "time": 200.19999999999712,
                    "velocity": 0.5905511811023622,
                    "duration": 0.05000000000001137
                },
                {
                    "name": "D5",
                    "midi": 74,
                    "time": 200.24999999999713,
                    "velocity": 0.5905511811023622,
                    "duration": 0.07499999999998863
                },
                {
                    "name": "C5",
                    "midi": 72,
                    "time": 200.32499999999712,
                    "velocity": 0.5905511811023622,
                    "duration": 0.07499999999998863
                },
                {
                    "name": "A#4",
                    "midi": 70,
                    "time": 200.3999999999971,
                    "velocity": 0.5905511811023622,
                    "duration": 0.09999999999999432
                },
                {
                    "name": "F5",
                    "midi": 77,
                    "time": 200.6999999999971,
                    "velocity": 0.5905511811023622,
                    "duration": 0.09999999999999432
                },
                {
                    "name": "G5",
                    "midi": 79,
                    "time": 200.99999999999707,
                    "velocity": 0.5905511811023622,
                    "duration": 0.30000000000001137
                },
                {
                    "name": "D#5",
                    "midi": 75,
                    "time": 201.29999999999708,
                    "velocity": 0.5905511811023622,
                    "duration": 0.09999999999999432
                },
                {
                    "name": "G4",
                    "midi": 67,
                    "time": 201.59999999999707,
                    "velocity": 0.5905511811023622,
                    "duration": 0.09999999999999432
                },
                {
                    "name": "G5",
                    "midi": 79,
                    "time": 201.59999999999707,
                    "velocity": 0.5905511811023622,
                    "duration": 0.09999999999999432
                },
                {
                    "name": "G4",
                    "midi": 67,
                    "time": 201.89999999999705,
                    "velocity": 0.5905511811023622,
                    "duration": 0.09999999999999432
                },
                {
                    "name": "F#5",
                    "midi": 78,
                    "time": 201.89999999999705,
                    "velocity": 0.5905511811023622,
                    "duration": 0.09999999999999432
                },
                {
                    "name": "G4",
                    "midi": 67,
                    "time": 202.19999999999703,
                    "velocity": 0.5905511811023622,
                    "duration": 0.09999999999999432
                },
                {
                    "name": "F5",
                    "midi": 77,
                    "time": 202.19999999999703,
                    "velocity": 0.5905511811023622,
                    "duration": 0.09999999999999432
                },
                {
                    "name": "G4",
                    "midi": 67,
                    "time": 202.49999999999702,
                    "velocity": 0.5905511811023622,
                    "duration": 0.09999999999999432
                },
                {
                    "name": "D#5",
                    "midi": 75,
                    "time": 202.49999999999702,
                    "velocity": 0.5905511811023622,
                    "duration": 0.09999999999999432
                },
                {
                    "name": "G5",
                    "midi": 79,
                    "time": 202.799999999997,
                    "velocity": 0.5905511811023622,
                    "duration": 0.05000000000001137
                },
                {
                    "name": "A5",
                    "midi": 81,
                    "time": 202.849999999997,
                    "velocity": 0.5905511811023622,
                    "duration": 0.05000000000001137
                },
                {
                    "name": "G5",
                    "midi": 79,
                    "time": 202.89999999999702,
                    "velocity": 0.5905511811023622,
                    "duration": 0.05000000000001137
                },
                {
                    "name": "F#5",
                    "midi": 78,
                    "time": 202.94999999999703,
                    "velocity": 0.5905511811023622,
                    "duration": 0.07499999999998863
                },
                {
                    "name": "E5",
                    "midi": 76,
                    "time": 203.02499999999702,
                    "velocity": 0.5905511811023622,
                    "duration": 0.07499999999998863
                },
                {
                    "name": "D5",
                    "midi": 74,
                    "time": 203.099999999997,
                    "velocity": 0.5905511811023622,
                    "duration": 0.09999999999999432
                },
                {
                    "name": "G5",
                    "midi": 79,
                    "time": 203.399999999997,
                    "velocity": 0.5905511811023622,
                    "duration": 0.09999999999999432
                },
                {
                    "name": "A5",
                    "midi": 81,
                    "time": 203.69999999999698,
                    "velocity": 0.5905511811023622,
                    "duration": 0.05000000000001137
                },
                {
                    "name": "B5",
                    "midi": 83,
                    "time": 203.749999999997,
                    "velocity": 0.5905511811023622,
                    "duration": 0.05000000000001137
                },
                {
                    "name": "A5",
                    "midi": 81,
                    "time": 203.799999999997,
                    "velocity": 0.5905511811023622,
                    "duration": 0.05000000000001137
                },
                {
                    "name": "F#5",
                    "midi": 78,
                    "time": 203.849999999997,
                    "velocity": 0.5905511811023622,
                    "duration": 0.07499999999998863
                },
                {
                    "name": "E5",
                    "midi": 76,
                    "time": 203.924999999997,
                    "velocity": 0.5905511811023622,
                    "duration": 0.07499999999998863
                },
                {
                    "name": "D5",
                    "midi": 74,
                    "time": 203.999999999997,
                    "velocity": 0.5905511811023622,
                    "duration": 0.09999999999999432
                },
                {
                    "name": "A5",
                    "midi": 81,
                    "time": 204.29999999999697,
                    "velocity": 0.5905511811023622,
                    "duration": 0.09999999999999432
                },
                {
                    "name": "A#5",
                    "midi": 82,
                    "time": 204.59999999999695,
                    "velocity": 0.5905511811023622,
                    "duration": 0.30000000000001137
                },
                {
                    "name": "G5",
                    "midi": 79,
                    "time": 204.89999999999696,
                    "velocity": 0.5905511811023622,
                    "duration": 0.09999999999999432
                },
                {
                    "name": "A#4",
                    "midi": 70,
                    "time": 205.19999999999695,
                    "velocity": 0.5905511811023622,
                    "duration": 0.09999999999999432
                },
                {
                    "name": "A#5",
                    "midi": 82,
                    "time": 205.19999999999695,
                    "velocity": 0.5905511811023622,
                    "duration": 0.09999999999999432
                },
                {
                    "name": "A#4",
                    "midi": 70,
                    "time": 205.49999999999693,
                    "velocity": 0.5905511811023622,
                    "duration": 0.09999999999999432
                },
                {
                    "name": "A5",
                    "midi": 81,
                    "time": 205.49999999999693,
                    "velocity": 0.5905511811023622,
                    "duration": 0.09999999999999432
                },
                {
                    "name": "A#4",
                    "midi": 70,
                    "time": 205.7999999999969,
                    "velocity": 0.5905511811023622,
                    "duration": 0.09999999999999432
                },
                {
                    "name": "G#5",
                    "midi": 80,
                    "time": 205.7999999999969,
                    "velocity": 0.5905511811023622,
                    "duration": 0.09999999999999432
                },
                {
                    "name": "A#4",
                    "midi": 70,
                    "time": 206.0999999999969,
                    "velocity": 0.5905511811023622,
                    "duration": 0.09999999999999432
                },
                {
                    "name": "G5",
                    "midi": 79,
                    "time": 206.0999999999969,
                    "velocity": 0.5905511811023622,
                    "duration": 0.09999999999999432
                },
                {
                    "name": "A#5",
                    "midi": 82,
                    "time": 206.39999999999688,
                    "velocity": 0.5905511811023622,
                    "duration": 0.05000000000001137
                },
                {
                    "name": "C6",
                    "midi": 84,
                    "time": 206.4499999999969,
                    "velocity": 0.5905511811023622,
                    "duration": 0.05000000000001137
                },
                {
                    "name": "A#5",
                    "midi": 82,
                    "time": 206.4999999999969,
                    "velocity": 0.5905511811023622,
                    "duration": 0.05000000000001137
                },
                {
                    "name": "A5",
                    "midi": 81,
                    "time": 206.5499999999969,
                    "velocity": 0.5905511811023622,
                    "duration": 0.07499999999998863
                },
                {
                    "name": "G5",
                    "midi": 79,
                    "time": 206.6249999999969,
                    "velocity": 0.5905511811023622,
                    "duration": 0.07499999999998863
                },
                {
                    "name": "F5",
                    "midi": 77,
                    "time": 206.6999999999969,
                    "velocity": 0.5905511811023622,
                    "duration": 0.09999999999999432
                },
                {
                    "name": "A#5",
                    "midi": 82,
                    "time": 206.99999999999687,
                    "velocity": 0.5905511811023622,
                    "duration": 0.09999999999999432
                },
                {
                    "name": "C6",
                    "midi": 84,
                    "time": 207.29999999999686,
                    "velocity": 0.5905511811023622,
                    "duration": 0.05000000000001137
                },
                {
                    "name": "D6",
                    "midi": 86,
                    "time": 207.34999999999687,
                    "velocity": 0.5905511811023622,
                    "duration": 0.05000000000001137
                },
                {
                    "name": "C6",
                    "midi": 84,
                    "time": 207.39999999999688,
                    "velocity": 0.5905511811023622,
                    "duration": 0.05000000000001137
                },
                {
                    "name": "A5",
                    "midi": 81,
                    "time": 207.4499999999969,
                    "velocity": 0.5905511811023622,
                    "duration": 0.07499999999998863
                },
                {
                    "name": "G5",
                    "midi": 79,
                    "time": 207.52499999999688,
                    "velocity": 0.5905511811023622,
                    "duration": 0.07499999999998863
                },
                {
                    "name": "F5",
                    "midi": 77,
                    "time": 207.59999999999687,
                    "velocity": 0.5905511811023622,
                    "duration": 0.09999999999999432
                },
                {
                    "name": "C5",
                    "midi": 72,
                    "time": 207.89999999999685,
                    "velocity": 0.5905511811023622,
                    "duration": 0.09999999999999432
                },
                {
                    "name": "D5",
                    "midi": 74,
                    "time": 208.19999999999683,
                    "velocity": 0.5905511811023622,
                    "duration": 0.07499999999998863
                },
                {
                    "name": "D#5",
                    "midi": 75,
                    "time": 208.27499999999682,
                    "velocity": 0.5905511811023622,
                    "duration": 0.07499999999998863
                },
                {
                    "name": "D5",
                    "midi": 74,
                    "time": 208.3499999999968,
                    "velocity": 0.5905511811023622,
                    "duration": 0.07499999999998863
                },
                {
                    "name": "D#5",
                    "midi": 75,
                    "time": 208.4249999999968,
                    "velocity": 0.5905511811023622,
                    "duration": 0.07499999999998863
                },
                {
                    "name": "F5",
                    "midi": 77,
                    "time": 208.4999999999968,
                    "velocity": 0.5905511811023622,
                    "duration": 0.09999999999999432
                },
                {
                    "name": "D#5",
                    "midi": 75,
                    "time": 208.79999999999677,
                    "velocity": 0.5905511811023622,
                    "duration": 0.09999999999999432
                },
                {
                    "name": "D5",
                    "midi": 74,
                    "time": 208.94999999999678,
                    "velocity": 0.5905511811023622,
                    "duration": 0.09999999999999432
                },
                {
                    "name": "C5",
                    "midi": 72,
                    "time": 209.09999999999678,
                    "velocity": 0.5905511811023622,
                    "duration": 0.07499999999998863
                },
                {
                    "name": "D5",
                    "midi": 74,
                    "time": 209.17499999999677,
                    "velocity": 0.5905511811023622,
                    "duration": 0.07499999999998863
                },
                {
                    "name": "C5",
                    "midi": 72,
                    "time": 209.24999999999676,
                    "velocity": 0.5905511811023622,
                    "duration": 0.07499999999998863
                },
                {
                    "name": "D5",
                    "midi": 74,
                    "time": 209.32499999999675,
                    "velocity": 0.5905511811023622,
                    "duration": 0.07499999999998863
                },
                {
                    "name": "D#5",
                    "midi": 75,
                    "time": 209.39999999999674,
                    "velocity": 0.5905511811023622,
                    "duration": 0.09999999999999432
                },
                {
                    "name": "D5",
                    "midi": 74,
                    "time": 209.69999999999672,
                    "velocity": 0.5905511811023622,
                    "duration": 0.09999999999999432
                },
                {
                    "name": "C5",
                    "midi": 72,
                    "time": 209.84999999999673,
                    "velocity": 0.5905511811023622,
                    "duration": 0.09999999999999432
                },
                {
                    "name": "A#4",
                    "midi": 70,
                    "time": 209.99999999999673,
                    "velocity": 0.5905511811023622,
                    "duration": 0.07499999999998863
                },
                {
                    "name": "C5",
                    "midi": 72,
                    "time": 210.07499999999672,
                    "velocity": 0.5905511811023622,
                    "duration": 0.07499999999998863
                },
                {
                    "name": "A#4",
                    "midi": 70,
                    "time": 210.1499999999967,
                    "velocity": 0.5905511811023622,
                    "duration": 0.07499999999998863
                },
                {
                    "name": "C5",
                    "midi": 72,
                    "time": 210.2249999999967,
                    "velocity": 0.5905511811023622,
                    "duration": 0.07499999999998863
                },
                {
                    "name": "D5",
                    "midi": 74,
                    "time": 210.2999999999967,
                    "velocity": 0.5905511811023622,
                    "duration": 0.09999999999999432
                },
                {
                    "name": "C5",
                    "midi": 72,
                    "time": 210.59999999999667,
                    "velocity": 0.5905511811023622,
                    "duration": 0.09999999999999432
                },
                {
                    "name": "A#4",
                    "midi": 70,
                    "time": 210.74999999999667,
                    "velocity": 0.5905511811023622,
                    "duration": 0.09999999999999432
                },
                {
                    "name": "A4",
                    "midi": 69,
                    "time": 210.89999999999668,
                    "velocity": 0.5905511811023622,
                    "duration": 0.07499999999998863
                },
                {
                    "name": "A#4",
                    "midi": 70,
                    "time": 210.97499999999667,
                    "velocity": 0.5905511811023622,
                    "duration": 0.07499999999998863
                },
                {
                    "name": "A4",
                    "midi": 69,
                    "time": 211.04999999999666,
                    "velocity": 0.5905511811023622,
                    "duration": 0.07499999999998863
                },
                {
                    "name": "A#4",
                    "midi": 70,
                    "time": 211.12499999999665,
                    "velocity": 0.5905511811023622,
                    "duration": 0.07499999999998863
                },
                {
                    "name": "C5",
                    "midi": 72,
                    "time": 211.19999999999663,
                    "velocity": 0.5905511811023622,
                    "duration": 0.09999999999999432
                },
                {
                    "name": "A#4",
                    "midi": 70,
                    "time": 211.49999999999662,
                    "velocity": 0.5905511811023622,
                    "duration": 0.09999999999999432
                },
                {
                    "name": "A4",
                    "midi": 69,
                    "time": 211.64999999999662,
                    "velocity": 0.5905511811023622,
                    "duration": 0.09999999999999432
                },
                {
                    "name": "A#4",
                    "midi": 70,
                    "time": 211.79999999999663,
                    "velocity": 0.5905511811023622,
                    "duration": 0.5999999999999943
                },
                {
                    "name": "B4",
                    "midi": 71,
                    "time": 212.39999999999662,
                    "velocity": 0.5905511811023622,
                    "duration": 0.30000000000001137
                },
                {
                    "name": "C5",
                    "midi": 72,
                    "time": 212.69999999999663,
                    "velocity": 0.8267716535433071,
                    "duration": 1.1937499999999943
                },
                {
                    "name": "A#4",
                    "midi": 70,
                    "time": 213.89999999999662,
                    "velocity": 0.5905511811023622,
                    "duration": 0.09999999999999432
                },
                {
                    "name": "G#4",
                    "midi": 68,
                    "time": 214.1999999999966,
                    "velocity": 0.5905511811023622,
                    "duration": 0.09999999999999432
                },
                {
                    "name": "G4",
                    "midi": 67,
                    "time": 214.4999999999966,
                    "velocity": 0.5905511811023622,
                    "duration": 0.09999999999999432
                },
                {
                    "name": "G#4",
                    "midi": 68,
                    "time": 214.59999999999658,
                    "velocity": 0.5905511811023622,
                    "duration": 0.09999999999999432
                },
                {
                    "name": "G4",
                    "midi": 67,
                    "time": 214.69999999999658,
                    "velocity": 0.5905511811023622,
                    "duration": 0.09999999999999432
                },
                {
                    "name": "F4",
                    "midi": 65,
                    "time": 214.79999999999657,
                    "velocity": 0.5905511811023622,
                    "duration": 0.09999999999999432
                },
                {
                    "name": "G4",
                    "midi": 67,
                    "time": 215.09999999999656,
                    "velocity": 0.5905511811023622,
                    "duration": 0.09999999999999432
                },
                {
                    "name": "G#4",
                    "midi": 68,
                    "time": 215.39999999999654,
                    "velocity": 0.5905511811023622,
                    "duration": 0.30000000000001137
                },
                {
                    "name": "F5",
                    "midi": 77,
                    "time": 215.69999999999655,
                    "velocity": 0.5905511811023622,
                    "duration": 0.09999999999999432
                },
                {
                    "name": "F4",
                    "midi": 65,
                    "time": 215.99999999999653,
                    "velocity": 0.5905511811023622,
                    "duration": 0.09999999999999432
                },
                {
                    "name": "A#4",
                    "midi": 70,
                    "time": 216.29999999999652,
                    "velocity": 0.8267716535433071,
                    "duration": 1.1937499999999943
                },
                {
                    "name": "G#4",
                    "midi": 68,
                    "time": 217.4999999999965,
                    "velocity": 0.5905511811023622,
                    "duration": 0.09999999999999432
                },
                {
                    "name": "G4",
                    "midi": 67,
                    "time": 217.7999999999965,
                    "velocity": 0.5905511811023622,
                    "duration": 0.09999999999999432
                },
                {
                    "name": "F4",
                    "midi": 65,
                    "time": 218.09999999999647,
                    "velocity": 0.5905511811023622,
                    "duration": 0.09999999999999432
                },
                {
                    "name": "G4",
                    "midi": 67,
                    "time": 218.19999999999646,
                    "velocity": 0.5905511811023622,
                    "duration": 0.09999999999999432
                },
                {
                    "name": "F4",
                    "midi": 65,
                    "time": 218.29999999999646,
                    "velocity": 0.5905511811023622,
                    "duration": 0.09999999999999432
                },
                {
                    "name": "D#4",
                    "midi": 63,
                    "time": 218.39999999999645,
                    "velocity": 0.5905511811023622,
                    "duration": 0.09999999999999432
                },
                {
                    "name": "F4",
                    "midi": 65,
                    "time": 218.69999999999644,
                    "velocity": 0.5905511811023622,
                    "duration": 0.09999999999999432
                },
                {
                    "name": "G4",
                    "midi": 67,
                    "time": 218.99999999999642,
                    "velocity": 0.5905511811023622,
                    "duration": 0.30000000000001137
                },
                {
                    "name": "D#5",
                    "midi": 75,
                    "time": 219.29999999999643,
                    "velocity": 0.5905511811023622,
                    "duration": 0.09999999999999432
                },
                {
                    "name": "D#4",
                    "midi": 63,
                    "time": 219.5999999999964,
                    "velocity": 0.5905511811023622,
                    "duration": 0.09999999999999432
                },
                {
                    "name": "G4",
                    "midi": 67,
                    "time": 219.8999999999964,
                    "velocity": 0.5905511811023622,
                    "duration": 1.1937499999999943
                },
                {
                    "name": "G5",
                    "midi": 79,
                    "time": 221.09999999999638,
                    "velocity": 0.5905511811023622,
                    "duration": 0.09999999999999432
                },
                {
                    "name": "G5",
                    "midi": 79,
                    "time": 221.39999999999637,
                    "velocity": 0.5905511811023622,
                    "duration": 0.09999999999999432
                },
                {
                    "name": "G#5",
                    "midi": 80,
                    "time": 221.69999999999635,
                    "velocity": 0.5905511811023622,
                    "duration": 0.15000000000000568
                },
                {
                    "name": "G5",
                    "midi": 79,
                    "time": 221.84999999999636,
                    "velocity": 0.5905511811023622,
                    "duration": 0.09999999999999432
                },
                {
                    "name": "F5",
                    "midi": 77,
                    "time": 221.99999999999636,
                    "velocity": 0.5905511811023622,
                    "duration": 0.09999999999999432
                },
                {
                    "name": "D#5",
                    "midi": 75,
                    "time": 222.14999999999637,
                    "velocity": 0.5905511811023622,
                    "duration": 0.09999999999999432
                },
                {
                    "name": "D5",
                    "midi": 74,
                    "time": 222.29999999999637,
                    "velocity": 0.5905511811023622,
                    "duration": 0.09999999999999432
                },
                {
                    "name": "C5",
                    "midi": 72,
                    "time": 222.44999999999638,
                    "velocity": 0.5905511811023622,
                    "duration": 0.09999999999999432
                },
                {
                    "name": "B4",
                    "midi": 71,
                    "time": 222.59999999999638,
                    "velocity": 0.5905511811023622,
                    "duration": 0.30000000000001137
                },
                {
                    "name": "G4",
                    "midi": 67,
                    "time": 222.8999999999964,
                    "velocity": 0.5905511811023622,
                    "duration": 0.09999999999999432
                },
                {
                    "name": "G4",
                    "midi": 67,
                    "time": 223.19999999999638,
                    "velocity": 0.5905511811023622,
                    "duration": 0.09999999999999432
                },
                {
                    "name": "G5",
                    "midi": 79,
                    "time": 223.49999999999636,
                    "velocity": 0.5905511811023622,
                    "duration": 1.1937499999999943
                },
                {
                    "name": "G5",
                    "midi": 79,
                    "time": 224.69999999999635,
                    "velocity": 0.5905511811023622,
                    "duration": 0.09999999999999432
                },
                {
                    "name": "G5",
                    "midi": 79,
                    "time": 224.99999999999633,
                    "velocity": 0.5905511811023622,
                    "duration": 0.09999999999999432
                },
                {
                    "name": "G#5",
                    "midi": 80,
                    "time": 225.29999999999632,
                    "velocity": 0.5905511811023622,
                    "duration": 0.15000000000000568
                },
                {
                    "name": "G5",
                    "midi": 79,
                    "time": 225.44999999999632,
                    "velocity": 0.5905511811023622,
                    "duration": 0.09999999999999432
                },
                {
                    "name": "F5",
                    "midi": 77,
                    "time": 225.59999999999633,
                    "velocity": 0.5905511811023622,
                    "duration": 0.09999999999999432
                },
                {
                    "name": "D#5",
                    "midi": 75,
                    "time": 225.74999999999633,
                    "velocity": 0.5905511811023622,
                    "duration": 0.09999999999999432
                },
                {
                    "name": "D5",
                    "midi": 74,
                    "time": 225.89999999999634,
                    "velocity": 0.5905511811023622,
                    "duration": 0.09999999999999432
                },
                {
                    "name": "C5",
                    "midi": 72,
                    "time": 226.04999999999634,
                    "velocity": 0.5905511811023622,
                    "duration": 0.09999999999999432
                },
                {
                    "name": "B4",
                    "midi": 71,
                    "time": 226.19999999999635,
                    "velocity": 0.5905511811023622,
                    "duration": 0.5999999999999943
                },
                {
                    "name": "G4",
                    "midi": 67,
                    "time": 226.79999999999634,
                    "velocity": 0.5905511811023622,
                    "duration": 0.09999999999999432
                },
                {
                    "name": "G5",
                    "midi": 79,
                    "time": 227.09999999999633,
                    "velocity": 0.3543307086614173,
                    "duration": 0.09999999999999432
                },
                {
                    "name": "G5",
                    "midi": 79,
                    "time": 227.3999999999963,
                    "velocity": 0.3543307086614173,
                    "duration": 0.09999999999999432
                },
                {
                    "name": "G5",
                    "midi": 79,
                    "time": 227.6999999999963,
                    "velocity": 0.3543307086614173,
                    "duration": 0.09999999999999432
                },
                {
                    "name": "G4",
                    "midi": 67,
                    "time": 227.99999999999628,
                    "velocity": 0.3543307086614173,
                    "duration": 0.09999999999999432
                },
                {
                    "name": "G5",
                    "midi": 79,
                    "time": 227.99999999999628,
                    "velocity": 0.3543307086614173,
                    "duration": 0.09999999999999432
                },
                {
                    "name": "G4",
                    "midi": 67,
                    "time": 228.29999999999626,
                    "velocity": 0.3543307086614173,
                    "duration": 0.09999999999999432
                },
                {
                    "name": "G5",
                    "midi": 79,
                    "time": 228.29999999999626,
                    "velocity": 0.3543307086614173,
                    "duration": 0.09999999999999432
                },
                {
                    "name": "G4",
                    "midi": 67,
                    "time": 228.59999999999624,
                    "velocity": 0.3543307086614173,
                    "duration": 0.09999999999999432
                },
                {
                    "name": "G5",
                    "midi": 79,
                    "time": 228.59999999999624,
                    "velocity": 0.3543307086614173,
                    "duration": 0.09999999999999432
                },
                {
                    "name": "G4",
                    "midi": 67,
                    "time": 228.89999999999623,
                    "velocity": 0.3543307086614173,
                    "duration": 0.09999999999999432
                },
                {
                    "name": "G4",
                    "midi": 67,
                    "time": 229.1999999999962,
                    "velocity": 0.3543307086614173,
                    "duration": 0.09999999999999432
                },
                {
                    "name": "G4",
                    "midi": 67,
                    "time": 229.4999999999962,
                    "velocity": 0.3543307086614173,
                    "duration": 0.09999999999999432
                },
                {
                    "name": "G4",
                    "midi": 67,
                    "time": 231.29999999999617,
                    "velocity": 0.5905511811023622,
                    "duration": 0.09999999999999432
                },
                {
                    "name": "G5",
                    "midi": 79,
                    "time": 231.59999999999616,
                    "velocity": 0.5905511811023622,
                    "duration": 0.09999999999999432
                },
                {
                    "name": "G5",
                    "midi": 79,
                    "time": 231.89999999999614,
                    "velocity": 0.5905511811023622,
                    "duration": 0.09999999999999432
                },
                {
                    "name": "F5",
                    "midi": 77,
                    "time": 232.19999999999612,
                    "velocity": 0.5905511811023622,
                    "duration": 0.09999999999999432
                },
                {
                    "name": "D#5",
                    "midi": 75,
                    "time": 232.4999999999961,
                    "velocity": 0.5905511811023622,
                    "duration": 0.09999999999999432
                },
                {
                    "name": "D#5",
                    "midi": 75,
                    "time": 232.7999999999961,
                    "velocity": 0.5905511811023622,
                    "duration": 0.09999999999999432
                },
                {
                    "name": "D5",
                    "midi": 74,
                    "time": 233.09999999999607,
                    "velocity": 0.5905511811023622,
                    "duration": 0.09999999999999432
                },
                {
                    "name": "C5",
                    "midi": 72,
                    "time": 233.39999999999606,
                    "velocity": 0.5905511811023622,
                    "duration": 0.09999999999999432
                },
                {
                    "name": "B4",
                    "midi": 71,
                    "time": 233.69999999999604,
                    "velocity": 0.5905511811023622,
                    "duration": 0.09999999999999432
                },
                {
                    "name": "C5",
                    "midi": 72,
                    "time": 233.99999999999602,
                    "velocity": 0.5905511811023622,
                    "duration": 0.09999999999999432
                },
                {
                    "name": "B4",
                    "midi": 71,
                    "time": 234.299999999996,
                    "velocity": 0.5905511811023622,
                    "duration": 0.07499999999998863
                },
                {
                    "name": "C5",
                    "midi": 72,
                    "time": 234.374999999996,
                    "velocity": 0.5905511811023622,
                    "duration": 0.07499999999998863
                },
                {
                    "name": "D5",
                    "midi": 74,
                    "time": 234.44999999999598,
                    "velocity": 0.5905511811023622,
                    "duration": 0.09999999999999432
                },
                {
                    "name": "G4",
                    "midi": 67,
                    "time": 234.599999999996,
                    "velocity": 0.5905511811023622,
                    "duration": 0.09999999999999432
                },
                {
                    "name": "G4",
                    "midi": 67,
                    "time": 234.89999999999597,
                    "velocity": 0.5905511811023622,
                    "duration": 0.09999999999999432
                },
                {
                    "name": "A#4",
                    "midi": 70,
                    "time": 235.19999999999595,
                    "velocity": 0.5905511811023622,
                    "duration": 0.07499999999998863
                },
                {
                    "name": "G#4",
                    "midi": 68,
                    "time": 235.27499999999594,
                    "velocity": 0.5905511811023622,
                    "duration": 0.15000000000000568
                },
                {
                    "name": "G4",
                    "midi": 67,
                    "time": 235.49999999999594,
                    "velocity": 0.5905511811023622,
                    "duration": 0.09999999999999432
                },
                {
                    "name": "F4",
                    "midi": 65,
                    "time": 235.79999999999592,
                    "velocity": 0.5905511811023622,
                    "duration": 0.09999999999999432
                },
                {
                    "name": "D#4",
                    "midi": 63,
                    "time": 236.0999999999959,
                    "velocity": 0.5905511811023622,
                    "duration": 0.09999999999999432
                },
                {
                    "name": "D4",
                    "midi": 62,
                    "time": 236.39999999999588,
                    "velocity": 0.5905511811023622,
                    "duration": 0.09999999999999432
                },
                {
                    "name": "C4",
                    "midi": 60,
                    "time": 236.69999999999587,
                    "velocity": 0.5905511811023622,
                    "duration": 0.09999999999999432
                },
                {
                    "name": "F4",
                    "midi": 65,
                    "time": 236.99999999999585,
                    "velocity": 0.5905511811023622,
                    "duration": 0.07499999999998863
                },
                {
                    "name": "D#4",
                    "midi": 63,
                    "time": 237.07499999999584,
                    "velocity": 0.5905511811023622,
                    "duration": 0.15000000000000568
                },
                {
                    "name": "D4",
                    "midi": 62,
                    "time": 237.29999999999583,
                    "velocity": 0.5905511811023622,
                    "duration": 0.09999999999999432
                },
                {
                    "name": "C4",
                    "midi": 60,
                    "time": 237.59999999999582,
                    "velocity": 0.5905511811023622,
                    "duration": 0.09999999999999432
                },
                {
                    "name": "D4",
                    "midi": 62,
                    "time": 237.8999999999958,
                    "velocity": 0.5905511811023622,
                    "duration": 0.5999999999999943
                },
                {
                    "name": "G4",
                    "midi": 67,
                    "time": 238.4999999999958,
                    "velocity": 0.5905511811023622,
                    "duration": 0.30000000000001137
                },
                {
                    "name": "G5",
                    "midi": 79,
                    "time": 238.7999999999958,
                    "velocity": 0.5905511811023622,
                    "duration": 0.09999999999999432
                },
                {
                    "name": "G5",
                    "midi": 79,
                    "time": 239.0999999999958,
                    "velocity": 0.5905511811023622,
                    "duration": 0.09999999999999432
                },
                {
                    "name": "F5",
                    "midi": 77,
                    "time": 239.39999999999577,
                    "velocity": 0.5905511811023622,
                    "duration": 0.09999999999999432
                },
                {
                    "name": "E5",
                    "midi": 76,
                    "time": 239.69999999999575,
                    "velocity": 0.5905511811023622,
                    "duration": 0.09999999999999432
                },
                {
                    "name": "E5",
                    "midi": 76,
                    "time": 239.99999999999574,
                    "velocity": 0.5905511811023622,
                    "duration": 0.09999999999999432
                },
                {
                    "name": "D5",
                    "midi": 74,
                    "time": 240.29999999999572,
                    "velocity": 0.5905511811023622,
                    "duration": 0.09999999999999432
                },
                {
                    "name": "C5",
                    "midi": 72,
                    "time": 240.5999999999957,
                    "velocity": 0.5905511811023622,
                    "duration": 0.09999999999999432
                },
                {
                    "name": "C5",
                    "midi": 72,
                    "time": 240.89999999999569,
                    "velocity": 0.5905511811023622,
                    "duration": 0.09999999999999432
                },
                {
                    "name": "A#4",
                    "midi": 70,
                    "time": 241.19999999999567,
                    "velocity": 0.5905511811023622,
                    "duration": 0.09999999999999432
                },
                {
                    "name": "A4",
                    "midi": 69,
                    "time": 241.49999999999565,
                    "velocity": 0.5905511811023622,
                    "duration": 0.09999999999999432
                },
                {
                    "name": "G4",
                    "midi": 67,
                    "time": 241.79999999999563,
                    "velocity": 0.5905511811023622,
                    "duration": 0.09999999999999432
                },
                {
                    "name": "F4",
                    "midi": 65,
                    "time": 242.09999999999562,
                    "velocity": 0.5905511811023622,
                    "duration": 0.09999999999999432
                },
                {
                    "name": "A#4",
                    "midi": 70,
                    "time": 242.3999999999956,
                    "velocity": 0.5905511811023622,
                    "duration": 0.07499999999998863
                },
                {
                    "name": "G#4",
                    "midi": 68,
                    "time": 242.4749999999956,
                    "velocity": 0.5905511811023622,
                    "duration": 0.15000000000000568
                },
                {
                    "name": "G4",
                    "midi": 67,
                    "time": 242.69999999999558,
                    "velocity": 0.5905511811023622,
                    "duration": 0.09999999999999432
                },
                {
                    "name": "F4",
                    "midi": 65,
                    "time": 242.99999999999557,
                    "velocity": 0.5905511811023622,
                    "duration": 0.09999999999999432
                },
                {
                    "name": "G4",
                    "midi": 67,
                    "time": 243.29999999999555,
                    "velocity": 0.5905511811023622,
                    "duration": 0.09999999999999432
                },
                {
                    "name": "C5",
                    "midi": 72,
                    "time": 243.59999999999553,
                    "velocity": 0.5905511811023622,
                    "duration": 0.09999999999999432
                },
                {
                    "name": "D#5",
                    "midi": 75,
                    "time": 243.74999999999554,
                    "velocity": 0.5905511811023622,
                    "duration": 0.09999999999999432
                },
                {
                    "name": "G5",
                    "midi": 79,
                    "time": 243.89999999999554,
                    "velocity": 0.5905511811023622,
                    "duration": 0.09999999999999432
                },
                {
                    "name": "G4",
                    "midi": 67,
                    "time": 244.19999999999553,
                    "velocity": 0.5905511811023622,
                    "duration": 0.09999999999999432
                },
                {
                    "name": "B4",
                    "midi": 71,
                    "time": 244.4999999999955,
                    "velocity": 0.5905511811023622,
                    "duration": 0.09999999999999432
                },
                {
                    "name": "D5",
                    "midi": 74,
                    "time": 244.64999999999552,
                    "velocity": 0.5905511811023622,
                    "duration": 0.09999999999999432
                },
                {
                    "name": "G5",
                    "midi": 79,
                    "time": 244.79999999999552,
                    "velocity": 0.5905511811023622,
                    "duration": 0.09999999999999432
                },
                {
                    "name": "C5",
                    "midi": 72,
                    "time": 245.0999999999955,
                    "velocity": 0.5905511811023622,
                    "duration": 0.09999999999999432
                },
                {
                    "name": "C6",
                    "midi": 84,
                    "time": 245.3999999999955,
                    "velocity": 0.5905511811023622,
                    "duration": 0.09999999999999432
                },
                {
                    "name": "G4",
                    "midi": 67,
                    "time": 245.69999999999547,
                    "velocity": 0.7244094488188977,
                    "duration": 0.30000000000001137
                },
                {
                    "name": "G5",
                    "midi": 79,
                    "time": 245.99999999999548,
                    "velocity": 0.7244094488188977,
                    "duration": 0.09999999999999432
                },
                {
                    "name": "G5",
                    "midi": 79,
                    "time": 246.29999999999546,
                    "velocity": 0.7244094488188977,
                    "duration": 0.09999999999999432
                },
                {
                    "name": "F5",
                    "midi": 77,
                    "time": 246.59999999999545,
                    "velocity": 0.7244094488188977,
                    "duration": 0.09999999999999432
                },
                {
                    "name": "D#5",
                    "midi": 75,
                    "time": 246.89999999999543,
                    "velocity": 0.7244094488188977,
                    "duration": 0.09999999999999432
                },
                {
                    "name": "D#5",
                    "midi": 75,
                    "time": 247.1999999999954,
                    "velocity": 0.7244094488188977,
                    "duration": 0.09999999999999432
                },
                {
                    "name": "D5",
                    "midi": 74,
                    "time": 247.4999999999954,
                    "velocity": 0.7244094488188977,
                    "duration": 0.09999999999999432
                },
                {
                    "name": "C5",
                    "midi": 72,
                    "time": 247.79999999999538,
                    "velocity": 0.7244094488188977,
                    "duration": 0.09999999999999432
                },
                {
                    "name": "B4",
                    "midi": 71,
                    "time": 248.09999999999536,
                    "velocity": 0.7244094488188977,
                    "duration": 0.09999999999999432
                },
                {
                    "name": "C5",
                    "midi": 72,
                    "time": 248.39999999999534,
                    "velocity": 0.7244094488188977,
                    "duration": 0.09999999999999432
                },
                {
                    "name": "B4",
                    "midi": 71,
                    "time": 248.69999999999533,
                    "velocity": 0.7244094488188977,
                    "duration": 0.07499999999998863
                },
                {
                    "name": "C5",
                    "midi": 72,
                    "time": 248.77499999999532,
                    "velocity": 0.7244094488188977,
                    "duration": 0.07499999999998863
                },
                {
                    "name": "D5",
                    "midi": 74,
                    "time": 248.8499999999953,
                    "velocity": 0.7244094488188977,
                    "duration": 0.09999999999999432
                },
                {
                    "name": "G4",
                    "midi": 67,
                    "time": 248.9999999999953,
                    "velocity": 0.7244094488188977,
                    "duration": 0.09999999999999432
                },
                {
                    "name": "G4",
                    "midi": 67,
                    "time": 249.2999999999953,
                    "velocity": 0.7244094488188977,
                    "duration": 0.09999999999999432
                },
                {
                    "name": "A#4",
                    "midi": 70,
                    "time": 249.59999999999528,
                    "velocity": 0.7244094488188977,
                    "duration": 0.07499999999998863
                },
                {
                    "name": "G#4",
                    "midi": 68,
                    "time": 249.67499999999526,
                    "velocity": 0.7244094488188977,
                    "duration": 0.15000000000000568
                },
                {
                    "name": "G4",
                    "midi": 67,
                    "time": 249.89999999999526,
                    "velocity": 0.7244094488188977,
                    "duration": 0.09999999999999432
                },
                {
                    "name": "F4",
                    "midi": 65,
                    "time": 250.19999999999524,
                    "velocity": 0.7244094488188977,
                    "duration": 0.09999999999999432
                },
                {
                    "name": "D#5",
                    "midi": 75,
                    "time": 250.49999999999523,
                    "velocity": 0.7244094488188977,
                    "duration": 0.09999999999999432
                },
                {
                    "name": "D5",
                    "midi": 74,
                    "time": 250.7999999999952,
                    "velocity": 0.7244094488188977,
                    "duration": 0.09999999999999432
                },
                {
                    "name": "C5",
                    "midi": 72,
                    "time": 251.0999999999952,
                    "velocity": 0.7244094488188977,
                    "duration": 0.09999999999999432
                },
                {
                    "name": "F5",
                    "midi": 77,
                    "time": 251.39999999999517,
                    "velocity": 0.7244094488188977,
                    "duration": 0.07499999999998863
                },
                {
                    "name": "D#5",
                    "midi": 75,
                    "time": 251.47499999999516,
                    "velocity": 0.7244094488188977,
                    "duration": 0.15000000000000568
                },
                {
                    "name": "D5",
                    "midi": 74,
                    "time": 251.69999999999516,
                    "velocity": 0.7244094488188977,
                    "duration": 0.09999999999999432
                },
                {
                    "name": "C5",
                    "midi": 72,
                    "time": 251.99999999999514,
                    "velocity": 0.7244094488188977,
                    "duration": 0.09999999999999432
                },
                {
                    "name": "D5",
                    "midi": 74,
                    "time": 252.29999999999512,
                    "velocity": 0.7244094488188977,
                    "duration": 0.5999999999999943
                },
                {
                    "name": "G4",
                    "midi": 67,
                    "time": 252.89999999999512,
                    "velocity": 0.7244094488188977,
                    "duration": 0.30000000000001137
                },
                {
                    "name": "G5",
                    "midi": 79,
                    "time": 253.19999999999513,
                    "velocity": 0.7244094488188977,
                    "duration": 0.09999999999999432
                },
                {
                    "name": "G5",
                    "midi": 79,
                    "time": 253.4999999999951,
                    "velocity": 0.7244094488188977,
                    "duration": 0.09999999999999432
                },
                {
                    "name": "F5",
                    "midi": 77,
                    "time": 253.7999999999951,
                    "velocity": 0.7244094488188977,
                    "duration": 0.09999999999999432
                },
                {
                    "name": "E5",
                    "midi": 76,
                    "time": 254.09999999999508,
                    "velocity": 0.7244094488188977,
                    "duration": 0.09999999999999432
                },
                {
                    "name": "E5",
                    "midi": 76,
                    "time": 254.39999999999506,
                    "velocity": 0.7244094488188977,
                    "duration": 0.09999999999999432
                },
                {
                    "name": "D5",
                    "midi": 74,
                    "time": 254.69999999999504,
                    "velocity": 0.7244094488188977,
                    "duration": 0.09999999999999432
                },
                {
                    "name": "C5",
                    "midi": 72,
                    "time": 254.99999999999503,
                    "velocity": 0.7244094488188977,
                    "duration": 0.09999999999999432
                },
                {
                    "name": "B4",
                    "midi": 71,
                    "time": 255.299999999995,
                    "velocity": 0.7244094488188977,
                    "duration": 0.09999999999999432
                },
                {
                    "name": "C5",
                    "midi": 72,
                    "time": 255.599999999995,
                    "velocity": 0.7244094488188977,
                    "duration": 0.09999999999999432
                },
                {
                    "name": "B4",
                    "midi": 71,
                    "time": 255.89999999999498,
                    "velocity": 0.7244094488188977,
                    "duration": 0.07499999999998863
                },
                {
                    "name": "C5",
                    "midi": 72,
                    "time": 255.97499999999496,
                    "velocity": 0.7244094488188977,
                    "duration": 0.07499999999998863
                },
                {
                    "name": "D5",
                    "midi": 74,
                    "time": 256.04999999999495,
                    "velocity": 0.7244094488188977,
                    "duration": 0.10000000000002274
                },
                {
                    "name": "G4",
                    "midi": 67,
                    "time": 256.199999999995,
                    "velocity": 0.7244094488188977,
                    "duration": 0.10000000000002274
                },
                {
                    "name": "G4",
                    "midi": 67,
                    "time": 256.499999999995,
                    "velocity": 0.7244094488188977,
                    "duration": 0.10000000000002274
                },
                {
                    "name": "A#4",
                    "midi": 70,
                    "time": 256.799999999995,
                    "velocity": 0.7244094488188977,
                    "duration": 0.07499999999998863
                },
                {
                    "name": "G#4",
                    "midi": 68,
                    "time": 256.874999999995,
                    "velocity": 0.7244094488188977,
                    "duration": 0.14999999999997726
                },
                {
                    "name": "G4",
                    "midi": 67,
                    "time": 257.09999999999496,
                    "velocity": 0.7244094488188977,
                    "duration": 0.10000000000002274
                },
                {
                    "name": "F4",
                    "midi": 65,
                    "time": 257.399999999995,
                    "velocity": 0.7244094488188977,
                    "duration": 0.10000000000002274
                },
                {
                    "name": "G4",
                    "midi": 67,
                    "time": 257.699999999995,
                    "velocity": 0.7244094488188977,
                    "duration": 0.10000000000002274
                },
                {
                    "name": "C5",
                    "midi": 72,
                    "time": 257.999999999995,
                    "velocity": 0.7244094488188977,
                    "duration": 0.10000000000002274
                },
                {
                    "name": "D#5",
                    "midi": 75,
                    "time": 258.14999999999503,
                    "velocity": 0.7244094488188977,
                    "duration": 0.10000000000002274
                },
                {
                    "name": "G5",
                    "midi": 79,
                    "time": 258.29999999999507,
                    "velocity": 0.7244094488188977,
                    "duration": 0.10000000000002274
                },
                {
                    "name": "G4",
                    "midi": 67,
                    "time": 258.5999999999951,
                    "velocity": 0.7244094488188977,
                    "duration": 0.10000000000002274
                },
                {
                    "name": "B4",
                    "midi": 71,
                    "time": 258.8999999999951,
                    "velocity": 0.7244094488188977,
                    "duration": 0.10000000000002274
                },
                {
                    "name": "D5",
                    "midi": 74,
                    "time": 259.0499999999951,
                    "velocity": 0.7244094488188977,
                    "duration": 0.10000000000002274
                },
                {
                    "name": "G5",
                    "midi": 79,
                    "time": 259.19999999999516,
                    "velocity": 0.7244094488188977,
                    "duration": 0.10000000000002274
                },
                {
                    "name": "C5",
                    "midi": 72,
                    "time": 260.0999999999952,
                    "velocity": 0.7244094488188977,
                    "duration": 0.10000000000002274
                },
                {
                    "name": "C5",
                    "midi": 72,
                    "time": 260.2499999999952,
                    "velocity": 0.7244094488188977,
                    "duration": 0.10000000000002274
                },
                {
                    "name": "C5",
                    "midi": 72,
                    "time": 260.39999999999526,
                    "velocity": 0.7244094488188977,
                    "duration": 0.14999999999997726
                },
                {
                    "name": "D#5",
                    "midi": 75,
                    "time": 260.54999999999524,
                    "velocity": 0.7244094488188977,
                    "duration": 0.14375000000001137
                },
                {
                    "name": "D5",
                    "midi": 74,
                    "time": 260.69999999999527,
                    "velocity": 0.7244094488188977,
                    "duration": 0.14999999999997726
                },
                {
                    "name": "F5",
                    "midi": 77,
                    "time": 260.84999999999525,
                    "velocity": 0.7244094488188977,
                    "duration": 0.14375000000001137
                },
                {
                    "name": "D#5",
                    "midi": 75,
                    "time": 260.9999999999953,
                    "velocity": 0.7244094488188977,
                    "duration": 0.14999999999997726
                },
                {
                    "name": "G5",
                    "midi": 79,
                    "time": 261.14999999999526,
                    "velocity": 0.7244094488188977,
                    "duration": 0.14375000000001137
                },
                {
                    "name": "F5",
                    "midi": 77,
                    "time": 261.2999999999953,
                    "velocity": 0.7244094488188977,
                    "duration": 0.14999999999997726
                },
                {
                    "name": "G#5",
                    "midi": 80,
                    "time": 261.44999999999527,
                    "velocity": 0.7244094488188977,
                    "duration": 0.14375000000001137
                },
                {
                    "name": "G5",
                    "midi": 79,
                    "time": 261.5999999999953,
                    "velocity": 0.7244094488188977,
                    "duration": 0.14999999999997726
                },
                {
                    "name": "A#5",
                    "midi": 82,
                    "time": 261.7499999999953,
                    "velocity": 0.7244094488188977,
                    "duration": 0.14375000000001137
                },
                {
                    "name": "G#5",
                    "midi": 80,
                    "time": 261.8999999999953,
                    "velocity": 0.7244094488188977,
                    "duration": 0.14999999999997726
                },
                {
                    "name": "C6",
                    "midi": 84,
                    "time": 262.0499999999953,
                    "velocity": 0.7244094488188977,
                    "duration": 0.14375000000001137
                },
                {
                    "name": "A#4",
                    "midi": 70,
                    "time": 262.1999999999953,
                    "velocity": 0.7244094488188977,
                    "duration": 0.14999999999997726
                },
                {
                    "name": "D5",
                    "midi": 74,
                    "time": 262.3499999999953,
                    "velocity": 0.7244094488188977,
                    "duration": 0.14375000000001137
                },
                {
                    "name": "C5",
                    "midi": 72,
                    "time": 262.49999999999534,
                    "velocity": 0.7244094488188977,
                    "duration": 0.14999999999997726
                },
                {
                    "name": "D#5",
                    "midi": 75,
                    "time": 262.6499999999953,
                    "velocity": 0.7244094488188977,
                    "duration": 0.14375000000001137
                },
                {
                    "name": "D5",
                    "midi": 74,
                    "time": 262.79999999999535,
                    "velocity": 0.7244094488188977,
                    "duration": 0.14999999999997726
                },
                {
                    "name": "F5",
                    "midi": 77,
                    "time": 262.9499999999953,
                    "velocity": 0.7244094488188977,
                    "duration": 0.14375000000001137
                },
                {
                    "name": "D#5",
                    "midi": 75,
                    "time": 263.09999999999536,
                    "velocity": 0.7244094488188977,
                    "duration": 0.14999999999997726
                },
                {
                    "name": "G5",
                    "midi": 79,
                    "time": 263.24999999999534,
                    "velocity": 0.7244094488188977,
                    "duration": 0.14375000000001137
                },
                {
                    "name": "F5",
                    "midi": 77,
                    "time": 263.3999999999954,
                    "velocity": 0.7244094488188977,
                    "duration": 0.14999999999997726
                },
                {
                    "name": "G#5",
                    "midi": 80,
                    "time": 263.54999999999535,
                    "velocity": 0.7244094488188977,
                    "duration": 0.14375000000001137
                },
                {
                    "name": "G5",
                    "midi": 79,
                    "time": 263.6999999999954,
                    "velocity": 0.7244094488188977,
                    "duration": 0.14999999999997726
                },
                {
                    "name": "A#5",
                    "midi": 82,
                    "time": 263.84999999999536,
                    "velocity": 0.7244094488188977,
                    "duration": 0.14375000000001137
                },
                {
                    "name": "A#5",
                    "midi": 82,
                    "time": 263.9999999999954,
                    "velocity": 1,
                    "duration": 0.14999999999997726
                },
                {
                    "name": "G#5",
                    "midi": 80,
                    "time": 264.1499999999954,
                    "velocity": 0.7244094488188977,
                    "duration": 0.10000000000002274
                },
                {
                    "name": "G5",
                    "midi": 79,
                    "time": 264.2999999999954,
                    "velocity": 0.7244094488188977,
                    "duration": 0.10000000000002274
                },
                {
                    "name": "F5",
                    "midi": 77,
                    "time": 264.44999999999544,
                    "velocity": 0.7244094488188977,
                    "duration": 0.10000000000002274
                },
                {
                    "name": "D#5",
                    "midi": 75,
                    "time": 264.5999999999955,
                    "velocity": 0.7244094488188977,
                    "duration": 0.10000000000002274
                },
                {
                    "name": "D5",
                    "midi": 74,
                    "time": 264.7499999999955,
                    "velocity": 0.7244094488188977,
                    "duration": 0.10000000000002274
                },
                {
                    "name": "G#5",
                    "midi": 80,
                    "time": 264.89999999999554,
                    "velocity": 1,
                    "duration": 0.14999999999997726
                },
                {
                    "name": "G5",
                    "midi": 79,
                    "time": 265.0499999999955,
                    "velocity": 0.7244094488188977,
                    "duration": 0.10000000000002274
                },
                {
                    "name": "F5",
                    "midi": 77,
                    "time": 265.19999999999555,
                    "velocity": 0.7244094488188977,
                    "duration": 0.10000000000002274
                },
                {
                    "name": "D#5",
                    "midi": 75,
                    "time": 265.3499999999956,
                    "velocity": 0.7244094488188977,
                    "duration": 0.10000000000002274
                },
                {
                    "name": "D5",
                    "midi": 74,
                    "time": 265.4999999999956,
                    "velocity": 0.7244094488188977,
                    "duration": 0.10000000000002274
                },
                {
                    "name": "C5",
                    "midi": 72,
                    "time": 265.64999999999566,
                    "velocity": 0.7244094488188977,
                    "duration": 0.10000000000002274
                },
                {
                    "name": "G5",
                    "midi": 79,
                    "time": 265.7999999999957,
                    "velocity": 1,
                    "duration": 0.14999999999997726
                },
                {
                    "name": "F5",
                    "midi": 77,
                    "time": 265.94999999999567,
                    "velocity": 0.7244094488188977,
                    "duration": 0.10000000000002274
                },
                {
                    "name": "D#5",
                    "midi": 75,
                    "time": 266.0999999999957,
                    "velocity": 0.7244094488188977,
                    "duration": 0.10000000000002274
                },
                {
                    "name": "D5",
                    "midi": 74,
                    "time": 266.24999999999574,
                    "velocity": 0.7244094488188977,
                    "duration": 0.10000000000002274
                },
                {
                    "name": "C5",
                    "midi": 72,
                    "time": 266.39999999999577,
                    "velocity": 0.7244094488188977,
                    "duration": 0.10000000000002274
                },
                {
                    "name": "B4",
                    "midi": 71,
                    "time": 266.5499999999958,
                    "velocity": 0.7244094488188977,
                    "duration": 0.10000000000002274
                },
                {
                    "name": "C5",
                    "midi": 72,
                    "time": 266.69999999999584,
                    "velocity": 0.7244094488188977,
                    "duration": 0.6000000000000227
                },
                {
                    "name": "C5",
                    "midi": 72,
                    "time": 267.29999999999586,
                    "velocity": 0.7244094488188977,
                    "duration": 0.10000000000002274
                },
                {
                    "name": "C5",
                    "midi": 72,
                    "time": 267.4499999999959,
                    "velocity": 0.7244094488188977,
                    "duration": 0.10000000000002274
                },
                {
                    "name": "C5",
                    "midi": 72,
                    "time": 267.59999999999593,
                    "velocity": 0.7244094488188977,
                    "duration": 0.14999999999997726
                },
                {
                    "name": "D#5",
                    "midi": 75,
                    "time": 267.7499999999959,
                    "velocity": 0.7244094488188977,
                    "duration": 0.14375000000001137
                },
                {
                    "name": "D5",
                    "midi": 74,
                    "time": 267.89999999999594,
                    "velocity": 0.7244094488188977,
                    "duration": 0.14999999999997726
                },
                {
                    "name": "F5",
                    "midi": 77,
                    "time": 268.0499999999959,
                    "velocity": 0.7244094488188977,
                    "duration": 0.14375000000001137
                },
                {
                    "name": "D#5",
                    "midi": 75,
                    "time": 268.19999999999595,
                    "velocity": 0.7244094488188977,
                    "duration": 0.14999999999997726
                },
                {
                    "name": "G5",
                    "midi": 79,
                    "time": 268.34999999999593,
                    "velocity": 0.7244094488188977,
                    "duration": 0.14375000000001137
                },
                {
                    "name": "F5",
                    "midi": 77,
                    "time": 268.49999999999596,
                    "velocity": 0.7244094488188977,
                    "duration": 0.14999999999997726
                },
                {
                    "name": "G#5",
                    "midi": 80,
                    "time": 268.64999999999594,
                    "velocity": 0.7244094488188977,
                    "duration": 0.14375000000001137
                },
                {
                    "name": "G5",
                    "midi": 79,
                    "time": 268.799999999996,
                    "velocity": 0.7244094488188977,
                    "duration": 0.14999999999997726
                },
                {
                    "name": "A#5",
                    "midi": 82,
                    "time": 268.94999999999595,
                    "velocity": 0.7244094488188977,
                    "duration": 0.14375000000001137
                },
                {
                    "name": "G#5",
                    "midi": 80,
                    "time": 269.099999999996,
                    "velocity": 0.7244094488188977,
                    "duration": 0.14999999999997726
                },
                {
                    "name": "C6",
                    "midi": 84,
                    "time": 269.24999999999596,
                    "velocity": 0.7244094488188977,
                    "duration": 0.14375000000001137
                },
                {
                    "name": "A#4",
                    "midi": 70,
                    "time": 269.399999999996,
                    "velocity": 0.7244094488188977,
                    "duration": 0.14999999999997726
                },
                {
                    "name": "D5",
                    "midi": 74,
                    "time": 269.549999999996,
                    "velocity": 0.7244094488188977,
                    "duration": 0.14375000000001137
                },
                {
                    "name": "C5",
                    "midi": 72,
                    "time": 269.699999999996,
                    "velocity": 0.7244094488188977,
                    "duration": 0.14999999999997726
                },
                {
                    "name": "D#5",
                    "midi": 75,
                    "time": 269.849999999996,
                    "velocity": 0.7244094488188977,
                    "duration": 0.14375000000001137
                },
                {
                    "name": "D5",
                    "midi": 74,
                    "time": 269.999999999996,
                    "velocity": 0.7244094488188977,
                    "duration": 0.14999999999997726
                },
                {
                    "name": "F5",
                    "midi": 77,
                    "time": 270.149999999996,
                    "velocity": 0.7244094488188977,
                    "duration": 0.14375000000001137
                },
                {
                    "name": "D#5",
                    "midi": 75,
                    "time": 270.29999999999603,
                    "velocity": 0.7244094488188977,
                    "duration": 0.14999999999997726
                },
                {
                    "name": "G5",
                    "midi": 79,
                    "time": 270.449999999996,
                    "velocity": 0.7244094488188977,
                    "duration": 0.14375000000001137
                },
                {
                    "name": "F5",
                    "midi": 77,
                    "time": 270.59999999999604,
                    "velocity": 0.7244094488188977,
                    "duration": 0.14999999999997726
                },
                {
                    "name": "G#5",
                    "midi": 80,
                    "time": 270.749999999996,
                    "velocity": 0.7244094488188977,
                    "duration": 0.14375000000001137
                },
                {
                    "name": "G5",
                    "midi": 79,
                    "time": 270.89999999999606,
                    "velocity": 0.7244094488188977,
                    "duration": 0.14999999999997726
                },
                {
                    "name": "A#5",
                    "midi": 82,
                    "time": 271.04999999999603,
                    "velocity": 0.7244094488188977,
                    "duration": 0.14375000000001137
                },
                {
                    "name": "A#5",
                    "midi": 82,
                    "time": 271.19999999999607,
                    "velocity": 1,
                    "duration": 0.14999999999997726
                },
                {
                    "name": "G#5",
                    "midi": 80,
                    "time": 271.34999999999604,
                    "velocity": 0.7244094488188977,
                    "duration": 0.10000000000002274
                },
                {
                    "name": "G5",
                    "midi": 79,
                    "time": 271.4999999999961,
                    "velocity": 0.7244094488188977,
                    "duration": 0.10000000000002274
                },
                {
                    "name": "F5",
                    "midi": 77,
                    "time": 271.6499999999961,
                    "velocity": 0.7244094488188977,
                    "duration": 0.10000000000002274
                },
                {
                    "name": "D#5",
                    "midi": 75,
                    "time": 271.79999999999615,
                    "velocity": 0.7244094488188977,
                    "duration": 0.10000000000002274
                },
                {
                    "name": "D5",
                    "midi": 74,
                    "time": 271.9499999999962,
                    "velocity": 0.7244094488188977,
                    "duration": 0.10000000000002274
                },
                {
                    "name": "G#5",
                    "midi": 80,
                    "time": 272.0999999999962,
                    "velocity": 1,
                    "duration": 0.14999999999997726
                },
                {
                    "name": "G5",
                    "midi": 79,
                    "time": 272.2499999999962,
                    "velocity": 0.7244094488188977,
                    "duration": 0.10000000000002274
                },
                {
                    "name": "F5",
                    "midi": 77,
                    "time": 272.3999999999962,
                    "velocity": 0.7244094488188977,
                    "duration": 0.10000000000002274
                },
                {
                    "name": "D#5",
                    "midi": 75,
                    "time": 272.54999999999626,
                    "velocity": 0.7244094488188977,
                    "duration": 0.10000000000002274
                },
                {
                    "name": "D5",
                    "midi": 74,
                    "time": 272.6999999999963,
                    "velocity": 0.7244094488188977,
                    "duration": 0.10000000000002274
                },
                {
                    "name": "C5",
                    "midi": 72,
                    "time": 272.8499999999963,
                    "velocity": 0.7244094488188977,
                    "duration": 0.10000000000002274
                },
                {
                    "name": "G5",
                    "midi": 79,
                    "time": 272.99999999999636,
                    "velocity": 1,
                    "duration": 0.14999999999997726
                },
                {
                    "name": "F5",
                    "midi": 77,
                    "time": 273.14999999999634,
                    "velocity": 0.7244094488188977,
                    "duration": 0.10000000000002274
                },
                {
                    "name": "D#5",
                    "midi": 75,
                    "time": 273.2999999999964,
                    "velocity": 0.7244094488188977,
                    "duration": 0.10000000000002274
                },
                {
                    "name": "D5",
                    "midi": 74,
                    "time": 273.4499999999964,
                    "velocity": 0.7244094488188977,
                    "duration": 0.10000000000002274
                },
                {
                    "name": "C5",
                    "midi": 72,
                    "time": 273.59999999999644,
                    "velocity": 0.7244094488188977,
                    "duration": 0.10000000000002274
                },
                {
                    "name": "B4",
                    "midi": 71,
                    "time": 273.7499999999965,
                    "velocity": 0.7244094488188977,
                    "duration": 0.10000000000002274
                },
                {
                    "name": "C5",
                    "midi": 72,
                    "time": 273.8999999999965,
                    "velocity": 0.7244094488188977,
                    "duration": 0.6000000000000227
                },
                {
                    "name": "E5",
                    "midi": 76,
                    "time": 274.49999999999653,
                    "velocity": 0.5905511811023622,
                    "duration": 0.10000000000002274
                },
                {
                    "name": "D5",
                    "midi": 74,
                    "time": 274.79999999999654,
                    "velocity": 0.5905511811023622,
                    "duration": 0.14999999999997726
                },
                {
                    "name": "E5",
                    "midi": 76,
                    "time": 274.9499999999965,
                    "velocity": 0.5905511811023622,
                    "duration": 0.14999999999997726
                },
                {
                    "name": "F5",
                    "midi": 77,
                    "time": 275.0999999999965,
                    "velocity": 0.5905511811023622,
                    "duration": 0.10000000000002274
                },
                {
                    "name": "E5",
                    "midi": 76,
                    "time": 275.3999999999965,
                    "velocity": 0.5905511811023622,
                    "duration": 0.10000000000002274
                },
                {
                    "name": "D5",
                    "midi": 74,
                    "time": 275.54999999999654,
                    "velocity": 0.5905511811023622,
                    "duration": 0.10000000000002274
                },
                {
                    "name": "C5",
                    "midi": 72,
                    "time": 275.6999999999966,
                    "velocity": 0.5905511811023622,
                    "duration": 0.14999999999997726
                },
                {
                    "name": "D5",
                    "midi": 74,
                    "time": 275.84999999999656,
                    "velocity": 0.5905511811023622,
                    "duration": 0.14999999999997726
                },
                {
                    "name": "E5",
                    "midi": 76,
                    "time": 275.99999999999653,
                    "velocity": 0.5905511811023622,
                    "duration": 0.10000000000002274
                },
                {
                    "name": "D5",
                    "midi": 74,
                    "time": 276.29999999999654,
                    "velocity": 0.5905511811023622,
                    "duration": 0.10000000000002274
                },
                {
                    "name": "C5",
                    "midi": 72,
                    "time": 276.4499999999966,
                    "velocity": 0.5905511811023622,
                    "duration": 0.10000000000002274
                },
                {
                    "name": "B4",
                    "midi": 71,
                    "time": 276.5999999999966,
                    "velocity": 0.5905511811023622,
                    "duration": 0.14999999999997726
                },
                {
                    "name": "C5",
                    "midi": 72,
                    "time": 276.7499999999966,
                    "velocity": 0.5905511811023622,
                    "duration": 0.14999999999997726
                },
                {
                    "name": "D5",
                    "midi": 74,
                    "time": 276.89999999999657,
                    "velocity": 0.5905511811023622,
                    "duration": 0.10000000000002274
                },
                {
                    "name": "C5",
                    "midi": 72,
                    "time": 277.1999999999966,
                    "velocity": 0.5905511811023622,
                    "duration": 0.10000000000002274
                },
                {
                    "name": "B4",
                    "midi": 71,
                    "time": 277.3499999999966,
                    "velocity": 0.5905511811023622,
                    "duration": 0.10000000000002274
                },
                {
                    "name": "C5",
                    "midi": 72,
                    "time": 277.49999999999665,
                    "velocity": 0.5905511811023622,
                    "duration": 0.30000000000001137
                },
                {
                    "name": "G4",
                    "midi": 67,
                    "time": 277.79999999999666,
                    "velocity": 0.5905511811023622,
                    "duration": 0.10000000000002274
                },
                {
                    "name": "D#5",
                    "midi": 75,
                    "time": 278.09999999999667,
                    "velocity": 0.7244094488188977,
                    "duration": 0.10000000000002274
                },
                {
                    "name": "D5",
                    "midi": 74,
                    "time": 278.3999999999967,
                    "velocity": 0.7244094488188977,
                    "duration": 0.07499999999998863
                },
                {
                    "name": "D#5",
                    "midi": 75,
                    "time": 278.47499999999667,
                    "velocity": 0.7244094488188977,
                    "duration": 0.07499999999998863
                },
                {
                    "name": "D5",
                    "midi": 74,
                    "time": 278.54999999999666,
                    "velocity": 0.7244094488188977,
                    "duration": 0.07499999999998863
                },
                {
                    "name": "D#5",
                    "midi": 75,
                    "time": 278.62499999999665,
                    "velocity": 0.7244094488188977,
                    "duration": 0.07499999999998863
                },
                {
                    "name": "F5",
                    "midi": 77,
                    "time": 278.69999999999663,
                    "velocity": 0.7244094488188977,
                    "duration": 0.10000000000002274
                },
                {
                    "name": "D#5",
                    "midi": 75,
                    "time": 278.99999999999665,
                    "velocity": 0.7244094488188977,
                    "duration": 0.10000000000002274
                },
                {
                    "name": "D5",
                    "midi": 74,
                    "time": 279.1499999999967,
                    "velocity": 0.7244094488188977,
                    "duration": 0.10000000000002274
                },
                {
                    "name": "C5",
                    "midi": 72,
                    "time": 279.2999999999967,
                    "velocity": 0.7244094488188977,
                    "duration": 0.07499999999998863
                },
                {
                    "name": "D5",
                    "midi": 74,
                    "time": 279.3749999999967,
                    "velocity": 0.7244094488188977,
                    "duration": 0.07499999999998863
                },
                {
                    "name": "C5",
                    "midi": 72,
                    "time": 279.4499999999967,
                    "velocity": 0.7244094488188977,
                    "duration": 0.07499999999998863
                },
                {
                    "name": "D5",
                    "midi": 74,
                    "time": 279.5249999999967,
                    "velocity": 0.7244094488188977,
                    "duration": 0.07499999999998863
                },
                {
                    "name": "D#5",
                    "midi": 75,
                    "time": 279.59999999999667,
                    "velocity": 0.7244094488188977,
                    "duration": 0.10000000000002274
                },
                {
                    "name": "G4",
                    "midi": 67,
                    "time": 279.8999999999967,
                    "velocity": 0.8503937007874016,
                    "duration": 0.10000000000002274
                },
                {
                    "name": "G4",
                    "midi": 67,
                    "time": 280.0499999999967,
                    "velocity": 0.8503937007874016,
                    "duration": 0.10000000000002274
                },
                {
                    "name": "G4",
                    "midi": 67,
                    "time": 280.19999999999675,
                    "velocity": 0.8503937007874016,
                    "duration": 0.29374999999998863
                },
                {
                    "name": "A4",
                    "midi": 69,
                    "time": 280.49999999999676,
                    "velocity": 0.8503937007874016,
                    "duration": 0.29374999999998863
                },
                {
                    "name": "B4",
                    "midi": 71,
                    "time": 280.79999999999677,
                    "velocity": 0.8503937007874016,
                    "duration": 0.29374999999998863
                },
                {
                    "name": "C5",
                    "midi": 72,
                    "time": 281.0999999999968,
                    "velocity": 0.8503937007874016,
                    "duration": 0.14999999999997726
                },
                {
                    "name": "D#5",
                    "midi": 75,
                    "time": 281.24999999999676,
                    "velocity": 0.8503937007874016,
                    "duration": 0.10000000000002274
                },
                {
                    "name": "D5",
                    "midi": 74,
                    "time": 281.3999999999968,
                    "velocity": 0.8503937007874016,
                    "duration": 0.10000000000002274
                },
                {
                    "name": "C5",
                    "midi": 72,
                    "time": 281.5499999999968,
                    "velocity": 0.8503937007874016,
                    "duration": 0.10000000000002274
                },
                {
                    "name": "B4",
                    "midi": 71,
                    "time": 281.69999999999686,
                    "velocity": 0.8503937007874016,
                    "duration": 0.10000000000002274
                },
                {
                    "name": "A4",
                    "midi": 69,
                    "time": 281.8499999999969,
                    "velocity": 0.8503937007874016,
                    "duration": 0.10000000000002274
                },
                {
                    "name": "G4",
                    "midi": 67,
                    "time": 281.99999999999693,
                    "velocity": 0.8503937007874016,
                    "duration": 0.14999999999997726
                },
                {
                    "name": "G#4",
                    "midi": 68,
                    "time": 282.1499999999969,
                    "velocity": 0.8503937007874016,
                    "duration": 0.14375000000001137
                },
                {
                    "name": "A4",
                    "midi": 69,
                    "time": 282.29999999999694,
                    "velocity": 0.8503937007874016,
                    "duration": 0.10000000000002274
                },
                {
                    "name": "A#4",
                    "midi": 70,
                    "time": 282.449999999997,
                    "velocity": 0.8503937007874016,
                    "duration": 0.10000000000002274
                },
                {
                    "name": "B4",
                    "midi": 71,
                    "time": 282.599999999997,
                    "velocity": 0.8503937007874016,
                    "duration": 0.10000000000002274
                },
                {
                    "name": "C5",
                    "midi": 72,
                    "time": 282.899999999997,
                    "velocity": 0.8503937007874016,
                    "duration": 0.14999999999997726
                },
                {
                    "name": "D#5",
                    "midi": 75,
                    "time": 283.049999999997,
                    "velocity": 0.8503937007874016,
                    "duration": 0.14375000000001137
                },
                {
                    "name": "G4",
                    "midi": 67,
                    "time": 283.19999999999703,
                    "velocity": 0.8503937007874016,
                    "duration": 0.14999999999997726
                },
                {
                    "name": "C5",
                    "midi": 72,
                    "time": 283.349999999997,
                    "velocity": 0.8503937007874016,
                    "duration": 0.14375000000001137
                },
                {
                    "name": "D#4",
                    "midi": 63,
                    "time": 283.49999999999704,
                    "velocity": 0.8503937007874016,
                    "duration": 0.14999999999997726
                },
                {
                    "name": "G4",
                    "midi": 67,
                    "time": 283.649999999997,
                    "velocity": 0.8503937007874016,
                    "duration": 0.14375000000001137
                },
                {
                    "name": "C5",
                    "midi": 72,
                    "time": 283.79999999999706,
                    "velocity": 0.8503937007874016,
                    "duration": 0.29374999999998863
                },
                {
                    "name": "G4",
                    "midi": 67,
                    "time": 284.09999999999707,
                    "velocity": 0.8503937007874016,
                    "duration": 0.29374999999998863
                },
                {
                    "name": "C5",
                    "midi": 72,
                    "time": 284.3999999999971,
                    "velocity": 0.8503937007874016,
                    "duration": 0.29374999999998863
                },
                {
                    "name": "C5",
                    "midi": 72,
                    "time": 284.6999999999971,
                    "velocity": 0.8503937007874016,
                    "duration": 0.6000000000000227
                },
                {
                    "name": "D#5",
                    "midi": 75,
                    "time": 285.5999999999971,
                    "velocity": 0.8503937007874016,
                    "duration": 0.6000000000000227
                },
                {
                    "name": "D#4",
                    "midi": 63,
                    "time": 286.3499999999971,
                    "velocity": 0.8503937007874016,
                    "duration": 0.14375000000001137
                },
                {
                    "name": "C5",
                    "midi": 72,
                    "time": 286.3499999999971,
                    "velocity": 0.8503937007874016,
                    "duration": 0.14375000000001137
                },
                {
                    "name": "D#4",
                    "midi": 63,
                    "time": 286.49999999999716,
                    "velocity": 0.8503937007874016,
                    "duration": 0.8999999999999773
                },
                {
                    "name": "C5",
                    "midi": 72,
                    "time": 286.49999999999716,
                    "velocity": 0.8503937007874016,
                    "duration": 0.8999999999999773
                }
            ],
            "controlChanges": {
                "7": [
                    {
                        "number": 7,
                        "time": 0,
                        "value": 0.7637795275590551
                    }
                ],
                "10": [
                    {
                        "number": 10,
                        "time": 0,
                        "value": 0.6299212598425197
                    }
                ],
                "91": [
                    {
                        "number": 91,
                        "time": 0,
                        "value": 0.31496062992125984
                    }
                ]
            },
            "id": 6,
            "name": "originally performed",
            "instrumentNumber": 68,
            "instrument": "oboe",
            "instrumentFamily": "reed",
            "channelNumber": 2,
            "isPercussion": false
        },
        {
            "startTime": 0,
            "duration": 287.3999999999988,
            "length": 880,
            "notes": [
                {
                    "name": "G4",
                    "midi": 67,
                    "time": 0,
                    "velocity": 0.5905511811023622,
                    "duration": 0.09999999999999999
                },
                {
                    "name": "G5",
                    "midi": 79,
                    "time": 0.3,
                    "velocity": 0.5905511811023622,
                    "duration": 0.09999999999999998
                },
                {
                    "name": "G5",
                    "midi": 79,
                    "time": 0.6,
                    "velocity": 0.5905511811023622,
                    "duration": 0.09999999999999998
                },
                {
                    "name": "F5",
                    "midi": 77,
                    "time": 0.8999999999999999,
                    "velocity": 0.5905511811023622,
                    "duration": 0.09999999999999998
                },
                {
                    "name": "D#5",
                    "midi": 75,
                    "time": 1.2,
                    "velocity": 0.5905511811023622,
                    "duration": 0.10000000000000009
                },
                {
                    "name": "D#5",
                    "midi": 75,
                    "time": 1.5,
                    "velocity": 0.5905511811023622,
                    "duration": 0.10000000000000009
                },
                {
                    "name": "D5",
                    "midi": 74,
                    "time": 1.8,
                    "velocity": 0.5905511811023622,
                    "duration": 0.10000000000000009
                },
                {
                    "name": "C5",
                    "midi": 72,
                    "time": 2.1,
                    "velocity": 0.5905511811023622,
                    "duration": 0.10000000000000009
                },
                {
                    "name": "B4",
                    "midi": 71,
                    "time": 2.4000000000000004,
                    "velocity": 0.5905511811023622,
                    "duration": 0.10000000000000009
                },
                {
                    "name": "C5",
                    "midi": 72,
                    "time": 2.7000000000000006,
                    "velocity": 0.5905511811023622,
                    "duration": 0.10000000000000009
                },
                {
                    "name": "B4",
                    "midi": 71,
                    "time": 3.000000000000001,
                    "velocity": 0.5905511811023622,
                    "duration": 0.07500000000000018
                },
                {
                    "name": "C5",
                    "midi": 72,
                    "time": 3.075000000000001,
                    "velocity": 0.5905511811023622,
                    "duration": 0.07500000000000018
                },
                {
                    "name": "D5",
                    "midi": 74,
                    "time": 3.1500000000000012,
                    "velocity": 0.5905511811023622,
                    "duration": 0.10000000000000009
                },
                {
                    "name": "G4",
                    "midi": 67,
                    "time": 3.300000000000001,
                    "velocity": 0.5905511811023622,
                    "duration": 0.10000000000000009
                },
                {
                    "name": "G4",
                    "midi": 67,
                    "time": 3.6000000000000014,
                    "velocity": 0.5905511811023622,
                    "duration": 0.10000000000000009
                },
                {
                    "name": "A#4",
                    "midi": 70,
                    "time": 3.9000000000000017,
                    "velocity": 0.5905511811023622,
                    "duration": 0.07500000000000018
                },
                {
                    "name": "G#4",
                    "midi": 68,
                    "time": 3.975000000000002,
                    "velocity": 0.5905511811023622,
                    "duration": 0.1499999999999999
                },
                {
                    "name": "G4",
                    "midi": 67,
                    "time": 4.200000000000002,
                    "velocity": 0.5905511811023622,
                    "duration": 0.09999999999999964
                },
                {
                    "name": "F4",
                    "midi": 65,
                    "time": 4.500000000000002,
                    "velocity": 0.5905511811023622,
                    "duration": 0.09999999999999964
                },
                {
                    "name": "D#4",
                    "midi": 63,
                    "time": 4.800000000000002,
                    "velocity": 0.5905511811023622,
                    "duration": 0.09999999999999964
                },
                {
                    "name": "D4",
                    "midi": 62,
                    "time": 5.100000000000001,
                    "velocity": 0.5905511811023622,
                    "duration": 0.09999999999999964
                },
                {
                    "name": "C4",
                    "midi": 60,
                    "time": 5.400000000000001,
                    "velocity": 0.5905511811023622,
                    "duration": 0.09999999999999964
                },
                {
                    "name": "D#4",
                    "midi": 63,
                    "time": 5.700000000000001,
                    "velocity": 0.5905511811023622,
                    "duration": 0.07500000000000018
                },
                {
                    "name": "D#4",
                    "midi": 63,
                    "time": 5.775000000000001,
                    "velocity": 0.5905511811023622,
                    "duration": 0.15000000000000036
                },
                {
                    "name": "D4",
                    "midi": 62,
                    "time": 6.000000000000002,
                    "velocity": 0.5905511811023622,
                    "duration": 0.09999999999999964
                },
                {
                    "name": "C4",
                    "midi": 60,
                    "time": 6.300000000000002,
                    "velocity": 0.5905511811023622,
                    "duration": 0.09999999999999964
                },
                {
                    "name": "D4",
                    "midi": 62,
                    "time": 6.600000000000001,
                    "velocity": 0.5905511811023622,
                    "duration": 0.5999999999999996
                },
                {
                    "name": "G4",
                    "midi": 67,
                    "time": 7.200000000000001,
                    "velocity": 0.5905511811023622,
                    "duration": 0.2999999999999998
                },
                {
                    "name": "G5",
                    "midi": 79,
                    "time": 7.500000000000001,
                    "velocity": 0.5905511811023622,
                    "duration": 0.09999999999999964
                },
                {
                    "name": "G5",
                    "midi": 79,
                    "time": 7.800000000000001,
                    "velocity": 0.5905511811023622,
                    "duration": 0.09999999999999964
                },
                {
                    "name": "F5",
                    "midi": 77,
                    "time": 8.1,
                    "velocity": 0.5905511811023622,
                    "duration": 0.09999999999999964
                },
                {
                    "name": "D#5",
                    "midi": 75,
                    "time": 8.399999999999999,
                    "velocity": 0.5905511811023622,
                    "duration": 0.09999999999999964
                },
                {
                    "name": "D#5",
                    "midi": 75,
                    "time": 8.699999999999998,
                    "velocity": 0.5905511811023622,
                    "duration": 0.09999999999999964
                },
                {
                    "name": "D5",
                    "midi": 74,
                    "time": 8.999999999999996,
                    "velocity": 0.5905511811023622,
                    "duration": 0.09999999999999964
                },
                {
                    "name": "C5",
                    "midi": 72,
                    "time": 9.299999999999995,
                    "velocity": 0.5905511811023622,
                    "duration": 0.09999999999999964
                },
                {
                    "name": "B4",
                    "midi": 71,
                    "time": 9.599999999999994,
                    "velocity": 0.5905511811023622,
                    "duration": 0.09999999999999964
                },
                {
                    "name": "C5",
                    "midi": 72,
                    "time": 9.899999999999993,
                    "velocity": 0.5905511811023622,
                    "duration": 0.09999999999999964
                },
                {
                    "name": "B4",
                    "midi": 71,
                    "time": 10.199999999999992,
                    "velocity": 0.5905511811023622,
                    "duration": 0.07499999999999929
                },
                {
                    "name": "C5",
                    "midi": 72,
                    "time": 10.274999999999991,
                    "velocity": 0.5905511811023622,
                    "duration": 0.07499999999999929
                },
                {
                    "name": "D5",
                    "midi": 74,
                    "time": 10.34999999999999,
                    "velocity": 0.5905511811023622,
                    "duration": 0.09999999999999964
                },
                {
                    "name": "G4",
                    "midi": 67,
                    "time": 10.499999999999991,
                    "velocity": 0.5905511811023622,
                    "duration": 0.09999999999999964
                },
                {
                    "name": "G4",
                    "midi": 67,
                    "time": 10.79999999999999,
                    "velocity": 0.5905511811023622,
                    "duration": 0.09999999999999964
                },
                {
                    "name": "A#4",
                    "midi": 70,
                    "time": 11.099999999999989,
                    "velocity": 0.5905511811023622,
                    "duration": 0.07499999999999929
                },
                {
                    "name": "G#4",
                    "midi": 68,
                    "time": 11.174999999999988,
                    "velocity": 0.5905511811023622,
                    "duration": 0.15000000000000036
                },
                {
                    "name": "G4",
                    "midi": 67,
                    "time": 11.399999999999988,
                    "velocity": 0.5905511811023622,
                    "duration": 0.09999999999999964
                },
                {
                    "name": "F4",
                    "midi": 65,
                    "time": 11.699999999999987,
                    "velocity": 0.5905511811023622,
                    "duration": 0.09999999999999964
                },
                {
                    "name": "G4",
                    "midi": 67,
                    "time": 11.999999999999986,
                    "velocity": 0.5905511811023622,
                    "duration": 0.09999999999999964
                },
                {
                    "name": "C5",
                    "midi": 72,
                    "time": 12.299999999999985,
                    "velocity": 0.5905511811023622,
                    "duration": 0.09999999999999964
                },
                {
                    "name": "D#5",
                    "midi": 75,
                    "time": 12.449999999999985,
                    "velocity": 0.5905511811023622,
                    "duration": 0.09999999999999964
                },
                {
                    "name": "G5",
                    "midi": 79,
                    "time": 12.599999999999985,
                    "velocity": 0.5905511811023622,
                    "duration": 0.09999999999999964
                },
                {
                    "name": "G4",
                    "midi": 67,
                    "time": 12.899999999999984,
                    "velocity": 0.5905511811023622,
                    "duration": 0.09999999999999964
                },
                {
                    "name": "B4",
                    "midi": 71,
                    "time": 13.199999999999983,
                    "velocity": 0.5905511811023622,
                    "duration": 0.09999999999999964
                },
                {
                    "name": "D5",
                    "midi": 74,
                    "time": 13.349999999999984,
                    "velocity": 0.5905511811023622,
                    "duration": 0.09999999999999964
                },
                {
                    "name": "G5",
                    "midi": 79,
                    "time": 13.499999999999984,
                    "velocity": 0.5905511811023622,
                    "duration": 0.09999999999999964
                },
                {
                    "name": "C5",
                    "midi": 72,
                    "time": 13.799999999999983,
                    "velocity": 0.5905511811023622,
                    "duration": 0.09999999999999964
                },
                {
                    "name": "C6",
                    "midi": 84,
                    "time": 14.099999999999982,
                    "velocity": 0.5905511811023622,
                    "duration": 0.09999999999999964
                },
                {
                    "name": "G4",
                    "midi": 67,
                    "time": 14.39999999999998,
                    "velocity": 0.7244094488188977,
                    "duration": 0.3000000000000007
                },
                {
                    "name": "G5",
                    "midi": 79,
                    "time": 14.699999999999982,
                    "velocity": 0.7244094488188977,
                    "duration": 0.09999999999999964
                },
                {
                    "name": "G5",
                    "midi": 79,
                    "time": 14.99999999999998,
                    "velocity": 0.7244094488188977,
                    "duration": 0.09999999999999964
                },
                {
                    "name": "F5",
                    "midi": 77,
                    "time": 15.29999999999998,
                    "velocity": 0.7244094488188977,
                    "duration": 0.09999999999999964
                },
                {
                    "name": "D#5",
                    "midi": 75,
                    "time": 15.599999999999978,
                    "velocity": 0.7244094488188977,
                    "duration": 0.09999999999999964
                },
                {
                    "name": "D#5",
                    "midi": 75,
                    "time": 15.899999999999977,
                    "velocity": 0.7244094488188977,
                    "duration": 0.09999999999999964
                },
                {
                    "name": "D5",
                    "midi": 74,
                    "time": 16.199999999999978,
                    "velocity": 0.7244094488188977,
                    "duration": 0.10000000000000142
                },
                {
                    "name": "C5",
                    "midi": 72,
                    "time": 16.49999999999998,
                    "velocity": 0.7244094488188977,
                    "duration": 0.10000000000000142
                },
                {
                    "name": "B4",
                    "midi": 71,
                    "time": 16.79999999999998,
                    "velocity": 0.7244094488188977,
                    "duration": 0.10000000000000142
                },
                {
                    "name": "C5",
                    "midi": 72,
                    "time": 17.09999999999998,
                    "velocity": 0.7244094488188977,
                    "duration": 0.10000000000000142
                },
                {
                    "name": "B4",
                    "midi": 71,
                    "time": 17.39999999999998,
                    "velocity": 0.7244094488188977,
                    "duration": 0.07499999999999929
                },
                {
                    "name": "C5",
                    "midi": 72,
                    "time": 17.47499999999998,
                    "velocity": 0.7244094488188977,
                    "duration": 0.07499999999999929
                },
                {
                    "name": "D5",
                    "midi": 74,
                    "time": 17.54999999999998,
                    "velocity": 0.7244094488188977,
                    "duration": 0.10000000000000142
                },
                {
                    "name": "G4",
                    "midi": 67,
                    "time": 17.69999999999998,
                    "velocity": 0.7244094488188977,
                    "duration": 0.10000000000000142
                },
                {
                    "name": "G4",
                    "midi": 67,
                    "time": 17.999999999999982,
                    "velocity": 0.7244094488188977,
                    "duration": 0.10000000000000142
                },
                {
                    "name": "A#4",
                    "midi": 70,
                    "time": 18.299999999999983,
                    "velocity": 0.7244094488188977,
                    "duration": 0.07499999999999929
                },
                {
                    "name": "G#4",
                    "midi": 68,
                    "time": 18.374999999999982,
                    "velocity": 0.7244094488188977,
                    "duration": 0.14999999999999858
                },
                {
                    "name": "G4",
                    "midi": 67,
                    "time": 18.59999999999998,
                    "velocity": 0.7244094488188977,
                    "duration": 0.10000000000000142
                },
                {
                    "name": "F4",
                    "midi": 65,
                    "time": 18.89999999999998,
                    "velocity": 0.7244094488188977,
                    "duration": 0.10000000000000142
                },
                {
                    "name": "D#5",
                    "midi": 75,
                    "time": 19.19999999999998,
                    "velocity": 0.7244094488188977,
                    "duration": 0.10000000000000142
                },
                {
                    "name": "D5",
                    "midi": 74,
                    "time": 19.499999999999982,
                    "velocity": 0.7244094488188977,
                    "duration": 0.10000000000000142
                },
                {
                    "name": "C5",
                    "midi": 72,
                    "time": 19.799999999999983,
                    "velocity": 0.7244094488188977,
                    "duration": 0.10000000000000142
                },
                {
                    "name": "F5",
                    "midi": 77,
                    "time": 20.099999999999984,
                    "velocity": 0.7244094488188977,
                    "duration": 0.07499999999999929
                },
                {
                    "name": "D#5",
                    "midi": 75,
                    "time": 20.174999999999983,
                    "velocity": 0.7244094488188977,
                    "duration": 0.14999999999999858
                },
                {
                    "name": "D5",
                    "midi": 74,
                    "time": 20.39999999999998,
                    "velocity": 0.7244094488188977,
                    "duration": 0.10000000000000142
                },
                {
                    "name": "C5",
                    "midi": 72,
                    "time": 20.69999999999998,
                    "velocity": 0.7244094488188977,
                    "duration": 0.10000000000000142
                },
                {
                    "name": "D5",
                    "midi": 74,
                    "time": 20.999999999999982,
                    "velocity": 0.7244094488188977,
                    "duration": 0.6000000000000014
                },
                {
                    "name": "G4",
                    "midi": 67,
                    "time": 21.599999999999984,
                    "velocity": 0.7244094488188977,
                    "duration": 0.3000000000000007
                },
                {
                    "name": "G5",
                    "midi": 79,
                    "time": 21.899999999999984,
                    "velocity": 0.7244094488188977,
                    "duration": 0.10000000000000142
                },
                {
                    "name": "G5",
                    "midi": 79,
                    "time": 22.199999999999985,
                    "velocity": 0.7244094488188977,
                    "duration": 0.10000000000000142
                },
                {
                    "name": "F5",
                    "midi": 77,
                    "time": 22.499999999999986,
                    "velocity": 0.7244094488188977,
                    "duration": 0.10000000000000142
                },
                {
                    "name": "D#5",
                    "midi": 75,
                    "time": 22.799999999999986,
                    "velocity": 0.7244094488188977,
                    "duration": 0.10000000000000142
                },
                {
                    "name": "D#5",
                    "midi": 75,
                    "time": 23.099999999999987,
                    "velocity": 0.7244094488188977,
                    "duration": 0.10000000000000142
                },
                {
                    "name": "D5",
                    "midi": 74,
                    "time": 23.399999999999988,
                    "velocity": 0.7244094488188977,
                    "duration": 0.10000000000000142
                },
                {
                    "name": "C5",
                    "midi": 72,
                    "time": 23.69999999999999,
                    "velocity": 0.7244094488188977,
                    "duration": 0.10000000000000142
                },
                {
                    "name": "B4",
                    "midi": 71,
                    "time": 23.99999999999999,
                    "velocity": 0.7244094488188977,
                    "duration": 0.10000000000000142
                },
                {
                    "name": "C5",
                    "midi": 72,
                    "time": 24.29999999999999,
                    "velocity": 0.7244094488188977,
                    "duration": 0.10000000000000142
                },
                {
                    "name": "B4",
                    "midi": 71,
                    "time": 24.59999999999999,
                    "velocity": 0.7244094488188977,
                    "duration": 0.07499999999999929
                },
                {
                    "name": "C5",
                    "midi": 72,
                    "time": 24.67499999999999,
                    "velocity": 0.7244094488188977,
                    "duration": 0.07499999999999929
                },
                {
                    "name": "D5",
                    "midi": 74,
                    "time": 24.74999999999999,
                    "velocity": 0.7244094488188977,
                    "duration": 0.10000000000000142
                },
                {
                    "name": "G4",
                    "midi": 67,
                    "time": 24.89999999999999,
                    "velocity": 0.7244094488188977,
                    "duration": 0.10000000000000142
                },
                {
                    "name": "G4",
                    "midi": 67,
                    "time": 25.199999999999992,
                    "velocity": 0.7244094488188977,
                    "duration": 0.10000000000000142
                },
                {
                    "name": "A#4",
                    "midi": 70,
                    "time": 25.499999999999993,
                    "velocity": 0.7244094488188977,
                    "duration": 0.07499999999999929
                },
                {
                    "name": "G#4",
                    "midi": 68,
                    "time": 25.574999999999992,
                    "velocity": 0.7244094488188977,
                    "duration": 0.14999999999999858
                },
                {
                    "name": "G4",
                    "midi": 67,
                    "time": 25.79999999999999,
                    "velocity": 0.7244094488188977,
                    "duration": 0.10000000000000142
                },
                {
                    "name": "F4",
                    "midi": 65,
                    "time": 26.09999999999999,
                    "velocity": 0.7244094488188977,
                    "duration": 0.10000000000000142
                },
                {
                    "name": "G4",
                    "midi": 67,
                    "time": 26.39999999999999,
                    "velocity": 0.7244094488188977,
                    "duration": 0.10000000000000142
                },
                {
                    "name": "C5",
                    "midi": 72,
                    "time": 26.699999999999992,
                    "velocity": 0.7244094488188977,
                    "duration": 0.10000000000000142
                },
                {
                    "name": "D#5",
                    "midi": 75,
                    "time": 26.849999999999994,
                    "velocity": 0.7244094488188977,
                    "duration": 0.10000000000000142
                },
                {
                    "name": "G5",
                    "midi": 79,
                    "time": 26.999999999999996,
                    "velocity": 0.7244094488188977,
                    "duration": 0.10000000000000142
                },
                {
                    "name": "G4",
                    "midi": 67,
                    "time": 27.299999999999997,
                    "velocity": 0.7244094488188977,
                    "duration": 0.10000000000000142
                },
                {
                    "name": "B4",
                    "midi": 71,
                    "time": 27.599999999999998,
                    "velocity": 0.7244094488188977,
                    "duration": 0.10000000000000142
                },
                {
                    "name": "D5",
                    "midi": 74,
                    "time": 27.75,
                    "velocity": 0.7244094488188977,
                    "duration": 0.10000000000000142
                },
                {
                    "name": "G5",
                    "midi": 79,
                    "time": 27.900000000000002,
                    "velocity": 0.7244094488188977,
                    "duration": 0.10000000000000142
                },
                {
                    "name": "C5",
                    "midi": 72,
                    "time": 28.200000000000003,
                    "velocity": 0.7244094488188977,
                    "duration": 0.6000000000000014
                },
                {
                    "name": "D#5",
                    "midi": 75,
                    "time": 28.800000000000004,
                    "velocity": 0.5905511811023622,
                    "duration": 0.10000000000000142
                },
                {
                    "name": "D5",
                    "midi": 74,
                    "time": 29.100000000000005,
                    "velocity": 0.5905511811023622,
                    "duration": 0.10000000000000142
                },
                {
                    "name": "C#5",
                    "midi": 73,
                    "time": 29.400000000000006,
                    "velocity": 0.5905511811023622,
                    "duration": 0.10000000000000142
                },
                {
                    "name": "C5",
                    "midi": 72,
                    "time": 29.700000000000006,
                    "velocity": 0.5905511811023622,
                    "duration": 0.10000000000000142
                },
                {
                    "name": "A#4",
                    "midi": 70,
                    "time": 30.000000000000007,
                    "velocity": 0.3543307086614173,
                    "duration": 0.6000000000000014
                },
                {
                    "name": "A#4",
                    "midi": 70,
                    "time": 30.90000000000001,
                    "velocity": 0.3543307086614173,
                    "duration": 0.6000000000000014
                },
                {
                    "name": "D#5",
                    "midi": 75,
                    "time": 31.80000000000001,
                    "velocity": 0.3543307086614173,
                    "duration": 0.5
                },
                {
                    "name": "G5",
                    "midi": 79,
                    "time": 32.40000000000001,
                    "velocity": 0.5905511811023622,
                    "duration": 0.10000000000000142
                },
                {
                    "name": "F#5",
                    "midi": 78,
                    "time": 32.70000000000002,
                    "velocity": 0.5905511811023622,
                    "duration": 0.10000000000000142
                },
                {
                    "name": "F5",
                    "midi": 77,
                    "time": 33.00000000000002,
                    "velocity": 0.5905511811023622,
                    "duration": 0.10000000000000142
                },
                {
                    "name": "D#5",
                    "midi": 75,
                    "time": 33.300000000000026,
                    "velocity": 0.5905511811023622,
                    "duration": 0.10000000000000142
                },
                {
                    "name": "D5",
                    "midi": 74,
                    "time": 33.60000000000003,
                    "velocity": 0.3543307086614173,
                    "duration": 0.6000000000000014
                },
                {
                    "name": "D5",
                    "midi": 74,
                    "time": 34.50000000000003,
                    "velocity": 0.3543307086614173,
                    "duration": 0.6000000000000014
                },
                {
                    "name": "D5",
                    "midi": 74,
                    "time": 35.40000000000003,
                    "velocity": 0.3543307086614173,
                    "duration": 0.6000000000000014
                },
                {
                    "name": "A#5",
                    "midi": 82,
                    "time": 36.00000000000003,
                    "velocity": 0.5905511811023622,
                    "duration": 0.10000000000000142
                },
                {
                    "name": "A5",
                    "midi": 81,
                    "time": 36.30000000000003,
                    "velocity": 0.5905511811023622,
                    "duration": 0.10000000000000142
                },
                {
                    "name": "G#5",
                    "midi": 80,
                    "time": 36.60000000000004,
                    "velocity": 0.5905511811023622,
                    "duration": 0.10000000000000142
                },
                {
                    "name": "G5",
                    "midi": 79,
                    "time": 36.90000000000004,
                    "velocity": 0.5905511811023622,
                    "duration": 0.10000000000000142
                },
                {
                    "name": "F5",
                    "midi": 77,
                    "time": 37.200000000000045,
                    "velocity": 0.5905511811023622,
                    "duration": 0.6000000000000014
                },
                {
                    "name": "F5",
                    "midi": 77,
                    "time": 38.100000000000044,
                    "velocity": 0.5905511811023622,
                    "duration": 0.6000000000000014
                },
                {
                    "name": "F5",
                    "midi": 77,
                    "time": 39.00000000000004,
                    "velocity": 0.5905511811023622,
                    "duration": 0.8999999999999986
                },
                {
                    "name": "D#5",
                    "midi": 75,
                    "time": 39.90000000000004,
                    "velocity": 0.5905511811023622,
                    "duration": 0.8999999999999986
                },
                {
                    "name": "D5",
                    "midi": 74,
                    "time": 40.80000000000004,
                    "velocity": 0.5905511811023622,
                    "duration": 0.8999999999999986
                },
                {
                    "name": "C5",
                    "midi": 72,
                    "time": 41.70000000000004,
                    "velocity": 0.5905511811023622,
                    "duration": 0.8999999999999986
                },
                {
                    "name": "A#4",
                    "midi": 70,
                    "time": 42.60000000000004,
                    "velocity": 0.5905511811023622,
                    "duration": 0.6000000000000014
                },
                {
                    "name": "B4",
                    "midi": 71,
                    "time": 43.20000000000004,
                    "velocity": 0.5905511811023622,
                    "duration": 0.29999999999999716
                },
                {
                    "name": "C5",
                    "midi": 72,
                    "time": 43.500000000000036,
                    "velocity": 0.8267716535433071,
                    "duration": 1.1937500000000014
                },
                {
                    "name": "A#4",
                    "midi": 70,
                    "time": 44.70000000000004,
                    "velocity": 0.5905511811023622,
                    "duration": 0.10000000000000142
                },
                {
                    "name": "G#4",
                    "midi": 68,
                    "time": 45.00000000000004,
                    "velocity": 0.5905511811023622,
                    "duration": 0.10000000000000142
                },
                {
                    "name": "G4",
                    "midi": 67,
                    "time": 45.30000000000005,
                    "velocity": 0.5905511811023622,
                    "duration": 0.10000000000000142
                },
                {
                    "name": "G#4",
                    "midi": 68,
                    "time": 45.40000000000005,
                    "velocity": 0.5905511811023622,
                    "duration": 0.10000000000000142
                },
                {
                    "name": "G4",
                    "midi": 67,
                    "time": 45.50000000000005,
                    "velocity": 0.5905511811023622,
                    "duration": 0.10000000000000142
                },
                {
                    "name": "F4",
                    "midi": 65,
                    "time": 45.60000000000005,
                    "velocity": 0.5905511811023622,
                    "duration": 0.10000000000000142
                },
                {
                    "name": "G4",
                    "midi": 67,
                    "time": 45.900000000000055,
                    "velocity": 0.5905511811023622,
                    "duration": 0.10000000000000142
                },
                {
                    "name": "G#4",
                    "midi": 68,
                    "time": 46.20000000000006,
                    "velocity": 0.5905511811023622,
                    "duration": 0.29999999999999716
                },
                {
                    "name": "F5",
                    "midi": 77,
                    "time": 46.50000000000006,
                    "velocity": 0.5905511811023622,
                    "duration": 0.10000000000000142
                },
                {
                    "name": "F4",
                    "midi": 65,
                    "time": 46.80000000000006,
                    "velocity": 0.5905511811023622,
                    "duration": 0.10000000000000142
                },
                {
                    "name": "A#4",
                    "midi": 70,
                    "time": 47.100000000000065,
                    "velocity": 0.8267716535433071,
                    "duration": 1.1937500000000014
                },
                {
                    "name": "G#4",
                    "midi": 68,
                    "time": 48.30000000000007,
                    "velocity": 0.5905511811023622,
                    "duration": 0.10000000000000142
                },
                {
                    "name": "G4",
                    "midi": 67,
                    "time": 48.60000000000007,
                    "velocity": 0.5905511811023622,
                    "duration": 0.10000000000000142
                },
                {
                    "name": "F4",
                    "midi": 65,
                    "time": 48.90000000000008,
                    "velocity": 0.5905511811023622,
                    "duration": 0.10000000000000142
                },
                {
                    "name": "G4",
                    "midi": 67,
                    "time": 49.00000000000008,
                    "velocity": 0.5905511811023622,
                    "duration": 0.10000000000000142
                },
                {
                    "name": "F4",
                    "midi": 65,
                    "time": 49.10000000000008,
                    "velocity": 0.5905511811023622,
                    "duration": 0.10000000000000142
                },
                {
                    "name": "D#4",
                    "midi": 63,
                    "time": 49.20000000000008,
                    "velocity": 0.5905511811023622,
                    "duration": 0.10000000000000142
                },
                {
                    "name": "F4",
                    "midi": 65,
                    "time": 49.500000000000085,
                    "velocity": 0.5905511811023622,
                    "duration": 0.10000000000000142
                },
                {
                    "name": "G4",
                    "midi": 67,
                    "time": 49.80000000000009,
                    "velocity": 0.5905511811023622,
                    "duration": 0.29999999999999716
                },
                {
                    "name": "D#5",
                    "midi": 75,
                    "time": 50.10000000000009,
                    "velocity": 0.5905511811023622,
                    "duration": 0.10000000000000142
                },
                {
                    "name": "D#4",
                    "midi": 63,
                    "time": 50.40000000000009,
                    "velocity": 0.5905511811023622,
                    "duration": 0.10000000000000142
                },
                {
                    "name": "G4",
                    "midi": 67,
                    "time": 50.700000000000095,
                    "velocity": 0.5905511811023622,
                    "duration": 1.1937500000000014
                },
                {
                    "name": "G5",
                    "midi": 79,
                    "time": 51.9000000000001,
                    "velocity": 0.5905511811023622,
                    "duration": 0.10000000000000142
                },
                {
                    "name": "G5",
                    "midi": 79,
                    "time": 52.2000000000001,
                    "velocity": 0.5905511811023622,
                    "duration": 0.10000000000000142
                },
                {
                    "name": "G#5",
                    "midi": 80,
                    "time": 52.50000000000011,
                    "velocity": 0.5905511811023622,
                    "duration": 0.14999999999999858
                },
                {
                    "name": "G5",
                    "midi": 79,
                    "time": 52.650000000000105,
                    "velocity": 0.5905511811023622,
                    "duration": 0.10000000000000142
                },
                {
                    "name": "F5",
                    "midi": 77,
                    "time": 52.800000000000104,
                    "velocity": 0.5905511811023622,
                    "duration": 0.10000000000000142
                },
                {
                    "name": "D#5",
                    "midi": 75,
                    "time": 52.9500000000001,
                    "velocity": 0.5905511811023622,
                    "duration": 0.10000000000000142
                },
                {
                    "name": "D5",
                    "midi": 74,
                    "time": 53.1000000000001,
                    "velocity": 0.5905511811023622,
                    "duration": 0.10000000000000142
                },
                {
                    "name": "C5",
                    "midi": 72,
                    "time": 53.2500000000001,
                    "velocity": 0.5905511811023622,
                    "duration": 0.10000000000000142
                },
                {
                    "name": "B4",
                    "midi": 71,
                    "time": 53.4000000000001,
                    "velocity": 0.5905511811023622,
                    "duration": 0.29999999999999716
                },
                {
                    "name": "G4",
                    "midi": 67,
                    "time": 53.700000000000095,
                    "velocity": 0.5905511811023622,
                    "duration": 0.10000000000000142
                },
                {
                    "name": "G4",
                    "midi": 67,
                    "time": 54.0000000000001,
                    "velocity": 0.5905511811023622,
                    "duration": 0.10000000000000142
                },
                {
                    "name": "G5",
                    "midi": 79,
                    "time": 54.300000000000104,
                    "velocity": 0.5905511811023622,
                    "duration": 1.1937500000000014
                },
                {
                    "name": "G5",
                    "midi": 79,
                    "time": 55.50000000000011,
                    "velocity": 0.5905511811023622,
                    "duration": 0.10000000000000142
                },
                {
                    "name": "G5",
                    "midi": 79,
                    "time": 55.80000000000011,
                    "velocity": 0.5905511811023622,
                    "duration": 0.10000000000000142
                },
                {
                    "name": "G#5",
                    "midi": 80,
                    "time": 56.100000000000115,
                    "velocity": 0.5905511811023622,
                    "duration": 0.14999999999999858
                },
                {
                    "name": "G5",
                    "midi": 79,
                    "time": 56.250000000000114,
                    "velocity": 0.5905511811023622,
                    "duration": 0.10000000000000142
                },
                {
                    "name": "F5",
                    "midi": 77,
                    "time": 56.40000000000011,
                    "velocity": 0.5905511811023622,
                    "duration": 0.10000000000000142
                },
                {
                    "name": "D#5",
                    "midi": 75,
                    "time": 56.55000000000011,
                    "velocity": 0.5905511811023622,
                    "duration": 0.10000000000000142
                },
                {
                    "name": "D5",
                    "midi": 74,
                    "time": 56.70000000000011,
                    "velocity": 0.5905511811023622,
                    "duration": 0.10000000000000142
                },
                {
                    "name": "C5",
                    "midi": 72,
                    "time": 56.85000000000011,
                    "velocity": 0.5905511811023622,
                    "duration": 0.10000000000000142
                },
                {
                    "name": "B4",
                    "midi": 71,
                    "time": 57.00000000000011,
                    "velocity": 0.5905511811023622,
                    "duration": 0.6000000000000014
                },
                {
                    "name": "G4",
                    "midi": 67,
                    "time": 57.60000000000011,
                    "velocity": 0.5905511811023622,
                    "duration": 0.10000000000000142
                },
                {
                    "name": "G5",
                    "midi": 79,
                    "time": 57.90000000000011,
                    "velocity": 0.3543307086614173,
                    "duration": 0.10000000000000142
                },
                {
                    "name": "G5",
                    "midi": 79,
                    "time": 58.20000000000012,
                    "velocity": 0.3543307086614173,
                    "duration": 0.10000000000000142
                },
                {
                    "name": "G5",
                    "midi": 79,
                    "time": 58.50000000000012,
                    "velocity": 0.3543307086614173,
                    "duration": 0.10000000000000142
                },
                {
                    "name": "G5",
                    "midi": 79,
                    "time": 58.800000000000125,
                    "velocity": 0.3543307086614173,
                    "duration": 0.10000000000000142
                },
                {
                    "name": "G5",
                    "midi": 79,
                    "time": 59.10000000000013,
                    "velocity": 0.3543307086614173,
                    "duration": 0.10000000000000142
                },
                {
                    "name": "G5",
                    "midi": 79,
                    "time": 59.400000000000134,
                    "velocity": 0.3543307086614173,
                    "duration": 0.10000000000000142
                },
                {
                    "name": "G4",
                    "midi": 67,
                    "time": 59.70000000000014,
                    "velocity": 0.3543307086614173,
                    "duration": 0.10000000000000142
                },
                {
                    "name": "G4",
                    "midi": 67,
                    "time": 60.00000000000014,
                    "velocity": 0.3543307086614173,
                    "duration": 0.10000000000000142
                },
                {
                    "name": "G4",
                    "midi": 67,
                    "time": 60.300000000000146,
                    "velocity": 0.3543307086614173,
                    "duration": 0.10000000000000142
                },
                {
                    "name": "G3",
                    "midi": 55,
                    "time": 60.60000000000015,
                    "velocity": 0.3543307086614173,
                    "duration": 0.10000000000000142
                },
                {
                    "name": "G3",
                    "midi": 55,
                    "time": 60.900000000000155,
                    "velocity": 0.3543307086614173,
                    "duration": 0.10000000000000142
                },
                {
                    "name": "G3",
                    "midi": 55,
                    "time": 61.20000000000016,
                    "velocity": 0.3543307086614173,
                    "duration": 0.10000000000000142
                },
                {
                    "name": "G4",
                    "midi": 67,
                    "time": 62.10000000000016,
                    "velocity": 0.5905511811023622,
                    "duration": 0.10000000000000142
                },
                {
                    "name": "G5",
                    "midi": 79,
                    "time": 62.40000000000016,
                    "velocity": 0.5905511811023622,
                    "duration": 0.10000000000000142
                },
                {
                    "name": "G5",
                    "midi": 79,
                    "time": 62.700000000000166,
                    "velocity": 0.5905511811023622,
                    "duration": 0.10000000000000142
                },
                {
                    "name": "F5",
                    "midi": 77,
                    "time": 63.00000000000017,
                    "velocity": 0.5905511811023622,
                    "duration": 0.10000000000000142
                },
                {
                    "name": "D#5",
                    "midi": 75,
                    "time": 63.300000000000175,
                    "velocity": 0.5905511811023622,
                    "duration": 0.10000000000000142
                },
                {
                    "name": "D#5",
                    "midi": 75,
                    "time": 63.60000000000018,
                    "velocity": 0.5905511811023622,
                    "duration": 0.10000000000000142
                },
                {
                    "name": "D5",
                    "midi": 74,
                    "time": 63.90000000000018,
                    "velocity": 0.5905511811023622,
                    "duration": 0.10000000000000142
                },
                {
                    "name": "C5",
                    "midi": 72,
                    "time": 64.20000000000019,
                    "velocity": 0.5905511811023622,
                    "duration": 0.09999999999999432
                },
                {
                    "name": "B4",
                    "midi": 71,
                    "time": 64.50000000000018,
                    "velocity": 0.5905511811023622,
                    "duration": 0.09999999999999432
                },
                {
                    "name": "C5",
                    "midi": 72,
                    "time": 64.80000000000018,
                    "velocity": 0.5905511811023622,
                    "duration": 0.09999999999999432
                },
                {
                    "name": "B4",
                    "midi": 71,
                    "time": 65.10000000000018,
                    "velocity": 0.5905511811023622,
                    "duration": 0.07500000000000284
                },
                {
                    "name": "C5",
                    "midi": 72,
                    "time": 65.17500000000018,
                    "velocity": 0.5905511811023622,
                    "duration": 0.07500000000000284
                },
                {
                    "name": "D5",
                    "midi": 74,
                    "time": 65.25000000000018,
                    "velocity": 0.5905511811023622,
                    "duration": 0.09999999999999432
                },
                {
                    "name": "G4",
                    "midi": 67,
                    "time": 65.40000000000018,
                    "velocity": 0.5905511811023622,
                    "duration": 0.09999999999999432
                },
                {
                    "name": "G4",
                    "midi": 67,
                    "time": 65.70000000000017,
                    "velocity": 0.5905511811023622,
                    "duration": 0.09999999999999432
                },
                {
                    "name": "A#4",
                    "midi": 70,
                    "time": 66.00000000000017,
                    "velocity": 0.5905511811023622,
                    "duration": 0.07500000000000284
                },
                {
                    "name": "G#4",
                    "midi": 68,
                    "time": 66.07500000000017,
                    "velocity": 0.5905511811023622,
                    "duration": 0.15000000000000568
                },
                {
                    "name": "G4",
                    "midi": 67,
                    "time": 66.30000000000018,
                    "velocity": 0.5905511811023622,
                    "duration": 0.09999999999999432
                },
                {
                    "name": "F4",
                    "midi": 65,
                    "time": 66.60000000000018,
                    "velocity": 0.5905511811023622,
                    "duration": 0.09999999999999432
                },
                {
                    "name": "D#4",
                    "midi": 63,
                    "time": 66.90000000000018,
                    "velocity": 0.5905511811023622,
                    "duration": 0.09999999999999432
                },
                {
                    "name": "D4",
                    "midi": 62,
                    "time": 67.20000000000017,
                    "velocity": 0.5905511811023622,
                    "duration": 0.09999999999999432
                },
                {
                    "name": "C4",
                    "midi": 60,
                    "time": 67.50000000000017,
                    "velocity": 0.5905511811023622,
                    "duration": 0.09999999999999432
                },
                {
                    "name": "F4",
                    "midi": 65,
                    "time": 67.80000000000017,
                    "velocity": 0.5905511811023622,
                    "duration": 0.07500000000000284
                },
                {
                    "name": "D#4",
                    "midi": 63,
                    "time": 67.87500000000017,
                    "velocity": 0.5905511811023622,
                    "duration": 0.15000000000000568
                },
                {
                    "name": "D4",
                    "midi": 62,
                    "time": 68.10000000000018,
                    "velocity": 0.5905511811023622,
                    "duration": 0.09999999999999432
                },
                {
                    "name": "C4",
                    "midi": 60,
                    "time": 68.40000000000018,
                    "velocity": 0.5905511811023622,
                    "duration": 0.09999999999999432
                },
                {
                    "name": "D4",
                    "midi": 62,
                    "time": 68.70000000000017,
                    "velocity": 0.5905511811023622,
                    "duration": 0.5999999999999943
                },
                {
                    "name": "G4",
                    "midi": 67,
                    "time": 69.30000000000017,
                    "velocity": 0.5905511811023622,
                    "duration": 0.29999999999999716
                },
                {
                    "name": "G5",
                    "midi": 79,
                    "time": 69.60000000000016,
                    "velocity": 0.5905511811023622,
                    "duration": 0.09999999999999432
                },
                {
                    "name": "G5",
                    "midi": 79,
                    "time": 69.90000000000016,
                    "velocity": 0.5905511811023622,
                    "duration": 0.09999999999999432
                },
                {
                    "name": "F5",
                    "midi": 77,
                    "time": 70.20000000000016,
                    "velocity": 0.5905511811023622,
                    "duration": 0.09999999999999432
                },
                {
                    "name": "E5",
                    "midi": 76,
                    "time": 70.50000000000016,
                    "velocity": 0.5905511811023622,
                    "duration": 0.09999999999999432
                },
                {
                    "name": "E5",
                    "midi": 76,
                    "time": 70.80000000000015,
                    "velocity": 0.5905511811023622,
                    "duration": 0.09999999999999432
                },
                {
                    "name": "D5",
                    "midi": 74,
                    "time": 71.10000000000015,
                    "velocity": 0.5905511811023622,
                    "duration": 0.09999999999999432
                },
                {
                    "name": "C5",
                    "midi": 72,
                    "time": 71.40000000000015,
                    "velocity": 0.5905511811023622,
                    "duration": 0.09999999999999432
                },
                {
                    "name": "C5",
                    "midi": 72,
                    "time": 71.70000000000014,
                    "velocity": 0.5905511811023622,
                    "duration": 0.09999999999999432
                },
                {
                    "name": "A#4",
                    "midi": 70,
                    "time": 72.00000000000014,
                    "velocity": 0.5905511811023622,
                    "duration": 0.09999999999999432
                },
                {
                    "name": "A4",
                    "midi": 69,
                    "time": 72.30000000000014,
                    "velocity": 0.5905511811023622,
                    "duration": 0.09999999999999432
                },
                {
                    "name": "G4",
                    "midi": 67,
                    "time": 72.60000000000014,
                    "velocity": 0.5905511811023622,
                    "duration": 0.09999999999999432
                },
                {
                    "name": "F4",
                    "midi": 65,
                    "time": 72.90000000000013,
                    "velocity": 0.5905511811023622,
                    "duration": 0.09999999999999432
                },
                {
                    "name": "A#4",
                    "midi": 70,
                    "time": 73.20000000000013,
                    "velocity": 0.5905511811023622,
                    "duration": 0.07500000000000284
                },
                {
                    "name": "G#4",
                    "midi": 68,
                    "time": 73.27500000000013,
                    "velocity": 0.5905511811023622,
                    "duration": 0.15000000000000568
                },
                {
                    "name": "G4",
                    "midi": 67,
                    "time": 73.50000000000014,
                    "velocity": 0.5905511811023622,
                    "duration": 0.09999999999999432
                },
                {
                    "name": "F4",
                    "midi": 65,
                    "time": 73.80000000000014,
                    "velocity": 0.5905511811023622,
                    "duration": 0.09999999999999432
                },
                {
                    "name": "G4",
                    "midi": 67,
                    "time": 74.10000000000014,
                    "velocity": 0.5905511811023622,
                    "duration": 0.09999999999999432
                },
                {
                    "name": "C5",
                    "midi": 72,
                    "time": 74.40000000000013,
                    "velocity": 0.5905511811023622,
                    "duration": 0.09999999999999432
                },
                {
                    "name": "D#5",
                    "midi": 75,
                    "time": 74.55000000000013,
                    "velocity": 0.5905511811023622,
                    "duration": 0.09999999999999432
                },
                {
                    "name": "G5",
                    "midi": 79,
                    "time": 74.70000000000012,
                    "velocity": 0.5905511811023622,
                    "duration": 0.09999999999999432
                },
                {
                    "name": "G4",
                    "midi": 67,
                    "time": 75.00000000000011,
                    "velocity": 0.5905511811023622,
                    "duration": 0.09999999999999432
                },
                {
                    "name": "B4",
                    "midi": 71,
                    "time": 75.30000000000011,
                    "velocity": 0.5905511811023622,
                    "duration": 0.09999999999999432
                },
                {
                    "name": "D5",
                    "midi": 74,
                    "time": 75.4500000000001,
                    "velocity": 0.5905511811023622,
                    "duration": 0.09999999999999432
                },
                {
                    "name": "G5",
                    "midi": 79,
                    "time": 75.6000000000001,
                    "velocity": 0.5905511811023622,
                    "duration": 0.09999999999999432
                },
                {
                    "name": "C5",
                    "midi": 72,
                    "time": 75.90000000000009,
                    "velocity": 0.5905511811023622,
                    "duration": 0.09999999999999432
                },
                {
                    "name": "C6",
                    "midi": 84,
                    "time": 76.20000000000009,
                    "velocity": 0.5905511811023622,
                    "duration": 0.09999999999999432
                },
                {
                    "name": "G4",
                    "midi": 67,
                    "time": 76.50000000000009,
                    "velocity": 0.7244094488188977,
                    "duration": 0.29999999999999716
                },
                {
                    "name": "G5",
                    "midi": 79,
                    "time": 76.80000000000008,
                    "velocity": 0.7244094488188977,
                    "duration": 0.09999999999999432
                },
                {
                    "name": "G5",
                    "midi": 79,
                    "time": 77.10000000000008,
                    "velocity": 0.7244094488188977,
                    "duration": 0.09999999999999432
                },
                {
                    "name": "F5",
                    "midi": 77,
                    "time": 77.40000000000008,
                    "velocity": 0.7244094488188977,
                    "duration": 0.09999999999999432
                },
                {
                    "name": "D#5",
                    "midi": 75,
                    "time": 77.70000000000007,
                    "velocity": 0.7244094488188977,
                    "duration": 0.09999999999999432
                },
                {
                    "name": "D#5",
                    "midi": 75,
                    "time": 78.00000000000007,
                    "velocity": 0.7244094488188977,
                    "duration": 0.09999999999999432
                },
                {
                    "name": "D5",
                    "midi": 74,
                    "time": 78.30000000000007,
                    "velocity": 0.7244094488188977,
                    "duration": 0.09999999999999432
                },
                {
                    "name": "C5",
                    "midi": 72,
                    "time": 78.60000000000007,
                    "velocity": 0.7244094488188977,
                    "duration": 0.09999999999999432
                },
                {
                    "name": "B4",
                    "midi": 71,
                    "time": 78.90000000000006,
                    "velocity": 0.7244094488188977,
                    "duration": 0.09999999999999432
                },
                {
                    "name": "C5",
                    "midi": 72,
                    "time": 79.20000000000006,
                    "velocity": 0.7244094488188977,
                    "duration": 0.09999999999999432
                },
                {
                    "name": "B4",
                    "midi": 71,
                    "time": 79.50000000000006,
                    "velocity": 0.7244094488188977,
                    "duration": 0.07500000000000284
                },
                {
                    "name": "C5",
                    "midi": 72,
                    "time": 79.57500000000006,
                    "velocity": 0.7244094488188977,
                    "duration": 0.07500000000000284
                },
                {
                    "name": "D5",
                    "midi": 74,
                    "time": 79.65000000000006,
                    "velocity": 0.7244094488188977,
                    "duration": 0.09999999999999432
                },
                {
                    "name": "G4",
                    "midi": 67,
                    "time": 79.80000000000005,
                    "velocity": 0.7244094488188977,
                    "duration": 0.09999999999999432
                },
                {
                    "name": "G4",
                    "midi": 67,
                    "time": 80.10000000000005,
                    "velocity": 0.7244094488188977,
                    "duration": 0.09999999999999432
                },
                {
                    "name": "A#4",
                    "midi": 70,
                    "time": 80.40000000000005,
                    "velocity": 0.7244094488188977,
                    "duration": 0.07500000000000284
                },
                {
                    "name": "G#4",
                    "midi": 68,
                    "time": 80.47500000000005,
                    "velocity": 0.7244094488188977,
                    "duration": 0.15000000000000568
                },
                {
                    "name": "G4",
                    "midi": 67,
                    "time": 80.70000000000006,
                    "velocity": 0.7244094488188977,
                    "duration": 0.09999999999999432
                },
                {
                    "name": "F4",
                    "midi": 65,
                    "time": 81.00000000000006,
                    "velocity": 0.7244094488188977,
                    "duration": 0.09999999999999432
                },
                {
                    "name": "D#5",
                    "midi": 75,
                    "time": 81.30000000000005,
                    "velocity": 0.7244094488188977,
                    "duration": 0.09999999999999432
                },
                {
                    "name": "D5",
                    "midi": 74,
                    "time": 81.60000000000005,
                    "velocity": 0.7244094488188977,
                    "duration": 0.09999999999999432
                },
                {
                    "name": "C5",
                    "midi": 72,
                    "time": 81.90000000000005,
                    "velocity": 0.7244094488188977,
                    "duration": 0.09999999999999432
                },
                {
                    "name": "F5",
                    "midi": 77,
                    "time": 82.20000000000005,
                    "velocity": 0.7244094488188977,
                    "duration": 0.07500000000000284
                },
                {
                    "name": "D#5",
                    "midi": 75,
                    "time": 82.27500000000005,
                    "velocity": 0.7244094488188977,
                    "duration": 0.15000000000000568
                },
                {
                    "name": "D5",
                    "midi": 74,
                    "time": 82.50000000000006,
                    "velocity": 0.7244094488188977,
                    "duration": 0.09999999999999432
                },
                {
                    "name": "C5",
                    "midi": 72,
                    "time": 82.80000000000005,
                    "velocity": 0.7244094488188977,
                    "duration": 0.09999999999999432
                },
                {
                    "name": "D5",
                    "midi": 74,
                    "time": 83.10000000000005,
                    "velocity": 0.7244094488188977,
                    "duration": 0.5999999999999943
                },
                {
                    "name": "G4",
                    "midi": 67,
                    "time": 83.70000000000005,
                    "velocity": 0.7244094488188977,
                    "duration": 0.29999999999999716
                },
                {
                    "name": "G5",
                    "midi": 79,
                    "time": 84.00000000000004,
                    "velocity": 0.7244094488188977,
                    "duration": 0.09999999999999432
                },
                {
                    "name": "G5",
                    "midi": 79,
                    "time": 84.30000000000004,
                    "velocity": 0.7244094488188977,
                    "duration": 0.09999999999999432
                },
                {
                    "name": "F5",
                    "midi": 77,
                    "time": 84.60000000000004,
                    "velocity": 0.7244094488188977,
                    "duration": 0.09999999999999432
                },
                {
                    "name": "E5",
                    "midi": 76,
                    "time": 84.90000000000003,
                    "velocity": 0.7244094488188977,
                    "duration": 0.09999999999999432
                },
                {
                    "name": "E5",
                    "midi": 76,
                    "time": 85.20000000000003,
                    "velocity": 0.7244094488188977,
                    "duration": 0.09999999999999432
                },
                {
                    "name": "D5",
                    "midi": 74,
                    "time": 85.50000000000003,
                    "velocity": 0.7244094488188977,
                    "duration": 0.09999999999999432
                },
                {
                    "name": "C5",
                    "midi": 72,
                    "time": 85.80000000000003,
                    "velocity": 0.7244094488188977,
                    "duration": 0.09999999999999432
                },
                {
                    "name": "B4",
                    "midi": 71,
                    "time": 86.10000000000002,
                    "velocity": 0.7244094488188977,
                    "duration": 0.09999999999999432
                },
                {
                    "name": "C5",
                    "midi": 72,
                    "time": 86.40000000000002,
                    "velocity": 0.7244094488188977,
                    "duration": 0.09999999999999432
                },
                {
                    "name": "B4",
                    "midi": 71,
                    "time": 86.70000000000002,
                    "velocity": 0.7244094488188977,
                    "duration": 0.07500000000000284
                },
                {
                    "name": "C5",
                    "midi": 72,
                    "time": 86.77500000000002,
                    "velocity": 0.7244094488188977,
                    "duration": 0.07500000000000284
                },
                {
                    "name": "D5",
                    "midi": 74,
                    "time": 86.85000000000002,
                    "velocity": 0.7244094488188977,
                    "duration": 0.09999999999999432
                },
                {
                    "name": "G4",
                    "midi": 67,
                    "time": 87.00000000000001,
                    "velocity": 0.7244094488188977,
                    "duration": 0.09999999999999432
                },
                {
                    "name": "G4",
                    "midi": 67,
                    "time": 87.30000000000001,
                    "velocity": 0.7244094488188977,
                    "duration": 0.09999999999999432
                },
                {
                    "name": "A#4",
                    "midi": 70,
                    "time": 87.60000000000001,
                    "velocity": 0.7244094488188977,
                    "duration": 0.07500000000000284
                },
                {
                    "name": "G#4",
                    "midi": 68,
                    "time": 87.67500000000001,
                    "velocity": 0.7244094488188977,
                    "duration": 0.15000000000000568
                },
                {
                    "name": "G4",
                    "midi": 67,
                    "time": 87.90000000000002,
                    "velocity": 0.7244094488188977,
                    "duration": 0.09999999999999432
                },
                {
                    "name": "F4",
                    "midi": 65,
                    "time": 88.20000000000002,
                    "velocity": 0.7244094488188977,
                    "duration": 0.09999999999999432
                },
                {
                    "name": "G4",
                    "midi": 67,
                    "time": 88.50000000000001,
                    "velocity": 0.7244094488188977,
                    "duration": 0.09999999999999432
                },
                {
                    "name": "C5",
                    "midi": 72,
                    "time": 88.80000000000001,
                    "velocity": 0.7244094488188977,
                    "duration": 0.09999999999999432
                },
                {
                    "name": "D#5",
                    "midi": 75,
                    "time": 88.95,
                    "velocity": 0.7244094488188977,
                    "duration": 0.09999999999999432
                },
                {
                    "name": "G5",
                    "midi": 79,
                    "time": 89.1,
                    "velocity": 0.7244094488188977,
                    "duration": 0.09999999999999432
                },
                {
                    "name": "G4",
                    "midi": 67,
                    "time": 89.39999999999999,
                    "velocity": 0.7244094488188977,
                    "duration": 0.09999999999999432
                },
                {
                    "name": "B4",
                    "midi": 71,
                    "time": 89.69999999999999,
                    "velocity": 0.7244094488188977,
                    "duration": 0.09999999999999432
                },
                {
                    "name": "D5",
                    "midi": 74,
                    "time": 89.84999999999998,
                    "velocity": 0.7244094488188977,
                    "duration": 0.09999999999999432
                },
                {
                    "name": "G5",
                    "midi": 79,
                    "time": 89.99999999999997,
                    "velocity": 0.7244094488188977,
                    "duration": 0.09999999999999432
                },
                {
                    "name": "C5",
                    "midi": 72,
                    "time": 90.29999999999997,
                    "velocity": 0.5905511811023622,
                    "duration": 0.9000000000000057
                },
                {
                    "name": "C5",
                    "midi": 72,
                    "time": 91.19999999999997,
                    "velocity": 0.3543307086614173,
                    "duration": 0.5
                },
                {
                    "name": "D#4",
                    "midi": 63,
                    "time": 92.09999999999998,
                    "velocity": 0.5905511811023622,
                    "duration": 0.9000000000000057
                },
                {
                    "name": "F4",
                    "midi": 65,
                    "time": 92.99999999999999,
                    "velocity": 0.5905511811023622,
                    "duration": 0.5999999999999943
                },
                {
                    "name": "G4",
                    "midi": 67,
                    "time": 93.59999999999998,
                    "velocity": 0.5905511811023622,
                    "duration": 0.29999999999999716
                },
                {
                    "name": "G#4",
                    "midi": 68,
                    "time": 93.89999999999998,
                    "velocity": 0.5905511811023622,
                    "duration": 0.9000000000000057
                },
                {
                    "name": "C5",
                    "midi": 72,
                    "time": 94.79999999999998,
                    "velocity": 0.5905511811023622,
                    "duration": 0.7999999999999972
                },
                {
                    "name": "C5",
                    "midi": 72,
                    "time": 95.69999999999997,
                    "velocity": 0.5905511811023622,
                    "duration": 1.7999999999999972
                },
                {
                    "name": "A#4",
                    "midi": 70,
                    "time": 97.49999999999997,
                    "velocity": 0.5905511811023622,
                    "duration": 0.7999999999999972
                },
                {
                    "name": "C#5",
                    "midi": 73,
                    "time": 98.39999999999996,
                    "velocity": 0.5905511811023622,
                    "duration": 0.5999999999999943
                },
                {
                    "name": "C5",
                    "midi": 72,
                    "time": 98.99999999999996,
                    "velocity": 0.5905511811023622,
                    "duration": 0.29999999999999716
                },
                {
                    "name": "G#4",
                    "midi": 68,
                    "time": 99.29999999999995,
                    "velocity": 0.5905511811023622,
                    "duration": 0.7999999999999972
                },
                {
                    "name": "C5",
                    "midi": 72,
                    "time": 100.19999999999995,
                    "velocity": 0.5905511811023622,
                    "duration": 0.9000000000000057
                },
                {
                    "name": "G4",
                    "midi": 67,
                    "time": 101.09999999999995,
                    "velocity": 0.5905511811023622,
                    "duration": 0.7999999999999972
                },
                {
                    "name": "C5",
                    "midi": 72,
                    "time": 101.99999999999994,
                    "velocity": 0.5905511811023622,
                    "duration": 0.9000000000000057
                },
                {
                    "name": "F4",
                    "midi": 65,
                    "time": 102.89999999999995,
                    "velocity": 0.5905511811023622,
                    "duration": 2.5999999999999943
                },
                {
                    "name": "F#4",
                    "midi": 66,
                    "time": 105.59999999999994,
                    "velocity": 0.5905511811023622,
                    "duration": 0.5999999999999943
                },
                {
                    "name": "F4",
                    "midi": 65,
                    "time": 106.19999999999993,
                    "velocity": 0.5905511811023622,
                    "duration": 0.29999999999999716
                },
                {
                    "name": "F4",
                    "midi": 65,
                    "time": 106.49999999999993,
                    "velocity": 0.5905511811023622,
                    "duration": 0.7999999999999972
                },
                {
                    "name": "G4",
                    "midi": 67,
                    "time": 107.39999999999992,
                    "velocity": 0.5905511811023622,
                    "duration": 0.5999999999999943
                },
                {
                    "name": "A4",
                    "midi": 69,
                    "time": 107.99999999999991,
                    "velocity": 0.5905511811023622,
                    "duration": 0.29999999999999716
                },
                {
                    "name": "A#4",
                    "midi": 70,
                    "time": 108.29999999999991,
                    "velocity": 0.5905511811023622,
                    "duration": 0.9000000000000057
                },
                {
                    "name": "C#5",
                    "midi": 73,
                    "time": 109.19999999999992,
                    "velocity": 0.5905511811023622,
                    "duration": 0.7999999999999972
                },
                {
                    "name": "C#5",
                    "midi": 73,
                    "time": 110.09999999999991,
                    "velocity": 0.5905511811023622,
                    "duration": 1.7999999999999972
                },
                {
                    "name": "C5",
                    "midi": 72,
                    "time": 111.8999999999999,
                    "velocity": 0.5905511811023622,
                    "duration": 0.7999999999999972
                },
                {
                    "name": "A#4",
                    "midi": 70,
                    "time": 112.7999999999999,
                    "velocity": 0.5905511811023622,
                    "duration": 0.5999999999999943
                },
                {
                    "name": "G#4",
                    "midi": 68,
                    "time": 113.39999999999989,
                    "velocity": 0.5905511811023622,
                    "duration": 0.29999999999999716
                },
                {
                    "name": "G4",
                    "midi": 67,
                    "time": 113.69999999999989,
                    "velocity": 0.5905511811023622,
                    "duration": 0.9000000000000057
                },
                {
                    "name": "A#4",
                    "midi": 70,
                    "time": 114.5999999999999,
                    "velocity": 0.5905511811023622,
                    "duration": 0.5999999999999943
                },
                {
                    "name": "G#4",
                    "midi": 68,
                    "time": 115.19999999999989,
                    "velocity": 0.5905511811023622,
                    "duration": 0.29999999999999716
                },
                {
                    "name": "F4",
                    "midi": 65,
                    "time": 115.49999999999989,
                    "velocity": 0.5905511811023622,
                    "duration": 0.9000000000000057
                },
                {
                    "name": "C5",
                    "midi": 72,
                    "time": 116.39999999999989,
                    "velocity": 0.5905511811023622,
                    "duration": 0.5999999999999943
                },
                {
                    "name": "A#4",
                    "midi": 70,
                    "time": 116.99999999999989,
                    "velocity": 0.5905511811023622,
                    "duration": 0.29999999999999716
                },
                {
                    "name": "D#4",
                    "midi": 63,
                    "time": 117.29999999999988,
                    "velocity": 0.5905511811023622,
                    "duration": 0.29999999999999716
                },
                {
                    "name": "D#5",
                    "midi": 75,
                    "time": 118.19999999999987,
                    "velocity": 0.8267716535433071,
                    "duration": 1.1937499999999943
                },
                {
                    "name": "F5",
                    "midi": 77,
                    "time": 119.39999999999986,
                    "velocity": 0.5905511811023622,
                    "duration": 0.29999999999999716
                },
                {
                    "name": "C5",
                    "midi": 72,
                    "time": 119.69999999999986,
                    "velocity": 0.5905511811023622,
                    "duration": 0.29999999999999716
                },
                {
                    "name": "D#5",
                    "midi": 75,
                    "time": 119.99999999999986,
                    "velocity": 0.5905511811023622,
                    "duration": 0.29999999999999716
                },
                {
                    "name": "C#5",
                    "midi": 73,
                    "time": 120.29999999999986,
                    "velocity": 0.5905511811023622,
                    "duration": 0.29999999999999716
                },
                {
                    "name": "A#4",
                    "midi": 70,
                    "time": 120.59999999999985,
                    "velocity": 0.5905511811023622,
                    "duration": 0.29375000000000284
                },
                {
                    "name": "D#4",
                    "midi": 63,
                    "time": 120.89999999999985,
                    "velocity": 0.7244094488188977,
                    "duration": 0.9000000000000057
                },
                {
                    "name": "F4",
                    "midi": 65,
                    "time": 121.79999999999986,
                    "velocity": 0.7244094488188977,
                    "duration": 0.5999999999999943
                },
                {
                    "name": "G4",
                    "midi": 67,
                    "time": 122.39999999999985,
                    "velocity": 0.7244094488188977,
                    "duration": 0.29999999999999716
                },
                {
                    "name": "G#4",
                    "midi": 68,
                    "time": 122.69999999999985,
                    "velocity": 0.7244094488188977,
                    "duration": 0.9000000000000057
                },
                {
                    "name": "C5",
                    "midi": 72,
                    "time": 123.59999999999985,
                    "velocity": 0.7244094488188977,
                    "duration": 0.7999999999999972
                },
                {
                    "name": "C5",
                    "midi": 72,
                    "time": 124.49999999999984,
                    "velocity": 0.7244094488188977,
                    "duration": 1.7999999999999972
                },
                {
                    "name": "A#4",
                    "midi": 70,
                    "time": 126.29999999999984,
                    "velocity": 0.7244094488188977,
                    "duration": 0.7999999999999972
                },
                {
                    "name": "C#5",
                    "midi": 73,
                    "time": 127.19999999999983,
                    "velocity": 0.7244094488188977,
                    "duration": 0.5999999999999943
                },
                {
                    "name": "C5",
                    "midi": 72,
                    "time": 127.79999999999983,
                    "velocity": 0.7244094488188977,
                    "duration": 0.29999999999999716
                },
                {
                    "name": "G#4",
                    "midi": 68,
                    "time": 128.09999999999982,
                    "velocity": 0.7244094488188977,
                    "duration": 0.8000000000000114
                },
                {
                    "name": "C5",
                    "midi": 72,
                    "time": 128.99999999999983,
                    "velocity": 0.7244094488188977,
                    "duration": 0.9000000000000057
                },
                {
                    "name": "G4",
                    "midi": 67,
                    "time": 129.89999999999984,
                    "velocity": 0.7244094488188977,
                    "duration": 0.8000000000000114
                },
                {
                    "name": "C5",
                    "midi": 72,
                    "time": 130.79999999999984,
                    "velocity": 0.7244094488188977,
                    "duration": 0.9000000000000057
                },
                {
                    "name": "F4",
                    "midi": 65,
                    "time": 131.69999999999985,
                    "velocity": 0.7244094488188977,
                    "duration": 2.5999999999999943
                },
                {
                    "name": "F#4",
                    "midi": 66,
                    "time": 134.39999999999984,
                    "velocity": 0.7244094488188977,
                    "duration": 0.5999999999999943
                },
                {
                    "name": "F4",
                    "midi": 65,
                    "time": 134.99999999999983,
                    "velocity": 0.7244094488188977,
                    "duration": 0.29374999999998863
                },
                {
                    "name": "F4",
                    "midi": 65,
                    "time": 135.2999999999998,
                    "velocity": 0.7244094488188977,
                    "duration": 0.9000000000000057
                },
                {
                    "name": "G4",
                    "midi": 67,
                    "time": 136.19999999999982,
                    "velocity": 0.7244094488188977,
                    "duration": 0.5999999999999943
                },
                {
                    "name": "A4",
                    "midi": 69,
                    "time": 136.7999999999998,
                    "velocity": 0.7244094488188977,
                    "duration": 0.30000000000001137
                },
                {
                    "name": "A#4",
                    "midi": 70,
                    "time": 137.09999999999982,
                    "velocity": 0.7244094488188977,
                    "duration": 0.8000000000000114
                },
                {
                    "name": "C#5",
                    "midi": 73,
                    "time": 137.99999999999983,
                    "velocity": 0.7244094488188977,
                    "duration": 0.9000000000000057
                },
                {
                    "name": "C5",
                    "midi": 72,
                    "time": 138.89999999999984,
                    "velocity": 0.7244094488188977,
                    "duration": 0.30000000000001137
                },
                {
                    "name": "B4",
                    "midi": 71,
                    "time": 139.19999999999985,
                    "velocity": 0.7244094488188977,
                    "duration": 0.30000000000001137
                },
                {
                    "name": "C5",
                    "midi": 72,
                    "time": 139.49999999999986,
                    "velocity": 0.7244094488188977,
                    "duration": 0.30000000000001137
                },
                {
                    "name": "F5",
                    "midi": 77,
                    "time": 139.79999999999987,
                    "velocity": 0.7244094488188977,
                    "duration": 0.5999999999999943
                },
                {
                    "name": "D#5",
                    "midi": 75,
                    "time": 140.39999999999986,
                    "velocity": 0.7244094488188977,
                    "duration": 0.29374999999998863
                },
                {
                    "name": "D#5",
                    "midi": 75,
                    "time": 140.69999999999985,
                    "velocity": 0.7244094488188977,
                    "duration": 0.9000000000000057
                },
                {
                    "name": "C#5",
                    "midi": 73,
                    "time": 141.59999999999985,
                    "velocity": 0.7244094488188977,
                    "duration": 1.34375
                },
                {
                    "name": "D#4",
                    "midi": 63,
                    "time": 142.94999999999985,
                    "velocity": 0.7244094488188977,
                    "duration": 0.44999999999998863
                },
                {
                    "name": "F4",
                    "midi": 65,
                    "time": 143.39999999999984,
                    "velocity": 0.7244094488188977,
                    "duration": 0.44999999999998863
                },
                {
                    "name": "G4",
                    "midi": 67,
                    "time": 143.84999999999982,
                    "velocity": 0.7244094488188977,
                    "duration": 0.44999999999998863
                },
                {
                    "name": "G#4",
                    "midi": 68,
                    "time": 144.2999999999998,
                    "velocity": 0.7244094488188977,
                    "duration": 0.9000000000000057
                },
                {
                    "name": "C5",
                    "midi": 72,
                    "time": 145.19999999999982,
                    "velocity": 0.7244094488188977,
                    "duration": 0.9000000000000057
                },
                {
                    "name": "A#4",
                    "midi": 70,
                    "time": 146.09999999999982,
                    "velocity": 0.7244094488188977,
                    "duration": 0.30000000000001137
                },
                {
                    "name": "A4",
                    "midi": 69,
                    "time": 146.39999999999984,
                    "velocity": 0.7244094488188977,
                    "duration": 0.30000000000001137
                },
                {
                    "name": "A#4",
                    "midi": 70,
                    "time": 146.69999999999985,
                    "velocity": 0.7244094488188977,
                    "duration": 0.30000000000001137
                },
                {
                    "name": "D#5",
                    "midi": 75,
                    "time": 146.99999999999986,
                    "velocity": 0.7244094488188977,
                    "duration": 0.5999999999999943
                },
                {
                    "name": "C#5",
                    "midi": 73,
                    "time": 147.59999999999985,
                    "velocity": 0.7244094488188977,
                    "duration": 0.29374999999998863
                },
                {
                    "name": "C#5",
                    "midi": 73,
                    "time": 147.89999999999984,
                    "velocity": 0.7244094488188977,
                    "duration": 0.9000000000000057
                },
                {
                    "name": "C5",
                    "midi": 72,
                    "time": 148.79999999999984,
                    "velocity": 0.7244094488188977,
                    "duration": 1.34375
                },
                {
                    "name": "G#4",
                    "midi": 68,
                    "time": 150.14999999999984,
                    "velocity": 0.7244094488188977,
                    "duration": 0.44999999999998863
                },
                {
                    "name": "A#4",
                    "midi": 70,
                    "time": 150.59999999999982,
                    "velocity": 0.7244094488188977,
                    "duration": 0.44999999999998863
                },
                {
                    "name": "C5",
                    "midi": 72,
                    "time": 151.0499999999998,
                    "velocity": 0.7244094488188977,
                    "duration": 0.44999999999998863
                },
                {
                    "name": "C#5",
                    "midi": 73,
                    "time": 151.4999999999998,
                    "velocity": 0.7244094488188977,
                    "duration": 0.9000000000000057
                },
                {
                    "name": "G#4",
                    "midi": 68,
                    "time": 152.3999999999998,
                    "velocity": 0.7244094488188977,
                    "duration": 0.9000000000000057
                },
                {
                    "name": "D#5",
                    "midi": 75,
                    "time": 153.2999999999998,
                    "velocity": 0.7244094488188977,
                    "duration": 0.8000000000000114
                },
                {
                    "name": "G#4",
                    "midi": 68,
                    "time": 154.19999999999982,
                    "velocity": 0.7244094488188977,
                    "duration": 0.9000000000000057
                },
                {
                    "name": "F5",
                    "midi": 77,
                    "time": 155.09999999999982,
                    "velocity": 0.7244094488188977,
                    "duration": 0.44999999999998863
                },
                {
                    "name": "G5",
                    "midi": 79,
                    "time": 155.5499999999998,
                    "velocity": 0.7244094488188977,
                    "duration": 0.44999999999998863
                },
                {
                    "name": "G#5",
                    "midi": 80,
                    "time": 155.9999999999998,
                    "velocity": 0.7244094488188977,
                    "duration": 1.6999999999999886
                },
                {
                    "name": "G5",
                    "midi": 79,
                    "time": 157.79999999999978,
                    "velocity": 0.7244094488188977,
                    "duration": 0.5999999999999943
                },
                {
                    "name": "F5",
                    "midi": 77,
                    "time": 158.39999999999978,
                    "velocity": 0.7244094488188977,
                    "duration": 0.30000000000001137
                },
                {
                    "name": "D#5",
                    "midi": 75,
                    "time": 158.6999999999998,
                    "velocity": 0.7244094488188977,
                    "duration": 0.8000000000000114
                },
                {
                    "name": "C5",
                    "midi": 72,
                    "time": 159.5999999999998,
                    "velocity": 0.7244094488188977,
                    "duration": 0.5999999999999943
                },
                {
                    "name": "G#4",
                    "midi": 68,
                    "time": 160.1999999999998,
                    "velocity": 0.7244094488188977,
                    "duration": 0.30000000000001137
                },
                {
                    "name": "C5",
                    "midi": 72,
                    "time": 160.4999999999998,
                    "velocity": 0.7244094488188977,
                    "duration": 0.9000000000000057
                },
                {
                    "name": "A#4",
                    "midi": 70,
                    "time": 161.3999999999998,
                    "velocity": 0.7244094488188977,
                    "duration": 0.9000000000000057
                },
                {
                    "name": "C5",
                    "midi": 72,
                    "time": 162.2999999999998,
                    "velocity": 0.47244094488188976,
                    "duration": 0.15000000000000568
                },
                {
                    "name": "B4",
                    "midi": 71,
                    "time": 162.44999999999982,
                    "velocity": 0.47244094488188976,
                    "duration": 0.09999999999999432
                },
                {
                    "name": "C5",
                    "midi": 72,
                    "time": 162.59999999999982,
                    "velocity": 0.47244094488188976,
                    "duration": 0.09999999999999432
                },
                {
                    "name": "D5",
                    "midi": 74,
                    "time": 162.74999999999983,
                    "velocity": 0.47244094488188976,
                    "duration": 0.09999999999999432
                },
                {
                    "name": "E5",
                    "midi": 76,
                    "time": 162.89999999999984,
                    "velocity": 0.47244094488188976,
                    "duration": 0.09999999999999432
                },
                {
                    "name": "F5",
                    "midi": 77,
                    "time": 163.04999999999984,
                    "velocity": 0.47244094488188976,
                    "duration": 0.09999999999999432
                },
                {
                    "name": "G5",
                    "midi": 79,
                    "time": 163.19999999999985,
                    "velocity": 0.47244094488188976,
                    "duration": 0.09999999999999432
                },
                {
                    "name": "G5",
                    "midi": 79,
                    "time": 163.49999999999983,
                    "velocity": 0.47244094488188976,
                    "duration": 0.09999999999999432
                },
                {
                    "name": "G5",
                    "midi": 79,
                    "time": 163.7999999999998,
                    "velocity": 0.47244094488188976,
                    "duration": 0.09999999999999432
                },
                {
                    "name": "C5",
                    "midi": 72,
                    "time": 164.0999999999998,
                    "velocity": 0.47244094488188976,
                    "duration": 0.15000000000000568
                },
                {
                    "name": "B4",
                    "midi": 71,
                    "time": 164.2499999999998,
                    "velocity": 0.47244094488188976,
                    "duration": 0.09999999999999432
                },
                {
                    "name": "C5",
                    "midi": 72,
                    "time": 164.3999999999998,
                    "velocity": 0.47244094488188976,
                    "duration": 0.09999999999999432
                },
                {
                    "name": "D5",
                    "midi": 74,
                    "time": 164.5499999999998,
                    "velocity": 0.47244094488188976,
                    "duration": 0.09999999999999432
                },
                {
                    "name": "E5",
                    "midi": 76,
                    "time": 164.69999999999982,
                    "velocity": 0.47244094488188976,
                    "duration": 0.09999999999999432
                },
                {
                    "name": "F5",
                    "midi": 77,
                    "time": 164.84999999999982,
                    "velocity": 0.47244094488188976,
                    "duration": 0.09999999999999432
                },
                {
                    "name": "G5",
                    "midi": 79,
                    "time": 164.99999999999983,
                    "velocity": 0.47244094488188976,
                    "duration": 0.09999999999999432
                },
                {
                    "name": "G5",
                    "midi": 79,
                    "time": 165.2999999999998,
                    "velocity": 0.47244094488188976,
                    "duration": 0.09999999999999432
                },
                {
                    "name": "G5",
                    "midi": 79,
                    "time": 165.5999999999998,
                    "velocity": 0.47244094488188976,
                    "duration": 0.09999999999999432
                },
                {
                    "name": "C5",
                    "midi": 72,
                    "time": 166.79999999999978,
                    "velocity": 0.47244094488188976,
                    "duration": 0.15000000000000568
                },
                {
                    "name": "B4",
                    "midi": 71,
                    "time": 166.9499999999998,
                    "velocity": 0.47244094488188976,
                    "duration": 0.09999999999999432
                },
                {
                    "name": "C5",
                    "midi": 72,
                    "time": 167.0999999999998,
                    "velocity": 0.47244094488188976,
                    "duration": 0.09999999999999432
                },
                {
                    "name": "D5",
                    "midi": 74,
                    "time": 167.2499999999998,
                    "velocity": 0.47244094488188976,
                    "duration": 0.09999999999999432
                },
                {
                    "name": "E5",
                    "midi": 76,
                    "time": 167.3999999999998,
                    "velocity": 0.47244094488188976,
                    "duration": 0.09999999999999432
                },
                {
                    "name": "F5",
                    "midi": 77,
                    "time": 167.5499999999998,
                    "velocity": 0.47244094488188976,
                    "duration": 0.09999999999999432
                },
                {
                    "name": "G5",
                    "midi": 79,
                    "time": 167.69999999999982,
                    "velocity": 0.6614173228346457,
                    "duration": 0.29374999999998863
                },
                {
                    "name": "G4",
                    "midi": 67,
                    "time": 169.19999999999982,
                    "velocity": 0.5905511811023622,
                    "duration": 0.09999999999999432
                },
                {
                    "name": "G5",
                    "midi": 79,
                    "time": 169.4999999999998,
                    "velocity": 0.5905511811023622,
                    "duration": 0.09999999999999432
                },
                {
                    "name": "G5",
                    "midi": 79,
                    "time": 169.79999999999978,
                    "velocity": 0.5905511811023622,
                    "duration": 0.09999999999999432
                },
                {
                    "name": "F5",
                    "midi": 77,
                    "time": 170.09999999999977,
                    "velocity": 0.5905511811023622,
                    "duration": 0.09999999999999432
                },
                {
                    "name": "D#5",
                    "midi": 75,
                    "time": 170.39999999999975,
                    "velocity": 0.5905511811023622,
                    "duration": 0.09999999999999432
                },
                {
                    "name": "D#5",
                    "midi": 75,
                    "time": 170.69999999999973,
                    "velocity": 0.5905511811023622,
                    "duration": 0.09999999999999432
                },
                {
                    "name": "D5",
                    "midi": 74,
                    "time": 170.99999999999972,
                    "velocity": 0.5905511811023622,
                    "duration": 0.09999999999999432
                },
                {
                    "name": "C5",
                    "midi": 72,
                    "time": 171.2999999999997,
                    "velocity": 0.5905511811023622,
                    "duration": 0.09999999999999432
                },
                {
                    "name": "B4",
                    "midi": 71,
                    "time": 171.59999999999968,
                    "velocity": 0.5905511811023622,
                    "duration": 0.09999999999999432
                },
                {
                    "name": "C5",
                    "midi": 72,
                    "time": 171.89999999999966,
                    "velocity": 0.5905511811023622,
                    "duration": 0.09999999999999432
                },
                {
                    "name": "B4",
                    "midi": 71,
                    "time": 172.19999999999965,
                    "velocity": 0.5905511811023622,
                    "duration": 0.07499999999998863
                },
                {
                    "name": "C5",
                    "midi": 72,
                    "time": 172.27499999999964,
                    "velocity": 0.5905511811023622,
                    "duration": 0.07499999999998863
                },
                {
                    "name": "D5",
                    "midi": 74,
                    "time": 172.34999999999962,
                    "velocity": 0.5905511811023622,
                    "duration": 0.09999999999999432
                },
                {
                    "name": "G4",
                    "midi": 67,
                    "time": 172.49999999999963,
                    "velocity": 0.5905511811023622,
                    "duration": 0.09999999999999432
                },
                {
                    "name": "G4",
                    "midi": 67,
                    "time": 172.7999999999996,
                    "velocity": 0.5905511811023622,
                    "duration": 0.09999999999999432
                },
                {
                    "name": "A#4",
                    "midi": 70,
                    "time": 173.0999999999996,
                    "velocity": 0.5905511811023622,
                    "duration": 0.07499999999998863
                },
                {
                    "name": "G#4",
                    "midi": 68,
                    "time": 173.17499999999959,
                    "velocity": 0.5905511811023622,
                    "duration": 0.15000000000000568
                },
                {
                    "name": "G4",
                    "midi": 67,
                    "time": 173.39999999999958,
                    "velocity": 0.5905511811023622,
                    "duration": 0.09999999999999432
                },
                {
                    "name": "F4",
                    "midi": 65,
                    "time": 173.69999999999956,
                    "velocity": 0.5905511811023622,
                    "duration": 0.09999999999999432
                },
                {
                    "name": "D#4",
                    "midi": 63,
                    "time": 173.99999999999955,
                    "velocity": 0.5905511811023622,
                    "duration": 0.09999999999999432
                },
                {
                    "name": "D4",
                    "midi": 62,
                    "time": 174.29999999999953,
                    "velocity": 0.5905511811023622,
                    "duration": 0.09999999999999432
                },
                {
                    "name": "C4",
                    "midi": 60,
                    "time": 174.5999999999995,
                    "velocity": 0.5905511811023622,
                    "duration": 0.09999999999999432
                },
                {
                    "name": "D#4",
                    "midi": 63,
                    "time": 174.8999999999995,
                    "velocity": 0.5905511811023622,
                    "duration": 0.07499999999998863
                },
                {
                    "name": "D#4",
                    "midi": 63,
                    "time": 174.97499999999948,
                    "velocity": 0.5905511811023622,
                    "duration": 0.15000000000000568
                },
                {
                    "name": "D4",
                    "midi": 62,
                    "time": 175.19999999999948,
                    "velocity": 0.5905511811023622,
                    "duration": 0.09999999999999432
                },
                {
                    "name": "C4",
                    "midi": 60,
                    "time": 175.49999999999946,
                    "velocity": 0.5905511811023622,
                    "duration": 0.09999999999999432
                },
                {
                    "name": "D4",
                    "midi": 62,
                    "time": 175.79999999999944,
                    "velocity": 0.5905511811023622,
                    "duration": 0.5999999999999943
                },
                {
                    "name": "G4",
                    "midi": 67,
                    "time": 176.39999999999944,
                    "velocity": 0.5905511811023622,
                    "duration": 0.30000000000001137
                },
                {
                    "name": "G5",
                    "midi": 79,
                    "time": 176.69999999999945,
                    "velocity": 0.5905511811023622,
                    "duration": 0.09999999999999432
                },
                {
                    "name": "G5",
                    "midi": 79,
                    "time": 176.99999999999943,
                    "velocity": 0.5905511811023622,
                    "duration": 0.09999999999999432
                },
                {
                    "name": "F5",
                    "midi": 77,
                    "time": 177.29999999999941,
                    "velocity": 0.5905511811023622,
                    "duration": 0.09999999999999432
                },
                {
                    "name": "D#5",
                    "midi": 75,
                    "time": 177.5999999999994,
                    "velocity": 0.5905511811023622,
                    "duration": 0.09999999999999432
                },
                {
                    "name": "D#5",
                    "midi": 75,
                    "time": 177.89999999999938,
                    "velocity": 0.5905511811023622,
                    "duration": 0.09999999999999432
                },
                {
                    "name": "D5",
                    "midi": 74,
                    "time": 178.19999999999936,
                    "velocity": 0.5905511811023622,
                    "duration": 0.09999999999999432
                },
                {
                    "name": "C5",
                    "midi": 72,
                    "time": 178.49999999999935,
                    "velocity": 0.5905511811023622,
                    "duration": 0.09999999999999432
                },
                {
                    "name": "B4",
                    "midi": 71,
                    "time": 178.79999999999933,
                    "velocity": 0.5905511811023622,
                    "duration": 0.09999999999999432
                },
                {
                    "name": "C5",
                    "midi": 72,
                    "time": 179.0999999999993,
                    "velocity": 0.5905511811023622,
                    "duration": 0.09999999999999432
                },
                {
                    "name": "B4",
                    "midi": 71,
                    "time": 179.3999999999993,
                    "velocity": 0.5905511811023622,
                    "duration": 0.07499999999998863
                },
                {
                    "name": "C5",
                    "midi": 72,
                    "time": 179.47499999999928,
                    "velocity": 0.5905511811023622,
                    "duration": 0.07499999999998863
                },
                {
                    "name": "D5",
                    "midi": 74,
                    "time": 179.54999999999927,
                    "velocity": 0.5905511811023622,
                    "duration": 0.09999999999999432
                },
                {
                    "name": "G4",
                    "midi": 67,
                    "time": 179.69999999999928,
                    "velocity": 0.5905511811023622,
                    "duration": 0.09999999999999432
                },
                {
                    "name": "G4",
                    "midi": 67,
                    "time": 179.99999999999926,
                    "velocity": 0.5905511811023622,
                    "duration": 0.09999999999999432
                },
                {
                    "name": "A#4",
                    "midi": 70,
                    "time": 180.29999999999924,
                    "velocity": 0.5905511811023622,
                    "duration": 0.07499999999998863
                },
                {
                    "name": "G#4",
                    "midi": 68,
                    "time": 180.37499999999923,
                    "velocity": 0.5905511811023622,
                    "duration": 0.15000000000000568
                },
                {
                    "name": "G4",
                    "midi": 67,
                    "time": 180.59999999999923,
                    "velocity": 0.5905511811023622,
                    "duration": 0.09999999999999432
                },
                {
                    "name": "F4",
                    "midi": 65,
                    "time": 180.8999999999992,
                    "velocity": 0.5905511811023622,
                    "duration": 0.09999999999999432
                },
                {
                    "name": "G4",
                    "midi": 67,
                    "time": 181.1999999999992,
                    "velocity": 0.5905511811023622,
                    "duration": 0.09999999999999432
                },
                {
                    "name": "C5",
                    "midi": 72,
                    "time": 181.49999999999918,
                    "velocity": 0.5905511811023622,
                    "duration": 0.09999999999999432
                },
                {
                    "name": "D#5",
                    "midi": 75,
                    "time": 181.64999999999918,
                    "velocity": 0.5905511811023622,
                    "duration": 0.09999999999999432
                },
                {
                    "name": "G5",
                    "midi": 79,
                    "time": 181.7999999999992,
                    "velocity": 0.5905511811023622,
                    "duration": 0.09999999999999432
                },
                {
                    "name": "G4",
                    "midi": 67,
                    "time": 182.09999999999917,
                    "velocity": 0.5905511811023622,
                    "duration": 0.09999999999999432
                },
                {
                    "name": "B4",
                    "midi": 71,
                    "time": 182.39999999999915,
                    "velocity": 0.5905511811023622,
                    "duration": 0.09999999999999432
                },
                {
                    "name": "D5",
                    "midi": 74,
                    "time": 182.54999999999916,
                    "velocity": 0.5905511811023622,
                    "duration": 0.09999999999999432
                },
                {
                    "name": "G5",
                    "midi": 79,
                    "time": 182.69999999999916,
                    "velocity": 0.5905511811023622,
                    "duration": 0.09999999999999432
                },
                {
                    "name": "C5",
                    "midi": 72,
                    "time": 182.99999999999915,
                    "velocity": 0.5905511811023622,
                    "duration": 0.09999999999999432
                },
                {
                    "name": "C6",
                    "midi": 84,
                    "time": 183.29999999999913,
                    "velocity": 0.5905511811023622,
                    "duration": 0.09999999999999432
                },
                {
                    "name": "G4",
                    "midi": 67,
                    "time": 183.5999999999991,
                    "velocity": 0.7244094488188977,
                    "duration": 0.30000000000001137
                },
                {
                    "name": "G5",
                    "midi": 79,
                    "time": 183.89999999999912,
                    "velocity": 0.7244094488188977,
                    "duration": 0.09999999999999432
                },
                {
                    "name": "G5",
                    "midi": 79,
                    "time": 184.1999999999991,
                    "velocity": 0.7244094488188977,
                    "duration": 0.09999999999999432
                },
                {
                    "name": "F5",
                    "midi": 77,
                    "time": 184.4999999999991,
                    "velocity": 0.7244094488188977,
                    "duration": 0.09999999999999432
                },
                {
                    "name": "D#5",
                    "midi": 75,
                    "time": 184.79999999999907,
                    "velocity": 0.7244094488188977,
                    "duration": 0.09999999999999432
                },
                {
                    "name": "D#5",
                    "midi": 75,
                    "time": 185.09999999999906,
                    "velocity": 0.7244094488188977,
                    "duration": 0.09999999999999432
                },
                {
                    "name": "D5",
                    "midi": 74,
                    "time": 185.39999999999904,
                    "velocity": 0.7244094488188977,
                    "duration": 0.09999999999999432
                },
                {
                    "name": "C5",
                    "midi": 72,
                    "time": 185.69999999999902,
                    "velocity": 0.7244094488188977,
                    "duration": 0.09999999999999432
                },
                {
                    "name": "B4",
                    "midi": 71,
                    "time": 185.999999999999,
                    "velocity": 0.7244094488188977,
                    "duration": 0.09999999999999432
                },
                {
                    "name": "C5",
                    "midi": 72,
                    "time": 186.299999999999,
                    "velocity": 0.7244094488188977,
                    "duration": 0.09999999999999432
                },
                {
                    "name": "B4",
                    "midi": 71,
                    "time": 186.59999999999897,
                    "velocity": 0.7244094488188977,
                    "duration": 0.07499999999998863
                },
                {
                    "name": "C5",
                    "midi": 72,
                    "time": 186.67499999999896,
                    "velocity": 0.7244094488188977,
                    "duration": 0.07499999999998863
                },
                {
                    "name": "D5",
                    "midi": 74,
                    "time": 186.74999999999895,
                    "velocity": 0.7244094488188977,
                    "duration": 0.09999999999999432
                },
                {
                    "name": "G4",
                    "midi": 67,
                    "time": 186.89999999999895,
                    "velocity": 0.7244094488188977,
                    "duration": 0.09999999999999432
                },
                {
                    "name": "G4",
                    "midi": 67,
                    "time": 187.19999999999894,
                    "velocity": 0.7244094488188977,
                    "duration": 0.09999999999999432
                },
                {
                    "name": "A#4",
                    "midi": 70,
                    "time": 187.49999999999892,
                    "velocity": 0.7244094488188977,
                    "duration": 0.07499999999998863
                },
                {
                    "name": "G#4",
                    "midi": 68,
                    "time": 187.5749999999989,
                    "velocity": 0.7244094488188977,
                    "duration": 0.15000000000000568
                },
                {
                    "name": "G4",
                    "midi": 67,
                    "time": 187.7999999999989,
                    "velocity": 0.7244094488188977,
                    "duration": 0.09999999999999432
                },
                {
                    "name": "F4",
                    "midi": 65,
                    "time": 188.0999999999989,
                    "velocity": 0.7244094488188977,
                    "duration": 0.09999999999999432
                },
                {
                    "name": "D#5",
                    "midi": 75,
                    "time": 188.39999999999887,
                    "velocity": 0.7244094488188977,
                    "duration": 0.09999999999999432
                },
                {
                    "name": "D5",
                    "midi": 74,
                    "time": 188.69999999999885,
                    "velocity": 0.7244094488188977,
                    "duration": 0.09999999999999432
                },
                {
                    "name": "C5",
                    "midi": 72,
                    "time": 188.99999999999883,
                    "velocity": 0.7244094488188977,
                    "duration": 0.09999999999999432
                },
                {
                    "name": "F5",
                    "midi": 77,
                    "time": 189.29999999999882,
                    "velocity": 0.7244094488188977,
                    "duration": 0.07499999999998863
                },
                {
                    "name": "D#5",
                    "midi": 75,
                    "time": 189.3749999999988,
                    "velocity": 0.7244094488188977,
                    "duration": 0.15000000000000568
                },
                {
                    "name": "D5",
                    "midi": 74,
                    "time": 189.5999999999988,
                    "velocity": 0.7244094488188977,
                    "duration": 0.09999999999999432
                },
                {
                    "name": "C5",
                    "midi": 72,
                    "time": 189.89999999999878,
                    "velocity": 0.7244094488188977,
                    "duration": 0.09999999999999432
                },
                {
                    "name": "D5",
                    "midi": 74,
                    "time": 190.19999999999877,
                    "velocity": 0.7244094488188977,
                    "duration": 0.5999999999999943
                },
                {
                    "name": "G4",
                    "midi": 67,
                    "time": 190.79999999999876,
                    "velocity": 0.7244094488188977,
                    "duration": 0.30000000000001137
                },
                {
                    "name": "G5",
                    "midi": 79,
                    "time": 191.09999999999877,
                    "velocity": 0.7244094488188977,
                    "duration": 0.09999999999999432
                },
                {
                    "name": "G5",
                    "midi": 79,
                    "time": 191.39999999999876,
                    "velocity": 0.7244094488188977,
                    "duration": 0.09999999999999432
                },
                {
                    "name": "F5",
                    "midi": 77,
                    "time": 191.69999999999874,
                    "velocity": 0.7244094488188977,
                    "duration": 0.09999999999999432
                },
                {
                    "name": "D#5",
                    "midi": 75,
                    "time": 191.99999999999872,
                    "velocity": 0.7244094488188977,
                    "duration": 0.09999999999999432
                },
                {
                    "name": "D#5",
                    "midi": 75,
                    "time": 192.2999999999987,
                    "velocity": 0.7244094488188977,
                    "duration": 0.09999999999999432
                },
                {
                    "name": "D5",
                    "midi": 74,
                    "time": 192.5999999999987,
                    "velocity": 0.7244094488188977,
                    "duration": 0.09999999999999432
                },
                {
                    "name": "C5",
                    "midi": 72,
                    "time": 192.89999999999867,
                    "velocity": 0.7244094488188977,
                    "duration": 0.09999999999999432
                },
                {
                    "name": "B4",
                    "midi": 71,
                    "time": 193.19999999999865,
                    "velocity": 0.7244094488188977,
                    "duration": 0.09999999999999432
                },
                {
                    "name": "C5",
                    "midi": 72,
                    "time": 193.49999999999864,
                    "velocity": 0.7244094488188977,
                    "duration": 0.09999999999999432
                },
                {
                    "name": "B4",
                    "midi": 71,
                    "time": 193.79999999999862,
                    "velocity": 0.7244094488188977,
                    "duration": 0.07499999999998863
                },
                {
                    "name": "C5",
                    "midi": 72,
                    "time": 193.8749999999986,
                    "velocity": 0.7244094488188977,
                    "duration": 0.07499999999998863
                },
                {
                    "name": "D5",
                    "midi": 74,
                    "time": 193.9499999999986,
                    "velocity": 0.7244094488188977,
                    "duration": 0.09999999999999432
                },
                {
                    "name": "G4",
                    "midi": 67,
                    "time": 194.0999999999986,
                    "velocity": 0.7244094488188977,
                    "duration": 0.09999999999999432
                },
                {
                    "name": "G4",
                    "midi": 67,
                    "time": 194.39999999999858,
                    "velocity": 0.7244094488188977,
                    "duration": 0.09999999999999432
                },
                {
                    "name": "A#4",
                    "midi": 70,
                    "time": 194.69999999999857,
                    "velocity": 0.7244094488188977,
                    "duration": 0.07499999999998863
                },
                {
                    "name": "G#4",
                    "midi": 68,
                    "time": 194.77499999999856,
                    "velocity": 0.7244094488188977,
                    "duration": 0.15000000000000568
                },
                {
                    "name": "G4",
                    "midi": 67,
                    "time": 194.99999999999855,
                    "velocity": 0.7244094488188977,
                    "duration": 0.09999999999999432
                },
                {
                    "name": "F4",
                    "midi": 65,
                    "time": 195.29999999999853,
                    "velocity": 0.7244094488188977,
                    "duration": 0.09999999999999432
                },
                {
                    "name": "G4",
                    "midi": 67,
                    "time": 195.59999999999852,
                    "velocity": 0.7244094488188977,
                    "duration": 0.09999999999999432
                },
                {
                    "name": "C5",
                    "midi": 72,
                    "time": 195.8999999999985,
                    "velocity": 0.7244094488188977,
                    "duration": 0.09999999999999432
                },
                {
                    "name": "D#5",
                    "midi": 75,
                    "time": 196.0499999999985,
                    "velocity": 0.7244094488188977,
                    "duration": 0.09999999999999432
                },
                {
                    "name": "G5",
                    "midi": 79,
                    "time": 196.1999999999985,
                    "velocity": 0.7244094488188977,
                    "duration": 0.09999999999999432
                },
                {
                    "name": "G4",
                    "midi": 67,
                    "time": 196.4999999999985,
                    "velocity": 0.7244094488188977,
                    "duration": 0.09999999999999432
                },
                {
                    "name": "B4",
                    "midi": 71,
                    "time": 196.79999999999848,
                    "velocity": 0.7244094488188977,
                    "duration": 0.09999999999999432
                },
                {
                    "name": "D5",
                    "midi": 74,
                    "time": 196.94999999999848,
                    "velocity": 0.7244094488188977,
                    "duration": 0.09999999999999432
                },
                {
                    "name": "G5",
                    "midi": 79,
                    "time": 197.0999999999985,
                    "velocity": 0.7244094488188977,
                    "duration": 0.09999999999999432
                },
                {
                    "name": "C5",
                    "midi": 72,
                    "time": 197.39999999999847,
                    "velocity": 0.7244094488188977,
                    "duration": 0.5999999999999943
                },
                {
                    "name": "D#5",
                    "midi": 75,
                    "time": 197.99999999999847,
                    "velocity": 0.5905511811023622,
                    "duration": 0.09999999999999432
                },
                {
                    "name": "D5",
                    "midi": 74,
                    "time": 198.29999999999845,
                    "velocity": 0.5905511811023622,
                    "duration": 0.09999999999999432
                },
                {
                    "name": "C#5",
                    "midi": 73,
                    "time": 198.59999999999843,
                    "velocity": 0.5905511811023622,
                    "duration": 0.09999999999999432
                },
                {
                    "name": "C5",
                    "midi": 72,
                    "time": 198.8999999999984,
                    "velocity": 0.5905511811023622,
                    "duration": 0.09999999999999432
                },
                {
                    "name": "A#4",
                    "midi": 70,
                    "time": 199.1999999999984,
                    "velocity": 0.3543307086614173,
                    "duration": 0.5999999999999943
                },
                {
                    "name": "A#4",
                    "midi": 70,
                    "time": 200.0999999999984,
                    "velocity": 0.3543307086614173,
                    "duration": 0.5999999999999943
                },
                {
                    "name": "D#5",
                    "midi": 75,
                    "time": 200.9999999999984,
                    "velocity": 0.3543307086614173,
                    "duration": 0.5
                },
                {
                    "name": "G5",
                    "midi": 79,
                    "time": 201.5999999999984,
                    "velocity": 0.5905511811023622,
                    "duration": 0.09999999999999432
                },
                {
                    "name": "F#5",
                    "midi": 78,
                    "time": 201.89999999999839,
                    "velocity": 0.5905511811023622,
                    "duration": 0.09999999999999432
                },
                {
                    "name": "F5",
                    "midi": 77,
                    "time": 202.19999999999837,
                    "velocity": 0.5905511811023622,
                    "duration": 0.09999999999999432
                },
                {
                    "name": "D#5",
                    "midi": 75,
                    "time": 202.49999999999835,
                    "velocity": 0.5905511811023622,
                    "duration": 0.09999999999999432
                },
                {
                    "name": "D5",
                    "midi": 74,
                    "time": 202.79999999999833,
                    "velocity": 0.3543307086614173,
                    "duration": 0.5999999999999943
                },
                {
                    "name": "D5",
                    "midi": 74,
                    "time": 203.69999999999834,
                    "velocity": 0.3543307086614173,
                    "duration": 0.5999999999999943
                },
                {
                    "name": "D5",
                    "midi": 74,
                    "time": 204.59999999999835,
                    "velocity": 0.3543307086614173,
                    "duration": 0.5999999999999943
                },
                {
                    "name": "A#5",
                    "midi": 82,
                    "time": 205.19999999999834,
                    "velocity": 0.5905511811023622,
                    "duration": 0.09999999999999432
                },
                {
                    "name": "A5",
                    "midi": 81,
                    "time": 205.49999999999832,
                    "velocity": 0.5905511811023622,
                    "duration": 0.09999999999999432
                },
                {
                    "name": "G#5",
                    "midi": 80,
                    "time": 205.7999999999983,
                    "velocity": 0.5905511811023622,
                    "duration": 0.09999999999999432
                },
                {
                    "name": "G5",
                    "midi": 79,
                    "time": 206.0999999999983,
                    "velocity": 0.5905511811023622,
                    "duration": 0.09999999999999432
                },
                {
                    "name": "F5",
                    "midi": 77,
                    "time": 206.39999999999827,
                    "velocity": 0.5905511811023622,
                    "duration": 0.5999999999999943
                },
                {
                    "name": "F5",
                    "midi": 77,
                    "time": 207.29999999999828,
                    "velocity": 0.5905511811023622,
                    "duration": 0.5999999999999943
                },
                {
                    "name": "F5",
                    "midi": 77,
                    "time": 208.19999999999828,
                    "velocity": 0.5905511811023622,
                    "duration": 0.9000000000000057
                },
                {
                    "name": "D#5",
                    "midi": 75,
                    "time": 209.0999999999983,
                    "velocity": 0.5905511811023622,
                    "duration": 0.9000000000000057
                },
                {
                    "name": "D5",
                    "midi": 74,
                    "time": 209.9999999999983,
                    "velocity": 0.5905511811023622,
                    "duration": 0.9000000000000057
                },
                {
                    "name": "C5",
                    "midi": 72,
                    "time": 210.8999999999983,
                    "velocity": 0.5905511811023622,
                    "duration": 0.9000000000000057
                },
                {
                    "name": "A#4",
                    "midi": 70,
                    "time": 211.7999999999983,
                    "velocity": 0.5905511811023622,
                    "duration": 0.5999999999999943
                },
                {
                    "name": "B4",
                    "midi": 71,
                    "time": 212.3999999999983,
                    "velocity": 0.5905511811023622,
                    "duration": 0.30000000000001137
                },
                {
                    "name": "C5",
                    "midi": 72,
                    "time": 212.6999999999983,
                    "velocity": 0.8267716535433071,
                    "duration": 1.1937499999999943
                },
                {
                    "name": "A#4",
                    "midi": 70,
                    "time": 213.8999999999983,
                    "velocity": 0.5905511811023622,
                    "duration": 0.09999999999999432
                },
                {
                    "name": "G#4",
                    "midi": 68,
                    "time": 214.19999999999828,
                    "velocity": 0.5905511811023622,
                    "duration": 0.09999999999999432
                },
                {
                    "name": "G4",
                    "midi": 67,
                    "time": 214.49999999999827,
                    "velocity": 0.5905511811023622,
                    "duration": 0.09999999999999432
                },
                {
                    "name": "G#4",
                    "midi": 68,
                    "time": 214.59999999999826,
                    "velocity": 0.5905511811023622,
                    "duration": 0.09999999999999432
                },
                {
                    "name": "G4",
                    "midi": 67,
                    "time": 214.69999999999825,
                    "velocity": 0.5905511811023622,
                    "duration": 0.09999999999999432
                },
                {
                    "name": "F4",
                    "midi": 65,
                    "time": 214.79999999999825,
                    "velocity": 0.5905511811023622,
                    "duration": 0.09999999999999432
                },
                {
                    "name": "G4",
                    "midi": 67,
                    "time": 215.09999999999823,
                    "velocity": 0.5905511811023622,
                    "duration": 0.09999999999999432
                },
                {
                    "name": "G#4",
                    "midi": 68,
                    "time": 215.39999999999822,
                    "velocity": 0.5905511811023622,
                    "duration": 0.30000000000001137
                },
                {
                    "name": "F5",
                    "midi": 77,
                    "time": 215.69999999999823,
                    "velocity": 0.5905511811023622,
                    "duration": 0.09999999999999432
                },
                {
                    "name": "F4",
                    "midi": 65,
                    "time": 215.9999999999982,
                    "velocity": 0.5905511811023622,
                    "duration": 0.09999999999999432
                },
                {
                    "name": "A#4",
                    "midi": 70,
                    "time": 216.2999999999982,
                    "velocity": 0.8267716535433071,
                    "duration": 1.1937499999999943
                },
                {
                    "name": "G#4",
                    "midi": 68,
                    "time": 217.49999999999818,
                    "velocity": 0.5905511811023622,
                    "duration": 0.09999999999999432
                },
                {
                    "name": "G4",
                    "midi": 67,
                    "time": 217.79999999999816,
                    "velocity": 0.5905511811023622,
                    "duration": 0.09999999999999432
                },
                {
                    "name": "F4",
                    "midi": 65,
                    "time": 218.09999999999815,
                    "velocity": 0.5905511811023622,
                    "duration": 0.09999999999999432
                },
                {
                    "name": "G4",
                    "midi": 67,
                    "time": 218.19999999999814,
                    "velocity": 0.5905511811023622,
                    "duration": 0.09999999999999432
                },
                {
                    "name": "F4",
                    "midi": 65,
                    "time": 218.29999999999814,
                    "velocity": 0.5905511811023622,
                    "duration": 0.09999999999999432
                },
                {
                    "name": "D#4",
                    "midi": 63,
                    "time": 218.39999999999813,
                    "velocity": 0.5905511811023622,
                    "duration": 0.09999999999999432
                },
                {
                    "name": "F4",
                    "midi": 65,
                    "time": 218.6999999999981,
                    "velocity": 0.5905511811023622,
                    "duration": 0.09999999999999432
                },
                {
                    "name": "G4",
                    "midi": 67,
                    "time": 218.9999999999981,
                    "velocity": 0.5905511811023622,
                    "duration": 0.30000000000001137
                },
                {
                    "name": "D#5",
                    "midi": 75,
                    "time": 219.2999999999981,
                    "velocity": 0.5905511811023622,
                    "duration": 0.09999999999999432
                },
                {
                    "name": "D#4",
                    "midi": 63,
                    "time": 219.5999999999981,
                    "velocity": 0.5905511811023622,
                    "duration": 0.09999999999999432
                },
                {
                    "name": "G4",
                    "midi": 67,
                    "time": 219.89999999999807,
                    "velocity": 0.5905511811023622,
                    "duration": 1.1937499999999943
                },
                {
                    "name": "G5",
                    "midi": 79,
                    "time": 221.09999999999806,
                    "velocity": 0.5905511811023622,
                    "duration": 0.09999999999999432
                },
                {
                    "name": "G5",
                    "midi": 79,
                    "time": 221.39999999999804,
                    "velocity": 0.5905511811023622,
                    "duration": 0.09999999999999432
                },
                {
                    "name": "G#5",
                    "midi": 80,
                    "time": 221.69999999999803,
                    "velocity": 0.5905511811023622,
                    "duration": 0.15000000000000568
                },
                {
                    "name": "G5",
                    "midi": 79,
                    "time": 221.84999999999803,
                    "velocity": 0.5905511811023622,
                    "duration": 0.09999999999999432
                },
                {
                    "name": "F5",
                    "midi": 77,
                    "time": 221.99999999999804,
                    "velocity": 0.5905511811023622,
                    "duration": 0.09999999999999432
                },
                {
                    "name": "D#5",
                    "midi": 75,
                    "time": 222.14999999999804,
                    "velocity": 0.5905511811023622,
                    "duration": 0.09999999999999432
                },
                {
                    "name": "D5",
                    "midi": 74,
                    "time": 222.29999999999805,
                    "velocity": 0.5905511811023622,
                    "duration": 0.09999999999999432
                },
                {
                    "name": "C5",
                    "midi": 72,
                    "time": 222.44999999999806,
                    "velocity": 0.5905511811023622,
                    "duration": 0.09999999999999432
                },
                {
                    "name": "B4",
                    "midi": 71,
                    "time": 222.59999999999806,
                    "velocity": 0.5905511811023622,
                    "duration": 0.30000000000001137
                },
                {
                    "name": "G4",
                    "midi": 67,
                    "time": 222.89999999999807,
                    "velocity": 0.5905511811023622,
                    "duration": 0.09999999999999432
                },
                {
                    "name": "G4",
                    "midi": 67,
                    "time": 223.19999999999806,
                    "velocity": 0.5905511811023622,
                    "duration": 0.09999999999999432
                },
                {
                    "name": "G5",
                    "midi": 79,
                    "time": 223.49999999999804,
                    "velocity": 0.5905511811023622,
                    "duration": 1.1937499999999943
                },
                {
                    "name": "G5",
                    "midi": 79,
                    "time": 224.69999999999803,
                    "velocity": 0.5905511811023622,
                    "duration": 0.09999999999999432
                },
                {
                    "name": "G5",
                    "midi": 79,
                    "time": 224.999999999998,
                    "velocity": 0.5905511811023622,
                    "duration": 0.09999999999999432
                },
                {
                    "name": "G#5",
                    "midi": 80,
                    "time": 225.299999999998,
                    "velocity": 0.5905511811023622,
                    "duration": 0.15000000000000568
                },
                {
                    "name": "G5",
                    "midi": 79,
                    "time": 225.449999999998,
                    "velocity": 0.5905511811023622,
                    "duration": 0.09999999999999432
                },
                {
                    "name": "F5",
                    "midi": 77,
                    "time": 225.599999999998,
                    "velocity": 0.5905511811023622,
                    "duration": 0.09999999999999432
                },
                {
                    "name": "D#5",
                    "midi": 75,
                    "time": 225.749999999998,
                    "velocity": 0.5905511811023622,
                    "duration": 0.09999999999999432
                },
                {
                    "name": "D5",
                    "midi": 74,
                    "time": 225.89999999999802,
                    "velocity": 0.5905511811023622,
                    "duration": 0.09999999999999432
                },
                {
                    "name": "C5",
                    "midi": 72,
                    "time": 226.04999999999802,
                    "velocity": 0.5905511811023622,
                    "duration": 0.09999999999999432
                },
                {
                    "name": "B4",
                    "midi": 71,
                    "time": 226.19999999999803,
                    "velocity": 0.5905511811023622,
                    "duration": 0.5999999999999943
                },
                {
                    "name": "G4",
                    "midi": 67,
                    "time": 226.79999999999802,
                    "velocity": 0.5905511811023622,
                    "duration": 0.09999999999999432
                },
                {
                    "name": "G5",
                    "midi": 79,
                    "time": 227.099999999998,
                    "velocity": 0.3543307086614173,
                    "duration": 0.09999999999999432
                },
                {
                    "name": "G5",
                    "midi": 79,
                    "time": 227.399999999998,
                    "velocity": 0.3543307086614173,
                    "duration": 0.09999999999999432
                },
                {
                    "name": "G5",
                    "midi": 79,
                    "time": 227.69999999999797,
                    "velocity": 0.3543307086614173,
                    "duration": 0.09999999999999432
                },
                {
                    "name": "G5",
                    "midi": 79,
                    "time": 227.99999999999795,
                    "velocity": 0.3543307086614173,
                    "duration": 0.09999999999999432
                },
                {
                    "name": "G5",
                    "midi": 79,
                    "time": 228.29999999999794,
                    "velocity": 0.3543307086614173,
                    "duration": 0.09999999999999432
                },
                {
                    "name": "G5",
                    "midi": 79,
                    "time": 228.59999999999792,
                    "velocity": 0.3543307086614173,
                    "duration": 0.09999999999999432
                },
                {
                    "name": "G4",
                    "midi": 67,
                    "time": 228.8999999999979,
                    "velocity": 0.3543307086614173,
                    "duration": 0.09999999999999432
                },
                {
                    "name": "G4",
                    "midi": 67,
                    "time": 229.19999999999789,
                    "velocity": 0.3543307086614173,
                    "duration": 0.09999999999999432
                },
                {
                    "name": "G4",
                    "midi": 67,
                    "time": 229.49999999999787,
                    "velocity": 0.3543307086614173,
                    "duration": 0.09999999999999432
                },
                {
                    "name": "G3",
                    "midi": 55,
                    "time": 229.79999999999785,
                    "velocity": 0.3543307086614173,
                    "duration": 0.09999999999999432
                },
                {
                    "name": "G3",
                    "midi": 55,
                    "time": 230.09999999999783,
                    "velocity": 0.3543307086614173,
                    "duration": 0.09999999999999432
                },
                {
                    "name": "G3",
                    "midi": 55,
                    "time": 230.39999999999782,
                    "velocity": 0.3543307086614173,
                    "duration": 0.09999999999999432
                },
                {
                    "name": "G4",
                    "midi": 67,
                    "time": 231.29999999999782,
                    "velocity": 0.5905511811023622,
                    "duration": 0.09999999999999432
                },
                {
                    "name": "G5",
                    "midi": 79,
                    "time": 231.5999999999978,
                    "velocity": 0.5905511811023622,
                    "duration": 0.09999999999999432
                },
                {
                    "name": "G5",
                    "midi": 79,
                    "time": 231.8999999999978,
                    "velocity": 0.5905511811023622,
                    "duration": 0.09999999999999432
                },
                {
                    "name": "F5",
                    "midi": 77,
                    "time": 232.19999999999777,
                    "velocity": 0.5905511811023622,
                    "duration": 0.09999999999999432
                },
                {
                    "name": "D#5",
                    "midi": 75,
                    "time": 232.49999999999775,
                    "velocity": 0.5905511811023622,
                    "duration": 0.09999999999999432
                },
                {
                    "name": "D#5",
                    "midi": 75,
                    "time": 232.79999999999774,
                    "velocity": 0.5905511811023622,
                    "duration": 0.09999999999999432
                },
                {
                    "name": "D5",
                    "midi": 74,
                    "time": 233.09999999999772,
                    "velocity": 0.5905511811023622,
                    "duration": 0.09999999999999432
                },
                {
                    "name": "C5",
                    "midi": 72,
                    "time": 233.3999999999977,
                    "velocity": 0.5905511811023622,
                    "duration": 0.09999999999999432
                },
                {
                    "name": "B4",
                    "midi": 71,
                    "time": 233.6999999999977,
                    "velocity": 0.5905511811023622,
                    "duration": 0.09999999999999432
                },
                {
                    "name": "C5",
                    "midi": 72,
                    "time": 233.99999999999767,
                    "velocity": 0.5905511811023622,
                    "duration": 0.09999999999999432
                },
                {
                    "name": "B4",
                    "midi": 71,
                    "time": 234.29999999999765,
                    "velocity": 0.5905511811023622,
                    "duration": 0.07499999999998863
                },
                {
                    "name": "C5",
                    "midi": 72,
                    "time": 234.37499999999764,
                    "velocity": 0.5905511811023622,
                    "duration": 0.07499999999998863
                },
                {
                    "name": "D5",
                    "midi": 74,
                    "time": 234.44999999999763,
                    "velocity": 0.5905511811023622,
                    "duration": 0.09999999999999432
                },
                {
                    "name": "G4",
                    "midi": 67,
                    "time": 234.59999999999764,
                    "velocity": 0.5905511811023622,
                    "duration": 0.09999999999999432
                },
                {
                    "name": "G4",
                    "midi": 67,
                    "time": 234.89999999999762,
                    "velocity": 0.5905511811023622,
                    "duration": 0.09999999999999432
                },
                {
                    "name": "A#4",
                    "midi": 70,
                    "time": 235.1999999999976,
                    "velocity": 0.5905511811023622,
                    "duration": 0.07499999999998863
                },
                {
                    "name": "G#4",
                    "midi": 68,
                    "time": 235.2749999999976,
                    "velocity": 0.5905511811023622,
                    "duration": 0.15000000000000568
                },
                {
                    "name": "G4",
                    "midi": 67,
                    "time": 235.49999999999758,
                    "velocity": 0.5905511811023622,
                    "duration": 0.09999999999999432
                },
                {
                    "name": "F4",
                    "midi": 65,
                    "time": 235.79999999999757,
                    "velocity": 0.5905511811023622,
                    "duration": 0.09999999999999432
                },
                {
                    "name": "D#4",
                    "midi": 63,
                    "time": 236.09999999999755,
                    "velocity": 0.5905511811023622,
                    "duration": 0.09999999999999432
                },
                {
                    "name": "D4",
                    "midi": 62,
                    "time": 236.39999999999753,
                    "velocity": 0.5905511811023622,
                    "duration": 0.09999999999999432
                },
                {
                    "name": "C4",
                    "midi": 60,
                    "time": 236.69999999999752,
                    "velocity": 0.5905511811023622,
                    "duration": 0.09999999999999432
                },
                {
                    "name": "F4",
                    "midi": 65,
                    "time": 236.9999999999975,
                    "velocity": 0.5905511811023622,
                    "duration": 0.07499999999998863
                },
                {
                    "name": "D#4",
                    "midi": 63,
                    "time": 237.0749999999975,
                    "velocity": 0.5905511811023622,
                    "duration": 0.15000000000000568
                },
                {
                    "name": "D4",
                    "midi": 62,
                    "time": 237.29999999999748,
                    "velocity": 0.5905511811023622,
                    "duration": 0.09999999999999432
                },
                {
                    "name": "C4",
                    "midi": 60,
                    "time": 237.59999999999746,
                    "velocity": 0.5905511811023622,
                    "duration": 0.09999999999999432
                },
                {
                    "name": "D4",
                    "midi": 62,
                    "time": 237.89999999999745,
                    "velocity": 0.5905511811023622,
                    "duration": 0.5999999999999943
                },
                {
                    "name": "G4",
                    "midi": 67,
                    "time": 238.49999999999744,
                    "velocity": 0.5905511811023622,
                    "duration": 0.30000000000001137
                },
                {
                    "name": "G5",
                    "midi": 79,
                    "time": 238.79999999999745,
                    "velocity": 0.5905511811023622,
                    "duration": 0.09999999999999432
                },
                {
                    "name": "G5",
                    "midi": 79,
                    "time": 239.09999999999744,
                    "velocity": 0.5905511811023622,
                    "duration": 0.09999999999999432
                },
                {
                    "name": "F5",
                    "midi": 77,
                    "time": 239.39999999999742,
                    "velocity": 0.5905511811023622,
                    "duration": 0.09999999999999432
                },
                {
                    "name": "E5",
                    "midi": 76,
                    "time": 239.6999999999974,
                    "velocity": 0.5905511811023622,
                    "duration": 0.09999999999999432
                },
                {
                    "name": "E5",
                    "midi": 76,
                    "time": 239.99999999999739,
                    "velocity": 0.5905511811023622,
                    "duration": 0.09999999999999432
                },
                {
                    "name": "D5",
                    "midi": 74,
                    "time": 240.29999999999737,
                    "velocity": 0.5905511811023622,
                    "duration": 0.09999999999999432
                },
                {
                    "name": "C5",
                    "midi": 72,
                    "time": 240.59999999999735,
                    "velocity": 0.5905511811023622,
                    "duration": 0.09999999999999432
                },
                {
                    "name": "C5",
                    "midi": 72,
                    "time": 240.89999999999733,
                    "velocity": 0.5905511811023622,
                    "duration": 0.09999999999999432
                },
                {
                    "name": "A#4",
                    "midi": 70,
                    "time": 241.19999999999732,
                    "velocity": 0.5905511811023622,
                    "duration": 0.09999999999999432
                },
                {
                    "name": "A4",
                    "midi": 69,
                    "time": 241.4999999999973,
                    "velocity": 0.5905511811023622,
                    "duration": 0.09999999999999432
                },
                {
                    "name": "G4",
                    "midi": 67,
                    "time": 241.79999999999728,
                    "velocity": 0.5905511811023622,
                    "duration": 0.09999999999999432
                },
                {
                    "name": "F4",
                    "midi": 65,
                    "time": 242.09999999999727,
                    "velocity": 0.5905511811023622,
                    "duration": 0.09999999999999432
                },
                {
                    "name": "A#4",
                    "midi": 70,
                    "time": 242.39999999999725,
                    "velocity": 0.5905511811023622,
                    "duration": 0.07499999999998863
                },
                {
                    "name": "G#4",
                    "midi": 68,
                    "time": 242.47499999999724,
                    "velocity": 0.5905511811023622,
                    "duration": 0.15000000000000568
                },
                {
                    "name": "G4",
                    "midi": 67,
                    "time": 242.69999999999723,
                    "velocity": 0.5905511811023622,
                    "duration": 0.09999999999999432
                },
                {
                    "name": "F4",
                    "midi": 65,
                    "time": 242.99999999999721,
                    "velocity": 0.5905511811023622,
                    "duration": 0.09999999999999432
                },
                {
                    "name": "G4",
                    "midi": 67,
                    "time": 243.2999999999972,
                    "velocity": 0.5905511811023622,
                    "duration": 0.09999999999999432
                },
                {
                    "name": "C5",
                    "midi": 72,
                    "time": 243.59999999999718,
                    "velocity": 0.5905511811023622,
                    "duration": 0.09999999999999432
                },
                {
                    "name": "D#5",
                    "midi": 75,
                    "time": 243.7499999999972,
                    "velocity": 0.5905511811023622,
                    "duration": 0.09999999999999432
                },
                {
                    "name": "G5",
                    "midi": 79,
                    "time": 243.8999999999972,
                    "velocity": 0.5905511811023622,
                    "duration": 0.09999999999999432
                },
                {
                    "name": "G4",
                    "midi": 67,
                    "time": 244.19999999999717,
                    "velocity": 0.5905511811023622,
                    "duration": 0.09999999999999432
                },
                {
                    "name": "B4",
                    "midi": 71,
                    "time": 244.49999999999716,
                    "velocity": 0.5905511811023622,
                    "duration": 0.09999999999999432
                },
                {
                    "name": "D5",
                    "midi": 74,
                    "time": 244.64999999999716,
                    "velocity": 0.5905511811023622,
                    "duration": 0.09999999999999432
                },
                {
                    "name": "G5",
                    "midi": 79,
                    "time": 244.79999999999717,
                    "velocity": 0.5905511811023622,
                    "duration": 0.09999999999999432
                },
                {
                    "name": "C5",
                    "midi": 72,
                    "time": 245.09999999999715,
                    "velocity": 0.5905511811023622,
                    "duration": 0.09999999999999432
                },
                {
                    "name": "C6",
                    "midi": 84,
                    "time": 245.39999999999714,
                    "velocity": 0.5905511811023622,
                    "duration": 0.09999999999999432
                },
                {
                    "name": "G4",
                    "midi": 67,
                    "time": 245.69999999999712,
                    "velocity": 0.7244094488188977,
                    "duration": 0.30000000000001137
                },
                {
                    "name": "G5",
                    "midi": 79,
                    "time": 245.99999999999713,
                    "velocity": 0.7244094488188977,
                    "duration": 0.09999999999999432
                },
                {
                    "name": "G5",
                    "midi": 79,
                    "time": 246.2999999999971,
                    "velocity": 0.7244094488188977,
                    "duration": 0.09999999999999432
                },
                {
                    "name": "F5",
                    "midi": 77,
                    "time": 246.5999999999971,
                    "velocity": 0.7244094488188977,
                    "duration": 0.09999999999999432
                },
                {
                    "name": "D#5",
                    "midi": 75,
                    "time": 246.89999999999708,
                    "velocity": 0.7244094488188977,
                    "duration": 0.09999999999999432
                },
                {
                    "name": "D#5",
                    "midi": 75,
                    "time": 247.19999999999706,
                    "velocity": 0.7244094488188977,
                    "duration": 0.09999999999999432
                },
                {
                    "name": "D5",
                    "midi": 74,
                    "time": 247.49999999999704,
                    "velocity": 0.7244094488188977,
                    "duration": 0.09999999999999432
                },
                {
                    "name": "C5",
                    "midi": 72,
                    "time": 247.79999999999703,
                    "velocity": 0.7244094488188977,
                    "duration": 0.09999999999999432
                },
                {
                    "name": "B4",
                    "midi": 71,
                    "time": 248.099999999997,
                    "velocity": 0.7244094488188977,
                    "duration": 0.09999999999999432
                },
                {
                    "name": "C5",
                    "midi": 72,
                    "time": 248.399999999997,
                    "velocity": 0.7244094488188977,
                    "duration": 0.09999999999999432
                },
                {
                    "name": "B4",
                    "midi": 71,
                    "time": 248.69999999999698,
                    "velocity": 0.7244094488188977,
                    "duration": 0.07499999999998863
                },
                {
                    "name": "C5",
                    "midi": 72,
                    "time": 248.77499999999696,
                    "velocity": 0.7244094488188977,
                    "duration": 0.07499999999998863
                },
                {
                    "name": "D5",
                    "midi": 74,
                    "time": 248.84999999999695,
                    "velocity": 0.7244094488188977,
                    "duration": 0.09999999999999432
                },
                {
                    "name": "G4",
                    "midi": 67,
                    "time": 248.99999999999696,
                    "velocity": 0.7244094488188977,
                    "duration": 0.09999999999999432
                },
                {
                    "name": "G4",
                    "midi": 67,
                    "time": 249.29999999999694,
                    "velocity": 0.7244094488188977,
                    "duration": 0.09999999999999432
                },
                {
                    "name": "A#4",
                    "midi": 70,
                    "time": 249.59999999999692,
                    "velocity": 0.7244094488188977,
                    "duration": 0.07499999999998863
                },
                {
                    "name": "G#4",
                    "midi": 68,
                    "time": 249.6749999999969,
                    "velocity": 0.7244094488188977,
                    "duration": 0.15000000000000568
                },
                {
                    "name": "G4",
                    "midi": 67,
                    "time": 249.8999999999969,
                    "velocity": 0.7244094488188977,
                    "duration": 0.09999999999999432
                },
                {
                    "name": "F4",
                    "midi": 65,
                    "time": 250.1999999999969,
                    "velocity": 0.7244094488188977,
                    "duration": 0.09999999999999432
                },
                {
                    "name": "D#5",
                    "midi": 75,
                    "time": 250.49999999999687,
                    "velocity": 0.7244094488188977,
                    "duration": 0.09999999999999432
                },
                {
                    "name": "D5",
                    "midi": 74,
                    "time": 250.79999999999686,
                    "velocity": 0.7244094488188977,
                    "duration": 0.09999999999999432
                },
                {
                    "name": "C5",
                    "midi": 72,
                    "time": 251.09999999999684,
                    "velocity": 0.7244094488188977,
                    "duration": 0.09999999999999432
                },
                {
                    "name": "F5",
                    "midi": 77,
                    "time": 251.39999999999682,
                    "velocity": 0.7244094488188977,
                    "duration": 0.07499999999998863
                },
                {
                    "name": "D#5",
                    "midi": 75,
                    "time": 251.4749999999968,
                    "velocity": 0.7244094488188977,
                    "duration": 0.15000000000000568
                },
                {
                    "name": "D5",
                    "midi": 74,
                    "time": 251.6999999999968,
                    "velocity": 0.7244094488188977,
                    "duration": 0.09999999999999432
                },
                {
                    "name": "C5",
                    "midi": 72,
                    "time": 251.9999999999968,
                    "velocity": 0.7244094488188977,
                    "duration": 0.09999999999999432
                },
                {
                    "name": "D5",
                    "midi": 74,
                    "time": 252.29999999999677,
                    "velocity": 0.7244094488188977,
                    "duration": 0.5999999999999943
                },
                {
                    "name": "G4",
                    "midi": 67,
                    "time": 252.89999999999677,
                    "velocity": 0.7244094488188977,
                    "duration": 0.30000000000001137
                },
                {
                    "name": "G5",
                    "midi": 79,
                    "time": 253.19999999999678,
                    "velocity": 0.7244094488188977,
                    "duration": 0.09999999999999432
                },
                {
                    "name": "G5",
                    "midi": 79,
                    "time": 253.49999999999676,
                    "velocity": 0.7244094488188977,
                    "duration": 0.09999999999999432
                },
                {
                    "name": "F5",
                    "midi": 77,
                    "time": 253.79999999999674,
                    "velocity": 0.7244094488188977,
                    "duration": 0.09999999999999432
                },
                {
                    "name": "E5",
                    "midi": 76,
                    "time": 254.09999999999673,
                    "velocity": 0.7244094488188977,
                    "duration": 0.09999999999999432
                },
                {
                    "name": "E5",
                    "midi": 76,
                    "time": 254.3999999999967,
                    "velocity": 0.7244094488188977,
                    "duration": 0.09999999999999432
                },
                {
                    "name": "D5",
                    "midi": 74,
                    "time": 254.6999999999967,
                    "velocity": 0.7244094488188977,
                    "duration": 0.09999999999999432
                },
                {
                    "name": "C5",
                    "midi": 72,
                    "time": 254.99999999999667,
                    "velocity": 0.7244094488188977,
                    "duration": 0.09999999999999432
                },
                {
                    "name": "B4",
                    "midi": 71,
                    "time": 255.29999999999666,
                    "velocity": 0.7244094488188977,
                    "duration": 0.09999999999999432
                },
                {
                    "name": "C5",
                    "midi": 72,
                    "time": 255.59999999999664,
                    "velocity": 0.7244094488188977,
                    "duration": 0.09999999999999432
                },
                {
                    "name": "B4",
                    "midi": 71,
                    "time": 255.89999999999662,
                    "velocity": 0.7244094488188977,
                    "duration": 0.07499999999998863
                },
                {
                    "name": "C5",
                    "midi": 72,
                    "time": 255.9749999999966,
                    "velocity": 0.7244094488188977,
                    "duration": 0.07499999999998863
                },
                {
                    "name": "D5",
                    "midi": 74,
                    "time": 256.0499999999966,
                    "velocity": 0.7244094488188977,
                    "duration": 0.10000000000002274
                },
                {
                    "name": "G4",
                    "midi": 67,
                    "time": 256.19999999999663,
                    "velocity": 0.7244094488188977,
                    "duration": 0.10000000000002274
                },
                {
                    "name": "G4",
                    "midi": 67,
                    "time": 256.49999999999665,
                    "velocity": 0.7244094488188977,
                    "duration": 0.10000000000002274
                },
                {
                    "name": "A#4",
                    "midi": 70,
                    "time": 256.79999999999666,
                    "velocity": 0.7244094488188977,
                    "duration": 0.07499999999998863
                },
                {
                    "name": "G#4",
                    "midi": 68,
                    "time": 256.87499999999665,
                    "velocity": 0.7244094488188977,
                    "duration": 0.14999999999997726
                },
                {
                    "name": "G4",
                    "midi": 67,
                    "time": 257.0999999999966,
                    "velocity": 0.7244094488188977,
                    "duration": 0.10000000000002274
                },
                {
                    "name": "F4",
                    "midi": 65,
                    "time": 257.3999999999966,
                    "velocity": 0.7244094488188977,
                    "duration": 0.10000000000002274
                },
                {
                    "name": "G4",
                    "midi": 67,
                    "time": 257.69999999999663,
                    "velocity": 0.7244094488188977,
                    "duration": 0.10000000000002274
                },
                {
                    "name": "C5",
                    "midi": 72,
                    "time": 257.99999999999665,
                    "velocity": 0.7244094488188977,
                    "duration": 0.10000000000002274
                },
                {
                    "name": "D#5",
                    "midi": 75,
                    "time": 258.1499999999967,
                    "velocity": 0.7244094488188977,
                    "duration": 0.10000000000002274
                },
                {
                    "name": "G5",
                    "midi": 79,
                    "time": 258.2999999999967,
                    "velocity": 0.7244094488188977,
                    "duration": 0.10000000000002274
                },
                {
                    "name": "G4",
                    "midi": 67,
                    "time": 258.5999999999967,
                    "velocity": 0.7244094488188977,
                    "duration": 0.10000000000002274
                },
                {
                    "name": "B4",
                    "midi": 71,
                    "time": 258.89999999999674,
                    "velocity": 0.7244094488188977,
                    "duration": 0.10000000000002274
                },
                {
                    "name": "D5",
                    "midi": 74,
                    "time": 259.04999999999677,
                    "velocity": 0.7244094488188977,
                    "duration": 0.10000000000002274
                },
                {
                    "name": "G5",
                    "midi": 79,
                    "time": 259.1999999999968,
                    "velocity": 0.7244094488188977,
                    "duration": 0.10000000000002274
                },
                {
                    "name": "C5",
                    "midi": 72,
                    "time": 259.4999999999968,
                    "velocity": 0.7244094488188977,
                    "duration": 0.6000000000000227
                },
                {
                    "name": "C5",
                    "midi": 72,
                    "time": 260.09999999999684,
                    "velocity": 0.7244094488188977,
                    "duration": 0.10000000000002274
                },
                {
                    "name": "C5",
                    "midi": 72,
                    "time": 260.2499999999969,
                    "velocity": 0.7244094488188977,
                    "duration": 0.10000000000002274
                },
                {
                    "name": "C5",
                    "midi": 72,
                    "time": 260.3999999999969,
                    "velocity": 0.7244094488188977,
                    "duration": 0.14999999999997726
                },
                {
                    "name": "D#5",
                    "midi": 75,
                    "time": 260.5499999999969,
                    "velocity": 0.7244094488188977,
                    "duration": 0.14375000000001137
                },
                {
                    "name": "D5",
                    "midi": 74,
                    "time": 260.6999999999969,
                    "velocity": 0.7244094488188977,
                    "duration": 0.14999999999997726
                },
                {
                    "name": "F5",
                    "midi": 77,
                    "time": 260.8499999999969,
                    "velocity": 0.7244094488188977,
                    "duration": 0.14375000000001137
                },
                {
                    "name": "D#5",
                    "midi": 75,
                    "time": 260.99999999999693,
                    "velocity": 0.7244094488188977,
                    "duration": 0.14999999999997726
                },
                {
                    "name": "G5",
                    "midi": 79,
                    "time": 261.1499999999969,
                    "velocity": 0.7244094488188977,
                    "duration": 0.14375000000001137
                },
                {
                    "name": "F5",
                    "midi": 77,
                    "time": 261.29999999999694,
                    "velocity": 0.7244094488188977,
                    "duration": 0.14999999999997726
                },
                {
                    "name": "G#5",
                    "midi": 80,
                    "time": 261.4499999999969,
                    "velocity": 0.7244094488188977,
                    "duration": 0.14375000000001137
                },
                {
                    "name": "G5",
                    "midi": 79,
                    "time": 261.59999999999695,
                    "velocity": 0.7244094488188977,
                    "duration": 0.14999999999997726
                },
                {
                    "name": "A#5",
                    "midi": 82,
                    "time": 261.74999999999693,
                    "velocity": 0.7244094488188977,
                    "duration": 0.14375000000001137
                },
                {
                    "name": "G#5",
                    "midi": 80,
                    "time": 261.89999999999696,
                    "velocity": 0.7244094488188977,
                    "duration": 0.14999999999997726
                },
                {
                    "name": "C6",
                    "midi": 84,
                    "time": 262.04999999999694,
                    "velocity": 0.7244094488188977,
                    "duration": 0.14375000000001137
                },
                {
                    "name": "A#4",
                    "midi": 70,
                    "time": 262.199999999997,
                    "velocity": 0.7244094488188977,
                    "duration": 0.14999999999997726
                },
                {
                    "name": "D5",
                    "midi": 74,
                    "time": 262.34999999999695,
                    "velocity": 0.7244094488188977,
                    "duration": 0.14375000000001137
                },
                {
                    "name": "C5",
                    "midi": 72,
                    "time": 262.499999999997,
                    "velocity": 0.7244094488188977,
                    "duration": 0.14999999999997726
                },
                {
                    "name": "D#5",
                    "midi": 75,
                    "time": 262.64999999999696,
                    "velocity": 0.7244094488188977,
                    "duration": 0.14375000000001137
                },
                {
                    "name": "D5",
                    "midi": 74,
                    "time": 262.799999999997,
                    "velocity": 0.7244094488188977,
                    "duration": 0.14999999999997726
                },
                {
                    "name": "F5",
                    "midi": 77,
                    "time": 262.949999999997,
                    "velocity": 0.7244094488188977,
                    "duration": 0.14375000000001137
                },
                {
                    "name": "D#5",
                    "midi": 75,
                    "time": 263.099999999997,
                    "velocity": 0.7244094488188977,
                    "duration": 0.14999999999997726
                },
                {
                    "name": "G5",
                    "midi": 79,
                    "time": 263.249999999997,
                    "velocity": 0.7244094488188977,
                    "duration": 0.14375000000001137
                },
                {
                    "name": "F5",
                    "midi": 77,
                    "time": 263.399999999997,
                    "velocity": 0.7244094488188977,
                    "duration": 0.14999999999997726
                },
                {
                    "name": "G#5",
                    "midi": 80,
                    "time": 263.549999999997,
                    "velocity": 0.7244094488188977,
                    "duration": 0.14375000000001137
                },
                {
                    "name": "G5",
                    "midi": 79,
                    "time": 263.69999999999703,
                    "velocity": 0.7244094488188977,
                    "duration": 0.14999999999997726
                },
                {
                    "name": "A#5",
                    "midi": 82,
                    "time": 263.849999999997,
                    "velocity": 0.7244094488188977,
                    "duration": 0.14375000000001137
                },
                {
                    "name": "A#5",
                    "midi": 82,
                    "time": 263.99999999999704,
                    "velocity": 1,
                    "duration": 0.14999999999997726
                },
                {
                    "name": "G#5",
                    "midi": 80,
                    "time": 264.149999999997,
                    "velocity": 0.7244094488188977,
                    "duration": 0.10000000000002274
                },
                {
                    "name": "G5",
                    "midi": 79,
                    "time": 264.29999999999706,
                    "velocity": 0.7244094488188977,
                    "duration": 0.10000000000002274
                },
                {
                    "name": "F5",
                    "midi": 77,
                    "time": 264.4499999999971,
                    "velocity": 0.7244094488188977,
                    "duration": 0.10000000000002274
                },
                {
                    "name": "D#5",
                    "midi": 75,
                    "time": 264.5999999999971,
                    "velocity": 0.7244094488188977,
                    "duration": 0.10000000000002274
                },
                {
                    "name": "D5",
                    "midi": 74,
                    "time": 264.74999999999716,
                    "velocity": 0.7244094488188977,
                    "duration": 0.10000000000002274
                },
                {
                    "name": "G#5",
                    "midi": 80,
                    "time": 264.8999999999972,
                    "velocity": 1,
                    "duration": 0.14999999999997726
                },
                {
                    "name": "G5",
                    "midi": 79,
                    "time": 265.04999999999717,
                    "velocity": 0.7244094488188977,
                    "duration": 0.10000000000002274
                },
                {
                    "name": "F5",
                    "midi": 77,
                    "time": 265.1999999999972,
                    "velocity": 0.7244094488188977,
                    "duration": 0.10000000000002274
                },
                {
                    "name": "D#5",
                    "midi": 75,
                    "time": 265.34999999999724,
                    "velocity": 0.7244094488188977,
                    "duration": 0.10000000000002274
                },
                {
                    "name": "D5",
                    "midi": 74,
                    "time": 265.49999999999727,
                    "velocity": 0.7244094488188977,
                    "duration": 0.10000000000002274
                },
                {
                    "name": "C5",
                    "midi": 72,
                    "time": 265.6499999999973,
                    "velocity": 0.7244094488188977,
                    "duration": 0.10000000000002274
                },
                {
                    "name": "G5",
                    "midi": 79,
                    "time": 265.79999999999734,
                    "velocity": 1,
                    "duration": 0.14999999999997726
                },
                {
                    "name": "F5",
                    "midi": 77,
                    "time": 265.9499999999973,
                    "velocity": 0.7244094488188977,
                    "duration": 0.10000000000002274
                },
                {
                    "name": "D#5",
                    "midi": 75,
                    "time": 266.09999999999735,
                    "velocity": 0.7244094488188977,
                    "duration": 0.10000000000002274
                },
                {
                    "name": "D5",
                    "midi": 74,
                    "time": 266.2499999999974,
                    "velocity": 0.7244094488188977,
                    "duration": 0.10000000000002274
                },
                {
                    "name": "C5",
                    "midi": 72,
                    "time": 266.3999999999974,
                    "velocity": 0.7244094488188977,
                    "duration": 0.10000000000002274
                },
                {
                    "name": "B4",
                    "midi": 71,
                    "time": 266.54999999999745,
                    "velocity": 0.7244094488188977,
                    "duration": 0.10000000000002274
                },
                {
                    "name": "C5",
                    "midi": 72,
                    "time": 266.6999999999975,
                    "velocity": 0.7244094488188977,
                    "duration": 0.6000000000000227
                },
                {
                    "name": "C5",
                    "midi": 72,
                    "time": 267.2999999999975,
                    "velocity": 0.7244094488188977,
                    "duration": 0.10000000000002274
                },
                {
                    "name": "C5",
                    "midi": 72,
                    "time": 267.44999999999754,
                    "velocity": 0.7244094488188977,
                    "duration": 0.10000000000002274
                },
                {
                    "name": "C5",
                    "midi": 72,
                    "time": 267.5999999999976,
                    "velocity": 0.7244094488188977,
                    "duration": 0.14999999999997726
                },
                {
                    "name": "D#5",
                    "midi": 75,
                    "time": 267.74999999999756,
                    "velocity": 0.7244094488188977,
                    "duration": 0.14375000000001137
                },
                {
                    "name": "D5",
                    "midi": 74,
                    "time": 267.8999999999976,
                    "velocity": 0.7244094488188977,
                    "duration": 0.14999999999997726
                },
                {
                    "name": "F5",
                    "midi": 77,
                    "time": 268.04999999999757,
                    "velocity": 0.7244094488188977,
                    "duration": 0.14375000000001137
                },
                {
                    "name": "D#5",
                    "midi": 75,
                    "time": 268.1999999999976,
                    "velocity": 0.7244094488188977,
                    "duration": 0.14999999999997726
                },
                {
                    "name": "G5",
                    "midi": 79,
                    "time": 268.3499999999976,
                    "velocity": 0.7244094488188977,
                    "duration": 0.14375000000001137
                },
                {
                    "name": "F5",
                    "midi": 77,
                    "time": 268.4999999999976,
                    "velocity": 0.7244094488188977,
                    "duration": 0.14999999999997726
                },
                {
                    "name": "G#5",
                    "midi": 80,
                    "time": 268.6499999999976,
                    "velocity": 0.7244094488188977,
                    "duration": 0.14375000000001137
                },
                {
                    "name": "G5",
                    "midi": 79,
                    "time": 268.7999999999976,
                    "velocity": 0.7244094488188977,
                    "duration": 0.14999999999997726
                },
                {
                    "name": "A#5",
                    "midi": 82,
                    "time": 268.9499999999976,
                    "velocity": 0.7244094488188977,
                    "duration": 0.14375000000001137
                },
                {
                    "name": "G#5",
                    "midi": 80,
                    "time": 269.09999999999764,
                    "velocity": 0.7244094488188977,
                    "duration": 0.14999999999997726
                },
                {
                    "name": "C6",
                    "midi": 84,
                    "time": 269.2499999999976,
                    "velocity": 0.7244094488188977,
                    "duration": 0.14375000000001137
                },
                {
                    "name": "A#4",
                    "midi": 70,
                    "time": 269.39999999999765,
                    "velocity": 0.7244094488188977,
                    "duration": 0.14999999999997726
                },
                {
                    "name": "D5",
                    "midi": 74,
                    "time": 269.5499999999976,
                    "velocity": 0.7244094488188977,
                    "duration": 0.14375000000001137
                },
                {
                    "name": "C5",
                    "midi": 72,
                    "time": 269.69999999999766,
                    "velocity": 0.7244094488188977,
                    "duration": 0.14999999999997726
                },
                {
                    "name": "D#5",
                    "midi": 75,
                    "time": 269.84999999999764,
                    "velocity": 0.7244094488188977,
                    "duration": 0.14375000000001137
                },
                {
                    "name": "D5",
                    "midi": 74,
                    "time": 269.99999999999767,
                    "velocity": 0.7244094488188977,
                    "duration": 0.14999999999997726
                },
                {
                    "name": "F5",
                    "midi": 77,
                    "time": 270.14999999999765,
                    "velocity": 0.7244094488188977,
                    "duration": 0.14375000000001137
                },
                {
                    "name": "D#5",
                    "midi": 75,
                    "time": 270.2999999999977,
                    "velocity": 0.7244094488188977,
                    "duration": 0.14999999999997726
                },
                {
                    "name": "G5",
                    "midi": 79,
                    "time": 270.44999999999766,
                    "velocity": 0.7244094488188977,
                    "duration": 0.14375000000001137
                },
                {
                    "name": "F5",
                    "midi": 77,
                    "time": 270.5999999999977,
                    "velocity": 0.7244094488188977,
                    "duration": 0.14999999999997726
                },
                {
                    "name": "G#5",
                    "midi": 80,
                    "time": 270.74999999999767,
                    "velocity": 0.7244094488188977,
                    "duration": 0.14375000000001137
                },
                {
                    "name": "G5",
                    "midi": 79,
                    "time": 270.8999999999977,
                    "velocity": 0.7244094488188977,
                    "duration": 0.14999999999997726
                },
                {
                    "name": "A#5",
                    "midi": 82,
                    "time": 271.0499999999977,
                    "velocity": 0.7244094488188977,
                    "duration": 0.14375000000001137
                },
                {
                    "name": "A#5",
                    "midi": 82,
                    "time": 271.1999999999977,
                    "velocity": 1,
                    "duration": 0.14999999999997726
                },
                {
                    "name": "G#5",
                    "midi": 80,
                    "time": 271.3499999999977,
                    "velocity": 0.7244094488188977,
                    "duration": 0.10000000000002274
                },
                {
                    "name": "G5",
                    "midi": 79,
                    "time": 271.4999999999977,
                    "velocity": 0.7244094488188977,
                    "duration": 0.10000000000002274
                },
                {
                    "name": "F5",
                    "midi": 77,
                    "time": 271.64999999999776,
                    "velocity": 0.7244094488188977,
                    "duration": 0.10000000000002274
                },
                {
                    "name": "D#5",
                    "midi": 75,
                    "time": 271.7999999999978,
                    "velocity": 0.7244094488188977,
                    "duration": 0.10000000000002274
                },
                {
                    "name": "D5",
                    "midi": 74,
                    "time": 271.94999999999783,
                    "velocity": 0.7244094488188977,
                    "duration": 0.10000000000002274
                },
                {
                    "name": "G#5",
                    "midi": 80,
                    "time": 272.09999999999786,
                    "velocity": 1,
                    "duration": 0.14999999999997726
                },
                {
                    "name": "G5",
                    "midi": 79,
                    "time": 272.24999999999784,
                    "velocity": 0.7244094488188977,
                    "duration": 0.10000000000002274
                },
                {
                    "name": "F5",
                    "midi": 77,
                    "time": 272.3999999999979,
                    "velocity": 0.7244094488188977,
                    "duration": 0.10000000000002274
                },
                {
                    "name": "D#5",
                    "midi": 75,
                    "time": 272.5499999999979,
                    "velocity": 0.7244094488188977,
                    "duration": 0.10000000000002274
                },
                {
                    "name": "D5",
                    "midi": 74,
                    "time": 272.69999999999794,
                    "velocity": 0.7244094488188977,
                    "duration": 0.10000000000002274
                },
                {
                    "name": "C5",
                    "midi": 72,
                    "time": 272.849999999998,
                    "velocity": 0.7244094488188977,
                    "duration": 0.10000000000002274
                },
                {
                    "name": "G5",
                    "midi": 79,
                    "time": 272.999999999998,
                    "velocity": 1,
                    "duration": 0.14999999999997726
                },
                {
                    "name": "F5",
                    "midi": 77,
                    "time": 273.149999999998,
                    "velocity": 0.7244094488188977,
                    "duration": 0.10000000000002274
                },
                {
                    "name": "D#5",
                    "midi": 75,
                    "time": 273.299999999998,
                    "velocity": 0.7244094488188977,
                    "duration": 0.10000000000002274
                },
                {
                    "name": "D5",
                    "midi": 74,
                    "time": 273.44999999999806,
                    "velocity": 0.7244094488188977,
                    "duration": 0.10000000000002274
                },
                {
                    "name": "C5",
                    "midi": 72,
                    "time": 273.5999999999981,
                    "velocity": 0.7244094488188977,
                    "duration": 0.10000000000002274
                },
                {
                    "name": "B4",
                    "midi": 71,
                    "time": 273.7499999999981,
                    "velocity": 0.7244094488188977,
                    "duration": 0.10000000000002274
                },
                {
                    "name": "C5",
                    "midi": 72,
                    "time": 273.89999999999816,
                    "velocity": 0.7244094488188977,
                    "duration": 0.6000000000000227
                },
                {
                    "name": "E5",
                    "midi": 76,
                    "time": 274.4999999999982,
                    "velocity": 0.5905511811023622,
                    "duration": 0.10000000000002274
                },
                {
                    "name": "D5",
                    "midi": 74,
                    "time": 274.7999999999982,
                    "velocity": 0.5905511811023622,
                    "duration": 0.14999999999997726
                },
                {
                    "name": "E5",
                    "midi": 76,
                    "time": 274.94999999999817,
                    "velocity": 0.5905511811023622,
                    "duration": 0.14999999999997726
                },
                {
                    "name": "F5",
                    "midi": 77,
                    "time": 275.09999999999815,
                    "velocity": 0.5905511811023622,
                    "duration": 0.10000000000002274
                },
                {
                    "name": "E5",
                    "midi": 76,
                    "time": 275.39999999999816,
                    "velocity": 0.5905511811023622,
                    "duration": 0.10000000000002274
                },
                {
                    "name": "D5",
                    "midi": 74,
                    "time": 275.5499999999982,
                    "velocity": 0.5905511811023622,
                    "duration": 0.10000000000002274
                },
                {
                    "name": "C5",
                    "midi": 72,
                    "time": 275.6999999999982,
                    "velocity": 0.5905511811023622,
                    "duration": 0.14999999999997726
                },
                {
                    "name": "D5",
                    "midi": 74,
                    "time": 275.8499999999982,
                    "velocity": 0.5905511811023622,
                    "duration": 0.14999999999997726
                },
                {
                    "name": "E5",
                    "midi": 76,
                    "time": 275.9999999999982,
                    "velocity": 0.5905511811023622,
                    "duration": 0.10000000000002274
                },
                {
                    "name": "D5",
                    "midi": 74,
                    "time": 276.2999999999982,
                    "velocity": 0.5905511811023622,
                    "duration": 0.10000000000002274
                },
                {
                    "name": "C5",
                    "midi": 72,
                    "time": 276.4499999999982,
                    "velocity": 0.5905511811023622,
                    "duration": 0.10000000000002274
                },
                {
                    "name": "B4",
                    "midi": 71,
                    "time": 276.59999999999826,
                    "velocity": 0.5905511811023622,
                    "duration": 0.14999999999997726
                },
                {
                    "name": "C5",
                    "midi": 72,
                    "time": 276.74999999999824,
                    "velocity": 0.5905511811023622,
                    "duration": 0.14999999999997726
                },
                {
                    "name": "D5",
                    "midi": 74,
                    "time": 276.8999999999982,
                    "velocity": 0.5905511811023622,
                    "duration": 0.10000000000002274
                },
                {
                    "name": "C5",
                    "midi": 72,
                    "time": 277.1999999999982,
                    "velocity": 0.5905511811023622,
                    "duration": 0.10000000000002274
                },
                {
                    "name": "B4",
                    "midi": 71,
                    "time": 277.34999999999826,
                    "velocity": 0.5905511811023622,
                    "duration": 0.10000000000002274
                },
                {
                    "name": "C5",
                    "midi": 72,
                    "time": 277.4999999999983,
                    "velocity": 0.5905511811023622,
                    "duration": 0.30000000000001137
                },
                {
                    "name": "G4",
                    "midi": 67,
                    "time": 277.7999999999983,
                    "velocity": 0.5905511811023622,
                    "duration": 0.10000000000002274
                },
                {
                    "name": "D#5",
                    "midi": 75,
                    "time": 278.0999999999983,
                    "velocity": 0.7244094488188977,
                    "duration": 0.10000000000002274
                },
                {
                    "name": "D5",
                    "midi": 74,
                    "time": 278.39999999999833,
                    "velocity": 0.7244094488188977,
                    "duration": 0.07499999999998863
                },
                {
                    "name": "D#5",
                    "midi": 75,
                    "time": 278.4749999999983,
                    "velocity": 0.7244094488188977,
                    "duration": 0.07499999999998863
                },
                {
                    "name": "D5",
                    "midi": 74,
                    "time": 278.5499999999983,
                    "velocity": 0.7244094488188977,
                    "duration": 0.07499999999998863
                },
                {
                    "name": "D#5",
                    "midi": 75,
                    "time": 278.6249999999983,
                    "velocity": 0.7244094488188977,
                    "duration": 0.07499999999998863
                },
                {
                    "name": "F5",
                    "midi": 77,
                    "time": 278.6999999999983,
                    "velocity": 0.7244094488188977,
                    "duration": 0.10000000000002274
                },
                {
                    "name": "D#5",
                    "midi": 75,
                    "time": 278.9999999999983,
                    "velocity": 0.7244094488188977,
                    "duration": 0.10000000000002274
                },
                {
                    "name": "D5",
                    "midi": 74,
                    "time": 279.14999999999833,
                    "velocity": 0.7244094488188977,
                    "duration": 0.10000000000002274
                },
                {
                    "name": "C5",
                    "midi": 72,
                    "time": 279.29999999999836,
                    "velocity": 0.7244094488188977,
                    "duration": 0.07499999999998863
                },
                {
                    "name": "D5",
                    "midi": 74,
                    "time": 279.37499999999835,
                    "velocity": 0.7244094488188977,
                    "duration": 0.07499999999998863
                },
                {
                    "name": "C5",
                    "midi": 72,
                    "time": 279.44999999999834,
                    "velocity": 0.7244094488188977,
                    "duration": 0.07499999999998863
                },
                {
                    "name": "D5",
                    "midi": 74,
                    "time": 279.52499999999833,
                    "velocity": 0.7244094488188977,
                    "duration": 0.07499999999998863
                },
                {
                    "name": "D#5",
                    "midi": 75,
                    "time": 279.5999999999983,
                    "velocity": 0.7244094488188977,
                    "duration": 0.10000000000002274
                },
                {
                    "name": "G5",
                    "midi": 79,
                    "time": 279.89999999999833,
                    "velocity": 0.8503937007874016,
                    "duration": 0.10000000000002274
                },
                {
                    "name": "G5",
                    "midi": 79,
                    "time": 280.04999999999836,
                    "velocity": 0.8503937007874016,
                    "duration": 0.10000000000002274
                },
                {
                    "name": "G#5",
                    "midi": 80,
                    "time": 280.1999999999984,
                    "velocity": 0.8503937007874016,
                    "duration": 0.14999999999997726
                },
                {
                    "name": "G5",
                    "midi": 79,
                    "time": 280.3499999999984,
                    "velocity": 0.8503937007874016,
                    "duration": 0.14375000000001137
                },
                {
                    "name": "A5",
                    "midi": 81,
                    "time": 280.4999999999984,
                    "velocity": 0.8503937007874016,
                    "duration": 0.14999999999997726
                },
                {
                    "name": "G5",
                    "midi": 79,
                    "time": 280.6499999999984,
                    "velocity": 0.8503937007874016,
                    "duration": 0.14375000000001137
                },
                {
                    "name": "B5",
                    "midi": 83,
                    "time": 280.7999999999984,
                    "velocity": 0.8503937007874016,
                    "duration": 0.14999999999997726
                },
                {
                    "name": "G5",
                    "midi": 79,
                    "time": 280.9499999999984,
                    "velocity": 0.8503937007874016,
                    "duration": 0.14375000000001137
                },
                {
                    "name": "C6",
                    "midi": 84,
                    "time": 281.09999999999843,
                    "velocity": 0.8503937007874016,
                    "duration": 0.14999999999997726
                },
                {
                    "name": "D#6",
                    "midi": 87,
                    "time": 281.2499999999984,
                    "velocity": 0.8503937007874016,
                    "duration": 0.10000000000002274
                },
                {
                    "name": "D6",
                    "midi": 86,
                    "time": 281.39999999999844,
                    "velocity": 0.8503937007874016,
                    "duration": 0.10000000000002274
                },
                {
                    "name": "C6",
                    "midi": 84,
                    "time": 281.5499999999985,
                    "velocity": 0.8503937007874016,
                    "duration": 0.10000000000002274
                },
                {
                    "name": "B5",
                    "midi": 83,
                    "time": 281.6999999999985,
                    "velocity": 0.8503937007874016,
                    "duration": 0.10000000000002274
                },
                {
                    "name": "A5",
                    "midi": 81,
                    "time": 281.84999999999854,
                    "velocity": 0.8503937007874016,
                    "duration": 0.10000000000002274
                },
                {
                    "name": "G5",
                    "midi": 79,
                    "time": 281.9999999999986,
                    "velocity": 0.8503937007874016,
                    "duration": 0.14999999999997726
                },
                {
                    "name": "G#5",
                    "midi": 80,
                    "time": 282.14999999999856,
                    "velocity": 0.8503937007874016,
                    "duration": 0.10000000000002274
                },
                {
                    "name": "A5",
                    "midi": 81,
                    "time": 282.2999999999986,
                    "velocity": 0.8503937007874016,
                    "duration": 0.10000000000002274
                },
                {
                    "name": "A#5",
                    "midi": 82,
                    "time": 282.4499999999986,
                    "velocity": 0.8503937007874016,
                    "duration": 0.10000000000002274
                },
                {
                    "name": "B5",
                    "midi": 83,
                    "time": 282.59999999999866,
                    "velocity": 0.8503937007874016,
                    "duration": 0.10000000000002274
                },
                {
                    "name": "C6",
                    "midi": 84,
                    "time": 282.89999999999867,
                    "velocity": 0.8503937007874016,
                    "duration": 0.29374999999998863
                },
                {
                    "name": "G5",
                    "midi": 79,
                    "time": 283.1999999999987,
                    "velocity": 0.8503937007874016,
                    "duration": 0.29374999999998863
                },
                {
                    "name": "D#5",
                    "midi": 75,
                    "time": 283.4999999999987,
                    "velocity": 0.8503937007874016,
                    "duration": 0.29374999999998863
                },
                {
                    "name": "C5",
                    "midi": 72,
                    "time": 283.7999999999987,
                    "velocity": 0.8503937007874016,
                    "duration": 0.14999999999997726
                },
                {
                    "name": "D#5",
                    "midi": 75,
                    "time": 283.9499999999987,
                    "velocity": 0.8503937007874016,
                    "duration": 0.14375000000001137
                },
                {
                    "name": "G4",
                    "midi": 67,
                    "time": 284.0999999999987,
                    "velocity": 0.8503937007874016,
                    "duration": 0.14999999999997726
                },
                {
                    "name": "C5",
                    "midi": 72,
                    "time": 284.2499999999987,
                    "velocity": 0.8503937007874016,
                    "duration": 0.14375000000001137
                },
                {
                    "name": "D#4",
                    "midi": 63,
                    "time": 284.3999999999987,
                    "velocity": 0.8503937007874016,
                    "duration": 0.14999999999997726
                },
                {
                    "name": "G4",
                    "midi": 67,
                    "time": 284.5499999999987,
                    "velocity": 0.8503937007874016,
                    "duration": 0.14375000000001137
                },
                {
                    "name": "D#4",
                    "midi": 63,
                    "time": 284.69999999999874,
                    "velocity": 0.8503937007874016,
                    "duration": 0.6000000000000227
                },
                {
                    "name": "D#5",
                    "midi": 75,
                    "time": 285.5999999999988,
                    "velocity": 0.8503937007874016,
                    "duration": 0.6000000000000227
                },
                {
                    "name": "C5",
                    "midi": 72,
                    "time": 286.3499999999988,
                    "velocity": 0.8503937007874016,
                    "duration": 0.10000000000002274
                },
                {
                    "name": "C5",
                    "midi": 72,
                    "time": 286.4999999999988,
                    "velocity": 0.8503937007874016,
                    "duration": 0.8999999999999773
                }
            ],
            "controlChanges": {
                "7": [
                    {
                        "number": 7,
                        "time": 0,
                        "value": 0.7637795275590551
                    }
                ],
                "10": [
                    {
                        "number": 10,
                        "time": 0,
                        "value": 0.3937007874015748
                    }
                ],
                "91": [
                    {
                        "number": 91,
                        "time": 0,
                        "value": 0.2992125984251969
                    }
                ]
            },
            "id": 7,
            "name": "around 1820",
            "instrumentNumber": 71,
            "instrument": "clarinet",
            "instrumentFamily": "reed",
            "channelNumber": 3,
            "isPercussion": false
        },
        {
            "startTime": 1.2,
            "duration": 287.3999999999998,
            "length": 743,
            "notes": [
                {
                    "name": "D#4",
                    "midi": 63,
                    "time": 1.2,
                    "velocity": 0.3543307086614173,
                    "duration": 0.10000000000000009
                },
                {
                    "name": "D#4",
                    "midi": 63,
                    "time": 1.5,
                    "velocity": 0.3543307086614173,
                    "duration": 0.10000000000000009
                },
                {
                    "name": "F4",
                    "midi": 65,
                    "time": 2.1,
                    "velocity": 0.3543307086614173,
                    "duration": 0.10000000000000009
                },
                {
                    "name": "F4",
                    "midi": 65,
                    "time": 2.4000000000000004,
                    "velocity": 0.3543307086614173,
                    "duration": 0.10000000000000009
                },
                {
                    "name": "D4",
                    "midi": 62,
                    "time": 3.0000000000000004,
                    "velocity": 0.3543307086614173,
                    "duration": 0.10000000000000009
                },
                {
                    "name": "D4",
                    "midi": 62,
                    "time": 3.3000000000000007,
                    "velocity": 0.3543307086614173,
                    "duration": 0.10000000000000009
                },
                {
                    "name": "F4",
                    "midi": 65,
                    "time": 3.900000000000001,
                    "velocity": 0.3543307086614173,
                    "duration": 0.10000000000000009
                },
                {
                    "name": "F4",
                    "midi": 65,
                    "time": 4.200000000000001,
                    "velocity": 0.3543307086614173,
                    "duration": 0.09999999999999964
                },
                {
                    "name": "D#4",
                    "midi": 63,
                    "time": 4.800000000000001,
                    "velocity": 0.3543307086614173,
                    "duration": 0.09999999999999964
                },
                {
                    "name": "D#4",
                    "midi": 63,
                    "time": 5.1000000000000005,
                    "velocity": 0.3543307086614173,
                    "duration": 0.09999999999999964
                },
                {
                    "name": "F#4",
                    "midi": 66,
                    "time": 5.7,
                    "velocity": 0.3543307086614173,
                    "duration": 0.09999999999999964
                },
                {
                    "name": "F#4",
                    "midi": 66,
                    "time": 6,
                    "velocity": 0.3543307086614173,
                    "duration": 0.09999999999999964
                },
                {
                    "name": "G4",
                    "midi": 67,
                    "time": 6.6,
                    "velocity": 0.3543307086614173,
                    "duration": 0.5999999999999996
                },
                {
                    "name": "F4",
                    "midi": 65,
                    "time": 7.499999999999999,
                    "velocity": 0.3543307086614173,
                    "duration": 0.8999999999999995
                },
                {
                    "name": "D#4",
                    "midi": 63,
                    "time": 8.399999999999999,
                    "velocity": 0.3543307086614173,
                    "duration": 0.09999999999999964
                },
                {
                    "name": "D#4",
                    "midi": 63,
                    "time": 8.699999999999998,
                    "velocity": 0.3543307086614173,
                    "duration": 0.09999999999999964
                },
                {
                    "name": "F#4",
                    "midi": 66,
                    "time": 9.299999999999997,
                    "velocity": 0.3543307086614173,
                    "duration": 0.09999999999999964
                },
                {
                    "name": "F#4",
                    "midi": 66,
                    "time": 9.599999999999996,
                    "velocity": 0.3543307086614173,
                    "duration": 0.09999999999999964
                },
                {
                    "name": "G4",
                    "midi": 67,
                    "time": 10.199999999999996,
                    "velocity": 0.3543307086614173,
                    "duration": 0.09999999999999964
                },
                {
                    "name": "G4",
                    "midi": 67,
                    "time": 10.499999999999995,
                    "velocity": 0.3543307086614173,
                    "duration": 0.09999999999999964
                },
                {
                    "name": "F4",
                    "midi": 65,
                    "time": 11.099999999999994,
                    "velocity": 0.3543307086614173,
                    "duration": 0.09999999999999964
                },
                {
                    "name": "F4",
                    "midi": 65,
                    "time": 11.399999999999993,
                    "velocity": 0.3543307086614173,
                    "duration": 0.09999999999999964
                },
                {
                    "name": "G4",
                    "midi": 67,
                    "time": 11.999999999999993,
                    "velocity": 0.3543307086614173,
                    "duration": 0.09999999999999964
                },
                {
                    "name": "G4",
                    "midi": 67,
                    "time": 12.899999999999993,
                    "velocity": 0.3543307086614173,
                    "duration": 0.09999999999999964
                },
                {
                    "name": "G4",
                    "midi": 67,
                    "time": 13.799999999999994,
                    "velocity": 0.3543307086614173,
                    "duration": 0.5999999999999996
                },
                {
                    "name": "G4",
                    "midi": 67,
                    "time": 14.399999999999993,
                    "velocity": 0.7244094488188977,
                    "duration": 0.3000000000000007
                },
                {
                    "name": "G5",
                    "midi": 79,
                    "time": 14.699999999999994,
                    "velocity": 0.7244094488188977,
                    "duration": 0.09999999999999964
                },
                {
                    "name": "G5",
                    "midi": 79,
                    "time": 14.999999999999993,
                    "velocity": 0.7244094488188977,
                    "duration": 0.09999999999999964
                },
                {
                    "name": "F5",
                    "midi": 77,
                    "time": 15.299999999999992,
                    "velocity": 0.7244094488188977,
                    "duration": 0.09999999999999964
                },
                {
                    "name": "D#5",
                    "midi": 75,
                    "time": 15.59999999999999,
                    "velocity": 0.7244094488188977,
                    "duration": 0.09999999999999964
                },
                {
                    "name": "D#5",
                    "midi": 75,
                    "time": 15.89999999999999,
                    "velocity": 0.7244094488188977,
                    "duration": 0.09999999999999964
                },
                {
                    "name": "D5",
                    "midi": 74,
                    "time": 16.19999999999999,
                    "velocity": 0.7244094488188977,
                    "duration": 0.10000000000000142
                },
                {
                    "name": "C5",
                    "midi": 72,
                    "time": 16.49999999999999,
                    "velocity": 0.7244094488188977,
                    "duration": 0.10000000000000142
                },
                {
                    "name": "B4",
                    "midi": 71,
                    "time": 16.79999999999999,
                    "velocity": 0.7244094488188977,
                    "duration": 0.10000000000000142
                },
                {
                    "name": "C5",
                    "midi": 72,
                    "time": 17.09999999999999,
                    "velocity": 0.7244094488188977,
                    "duration": 0.10000000000000142
                },
                {
                    "name": "B4",
                    "midi": 71,
                    "time": 17.39999999999999,
                    "velocity": 0.7244094488188977,
                    "duration": 0.07499999999999929
                },
                {
                    "name": "C5",
                    "midi": 72,
                    "time": 17.47499999999999,
                    "velocity": 0.7244094488188977,
                    "duration": 0.07499999999999929
                },
                {
                    "name": "D5",
                    "midi": 74,
                    "time": 17.54999999999999,
                    "velocity": 0.7244094488188977,
                    "duration": 0.10000000000000142
                },
                {
                    "name": "G4",
                    "midi": 67,
                    "time": 17.699999999999992,
                    "velocity": 0.7244094488188977,
                    "duration": 0.10000000000000142
                },
                {
                    "name": "G4",
                    "midi": 67,
                    "time": 17.999999999999993,
                    "velocity": 0.7244094488188977,
                    "duration": 0.10000000000000142
                },
                {
                    "name": "A#4",
                    "midi": 70,
                    "time": 18.299999999999994,
                    "velocity": 0.7244094488188977,
                    "duration": 0.07499999999999929
                },
                {
                    "name": "G#4",
                    "midi": 68,
                    "time": 18.374999999999993,
                    "velocity": 0.7244094488188977,
                    "duration": 0.14999999999999858
                },
                {
                    "name": "G4",
                    "midi": 67,
                    "time": 18.59999999999999,
                    "velocity": 0.7244094488188977,
                    "duration": 0.10000000000000142
                },
                {
                    "name": "F4",
                    "midi": 65,
                    "time": 18.89999999999999,
                    "velocity": 0.7244094488188977,
                    "duration": 0.10000000000000142
                },
                {
                    "name": "D#5",
                    "midi": 75,
                    "time": 19.199999999999992,
                    "velocity": 0.7244094488188977,
                    "duration": 0.10000000000000142
                },
                {
                    "name": "D5",
                    "midi": 74,
                    "time": 19.499999999999993,
                    "velocity": 0.7244094488188977,
                    "duration": 0.10000000000000142
                },
                {
                    "name": "C5",
                    "midi": 72,
                    "time": 19.799999999999994,
                    "velocity": 0.7244094488188977,
                    "duration": 0.10000000000000142
                },
                {
                    "name": "F5",
                    "midi": 77,
                    "time": 20.099999999999994,
                    "velocity": 0.7244094488188977,
                    "duration": 0.07499999999999929
                },
                {
                    "name": "D#5",
                    "midi": 75,
                    "time": 20.174999999999994,
                    "velocity": 0.7244094488188977,
                    "duration": 0.14999999999999858
                },
                {
                    "name": "D5",
                    "midi": 74,
                    "time": 20.39999999999999,
                    "velocity": 0.7244094488188977,
                    "duration": 0.10000000000000142
                },
                {
                    "name": "C5",
                    "midi": 72,
                    "time": 20.699999999999992,
                    "velocity": 0.7244094488188977,
                    "duration": 0.10000000000000142
                },
                {
                    "name": "D5",
                    "midi": 74,
                    "time": 20.999999999999993,
                    "velocity": 0.7244094488188977,
                    "duration": 0.6000000000000014
                },
                {
                    "name": "G4",
                    "midi": 67,
                    "time": 21.599999999999994,
                    "velocity": 0.7244094488188977,
                    "duration": 0.3000000000000007
                },
                {
                    "name": "G5",
                    "midi": 79,
                    "time": 21.899999999999995,
                    "velocity": 0.7244094488188977,
                    "duration": 0.10000000000000142
                },
                {
                    "name": "G5",
                    "midi": 79,
                    "time": 22.199999999999996,
                    "velocity": 0.7244094488188977,
                    "duration": 0.10000000000000142
                },
                {
                    "name": "F5",
                    "midi": 77,
                    "time": 22.499999999999996,
                    "velocity": 0.7244094488188977,
                    "duration": 0.10000000000000142
                },
                {
                    "name": "D#5",
                    "midi": 75,
                    "time": 22.799999999999997,
                    "velocity": 0.7244094488188977,
                    "duration": 0.10000000000000142
                },
                {
                    "name": "D#5",
                    "midi": 75,
                    "time": 23.099999999999998,
                    "velocity": 0.7244094488188977,
                    "duration": 0.10000000000000142
                },
                {
                    "name": "D5",
                    "midi": 74,
                    "time": 23.4,
                    "velocity": 0.7244094488188977,
                    "duration": 0.10000000000000142
                },
                {
                    "name": "C5",
                    "midi": 72,
                    "time": 23.7,
                    "velocity": 0.7244094488188977,
                    "duration": 0.10000000000000142
                },
                {
                    "name": "B4",
                    "midi": 71,
                    "time": 24,
                    "velocity": 0.7244094488188977,
                    "duration": 0.10000000000000142
                },
                {
                    "name": "C5",
                    "midi": 72,
                    "time": 24.3,
                    "velocity": 0.7244094488188977,
                    "duration": 0.10000000000000142
                },
                {
                    "name": "B4",
                    "midi": 71,
                    "time": 24.6,
                    "velocity": 0.7244094488188977,
                    "duration": 0.07499999999999929
                },
                {
                    "name": "C5",
                    "midi": 72,
                    "time": 24.675,
                    "velocity": 0.7244094488188977,
                    "duration": 0.07499999999999929
                },
                {
                    "name": "D5",
                    "midi": 74,
                    "time": 24.75,
                    "velocity": 0.7244094488188977,
                    "duration": 0.10000000000000142
                },
                {
                    "name": "G4",
                    "midi": 67,
                    "time": 24.900000000000002,
                    "velocity": 0.7244094488188977,
                    "duration": 0.10000000000000142
                },
                {
                    "name": "G4",
                    "midi": 67,
                    "time": 25.200000000000003,
                    "velocity": 0.7244094488188977,
                    "duration": 0.10000000000000142
                },
                {
                    "name": "A#4",
                    "midi": 70,
                    "time": 25.500000000000004,
                    "velocity": 0.7244094488188977,
                    "duration": 0.07499999999999929
                },
                {
                    "name": "G#4",
                    "midi": 68,
                    "time": 25.575000000000003,
                    "velocity": 0.7244094488188977,
                    "duration": 0.14999999999999858
                },
                {
                    "name": "G4",
                    "midi": 67,
                    "time": 25.8,
                    "velocity": 0.7244094488188977,
                    "duration": 0.10000000000000142
                },
                {
                    "name": "F4",
                    "midi": 65,
                    "time": 26.1,
                    "velocity": 0.7244094488188977,
                    "duration": 0.10000000000000142
                },
                {
                    "name": "G4",
                    "midi": 67,
                    "time": 26.400000000000002,
                    "velocity": 0.7244094488188977,
                    "duration": 0.10000000000000142
                },
                {
                    "name": "C5",
                    "midi": 72,
                    "time": 26.700000000000003,
                    "velocity": 0.7244094488188977,
                    "duration": 0.10000000000000142
                },
                {
                    "name": "D#5",
                    "midi": 75,
                    "time": 26.850000000000005,
                    "velocity": 0.7244094488188977,
                    "duration": 0.10000000000000142
                },
                {
                    "name": "G5",
                    "midi": 79,
                    "time": 27.000000000000007,
                    "velocity": 0.7244094488188977,
                    "duration": 0.10000000000000142
                },
                {
                    "name": "G4",
                    "midi": 67,
                    "time": 27.300000000000008,
                    "velocity": 0.7244094488188977,
                    "duration": 0.10000000000000142
                },
                {
                    "name": "B4",
                    "midi": 71,
                    "time": 27.60000000000001,
                    "velocity": 0.7244094488188977,
                    "duration": 0.10000000000000142
                },
                {
                    "name": "D5",
                    "midi": 74,
                    "time": 27.75000000000001,
                    "velocity": 0.7244094488188977,
                    "duration": 0.10000000000000142
                },
                {
                    "name": "G5",
                    "midi": 79,
                    "time": 27.900000000000013,
                    "velocity": 0.7244094488188977,
                    "duration": 0.10000000000000142
                },
                {
                    "name": "C5",
                    "midi": 72,
                    "time": 28.200000000000014,
                    "velocity": 0.7244094488188977,
                    "duration": 0.6000000000000014
                },
                {
                    "name": "D#4",
                    "midi": 63,
                    "time": 28.800000000000015,
                    "velocity": 0.5905511811023622,
                    "duration": 0.10000000000000142
                },
                {
                    "name": "D#4",
                    "midi": 63,
                    "time": 29.100000000000016,
                    "velocity": 0.5905511811023622,
                    "duration": 0.10000000000000142
                },
                {
                    "name": "D#4",
                    "midi": 63,
                    "time": 29.400000000000016,
                    "velocity": 0.5905511811023622,
                    "duration": 0.10000000000000142
                },
                {
                    "name": "D#4",
                    "midi": 63,
                    "time": 29.700000000000017,
                    "velocity": 0.5905511811023622,
                    "duration": 0.10000000000000142
                },
                {
                    "name": "G4",
                    "midi": 67,
                    "time": 30.000000000000018,
                    "velocity": 0.3543307086614173,
                    "duration": 0.6000000000000014
                },
                {
                    "name": "F4",
                    "midi": 65,
                    "time": 30.90000000000002,
                    "velocity": 0.3543307086614173,
                    "duration": 0.6000000000000014
                },
                {
                    "name": "A#4",
                    "midi": 70,
                    "time": 31.800000000000022,
                    "velocity": 0.3543307086614173,
                    "duration": 0.5000000000000036
                },
                {
                    "name": "G4",
                    "midi": 67,
                    "time": 32.40000000000003,
                    "velocity": 0.5905511811023622,
                    "duration": 0.10000000000000142
                },
                {
                    "name": "G4",
                    "midi": 67,
                    "time": 32.70000000000003,
                    "velocity": 0.5905511811023622,
                    "duration": 0.10000000000000142
                },
                {
                    "name": "G4",
                    "midi": 67,
                    "time": 33.000000000000036,
                    "velocity": 0.5905511811023622,
                    "duration": 0.10000000000000142
                },
                {
                    "name": "G4",
                    "midi": 67,
                    "time": 33.30000000000004,
                    "velocity": 0.5905511811023622,
                    "duration": 0.10000000000000142
                },
                {
                    "name": "A#4",
                    "midi": 70,
                    "time": 33.600000000000044,
                    "velocity": 0.3543307086614173,
                    "duration": 0.6000000000000014
                },
                {
                    "name": "A4",
                    "midi": 69,
                    "time": 34.50000000000004,
                    "velocity": 0.3543307086614173,
                    "duration": 0.6000000000000014
                },
                {
                    "name": "A#4",
                    "midi": 70,
                    "time": 35.40000000000004,
                    "velocity": 0.3543307086614173,
                    "duration": 0.6000000000000014
                },
                {
                    "name": "A#4",
                    "midi": 70,
                    "time": 36.00000000000004,
                    "velocity": 0.5905511811023622,
                    "duration": 0.10000000000000142
                },
                {
                    "name": "A#4",
                    "midi": 70,
                    "time": 36.30000000000005,
                    "velocity": 0.5905511811023622,
                    "duration": 0.10000000000000142
                },
                {
                    "name": "A#4",
                    "midi": 70,
                    "time": 36.60000000000005,
                    "velocity": 0.5905511811023622,
                    "duration": 0.10000000000000142
                },
                {
                    "name": "A#4",
                    "midi": 70,
                    "time": 36.900000000000055,
                    "velocity": 0.5905511811023622,
                    "duration": 0.10000000000000142
                },
                {
                    "name": "D5",
                    "midi": 74,
                    "time": 37.20000000000006,
                    "velocity": 0.3543307086614173,
                    "duration": 0.6000000000000014
                },
                {
                    "name": "C5",
                    "midi": 72,
                    "time": 38.10000000000006,
                    "velocity": 0.3543307086614173,
                    "duration": 0.6000000000000014
                },
                {
                    "name": "D5",
                    "midi": 74,
                    "time": 39.00000000000006,
                    "velocity": 0.3543307086614173,
                    "duration": 0.8999999999999986
                },
                {
                    "name": "C5",
                    "midi": 72,
                    "time": 39.900000000000055,
                    "velocity": 0.3543307086614173,
                    "duration": 0.8999999999999986
                },
                {
                    "name": "A#4",
                    "midi": 70,
                    "time": 40.800000000000054,
                    "velocity": 0.3543307086614173,
                    "duration": 0.8999999999999986
                },
                {
                    "name": "A4",
                    "midi": 69,
                    "time": 41.70000000000005,
                    "velocity": 0.3543307086614173,
                    "duration": 0.8999999999999986
                },
                {
                    "name": "F4",
                    "midi": 65,
                    "time": 42.60000000000005,
                    "velocity": 0.3543307086614173,
                    "duration": 0.7999999999999972
                },
                {
                    "name": "G4",
                    "midi": 67,
                    "time": 43.50000000000005,
                    "velocity": 0.49606299212598426,
                    "duration": 1.1937500000000014
                },
                {
                    "name": "D#4",
                    "midi": 63,
                    "time": 44.70000000000005,
                    "velocity": 0.47244094488188976,
                    "duration": 0.10000000000000142
                },
                {
                    "name": "D#4",
                    "midi": 63,
                    "time": 45.00000000000006,
                    "velocity": 0.47244094488188976,
                    "duration": 0.10000000000000142
                },
                {
                    "name": "C4",
                    "midi": 60,
                    "time": 45.60000000000006,
                    "velocity": 0.47244094488188976,
                    "duration": 0.10000000000000142
                },
                {
                    "name": "C4",
                    "midi": 60,
                    "time": 45.90000000000006,
                    "velocity": 0.47244094488188976,
                    "duration": 0.10000000000000142
                },
                {
                    "name": "C4",
                    "midi": 60,
                    "time": 46.500000000000064,
                    "velocity": 0.47244094488188976,
                    "duration": 0.10000000000000142
                },
                {
                    "name": "C4",
                    "midi": 60,
                    "time": 46.80000000000007,
                    "velocity": 0.47244094488188976,
                    "duration": 0.10000000000000142
                },
                {
                    "name": "D4",
                    "midi": 62,
                    "time": 47.10000000000007,
                    "velocity": 0.6614173228346457,
                    "duration": 1.1937500000000014
                },
                {
                    "name": "D4",
                    "midi": 62,
                    "time": 48.300000000000075,
                    "velocity": 0.47244094488188976,
                    "duration": 0.10000000000000142
                },
                {
                    "name": "D4",
                    "midi": 62,
                    "time": 48.60000000000008,
                    "velocity": 0.47244094488188976,
                    "duration": 0.10000000000000142
                },
                {
                    "name": "D#4",
                    "midi": 63,
                    "time": 49.20000000000008,
                    "velocity": 0.47244094488188976,
                    "duration": 0.10000000000000142
                },
                {
                    "name": "D4",
                    "midi": 62,
                    "time": 49.500000000000085,
                    "velocity": 0.47244094488188976,
                    "duration": 0.10000000000000142
                },
                {
                    "name": "D#4",
                    "midi": 63,
                    "time": 49.80000000000009,
                    "velocity": 0.47244094488188976,
                    "duration": 0.6000000000000014
                },
                {
                    "name": "G3",
                    "midi": 55,
                    "time": 50.70000000000009,
                    "velocity": 0.7244094488188977,
                    "duration": 0.14999999999999858
                },
                {
                    "name": "F#3",
                    "midi": 54,
                    "time": 50.85000000000009,
                    "velocity": 0.7244094488188977,
                    "duration": 0.10000000000000142
                },
                {
                    "name": "G3",
                    "midi": 55,
                    "time": 51.000000000000085,
                    "velocity": 0.7244094488188977,
                    "duration": 0.10000000000000142
                },
                {
                    "name": "A3",
                    "midi": 57,
                    "time": 51.150000000000084,
                    "velocity": 0.7244094488188977,
                    "duration": 0.10000000000000142
                },
                {
                    "name": "A#3",
                    "midi": 58,
                    "time": 51.30000000000008,
                    "velocity": 0.7244094488188977,
                    "duration": 0.10000000000000142
                },
                {
                    "name": "B3",
                    "midi": 59,
                    "time": 51.45000000000008,
                    "velocity": 0.7244094488188977,
                    "duration": 0.10000000000000142
                },
                {
                    "name": "C4",
                    "midi": 60,
                    "time": 51.60000000000008,
                    "velocity": 0.7244094488188977,
                    "duration": 0.10000000000000142
                },
                {
                    "name": "C4",
                    "midi": 60,
                    "time": 51.900000000000084,
                    "velocity": 0.7244094488188977,
                    "duration": 0.10000000000000142
                },
                {
                    "name": "D#5",
                    "midi": 75,
                    "time": 52.500000000000085,
                    "velocity": 0.3543307086614173,
                    "duration": 0.10000000000000142
                },
                {
                    "name": "D#5",
                    "midi": 75,
                    "time": 52.80000000000009,
                    "velocity": 0.3543307086614173,
                    "duration": 0.10000000000000142
                },
                {
                    "name": "D5",
                    "midi": 74,
                    "time": 53.40000000000009,
                    "velocity": 0.3543307086614173,
                    "duration": 0.10000000000000142
                },
                {
                    "name": "D5",
                    "midi": 74,
                    "time": 53.700000000000095,
                    "velocity": 0.3543307086614173,
                    "duration": 0.10000000000000142
                },
                {
                    "name": "D4",
                    "midi": 62,
                    "time": 54.3000000000001,
                    "velocity": 0.3543307086614173,
                    "duration": 0.10000000000000142
                },
                {
                    "name": "D4",
                    "midi": 62,
                    "time": 54.6000000000001,
                    "velocity": 0.3543307086614173,
                    "duration": 0.10000000000000142
                },
                {
                    "name": "D#4",
                    "midi": 63,
                    "time": 55.2000000000001,
                    "velocity": 0.3543307086614173,
                    "duration": 0.10000000000000142
                },
                {
                    "name": "D#4",
                    "midi": 63,
                    "time": 55.50000000000011,
                    "velocity": 0.3543307086614173,
                    "duration": 0.10000000000000142
                },
                {
                    "name": "C5",
                    "midi": 72,
                    "time": 56.10000000000011,
                    "velocity": 0.3543307086614173,
                    "duration": 0.10000000000000142
                },
                {
                    "name": "G#4",
                    "midi": 68,
                    "time": 56.40000000000011,
                    "velocity": 0.3543307086614173,
                    "duration": 0.10000000000000142
                },
                {
                    "name": "G4",
                    "midi": 67,
                    "time": 57.000000000000114,
                    "velocity": 0.3543307086614173,
                    "duration": 0.6000000000000014
                },
                {
                    "name": "G4",
                    "midi": 67,
                    "time": 58.80000000000012,
                    "velocity": 0.3543307086614173,
                    "duration": 0.10000000000000142
                },
                {
                    "name": "G4",
                    "midi": 67,
                    "time": 59.10000000000012,
                    "velocity": 0.3543307086614173,
                    "duration": 0.10000000000000142
                },
                {
                    "name": "G4",
                    "midi": 67,
                    "time": 59.40000000000013,
                    "velocity": 0.3543307086614173,
                    "duration": 0.10000000000000142
                },
                {
                    "name": "G3",
                    "midi": 55,
                    "time": 59.70000000000013,
                    "velocity": 0.3543307086614173,
                    "duration": 0.10000000000000142
                },
                {
                    "name": "G3",
                    "midi": 55,
                    "time": 60.000000000000135,
                    "velocity": 0.3543307086614173,
                    "duration": 0.10000000000000142
                },
                {
                    "name": "G3",
                    "midi": 55,
                    "time": 60.30000000000014,
                    "velocity": 0.3543307086614173,
                    "duration": 0.10000000000000142
                },
                {
                    "name": "G3",
                    "midi": 55,
                    "time": 60.60000000000014,
                    "velocity": 0.3543307086614173,
                    "duration": 0.10000000000000142
                },
                {
                    "name": "G3",
                    "midi": 55,
                    "time": 60.90000000000015,
                    "velocity": 0.3543307086614173,
                    "duration": 0.10000000000000142
                },
                {
                    "name": "G3",
                    "midi": 55,
                    "time": 61.20000000000015,
                    "velocity": 0.3543307086614173,
                    "duration": 0.10000000000000142
                },
                {
                    "name": "G4",
                    "midi": 67,
                    "time": 63.30000000000015,
                    "velocity": 0.3543307086614173,
                    "duration": 0.10000000000000142
                },
                {
                    "name": "G4",
                    "midi": 67,
                    "time": 63.60000000000016,
                    "velocity": 0.3543307086614173,
                    "duration": 0.10000000000000142
                },
                {
                    "name": "G#4",
                    "midi": 68,
                    "time": 64.20000000000016,
                    "velocity": 0.3543307086614173,
                    "duration": 0.09999999999999432
                },
                {
                    "name": "G#4",
                    "midi": 68,
                    "time": 64.50000000000016,
                    "velocity": 0.3543307086614173,
                    "duration": 0.09999999999999432
                },
                {
                    "name": "G4",
                    "midi": 67,
                    "time": 65.10000000000015,
                    "velocity": 0.3543307086614173,
                    "duration": 0.09999999999999432
                },
                {
                    "name": "G4",
                    "midi": 67,
                    "time": 65.40000000000015,
                    "velocity": 0.3543307086614173,
                    "duration": 0.09999999999999432
                },
                {
                    "name": "F4",
                    "midi": 65,
                    "time": 66.00000000000014,
                    "velocity": 0.3543307086614173,
                    "duration": 0.09999999999999432
                },
                {
                    "name": "F4",
                    "midi": 65,
                    "time": 66.30000000000014,
                    "velocity": 0.3543307086614173,
                    "duration": 0.09999999999999432
                },
                {
                    "name": "G4",
                    "midi": 67,
                    "time": 66.90000000000013,
                    "velocity": 0.3543307086614173,
                    "duration": 0.09999999999999432
                },
                {
                    "name": "G4",
                    "midi": 67,
                    "time": 67.20000000000013,
                    "velocity": 0.3543307086614173,
                    "duration": 0.09999999999999432
                },
                {
                    "name": "A4",
                    "midi": 69,
                    "time": 67.80000000000013,
                    "velocity": 0.3543307086614173,
                    "duration": 0.09999999999999432
                },
                {
                    "name": "A4",
                    "midi": 69,
                    "time": 68.10000000000012,
                    "velocity": 0.3543307086614173,
                    "duration": 0.09999999999999432
                },
                {
                    "name": "B4",
                    "midi": 71,
                    "time": 68.70000000000012,
                    "velocity": 0.3543307086614173,
                    "duration": 0.5999999999999943
                },
                {
                    "name": "G4",
                    "midi": 67,
                    "time": 69.60000000000011,
                    "velocity": 0.49606299212598426,
                    "duration": 1
                },
                {
                    "name": "G4",
                    "midi": 67,
                    "time": 70.80000000000011,
                    "velocity": 0.3543307086614173,
                    "duration": 0.09999999999999432
                },
                {
                    "name": "G4",
                    "midi": 67,
                    "time": 71.4000000000001,
                    "velocity": 0.3543307086614173,
                    "duration": 0.09999999999999432
                },
                {
                    "name": "G4",
                    "midi": 67,
                    "time": 71.7000000000001,
                    "velocity": 0.3543307086614173,
                    "duration": 0.09999999999999432
                },
                {
                    "name": "F4",
                    "midi": 65,
                    "time": 72.3000000000001,
                    "velocity": 0.3543307086614173,
                    "duration": 0.09999999999999432
                },
                {
                    "name": "F4",
                    "midi": 65,
                    "time": 72.6000000000001,
                    "velocity": 0.3543307086614173,
                    "duration": 0.09999999999999432
                },
                {
                    "name": "F4",
                    "midi": 65,
                    "time": 73.20000000000009,
                    "velocity": 0.3543307086614173,
                    "duration": 0.09999999999999432
                },
                {
                    "name": "G4",
                    "midi": 67,
                    "time": 73.50000000000009,
                    "velocity": 0.3543307086614173,
                    "duration": 0.09999999999999432
                },
                {
                    "name": "D#4",
                    "midi": 63,
                    "time": 74.10000000000008,
                    "velocity": 0.3543307086614173,
                    "duration": 0.09999999999999432
                },
                {
                    "name": "F4",
                    "midi": 65,
                    "time": 75.00000000000007,
                    "velocity": 0.3543307086614173,
                    "duration": 0.09999999999999432
                },
                {
                    "name": "D#4",
                    "midi": 63,
                    "time": 75.90000000000006,
                    "velocity": 0.3543307086614173,
                    "duration": 0.5999999999999943
                },
                {
                    "name": "G4",
                    "midi": 67,
                    "time": 76.50000000000006,
                    "velocity": 0.7244094488188977,
                    "duration": 0.29999999999999716
                },
                {
                    "name": "G5",
                    "midi": 79,
                    "time": 76.80000000000005,
                    "velocity": 0.7244094488188977,
                    "duration": 0.09999999999999432
                },
                {
                    "name": "G5",
                    "midi": 79,
                    "time": 77.10000000000005,
                    "velocity": 0.7244094488188977,
                    "duration": 0.09999999999999432
                },
                {
                    "name": "F5",
                    "midi": 77,
                    "time": 77.40000000000005,
                    "velocity": 0.7244094488188977,
                    "duration": 0.09999999999999432
                },
                {
                    "name": "D#5",
                    "midi": 75,
                    "time": 77.70000000000005,
                    "velocity": 0.7244094488188977,
                    "duration": 0.09999999999999432
                },
                {
                    "name": "D#5",
                    "midi": 75,
                    "time": 78.00000000000004,
                    "velocity": 0.7244094488188977,
                    "duration": 0.09999999999999432
                },
                {
                    "name": "D5",
                    "midi": 74,
                    "time": 78.30000000000004,
                    "velocity": 0.7244094488188977,
                    "duration": 0.09999999999999432
                },
                {
                    "name": "C5",
                    "midi": 72,
                    "time": 78.60000000000004,
                    "velocity": 0.7244094488188977,
                    "duration": 0.09999999999999432
                },
                {
                    "name": "B4",
                    "midi": 71,
                    "time": 78.90000000000003,
                    "velocity": 0.7244094488188977,
                    "duration": 0.09999999999999432
                },
                {
                    "name": "C5",
                    "midi": 72,
                    "time": 79.20000000000003,
                    "velocity": 0.7244094488188977,
                    "duration": 0.09999999999999432
                },
                {
                    "name": "B4",
                    "midi": 71,
                    "time": 79.50000000000003,
                    "velocity": 0.7244094488188977,
                    "duration": 0.07500000000000284
                },
                {
                    "name": "C5",
                    "midi": 72,
                    "time": 79.57500000000003,
                    "velocity": 0.7244094488188977,
                    "duration": 0.07500000000000284
                },
                {
                    "name": "D5",
                    "midi": 74,
                    "time": 79.65000000000003,
                    "velocity": 0.7244094488188977,
                    "duration": 0.09999999999999432
                },
                {
                    "name": "G4",
                    "midi": 67,
                    "time": 79.80000000000003,
                    "velocity": 0.7244094488188977,
                    "duration": 0.09999999999999432
                },
                {
                    "name": "G4",
                    "midi": 67,
                    "time": 80.10000000000002,
                    "velocity": 0.7244094488188977,
                    "duration": 0.09999999999999432
                },
                {
                    "name": "A#4",
                    "midi": 70,
                    "time": 80.40000000000002,
                    "velocity": 0.7244094488188977,
                    "duration": 0.07500000000000284
                },
                {
                    "name": "G#4",
                    "midi": 68,
                    "time": 80.47500000000002,
                    "velocity": 0.7244094488188977,
                    "duration": 0.15000000000000568
                },
                {
                    "name": "G4",
                    "midi": 67,
                    "time": 80.70000000000003,
                    "velocity": 0.7244094488188977,
                    "duration": 0.09999999999999432
                },
                {
                    "name": "F4",
                    "midi": 65,
                    "time": 81.00000000000003,
                    "velocity": 0.7244094488188977,
                    "duration": 0.09999999999999432
                },
                {
                    "name": "D#5",
                    "midi": 75,
                    "time": 81.30000000000003,
                    "velocity": 0.7244094488188977,
                    "duration": 0.09999999999999432
                },
                {
                    "name": "D5",
                    "midi": 74,
                    "time": 81.60000000000002,
                    "velocity": 0.7244094488188977,
                    "duration": 0.09999999999999432
                },
                {
                    "name": "C5",
                    "midi": 72,
                    "time": 81.90000000000002,
                    "velocity": 0.7244094488188977,
                    "duration": 0.09999999999999432
                },
                {
                    "name": "F5",
                    "midi": 77,
                    "time": 82.20000000000002,
                    "velocity": 0.7244094488188977,
                    "duration": 0.07500000000000284
                },
                {
                    "name": "D#5",
                    "midi": 75,
                    "time": 82.27500000000002,
                    "velocity": 0.7244094488188977,
                    "duration": 0.15000000000000568
                },
                {
                    "name": "D5",
                    "midi": 74,
                    "time": 82.50000000000003,
                    "velocity": 0.7244094488188977,
                    "duration": 0.09999999999999432
                },
                {
                    "name": "C5",
                    "midi": 72,
                    "time": 82.80000000000003,
                    "velocity": 0.7244094488188977,
                    "duration": 0.09999999999999432
                },
                {
                    "name": "D5",
                    "midi": 74,
                    "time": 83.10000000000002,
                    "velocity": 0.7244094488188977,
                    "duration": 0.5999999999999943
                },
                {
                    "name": "G4",
                    "midi": 67,
                    "time": 83.70000000000002,
                    "velocity": 0.7244094488188977,
                    "duration": 0.29999999999999716
                },
                {
                    "name": "G5",
                    "midi": 79,
                    "time": 84.00000000000001,
                    "velocity": 0.7244094488188977,
                    "duration": 0.09999999999999432
                },
                {
                    "name": "G5",
                    "midi": 79,
                    "time": 84.30000000000001,
                    "velocity": 0.7244094488188977,
                    "duration": 0.09999999999999432
                },
                {
                    "name": "F5",
                    "midi": 77,
                    "time": 84.60000000000001,
                    "velocity": 0.7244094488188977,
                    "duration": 0.09999999999999432
                },
                {
                    "name": "E5",
                    "midi": 76,
                    "time": 84.9,
                    "velocity": 0.7244094488188977,
                    "duration": 0.09999999999999432
                },
                {
                    "name": "E5",
                    "midi": 76,
                    "time": 85.2,
                    "velocity": 0.7244094488188977,
                    "duration": 0.09999999999999432
                },
                {
                    "name": "D5",
                    "midi": 74,
                    "time": 85.5,
                    "velocity": 0.7244094488188977,
                    "duration": 0.09999999999999432
                },
                {
                    "name": "C5",
                    "midi": 72,
                    "time": 85.8,
                    "velocity": 0.7244094488188977,
                    "duration": 0.09999999999999432
                },
                {
                    "name": "B4",
                    "midi": 71,
                    "time": 86.1,
                    "velocity": 0.7244094488188977,
                    "duration": 0.09999999999999432
                },
                {
                    "name": "C5",
                    "midi": 72,
                    "time": 86.39999999999999,
                    "velocity": 0.7244094488188977,
                    "duration": 0.09999999999999432
                },
                {
                    "name": "B4",
                    "midi": 71,
                    "time": 86.69999999999999,
                    "velocity": 0.7244094488188977,
                    "duration": 0.07500000000000284
                },
                {
                    "name": "C5",
                    "midi": 72,
                    "time": 86.77499999999999,
                    "velocity": 0.7244094488188977,
                    "duration": 0.07500000000000284
                },
                {
                    "name": "D5",
                    "midi": 74,
                    "time": 86.85,
                    "velocity": 0.7244094488188977,
                    "duration": 0.09999999999999432
                },
                {
                    "name": "G4",
                    "midi": 67,
                    "time": 86.99999999999999,
                    "velocity": 0.7244094488188977,
                    "duration": 0.09999999999999432
                },
                {
                    "name": "G4",
                    "midi": 67,
                    "time": 87.29999999999998,
                    "velocity": 0.7244094488188977,
                    "duration": 0.09999999999999432
                },
                {
                    "name": "A#4",
                    "midi": 70,
                    "time": 87.59999999999998,
                    "velocity": 0.7244094488188977,
                    "duration": 0.07500000000000284
                },
                {
                    "name": "G#4",
                    "midi": 68,
                    "time": 87.67499999999998,
                    "velocity": 0.7244094488188977,
                    "duration": 0.15000000000000568
                },
                {
                    "name": "G4",
                    "midi": 67,
                    "time": 87.89999999999999,
                    "velocity": 0.7244094488188977,
                    "duration": 0.09999999999999432
                },
                {
                    "name": "F4",
                    "midi": 65,
                    "time": 88.19999999999999,
                    "velocity": 0.7244094488188977,
                    "duration": 0.09999999999999432
                },
                {
                    "name": "G4",
                    "midi": 67,
                    "time": 88.49999999999999,
                    "velocity": 0.7244094488188977,
                    "duration": 0.09999999999999432
                },
                {
                    "name": "C5",
                    "midi": 72,
                    "time": 88.79999999999998,
                    "velocity": 0.7244094488188977,
                    "duration": 0.09999999999999432
                },
                {
                    "name": "D#5",
                    "midi": 75,
                    "time": 88.94999999999997,
                    "velocity": 0.7244094488188977,
                    "duration": 0.09999999999999432
                },
                {
                    "name": "G5",
                    "midi": 79,
                    "time": 89.09999999999997,
                    "velocity": 0.7244094488188977,
                    "duration": 0.09999999999999432
                },
                {
                    "name": "G4",
                    "midi": 67,
                    "time": 89.39999999999996,
                    "velocity": 0.7244094488188977,
                    "duration": 0.09999999999999432
                },
                {
                    "name": "B4",
                    "midi": 71,
                    "time": 89.69999999999996,
                    "velocity": 0.7244094488188977,
                    "duration": 0.09999999999999432
                },
                {
                    "name": "D5",
                    "midi": 74,
                    "time": 89.84999999999995,
                    "velocity": 0.7244094488188977,
                    "duration": 0.09999999999999432
                },
                {
                    "name": "G5",
                    "midi": 79,
                    "time": 89.99999999999994,
                    "velocity": 0.7244094488188977,
                    "duration": 0.09999999999999432
                },
                {
                    "name": "C5",
                    "midi": 72,
                    "time": 90.29999999999994,
                    "velocity": 0.5905511811023622,
                    "duration": 0.9000000000000057
                },
                {
                    "name": "C5",
                    "midi": 72,
                    "time": 91.19999999999995,
                    "velocity": 0.3543307086614173,
                    "duration": 0.5
                },
                {
                    "name": "C4",
                    "midi": 60,
                    "time": 92.39999999999995,
                    "velocity": 0.3543307086614173,
                    "duration": 0.29999999999999716
                },
                {
                    "name": "C4",
                    "midi": 60,
                    "time": 92.69999999999995,
                    "velocity": 0.3543307086614173,
                    "duration": 0.29999999999999716
                },
                {
                    "name": "C4",
                    "midi": 60,
                    "time": 92.99999999999994,
                    "velocity": 0.3543307086614173,
                    "duration": 0.29999999999999716
                },
                {
                    "name": "C4",
                    "midi": 60,
                    "time": 93.29999999999994,
                    "velocity": 0.3543307086614173,
                    "duration": 0.29999999999999716
                },
                {
                    "name": "C4",
                    "midi": 60,
                    "time": 93.59999999999994,
                    "velocity": 0.3543307086614173,
                    "duration": 0.29999999999999716
                },
                {
                    "name": "C4",
                    "midi": 60,
                    "time": 94.19999999999993,
                    "velocity": 0.3543307086614173,
                    "duration": 0.29999999999999716
                },
                {
                    "name": "C4",
                    "midi": 60,
                    "time": 94.49999999999993,
                    "velocity": 0.3543307086614173,
                    "duration": 0.29999999999999716
                },
                {
                    "name": "C4",
                    "midi": 60,
                    "time": 94.79999999999993,
                    "velocity": 0.3543307086614173,
                    "duration": 0.29999999999999716
                },
                {
                    "name": "C4",
                    "midi": 60,
                    "time": 95.09999999999992,
                    "velocity": 0.3543307086614173,
                    "duration": 0.29999999999999716
                },
                {
                    "name": "C4",
                    "midi": 60,
                    "time": 95.39999999999992,
                    "velocity": 0.3543307086614173,
                    "duration": 0.29999999999999716
                },
                {
                    "name": "A#3",
                    "midi": 58,
                    "time": 95.99999999999991,
                    "velocity": 0.3543307086614173,
                    "duration": 0.29999999999999716
                },
                {
                    "name": "A#3",
                    "midi": 58,
                    "time": 96.29999999999991,
                    "velocity": 0.3543307086614173,
                    "duration": 0.29999999999999716
                },
                {
                    "name": "A#3",
                    "midi": 58,
                    "time": 96.59999999999991,
                    "velocity": 0.3543307086614173,
                    "duration": 0.29999999999999716
                },
                {
                    "name": "A#3",
                    "midi": 58,
                    "time": 96.8999999999999,
                    "velocity": 0.3543307086614173,
                    "duration": 0.29999999999999716
                },
                {
                    "name": "A#3",
                    "midi": 58,
                    "time": 97.1999999999999,
                    "velocity": 0.3543307086614173,
                    "duration": 0.29999999999999716
                },
                {
                    "name": "A#3",
                    "midi": 58,
                    "time": 97.7999999999999,
                    "velocity": 0.3543307086614173,
                    "duration": 0.29999999999999716
                },
                {
                    "name": "A#3",
                    "midi": 58,
                    "time": 98.0999999999999,
                    "velocity": 0.3543307086614173,
                    "duration": 0.29999999999999716
                },
                {
                    "name": "A#3",
                    "midi": 58,
                    "time": 98.39999999999989,
                    "velocity": 0.3543307086614173,
                    "duration": 0.29999999999999716
                },
                {
                    "name": "A#3",
                    "midi": 58,
                    "time": 98.69999999999989,
                    "velocity": 0.3543307086614173,
                    "duration": 0.29999999999999716
                },
                {
                    "name": "A#3",
                    "midi": 58,
                    "time": 98.99999999999989,
                    "velocity": 0.3543307086614173,
                    "duration": 0.29999999999999716
                },
                {
                    "name": "C4",
                    "midi": 60,
                    "time": 99.59999999999988,
                    "velocity": 0.3543307086614173,
                    "duration": 0.29999999999999716
                },
                {
                    "name": "C4",
                    "midi": 60,
                    "time": 99.89999999999988,
                    "velocity": 0.3543307086614173,
                    "duration": 0.29999999999999716
                },
                {
                    "name": "C4",
                    "midi": 60,
                    "time": 100.19999999999987,
                    "velocity": 0.3543307086614173,
                    "duration": 0.29999999999999716
                },
                {
                    "name": "C4",
                    "midi": 60,
                    "time": 100.49999999999987,
                    "velocity": 0.3543307086614173,
                    "duration": 0.29999999999999716
                },
                {
                    "name": "C4",
                    "midi": 60,
                    "time": 100.79999999999987,
                    "velocity": 0.3543307086614173,
                    "duration": 0.29999999999999716
                },
                {
                    "name": "A#3",
                    "midi": 58,
                    "time": 101.39999999999986,
                    "velocity": 0.3543307086614173,
                    "duration": 0.29999999999999716
                },
                {
                    "name": "A#3",
                    "midi": 58,
                    "time": 101.69999999999986,
                    "velocity": 0.3543307086614173,
                    "duration": 0.29999999999999716
                },
                {
                    "name": "A#3",
                    "midi": 58,
                    "time": 101.99999999999986,
                    "velocity": 0.3543307086614173,
                    "duration": 0.29999999999999716
                },
                {
                    "name": "A#3",
                    "midi": 58,
                    "time": 102.29999999999986,
                    "velocity": 0.3543307086614173,
                    "duration": 0.29999999999999716
                },
                {
                    "name": "A#3",
                    "midi": 58,
                    "time": 102.59999999999985,
                    "velocity": 0.3543307086614173,
                    "duration": 0.29999999999999716
                },
                {
                    "name": "A#3",
                    "midi": 58,
                    "time": 103.19999999999985,
                    "velocity": 0.3543307086614173,
                    "duration": 0.29999999999999716
                },
                {
                    "name": "A#3",
                    "midi": 58,
                    "time": 103.49999999999984,
                    "velocity": 0.3543307086614173,
                    "duration": 0.29999999999999716
                },
                {
                    "name": "A#3",
                    "midi": 58,
                    "time": 103.79999999999984,
                    "velocity": 0.3543307086614173,
                    "duration": 0.29999999999999716
                },
                {
                    "name": "A#3",
                    "midi": 58,
                    "time": 104.09999999999984,
                    "velocity": 0.3543307086614173,
                    "duration": 0.29999999999999716
                },
                {
                    "name": "A#3",
                    "midi": 58,
                    "time": 104.39999999999984,
                    "velocity": 0.3543307086614173,
                    "duration": 0.29999999999999716
                },
                {
                    "name": "C4",
                    "midi": 60,
                    "time": 104.99999999999983,
                    "velocity": 0.3543307086614173,
                    "duration": 0.29999999999999716
                },
                {
                    "name": "C4",
                    "midi": 60,
                    "time": 105.29999999999983,
                    "velocity": 0.3543307086614173,
                    "duration": 0.29999999999999716
                },
                {
                    "name": "C4",
                    "midi": 60,
                    "time": 105.59999999999982,
                    "velocity": 0.3543307086614173,
                    "duration": 0.29999999999999716
                },
                {
                    "name": "C4",
                    "midi": 60,
                    "time": 105.89999999999982,
                    "velocity": 0.3543307086614173,
                    "duration": 0.29999999999999716
                },
                {
                    "name": "C4",
                    "midi": 60,
                    "time": 106.19999999999982,
                    "velocity": 0.3543307086614173,
                    "duration": 0.29999999999999716
                },
                {
                    "name": "A#3",
                    "midi": 58,
                    "time": 106.79999999999981,
                    "velocity": 0.3543307086614173,
                    "duration": 0.29999999999999716
                },
                {
                    "name": "A#3",
                    "midi": 58,
                    "time": 107.09999999999981,
                    "velocity": 0.3543307086614173,
                    "duration": 0.29999999999999716
                },
                {
                    "name": "A#3",
                    "midi": 58,
                    "time": 107.3999999999998,
                    "velocity": 0.3543307086614173,
                    "duration": 0.29999999999999716
                },
                {
                    "name": "A#3",
                    "midi": 58,
                    "time": 107.6999999999998,
                    "velocity": 0.3543307086614173,
                    "duration": 0.29999999999999716
                },
                {
                    "name": "A3",
                    "midi": 57,
                    "time": 107.9999999999998,
                    "velocity": 0.3543307086614173,
                    "duration": 0.29999999999999716
                },
                {
                    "name": "A#3",
                    "midi": 58,
                    "time": 108.5999999999998,
                    "velocity": 0.3543307086614173,
                    "duration": 0.29999999999999716
                },
                {
                    "name": "A#3",
                    "midi": 58,
                    "time": 108.89999999999979,
                    "velocity": 0.3543307086614173,
                    "duration": 0.29999999999999716
                },
                {
                    "name": "A#3",
                    "midi": 58,
                    "time": 109.19999999999979,
                    "velocity": 0.3543307086614173,
                    "duration": 0.29999999999999716
                },
                {
                    "name": "A#3",
                    "midi": 58,
                    "time": 109.49999999999979,
                    "velocity": 0.3543307086614173,
                    "duration": 0.29999999999999716
                },
                {
                    "name": "A#3",
                    "midi": 58,
                    "time": 109.79999999999978,
                    "velocity": 0.3543307086614173,
                    "duration": 0.29999999999999716
                },
                {
                    "name": "A#3",
                    "midi": 58,
                    "time": 110.39999999999978,
                    "velocity": 0.3543307086614173,
                    "duration": 0.29999999999999716
                },
                {
                    "name": "A#3",
                    "midi": 58,
                    "time": 110.69999999999978,
                    "velocity": 0.3543307086614173,
                    "duration": 0.29999999999999716
                },
                {
                    "name": "A#3",
                    "midi": 58,
                    "time": 110.99999999999977,
                    "velocity": 0.3543307086614173,
                    "duration": 0.29999999999999716
                },
                {
                    "name": "A#3",
                    "midi": 58,
                    "time": 111.29999999999977,
                    "velocity": 0.3543307086614173,
                    "duration": 0.29999999999999716
                },
                {
                    "name": "A#3",
                    "midi": 58,
                    "time": 111.59999999999977,
                    "velocity": 0.3543307086614173,
                    "duration": 0.29999999999999716
                },
                {
                    "name": "G#3",
                    "midi": 56,
                    "time": 112.19999999999976,
                    "velocity": 0.3543307086614173,
                    "duration": 0.29999999999999716
                },
                {
                    "name": "G#3",
                    "midi": 56,
                    "time": 112.49999999999976,
                    "velocity": 0.3543307086614173,
                    "duration": 0.29999999999999716
                },
                {
                    "name": "G#3",
                    "midi": 56,
                    "time": 112.79999999999976,
                    "velocity": 0.3543307086614173,
                    "duration": 0.29999999999999716
                },
                {
                    "name": "G#3",
                    "midi": 56,
                    "time": 113.09999999999975,
                    "velocity": 0.3543307086614173,
                    "duration": 0.29999999999999716
                },
                {
                    "name": "G#3",
                    "midi": 56,
                    "time": 113.39999999999975,
                    "velocity": 0.3543307086614173,
                    "duration": 0.29999999999999716
                },
                {
                    "name": "A#3",
                    "midi": 58,
                    "time": 113.69999999999975,
                    "velocity": 0.3543307086614173,
                    "duration": 0.9000000000000057
                },
                {
                    "name": "A#3",
                    "midi": 58,
                    "time": 115.49999999999976,
                    "velocity": 0.3543307086614173,
                    "duration": 0.9000000000000057
                },
                {
                    "name": "G3",
                    "midi": 55,
                    "time": 117.29999999999977,
                    "velocity": 0.3543307086614173,
                    "duration": 0.29999999999999716
                },
                {
                    "name": "D#4",
                    "midi": 63,
                    "time": 118.19999999999976,
                    "velocity": 0.8267716535433071,
                    "duration": 1.1937499999999943
                },
                {
                    "name": "F4",
                    "midi": 65,
                    "time": 119.39999999999975,
                    "velocity": 0.5905511811023622,
                    "duration": 0.29999999999999716
                },
                {
                    "name": "C4",
                    "midi": 60,
                    "time": 119.69999999999975,
                    "velocity": 0.5905511811023622,
                    "duration": 0.29999999999999716
                },
                {
                    "name": "D#4",
                    "midi": 63,
                    "time": 119.99999999999974,
                    "velocity": 0.5905511811023622,
                    "duration": 0.29999999999999716
                },
                {
                    "name": "C#4",
                    "midi": 61,
                    "time": 120.29999999999974,
                    "velocity": 0.5905511811023622,
                    "duration": 0.29999999999999716
                },
                {
                    "name": "A#3",
                    "midi": 58,
                    "time": 120.59999999999974,
                    "velocity": 0.5905511811023622,
                    "duration": 0.29375000000000284
                },
                {
                    "name": "D#3",
                    "midi": 51,
                    "time": 120.89999999999974,
                    "velocity": 0.7244094488188977,
                    "duration": 0.9000000000000057
                },
                {
                    "name": "F3",
                    "midi": 53,
                    "time": 121.79999999999974,
                    "velocity": 0.7244094488188977,
                    "duration": 0.5999999999999943
                },
                {
                    "name": "G3",
                    "midi": 55,
                    "time": 122.39999999999974,
                    "velocity": 0.7244094488188977,
                    "duration": 0.29999999999999716
                },
                {
                    "name": "G#3",
                    "midi": 56,
                    "time": 122.69999999999973,
                    "velocity": 0.7244094488188977,
                    "duration": 0.9000000000000057
                },
                {
                    "name": "C4",
                    "midi": 60,
                    "time": 123.59999999999974,
                    "velocity": 0.7244094488188977,
                    "duration": 0.7999999999999972
                },
                {
                    "name": "C4",
                    "midi": 60,
                    "time": 124.49999999999973,
                    "velocity": 0.7244094488188977,
                    "duration": 1.7999999999999972
                },
                {
                    "name": "A#3",
                    "midi": 58,
                    "time": 126.29999999999973,
                    "velocity": 0.7244094488188977,
                    "duration": 0.7999999999999972
                },
                {
                    "name": "C#4",
                    "midi": 61,
                    "time": 127.19999999999972,
                    "velocity": 0.7244094488188977,
                    "duration": 0.5999999999999943
                },
                {
                    "name": "C4",
                    "midi": 60,
                    "time": 127.79999999999971,
                    "velocity": 0.7244094488188977,
                    "duration": 0.29999999999999716
                },
                {
                    "name": "G#3",
                    "midi": 56,
                    "time": 128.0999999999997,
                    "velocity": 0.7244094488188977,
                    "duration": 0.8000000000000114
                },
                {
                    "name": "C4",
                    "midi": 60,
                    "time": 128.99999999999972,
                    "velocity": 0.7244094488188977,
                    "duration": 0.9000000000000057
                },
                {
                    "name": "G3",
                    "midi": 55,
                    "time": 129.89999999999972,
                    "velocity": 0.7244094488188977,
                    "duration": 0.8000000000000114
                },
                {
                    "name": "C4",
                    "midi": 60,
                    "time": 130.79999999999973,
                    "velocity": 0.7244094488188977,
                    "duration": 0.9000000000000057
                },
                {
                    "name": "F3",
                    "midi": 53,
                    "time": 131.69999999999973,
                    "velocity": 0.7244094488188977,
                    "duration": 2.5999999999999943
                },
                {
                    "name": "F#3",
                    "midi": 54,
                    "time": 134.39999999999972,
                    "velocity": 0.7244094488188977,
                    "duration": 0.5999999999999943
                },
                {
                    "name": "F3",
                    "midi": 53,
                    "time": 134.99999999999972,
                    "velocity": 0.7244094488188977,
                    "duration": 0.29374999999998863
                },
                {
                    "name": "F3",
                    "midi": 53,
                    "time": 135.2999999999997,
                    "velocity": 0.7244094488188977,
                    "duration": 0.9000000000000057
                },
                {
                    "name": "G3",
                    "midi": 55,
                    "time": 136.1999999999997,
                    "velocity": 0.7244094488188977,
                    "duration": 0.5999999999999943
                },
                {
                    "name": "A3",
                    "midi": 57,
                    "time": 136.7999999999997,
                    "velocity": 0.7244094488188977,
                    "duration": 0.30000000000001137
                },
                {
                    "name": "A#3",
                    "midi": 58,
                    "time": 137.0999999999997,
                    "velocity": 0.7244094488188977,
                    "duration": 0.8000000000000114
                },
                {
                    "name": "C#4",
                    "midi": 61,
                    "time": 137.99999999999972,
                    "velocity": 0.7244094488188977,
                    "duration": 0.9000000000000057
                },
                {
                    "name": "C4",
                    "midi": 60,
                    "time": 138.89999999999972,
                    "velocity": 0.7244094488188977,
                    "duration": 0.30000000000001137
                },
                {
                    "name": "B3",
                    "midi": 59,
                    "time": 139.19999999999973,
                    "velocity": 0.7244094488188977,
                    "duration": 0.30000000000001137
                },
                {
                    "name": "C4",
                    "midi": 60,
                    "time": 139.49999999999974,
                    "velocity": 0.7244094488188977,
                    "duration": 0.30000000000001137
                },
                {
                    "name": "F4",
                    "midi": 65,
                    "time": 139.79999999999976,
                    "velocity": 0.7244094488188977,
                    "duration": 0.5999999999999943
                },
                {
                    "name": "D#4",
                    "midi": 63,
                    "time": 140.39999999999975,
                    "velocity": 0.7244094488188977,
                    "duration": 0.29374999999998863
                },
                {
                    "name": "D#4",
                    "midi": 63,
                    "time": 140.69999999999973,
                    "velocity": 0.7244094488188977,
                    "duration": 0.9000000000000057
                },
                {
                    "name": "C#4",
                    "midi": 61,
                    "time": 141.59999999999974,
                    "velocity": 0.7244094488188977,
                    "duration": 1.34375
                },
                {
                    "name": "D#3",
                    "midi": 51,
                    "time": 142.94999999999973,
                    "velocity": 0.7244094488188977,
                    "duration": 0.44999999999998863
                },
                {
                    "name": "F3",
                    "midi": 53,
                    "time": 143.39999999999972,
                    "velocity": 0.7244094488188977,
                    "duration": 0.44999999999998863
                },
                {
                    "name": "G3",
                    "midi": 55,
                    "time": 143.8499999999997,
                    "velocity": 0.7244094488188977,
                    "duration": 0.44999999999998863
                },
                {
                    "name": "G#3",
                    "midi": 56,
                    "time": 144.2999999999997,
                    "velocity": 0.7244094488188977,
                    "duration": 0.9000000000000057
                },
                {
                    "name": "C4",
                    "midi": 60,
                    "time": 145.1999999999997,
                    "velocity": 0.7244094488188977,
                    "duration": 0.9000000000000057
                },
                {
                    "name": "A#3",
                    "midi": 58,
                    "time": 146.0999999999997,
                    "velocity": 0.7244094488188977,
                    "duration": 0.30000000000001137
                },
                {
                    "name": "A3",
                    "midi": 57,
                    "time": 146.39999999999972,
                    "velocity": 0.7244094488188977,
                    "duration": 0.30000000000001137
                },
                {
                    "name": "A#3",
                    "midi": 58,
                    "time": 146.69999999999973,
                    "velocity": 0.7244094488188977,
                    "duration": 0.30000000000001137
                },
                {
                    "name": "D#4",
                    "midi": 63,
                    "time": 146.99999999999974,
                    "velocity": 0.7244094488188977,
                    "duration": 0.5999999999999943
                },
                {
                    "name": "C#4",
                    "midi": 61,
                    "time": 147.59999999999974,
                    "velocity": 0.7244094488188977,
                    "duration": 0.29374999999998863
                },
                {
                    "name": "C#4",
                    "midi": 61,
                    "time": 147.89999999999972,
                    "velocity": 0.7244094488188977,
                    "duration": 0.9000000000000057
                },
                {
                    "name": "C4",
                    "midi": 60,
                    "time": 148.79999999999973,
                    "velocity": 0.7244094488188977,
                    "duration": 1.34375
                },
                {
                    "name": "G#3",
                    "midi": 56,
                    "time": 150.14999999999972,
                    "velocity": 0.7244094488188977,
                    "duration": 0.44999999999998863
                },
                {
                    "name": "A#3",
                    "midi": 58,
                    "time": 150.5999999999997,
                    "velocity": 0.7244094488188977,
                    "duration": 0.44999999999998863
                },
                {
                    "name": "C4",
                    "midi": 60,
                    "time": 151.0499999999997,
                    "velocity": 0.7244094488188977,
                    "duration": 0.44999999999998863
                },
                {
                    "name": "C#4",
                    "midi": 61,
                    "time": 151.4999999999997,
                    "velocity": 0.7244094488188977,
                    "duration": 0.9000000000000057
                },
                {
                    "name": "G#3",
                    "midi": 56,
                    "time": 152.3999999999997,
                    "velocity": 0.7244094488188977,
                    "duration": 0.9000000000000057
                },
                {
                    "name": "D#4",
                    "midi": 63,
                    "time": 153.2999999999997,
                    "velocity": 0.7244094488188977,
                    "duration": 0.8000000000000114
                },
                {
                    "name": "G#3",
                    "midi": 56,
                    "time": 154.1999999999997,
                    "velocity": 0.7244094488188977,
                    "duration": 0.9000000000000057
                },
                {
                    "name": "F4",
                    "midi": 65,
                    "time": 155.0999999999997,
                    "velocity": 0.7244094488188977,
                    "duration": 0.44999999999998863
                },
                {
                    "name": "G4",
                    "midi": 67,
                    "time": 155.5499999999997,
                    "velocity": 0.7244094488188977,
                    "duration": 0.44999999999998863
                },
                {
                    "name": "G#4",
                    "midi": 68,
                    "time": 155.9999999999997,
                    "velocity": 0.7244094488188977,
                    "duration": 1.6999999999999886
                },
                {
                    "name": "G4",
                    "midi": 67,
                    "time": 157.79999999999967,
                    "velocity": 0.7244094488188977,
                    "duration": 0.5999999999999943
                },
                {
                    "name": "F4",
                    "midi": 65,
                    "time": 158.39999999999966,
                    "velocity": 0.7244094488188977,
                    "duration": 0.30000000000001137
                },
                {
                    "name": "D#4",
                    "midi": 63,
                    "time": 158.69999999999968,
                    "velocity": 0.7244094488188977,
                    "duration": 0.8000000000000114
                },
                {
                    "name": "D#4",
                    "midi": 63,
                    "time": 159.59999999999968,
                    "velocity": 0.7244094488188977,
                    "duration": 0.5999999999999943
                },
                {
                    "name": "C4",
                    "midi": 60,
                    "time": 160.19999999999968,
                    "velocity": 0.7244094488188977,
                    "duration": 0.30000000000001137
                },
                {
                    "name": "D#4",
                    "midi": 63,
                    "time": 160.4999999999997,
                    "velocity": 0.7244094488188977,
                    "duration": 0.9000000000000057
                },
                {
                    "name": "C#4",
                    "midi": 61,
                    "time": 161.3999999999997,
                    "velocity": 0.7244094488188977,
                    "duration": 0.9000000000000057
                },
                {
                    "name": "C4",
                    "midi": 60,
                    "time": 162.2999999999997,
                    "velocity": 0.47244094488188976,
                    "duration": 0.15000000000000568
                },
                {
                    "name": "B3",
                    "midi": 59,
                    "time": 162.4499999999997,
                    "velocity": 0.47244094488188976,
                    "duration": 0.09999999999999432
                },
                {
                    "name": "C4",
                    "midi": 60,
                    "time": 162.5999999999997,
                    "velocity": 0.47244094488188976,
                    "duration": 0.09999999999999432
                },
                {
                    "name": "D4",
                    "midi": 62,
                    "time": 162.74999999999972,
                    "velocity": 0.47244094488188976,
                    "duration": 0.09999999999999432
                },
                {
                    "name": "E4",
                    "midi": 64,
                    "time": 162.89999999999972,
                    "velocity": 0.47244094488188976,
                    "duration": 0.09999999999999432
                },
                {
                    "name": "F4",
                    "midi": 65,
                    "time": 163.04999999999973,
                    "velocity": 0.47244094488188976,
                    "duration": 0.09999999999999432
                },
                {
                    "name": "G4",
                    "midi": 67,
                    "time": 163.19999999999973,
                    "velocity": 0.47244094488188976,
                    "duration": 0.09999999999999432
                },
                {
                    "name": "G4",
                    "midi": 67,
                    "time": 163.49999999999972,
                    "velocity": 0.47244094488188976,
                    "duration": 0.09999999999999432
                },
                {
                    "name": "G4",
                    "midi": 67,
                    "time": 163.7999999999997,
                    "velocity": 0.47244094488188976,
                    "duration": 0.09999999999999432
                },
                {
                    "name": "C4",
                    "midi": 60,
                    "time": 164.09999999999968,
                    "velocity": 0.47244094488188976,
                    "duration": 0.15000000000000568
                },
                {
                    "name": "B3",
                    "midi": 59,
                    "time": 164.2499999999997,
                    "velocity": 0.47244094488188976,
                    "duration": 0.09999999999999432
                },
                {
                    "name": "C4",
                    "midi": 60,
                    "time": 164.3999999999997,
                    "velocity": 0.47244094488188976,
                    "duration": 0.09999999999999432
                },
                {
                    "name": "D4",
                    "midi": 62,
                    "time": 164.5499999999997,
                    "velocity": 0.47244094488188976,
                    "duration": 0.09999999999999432
                },
                {
                    "name": "E4",
                    "midi": 64,
                    "time": 164.6999999999997,
                    "velocity": 0.47244094488188976,
                    "duration": 0.09999999999999432
                },
                {
                    "name": "F4",
                    "midi": 65,
                    "time": 164.8499999999997,
                    "velocity": 0.47244094488188976,
                    "duration": 0.09999999999999432
                },
                {
                    "name": "G4",
                    "midi": 67,
                    "time": 164.99999999999972,
                    "velocity": 0.47244094488188976,
                    "duration": 0.09999999999999432
                },
                {
                    "name": "G4",
                    "midi": 67,
                    "time": 165.2999999999997,
                    "velocity": 0.47244094488188976,
                    "duration": 0.09999999999999432
                },
                {
                    "name": "G4",
                    "midi": 67,
                    "time": 165.59999999999968,
                    "velocity": 0.47244094488188976,
                    "duration": 0.09999999999999432
                },
                {
                    "name": "C4",
                    "midi": 60,
                    "time": 166.79999999999967,
                    "velocity": 0.47244094488188976,
                    "duration": 0.15000000000000568
                },
                {
                    "name": "B3",
                    "midi": 59,
                    "time": 166.94999999999968,
                    "velocity": 0.47244094488188976,
                    "duration": 0.09999999999999432
                },
                {
                    "name": "C4",
                    "midi": 60,
                    "time": 167.09999999999968,
                    "velocity": 0.47244094488188976,
                    "duration": 0.09999999999999432
                },
                {
                    "name": "D4",
                    "midi": 62,
                    "time": 167.2499999999997,
                    "velocity": 0.47244094488188976,
                    "duration": 0.09999999999999432
                },
                {
                    "name": "E4",
                    "midi": 64,
                    "time": 167.3999999999997,
                    "velocity": 0.47244094488188976,
                    "duration": 0.09999999999999432
                },
                {
                    "name": "F4",
                    "midi": 65,
                    "time": 167.5499999999997,
                    "velocity": 0.47244094488188976,
                    "duration": 0.09999999999999432
                },
                {
                    "name": "D5",
                    "midi": 74,
                    "time": 167.6999999999997,
                    "velocity": 0.6614173228346457,
                    "duration": 0.29374999999998863
                },
                {
                    "name": "D#4",
                    "midi": 63,
                    "time": 170.3999999999997,
                    "velocity": 0.3543307086614173,
                    "duration": 0.09999999999999432
                },
                {
                    "name": "D#4",
                    "midi": 63,
                    "time": 170.69999999999968,
                    "velocity": 0.3543307086614173,
                    "duration": 0.09999999999999432
                },
                {
                    "name": "F4",
                    "midi": 65,
                    "time": 171.29999999999967,
                    "velocity": 0.3543307086614173,
                    "duration": 0.09999999999999432
                },
                {
                    "name": "F4",
                    "midi": 65,
                    "time": 171.59999999999965,
                    "velocity": 0.3543307086614173,
                    "duration": 0.09999999999999432
                },
                {
                    "name": "D4",
                    "midi": 62,
                    "time": 172.19999999999965,
                    "velocity": 0.3543307086614173,
                    "duration": 0.09999999999999432
                },
                {
                    "name": "D4",
                    "midi": 62,
                    "time": 172.49999999999963,
                    "velocity": 0.3543307086614173,
                    "duration": 0.09999999999999432
                },
                {
                    "name": "F4",
                    "midi": 65,
                    "time": 173.09999999999962,
                    "velocity": 0.3543307086614173,
                    "duration": 0.09999999999999432
                },
                {
                    "name": "F4",
                    "midi": 65,
                    "time": 173.3999999999996,
                    "velocity": 0.3543307086614173,
                    "duration": 0.09999999999999432
                },
                {
                    "name": "D#4",
                    "midi": 63,
                    "time": 173.9999999999996,
                    "velocity": 0.3543307086614173,
                    "duration": 0.09999999999999432
                },
                {
                    "name": "D#4",
                    "midi": 63,
                    "time": 174.29999999999959,
                    "velocity": 0.3543307086614173,
                    "duration": 0.09999999999999432
                },
                {
                    "name": "F#4",
                    "midi": 66,
                    "time": 174.89999999999958,
                    "velocity": 0.3543307086614173,
                    "duration": 0.09999999999999432
                },
                {
                    "name": "F#4",
                    "midi": 66,
                    "time": 175.19999999999956,
                    "velocity": 0.3543307086614173,
                    "duration": 0.09999999999999432
                },
                {
                    "name": "G4",
                    "midi": 67,
                    "time": 175.79999999999956,
                    "velocity": 0.3543307086614173,
                    "duration": 0.5999999999999943
                },
                {
                    "name": "F4",
                    "midi": 65,
                    "time": 176.69999999999956,
                    "velocity": 0.3543307086614173,
                    "duration": 0.9000000000000057
                },
                {
                    "name": "D#4",
                    "midi": 63,
                    "time": 177.59999999999957,
                    "velocity": 0.3543307086614173,
                    "duration": 0.09999999999999432
                },
                {
                    "name": "D#4",
                    "midi": 63,
                    "time": 177.89999999999955,
                    "velocity": 0.3543307086614173,
                    "duration": 0.09999999999999432
                },
                {
                    "name": "F#4",
                    "midi": 66,
                    "time": 178.49999999999955,
                    "velocity": 0.3543307086614173,
                    "duration": 0.09999999999999432
                },
                {
                    "name": "F#4",
                    "midi": 66,
                    "time": 178.79999999999953,
                    "velocity": 0.3543307086614173,
                    "duration": 0.09999999999999432
                },
                {
                    "name": "G4",
                    "midi": 67,
                    "time": 179.39999999999952,
                    "velocity": 0.3543307086614173,
                    "duration": 0.09999999999999432
                },
                {
                    "name": "G4",
                    "midi": 67,
                    "time": 179.6999999999995,
                    "velocity": 0.3543307086614173,
                    "duration": 0.09999999999999432
                },
                {
                    "name": "F4",
                    "midi": 65,
                    "time": 180.2999999999995,
                    "velocity": 0.3543307086614173,
                    "duration": 0.09999999999999432
                },
                {
                    "name": "F4",
                    "midi": 65,
                    "time": 180.59999999999948,
                    "velocity": 0.3543307086614173,
                    "duration": 0.09999999999999432
                },
                {
                    "name": "G4",
                    "midi": 67,
                    "time": 181.19999999999948,
                    "velocity": 0.3543307086614173,
                    "duration": 0.09999999999999432
                },
                {
                    "name": "G4",
                    "midi": 67,
                    "time": 182.09999999999948,
                    "velocity": 0.3543307086614173,
                    "duration": 0.09999999999999432
                },
                {
                    "name": "G4",
                    "midi": 67,
                    "time": 182.9999999999995,
                    "velocity": 0.3543307086614173,
                    "duration": 0.5999999999999943
                },
                {
                    "name": "G4",
                    "midi": 67,
                    "time": 183.59999999999948,
                    "velocity": 0.7244094488188977,
                    "duration": 0.30000000000001137
                },
                {
                    "name": "G5",
                    "midi": 79,
                    "time": 183.8999999999995,
                    "velocity": 0.7244094488188977,
                    "duration": 0.09999999999999432
                },
                {
                    "name": "G5",
                    "midi": 79,
                    "time": 184.19999999999948,
                    "velocity": 0.7244094488188977,
                    "duration": 0.09999999999999432
                },
                {
                    "name": "F5",
                    "midi": 77,
                    "time": 184.49999999999946,
                    "velocity": 0.7244094488188977,
                    "duration": 0.09999999999999432
                },
                {
                    "name": "D#5",
                    "midi": 75,
                    "time": 184.79999999999944,
                    "velocity": 0.7244094488188977,
                    "duration": 0.09999999999999432
                },
                {
                    "name": "D#5",
                    "midi": 75,
                    "time": 185.09999999999943,
                    "velocity": 0.7244094488188977,
                    "duration": 0.09999999999999432
                },
                {
                    "name": "D5",
                    "midi": 74,
                    "time": 185.3999999999994,
                    "velocity": 0.7244094488188977,
                    "duration": 0.09999999999999432
                },
                {
                    "name": "C5",
                    "midi": 72,
                    "time": 185.6999999999994,
                    "velocity": 0.7244094488188977,
                    "duration": 0.09999999999999432
                },
                {
                    "name": "B4",
                    "midi": 71,
                    "time": 185.99999999999937,
                    "velocity": 0.7244094488188977,
                    "duration": 0.09999999999999432
                },
                {
                    "name": "C5",
                    "midi": 72,
                    "time": 186.29999999999936,
                    "velocity": 0.7244094488188977,
                    "duration": 0.09999999999999432
                },
                {
                    "name": "B4",
                    "midi": 71,
                    "time": 186.59999999999934,
                    "velocity": 0.7244094488188977,
                    "duration": 0.07499999999998863
                },
                {
                    "name": "C5",
                    "midi": 72,
                    "time": 186.67499999999933,
                    "velocity": 0.7244094488188977,
                    "duration": 0.07499999999998863
                },
                {
                    "name": "D5",
                    "midi": 74,
                    "time": 186.74999999999932,
                    "velocity": 0.7244094488188977,
                    "duration": 0.09999999999999432
                },
                {
                    "name": "G4",
                    "midi": 67,
                    "time": 186.89999999999932,
                    "velocity": 0.7244094488188977,
                    "duration": 0.09999999999999432
                },
                {
                    "name": "G4",
                    "midi": 67,
                    "time": 187.1999999999993,
                    "velocity": 0.7244094488188977,
                    "duration": 0.09999999999999432
                },
                {
                    "name": "A#4",
                    "midi": 70,
                    "time": 187.4999999999993,
                    "velocity": 0.7244094488188977,
                    "duration": 0.07499999999998863
                },
                {
                    "name": "G#4",
                    "midi": 68,
                    "time": 187.57499999999928,
                    "velocity": 0.7244094488188977,
                    "duration": 0.15000000000000568
                },
                {
                    "name": "G4",
                    "midi": 67,
                    "time": 187.79999999999927,
                    "velocity": 0.7244094488188977,
                    "duration": 0.09999999999999432
                },
                {
                    "name": "F4",
                    "midi": 65,
                    "time": 188.09999999999926,
                    "velocity": 0.7244094488188977,
                    "duration": 0.09999999999999432
                },
                {
                    "name": "D#5",
                    "midi": 75,
                    "time": 188.39999999999924,
                    "velocity": 0.7244094488188977,
                    "duration": 0.09999999999999432
                },
                {
                    "name": "D5",
                    "midi": 74,
                    "time": 188.69999999999922,
                    "velocity": 0.7244094488188977,
                    "duration": 0.09999999999999432
                },
                {
                    "name": "C5",
                    "midi": 72,
                    "time": 188.9999999999992,
                    "velocity": 0.7244094488188977,
                    "duration": 0.09999999999999432
                },
                {
                    "name": "F5",
                    "midi": 77,
                    "time": 189.2999999999992,
                    "velocity": 0.7244094488188977,
                    "duration": 0.07499999999998863
                },
                {
                    "name": "D#5",
                    "midi": 75,
                    "time": 189.37499999999918,
                    "velocity": 0.7244094488188977,
                    "duration": 0.15000000000000568
                },
                {
                    "name": "D5",
                    "midi": 74,
                    "time": 189.59999999999917,
                    "velocity": 0.7244094488188977,
                    "duration": 0.09999999999999432
                },
                {
                    "name": "C5",
                    "midi": 72,
                    "time": 189.89999999999915,
                    "velocity": 0.7244094488188977,
                    "duration": 0.09999999999999432
                },
                {
                    "name": "D5",
                    "midi": 74,
                    "time": 190.19999999999914,
                    "velocity": 0.7244094488188977,
                    "duration": 0.5999999999999943
                },
                {
                    "name": "G4",
                    "midi": 67,
                    "time": 190.79999999999913,
                    "velocity": 0.7244094488188977,
                    "duration": 0.30000000000001137
                },
                {
                    "name": "G5",
                    "midi": 79,
                    "time": 191.09999999999914,
                    "velocity": 0.7244094488188977,
                    "duration": 0.09999999999999432
                },
                {
                    "name": "G5",
                    "midi": 79,
                    "time": 191.39999999999912,
                    "velocity": 0.7244094488188977,
                    "duration": 0.09999999999999432
                },
                {
                    "name": "F5",
                    "midi": 77,
                    "time": 191.6999999999991,
                    "velocity": 0.7244094488188977,
                    "duration": 0.09999999999999432
                },
                {
                    "name": "D#5",
                    "midi": 75,
                    "time": 191.9999999999991,
                    "velocity": 0.7244094488188977,
                    "duration": 0.09999999999999432
                },
                {
                    "name": "D#5",
                    "midi": 75,
                    "time": 192.29999999999907,
                    "velocity": 0.7244094488188977,
                    "duration": 0.09999999999999432
                },
                {
                    "name": "D5",
                    "midi": 74,
                    "time": 192.59999999999906,
                    "velocity": 0.7244094488188977,
                    "duration": 0.09999999999999432
                },
                {
                    "name": "C5",
                    "midi": 72,
                    "time": 192.89999999999904,
                    "velocity": 0.7244094488188977,
                    "duration": 0.09999999999999432
                },
                {
                    "name": "B4",
                    "midi": 71,
                    "time": 193.19999999999902,
                    "velocity": 0.7244094488188977,
                    "duration": 0.09999999999999432
                },
                {
                    "name": "C5",
                    "midi": 72,
                    "time": 193.499999999999,
                    "velocity": 0.7244094488188977,
                    "duration": 0.09999999999999432
                },
                {
                    "name": "B4",
                    "midi": 71,
                    "time": 193.799999999999,
                    "velocity": 0.7244094488188977,
                    "duration": 0.07499999999998863
                },
                {
                    "name": "C5",
                    "midi": 72,
                    "time": 193.87499999999898,
                    "velocity": 0.7244094488188977,
                    "duration": 0.07499999999998863
                },
                {
                    "name": "D5",
                    "midi": 74,
                    "time": 193.94999999999897,
                    "velocity": 0.7244094488188977,
                    "duration": 0.09999999999999432
                },
                {
                    "name": "G4",
                    "midi": 67,
                    "time": 194.09999999999897,
                    "velocity": 0.7244094488188977,
                    "duration": 0.09999999999999432
                },
                {
                    "name": "G4",
                    "midi": 67,
                    "time": 194.39999999999895,
                    "velocity": 0.7244094488188977,
                    "duration": 0.09999999999999432
                },
                {
                    "name": "A#4",
                    "midi": 70,
                    "time": 194.69999999999894,
                    "velocity": 0.7244094488188977,
                    "duration": 0.07499999999998863
                },
                {
                    "name": "G#4",
                    "midi": 68,
                    "time": 194.77499999999893,
                    "velocity": 0.7244094488188977,
                    "duration": 0.15000000000000568
                },
                {
                    "name": "G4",
                    "midi": 67,
                    "time": 194.99999999999892,
                    "velocity": 0.7244094488188977,
                    "duration": 0.09999999999999432
                },
                {
                    "name": "F4",
                    "midi": 65,
                    "time": 195.2999999999989,
                    "velocity": 0.7244094488188977,
                    "duration": 0.09999999999999432
                },
                {
                    "name": "G4",
                    "midi": 67,
                    "time": 195.5999999999989,
                    "velocity": 0.7244094488188977,
                    "duration": 0.09999999999999432
                },
                {
                    "name": "C5",
                    "midi": 72,
                    "time": 195.89999999999887,
                    "velocity": 0.7244094488188977,
                    "duration": 0.09999999999999432
                },
                {
                    "name": "D#5",
                    "midi": 75,
                    "time": 196.04999999999887,
                    "velocity": 0.7244094488188977,
                    "duration": 0.09999999999999432
                },
                {
                    "name": "G5",
                    "midi": 79,
                    "time": 196.19999999999888,
                    "velocity": 0.7244094488188977,
                    "duration": 0.09999999999999432
                },
                {
                    "name": "G4",
                    "midi": 67,
                    "time": 196.49999999999886,
                    "velocity": 0.7244094488188977,
                    "duration": 0.09999999999999432
                },
                {
                    "name": "B4",
                    "midi": 71,
                    "time": 196.79999999999885,
                    "velocity": 0.7244094488188977,
                    "duration": 0.09999999999999432
                },
                {
                    "name": "D5",
                    "midi": 74,
                    "time": 196.94999999999885,
                    "velocity": 0.7244094488188977,
                    "duration": 0.09999999999999432
                },
                {
                    "name": "G5",
                    "midi": 79,
                    "time": 197.09999999999886,
                    "velocity": 0.7244094488188977,
                    "duration": 0.09999999999999432
                },
                {
                    "name": "C5",
                    "midi": 72,
                    "time": 197.39999999999884,
                    "velocity": 0.7244094488188977,
                    "duration": 0.5999999999999943
                },
                {
                    "name": "D#4",
                    "midi": 63,
                    "time": 197.99999999999883,
                    "velocity": 0.5905511811023622,
                    "duration": 0.09999999999999432
                },
                {
                    "name": "D#4",
                    "midi": 63,
                    "time": 198.29999999999882,
                    "velocity": 0.5905511811023622,
                    "duration": 0.09999999999999432
                },
                {
                    "name": "D#4",
                    "midi": 63,
                    "time": 198.5999999999988,
                    "velocity": 0.5905511811023622,
                    "duration": 0.09999999999999432
                },
                {
                    "name": "D#4",
                    "midi": 63,
                    "time": 198.89999999999878,
                    "velocity": 0.5905511811023622,
                    "duration": 0.09999999999999432
                },
                {
                    "name": "G4",
                    "midi": 67,
                    "time": 199.19999999999877,
                    "velocity": 0.3543307086614173,
                    "duration": 0.5999999999999943
                },
                {
                    "name": "F4",
                    "midi": 65,
                    "time": 200.09999999999877,
                    "velocity": 0.3543307086614173,
                    "duration": 0.5999999999999943
                },
                {
                    "name": "A#4",
                    "midi": 70,
                    "time": 200.99999999999878,
                    "velocity": 0.3543307086614173,
                    "duration": 0.5
                },
                {
                    "name": "G4",
                    "midi": 67,
                    "time": 201.59999999999877,
                    "velocity": 0.5905511811023622,
                    "duration": 0.09999999999999432
                },
                {
                    "name": "G4",
                    "midi": 67,
                    "time": 201.89999999999876,
                    "velocity": 0.5905511811023622,
                    "duration": 0.09999999999999432
                },
                {
                    "name": "G4",
                    "midi": 67,
                    "time": 202.19999999999874,
                    "velocity": 0.5905511811023622,
                    "duration": 0.09999999999999432
                },
                {
                    "name": "G4",
                    "midi": 67,
                    "time": 202.49999999999872,
                    "velocity": 0.5905511811023622,
                    "duration": 0.09999999999999432
                },
                {
                    "name": "A#4",
                    "midi": 70,
                    "time": 202.7999999999987,
                    "velocity": 0.3543307086614173,
                    "duration": 0.5999999999999943
                },
                {
                    "name": "A4",
                    "midi": 69,
                    "time": 203.6999999999987,
                    "velocity": 0.3543307086614173,
                    "duration": 0.5999999999999943
                },
                {
                    "name": "A#4",
                    "midi": 70,
                    "time": 204.59999999999872,
                    "velocity": 0.3543307086614173,
                    "duration": 0.5999999999999943
                },
                {
                    "name": "A#4",
                    "midi": 70,
                    "time": 205.1999999999987,
                    "velocity": 0.5905511811023622,
                    "duration": 0.09999999999999432
                },
                {
                    "name": "A#4",
                    "midi": 70,
                    "time": 205.4999999999987,
                    "velocity": 0.5905511811023622,
                    "duration": 0.09999999999999432
                },
                {
                    "name": "A#4",
                    "midi": 70,
                    "time": 205.79999999999868,
                    "velocity": 0.5905511811023622,
                    "duration": 0.09999999999999432
                },
                {
                    "name": "A#4",
                    "midi": 70,
                    "time": 206.09999999999866,
                    "velocity": 0.5905511811023622,
                    "duration": 0.09999999999999432
                },
                {
                    "name": "D5",
                    "midi": 74,
                    "time": 206.39999999999864,
                    "velocity": 0.3543307086614173,
                    "duration": 0.5999999999999943
                },
                {
                    "name": "C5",
                    "midi": 72,
                    "time": 207.29999999999865,
                    "velocity": 0.3543307086614173,
                    "duration": 0.5999999999999943
                },
                {
                    "name": "D5",
                    "midi": 74,
                    "time": 208.19999999999865,
                    "velocity": 0.3543307086614173,
                    "duration": 0.9000000000000057
                },
                {
                    "name": "C5",
                    "midi": 72,
                    "time": 209.09999999999866,
                    "velocity": 0.3543307086614173,
                    "duration": 0.9000000000000057
                },
                {
                    "name": "A#4",
                    "midi": 70,
                    "time": 209.99999999999866,
                    "velocity": 0.3543307086614173,
                    "duration": 0.9000000000000057
                },
                {
                    "name": "A4",
                    "midi": 69,
                    "time": 210.89999999999867,
                    "velocity": 0.3543307086614173,
                    "duration": 0.9000000000000057
                },
                {
                    "name": "F4",
                    "midi": 65,
                    "time": 211.79999999999868,
                    "velocity": 0.3543307086614173,
                    "duration": 0.8000000000000114
                },
                {
                    "name": "G4",
                    "midi": 67,
                    "time": 212.69999999999868,
                    "velocity": 0.49606299212598426,
                    "duration": 1.1937499999999943
                },
                {
                    "name": "D#4",
                    "midi": 63,
                    "time": 213.89999999999867,
                    "velocity": 0.47244094488188976,
                    "duration": 0.09999999999999432
                },
                {
                    "name": "D#4",
                    "midi": 63,
                    "time": 214.19999999999865,
                    "velocity": 0.47244094488188976,
                    "duration": 0.09999999999999432
                },
                {
                    "name": "C4",
                    "midi": 60,
                    "time": 214.79999999999865,
                    "velocity": 0.47244094488188976,
                    "duration": 0.09999999999999432
                },
                {
                    "name": "C4",
                    "midi": 60,
                    "time": 215.09999999999863,
                    "velocity": 0.47244094488188976,
                    "duration": 0.09999999999999432
                },
                {
                    "name": "C4",
                    "midi": 60,
                    "time": 215.69999999999862,
                    "velocity": 0.47244094488188976,
                    "duration": 0.09999999999999432
                },
                {
                    "name": "C4",
                    "midi": 60,
                    "time": 215.9999999999986,
                    "velocity": 0.47244094488188976,
                    "duration": 0.09999999999999432
                },
                {
                    "name": "D4",
                    "midi": 62,
                    "time": 216.2999999999986,
                    "velocity": 0.6614173228346457,
                    "duration": 1.1937499999999943
                },
                {
                    "name": "D4",
                    "midi": 62,
                    "time": 217.49999999999858,
                    "velocity": 0.47244094488188976,
                    "duration": 0.09999999999999432
                },
                {
                    "name": "D4",
                    "midi": 62,
                    "time": 217.79999999999856,
                    "velocity": 0.47244094488188976,
                    "duration": 0.09999999999999432
                },
                {
                    "name": "D#4",
                    "midi": 63,
                    "time": 218.39999999999856,
                    "velocity": 0.47244094488188976,
                    "duration": 0.09999999999999432
                },
                {
                    "name": "D4",
                    "midi": 62,
                    "time": 218.69999999999854,
                    "velocity": 0.47244094488188976,
                    "duration": 0.09999999999999432
                },
                {
                    "name": "D#4",
                    "midi": 63,
                    "time": 218.99999999999852,
                    "velocity": 0.47244094488188976,
                    "duration": 0.5999999999999943
                },
                {
                    "name": "G3",
                    "midi": 55,
                    "time": 219.89999999999853,
                    "velocity": 0.7244094488188977,
                    "duration": 0.15000000000000568
                },
                {
                    "name": "F#3",
                    "midi": 54,
                    "time": 220.04999999999853,
                    "velocity": 0.7244094488188977,
                    "duration": 0.09999999999999432
                },
                {
                    "name": "G3",
                    "midi": 55,
                    "time": 220.19999999999854,
                    "velocity": 0.7244094488188977,
                    "duration": 0.09999999999999432
                },
                {
                    "name": "A3",
                    "midi": 57,
                    "time": 220.34999999999854,
                    "velocity": 0.7244094488188977,
                    "duration": 0.09999999999999432
                },
                {
                    "name": "A#3",
                    "midi": 58,
                    "time": 220.49999999999855,
                    "velocity": 0.7244094488188977,
                    "duration": 0.09999999999999432
                },
                {
                    "name": "B3",
                    "midi": 59,
                    "time": 220.64999999999856,
                    "velocity": 0.7244094488188977,
                    "duration": 0.09999999999999432
                },
                {
                    "name": "C4",
                    "midi": 60,
                    "time": 220.79999999999856,
                    "velocity": 0.7244094488188977,
                    "duration": 0.09999999999999432
                },
                {
                    "name": "C4",
                    "midi": 60,
                    "time": 221.09999999999854,
                    "velocity": 0.7244094488188977,
                    "duration": 0.09999999999999432
                },
                {
                    "name": "D#5",
                    "midi": 75,
                    "time": 221.69999999999854,
                    "velocity": 0.3543307086614173,
                    "duration": 0.09999999999999432
                },
                {
                    "name": "D#5",
                    "midi": 75,
                    "time": 221.99999999999852,
                    "velocity": 0.3543307086614173,
                    "duration": 0.09999999999999432
                },
                {
                    "name": "D5",
                    "midi": 74,
                    "time": 222.59999999999852,
                    "velocity": 0.3543307086614173,
                    "duration": 0.09999999999999432
                },
                {
                    "name": "D5",
                    "midi": 74,
                    "time": 222.8999999999985,
                    "velocity": 0.3543307086614173,
                    "duration": 0.09999999999999432
                },
                {
                    "name": "D4",
                    "midi": 62,
                    "time": 223.4999999999985,
                    "velocity": 0.3543307086614173,
                    "duration": 0.09999999999999432
                },
                {
                    "name": "D4",
                    "midi": 62,
                    "time": 223.79999999999848,
                    "velocity": 0.3543307086614173,
                    "duration": 0.09999999999999432
                },
                {
                    "name": "D#4",
                    "midi": 63,
                    "time": 224.39999999999847,
                    "velocity": 0.3543307086614173,
                    "duration": 0.09999999999999432
                },
                {
                    "name": "D#4",
                    "midi": 63,
                    "time": 224.69999999999845,
                    "velocity": 0.3543307086614173,
                    "duration": 0.09999999999999432
                },
                {
                    "name": "C5",
                    "midi": 72,
                    "time": 225.29999999999845,
                    "velocity": 0.3543307086614173,
                    "duration": 0.09999999999999432
                },
                {
                    "name": "G#4",
                    "midi": 68,
                    "time": 225.59999999999843,
                    "velocity": 0.3543307086614173,
                    "duration": 0.09999999999999432
                },
                {
                    "name": "G4",
                    "midi": 67,
                    "time": 226.19999999999843,
                    "velocity": 0.3543307086614173,
                    "duration": 0.5999999999999943
                },
                {
                    "name": "G4",
                    "midi": 67,
                    "time": 227.9999999999984,
                    "velocity": 0.3543307086614173,
                    "duration": 0.09999999999999432
                },
                {
                    "name": "G4",
                    "midi": 67,
                    "time": 228.2999999999984,
                    "velocity": 0.3543307086614173,
                    "duration": 0.09999999999999432
                },
                {
                    "name": "G4",
                    "midi": 67,
                    "time": 228.59999999999837,
                    "velocity": 0.3543307086614173,
                    "duration": 0.09999999999999432
                },
                {
                    "name": "G3",
                    "midi": 55,
                    "time": 228.89999999999836,
                    "velocity": 0.3543307086614173,
                    "duration": 0.09999999999999432
                },
                {
                    "name": "G3",
                    "midi": 55,
                    "time": 229.19999999999834,
                    "velocity": 0.3543307086614173,
                    "duration": 0.09999999999999432
                },
                {
                    "name": "G3",
                    "midi": 55,
                    "time": 229.49999999999832,
                    "velocity": 0.3543307086614173,
                    "duration": 0.09999999999999432
                },
                {
                    "name": "G3",
                    "midi": 55,
                    "time": 229.7999999999983,
                    "velocity": 0.3543307086614173,
                    "duration": 0.09999999999999432
                },
                {
                    "name": "G3",
                    "midi": 55,
                    "time": 230.0999999999983,
                    "velocity": 0.3543307086614173,
                    "duration": 0.09999999999999432
                },
                {
                    "name": "G3",
                    "midi": 55,
                    "time": 230.39999999999827,
                    "velocity": 0.3543307086614173,
                    "duration": 0.09999999999999432
                },
                {
                    "name": "G4",
                    "midi": 67,
                    "time": 232.49999999999827,
                    "velocity": 0.3543307086614173,
                    "duration": 0.09999999999999432
                },
                {
                    "name": "G4",
                    "midi": 67,
                    "time": 232.79999999999825,
                    "velocity": 0.3543307086614173,
                    "duration": 0.09999999999999432
                },
                {
                    "name": "G#4",
                    "midi": 68,
                    "time": 233.39999999999824,
                    "velocity": 0.3543307086614173,
                    "duration": 0.09999999999999432
                },
                {
                    "name": "G#4",
                    "midi": 68,
                    "time": 233.69999999999823,
                    "velocity": 0.3543307086614173,
                    "duration": 0.09999999999999432
                },
                {
                    "name": "G4",
                    "midi": 67,
                    "time": 234.29999999999822,
                    "velocity": 0.3543307086614173,
                    "duration": 0.09999999999999432
                },
                {
                    "name": "G4",
                    "midi": 67,
                    "time": 234.5999999999982,
                    "velocity": 0.3543307086614173,
                    "duration": 0.09999999999999432
                },
                {
                    "name": "F4",
                    "midi": 65,
                    "time": 235.1999999999982,
                    "velocity": 0.3543307086614173,
                    "duration": 0.09999999999999432
                },
                {
                    "name": "F4",
                    "midi": 65,
                    "time": 235.49999999999818,
                    "velocity": 0.3543307086614173,
                    "duration": 0.09999999999999432
                },
                {
                    "name": "G4",
                    "midi": 67,
                    "time": 236.09999999999818,
                    "velocity": 0.3543307086614173,
                    "duration": 0.09999999999999432
                },
                {
                    "name": "G4",
                    "midi": 67,
                    "time": 236.39999999999816,
                    "velocity": 0.3543307086614173,
                    "duration": 0.09999999999999432
                },
                {
                    "name": "A4",
                    "midi": 69,
                    "time": 236.99999999999815,
                    "velocity": 0.3543307086614173,
                    "duration": 0.09999999999999432
                },
                {
                    "name": "A4",
                    "midi": 69,
                    "time": 237.29999999999814,
                    "velocity": 0.3543307086614173,
                    "duration": 0.09999999999999432
                },
                {
                    "name": "B4",
                    "midi": 71,
                    "time": 237.89999999999813,
                    "velocity": 0.3543307086614173,
                    "duration": 0.5999999999999943
                },
                {
                    "name": "G4",
                    "midi": 67,
                    "time": 238.79999999999814,
                    "velocity": 0.49606299212598426,
                    "duration": 1
                },
                {
                    "name": "G4",
                    "midi": 67,
                    "time": 239.99999999999812,
                    "velocity": 0.3543307086614173,
                    "duration": 0.09999999999999432
                },
                {
                    "name": "G4",
                    "midi": 67,
                    "time": 240.59999999999812,
                    "velocity": 0.3543307086614173,
                    "duration": 0.09999999999999432
                },
                {
                    "name": "G4",
                    "midi": 67,
                    "time": 240.8999999999981,
                    "velocity": 0.3543307086614173,
                    "duration": 0.09999999999999432
                },
                {
                    "name": "F4",
                    "midi": 65,
                    "time": 241.4999999999981,
                    "velocity": 0.3543307086614173,
                    "duration": 0.09999999999999432
                },
                {
                    "name": "F4",
                    "midi": 65,
                    "time": 241.79999999999808,
                    "velocity": 0.3543307086614173,
                    "duration": 0.09999999999999432
                },
                {
                    "name": "F4",
                    "midi": 65,
                    "time": 242.39999999999807,
                    "velocity": 0.3543307086614173,
                    "duration": 0.09999999999999432
                },
                {
                    "name": "G4",
                    "midi": 67,
                    "time": 242.69999999999806,
                    "velocity": 0.3543307086614173,
                    "duration": 0.09999999999999432
                },
                {
                    "name": "D#4",
                    "midi": 63,
                    "time": 243.29999999999805,
                    "velocity": 0.3543307086614173,
                    "duration": 0.09999999999999432
                },
                {
                    "name": "F4",
                    "midi": 65,
                    "time": 244.19999999999806,
                    "velocity": 0.3543307086614173,
                    "duration": 0.09999999999999432
                },
                {
                    "name": "D#4",
                    "midi": 63,
                    "time": 245.09999999999806,
                    "velocity": 0.3543307086614173,
                    "duration": 0.5999999999999943
                },
                {
                    "name": "G4",
                    "midi": 67,
                    "time": 245.69999999999806,
                    "velocity": 0.7244094488188977,
                    "duration": 0.30000000000001137
                },
                {
                    "name": "G5",
                    "midi": 79,
                    "time": 245.99999999999807,
                    "velocity": 0.7244094488188977,
                    "duration": 0.09999999999999432
                },
                {
                    "name": "G5",
                    "midi": 79,
                    "time": 246.29999999999805,
                    "velocity": 0.7244094488188977,
                    "duration": 0.09999999999999432
                },
                {
                    "name": "F5",
                    "midi": 77,
                    "time": 246.59999999999803,
                    "velocity": 0.7244094488188977,
                    "duration": 0.09999999999999432
                },
                {
                    "name": "D#5",
                    "midi": 75,
                    "time": 246.89999999999802,
                    "velocity": 0.7244094488188977,
                    "duration": 0.09999999999999432
                },
                {
                    "name": "D#5",
                    "midi": 75,
                    "time": 247.199999999998,
                    "velocity": 0.7244094488188977,
                    "duration": 0.09999999999999432
                },
                {
                    "name": "D5",
                    "midi": 74,
                    "time": 247.49999999999798,
                    "velocity": 0.7244094488188977,
                    "duration": 0.09999999999999432
                },
                {
                    "name": "C5",
                    "midi": 72,
                    "time": 247.79999999999797,
                    "velocity": 0.7244094488188977,
                    "duration": 0.09999999999999432
                },
                {
                    "name": "B4",
                    "midi": 71,
                    "time": 248.09999999999795,
                    "velocity": 0.7244094488188977,
                    "duration": 0.09999999999999432
                },
                {
                    "name": "C5",
                    "midi": 72,
                    "time": 248.39999999999793,
                    "velocity": 0.7244094488188977,
                    "duration": 0.09999999999999432
                },
                {
                    "name": "B4",
                    "midi": 71,
                    "time": 248.6999999999979,
                    "velocity": 0.7244094488188977,
                    "duration": 0.07499999999998863
                },
                {
                    "name": "C5",
                    "midi": 72,
                    "time": 248.7749999999979,
                    "velocity": 0.7244094488188977,
                    "duration": 0.07499999999998863
                },
                {
                    "name": "D5",
                    "midi": 74,
                    "time": 248.8499999999979,
                    "velocity": 0.7244094488188977,
                    "duration": 0.09999999999999432
                },
                {
                    "name": "G4",
                    "midi": 67,
                    "time": 248.9999999999979,
                    "velocity": 0.7244094488188977,
                    "duration": 0.09999999999999432
                },
                {
                    "name": "G4",
                    "midi": 67,
                    "time": 249.29999999999788,
                    "velocity": 0.7244094488188977,
                    "duration": 0.09999999999999432
                },
                {
                    "name": "A#4",
                    "midi": 70,
                    "time": 249.59999999999786,
                    "velocity": 0.7244094488188977,
                    "duration": 0.07499999999998863
                },
                {
                    "name": "G#4",
                    "midi": 68,
                    "time": 249.67499999999785,
                    "velocity": 0.7244094488188977,
                    "duration": 0.15000000000000568
                },
                {
                    "name": "G4",
                    "midi": 67,
                    "time": 249.89999999999785,
                    "velocity": 0.7244094488188977,
                    "duration": 0.09999999999999432
                },
                {
                    "name": "F4",
                    "midi": 65,
                    "time": 250.19999999999783,
                    "velocity": 0.7244094488188977,
                    "duration": 0.09999999999999432
                },
                {
                    "name": "D#5",
                    "midi": 75,
                    "time": 250.4999999999978,
                    "velocity": 0.7244094488188977,
                    "duration": 0.09999999999999432
                },
                {
                    "name": "D5",
                    "midi": 74,
                    "time": 250.7999999999978,
                    "velocity": 0.7244094488188977,
                    "duration": 0.09999999999999432
                },
                {
                    "name": "C5",
                    "midi": 72,
                    "time": 251.09999999999778,
                    "velocity": 0.7244094488188977,
                    "duration": 0.09999999999999432
                },
                {
                    "name": "F5",
                    "midi": 77,
                    "time": 251.39999999999776,
                    "velocity": 0.7244094488188977,
                    "duration": 0.07499999999998863
                },
                {
                    "name": "D#5",
                    "midi": 75,
                    "time": 251.47499999999775,
                    "velocity": 0.7244094488188977,
                    "duration": 0.15000000000000568
                },
                {
                    "name": "D5",
                    "midi": 74,
                    "time": 251.69999999999774,
                    "velocity": 0.7244094488188977,
                    "duration": 0.09999999999999432
                },
                {
                    "name": "C5",
                    "midi": 72,
                    "time": 251.99999999999773,
                    "velocity": 0.7244094488188977,
                    "duration": 0.09999999999999432
                },
                {
                    "name": "D5",
                    "midi": 74,
                    "time": 252.2999999999977,
                    "velocity": 0.7244094488188977,
                    "duration": 0.5999999999999943
                },
                {
                    "name": "G4",
                    "midi": 67,
                    "time": 252.8999999999977,
                    "velocity": 0.7244094488188977,
                    "duration": 0.30000000000001137
                },
                {
                    "name": "G5",
                    "midi": 79,
                    "time": 253.19999999999771,
                    "velocity": 0.7244094488188977,
                    "duration": 0.09999999999999432
                },
                {
                    "name": "G5",
                    "midi": 79,
                    "time": 253.4999999999977,
                    "velocity": 0.7244094488188977,
                    "duration": 0.09999999999999432
                },
                {
                    "name": "F5",
                    "midi": 77,
                    "time": 253.79999999999768,
                    "velocity": 0.7244094488188977,
                    "duration": 0.09999999999999432
                },
                {
                    "name": "E5",
                    "midi": 76,
                    "time": 254.09999999999766,
                    "velocity": 0.7244094488188977,
                    "duration": 0.09999999999999432
                },
                {
                    "name": "E5",
                    "midi": 76,
                    "time": 254.39999999999765,
                    "velocity": 0.7244094488188977,
                    "duration": 0.09999999999999432
                },
                {
                    "name": "D5",
                    "midi": 74,
                    "time": 254.69999999999763,
                    "velocity": 0.7244094488188977,
                    "duration": 0.09999999999999432
                },
                {
                    "name": "C5",
                    "midi": 72,
                    "time": 254.9999999999976,
                    "velocity": 0.7244094488188977,
                    "duration": 0.09999999999999432
                },
                {
                    "name": "B4",
                    "midi": 71,
                    "time": 255.2999999999976,
                    "velocity": 0.7244094488188977,
                    "duration": 0.09999999999999432
                },
                {
                    "name": "C5",
                    "midi": 72,
                    "time": 255.59999999999758,
                    "velocity": 0.7244094488188977,
                    "duration": 0.09999999999999432
                },
                {
                    "name": "B4",
                    "midi": 71,
                    "time": 255.89999999999756,
                    "velocity": 0.7244094488188977,
                    "duration": 0.07499999999998863
                },
                {
                    "name": "C5",
                    "midi": 72,
                    "time": 255.97499999999755,
                    "velocity": 0.7244094488188977,
                    "duration": 0.07500000000001705
                },
                {
                    "name": "D5",
                    "midi": 74,
                    "time": 256.04999999999757,
                    "velocity": 0.7244094488188977,
                    "duration": 0.10000000000002274
                },
                {
                    "name": "G4",
                    "midi": 67,
                    "time": 256.1999999999976,
                    "velocity": 0.7244094488188977,
                    "duration": 0.10000000000002274
                },
                {
                    "name": "G4",
                    "midi": 67,
                    "time": 256.4999999999976,
                    "velocity": 0.7244094488188977,
                    "duration": 0.10000000000002274
                },
                {
                    "name": "A#4",
                    "midi": 70,
                    "time": 256.7999999999976,
                    "velocity": 0.7244094488188977,
                    "duration": 0.07499999999998863
                },
                {
                    "name": "G#4",
                    "midi": 68,
                    "time": 256.8749999999976,
                    "velocity": 0.7244094488188977,
                    "duration": 0.14999999999997726
                },
                {
                    "name": "G4",
                    "midi": 67,
                    "time": 257.0999999999976,
                    "velocity": 0.7244094488188977,
                    "duration": 0.10000000000002274
                },
                {
                    "name": "F4",
                    "midi": 65,
                    "time": 257.3999999999976,
                    "velocity": 0.7244094488188977,
                    "duration": 0.10000000000002274
                },
                {
                    "name": "G4",
                    "midi": 67,
                    "time": 257.6999999999976,
                    "velocity": 0.7244094488188977,
                    "duration": 0.10000000000002274
                },
                {
                    "name": "C5",
                    "midi": 72,
                    "time": 257.9999999999976,
                    "velocity": 0.7244094488188977,
                    "duration": 0.10000000000002274
                },
                {
                    "name": "D#5",
                    "midi": 75,
                    "time": 258.14999999999765,
                    "velocity": 0.7244094488188977,
                    "duration": 0.10000000000002274
                },
                {
                    "name": "G5",
                    "midi": 79,
                    "time": 258.2999999999977,
                    "velocity": 0.7244094488188977,
                    "duration": 0.10000000000002274
                },
                {
                    "name": "G4",
                    "midi": 67,
                    "time": 258.5999999999977,
                    "velocity": 0.7244094488188977,
                    "duration": 0.10000000000002274
                },
                {
                    "name": "B4",
                    "midi": 71,
                    "time": 258.8999999999977,
                    "velocity": 0.7244094488188977,
                    "duration": 0.10000000000002274
                },
                {
                    "name": "D5",
                    "midi": 74,
                    "time": 259.04999999999774,
                    "velocity": 0.7244094488188977,
                    "duration": 0.10000000000002274
                },
                {
                    "name": "G5",
                    "midi": 79,
                    "time": 259.1999999999978,
                    "velocity": 0.7244094488188977,
                    "duration": 0.10000000000002274
                },
                {
                    "name": "C5",
                    "midi": 72,
                    "time": 259.4999999999978,
                    "velocity": 0.7244094488188977,
                    "duration": 0.6000000000000227
                },
                {
                    "name": "C4",
                    "midi": 60,
                    "time": 260.0999999999978,
                    "velocity": 0.7244094488188977,
                    "duration": 0.10000000000002274
                },
                {
                    "name": "C4",
                    "midi": 60,
                    "time": 260.24999999999784,
                    "velocity": 0.7244094488188977,
                    "duration": 0.10000000000002274
                },
                {
                    "name": "C4",
                    "midi": 60,
                    "time": 260.3999999999979,
                    "velocity": 0.7244094488188977,
                    "duration": 0.14999999999997726
                },
                {
                    "name": "D#4",
                    "midi": 63,
                    "time": 260.54999999999785,
                    "velocity": 0.7244094488188977,
                    "duration": 0.14375000000001137
                },
                {
                    "name": "D4",
                    "midi": 62,
                    "time": 260.6999999999979,
                    "velocity": 0.7244094488188977,
                    "duration": 0.14999999999997726
                },
                {
                    "name": "F4",
                    "midi": 65,
                    "time": 260.84999999999786,
                    "velocity": 0.7244094488188977,
                    "duration": 0.14375000000001137
                },
                {
                    "name": "D#4",
                    "midi": 63,
                    "time": 260.9999999999979,
                    "velocity": 0.7244094488188977,
                    "duration": 0.14999999999997726
                },
                {
                    "name": "G4",
                    "midi": 67,
                    "time": 261.1499999999979,
                    "velocity": 0.7244094488188977,
                    "duration": 0.14375000000001137
                },
                {
                    "name": "F4",
                    "midi": 65,
                    "time": 261.2999999999979,
                    "velocity": 0.7244094488188977,
                    "duration": 0.14999999999997726
                },
                {
                    "name": "G#4",
                    "midi": 68,
                    "time": 261.4499999999979,
                    "velocity": 0.7244094488188977,
                    "duration": 0.14375000000001137
                },
                {
                    "name": "G4",
                    "midi": 67,
                    "time": 261.5999999999979,
                    "velocity": 0.7244094488188977,
                    "duration": 0.14999999999997726
                },
                {
                    "name": "A#4",
                    "midi": 70,
                    "time": 261.7499999999979,
                    "velocity": 0.7244094488188977,
                    "duration": 0.14375000000001137
                },
                {
                    "name": "G#4",
                    "midi": 68,
                    "time": 261.89999999999793,
                    "velocity": 0.7244094488188977,
                    "duration": 0.14999999999997726
                },
                {
                    "name": "C5",
                    "midi": 72,
                    "time": 262.0499999999979,
                    "velocity": 0.7244094488188977,
                    "duration": 0.14375000000001137
                },
                {
                    "name": "A#3",
                    "midi": 58,
                    "time": 262.19999999999794,
                    "velocity": 0.7244094488188977,
                    "duration": 0.14999999999997726
                },
                {
                    "name": "D4",
                    "midi": 62,
                    "time": 262.3499999999979,
                    "velocity": 0.7244094488188977,
                    "duration": 0.14375000000001137
                },
                {
                    "name": "C4",
                    "midi": 60,
                    "time": 262.49999999999795,
                    "velocity": 0.7244094488188977,
                    "duration": 0.14999999999997726
                },
                {
                    "name": "D#4",
                    "midi": 63,
                    "time": 262.64999999999793,
                    "velocity": 0.7244094488188977,
                    "duration": 0.14375000000001137
                },
                {
                    "name": "D4",
                    "midi": 62,
                    "time": 262.79999999999797,
                    "velocity": 0.7244094488188977,
                    "duration": 0.14999999999997726
                },
                {
                    "name": "F4",
                    "midi": 65,
                    "time": 262.94999999999794,
                    "velocity": 0.7244094488188977,
                    "duration": 0.14375000000001137
                },
                {
                    "name": "D#4",
                    "midi": 63,
                    "time": 263.099999999998,
                    "velocity": 0.7244094488188977,
                    "duration": 0.14999999999997726
                },
                {
                    "name": "G4",
                    "midi": 67,
                    "time": 263.24999999999795,
                    "velocity": 0.7244094488188977,
                    "duration": 0.14375000000001137
                },
                {
                    "name": "F4",
                    "midi": 65,
                    "time": 263.399999999998,
                    "velocity": 0.7244094488188977,
                    "duration": 0.14999999999997726
                },
                {
                    "name": "G#4",
                    "midi": 68,
                    "time": 263.54999999999797,
                    "velocity": 0.7244094488188977,
                    "duration": 0.14375000000001137
                },
                {
                    "name": "G4",
                    "midi": 67,
                    "time": 263.699999999998,
                    "velocity": 0.7244094488188977,
                    "duration": 0.14999999999997726
                },
                {
                    "name": "A#4",
                    "midi": 70,
                    "time": 263.849999999998,
                    "velocity": 0.7244094488188977,
                    "duration": 0.14375000000001137
                },
                {
                    "name": "A#4",
                    "midi": 70,
                    "time": 263.999999999998,
                    "velocity": 1,
                    "duration": 0.14999999999997726
                },
                {
                    "name": "G#4",
                    "midi": 68,
                    "time": 264.149999999998,
                    "velocity": 0.7244094488188977,
                    "duration": 0.10000000000002274
                },
                {
                    "name": "G4",
                    "midi": 67,
                    "time": 264.299999999998,
                    "velocity": 0.7244094488188977,
                    "duration": 0.10000000000002274
                },
                {
                    "name": "F4",
                    "midi": 65,
                    "time": 264.44999999999806,
                    "velocity": 0.7244094488188977,
                    "duration": 0.10000000000002274
                },
                {
                    "name": "D#4",
                    "midi": 63,
                    "time": 264.5999999999981,
                    "velocity": 0.7244094488188977,
                    "duration": 0.10000000000002274
                },
                {
                    "name": "D4",
                    "midi": 62,
                    "time": 264.7499999999981,
                    "velocity": 0.7244094488188977,
                    "duration": 0.10000000000002274
                },
                {
                    "name": "G#4",
                    "midi": 68,
                    "time": 264.89999999999816,
                    "velocity": 1,
                    "duration": 0.14999999999997726
                },
                {
                    "name": "G4",
                    "midi": 67,
                    "time": 265.04999999999814,
                    "velocity": 0.7244094488188977,
                    "duration": 0.10000000000002274
                },
                {
                    "name": "F4",
                    "midi": 65,
                    "time": 265.19999999999817,
                    "velocity": 0.7244094488188977,
                    "duration": 0.10000000000002274
                },
                {
                    "name": "D#4",
                    "midi": 63,
                    "time": 265.3499999999982,
                    "velocity": 0.7244094488188977,
                    "duration": 0.10000000000002274
                },
                {
                    "name": "D4",
                    "midi": 62,
                    "time": 265.49999999999824,
                    "velocity": 0.7244094488188977,
                    "duration": 0.10000000000002274
                },
                {
                    "name": "C4",
                    "midi": 60,
                    "time": 265.6499999999983,
                    "velocity": 0.7244094488188977,
                    "duration": 0.10000000000002274
                },
                {
                    "name": "G4",
                    "midi": 67,
                    "time": 265.7999999999983,
                    "velocity": 1,
                    "duration": 0.14999999999997726
                },
                {
                    "name": "F4",
                    "midi": 65,
                    "time": 265.9499999999983,
                    "velocity": 0.7244094488188977,
                    "duration": 0.10000000000002274
                },
                {
                    "name": "D#4",
                    "midi": 63,
                    "time": 266.0999999999983,
                    "velocity": 0.7244094488188977,
                    "duration": 0.10000000000002274
                },
                {
                    "name": "D4",
                    "midi": 62,
                    "time": 266.24999999999835,
                    "velocity": 0.7244094488188977,
                    "duration": 0.10000000000002274
                },
                {
                    "name": "C4",
                    "midi": 60,
                    "time": 266.3999999999984,
                    "velocity": 0.7244094488188977,
                    "duration": 0.10000000000002274
                },
                {
                    "name": "B3",
                    "midi": 59,
                    "time": 266.5499999999984,
                    "velocity": 0.7244094488188977,
                    "duration": 0.10000000000002274
                },
                {
                    "name": "C4",
                    "midi": 60,
                    "time": 266.69999999999845,
                    "velocity": 0.7244094488188977,
                    "duration": 0.6000000000000227
                },
                {
                    "name": "C4",
                    "midi": 60,
                    "time": 267.2999999999985,
                    "velocity": 0.7244094488188977,
                    "duration": 0.10000000000002274
                },
                {
                    "name": "C4",
                    "midi": 60,
                    "time": 267.4499999999985,
                    "velocity": 0.7244094488188977,
                    "duration": 0.10000000000002274
                },
                {
                    "name": "C4",
                    "midi": 60,
                    "time": 267.59999999999854,
                    "velocity": 0.7244094488188977,
                    "duration": 0.14999999999997726
                },
                {
                    "name": "D#4",
                    "midi": 63,
                    "time": 267.7499999999985,
                    "velocity": 0.7244094488188977,
                    "duration": 0.14375000000001137
                },
                {
                    "name": "D4",
                    "midi": 62,
                    "time": 267.89999999999856,
                    "velocity": 0.7244094488188977,
                    "duration": 0.14999999999997726
                },
                {
                    "name": "F4",
                    "midi": 65,
                    "time": 268.04999999999853,
                    "velocity": 0.7244094488188977,
                    "duration": 0.14375000000001137
                },
                {
                    "name": "D#4",
                    "midi": 63,
                    "time": 268.19999999999857,
                    "velocity": 0.7244094488188977,
                    "duration": 0.14999999999997726
                },
                {
                    "name": "G4",
                    "midi": 67,
                    "time": 268.34999999999854,
                    "velocity": 0.7244094488188977,
                    "duration": 0.14375000000001137
                },
                {
                    "name": "F4",
                    "midi": 65,
                    "time": 268.4999999999986,
                    "velocity": 0.7244094488188977,
                    "duration": 0.14999999999997726
                },
                {
                    "name": "G#4",
                    "midi": 68,
                    "time": 268.64999999999856,
                    "velocity": 0.7244094488188977,
                    "duration": 0.14375000000001137
                },
                {
                    "name": "G4",
                    "midi": 67,
                    "time": 268.7999999999986,
                    "velocity": 0.7244094488188977,
                    "duration": 0.14999999999997726
                },
                {
                    "name": "A#4",
                    "midi": 70,
                    "time": 268.94999999999857,
                    "velocity": 0.7244094488188977,
                    "duration": 0.14375000000001137
                },
                {
                    "name": "G#4",
                    "midi": 68,
                    "time": 269.0999999999986,
                    "velocity": 0.7244094488188977,
                    "duration": 0.14999999999997726
                },
                {
                    "name": "C5",
                    "midi": 72,
                    "time": 269.2499999999986,
                    "velocity": 0.7244094488188977,
                    "duration": 0.14375000000001137
                },
                {
                    "name": "A#3",
                    "midi": 58,
                    "time": 269.3999999999986,
                    "velocity": 0.7244094488188977,
                    "duration": 0.14999999999997726
                },
                {
                    "name": "D4",
                    "midi": 62,
                    "time": 269.5499999999986,
                    "velocity": 0.7244094488188977,
                    "duration": 0.14375000000001137
                },
                {
                    "name": "C4",
                    "midi": 60,
                    "time": 269.6999999999986,
                    "velocity": 0.7244094488188977,
                    "duration": 0.14999999999997726
                },
                {
                    "name": "D#4",
                    "midi": 63,
                    "time": 269.8499999999986,
                    "velocity": 0.7244094488188977,
                    "duration": 0.14375000000001137
                },
                {
                    "name": "D4",
                    "midi": 62,
                    "time": 269.99999999999864,
                    "velocity": 0.7244094488188977,
                    "duration": 0.14999999999997726
                },
                {
                    "name": "F4",
                    "midi": 65,
                    "time": 270.1499999999986,
                    "velocity": 0.7244094488188977,
                    "duration": 0.14375000000001137
                },
                {
                    "name": "D#4",
                    "midi": 63,
                    "time": 270.29999999999865,
                    "velocity": 0.7244094488188977,
                    "duration": 0.14999999999997726
                },
                {
                    "name": "G4",
                    "midi": 67,
                    "time": 270.4499999999986,
                    "velocity": 0.7244094488188977,
                    "duration": 0.14375000000001137
                },
                {
                    "name": "F4",
                    "midi": 65,
                    "time": 270.59999999999866,
                    "velocity": 0.7244094488188977,
                    "duration": 0.14999999999997726
                },
                {
                    "name": "G#4",
                    "midi": 68,
                    "time": 270.74999999999864,
                    "velocity": 0.7244094488188977,
                    "duration": 0.14375000000001137
                },
                {
                    "name": "G4",
                    "midi": 67,
                    "time": 270.89999999999867,
                    "velocity": 0.7244094488188977,
                    "duration": 0.14999999999997726
                },
                {
                    "name": "A#4",
                    "midi": 70,
                    "time": 271.04999999999865,
                    "velocity": 0.7244094488188977,
                    "duration": 0.14375000000001137
                },
                {
                    "name": "A#4",
                    "midi": 70,
                    "time": 271.1999999999987,
                    "velocity": 1,
                    "duration": 0.14999999999997726
                },
                {
                    "name": "G#4",
                    "midi": 68,
                    "time": 271.34999999999866,
                    "velocity": 0.7244094488188977,
                    "duration": 0.10000000000002274
                },
                {
                    "name": "G4",
                    "midi": 67,
                    "time": 271.4999999999987,
                    "velocity": 0.7244094488188977,
                    "duration": 0.10000000000002274
                },
                {
                    "name": "F4",
                    "midi": 65,
                    "time": 271.6499999999987,
                    "velocity": 0.7244094488188977,
                    "duration": 0.10000000000002274
                },
                {
                    "name": "D#4",
                    "midi": 63,
                    "time": 271.79999999999876,
                    "velocity": 0.7244094488188977,
                    "duration": 0.10000000000002274
                },
                {
                    "name": "D4",
                    "midi": 62,
                    "time": 271.9499999999988,
                    "velocity": 0.7244094488188977,
                    "duration": 0.10000000000002274
                },
                {
                    "name": "G#4",
                    "midi": 68,
                    "time": 272.09999999999883,
                    "velocity": 1,
                    "duration": 0.14999999999997726
                },
                {
                    "name": "G4",
                    "midi": 67,
                    "time": 272.2499999999988,
                    "velocity": 0.7244094488188977,
                    "duration": 0.10000000000002274
                },
                {
                    "name": "F4",
                    "midi": 65,
                    "time": 272.39999999999884,
                    "velocity": 0.7244094488188977,
                    "duration": 0.10000000000002274
                },
                {
                    "name": "D#4",
                    "midi": 63,
                    "time": 272.5499999999989,
                    "velocity": 0.7244094488188977,
                    "duration": 0.10000000000002274
                },
                {
                    "name": "D4",
                    "midi": 62,
                    "time": 272.6999999999989,
                    "velocity": 0.7244094488188977,
                    "duration": 0.10000000000002274
                },
                {
                    "name": "C4",
                    "midi": 60,
                    "time": 272.84999999999894,
                    "velocity": 0.7244094488188977,
                    "duration": 0.10000000000002274
                },
                {
                    "name": "G4",
                    "midi": 67,
                    "time": 272.999999999999,
                    "velocity": 1,
                    "duration": 0.14999999999997726
                },
                {
                    "name": "F4",
                    "midi": 65,
                    "time": 273.14999999999895,
                    "velocity": 0.7244094488188977,
                    "duration": 0.10000000000002274
                },
                {
                    "name": "D#4",
                    "midi": 63,
                    "time": 273.299999999999,
                    "velocity": 0.7244094488188977,
                    "duration": 0.10000000000002274
                },
                {
                    "name": "D4",
                    "midi": 62,
                    "time": 273.449999999999,
                    "velocity": 0.7244094488188977,
                    "duration": 0.10000000000002274
                },
                {
                    "name": "C4",
                    "midi": 60,
                    "time": 273.59999999999906,
                    "velocity": 0.7244094488188977,
                    "duration": 0.10000000000002274
                },
                {
                    "name": "B3",
                    "midi": 59,
                    "time": 273.7499999999991,
                    "velocity": 0.7244094488188977,
                    "duration": 0.10000000000002274
                },
                {
                    "name": "C4",
                    "midi": 60,
                    "time": 273.8999999999991,
                    "velocity": 0.7244094488188977,
                    "duration": 0.6000000000000227
                },
                {
                    "name": "E4",
                    "midi": 64,
                    "time": 274.49999999999915,
                    "velocity": 0.47244094488188976,
                    "duration": 0.29374999999998863
                },
                {
                    "name": "F4",
                    "midi": 65,
                    "time": 274.79999999999916,
                    "velocity": 0.47244094488188976,
                    "duration": 0.30000000000001137
                },
                {
                    "name": "D4",
                    "midi": 62,
                    "time": 275.09999999999917,
                    "velocity": 0.47244094488188976,
                    "duration": 0.30000000000001137
                },
                {
                    "name": "F4",
                    "midi": 65,
                    "time": 275.3999999999992,
                    "velocity": 0.47244094488188976,
                    "duration": 0.29374999999998863
                },
                {
                    "name": "E4",
                    "midi": 64,
                    "time": 275.6999999999992,
                    "velocity": 0.47244094488188976,
                    "duration": 0.30000000000001137
                },
                {
                    "name": "C4",
                    "midi": 60,
                    "time": 275.9999999999992,
                    "velocity": 0.47244094488188976,
                    "duration": 0.30000000000001137
                },
                {
                    "name": "E4",
                    "midi": 64,
                    "time": 276.2999999999992,
                    "velocity": 0.47244094488188976,
                    "duration": 0.29374999999998863
                },
                {
                    "name": "F4",
                    "midi": 65,
                    "time": 276.5999999999992,
                    "velocity": 0.47244094488188976,
                    "duration": 0.30000000000001137
                },
                {
                    "name": "D4",
                    "midi": 62,
                    "time": 276.89999999999924,
                    "velocity": 0.47244094488188976,
                    "duration": 0.30000000000001137
                },
                {
                    "name": "F4",
                    "midi": 65,
                    "time": 277.19999999999925,
                    "velocity": 0.47244094488188976,
                    "duration": 0.29374999999998863
                },
                {
                    "name": "C4",
                    "midi": 60,
                    "time": 277.49999999999926,
                    "velocity": 0.47244094488188976,
                    "duration": 0.5
                },
                {
                    "name": "D#4",
                    "midi": 63,
                    "time": 278.0999999999993,
                    "velocity": 0.7244094488188977,
                    "duration": 0.29374999999998863
                },
                {
                    "name": "F4",
                    "midi": 65,
                    "time": 278.3999999999993,
                    "velocity": 0.7244094488188977,
                    "duration": 0.30000000000001137
                },
                {
                    "name": "D4",
                    "midi": 62,
                    "time": 278.6999999999993,
                    "velocity": 0.7244094488188977,
                    "duration": 0.30000000000001137
                },
                {
                    "name": "F4",
                    "midi": 65,
                    "time": 278.9999999999993,
                    "velocity": 0.7244094488188977,
                    "duration": 0.29374999999998863
                },
                {
                    "name": "D#4",
                    "midi": 63,
                    "time": 279.29999999999933,
                    "velocity": 0.7244094488188977,
                    "duration": 0.5
                },
                {
                    "name": "G4",
                    "midi": 67,
                    "time": 279.89999999999935,
                    "velocity": 0.8503937007874016,
                    "duration": 0.10000000000002274
                },
                {
                    "name": "G4",
                    "midi": 67,
                    "time": 280.0499999999994,
                    "velocity": 0.8503937007874016,
                    "duration": 0.10000000000002274
                },
                {
                    "name": "G#4",
                    "midi": 68,
                    "time": 280.1999999999994,
                    "velocity": 0.8503937007874016,
                    "duration": 0.14999999999997726
                },
                {
                    "name": "G4",
                    "midi": 67,
                    "time": 280.3499999999994,
                    "velocity": 0.8503937007874016,
                    "duration": 0.14375000000001137
                },
                {
                    "name": "A4",
                    "midi": 69,
                    "time": 280.49999999999943,
                    "velocity": 0.8503937007874016,
                    "duration": 0.14999999999997726
                },
                {
                    "name": "G4",
                    "midi": 67,
                    "time": 280.6499999999994,
                    "velocity": 0.8503937007874016,
                    "duration": 0.14375000000001137
                },
                {
                    "name": "B4",
                    "midi": 71,
                    "time": 280.79999999999944,
                    "velocity": 0.8503937007874016,
                    "duration": 0.14999999999997726
                },
                {
                    "name": "G4",
                    "midi": 67,
                    "time": 280.9499999999994,
                    "velocity": 0.8503937007874016,
                    "duration": 0.14375000000001137
                },
                {
                    "name": "C5",
                    "midi": 72,
                    "time": 281.09999999999945,
                    "velocity": 0.8503937007874016,
                    "duration": 0.14999999999997726
                },
                {
                    "name": "D#5",
                    "midi": 75,
                    "time": 281.24999999999943,
                    "velocity": 0.8503937007874016,
                    "duration": 0.10000000000002274
                },
                {
                    "name": "D5",
                    "midi": 74,
                    "time": 281.39999999999947,
                    "velocity": 0.8503937007874016,
                    "duration": 0.10000000000002274
                },
                {
                    "name": "C5",
                    "midi": 72,
                    "time": 281.5499999999995,
                    "velocity": 0.8503937007874016,
                    "duration": 0.10000000000002274
                },
                {
                    "name": "B4",
                    "midi": 71,
                    "time": 281.69999999999953,
                    "velocity": 0.8503937007874016,
                    "duration": 0.10000000000002274
                },
                {
                    "name": "A4",
                    "midi": 69,
                    "time": 281.84999999999957,
                    "velocity": 0.8503937007874016,
                    "duration": 0.10000000000002274
                },
                {
                    "name": "G4",
                    "midi": 67,
                    "time": 281.9999999999996,
                    "velocity": 0.8503937007874016,
                    "duration": 0.14999999999997726
                },
                {
                    "name": "G#4",
                    "midi": 68,
                    "time": 282.1499999999996,
                    "velocity": 0.8503937007874016,
                    "duration": 0.10000000000002274
                },
                {
                    "name": "A4",
                    "midi": 69,
                    "time": 282.2999999999996,
                    "velocity": 0.8503937007874016,
                    "duration": 0.10000000000002274
                },
                {
                    "name": "A#4",
                    "midi": 70,
                    "time": 282.44999999999965,
                    "velocity": 0.8503937007874016,
                    "duration": 0.10000000000002274
                },
                {
                    "name": "B4",
                    "midi": 71,
                    "time": 282.5999999999997,
                    "velocity": 0.8503937007874016,
                    "duration": 0.10000000000002274
                },
                {
                    "name": "C5",
                    "midi": 72,
                    "time": 282.8999999999997,
                    "velocity": 0.8503937007874016,
                    "duration": 0.14999999999997726
                },
                {
                    "name": "D#5",
                    "midi": 75,
                    "time": 283.04999999999967,
                    "velocity": 0.8503937007874016,
                    "duration": 0.14375000000001137
                },
                {
                    "name": "G4",
                    "midi": 67,
                    "time": 283.1999999999997,
                    "velocity": 0.8503937007874016,
                    "duration": 0.14999999999997726
                },
                {
                    "name": "C5",
                    "midi": 72,
                    "time": 283.3499999999997,
                    "velocity": 0.8503937007874016,
                    "duration": 0.14375000000001137
                },
                {
                    "name": "D#4",
                    "midi": 63,
                    "time": 283.4999999999997,
                    "velocity": 0.8503937007874016,
                    "duration": 0.14999999999997726
                },
                {
                    "name": "G4",
                    "midi": 67,
                    "time": 283.6499999999997,
                    "velocity": 0.8503937007874016,
                    "duration": 0.14375000000001137
                },
                {
                    "name": "C4",
                    "midi": 60,
                    "time": 283.7999999999997,
                    "velocity": 0.8503937007874016,
                    "duration": 0.14999999999997726
                },
                {
                    "name": "D#4",
                    "midi": 63,
                    "time": 283.9499999999997,
                    "velocity": 0.8503937007874016,
                    "duration": 0.14375000000001137
                },
                {
                    "name": "G3",
                    "midi": 55,
                    "time": 284.09999999999974,
                    "velocity": 0.8503937007874016,
                    "duration": 0.14999999999997726
                },
                {
                    "name": "C4",
                    "midi": 60,
                    "time": 284.2499999999997,
                    "velocity": 0.8503937007874016,
                    "duration": 0.14375000000001137
                },
                {
                    "name": "D#3",
                    "midi": 51,
                    "time": 284.39999999999975,
                    "velocity": 0.8503937007874016,
                    "duration": 0.14999999999997726
                },
                {
                    "name": "G3",
                    "midi": 55,
                    "time": 284.5499999999997,
                    "velocity": 0.8503937007874016,
                    "duration": 0.14375000000001137
                },
                {
                    "name": "C4",
                    "midi": 60,
                    "time": 284.69999999999976,
                    "velocity": 0.8503937007874016,
                    "duration": 0.6000000000000227
                },
                {
                    "name": "C5",
                    "midi": 72,
                    "time": 285.5999999999998,
                    "velocity": 0.8503937007874016,
                    "duration": 0.6000000000000227
                },
                {
                    "name": "G4",
                    "midi": 67,
                    "time": 286.3499999999998,
                    "velocity": 0.8503937007874016,
                    "duration": 0.10000000000002274
                },
                {
                    "name": "G4",
                    "midi": 67,
                    "time": 286.49999999999983,
                    "velocity": 0.8503937007874016,
                    "duration": 0.8999999999999773
                }
            ],
            "controlChanges": {
                "7": [
                    {
                        "number": 7,
                        "time": 0,
                        "value": 0.7637795275590551
                    }
                ],
                "10": [
                    {
                        "number": 10,
                        "time": 0,
                        "value": 0.3937007874015748
                    }
                ],
                "91": [
                    {
                        "number": 91,
                        "time": 0,
                        "value": 0.2992125984251969
                    }
                ]
            },
            "id": 8,
            "name": "and still damned good",
            "instrumentNumber": 71,
            "instrument": "clarinet",
            "instrumentFamily": "reed",
            "channelNumber": 3,
            "isPercussion": false
        },
        {
            "startTime": 1.2,
            "duration": 287.40000000000055,
            "length": 567,
            "notes": [
                {
                    "name": "C3",
                    "midi": 48,
                    "time": 1.2,
                    "velocity": 0.3543307086614173,
                    "duration": 0.10000000000000009
                },
                {
                    "name": "C3",
                    "midi": 48,
                    "time": 1.5,
                    "velocity": 0.3543307086614173,
                    "duration": 0.10000000000000009
                },
                {
                    "name": "D3",
                    "midi": 50,
                    "time": 2.1,
                    "velocity": 0.3543307086614173,
                    "duration": 0.10000000000000009
                },
                {
                    "name": "D3",
                    "midi": 50,
                    "time": 2.4000000000000004,
                    "velocity": 0.3543307086614173,
                    "duration": 0.10000000000000009
                },
                {
                    "name": "G3",
                    "midi": 55,
                    "time": 3.0000000000000004,
                    "velocity": 0.3543307086614173,
                    "duration": 0.10000000000000009
                },
                {
                    "name": "G3",
                    "midi": 55,
                    "time": 3.3000000000000007,
                    "velocity": 0.3543307086614173,
                    "duration": 0.10000000000000009
                },
                {
                    "name": "G2",
                    "midi": 43,
                    "time": 3.900000000000001,
                    "velocity": 0.3543307086614173,
                    "duration": 0.10000000000000009
                },
                {
                    "name": "G2",
                    "midi": 43,
                    "time": 4.200000000000001,
                    "velocity": 0.3543307086614173,
                    "duration": 0.09999999999999964
                },
                {
                    "name": "C3",
                    "midi": 48,
                    "time": 4.800000000000001,
                    "velocity": 0.3543307086614173,
                    "duration": 0.09999999999999964
                },
                {
                    "name": "C3",
                    "midi": 48,
                    "time": 5.1000000000000005,
                    "velocity": 0.3543307086614173,
                    "duration": 0.09999999999999964
                },
                {
                    "name": "F#3",
                    "midi": 54,
                    "time": 5.7,
                    "velocity": 0.3543307086614173,
                    "duration": 0.09999999999999964
                },
                {
                    "name": "F#3",
                    "midi": 54,
                    "time": 6,
                    "velocity": 0.3543307086614173,
                    "duration": 0.09999999999999964
                },
                {
                    "name": "G3",
                    "midi": 55,
                    "time": 6.6,
                    "velocity": 0.3543307086614173,
                    "duration": 0.5999999999999996
                },
                {
                    "name": "G2",
                    "midi": 43,
                    "time": 7.499999999999999,
                    "velocity": 0.3543307086614173,
                    "duration": 0.8999999999999995
                },
                {
                    "name": "C3",
                    "midi": 48,
                    "time": 8.399999999999999,
                    "velocity": 0.3543307086614173,
                    "duration": 0.09999999999999964
                },
                {
                    "name": "C3",
                    "midi": 48,
                    "time": 8.699999999999998,
                    "velocity": 0.3543307086614173,
                    "duration": 0.09999999999999964
                },
                {
                    "name": "D3",
                    "midi": 50,
                    "time": 9.299999999999997,
                    "velocity": 0.3543307086614173,
                    "duration": 0.09999999999999964
                },
                {
                    "name": "D3",
                    "midi": 50,
                    "time": 9.599999999999996,
                    "velocity": 0.3543307086614173,
                    "duration": 0.09999999999999964
                },
                {
                    "name": "G3",
                    "midi": 55,
                    "time": 10.199999999999996,
                    "velocity": 0.3543307086614173,
                    "duration": 0.09999999999999964
                },
                {
                    "name": "G3",
                    "midi": 55,
                    "time": 10.499999999999995,
                    "velocity": 0.3543307086614173,
                    "duration": 0.09999999999999964
                },
                {
                    "name": "G2",
                    "midi": 43,
                    "time": 11.099999999999994,
                    "velocity": 0.3543307086614173,
                    "duration": 0.09999999999999964
                },
                {
                    "name": "G2",
                    "midi": 43,
                    "time": 11.399999999999993,
                    "velocity": 0.3543307086614173,
                    "duration": 0.09999999999999964
                },
                {
                    "name": "C3",
                    "midi": 48,
                    "time": 11.999999999999993,
                    "velocity": 0.3543307086614173,
                    "duration": 0.09999999999999964
                },
                {
                    "name": "G2",
                    "midi": 43,
                    "time": 12.899999999999993,
                    "velocity": 0.3543307086614173,
                    "duration": 0.09999999999999964
                },
                {
                    "name": "C3",
                    "midi": 48,
                    "time": 13.799999999999994,
                    "velocity": 0.3543307086614173,
                    "duration": 0.5999999999999996
                },
                {
                    "name": "C4",
                    "midi": 60,
                    "time": 15.899999999999993,
                    "velocity": 0.7244094488188977,
                    "duration": 0.29999999999999893
                },
                {
                    "name": "D4",
                    "midi": 62,
                    "time": 16.199999999999992,
                    "velocity": 0.7244094488188977,
                    "duration": 0.3000000000000007
                },
                {
                    "name": "D#4",
                    "midi": 63,
                    "time": 16.499999999999993,
                    "velocity": 0.7244094488188977,
                    "duration": 0.3000000000000007
                },
                {
                    "name": "F4",
                    "midi": 65,
                    "time": 16.799999999999994,
                    "velocity": 0.7244094488188977,
                    "duration": 0.3000000000000007
                },
                {
                    "name": "F#4",
                    "midi": 66,
                    "time": 17.099999999999994,
                    "velocity": 0.7244094488188977,
                    "duration": 0.3000000000000007
                },
                {
                    "name": "G4",
                    "midi": 67,
                    "time": 17.399999999999995,
                    "velocity": 0.7244094488188977,
                    "duration": 0.8999999999999986
                },
                {
                    "name": "F4",
                    "midi": 65,
                    "time": 18.299999999999994,
                    "velocity": 0.7244094488188977,
                    "duration": 0.8000000000000007
                },
                {
                    "name": "D#4",
                    "midi": 63,
                    "time": 19.199999999999996,
                    "velocity": 0.7244094488188977,
                    "duration": 0.6000000000000014
                },
                {
                    "name": "D4",
                    "midi": 62,
                    "time": 19.799999999999997,
                    "velocity": 0.7244094488188977,
                    "duration": 0.3000000000000007
                },
                {
                    "name": "C4",
                    "midi": 60,
                    "time": 20.099999999999998,
                    "velocity": 0.7244094488188977,
                    "duration": 0.3000000000000007
                },
                {
                    "name": "B3",
                    "midi": 59,
                    "time": 20.4,
                    "velocity": 0.7244094488188977,
                    "duration": 0.3000000000000007
                },
                {
                    "name": "C4",
                    "midi": 60,
                    "time": 20.7,
                    "velocity": 0.7244094488188977,
                    "duration": 0.3000000000000007
                },
                {
                    "name": "D4",
                    "midi": 62,
                    "time": 21,
                    "velocity": 0.7244094488188977,
                    "duration": 0.5
                },
                {
                    "name": "G3",
                    "midi": 55,
                    "time": 21.9,
                    "velocity": 0.7244094488188977,
                    "duration": 1.1937500000000014
                },
                {
                    "name": "C4",
                    "midi": 60,
                    "time": 23.1,
                    "velocity": 0.7244094488188977,
                    "duration": 0.3000000000000007
                },
                {
                    "name": "D4",
                    "midi": 62,
                    "time": 23.400000000000002,
                    "velocity": 0.7244094488188977,
                    "duration": 0.3000000000000007
                },
                {
                    "name": "C4",
                    "midi": 60,
                    "time": 23.700000000000003,
                    "velocity": 0.7244094488188977,
                    "duration": 0.3000000000000007
                },
                {
                    "name": "D4",
                    "midi": 62,
                    "time": 24.000000000000004,
                    "velocity": 0.7244094488188977,
                    "duration": 0.3000000000000007
                },
                {
                    "name": "F#4",
                    "midi": 66,
                    "time": 24.300000000000004,
                    "velocity": 0.7244094488188977,
                    "duration": 0.3000000000000007
                },
                {
                    "name": "G4",
                    "midi": 67,
                    "time": 24.600000000000005,
                    "velocity": 0.7244094488188977,
                    "duration": 0.8000000000000007
                },
                {
                    "name": "F4",
                    "midi": 65,
                    "time": 25.500000000000007,
                    "velocity": 0.7244094488188977,
                    "duration": 0.3000000000000007
                },
                {
                    "name": "D#4",
                    "midi": 63,
                    "time": 25.800000000000008,
                    "velocity": 0.7244094488188977,
                    "duration": 0.3000000000000007
                },
                {
                    "name": "D4",
                    "midi": 62,
                    "time": 26.10000000000001,
                    "velocity": 0.7244094488188977,
                    "duration": 0.3000000000000007
                },
                {
                    "name": "C4",
                    "midi": 60,
                    "time": 26.40000000000001,
                    "velocity": 0.7244094488188977,
                    "duration": 0.2937499999999993
                },
                {
                    "name": "G2",
                    "midi": 43,
                    "time": 27.300000000000008,
                    "velocity": 0.7244094488188977,
                    "duration": 0.2937499999999993
                },
                {
                    "name": "C2",
                    "midi": 36,
                    "time": 28.200000000000006,
                    "velocity": 0.7244094488188977,
                    "duration": 0.6000000000000014
                },
                {
                    "name": "D#3",
                    "midi": 51,
                    "time": 30.000000000000007,
                    "velocity": 0.3543307086614173,
                    "duration": 0.6000000000000014
                },
                {
                    "name": "A#2",
                    "midi": 46,
                    "time": 30.90000000000001,
                    "velocity": 0.3543307086614173,
                    "duration": 0.6000000000000014
                },
                {
                    "name": "D#3",
                    "midi": 51,
                    "time": 31.80000000000001,
                    "velocity": 0.3543307086614173,
                    "duration": 0.6000000000000014
                },
                {
                    "name": "G2",
                    "midi": 43,
                    "time": 33.600000000000016,
                    "velocity": 0.3543307086614173,
                    "duration": 0.6000000000000014
                },
                {
                    "name": "D2",
                    "midi": 38,
                    "time": 34.500000000000014,
                    "velocity": 0.3543307086614173,
                    "duration": 0.6000000000000014
                },
                {
                    "name": "G2",
                    "midi": 43,
                    "time": 35.40000000000001,
                    "velocity": 0.3543307086614173,
                    "duration": 0.6000000000000014
                },
                {
                    "name": "F3",
                    "midi": 53,
                    "time": 37.20000000000002,
                    "velocity": 0.3543307086614173,
                    "duration": 0.6000000000000014
                },
                {
                    "name": "F3",
                    "midi": 53,
                    "time": 38.100000000000016,
                    "velocity": 0.3543307086614173,
                    "duration": 0.6000000000000014
                },
                {
                    "name": "F3",
                    "midi": 53,
                    "time": 39.000000000000014,
                    "velocity": 0.3543307086614173,
                    "duration": 0.8999999999999986
                },
                {
                    "name": "F3",
                    "midi": 53,
                    "time": 39.90000000000001,
                    "velocity": 0.3543307086614173,
                    "duration": 0.8999999999999986
                },
                {
                    "name": "F3",
                    "midi": 53,
                    "time": 40.80000000000001,
                    "velocity": 0.3543307086614173,
                    "duration": 0.8999999999999986
                },
                {
                    "name": "F3",
                    "midi": 53,
                    "time": 41.70000000000001,
                    "velocity": 0.3543307086614173,
                    "duration": 0.8999999999999986
                },
                {
                    "name": "F3",
                    "midi": 53,
                    "time": 42.60000000000001,
                    "velocity": 0.3543307086614173,
                    "duration": 0.8999999999999986
                },
                {
                    "name": "D#3",
                    "midi": 51,
                    "time": 43.50000000000001,
                    "velocity": 0.49606299212598426,
                    "duration": 1.1937500000000014
                },
                {
                    "name": "G#2",
                    "midi": 44,
                    "time": 44.70000000000001,
                    "velocity": 0.5905511811023622,
                    "duration": 0.29999999999999716
                },
                {
                    "name": "A#2",
                    "midi": 46,
                    "time": 45.00000000000001,
                    "velocity": 0.5905511811023622,
                    "duration": 0.29999999999999716
                },
                {
                    "name": "C3",
                    "midi": 48,
                    "time": 45.300000000000004,
                    "velocity": 0.5905511811023622,
                    "duration": 0.29999999999999716
                },
                {
                    "name": "D3",
                    "midi": 50,
                    "time": 45.6,
                    "velocity": 0.5905511811023622,
                    "duration": 0.29999999999999716
                },
                {
                    "name": "D#3",
                    "midi": 51,
                    "time": 45.9,
                    "velocity": 0.5905511811023622,
                    "duration": 0.29999999999999716
                },
                {
                    "name": "F3",
                    "midi": 53,
                    "time": 46.199999999999996,
                    "velocity": 0.5905511811023622,
                    "duration": 0.29375000000000284
                },
                {
                    "name": "C3",
                    "midi": 48,
                    "time": 46.5,
                    "velocity": 0.47244094488188976,
                    "duration": 0.10000000000000142
                },
                {
                    "name": "F2",
                    "midi": 41,
                    "time": 46.800000000000004,
                    "velocity": 0.47244094488188976,
                    "duration": 0.10000000000000142
                },
                {
                    "name": "A#2",
                    "midi": 46,
                    "time": 47.10000000000001,
                    "velocity": 0.6614173228346457,
                    "duration": 1.1937500000000014
                },
                {
                    "name": "A#2",
                    "midi": 46,
                    "time": 48.30000000000001,
                    "velocity": 0.7244094488188977,
                    "duration": 0.29999999999999716
                },
                {
                    "name": "C3",
                    "midi": 48,
                    "time": 48.60000000000001,
                    "velocity": 0.7244094488188977,
                    "duration": 0.29999999999999716
                },
                {
                    "name": "D3",
                    "midi": 50,
                    "time": 48.900000000000006,
                    "velocity": 0.7244094488188977,
                    "duration": 0.29999999999999716
                },
                {
                    "name": "D#3",
                    "midi": 51,
                    "time": 49.2,
                    "velocity": 0.7244094488188977,
                    "duration": 0.29999999999999716
                },
                {
                    "name": "F3",
                    "midi": 53,
                    "time": 49.5,
                    "velocity": 0.7244094488188977,
                    "duration": 0.29999999999999716
                },
                {
                    "name": "G3",
                    "midi": 55,
                    "time": 49.8,
                    "velocity": 0.7244094488188977,
                    "duration": 0.10000000000000142
                },
                {
                    "name": "D3",
                    "midi": 50,
                    "time": 50.1,
                    "velocity": 0.7244094488188977,
                    "duration": 0.10000000000000142
                },
                {
                    "name": "G2",
                    "midi": 43,
                    "time": 50.400000000000006,
                    "velocity": 0.7244094488188977,
                    "duration": 0.10000000000000142
                },
                {
                    "name": "G3",
                    "midi": 55,
                    "time": 50.70000000000001,
                    "velocity": 0.7244094488188977,
                    "duration": 0.14999999999999858
                },
                {
                    "name": "F#3",
                    "midi": 54,
                    "time": 50.85000000000001,
                    "velocity": 0.7244094488188977,
                    "duration": 0.10000000000000142
                },
                {
                    "name": "G3",
                    "midi": 55,
                    "time": 51.00000000000001,
                    "velocity": 0.7244094488188977,
                    "duration": 0.10000000000000142
                },
                {
                    "name": "A3",
                    "midi": 57,
                    "time": 51.150000000000006,
                    "velocity": 0.7244094488188977,
                    "duration": 0.10000000000000142
                },
                {
                    "name": "A#3",
                    "midi": 58,
                    "time": 51.300000000000004,
                    "velocity": 0.7244094488188977,
                    "duration": 0.10000000000000142
                },
                {
                    "name": "B3",
                    "midi": 59,
                    "time": 51.45,
                    "velocity": 0.7244094488188977,
                    "duration": 0.10000000000000142
                },
                {
                    "name": "C4",
                    "midi": 60,
                    "time": 51.6,
                    "velocity": 0.7244094488188977,
                    "duration": 0.10000000000000142
                },
                {
                    "name": "C4",
                    "midi": 60,
                    "time": 51.900000000000006,
                    "velocity": 0.7244094488188977,
                    "duration": 0.10000000000000142
                },
                {
                    "name": "G#3",
                    "midi": 56,
                    "time": 52.50000000000001,
                    "velocity": 0.3543307086614173,
                    "duration": 0.10000000000000142
                },
                {
                    "name": "G#3",
                    "midi": 56,
                    "time": 52.80000000000001,
                    "velocity": 0.3543307086614173,
                    "duration": 0.10000000000000142
                },
                {
                    "name": "G3",
                    "midi": 55,
                    "time": 53.40000000000001,
                    "velocity": 0.3543307086614173,
                    "duration": 0.10000000000000142
                },
                {
                    "name": "G3",
                    "midi": 55,
                    "time": 53.70000000000002,
                    "velocity": 0.3543307086614173,
                    "duration": 0.10000000000000142
                },
                {
                    "name": "G2",
                    "midi": 43,
                    "time": 54.30000000000002,
                    "velocity": 0.7244094488188977,
                    "duration": 0.14999999999999858
                },
                {
                    "name": "F#2",
                    "midi": 42,
                    "time": 54.45000000000002,
                    "velocity": 0.7244094488188977,
                    "duration": 0.10000000000000142
                },
                {
                    "name": "G2",
                    "midi": 43,
                    "time": 54.600000000000016,
                    "velocity": 0.7244094488188977,
                    "duration": 0.10000000000000142
                },
                {
                    "name": "A2",
                    "midi": 45,
                    "time": 54.750000000000014,
                    "velocity": 0.7244094488188977,
                    "duration": 0.10000000000000142
                },
                {
                    "name": "A#2",
                    "midi": 46,
                    "time": 54.90000000000001,
                    "velocity": 0.7244094488188977,
                    "duration": 0.10000000000000142
                },
                {
                    "name": "B2",
                    "midi": 47,
                    "time": 55.05000000000001,
                    "velocity": 0.7244094488188977,
                    "duration": 0.10000000000000142
                },
                {
                    "name": "C3",
                    "midi": 48,
                    "time": 55.20000000000001,
                    "velocity": 0.7244094488188977,
                    "duration": 0.10000000000000142
                },
                {
                    "name": "C3",
                    "midi": 48,
                    "time": 55.500000000000014,
                    "velocity": 0.7244094488188977,
                    "duration": 0.10000000000000142
                },
                {
                    "name": "C4",
                    "midi": 60,
                    "time": 56.100000000000016,
                    "velocity": 0.3543307086614173,
                    "duration": 0.10000000000000142
                },
                {
                    "name": "C4",
                    "midi": 60,
                    "time": 56.40000000000002,
                    "velocity": 0.3543307086614173,
                    "duration": 0.10000000000000142
                },
                {
                    "name": "D4",
                    "midi": 62,
                    "time": 57.00000000000002,
                    "velocity": 0.3543307086614173,
                    "duration": 0.6000000000000014
                },
                {
                    "name": "G4",
                    "midi": 67,
                    "time": 59.700000000000024,
                    "velocity": 0.3543307086614173,
                    "duration": 0.10000000000000142
                },
                {
                    "name": "G4",
                    "midi": 67,
                    "time": 60.00000000000003,
                    "velocity": 0.3543307086614173,
                    "duration": 0.10000000000000142
                },
                {
                    "name": "G4",
                    "midi": 67,
                    "time": 60.30000000000003,
                    "velocity": 0.3543307086614173,
                    "duration": 0.10000000000000142
                },
                {
                    "name": "G3",
                    "midi": 55,
                    "time": 60.60000000000004,
                    "velocity": 0.3543307086614173,
                    "duration": 0.10000000000000142
                },
                {
                    "name": "G3",
                    "midi": 55,
                    "time": 60.90000000000004,
                    "velocity": 0.3543307086614173,
                    "duration": 0.10000000000000142
                },
                {
                    "name": "G3",
                    "midi": 55,
                    "time": 61.200000000000045,
                    "velocity": 0.3543307086614173,
                    "duration": 0.10000000000000142
                },
                {
                    "name": "G2",
                    "midi": 43,
                    "time": 61.50000000000005,
                    "velocity": 0.3543307086614173,
                    "duration": 0.10000000000000142
                },
                {
                    "name": "G2",
                    "midi": 43,
                    "time": 61.800000000000054,
                    "velocity": 0.3543307086614173,
                    "duration": 0.10000000000000142
                },
                {
                    "name": "G2",
                    "midi": 43,
                    "time": 62.10000000000006,
                    "velocity": 0.3543307086614173,
                    "duration": 0.10000000000000142
                },
                {
                    "name": "C3",
                    "midi": 48,
                    "time": 63.30000000000006,
                    "velocity": 0.3543307086614173,
                    "duration": 0.10000000000000142
                },
                {
                    "name": "C3",
                    "midi": 48,
                    "time": 63.600000000000065,
                    "velocity": 0.3543307086614173,
                    "duration": 0.10000000000000142
                },
                {
                    "name": "D3",
                    "midi": 50,
                    "time": 64.20000000000007,
                    "velocity": 0.3543307086614173,
                    "duration": 0.09999999999999432
                },
                {
                    "name": "D3",
                    "midi": 50,
                    "time": 64.50000000000007,
                    "velocity": 0.3543307086614173,
                    "duration": 0.09999999999999432
                },
                {
                    "name": "G3",
                    "midi": 55,
                    "time": 65.10000000000007,
                    "velocity": 0.3543307086614173,
                    "duration": 0.09999999999999432
                },
                {
                    "name": "G3",
                    "midi": 55,
                    "time": 65.40000000000006,
                    "velocity": 0.3543307086614173,
                    "duration": 0.09999999999999432
                },
                {
                    "name": "G2",
                    "midi": 43,
                    "time": 66.00000000000006,
                    "velocity": 0.3543307086614173,
                    "duration": 0.09999999999999432
                },
                {
                    "name": "G2",
                    "midi": 43,
                    "time": 66.30000000000005,
                    "velocity": 0.3543307086614173,
                    "duration": 0.09999999999999432
                },
                {
                    "name": "C3",
                    "midi": 48,
                    "time": 66.90000000000005,
                    "velocity": 0.3543307086614173,
                    "duration": 0.09999999999999432
                },
                {
                    "name": "C3",
                    "midi": 48,
                    "time": 67.20000000000005,
                    "velocity": 0.3543307086614173,
                    "duration": 0.09999999999999432
                },
                {
                    "name": "F#3",
                    "midi": 54,
                    "time": 67.80000000000004,
                    "velocity": 0.3543307086614173,
                    "duration": 0.09999999999999432
                },
                {
                    "name": "F#3",
                    "midi": 54,
                    "time": 68.10000000000004,
                    "velocity": 0.3543307086614173,
                    "duration": 0.09999999999999432
                },
                {
                    "name": "G3",
                    "midi": 55,
                    "time": 68.70000000000003,
                    "velocity": 0.3543307086614173,
                    "duration": 0.5999999999999943
                },
                {
                    "name": "G2",
                    "midi": 43,
                    "time": 69.60000000000002,
                    "velocity": 0.49606299212598426,
                    "duration": 0.9000000000000057
                },
                {
                    "name": "C3",
                    "midi": 48,
                    "time": 70.50000000000003,
                    "velocity": 0.3543307086614173,
                    "duration": 0.09999999999999432
                },
                {
                    "name": "C3",
                    "midi": 48,
                    "time": 70.80000000000003,
                    "velocity": 0.3543307086614173,
                    "duration": 0.09999999999999432
                },
                {
                    "name": "C3",
                    "midi": 48,
                    "time": 71.40000000000002,
                    "velocity": 0.3543307086614173,
                    "duration": 0.09999999999999432
                },
                {
                    "name": "C3",
                    "midi": 48,
                    "time": 71.70000000000002,
                    "velocity": 0.3543307086614173,
                    "duration": 0.09999999999999432
                },
                {
                    "name": "F2",
                    "midi": 41,
                    "time": 72.30000000000001,
                    "velocity": 0.3543307086614173,
                    "duration": 0.09999999999999432
                },
                {
                    "name": "F2",
                    "midi": 41,
                    "time": 72.60000000000001,
                    "velocity": 0.3543307086614173,
                    "duration": 0.09999999999999432
                },
                {
                    "name": "F2",
                    "midi": 41,
                    "time": 73.2,
                    "velocity": 0.3543307086614173,
                    "duration": 0.09999999999999432
                },
                {
                    "name": "F2",
                    "midi": 41,
                    "time": 73.5,
                    "velocity": 0.3543307086614173,
                    "duration": 0.09999999999999432
                },
                {
                    "name": "C2",
                    "midi": 36,
                    "time": 74.1,
                    "velocity": 0.3543307086614173,
                    "duration": 0.09999999999999432
                },
                {
                    "name": "G2",
                    "midi": 43,
                    "time": 74.99999999999999,
                    "velocity": 0.3543307086614173,
                    "duration": 0.09999999999999432
                },
                {
                    "name": "C2",
                    "midi": 36,
                    "time": 75.89999999999998,
                    "velocity": 0.3543307086614173,
                    "duration": 0.5999999999999943
                },
                {
                    "name": "C4",
                    "midi": 60,
                    "time": 77.99999999999997,
                    "velocity": 0.7244094488188977,
                    "duration": 0.29999999999999716
                },
                {
                    "name": "D4",
                    "midi": 62,
                    "time": 78.29999999999997,
                    "velocity": 0.7244094488188977,
                    "duration": 0.29999999999999716
                },
                {
                    "name": "D#4",
                    "midi": 63,
                    "time": 78.59999999999997,
                    "velocity": 0.7244094488188977,
                    "duration": 0.29999999999999716
                },
                {
                    "name": "F4",
                    "midi": 65,
                    "time": 78.89999999999996,
                    "velocity": 0.7244094488188977,
                    "duration": 0.29999999999999716
                },
                {
                    "name": "F#4",
                    "midi": 66,
                    "time": 79.19999999999996,
                    "velocity": 0.7244094488188977,
                    "duration": 0.29999999999999716
                },
                {
                    "name": "G4",
                    "midi": 67,
                    "time": 79.49999999999996,
                    "velocity": 0.7244094488188977,
                    "duration": 0.9000000000000057
                },
                {
                    "name": "F4",
                    "midi": 65,
                    "time": 80.39999999999996,
                    "velocity": 0.7244094488188977,
                    "duration": 0.7999999999999972
                },
                {
                    "name": "D#4",
                    "midi": 63,
                    "time": 81.29999999999995,
                    "velocity": 0.7244094488188977,
                    "duration": 0.5999999999999943
                },
                {
                    "name": "D4",
                    "midi": 62,
                    "time": 81.89999999999995,
                    "velocity": 0.7244094488188977,
                    "duration": 0.29999999999999716
                },
                {
                    "name": "C4",
                    "midi": 60,
                    "time": 82.19999999999995,
                    "velocity": 0.7244094488188977,
                    "duration": 0.29999999999999716
                },
                {
                    "name": "B3",
                    "midi": 59,
                    "time": 82.49999999999994,
                    "velocity": 0.7244094488188977,
                    "duration": 0.29999999999999716
                },
                {
                    "name": "C4",
                    "midi": 60,
                    "time": 82.79999999999994,
                    "velocity": 0.7244094488188977,
                    "duration": 0.29999999999999716
                },
                {
                    "name": "D4",
                    "midi": 62,
                    "time": 83.09999999999994,
                    "velocity": 0.7244094488188977,
                    "duration": 0.5
                },
                {
                    "name": "G3",
                    "midi": 55,
                    "time": 83.99999999999994,
                    "velocity": 0.7244094488188977,
                    "duration": 1.1937499999999943
                },
                {
                    "name": "C4",
                    "midi": 60,
                    "time": 85.19999999999993,
                    "velocity": 0.7244094488188977,
                    "duration": 0.29999999999999716
                },
                {
                    "name": "D4",
                    "midi": 62,
                    "time": 85.49999999999993,
                    "velocity": 0.7244094488188977,
                    "duration": 0.29999999999999716
                },
                {
                    "name": "C4",
                    "midi": 60,
                    "time": 85.79999999999993,
                    "velocity": 0.7244094488188977,
                    "duration": 0.29999999999999716
                },
                {
                    "name": "D4",
                    "midi": 62,
                    "time": 86.09999999999992,
                    "velocity": 0.7244094488188977,
                    "duration": 0.29999999999999716
                },
                {
                    "name": "F#4",
                    "midi": 66,
                    "time": 86.39999999999992,
                    "velocity": 0.7244094488188977,
                    "duration": 0.29999999999999716
                },
                {
                    "name": "G4",
                    "midi": 67,
                    "time": 86.69999999999992,
                    "velocity": 0.7244094488188977,
                    "duration": 0.7999999999999972
                },
                {
                    "name": "F4",
                    "midi": 65,
                    "time": 87.59999999999991,
                    "velocity": 0.7244094488188977,
                    "duration": 0.29999999999999716
                },
                {
                    "name": "D#4",
                    "midi": 63,
                    "time": 87.8999999999999,
                    "velocity": 0.7244094488188977,
                    "duration": 0.29999999999999716
                },
                {
                    "name": "D4",
                    "midi": 62,
                    "time": 88.1999999999999,
                    "velocity": 0.7244094488188977,
                    "duration": 0.29999999999999716
                },
                {
                    "name": "C4",
                    "midi": 60,
                    "time": 88.4999999999999,
                    "velocity": 0.7244094488188977,
                    "duration": 0.29375000000000284
                },
                {
                    "name": "G2",
                    "midi": 43,
                    "time": 89.3999999999999,
                    "velocity": 0.7244094488188977,
                    "duration": 0.29375000000000284
                },
                {
                    "name": "C2",
                    "midi": 36,
                    "time": 90.29999999999991,
                    "velocity": 0.5905511811023622,
                    "duration": 0.9000000000000057
                },
                {
                    "name": "C3",
                    "midi": 48,
                    "time": 91.19999999999992,
                    "velocity": 0.3543307086614173,
                    "duration": 0.5
                },
                {
                    "name": "D#3",
                    "midi": 51,
                    "time": 91.79999999999991,
                    "velocity": 0.3543307086614173,
                    "duration": 0.29999999999999716
                },
                {
                    "name": "G#2",
                    "midi": 44,
                    "time": 92.09999999999991,
                    "velocity": 0.3543307086614173,
                    "duration": 0.29375000000000284
                },
                {
                    "name": "G#2",
                    "midi": 44,
                    "time": 92.3999999999999,
                    "velocity": 0.3543307086614173,
                    "duration": 0.29999999999999716
                },
                {
                    "name": "D#3",
                    "midi": 51,
                    "time": 92.6999999999999,
                    "velocity": 0.3543307086614173,
                    "duration": 0.29999999999999716
                },
                {
                    "name": "G#3",
                    "midi": 56,
                    "time": 92.9999999999999,
                    "velocity": 0.3543307086614173,
                    "duration": 0.29999999999999716
                },
                {
                    "name": "C3",
                    "midi": 48,
                    "time": 93.2999999999999,
                    "velocity": 0.3543307086614173,
                    "duration": 0.29999999999999716
                },
                {
                    "name": "G#2",
                    "midi": 44,
                    "time": 93.5999999999999,
                    "velocity": 0.3543307086614173,
                    "duration": 0.29375000000000284
                },
                {
                    "name": "G#2",
                    "midi": 44,
                    "time": 94.1999999999999,
                    "velocity": 0.3543307086614173,
                    "duration": 0.29999999999999716
                },
                {
                    "name": "D#3",
                    "midi": 51,
                    "time": 94.4999999999999,
                    "velocity": 0.3543307086614173,
                    "duration": 0.29999999999999716
                },
                {
                    "name": "G#3",
                    "midi": 56,
                    "time": 94.7999999999999,
                    "velocity": 0.3543307086614173,
                    "duration": 0.29999999999999716
                },
                {
                    "name": "D#3",
                    "midi": 51,
                    "time": 95.0999999999999,
                    "velocity": 0.3543307086614173,
                    "duration": 0.29999999999999716
                },
                {
                    "name": "G#2",
                    "midi": 44,
                    "time": 95.39999999999989,
                    "velocity": 0.3543307086614173,
                    "duration": 0.29375000000000284
                },
                {
                    "name": "D#2",
                    "midi": 39,
                    "time": 95.9999999999999,
                    "velocity": 0.3543307086614173,
                    "duration": 0.29999999999999716
                },
                {
                    "name": "A#2",
                    "midi": 46,
                    "time": 96.2999999999999,
                    "velocity": 0.3543307086614173,
                    "duration": 0.29999999999999716
                },
                {
                    "name": "D#3",
                    "midi": 51,
                    "time": 96.5999999999999,
                    "velocity": 0.3543307086614173,
                    "duration": 0.29999999999999716
                },
                {
                    "name": "A#2",
                    "midi": 46,
                    "time": 96.89999999999989,
                    "velocity": 0.3543307086614173,
                    "duration": 0.29999999999999716
                },
                {
                    "name": "D#2",
                    "midi": 39,
                    "time": 97.19999999999989,
                    "velocity": 0.3543307086614173,
                    "duration": 0.29375000000000284
                },
                {
                    "name": "D#2",
                    "midi": 39,
                    "time": 97.7999999999999,
                    "velocity": 0.3543307086614173,
                    "duration": 0.29999999999999716
                },
                {
                    "name": "A#2",
                    "midi": 46,
                    "time": 98.0999999999999,
                    "velocity": 0.3543307086614173,
                    "duration": 0.29999999999999716
                },
                {
                    "name": "D#3",
                    "midi": 51,
                    "time": 98.39999999999989,
                    "velocity": 0.3543307086614173,
                    "duration": 0.29999999999999716
                },
                {
                    "name": "A#2",
                    "midi": 46,
                    "time": 98.69999999999989,
                    "velocity": 0.3543307086614173,
                    "duration": 0.29999999999999716
                },
                {
                    "name": "D#2",
                    "midi": 39,
                    "time": 98.99999999999989,
                    "velocity": 0.3543307086614173,
                    "duration": 0.29375000000000284
                },
                {
                    "name": "G#2",
                    "midi": 44,
                    "time": 99.5999999999999,
                    "velocity": 0.3543307086614173,
                    "duration": 0.29999999999999716
                },
                {
                    "name": "D#3",
                    "midi": 51,
                    "time": 99.89999999999989,
                    "velocity": 0.3543307086614173,
                    "duration": 0.29999999999999716
                },
                {
                    "name": "G#3",
                    "midi": 56,
                    "time": 100.19999999999989,
                    "velocity": 0.3543307086614173,
                    "duration": 0.29999999999999716
                },
                {
                    "name": "D#3",
                    "midi": 51,
                    "time": 100.49999999999989,
                    "velocity": 0.3543307086614173,
                    "duration": 0.29999999999999716
                },
                {
                    "name": "G#2",
                    "midi": 44,
                    "time": 100.79999999999988,
                    "velocity": 0.3543307086614173,
                    "duration": 0.29375000000000284
                },
                {
                    "name": "C2",
                    "midi": 36,
                    "time": 101.39999999999989,
                    "velocity": 0.3543307086614173,
                    "duration": 0.29999999999999716
                },
                {
                    "name": "G2",
                    "midi": 43,
                    "time": 101.69999999999989,
                    "velocity": 0.3543307086614173,
                    "duration": 0.29999999999999716
                },
                {
                    "name": "C3",
                    "midi": 48,
                    "time": 101.99999999999989,
                    "velocity": 0.3543307086614173,
                    "duration": 0.29999999999999716
                },
                {
                    "name": "G2",
                    "midi": 43,
                    "time": 102.29999999999988,
                    "velocity": 0.3543307086614173,
                    "duration": 0.29999999999999716
                },
                {
                    "name": "C2",
                    "midi": 36,
                    "time": 102.59999999999988,
                    "velocity": 0.3543307086614173,
                    "duration": 0.29375000000000284
                },
                {
                    "name": "A#2",
                    "midi": 46,
                    "time": 103.19999999999989,
                    "velocity": 0.3543307086614173,
                    "duration": 0.29999999999999716
                },
                {
                    "name": "F3",
                    "midi": 53,
                    "time": 103.49999999999989,
                    "velocity": 0.3543307086614173,
                    "duration": 0.29999999999999716
                },
                {
                    "name": "A#3",
                    "midi": 58,
                    "time": 103.79999999999988,
                    "velocity": 0.3543307086614173,
                    "duration": 0.29999999999999716
                },
                {
                    "name": "F3",
                    "midi": 53,
                    "time": 104.09999999999988,
                    "velocity": 0.3543307086614173,
                    "duration": 0.29999999999999716
                },
                {
                    "name": "A#2",
                    "midi": 46,
                    "time": 104.39999999999988,
                    "velocity": 0.3543307086614173,
                    "duration": 0.29375000000000284
                },
                {
                    "name": "F2",
                    "midi": 41,
                    "time": 104.99999999999989,
                    "velocity": 0.3543307086614173,
                    "duration": 0.29999999999999716
                },
                {
                    "name": "C3",
                    "midi": 48,
                    "time": 105.29999999999988,
                    "velocity": 0.3543307086614173,
                    "duration": 0.29999999999999716
                },
                {
                    "name": "F3",
                    "midi": 53,
                    "time": 105.59999999999988,
                    "velocity": 0.3543307086614173,
                    "duration": 0.29999999999999716
                },
                {
                    "name": "C3",
                    "midi": 48,
                    "time": 105.89999999999988,
                    "velocity": 0.3543307086614173,
                    "duration": 0.29999999999999716
                },
                {
                    "name": "F2",
                    "midi": 41,
                    "time": 106.19999999999987,
                    "velocity": 0.3543307086614173,
                    "duration": 0.29375000000000284
                },
                {
                    "name": "A#2",
                    "midi": 46,
                    "time": 106.79999999999988,
                    "velocity": 0.3543307086614173,
                    "duration": 0.29999999999999716
                },
                {
                    "name": "F3",
                    "midi": 53,
                    "time": 107.09999999999988,
                    "velocity": 0.3543307086614173,
                    "duration": 0.29999999999999716
                },
                {
                    "name": "A#3",
                    "midi": 58,
                    "time": 107.39999999999988,
                    "velocity": 0.3543307086614173,
                    "duration": 0.29999999999999716
                },
                {
                    "name": "F3",
                    "midi": 53,
                    "time": 107.69999999999987,
                    "velocity": 0.3543307086614173,
                    "duration": 0.29999999999999716
                },
                {
                    "name": "A#2",
                    "midi": 46,
                    "time": 107.99999999999987,
                    "velocity": 0.3543307086614173,
                    "duration": 0.29375000000000284
                },
                {
                    "name": "A#2",
                    "midi": 46,
                    "time": 108.59999999999988,
                    "velocity": 0.3543307086614173,
                    "duration": 0.29999999999999716
                },
                {
                    "name": "F3",
                    "midi": 53,
                    "time": 108.89999999999988,
                    "velocity": 0.3543307086614173,
                    "duration": 0.29999999999999716
                },
                {
                    "name": "A#3",
                    "midi": 58,
                    "time": 109.19999999999987,
                    "velocity": 0.3543307086614173,
                    "duration": 0.29999999999999716
                },
                {
                    "name": "F3",
                    "midi": 53,
                    "time": 109.49999999999987,
                    "velocity": 0.3543307086614173,
                    "duration": 0.29999999999999716
                },
                {
                    "name": "A#2",
                    "midi": 46,
                    "time": 109.79999999999987,
                    "velocity": 0.3543307086614173,
                    "duration": 0.29375000000000284
                },
                {
                    "name": "D#2",
                    "midi": 39,
                    "time": 110.39999999999988,
                    "velocity": 0.3543307086614173,
                    "duration": 0.29999999999999716
                },
                {
                    "name": "A#2",
                    "midi": 46,
                    "time": 110.69999999999987,
                    "velocity": 0.3543307086614173,
                    "duration": 0.29999999999999716
                },
                {
                    "name": "D#3",
                    "midi": 51,
                    "time": 110.99999999999987,
                    "velocity": 0.3543307086614173,
                    "duration": 0.29999999999999716
                },
                {
                    "name": "A#2",
                    "midi": 46,
                    "time": 111.29999999999987,
                    "velocity": 0.3543307086614173,
                    "duration": 0.29999999999999716
                },
                {
                    "name": "D#2",
                    "midi": 39,
                    "time": 111.59999999999987,
                    "velocity": 0.3543307086614173,
                    "duration": 0.29375000000000284
                },
                {
                    "name": "G#2",
                    "midi": 44,
                    "time": 112.19999999999987,
                    "velocity": 0.3543307086614173,
                    "duration": 0.29999999999999716
                },
                {
                    "name": "D#3",
                    "midi": 51,
                    "time": 112.49999999999987,
                    "velocity": 0.3543307086614173,
                    "duration": 0.29999999999999716
                },
                {
                    "name": "G#3",
                    "midi": 56,
                    "time": 112.79999999999987,
                    "velocity": 0.3543307086614173,
                    "duration": 0.29999999999999716
                },
                {
                    "name": "D#3",
                    "midi": 51,
                    "time": 113.09999999999987,
                    "velocity": 0.3543307086614173,
                    "duration": 0.29999999999999716
                },
                {
                    "name": "G#2",
                    "midi": 44,
                    "time": 113.39999999999986,
                    "velocity": 0.3543307086614173,
                    "duration": 0.29375000000000284
                },
                {
                    "name": "A#2",
                    "midi": 46,
                    "time": 113.69999999999986,
                    "velocity": 0.3543307086614173,
                    "duration": 0.9000000000000057
                },
                {
                    "name": "D3",
                    "midi": 50,
                    "time": 115.49999999999987,
                    "velocity": 0.3543307086614173,
                    "duration": 0.9000000000000057
                },
                {
                    "name": "D#3",
                    "midi": 51,
                    "time": 117.29999999999988,
                    "velocity": 0.3543307086614173,
                    "duration": 2.09375
                },
                {
                    "name": "D#3",
                    "midi": 51,
                    "time": 120.89999999999988,
                    "velocity": 0.7244094488188977,
                    "duration": 0.9000000000000057
                },
                {
                    "name": "F3",
                    "midi": 53,
                    "time": 121.79999999999988,
                    "velocity": 0.7244094488188977,
                    "duration": 0.5999999999999943
                },
                {
                    "name": "G3",
                    "midi": 55,
                    "time": 122.39999999999988,
                    "velocity": 0.7244094488188977,
                    "duration": 0.29999999999999716
                },
                {
                    "name": "G#3",
                    "midi": 56,
                    "time": 122.69999999999987,
                    "velocity": 0.7244094488188977,
                    "duration": 0.9000000000000057
                },
                {
                    "name": "C4",
                    "midi": 60,
                    "time": 123.59999999999988,
                    "velocity": 0.7244094488188977,
                    "duration": 0.7999999999999972
                },
                {
                    "name": "C4",
                    "midi": 60,
                    "time": 124.49999999999987,
                    "velocity": 0.7244094488188977,
                    "duration": 1.7999999999999972
                },
                {
                    "name": "A#3",
                    "midi": 58,
                    "time": 126.29999999999987,
                    "velocity": 0.7244094488188977,
                    "duration": 0.7999999999999972
                },
                {
                    "name": "C#4",
                    "midi": 61,
                    "time": 127.19999999999986,
                    "velocity": 0.7244094488188977,
                    "duration": 0.5999999999999943
                },
                {
                    "name": "C4",
                    "midi": 60,
                    "time": 127.79999999999986,
                    "velocity": 0.7244094488188977,
                    "duration": 0.29999999999999716
                },
                {
                    "name": "G#3",
                    "midi": 56,
                    "time": 128.09999999999985,
                    "velocity": 0.7244094488188977,
                    "duration": 0.8000000000000114
                },
                {
                    "name": "C4",
                    "midi": 60,
                    "time": 128.99999999999986,
                    "velocity": 0.7244094488188977,
                    "duration": 0.9000000000000057
                },
                {
                    "name": "G3",
                    "midi": 55,
                    "time": 129.89999999999986,
                    "velocity": 0.7244094488188977,
                    "duration": 0.8000000000000114
                },
                {
                    "name": "C4",
                    "midi": 60,
                    "time": 130.79999999999987,
                    "velocity": 0.7244094488188977,
                    "duration": 0.9000000000000057
                },
                {
                    "name": "F3",
                    "midi": 53,
                    "time": 131.69999999999987,
                    "velocity": 0.7244094488188977,
                    "duration": 2.5999999999999943
                },
                {
                    "name": "F#3",
                    "midi": 54,
                    "time": 134.39999999999986,
                    "velocity": 0.7244094488188977,
                    "duration": 0.5999999999999943
                },
                {
                    "name": "F3",
                    "midi": 53,
                    "time": 134.99999999999986,
                    "velocity": 0.7244094488188977,
                    "duration": 0.29374999999998863
                },
                {
                    "name": "F3",
                    "midi": 53,
                    "time": 135.29999999999984,
                    "velocity": 0.7244094488188977,
                    "duration": 0.9000000000000057
                },
                {
                    "name": "G3",
                    "midi": 55,
                    "time": 136.19999999999985,
                    "velocity": 0.7244094488188977,
                    "duration": 0.5999999999999943
                },
                {
                    "name": "A3",
                    "midi": 57,
                    "time": 136.79999999999984,
                    "velocity": 0.7244094488188977,
                    "duration": 0.30000000000001137
                },
                {
                    "name": "A#3",
                    "midi": 58,
                    "time": 137.09999999999985,
                    "velocity": 0.7244094488188977,
                    "duration": 0.8000000000000114
                },
                {
                    "name": "C#4",
                    "midi": 61,
                    "time": 137.99999999999986,
                    "velocity": 0.7244094488188977,
                    "duration": 0.9000000000000057
                },
                {
                    "name": "C4",
                    "midi": 60,
                    "time": 138.89999999999986,
                    "velocity": 0.7244094488188977,
                    "duration": 0.30000000000001137
                },
                {
                    "name": "B3",
                    "midi": 59,
                    "time": 139.19999999999987,
                    "velocity": 0.7244094488188977,
                    "duration": 0.30000000000001137
                },
                {
                    "name": "C4",
                    "midi": 60,
                    "time": 139.4999999999999,
                    "velocity": 0.7244094488188977,
                    "duration": 0.30000000000001137
                },
                {
                    "name": "F4",
                    "midi": 65,
                    "time": 139.7999999999999,
                    "velocity": 0.7244094488188977,
                    "duration": 0.5999999999999943
                },
                {
                    "name": "D#4",
                    "midi": 63,
                    "time": 140.3999999999999,
                    "velocity": 0.7244094488188977,
                    "duration": 0.29374999999998863
                },
                {
                    "name": "D#4",
                    "midi": 63,
                    "time": 140.69999999999987,
                    "velocity": 0.7244094488188977,
                    "duration": 0.9000000000000057
                },
                {
                    "name": "C#4",
                    "midi": 61,
                    "time": 141.59999999999988,
                    "velocity": 0.7244094488188977,
                    "duration": 1.34375
                },
                {
                    "name": "D#3",
                    "midi": 51,
                    "time": 142.94999999999987,
                    "velocity": 0.7244094488188977,
                    "duration": 0.44999999999998863
                },
                {
                    "name": "F3",
                    "midi": 53,
                    "time": 143.39999999999986,
                    "velocity": 0.7244094488188977,
                    "duration": 0.44999999999998863
                },
                {
                    "name": "G3",
                    "midi": 55,
                    "time": 143.84999999999985,
                    "velocity": 0.7244094488188977,
                    "duration": 0.44999999999998863
                },
                {
                    "name": "G#3",
                    "midi": 56,
                    "time": 144.29999999999984,
                    "velocity": 0.7244094488188977,
                    "duration": 0.9000000000000057
                },
                {
                    "name": "C4",
                    "midi": 60,
                    "time": 145.19999999999985,
                    "velocity": 0.7244094488188977,
                    "duration": 0.9000000000000057
                },
                {
                    "name": "A#3",
                    "midi": 58,
                    "time": 146.09999999999985,
                    "velocity": 0.7244094488188977,
                    "duration": 0.30000000000001137
                },
                {
                    "name": "A3",
                    "midi": 57,
                    "time": 146.39999999999986,
                    "velocity": 0.7244094488188977,
                    "duration": 0.30000000000001137
                },
                {
                    "name": "A#3",
                    "midi": 58,
                    "time": 146.69999999999987,
                    "velocity": 0.7244094488188977,
                    "duration": 0.30000000000001137
                },
                {
                    "name": "D#4",
                    "midi": 63,
                    "time": 146.9999999999999,
                    "velocity": 0.7244094488188977,
                    "duration": 0.5999999999999943
                },
                {
                    "name": "C#4",
                    "midi": 61,
                    "time": 147.59999999999988,
                    "velocity": 0.7244094488188977,
                    "duration": 0.29374999999998863
                },
                {
                    "name": "C#4",
                    "midi": 61,
                    "time": 147.89999999999986,
                    "velocity": 0.7244094488188977,
                    "duration": 0.9000000000000057
                },
                {
                    "name": "C4",
                    "midi": 60,
                    "time": 148.79999999999987,
                    "velocity": 0.7244094488188977,
                    "duration": 1.34375
                },
                {
                    "name": "G#3",
                    "midi": 56,
                    "time": 150.14999999999986,
                    "velocity": 0.7244094488188977,
                    "duration": 0.44999999999998863
                },
                {
                    "name": "A#3",
                    "midi": 58,
                    "time": 150.59999999999985,
                    "velocity": 0.7244094488188977,
                    "duration": 0.44999999999998863
                },
                {
                    "name": "C4",
                    "midi": 60,
                    "time": 151.04999999999984,
                    "velocity": 0.7244094488188977,
                    "duration": 0.44999999999998863
                },
                {
                    "name": "C#4",
                    "midi": 61,
                    "time": 151.49999999999983,
                    "velocity": 0.7244094488188977,
                    "duration": 0.9000000000000057
                },
                {
                    "name": "G#3",
                    "midi": 56,
                    "time": 152.39999999999984,
                    "velocity": 0.7244094488188977,
                    "duration": 0.9000000000000057
                },
                {
                    "name": "D#4",
                    "midi": 63,
                    "time": 153.29999999999984,
                    "velocity": 0.7244094488188977,
                    "duration": 0.8000000000000114
                },
                {
                    "name": "G#3",
                    "midi": 56,
                    "time": 154.19999999999985,
                    "velocity": 0.7244094488188977,
                    "duration": 0.9000000000000057
                },
                {
                    "name": "F4",
                    "midi": 65,
                    "time": 155.09999999999985,
                    "velocity": 0.7244094488188977,
                    "duration": 0.44999999999998863
                },
                {
                    "name": "G4",
                    "midi": 67,
                    "time": 155.54999999999984,
                    "velocity": 0.7244094488188977,
                    "duration": 0.44999999999998863
                },
                {
                    "name": "G#4",
                    "midi": 68,
                    "time": 155.99999999999983,
                    "velocity": 0.7244094488188977,
                    "duration": 1.6999999999999886
                },
                {
                    "name": "G4",
                    "midi": 67,
                    "time": 157.7999999999998,
                    "velocity": 0.7244094488188977,
                    "duration": 0.5999999999999943
                },
                {
                    "name": "F4",
                    "midi": 65,
                    "time": 158.3999999999998,
                    "velocity": 0.7244094488188977,
                    "duration": 0.30000000000001137
                },
                {
                    "name": "D#4",
                    "midi": 63,
                    "time": 158.69999999999982,
                    "velocity": 0.7244094488188977,
                    "duration": 0.8000000000000114
                },
                {
                    "name": "C4",
                    "midi": 60,
                    "time": 159.59999999999982,
                    "velocity": 0.7244094488188977,
                    "duration": 0.5999999999999943
                },
                {
                    "name": "G#3",
                    "midi": 56,
                    "time": 160.19999999999982,
                    "velocity": 0.7244094488188977,
                    "duration": 0.30000000000001137
                },
                {
                    "name": "C4",
                    "midi": 60,
                    "time": 160.49999999999983,
                    "velocity": 0.7244094488188977,
                    "duration": 0.9000000000000057
                },
                {
                    "name": "A#3",
                    "midi": 58,
                    "time": 161.39999999999984,
                    "velocity": 0.7244094488188977,
                    "duration": 0.9000000000000057
                },
                {
                    "name": "C4",
                    "midi": 60,
                    "time": 162.29999999999984,
                    "velocity": 0.47244094488188976,
                    "duration": 0.5999999999999943
                },
                {
                    "name": "C4",
                    "midi": 60,
                    "time": 164.09999999999982,
                    "velocity": 0.47244094488188976,
                    "duration": 0.15000000000000568
                },
                {
                    "name": "B3",
                    "midi": 59,
                    "time": 164.24999999999983,
                    "velocity": 0.47244094488188976,
                    "duration": 0.09999999999999432
                },
                {
                    "name": "C4",
                    "midi": 60,
                    "time": 164.39999999999984,
                    "velocity": 0.47244094488188976,
                    "duration": 0.09999999999999432
                },
                {
                    "name": "D4",
                    "midi": 62,
                    "time": 164.54999999999984,
                    "velocity": 0.47244094488188976,
                    "duration": 0.09999999999999432
                },
                {
                    "name": "E4",
                    "midi": 64,
                    "time": 164.69999999999985,
                    "velocity": 0.47244094488188976,
                    "duration": 0.09999999999999432
                },
                {
                    "name": "F4",
                    "midi": 65,
                    "time": 164.84999999999985,
                    "velocity": 0.47244094488188976,
                    "duration": 0.09999999999999432
                },
                {
                    "name": "G4",
                    "midi": 67,
                    "time": 164.99999999999986,
                    "velocity": 0.47244094488188976,
                    "duration": 0.09999999999999432
                },
                {
                    "name": "G4",
                    "midi": 67,
                    "time": 165.29999999999984,
                    "velocity": 0.47244094488188976,
                    "duration": 0.09999999999999432
                },
                {
                    "name": "G4",
                    "midi": 67,
                    "time": 165.59999999999982,
                    "velocity": 0.47244094488188976,
                    "duration": 0.09999999999999432
                },
                {
                    "name": "C3",
                    "midi": 48,
                    "time": 166.7999999999998,
                    "velocity": 0.47244094488188976,
                    "duration": 0.15000000000000568
                },
                {
                    "name": "B2",
                    "midi": 47,
                    "time": 166.94999999999982,
                    "velocity": 0.47244094488188976,
                    "duration": 0.09999999999999432
                },
                {
                    "name": "C3",
                    "midi": 48,
                    "time": 167.09999999999982,
                    "velocity": 0.47244094488188976,
                    "duration": 0.09999999999999432
                },
                {
                    "name": "D3",
                    "midi": 50,
                    "time": 167.24999999999983,
                    "velocity": 0.47244094488188976,
                    "duration": 0.09999999999999432
                },
                {
                    "name": "E3",
                    "midi": 52,
                    "time": 167.39999999999984,
                    "velocity": 0.47244094488188976,
                    "duration": 0.09999999999999432
                },
                {
                    "name": "F3",
                    "midi": 53,
                    "time": 167.54999999999984,
                    "velocity": 0.47244094488188976,
                    "duration": 0.09999999999999432
                },
                {
                    "name": "G2",
                    "midi": 43,
                    "time": 167.69999999999985,
                    "velocity": 0.6614173228346457,
                    "duration": 0.29374999999998863
                },
                {
                    "name": "C3",
                    "midi": 48,
                    "time": 170.39999999999984,
                    "velocity": 0.3543307086614173,
                    "duration": 0.09999999999999432
                },
                {
                    "name": "C3",
                    "midi": 48,
                    "time": 170.69999999999982,
                    "velocity": 0.3543307086614173,
                    "duration": 0.09999999999999432
                },
                {
                    "name": "D3",
                    "midi": 50,
                    "time": 171.2999999999998,
                    "velocity": 0.3543307086614173,
                    "duration": 0.09999999999999432
                },
                {
                    "name": "D3",
                    "midi": 50,
                    "time": 171.5999999999998,
                    "velocity": 0.3543307086614173,
                    "duration": 0.09999999999999432
                },
                {
                    "name": "G3",
                    "midi": 55,
                    "time": 172.1999999999998,
                    "velocity": 0.3543307086614173,
                    "duration": 0.09999999999999432
                },
                {
                    "name": "G3",
                    "midi": 55,
                    "time": 172.49999999999977,
                    "velocity": 0.3543307086614173,
                    "duration": 0.09999999999999432
                },
                {
                    "name": "G2",
                    "midi": 43,
                    "time": 173.09999999999977,
                    "velocity": 0.3543307086614173,
                    "duration": 0.09999999999999432
                },
                {
                    "name": "G2",
                    "midi": 43,
                    "time": 173.39999999999975,
                    "velocity": 0.3543307086614173,
                    "duration": 0.09999999999999432
                },
                {
                    "name": "C3",
                    "midi": 48,
                    "time": 173.99999999999974,
                    "velocity": 0.3543307086614173,
                    "duration": 0.09999999999999432
                },
                {
                    "name": "C3",
                    "midi": 48,
                    "time": 174.29999999999973,
                    "velocity": 0.3543307086614173,
                    "duration": 0.09999999999999432
                },
                {
                    "name": "F#3",
                    "midi": 54,
                    "time": 174.89999999999972,
                    "velocity": 0.3543307086614173,
                    "duration": 0.09999999999999432
                },
                {
                    "name": "F#3",
                    "midi": 54,
                    "time": 175.1999999999997,
                    "velocity": 0.3543307086614173,
                    "duration": 0.09999999999999432
                },
                {
                    "name": "G3",
                    "midi": 55,
                    "time": 175.7999999999997,
                    "velocity": 0.3543307086614173,
                    "duration": 0.5999999999999943
                },
                {
                    "name": "G2",
                    "midi": 43,
                    "time": 176.6999999999997,
                    "velocity": 0.3543307086614173,
                    "duration": 0.9000000000000057
                },
                {
                    "name": "C3",
                    "midi": 48,
                    "time": 177.5999999999997,
                    "velocity": 0.3543307086614173,
                    "duration": 0.09999999999999432
                },
                {
                    "name": "C3",
                    "midi": 48,
                    "time": 177.8999999999997,
                    "velocity": 0.3543307086614173,
                    "duration": 0.09999999999999432
                },
                {
                    "name": "D3",
                    "midi": 50,
                    "time": 178.4999999999997,
                    "velocity": 0.3543307086614173,
                    "duration": 0.09999999999999432
                },
                {
                    "name": "D3",
                    "midi": 50,
                    "time": 178.79999999999967,
                    "velocity": 0.3543307086614173,
                    "duration": 0.09999999999999432
                },
                {
                    "name": "G3",
                    "midi": 55,
                    "time": 179.39999999999966,
                    "velocity": 0.3543307086614173,
                    "duration": 0.09999999999999432
                },
                {
                    "name": "G3",
                    "midi": 55,
                    "time": 179.69999999999965,
                    "velocity": 0.3543307086614173,
                    "duration": 0.09999999999999432
                },
                {
                    "name": "G2",
                    "midi": 43,
                    "time": 180.29999999999964,
                    "velocity": 0.3543307086614173,
                    "duration": 0.09999999999999432
                },
                {
                    "name": "G2",
                    "midi": 43,
                    "time": 180.59999999999962,
                    "velocity": 0.3543307086614173,
                    "duration": 0.09999999999999432
                },
                {
                    "name": "C3",
                    "midi": 48,
                    "time": 181.19999999999962,
                    "velocity": 0.3543307086614173,
                    "duration": 0.09999999999999432
                },
                {
                    "name": "G2",
                    "midi": 43,
                    "time": 182.09999999999962,
                    "velocity": 0.3543307086614173,
                    "duration": 0.09999999999999432
                },
                {
                    "name": "C3",
                    "midi": 48,
                    "time": 182.99999999999963,
                    "velocity": 0.3543307086614173,
                    "duration": 0.5999999999999943
                },
                {
                    "name": "C4",
                    "midi": 60,
                    "time": 185.09999999999962,
                    "velocity": 0.7244094488188977,
                    "duration": 0.30000000000001137
                },
                {
                    "name": "D4",
                    "midi": 62,
                    "time": 185.39999999999964,
                    "velocity": 0.7244094488188977,
                    "duration": 0.30000000000001137
                },
                {
                    "name": "D#4",
                    "midi": 63,
                    "time": 185.69999999999965,
                    "velocity": 0.7244094488188977,
                    "duration": 0.30000000000001137
                },
                {
                    "name": "F4",
                    "midi": 65,
                    "time": 185.99999999999966,
                    "velocity": 0.7244094488188977,
                    "duration": 0.30000000000001137
                },
                {
                    "name": "F#4",
                    "midi": 66,
                    "time": 186.29999999999967,
                    "velocity": 0.7244094488188977,
                    "duration": 0.30000000000001137
                },
                {
                    "name": "G4",
                    "midi": 67,
                    "time": 186.59999999999968,
                    "velocity": 0.7244094488188977,
                    "duration": 0.9000000000000057
                },
                {
                    "name": "F4",
                    "midi": 65,
                    "time": 187.4999999999997,
                    "velocity": 0.7244094488188977,
                    "duration": 0.8000000000000114
                },
                {
                    "name": "D#4",
                    "midi": 63,
                    "time": 188.3999999999997,
                    "velocity": 0.7244094488188977,
                    "duration": 0.5999999999999943
                },
                {
                    "name": "D4",
                    "midi": 62,
                    "time": 188.9999999999997,
                    "velocity": 0.7244094488188977,
                    "duration": 0.30000000000001137
                },
                {
                    "name": "C4",
                    "midi": 60,
                    "time": 189.2999999999997,
                    "velocity": 0.7244094488188977,
                    "duration": 0.30000000000001137
                },
                {
                    "name": "B3",
                    "midi": 59,
                    "time": 189.5999999999997,
                    "velocity": 0.7244094488188977,
                    "duration": 0.30000000000001137
                },
                {
                    "name": "C4",
                    "midi": 60,
                    "time": 189.89999999999972,
                    "velocity": 0.7244094488188977,
                    "duration": 0.30000000000001137
                },
                {
                    "name": "D4",
                    "midi": 62,
                    "time": 190.19999999999973,
                    "velocity": 0.7244094488188977,
                    "duration": 0.5
                },
                {
                    "name": "G3",
                    "midi": 55,
                    "time": 191.09999999999974,
                    "velocity": 0.7244094488188977,
                    "duration": 1.1937499999999943
                },
                {
                    "name": "C4",
                    "midi": 60,
                    "time": 192.29999999999973,
                    "velocity": 0.7244094488188977,
                    "duration": 0.30000000000001137
                },
                {
                    "name": "D4",
                    "midi": 62,
                    "time": 192.59999999999974,
                    "velocity": 0.7244094488188977,
                    "duration": 0.30000000000001137
                },
                {
                    "name": "C4",
                    "midi": 60,
                    "time": 192.89999999999975,
                    "velocity": 0.7244094488188977,
                    "duration": 0.30000000000001137
                },
                {
                    "name": "D4",
                    "midi": 62,
                    "time": 193.19999999999976,
                    "velocity": 0.7244094488188977,
                    "duration": 0.30000000000001137
                },
                {
                    "name": "F#4",
                    "midi": 66,
                    "time": 193.49999999999977,
                    "velocity": 0.7244094488188977,
                    "duration": 0.30000000000001137
                },
                {
                    "name": "G4",
                    "midi": 67,
                    "time": 193.79999999999978,
                    "velocity": 0.7244094488188977,
                    "duration": 0.8000000000000114
                },
                {
                    "name": "F4",
                    "midi": 65,
                    "time": 194.6999999999998,
                    "velocity": 0.7244094488188977,
                    "duration": 0.30000000000001137
                },
                {
                    "name": "D#4",
                    "midi": 63,
                    "time": 194.9999999999998,
                    "velocity": 0.7244094488188977,
                    "duration": 0.30000000000001137
                },
                {
                    "name": "D4",
                    "midi": 62,
                    "time": 195.2999999999998,
                    "velocity": 0.7244094488188977,
                    "duration": 0.30000000000001137
                },
                {
                    "name": "C4",
                    "midi": 60,
                    "time": 195.59999999999982,
                    "velocity": 0.7244094488188977,
                    "duration": 0.29374999999998863
                },
                {
                    "name": "G2",
                    "midi": 43,
                    "time": 196.4999999999998,
                    "velocity": 0.7244094488188977,
                    "duration": 0.29374999999998863
                },
                {
                    "name": "C2",
                    "midi": 36,
                    "time": 197.39999999999978,
                    "velocity": 0.7244094488188977,
                    "duration": 0.5999999999999943
                },
                {
                    "name": "D#3",
                    "midi": 51,
                    "time": 199.19999999999976,
                    "velocity": 0.3543307086614173,
                    "duration": 0.5999999999999943
                },
                {
                    "name": "A#2",
                    "midi": 46,
                    "time": 200.09999999999977,
                    "velocity": 0.3543307086614173,
                    "duration": 0.5999999999999943
                },
                {
                    "name": "D#3",
                    "midi": 51,
                    "time": 200.99999999999977,
                    "velocity": 0.3543307086614173,
                    "duration": 0.5999999999999943
                },
                {
                    "name": "G2",
                    "midi": 43,
                    "time": 202.79999999999976,
                    "velocity": 0.3543307086614173,
                    "duration": 0.5999999999999943
                },
                {
                    "name": "D2",
                    "midi": 38,
                    "time": 203.69999999999976,
                    "velocity": 0.3543307086614173,
                    "duration": 0.5999999999999943
                },
                {
                    "name": "G2",
                    "midi": 43,
                    "time": 204.59999999999977,
                    "velocity": 0.3543307086614173,
                    "duration": 0.5999999999999943
                },
                {
                    "name": "F3",
                    "midi": 53,
                    "time": 206.39999999999975,
                    "velocity": 0.3543307086614173,
                    "duration": 0.5999999999999943
                },
                {
                    "name": "F3",
                    "midi": 53,
                    "time": 207.29999999999976,
                    "velocity": 0.3543307086614173,
                    "duration": 0.5999999999999943
                },
                {
                    "name": "F3",
                    "midi": 53,
                    "time": 208.19999999999976,
                    "velocity": 0.3543307086614173,
                    "duration": 0.9000000000000057
                },
                {
                    "name": "F3",
                    "midi": 53,
                    "time": 209.09999999999977,
                    "velocity": 0.3543307086614173,
                    "duration": 0.9000000000000057
                },
                {
                    "name": "F3",
                    "midi": 53,
                    "time": 209.99999999999977,
                    "velocity": 0.3543307086614173,
                    "duration": 0.9000000000000057
                },
                {
                    "name": "F3",
                    "midi": 53,
                    "time": 210.89999999999978,
                    "velocity": 0.3543307086614173,
                    "duration": 0.9000000000000057
                },
                {
                    "name": "F3",
                    "midi": 53,
                    "time": 211.79999999999978,
                    "velocity": 0.3543307086614173,
                    "duration": 0.9000000000000057
                },
                {
                    "name": "D#3",
                    "midi": 51,
                    "time": 212.6999999999998,
                    "velocity": 0.49606299212598426,
                    "duration": 1.1937499999999943
                },
                {
                    "name": "G#2",
                    "midi": 44,
                    "time": 213.89999999999978,
                    "velocity": 0.5905511811023622,
                    "duration": 0.30000000000001137
                },
                {
                    "name": "A#2",
                    "midi": 46,
                    "time": 214.1999999999998,
                    "velocity": 0.5905511811023622,
                    "duration": 0.30000000000001137
                },
                {
                    "name": "C3",
                    "midi": 48,
                    "time": 214.4999999999998,
                    "velocity": 0.5905511811023622,
                    "duration": 0.30000000000001137
                },
                {
                    "name": "D3",
                    "midi": 50,
                    "time": 214.7999999999998,
                    "velocity": 0.5905511811023622,
                    "duration": 0.30000000000001137
                },
                {
                    "name": "D#3",
                    "midi": 51,
                    "time": 215.09999999999982,
                    "velocity": 0.5905511811023622,
                    "duration": 0.30000000000001137
                },
                {
                    "name": "F3",
                    "midi": 53,
                    "time": 215.39999999999984,
                    "velocity": 0.5905511811023622,
                    "duration": 0.29374999999998863
                },
                {
                    "name": "C3",
                    "midi": 48,
                    "time": 215.69999999999982,
                    "velocity": 0.47244094488188976,
                    "duration": 0.09999999999999432
                },
                {
                    "name": "F2",
                    "midi": 41,
                    "time": 215.9999999999998,
                    "velocity": 0.47244094488188976,
                    "duration": 0.09999999999999432
                },
                {
                    "name": "A#2",
                    "midi": 46,
                    "time": 216.29999999999978,
                    "velocity": 0.6614173228346457,
                    "duration": 1.1937499999999943
                },
                {
                    "name": "A#2",
                    "midi": 46,
                    "time": 217.49999999999977,
                    "velocity": 0.7244094488188977,
                    "duration": 0.30000000000001137
                },
                {
                    "name": "C3",
                    "midi": 48,
                    "time": 217.79999999999978,
                    "velocity": 0.7244094488188977,
                    "duration": 0.30000000000001137
                },
                {
                    "name": "D3",
                    "midi": 50,
                    "time": 218.0999999999998,
                    "velocity": 0.7244094488188977,
                    "duration": 0.30000000000001137
                },
                {
                    "name": "D#3",
                    "midi": 51,
                    "time": 218.3999999999998,
                    "velocity": 0.7244094488188977,
                    "duration": 0.30000000000001137
                },
                {
                    "name": "F3",
                    "midi": 53,
                    "time": 218.69999999999982,
                    "velocity": 0.7244094488188977,
                    "duration": 0.30000000000001137
                },
                {
                    "name": "G3",
                    "midi": 55,
                    "time": 218.99999999999983,
                    "velocity": 0.7244094488188977,
                    "duration": 0.09999999999999432
                },
                {
                    "name": "D3",
                    "midi": 50,
                    "time": 219.2999999999998,
                    "velocity": 0.7244094488188977,
                    "duration": 0.09999999999999432
                },
                {
                    "name": "G2",
                    "midi": 43,
                    "time": 219.5999999999998,
                    "velocity": 0.7244094488188977,
                    "duration": 0.09999999999999432
                },
                {
                    "name": "G3",
                    "midi": 55,
                    "time": 219.89999999999978,
                    "velocity": 0.7244094488188977,
                    "duration": 0.15000000000000568
                },
                {
                    "name": "F#3",
                    "midi": 54,
                    "time": 220.04999999999978,
                    "velocity": 0.7244094488188977,
                    "duration": 0.09999999999999432
                },
                {
                    "name": "G3",
                    "midi": 55,
                    "time": 220.1999999999998,
                    "velocity": 0.7244094488188977,
                    "duration": 0.09999999999999432
                },
                {
                    "name": "A3",
                    "midi": 57,
                    "time": 220.3499999999998,
                    "velocity": 0.7244094488188977,
                    "duration": 0.09999999999999432
                },
                {
                    "name": "A#3",
                    "midi": 58,
                    "time": 220.4999999999998,
                    "velocity": 0.7244094488188977,
                    "duration": 0.09999999999999432
                },
                {
                    "name": "B3",
                    "midi": 59,
                    "time": 220.6499999999998,
                    "velocity": 0.7244094488188977,
                    "duration": 0.09999999999999432
                },
                {
                    "name": "C4",
                    "midi": 60,
                    "time": 220.7999999999998,
                    "velocity": 0.7244094488188977,
                    "duration": 0.09999999999999432
                },
                {
                    "name": "C4",
                    "midi": 60,
                    "time": 221.0999999999998,
                    "velocity": 0.7244094488188977,
                    "duration": 0.09999999999999432
                },
                {
                    "name": "G#3",
                    "midi": 56,
                    "time": 221.6999999999998,
                    "velocity": 0.3543307086614173,
                    "duration": 0.09999999999999432
                },
                {
                    "name": "G#3",
                    "midi": 56,
                    "time": 221.99999999999977,
                    "velocity": 0.3543307086614173,
                    "duration": 0.09999999999999432
                },
                {
                    "name": "G3",
                    "midi": 55,
                    "time": 222.59999999999977,
                    "velocity": 0.3543307086614173,
                    "duration": 0.09999999999999432
                },
                {
                    "name": "G3",
                    "midi": 55,
                    "time": 222.89999999999975,
                    "velocity": 0.3543307086614173,
                    "duration": 0.09999999999999432
                },
                {
                    "name": "G2",
                    "midi": 43,
                    "time": 223.49999999999974,
                    "velocity": 0.7244094488188977,
                    "duration": 0.15000000000000568
                },
                {
                    "name": "F#2",
                    "midi": 42,
                    "time": 223.64999999999975,
                    "velocity": 0.7244094488188977,
                    "duration": 0.09999999999999432
                },
                {
                    "name": "G2",
                    "midi": 43,
                    "time": 223.79999999999976,
                    "velocity": 0.7244094488188977,
                    "duration": 0.09999999999999432
                },
                {
                    "name": "A2",
                    "midi": 45,
                    "time": 223.94999999999976,
                    "velocity": 0.7244094488188977,
                    "duration": 0.09999999999999432
                },
                {
                    "name": "A#2",
                    "midi": 46,
                    "time": 224.09999999999977,
                    "velocity": 0.7244094488188977,
                    "duration": 0.09999999999999432
                },
                {
                    "name": "B2",
                    "midi": 47,
                    "time": 224.24999999999977,
                    "velocity": 0.7244094488188977,
                    "duration": 0.09999999999999432
                },
                {
                    "name": "C3",
                    "midi": 48,
                    "time": 224.39999999999978,
                    "velocity": 0.7244094488188977,
                    "duration": 0.09999999999999432
                },
                {
                    "name": "C3",
                    "midi": 48,
                    "time": 224.69999999999976,
                    "velocity": 0.7244094488188977,
                    "duration": 0.09999999999999432
                },
                {
                    "name": "C4",
                    "midi": 60,
                    "time": 225.29999999999976,
                    "velocity": 0.3543307086614173,
                    "duration": 0.09999999999999432
                },
                {
                    "name": "C4",
                    "midi": 60,
                    "time": 225.59999999999974,
                    "velocity": 0.3543307086614173,
                    "duration": 0.09999999999999432
                },
                {
                    "name": "D4",
                    "midi": 62,
                    "time": 226.19999999999973,
                    "velocity": 0.3543307086614173,
                    "duration": 0.5999999999999943
                },
                {
                    "name": "G4",
                    "midi": 67,
                    "time": 228.89999999999972,
                    "velocity": 0.3543307086614173,
                    "duration": 0.09999999999999432
                },
                {
                    "name": "G4",
                    "midi": 67,
                    "time": 229.1999999999997,
                    "velocity": 0.3543307086614173,
                    "duration": 0.09999999999999432
                },
                {
                    "name": "G4",
                    "midi": 67,
                    "time": 229.4999999999997,
                    "velocity": 0.3543307086614173,
                    "duration": 0.09999999999999432
                },
                {
                    "name": "G3",
                    "midi": 55,
                    "time": 229.79999999999967,
                    "velocity": 0.3543307086614173,
                    "duration": 0.09999999999999432
                },
                {
                    "name": "G3",
                    "midi": 55,
                    "time": 230.09999999999965,
                    "velocity": 0.3543307086614173,
                    "duration": 0.09999999999999432
                },
                {
                    "name": "G3",
                    "midi": 55,
                    "time": 230.39999999999964,
                    "velocity": 0.3543307086614173,
                    "duration": 0.09999999999999432
                },
                {
                    "name": "G2",
                    "midi": 43,
                    "time": 230.69999999999962,
                    "velocity": 0.3543307086614173,
                    "duration": 0.09999999999999432
                },
                {
                    "name": "G2",
                    "midi": 43,
                    "time": 230.9999999999996,
                    "velocity": 0.3543307086614173,
                    "duration": 0.09999999999999432
                },
                {
                    "name": "G2",
                    "midi": 43,
                    "time": 231.29999999999959,
                    "velocity": 0.3543307086614173,
                    "duration": 0.09999999999999432
                },
                {
                    "name": "C3",
                    "midi": 48,
                    "time": 232.49999999999957,
                    "velocity": 0.3543307086614173,
                    "duration": 0.09999999999999432
                },
                {
                    "name": "C3",
                    "midi": 48,
                    "time": 232.79999999999956,
                    "velocity": 0.3543307086614173,
                    "duration": 0.09999999999999432
                },
                {
                    "name": "D3",
                    "midi": 50,
                    "time": 233.39999999999955,
                    "velocity": 0.3543307086614173,
                    "duration": 0.09999999999999432
                },
                {
                    "name": "D3",
                    "midi": 50,
                    "time": 233.69999999999953,
                    "velocity": 0.3543307086614173,
                    "duration": 0.09999999999999432
                },
                {
                    "name": "G3",
                    "midi": 55,
                    "time": 234.29999999999953,
                    "velocity": 0.3543307086614173,
                    "duration": 0.09999999999999432
                },
                {
                    "name": "G3",
                    "midi": 55,
                    "time": 234.5999999999995,
                    "velocity": 0.3543307086614173,
                    "duration": 0.09999999999999432
                },
                {
                    "name": "G2",
                    "midi": 43,
                    "time": 235.1999999999995,
                    "velocity": 0.3543307086614173,
                    "duration": 0.09999999999999432
                },
                {
                    "name": "G2",
                    "midi": 43,
                    "time": 235.4999999999995,
                    "velocity": 0.3543307086614173,
                    "duration": 0.09999999999999432
                },
                {
                    "name": "C3",
                    "midi": 48,
                    "time": 236.09999999999948,
                    "velocity": 0.3543307086614173,
                    "duration": 0.09999999999999432
                },
                {
                    "name": "C3",
                    "midi": 48,
                    "time": 236.39999999999947,
                    "velocity": 0.3543307086614173,
                    "duration": 0.09999999999999432
                },
                {
                    "name": "F#3",
                    "midi": 54,
                    "time": 236.99999999999946,
                    "velocity": 0.3543307086614173,
                    "duration": 0.09999999999999432
                },
                {
                    "name": "F#3",
                    "midi": 54,
                    "time": 237.29999999999944,
                    "velocity": 0.3543307086614173,
                    "duration": 0.09999999999999432
                },
                {
                    "name": "G3",
                    "midi": 55,
                    "time": 237.89999999999944,
                    "velocity": 0.3543307086614173,
                    "duration": 0.5999999999999943
                },
                {
                    "name": "G2",
                    "midi": 43,
                    "time": 238.79999999999944,
                    "velocity": 0.49606299212598426,
                    "duration": 0.9000000000000057
                },
                {
                    "name": "C3",
                    "midi": 48,
                    "time": 239.69999999999945,
                    "velocity": 0.3543307086614173,
                    "duration": 0.09999999999999432
                },
                {
                    "name": "C3",
                    "midi": 48,
                    "time": 239.99999999999943,
                    "velocity": 0.3543307086614173,
                    "duration": 0.09999999999999432
                },
                {
                    "name": "C3",
                    "midi": 48,
                    "time": 240.59999999999943,
                    "velocity": 0.3543307086614173,
                    "duration": 0.09999999999999432
                },
                {
                    "name": "C3",
                    "midi": 48,
                    "time": 240.8999999999994,
                    "velocity": 0.3543307086614173,
                    "duration": 0.09999999999999432
                },
                {
                    "name": "F2",
                    "midi": 41,
                    "time": 241.4999999999994,
                    "velocity": 0.3543307086614173,
                    "duration": 0.09999999999999432
                },
                {
                    "name": "F2",
                    "midi": 41,
                    "time": 241.7999999999994,
                    "velocity": 0.3543307086614173,
                    "duration": 0.09999999999999432
                },
                {
                    "name": "F2",
                    "midi": 41,
                    "time": 242.39999999999938,
                    "velocity": 0.3543307086614173,
                    "duration": 0.09999999999999432
                },
                {
                    "name": "F2",
                    "midi": 41,
                    "time": 242.69999999999936,
                    "velocity": 0.3543307086614173,
                    "duration": 0.09999999999999432
                },
                {
                    "name": "C2",
                    "midi": 36,
                    "time": 243.29999999999936,
                    "velocity": 0.3543307086614173,
                    "duration": 0.09999999999999432
                },
                {
                    "name": "G2",
                    "midi": 43,
                    "time": 244.19999999999936,
                    "velocity": 0.3543307086614173,
                    "duration": 0.09999999999999432
                },
                {
                    "name": "C2",
                    "midi": 36,
                    "time": 245.09999999999937,
                    "velocity": 0.3543307086614173,
                    "duration": 0.5999999999999943
                },
                {
                    "name": "C4",
                    "midi": 60,
                    "time": 247.19999999999936,
                    "velocity": 0.7244094488188977,
                    "duration": 0.30000000000001137
                },
                {
                    "name": "D4",
                    "midi": 62,
                    "time": 247.49999999999937,
                    "velocity": 0.7244094488188977,
                    "duration": 0.30000000000001137
                },
                {
                    "name": "D#4",
                    "midi": 63,
                    "time": 247.7999999999994,
                    "velocity": 0.7244094488188977,
                    "duration": 0.30000000000001137
                },
                {
                    "name": "F4",
                    "midi": 65,
                    "time": 248.0999999999994,
                    "velocity": 0.7244094488188977,
                    "duration": 0.30000000000001137
                },
                {
                    "name": "F#4",
                    "midi": 66,
                    "time": 248.3999999999994,
                    "velocity": 0.7244094488188977,
                    "duration": 0.30000000000001137
                },
                {
                    "name": "G4",
                    "midi": 67,
                    "time": 248.69999999999942,
                    "velocity": 0.7244094488188977,
                    "duration": 0.9000000000000057
                },
                {
                    "name": "F4",
                    "midi": 65,
                    "time": 249.59999999999943,
                    "velocity": 0.7244094488188977,
                    "duration": 0.8000000000000114
                },
                {
                    "name": "D#4",
                    "midi": 63,
                    "time": 250.49999999999943,
                    "velocity": 0.7244094488188977,
                    "duration": 0.5999999999999943
                },
                {
                    "name": "D4",
                    "midi": 62,
                    "time": 251.09999999999943,
                    "velocity": 0.7244094488188977,
                    "duration": 0.30000000000001137
                },
                {
                    "name": "C4",
                    "midi": 60,
                    "time": 251.39999999999944,
                    "velocity": 0.7244094488188977,
                    "duration": 0.30000000000001137
                },
                {
                    "name": "B3",
                    "midi": 59,
                    "time": 251.69999999999945,
                    "velocity": 0.7244094488188977,
                    "duration": 0.30000000000001137
                },
                {
                    "name": "C4",
                    "midi": 60,
                    "time": 251.99999999999946,
                    "velocity": 0.7244094488188977,
                    "duration": 0.30000000000001137
                },
                {
                    "name": "D4",
                    "midi": 62,
                    "time": 252.29999999999947,
                    "velocity": 0.7244094488188977,
                    "duration": 0.5
                },
                {
                    "name": "G3",
                    "midi": 55,
                    "time": 253.19999999999948,
                    "velocity": 0.7244094488188977,
                    "duration": 1.1937499999999943
                },
                {
                    "name": "C4",
                    "midi": 60,
                    "time": 254.39999999999947,
                    "velocity": 0.7244094488188977,
                    "duration": 0.30000000000001137
                },
                {
                    "name": "D4",
                    "midi": 62,
                    "time": 254.69999999999948,
                    "velocity": 0.7244094488188977,
                    "duration": 0.30000000000001137
                },
                {
                    "name": "C4",
                    "midi": 60,
                    "time": 254.9999999999995,
                    "velocity": 0.7244094488188977,
                    "duration": 0.30000000000001137
                },
                {
                    "name": "D4",
                    "midi": 62,
                    "time": 255.2999999999995,
                    "velocity": 0.7244094488188977,
                    "duration": 0.30000000000001137
                },
                {
                    "name": "F#4",
                    "midi": 66,
                    "time": 255.5999999999995,
                    "velocity": 0.7244094488188977,
                    "duration": 0.30000000000001137
                },
                {
                    "name": "G4",
                    "midi": 67,
                    "time": 255.89999999999952,
                    "velocity": 0.7244094488188977,
                    "duration": 0.8000000000000114
                },
                {
                    "name": "F4",
                    "midi": 65,
                    "time": 256.79999999999956,
                    "velocity": 0.7244094488188977,
                    "duration": 0.30000000000001137
                },
                {
                    "name": "D#4",
                    "midi": 63,
                    "time": 257.09999999999957,
                    "velocity": 0.7244094488188977,
                    "duration": 0.30000000000001137
                },
                {
                    "name": "D4",
                    "midi": 62,
                    "time": 257.3999999999996,
                    "velocity": 0.7244094488188977,
                    "duration": 0.30000000000001137
                },
                {
                    "name": "C4",
                    "midi": 60,
                    "time": 257.6999999999996,
                    "velocity": 0.7244094488188977,
                    "duration": 0.29374999999998863
                },
                {
                    "name": "G2",
                    "midi": 43,
                    "time": 258.59999999999957,
                    "velocity": 0.7244094488188977,
                    "duration": 0.29374999999998863
                },
                {
                    "name": "C2",
                    "midi": 36,
                    "time": 259.49999999999955,
                    "velocity": 0.7244094488188977,
                    "duration": 0.6000000000000227
                },
                {
                    "name": "C3",
                    "midi": 48,
                    "time": 260.3999999999996,
                    "velocity": 1,
                    "duration": 0.10000000000002274
                },
                {
                    "name": "B2",
                    "midi": 47,
                    "time": 260.6999999999996,
                    "velocity": 1,
                    "duration": 0.10000000000002274
                },
                {
                    "name": "G3",
                    "midi": 55,
                    "time": 260.6999999999996,
                    "velocity": 1,
                    "duration": 0.10000000000002274
                },
                {
                    "name": "A#2",
                    "midi": 46,
                    "time": 260.9999999999996,
                    "velocity": 1,
                    "duration": 0.10000000000002274
                },
                {
                    "name": "D#3",
                    "midi": 51,
                    "time": 260.9999999999996,
                    "velocity": 1,
                    "duration": 0.10000000000002274
                },
                {
                    "name": "G#2",
                    "midi": 44,
                    "time": 261.2999999999996,
                    "velocity": 1,
                    "duration": 0.10000000000002274
                },
                {
                    "name": "F3",
                    "midi": 53,
                    "time": 261.2999999999996,
                    "velocity": 1,
                    "duration": 0.10000000000002274
                },
                {
                    "name": "G2",
                    "midi": 43,
                    "time": 261.5999999999996,
                    "velocity": 1,
                    "duration": 0.10000000000002274
                },
                {
                    "name": "G3",
                    "midi": 55,
                    "time": 261.5999999999996,
                    "velocity": 1,
                    "duration": 0.10000000000002274
                },
                {
                    "name": "F2",
                    "midi": 41,
                    "time": 261.89999999999964,
                    "velocity": 1,
                    "duration": 0.10000000000002274
                },
                {
                    "name": "F3",
                    "midi": 53,
                    "time": 261.89999999999964,
                    "velocity": 1,
                    "duration": 0.10000000000002274
                },
                {
                    "name": "A#2",
                    "midi": 46,
                    "time": 262.19999999999965,
                    "velocity": 1,
                    "duration": 0.10000000000002274
                },
                {
                    "name": "G3",
                    "midi": 55,
                    "time": 262.19999999999965,
                    "velocity": 1,
                    "duration": 0.10000000000002274
                },
                {
                    "name": "A2",
                    "midi": 45,
                    "time": 262.49999999999966,
                    "velocity": 1,
                    "duration": 0.10000000000002274
                },
                {
                    "name": "F3",
                    "midi": 53,
                    "time": 262.49999999999966,
                    "velocity": 1,
                    "duration": 0.10000000000002274
                },
                {
                    "name": "G#2",
                    "midi": 44,
                    "time": 262.79999999999967,
                    "velocity": 1,
                    "duration": 0.10000000000002274
                },
                {
                    "name": "A#3",
                    "midi": 58,
                    "time": 262.79999999999967,
                    "velocity": 1,
                    "duration": 0.10000000000002274
                },
                {
                    "name": "G2",
                    "midi": 43,
                    "time": 263.0999999999997,
                    "velocity": 1,
                    "duration": 0.10000000000002274
                },
                {
                    "name": "D#4",
                    "midi": 63,
                    "time": 263.0999999999997,
                    "velocity": 1,
                    "duration": 0.10000000000002274
                },
                {
                    "name": "F2",
                    "midi": 41,
                    "time": 263.3999999999997,
                    "velocity": 1,
                    "duration": 0.10000000000002274
                },
                {
                    "name": "A#3",
                    "midi": 58,
                    "time": 263.3999999999997,
                    "velocity": 1,
                    "duration": 0.10000000000002274
                },
                {
                    "name": "D#2",
                    "midi": 39,
                    "time": 263.6999999999997,
                    "velocity": 1,
                    "duration": 0.10000000000002274
                },
                {
                    "name": "D#4",
                    "midi": 63,
                    "time": 263.6999999999997,
                    "velocity": 1,
                    "duration": 0.10000000000002274
                },
                {
                    "name": "F2",
                    "midi": 41,
                    "time": 263.9999999999997,
                    "velocity": 1,
                    "duration": 0.10000000000002274
                },
                {
                    "name": "C4",
                    "midi": 60,
                    "time": 263.9999999999997,
                    "velocity": 1,
                    "duration": 0.10000000000002274
                },
                {
                    "name": "G2",
                    "midi": 43,
                    "time": 264.89999999999975,
                    "velocity": 1,
                    "duration": 0.10000000000002274
                },
                {
                    "name": "C4",
                    "midi": 60,
                    "time": 264.89999999999975,
                    "velocity": 1,
                    "duration": 0.10000000000002274
                },
                {
                    "name": "G2",
                    "midi": 43,
                    "time": 265.7999999999998,
                    "velocity": 1,
                    "duration": 0.10000000000002274
                },
                {
                    "name": "B3",
                    "midi": 59,
                    "time": 265.7999999999998,
                    "velocity": 1,
                    "duration": 0.10000000000002274
                },
                {
                    "name": "C2",
                    "midi": 36,
                    "time": 266.6999999999998,
                    "velocity": 0.7244094488188977,
                    "duration": 0.6000000000000227
                },
                {
                    "name": "C4",
                    "midi": 60,
                    "time": 266.6999999999998,
                    "velocity": 0.7244094488188977,
                    "duration": 0.6000000000000227
                },
                {
                    "name": "C3",
                    "midi": 48,
                    "time": 267.29999999999984,
                    "velocity": 0.7244094488188977,
                    "duration": 0.29374999999998863
                },
                {
                    "name": "C3",
                    "midi": 48,
                    "time": 267.59999999999985,
                    "velocity": 1,
                    "duration": 0.10000000000002274
                },
                {
                    "name": "B2",
                    "midi": 47,
                    "time": 267.89999999999986,
                    "velocity": 1,
                    "duration": 0.10000000000002274
                },
                {
                    "name": "G3",
                    "midi": 55,
                    "time": 267.89999999999986,
                    "velocity": 1,
                    "duration": 0.10000000000002274
                },
                {
                    "name": "A#2",
                    "midi": 46,
                    "time": 268.1999999999999,
                    "velocity": 1,
                    "duration": 0.10000000000002274
                },
                {
                    "name": "D#3",
                    "midi": 51,
                    "time": 268.1999999999999,
                    "velocity": 1,
                    "duration": 0.10000000000002274
                },
                {
                    "name": "G#2",
                    "midi": 44,
                    "time": 268.4999999999999,
                    "velocity": 1,
                    "duration": 0.10000000000002274
                },
                {
                    "name": "F3",
                    "midi": 53,
                    "time": 268.4999999999999,
                    "velocity": 1,
                    "duration": 0.10000000000002274
                },
                {
                    "name": "G2",
                    "midi": 43,
                    "time": 268.7999999999999,
                    "velocity": 1,
                    "duration": 0.10000000000002274
                },
                {
                    "name": "G3",
                    "midi": 55,
                    "time": 268.7999999999999,
                    "velocity": 1,
                    "duration": 0.10000000000002274
                },
                {
                    "name": "F2",
                    "midi": 41,
                    "time": 269.0999999999999,
                    "velocity": 1,
                    "duration": 0.10000000000002274
                },
                {
                    "name": "F3",
                    "midi": 53,
                    "time": 269.0999999999999,
                    "velocity": 1,
                    "duration": 0.10000000000002274
                },
                {
                    "name": "A#2",
                    "midi": 46,
                    "time": 269.3999999999999,
                    "velocity": 1,
                    "duration": 0.10000000000002274
                },
                {
                    "name": "G3",
                    "midi": 55,
                    "time": 269.3999999999999,
                    "velocity": 1,
                    "duration": 0.10000000000002274
                },
                {
                    "name": "A2",
                    "midi": 45,
                    "time": 269.69999999999993,
                    "velocity": 1,
                    "duration": 0.10000000000002274
                },
                {
                    "name": "F3",
                    "midi": 53,
                    "time": 269.69999999999993,
                    "velocity": 1,
                    "duration": 0.10000000000002274
                },
                {
                    "name": "G#2",
                    "midi": 44,
                    "time": 269.99999999999994,
                    "velocity": 1,
                    "duration": 0.10000000000002274
                },
                {
                    "name": "A#3",
                    "midi": 58,
                    "time": 269.99999999999994,
                    "velocity": 1,
                    "duration": 0.10000000000002274
                },
                {
                    "name": "G2",
                    "midi": 43,
                    "time": 270.29999999999995,
                    "velocity": 1,
                    "duration": 0.10000000000002274
                },
                {
                    "name": "D#4",
                    "midi": 63,
                    "time": 270.29999999999995,
                    "velocity": 1,
                    "duration": 0.10000000000002274
                },
                {
                    "name": "F2",
                    "midi": 41,
                    "time": 270.59999999999997,
                    "velocity": 1,
                    "duration": 0.10000000000002274
                },
                {
                    "name": "A#3",
                    "midi": 58,
                    "time": 270.59999999999997,
                    "velocity": 1,
                    "duration": 0.10000000000002274
                },
                {
                    "name": "D#2",
                    "midi": 39,
                    "time": 270.9,
                    "velocity": 1,
                    "duration": 0.10000000000002274
                },
                {
                    "name": "D#4",
                    "midi": 63,
                    "time": 270.9,
                    "velocity": 1,
                    "duration": 0.10000000000002274
                },
                {
                    "name": "F2",
                    "midi": 41,
                    "time": 271.2,
                    "velocity": 1,
                    "duration": 0.10000000000002274
                },
                {
                    "name": "C4",
                    "midi": 60,
                    "time": 271.2,
                    "velocity": 1,
                    "duration": 0.10000000000002274
                },
                {
                    "name": "G2",
                    "midi": 43,
                    "time": 272.1,
                    "velocity": 1,
                    "duration": 0.10000000000002274
                },
                {
                    "name": "C4",
                    "midi": 60,
                    "time": 272.1,
                    "velocity": 1,
                    "duration": 0.10000000000002274
                },
                {
                    "name": "G2",
                    "midi": 43,
                    "time": 273.00000000000006,
                    "velocity": 1,
                    "duration": 0.10000000000002274
                },
                {
                    "name": "B3",
                    "midi": 59,
                    "time": 273.00000000000006,
                    "velocity": 1,
                    "duration": 0.10000000000002274
                },
                {
                    "name": "C2",
                    "midi": 36,
                    "time": 273.9000000000001,
                    "velocity": 0.7244094488188977,
                    "duration": 0.6000000000000227
                },
                {
                    "name": "C4",
                    "midi": 60,
                    "time": 273.9000000000001,
                    "velocity": 0.7244094488188977,
                    "duration": 0.6000000000000227
                },
                {
                    "name": "C3",
                    "midi": 48,
                    "time": 274.5000000000001,
                    "velocity": 0.47244094488188976,
                    "duration": 0.29374999999998863
                },
                {
                    "name": "G2",
                    "midi": 43,
                    "time": 274.8000000000001,
                    "velocity": 0.47244094488188976,
                    "duration": 0.6000000000000227
                },
                {
                    "name": "D3",
                    "midi": 50,
                    "time": 275.40000000000015,
                    "velocity": 0.47244094488188976,
                    "duration": 0.30000000000001137
                },
                {
                    "name": "G3",
                    "midi": 55,
                    "time": 275.70000000000016,
                    "velocity": 0.47244094488188976,
                    "duration": 0.6000000000000227
                },
                {
                    "name": "C3",
                    "midi": 48,
                    "time": 276.3000000000002,
                    "velocity": 0.47244094488188976,
                    "duration": 0.30000000000001137
                },
                {
                    "name": "G2",
                    "midi": 43,
                    "time": 276.6000000000002,
                    "velocity": 0.47244094488188976,
                    "duration": 0.6000000000000227
                },
                {
                    "name": "G2",
                    "midi": 43,
                    "time": 277.2000000000002,
                    "velocity": 0.47244094488188976,
                    "duration": 0.30000000000001137
                },
                {
                    "name": "C2",
                    "midi": 36,
                    "time": 277.5000000000002,
                    "velocity": 0.47244094488188976,
                    "duration": 0.5
                },
                {
                    "name": "C3",
                    "midi": 48,
                    "time": 278.10000000000025,
                    "velocity": 0.7244094488188977,
                    "duration": 0.30000000000001137
                },
                {
                    "name": "G2",
                    "midi": 43,
                    "time": 278.40000000000026,
                    "velocity": 0.7244094488188977,
                    "duration": 0.6000000000000227
                },
                {
                    "name": "D3",
                    "midi": 50,
                    "time": 279.0000000000003,
                    "velocity": 0.7244094488188977,
                    "duration": 0.30000000000001137
                },
                {
                    "name": "C3",
                    "midi": 48,
                    "time": 279.3000000000003,
                    "velocity": 0.7244094488188977,
                    "duration": 0.6000000000000227
                },
                {
                    "name": "G3",
                    "midi": 55,
                    "time": 279.9000000000003,
                    "velocity": 0.7244094488188977,
                    "duration": 0.29374999999998863
                },
                {
                    "name": "G3",
                    "midi": 55,
                    "time": 280.20000000000033,
                    "velocity": 0.7244094488188977,
                    "duration": 0.29374999999998863
                },
                {
                    "name": "F3",
                    "midi": 53,
                    "time": 280.50000000000034,
                    "velocity": 0.7244094488188977,
                    "duration": 0.29374999999998863
                },
                {
                    "name": "D3",
                    "midi": 50,
                    "time": 280.80000000000035,
                    "velocity": 0.7244094488188977,
                    "duration": 0.29374999999998863
                },
                {
                    "name": "C3",
                    "midi": 48,
                    "time": 281.10000000000036,
                    "velocity": 0.7244094488188977,
                    "duration": 0.29374999999998863
                },
                {
                    "name": "C3",
                    "midi": 48,
                    "time": 281.4000000000004,
                    "velocity": 0.7244094488188977,
                    "duration": 0.29374999999998863
                },
                {
                    "name": "C3",
                    "midi": 48,
                    "time": 281.7000000000004,
                    "velocity": 0.7244094488188977,
                    "duration": 0.29374999999998863
                },
                {
                    "name": "G2",
                    "midi": 43,
                    "time": 282.0000000000004,
                    "velocity": 0.7244094488188977,
                    "duration": 0.29374999999998863
                },
                {
                    "name": "G2",
                    "midi": 43,
                    "time": 282.3000000000004,
                    "velocity": 0.7244094488188977,
                    "duration": 0.29374999999998863
                },
                {
                    "name": "G2",
                    "midi": 43,
                    "time": 282.6000000000004,
                    "velocity": 0.7244094488188977,
                    "duration": 0.29374999999998863
                },
                {
                    "name": "C3",
                    "midi": 48,
                    "time": 282.90000000000043,
                    "velocity": 0.7244094488188977,
                    "duration": 0.29374999999998863
                },
                {
                    "name": "G2",
                    "midi": 43,
                    "time": 283.20000000000044,
                    "velocity": 0.7244094488188977,
                    "duration": 0.29374999999998863
                },
                {
                    "name": "D#2",
                    "midi": 39,
                    "time": 283.50000000000045,
                    "velocity": 0.7244094488188977,
                    "duration": 0.29374999999998863
                },
                {
                    "name": "C2",
                    "midi": 36,
                    "time": 283.80000000000047,
                    "velocity": 0.7244094488188977,
                    "duration": 0.29374999999998863
                },
                {
                    "name": "C3",
                    "midi": 48,
                    "time": 284.1000000000005,
                    "velocity": 0.7244094488188977,
                    "duration": 0.29374999999998863
                },
                {
                    "name": "G2",
                    "midi": 43,
                    "time": 284.4000000000005,
                    "velocity": 0.7244094488188977,
                    "duration": 0.29374999999998863
                },
                {
                    "name": "C3",
                    "midi": 48,
                    "time": 284.7000000000005,
                    "velocity": 0.7244094488188977,
                    "duration": 0.6000000000000227
                },
                {
                    "name": "C4",
                    "midi": 60,
                    "time": 285.60000000000053,
                    "velocity": 0.7244094488188977,
                    "duration": 0.6000000000000227
                },
                {
                    "name": "C2",
                    "midi": 36,
                    "time": 286.35000000000053,
                    "velocity": 0.7244094488188977,
                    "duration": 0.10000000000002274
                },
                {
                    "name": "G2",
                    "midi": 43,
                    "time": 286.35000000000053,
                    "velocity": 0.7244094488188977,
                    "duration": 0.10000000000002274
                },
                {
                    "name": "C2",
                    "midi": 36,
                    "time": 286.50000000000057,
                    "velocity": 0.7244094488188977,
                    "duration": 0.8999999999999773
                },
                {
                    "name": "G2",
                    "midi": 43,
                    "time": 286.50000000000057,
                    "velocity": 0.7244094488188977,
                    "duration": 0.8999999999999773
                }
            ],
            "controlChanges": {
                "7": [
                    {
                        "number": 7,
                        "time": 0,
                        "value": 0.84251968503937
                    }
                ],
                "10": [
                    {
                        "number": 10,
                        "time": 0,
                        "value": 0.5511811023622047
                    }
                ],
                "91": [
                    {
                        "number": 91,
                        "time": 0,
                        "value": 0.33070866141732286
                    }
                ]
            },
            "id": 9,
            "name": "copyright G. Pollen",
            "instrumentNumber": 70,
            "instrument": "bassoon",
            "instrumentFamily": "reed",
            "channelNumber": 4,
            "isPercussion": false
        },
        {
            "startTime": 1.5,
            "duration": 287.4000000000003,
            "length": 724,
            "notes": [
                {
                    "name": "D#4",
                    "midi": 63,
                    "time": 1.5,
                    "velocity": 0.3543307086614173,
                    "duration": 0.10000000000000009
                },
                {
                    "name": "C4",
                    "midi": 60,
                    "time": 1.5,
                    "velocity": 0.3543307086614173,
                    "duration": 0.10000000000000009
                },
                {
                    "name": "C4",
                    "midi": 60,
                    "time": 2.4,
                    "velocity": 0.3543307086614173,
                    "duration": 0.10000000000000009
                },
                {
                    "name": "F4",
                    "midi": 65,
                    "time": 2.4,
                    "velocity": 0.3543307086614173,
                    "duration": 0.10000000000000009
                },
                {
                    "name": "B3",
                    "midi": 59,
                    "time": 3.3,
                    "velocity": 0.3543307086614173,
                    "duration": 0.10000000000000009
                },
                {
                    "name": "G4",
                    "midi": 67,
                    "time": 3.3,
                    "velocity": 0.3543307086614173,
                    "duration": 0.10000000000000009
                },
                {
                    "name": "B3",
                    "midi": 59,
                    "time": 4.2,
                    "velocity": 0.3543307086614173,
                    "duration": 0.09999999999999964
                },
                {
                    "name": "F4",
                    "midi": 65,
                    "time": 4.2,
                    "velocity": 0.3543307086614173,
                    "duration": 0.09999999999999964
                },
                {
                    "name": "C4",
                    "midi": 60,
                    "time": 5.1,
                    "velocity": 0.3543307086614173,
                    "duration": 0.09999999999999964
                },
                {
                    "name": "D#4",
                    "midi": 63,
                    "time": 5.1,
                    "velocity": 0.3543307086614173,
                    "duration": 0.09999999999999964
                },
                {
                    "name": "C4",
                    "midi": 60,
                    "time": 5.999999999999999,
                    "velocity": 0.3543307086614173,
                    "duration": 0.09999999999999964
                },
                {
                    "name": "D#4",
                    "midi": 63,
                    "time": 5.999999999999999,
                    "velocity": 0.3543307086614173,
                    "duration": 0.09999999999999964
                },
                {
                    "name": "B3",
                    "midi": 59,
                    "time": 6.599999999999999,
                    "velocity": 0.3543307086614173,
                    "duration": 0.5999999999999996
                },
                {
                    "name": "G4",
                    "midi": 67,
                    "time": 6.599999999999999,
                    "velocity": 0.3543307086614173,
                    "duration": 0.5999999999999996
                },
                {
                    "name": "B3",
                    "midi": 59,
                    "time": 7.499999999999998,
                    "velocity": 0.3543307086614173,
                    "duration": 0.9000000000000004
                },
                {
                    "name": "F4",
                    "midi": 65,
                    "time": 7.499999999999998,
                    "velocity": 0.3543307086614173,
                    "duration": 0.9000000000000004
                },
                {
                    "name": "C4",
                    "midi": 60,
                    "time": 8.399999999999999,
                    "velocity": 0.3543307086614173,
                    "duration": 0.09999999999999964
                },
                {
                    "name": "D#4",
                    "midi": 63,
                    "time": 8.399999999999999,
                    "velocity": 0.3543307086614173,
                    "duration": 0.09999999999999964
                },
                {
                    "name": "C4",
                    "midi": 60,
                    "time": 8.699999999999998,
                    "velocity": 0.3543307086614173,
                    "duration": 0.09999999999999964
                },
                {
                    "name": "D#4",
                    "midi": 63,
                    "time": 8.699999999999998,
                    "velocity": 0.3543307086614173,
                    "duration": 0.09999999999999964
                },
                {
                    "name": "C4",
                    "midi": 60,
                    "time": 9.599999999999998,
                    "velocity": 0.3543307086614173,
                    "duration": 0.09999999999999964
                },
                {
                    "name": "F#4",
                    "midi": 66,
                    "time": 9.599999999999998,
                    "velocity": 0.3543307086614173,
                    "duration": 0.09999999999999964
                },
                {
                    "name": "B3",
                    "midi": 59,
                    "time": 10.499999999999998,
                    "velocity": 0.3543307086614173,
                    "duration": 0.09999999999999964
                },
                {
                    "name": "G4",
                    "midi": 67,
                    "time": 10.499999999999998,
                    "velocity": 0.3543307086614173,
                    "duration": 0.09999999999999964
                },
                {
                    "name": "B3",
                    "midi": 59,
                    "time": 11.399999999999999,
                    "velocity": 0.3543307086614173,
                    "duration": 0.09999999999999964
                },
                {
                    "name": "F4",
                    "midi": 65,
                    "time": 11.399999999999999,
                    "velocity": 0.3543307086614173,
                    "duration": 0.09999999999999964
                },
                {
                    "name": "C4",
                    "midi": 60,
                    "time": 11.999999999999998,
                    "velocity": 0.3543307086614173,
                    "duration": 0.09999999999999964
                },
                {
                    "name": "D#4",
                    "midi": 63,
                    "time": 11.999999999999998,
                    "velocity": 0.3543307086614173,
                    "duration": 0.09999999999999964
                },
                {
                    "name": "B3",
                    "midi": 59,
                    "time": 12.899999999999999,
                    "velocity": 0.3543307086614173,
                    "duration": 0.09999999999999964
                },
                {
                    "name": "F4",
                    "midi": 65,
                    "time": 12.899999999999999,
                    "velocity": 0.3543307086614173,
                    "duration": 0.09999999999999964
                },
                {
                    "name": "C4",
                    "midi": 60,
                    "time": 13.799999999999999,
                    "velocity": 0.3543307086614173,
                    "duration": 0.5999999999999996
                },
                {
                    "name": "D#4",
                    "midi": 63,
                    "time": 13.799999999999999,
                    "velocity": 0.3543307086614173,
                    "duration": 0.5999999999999996
                },
                {
                    "name": "C4",
                    "midi": 60,
                    "time": 15.899999999999999,
                    "velocity": 0.7244094488188977,
                    "duration": 0.3000000000000007
                },
                {
                    "name": "D4",
                    "midi": 62,
                    "time": 16.2,
                    "velocity": 0.7244094488188977,
                    "duration": 0.3000000000000007
                },
                {
                    "name": "D#4",
                    "midi": 63,
                    "time": 16.5,
                    "velocity": 0.7244094488188977,
                    "duration": 0.3000000000000007
                },
                {
                    "name": "F4",
                    "midi": 65,
                    "time": 16.8,
                    "velocity": 0.7244094488188977,
                    "duration": 0.3000000000000007
                },
                {
                    "name": "F#4",
                    "midi": 66,
                    "time": 17.1,
                    "velocity": 0.7244094488188977,
                    "duration": 0.3000000000000007
                },
                {
                    "name": "G4",
                    "midi": 67,
                    "time": 17.400000000000002,
                    "velocity": 0.7244094488188977,
                    "duration": 0.8999999999999986
                },
                {
                    "name": "F4",
                    "midi": 65,
                    "time": 18.3,
                    "velocity": 0.7244094488188977,
                    "duration": 0.8000000000000007
                },
                {
                    "name": "D#4",
                    "midi": 63,
                    "time": 19.200000000000003,
                    "velocity": 0.7244094488188977,
                    "duration": 0.6000000000000014
                },
                {
                    "name": "D4",
                    "midi": 62,
                    "time": 19.800000000000004,
                    "velocity": 0.7244094488188977,
                    "duration": 0.3000000000000007
                },
                {
                    "name": "C4",
                    "midi": 60,
                    "time": 20.100000000000005,
                    "velocity": 0.7244094488188977,
                    "duration": 0.3000000000000007
                },
                {
                    "name": "B3",
                    "midi": 59,
                    "time": 20.400000000000006,
                    "velocity": 0.7244094488188977,
                    "duration": 0.3000000000000007
                },
                {
                    "name": "C4",
                    "midi": 60,
                    "time": 20.700000000000006,
                    "velocity": 0.7244094488188977,
                    "duration": 0.3000000000000007
                },
                {
                    "name": "D4",
                    "midi": 62,
                    "time": 21.000000000000007,
                    "velocity": 0.7244094488188977,
                    "duration": 0.5
                },
                {
                    "name": "G3",
                    "midi": 55,
                    "time": 21.900000000000006,
                    "velocity": 0.7244094488188977,
                    "duration": 1.1937500000000014
                },
                {
                    "name": "C4",
                    "midi": 60,
                    "time": 23.10000000000001,
                    "velocity": 0.7244094488188977,
                    "duration": 0.3000000000000007
                },
                {
                    "name": "D4",
                    "midi": 62,
                    "time": 23.40000000000001,
                    "velocity": 0.7244094488188977,
                    "duration": 0.3000000000000007
                },
                {
                    "name": "C4",
                    "midi": 60,
                    "time": 23.70000000000001,
                    "velocity": 0.7244094488188977,
                    "duration": 0.3000000000000007
                },
                {
                    "name": "D4",
                    "midi": 62,
                    "time": 24.00000000000001,
                    "velocity": 0.7244094488188977,
                    "duration": 0.3000000000000007
                },
                {
                    "name": "F#4",
                    "midi": 66,
                    "time": 24.30000000000001,
                    "velocity": 0.7244094488188977,
                    "duration": 0.3000000000000007
                },
                {
                    "name": "G4",
                    "midi": 67,
                    "time": 24.600000000000012,
                    "velocity": 0.7244094488188977,
                    "duration": 0.8000000000000007
                },
                {
                    "name": "F4",
                    "midi": 65,
                    "time": 25.500000000000014,
                    "velocity": 0.7244094488188977,
                    "duration": 0.3000000000000007
                },
                {
                    "name": "D#4",
                    "midi": 63,
                    "time": 25.800000000000015,
                    "velocity": 0.7244094488188977,
                    "duration": 0.3000000000000007
                },
                {
                    "name": "D4",
                    "midi": 62,
                    "time": 26.100000000000016,
                    "velocity": 0.7244094488188977,
                    "duration": 0.3000000000000007
                },
                {
                    "name": "D#4",
                    "midi": 63,
                    "time": 26.400000000000016,
                    "velocity": 0.7244094488188977,
                    "duration": 0.2937499999999993
                },
                {
                    "name": "G4",
                    "midi": 67,
                    "time": 26.400000000000016,
                    "velocity": 0.7244094488188977,
                    "duration": 0.2937499999999993
                },
                {
                    "name": "D4",
                    "midi": 62,
                    "time": 27.300000000000015,
                    "velocity": 0.7244094488188977,
                    "duration": 0.2937499999999993
                },
                {
                    "name": "F4",
                    "midi": 65,
                    "time": 27.300000000000015,
                    "velocity": 0.7244094488188977,
                    "duration": 0.2937499999999993
                },
                {
                    "name": "C4",
                    "midi": 60,
                    "time": 28.200000000000014,
                    "velocity": 0.7244094488188977,
                    "duration": 0.6000000000000014
                },
                {
                    "name": "D#4",
                    "midi": 63,
                    "time": 28.200000000000014,
                    "velocity": 0.7244094488188977,
                    "duration": 0.6000000000000014
                },
                {
                    "name": "D#4",
                    "midi": 63,
                    "time": 30.000000000000014,
                    "velocity": 0.3543307086614173,
                    "duration": 0.6000000000000014
                },
                {
                    "name": "G4",
                    "midi": 67,
                    "time": 30.000000000000014,
                    "velocity": 0.3543307086614173,
                    "duration": 0.6000000000000014
                },
                {
                    "name": "D4",
                    "midi": 62,
                    "time": 30.900000000000016,
                    "velocity": 0.3543307086614173,
                    "duration": 0.6000000000000014
                },
                {
                    "name": "F4",
                    "midi": 65,
                    "time": 30.900000000000016,
                    "velocity": 0.3543307086614173,
                    "duration": 0.6000000000000014
                },
                {
                    "name": "D#4",
                    "midi": 63,
                    "time": 31.80000000000002,
                    "velocity": 0.3543307086614173,
                    "duration": 0.6000000000000014
                },
                {
                    "name": "G4",
                    "midi": 67,
                    "time": 31.80000000000002,
                    "velocity": 0.3543307086614173,
                    "duration": 0.6000000000000014
                },
                {
                    "name": "A#3",
                    "midi": 58,
                    "time": 33.60000000000002,
                    "velocity": 0.3543307086614173,
                    "duration": 0.6000000000000014
                },
                {
                    "name": "G4",
                    "midi": 67,
                    "time": 33.60000000000002,
                    "velocity": 0.3543307086614173,
                    "duration": 0.6000000000000014
                },
                {
                    "name": "A3",
                    "midi": 57,
                    "time": 34.50000000000002,
                    "velocity": 0.3543307086614173,
                    "duration": 0.6000000000000014
                },
                {
                    "name": "F#4",
                    "midi": 66,
                    "time": 34.50000000000002,
                    "velocity": 0.3543307086614173,
                    "duration": 0.6000000000000014
                },
                {
                    "name": "A#3",
                    "midi": 58,
                    "time": 35.40000000000002,
                    "velocity": 0.3543307086614173,
                    "duration": 0.6000000000000014
                },
                {
                    "name": "G4",
                    "midi": 67,
                    "time": 35.40000000000002,
                    "velocity": 0.3543307086614173,
                    "duration": 0.6000000000000014
                },
                {
                    "name": "D4",
                    "midi": 62,
                    "time": 37.200000000000024,
                    "velocity": 0.3543307086614173,
                    "duration": 0.6000000000000014
                },
                {
                    "name": "F4",
                    "midi": 65,
                    "time": 37.200000000000024,
                    "velocity": 0.3543307086614173,
                    "duration": 0.6000000000000014
                },
                {
                    "name": "C4",
                    "midi": 60,
                    "time": 38.10000000000002,
                    "velocity": 0.3543307086614173,
                    "duration": 0.6000000000000014
                },
                {
                    "name": "F4",
                    "midi": 65,
                    "time": 38.10000000000002,
                    "velocity": 0.3543307086614173,
                    "duration": 0.6000000000000014
                },
                {
                    "name": "D4",
                    "midi": 62,
                    "time": 39.00000000000002,
                    "velocity": 0.3543307086614173,
                    "duration": 0.8999999999999986
                },
                {
                    "name": "F4",
                    "midi": 65,
                    "time": 39.00000000000002,
                    "velocity": 0.3543307086614173,
                    "duration": 0.8999999999999986
                },
                {
                    "name": "C4",
                    "midi": 60,
                    "time": 39.90000000000002,
                    "velocity": 0.3543307086614173,
                    "duration": 0.8999999999999986
                },
                {
                    "name": "F4",
                    "midi": 65,
                    "time": 39.90000000000002,
                    "velocity": 0.3543307086614173,
                    "duration": 0.8999999999999986
                },
                {
                    "name": "D4",
                    "midi": 62,
                    "time": 40.80000000000002,
                    "velocity": 0.3543307086614173,
                    "duration": 0.8999999999999986
                },
                {
                    "name": "F4",
                    "midi": 65,
                    "time": 40.80000000000002,
                    "velocity": 0.3543307086614173,
                    "duration": 0.8999999999999986
                },
                {
                    "name": "C4",
                    "midi": 60,
                    "time": 41.70000000000002,
                    "velocity": 0.3543307086614173,
                    "duration": 0.8999999999999986
                },
                {
                    "name": "F4",
                    "midi": 65,
                    "time": 41.70000000000002,
                    "velocity": 0.3543307086614173,
                    "duration": 0.8999999999999986
                },
                {
                    "name": "D4",
                    "midi": 62,
                    "time": 42.600000000000016,
                    "velocity": 0.3543307086614173,
                    "duration": 0.8999999999999986
                },
                {
                    "name": "F4",
                    "midi": 65,
                    "time": 42.600000000000016,
                    "velocity": 0.3543307086614173,
                    "duration": 0.8999999999999986
                },
                {
                    "name": "C4",
                    "midi": 60,
                    "time": 43.500000000000014,
                    "velocity": 0.49606299212598426,
                    "duration": 1.1937500000000014
                },
                {
                    "name": "D#4",
                    "midi": 63,
                    "time": 43.500000000000014,
                    "velocity": 0.49606299212598426,
                    "duration": 1.1937500000000014
                },
                {
                    "name": "C4",
                    "midi": 60,
                    "time": 44.70000000000002,
                    "velocity": 0.47244094488188976,
                    "duration": 0.10000000000000142
                },
                {
                    "name": "D#4",
                    "midi": 63,
                    "time": 44.70000000000002,
                    "velocity": 0.47244094488188976,
                    "duration": 0.10000000000000142
                },
                {
                    "name": "A#3",
                    "midi": 58,
                    "time": 45.00000000000002,
                    "velocity": 0.47244094488188976,
                    "duration": 0.10000000000000142
                },
                {
                    "name": "D#4",
                    "midi": 63,
                    "time": 45.00000000000002,
                    "velocity": 0.47244094488188976,
                    "duration": 0.10000000000000142
                },
                {
                    "name": "D4",
                    "midi": 62,
                    "time": 45.60000000000002,
                    "velocity": 0.47244094488188976,
                    "duration": 0.10000000000000142
                },
                {
                    "name": "F4",
                    "midi": 65,
                    "time": 45.60000000000002,
                    "velocity": 0.47244094488188976,
                    "duration": 0.10000000000000142
                },
                {
                    "name": "C4",
                    "midi": 60,
                    "time": 45.90000000000003,
                    "velocity": 0.47244094488188976,
                    "duration": 0.10000000000000142
                },
                {
                    "name": "G4",
                    "midi": 67,
                    "time": 45.90000000000003,
                    "velocity": 0.47244094488188976,
                    "duration": 0.10000000000000142
                },
                {
                    "name": "C4",
                    "midi": 60,
                    "time": 46.50000000000003,
                    "velocity": 0.47244094488188976,
                    "duration": 0.10000000000000142
                },
                {
                    "name": "F4",
                    "midi": 65,
                    "time": 46.50000000000003,
                    "velocity": 0.47244094488188976,
                    "duration": 0.10000000000000142
                },
                {
                    "name": "C4",
                    "midi": 60,
                    "time": 46.80000000000003,
                    "velocity": 0.47244094488188976,
                    "duration": 0.10000000000000142
                },
                {
                    "name": "F4",
                    "midi": 65,
                    "time": 46.80000000000003,
                    "velocity": 0.47244094488188976,
                    "duration": 0.10000000000000142
                },
                {
                    "name": "A#3",
                    "midi": 58,
                    "time": 47.10000000000004,
                    "velocity": 0.6614173228346457,
                    "duration": 1.1937500000000014
                },
                {
                    "name": "D4",
                    "midi": 62,
                    "time": 47.10000000000004,
                    "velocity": 0.6614173228346457,
                    "duration": 1.1937500000000014
                },
                {
                    "name": "A#3",
                    "midi": 58,
                    "time": 48.30000000000004,
                    "velocity": 0.47244094488188976,
                    "duration": 0.10000000000000142
                },
                {
                    "name": "D4",
                    "midi": 62,
                    "time": 48.30000000000004,
                    "velocity": 0.47244094488188976,
                    "duration": 0.10000000000000142
                },
                {
                    "name": "A#3",
                    "midi": 58,
                    "time": 48.600000000000044,
                    "velocity": 0.47244094488188976,
                    "duration": 0.10000000000000142
                },
                {
                    "name": "D4",
                    "midi": 62,
                    "time": 48.600000000000044,
                    "velocity": 0.47244094488188976,
                    "duration": 0.10000000000000142
                },
                {
                    "name": "A#3",
                    "midi": 58,
                    "time": 49.200000000000045,
                    "velocity": 0.47244094488188976,
                    "duration": 0.10000000000000142
                },
                {
                    "name": "D#4",
                    "midi": 63,
                    "time": 49.200000000000045,
                    "velocity": 0.47244094488188976,
                    "duration": 0.10000000000000142
                },
                {
                    "name": "A#3",
                    "midi": 58,
                    "time": 49.50000000000005,
                    "velocity": 0.47244094488188976,
                    "duration": 0.10000000000000142
                },
                {
                    "name": "D4",
                    "midi": 62,
                    "time": 49.50000000000005,
                    "velocity": 0.47244094488188976,
                    "duration": 0.10000000000000142
                },
                {
                    "name": "A#3",
                    "midi": 58,
                    "time": 49.800000000000054,
                    "velocity": 0.47244094488188976,
                    "duration": 0.6000000000000014
                },
                {
                    "name": "D#4",
                    "midi": 63,
                    "time": 49.800000000000054,
                    "velocity": 0.47244094488188976,
                    "duration": 0.6000000000000014
                },
                {
                    "name": "B3",
                    "midi": 59,
                    "time": 54.300000000000054,
                    "velocity": 0.5905511811023622,
                    "duration": 0.8999999999999986
                },
                {
                    "name": "C4",
                    "midi": 60,
                    "time": 55.20000000000005,
                    "velocity": 0.5905511811023622,
                    "duration": 1.7999999999999972
                },
                {
                    "name": "B3",
                    "midi": 59,
                    "time": 57.00000000000005,
                    "velocity": 0.5905511811023622,
                    "duration": 0.6000000000000014
                },
                {
                    "name": "G4",
                    "midi": 67,
                    "time": 60.60000000000005,
                    "velocity": 0.3543307086614173,
                    "duration": 0.10000000000000142
                },
                {
                    "name": "G4",
                    "midi": 67,
                    "time": 60.900000000000055,
                    "velocity": 0.3543307086614173,
                    "duration": 0.10000000000000142
                },
                {
                    "name": "G4",
                    "midi": 67,
                    "time": 61.20000000000006,
                    "velocity": 0.3543307086614173,
                    "duration": 0.10000000000000142
                },
                {
                    "name": "G3",
                    "midi": 55,
                    "time": 61.500000000000064,
                    "velocity": 0.3543307086614173,
                    "duration": 0.10000000000000142
                },
                {
                    "name": "G3",
                    "midi": 55,
                    "time": 61.80000000000007,
                    "velocity": 0.3543307086614173,
                    "duration": 0.10000000000000142
                },
                {
                    "name": "G3",
                    "midi": 55,
                    "time": 62.10000000000007,
                    "velocity": 0.3543307086614173,
                    "duration": 0.10000000000000142
                },
                {
                    "name": "C4",
                    "midi": 60,
                    "time": 63.60000000000007,
                    "velocity": 0.3543307086614173,
                    "duration": 0.10000000000000142
                },
                {
                    "name": "D#4",
                    "midi": 63,
                    "time": 63.60000000000007,
                    "velocity": 0.3543307086614173,
                    "duration": 0.10000000000000142
                },
                {
                    "name": "C4",
                    "midi": 60,
                    "time": 64.50000000000007,
                    "velocity": 0.3543307086614173,
                    "duration": 0.09999999999999432
                },
                {
                    "name": "F4",
                    "midi": 65,
                    "time": 64.50000000000007,
                    "velocity": 0.3543307086614173,
                    "duration": 0.09999999999999432
                },
                {
                    "name": "B3",
                    "midi": 59,
                    "time": 65.40000000000006,
                    "velocity": 0.3543307086614173,
                    "duration": 0.09999999999999432
                },
                {
                    "name": "F4",
                    "midi": 65,
                    "time": 65.40000000000006,
                    "velocity": 0.3543307086614173,
                    "duration": 0.09999999999999432
                },
                {
                    "name": "B3",
                    "midi": 59,
                    "time": 66.30000000000005,
                    "velocity": 0.3543307086614173,
                    "duration": 0.09999999999999432
                },
                {
                    "name": "F4",
                    "midi": 65,
                    "time": 66.30000000000005,
                    "velocity": 0.3543307086614173,
                    "duration": 0.09999999999999432
                },
                {
                    "name": "C4",
                    "midi": 60,
                    "time": 67.20000000000005,
                    "velocity": 0.3543307086614173,
                    "duration": 0.09999999999999432
                },
                {
                    "name": "D#4",
                    "midi": 63,
                    "time": 67.20000000000005,
                    "velocity": 0.3543307086614173,
                    "duration": 0.09999999999999432
                },
                {
                    "name": "D#4",
                    "midi": 63,
                    "time": 68.10000000000004,
                    "velocity": 0.3543307086614173,
                    "duration": 0.09999999999999432
                },
                {
                    "name": "F#4",
                    "midi": 66,
                    "time": 68.10000000000004,
                    "velocity": 0.3543307086614173,
                    "duration": 0.09999999999999432
                },
                {
                    "name": "B3",
                    "midi": 59,
                    "time": 68.70000000000003,
                    "velocity": 0.3543307086614173,
                    "duration": 0.5999999999999943
                },
                {
                    "name": "G4",
                    "midi": 67,
                    "time": 68.70000000000003,
                    "velocity": 0.3543307086614173,
                    "duration": 0.5999999999999943
                },
                {
                    "name": "B3",
                    "midi": 59,
                    "time": 69.60000000000002,
                    "velocity": 0.49606299212598426,
                    "duration": 0.9000000000000057
                },
                {
                    "name": "F4",
                    "midi": 65,
                    "time": 69.60000000000002,
                    "velocity": 0.49606299212598426,
                    "duration": 0.9000000000000057
                },
                {
                    "name": "C4",
                    "midi": 60,
                    "time": 70.50000000000003,
                    "velocity": 0.3543307086614173,
                    "duration": 0.09999999999999432
                },
                {
                    "name": "E4",
                    "midi": 64,
                    "time": 70.50000000000003,
                    "velocity": 0.3543307086614173,
                    "duration": 0.09999999999999432
                },
                {
                    "name": "C4",
                    "midi": 60,
                    "time": 70.80000000000003,
                    "velocity": 0.3543307086614173,
                    "duration": 0.09999999999999432
                },
                {
                    "name": "E4",
                    "midi": 64,
                    "time": 70.80000000000003,
                    "velocity": 0.3543307086614173,
                    "duration": 0.09999999999999432
                },
                {
                    "name": "A#3",
                    "midi": 58,
                    "time": 71.40000000000002,
                    "velocity": 0.3543307086614173,
                    "duration": 0.09999999999999432
                },
                {
                    "name": "E4",
                    "midi": 64,
                    "time": 71.40000000000002,
                    "velocity": 0.3543307086614173,
                    "duration": 0.09999999999999432
                },
                {
                    "name": "A#3",
                    "midi": 58,
                    "time": 71.70000000000002,
                    "velocity": 0.3543307086614173,
                    "duration": 0.09999999999999432
                },
                {
                    "name": "E4",
                    "midi": 64,
                    "time": 71.70000000000002,
                    "velocity": 0.3543307086614173,
                    "duration": 0.09999999999999432
                },
                {
                    "name": "A3",
                    "midi": 57,
                    "time": 72.30000000000001,
                    "velocity": 0.3543307086614173,
                    "duration": 0.09999999999999432
                },
                {
                    "name": "F4",
                    "midi": 65,
                    "time": 72.30000000000001,
                    "velocity": 0.3543307086614173,
                    "duration": 0.09999999999999432
                },
                {
                    "name": "A3",
                    "midi": 57,
                    "time": 72.60000000000001,
                    "velocity": 0.3543307086614173,
                    "duration": 0.09999999999999432
                },
                {
                    "name": "F4",
                    "midi": 65,
                    "time": 72.60000000000001,
                    "velocity": 0.3543307086614173,
                    "duration": 0.09999999999999432
                },
                {
                    "name": "G#3",
                    "midi": 56,
                    "time": 73.2,
                    "velocity": 0.3543307086614173,
                    "duration": 0.09999999999999432
                },
                {
                    "name": "F4",
                    "midi": 65,
                    "time": 73.2,
                    "velocity": 0.3543307086614173,
                    "duration": 0.09999999999999432
                },
                {
                    "name": "G#3",
                    "midi": 56,
                    "time": 73.5,
                    "velocity": 0.3543307086614173,
                    "duration": 0.09999999999999432
                },
                {
                    "name": "F4",
                    "midi": 65,
                    "time": 73.5,
                    "velocity": 0.3543307086614173,
                    "duration": 0.09999999999999432
                },
                {
                    "name": "C4",
                    "midi": 60,
                    "time": 74.1,
                    "velocity": 0.3543307086614173,
                    "duration": 0.09999999999999432
                },
                {
                    "name": "D#4",
                    "midi": 63,
                    "time": 74.1,
                    "velocity": 0.3543307086614173,
                    "duration": 0.09999999999999432
                },
                {
                    "name": "B3",
                    "midi": 59,
                    "time": 74.99999999999999,
                    "velocity": 0.3543307086614173,
                    "duration": 0.09999999999999432
                },
                {
                    "name": "F4",
                    "midi": 65,
                    "time": 74.99999999999999,
                    "velocity": 0.3543307086614173,
                    "duration": 0.09999999999999432
                },
                {
                    "name": "C4",
                    "midi": 60,
                    "time": 75.89999999999998,
                    "velocity": 0.3543307086614173,
                    "duration": 0.5999999999999943
                },
                {
                    "name": "D#4",
                    "midi": 63,
                    "time": 75.89999999999998,
                    "velocity": 0.3543307086614173,
                    "duration": 0.5999999999999943
                },
                {
                    "name": "C4",
                    "midi": 60,
                    "time": 77.99999999999997,
                    "velocity": 0.7244094488188977,
                    "duration": 0.29999999999999716
                },
                {
                    "name": "D4",
                    "midi": 62,
                    "time": 78.29999999999997,
                    "velocity": 0.7244094488188977,
                    "duration": 0.29999999999999716
                },
                {
                    "name": "D#4",
                    "midi": 63,
                    "time": 78.59999999999997,
                    "velocity": 0.7244094488188977,
                    "duration": 0.29999999999999716
                },
                {
                    "name": "F4",
                    "midi": 65,
                    "time": 78.89999999999996,
                    "velocity": 0.7244094488188977,
                    "duration": 0.29999999999999716
                },
                {
                    "name": "F#4",
                    "midi": 66,
                    "time": 79.19999999999996,
                    "velocity": 0.7244094488188977,
                    "duration": 0.29999999999999716
                },
                {
                    "name": "G4",
                    "midi": 67,
                    "time": 79.49999999999996,
                    "velocity": 0.7244094488188977,
                    "duration": 0.9000000000000057
                },
                {
                    "name": "F4",
                    "midi": 65,
                    "time": 80.39999999999996,
                    "velocity": 0.7244094488188977,
                    "duration": 0.7999999999999972
                },
                {
                    "name": "D#4",
                    "midi": 63,
                    "time": 81.29999999999995,
                    "velocity": 0.7244094488188977,
                    "duration": 0.5999999999999943
                },
                {
                    "name": "D4",
                    "midi": 62,
                    "time": 81.89999999999995,
                    "velocity": 0.7244094488188977,
                    "duration": 0.29999999999999716
                },
                {
                    "name": "C4",
                    "midi": 60,
                    "time": 82.19999999999995,
                    "velocity": 0.7244094488188977,
                    "duration": 0.29999999999999716
                },
                {
                    "name": "B3",
                    "midi": 59,
                    "time": 82.49999999999994,
                    "velocity": 0.7244094488188977,
                    "duration": 0.29999999999999716
                },
                {
                    "name": "C4",
                    "midi": 60,
                    "time": 82.79999999999994,
                    "velocity": 0.7244094488188977,
                    "duration": 0.29999999999999716
                },
                {
                    "name": "D4",
                    "midi": 62,
                    "time": 83.09999999999994,
                    "velocity": 0.7244094488188977,
                    "duration": 0.5
                },
                {
                    "name": "G3",
                    "midi": 55,
                    "time": 83.99999999999994,
                    "velocity": 0.7244094488188977,
                    "duration": 1.1937499999999943
                },
                {
                    "name": "C4",
                    "midi": 60,
                    "time": 85.19999999999993,
                    "velocity": 0.7244094488188977,
                    "duration": 0.29999999999999716
                },
                {
                    "name": "D4",
                    "midi": 62,
                    "time": 85.49999999999993,
                    "velocity": 0.7244094488188977,
                    "duration": 0.29999999999999716
                },
                {
                    "name": "C4",
                    "midi": 60,
                    "time": 85.79999999999993,
                    "velocity": 0.7244094488188977,
                    "duration": 0.29999999999999716
                },
                {
                    "name": "D4",
                    "midi": 62,
                    "time": 86.09999999999992,
                    "velocity": 0.7244094488188977,
                    "duration": 0.29999999999999716
                },
                {
                    "name": "F#4",
                    "midi": 66,
                    "time": 86.39999999999992,
                    "velocity": 0.7244094488188977,
                    "duration": 0.29999999999999716
                },
                {
                    "name": "G4",
                    "midi": 67,
                    "time": 86.69999999999992,
                    "velocity": 0.7244094488188977,
                    "duration": 0.7999999999999972
                },
                {
                    "name": "F4",
                    "midi": 65,
                    "time": 87.59999999999991,
                    "velocity": 0.7244094488188977,
                    "duration": 0.29999999999999716
                },
                {
                    "name": "D#4",
                    "midi": 63,
                    "time": 87.8999999999999,
                    "velocity": 0.7244094488188977,
                    "duration": 0.29999999999999716
                },
                {
                    "name": "D4",
                    "midi": 62,
                    "time": 88.1999999999999,
                    "velocity": 0.7244094488188977,
                    "duration": 0.29999999999999716
                },
                {
                    "name": "D#4",
                    "midi": 63,
                    "time": 88.4999999999999,
                    "velocity": 0.7244094488188977,
                    "duration": 0.29375000000000284
                },
                {
                    "name": "G4",
                    "midi": 67,
                    "time": 88.4999999999999,
                    "velocity": 0.7244094488188977,
                    "duration": 0.29375000000000284
                },
                {
                    "name": "D4",
                    "midi": 62,
                    "time": 89.3999999999999,
                    "velocity": 0.7244094488188977,
                    "duration": 0.29375000000000284
                },
                {
                    "name": "F4",
                    "midi": 65,
                    "time": 89.3999999999999,
                    "velocity": 0.7244094488188977,
                    "duration": 0.29375000000000284
                },
                {
                    "name": "C4",
                    "midi": 60,
                    "time": 90.29999999999991,
                    "velocity": 0.5905511811023622,
                    "duration": 0.9000000000000057
                },
                {
                    "name": "D#4",
                    "midi": 63,
                    "time": 90.29999999999991,
                    "velocity": 0.5905511811023622,
                    "duration": 0.9000000000000057
                },
                {
                    "name": "C4",
                    "midi": 60,
                    "time": 91.19999999999992,
                    "velocity": 0.3543307086614173,
                    "duration": 0.5
                },
                {
                    "name": "D#4",
                    "midi": 63,
                    "time": 91.19999999999992,
                    "velocity": 0.3543307086614173,
                    "duration": 0.5
                },
                {
                    "name": "A#3",
                    "midi": 58,
                    "time": 91.79999999999991,
                    "velocity": 0.3543307086614173,
                    "duration": 0.29999999999999716
                },
                {
                    "name": "D#4",
                    "midi": 63,
                    "time": 91.79999999999991,
                    "velocity": 0.3543307086614173,
                    "duration": 0.29999999999999716
                },
                {
                    "name": "C4",
                    "midi": 60,
                    "time": 92.09999999999991,
                    "velocity": 0.3543307086614173,
                    "duration": 0.29999999999999716
                },
                {
                    "name": "D#4",
                    "midi": 63,
                    "time": 92.09999999999991,
                    "velocity": 0.3543307086614173,
                    "duration": 0.29999999999999716
                },
                {
                    "name": "C4",
                    "midi": 60,
                    "time": 92.3999999999999,
                    "velocity": 0.3543307086614173,
                    "duration": 0.29999999999999716
                },
                {
                    "name": "D#4",
                    "midi": 63,
                    "time": 92.3999999999999,
                    "velocity": 0.3543307086614173,
                    "duration": 0.29999999999999716
                },
                {
                    "name": "C4",
                    "midi": 60,
                    "time": 92.6999999999999,
                    "velocity": 0.3543307086614173,
                    "duration": 0.29999999999999716
                },
                {
                    "name": "D#4",
                    "midi": 63,
                    "time": 92.6999999999999,
                    "velocity": 0.3543307086614173,
                    "duration": 0.29999999999999716
                },
                {
                    "name": "C4",
                    "midi": 60,
                    "time": 92.9999999999999,
                    "velocity": 0.3543307086614173,
                    "duration": 0.29999999999999716
                },
                {
                    "name": "F4",
                    "midi": 65,
                    "time": 92.9999999999999,
                    "velocity": 0.3543307086614173,
                    "duration": 0.29999999999999716
                },
                {
                    "name": "C4",
                    "midi": 60,
                    "time": 93.2999999999999,
                    "velocity": 0.3543307086614173,
                    "duration": 0.29999999999999716
                },
                {
                    "name": "F4",
                    "midi": 65,
                    "time": 93.2999999999999,
                    "velocity": 0.3543307086614173,
                    "duration": 0.29999999999999716
                },
                {
                    "name": "C4",
                    "midi": 60,
                    "time": 93.5999999999999,
                    "velocity": 0.3543307086614173,
                    "duration": 0.29999999999999716
                },
                {
                    "name": "D#4",
                    "midi": 63,
                    "time": 93.5999999999999,
                    "velocity": 0.3543307086614173,
                    "duration": 0.29999999999999716
                },
                {
                    "name": "C4",
                    "midi": 60,
                    "time": 94.19999999999989,
                    "velocity": 0.3543307086614173,
                    "duration": 0.29999999999999716
                },
                {
                    "name": "D#4",
                    "midi": 63,
                    "time": 94.19999999999989,
                    "velocity": 0.3543307086614173,
                    "duration": 0.29999999999999716
                },
                {
                    "name": "C4",
                    "midi": 60,
                    "time": 94.49999999999989,
                    "velocity": 0.3543307086614173,
                    "duration": 0.29999999999999716
                },
                {
                    "name": "D#4",
                    "midi": 63,
                    "time": 94.49999999999989,
                    "velocity": 0.3543307086614173,
                    "duration": 0.29999999999999716
                },
                {
                    "name": "C4",
                    "midi": 60,
                    "time": 94.79999999999988,
                    "velocity": 0.3543307086614173,
                    "duration": 0.29999999999999716
                },
                {
                    "name": "D#4",
                    "midi": 63,
                    "time": 94.79999999999988,
                    "velocity": 0.3543307086614173,
                    "duration": 0.29999999999999716
                },
                {
                    "name": "C4",
                    "midi": 60,
                    "time": 95.09999999999988,
                    "velocity": 0.3543307086614173,
                    "duration": 0.29999999999999716
                },
                {
                    "name": "D#4",
                    "midi": 63,
                    "time": 95.09999999999988,
                    "velocity": 0.3543307086614173,
                    "duration": 0.29999999999999716
                },
                {
                    "name": "C4",
                    "midi": 60,
                    "time": 95.39999999999988,
                    "velocity": 0.3543307086614173,
                    "duration": 0.29999999999999716
                },
                {
                    "name": "D#4",
                    "midi": 63,
                    "time": 95.39999999999988,
                    "velocity": 0.3543307086614173,
                    "duration": 0.29999999999999716
                },
                {
                    "name": "A#3",
                    "midi": 58,
                    "time": 95.99999999999987,
                    "velocity": 0.3543307086614173,
                    "duration": 0.29999999999999716
                },
                {
                    "name": "D#4",
                    "midi": 63,
                    "time": 95.99999999999987,
                    "velocity": 0.3543307086614173,
                    "duration": 0.29999999999999716
                },
                {
                    "name": "A#3",
                    "midi": 58,
                    "time": 96.29999999999987,
                    "velocity": 0.3543307086614173,
                    "duration": 0.29999999999999716
                },
                {
                    "name": "D#4",
                    "midi": 63,
                    "time": 96.29999999999987,
                    "velocity": 0.3543307086614173,
                    "duration": 0.29999999999999716
                },
                {
                    "name": "A#3",
                    "midi": 58,
                    "time": 96.59999999999987,
                    "velocity": 0.3543307086614173,
                    "duration": 0.29999999999999716
                },
                {
                    "name": "D#4",
                    "midi": 63,
                    "time": 96.59999999999987,
                    "velocity": 0.3543307086614173,
                    "duration": 0.29999999999999716
                },
                {
                    "name": "A#3",
                    "midi": 58,
                    "time": 96.89999999999986,
                    "velocity": 0.3543307086614173,
                    "duration": 0.29999999999999716
                },
                {
                    "name": "D#4",
                    "midi": 63,
                    "time": 96.89999999999986,
                    "velocity": 0.3543307086614173,
                    "duration": 0.29999999999999716
                },
                {
                    "name": "A#3",
                    "midi": 58,
                    "time": 97.19999999999986,
                    "velocity": 0.3543307086614173,
                    "duration": 0.29999999999999716
                },
                {
                    "name": "D#4",
                    "midi": 63,
                    "time": 97.19999999999986,
                    "velocity": 0.3543307086614173,
                    "duration": 0.29999999999999716
                },
                {
                    "name": "A#3",
                    "midi": 58,
                    "time": 97.79999999999986,
                    "velocity": 0.3543307086614173,
                    "duration": 0.29999999999999716
                },
                {
                    "name": "D#4",
                    "midi": 63,
                    "time": 97.79999999999986,
                    "velocity": 0.3543307086614173,
                    "duration": 0.29999999999999716
                },
                {
                    "name": "A#3",
                    "midi": 58,
                    "time": 98.09999999999985,
                    "velocity": 0.3543307086614173,
                    "duration": 0.29999999999999716
                },
                {
                    "name": "D#4",
                    "midi": 63,
                    "time": 98.09999999999985,
                    "velocity": 0.3543307086614173,
                    "duration": 0.29999999999999716
                },
                {
                    "name": "A#3",
                    "midi": 58,
                    "time": 98.39999999999985,
                    "velocity": 0.3543307086614173,
                    "duration": 0.29999999999999716
                },
                {
                    "name": "C#4",
                    "midi": 61,
                    "time": 98.39999999999985,
                    "velocity": 0.3543307086614173,
                    "duration": 0.29999999999999716
                },
                {
                    "name": "A#3",
                    "midi": 58,
                    "time": 98.69999999999985,
                    "velocity": 0.3543307086614173,
                    "duration": 0.29999999999999716
                },
                {
                    "name": "C#4",
                    "midi": 61,
                    "time": 98.69999999999985,
                    "velocity": 0.3543307086614173,
                    "duration": 0.29999999999999716
                },
                {
                    "name": "C4",
                    "midi": 60,
                    "time": 98.99999999999984,
                    "velocity": 0.3543307086614173,
                    "duration": 0.29999999999999716
                },
                {
                    "name": "D#4",
                    "midi": 63,
                    "time": 98.99999999999984,
                    "velocity": 0.3543307086614173,
                    "duration": 0.29999999999999716
                },
                {
                    "name": "C4",
                    "midi": 60,
                    "time": 99.59999999999984,
                    "velocity": 0.3543307086614173,
                    "duration": 0.29999999999999716
                },
                {
                    "name": "D#4",
                    "midi": 63,
                    "time": 99.59999999999984,
                    "velocity": 0.3543307086614173,
                    "duration": 0.29999999999999716
                },
                {
                    "name": "C4",
                    "midi": 60,
                    "time": 99.89999999999984,
                    "velocity": 0.3543307086614173,
                    "duration": 0.29999999999999716
                },
                {
                    "name": "D#4",
                    "midi": 63,
                    "time": 99.89999999999984,
                    "velocity": 0.3543307086614173,
                    "duration": 0.29999999999999716
                },
                {
                    "name": "C4",
                    "midi": 60,
                    "time": 100.19999999999983,
                    "velocity": 0.3543307086614173,
                    "duration": 0.29999999999999716
                },
                {
                    "name": "D#4",
                    "midi": 63,
                    "time": 100.19999999999983,
                    "velocity": 0.3543307086614173,
                    "duration": 0.29999999999999716
                },
                {
                    "name": "C4",
                    "midi": 60,
                    "time": 100.49999999999983,
                    "velocity": 0.3543307086614173,
                    "duration": 0.29999999999999716
                },
                {
                    "name": "D#4",
                    "midi": 63,
                    "time": 100.49999999999983,
                    "velocity": 0.3543307086614173,
                    "duration": 0.29999999999999716
                },
                {
                    "name": "C4",
                    "midi": 60,
                    "time": 100.79999999999983,
                    "velocity": 0.3543307086614173,
                    "duration": 0.29999999999999716
                },
                {
                    "name": "D#4",
                    "midi": 63,
                    "time": 100.79999999999983,
                    "velocity": 0.3543307086614173,
                    "duration": 0.29999999999999716
                },
                {
                    "name": "A#3",
                    "midi": 58,
                    "time": 101.39999999999982,
                    "velocity": 0.3543307086614173,
                    "duration": 0.29999999999999716
                },
                {
                    "name": "E4",
                    "midi": 64,
                    "time": 101.39999999999982,
                    "velocity": 0.3543307086614173,
                    "duration": 0.29999999999999716
                },
                {
                    "name": "A#3",
                    "midi": 58,
                    "time": 101.69999999999982,
                    "velocity": 0.3543307086614173,
                    "duration": 0.29999999999999716
                },
                {
                    "name": "E4",
                    "midi": 64,
                    "time": 101.69999999999982,
                    "velocity": 0.3543307086614173,
                    "duration": 0.29999999999999716
                },
                {
                    "name": "A#3",
                    "midi": 58,
                    "time": 101.99999999999982,
                    "velocity": 0.3543307086614173,
                    "duration": 0.29999999999999716
                },
                {
                    "name": "E4",
                    "midi": 64,
                    "time": 101.99999999999982,
                    "velocity": 0.3543307086614173,
                    "duration": 0.29999999999999716
                },
                {
                    "name": "A#3",
                    "midi": 58,
                    "time": 102.29999999999981,
                    "velocity": 0.3543307086614173,
                    "duration": 0.29999999999999716
                },
                {
                    "name": "E4",
                    "midi": 64,
                    "time": 102.29999999999981,
                    "velocity": 0.3543307086614173,
                    "duration": 0.29999999999999716
                },
                {
                    "name": "A#3",
                    "midi": 58,
                    "time": 102.59999999999981,
                    "velocity": 0.3543307086614173,
                    "duration": 0.29999999999999716
                },
                {
                    "name": "E4",
                    "midi": 64,
                    "time": 102.59999999999981,
                    "velocity": 0.3543307086614173,
                    "duration": 0.29999999999999716
                },
                {
                    "name": "A#3",
                    "midi": 58,
                    "time": 103.1999999999998,
                    "velocity": 0.3543307086614173,
                    "duration": 0.29999999999999716
                },
                {
                    "name": "C#4",
                    "midi": 61,
                    "time": 103.1999999999998,
                    "velocity": 0.3543307086614173,
                    "duration": 0.29999999999999716
                },
                {
                    "name": "A#3",
                    "midi": 58,
                    "time": 103.4999999999998,
                    "velocity": 0.3543307086614173,
                    "duration": 0.29999999999999716
                },
                {
                    "name": "C#4",
                    "midi": 61,
                    "time": 103.4999999999998,
                    "velocity": 0.3543307086614173,
                    "duration": 0.29999999999999716
                },
                {
                    "name": "A#3",
                    "midi": 58,
                    "time": 103.7999999999998,
                    "velocity": 0.3543307086614173,
                    "duration": 0.29999999999999716
                },
                {
                    "name": "C#4",
                    "midi": 61,
                    "time": 103.7999999999998,
                    "velocity": 0.3543307086614173,
                    "duration": 0.29999999999999716
                },
                {
                    "name": "A#3",
                    "midi": 58,
                    "time": 104.0999999999998,
                    "velocity": 0.3543307086614173,
                    "duration": 0.29999999999999716
                },
                {
                    "name": "C#4",
                    "midi": 61,
                    "time": 104.0999999999998,
                    "velocity": 0.3543307086614173,
                    "duration": 0.29999999999999716
                },
                {
                    "name": "A#3",
                    "midi": 58,
                    "time": 104.39999999999979,
                    "velocity": 0.3543307086614173,
                    "duration": 0.29999999999999716
                },
                {
                    "name": "C#4",
                    "midi": 61,
                    "time": 104.39999999999979,
                    "velocity": 0.3543307086614173,
                    "duration": 0.29999999999999716
                },
                {
                    "name": "A3",
                    "midi": 57,
                    "time": 104.99999999999979,
                    "velocity": 0.3543307086614173,
                    "duration": 0.29999999999999716
                },
                {
                    "name": "D#4",
                    "midi": 63,
                    "time": 104.99999999999979,
                    "velocity": 0.3543307086614173,
                    "duration": 0.29999999999999716
                },
                {
                    "name": "A3",
                    "midi": 57,
                    "time": 105.29999999999978,
                    "velocity": 0.3543307086614173,
                    "duration": 0.29999999999999716
                },
                {
                    "name": "D#4",
                    "midi": 63,
                    "time": 105.29999999999978,
                    "velocity": 0.3543307086614173,
                    "duration": 0.29999999999999716
                },
                {
                    "name": "A3",
                    "midi": 57,
                    "time": 105.59999999999978,
                    "velocity": 0.3543307086614173,
                    "duration": 0.29999999999999716
                },
                {
                    "name": "F#4",
                    "midi": 66,
                    "time": 105.59999999999978,
                    "velocity": 0.3543307086614173,
                    "duration": 0.29999999999999716
                },
                {
                    "name": "A3",
                    "midi": 57,
                    "time": 105.89999999999978,
                    "velocity": 0.3543307086614173,
                    "duration": 0.29999999999999716
                },
                {
                    "name": "F#4",
                    "midi": 66,
                    "time": 105.89999999999978,
                    "velocity": 0.3543307086614173,
                    "duration": 0.29999999999999716
                },
                {
                    "name": "A3",
                    "midi": 57,
                    "time": 106.19999999999978,
                    "velocity": 0.3543307086614173,
                    "duration": 0.29999999999999716
                },
                {
                    "name": "F4",
                    "midi": 65,
                    "time": 106.19999999999978,
                    "velocity": 0.3543307086614173,
                    "duration": 0.29999999999999716
                },
                {
                    "name": "A#3",
                    "midi": 58,
                    "time": 106.79999999999977,
                    "velocity": 0.3543307086614173,
                    "duration": 0.29999999999999716
                },
                {
                    "name": "C#4",
                    "midi": 61,
                    "time": 106.79999999999977,
                    "velocity": 0.3543307086614173,
                    "duration": 0.29999999999999716
                },
                {
                    "name": "A#3",
                    "midi": 58,
                    "time": 107.09999999999977,
                    "velocity": 0.3543307086614173,
                    "duration": 0.29999999999999716
                },
                {
                    "name": "C#4",
                    "midi": 61,
                    "time": 107.09999999999977,
                    "velocity": 0.3543307086614173,
                    "duration": 0.29999999999999716
                },
                {
                    "name": "A#3",
                    "midi": 58,
                    "time": 107.39999999999976,
                    "velocity": 0.3543307086614173,
                    "duration": 0.29999999999999716
                },
                {
                    "name": "C#4",
                    "midi": 61,
                    "time": 107.39999999999976,
                    "velocity": 0.3543307086614173,
                    "duration": 0.29999999999999716
                },
                {
                    "name": "A#3",
                    "midi": 58,
                    "time": 107.69999999999976,
                    "velocity": 0.3543307086614173,
                    "duration": 0.29999999999999716
                },
                {
                    "name": "C#4",
                    "midi": 61,
                    "time": 107.69999999999976,
                    "velocity": 0.3543307086614173,
                    "duration": 0.29999999999999716
                },
                {
                    "name": "A3",
                    "midi": 57,
                    "time": 107.99999999999976,
                    "velocity": 0.3543307086614173,
                    "duration": 0.29999999999999716
                },
                {
                    "name": "C#4",
                    "midi": 61,
                    "time": 107.99999999999976,
                    "velocity": 0.3543307086614173,
                    "duration": 0.29999999999999716
                },
                {
                    "name": "A#3",
                    "midi": 58,
                    "time": 108.59999999999975,
                    "velocity": 0.3543307086614173,
                    "duration": 0.29999999999999716
                },
                {
                    "name": "C#4",
                    "midi": 61,
                    "time": 108.59999999999975,
                    "velocity": 0.3543307086614173,
                    "duration": 0.29999999999999716
                },
                {
                    "name": "A#3",
                    "midi": 58,
                    "time": 108.89999999999975,
                    "velocity": 0.3543307086614173,
                    "duration": 0.29999999999999716
                },
                {
                    "name": "C#4",
                    "midi": 61,
                    "time": 108.89999999999975,
                    "velocity": 0.3543307086614173,
                    "duration": 0.29999999999999716
                },
                {
                    "name": "A#3",
                    "midi": 58,
                    "time": 109.19999999999975,
                    "velocity": 0.3543307086614173,
                    "duration": 0.29999999999999716
                },
                {
                    "name": "C#4",
                    "midi": 61,
                    "time": 109.19999999999975,
                    "velocity": 0.3543307086614173,
                    "duration": 0.29999999999999716
                },
                {
                    "name": "A#3",
                    "midi": 58,
                    "time": 109.49999999999974,
                    "velocity": 0.3543307086614173,
                    "duration": 0.29999999999999716
                },
                {
                    "name": "C#4",
                    "midi": 61,
                    "time": 109.49999999999974,
                    "velocity": 0.3543307086614173,
                    "duration": 0.29999999999999716
                },
                {
                    "name": "A#3",
                    "midi": 58,
                    "time": 109.79999999999974,
                    "velocity": 0.3543307086614173,
                    "duration": 0.29999999999999716
                },
                {
                    "name": "C#4",
                    "midi": 61,
                    "time": 109.79999999999974,
                    "velocity": 0.3543307086614173,
                    "duration": 0.29999999999999716
                },
                {
                    "name": "G3",
                    "midi": 55,
                    "time": 110.39999999999974,
                    "velocity": 0.3543307086614173,
                    "duration": 0.29999999999999716
                },
                {
                    "name": "D#4",
                    "midi": 63,
                    "time": 110.39999999999974,
                    "velocity": 0.3543307086614173,
                    "duration": 0.29999999999999716
                },
                {
                    "name": "G3",
                    "midi": 55,
                    "time": 110.69999999999973,
                    "velocity": 0.3543307086614173,
                    "duration": 0.29999999999999716
                },
                {
                    "name": "D#4",
                    "midi": 63,
                    "time": 110.69999999999973,
                    "velocity": 0.3543307086614173,
                    "duration": 0.29999999999999716
                },
                {
                    "name": "G3",
                    "midi": 55,
                    "time": 110.99999999999973,
                    "velocity": 0.3543307086614173,
                    "duration": 0.29999999999999716
                },
                {
                    "name": "D#4",
                    "midi": 63,
                    "time": 110.99999999999973,
                    "velocity": 0.3543307086614173,
                    "duration": 0.29999999999999716
                },
                {
                    "name": "G3",
                    "midi": 55,
                    "time": 111.29999999999973,
                    "velocity": 0.3543307086614173,
                    "duration": 0.29999999999999716
                },
                {
                    "name": "D#4",
                    "midi": 63,
                    "time": 111.29999999999973,
                    "velocity": 0.3543307086614173,
                    "duration": 0.29999999999999716
                },
                {
                    "name": "G3",
                    "midi": 55,
                    "time": 111.59999999999972,
                    "velocity": 0.3543307086614173,
                    "duration": 0.29999999999999716
                },
                {
                    "name": "D#4",
                    "midi": 63,
                    "time": 111.59999999999972,
                    "velocity": 0.3543307086614173,
                    "duration": 0.29999999999999716
                },
                {
                    "name": "G#3",
                    "midi": 56,
                    "time": 112.19999999999972,
                    "velocity": 0.3543307086614173,
                    "duration": 0.29999999999999716
                },
                {
                    "name": "D#4",
                    "midi": 63,
                    "time": 112.19999999999972,
                    "velocity": 0.3543307086614173,
                    "duration": 0.29999999999999716
                },
                {
                    "name": "G#3",
                    "midi": 56,
                    "time": 112.49999999999972,
                    "velocity": 0.3543307086614173,
                    "duration": 0.29999999999999716
                },
                {
                    "name": "D#4",
                    "midi": 63,
                    "time": 112.49999999999972,
                    "velocity": 0.3543307086614173,
                    "duration": 0.29999999999999716
                },
                {
                    "name": "G#3",
                    "midi": 56,
                    "time": 112.79999999999971,
                    "velocity": 0.3543307086614173,
                    "duration": 0.29999999999999716
                },
                {
                    "name": "D#4",
                    "midi": 63,
                    "time": 112.79999999999971,
                    "velocity": 0.3543307086614173,
                    "duration": 0.29999999999999716
                },
                {
                    "name": "G#3",
                    "midi": 56,
                    "time": 113.09999999999971,
                    "velocity": 0.3543307086614173,
                    "duration": 0.29999999999999716
                },
                {
                    "name": "D#4",
                    "midi": 63,
                    "time": 113.09999999999971,
                    "velocity": 0.3543307086614173,
                    "duration": 0.29999999999999716
                },
                {
                    "name": "G#3",
                    "midi": 56,
                    "time": 113.39999999999971,
                    "velocity": 0.3543307086614173,
                    "duration": 0.29999999999999716
                },
                {
                    "name": "D#4",
                    "midi": 63,
                    "time": 113.39999999999971,
                    "velocity": 0.3543307086614173,
                    "duration": 0.29999999999999716
                },
                {
                    "name": "G3",
                    "midi": 55,
                    "time": 113.6999999999997,
                    "velocity": 0.3543307086614173,
                    "duration": 0.9000000000000057
                },
                {
                    "name": "D#4",
                    "midi": 63,
                    "time": 113.6999999999997,
                    "velocity": 0.3543307086614173,
                    "duration": 0.9000000000000057
                },
                {
                    "name": "F3",
                    "midi": 53,
                    "time": 115.49999999999972,
                    "velocity": 0.3543307086614173,
                    "duration": 0.9000000000000057
                },
                {
                    "name": "D4",
                    "midi": 62,
                    "time": 115.49999999999972,
                    "velocity": 0.3543307086614173,
                    "duration": 0.9000000000000057
                },
                {
                    "name": "G3",
                    "midi": 55,
                    "time": 117.29999999999973,
                    "velocity": 0.3543307086614173,
                    "duration": 0.29999999999999716
                },
                {
                    "name": "D#4",
                    "midi": 63,
                    "time": 117.29999999999973,
                    "velocity": 0.3543307086614173,
                    "duration": 0.29999999999999716
                },
                {
                    "name": "G3",
                    "midi": 55,
                    "time": 118.19999999999972,
                    "velocity": 0.49606299212598426,
                    "duration": 1.1937499999999943
                },
                {
                    "name": "C#4",
                    "midi": 61,
                    "time": 118.19999999999972,
                    "velocity": 0.49606299212598426,
                    "duration": 1.1937499999999943
                },
                {
                    "name": "D#3",
                    "midi": 51,
                    "time": 120.89999999999971,
                    "velocity": 0.7244094488188977,
                    "duration": 0.9000000000000057
                },
                {
                    "name": "D#4",
                    "midi": 63,
                    "time": 120.89999999999971,
                    "velocity": 0.7244094488188977,
                    "duration": 0.9000000000000057
                },
                {
                    "name": "F3",
                    "midi": 53,
                    "time": 121.79999999999971,
                    "velocity": 0.7244094488188977,
                    "duration": 0.5999999999999943
                },
                {
                    "name": "F4",
                    "midi": 65,
                    "time": 121.79999999999971,
                    "velocity": 0.7244094488188977,
                    "duration": 0.5999999999999943
                },
                {
                    "name": "G3",
                    "midi": 55,
                    "time": 122.39999999999971,
                    "velocity": 0.7244094488188977,
                    "duration": 0.29999999999999716
                },
                {
                    "name": "G4",
                    "midi": 67,
                    "time": 122.39999999999971,
                    "velocity": 0.7244094488188977,
                    "duration": 0.29999999999999716
                },
                {
                    "name": "G#3",
                    "midi": 56,
                    "time": 122.6999999999997,
                    "velocity": 0.7244094488188977,
                    "duration": 0.9000000000000057
                },
                {
                    "name": "G#4",
                    "midi": 68,
                    "time": 122.6999999999997,
                    "velocity": 0.7244094488188977,
                    "duration": 0.9000000000000057
                },
                {
                    "name": "C4",
                    "midi": 60,
                    "time": 123.59999999999971,
                    "velocity": 0.7244094488188977,
                    "duration": 0.7999999999999972
                },
                {
                    "name": "C5",
                    "midi": 72,
                    "time": 123.59999999999971,
                    "velocity": 0.7244094488188977,
                    "duration": 0.7999999999999972
                },
                {
                    "name": "C4",
                    "midi": 60,
                    "time": 124.4999999999997,
                    "velocity": 0.7244094488188977,
                    "duration": 1.7999999999999972
                },
                {
                    "name": "C5",
                    "midi": 72,
                    "time": 124.4999999999997,
                    "velocity": 0.7244094488188977,
                    "duration": 1.7999999999999972
                },
                {
                    "name": "A#3",
                    "midi": 58,
                    "time": 126.2999999999997,
                    "velocity": 0.7244094488188977,
                    "duration": 0.7999999999999972
                },
                {
                    "name": "A#4",
                    "midi": 70,
                    "time": 126.2999999999997,
                    "velocity": 0.7244094488188977,
                    "duration": 0.7999999999999972
                },
                {
                    "name": "C#4",
                    "midi": 61,
                    "time": 127.19999999999969,
                    "velocity": 0.7244094488188977,
                    "duration": 0.5999999999999943
                },
                {
                    "name": "C#5",
                    "midi": 73,
                    "time": 127.19999999999969,
                    "velocity": 0.7244094488188977,
                    "duration": 0.5999999999999943
                },
                {
                    "name": "C4",
                    "midi": 60,
                    "time": 127.79999999999968,
                    "velocity": 0.7244094488188977,
                    "duration": 0.29999999999999716
                },
                {
                    "name": "C5",
                    "midi": 72,
                    "time": 127.79999999999968,
                    "velocity": 0.7244094488188977,
                    "duration": 0.29999999999999716
                },
                {
                    "name": "G#3",
                    "midi": 56,
                    "time": 128.09999999999968,
                    "velocity": 0.7244094488188977,
                    "duration": 0.8000000000000114
                },
                {
                    "name": "G#4",
                    "midi": 68,
                    "time": 128.09999999999968,
                    "velocity": 0.7244094488188977,
                    "duration": 0.8000000000000114
                },
                {
                    "name": "C4",
                    "midi": 60,
                    "time": 128.9999999999997,
                    "velocity": 0.7244094488188977,
                    "duration": 0.9000000000000057
                },
                {
                    "name": "C5",
                    "midi": 72,
                    "time": 128.9999999999997,
                    "velocity": 0.7244094488188977,
                    "duration": 0.9000000000000057
                },
                {
                    "name": "G3",
                    "midi": 55,
                    "time": 129.8999999999997,
                    "velocity": 0.7244094488188977,
                    "duration": 0.8000000000000114
                },
                {
                    "name": "G4",
                    "midi": 67,
                    "time": 129.8999999999997,
                    "velocity": 0.7244094488188977,
                    "duration": 0.8000000000000114
                },
                {
                    "name": "C4",
                    "midi": 60,
                    "time": 130.7999999999997,
                    "velocity": 0.7244094488188977,
                    "duration": 0.9000000000000057
                },
                {
                    "name": "C5",
                    "midi": 72,
                    "time": 130.7999999999997,
                    "velocity": 0.7244094488188977,
                    "duration": 0.9000000000000057
                },
                {
                    "name": "F3",
                    "midi": 53,
                    "time": 131.6999999999997,
                    "velocity": 0.7244094488188977,
                    "duration": 2.5999999999999943
                },
                {
                    "name": "F4",
                    "midi": 65,
                    "time": 131.6999999999997,
                    "velocity": 0.7244094488188977,
                    "duration": 2.5999999999999943
                },
                {
                    "name": "F#3",
                    "midi": 54,
                    "time": 134.3999999999997,
                    "velocity": 0.7244094488188977,
                    "duration": 0.5999999999999943
                },
                {
                    "name": "F#4",
                    "midi": 66,
                    "time": 134.3999999999997,
                    "velocity": 0.7244094488188977,
                    "duration": 0.5999999999999943
                },
                {
                    "name": "F3",
                    "midi": 53,
                    "time": 134.9999999999997,
                    "velocity": 0.7244094488188977,
                    "duration": 0.29374999999998863
                },
                {
                    "name": "F4",
                    "midi": 65,
                    "time": 134.9999999999997,
                    "velocity": 0.7244094488188977,
                    "duration": 0.29374999999998863
                },
                {
                    "name": "F3",
                    "midi": 53,
                    "time": 135.29999999999967,
                    "velocity": 0.7244094488188977,
                    "duration": 0.9000000000000057
                },
                {
                    "name": "F4",
                    "midi": 65,
                    "time": 135.29999999999967,
                    "velocity": 0.7244094488188977,
                    "duration": 0.9000000000000057
                },
                {
                    "name": "G3",
                    "midi": 55,
                    "time": 136.19999999999968,
                    "velocity": 0.7244094488188977,
                    "duration": 0.5999999999999943
                },
                {
                    "name": "G4",
                    "midi": 67,
                    "time": 136.19999999999968,
                    "velocity": 0.7244094488188977,
                    "duration": 0.5999999999999943
                },
                {
                    "name": "A3",
                    "midi": 57,
                    "time": 136.79999999999967,
                    "velocity": 0.7244094488188977,
                    "duration": 0.30000000000001137
                },
                {
                    "name": "A4",
                    "midi": 69,
                    "time": 136.79999999999967,
                    "velocity": 0.7244094488188977,
                    "duration": 0.30000000000001137
                },
                {
                    "name": "A#3",
                    "midi": 58,
                    "time": 137.09999999999968,
                    "velocity": 0.7244094488188977,
                    "duration": 0.8000000000000114
                },
                {
                    "name": "A#4",
                    "midi": 70,
                    "time": 137.09999999999968,
                    "velocity": 0.7244094488188977,
                    "duration": 0.8000000000000114
                },
                {
                    "name": "C#4",
                    "midi": 61,
                    "time": 137.9999999999997,
                    "velocity": 0.7244094488188977,
                    "duration": 0.9000000000000057
                },
                {
                    "name": "C4",
                    "midi": 60,
                    "time": 138.8999999999997,
                    "velocity": 0.7244094488188977,
                    "duration": 0.30000000000001137
                },
                {
                    "name": "B3",
                    "midi": 59,
                    "time": 139.1999999999997,
                    "velocity": 0.7244094488188977,
                    "duration": 0.30000000000001137
                },
                {
                    "name": "C4",
                    "midi": 60,
                    "time": 139.49999999999972,
                    "velocity": 0.7244094488188977,
                    "duration": 0.30000000000001137
                },
                {
                    "name": "F4",
                    "midi": 65,
                    "time": 139.79999999999973,
                    "velocity": 0.7244094488188977,
                    "duration": 0.5999999999999943
                },
                {
                    "name": "D#4",
                    "midi": 63,
                    "time": 140.39999999999972,
                    "velocity": 0.7244094488188977,
                    "duration": 0.29374999999998863
                },
                {
                    "name": "D#4",
                    "midi": 63,
                    "time": 140.6999999999997,
                    "velocity": 0.7244094488188977,
                    "duration": 0.9000000000000057
                },
                {
                    "name": "C#4",
                    "midi": 61,
                    "time": 141.5999999999997,
                    "velocity": 0.7244094488188977,
                    "duration": 1.34375
                },
                {
                    "name": "D#3",
                    "midi": 51,
                    "time": 142.9499999999997,
                    "velocity": 0.7244094488188977,
                    "duration": 0.44999999999998863
                },
                {
                    "name": "D#4",
                    "midi": 63,
                    "time": 142.9499999999997,
                    "velocity": 0.7244094488188977,
                    "duration": 0.44999999999998863
                },
                {
                    "name": "F3",
                    "midi": 53,
                    "time": 143.3999999999997,
                    "velocity": 0.7244094488188977,
                    "duration": 0.44999999999998863
                },
                {
                    "name": "F4",
                    "midi": 65,
                    "time": 143.3999999999997,
                    "velocity": 0.7244094488188977,
                    "duration": 0.44999999999998863
                },
                {
                    "name": "G3",
                    "midi": 55,
                    "time": 143.84999999999968,
                    "velocity": 0.7244094488188977,
                    "duration": 0.44999999999998863
                },
                {
                    "name": "G4",
                    "midi": 67,
                    "time": 143.84999999999968,
                    "velocity": 0.7244094488188977,
                    "duration": 0.44999999999998863
                },
                {
                    "name": "G#3",
                    "midi": 56,
                    "time": 144.29999999999967,
                    "velocity": 0.7244094488188977,
                    "duration": 0.9000000000000057
                },
                {
                    "name": "G#4",
                    "midi": 68,
                    "time": 144.29999999999967,
                    "velocity": 0.7244094488188977,
                    "duration": 0.9000000000000057
                },
                {
                    "name": "C4",
                    "midi": 60,
                    "time": 145.19999999999968,
                    "velocity": 0.7244094488188977,
                    "duration": 0.9000000000000057
                },
                {
                    "name": "A#3",
                    "midi": 58,
                    "time": 146.09999999999968,
                    "velocity": 0.7244094488188977,
                    "duration": 0.30000000000001137
                },
                {
                    "name": "A3",
                    "midi": 57,
                    "time": 146.3999999999997,
                    "velocity": 0.7244094488188977,
                    "duration": 0.30000000000001137
                },
                {
                    "name": "A#3",
                    "midi": 58,
                    "time": 146.6999999999997,
                    "velocity": 0.7244094488188977,
                    "duration": 0.30000000000001137
                },
                {
                    "name": "D#4",
                    "midi": 63,
                    "time": 146.99999999999972,
                    "velocity": 0.7244094488188977,
                    "duration": 0.5999999999999943
                },
                {
                    "name": "C#4",
                    "midi": 61,
                    "time": 147.5999999999997,
                    "velocity": 0.7244094488188977,
                    "duration": 0.29374999999998863
                },
                {
                    "name": "C#4",
                    "midi": 61,
                    "time": 147.8999999999997,
                    "velocity": 0.7244094488188977,
                    "duration": 0.9000000000000057
                },
                {
                    "name": "C4",
                    "midi": 60,
                    "time": 148.7999999999997,
                    "velocity": 0.7244094488188977,
                    "duration": 1.34375
                },
                {
                    "name": "G#3",
                    "midi": 56,
                    "time": 150.1499999999997,
                    "velocity": 0.7244094488188977,
                    "duration": 0.44999999999998863
                },
                {
                    "name": "G#4",
                    "midi": 68,
                    "time": 150.1499999999997,
                    "velocity": 0.7244094488188977,
                    "duration": 0.44999999999998863
                },
                {
                    "name": "A#3",
                    "midi": 58,
                    "time": 150.59999999999968,
                    "velocity": 0.7244094488188977,
                    "duration": 0.44999999999998863
                },
                {
                    "name": "A#4",
                    "midi": 70,
                    "time": 150.59999999999968,
                    "velocity": 0.7244094488188977,
                    "duration": 0.44999999999998863
                },
                {
                    "name": "C4",
                    "midi": 60,
                    "time": 151.04999999999967,
                    "velocity": 0.7244094488188977,
                    "duration": 0.44999999999998863
                },
                {
                    "name": "C5",
                    "midi": 72,
                    "time": 151.04999999999967,
                    "velocity": 0.7244094488188977,
                    "duration": 0.44999999999998863
                },
                {
                    "name": "C#4",
                    "midi": 61,
                    "time": 151.49999999999966,
                    "velocity": 0.7244094488188977,
                    "duration": 0.9000000000000057
                },
                {
                    "name": "C#5",
                    "midi": 73,
                    "time": 151.49999999999966,
                    "velocity": 0.7244094488188977,
                    "duration": 0.9000000000000057
                },
                {
                    "name": "G#3",
                    "midi": 56,
                    "time": 152.39999999999966,
                    "velocity": 0.7244094488188977,
                    "duration": 0.9000000000000057
                },
                {
                    "name": "G#4",
                    "midi": 68,
                    "time": 152.39999999999966,
                    "velocity": 0.7244094488188977,
                    "duration": 0.9000000000000057
                },
                {
                    "name": "D#4",
                    "midi": 63,
                    "time": 153.29999999999967,
                    "velocity": 0.7244094488188977,
                    "duration": 0.8000000000000114
                },
                {
                    "name": "G#3",
                    "midi": 56,
                    "time": 154.19999999999968,
                    "velocity": 0.7244094488188977,
                    "duration": 0.9000000000000057
                },
                {
                    "name": "G#4",
                    "midi": 68,
                    "time": 154.19999999999968,
                    "velocity": 0.7244094488188977,
                    "duration": 0.9000000000000057
                },
                {
                    "name": "F4",
                    "midi": 65,
                    "time": 155.09999999999968,
                    "velocity": 0.7244094488188977,
                    "duration": 0.44999999999998863
                },
                {
                    "name": "G4",
                    "midi": 67,
                    "time": 155.54999999999967,
                    "velocity": 0.7244094488188977,
                    "duration": 0.44999999999998863
                },
                {
                    "name": "G#4",
                    "midi": 68,
                    "time": 155.99999999999966,
                    "velocity": 0.7244094488188977,
                    "duration": 1.6999999999999886
                },
                {
                    "name": "G4",
                    "midi": 67,
                    "time": 157.79999999999964,
                    "velocity": 0.7244094488188977,
                    "duration": 0.5999999999999943
                },
                {
                    "name": "F4",
                    "midi": 65,
                    "time": 158.39999999999964,
                    "velocity": 0.7244094488188977,
                    "duration": 0.30000000000001137
                },
                {
                    "name": "D#4",
                    "midi": 63,
                    "time": 158.69999999999965,
                    "velocity": 0.7244094488188977,
                    "duration": 0.8000000000000114
                },
                {
                    "name": "C4",
                    "midi": 60,
                    "time": 159.59999999999965,
                    "velocity": 0.7244094488188977,
                    "duration": 0.5999999999999943
                },
                {
                    "name": "G#3",
                    "midi": 56,
                    "time": 160.19999999999965,
                    "velocity": 0.7244094488188977,
                    "duration": 0.30000000000001137
                },
                {
                    "name": "C4",
                    "midi": 60,
                    "time": 160.49999999999966,
                    "velocity": 0.7244094488188977,
                    "duration": 0.9000000000000057
                },
                {
                    "name": "G4",
                    "midi": 67,
                    "time": 160.49999999999966,
                    "velocity": 0.7244094488188977,
                    "duration": 1.6500000000000057
                },
                {
                    "name": "A#3",
                    "midi": 58,
                    "time": 161.39999999999966,
                    "velocity": 0.7244094488188977,
                    "duration": 0.9000000000000057
                },
                {
                    "name": "C4",
                    "midi": 60,
                    "time": 162.29999999999967,
                    "velocity": 0.47244094488188976,
                    "duration": 0.5999999999999943
                },
                {
                    "name": "G4",
                    "midi": 67,
                    "time": 162.29999999999967,
                    "velocity": 0.47244094488188976,
                    "duration": 0.5999999999999943
                },
                {
                    "name": "B3",
                    "midi": 59,
                    "time": 167.69999999999968,
                    "velocity": 0.6614173228346457,
                    "duration": 0.29374999999998863
                },
                {
                    "name": "F4",
                    "midi": 65,
                    "time": 167.69999999999968,
                    "velocity": 0.6614173228346457,
                    "duration": 0.29374999999998863
                },
                {
                    "name": "C4",
                    "midi": 60,
                    "time": 170.69999999999968,
                    "velocity": 0.3543307086614173,
                    "duration": 0.09999999999999432
                },
                {
                    "name": "D#4",
                    "midi": 63,
                    "time": 170.69999999999968,
                    "velocity": 0.3543307086614173,
                    "duration": 0.09999999999999432
                },
                {
                    "name": "C4",
                    "midi": 60,
                    "time": 171.59999999999968,
                    "velocity": 0.3543307086614173,
                    "duration": 0.09999999999999432
                },
                {
                    "name": "F4",
                    "midi": 65,
                    "time": 171.59999999999968,
                    "velocity": 0.3543307086614173,
                    "duration": 0.09999999999999432
                },
                {
                    "name": "B3",
                    "midi": 59,
                    "time": 172.4999999999997,
                    "velocity": 0.3543307086614173,
                    "duration": 0.09999999999999432
                },
                {
                    "name": "G4",
                    "midi": 67,
                    "time": 172.4999999999997,
                    "velocity": 0.3543307086614173,
                    "duration": 0.09999999999999432
                },
                {
                    "name": "B3",
                    "midi": 59,
                    "time": 173.3999999999997,
                    "velocity": 0.3543307086614173,
                    "duration": 0.09999999999999432
                },
                {
                    "name": "F4",
                    "midi": 65,
                    "time": 173.3999999999997,
                    "velocity": 0.3543307086614173,
                    "duration": 0.09999999999999432
                },
                {
                    "name": "C4",
                    "midi": 60,
                    "time": 174.2999999999997,
                    "velocity": 0.3543307086614173,
                    "duration": 0.09999999999999432
                },
                {
                    "name": "D#4",
                    "midi": 63,
                    "time": 174.2999999999997,
                    "velocity": 0.3543307086614173,
                    "duration": 0.09999999999999432
                },
                {
                    "name": "C4",
                    "midi": 60,
                    "time": 175.1999999999997,
                    "velocity": 0.3543307086614173,
                    "duration": 0.09999999999999432
                },
                {
                    "name": "D#4",
                    "midi": 63,
                    "time": 175.1999999999997,
                    "velocity": 0.3543307086614173,
                    "duration": 0.09999999999999432
                },
                {
                    "name": "B3",
                    "midi": 59,
                    "time": 175.7999999999997,
                    "velocity": 0.3543307086614173,
                    "duration": 0.5999999999999943
                },
                {
                    "name": "G4",
                    "midi": 67,
                    "time": 175.7999999999997,
                    "velocity": 0.3543307086614173,
                    "duration": 0.5999999999999943
                },
                {
                    "name": "B3",
                    "midi": 59,
                    "time": 176.6999999999997,
                    "velocity": 0.3543307086614173,
                    "duration": 0.9000000000000057
                },
                {
                    "name": "F4",
                    "midi": 65,
                    "time": 176.6999999999997,
                    "velocity": 0.3543307086614173,
                    "duration": 0.9000000000000057
                },
                {
                    "name": "C4",
                    "midi": 60,
                    "time": 177.5999999999997,
                    "velocity": 0.3543307086614173,
                    "duration": 0.09999999999999432
                },
                {
                    "name": "D#4",
                    "midi": 63,
                    "time": 177.5999999999997,
                    "velocity": 0.3543307086614173,
                    "duration": 0.09999999999999432
                },
                {
                    "name": "C4",
                    "midi": 60,
                    "time": 177.8999999999997,
                    "velocity": 0.3543307086614173,
                    "duration": 0.09999999999999432
                },
                {
                    "name": "D#4",
                    "midi": 63,
                    "time": 177.8999999999997,
                    "velocity": 0.3543307086614173,
                    "duration": 0.09999999999999432
                },
                {
                    "name": "C4",
                    "midi": 60,
                    "time": 178.7999999999997,
                    "velocity": 0.3543307086614173,
                    "duration": 0.09999999999999432
                },
                {
                    "name": "F#4",
                    "midi": 66,
                    "time": 178.7999999999997,
                    "velocity": 0.3543307086614173,
                    "duration": 0.09999999999999432
                },
                {
                    "name": "B3",
                    "midi": 59,
                    "time": 179.6999999999997,
                    "velocity": 0.3543307086614173,
                    "duration": 0.09999999999999432
                },
                {
                    "name": "G4",
                    "midi": 67,
                    "time": 179.6999999999997,
                    "velocity": 0.3543307086614173,
                    "duration": 0.09999999999999432
                },
                {
                    "name": "B3",
                    "midi": 59,
                    "time": 180.5999999999997,
                    "velocity": 0.3543307086614173,
                    "duration": 0.09999999999999432
                },
                {
                    "name": "F4",
                    "midi": 65,
                    "time": 180.5999999999997,
                    "velocity": 0.3543307086614173,
                    "duration": 0.09999999999999432
                },
                {
                    "name": "C4",
                    "midi": 60,
                    "time": 181.1999999999997,
                    "velocity": 0.3543307086614173,
                    "duration": 0.09999999999999432
                },
                {
                    "name": "D#4",
                    "midi": 63,
                    "time": 181.1999999999997,
                    "velocity": 0.3543307086614173,
                    "duration": 0.09999999999999432
                },
                {
                    "name": "B3",
                    "midi": 59,
                    "time": 182.0999999999997,
                    "velocity": 0.3543307086614173,
                    "duration": 0.09999999999999432
                },
                {
                    "name": "F4",
                    "midi": 65,
                    "time": 182.0999999999997,
                    "velocity": 0.3543307086614173,
                    "duration": 0.09999999999999432
                },
                {
                    "name": "C4",
                    "midi": 60,
                    "time": 182.99999999999972,
                    "velocity": 0.3543307086614173,
                    "duration": 0.5999999999999943
                },
                {
                    "name": "D#4",
                    "midi": 63,
                    "time": 182.99999999999972,
                    "velocity": 0.3543307086614173,
                    "duration": 0.5999999999999943
                },
                {
                    "name": "C4",
                    "midi": 60,
                    "time": 185.0999999999997,
                    "velocity": 0.7244094488188977,
                    "duration": 0.30000000000001137
                },
                {
                    "name": "D4",
                    "midi": 62,
                    "time": 185.39999999999972,
                    "velocity": 0.7244094488188977,
                    "duration": 0.30000000000001137
                },
                {
                    "name": "D#4",
                    "midi": 63,
                    "time": 185.69999999999973,
                    "velocity": 0.7244094488188977,
                    "duration": 0.30000000000001137
                },
                {
                    "name": "F4",
                    "midi": 65,
                    "time": 185.99999999999974,
                    "velocity": 0.7244094488188977,
                    "duration": 0.30000000000001137
                },
                {
                    "name": "F#4",
                    "midi": 66,
                    "time": 186.29999999999976,
                    "velocity": 0.7244094488188977,
                    "duration": 0.30000000000001137
                },
                {
                    "name": "G4",
                    "midi": 67,
                    "time": 186.59999999999977,
                    "velocity": 0.7244094488188977,
                    "duration": 0.9000000000000057
                },
                {
                    "name": "F4",
                    "midi": 65,
                    "time": 187.49999999999977,
                    "velocity": 0.7244094488188977,
                    "duration": 0.8000000000000114
                },
                {
                    "name": "D#4",
                    "midi": 63,
                    "time": 188.39999999999978,
                    "velocity": 0.7244094488188977,
                    "duration": 0.5999999999999943
                },
                {
                    "name": "D4",
                    "midi": 62,
                    "time": 188.99999999999977,
                    "velocity": 0.7244094488188977,
                    "duration": 0.30000000000001137
                },
                {
                    "name": "C4",
                    "midi": 60,
                    "time": 189.29999999999978,
                    "velocity": 0.7244094488188977,
                    "duration": 0.30000000000001137
                },
                {
                    "name": "B3",
                    "midi": 59,
                    "time": 189.5999999999998,
                    "velocity": 0.7244094488188977,
                    "duration": 0.30000000000001137
                },
                {
                    "name": "C4",
                    "midi": 60,
                    "time": 189.8999999999998,
                    "velocity": 0.7244094488188977,
                    "duration": 0.30000000000001137
                },
                {
                    "name": "D4",
                    "midi": 62,
                    "time": 190.19999999999982,
                    "velocity": 0.7244094488188977,
                    "duration": 0.5
                },
                {
                    "name": "G3",
                    "midi": 55,
                    "time": 191.09999999999982,
                    "velocity": 0.7244094488188977,
                    "duration": 1.1937499999999943
                },
                {
                    "name": "C4",
                    "midi": 60,
                    "time": 192.2999999999998,
                    "velocity": 0.7244094488188977,
                    "duration": 0.30000000000001137
                },
                {
                    "name": "D4",
                    "midi": 62,
                    "time": 192.59999999999982,
                    "velocity": 0.7244094488188977,
                    "duration": 0.30000000000001137
                },
                {
                    "name": "C4",
                    "midi": 60,
                    "time": 192.89999999999984,
                    "velocity": 0.7244094488188977,
                    "duration": 0.30000000000001137
                },
                {
                    "name": "D4",
                    "midi": 62,
                    "time": 193.19999999999985,
                    "velocity": 0.7244094488188977,
                    "duration": 0.30000000000001137
                },
                {
                    "name": "F#4",
                    "midi": 66,
                    "time": 193.49999999999986,
                    "velocity": 0.7244094488188977,
                    "duration": 0.30000000000001137
                },
                {
                    "name": "G4",
                    "midi": 67,
                    "time": 193.79999999999987,
                    "velocity": 0.7244094488188977,
                    "duration": 0.8000000000000114
                },
                {
                    "name": "F4",
                    "midi": 65,
                    "time": 194.69999999999987,
                    "velocity": 0.7244094488188977,
                    "duration": 0.30000000000001137
                },
                {
                    "name": "D#4",
                    "midi": 63,
                    "time": 194.9999999999999,
                    "velocity": 0.7244094488188977,
                    "duration": 0.30000000000001137
                },
                {
                    "name": "D4",
                    "midi": 62,
                    "time": 195.2999999999999,
                    "velocity": 0.7244094488188977,
                    "duration": 0.30000000000001137
                },
                {
                    "name": "D#4",
                    "midi": 63,
                    "time": 195.5999999999999,
                    "velocity": 0.7244094488188977,
                    "duration": 0.29374999999998863
                },
                {
                    "name": "G4",
                    "midi": 67,
                    "time": 195.5999999999999,
                    "velocity": 0.7244094488188977,
                    "duration": 0.29374999999998863
                },
                {
                    "name": "D4",
                    "midi": 62,
                    "time": 196.4999999999999,
                    "velocity": 0.7244094488188977,
                    "duration": 0.29374999999998863
                },
                {
                    "name": "F4",
                    "midi": 65,
                    "time": 196.4999999999999,
                    "velocity": 0.7244094488188977,
                    "duration": 0.29374999999998863
                },
                {
                    "name": "C4",
                    "midi": 60,
                    "time": 197.39999999999986,
                    "velocity": 0.7244094488188977,
                    "duration": 0.5999999999999943
                },
                {
                    "name": "D#4",
                    "midi": 63,
                    "time": 197.39999999999986,
                    "velocity": 0.7244094488188977,
                    "duration": 0.5999999999999943
                },
                {
                    "name": "D#4",
                    "midi": 63,
                    "time": 199.19999999999985,
                    "velocity": 0.3543307086614173,
                    "duration": 0.5999999999999943
                },
                {
                    "name": "G4",
                    "midi": 67,
                    "time": 199.19999999999985,
                    "velocity": 0.3543307086614173,
                    "duration": 0.5999999999999943
                },
                {
                    "name": "D4",
                    "midi": 62,
                    "time": 200.09999999999985,
                    "velocity": 0.3543307086614173,
                    "duration": 0.5999999999999943
                },
                {
                    "name": "F4",
                    "midi": 65,
                    "time": 200.09999999999985,
                    "velocity": 0.3543307086614173,
                    "duration": 0.5999999999999943
                },
                {
                    "name": "D#4",
                    "midi": 63,
                    "time": 200.99999999999986,
                    "velocity": 0.3543307086614173,
                    "duration": 0.5999999999999943
                },
                {
                    "name": "G4",
                    "midi": 67,
                    "time": 200.99999999999986,
                    "velocity": 0.3543307086614173,
                    "duration": 0.5999999999999943
                },
                {
                    "name": "A#3",
                    "midi": 58,
                    "time": 202.79999999999984,
                    "velocity": 0.3543307086614173,
                    "duration": 0.5999999999999943
                },
                {
                    "name": "G4",
                    "midi": 67,
                    "time": 202.79999999999984,
                    "velocity": 0.3543307086614173,
                    "duration": 0.5999999999999943
                },
                {
                    "name": "A3",
                    "midi": 57,
                    "time": 203.69999999999985,
                    "velocity": 0.3543307086614173,
                    "duration": 0.5999999999999943
                },
                {
                    "name": "F#4",
                    "midi": 66,
                    "time": 203.69999999999985,
                    "velocity": 0.3543307086614173,
                    "duration": 0.5999999999999943
                },
                {
                    "name": "A#3",
                    "midi": 58,
                    "time": 204.59999999999985,
                    "velocity": 0.3543307086614173,
                    "duration": 0.5999999999999943
                },
                {
                    "name": "G4",
                    "midi": 67,
                    "time": 204.59999999999985,
                    "velocity": 0.3543307086614173,
                    "duration": 0.5999999999999943
                },
                {
                    "name": "D4",
                    "midi": 62,
                    "time": 206.39999999999984,
                    "velocity": 0.3543307086614173,
                    "duration": 0.5999999999999943
                },
                {
                    "name": "F4",
                    "midi": 65,
                    "time": 206.39999999999984,
                    "velocity": 0.3543307086614173,
                    "duration": 0.5999999999999943
                },
                {
                    "name": "C4",
                    "midi": 60,
                    "time": 207.29999999999984,
                    "velocity": 0.3543307086614173,
                    "duration": 0.5999999999999943
                },
                {
                    "name": "F4",
                    "midi": 65,
                    "time": 207.29999999999984,
                    "velocity": 0.3543307086614173,
                    "duration": 0.5999999999999943
                },
                {
                    "name": "D4",
                    "midi": 62,
                    "time": 208.19999999999985,
                    "velocity": 0.3543307086614173,
                    "duration": 0.9000000000000057
                },
                {
                    "name": "F4",
                    "midi": 65,
                    "time": 208.19999999999985,
                    "velocity": 0.3543307086614173,
                    "duration": 0.9000000000000057
                },
                {
                    "name": "C4",
                    "midi": 60,
                    "time": 209.09999999999985,
                    "velocity": 0.3543307086614173,
                    "duration": 0.9000000000000057
                },
                {
                    "name": "F4",
                    "midi": 65,
                    "time": 209.09999999999985,
                    "velocity": 0.3543307086614173,
                    "duration": 0.9000000000000057
                },
                {
                    "name": "D4",
                    "midi": 62,
                    "time": 209.99999999999986,
                    "velocity": 0.3543307086614173,
                    "duration": 0.9000000000000057
                },
                {
                    "name": "F4",
                    "midi": 65,
                    "time": 209.99999999999986,
                    "velocity": 0.3543307086614173,
                    "duration": 0.9000000000000057
                },
                {
                    "name": "C4",
                    "midi": 60,
                    "time": 210.89999999999986,
                    "velocity": 0.3543307086614173,
                    "duration": 0.9000000000000057
                },
                {
                    "name": "F4",
                    "midi": 65,
                    "time": 210.89999999999986,
                    "velocity": 0.3543307086614173,
                    "duration": 0.9000000000000057
                },
                {
                    "name": "D4",
                    "midi": 62,
                    "time": 211.79999999999987,
                    "velocity": 0.3543307086614173,
                    "duration": 0.9000000000000057
                },
                {
                    "name": "F4",
                    "midi": 65,
                    "time": 211.79999999999987,
                    "velocity": 0.3543307086614173,
                    "duration": 0.9000000000000057
                },
                {
                    "name": "C4",
                    "midi": 60,
                    "time": 212.69999999999987,
                    "velocity": 0.49606299212598426,
                    "duration": 1.1937499999999943
                },
                {
                    "name": "D#4",
                    "midi": 63,
                    "time": 212.69999999999987,
                    "velocity": 0.49606299212598426,
                    "duration": 1.1937499999999943
                },
                {
                    "name": "C4",
                    "midi": 60,
                    "time": 213.89999999999986,
                    "velocity": 0.47244094488188976,
                    "duration": 0.09999999999999432
                },
                {
                    "name": "D#4",
                    "midi": 63,
                    "time": 213.89999999999986,
                    "velocity": 0.47244094488188976,
                    "duration": 0.09999999999999432
                },
                {
                    "name": "A#3",
                    "midi": 58,
                    "time": 214.19999999999985,
                    "velocity": 0.47244094488188976,
                    "duration": 0.09999999999999432
                },
                {
                    "name": "D#4",
                    "midi": 63,
                    "time": 214.19999999999985,
                    "velocity": 0.47244094488188976,
                    "duration": 0.09999999999999432
                },
                {
                    "name": "D4",
                    "midi": 62,
                    "time": 214.79999999999984,
                    "velocity": 0.47244094488188976,
                    "duration": 0.09999999999999432
                },
                {
                    "name": "F4",
                    "midi": 65,
                    "time": 214.79999999999984,
                    "velocity": 0.47244094488188976,
                    "duration": 0.09999999999999432
                },
                {
                    "name": "C4",
                    "midi": 60,
                    "time": 215.09999999999982,
                    "velocity": 0.47244094488188976,
                    "duration": 0.09999999999999432
                },
                {
                    "name": "G4",
                    "midi": 67,
                    "time": 215.09999999999982,
                    "velocity": 0.47244094488188976,
                    "duration": 0.09999999999999432
                },
                {
                    "name": "C4",
                    "midi": 60,
                    "time": 215.69999999999982,
                    "velocity": 0.47244094488188976,
                    "duration": 0.09999999999999432
                },
                {
                    "name": "F4",
                    "midi": 65,
                    "time": 215.69999999999982,
                    "velocity": 0.47244094488188976,
                    "duration": 0.09999999999999432
                },
                {
                    "name": "C4",
                    "midi": 60,
                    "time": 215.9999999999998,
                    "velocity": 0.47244094488188976,
                    "duration": 0.09999999999999432
                },
                {
                    "name": "F4",
                    "midi": 65,
                    "time": 215.9999999999998,
                    "velocity": 0.47244094488188976,
                    "duration": 0.09999999999999432
                },
                {
                    "name": "A#3",
                    "midi": 58,
                    "time": 216.29999999999978,
                    "velocity": 0.6614173228346457,
                    "duration": 1.1937499999999943
                },
                {
                    "name": "D4",
                    "midi": 62,
                    "time": 216.29999999999978,
                    "velocity": 0.6614173228346457,
                    "duration": 1.1937499999999943
                },
                {
                    "name": "A#3",
                    "midi": 58,
                    "time": 217.49999999999977,
                    "velocity": 0.47244094488188976,
                    "duration": 0.09999999999999432
                },
                {
                    "name": "D4",
                    "midi": 62,
                    "time": 217.49999999999977,
                    "velocity": 0.47244094488188976,
                    "duration": 0.09999999999999432
                },
                {
                    "name": "A#3",
                    "midi": 58,
                    "time": 217.79999999999976,
                    "velocity": 0.47244094488188976,
                    "duration": 0.09999999999999432
                },
                {
                    "name": "D4",
                    "midi": 62,
                    "time": 217.79999999999976,
                    "velocity": 0.47244094488188976,
                    "duration": 0.09999999999999432
                },
                {
                    "name": "A#3",
                    "midi": 58,
                    "time": 218.39999999999975,
                    "velocity": 0.47244094488188976,
                    "duration": 0.09999999999999432
                },
                {
                    "name": "D#4",
                    "midi": 63,
                    "time": 218.39999999999975,
                    "velocity": 0.47244094488188976,
                    "duration": 0.09999999999999432
                },
                {
                    "name": "A#3",
                    "midi": 58,
                    "time": 218.69999999999973,
                    "velocity": 0.47244094488188976,
                    "duration": 0.09999999999999432
                },
                {
                    "name": "D4",
                    "midi": 62,
                    "time": 218.69999999999973,
                    "velocity": 0.47244094488188976,
                    "duration": 0.09999999999999432
                },
                {
                    "name": "A#3",
                    "midi": 58,
                    "time": 218.99999999999972,
                    "velocity": 0.47244094488188976,
                    "duration": 0.5999999999999943
                },
                {
                    "name": "D#4",
                    "midi": 63,
                    "time": 218.99999999999972,
                    "velocity": 0.47244094488188976,
                    "duration": 0.5999999999999943
                },
                {
                    "name": "B3",
                    "midi": 59,
                    "time": 223.49999999999972,
                    "velocity": 0.5905511811023622,
                    "duration": 0.9000000000000057
                },
                {
                    "name": "C4",
                    "midi": 60,
                    "time": 224.39999999999972,
                    "velocity": 0.5905511811023622,
                    "duration": 1.8000000000000114
                },
                {
                    "name": "B3",
                    "midi": 59,
                    "time": 226.19999999999973,
                    "velocity": 0.5905511811023622,
                    "duration": 0.5999999999999943
                },
                {
                    "name": "G4",
                    "midi": 67,
                    "time": 229.79999999999973,
                    "velocity": 0.3543307086614173,
                    "duration": 0.09999999999999432
                },
                {
                    "name": "G4",
                    "midi": 67,
                    "time": 230.0999999999997,
                    "velocity": 0.3543307086614173,
                    "duration": 0.09999999999999432
                },
                {
                    "name": "G4",
                    "midi": 67,
                    "time": 230.3999999999997,
                    "velocity": 0.3543307086614173,
                    "duration": 0.09999999999999432
                },
                {
                    "name": "G3",
                    "midi": 55,
                    "time": 230.69999999999968,
                    "velocity": 0.3543307086614173,
                    "duration": 0.09999999999999432
                },
                {
                    "name": "G3",
                    "midi": 55,
                    "time": 230.99999999999966,
                    "velocity": 0.3543307086614173,
                    "duration": 0.09999999999999432
                },
                {
                    "name": "G3",
                    "midi": 55,
                    "time": 231.29999999999964,
                    "velocity": 0.3543307086614173,
                    "duration": 0.09999999999999432
                },
                {
                    "name": "C4",
                    "midi": 60,
                    "time": 232.79999999999964,
                    "velocity": 0.3543307086614173,
                    "duration": 0.09999999999999432
                },
                {
                    "name": "D#4",
                    "midi": 63,
                    "time": 232.79999999999964,
                    "velocity": 0.3543307086614173,
                    "duration": 0.09999999999999432
                },
                {
                    "name": "C4",
                    "midi": 60,
                    "time": 233.69999999999965,
                    "velocity": 0.3543307086614173,
                    "duration": 0.09999999999999432
                },
                {
                    "name": "F4",
                    "midi": 65,
                    "time": 233.69999999999965,
                    "velocity": 0.3543307086614173,
                    "duration": 0.09999999999999432
                },
                {
                    "name": "B3",
                    "midi": 59,
                    "time": 234.59999999999965,
                    "velocity": 0.3543307086614173,
                    "duration": 0.09999999999999432
                },
                {
                    "name": "F4",
                    "midi": 65,
                    "time": 234.59999999999965,
                    "velocity": 0.3543307086614173,
                    "duration": 0.09999999999999432
                },
                {
                    "name": "B3",
                    "midi": 59,
                    "time": 235.49999999999966,
                    "velocity": 0.3543307086614173,
                    "duration": 0.09999999999999432
                },
                {
                    "name": "F4",
                    "midi": 65,
                    "time": 235.49999999999966,
                    "velocity": 0.3543307086614173,
                    "duration": 0.09999999999999432
                },
                {
                    "name": "C4",
                    "midi": 60,
                    "time": 236.39999999999966,
                    "velocity": 0.3543307086614173,
                    "duration": 0.09999999999999432
                },
                {
                    "name": "D#4",
                    "midi": 63,
                    "time": 236.39999999999966,
                    "velocity": 0.3543307086614173,
                    "duration": 0.09999999999999432
                },
                {
                    "name": "D#4",
                    "midi": 63,
                    "time": 237.29999999999967,
                    "velocity": 0.3543307086614173,
                    "duration": 0.09999999999999432
                },
                {
                    "name": "F#4",
                    "midi": 66,
                    "time": 237.29999999999967,
                    "velocity": 0.3543307086614173,
                    "duration": 0.09999999999999432
                },
                {
                    "name": "B3",
                    "midi": 59,
                    "time": 237.89999999999966,
                    "velocity": 0.3543307086614173,
                    "duration": 0.5999999999999943
                },
                {
                    "name": "G4",
                    "midi": 67,
                    "time": 237.89999999999966,
                    "velocity": 0.3543307086614173,
                    "duration": 0.5999999999999943
                },
                {
                    "name": "B3",
                    "midi": 59,
                    "time": 238.79999999999967,
                    "velocity": 0.49606299212598426,
                    "duration": 0.9000000000000057
                },
                {
                    "name": "F4",
                    "midi": 65,
                    "time": 238.79999999999967,
                    "velocity": 0.49606299212598426,
                    "duration": 0.9000000000000057
                },
                {
                    "name": "C4",
                    "midi": 60,
                    "time": 239.69999999999968,
                    "velocity": 0.3543307086614173,
                    "duration": 0.09999999999999432
                },
                {
                    "name": "E4",
                    "midi": 64,
                    "time": 239.69999999999968,
                    "velocity": 0.3543307086614173,
                    "duration": 0.09999999999999432
                },
                {
                    "name": "C4",
                    "midi": 60,
                    "time": 239.99999999999966,
                    "velocity": 0.3543307086614173,
                    "duration": 0.09999999999999432
                },
                {
                    "name": "E4",
                    "midi": 64,
                    "time": 239.99999999999966,
                    "velocity": 0.3543307086614173,
                    "duration": 0.09999999999999432
                },
                {
                    "name": "A#3",
                    "midi": 58,
                    "time": 240.59999999999965,
                    "velocity": 0.3543307086614173,
                    "duration": 0.09999999999999432
                },
                {
                    "name": "E4",
                    "midi": 64,
                    "time": 240.59999999999965,
                    "velocity": 0.3543307086614173,
                    "duration": 0.09999999999999432
                },
                {
                    "name": "A#3",
                    "midi": 58,
                    "time": 240.89999999999964,
                    "velocity": 0.3543307086614173,
                    "duration": 0.09999999999999432
                },
                {
                    "name": "E4",
                    "midi": 64,
                    "time": 240.89999999999964,
                    "velocity": 0.3543307086614173,
                    "duration": 0.09999999999999432
                },
                {
                    "name": "A3",
                    "midi": 57,
                    "time": 241.49999999999963,
                    "velocity": 0.3543307086614173,
                    "duration": 0.09999999999999432
                },
                {
                    "name": "F4",
                    "midi": 65,
                    "time": 241.49999999999963,
                    "velocity": 0.3543307086614173,
                    "duration": 0.09999999999999432
                },
                {
                    "name": "A3",
                    "midi": 57,
                    "time": 241.7999999999996,
                    "velocity": 0.3543307086614173,
                    "duration": 0.09999999999999432
                },
                {
                    "name": "F4",
                    "midi": 65,
                    "time": 241.7999999999996,
                    "velocity": 0.3543307086614173,
                    "duration": 0.09999999999999432
                },
                {
                    "name": "G#3",
                    "midi": 56,
                    "time": 242.3999999999996,
                    "velocity": 0.3543307086614173,
                    "duration": 0.09999999999999432
                },
                {
                    "name": "F4",
                    "midi": 65,
                    "time": 242.3999999999996,
                    "velocity": 0.3543307086614173,
                    "duration": 0.09999999999999432
                },
                {
                    "name": "G#3",
                    "midi": 56,
                    "time": 242.6999999999996,
                    "velocity": 0.3543307086614173,
                    "duration": 0.09999999999999432
                },
                {
                    "name": "F4",
                    "midi": 65,
                    "time": 242.6999999999996,
                    "velocity": 0.3543307086614173,
                    "duration": 0.09999999999999432
                },
                {
                    "name": "C4",
                    "midi": 60,
                    "time": 243.29999999999959,
                    "velocity": 0.3543307086614173,
                    "duration": 0.09999999999999432
                },
                {
                    "name": "D#4",
                    "midi": 63,
                    "time": 243.29999999999959,
                    "velocity": 0.3543307086614173,
                    "duration": 0.09999999999999432
                },
                {
                    "name": "B3",
                    "midi": 59,
                    "time": 244.1999999999996,
                    "velocity": 0.3543307086614173,
                    "duration": 0.09999999999999432
                },
                {
                    "name": "F4",
                    "midi": 65,
                    "time": 244.1999999999996,
                    "velocity": 0.3543307086614173,
                    "duration": 0.09999999999999432
                },
                {
                    "name": "C4",
                    "midi": 60,
                    "time": 245.0999999999996,
                    "velocity": 0.3543307086614173,
                    "duration": 0.5999999999999943
                },
                {
                    "name": "D#4",
                    "midi": 63,
                    "time": 245.0999999999996,
                    "velocity": 0.3543307086614173,
                    "duration": 0.5999999999999943
                },
                {
                    "name": "C4",
                    "midi": 60,
                    "time": 247.1999999999996,
                    "velocity": 0.7244094488188977,
                    "duration": 0.30000000000001137
                },
                {
                    "name": "D4",
                    "midi": 62,
                    "time": 247.4999999999996,
                    "velocity": 0.7244094488188977,
                    "duration": 0.30000000000001137
                },
                {
                    "name": "D#4",
                    "midi": 63,
                    "time": 247.7999999999996,
                    "velocity": 0.7244094488188977,
                    "duration": 0.30000000000001137
                },
                {
                    "name": "F4",
                    "midi": 65,
                    "time": 248.09999999999962,
                    "velocity": 0.7244094488188977,
                    "duration": 0.30000000000001137
                },
                {
                    "name": "F#4",
                    "midi": 66,
                    "time": 248.39999999999964,
                    "velocity": 0.7244094488188977,
                    "duration": 0.30000000000001137
                },
                {
                    "name": "G4",
                    "midi": 67,
                    "time": 248.69999999999965,
                    "velocity": 0.7244094488188977,
                    "duration": 0.9000000000000057
                },
                {
                    "name": "F4",
                    "midi": 65,
                    "time": 249.59999999999965,
                    "velocity": 0.7244094488188977,
                    "duration": 0.8000000000000114
                },
                {
                    "name": "D#4",
                    "midi": 63,
                    "time": 250.49999999999966,
                    "velocity": 0.7244094488188977,
                    "duration": 0.5999999999999943
                },
                {
                    "name": "D4",
                    "midi": 62,
                    "time": 251.09999999999965,
                    "velocity": 0.7244094488188977,
                    "duration": 0.30000000000001137
                },
                {
                    "name": "C4",
                    "midi": 60,
                    "time": 251.39999999999966,
                    "velocity": 0.7244094488188977,
                    "duration": 0.30000000000001137
                },
                {
                    "name": "B3",
                    "midi": 59,
                    "time": 251.69999999999968,
                    "velocity": 0.7244094488188977,
                    "duration": 0.30000000000001137
                },
                {
                    "name": "C4",
                    "midi": 60,
                    "time": 251.9999999999997,
                    "velocity": 0.7244094488188977,
                    "duration": 0.30000000000001137
                },
                {
                    "name": "D4",
                    "midi": 62,
                    "time": 252.2999999999997,
                    "velocity": 0.7244094488188977,
                    "duration": 0.5
                },
                {
                    "name": "G3",
                    "midi": 55,
                    "time": 253.1999999999997,
                    "velocity": 0.7244094488188977,
                    "duration": 1.1937499999999943
                },
                {
                    "name": "C4",
                    "midi": 60,
                    "time": 254.3999999999997,
                    "velocity": 0.7244094488188977,
                    "duration": 0.30000000000001137
                },
                {
                    "name": "D4",
                    "midi": 62,
                    "time": 254.6999999999997,
                    "velocity": 0.7244094488188977,
                    "duration": 0.30000000000001137
                },
                {
                    "name": "C4",
                    "midi": 60,
                    "time": 254.99999999999972,
                    "velocity": 0.7244094488188977,
                    "duration": 0.30000000000001137
                },
                {
                    "name": "D4",
                    "midi": 62,
                    "time": 255.29999999999973,
                    "velocity": 0.7244094488188977,
                    "duration": 0.30000000000001137
                },
                {
                    "name": "F#4",
                    "midi": 66,
                    "time": 255.59999999999974,
                    "velocity": 0.7244094488188977,
                    "duration": 0.30000000000001137
                },
                {
                    "name": "G4",
                    "midi": 67,
                    "time": 255.89999999999975,
                    "velocity": 0.7244094488188977,
                    "duration": 0.8000000000000114
                },
                {
                    "name": "F4",
                    "midi": 65,
                    "time": 256.7999999999998,
                    "velocity": 0.7244094488188977,
                    "duration": 0.30000000000001137
                },
                {
                    "name": "D#4",
                    "midi": 63,
                    "time": 257.0999999999998,
                    "velocity": 0.7244094488188977,
                    "duration": 0.30000000000001137
                },
                {
                    "name": "D4",
                    "midi": 62,
                    "time": 257.3999999999998,
                    "velocity": 0.7244094488188977,
                    "duration": 0.30000000000001137
                },
                {
                    "name": "D#4",
                    "midi": 63,
                    "time": 257.6999999999998,
                    "velocity": 0.7244094488188977,
                    "duration": 0.29374999999998863
                },
                {
                    "name": "G4",
                    "midi": 67,
                    "time": 257.6999999999998,
                    "velocity": 0.7244094488188977,
                    "duration": 0.29374999999998863
                },
                {
                    "name": "D4",
                    "midi": 62,
                    "time": 258.5999999999998,
                    "velocity": 0.7244094488188977,
                    "duration": 0.29374999999998863
                },
                {
                    "name": "F4",
                    "midi": 65,
                    "time": 258.5999999999998,
                    "velocity": 0.7244094488188977,
                    "duration": 0.29374999999998863
                },
                {
                    "name": "C4",
                    "midi": 60,
                    "time": 259.4999999999998,
                    "velocity": 0.7244094488188977,
                    "duration": 0.6000000000000227
                },
                {
                    "name": "D#4",
                    "midi": 63,
                    "time": 259.4999999999998,
                    "velocity": 0.7244094488188977,
                    "duration": 0.6000000000000227
                },
                {
                    "name": "C4",
                    "midi": 60,
                    "time": 260.0999999999998,
                    "velocity": 0.7244094488188977,
                    "duration": 0.29374999999998863
                },
                {
                    "name": "D#4",
                    "midi": 63,
                    "time": 260.0999999999998,
                    "velocity": 0.7244094488188977,
                    "duration": 0.29374999999998863
                },
                {
                    "name": "C4",
                    "midi": 60,
                    "time": 260.3999999999998,
                    "velocity": 0.7244094488188977,
                    "duration": 0.10000000000002274
                },
                {
                    "name": "D#4",
                    "midi": 63,
                    "time": 260.3999999999998,
                    "velocity": 0.7244094488188977,
                    "duration": 0.10000000000002274
                },
                {
                    "name": "D4",
                    "midi": 62,
                    "time": 260.6999999999998,
                    "velocity": 0.7244094488188977,
                    "duration": 0.10000000000002274
                },
                {
                    "name": "F4",
                    "midi": 65,
                    "time": 260.6999999999998,
                    "velocity": 0.7244094488188977,
                    "duration": 0.10000000000002274
                },
                {
                    "name": "D#4",
                    "midi": 63,
                    "time": 260.99999999999983,
                    "velocity": 0.7244094488188977,
                    "duration": 0.10000000000002274
                },
                {
                    "name": "G4",
                    "midi": 67,
                    "time": 260.99999999999983,
                    "velocity": 0.7244094488188977,
                    "duration": 0.10000000000002274
                },
                {
                    "name": "F3",
                    "midi": 53,
                    "time": 261.29999999999984,
                    "velocity": 0.7244094488188977,
                    "duration": 0.10000000000002274
                },
                {
                    "name": "G#3",
                    "midi": 56,
                    "time": 261.29999999999984,
                    "velocity": 0.7244094488188977,
                    "duration": 0.10000000000002274
                },
                {
                    "name": "G3",
                    "midi": 55,
                    "time": 261.59999999999985,
                    "velocity": 0.7244094488188977,
                    "duration": 0.10000000000002274
                },
                {
                    "name": "A#3",
                    "midi": 58,
                    "time": 261.59999999999985,
                    "velocity": 0.7244094488188977,
                    "duration": 0.10000000000002274
                },
                {
                    "name": "G#3",
                    "midi": 56,
                    "time": 261.89999999999986,
                    "velocity": 0.7244094488188977,
                    "duration": 0.10000000000002274
                },
                {
                    "name": "C4",
                    "midi": 60,
                    "time": 261.89999999999986,
                    "velocity": 0.7244094488188977,
                    "duration": 0.10000000000002274
                },
                {
                    "name": "A#3",
                    "midi": 58,
                    "time": 262.1999999999999,
                    "velocity": 0.7244094488188977,
                    "duration": 0.10000000000002274
                },
                {
                    "name": "D4",
                    "midi": 62,
                    "time": 262.1999999999999,
                    "velocity": 0.7244094488188977,
                    "duration": 0.10000000000002274
                },
                {
                    "name": "C4",
                    "midi": 60,
                    "time": 262.4999999999999,
                    "velocity": 0.7244094488188977,
                    "duration": 0.10000000000002274
                },
                {
                    "name": "D#4",
                    "midi": 63,
                    "time": 262.4999999999999,
                    "velocity": 0.7244094488188977,
                    "duration": 0.10000000000002274
                },
                {
                    "name": "D4",
                    "midi": 62,
                    "time": 262.7999999999999,
                    "velocity": 0.7244094488188977,
                    "duration": 0.10000000000002274
                },
                {
                    "name": "F4",
                    "midi": 65,
                    "time": 262.7999999999999,
                    "velocity": 0.7244094488188977,
                    "duration": 0.10000000000002274
                },
                {
                    "name": "D#4",
                    "midi": 63,
                    "time": 263.0999999999999,
                    "velocity": 0.7244094488188977,
                    "duration": 0.10000000000002274
                },
                {
                    "name": "G4",
                    "midi": 67,
                    "time": 263.0999999999999,
                    "velocity": 0.7244094488188977,
                    "duration": 0.10000000000002274
                },
                {
                    "name": "F4",
                    "midi": 65,
                    "time": 263.3999999999999,
                    "velocity": 0.7244094488188977,
                    "duration": 0.10000000000002274
                },
                {
                    "name": "G#4",
                    "midi": 68,
                    "time": 263.3999999999999,
                    "velocity": 0.7244094488188977,
                    "duration": 0.10000000000002274
                },
                {
                    "name": "D#4",
                    "midi": 63,
                    "time": 263.69999999999993,
                    "velocity": 0.7244094488188977,
                    "duration": 0.10000000000002274
                },
                {
                    "name": "A#4",
                    "midi": 70,
                    "time": 263.69999999999993,
                    "velocity": 0.7244094488188977,
                    "duration": 0.10000000000002274
                },
                {
                    "name": "C4",
                    "midi": 60,
                    "time": 263.99999999999994,
                    "velocity": 1,
                    "duration": 1.8000000000000114
                },
                {
                    "name": "C5",
                    "midi": 72,
                    "time": 263.99999999999994,
                    "velocity": 1,
                    "duration": 1.8000000000000114
                },
                {
                    "name": "B3",
                    "midi": 59,
                    "time": 265.79999999999995,
                    "velocity": 0.8503937007874016,
                    "duration": 0.8999999999999773
                },
                {
                    "name": "B4",
                    "midi": 71,
                    "time": 265.79999999999995,
                    "velocity": 0.8503937007874016,
                    "duration": 0.8999999999999773
                },
                {
                    "name": "C4",
                    "midi": 60,
                    "time": 266.69999999999993,
                    "velocity": 0.8503937007874016,
                    "duration": 0.6000000000000227
                },
                {
                    "name": "C5",
                    "midi": 72,
                    "time": 266.69999999999993,
                    "velocity": 0.8503937007874016,
                    "duration": 0.6000000000000227
                },
                {
                    "name": "C4",
                    "midi": 60,
                    "time": 267.29999999999995,
                    "velocity": 0.7244094488188977,
                    "duration": 0.29374999999998863
                },
                {
                    "name": "D#4",
                    "midi": 63,
                    "time": 267.29999999999995,
                    "velocity": 0.7244094488188977,
                    "duration": 0.29374999999998863
                },
                {
                    "name": "C4",
                    "midi": 60,
                    "time": 267.59999999999997,
                    "velocity": 0.7244094488188977,
                    "duration": 0.10000000000002274
                },
                {
                    "name": "D#4",
                    "midi": 63,
                    "time": 267.59999999999997,
                    "velocity": 0.7244094488188977,
                    "duration": 0.10000000000002274
                },
                {
                    "name": "D4",
                    "midi": 62,
                    "time": 267.9,
                    "velocity": 0.7244094488188977,
                    "duration": 0.10000000000002274
                },
                {
                    "name": "F4",
                    "midi": 65,
                    "time": 267.9,
                    "velocity": 0.7244094488188977,
                    "duration": 0.10000000000002274
                },
                {
                    "name": "D#4",
                    "midi": 63,
                    "time": 268.2,
                    "velocity": 0.7244094488188977,
                    "duration": 0.10000000000002274
                },
                {
                    "name": "G4",
                    "midi": 67,
                    "time": 268.2,
                    "velocity": 0.7244094488188977,
                    "duration": 0.10000000000002274
                },
                {
                    "name": "F3",
                    "midi": 53,
                    "time": 268.5,
                    "velocity": 0.7244094488188977,
                    "duration": 0.10000000000002274
                },
                {
                    "name": "G#3",
                    "midi": 56,
                    "time": 268.5,
                    "velocity": 0.7244094488188977,
                    "duration": 0.10000000000002274
                },
                {
                    "name": "G3",
                    "midi": 55,
                    "time": 268.8,
                    "velocity": 0.7244094488188977,
                    "duration": 0.10000000000002274
                },
                {
                    "name": "A#3",
                    "midi": 58,
                    "time": 268.8,
                    "velocity": 0.7244094488188977,
                    "duration": 0.10000000000002274
                },
                {
                    "name": "G#3",
                    "midi": 56,
                    "time": 269.1,
                    "velocity": 0.7244094488188977,
                    "duration": 0.10000000000002274
                },
                {
                    "name": "C4",
                    "midi": 60,
                    "time": 269.1,
                    "velocity": 0.7244094488188977,
                    "duration": 0.10000000000002274
                },
                {
                    "name": "A#3",
                    "midi": 58,
                    "time": 269.40000000000003,
                    "velocity": 0.7244094488188977,
                    "duration": 0.10000000000002274
                },
                {
                    "name": "D4",
                    "midi": 62,
                    "time": 269.40000000000003,
                    "velocity": 0.7244094488188977,
                    "duration": 0.10000000000002274
                },
                {
                    "name": "C4",
                    "midi": 60,
                    "time": 269.70000000000005,
                    "velocity": 0.7244094488188977,
                    "duration": 0.10000000000002274
                },
                {
                    "name": "D#4",
                    "midi": 63,
                    "time": 269.70000000000005,
                    "velocity": 0.7244094488188977,
                    "duration": 0.10000000000002274
                },
                {
                    "name": "D4",
                    "midi": 62,
                    "time": 270.00000000000006,
                    "velocity": 0.7244094488188977,
                    "duration": 0.10000000000002274
                },
                {
                    "name": "F4",
                    "midi": 65,
                    "time": 270.00000000000006,
                    "velocity": 0.7244094488188977,
                    "duration": 0.10000000000002274
                },
                {
                    "name": "D#4",
                    "midi": 63,
                    "time": 270.30000000000007,
                    "velocity": 0.7244094488188977,
                    "duration": 0.10000000000002274
                },
                {
                    "name": "G4",
                    "midi": 67,
                    "time": 270.30000000000007,
                    "velocity": 0.7244094488188977,
                    "duration": 0.10000000000002274
                },
                {
                    "name": "F4",
                    "midi": 65,
                    "time": 270.6000000000001,
                    "velocity": 0.7244094488188977,
                    "duration": 0.10000000000002274
                },
                {
                    "name": "G#4",
                    "midi": 68,
                    "time": 270.6000000000001,
                    "velocity": 0.7244094488188977,
                    "duration": 0.10000000000002274
                },
                {
                    "name": "D#4",
                    "midi": 63,
                    "time": 270.9000000000001,
                    "velocity": 0.7244094488188977,
                    "duration": 0.10000000000002274
                },
                {
                    "name": "A#4",
                    "midi": 70,
                    "time": 270.9000000000001,
                    "velocity": 0.7244094488188977,
                    "duration": 0.10000000000002274
                },
                {
                    "name": "C4",
                    "midi": 60,
                    "time": 271.2000000000001,
                    "velocity": 1,
                    "duration": 1.8000000000000114
                },
                {
                    "name": "C5",
                    "midi": 72,
                    "time": 271.2000000000001,
                    "velocity": 1,
                    "duration": 1.8000000000000114
                },
                {
                    "name": "B3",
                    "midi": 59,
                    "time": 273.0000000000001,
                    "velocity": 0.8503937007874016,
                    "duration": 0.8999999999999773
                },
                {
                    "name": "B4",
                    "midi": 71,
                    "time": 273.0000000000001,
                    "velocity": 0.8503937007874016,
                    "duration": 0.8999999999999773
                },
                {
                    "name": "C4",
                    "midi": 60,
                    "time": 273.9000000000001,
                    "velocity": 0.8503937007874016,
                    "duration": 0.6000000000000227
                },
                {
                    "name": "D#4",
                    "midi": 63,
                    "time": 273.9000000000001,
                    "velocity": 0.8503937007874016,
                    "duration": 0.6000000000000227
                },
                {
                    "name": "C4",
                    "midi": 60,
                    "time": 274.5000000000001,
                    "velocity": 0.47244094488188976,
                    "duration": 0.29374999999998863
                },
                {
                    "name": "E4",
                    "midi": 64,
                    "time": 274.5000000000001,
                    "velocity": 0.47244094488188976,
                    "duration": 0.29374999999998863
                },
                {
                    "name": "B3",
                    "midi": 59,
                    "time": 274.8000000000001,
                    "velocity": 0.47244094488188976,
                    "duration": 0.8999999999999773
                },
                {
                    "name": "F4",
                    "midi": 65,
                    "time": 274.8000000000001,
                    "velocity": 0.47244094488188976,
                    "duration": 0.8999999999999773
                },
                {
                    "name": "C4",
                    "midi": 60,
                    "time": 275.7000000000001,
                    "velocity": 0.47244094488188976,
                    "duration": 0.8999999999999773
                },
                {
                    "name": "G4",
                    "midi": 67,
                    "time": 275.7000000000001,
                    "velocity": 0.47244094488188976,
                    "duration": 0.8999999999999773
                },
                {
                    "name": "B3",
                    "midi": 59,
                    "time": 276.6000000000001,
                    "velocity": 0.47244094488188976,
                    "duration": 0.8999999999999773
                },
                {
                    "name": "F4",
                    "midi": 65,
                    "time": 276.6000000000001,
                    "velocity": 0.47244094488188976,
                    "duration": 0.8999999999999773
                },
                {
                    "name": "C4",
                    "midi": 60,
                    "time": 277.50000000000006,
                    "velocity": 0.47244094488188976,
                    "duration": 0.6000000000000227
                },
                {
                    "name": "E4",
                    "midi": 64,
                    "time": 277.50000000000006,
                    "velocity": 0.47244094488188976,
                    "duration": 0.6000000000000227
                },
                {
                    "name": "C4",
                    "midi": 60,
                    "time": 278.1000000000001,
                    "velocity": 0.7244094488188977,
                    "duration": 0.30000000000001137
                },
                {
                    "name": "D#4",
                    "midi": 63,
                    "time": 278.1000000000001,
                    "velocity": 0.7244094488188977,
                    "duration": 0.30000000000001137
                },
                {
                    "name": "B3",
                    "midi": 59,
                    "time": 278.4000000000001,
                    "velocity": 0.7244094488188977,
                    "duration": 0.8999999999999773
                },
                {
                    "name": "F4",
                    "midi": 65,
                    "time": 278.4000000000001,
                    "velocity": 0.7244094488188977,
                    "duration": 0.8999999999999773
                },
                {
                    "name": "C4",
                    "midi": 60,
                    "time": 279.30000000000007,
                    "velocity": 0.7244094488188977,
                    "duration": 0.6000000000000227
                },
                {
                    "name": "G4",
                    "midi": 67,
                    "time": 279.30000000000007,
                    "velocity": 0.7244094488188977,
                    "duration": 0.6000000000000227
                },
                {
                    "name": "C4",
                    "midi": 60,
                    "time": 279.9000000000001,
                    "velocity": 0.7244094488188977,
                    "duration": 0.29374999999998863
                },
                {
                    "name": "G4",
                    "midi": 67,
                    "time": 279.9000000000001,
                    "velocity": 0.7244094488188977,
                    "duration": 0.29374999999998863
                },
                {
                    "name": "B3",
                    "midi": 59,
                    "time": 280.2000000000001,
                    "velocity": 0.7244094488188977,
                    "duration": 0.29374999999998863
                },
                {
                    "name": "F4",
                    "midi": 65,
                    "time": 280.2000000000001,
                    "velocity": 0.7244094488188977,
                    "duration": 0.29374999999998863
                },
                {
                    "name": "B3",
                    "midi": 59,
                    "time": 280.5000000000001,
                    "velocity": 0.7244094488188977,
                    "duration": 0.29374999999998863
                },
                {
                    "name": "F4",
                    "midi": 65,
                    "time": 280.5000000000001,
                    "velocity": 0.7244094488188977,
                    "duration": 0.29374999999998863
                },
                {
                    "name": "B3",
                    "midi": 59,
                    "time": 280.8000000000001,
                    "velocity": 0.7244094488188977,
                    "duration": 0.29374999999998863
                },
                {
                    "name": "F4",
                    "midi": 65,
                    "time": 280.8000000000001,
                    "velocity": 0.7244094488188977,
                    "duration": 0.29374999999998863
                },
                {
                    "name": "C4",
                    "midi": 60,
                    "time": 281.10000000000014,
                    "velocity": 0.7244094488188977,
                    "duration": 0.29374999999998863
                },
                {
                    "name": "D#4",
                    "midi": 63,
                    "time": 281.10000000000014,
                    "velocity": 0.7244094488188977,
                    "duration": 0.29374999999998863
                },
                {
                    "name": "C4",
                    "midi": 60,
                    "time": 281.40000000000015,
                    "velocity": 0.7244094488188977,
                    "duration": 0.29374999999998863
                },
                {
                    "name": "D#4",
                    "midi": 63,
                    "time": 281.40000000000015,
                    "velocity": 0.7244094488188977,
                    "duration": 0.29374999999998863
                },
                {
                    "name": "C4",
                    "midi": 60,
                    "time": 281.70000000000016,
                    "velocity": 0.7244094488188977,
                    "duration": 0.29374999999998863
                },
                {
                    "name": "D#4",
                    "midi": 63,
                    "time": 281.70000000000016,
                    "velocity": 0.7244094488188977,
                    "duration": 0.29374999999998863
                },
                {
                    "name": "B3",
                    "midi": 59,
                    "time": 282.00000000000017,
                    "velocity": 0.7244094488188977,
                    "duration": 0.29374999999998863
                },
                {
                    "name": "F4",
                    "midi": 65,
                    "time": 282.00000000000017,
                    "velocity": 0.7244094488188977,
                    "duration": 0.29374999999998863
                },
                {
                    "name": "B3",
                    "midi": 59,
                    "time": 282.3000000000002,
                    "velocity": 0.7244094488188977,
                    "duration": 0.29374999999998863
                },
                {
                    "name": "F4",
                    "midi": 65,
                    "time": 282.3000000000002,
                    "velocity": 0.7244094488188977,
                    "duration": 0.29374999999998863
                },
                {
                    "name": "B3",
                    "midi": 59,
                    "time": 282.6000000000002,
                    "velocity": 0.7244094488188977,
                    "duration": 0.29374999999998863
                },
                {
                    "name": "F4",
                    "midi": 65,
                    "time": 282.6000000000002,
                    "velocity": 0.7244094488188977,
                    "duration": 0.29374999999998863
                },
                {
                    "name": "C4",
                    "midi": 60,
                    "time": 282.9000000000002,
                    "velocity": 0.7244094488188977,
                    "duration": 0.29374999999998863
                },
                {
                    "name": "D#4",
                    "midi": 63,
                    "time": 282.9000000000002,
                    "velocity": 0.7244094488188977,
                    "duration": 0.29374999999998863
                },
                {
                    "name": "C4",
                    "midi": 60,
                    "time": 283.2000000000002,
                    "velocity": 0.7244094488188977,
                    "duration": 0.29374999999998863
                },
                {
                    "name": "D#4",
                    "midi": 63,
                    "time": 283.2000000000002,
                    "velocity": 0.7244094488188977,
                    "duration": 0.29374999999998863
                },
                {
                    "name": "C4",
                    "midi": 60,
                    "time": 283.5000000000002,
                    "velocity": 0.7244094488188977,
                    "duration": 0.29374999999998863
                },
                {
                    "name": "D#4",
                    "midi": 63,
                    "time": 283.5000000000002,
                    "velocity": 0.7244094488188977,
                    "duration": 0.29374999999998863
                },
                {
                    "name": "C4",
                    "midi": 60,
                    "time": 283.80000000000024,
                    "velocity": 0.7244094488188977,
                    "duration": 0.29374999999998863
                },
                {
                    "name": "D#4",
                    "midi": 63,
                    "time": 283.80000000000024,
                    "velocity": 0.7244094488188977,
                    "duration": 0.29374999999998863
                },
                {
                    "name": "C4",
                    "midi": 60,
                    "time": 284.10000000000025,
                    "velocity": 0.7244094488188977,
                    "duration": 0.29374999999998863
                },
                {
                    "name": "D#4",
                    "midi": 63,
                    "time": 284.10000000000025,
                    "velocity": 0.7244094488188977,
                    "duration": 0.29374999999998863
                },
                {
                    "name": "C4",
                    "midi": 60,
                    "time": 284.40000000000026,
                    "velocity": 0.7244094488188977,
                    "duration": 0.29374999999998863
                },
                {
                    "name": "D#4",
                    "midi": 63,
                    "time": 284.40000000000026,
                    "velocity": 0.7244094488188977,
                    "duration": 0.29374999999998863
                },
                {
                    "name": "C4",
                    "midi": 60,
                    "time": 284.7000000000003,
                    "velocity": 0.7244094488188977,
                    "duration": 0.6000000000000227
                },
                {
                    "name": "D#4",
                    "midi": 63,
                    "time": 284.7000000000003,
                    "velocity": 0.7244094488188977,
                    "duration": 0.6000000000000227
                },
                {
                    "name": "D#4",
                    "midi": 63,
                    "time": 285.6000000000003,
                    "velocity": 0.7244094488188977,
                    "duration": 0.6000000000000227
                },
                {
                    "name": "G4",
                    "midi": 67,
                    "time": 285.6000000000003,
                    "velocity": 0.7244094488188977,
                    "duration": 0.6000000000000227
                },
                {
                    "name": "C4",
                    "midi": 60,
                    "time": 286.3500000000003,
                    "velocity": 0.7244094488188977,
                    "duration": 0.10000000000002274
                },
                {
                    "name": "D#4",
                    "midi": 63,
                    "time": 286.3500000000003,
                    "velocity": 0.7244094488188977,
                    "duration": 0.10000000000002274
                },
                {
                    "name": "C4",
                    "midi": 60,
                    "time": 286.50000000000034,
                    "velocity": 0.7244094488188977,
                    "duration": 0.8999999999999773
                },
                {
                    "name": "D#4",
                    "midi": 63,
                    "time": 286.50000000000034,
                    "velocity": 0.7244094488188977,
                    "duration": 0.8999999999999773
                }
            ],
            "controlChanges": {
                "7": [
                    {
                        "number": 7,
                        "time": 0,
                        "value": 0.7637795275590551
                    }
                ],
                "10": [
                    {
                        "number": 10,
                        "time": 0,
                        "value": 0.2755905511811024
                    }
                ],
                "91": [
                    {
                        "number": 91,
                        "time": 0,
                        "value": 0.28346456692913385
                    }
                ]
            },
            "id": 10,
            "name": "PRS/MCPS",
            "instrumentNumber": 60,
            "instrument": "french horn",
            "instrumentFamily": "brass",
            "channelNumber": 5,
            "isPercussion": false
        },
        {
            "startTime": 14.399999999999999,
            "duration": 287.3999999999987,
            "length": 772,
            "notes": [
                {
                    "name": "G4",
                    "midi": 67,
                    "time": 14.399999999999999,
                    "velocity": 0.7244094488188977,
                    "duration": 0.3000000000000007
                },
                {
                    "name": "G5",
                    "midi": 79,
                    "time": 14.7,
                    "velocity": 0.7244094488188977,
                    "duration": 0.09999999999999964
                },
                {
                    "name": "G5",
                    "midi": 79,
                    "time": 14.999999999999998,
                    "velocity": 0.7244094488188977,
                    "duration": 0.09999999999999964
                },
                {
                    "name": "F5",
                    "midi": 77,
                    "time": 15.299999999999997,
                    "velocity": 0.7244094488188977,
                    "duration": 0.09999999999999964
                },
                {
                    "name": "D#5",
                    "midi": 75,
                    "time": 15.599999999999996,
                    "velocity": 0.7244094488188977,
                    "duration": 0.09999999999999964
                },
                {
                    "name": "D#5",
                    "midi": 75,
                    "time": 15.899999999999995,
                    "velocity": 0.7244094488188977,
                    "duration": 0.09999999999999964
                },
                {
                    "name": "D5",
                    "midi": 74,
                    "time": 16.199999999999996,
                    "velocity": 0.7244094488188977,
                    "duration": 0.10000000000000142
                },
                {
                    "name": "C5",
                    "midi": 72,
                    "time": 16.499999999999996,
                    "velocity": 0.7244094488188977,
                    "duration": 0.10000000000000142
                },
                {
                    "name": "B4",
                    "midi": 71,
                    "time": 16.799999999999997,
                    "velocity": 0.7244094488188977,
                    "duration": 0.10000000000000142
                },
                {
                    "name": "C5",
                    "midi": 72,
                    "time": 17.099999999999998,
                    "velocity": 0.7244094488188977,
                    "duration": 0.10000000000000142
                },
                {
                    "name": "B4",
                    "midi": 71,
                    "time": 17.4,
                    "velocity": 0.7244094488188977,
                    "duration": 0.07499999999999929
                },
                {
                    "name": "C5",
                    "midi": 72,
                    "time": 17.474999999999998,
                    "velocity": 0.7244094488188977,
                    "duration": 0.07499999999999929
                },
                {
                    "name": "D5",
                    "midi": 74,
                    "time": 17.549999999999997,
                    "velocity": 0.7244094488188977,
                    "duration": 0.10000000000000142
                },
                {
                    "name": "G4",
                    "midi": 67,
                    "time": 17.7,
                    "velocity": 0.7244094488188977,
                    "duration": 0.10000000000000142
                },
                {
                    "name": "G4",
                    "midi": 67,
                    "time": 18,
                    "velocity": 0.7244094488188977,
                    "duration": 0.10000000000000142
                },
                {
                    "name": "G#4",
                    "midi": 68,
                    "time": 18.3,
                    "velocity": 0.7244094488188977,
                    "duration": 0.10000000000000142
                },
                {
                    "name": "G4",
                    "midi": 67,
                    "time": 18.6,
                    "velocity": 0.7244094488188977,
                    "duration": 0.10000000000000142
                },
                {
                    "name": "F4",
                    "midi": 65,
                    "time": 18.900000000000002,
                    "velocity": 0.7244094488188977,
                    "duration": 0.10000000000000142
                },
                {
                    "name": "D#4",
                    "midi": 63,
                    "time": 19.200000000000003,
                    "velocity": 0.7244094488188977,
                    "duration": 0.10000000000000142
                },
                {
                    "name": "D4",
                    "midi": 62,
                    "time": 19.500000000000004,
                    "velocity": 0.7244094488188977,
                    "duration": 0.10000000000000142
                },
                {
                    "name": "C4",
                    "midi": 60,
                    "time": 19.800000000000004,
                    "velocity": 0.7244094488188977,
                    "duration": 0.10000000000000142
                },
                {
                    "name": "D#4",
                    "midi": 63,
                    "time": 20.100000000000005,
                    "velocity": 0.7244094488188977,
                    "duration": 0.10000000000000142
                },
                {
                    "name": "D4",
                    "midi": 62,
                    "time": 20.400000000000006,
                    "velocity": 0.7244094488188977,
                    "duration": 0.10000000000000142
                },
                {
                    "name": "C4",
                    "midi": 60,
                    "time": 20.700000000000006,
                    "velocity": 0.7244094488188977,
                    "duration": 0.10000000000000142
                },
                {
                    "name": "D4",
                    "midi": 62,
                    "time": 21.000000000000007,
                    "velocity": 0.7244094488188977,
                    "duration": 0.6000000000000014
                },
                {
                    "name": "G4",
                    "midi": 67,
                    "time": 21.60000000000001,
                    "velocity": 0.7244094488188977,
                    "duration": 0.3000000000000007
                },
                {
                    "name": "G5",
                    "midi": 79,
                    "time": 21.90000000000001,
                    "velocity": 0.7244094488188977,
                    "duration": 0.10000000000000142
                },
                {
                    "name": "G5",
                    "midi": 79,
                    "time": 22.20000000000001,
                    "velocity": 0.7244094488188977,
                    "duration": 0.10000000000000142
                },
                {
                    "name": "F5",
                    "midi": 77,
                    "time": 22.50000000000001,
                    "velocity": 0.7244094488188977,
                    "duration": 0.10000000000000142
                },
                {
                    "name": "D#5",
                    "midi": 75,
                    "time": 22.80000000000001,
                    "velocity": 0.7244094488188977,
                    "duration": 0.10000000000000142
                },
                {
                    "name": "D#5",
                    "midi": 75,
                    "time": 23.100000000000012,
                    "velocity": 0.7244094488188977,
                    "duration": 0.10000000000000142
                },
                {
                    "name": "D5",
                    "midi": 74,
                    "time": 23.400000000000013,
                    "velocity": 0.7244094488188977,
                    "duration": 0.10000000000000142
                },
                {
                    "name": "C5",
                    "midi": 72,
                    "time": 23.700000000000014,
                    "velocity": 0.7244094488188977,
                    "duration": 0.10000000000000142
                },
                {
                    "name": "B4",
                    "midi": 71,
                    "time": 24.000000000000014,
                    "velocity": 0.7244094488188977,
                    "duration": 0.10000000000000142
                },
                {
                    "name": "C5",
                    "midi": 72,
                    "time": 24.300000000000015,
                    "velocity": 0.7244094488188977,
                    "duration": 0.10000000000000142
                },
                {
                    "name": "B4",
                    "midi": 71,
                    "time": 24.600000000000016,
                    "velocity": 0.7244094488188977,
                    "duration": 0.07499999999999929
                },
                {
                    "name": "C5",
                    "midi": 72,
                    "time": 24.675000000000015,
                    "velocity": 0.7244094488188977,
                    "duration": 0.07499999999999929
                },
                {
                    "name": "D5",
                    "midi": 74,
                    "time": 24.750000000000014,
                    "velocity": 0.7244094488188977,
                    "duration": 0.10000000000000142
                },
                {
                    "name": "G4",
                    "midi": 67,
                    "time": 24.900000000000016,
                    "velocity": 0.7244094488188977,
                    "duration": 0.10000000000000142
                },
                {
                    "name": "G4",
                    "midi": 67,
                    "time": 25.200000000000017,
                    "velocity": 0.7244094488188977,
                    "duration": 0.10000000000000142
                },
                {
                    "name": "G#4",
                    "midi": 68,
                    "time": 25.500000000000018,
                    "velocity": 0.7244094488188977,
                    "duration": 0.10000000000000142
                },
                {
                    "name": "G4",
                    "midi": 67,
                    "time": 25.80000000000002,
                    "velocity": 0.7244094488188977,
                    "duration": 0.10000000000000142
                },
                {
                    "name": "F4",
                    "midi": 65,
                    "time": 26.10000000000002,
                    "velocity": 0.7244094488188977,
                    "duration": 0.10000000000000142
                },
                {
                    "name": "G4",
                    "midi": 67,
                    "time": 26.40000000000002,
                    "velocity": 0.7244094488188977,
                    "duration": 0.10000000000000142
                },
                {
                    "name": "C5",
                    "midi": 72,
                    "time": 26.70000000000002,
                    "velocity": 0.7244094488188977,
                    "duration": 0.10000000000000142
                },
                {
                    "name": "D#5",
                    "midi": 75,
                    "time": 26.850000000000023,
                    "velocity": 0.7244094488188977,
                    "duration": 0.10000000000000142
                },
                {
                    "name": "G5",
                    "midi": 79,
                    "time": 27.000000000000025,
                    "velocity": 0.7244094488188977,
                    "duration": 0.10000000000000142
                },
                {
                    "name": "G4",
                    "midi": 67,
                    "time": 27.300000000000026,
                    "velocity": 0.7244094488188977,
                    "duration": 0.10000000000000142
                },
                {
                    "name": "B4",
                    "midi": 71,
                    "time": 27.600000000000026,
                    "velocity": 0.7244094488188977,
                    "duration": 0.10000000000000142
                },
                {
                    "name": "D5",
                    "midi": 74,
                    "time": 27.75000000000003,
                    "velocity": 0.7244094488188977,
                    "duration": 0.10000000000000142
                },
                {
                    "name": "G5",
                    "midi": 79,
                    "time": 27.90000000000003,
                    "velocity": 0.7244094488188977,
                    "duration": 0.10000000000000142
                },
                {
                    "name": "C5",
                    "midi": 72,
                    "time": 28.20000000000003,
                    "velocity": 0.7244094488188977,
                    "duration": 0.6000000000000014
                },
                {
                    "name": "D5",
                    "midi": 74,
                    "time": 39.00000000000003,
                    "velocity": 0.7244094488188977,
                    "duration": 0.10000000000000142
                },
                {
                    "name": "D#5",
                    "midi": 75,
                    "time": 39.15000000000003,
                    "velocity": 0.7244094488188977,
                    "duration": 0.10000000000000142
                },
                {
                    "name": "F5",
                    "midi": 77,
                    "time": 39.300000000000026,
                    "velocity": 0.7244094488188977,
                    "duration": 0.10000000000000142
                },
                {
                    "name": "D#5",
                    "midi": 75,
                    "time": 39.60000000000003,
                    "velocity": 0.7244094488188977,
                    "duration": 0.10000000000000142
                },
                {
                    "name": "D5",
                    "midi": 74,
                    "time": 39.75000000000003,
                    "velocity": 0.7244094488188977,
                    "duration": 0.10000000000000142
                },
                {
                    "name": "C5",
                    "midi": 72,
                    "time": 39.90000000000003,
                    "velocity": 0.7244094488188977,
                    "duration": 0.10000000000000142
                },
                {
                    "name": "D5",
                    "midi": 74,
                    "time": 40.050000000000026,
                    "velocity": 0.7244094488188977,
                    "duration": 0.10000000000000142
                },
                {
                    "name": "D#5",
                    "midi": 75,
                    "time": 40.200000000000024,
                    "velocity": 0.7244094488188977,
                    "duration": 0.10000000000000142
                },
                {
                    "name": "D5",
                    "midi": 74,
                    "time": 40.50000000000003,
                    "velocity": 0.7244094488188977,
                    "duration": 0.10000000000000142
                },
                {
                    "name": "C5",
                    "midi": 72,
                    "time": 40.65000000000003,
                    "velocity": 0.7244094488188977,
                    "duration": 0.10000000000000142
                },
                {
                    "name": "A#4",
                    "midi": 70,
                    "time": 40.800000000000026,
                    "velocity": 0.7244094488188977,
                    "duration": 0.10000000000000142
                },
                {
                    "name": "C5",
                    "midi": 72,
                    "time": 40.950000000000024,
                    "velocity": 0.7244094488188977,
                    "duration": 0.10000000000000142
                },
                {
                    "name": "D5",
                    "midi": 74,
                    "time": 41.10000000000002,
                    "velocity": 0.7244094488188977,
                    "duration": 0.10000000000000142
                },
                {
                    "name": "C5",
                    "midi": 72,
                    "time": 41.40000000000003,
                    "velocity": 0.7244094488188977,
                    "duration": 0.10000000000000142
                },
                {
                    "name": "A#4",
                    "midi": 70,
                    "time": 41.550000000000026,
                    "velocity": 0.7244094488188977,
                    "duration": 0.10000000000000142
                },
                {
                    "name": "A4",
                    "midi": 69,
                    "time": 41.700000000000024,
                    "velocity": 0.7244094488188977,
                    "duration": 0.10000000000000142
                },
                {
                    "name": "A#4",
                    "midi": 70,
                    "time": 41.85000000000002,
                    "velocity": 0.7244094488188977,
                    "duration": 0.10000000000000142
                },
                {
                    "name": "C5",
                    "midi": 72,
                    "time": 42.00000000000002,
                    "velocity": 0.7244094488188977,
                    "duration": 0.10000000000000142
                },
                {
                    "name": "A#4",
                    "midi": 70,
                    "time": 42.300000000000026,
                    "velocity": 0.7244094488188977,
                    "duration": 0.10000000000000142
                },
                {
                    "name": "A4",
                    "midi": 69,
                    "time": 42.450000000000024,
                    "velocity": 0.7244094488188977,
                    "duration": 0.10000000000000142
                },
                {
                    "name": "A#4",
                    "midi": 70,
                    "time": 42.60000000000002,
                    "velocity": 0.7244094488188977,
                    "duration": 0.29375000000000284
                },
                {
                    "name": "B4",
                    "midi": 71,
                    "time": 43.200000000000024,
                    "velocity": 0.47244094488188976,
                    "duration": 0.29999999999999716
                },
                {
                    "name": "D#4",
                    "midi": 63,
                    "time": 43.50000000000002,
                    "velocity": 0.6614173228346457,
                    "duration": 0.8999999999999986
                },
                {
                    "name": "C5",
                    "midi": 72,
                    "time": 43.50000000000002,
                    "velocity": 0.6614173228346457,
                    "duration": 0.8999999999999986
                },
                {
                    "name": "D#4",
                    "midi": 63,
                    "time": 44.40000000000002,
                    "velocity": 0.47244094488188976,
                    "duration": 0.29375000000000284
                },
                {
                    "name": "C5",
                    "midi": 72,
                    "time": 44.40000000000002,
                    "velocity": 0.47244094488188976,
                    "duration": 0.29375000000000284
                },
                {
                    "name": "D4",
                    "midi": 62,
                    "time": 47.10000000000002,
                    "velocity": 0.6614173228346457,
                    "duration": 1.1937500000000014
                },
                {
                    "name": "A#4",
                    "midi": 70,
                    "time": 47.10000000000002,
                    "velocity": 0.6614173228346457,
                    "duration": 1.1937500000000014
                },
                {
                    "name": "B3",
                    "midi": 59,
                    "time": 50.700000000000024,
                    "velocity": 0.5905511811023622,
                    "duration": 0.8999999999999986
                },
                {
                    "name": "B4",
                    "midi": 71,
                    "time": 50.700000000000024,
                    "velocity": 0.5905511811023622,
                    "duration": 0.8999999999999986
                },
                {
                    "name": "C4",
                    "midi": 60,
                    "time": 51.60000000000002,
                    "velocity": 0.5905511811023622,
                    "duration": 1.7999999999999972
                },
                {
                    "name": "C5",
                    "midi": 72,
                    "time": 51.60000000000002,
                    "velocity": 0.5905511811023622,
                    "duration": 1.7999999999999972
                },
                {
                    "name": "B3",
                    "midi": 59,
                    "time": 53.40000000000002,
                    "velocity": 0.5905511811023622,
                    "duration": 0.29375000000000284
                },
                {
                    "name": "B4",
                    "midi": 71,
                    "time": 53.40000000000002,
                    "velocity": 0.5905511811023622,
                    "duration": 0.29375000000000284
                },
                {
                    "name": "C5",
                    "midi": 72,
                    "time": 70.50000000000003,
                    "velocity": 0.5905511811023622,
                    "duration": 0.9000000000000057
                },
                {
                    "name": "A#4",
                    "midi": 70,
                    "time": 71.40000000000003,
                    "velocity": 0.5905511811023622,
                    "duration": 0.9000000000000057
                },
                {
                    "name": "A4",
                    "midi": 69,
                    "time": 72.30000000000004,
                    "velocity": 0.5905511811023622,
                    "duration": 0.9000000000000057
                },
                {
                    "name": "G#4",
                    "midi": 68,
                    "time": 73.20000000000005,
                    "velocity": 0.5905511811023622,
                    "duration": 0.9000000000000057
                },
                {
                    "name": "C4",
                    "midi": 60,
                    "time": 74.10000000000005,
                    "velocity": 0.5905511811023622,
                    "duration": 0.09999999999999432
                },
                {
                    "name": "G4",
                    "midi": 67,
                    "time": 74.10000000000005,
                    "velocity": 0.5905511811023622,
                    "duration": 0.09999999999999432
                },
                {
                    "name": "D4",
                    "midi": 62,
                    "time": 75.00000000000004,
                    "velocity": 0.5905511811023622,
                    "duration": 0.09999999999999432
                },
                {
                    "name": "G4",
                    "midi": 67,
                    "time": 75.00000000000004,
                    "velocity": 0.5905511811023622,
                    "duration": 0.09999999999999432
                },
                {
                    "name": "D#4",
                    "midi": 63,
                    "time": 75.90000000000003,
                    "velocity": 0.5905511811023622,
                    "duration": 0.5999999999999943
                },
                {
                    "name": "G4",
                    "midi": 67,
                    "time": 75.90000000000003,
                    "velocity": 0.5905511811023622,
                    "duration": 0.5999999999999943
                },
                {
                    "name": "G4",
                    "midi": 67,
                    "time": 76.50000000000003,
                    "velocity": 0.7244094488188977,
                    "duration": 0.29999999999999716
                },
                {
                    "name": "G5",
                    "midi": 79,
                    "time": 76.80000000000003,
                    "velocity": 0.7244094488188977,
                    "duration": 0.09999999999999432
                },
                {
                    "name": "G5",
                    "midi": 79,
                    "time": 77.10000000000002,
                    "velocity": 0.7244094488188977,
                    "duration": 0.09999999999999432
                },
                {
                    "name": "F5",
                    "midi": 77,
                    "time": 77.40000000000002,
                    "velocity": 0.7244094488188977,
                    "duration": 0.09999999999999432
                },
                {
                    "name": "D#5",
                    "midi": 75,
                    "time": 77.70000000000002,
                    "velocity": 0.7244094488188977,
                    "duration": 0.09999999999999432
                },
                {
                    "name": "D#5",
                    "midi": 75,
                    "time": 78.00000000000001,
                    "velocity": 0.7244094488188977,
                    "duration": 0.09999999999999432
                },
                {
                    "name": "D5",
                    "midi": 74,
                    "time": 78.30000000000001,
                    "velocity": 0.7244094488188977,
                    "duration": 0.09999999999999432
                },
                {
                    "name": "C5",
                    "midi": 72,
                    "time": 78.60000000000001,
                    "velocity": 0.7244094488188977,
                    "duration": 0.09999999999999432
                },
                {
                    "name": "B4",
                    "midi": 71,
                    "time": 78.9,
                    "velocity": 0.7244094488188977,
                    "duration": 0.09999999999999432
                },
                {
                    "name": "C5",
                    "midi": 72,
                    "time": 79.2,
                    "velocity": 0.7244094488188977,
                    "duration": 0.09999999999999432
                },
                {
                    "name": "B4",
                    "midi": 71,
                    "time": 79.5,
                    "velocity": 0.7244094488188977,
                    "duration": 0.07500000000000284
                },
                {
                    "name": "C5",
                    "midi": 72,
                    "time": 79.575,
                    "velocity": 0.7244094488188977,
                    "duration": 0.07500000000000284
                },
                {
                    "name": "D5",
                    "midi": 74,
                    "time": 79.65,
                    "velocity": 0.7244094488188977,
                    "duration": 0.09999999999999432
                },
                {
                    "name": "G4",
                    "midi": 67,
                    "time": 79.8,
                    "velocity": 0.7244094488188977,
                    "duration": 0.09999999999999432
                },
                {
                    "name": "G4",
                    "midi": 67,
                    "time": 80.1,
                    "velocity": 0.7244094488188977,
                    "duration": 0.09999999999999432
                },
                {
                    "name": "A#4",
                    "midi": 70,
                    "time": 80.39999999999999,
                    "velocity": 0.7244094488188977,
                    "duration": 0.07500000000000284
                },
                {
                    "name": "G#4",
                    "midi": 68,
                    "time": 80.475,
                    "velocity": 0.7244094488188977,
                    "duration": 0.15000000000000568
                },
                {
                    "name": "G4",
                    "midi": 67,
                    "time": 80.7,
                    "velocity": 0.7244094488188977,
                    "duration": 0.09999999999999432
                },
                {
                    "name": "F4",
                    "midi": 65,
                    "time": 81,
                    "velocity": 0.7244094488188977,
                    "duration": 0.09999999999999432
                },
                {
                    "name": "D#4",
                    "midi": 63,
                    "time": 81.3,
                    "velocity": 0.7244094488188977,
                    "duration": 0.09999999999999432
                },
                {
                    "name": "D4",
                    "midi": 62,
                    "time": 81.6,
                    "velocity": 0.7244094488188977,
                    "duration": 0.09999999999999432
                },
                {
                    "name": "C4",
                    "midi": 60,
                    "time": 81.89999999999999,
                    "velocity": 0.7244094488188977,
                    "duration": 0.09999999999999432
                },
                {
                    "name": "D#4",
                    "midi": 63,
                    "time": 82.19999999999999,
                    "velocity": 0.7244094488188977,
                    "duration": 0.09999999999999432
                },
                {
                    "name": "D4",
                    "midi": 62,
                    "time": 82.49999999999999,
                    "velocity": 0.7244094488188977,
                    "duration": 0.09999999999999432
                },
                {
                    "name": "C4",
                    "midi": 60,
                    "time": 82.79999999999998,
                    "velocity": 0.7244094488188977,
                    "duration": 0.09999999999999432
                },
                {
                    "name": "D4",
                    "midi": 62,
                    "time": 83.09999999999998,
                    "velocity": 0.7244094488188977,
                    "duration": 0.5999999999999943
                },
                {
                    "name": "G4",
                    "midi": 67,
                    "time": 83.69999999999997,
                    "velocity": 0.7244094488188977,
                    "duration": 0.29999999999999716
                },
                {
                    "name": "G5",
                    "midi": 79,
                    "time": 83.99999999999997,
                    "velocity": 0.7244094488188977,
                    "duration": 0.09999999999999432
                },
                {
                    "name": "G5",
                    "midi": 79,
                    "time": 84.29999999999997,
                    "velocity": 0.7244094488188977,
                    "duration": 0.09999999999999432
                },
                {
                    "name": "F5",
                    "midi": 77,
                    "time": 84.59999999999997,
                    "velocity": 0.7244094488188977,
                    "duration": 0.09999999999999432
                },
                {
                    "name": "E5",
                    "midi": 76,
                    "time": 84.89999999999996,
                    "velocity": 0.7244094488188977,
                    "duration": 0.09999999999999432
                },
                {
                    "name": "E5",
                    "midi": 76,
                    "time": 85.19999999999996,
                    "velocity": 0.7244094488188977,
                    "duration": 0.09999999999999432
                },
                {
                    "name": "D5",
                    "midi": 74,
                    "time": 85.49999999999996,
                    "velocity": 0.7244094488188977,
                    "duration": 0.09999999999999432
                },
                {
                    "name": "C5",
                    "midi": 72,
                    "time": 85.79999999999995,
                    "velocity": 0.7244094488188977,
                    "duration": 0.09999999999999432
                },
                {
                    "name": "B4",
                    "midi": 71,
                    "time": 86.09999999999995,
                    "velocity": 0.7244094488188977,
                    "duration": 0.09999999999999432
                },
                {
                    "name": "C5",
                    "midi": 72,
                    "time": 86.39999999999995,
                    "velocity": 0.7244094488188977,
                    "duration": 0.09999999999999432
                },
                {
                    "name": "B4",
                    "midi": 71,
                    "time": 86.69999999999995,
                    "velocity": 0.7244094488188977,
                    "duration": 0.07500000000000284
                },
                {
                    "name": "C5",
                    "midi": 72,
                    "time": 86.77499999999995,
                    "velocity": 0.7244094488188977,
                    "duration": 0.07500000000000284
                },
                {
                    "name": "D5",
                    "midi": 74,
                    "time": 86.84999999999995,
                    "velocity": 0.7244094488188977,
                    "duration": 0.09999999999999432
                },
                {
                    "name": "G4",
                    "midi": 67,
                    "time": 86.99999999999994,
                    "velocity": 0.7244094488188977,
                    "duration": 0.09999999999999432
                },
                {
                    "name": "G4",
                    "midi": 67,
                    "time": 87.29999999999994,
                    "velocity": 0.7244094488188977,
                    "duration": 0.09999999999999432
                },
                {
                    "name": "A#4",
                    "midi": 70,
                    "time": 87.59999999999994,
                    "velocity": 0.7244094488188977,
                    "duration": 0.07500000000000284
                },
                {
                    "name": "G#4",
                    "midi": 68,
                    "time": 87.67499999999994,
                    "velocity": 0.7244094488188977,
                    "duration": 0.15000000000000568
                },
                {
                    "name": "G4",
                    "midi": 67,
                    "time": 87.89999999999995,
                    "velocity": 0.7244094488188977,
                    "duration": 0.09999999999999432
                },
                {
                    "name": "F4",
                    "midi": 65,
                    "time": 88.19999999999995,
                    "velocity": 0.7244094488188977,
                    "duration": 0.09999999999999432
                },
                {
                    "name": "G4",
                    "midi": 67,
                    "time": 88.49999999999994,
                    "velocity": 0.7244094488188977,
                    "duration": 0.09999999999999432
                },
                {
                    "name": "C5",
                    "midi": 72,
                    "time": 88.79999999999994,
                    "velocity": 0.7244094488188977,
                    "duration": 0.09999999999999432
                },
                {
                    "name": "D#5",
                    "midi": 75,
                    "time": 88.94999999999993,
                    "velocity": 0.7244094488188977,
                    "duration": 0.09999999999999432
                },
                {
                    "name": "G5",
                    "midi": 79,
                    "time": 89.09999999999992,
                    "velocity": 0.7244094488188977,
                    "duration": 0.09999999999999432
                },
                {
                    "name": "G4",
                    "midi": 67,
                    "time": 89.39999999999992,
                    "velocity": 0.7244094488188977,
                    "duration": 0.09999999999999432
                },
                {
                    "name": "B4",
                    "midi": 71,
                    "time": 89.69999999999992,
                    "velocity": 0.7244094488188977,
                    "duration": 0.09999999999999432
                },
                {
                    "name": "D5",
                    "midi": 74,
                    "time": 89.84999999999991,
                    "velocity": 0.7244094488188977,
                    "duration": 0.09999999999999432
                },
                {
                    "name": "G5",
                    "midi": 79,
                    "time": 89.9999999999999,
                    "velocity": 0.7244094488188977,
                    "duration": 0.09999999999999432
                },
                {
                    "name": "C5",
                    "midi": 72,
                    "time": 90.2999999999999,
                    "velocity": 0.5905511811023622,
                    "duration": 0.9000000000000057
                },
                {
                    "name": "C5",
                    "midi": 72,
                    "time": 91.1999999999999,
                    "velocity": 0.3543307086614173,
                    "duration": 0.5
                },
                {
                    "name": "F4",
                    "midi": 65,
                    "time": 103.7999999999999,
                    "velocity": 0.3543307086614173,
                    "duration": 1.1937499999999943
                },
                {
                    "name": "F#4",
                    "midi": 66,
                    "time": 105.5999999999999,
                    "velocity": 0.3543307086614173,
                    "duration": 0.5999999999999943
                },
                {
                    "name": "F4",
                    "midi": 65,
                    "time": 106.19999999999989,
                    "velocity": 0.3543307086614173,
                    "duration": 0.29999999999999716
                },
                {
                    "name": "F4",
                    "midi": 65,
                    "time": 106.49999999999989,
                    "velocity": 0.3543307086614173,
                    "duration": 0.29375000000000284
                },
                {
                    "name": "D#5",
                    "midi": 75,
                    "time": 118.19999999999989,
                    "velocity": 0.8267716535433071,
                    "duration": 1.1937499999999943
                },
                {
                    "name": "F5",
                    "midi": 77,
                    "time": 119.39999999999988,
                    "velocity": 0.5905511811023622,
                    "duration": 0.29999999999999716
                },
                {
                    "name": "C5",
                    "midi": 72,
                    "time": 119.69999999999987,
                    "velocity": 0.5905511811023622,
                    "duration": 0.29999999999999716
                },
                {
                    "name": "D#5",
                    "midi": 75,
                    "time": 119.99999999999987,
                    "velocity": 0.5905511811023622,
                    "duration": 0.29999999999999716
                },
                {
                    "name": "C#5",
                    "midi": 73,
                    "time": 120.29999999999987,
                    "velocity": 0.5905511811023622,
                    "duration": 0.29999999999999716
                },
                {
                    "name": "A#4",
                    "midi": 70,
                    "time": 120.59999999999987,
                    "velocity": 0.5905511811023622,
                    "duration": 0.29375000000000284
                },
                {
                    "name": "C5",
                    "midi": 72,
                    "time": 120.89999999999986,
                    "velocity": 0.5905511811023622,
                    "duration": 0.09999999999999432
                },
                {
                    "name": "D#5",
                    "midi": 75,
                    "time": 120.89999999999986,
                    "velocity": 0.5905511811023622,
                    "duration": 0.09999999999999432
                },
                {
                    "name": "C5",
                    "midi": 72,
                    "time": 121.19999999999986,
                    "velocity": 0.5905511811023622,
                    "duration": 0.09999999999999432
                },
                {
                    "name": "D#5",
                    "midi": 75,
                    "time": 121.19999999999986,
                    "velocity": 0.5905511811023622,
                    "duration": 0.09999999999999432
                },
                {
                    "name": "C5",
                    "midi": 72,
                    "time": 121.34999999999985,
                    "velocity": 0.5905511811023622,
                    "duration": 0.09999999999999432
                },
                {
                    "name": "D#5",
                    "midi": 75,
                    "time": 121.34999999999985,
                    "velocity": 0.5905511811023622,
                    "duration": 0.09999999999999432
                },
                {
                    "name": "C5",
                    "midi": 72,
                    "time": 121.49999999999984,
                    "velocity": 0.5905511811023622,
                    "duration": 0.09999999999999432
                },
                {
                    "name": "D#5",
                    "midi": 75,
                    "time": 121.49999999999984,
                    "velocity": 0.5905511811023622,
                    "duration": 0.09999999999999432
                },
                {
                    "name": "C5",
                    "midi": 72,
                    "time": 121.79999999999984,
                    "velocity": 0.5905511811023622,
                    "duration": 0.09999999999999432
                },
                {
                    "name": "F5",
                    "midi": 77,
                    "time": 121.79999999999984,
                    "velocity": 0.5905511811023622,
                    "duration": 0.09999999999999432
                },
                {
                    "name": "C5",
                    "midi": 72,
                    "time": 122.09999999999984,
                    "velocity": 0.5905511811023622,
                    "duration": 0.09999999999999432
                },
                {
                    "name": "F5",
                    "midi": 77,
                    "time": 122.09999999999984,
                    "velocity": 0.5905511811023622,
                    "duration": 0.09999999999999432
                },
                {
                    "name": "C5",
                    "midi": 72,
                    "time": 122.39999999999984,
                    "velocity": 0.5905511811023622,
                    "duration": 0.09999999999999432
                },
                {
                    "name": "D#5",
                    "midi": 75,
                    "time": 122.39999999999984,
                    "velocity": 0.5905511811023622,
                    "duration": 0.09999999999999432
                },
                {
                    "name": "C5",
                    "midi": 72,
                    "time": 122.69999999999983,
                    "velocity": 0.5905511811023622,
                    "duration": 0.09999999999999432
                },
                {
                    "name": "D#5",
                    "midi": 75,
                    "time": 122.69999999999983,
                    "velocity": 0.5905511811023622,
                    "duration": 0.09999999999999432
                },
                {
                    "name": "C5",
                    "midi": 72,
                    "time": 122.99999999999983,
                    "velocity": 0.5905511811023622,
                    "duration": 0.09999999999999432
                },
                {
                    "name": "D#5",
                    "midi": 75,
                    "time": 122.99999999999983,
                    "velocity": 0.5905511811023622,
                    "duration": 0.09999999999999432
                },
                {
                    "name": "C5",
                    "midi": 72,
                    "time": 123.14999999999982,
                    "velocity": 0.5905511811023622,
                    "duration": 0.09999999999999432
                },
                {
                    "name": "D#5",
                    "midi": 75,
                    "time": 123.14999999999982,
                    "velocity": 0.5905511811023622,
                    "duration": 0.09999999999999432
                },
                {
                    "name": "C5",
                    "midi": 72,
                    "time": 123.29999999999981,
                    "velocity": 0.5905511811023622,
                    "duration": 0.09999999999999432
                },
                {
                    "name": "D#5",
                    "midi": 75,
                    "time": 123.29999999999981,
                    "velocity": 0.5905511811023622,
                    "duration": 0.09999999999999432
                },
                {
                    "name": "C5",
                    "midi": 72,
                    "time": 123.59999999999981,
                    "velocity": 0.5905511811023622,
                    "duration": 0.09999999999999432
                },
                {
                    "name": "D#5",
                    "midi": 75,
                    "time": 123.59999999999981,
                    "velocity": 0.5905511811023622,
                    "duration": 0.09999999999999432
                },
                {
                    "name": "C5",
                    "midi": 72,
                    "time": 123.8999999999998,
                    "velocity": 0.5905511811023622,
                    "duration": 0.09999999999999432
                },
                {
                    "name": "D#5",
                    "midi": 75,
                    "time": 123.8999999999998,
                    "velocity": 0.5905511811023622,
                    "duration": 0.09999999999999432
                },
                {
                    "name": "C5",
                    "midi": 72,
                    "time": 124.1999999999998,
                    "velocity": 0.5905511811023622,
                    "duration": 0.09999999999999432
                },
                {
                    "name": "D#5",
                    "midi": 75,
                    "time": 124.1999999999998,
                    "velocity": 0.5905511811023622,
                    "duration": 0.09999999999999432
                },
                {
                    "name": "C5",
                    "midi": 72,
                    "time": 124.4999999999998,
                    "velocity": 0.5905511811023622,
                    "duration": 0.09999999999999432
                },
                {
                    "name": "D#5",
                    "midi": 75,
                    "time": 124.4999999999998,
                    "velocity": 0.5905511811023622,
                    "duration": 0.09999999999999432
                },
                {
                    "name": "C5",
                    "midi": 72,
                    "time": 124.7999999999998,
                    "velocity": 0.5905511811023622,
                    "duration": 0.09999999999999432
                },
                {
                    "name": "D#5",
                    "midi": 75,
                    "time": 124.7999999999998,
                    "velocity": 0.5905511811023622,
                    "duration": 0.09999999999999432
                },
                {
                    "name": "C5",
                    "midi": 72,
                    "time": 124.94999999999979,
                    "velocity": 0.5905511811023622,
                    "duration": 0.09999999999999432
                },
                {
                    "name": "D#5",
                    "midi": 75,
                    "time": 124.94999999999979,
                    "velocity": 0.5905511811023622,
                    "duration": 0.09999999999999432
                },
                {
                    "name": "C5",
                    "midi": 72,
                    "time": 125.09999999999978,
                    "velocity": 0.5905511811023622,
                    "duration": 0.09999999999999432
                },
                {
                    "name": "D#5",
                    "midi": 75,
                    "time": 125.09999999999978,
                    "velocity": 0.5905511811023622,
                    "duration": 0.09999999999999432
                },
                {
                    "name": "C5",
                    "midi": 72,
                    "time": 125.39999999999978,
                    "velocity": 0.5905511811023622,
                    "duration": 0.09999999999999432
                },
                {
                    "name": "D#5",
                    "midi": 75,
                    "time": 125.39999999999978,
                    "velocity": 0.5905511811023622,
                    "duration": 0.09999999999999432
                },
                {
                    "name": "C5",
                    "midi": 72,
                    "time": 125.69999999999978,
                    "velocity": 0.5905511811023622,
                    "duration": 0.09999999999999432
                },
                {
                    "name": "D#5",
                    "midi": 75,
                    "time": 125.69999999999978,
                    "velocity": 0.5905511811023622,
                    "duration": 0.09999999999999432
                },
                {
                    "name": "C5",
                    "midi": 72,
                    "time": 125.99999999999977,
                    "velocity": 0.5905511811023622,
                    "duration": 0.09999999999999432
                },
                {
                    "name": "D#5",
                    "midi": 75,
                    "time": 125.99999999999977,
                    "velocity": 0.5905511811023622,
                    "duration": 0.09999999999999432
                },
                {
                    "name": "A#4",
                    "midi": 70,
                    "time": 126.29999999999977,
                    "velocity": 0.5905511811023622,
                    "duration": 0.09999999999999432
                },
                {
                    "name": "D#5",
                    "midi": 75,
                    "time": 126.29999999999977,
                    "velocity": 0.5905511811023622,
                    "duration": 0.09999999999999432
                },
                {
                    "name": "A#4",
                    "midi": 70,
                    "time": 126.59999999999977,
                    "velocity": 0.5905511811023622,
                    "duration": 0.09999999999999432
                },
                {
                    "name": "D#5",
                    "midi": 75,
                    "time": 126.59999999999977,
                    "velocity": 0.5905511811023622,
                    "duration": 0.09999999999999432
                },
                {
                    "name": "A#4",
                    "midi": 70,
                    "time": 126.74999999999976,
                    "velocity": 0.5905511811023622,
                    "duration": 0.09999999999999432
                },
                {
                    "name": "D#5",
                    "midi": 75,
                    "time": 126.74999999999976,
                    "velocity": 0.5905511811023622,
                    "duration": 0.09999999999999432
                },
                {
                    "name": "A#4",
                    "midi": 70,
                    "time": 126.89999999999975,
                    "velocity": 0.5905511811023622,
                    "duration": 0.09999999999999432
                },
                {
                    "name": "D#5",
                    "midi": 75,
                    "time": 126.89999999999975,
                    "velocity": 0.5905511811023622,
                    "duration": 0.09999999999999432
                },
                {
                    "name": "A#4",
                    "midi": 70,
                    "time": 127.19999999999975,
                    "velocity": 0.5905511811023622,
                    "duration": 0.09999999999999432
                },
                {
                    "name": "C#5",
                    "midi": 73,
                    "time": 127.19999999999975,
                    "velocity": 0.5905511811023622,
                    "duration": 0.09999999999999432
                },
                {
                    "name": "A#4",
                    "midi": 70,
                    "time": 127.49999999999974,
                    "velocity": 0.5905511811023622,
                    "duration": 0.09999999999999432
                },
                {
                    "name": "C#5",
                    "midi": 73,
                    "time": 127.49999999999974,
                    "velocity": 0.5905511811023622,
                    "duration": 0.09999999999999432
                },
                {
                    "name": "A#4",
                    "midi": 70,
                    "time": 127.79999999999974,
                    "velocity": 0.5905511811023622,
                    "duration": 0.09999999999999432
                },
                {
                    "name": "D#5",
                    "midi": 75,
                    "time": 127.79999999999974,
                    "velocity": 0.5905511811023622,
                    "duration": 0.09999999999999432
                },
                {
                    "name": "C5",
                    "midi": 72,
                    "time": 128.09999999999974,
                    "velocity": 0.5905511811023622,
                    "duration": 0.09999999999999432
                },
                {
                    "name": "D#5",
                    "midi": 75,
                    "time": 128.09999999999974,
                    "velocity": 0.5905511811023622,
                    "duration": 0.09999999999999432
                },
                {
                    "name": "C5",
                    "midi": 72,
                    "time": 128.39999999999972,
                    "velocity": 0.5905511811023622,
                    "duration": 0.09999999999999432
                },
                {
                    "name": "D#5",
                    "midi": 75,
                    "time": 128.39999999999972,
                    "velocity": 0.5905511811023622,
                    "duration": 0.09999999999999432
                },
                {
                    "name": "C5",
                    "midi": 72,
                    "time": 128.54999999999973,
                    "velocity": 0.5905511811023622,
                    "duration": 0.09999999999999432
                },
                {
                    "name": "D#5",
                    "midi": 75,
                    "time": 128.54999999999973,
                    "velocity": 0.5905511811023622,
                    "duration": 0.09999999999999432
                },
                {
                    "name": "C5",
                    "midi": 72,
                    "time": 128.69999999999973,
                    "velocity": 0.5905511811023622,
                    "duration": 0.09999999999999432
                },
                {
                    "name": "D#5",
                    "midi": 75,
                    "time": 128.69999999999973,
                    "velocity": 0.5905511811023622,
                    "duration": 0.09999999999999432
                },
                {
                    "name": "C5",
                    "midi": 72,
                    "time": 128.99999999999972,
                    "velocity": 0.5905511811023622,
                    "duration": 0.09999999999999432
                },
                {
                    "name": "D#5",
                    "midi": 75,
                    "time": 128.99999999999972,
                    "velocity": 0.5905511811023622,
                    "duration": 0.09999999999999432
                },
                {
                    "name": "C5",
                    "midi": 72,
                    "time": 129.2999999999997,
                    "velocity": 0.5905511811023622,
                    "duration": 0.09999999999999432
                },
                {
                    "name": "D#5",
                    "midi": 75,
                    "time": 129.2999999999997,
                    "velocity": 0.5905511811023622,
                    "duration": 0.09999999999999432
                },
                {
                    "name": "C5",
                    "midi": 72,
                    "time": 129.59999999999968,
                    "velocity": 0.5905511811023622,
                    "duration": 0.09999999999999432
                },
                {
                    "name": "D#5",
                    "midi": 75,
                    "time": 129.59999999999968,
                    "velocity": 0.5905511811023622,
                    "duration": 0.09999999999999432
                },
                {
                    "name": "C5",
                    "midi": 72,
                    "time": 129.89999999999966,
                    "velocity": 0.5905511811023622,
                    "duration": 0.09999999999999432
                },
                {
                    "name": "E5",
                    "midi": 76,
                    "time": 129.89999999999966,
                    "velocity": 0.5905511811023622,
                    "duration": 0.09999999999999432
                },
                {
                    "name": "C5",
                    "midi": 72,
                    "time": 130.19999999999965,
                    "velocity": 0.5905511811023622,
                    "duration": 0.09999999999999432
                },
                {
                    "name": "E5",
                    "midi": 76,
                    "time": 130.19999999999965,
                    "velocity": 0.5905511811023622,
                    "duration": 0.09999999999999432
                },
                {
                    "name": "C5",
                    "midi": 72,
                    "time": 130.34999999999965,
                    "velocity": 0.5905511811023622,
                    "duration": 0.09999999999999432
                },
                {
                    "name": "E5",
                    "midi": 76,
                    "time": 130.34999999999965,
                    "velocity": 0.5905511811023622,
                    "duration": 0.09999999999999432
                },
                {
                    "name": "C5",
                    "midi": 72,
                    "time": 130.49999999999966,
                    "velocity": 0.5905511811023622,
                    "duration": 0.09999999999999432
                },
                {
                    "name": "E5",
                    "midi": 76,
                    "time": 130.49999999999966,
                    "velocity": 0.5905511811023622,
                    "duration": 0.09999999999999432
                },
                {
                    "name": "C5",
                    "midi": 72,
                    "time": 130.79999999999964,
                    "velocity": 0.5905511811023622,
                    "duration": 0.09999999999999432
                },
                {
                    "name": "E5",
                    "midi": 76,
                    "time": 130.79999999999964,
                    "velocity": 0.5905511811023622,
                    "duration": 0.09999999999999432
                },
                {
                    "name": "C5",
                    "midi": 72,
                    "time": 131.09999999999962,
                    "velocity": 0.5905511811023622,
                    "duration": 0.09999999999999432
                },
                {
                    "name": "E5",
                    "midi": 76,
                    "time": 131.09999999999962,
                    "velocity": 0.5905511811023622,
                    "duration": 0.09999999999999432
                },
                {
                    "name": "C5",
                    "midi": 72,
                    "time": 131.3999999999996,
                    "velocity": 0.5905511811023622,
                    "duration": 0.09999999999999432
                },
                {
                    "name": "E5",
                    "midi": 76,
                    "time": 131.3999999999996,
                    "velocity": 0.5905511811023622,
                    "duration": 0.09999999999999432
                },
                {
                    "name": "C#5",
                    "midi": 73,
                    "time": 131.6999999999996,
                    "velocity": 0.5905511811023622,
                    "duration": 0.09999999999999432
                },
                {
                    "name": "F5",
                    "midi": 77,
                    "time": 131.6999999999996,
                    "velocity": 0.5905511811023622,
                    "duration": 0.09999999999999432
                },
                {
                    "name": "C#5",
                    "midi": 73,
                    "time": 131.99999999999957,
                    "velocity": 0.5905511811023622,
                    "duration": 0.09999999999999432
                },
                {
                    "name": "F5",
                    "midi": 77,
                    "time": 131.99999999999957,
                    "velocity": 0.5905511811023622,
                    "duration": 0.09999999999999432
                },
                {
                    "name": "C#5",
                    "midi": 73,
                    "time": 132.14999999999958,
                    "velocity": 0.5905511811023622,
                    "duration": 0.09999999999999432
                },
                {
                    "name": "F5",
                    "midi": 77,
                    "time": 132.14999999999958,
                    "velocity": 0.5905511811023622,
                    "duration": 0.09999999999999432
                },
                {
                    "name": "C#5",
                    "midi": 73,
                    "time": 132.29999999999959,
                    "velocity": 0.5905511811023622,
                    "duration": 0.09999999999999432
                },
                {
                    "name": "F5",
                    "midi": 77,
                    "time": 132.29999999999959,
                    "velocity": 0.5905511811023622,
                    "duration": 0.09999999999999432
                },
                {
                    "name": "C#5",
                    "midi": 73,
                    "time": 132.59999999999957,
                    "velocity": 0.5905511811023622,
                    "duration": 0.09999999999999432
                },
                {
                    "name": "F5",
                    "midi": 77,
                    "time": 132.59999999999957,
                    "velocity": 0.5905511811023622,
                    "duration": 0.09999999999999432
                },
                {
                    "name": "C#5",
                    "midi": 73,
                    "time": 132.89999999999955,
                    "velocity": 0.5905511811023622,
                    "duration": 0.09999999999999432
                },
                {
                    "name": "F5",
                    "midi": 77,
                    "time": 132.89999999999955,
                    "velocity": 0.5905511811023622,
                    "duration": 0.09999999999999432
                },
                {
                    "name": "C#5",
                    "midi": 73,
                    "time": 133.19999999999953,
                    "velocity": 0.5905511811023622,
                    "duration": 0.09999999999999432
                },
                {
                    "name": "F5",
                    "midi": 77,
                    "time": 133.19999999999953,
                    "velocity": 0.5905511811023622,
                    "duration": 0.09999999999999432
                },
                {
                    "name": "C5",
                    "midi": 72,
                    "time": 133.49999999999952,
                    "velocity": 0.5905511811023622,
                    "duration": 0.09999999999999432
                },
                {
                    "name": "D#5",
                    "midi": 75,
                    "time": 133.49999999999952,
                    "velocity": 0.5905511811023622,
                    "duration": 0.09999999999999432
                },
                {
                    "name": "C5",
                    "midi": 72,
                    "time": 133.7999999999995,
                    "velocity": 0.5905511811023622,
                    "duration": 0.09999999999999432
                },
                {
                    "name": "D#5",
                    "midi": 75,
                    "time": 133.7999999999995,
                    "velocity": 0.5905511811023622,
                    "duration": 0.09999999999999432
                },
                {
                    "name": "C5",
                    "midi": 72,
                    "time": 133.9499999999995,
                    "velocity": 0.5905511811023622,
                    "duration": 0.09999999999999432
                },
                {
                    "name": "D#5",
                    "midi": 75,
                    "time": 133.9499999999995,
                    "velocity": 0.5905511811023622,
                    "duration": 0.09999999999999432
                },
                {
                    "name": "C5",
                    "midi": 72,
                    "time": 134.0999999999995,
                    "velocity": 0.5905511811023622,
                    "duration": 0.09999999999999432
                },
                {
                    "name": "D#5",
                    "midi": 75,
                    "time": 134.0999999999995,
                    "velocity": 0.5905511811023622,
                    "duration": 0.09999999999999432
                },
                {
                    "name": "C5",
                    "midi": 72,
                    "time": 134.3999999999995,
                    "velocity": 0.5905511811023622,
                    "duration": 0.09999999999999432
                },
                {
                    "name": "F#5",
                    "midi": 78,
                    "time": 134.3999999999995,
                    "velocity": 0.5905511811023622,
                    "duration": 0.09999999999999432
                },
                {
                    "name": "C5",
                    "midi": 72,
                    "time": 134.69999999999948,
                    "velocity": 0.5905511811023622,
                    "duration": 0.09999999999999432
                },
                {
                    "name": "F#5",
                    "midi": 78,
                    "time": 134.69999999999948,
                    "velocity": 0.5905511811023622,
                    "duration": 0.09999999999999432
                },
                {
                    "name": "C5",
                    "midi": 72,
                    "time": 134.99999999999946,
                    "velocity": 0.5905511811023622,
                    "duration": 0.09999999999999432
                },
                {
                    "name": "D#5",
                    "midi": 75,
                    "time": 134.99999999999946,
                    "velocity": 0.5905511811023622,
                    "duration": 0.09999999999999432
                },
                {
                    "name": "C#5",
                    "midi": 73,
                    "time": 135.29999999999944,
                    "velocity": 0.5905511811023622,
                    "duration": 0.09999999999999432
                },
                {
                    "name": "F5",
                    "midi": 77,
                    "time": 135.29999999999944,
                    "velocity": 0.5905511811023622,
                    "duration": 0.09999999999999432
                },
                {
                    "name": "C#5",
                    "midi": 73,
                    "time": 135.59999999999943,
                    "velocity": 0.5905511811023622,
                    "duration": 0.09999999999999432
                },
                {
                    "name": "F5",
                    "midi": 77,
                    "time": 135.59999999999943,
                    "velocity": 0.5905511811023622,
                    "duration": 0.09999999999999432
                },
                {
                    "name": "C#5",
                    "midi": 73,
                    "time": 135.74999999999943,
                    "velocity": 0.5905511811023622,
                    "duration": 0.09999999999999432
                },
                {
                    "name": "F5",
                    "midi": 77,
                    "time": 135.74999999999943,
                    "velocity": 0.5905511811023622,
                    "duration": 0.09999999999999432
                },
                {
                    "name": "C#5",
                    "midi": 73,
                    "time": 135.89999999999944,
                    "velocity": 0.5905511811023622,
                    "duration": 0.09999999999999432
                },
                {
                    "name": "F5",
                    "midi": 77,
                    "time": 135.89999999999944,
                    "velocity": 0.5905511811023622,
                    "duration": 0.09999999999999432
                },
                {
                    "name": "C#5",
                    "midi": 73,
                    "time": 136.19999999999942,
                    "velocity": 0.5905511811023622,
                    "duration": 0.09999999999999432
                },
                {
                    "name": "G5",
                    "midi": 79,
                    "time": 136.19999999999942,
                    "velocity": 0.5905511811023622,
                    "duration": 0.09999999999999432
                },
                {
                    "name": "C#5",
                    "midi": 73,
                    "time": 136.4999999999994,
                    "velocity": 0.5905511811023622,
                    "duration": 0.09999999999999432
                },
                {
                    "name": "G5",
                    "midi": 79,
                    "time": 136.4999999999994,
                    "velocity": 0.5905511811023622,
                    "duration": 0.09999999999999432
                },
                {
                    "name": "C#5",
                    "midi": 73,
                    "time": 136.7999999999994,
                    "velocity": 0.5905511811023622,
                    "duration": 0.09999999999999432
                },
                {
                    "name": "F5",
                    "midi": 77,
                    "time": 136.7999999999994,
                    "velocity": 0.5905511811023622,
                    "duration": 0.09999999999999432
                },
                {
                    "name": "C#5",
                    "midi": 73,
                    "time": 137.09999999999937,
                    "velocity": 0.5905511811023622,
                    "duration": 0.09999999999999432
                },
                {
                    "name": "F5",
                    "midi": 77,
                    "time": 137.09999999999937,
                    "velocity": 0.5905511811023622,
                    "duration": 0.09999999999999432
                },
                {
                    "name": "C#5",
                    "midi": 73,
                    "time": 137.39999999999935,
                    "velocity": 0.5905511811023622,
                    "duration": 0.09999999999999432
                },
                {
                    "name": "F5",
                    "midi": 77,
                    "time": 137.39999999999935,
                    "velocity": 0.5905511811023622,
                    "duration": 0.09999999999999432
                },
                {
                    "name": "C#5",
                    "midi": 73,
                    "time": 137.54999999999936,
                    "velocity": 0.5905511811023622,
                    "duration": 0.09999999999999432
                },
                {
                    "name": "F5",
                    "midi": 77,
                    "time": 137.54999999999936,
                    "velocity": 0.5905511811023622,
                    "duration": 0.09999999999999432
                },
                {
                    "name": "C#5",
                    "midi": 73,
                    "time": 137.69999999999936,
                    "velocity": 0.5905511811023622,
                    "duration": 0.09999999999999432
                },
                {
                    "name": "F5",
                    "midi": 77,
                    "time": 137.69999999999936,
                    "velocity": 0.5905511811023622,
                    "duration": 0.09999999999999432
                },
                {
                    "name": "C#5",
                    "midi": 73,
                    "time": 137.99999999999935,
                    "velocity": 0.5905511811023622,
                    "duration": 0.09999999999999432
                },
                {
                    "name": "F5",
                    "midi": 77,
                    "time": 137.99999999999935,
                    "velocity": 0.5905511811023622,
                    "duration": 0.09999999999999432
                },
                {
                    "name": "C#5",
                    "midi": 73,
                    "time": 138.29999999999933,
                    "velocity": 0.5905511811023622,
                    "duration": 0.09999999999999432
                },
                {
                    "name": "F5",
                    "midi": 77,
                    "time": 138.29999999999933,
                    "velocity": 0.5905511811023622,
                    "duration": 0.09999999999999432
                },
                {
                    "name": "C#5",
                    "midi": 73,
                    "time": 138.5999999999993,
                    "velocity": 0.5905511811023622,
                    "duration": 0.09999999999999432
                },
                {
                    "name": "F5",
                    "midi": 77,
                    "time": 138.5999999999993,
                    "velocity": 0.5905511811023622,
                    "duration": 0.09999999999999432
                },
                {
                    "name": "C5",
                    "midi": 72,
                    "time": 138.8999999999993,
                    "velocity": 0.5905511811023622,
                    "duration": 0.09999999999999432
                },
                {
                    "name": "F5",
                    "midi": 77,
                    "time": 138.8999999999993,
                    "velocity": 0.5905511811023622,
                    "duration": 0.09999999999999432
                },
                {
                    "name": "B4",
                    "midi": 71,
                    "time": 139.19999999999928,
                    "velocity": 0.5905511811023622,
                    "duration": 0.09999999999999432
                },
                {
                    "name": "F5",
                    "midi": 77,
                    "time": 139.19999999999928,
                    "velocity": 0.5905511811023622,
                    "duration": 0.09999999999999432
                },
                {
                    "name": "B4",
                    "midi": 71,
                    "time": 139.34999999999928,
                    "velocity": 0.5905511811023622,
                    "duration": 0.09999999999999432
                },
                {
                    "name": "F5",
                    "midi": 77,
                    "time": 139.34999999999928,
                    "velocity": 0.5905511811023622,
                    "duration": 0.09999999999999432
                },
                {
                    "name": "C5",
                    "midi": 72,
                    "time": 139.4999999999993,
                    "velocity": 0.5905511811023622,
                    "duration": 0.09999999999999432
                },
                {
                    "name": "F5",
                    "midi": 77,
                    "time": 139.4999999999993,
                    "velocity": 0.5905511811023622,
                    "duration": 0.09999999999999432
                },
                {
                    "name": "C5",
                    "midi": 72,
                    "time": 139.79999999999927,
                    "velocity": 0.5905511811023622,
                    "duration": 0.09999999999999432
                },
                {
                    "name": "F5",
                    "midi": 77,
                    "time": 139.79999999999927,
                    "velocity": 0.5905511811023622,
                    "duration": 0.09999999999999432
                },
                {
                    "name": "C5",
                    "midi": 72,
                    "time": 140.09999999999926,
                    "velocity": 0.5905511811023622,
                    "duration": 0.09999999999999432
                },
                {
                    "name": "F5",
                    "midi": 77,
                    "time": 140.09999999999926,
                    "velocity": 0.5905511811023622,
                    "duration": 0.09999999999999432
                },
                {
                    "name": "C5",
                    "midi": 72,
                    "time": 140.39999999999924,
                    "velocity": 0.5905511811023622,
                    "duration": 0.09999999999999432
                },
                {
                    "name": "D#5",
                    "midi": 75,
                    "time": 140.39999999999924,
                    "velocity": 0.5905511811023622,
                    "duration": 0.09999999999999432
                },
                {
                    "name": "D#5",
                    "midi": 75,
                    "time": 140.69999999999922,
                    "velocity": 0.5905511811023622,
                    "duration": 0.09999999999999432
                },
                {
                    "name": "F5",
                    "midi": 77,
                    "time": 140.69999999999922,
                    "velocity": 0.5905511811023622,
                    "duration": 0.09999999999999432
                },
                {
                    "name": "D#5",
                    "midi": 75,
                    "time": 140.9999999999992,
                    "velocity": 0.5905511811023622,
                    "duration": 0.09999999999999432
                },
                {
                    "name": "F5",
                    "midi": 77,
                    "time": 140.9999999999992,
                    "velocity": 0.5905511811023622,
                    "duration": 0.09999999999999432
                },
                {
                    "name": "D#5",
                    "midi": 75,
                    "time": 141.1499999999992,
                    "velocity": 0.5905511811023622,
                    "duration": 0.09999999999999432
                },
                {
                    "name": "F5",
                    "midi": 77,
                    "time": 141.1499999999992,
                    "velocity": 0.5905511811023622,
                    "duration": 0.09999999999999432
                },
                {
                    "name": "D#5",
                    "midi": 75,
                    "time": 141.29999999999922,
                    "velocity": 0.5905511811023622,
                    "duration": 0.09999999999999432
                },
                {
                    "name": "F5",
                    "midi": 77,
                    "time": 141.29999999999922,
                    "velocity": 0.5905511811023622,
                    "duration": 0.09999999999999432
                },
                {
                    "name": "C#5",
                    "midi": 73,
                    "time": 141.5999999999992,
                    "velocity": 0.5905511811023622,
                    "duration": 0.09999999999999432
                },
                {
                    "name": "F5",
                    "midi": 77,
                    "time": 141.5999999999992,
                    "velocity": 0.5905511811023622,
                    "duration": 0.09999999999999432
                },
                {
                    "name": "C#5",
                    "midi": 73,
                    "time": 141.89999999999918,
                    "velocity": 0.5905511811023622,
                    "duration": 0.09999999999999432
                },
                {
                    "name": "F5",
                    "midi": 77,
                    "time": 141.89999999999918,
                    "velocity": 0.5905511811023622,
                    "duration": 0.09999999999999432
                },
                {
                    "name": "C#5",
                    "midi": 73,
                    "time": 142.19999999999916,
                    "velocity": 0.5905511811023622,
                    "duration": 0.09999999999999432
                },
                {
                    "name": "F5",
                    "midi": 77,
                    "time": 142.19999999999916,
                    "velocity": 0.5905511811023622,
                    "duration": 0.09999999999999432
                },
                {
                    "name": "C#5",
                    "midi": 73,
                    "time": 142.49999999999915,
                    "velocity": 0.5905511811023622,
                    "duration": 0.09999999999999432
                },
                {
                    "name": "D#5",
                    "midi": 75,
                    "time": 142.49999999999915,
                    "velocity": 0.5905511811023622,
                    "duration": 0.09999999999999432
                },
                {
                    "name": "C#5",
                    "midi": 73,
                    "time": 142.79999999999913,
                    "velocity": 0.5905511811023622,
                    "duration": 0.09999999999999432
                },
                {
                    "name": "D#5",
                    "midi": 75,
                    "time": 142.79999999999913,
                    "velocity": 0.5905511811023622,
                    "duration": 0.09999999999999432
                },
                {
                    "name": "C#5",
                    "midi": 73,
                    "time": 142.94999999999914,
                    "velocity": 0.5905511811023622,
                    "duration": 0.09999999999999432
                },
                {
                    "name": "D#5",
                    "midi": 75,
                    "time": 142.94999999999914,
                    "velocity": 0.5905511811023622,
                    "duration": 0.09999999999999432
                },
                {
                    "name": "C#5",
                    "midi": 73,
                    "time": 143.09999999999914,
                    "velocity": 0.5905511811023622,
                    "duration": 0.09999999999999432
                },
                {
                    "name": "D#5",
                    "midi": 75,
                    "time": 143.09999999999914,
                    "velocity": 0.5905511811023622,
                    "duration": 0.09999999999999432
                },
                {
                    "name": "C#5",
                    "midi": 73,
                    "time": 143.39999999999912,
                    "velocity": 0.5905511811023622,
                    "duration": 0.09999999999999432
                },
                {
                    "name": "D#5",
                    "midi": 75,
                    "time": 143.39999999999912,
                    "velocity": 0.5905511811023622,
                    "duration": 0.09999999999999432
                },
                {
                    "name": "C#5",
                    "midi": 73,
                    "time": 143.6999999999991,
                    "velocity": 0.5905511811023622,
                    "duration": 0.09999999999999432
                },
                {
                    "name": "D#5",
                    "midi": 75,
                    "time": 143.6999999999991,
                    "velocity": 0.5905511811023622,
                    "duration": 0.09999999999999432
                },
                {
                    "name": "C#5",
                    "midi": 73,
                    "time": 143.9999999999991,
                    "velocity": 0.5905511811023622,
                    "duration": 0.09999999999999432
                },
                {
                    "name": "D#5",
                    "midi": 75,
                    "time": 143.9999999999991,
                    "velocity": 0.5905511811023622,
                    "duration": 0.09999999999999432
                },
                {
                    "name": "C5",
                    "midi": 72,
                    "time": 144.29999999999907,
                    "velocity": 0.5905511811023622,
                    "duration": 0.09999999999999432
                },
                {
                    "name": "D#5",
                    "midi": 75,
                    "time": 144.29999999999907,
                    "velocity": 0.5905511811023622,
                    "duration": 0.09999999999999432
                },
                {
                    "name": "C5",
                    "midi": 72,
                    "time": 144.59999999999906,
                    "velocity": 0.5905511811023622,
                    "duration": 0.09999999999999432
                },
                {
                    "name": "D#5",
                    "midi": 75,
                    "time": 144.59999999999906,
                    "velocity": 0.5905511811023622,
                    "duration": 0.09999999999999432
                },
                {
                    "name": "C5",
                    "midi": 72,
                    "time": 144.74999999999906,
                    "velocity": 0.5905511811023622,
                    "duration": 0.09999999999999432
                },
                {
                    "name": "D#5",
                    "midi": 75,
                    "time": 144.74999999999906,
                    "velocity": 0.5905511811023622,
                    "duration": 0.09999999999999432
                },
                {
                    "name": "C5",
                    "midi": 72,
                    "time": 144.89999999999907,
                    "velocity": 0.5905511811023622,
                    "duration": 0.09999999999999432
                },
                {
                    "name": "D#5",
                    "midi": 75,
                    "time": 144.89999999999907,
                    "velocity": 0.5905511811023622,
                    "duration": 0.09999999999999432
                },
                {
                    "name": "C5",
                    "midi": 72,
                    "time": 145.19999999999905,
                    "velocity": 0.5905511811023622,
                    "duration": 0.09999999999999432
                },
                {
                    "name": "D#5",
                    "midi": 75,
                    "time": 145.19999999999905,
                    "velocity": 0.5905511811023622,
                    "duration": 0.09999999999999432
                },
                {
                    "name": "C5",
                    "midi": 72,
                    "time": 145.49999999999903,
                    "velocity": 0.5905511811023622,
                    "duration": 0.09999999999999432
                },
                {
                    "name": "D#5",
                    "midi": 75,
                    "time": 145.49999999999903,
                    "velocity": 0.5905511811023622,
                    "duration": 0.09999999999999432
                },
                {
                    "name": "C5",
                    "midi": 72,
                    "time": 145.79999999999902,
                    "velocity": 0.5905511811023622,
                    "duration": 0.09999999999999432
                },
                {
                    "name": "D#5",
                    "midi": 75,
                    "time": 145.79999999999902,
                    "velocity": 0.5905511811023622,
                    "duration": 0.09999999999999432
                },
                {
                    "name": "C#5",
                    "midi": 73,
                    "time": 146.099999999999,
                    "velocity": 0.5905511811023622,
                    "duration": 0.09999999999999432
                },
                {
                    "name": "F5",
                    "midi": 77,
                    "time": 146.099999999999,
                    "velocity": 0.5905511811023622,
                    "duration": 0.09999999999999432
                },
                {
                    "name": "C#5",
                    "midi": 73,
                    "time": 146.39999999999898,
                    "velocity": 0.5905511811023622,
                    "duration": 0.09999999999999432
                },
                {
                    "name": "F5",
                    "midi": 77,
                    "time": 146.39999999999898,
                    "velocity": 0.5905511811023622,
                    "duration": 0.09999999999999432
                },
                {
                    "name": "C#5",
                    "midi": 73,
                    "time": 146.549999999999,
                    "velocity": 0.5905511811023622,
                    "duration": 0.09999999999999432
                },
                {
                    "name": "F5",
                    "midi": 77,
                    "time": 146.549999999999,
                    "velocity": 0.5905511811023622,
                    "duration": 0.09999999999999432
                },
                {
                    "name": "C#5",
                    "midi": 73,
                    "time": 146.699999999999,
                    "velocity": 0.5905511811023622,
                    "duration": 0.09999999999999432
                },
                {
                    "name": "F5",
                    "midi": 77,
                    "time": 146.699999999999,
                    "velocity": 0.5905511811023622,
                    "duration": 0.09999999999999432
                },
                {
                    "name": "C5",
                    "midi": 72,
                    "time": 146.99999999999898,
                    "velocity": 0.5905511811023622,
                    "duration": 0.09999999999999432
                },
                {
                    "name": "D#5",
                    "midi": 75,
                    "time": 146.99999999999898,
                    "velocity": 0.5905511811023622,
                    "duration": 0.09999999999999432
                },
                {
                    "name": "C5",
                    "midi": 72,
                    "time": 147.29999999999896,
                    "velocity": 0.5905511811023622,
                    "duration": 0.09999999999999432
                },
                {
                    "name": "D#5",
                    "midi": 75,
                    "time": 147.29999999999896,
                    "velocity": 0.5905511811023622,
                    "duration": 0.09999999999999432
                },
                {
                    "name": "C5",
                    "midi": 72,
                    "time": 147.59999999999894,
                    "velocity": 0.5905511811023622,
                    "duration": 0.09999999999999432
                },
                {
                    "name": "F5",
                    "midi": 77,
                    "time": 147.59999999999894,
                    "velocity": 0.5905511811023622,
                    "duration": 0.09999999999999432
                },
                {
                    "name": "C#5",
                    "midi": 73,
                    "time": 147.89999999999893,
                    "velocity": 0.5905511811023622,
                    "duration": 0.09999999999999432
                },
                {
                    "name": "D#5",
                    "midi": 75,
                    "time": 147.89999999999893,
                    "velocity": 0.5905511811023622,
                    "duration": 0.09999999999999432
                },
                {
                    "name": "C#5",
                    "midi": 73,
                    "time": 148.1999999999989,
                    "velocity": 0.5905511811023622,
                    "duration": 0.09999999999999432
                },
                {
                    "name": "D#5",
                    "midi": 75,
                    "time": 148.1999999999989,
                    "velocity": 0.5905511811023622,
                    "duration": 0.09999999999999432
                },
                {
                    "name": "C#5",
                    "midi": 73,
                    "time": 148.34999999999891,
                    "velocity": 0.5905511811023622,
                    "duration": 0.09999999999999432
                },
                {
                    "name": "D#5",
                    "midi": 75,
                    "time": 148.34999999999891,
                    "velocity": 0.5905511811023622,
                    "duration": 0.09999999999999432
                },
                {
                    "name": "C#5",
                    "midi": 73,
                    "time": 148.49999999999892,
                    "velocity": 0.5905511811023622,
                    "duration": 0.09999999999999432
                },
                {
                    "name": "D#5",
                    "midi": 75,
                    "time": 148.49999999999892,
                    "velocity": 0.5905511811023622,
                    "duration": 0.09999999999999432
                },
                {
                    "name": "C5",
                    "midi": 72,
                    "time": 148.7999999999989,
                    "velocity": 0.5905511811023622,
                    "duration": 0.09999999999999432
                },
                {
                    "name": "D#5",
                    "midi": 75,
                    "time": 148.7999999999989,
                    "velocity": 0.5905511811023622,
                    "duration": 0.09999999999999432
                },
                {
                    "name": "C5",
                    "midi": 72,
                    "time": 149.0999999999989,
                    "velocity": 0.5905511811023622,
                    "duration": 0.09999999999999432
                },
                {
                    "name": "D#5",
                    "midi": 75,
                    "time": 149.0999999999989,
                    "velocity": 0.5905511811023622,
                    "duration": 0.09999999999999432
                },
                {
                    "name": "C5",
                    "midi": 72,
                    "time": 149.39999999999887,
                    "velocity": 0.5905511811023622,
                    "duration": 0.09999999999999432
                },
                {
                    "name": "D#5",
                    "midi": 75,
                    "time": 149.39999999999887,
                    "velocity": 0.5905511811023622,
                    "duration": 0.09999999999999432
                },
                {
                    "name": "C5",
                    "midi": 72,
                    "time": 149.69999999999885,
                    "velocity": 0.5905511811023622,
                    "duration": 0.09999999999999432
                },
                {
                    "name": "D#5",
                    "midi": 75,
                    "time": 149.69999999999885,
                    "velocity": 0.5905511811023622,
                    "duration": 0.09999999999999432
                },
                {
                    "name": "C5",
                    "midi": 72,
                    "time": 149.99999999999883,
                    "velocity": 0.5905511811023622,
                    "duration": 0.09999999999999432
                },
                {
                    "name": "D#5",
                    "midi": 75,
                    "time": 149.99999999999883,
                    "velocity": 0.5905511811023622,
                    "duration": 0.09999999999999432
                },
                {
                    "name": "C5",
                    "midi": 72,
                    "time": 150.14999999999884,
                    "velocity": 0.5905511811023622,
                    "duration": 0.09999999999999432
                },
                {
                    "name": "D#5",
                    "midi": 75,
                    "time": 150.14999999999884,
                    "velocity": 0.5905511811023622,
                    "duration": 0.09999999999999432
                },
                {
                    "name": "C5",
                    "midi": 72,
                    "time": 150.29999999999885,
                    "velocity": 0.5905511811023622,
                    "duration": 0.09999999999999432
                },
                {
                    "name": "D#5",
                    "midi": 75,
                    "time": 150.29999999999885,
                    "velocity": 0.5905511811023622,
                    "duration": 0.09999999999999432
                },
                {
                    "name": "C5",
                    "midi": 72,
                    "time": 150.59999999999883,
                    "velocity": 0.5905511811023622,
                    "duration": 0.09999999999999432
                },
                {
                    "name": "G5",
                    "midi": 79,
                    "time": 150.59999999999883,
                    "velocity": 0.5905511811023622,
                    "duration": 0.09999999999999432
                },
                {
                    "name": "C5",
                    "midi": 72,
                    "time": 150.8999999999988,
                    "velocity": 0.5905511811023622,
                    "duration": 0.09999999999999432
                },
                {
                    "name": "G5",
                    "midi": 79,
                    "time": 150.8999999999988,
                    "velocity": 0.5905511811023622,
                    "duration": 0.09999999999999432
                },
                {
                    "name": "C5",
                    "midi": 72,
                    "time": 151.1999999999988,
                    "velocity": 0.5905511811023622,
                    "duration": 0.09999999999999432
                },
                {
                    "name": "F#5",
                    "midi": 78,
                    "time": 151.1999999999988,
                    "velocity": 0.5905511811023622,
                    "duration": 0.09999999999999432
                },
                {
                    "name": "C#5",
                    "midi": 73,
                    "time": 151.49999999999878,
                    "velocity": 0.5905511811023622,
                    "duration": 0.09999999999999432
                },
                {
                    "name": "F5",
                    "midi": 77,
                    "time": 151.49999999999878,
                    "velocity": 0.5905511811023622,
                    "duration": 0.09999999999999432
                },
                {
                    "name": "C#5",
                    "midi": 73,
                    "time": 151.79999999999876,
                    "velocity": 0.5905511811023622,
                    "duration": 0.09999999999999432
                },
                {
                    "name": "F5",
                    "midi": 77,
                    "time": 151.79999999999876,
                    "velocity": 0.5905511811023622,
                    "duration": 0.09999999999999432
                },
                {
                    "name": "C#5",
                    "midi": 73,
                    "time": 151.94999999999877,
                    "velocity": 0.5905511811023622,
                    "duration": 0.09999999999999432
                },
                {
                    "name": "F5",
                    "midi": 77,
                    "time": 151.94999999999877,
                    "velocity": 0.5905511811023622,
                    "duration": 0.09999999999999432
                },
                {
                    "name": "C#5",
                    "midi": 73,
                    "time": 152.09999999999877,
                    "velocity": 0.5905511811023622,
                    "duration": 0.09999999999999432
                },
                {
                    "name": "F5",
                    "midi": 77,
                    "time": 152.09999999999877,
                    "velocity": 0.5905511811023622,
                    "duration": 0.09999999999999432
                },
                {
                    "name": "C#5",
                    "midi": 73,
                    "time": 152.39999999999876,
                    "velocity": 0.5905511811023622,
                    "duration": 0.09999999999999432
                },
                {
                    "name": "F5",
                    "midi": 77,
                    "time": 152.39999999999876,
                    "velocity": 0.5905511811023622,
                    "duration": 0.09999999999999432
                },
                {
                    "name": "C#5",
                    "midi": 73,
                    "time": 152.69999999999874,
                    "velocity": 0.5905511811023622,
                    "duration": 0.09999999999999432
                },
                {
                    "name": "F5",
                    "midi": 77,
                    "time": 152.69999999999874,
                    "velocity": 0.5905511811023622,
                    "duration": 0.09999999999999432
                },
                {
                    "name": "C#5",
                    "midi": 73,
                    "time": 152.99999999999872,
                    "velocity": 0.5905511811023622,
                    "duration": 0.09999999999999432
                },
                {
                    "name": "F5",
                    "midi": 77,
                    "time": 152.99999999999872,
                    "velocity": 0.5905511811023622,
                    "duration": 0.09999999999999432
                },
                {
                    "name": "C5",
                    "midi": 72,
                    "time": 153.2999999999987,
                    "velocity": 0.5905511811023622,
                    "duration": 0.09999999999999432
                },
                {
                    "name": "D#5",
                    "midi": 75,
                    "time": 153.2999999999987,
                    "velocity": 0.5905511811023622,
                    "duration": 0.09999999999999432
                },
                {
                    "name": "C5",
                    "midi": 72,
                    "time": 153.5999999999987,
                    "velocity": 0.5905511811023622,
                    "duration": 0.09999999999999432
                },
                {
                    "name": "D#5",
                    "midi": 75,
                    "time": 153.5999999999987,
                    "velocity": 0.5905511811023622,
                    "duration": 0.09999999999999432
                },
                {
                    "name": "C5",
                    "midi": 72,
                    "time": 153.7499999999987,
                    "velocity": 0.5905511811023622,
                    "duration": 0.09999999999999432
                },
                {
                    "name": "D#5",
                    "midi": 75,
                    "time": 153.7499999999987,
                    "velocity": 0.5905511811023622,
                    "duration": 0.09999999999999432
                },
                {
                    "name": "C5",
                    "midi": 72,
                    "time": 153.8999999999987,
                    "velocity": 0.5905511811023622,
                    "duration": 0.09999999999999432
                },
                {
                    "name": "D#5",
                    "midi": 75,
                    "time": 153.8999999999987,
                    "velocity": 0.5905511811023622,
                    "duration": 0.09999999999999432
                },
                {
                    "name": "C5",
                    "midi": 72,
                    "time": 154.19999999999868,
                    "velocity": 0.5905511811023622,
                    "duration": 0.09999999999999432
                },
                {
                    "name": "D#5",
                    "midi": 75,
                    "time": 154.19999999999868,
                    "velocity": 0.5905511811023622,
                    "duration": 0.09999999999999432
                },
                {
                    "name": "C5",
                    "midi": 72,
                    "time": 154.49999999999866,
                    "velocity": 0.5905511811023622,
                    "duration": 0.09999999999999432
                },
                {
                    "name": "D#5",
                    "midi": 75,
                    "time": 154.49999999999866,
                    "velocity": 0.5905511811023622,
                    "duration": 0.09999999999999432
                },
                {
                    "name": "C5",
                    "midi": 72,
                    "time": 154.79999999999865,
                    "velocity": 0.5905511811023622,
                    "duration": 0.09999999999999432
                },
                {
                    "name": "D#5",
                    "midi": 75,
                    "time": 154.79999999999865,
                    "velocity": 0.5905511811023622,
                    "duration": 0.09999999999999432
                },
                {
                    "name": "D5",
                    "midi": 74,
                    "time": 155.09999999999863,
                    "velocity": 0.5905511811023622,
                    "duration": 0.09999999999999432
                },
                {
                    "name": "F5",
                    "midi": 77,
                    "time": 155.09999999999863,
                    "velocity": 0.5905511811023622,
                    "duration": 0.09999999999999432
                },
                {
                    "name": "D5",
                    "midi": 74,
                    "time": 155.3999999999986,
                    "velocity": 0.5905511811023622,
                    "duration": 0.09999999999999432
                },
                {
                    "name": "F5",
                    "midi": 77,
                    "time": 155.3999999999986,
                    "velocity": 0.5905511811023622,
                    "duration": 0.09999999999999432
                },
                {
                    "name": "D5",
                    "midi": 74,
                    "time": 155.54999999999862,
                    "velocity": 0.5905511811023622,
                    "duration": 0.09999999999999432
                },
                {
                    "name": "F5",
                    "midi": 77,
                    "time": 155.54999999999862,
                    "velocity": 0.5905511811023622,
                    "duration": 0.09999999999999432
                },
                {
                    "name": "D5",
                    "midi": 74,
                    "time": 155.69999999999862,
                    "velocity": 0.5905511811023622,
                    "duration": 0.09999999999999432
                },
                {
                    "name": "F5",
                    "midi": 77,
                    "time": 155.69999999999862,
                    "velocity": 0.5905511811023622,
                    "duration": 0.09999999999999432
                },
                {
                    "name": "D5",
                    "midi": 74,
                    "time": 155.9999999999986,
                    "velocity": 0.5905511811023622,
                    "duration": 0.09999999999999432
                },
                {
                    "name": "F5",
                    "midi": 77,
                    "time": 155.9999999999986,
                    "velocity": 0.5905511811023622,
                    "duration": 0.09999999999999432
                },
                {
                    "name": "D5",
                    "midi": 74,
                    "time": 156.2999999999986,
                    "velocity": 0.5905511811023622,
                    "duration": 0.09999999999999432
                },
                {
                    "name": "F5",
                    "midi": 77,
                    "time": 156.2999999999986,
                    "velocity": 0.5905511811023622,
                    "duration": 0.09999999999999432
                },
                {
                    "name": "D5",
                    "midi": 74,
                    "time": 156.59999999999857,
                    "velocity": 0.5905511811023622,
                    "duration": 0.09999999999999432
                },
                {
                    "name": "F5",
                    "midi": 77,
                    "time": 156.59999999999857,
                    "velocity": 0.5905511811023622,
                    "duration": 0.09999999999999432
                },
                {
                    "name": "D5",
                    "midi": 74,
                    "time": 156.89999999999856,
                    "velocity": 0.5905511811023622,
                    "duration": 0.09999999999999432
                },
                {
                    "name": "F5",
                    "midi": 77,
                    "time": 156.89999999999856,
                    "velocity": 0.5905511811023622,
                    "duration": 0.09999999999999432
                },
                {
                    "name": "D5",
                    "midi": 74,
                    "time": 157.19999999999854,
                    "velocity": 0.5905511811023622,
                    "duration": 0.09999999999999432
                },
                {
                    "name": "F5",
                    "midi": 77,
                    "time": 157.19999999999854,
                    "velocity": 0.5905511811023622,
                    "duration": 0.09999999999999432
                },
                {
                    "name": "D5",
                    "midi": 74,
                    "time": 157.34999999999854,
                    "velocity": 0.5905511811023622,
                    "duration": 0.09999999999999432
                },
                {
                    "name": "F5",
                    "midi": 77,
                    "time": 157.34999999999854,
                    "velocity": 0.5905511811023622,
                    "duration": 0.09999999999999432
                },
                {
                    "name": "D5",
                    "midi": 74,
                    "time": 157.49999999999855,
                    "velocity": 0.5905511811023622,
                    "duration": 0.09999999999999432
                },
                {
                    "name": "F5",
                    "midi": 77,
                    "time": 157.49999999999855,
                    "velocity": 0.5905511811023622,
                    "duration": 0.09999999999999432
                },
                {
                    "name": "C#5",
                    "midi": 73,
                    "time": 157.79999999999853,
                    "velocity": 0.5905511811023622,
                    "duration": 0.09999999999999432
                },
                {
                    "name": "G5",
                    "midi": 79,
                    "time": 157.79999999999853,
                    "velocity": 0.5905511811023622,
                    "duration": 0.09999999999999432
                },
                {
                    "name": "C#5",
                    "midi": 73,
                    "time": 158.09999999999852,
                    "velocity": 0.5905511811023622,
                    "duration": 0.09999999999999432
                },
                {
                    "name": "G5",
                    "midi": 79,
                    "time": 158.09999999999852,
                    "velocity": 0.5905511811023622,
                    "duration": 0.09999999999999432
                },
                {
                    "name": "C#5",
                    "midi": 73,
                    "time": 158.3999999999985,
                    "velocity": 0.5905511811023622,
                    "duration": 0.09999999999999432
                },
                {
                    "name": "F5",
                    "midi": 77,
                    "time": 158.3999999999985,
                    "velocity": 0.5905511811023622,
                    "duration": 0.09999999999999432
                },
                {
                    "name": "C5",
                    "midi": 72,
                    "time": 158.69999999999848,
                    "velocity": 0.5905511811023622,
                    "duration": 0.09999999999999432
                },
                {
                    "name": "D#5",
                    "midi": 75,
                    "time": 158.69999999999848,
                    "velocity": 0.5905511811023622,
                    "duration": 0.09999999999999432
                },
                {
                    "name": "C5",
                    "midi": 72,
                    "time": 158.99999999999847,
                    "velocity": 0.5905511811023622,
                    "duration": 0.09999999999999432
                },
                {
                    "name": "D#5",
                    "midi": 75,
                    "time": 158.99999999999847,
                    "velocity": 0.5905511811023622,
                    "duration": 0.09999999999999432
                },
                {
                    "name": "C5",
                    "midi": 72,
                    "time": 159.14999999999847,
                    "velocity": 0.5905511811023622,
                    "duration": 0.09999999999999432
                },
                {
                    "name": "D#5",
                    "midi": 75,
                    "time": 159.14999999999847,
                    "velocity": 0.5905511811023622,
                    "duration": 0.09999999999999432
                },
                {
                    "name": "C5",
                    "midi": 72,
                    "time": 159.29999999999848,
                    "velocity": 0.5905511811023622,
                    "duration": 0.09999999999999432
                },
                {
                    "name": "D#5",
                    "midi": 75,
                    "time": 159.29999999999848,
                    "velocity": 0.5905511811023622,
                    "duration": 0.09999999999999432
                },
                {
                    "name": "C5",
                    "midi": 72,
                    "time": 159.59999999999846,
                    "velocity": 0.5905511811023622,
                    "duration": 0.09999999999999432
                },
                {
                    "name": "D#5",
                    "midi": 75,
                    "time": 159.59999999999846,
                    "velocity": 0.5905511811023622,
                    "duration": 0.09999999999999432
                },
                {
                    "name": "C5",
                    "midi": 72,
                    "time": 159.89999999999844,
                    "velocity": 0.5905511811023622,
                    "duration": 0.09999999999999432
                },
                {
                    "name": "D#5",
                    "midi": 75,
                    "time": 159.89999999999844,
                    "velocity": 0.5905511811023622,
                    "duration": 0.09999999999999432
                },
                {
                    "name": "C5",
                    "midi": 72,
                    "time": 160.19999999999843,
                    "velocity": 0.5905511811023622,
                    "duration": 0.09999999999999432
                },
                {
                    "name": "D#5",
                    "midi": 75,
                    "time": 160.19999999999843,
                    "velocity": 0.5905511811023622,
                    "duration": 0.09999999999999432
                },
                {
                    "name": "A#4",
                    "midi": 70,
                    "time": 160.4999999999984,
                    "velocity": 0.5905511811023622,
                    "duration": 0.09999999999999432
                },
                {
                    "name": "D#5",
                    "midi": 75,
                    "time": 160.4999999999984,
                    "velocity": 0.5905511811023622,
                    "duration": 0.09999999999999432
                },
                {
                    "name": "A#4",
                    "midi": 70,
                    "time": 160.7999999999984,
                    "velocity": 0.5905511811023622,
                    "duration": 0.09999999999999432
                },
                {
                    "name": "D#5",
                    "midi": 75,
                    "time": 160.7999999999984,
                    "velocity": 0.5905511811023622,
                    "duration": 0.09999999999999432
                },
                {
                    "name": "A#4",
                    "midi": 70,
                    "time": 160.9499999999984,
                    "velocity": 0.5905511811023622,
                    "duration": 0.09999999999999432
                },
                {
                    "name": "D#5",
                    "midi": 75,
                    "time": 160.9499999999984,
                    "velocity": 0.5905511811023622,
                    "duration": 0.09999999999999432
                },
                {
                    "name": "A#4",
                    "midi": 70,
                    "time": 161.0999999999984,
                    "velocity": 0.5905511811023622,
                    "duration": 0.09999999999999432
                },
                {
                    "name": "D#5",
                    "midi": 75,
                    "time": 161.0999999999984,
                    "velocity": 0.5905511811023622,
                    "duration": 0.09999999999999432
                },
                {
                    "name": "C#5",
                    "midi": 73,
                    "time": 161.39999999999839,
                    "velocity": 0.5905511811023622,
                    "duration": 0.09999999999999432
                },
                {
                    "name": "D#5",
                    "midi": 75,
                    "time": 161.39999999999839,
                    "velocity": 0.5905511811023622,
                    "duration": 0.09999999999999432
                },
                {
                    "name": "C#5",
                    "midi": 73,
                    "time": 161.69999999999837,
                    "velocity": 0.5905511811023622,
                    "duration": 0.09999999999999432
                },
                {
                    "name": "D#5",
                    "midi": 75,
                    "time": 161.69999999999837,
                    "velocity": 0.5905511811023622,
                    "duration": 0.09999999999999432
                },
                {
                    "name": "C#5",
                    "midi": 73,
                    "time": 161.99999999999835,
                    "velocity": 0.5905511811023622,
                    "duration": 0.09999999999999432
                },
                {
                    "name": "D#5",
                    "midi": 75,
                    "time": 161.99999999999835,
                    "velocity": 0.5905511811023622,
                    "duration": 0.09999999999999432
                },
                {
                    "name": "A#4",
                    "midi": 70,
                    "time": 162.29999999999833,
                    "velocity": 0.47244094488188976,
                    "duration": 0.5999999999999943
                },
                {
                    "name": "E5",
                    "midi": 76,
                    "time": 162.29999999999833,
                    "velocity": 0.47244094488188976,
                    "duration": 0.5999999999999943
                },
                {
                    "name": "C4",
                    "midi": 60,
                    "time": 164.09999999999832,
                    "velocity": 0.47244094488188976,
                    "duration": 0.15000000000000568
                },
                {
                    "name": "B3",
                    "midi": 59,
                    "time": 164.24999999999832,
                    "velocity": 0.47244094488188976,
                    "duration": 0.09999999999999432
                },
                {
                    "name": "C4",
                    "midi": 60,
                    "time": 164.39999999999833,
                    "velocity": 0.47244094488188976,
                    "duration": 0.09999999999999432
                },
                {
                    "name": "D4",
                    "midi": 62,
                    "time": 164.54999999999833,
                    "velocity": 0.47244094488188976,
                    "duration": 0.09999999999999432
                },
                {
                    "name": "E4",
                    "midi": 64,
                    "time": 164.69999999999834,
                    "velocity": 0.47244094488188976,
                    "duration": 0.09999999999999432
                },
                {
                    "name": "F4",
                    "midi": 65,
                    "time": 164.84999999999835,
                    "velocity": 0.47244094488188976,
                    "duration": 0.09999999999999432
                },
                {
                    "name": "G4",
                    "midi": 67,
                    "time": 164.99999999999835,
                    "velocity": 0.47244094488188976,
                    "duration": 0.09999999999999432
                },
                {
                    "name": "G4",
                    "midi": 67,
                    "time": 165.29999999999833,
                    "velocity": 0.47244094488188976,
                    "duration": 0.09999999999999432
                },
                {
                    "name": "G4",
                    "midi": 67,
                    "time": 165.59999999999832,
                    "velocity": 0.47244094488188976,
                    "duration": 0.09999999999999432
                },
                {
                    "name": "C5",
                    "midi": 72,
                    "time": 166.7999999999983,
                    "velocity": 0.47244094488188976,
                    "duration": 0.15000000000000568
                },
                {
                    "name": "B4",
                    "midi": 71,
                    "time": 166.9499999999983,
                    "velocity": 0.47244094488188976,
                    "duration": 0.09999999999999432
                },
                {
                    "name": "C5",
                    "midi": 72,
                    "time": 167.09999999999832,
                    "velocity": 0.47244094488188976,
                    "duration": 0.09999999999999432
                },
                {
                    "name": "D5",
                    "midi": 74,
                    "time": 167.24999999999832,
                    "velocity": 0.47244094488188976,
                    "duration": 0.09999999999999432
                },
                {
                    "name": "E5",
                    "midi": 76,
                    "time": 167.39999999999833,
                    "velocity": 0.47244094488188976,
                    "duration": 0.09999999999999432
                },
                {
                    "name": "F5",
                    "midi": 77,
                    "time": 167.54999999999833,
                    "velocity": 0.47244094488188976,
                    "duration": 0.09999999999999432
                },
                {
                    "name": "B4",
                    "midi": 71,
                    "time": 167.69999999999834,
                    "velocity": 0.6614173228346457,
                    "duration": 0.29374999999998863
                },
                {
                    "name": "G5",
                    "midi": 79,
                    "time": 167.69999999999834,
                    "velocity": 0.6614173228346457,
                    "duration": 0.29374999999998863
                },
                {
                    "name": "G4",
                    "midi": 67,
                    "time": 183.59999999999832,
                    "velocity": 0.7244094488188977,
                    "duration": 0.30000000000001137
                },
                {
                    "name": "G5",
                    "midi": 79,
                    "time": 183.89999999999833,
                    "velocity": 0.7244094488188977,
                    "duration": 0.09999999999999432
                },
                {
                    "name": "G5",
                    "midi": 79,
                    "time": 184.1999999999983,
                    "velocity": 0.7244094488188977,
                    "duration": 0.09999999999999432
                },
                {
                    "name": "F5",
                    "midi": 77,
                    "time": 184.4999999999983,
                    "velocity": 0.7244094488188977,
                    "duration": 0.09999999999999432
                },
                {
                    "name": "D#5",
                    "midi": 75,
                    "time": 184.79999999999828,
                    "velocity": 0.7244094488188977,
                    "duration": 0.09999999999999432
                },
                {
                    "name": "D#5",
                    "midi": 75,
                    "time": 185.09999999999826,
                    "velocity": 0.7244094488188977,
                    "duration": 0.09999999999999432
                },
                {
                    "name": "D5",
                    "midi": 74,
                    "time": 185.39999999999824,
                    "velocity": 0.7244094488188977,
                    "duration": 0.09999999999999432
                },
                {
                    "name": "C5",
                    "midi": 72,
                    "time": 185.69999999999823,
                    "velocity": 0.7244094488188977,
                    "duration": 0.09999999999999432
                },
                {
                    "name": "B4",
                    "midi": 71,
                    "time": 185.9999999999982,
                    "velocity": 0.7244094488188977,
                    "duration": 0.09999999999999432
                },
                {
                    "name": "C5",
                    "midi": 72,
                    "time": 186.2999999999982,
                    "velocity": 0.7244094488188977,
                    "duration": 0.09999999999999432
                },
                {
                    "name": "B4",
                    "midi": 71,
                    "time": 186.59999999999818,
                    "velocity": 0.7244094488188977,
                    "duration": 0.07499999999998863
                },
                {
                    "name": "C5",
                    "midi": 72,
                    "time": 186.67499999999816,
                    "velocity": 0.7244094488188977,
                    "duration": 0.07499999999998863
                },
                {
                    "name": "D5",
                    "midi": 74,
                    "time": 186.74999999999815,
                    "velocity": 0.7244094488188977,
                    "duration": 0.09999999999999432
                },
                {
                    "name": "G4",
                    "midi": 67,
                    "time": 186.89999999999816,
                    "velocity": 0.7244094488188977,
                    "duration": 0.09999999999999432
                },
                {
                    "name": "G4",
                    "midi": 67,
                    "time": 187.19999999999814,
                    "velocity": 0.7244094488188977,
                    "duration": 0.09999999999999432
                },
                {
                    "name": "G#4",
                    "midi": 68,
                    "time": 187.49999999999812,
                    "velocity": 0.7244094488188977,
                    "duration": 0.09999999999999432
                },
                {
                    "name": "G4",
                    "midi": 67,
                    "time": 187.7999999999981,
                    "velocity": 0.7244094488188977,
                    "duration": 0.09999999999999432
                },
                {
                    "name": "F4",
                    "midi": 65,
                    "time": 188.0999999999981,
                    "velocity": 0.7244094488188977,
                    "duration": 0.09999999999999432
                },
                {
                    "name": "D#4",
                    "midi": 63,
                    "time": 188.39999999999807,
                    "velocity": 0.7244094488188977,
                    "duration": 0.09999999999999432
                },
                {
                    "name": "D4",
                    "midi": 62,
                    "time": 188.69999999999806,
                    "velocity": 0.7244094488188977,
                    "duration": 0.09999999999999432
                },
                {
                    "name": "C4",
                    "midi": 60,
                    "time": 188.99999999999804,
                    "velocity": 0.7244094488188977,
                    "duration": 0.09999999999999432
                },
                {
                    "name": "D#4",
                    "midi": 63,
                    "time": 189.29999999999802,
                    "velocity": 0.7244094488188977,
                    "duration": 0.09999999999999432
                },
                {
                    "name": "D4",
                    "midi": 62,
                    "time": 189.599999999998,
                    "velocity": 0.7244094488188977,
                    "duration": 0.09999999999999432
                },
                {
                    "name": "C4",
                    "midi": 60,
                    "time": 189.899999999998,
                    "velocity": 0.7244094488188977,
                    "duration": 0.09999999999999432
                },
                {
                    "name": "D4",
                    "midi": 62,
                    "time": 190.19999999999797,
                    "velocity": 0.7244094488188977,
                    "duration": 0.5999999999999943
                },
                {
                    "name": "G4",
                    "midi": 67,
                    "time": 190.79999999999797,
                    "velocity": 0.7244094488188977,
                    "duration": 0.30000000000001137
                },
                {
                    "name": "G5",
                    "midi": 79,
                    "time": 191.09999999999798,
                    "velocity": 0.7244094488188977,
                    "duration": 0.09999999999999432
                },
                {
                    "name": "G5",
                    "midi": 79,
                    "time": 191.39999999999796,
                    "velocity": 0.7244094488188977,
                    "duration": 0.09999999999999432
                },
                {
                    "name": "F5",
                    "midi": 77,
                    "time": 191.69999999999794,
                    "velocity": 0.7244094488188977,
                    "duration": 0.09999999999999432
                },
                {
                    "name": "D#5",
                    "midi": 75,
                    "time": 191.99999999999793,
                    "velocity": 0.7244094488188977,
                    "duration": 0.09999999999999432
                },
                {
                    "name": "D#5",
                    "midi": 75,
                    "time": 192.2999999999979,
                    "velocity": 0.7244094488188977,
                    "duration": 0.09999999999999432
                },
                {
                    "name": "D5",
                    "midi": 74,
                    "time": 192.5999999999979,
                    "velocity": 0.7244094488188977,
                    "duration": 0.09999999999999432
                },
                {
                    "name": "C5",
                    "midi": 72,
                    "time": 192.89999999999787,
                    "velocity": 0.7244094488188977,
                    "duration": 0.09999999999999432
                },
                {
                    "name": "B4",
                    "midi": 71,
                    "time": 193.19999999999786,
                    "velocity": 0.7244094488188977,
                    "duration": 0.09999999999999432
                },
                {
                    "name": "C5",
                    "midi": 72,
                    "time": 193.49999999999784,
                    "velocity": 0.7244094488188977,
                    "duration": 0.09999999999999432
                },
                {
                    "name": "B4",
                    "midi": 71,
                    "time": 193.79999999999782,
                    "velocity": 0.7244094488188977,
                    "duration": 0.07499999999998863
                },
                {
                    "name": "C5",
                    "midi": 72,
                    "time": 193.8749999999978,
                    "velocity": 0.7244094488188977,
                    "duration": 0.07499999999998863
                },
                {
                    "name": "D5",
                    "midi": 74,
                    "time": 193.9499999999978,
                    "velocity": 0.7244094488188977,
                    "duration": 0.09999999999999432
                },
                {
                    "name": "G4",
                    "midi": 67,
                    "time": 194.0999999999978,
                    "velocity": 0.7244094488188977,
                    "duration": 0.09999999999999432
                },
                {
                    "name": "G4",
                    "midi": 67,
                    "time": 194.3999999999978,
                    "velocity": 0.7244094488188977,
                    "duration": 0.09999999999999432
                },
                {
                    "name": "G#4",
                    "midi": 68,
                    "time": 194.69999999999777,
                    "velocity": 0.7244094488188977,
                    "duration": 0.09999999999999432
                },
                {
                    "name": "G4",
                    "midi": 67,
                    "time": 194.99999999999775,
                    "velocity": 0.7244094488188977,
                    "duration": 0.09999999999999432
                },
                {
                    "name": "F4",
                    "midi": 65,
                    "time": 195.29999999999774,
                    "velocity": 0.7244094488188977,
                    "duration": 0.09999999999999432
                },
                {
                    "name": "G4",
                    "midi": 67,
                    "time": 195.59999999999772,
                    "velocity": 0.7244094488188977,
                    "duration": 0.09999999999999432
                },
                {
                    "name": "C5",
                    "midi": 72,
                    "time": 195.8999999999977,
                    "velocity": 0.7244094488188977,
                    "duration": 0.09999999999999432
                },
                {
                    "name": "D#5",
                    "midi": 75,
                    "time": 196.0499999999977,
                    "velocity": 0.7244094488188977,
                    "duration": 0.09999999999999432
                },
                {
                    "name": "G5",
                    "midi": 79,
                    "time": 196.19999999999771,
                    "velocity": 0.7244094488188977,
                    "duration": 0.09999999999999432
                },
                {
                    "name": "G4",
                    "midi": 67,
                    "time": 196.4999999999977,
                    "velocity": 0.7244094488188977,
                    "duration": 0.09999999999999432
                },
                {
                    "name": "B4",
                    "midi": 71,
                    "time": 196.79999999999768,
                    "velocity": 0.7244094488188977,
                    "duration": 0.09999999999999432
                },
                {
                    "name": "D5",
                    "midi": 74,
                    "time": 196.9499999999977,
                    "velocity": 0.7244094488188977,
                    "duration": 0.09999999999999432
                },
                {
                    "name": "G5",
                    "midi": 79,
                    "time": 197.0999999999977,
                    "velocity": 0.7244094488188977,
                    "duration": 0.09999999999999432
                },
                {
                    "name": "C5",
                    "midi": 72,
                    "time": 197.39999999999768,
                    "velocity": 0.7244094488188977,
                    "duration": 0.5999999999999943
                },
                {
                    "name": "D5",
                    "midi": 74,
                    "time": 208.19999999999766,
                    "velocity": 0.7244094488188977,
                    "duration": 0.09999999999999432
                },
                {
                    "name": "D#5",
                    "midi": 75,
                    "time": 208.34999999999766,
                    "velocity": 0.7244094488188977,
                    "duration": 0.09999999999999432
                },
                {
                    "name": "F5",
                    "midi": 77,
                    "time": 208.49999999999767,
                    "velocity": 0.7244094488188977,
                    "duration": 0.09999999999999432
                },
                {
                    "name": "D#5",
                    "midi": 75,
                    "time": 208.79999999999765,
                    "velocity": 0.7244094488188977,
                    "duration": 0.09999999999999432
                },
                {
                    "name": "D5",
                    "midi": 74,
                    "time": 208.94999999999766,
                    "velocity": 0.7244094488188977,
                    "duration": 0.09999999999999432
                },
                {
                    "name": "C5",
                    "midi": 72,
                    "time": 209.09999999999766,
                    "velocity": 0.7244094488188977,
                    "duration": 0.09999999999999432
                },
                {
                    "name": "D5",
                    "midi": 74,
                    "time": 209.24999999999767,
                    "velocity": 0.7244094488188977,
                    "duration": 0.09999999999999432
                },
                {
                    "name": "D#5",
                    "midi": 75,
                    "time": 209.39999999999768,
                    "velocity": 0.7244094488188977,
                    "duration": 0.09999999999999432
                },
                {
                    "name": "D5",
                    "midi": 74,
                    "time": 209.69999999999766,
                    "velocity": 0.7244094488188977,
                    "duration": 0.09999999999999432
                },
                {
                    "name": "C5",
                    "midi": 72,
                    "time": 209.84999999999766,
                    "velocity": 0.7244094488188977,
                    "duration": 0.09999999999999432
                },
                {
                    "name": "A#4",
                    "midi": 70,
                    "time": 209.99999999999767,
                    "velocity": 0.7244094488188977,
                    "duration": 0.09999999999999432
                },
                {
                    "name": "C5",
                    "midi": 72,
                    "time": 210.14999999999768,
                    "velocity": 0.7244094488188977,
                    "duration": 0.09999999999999432
                },
                {
                    "name": "D5",
                    "midi": 74,
                    "time": 210.29999999999768,
                    "velocity": 0.7244094488188977,
                    "duration": 0.09999999999999432
                },
                {
                    "name": "C5",
                    "midi": 72,
                    "time": 210.59999999999766,
                    "velocity": 0.7244094488188977,
                    "duration": 0.09999999999999432
                },
                {
                    "name": "A#4",
                    "midi": 70,
                    "time": 210.74999999999767,
                    "velocity": 0.7244094488188977,
                    "duration": 0.09999999999999432
                },
                {
                    "name": "A4",
                    "midi": 69,
                    "time": 210.89999999999768,
                    "velocity": 0.7244094488188977,
                    "duration": 0.09999999999999432
                },
                {
                    "name": "A#4",
                    "midi": 70,
                    "time": 211.04999999999768,
                    "velocity": 0.7244094488188977,
                    "duration": 0.09999999999999432
                },
                {
                    "name": "C5",
                    "midi": 72,
                    "time": 211.1999999999977,
                    "velocity": 0.7244094488188977,
                    "duration": 0.09999999999999432
                },
                {
                    "name": "A#4",
                    "midi": 70,
                    "time": 211.49999999999767,
                    "velocity": 0.7244094488188977,
                    "duration": 0.09999999999999432
                },
                {
                    "name": "A4",
                    "midi": 69,
                    "time": 211.64999999999768,
                    "velocity": 0.7244094488188977,
                    "duration": 0.09999999999999432
                },
                {
                    "name": "A#4",
                    "midi": 70,
                    "time": 211.79999999999768,
                    "velocity": 0.7244094488188977,
                    "duration": 0.29374999999998863
                },
                {
                    "name": "B4",
                    "midi": 71,
                    "time": 212.39999999999768,
                    "velocity": 0.47244094488188976,
                    "duration": 0.30000000000001137
                },
                {
                    "name": "D#4",
                    "midi": 63,
                    "time": 212.6999999999977,
                    "velocity": 0.6614173228346457,
                    "duration": 0.9000000000000057
                },
                {
                    "name": "C5",
                    "midi": 72,
                    "time": 212.6999999999977,
                    "velocity": 0.6614173228346457,
                    "duration": 0.9000000000000057
                },
                {
                    "name": "D#4",
                    "midi": 63,
                    "time": 213.5999999999977,
                    "velocity": 0.47244094488188976,
                    "duration": 0.29374999999998863
                },
                {
                    "name": "C5",
                    "midi": 72,
                    "time": 213.5999999999977,
                    "velocity": 0.47244094488188976,
                    "duration": 0.29374999999998863
                },
                {
                    "name": "D4",
                    "midi": 62,
                    "time": 216.29999999999768,
                    "velocity": 0.6614173228346457,
                    "duration": 1.1937499999999943
                },
                {
                    "name": "A#4",
                    "midi": 70,
                    "time": 216.29999999999768,
                    "velocity": 0.6614173228346457,
                    "duration": 1.1937499999999943
                },
                {
                    "name": "B3",
                    "midi": 59,
                    "time": 219.89999999999768,
                    "velocity": 0.5905511811023622,
                    "duration": 0.9000000000000057
                },
                {
                    "name": "B4",
                    "midi": 71,
                    "time": 219.89999999999768,
                    "velocity": 0.5905511811023622,
                    "duration": 0.9000000000000057
                },
                {
                    "name": "C4",
                    "midi": 60,
                    "time": 220.79999999999768,
                    "velocity": 0.5905511811023622,
                    "duration": 1.8000000000000114
                },
                {
                    "name": "C5",
                    "midi": 72,
                    "time": 220.79999999999768,
                    "velocity": 0.5905511811023622,
                    "duration": 1.8000000000000114
                },
                {
                    "name": "B3",
                    "midi": 59,
                    "time": 222.5999999999977,
                    "velocity": 0.5905511811023622,
                    "duration": 0.29374999999998863
                },
                {
                    "name": "B4",
                    "midi": 71,
                    "time": 222.5999999999977,
                    "velocity": 0.5905511811023622,
                    "duration": 0.29374999999998863
                },
                {
                    "name": "C5",
                    "midi": 72,
                    "time": 239.6999999999977,
                    "velocity": 0.5905511811023622,
                    "duration": 0.9000000000000057
                },
                {
                    "name": "A#4",
                    "midi": 70,
                    "time": 240.5999999999977,
                    "velocity": 0.5905511811023622,
                    "duration": 0.9000000000000057
                },
                {
                    "name": "A4",
                    "midi": 69,
                    "time": 241.4999999999977,
                    "velocity": 0.5905511811023622,
                    "duration": 0.9000000000000057
                },
                {
                    "name": "G#4",
                    "midi": 68,
                    "time": 242.3999999999977,
                    "velocity": 0.5905511811023622,
                    "duration": 0.9000000000000057
                },
                {
                    "name": "C4",
                    "midi": 60,
                    "time": 243.2999999999977,
                    "velocity": 0.5905511811023622,
                    "duration": 0.09999999999999432
                },
                {
                    "name": "G4",
                    "midi": 67,
                    "time": 243.2999999999977,
                    "velocity": 0.5905511811023622,
                    "duration": 0.09999999999999432
                },
                {
                    "name": "D4",
                    "midi": 62,
                    "time": 244.19999999999771,
                    "velocity": 0.5905511811023622,
                    "duration": 0.09999999999999432
                },
                {
                    "name": "G4",
                    "midi": 67,
                    "time": 244.19999999999771,
                    "velocity": 0.5905511811023622,
                    "duration": 0.09999999999999432
                },
                {
                    "name": "D#4",
                    "midi": 63,
                    "time": 245.09999999999772,
                    "velocity": 0.5905511811023622,
                    "duration": 0.5999999999999943
                },
                {
                    "name": "G4",
                    "midi": 67,
                    "time": 245.09999999999772,
                    "velocity": 0.5905511811023622,
                    "duration": 0.5999999999999943
                },
                {
                    "name": "G4",
                    "midi": 67,
                    "time": 245.69999999999771,
                    "velocity": 0.7244094488188977,
                    "duration": 0.30000000000001137
                },
                {
                    "name": "G5",
                    "midi": 79,
                    "time": 245.99999999999773,
                    "velocity": 0.7244094488188977,
                    "duration": 0.09999999999999432
                },
                {
                    "name": "G5",
                    "midi": 79,
                    "time": 246.2999999999977,
                    "velocity": 0.7244094488188977,
                    "duration": 0.09999999999999432
                },
                {
                    "name": "F5",
                    "midi": 77,
                    "time": 246.5999999999977,
                    "velocity": 0.7244094488188977,
                    "duration": 0.09999999999999432
                },
                {
                    "name": "D#5",
                    "midi": 75,
                    "time": 246.89999999999768,
                    "velocity": 0.7244094488188977,
                    "duration": 0.09999999999999432
                },
                {
                    "name": "D#5",
                    "midi": 75,
                    "time": 247.19999999999766,
                    "velocity": 0.7244094488188977,
                    "duration": 0.09999999999999432
                },
                {
                    "name": "D5",
                    "midi": 74,
                    "time": 247.49999999999764,
                    "velocity": 0.7244094488188977,
                    "duration": 0.09999999999999432
                },
                {
                    "name": "C5",
                    "midi": 72,
                    "time": 247.79999999999762,
                    "velocity": 0.7244094488188977,
                    "duration": 0.09999999999999432
                },
                {
                    "name": "B4",
                    "midi": 71,
                    "time": 248.0999999999976,
                    "velocity": 0.7244094488188977,
                    "duration": 0.09999999999999432
                },
                {
                    "name": "C5",
                    "midi": 72,
                    "time": 248.3999999999976,
                    "velocity": 0.7244094488188977,
                    "duration": 0.09999999999999432
                },
                {
                    "name": "B4",
                    "midi": 71,
                    "time": 248.69999999999757,
                    "velocity": 0.7244094488188977,
                    "duration": 0.07499999999998863
                },
                {
                    "name": "C5",
                    "midi": 72,
                    "time": 248.77499999999756,
                    "velocity": 0.7244094488188977,
                    "duration": 0.07499999999998863
                },
                {
                    "name": "D5",
                    "midi": 74,
                    "time": 248.84999999999755,
                    "velocity": 0.7244094488188977,
                    "duration": 0.09999999999999432
                },
                {
                    "name": "G4",
                    "midi": 67,
                    "time": 248.99999999999756,
                    "velocity": 0.7244094488188977,
                    "duration": 0.09999999999999432
                },
                {
                    "name": "G4",
                    "midi": 67,
                    "time": 249.29999999999754,
                    "velocity": 0.7244094488188977,
                    "duration": 0.09999999999999432
                },
                {
                    "name": "A#4",
                    "midi": 70,
                    "time": 249.59999999999752,
                    "velocity": 0.7244094488188977,
                    "duration": 0.07499999999998863
                },
                {
                    "name": "G#4",
                    "midi": 68,
                    "time": 249.6749999999975,
                    "velocity": 0.7244094488188977,
                    "duration": 0.15000000000000568
                },
                {
                    "name": "G4",
                    "midi": 67,
                    "time": 249.8999999999975,
                    "velocity": 0.7244094488188977,
                    "duration": 0.09999999999999432
                },
                {
                    "name": "F4",
                    "midi": 65,
                    "time": 250.1999999999975,
                    "velocity": 0.7244094488188977,
                    "duration": 0.09999999999999432
                },
                {
                    "name": "D#4",
                    "midi": 63,
                    "time": 250.49999999999747,
                    "velocity": 0.7244094488188977,
                    "duration": 0.09999999999999432
                },
                {
                    "name": "D4",
                    "midi": 62,
                    "time": 250.79999999999745,
                    "velocity": 0.7244094488188977,
                    "duration": 0.09999999999999432
                },
                {
                    "name": "C4",
                    "midi": 60,
                    "time": 251.09999999999744,
                    "velocity": 0.7244094488188977,
                    "duration": 0.09999999999999432
                },
                {
                    "name": "D#4",
                    "midi": 63,
                    "time": 251.39999999999742,
                    "velocity": 0.7244094488188977,
                    "duration": 0.09999999999999432
                },
                {
                    "name": "D4",
                    "midi": 62,
                    "time": 251.6999999999974,
                    "velocity": 0.7244094488188977,
                    "duration": 0.09999999999999432
                },
                {
                    "name": "C4",
                    "midi": 60,
                    "time": 251.99999999999739,
                    "velocity": 0.7244094488188977,
                    "duration": 0.09999999999999432
                },
                {
                    "name": "D4",
                    "midi": 62,
                    "time": 252.29999999999737,
                    "velocity": 0.7244094488188977,
                    "duration": 0.5999999999999943
                },
                {
                    "name": "G4",
                    "midi": 67,
                    "time": 252.89999999999736,
                    "velocity": 0.7244094488188977,
                    "duration": 0.30000000000001137
                },
                {
                    "name": "G5",
                    "midi": 79,
                    "time": 253.19999999999737,
                    "velocity": 0.7244094488188977,
                    "duration": 0.09999999999999432
                },
                {
                    "name": "G5",
                    "midi": 79,
                    "time": 253.49999999999736,
                    "velocity": 0.7244094488188977,
                    "duration": 0.09999999999999432
                },
                {
                    "name": "F5",
                    "midi": 77,
                    "time": 253.79999999999734,
                    "velocity": 0.7244094488188977,
                    "duration": 0.09999999999999432
                },
                {
                    "name": "E5",
                    "midi": 76,
                    "time": 254.09999999999732,
                    "velocity": 0.7244094488188977,
                    "duration": 0.09999999999999432
                },
                {
                    "name": "E5",
                    "midi": 76,
                    "time": 254.3999999999973,
                    "velocity": 0.7244094488188977,
                    "duration": 0.09999999999999432
                },
                {
                    "name": "D5",
                    "midi": 74,
                    "time": 254.6999999999973,
                    "velocity": 0.7244094488188977,
                    "duration": 0.09999999999999432
                },
                {
                    "name": "C5",
                    "midi": 72,
                    "time": 254.99999999999727,
                    "velocity": 0.7244094488188977,
                    "duration": 0.09999999999999432
                },
                {
                    "name": "B4",
                    "midi": 71,
                    "time": 255.29999999999725,
                    "velocity": 0.7244094488188977,
                    "duration": 0.09999999999999432
                },
                {
                    "name": "C5",
                    "midi": 72,
                    "time": 255.59999999999724,
                    "velocity": 0.7244094488188977,
                    "duration": 0.09999999999999432
                },
                {
                    "name": "B4",
                    "midi": 71,
                    "time": 255.89999999999722,
                    "velocity": 0.7244094488188977,
                    "duration": 0.07499999999998863
                },
                {
                    "name": "C5",
                    "midi": 72,
                    "time": 255.9749999999972,
                    "velocity": 0.7244094488188977,
                    "duration": 0.07500000000001705
                },
                {
                    "name": "D5",
                    "midi": 74,
                    "time": 256.0499999999972,
                    "velocity": 0.7244094488188977,
                    "duration": 0.10000000000002274
                },
                {
                    "name": "G4",
                    "midi": 67,
                    "time": 256.19999999999726,
                    "velocity": 0.7244094488188977,
                    "duration": 0.10000000000002274
                },
                {
                    "name": "G4",
                    "midi": 67,
                    "time": 256.49999999999727,
                    "velocity": 0.7244094488188977,
                    "duration": 0.10000000000002274
                },
                {
                    "name": "A#4",
                    "midi": 70,
                    "time": 256.7999999999973,
                    "velocity": 0.7244094488188977,
                    "duration": 0.07499999999998863
                },
                {
                    "name": "G#4",
                    "midi": 68,
                    "time": 256.87499999999727,
                    "velocity": 0.7244094488188977,
                    "duration": 0.14999999999997726
                },
                {
                    "name": "G4",
                    "midi": 67,
                    "time": 257.09999999999724,
                    "velocity": 0.7244094488188977,
                    "duration": 0.10000000000002274
                },
                {
                    "name": "F4",
                    "midi": 65,
                    "time": 257.39999999999725,
                    "velocity": 0.7244094488188977,
                    "duration": 0.10000000000002274
                },
                {
                    "name": "G4",
                    "midi": 67,
                    "time": 257.69999999999726,
                    "velocity": 0.7244094488188977,
                    "duration": 0.10000000000002274
                },
                {
                    "name": "C5",
                    "midi": 72,
                    "time": 257.99999999999727,
                    "velocity": 0.7244094488188977,
                    "duration": 0.10000000000002274
                },
                {
                    "name": "D#5",
                    "midi": 75,
                    "time": 258.1499999999973,
                    "velocity": 0.7244094488188977,
                    "duration": 0.10000000000002274
                },
                {
                    "name": "G5",
                    "midi": 79,
                    "time": 258.29999999999734,
                    "velocity": 0.7244094488188977,
                    "duration": 0.10000000000002274
                },
                {
                    "name": "G4",
                    "midi": 67,
                    "time": 258.59999999999735,
                    "velocity": 0.7244094488188977,
                    "duration": 0.10000000000002274
                },
                {
                    "name": "B4",
                    "midi": 71,
                    "time": 258.89999999999736,
                    "velocity": 0.7244094488188977,
                    "duration": 0.10000000000002274
                },
                {
                    "name": "D5",
                    "midi": 74,
                    "time": 259.0499999999974,
                    "velocity": 0.7244094488188977,
                    "duration": 0.10000000000002274
                },
                {
                    "name": "G5",
                    "midi": 79,
                    "time": 259.19999999999743,
                    "velocity": 0.7244094488188977,
                    "duration": 0.10000000000002274
                },
                {
                    "name": "C5",
                    "midi": 72,
                    "time": 259.49999999999744,
                    "velocity": 0.7244094488188977,
                    "duration": 0.6000000000000227
                },
                {
                    "name": "C4",
                    "midi": 60,
                    "time": 260.3999999999975,
                    "velocity": 0.7244094488188977,
                    "duration": 0.10000000000002274
                },
                {
                    "name": "D#4",
                    "midi": 63,
                    "time": 260.3999999999975,
                    "velocity": 0.7244094488188977,
                    "duration": 0.10000000000002274
                },
                {
                    "name": "D4",
                    "midi": 62,
                    "time": 260.6999999999975,
                    "velocity": 0.7244094488188977,
                    "duration": 0.10000000000002274
                },
                {
                    "name": "F4",
                    "midi": 65,
                    "time": 260.6999999999975,
                    "velocity": 0.7244094488188977,
                    "duration": 0.10000000000002274
                },
                {
                    "name": "D#4",
                    "midi": 63,
                    "time": 260.9999999999975,
                    "velocity": 0.7244094488188977,
                    "duration": 0.10000000000002274
                },
                {
                    "name": "G4",
                    "midi": 67,
                    "time": 260.9999999999975,
                    "velocity": 0.7244094488188977,
                    "duration": 0.10000000000002274
                },
                {
                    "name": "F4",
                    "midi": 65,
                    "time": 261.2999999999975,
                    "velocity": 0.7244094488188977,
                    "duration": 0.10000000000002274
                },
                {
                    "name": "G#4",
                    "midi": 68,
                    "time": 261.2999999999975,
                    "velocity": 0.7244094488188977,
                    "duration": 0.10000000000002274
                },
                {
                    "name": "G4",
                    "midi": 67,
                    "time": 261.5999999999975,
                    "velocity": 0.7244094488188977,
                    "duration": 0.10000000000002274
                },
                {
                    "name": "A#4",
                    "midi": 70,
                    "time": 261.5999999999975,
                    "velocity": 0.7244094488188977,
                    "duration": 0.10000000000002274
                },
                {
                    "name": "C4",
                    "midi": 60,
                    "time": 261.89999999999753,
                    "velocity": 0.7244094488188977,
                    "duration": 0.10000000000002274
                },
                {
                    "name": "G#4",
                    "midi": 68,
                    "time": 261.89999999999753,
                    "velocity": 0.7244094488188977,
                    "duration": 0.10000000000002274
                },
                {
                    "name": "D4",
                    "midi": 62,
                    "time": 262.19999999999754,
                    "velocity": 0.7244094488188977,
                    "duration": 0.10000000000002274
                },
                {
                    "name": "A#4",
                    "midi": 70,
                    "time": 262.19999999999754,
                    "velocity": 0.7244094488188977,
                    "duration": 0.10000000000002274
                },
                {
                    "name": "D#4",
                    "midi": 63,
                    "time": 262.49999999999756,
                    "velocity": 0.7244094488188977,
                    "duration": 0.10000000000002274
                },
                {
                    "name": "C5",
                    "midi": 72,
                    "time": 262.49999999999756,
                    "velocity": 0.7244094488188977,
                    "duration": 0.10000000000002274
                },
                {
                    "name": "F4",
                    "midi": 65,
                    "time": 262.79999999999757,
                    "velocity": 0.7244094488188977,
                    "duration": 0.10000000000002274
                },
                {
                    "name": "D5",
                    "midi": 74,
                    "time": 262.79999999999757,
                    "velocity": 0.7244094488188977,
                    "duration": 0.10000000000002274
                },
                {
                    "name": "G4",
                    "midi": 67,
                    "time": 263.0999999999976,
                    "velocity": 0.7244094488188977,
                    "duration": 0.10000000000002274
                },
                {
                    "name": "D#5",
                    "midi": 75,
                    "time": 263.0999999999976,
                    "velocity": 0.7244094488188977,
                    "duration": 0.10000000000002274
                },
                {
                    "name": "G#4",
                    "midi": 68,
                    "time": 263.3999999999976,
                    "velocity": 0.7244094488188977,
                    "duration": 0.10000000000002274
                },
                {
                    "name": "F5",
                    "midi": 77,
                    "time": 263.3999999999976,
                    "velocity": 0.7244094488188977,
                    "duration": 0.10000000000002274
                },
                {
                    "name": "A#4",
                    "midi": 70,
                    "time": 263.6999999999976,
                    "velocity": 0.7244094488188977,
                    "duration": 0.10000000000002274
                },
                {
                    "name": "G5",
                    "midi": 79,
                    "time": 263.6999999999976,
                    "velocity": 0.7244094488188977,
                    "duration": 0.10000000000002274
                },
                {
                    "name": "G#4",
                    "midi": 68,
                    "time": 263.9999999999976,
                    "velocity": 1,
                    "duration": 0.10000000000002274
                },
                {
                    "name": "C5",
                    "midi": 72,
                    "time": 263.9999999999976,
                    "velocity": 1,
                    "duration": 0.10000000000002274
                },
                {
                    "name": "G4",
                    "midi": 67,
                    "time": 264.89999999999765,
                    "velocity": 1,
                    "duration": 0.10000000000002274
                },
                {
                    "name": "C5",
                    "midi": 72,
                    "time": 264.89999999999765,
                    "velocity": 1,
                    "duration": 0.10000000000002274
                },
                {
                    "name": "F4",
                    "midi": 65,
                    "time": 265.7999999999977,
                    "velocity": 1,
                    "duration": 0.10000000000002274
                },
                {
                    "name": "B4",
                    "midi": 71,
                    "time": 265.7999999999977,
                    "velocity": 1,
                    "duration": 0.10000000000002274
                },
                {
                    "name": "D#4",
                    "midi": 63,
                    "time": 266.6999999999977,
                    "velocity": 0.7244094488188977,
                    "duration": 0.6000000000000227
                },
                {
                    "name": "C5",
                    "midi": 72,
                    "time": 266.6999999999977,
                    "velocity": 0.7244094488188977,
                    "duration": 0.6000000000000227
                },
                {
                    "name": "D#4",
                    "midi": 63,
                    "time": 267.29999999999774,
                    "velocity": 0.7244094488188977,
                    "duration": 0.10000000000002274
                },
                {
                    "name": "C5",
                    "midi": 72,
                    "time": 267.29999999999774,
                    "velocity": 0.7244094488188977,
                    "duration": 0.10000000000002274
                },
                {
                    "name": "D#4",
                    "midi": 63,
                    "time": 267.4499999999978,
                    "velocity": 0.7244094488188977,
                    "duration": 0.10000000000002274
                },
                {
                    "name": "C5",
                    "midi": 72,
                    "time": 267.4499999999978,
                    "velocity": 0.7244094488188977,
                    "duration": 0.10000000000002274
                },
                {
                    "name": "C4",
                    "midi": 60,
                    "time": 267.5999999999978,
                    "velocity": 0.7244094488188977,
                    "duration": 0.10000000000002274
                },
                {
                    "name": "D#4",
                    "midi": 63,
                    "time": 267.5999999999978,
                    "velocity": 0.7244094488188977,
                    "duration": 0.10000000000002274
                },
                {
                    "name": "D4",
                    "midi": 62,
                    "time": 267.8999999999978,
                    "velocity": 0.7244094488188977,
                    "duration": 0.10000000000002274
                },
                {
                    "name": "F4",
                    "midi": 65,
                    "time": 267.8999999999978,
                    "velocity": 0.7244094488188977,
                    "duration": 0.10000000000002274
                },
                {
                    "name": "D#4",
                    "midi": 63,
                    "time": 268.19999999999783,
                    "velocity": 0.7244094488188977,
                    "duration": 0.10000000000002274
                },
                {
                    "name": "G4",
                    "midi": 67,
                    "time": 268.19999999999783,
                    "velocity": 0.7244094488188977,
                    "duration": 0.10000000000002274
                },
                {
                    "name": "F4",
                    "midi": 65,
                    "time": 268.49999999999784,
                    "velocity": 0.7244094488188977,
                    "duration": 0.10000000000002274
                },
                {
                    "name": "G#4",
                    "midi": 68,
                    "time": 268.49999999999784,
                    "velocity": 0.7244094488188977,
                    "duration": 0.10000000000002274
                },
                {
                    "name": "G4",
                    "midi": 67,
                    "time": 268.79999999999785,
                    "velocity": 0.7244094488188977,
                    "duration": 0.10000000000002274
                },
                {
                    "name": "A#4",
                    "midi": 70,
                    "time": 268.79999999999785,
                    "velocity": 0.7244094488188977,
                    "duration": 0.10000000000002274
                },
                {
                    "name": "C4",
                    "midi": 60,
                    "time": 269.09999999999786,
                    "velocity": 0.7244094488188977,
                    "duration": 0.10000000000002274
                },
                {
                    "name": "G#4",
                    "midi": 68,
                    "time": 269.09999999999786,
                    "velocity": 0.7244094488188977,
                    "duration": 0.10000000000002274
                },
                {
                    "name": "D4",
                    "midi": 62,
                    "time": 269.3999999999979,
                    "velocity": 0.7244094488188977,
                    "duration": 0.10000000000002274
                },
                {
                    "name": "A#4",
                    "midi": 70,
                    "time": 269.3999999999979,
                    "velocity": 0.7244094488188977,
                    "duration": 0.10000000000002274
                },
                {
                    "name": "D#4",
                    "midi": 63,
                    "time": 269.6999999999979,
                    "velocity": 0.7244094488188977,
                    "duration": 0.10000000000002274
                },
                {
                    "name": "C5",
                    "midi": 72,
                    "time": 269.6999999999979,
                    "velocity": 0.7244094488188977,
                    "duration": 0.10000000000002274
                },
                {
                    "name": "F4",
                    "midi": 65,
                    "time": 269.9999999999979,
                    "velocity": 0.7244094488188977,
                    "duration": 0.10000000000002274
                },
                {
                    "name": "D5",
                    "midi": 74,
                    "time": 269.9999999999979,
                    "velocity": 0.7244094488188977,
                    "duration": 0.10000000000002274
                },
                {
                    "name": "G4",
                    "midi": 67,
                    "time": 270.2999999999979,
                    "velocity": 0.7244094488188977,
                    "duration": 0.10000000000002274
                },
                {
                    "name": "D#5",
                    "midi": 75,
                    "time": 270.2999999999979,
                    "velocity": 0.7244094488188977,
                    "duration": 0.10000000000002274
                },
                {
                    "name": "G#4",
                    "midi": 68,
                    "time": 270.5999999999979,
                    "velocity": 0.7244094488188977,
                    "duration": 0.10000000000002274
                },
                {
                    "name": "F5",
                    "midi": 77,
                    "time": 270.5999999999979,
                    "velocity": 0.7244094488188977,
                    "duration": 0.10000000000002274
                },
                {
                    "name": "A#4",
                    "midi": 70,
                    "time": 270.89999999999793,
                    "velocity": 0.7244094488188977,
                    "duration": 0.10000000000002274
                },
                {
                    "name": "G5",
                    "midi": 79,
                    "time": 270.89999999999793,
                    "velocity": 0.7244094488188977,
                    "duration": 0.10000000000002274
                },
                {
                    "name": "G#4",
                    "midi": 68,
                    "time": 271.19999999999794,
                    "velocity": 1,
                    "duration": 0.10000000000002274
                },
                {
                    "name": "C5",
                    "midi": 72,
                    "time": 271.19999999999794,
                    "velocity": 1,
                    "duration": 0.10000000000002274
                },
                {
                    "name": "G4",
                    "midi": 67,
                    "time": 272.099999999998,
                    "velocity": 1,
                    "duration": 0.10000000000002274
                },
                {
                    "name": "C5",
                    "midi": 72,
                    "time": 272.099999999998,
                    "velocity": 1,
                    "duration": 0.10000000000002274
                },
                {
                    "name": "F4",
                    "midi": 65,
                    "time": 272.999999999998,
                    "velocity": 1,
                    "duration": 0.10000000000002274
                },
                {
                    "name": "B4",
                    "midi": 71,
                    "time": 272.999999999998,
                    "velocity": 1,
                    "duration": 0.10000000000002274
                },
                {
                    "name": "D#4",
                    "midi": 63,
                    "time": 273.89999999999804,
                    "velocity": 0.7244094488188977,
                    "duration": 0.6000000000000227
                },
                {
                    "name": "C5",
                    "midi": 72,
                    "time": 273.89999999999804,
                    "velocity": 0.7244094488188977,
                    "duration": 0.6000000000000227
                },
                {
                    "name": "D#5",
                    "midi": 75,
                    "time": 278.0999999999981,
                    "velocity": 0.7244094488188977,
                    "duration": 0.10000000000002274
                },
                {
                    "name": "D5",
                    "midi": 74,
                    "time": 278.3999999999981,
                    "velocity": 0.7244094488188977,
                    "duration": 0.10000000000002274
                },
                {
                    "name": "D#5",
                    "midi": 75,
                    "time": 278.54999999999814,
                    "velocity": 0.7244094488188977,
                    "duration": 0.10000000000002274
                },
                {
                    "name": "F5",
                    "midi": 77,
                    "time": 278.69999999999817,
                    "velocity": 0.7244094488188977,
                    "duration": 0.10000000000002274
                },
                {
                    "name": "D#5",
                    "midi": 75,
                    "time": 278.9999999999982,
                    "velocity": 0.7244094488188977,
                    "duration": 0.10000000000002274
                },
                {
                    "name": "D5",
                    "midi": 74,
                    "time": 279.1499999999982,
                    "velocity": 0.7244094488188977,
                    "duration": 0.10000000000002274
                },
                {
                    "name": "C5",
                    "midi": 72,
                    "time": 279.29999999999825,
                    "velocity": 0.7244094488188977,
                    "duration": 0.10000000000002274
                },
                {
                    "name": "D5",
                    "midi": 74,
                    "time": 279.4499999999983,
                    "velocity": 0.7244094488188977,
                    "duration": 0.10000000000002274
                },
                {
                    "name": "D#5",
                    "midi": 75,
                    "time": 279.5999999999983,
                    "velocity": 0.7244094488188977,
                    "duration": 0.10000000000002274
                },
                {
                    "name": "D5",
                    "midi": 74,
                    "time": 279.89999999999833,
                    "velocity": 0.7244094488188977,
                    "duration": 0.10000000000002274
                },
                {
                    "name": "C5",
                    "midi": 72,
                    "time": 280.04999999999836,
                    "velocity": 0.7244094488188977,
                    "duration": 0.10000000000002274
                },
                {
                    "name": "F4",
                    "midi": 65,
                    "time": 280.1999999999984,
                    "velocity": 0.7244094488188977,
                    "duration": 0.29374999999998863
                },
                {
                    "name": "G4",
                    "midi": 67,
                    "time": 280.1999999999984,
                    "velocity": 0.7244094488188977,
                    "duration": 0.29374999999998863
                },
                {
                    "name": "F4",
                    "midi": 65,
                    "time": 280.4999999999984,
                    "velocity": 0.7244094488188977,
                    "duration": 0.29374999999998863
                },
                {
                    "name": "A4",
                    "midi": 69,
                    "time": 280.4999999999984,
                    "velocity": 0.7244094488188977,
                    "duration": 0.29374999999998863
                },
                {
                    "name": "F4",
                    "midi": 65,
                    "time": 280.7999999999984,
                    "velocity": 0.7244094488188977,
                    "duration": 0.29374999999998863
                },
                {
                    "name": "B4",
                    "midi": 71,
                    "time": 280.7999999999984,
                    "velocity": 0.7244094488188977,
                    "duration": 0.29374999999998863
                },
                {
                    "name": "D#4",
                    "midi": 63,
                    "time": 281.09999999999843,
                    "velocity": 0.7244094488188977,
                    "duration": 0.29374999999998863
                },
                {
                    "name": "C5",
                    "midi": 72,
                    "time": 281.09999999999843,
                    "velocity": 0.7244094488188977,
                    "duration": 0.14999999999997726
                },
                {
                    "name": "D#5",
                    "midi": 75,
                    "time": 281.2499999999984,
                    "velocity": 0.7244094488188977,
                    "duration": 0.10000000000002274
                },
                {
                    "name": "D#4",
                    "midi": 63,
                    "time": 281.39999999999844,
                    "velocity": 0.7244094488188977,
                    "duration": 0.2937500000000455
                },
                {
                    "name": "D5",
                    "midi": 74,
                    "time": 281.39999999999844,
                    "velocity": 0.7244094488188977,
                    "duration": 0.10000000000002274
                },
                {
                    "name": "C5",
                    "midi": 72,
                    "time": 281.5499999999985,
                    "velocity": 0.7244094488188977,
                    "duration": 0.10000000000002274
                },
                {
                    "name": "D#4",
                    "midi": 63,
                    "time": 281.6999999999985,
                    "velocity": 0.7244094488188977,
                    "duration": 0.2937500000000455
                },
                {
                    "name": "B4",
                    "midi": 71,
                    "time": 281.6999999999985,
                    "velocity": 0.7244094488188977,
                    "duration": 0.10000000000002274
                },
                {
                    "name": "A4",
                    "midi": 69,
                    "time": 281.84999999999854,
                    "velocity": 0.7244094488188977,
                    "duration": 0.10000000000002274
                },
                {
                    "name": "F4",
                    "midi": 65,
                    "time": 281.9999999999986,
                    "velocity": 0.7244094488188977,
                    "duration": 0.29374999999998863
                },
                {
                    "name": "G4",
                    "midi": 67,
                    "time": 281.9999999999986,
                    "velocity": 0.7244094488188977,
                    "duration": 0.29374999999998863
                },
                {
                    "name": "F4",
                    "midi": 65,
                    "time": 282.2999999999986,
                    "velocity": 0.7244094488188977,
                    "duration": 0.29374999999998863
                },
                {
                    "name": "A4",
                    "midi": 69,
                    "time": 282.2999999999986,
                    "velocity": 0.7244094488188977,
                    "duration": 0.29374999999998863
                },
                {
                    "name": "F4",
                    "midi": 65,
                    "time": 282.5999999999986,
                    "velocity": 0.7244094488188977,
                    "duration": 0.29374999999998863
                },
                {
                    "name": "B4",
                    "midi": 71,
                    "time": 282.5999999999986,
                    "velocity": 0.7244094488188977,
                    "duration": 0.29374999999998863
                },
                {
                    "name": "D#4",
                    "midi": 63,
                    "time": 282.8999999999986,
                    "velocity": 0.7244094488188977,
                    "duration": 0.29374999999998863
                },
                {
                    "name": "C5",
                    "midi": 72,
                    "time": 282.8999999999986,
                    "velocity": 0.7244094488188977,
                    "duration": 0.29374999999998863
                },
                {
                    "name": "D#4",
                    "midi": 63,
                    "time": 283.1999999999986,
                    "velocity": 0.7244094488188977,
                    "duration": 0.29374999999998863
                },
                {
                    "name": "C5",
                    "midi": 72,
                    "time": 283.1999999999986,
                    "velocity": 0.7244094488188977,
                    "duration": 0.29374999999998863
                },
                {
                    "name": "D#4",
                    "midi": 63,
                    "time": 283.49999999999864,
                    "velocity": 0.7244094488188977,
                    "duration": 0.29374999999998863
                },
                {
                    "name": "C5",
                    "midi": 72,
                    "time": 283.49999999999864,
                    "velocity": 0.7244094488188977,
                    "duration": 0.29374999999998863
                },
                {
                    "name": "D#4",
                    "midi": 63,
                    "time": 283.79999999999865,
                    "velocity": 0.7244094488188977,
                    "duration": 0.29374999999998863
                },
                {
                    "name": "C5",
                    "midi": 72,
                    "time": 283.79999999999865,
                    "velocity": 0.7244094488188977,
                    "duration": 0.29374999999998863
                },
                {
                    "name": "D#4",
                    "midi": 63,
                    "time": 284.09999999999866,
                    "velocity": 0.7244094488188977,
                    "duration": 0.29374999999998863
                },
                {
                    "name": "C5",
                    "midi": 72,
                    "time": 284.09999999999866,
                    "velocity": 0.7244094488188977,
                    "duration": 0.29374999999998863
                },
                {
                    "name": "D#4",
                    "midi": 63,
                    "time": 284.39999999999867,
                    "velocity": 0.7244094488188977,
                    "duration": 0.29374999999998863
                },
                {
                    "name": "C5",
                    "midi": 72,
                    "time": 284.39999999999867,
                    "velocity": 0.7244094488188977,
                    "duration": 0.29374999999998863
                },
                {
                    "name": "D#4",
                    "midi": 63,
                    "time": 284.6999999999987,
                    "velocity": 0.7244094488188977,
                    "duration": 0.6000000000000227
                },
                {
                    "name": "C5",
                    "midi": 72,
                    "time": 284.6999999999987,
                    "velocity": 0.7244094488188977,
                    "duration": 0.6000000000000227
                },
                {
                    "name": "G4",
                    "midi": 67,
                    "time": 285.5999999999987,
                    "velocity": 0.7244094488188977,
                    "duration": 0.6000000000000227
                },
                {
                    "name": "D#5",
                    "midi": 75,
                    "time": 285.5999999999987,
                    "velocity": 0.7244094488188977,
                    "duration": 0.6000000000000227
                },
                {
                    "name": "C4",
                    "midi": 60,
                    "time": 286.3499999999987,
                    "velocity": 0.7244094488188977,
                    "duration": 0.10000000000002274
                },
                {
                    "name": "D#4",
                    "midi": 63,
                    "time": 286.3499999999987,
                    "velocity": 0.7244094488188977,
                    "duration": 0.10000000000002274
                },
                {
                    "name": "C4",
                    "midi": 60,
                    "time": 286.49999999999875,
                    "velocity": 0.7244094488188977,
                    "duration": 0.8999999999999773
                },
                {
                    "name": "D#4",
                    "midi": 63,
                    "time": 286.49999999999875,
                    "velocity": 0.7244094488188977,
                    "duration": 0.8999999999999773
                }
            ],
            "controlChanges": {
                "7": [
                    {
                        "number": 7,
                        "time": 0,
                        "value": 0.7637795275590551
                    }
                ],
                "10": [
                    {
                        "number": 10,
                        "time": 0,
                        "value": 0.5039370078740157
                    }
                ],
                "91": [
                    {
                        "number": 91,
                        "time": 0,
                        "value": 0.28346456692913385
                    }
                ]
            },
            "id": 11,
            "instrumentNumber": 56,
            "instrument": "trumpet",
            "instrumentFamily": "brass",
            "channelNumber": 6,
            "isPercussion": false
        },
        {
            "startTime": 15.899999999999999,
            "duration": 287.40000000000106,
            "length": 483,
            "notes": [
                {
                    "name": "D#4",
                    "midi": 63,
                    "time": 15.899999999999999,
                    "velocity": 0.7244094488188977,
                    "duration": 0.2937499999999993
                },
                {
                    "name": "C4",
                    "midi": 60,
                    "time": 15.899999999999999,
                    "velocity": 0.7244094488188977,
                    "duration": 0.2937499999999993
                },
                {
                    "name": "C4",
                    "midi": 60,
                    "time": 16.2,
                    "velocity": 0.7244094488188977,
                    "duration": 0.2937499999999993
                },
                {
                    "name": "D#4",
                    "midi": 63,
                    "time": 16.2,
                    "velocity": 0.7244094488188977,
                    "duration": 0.2937499999999993
                },
                {
                    "name": "G#3",
                    "midi": 56,
                    "time": 16.799999999999997,
                    "velocity": 0.7244094488188977,
                    "duration": 0.2937499999999993
                },
                {
                    "name": "F4",
                    "midi": 65,
                    "time": 16.799999999999997,
                    "velocity": 0.7244094488188977,
                    "duration": 0.2937499999999993
                },
                {
                    "name": "G#3",
                    "midi": 56,
                    "time": 17.099999999999998,
                    "velocity": 0.7244094488188977,
                    "duration": 0.2937499999999993
                },
                {
                    "name": "F#4",
                    "midi": 66,
                    "time": 17.099999999999998,
                    "velocity": 0.7244094488188977,
                    "duration": 0.2937499999999993
                },
                {
                    "name": "B3",
                    "midi": 59,
                    "time": 17.699999999999996,
                    "velocity": 0.7244094488188977,
                    "duration": 0.2937499999999993
                },
                {
                    "name": "G4",
                    "midi": 67,
                    "time": 17.699999999999996,
                    "velocity": 0.7244094488188977,
                    "duration": 0.2937499999999993
                },
                {
                    "name": "B3",
                    "midi": 59,
                    "time": 17.999999999999996,
                    "velocity": 0.7244094488188977,
                    "duration": 0.2937499999999993
                },
                {
                    "name": "G4",
                    "midi": 67,
                    "time": 17.999999999999996,
                    "velocity": 0.7244094488188977,
                    "duration": 0.2937499999999993
                },
                {
                    "name": "B3",
                    "midi": 59,
                    "time": 18.599999999999994,
                    "velocity": 0.7244094488188977,
                    "duration": 0.2937499999999993
                },
                {
                    "name": "F4",
                    "midi": 65,
                    "time": 18.599999999999994,
                    "velocity": 0.7244094488188977,
                    "duration": 0.2937499999999993
                },
                {
                    "name": "B3",
                    "midi": 59,
                    "time": 18.899999999999995,
                    "velocity": 0.7244094488188977,
                    "duration": 0.2937499999999993
                },
                {
                    "name": "F4",
                    "midi": 65,
                    "time": 18.899999999999995,
                    "velocity": 0.7244094488188977,
                    "duration": 0.2937499999999993
                },
                {
                    "name": "C4",
                    "midi": 60,
                    "time": 19.499999999999993,
                    "velocity": 0.7244094488188977,
                    "duration": 0.2937499999999993
                },
                {
                    "name": "D#4",
                    "midi": 63,
                    "time": 19.499999999999993,
                    "velocity": 0.7244094488188977,
                    "duration": 0.2937499999999993
                },
                {
                    "name": "C4",
                    "midi": 60,
                    "time": 19.799999999999994,
                    "velocity": 0.7244094488188977,
                    "duration": 0.2937499999999993
                },
                {
                    "name": "D4",
                    "midi": 62,
                    "time": 19.799999999999994,
                    "velocity": 0.7244094488188977,
                    "duration": 0.2937499999999993
                },
                {
                    "name": "B3",
                    "midi": 59,
                    "time": 20.39999999999999,
                    "velocity": 0.7244094488188977,
                    "duration": 0.2937499999999993
                },
                {
                    "name": "D#4",
                    "midi": 63,
                    "time": 20.39999999999999,
                    "velocity": 0.7244094488188977,
                    "duration": 0.2937499999999993
                },
                {
                    "name": "C4",
                    "midi": 60,
                    "time": 20.699999999999992,
                    "velocity": 0.7244094488188977,
                    "duration": 0.2937499999999993
                },
                {
                    "name": "D#4",
                    "midi": 63,
                    "time": 20.699999999999992,
                    "velocity": 0.7244094488188977,
                    "duration": 0.2937499999999993
                },
                {
                    "name": "B3",
                    "midi": 59,
                    "time": 20.999999999999993,
                    "velocity": 0.7244094488188977,
                    "duration": 0.5
                },
                {
                    "name": "D4",
                    "midi": 62,
                    "time": 20.999999999999993,
                    "velocity": 0.7244094488188977,
                    "duration": 0.5
                },
                {
                    "name": "B3",
                    "midi": 59,
                    "time": 21.89999999999999,
                    "velocity": 0.7244094488188977,
                    "duration": 0.8999999999999986
                },
                {
                    "name": "F4",
                    "midi": 65,
                    "time": 21.89999999999999,
                    "velocity": 0.7244094488188977,
                    "duration": 0.8999999999999986
                },
                {
                    "name": "C4",
                    "midi": 60,
                    "time": 22.79999999999999,
                    "velocity": 0.7244094488188977,
                    "duration": 0.2937499999999993
                },
                {
                    "name": "D#4",
                    "midi": 63,
                    "time": 22.79999999999999,
                    "velocity": 0.7244094488188977,
                    "duration": 0.2937499999999993
                },
                {
                    "name": "C4",
                    "midi": 60,
                    "time": 23.09999999999999,
                    "velocity": 0.7244094488188977,
                    "duration": 0.2937499999999993
                },
                {
                    "name": "D#4",
                    "midi": 63,
                    "time": 23.09999999999999,
                    "velocity": 0.7244094488188977,
                    "duration": 0.2937499999999993
                },
                {
                    "name": "C4",
                    "midi": 60,
                    "time": 23.39999999999999,
                    "velocity": 0.7244094488188977,
                    "duration": 0.2937499999999993
                },
                {
                    "name": "D4",
                    "midi": 62,
                    "time": 23.39999999999999,
                    "velocity": 0.7244094488188977,
                    "duration": 0.2937499999999993
                },
                {
                    "name": "D4",
                    "midi": 62,
                    "time": 23.99999999999999,
                    "velocity": 0.7244094488188977,
                    "duration": 0.2937499999999993
                },
                {
                    "name": "F#4",
                    "midi": 66,
                    "time": 23.99999999999999,
                    "velocity": 0.7244094488188977,
                    "duration": 0.2937499999999993
                },
                {
                    "name": "C4",
                    "midi": 60,
                    "time": 24.29999999999999,
                    "velocity": 0.7244094488188977,
                    "duration": 0.2937499999999993
                },
                {
                    "name": "G#4",
                    "midi": 68,
                    "time": 24.29999999999999,
                    "velocity": 0.7244094488188977,
                    "duration": 0.2937499999999993
                },
                {
                    "name": "B3",
                    "midi": 59,
                    "time": 24.899999999999988,
                    "velocity": 0.7244094488188977,
                    "duration": 0.2937499999999993
                },
                {
                    "name": "G4",
                    "midi": 67,
                    "time": 24.899999999999988,
                    "velocity": 0.7244094488188977,
                    "duration": 0.2937499999999993
                },
                {
                    "name": "B3",
                    "midi": 59,
                    "time": 25.19999999999999,
                    "velocity": 0.7244094488188977,
                    "duration": 0.2937499999999993
                },
                {
                    "name": "G4",
                    "midi": 67,
                    "time": 25.19999999999999,
                    "velocity": 0.7244094488188977,
                    "duration": 0.2937499999999993
                },
                {
                    "name": "B3",
                    "midi": 59,
                    "time": 25.799999999999986,
                    "velocity": 0.7244094488188977,
                    "duration": 0.2937499999999993
                },
                {
                    "name": "G4",
                    "midi": 67,
                    "time": 25.799999999999986,
                    "velocity": 0.7244094488188977,
                    "duration": 0.2937499999999993
                },
                {
                    "name": "B3",
                    "midi": 59,
                    "time": 26.099999999999987,
                    "velocity": 0.7244094488188977,
                    "duration": 0.2937499999999993
                },
                {
                    "name": "F4",
                    "midi": 65,
                    "time": 26.099999999999987,
                    "velocity": 0.7244094488188977,
                    "duration": 0.2937499999999993
                },
                {
                    "name": "C4",
                    "midi": 60,
                    "time": 26.399999999999988,
                    "velocity": 0.7244094488188977,
                    "duration": 0.2937499999999993
                },
                {
                    "name": "D#4",
                    "midi": 63,
                    "time": 26.399999999999988,
                    "velocity": 0.7244094488188977,
                    "duration": 0.2937499999999993
                },
                {
                    "name": "B3",
                    "midi": 59,
                    "time": 27.299999999999986,
                    "velocity": 0.7244094488188977,
                    "duration": 0.2937499999999993
                },
                {
                    "name": "F4",
                    "midi": 65,
                    "time": 27.299999999999986,
                    "velocity": 0.7244094488188977,
                    "duration": 0.2937499999999993
                },
                {
                    "name": "C4",
                    "midi": 60,
                    "time": 28.199999999999985,
                    "velocity": 0.7244094488188977,
                    "duration": 0.6000000000000014
                },
                {
                    "name": "D#4",
                    "midi": 63,
                    "time": 28.199999999999985,
                    "velocity": 0.7244094488188977,
                    "duration": 0.6000000000000014
                },
                {
                    "name": "C4",
                    "midi": 60,
                    "time": 43.499999999999986,
                    "velocity": 1,
                    "duration": 0.8999999999999986
                },
                {
                    "name": "D#4",
                    "midi": 63,
                    "time": 43.499999999999986,
                    "velocity": 1,
                    "duration": 0.8999999999999986
                },
                {
                    "name": "C4",
                    "midi": 60,
                    "time": 44.399999999999984,
                    "velocity": 0.47244094488188976,
                    "duration": 0.29375000000000284
                },
                {
                    "name": "D#4",
                    "midi": 63,
                    "time": 44.399999999999984,
                    "velocity": 0.47244094488188976,
                    "duration": 0.29375000000000284
                },
                {
                    "name": "A#3",
                    "midi": 58,
                    "time": 47.09999999999999,
                    "velocity": 0.6614173228346457,
                    "duration": 1.1937500000000014
                },
                {
                    "name": "D4",
                    "midi": 62,
                    "time": 47.09999999999999,
                    "velocity": 0.6614173228346457,
                    "duration": 1.1937500000000014
                },
                {
                    "name": "B3",
                    "midi": 59,
                    "time": 54.29999999999999,
                    "velocity": 0.5905511811023622,
                    "duration": 0.8999999999999986
                },
                {
                    "name": "C4",
                    "midi": 60,
                    "time": 55.19999999999999,
                    "velocity": 0.5905511811023622,
                    "duration": 1.7999999999999972
                },
                {
                    "name": "B3",
                    "midi": 59,
                    "time": 56.999999999999986,
                    "velocity": 0.5905511811023622,
                    "duration": 0.6000000000000014
                },
                {
                    "name": "C4",
                    "midi": 60,
                    "time": 77.99999999999999,
                    "velocity": 0.7244094488188977,
                    "duration": 0.29375000000000284
                },
                {
                    "name": "D#4",
                    "midi": 63,
                    "time": 77.99999999999999,
                    "velocity": 0.7244094488188977,
                    "duration": 0.29375000000000284
                },
                {
                    "name": "D4",
                    "midi": 62,
                    "time": 78.29999999999998,
                    "velocity": 0.7244094488188977,
                    "duration": 0.29375000000000284
                },
                {
                    "name": "D#4",
                    "midi": 63,
                    "time": 78.29999999999998,
                    "velocity": 0.7244094488188977,
                    "duration": 0.29375000000000284
                },
                {
                    "name": "G#3",
                    "midi": 56,
                    "time": 78.89999999999999,
                    "velocity": 0.7244094488188977,
                    "duration": 0.29375000000000284
                },
                {
                    "name": "F4",
                    "midi": 65,
                    "time": 78.89999999999999,
                    "velocity": 0.7244094488188977,
                    "duration": 0.29375000000000284
                },
                {
                    "name": "G#3",
                    "midi": 56,
                    "time": 79.19999999999999,
                    "velocity": 0.7244094488188977,
                    "duration": 0.29375000000000284
                },
                {
                    "name": "F#4",
                    "midi": 66,
                    "time": 79.19999999999999,
                    "velocity": 0.7244094488188977,
                    "duration": 0.29375000000000284
                },
                {
                    "name": "B3",
                    "midi": 59,
                    "time": 79.8,
                    "velocity": 0.7244094488188977,
                    "duration": 0.29375000000000284
                },
                {
                    "name": "G4",
                    "midi": 67,
                    "time": 79.8,
                    "velocity": 0.7244094488188977,
                    "duration": 0.29375000000000284
                },
                {
                    "name": "B3",
                    "midi": 59,
                    "time": 80.1,
                    "velocity": 0.7244094488188977,
                    "duration": 0.29375000000000284
                },
                {
                    "name": "G4",
                    "midi": 67,
                    "time": 80.1,
                    "velocity": 0.7244094488188977,
                    "duration": 0.29375000000000284
                },
                {
                    "name": "B3",
                    "midi": 59,
                    "time": 80.7,
                    "velocity": 0.7244094488188977,
                    "duration": 0.29375000000000284
                },
                {
                    "name": "F4",
                    "midi": 65,
                    "time": 80.7,
                    "velocity": 0.7244094488188977,
                    "duration": 0.29375000000000284
                },
                {
                    "name": "B3",
                    "midi": 59,
                    "time": 81,
                    "velocity": 0.7244094488188977,
                    "duration": 0.29375000000000284
                },
                {
                    "name": "F4",
                    "midi": 65,
                    "time": 81,
                    "velocity": 0.7244094488188977,
                    "duration": 0.29375000000000284
                },
                {
                    "name": "C4",
                    "midi": 60,
                    "time": 81.60000000000001,
                    "velocity": 0.7244094488188977,
                    "duration": 0.29375000000000284
                },
                {
                    "name": "D#4",
                    "midi": 63,
                    "time": 81.60000000000001,
                    "velocity": 0.7244094488188977,
                    "duration": 0.29375000000000284
                },
                {
                    "name": "C4",
                    "midi": 60,
                    "time": 81.9,
                    "velocity": 0.7244094488188977,
                    "duration": 0.29375000000000284
                },
                {
                    "name": "D4",
                    "midi": 62,
                    "time": 81.9,
                    "velocity": 0.7244094488188977,
                    "duration": 0.29375000000000284
                },
                {
                    "name": "B3",
                    "midi": 59,
                    "time": 82.50000000000001,
                    "velocity": 0.7244094488188977,
                    "duration": 0.29375000000000284
                },
                {
                    "name": "D#4",
                    "midi": 63,
                    "time": 82.50000000000001,
                    "velocity": 0.7244094488188977,
                    "duration": 0.29375000000000284
                },
                {
                    "name": "C4",
                    "midi": 60,
                    "time": 82.80000000000001,
                    "velocity": 0.7244094488188977,
                    "duration": 0.29375000000000284
                },
                {
                    "name": "D#4",
                    "midi": 63,
                    "time": 82.80000000000001,
                    "velocity": 0.7244094488188977,
                    "duration": 0.29375000000000284
                },
                {
                    "name": "B3",
                    "midi": 59,
                    "time": 83.10000000000001,
                    "velocity": 0.7244094488188977,
                    "duration": 0.5
                },
                {
                    "name": "D4",
                    "midi": 62,
                    "time": 83.10000000000001,
                    "velocity": 0.7244094488188977,
                    "duration": 0.5
                },
                {
                    "name": "B3",
                    "midi": 59,
                    "time": 84.00000000000001,
                    "velocity": 0.7244094488188977,
                    "duration": 0.9000000000000057
                },
                {
                    "name": "F4",
                    "midi": 65,
                    "time": 84.00000000000001,
                    "velocity": 0.7244094488188977,
                    "duration": 0.9000000000000057
                },
                {
                    "name": "C4",
                    "midi": 60,
                    "time": 84.90000000000002,
                    "velocity": 0.7244094488188977,
                    "duration": 0.29375000000000284
                },
                {
                    "name": "E4",
                    "midi": 64,
                    "time": 84.90000000000002,
                    "velocity": 0.7244094488188977,
                    "duration": 0.29375000000000284
                },
                {
                    "name": "C4",
                    "midi": 60,
                    "time": 85.20000000000002,
                    "velocity": 0.7244094488188977,
                    "duration": 0.29375000000000284
                },
                {
                    "name": "E4",
                    "midi": 64,
                    "time": 85.20000000000002,
                    "velocity": 0.7244094488188977,
                    "duration": 0.29375000000000284
                },
                {
                    "name": "D4",
                    "midi": 62,
                    "time": 85.50000000000001,
                    "velocity": 0.7244094488188977,
                    "duration": 0.29375000000000284
                },
                {
                    "name": "E4",
                    "midi": 64,
                    "time": 85.50000000000001,
                    "velocity": 0.7244094488188977,
                    "duration": 0.29375000000000284
                },
                {
                    "name": "C4",
                    "midi": 60,
                    "time": 86.10000000000002,
                    "velocity": 0.7244094488188977,
                    "duration": 0.29375000000000284
                },
                {
                    "name": "F#4",
                    "midi": 66,
                    "time": 86.10000000000002,
                    "velocity": 0.7244094488188977,
                    "duration": 0.29375000000000284
                },
                {
                    "name": "C4",
                    "midi": 60,
                    "time": 86.40000000000002,
                    "velocity": 0.7244094488188977,
                    "duration": 0.29375000000000284
                },
                {
                    "name": "F#4",
                    "midi": 66,
                    "time": 86.40000000000002,
                    "velocity": 0.7244094488188977,
                    "duration": 0.29375000000000284
                },
                {
                    "name": "B3",
                    "midi": 59,
                    "time": 87.00000000000003,
                    "velocity": 0.7244094488188977,
                    "duration": 0.29375000000000284
                },
                {
                    "name": "G4",
                    "midi": 67,
                    "time": 87.00000000000003,
                    "velocity": 0.7244094488188977,
                    "duration": 0.29375000000000284
                },
                {
                    "name": "B3",
                    "midi": 59,
                    "time": 87.30000000000003,
                    "velocity": 0.7244094488188977,
                    "duration": 0.29375000000000284
                },
                {
                    "name": "G4",
                    "midi": 67,
                    "time": 87.30000000000003,
                    "velocity": 0.7244094488188977,
                    "duration": 0.29375000000000284
                },
                {
                    "name": "B3",
                    "midi": 59,
                    "time": 87.90000000000003,
                    "velocity": 0.7244094488188977,
                    "duration": 0.29375000000000284
                },
                {
                    "name": "D#4",
                    "midi": 63,
                    "time": 87.90000000000003,
                    "velocity": 0.7244094488188977,
                    "duration": 0.29375000000000284
                },
                {
                    "name": "B3",
                    "midi": 59,
                    "time": 88.20000000000003,
                    "velocity": 0.7244094488188977,
                    "duration": 0.29375000000000284
                },
                {
                    "name": "F4",
                    "midi": 65,
                    "time": 88.20000000000003,
                    "velocity": 0.7244094488188977,
                    "duration": 0.29375000000000284
                },
                {
                    "name": "C4",
                    "midi": 60,
                    "time": 88.50000000000003,
                    "velocity": 0.7244094488188977,
                    "duration": 0.29375000000000284
                },
                {
                    "name": "D#4",
                    "midi": 63,
                    "time": 88.50000000000003,
                    "velocity": 0.7244094488188977,
                    "duration": 0.29375000000000284
                },
                {
                    "name": "B3",
                    "midi": 59,
                    "time": 89.40000000000003,
                    "velocity": 0.7244094488188977,
                    "duration": 0.29375000000000284
                },
                {
                    "name": "F4",
                    "midi": 65,
                    "time": 89.40000000000003,
                    "velocity": 0.7244094488188977,
                    "duration": 0.29375000000000284
                },
                {
                    "name": "C4",
                    "midi": 60,
                    "time": 90.30000000000004,
                    "velocity": 0.5905511811023622,
                    "duration": 0.9000000000000057
                },
                {
                    "name": "D#4",
                    "midi": 63,
                    "time": 90.30000000000004,
                    "velocity": 0.5905511811023622,
                    "duration": 0.9000000000000057
                },
                {
                    "name": "C4",
                    "midi": 60,
                    "time": 91.20000000000005,
                    "velocity": 0.3543307086614173,
                    "duration": 0.5
                },
                {
                    "name": "D#4",
                    "midi": 63,
                    "time": 91.20000000000005,
                    "velocity": 0.3543307086614173,
                    "duration": 0.5
                },
                {
                    "name": "A#3",
                    "midi": 58,
                    "time": 103.80000000000004,
                    "velocity": 0.3543307086614173,
                    "duration": 0.9000000000000057
                },
                {
                    "name": "C#4",
                    "midi": 61,
                    "time": 103.80000000000004,
                    "velocity": 0.3543307086614173,
                    "duration": 0.9000000000000057
                },
                {
                    "name": "A3",
                    "midi": 57,
                    "time": 104.70000000000005,
                    "velocity": 0.3543307086614173,
                    "duration": 0.29375000000000284
                },
                {
                    "name": "D#4",
                    "midi": 63,
                    "time": 104.70000000000005,
                    "velocity": 0.3543307086614173,
                    "duration": 0.29375000000000284
                },
                {
                    "name": "C4",
                    "midi": 60,
                    "time": 105.60000000000005,
                    "velocity": 0.3543307086614173,
                    "duration": 0.5999999999999943
                },
                {
                    "name": "F#4",
                    "midi": 66,
                    "time": 105.60000000000005,
                    "velocity": 0.3543307086614173,
                    "duration": 0.5999999999999943
                },
                {
                    "name": "C4",
                    "midi": 60,
                    "time": 106.20000000000005,
                    "velocity": 0.3543307086614173,
                    "duration": 0.29999999999999716
                },
                {
                    "name": "F4",
                    "midi": 65,
                    "time": 106.20000000000005,
                    "velocity": 0.3543307086614173,
                    "duration": 0.29999999999999716
                },
                {
                    "name": "A#3",
                    "midi": 58,
                    "time": 106.50000000000004,
                    "velocity": 0.3543307086614173,
                    "duration": 0.29375000000000284
                },
                {
                    "name": "C#4",
                    "midi": 61,
                    "time": 106.50000000000004,
                    "velocity": 0.3543307086614173,
                    "duration": 0.29375000000000284
                },
                {
                    "name": "G#3",
                    "midi": 56,
                    "time": 121.20000000000005,
                    "velocity": 0.5905511811023622,
                    "duration": 0.8937499999999972
                },
                {
                    "name": "C4",
                    "midi": 60,
                    "time": 121.20000000000005,
                    "velocity": 0.5905511811023622,
                    "duration": 0.8937499999999972
                },
                {
                    "name": "G#3",
                    "midi": 56,
                    "time": 122.10000000000004,
                    "velocity": 0.5905511811023622,
                    "duration": 0.29999999999999716
                },
                {
                    "name": "C4",
                    "midi": 60,
                    "time": 122.10000000000004,
                    "velocity": 0.5905511811023622,
                    "duration": 0.29999999999999716
                },
                {
                    "name": "G3",
                    "midi": 55,
                    "time": 122.40000000000003,
                    "velocity": 0.5905511811023622,
                    "duration": 0.29999999999999716
                },
                {
                    "name": "C4",
                    "midi": 60,
                    "time": 122.40000000000003,
                    "velocity": 0.5905511811023622,
                    "duration": 0.29999999999999716
                },
                {
                    "name": "G#3",
                    "midi": 56,
                    "time": 123.00000000000003,
                    "velocity": 0.5905511811023622,
                    "duration": 0.8937499999999972
                },
                {
                    "name": "C4",
                    "midi": 60,
                    "time": 123.00000000000003,
                    "velocity": 0.5905511811023622,
                    "duration": 0.8937499999999972
                },
                {
                    "name": "G#3",
                    "midi": 56,
                    "time": 123.90000000000002,
                    "velocity": 0.5905511811023622,
                    "duration": 0.29999999999999716
                },
                {
                    "name": "C4",
                    "midi": 60,
                    "time": 123.90000000000002,
                    "velocity": 0.5905511811023622,
                    "duration": 0.29999999999999716
                },
                {
                    "name": "G#3",
                    "midi": 56,
                    "time": 124.20000000000002,
                    "velocity": 0.5905511811023622,
                    "duration": 0.29999999999999716
                },
                {
                    "name": "C4",
                    "midi": 60,
                    "time": 124.20000000000002,
                    "velocity": 0.5905511811023622,
                    "duration": 0.29999999999999716
                },
                {
                    "name": "G3",
                    "midi": 55,
                    "time": 124.80000000000001,
                    "velocity": 0.5905511811023622,
                    "duration": 0.8937499999999972
                },
                {
                    "name": "C4",
                    "midi": 60,
                    "time": 124.80000000000001,
                    "velocity": 0.5905511811023622,
                    "duration": 0.8937499999999972
                },
                {
                    "name": "G3",
                    "midi": 55,
                    "time": 125.7,
                    "velocity": 0.5905511811023622,
                    "duration": 0.29999999999999716
                },
                {
                    "name": "C4",
                    "midi": 60,
                    "time": 125.7,
                    "velocity": 0.5905511811023622,
                    "duration": 0.29999999999999716
                },
                {
                    "name": "G3",
                    "midi": 55,
                    "time": 126,
                    "velocity": 0.5905511811023622,
                    "duration": 0.29999999999999716
                },
                {
                    "name": "C4",
                    "midi": 60,
                    "time": 126,
                    "velocity": 0.5905511811023622,
                    "duration": 0.29999999999999716
                },
                {
                    "name": "G3",
                    "midi": 55,
                    "time": 126.6,
                    "velocity": 0.5905511811023622,
                    "duration": 0.8937499999999972
                },
                {
                    "name": "A#3",
                    "midi": 58,
                    "time": 126.6,
                    "velocity": 0.5905511811023622,
                    "duration": 0.8937499999999972
                },
                {
                    "name": "G3",
                    "midi": 55,
                    "time": 127.49999999999999,
                    "velocity": 0.5905511811023622,
                    "duration": 0.29999999999999716
                },
                {
                    "name": "A#3",
                    "midi": 58,
                    "time": 127.49999999999999,
                    "velocity": 0.5905511811023622,
                    "duration": 0.29999999999999716
                },
                {
                    "name": "G3",
                    "midi": 55,
                    "time": 127.79999999999998,
                    "velocity": 0.5905511811023622,
                    "duration": 0.30000000000001137
                },
                {
                    "name": "A#3",
                    "midi": 58,
                    "time": 127.79999999999998,
                    "velocity": 0.5905511811023622,
                    "duration": 0.30000000000001137
                },
                {
                    "name": "G#3",
                    "midi": 56,
                    "time": 128.4,
                    "velocity": 0.5905511811023622,
                    "duration": 0.8937500000000114
                },
                {
                    "name": "C4",
                    "midi": 60,
                    "time": 128.4,
                    "velocity": 0.5905511811023622,
                    "duration": 0.8937500000000114
                },
                {
                    "name": "G#3",
                    "midi": 56,
                    "time": 129.3,
                    "velocity": 0.5905511811023622,
                    "duration": 0.30000000000001137
                },
                {
                    "name": "C4",
                    "midi": 60,
                    "time": 129.3,
                    "velocity": 0.5905511811023622,
                    "duration": 0.30000000000001137
                },
                {
                    "name": "G#3",
                    "midi": 56,
                    "time": 129.60000000000002,
                    "velocity": 0.5905511811023622,
                    "duration": 0.30000000000001137
                },
                {
                    "name": "C4",
                    "midi": 60,
                    "time": 129.60000000000002,
                    "velocity": 0.5905511811023622,
                    "duration": 0.30000000000001137
                },
                {
                    "name": "A#3",
                    "midi": 58,
                    "time": 130.20000000000005,
                    "velocity": 0.5905511811023622,
                    "duration": 0.8937500000000114
                },
                {
                    "name": "E4",
                    "midi": 64,
                    "time": 130.20000000000005,
                    "velocity": 0.5905511811023622,
                    "duration": 0.8937500000000114
                },
                {
                    "name": "A#3",
                    "midi": 58,
                    "time": 131.10000000000005,
                    "velocity": 0.5905511811023622,
                    "duration": 0.30000000000001137
                },
                {
                    "name": "E4",
                    "midi": 64,
                    "time": 131.10000000000005,
                    "velocity": 0.5905511811023622,
                    "duration": 0.30000000000001137
                },
                {
                    "name": "A#3",
                    "midi": 58,
                    "time": 131.40000000000006,
                    "velocity": 0.5905511811023622,
                    "duration": 0.30000000000001137
                },
                {
                    "name": "E4",
                    "midi": 64,
                    "time": 131.40000000000006,
                    "velocity": 0.5905511811023622,
                    "duration": 0.30000000000001137
                },
                {
                    "name": "A#3",
                    "midi": 58,
                    "time": 132.00000000000009,
                    "velocity": 0.5905511811023622,
                    "duration": 0.8937500000000114
                },
                {
                    "name": "C#4",
                    "midi": 61,
                    "time": 132.00000000000009,
                    "velocity": 0.5905511811023622,
                    "duration": 0.8937500000000114
                },
                {
                    "name": "A#3",
                    "midi": 58,
                    "time": 132.9000000000001,
                    "velocity": 0.5905511811023622,
                    "duration": 0.30000000000001137
                },
                {
                    "name": "C#4",
                    "midi": 61,
                    "time": 132.9000000000001,
                    "velocity": 0.5905511811023622,
                    "duration": 0.30000000000001137
                },
                {
                    "name": "A#3",
                    "midi": 58,
                    "time": 133.2000000000001,
                    "velocity": 0.5905511811023622,
                    "duration": 0.30000000000001137
                },
                {
                    "name": "C#4",
                    "midi": 61,
                    "time": 133.2000000000001,
                    "velocity": 0.5905511811023622,
                    "duration": 0.30000000000001137
                },
                {
                    "name": "A3",
                    "midi": 57,
                    "time": 133.80000000000013,
                    "velocity": 0.5905511811023622,
                    "duration": 0.30000000000001137
                },
                {
                    "name": "D#4",
                    "midi": 63,
                    "time": 133.80000000000013,
                    "velocity": 0.5905511811023622,
                    "duration": 0.30000000000001137
                },
                {
                    "name": "A3",
                    "midi": 57,
                    "time": 134.10000000000014,
                    "velocity": 0.5905511811023622,
                    "duration": 0.30000000000001137
                },
                {
                    "name": "D#4",
                    "midi": 63,
                    "time": 134.10000000000014,
                    "velocity": 0.5905511811023622,
                    "duration": 0.30000000000001137
                },
                {
                    "name": "A3",
                    "midi": 57,
                    "time": 134.40000000000015,
                    "velocity": 0.5905511811023622,
                    "duration": 0.30000000000001137
                },
                {
                    "name": "F#4",
                    "midi": 66,
                    "time": 134.40000000000015,
                    "velocity": 0.5905511811023622,
                    "duration": 0.30000000000001137
                },
                {
                    "name": "A3",
                    "midi": 57,
                    "time": 134.70000000000016,
                    "velocity": 0.5905511811023622,
                    "duration": 0.30000000000001137
                },
                {
                    "name": "F#4",
                    "midi": 66,
                    "time": 134.70000000000016,
                    "velocity": 0.5905511811023622,
                    "duration": 0.30000000000001137
                },
                {
                    "name": "A3",
                    "midi": 57,
                    "time": 135.00000000000017,
                    "velocity": 0.5905511811023622,
                    "duration": 0.30000000000001137
                },
                {
                    "name": "D#4",
                    "midi": 63,
                    "time": 135.00000000000017,
                    "velocity": 0.5905511811023622,
                    "duration": 0.30000000000001137
                },
                {
                    "name": "A#3",
                    "midi": 58,
                    "time": 135.6000000000002,
                    "velocity": 0.5905511811023622,
                    "duration": 0.8937500000000114
                },
                {
                    "name": "C#4",
                    "midi": 61,
                    "time": 135.6000000000002,
                    "velocity": 0.5905511811023622,
                    "duration": 0.8937500000000114
                },
                {
                    "name": "A#3",
                    "midi": 58,
                    "time": 136.5000000000002,
                    "velocity": 0.5905511811023622,
                    "duration": 0.30000000000001137
                },
                {
                    "name": "C#4",
                    "midi": 61,
                    "time": 136.5000000000002,
                    "velocity": 0.5905511811023622,
                    "duration": 0.30000000000001137
                },
                {
                    "name": "A3",
                    "midi": 57,
                    "time": 136.8000000000002,
                    "velocity": 0.5905511811023622,
                    "duration": 0.30000000000001137
                },
                {
                    "name": "C#4",
                    "midi": 61,
                    "time": 136.8000000000002,
                    "velocity": 0.5905511811023622,
                    "duration": 0.30000000000001137
                },
                {
                    "name": "A#3",
                    "midi": 58,
                    "time": 137.40000000000023,
                    "velocity": 0.5905511811023622,
                    "duration": 0.8937500000000114
                },
                {
                    "name": "C#4",
                    "midi": 61,
                    "time": 137.40000000000023,
                    "velocity": 0.5905511811023622,
                    "duration": 0.8937500000000114
                },
                {
                    "name": "A#3",
                    "midi": 58,
                    "time": 138.30000000000024,
                    "velocity": 0.5905511811023622,
                    "duration": 0.30000000000001137
                },
                {
                    "name": "C#4",
                    "midi": 61,
                    "time": 138.30000000000024,
                    "velocity": 0.5905511811023622,
                    "duration": 0.30000000000001137
                },
                {
                    "name": "A#3",
                    "midi": 58,
                    "time": 138.60000000000025,
                    "velocity": 0.5905511811023622,
                    "duration": 0.30000000000001137
                },
                {
                    "name": "C#4",
                    "midi": 61,
                    "time": 138.60000000000025,
                    "velocity": 0.5905511811023622,
                    "duration": 0.30000000000001137
                },
                {
                    "name": "A3",
                    "midi": 57,
                    "time": 139.20000000000027,
                    "velocity": 0.5905511811023622,
                    "duration": 0.30000000000001137
                },
                {
                    "name": "B3",
                    "midi": 59,
                    "time": 139.20000000000027,
                    "velocity": 0.5905511811023622,
                    "duration": 0.30000000000001137
                },
                {
                    "name": "A3",
                    "midi": 57,
                    "time": 139.50000000000028,
                    "velocity": 0.5905511811023622,
                    "duration": 0.59375
                },
                {
                    "name": "C4",
                    "midi": 60,
                    "time": 139.50000000000028,
                    "velocity": 0.5905511811023622,
                    "duration": 0.59375
                },
                {
                    "name": "A3",
                    "midi": 57,
                    "time": 140.10000000000028,
                    "velocity": 0.5905511811023622,
                    "duration": 0.30000000000001137
                },
                {
                    "name": "C4",
                    "midi": 60,
                    "time": 140.10000000000028,
                    "velocity": 0.5905511811023622,
                    "duration": 0.30000000000001137
                },
                {
                    "name": "A3",
                    "midi": 57,
                    "time": 140.4000000000003,
                    "velocity": 0.5905511811023622,
                    "duration": 0.30000000000001137
                },
                {
                    "name": "C4",
                    "midi": 60,
                    "time": 140.4000000000003,
                    "velocity": 0.5905511811023622,
                    "duration": 0.30000000000001137
                },
                {
                    "name": "A#3",
                    "midi": 58,
                    "time": 141.0000000000003,
                    "velocity": 0.5905511811023622,
                    "duration": 0.30000000000001137
                },
                {
                    "name": "D#4",
                    "midi": 63,
                    "time": 141.0000000000003,
                    "velocity": 0.5905511811023622,
                    "duration": 0.30000000000001137
                },
                {
                    "name": "A#3",
                    "midi": 58,
                    "time": 141.30000000000032,
                    "velocity": 0.5905511811023622,
                    "duration": 0.30000000000001137
                },
                {
                    "name": "D#4",
                    "midi": 63,
                    "time": 141.30000000000032,
                    "velocity": 0.5905511811023622,
                    "duration": 0.30000000000001137
                },
                {
                    "name": "A#3",
                    "midi": 58,
                    "time": 141.60000000000034,
                    "velocity": 0.5905511811023622,
                    "duration": 0.30000000000001137
                },
                {
                    "name": "C#4",
                    "midi": 61,
                    "time": 141.60000000000034,
                    "velocity": 0.5905511811023622,
                    "duration": 0.30000000000001137
                },
                {
                    "name": "A#3",
                    "midi": 58,
                    "time": 141.90000000000035,
                    "velocity": 0.5905511811023622,
                    "duration": 0.30000000000001137
                },
                {
                    "name": "C#4",
                    "midi": 61,
                    "time": 141.90000000000035,
                    "velocity": 0.5905511811023622,
                    "duration": 0.30000000000001137
                },
                {
                    "name": "A#3",
                    "midi": 58,
                    "time": 142.20000000000036,
                    "velocity": 0.5905511811023622,
                    "duration": 0.30000000000001137
                },
                {
                    "name": "C#4",
                    "midi": 61,
                    "time": 142.20000000000036,
                    "velocity": 0.5905511811023622,
                    "duration": 0.30000000000001137
                },
                {
                    "name": "G3",
                    "midi": 55,
                    "time": 142.80000000000038,
                    "velocity": 0.5905511811023622,
                    "duration": 0.8937500000000114
                },
                {
                    "name": "C#4",
                    "midi": 61,
                    "time": 142.80000000000038,
                    "velocity": 0.5905511811023622,
                    "duration": 0.8937500000000114
                },
                {
                    "name": "G3",
                    "midi": 55,
                    "time": 143.7000000000004,
                    "velocity": 0.5905511811023622,
                    "duration": 0.30000000000001137
                },
                {
                    "name": "C#4",
                    "midi": 61,
                    "time": 143.7000000000004,
                    "velocity": 0.5905511811023622,
                    "duration": 0.30000000000001137
                },
                {
                    "name": "G3",
                    "midi": 55,
                    "time": 144.0000000000004,
                    "velocity": 0.5905511811023622,
                    "duration": 0.30000000000001137
                },
                {
                    "name": "C#4",
                    "midi": 61,
                    "time": 144.0000000000004,
                    "velocity": 0.5905511811023622,
                    "duration": 0.30000000000001137
                },
                {
                    "name": "C4",
                    "midi": 60,
                    "time": 144.60000000000042,
                    "velocity": 0.5905511811023622,
                    "duration": 0.8937500000000114
                },
                {
                    "name": "D#4",
                    "midi": 63,
                    "time": 144.60000000000042,
                    "velocity": 0.5905511811023622,
                    "duration": 0.8937500000000114
                },
                {
                    "name": "C4",
                    "midi": 60,
                    "time": 145.50000000000043,
                    "velocity": 0.5905511811023622,
                    "duration": 0.30000000000001137
                },
                {
                    "name": "D#4",
                    "midi": 63,
                    "time": 145.50000000000043,
                    "velocity": 0.5905511811023622,
                    "duration": 0.30000000000001137
                },
                {
                    "name": "C4",
                    "midi": 60,
                    "time": 145.80000000000044,
                    "velocity": 0.5905511811023622,
                    "duration": 0.30000000000001137
                },
                {
                    "name": "D#4",
                    "midi": 63,
                    "time": 145.80000000000044,
                    "velocity": 0.5905511811023622,
                    "duration": 0.30000000000001137
                },
                {
                    "name": "A3",
                    "midi": 57,
                    "time": 146.40000000000046,
                    "velocity": 0.5905511811023622,
                    "duration": 0.30000000000001137
                },
                {
                    "name": "D#4",
                    "midi": 63,
                    "time": 146.40000000000046,
                    "velocity": 0.5905511811023622,
                    "duration": 0.30000000000001137
                },
                {
                    "name": "G3",
                    "midi": 55,
                    "time": 146.70000000000047,
                    "velocity": 0.5905511811023622,
                    "duration": 0.59375
                },
                {
                    "name": "D#4",
                    "midi": 63,
                    "time": 146.70000000000047,
                    "velocity": 0.5905511811023622,
                    "duration": 0.59375
                },
                {
                    "name": "G3",
                    "midi": 55,
                    "time": 147.30000000000047,
                    "velocity": 0.5905511811023622,
                    "duration": 0.30000000000001137
                },
                {
                    "name": "D#4",
                    "midi": 63,
                    "time": 147.30000000000047,
                    "velocity": 0.5905511811023622,
                    "duration": 0.30000000000001137
                },
                {
                    "name": "G3",
                    "midi": 55,
                    "time": 147.60000000000048,
                    "velocity": 0.5905511811023622,
                    "duration": 0.30000000000001137
                },
                {
                    "name": "C#4",
                    "midi": 61,
                    "time": 147.60000000000048,
                    "velocity": 0.5905511811023622,
                    "duration": 0.30000000000001137
                },
                {
                    "name": "C#4",
                    "midi": 61,
                    "time": 148.2000000000005,
                    "velocity": 0.5905511811023622,
                    "duration": 0.5999999999999943
                },
                {
                    "name": "D#4",
                    "midi": 63,
                    "time": 148.2000000000005,
                    "velocity": 0.5905511811023622,
                    "duration": 0.5999999999999943
                },
                {
                    "name": "C4",
                    "midi": 60,
                    "time": 148.8000000000005,
                    "velocity": 0.5905511811023622,
                    "duration": 0.30000000000001137
                },
                {
                    "name": "D#4",
                    "midi": 63,
                    "time": 148.8000000000005,
                    "velocity": 0.5905511811023622,
                    "duration": 0.30000000000001137
                },
                {
                    "name": "C4",
                    "midi": 60,
                    "time": 149.1000000000005,
                    "velocity": 0.5905511811023622,
                    "duration": 0.30000000000001137
                },
                {
                    "name": "D#4",
                    "midi": 63,
                    "time": 149.1000000000005,
                    "velocity": 0.5905511811023622,
                    "duration": 0.30000000000001137
                },
                {
                    "name": "C4",
                    "midi": 60,
                    "time": 149.40000000000052,
                    "velocity": 0.5905511811023622,
                    "duration": 0.30000000000001137
                },
                {
                    "name": "D#4",
                    "midi": 63,
                    "time": 149.40000000000052,
                    "velocity": 0.5905511811023622,
                    "duration": 0.30000000000001137
                },
                {
                    "name": "C4",
                    "midi": 60,
                    "time": 150.00000000000054,
                    "velocity": 0.5905511811023622,
                    "duration": 0.30000000000001137
                },
                {
                    "name": "D#4",
                    "midi": 63,
                    "time": 150.00000000000054,
                    "velocity": 0.5905511811023622,
                    "duration": 0.30000000000001137
                },
                {
                    "name": "C4",
                    "midi": 60,
                    "time": 150.30000000000055,
                    "velocity": 0.5905511811023622,
                    "duration": 0.30000000000001137
                },
                {
                    "name": "D#4",
                    "midi": 63,
                    "time": 150.30000000000055,
                    "velocity": 0.5905511811023622,
                    "duration": 0.30000000000001137
                },
                {
                    "name": "C4",
                    "midi": 60,
                    "time": 150.60000000000056,
                    "velocity": 0.5905511811023622,
                    "duration": 0.30000000000001137
                },
                {
                    "name": "G4",
                    "midi": 67,
                    "time": 150.60000000000056,
                    "velocity": 0.5905511811023622,
                    "duration": 0.30000000000001137
                },
                {
                    "name": "C4",
                    "midi": 60,
                    "time": 150.90000000000057,
                    "velocity": 0.5905511811023622,
                    "duration": 0.30000000000001137
                },
                {
                    "name": "G4",
                    "midi": 67,
                    "time": 150.90000000000057,
                    "velocity": 0.5905511811023622,
                    "duration": 0.30000000000001137
                },
                {
                    "name": "C4",
                    "midi": 60,
                    "time": 151.20000000000059,
                    "velocity": 0.5905511811023622,
                    "duration": 0.30000000000001137
                },
                {
                    "name": "F#4",
                    "midi": 66,
                    "time": 151.20000000000059,
                    "velocity": 0.5905511811023622,
                    "duration": 0.30000000000001137
                },
                {
                    "name": "C#4",
                    "midi": 61,
                    "time": 151.8000000000006,
                    "velocity": 0.5905511811023622,
                    "duration": 0.8937500000000114
                },
                {
                    "name": "F4",
                    "midi": 65,
                    "time": 151.8000000000006,
                    "velocity": 0.5905511811023622,
                    "duration": 0.8937500000000114
                },
                {
                    "name": "C#4",
                    "midi": 61,
                    "time": 152.7000000000006,
                    "velocity": 0.5905511811023622,
                    "duration": 0.30000000000001137
                },
                {
                    "name": "F4",
                    "midi": 65,
                    "time": 152.7000000000006,
                    "velocity": 0.5905511811023622,
                    "duration": 0.30000000000001137
                },
                {
                    "name": "C#4",
                    "midi": 61,
                    "time": 153.00000000000063,
                    "velocity": 0.5905511811023622,
                    "duration": 0.30000000000001137
                },
                {
                    "name": "F4",
                    "midi": 65,
                    "time": 153.00000000000063,
                    "velocity": 0.5905511811023622,
                    "duration": 0.30000000000001137
                },
                {
                    "name": "C4",
                    "midi": 60,
                    "time": 153.60000000000065,
                    "velocity": 0.5905511811023622,
                    "duration": 0.8937500000000114
                },
                {
                    "name": "D#4",
                    "midi": 63,
                    "time": 153.60000000000065,
                    "velocity": 0.5905511811023622,
                    "duration": 0.8937500000000114
                },
                {
                    "name": "C4",
                    "midi": 60,
                    "time": 154.50000000000065,
                    "velocity": 0.5905511811023622,
                    "duration": 0.30000000000001137
                },
                {
                    "name": "D#4",
                    "midi": 63,
                    "time": 154.50000000000065,
                    "velocity": 0.5905511811023622,
                    "duration": 0.30000000000001137
                },
                {
                    "name": "C4",
                    "midi": 60,
                    "time": 154.80000000000067,
                    "velocity": 0.5905511811023622,
                    "duration": 0.30000000000001137
                },
                {
                    "name": "D#4",
                    "midi": 63,
                    "time": 154.80000000000067,
                    "velocity": 0.5905511811023622,
                    "duration": 0.30000000000001137
                },
                {
                    "name": "B3",
                    "midi": 59,
                    "time": 155.4000000000007,
                    "velocity": 0.5905511811023622,
                    "duration": 0.8937500000000114
                },
                {
                    "name": "D4",
                    "midi": 62,
                    "time": 155.4000000000007,
                    "velocity": 0.5905511811023622,
                    "duration": 0.8937500000000114
                },
                {
                    "name": "B3",
                    "midi": 59,
                    "time": 156.3000000000007,
                    "velocity": 0.5905511811023622,
                    "duration": 0.30000000000001137
                },
                {
                    "name": "D4",
                    "midi": 62,
                    "time": 156.3000000000007,
                    "velocity": 0.5905511811023622,
                    "duration": 0.30000000000001137
                },
                {
                    "name": "B3",
                    "midi": 59,
                    "time": 156.6000000000007,
                    "velocity": 0.5905511811023622,
                    "duration": 0.30000000000001137
                },
                {
                    "name": "D4",
                    "midi": 62,
                    "time": 156.6000000000007,
                    "velocity": 0.5905511811023622,
                    "duration": 0.30000000000001137
                },
                {
                    "name": "A#3",
                    "midi": 58,
                    "time": 157.20000000000073,
                    "velocity": 0.5905511811023622,
                    "duration": 0.5999999999999943
                },
                {
                    "name": "D4",
                    "midi": 62,
                    "time": 157.20000000000073,
                    "velocity": 0.5905511811023622,
                    "duration": 0.5999999999999943
                },
                {
                    "name": "A#3",
                    "midi": 58,
                    "time": 157.80000000000072,
                    "velocity": 0.5905511811023622,
                    "duration": 0.30000000000001137
                },
                {
                    "name": "C#4",
                    "midi": 61,
                    "time": 157.80000000000072,
                    "velocity": 0.5905511811023622,
                    "duration": 0.30000000000001137
                },
                {
                    "name": "A#3",
                    "midi": 58,
                    "time": 158.10000000000073,
                    "velocity": 0.5905511811023622,
                    "duration": 0.30000000000001137
                },
                {
                    "name": "C#4",
                    "midi": 61,
                    "time": 158.10000000000073,
                    "velocity": 0.5905511811023622,
                    "duration": 0.30000000000001137
                },
                {
                    "name": "A#3",
                    "midi": 58,
                    "time": 158.40000000000074,
                    "velocity": 0.5905511811023622,
                    "duration": 0.30000000000001137
                },
                {
                    "name": "C#4",
                    "midi": 61,
                    "time": 158.40000000000074,
                    "velocity": 0.5905511811023622,
                    "duration": 0.30000000000001137
                },
                {
                    "name": "C4",
                    "midi": 60,
                    "time": 159.00000000000077,
                    "velocity": 0.5905511811023622,
                    "duration": 0.8937500000000114
                },
                {
                    "name": "D#4",
                    "midi": 63,
                    "time": 159.00000000000077,
                    "velocity": 0.5905511811023622,
                    "duration": 0.8937500000000114
                },
                {
                    "name": "C4",
                    "midi": 60,
                    "time": 159.90000000000077,
                    "velocity": 0.5905511811023622,
                    "duration": 0.30000000000001137
                },
                {
                    "name": "D#4",
                    "midi": 63,
                    "time": 159.90000000000077,
                    "velocity": 0.5905511811023622,
                    "duration": 0.30000000000001137
                },
                {
                    "name": "C4",
                    "midi": 60,
                    "time": 160.20000000000078,
                    "velocity": 0.5905511811023622,
                    "duration": 0.30000000000001137
                },
                {
                    "name": "D#4",
                    "midi": 63,
                    "time": 160.20000000000078,
                    "velocity": 0.5905511811023622,
                    "duration": 0.30000000000001137
                },
                {
                    "name": "G3",
                    "midi": 55,
                    "time": 160.8000000000008,
                    "velocity": 0.5905511811023622,
                    "duration": 0.30000000000001137
                },
                {
                    "name": "D#4",
                    "midi": 63,
                    "time": 160.8000000000008,
                    "velocity": 0.5905511811023622,
                    "duration": 0.30000000000001137
                },
                {
                    "name": "G3",
                    "midi": 55,
                    "time": 161.10000000000082,
                    "velocity": 0.5905511811023622,
                    "duration": 0.30000000000001137
                },
                {
                    "name": "D#4",
                    "midi": 63,
                    "time": 161.10000000000082,
                    "velocity": 0.5905511811023622,
                    "duration": 0.30000000000001137
                },
                {
                    "name": "G3",
                    "midi": 55,
                    "time": 161.40000000000083,
                    "velocity": 0.5905511811023622,
                    "duration": 0.30000000000001137
                },
                {
                    "name": "C#4",
                    "midi": 61,
                    "time": 161.40000000000083,
                    "velocity": 0.5905511811023622,
                    "duration": 0.30000000000001137
                },
                {
                    "name": "G3",
                    "midi": 55,
                    "time": 161.70000000000084,
                    "velocity": 0.5905511811023622,
                    "duration": 0.30000000000001137
                },
                {
                    "name": "C#4",
                    "midi": 61,
                    "time": 161.70000000000084,
                    "velocity": 0.5905511811023622,
                    "duration": 0.30000000000001137
                },
                {
                    "name": "G3",
                    "midi": 55,
                    "time": 162.00000000000085,
                    "velocity": 0.5905511811023622,
                    "duration": 0.30000000000001137
                },
                {
                    "name": "C#4",
                    "midi": 61,
                    "time": 162.00000000000085,
                    "velocity": 0.5905511811023622,
                    "duration": 0.30000000000001137
                },
                {
                    "name": "A#3",
                    "midi": 58,
                    "time": 162.30000000000086,
                    "velocity": 0.47244094488188976,
                    "duration": 0.5999999999999943
                },
                {
                    "name": "E4",
                    "midi": 64,
                    "time": 162.30000000000086,
                    "velocity": 0.47244094488188976,
                    "duration": 0.5999999999999943
                },
                {
                    "name": "B3",
                    "midi": 59,
                    "time": 167.70000000000087,
                    "velocity": 0.6614173228346457,
                    "duration": 0.29374999999998863
                },
                {
                    "name": "F4",
                    "midi": 65,
                    "time": 167.70000000000087,
                    "velocity": 0.6614173228346457,
                    "duration": 0.29374999999998863
                },
                {
                    "name": "C4",
                    "midi": 60,
                    "time": 185.10000000000085,
                    "velocity": 0.7244094488188977,
                    "duration": 0.29374999999998863
                },
                {
                    "name": "D#4",
                    "midi": 63,
                    "time": 185.10000000000085,
                    "velocity": 0.7244094488188977,
                    "duration": 0.29374999999998863
                },
                {
                    "name": "C4",
                    "midi": 60,
                    "time": 185.40000000000083,
                    "velocity": 0.7244094488188977,
                    "duration": 0.29374999999998863
                },
                {
                    "name": "D#4",
                    "midi": 63,
                    "time": 185.40000000000083,
                    "velocity": 0.7244094488188977,
                    "duration": 0.29374999999998863
                },
                {
                    "name": "G#3",
                    "midi": 56,
                    "time": 186.00000000000082,
                    "velocity": 0.7244094488188977,
                    "duration": 0.29374999999998863
                },
                {
                    "name": "F4",
                    "midi": 65,
                    "time": 186.00000000000082,
                    "velocity": 0.7244094488188977,
                    "duration": 0.29374999999998863
                },
                {
                    "name": "G#3",
                    "midi": 56,
                    "time": 186.3000000000008,
                    "velocity": 0.7244094488188977,
                    "duration": 0.29374999999998863
                },
                {
                    "name": "F#4",
                    "midi": 66,
                    "time": 186.3000000000008,
                    "velocity": 0.7244094488188977,
                    "duration": 0.29374999999998863
                },
                {
                    "name": "B3",
                    "midi": 59,
                    "time": 186.9000000000008,
                    "velocity": 0.7244094488188977,
                    "duration": 0.29374999999998863
                },
                {
                    "name": "G4",
                    "midi": 67,
                    "time": 186.9000000000008,
                    "velocity": 0.7244094488188977,
                    "duration": 0.29374999999998863
                },
                {
                    "name": "B3",
                    "midi": 59,
                    "time": 187.20000000000078,
                    "velocity": 0.7244094488188977,
                    "duration": 0.29374999999998863
                },
                {
                    "name": "G4",
                    "midi": 67,
                    "time": 187.20000000000078,
                    "velocity": 0.7244094488188977,
                    "duration": 0.29374999999998863
                },
                {
                    "name": "B3",
                    "midi": 59,
                    "time": 187.80000000000078,
                    "velocity": 0.7244094488188977,
                    "duration": 0.29374999999998863
                },
                {
                    "name": "F4",
                    "midi": 65,
                    "time": 187.80000000000078,
                    "velocity": 0.7244094488188977,
                    "duration": 0.29374999999998863
                },
                {
                    "name": "B3",
                    "midi": 59,
                    "time": 188.10000000000076,
                    "velocity": 0.7244094488188977,
                    "duration": 0.29374999999998863
                },
                {
                    "name": "F4",
                    "midi": 65,
                    "time": 188.10000000000076,
                    "velocity": 0.7244094488188977,
                    "duration": 0.29374999999998863
                },
                {
                    "name": "C4",
                    "midi": 60,
                    "time": 188.70000000000076,
                    "velocity": 0.7244094488188977,
                    "duration": 0.29374999999998863
                },
                {
                    "name": "D#4",
                    "midi": 63,
                    "time": 188.70000000000076,
                    "velocity": 0.7244094488188977,
                    "duration": 0.29374999999998863
                },
                {
                    "name": "C4",
                    "midi": 60,
                    "time": 189.00000000000074,
                    "velocity": 0.7244094488188977,
                    "duration": 0.29374999999998863
                },
                {
                    "name": "D4",
                    "midi": 62,
                    "time": 189.00000000000074,
                    "velocity": 0.7244094488188977,
                    "duration": 0.29374999999998863
                },
                {
                    "name": "B3",
                    "midi": 59,
                    "time": 189.60000000000073,
                    "velocity": 0.7244094488188977,
                    "duration": 0.29374999999998863
                },
                {
                    "name": "D#4",
                    "midi": 63,
                    "time": 189.60000000000073,
                    "velocity": 0.7244094488188977,
                    "duration": 0.29374999999998863
                },
                {
                    "name": "C4",
                    "midi": 60,
                    "time": 189.90000000000072,
                    "velocity": 0.7244094488188977,
                    "duration": 0.29374999999998863
                },
                {
                    "name": "D#4",
                    "midi": 63,
                    "time": 189.90000000000072,
                    "velocity": 0.7244094488188977,
                    "duration": 0.29374999999998863
                },
                {
                    "name": "B3",
                    "midi": 59,
                    "time": 190.2000000000007,
                    "velocity": 0.7244094488188977,
                    "duration": 0.5
                },
                {
                    "name": "D4",
                    "midi": 62,
                    "time": 190.2000000000007,
                    "velocity": 0.7244094488188977,
                    "duration": 0.5
                },
                {
                    "name": "B3",
                    "midi": 59,
                    "time": 191.1000000000007,
                    "velocity": 0.7244094488188977,
                    "duration": 0.9000000000000057
                },
                {
                    "name": "F4",
                    "midi": 65,
                    "time": 191.1000000000007,
                    "velocity": 0.7244094488188977,
                    "duration": 0.9000000000000057
                },
                {
                    "name": "C4",
                    "midi": 60,
                    "time": 192.0000000000007,
                    "velocity": 0.7244094488188977,
                    "duration": 0.29374999999998863
                },
                {
                    "name": "D#4",
                    "midi": 63,
                    "time": 192.0000000000007,
                    "velocity": 0.7244094488188977,
                    "duration": 0.29374999999998863
                },
                {
                    "name": "C4",
                    "midi": 60,
                    "time": 192.3000000000007,
                    "velocity": 0.7244094488188977,
                    "duration": 0.29374999999998863
                },
                {
                    "name": "D#4",
                    "midi": 63,
                    "time": 192.3000000000007,
                    "velocity": 0.7244094488188977,
                    "duration": 0.29374999999998863
                },
                {
                    "name": "C4",
                    "midi": 60,
                    "time": 192.60000000000068,
                    "velocity": 0.7244094488188977,
                    "duration": 0.29374999999998863
                },
                {
                    "name": "D4",
                    "midi": 62,
                    "time": 192.60000000000068,
                    "velocity": 0.7244094488188977,
                    "duration": 0.29374999999998863
                },
                {
                    "name": "D4",
                    "midi": 62,
                    "time": 193.20000000000067,
                    "velocity": 0.7244094488188977,
                    "duration": 0.29374999999998863
                },
                {
                    "name": "F#4",
                    "midi": 66,
                    "time": 193.20000000000067,
                    "velocity": 0.7244094488188977,
                    "duration": 0.29374999999998863
                },
                {
                    "name": "C4",
                    "midi": 60,
                    "time": 193.50000000000065,
                    "velocity": 0.7244094488188977,
                    "duration": 0.29374999999998863
                },
                {
                    "name": "G#4",
                    "midi": 68,
                    "time": 193.50000000000065,
                    "velocity": 0.7244094488188977,
                    "duration": 0.29374999999998863
                },
                {
                    "name": "B3",
                    "midi": 59,
                    "time": 194.10000000000065,
                    "velocity": 0.7244094488188977,
                    "duration": 0.29374999999998863
                },
                {
                    "name": "G4",
                    "midi": 67,
                    "time": 194.10000000000065,
                    "velocity": 0.7244094488188977,
                    "duration": 0.29374999999998863
                },
                {
                    "name": "B3",
                    "midi": 59,
                    "time": 194.40000000000063,
                    "velocity": 0.7244094488188977,
                    "duration": 0.29374999999998863
                },
                {
                    "name": "G4",
                    "midi": 67,
                    "time": 194.40000000000063,
                    "velocity": 0.7244094488188977,
                    "duration": 0.29374999999998863
                },
                {
                    "name": "B3",
                    "midi": 59,
                    "time": 195.00000000000063,
                    "velocity": 0.7244094488188977,
                    "duration": 0.29374999999998863
                },
                {
                    "name": "G4",
                    "midi": 67,
                    "time": 195.00000000000063,
                    "velocity": 0.7244094488188977,
                    "duration": 0.29374999999998863
                },
                {
                    "name": "B3",
                    "midi": 59,
                    "time": 195.3000000000006,
                    "velocity": 0.7244094488188977,
                    "duration": 0.29374999999998863
                },
                {
                    "name": "F4",
                    "midi": 65,
                    "time": 195.3000000000006,
                    "velocity": 0.7244094488188977,
                    "duration": 0.29374999999998863
                },
                {
                    "name": "C4",
                    "midi": 60,
                    "time": 195.6000000000006,
                    "velocity": 0.7244094488188977,
                    "duration": 0.29374999999998863
                },
                {
                    "name": "D#4",
                    "midi": 63,
                    "time": 195.6000000000006,
                    "velocity": 0.7244094488188977,
                    "duration": 0.29374999999998863
                },
                {
                    "name": "B3",
                    "midi": 59,
                    "time": 196.50000000000057,
                    "velocity": 0.7244094488188977,
                    "duration": 0.29374999999998863
                },
                {
                    "name": "F4",
                    "midi": 65,
                    "time": 196.50000000000057,
                    "velocity": 0.7244094488188977,
                    "duration": 0.29374999999998863
                },
                {
                    "name": "C4",
                    "midi": 60,
                    "time": 197.40000000000055,
                    "velocity": 0.7244094488188977,
                    "duration": 0.5999999999999943
                },
                {
                    "name": "D#4",
                    "midi": 63,
                    "time": 197.40000000000055,
                    "velocity": 0.7244094488188977,
                    "duration": 0.5999999999999943
                },
                {
                    "name": "C4",
                    "midi": 60,
                    "time": 212.70000000000053,
                    "velocity": 1,
                    "duration": 0.9000000000000057
                },
                {
                    "name": "D#4",
                    "midi": 63,
                    "time": 212.70000000000053,
                    "velocity": 1,
                    "duration": 0.9000000000000057
                },
                {
                    "name": "C4",
                    "midi": 60,
                    "time": 213.60000000000053,
                    "velocity": 0.47244094488188976,
                    "duration": 0.29374999999998863
                },
                {
                    "name": "D#4",
                    "midi": 63,
                    "time": 213.60000000000053,
                    "velocity": 0.47244094488188976,
                    "duration": 0.29374999999998863
                },
                {
                    "name": "A#3",
                    "midi": 58,
                    "time": 216.30000000000052,
                    "velocity": 0.6614173228346457,
                    "duration": 1.1937499999999943
                },
                {
                    "name": "D4",
                    "midi": 62,
                    "time": 216.30000000000052,
                    "velocity": 0.6614173228346457,
                    "duration": 1.1937499999999943
                },
                {
                    "name": "B3",
                    "midi": 59,
                    "time": 223.5000000000005,
                    "velocity": 0.5905511811023622,
                    "duration": 0.9000000000000057
                },
                {
                    "name": "C4",
                    "midi": 60,
                    "time": 224.40000000000052,
                    "velocity": 0.5905511811023622,
                    "duration": 1.8000000000000114
                },
                {
                    "name": "B3",
                    "midi": 59,
                    "time": 226.20000000000053,
                    "velocity": 0.5905511811023622,
                    "duration": 0.5999999999999943
                },
                {
                    "name": "C4",
                    "midi": 60,
                    "time": 247.20000000000053,
                    "velocity": 0.7244094488188977,
                    "duration": 0.29374999999998863
                },
                {
                    "name": "D#4",
                    "midi": 63,
                    "time": 247.20000000000053,
                    "velocity": 0.7244094488188977,
                    "duration": 0.29374999999998863
                },
                {
                    "name": "D4",
                    "midi": 62,
                    "time": 247.5000000000005,
                    "velocity": 0.7244094488188977,
                    "duration": 0.29374999999998863
                },
                {
                    "name": "D#4",
                    "midi": 63,
                    "time": 247.5000000000005,
                    "velocity": 0.7244094488188977,
                    "duration": 0.29374999999998863
                },
                {
                    "name": "G#3",
                    "midi": 56,
                    "time": 248.1000000000005,
                    "velocity": 0.7244094488188977,
                    "duration": 0.29374999999998863
                },
                {
                    "name": "F4",
                    "midi": 65,
                    "time": 248.1000000000005,
                    "velocity": 0.7244094488188977,
                    "duration": 0.29374999999998863
                },
                {
                    "name": "G#3",
                    "midi": 56,
                    "time": 248.4000000000005,
                    "velocity": 0.7244094488188977,
                    "duration": 0.29374999999998863
                },
                {
                    "name": "F#4",
                    "midi": 66,
                    "time": 248.4000000000005,
                    "velocity": 0.7244094488188977,
                    "duration": 0.29374999999998863
                },
                {
                    "name": "B3",
                    "midi": 59,
                    "time": 249.00000000000048,
                    "velocity": 0.7244094488188977,
                    "duration": 0.29374999999998863
                },
                {
                    "name": "G4",
                    "midi": 67,
                    "time": 249.00000000000048,
                    "velocity": 0.7244094488188977,
                    "duration": 0.29374999999998863
                },
                {
                    "name": "B3",
                    "midi": 59,
                    "time": 249.30000000000047,
                    "velocity": 0.7244094488188977,
                    "duration": 0.29374999999998863
                },
                {
                    "name": "G4",
                    "midi": 67,
                    "time": 249.30000000000047,
                    "velocity": 0.7244094488188977,
                    "duration": 0.29374999999998863
                },
                {
                    "name": "B3",
                    "midi": 59,
                    "time": 249.90000000000046,
                    "velocity": 0.7244094488188977,
                    "duration": 0.29374999999998863
                },
                {
                    "name": "F4",
                    "midi": 65,
                    "time": 249.90000000000046,
                    "velocity": 0.7244094488188977,
                    "duration": 0.29374999999998863
                },
                {
                    "name": "B3",
                    "midi": 59,
                    "time": 250.20000000000044,
                    "velocity": 0.7244094488188977,
                    "duration": 0.29374999999998863
                },
                {
                    "name": "F4",
                    "midi": 65,
                    "time": 250.20000000000044,
                    "velocity": 0.7244094488188977,
                    "duration": 0.29374999999998863
                },
                {
                    "name": "C4",
                    "midi": 60,
                    "time": 250.80000000000044,
                    "velocity": 0.7244094488188977,
                    "duration": 0.29374999999998863
                },
                {
                    "name": "D#4",
                    "midi": 63,
                    "time": 250.80000000000044,
                    "velocity": 0.7244094488188977,
                    "duration": 0.29374999999998863
                },
                {
                    "name": "C4",
                    "midi": 60,
                    "time": 251.10000000000042,
                    "velocity": 0.7244094488188977,
                    "duration": 0.29374999999998863
                },
                {
                    "name": "D4",
                    "midi": 62,
                    "time": 251.10000000000042,
                    "velocity": 0.7244094488188977,
                    "duration": 0.29374999999998863
                },
                {
                    "name": "B3",
                    "midi": 59,
                    "time": 251.70000000000041,
                    "velocity": 0.7244094488188977,
                    "duration": 0.29374999999998863
                },
                {
                    "name": "D#4",
                    "midi": 63,
                    "time": 251.70000000000041,
                    "velocity": 0.7244094488188977,
                    "duration": 0.29374999999998863
                },
                {
                    "name": "C4",
                    "midi": 60,
                    "time": 252.0000000000004,
                    "velocity": 0.7244094488188977,
                    "duration": 0.29374999999998863
                },
                {
                    "name": "D#4",
                    "midi": 63,
                    "time": 252.0000000000004,
                    "velocity": 0.7244094488188977,
                    "duration": 0.29374999999998863
                },
                {
                    "name": "B3",
                    "midi": 59,
                    "time": 252.30000000000038,
                    "velocity": 0.7244094488188977,
                    "duration": 0.5
                },
                {
                    "name": "D4",
                    "midi": 62,
                    "time": 252.30000000000038,
                    "velocity": 0.7244094488188977,
                    "duration": 0.5
                },
                {
                    "name": "B3",
                    "midi": 59,
                    "time": 253.2000000000004,
                    "velocity": 0.7244094488188977,
                    "duration": 0.9000000000000057
                },
                {
                    "name": "F4",
                    "midi": 65,
                    "time": 253.2000000000004,
                    "velocity": 0.7244094488188977,
                    "duration": 0.9000000000000057
                },
                {
                    "name": "C4",
                    "midi": 60,
                    "time": 254.1000000000004,
                    "velocity": 0.7244094488188977,
                    "duration": 0.29374999999998863
                },
                {
                    "name": "E4",
                    "midi": 64,
                    "time": 254.1000000000004,
                    "velocity": 0.7244094488188977,
                    "duration": 0.29374999999998863
                },
                {
                    "name": "C4",
                    "midi": 60,
                    "time": 254.40000000000038,
                    "velocity": 0.7244094488188977,
                    "duration": 0.29374999999998863
                },
                {
                    "name": "E4",
                    "midi": 64,
                    "time": 254.40000000000038,
                    "velocity": 0.7244094488188977,
                    "duration": 0.29374999999998863
                },
                {
                    "name": "D4",
                    "midi": 62,
                    "time": 254.70000000000036,
                    "velocity": 0.7244094488188977,
                    "duration": 0.29374999999998863
                },
                {
                    "name": "E4",
                    "midi": 64,
                    "time": 254.70000000000036,
                    "velocity": 0.7244094488188977,
                    "duration": 0.29374999999998863
                },
                {
                    "name": "C4",
                    "midi": 60,
                    "time": 255.30000000000035,
                    "velocity": 0.7244094488188977,
                    "duration": 0.29374999999998863
                },
                {
                    "name": "F#4",
                    "midi": 66,
                    "time": 255.30000000000035,
                    "velocity": 0.7244094488188977,
                    "duration": 0.29374999999998863
                },
                {
                    "name": "C4",
                    "midi": 60,
                    "time": 255.60000000000034,
                    "velocity": 0.7244094488188977,
                    "duration": 0.29374999999998863
                },
                {
                    "name": "F#4",
                    "midi": 66,
                    "time": 255.60000000000034,
                    "velocity": 0.7244094488188977,
                    "duration": 0.29374999999998863
                },
                {
                    "name": "B3",
                    "midi": 59,
                    "time": 256.20000000000033,
                    "velocity": 0.7244094488188977,
                    "duration": 0.29374999999998863
                },
                {
                    "name": "G4",
                    "midi": 67,
                    "time": 256.20000000000033,
                    "velocity": 0.7244094488188977,
                    "duration": 0.29374999999998863
                },
                {
                    "name": "B3",
                    "midi": 59,
                    "time": 256.50000000000034,
                    "velocity": 0.7244094488188977,
                    "duration": 0.29374999999998863
                },
                {
                    "name": "G4",
                    "midi": 67,
                    "time": 256.50000000000034,
                    "velocity": 0.7244094488188977,
                    "duration": 0.29374999999998863
                },
                {
                    "name": "B3",
                    "midi": 59,
                    "time": 257.1000000000003,
                    "velocity": 0.7244094488188977,
                    "duration": 0.29374999999998863
                },
                {
                    "name": "D#4",
                    "midi": 63,
                    "time": 257.1000000000003,
                    "velocity": 0.7244094488188977,
                    "duration": 0.29374999999998863
                },
                {
                    "name": "B3",
                    "midi": 59,
                    "time": 257.4000000000003,
                    "velocity": 0.7244094488188977,
                    "duration": 0.29374999999998863
                },
                {
                    "name": "F4",
                    "midi": 65,
                    "time": 257.4000000000003,
                    "velocity": 0.7244094488188977,
                    "duration": 0.29374999999998863
                },
                {
                    "name": "C4",
                    "midi": 60,
                    "time": 257.70000000000033,
                    "velocity": 0.7244094488188977,
                    "duration": 0.29374999999998863
                },
                {
                    "name": "D#4",
                    "midi": 63,
                    "time": 257.70000000000033,
                    "velocity": 0.7244094488188977,
                    "duration": 0.29374999999998863
                },
                {
                    "name": "B3",
                    "midi": 59,
                    "time": 258.6000000000003,
                    "velocity": 0.7244094488188977,
                    "duration": 0.29374999999998863
                },
                {
                    "name": "F4",
                    "midi": 65,
                    "time": 258.6000000000003,
                    "velocity": 0.7244094488188977,
                    "duration": 0.29374999999998863
                },
                {
                    "name": "C4",
                    "midi": 60,
                    "time": 259.5000000000003,
                    "velocity": 0.7244094488188977,
                    "duration": 0.6000000000000227
                },
                {
                    "name": "D#4",
                    "midi": 63,
                    "time": 259.5000000000003,
                    "velocity": 0.7244094488188977,
                    "duration": 0.6000000000000227
                },
                {
                    "name": "C4",
                    "midi": 60,
                    "time": 260.4000000000003,
                    "velocity": 0.7244094488188977,
                    "duration": 0.10000000000002274
                },
                {
                    "name": "B3",
                    "midi": 59,
                    "time": 260.70000000000033,
                    "velocity": 0.7244094488188977,
                    "duration": 0.10000000000002274
                },
                {
                    "name": "A#3",
                    "midi": 58,
                    "time": 261.00000000000034,
                    "velocity": 0.7244094488188977,
                    "duration": 0.10000000000002274
                },
                {
                    "name": "G#3",
                    "midi": 56,
                    "time": 261.30000000000035,
                    "velocity": 0.7244094488188977,
                    "duration": 0.10000000000002274
                },
                {
                    "name": "G3",
                    "midi": 55,
                    "time": 261.60000000000036,
                    "velocity": 0.7244094488188977,
                    "duration": 0.10000000000002274
                },
                {
                    "name": "F3",
                    "midi": 53,
                    "time": 261.9000000000004,
                    "velocity": 0.7244094488188977,
                    "duration": 0.10000000000002274
                },
                {
                    "name": "A#3",
                    "midi": 58,
                    "time": 262.2000000000004,
                    "velocity": 0.7244094488188977,
                    "duration": 0.10000000000002274
                },
                {
                    "name": "A3",
                    "midi": 57,
                    "time": 262.5000000000004,
                    "velocity": 0.7244094488188977,
                    "duration": 0.10000000000002274
                },
                {
                    "name": "G#3",
                    "midi": 56,
                    "time": 262.8000000000004,
                    "velocity": 0.7244094488188977,
                    "duration": 0.10000000000002274
                },
                {
                    "name": "G3",
                    "midi": 55,
                    "time": 263.1000000000004,
                    "velocity": 0.7244094488188977,
                    "duration": 0.10000000000002274
                },
                {
                    "name": "F3",
                    "midi": 53,
                    "time": 263.40000000000043,
                    "velocity": 0.7244094488188977,
                    "duration": 0.10000000000002274
                },
                {
                    "name": "D#3",
                    "midi": 51,
                    "time": 263.70000000000044,
                    "velocity": 0.7244094488188977,
                    "duration": 0.10000000000002274
                },
                {
                    "name": "G#3",
                    "midi": 56,
                    "time": 264.00000000000045,
                    "velocity": 1,
                    "duration": 0.10000000000002274
                },
                {
                    "name": "F4",
                    "midi": 65,
                    "time": 264.00000000000045,
                    "velocity": 1,
                    "duration": 0.10000000000002274
                },
                {
                    "name": "C4",
                    "midi": 60,
                    "time": 264.9000000000005,
                    "velocity": 1,
                    "duration": 0.10000000000002274
                },
                {
                    "name": "D#4",
                    "midi": 63,
                    "time": 264.9000000000005,
                    "velocity": 1,
                    "duration": 0.10000000000002274
                },
                {
                    "name": "B3",
                    "midi": 59,
                    "time": 265.8000000000005,
                    "velocity": 1,
                    "duration": 0.10000000000002274
                },
                {
                    "name": "F4",
                    "midi": 65,
                    "time": 265.8000000000005,
                    "velocity": 1,
                    "duration": 0.10000000000002274
                },
                {
                    "name": "C4",
                    "midi": 60,
                    "time": 266.70000000000056,
                    "velocity": 0.7244094488188977,
                    "duration": 0.6000000000000227
                },
                {
                    "name": "D#4",
                    "midi": 63,
                    "time": 266.70000000000056,
                    "velocity": 0.7244094488188977,
                    "duration": 0.6000000000000227
                },
                {
                    "name": "C4",
                    "midi": 60,
                    "time": 267.3000000000006,
                    "velocity": 0.7244094488188977,
                    "duration": 0.29374999999998863
                },
                {
                    "name": "C4",
                    "midi": 60,
                    "time": 267.6000000000006,
                    "velocity": 0.7244094488188977,
                    "duration": 0.10000000000002274
                },
                {
                    "name": "B3",
                    "midi": 59,
                    "time": 267.9000000000006,
                    "velocity": 0.7244094488188977,
                    "duration": 0.10000000000002274
                },
                {
                    "name": "A#3",
                    "midi": 58,
                    "time": 268.2000000000006,
                    "velocity": 0.7244094488188977,
                    "duration": 0.10000000000002274
                },
                {
                    "name": "G#3",
                    "midi": 56,
                    "time": 268.5000000000006,
                    "velocity": 0.7244094488188977,
                    "duration": 0.10000000000002274
                },
                {
                    "name": "G3",
                    "midi": 55,
                    "time": 268.80000000000064,
                    "velocity": 0.7244094488188977,
                    "duration": 0.10000000000002274
                },
                {
                    "name": "F3",
                    "midi": 53,
                    "time": 269.10000000000065,
                    "velocity": 0.7244094488188977,
                    "duration": 0.10000000000002274
                },
                {
                    "name": "A#3",
                    "midi": 58,
                    "time": 269.40000000000066,
                    "velocity": 0.7244094488188977,
                    "duration": 0.10000000000002274
                },
                {
                    "name": "A3",
                    "midi": 57,
                    "time": 269.70000000000067,
                    "velocity": 0.7244094488188977,
                    "duration": 0.10000000000002274
                },
                {
                    "name": "G#3",
                    "midi": 56,
                    "time": 270.0000000000007,
                    "velocity": 0.7244094488188977,
                    "duration": 0.10000000000002274
                },
                {
                    "name": "G3",
                    "midi": 55,
                    "time": 270.3000000000007,
                    "velocity": 0.7244094488188977,
                    "duration": 0.10000000000002274
                },
                {
                    "name": "F3",
                    "midi": 53,
                    "time": 270.6000000000007,
                    "velocity": 0.7244094488188977,
                    "duration": 0.10000000000002274
                },
                {
                    "name": "D#3",
                    "midi": 51,
                    "time": 270.9000000000007,
                    "velocity": 0.7244094488188977,
                    "duration": 0.10000000000002274
                },
                {
                    "name": "G#3",
                    "midi": 56,
                    "time": 271.2000000000007,
                    "velocity": 1,
                    "duration": 0.10000000000002274
                },
                {
                    "name": "F4",
                    "midi": 65,
                    "time": 271.2000000000007,
                    "velocity": 1,
                    "duration": 0.10000000000002274
                },
                {
                    "name": "C4",
                    "midi": 60,
                    "time": 272.10000000000076,
                    "velocity": 1,
                    "duration": 0.10000000000002274
                },
                {
                    "name": "D#4",
                    "midi": 63,
                    "time": 272.10000000000076,
                    "velocity": 1,
                    "duration": 0.10000000000002274
                },
                {
                    "name": "B3",
                    "midi": 59,
                    "time": 273.0000000000008,
                    "velocity": 1,
                    "duration": 0.10000000000002274
                },
                {
                    "name": "F4",
                    "midi": 65,
                    "time": 273.0000000000008,
                    "velocity": 1,
                    "duration": 0.10000000000002274
                },
                {
                    "name": "C4",
                    "midi": 60,
                    "time": 273.90000000000083,
                    "velocity": 0.7244094488188977,
                    "duration": 0.6000000000000227
                },
                {
                    "name": "D#4",
                    "midi": 63,
                    "time": 273.90000000000083,
                    "velocity": 0.7244094488188977,
                    "duration": 0.6000000000000227
                },
                {
                    "name": "B3",
                    "midi": 59,
                    "time": 280.20000000000084,
                    "velocity": 0.7244094488188977,
                    "duration": 0.29374999999998863
                },
                {
                    "name": "F4",
                    "midi": 65,
                    "time": 280.20000000000084,
                    "velocity": 0.7244094488188977,
                    "duration": 0.29374999999998863
                },
                {
                    "name": "B3",
                    "midi": 59,
                    "time": 280.50000000000085,
                    "velocity": 0.7244094488188977,
                    "duration": 0.29374999999998863
                },
                {
                    "name": "F4",
                    "midi": 65,
                    "time": 280.50000000000085,
                    "velocity": 0.7244094488188977,
                    "duration": 0.29374999999998863
                },
                {
                    "name": "B3",
                    "midi": 59,
                    "time": 280.80000000000086,
                    "velocity": 0.7244094488188977,
                    "duration": 0.29374999999998863
                },
                {
                    "name": "F4",
                    "midi": 65,
                    "time": 280.80000000000086,
                    "velocity": 0.7244094488188977,
                    "duration": 0.29374999999998863
                },
                {
                    "name": "C4",
                    "midi": 60,
                    "time": 281.1000000000009,
                    "velocity": 0.7244094488188977,
                    "duration": 0.29374999999998863
                },
                {
                    "name": "D#4",
                    "midi": 63,
                    "time": 281.1000000000009,
                    "velocity": 0.7244094488188977,
                    "duration": 0.29374999999998863
                },
                {
                    "name": "C4",
                    "midi": 60,
                    "time": 281.4000000000009,
                    "velocity": 0.7244094488188977,
                    "duration": 0.29374999999998863
                },
                {
                    "name": "D#4",
                    "midi": 63,
                    "time": 281.4000000000009,
                    "velocity": 0.7244094488188977,
                    "duration": 0.29374999999998863
                },
                {
                    "name": "C4",
                    "midi": 60,
                    "time": 281.7000000000009,
                    "velocity": 0.7244094488188977,
                    "duration": 0.29374999999998863
                },
                {
                    "name": "D#4",
                    "midi": 63,
                    "time": 281.7000000000009,
                    "velocity": 0.7244094488188977,
                    "duration": 0.29374999999998863
                },
                {
                    "name": "B3",
                    "midi": 59,
                    "time": 282.0000000000009,
                    "velocity": 0.7244094488188977,
                    "duration": 0.29374999999998863
                },
                {
                    "name": "F4",
                    "midi": 65,
                    "time": 282.0000000000009,
                    "velocity": 0.7244094488188977,
                    "duration": 0.29374999999998863
                },
                {
                    "name": "B3",
                    "midi": 59,
                    "time": 282.3000000000009,
                    "velocity": 0.7244094488188977,
                    "duration": 0.29374999999998863
                },
                {
                    "name": "F4",
                    "midi": 65,
                    "time": 282.3000000000009,
                    "velocity": 0.7244094488188977,
                    "duration": 0.29374999999998863
                },
                {
                    "name": "B3",
                    "midi": 59,
                    "time": 282.60000000000093,
                    "velocity": 0.7244094488188977,
                    "duration": 0.29374999999998863
                },
                {
                    "name": "F4",
                    "midi": 65,
                    "time": 282.60000000000093,
                    "velocity": 0.7244094488188977,
                    "duration": 0.29374999999998863
                },
                {
                    "name": "C4",
                    "midi": 60,
                    "time": 282.90000000000094,
                    "velocity": 0.7244094488188977,
                    "duration": 0.29374999999998863
                },
                {
                    "name": "D#4",
                    "midi": 63,
                    "time": 282.90000000000094,
                    "velocity": 0.7244094488188977,
                    "duration": 0.29374999999998863
                },
                {
                    "name": "C4",
                    "midi": 60,
                    "time": 283.20000000000095,
                    "velocity": 0.7244094488188977,
                    "duration": 0.29374999999998863
                },
                {
                    "name": "D#4",
                    "midi": 63,
                    "time": 283.20000000000095,
                    "velocity": 0.7244094488188977,
                    "duration": 0.29374999999998863
                },
                {
                    "name": "C4",
                    "midi": 60,
                    "time": 283.50000000000097,
                    "velocity": 0.7244094488188977,
                    "duration": 0.29374999999998863
                },
                {
                    "name": "D#4",
                    "midi": 63,
                    "time": 283.50000000000097,
                    "velocity": 0.7244094488188977,
                    "duration": 0.29374999999998863
                },
                {
                    "name": "C4",
                    "midi": 60,
                    "time": 283.800000000001,
                    "velocity": 0.7244094488188977,
                    "duration": 0.29374999999998863
                },
                {
                    "name": "D#4",
                    "midi": 63,
                    "time": 283.800000000001,
                    "velocity": 0.7244094488188977,
                    "duration": 0.29374999999998863
                },
                {
                    "name": "C4",
                    "midi": 60,
                    "time": 284.100000000001,
                    "velocity": 0.7244094488188977,
                    "duration": 0.29374999999998863
                },
                {
                    "name": "D#4",
                    "midi": 63,
                    "time": 284.100000000001,
                    "velocity": 0.7244094488188977,
                    "duration": 0.29374999999998863
                },
                {
                    "name": "C4",
                    "midi": 60,
                    "time": 284.400000000001,
                    "velocity": 0.7244094488188977,
                    "duration": 0.29374999999998863
                },
                {
                    "name": "D#4",
                    "midi": 63,
                    "time": 284.400000000001,
                    "velocity": 0.7244094488188977,
                    "duration": 0.29374999999998863
                },
                {
                    "name": "C4",
                    "midi": 60,
                    "time": 284.700000000001,
                    "velocity": 0.7244094488188977,
                    "duration": 0.6000000000000227
                },
                {
                    "name": "D#4",
                    "midi": 63,
                    "time": 284.700000000001,
                    "velocity": 0.7244094488188977,
                    "duration": 0.6000000000000227
                },
                {
                    "name": "D#4",
                    "midi": 63,
                    "time": 285.60000000000105,
                    "velocity": 0.7244094488188977,
                    "duration": 0.6000000000000227
                },
                {
                    "name": "G4",
                    "midi": 67,
                    "time": 285.60000000000105,
                    "velocity": 0.7244094488188977,
                    "duration": 0.6000000000000227
                },
                {
                    "name": "D#3",
                    "midi": 51,
                    "time": 286.35000000000105,
                    "velocity": 0.7244094488188977,
                    "duration": 0.10000000000002274
                },
                {
                    "name": "G3",
                    "midi": 55,
                    "time": 286.35000000000105,
                    "velocity": 0.7244094488188977,
                    "duration": 0.10000000000002274
                },
                {
                    "name": "D#3",
                    "midi": 51,
                    "time": 286.5000000000011,
                    "velocity": 0.7244094488188977,
                    "duration": 0.8999999999999773
                },
                {
                    "name": "G3",
                    "midi": 55,
                    "time": 286.5000000000011,
                    "velocity": 0.7244094488188977,
                    "duration": 0.8999999999999773
                }
            ],
            "controlChanges": {
                "7": [
                    {
                        "number": 7,
                        "time": 0,
                        "value": 0.7637795275590551
                    }
                ],
                "10": [
                    {
                        "number": 10,
                        "time": 0,
                        "value": 0.6692913385826772
                    }
                ],
                "91": [
                    {
                        "number": 91,
                        "time": 0,
                        "value": 0.31496062992125984
                    }
                ]
            },
            "id": 12,
            "name": "gpollen@polleng.freeserve.co.uk",
            "instrumentNumber": 57,
            "instrument": "trombone",
            "instrumentFamily": "brass",
            "channelNumber": 7,
            "isPercussion": false
        },
        {
            "startTime": 15.6,
            "duration": 287.40000000000066,
            "length": 124,
            "notes": [
                {
                    "name": "C3",
                    "midi": 48,
                    "time": 15.6,
                    "velocity": 0.7244094488188977,
                    "duration": 0.5000000000000018
                },
                {
                    "name": "D3",
                    "midi": 50,
                    "time": 16.5,
                    "velocity": 0.7244094488188977,
                    "duration": 0.5
                },
                {
                    "name": "G3",
                    "midi": 55,
                    "time": 17.4,
                    "velocity": 0.7244094488188977,
                    "duration": 0.5
                },
                {
                    "name": "G2",
                    "midi": 43,
                    "time": 18.299999999999997,
                    "velocity": 0.7244094488188977,
                    "duration": 0.5
                },
                {
                    "name": "C3",
                    "midi": 48,
                    "time": 19.199999999999996,
                    "velocity": 0.7244094488188977,
                    "duration": 0.5
                },
                {
                    "name": "F#3",
                    "midi": 54,
                    "time": 20.099999999999994,
                    "velocity": 0.7244094488188977,
                    "duration": 0.5
                },
                {
                    "name": "G3",
                    "midi": 55,
                    "time": 20.999999999999993,
                    "velocity": 0.7244094488188977,
                    "duration": 0.5
                },
                {
                    "name": "G2",
                    "midi": 43,
                    "time": 21.89999999999999,
                    "velocity": 0.7244094488188977,
                    "duration": 0.8999999999999986
                },
                {
                    "name": "C3",
                    "midi": 48,
                    "time": 22.79999999999999,
                    "velocity": 0.7244094488188977,
                    "duration": 0.5
                },
                {
                    "name": "D3",
                    "midi": 50,
                    "time": 23.69999999999999,
                    "velocity": 0.7244094488188977,
                    "duration": 0.5
                },
                {
                    "name": "G3",
                    "midi": 55,
                    "time": 24.599999999999987,
                    "velocity": 0.7244094488188977,
                    "duration": 0.5
                },
                {
                    "name": "G2",
                    "midi": 43,
                    "time": 25.499999999999986,
                    "velocity": 0.7244094488188977,
                    "duration": 0.5
                },
                {
                    "name": "C3",
                    "midi": 48,
                    "time": 26.399999999999984,
                    "velocity": 0.7244094488188977,
                    "duration": 0.2937499999999993
                },
                {
                    "name": "G2",
                    "midi": 43,
                    "time": 27.299999999999983,
                    "velocity": 0.7244094488188977,
                    "duration": 0.2937499999999993
                },
                {
                    "name": "C3",
                    "midi": 48,
                    "time": 28.19999999999998,
                    "velocity": 0.7244094488188977,
                    "duration": 0.6000000000000014
                },
                {
                    "name": "C3",
                    "midi": 48,
                    "time": 43.499999999999986,
                    "velocity": 1,
                    "duration": 0.8999999999999986
                },
                {
                    "name": "C3",
                    "midi": 48,
                    "time": 44.399999999999984,
                    "velocity": 0.47244094488188976,
                    "duration": 0.29375000000000284
                },
                {
                    "name": "A#2",
                    "midi": 46,
                    "time": 47.09999999999999,
                    "velocity": 0.6614173228346457,
                    "duration": 1.1937500000000014
                },
                {
                    "name": "C3",
                    "midi": 48,
                    "time": 77.69999999999999,
                    "velocity": 0.7244094488188977,
                    "duration": 0.5
                },
                {
                    "name": "D3",
                    "midi": 50,
                    "time": 78.6,
                    "velocity": 0.7244094488188977,
                    "duration": 0.5
                },
                {
                    "name": "G3",
                    "midi": 55,
                    "time": 79.5,
                    "velocity": 0.7244094488188977,
                    "duration": 0.5
                },
                {
                    "name": "G2",
                    "midi": 43,
                    "time": 80.4,
                    "velocity": 0.7244094488188977,
                    "duration": 0.5
                },
                {
                    "name": "C3",
                    "midi": 48,
                    "time": 81.30000000000001,
                    "velocity": 0.7244094488188977,
                    "duration": 0.5
                },
                {
                    "name": "F#3",
                    "midi": 54,
                    "time": 82.20000000000002,
                    "velocity": 0.7244094488188977,
                    "duration": 0.5
                },
                {
                    "name": "G3",
                    "midi": 55,
                    "time": 83.10000000000002,
                    "velocity": 0.7244094488188977,
                    "duration": 0.5
                },
                {
                    "name": "G2",
                    "midi": 43,
                    "time": 84.00000000000003,
                    "velocity": 0.7244094488188977,
                    "duration": 0.9000000000000057
                },
                {
                    "name": "C3",
                    "midi": 48,
                    "time": 84.90000000000003,
                    "velocity": 0.7244094488188977,
                    "duration": 0.5
                },
                {
                    "name": "D3",
                    "midi": 50,
                    "time": 85.80000000000004,
                    "velocity": 0.7244094488188977,
                    "duration": 0.5
                },
                {
                    "name": "G3",
                    "midi": 55,
                    "time": 86.70000000000005,
                    "velocity": 0.7244094488188977,
                    "duration": 0.5
                },
                {
                    "name": "G2",
                    "midi": 43,
                    "time": 87.60000000000005,
                    "velocity": 0.7244094488188977,
                    "duration": 0.5
                },
                {
                    "name": "C3",
                    "midi": 48,
                    "time": 88.50000000000006,
                    "velocity": 0.7244094488188977,
                    "duration": 0.29375000000000284
                },
                {
                    "name": "G2",
                    "midi": 43,
                    "time": 89.40000000000006,
                    "velocity": 0.7244094488188977,
                    "duration": 0.29375000000000284
                },
                {
                    "name": "C3",
                    "midi": 48,
                    "time": 90.30000000000007,
                    "velocity": 0.5905511811023622,
                    "duration": 0.9000000000000057
                },
                {
                    "name": "C3",
                    "midi": 48,
                    "time": 91.20000000000007,
                    "velocity": 0.3543307086614173,
                    "duration": 0.5
                },
                {
                    "name": "F3",
                    "midi": 53,
                    "time": 103.80000000000007,
                    "velocity": 0.3543307086614173,
                    "duration": 1.1937499999999943
                },
                {
                    "name": "A3",
                    "midi": 57,
                    "time": 105.60000000000007,
                    "velocity": 0.3543307086614173,
                    "duration": 0.9000000000000057
                },
                {
                    "name": "F3",
                    "midi": 53,
                    "time": 106.50000000000007,
                    "velocity": 0.3543307086614173,
                    "duration": 0.29375000000000284
                },
                {
                    "name": "G#2",
                    "midi": 44,
                    "time": 120.90000000000008,
                    "velocity": 0.5905511811023622,
                    "duration": 0.9000000000000057
                },
                {
                    "name": "G#2",
                    "midi": 44,
                    "time": 122.70000000000009,
                    "velocity": 0.5905511811023622,
                    "duration": 0.9000000000000057
                },
                {
                    "name": "D#3",
                    "midi": 51,
                    "time": 124.5000000000001,
                    "velocity": 0.5905511811023622,
                    "duration": 0.7999999999999972
                },
                {
                    "name": "D#3",
                    "midi": 51,
                    "time": 126.3000000000001,
                    "velocity": 0.5905511811023622,
                    "duration": 0.7999999999999972
                },
                {
                    "name": "G#2",
                    "midi": 44,
                    "time": 128.10000000000008,
                    "velocity": 0.5905511811023622,
                    "duration": 0.8000000000000114
                },
                {
                    "name": "C3",
                    "midi": 48,
                    "time": 129.9000000000001,
                    "velocity": 0.5905511811023622,
                    "duration": 0.8000000000000114
                },
                {
                    "name": "A#2",
                    "midi": 46,
                    "time": 131.7000000000001,
                    "velocity": 0.5905511811023622,
                    "duration": 0.8000000000000114
                },
                {
                    "name": "F3",
                    "midi": 53,
                    "time": 133.5000000000001,
                    "velocity": 0.5905511811023622,
                    "duration": 0.8000000000000114
                },
                {
                    "name": "A#2",
                    "midi": 46,
                    "time": 135.30000000000013,
                    "velocity": 0.5905511811023622,
                    "duration": 0.8000000000000114
                },
                {
                    "name": "A#2",
                    "midi": 46,
                    "time": 137.10000000000014,
                    "velocity": 0.5905511811023622,
                    "duration": 0.8000000000000114
                },
                {
                    "name": "F3",
                    "midi": 53,
                    "time": 138.90000000000015,
                    "velocity": 0.5905511811023622,
                    "duration": 0.8000000000000114
                },
                {
                    "name": "A#2",
                    "midi": 46,
                    "time": 140.70000000000016,
                    "velocity": 0.5905511811023622,
                    "duration": 0.8000000000000114
                },
                {
                    "name": "D#3",
                    "midi": 51,
                    "time": 142.50000000000017,
                    "velocity": 0.5905511811023622,
                    "duration": 0.8000000000000114
                },
                {
                    "name": "G#3",
                    "midi": 56,
                    "time": 144.30000000000018,
                    "velocity": 0.5905511811023622,
                    "duration": 0.8000000000000114
                },
                {
                    "name": "D#3",
                    "midi": 51,
                    "time": 146.1000000000002,
                    "velocity": 0.5905511811023622,
                    "duration": 0.8000000000000114
                },
                {
                    "name": "G#3",
                    "midi": 56,
                    "time": 147.9000000000002,
                    "velocity": 0.5905511811023622,
                    "duration": 0.8000000000000114
                },
                {
                    "name": "G#2",
                    "midi": 44,
                    "time": 149.70000000000022,
                    "velocity": 0.5905511811023622,
                    "duration": 0.8000000000000114
                },
                {
                    "name": "C#3",
                    "midi": 49,
                    "time": 151.50000000000023,
                    "velocity": 0.5905511811023622,
                    "duration": 0.8000000000000114
                },
                {
                    "name": "G#3",
                    "midi": 56,
                    "time": 153.30000000000024,
                    "velocity": 0.5905511811023622,
                    "duration": 0.8000000000000114
                },
                {
                    "name": "B3",
                    "midi": 59,
                    "time": 155.10000000000025,
                    "velocity": 0.5905511811023622,
                    "duration": 0.9000000000000057
                },
                {
                    "name": "G#3",
                    "midi": 56,
                    "time": 156.00000000000026,
                    "velocity": 0.5905511811023622,
                    "duration": 0.8000000000000114
                },
                {
                    "name": "A#3",
                    "midi": 58,
                    "time": 156.90000000000026,
                    "velocity": 0.5905511811023622,
                    "duration": 0.8000000000000114
                },
                {
                    "name": "G#3",
                    "midi": 56,
                    "time": 158.70000000000027,
                    "velocity": 0.5905511811023622,
                    "duration": 0.8000000000000114
                },
                {
                    "name": "D#3",
                    "midi": 51,
                    "time": 160.50000000000028,
                    "velocity": 0.5905511811023622,
                    "duration": 0.9000000000000057
                },
                {
                    "name": "A#2",
                    "midi": 46,
                    "time": 161.4000000000003,
                    "velocity": 0.5905511811023622,
                    "duration": 0.9000000000000057
                },
                {
                    "name": "C3",
                    "midi": 48,
                    "time": 162.3000000000003,
                    "velocity": 0.47244094488188976,
                    "duration": 0.5999999999999943
                },
                {
                    "name": "G2",
                    "midi": 43,
                    "time": 167.7000000000003,
                    "velocity": 0.6614173228346457,
                    "duration": 0.29374999999998863
                },
                {
                    "name": "C3",
                    "midi": 48,
                    "time": 184.8000000000003,
                    "velocity": 0.7244094488188977,
                    "duration": 0.5
                },
                {
                    "name": "D3",
                    "midi": 50,
                    "time": 185.7000000000003,
                    "velocity": 0.7244094488188977,
                    "duration": 0.5
                },
                {
                    "name": "G3",
                    "midi": 55,
                    "time": 186.6000000000003,
                    "velocity": 0.7244094488188977,
                    "duration": 0.5
                },
                {
                    "name": "G2",
                    "midi": 43,
                    "time": 187.5000000000003,
                    "velocity": 0.7244094488188977,
                    "duration": 0.5
                },
                {
                    "name": "C3",
                    "midi": 48,
                    "time": 188.40000000000032,
                    "velocity": 0.7244094488188977,
                    "duration": 0.5
                },
                {
                    "name": "F#3",
                    "midi": 54,
                    "time": 189.30000000000032,
                    "velocity": 0.7244094488188977,
                    "duration": 0.5
                },
                {
                    "name": "G3",
                    "midi": 55,
                    "time": 190.20000000000033,
                    "velocity": 0.7244094488188977,
                    "duration": 0.5
                },
                {
                    "name": "G2",
                    "midi": 43,
                    "time": 191.10000000000034,
                    "velocity": 0.7244094488188977,
                    "duration": 0.9000000000000057
                },
                {
                    "name": "C3",
                    "midi": 48,
                    "time": 192.00000000000034,
                    "velocity": 0.7244094488188977,
                    "duration": 0.5
                },
                {
                    "name": "D3",
                    "midi": 50,
                    "time": 192.90000000000035,
                    "velocity": 0.7244094488188977,
                    "duration": 0.5
                },
                {
                    "name": "G3",
                    "midi": 55,
                    "time": 193.80000000000035,
                    "velocity": 0.7244094488188977,
                    "duration": 0.5
                },
                {
                    "name": "G2",
                    "midi": 43,
                    "time": 194.70000000000036,
                    "velocity": 0.7244094488188977,
                    "duration": 0.5
                },
                {
                    "name": "C3",
                    "midi": 48,
                    "time": 195.60000000000036,
                    "velocity": 0.7244094488188977,
                    "duration": 0.29374999999998863
                },
                {
                    "name": "G2",
                    "midi": 43,
                    "time": 196.50000000000034,
                    "velocity": 0.7244094488188977,
                    "duration": 0.29374999999998863
                },
                {
                    "name": "C3",
                    "midi": 48,
                    "time": 197.40000000000032,
                    "velocity": 0.7244094488188977,
                    "duration": 0.5999999999999943
                },
                {
                    "name": "C3",
                    "midi": 48,
                    "time": 212.7000000000003,
                    "velocity": 1,
                    "duration": 0.9000000000000057
                },
                {
                    "name": "C3",
                    "midi": 48,
                    "time": 213.6000000000003,
                    "velocity": 0.47244094488188976,
                    "duration": 0.29374999999998863
                },
                {
                    "name": "A#2",
                    "midi": 46,
                    "time": 216.3000000000003,
                    "velocity": 0.6614173228346457,
                    "duration": 1.1937499999999943
                },
                {
                    "name": "C3",
                    "midi": 48,
                    "time": 246.9000000000003,
                    "velocity": 0.7244094488188977,
                    "duration": 0.5
                },
                {
                    "name": "D3",
                    "midi": 50,
                    "time": 247.8000000000003,
                    "velocity": 0.7244094488188977,
                    "duration": 0.5
                },
                {
                    "name": "G3",
                    "midi": 55,
                    "time": 248.7000000000003,
                    "velocity": 0.7244094488188977,
                    "duration": 0.5
                },
                {
                    "name": "G2",
                    "midi": 43,
                    "time": 249.6000000000003,
                    "velocity": 0.7244094488188977,
                    "duration": 0.5
                },
                {
                    "name": "C3",
                    "midi": 48,
                    "time": 250.5000000000003,
                    "velocity": 0.7244094488188977,
                    "duration": 0.5
                },
                {
                    "name": "F#3",
                    "midi": 54,
                    "time": 251.40000000000032,
                    "velocity": 0.7244094488188977,
                    "duration": 0.5
                },
                {
                    "name": "G3",
                    "midi": 55,
                    "time": 252.30000000000032,
                    "velocity": 0.7244094488188977,
                    "duration": 0.5
                },
                {
                    "name": "G2",
                    "midi": 43,
                    "time": 253.20000000000033,
                    "velocity": 0.7244094488188977,
                    "duration": 0.9000000000000057
                },
                {
                    "name": "C3",
                    "midi": 48,
                    "time": 254.10000000000034,
                    "velocity": 0.7244094488188977,
                    "duration": 0.5
                },
                {
                    "name": "D3",
                    "midi": 50,
                    "time": 255.00000000000034,
                    "velocity": 0.7244094488188977,
                    "duration": 0.5
                },
                {
                    "name": "G3",
                    "midi": 55,
                    "time": 255.90000000000035,
                    "velocity": 0.7244094488188977,
                    "duration": 0.4999999999999716
                },
                {
                    "name": "G2",
                    "midi": 43,
                    "time": 256.8000000000003,
                    "velocity": 0.7244094488188977,
                    "duration": 0.5
                },
                {
                    "name": "C3",
                    "midi": 48,
                    "time": 257.7000000000003,
                    "velocity": 0.7244094488188977,
                    "duration": 0.29374999999998863
                },
                {
                    "name": "G2",
                    "midi": 43,
                    "time": 258.60000000000025,
                    "velocity": 0.7244094488188977,
                    "duration": 0.29374999999998863
                },
                {
                    "name": "C3",
                    "midi": 48,
                    "time": 259.5000000000002,
                    "velocity": 0.7244094488188977,
                    "duration": 0.6000000000000227
                },
                {
                    "name": "F3",
                    "midi": 53,
                    "time": 264.0000000000002,
                    "velocity": 1,
                    "duration": 0.10000000000002274
                },
                {
                    "name": "G3",
                    "midi": 55,
                    "time": 264.90000000000026,
                    "velocity": 1,
                    "duration": 0.10000000000002274
                },
                {
                    "name": "G2",
                    "midi": 43,
                    "time": 265.8000000000003,
                    "velocity": 1,
                    "duration": 0.10000000000002274
                },
                {
                    "name": "C3",
                    "midi": 48,
                    "time": 266.70000000000033,
                    "velocity": 0.7244094488188977,
                    "duration": 0.6000000000000227
                },
                {
                    "name": "F3",
                    "midi": 53,
                    "time": 271.20000000000033,
                    "velocity": 1,
                    "duration": 0.10000000000002274
                },
                {
                    "name": "G3",
                    "midi": 55,
                    "time": 272.10000000000036,
                    "velocity": 1,
                    "duration": 0.10000000000002274
                },
                {
                    "name": "G2",
                    "midi": 43,
                    "time": 273.0000000000004,
                    "velocity": 1,
                    "duration": 0.10000000000002274
                },
                {
                    "name": "C3",
                    "midi": 48,
                    "time": 273.90000000000043,
                    "velocity": 0.7244094488188977,
                    "duration": 0.6000000000000227
                },
                {
                    "name": "G3",
                    "midi": 55,
                    "time": 280.20000000000044,
                    "velocity": 0.7244094488188977,
                    "duration": 0.29374999999998863
                },
                {
                    "name": "F3",
                    "midi": 53,
                    "time": 280.50000000000045,
                    "velocity": 0.7244094488188977,
                    "duration": 0.29374999999998863
                },
                {
                    "name": "D3",
                    "midi": 50,
                    "time": 280.80000000000047,
                    "velocity": 0.7244094488188977,
                    "duration": 0.29374999999998863
                },
                {
                    "name": "C3",
                    "midi": 48,
                    "time": 281.1000000000005,
                    "velocity": 0.7244094488188977,
                    "duration": 0.29374999999998863
                },
                {
                    "name": "C3",
                    "midi": 48,
                    "time": 281.4000000000005,
                    "velocity": 0.7244094488188977,
                    "duration": 0.29374999999998863
                },
                {
                    "name": "C3",
                    "midi": 48,
                    "time": 281.7000000000005,
                    "velocity": 0.7244094488188977,
                    "duration": 0.29374999999998863
                },
                {
                    "name": "G3",
                    "midi": 55,
                    "time": 282.0000000000005,
                    "velocity": 0.7244094488188977,
                    "duration": 0.29374999999998863
                },
                {
                    "name": "G3",
                    "midi": 55,
                    "time": 282.3000000000005,
                    "velocity": 0.7244094488188977,
                    "duration": 0.29374999999998863
                },
                {
                    "name": "G3",
                    "midi": 55,
                    "time": 282.60000000000053,
                    "velocity": 0.7244094488188977,
                    "duration": 0.29374999999998863
                },
                {
                    "name": "C3",
                    "midi": 48,
                    "time": 282.90000000000055,
                    "velocity": 0.7244094488188977,
                    "duration": 0.29374999999998863
                },
                {
                    "name": "G3",
                    "midi": 55,
                    "time": 283.20000000000056,
                    "velocity": 0.7244094488188977,
                    "duration": 0.29374999999998863
                },
                {
                    "name": "D#3",
                    "midi": 51,
                    "time": 283.50000000000057,
                    "velocity": 0.7244094488188977,
                    "duration": 0.29374999999998863
                },
                {
                    "name": "C3",
                    "midi": 48,
                    "time": 283.8000000000006,
                    "velocity": 0.7244094488188977,
                    "duration": 0.29374999999998863
                },
                {
                    "name": "G3",
                    "midi": 55,
                    "time": 284.1000000000006,
                    "velocity": 0.7244094488188977,
                    "duration": 0.29374999999998863
                },
                {
                    "name": "D#3",
                    "midi": 51,
                    "time": 284.4000000000006,
                    "velocity": 0.7244094488188977,
                    "duration": 0.29374999999998863
                },
                {
                    "name": "C3",
                    "midi": 48,
                    "time": 284.7000000000006,
                    "velocity": 0.7244094488188977,
                    "duration": 0.6000000000000227
                },
                {
                    "name": "C4",
                    "midi": 60,
                    "time": 285.60000000000065,
                    "velocity": 0.7244094488188977,
                    "duration": 0.6000000000000227
                },
                {
                    "name": "C3",
                    "midi": 48,
                    "time": 286.35000000000065,
                    "velocity": 0.7244094488188977,
                    "duration": 0.10000000000002274
                },
                {
                    "name": "C3",
                    "midi": 48,
                    "time": 286.5000000000007,
                    "velocity": 0.7244094488188977,
                    "duration": 0.8999999999999773
                }
            ],
            "controlChanges": {
                "7": [
                    {
                        "number": 7,
                        "time": 0,
                        "value": 0.7637795275590551
                    }
                ],
                "10": [
                    {
                        "number": 10,
                        "time": 0,
                        "value": 0.6692913385826772
                    }
                ],
                "91": [
                    {
                        "number": 91,
                        "time": 0,
                        "value": 0.31496062992125984
                    }
                ]
            },
            "id": 13,
            "instrumentNumber": 57,
            "instrument": "trombone",
            "instrumentFamily": "brass",
            "channelNumber": 7,
            "isPercussion": false
        },
        {
            "startTime": 1.2,
            "duration": 287.40000000000026,
            "length": 340,
            "notes": [
                {
                    "name": "C2",
                    "midi": 36,
                    "time": 1.2,
                    "velocity": 0.3543307086614173,
                    "duration": 0.10000000000000009
                },
                {
                    "name": "C2",
                    "midi": 36,
                    "time": 1.5,
                    "velocity": 0.3543307086614173,
                    "duration": 0.10000000000000009
                },
                {
                    "name": "D2",
                    "midi": 38,
                    "time": 2.1,
                    "velocity": 0.3543307086614173,
                    "duration": 0.10000000000000009
                },
                {
                    "name": "D2",
                    "midi": 38,
                    "time": 2.4000000000000004,
                    "velocity": 0.3543307086614173,
                    "duration": 0.10000000000000009
                },
                {
                    "name": "G2",
                    "midi": 43,
                    "time": 3.0000000000000004,
                    "velocity": 0.3543307086614173,
                    "duration": 0.10000000000000009
                },
                {
                    "name": "G2",
                    "midi": 43,
                    "time": 3.3000000000000007,
                    "velocity": 0.3543307086614173,
                    "duration": 0.10000000000000009
                },
                {
                    "name": "G2",
                    "midi": 43,
                    "time": 3.900000000000001,
                    "velocity": 0.3543307086614173,
                    "duration": 0.10000000000000009
                },
                {
                    "name": "G2",
                    "midi": 43,
                    "time": 4.200000000000001,
                    "velocity": 0.3543307086614173,
                    "duration": 0.09999999999999964
                },
                {
                    "name": "C2",
                    "midi": 36,
                    "time": 4.800000000000001,
                    "velocity": 0.3543307086614173,
                    "duration": 0.09999999999999964
                },
                {
                    "name": "C2",
                    "midi": 36,
                    "time": 5.1000000000000005,
                    "velocity": 0.3543307086614173,
                    "duration": 0.09999999999999964
                },
                {
                    "name": "F#2",
                    "midi": 42,
                    "time": 5.7,
                    "velocity": 0.3543307086614173,
                    "duration": 0.09999999999999964
                },
                {
                    "name": "F#2",
                    "midi": 42,
                    "time": 6,
                    "velocity": 0.3543307086614173,
                    "duration": 0.09999999999999964
                },
                {
                    "name": "G2",
                    "midi": 43,
                    "time": 6.6,
                    "velocity": 0.3543307086614173,
                    "duration": 0.5
                },
                {
                    "name": "G2",
                    "midi": 43,
                    "time": 7.5,
                    "velocity": 0.3543307086614173,
                    "duration": 0.9000000000000004
                },
                {
                    "name": "C2",
                    "midi": 36,
                    "time": 8.4,
                    "velocity": 0.3543307086614173,
                    "duration": 0.09999999999999964
                },
                {
                    "name": "C2",
                    "midi": 36,
                    "time": 8.7,
                    "velocity": 0.3543307086614173,
                    "duration": 0.09999999999999964
                },
                {
                    "name": "D2",
                    "midi": 38,
                    "time": 9.299999999999999,
                    "velocity": 0.3543307086614173,
                    "duration": 0.09999999999999964
                },
                {
                    "name": "D2",
                    "midi": 38,
                    "time": 9.599999999999998,
                    "velocity": 0.3543307086614173,
                    "duration": 0.09999999999999964
                },
                {
                    "name": "G2",
                    "midi": 43,
                    "time": 10.199999999999998,
                    "velocity": 0.3543307086614173,
                    "duration": 0.09999999999999964
                },
                {
                    "name": "G2",
                    "midi": 43,
                    "time": 10.499999999999996,
                    "velocity": 0.3543307086614173,
                    "duration": 0.09999999999999964
                },
                {
                    "name": "G2",
                    "midi": 43,
                    "time": 11.099999999999996,
                    "velocity": 0.3543307086614173,
                    "duration": 0.09999999999999964
                },
                {
                    "name": "G2",
                    "midi": 43,
                    "time": 11.399999999999995,
                    "velocity": 0.3543307086614173,
                    "duration": 0.09999999999999964
                },
                {
                    "name": "C2",
                    "midi": 36,
                    "time": 11.999999999999995,
                    "velocity": 0.3543307086614173,
                    "duration": 0.09999999999999964
                },
                {
                    "name": "G2",
                    "midi": 43,
                    "time": 12.899999999999995,
                    "velocity": 0.3543307086614173,
                    "duration": 0.09999999999999964
                },
                {
                    "name": "C2",
                    "midi": 36,
                    "time": 13.799999999999995,
                    "velocity": 0.3543307086614173,
                    "duration": 0.5999999999999996
                },
                {
                    "name": "C2",
                    "midi": 36,
                    "time": 15.599999999999994,
                    "velocity": 0.7244094488188977,
                    "duration": 0.5
                },
                {
                    "name": "D2",
                    "midi": 38,
                    "time": 16.499999999999993,
                    "velocity": 0.7244094488188977,
                    "duration": 0.5
                },
                {
                    "name": "G2",
                    "midi": 43,
                    "time": 17.39999999999999,
                    "velocity": 0.7244094488188977,
                    "duration": 0.5
                },
                {
                    "name": "G2",
                    "midi": 43,
                    "time": 18.29999999999999,
                    "velocity": 0.7244094488188977,
                    "duration": 0.5
                },
                {
                    "name": "C2",
                    "midi": 36,
                    "time": 19.19999999999999,
                    "velocity": 0.7244094488188977,
                    "duration": 0.5
                },
                {
                    "name": "F#2",
                    "midi": 42,
                    "time": 20.099999999999987,
                    "velocity": 0.7244094488188977,
                    "duration": 0.5
                },
                {
                    "name": "G2",
                    "midi": 43,
                    "time": 20.999999999999986,
                    "velocity": 0.7244094488188977,
                    "duration": 0.5
                },
                {
                    "name": "G2",
                    "midi": 43,
                    "time": 21.899999999999984,
                    "velocity": 0.7244094488188977,
                    "duration": 0.8999999999999986
                },
                {
                    "name": "C2",
                    "midi": 36,
                    "time": 22.799999999999983,
                    "velocity": 0.7244094488188977,
                    "duration": 0.5
                },
                {
                    "name": "D2",
                    "midi": 38,
                    "time": 23.69999999999998,
                    "velocity": 0.7244094488188977,
                    "duration": 0.5
                },
                {
                    "name": "G2",
                    "midi": 43,
                    "time": 24.59999999999998,
                    "velocity": 0.7244094488188977,
                    "duration": 0.5
                },
                {
                    "name": "G2",
                    "midi": 43,
                    "time": 25.49999999999998,
                    "velocity": 0.7244094488188977,
                    "duration": 0.5
                },
                {
                    "name": "C2",
                    "midi": 36,
                    "time": 26.399999999999977,
                    "velocity": 0.7244094488188977,
                    "duration": 0.2937499999999993
                },
                {
                    "name": "G2",
                    "midi": 43,
                    "time": 27.299999999999976,
                    "velocity": 0.7244094488188977,
                    "duration": 0.2937499999999993
                },
                {
                    "name": "C2",
                    "midi": 36,
                    "time": 28.199999999999974,
                    "velocity": 0.7244094488188977,
                    "duration": 0.6000000000000014
                },
                {
                    "name": "D#2",
                    "midi": 39,
                    "time": 29.999999999999975,
                    "velocity": 0.3543307086614173,
                    "duration": 0.6000000000000014
                },
                {
                    "name": "A#1",
                    "midi": 34,
                    "time": 30.899999999999977,
                    "velocity": 0.3543307086614173,
                    "duration": 0.6000000000000014
                },
                {
                    "name": "D#2",
                    "midi": 39,
                    "time": 31.79999999999998,
                    "velocity": 0.3543307086614173,
                    "duration": 0.5999999999999979
                },
                {
                    "name": "G2",
                    "midi": 43,
                    "time": 33.59999999999998,
                    "velocity": 0.3543307086614173,
                    "duration": 0.6000000000000014
                },
                {
                    "name": "D2",
                    "midi": 38,
                    "time": 34.49999999999998,
                    "velocity": 0.3543307086614173,
                    "duration": 0.6000000000000014
                },
                {
                    "name": "G2",
                    "midi": 43,
                    "time": 35.39999999999998,
                    "velocity": 0.3543307086614173,
                    "duration": 0.6000000000000014
                },
                {
                    "name": "A#2",
                    "midi": 46,
                    "time": 37.19999999999998,
                    "velocity": 0.3543307086614173,
                    "duration": 0.6000000000000014
                },
                {
                    "name": "F2",
                    "midi": 41,
                    "time": 38.09999999999998,
                    "velocity": 0.3543307086614173,
                    "duration": 0.6000000000000014
                },
                {
                    "name": "A#1",
                    "midi": 34,
                    "time": 38.99999999999998,
                    "velocity": 0.3543307086614173,
                    "duration": 0.8999999999999986
                },
                {
                    "name": "D#2",
                    "midi": 39,
                    "time": 39.89999999999998,
                    "velocity": 0.3543307086614173,
                    "duration": 0.8999999999999986
                },
                {
                    "name": "A#1",
                    "midi": 34,
                    "time": 40.799999999999976,
                    "velocity": 0.3543307086614173,
                    "duration": 0.8999999999999986
                },
                {
                    "name": "F2",
                    "midi": 41,
                    "time": 41.699999999999974,
                    "velocity": 0.3543307086614173,
                    "duration": 0.8999999999999986
                },
                {
                    "name": "A#1",
                    "midi": 34,
                    "time": 42.59999999999997,
                    "velocity": 0.3543307086614173,
                    "duration": 0.6000000000000014
                },
                {
                    "name": "G2",
                    "midi": 43,
                    "time": 43.199999999999974,
                    "velocity": 0.3543307086614173,
                    "duration": 0.29375000000000284
                },
                {
                    "name": "C2",
                    "midi": 36,
                    "time": 43.49999999999998,
                    "velocity": 0.49606299212598426,
                    "duration": 0.7999999999999972
                },
                {
                    "name": "G#2",
                    "midi": 44,
                    "time": 44.39999999999998,
                    "velocity": 0.47244094488188976,
                    "duration": 0.5
                },
                {
                    "name": "C2",
                    "midi": 36,
                    "time": 45.299999999999976,
                    "velocity": 0.47244094488188976,
                    "duration": 0.5
                },
                {
                    "name": "F2",
                    "midi": 41,
                    "time": 46.199999999999974,
                    "velocity": 0.47244094488188976,
                    "duration": 0.5
                },
                {
                    "name": "A#1",
                    "midi": 34,
                    "time": 47.09999999999997,
                    "velocity": 0.6614173228346457,
                    "duration": 0.7999999999999972
                },
                {
                    "name": "D2",
                    "midi": 38,
                    "time": 47.99999999999997,
                    "velocity": 0.47244094488188976,
                    "duration": 0.6000000000000014
                },
                {
                    "name": "A#1",
                    "midi": 34,
                    "time": 48.89999999999997,
                    "velocity": 0.47244094488188976,
                    "duration": 0.6000000000000014
                },
                {
                    "name": "D#2",
                    "midi": 39,
                    "time": 49.79999999999997,
                    "velocity": 0.47244094488188976,
                    "duration": 0.6000000000000014
                },
                {
                    "name": "G2",
                    "midi": 43,
                    "time": 54.29999999999997,
                    "velocity": 0.3543307086614173,
                    "duration": 0.10000000000000142
                },
                {
                    "name": "G2",
                    "midi": 43,
                    "time": 54.59999999999997,
                    "velocity": 0.3543307086614173,
                    "duration": 0.10000000000000142
                },
                {
                    "name": "C3",
                    "midi": 48,
                    "time": 55.199999999999974,
                    "velocity": 0.3543307086614173,
                    "duration": 0.10000000000000142
                },
                {
                    "name": "C3",
                    "midi": 48,
                    "time": 55.49999999999998,
                    "velocity": 0.3543307086614173,
                    "duration": 0.10000000000000142
                },
                {
                    "name": "G#2",
                    "midi": 44,
                    "time": 56.09999999999998,
                    "velocity": 0.3543307086614173,
                    "duration": 0.10000000000000142
                },
                {
                    "name": "G#2",
                    "midi": 44,
                    "time": 56.399999999999984,
                    "velocity": 0.3543307086614173,
                    "duration": 0.10000000000000142
                },
                {
                    "name": "G2",
                    "midi": 43,
                    "time": 56.999999999999986,
                    "velocity": 0.3543307086614173,
                    "duration": 0.6000000000000014
                },
                {
                    "name": "G3",
                    "midi": 55,
                    "time": 60.59999999999999,
                    "velocity": 0.3543307086614173,
                    "duration": 0.10000000000000142
                },
                {
                    "name": "G3",
                    "midi": 55,
                    "time": 60.89999999999999,
                    "velocity": 0.3543307086614173,
                    "duration": 0.10000000000000142
                },
                {
                    "name": "G3",
                    "midi": 55,
                    "time": 61.199999999999996,
                    "velocity": 0.3543307086614173,
                    "duration": 0.10000000000000142
                },
                {
                    "name": "G2",
                    "midi": 43,
                    "time": 61.5,
                    "velocity": 0.3543307086614173,
                    "duration": 0.10000000000000142
                },
                {
                    "name": "G2",
                    "midi": 43,
                    "time": 61.800000000000004,
                    "velocity": 0.3543307086614173,
                    "duration": 0.10000000000000142
                },
                {
                    "name": "G2",
                    "midi": 43,
                    "time": 62.10000000000001,
                    "velocity": 0.3543307086614173,
                    "duration": 0.10000000000000142
                },
                {
                    "name": "C2",
                    "midi": 36,
                    "time": 63.30000000000001,
                    "velocity": 0.3543307086614173,
                    "duration": 0.10000000000000142
                },
                {
                    "name": "C2",
                    "midi": 36,
                    "time": 63.600000000000016,
                    "velocity": 0.3543307086614173,
                    "duration": 0.10000000000000142
                },
                {
                    "name": "D2",
                    "midi": 38,
                    "time": 64.20000000000002,
                    "velocity": 0.3543307086614173,
                    "duration": 0.09999999999999432
                },
                {
                    "name": "D2",
                    "midi": 38,
                    "time": 64.50000000000001,
                    "velocity": 0.3543307086614173,
                    "duration": 0.09999999999999432
                },
                {
                    "name": "G2",
                    "midi": 43,
                    "time": 65.10000000000001,
                    "velocity": 0.3543307086614173,
                    "duration": 0.09999999999999432
                },
                {
                    "name": "G2",
                    "midi": 43,
                    "time": 65.4,
                    "velocity": 0.3543307086614173,
                    "duration": 0.09999999999999432
                },
                {
                    "name": "G2",
                    "midi": 43,
                    "time": 66,
                    "velocity": 0.3543307086614173,
                    "duration": 0.09999999999999432
                },
                {
                    "name": "G2",
                    "midi": 43,
                    "time": 66.3,
                    "velocity": 0.3543307086614173,
                    "duration": 0.09999999999999432
                },
                {
                    "name": "C2",
                    "midi": 36,
                    "time": 66.89999999999999,
                    "velocity": 0.3543307086614173,
                    "duration": 0.09999999999999432
                },
                {
                    "name": "C2",
                    "midi": 36,
                    "time": 67.19999999999999,
                    "velocity": 0.3543307086614173,
                    "duration": 0.09999999999999432
                },
                {
                    "name": "F#2",
                    "midi": 42,
                    "time": 67.79999999999998,
                    "velocity": 0.3543307086614173,
                    "duration": 0.09999999999999432
                },
                {
                    "name": "F#2",
                    "midi": 42,
                    "time": 68.09999999999998,
                    "velocity": 0.3543307086614173,
                    "duration": 0.09999999999999432
                },
                {
                    "name": "G2",
                    "midi": 43,
                    "time": 68.69999999999997,
                    "velocity": 0.3543307086614173,
                    "duration": 0.5999999999999943
                },
                {
                    "name": "G2",
                    "midi": 43,
                    "time": 69.59999999999997,
                    "velocity": 0.49606299212598426,
                    "duration": 0.9000000000000057
                },
                {
                    "name": "C2",
                    "midi": 36,
                    "time": 70.49999999999997,
                    "velocity": 0.3543307086614173,
                    "duration": 0.09999999999999432
                },
                {
                    "name": "C2",
                    "midi": 36,
                    "time": 70.79999999999997,
                    "velocity": 0.3543307086614173,
                    "duration": 0.09999999999999432
                },
                {
                    "name": "C2",
                    "midi": 36,
                    "time": 71.39999999999996,
                    "velocity": 0.3543307086614173,
                    "duration": 0.09999999999999432
                },
                {
                    "name": "C2",
                    "midi": 36,
                    "time": 71.69999999999996,
                    "velocity": 0.3543307086614173,
                    "duration": 0.09999999999999432
                },
                {
                    "name": "F2",
                    "midi": 41,
                    "time": 72.29999999999995,
                    "velocity": 0.3543307086614173,
                    "duration": 0.09999999999999432
                },
                {
                    "name": "F2",
                    "midi": 41,
                    "time": 72.59999999999995,
                    "velocity": 0.3543307086614173,
                    "duration": 0.09999999999999432
                },
                {
                    "name": "F2",
                    "midi": 41,
                    "time": 73.19999999999995,
                    "velocity": 0.3543307086614173,
                    "duration": 0.09999999999999432
                },
                {
                    "name": "F2",
                    "midi": 41,
                    "time": 73.49999999999994,
                    "velocity": 0.3543307086614173,
                    "duration": 0.09999999999999432
                },
                {
                    "name": "C2",
                    "midi": 36,
                    "time": 74.09999999999994,
                    "velocity": 0.3543307086614173,
                    "duration": 0.09999999999999432
                },
                {
                    "name": "G2",
                    "midi": 43,
                    "time": 74.99999999999993,
                    "velocity": 0.3543307086614173,
                    "duration": 0.09999999999999432
                },
                {
                    "name": "C2",
                    "midi": 36,
                    "time": 75.89999999999992,
                    "velocity": 0.3543307086614173,
                    "duration": 0.5999999999999943
                },
                {
                    "name": "C2",
                    "midi": 36,
                    "time": 77.69999999999992,
                    "velocity": 0.7244094488188977,
                    "duration": 0.5
                },
                {
                    "name": "D2",
                    "midi": 38,
                    "time": 78.59999999999992,
                    "velocity": 0.7244094488188977,
                    "duration": 0.5
                },
                {
                    "name": "G2",
                    "midi": 43,
                    "time": 79.49999999999993,
                    "velocity": 0.7244094488188977,
                    "duration": 0.5
                },
                {
                    "name": "G2",
                    "midi": 43,
                    "time": 80.39999999999993,
                    "velocity": 0.7244094488188977,
                    "duration": 0.5
                },
                {
                    "name": "C2",
                    "midi": 36,
                    "time": 81.29999999999994,
                    "velocity": 0.7244094488188977,
                    "duration": 0.5
                },
                {
                    "name": "F#2",
                    "midi": 42,
                    "time": 82.19999999999995,
                    "velocity": 0.7244094488188977,
                    "duration": 0.5
                },
                {
                    "name": "G2",
                    "midi": 43,
                    "time": 83.09999999999995,
                    "velocity": 0.7244094488188977,
                    "duration": 0.9000000000000057
                },
                {
                    "name": "G2",
                    "midi": 43,
                    "time": 83.99999999999996,
                    "velocity": 0.7244094488188977,
                    "duration": 0.5999999999999943
                },
                {
                    "name": "C2",
                    "midi": 36,
                    "time": 84.89999999999995,
                    "velocity": 0.7244094488188977,
                    "duration": 0.5
                },
                {
                    "name": "D2",
                    "midi": 38,
                    "time": 85.79999999999995,
                    "velocity": 0.7244094488188977,
                    "duration": 0.5
                },
                {
                    "name": "G2",
                    "midi": 43,
                    "time": 86.69999999999996,
                    "velocity": 0.7244094488188977,
                    "duration": 0.5
                },
                {
                    "name": "G2",
                    "midi": 43,
                    "time": 87.59999999999997,
                    "velocity": 0.7244094488188977,
                    "duration": 0.5
                },
                {
                    "name": "C2",
                    "midi": 36,
                    "time": 88.49999999999997,
                    "velocity": 0.7244094488188977,
                    "duration": 0.29375000000000284
                },
                {
                    "name": "G2",
                    "midi": 43,
                    "time": 89.39999999999998,
                    "velocity": 0.7244094488188977,
                    "duration": 0.29375000000000284
                },
                {
                    "name": "C2",
                    "midi": 36,
                    "time": 90.29999999999998,
                    "velocity": 0.5905511811023622,
                    "duration": 0.9000000000000057
                },
                {
                    "name": "C2",
                    "midi": 36,
                    "time": 91.19999999999999,
                    "velocity": 0.3543307086614173,
                    "duration": 0.5
                },
                {
                    "name": "G#2",
                    "midi": 44,
                    "time": 92.1,
                    "velocity": 0.3543307086614173,
                    "duration": 0.5
                },
                {
                    "name": "G#2",
                    "midi": 44,
                    "time": 93.89999999999999,
                    "velocity": 0.3543307086614173,
                    "duration": 0.5
                },
                {
                    "name": "D#2",
                    "midi": 39,
                    "time": 95.69999999999999,
                    "velocity": 0.3543307086614173,
                    "duration": 0.5
                },
                {
                    "name": "D#2",
                    "midi": 39,
                    "time": 97.49999999999999,
                    "velocity": 0.3543307086614173,
                    "duration": 0.5
                },
                {
                    "name": "G#2",
                    "midi": 44,
                    "time": 99.29999999999998,
                    "velocity": 0.3543307086614173,
                    "duration": 0.5
                },
                {
                    "name": "C3",
                    "midi": 48,
                    "time": 101.09999999999998,
                    "velocity": 0.3543307086614173,
                    "duration": 0.5
                },
                {
                    "name": "A#2",
                    "midi": 46,
                    "time": 102.89999999999998,
                    "velocity": 0.3543307086614173,
                    "duration": 0.5
                },
                {
                    "name": "F2",
                    "midi": 41,
                    "time": 104.69999999999997,
                    "velocity": 0.3543307086614173,
                    "duration": 0.5
                },
                {
                    "name": "A#2",
                    "midi": 46,
                    "time": 106.49999999999997,
                    "velocity": 0.3543307086614173,
                    "duration": 0.5
                },
                {
                    "name": "A#2",
                    "midi": 46,
                    "time": 108.29999999999997,
                    "velocity": 0.3543307086614173,
                    "duration": 0.5
                },
                {
                    "name": "D#2",
                    "midi": 39,
                    "time": 110.09999999999997,
                    "velocity": 0.3543307086614173,
                    "duration": 0.5
                },
                {
                    "name": "G#2",
                    "midi": 44,
                    "time": 111.89999999999996,
                    "velocity": 0.3543307086614173,
                    "duration": 0.5
                },
                {
                    "name": "D#2",
                    "midi": 39,
                    "time": 113.69999999999996,
                    "velocity": 0.3543307086614173,
                    "duration": 0.9000000000000057
                },
                {
                    "name": "A#2",
                    "midi": 46,
                    "time": 115.49999999999997,
                    "velocity": 0.3543307086614173,
                    "duration": 0.9000000000000057
                },
                {
                    "name": "D#2",
                    "midi": 39,
                    "time": 117.29999999999998,
                    "velocity": 0.3543307086614173,
                    "duration": 2.09375
                },
                {
                    "name": "G#2",
                    "midi": 44,
                    "time": 120.89999999999998,
                    "velocity": 0.5905511811023622,
                    "duration": 0.7999999999999972
                },
                {
                    "name": "G#2",
                    "midi": 44,
                    "time": 122.69999999999997,
                    "velocity": 0.5905511811023622,
                    "duration": 0.7999999999999972
                },
                {
                    "name": "D#2",
                    "midi": 39,
                    "time": 124.49999999999997,
                    "velocity": 0.5905511811023622,
                    "duration": 0.7999999999999972
                },
                {
                    "name": "D#2",
                    "midi": 39,
                    "time": 126.29999999999997,
                    "velocity": 0.5905511811023622,
                    "duration": 0.7999999999999972
                },
                {
                    "name": "G#2",
                    "midi": 44,
                    "time": 128.09999999999997,
                    "velocity": 0.5905511811023622,
                    "duration": 0.8000000000000114
                },
                {
                    "name": "C2",
                    "midi": 36,
                    "time": 129.89999999999998,
                    "velocity": 0.5905511811023622,
                    "duration": 0.8000000000000114
                },
                {
                    "name": "A#1",
                    "midi": 34,
                    "time": 131.7,
                    "velocity": 0.5905511811023622,
                    "duration": 0.8000000000000114
                },
                {
                    "name": "F2",
                    "midi": 41,
                    "time": 133.5,
                    "velocity": 0.5905511811023622,
                    "duration": 0.8000000000000114
                },
                {
                    "name": "A#2",
                    "midi": 46,
                    "time": 135.3,
                    "velocity": 0.5905511811023622,
                    "duration": 0.8000000000000114
                },
                {
                    "name": "A#1",
                    "midi": 34,
                    "time": 137.10000000000002,
                    "velocity": 0.5905511811023622,
                    "duration": 0.8000000000000114
                },
                {
                    "name": "F2",
                    "midi": 41,
                    "time": 138.90000000000003,
                    "velocity": 0.5905511811023622,
                    "duration": 0.8000000000000114
                },
                {
                    "name": "A#2",
                    "midi": 46,
                    "time": 140.70000000000005,
                    "velocity": 0.5905511811023622,
                    "duration": 0.8000000000000114
                },
                {
                    "name": "D#2",
                    "midi": 39,
                    "time": 142.50000000000006,
                    "velocity": 0.5905511811023622,
                    "duration": 0.8000000000000114
                },
                {
                    "name": "G#2",
                    "midi": 44,
                    "time": 144.30000000000007,
                    "velocity": 0.5905511811023622,
                    "duration": 0.8000000000000114
                },
                {
                    "name": "D#2",
                    "midi": 39,
                    "time": 146.10000000000008,
                    "velocity": 0.5905511811023622,
                    "duration": 0.8000000000000114
                },
                {
                    "name": "G#2",
                    "midi": 44,
                    "time": 147.9000000000001,
                    "velocity": 0.5905511811023622,
                    "duration": 0.8000000000000114
                },
                {
                    "name": "G#2",
                    "midi": 44,
                    "time": 149.7000000000001,
                    "velocity": 0.5905511811023622,
                    "duration": 0.8000000000000114
                },
                {
                    "name": "C#2",
                    "midi": 37,
                    "time": 151.5000000000001,
                    "velocity": 0.5905511811023622,
                    "duration": 0.8000000000000114
                },
                {
                    "name": "G#2",
                    "midi": 44,
                    "time": 153.30000000000013,
                    "velocity": 0.5905511811023622,
                    "duration": 0.8000000000000114
                },
                {
                    "name": "B2",
                    "midi": 47,
                    "time": 155.10000000000014,
                    "velocity": 0.5905511811023622,
                    "duration": 0.9000000000000057
                },
                {
                    "name": "G#2",
                    "midi": 44,
                    "time": 156.00000000000014,
                    "velocity": 0.5905511811023622,
                    "duration": 0.8000000000000114
                },
                {
                    "name": "A#2",
                    "midi": 46,
                    "time": 156.90000000000015,
                    "velocity": 0.5905511811023622,
                    "duration": 0.8000000000000114
                },
                {
                    "name": "G#2",
                    "midi": 44,
                    "time": 158.70000000000016,
                    "velocity": 0.5905511811023622,
                    "duration": 0.8000000000000114
                },
                {
                    "name": "D#2",
                    "midi": 39,
                    "time": 160.50000000000017,
                    "velocity": 0.5905511811023622,
                    "duration": 0.9000000000000057
                },
                {
                    "name": "A#1",
                    "midi": 34,
                    "time": 161.40000000000018,
                    "velocity": 0.5905511811023622,
                    "duration": 0.9000000000000057
                },
                {
                    "name": "C2",
                    "midi": 36,
                    "time": 162.30000000000018,
                    "velocity": 0.47244094488188976,
                    "duration": 0.5999999999999943
                },
                {
                    "name": "C2",
                    "midi": 36,
                    "time": 166.80000000000018,
                    "velocity": 0.47244094488188976,
                    "duration": 0.15000000000000568
                },
                {
                    "name": "B1",
                    "midi": 35,
                    "time": 166.9500000000002,
                    "velocity": 0.47244094488188976,
                    "duration": 0.09999999999999432
                },
                {
                    "name": "C2",
                    "midi": 36,
                    "time": 167.1000000000002,
                    "velocity": 0.47244094488188976,
                    "duration": 0.09999999999999432
                },
                {
                    "name": "D2",
                    "midi": 38,
                    "time": 167.2500000000002,
                    "velocity": 0.47244094488188976,
                    "duration": 0.09999999999999432
                },
                {
                    "name": "E2",
                    "midi": 40,
                    "time": 167.4000000000002,
                    "velocity": 0.47244094488188976,
                    "duration": 0.09999999999999432
                },
                {
                    "name": "F2",
                    "midi": 41,
                    "time": 167.5500000000002,
                    "velocity": 0.47244094488188976,
                    "duration": 0.09999999999999432
                },
                {
                    "name": "G1",
                    "midi": 31,
                    "time": 167.70000000000022,
                    "velocity": 0.6614173228346457,
                    "duration": 0.29374999999998863
                },
                {
                    "name": "C2",
                    "midi": 36,
                    "time": 170.4000000000002,
                    "velocity": 0.3543307086614173,
                    "duration": 0.09999999999999432
                },
                {
                    "name": "C2",
                    "midi": 36,
                    "time": 170.7000000000002,
                    "velocity": 0.3543307086614173,
                    "duration": 0.09999999999999432
                },
                {
                    "name": "D2",
                    "midi": 38,
                    "time": 171.30000000000018,
                    "velocity": 0.3543307086614173,
                    "duration": 0.09999999999999432
                },
                {
                    "name": "D2",
                    "midi": 38,
                    "time": 171.60000000000016,
                    "velocity": 0.3543307086614173,
                    "duration": 0.09999999999999432
                },
                {
                    "name": "G2",
                    "midi": 43,
                    "time": 172.20000000000016,
                    "velocity": 0.3543307086614173,
                    "duration": 0.09999999999999432
                },
                {
                    "name": "G2",
                    "midi": 43,
                    "time": 172.50000000000014,
                    "velocity": 0.3543307086614173,
                    "duration": 0.09999999999999432
                },
                {
                    "name": "G2",
                    "midi": 43,
                    "time": 173.10000000000014,
                    "velocity": 0.3543307086614173,
                    "duration": 0.09999999999999432
                },
                {
                    "name": "G2",
                    "midi": 43,
                    "time": 173.40000000000012,
                    "velocity": 0.3543307086614173,
                    "duration": 0.09999999999999432
                },
                {
                    "name": "C2",
                    "midi": 36,
                    "time": 174.0000000000001,
                    "velocity": 0.3543307086614173,
                    "duration": 0.09999999999999432
                },
                {
                    "name": "C2",
                    "midi": 36,
                    "time": 174.3000000000001,
                    "velocity": 0.3543307086614173,
                    "duration": 0.09999999999999432
                },
                {
                    "name": "F#2",
                    "midi": 42,
                    "time": 174.9000000000001,
                    "velocity": 0.3543307086614173,
                    "duration": 0.09999999999999432
                },
                {
                    "name": "F#2",
                    "midi": 42,
                    "time": 175.20000000000007,
                    "velocity": 0.3543307086614173,
                    "duration": 0.09999999999999432
                },
                {
                    "name": "G2",
                    "midi": 43,
                    "time": 175.80000000000007,
                    "velocity": 0.3543307086614173,
                    "duration": 0.5
                },
                {
                    "name": "G2",
                    "midi": 43,
                    "time": 176.70000000000007,
                    "velocity": 0.3543307086614173,
                    "duration": 0.9000000000000057
                },
                {
                    "name": "C2",
                    "midi": 36,
                    "time": 177.60000000000008,
                    "velocity": 0.3543307086614173,
                    "duration": 0.09999999999999432
                },
                {
                    "name": "C2",
                    "midi": 36,
                    "time": 177.90000000000006,
                    "velocity": 0.3543307086614173,
                    "duration": 0.09999999999999432
                },
                {
                    "name": "D2",
                    "midi": 38,
                    "time": 178.50000000000006,
                    "velocity": 0.3543307086614173,
                    "duration": 0.09999999999999432
                },
                {
                    "name": "D2",
                    "midi": 38,
                    "time": 178.80000000000004,
                    "velocity": 0.3543307086614173,
                    "duration": 0.09999999999999432
                },
                {
                    "name": "G2",
                    "midi": 43,
                    "time": 179.40000000000003,
                    "velocity": 0.3543307086614173,
                    "duration": 0.09999999999999432
                },
                {
                    "name": "G2",
                    "midi": 43,
                    "time": 179.70000000000002,
                    "velocity": 0.3543307086614173,
                    "duration": 0.09999999999999432
                },
                {
                    "name": "G2",
                    "midi": 43,
                    "time": 180.3,
                    "velocity": 0.3543307086614173,
                    "duration": 0.09999999999999432
                },
                {
                    "name": "G2",
                    "midi": 43,
                    "time": 180.6,
                    "velocity": 0.3543307086614173,
                    "duration": 0.09999999999999432
                },
                {
                    "name": "C2",
                    "midi": 36,
                    "time": 181.2,
                    "velocity": 0.3543307086614173,
                    "duration": 0.09999999999999432
                },
                {
                    "name": "G2",
                    "midi": 43,
                    "time": 182.1,
                    "velocity": 0.3543307086614173,
                    "duration": 0.09999999999999432
                },
                {
                    "name": "C2",
                    "midi": 36,
                    "time": 183,
                    "velocity": 0.3543307086614173,
                    "duration": 0.5999999999999943
                },
                {
                    "name": "C2",
                    "midi": 36,
                    "time": 184.79999999999998,
                    "velocity": 0.7244094488188977,
                    "duration": 0.5
                },
                {
                    "name": "D2",
                    "midi": 38,
                    "time": 185.7,
                    "velocity": 0.7244094488188977,
                    "duration": 0.5
                },
                {
                    "name": "G2",
                    "midi": 43,
                    "time": 186.6,
                    "velocity": 0.7244094488188977,
                    "duration": 0.5
                },
                {
                    "name": "G2",
                    "midi": 43,
                    "time": 187.5,
                    "velocity": 0.7244094488188977,
                    "duration": 0.5
                },
                {
                    "name": "C2",
                    "midi": 36,
                    "time": 188.4,
                    "velocity": 0.7244094488188977,
                    "duration": 0.5
                },
                {
                    "name": "F#2",
                    "midi": 42,
                    "time": 189.3,
                    "velocity": 0.7244094488188977,
                    "duration": 0.5
                },
                {
                    "name": "G2",
                    "midi": 43,
                    "time": 190.20000000000002,
                    "velocity": 0.7244094488188977,
                    "duration": 0.5
                },
                {
                    "name": "G2",
                    "midi": 43,
                    "time": 191.10000000000002,
                    "velocity": 0.7244094488188977,
                    "duration": 0.9000000000000057
                },
                {
                    "name": "C2",
                    "midi": 36,
                    "time": 192.00000000000003,
                    "velocity": 0.7244094488188977,
                    "duration": 0.5
                },
                {
                    "name": "D2",
                    "midi": 38,
                    "time": 192.90000000000003,
                    "velocity": 0.7244094488188977,
                    "duration": 0.5
                },
                {
                    "name": "G2",
                    "midi": 43,
                    "time": 193.80000000000004,
                    "velocity": 0.7244094488188977,
                    "duration": 0.5
                },
                {
                    "name": "G2",
                    "midi": 43,
                    "time": 194.70000000000005,
                    "velocity": 0.7244094488188977,
                    "duration": 0.5
                },
                {
                    "name": "C2",
                    "midi": 36,
                    "time": 195.60000000000005,
                    "velocity": 0.7244094488188977,
                    "duration": 0.29374999999998863
                },
                {
                    "name": "G2",
                    "midi": 43,
                    "time": 196.50000000000003,
                    "velocity": 0.7244094488188977,
                    "duration": 0.29374999999998863
                },
                {
                    "name": "C2",
                    "midi": 36,
                    "time": 197.4,
                    "velocity": 0.7244094488188977,
                    "duration": 0.5999999999999943
                },
                {
                    "name": "D#2",
                    "midi": 39,
                    "time": 199.2,
                    "velocity": 0.3543307086614173,
                    "duration": 0.5999999999999943
                },
                {
                    "name": "A#1",
                    "midi": 34,
                    "time": 200.1,
                    "velocity": 0.3543307086614173,
                    "duration": 0.5999999999999943
                },
                {
                    "name": "D#2",
                    "midi": 39,
                    "time": 201,
                    "velocity": 0.3543307086614173,
                    "duration": 0.5999999999999943
                },
                {
                    "name": "G2",
                    "midi": 43,
                    "time": 202.79999999999998,
                    "velocity": 0.3543307086614173,
                    "duration": 0.5999999999999943
                },
                {
                    "name": "D2",
                    "midi": 38,
                    "time": 203.7,
                    "velocity": 0.3543307086614173,
                    "duration": 0.5999999999999943
                },
                {
                    "name": "G2",
                    "midi": 43,
                    "time": 204.6,
                    "velocity": 0.3543307086614173,
                    "duration": 0.5999999999999943
                },
                {
                    "name": "A#2",
                    "midi": 46,
                    "time": 206.39999999999998,
                    "velocity": 0.3543307086614173,
                    "duration": 0.5999999999999943
                },
                {
                    "name": "F2",
                    "midi": 41,
                    "time": 207.29999999999998,
                    "velocity": 0.3543307086614173,
                    "duration": 0.5999999999999943
                },
                {
                    "name": "A#1",
                    "midi": 34,
                    "time": 208.2,
                    "velocity": 0.3543307086614173,
                    "duration": 0.9000000000000057
                },
                {
                    "name": "D#2",
                    "midi": 39,
                    "time": 209.1,
                    "velocity": 0.3543307086614173,
                    "duration": 0.9000000000000057
                },
                {
                    "name": "A#1",
                    "midi": 34,
                    "time": 210,
                    "velocity": 0.3543307086614173,
                    "duration": 0.9000000000000057
                },
                {
                    "name": "F2",
                    "midi": 41,
                    "time": 210.9,
                    "velocity": 0.3543307086614173,
                    "duration": 0.9000000000000057
                },
                {
                    "name": "A#1",
                    "midi": 34,
                    "time": 211.8,
                    "velocity": 0.3543307086614173,
                    "duration": 0.5999999999999943
                },
                {
                    "name": "G2",
                    "midi": 43,
                    "time": 212.4,
                    "velocity": 0.3543307086614173,
                    "duration": 0.29374999999998863
                },
                {
                    "name": "C2",
                    "midi": 36,
                    "time": 212.7,
                    "velocity": 0.49606299212598426,
                    "duration": 0.8000000000000114
                },
                {
                    "name": "G#2",
                    "midi": 44,
                    "time": 213.6,
                    "velocity": 0.47244094488188976,
                    "duration": 0.5
                },
                {
                    "name": "C2",
                    "midi": 36,
                    "time": 214.5,
                    "velocity": 0.47244094488188976,
                    "duration": 0.5
                },
                {
                    "name": "F2",
                    "midi": 41,
                    "time": 215.4,
                    "velocity": 0.47244094488188976,
                    "duration": 0.5
                },
                {
                    "name": "A#1",
                    "midi": 34,
                    "time": 216.3,
                    "velocity": 0.6614173228346457,
                    "duration": 0.8000000000000114
                },
                {
                    "name": "D2",
                    "midi": 38,
                    "time": 217.20000000000002,
                    "velocity": 0.47244094488188976,
                    "duration": 0.5999999999999943
                },
                {
                    "name": "A#1",
                    "midi": 34,
                    "time": 218.10000000000002,
                    "velocity": 0.47244094488188976,
                    "duration": 0.5999999999999943
                },
                {
                    "name": "D#2",
                    "midi": 39,
                    "time": 219.00000000000003,
                    "velocity": 0.47244094488188976,
                    "duration": 0.5999999999999943
                },
                {
                    "name": "G2",
                    "midi": 43,
                    "time": 223.50000000000003,
                    "velocity": 0.3543307086614173,
                    "duration": 0.09999999999999432
                },
                {
                    "name": "G2",
                    "midi": 43,
                    "time": 223.8,
                    "velocity": 0.3543307086614173,
                    "duration": 0.09999999999999432
                },
                {
                    "name": "C3",
                    "midi": 48,
                    "time": 224.4,
                    "velocity": 0.3543307086614173,
                    "duration": 0.09999999999999432
                },
                {
                    "name": "C3",
                    "midi": 48,
                    "time": 224.7,
                    "velocity": 0.3543307086614173,
                    "duration": 0.09999999999999432
                },
                {
                    "name": "G#2",
                    "midi": 44,
                    "time": 225.29999999999998,
                    "velocity": 0.3543307086614173,
                    "duration": 0.09999999999999432
                },
                {
                    "name": "G#2",
                    "midi": 44,
                    "time": 225.59999999999997,
                    "velocity": 0.3543307086614173,
                    "duration": 0.09999999999999432
                },
                {
                    "name": "G2",
                    "midi": 43,
                    "time": 226.19999999999996,
                    "velocity": 0.3543307086614173,
                    "duration": 0.5999999999999943
                },
                {
                    "name": "G3",
                    "midi": 55,
                    "time": 229.79999999999995,
                    "velocity": 0.3543307086614173,
                    "duration": 0.09999999999999432
                },
                {
                    "name": "G3",
                    "midi": 55,
                    "time": 230.09999999999994,
                    "velocity": 0.3543307086614173,
                    "duration": 0.09999999999999432
                },
                {
                    "name": "G3",
                    "midi": 55,
                    "time": 230.39999999999992,
                    "velocity": 0.3543307086614173,
                    "duration": 0.09999999999999432
                },
                {
                    "name": "G2",
                    "midi": 43,
                    "time": 230.6999999999999,
                    "velocity": 0.3543307086614173,
                    "duration": 0.09999999999999432
                },
                {
                    "name": "G2",
                    "midi": 43,
                    "time": 230.9999999999999,
                    "velocity": 0.3543307086614173,
                    "duration": 0.09999999999999432
                },
                {
                    "name": "G2",
                    "midi": 43,
                    "time": 231.29999999999987,
                    "velocity": 0.3543307086614173,
                    "duration": 0.09999999999999432
                },
                {
                    "name": "C2",
                    "midi": 36,
                    "time": 232.49999999999986,
                    "velocity": 0.3543307086614173,
                    "duration": 0.09999999999999432
                },
                {
                    "name": "C2",
                    "midi": 36,
                    "time": 232.79999999999984,
                    "velocity": 0.3543307086614173,
                    "duration": 0.09999999999999432
                },
                {
                    "name": "D2",
                    "midi": 38,
                    "time": 233.39999999999984,
                    "velocity": 0.3543307086614173,
                    "duration": 0.09999999999999432
                },
                {
                    "name": "D2",
                    "midi": 38,
                    "time": 233.69999999999982,
                    "velocity": 0.3543307086614173,
                    "duration": 0.09999999999999432
                },
                {
                    "name": "G2",
                    "midi": 43,
                    "time": 234.2999999999998,
                    "velocity": 0.3543307086614173,
                    "duration": 0.09999999999999432
                },
                {
                    "name": "G2",
                    "midi": 43,
                    "time": 234.5999999999998,
                    "velocity": 0.3543307086614173,
                    "duration": 0.09999999999999432
                },
                {
                    "name": "G2",
                    "midi": 43,
                    "time": 235.1999999999998,
                    "velocity": 0.3543307086614173,
                    "duration": 0.09999999999999432
                },
                {
                    "name": "G2",
                    "midi": 43,
                    "time": 235.49999999999977,
                    "velocity": 0.3543307086614173,
                    "duration": 0.09999999999999432
                },
                {
                    "name": "C2",
                    "midi": 36,
                    "time": 236.09999999999977,
                    "velocity": 0.3543307086614173,
                    "duration": 0.09999999999999432
                },
                {
                    "name": "C2",
                    "midi": 36,
                    "time": 236.39999999999975,
                    "velocity": 0.3543307086614173,
                    "duration": 0.09999999999999432
                },
                {
                    "name": "F#2",
                    "midi": 42,
                    "time": 236.99999999999974,
                    "velocity": 0.3543307086614173,
                    "duration": 0.09999999999999432
                },
                {
                    "name": "F#2",
                    "midi": 42,
                    "time": 237.29999999999973,
                    "velocity": 0.3543307086614173,
                    "duration": 0.09999999999999432
                },
                {
                    "name": "G2",
                    "midi": 43,
                    "time": 237.89999999999972,
                    "velocity": 0.3543307086614173,
                    "duration": 0.5999999999999943
                },
                {
                    "name": "G2",
                    "midi": 43,
                    "time": 238.79999999999973,
                    "velocity": 0.49606299212598426,
                    "duration": 0.9000000000000057
                },
                {
                    "name": "C2",
                    "midi": 36,
                    "time": 239.69999999999973,
                    "velocity": 0.3543307086614173,
                    "duration": 0.09999999999999432
                },
                {
                    "name": "C2",
                    "midi": 36,
                    "time": 239.99999999999972,
                    "velocity": 0.3543307086614173,
                    "duration": 0.09999999999999432
                },
                {
                    "name": "C2",
                    "midi": 36,
                    "time": 240.5999999999997,
                    "velocity": 0.3543307086614173,
                    "duration": 0.09999999999999432
                },
                {
                    "name": "C2",
                    "midi": 36,
                    "time": 240.8999999999997,
                    "velocity": 0.3543307086614173,
                    "duration": 0.09999999999999432
                },
                {
                    "name": "F2",
                    "midi": 41,
                    "time": 241.4999999999997,
                    "velocity": 0.3543307086614173,
                    "duration": 0.09999999999999432
                },
                {
                    "name": "F2",
                    "midi": 41,
                    "time": 241.79999999999967,
                    "velocity": 0.3543307086614173,
                    "duration": 0.09999999999999432
                },
                {
                    "name": "F2",
                    "midi": 41,
                    "time": 242.39999999999966,
                    "velocity": 0.3543307086614173,
                    "duration": 0.09999999999999432
                },
                {
                    "name": "F2",
                    "midi": 41,
                    "time": 242.69999999999965,
                    "velocity": 0.3543307086614173,
                    "duration": 0.09999999999999432
                },
                {
                    "name": "C2",
                    "midi": 36,
                    "time": 243.29999999999964,
                    "velocity": 0.3543307086614173,
                    "duration": 0.09999999999999432
                },
                {
                    "name": "G2",
                    "midi": 43,
                    "time": 244.19999999999965,
                    "velocity": 0.3543307086614173,
                    "duration": 0.09999999999999432
                },
                {
                    "name": "C2",
                    "midi": 36,
                    "time": 245.09999999999965,
                    "velocity": 0.3543307086614173,
                    "duration": 0.5999999999999943
                },
                {
                    "name": "C2",
                    "midi": 36,
                    "time": 246.89999999999964,
                    "velocity": 0.7244094488188977,
                    "duration": 0.5
                },
                {
                    "name": "D2",
                    "midi": 38,
                    "time": 247.79999999999964,
                    "velocity": 0.7244094488188977,
                    "duration": 0.5
                },
                {
                    "name": "G2",
                    "midi": 43,
                    "time": 248.69999999999965,
                    "velocity": 0.7244094488188977,
                    "duration": 0.5
                },
                {
                    "name": "G2",
                    "midi": 43,
                    "time": 249.59999999999965,
                    "velocity": 0.7244094488188977,
                    "duration": 0.5
                },
                {
                    "name": "C2",
                    "midi": 36,
                    "time": 250.49999999999966,
                    "velocity": 0.7244094488188977,
                    "duration": 0.5
                },
                {
                    "name": "F#2",
                    "midi": 42,
                    "time": 251.39999999999966,
                    "velocity": 0.7244094488188977,
                    "duration": 0.5
                },
                {
                    "name": "G2",
                    "midi": 43,
                    "time": 252.29999999999967,
                    "velocity": 0.7244094488188977,
                    "duration": 0.9000000000000057
                },
                {
                    "name": "G2",
                    "midi": 43,
                    "time": 253.19999999999968,
                    "velocity": 0.7244094488188977,
                    "duration": 0.5999999999999943
                },
                {
                    "name": "C2",
                    "midi": 36,
                    "time": 254.09999999999968,
                    "velocity": 0.7244094488188977,
                    "duration": 0.5
                },
                {
                    "name": "D2",
                    "midi": 38,
                    "time": 254.9999999999997,
                    "velocity": 0.7244094488188977,
                    "duration": 0.5
                },
                {
                    "name": "G2",
                    "midi": 43,
                    "time": 255.8999999999997,
                    "velocity": 0.7244094488188977,
                    "duration": 0.5
                },
                {
                    "name": "G2",
                    "midi": 43,
                    "time": 256.79999999999967,
                    "velocity": 0.7244094488188977,
                    "duration": 0.5
                },
                {
                    "name": "C2",
                    "midi": 36,
                    "time": 257.69999999999965,
                    "velocity": 0.7244094488188977,
                    "duration": 0.29374999999998863
                },
                {
                    "name": "G2",
                    "midi": 43,
                    "time": 258.5999999999996,
                    "velocity": 0.7244094488188977,
                    "duration": 0.29374999999998863
                },
                {
                    "name": "C3",
                    "midi": 48,
                    "time": 259.4999999999996,
                    "velocity": 0.7244094488188977,
                    "duration": 0.6000000000000227
                },
                {
                    "name": "C3",
                    "midi": 48,
                    "time": 260.0999999999996,
                    "velocity": 0.7244094488188977,
                    "duration": 0.10000000000002274
                },
                {
                    "name": "C3",
                    "midi": 48,
                    "time": 260.39999999999964,
                    "velocity": 0.7244094488188977,
                    "duration": 0.10000000000002274
                },
                {
                    "name": "B2",
                    "midi": 47,
                    "time": 260.69999999999965,
                    "velocity": 0.7244094488188977,
                    "duration": 0.10000000000002274
                },
                {
                    "name": "A#2",
                    "midi": 46,
                    "time": 260.99999999999966,
                    "velocity": 0.7244094488188977,
                    "duration": 0.10000000000002274
                },
                {
                    "name": "G#2",
                    "midi": 44,
                    "time": 261.29999999999967,
                    "velocity": 0.7244094488188977,
                    "duration": 0.10000000000002274
                },
                {
                    "name": "G2",
                    "midi": 43,
                    "time": 261.5999999999997,
                    "velocity": 0.7244094488188977,
                    "duration": 0.10000000000002274
                },
                {
                    "name": "F2",
                    "midi": 41,
                    "time": 261.8999999999997,
                    "velocity": 0.7244094488188977,
                    "duration": 0.10000000000002274
                },
                {
                    "name": "A#2",
                    "midi": 46,
                    "time": 262.1999999999997,
                    "velocity": 0.7244094488188977,
                    "duration": 0.10000000000002274
                },
                {
                    "name": "A2",
                    "midi": 45,
                    "time": 262.4999999999997,
                    "velocity": 0.7244094488188977,
                    "duration": 0.10000000000002274
                },
                {
                    "name": "G#2",
                    "midi": 44,
                    "time": 262.7999999999997,
                    "velocity": 0.7244094488188977,
                    "duration": 0.10000000000002274
                },
                {
                    "name": "G2",
                    "midi": 43,
                    "time": 263.09999999999974,
                    "velocity": 0.7244094488188977,
                    "duration": 0.10000000000002274
                },
                {
                    "name": "F2",
                    "midi": 41,
                    "time": 263.39999999999975,
                    "velocity": 0.7244094488188977,
                    "duration": 0.10000000000002274
                },
                {
                    "name": "D#2",
                    "midi": 39,
                    "time": 263.69999999999976,
                    "velocity": 1,
                    "duration": 0.10000000000002274
                },
                {
                    "name": "F2",
                    "midi": 41,
                    "time": 263.9999999999998,
                    "velocity": 1,
                    "duration": 0.10000000000002274
                },
                {
                    "name": "G2",
                    "midi": 43,
                    "time": 264.8999999999998,
                    "velocity": 1,
                    "duration": 0.10000000000002274
                },
                {
                    "name": "G1",
                    "midi": 31,
                    "time": 265.79999999999984,
                    "velocity": 1,
                    "duration": 0.10000000000002274
                },
                {
                    "name": "G2",
                    "midi": 43,
                    "time": 265.79999999999984,
                    "velocity": 1,
                    "duration": 0.10000000000002274
                },
                {
                    "name": "C2",
                    "midi": 36,
                    "time": 266.6999999999999,
                    "velocity": 0.7244094488188977,
                    "duration": 0.6000000000000227
                },
                {
                    "name": "C3",
                    "midi": 48,
                    "time": 267.2999999999999,
                    "velocity": 0.7244094488188977,
                    "duration": 0.29374999999998863
                },
                {
                    "name": "C3",
                    "midi": 48,
                    "time": 267.5999999999999,
                    "velocity": 0.7244094488188977,
                    "duration": 0.10000000000002274
                },
                {
                    "name": "B2",
                    "midi": 47,
                    "time": 267.8999999999999,
                    "velocity": 0.7244094488188977,
                    "duration": 0.10000000000002274
                },
                {
                    "name": "A#2",
                    "midi": 46,
                    "time": 268.19999999999993,
                    "velocity": 0.7244094488188977,
                    "duration": 0.10000000000002274
                },
                {
                    "name": "G#2",
                    "midi": 44,
                    "time": 268.49999999999994,
                    "velocity": 0.7244094488188977,
                    "duration": 0.10000000000002274
                },
                {
                    "name": "G2",
                    "midi": 43,
                    "time": 268.79999999999995,
                    "velocity": 0.7244094488188977,
                    "duration": 0.10000000000002274
                },
                {
                    "name": "F2",
                    "midi": 41,
                    "time": 269.09999999999997,
                    "velocity": 0.7244094488188977,
                    "duration": 0.10000000000002274
                },
                {
                    "name": "A#2",
                    "midi": 46,
                    "time": 269.4,
                    "velocity": 0.7244094488188977,
                    "duration": 0.10000000000002274
                },
                {
                    "name": "A2",
                    "midi": 45,
                    "time": 269.7,
                    "velocity": 0.7244094488188977,
                    "duration": 0.10000000000002274
                },
                {
                    "name": "G#2",
                    "midi": 44,
                    "time": 270,
                    "velocity": 0.7244094488188977,
                    "duration": 0.10000000000002274
                },
                {
                    "name": "G2",
                    "midi": 43,
                    "time": 270.3,
                    "velocity": 0.7244094488188977,
                    "duration": 0.10000000000002274
                },
                {
                    "name": "F2",
                    "midi": 41,
                    "time": 270.6,
                    "velocity": 0.7244094488188977,
                    "duration": 0.10000000000002274
                },
                {
                    "name": "D#2",
                    "midi": 39,
                    "time": 270.90000000000003,
                    "velocity": 1,
                    "duration": 0.10000000000002274
                },
                {
                    "name": "F2",
                    "midi": 41,
                    "time": 271.20000000000005,
                    "velocity": 1,
                    "duration": 0.10000000000002274
                },
                {
                    "name": "G2",
                    "midi": 43,
                    "time": 272.1000000000001,
                    "velocity": 1,
                    "duration": 0.10000000000002274
                },
                {
                    "name": "G1",
                    "midi": 31,
                    "time": 273.0000000000001,
                    "velocity": 1,
                    "duration": 0.10000000000002274
                },
                {
                    "name": "G2",
                    "midi": 43,
                    "time": 273.0000000000001,
                    "velocity": 1,
                    "duration": 0.10000000000002274
                },
                {
                    "name": "C2",
                    "midi": 36,
                    "time": 273.90000000000015,
                    "velocity": 0.7244094488188977,
                    "duration": 0.6000000000000227
                },
                {
                    "name": "G2",
                    "midi": 43,
                    "time": 274.8000000000002,
                    "velocity": 0.47244094488188976,
                    "duration": 0.8999999999999773
                },
                {
                    "name": "G2",
                    "midi": 43,
                    "time": 275.70000000000016,
                    "velocity": 0.47244094488188976,
                    "duration": 0.8999999999999773
                },
                {
                    "name": "G2",
                    "midi": 43,
                    "time": 276.60000000000014,
                    "velocity": 0.47244094488188976,
                    "duration": 0.8999999999999773
                },
                {
                    "name": "G2",
                    "midi": 43,
                    "time": 277.5000000000001,
                    "velocity": 0.47244094488188976,
                    "duration": 0.8999999999999773
                },
                {
                    "name": "G2",
                    "midi": 43,
                    "time": 278.4000000000001,
                    "velocity": 0.7244094488188977,
                    "duration": 0.8999999999999773
                },
                {
                    "name": "G2",
                    "midi": 43,
                    "time": 279.30000000000007,
                    "velocity": 0.7244094488188977,
                    "duration": 0.8999999999999773
                },
                {
                    "name": "G2",
                    "midi": 43,
                    "time": 280.20000000000005,
                    "velocity": 0.7244094488188977,
                    "duration": 0.29374999999998863
                },
                {
                    "name": "F2",
                    "midi": 41,
                    "time": 280.50000000000006,
                    "velocity": 0.7244094488188977,
                    "duration": 0.29374999999998863
                },
                {
                    "name": "D2",
                    "midi": 38,
                    "time": 280.80000000000007,
                    "velocity": 0.7244094488188977,
                    "duration": 0.29374999999998863
                },
                {
                    "name": "C2",
                    "midi": 36,
                    "time": 281.1000000000001,
                    "velocity": 0.7244094488188977,
                    "duration": 0.29374999999998863
                },
                {
                    "name": "C2",
                    "midi": 36,
                    "time": 281.4000000000001,
                    "velocity": 0.7244094488188977,
                    "duration": 0.29374999999998863
                },
                {
                    "name": "C2",
                    "midi": 36,
                    "time": 281.7000000000001,
                    "velocity": 0.7244094488188977,
                    "duration": 0.29374999999998863
                },
                {
                    "name": "G2",
                    "midi": 43,
                    "time": 282.0000000000001,
                    "velocity": 0.7244094488188977,
                    "duration": 0.29374999999998863
                },
                {
                    "name": "G2",
                    "midi": 43,
                    "time": 282.3000000000001,
                    "velocity": 0.7244094488188977,
                    "duration": 0.29374999999998863
                },
                {
                    "name": "G2",
                    "midi": 43,
                    "time": 282.60000000000014,
                    "velocity": 0.7244094488188977,
                    "duration": 0.29374999999998863
                },
                {
                    "name": "C3",
                    "midi": 48,
                    "time": 282.90000000000015,
                    "velocity": 0.7244094488188977,
                    "duration": 0.29374999999998863
                },
                {
                    "name": "G2",
                    "midi": 43,
                    "time": 283.20000000000016,
                    "velocity": 0.7244094488188977,
                    "duration": 0.29374999999998863
                },
                {
                    "name": "D#2",
                    "midi": 39,
                    "time": 283.50000000000017,
                    "velocity": 0.7244094488188977,
                    "duration": 0.29374999999998863
                },
                {
                    "name": "C3",
                    "midi": 48,
                    "time": 283.8000000000002,
                    "velocity": 0.7244094488188977,
                    "duration": 0.29374999999998863
                },
                {
                    "name": "G2",
                    "midi": 43,
                    "time": 284.1000000000002,
                    "velocity": 0.7244094488188977,
                    "duration": 0.29374999999998863
                },
                {
                    "name": "D#2",
                    "midi": 39,
                    "time": 284.4000000000002,
                    "velocity": 0.7244094488188977,
                    "duration": 0.29374999999998863
                },
                {
                    "name": "C2",
                    "midi": 36,
                    "time": 284.7000000000002,
                    "velocity": 0.7244094488188977,
                    "duration": 0.6000000000000227
                },
                {
                    "name": "C3",
                    "midi": 48,
                    "time": 285.60000000000025,
                    "velocity": 0.7244094488188977,
                    "duration": 0.6000000000000227
                },
                {
                    "name": "C2",
                    "midi": 36,
                    "time": 286.35000000000025,
                    "velocity": 0.7244094488188977,
                    "duration": 0.10000000000002274
                },
                {
                    "name": "C2",
                    "midi": 36,
                    "time": 286.5000000000003,
                    "velocity": 0.7244094488188977,
                    "duration": 0.8999999999999773
                }
            ],
            "controlChanges": {
                "7": [
                    {
                        "number": 7,
                        "time": 0,
                        "value": 0.7637795275590551
                    }
                ],
                "10": [
                    {
                        "number": 10,
                        "time": 0,
                        "value": 0.984251968503937
                    }
                ],
                "91": [
                    {
                        "number": 91,
                        "time": 0,
                        "value": 0.2440944881889764
                    }
                ]
            },
            "id": 14,
            "instrumentNumber": 58,
            "instrument": "tuba",
            "instrumentFamily": "brass",
            "channelNumber": 8,
            "isPercussion": false
        },
        {
            "startTime": 15.9,
            "duration": 287.0937499999977,
            "length": 482,
            "notes": [
                {
                    "name": "E2",
                    "midi": 40,
                    "time": 15.9,
                    "velocity": 0.5905511811023622,
                    "duration": 0.29375000000000107
                },
                {
                    "name": "E2",
                    "midi": 40,
                    "time": 16.200000000000003,
                    "velocity": 0.5905511811023622,
                    "duration": 0.2937499999999993
                },
                {
                    "name": "E2",
                    "midi": 40,
                    "time": 16.8,
                    "velocity": 0.5905511811023622,
                    "duration": 0.2937499999999993
                },
                {
                    "name": "E2",
                    "midi": 40,
                    "time": 17.1,
                    "velocity": 0.5905511811023622,
                    "duration": 0.2937499999999993
                },
                {
                    "name": "E2",
                    "midi": 40,
                    "time": 17.7,
                    "velocity": 0.5905511811023622,
                    "duration": 0.2937499999999993
                },
                {
                    "name": "E2",
                    "midi": 40,
                    "time": 18,
                    "velocity": 0.5905511811023622,
                    "duration": 0.2937499999999993
                },
                {
                    "name": "E2",
                    "midi": 40,
                    "time": 18.599999999999998,
                    "velocity": 0.5905511811023622,
                    "duration": 0.2937499999999993
                },
                {
                    "name": "E2",
                    "midi": 40,
                    "time": 18.9,
                    "velocity": 0.5905511811023622,
                    "duration": 0.2937499999999993
                },
                {
                    "name": "E2",
                    "midi": 40,
                    "time": 19.499999999999996,
                    "velocity": 0.5905511811023622,
                    "duration": 0.2937499999999993
                },
                {
                    "name": "E2",
                    "midi": 40,
                    "time": 19.799999999999997,
                    "velocity": 0.5905511811023622,
                    "duration": 0.2937499999999993
                },
                {
                    "name": "E2",
                    "midi": 40,
                    "time": 20.399999999999995,
                    "velocity": 0.5905511811023622,
                    "duration": 0.2937499999999993
                },
                {
                    "name": "E2",
                    "midi": 40,
                    "time": 20.699999999999996,
                    "velocity": 0.5905511811023622,
                    "duration": 0.2937499999999993
                },
                {
                    "name": "E2",
                    "midi": 40,
                    "time": 20.999999999999996,
                    "velocity": 0.5905511811023622,
                    "duration": 0.2937499999999993
                },
                {
                    "name": "E2",
                    "midi": 40,
                    "time": 21.899999999999995,
                    "velocity": 0.5905511811023622,
                    "duration": 0.07499999999999929
                },
                {
                    "name": "E2",
                    "midi": 40,
                    "time": 21.974999999999994,
                    "velocity": 0.5905511811023622,
                    "duration": 0.07499999999999929
                },
                {
                    "name": "E2",
                    "midi": 40,
                    "time": 22.049999999999994,
                    "velocity": 0.5905511811023622,
                    "duration": 0.07499999999999929
                },
                {
                    "name": "E2",
                    "midi": 40,
                    "time": 22.124999999999993,
                    "velocity": 0.5905511811023622,
                    "duration": 0.07499999999999929
                },
                {
                    "name": "E2",
                    "midi": 40,
                    "time": 22.199999999999992,
                    "velocity": 0.5905511811023622,
                    "duration": 0.07499999999999929
                },
                {
                    "name": "E2",
                    "midi": 40,
                    "time": 22.27499999999999,
                    "velocity": 0.5905511811023622,
                    "duration": 0.07499999999999929
                },
                {
                    "name": "E2",
                    "midi": 40,
                    "time": 22.34999999999999,
                    "velocity": 0.5905511811023622,
                    "duration": 0.07499999999999929
                },
                {
                    "name": "E2",
                    "midi": 40,
                    "time": 22.42499999999999,
                    "velocity": 0.5905511811023622,
                    "duration": 0.07499999999999929
                },
                {
                    "name": "E2",
                    "midi": 40,
                    "time": 22.49999999999999,
                    "velocity": 0.5905511811023622,
                    "duration": 0.07499999999999929
                },
                {
                    "name": "E2",
                    "midi": 40,
                    "time": 22.57499999999999,
                    "velocity": 0.5905511811023622,
                    "duration": 0.07499999999999929
                },
                {
                    "name": "E2",
                    "midi": 40,
                    "time": 22.649999999999988,
                    "velocity": 0.5905511811023622,
                    "duration": 0.07499999999999929
                },
                {
                    "name": "E2",
                    "midi": 40,
                    "time": 22.724999999999987,
                    "velocity": 0.5905511811023622,
                    "duration": 0.07499999999999929
                },
                {
                    "name": "E2",
                    "midi": 40,
                    "time": 22.799999999999986,
                    "velocity": 0.5905511811023622,
                    "duration": 0.2937499999999993
                },
                {
                    "name": "E2",
                    "midi": 40,
                    "time": 23.099999999999987,
                    "velocity": 0.5905511811023622,
                    "duration": 0.2937499999999993
                },
                {
                    "name": "E2",
                    "midi": 40,
                    "time": 23.399999999999988,
                    "velocity": 0.5905511811023622,
                    "duration": 0.2937499999999993
                },
                {
                    "name": "E2",
                    "midi": 40,
                    "time": 23.999999999999986,
                    "velocity": 0.5905511811023622,
                    "duration": 0.2937499999999993
                },
                {
                    "name": "E2",
                    "midi": 40,
                    "time": 24.299999999999986,
                    "velocity": 0.5905511811023622,
                    "duration": 0.2937499999999993
                },
                {
                    "name": "E2",
                    "midi": 40,
                    "time": 24.899999999999984,
                    "velocity": 0.5905511811023622,
                    "duration": 0.2937499999999993
                },
                {
                    "name": "E2",
                    "midi": 40,
                    "time": 25.199999999999985,
                    "velocity": 0.5905511811023622,
                    "duration": 0.2937499999999993
                },
                {
                    "name": "E2",
                    "midi": 40,
                    "time": 25.799999999999983,
                    "velocity": 0.5905511811023622,
                    "duration": 0.2937499999999993
                },
                {
                    "name": "E2",
                    "midi": 40,
                    "time": 26.099999999999984,
                    "velocity": 0.5905511811023622,
                    "duration": 0.2937499999999993
                },
                {
                    "name": "E2",
                    "midi": 40,
                    "time": 26.399999999999984,
                    "velocity": 0.5905511811023622,
                    "duration": 0.2937499999999993
                },
                {
                    "name": "E2",
                    "midi": 40,
                    "time": 27.299999999999983,
                    "velocity": 0.5905511811023622,
                    "duration": 0.2937499999999993
                },
                {
                    "name": "E2",
                    "midi": 40,
                    "time": 28.19999999999998,
                    "velocity": 0.5905511811023622,
                    "duration": 0.2937499999999993
                },
                {
                    "name": "E2",
                    "midi": 40,
                    "time": 43.49999999999998,
                    "velocity": 0.49606299212598426,
                    "duration": 0.03125
                },
                {
                    "name": "E2",
                    "midi": 40,
                    "time": 43.53749999999998,
                    "velocity": 0.3543307086614173,
                    "duration": 0.03125
                },
                {
                    "name": "E2",
                    "midi": 40,
                    "time": 43.57499999999998,
                    "velocity": 0.3543307086614173,
                    "duration": 0.03125
                },
                {
                    "name": "E2",
                    "midi": 40,
                    "time": 43.61249999999998,
                    "velocity": 0.3543307086614173,
                    "duration": 0.03125
                },
                {
                    "name": "E2",
                    "midi": 40,
                    "time": 43.649999999999984,
                    "velocity": 0.3543307086614173,
                    "duration": 0.03125
                },
                {
                    "name": "E2",
                    "midi": 40,
                    "time": 43.687499999999986,
                    "velocity": 0.3543307086614173,
                    "duration": 0.03125
                },
                {
                    "name": "E2",
                    "midi": 40,
                    "time": 43.72499999999999,
                    "velocity": 0.3543307086614173,
                    "duration": 0.03125
                },
                {
                    "name": "E2",
                    "midi": 40,
                    "time": 43.76249999999999,
                    "velocity": 0.3543307086614173,
                    "duration": 0.03125
                },
                {
                    "name": "E2",
                    "midi": 40,
                    "time": 43.79999999999999,
                    "velocity": 0.3543307086614173,
                    "duration": 0.03125
                },
                {
                    "name": "E2",
                    "midi": 40,
                    "time": 43.83749999999999,
                    "velocity": 0.3543307086614173,
                    "duration": 0.03125
                },
                {
                    "name": "E2",
                    "midi": 40,
                    "time": 43.87499999999999,
                    "velocity": 0.3543307086614173,
                    "duration": 0.03125
                },
                {
                    "name": "E2",
                    "midi": 40,
                    "time": 43.912499999999994,
                    "velocity": 0.3543307086614173,
                    "duration": 0.03125
                },
                {
                    "name": "E2",
                    "midi": 40,
                    "time": 43.949999999999996,
                    "velocity": 0.3543307086614173,
                    "duration": 0.03125
                },
                {
                    "name": "E2",
                    "midi": 40,
                    "time": 43.9875,
                    "velocity": 0.3543307086614173,
                    "duration": 0.03125
                },
                {
                    "name": "E2",
                    "midi": 40,
                    "time": 44.025,
                    "velocity": 0.3543307086614173,
                    "duration": 0.03125
                },
                {
                    "name": "E2",
                    "midi": 40,
                    "time": 44.0625,
                    "velocity": 0.3543307086614173,
                    "duration": 0.03125
                },
                {
                    "name": "E2",
                    "midi": 40,
                    "time": 44.1,
                    "velocity": 0.3543307086614173,
                    "duration": 0.03125
                },
                {
                    "name": "E2",
                    "midi": 40,
                    "time": 44.1375,
                    "velocity": 0.3543307086614173,
                    "duration": 0.03125
                },
                {
                    "name": "E2",
                    "midi": 40,
                    "time": 44.175000000000004,
                    "velocity": 0.3543307086614173,
                    "duration": 0.03125
                },
                {
                    "name": "E2",
                    "midi": 40,
                    "time": 44.212500000000006,
                    "velocity": 0.3543307086614173,
                    "duration": 0.03125
                },
                {
                    "name": "E2",
                    "midi": 40,
                    "time": 44.25000000000001,
                    "velocity": 0.3543307086614173,
                    "duration": 0.03125
                },
                {
                    "name": "E2",
                    "midi": 40,
                    "time": 44.28750000000001,
                    "velocity": 0.3543307086614173,
                    "duration": 0.03125
                },
                {
                    "name": "E2",
                    "midi": 40,
                    "time": 44.32500000000001,
                    "velocity": 0.3543307086614173,
                    "duration": 0.03125
                },
                {
                    "name": "E2",
                    "midi": 40,
                    "time": 44.36250000000001,
                    "velocity": 0.3543307086614173,
                    "duration": 0.03125
                },
                {
                    "name": "E2",
                    "midi": 40,
                    "time": 47.10000000000001,
                    "velocity": 0.49606299212598426,
                    "duration": 0.03125
                },
                {
                    "name": "E2",
                    "midi": 40,
                    "time": 47.13750000000001,
                    "velocity": 0.3543307086614173,
                    "duration": 0.03125
                },
                {
                    "name": "E2",
                    "midi": 40,
                    "time": 47.17500000000001,
                    "velocity": 0.3543307086614173,
                    "duration": 0.03125
                },
                {
                    "name": "E2",
                    "midi": 40,
                    "time": 47.21250000000001,
                    "velocity": 0.3543307086614173,
                    "duration": 0.03125
                },
                {
                    "name": "E2",
                    "midi": 40,
                    "time": 47.250000000000014,
                    "velocity": 0.3543307086614173,
                    "duration": 0.03125
                },
                {
                    "name": "E2",
                    "midi": 40,
                    "time": 47.287500000000016,
                    "velocity": 0.3543307086614173,
                    "duration": 0.03125
                },
                {
                    "name": "E2",
                    "midi": 40,
                    "time": 47.32500000000002,
                    "velocity": 0.3543307086614173,
                    "duration": 0.03125
                },
                {
                    "name": "E2",
                    "midi": 40,
                    "time": 47.36250000000002,
                    "velocity": 0.3543307086614173,
                    "duration": 0.03125
                },
                {
                    "name": "E2",
                    "midi": 40,
                    "time": 47.40000000000002,
                    "velocity": 0.3543307086614173,
                    "duration": 0.03125
                },
                {
                    "name": "E2",
                    "midi": 40,
                    "time": 47.43750000000002,
                    "velocity": 0.3543307086614173,
                    "duration": 0.03125
                },
                {
                    "name": "E2",
                    "midi": 40,
                    "time": 47.47500000000002,
                    "velocity": 0.3543307086614173,
                    "duration": 0.03125
                },
                {
                    "name": "E2",
                    "midi": 40,
                    "time": 47.512500000000024,
                    "velocity": 0.3543307086614173,
                    "duration": 0.03125
                },
                {
                    "name": "E2",
                    "midi": 40,
                    "time": 47.550000000000026,
                    "velocity": 0.3543307086614173,
                    "duration": 0.03125
                },
                {
                    "name": "E2",
                    "midi": 40,
                    "time": 47.58750000000003,
                    "velocity": 0.3543307086614173,
                    "duration": 0.03125
                },
                {
                    "name": "E2",
                    "midi": 40,
                    "time": 47.62500000000003,
                    "velocity": 0.3543307086614173,
                    "duration": 0.03125
                },
                {
                    "name": "E2",
                    "midi": 40,
                    "time": 47.66250000000003,
                    "velocity": 0.3543307086614173,
                    "duration": 0.03125
                },
                {
                    "name": "E2",
                    "midi": 40,
                    "time": 47.70000000000003,
                    "velocity": 0.3543307086614173,
                    "duration": 0.03125
                },
                {
                    "name": "E2",
                    "midi": 40,
                    "time": 47.73750000000003,
                    "velocity": 0.3543307086614173,
                    "duration": 0.03125
                },
                {
                    "name": "E2",
                    "midi": 40,
                    "time": 47.775000000000034,
                    "velocity": 0.3543307086614173,
                    "duration": 0.03125
                },
                {
                    "name": "E2",
                    "midi": 40,
                    "time": 47.812500000000036,
                    "velocity": 0.3543307086614173,
                    "duration": 0.03125
                },
                {
                    "name": "E2",
                    "midi": 40,
                    "time": 47.85000000000004,
                    "velocity": 0.3543307086614173,
                    "duration": 0.03125
                },
                {
                    "name": "E2",
                    "midi": 40,
                    "time": 47.88750000000004,
                    "velocity": 0.3543307086614173,
                    "duration": 0.03125
                },
                {
                    "name": "E2",
                    "midi": 40,
                    "time": 47.92500000000004,
                    "velocity": 0.3543307086614173,
                    "duration": 0.03125
                },
                {
                    "name": "E2",
                    "midi": 40,
                    "time": 47.96250000000004,
                    "velocity": 0.3543307086614173,
                    "duration": 0.03125
                },
                {
                    "name": "E2",
                    "midi": 40,
                    "time": 78.00000000000004,
                    "velocity": 0.5905511811023622,
                    "duration": 0.29375000000000284
                },
                {
                    "name": "E2",
                    "midi": 40,
                    "time": 78.30000000000004,
                    "velocity": 0.5905511811023622,
                    "duration": 0.29375000000000284
                },
                {
                    "name": "E2",
                    "midi": 40,
                    "time": 78.90000000000005,
                    "velocity": 0.5905511811023622,
                    "duration": 0.29375000000000284
                },
                {
                    "name": "E2",
                    "midi": 40,
                    "time": 79.20000000000005,
                    "velocity": 0.5905511811023622,
                    "duration": 0.29375000000000284
                },
                {
                    "name": "E2",
                    "midi": 40,
                    "time": 79.80000000000005,
                    "velocity": 0.5905511811023622,
                    "duration": 0.29375000000000284
                },
                {
                    "name": "E2",
                    "midi": 40,
                    "time": 80.10000000000005,
                    "velocity": 0.5905511811023622,
                    "duration": 0.29375000000000284
                },
                {
                    "name": "E2",
                    "midi": 40,
                    "time": 80.70000000000006,
                    "velocity": 0.5905511811023622,
                    "duration": 0.29375000000000284
                },
                {
                    "name": "E2",
                    "midi": 40,
                    "time": 81.00000000000006,
                    "velocity": 0.5905511811023622,
                    "duration": 0.29375000000000284
                },
                {
                    "name": "E2",
                    "midi": 40,
                    "time": 81.60000000000007,
                    "velocity": 0.5905511811023622,
                    "duration": 0.29375000000000284
                },
                {
                    "name": "E2",
                    "midi": 40,
                    "time": 81.90000000000006,
                    "velocity": 0.5905511811023622,
                    "duration": 0.29375000000000284
                },
                {
                    "name": "E2",
                    "midi": 40,
                    "time": 82.50000000000007,
                    "velocity": 0.5905511811023622,
                    "duration": 0.29375000000000284
                },
                {
                    "name": "E2",
                    "midi": 40,
                    "time": 82.80000000000007,
                    "velocity": 0.5905511811023622,
                    "duration": 0.29375000000000284
                },
                {
                    "name": "E2",
                    "midi": 40,
                    "time": 83.10000000000007,
                    "velocity": 0.5905511811023622,
                    "duration": 0.29375000000000284
                },
                {
                    "name": "E2",
                    "midi": 40,
                    "time": 84.00000000000007,
                    "velocity": 0.5905511811023622,
                    "duration": 0.07500000000000284
                },
                {
                    "name": "E2",
                    "midi": 40,
                    "time": 84.07500000000007,
                    "velocity": 0.5905511811023622,
                    "duration": 0.07500000000000284
                },
                {
                    "name": "E2",
                    "midi": 40,
                    "time": 84.15000000000008,
                    "velocity": 0.5905511811023622,
                    "duration": 0.07500000000000284
                },
                {
                    "name": "E2",
                    "midi": 40,
                    "time": 84.22500000000008,
                    "velocity": 0.5905511811023622,
                    "duration": 0.07500000000000284
                },
                {
                    "name": "E2",
                    "midi": 40,
                    "time": 84.30000000000008,
                    "velocity": 0.5905511811023622,
                    "duration": 0.07500000000000284
                },
                {
                    "name": "E2",
                    "midi": 40,
                    "time": 84.37500000000009,
                    "velocity": 0.5905511811023622,
                    "duration": 0.07500000000000284
                },
                {
                    "name": "E2",
                    "midi": 40,
                    "time": 84.45000000000009,
                    "velocity": 0.5905511811023622,
                    "duration": 0.07500000000000284
                },
                {
                    "name": "E2",
                    "midi": 40,
                    "time": 84.52500000000009,
                    "velocity": 0.5905511811023622,
                    "duration": 0.07500000000000284
                },
                {
                    "name": "E2",
                    "midi": 40,
                    "time": 84.6000000000001,
                    "velocity": 0.5905511811023622,
                    "duration": 0.07500000000000284
                },
                {
                    "name": "E2",
                    "midi": 40,
                    "time": 84.6750000000001,
                    "velocity": 0.5905511811023622,
                    "duration": 0.07500000000000284
                },
                {
                    "name": "E2",
                    "midi": 40,
                    "time": 84.7500000000001,
                    "velocity": 0.5905511811023622,
                    "duration": 0.07500000000000284
                },
                {
                    "name": "E2",
                    "midi": 40,
                    "time": 84.8250000000001,
                    "velocity": 0.5905511811023622,
                    "duration": 0.07500000000000284
                },
                {
                    "name": "E2",
                    "midi": 40,
                    "time": 84.9000000000001,
                    "velocity": 0.5905511811023622,
                    "duration": 0.29375000000000284
                },
                {
                    "name": "E2",
                    "midi": 40,
                    "time": 85.2000000000001,
                    "velocity": 0.5905511811023622,
                    "duration": 0.29375000000000284
                },
                {
                    "name": "E2",
                    "midi": 40,
                    "time": 85.5000000000001,
                    "velocity": 0.5905511811023622,
                    "duration": 0.29375000000000284
                },
                {
                    "name": "E2",
                    "midi": 40,
                    "time": 86.10000000000011,
                    "velocity": 0.5905511811023622,
                    "duration": 0.29375000000000284
                },
                {
                    "name": "E2",
                    "midi": 40,
                    "time": 86.4000000000001,
                    "velocity": 0.5905511811023622,
                    "duration": 0.29375000000000284
                },
                {
                    "name": "E2",
                    "midi": 40,
                    "time": 87.00000000000011,
                    "velocity": 0.5905511811023622,
                    "duration": 0.29375000000000284
                },
                {
                    "name": "E2",
                    "midi": 40,
                    "time": 87.30000000000011,
                    "velocity": 0.5905511811023622,
                    "duration": 0.29375000000000284
                },
                {
                    "name": "E2",
                    "midi": 40,
                    "time": 87.90000000000012,
                    "velocity": 0.5905511811023622,
                    "duration": 0.29375000000000284
                },
                {
                    "name": "E2",
                    "midi": 40,
                    "time": 88.20000000000012,
                    "velocity": 0.5905511811023622,
                    "duration": 0.29375000000000284
                },
                {
                    "name": "E2",
                    "midi": 40,
                    "time": 88.50000000000011,
                    "velocity": 0.5905511811023622,
                    "duration": 0.29375000000000284
                },
                {
                    "name": "E2",
                    "midi": 40,
                    "time": 89.40000000000012,
                    "velocity": 0.5905511811023622,
                    "duration": 0.29375000000000284
                },
                {
                    "name": "E2",
                    "midi": 40,
                    "time": 90.30000000000013,
                    "velocity": 0.5905511811023622,
                    "duration": 0.07500000000000284
                },
                {
                    "name": "E2",
                    "midi": 40,
                    "time": 90.37500000000013,
                    "velocity": 0.5905511811023622,
                    "duration": 0.07500000000000284
                },
                {
                    "name": "E2",
                    "midi": 40,
                    "time": 90.45000000000013,
                    "velocity": 0.5905511811023622,
                    "duration": 0.07500000000000284
                },
                {
                    "name": "E2",
                    "midi": 40,
                    "time": 90.52500000000013,
                    "velocity": 0.5905511811023622,
                    "duration": 0.07500000000000284
                },
                {
                    "name": "E2",
                    "midi": 40,
                    "time": 90.60000000000014,
                    "velocity": 0.5905511811023622,
                    "duration": 0.07500000000000284
                },
                {
                    "name": "E2",
                    "midi": 40,
                    "time": 90.67500000000014,
                    "velocity": 0.5905511811023622,
                    "duration": 0.07500000000000284
                },
                {
                    "name": "E2",
                    "midi": 40,
                    "time": 90.75000000000014,
                    "velocity": 0.5905511811023622,
                    "duration": 0.07500000000000284
                },
                {
                    "name": "E2",
                    "midi": 40,
                    "time": 90.82500000000014,
                    "velocity": 0.5905511811023622,
                    "duration": 0.07500000000000284
                },
                {
                    "name": "E2",
                    "midi": 40,
                    "time": 90.90000000000015,
                    "velocity": 0.5905511811023622,
                    "duration": 0.07500000000000284
                },
                {
                    "name": "E2",
                    "midi": 40,
                    "time": 90.97500000000015,
                    "velocity": 0.5905511811023622,
                    "duration": 0.07500000000000284
                },
                {
                    "name": "E2",
                    "midi": 40,
                    "time": 91.05000000000015,
                    "velocity": 0.5905511811023622,
                    "duration": 0.07500000000000284
                },
                {
                    "name": "E2",
                    "midi": 40,
                    "time": 91.12500000000016,
                    "velocity": 0.5905511811023622,
                    "duration": 0.07500000000000284
                },
                {
                    "name": "E2",
                    "midi": 40,
                    "time": 91.20000000000016,
                    "velocity": 0.3543307086614173,
                    "duration": 0.29375000000000284
                },
                {
                    "name": "E2",
                    "midi": 40,
                    "time": 120.90000000000016,
                    "velocity": 0.5905511811023622,
                    "duration": 0.29375000000000284
                },
                {
                    "name": "E2",
                    "midi": 40,
                    "time": 121.20000000000016,
                    "velocity": 0.5905511811023622,
                    "duration": 0.14374999999999716
                },
                {
                    "name": "E2",
                    "midi": 40,
                    "time": 121.35000000000015,
                    "velocity": 0.5905511811023622,
                    "duration": 0.14374999999999716
                },
                {
                    "name": "E2",
                    "midi": 40,
                    "time": 121.50000000000014,
                    "velocity": 0.5905511811023622,
                    "duration": 0.29375000000000284
                },
                {
                    "name": "E2",
                    "midi": 40,
                    "time": 121.80000000000014,
                    "velocity": 0.5905511811023622,
                    "duration": 0.29375000000000284
                },
                {
                    "name": "E2",
                    "midi": 40,
                    "time": 122.10000000000014,
                    "velocity": 0.5905511811023622,
                    "duration": 0.29375000000000284
                },
                {
                    "name": "E2",
                    "midi": 40,
                    "time": 122.40000000000013,
                    "velocity": 0.5905511811023622,
                    "duration": 0.29375000000000284
                },
                {
                    "name": "E2",
                    "midi": 40,
                    "time": 122.70000000000013,
                    "velocity": 0.5905511811023622,
                    "duration": 0.29375000000000284
                },
                {
                    "name": "E2",
                    "midi": 40,
                    "time": 123.00000000000013,
                    "velocity": 0.5905511811023622,
                    "duration": 0.14374999999999716
                },
                {
                    "name": "E2",
                    "midi": 40,
                    "time": 123.15000000000012,
                    "velocity": 0.5905511811023622,
                    "duration": 0.14374999999999716
                },
                {
                    "name": "E2",
                    "midi": 40,
                    "time": 123.30000000000011,
                    "velocity": 0.5905511811023622,
                    "duration": 0.29375000000000284
                },
                {
                    "name": "E2",
                    "midi": 40,
                    "time": 123.60000000000011,
                    "velocity": 0.5905511811023622,
                    "duration": 0.29375000000000284
                },
                {
                    "name": "E2",
                    "midi": 40,
                    "time": 123.9000000000001,
                    "velocity": 0.5905511811023622,
                    "duration": 0.29375000000000284
                },
                {
                    "name": "E2",
                    "midi": 40,
                    "time": 124.2000000000001,
                    "velocity": 0.5905511811023622,
                    "duration": 0.29375000000000284
                },
                {
                    "name": "E2",
                    "midi": 40,
                    "time": 124.5000000000001,
                    "velocity": 0.5905511811023622,
                    "duration": 0.29375000000000284
                },
                {
                    "name": "E2",
                    "midi": 40,
                    "time": 124.8000000000001,
                    "velocity": 0.5905511811023622,
                    "duration": 0.14374999999999716
                },
                {
                    "name": "E2",
                    "midi": 40,
                    "time": 124.95000000000009,
                    "velocity": 0.5905511811023622,
                    "duration": 0.14374999999999716
                },
                {
                    "name": "E2",
                    "midi": 40,
                    "time": 125.10000000000008,
                    "velocity": 0.5905511811023622,
                    "duration": 0.29375000000000284
                },
                {
                    "name": "E2",
                    "midi": 40,
                    "time": 125.40000000000008,
                    "velocity": 0.5905511811023622,
                    "duration": 0.29375000000000284
                },
                {
                    "name": "E2",
                    "midi": 40,
                    "time": 125.70000000000007,
                    "velocity": 0.5905511811023622,
                    "duration": 0.29375000000000284
                },
                {
                    "name": "E2",
                    "midi": 40,
                    "time": 126.00000000000007,
                    "velocity": 0.5905511811023622,
                    "duration": 0.29375000000000284
                },
                {
                    "name": "E2",
                    "midi": 40,
                    "time": 126.30000000000007,
                    "velocity": 0.5905511811023622,
                    "duration": 0.29375000000000284
                },
                {
                    "name": "E2",
                    "midi": 40,
                    "time": 126.60000000000007,
                    "velocity": 0.5905511811023622,
                    "duration": 0.14374999999999716
                },
                {
                    "name": "E2",
                    "midi": 40,
                    "time": 126.75000000000006,
                    "velocity": 0.5905511811023622,
                    "duration": 0.14374999999999716
                },
                {
                    "name": "E2",
                    "midi": 40,
                    "time": 126.90000000000005,
                    "velocity": 0.5905511811023622,
                    "duration": 0.29375000000000284
                },
                {
                    "name": "E2",
                    "midi": 40,
                    "time": 127.20000000000005,
                    "velocity": 0.5905511811023622,
                    "duration": 0.29375000000000284
                },
                {
                    "name": "E2",
                    "midi": 40,
                    "time": 127.50000000000004,
                    "velocity": 0.5905511811023622,
                    "duration": 0.29375000000000284
                },
                {
                    "name": "E2",
                    "midi": 40,
                    "time": 127.80000000000004,
                    "velocity": 0.5905511811023622,
                    "duration": 0.29374999999998863
                },
                {
                    "name": "E2",
                    "midi": 40,
                    "time": 128.10000000000002,
                    "velocity": 0.5905511811023622,
                    "duration": 0.29374999999998863
                },
                {
                    "name": "E2",
                    "midi": 40,
                    "time": 128.4,
                    "velocity": 0.5905511811023622,
                    "duration": 0.14375000000001137
                },
                {
                    "name": "E2",
                    "midi": 40,
                    "time": 128.55,
                    "velocity": 0.5905511811023622,
                    "duration": 0.14375000000001137
                },
                {
                    "name": "E2",
                    "midi": 40,
                    "time": 128.70000000000002,
                    "velocity": 0.5905511811023622,
                    "duration": 0.29374999999998863
                },
                {
                    "name": "E2",
                    "midi": 40,
                    "time": 129,
                    "velocity": 0.5905511811023622,
                    "duration": 0.29374999999998863
                },
                {
                    "name": "E2",
                    "midi": 40,
                    "time": 129.29999999999998,
                    "velocity": 0.5905511811023622,
                    "duration": 0.29374999999998863
                },
                {
                    "name": "E2",
                    "midi": 40,
                    "time": 129.59999999999997,
                    "velocity": 0.5905511811023622,
                    "duration": 0.29374999999998863
                },
                {
                    "name": "E2",
                    "midi": 40,
                    "time": 129.89999999999995,
                    "velocity": 0.5905511811023622,
                    "duration": 0.29374999999998863
                },
                {
                    "name": "E2",
                    "midi": 40,
                    "time": 130.19999999999993,
                    "velocity": 0.5905511811023622,
                    "duration": 0.14375000000001137
                },
                {
                    "name": "E2",
                    "midi": 40,
                    "time": 130.34999999999994,
                    "velocity": 0.5905511811023622,
                    "duration": 0.14375000000001137
                },
                {
                    "name": "E2",
                    "midi": 40,
                    "time": 130.49999999999994,
                    "velocity": 0.5905511811023622,
                    "duration": 0.29374999999998863
                },
                {
                    "name": "E2",
                    "midi": 40,
                    "time": 130.79999999999993,
                    "velocity": 0.5905511811023622,
                    "duration": 0.29374999999998863
                },
                {
                    "name": "E2",
                    "midi": 40,
                    "time": 131.0999999999999,
                    "velocity": 0.5905511811023622,
                    "duration": 0.29374999999998863
                },
                {
                    "name": "E2",
                    "midi": 40,
                    "time": 131.3999999999999,
                    "velocity": 0.5905511811023622,
                    "duration": 0.29374999999998863
                },
                {
                    "name": "E2",
                    "midi": 40,
                    "time": 131.69999999999987,
                    "velocity": 0.5905511811023622,
                    "duration": 0.29374999999998863
                },
                {
                    "name": "E2",
                    "midi": 40,
                    "time": 131.99999999999986,
                    "velocity": 0.5905511811023622,
                    "duration": 0.14375000000001137
                },
                {
                    "name": "E2",
                    "midi": 40,
                    "time": 132.14999999999986,
                    "velocity": 0.5905511811023622,
                    "duration": 0.14375000000001137
                },
                {
                    "name": "E2",
                    "midi": 40,
                    "time": 132.29999999999987,
                    "velocity": 0.5905511811023622,
                    "duration": 0.29374999999998863
                },
                {
                    "name": "E2",
                    "midi": 40,
                    "time": 132.59999999999985,
                    "velocity": 0.5905511811023622,
                    "duration": 0.29374999999998863
                },
                {
                    "name": "E2",
                    "midi": 40,
                    "time": 132.89999999999984,
                    "velocity": 0.5905511811023622,
                    "duration": 0.29374999999998863
                },
                {
                    "name": "E2",
                    "midi": 40,
                    "time": 133.19999999999982,
                    "velocity": 0.5905511811023622,
                    "duration": 0.29374999999998863
                },
                {
                    "name": "E2",
                    "midi": 40,
                    "time": 133.4999999999998,
                    "velocity": 0.5905511811023622,
                    "duration": 0.29374999999998863
                },
                {
                    "name": "E2",
                    "midi": 40,
                    "time": 133.79999999999978,
                    "velocity": 0.5905511811023622,
                    "duration": 0.14375000000001137
                },
                {
                    "name": "E2",
                    "midi": 40,
                    "time": 133.9499999999998,
                    "velocity": 0.5905511811023622,
                    "duration": 0.14375000000001137
                },
                {
                    "name": "E2",
                    "midi": 40,
                    "time": 134.0999999999998,
                    "velocity": 0.5905511811023622,
                    "duration": 0.29374999999998863
                },
                {
                    "name": "E2",
                    "midi": 40,
                    "time": 134.39999999999978,
                    "velocity": 0.5905511811023622,
                    "duration": 0.29374999999998863
                },
                {
                    "name": "E2",
                    "midi": 40,
                    "time": 134.69999999999976,
                    "velocity": 0.5905511811023622,
                    "duration": 0.29374999999998863
                },
                {
                    "name": "E2",
                    "midi": 40,
                    "time": 134.99999999999974,
                    "velocity": 0.5905511811023622,
                    "duration": 0.29374999999998863
                },
                {
                    "name": "E2",
                    "midi": 40,
                    "time": 135.29999999999973,
                    "velocity": 0.5905511811023622,
                    "duration": 0.29374999999998863
                },
                {
                    "name": "E2",
                    "midi": 40,
                    "time": 135.5999999999997,
                    "velocity": 0.5905511811023622,
                    "duration": 0.14375000000001137
                },
                {
                    "name": "E2",
                    "midi": 40,
                    "time": 135.74999999999972,
                    "velocity": 0.5905511811023622,
                    "duration": 0.14375000000001137
                },
                {
                    "name": "E2",
                    "midi": 40,
                    "time": 135.89999999999972,
                    "velocity": 0.5905511811023622,
                    "duration": 0.29374999999998863
                },
                {
                    "name": "E2",
                    "midi": 40,
                    "time": 136.1999999999997,
                    "velocity": 0.5905511811023622,
                    "duration": 0.29374999999998863
                },
                {
                    "name": "E2",
                    "midi": 40,
                    "time": 136.4999999999997,
                    "velocity": 0.5905511811023622,
                    "duration": 0.29374999999998863
                },
                {
                    "name": "E2",
                    "midi": 40,
                    "time": 136.79999999999967,
                    "velocity": 0.5905511811023622,
                    "duration": 0.29374999999998863
                },
                {
                    "name": "E2",
                    "midi": 40,
                    "time": 137.09999999999965,
                    "velocity": 0.5905511811023622,
                    "duration": 0.29374999999998863
                },
                {
                    "name": "E2",
                    "midi": 40,
                    "time": 137.39999999999964,
                    "velocity": 0.5905511811023622,
                    "duration": 0.14375000000001137
                },
                {
                    "name": "E2",
                    "midi": 40,
                    "time": 137.54999999999964,
                    "velocity": 0.5905511811023622,
                    "duration": 0.14375000000001137
                },
                {
                    "name": "E2",
                    "midi": 40,
                    "time": 137.69999999999965,
                    "velocity": 0.5905511811023622,
                    "duration": 0.29374999999998863
                },
                {
                    "name": "E2",
                    "midi": 40,
                    "time": 137.99999999999963,
                    "velocity": 0.5905511811023622,
                    "duration": 0.29374999999998863
                },
                {
                    "name": "E2",
                    "midi": 40,
                    "time": 138.2999999999996,
                    "velocity": 0.5905511811023622,
                    "duration": 0.29374999999998863
                },
                {
                    "name": "E2",
                    "midi": 40,
                    "time": 138.5999999999996,
                    "velocity": 0.5905511811023622,
                    "duration": 0.29374999999998863
                },
                {
                    "name": "E2",
                    "midi": 40,
                    "time": 138.89999999999958,
                    "velocity": 0.5905511811023622,
                    "duration": 0.29374999999998863
                },
                {
                    "name": "E2",
                    "midi": 40,
                    "time": 139.19999999999956,
                    "velocity": 0.5905511811023622,
                    "duration": 0.14375000000001137
                },
                {
                    "name": "E2",
                    "midi": 40,
                    "time": 139.34999999999957,
                    "velocity": 0.5905511811023622,
                    "duration": 0.14375000000001137
                },
                {
                    "name": "E2",
                    "midi": 40,
                    "time": 139.49999999999957,
                    "velocity": 0.5905511811023622,
                    "duration": 0.29374999999998863
                },
                {
                    "name": "E2",
                    "midi": 40,
                    "time": 139.79999999999956,
                    "velocity": 0.5905511811023622,
                    "duration": 0.29374999999998863
                },
                {
                    "name": "E2",
                    "midi": 40,
                    "time": 140.09999999999954,
                    "velocity": 0.5905511811023622,
                    "duration": 0.29374999999998863
                },
                {
                    "name": "E2",
                    "midi": 40,
                    "time": 140.39999999999952,
                    "velocity": 0.5905511811023622,
                    "duration": 0.29374999999998863
                },
                {
                    "name": "E2",
                    "midi": 40,
                    "time": 140.6999999999995,
                    "velocity": 0.5905511811023622,
                    "duration": 0.29374999999998863
                },
                {
                    "name": "E2",
                    "midi": 40,
                    "time": 140.9999999999995,
                    "velocity": 0.5905511811023622,
                    "duration": 0.14375000000001137
                },
                {
                    "name": "E2",
                    "midi": 40,
                    "time": 141.1499999999995,
                    "velocity": 0.5905511811023622,
                    "duration": 0.14375000000001137
                },
                {
                    "name": "E2",
                    "midi": 40,
                    "time": 141.2999999999995,
                    "velocity": 0.5905511811023622,
                    "duration": 0.29374999999998863
                },
                {
                    "name": "E2",
                    "midi": 40,
                    "time": 141.59999999999948,
                    "velocity": 0.5905511811023622,
                    "duration": 0.29374999999998863
                },
                {
                    "name": "E2",
                    "midi": 40,
                    "time": 141.89999999999947,
                    "velocity": 0.5905511811023622,
                    "duration": 0.29374999999998863
                },
                {
                    "name": "E2",
                    "midi": 40,
                    "time": 142.19999999999945,
                    "velocity": 0.5905511811023622,
                    "duration": 0.29374999999998863
                },
                {
                    "name": "E2",
                    "midi": 40,
                    "time": 142.49999999999943,
                    "velocity": 0.5905511811023622,
                    "duration": 0.29374999999998863
                },
                {
                    "name": "E2",
                    "midi": 40,
                    "time": 142.79999999999941,
                    "velocity": 0.5905511811023622,
                    "duration": 0.14375000000001137
                },
                {
                    "name": "E2",
                    "midi": 40,
                    "time": 142.94999999999942,
                    "velocity": 0.5905511811023622,
                    "duration": 0.14375000000001137
                },
                {
                    "name": "E2",
                    "midi": 40,
                    "time": 143.09999999999943,
                    "velocity": 0.5905511811023622,
                    "duration": 0.29374999999998863
                },
                {
                    "name": "E2",
                    "midi": 40,
                    "time": 143.3999999999994,
                    "velocity": 0.5905511811023622,
                    "duration": 0.29374999999998863
                },
                {
                    "name": "E2",
                    "midi": 40,
                    "time": 143.6999999999994,
                    "velocity": 0.5905511811023622,
                    "duration": 0.29374999999998863
                },
                {
                    "name": "E2",
                    "midi": 40,
                    "time": 143.99999999999937,
                    "velocity": 0.5905511811023622,
                    "duration": 0.29374999999998863
                },
                {
                    "name": "E2",
                    "midi": 40,
                    "time": 144.29999999999936,
                    "velocity": 0.5905511811023622,
                    "duration": 0.29374999999998863
                },
                {
                    "name": "E2",
                    "midi": 40,
                    "time": 144.59999999999934,
                    "velocity": 0.5905511811023622,
                    "duration": 0.14375000000001137
                },
                {
                    "name": "E2",
                    "midi": 40,
                    "time": 144.74999999999935,
                    "velocity": 0.5905511811023622,
                    "duration": 0.14375000000001137
                },
                {
                    "name": "E2",
                    "midi": 40,
                    "time": 144.89999999999935,
                    "velocity": 0.5905511811023622,
                    "duration": 0.29374999999998863
                },
                {
                    "name": "E2",
                    "midi": 40,
                    "time": 145.19999999999933,
                    "velocity": 0.5905511811023622,
                    "duration": 0.29374999999998863
                },
                {
                    "name": "E2",
                    "midi": 40,
                    "time": 145.49999999999932,
                    "velocity": 0.5905511811023622,
                    "duration": 0.29374999999998863
                },
                {
                    "name": "E2",
                    "midi": 40,
                    "time": 145.7999999999993,
                    "velocity": 0.5905511811023622,
                    "duration": 0.29374999999998863
                },
                {
                    "name": "E2",
                    "midi": 40,
                    "time": 146.09999999999928,
                    "velocity": 0.5905511811023622,
                    "duration": 0.29374999999998863
                },
                {
                    "name": "E2",
                    "midi": 40,
                    "time": 146.39999999999927,
                    "velocity": 0.5905511811023622,
                    "duration": 0.14375000000001137
                },
                {
                    "name": "E2",
                    "midi": 40,
                    "time": 146.54999999999927,
                    "velocity": 0.5905511811023622,
                    "duration": 0.14375000000001137
                },
                {
                    "name": "E2",
                    "midi": 40,
                    "time": 146.69999999999928,
                    "velocity": 0.5905511811023622,
                    "duration": 0.29374999999998863
                },
                {
                    "name": "E2",
                    "midi": 40,
                    "time": 146.99999999999926,
                    "velocity": 0.5905511811023622,
                    "duration": 0.29374999999998863
                },
                {
                    "name": "E2",
                    "midi": 40,
                    "time": 147.29999999999924,
                    "velocity": 0.5905511811023622,
                    "duration": 0.29374999999998863
                },
                {
                    "name": "E2",
                    "midi": 40,
                    "time": 147.59999999999923,
                    "velocity": 0.5905511811023622,
                    "duration": 0.29374999999998863
                },
                {
                    "name": "E2",
                    "midi": 40,
                    "time": 147.8999999999992,
                    "velocity": 0.5905511811023622,
                    "duration": 0.29374999999998863
                },
                {
                    "name": "E2",
                    "midi": 40,
                    "time": 148.1999999999992,
                    "velocity": 0.5905511811023622,
                    "duration": 0.14375000000001137
                },
                {
                    "name": "E2",
                    "midi": 40,
                    "time": 148.3499999999992,
                    "velocity": 0.5905511811023622,
                    "duration": 0.14375000000001137
                },
                {
                    "name": "E2",
                    "midi": 40,
                    "time": 148.4999999999992,
                    "velocity": 0.5905511811023622,
                    "duration": 0.29374999999998863
                },
                {
                    "name": "E2",
                    "midi": 40,
                    "time": 148.7999999999992,
                    "velocity": 0.5905511811023622,
                    "duration": 0.29374999999998863
                },
                {
                    "name": "E2",
                    "midi": 40,
                    "time": 149.09999999999917,
                    "velocity": 0.5905511811023622,
                    "duration": 0.29374999999998863
                },
                {
                    "name": "E2",
                    "midi": 40,
                    "time": 149.39999999999915,
                    "velocity": 0.5905511811023622,
                    "duration": 0.29374999999998863
                },
                {
                    "name": "E2",
                    "midi": 40,
                    "time": 149.69999999999914,
                    "velocity": 0.5905511811023622,
                    "duration": 0.29374999999998863
                },
                {
                    "name": "E2",
                    "midi": 40,
                    "time": 149.99999999999912,
                    "velocity": 0.5905511811023622,
                    "duration": 0.14375000000001137
                },
                {
                    "name": "E2",
                    "midi": 40,
                    "time": 150.14999999999912,
                    "velocity": 0.5905511811023622,
                    "duration": 0.14375000000001137
                },
                {
                    "name": "E2",
                    "midi": 40,
                    "time": 150.29999999999913,
                    "velocity": 0.5905511811023622,
                    "duration": 0.29374999999998863
                },
                {
                    "name": "E2",
                    "midi": 40,
                    "time": 150.5999999999991,
                    "velocity": 0.5905511811023622,
                    "duration": 0.29374999999998863
                },
                {
                    "name": "E2",
                    "midi": 40,
                    "time": 150.8999999999991,
                    "velocity": 0.5905511811023622,
                    "duration": 0.29374999999998863
                },
                {
                    "name": "E2",
                    "midi": 40,
                    "time": 151.19999999999908,
                    "velocity": 0.5905511811023622,
                    "duration": 0.29374999999998863
                },
                {
                    "name": "E2",
                    "midi": 40,
                    "time": 151.49999999999906,
                    "velocity": 0.5905511811023622,
                    "duration": 0.29374999999998863
                },
                {
                    "name": "E2",
                    "midi": 40,
                    "time": 151.79999999999905,
                    "velocity": 0.5905511811023622,
                    "duration": 0.14375000000001137
                },
                {
                    "name": "E2",
                    "midi": 40,
                    "time": 151.94999999999905,
                    "velocity": 0.5905511811023622,
                    "duration": 0.14375000000001137
                },
                {
                    "name": "E2",
                    "midi": 40,
                    "time": 152.09999999999906,
                    "velocity": 0.5905511811023622,
                    "duration": 0.29374999999998863
                },
                {
                    "name": "E2",
                    "midi": 40,
                    "time": 152.39999999999904,
                    "velocity": 0.5905511811023622,
                    "duration": 0.29374999999998863
                },
                {
                    "name": "E2",
                    "midi": 40,
                    "time": 152.69999999999902,
                    "velocity": 0.5905511811023622,
                    "duration": 0.29374999999998863
                },
                {
                    "name": "E2",
                    "midi": 40,
                    "time": 152.999999999999,
                    "velocity": 0.5905511811023622,
                    "duration": 0.29374999999998863
                },
                {
                    "name": "E2",
                    "midi": 40,
                    "time": 153.299999999999,
                    "velocity": 0.5905511811023622,
                    "duration": 0.29374999999998863
                },
                {
                    "name": "E2",
                    "midi": 40,
                    "time": 153.59999999999897,
                    "velocity": 0.5905511811023622,
                    "duration": 0.14375000000001137
                },
                {
                    "name": "E2",
                    "midi": 40,
                    "time": 153.74999999999898,
                    "velocity": 0.5905511811023622,
                    "duration": 0.14375000000001137
                },
                {
                    "name": "E2",
                    "midi": 40,
                    "time": 153.89999999999898,
                    "velocity": 0.5905511811023622,
                    "duration": 0.29374999999998863
                },
                {
                    "name": "E2",
                    "midi": 40,
                    "time": 154.19999999999897,
                    "velocity": 0.5905511811023622,
                    "duration": 0.29374999999998863
                },
                {
                    "name": "E2",
                    "midi": 40,
                    "time": 154.49999999999895,
                    "velocity": 0.5905511811023622,
                    "duration": 0.29374999999998863
                },
                {
                    "name": "E2",
                    "midi": 40,
                    "time": 154.79999999999893,
                    "velocity": 0.5905511811023622,
                    "duration": 0.29374999999998863
                },
                {
                    "name": "E2",
                    "midi": 40,
                    "time": 155.09999999999891,
                    "velocity": 0.5905511811023622,
                    "duration": 0.29374999999998863
                },
                {
                    "name": "E2",
                    "midi": 40,
                    "time": 155.3999999999989,
                    "velocity": 0.5905511811023622,
                    "duration": 0.14375000000001137
                },
                {
                    "name": "E2",
                    "midi": 40,
                    "time": 155.5499999999989,
                    "velocity": 0.5905511811023622,
                    "duration": 0.14375000000001137
                },
                {
                    "name": "E2",
                    "midi": 40,
                    "time": 155.6999999999989,
                    "velocity": 0.5905511811023622,
                    "duration": 0.29374999999998863
                },
                {
                    "name": "E2",
                    "midi": 40,
                    "time": 155.9999999999989,
                    "velocity": 0.5905511811023622,
                    "duration": 0.29374999999998863
                },
                {
                    "name": "E2",
                    "midi": 40,
                    "time": 156.29999999999887,
                    "velocity": 0.5905511811023622,
                    "duration": 0.29374999999998863
                },
                {
                    "name": "E2",
                    "midi": 40,
                    "time": 156.59999999999886,
                    "velocity": 0.5905511811023622,
                    "duration": 0.29374999999998863
                },
                {
                    "name": "E2",
                    "midi": 40,
                    "time": 156.89999999999884,
                    "velocity": 0.5905511811023622,
                    "duration": 0.29374999999998863
                },
                {
                    "name": "E2",
                    "midi": 40,
                    "time": 157.19999999999882,
                    "velocity": 0.5905511811023622,
                    "duration": 0.14375000000001137
                },
                {
                    "name": "E2",
                    "midi": 40,
                    "time": 157.34999999999883,
                    "velocity": 0.5905511811023622,
                    "duration": 0.14375000000001137
                },
                {
                    "name": "E2",
                    "midi": 40,
                    "time": 157.49999999999883,
                    "velocity": 0.5905511811023622,
                    "duration": 0.29374999999998863
                },
                {
                    "name": "E2",
                    "midi": 40,
                    "time": 157.79999999999882,
                    "velocity": 0.5905511811023622,
                    "duration": 0.29374999999998863
                },
                {
                    "name": "E2",
                    "midi": 40,
                    "time": 158.0999999999988,
                    "velocity": 0.5905511811023622,
                    "duration": 0.29374999999998863
                },
                {
                    "name": "E2",
                    "midi": 40,
                    "time": 158.39999999999878,
                    "velocity": 0.5905511811023622,
                    "duration": 0.29374999999998863
                },
                {
                    "name": "E2",
                    "midi": 40,
                    "time": 158.69999999999877,
                    "velocity": 0.5905511811023622,
                    "duration": 0.29374999999998863
                },
                {
                    "name": "E2",
                    "midi": 40,
                    "time": 158.99999999999875,
                    "velocity": 0.5905511811023622,
                    "duration": 0.14375000000001137
                },
                {
                    "name": "E2",
                    "midi": 40,
                    "time": 159.14999999999876,
                    "velocity": 0.5905511811023622,
                    "duration": 0.14375000000001137
                },
                {
                    "name": "E2",
                    "midi": 40,
                    "time": 159.29999999999876,
                    "velocity": 0.5905511811023622,
                    "duration": 0.29374999999998863
                },
                {
                    "name": "E2",
                    "midi": 40,
                    "time": 159.59999999999874,
                    "velocity": 0.5905511811023622,
                    "duration": 0.29374999999998863
                },
                {
                    "name": "E2",
                    "midi": 40,
                    "time": 159.89999999999873,
                    "velocity": 0.5905511811023622,
                    "duration": 0.29374999999998863
                },
                {
                    "name": "E2",
                    "midi": 40,
                    "time": 160.1999999999987,
                    "velocity": 0.5905511811023622,
                    "duration": 0.29374999999998863
                },
                {
                    "name": "E2",
                    "midi": 40,
                    "time": 160.4999999999987,
                    "velocity": 0.5905511811023622,
                    "duration": 0.29374999999998863
                },
                {
                    "name": "E2",
                    "midi": 40,
                    "time": 160.79999999999868,
                    "velocity": 0.5905511811023622,
                    "duration": 0.14375000000001137
                },
                {
                    "name": "E2",
                    "midi": 40,
                    "time": 160.94999999999868,
                    "velocity": 0.5905511811023622,
                    "duration": 0.14375000000001137
                },
                {
                    "name": "E2",
                    "midi": 40,
                    "time": 161.0999999999987,
                    "velocity": 0.5905511811023622,
                    "duration": 0.29374999999998863
                },
                {
                    "name": "E2",
                    "midi": 40,
                    "time": 161.39999999999867,
                    "velocity": 0.5905511811023622,
                    "duration": 0.29374999999998863
                },
                {
                    "name": "E2",
                    "midi": 40,
                    "time": 161.69999999999865,
                    "velocity": 0.5905511811023622,
                    "duration": 0.29374999999998863
                },
                {
                    "name": "E2",
                    "midi": 40,
                    "time": 161.99999999999864,
                    "velocity": 0.5905511811023622,
                    "duration": 0.29374999999998863
                },
                {
                    "name": "E2",
                    "midi": 40,
                    "time": 162.29999999999862,
                    "velocity": 0.5905511811023622,
                    "duration": 0.29374999999998863
                },
                {
                    "name": "E2",
                    "midi": 40,
                    "time": 167.6999999999986,
                    "velocity": 0.5905511811023622,
                    "duration": 0.07499999999998863
                },
                {
                    "name": "E2",
                    "midi": 40,
                    "time": 167.77499999999858,
                    "velocity": 0.5905511811023622,
                    "duration": 0.07499999999998863
                },
                {
                    "name": "E2",
                    "midi": 40,
                    "time": 167.84999999999857,
                    "velocity": 0.8267716535433071,
                    "duration": 0.14375000000001137
                },
                {
                    "name": "E2",
                    "midi": 40,
                    "time": 185.0999999999986,
                    "velocity": 0.5905511811023622,
                    "duration": 0.29374999999998863
                },
                {
                    "name": "E2",
                    "midi": 40,
                    "time": 185.39999999999858,
                    "velocity": 0.5905511811023622,
                    "duration": 0.29374999999998863
                },
                {
                    "name": "E2",
                    "midi": 40,
                    "time": 185.99999999999858,
                    "velocity": 0.5905511811023622,
                    "duration": 0.29374999999998863
                },
                {
                    "name": "E2",
                    "midi": 40,
                    "time": 186.29999999999856,
                    "velocity": 0.5905511811023622,
                    "duration": 0.29374999999998863
                },
                {
                    "name": "E2",
                    "midi": 40,
                    "time": 186.89999999999856,
                    "velocity": 0.5905511811023622,
                    "duration": 0.29374999999998863
                },
                {
                    "name": "E2",
                    "midi": 40,
                    "time": 187.19999999999854,
                    "velocity": 0.5905511811023622,
                    "duration": 0.29374999999998863
                },
                {
                    "name": "E2",
                    "midi": 40,
                    "time": 187.79999999999853,
                    "velocity": 0.5905511811023622,
                    "duration": 0.29374999999998863
                },
                {
                    "name": "E2",
                    "midi": 40,
                    "time": 188.09999999999852,
                    "velocity": 0.5905511811023622,
                    "duration": 0.29374999999998863
                },
                {
                    "name": "E2",
                    "midi": 40,
                    "time": 188.6999999999985,
                    "velocity": 0.5905511811023622,
                    "duration": 0.29374999999998863
                },
                {
                    "name": "E2",
                    "midi": 40,
                    "time": 188.9999999999985,
                    "velocity": 0.5905511811023622,
                    "duration": 0.29374999999998863
                },
                {
                    "name": "E2",
                    "midi": 40,
                    "time": 189.5999999999985,
                    "velocity": 0.5905511811023622,
                    "duration": 0.29374999999998863
                },
                {
                    "name": "E2",
                    "midi": 40,
                    "time": 189.89999999999847,
                    "velocity": 0.5905511811023622,
                    "duration": 0.29374999999998863
                },
                {
                    "name": "E2",
                    "midi": 40,
                    "time": 190.19999999999845,
                    "velocity": 0.5905511811023622,
                    "duration": 0.29374999999998863
                },
                {
                    "name": "E2",
                    "midi": 40,
                    "time": 191.09999999999843,
                    "velocity": 0.5905511811023622,
                    "duration": 0.07499999999998863
                },
                {
                    "name": "E2",
                    "midi": 40,
                    "time": 191.17499999999842,
                    "velocity": 0.5905511811023622,
                    "duration": 0.07499999999998863
                },
                {
                    "name": "E2",
                    "midi": 40,
                    "time": 191.2499999999984,
                    "velocity": 0.5905511811023622,
                    "duration": 0.07499999999998863
                },
                {
                    "name": "E2",
                    "midi": 40,
                    "time": 191.3249999999984,
                    "velocity": 0.5905511811023622,
                    "duration": 0.07499999999998863
                },
                {
                    "name": "E2",
                    "midi": 40,
                    "time": 191.39999999999839,
                    "velocity": 0.5905511811023622,
                    "duration": 0.07499999999998863
                },
                {
                    "name": "E2",
                    "midi": 40,
                    "time": 191.47499999999837,
                    "velocity": 0.5905511811023622,
                    "duration": 0.07499999999998863
                },
                {
                    "name": "E2",
                    "midi": 40,
                    "time": 191.54999999999836,
                    "velocity": 0.5905511811023622,
                    "duration": 0.07499999999998863
                },
                {
                    "name": "E2",
                    "midi": 40,
                    "time": 191.62499999999835,
                    "velocity": 0.5905511811023622,
                    "duration": 0.07499999999998863
                },
                {
                    "name": "E2",
                    "midi": 40,
                    "time": 191.69999999999834,
                    "velocity": 0.5905511811023622,
                    "duration": 0.07499999999998863
                },
                {
                    "name": "E2",
                    "midi": 40,
                    "time": 191.77499999999833,
                    "velocity": 0.5905511811023622,
                    "duration": 0.07499999999998863
                },
                {
                    "name": "E2",
                    "midi": 40,
                    "time": 191.84999999999832,
                    "velocity": 0.5905511811023622,
                    "duration": 0.07499999999998863
                },
                {
                    "name": "E2",
                    "midi": 40,
                    "time": 191.9249999999983,
                    "velocity": 0.5905511811023622,
                    "duration": 0.07499999999998863
                },
                {
                    "name": "E2",
                    "midi": 40,
                    "time": 191.9999999999983,
                    "velocity": 0.5905511811023622,
                    "duration": 0.29374999999998863
                },
                {
                    "name": "E2",
                    "midi": 40,
                    "time": 192.29999999999828,
                    "velocity": 0.5905511811023622,
                    "duration": 0.29374999999998863
                },
                {
                    "name": "E2",
                    "midi": 40,
                    "time": 192.59999999999826,
                    "velocity": 0.5905511811023622,
                    "duration": 0.29374999999998863
                },
                {
                    "name": "E2",
                    "midi": 40,
                    "time": 193.19999999999825,
                    "velocity": 0.5905511811023622,
                    "duration": 0.29374999999998863
                },
                {
                    "name": "E2",
                    "midi": 40,
                    "time": 193.49999999999824,
                    "velocity": 0.5905511811023622,
                    "duration": 0.29374999999998863
                },
                {
                    "name": "E2",
                    "midi": 40,
                    "time": 194.09999999999823,
                    "velocity": 0.5905511811023622,
                    "duration": 0.29374999999998863
                },
                {
                    "name": "E2",
                    "midi": 40,
                    "time": 194.39999999999822,
                    "velocity": 0.5905511811023622,
                    "duration": 0.29374999999998863
                },
                {
                    "name": "E2",
                    "midi": 40,
                    "time": 194.9999999999982,
                    "velocity": 0.5905511811023622,
                    "duration": 0.29374999999998863
                },
                {
                    "name": "E2",
                    "midi": 40,
                    "time": 195.2999999999982,
                    "velocity": 0.5905511811023622,
                    "duration": 0.29374999999998863
                },
                {
                    "name": "E2",
                    "midi": 40,
                    "time": 195.59999999999818,
                    "velocity": 0.5905511811023622,
                    "duration": 0.29374999999998863
                },
                {
                    "name": "E2",
                    "midi": 40,
                    "time": 196.49999999999815,
                    "velocity": 0.5905511811023622,
                    "duration": 0.29374999999998863
                },
                {
                    "name": "E2",
                    "midi": 40,
                    "time": 197.39999999999813,
                    "velocity": 0.5905511811023622,
                    "duration": 0.29374999999998863
                },
                {
                    "name": "E2",
                    "midi": 40,
                    "time": 212.6999999999981,
                    "velocity": 0.49606299212598426,
                    "duration": 0.03125
                },
                {
                    "name": "E2",
                    "midi": 40,
                    "time": 212.7374999999981,
                    "velocity": 0.3543307086614173,
                    "duration": 0.03125
                },
                {
                    "name": "E2",
                    "midi": 40,
                    "time": 212.7749999999981,
                    "velocity": 0.3543307086614173,
                    "duration": 0.03125
                },
                {
                    "name": "E2",
                    "midi": 40,
                    "time": 212.8124999999981,
                    "velocity": 0.3543307086614173,
                    "duration": 0.03125
                },
                {
                    "name": "E2",
                    "midi": 40,
                    "time": 212.8499999999981,
                    "velocity": 0.3543307086614173,
                    "duration": 0.03125
                },
                {
                    "name": "E2",
                    "midi": 40,
                    "time": 212.88749999999808,
                    "velocity": 0.3543307086614173,
                    "duration": 0.03125
                },
                {
                    "name": "E2",
                    "midi": 40,
                    "time": 212.92499999999808,
                    "velocity": 0.3543307086614173,
                    "duration": 0.03125
                },
                {
                    "name": "E2",
                    "midi": 40,
                    "time": 212.96249999999807,
                    "velocity": 0.3543307086614173,
                    "duration": 0.03125
                },
                {
                    "name": "E2",
                    "midi": 40,
                    "time": 212.99999999999807,
                    "velocity": 0.3543307086614173,
                    "duration": 0.03125
                },
                {
                    "name": "E2",
                    "midi": 40,
                    "time": 213.03749999999806,
                    "velocity": 0.3543307086614173,
                    "duration": 0.03125
                },
                {
                    "name": "E2",
                    "midi": 40,
                    "time": 213.07499999999806,
                    "velocity": 0.3543307086614173,
                    "duration": 0.03125
                },
                {
                    "name": "E2",
                    "midi": 40,
                    "time": 213.11249999999805,
                    "velocity": 0.3543307086614173,
                    "duration": 0.03125
                },
                {
                    "name": "E2",
                    "midi": 40,
                    "time": 213.14999999999804,
                    "velocity": 0.3543307086614173,
                    "duration": 0.03125
                },
                {
                    "name": "E2",
                    "midi": 40,
                    "time": 213.18749999999804,
                    "velocity": 0.3543307086614173,
                    "duration": 0.03125
                },
                {
                    "name": "E2",
                    "midi": 40,
                    "time": 213.22499999999803,
                    "velocity": 0.3543307086614173,
                    "duration": 0.03125
                },
                {
                    "name": "E2",
                    "midi": 40,
                    "time": 213.26249999999803,
                    "velocity": 0.3543307086614173,
                    "duration": 0.03125
                },
                {
                    "name": "E2",
                    "midi": 40,
                    "time": 213.29999999999802,
                    "velocity": 0.3543307086614173,
                    "duration": 0.03125
                },
                {
                    "name": "E2",
                    "midi": 40,
                    "time": 213.33749999999802,
                    "velocity": 0.3543307086614173,
                    "duration": 0.03125
                },
                {
                    "name": "E2",
                    "midi": 40,
                    "time": 213.374999999998,
                    "velocity": 0.3543307086614173,
                    "duration": 0.03125
                },
                {
                    "name": "E2",
                    "midi": 40,
                    "time": 213.412499999998,
                    "velocity": 0.3543307086614173,
                    "duration": 0.03125
                },
                {
                    "name": "E2",
                    "midi": 40,
                    "time": 213.449999999998,
                    "velocity": 0.3543307086614173,
                    "duration": 0.03125
                },
                {
                    "name": "E2",
                    "midi": 40,
                    "time": 213.487499999998,
                    "velocity": 0.3543307086614173,
                    "duration": 0.03125
                },
                {
                    "name": "E2",
                    "midi": 40,
                    "time": 213.524999999998,
                    "velocity": 0.3543307086614173,
                    "duration": 0.03125
                },
                {
                    "name": "E2",
                    "midi": 40,
                    "time": 213.56249999999798,
                    "velocity": 0.3543307086614173,
                    "duration": 0.03125
                },
                {
                    "name": "E2",
                    "midi": 40,
                    "time": 216.299999999998,
                    "velocity": 0.49606299212598426,
                    "duration": 0.03125
                },
                {
                    "name": "E2",
                    "midi": 40,
                    "time": 216.337499999998,
                    "velocity": 0.3543307086614173,
                    "duration": 0.03125
                },
                {
                    "name": "E2",
                    "midi": 40,
                    "time": 216.37499999999798,
                    "velocity": 0.3543307086614173,
                    "duration": 0.03125
                },
                {
                    "name": "E2",
                    "midi": 40,
                    "time": 216.41249999999798,
                    "velocity": 0.3543307086614173,
                    "duration": 0.03125
                },
                {
                    "name": "E2",
                    "midi": 40,
                    "time": 216.44999999999797,
                    "velocity": 0.3543307086614173,
                    "duration": 0.03125
                },
                {
                    "name": "E2",
                    "midi": 40,
                    "time": 216.48749999999797,
                    "velocity": 0.3543307086614173,
                    "duration": 0.03125
                },
                {
                    "name": "E2",
                    "midi": 40,
                    "time": 216.52499999999796,
                    "velocity": 0.3543307086614173,
                    "duration": 0.03125
                },
                {
                    "name": "E2",
                    "midi": 40,
                    "time": 216.56249999999795,
                    "velocity": 0.3543307086614173,
                    "duration": 0.03125
                },
                {
                    "name": "E2",
                    "midi": 40,
                    "time": 216.59999999999795,
                    "velocity": 0.3543307086614173,
                    "duration": 0.03125
                },
                {
                    "name": "E2",
                    "midi": 40,
                    "time": 216.63749999999794,
                    "velocity": 0.3543307086614173,
                    "duration": 0.03125
                },
                {
                    "name": "E2",
                    "midi": 40,
                    "time": 216.67499999999794,
                    "velocity": 0.3543307086614173,
                    "duration": 0.03125
                },
                {
                    "name": "E2",
                    "midi": 40,
                    "time": 216.71249999999793,
                    "velocity": 0.3543307086614173,
                    "duration": 0.03125
                },
                {
                    "name": "E2",
                    "midi": 40,
                    "time": 216.74999999999793,
                    "velocity": 0.3543307086614173,
                    "duration": 0.03125
                },
                {
                    "name": "E2",
                    "midi": 40,
                    "time": 216.78749999999792,
                    "velocity": 0.3543307086614173,
                    "duration": 0.03125
                },
                {
                    "name": "E2",
                    "midi": 40,
                    "time": 216.8249999999979,
                    "velocity": 0.3543307086614173,
                    "duration": 0.03125
                },
                {
                    "name": "E2",
                    "midi": 40,
                    "time": 216.8624999999979,
                    "velocity": 0.3543307086614173,
                    "duration": 0.03125
                },
                {
                    "name": "E2",
                    "midi": 40,
                    "time": 216.8999999999979,
                    "velocity": 0.3543307086614173,
                    "duration": 0.03125
                },
                {
                    "name": "E2",
                    "midi": 40,
                    "time": 216.9374999999979,
                    "velocity": 0.3543307086614173,
                    "duration": 0.03125
                },
                {
                    "name": "E2",
                    "midi": 40,
                    "time": 216.9749999999979,
                    "velocity": 0.3543307086614173,
                    "duration": 0.03125
                },
                {
                    "name": "E2",
                    "midi": 40,
                    "time": 217.01249999999789,
                    "velocity": 0.3543307086614173,
                    "duration": 0.03125
                },
                {
                    "name": "E2",
                    "midi": 40,
                    "time": 217.04999999999788,
                    "velocity": 0.3543307086614173,
                    "duration": 0.03125
                },
                {
                    "name": "E2",
                    "midi": 40,
                    "time": 217.08749999999787,
                    "velocity": 0.3543307086614173,
                    "duration": 0.03125
                },
                {
                    "name": "E2",
                    "midi": 40,
                    "time": 217.12499999999787,
                    "velocity": 0.3543307086614173,
                    "duration": 0.03125
                },
                {
                    "name": "E2",
                    "midi": 40,
                    "time": 217.16249999999786,
                    "velocity": 0.3543307086614173,
                    "duration": 0.03125
                },
                {
                    "name": "E2",
                    "midi": 40,
                    "time": 247.19999999999786,
                    "velocity": 0.5905511811023622,
                    "duration": 0.29374999999998863
                },
                {
                    "name": "E2",
                    "midi": 40,
                    "time": 247.49999999999784,
                    "velocity": 0.5905511811023622,
                    "duration": 0.29374999999998863
                },
                {
                    "name": "E2",
                    "midi": 40,
                    "time": 248.09999999999783,
                    "velocity": 0.5905511811023622,
                    "duration": 0.29374999999998863
                },
                {
                    "name": "E2",
                    "midi": 40,
                    "time": 248.39999999999782,
                    "velocity": 0.5905511811023622,
                    "duration": 0.29374999999998863
                },
                {
                    "name": "E2",
                    "midi": 40,
                    "time": 248.9999999999978,
                    "velocity": 0.5905511811023622,
                    "duration": 0.29374999999998863
                },
                {
                    "name": "E2",
                    "midi": 40,
                    "time": 249.2999999999978,
                    "velocity": 0.5905511811023622,
                    "duration": 0.29374999999998863
                },
                {
                    "name": "E2",
                    "midi": 40,
                    "time": 249.8999999999978,
                    "velocity": 0.5905511811023622,
                    "duration": 0.29374999999998863
                },
                {
                    "name": "E2",
                    "midi": 40,
                    "time": 250.19999999999777,
                    "velocity": 0.5905511811023622,
                    "duration": 0.29374999999998863
                },
                {
                    "name": "E2",
                    "midi": 40,
                    "time": 250.79999999999777,
                    "velocity": 0.5905511811023622,
                    "duration": 0.29374999999998863
                },
                {
                    "name": "E2",
                    "midi": 40,
                    "time": 251.09999999999775,
                    "velocity": 0.5905511811023622,
                    "duration": 0.29374999999998863
                },
                {
                    "name": "E2",
                    "midi": 40,
                    "time": 251.69999999999774,
                    "velocity": 0.5905511811023622,
                    "duration": 0.29374999999998863
                },
                {
                    "name": "E2",
                    "midi": 40,
                    "time": 251.99999999999773,
                    "velocity": 0.5905511811023622,
                    "duration": 0.29374999999998863
                },
                {
                    "name": "E2",
                    "midi": 40,
                    "time": 252.2999999999977,
                    "velocity": 0.5905511811023622,
                    "duration": 0.29374999999998863
                },
                {
                    "name": "E2",
                    "midi": 40,
                    "time": 253.1999999999977,
                    "velocity": 0.5905511811023622,
                    "duration": 0.07499999999998863
                },
                {
                    "name": "E2",
                    "midi": 40,
                    "time": 253.27499999999768,
                    "velocity": 0.5905511811023622,
                    "duration": 0.07499999999998863
                },
                {
                    "name": "E2",
                    "midi": 40,
                    "time": 253.34999999999766,
                    "velocity": 0.5905511811023622,
                    "duration": 0.07499999999998863
                },
                {
                    "name": "E2",
                    "midi": 40,
                    "time": 253.42499999999765,
                    "velocity": 0.5905511811023622,
                    "duration": 0.07499999999998863
                },
                {
                    "name": "E2",
                    "midi": 40,
                    "time": 253.49999999999764,
                    "velocity": 0.5905511811023622,
                    "duration": 0.07499999999998863
                },
                {
                    "name": "E2",
                    "midi": 40,
                    "time": 253.57499999999763,
                    "velocity": 0.5905511811023622,
                    "duration": 0.07499999999998863
                },
                {
                    "name": "E2",
                    "midi": 40,
                    "time": 253.64999999999762,
                    "velocity": 0.5905511811023622,
                    "duration": 0.07499999999998863
                },
                {
                    "name": "E2",
                    "midi": 40,
                    "time": 253.7249999999976,
                    "velocity": 0.5905511811023622,
                    "duration": 0.07499999999998863
                },
                {
                    "name": "E2",
                    "midi": 40,
                    "time": 253.7999999999976,
                    "velocity": 0.5905511811023622,
                    "duration": 0.07499999999998863
                },
                {
                    "name": "E2",
                    "midi": 40,
                    "time": 253.87499999999758,
                    "velocity": 0.5905511811023622,
                    "duration": 0.07499999999998863
                },
                {
                    "name": "E2",
                    "midi": 40,
                    "time": 253.94999999999757,
                    "velocity": 0.5905511811023622,
                    "duration": 0.07499999999998863
                },
                {
                    "name": "E2",
                    "midi": 40,
                    "time": 254.02499999999756,
                    "velocity": 0.5905511811023622,
                    "duration": 0.07499999999998863
                },
                {
                    "name": "E2",
                    "midi": 40,
                    "time": 254.09999999999755,
                    "velocity": 0.5905511811023622,
                    "duration": 0.29374999999998863
                },
                {
                    "name": "E2",
                    "midi": 40,
                    "time": 254.39999999999753,
                    "velocity": 0.5905511811023622,
                    "duration": 0.29374999999998863
                },
                {
                    "name": "E2",
                    "midi": 40,
                    "time": 254.69999999999752,
                    "velocity": 0.5905511811023622,
                    "duration": 0.29374999999998863
                },
                {
                    "name": "E2",
                    "midi": 40,
                    "time": 255.2999999999975,
                    "velocity": 0.5905511811023622,
                    "duration": 0.29374999999998863
                },
                {
                    "name": "E2",
                    "midi": 40,
                    "time": 255.5999999999975,
                    "velocity": 0.5905511811023622,
                    "duration": 0.29374999999998863
                },
                {
                    "name": "E2",
                    "midi": 40,
                    "time": 256.1999999999975,
                    "velocity": 0.5905511811023622,
                    "duration": 0.29374999999998863
                },
                {
                    "name": "E2",
                    "midi": 40,
                    "time": 256.4999999999975,
                    "velocity": 0.5905511811023622,
                    "duration": 0.29374999999998863
                },
                {
                    "name": "E2",
                    "midi": 40,
                    "time": 257.09999999999746,
                    "velocity": 0.5905511811023622,
                    "duration": 0.29374999999998863
                },
                {
                    "name": "E2",
                    "midi": 40,
                    "time": 257.3999999999975,
                    "velocity": 0.5905511811023622,
                    "duration": 0.29374999999998863
                },
                {
                    "name": "E2",
                    "midi": 40,
                    "time": 257.6999999999975,
                    "velocity": 0.5905511811023622,
                    "duration": 0.29374999999998863
                },
                {
                    "name": "E2",
                    "midi": 40,
                    "time": 258.59999999999746,
                    "velocity": 0.5905511811023622,
                    "duration": 0.29374999999998863
                },
                {
                    "name": "E2",
                    "midi": 40,
                    "time": 263.99999999999744,
                    "velocity": 0.8267716535433071,
                    "duration": 0.29374999999998863
                },
                {
                    "name": "E2",
                    "midi": 40,
                    "time": 264.8999999999974,
                    "velocity": 0.8267716535433071,
                    "duration": 0.29374999999998863
                },
                {
                    "name": "E2",
                    "midi": 40,
                    "time": 265.7999999999974,
                    "velocity": 0.8267716535433071,
                    "duration": 0.29374999999998863
                },
                {
                    "name": "E2",
                    "midi": 40,
                    "time": 266.6999999999974,
                    "velocity": 0.5905511811023622,
                    "duration": 0.07499999999998863
                },
                {
                    "name": "E2",
                    "midi": 40,
                    "time": 266.77499999999736,
                    "velocity": 0.5905511811023622,
                    "duration": 0.07499999999998863
                },
                {
                    "name": "E2",
                    "midi": 40,
                    "time": 266.84999999999735,
                    "velocity": 0.5905511811023622,
                    "duration": 0.07499999999998863
                },
                {
                    "name": "E2",
                    "midi": 40,
                    "time": 266.92499999999734,
                    "velocity": 0.5905511811023622,
                    "duration": 0.07499999999998863
                },
                {
                    "name": "E2",
                    "midi": 40,
                    "time": 266.9999999999973,
                    "velocity": 0.5905511811023622,
                    "duration": 0.29374999999998863
                },
                {
                    "name": "E2",
                    "midi": 40,
                    "time": 271.1999999999973,
                    "velocity": 0.8267716535433071,
                    "duration": 0.29374999999998863
                },
                {
                    "name": "E2",
                    "midi": 40,
                    "time": 272.0999999999973,
                    "velocity": 0.8267716535433071,
                    "duration": 0.29374999999998863
                },
                {
                    "name": "E2",
                    "midi": 40,
                    "time": 272.99999999999727,
                    "velocity": 0.8267716535433071,
                    "duration": 0.29374999999998863
                },
                {
                    "name": "E2",
                    "midi": 40,
                    "time": 273.89999999999725,
                    "velocity": 0.5905511811023622,
                    "duration": 0.07499999999998863
                },
                {
                    "name": "E2",
                    "midi": 40,
                    "time": 273.97499999999724,
                    "velocity": 0.5905511811023622,
                    "duration": 0.07499999999998863
                },
                {
                    "name": "E2",
                    "midi": 40,
                    "time": 274.0499999999972,
                    "velocity": 0.5905511811023622,
                    "duration": 0.07499999999998863
                },
                {
                    "name": "E2",
                    "midi": 40,
                    "time": 274.1249999999972,
                    "velocity": 0.5905511811023622,
                    "duration": 0.07499999999998863
                },
                {
                    "name": "E2",
                    "midi": 40,
                    "time": 274.1999999999972,
                    "velocity": 0.5905511811023622,
                    "duration": 0.29374999999998863
                },
                {
                    "name": "E2",
                    "midi": 40,
                    "time": 280.1999999999972,
                    "velocity": 0.5905511811023622,
                    "duration": 0.03125
                },
                {
                    "name": "E2",
                    "midi": 40,
                    "time": 280.2374999999972,
                    "velocity": 0.5905511811023622,
                    "duration": 0.03125
                },
                {
                    "name": "E2",
                    "midi": 40,
                    "time": 280.27499999999725,
                    "velocity": 0.5905511811023622,
                    "duration": 0.03125
                },
                {
                    "name": "E2",
                    "midi": 40,
                    "time": 280.31249999999727,
                    "velocity": 0.5905511811023622,
                    "duration": 0.03125
                },
                {
                    "name": "E2",
                    "midi": 40,
                    "time": 280.3499999999973,
                    "velocity": 0.5905511811023622,
                    "duration": 0.03125
                },
                {
                    "name": "E2",
                    "midi": 40,
                    "time": 280.3874999999973,
                    "velocity": 0.5905511811023622,
                    "duration": 0.03125
                },
                {
                    "name": "E2",
                    "midi": 40,
                    "time": 280.42499999999734,
                    "velocity": 0.5905511811023622,
                    "duration": 0.03125
                },
                {
                    "name": "E2",
                    "midi": 40,
                    "time": 280.46249999999736,
                    "velocity": 0.5905511811023622,
                    "duration": 0.03125
                },
                {
                    "name": "E2",
                    "midi": 40,
                    "time": 280.4999999999974,
                    "velocity": 0.5905511811023622,
                    "duration": 0.03125
                },
                {
                    "name": "E2",
                    "midi": 40,
                    "time": 280.5374999999974,
                    "velocity": 0.5905511811023622,
                    "duration": 0.03125
                },
                {
                    "name": "E2",
                    "midi": 40,
                    "time": 280.57499999999743,
                    "velocity": 0.5905511811023622,
                    "duration": 0.03125
                },
                {
                    "name": "E2",
                    "midi": 40,
                    "time": 280.61249999999745,
                    "velocity": 0.5905511811023622,
                    "duration": 0.03125
                },
                {
                    "name": "E2",
                    "midi": 40,
                    "time": 280.6499999999975,
                    "velocity": 0.5905511811023622,
                    "duration": 0.03125
                },
                {
                    "name": "E2",
                    "midi": 40,
                    "time": 280.6874999999975,
                    "velocity": 0.5905511811023622,
                    "duration": 0.03125
                },
                {
                    "name": "E2",
                    "midi": 40,
                    "time": 280.7249999999975,
                    "velocity": 0.5905511811023622,
                    "duration": 0.03125
                },
                {
                    "name": "E2",
                    "midi": 40,
                    "time": 280.76249999999754,
                    "velocity": 0.5905511811023622,
                    "duration": 0.03125
                },
                {
                    "name": "E2",
                    "midi": 40,
                    "time": 280.79999999999757,
                    "velocity": 0.5905511811023622,
                    "duration": 0.03125
                },
                {
                    "name": "E2",
                    "midi": 40,
                    "time": 280.8374999999976,
                    "velocity": 0.5905511811023622,
                    "duration": 0.03125
                },
                {
                    "name": "E2",
                    "midi": 40,
                    "time": 280.8749999999976,
                    "velocity": 0.5905511811023622,
                    "duration": 0.03125
                },
                {
                    "name": "E2",
                    "midi": 40,
                    "time": 280.91249999999764,
                    "velocity": 0.5905511811023622,
                    "duration": 0.03125
                },
                {
                    "name": "E2",
                    "midi": 40,
                    "time": 280.94999999999766,
                    "velocity": 0.5905511811023622,
                    "duration": 0.03125
                },
                {
                    "name": "E2",
                    "midi": 40,
                    "time": 280.9874999999977,
                    "velocity": 0.5905511811023622,
                    "duration": 0.03125
                },
                {
                    "name": "E2",
                    "midi": 40,
                    "time": 281.0249999999977,
                    "velocity": 0.5905511811023622,
                    "duration": 0.03125
                },
                {
                    "name": "E2",
                    "midi": 40,
                    "time": 281.0624999999977,
                    "velocity": 0.5905511811023622,
                    "duration": 0.03125
                },
                {
                    "name": "E2",
                    "midi": 40,
                    "time": 281.09999999999775,
                    "velocity": 0.5905511811023622,
                    "duration": 0.29374999999998863
                },
                {
                    "name": "E2",
                    "midi": 40,
                    "time": 281.39999999999776,
                    "velocity": 0.5905511811023622,
                    "duration": 0.29374999999998863
                },
                {
                    "name": "E2",
                    "midi": 40,
                    "time": 281.6999999999978,
                    "velocity": 0.5905511811023622,
                    "duration": 0.29374999999998863
                },
                {
                    "name": "E2",
                    "midi": 40,
                    "time": 281.9999999999978,
                    "velocity": 0.5905511811023622,
                    "duration": 0.29374999999998863
                },
                {
                    "name": "E2",
                    "midi": 40,
                    "time": 282.2999999999978,
                    "velocity": 0.5905511811023622,
                    "duration": 0.29374999999998863
                },
                {
                    "name": "E2",
                    "midi": 40,
                    "time": 282.5999999999978,
                    "velocity": 0.5905511811023622,
                    "duration": 0.29374999999998863
                },
                {
                    "name": "E2",
                    "midi": 40,
                    "time": 282.8999999999978,
                    "velocity": 0.5905511811023622,
                    "duration": 0.07499999999998863
                },
                {
                    "name": "E2",
                    "midi": 40,
                    "time": 282.9749999999978,
                    "velocity": 0.5905511811023622,
                    "duration": 0.07499999999998863
                },
                {
                    "name": "E2",
                    "midi": 40,
                    "time": 283.0499999999978,
                    "velocity": 0.5905511811023622,
                    "duration": 0.07499999999998863
                },
                {
                    "name": "E2",
                    "midi": 40,
                    "time": 283.1249999999978,
                    "velocity": 0.5905511811023622,
                    "duration": 0.06875000000002274
                },
                {
                    "name": "E2",
                    "midi": 40,
                    "time": 283.7999999999978,
                    "velocity": 0.5905511811023622,
                    "duration": 0.07499999999998863
                },
                {
                    "name": "E2",
                    "midi": 40,
                    "time": 283.8749999999978,
                    "velocity": 0.5905511811023622,
                    "duration": 0.07499999999998863
                },
                {
                    "name": "E2",
                    "midi": 40,
                    "time": 283.9499999999978,
                    "velocity": 0.5905511811023622,
                    "duration": 0.07499999999998863
                },
                {
                    "name": "E2",
                    "midi": 40,
                    "time": 284.02499999999776,
                    "velocity": 0.5905511811023622,
                    "duration": 0.06875000000002274
                },
                {
                    "name": "E2",
                    "midi": 40,
                    "time": 284.6999999999978,
                    "velocity": 0.5905511811023622,
                    "duration": 0.29374999999998863
                },
                {
                    "name": "E2",
                    "midi": 40,
                    "time": 285.59999999999775,
                    "velocity": 0.5905511811023622,
                    "duration": 0.29374999999998863
                },
                {
                    "name": "E2",
                    "midi": 40,
                    "time": 286.34999999999775,
                    "velocity": 0.5905511811023622,
                    "duration": 0.14375000000001137
                },
                {
                    "name": "E2",
                    "midi": 40,
                    "time": 286.4999999999978,
                    "velocity": 0.5905511811023622,
                    "duration": 0.07499999999998863
                },
                {
                    "name": "E2",
                    "midi": 40,
                    "time": 286.5749999999978,
                    "velocity": 0.5905511811023622,
                    "duration": 0.07499999999998863
                },
                {
                    "name": "E2",
                    "midi": 40,
                    "time": 286.64999999999776,
                    "velocity": 0.5905511811023622,
                    "duration": 0.07499999999998863
                },
                {
                    "name": "E2",
                    "midi": 40,
                    "time": 286.72499999999775,
                    "velocity": 0.5905511811023622,
                    "duration": 0.07499999999998863
                },
                {
                    "name": "E2",
                    "midi": 40,
                    "time": 286.79999999999774,
                    "velocity": 0.5905511811023622,
                    "duration": 0.29374999999998863
                }
            ],
            "controlChanges": {
                "7": [
                    {
                        "number": 7,
                        "time": 0,
                        "value": 0.84251968503937
                    }
                ],
                "10": [
                    {
                        "number": 10,
                        "time": 0,
                        "value": 0.3543307086614173
                    }
                ],
                "91": [
                    {
                        "number": 91,
                        "time": 0,
                        "value": 0.2992125984251969
                    }
                ]
            },
            "id": 15,
            "instrumentNumber": 49,
            "instrumentFamily": "drums",
            "channelNumber": 9,
            "isPercussion": true
        },
        {
            "startTime": 15.6,
            "duration": 286.79374999999754,
            "length": 367,
            "notes": [
                {
                    "name": "A3",
                    "midi": 57,
                    "time": 15.6,
                    "velocity": 0.5905511811023622,
                    "duration": 0.2937499999999993
                },
                {
                    "name": "A2",
                    "midi": 45,
                    "time": 15.6,
                    "velocity": 0.5905511811023622,
                    "duration": 0.2937499999999993
                },
                {
                    "name": "A2",
                    "midi": 45,
                    "time": 16.5,
                    "velocity": 0.5905511811023622,
                    "duration": 0.2937499999999993
                },
                {
                    "name": "A3",
                    "midi": 57,
                    "time": 16.5,
                    "velocity": 0.5905511811023622,
                    "duration": 0.2937499999999993
                },
                {
                    "name": "A2",
                    "midi": 45,
                    "time": 17.4,
                    "velocity": 0.5905511811023622,
                    "duration": 0.2937499999999993
                },
                {
                    "name": "A3",
                    "midi": 57,
                    "time": 17.4,
                    "velocity": 0.5905511811023622,
                    "duration": 0.2937499999999993
                },
                {
                    "name": "A2",
                    "midi": 45,
                    "time": 18.299999999999997,
                    "velocity": 0.5905511811023622,
                    "duration": 0.2937499999999993
                },
                {
                    "name": "A3",
                    "midi": 57,
                    "time": 18.299999999999997,
                    "velocity": 0.5905511811023622,
                    "duration": 0.2937499999999993
                },
                {
                    "name": "A2",
                    "midi": 45,
                    "time": 19.199999999999996,
                    "velocity": 0.5905511811023622,
                    "duration": 0.2937499999999993
                },
                {
                    "name": "A3",
                    "midi": 57,
                    "time": 19.199999999999996,
                    "velocity": 0.5905511811023622,
                    "duration": 0.2937499999999993
                },
                {
                    "name": "A2",
                    "midi": 45,
                    "time": 20.099999999999994,
                    "velocity": 0.5905511811023622,
                    "duration": 0.2937499999999993
                },
                {
                    "name": "A3",
                    "midi": 57,
                    "time": 20.099999999999994,
                    "velocity": 0.5905511811023622,
                    "duration": 0.2937499999999993
                },
                {
                    "name": "A2",
                    "midi": 45,
                    "time": 20.999999999999993,
                    "velocity": 0.5905511811023622,
                    "duration": 0.2937499999999993
                },
                {
                    "name": "A3",
                    "midi": 57,
                    "time": 20.999999999999993,
                    "velocity": 0.5905511811023622,
                    "duration": 0.2937499999999993
                },
                {
                    "name": "A2",
                    "midi": 45,
                    "time": 21.89999999999999,
                    "velocity": 0.5905511811023622,
                    "duration": 0.2937499999999993
                },
                {
                    "name": "A3",
                    "midi": 57,
                    "time": 21.89999999999999,
                    "velocity": 0.5905511811023622,
                    "duration": 0.2937499999999993
                },
                {
                    "name": "A2",
                    "midi": 45,
                    "time": 22.79999999999999,
                    "velocity": 0.5905511811023622,
                    "duration": 0.2937499999999993
                },
                {
                    "name": "A3",
                    "midi": 57,
                    "time": 22.79999999999999,
                    "velocity": 0.5905511811023622,
                    "duration": 0.2937499999999993
                },
                {
                    "name": "A2",
                    "midi": 45,
                    "time": 23.69999999999999,
                    "velocity": 0.5905511811023622,
                    "duration": 0.2937499999999993
                },
                {
                    "name": "A3",
                    "midi": 57,
                    "time": 23.69999999999999,
                    "velocity": 0.5905511811023622,
                    "duration": 0.2937499999999993
                },
                {
                    "name": "A2",
                    "midi": 45,
                    "time": 24.599999999999987,
                    "velocity": 0.5905511811023622,
                    "duration": 0.2937499999999993
                },
                {
                    "name": "A3",
                    "midi": 57,
                    "time": 24.599999999999987,
                    "velocity": 0.5905511811023622,
                    "duration": 0.2937499999999993
                },
                {
                    "name": "A2",
                    "midi": 45,
                    "time": 25.499999999999986,
                    "velocity": 0.5905511811023622,
                    "duration": 0.2937499999999993
                },
                {
                    "name": "A3",
                    "midi": 57,
                    "time": 25.499999999999986,
                    "velocity": 0.5905511811023622,
                    "duration": 0.2937499999999993
                },
                {
                    "name": "A2",
                    "midi": 45,
                    "time": 26.399999999999984,
                    "velocity": 0.5905511811023622,
                    "duration": 0.2937499999999993
                },
                {
                    "name": "A3",
                    "midi": 57,
                    "time": 26.399999999999984,
                    "velocity": 0.5905511811023622,
                    "duration": 0.2937499999999993
                },
                {
                    "name": "A2",
                    "midi": 45,
                    "time": 27.299999999999983,
                    "velocity": 0.5905511811023622,
                    "duration": 0.2937499999999993
                },
                {
                    "name": "A3",
                    "midi": 57,
                    "time": 27.299999999999983,
                    "velocity": 0.5905511811023622,
                    "duration": 0.2937499999999993
                },
                {
                    "name": "A2",
                    "midi": 45,
                    "time": 28.19999999999998,
                    "velocity": 0.5905511811023622,
                    "duration": 0.2937499999999993
                },
                {
                    "name": "A3",
                    "midi": 57,
                    "time": 28.19999999999998,
                    "velocity": 0.5905511811023622,
                    "duration": 0.2937499999999993
                },
                {
                    "name": "A2",
                    "midi": 45,
                    "time": 43.49999999999998,
                    "velocity": 0.49606299212598426,
                    "duration": 0.29375000000000284
                },
                {
                    "name": "A3",
                    "midi": 57,
                    "time": 43.49999999999998,
                    "velocity": 0.49606299212598426,
                    "duration": 0.29375000000000284
                },
                {
                    "name": "A2",
                    "midi": 45,
                    "time": 47.09999999999998,
                    "velocity": 0.49606299212598426,
                    "duration": 0.29375000000000284
                },
                {
                    "name": "A3",
                    "midi": 57,
                    "time": 47.09999999999998,
                    "velocity": 0.49606299212598426,
                    "duration": 0.29375000000000284
                },
                {
                    "name": "A2",
                    "midi": 45,
                    "time": 77.69999999999999,
                    "velocity": 0.5905511811023622,
                    "duration": 0.29375000000000284
                },
                {
                    "name": "A3",
                    "midi": 57,
                    "time": 77.69999999999999,
                    "velocity": 0.5905511811023622,
                    "duration": 0.29375000000000284
                },
                {
                    "name": "A2",
                    "midi": 45,
                    "time": 78.6,
                    "velocity": 0.5905511811023622,
                    "duration": 0.29375000000000284
                },
                {
                    "name": "A3",
                    "midi": 57,
                    "time": 78.6,
                    "velocity": 0.5905511811023622,
                    "duration": 0.29375000000000284
                },
                {
                    "name": "A2",
                    "midi": 45,
                    "time": 79.5,
                    "velocity": 0.5905511811023622,
                    "duration": 0.29375000000000284
                },
                {
                    "name": "A3",
                    "midi": 57,
                    "time": 79.5,
                    "velocity": 0.5905511811023622,
                    "duration": 0.29375000000000284
                },
                {
                    "name": "A2",
                    "midi": 45,
                    "time": 80.4,
                    "velocity": 0.5905511811023622,
                    "duration": 0.29375000000000284
                },
                {
                    "name": "A3",
                    "midi": 57,
                    "time": 80.4,
                    "velocity": 0.5905511811023622,
                    "duration": 0.29375000000000284
                },
                {
                    "name": "A2",
                    "midi": 45,
                    "time": 81.30000000000001,
                    "velocity": 0.5905511811023622,
                    "duration": 0.29375000000000284
                },
                {
                    "name": "A3",
                    "midi": 57,
                    "time": 81.30000000000001,
                    "velocity": 0.5905511811023622,
                    "duration": 0.29375000000000284
                },
                {
                    "name": "A2",
                    "midi": 45,
                    "time": 82.20000000000002,
                    "velocity": 0.5905511811023622,
                    "duration": 0.29375000000000284
                },
                {
                    "name": "A3",
                    "midi": 57,
                    "time": 82.20000000000002,
                    "velocity": 0.5905511811023622,
                    "duration": 0.29375000000000284
                },
                {
                    "name": "A2",
                    "midi": 45,
                    "time": 83.10000000000002,
                    "velocity": 0.5905511811023622,
                    "duration": 0.29375000000000284
                },
                {
                    "name": "A3",
                    "midi": 57,
                    "time": 83.10000000000002,
                    "velocity": 0.5905511811023622,
                    "duration": 0.29375000000000284
                },
                {
                    "name": "A2",
                    "midi": 45,
                    "time": 84.00000000000003,
                    "velocity": 0.5905511811023622,
                    "duration": 0.29375000000000284
                },
                {
                    "name": "A3",
                    "midi": 57,
                    "time": 84.00000000000003,
                    "velocity": 0.5905511811023622,
                    "duration": 0.29375000000000284
                },
                {
                    "name": "A2",
                    "midi": 45,
                    "time": 84.90000000000003,
                    "velocity": 0.5905511811023622,
                    "duration": 0.29375000000000284
                },
                {
                    "name": "A3",
                    "midi": 57,
                    "time": 84.90000000000003,
                    "velocity": 0.5905511811023622,
                    "duration": 0.29375000000000284
                },
                {
                    "name": "A2",
                    "midi": 45,
                    "time": 85.80000000000004,
                    "velocity": 0.5905511811023622,
                    "duration": 0.29375000000000284
                },
                {
                    "name": "A3",
                    "midi": 57,
                    "time": 85.80000000000004,
                    "velocity": 0.5905511811023622,
                    "duration": 0.29375000000000284
                },
                {
                    "name": "A2",
                    "midi": 45,
                    "time": 86.70000000000005,
                    "velocity": 0.5905511811023622,
                    "duration": 0.29375000000000284
                },
                {
                    "name": "A3",
                    "midi": 57,
                    "time": 86.70000000000005,
                    "velocity": 0.5905511811023622,
                    "duration": 0.29375000000000284
                },
                {
                    "name": "A2",
                    "midi": 45,
                    "time": 87.60000000000005,
                    "velocity": 0.5905511811023622,
                    "duration": 0.29375000000000284
                },
                {
                    "name": "A3",
                    "midi": 57,
                    "time": 87.60000000000005,
                    "velocity": 0.5905511811023622,
                    "duration": 0.29375000000000284
                },
                {
                    "name": "A2",
                    "midi": 45,
                    "time": 88.50000000000006,
                    "velocity": 0.5905511811023622,
                    "duration": 0.29375000000000284
                },
                {
                    "name": "A3",
                    "midi": 57,
                    "time": 88.50000000000006,
                    "velocity": 0.5905511811023622,
                    "duration": 0.29375000000000284
                },
                {
                    "name": "A2",
                    "midi": 45,
                    "time": 89.40000000000006,
                    "velocity": 0.5905511811023622,
                    "duration": 0.29375000000000284
                },
                {
                    "name": "A3",
                    "midi": 57,
                    "time": 89.40000000000006,
                    "velocity": 0.5905511811023622,
                    "duration": 0.29375000000000284
                },
                {
                    "name": "A2",
                    "midi": 45,
                    "time": 90.30000000000007,
                    "velocity": 0.5905511811023622,
                    "duration": 0.29375000000000284
                },
                {
                    "name": "A3",
                    "midi": 57,
                    "time": 90.30000000000007,
                    "velocity": 0.5905511811023622,
                    "duration": 0.29375000000000284
                },
                {
                    "name": "A2",
                    "midi": 45,
                    "time": 120.90000000000006,
                    "velocity": 0.7244094488188977,
                    "duration": 0.29375000000000284
                },
                {
                    "name": "A3",
                    "midi": 57,
                    "time": 120.90000000000006,
                    "velocity": 0.7244094488188977,
                    "duration": 0.29375000000000284
                },
                {
                    "name": "A3",
                    "midi": 57,
                    "time": 121.20000000000006,
                    "velocity": 0.7244094488188977,
                    "duration": 0.14374999999999716
                },
                {
                    "name": "A3",
                    "midi": 57,
                    "time": 121.35000000000005,
                    "velocity": 0.7244094488188977,
                    "duration": 0.14374999999999716
                },
                {
                    "name": "A3",
                    "midi": 57,
                    "time": 121.50000000000004,
                    "velocity": 0.7244094488188977,
                    "duration": 0.29375000000000284
                },
                {
                    "name": "A3",
                    "midi": 57,
                    "time": 121.80000000000004,
                    "velocity": 0.7244094488188977,
                    "duration": 0.29375000000000284
                },
                {
                    "name": "A3",
                    "midi": 57,
                    "time": 122.10000000000004,
                    "velocity": 0.7244094488188977,
                    "duration": 0.29375000000000284
                },
                {
                    "name": "A2",
                    "midi": 45,
                    "time": 122.40000000000003,
                    "velocity": 0.7244094488188977,
                    "duration": 0.29375000000000284
                },
                {
                    "name": "A3",
                    "midi": 57,
                    "time": 122.40000000000003,
                    "velocity": 0.7244094488188977,
                    "duration": 0.29375000000000284
                },
                {
                    "name": "A2",
                    "midi": 45,
                    "time": 122.70000000000003,
                    "velocity": 0.7244094488188977,
                    "duration": 0.29375000000000284
                },
                {
                    "name": "A3",
                    "midi": 57,
                    "time": 122.70000000000003,
                    "velocity": 0.7244094488188977,
                    "duration": 0.29375000000000284
                },
                {
                    "name": "A3",
                    "midi": 57,
                    "time": 123.00000000000003,
                    "velocity": 0.7244094488188977,
                    "duration": 0.14374999999999716
                },
                {
                    "name": "A3",
                    "midi": 57,
                    "time": 123.15000000000002,
                    "velocity": 0.7244094488188977,
                    "duration": 0.14374999999999716
                },
                {
                    "name": "A3",
                    "midi": 57,
                    "time": 123.30000000000001,
                    "velocity": 0.7244094488188977,
                    "duration": 0.29375000000000284
                },
                {
                    "name": "A3",
                    "midi": 57,
                    "time": 123.60000000000001,
                    "velocity": 0.7244094488188977,
                    "duration": 0.29375000000000284
                },
                {
                    "name": "A3",
                    "midi": 57,
                    "time": 123.9,
                    "velocity": 0.7244094488188977,
                    "duration": 0.29375000000000284
                },
                {
                    "name": "A2",
                    "midi": 45,
                    "time": 124.2,
                    "velocity": 0.7244094488188977,
                    "duration": 0.29375000000000284
                },
                {
                    "name": "A3",
                    "midi": 57,
                    "time": 124.2,
                    "velocity": 0.7244094488188977,
                    "duration": 0.29375000000000284
                },
                {
                    "name": "A2",
                    "midi": 45,
                    "time": 124.5,
                    "velocity": 0.7244094488188977,
                    "duration": 0.29375000000000284
                },
                {
                    "name": "A3",
                    "midi": 57,
                    "time": 124.5,
                    "velocity": 0.7244094488188977,
                    "duration": 0.29375000000000284
                },
                {
                    "name": "A3",
                    "midi": 57,
                    "time": 124.8,
                    "velocity": 0.7244094488188977,
                    "duration": 0.14374999999999716
                },
                {
                    "name": "A3",
                    "midi": 57,
                    "time": 124.94999999999999,
                    "velocity": 0.7244094488188977,
                    "duration": 0.14374999999999716
                },
                {
                    "name": "A3",
                    "midi": 57,
                    "time": 125.09999999999998,
                    "velocity": 0.7244094488188977,
                    "duration": 0.29375000000000284
                },
                {
                    "name": "A3",
                    "midi": 57,
                    "time": 125.39999999999998,
                    "velocity": 0.7244094488188977,
                    "duration": 0.29375000000000284
                },
                {
                    "name": "A3",
                    "midi": 57,
                    "time": 125.69999999999997,
                    "velocity": 0.7244094488188977,
                    "duration": 0.29375000000000284
                },
                {
                    "name": "A2",
                    "midi": 45,
                    "time": 125.99999999999997,
                    "velocity": 0.7244094488188977,
                    "duration": 0.29375000000000284
                },
                {
                    "name": "A3",
                    "midi": 57,
                    "time": 125.99999999999997,
                    "velocity": 0.7244094488188977,
                    "duration": 0.29375000000000284
                },
                {
                    "name": "A2",
                    "midi": 45,
                    "time": 126.29999999999997,
                    "velocity": 0.7244094488188977,
                    "duration": 0.29375000000000284
                },
                {
                    "name": "A3",
                    "midi": 57,
                    "time": 126.29999999999997,
                    "velocity": 0.7244094488188977,
                    "duration": 0.29375000000000284
                },
                {
                    "name": "A3",
                    "midi": 57,
                    "time": 126.59999999999997,
                    "velocity": 0.7244094488188977,
                    "duration": 0.14374999999999716
                },
                {
                    "name": "A3",
                    "midi": 57,
                    "time": 126.74999999999996,
                    "velocity": 0.7244094488188977,
                    "duration": 0.14374999999999716
                },
                {
                    "name": "A3",
                    "midi": 57,
                    "time": 126.89999999999995,
                    "velocity": 0.7244094488188977,
                    "duration": 0.29375000000000284
                },
                {
                    "name": "A3",
                    "midi": 57,
                    "time": 127.19999999999995,
                    "velocity": 0.7244094488188977,
                    "duration": 0.29375000000000284
                },
                {
                    "name": "A3",
                    "midi": 57,
                    "time": 127.49999999999994,
                    "velocity": 0.7244094488188977,
                    "duration": 0.29375000000000284
                },
                {
                    "name": "A2",
                    "midi": 45,
                    "time": 127.79999999999994,
                    "velocity": 0.7244094488188977,
                    "duration": 0.29375000000000284
                },
                {
                    "name": "A3",
                    "midi": 57,
                    "time": 127.79999999999994,
                    "velocity": 0.7244094488188977,
                    "duration": 0.29375000000000284
                },
                {
                    "name": "A2",
                    "midi": 45,
                    "time": 128.09999999999994,
                    "velocity": 0.7244094488188977,
                    "duration": 0.29374999999998863
                },
                {
                    "name": "A3",
                    "midi": 57,
                    "time": 128.09999999999994,
                    "velocity": 0.7244094488188977,
                    "duration": 0.29374999999998863
                },
                {
                    "name": "A3",
                    "midi": 57,
                    "time": 128.39999999999992,
                    "velocity": 0.7244094488188977,
                    "duration": 0.14375000000001137
                },
                {
                    "name": "A3",
                    "midi": 57,
                    "time": 128.54999999999993,
                    "velocity": 0.7244094488188977,
                    "duration": 0.14375000000001137
                },
                {
                    "name": "A3",
                    "midi": 57,
                    "time": 128.69999999999993,
                    "velocity": 0.7244094488188977,
                    "duration": 0.29374999999998863
                },
                {
                    "name": "A3",
                    "midi": 57,
                    "time": 128.99999999999991,
                    "velocity": 0.7244094488188977,
                    "duration": 0.29374999999998863
                },
                {
                    "name": "A3",
                    "midi": 57,
                    "time": 129.2999999999999,
                    "velocity": 0.7244094488188977,
                    "duration": 0.29374999999998863
                },
                {
                    "name": "A2",
                    "midi": 45,
                    "time": 129.59999999999988,
                    "velocity": 0.7244094488188977,
                    "duration": 0.29374999999998863
                },
                {
                    "name": "A3",
                    "midi": 57,
                    "time": 129.59999999999988,
                    "velocity": 0.7244094488188977,
                    "duration": 0.29374999999998863
                },
                {
                    "name": "A2",
                    "midi": 45,
                    "time": 129.89999999999986,
                    "velocity": 0.7244094488188977,
                    "duration": 0.29374999999998863
                },
                {
                    "name": "A3",
                    "midi": 57,
                    "time": 129.89999999999986,
                    "velocity": 0.7244094488188977,
                    "duration": 0.29374999999998863
                },
                {
                    "name": "A3",
                    "midi": 57,
                    "time": 130.19999999999985,
                    "velocity": 0.7244094488188977,
                    "duration": 0.14375000000001137
                },
                {
                    "name": "A3",
                    "midi": 57,
                    "time": 130.34999999999985,
                    "velocity": 0.7244094488188977,
                    "duration": 0.14375000000001137
                },
                {
                    "name": "A3",
                    "midi": 57,
                    "time": 130.49999999999986,
                    "velocity": 0.7244094488188977,
                    "duration": 0.29374999999998863
                },
                {
                    "name": "A3",
                    "midi": 57,
                    "time": 130.79999999999984,
                    "velocity": 0.7244094488188977,
                    "duration": 0.29374999999998863
                },
                {
                    "name": "A3",
                    "midi": 57,
                    "time": 131.09999999999982,
                    "velocity": 0.7244094488188977,
                    "duration": 0.29374999999998863
                },
                {
                    "name": "A2",
                    "midi": 45,
                    "time": 131.3999999999998,
                    "velocity": 0.7244094488188977,
                    "duration": 0.29374999999998863
                },
                {
                    "name": "A3",
                    "midi": 57,
                    "time": 131.3999999999998,
                    "velocity": 0.7244094488188977,
                    "duration": 0.29374999999998863
                },
                {
                    "name": "A2",
                    "midi": 45,
                    "time": 131.6999999999998,
                    "velocity": 0.7244094488188977,
                    "duration": 0.29374999999998863
                },
                {
                    "name": "A3",
                    "midi": 57,
                    "time": 131.6999999999998,
                    "velocity": 0.7244094488188977,
                    "duration": 0.29374999999998863
                },
                {
                    "name": "A3",
                    "midi": 57,
                    "time": 131.99999999999977,
                    "velocity": 0.7244094488188977,
                    "duration": 0.14375000000001137
                },
                {
                    "name": "A3",
                    "midi": 57,
                    "time": 132.14999999999978,
                    "velocity": 0.7244094488188977,
                    "duration": 0.14375000000001137
                },
                {
                    "name": "A3",
                    "midi": 57,
                    "time": 132.29999999999978,
                    "velocity": 0.7244094488188977,
                    "duration": 0.29374999999998863
                },
                {
                    "name": "A3",
                    "midi": 57,
                    "time": 132.59999999999977,
                    "velocity": 0.7244094488188977,
                    "duration": 0.29374999999998863
                },
                {
                    "name": "A3",
                    "midi": 57,
                    "time": 132.89999999999975,
                    "velocity": 0.7244094488188977,
                    "duration": 0.29374999999998863
                },
                {
                    "name": "A2",
                    "midi": 45,
                    "time": 133.19999999999973,
                    "velocity": 0.7244094488188977,
                    "duration": 0.29374999999998863
                },
                {
                    "name": "A3",
                    "midi": 57,
                    "time": 133.19999999999973,
                    "velocity": 0.7244094488188977,
                    "duration": 0.29374999999998863
                },
                {
                    "name": "A2",
                    "midi": 45,
                    "time": 133.49999999999972,
                    "velocity": 0.7244094488188977,
                    "duration": 0.29374999999998863
                },
                {
                    "name": "A3",
                    "midi": 57,
                    "time": 133.49999999999972,
                    "velocity": 0.7244094488188977,
                    "duration": 0.29374999999998863
                },
                {
                    "name": "A3",
                    "midi": 57,
                    "time": 133.7999999999997,
                    "velocity": 0.7244094488188977,
                    "duration": 0.14375000000001137
                },
                {
                    "name": "A3",
                    "midi": 57,
                    "time": 133.9499999999997,
                    "velocity": 0.7244094488188977,
                    "duration": 0.14375000000001137
                },
                {
                    "name": "A3",
                    "midi": 57,
                    "time": 134.0999999999997,
                    "velocity": 0.7244094488188977,
                    "duration": 0.29374999999998863
                },
                {
                    "name": "A3",
                    "midi": 57,
                    "time": 134.3999999999997,
                    "velocity": 0.7244094488188977,
                    "duration": 0.29374999999998863
                },
                {
                    "name": "A3",
                    "midi": 57,
                    "time": 134.69999999999968,
                    "velocity": 0.7244094488188977,
                    "duration": 0.29374999999998863
                },
                {
                    "name": "A2",
                    "midi": 45,
                    "time": 134.99999999999966,
                    "velocity": 0.7244094488188977,
                    "duration": 0.29374999999998863
                },
                {
                    "name": "A3",
                    "midi": 57,
                    "time": 134.99999999999966,
                    "velocity": 0.7244094488188977,
                    "duration": 0.29374999999998863
                },
                {
                    "name": "A2",
                    "midi": 45,
                    "time": 135.29999999999964,
                    "velocity": 0.7244094488188977,
                    "duration": 0.29374999999998863
                },
                {
                    "name": "A3",
                    "midi": 57,
                    "time": 135.29999999999964,
                    "velocity": 0.7244094488188977,
                    "duration": 0.29374999999998863
                },
                {
                    "name": "A3",
                    "midi": 57,
                    "time": 135.59999999999962,
                    "velocity": 0.7244094488188977,
                    "duration": 0.14375000000001137
                },
                {
                    "name": "A3",
                    "midi": 57,
                    "time": 135.74999999999963,
                    "velocity": 0.7244094488188977,
                    "duration": 0.14375000000001137
                },
                {
                    "name": "A3",
                    "midi": 57,
                    "time": 135.89999999999964,
                    "velocity": 0.7244094488188977,
                    "duration": 0.29374999999998863
                },
                {
                    "name": "A3",
                    "midi": 57,
                    "time": 136.19999999999962,
                    "velocity": 0.7244094488188977,
                    "duration": 0.29374999999998863
                },
                {
                    "name": "A3",
                    "midi": 57,
                    "time": 136.4999999999996,
                    "velocity": 0.7244094488188977,
                    "duration": 0.29374999999998863
                },
                {
                    "name": "A2",
                    "midi": 45,
                    "time": 136.79999999999959,
                    "velocity": 0.7244094488188977,
                    "duration": 0.29374999999998863
                },
                {
                    "name": "A3",
                    "midi": 57,
                    "time": 136.79999999999959,
                    "velocity": 0.7244094488188977,
                    "duration": 0.29374999999998863
                },
                {
                    "name": "A2",
                    "midi": 45,
                    "time": 137.09999999999957,
                    "velocity": 0.7244094488188977,
                    "duration": 0.29374999999998863
                },
                {
                    "name": "A3",
                    "midi": 57,
                    "time": 137.09999999999957,
                    "velocity": 0.7244094488188977,
                    "duration": 0.29374999999998863
                },
                {
                    "name": "A3",
                    "midi": 57,
                    "time": 137.39999999999955,
                    "velocity": 0.7244094488188977,
                    "duration": 0.14375000000001137
                },
                {
                    "name": "A3",
                    "midi": 57,
                    "time": 137.54999999999956,
                    "velocity": 0.7244094488188977,
                    "duration": 0.14375000000001137
                },
                {
                    "name": "A3",
                    "midi": 57,
                    "time": 137.69999999999956,
                    "velocity": 0.7244094488188977,
                    "duration": 0.29374999999998863
                },
                {
                    "name": "A3",
                    "midi": 57,
                    "time": 137.99999999999955,
                    "velocity": 0.7244094488188977,
                    "duration": 0.29374999999998863
                },
                {
                    "name": "A3",
                    "midi": 57,
                    "time": 138.29999999999953,
                    "velocity": 0.7244094488188977,
                    "duration": 0.29374999999998863
                },
                {
                    "name": "A2",
                    "midi": 45,
                    "time": 138.5999999999995,
                    "velocity": 0.7244094488188977,
                    "duration": 0.29374999999998863
                },
                {
                    "name": "A3",
                    "midi": 57,
                    "time": 138.5999999999995,
                    "velocity": 0.7244094488188977,
                    "duration": 0.29374999999998863
                },
                {
                    "name": "A2",
                    "midi": 45,
                    "time": 138.8999999999995,
                    "velocity": 0.7244094488188977,
                    "duration": 0.29374999999998863
                },
                {
                    "name": "A3",
                    "midi": 57,
                    "time": 138.8999999999995,
                    "velocity": 0.7244094488188977,
                    "duration": 0.29374999999998863
                },
                {
                    "name": "A3",
                    "midi": 57,
                    "time": 139.19999999999948,
                    "velocity": 0.7244094488188977,
                    "duration": 0.14375000000001137
                },
                {
                    "name": "A3",
                    "midi": 57,
                    "time": 139.34999999999948,
                    "velocity": 0.7244094488188977,
                    "duration": 0.14375000000001137
                },
                {
                    "name": "A3",
                    "midi": 57,
                    "time": 139.4999999999995,
                    "velocity": 0.7244094488188977,
                    "duration": 0.29374999999998863
                },
                {
                    "name": "A3",
                    "midi": 57,
                    "time": 139.79999999999947,
                    "velocity": 0.7244094488188977,
                    "duration": 0.29374999999998863
                },
                {
                    "name": "A3",
                    "midi": 57,
                    "time": 140.09999999999945,
                    "velocity": 0.7244094488188977,
                    "duration": 0.29374999999998863
                },
                {
                    "name": "A2",
                    "midi": 45,
                    "time": 140.39999999999944,
                    "velocity": 0.7244094488188977,
                    "duration": 0.29374999999998863
                },
                {
                    "name": "A3",
                    "midi": 57,
                    "time": 140.39999999999944,
                    "velocity": 0.7244094488188977,
                    "duration": 0.29374999999998863
                },
                {
                    "name": "A2",
                    "midi": 45,
                    "time": 140.69999999999942,
                    "velocity": 0.7244094488188977,
                    "duration": 0.29374999999998863
                },
                {
                    "name": "A3",
                    "midi": 57,
                    "time": 140.69999999999942,
                    "velocity": 0.7244094488188977,
                    "duration": 0.29374999999998863
                },
                {
                    "name": "A3",
                    "midi": 57,
                    "time": 140.9999999999994,
                    "velocity": 0.7244094488188977,
                    "duration": 0.14375000000001137
                },
                {
                    "name": "A3",
                    "midi": 57,
                    "time": 141.1499999999994,
                    "velocity": 0.7244094488188977,
                    "duration": 0.14375000000001137
                },
                {
                    "name": "A3",
                    "midi": 57,
                    "time": 141.29999999999941,
                    "velocity": 0.7244094488188977,
                    "duration": 0.29374999999998863
                },
                {
                    "name": "A3",
                    "midi": 57,
                    "time": 141.5999999999994,
                    "velocity": 0.7244094488188977,
                    "duration": 0.29374999999998863
                },
                {
                    "name": "A3",
                    "midi": 57,
                    "time": 141.89999999999938,
                    "velocity": 0.7244094488188977,
                    "duration": 0.29374999999998863
                },
                {
                    "name": "A2",
                    "midi": 45,
                    "time": 142.19999999999936,
                    "velocity": 0.7244094488188977,
                    "duration": 0.29374999999998863
                },
                {
                    "name": "A3",
                    "midi": 57,
                    "time": 142.19999999999936,
                    "velocity": 0.7244094488188977,
                    "duration": 0.29374999999998863
                },
                {
                    "name": "A2",
                    "midi": 45,
                    "time": 142.49999999999935,
                    "velocity": 0.7244094488188977,
                    "duration": 0.29374999999998863
                },
                {
                    "name": "A3",
                    "midi": 57,
                    "time": 142.49999999999935,
                    "velocity": 0.7244094488188977,
                    "duration": 0.29374999999998863
                },
                {
                    "name": "A3",
                    "midi": 57,
                    "time": 142.79999999999933,
                    "velocity": 0.7244094488188977,
                    "duration": 0.14375000000001137
                },
                {
                    "name": "A3",
                    "midi": 57,
                    "time": 142.94999999999933,
                    "velocity": 0.7244094488188977,
                    "duration": 0.14375000000001137
                },
                {
                    "name": "A3",
                    "midi": 57,
                    "time": 143.09999999999934,
                    "velocity": 0.7244094488188977,
                    "duration": 0.29374999999998863
                },
                {
                    "name": "A3",
                    "midi": 57,
                    "time": 143.39999999999932,
                    "velocity": 0.7244094488188977,
                    "duration": 0.29374999999998863
                },
                {
                    "name": "A3",
                    "midi": 57,
                    "time": 143.6999999999993,
                    "velocity": 0.7244094488188977,
                    "duration": 0.29374999999998863
                },
                {
                    "name": "A2",
                    "midi": 45,
                    "time": 143.9999999999993,
                    "velocity": 0.7244094488188977,
                    "duration": 0.29374999999998863
                },
                {
                    "name": "A3",
                    "midi": 57,
                    "time": 143.9999999999993,
                    "velocity": 0.7244094488188977,
                    "duration": 0.29374999999998863
                },
                {
                    "name": "A2",
                    "midi": 45,
                    "time": 144.29999999999927,
                    "velocity": 0.7244094488188977,
                    "duration": 0.29374999999998863
                },
                {
                    "name": "A3",
                    "midi": 57,
                    "time": 144.29999999999927,
                    "velocity": 0.7244094488188977,
                    "duration": 0.29374999999998863
                },
                {
                    "name": "A3",
                    "midi": 57,
                    "time": 144.59999999999926,
                    "velocity": 0.7244094488188977,
                    "duration": 0.14375000000001137
                },
                {
                    "name": "A3",
                    "midi": 57,
                    "time": 144.74999999999926,
                    "velocity": 0.7244094488188977,
                    "duration": 0.14375000000001137
                },
                {
                    "name": "A3",
                    "midi": 57,
                    "time": 144.89999999999927,
                    "velocity": 0.7244094488188977,
                    "duration": 0.29374999999998863
                },
                {
                    "name": "A3",
                    "midi": 57,
                    "time": 145.19999999999925,
                    "velocity": 0.7244094488188977,
                    "duration": 0.29374999999998863
                },
                {
                    "name": "A3",
                    "midi": 57,
                    "time": 145.49999999999923,
                    "velocity": 0.7244094488188977,
                    "duration": 0.29374999999998863
                },
                {
                    "name": "A2",
                    "midi": 45,
                    "time": 145.79999999999922,
                    "velocity": 0.7244094488188977,
                    "duration": 0.29374999999998863
                },
                {
                    "name": "A3",
                    "midi": 57,
                    "time": 145.79999999999922,
                    "velocity": 0.7244094488188977,
                    "duration": 0.29374999999998863
                },
                {
                    "name": "A2",
                    "midi": 45,
                    "time": 146.0999999999992,
                    "velocity": 0.7244094488188977,
                    "duration": 0.29374999999998863
                },
                {
                    "name": "A3",
                    "midi": 57,
                    "time": 146.0999999999992,
                    "velocity": 0.7244094488188977,
                    "duration": 0.29374999999998863
                },
                {
                    "name": "A3",
                    "midi": 57,
                    "time": 146.39999999999918,
                    "velocity": 0.7244094488188977,
                    "duration": 0.14375000000001137
                },
                {
                    "name": "A3",
                    "midi": 57,
                    "time": 146.5499999999992,
                    "velocity": 0.7244094488188977,
                    "duration": 0.14375000000001137
                },
                {
                    "name": "A3",
                    "midi": 57,
                    "time": 146.6999999999992,
                    "velocity": 0.7244094488188977,
                    "duration": 0.29374999999998863
                },
                {
                    "name": "A3",
                    "midi": 57,
                    "time": 146.99999999999918,
                    "velocity": 0.7244094488188977,
                    "duration": 0.29374999999998863
                },
                {
                    "name": "A3",
                    "midi": 57,
                    "time": 147.29999999999916,
                    "velocity": 0.7244094488188977,
                    "duration": 0.29374999999998863
                },
                {
                    "name": "A2",
                    "midi": 45,
                    "time": 147.59999999999914,
                    "velocity": 0.7244094488188977,
                    "duration": 0.29374999999998863
                },
                {
                    "name": "A3",
                    "midi": 57,
                    "time": 147.59999999999914,
                    "velocity": 0.7244094488188977,
                    "duration": 0.29374999999998863
                },
                {
                    "name": "A2",
                    "midi": 45,
                    "time": 147.89999999999912,
                    "velocity": 0.7244094488188977,
                    "duration": 0.29374999999998863
                },
                {
                    "name": "A3",
                    "midi": 57,
                    "time": 147.89999999999912,
                    "velocity": 0.7244094488188977,
                    "duration": 0.29374999999998863
                },
                {
                    "name": "A3",
                    "midi": 57,
                    "time": 148.1999999999991,
                    "velocity": 0.7244094488188977,
                    "duration": 0.14375000000001137
                },
                {
                    "name": "A3",
                    "midi": 57,
                    "time": 148.3499999999991,
                    "velocity": 0.7244094488188977,
                    "duration": 0.14375000000001137
                },
                {
                    "name": "A3",
                    "midi": 57,
                    "time": 148.49999999999912,
                    "velocity": 0.7244094488188977,
                    "duration": 0.29374999999998863
                },
                {
                    "name": "A3",
                    "midi": 57,
                    "time": 148.7999999999991,
                    "velocity": 0.7244094488188977,
                    "duration": 0.29374999999998863
                },
                {
                    "name": "A3",
                    "midi": 57,
                    "time": 149.09999999999908,
                    "velocity": 0.7244094488188977,
                    "duration": 0.29374999999998863
                },
                {
                    "name": "A2",
                    "midi": 45,
                    "time": 149.39999999999907,
                    "velocity": 0.7244094488188977,
                    "duration": 0.29374999999998863
                },
                {
                    "name": "A3",
                    "midi": 57,
                    "time": 149.39999999999907,
                    "velocity": 0.7244094488188977,
                    "duration": 0.29374999999998863
                },
                {
                    "name": "A2",
                    "midi": 45,
                    "time": 149.69999999999905,
                    "velocity": 0.7244094488188977,
                    "duration": 0.29374999999998863
                },
                {
                    "name": "A3",
                    "midi": 57,
                    "time": 149.69999999999905,
                    "velocity": 0.7244094488188977,
                    "duration": 0.29374999999998863
                },
                {
                    "name": "A3",
                    "midi": 57,
                    "time": 149.99999999999903,
                    "velocity": 0.7244094488188977,
                    "duration": 0.14375000000001137
                },
                {
                    "name": "A3",
                    "midi": 57,
                    "time": 150.14999999999904,
                    "velocity": 0.7244094488188977,
                    "duration": 0.14375000000001137
                },
                {
                    "name": "A3",
                    "midi": 57,
                    "time": 150.29999999999905,
                    "velocity": 0.7244094488188977,
                    "duration": 0.29374999999998863
                },
                {
                    "name": "A3",
                    "midi": 57,
                    "time": 150.59999999999903,
                    "velocity": 0.7244094488188977,
                    "duration": 0.29374999999998863
                },
                {
                    "name": "A3",
                    "midi": 57,
                    "time": 150.899999999999,
                    "velocity": 0.7244094488188977,
                    "duration": 0.29374999999998863
                },
                {
                    "name": "A2",
                    "midi": 45,
                    "time": 151.199999999999,
                    "velocity": 0.7244094488188977,
                    "duration": 0.29374999999998863
                },
                {
                    "name": "A3",
                    "midi": 57,
                    "time": 151.199999999999,
                    "velocity": 0.7244094488188977,
                    "duration": 0.29374999999998863
                },
                {
                    "name": "A2",
                    "midi": 45,
                    "time": 151.49999999999898,
                    "velocity": 0.7244094488188977,
                    "duration": 0.29374999999998863
                },
                {
                    "name": "A3",
                    "midi": 57,
                    "time": 151.49999999999898,
                    "velocity": 0.7244094488188977,
                    "duration": 0.29374999999998863
                },
                {
                    "name": "A3",
                    "midi": 57,
                    "time": 151.79999999999896,
                    "velocity": 0.7244094488188977,
                    "duration": 0.14375000000001137
                },
                {
                    "name": "A3",
                    "midi": 57,
                    "time": 151.94999999999897,
                    "velocity": 0.7244094488188977,
                    "duration": 0.14375000000001137
                },
                {
                    "name": "A3",
                    "midi": 57,
                    "time": 152.09999999999897,
                    "velocity": 0.7244094488188977,
                    "duration": 0.29374999999998863
                },
                {
                    "name": "A3",
                    "midi": 57,
                    "time": 152.39999999999895,
                    "velocity": 0.7244094488188977,
                    "duration": 0.29374999999998863
                },
                {
                    "name": "A3",
                    "midi": 57,
                    "time": 152.69999999999894,
                    "velocity": 0.7244094488188977,
                    "duration": 0.29374999999998863
                },
                {
                    "name": "A2",
                    "midi": 45,
                    "time": 152.99999999999892,
                    "velocity": 0.7244094488188977,
                    "duration": 0.29374999999998863
                },
                {
                    "name": "A3",
                    "midi": 57,
                    "time": 152.99999999999892,
                    "velocity": 0.7244094488188977,
                    "duration": 0.29374999999998863
                },
                {
                    "name": "A2",
                    "midi": 45,
                    "time": 153.2999999999989,
                    "velocity": 0.7244094488188977,
                    "duration": 0.29374999999998863
                },
                {
                    "name": "A3",
                    "midi": 57,
                    "time": 153.2999999999989,
                    "velocity": 0.7244094488188977,
                    "duration": 0.29374999999998863
                },
                {
                    "name": "A3",
                    "midi": 57,
                    "time": 153.5999999999989,
                    "velocity": 0.7244094488188977,
                    "duration": 0.14375000000001137
                },
                {
                    "name": "A3",
                    "midi": 57,
                    "time": 153.7499999999989,
                    "velocity": 0.7244094488188977,
                    "duration": 0.14375000000001137
                },
                {
                    "name": "A3",
                    "midi": 57,
                    "time": 153.8999999999989,
                    "velocity": 0.7244094488188977,
                    "duration": 0.29374999999998863
                },
                {
                    "name": "A3",
                    "midi": 57,
                    "time": 154.19999999999888,
                    "velocity": 0.7244094488188977,
                    "duration": 0.29374999999998863
                },
                {
                    "name": "A3",
                    "midi": 57,
                    "time": 154.49999999999886,
                    "velocity": 0.7244094488188977,
                    "duration": 0.29374999999998863
                },
                {
                    "name": "A2",
                    "midi": 45,
                    "time": 154.79999999999885,
                    "velocity": 0.7244094488188977,
                    "duration": 0.29374999999998863
                },
                {
                    "name": "A3",
                    "midi": 57,
                    "time": 154.79999999999885,
                    "velocity": 0.7244094488188977,
                    "duration": 0.29374999999998863
                },
                {
                    "name": "A2",
                    "midi": 45,
                    "time": 155.09999999999883,
                    "velocity": 0.7244094488188977,
                    "duration": 0.29374999999998863
                },
                {
                    "name": "A3",
                    "midi": 57,
                    "time": 155.09999999999883,
                    "velocity": 0.7244094488188977,
                    "duration": 0.29374999999998863
                },
                {
                    "name": "A3",
                    "midi": 57,
                    "time": 155.3999999999988,
                    "velocity": 0.7244094488188977,
                    "duration": 0.14375000000001137
                },
                {
                    "name": "A3",
                    "midi": 57,
                    "time": 155.54999999999882,
                    "velocity": 0.7244094488188977,
                    "duration": 0.14375000000001137
                },
                {
                    "name": "A3",
                    "midi": 57,
                    "time": 155.69999999999882,
                    "velocity": 0.7244094488188977,
                    "duration": 0.29374999999998863
                },
                {
                    "name": "A3",
                    "midi": 57,
                    "time": 155.9999999999988,
                    "velocity": 0.7244094488188977,
                    "duration": 0.29374999999998863
                },
                {
                    "name": "A3",
                    "midi": 57,
                    "time": 156.2999999999988,
                    "velocity": 0.7244094488188977,
                    "duration": 0.29374999999998863
                },
                {
                    "name": "A2",
                    "midi": 45,
                    "time": 156.59999999999877,
                    "velocity": 0.7244094488188977,
                    "duration": 0.29374999999998863
                },
                {
                    "name": "A3",
                    "midi": 57,
                    "time": 156.59999999999877,
                    "velocity": 0.7244094488188977,
                    "duration": 0.29374999999998863
                },
                {
                    "name": "A2",
                    "midi": 45,
                    "time": 156.89999999999876,
                    "velocity": 0.7244094488188977,
                    "duration": 0.29374999999998863
                },
                {
                    "name": "A3",
                    "midi": 57,
                    "time": 156.89999999999876,
                    "velocity": 0.7244094488188977,
                    "duration": 0.29374999999998863
                },
                {
                    "name": "A3",
                    "midi": 57,
                    "time": 157.19999999999874,
                    "velocity": 0.7244094488188977,
                    "duration": 0.14375000000001137
                },
                {
                    "name": "A3",
                    "midi": 57,
                    "time": 157.34999999999874,
                    "velocity": 0.7244094488188977,
                    "duration": 0.14375000000001137
                },
                {
                    "name": "A3",
                    "midi": 57,
                    "time": 157.49999999999875,
                    "velocity": 0.7244094488188977,
                    "duration": 0.29374999999998863
                },
                {
                    "name": "A3",
                    "midi": 57,
                    "time": 157.79999999999873,
                    "velocity": 0.7244094488188977,
                    "duration": 0.29374999999998863
                },
                {
                    "name": "A3",
                    "midi": 57,
                    "time": 158.09999999999872,
                    "velocity": 0.7244094488188977,
                    "duration": 0.29374999999998863
                },
                {
                    "name": "A2",
                    "midi": 45,
                    "time": 158.3999999999987,
                    "velocity": 0.7244094488188977,
                    "duration": 0.29374999999998863
                },
                {
                    "name": "A3",
                    "midi": 57,
                    "time": 158.3999999999987,
                    "velocity": 0.7244094488188977,
                    "duration": 0.29374999999998863
                },
                {
                    "name": "A2",
                    "midi": 45,
                    "time": 158.69999999999868,
                    "velocity": 0.7244094488188977,
                    "duration": 0.29374999999998863
                },
                {
                    "name": "A3",
                    "midi": 57,
                    "time": 158.69999999999868,
                    "velocity": 0.7244094488188977,
                    "duration": 0.29374999999998863
                },
                {
                    "name": "A3",
                    "midi": 57,
                    "time": 158.99999999999866,
                    "velocity": 0.7244094488188977,
                    "duration": 0.14375000000001137
                },
                {
                    "name": "A3",
                    "midi": 57,
                    "time": 159.14999999999867,
                    "velocity": 0.7244094488188977,
                    "duration": 0.14375000000001137
                },
                {
                    "name": "A3",
                    "midi": 57,
                    "time": 159.29999999999868,
                    "velocity": 0.7244094488188977,
                    "duration": 0.29374999999998863
                },
                {
                    "name": "A3",
                    "midi": 57,
                    "time": 159.59999999999866,
                    "velocity": 0.7244094488188977,
                    "duration": 0.29374999999998863
                },
                {
                    "name": "A3",
                    "midi": 57,
                    "time": 159.89999999999864,
                    "velocity": 0.7244094488188977,
                    "duration": 0.29374999999998863
                },
                {
                    "name": "A2",
                    "midi": 45,
                    "time": 160.19999999999862,
                    "velocity": 0.7244094488188977,
                    "duration": 0.29374999999998863
                },
                {
                    "name": "A3",
                    "midi": 57,
                    "time": 160.19999999999862,
                    "velocity": 0.7244094488188977,
                    "duration": 0.29374999999998863
                },
                {
                    "name": "A2",
                    "midi": 45,
                    "time": 160.4999999999986,
                    "velocity": 0.7244094488188977,
                    "duration": 0.29374999999998863
                },
                {
                    "name": "A3",
                    "midi": 57,
                    "time": 160.4999999999986,
                    "velocity": 0.7244094488188977,
                    "duration": 0.29374999999998863
                },
                {
                    "name": "A3",
                    "midi": 57,
                    "time": 160.7999999999986,
                    "velocity": 0.7244094488188977,
                    "duration": 0.14375000000001137
                },
                {
                    "name": "A3",
                    "midi": 57,
                    "time": 160.9499999999986,
                    "velocity": 0.7244094488188977,
                    "duration": 0.14375000000001137
                },
                {
                    "name": "A3",
                    "midi": 57,
                    "time": 161.0999999999986,
                    "velocity": 0.7244094488188977,
                    "duration": 0.29374999999998863
                },
                {
                    "name": "A3",
                    "midi": 57,
                    "time": 161.39999999999858,
                    "velocity": 0.7244094488188977,
                    "duration": 0.29374999999998863
                },
                {
                    "name": "A3",
                    "midi": 57,
                    "time": 161.69999999999857,
                    "velocity": 0.7244094488188977,
                    "duration": 0.29374999999998863
                },
                {
                    "name": "A2",
                    "midi": 45,
                    "time": 161.99999999999855,
                    "velocity": 0.7244094488188977,
                    "duration": 0.29374999999998863
                },
                {
                    "name": "A3",
                    "midi": 57,
                    "time": 161.99999999999855,
                    "velocity": 0.7244094488188977,
                    "duration": 0.29374999999998863
                },
                {
                    "name": "A2",
                    "midi": 45,
                    "time": 162.29999999999853,
                    "velocity": 0.47244094488188976,
                    "duration": 0.29374999999998863
                },
                {
                    "name": "A3",
                    "midi": 57,
                    "time": 162.29999999999853,
                    "velocity": 0.47244094488188976,
                    "duration": 0.29374999999998863
                },
                {
                    "name": "A2",
                    "midi": 45,
                    "time": 167.6999999999985,
                    "velocity": 0.47244094488188976,
                    "duration": 0.29374999999998863
                },
                {
                    "name": "A3",
                    "midi": 57,
                    "time": 167.6999999999985,
                    "velocity": 0.47244094488188976,
                    "duration": 0.29374999999998863
                },
                {
                    "name": "A2",
                    "midi": 45,
                    "time": 184.7999999999985,
                    "velocity": 0.5905511811023622,
                    "duration": 0.29374999999998863
                },
                {
                    "name": "A3",
                    "midi": 57,
                    "time": 184.7999999999985,
                    "velocity": 0.5905511811023622,
                    "duration": 0.29374999999998863
                },
                {
                    "name": "A2",
                    "midi": 45,
                    "time": 185.69999999999848,
                    "velocity": 0.5905511811023622,
                    "duration": 0.29374999999998863
                },
                {
                    "name": "A3",
                    "midi": 57,
                    "time": 185.69999999999848,
                    "velocity": 0.5905511811023622,
                    "duration": 0.29374999999998863
                },
                {
                    "name": "A2",
                    "midi": 45,
                    "time": 186.59999999999846,
                    "velocity": 0.5905511811023622,
                    "duration": 0.29374999999998863
                },
                {
                    "name": "A3",
                    "midi": 57,
                    "time": 186.59999999999846,
                    "velocity": 0.5905511811023622,
                    "duration": 0.29374999999998863
                },
                {
                    "name": "A2",
                    "midi": 45,
                    "time": 187.49999999999844,
                    "velocity": 0.5905511811023622,
                    "duration": 0.29374999999998863
                },
                {
                    "name": "A3",
                    "midi": 57,
                    "time": 187.49999999999844,
                    "velocity": 0.5905511811023622,
                    "duration": 0.29374999999998863
                },
                {
                    "name": "A2",
                    "midi": 45,
                    "time": 188.3999999999984,
                    "velocity": 0.5905511811023622,
                    "duration": 0.29374999999998863
                },
                {
                    "name": "A3",
                    "midi": 57,
                    "time": 188.3999999999984,
                    "velocity": 0.5905511811023622,
                    "duration": 0.29374999999998863
                },
                {
                    "name": "A2",
                    "midi": 45,
                    "time": 189.2999999999984,
                    "velocity": 0.5905511811023622,
                    "duration": 0.29374999999998863
                },
                {
                    "name": "A3",
                    "midi": 57,
                    "time": 189.2999999999984,
                    "velocity": 0.5905511811023622,
                    "duration": 0.29374999999998863
                },
                {
                    "name": "A2",
                    "midi": 45,
                    "time": 190.19999999999837,
                    "velocity": 0.5905511811023622,
                    "duration": 0.29374999999998863
                },
                {
                    "name": "A3",
                    "midi": 57,
                    "time": 190.19999999999837,
                    "velocity": 0.5905511811023622,
                    "duration": 0.29374999999998863
                },
                {
                    "name": "A2",
                    "midi": 45,
                    "time": 191.09999999999835,
                    "velocity": 0.5905511811023622,
                    "duration": 0.29374999999998863
                },
                {
                    "name": "A3",
                    "midi": 57,
                    "time": 191.09999999999835,
                    "velocity": 0.5905511811023622,
                    "duration": 0.29374999999998863
                },
                {
                    "name": "A2",
                    "midi": 45,
                    "time": 191.99999999999832,
                    "velocity": 0.5905511811023622,
                    "duration": 0.29374999999998863
                },
                {
                    "name": "A3",
                    "midi": 57,
                    "time": 191.99999999999832,
                    "velocity": 0.5905511811023622,
                    "duration": 0.29374999999998863
                },
                {
                    "name": "A2",
                    "midi": 45,
                    "time": 192.8999999999983,
                    "velocity": 0.5905511811023622,
                    "duration": 0.29374999999998863
                },
                {
                    "name": "A3",
                    "midi": 57,
                    "time": 192.8999999999983,
                    "velocity": 0.5905511811023622,
                    "duration": 0.29374999999998863
                },
                {
                    "name": "A2",
                    "midi": 45,
                    "time": 193.79999999999828,
                    "velocity": 0.5905511811023622,
                    "duration": 0.29374999999998863
                },
                {
                    "name": "A3",
                    "midi": 57,
                    "time": 193.79999999999828,
                    "velocity": 0.5905511811023622,
                    "duration": 0.29374999999998863
                },
                {
                    "name": "A2",
                    "midi": 45,
                    "time": 194.69999999999825,
                    "velocity": 0.5905511811023622,
                    "duration": 0.29374999999998863
                },
                {
                    "name": "A3",
                    "midi": 57,
                    "time": 194.69999999999825,
                    "velocity": 0.5905511811023622,
                    "duration": 0.29374999999998863
                },
                {
                    "name": "A2",
                    "midi": 45,
                    "time": 195.59999999999823,
                    "velocity": 0.5905511811023622,
                    "duration": 0.29374999999998863
                },
                {
                    "name": "A3",
                    "midi": 57,
                    "time": 195.59999999999823,
                    "velocity": 0.5905511811023622,
                    "duration": 0.29374999999998863
                },
                {
                    "name": "A2",
                    "midi": 45,
                    "time": 196.4999999999982,
                    "velocity": 0.5905511811023622,
                    "duration": 0.29374999999998863
                },
                {
                    "name": "A3",
                    "midi": 57,
                    "time": 196.4999999999982,
                    "velocity": 0.5905511811023622,
                    "duration": 0.29374999999998863
                },
                {
                    "name": "A2",
                    "midi": 45,
                    "time": 197.3999999999982,
                    "velocity": 0.5905511811023622,
                    "duration": 0.29374999999998863
                },
                {
                    "name": "A3",
                    "midi": 57,
                    "time": 197.3999999999982,
                    "velocity": 0.5905511811023622,
                    "duration": 0.29374999999998863
                },
                {
                    "name": "A2",
                    "midi": 45,
                    "time": 212.69999999999817,
                    "velocity": 0.49606299212598426,
                    "duration": 0.29374999999998863
                },
                {
                    "name": "A3",
                    "midi": 57,
                    "time": 212.69999999999817,
                    "velocity": 0.49606299212598426,
                    "duration": 0.29374999999998863
                },
                {
                    "name": "A2",
                    "midi": 45,
                    "time": 216.29999999999816,
                    "velocity": 0.49606299212598426,
                    "duration": 0.29374999999998863
                },
                {
                    "name": "A3",
                    "midi": 57,
                    "time": 216.29999999999816,
                    "velocity": 0.49606299212598426,
                    "duration": 0.29374999999998863
                },
                {
                    "name": "A2",
                    "midi": 45,
                    "time": 246.89999999999816,
                    "velocity": 0.5905511811023622,
                    "duration": 0.29374999999998863
                },
                {
                    "name": "A3",
                    "midi": 57,
                    "time": 246.89999999999816,
                    "velocity": 0.5905511811023622,
                    "duration": 0.29374999999998863
                },
                {
                    "name": "A2",
                    "midi": 45,
                    "time": 247.79999999999814,
                    "velocity": 0.5905511811023622,
                    "duration": 0.29374999999998863
                },
                {
                    "name": "A3",
                    "midi": 57,
                    "time": 247.79999999999814,
                    "velocity": 0.5905511811023622,
                    "duration": 0.29374999999998863
                },
                {
                    "name": "A2",
                    "midi": 45,
                    "time": 248.6999999999981,
                    "velocity": 0.5905511811023622,
                    "duration": 0.29374999999998863
                },
                {
                    "name": "A3",
                    "midi": 57,
                    "time": 248.6999999999981,
                    "velocity": 0.5905511811023622,
                    "duration": 0.29374999999998863
                },
                {
                    "name": "A2",
                    "midi": 45,
                    "time": 249.5999999999981,
                    "velocity": 0.5905511811023622,
                    "duration": 0.29374999999998863
                },
                {
                    "name": "A3",
                    "midi": 57,
                    "time": 249.5999999999981,
                    "velocity": 0.5905511811023622,
                    "duration": 0.29374999999998863
                },
                {
                    "name": "A2",
                    "midi": 45,
                    "time": 250.49999999999807,
                    "velocity": 0.5905511811023622,
                    "duration": 0.29374999999998863
                },
                {
                    "name": "A3",
                    "midi": 57,
                    "time": 250.49999999999807,
                    "velocity": 0.5905511811023622,
                    "duration": 0.29374999999998863
                },
                {
                    "name": "A2",
                    "midi": 45,
                    "time": 251.39999999999804,
                    "velocity": 0.5905511811023622,
                    "duration": 0.29374999999998863
                },
                {
                    "name": "A3",
                    "midi": 57,
                    "time": 251.39999999999804,
                    "velocity": 0.5905511811023622,
                    "duration": 0.29374999999998863
                },
                {
                    "name": "A2",
                    "midi": 45,
                    "time": 252.29999999999802,
                    "velocity": 0.5905511811023622,
                    "duration": 0.29374999999998863
                },
                {
                    "name": "A3",
                    "midi": 57,
                    "time": 252.29999999999802,
                    "velocity": 0.5905511811023622,
                    "duration": 0.29374999999998863
                },
                {
                    "name": "A2",
                    "midi": 45,
                    "time": 253.199999999998,
                    "velocity": 0.5905511811023622,
                    "duration": 0.29374999999998863
                },
                {
                    "name": "A3",
                    "midi": 57,
                    "time": 253.199999999998,
                    "velocity": 0.5905511811023622,
                    "duration": 0.29374999999998863
                },
                {
                    "name": "A2",
                    "midi": 45,
                    "time": 254.09999999999798,
                    "velocity": 0.5905511811023622,
                    "duration": 0.29374999999998863
                },
                {
                    "name": "A3",
                    "midi": 57,
                    "time": 254.09999999999798,
                    "velocity": 0.5905511811023622,
                    "duration": 0.29374999999998863
                },
                {
                    "name": "A2",
                    "midi": 45,
                    "time": 254.99999999999795,
                    "velocity": 0.5905511811023622,
                    "duration": 0.29374999999998863
                },
                {
                    "name": "A3",
                    "midi": 57,
                    "time": 254.99999999999795,
                    "velocity": 0.5905511811023622,
                    "duration": 0.29374999999998863
                },
                {
                    "name": "A2",
                    "midi": 45,
                    "time": 255.89999999999793,
                    "velocity": 0.5905511811023622,
                    "duration": 0.29374999999998863
                },
                {
                    "name": "A3",
                    "midi": 57,
                    "time": 255.89999999999793,
                    "velocity": 0.5905511811023622,
                    "duration": 0.29374999999998863
                },
                {
                    "name": "A2",
                    "midi": 45,
                    "time": 256.7999999999979,
                    "velocity": 0.5905511811023622,
                    "duration": 0.29374999999998863
                },
                {
                    "name": "A3",
                    "midi": 57,
                    "time": 256.7999999999979,
                    "velocity": 0.5905511811023622,
                    "duration": 0.29374999999998863
                },
                {
                    "name": "A2",
                    "midi": 45,
                    "time": 257.6999999999979,
                    "velocity": 0.5905511811023622,
                    "duration": 0.29374999999998863
                },
                {
                    "name": "A3",
                    "midi": 57,
                    "time": 257.6999999999979,
                    "velocity": 0.5905511811023622,
                    "duration": 0.29374999999998863
                },
                {
                    "name": "A2",
                    "midi": 45,
                    "time": 258.59999999999786,
                    "velocity": 0.5905511811023622,
                    "duration": 0.29374999999998863
                },
                {
                    "name": "A3",
                    "midi": 57,
                    "time": 258.59999999999786,
                    "velocity": 0.5905511811023622,
                    "duration": 0.29374999999998863
                },
                {
                    "name": "A2",
                    "midi": 45,
                    "time": 263.99999999999784,
                    "velocity": 0.5905511811023622,
                    "duration": 0.29374999999998863
                },
                {
                    "name": "A3",
                    "midi": 57,
                    "time": 263.99999999999784,
                    "velocity": 0.5905511811023622,
                    "duration": 0.29374999999998863
                },
                {
                    "name": "A2",
                    "midi": 45,
                    "time": 264.8999999999978,
                    "velocity": 0.5905511811023622,
                    "duration": 0.29374999999998863
                },
                {
                    "name": "A3",
                    "midi": 57,
                    "time": 264.8999999999978,
                    "velocity": 0.5905511811023622,
                    "duration": 0.29374999999998863
                },
                {
                    "name": "A2",
                    "midi": 45,
                    "time": 265.7999999999978,
                    "velocity": 0.5905511811023622,
                    "duration": 0.29374999999998863
                },
                {
                    "name": "A3",
                    "midi": 57,
                    "time": 265.7999999999978,
                    "velocity": 0.5905511811023622,
                    "duration": 0.29374999999998863
                },
                {
                    "name": "A2",
                    "midi": 45,
                    "time": 266.6999999999978,
                    "velocity": 0.5905511811023622,
                    "duration": 0.29374999999998863
                },
                {
                    "name": "A3",
                    "midi": 57,
                    "time": 266.6999999999978,
                    "velocity": 0.5905511811023622,
                    "duration": 0.29374999999998863
                },
                {
                    "name": "A2",
                    "midi": 45,
                    "time": 271.1999999999978,
                    "velocity": 0.5905511811023622,
                    "duration": 0.29374999999998863
                },
                {
                    "name": "A3",
                    "midi": 57,
                    "time": 271.1999999999978,
                    "velocity": 0.5905511811023622,
                    "duration": 0.29374999999998863
                },
                {
                    "name": "A2",
                    "midi": 45,
                    "time": 272.09999999999775,
                    "velocity": 0.5905511811023622,
                    "duration": 0.29374999999998863
                },
                {
                    "name": "A3",
                    "midi": 57,
                    "time": 272.09999999999775,
                    "velocity": 0.5905511811023622,
                    "duration": 0.29374999999998863
                },
                {
                    "name": "A2",
                    "midi": 45,
                    "time": 272.9999999999977,
                    "velocity": 0.5905511811023622,
                    "duration": 0.29374999999998863
                },
                {
                    "name": "A3",
                    "midi": 57,
                    "time": 272.9999999999977,
                    "velocity": 0.5905511811023622,
                    "duration": 0.29374999999998863
                },
                {
                    "name": "A2",
                    "midi": 45,
                    "time": 273.8999999999977,
                    "velocity": 0.5905511811023622,
                    "duration": 0.29374999999998863
                },
                {
                    "name": "A3",
                    "midi": 57,
                    "time": 273.8999999999977,
                    "velocity": 0.5905511811023622,
                    "duration": 0.29374999999998863
                },
                {
                    "name": "A2",
                    "midi": 45,
                    "time": 281.0999999999977,
                    "velocity": 0.7244094488188977,
                    "duration": 0.29374999999998863
                },
                {
                    "name": "A3",
                    "midi": 57,
                    "time": 281.0999999999977,
                    "velocity": 0.7244094488188977,
                    "duration": 0.29374999999998863
                },
                {
                    "name": "A2",
                    "midi": 45,
                    "time": 281.99999999999767,
                    "velocity": 0.7244094488188977,
                    "duration": 0.29374999999998863
                },
                {
                    "name": "A3",
                    "midi": 57,
                    "time": 281.99999999999767,
                    "velocity": 0.7244094488188977,
                    "duration": 0.29374999999998863
                },
                {
                    "name": "A2",
                    "midi": 45,
                    "time": 282.89999999999765,
                    "velocity": 0.7244094488188977,
                    "duration": 0.29374999999998863
                },
                {
                    "name": "A3",
                    "midi": 57,
                    "time": 282.89999999999765,
                    "velocity": 0.7244094488188977,
                    "duration": 0.29374999999998863
                },
                {
                    "name": "A2",
                    "midi": 45,
                    "time": 283.7999999999976,
                    "velocity": 0.7244094488188977,
                    "duration": 0.29374999999998863
                },
                {
                    "name": "A3",
                    "midi": 57,
                    "time": 283.7999999999976,
                    "velocity": 0.7244094488188977,
                    "duration": 0.29374999999998863
                },
                {
                    "name": "A2",
                    "midi": 45,
                    "time": 284.6999999999976,
                    "velocity": 0.7244094488188977,
                    "duration": 0.29374999999998863
                },
                {
                    "name": "A3",
                    "midi": 57,
                    "time": 284.6999999999976,
                    "velocity": 0.7244094488188977,
                    "duration": 0.29374999999998863
                },
                {
                    "name": "A2",
                    "midi": 45,
                    "time": 285.5999999999976,
                    "velocity": 0.7244094488188977,
                    "duration": 0.29374999999998863
                },
                {
                    "name": "A3",
                    "midi": 57,
                    "time": 285.5999999999976,
                    "velocity": 0.7244094488188977,
                    "duration": 0.29374999999998863
                },
                {
                    "name": "A2",
                    "midi": 45,
                    "time": 286.49999999999756,
                    "velocity": 0.7244094488188977,
                    "duration": 0.29374999999998863
                },
                {
                    "name": "A3",
                    "midi": 57,
                    "time": 286.49999999999756,
                    "velocity": 0.7244094488188977,
                    "duration": 0.29374999999998863
                }
            ],
            "controlChanges": {
                "7": [
                    {
                        "number": 7,
                        "time": 0,
                        "value": 0.84251968503937
                    }
                ],
                "10": [
                    {
                        "number": 10,
                        "time": 0,
                        "value": 0.3543307086614173
                    }
                ],
                "91": [
                    {
                        "number": 91,
                        "time": 0,
                        "value": 0.2992125984251969
                    }
                ]
            },
            "id": 16,
            "instrumentNumber": 0,
            "instrument": "standard kit",
            "instrumentFamily": "drums",
            "channelNumber": 9,
            "isPercussion": true
        },
        {
            "startTime": 1.2,
            "duration": 287.39999999999856,
            "length": 925,
            "notes": [
                {
                    "name": "D#4",
                    "midi": 63,
                    "time": 1.2,
                    "velocity": 0.3543307086614173,
                    "duration": 0.10000000000000009
                },
                {
                    "name": "D#4",
                    "midi": 63,
                    "time": 1.5,
                    "velocity": 0.3543307086614173,
                    "duration": 0.10000000000000009
                },
                {
                    "name": "F4",
                    "midi": 65,
                    "time": 2.1,
                    "velocity": 0.3543307086614173,
                    "duration": 0.10000000000000009
                },
                {
                    "name": "F4",
                    "midi": 65,
                    "time": 2.4000000000000004,
                    "velocity": 0.3543307086614173,
                    "duration": 0.10000000000000009
                },
                {
                    "name": "D4",
                    "midi": 62,
                    "time": 3.0000000000000004,
                    "velocity": 0.3543307086614173,
                    "duration": 0.10000000000000009
                },
                {
                    "name": "D4",
                    "midi": 62,
                    "time": 3.3000000000000007,
                    "velocity": 0.3543307086614173,
                    "duration": 0.10000000000000009
                },
                {
                    "name": "F4",
                    "midi": 65,
                    "time": 3.900000000000001,
                    "velocity": 0.3543307086614173,
                    "duration": 0.10000000000000009
                },
                {
                    "name": "F4",
                    "midi": 65,
                    "time": 4.200000000000001,
                    "velocity": 0.3543307086614173,
                    "duration": 0.09999999999999964
                },
                {
                    "name": "D#4",
                    "midi": 63,
                    "time": 4.800000000000001,
                    "velocity": 0.3543307086614173,
                    "duration": 0.09999999999999964
                },
                {
                    "name": "D#4",
                    "midi": 63,
                    "time": 5.1000000000000005,
                    "velocity": 0.3543307086614173,
                    "duration": 0.09999999999999964
                },
                {
                    "name": "D#4",
                    "midi": 63,
                    "time": 5.7,
                    "velocity": 0.3543307086614173,
                    "duration": 0.09999999999999964
                },
                {
                    "name": "D#4",
                    "midi": 63,
                    "time": 6,
                    "velocity": 0.3543307086614173,
                    "duration": 0.09999999999999964
                },
                {
                    "name": "G4",
                    "midi": 67,
                    "time": 6.6,
                    "velocity": 0.3543307086614173,
                    "duration": 0.5999999999999996
                },
                {
                    "name": "F4",
                    "midi": 65,
                    "time": 7.499999999999999,
                    "velocity": 0.3543307086614173,
                    "duration": 0.8999999999999995
                },
                {
                    "name": "D#4",
                    "midi": 63,
                    "time": 8.399999999999999,
                    "velocity": 0.3543307086614173,
                    "duration": 0.09999999999999964
                },
                {
                    "name": "D#4",
                    "midi": 63,
                    "time": 8.699999999999998,
                    "velocity": 0.3543307086614173,
                    "duration": 0.09999999999999964
                },
                {
                    "name": "F#4",
                    "midi": 66,
                    "time": 9.299999999999997,
                    "velocity": 0.3543307086614173,
                    "duration": 0.09999999999999964
                },
                {
                    "name": "F#4",
                    "midi": 66,
                    "time": 9.599999999999996,
                    "velocity": 0.3543307086614173,
                    "duration": 0.09999999999999964
                },
                {
                    "name": "G4",
                    "midi": 67,
                    "time": 10.199999999999996,
                    "velocity": 0.3543307086614173,
                    "duration": 0.09999999999999964
                },
                {
                    "name": "G4",
                    "midi": 67,
                    "time": 10.499999999999995,
                    "velocity": 0.3543307086614173,
                    "duration": 0.09999999999999964
                },
                {
                    "name": "F4",
                    "midi": 65,
                    "time": 11.099999999999994,
                    "velocity": 0.3543307086614173,
                    "duration": 0.09999999999999964
                },
                {
                    "name": "F4",
                    "midi": 65,
                    "time": 11.399999999999993,
                    "velocity": 0.3543307086614173,
                    "duration": 0.09999999999999964
                },
                {
                    "name": "D#4",
                    "midi": 63,
                    "time": 11.999999999999993,
                    "velocity": 0.3543307086614173,
                    "duration": 0.09999999999999964
                },
                {
                    "name": "D4",
                    "midi": 62,
                    "time": 12.899999999999993,
                    "velocity": 0.3543307086614173,
                    "duration": 0.09999999999999964
                },
                {
                    "name": "D#4",
                    "midi": 63,
                    "time": 13.799999999999994,
                    "velocity": 0.3543307086614173,
                    "duration": 0.5999999999999996
                },
                {
                    "name": "G4",
                    "midi": 67,
                    "time": 14.399999999999993,
                    "velocity": 0.8503937007874016,
                    "duration": 0.3000000000000007
                },
                {
                    "name": "G5",
                    "midi": 79,
                    "time": 14.699999999999994,
                    "velocity": 0.8503937007874016,
                    "duration": 0.09999999999999964
                },
                {
                    "name": "G5",
                    "midi": 79,
                    "time": 14.999999999999993,
                    "velocity": 0.8503937007874016,
                    "duration": 0.09999999999999964
                },
                {
                    "name": "F5",
                    "midi": 77,
                    "time": 15.299999999999992,
                    "velocity": 0.8503937007874016,
                    "duration": 0.09999999999999964
                },
                {
                    "name": "D#5",
                    "midi": 75,
                    "time": 15.59999999999999,
                    "velocity": 0.8503937007874016,
                    "duration": 0.09999999999999964
                },
                {
                    "name": "D#5",
                    "midi": 75,
                    "time": 15.89999999999999,
                    "velocity": 0.8503937007874016,
                    "duration": 0.09999999999999964
                },
                {
                    "name": "D5",
                    "midi": 74,
                    "time": 16.19999999999999,
                    "velocity": 0.8503937007874016,
                    "duration": 0.10000000000000142
                },
                {
                    "name": "C5",
                    "midi": 72,
                    "time": 16.49999999999999,
                    "velocity": 0.8503937007874016,
                    "duration": 0.10000000000000142
                },
                {
                    "name": "B4",
                    "midi": 71,
                    "time": 16.79999999999999,
                    "velocity": 0.8503937007874016,
                    "duration": 0.10000000000000142
                },
                {
                    "name": "C5",
                    "midi": 72,
                    "time": 17.09999999999999,
                    "velocity": 0.8503937007874016,
                    "duration": 0.10000000000000142
                },
                {
                    "name": "B4",
                    "midi": 71,
                    "time": 17.39999999999999,
                    "velocity": 0.8503937007874016,
                    "duration": 0.07499999999999929
                },
                {
                    "name": "C5",
                    "midi": 72,
                    "time": 17.47499999999999,
                    "velocity": 0.8503937007874016,
                    "duration": 0.07499999999999929
                },
                {
                    "name": "D5",
                    "midi": 74,
                    "time": 17.54999999999999,
                    "velocity": 0.8503937007874016,
                    "duration": 0.10000000000000142
                },
                {
                    "name": "G4",
                    "midi": 67,
                    "time": 17.699999999999992,
                    "velocity": 0.8503937007874016,
                    "duration": 0.10000000000000142
                },
                {
                    "name": "G4",
                    "midi": 67,
                    "time": 17.999999999999993,
                    "velocity": 0.8503937007874016,
                    "duration": 0.10000000000000142
                },
                {
                    "name": "A#4",
                    "midi": 70,
                    "time": 18.299999999999994,
                    "velocity": 0.8503937007874016,
                    "duration": 0.07499999999999929
                },
                {
                    "name": "G#4",
                    "midi": 68,
                    "time": 18.374999999999993,
                    "velocity": 0.8503937007874016,
                    "duration": 0.14999999999999858
                },
                {
                    "name": "G4",
                    "midi": 67,
                    "time": 18.59999999999999,
                    "velocity": 0.8503937007874016,
                    "duration": 0.10000000000000142
                },
                {
                    "name": "F4",
                    "midi": 65,
                    "time": 18.89999999999999,
                    "velocity": 0.8503937007874016,
                    "duration": 0.10000000000000142
                },
                {
                    "name": "D#4",
                    "midi": 63,
                    "time": 19.199999999999992,
                    "velocity": 0.8503937007874016,
                    "duration": 0.10000000000000142
                },
                {
                    "name": "D4",
                    "midi": 62,
                    "time": 19.499999999999993,
                    "velocity": 0.8503937007874016,
                    "duration": 0.10000000000000142
                },
                {
                    "name": "C4",
                    "midi": 60,
                    "time": 19.799999999999994,
                    "velocity": 0.8503937007874016,
                    "duration": 0.10000000000000142
                },
                {
                    "name": "F4",
                    "midi": 65,
                    "time": 20.099999999999994,
                    "velocity": 0.8503937007874016,
                    "duration": 0.07499999999999929
                },
                {
                    "name": "D#4",
                    "midi": 63,
                    "time": 20.174999999999994,
                    "velocity": 0.8503937007874016,
                    "duration": 0.14999999999999858
                },
                {
                    "name": "D4",
                    "midi": 62,
                    "time": 20.39999999999999,
                    "velocity": 0.8503937007874016,
                    "duration": 0.10000000000000142
                },
                {
                    "name": "C4",
                    "midi": 60,
                    "time": 20.699999999999992,
                    "velocity": 0.8503937007874016,
                    "duration": 0.10000000000000142
                },
                {
                    "name": "D4",
                    "midi": 62,
                    "time": 20.999999999999993,
                    "velocity": 0.8503937007874016,
                    "duration": 0.6000000000000014
                },
                {
                    "name": "G4",
                    "midi": 67,
                    "time": 21.599999999999994,
                    "velocity": 0.8503937007874016,
                    "duration": 0.3000000000000007
                },
                {
                    "name": "G5",
                    "midi": 79,
                    "time": 21.899999999999995,
                    "velocity": 0.8503937007874016,
                    "duration": 0.10000000000000142
                },
                {
                    "name": "G5",
                    "midi": 79,
                    "time": 22.199999999999996,
                    "velocity": 0.8503937007874016,
                    "duration": 0.10000000000000142
                },
                {
                    "name": "F5",
                    "midi": 77,
                    "time": 22.499999999999996,
                    "velocity": 0.8503937007874016,
                    "duration": 0.10000000000000142
                },
                {
                    "name": "D#5",
                    "midi": 75,
                    "time": 22.799999999999997,
                    "velocity": 0.8503937007874016,
                    "duration": 0.10000000000000142
                },
                {
                    "name": "D#5",
                    "midi": 75,
                    "time": 23.099999999999998,
                    "velocity": 0.8503937007874016,
                    "duration": 0.10000000000000142
                },
                {
                    "name": "D5",
                    "midi": 74,
                    "time": 23.4,
                    "velocity": 0.8503937007874016,
                    "duration": 0.10000000000000142
                },
                {
                    "name": "C5",
                    "midi": 72,
                    "time": 23.7,
                    "velocity": 0.8503937007874016,
                    "duration": 0.10000000000000142
                },
                {
                    "name": "B4",
                    "midi": 71,
                    "time": 24,
                    "velocity": 0.8503937007874016,
                    "duration": 0.10000000000000142
                },
                {
                    "name": "C5",
                    "midi": 72,
                    "time": 24.3,
                    "velocity": 0.8503937007874016,
                    "duration": 0.10000000000000142
                },
                {
                    "name": "B4",
                    "midi": 71,
                    "time": 24.6,
                    "velocity": 0.8503937007874016,
                    "duration": 0.07499999999999929
                },
                {
                    "name": "C5",
                    "midi": 72,
                    "time": 24.675,
                    "velocity": 0.8503937007874016,
                    "duration": 0.07499999999999929
                },
                {
                    "name": "D5",
                    "midi": 74,
                    "time": 24.75,
                    "velocity": 0.8503937007874016,
                    "duration": 0.10000000000000142
                },
                {
                    "name": "G4",
                    "midi": 67,
                    "time": 24.900000000000002,
                    "velocity": 0.8503937007874016,
                    "duration": 0.10000000000000142
                },
                {
                    "name": "G4",
                    "midi": 67,
                    "time": 25.200000000000003,
                    "velocity": 0.8503937007874016,
                    "duration": 0.10000000000000142
                },
                {
                    "name": "A#4",
                    "midi": 70,
                    "time": 25.500000000000004,
                    "velocity": 0.8503937007874016,
                    "duration": 0.07499999999999929
                },
                {
                    "name": "G#4",
                    "midi": 68,
                    "time": 25.575000000000003,
                    "velocity": 0.8503937007874016,
                    "duration": 0.14999999999999858
                },
                {
                    "name": "G4",
                    "midi": 67,
                    "time": 25.8,
                    "velocity": 0.8503937007874016,
                    "duration": 0.10000000000000142
                },
                {
                    "name": "F4",
                    "midi": 65,
                    "time": 26.1,
                    "velocity": 0.8503937007874016,
                    "duration": 0.10000000000000142
                },
                {
                    "name": "G4",
                    "midi": 67,
                    "time": 26.400000000000002,
                    "velocity": 0.8503937007874016,
                    "duration": 0.10000000000000142
                },
                {
                    "name": "C5",
                    "midi": 72,
                    "time": 26.700000000000003,
                    "velocity": 0.8503937007874016,
                    "duration": 0.10000000000000142
                },
                {
                    "name": "D#5",
                    "midi": 75,
                    "time": 26.850000000000005,
                    "velocity": 0.8503937007874016,
                    "duration": 0.10000000000000142
                },
                {
                    "name": "G5",
                    "midi": 79,
                    "time": 27.000000000000007,
                    "velocity": 0.8503937007874016,
                    "duration": 0.10000000000000142
                },
                {
                    "name": "G4",
                    "midi": 67,
                    "time": 27.300000000000008,
                    "velocity": 0.8503937007874016,
                    "duration": 0.10000000000000142
                },
                {
                    "name": "B4",
                    "midi": 71,
                    "time": 27.60000000000001,
                    "velocity": 0.8503937007874016,
                    "duration": 0.10000000000000142
                },
                {
                    "name": "D5",
                    "midi": 74,
                    "time": 27.75000000000001,
                    "velocity": 0.8503937007874016,
                    "duration": 0.10000000000000142
                },
                {
                    "name": "G5",
                    "midi": 79,
                    "time": 27.900000000000013,
                    "velocity": 0.8503937007874016,
                    "duration": 0.10000000000000142
                },
                {
                    "name": "C5",
                    "midi": 72,
                    "time": 28.200000000000014,
                    "velocity": 0.8503937007874016,
                    "duration": 0.6000000000000014
                },
                {
                    "name": "D#4",
                    "midi": 63,
                    "time": 30.000000000000014,
                    "velocity": 0.3543307086614173,
                    "duration": 0.6000000000000014
                },
                {
                    "name": "D4",
                    "midi": 62,
                    "time": 30.900000000000016,
                    "velocity": 0.3543307086614173,
                    "duration": 0.6000000000000014
                },
                {
                    "name": "D#4",
                    "midi": 63,
                    "time": 31.80000000000002,
                    "velocity": 0.3543307086614173,
                    "duration": 0.6000000000000014
                },
                {
                    "name": "G4",
                    "midi": 67,
                    "time": 33.60000000000002,
                    "velocity": 0.3543307086614173,
                    "duration": 0.6000000000000014
                },
                {
                    "name": "F#4",
                    "midi": 66,
                    "time": 34.50000000000002,
                    "velocity": 0.3543307086614173,
                    "duration": 0.6000000000000014
                },
                {
                    "name": "G4",
                    "midi": 67,
                    "time": 35.40000000000002,
                    "velocity": 0.3543307086614173,
                    "duration": 0.6000000000000014
                },
                {
                    "name": "A#4",
                    "midi": 70,
                    "time": 37.200000000000024,
                    "velocity": 0.3543307086614173,
                    "duration": 0.6000000000000014
                },
                {
                    "name": "A4",
                    "midi": 69,
                    "time": 38.10000000000002,
                    "velocity": 0.3543307086614173,
                    "duration": 0.6000000000000014
                },
                {
                    "name": "A#4",
                    "midi": 70,
                    "time": 39.00000000000002,
                    "velocity": 0.3543307086614173,
                    "duration": 0.8999999999999986
                },
                {
                    "name": "A4",
                    "midi": 69,
                    "time": 39.90000000000002,
                    "velocity": 0.3543307086614173,
                    "duration": 0.8999999999999986
                },
                {
                    "name": "A#4",
                    "midi": 70,
                    "time": 40.80000000000002,
                    "velocity": 0.3543307086614173,
                    "duration": 0.8999999999999986
                },
                {
                    "name": "F4",
                    "midi": 65,
                    "time": 41.70000000000002,
                    "velocity": 0.3543307086614173,
                    "duration": 0.8999999999999986
                },
                {
                    "name": "F4",
                    "midi": 65,
                    "time": 42.600000000000016,
                    "velocity": 0.3543307086614173,
                    "duration": 0.7999999999999972
                },
                {
                    "name": "D#4",
                    "midi": 63,
                    "time": 43.500000000000014,
                    "velocity": 0.49606299212598426,
                    "duration": 1.1937500000000014
                },
                {
                    "name": "D#4",
                    "midi": 63,
                    "time": 44.70000000000002,
                    "velocity": 0.47244094488188976,
                    "duration": 0.10000000000000142
                },
                {
                    "name": "D#4",
                    "midi": 63,
                    "time": 45.00000000000002,
                    "velocity": 0.47244094488188976,
                    "duration": 0.10000000000000142
                },
                {
                    "name": "D4",
                    "midi": 62,
                    "time": 45.60000000000002,
                    "velocity": 0.47244094488188976,
                    "duration": 0.10000000000000142
                },
                {
                    "name": "D4",
                    "midi": 62,
                    "time": 45.90000000000003,
                    "velocity": 0.47244094488188976,
                    "duration": 0.10000000000000142
                },
                {
                    "name": "F4",
                    "midi": 65,
                    "time": 46.50000000000003,
                    "velocity": 0.47244094488188976,
                    "duration": 0.10000000000000142
                },
                {
                    "name": "F4",
                    "midi": 65,
                    "time": 46.80000000000003,
                    "velocity": 0.47244094488188976,
                    "duration": 0.10000000000000142
                },
                {
                    "name": "D4",
                    "midi": 62,
                    "time": 47.10000000000004,
                    "velocity": 0.6614173228346457,
                    "duration": 1.1937500000000014
                },
                {
                    "name": "F4",
                    "midi": 65,
                    "time": 48.30000000000004,
                    "velocity": 0.47244094488188976,
                    "duration": 0.10000000000000142
                },
                {
                    "name": "F4",
                    "midi": 65,
                    "time": 48.600000000000044,
                    "velocity": 0.47244094488188976,
                    "duration": 0.10000000000000142
                },
                {
                    "name": "F4",
                    "midi": 65,
                    "time": 49.200000000000045,
                    "velocity": 0.47244094488188976,
                    "duration": 0.10000000000000142
                },
                {
                    "name": "F4",
                    "midi": 65,
                    "time": 49.50000000000005,
                    "velocity": 0.47244094488188976,
                    "duration": 0.10000000000000142
                },
                {
                    "name": "G4",
                    "midi": 67,
                    "time": 49.800000000000054,
                    "velocity": 0.47244094488188976,
                    "duration": 0.6000000000000014
                },
                {
                    "name": "D5",
                    "midi": 74,
                    "time": 50.70000000000005,
                    "velocity": 0.47244094488188976,
                    "duration": 0.10000000000000142
                },
                {
                    "name": "D5",
                    "midi": 74,
                    "time": 51.00000000000006,
                    "velocity": 0.47244094488188976,
                    "duration": 0.10000000000000142
                },
                {
                    "name": "D#5",
                    "midi": 75,
                    "time": 51.60000000000006,
                    "velocity": 0.47244094488188976,
                    "duration": 0.10000000000000142
                },
                {
                    "name": "D#5",
                    "midi": 75,
                    "time": 51.90000000000006,
                    "velocity": 0.47244094488188976,
                    "duration": 0.10000000000000142
                },
                {
                    "name": "D#5",
                    "midi": 75,
                    "time": 52.500000000000064,
                    "velocity": 0.47244094488188976,
                    "duration": 0.10000000000000142
                },
                {
                    "name": "D#5",
                    "midi": 75,
                    "time": 52.80000000000007,
                    "velocity": 0.47244094488188976,
                    "duration": 0.10000000000000142
                },
                {
                    "name": "D5",
                    "midi": 74,
                    "time": 53.40000000000007,
                    "velocity": 0.47244094488188976,
                    "duration": 0.10000000000000142
                },
                {
                    "name": "D5",
                    "midi": 74,
                    "time": 53.700000000000074,
                    "velocity": 0.47244094488188976,
                    "duration": 0.10000000000000142
                },
                {
                    "name": "F4",
                    "midi": 65,
                    "time": 54.300000000000075,
                    "velocity": 0.3543307086614173,
                    "duration": 0.10000000000000142
                },
                {
                    "name": "B4",
                    "midi": 71,
                    "time": 54.300000000000075,
                    "velocity": 0.3543307086614173,
                    "duration": 0.10000000000000142
                },
                {
                    "name": "F4",
                    "midi": 65,
                    "time": 54.60000000000008,
                    "velocity": 0.3543307086614173,
                    "duration": 0.10000000000000142
                },
                {
                    "name": "B4",
                    "midi": 71,
                    "time": 54.60000000000008,
                    "velocity": 0.3543307086614173,
                    "duration": 0.10000000000000142
                },
                {
                    "name": "D#4",
                    "midi": 63,
                    "time": 55.20000000000008,
                    "velocity": 0.3543307086614173,
                    "duration": 0.10000000000000142
                },
                {
                    "name": "C5",
                    "midi": 72,
                    "time": 55.20000000000008,
                    "velocity": 0.3543307086614173,
                    "duration": 0.10000000000000142
                },
                {
                    "name": "D#4",
                    "midi": 63,
                    "time": 55.500000000000085,
                    "velocity": 0.3543307086614173,
                    "duration": 0.10000000000000142
                },
                {
                    "name": "C5",
                    "midi": 72,
                    "time": 55.500000000000085,
                    "velocity": 0.3543307086614173,
                    "duration": 0.10000000000000142
                },
                {
                    "name": "G#4",
                    "midi": 68,
                    "time": 56.10000000000009,
                    "velocity": 0.3543307086614173,
                    "duration": 0.10000000000000142
                },
                {
                    "name": "G#4",
                    "midi": 68,
                    "time": 56.40000000000009,
                    "velocity": 0.3543307086614173,
                    "duration": 0.10000000000000142
                },
                {
                    "name": "G4",
                    "midi": 67,
                    "time": 57.00000000000009,
                    "velocity": 0.3543307086614173,
                    "duration": 0.6000000000000014
                },
                {
                    "name": "D#4",
                    "midi": 63,
                    "time": 63.3000000000001,
                    "velocity": 0.3543307086614173,
                    "duration": 0.10000000000000142
                },
                {
                    "name": "D#4",
                    "midi": 63,
                    "time": 63.6000000000001,
                    "velocity": 0.3543307086614173,
                    "duration": 0.10000000000000142
                },
                {
                    "name": "F4",
                    "midi": 65,
                    "time": 64.2000000000001,
                    "velocity": 0.3543307086614173,
                    "duration": 0.09999999999999432
                },
                {
                    "name": "F4",
                    "midi": 65,
                    "time": 64.5000000000001,
                    "velocity": 0.3543307086614173,
                    "duration": 0.09999999999999432
                },
                {
                    "name": "D4",
                    "midi": 62,
                    "time": 65.1000000000001,
                    "velocity": 0.3543307086614173,
                    "duration": 0.09999999999999432
                },
                {
                    "name": "D4",
                    "midi": 62,
                    "time": 65.40000000000009,
                    "velocity": 0.3543307086614173,
                    "duration": 0.09999999999999432
                },
                {
                    "name": "F4",
                    "midi": 65,
                    "time": 66.00000000000009,
                    "velocity": 0.3543307086614173,
                    "duration": 0.09999999999999432
                },
                {
                    "name": "F4",
                    "midi": 65,
                    "time": 66.30000000000008,
                    "velocity": 0.3543307086614173,
                    "duration": 0.09999999999999432
                },
                {
                    "name": "D#4",
                    "midi": 63,
                    "time": 66.90000000000008,
                    "velocity": 0.3543307086614173,
                    "duration": 0.09999999999999432
                },
                {
                    "name": "D#4",
                    "midi": 63,
                    "time": 67.20000000000007,
                    "velocity": 0.3543307086614173,
                    "duration": 0.09999999999999432
                },
                {
                    "name": "D#4",
                    "midi": 63,
                    "time": 67.80000000000007,
                    "velocity": 0.3543307086614173,
                    "duration": 0.09999999999999432
                },
                {
                    "name": "D#4",
                    "midi": 63,
                    "time": 68.10000000000007,
                    "velocity": 0.3543307086614173,
                    "duration": 0.09999999999999432
                },
                {
                    "name": "G4",
                    "midi": 67,
                    "time": 68.70000000000006,
                    "velocity": 0.3543307086614173,
                    "duration": 0.5999999999999943
                },
                {
                    "name": "D4",
                    "midi": 62,
                    "time": 69.60000000000005,
                    "velocity": 0.49606299212598426,
                    "duration": 0.9000000000000057
                },
                {
                    "name": "E4",
                    "midi": 64,
                    "time": 70.50000000000006,
                    "velocity": 0.3543307086614173,
                    "duration": 0.09999999999999432
                },
                {
                    "name": "E4",
                    "midi": 64,
                    "time": 70.80000000000005,
                    "velocity": 0.3543307086614173,
                    "duration": 0.09999999999999432
                },
                {
                    "name": "E4",
                    "midi": 64,
                    "time": 71.40000000000005,
                    "velocity": 0.3543307086614173,
                    "duration": 0.09999999999999432
                },
                {
                    "name": "E4",
                    "midi": 64,
                    "time": 71.70000000000005,
                    "velocity": 0.3543307086614173,
                    "duration": 0.09999999999999432
                },
                {
                    "name": "F4",
                    "midi": 65,
                    "time": 72.30000000000004,
                    "velocity": 0.3543307086614173,
                    "duration": 0.09999999999999432
                },
                {
                    "name": "F4",
                    "midi": 65,
                    "time": 72.60000000000004,
                    "velocity": 0.3543307086614173,
                    "duration": 0.09999999999999432
                },
                {
                    "name": "F4",
                    "midi": 65,
                    "time": 73.20000000000003,
                    "velocity": 0.3543307086614173,
                    "duration": 0.09999999999999432
                },
                {
                    "name": "F4",
                    "midi": 65,
                    "time": 73.50000000000003,
                    "velocity": 0.3543307086614173,
                    "duration": 0.09999999999999432
                },
                {
                    "name": "D#4",
                    "midi": 63,
                    "time": 74.10000000000002,
                    "velocity": 0.3543307086614173,
                    "duration": 0.09999999999999432
                },
                {
                    "name": "F4",
                    "midi": 65,
                    "time": 75.00000000000001,
                    "velocity": 0.3543307086614173,
                    "duration": 0.09999999999999432
                },
                {
                    "name": "D#4",
                    "midi": 63,
                    "time": 75.9,
                    "velocity": 0.3543307086614173,
                    "duration": 0.5999999999999943
                },
                {
                    "name": "G4",
                    "midi": 67,
                    "time": 76.5,
                    "velocity": 0.8503937007874016,
                    "duration": 0.29999999999999716
                },
                {
                    "name": "G5",
                    "midi": 79,
                    "time": 76.8,
                    "velocity": 0.8503937007874016,
                    "duration": 0.09999999999999432
                },
                {
                    "name": "G5",
                    "midi": 79,
                    "time": 77.1,
                    "velocity": 0.8503937007874016,
                    "duration": 0.09999999999999432
                },
                {
                    "name": "F5",
                    "midi": 77,
                    "time": 77.39999999999999,
                    "velocity": 0.8503937007874016,
                    "duration": 0.09999999999999432
                },
                {
                    "name": "D#5",
                    "midi": 75,
                    "time": 77.69999999999999,
                    "velocity": 0.8503937007874016,
                    "duration": 0.09999999999999432
                },
                {
                    "name": "D#5",
                    "midi": 75,
                    "time": 77.99999999999999,
                    "velocity": 0.8503937007874016,
                    "duration": 0.09999999999999432
                },
                {
                    "name": "D5",
                    "midi": 74,
                    "time": 78.29999999999998,
                    "velocity": 0.8503937007874016,
                    "duration": 0.09999999999999432
                },
                {
                    "name": "C5",
                    "midi": 72,
                    "time": 78.59999999999998,
                    "velocity": 0.8503937007874016,
                    "duration": 0.09999999999999432
                },
                {
                    "name": "B4",
                    "midi": 71,
                    "time": 78.89999999999998,
                    "velocity": 0.8503937007874016,
                    "duration": 0.09999999999999432
                },
                {
                    "name": "C5",
                    "midi": 72,
                    "time": 79.19999999999997,
                    "velocity": 0.8503937007874016,
                    "duration": 0.09999999999999432
                },
                {
                    "name": "B4",
                    "midi": 71,
                    "time": 79.49999999999997,
                    "velocity": 0.8503937007874016,
                    "duration": 0.07500000000000284
                },
                {
                    "name": "C5",
                    "midi": 72,
                    "time": 79.57499999999997,
                    "velocity": 0.8503937007874016,
                    "duration": 0.07500000000000284
                },
                {
                    "name": "D5",
                    "midi": 74,
                    "time": 79.64999999999998,
                    "velocity": 0.8503937007874016,
                    "duration": 0.09999999999999432
                },
                {
                    "name": "G4",
                    "midi": 67,
                    "time": 79.79999999999997,
                    "velocity": 0.8503937007874016,
                    "duration": 0.09999999999999432
                },
                {
                    "name": "G4",
                    "midi": 67,
                    "time": 80.09999999999997,
                    "velocity": 0.8503937007874016,
                    "duration": 0.09999999999999432
                },
                {
                    "name": "A#4",
                    "midi": 70,
                    "time": 80.39999999999996,
                    "velocity": 0.8503937007874016,
                    "duration": 0.07500000000000284
                },
                {
                    "name": "G#4",
                    "midi": 68,
                    "time": 80.47499999999997,
                    "velocity": 0.8503937007874016,
                    "duration": 0.15000000000000568
                },
                {
                    "name": "G4",
                    "midi": 67,
                    "time": 80.69999999999997,
                    "velocity": 0.8503937007874016,
                    "duration": 0.09999999999999432
                },
                {
                    "name": "F4",
                    "midi": 65,
                    "time": 80.99999999999997,
                    "velocity": 0.8503937007874016,
                    "duration": 0.09999999999999432
                },
                {
                    "name": "D#4",
                    "midi": 63,
                    "time": 81.29999999999997,
                    "velocity": 0.8503937007874016,
                    "duration": 0.09999999999999432
                },
                {
                    "name": "D4",
                    "midi": 62,
                    "time": 81.59999999999997,
                    "velocity": 0.8503937007874016,
                    "duration": 0.09999999999999432
                },
                {
                    "name": "C4",
                    "midi": 60,
                    "time": 81.89999999999996,
                    "velocity": 0.8503937007874016,
                    "duration": 0.09999999999999432
                },
                {
                    "name": "F4",
                    "midi": 65,
                    "time": 82.19999999999996,
                    "velocity": 0.8503937007874016,
                    "duration": 0.07500000000000284
                },
                {
                    "name": "D#4",
                    "midi": 63,
                    "time": 82.27499999999996,
                    "velocity": 0.8503937007874016,
                    "duration": 0.15000000000000568
                },
                {
                    "name": "D4",
                    "midi": 62,
                    "time": 82.49999999999997,
                    "velocity": 0.8503937007874016,
                    "duration": 0.09999999999999432
                },
                {
                    "name": "C4",
                    "midi": 60,
                    "time": 82.79999999999997,
                    "velocity": 0.8503937007874016,
                    "duration": 0.09999999999999432
                },
                {
                    "name": "D4",
                    "midi": 62,
                    "time": 83.09999999999997,
                    "velocity": 0.8503937007874016,
                    "duration": 0.5999999999999943
                },
                {
                    "name": "G4",
                    "midi": 67,
                    "time": 83.69999999999996,
                    "velocity": 0.8503937007874016,
                    "duration": 0.29999999999999716
                },
                {
                    "name": "G5",
                    "midi": 79,
                    "time": 83.99999999999996,
                    "velocity": 0.8503937007874016,
                    "duration": 0.09999999999999432
                },
                {
                    "name": "G5",
                    "midi": 79,
                    "time": 84.29999999999995,
                    "velocity": 0.8503937007874016,
                    "duration": 0.09999999999999432
                },
                {
                    "name": "F5",
                    "midi": 77,
                    "time": 84.59999999999995,
                    "velocity": 0.8503937007874016,
                    "duration": 0.09999999999999432
                },
                {
                    "name": "E5",
                    "midi": 76,
                    "time": 84.89999999999995,
                    "velocity": 0.8503937007874016,
                    "duration": 0.09999999999999432
                },
                {
                    "name": "E5",
                    "midi": 76,
                    "time": 85.19999999999995,
                    "velocity": 0.8503937007874016,
                    "duration": 0.09999999999999432
                },
                {
                    "name": "D5",
                    "midi": 74,
                    "time": 85.49999999999994,
                    "velocity": 0.8503937007874016,
                    "duration": 0.09999999999999432
                },
                {
                    "name": "C5",
                    "midi": 72,
                    "time": 85.79999999999994,
                    "velocity": 0.8503937007874016,
                    "duration": 0.09999999999999432
                },
                {
                    "name": "B4",
                    "midi": 71,
                    "time": 86.09999999999994,
                    "velocity": 0.8503937007874016,
                    "duration": 0.09999999999999432
                },
                {
                    "name": "C5",
                    "midi": 72,
                    "time": 86.39999999999993,
                    "velocity": 0.8503937007874016,
                    "duration": 0.09999999999999432
                },
                {
                    "name": "B4",
                    "midi": 71,
                    "time": 86.69999999999993,
                    "velocity": 0.8503937007874016,
                    "duration": 0.07500000000000284
                },
                {
                    "name": "C5",
                    "midi": 72,
                    "time": 86.77499999999993,
                    "velocity": 0.8503937007874016,
                    "duration": 0.07500000000000284
                },
                {
                    "name": "D5",
                    "midi": 74,
                    "time": 86.84999999999994,
                    "velocity": 0.8503937007874016,
                    "duration": 0.09999999999999432
                },
                {
                    "name": "G4",
                    "midi": 67,
                    "time": 86.99999999999993,
                    "velocity": 0.8503937007874016,
                    "duration": 0.09999999999999432
                },
                {
                    "name": "G4",
                    "midi": 67,
                    "time": 87.29999999999993,
                    "velocity": 0.8503937007874016,
                    "duration": 0.09999999999999432
                },
                {
                    "name": "A#4",
                    "midi": 70,
                    "time": 87.59999999999992,
                    "velocity": 0.8503937007874016,
                    "duration": 0.07500000000000284
                },
                {
                    "name": "G#4",
                    "midi": 68,
                    "time": 87.67499999999993,
                    "velocity": 0.8503937007874016,
                    "duration": 0.15000000000000568
                },
                {
                    "name": "G4",
                    "midi": 67,
                    "time": 87.89999999999993,
                    "velocity": 0.8503937007874016,
                    "duration": 0.09999999999999432
                },
                {
                    "name": "F4",
                    "midi": 65,
                    "time": 88.19999999999993,
                    "velocity": 0.8503937007874016,
                    "duration": 0.09999999999999432
                },
                {
                    "name": "G4",
                    "midi": 67,
                    "time": 88.49999999999993,
                    "velocity": 0.8503937007874016,
                    "duration": 0.09999999999999432
                },
                {
                    "name": "C5",
                    "midi": 72,
                    "time": 88.79999999999993,
                    "velocity": 0.8503937007874016,
                    "duration": 0.09999999999999432
                },
                {
                    "name": "D#5",
                    "midi": 75,
                    "time": 88.94999999999992,
                    "velocity": 0.8503937007874016,
                    "duration": 0.09999999999999432
                },
                {
                    "name": "G5",
                    "midi": 79,
                    "time": 89.09999999999991,
                    "velocity": 0.8503937007874016,
                    "duration": 0.09999999999999432
                },
                {
                    "name": "G4",
                    "midi": 67,
                    "time": 89.3999999999999,
                    "velocity": 0.8503937007874016,
                    "duration": 0.09999999999999432
                },
                {
                    "name": "B4",
                    "midi": 71,
                    "time": 89.6999999999999,
                    "velocity": 0.8503937007874016,
                    "duration": 0.09999999999999432
                },
                {
                    "name": "D5",
                    "midi": 74,
                    "time": 89.8499999999999,
                    "velocity": 0.8503937007874016,
                    "duration": 0.09999999999999432
                },
                {
                    "name": "G5",
                    "midi": 79,
                    "time": 89.99999999999989,
                    "velocity": 0.8503937007874016,
                    "duration": 0.09999999999999432
                },
                {
                    "name": "G4",
                    "midi": 67,
                    "time": 90.29999999999988,
                    "velocity": 0.7244094488188977,
                    "duration": 0.9000000000000057
                },
                {
                    "name": "G4",
                    "midi": 67,
                    "time": 91.19999999999989,
                    "velocity": 0.5905511811023622,
                    "duration": 0.5
                },
                {
                    "name": "G4",
                    "midi": 67,
                    "time": 91.79999999999988,
                    "velocity": 0.5905511811023622,
                    "duration": 0.29375000000000284
                },
                {
                    "name": "D#4",
                    "midi": 63,
                    "time": 92.09999999999988,
                    "velocity": 0.5905511811023622,
                    "duration": 0.7999999999999972
                },
                {
                    "name": "F4",
                    "midi": 65,
                    "time": 92.99999999999987,
                    "velocity": 0.5905511811023622,
                    "duration": 0.5999999999999943
                },
                {
                    "name": "G4",
                    "midi": 67,
                    "time": 93.59999999999987,
                    "velocity": 0.5905511811023622,
                    "duration": 0.29375000000000284
                },
                {
                    "name": "G#4",
                    "midi": 68,
                    "time": 93.89999999999986,
                    "velocity": 0.5905511811023622,
                    "duration": 0.9000000000000057
                },
                {
                    "name": "C5",
                    "midi": 72,
                    "time": 94.79999999999987,
                    "velocity": 0.5905511811023622,
                    "duration": 0.7999999999999972
                },
                {
                    "name": "C5",
                    "midi": 72,
                    "time": 95.69999999999986,
                    "velocity": 0.5905511811023622,
                    "duration": 1.7999999999999972
                },
                {
                    "name": "A#4",
                    "midi": 70,
                    "time": 97.49999999999986,
                    "velocity": 0.5905511811023622,
                    "duration": 0.7999999999999972
                },
                {
                    "name": "C#5",
                    "midi": 73,
                    "time": 98.39999999999985,
                    "velocity": 0.5905511811023622,
                    "duration": 0.5999999999999943
                },
                {
                    "name": "C5",
                    "midi": 72,
                    "time": 98.99999999999984,
                    "velocity": 0.5905511811023622,
                    "duration": 0.29375000000000284
                },
                {
                    "name": "G#4",
                    "midi": 68,
                    "time": 99.29999999999984,
                    "velocity": 0.5905511811023622,
                    "duration": 0.7999999999999972
                },
                {
                    "name": "C5",
                    "midi": 72,
                    "time": 100.19999999999983,
                    "velocity": 0.5905511811023622,
                    "duration": 0.9000000000000057
                },
                {
                    "name": "G4",
                    "midi": 67,
                    "time": 101.09999999999984,
                    "velocity": 0.5905511811023622,
                    "duration": 0.7999999999999972
                },
                {
                    "name": "C5",
                    "midi": 72,
                    "time": 101.99999999999983,
                    "velocity": 0.5905511811023622,
                    "duration": 0.9000000000000057
                },
                {
                    "name": "F4",
                    "midi": 65,
                    "time": 102.89999999999984,
                    "velocity": 0.5905511811023622,
                    "duration": 2.5999999999999943
                },
                {
                    "name": "F#4",
                    "midi": 66,
                    "time": 105.59999999999982,
                    "velocity": 0.5905511811023622,
                    "duration": 0.5999999999999943
                },
                {
                    "name": "F4",
                    "midi": 65,
                    "time": 106.19999999999982,
                    "velocity": 0.5905511811023622,
                    "duration": 0.29375000000000284
                },
                {
                    "name": "F4",
                    "midi": 65,
                    "time": 106.49999999999982,
                    "velocity": 0.5905511811023622,
                    "duration": 0.7999999999999972
                },
                {
                    "name": "G4",
                    "midi": 67,
                    "time": 107.3999999999998,
                    "velocity": 0.5905511811023622,
                    "duration": 0.5999999999999943
                },
                {
                    "name": "A4",
                    "midi": 69,
                    "time": 107.9999999999998,
                    "velocity": 0.5905511811023622,
                    "duration": 0.29375000000000284
                },
                {
                    "name": "A#4",
                    "midi": 70,
                    "time": 108.2999999999998,
                    "velocity": 0.5905511811023622,
                    "duration": 0.9000000000000057
                },
                {
                    "name": "C#5",
                    "midi": 73,
                    "time": 109.1999999999998,
                    "velocity": 0.5905511811023622,
                    "duration": 0.7999999999999972
                },
                {
                    "name": "C#5",
                    "midi": 73,
                    "time": 110.0999999999998,
                    "velocity": 0.5905511811023622,
                    "duration": 1.7999999999999972
                },
                {
                    "name": "C5",
                    "midi": 72,
                    "time": 111.89999999999979,
                    "velocity": 0.5905511811023622,
                    "duration": 0.7999999999999972
                },
                {
                    "name": "A#4",
                    "midi": 70,
                    "time": 112.79999999999978,
                    "velocity": 0.5905511811023622,
                    "duration": 0.5999999999999943
                },
                {
                    "name": "G#4",
                    "midi": 68,
                    "time": 113.39999999999978,
                    "velocity": 0.5905511811023622,
                    "duration": 0.29375000000000284
                },
                {
                    "name": "G4",
                    "midi": 67,
                    "time": 113.69999999999978,
                    "velocity": 0.5905511811023622,
                    "duration": 0.9000000000000057
                },
                {
                    "name": "A#4",
                    "midi": 70,
                    "time": 114.59999999999978,
                    "velocity": 0.5905511811023622,
                    "duration": 0.5999999999999943
                },
                {
                    "name": "G#4",
                    "midi": 68,
                    "time": 115.19999999999978,
                    "velocity": 0.5905511811023622,
                    "duration": 0.29375000000000284
                },
                {
                    "name": "F4",
                    "midi": 65,
                    "time": 115.49999999999977,
                    "velocity": 0.5905511811023622,
                    "duration": 0.9000000000000057
                },
                {
                    "name": "C5",
                    "midi": 72,
                    "time": 116.39999999999978,
                    "velocity": 0.5905511811023622,
                    "duration": 0.5999999999999943
                },
                {
                    "name": "A#4",
                    "midi": 70,
                    "time": 116.99999999999977,
                    "velocity": 0.5905511811023622,
                    "duration": 0.29375000000000284
                },
                {
                    "name": "D#4",
                    "midi": 63,
                    "time": 117.29999999999977,
                    "velocity": 0.5905511811023622,
                    "duration": 2.09375
                },
                {
                    "name": "D#5",
                    "midi": 75,
                    "time": 120.89999999999976,
                    "velocity": 0.5905511811023622,
                    "duration": 0.09999999999999432
                },
                {
                    "name": "C6",
                    "midi": 84,
                    "time": 120.89999999999976,
                    "velocity": 0.5905511811023622,
                    "duration": 0.09999999999999432
                },
                {
                    "name": "D#5",
                    "midi": 75,
                    "time": 121.19999999999976,
                    "velocity": 0.5905511811023622,
                    "duration": 0.09999999999999432
                },
                {
                    "name": "C6",
                    "midi": 84,
                    "time": 121.19999999999976,
                    "velocity": 0.5905511811023622,
                    "duration": 0.09999999999999432
                },
                {
                    "name": "D#5",
                    "midi": 75,
                    "time": 121.34999999999975,
                    "velocity": 0.5905511811023622,
                    "duration": 0.09999999999999432
                },
                {
                    "name": "C6",
                    "midi": 84,
                    "time": 121.34999999999975,
                    "velocity": 0.5905511811023622,
                    "duration": 0.09999999999999432
                },
                {
                    "name": "D#5",
                    "midi": 75,
                    "time": 121.49999999999974,
                    "velocity": 0.5905511811023622,
                    "duration": 0.09999999999999432
                },
                {
                    "name": "C6",
                    "midi": 84,
                    "time": 121.49999999999974,
                    "velocity": 0.5905511811023622,
                    "duration": 0.09999999999999432
                },
                {
                    "name": "F5",
                    "midi": 77,
                    "time": 121.79999999999974,
                    "velocity": 0.5905511811023622,
                    "duration": 0.09999999999999432
                },
                {
                    "name": "C6",
                    "midi": 84,
                    "time": 121.79999999999974,
                    "velocity": 0.5905511811023622,
                    "duration": 0.09999999999999432
                },
                {
                    "name": "F5",
                    "midi": 77,
                    "time": 122.09999999999974,
                    "velocity": 0.5905511811023622,
                    "duration": 0.09999999999999432
                },
                {
                    "name": "C6",
                    "midi": 84,
                    "time": 122.09999999999974,
                    "velocity": 0.5905511811023622,
                    "duration": 0.09999999999999432
                },
                {
                    "name": "D#5",
                    "midi": 75,
                    "time": 122.39999999999974,
                    "velocity": 0.5905511811023622,
                    "duration": 0.09999999999999432
                },
                {
                    "name": "C6",
                    "midi": 84,
                    "time": 122.39999999999974,
                    "velocity": 0.5905511811023622,
                    "duration": 0.09999999999999432
                },
                {
                    "name": "D#5",
                    "midi": 75,
                    "time": 122.69999999999973,
                    "velocity": 0.5905511811023622,
                    "duration": 0.09999999999999432
                },
                {
                    "name": "C6",
                    "midi": 84,
                    "time": 122.69999999999973,
                    "velocity": 0.5905511811023622,
                    "duration": 0.09999999999999432
                },
                {
                    "name": "D#5",
                    "midi": 75,
                    "time": 122.99999999999973,
                    "velocity": 0.5905511811023622,
                    "duration": 0.09999999999999432
                },
                {
                    "name": "C6",
                    "midi": 84,
                    "time": 122.99999999999973,
                    "velocity": 0.5905511811023622,
                    "duration": 0.09999999999999432
                },
                {
                    "name": "D#5",
                    "midi": 75,
                    "time": 123.14999999999972,
                    "velocity": 0.5905511811023622,
                    "duration": 0.09999999999999432
                },
                {
                    "name": "C6",
                    "midi": 84,
                    "time": 123.14999999999972,
                    "velocity": 0.5905511811023622,
                    "duration": 0.09999999999999432
                },
                {
                    "name": "D#5",
                    "midi": 75,
                    "time": 123.29999999999971,
                    "velocity": 0.5905511811023622,
                    "duration": 0.09999999999999432
                },
                {
                    "name": "C6",
                    "midi": 84,
                    "time": 123.29999999999971,
                    "velocity": 0.5905511811023622,
                    "duration": 0.09999999999999432
                },
                {
                    "name": "D#5",
                    "midi": 75,
                    "time": 123.59999999999971,
                    "velocity": 0.5905511811023622,
                    "duration": 0.09999999999999432
                },
                {
                    "name": "C6",
                    "midi": 84,
                    "time": 123.59999999999971,
                    "velocity": 0.5905511811023622,
                    "duration": 0.09999999999999432
                },
                {
                    "name": "D#5",
                    "midi": 75,
                    "time": 123.89999999999971,
                    "velocity": 0.5905511811023622,
                    "duration": 0.09999999999999432
                },
                {
                    "name": "C6",
                    "midi": 84,
                    "time": 123.89999999999971,
                    "velocity": 0.5905511811023622,
                    "duration": 0.09999999999999432
                },
                {
                    "name": "D#5",
                    "midi": 75,
                    "time": 124.1999999999997,
                    "velocity": 0.5905511811023622,
                    "duration": 0.09999999999999432
                },
                {
                    "name": "C6",
                    "midi": 84,
                    "time": 124.1999999999997,
                    "velocity": 0.5905511811023622,
                    "duration": 0.09999999999999432
                },
                {
                    "name": "D#5",
                    "midi": 75,
                    "time": 124.4999999999997,
                    "velocity": 0.5905511811023622,
                    "duration": 0.09999999999999432
                },
                {
                    "name": "A#5",
                    "midi": 82,
                    "time": 124.4999999999997,
                    "velocity": 0.5905511811023622,
                    "duration": 0.09999999999999432
                },
                {
                    "name": "D#5",
                    "midi": 75,
                    "time": 124.7999999999997,
                    "velocity": 0.5905511811023622,
                    "duration": 0.09999999999999432
                },
                {
                    "name": "A#5",
                    "midi": 82,
                    "time": 124.7999999999997,
                    "velocity": 0.5905511811023622,
                    "duration": 0.09999999999999432
                },
                {
                    "name": "D#5",
                    "midi": 75,
                    "time": 124.94999999999969,
                    "velocity": 0.5905511811023622,
                    "duration": 0.09999999999999432
                },
                {
                    "name": "A#5",
                    "midi": 82,
                    "time": 124.94999999999969,
                    "velocity": 0.5905511811023622,
                    "duration": 0.09999999999999432
                },
                {
                    "name": "D#5",
                    "midi": 75,
                    "time": 125.09999999999968,
                    "velocity": 0.5905511811023622,
                    "duration": 0.09999999999999432
                },
                {
                    "name": "A#5",
                    "midi": 82,
                    "time": 125.09999999999968,
                    "velocity": 0.5905511811023622,
                    "duration": 0.09999999999999432
                },
                {
                    "name": "D#5",
                    "midi": 75,
                    "time": 125.39999999999968,
                    "velocity": 0.5905511811023622,
                    "duration": 0.09999999999999432
                },
                {
                    "name": "A#5",
                    "midi": 82,
                    "time": 125.39999999999968,
                    "velocity": 0.5905511811023622,
                    "duration": 0.09999999999999432
                },
                {
                    "name": "D#5",
                    "midi": 75,
                    "time": 125.69999999999968,
                    "velocity": 0.5905511811023622,
                    "duration": 0.09999999999999432
                },
                {
                    "name": "A#5",
                    "midi": 82,
                    "time": 125.69999999999968,
                    "velocity": 0.5905511811023622,
                    "duration": 0.09999999999999432
                },
                {
                    "name": "D#5",
                    "midi": 75,
                    "time": 125.99999999999967,
                    "velocity": 0.5905511811023622,
                    "duration": 0.09999999999999432
                },
                {
                    "name": "A#5",
                    "midi": 82,
                    "time": 125.99999999999967,
                    "velocity": 0.5905511811023622,
                    "duration": 0.09999999999999432
                },
                {
                    "name": "D#5",
                    "midi": 75,
                    "time": 126.29999999999967,
                    "velocity": 0.5905511811023622,
                    "duration": 0.09999999999999432
                },
                {
                    "name": "A#5",
                    "midi": 82,
                    "time": 126.29999999999967,
                    "velocity": 0.5905511811023622,
                    "duration": 0.09999999999999432
                },
                {
                    "name": "D#5",
                    "midi": 75,
                    "time": 126.59999999999967,
                    "velocity": 0.5905511811023622,
                    "duration": 0.09999999999999432
                },
                {
                    "name": "A#5",
                    "midi": 82,
                    "time": 126.59999999999967,
                    "velocity": 0.5905511811023622,
                    "duration": 0.09999999999999432
                },
                {
                    "name": "D#5",
                    "midi": 75,
                    "time": 126.74999999999966,
                    "velocity": 0.5905511811023622,
                    "duration": 0.09999999999999432
                },
                {
                    "name": "A#5",
                    "midi": 82,
                    "time": 126.74999999999966,
                    "velocity": 0.5905511811023622,
                    "duration": 0.09999999999999432
                },
                {
                    "name": "D#5",
                    "midi": 75,
                    "time": 126.89999999999965,
                    "velocity": 0.5905511811023622,
                    "duration": 0.09999999999999432
                },
                {
                    "name": "A#5",
                    "midi": 82,
                    "time": 126.89999999999965,
                    "velocity": 0.5905511811023622,
                    "duration": 0.09999999999999432
                },
                {
                    "name": "C#5",
                    "midi": 73,
                    "time": 127.19999999999965,
                    "velocity": 0.5905511811023622,
                    "duration": 0.09999999999999432
                },
                {
                    "name": "A#5",
                    "midi": 82,
                    "time": 127.19999999999965,
                    "velocity": 0.5905511811023622,
                    "duration": 0.09999999999999432
                },
                {
                    "name": "C#5",
                    "midi": 73,
                    "time": 127.49999999999964,
                    "velocity": 0.5905511811023622,
                    "duration": 0.09999999999999432
                },
                {
                    "name": "A#5",
                    "midi": 82,
                    "time": 127.49999999999964,
                    "velocity": 0.5905511811023622,
                    "duration": 0.09999999999999432
                },
                {
                    "name": "D#5",
                    "midi": 75,
                    "time": 127.79999999999964,
                    "velocity": 0.5905511811023622,
                    "duration": 0.09999999999999432
                },
                {
                    "name": "A#5",
                    "midi": 82,
                    "time": 127.79999999999964,
                    "velocity": 0.5905511811023622,
                    "duration": 0.09999999999999432
                },
                {
                    "name": "D#5",
                    "midi": 75,
                    "time": 128.09999999999962,
                    "velocity": 0.5905511811023622,
                    "duration": 0.09999999999999432
                },
                {
                    "name": "C6",
                    "midi": 84,
                    "time": 128.09999999999962,
                    "velocity": 0.5905511811023622,
                    "duration": 0.09999999999999432
                },
                {
                    "name": "D#5",
                    "midi": 75,
                    "time": 128.3999999999996,
                    "velocity": 0.5905511811023622,
                    "duration": 0.09999999999999432
                },
                {
                    "name": "C6",
                    "midi": 84,
                    "time": 128.3999999999996,
                    "velocity": 0.5905511811023622,
                    "duration": 0.09999999999999432
                },
                {
                    "name": "D#5",
                    "midi": 75,
                    "time": 128.5499999999996,
                    "velocity": 0.5905511811023622,
                    "duration": 0.09999999999999432
                },
                {
                    "name": "C6",
                    "midi": 84,
                    "time": 128.5499999999996,
                    "velocity": 0.5905511811023622,
                    "duration": 0.09999999999999432
                },
                {
                    "name": "D#5",
                    "midi": 75,
                    "time": 128.69999999999962,
                    "velocity": 0.5905511811023622,
                    "duration": 0.09999999999999432
                },
                {
                    "name": "C6",
                    "midi": 84,
                    "time": 128.69999999999962,
                    "velocity": 0.5905511811023622,
                    "duration": 0.09999999999999432
                },
                {
                    "name": "D#5",
                    "midi": 75,
                    "time": 128.9999999999996,
                    "velocity": 0.5905511811023622,
                    "duration": 0.09999999999999432
                },
                {
                    "name": "C6",
                    "midi": 84,
                    "time": 128.9999999999996,
                    "velocity": 0.5905511811023622,
                    "duration": 0.09999999999999432
                },
                {
                    "name": "D#5",
                    "midi": 75,
                    "time": 129.29999999999959,
                    "velocity": 0.5905511811023622,
                    "duration": 0.09999999999999432
                },
                {
                    "name": "C6",
                    "midi": 84,
                    "time": 129.29999999999959,
                    "velocity": 0.5905511811023622,
                    "duration": 0.09999999999999432
                },
                {
                    "name": "D#5",
                    "midi": 75,
                    "time": 129.59999999999957,
                    "velocity": 0.5905511811023622,
                    "duration": 0.09999999999999432
                },
                {
                    "name": "C6",
                    "midi": 84,
                    "time": 129.59999999999957,
                    "velocity": 0.5905511811023622,
                    "duration": 0.09999999999999432
                },
                {
                    "name": "E5",
                    "midi": 76,
                    "time": 129.89999999999955,
                    "velocity": 0.5905511811023622,
                    "duration": 0.09999999999999432
                },
                {
                    "name": "C6",
                    "midi": 84,
                    "time": 129.89999999999955,
                    "velocity": 0.5905511811023622,
                    "duration": 0.09999999999999432
                },
                {
                    "name": "E5",
                    "midi": 76,
                    "time": 130.19999999999953,
                    "velocity": 0.5905511811023622,
                    "duration": 0.09999999999999432
                },
                {
                    "name": "C6",
                    "midi": 84,
                    "time": 130.19999999999953,
                    "velocity": 0.5905511811023622,
                    "duration": 0.09999999999999432
                },
                {
                    "name": "E5",
                    "midi": 76,
                    "time": 130.34999999999954,
                    "velocity": 0.5905511811023622,
                    "duration": 0.09999999999999432
                },
                {
                    "name": "C6",
                    "midi": 84,
                    "time": 130.34999999999954,
                    "velocity": 0.5905511811023622,
                    "duration": 0.09999999999999432
                },
                {
                    "name": "E5",
                    "midi": 76,
                    "time": 130.49999999999955,
                    "velocity": 0.5905511811023622,
                    "duration": 0.09999999999999432
                },
                {
                    "name": "C6",
                    "midi": 84,
                    "time": 130.49999999999955,
                    "velocity": 0.5905511811023622,
                    "duration": 0.09999999999999432
                },
                {
                    "name": "E5",
                    "midi": 76,
                    "time": 130.79999999999953,
                    "velocity": 0.5905511811023622,
                    "duration": 0.09999999999999432
                },
                {
                    "name": "C6",
                    "midi": 84,
                    "time": 130.79999999999953,
                    "velocity": 0.5905511811023622,
                    "duration": 0.09999999999999432
                },
                {
                    "name": "E5",
                    "midi": 76,
                    "time": 131.0999999999995,
                    "velocity": 0.5905511811023622,
                    "duration": 0.09999999999999432
                },
                {
                    "name": "C6",
                    "midi": 84,
                    "time": 131.0999999999995,
                    "velocity": 0.5905511811023622,
                    "duration": 0.09999999999999432
                },
                {
                    "name": "E5",
                    "midi": 76,
                    "time": 131.3999999999995,
                    "velocity": 0.5905511811023622,
                    "duration": 0.09999999999999432
                },
                {
                    "name": "C6",
                    "midi": 84,
                    "time": 131.3999999999995,
                    "velocity": 0.5905511811023622,
                    "duration": 0.09999999999999432
                },
                {
                    "name": "F5",
                    "midi": 77,
                    "time": 131.69999999999948,
                    "velocity": 0.5905511811023622,
                    "duration": 0.09999999999999432
                },
                {
                    "name": "C#6",
                    "midi": 85,
                    "time": 131.69999999999948,
                    "velocity": 0.5905511811023622,
                    "duration": 0.09999999999999432
                },
                {
                    "name": "F5",
                    "midi": 77,
                    "time": 131.99999999999946,
                    "velocity": 0.5905511811023622,
                    "duration": 0.09999999999999432
                },
                {
                    "name": "C#6",
                    "midi": 85,
                    "time": 131.99999999999946,
                    "velocity": 0.5905511811023622,
                    "duration": 0.09999999999999432
                },
                {
                    "name": "F5",
                    "midi": 77,
                    "time": 132.14999999999947,
                    "velocity": 0.5905511811023622,
                    "duration": 0.09999999999999432
                },
                {
                    "name": "C#6",
                    "midi": 85,
                    "time": 132.14999999999947,
                    "velocity": 0.5905511811023622,
                    "duration": 0.09999999999999432
                },
                {
                    "name": "F5",
                    "midi": 77,
                    "time": 132.29999999999947,
                    "velocity": 0.5905511811023622,
                    "duration": 0.09999999999999432
                },
                {
                    "name": "C#6",
                    "midi": 85,
                    "time": 132.29999999999947,
                    "velocity": 0.5905511811023622,
                    "duration": 0.09999999999999432
                },
                {
                    "name": "F5",
                    "midi": 77,
                    "time": 132.59999999999945,
                    "velocity": 0.5905511811023622,
                    "duration": 0.09999999999999432
                },
                {
                    "name": "C#6",
                    "midi": 85,
                    "time": 132.59999999999945,
                    "velocity": 0.5905511811023622,
                    "duration": 0.09999999999999432
                },
                {
                    "name": "F5",
                    "midi": 77,
                    "time": 132.89999999999944,
                    "velocity": 0.5905511811023622,
                    "duration": 0.09999999999999432
                },
                {
                    "name": "C#6",
                    "midi": 85,
                    "time": 132.89999999999944,
                    "velocity": 0.5905511811023622,
                    "duration": 0.09999999999999432
                },
                {
                    "name": "F5",
                    "midi": 77,
                    "time": 133.19999999999942,
                    "velocity": 0.5905511811023622,
                    "duration": 0.09999999999999432
                },
                {
                    "name": "C#6",
                    "midi": 85,
                    "time": 133.19999999999942,
                    "velocity": 0.5905511811023622,
                    "duration": 0.09999999999999432
                },
                {
                    "name": "D#5",
                    "midi": 75,
                    "time": 133.4999999999994,
                    "velocity": 0.5905511811023622,
                    "duration": 0.09999999999999432
                },
                {
                    "name": "C6",
                    "midi": 84,
                    "time": 133.4999999999994,
                    "velocity": 0.5905511811023622,
                    "duration": 0.09999999999999432
                },
                {
                    "name": "D#5",
                    "midi": 75,
                    "time": 133.7999999999994,
                    "velocity": 0.5905511811023622,
                    "duration": 0.09999999999999432
                },
                {
                    "name": "C6",
                    "midi": 84,
                    "time": 133.7999999999994,
                    "velocity": 0.5905511811023622,
                    "duration": 0.09999999999999432
                },
                {
                    "name": "D#5",
                    "midi": 75,
                    "time": 133.9499999999994,
                    "velocity": 0.5905511811023622,
                    "duration": 0.09999999999999432
                },
                {
                    "name": "C6",
                    "midi": 84,
                    "time": 133.9499999999994,
                    "velocity": 0.5905511811023622,
                    "duration": 0.09999999999999432
                },
                {
                    "name": "D#5",
                    "midi": 75,
                    "time": 134.0999999999994,
                    "velocity": 0.5905511811023622,
                    "duration": 0.09999999999999432
                },
                {
                    "name": "C6",
                    "midi": 84,
                    "time": 134.0999999999994,
                    "velocity": 0.5905511811023622,
                    "duration": 0.09999999999999432
                },
                {
                    "name": "F#5",
                    "midi": 78,
                    "time": 134.39999999999938,
                    "velocity": 0.5905511811023622,
                    "duration": 0.09999999999999432
                },
                {
                    "name": "C6",
                    "midi": 84,
                    "time": 134.39999999999938,
                    "velocity": 0.5905511811023622,
                    "duration": 0.09999999999999432
                },
                {
                    "name": "F#5",
                    "midi": 78,
                    "time": 134.69999999999936,
                    "velocity": 0.5905511811023622,
                    "duration": 0.09999999999999432
                },
                {
                    "name": "C6",
                    "midi": 84,
                    "time": 134.69999999999936,
                    "velocity": 0.5905511811023622,
                    "duration": 0.09999999999999432
                },
                {
                    "name": "D#5",
                    "midi": 75,
                    "time": 134.99999999999935,
                    "velocity": 0.5905511811023622,
                    "duration": 0.09999999999999432
                },
                {
                    "name": "C6",
                    "midi": 84,
                    "time": 134.99999999999935,
                    "velocity": 0.5905511811023622,
                    "duration": 0.09999999999999432
                },
                {
                    "name": "F5",
                    "midi": 77,
                    "time": 135.29999999999933,
                    "velocity": 0.5905511811023622,
                    "duration": 0.09999999999999432
                },
                {
                    "name": "C#6",
                    "midi": 85,
                    "time": 135.29999999999933,
                    "velocity": 0.5905511811023622,
                    "duration": 0.09999999999999432
                },
                {
                    "name": "F5",
                    "midi": 77,
                    "time": 135.5999999999993,
                    "velocity": 0.5905511811023622,
                    "duration": 0.09999999999999432
                },
                {
                    "name": "C#6",
                    "midi": 85,
                    "time": 135.5999999999993,
                    "velocity": 0.5905511811023622,
                    "duration": 0.09999999999999432
                },
                {
                    "name": "F5",
                    "midi": 77,
                    "time": 135.74999999999932,
                    "velocity": 0.5905511811023622,
                    "duration": 0.09999999999999432
                },
                {
                    "name": "C#6",
                    "midi": 85,
                    "time": 135.74999999999932,
                    "velocity": 0.5905511811023622,
                    "duration": 0.09999999999999432
                },
                {
                    "name": "F5",
                    "midi": 77,
                    "time": 135.89999999999932,
                    "velocity": 0.5905511811023622,
                    "duration": 0.09999999999999432
                },
                {
                    "name": "C#6",
                    "midi": 85,
                    "time": 135.89999999999932,
                    "velocity": 0.5905511811023622,
                    "duration": 0.09999999999999432
                },
                {
                    "name": "G5",
                    "midi": 79,
                    "time": 136.1999999999993,
                    "velocity": 0.5905511811023622,
                    "duration": 0.09999999999999432
                },
                {
                    "name": "C#6",
                    "midi": 85,
                    "time": 136.1999999999993,
                    "velocity": 0.5905511811023622,
                    "duration": 0.09999999999999432
                },
                {
                    "name": "G5",
                    "midi": 79,
                    "time": 136.4999999999993,
                    "velocity": 0.5905511811023622,
                    "duration": 0.09999999999999432
                },
                {
                    "name": "C#6",
                    "midi": 85,
                    "time": 136.4999999999993,
                    "velocity": 0.5905511811023622,
                    "duration": 0.09999999999999432
                },
                {
                    "name": "F5",
                    "midi": 77,
                    "time": 136.79999999999927,
                    "velocity": 0.5905511811023622,
                    "duration": 0.09999999999999432
                },
                {
                    "name": "C#6",
                    "midi": 85,
                    "time": 136.79999999999927,
                    "velocity": 0.5905511811023622,
                    "duration": 0.09999999999999432
                },
                {
                    "name": "F5",
                    "midi": 77,
                    "time": 137.09999999999926,
                    "velocity": 0.5905511811023622,
                    "duration": 0.09999999999999432
                },
                {
                    "name": "C#6",
                    "midi": 85,
                    "time": 137.09999999999926,
                    "velocity": 0.5905511811023622,
                    "duration": 0.09999999999999432
                },
                {
                    "name": "F5",
                    "midi": 77,
                    "time": 137.39999999999924,
                    "velocity": 0.5905511811023622,
                    "duration": 0.09999999999999432
                },
                {
                    "name": "C#6",
                    "midi": 85,
                    "time": 137.39999999999924,
                    "velocity": 0.5905511811023622,
                    "duration": 0.09999999999999432
                },
                {
                    "name": "F5",
                    "midi": 77,
                    "time": 137.54999999999924,
                    "velocity": 0.5905511811023622,
                    "duration": 0.09999999999999432
                },
                {
                    "name": "C#6",
                    "midi": 85,
                    "time": 137.54999999999924,
                    "velocity": 0.5905511811023622,
                    "duration": 0.09999999999999432
                },
                {
                    "name": "F5",
                    "midi": 77,
                    "time": 137.69999999999925,
                    "velocity": 0.5905511811023622,
                    "duration": 0.09999999999999432
                },
                {
                    "name": "C#6",
                    "midi": 85,
                    "time": 137.69999999999925,
                    "velocity": 0.5905511811023622,
                    "duration": 0.09999999999999432
                },
                {
                    "name": "F5",
                    "midi": 77,
                    "time": 137.99999999999923,
                    "velocity": 0.5905511811023622,
                    "duration": 0.09999999999999432
                },
                {
                    "name": "C#6",
                    "midi": 85,
                    "time": 137.99999999999923,
                    "velocity": 0.5905511811023622,
                    "duration": 0.09999999999999432
                },
                {
                    "name": "F5",
                    "midi": 77,
                    "time": 138.29999999999922,
                    "velocity": 0.5905511811023622,
                    "duration": 0.09999999999999432
                },
                {
                    "name": "C#6",
                    "midi": 85,
                    "time": 138.29999999999922,
                    "velocity": 0.5905511811023622,
                    "duration": 0.09999999999999432
                },
                {
                    "name": "F5",
                    "midi": 77,
                    "time": 138.5999999999992,
                    "velocity": 0.5905511811023622,
                    "duration": 0.09999999999999432
                },
                {
                    "name": "C#6",
                    "midi": 85,
                    "time": 138.5999999999992,
                    "velocity": 0.5905511811023622,
                    "duration": 0.09999999999999432
                },
                {
                    "name": "F5",
                    "midi": 77,
                    "time": 138.89999999999918,
                    "velocity": 0.5905511811023622,
                    "duration": 0.09999999999999432
                },
                {
                    "name": "C6",
                    "midi": 84,
                    "time": 138.89999999999918,
                    "velocity": 0.5905511811023622,
                    "duration": 0.09999999999999432
                },
                {
                    "name": "F5",
                    "midi": 77,
                    "time": 139.19999999999916,
                    "velocity": 0.5905511811023622,
                    "duration": 0.09999999999999432
                },
                {
                    "name": "B5",
                    "midi": 83,
                    "time": 139.19999999999916,
                    "velocity": 0.5905511811023622,
                    "duration": 0.09999999999999432
                },
                {
                    "name": "F5",
                    "midi": 77,
                    "time": 139.34999999999917,
                    "velocity": 0.5905511811023622,
                    "duration": 0.09999999999999432
                },
                {
                    "name": "B5",
                    "midi": 83,
                    "time": 139.34999999999917,
                    "velocity": 0.5905511811023622,
                    "duration": 0.09999999999999432
                },
                {
                    "name": "F5",
                    "midi": 77,
                    "time": 139.49999999999918,
                    "velocity": 0.5905511811023622,
                    "duration": 0.09999999999999432
                },
                {
                    "name": "C6",
                    "midi": 84,
                    "time": 139.49999999999918,
                    "velocity": 0.5905511811023622,
                    "duration": 0.09999999999999432
                },
                {
                    "name": "F5",
                    "midi": 77,
                    "time": 139.79999999999916,
                    "velocity": 0.5905511811023622,
                    "duration": 0.09999999999999432
                },
                {
                    "name": "C6",
                    "midi": 84,
                    "time": 139.79999999999916,
                    "velocity": 0.5905511811023622,
                    "duration": 0.09999999999999432
                },
                {
                    "name": "F5",
                    "midi": 77,
                    "time": 140.09999999999914,
                    "velocity": 0.5905511811023622,
                    "duration": 0.09999999999999432
                },
                {
                    "name": "C6",
                    "midi": 84,
                    "time": 140.09999999999914,
                    "velocity": 0.5905511811023622,
                    "duration": 0.09999999999999432
                },
                {
                    "name": "D#5",
                    "midi": 75,
                    "time": 140.39999999999912,
                    "velocity": 0.5905511811023622,
                    "duration": 0.09999999999999432
                },
                {
                    "name": "C6",
                    "midi": 84,
                    "time": 140.39999999999912,
                    "velocity": 0.5905511811023622,
                    "duration": 0.09999999999999432
                },
                {
                    "name": "F5",
                    "midi": 77,
                    "time": 140.6999999999991,
                    "velocity": 0.5905511811023622,
                    "duration": 0.09999999999999432
                },
                {
                    "name": "D#6",
                    "midi": 87,
                    "time": 140.6999999999991,
                    "velocity": 0.5905511811023622,
                    "duration": 0.09999999999999432
                },
                {
                    "name": "F5",
                    "midi": 77,
                    "time": 140.9999999999991,
                    "velocity": 0.5905511811023622,
                    "duration": 0.09999999999999432
                },
                {
                    "name": "D#6",
                    "midi": 87,
                    "time": 140.9999999999991,
                    "velocity": 0.5905511811023622,
                    "duration": 0.09999999999999432
                },
                {
                    "name": "F5",
                    "midi": 77,
                    "time": 141.1499999999991,
                    "velocity": 0.5905511811023622,
                    "duration": 0.09999999999999432
                },
                {
                    "name": "D#6",
                    "midi": 87,
                    "time": 141.1499999999991,
                    "velocity": 0.5905511811023622,
                    "duration": 0.09999999999999432
                },
                {
                    "name": "F5",
                    "midi": 77,
                    "time": 141.2999999999991,
                    "velocity": 0.5905511811023622,
                    "duration": 0.09999999999999432
                },
                {
                    "name": "D#6",
                    "midi": 87,
                    "time": 141.2999999999991,
                    "velocity": 0.5905511811023622,
                    "duration": 0.09999999999999432
                },
                {
                    "name": "F5",
                    "midi": 77,
                    "time": 141.59999999999908,
                    "velocity": 0.5905511811023622,
                    "duration": 0.09999999999999432
                },
                {
                    "name": "C#6",
                    "midi": 85,
                    "time": 141.59999999999908,
                    "velocity": 0.5905511811023622,
                    "duration": 0.09999999999999432
                },
                {
                    "name": "F5",
                    "midi": 77,
                    "time": 141.89999999999907,
                    "velocity": 0.5905511811023622,
                    "duration": 0.09999999999999432
                },
                {
                    "name": "C#6",
                    "midi": 85,
                    "time": 141.89999999999907,
                    "velocity": 0.5905511811023622,
                    "duration": 0.09999999999999432
                },
                {
                    "name": "F5",
                    "midi": 77,
                    "time": 142.19999999999905,
                    "velocity": 0.5905511811023622,
                    "duration": 0.09999999999999432
                },
                {
                    "name": "C#6",
                    "midi": 85,
                    "time": 142.19999999999905,
                    "velocity": 0.5905511811023622,
                    "duration": 0.09999999999999432
                },
                {
                    "name": "G5",
                    "midi": 79,
                    "time": 142.49999999999903,
                    "velocity": 0.5905511811023622,
                    "duration": 0.09999999999999432
                },
                {
                    "name": "C#6",
                    "midi": 85,
                    "time": 142.49999999999903,
                    "velocity": 0.5905511811023622,
                    "duration": 0.09999999999999432
                },
                {
                    "name": "G5",
                    "midi": 79,
                    "time": 142.79999999999902,
                    "velocity": 0.5905511811023622,
                    "duration": 0.09999999999999432
                },
                {
                    "name": "C#6",
                    "midi": 85,
                    "time": 142.79999999999902,
                    "velocity": 0.5905511811023622,
                    "duration": 0.09999999999999432
                },
                {
                    "name": "G5",
                    "midi": 79,
                    "time": 142.94999999999902,
                    "velocity": 0.5905511811023622,
                    "duration": 0.09999999999999432
                },
                {
                    "name": "C#6",
                    "midi": 85,
                    "time": 142.94999999999902,
                    "velocity": 0.5905511811023622,
                    "duration": 0.09999999999999432
                },
                {
                    "name": "G5",
                    "midi": 79,
                    "time": 143.09999999999903,
                    "velocity": 0.5905511811023622,
                    "duration": 0.09999999999999432
                },
                {
                    "name": "C#6",
                    "midi": 85,
                    "time": 143.09999999999903,
                    "velocity": 0.5905511811023622,
                    "duration": 0.09999999999999432
                },
                {
                    "name": "G5",
                    "midi": 79,
                    "time": 143.399999999999,
                    "velocity": 0.5905511811023622,
                    "duration": 0.09999999999999432
                },
                {
                    "name": "C#6",
                    "midi": 85,
                    "time": 143.399999999999,
                    "velocity": 0.5905511811023622,
                    "duration": 0.09999999999999432
                },
                {
                    "name": "G5",
                    "midi": 79,
                    "time": 143.699999999999,
                    "velocity": 0.5905511811023622,
                    "duration": 0.09999999999999432
                },
                {
                    "name": "C#6",
                    "midi": 85,
                    "time": 143.699999999999,
                    "velocity": 0.5905511811023622,
                    "duration": 0.09999999999999432
                },
                {
                    "name": "G5",
                    "midi": 79,
                    "time": 143.99999999999898,
                    "velocity": 0.5905511811023622,
                    "duration": 0.09999999999999432
                },
                {
                    "name": "C#6",
                    "midi": 85,
                    "time": 143.99999999999898,
                    "velocity": 0.5905511811023622,
                    "duration": 0.09999999999999432
                },
                {
                    "name": "D#5",
                    "midi": 75,
                    "time": 144.29999999999896,
                    "velocity": 0.5905511811023622,
                    "duration": 0.09999999999999432
                },
                {
                    "name": "C6",
                    "midi": 84,
                    "time": 144.29999999999896,
                    "velocity": 0.5905511811023622,
                    "duration": 0.09999999999999432
                },
                {
                    "name": "D#5",
                    "midi": 75,
                    "time": 144.59999999999894,
                    "velocity": 0.5905511811023622,
                    "duration": 0.09999999999999432
                },
                {
                    "name": "C6",
                    "midi": 84,
                    "time": 144.59999999999894,
                    "velocity": 0.5905511811023622,
                    "duration": 0.09999999999999432
                },
                {
                    "name": "D#5",
                    "midi": 75,
                    "time": 144.74999999999895,
                    "velocity": 0.5905511811023622,
                    "duration": 0.09999999999999432
                },
                {
                    "name": "C6",
                    "midi": 84,
                    "time": 144.74999999999895,
                    "velocity": 0.5905511811023622,
                    "duration": 0.09999999999999432
                },
                {
                    "name": "D#5",
                    "midi": 75,
                    "time": 144.89999999999895,
                    "velocity": 0.5905511811023622,
                    "duration": 0.09999999999999432
                },
                {
                    "name": "C6",
                    "midi": 84,
                    "time": 144.89999999999895,
                    "velocity": 0.5905511811023622,
                    "duration": 0.09999999999999432
                },
                {
                    "name": "D#5",
                    "midi": 75,
                    "time": 145.19999999999894,
                    "velocity": 0.5905511811023622,
                    "duration": 0.09999999999999432
                },
                {
                    "name": "C6",
                    "midi": 84,
                    "time": 145.19999999999894,
                    "velocity": 0.5905511811023622,
                    "duration": 0.09999999999999432
                },
                {
                    "name": "D#5",
                    "midi": 75,
                    "time": 145.49999999999892,
                    "velocity": 0.5905511811023622,
                    "duration": 0.09999999999999432
                },
                {
                    "name": "C6",
                    "midi": 84,
                    "time": 145.49999999999892,
                    "velocity": 0.5905511811023622,
                    "duration": 0.09999999999999432
                },
                {
                    "name": "D#5",
                    "midi": 75,
                    "time": 145.7999999999989,
                    "velocity": 0.5905511811023622,
                    "duration": 0.09999999999999432
                },
                {
                    "name": "C6",
                    "midi": 84,
                    "time": 145.7999999999989,
                    "velocity": 0.5905511811023622,
                    "duration": 0.09999999999999432
                },
                {
                    "name": "D#5",
                    "midi": 75,
                    "time": 146.0999999999989,
                    "velocity": 0.5905511811023622,
                    "duration": 0.09999999999999432
                },
                {
                    "name": "A#5",
                    "midi": 82,
                    "time": 146.0999999999989,
                    "velocity": 0.5905511811023622,
                    "duration": 0.09999999999999432
                },
                {
                    "name": "D#5",
                    "midi": 75,
                    "time": 146.39999999999887,
                    "velocity": 0.5905511811023622,
                    "duration": 0.09999999999999432
                },
                {
                    "name": "A5",
                    "midi": 81,
                    "time": 146.39999999999887,
                    "velocity": 0.5905511811023622,
                    "duration": 0.09999999999999432
                },
                {
                    "name": "D#5",
                    "midi": 75,
                    "time": 146.54999999999887,
                    "velocity": 0.5905511811023622,
                    "duration": 0.09999999999999432
                },
                {
                    "name": "A5",
                    "midi": 81,
                    "time": 146.54999999999887,
                    "velocity": 0.5905511811023622,
                    "duration": 0.09999999999999432
                },
                {
                    "name": "D#5",
                    "midi": 75,
                    "time": 146.69999999999888,
                    "velocity": 0.5905511811023622,
                    "duration": 0.09999999999999432
                },
                {
                    "name": "A#5",
                    "midi": 82,
                    "time": 146.69999999999888,
                    "velocity": 0.5905511811023622,
                    "duration": 0.09999999999999432
                },
                {
                    "name": "D#5",
                    "midi": 75,
                    "time": 146.99999999999886,
                    "velocity": 0.5905511811023622,
                    "duration": 0.09999999999999432
                },
                {
                    "name": "A#5",
                    "midi": 82,
                    "time": 146.99999999999886,
                    "velocity": 0.5905511811023622,
                    "duration": 0.09999999999999432
                },
                {
                    "name": "D#5",
                    "midi": 75,
                    "time": 147.29999999999885,
                    "velocity": 0.5905511811023622,
                    "duration": 0.09999999999999432
                },
                {
                    "name": "A#5",
                    "midi": 82,
                    "time": 147.29999999999885,
                    "velocity": 0.5905511811023622,
                    "duration": 0.09999999999999432
                },
                {
                    "name": "C#5",
                    "midi": 73,
                    "time": 147.59999999999883,
                    "velocity": 0.5905511811023622,
                    "duration": 0.09999999999999432
                },
                {
                    "name": "A#5",
                    "midi": 82,
                    "time": 147.59999999999883,
                    "velocity": 0.5905511811023622,
                    "duration": 0.09999999999999432
                },
                {
                    "name": "D#5",
                    "midi": 75,
                    "time": 147.8999999999988,
                    "velocity": 0.5905511811023622,
                    "duration": 0.09999999999999432
                },
                {
                    "name": "C#6",
                    "midi": 85,
                    "time": 147.8999999999988,
                    "velocity": 0.5905511811023622,
                    "duration": 0.09999999999999432
                },
                {
                    "name": "D#5",
                    "midi": 75,
                    "time": 148.1999999999988,
                    "velocity": 0.5905511811023622,
                    "duration": 0.09999999999999432
                },
                {
                    "name": "C#6",
                    "midi": 85,
                    "time": 148.1999999999988,
                    "velocity": 0.5905511811023622,
                    "duration": 0.09999999999999432
                },
                {
                    "name": "D#5",
                    "midi": 75,
                    "time": 148.3499999999988,
                    "velocity": 0.5905511811023622,
                    "duration": 0.09999999999999432
                },
                {
                    "name": "C#6",
                    "midi": 85,
                    "time": 148.3499999999988,
                    "velocity": 0.5905511811023622,
                    "duration": 0.09999999999999432
                },
                {
                    "name": "D#5",
                    "midi": 75,
                    "time": 148.4999999999988,
                    "velocity": 0.5905511811023622,
                    "duration": 0.09999999999999432
                },
                {
                    "name": "C#6",
                    "midi": 85,
                    "time": 148.4999999999988,
                    "velocity": 0.5905511811023622,
                    "duration": 0.09999999999999432
                },
                {
                    "name": "D#5",
                    "midi": 75,
                    "time": 148.7999999999988,
                    "velocity": 0.5905511811023622,
                    "duration": 0.09999999999999432
                },
                {
                    "name": "C6",
                    "midi": 84,
                    "time": 148.7999999999988,
                    "velocity": 0.5905511811023622,
                    "duration": 0.09999999999999432
                },
                {
                    "name": "D#5",
                    "midi": 75,
                    "time": 149.09999999999877,
                    "velocity": 0.5905511811023622,
                    "duration": 0.09999999999999432
                },
                {
                    "name": "C6",
                    "midi": 84,
                    "time": 149.09999999999877,
                    "velocity": 0.5905511811023622,
                    "duration": 0.09999999999999432
                },
                {
                    "name": "D#5",
                    "midi": 75,
                    "time": 149.39999999999876,
                    "velocity": 0.5905511811023622,
                    "duration": 0.09999999999999432
                },
                {
                    "name": "C6",
                    "midi": 84,
                    "time": 149.39999999999876,
                    "velocity": 0.5905511811023622,
                    "duration": 0.09999999999999432
                },
                {
                    "name": "D#5",
                    "midi": 75,
                    "time": 149.69999999999874,
                    "velocity": 0.5905511811023622,
                    "duration": 0.09999999999999432
                },
                {
                    "name": "C6",
                    "midi": 84,
                    "time": 149.69999999999874,
                    "velocity": 0.5905511811023622,
                    "duration": 0.09999999999999432
                },
                {
                    "name": "D#5",
                    "midi": 75,
                    "time": 149.99999999999872,
                    "velocity": 0.5905511811023622,
                    "duration": 0.09999999999999432
                },
                {
                    "name": "C6",
                    "midi": 84,
                    "time": 149.99999999999872,
                    "velocity": 0.5905511811023622,
                    "duration": 0.09999999999999432
                },
                {
                    "name": "D#5",
                    "midi": 75,
                    "time": 150.14999999999873,
                    "velocity": 0.5905511811023622,
                    "duration": 0.09999999999999432
                },
                {
                    "name": "C6",
                    "midi": 84,
                    "time": 150.14999999999873,
                    "velocity": 0.5905511811023622,
                    "duration": 0.09999999999999432
                },
                {
                    "name": "D#5",
                    "midi": 75,
                    "time": 150.29999999999873,
                    "velocity": 0.5905511811023622,
                    "duration": 0.09999999999999432
                },
                {
                    "name": "C6",
                    "midi": 84,
                    "time": 150.29999999999873,
                    "velocity": 0.5905511811023622,
                    "duration": 0.09999999999999432
                },
                {
                    "name": "D#5",
                    "midi": 75,
                    "time": 150.59999999999872,
                    "velocity": 0.5905511811023622,
                    "duration": 0.09999999999999432
                },
                {
                    "name": "C6",
                    "midi": 84,
                    "time": 150.59999999999872,
                    "velocity": 0.5905511811023622,
                    "duration": 0.09999999999999432
                },
                {
                    "name": "D#5",
                    "midi": 75,
                    "time": 150.8999999999987,
                    "velocity": 0.5905511811023622,
                    "duration": 0.09999999999999432
                },
                {
                    "name": "C6",
                    "midi": 84,
                    "time": 150.8999999999987,
                    "velocity": 0.5905511811023622,
                    "duration": 0.09999999999999432
                },
                {
                    "name": "F#5",
                    "midi": 78,
                    "time": 151.19999999999868,
                    "velocity": 0.5905511811023622,
                    "duration": 0.09999999999999432
                },
                {
                    "name": "C6",
                    "midi": 84,
                    "time": 151.19999999999868,
                    "velocity": 0.5905511811023622,
                    "duration": 0.09999999999999432
                },
                {
                    "name": "F5",
                    "midi": 77,
                    "time": 151.49999999999866,
                    "velocity": 0.5905511811023622,
                    "duration": 0.09999999999999432
                },
                {
                    "name": "C#6",
                    "midi": 85,
                    "time": 151.49999999999866,
                    "velocity": 0.5905511811023622,
                    "duration": 0.09999999999999432
                },
                {
                    "name": "F5",
                    "midi": 77,
                    "time": 151.79999999999865,
                    "velocity": 0.5905511811023622,
                    "duration": 0.09999999999999432
                },
                {
                    "name": "C#6",
                    "midi": 85,
                    "time": 151.79999999999865,
                    "velocity": 0.5905511811023622,
                    "duration": 0.09999999999999432
                },
                {
                    "name": "F5",
                    "midi": 77,
                    "time": 151.94999999999865,
                    "velocity": 0.5905511811023622,
                    "duration": 0.09999999999999432
                },
                {
                    "name": "C#6",
                    "midi": 85,
                    "time": 151.94999999999865,
                    "velocity": 0.5905511811023622,
                    "duration": 0.09999999999999432
                },
                {
                    "name": "F5",
                    "midi": 77,
                    "time": 152.09999999999866,
                    "velocity": 0.5905511811023622,
                    "duration": 0.09999999999999432
                },
                {
                    "name": "C#6",
                    "midi": 85,
                    "time": 152.09999999999866,
                    "velocity": 0.5905511811023622,
                    "duration": 0.09999999999999432
                },
                {
                    "name": "F5",
                    "midi": 77,
                    "time": 152.39999999999864,
                    "velocity": 0.5905511811023622,
                    "duration": 0.09999999999999432
                },
                {
                    "name": "C#6",
                    "midi": 85,
                    "time": 152.39999999999864,
                    "velocity": 0.5905511811023622,
                    "duration": 0.09999999999999432
                },
                {
                    "name": "F5",
                    "midi": 77,
                    "time": 152.69999999999862,
                    "velocity": 0.5905511811023622,
                    "duration": 0.09999999999999432
                },
                {
                    "name": "C#6",
                    "midi": 85,
                    "time": 152.69999999999862,
                    "velocity": 0.5905511811023622,
                    "duration": 0.09999999999999432
                },
                {
                    "name": "F5",
                    "midi": 77,
                    "time": 152.9999999999986,
                    "velocity": 0.5905511811023622,
                    "duration": 0.09999999999999432
                },
                {
                    "name": "C#6",
                    "midi": 85,
                    "time": 152.9999999999986,
                    "velocity": 0.5905511811023622,
                    "duration": 0.09999999999999432
                },
                {
                    "name": "D#5",
                    "midi": 75,
                    "time": 153.2999999999986,
                    "velocity": 0.5905511811023622,
                    "duration": 0.09999999999999432
                },
                {
                    "name": "C6",
                    "midi": 84,
                    "time": 153.2999999999986,
                    "velocity": 0.5905511811023622,
                    "duration": 0.09999999999999432
                },
                {
                    "name": "D#5",
                    "midi": 75,
                    "time": 153.59999999999857,
                    "velocity": 0.5905511811023622,
                    "duration": 0.09999999999999432
                },
                {
                    "name": "C6",
                    "midi": 84,
                    "time": 153.59999999999857,
                    "velocity": 0.5905511811023622,
                    "duration": 0.09999999999999432
                },
                {
                    "name": "D#5",
                    "midi": 75,
                    "time": 153.74999999999858,
                    "velocity": 0.5905511811023622,
                    "duration": 0.09999999999999432
                },
                {
                    "name": "C6",
                    "midi": 84,
                    "time": 153.74999999999858,
                    "velocity": 0.5905511811023622,
                    "duration": 0.09999999999999432
                },
                {
                    "name": "D#5",
                    "midi": 75,
                    "time": 153.89999999999858,
                    "velocity": 0.5905511811023622,
                    "duration": 0.09999999999999432
                },
                {
                    "name": "C6",
                    "midi": 84,
                    "time": 153.89999999999858,
                    "velocity": 0.5905511811023622,
                    "duration": 0.09999999999999432
                },
                {
                    "name": "D#5",
                    "midi": 75,
                    "time": 154.19999999999857,
                    "velocity": 0.5905511811023622,
                    "duration": 0.09999999999999432
                },
                {
                    "name": "C6",
                    "midi": 84,
                    "time": 154.19999999999857,
                    "velocity": 0.5905511811023622,
                    "duration": 0.09999999999999432
                },
                {
                    "name": "D#5",
                    "midi": 75,
                    "time": 154.49999999999855,
                    "velocity": 0.5905511811023622,
                    "duration": 0.09999999999999432
                },
                {
                    "name": "C6",
                    "midi": 84,
                    "time": 154.49999999999855,
                    "velocity": 0.5905511811023622,
                    "duration": 0.09999999999999432
                },
                {
                    "name": "D#5",
                    "midi": 75,
                    "time": 154.79999999999853,
                    "velocity": 0.5905511811023622,
                    "duration": 0.09999999999999432
                },
                {
                    "name": "C6",
                    "midi": 84,
                    "time": 154.79999999999853,
                    "velocity": 0.5905511811023622,
                    "duration": 0.09999999999999432
                },
                {
                    "name": "F5",
                    "midi": 77,
                    "time": 155.09999999999852,
                    "velocity": 0.5905511811023622,
                    "duration": 0.09999999999999432
                },
                {
                    "name": "D6",
                    "midi": 86,
                    "time": 155.09999999999852,
                    "velocity": 0.5905511811023622,
                    "duration": 0.09999999999999432
                },
                {
                    "name": "F5",
                    "midi": 77,
                    "time": 155.3999999999985,
                    "velocity": 0.5905511811023622,
                    "duration": 0.09999999999999432
                },
                {
                    "name": "D6",
                    "midi": 86,
                    "time": 155.3999999999985,
                    "velocity": 0.5905511811023622,
                    "duration": 0.09999999999999432
                },
                {
                    "name": "F5",
                    "midi": 77,
                    "time": 155.5499999999985,
                    "velocity": 0.5905511811023622,
                    "duration": 0.09999999999999432
                },
                {
                    "name": "D6",
                    "midi": 86,
                    "time": 155.5499999999985,
                    "velocity": 0.5905511811023622,
                    "duration": 0.09999999999999432
                },
                {
                    "name": "F5",
                    "midi": 77,
                    "time": 155.6999999999985,
                    "velocity": 0.5905511811023622,
                    "duration": 0.09999999999999432
                },
                {
                    "name": "D6",
                    "midi": 86,
                    "time": 155.6999999999985,
                    "velocity": 0.5905511811023622,
                    "duration": 0.09999999999999432
                },
                {
                    "name": "F5",
                    "midi": 77,
                    "time": 155.9999999999985,
                    "velocity": 0.5905511811023622,
                    "duration": 0.09999999999999432
                },
                {
                    "name": "D6",
                    "midi": 86,
                    "time": 155.9999999999985,
                    "velocity": 0.5905511811023622,
                    "duration": 0.09999999999999432
                },
                {
                    "name": "F5",
                    "midi": 77,
                    "time": 156.29999999999848,
                    "velocity": 0.5905511811023622,
                    "duration": 0.09999999999999432
                },
                {
                    "name": "D6",
                    "midi": 86,
                    "time": 156.29999999999848,
                    "velocity": 0.5905511811023622,
                    "duration": 0.09999999999999432
                },
                {
                    "name": "F5",
                    "midi": 77,
                    "time": 156.59999999999846,
                    "velocity": 0.5905511811023622,
                    "duration": 0.09999999999999432
                },
                {
                    "name": "D6",
                    "midi": 86,
                    "time": 156.59999999999846,
                    "velocity": 0.5905511811023622,
                    "duration": 0.09999999999999432
                },
                {
                    "name": "F5",
                    "midi": 77,
                    "time": 156.89999999999844,
                    "velocity": 0.5905511811023622,
                    "duration": 0.09999999999999432
                },
                {
                    "name": "D6",
                    "midi": 86,
                    "time": 156.89999999999844,
                    "velocity": 0.5905511811023622,
                    "duration": 0.09999999999999432
                },
                {
                    "name": "F5",
                    "midi": 77,
                    "time": 157.19999999999843,
                    "velocity": 0.5905511811023622,
                    "duration": 0.09999999999999432
                },
                {
                    "name": "D6",
                    "midi": 86,
                    "time": 157.19999999999843,
                    "velocity": 0.5905511811023622,
                    "duration": 0.09999999999999432
                },
                {
                    "name": "F5",
                    "midi": 77,
                    "time": 157.34999999999843,
                    "velocity": 0.5905511811023622,
                    "duration": 0.09999999999999432
                },
                {
                    "name": "D6",
                    "midi": 86,
                    "time": 157.34999999999843,
                    "velocity": 0.5905511811023622,
                    "duration": 0.09999999999999432
                },
                {
                    "name": "F5",
                    "midi": 77,
                    "time": 157.49999999999844,
                    "velocity": 0.5905511811023622,
                    "duration": 0.09999999999999432
                },
                {
                    "name": "D6",
                    "midi": 86,
                    "time": 157.49999999999844,
                    "velocity": 0.5905511811023622,
                    "duration": 0.09999999999999432
                },
                {
                    "name": "G5",
                    "midi": 79,
                    "time": 157.79999999999842,
                    "velocity": 0.5905511811023622,
                    "duration": 0.09999999999999432
                },
                {
                    "name": "C#6",
                    "midi": 85,
                    "time": 157.79999999999842,
                    "velocity": 0.5905511811023622,
                    "duration": 0.09999999999999432
                },
                {
                    "name": "G5",
                    "midi": 79,
                    "time": 158.0999999999984,
                    "velocity": 0.5905511811023622,
                    "duration": 0.09999999999999432
                },
                {
                    "name": "C#6",
                    "midi": 85,
                    "time": 158.0999999999984,
                    "velocity": 0.5905511811023622,
                    "duration": 0.09999999999999432
                },
                {
                    "name": "F5",
                    "midi": 77,
                    "time": 158.39999999999839,
                    "velocity": 0.5905511811023622,
                    "duration": 0.09999999999999432
                },
                {
                    "name": "C#6",
                    "midi": 85,
                    "time": 158.39999999999839,
                    "velocity": 0.5905511811023622,
                    "duration": 0.09999999999999432
                },
                {
                    "name": "D#5",
                    "midi": 75,
                    "time": 158.69999999999837,
                    "velocity": 0.5905511811023622,
                    "duration": 0.09999999999999432
                },
                {
                    "name": "C6",
                    "midi": 84,
                    "time": 158.69999999999837,
                    "velocity": 0.5905511811023622,
                    "duration": 0.09999999999999432
                },
                {
                    "name": "D#5",
                    "midi": 75,
                    "time": 158.99999999999835,
                    "velocity": 0.5905511811023622,
                    "duration": 0.09999999999999432
                },
                {
                    "name": "C6",
                    "midi": 84,
                    "time": 158.99999999999835,
                    "velocity": 0.5905511811023622,
                    "duration": 0.09999999999999432
                },
                {
                    "name": "D#5",
                    "midi": 75,
                    "time": 159.14999999999836,
                    "velocity": 0.5905511811023622,
                    "duration": 0.09999999999999432
                },
                {
                    "name": "C6",
                    "midi": 84,
                    "time": 159.14999999999836,
                    "velocity": 0.5905511811023622,
                    "duration": 0.09999999999999432
                },
                {
                    "name": "D#5",
                    "midi": 75,
                    "time": 159.29999999999836,
                    "velocity": 0.5905511811023622,
                    "duration": 0.09999999999999432
                },
                {
                    "name": "C6",
                    "midi": 84,
                    "time": 159.29999999999836,
                    "velocity": 0.5905511811023622,
                    "duration": 0.09999999999999432
                },
                {
                    "name": "D#5",
                    "midi": 75,
                    "time": 159.59999999999835,
                    "velocity": 0.5905511811023622,
                    "duration": 0.09999999999999432
                },
                {
                    "name": "C6",
                    "midi": 84,
                    "time": 159.59999999999835,
                    "velocity": 0.5905511811023622,
                    "duration": 0.09999999999999432
                },
                {
                    "name": "D#5",
                    "midi": 75,
                    "time": 159.89999999999833,
                    "velocity": 0.5905511811023622,
                    "duration": 0.09999999999999432
                },
                {
                    "name": "C6",
                    "midi": 84,
                    "time": 159.89999999999833,
                    "velocity": 0.5905511811023622,
                    "duration": 0.09999999999999432
                },
                {
                    "name": "D#5",
                    "midi": 75,
                    "time": 160.1999999999983,
                    "velocity": 0.5905511811023622,
                    "duration": 0.09999999999999432
                },
                {
                    "name": "C6",
                    "midi": 84,
                    "time": 160.1999999999983,
                    "velocity": 0.5905511811023622,
                    "duration": 0.09999999999999432
                },
                {
                    "name": "D#5",
                    "midi": 75,
                    "time": 160.4999999999983,
                    "velocity": 0.5905511811023622,
                    "duration": 0.09999999999999432
                },
                {
                    "name": "A#5",
                    "midi": 82,
                    "time": 160.4999999999983,
                    "velocity": 0.5905511811023622,
                    "duration": 0.09999999999999432
                },
                {
                    "name": "D#5",
                    "midi": 75,
                    "time": 160.79999999999828,
                    "velocity": 0.5905511811023622,
                    "duration": 0.09999999999999432
                },
                {
                    "name": "A#5",
                    "midi": 82,
                    "time": 160.79999999999828,
                    "velocity": 0.5905511811023622,
                    "duration": 0.09999999999999432
                },
                {
                    "name": "D#5",
                    "midi": 75,
                    "time": 160.94999999999828,
                    "velocity": 0.5905511811023622,
                    "duration": 0.09999999999999432
                },
                {
                    "name": "A#5",
                    "midi": 82,
                    "time": 160.94999999999828,
                    "velocity": 0.5905511811023622,
                    "duration": 0.09999999999999432
                },
                {
                    "name": "D#5",
                    "midi": 75,
                    "time": 161.0999999999983,
                    "velocity": 0.5905511811023622,
                    "duration": 0.09999999999999432
                },
                {
                    "name": "A#5",
                    "midi": 82,
                    "time": 161.0999999999983,
                    "velocity": 0.5905511811023622,
                    "duration": 0.09999999999999432
                },
                {
                    "name": "C#5",
                    "midi": 73,
                    "time": 161.39999999999827,
                    "velocity": 0.5905511811023622,
                    "duration": 0.09999999999999432
                },
                {
                    "name": "A#5",
                    "midi": 82,
                    "time": 161.39999999999827,
                    "velocity": 0.5905511811023622,
                    "duration": 0.09999999999999432
                },
                {
                    "name": "C#5",
                    "midi": 73,
                    "time": 161.69999999999825,
                    "velocity": 0.5905511811023622,
                    "duration": 0.09999999999999432
                },
                {
                    "name": "A#5",
                    "midi": 82,
                    "time": 161.69999999999825,
                    "velocity": 0.5905511811023622,
                    "duration": 0.09999999999999432
                },
                {
                    "name": "C#5",
                    "midi": 73,
                    "time": 161.99999999999824,
                    "velocity": 0.5905511811023622,
                    "duration": 0.09999999999999432
                },
                {
                    "name": "A#5",
                    "midi": 82,
                    "time": 161.99999999999824,
                    "velocity": 0.5905511811023622,
                    "duration": 0.09999999999999432
                },
                {
                    "name": "E5",
                    "midi": 76,
                    "time": 162.29999999999822,
                    "velocity": 0.47244094488188976,
                    "duration": 0.5999999999999943
                },
                {
                    "name": "C6",
                    "midi": 84,
                    "time": 162.29999999999822,
                    "velocity": 0.47244094488188976,
                    "duration": 0.5999999999999943
                },
                {
                    "name": "C5",
                    "midi": 72,
                    "time": 164.0999999999982,
                    "velocity": 0.47244094488188976,
                    "duration": 0.15000000000000568
                },
                {
                    "name": "B4",
                    "midi": 71,
                    "time": 164.2499999999982,
                    "velocity": 0.47244094488188976,
                    "duration": 0.09999999999999432
                },
                {
                    "name": "C5",
                    "midi": 72,
                    "time": 164.39999999999822,
                    "velocity": 0.47244094488188976,
                    "duration": 0.09999999999999432
                },
                {
                    "name": "D5",
                    "midi": 74,
                    "time": 164.54999999999822,
                    "velocity": 0.47244094488188976,
                    "duration": 0.09999999999999432
                },
                {
                    "name": "E5",
                    "midi": 76,
                    "time": 164.69999999999823,
                    "velocity": 0.47244094488188976,
                    "duration": 0.09999999999999432
                },
                {
                    "name": "F5",
                    "midi": 77,
                    "time": 164.84999999999823,
                    "velocity": 0.47244094488188976,
                    "duration": 0.09999999999999432
                },
                {
                    "name": "G5",
                    "midi": 79,
                    "time": 164.99999999999824,
                    "velocity": 0.47244094488188976,
                    "duration": 0.09999999999999432
                },
                {
                    "name": "G5",
                    "midi": 79,
                    "time": 165.29999999999822,
                    "velocity": 0.47244094488188976,
                    "duration": 0.09999999999999432
                },
                {
                    "name": "G5",
                    "midi": 79,
                    "time": 165.5999999999982,
                    "velocity": 0.47244094488188976,
                    "duration": 0.09999999999999432
                },
                {
                    "name": "C5",
                    "midi": 72,
                    "time": 166.7999999999982,
                    "velocity": 0.47244094488188976,
                    "duration": 0.15000000000000568
                },
                {
                    "name": "B4",
                    "midi": 71,
                    "time": 166.9499999999982,
                    "velocity": 0.47244094488188976,
                    "duration": 0.09999999999999432
                },
                {
                    "name": "C5",
                    "midi": 72,
                    "time": 167.0999999999982,
                    "velocity": 0.47244094488188976,
                    "duration": 0.09999999999999432
                },
                {
                    "name": "D5",
                    "midi": 74,
                    "time": 167.2499999999982,
                    "velocity": 0.47244094488188976,
                    "duration": 0.09999999999999432
                },
                {
                    "name": "E5",
                    "midi": 76,
                    "time": 167.39999999999822,
                    "velocity": 0.47244094488188976,
                    "duration": 0.09999999999999432
                },
                {
                    "name": "F5",
                    "midi": 77,
                    "time": 167.54999999999822,
                    "velocity": 0.47244094488188976,
                    "duration": 0.09999999999999432
                },
                {
                    "name": "G5",
                    "midi": 79,
                    "time": 167.69999999999823,
                    "velocity": 0.6614173228346457,
                    "duration": 0.29374999999998863
                },
                {
                    "name": "D#4",
                    "midi": 63,
                    "time": 170.39999999999822,
                    "velocity": 0.3543307086614173,
                    "duration": 0.09999999999999432
                },
                {
                    "name": "D#4",
                    "midi": 63,
                    "time": 170.6999999999982,
                    "velocity": 0.3543307086614173,
                    "duration": 0.09999999999999432
                },
                {
                    "name": "F4",
                    "midi": 65,
                    "time": 171.2999999999982,
                    "velocity": 0.3543307086614173,
                    "duration": 0.09999999999999432
                },
                {
                    "name": "F4",
                    "midi": 65,
                    "time": 171.59999999999818,
                    "velocity": 0.3543307086614173,
                    "duration": 0.09999999999999432
                },
                {
                    "name": "D4",
                    "midi": 62,
                    "time": 172.19999999999817,
                    "velocity": 0.3543307086614173,
                    "duration": 0.09999999999999432
                },
                {
                    "name": "D4",
                    "midi": 62,
                    "time": 172.49999999999815,
                    "velocity": 0.3543307086614173,
                    "duration": 0.09999999999999432
                },
                {
                    "name": "F4",
                    "midi": 65,
                    "time": 173.09999999999815,
                    "velocity": 0.3543307086614173,
                    "duration": 0.09999999999999432
                },
                {
                    "name": "F4",
                    "midi": 65,
                    "time": 173.39999999999813,
                    "velocity": 0.3543307086614173,
                    "duration": 0.09999999999999432
                },
                {
                    "name": "D#4",
                    "midi": 63,
                    "time": 173.99999999999812,
                    "velocity": 0.3543307086614173,
                    "duration": 0.09999999999999432
                },
                {
                    "name": "D#4",
                    "midi": 63,
                    "time": 174.2999999999981,
                    "velocity": 0.3543307086614173,
                    "duration": 0.09999999999999432
                },
                {
                    "name": "D#4",
                    "midi": 63,
                    "time": 174.8999999999981,
                    "velocity": 0.3543307086614173,
                    "duration": 0.09999999999999432
                },
                {
                    "name": "D#4",
                    "midi": 63,
                    "time": 175.19999999999808,
                    "velocity": 0.3543307086614173,
                    "duration": 0.09999999999999432
                },
                {
                    "name": "G4",
                    "midi": 67,
                    "time": 175.79999999999808,
                    "velocity": 0.3543307086614173,
                    "duration": 0.5999999999999943
                },
                {
                    "name": "F4",
                    "midi": 65,
                    "time": 176.69999999999808,
                    "velocity": 0.3543307086614173,
                    "duration": 0.9000000000000057
                },
                {
                    "name": "D#4",
                    "midi": 63,
                    "time": 177.5999999999981,
                    "velocity": 0.3543307086614173,
                    "duration": 0.09999999999999432
                },
                {
                    "name": "D#4",
                    "midi": 63,
                    "time": 177.89999999999807,
                    "velocity": 0.3543307086614173,
                    "duration": 0.09999999999999432
                },
                {
                    "name": "F#4",
                    "midi": 66,
                    "time": 178.49999999999807,
                    "velocity": 0.3543307086614173,
                    "duration": 0.09999999999999432
                },
                {
                    "name": "F#4",
                    "midi": 66,
                    "time": 178.79999999999805,
                    "velocity": 0.3543307086614173,
                    "duration": 0.09999999999999432
                },
                {
                    "name": "G4",
                    "midi": 67,
                    "time": 179.39999999999804,
                    "velocity": 0.3543307086614173,
                    "duration": 0.09999999999999432
                },
                {
                    "name": "G4",
                    "midi": 67,
                    "time": 179.69999999999803,
                    "velocity": 0.3543307086614173,
                    "duration": 0.09999999999999432
                },
                {
                    "name": "F4",
                    "midi": 65,
                    "time": 180.29999999999802,
                    "velocity": 0.3543307086614173,
                    "duration": 0.09999999999999432
                },
                {
                    "name": "F4",
                    "midi": 65,
                    "time": 180.599999999998,
                    "velocity": 0.3543307086614173,
                    "duration": 0.09999999999999432
                },
                {
                    "name": "D#4",
                    "midi": 63,
                    "time": 181.199999999998,
                    "velocity": 0.3543307086614173,
                    "duration": 0.09999999999999432
                },
                {
                    "name": "D4",
                    "midi": 62,
                    "time": 182.099999999998,
                    "velocity": 0.3543307086614173,
                    "duration": 0.09999999999999432
                },
                {
                    "name": "D#4",
                    "midi": 63,
                    "time": 182.999999999998,
                    "velocity": 0.3543307086614173,
                    "duration": 0.5999999999999943
                },
                {
                    "name": "G4",
                    "midi": 67,
                    "time": 183.599999999998,
                    "velocity": 0.8503937007874016,
                    "duration": 0.30000000000001137
                },
                {
                    "name": "G5",
                    "midi": 79,
                    "time": 183.89999999999802,
                    "velocity": 0.8503937007874016,
                    "duration": 0.09999999999999432
                },
                {
                    "name": "G5",
                    "midi": 79,
                    "time": 184.199999999998,
                    "velocity": 0.8503937007874016,
                    "duration": 0.09999999999999432
                },
                {
                    "name": "F5",
                    "midi": 77,
                    "time": 184.49999999999798,
                    "velocity": 0.8503937007874016,
                    "duration": 0.09999999999999432
                },
                {
                    "name": "D#5",
                    "midi": 75,
                    "time": 184.79999999999797,
                    "velocity": 0.8503937007874016,
                    "duration": 0.09999999999999432
                },
                {
                    "name": "D#5",
                    "midi": 75,
                    "time": 185.09999999999795,
                    "velocity": 0.8503937007874016,
                    "duration": 0.09999999999999432
                },
                {
                    "name": "D5",
                    "midi": 74,
                    "time": 185.39999999999793,
                    "velocity": 0.8503937007874016,
                    "duration": 0.09999999999999432
                },
                {
                    "name": "C5",
                    "midi": 72,
                    "time": 185.6999999999979,
                    "velocity": 0.8503937007874016,
                    "duration": 0.09999999999999432
                },
                {
                    "name": "B4",
                    "midi": 71,
                    "time": 185.9999999999979,
                    "velocity": 0.8503937007874016,
                    "duration": 0.09999999999999432
                },
                {
                    "name": "C5",
                    "midi": 72,
                    "time": 186.29999999999788,
                    "velocity": 0.8503937007874016,
                    "duration": 0.09999999999999432
                },
                {
                    "name": "B4",
                    "midi": 71,
                    "time": 186.59999999999786,
                    "velocity": 0.8503937007874016,
                    "duration": 0.07499999999998863
                },
                {
                    "name": "C5",
                    "midi": 72,
                    "time": 186.67499999999785,
                    "velocity": 0.8503937007874016,
                    "duration": 0.07499999999998863
                },
                {
                    "name": "D5",
                    "midi": 74,
                    "time": 186.74999999999784,
                    "velocity": 0.8503937007874016,
                    "duration": 0.09999999999999432
                },
                {
                    "name": "G4",
                    "midi": 67,
                    "time": 186.89999999999785,
                    "velocity": 0.8503937007874016,
                    "duration": 0.09999999999999432
                },
                {
                    "name": "G4",
                    "midi": 67,
                    "time": 187.19999999999783,
                    "velocity": 0.8503937007874016,
                    "duration": 0.09999999999999432
                },
                {
                    "name": "A#4",
                    "midi": 70,
                    "time": 187.4999999999978,
                    "velocity": 0.8503937007874016,
                    "duration": 0.07499999999998863
                },
                {
                    "name": "G#4",
                    "midi": 68,
                    "time": 187.5749999999978,
                    "velocity": 0.8503937007874016,
                    "duration": 0.15000000000000568
                },
                {
                    "name": "G4",
                    "midi": 67,
                    "time": 187.7999999999978,
                    "velocity": 0.8503937007874016,
                    "duration": 0.09999999999999432
                },
                {
                    "name": "F4",
                    "midi": 65,
                    "time": 188.09999999999778,
                    "velocity": 0.8503937007874016,
                    "duration": 0.09999999999999432
                },
                {
                    "name": "D#4",
                    "midi": 63,
                    "time": 188.39999999999776,
                    "velocity": 0.8503937007874016,
                    "duration": 0.09999999999999432
                },
                {
                    "name": "D4",
                    "midi": 62,
                    "time": 188.69999999999774,
                    "velocity": 0.8503937007874016,
                    "duration": 0.09999999999999432
                },
                {
                    "name": "C4",
                    "midi": 60,
                    "time": 188.99999999999773,
                    "velocity": 0.8503937007874016,
                    "duration": 0.09999999999999432
                },
                {
                    "name": "F4",
                    "midi": 65,
                    "time": 189.2999999999977,
                    "velocity": 0.8503937007874016,
                    "duration": 0.07499999999998863
                },
                {
                    "name": "D#4",
                    "midi": 63,
                    "time": 189.3749999999977,
                    "velocity": 0.8503937007874016,
                    "duration": 0.15000000000000568
                },
                {
                    "name": "D4",
                    "midi": 62,
                    "time": 189.5999999999977,
                    "velocity": 0.8503937007874016,
                    "duration": 0.09999999999999432
                },
                {
                    "name": "C4",
                    "midi": 60,
                    "time": 189.89999999999768,
                    "velocity": 0.8503937007874016,
                    "duration": 0.09999999999999432
                },
                {
                    "name": "D4",
                    "midi": 62,
                    "time": 190.19999999999766,
                    "velocity": 0.8503937007874016,
                    "duration": 0.5999999999999943
                },
                {
                    "name": "G4",
                    "midi": 67,
                    "time": 190.79999999999765,
                    "velocity": 0.8503937007874016,
                    "duration": 0.30000000000001137
                },
                {
                    "name": "G5",
                    "midi": 79,
                    "time": 191.09999999999766,
                    "velocity": 0.8503937007874016,
                    "duration": 0.09999999999999432
                },
                {
                    "name": "G5",
                    "midi": 79,
                    "time": 191.39999999999765,
                    "velocity": 0.8503937007874016,
                    "duration": 0.09999999999999432
                },
                {
                    "name": "F5",
                    "midi": 77,
                    "time": 191.69999999999763,
                    "velocity": 0.8503937007874016,
                    "duration": 0.09999999999999432
                },
                {
                    "name": "D#5",
                    "midi": 75,
                    "time": 191.9999999999976,
                    "velocity": 0.8503937007874016,
                    "duration": 0.09999999999999432
                },
                {
                    "name": "D#5",
                    "midi": 75,
                    "time": 192.2999999999976,
                    "velocity": 0.8503937007874016,
                    "duration": 0.09999999999999432
                },
                {
                    "name": "D5",
                    "midi": 74,
                    "time": 192.59999999999758,
                    "velocity": 0.8503937007874016,
                    "duration": 0.09999999999999432
                },
                {
                    "name": "C5",
                    "midi": 72,
                    "time": 192.89999999999756,
                    "velocity": 0.8503937007874016,
                    "duration": 0.09999999999999432
                },
                {
                    "name": "B4",
                    "midi": 71,
                    "time": 193.19999999999754,
                    "velocity": 0.8503937007874016,
                    "duration": 0.09999999999999432
                },
                {
                    "name": "C5",
                    "midi": 72,
                    "time": 193.49999999999753,
                    "velocity": 0.8503937007874016,
                    "duration": 0.09999999999999432
                },
                {
                    "name": "B4",
                    "midi": 71,
                    "time": 193.7999999999975,
                    "velocity": 0.8503937007874016,
                    "duration": 0.07499999999998863
                },
                {
                    "name": "C5",
                    "midi": 72,
                    "time": 193.8749999999975,
                    "velocity": 0.8503937007874016,
                    "duration": 0.07499999999998863
                },
                {
                    "name": "D5",
                    "midi": 74,
                    "time": 193.9499999999975,
                    "velocity": 0.8503937007874016,
                    "duration": 0.09999999999999432
                },
                {
                    "name": "G4",
                    "midi": 67,
                    "time": 194.0999999999975,
                    "velocity": 0.8503937007874016,
                    "duration": 0.09999999999999432
                },
                {
                    "name": "G4",
                    "midi": 67,
                    "time": 194.39999999999748,
                    "velocity": 0.8503937007874016,
                    "duration": 0.09999999999999432
                },
                {
                    "name": "A#4",
                    "midi": 70,
                    "time": 194.69999999999746,
                    "velocity": 0.8503937007874016,
                    "duration": 0.07499999999998863
                },
                {
                    "name": "G#4",
                    "midi": 68,
                    "time": 194.77499999999745,
                    "velocity": 0.8503937007874016,
                    "duration": 0.15000000000000568
                },
                {
                    "name": "G4",
                    "midi": 67,
                    "time": 194.99999999999744,
                    "velocity": 0.8503937007874016,
                    "duration": 0.09999999999999432
                },
                {
                    "name": "F4",
                    "midi": 65,
                    "time": 195.29999999999742,
                    "velocity": 0.8503937007874016,
                    "duration": 0.09999999999999432
                },
                {
                    "name": "G4",
                    "midi": 67,
                    "time": 195.5999999999974,
                    "velocity": 0.8503937007874016,
                    "duration": 0.09999999999999432
                },
                {
                    "name": "C5",
                    "midi": 72,
                    "time": 195.8999999999974,
                    "velocity": 0.8503937007874016,
                    "duration": 0.09999999999999432
                },
                {
                    "name": "D#5",
                    "midi": 75,
                    "time": 196.0499999999974,
                    "velocity": 0.8503937007874016,
                    "duration": 0.09999999999999432
                },
                {
                    "name": "G5",
                    "midi": 79,
                    "time": 196.1999999999974,
                    "velocity": 0.8503937007874016,
                    "duration": 0.09999999999999432
                },
                {
                    "name": "G4",
                    "midi": 67,
                    "time": 196.49999999999739,
                    "velocity": 0.8503937007874016,
                    "duration": 0.09999999999999432
                },
                {
                    "name": "B4",
                    "midi": 71,
                    "time": 196.79999999999737,
                    "velocity": 0.8503937007874016,
                    "duration": 0.09999999999999432
                },
                {
                    "name": "D5",
                    "midi": 74,
                    "time": 196.94999999999737,
                    "velocity": 0.8503937007874016,
                    "duration": 0.09999999999999432
                },
                {
                    "name": "G5",
                    "midi": 79,
                    "time": 197.09999999999738,
                    "velocity": 0.8503937007874016,
                    "duration": 0.09999999999999432
                },
                {
                    "name": "C5",
                    "midi": 72,
                    "time": 197.39999999999736,
                    "velocity": 0.8503937007874016,
                    "duration": 0.5999999999999943
                },
                {
                    "name": "D#4",
                    "midi": 63,
                    "time": 199.19999999999735,
                    "velocity": 0.3543307086614173,
                    "duration": 0.5999999999999943
                },
                {
                    "name": "D4",
                    "midi": 62,
                    "time": 200.09999999999735,
                    "velocity": 0.3543307086614173,
                    "duration": 0.5999999999999943
                },
                {
                    "name": "D#4",
                    "midi": 63,
                    "time": 200.99999999999736,
                    "velocity": 0.3543307086614173,
                    "duration": 0.5999999999999943
                },
                {
                    "name": "G4",
                    "midi": 67,
                    "time": 202.79999999999734,
                    "velocity": 0.3543307086614173,
                    "duration": 0.5999999999999943
                },
                {
                    "name": "F#4",
                    "midi": 66,
                    "time": 203.69999999999735,
                    "velocity": 0.3543307086614173,
                    "duration": 0.5999999999999943
                },
                {
                    "name": "G4",
                    "midi": 67,
                    "time": 204.59999999999735,
                    "velocity": 0.3543307086614173,
                    "duration": 0.5999999999999943
                },
                {
                    "name": "A#4",
                    "midi": 70,
                    "time": 206.39999999999733,
                    "velocity": 0.3543307086614173,
                    "duration": 0.5999999999999943
                },
                {
                    "name": "A4",
                    "midi": 69,
                    "time": 207.29999999999734,
                    "velocity": 0.3543307086614173,
                    "duration": 0.5999999999999943
                },
                {
                    "name": "A#4",
                    "midi": 70,
                    "time": 208.19999999999735,
                    "velocity": 0.3543307086614173,
                    "duration": 0.9000000000000057
                },
                {
                    "name": "A4",
                    "midi": 69,
                    "time": 209.09999999999735,
                    "velocity": 0.3543307086614173,
                    "duration": 0.9000000000000057
                },
                {
                    "name": "A#4",
                    "midi": 70,
                    "time": 209.99999999999736,
                    "velocity": 0.3543307086614173,
                    "duration": 0.9000000000000057
                },
                {
                    "name": "F4",
                    "midi": 65,
                    "time": 210.89999999999736,
                    "velocity": 0.3543307086614173,
                    "duration": 0.9000000000000057
                },
                {
                    "name": "F4",
                    "midi": 65,
                    "time": 211.79999999999737,
                    "velocity": 0.3543307086614173,
                    "duration": 0.8000000000000114
                },
                {
                    "name": "D#4",
                    "midi": 63,
                    "time": 212.69999999999737,
                    "velocity": 0.49606299212598426,
                    "duration": 1.1937499999999943
                },
                {
                    "name": "D#4",
                    "midi": 63,
                    "time": 213.89999999999736,
                    "velocity": 0.47244094488188976,
                    "duration": 0.09999999999999432
                },
                {
                    "name": "D#4",
                    "midi": 63,
                    "time": 214.19999999999735,
                    "velocity": 0.47244094488188976,
                    "duration": 0.09999999999999432
                },
                {
                    "name": "D4",
                    "midi": 62,
                    "time": 214.79999999999734,
                    "velocity": 0.47244094488188976,
                    "duration": 0.09999999999999432
                },
                {
                    "name": "D4",
                    "midi": 62,
                    "time": 215.09999999999732,
                    "velocity": 0.47244094488188976,
                    "duration": 0.09999999999999432
                },
                {
                    "name": "F4",
                    "midi": 65,
                    "time": 215.69999999999732,
                    "velocity": 0.47244094488188976,
                    "duration": 0.09999999999999432
                },
                {
                    "name": "F4",
                    "midi": 65,
                    "time": 215.9999999999973,
                    "velocity": 0.47244094488188976,
                    "duration": 0.09999999999999432
                },
                {
                    "name": "D4",
                    "midi": 62,
                    "time": 216.29999999999728,
                    "velocity": 0.6614173228346457,
                    "duration": 1.1937499999999943
                },
                {
                    "name": "F4",
                    "midi": 65,
                    "time": 217.49999999999727,
                    "velocity": 0.47244094488188976,
                    "duration": 0.09999999999999432
                },
                {
                    "name": "F4",
                    "midi": 65,
                    "time": 217.79999999999725,
                    "velocity": 0.47244094488188976,
                    "duration": 0.09999999999999432
                },
                {
                    "name": "F4",
                    "midi": 65,
                    "time": 218.39999999999725,
                    "velocity": 0.47244094488188976,
                    "duration": 0.09999999999999432
                },
                {
                    "name": "F4",
                    "midi": 65,
                    "time": 218.69999999999723,
                    "velocity": 0.47244094488188976,
                    "duration": 0.09999999999999432
                },
                {
                    "name": "G4",
                    "midi": 67,
                    "time": 218.99999999999721,
                    "velocity": 0.47244094488188976,
                    "duration": 0.5999999999999943
                },
                {
                    "name": "D5",
                    "midi": 74,
                    "time": 219.89999999999722,
                    "velocity": 0.47244094488188976,
                    "duration": 0.09999999999999432
                },
                {
                    "name": "D5",
                    "midi": 74,
                    "time": 220.1999999999972,
                    "velocity": 0.47244094488188976,
                    "duration": 0.09999999999999432
                },
                {
                    "name": "D#5",
                    "midi": 75,
                    "time": 220.7999999999972,
                    "velocity": 0.47244094488188976,
                    "duration": 0.09999999999999432
                },
                {
                    "name": "D#5",
                    "midi": 75,
                    "time": 221.09999999999718,
                    "velocity": 0.47244094488188976,
                    "duration": 0.09999999999999432
                },
                {
                    "name": "D#5",
                    "midi": 75,
                    "time": 221.69999999999717,
                    "velocity": 0.47244094488188976,
                    "duration": 0.09999999999999432
                },
                {
                    "name": "D#5",
                    "midi": 75,
                    "time": 221.99999999999716,
                    "velocity": 0.47244094488188976,
                    "duration": 0.09999999999999432
                },
                {
                    "name": "D5",
                    "midi": 74,
                    "time": 222.59999999999715,
                    "velocity": 0.47244094488188976,
                    "duration": 0.09999999999999432
                },
                {
                    "name": "D5",
                    "midi": 74,
                    "time": 222.89999999999714,
                    "velocity": 0.47244094488188976,
                    "duration": 0.09999999999999432
                },
                {
                    "name": "F4",
                    "midi": 65,
                    "time": 223.49999999999713,
                    "velocity": 0.3543307086614173,
                    "duration": 0.09999999999999432
                },
                {
                    "name": "B4",
                    "midi": 71,
                    "time": 223.49999999999713,
                    "velocity": 0.3543307086614173,
                    "duration": 0.09999999999999432
                },
                {
                    "name": "F4",
                    "midi": 65,
                    "time": 223.7999999999971,
                    "velocity": 0.3543307086614173,
                    "duration": 0.09999999999999432
                },
                {
                    "name": "B4",
                    "midi": 71,
                    "time": 223.7999999999971,
                    "velocity": 0.3543307086614173,
                    "duration": 0.09999999999999432
                },
                {
                    "name": "D#4",
                    "midi": 63,
                    "time": 224.3999999999971,
                    "velocity": 0.3543307086614173,
                    "duration": 0.09999999999999432
                },
                {
                    "name": "C5",
                    "midi": 72,
                    "time": 224.3999999999971,
                    "velocity": 0.3543307086614173,
                    "duration": 0.09999999999999432
                },
                {
                    "name": "D#4",
                    "midi": 63,
                    "time": 224.6999999999971,
                    "velocity": 0.3543307086614173,
                    "duration": 0.09999999999999432
                },
                {
                    "name": "C5",
                    "midi": 72,
                    "time": 224.6999999999971,
                    "velocity": 0.3543307086614173,
                    "duration": 0.09999999999999432
                },
                {
                    "name": "G#4",
                    "midi": 68,
                    "time": 225.29999999999708,
                    "velocity": 0.3543307086614173,
                    "duration": 0.09999999999999432
                },
                {
                    "name": "G#4",
                    "midi": 68,
                    "time": 225.59999999999707,
                    "velocity": 0.3543307086614173,
                    "duration": 0.09999999999999432
                },
                {
                    "name": "G4",
                    "midi": 67,
                    "time": 226.19999999999706,
                    "velocity": 0.3543307086614173,
                    "duration": 0.5999999999999943
                },
                {
                    "name": "D#4",
                    "midi": 63,
                    "time": 232.49999999999704,
                    "velocity": 0.3543307086614173,
                    "duration": 0.09999999999999432
                },
                {
                    "name": "D#4",
                    "midi": 63,
                    "time": 232.79999999999703,
                    "velocity": 0.3543307086614173,
                    "duration": 0.09999999999999432
                },
                {
                    "name": "F4",
                    "midi": 65,
                    "time": 233.39999999999702,
                    "velocity": 0.3543307086614173,
                    "duration": 0.09999999999999432
                },
                {
                    "name": "F4",
                    "midi": 65,
                    "time": 233.699999999997,
                    "velocity": 0.3543307086614173,
                    "duration": 0.09999999999999432
                },
                {
                    "name": "D4",
                    "midi": 62,
                    "time": 234.299999999997,
                    "velocity": 0.3543307086614173,
                    "duration": 0.09999999999999432
                },
                {
                    "name": "D4",
                    "midi": 62,
                    "time": 234.59999999999698,
                    "velocity": 0.3543307086614173,
                    "duration": 0.09999999999999432
                },
                {
                    "name": "F4",
                    "midi": 65,
                    "time": 235.19999999999698,
                    "velocity": 0.3543307086614173,
                    "duration": 0.09999999999999432
                },
                {
                    "name": "F4",
                    "midi": 65,
                    "time": 235.49999999999696,
                    "velocity": 0.3543307086614173,
                    "duration": 0.09999999999999432
                },
                {
                    "name": "D#4",
                    "midi": 63,
                    "time": 236.09999999999695,
                    "velocity": 0.3543307086614173,
                    "duration": 0.09999999999999432
                },
                {
                    "name": "D#4",
                    "midi": 63,
                    "time": 236.39999999999694,
                    "velocity": 0.3543307086614173,
                    "duration": 0.09999999999999432
                },
                {
                    "name": "D#4",
                    "midi": 63,
                    "time": 236.99999999999693,
                    "velocity": 0.3543307086614173,
                    "duration": 0.09999999999999432
                },
                {
                    "name": "D#4",
                    "midi": 63,
                    "time": 237.2999999999969,
                    "velocity": 0.3543307086614173,
                    "duration": 0.09999999999999432
                },
                {
                    "name": "G4",
                    "midi": 67,
                    "time": 237.8999999999969,
                    "velocity": 0.3543307086614173,
                    "duration": 0.5999999999999943
                },
                {
                    "name": "D4",
                    "midi": 62,
                    "time": 238.7999999999969,
                    "velocity": 0.49606299212598426,
                    "duration": 0.9000000000000057
                },
                {
                    "name": "E4",
                    "midi": 64,
                    "time": 239.69999999999692,
                    "velocity": 0.3543307086614173,
                    "duration": 0.09999999999999432
                },
                {
                    "name": "E4",
                    "midi": 64,
                    "time": 239.9999999999969,
                    "velocity": 0.3543307086614173,
                    "duration": 0.09999999999999432
                },
                {
                    "name": "E4",
                    "midi": 64,
                    "time": 240.5999999999969,
                    "velocity": 0.3543307086614173,
                    "duration": 0.09999999999999432
                },
                {
                    "name": "E4",
                    "midi": 64,
                    "time": 240.89999999999688,
                    "velocity": 0.3543307086614173,
                    "duration": 0.09999999999999432
                },
                {
                    "name": "F4",
                    "midi": 65,
                    "time": 241.49999999999687,
                    "velocity": 0.3543307086614173,
                    "duration": 0.09999999999999432
                },
                {
                    "name": "F4",
                    "midi": 65,
                    "time": 241.79999999999686,
                    "velocity": 0.3543307086614173,
                    "duration": 0.09999999999999432
                },
                {
                    "name": "F4",
                    "midi": 65,
                    "time": 242.39999999999685,
                    "velocity": 0.3543307086614173,
                    "duration": 0.09999999999999432
                },
                {
                    "name": "F4",
                    "midi": 65,
                    "time": 242.69999999999683,
                    "velocity": 0.3543307086614173,
                    "duration": 0.09999999999999432
                },
                {
                    "name": "D#4",
                    "midi": 63,
                    "time": 243.29999999999683,
                    "velocity": 0.3543307086614173,
                    "duration": 0.09999999999999432
                },
                {
                    "name": "F4",
                    "midi": 65,
                    "time": 244.19999999999683,
                    "velocity": 0.3543307086614173,
                    "duration": 0.09999999999999432
                },
                {
                    "name": "D#4",
                    "midi": 63,
                    "time": 245.09999999999684,
                    "velocity": 0.3543307086614173,
                    "duration": 0.5999999999999943
                },
                {
                    "name": "G4",
                    "midi": 67,
                    "time": 245.69999999999683,
                    "velocity": 0.8503937007874016,
                    "duration": 0.30000000000001137
                },
                {
                    "name": "G5",
                    "midi": 79,
                    "time": 245.99999999999685,
                    "velocity": 0.8503937007874016,
                    "duration": 0.09999999999999432
                },
                {
                    "name": "G5",
                    "midi": 79,
                    "time": 246.29999999999683,
                    "velocity": 0.8503937007874016,
                    "duration": 0.09999999999999432
                },
                {
                    "name": "F5",
                    "midi": 77,
                    "time": 246.5999999999968,
                    "velocity": 0.8503937007874016,
                    "duration": 0.09999999999999432
                },
                {
                    "name": "D#5",
                    "midi": 75,
                    "time": 246.8999999999968,
                    "velocity": 0.8503937007874016,
                    "duration": 0.09999999999999432
                },
                {
                    "name": "D#5",
                    "midi": 75,
                    "time": 247.19999999999678,
                    "velocity": 0.8503937007874016,
                    "duration": 0.09999999999999432
                },
                {
                    "name": "D5",
                    "midi": 74,
                    "time": 247.49999999999676,
                    "velocity": 0.8503937007874016,
                    "duration": 0.09999999999999432
                },
                {
                    "name": "C5",
                    "midi": 72,
                    "time": 247.79999999999674,
                    "velocity": 0.8503937007874016,
                    "duration": 0.09999999999999432
                },
                {
                    "name": "B4",
                    "midi": 71,
                    "time": 248.09999999999673,
                    "velocity": 0.8503937007874016,
                    "duration": 0.09999999999999432
                },
                {
                    "name": "C5",
                    "midi": 72,
                    "time": 248.3999999999967,
                    "velocity": 0.8503937007874016,
                    "duration": 0.09999999999999432
                },
                {
                    "name": "B4",
                    "midi": 71,
                    "time": 248.6999999999967,
                    "velocity": 0.8503937007874016,
                    "duration": 0.07499999999998863
                },
                {
                    "name": "C5",
                    "midi": 72,
                    "time": 248.77499999999668,
                    "velocity": 0.8503937007874016,
                    "duration": 0.07499999999998863
                },
                {
                    "name": "D5",
                    "midi": 74,
                    "time": 248.84999999999667,
                    "velocity": 0.8503937007874016,
                    "duration": 0.09999999999999432
                },
                {
                    "name": "G4",
                    "midi": 67,
                    "time": 248.99999999999667,
                    "velocity": 0.8503937007874016,
                    "duration": 0.09999999999999432
                },
                {
                    "name": "G4",
                    "midi": 67,
                    "time": 249.29999999999666,
                    "velocity": 0.8503937007874016,
                    "duration": 0.09999999999999432
                },
                {
                    "name": "A#4",
                    "midi": 70,
                    "time": 249.59999999999664,
                    "velocity": 0.8503937007874016,
                    "duration": 0.07499999999998863
                },
                {
                    "name": "G#4",
                    "midi": 68,
                    "time": 249.67499999999663,
                    "velocity": 0.8503937007874016,
                    "duration": 0.15000000000000568
                },
                {
                    "name": "G4",
                    "midi": 67,
                    "time": 249.89999999999662,
                    "velocity": 0.8503937007874016,
                    "duration": 0.09999999999999432
                },
                {
                    "name": "F4",
                    "midi": 65,
                    "time": 250.1999999999966,
                    "velocity": 0.8503937007874016,
                    "duration": 0.09999999999999432
                },
                {
                    "name": "D#4",
                    "midi": 63,
                    "time": 250.4999999999966,
                    "velocity": 0.8503937007874016,
                    "duration": 0.09999999999999432
                },
                {
                    "name": "D4",
                    "midi": 62,
                    "time": 250.79999999999657,
                    "velocity": 0.8503937007874016,
                    "duration": 0.09999999999999432
                },
                {
                    "name": "C4",
                    "midi": 60,
                    "time": 251.09999999999656,
                    "velocity": 0.8503937007874016,
                    "duration": 0.09999999999999432
                },
                {
                    "name": "F4",
                    "midi": 65,
                    "time": 251.39999999999654,
                    "velocity": 0.8503937007874016,
                    "duration": 0.07499999999998863
                },
                {
                    "name": "D#4",
                    "midi": 63,
                    "time": 251.47499999999653,
                    "velocity": 0.8503937007874016,
                    "duration": 0.15000000000000568
                },
                {
                    "name": "D4",
                    "midi": 62,
                    "time": 251.69999999999652,
                    "velocity": 0.8503937007874016,
                    "duration": 0.09999999999999432
                },
                {
                    "name": "C4",
                    "midi": 60,
                    "time": 251.9999999999965,
                    "velocity": 0.8503937007874016,
                    "duration": 0.09999999999999432
                },
                {
                    "name": "D4",
                    "midi": 62,
                    "time": 252.2999999999965,
                    "velocity": 0.8503937007874016,
                    "duration": 0.5999999999999943
                },
                {
                    "name": "G4",
                    "midi": 67,
                    "time": 252.89999999999648,
                    "velocity": 0.8503937007874016,
                    "duration": 0.30000000000001137
                },
                {
                    "name": "G5",
                    "midi": 79,
                    "time": 253.1999999999965,
                    "velocity": 0.8503937007874016,
                    "duration": 0.09999999999999432
                },
                {
                    "name": "G5",
                    "midi": 79,
                    "time": 253.49999999999648,
                    "velocity": 0.8503937007874016,
                    "duration": 0.09999999999999432
                },
                {
                    "name": "F5",
                    "midi": 77,
                    "time": 253.79999999999646,
                    "velocity": 0.8503937007874016,
                    "duration": 0.09999999999999432
                },
                {
                    "name": "E5",
                    "midi": 76,
                    "time": 254.09999999999644,
                    "velocity": 0.8503937007874016,
                    "duration": 0.09999999999999432
                },
                {
                    "name": "E5",
                    "midi": 76,
                    "time": 254.39999999999642,
                    "velocity": 0.8503937007874016,
                    "duration": 0.09999999999999432
                },
                {
                    "name": "D5",
                    "midi": 74,
                    "time": 254.6999999999964,
                    "velocity": 0.8503937007874016,
                    "duration": 0.09999999999999432
                },
                {
                    "name": "C5",
                    "midi": 72,
                    "time": 254.9999999999964,
                    "velocity": 0.8503937007874016,
                    "duration": 0.09999999999999432
                },
                {
                    "name": "B4",
                    "midi": 71,
                    "time": 255.29999999999637,
                    "velocity": 0.8503937007874016,
                    "duration": 0.09999999999999432
                },
                {
                    "name": "C5",
                    "midi": 72,
                    "time": 255.59999999999636,
                    "velocity": 0.8503937007874016,
                    "duration": 0.09999999999999432
                },
                {
                    "name": "B4",
                    "midi": 71,
                    "time": 255.89999999999634,
                    "velocity": 0.8503937007874016,
                    "duration": 0.07499999999998863
                },
                {
                    "name": "C5",
                    "midi": 72,
                    "time": 255.97499999999633,
                    "velocity": 0.8503937007874016,
                    "duration": 0.07499999999998863
                },
                {
                    "name": "D5",
                    "midi": 74,
                    "time": 256.0499999999963,
                    "velocity": 0.8503937007874016,
                    "duration": 0.10000000000002274
                },
                {
                    "name": "G4",
                    "midi": 67,
                    "time": 256.19999999999635,
                    "velocity": 0.8503937007874016,
                    "duration": 0.10000000000002274
                },
                {
                    "name": "G4",
                    "midi": 67,
                    "time": 256.49999999999636,
                    "velocity": 0.8503937007874016,
                    "duration": 0.10000000000002274
                },
                {
                    "name": "A#4",
                    "midi": 70,
                    "time": 256.7999999999964,
                    "velocity": 0.8503937007874016,
                    "duration": 0.07499999999998863
                },
                {
                    "name": "G#4",
                    "midi": 68,
                    "time": 256.87499999999636,
                    "velocity": 0.8503937007874016,
                    "duration": 0.14999999999997726
                },
                {
                    "name": "G4",
                    "midi": 67,
                    "time": 257.0999999999963,
                    "velocity": 0.8503937007874016,
                    "duration": 0.10000000000002274
                },
                {
                    "name": "F4",
                    "midi": 65,
                    "time": 257.39999999999634,
                    "velocity": 0.8503937007874016,
                    "duration": 0.10000000000002274
                },
                {
                    "name": "G4",
                    "midi": 67,
                    "time": 257.69999999999635,
                    "velocity": 0.8503937007874016,
                    "duration": 0.10000000000002274
                },
                {
                    "name": "C5",
                    "midi": 72,
                    "time": 257.99999999999636,
                    "velocity": 0.8503937007874016,
                    "duration": 0.10000000000002274
                },
                {
                    "name": "D#5",
                    "midi": 75,
                    "time": 258.1499999999964,
                    "velocity": 0.8503937007874016,
                    "duration": 0.10000000000002274
                },
                {
                    "name": "G5",
                    "midi": 79,
                    "time": 258.29999999999643,
                    "velocity": 0.8503937007874016,
                    "duration": 0.10000000000002274
                },
                {
                    "name": "G4",
                    "midi": 67,
                    "time": 258.59999999999644,
                    "velocity": 0.8503937007874016,
                    "duration": 0.10000000000002274
                },
                {
                    "name": "B4",
                    "midi": 71,
                    "time": 258.89999999999645,
                    "velocity": 0.8503937007874016,
                    "duration": 0.10000000000002274
                },
                {
                    "name": "D5",
                    "midi": 74,
                    "time": 259.0499999999965,
                    "velocity": 0.8503937007874016,
                    "duration": 0.10000000000002274
                },
                {
                    "name": "G5",
                    "midi": 79,
                    "time": 259.1999999999965,
                    "velocity": 0.8503937007874016,
                    "duration": 0.10000000000002274
                },
                {
                    "name": "G4",
                    "midi": 67,
                    "time": 259.49999999999653,
                    "velocity": 0.8503937007874016,
                    "duration": 0.6000000000000227
                },
                {
                    "name": "C5",
                    "midi": 72,
                    "time": 260.09999999999656,
                    "velocity": 0.8503937007874016,
                    "duration": 0.10000000000002274
                },
                {
                    "name": "C5",
                    "midi": 72,
                    "time": 260.2499999999966,
                    "velocity": 0.8503937007874016,
                    "duration": 0.10000000000002274
                },
                {
                    "name": "C5",
                    "midi": 72,
                    "time": 260.3999999999966,
                    "velocity": 0.8503937007874016,
                    "duration": 0.14999999999997726
                },
                {
                    "name": "D#5",
                    "midi": 75,
                    "time": 260.5499999999966,
                    "velocity": 0.8503937007874016,
                    "duration": 0.14375000000001137
                },
                {
                    "name": "D5",
                    "midi": 74,
                    "time": 260.69999999999663,
                    "velocity": 0.8503937007874016,
                    "duration": 0.14999999999997726
                },
                {
                    "name": "F5",
                    "midi": 77,
                    "time": 260.8499999999966,
                    "velocity": 0.8503937007874016,
                    "duration": 0.14375000000001137
                },
                {
                    "name": "D#5",
                    "midi": 75,
                    "time": 260.99999999999665,
                    "velocity": 0.8503937007874016,
                    "duration": 0.14999999999997726
                },
                {
                    "name": "G5",
                    "midi": 79,
                    "time": 261.1499999999966,
                    "velocity": 0.8503937007874016,
                    "duration": 0.14375000000001137
                },
                {
                    "name": "F5",
                    "midi": 77,
                    "time": 261.29999999999666,
                    "velocity": 0.8503937007874016,
                    "duration": 0.14999999999997726
                },
                {
                    "name": "G#5",
                    "midi": 80,
                    "time": 261.44999999999663,
                    "velocity": 0.8503937007874016,
                    "duration": 0.14375000000001137
                },
                {
                    "name": "G5",
                    "midi": 79,
                    "time": 261.59999999999667,
                    "velocity": 0.8503937007874016,
                    "duration": 0.14999999999997726
                },
                {
                    "name": "A#5",
                    "midi": 82,
                    "time": 261.74999999999665,
                    "velocity": 0.8503937007874016,
                    "duration": 0.14375000000001137
                },
                {
                    "name": "G#5",
                    "midi": 80,
                    "time": 261.8999999999967,
                    "velocity": 0.8503937007874016,
                    "duration": 0.14999999999997726
                },
                {
                    "name": "C6",
                    "midi": 84,
                    "time": 262.04999999999666,
                    "velocity": 0.8503937007874016,
                    "duration": 0.14375000000001137
                },
                {
                    "name": "A#4",
                    "midi": 70,
                    "time": 262.1999999999967,
                    "velocity": 0.8503937007874016,
                    "duration": 0.14999999999997726
                },
                {
                    "name": "D5",
                    "midi": 74,
                    "time": 262.34999999999667,
                    "velocity": 0.8503937007874016,
                    "duration": 0.14375000000001137
                },
                {
                    "name": "C5",
                    "midi": 72,
                    "time": 262.4999999999967,
                    "velocity": 0.8503937007874016,
                    "duration": 0.14999999999997726
                },
                {
                    "name": "D#5",
                    "midi": 75,
                    "time": 262.6499999999967,
                    "velocity": 0.8503937007874016,
                    "duration": 0.14375000000001137
                },
                {
                    "name": "D5",
                    "midi": 74,
                    "time": 262.7999999999967,
                    "velocity": 0.8503937007874016,
                    "duration": 0.14999999999997726
                },
                {
                    "name": "F5",
                    "midi": 77,
                    "time": 262.9499999999967,
                    "velocity": 0.8503937007874016,
                    "duration": 0.14375000000001137
                },
                {
                    "name": "D#5",
                    "midi": 75,
                    "time": 263.0999999999967,
                    "velocity": 0.8503937007874016,
                    "duration": 0.14999999999997726
                },
                {
                    "name": "G5",
                    "midi": 79,
                    "time": 263.2499999999967,
                    "velocity": 0.8503937007874016,
                    "duration": 0.14375000000001137
                },
                {
                    "name": "F5",
                    "midi": 77,
                    "time": 263.39999999999674,
                    "velocity": 0.8503937007874016,
                    "duration": 0.14999999999997726
                },
                {
                    "name": "G#5",
                    "midi": 80,
                    "time": 263.5499999999967,
                    "velocity": 0.8503937007874016,
                    "duration": 0.14375000000001137
                },
                {
                    "name": "G5",
                    "midi": 79,
                    "time": 263.69999999999675,
                    "velocity": 0.8503937007874016,
                    "duration": 0.14999999999997726
                },
                {
                    "name": "A#5",
                    "midi": 82,
                    "time": 263.8499999999967,
                    "velocity": 0.8503937007874016,
                    "duration": 0.14375000000001137
                },
                {
                    "name": "A#5",
                    "midi": 82,
                    "time": 263.99999999999676,
                    "velocity": 1,
                    "duration": 0.14999999999997726
                },
                {
                    "name": "G#5",
                    "midi": 80,
                    "time": 264.14999999999674,
                    "velocity": 0.8503937007874016,
                    "duration": 0.10000000000002274
                },
                {
                    "name": "G5",
                    "midi": 79,
                    "time": 264.29999999999677,
                    "velocity": 0.8503937007874016,
                    "duration": 0.10000000000002274
                },
                {
                    "name": "F5",
                    "midi": 77,
                    "time": 264.4499999999968,
                    "velocity": 0.8503937007874016,
                    "duration": 0.10000000000002274
                },
                {
                    "name": "D#5",
                    "midi": 75,
                    "time": 264.59999999999684,
                    "velocity": 0.8503937007874016,
                    "duration": 0.10000000000002274
                },
                {
                    "name": "D5",
                    "midi": 74,
                    "time": 264.7499999999969,
                    "velocity": 0.8503937007874016,
                    "duration": 0.10000000000002274
                },
                {
                    "name": "G#5",
                    "midi": 80,
                    "time": 264.8999999999969,
                    "velocity": 1,
                    "duration": 0.14999999999997726
                },
                {
                    "name": "G5",
                    "midi": 79,
                    "time": 265.0499999999969,
                    "velocity": 0.8503937007874016,
                    "duration": 0.10000000000002274
                },
                {
                    "name": "F5",
                    "midi": 77,
                    "time": 265.1999999999969,
                    "velocity": 0.8503937007874016,
                    "duration": 0.10000000000002274
                },
                {
                    "name": "D#5",
                    "midi": 75,
                    "time": 265.34999999999695,
                    "velocity": 0.8503937007874016,
                    "duration": 0.10000000000002274
                },
                {
                    "name": "D5",
                    "midi": 74,
                    "time": 265.499999999997,
                    "velocity": 0.8503937007874016,
                    "duration": 0.10000000000002274
                },
                {
                    "name": "C5",
                    "midi": 72,
                    "time": 265.649999999997,
                    "velocity": 0.8503937007874016,
                    "duration": 0.10000000000002274
                },
                {
                    "name": "G5",
                    "midi": 79,
                    "time": 265.79999999999706,
                    "velocity": 1,
                    "duration": 0.14999999999997726
                },
                {
                    "name": "F5",
                    "midi": 77,
                    "time": 265.94999999999703,
                    "velocity": 0.8503937007874016,
                    "duration": 0.10000000000002274
                },
                {
                    "name": "D#5",
                    "midi": 75,
                    "time": 266.09999999999707,
                    "velocity": 0.8503937007874016,
                    "duration": 0.10000000000002274
                },
                {
                    "name": "D5",
                    "midi": 74,
                    "time": 266.2499999999971,
                    "velocity": 0.8503937007874016,
                    "duration": 0.10000000000002274
                },
                {
                    "name": "C5",
                    "midi": 72,
                    "time": 266.39999999999714,
                    "velocity": 0.8503937007874016,
                    "duration": 0.10000000000002274
                },
                {
                    "name": "B4",
                    "midi": 71,
                    "time": 266.54999999999717,
                    "velocity": 0.8503937007874016,
                    "duration": 0.10000000000002274
                },
                {
                    "name": "C5",
                    "midi": 72,
                    "time": 266.6999999999972,
                    "velocity": 0.8503937007874016,
                    "duration": 0.6000000000000227
                },
                {
                    "name": "C5",
                    "midi": 72,
                    "time": 267.2999999999972,
                    "velocity": 0.8503937007874016,
                    "duration": 0.10000000000002274
                },
                {
                    "name": "C5",
                    "midi": 72,
                    "time": 267.44999999999726,
                    "velocity": 0.8503937007874016,
                    "duration": 0.10000000000002274
                },
                {
                    "name": "C5",
                    "midi": 72,
                    "time": 267.5999999999973,
                    "velocity": 0.8503937007874016,
                    "duration": 0.14999999999997726
                },
                {
                    "name": "D#5",
                    "midi": 75,
                    "time": 267.74999999999727,
                    "velocity": 0.8503937007874016,
                    "duration": 0.14375000000001137
                },
                {
                    "name": "D5",
                    "midi": 74,
                    "time": 267.8999999999973,
                    "velocity": 0.8503937007874016,
                    "duration": 0.14999999999997726
                },
                {
                    "name": "F5",
                    "midi": 77,
                    "time": 268.0499999999973,
                    "velocity": 0.8503937007874016,
                    "duration": 0.14375000000001137
                },
                {
                    "name": "D#5",
                    "midi": 75,
                    "time": 268.1999999999973,
                    "velocity": 0.8503937007874016,
                    "duration": 0.14999999999997726
                },
                {
                    "name": "G5",
                    "midi": 79,
                    "time": 268.3499999999973,
                    "velocity": 0.8503937007874016,
                    "duration": 0.14375000000001137
                },
                {
                    "name": "F5",
                    "midi": 77,
                    "time": 268.4999999999973,
                    "velocity": 0.8503937007874016,
                    "duration": 0.14999999999997726
                },
                {
                    "name": "G#5",
                    "midi": 80,
                    "time": 268.6499999999973,
                    "velocity": 0.8503937007874016,
                    "duration": 0.14375000000001137
                },
                {
                    "name": "G5",
                    "midi": 79,
                    "time": 268.79999999999734,
                    "velocity": 0.8503937007874016,
                    "duration": 0.14999999999997726
                },
                {
                    "name": "A#5",
                    "midi": 82,
                    "time": 268.9499999999973,
                    "velocity": 0.8503937007874016,
                    "duration": 0.14375000000001137
                },
                {
                    "name": "G#5",
                    "midi": 80,
                    "time": 269.09999999999735,
                    "velocity": 0.8503937007874016,
                    "duration": 0.14999999999997726
                },
                {
                    "name": "C6",
                    "midi": 84,
                    "time": 269.2499999999973,
                    "velocity": 0.8503937007874016,
                    "duration": 0.14375000000001137
                },
                {
                    "name": "A#4",
                    "midi": 70,
                    "time": 269.39999999999736,
                    "velocity": 0.8503937007874016,
                    "duration": 0.14999999999997726
                },
                {
                    "name": "D5",
                    "midi": 74,
                    "time": 269.54999999999734,
                    "velocity": 0.8503937007874016,
                    "duration": 0.14375000000001137
                },
                {
                    "name": "C5",
                    "midi": 72,
                    "time": 269.6999999999974,
                    "velocity": 0.8503937007874016,
                    "duration": 0.14999999999997726
                },
                {
                    "name": "D#5",
                    "midi": 75,
                    "time": 269.84999999999735,
                    "velocity": 0.8503937007874016,
                    "duration": 0.14375000000001137
                },
                {
                    "name": "D5",
                    "midi": 74,
                    "time": 269.9999999999974,
                    "velocity": 0.8503937007874016,
                    "duration": 0.14999999999997726
                },
                {
                    "name": "F5",
                    "midi": 77,
                    "time": 270.14999999999736,
                    "velocity": 0.8503937007874016,
                    "duration": 0.14375000000001137
                },
                {
                    "name": "D#5",
                    "midi": 75,
                    "time": 270.2999999999974,
                    "velocity": 0.8503937007874016,
                    "duration": 0.14999999999997726
                },
                {
                    "name": "G5",
                    "midi": 79,
                    "time": 270.4499999999974,
                    "velocity": 0.8503937007874016,
                    "duration": 0.14375000000001137
                },
                {
                    "name": "F5",
                    "midi": 77,
                    "time": 270.5999999999974,
                    "velocity": 0.8503937007874016,
                    "duration": 0.14999999999997726
                },
                {
                    "name": "G#5",
                    "midi": 80,
                    "time": 270.7499999999974,
                    "velocity": 0.8503937007874016,
                    "duration": 0.14375000000001137
                },
                {
                    "name": "G5",
                    "midi": 79,
                    "time": 270.8999999999974,
                    "velocity": 0.8503937007874016,
                    "duration": 0.14999999999997726
                },
                {
                    "name": "A#5",
                    "midi": 82,
                    "time": 271.0499999999974,
                    "velocity": 0.8503937007874016,
                    "duration": 0.14375000000001137
                },
                {
                    "name": "A#5",
                    "midi": 82,
                    "time": 271.19999999999743,
                    "velocity": 1,
                    "duration": 0.14999999999997726
                },
                {
                    "name": "G#5",
                    "midi": 80,
                    "time": 271.3499999999974,
                    "velocity": 0.8503937007874016,
                    "duration": 0.10000000000002274
                },
                {
                    "name": "G5",
                    "midi": 79,
                    "time": 271.49999999999744,
                    "velocity": 0.8503937007874016,
                    "duration": 0.10000000000002274
                },
                {
                    "name": "F5",
                    "midi": 77,
                    "time": 271.6499999999975,
                    "velocity": 0.8503937007874016,
                    "duration": 0.10000000000002274
                },
                {
                    "name": "D#5",
                    "midi": 75,
                    "time": 271.7999999999975,
                    "velocity": 0.8503937007874016,
                    "duration": 0.10000000000002274
                },
                {
                    "name": "D5",
                    "midi": 74,
                    "time": 271.94999999999754,
                    "velocity": 0.8503937007874016,
                    "duration": 0.10000000000002274
                },
                {
                    "name": "G#5",
                    "midi": 80,
                    "time": 272.0999999999976,
                    "velocity": 1,
                    "duration": 0.14999999999997726
                },
                {
                    "name": "G5",
                    "midi": 79,
                    "time": 272.24999999999756,
                    "velocity": 0.8503937007874016,
                    "duration": 0.10000000000002274
                },
                {
                    "name": "F5",
                    "midi": 77,
                    "time": 272.3999999999976,
                    "velocity": 0.8503937007874016,
                    "duration": 0.10000000000002274
                },
                {
                    "name": "D#5",
                    "midi": 75,
                    "time": 272.5499999999976,
                    "velocity": 0.8503937007874016,
                    "duration": 0.10000000000002274
                },
                {
                    "name": "D5",
                    "midi": 74,
                    "time": 272.69999999999766,
                    "velocity": 0.8503937007874016,
                    "duration": 0.10000000000002274
                },
                {
                    "name": "C5",
                    "midi": 72,
                    "time": 272.8499999999977,
                    "velocity": 0.8503937007874016,
                    "duration": 0.10000000000002274
                },
                {
                    "name": "G5",
                    "midi": 79,
                    "time": 272.9999999999977,
                    "velocity": 1,
                    "duration": 0.14999999999997726
                },
                {
                    "name": "F5",
                    "midi": 77,
                    "time": 273.1499999999977,
                    "velocity": 0.8503937007874016,
                    "duration": 0.10000000000002274
                },
                {
                    "name": "D#5",
                    "midi": 75,
                    "time": 273.29999999999774,
                    "velocity": 0.8503937007874016,
                    "duration": 0.10000000000002274
                },
                {
                    "name": "D5",
                    "midi": 74,
                    "time": 273.4499999999978,
                    "velocity": 0.8503937007874016,
                    "duration": 0.10000000000002274
                },
                {
                    "name": "C5",
                    "midi": 72,
                    "time": 273.5999999999978,
                    "velocity": 0.8503937007874016,
                    "duration": 0.10000000000002274
                },
                {
                    "name": "B4",
                    "midi": 71,
                    "time": 273.74999999999784,
                    "velocity": 0.8503937007874016,
                    "duration": 0.10000000000002274
                },
                {
                    "name": "C5",
                    "midi": 72,
                    "time": 273.8999999999979,
                    "velocity": 0.8503937007874016,
                    "duration": 0.6000000000000227
                },
                {
                    "name": "D#4",
                    "midi": 63,
                    "time": 274.4999999999979,
                    "velocity": 0.47244094488188976,
                    "duration": 0.29374999999998863
                },
                {
                    "name": "D4",
                    "midi": 62,
                    "time": 274.7999999999979,
                    "velocity": 0.47244094488188976,
                    "duration": 0.30000000000001137
                },
                {
                    "name": "B3",
                    "midi": 59,
                    "time": 275.0999999999979,
                    "velocity": 0.47244094488188976,
                    "duration": 0.30000000000001137
                },
                {
                    "name": "D4",
                    "midi": 62,
                    "time": 275.39999999999793,
                    "velocity": 0.47244094488188976,
                    "duration": 0.29374999999998863
                },
                {
                    "name": "E4",
                    "midi": 64,
                    "time": 275.69999999999794,
                    "velocity": 0.47244094488188976,
                    "duration": 0.30000000000001137
                },
                {
                    "name": "C4",
                    "midi": 60,
                    "time": 275.99999999999795,
                    "velocity": 0.47244094488188976,
                    "duration": 0.30000000000001137
                },
                {
                    "name": "E4",
                    "midi": 64,
                    "time": 276.29999999999797,
                    "velocity": 0.47244094488188976,
                    "duration": 0.29374999999998863
                },
                {
                    "name": "D4",
                    "midi": 62,
                    "time": 276.599999999998,
                    "velocity": 0.47244094488188976,
                    "duration": 0.30000000000001137
                },
                {
                    "name": "B3",
                    "midi": 59,
                    "time": 276.899999999998,
                    "velocity": 0.47244094488188976,
                    "duration": 0.30000000000001137
                },
                {
                    "name": "D4",
                    "midi": 62,
                    "time": 277.199999999998,
                    "velocity": 0.47244094488188976,
                    "duration": 0.29374999999998863
                },
                {
                    "name": "E4",
                    "midi": 64,
                    "time": 277.499999999998,
                    "velocity": 0.47244094488188976,
                    "duration": 0.6000000000000227
                },
                {
                    "name": "D#4",
                    "midi": 63,
                    "time": 278.09999999999803,
                    "velocity": 0.7244094488188977,
                    "duration": 0.29374999999998863
                },
                {
                    "name": "D4",
                    "midi": 62,
                    "time": 278.39999999999804,
                    "velocity": 0.7244094488188977,
                    "duration": 0.30000000000001137
                },
                {
                    "name": "B3",
                    "midi": 59,
                    "time": 278.69999999999806,
                    "velocity": 0.7244094488188977,
                    "duration": 0.30000000000001137
                },
                {
                    "name": "D4",
                    "midi": 62,
                    "time": 278.99999999999807,
                    "velocity": 0.7244094488188977,
                    "duration": 0.29374999999998863
                },
                {
                    "name": "D#4",
                    "midi": 63,
                    "time": 279.2999999999981,
                    "velocity": 0.7244094488188977,
                    "duration": 0.5
                },
                {
                    "name": "G4",
                    "midi": 67,
                    "time": 279.8999999999981,
                    "velocity": 0.8503937007874016,
                    "duration": 0.10000000000002274
                },
                {
                    "name": "G4",
                    "midi": 67,
                    "time": 280.04999999999814,
                    "velocity": 0.8503937007874016,
                    "duration": 0.10000000000002274
                },
                {
                    "name": "G#4",
                    "midi": 68,
                    "time": 280.19999999999817,
                    "velocity": 0.8503937007874016,
                    "duration": 0.14999999999997726
                },
                {
                    "name": "G4",
                    "midi": 67,
                    "time": 280.34999999999815,
                    "velocity": 0.8503937007874016,
                    "duration": 0.14375000000001137
                },
                {
                    "name": "A4",
                    "midi": 69,
                    "time": 280.4999999999982,
                    "velocity": 0.8503937007874016,
                    "duration": 0.14999999999997726
                },
                {
                    "name": "G4",
                    "midi": 67,
                    "time": 280.64999999999816,
                    "velocity": 0.8503937007874016,
                    "duration": 0.14375000000001137
                },
                {
                    "name": "B4",
                    "midi": 71,
                    "time": 280.7999999999982,
                    "velocity": 0.8503937007874016,
                    "duration": 0.14999999999997726
                },
                {
                    "name": "G4",
                    "midi": 67,
                    "time": 280.94999999999817,
                    "velocity": 0.8503937007874016,
                    "duration": 0.14375000000001137
                },
                {
                    "name": "C5",
                    "midi": 72,
                    "time": 281.0999999999982,
                    "velocity": 0.8503937007874016,
                    "duration": 0.14999999999997726
                },
                {
                    "name": "D#5",
                    "midi": 75,
                    "time": 281.2499999999982,
                    "velocity": 0.8503937007874016,
                    "duration": 0.10000000000002274
                },
                {
                    "name": "D5",
                    "midi": 74,
                    "time": 281.3999999999982,
                    "velocity": 0.8503937007874016,
                    "duration": 0.10000000000002274
                },
                {
                    "name": "C5",
                    "midi": 72,
                    "time": 281.54999999999825,
                    "velocity": 0.8503937007874016,
                    "duration": 0.10000000000002274
                },
                {
                    "name": "B4",
                    "midi": 71,
                    "time": 281.6999999999983,
                    "velocity": 0.8503937007874016,
                    "duration": 0.10000000000002274
                },
                {
                    "name": "A4",
                    "midi": 69,
                    "time": 281.8499999999983,
                    "velocity": 0.8503937007874016,
                    "duration": 0.10000000000002274
                },
                {
                    "name": "G4",
                    "midi": 67,
                    "time": 281.99999999999835,
                    "velocity": 0.8503937007874016,
                    "duration": 0.14999999999997726
                },
                {
                    "name": "G#4",
                    "midi": 68,
                    "time": 282.14999999999833,
                    "velocity": 0.8503937007874016,
                    "duration": 0.10000000000002274
                },
                {
                    "name": "A4",
                    "midi": 69,
                    "time": 282.29999999999836,
                    "velocity": 0.8503937007874016,
                    "duration": 0.10000000000002274
                },
                {
                    "name": "A#4",
                    "midi": 70,
                    "time": 282.4499999999984,
                    "velocity": 0.8503937007874016,
                    "duration": 0.10000000000002274
                },
                {
                    "name": "B4",
                    "midi": 71,
                    "time": 282.59999999999843,
                    "velocity": 0.8503937007874016,
                    "duration": 0.10000000000002274
                },
                {
                    "name": "C5",
                    "midi": 72,
                    "time": 282.89999999999844,
                    "velocity": 0.8503937007874016,
                    "duration": 0.14999999999997726
                },
                {
                    "name": "D#5",
                    "midi": 75,
                    "time": 283.0499999999984,
                    "velocity": 0.8503937007874016,
                    "duration": 0.14375000000001137
                },
                {
                    "name": "G4",
                    "midi": 67,
                    "time": 283.19999999999845,
                    "velocity": 0.8503937007874016,
                    "duration": 0.14999999999997726
                },
                {
                    "name": "C5",
                    "midi": 72,
                    "time": 283.34999999999843,
                    "velocity": 0.8503937007874016,
                    "duration": 0.14375000000001137
                },
                {
                    "name": "D#4",
                    "midi": 63,
                    "time": 283.49999999999847,
                    "velocity": 0.8503937007874016,
                    "duration": 0.14999999999997726
                },
                {
                    "name": "G4",
                    "midi": 67,
                    "time": 283.64999999999844,
                    "velocity": 0.8503937007874016,
                    "duration": 0.14375000000001137
                },
                {
                    "name": "C4",
                    "midi": 60,
                    "time": 283.7999999999985,
                    "velocity": 0.8503937007874016,
                    "duration": 0.14999999999997726
                },
                {
                    "name": "D#4",
                    "midi": 63,
                    "time": 283.94999999999845,
                    "velocity": 0.8503937007874016,
                    "duration": 0.14375000000001137
                },
                {
                    "name": "G3",
                    "midi": 55,
                    "time": 284.0999999999985,
                    "velocity": 0.8503937007874016,
                    "duration": 0.14999999999997726
                },
                {
                    "name": "C4",
                    "midi": 60,
                    "time": 284.24999999999847,
                    "velocity": 0.8503937007874016,
                    "duration": 0.14375000000001137
                },
                {
                    "name": "D#4",
                    "midi": 63,
                    "time": 284.3999999999985,
                    "velocity": 0.8503937007874016,
                    "duration": 0.14999999999997726
                },
                {
                    "name": "G4",
                    "midi": 67,
                    "time": 284.5499999999985,
                    "velocity": 0.8503937007874016,
                    "duration": 0.14375000000001137
                },
                {
                    "name": "C4",
                    "midi": 60,
                    "time": 284.6999999999985,
                    "velocity": 0.8503937007874016,
                    "duration": 0.6000000000000227
                },
                {
                    "name": "D#5",
                    "midi": 75,
                    "time": 285.59999999999854,
                    "velocity": 0.8503937007874016,
                    "duration": 0.6000000000000227
                },
                {
                    "name": "C4",
                    "midi": 60,
                    "time": 286.34999999999854,
                    "velocity": 0.8503937007874016,
                    "duration": 0.10000000000002274
                },
                {
                    "name": "C4",
                    "midi": 60,
                    "time": 286.4999999999986,
                    "velocity": 0.8503937007874016,
                    "duration": 0.8999999999999773
                }
            ],
            "controlChanges": {
                "7": [
                    {
                        "number": 7,
                        "time": 0,
                        "value": 1
                    }
                ],
                "10": [
                    {
                        "number": 10,
                        "time": 0,
                        "value": 0.33070866141732286
                    }
                ],
                "91": [
                    {
                        "number": 91,
                        "time": 0,
                        "value": 0.9448818897637795
                    }
                ]
            },
            "id": 17,
            "instrumentNumber": 48,
            "instrument": "string ensemble 1",
            "instrumentFamily": "ensemble",
            "channelNumber": 11,
            "isPercussion": false
        },
        {
            "startTime": 1.2,
            "duration": 287.3999999999981,
            "length": 672,
            "notes": [
                {
                    "name": "C4",
                    "midi": 60,
                    "time": 1.2,
                    "velocity": 0.3543307086614173,
                    "duration": 0.10000000000000009
                },
                {
                    "name": "C4",
                    "midi": 60,
                    "time": 1.5,
                    "velocity": 0.3543307086614173,
                    "duration": 0.10000000000000009
                },
                {
                    "name": "C4",
                    "midi": 60,
                    "time": 2.1,
                    "velocity": 0.3543307086614173,
                    "duration": 0.10000000000000009
                },
                {
                    "name": "C4",
                    "midi": 60,
                    "time": 2.4000000000000004,
                    "velocity": 0.3543307086614173,
                    "duration": 0.10000000000000009
                },
                {
                    "name": "B3",
                    "midi": 59,
                    "time": 3.0000000000000004,
                    "velocity": 0.3543307086614173,
                    "duration": 0.10000000000000009
                },
                {
                    "name": "B3",
                    "midi": 59,
                    "time": 3.3000000000000007,
                    "velocity": 0.3543307086614173,
                    "duration": 0.10000000000000009
                },
                {
                    "name": "D4",
                    "midi": 62,
                    "time": 3.900000000000001,
                    "velocity": 0.3543307086614173,
                    "duration": 0.10000000000000009
                },
                {
                    "name": "D4",
                    "midi": 62,
                    "time": 4.200000000000001,
                    "velocity": 0.3543307086614173,
                    "duration": 0.09999999999999964
                },
                {
                    "name": "C4",
                    "midi": 60,
                    "time": 4.800000000000001,
                    "velocity": 0.3543307086614173,
                    "duration": 0.09999999999999964
                },
                {
                    "name": "C4",
                    "midi": 60,
                    "time": 5.1000000000000005,
                    "velocity": 0.3543307086614173,
                    "duration": 0.09999999999999964
                },
                {
                    "name": "C4",
                    "midi": 60,
                    "time": 5.7,
                    "velocity": 0.3543307086614173,
                    "duration": 0.09999999999999964
                },
                {
                    "name": "C4",
                    "midi": 60,
                    "time": 6,
                    "velocity": 0.3543307086614173,
                    "duration": 0.09999999999999964
                },
                {
                    "name": "B3",
                    "midi": 59,
                    "time": 6.6,
                    "velocity": 0.3543307086614173,
                    "duration": 0.5999999999999996
                },
                {
                    "name": "D4",
                    "midi": 62,
                    "time": 6.6,
                    "velocity": 0.3543307086614173,
                    "duration": 0.5999999999999996
                },
                {
                    "name": "D4",
                    "midi": 62,
                    "time": 7.499999999999999,
                    "velocity": 0.3543307086614173,
                    "duration": 0.8999999999999995
                },
                {
                    "name": "C4",
                    "midi": 60,
                    "time": 8.399999999999999,
                    "velocity": 0.3543307086614173,
                    "duration": 0.09999999999999964
                },
                {
                    "name": "C4",
                    "midi": 60,
                    "time": 8.699999999999998,
                    "velocity": 0.3543307086614173,
                    "duration": 0.09999999999999964
                },
                {
                    "name": "C4",
                    "midi": 60,
                    "time": 9.299999999999997,
                    "velocity": 0.3543307086614173,
                    "duration": 0.09999999999999964
                },
                {
                    "name": "C4",
                    "midi": 60,
                    "time": 9.599999999999996,
                    "velocity": 0.3543307086614173,
                    "duration": 0.09999999999999964
                },
                {
                    "name": "D4",
                    "midi": 62,
                    "time": 10.199999999999996,
                    "velocity": 0.3543307086614173,
                    "duration": 0.09999999999999964
                },
                {
                    "name": "D4",
                    "midi": 62,
                    "time": 10.499999999999995,
                    "velocity": 0.3543307086614173,
                    "duration": 0.09999999999999964
                },
                {
                    "name": "D4",
                    "midi": 62,
                    "time": 11.099999999999994,
                    "velocity": 0.3543307086614173,
                    "duration": 0.09999999999999964
                },
                {
                    "name": "D4",
                    "midi": 62,
                    "time": 11.399999999999993,
                    "velocity": 0.3543307086614173,
                    "duration": 0.09999999999999964
                },
                {
                    "name": "C4",
                    "midi": 60,
                    "time": 11.999999999999993,
                    "velocity": 0.3543307086614173,
                    "duration": 0.09999999999999964
                },
                {
                    "name": "B3",
                    "midi": 59,
                    "time": 12.899999999999993,
                    "velocity": 0.3543307086614173,
                    "duration": 0.09999999999999964
                },
                {
                    "name": "C4",
                    "midi": 60,
                    "time": 13.799999999999994,
                    "velocity": 0.3543307086614173,
                    "duration": 0.5999999999999996
                },
                {
                    "name": "G3",
                    "midi": 55,
                    "time": 15.899999999999993,
                    "velocity": 0.7244094488188977,
                    "duration": 0.29375000000000107
                },
                {
                    "name": "D#4",
                    "midi": 63,
                    "time": 15.899999999999993,
                    "velocity": 0.7244094488188977,
                    "duration": 0.29375000000000107
                },
                {
                    "name": "G3",
                    "midi": 55,
                    "time": 16.199999999999996,
                    "velocity": 0.7244094488188977,
                    "duration": 0.2937499999999993
                },
                {
                    "name": "D#4",
                    "midi": 63,
                    "time": 16.199999999999996,
                    "velocity": 0.7244094488188977,
                    "duration": 0.2937499999999993
                },
                {
                    "name": "G#3",
                    "midi": 56,
                    "time": 16.799999999999994,
                    "velocity": 0.7244094488188977,
                    "duration": 0.2937499999999993
                },
                {
                    "name": "F4",
                    "midi": 65,
                    "time": 16.799999999999994,
                    "velocity": 0.7244094488188977,
                    "duration": 0.2937499999999993
                },
                {
                    "name": "G#3",
                    "midi": 56,
                    "time": 17.099999999999994,
                    "velocity": 0.7244094488188977,
                    "duration": 0.2937499999999993
                },
                {
                    "name": "F#4",
                    "midi": 66,
                    "time": 17.099999999999994,
                    "velocity": 0.7244094488188977,
                    "duration": 0.2937499999999993
                },
                {
                    "name": "B3",
                    "midi": 59,
                    "time": 17.699999999999992,
                    "velocity": 0.7244094488188977,
                    "duration": 0.2937499999999993
                },
                {
                    "name": "G4",
                    "midi": 67,
                    "time": 17.699999999999992,
                    "velocity": 0.7244094488188977,
                    "duration": 0.2937499999999993
                },
                {
                    "name": "B3",
                    "midi": 59,
                    "time": 17.999999999999993,
                    "velocity": 0.7244094488188977,
                    "duration": 0.2937499999999993
                },
                {
                    "name": "G4",
                    "midi": 67,
                    "time": 17.999999999999993,
                    "velocity": 0.7244094488188977,
                    "duration": 0.2937499999999993
                },
                {
                    "name": "B3",
                    "midi": 59,
                    "time": 18.59999999999999,
                    "velocity": 0.7244094488188977,
                    "duration": 0.2937499999999993
                },
                {
                    "name": "F4",
                    "midi": 65,
                    "time": 18.59999999999999,
                    "velocity": 0.7244094488188977,
                    "duration": 0.2937499999999993
                },
                {
                    "name": "B3",
                    "midi": 59,
                    "time": 18.89999999999999,
                    "velocity": 0.7244094488188977,
                    "duration": 0.2937499999999993
                },
                {
                    "name": "F4",
                    "midi": 65,
                    "time": 18.89999999999999,
                    "velocity": 0.7244094488188977,
                    "duration": 0.2937499999999993
                },
                {
                    "name": "G3",
                    "midi": 55,
                    "time": 19.49999999999999,
                    "velocity": 0.7244094488188977,
                    "duration": 0.2937499999999993
                },
                {
                    "name": "G3",
                    "midi": 55,
                    "time": 19.79999999999999,
                    "velocity": 0.7244094488188977,
                    "duration": 0.2937499999999993
                },
                {
                    "name": "D#4",
                    "midi": 63,
                    "time": 20.399999999999988,
                    "velocity": 0.7244094488188977,
                    "duration": 0.2937499999999993
                },
                {
                    "name": "D#4",
                    "midi": 63,
                    "time": 20.69999999999999,
                    "velocity": 0.7244094488188977,
                    "duration": 0.2937499999999993
                },
                {
                    "name": "B3",
                    "midi": 59,
                    "time": 20.99999999999999,
                    "velocity": 0.7244094488188977,
                    "duration": 0.6000000000000014
                },
                {
                    "name": "G4",
                    "midi": 67,
                    "time": 20.99999999999999,
                    "velocity": 0.7244094488188977,
                    "duration": 0.6000000000000014
                },
                {
                    "name": "B3",
                    "midi": 59,
                    "time": 21.89999999999999,
                    "velocity": 0.7244094488188977,
                    "duration": 0.8999999999999986
                },
                {
                    "name": "D4",
                    "midi": 62,
                    "time": 21.89999999999999,
                    "velocity": 0.7244094488188977,
                    "duration": 0.8999999999999986
                },
                {
                    "name": "C4",
                    "midi": 60,
                    "time": 22.79999999999999,
                    "velocity": 0.7244094488188977,
                    "duration": 0.2937499999999993
                },
                {
                    "name": "D#4",
                    "midi": 63,
                    "time": 22.79999999999999,
                    "velocity": 0.7244094488188977,
                    "duration": 0.2937499999999993
                },
                {
                    "name": "C4",
                    "midi": 60,
                    "time": 23.09999999999999,
                    "velocity": 0.7244094488188977,
                    "duration": 0.2937499999999993
                },
                {
                    "name": "D#4",
                    "midi": 63,
                    "time": 23.09999999999999,
                    "velocity": 0.7244094488188977,
                    "duration": 0.2937499999999993
                },
                {
                    "name": "D4",
                    "midi": 62,
                    "time": 23.39999999999999,
                    "velocity": 0.7244094488188977,
                    "duration": 0.2937499999999993
                },
                {
                    "name": "B3",
                    "midi": 59,
                    "time": 23.99999999999999,
                    "velocity": 0.7244094488188977,
                    "duration": 0.2937499999999993
                },
                {
                    "name": "F#4",
                    "midi": 66,
                    "time": 23.99999999999999,
                    "velocity": 0.7244094488188977,
                    "duration": 0.2937499999999993
                },
                {
                    "name": "C4",
                    "midi": 60,
                    "time": 24.29999999999999,
                    "velocity": 0.7244094488188977,
                    "duration": 0.2937499999999993
                },
                {
                    "name": "B3",
                    "midi": 59,
                    "time": 24.899999999999988,
                    "velocity": 0.7244094488188977,
                    "duration": 0.2937499999999993
                },
                {
                    "name": "D4",
                    "midi": 62,
                    "time": 24.899999999999988,
                    "velocity": 0.7244094488188977,
                    "duration": 0.2937499999999993
                },
                {
                    "name": "B3",
                    "midi": 59,
                    "time": 25.19999999999999,
                    "velocity": 0.7244094488188977,
                    "duration": 0.2937499999999993
                },
                {
                    "name": "D4",
                    "midi": 62,
                    "time": 25.19999999999999,
                    "velocity": 0.7244094488188977,
                    "duration": 0.2937499999999993
                },
                {
                    "name": "B3",
                    "midi": 59,
                    "time": 25.799999999999986,
                    "velocity": 0.7244094488188977,
                    "duration": 0.2937499999999993
                },
                {
                    "name": "B3",
                    "midi": 59,
                    "time": 26.099999999999987,
                    "velocity": 0.7244094488188977,
                    "duration": 0.2937499999999993
                },
                {
                    "name": "C4",
                    "midi": 60,
                    "time": 26.399999999999988,
                    "velocity": 0.7244094488188977,
                    "duration": 0.10000000000000142
                },
                {
                    "name": "D#4",
                    "midi": 63,
                    "time": 26.399999999999988,
                    "velocity": 0.7244094488188977,
                    "duration": 0.10000000000000142
                },
                {
                    "name": "B3",
                    "midi": 59,
                    "time": 27.29999999999999,
                    "velocity": 0.7244094488188977,
                    "duration": 0.10000000000000142
                },
                {
                    "name": "F4",
                    "midi": 65,
                    "time": 27.29999999999999,
                    "velocity": 0.7244094488188977,
                    "duration": 0.10000000000000142
                },
                {
                    "name": "D#4",
                    "midi": 63,
                    "time": 28.199999999999992,
                    "velocity": 0.7244094488188977,
                    "duration": 0.6000000000000014
                },
                {
                    "name": "A#3",
                    "midi": 58,
                    "time": 29.999999999999993,
                    "velocity": 0.3543307086614173,
                    "duration": 0.6000000000000014
                },
                {
                    "name": "A#3",
                    "midi": 58,
                    "time": 30.899999999999995,
                    "velocity": 0.3543307086614173,
                    "duration": 0.6000000000000014
                },
                {
                    "name": "A#3",
                    "midi": 58,
                    "time": 31.799999999999997,
                    "velocity": 0.3543307086614173,
                    "duration": 0.5
                },
                {
                    "name": "D4",
                    "midi": 62,
                    "time": 33.599999999999994,
                    "velocity": 0.3543307086614173,
                    "duration": 0.6000000000000014
                },
                {
                    "name": "D4",
                    "midi": 62,
                    "time": 34.49999999999999,
                    "velocity": 0.3543307086614173,
                    "duration": 0.6000000000000014
                },
                {
                    "name": "D4",
                    "midi": 62,
                    "time": 35.39999999999999,
                    "velocity": 0.3543307086614173,
                    "duration": 0.6000000000000014
                },
                {
                    "name": "F4",
                    "midi": 65,
                    "time": 37.199999999999996,
                    "velocity": 0.3543307086614173,
                    "duration": 0.6000000000000014
                },
                {
                    "name": "F4",
                    "midi": 65,
                    "time": 38.099999999999994,
                    "velocity": 0.3543307086614173,
                    "duration": 0.6000000000000014
                },
                {
                    "name": "F4",
                    "midi": 65,
                    "time": 38.99999999999999,
                    "velocity": 0.3543307086614173,
                    "duration": 0.8999999999999986
                },
                {
                    "name": "F4",
                    "midi": 65,
                    "time": 39.89999999999999,
                    "velocity": 0.3543307086614173,
                    "duration": 0.8999999999999986
                },
                {
                    "name": "F4",
                    "midi": 65,
                    "time": 40.79999999999999,
                    "velocity": 0.3543307086614173,
                    "duration": 0.8999999999999986
                },
                {
                    "name": "A3",
                    "midi": 57,
                    "time": 41.69999999999999,
                    "velocity": 0.3543307086614173,
                    "duration": 0.8999999999999986
                },
                {
                    "name": "A#3",
                    "midi": 58,
                    "time": 42.59999999999999,
                    "velocity": 0.3543307086614173,
                    "duration": 0.6000000000000014
                },
                {
                    "name": "B3",
                    "midi": 59,
                    "time": 43.19999999999999,
                    "velocity": 0.3543307086614173,
                    "duration": 0.29375000000000284
                },
                {
                    "name": "C4",
                    "midi": 60,
                    "time": 43.49999999999999,
                    "velocity": 0.49606299212598426,
                    "duration": 1.1937500000000014
                },
                {
                    "name": "C4",
                    "midi": 60,
                    "time": 44.699999999999996,
                    "velocity": 0.47244094488188976,
                    "duration": 0.10000000000000142
                },
                {
                    "name": "C4",
                    "midi": 60,
                    "time": 45,
                    "velocity": 0.47244094488188976,
                    "duration": 0.10000000000000142
                },
                {
                    "name": "C4",
                    "midi": 60,
                    "time": 45.6,
                    "velocity": 0.47244094488188976,
                    "duration": 0.10000000000000142
                },
                {
                    "name": "C4",
                    "midi": 60,
                    "time": 45.900000000000006,
                    "velocity": 0.47244094488188976,
                    "duration": 0.10000000000000142
                },
                {
                    "name": "C4",
                    "midi": 60,
                    "time": 46.50000000000001,
                    "velocity": 0.47244094488188976,
                    "duration": 0.10000000000000142
                },
                {
                    "name": "C4",
                    "midi": 60,
                    "time": 46.80000000000001,
                    "velocity": 0.47244094488188976,
                    "duration": 0.10000000000000142
                },
                {
                    "name": "A#3",
                    "midi": 58,
                    "time": 47.100000000000016,
                    "velocity": 0.6614173228346457,
                    "duration": 1.1937500000000014
                },
                {
                    "name": "D4",
                    "midi": 62,
                    "time": 48.30000000000002,
                    "velocity": 0.47244094488188976,
                    "duration": 0.10000000000000142
                },
                {
                    "name": "D4",
                    "midi": 62,
                    "time": 48.60000000000002,
                    "velocity": 0.47244094488188976,
                    "duration": 0.10000000000000142
                },
                {
                    "name": "D#4",
                    "midi": 63,
                    "time": 49.200000000000024,
                    "velocity": 0.47244094488188976,
                    "duration": 0.10000000000000142
                },
                {
                    "name": "D4",
                    "midi": 62,
                    "time": 49.50000000000003,
                    "velocity": 0.47244094488188976,
                    "duration": 0.10000000000000142
                },
                {
                    "name": "D#4",
                    "midi": 63,
                    "time": 49.80000000000003,
                    "velocity": 0.47244094488188976,
                    "duration": 0.6000000000000014
                },
                {
                    "name": "G4",
                    "midi": 67,
                    "time": 50.70000000000003,
                    "velocity": 0.47244094488188976,
                    "duration": 0.10000000000000142
                },
                {
                    "name": "G4",
                    "midi": 67,
                    "time": 51.000000000000036,
                    "velocity": 0.47244094488188976,
                    "duration": 0.10000000000000142
                },
                {
                    "name": "G4",
                    "midi": 67,
                    "time": 51.60000000000004,
                    "velocity": 0.47244094488188976,
                    "duration": 0.10000000000000142
                },
                {
                    "name": "G4",
                    "midi": 67,
                    "time": 51.90000000000004,
                    "velocity": 0.47244094488188976,
                    "duration": 0.10000000000000142
                },
                {
                    "name": "G#4",
                    "midi": 68,
                    "time": 52.50000000000004,
                    "velocity": 0.47244094488188976,
                    "duration": 0.10000000000000142
                },
                {
                    "name": "G#4",
                    "midi": 68,
                    "time": 52.80000000000005,
                    "velocity": 0.47244094488188976,
                    "duration": 0.10000000000000142
                },
                {
                    "name": "G4",
                    "midi": 67,
                    "time": 53.40000000000005,
                    "velocity": 0.47244094488188976,
                    "duration": 0.10000000000000142
                },
                {
                    "name": "G4",
                    "midi": 67,
                    "time": 53.70000000000005,
                    "velocity": 0.47244094488188976,
                    "duration": 0.10000000000000142
                },
                {
                    "name": "G4",
                    "midi": 67,
                    "time": 54.300000000000054,
                    "velocity": 0.3543307086614173,
                    "duration": 0.10000000000000142
                },
                {
                    "name": "G4",
                    "midi": 67,
                    "time": 54.60000000000006,
                    "velocity": 0.3543307086614173,
                    "duration": 0.10000000000000142
                },
                {
                    "name": "G4",
                    "midi": 67,
                    "time": 55.20000000000006,
                    "velocity": 0.3543307086614173,
                    "duration": 0.10000000000000142
                },
                {
                    "name": "G4",
                    "midi": 67,
                    "time": 55.500000000000064,
                    "velocity": 0.3543307086614173,
                    "duration": 0.10000000000000142
                },
                {
                    "name": "D#4",
                    "midi": 63,
                    "time": 56.100000000000065,
                    "velocity": 0.3543307086614173,
                    "duration": 0.10000000000000142
                },
                {
                    "name": "D#4",
                    "midi": 63,
                    "time": 56.40000000000007,
                    "velocity": 0.3543307086614173,
                    "duration": 0.10000000000000142
                },
                {
                    "name": "D4",
                    "midi": 62,
                    "time": 57.00000000000007,
                    "velocity": 0.3543307086614173,
                    "duration": 0.6000000000000014
                },
                {
                    "name": "G5",
                    "midi": 79,
                    "time": 59.700000000000074,
                    "velocity": 0.3543307086614173,
                    "duration": 0.10000000000000142
                },
                {
                    "name": "G5",
                    "midi": 79,
                    "time": 60.00000000000008,
                    "velocity": 0.3543307086614173,
                    "duration": 0.10000000000000142
                },
                {
                    "name": "G5",
                    "midi": 79,
                    "time": 60.30000000000008,
                    "velocity": 0.3543307086614173,
                    "duration": 0.10000000000000142
                },
                {
                    "name": "C4",
                    "midi": 60,
                    "time": 63.30000000000008,
                    "velocity": 0.3543307086614173,
                    "duration": 0.10000000000000142
                },
                {
                    "name": "C4",
                    "midi": 60,
                    "time": 63.60000000000009,
                    "velocity": 0.3543307086614173,
                    "duration": 0.10000000000000142
                },
                {
                    "name": "C4",
                    "midi": 60,
                    "time": 64.20000000000009,
                    "velocity": 0.3543307086614173,
                    "duration": 0.09999999999999432
                },
                {
                    "name": "C4",
                    "midi": 60,
                    "time": 64.50000000000009,
                    "velocity": 0.3543307086614173,
                    "duration": 0.09999999999999432
                },
                {
                    "name": "B3",
                    "midi": 59,
                    "time": 65.10000000000008,
                    "velocity": 0.3543307086614173,
                    "duration": 0.09999999999999432
                },
                {
                    "name": "B3",
                    "midi": 59,
                    "time": 65.40000000000008,
                    "velocity": 0.3543307086614173,
                    "duration": 0.09999999999999432
                },
                {
                    "name": "D4",
                    "midi": 62,
                    "time": 66.00000000000007,
                    "velocity": 0.3543307086614173,
                    "duration": 0.09999999999999432
                },
                {
                    "name": "D4",
                    "midi": 62,
                    "time": 66.30000000000007,
                    "velocity": 0.3543307086614173,
                    "duration": 0.09999999999999432
                },
                {
                    "name": "C4",
                    "midi": 60,
                    "time": 66.90000000000006,
                    "velocity": 0.3543307086614173,
                    "duration": 0.09999999999999432
                },
                {
                    "name": "C4",
                    "midi": 60,
                    "time": 67.20000000000006,
                    "velocity": 0.3543307086614173,
                    "duration": 0.09999999999999432
                },
                {
                    "name": "C4",
                    "midi": 60,
                    "time": 67.80000000000005,
                    "velocity": 0.3543307086614173,
                    "duration": 0.09999999999999432
                },
                {
                    "name": "C4",
                    "midi": 60,
                    "time": 68.10000000000005,
                    "velocity": 0.3543307086614173,
                    "duration": 0.09999999999999432
                },
                {
                    "name": "B3",
                    "midi": 59,
                    "time": 68.70000000000005,
                    "velocity": 0.3543307086614173,
                    "duration": 0.5999999999999943
                },
                {
                    "name": "D4",
                    "midi": 62,
                    "time": 68.70000000000005,
                    "velocity": 0.3543307086614173,
                    "duration": 0.5999999999999943
                },
                {
                    "name": "B3",
                    "midi": 59,
                    "time": 69.60000000000004,
                    "velocity": 0.49606299212598426,
                    "duration": 0.9000000000000057
                },
                {
                    "name": "C4",
                    "midi": 60,
                    "time": 70.50000000000004,
                    "velocity": 0.3543307086614173,
                    "duration": 0.09999999999999432
                },
                {
                    "name": "C4",
                    "midi": 60,
                    "time": 70.80000000000004,
                    "velocity": 0.3543307086614173,
                    "duration": 0.09999999999999432
                },
                {
                    "name": "C4",
                    "midi": 60,
                    "time": 71.40000000000003,
                    "velocity": 0.3543307086614173,
                    "duration": 0.09999999999999432
                },
                {
                    "name": "C4",
                    "midi": 60,
                    "time": 71.70000000000003,
                    "velocity": 0.3543307086614173,
                    "duration": 0.09999999999999432
                },
                {
                    "name": "C4",
                    "midi": 60,
                    "time": 72.30000000000003,
                    "velocity": 0.3543307086614173,
                    "duration": 0.09999999999999432
                },
                {
                    "name": "C4",
                    "midi": 60,
                    "time": 72.60000000000002,
                    "velocity": 0.3543307086614173,
                    "duration": 0.09999999999999432
                },
                {
                    "name": "D4",
                    "midi": 62,
                    "time": 73.20000000000002,
                    "velocity": 0.3543307086614173,
                    "duration": 0.09999999999999432
                },
                {
                    "name": "D4",
                    "midi": 62,
                    "time": 73.50000000000001,
                    "velocity": 0.3543307086614173,
                    "duration": 0.09999999999999432
                },
                {
                    "name": "C4",
                    "midi": 60,
                    "time": 74.10000000000001,
                    "velocity": 0.3543307086614173,
                    "duration": 0.09999999999999432
                },
                {
                    "name": "D4",
                    "midi": 62,
                    "time": 75,
                    "velocity": 0.3543307086614173,
                    "duration": 0.09999999999999432
                },
                {
                    "name": "C4",
                    "midi": 60,
                    "time": 75.89999999999999,
                    "velocity": 0.3543307086614173,
                    "duration": 0.5999999999999943
                },
                {
                    "name": "C4",
                    "midi": 60,
                    "time": 77.99999999999999,
                    "velocity": 0.7244094488188977,
                    "duration": 0.29375000000000284
                },
                {
                    "name": "D#4",
                    "midi": 63,
                    "time": 77.99999999999999,
                    "velocity": 0.7244094488188977,
                    "duration": 0.29375000000000284
                },
                {
                    "name": "C4",
                    "midi": 60,
                    "time": 78.29999999999998,
                    "velocity": 0.7244094488188977,
                    "duration": 0.29375000000000284
                },
                {
                    "name": "D#4",
                    "midi": 63,
                    "time": 78.29999999999998,
                    "velocity": 0.7244094488188977,
                    "duration": 0.29375000000000284
                },
                {
                    "name": "G#3",
                    "midi": 56,
                    "time": 78.89999999999999,
                    "velocity": 0.7244094488188977,
                    "duration": 0.29375000000000284
                },
                {
                    "name": "F4",
                    "midi": 65,
                    "time": 78.89999999999999,
                    "velocity": 0.7244094488188977,
                    "duration": 0.29375000000000284
                },
                {
                    "name": "G#3",
                    "midi": 56,
                    "time": 79.19999999999999,
                    "velocity": 0.7244094488188977,
                    "duration": 0.29375000000000284
                },
                {
                    "name": "F#4",
                    "midi": 66,
                    "time": 79.19999999999999,
                    "velocity": 0.7244094488188977,
                    "duration": 0.29375000000000284
                },
                {
                    "name": "B3",
                    "midi": 59,
                    "time": 79.8,
                    "velocity": 0.7244094488188977,
                    "duration": 0.29375000000000284
                },
                {
                    "name": "G4",
                    "midi": 67,
                    "time": 79.8,
                    "velocity": 0.7244094488188977,
                    "duration": 0.29375000000000284
                },
                {
                    "name": "B3",
                    "midi": 59,
                    "time": 80.1,
                    "velocity": 0.7244094488188977,
                    "duration": 0.29375000000000284
                },
                {
                    "name": "G4",
                    "midi": 67,
                    "time": 80.1,
                    "velocity": 0.7244094488188977,
                    "duration": 0.29375000000000284
                },
                {
                    "name": "B3",
                    "midi": 59,
                    "time": 80.7,
                    "velocity": 0.7244094488188977,
                    "duration": 0.29375000000000284
                },
                {
                    "name": "F4",
                    "midi": 65,
                    "time": 80.7,
                    "velocity": 0.7244094488188977,
                    "duration": 0.29375000000000284
                },
                {
                    "name": "B3",
                    "midi": 59,
                    "time": 81,
                    "velocity": 0.7244094488188977,
                    "duration": 0.29375000000000284
                },
                {
                    "name": "F4",
                    "midi": 65,
                    "time": 81,
                    "velocity": 0.7244094488188977,
                    "duration": 0.29375000000000284
                },
                {
                    "name": "G3",
                    "midi": 55,
                    "time": 81.60000000000001,
                    "velocity": 0.7244094488188977,
                    "duration": 0.29375000000000284
                },
                {
                    "name": "G3",
                    "midi": 55,
                    "time": 81.9,
                    "velocity": 0.7244094488188977,
                    "duration": 0.29375000000000284
                },
                {
                    "name": "C4",
                    "midi": 60,
                    "time": 82.50000000000001,
                    "velocity": 0.7244094488188977,
                    "duration": 0.29375000000000284
                },
                {
                    "name": "C4",
                    "midi": 60,
                    "time": 82.80000000000001,
                    "velocity": 0.7244094488188977,
                    "duration": 0.29375000000000284
                },
                {
                    "name": "B3",
                    "midi": 59,
                    "time": 83.10000000000001,
                    "velocity": 0.7244094488188977,
                    "duration": 0.5999999999999943
                },
                {
                    "name": "G4",
                    "midi": 67,
                    "time": 83.10000000000001,
                    "velocity": 0.7244094488188977,
                    "duration": 0.5999999999999943
                },
                {
                    "name": "B3",
                    "midi": 59,
                    "time": 84,
                    "velocity": 0.7244094488188977,
                    "duration": 0.9000000000000057
                },
                {
                    "name": "D4",
                    "midi": 62,
                    "time": 84,
                    "velocity": 0.7244094488188977,
                    "duration": 0.9000000000000057
                },
                {
                    "name": "C4",
                    "midi": 60,
                    "time": 84.9,
                    "velocity": 0.7244094488188977,
                    "duration": 0.29375000000000284
                },
                {
                    "name": "E4",
                    "midi": 64,
                    "time": 84.9,
                    "velocity": 0.7244094488188977,
                    "duration": 0.29375000000000284
                },
                {
                    "name": "C4",
                    "midi": 60,
                    "time": 85.2,
                    "velocity": 0.7244094488188977,
                    "duration": 0.29375000000000284
                },
                {
                    "name": "E4",
                    "midi": 64,
                    "time": 85.2,
                    "velocity": 0.7244094488188977,
                    "duration": 0.29375000000000284
                },
                {
                    "name": "D4",
                    "midi": 62,
                    "time": 85.5,
                    "velocity": 0.7244094488188977,
                    "duration": 0.29375000000000284
                },
                {
                    "name": "B3",
                    "midi": 59,
                    "time": 86.10000000000001,
                    "velocity": 0.7244094488188977,
                    "duration": 0.29375000000000284
                },
                {
                    "name": "C4",
                    "midi": 60,
                    "time": 86.4,
                    "velocity": 0.7244094488188977,
                    "duration": 0.29375000000000284
                },
                {
                    "name": "B3",
                    "midi": 59,
                    "time": 87.00000000000001,
                    "velocity": 0.7244094488188977,
                    "duration": 0.29375000000000284
                },
                {
                    "name": "D4",
                    "midi": 62,
                    "time": 87.00000000000001,
                    "velocity": 0.7244094488188977,
                    "duration": 0.29375000000000284
                },
                {
                    "name": "B3",
                    "midi": 59,
                    "time": 87.30000000000001,
                    "velocity": 0.7244094488188977,
                    "duration": 0.29375000000000284
                },
                {
                    "name": "D4",
                    "midi": 62,
                    "time": 87.30000000000001,
                    "velocity": 0.7244094488188977,
                    "duration": 0.29375000000000284
                },
                {
                    "name": "B3",
                    "midi": 59,
                    "time": 87.90000000000002,
                    "velocity": 0.7244094488188977,
                    "duration": 0.29375000000000284
                },
                {
                    "name": "B3",
                    "midi": 59,
                    "time": 88.20000000000002,
                    "velocity": 0.7244094488188977,
                    "duration": 0.29375000000000284
                },
                {
                    "name": "C4",
                    "midi": 60,
                    "time": 88.50000000000001,
                    "velocity": 0.7244094488188977,
                    "duration": 0.09999999999999432
                },
                {
                    "name": "D#4",
                    "midi": 63,
                    "time": 88.50000000000001,
                    "velocity": 0.7244094488188977,
                    "duration": 0.09999999999999432
                },
                {
                    "name": "B3",
                    "midi": 59,
                    "time": 89.4,
                    "velocity": 0.7244094488188977,
                    "duration": 0.09999999999999432
                },
                {
                    "name": "D4",
                    "midi": 62,
                    "time": 89.4,
                    "velocity": 0.7244094488188977,
                    "duration": 0.09999999999999432
                },
                {
                    "name": "D#4",
                    "midi": 63,
                    "time": 90.3,
                    "velocity": 0.5905511811023622,
                    "duration": 0.9000000000000057
                },
                {
                    "name": "D#4",
                    "midi": 63,
                    "time": 91.2,
                    "velocity": 0.3543307086614173,
                    "duration": 0.5
                },
                {
                    "name": "D#4",
                    "midi": 63,
                    "time": 91.8,
                    "velocity": 0.3543307086614173,
                    "duration": 0.29999999999999716
                },
                {
                    "name": "C4",
                    "midi": 60,
                    "time": 92.1,
                    "velocity": 0.3543307086614173,
                    "duration": 0.29999999999999716
                },
                {
                    "name": "C4",
                    "midi": 60,
                    "time": 92.39999999999999,
                    "velocity": 0.3543307086614173,
                    "duration": 0.29999999999999716
                },
                {
                    "name": "C4",
                    "midi": 60,
                    "time": 92.69999999999999,
                    "velocity": 0.3543307086614173,
                    "duration": 0.29999999999999716
                },
                {
                    "name": "C4",
                    "midi": 60,
                    "time": 92.99999999999999,
                    "velocity": 0.3543307086614173,
                    "duration": 0.29999999999999716
                },
                {
                    "name": "C4",
                    "midi": 60,
                    "time": 93.29999999999998,
                    "velocity": 0.3543307086614173,
                    "duration": 0.29999999999999716
                },
                {
                    "name": "C4",
                    "midi": 60,
                    "time": 93.59999999999998,
                    "velocity": 0.3543307086614173,
                    "duration": 0.29999999999999716
                },
                {
                    "name": "D#4",
                    "midi": 63,
                    "time": 94.19999999999997,
                    "velocity": 0.3543307086614173,
                    "duration": 0.29999999999999716
                },
                {
                    "name": "D#4",
                    "midi": 63,
                    "time": 94.49999999999997,
                    "velocity": 0.3543307086614173,
                    "duration": 0.29999999999999716
                },
                {
                    "name": "D#4",
                    "midi": 63,
                    "time": 94.79999999999997,
                    "velocity": 0.3543307086614173,
                    "duration": 0.29999999999999716
                },
                {
                    "name": "D#4",
                    "midi": 63,
                    "time": 95.09999999999997,
                    "velocity": 0.3543307086614173,
                    "duration": 0.29999999999999716
                },
                {
                    "name": "D#4",
                    "midi": 63,
                    "time": 95.39999999999996,
                    "velocity": 0.3543307086614173,
                    "duration": 0.29999999999999716
                },
                {
                    "name": "G4",
                    "midi": 67,
                    "time": 95.99999999999996,
                    "velocity": 0.3543307086614173,
                    "duration": 0.29999999999999716
                },
                {
                    "name": "G4",
                    "midi": 67,
                    "time": 96.29999999999995,
                    "velocity": 0.3543307086614173,
                    "duration": 0.29999999999999716
                },
                {
                    "name": "G4",
                    "midi": 67,
                    "time": 96.59999999999995,
                    "velocity": 0.3543307086614173,
                    "duration": 0.29999999999999716
                },
                {
                    "name": "G4",
                    "midi": 67,
                    "time": 96.89999999999995,
                    "velocity": 0.3543307086614173,
                    "duration": 0.29999999999999716
                },
                {
                    "name": "G4",
                    "midi": 67,
                    "time": 97.19999999999995,
                    "velocity": 0.3543307086614173,
                    "duration": 0.29999999999999716
                },
                {
                    "name": "G4",
                    "midi": 67,
                    "time": 97.79999999999994,
                    "velocity": 0.3543307086614173,
                    "duration": 0.29999999999999716
                },
                {
                    "name": "G4",
                    "midi": 67,
                    "time": 98.09999999999994,
                    "velocity": 0.3543307086614173,
                    "duration": 0.29999999999999716
                },
                {
                    "name": "G4",
                    "midi": 67,
                    "time": 98.39999999999993,
                    "velocity": 0.3543307086614173,
                    "duration": 0.29999999999999716
                },
                {
                    "name": "G4",
                    "midi": 67,
                    "time": 98.69999999999993,
                    "velocity": 0.3543307086614173,
                    "duration": 0.29999999999999716
                },
                {
                    "name": "G4",
                    "midi": 67,
                    "time": 98.99999999999993,
                    "velocity": 0.3543307086614173,
                    "duration": 0.29999999999999716
                },
                {
                    "name": "D#4",
                    "midi": 63,
                    "time": 99.59999999999992,
                    "velocity": 0.3543307086614173,
                    "duration": 0.29999999999999716
                },
                {
                    "name": "D#4",
                    "midi": 63,
                    "time": 99.89999999999992,
                    "velocity": 0.3543307086614173,
                    "duration": 0.29999999999999716
                },
                {
                    "name": "G#4",
                    "midi": 68,
                    "time": 100.19999999999992,
                    "velocity": 0.3543307086614173,
                    "duration": 0.29999999999999716
                },
                {
                    "name": "G#4",
                    "midi": 68,
                    "time": 100.49999999999991,
                    "velocity": 0.3543307086614173,
                    "duration": 0.29999999999999716
                },
                {
                    "name": "G#4",
                    "midi": 68,
                    "time": 100.79999999999991,
                    "velocity": 0.3543307086614173,
                    "duration": 0.29999999999999716
                },
                {
                    "name": "E4",
                    "midi": 64,
                    "time": 101.3999999999999,
                    "velocity": 0.3543307086614173,
                    "duration": 0.29999999999999716
                },
                {
                    "name": "E4",
                    "midi": 64,
                    "time": 101.6999999999999,
                    "velocity": 0.3543307086614173,
                    "duration": 0.29999999999999716
                },
                {
                    "name": "G4",
                    "midi": 67,
                    "time": 101.9999999999999,
                    "velocity": 0.3543307086614173,
                    "duration": 0.29999999999999716
                },
                {
                    "name": "G4",
                    "midi": 67,
                    "time": 102.2999999999999,
                    "velocity": 0.3543307086614173,
                    "duration": 0.29999999999999716
                },
                {
                    "name": "G4",
                    "midi": 67,
                    "time": 102.5999999999999,
                    "velocity": 0.3543307086614173,
                    "duration": 0.29999999999999716
                },
                {
                    "name": "C#4",
                    "midi": 61,
                    "time": 103.19999999999989,
                    "velocity": 0.3543307086614173,
                    "duration": 0.29999999999999716
                },
                {
                    "name": "C#4",
                    "midi": 61,
                    "time": 103.49999999999989,
                    "velocity": 0.3543307086614173,
                    "duration": 0.29999999999999716
                },
                {
                    "name": "C#4",
                    "midi": 61,
                    "time": 103.79999999999988,
                    "velocity": 0.3543307086614173,
                    "duration": 0.29999999999999716
                },
                {
                    "name": "C#4",
                    "midi": 61,
                    "time": 104.09999999999988,
                    "velocity": 0.3543307086614173,
                    "duration": 0.29999999999999716
                },
                {
                    "name": "C#4",
                    "midi": 61,
                    "time": 104.39999999999988,
                    "velocity": 0.3543307086614173,
                    "duration": 0.29999999999999716
                },
                {
                    "name": "D#4",
                    "midi": 63,
                    "time": 104.99999999999987,
                    "velocity": 0.3543307086614173,
                    "duration": 0.29999999999999716
                },
                {
                    "name": "D#4",
                    "midi": 63,
                    "time": 105.29999999999987,
                    "velocity": 0.3543307086614173,
                    "duration": 0.29999999999999716
                },
                {
                    "name": "D#4",
                    "midi": 63,
                    "time": 105.59999999999987,
                    "velocity": 0.3543307086614173,
                    "duration": 0.29999999999999716
                },
                {
                    "name": "D#4",
                    "midi": 63,
                    "time": 105.89999999999986,
                    "velocity": 0.3543307086614173,
                    "duration": 0.29999999999999716
                },
                {
                    "name": "D#4",
                    "midi": 63,
                    "time": 106.19999999999986,
                    "velocity": 0.3543307086614173,
                    "duration": 0.29999999999999716
                },
                {
                    "name": "C#4",
                    "midi": 61,
                    "time": 106.79999999999986,
                    "velocity": 0.3543307086614173,
                    "duration": 0.29999999999999716
                },
                {
                    "name": "C#4",
                    "midi": 61,
                    "time": 107.09999999999985,
                    "velocity": 0.3543307086614173,
                    "duration": 0.29999999999999716
                },
                {
                    "name": "C#4",
                    "midi": 61,
                    "time": 107.39999999999985,
                    "velocity": 0.3543307086614173,
                    "duration": 0.29999999999999716
                },
                {
                    "name": "C#4",
                    "midi": 61,
                    "time": 107.69999999999985,
                    "velocity": 0.3543307086614173,
                    "duration": 0.29999999999999716
                },
                {
                    "name": "C#4",
                    "midi": 61,
                    "time": 107.99999999999984,
                    "velocity": 0.3543307086614173,
                    "duration": 0.29999999999999716
                },
                {
                    "name": "F4",
                    "midi": 65,
                    "time": 108.59999999999984,
                    "velocity": 0.3543307086614173,
                    "duration": 0.29999999999999716
                },
                {
                    "name": "F4",
                    "midi": 65,
                    "time": 108.89999999999984,
                    "velocity": 0.3543307086614173,
                    "duration": 0.29999999999999716
                },
                {
                    "name": "A#4",
                    "midi": 70,
                    "time": 109.19999999999983,
                    "velocity": 0.3543307086614173,
                    "duration": 0.29999999999999716
                },
                {
                    "name": "A#4",
                    "midi": 70,
                    "time": 109.49999999999983,
                    "velocity": 0.3543307086614173,
                    "duration": 0.29999999999999716
                },
                {
                    "name": "A#4",
                    "midi": 70,
                    "time": 109.79999999999983,
                    "velocity": 0.3543307086614173,
                    "duration": 0.29999999999999716
                },
                {
                    "name": "A#4",
                    "midi": 70,
                    "time": 110.39999999999982,
                    "velocity": 0.3543307086614173,
                    "duration": 0.29999999999999716
                },
                {
                    "name": "A#4",
                    "midi": 70,
                    "time": 110.69999999999982,
                    "velocity": 0.3543307086614173,
                    "duration": 0.29999999999999716
                },
                {
                    "name": "A#4",
                    "midi": 70,
                    "time": 110.99999999999982,
                    "velocity": 0.3543307086614173,
                    "duration": 0.29999999999999716
                },
                {
                    "name": "A#4",
                    "midi": 70,
                    "time": 111.29999999999981,
                    "velocity": 0.3543307086614173,
                    "duration": 0.29999999999999716
                },
                {
                    "name": "A#4",
                    "midi": 70,
                    "time": 111.59999999999981,
                    "velocity": 0.3543307086614173,
                    "duration": 0.29999999999999716
                },
                {
                    "name": "G#4",
                    "midi": 68,
                    "time": 112.1999999999998,
                    "velocity": 0.3543307086614173,
                    "duration": 0.29999999999999716
                },
                {
                    "name": "G#4",
                    "midi": 68,
                    "time": 112.4999999999998,
                    "velocity": 0.3543307086614173,
                    "duration": 0.29999999999999716
                },
                {
                    "name": "D#4",
                    "midi": 63,
                    "time": 112.7999999999998,
                    "velocity": 0.3543307086614173,
                    "duration": 0.29999999999999716
                },
                {
                    "name": "D#4",
                    "midi": 63,
                    "time": 113.0999999999998,
                    "velocity": 0.3543307086614173,
                    "duration": 0.29999999999999716
                },
                {
                    "name": "D#4",
                    "midi": 63,
                    "time": 113.39999999999979,
                    "velocity": 0.3543307086614173,
                    "duration": 0.29999999999999716
                },
                {
                    "name": "D#4",
                    "midi": 63,
                    "time": 113.69999999999979,
                    "velocity": 0.3543307086614173,
                    "duration": 0.9000000000000057
                },
                {
                    "name": "D4",
                    "midi": 62,
                    "time": 115.4999999999998,
                    "velocity": 0.3543307086614173,
                    "duration": 0.9000000000000057
                },
                {
                    "name": "A#3",
                    "midi": 58,
                    "time": 117.29999999999981,
                    "velocity": 0.3543307086614173,
                    "duration": 2.09375
                },
                {
                    "name": "G#5",
                    "midi": 80,
                    "time": 120.8999999999998,
                    "velocity": 0.5905511811023622,
                    "duration": 0.09999999999999432
                },
                {
                    "name": "G#5",
                    "midi": 80,
                    "time": 121.1999999999998,
                    "velocity": 0.5905511811023622,
                    "duration": 0.09999999999999432
                },
                {
                    "name": "G#5",
                    "midi": 80,
                    "time": 121.3499999999998,
                    "velocity": 0.5905511811023622,
                    "duration": 0.09999999999999432
                },
                {
                    "name": "G#5",
                    "midi": 80,
                    "time": 121.49999999999979,
                    "velocity": 0.5905511811023622,
                    "duration": 0.09999999999999432
                },
                {
                    "name": "G#5",
                    "midi": 80,
                    "time": 121.79999999999978,
                    "velocity": 0.5905511811023622,
                    "duration": 0.09999999999999432
                },
                {
                    "name": "G#5",
                    "midi": 80,
                    "time": 122.09999999999978,
                    "velocity": 0.5905511811023622,
                    "duration": 0.09999999999999432
                },
                {
                    "name": "G5",
                    "midi": 79,
                    "time": 122.39999999999978,
                    "velocity": 0.5905511811023622,
                    "duration": 0.09999999999999432
                },
                {
                    "name": "G#5",
                    "midi": 80,
                    "time": 122.69999999999978,
                    "velocity": 0.5905511811023622,
                    "duration": 0.09999999999999432
                },
                {
                    "name": "G#5",
                    "midi": 80,
                    "time": 122.99999999999977,
                    "velocity": 0.5905511811023622,
                    "duration": 0.09999999999999432
                },
                {
                    "name": "G#5",
                    "midi": 80,
                    "time": 123.14999999999976,
                    "velocity": 0.5905511811023622,
                    "duration": 0.09999999999999432
                },
                {
                    "name": "G#5",
                    "midi": 80,
                    "time": 123.29999999999976,
                    "velocity": 0.5905511811023622,
                    "duration": 0.09999999999999432
                },
                {
                    "name": "G#5",
                    "midi": 80,
                    "time": 123.59999999999975,
                    "velocity": 0.5905511811023622,
                    "duration": 0.09999999999999432
                },
                {
                    "name": "G#5",
                    "midi": 80,
                    "time": 123.89999999999975,
                    "velocity": 0.5905511811023622,
                    "duration": 0.09999999999999432
                },
                {
                    "name": "G#5",
                    "midi": 80,
                    "time": 124.19999999999975,
                    "velocity": 0.5905511811023622,
                    "duration": 0.09999999999999432
                },
                {
                    "name": "G5",
                    "midi": 79,
                    "time": 124.49999999999974,
                    "velocity": 0.5905511811023622,
                    "duration": 0.09999999999999432
                },
                {
                    "name": "G5",
                    "midi": 79,
                    "time": 124.79999999999974,
                    "velocity": 0.5905511811023622,
                    "duration": 0.09999999999999432
                },
                {
                    "name": "G5",
                    "midi": 79,
                    "time": 124.94999999999973,
                    "velocity": 0.5905511811023622,
                    "duration": 0.09999999999999432
                },
                {
                    "name": "G5",
                    "midi": 79,
                    "time": 125.09999999999972,
                    "velocity": 0.5905511811023622,
                    "duration": 0.09999999999999432
                },
                {
                    "name": "G5",
                    "midi": 79,
                    "time": 125.39999999999972,
                    "velocity": 0.5905511811023622,
                    "duration": 0.09999999999999432
                },
                {
                    "name": "G5",
                    "midi": 79,
                    "time": 125.69999999999972,
                    "velocity": 0.5905511811023622,
                    "duration": 0.09999999999999432
                },
                {
                    "name": "G5",
                    "midi": 79,
                    "time": 125.99999999999972,
                    "velocity": 0.5905511811023622,
                    "duration": 0.09999999999999432
                },
                {
                    "name": "G5",
                    "midi": 79,
                    "time": 126.29999999999971,
                    "velocity": 0.5905511811023622,
                    "duration": 0.09999999999999432
                },
                {
                    "name": "G5",
                    "midi": 79,
                    "time": 126.59999999999971,
                    "velocity": 0.5905511811023622,
                    "duration": 0.09999999999999432
                },
                {
                    "name": "G5",
                    "midi": 79,
                    "time": 126.7499999999997,
                    "velocity": 0.5905511811023622,
                    "duration": 0.09999999999999432
                },
                {
                    "name": "G5",
                    "midi": 79,
                    "time": 126.8999999999997,
                    "velocity": 0.5905511811023622,
                    "duration": 0.09999999999999432
                },
                {
                    "name": "G5",
                    "midi": 79,
                    "time": 127.19999999999969,
                    "velocity": 0.5905511811023622,
                    "duration": 0.09999999999999432
                },
                {
                    "name": "G5",
                    "midi": 79,
                    "time": 127.49999999999969,
                    "velocity": 0.5905511811023622,
                    "duration": 0.09999999999999432
                },
                {
                    "name": "G5",
                    "midi": 79,
                    "time": 127.79999999999968,
                    "velocity": 0.5905511811023622,
                    "duration": 0.09999999999999432
                },
                {
                    "name": "G#5",
                    "midi": 80,
                    "time": 128.09999999999968,
                    "velocity": 0.5905511811023622,
                    "duration": 0.09999999999999432
                },
                {
                    "name": "G#5",
                    "midi": 80,
                    "time": 128.39999999999966,
                    "velocity": 0.5905511811023622,
                    "duration": 0.09999999999999432
                },
                {
                    "name": "G#5",
                    "midi": 80,
                    "time": 128.54999999999967,
                    "velocity": 0.5905511811023622,
                    "duration": 0.09999999999999432
                },
                {
                    "name": "G#5",
                    "midi": 80,
                    "time": 128.69999999999968,
                    "velocity": 0.5905511811023622,
                    "duration": 0.09999999999999432
                },
                {
                    "name": "G#5",
                    "midi": 80,
                    "time": 128.99999999999966,
                    "velocity": 0.5905511811023622,
                    "duration": 0.09999999999999432
                },
                {
                    "name": "G#5",
                    "midi": 80,
                    "time": 129.29999999999964,
                    "velocity": 0.5905511811023622,
                    "duration": 0.09999999999999432
                },
                {
                    "name": "G#5",
                    "midi": 80,
                    "time": 129.59999999999962,
                    "velocity": 0.5905511811023622,
                    "duration": 0.09999999999999432
                },
                {
                    "name": "A#5",
                    "midi": 82,
                    "time": 129.8999999999996,
                    "velocity": 0.5905511811023622,
                    "duration": 0.09999999999999432
                },
                {
                    "name": "A#5",
                    "midi": 82,
                    "time": 130.1999999999996,
                    "velocity": 0.5905511811023622,
                    "duration": 0.09999999999999432
                },
                {
                    "name": "A#5",
                    "midi": 82,
                    "time": 130.3499999999996,
                    "velocity": 0.5905511811023622,
                    "duration": 0.09999999999999432
                },
                {
                    "name": "A#5",
                    "midi": 82,
                    "time": 130.4999999999996,
                    "velocity": 0.5905511811023622,
                    "duration": 0.09999999999999432
                },
                {
                    "name": "A#5",
                    "midi": 82,
                    "time": 130.79999999999959,
                    "velocity": 0.5905511811023622,
                    "duration": 0.09999999999999432
                },
                {
                    "name": "A#5",
                    "midi": 82,
                    "time": 131.09999999999957,
                    "velocity": 0.5905511811023622,
                    "duration": 0.09999999999999432
                },
                {
                    "name": "A#5",
                    "midi": 82,
                    "time": 131.39999999999955,
                    "velocity": 0.5905511811023622,
                    "duration": 0.09999999999999432
                },
                {
                    "name": "A#5",
                    "midi": 82,
                    "time": 131.69999999999953,
                    "velocity": 0.5905511811023622,
                    "duration": 0.09999999999999432
                },
                {
                    "name": "A#5",
                    "midi": 82,
                    "time": 131.99999999999952,
                    "velocity": 0.5905511811023622,
                    "duration": 0.09999999999999432
                },
                {
                    "name": "A#5",
                    "midi": 82,
                    "time": 132.14999999999952,
                    "velocity": 0.5905511811023622,
                    "duration": 0.09999999999999432
                },
                {
                    "name": "A#5",
                    "midi": 82,
                    "time": 132.29999999999953,
                    "velocity": 0.5905511811023622,
                    "duration": 0.09999999999999432
                },
                {
                    "name": "A#5",
                    "midi": 82,
                    "time": 132.5999999999995,
                    "velocity": 0.5905511811023622,
                    "duration": 0.09999999999999432
                },
                {
                    "name": "A#5",
                    "midi": 82,
                    "time": 132.8999999999995,
                    "velocity": 0.5905511811023622,
                    "duration": 0.09999999999999432
                },
                {
                    "name": "A#5",
                    "midi": 82,
                    "time": 133.19999999999948,
                    "velocity": 0.5905511811023622,
                    "duration": 0.09999999999999432
                },
                {
                    "name": "A5",
                    "midi": 81,
                    "time": 133.49999999999946,
                    "velocity": 0.5905511811023622,
                    "duration": 0.09999999999999432
                },
                {
                    "name": "A5",
                    "midi": 81,
                    "time": 133.79999999999944,
                    "velocity": 0.5905511811023622,
                    "duration": 0.09999999999999432
                },
                {
                    "name": "A5",
                    "midi": 81,
                    "time": 133.94999999999945,
                    "velocity": 0.5905511811023622,
                    "duration": 0.09999999999999432
                },
                {
                    "name": "A5",
                    "midi": 81,
                    "time": 134.09999999999945,
                    "velocity": 0.5905511811023622,
                    "duration": 0.09999999999999432
                },
                {
                    "name": "A5",
                    "midi": 81,
                    "time": 134.39999999999944,
                    "velocity": 0.5905511811023622,
                    "duration": 0.09999999999999432
                },
                {
                    "name": "A5",
                    "midi": 81,
                    "time": 134.69999999999942,
                    "velocity": 0.5905511811023622,
                    "duration": 0.09999999999999432
                },
                {
                    "name": "A5",
                    "midi": 81,
                    "time": 134.9999999999994,
                    "velocity": 0.5905511811023622,
                    "duration": 0.09999999999999432
                },
                {
                    "name": "A#5",
                    "midi": 82,
                    "time": 135.2999999999994,
                    "velocity": 0.5905511811023622,
                    "duration": 0.09999999999999432
                },
                {
                    "name": "A#5",
                    "midi": 82,
                    "time": 135.59999999999937,
                    "velocity": 0.5905511811023622,
                    "duration": 0.09999999999999432
                },
                {
                    "name": "A#5",
                    "midi": 82,
                    "time": 135.74999999999937,
                    "velocity": 0.5905511811023622,
                    "duration": 0.09999999999999432
                },
                {
                    "name": "A#5",
                    "midi": 82,
                    "time": 135.89999999999938,
                    "velocity": 0.5905511811023622,
                    "duration": 0.09999999999999432
                },
                {
                    "name": "A#5",
                    "midi": 82,
                    "time": 136.19999999999936,
                    "velocity": 0.5905511811023622,
                    "duration": 0.09999999999999432
                },
                {
                    "name": "A#5",
                    "midi": 82,
                    "time": 136.49999999999935,
                    "velocity": 0.5905511811023622,
                    "duration": 0.09999999999999432
                },
                {
                    "name": "A5",
                    "midi": 81,
                    "time": 136.79999999999933,
                    "velocity": 0.5905511811023622,
                    "duration": 0.09999999999999432
                },
                {
                    "name": "A#5",
                    "midi": 82,
                    "time": 137.0999999999993,
                    "velocity": 0.5905511811023622,
                    "duration": 0.09999999999999432
                },
                {
                    "name": "A#5",
                    "midi": 82,
                    "time": 137.3999999999993,
                    "velocity": 0.5905511811023622,
                    "duration": 0.09999999999999432
                },
                {
                    "name": "A#5",
                    "midi": 82,
                    "time": 137.5499999999993,
                    "velocity": 0.5905511811023622,
                    "duration": 0.09999999999999432
                },
                {
                    "name": "A#5",
                    "midi": 82,
                    "time": 137.6999999999993,
                    "velocity": 0.5905511811023622,
                    "duration": 0.09999999999999432
                },
                {
                    "name": "A#5",
                    "midi": 82,
                    "time": 137.9999999999993,
                    "velocity": 0.5905511811023622,
                    "duration": 0.09999999999999432
                },
                {
                    "name": "A#5",
                    "midi": 82,
                    "time": 138.29999999999927,
                    "velocity": 0.5905511811023622,
                    "duration": 0.09999999999999432
                },
                {
                    "name": "A#5",
                    "midi": 82,
                    "time": 138.59999999999926,
                    "velocity": 0.5905511811023622,
                    "duration": 0.09999999999999432
                },
                {
                    "name": "A5",
                    "midi": 81,
                    "time": 138.89999999999924,
                    "velocity": 0.5905511811023622,
                    "duration": 0.09999999999999432
                },
                {
                    "name": "A5",
                    "midi": 81,
                    "time": 139.19999999999922,
                    "velocity": 0.5905511811023622,
                    "duration": 0.09999999999999432
                },
                {
                    "name": "A5",
                    "midi": 81,
                    "time": 139.34999999999923,
                    "velocity": 0.5905511811023622,
                    "duration": 0.09999999999999432
                },
                {
                    "name": "A5",
                    "midi": 81,
                    "time": 139.49999999999923,
                    "velocity": 0.5905511811023622,
                    "duration": 0.09999999999999432
                },
                {
                    "name": "A5",
                    "midi": 81,
                    "time": 139.79999999999922,
                    "velocity": 0.5905511811023622,
                    "duration": 0.09999999999999432
                },
                {
                    "name": "A5",
                    "midi": 81,
                    "time": 140.0999999999992,
                    "velocity": 0.5905511811023622,
                    "duration": 0.09999999999999432
                },
                {
                    "name": "A5",
                    "midi": 81,
                    "time": 140.39999999999918,
                    "velocity": 0.5905511811023622,
                    "duration": 0.09999999999999432
                },
                {
                    "name": "A#5",
                    "midi": 82,
                    "time": 140.69999999999916,
                    "velocity": 0.5905511811023622,
                    "duration": 0.09999999999999432
                },
                {
                    "name": "A#5",
                    "midi": 82,
                    "time": 140.99999999999915,
                    "velocity": 0.5905511811023622,
                    "duration": 0.09999999999999432
                },
                {
                    "name": "A#5",
                    "midi": 82,
                    "time": 141.14999999999915,
                    "velocity": 0.5905511811023622,
                    "duration": 0.09999999999999432
                },
                {
                    "name": "A#5",
                    "midi": 82,
                    "time": 141.29999999999916,
                    "velocity": 0.5905511811023622,
                    "duration": 0.09999999999999432
                },
                {
                    "name": "A#5",
                    "midi": 82,
                    "time": 141.59999999999914,
                    "velocity": 0.5905511811023622,
                    "duration": 0.09999999999999432
                },
                {
                    "name": "A#5",
                    "midi": 82,
                    "time": 141.89999999999912,
                    "velocity": 0.5905511811023622,
                    "duration": 0.09999999999999432
                },
                {
                    "name": "A#5",
                    "midi": 82,
                    "time": 142.1999999999991,
                    "velocity": 0.5905511811023622,
                    "duration": 0.09999999999999432
                },
                {
                    "name": "A#5",
                    "midi": 82,
                    "time": 142.4999999999991,
                    "velocity": 0.5905511811023622,
                    "duration": 0.09999999999999432
                },
                {
                    "name": "A#5",
                    "midi": 82,
                    "time": 142.79999999999907,
                    "velocity": 0.5905511811023622,
                    "duration": 0.09999999999999432
                },
                {
                    "name": "A#5",
                    "midi": 82,
                    "time": 142.94999999999908,
                    "velocity": 0.5905511811023622,
                    "duration": 0.09999999999999432
                },
                {
                    "name": "A#5",
                    "midi": 82,
                    "time": 143.09999999999908,
                    "velocity": 0.5905511811023622,
                    "duration": 0.09999999999999432
                },
                {
                    "name": "A#5",
                    "midi": 82,
                    "time": 143.39999999999907,
                    "velocity": 0.5905511811023622,
                    "duration": 0.09999999999999432
                },
                {
                    "name": "A#5",
                    "midi": 82,
                    "time": 143.69999999999905,
                    "velocity": 0.5905511811023622,
                    "duration": 0.09999999999999432
                },
                {
                    "name": "A#5",
                    "midi": 82,
                    "time": 143.99999999999903,
                    "velocity": 0.5905511811023622,
                    "duration": 0.09999999999999432
                },
                {
                    "name": "G#5",
                    "midi": 80,
                    "time": 144.29999999999902,
                    "velocity": 0.5905511811023622,
                    "duration": 0.09999999999999432
                },
                {
                    "name": "G#5",
                    "midi": 80,
                    "time": 144.599999999999,
                    "velocity": 0.5905511811023622,
                    "duration": 0.09999999999999432
                },
                {
                    "name": "G#5",
                    "midi": 80,
                    "time": 144.749999999999,
                    "velocity": 0.5905511811023622,
                    "duration": 0.09999999999999432
                },
                {
                    "name": "G#5",
                    "midi": 80,
                    "time": 144.899999999999,
                    "velocity": 0.5905511811023622,
                    "duration": 0.09999999999999432
                },
                {
                    "name": "G#5",
                    "midi": 80,
                    "time": 145.199999999999,
                    "velocity": 0.5905511811023622,
                    "duration": 0.09999999999999432
                },
                {
                    "name": "G#5",
                    "midi": 80,
                    "time": 145.49999999999898,
                    "velocity": 0.5905511811023622,
                    "duration": 0.09999999999999432
                },
                {
                    "name": "G#5",
                    "midi": 80,
                    "time": 145.79999999999896,
                    "velocity": 0.5905511811023622,
                    "duration": 0.09999999999999432
                },
                {
                    "name": "G5",
                    "midi": 79,
                    "time": 146.09999999999894,
                    "velocity": 0.5905511811023622,
                    "duration": 0.09999999999999432
                },
                {
                    "name": "G5",
                    "midi": 79,
                    "time": 146.39999999999893,
                    "velocity": 0.5905511811023622,
                    "duration": 0.09999999999999432
                },
                {
                    "name": "G5",
                    "midi": 79,
                    "time": 146.54999999999893,
                    "velocity": 0.5905511811023622,
                    "duration": 0.09999999999999432
                },
                {
                    "name": "G5",
                    "midi": 79,
                    "time": 146.69999999999894,
                    "velocity": 0.5905511811023622,
                    "duration": 0.09999999999999432
                },
                {
                    "name": "G5",
                    "midi": 79,
                    "time": 146.99999999999892,
                    "velocity": 0.5905511811023622,
                    "duration": 0.09999999999999432
                },
                {
                    "name": "G5",
                    "midi": 79,
                    "time": 147.2999999999989,
                    "velocity": 0.5905511811023622,
                    "duration": 0.09999999999999432
                },
                {
                    "name": "G5",
                    "midi": 79,
                    "time": 147.5999999999989,
                    "velocity": 0.5905511811023622,
                    "duration": 0.09999999999999432
                },
                {
                    "name": "G#5",
                    "midi": 80,
                    "time": 147.89999999999887,
                    "velocity": 0.5905511811023622,
                    "duration": 0.09999999999999432
                },
                {
                    "name": "G#5",
                    "midi": 80,
                    "time": 148.19999999999885,
                    "velocity": 0.5905511811023622,
                    "duration": 0.09999999999999432
                },
                {
                    "name": "G#5",
                    "midi": 80,
                    "time": 148.34999999999886,
                    "velocity": 0.5905511811023622,
                    "duration": 0.09999999999999432
                },
                {
                    "name": "G#5",
                    "midi": 80,
                    "time": 148.49999999999886,
                    "velocity": 0.5905511811023622,
                    "duration": 0.09999999999999432
                },
                {
                    "name": "G#5",
                    "midi": 80,
                    "time": 148.79999999999885,
                    "velocity": 0.5905511811023622,
                    "duration": 0.09999999999999432
                },
                {
                    "name": "G#5",
                    "midi": 80,
                    "time": 149.09999999999883,
                    "velocity": 0.5905511811023622,
                    "duration": 0.09999999999999432
                },
                {
                    "name": "G#5",
                    "midi": 80,
                    "time": 149.3999999999988,
                    "velocity": 0.5905511811023622,
                    "duration": 0.09999999999999432
                },
                {
                    "name": "G#5",
                    "midi": 80,
                    "time": 149.6999999999988,
                    "velocity": 0.5905511811023622,
                    "duration": 0.09999999999999432
                },
                {
                    "name": "G#5",
                    "midi": 80,
                    "time": 149.99999999999878,
                    "velocity": 0.5905511811023622,
                    "duration": 0.09999999999999432
                },
                {
                    "name": "G#5",
                    "midi": 80,
                    "time": 150.14999999999878,
                    "velocity": 0.5905511811023622,
                    "duration": 0.09999999999999432
                },
                {
                    "name": "G#5",
                    "midi": 80,
                    "time": 150.2999999999988,
                    "velocity": 0.5905511811023622,
                    "duration": 0.09999999999999432
                },
                {
                    "name": "G5",
                    "midi": 79,
                    "time": 150.59999999999877,
                    "velocity": 0.5905511811023622,
                    "duration": 0.09999999999999432
                },
                {
                    "name": "G5",
                    "midi": 79,
                    "time": 150.89999999999876,
                    "velocity": 0.5905511811023622,
                    "duration": 0.09999999999999432
                },
                {
                    "name": "G#5",
                    "midi": 80,
                    "time": 151.19999999999874,
                    "velocity": 0.5905511811023622,
                    "duration": 0.09999999999999432
                },
                {
                    "name": "G#5",
                    "midi": 80,
                    "time": 151.49999999999872,
                    "velocity": 0.5905511811023622,
                    "duration": 0.09999999999999432
                },
                {
                    "name": "G#5",
                    "midi": 80,
                    "time": 151.7999999999987,
                    "velocity": 0.5905511811023622,
                    "duration": 0.09999999999999432
                },
                {
                    "name": "G#5",
                    "midi": 80,
                    "time": 151.9499999999987,
                    "velocity": 0.5905511811023622,
                    "duration": 0.09999999999999432
                },
                {
                    "name": "G#5",
                    "midi": 80,
                    "time": 152.09999999999872,
                    "velocity": 0.5905511811023622,
                    "duration": 0.09999999999999432
                },
                {
                    "name": "G#5",
                    "midi": 80,
                    "time": 152.3999999999987,
                    "velocity": 0.5905511811023622,
                    "duration": 0.09999999999999432
                },
                {
                    "name": "G#5",
                    "midi": 80,
                    "time": 152.69999999999868,
                    "velocity": 0.5905511811023622,
                    "duration": 0.09999999999999432
                },
                {
                    "name": "G#5",
                    "midi": 80,
                    "time": 152.99999999999866,
                    "velocity": 0.5905511811023622,
                    "duration": 0.09999999999999432
                },
                {
                    "name": "G#5",
                    "midi": 80,
                    "time": 153.29999999999865,
                    "velocity": 0.5905511811023622,
                    "duration": 0.09999999999999432
                },
                {
                    "name": "G#5",
                    "midi": 80,
                    "time": 153.59999999999863,
                    "velocity": 0.5905511811023622,
                    "duration": 0.09999999999999432
                },
                {
                    "name": "G#5",
                    "midi": 80,
                    "time": 153.74999999999864,
                    "velocity": 0.5905511811023622,
                    "duration": 0.09999999999999432
                },
                {
                    "name": "G#5",
                    "midi": 80,
                    "time": 153.89999999999864,
                    "velocity": 0.5905511811023622,
                    "duration": 0.09999999999999432
                },
                {
                    "name": "G#5",
                    "midi": 80,
                    "time": 154.19999999999862,
                    "velocity": 0.5905511811023622,
                    "duration": 0.09999999999999432
                },
                {
                    "name": "G#5",
                    "midi": 80,
                    "time": 154.4999999999986,
                    "velocity": 0.5905511811023622,
                    "duration": 0.09999999999999432
                },
                {
                    "name": "G#5",
                    "midi": 80,
                    "time": 154.7999999999986,
                    "velocity": 0.5905511811023622,
                    "duration": 0.09999999999999432
                },
                {
                    "name": "B5",
                    "midi": 83,
                    "time": 155.09999999999857,
                    "velocity": 0.5905511811023622,
                    "duration": 0.09999999999999432
                },
                {
                    "name": "B5",
                    "midi": 83,
                    "time": 155.39999999999856,
                    "velocity": 0.5905511811023622,
                    "duration": 0.09999999999999432
                },
                {
                    "name": "B5",
                    "midi": 83,
                    "time": 155.54999999999856,
                    "velocity": 0.5905511811023622,
                    "duration": 0.09999999999999432
                },
                {
                    "name": "B5",
                    "midi": 83,
                    "time": 155.69999999999857,
                    "velocity": 0.5905511811023622,
                    "duration": 0.09999999999999432
                },
                {
                    "name": "B5",
                    "midi": 83,
                    "time": 155.99999999999855,
                    "velocity": 0.5905511811023622,
                    "duration": 0.09999999999999432
                },
                {
                    "name": "B5",
                    "midi": 83,
                    "time": 156.29999999999853,
                    "velocity": 0.5905511811023622,
                    "duration": 0.09999999999999432
                },
                {
                    "name": "B5",
                    "midi": 83,
                    "time": 156.59999999999852,
                    "velocity": 0.5905511811023622,
                    "duration": 0.09999999999999432
                },
                {
                    "name": "A#5",
                    "midi": 82,
                    "time": 156.8999999999985,
                    "velocity": 0.5905511811023622,
                    "duration": 0.09999999999999432
                },
                {
                    "name": "A#5",
                    "midi": 82,
                    "time": 157.19999999999848,
                    "velocity": 0.5905511811023622,
                    "duration": 0.09999999999999432
                },
                {
                    "name": "A#5",
                    "midi": 82,
                    "time": 157.3499999999985,
                    "velocity": 0.5905511811023622,
                    "duration": 0.09999999999999432
                },
                {
                    "name": "A#5",
                    "midi": 82,
                    "time": 157.4999999999985,
                    "velocity": 0.5905511811023622,
                    "duration": 0.09999999999999432
                },
                {
                    "name": "A#5",
                    "midi": 82,
                    "time": 157.79999999999848,
                    "velocity": 0.5905511811023622,
                    "duration": 0.09999999999999432
                },
                {
                    "name": "A#5",
                    "midi": 82,
                    "time": 158.09999999999846,
                    "velocity": 0.5905511811023622,
                    "duration": 0.09999999999999432
                },
                {
                    "name": "A#5",
                    "midi": 82,
                    "time": 158.39999999999844,
                    "velocity": 0.5905511811023622,
                    "duration": 0.09999999999999432
                },
                {
                    "name": "G#5",
                    "midi": 80,
                    "time": 158.69999999999843,
                    "velocity": 0.5905511811023622,
                    "duration": 0.09999999999999432
                },
                {
                    "name": "G#5",
                    "midi": 80,
                    "time": 158.9999999999984,
                    "velocity": 0.5905511811023622,
                    "duration": 0.09999999999999432
                },
                {
                    "name": "G#5",
                    "midi": 80,
                    "time": 159.1499999999984,
                    "velocity": 0.5905511811023622,
                    "duration": 0.09999999999999432
                },
                {
                    "name": "G#5",
                    "midi": 80,
                    "time": 159.29999999999842,
                    "velocity": 0.5905511811023622,
                    "duration": 0.09999999999999432
                },
                {
                    "name": "G#5",
                    "midi": 80,
                    "time": 159.5999999999984,
                    "velocity": 0.5905511811023622,
                    "duration": 0.09999999999999432
                },
                {
                    "name": "G#5",
                    "midi": 80,
                    "time": 159.89999999999839,
                    "velocity": 0.5905511811023622,
                    "duration": 0.09999999999999432
                },
                {
                    "name": "G#5",
                    "midi": 80,
                    "time": 160.19999999999837,
                    "velocity": 0.5905511811023622,
                    "duration": 0.09999999999999432
                },
                {
                    "name": "G5",
                    "midi": 79,
                    "time": 160.49999999999835,
                    "velocity": 0.5905511811023622,
                    "duration": 0.09999999999999432
                },
                {
                    "name": "G5",
                    "midi": 79,
                    "time": 160.79999999999833,
                    "velocity": 0.5905511811023622,
                    "duration": 0.09999999999999432
                },
                {
                    "name": "G5",
                    "midi": 79,
                    "time": 160.94999999999834,
                    "velocity": 0.5905511811023622,
                    "duration": 0.09999999999999432
                },
                {
                    "name": "G5",
                    "midi": 79,
                    "time": 161.09999999999835,
                    "velocity": 0.5905511811023622,
                    "duration": 0.09999999999999432
                },
                {
                    "name": "G5",
                    "midi": 79,
                    "time": 161.39999999999833,
                    "velocity": 0.5905511811023622,
                    "duration": 0.09999999999999432
                },
                {
                    "name": "G5",
                    "midi": 79,
                    "time": 161.6999999999983,
                    "velocity": 0.5905511811023622,
                    "duration": 0.09999999999999432
                },
                {
                    "name": "G5",
                    "midi": 79,
                    "time": 161.9999999999983,
                    "velocity": 0.5905511811023622,
                    "duration": 0.09999999999999432
                },
                {
                    "name": "G5",
                    "midi": 79,
                    "time": 162.29999999999828,
                    "velocity": 0.47244094488188976,
                    "duration": 0.5999999999999943
                },
                {
                    "name": "C4",
                    "midi": 60,
                    "time": 165.89999999999827,
                    "velocity": 0.47244094488188976,
                    "duration": 0.15000000000000568
                },
                {
                    "name": "B3",
                    "midi": 59,
                    "time": 166.04999999999828,
                    "velocity": 0.47244094488188976,
                    "duration": 0.09999999999999432
                },
                {
                    "name": "C4",
                    "midi": 60,
                    "time": 166.19999999999828,
                    "velocity": 0.47244094488188976,
                    "duration": 0.09999999999999432
                },
                {
                    "name": "D4",
                    "midi": 62,
                    "time": 166.3499999999983,
                    "velocity": 0.47244094488188976,
                    "duration": 0.09999999999999432
                },
                {
                    "name": "E4",
                    "midi": 64,
                    "time": 166.4999999999983,
                    "velocity": 0.47244094488188976,
                    "duration": 0.09999999999999432
                },
                {
                    "name": "F4",
                    "midi": 65,
                    "time": 166.6499999999983,
                    "velocity": 0.47244094488188976,
                    "duration": 0.09999999999999432
                },
                {
                    "name": "G4",
                    "midi": 67,
                    "time": 166.7999999999983,
                    "velocity": 0.47244094488188976,
                    "duration": 0.09999999999999432
                },
                {
                    "name": "G4",
                    "midi": 67,
                    "time": 167.0999999999983,
                    "velocity": 0.47244094488188976,
                    "duration": 0.09999999999999432
                },
                {
                    "name": "G4",
                    "midi": 67,
                    "time": 167.39999999999827,
                    "velocity": 0.47244094488188976,
                    "duration": 0.09999999999999432
                },
                {
                    "name": "B4",
                    "midi": 71,
                    "time": 167.69999999999825,
                    "velocity": 0.6614173228346457,
                    "duration": 0.29374999999998863
                },
                {
                    "name": "C4",
                    "midi": 60,
                    "time": 170.39999999999824,
                    "velocity": 0.3543307086614173,
                    "duration": 0.09999999999999432
                },
                {
                    "name": "C4",
                    "midi": 60,
                    "time": 170.69999999999823,
                    "velocity": 0.3543307086614173,
                    "duration": 0.09999999999999432
                },
                {
                    "name": "C4",
                    "midi": 60,
                    "time": 171.29999999999822,
                    "velocity": 0.3543307086614173,
                    "duration": 0.09999999999999432
                },
                {
                    "name": "C4",
                    "midi": 60,
                    "time": 171.5999999999982,
                    "velocity": 0.3543307086614173,
                    "duration": 0.09999999999999432
                },
                {
                    "name": "B3",
                    "midi": 59,
                    "time": 172.1999999999982,
                    "velocity": 0.3543307086614173,
                    "duration": 0.09999999999999432
                },
                {
                    "name": "B3",
                    "midi": 59,
                    "time": 172.49999999999818,
                    "velocity": 0.3543307086614173,
                    "duration": 0.09999999999999432
                },
                {
                    "name": "D4",
                    "midi": 62,
                    "time": 173.09999999999818,
                    "velocity": 0.3543307086614173,
                    "duration": 0.09999999999999432
                },
                {
                    "name": "D4",
                    "midi": 62,
                    "time": 173.39999999999816,
                    "velocity": 0.3543307086614173,
                    "duration": 0.09999999999999432
                },
                {
                    "name": "C4",
                    "midi": 60,
                    "time": 173.99999999999815,
                    "velocity": 0.3543307086614173,
                    "duration": 0.09999999999999432
                },
                {
                    "name": "C4",
                    "midi": 60,
                    "time": 174.29999999999814,
                    "velocity": 0.3543307086614173,
                    "duration": 0.09999999999999432
                },
                {
                    "name": "C4",
                    "midi": 60,
                    "time": 174.89999999999813,
                    "velocity": 0.3543307086614173,
                    "duration": 0.09999999999999432
                },
                {
                    "name": "C4",
                    "midi": 60,
                    "time": 175.1999999999981,
                    "velocity": 0.3543307086614173,
                    "duration": 0.09999999999999432
                },
                {
                    "name": "B3",
                    "midi": 59,
                    "time": 175.7999999999981,
                    "velocity": 0.3543307086614173,
                    "duration": 0.5999999999999943
                },
                {
                    "name": "D4",
                    "midi": 62,
                    "time": 175.7999999999981,
                    "velocity": 0.3543307086614173,
                    "duration": 0.5999999999999943
                },
                {
                    "name": "D4",
                    "midi": 62,
                    "time": 176.6999999999981,
                    "velocity": 0.3543307086614173,
                    "duration": 0.9000000000000057
                },
                {
                    "name": "C4",
                    "midi": 60,
                    "time": 177.59999999999812,
                    "velocity": 0.3543307086614173,
                    "duration": 0.09999999999999432
                },
                {
                    "name": "C4",
                    "midi": 60,
                    "time": 177.8999999999981,
                    "velocity": 0.3543307086614173,
                    "duration": 0.09999999999999432
                },
                {
                    "name": "C4",
                    "midi": 60,
                    "time": 178.4999999999981,
                    "velocity": 0.3543307086614173,
                    "duration": 0.09999999999999432
                },
                {
                    "name": "C4",
                    "midi": 60,
                    "time": 178.79999999999808,
                    "velocity": 0.3543307086614173,
                    "duration": 0.09999999999999432
                },
                {
                    "name": "D4",
                    "midi": 62,
                    "time": 179.39999999999807,
                    "velocity": 0.3543307086614173,
                    "duration": 0.09999999999999432
                },
                {
                    "name": "D4",
                    "midi": 62,
                    "time": 179.69999999999806,
                    "velocity": 0.3543307086614173,
                    "duration": 0.09999999999999432
                },
                {
                    "name": "D4",
                    "midi": 62,
                    "time": 180.29999999999805,
                    "velocity": 0.3543307086614173,
                    "duration": 0.09999999999999432
                },
                {
                    "name": "D4",
                    "midi": 62,
                    "time": 180.59999999999803,
                    "velocity": 0.3543307086614173,
                    "duration": 0.09999999999999432
                },
                {
                    "name": "C4",
                    "midi": 60,
                    "time": 181.19999999999803,
                    "velocity": 0.3543307086614173,
                    "duration": 0.09999999999999432
                },
                {
                    "name": "B3",
                    "midi": 59,
                    "time": 182.09999999999803,
                    "velocity": 0.3543307086614173,
                    "duration": 0.09999999999999432
                },
                {
                    "name": "C4",
                    "midi": 60,
                    "time": 182.99999999999804,
                    "velocity": 0.3543307086614173,
                    "duration": 0.5999999999999943
                },
                {
                    "name": "G3",
                    "midi": 55,
                    "time": 185.09999999999803,
                    "velocity": 0.7244094488188977,
                    "duration": 0.29374999999998863
                },
                {
                    "name": "D#4",
                    "midi": 63,
                    "time": 185.09999999999803,
                    "velocity": 0.7244094488188977,
                    "duration": 0.29374999999998863
                },
                {
                    "name": "G3",
                    "midi": 55,
                    "time": 185.39999999999802,
                    "velocity": 0.7244094488188977,
                    "duration": 0.29374999999998863
                },
                {
                    "name": "D#4",
                    "midi": 63,
                    "time": 185.39999999999802,
                    "velocity": 0.7244094488188977,
                    "duration": 0.29374999999998863
                },
                {
                    "name": "G#3",
                    "midi": 56,
                    "time": 185.999999999998,
                    "velocity": 0.7244094488188977,
                    "duration": 0.29374999999998863
                },
                {
                    "name": "F4",
                    "midi": 65,
                    "time": 185.999999999998,
                    "velocity": 0.7244094488188977,
                    "duration": 0.29374999999998863
                },
                {
                    "name": "G#3",
                    "midi": 56,
                    "time": 186.299999999998,
                    "velocity": 0.7244094488188977,
                    "duration": 0.29374999999998863
                },
                {
                    "name": "F#4",
                    "midi": 66,
                    "time": 186.299999999998,
                    "velocity": 0.7244094488188977,
                    "duration": 0.29374999999998863
                },
                {
                    "name": "B3",
                    "midi": 59,
                    "time": 186.899999999998,
                    "velocity": 0.7244094488188977,
                    "duration": 0.29374999999998863
                },
                {
                    "name": "G4",
                    "midi": 67,
                    "time": 186.899999999998,
                    "velocity": 0.7244094488188977,
                    "duration": 0.29374999999998863
                },
                {
                    "name": "B3",
                    "midi": 59,
                    "time": 187.19999999999797,
                    "velocity": 0.7244094488188977,
                    "duration": 0.29374999999998863
                },
                {
                    "name": "G4",
                    "midi": 67,
                    "time": 187.19999999999797,
                    "velocity": 0.7244094488188977,
                    "duration": 0.29374999999998863
                },
                {
                    "name": "B3",
                    "midi": 59,
                    "time": 187.79999999999797,
                    "velocity": 0.7244094488188977,
                    "duration": 0.29374999999998863
                },
                {
                    "name": "F4",
                    "midi": 65,
                    "time": 187.79999999999797,
                    "velocity": 0.7244094488188977,
                    "duration": 0.29374999999998863
                },
                {
                    "name": "B3",
                    "midi": 59,
                    "time": 188.09999999999795,
                    "velocity": 0.7244094488188977,
                    "duration": 0.29374999999998863
                },
                {
                    "name": "F4",
                    "midi": 65,
                    "time": 188.09999999999795,
                    "velocity": 0.7244094488188977,
                    "duration": 0.29374999999998863
                },
                {
                    "name": "G3",
                    "midi": 55,
                    "time": 188.69999999999794,
                    "velocity": 0.7244094488188977,
                    "duration": 0.29374999999998863
                },
                {
                    "name": "G3",
                    "midi": 55,
                    "time": 188.99999999999793,
                    "velocity": 0.7244094488188977,
                    "duration": 0.29374999999998863
                },
                {
                    "name": "D#4",
                    "midi": 63,
                    "time": 189.59999999999792,
                    "velocity": 0.7244094488188977,
                    "duration": 0.29374999999998863
                },
                {
                    "name": "D#4",
                    "midi": 63,
                    "time": 189.8999999999979,
                    "velocity": 0.7244094488188977,
                    "duration": 0.29374999999998863
                },
                {
                    "name": "B3",
                    "midi": 59,
                    "time": 190.19999999999789,
                    "velocity": 0.7244094488188977,
                    "duration": 0.5999999999999943
                },
                {
                    "name": "G4",
                    "midi": 67,
                    "time": 190.19999999999789,
                    "velocity": 0.7244094488188977,
                    "duration": 0.5999999999999943
                },
                {
                    "name": "B3",
                    "midi": 59,
                    "time": 191.0999999999979,
                    "velocity": 0.7244094488188977,
                    "duration": 0.9000000000000057
                },
                {
                    "name": "D4",
                    "midi": 62,
                    "time": 191.0999999999979,
                    "velocity": 0.7244094488188977,
                    "duration": 0.9000000000000057
                },
                {
                    "name": "C4",
                    "midi": 60,
                    "time": 191.9999999999979,
                    "velocity": 0.7244094488188977,
                    "duration": 0.29374999999998863
                },
                {
                    "name": "D#4",
                    "midi": 63,
                    "time": 191.9999999999979,
                    "velocity": 0.7244094488188977,
                    "duration": 0.29374999999998863
                },
                {
                    "name": "C4",
                    "midi": 60,
                    "time": 192.29999999999788,
                    "velocity": 0.7244094488188977,
                    "duration": 0.29374999999998863
                },
                {
                    "name": "D#4",
                    "midi": 63,
                    "time": 192.29999999999788,
                    "velocity": 0.7244094488188977,
                    "duration": 0.29374999999998863
                },
                {
                    "name": "D4",
                    "midi": 62,
                    "time": 192.59999999999786,
                    "velocity": 0.7244094488188977,
                    "duration": 0.29374999999998863
                },
                {
                    "name": "B3",
                    "midi": 59,
                    "time": 193.19999999999786,
                    "velocity": 0.7244094488188977,
                    "duration": 0.29374999999998863
                },
                {
                    "name": "F#4",
                    "midi": 66,
                    "time": 193.19999999999786,
                    "velocity": 0.7244094488188977,
                    "duration": 0.29374999999998863
                },
                {
                    "name": "C4",
                    "midi": 60,
                    "time": 193.49999999999784,
                    "velocity": 0.7244094488188977,
                    "duration": 0.29374999999998863
                },
                {
                    "name": "B3",
                    "midi": 59,
                    "time": 194.09999999999783,
                    "velocity": 0.7244094488188977,
                    "duration": 0.29374999999998863
                },
                {
                    "name": "D4",
                    "midi": 62,
                    "time": 194.09999999999783,
                    "velocity": 0.7244094488188977,
                    "duration": 0.29374999999998863
                },
                {
                    "name": "B3",
                    "midi": 59,
                    "time": 194.39999999999782,
                    "velocity": 0.7244094488188977,
                    "duration": 0.29374999999998863
                },
                {
                    "name": "D4",
                    "midi": 62,
                    "time": 194.39999999999782,
                    "velocity": 0.7244094488188977,
                    "duration": 0.29374999999998863
                },
                {
                    "name": "B3",
                    "midi": 59,
                    "time": 194.9999999999978,
                    "velocity": 0.7244094488188977,
                    "duration": 0.29374999999998863
                },
                {
                    "name": "B3",
                    "midi": 59,
                    "time": 195.2999999999978,
                    "velocity": 0.7244094488188977,
                    "duration": 0.29374999999998863
                },
                {
                    "name": "C4",
                    "midi": 60,
                    "time": 195.59999999999778,
                    "velocity": 0.7244094488188977,
                    "duration": 0.09999999999999432
                },
                {
                    "name": "D#4",
                    "midi": 63,
                    "time": 195.59999999999778,
                    "velocity": 0.7244094488188977,
                    "duration": 0.09999999999999432
                },
                {
                    "name": "B3",
                    "midi": 59,
                    "time": 196.49999999999778,
                    "velocity": 0.7244094488188977,
                    "duration": 0.09999999999999432
                },
                {
                    "name": "F4",
                    "midi": 65,
                    "time": 196.49999999999778,
                    "velocity": 0.7244094488188977,
                    "duration": 0.09999999999999432
                },
                {
                    "name": "D#4",
                    "midi": 63,
                    "time": 197.3999999999978,
                    "velocity": 0.7244094488188977,
                    "duration": 0.5999999999999943
                },
                {
                    "name": "A#3",
                    "midi": 58,
                    "time": 199.19999999999777,
                    "velocity": 0.3543307086614173,
                    "duration": 0.5999999999999943
                },
                {
                    "name": "A#3",
                    "midi": 58,
                    "time": 200.09999999999778,
                    "velocity": 0.3543307086614173,
                    "duration": 0.5999999999999943
                },
                {
                    "name": "A#3",
                    "midi": 58,
                    "time": 200.99999999999778,
                    "velocity": 0.3543307086614173,
                    "duration": 0.5
                },
                {
                    "name": "D4",
                    "midi": 62,
                    "time": 202.7999999999978,
                    "velocity": 0.3543307086614173,
                    "duration": 0.5999999999999943
                },
                {
                    "name": "D4",
                    "midi": 62,
                    "time": 203.6999999999978,
                    "velocity": 0.3543307086614173,
                    "duration": 0.5999999999999943
                },
                {
                    "name": "D4",
                    "midi": 62,
                    "time": 204.5999999999978,
                    "velocity": 0.3543307086614173,
                    "duration": 0.5999999999999943
                },
                {
                    "name": "F4",
                    "midi": 65,
                    "time": 206.3999999999978,
                    "velocity": 0.3543307086614173,
                    "duration": 0.5999999999999943
                },
                {
                    "name": "F4",
                    "midi": 65,
                    "time": 207.2999999999978,
                    "velocity": 0.3543307086614173,
                    "duration": 0.5999999999999943
                },
                {
                    "name": "F4",
                    "midi": 65,
                    "time": 208.1999999999978,
                    "velocity": 0.3543307086614173,
                    "duration": 0.9000000000000057
                },
                {
                    "name": "F4",
                    "midi": 65,
                    "time": 209.0999999999978,
                    "velocity": 0.3543307086614173,
                    "duration": 0.9000000000000057
                },
                {
                    "name": "F4",
                    "midi": 65,
                    "time": 209.9999999999978,
                    "velocity": 0.3543307086614173,
                    "duration": 0.9000000000000057
                },
                {
                    "name": "A3",
                    "midi": 57,
                    "time": 210.89999999999782,
                    "velocity": 0.3543307086614173,
                    "duration": 0.9000000000000057
                },
                {
                    "name": "A#3",
                    "midi": 58,
                    "time": 211.79999999999782,
                    "velocity": 0.3543307086614173,
                    "duration": 0.5999999999999943
                },
                {
                    "name": "B3",
                    "midi": 59,
                    "time": 212.39999999999782,
                    "velocity": 0.3543307086614173,
                    "duration": 0.29374999999998863
                },
                {
                    "name": "C4",
                    "midi": 60,
                    "time": 212.6999999999978,
                    "velocity": 0.49606299212598426,
                    "duration": 1.1937499999999943
                },
                {
                    "name": "C4",
                    "midi": 60,
                    "time": 213.8999999999978,
                    "velocity": 0.47244094488188976,
                    "duration": 0.09999999999999432
                },
                {
                    "name": "C4",
                    "midi": 60,
                    "time": 214.19999999999777,
                    "velocity": 0.47244094488188976,
                    "duration": 0.09999999999999432
                },
                {
                    "name": "C4",
                    "midi": 60,
                    "time": 214.79999999999777,
                    "velocity": 0.47244094488188976,
                    "duration": 0.09999999999999432
                },
                {
                    "name": "C4",
                    "midi": 60,
                    "time": 215.09999999999775,
                    "velocity": 0.47244094488188976,
                    "duration": 0.09999999999999432
                },
                {
                    "name": "C4",
                    "midi": 60,
                    "time": 215.69999999999774,
                    "velocity": 0.47244094488188976,
                    "duration": 0.09999999999999432
                },
                {
                    "name": "C4",
                    "midi": 60,
                    "time": 215.99999999999773,
                    "velocity": 0.47244094488188976,
                    "duration": 0.09999999999999432
                },
                {
                    "name": "A#3",
                    "midi": 58,
                    "time": 216.2999999999977,
                    "velocity": 0.6614173228346457,
                    "duration": 1.1937499999999943
                },
                {
                    "name": "D4",
                    "midi": 62,
                    "time": 217.4999999999977,
                    "velocity": 0.47244094488188976,
                    "duration": 0.09999999999999432
                },
                {
                    "name": "D4",
                    "midi": 62,
                    "time": 217.79999999999768,
                    "velocity": 0.47244094488188976,
                    "duration": 0.09999999999999432
                },
                {
                    "name": "D#4",
                    "midi": 63,
                    "time": 218.39999999999768,
                    "velocity": 0.47244094488188976,
                    "duration": 0.09999999999999432
                },
                {
                    "name": "D4",
                    "midi": 62,
                    "time": 218.69999999999766,
                    "velocity": 0.47244094488188976,
                    "duration": 0.09999999999999432
                },
                {
                    "name": "D#4",
                    "midi": 63,
                    "time": 218.99999999999764,
                    "velocity": 0.47244094488188976,
                    "duration": 0.5999999999999943
                },
                {
                    "name": "G4",
                    "midi": 67,
                    "time": 219.89999999999765,
                    "velocity": 0.47244094488188976,
                    "duration": 0.09999999999999432
                },
                {
                    "name": "G4",
                    "midi": 67,
                    "time": 220.19999999999763,
                    "velocity": 0.47244094488188976,
                    "duration": 0.09999999999999432
                },
                {
                    "name": "G4",
                    "midi": 67,
                    "time": 220.79999999999762,
                    "velocity": 0.47244094488188976,
                    "duration": 0.09999999999999432
                },
                {
                    "name": "G4",
                    "midi": 67,
                    "time": 221.0999999999976,
                    "velocity": 0.47244094488188976,
                    "duration": 0.09999999999999432
                },
                {
                    "name": "G#4",
                    "midi": 68,
                    "time": 221.6999999999976,
                    "velocity": 0.47244094488188976,
                    "duration": 0.09999999999999432
                },
                {
                    "name": "G#4",
                    "midi": 68,
                    "time": 221.99999999999758,
                    "velocity": 0.47244094488188976,
                    "duration": 0.09999999999999432
                },
                {
                    "name": "G4",
                    "midi": 67,
                    "time": 222.59999999999758,
                    "velocity": 0.47244094488188976,
                    "duration": 0.09999999999999432
                },
                {
                    "name": "G4",
                    "midi": 67,
                    "time": 222.89999999999756,
                    "velocity": 0.47244094488188976,
                    "duration": 0.09999999999999432
                },
                {
                    "name": "G4",
                    "midi": 67,
                    "time": 223.49999999999756,
                    "velocity": 0.3543307086614173,
                    "duration": 0.09999999999999432
                },
                {
                    "name": "G4",
                    "midi": 67,
                    "time": 223.79999999999754,
                    "velocity": 0.3543307086614173,
                    "duration": 0.09999999999999432
                },
                {
                    "name": "G4",
                    "midi": 67,
                    "time": 224.39999999999753,
                    "velocity": 0.3543307086614173,
                    "duration": 0.09999999999999432
                },
                {
                    "name": "G4",
                    "midi": 67,
                    "time": 224.69999999999752,
                    "velocity": 0.3543307086614173,
                    "duration": 0.09999999999999432
                },
                {
                    "name": "D#4",
                    "midi": 63,
                    "time": 225.2999999999975,
                    "velocity": 0.3543307086614173,
                    "duration": 0.09999999999999432
                },
                {
                    "name": "D#4",
                    "midi": 63,
                    "time": 225.5999999999975,
                    "velocity": 0.3543307086614173,
                    "duration": 0.09999999999999432
                },
                {
                    "name": "D4",
                    "midi": 62,
                    "time": 226.1999999999975,
                    "velocity": 0.3543307086614173,
                    "duration": 0.5999999999999943
                },
                {
                    "name": "G5",
                    "midi": 79,
                    "time": 228.89999999999748,
                    "velocity": 0.3543307086614173,
                    "duration": 0.09999999999999432
                },
                {
                    "name": "G5",
                    "midi": 79,
                    "time": 229.19999999999746,
                    "velocity": 0.3543307086614173,
                    "duration": 0.09999999999999432
                },
                {
                    "name": "G5",
                    "midi": 79,
                    "time": 229.49999999999744,
                    "velocity": 0.3543307086614173,
                    "duration": 0.09999999999999432
                },
                {
                    "name": "C4",
                    "midi": 60,
                    "time": 232.49999999999744,
                    "velocity": 0.3543307086614173,
                    "duration": 0.09999999999999432
                },
                {
                    "name": "C4",
                    "midi": 60,
                    "time": 232.79999999999742,
                    "velocity": 0.3543307086614173,
                    "duration": 0.09999999999999432
                },
                {
                    "name": "C4",
                    "midi": 60,
                    "time": 233.39999999999742,
                    "velocity": 0.3543307086614173,
                    "duration": 0.09999999999999432
                },
                {
                    "name": "C4",
                    "midi": 60,
                    "time": 233.6999999999974,
                    "velocity": 0.3543307086614173,
                    "duration": 0.09999999999999432
                },
                {
                    "name": "B3",
                    "midi": 59,
                    "time": 234.2999999999974,
                    "velocity": 0.3543307086614173,
                    "duration": 0.09999999999999432
                },
                {
                    "name": "B3",
                    "midi": 59,
                    "time": 234.59999999999738,
                    "velocity": 0.3543307086614173,
                    "duration": 0.09999999999999432
                },
                {
                    "name": "D4",
                    "midi": 62,
                    "time": 235.19999999999737,
                    "velocity": 0.3543307086614173,
                    "duration": 0.09999999999999432
                },
                {
                    "name": "D4",
                    "midi": 62,
                    "time": 235.49999999999736,
                    "velocity": 0.3543307086614173,
                    "duration": 0.09999999999999432
                },
                {
                    "name": "C4",
                    "midi": 60,
                    "time": 236.09999999999735,
                    "velocity": 0.3543307086614173,
                    "duration": 0.09999999999999432
                },
                {
                    "name": "C4",
                    "midi": 60,
                    "time": 236.39999999999733,
                    "velocity": 0.3543307086614173,
                    "duration": 0.09999999999999432
                },
                {
                    "name": "C4",
                    "midi": 60,
                    "time": 236.99999999999733,
                    "velocity": 0.3543307086614173,
                    "duration": 0.09999999999999432
                },
                {
                    "name": "C4",
                    "midi": 60,
                    "time": 237.2999999999973,
                    "velocity": 0.3543307086614173,
                    "duration": 0.09999999999999432
                },
                {
                    "name": "B3",
                    "midi": 59,
                    "time": 237.8999999999973,
                    "velocity": 0.3543307086614173,
                    "duration": 0.5999999999999943
                },
                {
                    "name": "D4",
                    "midi": 62,
                    "time": 237.8999999999973,
                    "velocity": 0.3543307086614173,
                    "duration": 0.5999999999999943
                },
                {
                    "name": "B3",
                    "midi": 59,
                    "time": 238.7999999999973,
                    "velocity": 0.49606299212598426,
                    "duration": 0.9000000000000057
                },
                {
                    "name": "C4",
                    "midi": 60,
                    "time": 239.69999999999732,
                    "velocity": 0.3543307086614173,
                    "duration": 0.09999999999999432
                },
                {
                    "name": "C4",
                    "midi": 60,
                    "time": 239.9999999999973,
                    "velocity": 0.3543307086614173,
                    "duration": 0.09999999999999432
                },
                {
                    "name": "C4",
                    "midi": 60,
                    "time": 240.5999999999973,
                    "velocity": 0.3543307086614173,
                    "duration": 0.09999999999999432
                },
                {
                    "name": "C4",
                    "midi": 60,
                    "time": 240.89999999999728,
                    "velocity": 0.3543307086614173,
                    "duration": 0.09999999999999432
                },
                {
                    "name": "C4",
                    "midi": 60,
                    "time": 241.49999999999727,
                    "velocity": 0.3543307086614173,
                    "duration": 0.09999999999999432
                },
                {
                    "name": "C4",
                    "midi": 60,
                    "time": 241.79999999999725,
                    "velocity": 0.3543307086614173,
                    "duration": 0.09999999999999432
                },
                {
                    "name": "D4",
                    "midi": 62,
                    "time": 242.39999999999725,
                    "velocity": 0.3543307086614173,
                    "duration": 0.09999999999999432
                },
                {
                    "name": "D4",
                    "midi": 62,
                    "time": 242.69999999999723,
                    "velocity": 0.3543307086614173,
                    "duration": 0.09999999999999432
                },
                {
                    "name": "C4",
                    "midi": 60,
                    "time": 243.29999999999723,
                    "velocity": 0.3543307086614173,
                    "duration": 0.09999999999999432
                },
                {
                    "name": "D4",
                    "midi": 62,
                    "time": 244.19999999999723,
                    "velocity": 0.3543307086614173,
                    "duration": 0.09999999999999432
                },
                {
                    "name": "C4",
                    "midi": 60,
                    "time": 245.09999999999724,
                    "velocity": 0.3543307086614173,
                    "duration": 0.5999999999999943
                },
                {
                    "name": "C4",
                    "midi": 60,
                    "time": 247.19999999999723,
                    "velocity": 0.7244094488188977,
                    "duration": 0.29374999999998863
                },
                {
                    "name": "D#4",
                    "midi": 63,
                    "time": 247.19999999999723,
                    "velocity": 0.7244094488188977,
                    "duration": 0.29374999999998863
                },
                {
                    "name": "C4",
                    "midi": 60,
                    "time": 247.49999999999721,
                    "velocity": 0.7244094488188977,
                    "duration": 0.29374999999998863
                },
                {
                    "name": "D#4",
                    "midi": 63,
                    "time": 247.49999999999721,
                    "velocity": 0.7244094488188977,
                    "duration": 0.29374999999998863
                },
                {
                    "name": "G#3",
                    "midi": 56,
                    "time": 248.0999999999972,
                    "velocity": 0.7244094488188977,
                    "duration": 0.29374999999998863
                },
                {
                    "name": "F4",
                    "midi": 65,
                    "time": 248.0999999999972,
                    "velocity": 0.7244094488188977,
                    "duration": 0.29374999999998863
                },
                {
                    "name": "G#3",
                    "midi": 56,
                    "time": 248.3999999999972,
                    "velocity": 0.7244094488188977,
                    "duration": 0.29374999999998863
                },
                {
                    "name": "F#4",
                    "midi": 66,
                    "time": 248.3999999999972,
                    "velocity": 0.7244094488188977,
                    "duration": 0.29374999999998863
                },
                {
                    "name": "B3",
                    "midi": 59,
                    "time": 248.9999999999972,
                    "velocity": 0.7244094488188977,
                    "duration": 0.29374999999998863
                },
                {
                    "name": "G4",
                    "midi": 67,
                    "time": 248.9999999999972,
                    "velocity": 0.7244094488188977,
                    "duration": 0.29374999999998863
                },
                {
                    "name": "B3",
                    "midi": 59,
                    "time": 249.29999999999717,
                    "velocity": 0.7244094488188977,
                    "duration": 0.29374999999998863
                },
                {
                    "name": "G4",
                    "midi": 67,
                    "time": 249.29999999999717,
                    "velocity": 0.7244094488188977,
                    "duration": 0.29374999999998863
                },
                {
                    "name": "B3",
                    "midi": 59,
                    "time": 249.89999999999716,
                    "velocity": 0.7244094488188977,
                    "duration": 0.29374999999998863
                },
                {
                    "name": "F4",
                    "midi": 65,
                    "time": 249.89999999999716,
                    "velocity": 0.7244094488188977,
                    "duration": 0.29374999999998863
                },
                {
                    "name": "B3",
                    "midi": 59,
                    "time": 250.19999999999715,
                    "velocity": 0.7244094488188977,
                    "duration": 0.29374999999998863
                },
                {
                    "name": "F4",
                    "midi": 65,
                    "time": 250.19999999999715,
                    "velocity": 0.7244094488188977,
                    "duration": 0.29374999999998863
                },
                {
                    "name": "G3",
                    "midi": 55,
                    "time": 250.79999999999714,
                    "velocity": 0.7244094488188977,
                    "duration": 0.29374999999998863
                },
                {
                    "name": "G3",
                    "midi": 55,
                    "time": 251.09999999999712,
                    "velocity": 0.7244094488188977,
                    "duration": 0.29374999999998863
                },
                {
                    "name": "C4",
                    "midi": 60,
                    "time": 251.69999999999712,
                    "velocity": 0.7244094488188977,
                    "duration": 0.29374999999998863
                },
                {
                    "name": "C4",
                    "midi": 60,
                    "time": 251.9999999999971,
                    "velocity": 0.7244094488188977,
                    "duration": 0.29374999999998863
                },
                {
                    "name": "B3",
                    "midi": 59,
                    "time": 252.29999999999708,
                    "velocity": 0.7244094488188977,
                    "duration": 0.5999999999999943
                },
                {
                    "name": "G4",
                    "midi": 67,
                    "time": 252.29999999999708,
                    "velocity": 0.7244094488188977,
                    "duration": 0.5999999999999943
                },
                {
                    "name": "B3",
                    "midi": 59,
                    "time": 253.1999999999971,
                    "velocity": 0.7244094488188977,
                    "duration": 0.9000000000000057
                },
                {
                    "name": "D4",
                    "midi": 62,
                    "time": 253.1999999999971,
                    "velocity": 0.7244094488188977,
                    "duration": 0.9000000000000057
                },
                {
                    "name": "C4",
                    "midi": 60,
                    "time": 254.0999999999971,
                    "velocity": 0.7244094488188977,
                    "duration": 0.29374999999998863
                },
                {
                    "name": "E4",
                    "midi": 64,
                    "time": 254.0999999999971,
                    "velocity": 0.7244094488188977,
                    "duration": 0.29374999999998863
                },
                {
                    "name": "C4",
                    "midi": 60,
                    "time": 254.39999999999708,
                    "velocity": 0.7244094488188977,
                    "duration": 0.29374999999998863
                },
                {
                    "name": "E4",
                    "midi": 64,
                    "time": 254.39999999999708,
                    "velocity": 0.7244094488188977,
                    "duration": 0.29374999999998863
                },
                {
                    "name": "D4",
                    "midi": 62,
                    "time": 254.69999999999706,
                    "velocity": 0.7244094488188977,
                    "duration": 0.29374999999998863
                },
                {
                    "name": "B3",
                    "midi": 59,
                    "time": 255.29999999999706,
                    "velocity": 0.7244094488188977,
                    "duration": 0.29374999999998863
                },
                {
                    "name": "C4",
                    "midi": 60,
                    "time": 255.59999999999704,
                    "velocity": 0.7244094488188977,
                    "duration": 0.29374999999998863
                },
                {
                    "name": "B3",
                    "midi": 59,
                    "time": 256.19999999999703,
                    "velocity": 0.7244094488188977,
                    "duration": 0.29374999999998863
                },
                {
                    "name": "D4",
                    "midi": 62,
                    "time": 256.19999999999703,
                    "velocity": 0.7244094488188977,
                    "duration": 0.29374999999998863
                },
                {
                    "name": "B3",
                    "midi": 59,
                    "time": 256.49999999999704,
                    "velocity": 0.7244094488188977,
                    "duration": 0.29374999999998863
                },
                {
                    "name": "D4",
                    "midi": 62,
                    "time": 256.49999999999704,
                    "velocity": 0.7244094488188977,
                    "duration": 0.29374999999998863
                },
                {
                    "name": "B3",
                    "midi": 59,
                    "time": 257.099999999997,
                    "velocity": 0.7244094488188977,
                    "duration": 0.29374999999998863
                },
                {
                    "name": "B3",
                    "midi": 59,
                    "time": 257.399999999997,
                    "velocity": 0.7244094488188977,
                    "duration": 0.29374999999998863
                },
                {
                    "name": "C4",
                    "midi": 60,
                    "time": 257.69999999999703,
                    "velocity": 0.7244094488188977,
                    "duration": 0.10000000000002274
                },
                {
                    "name": "D#4",
                    "midi": 63,
                    "time": 257.69999999999703,
                    "velocity": 0.7244094488188977,
                    "duration": 0.10000000000002274
                },
                {
                    "name": "B3",
                    "midi": 59,
                    "time": 258.59999999999707,
                    "velocity": 0.7244094488188977,
                    "duration": 0.10000000000002274
                },
                {
                    "name": "D4",
                    "midi": 62,
                    "time": 258.59999999999707,
                    "velocity": 0.7244094488188977,
                    "duration": 0.10000000000002274
                },
                {
                    "name": "D#4",
                    "midi": 63,
                    "time": 259.4999999999971,
                    "velocity": 0.7244094488188977,
                    "duration": 0.6000000000000227
                },
                {
                    "name": "D#4",
                    "midi": 63,
                    "time": 260.39999999999714,
                    "velocity": 1,
                    "duration": 0.10000000000002274
                },
                {
                    "name": "D4",
                    "midi": 62,
                    "time": 260.69999999999715,
                    "velocity": 1,
                    "duration": 0.10000000000002274
                },
                {
                    "name": "D#4",
                    "midi": 63,
                    "time": 260.99999999999716,
                    "velocity": 1,
                    "duration": 0.10000000000002274
                },
                {
                    "name": "F4",
                    "midi": 65,
                    "time": 261.29999999999717,
                    "velocity": 1,
                    "duration": 0.10000000000002274
                },
                {
                    "name": "C#4",
                    "midi": 61,
                    "time": 261.5999999999972,
                    "velocity": 1,
                    "duration": 0.10000000000002274
                },
                {
                    "name": "F4",
                    "midi": 65,
                    "time": 261.8999999999972,
                    "velocity": 1,
                    "duration": 0.10000000000002274
                },
                {
                    "name": "G4",
                    "midi": 67,
                    "time": 262.1999999999972,
                    "velocity": 1,
                    "duration": 0.10000000000002274
                },
                {
                    "name": "F4",
                    "midi": 65,
                    "time": 262.4999999999972,
                    "velocity": 1,
                    "duration": 0.10000000000002274
                },
                {
                    "name": "F4",
                    "midi": 65,
                    "time": 262.7999999999972,
                    "velocity": 1,
                    "duration": 0.10000000000002274
                },
                {
                    "name": "G4",
                    "midi": 67,
                    "time": 263.09999999999724,
                    "velocity": 1,
                    "duration": 0.10000000000002274
                },
                {
                    "name": "F4",
                    "midi": 65,
                    "time": 263.39999999999725,
                    "velocity": 1,
                    "duration": 0.10000000000002274
                },
                {
                    "name": "G4",
                    "midi": 67,
                    "time": 263.69999999999726,
                    "velocity": 1,
                    "duration": 0.10000000000002274
                },
                {
                    "name": "G#4",
                    "midi": 68,
                    "time": 263.99999999999727,
                    "velocity": 1,
                    "duration": 0.10000000000002274
                },
                {
                    "name": "G4",
                    "midi": 67,
                    "time": 264.8999999999973,
                    "velocity": 1,
                    "duration": 0.10000000000002274
                },
                {
                    "name": "F4",
                    "midi": 65,
                    "time": 265.79999999999734,
                    "velocity": 1,
                    "duration": 0.10000000000002274
                },
                {
                    "name": "D#4",
                    "midi": 63,
                    "time": 266.6999999999974,
                    "velocity": 0.7244094488188977,
                    "duration": 0.6000000000000227
                },
                {
                    "name": "D#4",
                    "midi": 63,
                    "time": 267.2999999999974,
                    "velocity": 0.7244094488188977,
                    "duration": 0.29374999999998863
                },
                {
                    "name": "D#4",
                    "midi": 63,
                    "time": 267.5999999999974,
                    "velocity": 1,
                    "duration": 0.10000000000002274
                },
                {
                    "name": "D4",
                    "midi": 62,
                    "time": 267.8999999999974,
                    "velocity": 1,
                    "duration": 0.10000000000002274
                },
                {
                    "name": "D#4",
                    "midi": 63,
                    "time": 268.19999999999743,
                    "velocity": 1,
                    "duration": 0.10000000000002274
                },
                {
                    "name": "F4",
                    "midi": 65,
                    "time": 268.49999999999744,
                    "velocity": 1,
                    "duration": 0.10000000000002274
                },
                {
                    "name": "C#4",
                    "midi": 61,
                    "time": 268.79999999999745,
                    "velocity": 1,
                    "duration": 0.10000000000002274
                },
                {
                    "name": "F4",
                    "midi": 65,
                    "time": 269.09999999999746,
                    "velocity": 1,
                    "duration": 0.10000000000002274
                },
                {
                    "name": "G4",
                    "midi": 67,
                    "time": 269.3999999999975,
                    "velocity": 1,
                    "duration": 0.10000000000002274
                },
                {
                    "name": "F4",
                    "midi": 65,
                    "time": 269.6999999999975,
                    "velocity": 1,
                    "duration": 0.10000000000002274
                },
                {
                    "name": "F4",
                    "midi": 65,
                    "time": 269.9999999999975,
                    "velocity": 1,
                    "duration": 0.10000000000002274
                },
                {
                    "name": "G4",
                    "midi": 67,
                    "time": 270.2999999999975,
                    "velocity": 1,
                    "duration": 0.10000000000002274
                },
                {
                    "name": "F4",
                    "midi": 65,
                    "time": 270.5999999999975,
                    "velocity": 1,
                    "duration": 0.10000000000002274
                },
                {
                    "name": "G4",
                    "midi": 67,
                    "time": 270.89999999999753,
                    "velocity": 1,
                    "duration": 0.10000000000002274
                },
                {
                    "name": "G#4",
                    "midi": 68,
                    "time": 271.19999999999754,
                    "velocity": 1,
                    "duration": 0.10000000000002274
                },
                {
                    "name": "G4",
                    "midi": 67,
                    "time": 272.0999999999976,
                    "velocity": 1,
                    "duration": 0.10000000000002274
                },
                {
                    "name": "F4",
                    "midi": 65,
                    "time": 272.9999999999976,
                    "velocity": 1,
                    "duration": 0.10000000000002274
                },
                {
                    "name": "D#4",
                    "midi": 63,
                    "time": 273.89999999999765,
                    "velocity": 0.7244094488188977,
                    "duration": 0.29374999999998863
                },
                {
                    "name": "C4",
                    "midi": 60,
                    "time": 274.4999999999976,
                    "velocity": 0.47244094488188976,
                    "duration": 0.29374999999998863
                },
                {
                    "name": "B3",
                    "midi": 59,
                    "time": 274.7999999999976,
                    "velocity": 0.47244094488188976,
                    "duration": 0.30000000000001137
                },
                {
                    "name": "G3",
                    "midi": 55,
                    "time": 275.09999999999764,
                    "velocity": 0.47244094488188976,
                    "duration": 0.30000000000001137
                },
                {
                    "name": "B3",
                    "midi": 59,
                    "time": 275.39999999999765,
                    "velocity": 0.47244094488188976,
                    "duration": 0.29374999999998863
                },
                {
                    "name": "C4",
                    "midi": 60,
                    "time": 275.69999999999766,
                    "velocity": 0.47244094488188976,
                    "duration": 0.30000000000001137
                },
                {
                    "name": "G3",
                    "midi": 55,
                    "time": 275.99999999999767,
                    "velocity": 0.47244094488188976,
                    "duration": 0.30000000000001137
                },
                {
                    "name": "C4",
                    "midi": 60,
                    "time": 276.2999999999977,
                    "velocity": 0.47244094488188976,
                    "duration": 0.29374999999998863
                },
                {
                    "name": "B3",
                    "midi": 59,
                    "time": 276.5999999999977,
                    "velocity": 0.47244094488188976,
                    "duration": 0.30000000000001137
                },
                {
                    "name": "G3",
                    "midi": 55,
                    "time": 276.8999999999977,
                    "velocity": 0.47244094488188976,
                    "duration": 0.30000000000001137
                },
                {
                    "name": "B3",
                    "midi": 59,
                    "time": 277.1999999999977,
                    "velocity": 0.47244094488188976,
                    "duration": 0.29374999999998863
                },
                {
                    "name": "C4",
                    "midi": 60,
                    "time": 277.4999999999977,
                    "velocity": 0.47244094488188976,
                    "duration": 0.6000000000000227
                },
                {
                    "name": "C4",
                    "midi": 60,
                    "time": 278.09999999999775,
                    "velocity": 0.7244094488188977,
                    "duration": 0.29374999999998863
                },
                {
                    "name": "B3",
                    "midi": 59,
                    "time": 278.39999999999776,
                    "velocity": 0.7244094488188977,
                    "duration": 0.30000000000001137
                },
                {
                    "name": "G3",
                    "midi": 55,
                    "time": 278.6999999999978,
                    "velocity": 0.7244094488188977,
                    "duration": 0.30000000000001137
                },
                {
                    "name": "B3",
                    "midi": 59,
                    "time": 278.9999999999978,
                    "velocity": 0.7244094488188977,
                    "duration": 0.29374999999998863
                },
                {
                    "name": "C4",
                    "midi": 60,
                    "time": 279.2999999999978,
                    "velocity": 0.7244094488188977,
                    "duration": 0.5
                },
                {
                    "name": "D#4",
                    "midi": 63,
                    "time": 279.8999999999978,
                    "velocity": 0.7244094488188977,
                    "duration": 0.10000000000002274
                },
                {
                    "name": "D#4",
                    "midi": 63,
                    "time": 280.04999999999785,
                    "velocity": 0.7244094488188977,
                    "duration": 0.10000000000002274
                },
                {
                    "name": "D4",
                    "midi": 62,
                    "time": 280.1999999999979,
                    "velocity": 0.7244094488188977,
                    "duration": 0.29374999999998863
                },
                {
                    "name": "D4",
                    "midi": 62,
                    "time": 280.4999999999979,
                    "velocity": 0.7244094488188977,
                    "duration": 0.29374999999998863
                },
                {
                    "name": "D4",
                    "midi": 62,
                    "time": 280.7999999999979,
                    "velocity": 0.7244094488188977,
                    "duration": 0.29374999999998863
                },
                {
                    "name": "D#4",
                    "midi": 63,
                    "time": 281.0999999999979,
                    "velocity": 0.7244094488188977,
                    "duration": 0.29374999999998863
                },
                {
                    "name": "D#4",
                    "midi": 63,
                    "time": 281.39999999999793,
                    "velocity": 0.7244094488188977,
                    "duration": 0.29374999999998863
                },
                {
                    "name": "D#4",
                    "midi": 63,
                    "time": 281.69999999999794,
                    "velocity": 0.7244094488188977,
                    "duration": 0.29374999999998863
                },
                {
                    "name": "D4",
                    "midi": 62,
                    "time": 281.99999999999795,
                    "velocity": 0.7244094488188977,
                    "duration": 0.29374999999998863
                },
                {
                    "name": "D4",
                    "midi": 62,
                    "time": 282.29999999999797,
                    "velocity": 0.7244094488188977,
                    "duration": 0.29374999999998863
                },
                {
                    "name": "D4",
                    "midi": 62,
                    "time": 282.599999999998,
                    "velocity": 0.7244094488188977,
                    "duration": 0.29374999999998863
                },
                {
                    "name": "D#5",
                    "midi": 75,
                    "time": 282.899999999998,
                    "velocity": 0.7244094488188977,
                    "duration": 0.29374999999998863
                },
                {
                    "name": "C5",
                    "midi": 72,
                    "time": 283.199999999998,
                    "velocity": 0.7244094488188977,
                    "duration": 0.29374999999998863
                },
                {
                    "name": "G4",
                    "midi": 67,
                    "time": 283.499999999998,
                    "velocity": 0.7244094488188977,
                    "duration": 0.29374999999998863
                },
                {
                    "name": "D#4",
                    "midi": 63,
                    "time": 283.799999999998,
                    "velocity": 0.7244094488188977,
                    "duration": 0.29374999999998863
                },
                {
                    "name": "C4",
                    "midi": 60,
                    "time": 284.09999999999803,
                    "velocity": 0.7244094488188977,
                    "duration": 0.29374999999998863
                },
                {
                    "name": "G3",
                    "midi": 55,
                    "time": 284.39999999999804,
                    "velocity": 0.7244094488188977,
                    "duration": 0.29374999999998863
                },
                {
                    "name": "G3",
                    "midi": 55,
                    "time": 284.69999999999806,
                    "velocity": 0.7244094488188977,
                    "duration": 0.6000000000000227
                },
                {
                    "name": "C5",
                    "midi": 72,
                    "time": 285.5999999999981,
                    "velocity": 0.7244094488188977,
                    "duration": 0.6000000000000227
                },
                {
                    "name": "G3",
                    "midi": 55,
                    "time": 286.3499999999981,
                    "velocity": 0.7244094488188977,
                    "duration": 0.10000000000002274
                },
                {
                    "name": "G3",
                    "midi": 55,
                    "time": 286.4999999999981,
                    "velocity": 0.7244094488188977,
                    "duration": 0.8999999999999773
                }
            ],
            "controlChanges": {
                "7": [
                    {
                        "number": 7,
                        "time": 0,
                        "value": 1
                    }
                ],
                "10": [
                    {
                        "number": 10,
                        "time": 0,
                        "value": 0.15748031496062992
                    }
                ],
                "91": [
                    {
                        "number": 91,
                        "time": 0,
                        "value": 0.984251968503937
                    }
                ]
            },
            "id": 18,
            "instrumentNumber": 48,
            "instrument": "string ensemble 1",
            "instrumentFamily": "ensemble",
            "channelNumber": 12,
            "isPercussion": false
        },
        {
            "startTime": 1.2,
            "duration": 287.39999999999964,
            "length": 508,
            "notes": [
                {
                    "name": "G3",
                    "midi": 55,
                    "time": 1.2,
                    "velocity": 0.3543307086614173,
                    "duration": 0.10000000000000009
                },
                {
                    "name": "G3",
                    "midi": 55,
                    "time": 1.5,
                    "velocity": 0.3543307086614173,
                    "duration": 0.10000000000000009
                },
                {
                    "name": "G#3",
                    "midi": 56,
                    "time": 2.1,
                    "velocity": 0.3543307086614173,
                    "duration": 0.10000000000000009
                },
                {
                    "name": "G#3",
                    "midi": 56,
                    "time": 2.4000000000000004,
                    "velocity": 0.3543307086614173,
                    "duration": 0.10000000000000009
                },
                {
                    "name": "G3",
                    "midi": 55,
                    "time": 3.0000000000000004,
                    "velocity": 0.3543307086614173,
                    "duration": 0.10000000000000009
                },
                {
                    "name": "G3",
                    "midi": 55,
                    "time": 3.3000000000000007,
                    "velocity": 0.3543307086614173,
                    "duration": 0.10000000000000009
                },
                {
                    "name": "B3",
                    "midi": 59,
                    "time": 3.900000000000001,
                    "velocity": 0.3543307086614173,
                    "duration": 0.10000000000000009
                },
                {
                    "name": "B3",
                    "midi": 59,
                    "time": 4.200000000000001,
                    "velocity": 0.3543307086614173,
                    "duration": 0.09999999999999964
                },
                {
                    "name": "G3",
                    "midi": 55,
                    "time": 4.800000000000001,
                    "velocity": 0.3543307086614173,
                    "duration": 0.09999999999999964
                },
                {
                    "name": "G3",
                    "midi": 55,
                    "time": 5.1000000000000005,
                    "velocity": 0.3543307086614173,
                    "duration": 0.09999999999999964
                },
                {
                    "name": "A3",
                    "midi": 57,
                    "time": 5.7,
                    "velocity": 0.3543307086614173,
                    "duration": 0.09999999999999964
                },
                {
                    "name": "A3",
                    "midi": 57,
                    "time": 6,
                    "velocity": 0.3543307086614173,
                    "duration": 0.09999999999999964
                },
                {
                    "name": "G3",
                    "midi": 55,
                    "time": 6.6,
                    "velocity": 0.3543307086614173,
                    "duration": 0.5999999999999996
                },
                {
                    "name": "B3",
                    "midi": 59,
                    "time": 7.499999999999999,
                    "velocity": 0.3543307086614173,
                    "duration": 0.8999999999999995
                },
                {
                    "name": "G3",
                    "midi": 55,
                    "time": 8.399999999999999,
                    "velocity": 0.3543307086614173,
                    "duration": 0.09999999999999964
                },
                {
                    "name": "G3",
                    "midi": 55,
                    "time": 8.699999999999998,
                    "velocity": 0.3543307086614173,
                    "duration": 0.09999999999999964
                },
                {
                    "name": "G#3",
                    "midi": 56,
                    "time": 9.299999999999997,
                    "velocity": 0.3543307086614173,
                    "duration": 0.09999999999999964
                },
                {
                    "name": "G#3",
                    "midi": 56,
                    "time": 9.599999999999996,
                    "velocity": 0.3543307086614173,
                    "duration": 0.09999999999999964
                },
                {
                    "name": "B3",
                    "midi": 59,
                    "time": 10.199999999999996,
                    "velocity": 0.3543307086614173,
                    "duration": 0.09999999999999964
                },
                {
                    "name": "B3",
                    "midi": 59,
                    "time": 10.499999999999995,
                    "velocity": 0.3543307086614173,
                    "duration": 0.09999999999999964
                },
                {
                    "name": "B3",
                    "midi": 59,
                    "time": 11.099999999999994,
                    "velocity": 0.3543307086614173,
                    "duration": 0.09999999999999964
                },
                {
                    "name": "B3",
                    "midi": 59,
                    "time": 11.399999999999993,
                    "velocity": 0.3543307086614173,
                    "duration": 0.09999999999999964
                },
                {
                    "name": "C4",
                    "midi": 60,
                    "time": 11.999999999999993,
                    "velocity": 0.3543307086614173,
                    "duration": 0.09999999999999964
                },
                {
                    "name": "G3",
                    "midi": 55,
                    "time": 12.899999999999993,
                    "velocity": 0.3543307086614173,
                    "duration": 0.09999999999999964
                },
                {
                    "name": "G3",
                    "midi": 55,
                    "time": 13.799999999999994,
                    "velocity": 0.3543307086614173,
                    "duration": 0.5999999999999996
                },
                {
                    "name": "C4",
                    "midi": 60,
                    "time": 15.899999999999993,
                    "velocity": 0.7244094488188977,
                    "duration": 0.29999999999999893
                },
                {
                    "name": "D4",
                    "midi": 62,
                    "time": 16.199999999999992,
                    "velocity": 0.7244094488188977,
                    "duration": 0.2937499999999993
                },
                {
                    "name": "D#4",
                    "midi": 63,
                    "time": 16.499999999999993,
                    "velocity": 0.7244094488188977,
                    "duration": 0.3000000000000007
                },
                {
                    "name": "F4",
                    "midi": 65,
                    "time": 16.799999999999994,
                    "velocity": 0.7244094488188977,
                    "duration": 0.3000000000000007
                },
                {
                    "name": "F#4",
                    "midi": 66,
                    "time": 17.099999999999994,
                    "velocity": 0.7244094488188977,
                    "duration": 0.2937499999999993
                },
                {
                    "name": "G4",
                    "midi": 67,
                    "time": 17.399999999999995,
                    "velocity": 0.7244094488188977,
                    "duration": 0.8000000000000007
                },
                {
                    "name": "F4",
                    "midi": 65,
                    "time": 18.299999999999997,
                    "velocity": 0.7244094488188977,
                    "duration": 0.8000000000000007
                },
                {
                    "name": "D#4",
                    "midi": 63,
                    "time": 19.2,
                    "velocity": 0.7244094488188977,
                    "duration": 0.6000000000000014
                },
                {
                    "name": "D4",
                    "midi": 62,
                    "time": 19.8,
                    "velocity": 0.7244094488188977,
                    "duration": 0.2937499999999993
                },
                {
                    "name": "C4",
                    "midi": 60,
                    "time": 20.1,
                    "velocity": 0.7244094488188977,
                    "duration": 0.3000000000000007
                },
                {
                    "name": "B3",
                    "midi": 59,
                    "time": 20.400000000000002,
                    "velocity": 0.7244094488188977,
                    "duration": 0.3000000000000007
                },
                {
                    "name": "C4",
                    "midi": 60,
                    "time": 20.700000000000003,
                    "velocity": 0.7244094488188977,
                    "duration": 0.2937499999999993
                },
                {
                    "name": "D4",
                    "midi": 62,
                    "time": 21.000000000000004,
                    "velocity": 0.7244094488188977,
                    "duration": 0.5
                },
                {
                    "name": "G3",
                    "midi": 55,
                    "time": 21.900000000000002,
                    "velocity": 0.7244094488188977,
                    "duration": 1.1937500000000014
                },
                {
                    "name": "C4",
                    "midi": 60,
                    "time": 23.100000000000005,
                    "velocity": 0.7244094488188977,
                    "duration": 0.3000000000000007
                },
                {
                    "name": "D4",
                    "midi": 62,
                    "time": 23.400000000000006,
                    "velocity": 0.7244094488188977,
                    "duration": 0.2937499999999993
                },
                {
                    "name": "C4",
                    "midi": 60,
                    "time": 23.700000000000006,
                    "velocity": 0.7244094488188977,
                    "duration": 0.3000000000000007
                },
                {
                    "name": "D4",
                    "midi": 62,
                    "time": 24.000000000000007,
                    "velocity": 0.7244094488188977,
                    "duration": 0.3000000000000007
                },
                {
                    "name": "F#4",
                    "midi": 66,
                    "time": 24.300000000000008,
                    "velocity": 0.7244094488188977,
                    "duration": 0.2937499999999993
                },
                {
                    "name": "G4",
                    "midi": 67,
                    "time": 24.60000000000001,
                    "velocity": 0.7244094488188977,
                    "duration": 0.8000000000000007
                },
                {
                    "name": "F4",
                    "midi": 65,
                    "time": 25.50000000000001,
                    "velocity": 0.7244094488188977,
                    "duration": 0.3000000000000007
                },
                {
                    "name": "D#4",
                    "midi": 63,
                    "time": 25.80000000000001,
                    "velocity": 0.7244094488188977,
                    "duration": 0.3000000000000007
                },
                {
                    "name": "D4",
                    "midi": 62,
                    "time": 26.100000000000012,
                    "velocity": 0.7244094488188977,
                    "duration": 0.2937499999999993
                },
                {
                    "name": "C4",
                    "midi": 60,
                    "time": 26.400000000000013,
                    "velocity": 0.7244094488188977,
                    "duration": 0.2937499999999993
                },
                {
                    "name": "D4",
                    "midi": 62,
                    "time": 27.30000000000001,
                    "velocity": 0.7244094488188977,
                    "duration": 0.10000000000000142
                },
                {
                    "name": "C4",
                    "midi": 60,
                    "time": 28.200000000000014,
                    "velocity": 0.7244094488188977,
                    "duration": 0.6000000000000014
                },
                {
                    "name": "G3",
                    "midi": 55,
                    "time": 30.000000000000014,
                    "velocity": 0.3543307086614173,
                    "duration": 0.6000000000000014
                },
                {
                    "name": "F3",
                    "midi": 53,
                    "time": 30.900000000000016,
                    "velocity": 0.3543307086614173,
                    "duration": 0.6000000000000014
                },
                {
                    "name": "G3",
                    "midi": 55,
                    "time": 31.80000000000002,
                    "velocity": 0.3543307086614173,
                    "duration": 0.6000000000000014
                },
                {
                    "name": "A#3",
                    "midi": 58,
                    "time": 33.60000000000002,
                    "velocity": 0.3543307086614173,
                    "duration": 0.6000000000000014
                },
                {
                    "name": "A3",
                    "midi": 57,
                    "time": 34.50000000000002,
                    "velocity": 0.3543307086614173,
                    "duration": 0.6000000000000014
                },
                {
                    "name": "A#3",
                    "midi": 58,
                    "time": 35.40000000000002,
                    "velocity": 0.3543307086614173,
                    "duration": 0.6000000000000014
                },
                {
                    "name": "D4",
                    "midi": 62,
                    "time": 37.200000000000024,
                    "velocity": 0.3543307086614173,
                    "duration": 0.6000000000000014
                },
                {
                    "name": "C4",
                    "midi": 60,
                    "time": 38.10000000000002,
                    "velocity": 0.3543307086614173,
                    "duration": 0.6000000000000014
                },
                {
                    "name": "D4",
                    "midi": 62,
                    "time": 39.00000000000002,
                    "velocity": 0.3543307086614173,
                    "duration": 0.8999999999999986
                },
                {
                    "name": "D#4",
                    "midi": 63,
                    "time": 39.90000000000002,
                    "velocity": 0.3543307086614173,
                    "duration": 0.8999999999999986
                },
                {
                    "name": "D4",
                    "midi": 62,
                    "time": 40.80000000000002,
                    "velocity": 0.3543307086614173,
                    "duration": 0.8999999999999986
                },
                {
                    "name": "D#4",
                    "midi": 63,
                    "time": 41.70000000000002,
                    "velocity": 0.3543307086614173,
                    "duration": 0.8999999999999986
                },
                {
                    "name": "F4",
                    "midi": 65,
                    "time": 42.600000000000016,
                    "velocity": 0.3543307086614173,
                    "duration": 0.7999999999999972
                },
                {
                    "name": "G4",
                    "midi": 67,
                    "time": 43.500000000000014,
                    "velocity": 0.49606299212598426,
                    "duration": 1.1937500000000014
                },
                {
                    "name": "G#3",
                    "midi": 56,
                    "time": 44.70000000000002,
                    "velocity": 0.47244094488188976,
                    "duration": 0.10000000000000142
                },
                {
                    "name": "G#3",
                    "midi": 56,
                    "time": 45.00000000000002,
                    "velocity": 0.47244094488188976,
                    "duration": 0.10000000000000142
                },
                {
                    "name": "F3",
                    "midi": 53,
                    "time": 45.60000000000002,
                    "velocity": 0.47244094488188976,
                    "duration": 0.10000000000000142
                },
                {
                    "name": "G3",
                    "midi": 55,
                    "time": 45.90000000000003,
                    "velocity": 0.47244094488188976,
                    "duration": 0.10000000000000142
                },
                {
                    "name": "F3",
                    "midi": 53,
                    "time": 46.50000000000003,
                    "velocity": 0.47244094488188976,
                    "duration": 0.10000000000000142
                },
                {
                    "name": "F3",
                    "midi": 53,
                    "time": 46.80000000000003,
                    "velocity": 0.47244094488188976,
                    "duration": 0.10000000000000142
                },
                {
                    "name": "F3",
                    "midi": 53,
                    "time": 47.10000000000004,
                    "velocity": 0.6614173228346457,
                    "duration": 1.1937500000000014
                },
                {
                    "name": "A#3",
                    "midi": 58,
                    "time": 48.30000000000004,
                    "velocity": 0.47244094488188976,
                    "duration": 0.10000000000000142
                },
                {
                    "name": "A#3",
                    "midi": 58,
                    "time": 48.600000000000044,
                    "velocity": 0.47244094488188976,
                    "duration": 0.10000000000000142
                },
                {
                    "name": "A#3",
                    "midi": 58,
                    "time": 49.200000000000045,
                    "velocity": 0.47244094488188976,
                    "duration": 0.10000000000000142
                },
                {
                    "name": "A#3",
                    "midi": 58,
                    "time": 49.50000000000005,
                    "velocity": 0.47244094488188976,
                    "duration": 0.10000000000000142
                },
                {
                    "name": "A#3",
                    "midi": 58,
                    "time": 49.800000000000054,
                    "velocity": 0.47244094488188976,
                    "duration": 0.6000000000000014
                },
                {
                    "name": "B4",
                    "midi": 71,
                    "time": 50.70000000000005,
                    "velocity": 0.47244094488188976,
                    "duration": 0.8999999999999986
                },
                {
                    "name": "C5",
                    "midi": 72,
                    "time": 51.60000000000005,
                    "velocity": 0.47244094488188976,
                    "duration": 0.7999999999999972
                },
                {
                    "name": "C5",
                    "midi": 72,
                    "time": 52.50000000000005,
                    "velocity": 0.47244094488188976,
                    "duration": 0.8999999999999986
                },
                {
                    "name": "B4",
                    "midi": 71,
                    "time": 53.40000000000005,
                    "velocity": 0.47244094488188976,
                    "duration": 0.5
                },
                {
                    "name": "G3",
                    "midi": 55,
                    "time": 54.30000000000005,
                    "velocity": 0.7244094488188977,
                    "duration": 0.14999999999999858
                },
                {
                    "name": "F#3",
                    "midi": 54,
                    "time": 54.450000000000045,
                    "velocity": 0.7244094488188977,
                    "duration": 0.10000000000000142
                },
                {
                    "name": "G3",
                    "midi": 55,
                    "time": 54.600000000000044,
                    "velocity": 0.7244094488188977,
                    "duration": 0.10000000000000142
                },
                {
                    "name": "A3",
                    "midi": 57,
                    "time": 54.75000000000004,
                    "velocity": 0.7244094488188977,
                    "duration": 0.10000000000000142
                },
                {
                    "name": "A#3",
                    "midi": 58,
                    "time": 54.90000000000004,
                    "velocity": 0.7244094488188977,
                    "duration": 0.10000000000000142
                },
                {
                    "name": "B3",
                    "midi": 59,
                    "time": 55.05000000000004,
                    "velocity": 0.7244094488188977,
                    "duration": 0.10000000000000142
                },
                {
                    "name": "C4",
                    "midi": 60,
                    "time": 55.20000000000004,
                    "velocity": 0.7244094488188977,
                    "duration": 0.10000000000000142
                },
                {
                    "name": "C4",
                    "midi": 60,
                    "time": 55.50000000000004,
                    "velocity": 0.7244094488188977,
                    "duration": 0.10000000000000142
                },
                {
                    "name": "G#3",
                    "midi": 56,
                    "time": 56.100000000000044,
                    "velocity": 0.3543307086614173,
                    "duration": 0.10000000000000142
                },
                {
                    "name": "C4",
                    "midi": 60,
                    "time": 56.100000000000044,
                    "velocity": 0.3543307086614173,
                    "duration": 0.10000000000000142
                },
                {
                    "name": "G#3",
                    "midi": 56,
                    "time": 56.40000000000005,
                    "velocity": 0.3543307086614173,
                    "duration": 0.10000000000000142
                },
                {
                    "name": "C4",
                    "midi": 60,
                    "time": 56.40000000000005,
                    "velocity": 0.3543307086614173,
                    "duration": 0.10000000000000142
                },
                {
                    "name": "G3",
                    "midi": 55,
                    "time": 57.00000000000005,
                    "velocity": 0.3543307086614173,
                    "duration": 0.6000000000000014
                },
                {
                    "name": "B3",
                    "midi": 59,
                    "time": 57.00000000000005,
                    "velocity": 0.3543307086614173,
                    "duration": 0.6000000000000014
                },
                {
                    "name": "G4",
                    "midi": 67,
                    "time": 59.70000000000005,
                    "velocity": 0.3543307086614173,
                    "duration": 0.10000000000000142
                },
                {
                    "name": "G4",
                    "midi": 67,
                    "time": 60.00000000000006,
                    "velocity": 0.3543307086614173,
                    "duration": 0.10000000000000142
                },
                {
                    "name": "G4",
                    "midi": 67,
                    "time": 60.30000000000006,
                    "velocity": 0.3543307086614173,
                    "duration": 0.10000000000000142
                },
                {
                    "name": "G3",
                    "midi": 55,
                    "time": 60.600000000000065,
                    "velocity": 0.3543307086614173,
                    "duration": 0.10000000000000142
                },
                {
                    "name": "G3",
                    "midi": 55,
                    "time": 60.90000000000007,
                    "velocity": 0.3543307086614173,
                    "duration": 0.10000000000000142
                },
                {
                    "name": "G3",
                    "midi": 55,
                    "time": 61.200000000000074,
                    "velocity": 0.3543307086614173,
                    "duration": 0.10000000000000142
                },
                {
                    "name": "G3",
                    "midi": 55,
                    "time": 63.300000000000075,
                    "velocity": 0.3543307086614173,
                    "duration": 0.10000000000000142
                },
                {
                    "name": "G3",
                    "midi": 55,
                    "time": 63.60000000000008,
                    "velocity": 0.3543307086614173,
                    "duration": 0.10000000000000142
                },
                {
                    "name": "G#3",
                    "midi": 56,
                    "time": 64.20000000000007,
                    "velocity": 0.3543307086614173,
                    "duration": 0.09999999999999432
                },
                {
                    "name": "G#3",
                    "midi": 56,
                    "time": 64.50000000000007,
                    "velocity": 0.3543307086614173,
                    "duration": 0.09999999999999432
                },
                {
                    "name": "G3",
                    "midi": 55,
                    "time": 65.10000000000007,
                    "velocity": 0.3543307086614173,
                    "duration": 0.09999999999999432
                },
                {
                    "name": "G3",
                    "midi": 55,
                    "time": 65.40000000000006,
                    "velocity": 0.3543307086614173,
                    "duration": 0.09999999999999432
                },
                {
                    "name": "B3",
                    "midi": 59,
                    "time": 66.00000000000006,
                    "velocity": 0.3543307086614173,
                    "duration": 0.09999999999999432
                },
                {
                    "name": "B3",
                    "midi": 59,
                    "time": 66.30000000000005,
                    "velocity": 0.3543307086614173,
                    "duration": 0.09999999999999432
                },
                {
                    "name": "G3",
                    "midi": 55,
                    "time": 66.90000000000005,
                    "velocity": 0.3543307086614173,
                    "duration": 0.09999999999999432
                },
                {
                    "name": "G3",
                    "midi": 55,
                    "time": 67.20000000000005,
                    "velocity": 0.3543307086614173,
                    "duration": 0.09999999999999432
                },
                {
                    "name": "A3",
                    "midi": 57,
                    "time": 67.80000000000004,
                    "velocity": 0.3543307086614173,
                    "duration": 0.09999999999999432
                },
                {
                    "name": "A3",
                    "midi": 57,
                    "time": 68.10000000000004,
                    "velocity": 0.3543307086614173,
                    "duration": 0.09999999999999432
                },
                {
                    "name": "G3",
                    "midi": 55,
                    "time": 68.70000000000003,
                    "velocity": 0.3543307086614173,
                    "duration": 0.5999999999999943
                },
                {
                    "name": "B3",
                    "midi": 59,
                    "time": 69.60000000000002,
                    "velocity": 0.49606299212598426,
                    "duration": 0.9000000000000057
                },
                {
                    "name": "G3",
                    "midi": 55,
                    "time": 70.50000000000003,
                    "velocity": 0.3543307086614173,
                    "duration": 0.09999999999999432
                },
                {
                    "name": "G3",
                    "midi": 55,
                    "time": 70.80000000000003,
                    "velocity": 0.3543307086614173,
                    "duration": 0.09999999999999432
                },
                {
                    "name": "A#3",
                    "midi": 58,
                    "time": 71.40000000000002,
                    "velocity": 0.3543307086614173,
                    "duration": 0.09999999999999432
                },
                {
                    "name": "A#3",
                    "midi": 58,
                    "time": 71.70000000000002,
                    "velocity": 0.3543307086614173,
                    "duration": 0.09999999999999432
                },
                {
                    "name": "A3",
                    "midi": 57,
                    "time": 72.30000000000001,
                    "velocity": 0.3543307086614173,
                    "duration": 0.09999999999999432
                },
                {
                    "name": "A3",
                    "midi": 57,
                    "time": 72.60000000000001,
                    "velocity": 0.3543307086614173,
                    "duration": 0.09999999999999432
                },
                {
                    "name": "G#3",
                    "midi": 56,
                    "time": 73.2,
                    "velocity": 0.3543307086614173,
                    "duration": 0.09999999999999432
                },
                {
                    "name": "G#3",
                    "midi": 56,
                    "time": 73.5,
                    "velocity": 0.3543307086614173,
                    "duration": 0.09999999999999432
                },
                {
                    "name": "G3",
                    "midi": 55,
                    "time": 74.1,
                    "velocity": 0.3543307086614173,
                    "duration": 0.09999999999999432
                },
                {
                    "name": "B3",
                    "midi": 59,
                    "time": 74.99999999999999,
                    "velocity": 0.3543307086614173,
                    "duration": 0.09999999999999432
                },
                {
                    "name": "G3",
                    "midi": 55,
                    "time": 75.89999999999998,
                    "velocity": 0.3543307086614173,
                    "duration": 0.5999999999999943
                },
                {
                    "name": "C4",
                    "midi": 60,
                    "time": 77.99999999999997,
                    "velocity": 0.7244094488188977,
                    "duration": 0.29999999999999716
                },
                {
                    "name": "D4",
                    "midi": 62,
                    "time": 78.29999999999997,
                    "velocity": 0.7244094488188977,
                    "duration": 0.29375000000000284
                },
                {
                    "name": "D#4",
                    "midi": 63,
                    "time": 78.59999999999997,
                    "velocity": 0.7244094488188977,
                    "duration": 0.29999999999999716
                },
                {
                    "name": "F4",
                    "midi": 65,
                    "time": 78.89999999999996,
                    "velocity": 0.7244094488188977,
                    "duration": 0.29999999999999716
                },
                {
                    "name": "F#4",
                    "midi": 66,
                    "time": 79.19999999999996,
                    "velocity": 0.7244094488188977,
                    "duration": 0.29375000000000284
                },
                {
                    "name": "G4",
                    "midi": 67,
                    "time": 79.49999999999996,
                    "velocity": 0.7244094488188977,
                    "duration": 0.9000000000000057
                },
                {
                    "name": "F4",
                    "midi": 65,
                    "time": 80.39999999999996,
                    "velocity": 0.7244094488188977,
                    "duration": 0.9000000000000057
                },
                {
                    "name": "D#4",
                    "midi": 63,
                    "time": 81.29999999999997,
                    "velocity": 0.7244094488188977,
                    "duration": 0.5999999999999943
                },
                {
                    "name": "D4",
                    "midi": 62,
                    "time": 81.89999999999996,
                    "velocity": 0.7244094488188977,
                    "duration": 0.29375000000000284
                },
                {
                    "name": "C4",
                    "midi": 60,
                    "time": 82.19999999999996,
                    "velocity": 0.7244094488188977,
                    "duration": 0.29999999999999716
                },
                {
                    "name": "B3",
                    "midi": 59,
                    "time": 82.49999999999996,
                    "velocity": 0.7244094488188977,
                    "duration": 0.29999999999999716
                },
                {
                    "name": "C4",
                    "midi": 60,
                    "time": 82.79999999999995,
                    "velocity": 0.7244094488188977,
                    "duration": 0.29375000000000284
                },
                {
                    "name": "D4",
                    "midi": 62,
                    "time": 83.09999999999995,
                    "velocity": 0.7244094488188977,
                    "duration": 0.5999999999999943
                },
                {
                    "name": "G3",
                    "midi": 55,
                    "time": 83.99999999999994,
                    "velocity": 0.7244094488188977,
                    "duration": 1.1937499999999943
                },
                {
                    "name": "C4",
                    "midi": 60,
                    "time": 85.19999999999993,
                    "velocity": 0.7244094488188977,
                    "duration": 0.29999999999999716
                },
                {
                    "name": "D4",
                    "midi": 62,
                    "time": 85.49999999999993,
                    "velocity": 0.7244094488188977,
                    "duration": 0.29375000000000284
                },
                {
                    "name": "C4",
                    "midi": 60,
                    "time": 85.79999999999993,
                    "velocity": 0.7244094488188977,
                    "duration": 0.29999999999999716
                },
                {
                    "name": "D4",
                    "midi": 62,
                    "time": 86.09999999999992,
                    "velocity": 0.7244094488188977,
                    "duration": 0.29999999999999716
                },
                {
                    "name": "F#4",
                    "midi": 66,
                    "time": 86.39999999999992,
                    "velocity": 0.7244094488188977,
                    "duration": 0.29375000000000284
                },
                {
                    "name": "G4",
                    "midi": 67,
                    "time": 86.69999999999992,
                    "velocity": 0.7244094488188977,
                    "duration": 0.9000000000000057
                },
                {
                    "name": "F4",
                    "midi": 65,
                    "time": 87.59999999999992,
                    "velocity": 0.7244094488188977,
                    "duration": 0.29999999999999716
                },
                {
                    "name": "D#4",
                    "midi": 63,
                    "time": 87.89999999999992,
                    "velocity": 0.7244094488188977,
                    "duration": 0.29999999999999716
                },
                {
                    "name": "D4",
                    "midi": 62,
                    "time": 88.19999999999992,
                    "velocity": 0.7244094488188977,
                    "duration": 0.29999999999999716
                },
                {
                    "name": "C4",
                    "midi": 60,
                    "time": 88.49999999999991,
                    "velocity": 0.7244094488188977,
                    "duration": 0.29375000000000284
                },
                {
                    "name": "G3",
                    "midi": 55,
                    "time": 89.39999999999992,
                    "velocity": 0.7244094488188977,
                    "duration": 0.29375000000000284
                },
                {
                    "name": "C4",
                    "midi": 60,
                    "time": 90.29999999999993,
                    "velocity": 0.5905511811023622,
                    "duration": 0.9000000000000057
                },
                {
                    "name": "C4",
                    "midi": 60,
                    "time": 91.19999999999993,
                    "velocity": 0.3543307086614173,
                    "duration": 0.5
                },
                {
                    "name": "A#3",
                    "midi": 58,
                    "time": 91.79999999999993,
                    "velocity": 0.3543307086614173,
                    "duration": 0.29999999999999716
                },
                {
                    "name": "G#3",
                    "midi": 56,
                    "time": 92.09999999999992,
                    "velocity": 0.3543307086614173,
                    "duration": 0.29999999999999716
                },
                {
                    "name": "G#3",
                    "midi": 56,
                    "time": 92.39999999999992,
                    "velocity": 0.3543307086614173,
                    "duration": 0.29999999999999716
                },
                {
                    "name": "G#3",
                    "midi": 56,
                    "time": 92.69999999999992,
                    "velocity": 0.3543307086614173,
                    "duration": 0.29999999999999716
                },
                {
                    "name": "G#3",
                    "midi": 56,
                    "time": 92.99999999999991,
                    "velocity": 0.3543307086614173,
                    "duration": 0.29999999999999716
                },
                {
                    "name": "G#3",
                    "midi": 56,
                    "time": 93.29999999999991,
                    "velocity": 0.3543307086614173,
                    "duration": 0.29999999999999716
                },
                {
                    "name": "G#3",
                    "midi": 56,
                    "time": 93.59999999999991,
                    "velocity": 0.3543307086614173,
                    "duration": 0.29999999999999716
                },
                {
                    "name": "C4",
                    "midi": 60,
                    "time": 94.1999999999999,
                    "velocity": 0.3543307086614173,
                    "duration": 0.29999999999999716
                },
                {
                    "name": "C4",
                    "midi": 60,
                    "time": 94.4999999999999,
                    "velocity": 0.3543307086614173,
                    "duration": 0.29999999999999716
                },
                {
                    "name": "C4",
                    "midi": 60,
                    "time": 94.7999999999999,
                    "velocity": 0.3543307086614173,
                    "duration": 0.29999999999999716
                },
                {
                    "name": "C4",
                    "midi": 60,
                    "time": 95.0999999999999,
                    "velocity": 0.3543307086614173,
                    "duration": 0.29999999999999716
                },
                {
                    "name": "C4",
                    "midi": 60,
                    "time": 95.39999999999989,
                    "velocity": 0.3543307086614173,
                    "duration": 0.29999999999999716
                },
                {
                    "name": "A#3",
                    "midi": 58,
                    "time": 95.99999999999989,
                    "velocity": 0.3543307086614173,
                    "duration": 0.29999999999999716
                },
                {
                    "name": "A#3",
                    "midi": 58,
                    "time": 96.29999999999988,
                    "velocity": 0.3543307086614173,
                    "duration": 0.29999999999999716
                },
                {
                    "name": "A#3",
                    "midi": 58,
                    "time": 96.59999999999988,
                    "velocity": 0.3543307086614173,
                    "duration": 0.29999999999999716
                },
                {
                    "name": "A#3",
                    "midi": 58,
                    "time": 96.89999999999988,
                    "velocity": 0.3543307086614173,
                    "duration": 0.29999999999999716
                },
                {
                    "name": "A#3",
                    "midi": 58,
                    "time": 97.19999999999987,
                    "velocity": 0.3543307086614173,
                    "duration": 0.29999999999999716
                },
                {
                    "name": "A#3",
                    "midi": 58,
                    "time": 97.79999999999987,
                    "velocity": 0.3543307086614173,
                    "duration": 0.29999999999999716
                },
                {
                    "name": "A#3",
                    "midi": 58,
                    "time": 98.09999999999987,
                    "velocity": 0.3543307086614173,
                    "duration": 0.29999999999999716
                },
                {
                    "name": "A#3",
                    "midi": 58,
                    "time": 98.39999999999986,
                    "velocity": 0.3543307086614173,
                    "duration": 0.29999999999999716
                },
                {
                    "name": "A#3",
                    "midi": 58,
                    "time": 98.69999999999986,
                    "velocity": 0.3543307086614173,
                    "duration": 0.29999999999999716
                },
                {
                    "name": "A#3",
                    "midi": 58,
                    "time": 98.99999999999986,
                    "velocity": 0.3543307086614173,
                    "duration": 0.29999999999999716
                },
                {
                    "name": "C4",
                    "midi": 60,
                    "time": 99.59999999999985,
                    "velocity": 0.3543307086614173,
                    "duration": 0.29999999999999716
                },
                {
                    "name": "C4",
                    "midi": 60,
                    "time": 99.89999999999985,
                    "velocity": 0.3543307086614173,
                    "duration": 0.29999999999999716
                },
                {
                    "name": "D#4",
                    "midi": 63,
                    "time": 100.19999999999985,
                    "velocity": 0.3543307086614173,
                    "duration": 0.29999999999999716
                },
                {
                    "name": "D#4",
                    "midi": 63,
                    "time": 100.49999999999984,
                    "velocity": 0.3543307086614173,
                    "duration": 0.29999999999999716
                },
                {
                    "name": "D#4",
                    "midi": 63,
                    "time": 100.79999999999984,
                    "velocity": 0.3543307086614173,
                    "duration": 0.29999999999999716
                },
                {
                    "name": "A#3",
                    "midi": 58,
                    "time": 101.39999999999984,
                    "velocity": 0.3543307086614173,
                    "duration": 0.29999999999999716
                },
                {
                    "name": "C4",
                    "midi": 60,
                    "time": 101.69999999999983,
                    "velocity": 0.3543307086614173,
                    "duration": 0.29999999999999716
                },
                {
                    "name": "E4",
                    "midi": 64,
                    "time": 101.99999999999983,
                    "velocity": 0.3543307086614173,
                    "duration": 0.29999999999999716
                },
                {
                    "name": "E4",
                    "midi": 64,
                    "time": 102.29999999999983,
                    "velocity": 0.3543307086614173,
                    "duration": 0.29999999999999716
                },
                {
                    "name": "E4",
                    "midi": 64,
                    "time": 102.59999999999982,
                    "velocity": 0.3543307086614173,
                    "duration": 0.29999999999999716
                },
                {
                    "name": "A#3",
                    "midi": 58,
                    "time": 103.19999999999982,
                    "velocity": 0.3543307086614173,
                    "duration": 0.29999999999999716
                },
                {
                    "name": "A#3",
                    "midi": 58,
                    "time": 103.49999999999982,
                    "velocity": 0.3543307086614173,
                    "duration": 0.29999999999999716
                },
                {
                    "name": "A#3",
                    "midi": 58,
                    "time": 103.79999999999981,
                    "velocity": 0.3543307086614173,
                    "duration": 0.29999999999999716
                },
                {
                    "name": "A#3",
                    "midi": 58,
                    "time": 104.09999999999981,
                    "velocity": 0.3543307086614173,
                    "duration": 0.29999999999999716
                },
                {
                    "name": "A#3",
                    "midi": 58,
                    "time": 104.3999999999998,
                    "velocity": 0.3543307086614173,
                    "duration": 0.29999999999999716
                },
                {
                    "name": "A3",
                    "midi": 57,
                    "time": 104.9999999999998,
                    "velocity": 0.3543307086614173,
                    "duration": 0.29999999999999716
                },
                {
                    "name": "A3",
                    "midi": 57,
                    "time": 105.2999999999998,
                    "velocity": 0.3543307086614173,
                    "duration": 0.29999999999999716
                },
                {
                    "name": "A3",
                    "midi": 57,
                    "time": 105.5999999999998,
                    "velocity": 0.3543307086614173,
                    "duration": 0.29999999999999716
                },
                {
                    "name": "A3",
                    "midi": 57,
                    "time": 105.89999999999979,
                    "velocity": 0.3543307086614173,
                    "duration": 0.29999999999999716
                },
                {
                    "name": "A3",
                    "midi": 57,
                    "time": 106.19999999999979,
                    "velocity": 0.3543307086614173,
                    "duration": 0.29999999999999716
                },
                {
                    "name": "A#3",
                    "midi": 58,
                    "time": 106.79999999999978,
                    "velocity": 0.3543307086614173,
                    "duration": 0.29999999999999716
                },
                {
                    "name": "A#3",
                    "midi": 58,
                    "time": 107.09999999999978,
                    "velocity": 0.3543307086614173,
                    "duration": 0.29999999999999716
                },
                {
                    "name": "A#3",
                    "midi": 58,
                    "time": 107.39999999999978,
                    "velocity": 0.3543307086614173,
                    "duration": 0.29999999999999716
                },
                {
                    "name": "A#3",
                    "midi": 58,
                    "time": 107.69999999999978,
                    "velocity": 0.3543307086614173,
                    "duration": 0.29999999999999716
                },
                {
                    "name": "A3",
                    "midi": 57,
                    "time": 107.99999999999977,
                    "velocity": 0.3543307086614173,
                    "duration": 0.29999999999999716
                },
                {
                    "name": "C#4",
                    "midi": 61,
                    "time": 108.59999999999977,
                    "velocity": 0.3543307086614173,
                    "duration": 0.29999999999999716
                },
                {
                    "name": "C#4",
                    "midi": 61,
                    "time": 108.89999999999976,
                    "velocity": 0.3543307086614173,
                    "duration": 0.29999999999999716
                },
                {
                    "name": "F4",
                    "midi": 65,
                    "time": 109.19999999999976,
                    "velocity": 0.3543307086614173,
                    "duration": 0.29999999999999716
                },
                {
                    "name": "F4",
                    "midi": 65,
                    "time": 109.49999999999976,
                    "velocity": 0.3543307086614173,
                    "duration": 0.29999999999999716
                },
                {
                    "name": "F4",
                    "midi": 65,
                    "time": 109.79999999999976,
                    "velocity": 0.3543307086614173,
                    "duration": 0.29999999999999716
                },
                {
                    "name": "C#4",
                    "midi": 61,
                    "time": 110.39999999999975,
                    "velocity": 0.3543307086614173,
                    "duration": 0.29999999999999716
                },
                {
                    "name": "D#4",
                    "midi": 63,
                    "time": 110.69999999999975,
                    "velocity": 0.3543307086614173,
                    "duration": 0.29999999999999716
                },
                {
                    "name": "C#4",
                    "midi": 61,
                    "time": 110.99999999999974,
                    "velocity": 0.3543307086614173,
                    "duration": 0.29999999999999716
                },
                {
                    "name": "D#4",
                    "midi": 63,
                    "time": 111.29999999999974,
                    "velocity": 0.3543307086614173,
                    "duration": 0.29999999999999716
                },
                {
                    "name": "C#4",
                    "midi": 61,
                    "time": 111.59999999999974,
                    "velocity": 0.3543307086614173,
                    "duration": 0.29999999999999716
                },
                {
                    "name": "D#4",
                    "midi": 63,
                    "time": 112.19999999999973,
                    "velocity": 0.3543307086614173,
                    "duration": 0.29999999999999716
                },
                {
                    "name": "D#4",
                    "midi": 63,
                    "time": 112.49999999999973,
                    "velocity": 0.3543307086614173,
                    "duration": 0.29999999999999716
                },
                {
                    "name": "C4",
                    "midi": 60,
                    "time": 112.79999999999973,
                    "velocity": 0.3543307086614173,
                    "duration": 0.29999999999999716
                },
                {
                    "name": "C4",
                    "midi": 60,
                    "time": 113.09999999999972,
                    "velocity": 0.3543307086614173,
                    "duration": 0.29999999999999716
                },
                {
                    "name": "C4",
                    "midi": 60,
                    "time": 113.39999999999972,
                    "velocity": 0.3543307086614173,
                    "duration": 0.29999999999999716
                },
                {
                    "name": "G3",
                    "midi": 55,
                    "time": 113.69999999999972,
                    "velocity": 0.3543307086614173,
                    "duration": 0.9000000000000057
                },
                {
                    "name": "A#3",
                    "midi": 58,
                    "time": 115.49999999999973,
                    "velocity": 0.3543307086614173,
                    "duration": 0.9000000000000057
                },
                {
                    "name": "G3",
                    "midi": 55,
                    "time": 117.29999999999974,
                    "velocity": 0.3543307086614173,
                    "duration": 2.09375
                },
                {
                    "name": "D#3",
                    "midi": 51,
                    "time": 120.89999999999974,
                    "velocity": 0.7244094488188977,
                    "duration": 0.7999999999999972
                },
                {
                    "name": "F3",
                    "midi": 53,
                    "time": 121.79999999999973,
                    "velocity": 0.7244094488188977,
                    "duration": 0.5999999999999943
                },
                {
                    "name": "G3",
                    "midi": 55,
                    "time": 122.39999999999972,
                    "velocity": 0.7244094488188977,
                    "duration": 0.29375000000000284
                },
                {
                    "name": "G#3",
                    "midi": 56,
                    "time": 122.69999999999972,
                    "velocity": 0.7244094488188977,
                    "duration": 0.9000000000000057
                },
                {
                    "name": "C4",
                    "midi": 60,
                    "time": 123.59999999999972,
                    "velocity": 0.7244094488188977,
                    "duration": 0.7999999999999972
                },
                {
                    "name": "C4",
                    "midi": 60,
                    "time": 124.49999999999972,
                    "velocity": 0.7244094488188977,
                    "duration": 1.7999999999999972
                },
                {
                    "name": "A#3",
                    "midi": 58,
                    "time": 126.29999999999971,
                    "velocity": 0.7244094488188977,
                    "duration": 0.7999999999999972
                },
                {
                    "name": "C#4",
                    "midi": 61,
                    "time": 127.1999999999997,
                    "velocity": 0.7244094488188977,
                    "duration": 0.5999999999999943
                },
                {
                    "name": "C4",
                    "midi": 60,
                    "time": 127.7999999999997,
                    "velocity": 0.7244094488188977,
                    "duration": 0.29374999999998863
                },
                {
                    "name": "G#3",
                    "midi": 56,
                    "time": 128.09999999999968,
                    "velocity": 0.7244094488188977,
                    "duration": 0.8000000000000114
                },
                {
                    "name": "C4",
                    "midi": 60,
                    "time": 128.9999999999997,
                    "velocity": 0.7244094488188977,
                    "duration": 0.9000000000000057
                },
                {
                    "name": "G3",
                    "midi": 55,
                    "time": 129.8999999999997,
                    "velocity": 0.7244094488188977,
                    "duration": 0.8000000000000114
                },
                {
                    "name": "C4",
                    "midi": 60,
                    "time": 130.7999999999997,
                    "velocity": 0.7244094488188977,
                    "duration": 0.9000000000000057
                },
                {
                    "name": "F3",
                    "midi": 53,
                    "time": 131.6999999999997,
                    "velocity": 0.7244094488188977,
                    "duration": 2.5999999999999943
                },
                {
                    "name": "F#3",
                    "midi": 54,
                    "time": 134.3999999999997,
                    "velocity": 0.7244094488188977,
                    "duration": 0.5999999999999943
                },
                {
                    "name": "F3",
                    "midi": 53,
                    "time": 134.9999999999997,
                    "velocity": 0.7244094488188977,
                    "duration": 0.29374999999998863
                },
                {
                    "name": "F3",
                    "midi": 53,
                    "time": 135.29999999999967,
                    "velocity": 0.7244094488188977,
                    "duration": 0.8000000000000114
                },
                {
                    "name": "G3",
                    "midi": 55,
                    "time": 136.19999999999968,
                    "velocity": 0.7244094488188977,
                    "duration": 0.5999999999999943
                },
                {
                    "name": "A3",
                    "midi": 57,
                    "time": 136.79999999999967,
                    "velocity": 0.7244094488188977,
                    "duration": 0.29374999999998863
                },
                {
                    "name": "A#3",
                    "midi": 58,
                    "time": 137.09999999999965,
                    "velocity": 0.7244094488188977,
                    "duration": 0.9000000000000057
                },
                {
                    "name": "C#4",
                    "midi": 61,
                    "time": 137.99999999999966,
                    "velocity": 0.7244094488188977,
                    "duration": 0.8000000000000114
                },
                {
                    "name": "C4",
                    "midi": 60,
                    "time": 138.89999999999966,
                    "velocity": 0.7244094488188977,
                    "duration": 0.30000000000001137
                },
                {
                    "name": "B3",
                    "midi": 59,
                    "time": 139.19999999999968,
                    "velocity": 0.7244094488188977,
                    "duration": 0.30000000000001137
                },
                {
                    "name": "C4",
                    "midi": 60,
                    "time": 139.4999999999997,
                    "velocity": 0.7244094488188977,
                    "duration": 0.29374999999998863
                },
                {
                    "name": "F4",
                    "midi": 65,
                    "time": 139.79999999999967,
                    "velocity": 0.7244094488188977,
                    "duration": 0.5999999999999943
                },
                {
                    "name": "D#4",
                    "midi": 63,
                    "time": 140.39999999999966,
                    "velocity": 0.7244094488188977,
                    "duration": 0.29374999999998863
                },
                {
                    "name": "D#4",
                    "midi": 63,
                    "time": 140.69999999999965,
                    "velocity": 0.7244094488188977,
                    "duration": 0.9000000000000057
                },
                {
                    "name": "C#4",
                    "midi": 61,
                    "time": 141.59999999999965,
                    "velocity": 0.7244094488188977,
                    "duration": 1.34375
                },
                {
                    "name": "D#3",
                    "midi": 51,
                    "time": 142.94999999999965,
                    "velocity": 0.7244094488188977,
                    "duration": 0.44999999999998863
                },
                {
                    "name": "F3",
                    "midi": 53,
                    "time": 143.39999999999964,
                    "velocity": 0.7244094488188977,
                    "duration": 0.44999999999998863
                },
                {
                    "name": "G3",
                    "midi": 55,
                    "time": 143.84999999999962,
                    "velocity": 0.7244094488188977,
                    "duration": 0.44999999999998863
                },
                {
                    "name": "G#3",
                    "midi": 56,
                    "time": 144.2999999999996,
                    "velocity": 0.7244094488188977,
                    "duration": 0.9000000000000057
                },
                {
                    "name": "C4",
                    "midi": 60,
                    "time": 145.19999999999962,
                    "velocity": 0.7244094488188977,
                    "duration": 0.8000000000000114
                },
                {
                    "name": "A#3",
                    "midi": 58,
                    "time": 146.09999999999962,
                    "velocity": 0.7244094488188977,
                    "duration": 0.30000000000001137
                },
                {
                    "name": "A3",
                    "midi": 57,
                    "time": 146.39999999999964,
                    "velocity": 0.7244094488188977,
                    "duration": 0.30000000000001137
                },
                {
                    "name": "A#3",
                    "midi": 58,
                    "time": 146.69999999999965,
                    "velocity": 0.7244094488188977,
                    "duration": 0.29374999999998863
                },
                {
                    "name": "D#4",
                    "midi": 63,
                    "time": 146.99999999999963,
                    "velocity": 0.7244094488188977,
                    "duration": 0.5999999999999943
                },
                {
                    "name": "C#4",
                    "midi": 61,
                    "time": 147.59999999999962,
                    "velocity": 0.7244094488188977,
                    "duration": 0.29374999999998863
                },
                {
                    "name": "C#4",
                    "midi": 61,
                    "time": 147.8999999999996,
                    "velocity": 0.7244094488188977,
                    "duration": 0.9000000000000057
                },
                {
                    "name": "C4",
                    "midi": 60,
                    "time": 148.7999999999996,
                    "velocity": 0.7244094488188977,
                    "duration": 1.34375
                },
                {
                    "name": "G#3",
                    "midi": 56,
                    "time": 150.1499999999996,
                    "velocity": 0.7244094488188977,
                    "duration": 0.44999999999998863
                },
                {
                    "name": "A#3",
                    "midi": 58,
                    "time": 150.5999999999996,
                    "velocity": 0.7244094488188977,
                    "duration": 0.44999999999998863
                },
                {
                    "name": "C4",
                    "midi": 60,
                    "time": 151.04999999999959,
                    "velocity": 0.7244094488188977,
                    "duration": 0.44999999999998863
                },
                {
                    "name": "C#4",
                    "midi": 61,
                    "time": 151.49999999999957,
                    "velocity": 0.7244094488188977,
                    "duration": 0.9000000000000057
                },
                {
                    "name": "G#3",
                    "midi": 56,
                    "time": 152.39999999999958,
                    "velocity": 0.7244094488188977,
                    "duration": 0.9000000000000057
                },
                {
                    "name": "D#4",
                    "midi": 63,
                    "time": 153.29999999999959,
                    "velocity": 0.7244094488188977,
                    "duration": 0.8000000000000114
                },
                {
                    "name": "G#3",
                    "midi": 56,
                    "time": 154.1999999999996,
                    "velocity": 0.7244094488188977,
                    "duration": 0.9000000000000057
                },
                {
                    "name": "F4",
                    "midi": 65,
                    "time": 155.0999999999996,
                    "velocity": 0.7244094488188977,
                    "duration": 0.44999999999998863
                },
                {
                    "name": "G4",
                    "midi": 67,
                    "time": 155.54999999999959,
                    "velocity": 0.7244094488188977,
                    "duration": 0.44999999999998863
                },
                {
                    "name": "G#4",
                    "midi": 68,
                    "time": 155.99999999999957,
                    "velocity": 0.7244094488188977,
                    "duration": 1.6999999999999886
                },
                {
                    "name": "G4",
                    "midi": 67,
                    "time": 157.79999999999956,
                    "velocity": 0.7244094488188977,
                    "duration": 0.5999999999999943
                },
                {
                    "name": "F4",
                    "midi": 65,
                    "time": 158.39999999999955,
                    "velocity": 0.7244094488188977,
                    "duration": 0.30000000000001137
                },
                {
                    "name": "D#4",
                    "midi": 63,
                    "time": 158.69999999999956,
                    "velocity": 0.7244094488188977,
                    "duration": 0.8000000000000114
                },
                {
                    "name": "D#4",
                    "midi": 63,
                    "time": 159.59999999999957,
                    "velocity": 0.7244094488188977,
                    "duration": 0.5999999999999943
                },
                {
                    "name": "C4",
                    "midi": 60,
                    "time": 160.19999999999956,
                    "velocity": 0.7244094488188977,
                    "duration": 0.29374999999998863
                },
                {
                    "name": "D#4",
                    "midi": 63,
                    "time": 160.49999999999955,
                    "velocity": 0.7244094488188977,
                    "duration": 0.9000000000000057
                },
                {
                    "name": "C#4",
                    "midi": 61,
                    "time": 161.39999999999955,
                    "velocity": 0.7244094488188977,
                    "duration": 0.9000000000000057
                },
                {
                    "name": "G3",
                    "midi": 55,
                    "time": 162.29999999999956,
                    "velocity": 0.47244094488188976,
                    "duration": 0.5999999999999943
                },
                {
                    "name": "E4",
                    "midi": 64,
                    "time": 162.29999999999956,
                    "velocity": 0.47244094488188976,
                    "duration": 0.5999999999999943
                },
                {
                    "name": "C4",
                    "midi": 60,
                    "time": 165.89999999999955,
                    "velocity": 0.47244094488188976,
                    "duration": 0.15000000000000568
                },
                {
                    "name": "B3",
                    "midi": 59,
                    "time": 166.04999999999956,
                    "velocity": 0.47244094488188976,
                    "duration": 0.09999999999999432
                },
                {
                    "name": "C4",
                    "midi": 60,
                    "time": 166.19999999999956,
                    "velocity": 0.47244094488188976,
                    "duration": 0.09999999999999432
                },
                {
                    "name": "D4",
                    "midi": 62,
                    "time": 166.34999999999957,
                    "velocity": 0.47244094488188976,
                    "duration": 0.09999999999999432
                },
                {
                    "name": "E4",
                    "midi": 64,
                    "time": 166.49999999999957,
                    "velocity": 0.47244094488188976,
                    "duration": 0.09999999999999432
                },
                {
                    "name": "F4",
                    "midi": 65,
                    "time": 166.64999999999958,
                    "velocity": 0.47244094488188976,
                    "duration": 0.09999999999999432
                },
                {
                    "name": "G4",
                    "midi": 67,
                    "time": 166.79999999999959,
                    "velocity": 0.47244094488188976,
                    "duration": 0.09999999999999432
                },
                {
                    "name": "G4",
                    "midi": 67,
                    "time": 167.09999999999957,
                    "velocity": 0.47244094488188976,
                    "duration": 0.09999999999999432
                },
                {
                    "name": "G4",
                    "midi": 67,
                    "time": 167.39999999999955,
                    "velocity": 0.47244094488188976,
                    "duration": 0.09999999999999432
                },
                {
                    "name": "G4",
                    "midi": 67,
                    "time": 167.69999999999953,
                    "velocity": 0.6614173228346457,
                    "duration": 0.29374999999998863
                },
                {
                    "name": "G3",
                    "midi": 55,
                    "time": 170.39999999999952,
                    "velocity": 0.3543307086614173,
                    "duration": 0.09999999999999432
                },
                {
                    "name": "G3",
                    "midi": 55,
                    "time": 170.6999999999995,
                    "velocity": 0.3543307086614173,
                    "duration": 0.09999999999999432
                },
                {
                    "name": "G#3",
                    "midi": 56,
                    "time": 171.2999999999995,
                    "velocity": 0.3543307086614173,
                    "duration": 0.09999999999999432
                },
                {
                    "name": "G#3",
                    "midi": 56,
                    "time": 171.59999999999948,
                    "velocity": 0.3543307086614173,
                    "duration": 0.09999999999999432
                },
                {
                    "name": "G3",
                    "midi": 55,
                    "time": 172.19999999999948,
                    "velocity": 0.3543307086614173,
                    "duration": 0.09999999999999432
                },
                {
                    "name": "G3",
                    "midi": 55,
                    "time": 172.49999999999946,
                    "velocity": 0.3543307086614173,
                    "duration": 0.09999999999999432
                },
                {
                    "name": "B3",
                    "midi": 59,
                    "time": 173.09999999999945,
                    "velocity": 0.3543307086614173,
                    "duration": 0.09999999999999432
                },
                {
                    "name": "B3",
                    "midi": 59,
                    "time": 173.39999999999944,
                    "velocity": 0.3543307086614173,
                    "duration": 0.09999999999999432
                },
                {
                    "name": "G3",
                    "midi": 55,
                    "time": 173.99999999999943,
                    "velocity": 0.3543307086614173,
                    "duration": 0.09999999999999432
                },
                {
                    "name": "G3",
                    "midi": 55,
                    "time": 174.29999999999941,
                    "velocity": 0.3543307086614173,
                    "duration": 0.09999999999999432
                },
                {
                    "name": "A3",
                    "midi": 57,
                    "time": 174.8999999999994,
                    "velocity": 0.3543307086614173,
                    "duration": 0.09999999999999432
                },
                {
                    "name": "A3",
                    "midi": 57,
                    "time": 175.1999999999994,
                    "velocity": 0.3543307086614173,
                    "duration": 0.09999999999999432
                },
                {
                    "name": "G3",
                    "midi": 55,
                    "time": 175.7999999999994,
                    "velocity": 0.3543307086614173,
                    "duration": 0.5999999999999943
                },
                {
                    "name": "B3",
                    "midi": 59,
                    "time": 176.6999999999994,
                    "velocity": 0.3543307086614173,
                    "duration": 0.9000000000000057
                },
                {
                    "name": "G3",
                    "midi": 55,
                    "time": 177.5999999999994,
                    "velocity": 0.3543307086614173,
                    "duration": 0.09999999999999432
                },
                {
                    "name": "G3",
                    "midi": 55,
                    "time": 177.89999999999938,
                    "velocity": 0.3543307086614173,
                    "duration": 0.09999999999999432
                },
                {
                    "name": "G#3",
                    "midi": 56,
                    "time": 178.49999999999937,
                    "velocity": 0.3543307086614173,
                    "duration": 0.09999999999999432
                },
                {
                    "name": "G#3",
                    "midi": 56,
                    "time": 178.79999999999936,
                    "velocity": 0.3543307086614173,
                    "duration": 0.09999999999999432
                },
                {
                    "name": "B3",
                    "midi": 59,
                    "time": 179.39999999999935,
                    "velocity": 0.3543307086614173,
                    "duration": 0.09999999999999432
                },
                {
                    "name": "B3",
                    "midi": 59,
                    "time": 179.69999999999933,
                    "velocity": 0.3543307086614173,
                    "duration": 0.09999999999999432
                },
                {
                    "name": "B3",
                    "midi": 59,
                    "time": 180.29999999999933,
                    "velocity": 0.3543307086614173,
                    "duration": 0.09999999999999432
                },
                {
                    "name": "B3",
                    "midi": 59,
                    "time": 180.5999999999993,
                    "velocity": 0.3543307086614173,
                    "duration": 0.09999999999999432
                },
                {
                    "name": "C4",
                    "midi": 60,
                    "time": 181.1999999999993,
                    "velocity": 0.3543307086614173,
                    "duration": 0.09999999999999432
                },
                {
                    "name": "G3",
                    "midi": 55,
                    "time": 182.0999999999993,
                    "velocity": 0.3543307086614173,
                    "duration": 0.09999999999999432
                },
                {
                    "name": "G3",
                    "midi": 55,
                    "time": 182.99999999999932,
                    "velocity": 0.3543307086614173,
                    "duration": 0.5999999999999943
                },
                {
                    "name": "C4",
                    "midi": 60,
                    "time": 185.0999999999993,
                    "velocity": 0.7244094488188977,
                    "duration": 0.30000000000001137
                },
                {
                    "name": "D4",
                    "midi": 62,
                    "time": 185.39999999999932,
                    "velocity": 0.7244094488188977,
                    "duration": 0.29374999999998863
                },
                {
                    "name": "D#4",
                    "midi": 63,
                    "time": 185.6999999999993,
                    "velocity": 0.7244094488188977,
                    "duration": 0.30000000000001137
                },
                {
                    "name": "F4",
                    "midi": 65,
                    "time": 185.99999999999932,
                    "velocity": 0.7244094488188977,
                    "duration": 0.30000000000001137
                },
                {
                    "name": "F#4",
                    "midi": 66,
                    "time": 186.29999999999933,
                    "velocity": 0.7244094488188977,
                    "duration": 0.29374999999998863
                },
                {
                    "name": "G4",
                    "midi": 67,
                    "time": 186.5999999999993,
                    "velocity": 0.7244094488188977,
                    "duration": 0.8000000000000114
                },
                {
                    "name": "F4",
                    "midi": 65,
                    "time": 187.49999999999932,
                    "velocity": 0.7244094488188977,
                    "duration": 0.8000000000000114
                },
                {
                    "name": "D#4",
                    "midi": 63,
                    "time": 188.39999999999932,
                    "velocity": 0.7244094488188977,
                    "duration": 0.5999999999999943
                },
                {
                    "name": "D4",
                    "midi": 62,
                    "time": 188.99999999999932,
                    "velocity": 0.7244094488188977,
                    "duration": 0.29374999999998863
                },
                {
                    "name": "C4",
                    "midi": 60,
                    "time": 189.2999999999993,
                    "velocity": 0.7244094488188977,
                    "duration": 0.30000000000001137
                },
                {
                    "name": "B3",
                    "midi": 59,
                    "time": 189.5999999999993,
                    "velocity": 0.7244094488188977,
                    "duration": 0.30000000000001137
                },
                {
                    "name": "C4",
                    "midi": 60,
                    "time": 189.89999999999932,
                    "velocity": 0.7244094488188977,
                    "duration": 0.29374999999998863
                },
                {
                    "name": "D4",
                    "midi": 62,
                    "time": 190.1999999999993,
                    "velocity": 0.7244094488188977,
                    "duration": 0.5
                },
                {
                    "name": "G3",
                    "midi": 55,
                    "time": 191.0999999999993,
                    "velocity": 0.7244094488188977,
                    "duration": 1.1937499999999943
                },
                {
                    "name": "C4",
                    "midi": 60,
                    "time": 192.2999999999993,
                    "velocity": 0.7244094488188977,
                    "duration": 0.30000000000001137
                },
                {
                    "name": "D4",
                    "midi": 62,
                    "time": 192.5999999999993,
                    "velocity": 0.7244094488188977,
                    "duration": 0.29374999999998863
                },
                {
                    "name": "C4",
                    "midi": 60,
                    "time": 192.8999999999993,
                    "velocity": 0.7244094488188977,
                    "duration": 0.30000000000001137
                },
                {
                    "name": "D4",
                    "midi": 62,
                    "time": 193.1999999999993,
                    "velocity": 0.7244094488188977,
                    "duration": 0.30000000000001137
                },
                {
                    "name": "F#4",
                    "midi": 66,
                    "time": 193.49999999999932,
                    "velocity": 0.7244094488188977,
                    "duration": 0.29374999999998863
                },
                {
                    "name": "G4",
                    "midi": 67,
                    "time": 193.7999999999993,
                    "velocity": 0.7244094488188977,
                    "duration": 0.8000000000000114
                },
                {
                    "name": "F4",
                    "midi": 65,
                    "time": 194.6999999999993,
                    "velocity": 0.7244094488188977,
                    "duration": 0.30000000000001137
                },
                {
                    "name": "D#4",
                    "midi": 63,
                    "time": 194.99999999999932,
                    "velocity": 0.7244094488188977,
                    "duration": 0.30000000000001137
                },
                {
                    "name": "D4",
                    "midi": 62,
                    "time": 195.29999999999933,
                    "velocity": 0.7244094488188977,
                    "duration": 0.29374999999998863
                },
                {
                    "name": "C4",
                    "midi": 60,
                    "time": 195.5999999999993,
                    "velocity": 0.7244094488188977,
                    "duration": 0.29374999999998863
                },
                {
                    "name": "D4",
                    "midi": 62,
                    "time": 196.4999999999993,
                    "velocity": 0.7244094488188977,
                    "duration": 0.09999999999999432
                },
                {
                    "name": "C4",
                    "midi": 60,
                    "time": 197.3999999999993,
                    "velocity": 0.7244094488188977,
                    "duration": 0.5999999999999943
                },
                {
                    "name": "G3",
                    "midi": 55,
                    "time": 199.19999999999928,
                    "velocity": 0.3543307086614173,
                    "duration": 0.5999999999999943
                },
                {
                    "name": "F3",
                    "midi": 53,
                    "time": 200.09999999999928,
                    "velocity": 0.3543307086614173,
                    "duration": 0.5999999999999943
                },
                {
                    "name": "G3",
                    "midi": 55,
                    "time": 200.9999999999993,
                    "velocity": 0.3543307086614173,
                    "duration": 0.5999999999999943
                },
                {
                    "name": "A#3",
                    "midi": 58,
                    "time": 202.79999999999927,
                    "velocity": 0.3543307086614173,
                    "duration": 0.5999999999999943
                },
                {
                    "name": "A3",
                    "midi": 57,
                    "time": 203.69999999999928,
                    "velocity": 0.3543307086614173,
                    "duration": 0.5999999999999943
                },
                {
                    "name": "A#3",
                    "midi": 58,
                    "time": 204.59999999999928,
                    "velocity": 0.3543307086614173,
                    "duration": 0.5999999999999943
                },
                {
                    "name": "D4",
                    "midi": 62,
                    "time": 206.39999999999927,
                    "velocity": 0.3543307086614173,
                    "duration": 0.5999999999999943
                },
                {
                    "name": "C4",
                    "midi": 60,
                    "time": 207.29999999999927,
                    "velocity": 0.3543307086614173,
                    "duration": 0.5999999999999943
                },
                {
                    "name": "D4",
                    "midi": 62,
                    "time": 208.19999999999928,
                    "velocity": 0.3543307086614173,
                    "duration": 0.9000000000000057
                },
                {
                    "name": "D#4",
                    "midi": 63,
                    "time": 209.09999999999928,
                    "velocity": 0.3543307086614173,
                    "duration": 0.9000000000000057
                },
                {
                    "name": "D4",
                    "midi": 62,
                    "time": 209.9999999999993,
                    "velocity": 0.3543307086614173,
                    "duration": 0.9000000000000057
                },
                {
                    "name": "D#4",
                    "midi": 63,
                    "time": 210.8999999999993,
                    "velocity": 0.3543307086614173,
                    "duration": 0.9000000000000057
                },
                {
                    "name": "F4",
                    "midi": 65,
                    "time": 211.7999999999993,
                    "velocity": 0.3543307086614173,
                    "duration": 0.8000000000000114
                },
                {
                    "name": "G4",
                    "midi": 67,
                    "time": 212.6999999999993,
                    "velocity": 0.49606299212598426,
                    "duration": 1.1937499999999943
                },
                {
                    "name": "G#3",
                    "midi": 56,
                    "time": 213.8999999999993,
                    "velocity": 0.47244094488188976,
                    "duration": 0.09999999999999432
                },
                {
                    "name": "G#3",
                    "midi": 56,
                    "time": 214.19999999999928,
                    "velocity": 0.47244094488188976,
                    "duration": 0.09999999999999432
                },
                {
                    "name": "F3",
                    "midi": 53,
                    "time": 214.79999999999927,
                    "velocity": 0.47244094488188976,
                    "duration": 0.09999999999999432
                },
                {
                    "name": "G3",
                    "midi": 55,
                    "time": 215.09999999999926,
                    "velocity": 0.47244094488188976,
                    "duration": 0.09999999999999432
                },
                {
                    "name": "F3",
                    "midi": 53,
                    "time": 215.69999999999925,
                    "velocity": 0.47244094488188976,
                    "duration": 0.09999999999999432
                },
                {
                    "name": "F3",
                    "midi": 53,
                    "time": 215.99999999999923,
                    "velocity": 0.47244094488188976,
                    "duration": 0.09999999999999432
                },
                {
                    "name": "F3",
                    "midi": 53,
                    "time": 216.29999999999922,
                    "velocity": 0.6614173228346457,
                    "duration": 1.1937499999999943
                },
                {
                    "name": "A#3",
                    "midi": 58,
                    "time": 217.4999999999992,
                    "velocity": 0.47244094488188976,
                    "duration": 0.09999999999999432
                },
                {
                    "name": "A#3",
                    "midi": 58,
                    "time": 217.7999999999992,
                    "velocity": 0.47244094488188976,
                    "duration": 0.09999999999999432
                },
                {
                    "name": "A#3",
                    "midi": 58,
                    "time": 218.39999999999918,
                    "velocity": 0.47244094488188976,
                    "duration": 0.09999999999999432
                },
                {
                    "name": "A#3",
                    "midi": 58,
                    "time": 218.69999999999916,
                    "velocity": 0.47244094488188976,
                    "duration": 0.09999999999999432
                },
                {
                    "name": "A#3",
                    "midi": 58,
                    "time": 218.99999999999915,
                    "velocity": 0.47244094488188976,
                    "duration": 0.5999999999999943
                },
                {
                    "name": "B4",
                    "midi": 71,
                    "time": 219.89999999999915,
                    "velocity": 0.47244094488188976,
                    "duration": 0.9000000000000057
                },
                {
                    "name": "C5",
                    "midi": 72,
                    "time": 220.79999999999916,
                    "velocity": 0.47244094488188976,
                    "duration": 0.8000000000000114
                },
                {
                    "name": "C5",
                    "midi": 72,
                    "time": 221.69999999999916,
                    "velocity": 0.47244094488188976,
                    "duration": 0.9000000000000057
                },
                {
                    "name": "B4",
                    "midi": 71,
                    "time": 222.59999999999917,
                    "velocity": 0.47244094488188976,
                    "duration": 0.5
                },
                {
                    "name": "G3",
                    "midi": 55,
                    "time": 223.49999999999918,
                    "velocity": 0.7244094488188977,
                    "duration": 0.15000000000000568
                },
                {
                    "name": "F#3",
                    "midi": 54,
                    "time": 223.64999999999918,
                    "velocity": 0.7244094488188977,
                    "duration": 0.09999999999999432
                },
                {
                    "name": "G3",
                    "midi": 55,
                    "time": 223.7999999999992,
                    "velocity": 0.7244094488188977,
                    "duration": 0.09999999999999432
                },
                {
                    "name": "A3",
                    "midi": 57,
                    "time": 223.9499999999992,
                    "velocity": 0.7244094488188977,
                    "duration": 0.09999999999999432
                },
                {
                    "name": "A#3",
                    "midi": 58,
                    "time": 224.0999999999992,
                    "velocity": 0.7244094488188977,
                    "duration": 0.09999999999999432
                },
                {
                    "name": "B3",
                    "midi": 59,
                    "time": 224.2499999999992,
                    "velocity": 0.7244094488188977,
                    "duration": 0.09999999999999432
                },
                {
                    "name": "C4",
                    "midi": 60,
                    "time": 224.3999999999992,
                    "velocity": 0.7244094488188977,
                    "duration": 0.09999999999999432
                },
                {
                    "name": "C4",
                    "midi": 60,
                    "time": 224.6999999999992,
                    "velocity": 0.7244094488188977,
                    "duration": 0.09999999999999432
                },
                {
                    "name": "G#3",
                    "midi": 56,
                    "time": 225.2999999999992,
                    "velocity": 0.3543307086614173,
                    "duration": 0.09999999999999432
                },
                {
                    "name": "C4",
                    "midi": 60,
                    "time": 225.2999999999992,
                    "velocity": 0.3543307086614173,
                    "duration": 0.09999999999999432
                },
                {
                    "name": "G#3",
                    "midi": 56,
                    "time": 225.59999999999917,
                    "velocity": 0.3543307086614173,
                    "duration": 0.09999999999999432
                },
                {
                    "name": "C4",
                    "midi": 60,
                    "time": 225.59999999999917,
                    "velocity": 0.3543307086614173,
                    "duration": 0.09999999999999432
                },
                {
                    "name": "G3",
                    "midi": 55,
                    "time": 226.19999999999916,
                    "velocity": 0.3543307086614173,
                    "duration": 0.5999999999999943
                },
                {
                    "name": "B3",
                    "midi": 59,
                    "time": 226.19999999999916,
                    "velocity": 0.3543307086614173,
                    "duration": 0.5999999999999943
                },
                {
                    "name": "G4",
                    "midi": 67,
                    "time": 228.89999999999915,
                    "velocity": 0.3543307086614173,
                    "duration": 0.09999999999999432
                },
                {
                    "name": "G4",
                    "midi": 67,
                    "time": 229.19999999999914,
                    "velocity": 0.3543307086614173,
                    "duration": 0.09999999999999432
                },
                {
                    "name": "G4",
                    "midi": 67,
                    "time": 229.49999999999912,
                    "velocity": 0.3543307086614173,
                    "duration": 0.09999999999999432
                },
                {
                    "name": "G3",
                    "midi": 55,
                    "time": 229.7999999999991,
                    "velocity": 0.3543307086614173,
                    "duration": 0.09999999999999432
                },
                {
                    "name": "G3",
                    "midi": 55,
                    "time": 230.09999999999908,
                    "velocity": 0.3543307086614173,
                    "duration": 0.09999999999999432
                },
                {
                    "name": "G3",
                    "midi": 55,
                    "time": 230.39999999999907,
                    "velocity": 0.3543307086614173,
                    "duration": 0.09999999999999432
                },
                {
                    "name": "G3",
                    "midi": 55,
                    "time": 232.49999999999906,
                    "velocity": 0.3543307086614173,
                    "duration": 0.09999999999999432
                },
                {
                    "name": "G3",
                    "midi": 55,
                    "time": 232.79999999999905,
                    "velocity": 0.3543307086614173,
                    "duration": 0.09999999999999432
                },
                {
                    "name": "G#3",
                    "midi": 56,
                    "time": 233.39999999999904,
                    "velocity": 0.3543307086614173,
                    "duration": 0.09999999999999432
                },
                {
                    "name": "G#3",
                    "midi": 56,
                    "time": 233.69999999999902,
                    "velocity": 0.3543307086614173,
                    "duration": 0.09999999999999432
                },
                {
                    "name": "G3",
                    "midi": 55,
                    "time": 234.29999999999902,
                    "velocity": 0.3543307086614173,
                    "duration": 0.09999999999999432
                },
                {
                    "name": "G3",
                    "midi": 55,
                    "time": 234.599999999999,
                    "velocity": 0.3543307086614173,
                    "duration": 0.09999999999999432
                },
                {
                    "name": "B3",
                    "midi": 59,
                    "time": 235.199999999999,
                    "velocity": 0.3543307086614173,
                    "duration": 0.09999999999999432
                },
                {
                    "name": "B3",
                    "midi": 59,
                    "time": 235.49999999999898,
                    "velocity": 0.3543307086614173,
                    "duration": 0.09999999999999432
                },
                {
                    "name": "G3",
                    "midi": 55,
                    "time": 236.09999999999897,
                    "velocity": 0.3543307086614173,
                    "duration": 0.09999999999999432
                },
                {
                    "name": "G3",
                    "midi": 55,
                    "time": 236.39999999999895,
                    "velocity": 0.3543307086614173,
                    "duration": 0.09999999999999432
                },
                {
                    "name": "A3",
                    "midi": 57,
                    "time": 236.99999999999895,
                    "velocity": 0.3543307086614173,
                    "duration": 0.09999999999999432
                },
                {
                    "name": "A3",
                    "midi": 57,
                    "time": 237.29999999999893,
                    "velocity": 0.3543307086614173,
                    "duration": 0.09999999999999432
                },
                {
                    "name": "G3",
                    "midi": 55,
                    "time": 237.89999999999893,
                    "velocity": 0.3543307086614173,
                    "duration": 0.5999999999999943
                },
                {
                    "name": "B3",
                    "midi": 59,
                    "time": 238.79999999999893,
                    "velocity": 0.49606299212598426,
                    "duration": 0.9000000000000057
                },
                {
                    "name": "G3",
                    "midi": 55,
                    "time": 239.69999999999894,
                    "velocity": 0.3543307086614173,
                    "duration": 0.09999999999999432
                },
                {
                    "name": "G3",
                    "midi": 55,
                    "time": 239.99999999999892,
                    "velocity": 0.3543307086614173,
                    "duration": 0.09999999999999432
                },
                {
                    "name": "A#3",
                    "midi": 58,
                    "time": 240.59999999999891,
                    "velocity": 0.3543307086614173,
                    "duration": 0.09999999999999432
                },
                {
                    "name": "A#3",
                    "midi": 58,
                    "time": 240.8999999999989,
                    "velocity": 0.3543307086614173,
                    "duration": 0.09999999999999432
                },
                {
                    "name": "A3",
                    "midi": 57,
                    "time": 241.4999999999989,
                    "velocity": 0.3543307086614173,
                    "duration": 0.09999999999999432
                },
                {
                    "name": "A3",
                    "midi": 57,
                    "time": 241.79999999999887,
                    "velocity": 0.3543307086614173,
                    "duration": 0.09999999999999432
                },
                {
                    "name": "G#3",
                    "midi": 56,
                    "time": 242.39999999999887,
                    "velocity": 0.3543307086614173,
                    "duration": 0.09999999999999432
                },
                {
                    "name": "G#3",
                    "midi": 56,
                    "time": 242.69999999999885,
                    "velocity": 0.3543307086614173,
                    "duration": 0.09999999999999432
                },
                {
                    "name": "G3",
                    "midi": 55,
                    "time": 243.29999999999885,
                    "velocity": 0.3543307086614173,
                    "duration": 0.09999999999999432
                },
                {
                    "name": "B3",
                    "midi": 59,
                    "time": 244.19999999999885,
                    "velocity": 0.3543307086614173,
                    "duration": 0.09999999999999432
                },
                {
                    "name": "G3",
                    "midi": 55,
                    "time": 245.09999999999886,
                    "velocity": 0.3543307086614173,
                    "duration": 0.5999999999999943
                },
                {
                    "name": "C4",
                    "midi": 60,
                    "time": 247.19999999999885,
                    "velocity": 0.7244094488188977,
                    "duration": 0.30000000000001137
                },
                {
                    "name": "D4",
                    "midi": 62,
                    "time": 247.49999999999886,
                    "velocity": 0.7244094488188977,
                    "duration": 0.29374999999998863
                },
                {
                    "name": "D#4",
                    "midi": 63,
                    "time": 247.79999999999885,
                    "velocity": 0.7244094488188977,
                    "duration": 0.30000000000001137
                },
                {
                    "name": "F4",
                    "midi": 65,
                    "time": 248.09999999999886,
                    "velocity": 0.7244094488188977,
                    "duration": 0.30000000000001137
                },
                {
                    "name": "F#4",
                    "midi": 66,
                    "time": 248.39999999999887,
                    "velocity": 0.7244094488188977,
                    "duration": 0.29374999999998863
                },
                {
                    "name": "G4",
                    "midi": 67,
                    "time": 248.69999999999885,
                    "velocity": 0.7244094488188977,
                    "duration": 0.9000000000000057
                },
                {
                    "name": "F4",
                    "midi": 65,
                    "time": 249.59999999999886,
                    "velocity": 0.7244094488188977,
                    "duration": 0.9000000000000057
                },
                {
                    "name": "D#4",
                    "midi": 63,
                    "time": 250.49999999999886,
                    "velocity": 0.7244094488188977,
                    "duration": 0.5999999999999943
                },
                {
                    "name": "D4",
                    "midi": 62,
                    "time": 251.09999999999886,
                    "velocity": 0.7244094488188977,
                    "duration": 0.29374999999998863
                },
                {
                    "name": "C4",
                    "midi": 60,
                    "time": 251.39999999999884,
                    "velocity": 0.7244094488188977,
                    "duration": 0.30000000000001137
                },
                {
                    "name": "B3",
                    "midi": 59,
                    "time": 251.69999999999885,
                    "velocity": 0.7244094488188977,
                    "duration": 0.30000000000001137
                },
                {
                    "name": "C4",
                    "midi": 60,
                    "time": 251.99999999999886,
                    "velocity": 0.7244094488188977,
                    "duration": 0.29374999999998863
                },
                {
                    "name": "D4",
                    "midi": 62,
                    "time": 252.29999999999885,
                    "velocity": 0.7244094488188977,
                    "duration": 0.5999999999999943
                },
                {
                    "name": "G3",
                    "midi": 55,
                    "time": 253.19999999999885,
                    "velocity": 0.7244094488188977,
                    "duration": 1.1937499999999943
                },
                {
                    "name": "C4",
                    "midi": 60,
                    "time": 254.39999999999884,
                    "velocity": 0.7244094488188977,
                    "duration": 0.30000000000001137
                },
                {
                    "name": "D4",
                    "midi": 62,
                    "time": 254.69999999999885,
                    "velocity": 0.7244094488188977,
                    "duration": 0.29374999999998863
                },
                {
                    "name": "C4",
                    "midi": 60,
                    "time": 254.99999999999883,
                    "velocity": 0.7244094488188977,
                    "duration": 0.30000000000001137
                },
                {
                    "name": "D4",
                    "midi": 62,
                    "time": 255.29999999999885,
                    "velocity": 0.7244094488188977,
                    "duration": 0.30000000000001137
                },
                {
                    "name": "F#4",
                    "midi": 66,
                    "time": 255.59999999999886,
                    "velocity": 0.7244094488188977,
                    "duration": 0.29374999999998863
                },
                {
                    "name": "G4",
                    "midi": 67,
                    "time": 255.89999999999884,
                    "velocity": 0.7244094488188977,
                    "duration": 0.8999999999999773
                },
                {
                    "name": "F4",
                    "midi": 65,
                    "time": 256.7999999999988,
                    "velocity": 0.7244094488188977,
                    "duration": 0.30000000000001137
                },
                {
                    "name": "D#4",
                    "midi": 63,
                    "time": 257.09999999999883,
                    "velocity": 0.7244094488188977,
                    "duration": 0.30000000000001137
                },
                {
                    "name": "D4",
                    "midi": 62,
                    "time": 257.39999999999884,
                    "velocity": 0.7244094488188977,
                    "duration": 0.30000000000001137
                },
                {
                    "name": "C4",
                    "midi": 60,
                    "time": 257.69999999999885,
                    "velocity": 0.7244094488188977,
                    "duration": 0.29374999999998863
                },
                {
                    "name": "G3",
                    "midi": 55,
                    "time": 258.59999999999883,
                    "velocity": 0.7244094488188977,
                    "duration": 0.29374999999998863
                },
                {
                    "name": "C4",
                    "midi": 60,
                    "time": 259.4999999999988,
                    "velocity": 0.7244094488188977,
                    "duration": 0.6000000000000227
                },
                {
                    "name": "C4",
                    "midi": 60,
                    "time": 260.09999999999883,
                    "velocity": 0.7244094488188977,
                    "duration": 0.29374999999998863
                },
                {
                    "name": "C4",
                    "midi": 60,
                    "time": 260.39999999999884,
                    "velocity": 1,
                    "duration": 0.10000000000002274
                },
                {
                    "name": "D4",
                    "midi": 62,
                    "time": 260.69999999999885,
                    "velocity": 1,
                    "duration": 0.10000000000002274
                },
                {
                    "name": "D#4",
                    "midi": 63,
                    "time": 260.99999999999886,
                    "velocity": 1,
                    "duration": 0.10000000000002274
                },
                {
                    "name": "F4",
                    "midi": 65,
                    "time": 261.2999999999989,
                    "velocity": 1,
                    "duration": 0.10000000000002274
                },
                {
                    "name": "G4",
                    "midi": 67,
                    "time": 261.5999999999989,
                    "velocity": 1,
                    "duration": 0.10000000000002274
                },
                {
                    "name": "G#4",
                    "midi": 68,
                    "time": 261.8999999999989,
                    "velocity": 1,
                    "duration": 0.10000000000002274
                },
                {
                    "name": "A#4",
                    "midi": 70,
                    "time": 262.1999999999989,
                    "velocity": 1,
                    "duration": 0.10000000000002274
                },
                {
                    "name": "C5",
                    "midi": 72,
                    "time": 262.4999999999989,
                    "velocity": 1,
                    "duration": 0.10000000000002274
                },
                {
                    "name": "D4",
                    "midi": 62,
                    "time": 262.79999999999893,
                    "velocity": 1,
                    "duration": 0.10000000000002274
                },
                {
                    "name": "D#4",
                    "midi": 63,
                    "time": 263.09999999999894,
                    "velocity": 1,
                    "duration": 0.10000000000002274
                },
                {
                    "name": "F4",
                    "midi": 65,
                    "time": 263.39999999999895,
                    "velocity": 1,
                    "duration": 0.10000000000002274
                },
                {
                    "name": "A#3",
                    "midi": 58,
                    "time": 263.69999999999897,
                    "velocity": 1,
                    "duration": 0.10000000000002274
                },
                {
                    "name": "C4",
                    "midi": 60,
                    "time": 263.999999999999,
                    "velocity": 1,
                    "duration": 1.6999999999999886
                },
                {
                    "name": "B3",
                    "midi": 59,
                    "time": 265.799999999999,
                    "velocity": 0.8503937007874016,
                    "duration": 0.8999999999999773
                },
                {
                    "name": "C4",
                    "midi": 60,
                    "time": 266.69999999999897,
                    "velocity": 0.8503937007874016,
                    "duration": 0.6000000000000227
                },
                {
                    "name": "C4",
                    "midi": 60,
                    "time": 267.299999999999,
                    "velocity": 0.7244094488188977,
                    "duration": 0.29374999999998863
                },
                {
                    "name": "C4",
                    "midi": 60,
                    "time": 267.599999999999,
                    "velocity": 1,
                    "duration": 0.10000000000002274
                },
                {
                    "name": "D4",
                    "midi": 62,
                    "time": 267.899999999999,
                    "velocity": 1,
                    "duration": 0.10000000000002274
                },
                {
                    "name": "D#4",
                    "midi": 63,
                    "time": 268.199999999999,
                    "velocity": 1,
                    "duration": 0.10000000000002274
                },
                {
                    "name": "F4",
                    "midi": 65,
                    "time": 268.49999999999903,
                    "velocity": 1,
                    "duration": 0.10000000000002274
                },
                {
                    "name": "G4",
                    "midi": 67,
                    "time": 268.79999999999905,
                    "velocity": 1,
                    "duration": 0.10000000000002274
                },
                {
                    "name": "G#4",
                    "midi": 68,
                    "time": 269.09999999999906,
                    "velocity": 1,
                    "duration": 0.10000000000002274
                },
                {
                    "name": "A#4",
                    "midi": 70,
                    "time": 269.39999999999907,
                    "velocity": 1,
                    "duration": 0.10000000000002274
                },
                {
                    "name": "C5",
                    "midi": 72,
                    "time": 269.6999999999991,
                    "velocity": 1,
                    "duration": 0.10000000000002274
                },
                {
                    "name": "D4",
                    "midi": 62,
                    "time": 269.9999999999991,
                    "velocity": 1,
                    "duration": 0.10000000000002274
                },
                {
                    "name": "D#4",
                    "midi": 63,
                    "time": 270.2999999999991,
                    "velocity": 1,
                    "duration": 0.10000000000002274
                },
                {
                    "name": "F4",
                    "midi": 65,
                    "time": 270.5999999999991,
                    "velocity": 1,
                    "duration": 0.10000000000002274
                },
                {
                    "name": "A#3",
                    "midi": 58,
                    "time": 270.8999999999991,
                    "velocity": 1,
                    "duration": 0.10000000000002274
                },
                {
                    "name": "C4",
                    "midi": 60,
                    "time": 271.19999999999914,
                    "velocity": 1,
                    "duration": 1.6999999999999886
                },
                {
                    "name": "B3",
                    "midi": 59,
                    "time": 272.99999999999915,
                    "velocity": 0.8503937007874016,
                    "duration": 0.8999999999999773
                },
                {
                    "name": "C4",
                    "midi": 60,
                    "time": 273.8999999999991,
                    "velocity": 0.8503937007874016,
                    "duration": 0.6000000000000227
                },
                {
                    "name": "G3",
                    "midi": 55,
                    "time": 274.49999999999915,
                    "velocity": 0.47244094488188976,
                    "duration": 0.29374999999998863
                },
                {
                    "name": "G3",
                    "midi": 55,
                    "time": 274.79999999999916,
                    "velocity": 0.47244094488188976,
                    "duration": 0.30000000000001137
                },
                {
                    "name": "D3",
                    "midi": 50,
                    "time": 275.09999999999917,
                    "velocity": 0.47244094488188976,
                    "duration": 0.30000000000001137
                },
                {
                    "name": "G3",
                    "midi": 55,
                    "time": 275.3999999999992,
                    "velocity": 0.47244094488188976,
                    "duration": 0.29374999999998863
                },
                {
                    "name": "G3",
                    "midi": 55,
                    "time": 275.6999999999992,
                    "velocity": 0.47244094488188976,
                    "duration": 0.30000000000001137
                },
                {
                    "name": "E3",
                    "midi": 52,
                    "time": 275.9999999999992,
                    "velocity": 0.47244094488188976,
                    "duration": 0.30000000000001137
                },
                {
                    "name": "G3",
                    "midi": 55,
                    "time": 276.2999999999992,
                    "velocity": 0.47244094488188976,
                    "duration": 0.29374999999998863
                },
                {
                    "name": "G3",
                    "midi": 55,
                    "time": 276.5999999999992,
                    "velocity": 0.47244094488188976,
                    "duration": 0.30000000000001137
                },
                {
                    "name": "D3",
                    "midi": 50,
                    "time": 276.89999999999924,
                    "velocity": 0.47244094488188976,
                    "duration": 0.30000000000001137
                },
                {
                    "name": "G3",
                    "midi": 55,
                    "time": 277.19999999999925,
                    "velocity": 0.47244094488188976,
                    "duration": 0.29374999999998863
                },
                {
                    "name": "G3",
                    "midi": 55,
                    "time": 277.49999999999926,
                    "velocity": 0.47244094488188976,
                    "duration": 0.6000000000000227
                },
                {
                    "name": "G3",
                    "midi": 55,
                    "time": 278.0999999999993,
                    "velocity": 0.7244094488188977,
                    "duration": 0.29374999999998863
                },
                {
                    "name": "G3",
                    "midi": 55,
                    "time": 278.3999999999993,
                    "velocity": 0.7244094488188977,
                    "duration": 0.30000000000001137
                },
                {
                    "name": "D3",
                    "midi": 50,
                    "time": 278.6999999999993,
                    "velocity": 0.7244094488188977,
                    "duration": 0.30000000000001137
                },
                {
                    "name": "G3",
                    "midi": 55,
                    "time": 278.9999999999993,
                    "velocity": 0.7244094488188977,
                    "duration": 0.29374999999998863
                },
                {
                    "name": "C4",
                    "midi": 60,
                    "time": 279.29999999999933,
                    "velocity": 0.7244094488188977,
                    "duration": 0.5
                },
                {
                    "name": "C4",
                    "midi": 60,
                    "time": 279.89999999999935,
                    "velocity": 0.7244094488188977,
                    "duration": 0.10000000000002274
                },
                {
                    "name": "C4",
                    "midi": 60,
                    "time": 280.0499999999994,
                    "velocity": 0.7244094488188977,
                    "duration": 0.10000000000002274
                },
                {
                    "name": "B3",
                    "midi": 59,
                    "time": 280.1999999999994,
                    "velocity": 0.7244094488188977,
                    "duration": 0.29374999999998863
                },
                {
                    "name": "B3",
                    "midi": 59,
                    "time": 280.49999999999943,
                    "velocity": 0.7244094488188977,
                    "duration": 0.29374999999998863
                },
                {
                    "name": "B3",
                    "midi": 59,
                    "time": 280.79999999999944,
                    "velocity": 0.7244094488188977,
                    "duration": 0.29374999999998863
                },
                {
                    "name": "C4",
                    "midi": 60,
                    "time": 281.09999999999945,
                    "velocity": 0.7244094488188977,
                    "duration": 0.29374999999998863
                },
                {
                    "name": "C4",
                    "midi": 60,
                    "time": 281.39999999999947,
                    "velocity": 0.7244094488188977,
                    "duration": 0.29374999999998863
                },
                {
                    "name": "C4",
                    "midi": 60,
                    "time": 281.6999999999995,
                    "velocity": 0.7244094488188977,
                    "duration": 0.29374999999998863
                },
                {
                    "name": "B3",
                    "midi": 59,
                    "time": 281.9999999999995,
                    "velocity": 0.7244094488188977,
                    "duration": 0.29374999999998863
                },
                {
                    "name": "B3",
                    "midi": 59,
                    "time": 282.2999999999995,
                    "velocity": 0.7244094488188977,
                    "duration": 0.29374999999998863
                },
                {
                    "name": "B3",
                    "midi": 59,
                    "time": 282.5999999999995,
                    "velocity": 0.7244094488188977,
                    "duration": 0.29374999999998863
                },
                {
                    "name": "C5",
                    "midi": 72,
                    "time": 282.8999999999995,
                    "velocity": 0.7244094488188977,
                    "duration": 0.29374999999998863
                },
                {
                    "name": "G4",
                    "midi": 67,
                    "time": 283.19999999999953,
                    "velocity": 0.7244094488188977,
                    "duration": 0.29374999999998863
                },
                {
                    "name": "D#4",
                    "midi": 63,
                    "time": 283.49999999999955,
                    "velocity": 0.7244094488188977,
                    "duration": 0.29374999999998863
                },
                {
                    "name": "C4",
                    "midi": 60,
                    "time": 283.79999999999956,
                    "velocity": 0.7244094488188977,
                    "duration": 0.29374999999998863
                },
                {
                    "name": "G3",
                    "midi": 55,
                    "time": 284.09999999999957,
                    "velocity": 0.7244094488188977,
                    "duration": 0.29374999999998863
                },
                {
                    "name": "D#3",
                    "midi": 51,
                    "time": 284.3999999999996,
                    "velocity": 0.7244094488188977,
                    "duration": 0.29374999999998863
                },
                {
                    "name": "D#3",
                    "midi": 51,
                    "time": 284.6999999999996,
                    "velocity": 0.7244094488188977,
                    "duration": 0.6000000000000227
                },
                {
                    "name": "G4",
                    "midi": 67,
                    "time": 285.5999999999996,
                    "velocity": 0.7244094488188977,
                    "duration": 0.6000000000000227
                },
                {
                    "name": "D#3",
                    "midi": 51,
                    "time": 286.3499999999996,
                    "velocity": 0.7244094488188977,
                    "duration": 0.10000000000002274
                },
                {
                    "name": "D#3",
                    "midi": 51,
                    "time": 286.49999999999966,
                    "velocity": 0.7244094488188977,
                    "duration": 0.8999999999999773
                }
            ],
            "controlChanges": {
                "7": [
                    {
                        "number": 7,
                        "time": 0,
                        "value": 1
                    }
                ],
                "10": [
                    {
                        "number": 10,
                        "time": 0,
                        "value": 0.5196850393700787
                    }
                ],
                "91": [
                    {
                        "number": 91,
                        "time": 0,
                        "value": 0.9606299212598425
                    }
                ]
            },
            "id": 19,
            "instrumentNumber": 48,
            "instrument": "string ensemble 1",
            "instrumentFamily": "ensemble",
            "channelNumber": 13,
            "isPercussion": false
        },
        {
            "startTime": 1.2,
            "duration": 287.4000000000001,
            "length": 511,
            "notes": [
                {
                    "name": "C3",
                    "midi": 48,
                    "time": 1.2,
                    "velocity": 0.3543307086614173,
                    "duration": 0.10000000000000009
                },
                {
                    "name": "C3",
                    "midi": 48,
                    "time": 1.5,
                    "velocity": 0.3543307086614173,
                    "duration": 0.10000000000000009
                },
                {
                    "name": "D3",
                    "midi": 50,
                    "time": 2.1,
                    "velocity": 0.3543307086614173,
                    "duration": 0.10000000000000009
                },
                {
                    "name": "D3",
                    "midi": 50,
                    "time": 2.4000000000000004,
                    "velocity": 0.3543307086614173,
                    "duration": 0.10000000000000009
                },
                {
                    "name": "G3",
                    "midi": 55,
                    "time": 3.0000000000000004,
                    "velocity": 0.3543307086614173,
                    "duration": 0.10000000000000009
                },
                {
                    "name": "G3",
                    "midi": 55,
                    "time": 3.3000000000000007,
                    "velocity": 0.3543307086614173,
                    "duration": 0.10000000000000009
                },
                {
                    "name": "G2",
                    "midi": 43,
                    "time": 3.900000000000001,
                    "velocity": 0.3543307086614173,
                    "duration": 0.10000000000000009
                },
                {
                    "name": "G2",
                    "midi": 43,
                    "time": 4.200000000000001,
                    "velocity": 0.3543307086614173,
                    "duration": 0.09999999999999964
                },
                {
                    "name": "C3",
                    "midi": 48,
                    "time": 4.800000000000001,
                    "velocity": 0.3543307086614173,
                    "duration": 0.09999999999999964
                },
                {
                    "name": "C3",
                    "midi": 48,
                    "time": 5.1000000000000005,
                    "velocity": 0.3543307086614173,
                    "duration": 0.09999999999999964
                },
                {
                    "name": "F#3",
                    "midi": 54,
                    "time": 5.7,
                    "velocity": 0.3543307086614173,
                    "duration": 0.09999999999999964
                },
                {
                    "name": "F#3",
                    "midi": 54,
                    "time": 6,
                    "velocity": 0.3543307086614173,
                    "duration": 0.09999999999999964
                },
                {
                    "name": "G3",
                    "midi": 55,
                    "time": 6.6,
                    "velocity": 0.3543307086614173,
                    "duration": 0.5999999999999996
                },
                {
                    "name": "G2",
                    "midi": 43,
                    "time": 7.499999999999999,
                    "velocity": 0.3543307086614173,
                    "duration": 0.8999999999999995
                },
                {
                    "name": "C3",
                    "midi": 48,
                    "time": 8.399999999999999,
                    "velocity": 0.3543307086614173,
                    "duration": 0.09999999999999964
                },
                {
                    "name": "C3",
                    "midi": 48,
                    "time": 8.699999999999998,
                    "velocity": 0.3543307086614173,
                    "duration": 0.09999999999999964
                },
                {
                    "name": "D3",
                    "midi": 50,
                    "time": 9.299999999999997,
                    "velocity": 0.3543307086614173,
                    "duration": 0.09999999999999964
                },
                {
                    "name": "D3",
                    "midi": 50,
                    "time": 9.599999999999996,
                    "velocity": 0.3543307086614173,
                    "duration": 0.09999999999999964
                },
                {
                    "name": "G3",
                    "midi": 55,
                    "time": 10.199999999999996,
                    "velocity": 0.3543307086614173,
                    "duration": 0.09999999999999964
                },
                {
                    "name": "G3",
                    "midi": 55,
                    "time": 10.499999999999995,
                    "velocity": 0.3543307086614173,
                    "duration": 0.09999999999999964
                },
                {
                    "name": "G2",
                    "midi": 43,
                    "time": 11.099999999999994,
                    "velocity": 0.3543307086614173,
                    "duration": 0.09999999999999964
                },
                {
                    "name": "G2",
                    "midi": 43,
                    "time": 11.399999999999993,
                    "velocity": 0.3543307086614173,
                    "duration": 0.09999999999999964
                },
                {
                    "name": "C3",
                    "midi": 48,
                    "time": 11.999999999999993,
                    "velocity": 0.3543307086614173,
                    "duration": 0.09999999999999964
                },
                {
                    "name": "G2",
                    "midi": 43,
                    "time": 12.899999999999993,
                    "velocity": 0.3543307086614173,
                    "duration": 0.09999999999999964
                },
                {
                    "name": "C3",
                    "midi": 48,
                    "time": 13.799999999999994,
                    "velocity": 0.3543307086614173,
                    "duration": 0.5999999999999996
                },
                {
                    "name": "C4",
                    "midi": 60,
                    "time": 15.899999999999993,
                    "velocity": 0.7244094488188977,
                    "duration": 0.29999999999999893
                },
                {
                    "name": "D4",
                    "midi": 62,
                    "time": 16.199999999999992,
                    "velocity": 0.7244094488188977,
                    "duration": 0.2937499999999993
                },
                {
                    "name": "D#4",
                    "midi": 63,
                    "time": 16.499999999999993,
                    "velocity": 0.7244094488188977,
                    "duration": 0.3000000000000007
                },
                {
                    "name": "F4",
                    "midi": 65,
                    "time": 16.799999999999994,
                    "velocity": 0.7244094488188977,
                    "duration": 0.3000000000000007
                },
                {
                    "name": "F#4",
                    "midi": 66,
                    "time": 17.099999999999994,
                    "velocity": 0.7244094488188977,
                    "duration": 0.2937499999999993
                },
                {
                    "name": "G4",
                    "midi": 67,
                    "time": 17.399999999999995,
                    "velocity": 0.7244094488188977,
                    "duration": 0.8000000000000007
                },
                {
                    "name": "F4",
                    "midi": 65,
                    "time": 18.299999999999997,
                    "velocity": 0.7244094488188977,
                    "duration": 0.8000000000000007
                },
                {
                    "name": "D#4",
                    "midi": 63,
                    "time": 19.2,
                    "velocity": 0.7244094488188977,
                    "duration": 0.6000000000000014
                },
                {
                    "name": "D4",
                    "midi": 62,
                    "time": 19.8,
                    "velocity": 0.7244094488188977,
                    "duration": 0.2937499999999993
                },
                {
                    "name": "C4",
                    "midi": 60,
                    "time": 20.1,
                    "velocity": 0.7244094488188977,
                    "duration": 0.3000000000000007
                },
                {
                    "name": "B3",
                    "midi": 59,
                    "time": 20.400000000000002,
                    "velocity": 0.7244094488188977,
                    "duration": 0.3000000000000007
                },
                {
                    "name": "C4",
                    "midi": 60,
                    "time": 20.700000000000003,
                    "velocity": 0.7244094488188977,
                    "duration": 0.2937499999999993
                },
                {
                    "name": "D4",
                    "midi": 62,
                    "time": 21.000000000000004,
                    "velocity": 0.7244094488188977,
                    "duration": 0.5
                },
                {
                    "name": "G3",
                    "midi": 55,
                    "time": 21.900000000000002,
                    "velocity": 0.7244094488188977,
                    "duration": 1.1937500000000014
                },
                {
                    "name": "C4",
                    "midi": 60,
                    "time": 23.100000000000005,
                    "velocity": 0.7244094488188977,
                    "duration": 0.3000000000000007
                },
                {
                    "name": "D4",
                    "midi": 62,
                    "time": 23.400000000000006,
                    "velocity": 0.7244094488188977,
                    "duration": 0.2937499999999993
                },
                {
                    "name": "C4",
                    "midi": 60,
                    "time": 23.700000000000006,
                    "velocity": 0.7244094488188977,
                    "duration": 0.3000000000000007
                },
                {
                    "name": "D4",
                    "midi": 62,
                    "time": 24.000000000000007,
                    "velocity": 0.7244094488188977,
                    "duration": 0.3000000000000007
                },
                {
                    "name": "F#4",
                    "midi": 66,
                    "time": 24.300000000000008,
                    "velocity": 0.7244094488188977,
                    "duration": 0.2937499999999993
                },
                {
                    "name": "G4",
                    "midi": 67,
                    "time": 24.60000000000001,
                    "velocity": 0.7244094488188977,
                    "duration": 0.8000000000000007
                },
                {
                    "name": "F4",
                    "midi": 65,
                    "time": 25.50000000000001,
                    "velocity": 0.7244094488188977,
                    "duration": 0.3000000000000007
                },
                {
                    "name": "D#4",
                    "midi": 63,
                    "time": 25.80000000000001,
                    "velocity": 0.7244094488188977,
                    "duration": 0.3000000000000007
                },
                {
                    "name": "D4",
                    "midi": 62,
                    "time": 26.100000000000012,
                    "velocity": 0.7244094488188977,
                    "duration": 0.2937499999999993
                },
                {
                    "name": "C4",
                    "midi": 60,
                    "time": 26.400000000000013,
                    "velocity": 0.7244094488188977,
                    "duration": 0.2937499999999993
                },
                {
                    "name": "G3",
                    "midi": 55,
                    "time": 27.30000000000001,
                    "velocity": 0.7244094488188977,
                    "duration": 0.2937499999999993
                },
                {
                    "name": "C3",
                    "midi": 48,
                    "time": 28.20000000000001,
                    "velocity": 0.7244094488188977,
                    "duration": 0.6000000000000014
                },
                {
                    "name": "D#3",
                    "midi": 51,
                    "time": 30.00000000000001,
                    "velocity": 0.3543307086614173,
                    "duration": 0.6000000000000014
                },
                {
                    "name": "A#2",
                    "midi": 46,
                    "time": 30.900000000000013,
                    "velocity": 0.3543307086614173,
                    "duration": 0.6000000000000014
                },
                {
                    "name": "D#3",
                    "midi": 51,
                    "time": 31.800000000000015,
                    "velocity": 0.3543307086614173,
                    "duration": 0.5999999999999979
                },
                {
                    "name": "G3",
                    "midi": 55,
                    "time": 33.600000000000016,
                    "velocity": 0.3543307086614173,
                    "duration": 0.6000000000000014
                },
                {
                    "name": "D3",
                    "midi": 50,
                    "time": 34.500000000000014,
                    "velocity": 0.3543307086614173,
                    "duration": 0.6000000000000014
                },
                {
                    "name": "G3",
                    "midi": 55,
                    "time": 35.40000000000001,
                    "velocity": 0.3543307086614173,
                    "duration": 0.6000000000000014
                },
                {
                    "name": "A#3",
                    "midi": 58,
                    "time": 37.20000000000002,
                    "velocity": 0.3543307086614173,
                    "duration": 0.6000000000000014
                },
                {
                    "name": "F3",
                    "midi": 53,
                    "time": 38.100000000000016,
                    "velocity": 0.3543307086614173,
                    "duration": 0.6000000000000014
                },
                {
                    "name": "A#2",
                    "midi": 46,
                    "time": 39.000000000000014,
                    "velocity": 0.3543307086614173,
                    "duration": 0.8999999999999986
                },
                {
                    "name": "C3",
                    "midi": 48,
                    "time": 39.90000000000001,
                    "velocity": 0.3543307086614173,
                    "duration": 0.8999999999999986
                },
                {
                    "name": "A#2",
                    "midi": 46,
                    "time": 40.80000000000001,
                    "velocity": 0.3543307086614173,
                    "duration": 0.8999999999999986
                },
                {
                    "name": "C3",
                    "midi": 48,
                    "time": 41.70000000000001,
                    "velocity": 0.3543307086614173,
                    "duration": 0.8999999999999986
                },
                {
                    "name": "A#2",
                    "midi": 46,
                    "time": 42.60000000000001,
                    "velocity": 0.3543307086614173,
                    "duration": 0.6000000000000014
                },
                {
                    "name": "G3",
                    "midi": 55,
                    "time": 43.20000000000001,
                    "velocity": 0.3543307086614173,
                    "duration": 0.29375000000000284
                },
                {
                    "name": "C3",
                    "midi": 48,
                    "time": 43.500000000000014,
                    "velocity": 0.49606299212598426,
                    "duration": 0.7999999999999972
                },
                {
                    "name": "G#2",
                    "midi": 44,
                    "time": 44.70000000000001,
                    "velocity": 0.5905511811023622,
                    "duration": 0.29999999999999716
                },
                {
                    "name": "A#2",
                    "midi": 46,
                    "time": 45.00000000000001,
                    "velocity": 0.5905511811023622,
                    "duration": 0.29375000000000284
                },
                {
                    "name": "C3",
                    "midi": 48,
                    "time": 45.30000000000001,
                    "velocity": 0.5905511811023622,
                    "duration": 0.29999999999999716
                },
                {
                    "name": "D3",
                    "midi": 50,
                    "time": 45.60000000000001,
                    "velocity": 0.5905511811023622,
                    "duration": 0.29999999999999716
                },
                {
                    "name": "D#3",
                    "midi": 51,
                    "time": 45.900000000000006,
                    "velocity": 0.5905511811023622,
                    "duration": 0.29375000000000284
                },
                {
                    "name": "F3",
                    "midi": 53,
                    "time": 46.20000000000001,
                    "velocity": 0.5905511811023622,
                    "duration": 0.5
                },
                {
                    "name": "A#2",
                    "midi": 46,
                    "time": 47.10000000000001,
                    "velocity": 0.8267716535433071,
                    "duration": 0.7999999999999972
                },
                {
                    "name": "A#2",
                    "midi": 46,
                    "time": 48.300000000000004,
                    "velocity": 0.7244094488188977,
                    "duration": 0.29999999999999716
                },
                {
                    "name": "C3",
                    "midi": 48,
                    "time": 48.6,
                    "velocity": 0.7244094488188977,
                    "duration": 0.29375000000000284
                },
                {
                    "name": "D3",
                    "midi": 50,
                    "time": 48.900000000000006,
                    "velocity": 0.7244094488188977,
                    "duration": 0.29999999999999716
                },
                {
                    "name": "D#3",
                    "midi": 51,
                    "time": 49.2,
                    "velocity": 0.7244094488188977,
                    "duration": 0.29999999999999716
                },
                {
                    "name": "F3",
                    "midi": 53,
                    "time": 49.5,
                    "velocity": 0.7244094488188977,
                    "duration": 0.29375000000000284
                },
                {
                    "name": "G3",
                    "midi": 55,
                    "time": 49.800000000000004,
                    "velocity": 0.7244094488188977,
                    "duration": 0.5
                },
                {
                    "name": "G3",
                    "midi": 55,
                    "time": 50.7,
                    "velocity": 0.7244094488188977,
                    "duration": 0.14999999999999858
                },
                {
                    "name": "F#3",
                    "midi": 54,
                    "time": 50.85,
                    "velocity": 0.7244094488188977,
                    "duration": 0.10000000000000142
                },
                {
                    "name": "G3",
                    "midi": 55,
                    "time": 51,
                    "velocity": 0.7244094488188977,
                    "duration": 0.10000000000000142
                },
                {
                    "name": "A3",
                    "midi": 57,
                    "time": 51.15,
                    "velocity": 0.7244094488188977,
                    "duration": 0.10000000000000142
                },
                {
                    "name": "A#3",
                    "midi": 58,
                    "time": 51.3,
                    "velocity": 0.7244094488188977,
                    "duration": 0.10000000000000142
                },
                {
                    "name": "B3",
                    "midi": 59,
                    "time": 51.449999999999996,
                    "velocity": 0.7244094488188977,
                    "duration": 0.10000000000000142
                },
                {
                    "name": "C4",
                    "midi": 60,
                    "time": 51.599999999999994,
                    "velocity": 0.7244094488188977,
                    "duration": 0.10000000000000142
                },
                {
                    "name": "C4",
                    "midi": 60,
                    "time": 51.9,
                    "velocity": 0.7244094488188977,
                    "duration": 0.10000000000000142
                },
                {
                    "name": "G#3",
                    "midi": 56,
                    "time": 52.5,
                    "velocity": 0.3543307086614173,
                    "duration": 0.10000000000000142
                },
                {
                    "name": "G#3",
                    "midi": 56,
                    "time": 52.800000000000004,
                    "velocity": 0.3543307086614173,
                    "duration": 0.10000000000000142
                },
                {
                    "name": "G3",
                    "midi": 55,
                    "time": 53.400000000000006,
                    "velocity": 0.3543307086614173,
                    "duration": 0.10000000000000142
                },
                {
                    "name": "G3",
                    "midi": 55,
                    "time": 53.70000000000001,
                    "velocity": 0.3543307086614173,
                    "duration": 0.10000000000000142
                },
                {
                    "name": "G2",
                    "midi": 43,
                    "time": 54.30000000000001,
                    "velocity": 0.7244094488188977,
                    "duration": 0.14999999999999858
                },
                {
                    "name": "F#2",
                    "midi": 42,
                    "time": 54.45000000000001,
                    "velocity": 0.7244094488188977,
                    "duration": 0.10000000000000142
                },
                {
                    "name": "G2",
                    "midi": 43,
                    "time": 54.60000000000001,
                    "velocity": 0.7244094488188977,
                    "duration": 0.10000000000000142
                },
                {
                    "name": "A2",
                    "midi": 45,
                    "time": 54.75000000000001,
                    "velocity": 0.7244094488188977,
                    "duration": 0.10000000000000142
                },
                {
                    "name": "A#2",
                    "midi": 46,
                    "time": 54.900000000000006,
                    "velocity": 0.7244094488188977,
                    "duration": 0.10000000000000142
                },
                {
                    "name": "B2",
                    "midi": 47,
                    "time": 55.050000000000004,
                    "velocity": 0.7244094488188977,
                    "duration": 0.10000000000000142
                },
                {
                    "name": "C3",
                    "midi": 48,
                    "time": 55.2,
                    "velocity": 0.7244094488188977,
                    "duration": 0.10000000000000142
                },
                {
                    "name": "C3",
                    "midi": 48,
                    "time": 55.50000000000001,
                    "velocity": 0.7244094488188977,
                    "duration": 0.10000000000000142
                },
                {
                    "name": "G#2",
                    "midi": 44,
                    "time": 56.10000000000001,
                    "velocity": 0.3543307086614173,
                    "duration": 0.10000000000000142
                },
                {
                    "name": "G#2",
                    "midi": 44,
                    "time": 56.40000000000001,
                    "velocity": 0.3543307086614173,
                    "duration": 0.10000000000000142
                },
                {
                    "name": "G2",
                    "midi": 43,
                    "time": 57.000000000000014,
                    "velocity": 0.3543307086614173,
                    "duration": 0.6000000000000014
                },
                {
                    "name": "D3",
                    "midi": 50,
                    "time": 57.000000000000014,
                    "velocity": 0.3543307086614173,
                    "duration": 0.6000000000000014
                },
                {
                    "name": "G3",
                    "midi": 55,
                    "time": 60.600000000000016,
                    "velocity": 0.3543307086614173,
                    "duration": 0.10000000000000142
                },
                {
                    "name": "G3",
                    "midi": 55,
                    "time": 60.90000000000002,
                    "velocity": 0.3543307086614173,
                    "duration": 0.10000000000000142
                },
                {
                    "name": "G3",
                    "midi": 55,
                    "time": 61.200000000000024,
                    "velocity": 0.3543307086614173,
                    "duration": 0.10000000000000142
                },
                {
                    "name": "G2",
                    "midi": 43,
                    "time": 61.50000000000003,
                    "velocity": 0.3543307086614173,
                    "duration": 0.10000000000000142
                },
                {
                    "name": "G2",
                    "midi": 43,
                    "time": 61.80000000000003,
                    "velocity": 0.3543307086614173,
                    "duration": 0.10000000000000142
                },
                {
                    "name": "G2",
                    "midi": 43,
                    "time": 62.10000000000004,
                    "velocity": 0.3543307086614173,
                    "duration": 0.10000000000000142
                },
                {
                    "name": "C3",
                    "midi": 48,
                    "time": 63.30000000000004,
                    "velocity": 0.3543307086614173,
                    "duration": 0.10000000000000142
                },
                {
                    "name": "C3",
                    "midi": 48,
                    "time": 63.600000000000044,
                    "velocity": 0.3543307086614173,
                    "duration": 0.10000000000000142
                },
                {
                    "name": "D3",
                    "midi": 50,
                    "time": 64.20000000000005,
                    "velocity": 0.3543307086614173,
                    "duration": 0.09999999999999432
                },
                {
                    "name": "D3",
                    "midi": 50,
                    "time": 64.50000000000004,
                    "velocity": 0.3543307086614173,
                    "duration": 0.09999999999999432
                },
                {
                    "name": "G3",
                    "midi": 55,
                    "time": 65.10000000000004,
                    "velocity": 0.3543307086614173,
                    "duration": 0.09999999999999432
                },
                {
                    "name": "G3",
                    "midi": 55,
                    "time": 65.40000000000003,
                    "velocity": 0.3543307086614173,
                    "duration": 0.09999999999999432
                },
                {
                    "name": "G2",
                    "midi": 43,
                    "time": 66.00000000000003,
                    "velocity": 0.3543307086614173,
                    "duration": 0.09999999999999432
                },
                {
                    "name": "G2",
                    "midi": 43,
                    "time": 66.30000000000003,
                    "velocity": 0.3543307086614173,
                    "duration": 0.09999999999999432
                },
                {
                    "name": "C3",
                    "midi": 48,
                    "time": 66.90000000000002,
                    "velocity": 0.3543307086614173,
                    "duration": 0.09999999999999432
                },
                {
                    "name": "C3",
                    "midi": 48,
                    "time": 67.20000000000002,
                    "velocity": 0.3543307086614173,
                    "duration": 0.09999999999999432
                },
                {
                    "name": "F#3",
                    "midi": 54,
                    "time": 67.80000000000001,
                    "velocity": 0.3543307086614173,
                    "duration": 0.09999999999999432
                },
                {
                    "name": "F#3",
                    "midi": 54,
                    "time": 68.10000000000001,
                    "velocity": 0.3543307086614173,
                    "duration": 0.09999999999999432
                },
                {
                    "name": "G3",
                    "midi": 55,
                    "time": 68.7,
                    "velocity": 0.3543307086614173,
                    "duration": 0.5999999999999943
                },
                {
                    "name": "G2",
                    "midi": 43,
                    "time": 69.6,
                    "velocity": 0.49606299212598426,
                    "duration": 0.9000000000000057
                },
                {
                    "name": "C3",
                    "midi": 48,
                    "time": 70.5,
                    "velocity": 0.3543307086614173,
                    "duration": 0.09999999999999432
                },
                {
                    "name": "C3",
                    "midi": 48,
                    "time": 70.8,
                    "velocity": 0.3543307086614173,
                    "duration": 0.09999999999999432
                },
                {
                    "name": "C3",
                    "midi": 48,
                    "time": 71.39999999999999,
                    "velocity": 0.3543307086614173,
                    "duration": 0.09999999999999432
                },
                {
                    "name": "C3",
                    "midi": 48,
                    "time": 71.69999999999999,
                    "velocity": 0.3543307086614173,
                    "duration": 0.09999999999999432
                },
                {
                    "name": "F3",
                    "midi": 53,
                    "time": 72.29999999999998,
                    "velocity": 0.3543307086614173,
                    "duration": 0.09999999999999432
                },
                {
                    "name": "F3",
                    "midi": 53,
                    "time": 72.59999999999998,
                    "velocity": 0.3543307086614173,
                    "duration": 0.09999999999999432
                },
                {
                    "name": "F3",
                    "midi": 53,
                    "time": 73.19999999999997,
                    "velocity": 0.3543307086614173,
                    "duration": 0.09999999999999432
                },
                {
                    "name": "F3",
                    "midi": 53,
                    "time": 73.49999999999997,
                    "velocity": 0.3543307086614173,
                    "duration": 0.09999999999999432
                },
                {
                    "name": "C3",
                    "midi": 48,
                    "time": 74.09999999999997,
                    "velocity": 0.3543307086614173,
                    "duration": 0.09999999999999432
                },
                {
                    "name": "G3",
                    "midi": 55,
                    "time": 74.99999999999996,
                    "velocity": 0.3543307086614173,
                    "duration": 0.09999999999999432
                },
                {
                    "name": "C3",
                    "midi": 48,
                    "time": 75.89999999999995,
                    "velocity": 0.3543307086614173,
                    "duration": 0.5999999999999943
                },
                {
                    "name": "C4",
                    "midi": 60,
                    "time": 77.99999999999994,
                    "velocity": 0.7244094488188977,
                    "duration": 0.29999999999999716
                },
                {
                    "name": "D4",
                    "midi": 62,
                    "time": 78.29999999999994,
                    "velocity": 0.7244094488188977,
                    "duration": 0.29375000000000284
                },
                {
                    "name": "D#4",
                    "midi": 63,
                    "time": 78.59999999999994,
                    "velocity": 0.7244094488188977,
                    "duration": 0.29999999999999716
                },
                {
                    "name": "F4",
                    "midi": 65,
                    "time": 78.89999999999993,
                    "velocity": 0.7244094488188977,
                    "duration": 0.29999999999999716
                },
                {
                    "name": "F#4",
                    "midi": 66,
                    "time": 79.19999999999993,
                    "velocity": 0.7244094488188977,
                    "duration": 0.29375000000000284
                },
                {
                    "name": "G4",
                    "midi": 67,
                    "time": 79.49999999999993,
                    "velocity": 0.7244094488188977,
                    "duration": 0.9000000000000057
                },
                {
                    "name": "F4",
                    "midi": 65,
                    "time": 80.39999999999993,
                    "velocity": 0.7244094488188977,
                    "duration": 0.9000000000000057
                },
                {
                    "name": "D#4",
                    "midi": 63,
                    "time": 81.29999999999994,
                    "velocity": 0.7244094488188977,
                    "duration": 0.5999999999999943
                },
                {
                    "name": "D4",
                    "midi": 62,
                    "time": 81.89999999999993,
                    "velocity": 0.7244094488188977,
                    "duration": 0.29375000000000284
                },
                {
                    "name": "C4",
                    "midi": 60,
                    "time": 82.19999999999993,
                    "velocity": 0.7244094488188977,
                    "duration": 0.29999999999999716
                },
                {
                    "name": "B3",
                    "midi": 59,
                    "time": 82.49999999999993,
                    "velocity": 0.7244094488188977,
                    "duration": 0.29999999999999716
                },
                {
                    "name": "C4",
                    "midi": 60,
                    "time": 82.79999999999993,
                    "velocity": 0.7244094488188977,
                    "duration": 0.29375000000000284
                },
                {
                    "name": "D4",
                    "midi": 62,
                    "time": 83.09999999999992,
                    "velocity": 0.7244094488188977,
                    "duration": 0.5999999999999943
                },
                {
                    "name": "G3",
                    "midi": 55,
                    "time": 83.99999999999991,
                    "velocity": 0.7244094488188977,
                    "duration": 1.1937499999999943
                },
                {
                    "name": "C4",
                    "midi": 60,
                    "time": 85.1999999999999,
                    "velocity": 0.7244094488188977,
                    "duration": 0.29999999999999716
                },
                {
                    "name": "D4",
                    "midi": 62,
                    "time": 85.4999999999999,
                    "velocity": 0.7244094488188977,
                    "duration": 0.29375000000000284
                },
                {
                    "name": "C4",
                    "midi": 60,
                    "time": 85.7999999999999,
                    "velocity": 0.7244094488188977,
                    "duration": 0.29999999999999716
                },
                {
                    "name": "D4",
                    "midi": 62,
                    "time": 86.0999999999999,
                    "velocity": 0.7244094488188977,
                    "duration": 0.29999999999999716
                },
                {
                    "name": "F#4",
                    "midi": 66,
                    "time": 86.39999999999989,
                    "velocity": 0.7244094488188977,
                    "duration": 0.29375000000000284
                },
                {
                    "name": "G4",
                    "midi": 67,
                    "time": 86.69999999999989,
                    "velocity": 0.7244094488188977,
                    "duration": 0.9000000000000057
                },
                {
                    "name": "F4",
                    "midi": 65,
                    "time": 87.5999999999999,
                    "velocity": 0.7244094488188977,
                    "duration": 0.29999999999999716
                },
                {
                    "name": "D#4",
                    "midi": 63,
                    "time": 87.89999999999989,
                    "velocity": 0.7244094488188977,
                    "duration": 0.29999999999999716
                },
                {
                    "name": "D4",
                    "midi": 62,
                    "time": 88.19999999999989,
                    "velocity": 0.7244094488188977,
                    "duration": 0.29999999999999716
                },
                {
                    "name": "C4",
                    "midi": 60,
                    "time": 88.49999999999989,
                    "velocity": 0.7244094488188977,
                    "duration": 0.29375000000000284
                },
                {
                    "name": "G2",
                    "midi": 43,
                    "time": 89.39999999999989,
                    "velocity": 0.7244094488188977,
                    "duration": 0.29375000000000284
                },
                {
                    "name": "C3",
                    "midi": 48,
                    "time": 90.2999999999999,
                    "velocity": 0.5905511811023622,
                    "duration": 0.9000000000000057
                },
                {
                    "name": "C3",
                    "midi": 48,
                    "time": 91.1999999999999,
                    "velocity": 0.3543307086614173,
                    "duration": 0.5
                },
                {
                    "name": "A#2",
                    "midi": 46,
                    "time": 91.7999999999999,
                    "velocity": 0.3543307086614173,
                    "duration": 0.29999999999999716
                },
                {
                    "name": "G#2",
                    "midi": 44,
                    "time": 92.0999999999999,
                    "velocity": 0.3543307086614173,
                    "duration": 0.29375000000000284
                },
                {
                    "name": "G#2",
                    "midi": 44,
                    "time": 92.39999999999989,
                    "velocity": 0.3543307086614173,
                    "duration": 0.29999999999999716
                },
                {
                    "name": "D#3",
                    "midi": 51,
                    "time": 92.69999999999989,
                    "velocity": 0.3543307086614173,
                    "duration": 0.29999999999999716
                },
                {
                    "name": "G#3",
                    "midi": 56,
                    "time": 92.99999999999989,
                    "velocity": 0.3543307086614173,
                    "duration": 0.29999999999999716
                },
                {
                    "name": "C3",
                    "midi": 48,
                    "time": 93.29999999999988,
                    "velocity": 0.3543307086614173,
                    "duration": 0.29999999999999716
                },
                {
                    "name": "G#2",
                    "midi": 44,
                    "time": 93.59999999999988,
                    "velocity": 0.3543307086614173,
                    "duration": 0.29375000000000284
                },
                {
                    "name": "G#2",
                    "midi": 44,
                    "time": 94.19999999999989,
                    "velocity": 0.3543307086614173,
                    "duration": 0.29999999999999716
                },
                {
                    "name": "D#3",
                    "midi": 51,
                    "time": 94.49999999999989,
                    "velocity": 0.3543307086614173,
                    "duration": 0.29999999999999716
                },
                {
                    "name": "G#3",
                    "midi": 56,
                    "time": 94.79999999999988,
                    "velocity": 0.3543307086614173,
                    "duration": 0.29999999999999716
                },
                {
                    "name": "D#3",
                    "midi": 51,
                    "time": 95.09999999999988,
                    "velocity": 0.3543307086614173,
                    "duration": 0.29999999999999716
                },
                {
                    "name": "G#2",
                    "midi": 44,
                    "time": 95.39999999999988,
                    "velocity": 0.3543307086614173,
                    "duration": 0.29375000000000284
                },
                {
                    "name": "D#2",
                    "midi": 39,
                    "time": 95.99999999999989,
                    "velocity": 0.3543307086614173,
                    "duration": 0.29999999999999716
                },
                {
                    "name": "A#2",
                    "midi": 46,
                    "time": 96.29999999999988,
                    "velocity": 0.3543307086614173,
                    "duration": 0.29999999999999716
                },
                {
                    "name": "D#3",
                    "midi": 51,
                    "time": 96.59999999999988,
                    "velocity": 0.3543307086614173,
                    "duration": 0.29999999999999716
                },
                {
                    "name": "A#2",
                    "midi": 46,
                    "time": 96.89999999999988,
                    "velocity": 0.3543307086614173,
                    "duration": 0.29999999999999716
                },
                {
                    "name": "D#2",
                    "midi": 39,
                    "time": 97.19999999999987,
                    "velocity": 0.3543307086614173,
                    "duration": 0.29375000000000284
                },
                {
                    "name": "D#2",
                    "midi": 39,
                    "time": 97.79999999999988,
                    "velocity": 0.3543307086614173,
                    "duration": 0.29999999999999716
                },
                {
                    "name": "A#2",
                    "midi": 46,
                    "time": 98.09999999999988,
                    "velocity": 0.3543307086614173,
                    "duration": 0.29999999999999716
                },
                {
                    "name": "D#3",
                    "midi": 51,
                    "time": 98.39999999999988,
                    "velocity": 0.3543307086614173,
                    "duration": 0.29999999999999716
                },
                {
                    "name": "A#2",
                    "midi": 46,
                    "time": 98.69999999999987,
                    "velocity": 0.3543307086614173,
                    "duration": 0.29999999999999716
                },
                {
                    "name": "D#2",
                    "midi": 39,
                    "time": 98.99999999999987,
                    "velocity": 0.3543307086614173,
                    "duration": 0.29375000000000284
                },
                {
                    "name": "G#2",
                    "midi": 44,
                    "time": 99.59999999999988,
                    "velocity": 0.3543307086614173,
                    "duration": 0.29999999999999716
                },
                {
                    "name": "D#3",
                    "midi": 51,
                    "time": 99.89999999999988,
                    "velocity": 0.3543307086614173,
                    "duration": 0.29999999999999716
                },
                {
                    "name": "G#3",
                    "midi": 56,
                    "time": 100.19999999999987,
                    "velocity": 0.3543307086614173,
                    "duration": 0.29999999999999716
                },
                {
                    "name": "D#3",
                    "midi": 51,
                    "time": 100.49999999999987,
                    "velocity": 0.3543307086614173,
                    "duration": 0.29999999999999716
                },
                {
                    "name": "G#2",
                    "midi": 44,
                    "time": 100.79999999999987,
                    "velocity": 0.3543307086614173,
                    "duration": 0.29375000000000284
                },
                {
                    "name": "C2",
                    "midi": 36,
                    "time": 101.39999999999988,
                    "velocity": 0.3543307086614173,
                    "duration": 0.29999999999999716
                },
                {
                    "name": "G2",
                    "midi": 43,
                    "time": 101.69999999999987,
                    "velocity": 0.3543307086614173,
                    "duration": 0.29999999999999716
                },
                {
                    "name": "C3",
                    "midi": 48,
                    "time": 101.99999999999987,
                    "velocity": 0.3543307086614173,
                    "duration": 0.29999999999999716
                },
                {
                    "name": "G2",
                    "midi": 43,
                    "time": 102.29999999999987,
                    "velocity": 0.3543307086614173,
                    "duration": 0.29999999999999716
                },
                {
                    "name": "C2",
                    "midi": 36,
                    "time": 102.59999999999987,
                    "velocity": 0.3543307086614173,
                    "duration": 0.29375000000000284
                },
                {
                    "name": "A#2",
                    "midi": 46,
                    "time": 103.19999999999987,
                    "velocity": 0.3543307086614173,
                    "duration": 0.29999999999999716
                },
                {
                    "name": "F3",
                    "midi": 53,
                    "time": 103.49999999999987,
                    "velocity": 0.3543307086614173,
                    "duration": 0.29999999999999716
                },
                {
                    "name": "A#3",
                    "midi": 58,
                    "time": 103.79999999999987,
                    "velocity": 0.3543307086614173,
                    "duration": 0.29999999999999716
                },
                {
                    "name": "F3",
                    "midi": 53,
                    "time": 104.09999999999987,
                    "velocity": 0.3543307086614173,
                    "duration": 0.29999999999999716
                },
                {
                    "name": "A#2",
                    "midi": 46,
                    "time": 104.39999999999986,
                    "velocity": 0.3543307086614173,
                    "duration": 0.29375000000000284
                },
                {
                    "name": "F2",
                    "midi": 41,
                    "time": 104.99999999999987,
                    "velocity": 0.3543307086614173,
                    "duration": 0.29999999999999716
                },
                {
                    "name": "C3",
                    "midi": 48,
                    "time": 105.29999999999987,
                    "velocity": 0.3543307086614173,
                    "duration": 0.29999999999999716
                },
                {
                    "name": "F3",
                    "midi": 53,
                    "time": 105.59999999999987,
                    "velocity": 0.3543307086614173,
                    "duration": 0.29999999999999716
                },
                {
                    "name": "C3",
                    "midi": 48,
                    "time": 105.89999999999986,
                    "velocity": 0.3543307086614173,
                    "duration": 0.29999999999999716
                },
                {
                    "name": "F2",
                    "midi": 41,
                    "time": 106.19999999999986,
                    "velocity": 0.3543307086614173,
                    "duration": 0.29375000000000284
                },
                {
                    "name": "A#2",
                    "midi": 46,
                    "time": 106.79999999999987,
                    "velocity": 0.3543307086614173,
                    "duration": 0.29999999999999716
                },
                {
                    "name": "F3",
                    "midi": 53,
                    "time": 107.09999999999987,
                    "velocity": 0.3543307086614173,
                    "duration": 0.29999999999999716
                },
                {
                    "name": "A#3",
                    "midi": 58,
                    "time": 107.39999999999986,
                    "velocity": 0.3543307086614173,
                    "duration": 0.29999999999999716
                },
                {
                    "name": "F3",
                    "midi": 53,
                    "time": 107.69999999999986,
                    "velocity": 0.3543307086614173,
                    "duration": 0.29999999999999716
                },
                {
                    "name": "A#2",
                    "midi": 46,
                    "time": 107.99999999999986,
                    "velocity": 0.3543307086614173,
                    "duration": 0.29375000000000284
                },
                {
                    "name": "A#2",
                    "midi": 46,
                    "time": 108.59999999999987,
                    "velocity": 0.3543307086614173,
                    "duration": 0.29999999999999716
                },
                {
                    "name": "F3",
                    "midi": 53,
                    "time": 108.89999999999986,
                    "velocity": 0.3543307086614173,
                    "duration": 0.29999999999999716
                },
                {
                    "name": "A#3",
                    "midi": 58,
                    "time": 109.19999999999986,
                    "velocity": 0.3543307086614173,
                    "duration": 0.29999999999999716
                },
                {
                    "name": "F3",
                    "midi": 53,
                    "time": 109.49999999999986,
                    "velocity": 0.3543307086614173,
                    "duration": 0.29999999999999716
                },
                {
                    "name": "A#2",
                    "midi": 46,
                    "time": 109.79999999999986,
                    "velocity": 0.3543307086614173,
                    "duration": 0.29375000000000284
                },
                {
                    "name": "D#2",
                    "midi": 39,
                    "time": 110.39999999999986,
                    "velocity": 0.3543307086614173,
                    "duration": 0.29999999999999716
                },
                {
                    "name": "A#2",
                    "midi": 46,
                    "time": 110.69999999999986,
                    "velocity": 0.3543307086614173,
                    "duration": 0.29999999999999716
                },
                {
                    "name": "D#3",
                    "midi": 51,
                    "time": 110.99999999999986,
                    "velocity": 0.3543307086614173,
                    "duration": 0.29999999999999716
                },
                {
                    "name": "A#2",
                    "midi": 46,
                    "time": 111.29999999999986,
                    "velocity": 0.3543307086614173,
                    "duration": 0.29999999999999716
                },
                {
                    "name": "D#2",
                    "midi": 39,
                    "time": 111.59999999999985,
                    "velocity": 0.3543307086614173,
                    "duration": 0.29375000000000284
                },
                {
                    "name": "G#2",
                    "midi": 44,
                    "time": 112.19999999999986,
                    "velocity": 0.3543307086614173,
                    "duration": 0.29999999999999716
                },
                {
                    "name": "D#3",
                    "midi": 51,
                    "time": 112.49999999999986,
                    "velocity": 0.3543307086614173,
                    "duration": 0.29999999999999716
                },
                {
                    "name": "G#3",
                    "midi": 56,
                    "time": 112.79999999999986,
                    "velocity": 0.3543307086614173,
                    "duration": 0.29999999999999716
                },
                {
                    "name": "D#3",
                    "midi": 51,
                    "time": 113.09999999999985,
                    "velocity": 0.3543307086614173,
                    "duration": 0.29999999999999716
                },
                {
                    "name": "G#2",
                    "midi": 44,
                    "time": 113.39999999999985,
                    "velocity": 0.3543307086614173,
                    "duration": 0.29375000000000284
                },
                {
                    "name": "A#2",
                    "midi": 46,
                    "time": 113.69999999999985,
                    "velocity": 0.3543307086614173,
                    "duration": 0.9000000000000057
                },
                {
                    "name": "D3",
                    "midi": 50,
                    "time": 115.49999999999986,
                    "velocity": 0.3543307086614173,
                    "duration": 0.9000000000000057
                },
                {
                    "name": "D#3",
                    "midi": 51,
                    "time": 117.29999999999987,
                    "velocity": 0.3543307086614173,
                    "duration": 2.09375
                },
                {
                    "name": "D#3",
                    "midi": 51,
                    "time": 120.89999999999986,
                    "velocity": 0.7244094488188977,
                    "duration": 0.7999999999999972
                },
                {
                    "name": "F3",
                    "midi": 53,
                    "time": 121.79999999999986,
                    "velocity": 0.7244094488188977,
                    "duration": 0.5999999999999943
                },
                {
                    "name": "G3",
                    "midi": 55,
                    "time": 122.39999999999985,
                    "velocity": 0.7244094488188977,
                    "duration": 0.29375000000000284
                },
                {
                    "name": "G#3",
                    "midi": 56,
                    "time": 122.69999999999985,
                    "velocity": 0.7244094488188977,
                    "duration": 0.9000000000000057
                },
                {
                    "name": "C4",
                    "midi": 60,
                    "time": 123.59999999999985,
                    "velocity": 0.7244094488188977,
                    "duration": 0.7999999999999972
                },
                {
                    "name": "C4",
                    "midi": 60,
                    "time": 124.49999999999984,
                    "velocity": 0.7244094488188977,
                    "duration": 1.7999999999999972
                },
                {
                    "name": "A#3",
                    "midi": 58,
                    "time": 126.29999999999984,
                    "velocity": 0.7244094488188977,
                    "duration": 0.7999999999999972
                },
                {
                    "name": "C#4",
                    "midi": 61,
                    "time": 127.19999999999983,
                    "velocity": 0.7244094488188977,
                    "duration": 0.5999999999999943
                },
                {
                    "name": "C4",
                    "midi": 60,
                    "time": 127.79999999999983,
                    "velocity": 0.7244094488188977,
                    "duration": 0.29375000000000284
                },
                {
                    "name": "G#3",
                    "midi": 56,
                    "time": 128.09999999999982,
                    "velocity": 0.7244094488188977,
                    "duration": 0.8000000000000114
                },
                {
                    "name": "C4",
                    "midi": 60,
                    "time": 128.99999999999983,
                    "velocity": 0.7244094488188977,
                    "duration": 0.9000000000000057
                },
                {
                    "name": "G3",
                    "midi": 55,
                    "time": 129.89999999999984,
                    "velocity": 0.7244094488188977,
                    "duration": 0.8000000000000114
                },
                {
                    "name": "C4",
                    "midi": 60,
                    "time": 130.79999999999984,
                    "velocity": 0.7244094488188977,
                    "duration": 0.9000000000000057
                },
                {
                    "name": "F3",
                    "midi": 53,
                    "time": 131.69999999999985,
                    "velocity": 0.7244094488188977,
                    "duration": 2.5999999999999943
                },
                {
                    "name": "F#3",
                    "midi": 54,
                    "time": 134.39999999999984,
                    "velocity": 0.7244094488188977,
                    "duration": 0.5999999999999943
                },
                {
                    "name": "F3",
                    "midi": 53,
                    "time": 134.99999999999983,
                    "velocity": 0.7244094488188977,
                    "duration": 0.29374999999998863
                },
                {
                    "name": "F3",
                    "midi": 53,
                    "time": 135.2999999999998,
                    "velocity": 0.7244094488188977,
                    "duration": 0.8000000000000114
                },
                {
                    "name": "G3",
                    "midi": 55,
                    "time": 136.19999999999982,
                    "velocity": 0.7244094488188977,
                    "duration": 0.5999999999999943
                },
                {
                    "name": "A3",
                    "midi": 57,
                    "time": 136.7999999999998,
                    "velocity": 0.7244094488188977,
                    "duration": 0.29374999999998863
                },
                {
                    "name": "A#3",
                    "midi": 58,
                    "time": 137.0999999999998,
                    "velocity": 0.7244094488188977,
                    "duration": 0.9000000000000057
                },
                {
                    "name": "C#4",
                    "midi": 61,
                    "time": 137.9999999999998,
                    "velocity": 0.7244094488188977,
                    "duration": 0.8000000000000114
                },
                {
                    "name": "C4",
                    "midi": 60,
                    "time": 138.8999999999998,
                    "velocity": 0.7244094488188977,
                    "duration": 0.30000000000001137
                },
                {
                    "name": "B3",
                    "midi": 59,
                    "time": 139.19999999999982,
                    "velocity": 0.7244094488188977,
                    "duration": 0.30000000000001137
                },
                {
                    "name": "C4",
                    "midi": 60,
                    "time": 139.49999999999983,
                    "velocity": 0.7244094488188977,
                    "duration": 0.29374999999998863
                },
                {
                    "name": "F4",
                    "midi": 65,
                    "time": 139.7999999999998,
                    "velocity": 0.7244094488188977,
                    "duration": 0.5999999999999943
                },
                {
                    "name": "D#4",
                    "midi": 63,
                    "time": 140.3999999999998,
                    "velocity": 0.7244094488188977,
                    "duration": 0.29374999999998863
                },
                {
                    "name": "D#4",
                    "midi": 63,
                    "time": 140.6999999999998,
                    "velocity": 0.7244094488188977,
                    "duration": 0.9000000000000057
                },
                {
                    "name": "C#4",
                    "midi": 61,
                    "time": 141.5999999999998,
                    "velocity": 0.7244094488188977,
                    "duration": 1.34375
                },
                {
                    "name": "D#3",
                    "midi": 51,
                    "time": 142.9499999999998,
                    "velocity": 0.7244094488188977,
                    "duration": 0.44999999999998863
                },
                {
                    "name": "F3",
                    "midi": 53,
                    "time": 143.39999999999978,
                    "velocity": 0.7244094488188977,
                    "duration": 0.44999999999998863
                },
                {
                    "name": "G3",
                    "midi": 55,
                    "time": 143.84999999999977,
                    "velocity": 0.7244094488188977,
                    "duration": 0.44999999999998863
                },
                {
                    "name": "G#3",
                    "midi": 56,
                    "time": 144.29999999999976,
                    "velocity": 0.7244094488188977,
                    "duration": 0.9000000000000057
                },
                {
                    "name": "C4",
                    "midi": 60,
                    "time": 145.19999999999976,
                    "velocity": 0.7244094488188977,
                    "duration": 0.8000000000000114
                },
                {
                    "name": "A#3",
                    "midi": 58,
                    "time": 146.09999999999977,
                    "velocity": 0.7244094488188977,
                    "duration": 0.30000000000001137
                },
                {
                    "name": "A3",
                    "midi": 57,
                    "time": 146.39999999999978,
                    "velocity": 0.7244094488188977,
                    "duration": 0.30000000000001137
                },
                {
                    "name": "A#3",
                    "midi": 58,
                    "time": 146.6999999999998,
                    "velocity": 0.7244094488188977,
                    "duration": 0.29374999999998863
                },
                {
                    "name": "D#4",
                    "midi": 63,
                    "time": 146.99999999999977,
                    "velocity": 0.7244094488188977,
                    "duration": 0.5999999999999943
                },
                {
                    "name": "C#4",
                    "midi": 61,
                    "time": 147.59999999999977,
                    "velocity": 0.7244094488188977,
                    "duration": 0.29374999999998863
                },
                {
                    "name": "C#4",
                    "midi": 61,
                    "time": 147.89999999999975,
                    "velocity": 0.7244094488188977,
                    "duration": 0.9000000000000057
                },
                {
                    "name": "C4",
                    "midi": 60,
                    "time": 148.79999999999976,
                    "velocity": 0.7244094488188977,
                    "duration": 1.34375
                },
                {
                    "name": "G#3",
                    "midi": 56,
                    "time": 150.14999999999975,
                    "velocity": 0.7244094488188977,
                    "duration": 0.44999999999998863
                },
                {
                    "name": "A#3",
                    "midi": 58,
                    "time": 150.59999999999974,
                    "velocity": 0.7244094488188977,
                    "duration": 0.44999999999998863
                },
                {
                    "name": "C4",
                    "midi": 60,
                    "time": 151.04999999999973,
                    "velocity": 0.7244094488188977,
                    "duration": 0.44999999999998863
                },
                {
                    "name": "C#4",
                    "midi": 61,
                    "time": 151.49999999999972,
                    "velocity": 0.7244094488188977,
                    "duration": 0.9000000000000057
                },
                {
                    "name": "G#3",
                    "midi": 56,
                    "time": 152.39999999999972,
                    "velocity": 0.7244094488188977,
                    "duration": 0.9000000000000057
                },
                {
                    "name": "D#4",
                    "midi": 63,
                    "time": 153.29999999999973,
                    "velocity": 0.7244094488188977,
                    "duration": 0.8000000000000114
                },
                {
                    "name": "G#3",
                    "midi": 56,
                    "time": 154.19999999999973,
                    "velocity": 0.7244094488188977,
                    "duration": 0.9000000000000057
                },
                {
                    "name": "F4",
                    "midi": 65,
                    "time": 155.09999999999974,
                    "velocity": 0.7244094488188977,
                    "duration": 0.44999999999998863
                },
                {
                    "name": "G4",
                    "midi": 67,
                    "time": 155.54999999999973,
                    "velocity": 0.7244094488188977,
                    "duration": 0.44999999999998863
                },
                {
                    "name": "G#4",
                    "midi": 68,
                    "time": 155.99999999999972,
                    "velocity": 0.7244094488188977,
                    "duration": 1.6999999999999886
                },
                {
                    "name": "G4",
                    "midi": 67,
                    "time": 157.7999999999997,
                    "velocity": 0.7244094488188977,
                    "duration": 0.5999999999999943
                },
                {
                    "name": "F4",
                    "midi": 65,
                    "time": 158.3999999999997,
                    "velocity": 0.7244094488188977,
                    "duration": 0.30000000000001137
                },
                {
                    "name": "D#4",
                    "midi": 63,
                    "time": 158.6999999999997,
                    "velocity": 0.7244094488188977,
                    "duration": 0.8000000000000114
                },
                {
                    "name": "C4",
                    "midi": 60,
                    "time": 159.5999999999997,
                    "velocity": 0.7244094488188977,
                    "duration": 0.5999999999999943
                },
                {
                    "name": "G#3",
                    "midi": 56,
                    "time": 160.1999999999997,
                    "velocity": 0.7244094488188977,
                    "duration": 0.29374999999998863
                },
                {
                    "name": "C4",
                    "midi": 60,
                    "time": 160.4999999999997,
                    "velocity": 0.7244094488188977,
                    "duration": 0.9000000000000057
                },
                {
                    "name": "A#3",
                    "midi": 58,
                    "time": 161.3999999999997,
                    "velocity": 0.7244094488188977,
                    "duration": 0.9000000000000057
                },
                {
                    "name": "C3",
                    "midi": 48,
                    "time": 162.2999999999997,
                    "velocity": 0.47244094488188976,
                    "duration": 0.5999999999999943
                },
                {
                    "name": "G3",
                    "midi": 55,
                    "time": 162.2999999999997,
                    "velocity": 0.47244094488188976,
                    "duration": 0.5999999999999943
                },
                {
                    "name": "C3",
                    "midi": 48,
                    "time": 166.7999999999997,
                    "velocity": 0.47244094488188976,
                    "duration": 0.15000000000000568
                },
                {
                    "name": "B2",
                    "midi": 47,
                    "time": 166.9499999999997,
                    "velocity": 0.47244094488188976,
                    "duration": 0.09999999999999432
                },
                {
                    "name": "C3",
                    "midi": 48,
                    "time": 167.0999999999997,
                    "velocity": 0.47244094488188976,
                    "duration": 0.09999999999999432
                },
                {
                    "name": "D3",
                    "midi": 50,
                    "time": 167.24999999999972,
                    "velocity": 0.47244094488188976,
                    "duration": 0.09999999999999432
                },
                {
                    "name": "E3",
                    "midi": 52,
                    "time": 167.39999999999972,
                    "velocity": 0.47244094488188976,
                    "duration": 0.09999999999999432
                },
                {
                    "name": "F3",
                    "midi": 53,
                    "time": 167.54999999999973,
                    "velocity": 0.47244094488188976,
                    "duration": 0.09999999999999432
                },
                {
                    "name": "G2",
                    "midi": 43,
                    "time": 167.69999999999973,
                    "velocity": 0.6614173228346457,
                    "duration": 0.29374999999998863
                },
                {
                    "name": "C3",
                    "midi": 48,
                    "time": 170.39999999999972,
                    "velocity": 0.3543307086614173,
                    "duration": 0.09999999999999432
                },
                {
                    "name": "C3",
                    "midi": 48,
                    "time": 170.6999999999997,
                    "velocity": 0.3543307086614173,
                    "duration": 0.09999999999999432
                },
                {
                    "name": "D3",
                    "midi": 50,
                    "time": 171.2999999999997,
                    "velocity": 0.3543307086614173,
                    "duration": 0.09999999999999432
                },
                {
                    "name": "D3",
                    "midi": 50,
                    "time": 171.59999999999968,
                    "velocity": 0.3543307086614173,
                    "duration": 0.09999999999999432
                },
                {
                    "name": "G3",
                    "midi": 55,
                    "time": 172.19999999999968,
                    "velocity": 0.3543307086614173,
                    "duration": 0.09999999999999432
                },
                {
                    "name": "G3",
                    "midi": 55,
                    "time": 172.49999999999966,
                    "velocity": 0.3543307086614173,
                    "duration": 0.09999999999999432
                },
                {
                    "name": "G2",
                    "midi": 43,
                    "time": 173.09999999999965,
                    "velocity": 0.3543307086614173,
                    "duration": 0.09999999999999432
                },
                {
                    "name": "G2",
                    "midi": 43,
                    "time": 173.39999999999964,
                    "velocity": 0.3543307086614173,
                    "duration": 0.09999999999999432
                },
                {
                    "name": "C3",
                    "midi": 48,
                    "time": 173.99999999999963,
                    "velocity": 0.3543307086614173,
                    "duration": 0.09999999999999432
                },
                {
                    "name": "C3",
                    "midi": 48,
                    "time": 174.2999999999996,
                    "velocity": 0.3543307086614173,
                    "duration": 0.09999999999999432
                },
                {
                    "name": "F#3",
                    "midi": 54,
                    "time": 174.8999999999996,
                    "velocity": 0.3543307086614173,
                    "duration": 0.09999999999999432
                },
                {
                    "name": "F#3",
                    "midi": 54,
                    "time": 175.1999999999996,
                    "velocity": 0.3543307086614173,
                    "duration": 0.09999999999999432
                },
                {
                    "name": "G3",
                    "midi": 55,
                    "time": 175.79999999999959,
                    "velocity": 0.3543307086614173,
                    "duration": 0.5999999999999943
                },
                {
                    "name": "G2",
                    "midi": 43,
                    "time": 176.6999999999996,
                    "velocity": 0.3543307086614173,
                    "duration": 0.9000000000000057
                },
                {
                    "name": "C3",
                    "midi": 48,
                    "time": 177.5999999999996,
                    "velocity": 0.3543307086614173,
                    "duration": 0.09999999999999432
                },
                {
                    "name": "C3",
                    "midi": 48,
                    "time": 177.89999999999958,
                    "velocity": 0.3543307086614173,
                    "duration": 0.09999999999999432
                },
                {
                    "name": "D3",
                    "midi": 50,
                    "time": 178.49999999999957,
                    "velocity": 0.3543307086614173,
                    "duration": 0.09999999999999432
                },
                {
                    "name": "D3",
                    "midi": 50,
                    "time": 178.79999999999956,
                    "velocity": 0.3543307086614173,
                    "duration": 0.09999999999999432
                },
                {
                    "name": "G3",
                    "midi": 55,
                    "time": 179.39999999999955,
                    "velocity": 0.3543307086614173,
                    "duration": 0.09999999999999432
                },
                {
                    "name": "G3",
                    "midi": 55,
                    "time": 179.69999999999953,
                    "velocity": 0.3543307086614173,
                    "duration": 0.09999999999999432
                },
                {
                    "name": "G2",
                    "midi": 43,
                    "time": 180.29999999999953,
                    "velocity": 0.3543307086614173,
                    "duration": 0.09999999999999432
                },
                {
                    "name": "G2",
                    "midi": 43,
                    "time": 180.5999999999995,
                    "velocity": 0.3543307086614173,
                    "duration": 0.09999999999999432
                },
                {
                    "name": "C3",
                    "midi": 48,
                    "time": 181.1999999999995,
                    "velocity": 0.3543307086614173,
                    "duration": 0.09999999999999432
                },
                {
                    "name": "G2",
                    "midi": 43,
                    "time": 182.0999999999995,
                    "velocity": 0.3543307086614173,
                    "duration": 0.09999999999999432
                },
                {
                    "name": "C3",
                    "midi": 48,
                    "time": 182.99999999999952,
                    "velocity": 0.3543307086614173,
                    "duration": 0.5999999999999943
                },
                {
                    "name": "C4",
                    "midi": 60,
                    "time": 185.0999999999995,
                    "velocity": 0.7244094488188977,
                    "duration": 0.30000000000001137
                },
                {
                    "name": "D4",
                    "midi": 62,
                    "time": 185.39999999999952,
                    "velocity": 0.7244094488188977,
                    "duration": 0.29374999999998863
                },
                {
                    "name": "D#4",
                    "midi": 63,
                    "time": 185.6999999999995,
                    "velocity": 0.7244094488188977,
                    "duration": 0.30000000000001137
                },
                {
                    "name": "F4",
                    "midi": 65,
                    "time": 185.99999999999952,
                    "velocity": 0.7244094488188977,
                    "duration": 0.30000000000001137
                },
                {
                    "name": "F#4",
                    "midi": 66,
                    "time": 186.29999999999953,
                    "velocity": 0.7244094488188977,
                    "duration": 0.29374999999998863
                },
                {
                    "name": "G4",
                    "midi": 67,
                    "time": 186.5999999999995,
                    "velocity": 0.7244094488188977,
                    "duration": 0.8000000000000114
                },
                {
                    "name": "F4",
                    "midi": 65,
                    "time": 187.49999999999952,
                    "velocity": 0.7244094488188977,
                    "duration": 0.8000000000000114
                },
                {
                    "name": "D#4",
                    "midi": 63,
                    "time": 188.39999999999952,
                    "velocity": 0.7244094488188977,
                    "duration": 0.5999999999999943
                },
                {
                    "name": "D4",
                    "midi": 62,
                    "time": 188.99999999999952,
                    "velocity": 0.7244094488188977,
                    "duration": 0.29374999999998863
                },
                {
                    "name": "C4",
                    "midi": 60,
                    "time": 189.2999999999995,
                    "velocity": 0.7244094488188977,
                    "duration": 0.30000000000001137
                },
                {
                    "name": "B3",
                    "midi": 59,
                    "time": 189.5999999999995,
                    "velocity": 0.7244094488188977,
                    "duration": 0.30000000000001137
                },
                {
                    "name": "C4",
                    "midi": 60,
                    "time": 189.89999999999952,
                    "velocity": 0.7244094488188977,
                    "duration": 0.29374999999998863
                },
                {
                    "name": "D4",
                    "midi": 62,
                    "time": 190.1999999999995,
                    "velocity": 0.7244094488188977,
                    "duration": 0.5
                },
                {
                    "name": "G3",
                    "midi": 55,
                    "time": 191.0999999999995,
                    "velocity": 0.7244094488188977,
                    "duration": 1.1937499999999943
                },
                {
                    "name": "C4",
                    "midi": 60,
                    "time": 192.2999999999995,
                    "velocity": 0.7244094488188977,
                    "duration": 0.30000000000001137
                },
                {
                    "name": "D4",
                    "midi": 62,
                    "time": 192.5999999999995,
                    "velocity": 0.7244094488188977,
                    "duration": 0.29374999999998863
                },
                {
                    "name": "C4",
                    "midi": 60,
                    "time": 192.8999999999995,
                    "velocity": 0.7244094488188977,
                    "duration": 0.30000000000001137
                },
                {
                    "name": "D4",
                    "midi": 62,
                    "time": 193.1999999999995,
                    "velocity": 0.7244094488188977,
                    "duration": 0.30000000000001137
                },
                {
                    "name": "F#4",
                    "midi": 66,
                    "time": 193.49999999999952,
                    "velocity": 0.7244094488188977,
                    "duration": 0.29374999999998863
                },
                {
                    "name": "G4",
                    "midi": 67,
                    "time": 193.7999999999995,
                    "velocity": 0.7244094488188977,
                    "duration": 0.8000000000000114
                },
                {
                    "name": "F4",
                    "midi": 65,
                    "time": 194.6999999999995,
                    "velocity": 0.7244094488188977,
                    "duration": 0.30000000000001137
                },
                {
                    "name": "D#4",
                    "midi": 63,
                    "time": 194.99999999999952,
                    "velocity": 0.7244094488188977,
                    "duration": 0.30000000000001137
                },
                {
                    "name": "D4",
                    "midi": 62,
                    "time": 195.29999999999953,
                    "velocity": 0.7244094488188977,
                    "duration": 0.29374999999998863
                },
                {
                    "name": "C4",
                    "midi": 60,
                    "time": 195.5999999999995,
                    "velocity": 0.7244094488188977,
                    "duration": 0.29374999999998863
                },
                {
                    "name": "G3",
                    "midi": 55,
                    "time": 196.4999999999995,
                    "velocity": 0.7244094488188977,
                    "duration": 0.29374999999998863
                },
                {
                    "name": "C3",
                    "midi": 48,
                    "time": 197.39999999999947,
                    "velocity": 0.7244094488188977,
                    "duration": 0.5999999999999943
                },
                {
                    "name": "D#3",
                    "midi": 51,
                    "time": 199.19999999999945,
                    "velocity": 0.3543307086614173,
                    "duration": 0.5999999999999943
                },
                {
                    "name": "A#2",
                    "midi": 46,
                    "time": 200.09999999999945,
                    "velocity": 0.3543307086614173,
                    "duration": 0.5999999999999943
                },
                {
                    "name": "D#3",
                    "midi": 51,
                    "time": 200.99999999999946,
                    "velocity": 0.3543307086614173,
                    "duration": 0.5999999999999943
                },
                {
                    "name": "G3",
                    "midi": 55,
                    "time": 202.79999999999944,
                    "velocity": 0.3543307086614173,
                    "duration": 0.5999999999999943
                },
                {
                    "name": "D3",
                    "midi": 50,
                    "time": 203.69999999999945,
                    "velocity": 0.3543307086614173,
                    "duration": 0.5999999999999943
                },
                {
                    "name": "G3",
                    "midi": 55,
                    "time": 204.59999999999945,
                    "velocity": 0.3543307086614173,
                    "duration": 0.5999999999999943
                },
                {
                    "name": "A#3",
                    "midi": 58,
                    "time": 206.39999999999944,
                    "velocity": 0.3543307086614173,
                    "duration": 0.5999999999999943
                },
                {
                    "name": "F3",
                    "midi": 53,
                    "time": 207.29999999999944,
                    "velocity": 0.3543307086614173,
                    "duration": 0.5999999999999943
                },
                {
                    "name": "A#2",
                    "midi": 46,
                    "time": 208.19999999999945,
                    "velocity": 0.3543307086614173,
                    "duration": 0.9000000000000057
                },
                {
                    "name": "C3",
                    "midi": 48,
                    "time": 209.09999999999945,
                    "velocity": 0.3543307086614173,
                    "duration": 0.9000000000000057
                },
                {
                    "name": "A#2",
                    "midi": 46,
                    "time": 209.99999999999946,
                    "velocity": 0.3543307086614173,
                    "duration": 0.9000000000000057
                },
                {
                    "name": "C3",
                    "midi": 48,
                    "time": 210.89999999999947,
                    "velocity": 0.3543307086614173,
                    "duration": 0.9000000000000057
                },
                {
                    "name": "A#2",
                    "midi": 46,
                    "time": 211.79999999999947,
                    "velocity": 0.3543307086614173,
                    "duration": 0.5999999999999943
                },
                {
                    "name": "G3",
                    "midi": 55,
                    "time": 212.39999999999947,
                    "velocity": 0.3543307086614173,
                    "duration": 0.29374999999998863
                },
                {
                    "name": "C3",
                    "midi": 48,
                    "time": 212.69999999999945,
                    "velocity": 0.49606299212598426,
                    "duration": 0.8000000000000114
                },
                {
                    "name": "G#2",
                    "midi": 44,
                    "time": 213.89999999999947,
                    "velocity": 0.5905511811023622,
                    "duration": 0.30000000000001137
                },
                {
                    "name": "A#2",
                    "midi": 46,
                    "time": 214.19999999999948,
                    "velocity": 0.5905511811023622,
                    "duration": 0.29374999999998863
                },
                {
                    "name": "C3",
                    "midi": 48,
                    "time": 214.49999999999946,
                    "velocity": 0.5905511811023622,
                    "duration": 0.30000000000001137
                },
                {
                    "name": "D3",
                    "midi": 50,
                    "time": 214.79999999999947,
                    "velocity": 0.5905511811023622,
                    "duration": 0.30000000000001137
                },
                {
                    "name": "D#3",
                    "midi": 51,
                    "time": 215.09999999999948,
                    "velocity": 0.5905511811023622,
                    "duration": 0.29374999999998863
                },
                {
                    "name": "F3",
                    "midi": 53,
                    "time": 215.39999999999947,
                    "velocity": 0.5905511811023622,
                    "duration": 0.5
                },
                {
                    "name": "A#2",
                    "midi": 46,
                    "time": 216.29999999999947,
                    "velocity": 0.8267716535433071,
                    "duration": 0.8000000000000114
                },
                {
                    "name": "A#2",
                    "midi": 46,
                    "time": 217.4999999999995,
                    "velocity": 0.7244094488188977,
                    "duration": 0.30000000000001137
                },
                {
                    "name": "C3",
                    "midi": 48,
                    "time": 217.7999999999995,
                    "velocity": 0.7244094488188977,
                    "duration": 0.29374999999998863
                },
                {
                    "name": "D3",
                    "midi": 50,
                    "time": 218.09999999999948,
                    "velocity": 0.7244094488188977,
                    "duration": 0.30000000000001137
                },
                {
                    "name": "D#3",
                    "midi": 51,
                    "time": 218.3999999999995,
                    "velocity": 0.7244094488188977,
                    "duration": 0.30000000000001137
                },
                {
                    "name": "F3",
                    "midi": 53,
                    "time": 218.6999999999995,
                    "velocity": 0.7244094488188977,
                    "duration": 0.29374999999998863
                },
                {
                    "name": "G3",
                    "midi": 55,
                    "time": 218.9999999999995,
                    "velocity": 0.7244094488188977,
                    "duration": 0.5
                },
                {
                    "name": "G3",
                    "midi": 55,
                    "time": 219.8999999999995,
                    "velocity": 0.7244094488188977,
                    "duration": 0.15000000000000568
                },
                {
                    "name": "F#3",
                    "midi": 54,
                    "time": 220.0499999999995,
                    "velocity": 0.7244094488188977,
                    "duration": 0.09999999999999432
                },
                {
                    "name": "G3",
                    "midi": 55,
                    "time": 220.1999999999995,
                    "velocity": 0.7244094488188977,
                    "duration": 0.09999999999999432
                },
                {
                    "name": "A3",
                    "midi": 57,
                    "time": 220.3499999999995,
                    "velocity": 0.7244094488188977,
                    "duration": 0.09999999999999432
                },
                {
                    "name": "A#3",
                    "midi": 58,
                    "time": 220.49999999999952,
                    "velocity": 0.7244094488188977,
                    "duration": 0.09999999999999432
                },
                {
                    "name": "B3",
                    "midi": 59,
                    "time": 220.64999999999952,
                    "velocity": 0.7244094488188977,
                    "duration": 0.09999999999999432
                },
                {
                    "name": "C4",
                    "midi": 60,
                    "time": 220.79999999999953,
                    "velocity": 0.7244094488188977,
                    "duration": 0.09999999999999432
                },
                {
                    "name": "C4",
                    "midi": 60,
                    "time": 221.0999999999995,
                    "velocity": 0.7244094488188977,
                    "duration": 0.09999999999999432
                },
                {
                    "name": "G#3",
                    "midi": 56,
                    "time": 221.6999999999995,
                    "velocity": 0.3543307086614173,
                    "duration": 0.09999999999999432
                },
                {
                    "name": "G#3",
                    "midi": 56,
                    "time": 221.9999999999995,
                    "velocity": 0.3543307086614173,
                    "duration": 0.09999999999999432
                },
                {
                    "name": "G3",
                    "midi": 55,
                    "time": 222.59999999999948,
                    "velocity": 0.3543307086614173,
                    "duration": 0.09999999999999432
                },
                {
                    "name": "G3",
                    "midi": 55,
                    "time": 222.89999999999947,
                    "velocity": 0.3543307086614173,
                    "duration": 0.09999999999999432
                },
                {
                    "name": "G2",
                    "midi": 43,
                    "time": 223.49999999999946,
                    "velocity": 0.7244094488188977,
                    "duration": 0.15000000000000568
                },
                {
                    "name": "F#2",
                    "midi": 42,
                    "time": 223.64999999999947,
                    "velocity": 0.7244094488188977,
                    "duration": 0.09999999999999432
                },
                {
                    "name": "G2",
                    "midi": 43,
                    "time": 223.79999999999947,
                    "velocity": 0.7244094488188977,
                    "duration": 0.09999999999999432
                },
                {
                    "name": "A2",
                    "midi": 45,
                    "time": 223.94999999999948,
                    "velocity": 0.7244094488188977,
                    "duration": 0.09999999999999432
                },
                {
                    "name": "A#2",
                    "midi": 46,
                    "time": 224.09999999999948,
                    "velocity": 0.7244094488188977,
                    "duration": 0.09999999999999432
                },
                {
                    "name": "B2",
                    "midi": 47,
                    "time": 224.2499999999995,
                    "velocity": 0.7244094488188977,
                    "duration": 0.09999999999999432
                },
                {
                    "name": "C3",
                    "midi": 48,
                    "time": 224.3999999999995,
                    "velocity": 0.7244094488188977,
                    "duration": 0.09999999999999432
                },
                {
                    "name": "C3",
                    "midi": 48,
                    "time": 224.69999999999948,
                    "velocity": 0.7244094488188977,
                    "duration": 0.09999999999999432
                },
                {
                    "name": "G#2",
                    "midi": 44,
                    "time": 225.29999999999947,
                    "velocity": 0.3543307086614173,
                    "duration": 0.09999999999999432
                },
                {
                    "name": "G#2",
                    "midi": 44,
                    "time": 225.59999999999945,
                    "velocity": 0.3543307086614173,
                    "duration": 0.09999999999999432
                },
                {
                    "name": "G2",
                    "midi": 43,
                    "time": 226.19999999999945,
                    "velocity": 0.3543307086614173,
                    "duration": 0.5999999999999943
                },
                {
                    "name": "D3",
                    "midi": 50,
                    "time": 226.19999999999945,
                    "velocity": 0.3543307086614173,
                    "duration": 0.5999999999999943
                },
                {
                    "name": "G3",
                    "midi": 55,
                    "time": 229.79999999999944,
                    "velocity": 0.3543307086614173,
                    "duration": 0.09999999999999432
                },
                {
                    "name": "G3",
                    "midi": 55,
                    "time": 230.09999999999943,
                    "velocity": 0.3543307086614173,
                    "duration": 0.09999999999999432
                },
                {
                    "name": "G3",
                    "midi": 55,
                    "time": 230.3999999999994,
                    "velocity": 0.3543307086614173,
                    "duration": 0.09999999999999432
                },
                {
                    "name": "G2",
                    "midi": 43,
                    "time": 230.6999999999994,
                    "velocity": 0.3543307086614173,
                    "duration": 0.09999999999999432
                },
                {
                    "name": "G2",
                    "midi": 43,
                    "time": 230.99999999999937,
                    "velocity": 0.3543307086614173,
                    "duration": 0.09999999999999432
                },
                {
                    "name": "G2",
                    "midi": 43,
                    "time": 231.29999999999936,
                    "velocity": 0.3543307086614173,
                    "duration": 0.09999999999999432
                },
                {
                    "name": "C3",
                    "midi": 48,
                    "time": 232.49999999999935,
                    "velocity": 0.3543307086614173,
                    "duration": 0.09999999999999432
                },
                {
                    "name": "C3",
                    "midi": 48,
                    "time": 232.79999999999933,
                    "velocity": 0.3543307086614173,
                    "duration": 0.09999999999999432
                },
                {
                    "name": "D3",
                    "midi": 50,
                    "time": 233.39999999999932,
                    "velocity": 0.3543307086614173,
                    "duration": 0.09999999999999432
                },
                {
                    "name": "D3",
                    "midi": 50,
                    "time": 233.6999999999993,
                    "velocity": 0.3543307086614173,
                    "duration": 0.09999999999999432
                },
                {
                    "name": "G3",
                    "midi": 55,
                    "time": 234.2999999999993,
                    "velocity": 0.3543307086614173,
                    "duration": 0.09999999999999432
                },
                {
                    "name": "G3",
                    "midi": 55,
                    "time": 234.59999999999928,
                    "velocity": 0.3543307086614173,
                    "duration": 0.09999999999999432
                },
                {
                    "name": "G2",
                    "midi": 43,
                    "time": 235.19999999999928,
                    "velocity": 0.3543307086614173,
                    "duration": 0.09999999999999432
                },
                {
                    "name": "G2",
                    "midi": 43,
                    "time": 235.49999999999926,
                    "velocity": 0.3543307086614173,
                    "duration": 0.09999999999999432
                },
                {
                    "name": "C3",
                    "midi": 48,
                    "time": 236.09999999999926,
                    "velocity": 0.3543307086614173,
                    "duration": 0.09999999999999432
                },
                {
                    "name": "C3",
                    "midi": 48,
                    "time": 236.39999999999924,
                    "velocity": 0.3543307086614173,
                    "duration": 0.09999999999999432
                },
                {
                    "name": "F#3",
                    "midi": 54,
                    "time": 236.99999999999923,
                    "velocity": 0.3543307086614173,
                    "duration": 0.09999999999999432
                },
                {
                    "name": "F#3",
                    "midi": 54,
                    "time": 237.29999999999922,
                    "velocity": 0.3543307086614173,
                    "duration": 0.09999999999999432
                },
                {
                    "name": "G3",
                    "midi": 55,
                    "time": 237.8999999999992,
                    "velocity": 0.3543307086614173,
                    "duration": 0.5999999999999943
                },
                {
                    "name": "G2",
                    "midi": 43,
                    "time": 238.79999999999922,
                    "velocity": 0.49606299212598426,
                    "duration": 0.9000000000000057
                },
                {
                    "name": "C3",
                    "midi": 48,
                    "time": 239.69999999999922,
                    "velocity": 0.3543307086614173,
                    "duration": 0.09999999999999432
                },
                {
                    "name": "C3",
                    "midi": 48,
                    "time": 239.9999999999992,
                    "velocity": 0.3543307086614173,
                    "duration": 0.09999999999999432
                },
                {
                    "name": "C3",
                    "midi": 48,
                    "time": 240.5999999999992,
                    "velocity": 0.3543307086614173,
                    "duration": 0.09999999999999432
                },
                {
                    "name": "C3",
                    "midi": 48,
                    "time": 240.89999999999918,
                    "velocity": 0.3543307086614173,
                    "duration": 0.09999999999999432
                },
                {
                    "name": "F3",
                    "midi": 53,
                    "time": 241.49999999999918,
                    "velocity": 0.3543307086614173,
                    "duration": 0.09999999999999432
                },
                {
                    "name": "F3",
                    "midi": 53,
                    "time": 241.79999999999916,
                    "velocity": 0.3543307086614173,
                    "duration": 0.09999999999999432
                },
                {
                    "name": "F3",
                    "midi": 53,
                    "time": 242.39999999999915,
                    "velocity": 0.3543307086614173,
                    "duration": 0.09999999999999432
                },
                {
                    "name": "F3",
                    "midi": 53,
                    "time": 242.69999999999914,
                    "velocity": 0.3543307086614173,
                    "duration": 0.09999999999999432
                },
                {
                    "name": "C3",
                    "midi": 48,
                    "time": 243.29999999999913,
                    "velocity": 0.3543307086614173,
                    "duration": 0.09999999999999432
                },
                {
                    "name": "G3",
                    "midi": 55,
                    "time": 244.19999999999914,
                    "velocity": 0.3543307086614173,
                    "duration": 0.09999999999999432
                },
                {
                    "name": "C3",
                    "midi": 48,
                    "time": 245.09999999999914,
                    "velocity": 0.3543307086614173,
                    "duration": 0.5999999999999943
                },
                {
                    "name": "C4",
                    "midi": 60,
                    "time": 247.19999999999914,
                    "velocity": 0.7244094488188977,
                    "duration": 0.30000000000001137
                },
                {
                    "name": "D4",
                    "midi": 62,
                    "time": 247.49999999999915,
                    "velocity": 0.7244094488188977,
                    "duration": 0.29374999999998863
                },
                {
                    "name": "D#4",
                    "midi": 63,
                    "time": 247.79999999999913,
                    "velocity": 0.7244094488188977,
                    "duration": 0.30000000000001137
                },
                {
                    "name": "F4",
                    "midi": 65,
                    "time": 248.09999999999914,
                    "velocity": 0.7244094488188977,
                    "duration": 0.30000000000001137
                },
                {
                    "name": "F#4",
                    "midi": 66,
                    "time": 248.39999999999915,
                    "velocity": 0.7244094488188977,
                    "duration": 0.29374999999998863
                },
                {
                    "name": "G4",
                    "midi": 67,
                    "time": 248.69999999999914,
                    "velocity": 0.7244094488188977,
                    "duration": 0.9000000000000057
                },
                {
                    "name": "F4",
                    "midi": 65,
                    "time": 249.59999999999914,
                    "velocity": 0.7244094488188977,
                    "duration": 0.9000000000000057
                },
                {
                    "name": "D#4",
                    "midi": 63,
                    "time": 250.49999999999915,
                    "velocity": 0.7244094488188977,
                    "duration": 0.5999999999999943
                },
                {
                    "name": "D4",
                    "midi": 62,
                    "time": 251.09999999999914,
                    "velocity": 0.7244094488188977,
                    "duration": 0.29374999999998863
                },
                {
                    "name": "C4",
                    "midi": 60,
                    "time": 251.39999999999912,
                    "velocity": 0.7244094488188977,
                    "duration": 0.30000000000001137
                },
                {
                    "name": "B3",
                    "midi": 59,
                    "time": 251.69999999999914,
                    "velocity": 0.7244094488188977,
                    "duration": 0.30000000000001137
                },
                {
                    "name": "C4",
                    "midi": 60,
                    "time": 251.99999999999915,
                    "velocity": 0.7244094488188977,
                    "duration": 0.29374999999998863
                },
                {
                    "name": "D4",
                    "midi": 62,
                    "time": 252.29999999999913,
                    "velocity": 0.7244094488188977,
                    "duration": 0.5999999999999943
                },
                {
                    "name": "G3",
                    "midi": 55,
                    "time": 253.19999999999914,
                    "velocity": 0.7244094488188977,
                    "duration": 1.1937499999999943
                },
                {
                    "name": "C4",
                    "midi": 60,
                    "time": 254.39999999999912,
                    "velocity": 0.7244094488188977,
                    "duration": 0.30000000000001137
                },
                {
                    "name": "D4",
                    "midi": 62,
                    "time": 254.69999999999914,
                    "velocity": 0.7244094488188977,
                    "duration": 0.29374999999998863
                },
                {
                    "name": "C4",
                    "midi": 60,
                    "time": 254.99999999999912,
                    "velocity": 0.7244094488188977,
                    "duration": 0.30000000000001137
                },
                {
                    "name": "D4",
                    "midi": 62,
                    "time": 255.29999999999913,
                    "velocity": 0.7244094488188977,
                    "duration": 0.30000000000001137
                },
                {
                    "name": "F#4",
                    "midi": 66,
                    "time": 255.59999999999914,
                    "velocity": 0.7244094488188977,
                    "duration": 0.29374999999998863
                },
                {
                    "name": "G4",
                    "midi": 67,
                    "time": 255.89999999999912,
                    "velocity": 0.7244094488188977,
                    "duration": 0.8999999999999773
                },
                {
                    "name": "F4",
                    "midi": 65,
                    "time": 256.7999999999991,
                    "velocity": 0.7244094488188977,
                    "duration": 0.30000000000001137
                },
                {
                    "name": "D#4",
                    "midi": 63,
                    "time": 257.0999999999991,
                    "velocity": 0.7244094488188977,
                    "duration": 0.30000000000001137
                },
                {
                    "name": "D4",
                    "midi": 62,
                    "time": 257.3999999999991,
                    "velocity": 0.7244094488188977,
                    "duration": 0.30000000000001137
                },
                {
                    "name": "C4",
                    "midi": 60,
                    "time": 257.69999999999914,
                    "velocity": 0.7244094488188977,
                    "duration": 0.29374999999998863
                },
                {
                    "name": "G2",
                    "midi": 43,
                    "time": 258.5999999999991,
                    "velocity": 0.7244094488188977,
                    "duration": 0.29374999999998863
                },
                {
                    "name": "C4",
                    "midi": 60,
                    "time": 259.4999999999991,
                    "velocity": 0.7244094488188977,
                    "duration": 0.6000000000000227
                },
                {
                    "name": "C4",
                    "midi": 60,
                    "time": 260.0999999999991,
                    "velocity": 0.7244094488188977,
                    "duration": 0.10000000000002274
                },
                {
                    "name": "C4",
                    "midi": 60,
                    "time": 260.3999999999991,
                    "velocity": 1,
                    "duration": 0.10000000000002274
                },
                {
                    "name": "B3",
                    "midi": 59,
                    "time": 260.69999999999914,
                    "velocity": 1,
                    "duration": 0.10000000000002274
                },
                {
                    "name": "A#3",
                    "midi": 58,
                    "time": 260.99999999999915,
                    "velocity": 1,
                    "duration": 0.10000000000002274
                },
                {
                    "name": "G#3",
                    "midi": 56,
                    "time": 261.29999999999916,
                    "velocity": 1,
                    "duration": 0.10000000000002274
                },
                {
                    "name": "G3",
                    "midi": 55,
                    "time": 261.59999999999917,
                    "velocity": 1,
                    "duration": 0.10000000000002274
                },
                {
                    "name": "F3",
                    "midi": 53,
                    "time": 261.8999999999992,
                    "velocity": 1,
                    "duration": 0.10000000000002274
                },
                {
                    "name": "A#3",
                    "midi": 58,
                    "time": 262.1999999999992,
                    "velocity": 1,
                    "duration": 0.10000000000002274
                },
                {
                    "name": "A3",
                    "midi": 57,
                    "time": 262.4999999999992,
                    "velocity": 1,
                    "duration": 0.10000000000002274
                },
                {
                    "name": "G#3",
                    "midi": 56,
                    "time": 262.7999999999992,
                    "velocity": 1,
                    "duration": 0.10000000000002274
                },
                {
                    "name": "G3",
                    "midi": 55,
                    "time": 263.0999999999992,
                    "velocity": 1,
                    "duration": 0.10000000000002274
                },
                {
                    "name": "F3",
                    "midi": 53,
                    "time": 263.39999999999924,
                    "velocity": 1,
                    "duration": 0.10000000000002274
                },
                {
                    "name": "D#3",
                    "midi": 51,
                    "time": 263.69999999999925,
                    "velocity": 1,
                    "duration": 0.10000000000002274
                },
                {
                    "name": "F3",
                    "midi": 53,
                    "time": 263.99999999999926,
                    "velocity": 1,
                    "duration": 0.10000000000002274
                },
                {
                    "name": "G3",
                    "midi": 55,
                    "time": 264.8999999999993,
                    "velocity": 1,
                    "duration": 0.10000000000002274
                },
                {
                    "name": "G3",
                    "midi": 55,
                    "time": 265.79999999999933,
                    "velocity": 1,
                    "duration": 0.10000000000002274
                },
                {
                    "name": "C3",
                    "midi": 48,
                    "time": 266.69999999999936,
                    "velocity": 0.7244094488188977,
                    "duration": 0.6000000000000227
                },
                {
                    "name": "C4",
                    "midi": 60,
                    "time": 267.2999999999994,
                    "velocity": 0.7244094488188977,
                    "duration": 0.29374999999998863
                },
                {
                    "name": "C4",
                    "midi": 60,
                    "time": 267.5999999999994,
                    "velocity": 1,
                    "duration": 0.10000000000002274
                },
                {
                    "name": "B3",
                    "midi": 59,
                    "time": 267.8999999999994,
                    "velocity": 1,
                    "duration": 0.10000000000002274
                },
                {
                    "name": "A#3",
                    "midi": 58,
                    "time": 268.1999999999994,
                    "velocity": 1,
                    "duration": 0.10000000000002274
                },
                {
                    "name": "G#3",
                    "midi": 56,
                    "time": 268.49999999999943,
                    "velocity": 1,
                    "duration": 0.10000000000002274
                },
                {
                    "name": "G3",
                    "midi": 55,
                    "time": 268.79999999999944,
                    "velocity": 1,
                    "duration": 0.10000000000002274
                },
                {
                    "name": "F3",
                    "midi": 53,
                    "time": 269.09999999999945,
                    "velocity": 1,
                    "duration": 0.10000000000002274
                },
                {
                    "name": "A#3",
                    "midi": 58,
                    "time": 269.39999999999947,
                    "velocity": 1,
                    "duration": 0.10000000000002274
                },
                {
                    "name": "A3",
                    "midi": 57,
                    "time": 269.6999999999995,
                    "velocity": 1,
                    "duration": 0.10000000000002274
                },
                {
                    "name": "G#3",
                    "midi": 56,
                    "time": 269.9999999999995,
                    "velocity": 1,
                    "duration": 0.10000000000002274
                },
                {
                    "name": "G3",
                    "midi": 55,
                    "time": 270.2999999999995,
                    "velocity": 1,
                    "duration": 0.10000000000002274
                },
                {
                    "name": "F3",
                    "midi": 53,
                    "time": 270.5999999999995,
                    "velocity": 1,
                    "duration": 0.10000000000002274
                },
                {
                    "name": "D#3",
                    "midi": 51,
                    "time": 270.8999999999995,
                    "velocity": 1,
                    "duration": 0.10000000000002274
                },
                {
                    "name": "F3",
                    "midi": 53,
                    "time": 271.19999999999953,
                    "velocity": 1,
                    "duration": 0.10000000000002274
                },
                {
                    "name": "G3",
                    "midi": 55,
                    "time": 272.09999999999957,
                    "velocity": 1,
                    "duration": 0.10000000000002274
                },
                {
                    "name": "G3",
                    "midi": 55,
                    "time": 272.9999999999996,
                    "velocity": 1,
                    "duration": 0.10000000000002274
                },
                {
                    "name": "C3",
                    "midi": 48,
                    "time": 273.89999999999964,
                    "velocity": 0.7244094488188977,
                    "duration": 0.6000000000000227
                },
                {
                    "name": "G2",
                    "midi": 43,
                    "time": 274.79999999999967,
                    "velocity": 0.47244094488188976,
                    "duration": 0.8000000000000114
                },
                {
                    "name": "G2",
                    "midi": 43,
                    "time": 275.6999999999997,
                    "velocity": 0.47244094488188976,
                    "duration": 0.8000000000000114
                },
                {
                    "name": "G2",
                    "midi": 43,
                    "time": 276.59999999999974,
                    "velocity": 0.47244094488188976,
                    "duration": 0.8000000000000114
                },
                {
                    "name": "G2",
                    "midi": 43,
                    "time": 277.4999999999998,
                    "velocity": 0.47244094488188976,
                    "duration": 0.8000000000000114
                },
                {
                    "name": "G2",
                    "midi": 43,
                    "time": 278.3999999999998,
                    "velocity": 0.7244094488188977,
                    "duration": 0.8000000000000114
                },
                {
                    "name": "G2",
                    "midi": 43,
                    "time": 279.29999999999984,
                    "velocity": 0.7244094488188977,
                    "duration": 0.8000000000000114
                },
                {
                    "name": "G2",
                    "midi": 43,
                    "time": 280.1999999999999,
                    "velocity": 0.7244094488188977,
                    "duration": 0.29374999999998863
                },
                {
                    "name": "F2",
                    "midi": 41,
                    "time": 280.4999999999999,
                    "velocity": 0.7244094488188977,
                    "duration": 0.29374999999998863
                },
                {
                    "name": "D2",
                    "midi": 38,
                    "time": 280.7999999999999,
                    "velocity": 0.7244094488188977,
                    "duration": 0.29374999999998863
                },
                {
                    "name": "C2",
                    "midi": 36,
                    "time": 281.0999999999999,
                    "velocity": 0.7244094488188977,
                    "duration": 0.29374999999998863
                },
                {
                    "name": "C2",
                    "midi": 36,
                    "time": 281.3999999999999,
                    "velocity": 0.7244094488188977,
                    "duration": 0.29374999999998863
                },
                {
                    "name": "C2",
                    "midi": 36,
                    "time": 281.69999999999993,
                    "velocity": 0.7244094488188977,
                    "duration": 0.29374999999998863
                },
                {
                    "name": "G2",
                    "midi": 43,
                    "time": 281.99999999999994,
                    "velocity": 0.7244094488188977,
                    "duration": 0.29374999999998863
                },
                {
                    "name": "G2",
                    "midi": 43,
                    "time": 282.29999999999995,
                    "velocity": 0.7244094488188977,
                    "duration": 0.29374999999998863
                },
                {
                    "name": "G2",
                    "midi": 43,
                    "time": 282.59999999999997,
                    "velocity": 0.7244094488188977,
                    "duration": 0.29374999999998863
                },
                {
                    "name": "C3",
                    "midi": 48,
                    "time": 282.9,
                    "velocity": 0.7244094488188977,
                    "duration": 0.29374999999998863
                },
                {
                    "name": "G2",
                    "midi": 43,
                    "time": 283.2,
                    "velocity": 0.7244094488188977,
                    "duration": 0.29374999999998863
                },
                {
                    "name": "D#2",
                    "midi": 39,
                    "time": 283.5,
                    "velocity": 0.7244094488188977,
                    "duration": 0.29374999999998863
                },
                {
                    "name": "C3",
                    "midi": 48,
                    "time": 283.8,
                    "velocity": 0.7244094488188977,
                    "duration": 0.29374999999998863
                },
                {
                    "name": "G2",
                    "midi": 43,
                    "time": 284.1,
                    "velocity": 0.7244094488188977,
                    "duration": 0.29374999999998863
                },
                {
                    "name": "D#2",
                    "midi": 39,
                    "time": 284.40000000000003,
                    "velocity": 0.7244094488188977,
                    "duration": 0.29374999999998863
                },
                {
                    "name": "C2",
                    "midi": 36,
                    "time": 284.70000000000005,
                    "velocity": 0.7244094488188977,
                    "duration": 0.6000000000000227
                },
                {
                    "name": "C3",
                    "midi": 48,
                    "time": 285.6000000000001,
                    "velocity": 0.7244094488188977,
                    "duration": 0.6000000000000227
                },
                {
                    "name": "C2",
                    "midi": 36,
                    "time": 286.3500000000001,
                    "velocity": 0.7244094488188977,
                    "duration": 0.10000000000002274
                },
                {
                    "name": "C2",
                    "midi": 36,
                    "time": 286.5000000000001,
                    "velocity": 0.7244094488188977,
                    "duration": 0.8999999999999773
                }
            ],
            "controlChanges": {
                "7": [
                    {
                        "number": 7,
                        "time": 0,
                        "value": 1
                    }
                ],
                "10": [
                    {
                        "number": 10,
                        "time": 0,
                        "value": 0.6535433070866141
                    }
                ],
                "91": [
                    {
                        "number": 91,
                        "time": 0,
                        "value": 0.952755905511811
                    }
                ]
            },
            "id": 20,
            "instrumentNumber": 50,
            "instrument": "synthstrings 1",
            "instrumentFamily": "ensemble",
            "channelNumber": 14,
            "isPercussion": false
        },
        {
            "startTime": 1.2,
            "duration": 287.40000000000026,
            "length": 338,
            "notes": [
                {
                    "name": "C2",
                    "midi": 36,
                    "time": 1.2,
                    "velocity": 0.3543307086614173,
                    "duration": 0.10000000000000009
                },
                {
                    "name": "C2",
                    "midi": 36,
                    "time": 1.5,
                    "velocity": 0.3543307086614173,
                    "duration": 0.10000000000000009
                },
                {
                    "name": "D2",
                    "midi": 38,
                    "time": 2.1,
                    "velocity": 0.3543307086614173,
                    "duration": 0.10000000000000009
                },
                {
                    "name": "D2",
                    "midi": 38,
                    "time": 2.4000000000000004,
                    "velocity": 0.3543307086614173,
                    "duration": 0.10000000000000009
                },
                {
                    "name": "G2",
                    "midi": 43,
                    "time": 3.0000000000000004,
                    "velocity": 0.3543307086614173,
                    "duration": 0.10000000000000009
                },
                {
                    "name": "G2",
                    "midi": 43,
                    "time": 3.3000000000000007,
                    "velocity": 0.3543307086614173,
                    "duration": 0.10000000000000009
                },
                {
                    "name": "G1",
                    "midi": 31,
                    "time": 3.900000000000001,
                    "velocity": 0.3543307086614173,
                    "duration": 0.10000000000000009
                },
                {
                    "name": "G1",
                    "midi": 31,
                    "time": 4.200000000000001,
                    "velocity": 0.3543307086614173,
                    "duration": 0.09999999999999964
                },
                {
                    "name": "C2",
                    "midi": 36,
                    "time": 4.800000000000001,
                    "velocity": 0.3543307086614173,
                    "duration": 0.09999999999999964
                },
                {
                    "name": "C2",
                    "midi": 36,
                    "time": 5.1000000000000005,
                    "velocity": 0.3543307086614173,
                    "duration": 0.09999999999999964
                },
                {
                    "name": "F#2",
                    "midi": 42,
                    "time": 5.7,
                    "velocity": 0.3543307086614173,
                    "duration": 0.09999999999999964
                },
                {
                    "name": "F#2",
                    "midi": 42,
                    "time": 6,
                    "velocity": 0.3543307086614173,
                    "duration": 0.09999999999999964
                },
                {
                    "name": "G2",
                    "midi": 43,
                    "time": 6.6,
                    "velocity": 0.3543307086614173,
                    "duration": 0.5
                },
                {
                    "name": "G1",
                    "midi": 31,
                    "time": 7.5,
                    "velocity": 0.3543307086614173,
                    "duration": 0.9000000000000004
                },
                {
                    "name": "C2",
                    "midi": 36,
                    "time": 8.4,
                    "velocity": 0.3543307086614173,
                    "duration": 0.09999999999999964
                },
                {
                    "name": "C2",
                    "midi": 36,
                    "time": 8.7,
                    "velocity": 0.3543307086614173,
                    "duration": 0.09999999999999964
                },
                {
                    "name": "D2",
                    "midi": 38,
                    "time": 9.299999999999999,
                    "velocity": 0.3543307086614173,
                    "duration": 0.09999999999999964
                },
                {
                    "name": "D2",
                    "midi": 38,
                    "time": 9.599999999999998,
                    "velocity": 0.3543307086614173,
                    "duration": 0.09999999999999964
                },
                {
                    "name": "G2",
                    "midi": 43,
                    "time": 10.199999999999998,
                    "velocity": 0.3543307086614173,
                    "duration": 0.09999999999999964
                },
                {
                    "name": "G2",
                    "midi": 43,
                    "time": 10.499999999999996,
                    "velocity": 0.3543307086614173,
                    "duration": 0.09999999999999964
                },
                {
                    "name": "G1",
                    "midi": 31,
                    "time": 11.099999999999996,
                    "velocity": 0.3543307086614173,
                    "duration": 0.09999999999999964
                },
                {
                    "name": "G1",
                    "midi": 31,
                    "time": 11.399999999999995,
                    "velocity": 0.3543307086614173,
                    "duration": 0.09999999999999964
                },
                {
                    "name": "C2",
                    "midi": 36,
                    "time": 11.999999999999995,
                    "velocity": 0.3543307086614173,
                    "duration": 0.09999999999999964
                },
                {
                    "name": "G1",
                    "midi": 31,
                    "time": 12.899999999999995,
                    "velocity": 0.3543307086614173,
                    "duration": 0.09999999999999964
                },
                {
                    "name": "C2",
                    "midi": 36,
                    "time": 13.799999999999995,
                    "velocity": 0.3543307086614173,
                    "duration": 0.5999999999999996
                },
                {
                    "name": "C2",
                    "midi": 36,
                    "time": 15.599999999999994,
                    "velocity": 0.7244094488188977,
                    "duration": 0.5
                },
                {
                    "name": "D2",
                    "midi": 38,
                    "time": 16.499999999999993,
                    "velocity": 0.7244094488188977,
                    "duration": 0.5
                },
                {
                    "name": "G2",
                    "midi": 43,
                    "time": 17.39999999999999,
                    "velocity": 0.7244094488188977,
                    "duration": 0.5
                },
                {
                    "name": "G1",
                    "midi": 31,
                    "time": 18.29999999999999,
                    "velocity": 0.7244094488188977,
                    "duration": 0.5
                },
                {
                    "name": "C2",
                    "midi": 36,
                    "time": 19.19999999999999,
                    "velocity": 0.7244094488188977,
                    "duration": 0.5
                },
                {
                    "name": "F#2",
                    "midi": 42,
                    "time": 20.099999999999987,
                    "velocity": 0.7244094488188977,
                    "duration": 0.5
                },
                {
                    "name": "G2",
                    "midi": 43,
                    "time": 20.999999999999986,
                    "velocity": 0.7244094488188977,
                    "duration": 0.5
                },
                {
                    "name": "G1",
                    "midi": 31,
                    "time": 21.899999999999984,
                    "velocity": 0.7244094488188977,
                    "duration": 0.8999999999999986
                },
                {
                    "name": "C2",
                    "midi": 36,
                    "time": 22.799999999999983,
                    "velocity": 0.7244094488188977,
                    "duration": 0.5
                },
                {
                    "name": "D2",
                    "midi": 38,
                    "time": 23.69999999999998,
                    "velocity": 0.7244094488188977,
                    "duration": 0.5
                },
                {
                    "name": "G2",
                    "midi": 43,
                    "time": 24.59999999999998,
                    "velocity": 0.7244094488188977,
                    "duration": 0.5
                },
                {
                    "name": "G1",
                    "midi": 31,
                    "time": 25.49999999999998,
                    "velocity": 0.7244094488188977,
                    "duration": 0.5
                },
                {
                    "name": "C2",
                    "midi": 36,
                    "time": 26.399999999999977,
                    "velocity": 0.7244094488188977,
                    "duration": 0.2937499999999993
                },
                {
                    "name": "G2",
                    "midi": 43,
                    "time": 27.299999999999976,
                    "velocity": 0.7244094488188977,
                    "duration": 0.2937499999999993
                },
                {
                    "name": "C2",
                    "midi": 36,
                    "time": 28.199999999999974,
                    "velocity": 0.7244094488188977,
                    "duration": 0.6000000000000014
                },
                {
                    "name": "D#2",
                    "midi": 39,
                    "time": 29.999999999999975,
                    "velocity": 0.3543307086614173,
                    "duration": 0.6000000000000014
                },
                {
                    "name": "A#1",
                    "midi": 34,
                    "time": 30.899999999999977,
                    "velocity": 0.3543307086614173,
                    "duration": 0.6000000000000014
                },
                {
                    "name": "D#2",
                    "midi": 39,
                    "time": 31.79999999999998,
                    "velocity": 0.3543307086614173,
                    "duration": 0.5999999999999979
                },
                {
                    "name": "G2",
                    "midi": 43,
                    "time": 33.59999999999998,
                    "velocity": 0.3543307086614173,
                    "duration": 0.6000000000000014
                },
                {
                    "name": "D2",
                    "midi": 38,
                    "time": 34.49999999999998,
                    "velocity": 0.3543307086614173,
                    "duration": 0.6000000000000014
                },
                {
                    "name": "G2",
                    "midi": 43,
                    "time": 35.39999999999998,
                    "velocity": 0.3543307086614173,
                    "duration": 0.6000000000000014
                },
                {
                    "name": "A#2",
                    "midi": 46,
                    "time": 37.19999999999998,
                    "velocity": 0.3543307086614173,
                    "duration": 0.6000000000000014
                },
                {
                    "name": "F2",
                    "midi": 41,
                    "time": 38.09999999999998,
                    "velocity": 0.3543307086614173,
                    "duration": 0.6000000000000014
                },
                {
                    "name": "A#1",
                    "midi": 34,
                    "time": 38.99999999999998,
                    "velocity": 0.3543307086614173,
                    "duration": 0.8999999999999986
                },
                {
                    "name": "C2",
                    "midi": 36,
                    "time": 39.89999999999998,
                    "velocity": 0.3543307086614173,
                    "duration": 0.8999999999999986
                },
                {
                    "name": "A#1",
                    "midi": 34,
                    "time": 40.799999999999976,
                    "velocity": 0.3543307086614173,
                    "duration": 0.8999999999999986
                },
                {
                    "name": "F2",
                    "midi": 41,
                    "time": 41.699999999999974,
                    "velocity": 0.3543307086614173,
                    "duration": 0.8999999999999986
                },
                {
                    "name": "A#1",
                    "midi": 34,
                    "time": 42.59999999999997,
                    "velocity": 0.3543307086614173,
                    "duration": 0.6000000000000014
                },
                {
                    "name": "G2",
                    "midi": 43,
                    "time": 43.199999999999974,
                    "velocity": 0.3543307086614173,
                    "duration": 0.29375000000000284
                },
                {
                    "name": "C2",
                    "midi": 36,
                    "time": 43.49999999999998,
                    "velocity": 0.49606299212598426,
                    "duration": 0.7999999999999972
                },
                {
                    "name": "G#1",
                    "midi": 32,
                    "time": 44.39999999999998,
                    "velocity": 0.47244094488188976,
                    "duration": 0.5
                },
                {
                    "name": "C2",
                    "midi": 36,
                    "time": 45.299999999999976,
                    "velocity": 0.47244094488188976,
                    "duration": 0.5
                },
                {
                    "name": "F2",
                    "midi": 41,
                    "time": 46.199999999999974,
                    "velocity": 0.47244094488188976,
                    "duration": 0.5
                },
                {
                    "name": "A#1",
                    "midi": 34,
                    "time": 47.09999999999997,
                    "velocity": 0.6614173228346457,
                    "duration": 0.7999999999999972
                },
                {
                    "name": "D2",
                    "midi": 38,
                    "time": 47.99999999999997,
                    "velocity": 0.47244094488188976,
                    "duration": 0.6000000000000014
                },
                {
                    "name": "A#1",
                    "midi": 34,
                    "time": 48.89999999999997,
                    "velocity": 0.47244094488188976,
                    "duration": 0.6000000000000014
                },
                {
                    "name": "D#2",
                    "midi": 39,
                    "time": 49.79999999999997,
                    "velocity": 0.47244094488188976,
                    "duration": 0.6000000000000014
                },
                {
                    "name": "G2",
                    "midi": 43,
                    "time": 54.29999999999997,
                    "velocity": 0.3543307086614173,
                    "duration": 0.10000000000000142
                },
                {
                    "name": "G2",
                    "midi": 43,
                    "time": 54.59999999999997,
                    "velocity": 0.3543307086614173,
                    "duration": 0.10000000000000142
                },
                {
                    "name": "C3",
                    "midi": 48,
                    "time": 55.199999999999974,
                    "velocity": 0.3543307086614173,
                    "duration": 0.10000000000000142
                },
                {
                    "name": "C3",
                    "midi": 48,
                    "time": 55.49999999999998,
                    "velocity": 0.3543307086614173,
                    "duration": 0.10000000000000142
                },
                {
                    "name": "G#2",
                    "midi": 44,
                    "time": 56.09999999999998,
                    "velocity": 0.3543307086614173,
                    "duration": 0.10000000000000142
                },
                {
                    "name": "G#2",
                    "midi": 44,
                    "time": 56.399999999999984,
                    "velocity": 0.3543307086614173,
                    "duration": 0.10000000000000142
                },
                {
                    "name": "G2",
                    "midi": 43,
                    "time": 56.999999999999986,
                    "velocity": 0.3543307086614173,
                    "duration": 0.6000000000000014
                },
                {
                    "name": "G2",
                    "midi": 43,
                    "time": 60.59999999999999,
                    "velocity": 0.3543307086614173,
                    "duration": 0.10000000000000142
                },
                {
                    "name": "G2",
                    "midi": 43,
                    "time": 60.89999999999999,
                    "velocity": 0.3543307086614173,
                    "duration": 0.10000000000000142
                },
                {
                    "name": "G2",
                    "midi": 43,
                    "time": 61.199999999999996,
                    "velocity": 0.3543307086614173,
                    "duration": 0.10000000000000142
                },
                {
                    "name": "G1",
                    "midi": 31,
                    "time": 61.5,
                    "velocity": 0.3543307086614173,
                    "duration": 0.10000000000000142
                },
                {
                    "name": "G1",
                    "midi": 31,
                    "time": 61.800000000000004,
                    "velocity": 0.3543307086614173,
                    "duration": 0.10000000000000142
                },
                {
                    "name": "G1",
                    "midi": 31,
                    "time": 62.10000000000001,
                    "velocity": 0.3543307086614173,
                    "duration": 0.10000000000000142
                },
                {
                    "name": "C2",
                    "midi": 36,
                    "time": 63.30000000000001,
                    "velocity": 0.3543307086614173,
                    "duration": 0.10000000000000142
                },
                {
                    "name": "C2",
                    "midi": 36,
                    "time": 63.600000000000016,
                    "velocity": 0.3543307086614173,
                    "duration": 0.10000000000000142
                },
                {
                    "name": "D2",
                    "midi": 38,
                    "time": 64.20000000000002,
                    "velocity": 0.3543307086614173,
                    "duration": 0.09999999999999432
                },
                {
                    "name": "D2",
                    "midi": 38,
                    "time": 64.50000000000001,
                    "velocity": 0.3543307086614173,
                    "duration": 0.09999999999999432
                },
                {
                    "name": "G2",
                    "midi": 43,
                    "time": 65.10000000000001,
                    "velocity": 0.3543307086614173,
                    "duration": 0.09999999999999432
                },
                {
                    "name": "G2",
                    "midi": 43,
                    "time": 65.4,
                    "velocity": 0.3543307086614173,
                    "duration": 0.09999999999999432
                },
                {
                    "name": "G1",
                    "midi": 31,
                    "time": 66,
                    "velocity": 0.3543307086614173,
                    "duration": 0.09999999999999432
                },
                {
                    "name": "G1",
                    "midi": 31,
                    "time": 66.3,
                    "velocity": 0.3543307086614173,
                    "duration": 0.09999999999999432
                },
                {
                    "name": "C2",
                    "midi": 36,
                    "time": 66.89999999999999,
                    "velocity": 0.3543307086614173,
                    "duration": 0.09999999999999432
                },
                {
                    "name": "C2",
                    "midi": 36,
                    "time": 67.19999999999999,
                    "velocity": 0.3543307086614173,
                    "duration": 0.09999999999999432
                },
                {
                    "name": "F#2",
                    "midi": 42,
                    "time": 67.79999999999998,
                    "velocity": 0.3543307086614173,
                    "duration": 0.09999999999999432
                },
                {
                    "name": "F#2",
                    "midi": 42,
                    "time": 68.09999999999998,
                    "velocity": 0.3543307086614173,
                    "duration": 0.09999999999999432
                },
                {
                    "name": "G2",
                    "midi": 43,
                    "time": 68.69999999999997,
                    "velocity": 0.3543307086614173,
                    "duration": 0.5999999999999943
                },
                {
                    "name": "G1",
                    "midi": 31,
                    "time": 69.59999999999997,
                    "velocity": 0.49606299212598426,
                    "duration": 0.9000000000000057
                },
                {
                    "name": "C2",
                    "midi": 36,
                    "time": 70.49999999999997,
                    "velocity": 0.3543307086614173,
                    "duration": 0.09999999999999432
                },
                {
                    "name": "C2",
                    "midi": 36,
                    "time": 70.79999999999997,
                    "velocity": 0.3543307086614173,
                    "duration": 0.09999999999999432
                },
                {
                    "name": "C2",
                    "midi": 36,
                    "time": 71.39999999999996,
                    "velocity": 0.3543307086614173,
                    "duration": 0.09999999999999432
                },
                {
                    "name": "C2",
                    "midi": 36,
                    "time": 71.69999999999996,
                    "velocity": 0.3543307086614173,
                    "duration": 0.09999999999999432
                },
                {
                    "name": "F2",
                    "midi": 41,
                    "time": 72.29999999999995,
                    "velocity": 0.3543307086614173,
                    "duration": 0.09999999999999432
                },
                {
                    "name": "F2",
                    "midi": 41,
                    "time": 72.59999999999995,
                    "velocity": 0.3543307086614173,
                    "duration": 0.09999999999999432
                },
                {
                    "name": "F2",
                    "midi": 41,
                    "time": 73.19999999999995,
                    "velocity": 0.3543307086614173,
                    "duration": 0.09999999999999432
                },
                {
                    "name": "F2",
                    "midi": 41,
                    "time": 73.49999999999994,
                    "velocity": 0.3543307086614173,
                    "duration": 0.09999999999999432
                },
                {
                    "name": "C2",
                    "midi": 36,
                    "time": 74.09999999999994,
                    "velocity": 0.3543307086614173,
                    "duration": 0.09999999999999432
                },
                {
                    "name": "G2",
                    "midi": 43,
                    "time": 74.99999999999993,
                    "velocity": 0.3543307086614173,
                    "duration": 0.09999999999999432
                },
                {
                    "name": "C2",
                    "midi": 36,
                    "time": 75.89999999999992,
                    "velocity": 0.3543307086614173,
                    "duration": 0.5999999999999943
                },
                {
                    "name": "C2",
                    "midi": 36,
                    "time": 77.69999999999992,
                    "velocity": 0.7244094488188977,
                    "duration": 0.5
                },
                {
                    "name": "D2",
                    "midi": 38,
                    "time": 78.59999999999992,
                    "velocity": 0.7244094488188977,
                    "duration": 0.5
                },
                {
                    "name": "G2",
                    "midi": 43,
                    "time": 79.49999999999993,
                    "velocity": 0.7244094488188977,
                    "duration": 0.5
                },
                {
                    "name": "G1",
                    "midi": 31,
                    "time": 80.39999999999993,
                    "velocity": 0.7244094488188977,
                    "duration": 0.5
                },
                {
                    "name": "C2",
                    "midi": 36,
                    "time": 81.29999999999994,
                    "velocity": 0.7244094488188977,
                    "duration": 0.5
                },
                {
                    "name": "F#2",
                    "midi": 42,
                    "time": 82.19999999999995,
                    "velocity": 0.7244094488188977,
                    "duration": 0.5
                },
                {
                    "name": "G2",
                    "midi": 43,
                    "time": 83.09999999999995,
                    "velocity": 0.7244094488188977,
                    "duration": 0.5
                },
                {
                    "name": "G1",
                    "midi": 31,
                    "time": 83.99999999999996,
                    "velocity": 0.7244094488188977,
                    "duration": 0.9000000000000057
                },
                {
                    "name": "C2",
                    "midi": 36,
                    "time": 84.89999999999996,
                    "velocity": 0.7244094488188977,
                    "duration": 0.5
                },
                {
                    "name": "D2",
                    "midi": 38,
                    "time": 85.79999999999997,
                    "velocity": 0.7244094488188977,
                    "duration": 0.5
                },
                {
                    "name": "G2",
                    "midi": 43,
                    "time": 86.69999999999997,
                    "velocity": 0.7244094488188977,
                    "duration": 0.5
                },
                {
                    "name": "G1",
                    "midi": 31,
                    "time": 87.59999999999998,
                    "velocity": 0.7244094488188977,
                    "duration": 0.5
                },
                {
                    "name": "C2",
                    "midi": 36,
                    "time": 88.49999999999999,
                    "velocity": 0.7244094488188977,
                    "duration": 0.29375000000000284
                },
                {
                    "name": "G2",
                    "midi": 43,
                    "time": 89.39999999999999,
                    "velocity": 0.7244094488188977,
                    "duration": 0.29375000000000284
                },
                {
                    "name": "C2",
                    "midi": 36,
                    "time": 90.3,
                    "velocity": 0.5905511811023622,
                    "duration": 0.9000000000000057
                },
                {
                    "name": "C2",
                    "midi": 36,
                    "time": 91.2,
                    "velocity": 0.3543307086614173,
                    "duration": 0.5
                },
                {
                    "name": "G#2",
                    "midi": 44,
                    "time": 92.10000000000001,
                    "velocity": 0.3543307086614173,
                    "duration": 0.5
                },
                {
                    "name": "G#2",
                    "midi": 44,
                    "time": 93.9,
                    "velocity": 0.3543307086614173,
                    "duration": 0.5
                },
                {
                    "name": "D#2",
                    "midi": 39,
                    "time": 95.7,
                    "velocity": 0.3543307086614173,
                    "duration": 0.5
                },
                {
                    "name": "D#2",
                    "midi": 39,
                    "time": 97.5,
                    "velocity": 0.3543307086614173,
                    "duration": 0.5
                },
                {
                    "name": "G#2",
                    "midi": 44,
                    "time": 99.3,
                    "velocity": 0.3543307086614173,
                    "duration": 0.5
                },
                {
                    "name": "C2",
                    "midi": 36,
                    "time": 101.1,
                    "velocity": 0.3543307086614173,
                    "duration": 0.5
                },
                {
                    "name": "A#1",
                    "midi": 34,
                    "time": 102.89999999999999,
                    "velocity": 0.3543307086614173,
                    "duration": 0.5
                },
                {
                    "name": "F2",
                    "midi": 41,
                    "time": 104.69999999999999,
                    "velocity": 0.3543307086614173,
                    "duration": 0.5
                },
                {
                    "name": "A#2",
                    "midi": 46,
                    "time": 106.49999999999999,
                    "velocity": 0.3543307086614173,
                    "duration": 0.5
                },
                {
                    "name": "A#1",
                    "midi": 34,
                    "time": 108.29999999999998,
                    "velocity": 0.3543307086614173,
                    "duration": 0.5
                },
                {
                    "name": "D#2",
                    "midi": 39,
                    "time": 110.09999999999998,
                    "velocity": 0.3543307086614173,
                    "duration": 0.5
                },
                {
                    "name": "G#2",
                    "midi": 44,
                    "time": 111.89999999999998,
                    "velocity": 0.3543307086614173,
                    "duration": 0.5
                },
                {
                    "name": "D#2",
                    "midi": 39,
                    "time": 113.69999999999997,
                    "velocity": 0.3543307086614173,
                    "duration": 0.9000000000000057
                },
                {
                    "name": "A#2",
                    "midi": 46,
                    "time": 115.49999999999999,
                    "velocity": 0.3543307086614173,
                    "duration": 0.9000000000000057
                },
                {
                    "name": "D#2",
                    "midi": 39,
                    "time": 117.3,
                    "velocity": 0.3543307086614173,
                    "duration": 2.09375
                },
                {
                    "name": "G#2",
                    "midi": 44,
                    "time": 120.89999999999999,
                    "velocity": 0.5905511811023622,
                    "duration": 0.7999999999999972
                },
                {
                    "name": "G#2",
                    "midi": 44,
                    "time": 122.69999999999999,
                    "velocity": 0.5905511811023622,
                    "duration": 0.7999999999999972
                },
                {
                    "name": "D#2",
                    "midi": 39,
                    "time": 124.49999999999999,
                    "velocity": 0.5905511811023622,
                    "duration": 0.7999999999999972
                },
                {
                    "name": "D#2",
                    "midi": 39,
                    "time": 126.29999999999998,
                    "velocity": 0.5905511811023622,
                    "duration": 0.7999999999999972
                },
                {
                    "name": "G#2",
                    "midi": 44,
                    "time": 128.09999999999997,
                    "velocity": 0.5905511811023622,
                    "duration": 0.8000000000000114
                },
                {
                    "name": "C3",
                    "midi": 48,
                    "time": 129.89999999999998,
                    "velocity": 0.5905511811023622,
                    "duration": 0.8000000000000114
                },
                {
                    "name": "A#2",
                    "midi": 46,
                    "time": 131.7,
                    "velocity": 0.5905511811023622,
                    "duration": 0.8000000000000114
                },
                {
                    "name": "F2",
                    "midi": 41,
                    "time": 133.5,
                    "velocity": 0.5905511811023622,
                    "duration": 0.8000000000000114
                },
                {
                    "name": "A#2",
                    "midi": 46,
                    "time": 135.3,
                    "velocity": 0.5905511811023622,
                    "duration": 0.8000000000000114
                },
                {
                    "name": "A#1",
                    "midi": 34,
                    "time": 137.10000000000002,
                    "velocity": 0.5905511811023622,
                    "duration": 0.8000000000000114
                },
                {
                    "name": "F2",
                    "midi": 41,
                    "time": 138.90000000000003,
                    "velocity": 0.5905511811023622,
                    "duration": 0.8000000000000114
                },
                {
                    "name": "A#2",
                    "midi": 46,
                    "time": 140.70000000000005,
                    "velocity": 0.5905511811023622,
                    "duration": 0.8000000000000114
                },
                {
                    "name": "D#2",
                    "midi": 39,
                    "time": 142.50000000000006,
                    "velocity": 0.5905511811023622,
                    "duration": 0.8000000000000114
                },
                {
                    "name": "G#2",
                    "midi": 44,
                    "time": 144.30000000000007,
                    "velocity": 0.5905511811023622,
                    "duration": 0.8000000000000114
                },
                {
                    "name": "D#2",
                    "midi": 39,
                    "time": 146.10000000000008,
                    "velocity": 0.5905511811023622,
                    "duration": 0.8000000000000114
                },
                {
                    "name": "G#2",
                    "midi": 44,
                    "time": 147.9000000000001,
                    "velocity": 0.5905511811023622,
                    "duration": 0.8000000000000114
                },
                {
                    "name": "G#2",
                    "midi": 44,
                    "time": 149.7000000000001,
                    "velocity": 0.5905511811023622,
                    "duration": 0.8000000000000114
                },
                {
                    "name": "C#2",
                    "midi": 37,
                    "time": 151.5000000000001,
                    "velocity": 0.5905511811023622,
                    "duration": 0.8000000000000114
                },
                {
                    "name": "G#2",
                    "midi": 44,
                    "time": 153.30000000000013,
                    "velocity": 0.5905511811023622,
                    "duration": 0.8000000000000114
                },
                {
                    "name": "B2",
                    "midi": 47,
                    "time": 155.10000000000014,
                    "velocity": 0.5905511811023622,
                    "duration": 0.9000000000000057
                },
                {
                    "name": "G#2",
                    "midi": 44,
                    "time": 156.00000000000014,
                    "velocity": 0.5905511811023622,
                    "duration": 0.8000000000000114
                },
                {
                    "name": "A#2",
                    "midi": 46,
                    "time": 156.90000000000015,
                    "velocity": 0.5905511811023622,
                    "duration": 0.8000000000000114
                },
                {
                    "name": "G#2",
                    "midi": 44,
                    "time": 158.70000000000016,
                    "velocity": 0.5905511811023622,
                    "duration": 0.8000000000000114
                },
                {
                    "name": "D#2",
                    "midi": 39,
                    "time": 160.50000000000017,
                    "velocity": 0.5905511811023622,
                    "duration": 0.9000000000000057
                },
                {
                    "name": "A#1",
                    "midi": 34,
                    "time": 161.40000000000018,
                    "velocity": 0.5905511811023622,
                    "duration": 0.9000000000000057
                },
                {
                    "name": "C2",
                    "midi": 36,
                    "time": 162.30000000000018,
                    "velocity": 0.47244094488188976,
                    "duration": 0.5999999999999943
                },
                {
                    "name": "C2",
                    "midi": 36,
                    "time": 166.80000000000018,
                    "velocity": 0.47244094488188976,
                    "duration": 0.15000000000000568
                },
                {
                    "name": "B1",
                    "midi": 35,
                    "time": 166.9500000000002,
                    "velocity": 0.47244094488188976,
                    "duration": 0.09999999999999432
                },
                {
                    "name": "C2",
                    "midi": 36,
                    "time": 167.1000000000002,
                    "velocity": 0.47244094488188976,
                    "duration": 0.09999999999999432
                },
                {
                    "name": "D2",
                    "midi": 38,
                    "time": 167.2500000000002,
                    "velocity": 0.47244094488188976,
                    "duration": 0.09999999999999432
                },
                {
                    "name": "E2",
                    "midi": 40,
                    "time": 167.4000000000002,
                    "velocity": 0.47244094488188976,
                    "duration": 0.09999999999999432
                },
                {
                    "name": "F2",
                    "midi": 41,
                    "time": 167.5500000000002,
                    "velocity": 0.47244094488188976,
                    "duration": 0.09999999999999432
                },
                {
                    "name": "G1",
                    "midi": 31,
                    "time": 167.70000000000022,
                    "velocity": 0.6614173228346457,
                    "duration": 0.29374999999998863
                },
                {
                    "name": "C2",
                    "midi": 36,
                    "time": 170.4000000000002,
                    "velocity": 0.3543307086614173,
                    "duration": 0.09999999999999432
                },
                {
                    "name": "C2",
                    "midi": 36,
                    "time": 170.7000000000002,
                    "velocity": 0.3543307086614173,
                    "duration": 0.09999999999999432
                },
                {
                    "name": "D2",
                    "midi": 38,
                    "time": 171.30000000000018,
                    "velocity": 0.3543307086614173,
                    "duration": 0.09999999999999432
                },
                {
                    "name": "D2",
                    "midi": 38,
                    "time": 171.60000000000016,
                    "velocity": 0.3543307086614173,
                    "duration": 0.09999999999999432
                },
                {
                    "name": "G2",
                    "midi": 43,
                    "time": 172.20000000000016,
                    "velocity": 0.3543307086614173,
                    "duration": 0.09999999999999432
                },
                {
                    "name": "G2",
                    "midi": 43,
                    "time": 172.50000000000014,
                    "velocity": 0.3543307086614173,
                    "duration": 0.09999999999999432
                },
                {
                    "name": "G1",
                    "midi": 31,
                    "time": 173.10000000000014,
                    "velocity": 0.3543307086614173,
                    "duration": 0.09999999999999432
                },
                {
                    "name": "G1",
                    "midi": 31,
                    "time": 173.40000000000012,
                    "velocity": 0.3543307086614173,
                    "duration": 0.09999999999999432
                },
                {
                    "name": "C2",
                    "midi": 36,
                    "time": 174.0000000000001,
                    "velocity": 0.3543307086614173,
                    "duration": 0.09999999999999432
                },
                {
                    "name": "C2",
                    "midi": 36,
                    "time": 174.3000000000001,
                    "velocity": 0.3543307086614173,
                    "duration": 0.09999999999999432
                },
                {
                    "name": "F#2",
                    "midi": 42,
                    "time": 174.9000000000001,
                    "velocity": 0.3543307086614173,
                    "duration": 0.09999999999999432
                },
                {
                    "name": "F#2",
                    "midi": 42,
                    "time": 175.20000000000007,
                    "velocity": 0.3543307086614173,
                    "duration": 0.09999999999999432
                },
                {
                    "name": "G2",
                    "midi": 43,
                    "time": 175.80000000000007,
                    "velocity": 0.3543307086614173,
                    "duration": 0.5
                },
                {
                    "name": "G1",
                    "midi": 31,
                    "time": 176.70000000000007,
                    "velocity": 0.3543307086614173,
                    "duration": 0.9000000000000057
                },
                {
                    "name": "C2",
                    "midi": 36,
                    "time": 177.60000000000008,
                    "velocity": 0.3543307086614173,
                    "duration": 0.09999999999999432
                },
                {
                    "name": "C2",
                    "midi": 36,
                    "time": 177.90000000000006,
                    "velocity": 0.3543307086614173,
                    "duration": 0.09999999999999432
                },
                {
                    "name": "D2",
                    "midi": 38,
                    "time": 178.50000000000006,
                    "velocity": 0.3543307086614173,
                    "duration": 0.09999999999999432
                },
                {
                    "name": "D2",
                    "midi": 38,
                    "time": 178.80000000000004,
                    "velocity": 0.3543307086614173,
                    "duration": 0.09999999999999432
                },
                {
                    "name": "G2",
                    "midi": 43,
                    "time": 179.40000000000003,
                    "velocity": 0.3543307086614173,
                    "duration": 0.09999999999999432
                },
                {
                    "name": "G2",
                    "midi": 43,
                    "time": 179.70000000000002,
                    "velocity": 0.3543307086614173,
                    "duration": 0.09999999999999432
                },
                {
                    "name": "G1",
                    "midi": 31,
                    "time": 180.3,
                    "velocity": 0.3543307086614173,
                    "duration": 0.09999999999999432
                },
                {
                    "name": "G1",
                    "midi": 31,
                    "time": 180.6,
                    "velocity": 0.3543307086614173,
                    "duration": 0.09999999999999432
                },
                {
                    "name": "C2",
                    "midi": 36,
                    "time": 181.2,
                    "velocity": 0.3543307086614173,
                    "duration": 0.09999999999999432
                },
                {
                    "name": "G1",
                    "midi": 31,
                    "time": 182.1,
                    "velocity": 0.3543307086614173,
                    "duration": 0.09999999999999432
                },
                {
                    "name": "C2",
                    "midi": 36,
                    "time": 183,
                    "velocity": 0.3543307086614173,
                    "duration": 0.5999999999999943
                },
                {
                    "name": "C2",
                    "midi": 36,
                    "time": 184.79999999999998,
                    "velocity": 0.7244094488188977,
                    "duration": 0.5
                },
                {
                    "name": "D2",
                    "midi": 38,
                    "time": 185.7,
                    "velocity": 0.7244094488188977,
                    "duration": 0.5
                },
                {
                    "name": "G2",
                    "midi": 43,
                    "time": 186.6,
                    "velocity": 0.7244094488188977,
                    "duration": 0.5
                },
                {
                    "name": "G1",
                    "midi": 31,
                    "time": 187.5,
                    "velocity": 0.7244094488188977,
                    "duration": 0.5
                },
                {
                    "name": "C2",
                    "midi": 36,
                    "time": 188.4,
                    "velocity": 0.7244094488188977,
                    "duration": 0.5
                },
                {
                    "name": "F#2",
                    "midi": 42,
                    "time": 189.3,
                    "velocity": 0.7244094488188977,
                    "duration": 0.5
                },
                {
                    "name": "G2",
                    "midi": 43,
                    "time": 190.20000000000002,
                    "velocity": 0.7244094488188977,
                    "duration": 0.5
                },
                {
                    "name": "G1",
                    "midi": 31,
                    "time": 191.10000000000002,
                    "velocity": 0.7244094488188977,
                    "duration": 0.9000000000000057
                },
                {
                    "name": "C2",
                    "midi": 36,
                    "time": 192.00000000000003,
                    "velocity": 0.7244094488188977,
                    "duration": 0.5
                },
                {
                    "name": "D2",
                    "midi": 38,
                    "time": 192.90000000000003,
                    "velocity": 0.7244094488188977,
                    "duration": 0.5
                },
                {
                    "name": "G2",
                    "midi": 43,
                    "time": 193.80000000000004,
                    "velocity": 0.7244094488188977,
                    "duration": 0.5
                },
                {
                    "name": "G1",
                    "midi": 31,
                    "time": 194.70000000000005,
                    "velocity": 0.7244094488188977,
                    "duration": 0.5
                },
                {
                    "name": "C2",
                    "midi": 36,
                    "time": 195.60000000000005,
                    "velocity": 0.7244094488188977,
                    "duration": 0.29374999999998863
                },
                {
                    "name": "G2",
                    "midi": 43,
                    "time": 196.50000000000003,
                    "velocity": 0.7244094488188977,
                    "duration": 0.29374999999998863
                },
                {
                    "name": "C2",
                    "midi": 36,
                    "time": 197.4,
                    "velocity": 0.7244094488188977,
                    "duration": 0.5999999999999943
                },
                {
                    "name": "D#2",
                    "midi": 39,
                    "time": 199.2,
                    "velocity": 0.3543307086614173,
                    "duration": 0.5999999999999943
                },
                {
                    "name": "A#1",
                    "midi": 34,
                    "time": 200.1,
                    "velocity": 0.3543307086614173,
                    "duration": 0.5999999999999943
                },
                {
                    "name": "D#2",
                    "midi": 39,
                    "time": 201,
                    "velocity": 0.3543307086614173,
                    "duration": 0.5999999999999943
                },
                {
                    "name": "G2",
                    "midi": 43,
                    "time": 202.79999999999998,
                    "velocity": 0.3543307086614173,
                    "duration": 0.5999999999999943
                },
                {
                    "name": "D2",
                    "midi": 38,
                    "time": 203.7,
                    "velocity": 0.3543307086614173,
                    "duration": 0.5999999999999943
                },
                {
                    "name": "G2",
                    "midi": 43,
                    "time": 204.6,
                    "velocity": 0.3543307086614173,
                    "duration": 0.5999999999999943
                },
                {
                    "name": "A#2",
                    "midi": 46,
                    "time": 206.39999999999998,
                    "velocity": 0.3543307086614173,
                    "duration": 0.5999999999999943
                },
                {
                    "name": "F2",
                    "midi": 41,
                    "time": 207.29999999999998,
                    "velocity": 0.3543307086614173,
                    "duration": 0.5999999999999943
                },
                {
                    "name": "A#1",
                    "midi": 34,
                    "time": 208.2,
                    "velocity": 0.3543307086614173,
                    "duration": 0.9000000000000057
                },
                {
                    "name": "C2",
                    "midi": 36,
                    "time": 209.1,
                    "velocity": 0.3543307086614173,
                    "duration": 0.9000000000000057
                },
                {
                    "name": "A#1",
                    "midi": 34,
                    "time": 210,
                    "velocity": 0.3543307086614173,
                    "duration": 0.9000000000000057
                },
                {
                    "name": "F2",
                    "midi": 41,
                    "time": 210.9,
                    "velocity": 0.3543307086614173,
                    "duration": 0.9000000000000057
                },
                {
                    "name": "A#1",
                    "midi": 34,
                    "time": 211.8,
                    "velocity": 0.3543307086614173,
                    "duration": 0.5999999999999943
                },
                {
                    "name": "G2",
                    "midi": 43,
                    "time": 212.4,
                    "velocity": 0.3543307086614173,
                    "duration": 0.29374999999998863
                },
                {
                    "name": "C2",
                    "midi": 36,
                    "time": 212.7,
                    "velocity": 0.49606299212598426,
                    "duration": 0.8000000000000114
                },
                {
                    "name": "G#1",
                    "midi": 32,
                    "time": 213.6,
                    "velocity": 0.47244094488188976,
                    "duration": 0.5
                },
                {
                    "name": "C2",
                    "midi": 36,
                    "time": 214.5,
                    "velocity": 0.47244094488188976,
                    "duration": 0.5
                },
                {
                    "name": "F2",
                    "midi": 41,
                    "time": 215.4,
                    "velocity": 0.47244094488188976,
                    "duration": 0.5
                },
                {
                    "name": "A#1",
                    "midi": 34,
                    "time": 216.3,
                    "velocity": 0.6614173228346457,
                    "duration": 0.8000000000000114
                },
                {
                    "name": "D2",
                    "midi": 38,
                    "time": 217.20000000000002,
                    "velocity": 0.47244094488188976,
                    "duration": 0.5999999999999943
                },
                {
                    "name": "A#1",
                    "midi": 34,
                    "time": 218.10000000000002,
                    "velocity": 0.47244094488188976,
                    "duration": 0.5999999999999943
                },
                {
                    "name": "D#2",
                    "midi": 39,
                    "time": 219.00000000000003,
                    "velocity": 0.47244094488188976,
                    "duration": 0.5999999999999943
                },
                {
                    "name": "G2",
                    "midi": 43,
                    "time": 223.50000000000003,
                    "velocity": 0.3543307086614173,
                    "duration": 0.09999999999999432
                },
                {
                    "name": "G2",
                    "midi": 43,
                    "time": 223.8,
                    "velocity": 0.3543307086614173,
                    "duration": 0.09999999999999432
                },
                {
                    "name": "C3",
                    "midi": 48,
                    "time": 224.4,
                    "velocity": 0.3543307086614173,
                    "duration": 0.09999999999999432
                },
                {
                    "name": "C3",
                    "midi": 48,
                    "time": 224.7,
                    "velocity": 0.3543307086614173,
                    "duration": 0.09999999999999432
                },
                {
                    "name": "G#2",
                    "midi": 44,
                    "time": 225.29999999999998,
                    "velocity": 0.3543307086614173,
                    "duration": 0.09999999999999432
                },
                {
                    "name": "G#2",
                    "midi": 44,
                    "time": 225.59999999999997,
                    "velocity": 0.3543307086614173,
                    "duration": 0.09999999999999432
                },
                {
                    "name": "G2",
                    "midi": 43,
                    "time": 226.19999999999996,
                    "velocity": 0.3543307086614173,
                    "duration": 0.5999999999999943
                },
                {
                    "name": "G2",
                    "midi": 43,
                    "time": 229.79999999999995,
                    "velocity": 0.3543307086614173,
                    "duration": 0.09999999999999432
                },
                {
                    "name": "G2",
                    "midi": 43,
                    "time": 230.09999999999994,
                    "velocity": 0.3543307086614173,
                    "duration": 0.09999999999999432
                },
                {
                    "name": "G2",
                    "midi": 43,
                    "time": 230.39999999999992,
                    "velocity": 0.3543307086614173,
                    "duration": 0.09999999999999432
                },
                {
                    "name": "G1",
                    "midi": 31,
                    "time": 230.6999999999999,
                    "velocity": 0.3543307086614173,
                    "duration": 0.09999999999999432
                },
                {
                    "name": "G1",
                    "midi": 31,
                    "time": 230.9999999999999,
                    "velocity": 0.3543307086614173,
                    "duration": 0.09999999999999432
                },
                {
                    "name": "G1",
                    "midi": 31,
                    "time": 231.29999999999987,
                    "velocity": 0.3543307086614173,
                    "duration": 0.09999999999999432
                },
                {
                    "name": "C2",
                    "midi": 36,
                    "time": 232.49999999999986,
                    "velocity": 0.3543307086614173,
                    "duration": 0.09999999999999432
                },
                {
                    "name": "C2",
                    "midi": 36,
                    "time": 232.79999999999984,
                    "velocity": 0.3543307086614173,
                    "duration": 0.09999999999999432
                },
                {
                    "name": "D2",
                    "midi": 38,
                    "time": 233.39999999999984,
                    "velocity": 0.3543307086614173,
                    "duration": 0.09999999999999432
                },
                {
                    "name": "D2",
                    "midi": 38,
                    "time": 233.69999999999982,
                    "velocity": 0.3543307086614173,
                    "duration": 0.09999999999999432
                },
                {
                    "name": "G2",
                    "midi": 43,
                    "time": 234.2999999999998,
                    "velocity": 0.3543307086614173,
                    "duration": 0.09999999999999432
                },
                {
                    "name": "G2",
                    "midi": 43,
                    "time": 234.5999999999998,
                    "velocity": 0.3543307086614173,
                    "duration": 0.09999999999999432
                },
                {
                    "name": "G1",
                    "midi": 31,
                    "time": 235.1999999999998,
                    "velocity": 0.3543307086614173,
                    "duration": 0.09999999999999432
                },
                {
                    "name": "G1",
                    "midi": 31,
                    "time": 235.49999999999977,
                    "velocity": 0.3543307086614173,
                    "duration": 0.09999999999999432
                },
                {
                    "name": "C2",
                    "midi": 36,
                    "time": 236.09999999999977,
                    "velocity": 0.3543307086614173,
                    "duration": 0.09999999999999432
                },
                {
                    "name": "C2",
                    "midi": 36,
                    "time": 236.39999999999975,
                    "velocity": 0.3543307086614173,
                    "duration": 0.09999999999999432
                },
                {
                    "name": "F#2",
                    "midi": 42,
                    "time": 236.99999999999974,
                    "velocity": 0.3543307086614173,
                    "duration": 0.09999999999999432
                },
                {
                    "name": "F#2",
                    "midi": 42,
                    "time": 237.29999999999973,
                    "velocity": 0.3543307086614173,
                    "duration": 0.09999999999999432
                },
                {
                    "name": "G2",
                    "midi": 43,
                    "time": 237.89999999999972,
                    "velocity": 0.3543307086614173,
                    "duration": 0.5999999999999943
                },
                {
                    "name": "G1",
                    "midi": 31,
                    "time": 238.79999999999973,
                    "velocity": 0.49606299212598426,
                    "duration": 0.9000000000000057
                },
                {
                    "name": "C2",
                    "midi": 36,
                    "time": 239.69999999999973,
                    "velocity": 0.3543307086614173,
                    "duration": 0.09999999999999432
                },
                {
                    "name": "C2",
                    "midi": 36,
                    "time": 239.99999999999972,
                    "velocity": 0.3543307086614173,
                    "duration": 0.09999999999999432
                },
                {
                    "name": "C2",
                    "midi": 36,
                    "time": 240.5999999999997,
                    "velocity": 0.3543307086614173,
                    "duration": 0.09999999999999432
                },
                {
                    "name": "C2",
                    "midi": 36,
                    "time": 240.8999999999997,
                    "velocity": 0.3543307086614173,
                    "duration": 0.09999999999999432
                },
                {
                    "name": "F2",
                    "midi": 41,
                    "time": 241.4999999999997,
                    "velocity": 0.3543307086614173,
                    "duration": 0.09999999999999432
                },
                {
                    "name": "F2",
                    "midi": 41,
                    "time": 241.79999999999967,
                    "velocity": 0.3543307086614173,
                    "duration": 0.09999999999999432
                },
                {
                    "name": "F2",
                    "midi": 41,
                    "time": 242.39999999999966,
                    "velocity": 0.3543307086614173,
                    "duration": 0.09999999999999432
                },
                {
                    "name": "F2",
                    "midi": 41,
                    "time": 242.69999999999965,
                    "velocity": 0.3543307086614173,
                    "duration": 0.09999999999999432
                },
                {
                    "name": "C2",
                    "midi": 36,
                    "time": 243.29999999999964,
                    "velocity": 0.3543307086614173,
                    "duration": 0.09999999999999432
                },
                {
                    "name": "G2",
                    "midi": 43,
                    "time": 244.19999999999965,
                    "velocity": 0.3543307086614173,
                    "duration": 0.09999999999999432
                },
                {
                    "name": "C2",
                    "midi": 36,
                    "time": 245.09999999999965,
                    "velocity": 0.3543307086614173,
                    "duration": 0.5999999999999943
                },
                {
                    "name": "C2",
                    "midi": 36,
                    "time": 246.89999999999964,
                    "velocity": 0.7244094488188977,
                    "duration": 0.5
                },
                {
                    "name": "D2",
                    "midi": 38,
                    "time": 247.79999999999964,
                    "velocity": 0.7244094488188977,
                    "duration": 0.5
                },
                {
                    "name": "G2",
                    "midi": 43,
                    "time": 248.69999999999965,
                    "velocity": 0.7244094488188977,
                    "duration": 0.5
                },
                {
                    "name": "G1",
                    "midi": 31,
                    "time": 249.59999999999965,
                    "velocity": 0.7244094488188977,
                    "duration": 0.5
                },
                {
                    "name": "C2",
                    "midi": 36,
                    "time": 250.49999999999966,
                    "velocity": 0.7244094488188977,
                    "duration": 0.5
                },
                {
                    "name": "F#2",
                    "midi": 42,
                    "time": 251.39999999999966,
                    "velocity": 0.7244094488188977,
                    "duration": 0.5
                },
                {
                    "name": "G2",
                    "midi": 43,
                    "time": 252.29999999999967,
                    "velocity": 0.7244094488188977,
                    "duration": 0.5
                },
                {
                    "name": "G1",
                    "midi": 31,
                    "time": 253.19999999999968,
                    "velocity": 0.7244094488188977,
                    "duration": 0.9000000000000057
                },
                {
                    "name": "C2",
                    "midi": 36,
                    "time": 254.09999999999968,
                    "velocity": 0.7244094488188977,
                    "duration": 0.5
                },
                {
                    "name": "D2",
                    "midi": 38,
                    "time": 254.9999999999997,
                    "velocity": 0.7244094488188977,
                    "duration": 0.5
                },
                {
                    "name": "G2",
                    "midi": 43,
                    "time": 255.8999999999997,
                    "velocity": 0.7244094488188977,
                    "duration": 0.5
                },
                {
                    "name": "G1",
                    "midi": 31,
                    "time": 256.79999999999967,
                    "velocity": 0.7244094488188977,
                    "duration": 0.5
                },
                {
                    "name": "C2",
                    "midi": 36,
                    "time": 257.69999999999965,
                    "velocity": 0.7244094488188977,
                    "duration": 0.29374999999998863
                },
                {
                    "name": "G2",
                    "midi": 43,
                    "time": 258.5999999999996,
                    "velocity": 0.7244094488188977,
                    "duration": 0.29374999999998863
                },
                {
                    "name": "C3",
                    "midi": 48,
                    "time": 259.4999999999996,
                    "velocity": 0.7244094488188977,
                    "duration": 0.6000000000000227
                },
                {
                    "name": "C3",
                    "midi": 48,
                    "time": 260.0999999999996,
                    "velocity": 0.7244094488188977,
                    "duration": 0.10000000000002274
                },
                {
                    "name": "C3",
                    "midi": 48,
                    "time": 260.39999999999964,
                    "velocity": 1,
                    "duration": 0.10000000000002274
                },
                {
                    "name": "B2",
                    "midi": 47,
                    "time": 260.69999999999965,
                    "velocity": 1,
                    "duration": 0.10000000000002274
                },
                {
                    "name": "A#2",
                    "midi": 46,
                    "time": 260.99999999999966,
                    "velocity": 1,
                    "duration": 0.10000000000002274
                },
                {
                    "name": "G#2",
                    "midi": 44,
                    "time": 261.29999999999967,
                    "velocity": 1,
                    "duration": 0.10000000000002274
                },
                {
                    "name": "G2",
                    "midi": 43,
                    "time": 261.5999999999997,
                    "velocity": 1,
                    "duration": 0.10000000000002274
                },
                {
                    "name": "F2",
                    "midi": 41,
                    "time": 261.8999999999997,
                    "velocity": 1,
                    "duration": 0.10000000000002274
                },
                {
                    "name": "A#2",
                    "midi": 46,
                    "time": 262.1999999999997,
                    "velocity": 1,
                    "duration": 0.10000000000002274
                },
                {
                    "name": "A2",
                    "midi": 45,
                    "time": 262.4999999999997,
                    "velocity": 1,
                    "duration": 0.10000000000002274
                },
                {
                    "name": "G#2",
                    "midi": 44,
                    "time": 262.7999999999997,
                    "velocity": 1,
                    "duration": 0.10000000000002274
                },
                {
                    "name": "G2",
                    "midi": 43,
                    "time": 263.09999999999974,
                    "velocity": 1,
                    "duration": 0.10000000000002274
                },
                {
                    "name": "F2",
                    "midi": 41,
                    "time": 263.39999999999975,
                    "velocity": 1,
                    "duration": 0.10000000000002274
                },
                {
                    "name": "D#2",
                    "midi": 39,
                    "time": 263.69999999999976,
                    "velocity": 1,
                    "duration": 0.10000000000002274
                },
                {
                    "name": "F2",
                    "midi": 41,
                    "time": 263.9999999999998,
                    "velocity": 1,
                    "duration": 0.10000000000002274
                },
                {
                    "name": "G2",
                    "midi": 43,
                    "time": 264.8999999999998,
                    "velocity": 1,
                    "duration": 0.10000000000002274
                },
                {
                    "name": "G1",
                    "midi": 31,
                    "time": 265.79999999999984,
                    "velocity": 1,
                    "duration": 0.10000000000002274
                },
                {
                    "name": "C2",
                    "midi": 36,
                    "time": 266.6999999999999,
                    "velocity": 0.7244094488188977,
                    "duration": 0.6000000000000227
                },
                {
                    "name": "C3",
                    "midi": 48,
                    "time": 267.2999999999999,
                    "velocity": 0.7244094488188977,
                    "duration": 0.29374999999998863
                },
                {
                    "name": "C3",
                    "midi": 48,
                    "time": 267.5999999999999,
                    "velocity": 1,
                    "duration": 0.10000000000002274
                },
                {
                    "name": "B2",
                    "midi": 47,
                    "time": 267.8999999999999,
                    "velocity": 1,
                    "duration": 0.10000000000002274
                },
                {
                    "name": "A#2",
                    "midi": 46,
                    "time": 268.19999999999993,
                    "velocity": 1,
                    "duration": 0.10000000000002274
                },
                {
                    "name": "G#2",
                    "midi": 44,
                    "time": 268.49999999999994,
                    "velocity": 1,
                    "duration": 0.10000000000002274
                },
                {
                    "name": "G2",
                    "midi": 43,
                    "time": 268.79999999999995,
                    "velocity": 1,
                    "duration": 0.10000000000002274
                },
                {
                    "name": "F2",
                    "midi": 41,
                    "time": 269.09999999999997,
                    "velocity": 1,
                    "duration": 0.10000000000002274
                },
                {
                    "name": "A#2",
                    "midi": 46,
                    "time": 269.4,
                    "velocity": 1,
                    "duration": 0.10000000000002274
                },
                {
                    "name": "A2",
                    "midi": 45,
                    "time": 269.7,
                    "velocity": 1,
                    "duration": 0.10000000000002274
                },
                {
                    "name": "G#2",
                    "midi": 44,
                    "time": 270,
                    "velocity": 1,
                    "duration": 0.10000000000002274
                },
                {
                    "name": "G2",
                    "midi": 43,
                    "time": 270.3,
                    "velocity": 1,
                    "duration": 0.10000000000002274
                },
                {
                    "name": "F2",
                    "midi": 41,
                    "time": 270.6,
                    "velocity": 1,
                    "duration": 0.10000000000002274
                },
                {
                    "name": "D#2",
                    "midi": 39,
                    "time": 270.90000000000003,
                    "velocity": 1,
                    "duration": 0.10000000000002274
                },
                {
                    "name": "F2",
                    "midi": 41,
                    "time": 271.20000000000005,
                    "velocity": 1,
                    "duration": 0.10000000000002274
                },
                {
                    "name": "G2",
                    "midi": 43,
                    "time": 272.1000000000001,
                    "velocity": 1,
                    "duration": 0.10000000000002274
                },
                {
                    "name": "G1",
                    "midi": 31,
                    "time": 273.0000000000001,
                    "velocity": 1,
                    "duration": 0.10000000000002274
                },
                {
                    "name": "C2",
                    "midi": 36,
                    "time": 273.90000000000015,
                    "velocity": 0.7244094488188977,
                    "duration": 0.6000000000000227
                },
                {
                    "name": "G2",
                    "midi": 43,
                    "time": 274.8000000000002,
                    "velocity": 0.47244094488188976,
                    "duration": 0.8999999999999773
                },
                {
                    "name": "G2",
                    "midi": 43,
                    "time": 275.70000000000016,
                    "velocity": 0.47244094488188976,
                    "duration": 0.8999999999999773
                },
                {
                    "name": "G2",
                    "midi": 43,
                    "time": 276.60000000000014,
                    "velocity": 0.47244094488188976,
                    "duration": 0.8999999999999773
                },
                {
                    "name": "G2",
                    "midi": 43,
                    "time": 277.5000000000001,
                    "velocity": 0.47244094488188976,
                    "duration": 0.8999999999999773
                },
                {
                    "name": "G2",
                    "midi": 43,
                    "time": 278.4000000000001,
                    "velocity": 0.7244094488188977,
                    "duration": 0.8999999999999773
                },
                {
                    "name": "G2",
                    "midi": 43,
                    "time": 279.30000000000007,
                    "velocity": 0.7244094488188977,
                    "duration": 0.8999999999999773
                },
                {
                    "name": "G2",
                    "midi": 43,
                    "time": 280.20000000000005,
                    "velocity": 0.7244094488188977,
                    "duration": 0.29374999999998863
                },
                {
                    "name": "F2",
                    "midi": 41,
                    "time": 280.50000000000006,
                    "velocity": 0.7244094488188977,
                    "duration": 0.29374999999998863
                },
                {
                    "name": "D2",
                    "midi": 38,
                    "time": 280.80000000000007,
                    "velocity": 0.7244094488188977,
                    "duration": 0.29374999999998863
                },
                {
                    "name": "C2",
                    "midi": 36,
                    "time": 281.1000000000001,
                    "velocity": 0.7244094488188977,
                    "duration": 0.29374999999998863
                },
                {
                    "name": "C2",
                    "midi": 36,
                    "time": 281.4000000000001,
                    "velocity": 0.7244094488188977,
                    "duration": 0.29374999999998863
                },
                {
                    "name": "C2",
                    "midi": 36,
                    "time": 281.7000000000001,
                    "velocity": 0.7244094488188977,
                    "duration": 0.29374999999998863
                },
                {
                    "name": "G2",
                    "midi": 43,
                    "time": 282.0000000000001,
                    "velocity": 0.7244094488188977,
                    "duration": 0.29374999999998863
                },
                {
                    "name": "G2",
                    "midi": 43,
                    "time": 282.3000000000001,
                    "velocity": 0.7244094488188977,
                    "duration": 0.29374999999998863
                },
                {
                    "name": "G2",
                    "midi": 43,
                    "time": 282.60000000000014,
                    "velocity": 0.7244094488188977,
                    "duration": 0.29374999999998863
                },
                {
                    "name": "C3",
                    "midi": 48,
                    "time": 282.90000000000015,
                    "velocity": 0.7244094488188977,
                    "duration": 0.29374999999998863
                },
                {
                    "name": "G2",
                    "midi": 43,
                    "time": 283.20000000000016,
                    "velocity": 0.7244094488188977,
                    "duration": 0.29374999999998863
                },
                {
                    "name": "D#2",
                    "midi": 39,
                    "time": 283.50000000000017,
                    "velocity": 0.7244094488188977,
                    "duration": 0.29374999999998863
                },
                {
                    "name": "C2",
                    "midi": 36,
                    "time": 283.8000000000002,
                    "velocity": 0.7244094488188977,
                    "duration": 0.29374999999998863
                },
                {
                    "name": "G1",
                    "midi": 31,
                    "time": 284.1000000000002,
                    "velocity": 0.7244094488188977,
                    "duration": 0.29374999999998863
                },
                {
                    "name": "D#2",
                    "midi": 39,
                    "time": 284.4000000000002,
                    "velocity": 0.7244094488188977,
                    "duration": 0.29374999999998863
                },
                {
                    "name": "C2",
                    "midi": 36,
                    "time": 284.7000000000002,
                    "velocity": 0.7244094488188977,
                    "duration": 0.6000000000000227
                },
                {
                    "name": "C3",
                    "midi": 48,
                    "time": 285.60000000000025,
                    "velocity": 0.7244094488188977,
                    "duration": 0.6000000000000227
                },
                {
                    "name": "C2",
                    "midi": 36,
                    "time": 286.35000000000025,
                    "velocity": 0.7244094488188977,
                    "duration": 0.10000000000002274
                },
                {
                    "name": "C2",
                    "midi": 36,
                    "time": 286.5000000000003,
                    "velocity": 0.7244094488188977,
                    "duration": 0.8999999999999773
                }
            ],
            "controlChanges": {
                "7": [
                    {
                        "number": 7,
                        "time": 0,
                        "value": 0.8661417322834646
                    }
                ],
                "10": [
                    {
                        "number": 10,
                        "time": 0,
                        "value": 0.8661417322834646
                    }
                ],
                "91": [
                    {
                        "number": 91,
                        "time": 0,
                        "value": 1
                    }
                ]
            },
            "id": 21,
            "instrumentNumber": 43,
            "instrument": "contrabass",
            "instrumentFamily": "strings",
            "channelNumber": 15,
            "isPercussion": false
        }
    ]
}