{
    "header": {
        "PPQ": 480,
        "timeSignature": [
            3,
            8
        ],
        "bpm": 87.31997531755364,
        "name": "Mendelssohn: Lieder ohne Worte Opus 19 Nr. 2"
    },
    "startTime": 0,
    "duration": 93.87886299999985,
    "tracks": [
        {
            "startTime": 0,
            "duration": 0,
            "length": 0,
            "notes": [],
            "controlChanges": {},
            "id": 0,
            "name": "Mendelssohn: Lieder ohne Worte Opus 19 Nr. 2"
        },
        {
            "startTime": 0.687128,
            "duration": 93.87886299999985,
            "length": 353,
            "notes": [
                {
                    "name": "E5",
                    "midi": 76,
                    "time": 0.687128,
                    "velocity": 0.5118110236220472,
                    "duration": 0.343564
                },
                {
                    "name": "D5",
                    "midi": 74,
                    "time": 1.030692,
                    "velocity": 0.5669291338582677,
                    "duration": 0.343564
                },
                {
                    "name": "C5",
                    "midi": 72,
                    "time": 1.374256,
                    "velocity": 0.47244094488188976,
                    "duration": 0.343564
                },
                {
                    "name": "B4",
                    "midi": 71,
                    "time": 1.71782,
                    "velocity": 0.47244094488188976,
                    "duration": 0.15746683333333333
                },
                {
                    "name": "B4",
                    "midi": 71,
                    "time": 1.889602,
                    "velocity": 0.4251968503937008,
                    "duration": 0.057260666666666626
                },
                {
                    "name": "C5",
                    "midi": 72,
                    "time": 1.9468626666666666,
                    "velocity": 0.3858267716535433,
                    "duration": 0.057260666666666626
                },
                {
                    "name": "D5",
                    "midi": 74,
                    "time": 2.0041233333333333,
                    "velocity": 0.4015748031496063,
                    "duration": 0.057260666666666626
                },
                {
                    "name": "C5",
                    "midi": 72,
                    "time": 2.061384,
                    "velocity": 0.5354330708661418,
                    "duration": 0.3435640000000002
                },
                {
                    "name": "B4",
                    "midi": 71,
                    "time": 2.404948,
                    "velocity": 0.47244094488188976,
                    "duration": 0.34356399999999976
                },
                {
                    "name": "A4",
                    "midi": 69,
                    "time": 2.748512,
                    "velocity": 0.5196850393700787,
                    "duration": 0.6871279999999995
                },
                {
                    "name": "F5",
                    "midi": 77,
                    "time": 3.0920759999999996,
                    "velocity": 0.6062992125984252,
                    "duration": 0.34356399999999976
                },
                {
                    "name": "F5",
                    "midi": 77,
                    "time": 3.4356399999999994,
                    "velocity": 0.49606299212598426,
                    "duration": 0.17178199999999988
                },
                {
                    "name": "A4",
                    "midi": 69,
                    "time": 3.4356399999999994,
                    "velocity": 0.49606299212598426,
                    "duration": 0.17178199999999988
                },
                {
                    "name": "F5",
                    "midi": 77,
                    "time": 3.779203999999999,
                    "velocity": 0.4566929133858268,
                    "duration": 0.17178199999999988
                },
                {
                    "name": "B4",
                    "midi": 71,
                    "time": 3.779203999999999,
                    "velocity": 0.3858267716535433,
                    "duration": 0.17178199999999988
                },
                {
                    "name": "B4",
                    "midi": 71,
                    "time": 4.122767999999999,
                    "velocity": 0.4015748031496063,
                    "duration": 0.6871279999999995
                },
                {
                    "name": "F5",
                    "midi": 77,
                    "time": 4.122767999999999,
                    "velocity": 0.48031496062992124,
                    "duration": 0.6871279999999995
                },
                {
                    "name": "C5",
                    "midi": 72,
                    "time": 4.809895999999998,
                    "velocity": 0.30708661417322836,
                    "duration": 0.3006184999999997
                },
                {
                    "name": "E5",
                    "midi": 76,
                    "time": 4.809895999999998,
                    "velocity": 0.36220472440944884,
                    "duration": 0.3006184999999997
                },
                {
                    "name": "E5",
                    "midi": 76,
                    "time": 5.153459999999998,
                    "velocity": 0.3700787401574803,
                    "duration": 0.6871280000000004
                },
                {
                    "name": "A5",
                    "midi": 81,
                    "time": 5.153459999999998,
                    "velocity": 0.4409448818897638,
                    "duration": 0.6871280000000004
                },
                {
                    "name": "G#5",
                    "midi": 80,
                    "time": 5.840587999999999,
                    "velocity": 0.36220472440944884,
                    "duration": 0.3006184999999997
                },
                {
                    "name": "D5",
                    "midi": 74,
                    "time": 5.840587999999999,
                    "velocity": 0.30708661417322836,
                    "duration": 0.3006184999999997
                },
                {
                    "name": "C5",
                    "midi": 72,
                    "time": 6.184151999999998,
                    "velocity": 0.3700787401574803,
                    "duration": 0.6871280000000004
                },
                {
                    "name": "F5",
                    "midi": 77,
                    "time": 6.184151999999998,
                    "velocity": 0.4409448818897638,
                    "duration": 0.6871280000000004
                },
                {
                    "name": "B4",
                    "midi": 71,
                    "time": 6.871279999999999,
                    "velocity": 0.2992125984251969,
                    "duration": 0.3006184999999997
                },
                {
                    "name": "E5",
                    "midi": 76,
                    "time": 6.871279999999999,
                    "velocity": 0.3543307086614173,
                    "duration": 0.3006184999999997
                },
                {
                    "name": "B4",
                    "midi": 71,
                    "time": 7.2148439999999985,
                    "velocity": 0.3937007874015748,
                    "duration": 0.34356399999999976
                },
                {
                    "name": "G#4",
                    "midi": 68,
                    "time": 7.2148439999999985,
                    "velocity": 0.33070866141732286,
                    "duration": 0.34356399999999976
                },
                {
                    "name": "D5",
                    "midi": 74,
                    "time": 7.558407999999998,
                    "velocity": 0.3937007874015748,
                    "duration": 0.34356399999999976
                },
                {
                    "name": "B4",
                    "midi": 71,
                    "time": 7.558407999999998,
                    "velocity": 0.33070866141732286,
                    "duration": 0.34356399999999976
                },
                {
                    "name": "C5",
                    "midi": 72,
                    "time": 7.901971999999998,
                    "velocity": 0.33858267716535434,
                    "duration": 0.34356399999999976
                },
                {
                    "name": "A4",
                    "midi": 69,
                    "time": 7.901971999999998,
                    "velocity": 0.28346456692913385,
                    "duration": 0.34356399999999976
                },
                {
                    "name": "B4",
                    "midi": 71,
                    "time": 8.245535999999998,
                    "velocity": 0.36220472440944884,
                    "duration": 0.6871279999999995
                },
                {
                    "name": "G#4",
                    "midi": 68,
                    "time": 8.245535999999998,
                    "velocity": 0.30708661417322836,
                    "duration": 0.6871279999999995
                },
                {
                    "name": "E5",
                    "midi": 76,
                    "time": 8.932663999999997,
                    "velocity": 0.5118110236220472,
                    "duration": 0.34356400000000065
                },
                {
                    "name": "D5",
                    "midi": 74,
                    "time": 9.276227999999998,
                    "velocity": 0.5669291338582677,
                    "duration": 0.34356400000000065
                },
                {
                    "name": "C5",
                    "midi": 72,
                    "time": 9.619791999999999,
                    "velocity": 0.47244094488188976,
                    "duration": 0.34356400000000065
                },
                {
                    "name": "B4",
                    "midi": 71,
                    "time": 9.963356,
                    "velocity": 0.47244094488188976,
                    "duration": 0.15746683333333245
                },
                {
                    "name": "B4",
                    "midi": 71,
                    "time": 10.135137999999998,
                    "velocity": 0.4251968503937008,
                    "duration": 0.05726066666666618
                },
                {
                    "name": "C5",
                    "midi": 72,
                    "time": 10.192398666666664,
                    "velocity": 0.3858267716535433,
                    "duration": 0.05726066666666618
                },
                {
                    "name": "D5",
                    "midi": 74,
                    "time": 10.24965933333333,
                    "velocity": 0.4015748031496063,
                    "duration": 0.05726066666666618
                },
                {
                    "name": "C5",
                    "midi": 72,
                    "time": 10.306919999999996,
                    "velocity": 0.5354330708661418,
                    "duration": 0.34356400000000065
                },
                {
                    "name": "B4",
                    "midi": 71,
                    "time": 10.650483999999997,
                    "velocity": 0.47244094488188976,
                    "duration": 0.34356400000000065
                },
                {
                    "name": "A4",
                    "midi": 69,
                    "time": 10.994047999999998,
                    "velocity": 0.5196850393700787,
                    "duration": 0.34356400000000065
                },
                {
                    "name": "F5",
                    "midi": 77,
                    "time": 11.337611999999998,
                    "velocity": 0.6062992125984252,
                    "duration": 0.34356400000000065
                },
                {
                    "name": "F5",
                    "midi": 77,
                    "time": 11.681175999999999,
                    "velocity": 0.49606299212598426,
                    "duration": 0.17178200000000032
                },
                {
                    "name": "C5",
                    "midi": 72,
                    "time": 11.681175999999999,
                    "velocity": 0.41732283464566927,
                    "duration": 0.17178200000000032
                },
                {
                    "name": "F5",
                    "midi": 77,
                    "time": 12.02474,
                    "velocity": 0.4566929133858268,
                    "duration": 0.17178200000000032
                },
                {
                    "name": "B4",
                    "midi": 71,
                    "time": 12.02474,
                    "velocity": 0.3858267716535433,
                    "duration": 0.17178200000000032
                },
                {
                    "name": "B4",
                    "midi": 71,
                    "time": 12.368304,
                    "velocity": 0.4015748031496063,
                    "duration": 0.6871279999999995
                },
                {
                    "name": "F5",
                    "midi": 77,
                    "time": 12.368304,
                    "velocity": 0.48031496062992124,
                    "duration": 0.6871279999999995
                },
                {
                    "name": "C5",
                    "midi": 72,
                    "time": 13.055432,
                    "velocity": 0.30708661417322836,
                    "duration": 0.30061850000000057
                },
                {
                    "name": "E5",
                    "midi": 76,
                    "time": 13.055432,
                    "velocity": 0.36220472440944884,
                    "duration": 0.30061850000000057
                },
                {
                    "name": "A4",
                    "midi": 69,
                    "time": 13.398996,
                    "velocity": 0.3700787401574803,
                    "duration": 0.6871279999999977
                },
                {
                    "name": "E5",
                    "midi": 76,
                    "time": 13.398996,
                    "velocity": 0.48031496062992124,
                    "duration": 0.32924883333333277
                },
                {
                    "name": "E5",
                    "midi": 76,
                    "time": 13.74256,
                    "velocity": 0.48031496062992124,
                    "duration": 0.32924883333333277
                },
                {
                    "name": "B4",
                    "midi": 71,
                    "time": 14.086123999999998,
                    "velocity": 0.3779527559055118,
                    "duration": 0.34356400000000065
                },
                {
                    "name": "E5",
                    "midi": 76,
                    "time": 14.086123999999998,
                    "velocity": 0.47244094488188976,
                    "duration": 0.34356400000000065
                },
                {
                    "name": "C5",
                    "midi": 72,
                    "time": 14.429687999999999,
                    "velocity": 0.3779527559055118,
                    "duration": 0.6871280000000013
                },
                {
                    "name": "G5",
                    "midi": 79,
                    "time": 14.429687999999999,
                    "velocity": 0.5511811023622047,
                    "duration": 0.17178200000000032
                },
                {
                    "name": "F#5",
                    "midi": 78,
                    "time": 14.601469999999999,
                    "velocity": 0.4251968503937008,
                    "duration": 0.17178200000000032
                },
                {
                    "name": "E5",
                    "midi": 76,
                    "time": 14.773252,
                    "velocity": 0.4409448818897638,
                    "duration": 0.6871280000000013
                },
                {
                    "name": "B4",
                    "midi": 71,
                    "time": 15.116816,
                    "velocity": 0.36220472440944884,
                    "duration": 0.34356400000000065
                },
                {
                    "name": "A4",
                    "midi": 69,
                    "time": 15.46038,
                    "velocity": 0.3700787401574803,
                    "duration": 0.6871279999999977
                },
                {
                    "name": "E5",
                    "midi": 76,
                    "time": 15.46038,
                    "velocity": 0.48031496062992124,
                    "duration": 0.32924883333333277
                },
                {
                    "name": "E5",
                    "midi": 76,
                    "time": 15.803944,
                    "velocity": 0.48031496062992124,
                    "duration": 0.32924883333333277
                },
                {
                    "name": "B4",
                    "midi": 71,
                    "time": 16.147508,
                    "velocity": 0.3779527559055118,
                    "duration": 0.34356400000000065
                },
                {
                    "name": "E5",
                    "midi": 76,
                    "time": 16.147508,
                    "velocity": 0.47244094488188976,
                    "duration": 0.34356400000000065
                },
                {
                    "name": "C5",
                    "midi": 72,
                    "time": 16.491072,
                    "velocity": 0.3779527559055118,
                    "duration": 0.6871280000000013
                },
                {
                    "name": "G5",
                    "midi": 79,
                    "time": 16.491072,
                    "velocity": 0.5511811023622047,
                    "duration": 0.17178200000000032
                },
                {
                    "name": "F#5",
                    "midi": 78,
                    "time": 16.662854,
                    "velocity": 0.4330708661417323,
                    "duration": 0.17178200000000032
                },
                {
                    "name": "E5",
                    "midi": 76,
                    "time": 16.834636,
                    "velocity": 0.4409448818897638,
                    "duration": 0.6871280000000013
                },
                {
                    "name": "B4",
                    "midi": 71,
                    "time": 17.1782,
                    "velocity": 0.36220472440944884,
                    "duration": 0.34356400000000065
                },
                {
                    "name": "A4",
                    "midi": 69,
                    "time": 17.521764,
                    "velocity": 0.33070866141732286,
                    "duration": 0.17178200000000032
                },
                {
                    "name": "E5",
                    "midi": 76,
                    "time": 17.521764,
                    "velocity": 0.48031496062992124,
                    "duration": 0.32924883333333455
                },
                {
                    "name": "E4",
                    "midi": 64,
                    "time": 17.693546,
                    "velocity": 0.25984251968503935,
                    "duration": 0.17178200000000032
                },
                {
                    "name": "C5",
                    "midi": 72,
                    "time": 17.865328,
                    "velocity": 0.30708661417322836,
                    "duration": 0.17178200000000032
                },
                {
                    "name": "E5",
                    "midi": 76,
                    "time": 17.865328,
                    "velocity": 0.48031496062992124,
                    "duration": 0.32924883333333455
                },
                {
                    "name": "E4",
                    "midi": 64,
                    "time": 18.037110000000002,
                    "velocity": 0.25984251968503935,
                    "duration": 0.17178200000000032
                },
                {
                    "name": "B4",
                    "midi": 71,
                    "time": 18.208892000000002,
                    "velocity": 0.2992125984251969,
                    "duration": 0.17178200000000032
                },
                {
                    "name": "D5",
                    "midi": 74,
                    "time": 18.208892000000002,
                    "velocity": 0.47244094488188976,
                    "duration": 0.34356400000000065
                },
                {
                    "name": "E4",
                    "midi": 64,
                    "time": 18.380674000000003,
                    "velocity": 0.33070866141732286,
                    "duration": 0.17178200000000032
                },
                {
                    "name": "A4",
                    "midi": 69,
                    "time": 18.552456000000003,
                    "velocity": 0.33070866141732286,
                    "duration": 0.17178200000000032
                },
                {
                    "name": "C5",
                    "midi": 72,
                    "time": 18.552456000000003,
                    "velocity": 0.48031496062992124,
                    "duration": 0.32924883333333455
                },
                {
                    "name": "E4",
                    "midi": 64,
                    "time": 18.724238000000003,
                    "velocity": 0.25984251968503935,
                    "duration": 0.17178200000000032
                },
                {
                    "name": "G#4",
                    "midi": 68,
                    "time": 18.896020000000004,
                    "velocity": 0.30708661417322836,
                    "duration": 0.17178200000000032
                },
                {
                    "name": "B4",
                    "midi": 71,
                    "time": 18.896020000000004,
                    "velocity": 0.48031496062992124,
                    "duration": 0.32924883333333455
                },
                {
                    "name": "E4",
                    "midi": 64,
                    "time": 19.067802000000004,
                    "velocity": 0.25984251968503935,
                    "duration": 0.17178200000000032
                },
                {
                    "name": "G4",
                    "midi": 67,
                    "time": 19.239584000000004,
                    "velocity": 0.2992125984251969,
                    "duration": 0.17178200000000032
                },
                {
                    "name": "A#4",
                    "midi": 70,
                    "time": 19.239584000000004,
                    "velocity": 0.47244094488188976,
                    "duration": 0.34356400000000065
                },
                {
                    "name": "E4",
                    "midi": 64,
                    "time": 19.411366000000005,
                    "velocity": 0.33070866141732286,
                    "duration": 0.17178200000000032
                },
                {
                    "name": "F#5",
                    "midi": 78,
                    "time": 19.583148000000005,
                    "velocity": 0.5511811023622047,
                    "duration": 0.34356400000000065
                },
                {
                    "name": "A4",
                    "midi": 69,
                    "time": 19.583148000000005,
                    "velocity": 0.5511811023622047,
                    "duration": 1.374255999999999
                },
                {
                    "name": "C5",
                    "midi": 72,
                    "time": 19.926712000000006,
                    "velocity": 0.4881889763779528,
                    "duration": 1.0306919999999984
                },
                {
                    "name": "B4",
                    "midi": 71,
                    "time": 20.957404000000004,
                    "velocity": 0.4881889763779528,
                    "duration": 0.34356400000000065
                },
                {
                    "name": "F#4",
                    "midi": 66,
                    "time": 21.300968000000005,
                    "velocity": 0.4251968503937008,
                    "duration": 0.34356400000000065
                },
                {
                    "name": "A4",
                    "midi": 69,
                    "time": 21.300968000000005,
                    "velocity": 0.4881889763779528,
                    "duration": 0.34356400000000065
                },
                {
                    "name": "G4",
                    "midi": 67,
                    "time": 21.644532000000005,
                    "velocity": 0.4881889763779528,
                    "duration": 0.6871280000000013
                },
                {
                    "name": "B3",
                    "midi": 59,
                    "time": 21.816314000000006,
                    "velocity": 0.3228346456692913,
                    "duration": 0.17178200000000032
                },
                {
                    "name": "E4",
                    "midi": 64,
                    "time": 21.988096000000006,
                    "velocity": 0.3543307086614173,
                    "duration": 0.17178200000000032
                },
                {
                    "name": "B3",
                    "midi": 59,
                    "time": 22.159878000000006,
                    "velocity": 0.3228346456692913,
                    "duration": 0.17178200000000032
                },
                {
                    "name": "F#4",
                    "midi": 66,
                    "time": 22.331660000000007,
                    "velocity": 0.3543307086614173,
                    "duration": 0.17178200000000032
                },
                {
                    "name": "A4",
                    "midi": 69,
                    "time": 22.331660000000007,
                    "velocity": 0.4881889763779528,
                    "duration": 0.34356400000000065
                },
                {
                    "name": "B3",
                    "midi": 59,
                    "time": 22.503442000000007,
                    "velocity": 0.3228346456692913,
                    "duration": 0.17178200000000032
                },
                {
                    "name": "G4",
                    "midi": 67,
                    "time": 22.675224000000007,
                    "velocity": 0.4881889763779528,
                    "duration": 0.34356400000000065
                },
                {
                    "name": "B4",
                    "midi": 71,
                    "time": 22.675224000000007,
                    "velocity": 0.4881889763779528,
                    "duration": 0.34356400000000065
                },
                {
                    "name": "G5",
                    "midi": 79,
                    "time": 23.018788000000008,
                    "velocity": 0.4330708661417323,
                    "duration": 0.34356400000000065
                },
                {
                    "name": "F#5",
                    "midi": 78,
                    "time": 23.36235200000001,
                    "velocity": 0.33070866141732286,
                    "duration": 0.34356400000000065
                },
                {
                    "name": "A4",
                    "midi": 69,
                    "time": 23.36235200000001,
                    "velocity": 0.2755905511811024,
                    "duration": 0.34356400000000065
                },
                {
                    "name": "E5",
                    "midi": 76,
                    "time": 23.70591600000001,
                    "velocity": 0.4251968503937008,
                    "duration": 1.7178199999999997
                },
                {
                    "name": "D5",
                    "midi": 74,
                    "time": 25.42373600000001,
                    "velocity": 0.3779527559055118,
                    "duration": 0.32924883333333455
                },
                {
                    "name": "G4",
                    "midi": 67,
                    "time": 25.76730000000001,
                    "velocity": 0.29133858267716534,
                    "duration": 0.17178200000000032
                },
                {
                    "name": "D5",
                    "midi": 74,
                    "time": 25.76730000000001,
                    "velocity": 0.4251968503937008,
                    "duration": 0.32924883333333455
                },
                {
                    "name": "E4",
                    "midi": 64,
                    "time": 25.93908200000001,
                    "velocity": 0.2283464566929134,
                    "duration": 0.17178200000000032
                },
                {
                    "name": "G4",
                    "midi": 67,
                    "time": 26.11086400000001,
                    "velocity": 0.2755905511811024,
                    "duration": 0.17178200000000032
                },
                {
                    "name": "C5",
                    "midi": 72,
                    "time": 26.11086400000001,
                    "velocity": 0.4251968503937008,
                    "duration": 0.32924883333333455
                },
                {
                    "name": "E4",
                    "midi": 64,
                    "time": 26.28264600000001,
                    "velocity": 0.2283464566929134,
                    "duration": 0.17178200000000032
                },
                {
                    "name": "G4",
                    "midi": 67,
                    "time": 26.45442800000001,
                    "velocity": 0.2677165354330709,
                    "duration": 0.17178200000000032
                },
                {
                    "name": "B4",
                    "midi": 71,
                    "time": 26.45442800000001,
                    "velocity": 0.4251968503937008,
                    "duration": 0.34356400000000065
                },
                {
                    "name": "E4",
                    "midi": 64,
                    "time": 26.62621000000001,
                    "velocity": 0.29133858267716534,
                    "duration": 0.17178200000000032
                },
                {
                    "name": "F#4",
                    "midi": 66,
                    "time": 26.79799200000001,
                    "velocity": 0.29133858267716534,
                    "duration": 0.17178200000000032
                },
                {
                    "name": "A4",
                    "midi": 69,
                    "time": 26.79799200000001,
                    "velocity": 0.4251968503937008,
                    "duration": 0.32924883333333455
                },
                {
                    "name": "E4",
                    "midi": 64,
                    "time": 26.96977400000001,
                    "velocity": 0.2283464566929134,
                    "duration": 0.17178200000000032
                },
                {
                    "name": "G4",
                    "midi": 67,
                    "time": 27.141556000000012,
                    "velocity": 0.2755905511811024,
                    "duration": 0.17178200000000032
                },
                {
                    "name": "B4",
                    "midi": 71,
                    "time": 27.141556000000012,
                    "velocity": 0.4251968503937008,
                    "duration": 0.32924883333333455
                },
                {
                    "name": "D4",
                    "midi": 62,
                    "time": 27.313338000000012,
                    "velocity": 0.2283464566929134,
                    "duration": 0.17178200000000032
                },
                {
                    "name": "A4",
                    "midi": 69,
                    "time": 27.485120000000013,
                    "velocity": 0.2677165354330709,
                    "duration": 0.17178200000000032
                },
                {
                    "name": "C5",
                    "midi": 72,
                    "time": 27.485120000000013,
                    "velocity": 0.4251968503937008,
                    "duration": 0.34356400000000065
                },
                {
                    "name": "C4",
                    "midi": 60,
                    "time": 27.656902000000013,
                    "velocity": 0.29133858267716534,
                    "duration": 0.17178200000000032
                },
                {
                    "name": "E4",
                    "midi": 64,
                    "time": 27.828684000000013,
                    "velocity": 0.4330708661417323,
                    "duration": 0.515346000000001
                },
                {
                    "name": "F#4",
                    "midi": 66,
                    "time": 28.344030000000014,
                    "velocity": 0.3858267716535433,
                    "duration": 0.08589100000000016
                },
                {
                    "name": "E4",
                    "midi": 64,
                    "time": 28.429921000000014,
                    "velocity": 0.36220472440944884,
                    "duration": 0.08589100000000016
                },
                {
                    "name": "D#4",
                    "midi": 63,
                    "time": 28.515812000000015,
                    "velocity": 0.4330708661417323,
                    "duration": 0.17178200000000032
                },
                {
                    "name": "E4",
                    "midi": 64,
                    "time": 28.687594000000015,
                    "velocity": 0.4881889763779528,
                    "duration": 0.17178200000000032
                },
                {
                    "name": "G4",
                    "midi": 67,
                    "time": 28.859376000000015,
                    "velocity": 0.5354330708661418,
                    "duration": 0.6871280000000013
                },
                {
                    "name": "F#4",
                    "midi": 66,
                    "time": 29.546504000000017,
                    "velocity": 0.4330708661417323,
                    "duration": 0.34356400000000065
                },
                {
                    "name": "E4",
                    "midi": 64,
                    "time": 29.890068000000017,
                    "velocity": 0.4330708661417323,
                    "duration": 1.009219250000001
                },
                {
                    "name": "E4",
                    "midi": 64,
                    "time": 30.92076000000002,
                    "velocity": 0.4094488188976378,
                    "duration": 0.6799704166666665
                },
                {
                    "name": "E4",
                    "midi": 64,
                    "time": 31.60788800000002,
                    "velocity": 0.36220472440944884,
                    "duration": 0.3364064166666658
                },
                {
                    "name": "F4",
                    "midi": 65,
                    "time": 31.95145200000002,
                    "velocity": 0.4094488188976378,
                    "duration": 0.6656552499999968
                },
                {
                    "name": "F4",
                    "midi": 65,
                    "time": 32.63858000000002,
                    "velocity": 0.3779527559055118,
                    "duration": 0.3220912499999997
                },
                {
                    "name": "F4",
                    "midi": 65,
                    "time": 32.98214400000002,
                    "velocity": 0.4330708661417323,
                    "duration": 0.6656552500000004
                },
                {
                    "name": "F4",
                    "midi": 65,
                    "time": 33.66927200000002,
                    "velocity": 0.4015748031496063,
                    "duration": 0.3220912499999997
                },
                {
                    "name": "A4",
                    "midi": 69,
                    "time": 34.01283600000002,
                    "velocity": 0.4645669291338583,
                    "duration": 0.34356400000000065
                },
                {
                    "name": "G#4",
                    "midi": 68,
                    "time": 34.35640000000002,
                    "velocity": 0.4094488188976378,
                    "duration": 0.34356400000000065
                },
                {
                    "name": "G#4",
                    "midi": 68,
                    "time": 35.04352800000002,
                    "velocity": 0.4881889763779528,
                    "duration": 0.67997041666667
                },
                {
                    "name": "G#4",
                    "midi": 68,
                    "time": 35.730656000000025,
                    "velocity": 0.4409448818897638,
                    "duration": 0.3364064166666694
                },
                {
                    "name": "A4",
                    "midi": 69,
                    "time": 36.074220000000025,
                    "velocity": 0.5118110236220472,
                    "duration": 0.6656552500000004
                },
                {
                    "name": "A4",
                    "midi": 69,
                    "time": 36.76134800000003,
                    "velocity": 0.4566929133858268,
                    "duration": 0.3220912499999997
                },
                {
                    "name": "A4",
                    "midi": 69,
                    "time": 37.10491200000003,
                    "velocity": 0.5275590551181102,
                    "duration": 0.6656552500000004
                },
                {
                    "name": "A4",
                    "midi": 69,
                    "time": 37.79204000000003,
                    "velocity": 0.48031496062992124,
                    "duration": 0.3220912499999997
                },
                {
                    "name": "C5",
                    "midi": 72,
                    "time": 38.13560400000003,
                    "velocity": 0.5511811023622047,
                    "duration": 0.34356400000000065
                },
                {
                    "name": "B4",
                    "midi": 71,
                    "time": 38.47916800000003,
                    "velocity": 0.4881889763779528,
                    "duration": 0.34356400000000065
                },
                {
                    "name": "D5",
                    "midi": 74,
                    "time": 39.16629600000003,
                    "velocity": 0.5590551181102362,
                    "duration": 0.6656552500000004
                },
                {
                    "name": "C5",
                    "midi": 72,
                    "time": 39.85342400000003,
                    "velocity": 0.5039370078740157,
                    "duration": 0.12883649999999847
                },
                {
                    "name": "B4",
                    "midi": 71,
                    "time": 40.02520600000003,
                    "velocity": 0.48031496062992124,
                    "duration": 0.12883649999999847
                },
                {
                    "name": "A4",
                    "midi": 69,
                    "time": 40.19698800000003,
                    "velocity": 0.5511811023622047,
                    "duration": 0.34356400000000065
                },
                {
                    "name": "G#4",
                    "midi": 68,
                    "time": 40.540552000000034,
                    "velocity": 0.4881889763779528,
                    "duration": 0.34356400000000065
                },
                {
                    "name": "E5",
                    "midi": 76,
                    "time": 41.914808000000036,
                    "velocity": 0.5118110236220472,
                    "duration": 0.34356400000000065
                },
                {
                    "name": "D5",
                    "midi": 74,
                    "time": 42.25837200000004,
                    "velocity": 0.5669291338582677,
                    "duration": 0.34356400000000065
                },
                {
                    "name": "C5",
                    "midi": 72,
                    "time": 42.60193600000004,
                    "velocity": 0.47244094488188976,
                    "duration": 0.34356400000000065
                },
                {
                    "name": "B4",
                    "midi": 71,
                    "time": 42.94550000000004,
                    "velocity": 0.47244094488188976,
                    "duration": 0.15746683333333067
                },
                {
                    "name": "B4",
                    "midi": 71,
                    "time": 43.11728200000004,
                    "velocity": 0.4251968503937008,
                    "duration": 0.057260666666664406
                },
                {
                    "name": "C5",
                    "midi": 72,
                    "time": 43.1745426666667,
                    "velocity": 0.3858267716535433,
                    "duration": 0.057260666666664406
                },
                {
                    "name": "D5",
                    "midi": 74,
                    "time": 43.23180333333337,
                    "velocity": 0.4015748031496063,
                    "duration": 0.057260666666664406
                },
                {
                    "name": "C5",
                    "midi": 72,
                    "time": 43.28906400000003,
                    "velocity": 0.5354330708661418,
                    "duration": 0.34356400000000065
                },
                {
                    "name": "B4",
                    "midi": 71,
                    "time": 43.63262800000003,
                    "velocity": 0.47244094488188976,
                    "duration": 0.34356400000000065
                },
                {
                    "name": "A4",
                    "midi": 69,
                    "time": 43.97619200000003,
                    "velocity": 0.5196850393700787,
                    "duration": 0.6871280000000013
                },
                {
                    "name": "F5",
                    "midi": 77,
                    "time": 44.319756000000034,
                    "velocity": 0.6062992125984252,
                    "duration": 0.34356400000000065
                },
                {
                    "name": "C5",
                    "midi": 72,
                    "time": 44.663320000000034,
                    "velocity": 0.3937007874015748,
                    "duration": 0.17178200000000032
                },
                {
                    "name": "F5",
                    "midi": 77,
                    "time": 44.663320000000034,
                    "velocity": 0.49606299212598426,
                    "duration": 0.17178200000000032
                },
                {
                    "name": "A4",
                    "midi": 69,
                    "time": 44.663320000000034,
                    "velocity": 0.3937007874015748,
                    "duration": 0.17178200000000032
                },
                {
                    "name": "F5",
                    "midi": 77,
                    "time": 45.006884000000035,
                    "velocity": 0.4566929133858268,
                    "duration": 0.17178200000000032
                },
                {
                    "name": "B4",
                    "midi": 71,
                    "time": 45.006884000000035,
                    "velocity": 0.3858267716535433,
                    "duration": 0.17178200000000032
                },
                {
                    "name": "B4",
                    "midi": 71,
                    "time": 45.350448000000036,
                    "velocity": 0.4015748031496063,
                    "duration": 0.6871280000000013
                },
                {
                    "name": "F5",
                    "midi": 77,
                    "time": 45.350448000000036,
                    "velocity": 0.48031496062992124,
                    "duration": 0.6871280000000013
                },
                {
                    "name": "C5",
                    "midi": 72,
                    "time": 46.03757600000004,
                    "velocity": 0.30708661417322836,
                    "duration": 0.3006184999999988
                },
                {
                    "name": "E5",
                    "midi": 76,
                    "time": 46.03757600000004,
                    "velocity": 0.36220472440944884,
                    "duration": 0.3006184999999988
                },
                {
                    "name": "E5",
                    "midi": 76,
                    "time": 46.38114000000004,
                    "velocity": 0.3700787401574803,
                    "duration": 0.6871280000000013
                },
                {
                    "name": "A5",
                    "midi": 81,
                    "time": 46.38114000000004,
                    "velocity": 0.4409448818897638,
                    "duration": 0.6871280000000013
                },
                {
                    "name": "G#5",
                    "midi": 80,
                    "time": 47.06826800000004,
                    "velocity": 0.36220472440944884,
                    "duration": 0.3006184999999988
                },
                {
                    "name": "D5",
                    "midi": 74,
                    "time": 47.06826800000004,
                    "velocity": 0.30708661417322836,
                    "duration": 0.3006184999999988
                },
                {
                    "name": "C5",
                    "midi": 72,
                    "time": 47.41183200000004,
                    "velocity": 0.3700787401574803,
                    "duration": 0.6871280000000013
                },
                {
                    "name": "F5",
                    "midi": 77,
                    "time": 47.41183200000004,
                    "velocity": 0.4409448818897638,
                    "duration": 0.6871280000000013
                },
                {
                    "name": "B4",
                    "midi": 71,
                    "time": 48.09896000000004,
                    "velocity": 0.2992125984251969,
                    "duration": 0.3006184999999988
                },
                {
                    "name": "E5",
                    "midi": 76,
                    "time": 48.09896000000004,
                    "velocity": 0.3543307086614173,
                    "duration": 0.3006184999999988
                },
                {
                    "name": "B4",
                    "midi": 71,
                    "time": 48.44252400000004,
                    "velocity": 0.3937007874015748,
                    "duration": 0.34356400000000065
                },
                {
                    "name": "G#4",
                    "midi": 68,
                    "time": 48.44252400000004,
                    "velocity": 0.33070866141732286,
                    "duration": 0.34356400000000065
                },
                {
                    "name": "D5",
                    "midi": 74,
                    "time": 48.78608800000004,
                    "velocity": 0.3937007874015748,
                    "duration": 0.34356400000000065
                },
                {
                    "name": "B4",
                    "midi": 71,
                    "time": 48.78608800000004,
                    "velocity": 0.33070866141732286,
                    "duration": 0.34356400000000065
                },
                {
                    "name": "C5",
                    "midi": 72,
                    "time": 49.12965200000004,
                    "velocity": 0.33858267716535434,
                    "duration": 0.34356400000000065
                },
                {
                    "name": "A4",
                    "midi": 69,
                    "time": 49.12965200000004,
                    "velocity": 0.28346456692913385,
                    "duration": 0.34356400000000065
                },
                {
                    "name": "B4",
                    "midi": 71,
                    "time": 49.47321600000004,
                    "velocity": 0.36220472440944884,
                    "duration": 0.6871280000000013
                },
                {
                    "name": "G#4",
                    "midi": 68,
                    "time": 49.47321600000004,
                    "velocity": 0.30708661417322836,
                    "duration": 0.6871280000000013
                },
                {
                    "name": "B4",
                    "midi": 71,
                    "time": 50.160344000000045,
                    "velocity": 0.31496062992125984,
                    "duration": 0.34356400000000065
                },
                {
                    "name": "E5",
                    "midi": 76,
                    "time": 50.503908000000045,
                    "velocity": 0.36220472440944884,
                    "duration": 0.34356400000000065
                },
                {
                    "name": "C5",
                    "midi": 72,
                    "time": 50.847472000000046,
                    "velocity": 0.33070866141732286,
                    "duration": 0.34356400000000065
                },
                {
                    "name": "A4",
                    "midi": 69,
                    "time": 51.19103600000005,
                    "velocity": 0.33070866141732286,
                    "duration": 0.34356400000000065
                },
                {
                    "name": "C5",
                    "midi": 72,
                    "time": 51.53460000000005,
                    "velocity": 0.3937007874015748,
                    "duration": 0.34356400000000065
                },
                {
                    "name": "A#4",
                    "midi": 70,
                    "time": 51.87816400000005,
                    "velocity": 0.36220472440944884,
                    "duration": 0.3006184999999988
                },
                {
                    "name": "A#4",
                    "midi": 70,
                    "time": 52.22172800000005,
                    "velocity": 0.4015748031496063,
                    "duration": 0.34356400000000065
                },
                {
                    "name": "G5",
                    "midi": 79,
                    "time": 52.56529200000005,
                    "velocity": 0.5118110236220472,
                    "duration": 0.34356400000000065
                },
                {
                    "name": "F5",
                    "midi": 77,
                    "time": 52.90885600000005,
                    "velocity": 0.44881889763779526,
                    "duration": 0.17178200000000032
                },
                {
                    "name": "E5",
                    "midi": 76,
                    "time": 53.08063800000005,
                    "velocity": 0.3937007874015748,
                    "duration": 0.17178200000000032
                },
                {
                    "name": "D5",
                    "midi": 74,
                    "time": 53.25242000000005,
                    "velocity": 0.4409448818897638,
                    "duration": 0.17178200000000032
                },
                {
                    "name": "C5",
                    "midi": 72,
                    "time": 53.42420200000005,
                    "velocity": 0.3858267716535433,
                    "duration": 0.17178200000000032
                },
                {
                    "name": "A#4",
                    "midi": 70,
                    "time": 53.59598400000005,
                    "velocity": 0.4251968503937008,
                    "duration": 0.34356400000000065
                },
                {
                    "name": "A4",
                    "midi": 69,
                    "time": 53.93954800000005,
                    "velocity": 0.3700787401574803,
                    "duration": 0.34356400000000065
                },
                {
                    "name": "G#4",
                    "midi": 68,
                    "time": 54.28311200000005,
                    "velocity": 0.31496062992125984,
                    "duration": 0.34356400000000065
                },
                {
                    "name": "A4",
                    "midi": 69,
                    "time": 54.62667600000005,
                    "velocity": 0.36220472440944884,
                    "duration": 0.34356400000000065
                },
                {
                    "name": "C5",
                    "midi": 72,
                    "time": 54.970240000000054,
                    "velocity": 0.33070866141732286,
                    "duration": 0.34356400000000065
                },
                {
                    "name": "D5",
                    "midi": 74,
                    "time": 55.313804000000054,
                    "velocity": 0.33070866141732286,
                    "duration": 0.34356400000000065
                },
                {
                    "name": "A4",
                    "midi": 69,
                    "time": 55.657368000000055,
                    "velocity": 0.30708661417322836,
                    "duration": 1.030692000000002
                },
                {
                    "name": "E5",
                    "midi": 76,
                    "time": 55.657368000000055,
                    "velocity": 0.36220472440944884,
                    "duration": 0.6871280000000013
                },
                {
                    "name": "D5",
                    "midi": 74,
                    "time": 56.344496000000056,
                    "velocity": 0.31496062992125984,
                    "duration": 0.17178200000000032
                },
                {
                    "name": "C5",
                    "midi": 72,
                    "time": 56.51627800000006,
                    "velocity": 0.31496062992125984,
                    "duration": 0.17178200000000032
                },
                {
                    "name": "D5",
                    "midi": 74,
                    "time": 56.68806000000006,
                    "velocity": 0.3543307086614173,
                    "duration": 0.6871280000000013
                },
                {
                    "name": "G#4",
                    "midi": 68,
                    "time": 56.68806000000006,
                    "velocity": 0.2992125984251969,
                    "duration": 1.030692000000002
                },
                {
                    "name": "C5",
                    "midi": 72,
                    "time": 57.37518800000006,
                    "velocity": 0.31496062992125984,
                    "duration": 0.17178200000000032
                },
                {
                    "name": "B4",
                    "midi": 71,
                    "time": 57.54697000000006,
                    "velocity": 0.31496062992125984,
                    "duration": 0.17178200000000032
                },
                {
                    "name": "A4",
                    "midi": 69,
                    "time": 57.71875200000006,
                    "velocity": 0.36220472440944884,
                    "duration": 0.6871280000000013
                },
                {
                    "name": "A5",
                    "midi": 81,
                    "time": 58.40588000000006,
                    "velocity": 0.3700787401574803,
                    "duration": 0.34356400000000065
                },
                {
                    "name": "G5",
                    "midi": 79,
                    "time": 58.74944400000006,
                    "velocity": 0.4251968503937008,
                    "duration": 0.34356400000000065
                },
                {
                    "name": "F5",
                    "midi": 77,
                    "time": 59.09300800000006,
                    "velocity": 0.36220472440944884,
                    "duration": 0.34356400000000065
                },
                {
                    "name": "E5",
                    "midi": 76,
                    "time": 59.43657200000006,
                    "velocity": 0.33858267716535434,
                    "duration": 0.34356400000000065
                },
                {
                    "name": "G4",
                    "midi": 67,
                    "time": 59.43657200000006,
                    "velocity": 0.33858267716535434,
                    "duration": 0.34356400000000065
                },
                {
                    "name": "E5",
                    "midi": 76,
                    "time": 59.78013600000006,
                    "velocity": 0.4251968503937008,
                    "duration": 0.34356400000000065
                },
                {
                    "name": "F#4",
                    "midi": 66,
                    "time": 59.78013600000006,
                    "velocity": 0.3543307086614173,
                    "duration": 0.6871280000000013
                },
                {
                    "name": "D5",
                    "midi": 74,
                    "time": 60.12370000000006,
                    "velocity": 0.3858267716535433,
                    "duration": 0.3006184999999988
                },
                {
                    "name": "G4",
                    "midi": 67,
                    "time": 60.467264000000064,
                    "velocity": 0.3700787401574803,
                    "duration": 0.34356400000000065
                },
                {
                    "name": "G5",
                    "midi": 79,
                    "time": 60.467264000000064,
                    "velocity": 0.3700787401574803,
                    "duration": 0.34356400000000065
                },
                {
                    "name": "G4",
                    "midi": 67,
                    "time": 60.810828000000065,
                    "velocity": 0.4015748031496063,
                    "duration": 1.3742560000000026
                },
                {
                    "name": "F5",
                    "midi": 77,
                    "time": 60.810828000000065,
                    "velocity": 0.4015748031496063,
                    "duration": 0.34356400000000065
                },
                {
                    "name": "E5",
                    "midi": 76,
                    "time": 61.154392000000065,
                    "velocity": 0.36220472440944884,
                    "duration": 0.34356400000000065
                },
                {
                    "name": "D5",
                    "midi": 74,
                    "time": 61.497956000000066,
                    "velocity": 0.33858267716535434,
                    "duration": 0.3006184999999988
                },
                {
                    "name": "D5",
                    "midi": 74,
                    "time": 61.84152000000007,
                    "velocity": 0.4566929133858268,
                    "duration": 0.34356400000000065
                },
                {
                    "name": "C5",
                    "midi": 72,
                    "time": 62.18508400000007,
                    "velocity": 0.3858267716535433,
                    "duration": 0.17178200000000032
                },
                {
                    "name": "B4",
                    "midi": 71,
                    "time": 62.35686600000007,
                    "velocity": 0.3228346456692913,
                    "duration": 0.17178200000000032
                },
                {
                    "name": "A4",
                    "midi": 69,
                    "time": 62.52864800000007,
                    "velocity": 0.3858267716535433,
                    "duration": 0.17178200000000032
                },
                {
                    "name": "G#4",
                    "midi": 68,
                    "time": 62.70043000000007,
                    "velocity": 0.3543307086614173,
                    "duration": 0.17178200000000032
                },
                {
                    "name": "A4",
                    "midi": 69,
                    "time": 62.87221200000007,
                    "velocity": 0.3858267716535433,
                    "duration": 0.17178200000000032
                },
                {
                    "name": "B4",
                    "midi": 71,
                    "time": 63.04399400000007,
                    "velocity": 0.3858267716535433,
                    "duration": 0.17178200000000032
                },
                {
                    "name": "C5",
                    "midi": 72,
                    "time": 63.21577600000007,
                    "velocity": 0.36220472440944884,
                    "duration": 0.34356400000000065
                },
                {
                    "name": "D5",
                    "midi": 74,
                    "time": 63.55934000000007,
                    "velocity": 0.33070866141732286,
                    "duration": 0.34356400000000065
                },
                {
                    "name": "A4",
                    "midi": 69,
                    "time": 63.90290400000007,
                    "velocity": 0.2755905511811024,
                    "duration": 1.0306919999999806
                },
                {
                    "name": "E5",
                    "midi": 76,
                    "time": 63.90290400000007,
                    "velocity": 0.33070866141732286,
                    "duration": 0.6871279999999942
                },
                {
                    "name": "D5",
                    "midi": 74,
                    "time": 64.59003200000006,
                    "velocity": 0.29133858267716534,
                    "duration": 0.17178199999999322
                },
                {
                    "name": "C5",
                    "midi": 72,
                    "time": 64.76181400000006,
                    "velocity": 0.29133858267716534,
                    "duration": 0.17178199999999322
                },
                {
                    "name": "G#4",
                    "midi": 68,
                    "time": 64.93359600000005,
                    "velocity": 0.2755905511811024,
                    "duration": 1.0306919999999877
                },
                {
                    "name": "D5",
                    "midi": 74,
                    "time": 64.93359600000005,
                    "velocity": 0.33070866141732286,
                    "duration": 0.6871280000000013
                },
                {
                    "name": "C5",
                    "midi": 72,
                    "time": 65.62072400000005,
                    "velocity": 0.29133858267716534,
                    "duration": 0.17178199999999322
                },
                {
                    "name": "B4",
                    "midi": 71,
                    "time": 65.79250600000005,
                    "velocity": 0.29133858267716534,
                    "duration": 0.17178199999999322
                },
                {
                    "name": "C5",
                    "midi": 72,
                    "time": 65.96428800000004,
                    "velocity": 0.33070866141732286,
                    "duration": 0.6871280000000013
                },
                {
                    "name": "E4",
                    "midi": 64,
                    "time": 66.30785200000004,
                    "velocity": 0.2755905511811024,
                    "duration": 1.0163768333333252
                },
                {
                    "name": "B4",
                    "midi": 71,
                    "time": 66.65141600000004,
                    "velocity": 0.29133858267716534,
                    "duration": 0.17178199999999322
                },
                {
                    "name": "A4",
                    "midi": 69,
                    "time": 66.82319800000003,
                    "velocity": 0.29133858267716534,
                    "duration": 0.17178199999999322
                },
                {
                    "name": "B4",
                    "midi": 71,
                    "time": 66.99498000000003,
                    "velocity": 0.33070866141732286,
                    "duration": 0.6871280000000013
                },
                {
                    "name": "E4",
                    "midi": 64,
                    "time": 67.33854400000003,
                    "velocity": 0.2755905511811024,
                    "duration": 1.717819999999989
                },
                {
                    "name": "A4",
                    "midi": 69,
                    "time": 67.68210800000003,
                    "velocity": 0.29133858267716534,
                    "duration": 0.17178199999999322
                },
                {
                    "name": "G#4",
                    "midi": 68,
                    "time": 67.85389000000002,
                    "velocity": 0.29133858267716534,
                    "duration": 0.17178199999999322
                },
                {
                    "name": "A4",
                    "midi": 69,
                    "time": 68.02567200000001,
                    "velocity": 0.33070866141732286,
                    "duration": 1.7178200000000032
                },
                {
                    "name": "A#3",
                    "midi": 58,
                    "time": 69.05636400000002,
                    "velocity": 0.2755905511811024,
                    "duration": 1.030692000000002
                },
                {
                    "name": "G4",
                    "midi": 67,
                    "time": 69.74349200000002,
                    "velocity": 0.2755905511811024,
                    "duration": 0.6871280000000013
                },
                {
                    "name": "A3",
                    "midi": 57,
                    "time": 70.08705600000002,
                    "velocity": 0.2677165354330709,
                    "duration": 1.030692000000002
                },
                {
                    "name": "F4",
                    "midi": 65,
                    "time": 70.43062000000002,
                    "velocity": 0.25984251968503935,
                    "duration": 0.34356400000000065
                },
                {
                    "name": "E4",
                    "midi": 64,
                    "time": 70.77418400000002,
                    "velocity": 0.25984251968503935,
                    "duration": 0.34356400000000065
                },
                {
                    "name": "D4",
                    "midi": 62,
                    "time": 71.11774800000002,
                    "velocity": 0.25196850393700787,
                    "duration": 0.34356400000000065
                },
                {
                    "name": "E4",
                    "midi": 64,
                    "time": 71.46131200000002,
                    "velocity": 0.2440944881889764,
                    "duration": 0.34356400000000065
                },
                {
                    "name": "C4",
                    "midi": 60,
                    "time": 71.46131200000002,
                    "velocity": 0.2440944881889764,
                    "duration": 0.34356400000000065
                },
                {
                    "name": "D4",
                    "midi": 62,
                    "time": 71.80487600000002,
                    "velocity": 0.2283464566929134,
                    "duration": 0.34356400000000065
                },
                {
                    "name": "F4",
                    "midi": 65,
                    "time": 71.80487600000002,
                    "velocity": 0.2283464566929134,
                    "duration": 0.34356400000000065
                },
                {
                    "name": "A3",
                    "midi": 57,
                    "time": 72.14844000000002,
                    "velocity": 0.23622047244094488,
                    "duration": 0.5153459999999939
                },
                {
                    "name": "B3",
                    "midi": 59,
                    "time": 72.66378600000002,
                    "velocity": 0.2125984251968504,
                    "duration": 0.08589100000000371
                },
                {
                    "name": "A3",
                    "midi": 57,
                    "time": 72.74967700000002,
                    "velocity": 0.2125984251968504,
                    "duration": 0.08589100000000371
                },
                {
                    "name": "G#3",
                    "midi": 56,
                    "time": 72.83556800000002,
                    "velocity": 0.2283464566929134,
                    "duration": 0.17178199999999322
                },
                {
                    "name": "A3",
                    "midi": 57,
                    "time": 73.00735000000002,
                    "velocity": 0.2047244094488189,
                    "duration": 0.17178199999999322
                },
                {
                    "name": "C4",
                    "midi": 60,
                    "time": 73.17913200000001,
                    "velocity": 0.2204724409448819,
                    "duration": 0.6871280000000013
                },
                {
                    "name": "G#3",
                    "midi": 56,
                    "time": 73.86626000000001,
                    "velocity": 0.2047244094488189,
                    "duration": 0.34356400000000065
                },
                {
                    "name": "B3",
                    "midi": 59,
                    "time": 73.86626000000001,
                    "velocity": 0.2047244094488189,
                    "duration": 0.34356400000000065
                },
                {
                    "name": "A3",
                    "midi": 57,
                    "time": 74.20982400000001,
                    "velocity": 0.23622047244094488,
                    "duration": 0.34356400000000065
                },
                {
                    "name": "A3",
                    "midi": 57,
                    "time": 74.55338800000001,
                    "velocity": 0.1732283464566929,
                    "duration": 0.17178199999999322
                },
                {
                    "name": "G#3",
                    "midi": 56,
                    "time": 74.72517,
                    "velocity": 0.15748031496062992,
                    "duration": 0.17178199999999322
                },
                {
                    "name": "A3",
                    "midi": 57,
                    "time": 74.896952,
                    "velocity": 0.1732283464566929,
                    "duration": 0.17178199999999322
                },
                {
                    "name": "E3",
                    "midi": 52,
                    "time": 75.06873399999999,
                    "velocity": 0.15748031496062992,
                    "duration": 0.17178199999999322
                },
                {
                    "name": "F3",
                    "midi": 53,
                    "time": 75.24051599999999,
                    "velocity": 0.2047244094488189,
                    "duration": 0.17178199999999322
                },
                {
                    "name": "D3",
                    "midi": 50,
                    "time": 75.41229799999998,
                    "velocity": 0.15748031496062992,
                    "duration": 0.17178199999999322
                },
                {
                    "name": "A3",
                    "midi": 57,
                    "time": 75.58407999999997,
                    "velocity": 0.1732283464566929,
                    "duration": 0.17178199999999322
                },
                {
                    "name": "G#3",
                    "midi": 56,
                    "time": 75.75586199999996,
                    "velocity": 0.15748031496062992,
                    "duration": 0.17178199999999322
                },
                {
                    "name": "A3",
                    "midi": 57,
                    "time": 75.92764399999996,
                    "velocity": 0.1732283464566929,
                    "duration": 0.17178199999999322
                },
                {
                    "name": "F3",
                    "midi": 53,
                    "time": 76.09942599999995,
                    "velocity": 0.15748031496062992,
                    "duration": 0.17178199999999322
                },
                {
                    "name": "E3",
                    "midi": 52,
                    "time": 76.27120799999994,
                    "velocity": 0.2047244094488189,
                    "duration": 0.17178199999999322
                },
                {
                    "name": "C3",
                    "midi": 48,
                    "time": 76.44298999999994,
                    "velocity": 0.15748031496062992,
                    "duration": 0.17178199999999322
                },
                {
                    "name": "A3",
                    "midi": 57,
                    "time": 76.61477199999993,
                    "velocity": 0.1732283464566929,
                    "duration": 0.17178199999999322
                },
                {
                    "name": "G#3",
                    "midi": 56,
                    "time": 76.78655399999992,
                    "velocity": 0.15748031496062992,
                    "duration": 0.17178199999999322
                },
                {
                    "name": "A3",
                    "midi": 57,
                    "time": 76.95833599999992,
                    "velocity": 0.1732283464566929,
                    "duration": 0.17178199999999322
                },
                {
                    "name": "E3",
                    "midi": 52,
                    "time": 77.13011799999991,
                    "velocity": 0.15748031496062992,
                    "duration": 0.17178199999999322
                },
                {
                    "name": "B2",
                    "midi": 47,
                    "time": 77.3018999999999,
                    "velocity": 0.15748031496062992,
                    "duration": 0.17178199999999322
                },
                {
                    "name": "F3",
                    "midi": 53,
                    "time": 77.3018999999999,
                    "velocity": 0.15748031496062992,
                    "duration": 0.17178199999999322
                },
                {
                    "name": "G#3",
                    "midi": 56,
                    "time": 77.3018999999999,
                    "velocity": 0.2047244094488189,
                    "duration": 0.17178199999999322
                },
                {
                    "name": "D3",
                    "midi": 50,
                    "time": 77.4736819999999,
                    "velocity": 0.15748031496062992,
                    "duration": 0.17178199999999322
                },
                {
                    "name": "B2",
                    "midi": 47,
                    "time": 77.64546399999989,
                    "velocity": 0.13385826771653545,
                    "duration": 0.17178199999999322
                },
                {
                    "name": "F3",
                    "midi": 53,
                    "time": 77.64546399999989,
                    "velocity": 0.13385826771653545,
                    "duration": 0.17178199999999322
                },
                {
                    "name": "G#3",
                    "midi": 56,
                    "time": 77.64546399999989,
                    "velocity": 0.1732283464566929,
                    "duration": 0.17178199999999322
                },
                {
                    "name": "D3",
                    "midi": 50,
                    "time": 77.81724599999988,
                    "velocity": 0.15748031496062992,
                    "duration": 0.17178199999999322
                },
                {
                    "name": "B2",
                    "midi": 47,
                    "time": 77.98902799999988,
                    "velocity": 0.13385826771653545,
                    "duration": 0.17178199999999322
                },
                {
                    "name": "F3",
                    "midi": 53,
                    "time": 77.98902799999988,
                    "velocity": 0.13385826771653545,
                    "duration": 0.17178199999999322
                },
                {
                    "name": "G#3",
                    "midi": 56,
                    "time": 77.98902799999988,
                    "velocity": 0.1732283464566929,
                    "duration": 0.17178199999999322
                },
                {
                    "name": "D3",
                    "midi": 50,
                    "time": 78.16080999999987,
                    "velocity": 0.15748031496062992,
                    "duration": 0.17178199999999322
                },
                {
                    "name": "C3",
                    "midi": 48,
                    "time": 78.33259199999986,
                    "velocity": 0.1889763779527559,
                    "duration": 0.6871280000000013
                },
                {
                    "name": "A3",
                    "midi": 57,
                    "time": 78.33259199999986,
                    "velocity": 0.2204724409448819,
                    "duration": 0.6871280000000013
                },
                {
                    "name": "A5",
                    "midi": 81,
                    "time": 80.05041199999987,
                    "velocity": 0.4015748031496063,
                    "duration": 0.34356400000000065
                },
                {
                    "name": "G5",
                    "midi": 79,
                    "time": 80.39397599999987,
                    "velocity": 0.44881889763779526,
                    "duration": 0.34356400000000065
                },
                {
                    "name": "F5",
                    "midi": 77,
                    "time": 80.73753999999987,
                    "velocity": 0.3858267716535433,
                    "duration": 0.34356400000000065
                },
                {
                    "name": "E5",
                    "midi": 76,
                    "time": 81.08110399999987,
                    "velocity": 0.3543307086614173,
                    "duration": 0.17178199999999322
                },
                {
                    "name": "E5",
                    "midi": 76,
                    "time": 81.25288599999986,
                    "velocity": 0.29133858267716534,
                    "duration": 0.057260666666664406
                },
                {
                    "name": "F5",
                    "midi": 77,
                    "time": 81.31014666666653,
                    "velocity": 0.29133858267716534,
                    "duration": 0.057260666666664406
                },
                {
                    "name": "G5",
                    "midi": 79,
                    "time": 81.36740733333319,
                    "velocity": 0.29133858267716534,
                    "duration": 0.057260666666664406
                },
                {
                    "name": "F5",
                    "midi": 77,
                    "time": 81.42466799999985,
                    "velocity": 0.4251968503937008,
                    "duration": 0.34356400000000065
                },
                {
                    "name": "E5",
                    "midi": 76,
                    "time": 81.76823199999986,
                    "velocity": 0.5039370078740157,
                    "duration": 0.34356400000000065
                },
                {
                    "name": "D5",
                    "midi": 74,
                    "time": 82.11179599999986,
                    "velocity": 0.5669291338582677,
                    "duration": 0.34356400000000065
                },
                {
                    "name": "A#5",
                    "midi": 82,
                    "time": 82.45535999999986,
                    "velocity": 0.6220472440944882,
                    "duration": 0.34356400000000065
                },
                {
                    "name": "A#5",
                    "midi": 82,
                    "time": 82.79892399999986,
                    "velocity": 0.5511811023622047,
                    "duration": 0.25767299999999693
                },
                {
                    "name": "A#5",
                    "midi": 82,
                    "time": 83.14248799999986,
                    "velocity": 0.5511811023622047,
                    "duration": 0.25767299999999693
                },
                {
                    "name": "A#5",
                    "midi": 82,
                    "time": 83.48605199999986,
                    "velocity": 0.5118110236220472,
                    "duration": 0.6871280000000013
                },
                {
                    "name": "A5",
                    "midi": 81,
                    "time": 84.17317999999986,
                    "velocity": 0.4094488188976378,
                    "duration": 2.4049479999999903
                },
                {
                    "name": "E5",
                    "midi": 76,
                    "time": 84.17317999999986,
                    "velocity": 0.31496062992125984,
                    "duration": 0.34356400000000065
                },
                {
                    "name": "D5",
                    "midi": 74,
                    "time": 84.51674399999986,
                    "velocity": 0.36220472440944884,
                    "duration": 0.34356400000000065
                },
                {
                    "name": "C5",
                    "midi": 72,
                    "time": 84.86030799999986,
                    "velocity": 0.31496062992125984,
                    "duration": 0.34356400000000065
                },
                {
                    "name": "B4",
                    "midi": 71,
                    "time": 85.20387199999986,
                    "velocity": 0.29133858267716534,
                    "duration": 0.17178199999999322
                },
                {
                    "name": "B4",
                    "midi": 71,
                    "time": 85.37565399999986,
                    "velocity": 0.29133858267716534,
                    "duration": 0.057260666666664406
                },
                {
                    "name": "C5",
                    "midi": 72,
                    "time": 85.43291466666652,
                    "velocity": 0.29133858267716534,
                    "duration": 0.057260666666664406
                },
                {
                    "name": "D5",
                    "midi": 74,
                    "time": 85.49017533333318,
                    "velocity": 0.29133858267716534,
                    "duration": 0.057260666666664406
                },
                {
                    "name": "C5",
                    "midi": 72,
                    "time": 85.54743599999985,
                    "velocity": 0.3858267716535433,
                    "duration": 0.34356400000000065
                },
                {
                    "name": "B4",
                    "midi": 71,
                    "time": 85.89099999999985,
                    "velocity": 0.41732283464566927,
                    "duration": 0.34356400000000065
                },
                {
                    "name": "A4",
                    "midi": 69,
                    "time": 86.23456399999985,
                    "velocity": 0.4409448818897638,
                    "duration": 0.34356400000000065
                },
                {
                    "name": "F5",
                    "midi": 77,
                    "time": 86.57812799999985,
                    "velocity": 0.5118110236220472,
                    "duration": 0.34356400000000065
                },
                {
                    "name": "G#4",
                    "midi": 68,
                    "time": 86.92169199999985,
                    "velocity": 0.3779527559055118,
                    "duration": 0.25767299999999693
                },
                {
                    "name": "D5",
                    "midi": 74,
                    "time": 86.92169199999985,
                    "velocity": 0.3779527559055118,
                    "duration": 0.25767299999999693
                },
                {
                    "name": "F5",
                    "midi": 77,
                    "time": 86.92169199999985,
                    "velocity": 0.48031496062992124,
                    "duration": 0.25767299999999693
                },
                {
                    "name": "G#4",
                    "midi": 68,
                    "time": 87.26525599999985,
                    "velocity": 0.3779527559055118,
                    "duration": 0.25767299999999693
                },
                {
                    "name": "D5",
                    "midi": 74,
                    "time": 87.26525599999985,
                    "velocity": 0.3779527559055118,
                    "duration": 0.25767299999999693
                },
                {
                    "name": "F5",
                    "midi": 77,
                    "time": 87.26525599999985,
                    "velocity": 0.48031496062992124,
                    "duration": 0.25767299999999693
                },
                {
                    "name": "G#4",
                    "midi": 68,
                    "time": 87.60881999999985,
                    "velocity": 0.4094488188976378,
                    "duration": 4.1227679999999935
                },
                {
                    "name": "D5",
                    "midi": 74,
                    "time": 87.60881999999985,
                    "velocity": 0.4094488188976378,
                    "duration": 4.1227679999999935
                },
                {
                    "name": "F5",
                    "midi": 77,
                    "time": 87.60881999999985,
                    "velocity": 0.5118110236220472,
                    "duration": 4.1227679999999935
                },
                {
                    "name": "C5",
                    "midi": 72,
                    "time": 91.73158799999985,
                    "velocity": 0.2125984251968504,
                    "duration": 0.34356400000000065
                },
                {
                    "name": "E5",
                    "midi": 76,
                    "time": 91.73158799999985,
                    "velocity": 0.2677165354330709,
                    "duration": 0.34356400000000065
                },
                {
                    "name": "A4",
                    "midi": 69,
                    "time": 91.73731406666651,
                    "velocity": 0.2125984251968504,
                    "duration": 0.34356400000000065
                },
                {
                    "name": "A3",
                    "midi": 57,
                    "time": 92.41871599999985,
                    "velocity": 0.2283464566929134,
                    "duration": 0.08589100000000371
                },
                {
                    "name": "A3",
                    "midi": 57,
                    "time": 92.76227999999985,
                    "velocity": 0.2677165354330709,
                    "duration": 0.08589100000000371
                },
                {
                    "name": "A3",
                    "midi": 57,
                    "time": 93.44940799999985,
                    "velocity": 0.2440944881889764,
                    "duration": 0.08589100000000371
                },
                {
                    "name": "A3",
                    "midi": 57,
                    "time": 93.79297199999985,
                    "velocity": 0.2677165354330709,
                    "duration": 0.08589100000000371
                }
            ],
            "controlChanges": {},
            "id": 1,
            "name": "Piano right",
            "instrumentNumber": 0,
            "instrument": "acoustic grand piano",
            "instrumentFamily": "piano",
            "channelNumber": 0,
            "isPercussion": false
        },
        {
            "startTime": 0.687128,
            "duration": 93.87886299999926,
            "length": 520,
            "notes": [
                {
                    "name": "C4",
                    "midi": 60,
                    "time": 0.687128,
                    "velocity": 0.31496062992125984,
                    "duration": 0.171782
                },
                {
                    "name": "E4",
                    "midi": 64,
                    "time": 0.85891,
                    "velocity": 0.25196850393700787,
                    "duration": 0.171782
                },
                {
                    "name": "B3",
                    "midi": 59,
                    "time": 1.030692,
                    "velocity": 0.31496062992125984,
                    "duration": 0.1717820000000001
                },
                {
                    "name": "E4",
                    "midi": 64,
                    "time": 1.202474,
                    "velocity": 0.2283464566929134,
                    "duration": 0.17178199999999988
                },
                {
                    "name": "A3",
                    "midi": 57,
                    "time": 1.374256,
                    "velocity": 0.25196850393700787,
                    "duration": 0.17178199999999988
                },
                {
                    "name": "E4",
                    "midi": 64,
                    "time": 1.5460379999999998,
                    "velocity": 0.2440944881889764,
                    "duration": 0.17178199999999988
                },
                {
                    "name": "G#3",
                    "midi": 56,
                    "time": 1.7178199999999997,
                    "velocity": 0.2992125984251969,
                    "duration": 0.17178199999999988
                },
                {
                    "name": "E4",
                    "midi": 64,
                    "time": 1.8896019999999996,
                    "velocity": 0.25196850393700787,
                    "duration": 0.17178199999999988
                },
                {
                    "name": "A3",
                    "midi": 57,
                    "time": 2.0613839999999994,
                    "velocity": 0.31496062992125984,
                    "duration": 0.17178199999999988
                },
                {
                    "name": "E4",
                    "midi": 64,
                    "time": 2.2331659999999993,
                    "velocity": 0.25984251968503935,
                    "duration": 0.17178199999999988
                },
                {
                    "name": "B3",
                    "midi": 59,
                    "time": 2.404947999999999,
                    "velocity": 0.2992125984251969,
                    "duration": 0.17178199999999988
                },
                {
                    "name": "E4",
                    "midi": 64,
                    "time": 2.576729999999999,
                    "velocity": 0.2440944881889764,
                    "duration": 0.17178199999999988
                },
                {
                    "name": "C4",
                    "midi": 60,
                    "time": 2.748511999999999,
                    "velocity": 0.30708661417322836,
                    "duration": 0.17178199999999988
                },
                {
                    "name": "E4",
                    "midi": 64,
                    "time": 2.920293999999999,
                    "velocity": 0.33070866141732286,
                    "duration": 0.17178199999999988
                },
                {
                    "name": "D3",
                    "midi": 50,
                    "time": 3.0920759999999987,
                    "velocity": 0.3700787401574803,
                    "duration": 0.17178199999999988
                },
                {
                    "name": "D4",
                    "midi": 62,
                    "time": 3.2638579999999986,
                    "velocity": 0.36220472440944884,
                    "duration": 0.17178199999999988
                },
                {
                    "name": "F3",
                    "midi": 53,
                    "time": 3.4356399999999985,
                    "velocity": 0.3700787401574803,
                    "duration": 0.17178199999999988
                },
                {
                    "name": "D4",
                    "midi": 62,
                    "time": 3.6074219999999984,
                    "velocity": 0.31496062992125984,
                    "duration": 0.17178199999999988
                },
                {
                    "name": "G#3",
                    "midi": 56,
                    "time": 3.7792039999999982,
                    "velocity": 0.2440944881889764,
                    "duration": 0.17178199999999988
                },
                {
                    "name": "D4",
                    "midi": 62,
                    "time": 3.950985999999998,
                    "velocity": 0.2047244094488189,
                    "duration": 0.17178199999999988
                },
                {
                    "name": "C3",
                    "midi": 48,
                    "time": 4.122767999999998,
                    "velocity": 0.25984251968503935,
                    "duration": 0.17178200000000032
                },
                {
                    "name": "D4",
                    "midi": 62,
                    "time": 4.294549999999998,
                    "velocity": 0.1889763779527559,
                    "duration": 0.17178200000000032
                },
                {
                    "name": "G#3",
                    "midi": 56,
                    "time": 4.466331999999999,
                    "velocity": 0.2204724409448819,
                    "duration": 0.17178200000000032
                },
                {
                    "name": "D4",
                    "midi": 62,
                    "time": 4.638113999999999,
                    "velocity": 0.18110236220472442,
                    "duration": 0.17178200000000032
                },
                {
                    "name": "A3",
                    "midi": 57,
                    "time": 4.809895999999999,
                    "velocity": 0.2125984251968504,
                    "duration": 0.17178200000000032
                },
                {
                    "name": "B3",
                    "midi": 59,
                    "time": 4.981678,
                    "velocity": 0.2047244094488189,
                    "duration": 0.17178200000000032
                },
                {
                    "name": "C4",
                    "midi": 60,
                    "time": 5.15346,
                    "velocity": 0.1968503937007874,
                    "duration": 0.17178200000000032
                },
                {
                    "name": "E4",
                    "midi": 64,
                    "time": 5.325242,
                    "velocity": 0.15748031496062992,
                    "duration": 0.17178200000000032
                },
                {
                    "name": "C4",
                    "midi": 60,
                    "time": 5.497024000000001,
                    "velocity": 0.1889763779527559,
                    "duration": 0.17178200000000032
                },
                {
                    "name": "E4",
                    "midi": 64,
                    "time": 5.668806000000001,
                    "velocity": 0.16535433070866143,
                    "duration": 0.17178200000000032
                },
                {
                    "name": "B3",
                    "midi": 59,
                    "time": 5.840588000000001,
                    "velocity": 0.1732283464566929,
                    "duration": 0.17178200000000032
                },
                {
                    "name": "E4",
                    "midi": 64,
                    "time": 6.0123700000000015,
                    "velocity": 0.16535433070866143,
                    "duration": 0.17178200000000032
                },
                {
                    "name": "A3",
                    "midi": 57,
                    "time": 6.184152000000002,
                    "velocity": 0.1889763779527559,
                    "duration": 0.17178200000000032
                },
                {
                    "name": "E4",
                    "midi": 64,
                    "time": 6.355934000000002,
                    "velocity": 0.16535433070866143,
                    "duration": 0.17178200000000032
                },
                {
                    "name": "A3",
                    "midi": 57,
                    "time": 6.5277160000000025,
                    "velocity": 0.18110236220472442,
                    "duration": 0.17178200000000032
                },
                {
                    "name": "E4",
                    "midi": 64,
                    "time": 6.699498000000003,
                    "velocity": 0.1732283464566929,
                    "duration": 0.17178200000000032
                },
                {
                    "name": "G#3",
                    "midi": 56,
                    "time": 6.871280000000003,
                    "velocity": 0.1889763779527559,
                    "duration": 0.17178200000000032
                },
                {
                    "name": "E4",
                    "midi": 64,
                    "time": 7.0430620000000035,
                    "velocity": 0.1732283464566929,
                    "duration": 0.17178200000000032
                },
                {
                    "name": "E3",
                    "midi": 52,
                    "time": 7.214844000000004,
                    "velocity": 0.31496062992125984,
                    "duration": 0.17178200000000032
                },
                {
                    "name": "E4",
                    "midi": 64,
                    "time": 7.386626000000004,
                    "velocity": 0.25196850393700787,
                    "duration": 0.17178200000000032
                },
                {
                    "name": "A3",
                    "midi": 57,
                    "time": 7.5584080000000045,
                    "velocity": 0.29133858267716534,
                    "duration": 0.17178200000000032
                },
                {
                    "name": "E4",
                    "midi": 64,
                    "time": 7.730190000000005,
                    "velocity": 0.2440944881889764,
                    "duration": 0.17178200000000032
                },
                {
                    "name": "D#3",
                    "midi": 51,
                    "time": 7.901972000000005,
                    "velocity": 0.29133858267716534,
                    "duration": 0.17178199999999944
                },
                {
                    "name": "F#4",
                    "midi": 66,
                    "time": 8.073754000000005,
                    "velocity": 0.2440944881889764,
                    "duration": 0.17178200000000032
                },
                {
                    "name": "E3",
                    "midi": 52,
                    "time": 8.245536000000005,
                    "velocity": 0.31496062992125984,
                    "duration": 0.17178200000000032
                },
                {
                    "name": "F4",
                    "midi": 65,
                    "time": 8.417318000000005,
                    "velocity": 0.33070866141732286,
                    "duration": 0.17178200000000032
                },
                {
                    "name": "E4",
                    "midi": 64,
                    "time": 8.589100000000006,
                    "velocity": 0.30708661417322836,
                    "duration": 0.17178200000000032
                },
                {
                    "name": "D4",
                    "midi": 62,
                    "time": 8.760882000000006,
                    "velocity": 0.29133858267716534,
                    "duration": 0.17178200000000032
                },
                {
                    "name": "C4",
                    "midi": 60,
                    "time": 8.932664000000006,
                    "velocity": 0.31496062992125984,
                    "duration": 0.17178200000000032
                },
                {
                    "name": "E4",
                    "midi": 64,
                    "time": 9.104446000000006,
                    "velocity": 0.25196850393700787,
                    "duration": 0.17178200000000032
                },
                {
                    "name": "B3",
                    "midi": 59,
                    "time": 9.276228000000007,
                    "velocity": 0.31496062992125984,
                    "duration": 0.17178200000000032
                },
                {
                    "name": "E4",
                    "midi": 64,
                    "time": 9.448010000000007,
                    "velocity": 0.2283464566929134,
                    "duration": 0.17178200000000032
                },
                {
                    "name": "A3",
                    "midi": 57,
                    "time": 9.619792000000007,
                    "velocity": 0.25196850393700787,
                    "duration": 0.17178200000000032
                },
                {
                    "name": "E4",
                    "midi": 64,
                    "time": 9.791574000000008,
                    "velocity": 0.2440944881889764,
                    "duration": 0.17178200000000032
                },
                {
                    "name": "G#3",
                    "midi": 56,
                    "time": 9.963356000000008,
                    "velocity": 0.2992125984251969,
                    "duration": 0.17178200000000032
                },
                {
                    "name": "E4",
                    "midi": 64,
                    "time": 10.135138000000008,
                    "velocity": 0.25196850393700787,
                    "duration": 0.17178200000000032
                },
                {
                    "name": "A3",
                    "midi": 57,
                    "time": 10.306920000000009,
                    "velocity": 0.31496062992125984,
                    "duration": 0.17178200000000032
                },
                {
                    "name": "E4",
                    "midi": 64,
                    "time": 10.478702000000009,
                    "velocity": 0.25984251968503935,
                    "duration": 0.17178200000000032
                },
                {
                    "name": "B3",
                    "midi": 59,
                    "time": 10.65048400000001,
                    "velocity": 0.2992125984251969,
                    "duration": 0.17178200000000032
                },
                {
                    "name": "E4",
                    "midi": 64,
                    "time": 10.82226600000001,
                    "velocity": 0.2440944881889764,
                    "duration": 0.17178200000000032
                },
                {
                    "name": "C4",
                    "midi": 60,
                    "time": 10.99404800000001,
                    "velocity": 0.30708661417322836,
                    "duration": 0.17178200000000032
                },
                {
                    "name": "E4",
                    "midi": 64,
                    "time": 11.16583000000001,
                    "velocity": 0.33070866141732286,
                    "duration": 0.17178200000000032
                },
                {
                    "name": "D3",
                    "midi": 50,
                    "time": 11.33761200000001,
                    "velocity": 0.3700787401574803,
                    "duration": 0.17178200000000032
                },
                {
                    "name": "D4",
                    "midi": 62,
                    "time": 11.509394000000011,
                    "velocity": 0.36220472440944884,
                    "duration": 0.17178200000000032
                },
                {
                    "name": "F3",
                    "midi": 53,
                    "time": 11.681176000000011,
                    "velocity": 0.3700787401574803,
                    "duration": 0.17178200000000032
                },
                {
                    "name": "D4",
                    "midi": 62,
                    "time": 11.852958000000012,
                    "velocity": 0.31496062992125984,
                    "duration": 0.17178200000000032
                },
                {
                    "name": "G#3",
                    "midi": 56,
                    "time": 12.024740000000012,
                    "velocity": 0.2440944881889764,
                    "duration": 0.17178200000000032
                },
                {
                    "name": "D4",
                    "midi": 62,
                    "time": 12.196522000000012,
                    "velocity": 0.2047244094488189,
                    "duration": 0.17178200000000032
                },
                {
                    "name": "C3",
                    "midi": 48,
                    "time": 12.368304000000013,
                    "velocity": 0.25984251968503935,
                    "duration": 0.17178200000000032
                },
                {
                    "name": "D4",
                    "midi": 62,
                    "time": 12.540086000000013,
                    "velocity": 0.1889763779527559,
                    "duration": 0.17178200000000032
                },
                {
                    "name": "G#3",
                    "midi": 56,
                    "time": 12.711868000000013,
                    "velocity": 0.2204724409448819,
                    "duration": 0.17178200000000032
                },
                {
                    "name": "D4",
                    "midi": 62,
                    "time": 12.883650000000014,
                    "velocity": 0.18110236220472442,
                    "duration": 0.17178200000000032
                },
                {
                    "name": "A3",
                    "midi": 57,
                    "time": 13.055432000000014,
                    "velocity": 0.2125984251968504,
                    "duration": 0.17178200000000032
                },
                {
                    "name": "B3",
                    "midi": 59,
                    "time": 13.227214000000014,
                    "velocity": 0.2047244094488189,
                    "duration": 0.17178200000000032
                },
                {
                    "name": "C4",
                    "midi": 60,
                    "time": 13.398996000000015,
                    "velocity": 0.33070866141732286,
                    "duration": 0.17178200000000032
                },
                {
                    "name": "E4",
                    "midi": 64,
                    "time": 13.570778000000015,
                    "velocity": 0.25984251968503935,
                    "duration": 0.17178200000000032
                },
                {
                    "name": "C4",
                    "midi": 60,
                    "time": 13.742560000000015,
                    "velocity": 0.30708661417322836,
                    "duration": 0.17178200000000032
                },
                {
                    "name": "E4",
                    "midi": 64,
                    "time": 13.914342000000016,
                    "velocity": 0.25984251968503935,
                    "duration": 0.17178200000000032
                },
                {
                    "name": "B3",
                    "midi": 59,
                    "time": 14.086124000000016,
                    "velocity": 0.2992125984251969,
                    "duration": 0.17178200000000032
                },
                {
                    "name": "E4",
                    "midi": 64,
                    "time": 14.257906000000016,
                    "velocity": 0.33070866141732286,
                    "duration": 0.17178200000000032
                },
                {
                    "name": "A3",
                    "midi": 57,
                    "time": 14.429688000000017,
                    "velocity": 0.41732283464566927,
                    "duration": 0.17178200000000032
                },
                {
                    "name": "E4",
                    "midi": 64,
                    "time": 14.601470000000017,
                    "velocity": 0.3228346456692913,
                    "duration": 0.17178200000000032
                },
                {
                    "name": "A3",
                    "midi": 57,
                    "time": 14.773252000000017,
                    "velocity": 0.23622047244094488,
                    "duration": 0.17178200000000032
                },
                {
                    "name": "E4",
                    "midi": 64,
                    "time": 14.945034000000017,
                    "velocity": 0.1889763779527559,
                    "duration": 0.17178200000000032
                },
                {
                    "name": "B3",
                    "midi": 59,
                    "time": 15.116816000000018,
                    "velocity": 0.2204724409448819,
                    "duration": 0.17178200000000032
                },
                {
                    "name": "E4",
                    "midi": 64,
                    "time": 15.288598000000018,
                    "velocity": 0.2047244094488189,
                    "duration": 0.17178200000000032
                },
                {
                    "name": "C4",
                    "midi": 60,
                    "time": 15.460380000000018,
                    "velocity": 0.33070866141732286,
                    "duration": 0.17178200000000032
                },
                {
                    "name": "E4",
                    "midi": 64,
                    "time": 15.632162000000019,
                    "velocity": 0.25984251968503935,
                    "duration": 0.17178200000000032
                },
                {
                    "name": "C4",
                    "midi": 60,
                    "time": 15.803944000000019,
                    "velocity": 0.30708661417322836,
                    "duration": 0.17178200000000032
                },
                {
                    "name": "E4",
                    "midi": 64,
                    "time": 15.97572600000002,
                    "velocity": 0.25984251968503935,
                    "duration": 0.17178200000000032
                },
                {
                    "name": "B3",
                    "midi": 59,
                    "time": 16.14750800000002,
                    "velocity": 0.2992125984251969,
                    "duration": 0.17178200000000032
                },
                {
                    "name": "E4",
                    "midi": 64,
                    "time": 16.31929000000002,
                    "velocity": 0.33070866141732286,
                    "duration": 0.17178200000000032
                },
                {
                    "name": "A3",
                    "midi": 57,
                    "time": 16.49107200000002,
                    "velocity": 0.41732283464566927,
                    "duration": 0.17178200000000032
                },
                {
                    "name": "E4",
                    "midi": 64,
                    "time": 16.66285400000002,
                    "velocity": 0.25984251968503935,
                    "duration": 0.17178200000000032
                },
                {
                    "name": "A3",
                    "midi": 57,
                    "time": 16.83463600000002,
                    "velocity": 0.2440944881889764,
                    "duration": 0.17178200000000032
                },
                {
                    "name": "E4",
                    "midi": 64,
                    "time": 17.00641800000002,
                    "velocity": 0.2204724409448819,
                    "duration": 0.17178200000000032
                },
                {
                    "name": "B3",
                    "midi": 59,
                    "time": 17.17820000000002,
                    "velocity": 0.25984251968503935,
                    "duration": 0.17178200000000032
                },
                {
                    "name": "E4",
                    "midi": 64,
                    "time": 17.349982000000022,
                    "velocity": 0.2047244094488189,
                    "duration": 0.17178200000000032
                },
                {
                    "name": "C4",
                    "midi": 60,
                    "time": 17.521764000000022,
                    "velocity": 0.4409448818897638,
                    "duration": 0.6871280000000013
                },
                {
                    "name": "G#3",
                    "midi": 56,
                    "time": 18.208892000000024,
                    "velocity": 0.3937007874015748,
                    "duration": 0.34356400000000065
                },
                {
                    "name": "A3",
                    "midi": 57,
                    "time": 18.552456000000024,
                    "velocity": 0.4409448818897638,
                    "duration": 0.34356400000000065
                },
                {
                    "name": "B3",
                    "midi": 59,
                    "time": 18.896020000000025,
                    "velocity": 0.3858267716535433,
                    "duration": 0.34356400000000065
                },
                {
                    "name": "C#4",
                    "midi": 61,
                    "time": 19.239584000000026,
                    "velocity": 0.4330708661417323,
                    "duration": 0.34356400000000065
                },
                {
                    "name": "D#3",
                    "midi": 51,
                    "time": 19.583148000000026,
                    "velocity": 0.4881889763779528,
                    "duration": 0.17178200000000032
                },
                {
                    "name": "C4",
                    "midi": 60,
                    "time": 19.754930000000027,
                    "velocity": 0.3543307086614173,
                    "duration": 0.17178200000000032
                },
                {
                    "name": "F#4",
                    "midi": 66,
                    "time": 19.926712000000027,
                    "velocity": 0.4251968503937008,
                    "duration": 0.17178200000000032
                },
                {
                    "name": "C4",
                    "midi": 60,
                    "time": 20.098494000000027,
                    "velocity": 0.33070866141732286,
                    "duration": 0.17178200000000032
                },
                {
                    "name": "D#3",
                    "midi": 51,
                    "time": 20.270276000000027,
                    "velocity": 0.4251968503937008,
                    "duration": 0.17178200000000032
                },
                {
                    "name": "C4",
                    "midi": 60,
                    "time": 20.442058000000028,
                    "velocity": 0.3228346456692913,
                    "duration": 0.17178200000000032
                },
                {
                    "name": "D#3",
                    "midi": 51,
                    "time": 20.613840000000028,
                    "velocity": 0.4881889763779528,
                    "duration": 0.17178200000000032
                },
                {
                    "name": "C4",
                    "midi": 60,
                    "time": 20.78562200000003,
                    "velocity": 0.3543307086614173,
                    "duration": 0.17178200000000032
                },
                {
                    "name": "F#4",
                    "midi": 66,
                    "time": 20.95740400000003,
                    "velocity": 0.4251968503937008,
                    "duration": 0.17178200000000032
                },
                {
                    "name": "C4",
                    "midi": 60,
                    "time": 21.12918600000003,
                    "velocity": 0.33070866141732286,
                    "duration": 0.17178200000000032
                },
                {
                    "name": "D#3",
                    "midi": 51,
                    "time": 21.30096800000003,
                    "velocity": 0.4251968503937008,
                    "duration": 0.17178200000000032
                },
                {
                    "name": "C4",
                    "midi": 60,
                    "time": 21.47275000000003,
                    "velocity": 0.3228346456692913,
                    "duration": 0.17178200000000032
                },
                {
                    "name": "E3",
                    "midi": 52,
                    "time": 21.64453200000003,
                    "velocity": 0.4409448818897638,
                    "duration": 0.34356400000000065
                },
                {
                    "name": "B2",
                    "midi": 47,
                    "time": 21.98809600000003,
                    "velocity": 0.4409448818897638,
                    "duration": 0.34356400000000065
                },
                {
                    "name": "A2",
                    "midi": 45,
                    "time": 22.33166000000003,
                    "velocity": 0.48031496062992124,
                    "duration": 0.34356400000000065
                },
                {
                    "name": "G2",
                    "midi": 43,
                    "time": 22.675224000000032,
                    "velocity": 0.5433070866141733,
                    "duration": 0.17178200000000032
                },
                {
                    "name": "B3",
                    "midi": 59,
                    "time": 22.847006000000032,
                    "velocity": 0.3543307086614173,
                    "duration": 0.17178200000000032
                },
                {
                    "name": "G3",
                    "midi": 55,
                    "time": 23.018788000000033,
                    "velocity": 0.25984251968503935,
                    "duration": 0.17178200000000032
                },
                {
                    "name": "B3",
                    "midi": 59,
                    "time": 23.190570000000033,
                    "velocity": 0.23622047244094488,
                    "duration": 0.17178200000000032
                },
                {
                    "name": "A3",
                    "midi": 57,
                    "time": 23.362352000000033,
                    "velocity": 0.29133858267716534,
                    "duration": 0.17178200000000032
                },
                {
                    "name": "C4",
                    "midi": 60,
                    "time": 23.534134000000034,
                    "velocity": 0.2283464566929134,
                    "duration": 0.17178200000000032
                },
                {
                    "name": "B3",
                    "midi": 59,
                    "time": 23.705916000000034,
                    "velocity": 0.36220472440944884,
                    "duration": 0.17178200000000032
                },
                {
                    "name": "E4",
                    "midi": 64,
                    "time": 23.877698000000034,
                    "velocity": 0.23622047244094488,
                    "duration": 0.17178200000000032
                },
                {
                    "name": "G4",
                    "midi": 67,
                    "time": 24.049480000000035,
                    "velocity": 0.2755905511811024,
                    "duration": 0.17178200000000032
                },
                {
                    "name": "B4",
                    "midi": 71,
                    "time": 24.221262000000035,
                    "velocity": 0.2440944881889764,
                    "duration": 0.17178200000000032
                },
                {
                    "name": "G4",
                    "midi": 67,
                    "time": 24.393044000000035,
                    "velocity": 0.2677165354330709,
                    "duration": 0.17178200000000032
                },
                {
                    "name": "E4",
                    "midi": 64,
                    "time": 24.564826000000036,
                    "velocity": 0.2677165354330709,
                    "duration": 0.17178200000000032
                },
                {
                    "name": "B3",
                    "midi": 59,
                    "time": 24.736608000000036,
                    "velocity": 0.3543307086614173,
                    "duration": 1.030692000000002
                },
                {
                    "name": "E4",
                    "midi": 64,
                    "time": 24.908390000000036,
                    "velocity": 0.2125984251968504,
                    "duration": 0.17178200000000032
                },
                {
                    "name": "G4",
                    "midi": 67,
                    "time": 25.080172000000037,
                    "velocity": 0.2677165354330709,
                    "duration": 0.17178200000000032
                },
                {
                    "name": "F4",
                    "midi": 65,
                    "time": 25.251954000000037,
                    "velocity": 0.2125984251968504,
                    "duration": 0.17178200000000032
                },
                {
                    "name": "G4",
                    "midi": 67,
                    "time": 25.423736000000037,
                    "velocity": 0.2677165354330709,
                    "duration": 0.17178200000000032
                },
                {
                    "name": "F4",
                    "midi": 65,
                    "time": 25.595518000000038,
                    "velocity": 0.2204724409448819,
                    "duration": 0.17178200000000032
                },
                {
                    "name": "C4",
                    "midi": 60,
                    "time": 25.767300000000038,
                    "velocity": 0.3937007874015748,
                    "duration": 1.0306919999999984
                },
                {
                    "name": "C3",
                    "midi": 48,
                    "time": 26.797992000000036,
                    "velocity": 0.3937007874015748,
                    "duration": 0.34356400000000065
                },
                {
                    "name": "B2",
                    "midi": 47,
                    "time": 27.141556000000037,
                    "velocity": 0.3464566929133858,
                    "duration": 0.34356400000000065
                },
                {
                    "name": "A2",
                    "midi": 45,
                    "time": 27.485120000000038,
                    "velocity": 0.3858267716535433,
                    "duration": 0.34356400000000065
                },
                {
                    "name": "B2",
                    "midi": 47,
                    "time": 27.828684000000038,
                    "velocity": 0.3937007874015748,
                    "duration": 2.061384000000004
                },
                {
                    "name": "B3",
                    "midi": 59,
                    "time": 28.00046600000004,
                    "velocity": 0.2283464566929134,
                    "duration": 0.17178200000000032
                },
                {
                    "name": "G3",
                    "midi": 55,
                    "time": 28.17224800000004,
                    "velocity": 0.2755905511811024,
                    "duration": 0.17178200000000032
                },
                {
                    "name": "B3",
                    "midi": 59,
                    "time": 28.34403000000004,
                    "velocity": 0.2283464566929134,
                    "duration": 0.17178200000000032
                },
                {
                    "name": "G3",
                    "midi": 55,
                    "time": 28.51581200000004,
                    "velocity": 0.2755905511811024,
                    "duration": 0.17178200000000032
                },
                {
                    "name": "B3",
                    "midi": 59,
                    "time": 28.68759400000004,
                    "velocity": 0.31496062992125984,
                    "duration": 0.17178200000000032
                },
                {
                    "name": "G3",
                    "midi": 55,
                    "time": 28.85937600000004,
                    "velocity": 0.3700787401574803,
                    "duration": 0.17178200000000032
                },
                {
                    "name": "B3",
                    "midi": 59,
                    "time": 29.03115800000004,
                    "velocity": 0.2677165354330709,
                    "duration": 0.17178200000000032
                },
                {
                    "name": "E4",
                    "midi": 64,
                    "time": 29.20294000000004,
                    "velocity": 0.29133858267716534,
                    "duration": 0.17178200000000032
                },
                {
                    "name": "B3",
                    "midi": 59,
                    "time": 29.37472200000004,
                    "velocity": 0.2283464566929134,
                    "duration": 0.17178200000000032
                },
                {
                    "name": "D#3",
                    "midi": 51,
                    "time": 29.54650400000004,
                    "velocity": 0.2755905511811024,
                    "duration": 0.34356400000000065
                },
                {
                    "name": "B3",
                    "midi": 59,
                    "time": 29.71828600000004,
                    "velocity": 0.2283464566929134,
                    "duration": 0.17178200000000032
                },
                {
                    "name": "E2",
                    "midi": 40,
                    "time": 29.890068000000042,
                    "velocity": 0.3543307086614173,
                    "duration": 1.030692000000002
                },
                {
                    "name": "G#3",
                    "midi": 56,
                    "time": 29.890068000000042,
                    "velocity": 0.2755905511811024,
                    "duration": 0.17178200000000032
                },
                {
                    "name": "B3",
                    "midi": 59,
                    "time": 30.061850000000042,
                    "velocity": 0.2283464566929134,
                    "duration": 0.17178200000000032
                },
                {
                    "name": "G#3",
                    "midi": 56,
                    "time": 30.233632000000043,
                    "velocity": 0.25196850393700787,
                    "duration": 0.17178200000000032
                },
                {
                    "name": "E3",
                    "midi": 52,
                    "time": 30.405414000000043,
                    "velocity": 0.2283464566929134,
                    "duration": 0.17178200000000032
                },
                {
                    "name": "D#3",
                    "midi": 51,
                    "time": 30.577196000000043,
                    "velocity": 0.2677165354330709,
                    "duration": 0.17178200000000032
                },
                {
                    "name": "E3",
                    "midi": 52,
                    "time": 30.748978000000044,
                    "velocity": 0.2283464566929134,
                    "duration": 0.17178200000000032
                },
                {
                    "name": "B2",
                    "midi": 47,
                    "time": 30.920760000000044,
                    "velocity": 0.3543307086614173,
                    "duration": 1.030692000000002
                },
                {
                    "name": "G#3",
                    "midi": 56,
                    "time": 30.920760000000044,
                    "velocity": 0.2755905511811024,
                    "duration": 0.17178200000000032
                },
                {
                    "name": "B3",
                    "midi": 59,
                    "time": 31.092542000000044,
                    "velocity": 0.2283464566929134,
                    "duration": 0.17178200000000032
                },
                {
                    "name": "G#3",
                    "midi": 56,
                    "time": 31.264324000000045,
                    "velocity": 0.25196850393700787,
                    "duration": 0.17178200000000032
                },
                {
                    "name": "E3",
                    "midi": 52,
                    "time": 31.436106000000045,
                    "velocity": 0.2283464566929134,
                    "duration": 0.17178200000000032
                },
                {
                    "name": "D#3",
                    "midi": 51,
                    "time": 31.607888000000045,
                    "velocity": 0.2677165354330709,
                    "duration": 0.17178200000000032
                },
                {
                    "name": "E3",
                    "midi": 52,
                    "time": 31.779670000000046,
                    "velocity": 0.2283464566929134,
                    "duration": 0.17178200000000032
                },
                {
                    "name": "A2",
                    "midi": 45,
                    "time": 31.951452000000046,
                    "velocity": 0.3543307086614173,
                    "duration": 1.030692000000002
                },
                {
                    "name": "A3",
                    "midi": 57,
                    "time": 31.951452000000046,
                    "velocity": 0.2755905511811024,
                    "duration": 0.17178200000000032
                },
                {
                    "name": "C4",
                    "midi": 60,
                    "time": 32.123234000000046,
                    "velocity": 0.2283464566929134,
                    "duration": 0.17178200000000032
                },
                {
                    "name": "A3",
                    "midi": 57,
                    "time": 32.29501600000005,
                    "velocity": 0.25196850393700787,
                    "duration": 0.17178200000000032
                },
                {
                    "name": "E3",
                    "midi": 52,
                    "time": 32.46679800000005,
                    "velocity": 0.2283464566929134,
                    "duration": 0.17178200000000032
                },
                {
                    "name": "D#3",
                    "midi": 51,
                    "time": 32.63858000000005,
                    "velocity": 0.2755905511811024,
                    "duration": 0.17178200000000032
                },
                {
                    "name": "E3",
                    "midi": 52,
                    "time": 32.81036200000005,
                    "velocity": 0.23622047244094488,
                    "duration": 0.17178200000000032
                },
                {
                    "name": "A2",
                    "midi": 45,
                    "time": 32.98214400000005,
                    "velocity": 0.3779527559055118,
                    "duration": 1.030692000000002
                },
                {
                    "name": "A3",
                    "midi": 57,
                    "time": 32.98214400000005,
                    "velocity": 0.29133858267716534,
                    "duration": 0.17178200000000032
                },
                {
                    "name": "C4",
                    "midi": 60,
                    "time": 33.15392600000005,
                    "velocity": 0.2440944881889764,
                    "duration": 0.17178200000000032
                },
                {
                    "name": "A3",
                    "midi": 57,
                    "time": 33.32570800000005,
                    "velocity": 0.2755905511811024,
                    "duration": 0.17178200000000032
                },
                {
                    "name": "E3",
                    "midi": 52,
                    "time": 33.49749000000005,
                    "velocity": 0.25196850393700787,
                    "duration": 0.17178200000000032
                },
                {
                    "name": "D#3",
                    "midi": 51,
                    "time": 33.66927200000005,
                    "velocity": 0.2992125984251969,
                    "duration": 0.17178200000000032
                },
                {
                    "name": "E3",
                    "midi": 52,
                    "time": 33.84105400000005,
                    "velocity": 0.25196850393700787,
                    "duration": 0.17178200000000032
                },
                {
                    "name": "E2",
                    "midi": 40,
                    "time": 34.01283600000005,
                    "velocity": 0.4015748031496063,
                    "duration": 1.030692000000002
                },
                {
                    "name": "B3",
                    "midi": 59,
                    "time": 34.01283600000005,
                    "velocity": 0.31496062992125984,
                    "duration": 0.17178200000000032
                },
                {
                    "name": "D4",
                    "midi": 62,
                    "time": 34.18461800000005,
                    "velocity": 0.25984251968503935,
                    "duration": 0.17178200000000032
                },
                {
                    "name": "B3",
                    "midi": 59,
                    "time": 34.35640000000005,
                    "velocity": 0.28346456692913385,
                    "duration": 0.17178200000000032
                },
                {
                    "name": "E3",
                    "midi": 52,
                    "time": 34.52818200000005,
                    "velocity": 0.25984251968503935,
                    "duration": 0.17178200000000032
                },
                {
                    "name": "D#3",
                    "midi": 51,
                    "time": 34.69996400000005,
                    "velocity": 0.30708661417322836,
                    "duration": 0.17178200000000032
                },
                {
                    "name": "E3",
                    "midi": 52,
                    "time": 34.87174600000005,
                    "velocity": 0.25984251968503935,
                    "duration": 0.17178200000000032
                },
                {
                    "name": "B2",
                    "midi": 47,
                    "time": 35.04352800000005,
                    "velocity": 0.4251968503937008,
                    "duration": 1.030692000000002
                },
                {
                    "name": "B3",
                    "midi": 59,
                    "time": 35.04352800000005,
                    "velocity": 0.33070866141732286,
                    "duration": 0.17178200000000032
                },
                {
                    "name": "D4",
                    "midi": 62,
                    "time": 35.21531000000005,
                    "velocity": 0.2677165354330709,
                    "duration": 0.17178200000000032
                },
                {
                    "name": "B3",
                    "midi": 59,
                    "time": 35.38709200000005,
                    "velocity": 0.2992125984251969,
                    "duration": 0.17178200000000032
                },
                {
                    "name": "E3",
                    "midi": 52,
                    "time": 35.55887400000005,
                    "velocity": 0.2755905511811024,
                    "duration": 0.17178200000000032
                },
                {
                    "name": "D#3",
                    "midi": 51,
                    "time": 35.73065600000005,
                    "velocity": 0.3228346456692913,
                    "duration": 0.17178200000000032
                },
                {
                    "name": "E3",
                    "midi": 52,
                    "time": 35.90243800000005,
                    "velocity": 0.2755905511811024,
                    "duration": 0.17178200000000032
                },
                {
                    "name": "E2",
                    "midi": 40,
                    "time": 36.074220000000054,
                    "velocity": 0.4409448818897638,
                    "duration": 1.030692000000002
                },
                {
                    "name": "C4",
                    "midi": 60,
                    "time": 36.074220000000054,
                    "velocity": 0.33858267716535434,
                    "duration": 0.17178200000000032
                },
                {
                    "name": "E4",
                    "midi": 64,
                    "time": 36.246002000000054,
                    "velocity": 0.28346456692913385,
                    "duration": 0.17178200000000032
                },
                {
                    "name": "C4",
                    "midi": 60,
                    "time": 36.417784000000054,
                    "velocity": 0.31496062992125984,
                    "duration": 0.17178200000000032
                },
                {
                    "name": "E3",
                    "midi": 52,
                    "time": 36.589566000000055,
                    "velocity": 0.28346456692913385,
                    "duration": 0.17178200000000032
                },
                {
                    "name": "D#3",
                    "midi": 51,
                    "time": 36.761348000000055,
                    "velocity": 0.33858267716535434,
                    "duration": 0.17178200000000032
                },
                {
                    "name": "E3",
                    "midi": 52,
                    "time": 36.933130000000055,
                    "velocity": 0.29133858267716534,
                    "duration": 0.17178200000000032
                },
                {
                    "name": "C3",
                    "midi": 48,
                    "time": 37.104912000000056,
                    "velocity": 0.4566929133858268,
                    "duration": 1.030692000000002
                },
                {
                    "name": "C4",
                    "midi": 60,
                    "time": 37.104912000000056,
                    "velocity": 0.3543307086614173,
                    "duration": 0.17178200000000032
                },
                {
                    "name": "E4",
                    "midi": 64,
                    "time": 37.276694000000056,
                    "velocity": 0.29133858267716534,
                    "duration": 0.17178200000000032
                },
                {
                    "name": "C4",
                    "midi": 60,
                    "time": 37.448476000000056,
                    "velocity": 0.3228346456692913,
                    "duration": 0.17178200000000032
                },
                {
                    "name": "E3",
                    "midi": 52,
                    "time": 37.62025800000006,
                    "velocity": 0.2992125984251969,
                    "duration": 0.17178200000000032
                },
                {
                    "name": "D#3",
                    "midi": 51,
                    "time": 37.79204000000006,
                    "velocity": 0.3543307086614173,
                    "duration": 0.17178200000000032
                },
                {
                    "name": "E3",
                    "midi": 52,
                    "time": 37.96382200000006,
                    "velocity": 0.2992125984251969,
                    "duration": 0.17178200000000032
                },
                {
                    "name": "E2",
                    "midi": 40,
                    "time": 38.13560400000006,
                    "velocity": 0.47244094488188976,
                    "duration": 1.030692000000002
                },
                {
                    "name": "D4",
                    "midi": 62,
                    "time": 38.13560400000006,
                    "velocity": 0.3700787401574803,
                    "duration": 0.17178200000000032
                },
                {
                    "name": "G#4",
                    "midi": 68,
                    "time": 38.30738600000006,
                    "velocity": 0.30708661417322836,
                    "duration": 0.17178200000000032
                },
                {
                    "name": "D4",
                    "midi": 62,
                    "time": 38.47916800000006,
                    "velocity": 0.33858267716535434,
                    "duration": 0.17178200000000032
                },
                {
                    "name": "E3",
                    "midi": 52,
                    "time": 38.65095000000006,
                    "velocity": 0.30708661417322836,
                    "duration": 0.17178200000000032
                },
                {
                    "name": "D#3",
                    "midi": 51,
                    "time": 38.82273200000006,
                    "velocity": 0.3543307086614173,
                    "duration": 0.17178200000000032
                },
                {
                    "name": "E3",
                    "midi": 52,
                    "time": 38.99451400000006,
                    "velocity": 0.30708661417322836,
                    "duration": 0.17178200000000032
                },
                {
                    "name": "B2",
                    "midi": 47,
                    "time": 39.16629600000006,
                    "velocity": 0.4566929133858268,
                    "duration": 1.030692000000002
                },
                {
                    "name": "D4",
                    "midi": 62,
                    "time": 39.16629600000006,
                    "velocity": 0.3543307086614173,
                    "duration": 0.17178200000000032
                },
                {
                    "name": "F4",
                    "midi": 65,
                    "time": 39.33807800000006,
                    "velocity": 0.29133858267716534,
                    "duration": 0.17178200000000032
                },
                {
                    "name": "D4",
                    "midi": 62,
                    "time": 39.50986000000006,
                    "velocity": 0.3228346456692913,
                    "duration": 0.17178200000000032
                },
                {
                    "name": "F3",
                    "midi": 53,
                    "time": 39.68164200000006,
                    "velocity": 0.2992125984251969,
                    "duration": 0.17178200000000032
                },
                {
                    "name": "E3",
                    "midi": 52,
                    "time": 39.85342400000006,
                    "velocity": 0.3543307086614173,
                    "duration": 0.17178200000000032
                },
                {
                    "name": "F3",
                    "midi": 53,
                    "time": 40.02520600000006,
                    "velocity": 0.2992125984251969,
                    "duration": 0.17178200000000032
                },
                {
                    "name": "E2",
                    "midi": 40,
                    "time": 40.19698800000006,
                    "velocity": 0.47244094488188976,
                    "duration": 1.030692000000002
                },
                {
                    "name": "D4",
                    "midi": 62,
                    "time": 40.19698800000006,
                    "velocity": 0.3700787401574803,
                    "duration": 0.17178200000000032
                },
                {
                    "name": "F4",
                    "midi": 65,
                    "time": 40.36877000000006,
                    "velocity": 0.30708661417322836,
                    "duration": 0.17178200000000032
                },
                {
                    "name": "D4",
                    "midi": 62,
                    "time": 40.54055200000006,
                    "velocity": 0.33858267716535434,
                    "duration": 0.17178200000000032
                },
                {
                    "name": "E3",
                    "midi": 52,
                    "time": 40.71233400000006,
                    "velocity": 0.30708661417322836,
                    "duration": 0.17178200000000032
                },
                {
                    "name": "D#3",
                    "midi": 51,
                    "time": 40.88411600000006,
                    "velocity": 0.3543307086614173,
                    "duration": 0.17178200000000032
                },
                {
                    "name": "E3",
                    "midi": 52,
                    "time": 41.05589800000006,
                    "velocity": 0.30708661417322836,
                    "duration": 0.17178200000000032
                },
                {
                    "name": "B3",
                    "midi": 59,
                    "time": 41.22768000000006,
                    "velocity": 0.31496062992125984,
                    "duration": 0.17178200000000032
                },
                {
                    "name": "F4",
                    "midi": 65,
                    "time": 41.399462000000064,
                    "velocity": 0.33070866141732286,
                    "duration": 0.17178200000000032
                },
                {
                    "name": "E4",
                    "midi": 64,
                    "time": 41.571244000000064,
                    "velocity": 0.30708661417322836,
                    "duration": 0.17178200000000032
                },
                {
                    "name": "D4",
                    "midi": 62,
                    "time": 41.743026000000064,
                    "velocity": 0.29133858267716534,
                    "duration": 0.17178200000000032
                },
                {
                    "name": "C4",
                    "midi": 60,
                    "time": 41.914808000000065,
                    "velocity": 0.31496062992125984,
                    "duration": 0.17178200000000032
                },
                {
                    "name": "E4",
                    "midi": 64,
                    "time": 42.086590000000065,
                    "velocity": 0.25196850393700787,
                    "duration": 0.17178200000000032
                },
                {
                    "name": "B3",
                    "midi": 59,
                    "time": 42.258372000000065,
                    "velocity": 0.31496062992125984,
                    "duration": 0.17178200000000032
                },
                {
                    "name": "E4",
                    "midi": 64,
                    "time": 42.430154000000066,
                    "velocity": 0.2283464566929134,
                    "duration": 0.17178200000000032
                },
                {
                    "name": "A3",
                    "midi": 57,
                    "time": 42.601936000000066,
                    "velocity": 0.25196850393700787,
                    "duration": 0.17178200000000032
                },
                {
                    "name": "E4",
                    "midi": 64,
                    "time": 42.773718000000066,
                    "velocity": 0.2440944881889764,
                    "duration": 0.17178200000000032
                },
                {
                    "name": "G#3",
                    "midi": 56,
                    "time": 42.94550000000007,
                    "velocity": 0.2992125984251969,
                    "duration": 0.17178200000000032
                },
                {
                    "name": "E4",
                    "midi": 64,
                    "time": 43.11728200000007,
                    "velocity": 0.25196850393700787,
                    "duration": 0.17178200000000032
                },
                {
                    "name": "A3",
                    "midi": 57,
                    "time": 43.28906400000007,
                    "velocity": 0.31496062992125984,
                    "duration": 0.17178200000000032
                },
                {
                    "name": "E4",
                    "midi": 64,
                    "time": 43.46084600000007,
                    "velocity": 0.25984251968503935,
                    "duration": 0.17178200000000032
                },
                {
                    "name": "B3",
                    "midi": 59,
                    "time": 43.63262800000007,
                    "velocity": 0.2992125984251969,
                    "duration": 0.17178200000000032
                },
                {
                    "name": "E4",
                    "midi": 64,
                    "time": 43.80441000000007,
                    "velocity": 0.2440944881889764,
                    "duration": 0.17178200000000032
                },
                {
                    "name": "C4",
                    "midi": 60,
                    "time": 43.97619200000007,
                    "velocity": 0.30708661417322836,
                    "duration": 0.17178200000000032
                },
                {
                    "name": "E4",
                    "midi": 64,
                    "time": 44.14797400000007,
                    "velocity": 0.33070866141732286,
                    "duration": 0.17178200000000032
                },
                {
                    "name": "D3",
                    "midi": 50,
                    "time": 44.31975600000007,
                    "velocity": 0.3700787401574803,
                    "duration": 0.17178200000000032
                },
                {
                    "name": "D4",
                    "midi": 62,
                    "time": 44.49153800000007,
                    "velocity": 0.36220472440944884,
                    "duration": 0.17178200000000032
                },
                {
                    "name": "F3",
                    "midi": 53,
                    "time": 44.66332000000007,
                    "velocity": 0.3700787401574803,
                    "duration": 0.17178200000000032
                },
                {
                    "name": "D4",
                    "midi": 62,
                    "time": 44.83510200000007,
                    "velocity": 0.31496062992125984,
                    "duration": 0.17178200000000032
                },
                {
                    "name": "G#3",
                    "midi": 56,
                    "time": 45.00688400000007,
                    "velocity": 0.2440944881889764,
                    "duration": 0.17178200000000032
                },
                {
                    "name": "D4",
                    "midi": 62,
                    "time": 45.17866600000007,
                    "velocity": 0.2047244094488189,
                    "duration": 0.17178200000000032
                },
                {
                    "name": "C3",
                    "midi": 48,
                    "time": 45.35044800000007,
                    "velocity": 0.25984251968503935,
                    "duration": 0.17178200000000032
                },
                {
                    "name": "D4",
                    "midi": 62,
                    "time": 45.52223000000007,
                    "velocity": 0.1889763779527559,
                    "duration": 0.17178200000000032
                },
                {
                    "name": "G#3",
                    "midi": 56,
                    "time": 45.69401200000007,
                    "velocity": 0.2204724409448819,
                    "duration": 0.17178200000000032
                },
                {
                    "name": "D4",
                    "midi": 62,
                    "time": 45.86579400000007,
                    "velocity": 0.18110236220472442,
                    "duration": 0.17178200000000032
                },
                {
                    "name": "A3",
                    "midi": 57,
                    "time": 46.03757600000007,
                    "velocity": 0.2125984251968504,
                    "duration": 0.17178200000000032
                },
                {
                    "name": "B3",
                    "midi": 59,
                    "time": 46.20935800000007,
                    "velocity": 0.2047244094488189,
                    "duration": 0.17178200000000032
                },
                {
                    "name": "C4",
                    "midi": 60,
                    "time": 46.38114000000007,
                    "velocity": 0.1968503937007874,
                    "duration": 0.17178200000000032
                },
                {
                    "name": "E4",
                    "midi": 64,
                    "time": 46.55292200000007,
                    "velocity": 0.15748031496062992,
                    "duration": 0.17178200000000032
                },
                {
                    "name": "D4",
                    "midi": 62,
                    "time": 46.724704000000074,
                    "velocity": 0.1889763779527559,
                    "duration": 0.17178200000000032
                },
                {
                    "name": "C4",
                    "midi": 60,
                    "time": 46.896486000000074,
                    "velocity": 0.16535433070866143,
                    "duration": 0.17178200000000032
                },
                {
                    "name": "B3",
                    "midi": 59,
                    "time": 47.068268000000074,
                    "velocity": 0.1732283464566929,
                    "duration": 0.17178200000000032
                },
                {
                    "name": "E4",
                    "midi": 64,
                    "time": 47.240050000000075,
                    "velocity": 0.16535433070866143,
                    "duration": 0.17178200000000032
                },
                {
                    "name": "A3",
                    "midi": 57,
                    "time": 47.411832000000075,
                    "velocity": 0.1889763779527559,
                    "duration": 0.17178200000000032
                },
                {
                    "name": "E4",
                    "midi": 64,
                    "time": 47.583614000000075,
                    "velocity": 0.16535433070866143,
                    "duration": 0.17178200000000032
                },
                {
                    "name": "A3",
                    "midi": 57,
                    "time": 47.755396000000076,
                    "velocity": 0.18110236220472442,
                    "duration": 0.17178200000000032
                },
                {
                    "name": "E4",
                    "midi": 64,
                    "time": 47.927178000000076,
                    "velocity": 0.1732283464566929,
                    "duration": 0.17178200000000032
                },
                {
                    "name": "G#3",
                    "midi": 56,
                    "time": 48.098960000000076,
                    "velocity": 0.1889763779527559,
                    "duration": 0.17178200000000032
                },
                {
                    "name": "E4",
                    "midi": 64,
                    "time": 48.27074200000008,
                    "velocity": 0.1732283464566929,
                    "duration": 0.17178200000000032
                },
                {
                    "name": "E3",
                    "midi": 52,
                    "time": 48.44252400000008,
                    "velocity": 0.31496062992125984,
                    "duration": 0.17178200000000032
                },
                {
                    "name": "E4",
                    "midi": 64,
                    "time": 48.61430600000008,
                    "velocity": 0.25196850393700787,
                    "duration": 0.17178200000000032
                },
                {
                    "name": "A3",
                    "midi": 57,
                    "time": 48.78608800000008,
                    "velocity": 0.29133858267716534,
                    "duration": 0.17178200000000032
                },
                {
                    "name": "F3",
                    "midi": 53,
                    "time": 48.95787000000008,
                    "velocity": 0.2440944881889764,
                    "duration": 0.17178200000000032
                },
                {
                    "name": "E3",
                    "midi": 52,
                    "time": 49.12965200000008,
                    "velocity": 0.29133858267716534,
                    "duration": 0.17178200000000032
                },
                {
                    "name": "D#3",
                    "midi": 51,
                    "time": 49.30143400000008,
                    "velocity": 0.2440944881889764,
                    "duration": 0.17178200000000032
                },
                {
                    "name": "E3",
                    "midi": 52,
                    "time": 49.47321600000008,
                    "velocity": 0.31496062992125984,
                    "duration": 0.17178200000000032
                },
                {
                    "name": "D4",
                    "midi": 62,
                    "time": 49.64499800000008,
                    "velocity": 0.33070866141732286,
                    "duration": 0.17178200000000032
                },
                {
                    "name": "B3",
                    "midi": 59,
                    "time": 49.81678000000008,
                    "velocity": 0.30708661417322836,
                    "duration": 0.17178200000000032
                },
                {
                    "name": "G#3",
                    "midi": 56,
                    "time": 49.98856200000008,
                    "velocity": 0.29133858267716534,
                    "duration": 0.17178200000000032
                },
                {
                    "name": "E3",
                    "midi": 52,
                    "time": 50.16034400000008,
                    "velocity": 0.29133858267716534,
                    "duration": 0.17178200000000032
                },
                {
                    "name": "D3",
                    "midi": 50,
                    "time": 50.33212600000008,
                    "velocity": 0.29133858267716534,
                    "duration": 0.17178200000000032
                },
                {
                    "name": "C3",
                    "midi": 48,
                    "time": 50.50390800000008,
                    "velocity": 0.2677165354330709,
                    "duration": 0.17178200000000032
                },
                {
                    "name": "A3",
                    "midi": 57,
                    "time": 50.67569000000008,
                    "velocity": 0.2047244094488189,
                    "duration": 0.17178200000000032
                },
                {
                    "name": "E4",
                    "midi": 64,
                    "time": 50.84747200000008,
                    "velocity": 0.2677165354330709,
                    "duration": 0.17178200000000032
                },
                {
                    "name": "A3",
                    "midi": 57,
                    "time": 51.01925400000008,
                    "velocity": 0.23622047244094488,
                    "duration": 0.17178200000000032
                },
                {
                    "name": "C3",
                    "midi": 48,
                    "time": 51.19103600000008,
                    "velocity": 0.2677165354330709,
                    "duration": 0.17178200000000032
                },
                {
                    "name": "A3",
                    "midi": 57,
                    "time": 51.36281800000008,
                    "velocity": 0.23622047244094488,
                    "duration": 0.17178200000000032
                },
                {
                    "name": "D3",
                    "midi": 50,
                    "time": 51.53460000000008,
                    "velocity": 0.2677165354330709,
                    "duration": 0.17178200000000032
                },
                {
                    "name": "A3",
                    "midi": 57,
                    "time": 51.70638200000008,
                    "velocity": 0.23622047244094488,
                    "duration": 0.17178200000000032
                },
                {
                    "name": "F4",
                    "midi": 65,
                    "time": 51.87816400000008,
                    "velocity": 0.2992125984251969,
                    "duration": 0.17178200000000032
                },
                {
                    "name": "A3",
                    "midi": 57,
                    "time": 52.049946000000084,
                    "velocity": 0.2440944881889764,
                    "duration": 0.17178200000000032
                },
                {
                    "name": "D3",
                    "midi": 50,
                    "time": 52.221728000000084,
                    "velocity": 0.29133858267716534,
                    "duration": 0.17178200000000032
                },
                {
                    "name": "A3",
                    "midi": 57,
                    "time": 52.393510000000084,
                    "velocity": 0.3464566929133858,
                    "duration": 0.17178200000000032
                },
                {
                    "name": "E3",
                    "midi": 52,
                    "time": 52.565292000000085,
                    "velocity": 0.3779527559055118,
                    "duration": 0.17178200000000032
                },
                {
                    "name": "G3",
                    "midi": 55,
                    "time": 52.737074000000085,
                    "velocity": 0.29133858267716534,
                    "duration": 0.17178200000000032
                },
                {
                    "name": "G4",
                    "midi": 67,
                    "time": 52.908856000000085,
                    "velocity": 0.33858267716535434,
                    "duration": 0.17178200000000032
                },
                {
                    "name": "G3",
                    "midi": 55,
                    "time": 53.080638000000086,
                    "velocity": 0.2440944881889764,
                    "duration": 0.17178200000000032
                },
                {
                    "name": "E3",
                    "midi": 52,
                    "time": 53.252420000000086,
                    "velocity": 0.2992125984251969,
                    "duration": 0.17178200000000032
                },
                {
                    "name": "G3",
                    "midi": 55,
                    "time": 53.424202000000086,
                    "velocity": 0.25196850393700787,
                    "duration": 0.17178200000000032
                },
                {
                    "name": "F3",
                    "midi": 53,
                    "time": 53.59598400000009,
                    "velocity": 0.29133858267716534,
                    "duration": 0.17178200000000032
                },
                {
                    "name": "C4",
                    "midi": 60,
                    "time": 53.76776600000009,
                    "velocity": 0.2440944881889764,
                    "duration": 0.17178200000000032
                },
                {
                    "name": "F4",
                    "midi": 65,
                    "time": 53.93954800000009,
                    "velocity": 0.29133858267716534,
                    "duration": 0.17178200000000032
                },
                {
                    "name": "C4",
                    "midi": 60,
                    "time": 54.11133000000009,
                    "velocity": 0.2283464566929134,
                    "duration": 0.17178200000000032
                },
                {
                    "name": "B3",
                    "midi": 59,
                    "time": 54.28311200000009,
                    "velocity": 0.25984251968503935,
                    "duration": 0.17178200000000032
                },
                {
                    "name": "F3",
                    "midi": 53,
                    "time": 54.45489400000009,
                    "velocity": 0.2283464566929134,
                    "duration": 0.17178200000000032
                },
                {
                    "name": "C4",
                    "midi": 60,
                    "time": 54.62667600000009,
                    "velocity": 0.2677165354330709,
                    "duration": 0.17178200000000032
                },
                {
                    "name": "F3",
                    "midi": 53,
                    "time": 54.79845800000009,
                    "velocity": 0.2047244094488189,
                    "duration": 0.17178200000000032
                },
                {
                    "name": "A3",
                    "midi": 57,
                    "time": 54.97024000000009,
                    "velocity": 0.2677165354330709,
                    "duration": 0.17178200000000032
                },
                {
                    "name": "F3",
                    "midi": 53,
                    "time": 55.14202200000009,
                    "velocity": 0.23622047244094488,
                    "duration": 0.17178200000000032
                },
                {
                    "name": "B3",
                    "midi": 59,
                    "time": 55.31380400000009,
                    "velocity": 0.2677165354330709,
                    "duration": 0.17178200000000032
                },
                {
                    "name": "F3",
                    "midi": 53,
                    "time": 55.48558600000009,
                    "velocity": 0.23622047244094488,
                    "duration": 0.17178200000000032
                },
                {
                    "name": "C4",
                    "midi": 60,
                    "time": 55.65736800000009,
                    "velocity": 0.2677165354330709,
                    "duration": 0.17178200000000032
                },
                {
                    "name": "E3",
                    "midi": 52,
                    "time": 55.65736800000009,
                    "velocity": 0.2677165354330709,
                    "duration": 1.030692000000002
                },
                {
                    "name": "E4",
                    "midi": 64,
                    "time": 55.82915000000009,
                    "velocity": 0.23622047244094488,
                    "duration": 0.17178200000000032
                },
                {
                    "name": "C4",
                    "midi": 60,
                    "time": 56.00093200000009,
                    "velocity": 0.2440944881889764,
                    "duration": 0.17178200000000032
                },
                {
                    "name": "E4",
                    "midi": 64,
                    "time": 56.17271400000009,
                    "velocity": 0.2125984251968504,
                    "duration": 0.17178200000000032
                },
                {
                    "name": "A3",
                    "midi": 57,
                    "time": 56.34449600000009,
                    "velocity": 0.2440944881889764,
                    "duration": 0.17178200000000032
                },
                {
                    "name": "E4",
                    "midi": 64,
                    "time": 56.51627800000009,
                    "velocity": 0.2283464566929134,
                    "duration": 0.17178200000000032
                },
                {
                    "name": "B3",
                    "midi": 59,
                    "time": 56.68806000000009,
                    "velocity": 0.2677165354330709,
                    "duration": 0.17178200000000032
                },
                {
                    "name": "E3",
                    "midi": 52,
                    "time": 56.68806000000009,
                    "velocity": 0.2677165354330709,
                    "duration": 1.030692000000002
                },
                {
                    "name": "E4",
                    "midi": 64,
                    "time": 56.85984200000009,
                    "velocity": 0.2125984251968504,
                    "duration": 0.17178200000000032
                },
                {
                    "name": "B3",
                    "midi": 59,
                    "time": 57.03162400000009,
                    "velocity": 0.2677165354330709,
                    "duration": 0.17178200000000032
                },
                {
                    "name": "E4",
                    "midi": 64,
                    "time": 57.20340600000009,
                    "velocity": 0.2440944881889764,
                    "duration": 0.17178200000000032
                },
                {
                    "name": "D4",
                    "midi": 62,
                    "time": 57.375188000000094,
                    "velocity": 0.2677165354330709,
                    "duration": 0.17178200000000032
                },
                {
                    "name": "E4",
                    "midi": 64,
                    "time": 57.546970000000094,
                    "velocity": 0.2125984251968504,
                    "duration": 0.17178200000000032
                },
                {
                    "name": "C4",
                    "midi": 60,
                    "time": 57.718752000000094,
                    "velocity": 0.2677165354330709,
                    "duration": 0.17178200000000032
                },
                {
                    "name": "E4",
                    "midi": 64,
                    "time": 57.890534000000095,
                    "velocity": 0.2283464566929134,
                    "duration": 0.17178200000000032
                },
                {
                    "name": "A4",
                    "midi": 69,
                    "time": 58.062316000000095,
                    "velocity": 0.2677165354330709,
                    "duration": 0.17178200000000032
                },
                {
                    "name": "G4",
                    "midi": 67,
                    "time": 58.234098000000095,
                    "velocity": 0.23622047244094488,
                    "duration": 0.17178200000000032
                },
                {
                    "name": "F4",
                    "midi": 65,
                    "time": 58.405880000000096,
                    "velocity": 0.29133858267716534,
                    "duration": 0.17178200000000032
                },
                {
                    "name": "A3",
                    "midi": 57,
                    "time": 58.577662000000096,
                    "velocity": 0.29133858267716534,
                    "duration": 0.17178200000000032
                },
                {
                    "name": "E4",
                    "midi": 64,
                    "time": 58.749444000000096,
                    "velocity": 0.3543307086614173,
                    "duration": 0.17178200000000032
                },
                {
                    "name": "A3",
                    "midi": 57,
                    "time": 58.9212260000001,
                    "velocity": 0.2440944881889764,
                    "duration": 0.17178200000000032
                },
                {
                    "name": "D4",
                    "midi": 62,
                    "time": 59.0930080000001,
                    "velocity": 0.2677165354330709,
                    "duration": 0.17178200000000032
                },
                {
                    "name": "A3",
                    "midi": 57,
                    "time": 59.2647900000001,
                    "velocity": 0.23622047244094488,
                    "duration": 0.17178200000000032
                },
                {
                    "name": "C#4",
                    "midi": 61,
                    "time": 59.4365720000001,
                    "velocity": 0.2677165354330709,
                    "duration": 0.17178200000000032
                },
                {
                    "name": "A3",
                    "midi": 57,
                    "time": 59.6083540000001,
                    "velocity": 0.23622047244094488,
                    "duration": 0.17178200000000032
                },
                {
                    "name": "C4",
                    "midi": 60,
                    "time": 59.7801360000001,
                    "velocity": 0.33858267716535434,
                    "duration": 0.17178200000000032
                },
                {
                    "name": "D3",
                    "midi": 50,
                    "time": 59.7801360000001,
                    "velocity": 0.33858267716535434,
                    "duration": 0.17178200000000032
                },
                {
                    "name": "A3",
                    "midi": 57,
                    "time": 59.9519180000001,
                    "velocity": 0.23622047244094488,
                    "duration": 0.17178200000000032
                },
                {
                    "name": "D4",
                    "midi": 62,
                    "time": 60.1237000000001,
                    "velocity": 0.2992125984251969,
                    "duration": 0.17178200000000032
                },
                {
                    "name": "C4",
                    "midi": 60,
                    "time": 60.2954820000001,
                    "velocity": 0.2440944881889764,
                    "duration": 0.17178200000000032
                },
                {
                    "name": "B3",
                    "midi": 59,
                    "time": 60.4672640000001,
                    "velocity": 0.29133858267716534,
                    "duration": 0.17178200000000032
                },
                {
                    "name": "G3",
                    "midi": 55,
                    "time": 60.6390460000001,
                    "velocity": 0.29133858267716534,
                    "duration": 0.17178200000000032
                },
                {
                    "name": "B3",
                    "midi": 59,
                    "time": 60.8108280000001,
                    "velocity": 0.3543307086614173,
                    "duration": 0.17178200000000032
                },
                {
                    "name": "G3",
                    "midi": 55,
                    "time": 60.9826100000001,
                    "velocity": 0.2440944881889764,
                    "duration": 0.17178200000000032
                },
                {
                    "name": "C4",
                    "midi": 60,
                    "time": 61.1543920000001,
                    "velocity": 0.2677165354330709,
                    "duration": 0.17178200000000032
                },
                {
                    "name": "G3",
                    "midi": 55,
                    "time": 61.3261740000001,
                    "velocity": 0.23622047244094488,
                    "duration": 0.17178200000000032
                },
                {
                    "name": "B3",
                    "midi": 59,
                    "time": 61.4979560000001,
                    "velocity": 0.2677165354330709,
                    "duration": 0.17178200000000032
                },
                {
                    "name": "F3",
                    "midi": 53,
                    "time": 61.6697380000001,
                    "velocity": 0.23622047244094488,
                    "duration": 0.17178200000000032
                },
                {
                    "name": "E3",
                    "midi": 52,
                    "time": 61.8415200000001,
                    "velocity": 0.33858267716535434,
                    "duration": 0.17178200000000032
                },
                {
                    "name": "G3",
                    "midi": 55,
                    "time": 62.0133020000001,
                    "velocity": 0.23622047244094488,
                    "duration": 0.17178200000000032
                },
                {
                    "name": "C4",
                    "midi": 60,
                    "time": 62.1850840000001,
                    "velocity": 0.2992125984251969,
                    "duration": 0.17178200000000032
                },
                {
                    "name": "E4",
                    "midi": 64,
                    "time": 62.3568660000001,
                    "velocity": 0.2440944881889764,
                    "duration": 0.17178200000000032
                },
                {
                    "name": "C4",
                    "midi": 60,
                    "time": 62.5286480000001,
                    "velocity": 0.2440944881889764,
                    "duration": 0.17178200000000032
                },
                {
                    "name": "B3",
                    "midi": 59,
                    "time": 62.700430000000104,
                    "velocity": 0.2283464566929134,
                    "duration": 0.17178200000000032
                },
                {
                    "name": "A3",
                    "midi": 57,
                    "time": 62.872212000000104,
                    "velocity": 0.2755905511811024,
                    "duration": 0.17178200000000032
                },
                {
                    "name": "G#3",
                    "midi": 56,
                    "time": 63.043994000000104,
                    "velocity": 0.2440944881889764,
                    "duration": 0.17178200000000032
                },
                {
                    "name": "A3",
                    "midi": 57,
                    "time": 63.215776000000105,
                    "velocity": 0.2440944881889764,
                    "duration": 0.17178200000000032
                },
                {
                    "name": "F3",
                    "midi": 53,
                    "time": 63.387558000000105,
                    "velocity": 0.2047244094488189,
                    "duration": 0.17178200000000032
                },
                {
                    "name": "B3",
                    "midi": 59,
                    "time": 63.559340000000105,
                    "velocity": 0.2440944881889764,
                    "duration": 0.17178200000000032
                },
                {
                    "name": "F3",
                    "midi": 53,
                    "time": 63.731122000000106,
                    "velocity": 0.2125984251968504,
                    "duration": 0.17178200000000032
                },
                {
                    "name": "E3",
                    "midi": 52,
                    "time": 63.902904000000106,
                    "velocity": 0.2204724409448819,
                    "duration": 1.0306919999999593
                },
                {
                    "name": "C4",
                    "midi": 60,
                    "time": 63.902904000000106,
                    "velocity": 0.25984251968503935,
                    "duration": 0.17178199999999322
                },
                {
                    "name": "E4",
                    "midi": 64,
                    "time": 64.0746860000001,
                    "velocity": 0.2047244094488189,
                    "duration": 0.17178199999999322
                },
                {
                    "name": "C4",
                    "midi": 60,
                    "time": 64.24646800000009,
                    "velocity": 0.2283464566929134,
                    "duration": 0.17178199999999322
                },
                {
                    "name": "E4",
                    "midi": 64,
                    "time": 64.41825000000009,
                    "velocity": 0.2047244094488189,
                    "duration": 0.17178199999999322
                },
                {
                    "name": "A3",
                    "midi": 57,
                    "time": 64.59003200000008,
                    "velocity": 0.2283464566929134,
                    "duration": 0.17178199999999322
                },
                {
                    "name": "E4",
                    "midi": 64,
                    "time": 64.76181400000007,
                    "velocity": 0.2125984251968504,
                    "duration": 0.17178199999999322
                },
                {
                    "name": "E3",
                    "midi": 52,
                    "time": 64.93359600000007,
                    "velocity": 0.2204724409448819,
                    "duration": 1.0306919999999593
                },
                {
                    "name": "B3",
                    "midi": 59,
                    "time": 64.93359600000007,
                    "velocity": 0.25984251968503935,
                    "duration": 0.17178199999999322
                },
                {
                    "name": "E4",
                    "midi": 64,
                    "time": 65.10537800000006,
                    "velocity": 0.2047244094488189,
                    "duration": 0.17178199999999322
                },
                {
                    "name": "B3",
                    "midi": 59,
                    "time": 65.27716000000005,
                    "velocity": 0.2283464566929134,
                    "duration": 0.17178199999999322
                },
                {
                    "name": "E4",
                    "midi": 64,
                    "time": 65.44894200000005,
                    "velocity": 0.2047244094488189,
                    "duration": 0.17178199999999322
                },
                {
                    "name": "D4",
                    "midi": 62,
                    "time": 65.62072400000004,
                    "velocity": 0.2283464566929134,
                    "duration": 0.17178199999999322
                },
                {
                    "name": "E4",
                    "midi": 64,
                    "time": 65.79250600000003,
                    "velocity": 0.2125984251968504,
                    "duration": 0.17178199999999322
                },
                {
                    "name": "C4",
                    "midi": 60,
                    "time": 65.96428800000002,
                    "velocity": 0.25984251968503935,
                    "duration": 0.17178199999999322
                },
                {
                    "name": "E3",
                    "midi": 52,
                    "time": 66.13607000000002,
                    "velocity": 0.2047244094488189,
                    "duration": 0.17178199999999322
                },
                {
                    "name": "C4",
                    "midi": 60,
                    "time": 66.30785200000001,
                    "velocity": 0.2283464566929134,
                    "duration": 0.17178199999999322
                },
                {
                    "name": "E3",
                    "midi": 52,
                    "time": 66.479634,
                    "velocity": 0.2047244094488189,
                    "duration": 0.17178199999999322
                },
                {
                    "name": "D4",
                    "midi": 62,
                    "time": 66.651416,
                    "velocity": 0.2283464566929134,
                    "duration": 0.17178199999999322
                },
                {
                    "name": "C4",
                    "midi": 60,
                    "time": 66.82319799999999,
                    "velocity": 0.2125984251968504,
                    "duration": 0.17178199999999322
                },
                {
                    "name": "D4",
                    "midi": 62,
                    "time": 66.99497999999998,
                    "velocity": 0.25984251968503935,
                    "duration": 0.17178199999999322
                },
                {
                    "name": "E3",
                    "midi": 52,
                    "time": 67.16676199999998,
                    "velocity": 0.2047244094488189,
                    "duration": 0.17178199999999322
                },
                {
                    "name": "D4",
                    "midi": 62,
                    "time": 67.33854399999997,
                    "velocity": 0.2283464566929134,
                    "duration": 0.17178199999999322
                },
                {
                    "name": "E3",
                    "midi": 52,
                    "time": 67.51032599999996,
                    "velocity": 0.2047244094488189,
                    "duration": 0.17178199999999322
                },
                {
                    "name": "C4",
                    "midi": 60,
                    "time": 67.68210799999996,
                    "velocity": 0.2283464566929134,
                    "duration": 0.17178199999999322
                },
                {
                    "name": "B3",
                    "midi": 59,
                    "time": 67.85388999999995,
                    "velocity": 0.2125984251968504,
                    "duration": 0.17178199999999322
                },
                {
                    "name": "C4",
                    "midi": 60,
                    "time": 68.02567199999994,
                    "velocity": 0.25984251968503935,
                    "duration": 0.17178199999999322
                },
                {
                    "name": "E3",
                    "midi": 52,
                    "time": 68.19745399999994,
                    "velocity": 0.2047244094488189,
                    "duration": 0.17178199999999322
                },
                {
                    "name": "C4",
                    "midi": 60,
                    "time": 68.36923599999993,
                    "velocity": 0.2283464566929134,
                    "duration": 0.17178199999999322
                },
                {
                    "name": "E3",
                    "midi": 52,
                    "time": 68.54101799999992,
                    "velocity": 0.2047244094488189,
                    "duration": 0.17178199999999322
                },
                {
                    "name": "C4",
                    "midi": 60,
                    "time": 68.71279999999992,
                    "velocity": 0.2283464566929134,
                    "duration": 0.17178199999999322
                },
                {
                    "name": "E3",
                    "midi": 52,
                    "time": 68.88458199999991,
                    "velocity": 0.2125984251968504,
                    "duration": 0.17178199999999322
                },
                {
                    "name": "C4",
                    "midi": 60,
                    "time": 69.0563639999999,
                    "velocity": 0.25984251968503935,
                    "duration": 0.17178199999999322
                },
                {
                    "name": "E3",
                    "midi": 52,
                    "time": 69.2281459999999,
                    "velocity": 0.2047244094488189,
                    "duration": 0.17178199999999322
                },
                {
                    "name": "C4",
                    "midi": 60,
                    "time": 69.39992799999989,
                    "velocity": 0.2283464566929134,
                    "duration": 0.17178199999999322
                },
                {
                    "name": "E3",
                    "midi": 52,
                    "time": 69.57170999999988,
                    "velocity": 0.2047244094488189,
                    "duration": 0.17178199999999322
                },
                {
                    "name": "C4",
                    "midi": 60,
                    "time": 69.74349199999988,
                    "velocity": 0.2283464566929134,
                    "duration": 0.17178199999999322
                },
                {
                    "name": "E3",
                    "midi": 52,
                    "time": 69.91527399999987,
                    "velocity": 0.2125984251968504,
                    "duration": 0.17178199999999322
                },
                {
                    "name": "C4",
                    "midi": 60,
                    "time": 70.08705599999986,
                    "velocity": 0.25196850393700787,
                    "duration": 0.17178199999999322
                },
                {
                    "name": "F3",
                    "midi": 53,
                    "time": 70.25883799999986,
                    "velocity": 0.1968503937007874,
                    "duration": 0.17178199999999322
                },
                {
                    "name": "C4",
                    "midi": 60,
                    "time": 70.43061999999985,
                    "velocity": 0.2204724409448819,
                    "duration": 0.17178199999999322
                },
                {
                    "name": "F3",
                    "midi": 53,
                    "time": 70.60240199999984,
                    "velocity": 0.1889763779527559,
                    "duration": 0.17178199999999322
                },
                {
                    "name": "C4",
                    "midi": 60,
                    "time": 70.77418399999983,
                    "velocity": 0.2125984251968504,
                    "duration": 0.17178199999999322
                },
                {
                    "name": "F3",
                    "midi": 53,
                    "time": 70.94596599999983,
                    "velocity": 0.1968503937007874,
                    "duration": 0.17178199999999322
                },
                {
                    "name": "B3",
                    "midi": 59,
                    "time": 71.11774799999982,
                    "velocity": 0.23622047244094488,
                    "duration": 0.17178199999999322
                },
                {
                    "name": "F3",
                    "midi": 53,
                    "time": 71.28952999999981,
                    "velocity": 0.18110236220472442,
                    "duration": 0.17178199999999322
                },
                {
                    "name": "E3",
                    "midi": 52,
                    "time": 71.46131199999981,
                    "velocity": 0.2047244094488189,
                    "duration": 0.17178199999999322
                },
                {
                    "name": "A3",
                    "midi": 57,
                    "time": 71.6330939999998,
                    "velocity": 0.18110236220472442,
                    "duration": 0.17178199999999322
                },
                {
                    "name": "D3",
                    "midi": 50,
                    "time": 71.8048759999998,
                    "velocity": 0.1968503937007874,
                    "duration": 0.17178199999999322
                },
                {
                    "name": "F3",
                    "midi": 53,
                    "time": 71.97665799999979,
                    "velocity": 0.18110236220472442,
                    "duration": 0.17178199999999322
                },
                {
                    "name": "E2",
                    "midi": 40,
                    "time": 72.14843999999978,
                    "velocity": 0.2125984251968504,
                    "duration": 2.0613839999999186
                },
                {
                    "name": "E3",
                    "midi": 52,
                    "time": 72.32022199999977,
                    "velocity": 0.1732283464566929,
                    "duration": 0.17178199999999322
                },
                {
                    "name": "C3",
                    "midi": 48,
                    "time": 72.49200399999977,
                    "velocity": 0.1889763779527559,
                    "duration": 0.17178199999999322
                },
                {
                    "name": "E3",
                    "midi": 52,
                    "time": 72.66378599999976,
                    "velocity": 0.16535433070866143,
                    "duration": 0.17178199999999322
                },
                {
                    "name": "C3",
                    "midi": 48,
                    "time": 72.83556799999975,
                    "velocity": 0.1889763779527559,
                    "duration": 0.17178199999999322
                },
                {
                    "name": "E3",
                    "midi": 52,
                    "time": 73.00734999999975,
                    "velocity": 0.1732283464566929,
                    "duration": 0.17178199999999322
                },
                {
                    "name": "C3",
                    "midi": 48,
                    "time": 73.17913199999974,
                    "velocity": 0.2047244094488189,
                    "duration": 0.17178199999999322
                },
                {
                    "name": "E3",
                    "midi": 52,
                    "time": 73.35091399999973,
                    "velocity": 0.15748031496062992,
                    "duration": 0.17178199999999322
                },
                {
                    "name": "A3",
                    "midi": 57,
                    "time": 73.52269599999973,
                    "velocity": 0.1732283464566929,
                    "duration": 0.17178199999999322
                },
                {
                    "name": "E3",
                    "midi": 52,
                    "time": 73.69447799999972,
                    "velocity": 0.15748031496062992,
                    "duration": 0.17178199999999322
                },
                {
                    "name": "D3",
                    "midi": 50,
                    "time": 73.86625999999971,
                    "velocity": 0.1732283464566929,
                    "duration": 0.17178199999999322
                },
                {
                    "name": "E3",
                    "midi": 52,
                    "time": 74.0380419999997,
                    "velocity": 0.15748031496062992,
                    "duration": 0.17178199999999322
                },
                {
                    "name": "A2",
                    "midi": 45,
                    "time": 74.2098239999997,
                    "velocity": 0.1968503937007874,
                    "duration": 0.6871279999999871
                },
                {
                    "name": "C3",
                    "midi": 48,
                    "time": 74.2098239999997,
                    "velocity": 0.2047244094488189,
                    "duration": 0.17178199999999322
                },
                {
                    "name": "E3",
                    "midi": 52,
                    "time": 74.38160599999969,
                    "velocity": 0.15748031496062992,
                    "duration": 0.17178199999999322
                },
                {
                    "name": "A1",
                    "midi": 33,
                    "time": 75.24051599999969,
                    "velocity": 0.1968503937007874,
                    "duration": 0.6871280000000013
                },
                {
                    "name": "A2",
                    "midi": 45,
                    "time": 75.24051599999969,
                    "velocity": 0.1968503937007874,
                    "duration": 0.6871280000000013
                },
                {
                    "name": "A1",
                    "midi": 33,
                    "time": 76.27120799999969,
                    "velocity": 0.1968503937007874,
                    "duration": 0.6871280000000013
                },
                {
                    "name": "A2",
                    "midi": 45,
                    "time": 76.27120799999969,
                    "velocity": 0.1968503937007874,
                    "duration": 0.6871280000000013
                },
                {
                    "name": "A1",
                    "midi": 33,
                    "time": 77.30189999999969,
                    "velocity": 0.15748031496062992,
                    "duration": 0.25767299999999693
                },
                {
                    "name": "A2",
                    "midi": 45,
                    "time": 77.30189999999969,
                    "velocity": 0.1968503937007874,
                    "duration": 0.25767299999999693
                },
                {
                    "name": "A1",
                    "midi": 33,
                    "time": 77.64546399999969,
                    "velocity": 0.15748031496062992,
                    "duration": 0.25767299999999693
                },
                {
                    "name": "A2",
                    "midi": 45,
                    "time": 77.64546399999969,
                    "velocity": 0.1968503937007874,
                    "duration": 0.25767299999999693
                },
                {
                    "name": "A1",
                    "midi": 33,
                    "time": 77.98902799999969,
                    "velocity": 0.15748031496062992,
                    "duration": 0.25767299999999693
                },
                {
                    "name": "A2",
                    "midi": 45,
                    "time": 77.98902799999969,
                    "velocity": 0.1968503937007874,
                    "duration": 0.25767299999999693
                },
                {
                    "name": "A1",
                    "midi": 33,
                    "time": 78.33259199999969,
                    "velocity": 0.2047244094488189,
                    "duration": 0.17178199999999322
                },
                {
                    "name": "E2",
                    "midi": 40,
                    "time": 78.50437399999969,
                    "velocity": 0.15748031496062992,
                    "duration": 0.17178199999999322
                },
                {
                    "name": "A2",
                    "midi": 45,
                    "time": 78.67615599999968,
                    "velocity": 0.1732283464566929,
                    "duration": 0.17178199999999322
                },
                {
                    "name": "G#2",
                    "midi": 44,
                    "time": 78.84793799999967,
                    "velocity": 0.15748031496062992,
                    "duration": 0.17178199999999322
                },
                {
                    "name": "A2",
                    "midi": 45,
                    "time": 79.01971999999967,
                    "velocity": 0.1732283464566929,
                    "duration": 0.17178199999999322
                },
                {
                    "name": "E2",
                    "midi": 40,
                    "time": 79.19150199999966,
                    "velocity": 0.15748031496062992,
                    "duration": 0.17178199999999322
                },
                {
                    "name": "F2",
                    "midi": 41,
                    "time": 79.36328399999965,
                    "velocity": 0.2047244094488189,
                    "duration": 0.17178199999999322
                },
                {
                    "name": "D2",
                    "midi": 38,
                    "time": 79.53506599999965,
                    "velocity": 0.15748031496062992,
                    "duration": 0.17178199999999322
                },
                {
                    "name": "A2",
                    "midi": 45,
                    "time": 79.70684799999964,
                    "velocity": 0.1732283464566929,
                    "duration": 0.17178199999999322
                },
                {
                    "name": "G#2",
                    "midi": 44,
                    "time": 79.87862999999963,
                    "velocity": 0.15748031496062992,
                    "duration": 0.17178199999999322
                },
                {
                    "name": "A2",
                    "midi": 45,
                    "time": 80.05041199999962,
                    "velocity": 0.1732283464566929,
                    "duration": 0.17178199999999322
                },
                {
                    "name": "F2",
                    "midi": 41,
                    "time": 80.22219399999962,
                    "velocity": 0.15748031496062992,
                    "duration": 0.17178199999999322
                },
                {
                    "name": "E2",
                    "midi": 40,
                    "time": 80.39397599999961,
                    "velocity": 0.2047244094488189,
                    "duration": 0.17178199999999322
                },
                {
                    "name": "C#2",
                    "midi": 37,
                    "time": 80.5657579999996,
                    "velocity": 0.15748031496062992,
                    "duration": 0.17178199999999322
                },
                {
                    "name": "A2",
                    "midi": 45,
                    "time": 80.7375399999996,
                    "velocity": 0.1732283464566929,
                    "duration": 0.17178199999999322
                },
                {
                    "name": "G#2",
                    "midi": 44,
                    "time": 80.89930138333293,
                    "velocity": 0.15748031496062992,
                    "duration": 0.17178199999999322
                },
                {
                    "name": "A2",
                    "midi": 45,
                    "time": 81.08110399999958,
                    "velocity": 0.1732283464566929,
                    "duration": 0.17178199999999322
                },
                {
                    "name": "E2",
                    "midi": 40,
                    "time": 81.25288599999958,
                    "velocity": 0.15748031496062992,
                    "duration": 0.17178199999999322
                },
                {
                    "name": "D2",
                    "midi": 38,
                    "time": 81.42466799999957,
                    "velocity": 0.2204724409448819,
                    "duration": 0.17178199999999322
                },
                {
                    "name": "A2",
                    "midi": 45,
                    "time": 81.59644999999956,
                    "velocity": 0.18110236220472442,
                    "duration": 0.17178199999999322
                },
                {
                    "name": "E2",
                    "midi": 40,
                    "time": 81.76823199999956,
                    "velocity": 0.2047244094488189,
                    "duration": 0.17178199999999322
                },
                {
                    "name": "A2",
                    "midi": 45,
                    "time": 81.94001399999955,
                    "velocity": 0.1968503937007874,
                    "duration": 0.17178199999999322
                },
                {
                    "name": "F2",
                    "midi": 41,
                    "time": 82.11179599999954,
                    "velocity": 0.25984251968503935,
                    "duration": 0.17178199999999322
                },
                {
                    "name": "A2",
                    "midi": 45,
                    "time": 82.28357799999954,
                    "velocity": 0.33070866141732286,
                    "duration": 0.17178199999999322
                },
                {
                    "name": "G2",
                    "midi": 43,
                    "time": 82.45535999999953,
                    "velocity": 0.3700787401574803,
                    "duration": 0.17178199999999322
                },
                {
                    "name": "A1",
                    "midi": 33,
                    "time": 82.62714199999952,
                    "velocity": 0.3228346456692913,
                    "duration": 0.17178199999999322
                },
                {
                    "name": "G2",
                    "midi": 43,
                    "time": 82.79892399999952,
                    "velocity": 0.33858267716535434,
                    "duration": 0.17178199999999322
                },
                {
                    "name": "A1",
                    "midi": 33,
                    "time": 82.97070599999951,
                    "velocity": 0.2992125984251969,
                    "duration": 0.17178199999999322
                },
                {
                    "name": "G2",
                    "midi": 43,
                    "time": 83.1424879999995,
                    "velocity": 0.33858267716535434,
                    "duration": 0.17178199999999322
                },
                {
                    "name": "A1",
                    "midi": 33,
                    "time": 83.3142699999995,
                    "velocity": 0.2992125984251969,
                    "duration": 0.17178199999999322
                },
                {
                    "name": "G2",
                    "midi": 43,
                    "time": 83.48605199999949,
                    "velocity": 0.3779527559055118,
                    "duration": 0.17178199999999322
                },
                {
                    "name": "A1",
                    "midi": 33,
                    "time": 83.65783399999948,
                    "velocity": 0.23622047244094488,
                    "duration": 0.17178199999999322
                },
                {
                    "name": "G2",
                    "midi": 43,
                    "time": 83.82961599999948,
                    "velocity": 0.2992125984251969,
                    "duration": 0.17178199999999322
                },
                {
                    "name": "A1",
                    "midi": 33,
                    "time": 84.00139799999947,
                    "velocity": 0.2047244094488189,
                    "duration": 0.17178199999999322
                },
                {
                    "name": "G2",
                    "midi": 43,
                    "time": 84.17317999999946,
                    "velocity": 0.25984251968503935,
                    "duration": 0.17178199999999322
                },
                {
                    "name": "A1",
                    "midi": 33,
                    "time": 84.34496199999946,
                    "velocity": 0.2047244094488189,
                    "duration": 0.17178199999999322
                },
                {
                    "name": "F2",
                    "midi": 41,
                    "time": 84.51674399999945,
                    "velocity": 0.2047244094488189,
                    "duration": 0.17178199999999322
                },
                {
                    "name": "A1",
                    "midi": 33,
                    "time": 84.68852599999944,
                    "velocity": 0.15748031496062992,
                    "duration": 0.17178199999999322
                },
                {
                    "name": "E2",
                    "midi": 40,
                    "time": 84.86030799999943,
                    "velocity": 0.1732283464566929,
                    "duration": 0.17178199999999322
                },
                {
                    "name": "A1",
                    "midi": 33,
                    "time": 85.03208999999943,
                    "velocity": 0.15748031496062992,
                    "duration": 0.17178199999999322
                },
                {
                    "name": "D2",
                    "midi": 38,
                    "time": 85.20387199999942,
                    "velocity": 0.1732283464566929,
                    "duration": 0.17178199999999322
                },
                {
                    "name": "A1",
                    "midi": 33,
                    "time": 85.37565399999941,
                    "velocity": 0.15748031496062992,
                    "duration": 0.17178199999999322
                },
                {
                    "name": "E2",
                    "midi": 40,
                    "time": 85.54743599999941,
                    "velocity": 0.2204724409448819,
                    "duration": 0.17178199999999322
                },
                {
                    "name": "A1",
                    "midi": 33,
                    "time": 85.7192179999994,
                    "velocity": 0.18110236220472442,
                    "duration": 0.17178199999999322
                },
                {
                    "name": "D2",
                    "midi": 38,
                    "time": 85.8909999999994,
                    "velocity": 0.2047244094488189,
                    "duration": 0.17178199999999322
                },
                {
                    "name": "A1",
                    "midi": 33,
                    "time": 86.06278199999939,
                    "velocity": 0.1968503937007874,
                    "duration": 0.17178199999999322
                },
                {
                    "name": "C2",
                    "midi": 36,
                    "time": 86.23456399999938,
                    "velocity": 0.25984251968503935,
                    "duration": 0.17178199999999322
                },
                {
                    "name": "A1",
                    "midi": 33,
                    "time": 86.40634599999937,
                    "velocity": 0.33070866141732286,
                    "duration": 0.17178199999999322
                },
                {
                    "name": "B1",
                    "midi": 35,
                    "time": 86.57812799999937,
                    "velocity": 0.3700787401574803,
                    "duration": 0.17178199999999322
                },
                {
                    "name": "A1",
                    "midi": 33,
                    "time": 86.74990999999936,
                    "velocity": 0.3228346456692913,
                    "duration": 0.17178199999999322
                },
                {
                    "name": "B1",
                    "midi": 35,
                    "time": 86.92169199999935,
                    "velocity": 0.33858267716535434,
                    "duration": 0.17178199999999322
                },
                {
                    "name": "A1",
                    "midi": 33,
                    "time": 87.09347399999935,
                    "velocity": 0.2992125984251969,
                    "duration": 0.17178199999999322
                },
                {
                    "name": "B1",
                    "midi": 35,
                    "time": 87.26525599999934,
                    "velocity": 0.33858267716535434,
                    "duration": 0.17178199999999322
                },
                {
                    "name": "A1",
                    "midi": 33,
                    "time": 87.43703799999933,
                    "velocity": 0.2992125984251969,
                    "duration": 0.17178199999999322
                },
                {
                    "name": "B1",
                    "midi": 35,
                    "time": 87.60881999999933,
                    "velocity": 0.3779527559055118,
                    "duration": 0.17178199999999322
                },
                {
                    "name": "A1",
                    "midi": 33,
                    "time": 87.78060199999932,
                    "velocity": 0.23622047244094488,
                    "duration": 0.17178199999999322
                },
                {
                    "name": "B1",
                    "midi": 35,
                    "time": 87.95238399999931,
                    "velocity": 0.2992125984251969,
                    "duration": 0.17178199999999322
                },
                {
                    "name": "D2",
                    "midi": 38,
                    "time": 88.1241659999993,
                    "velocity": 0.3228346456692913,
                    "duration": 0.17178199999999322
                },
                {
                    "name": "F2",
                    "midi": 41,
                    "time": 88.2959479999993,
                    "velocity": 0.3700787401574803,
                    "duration": 0.17178199999999322
                },
                {
                    "name": "D2",
                    "midi": 38,
                    "time": 88.46772999999929,
                    "velocity": 0.2047244094488189,
                    "duration": 0.17178199999999322
                },
                {
                    "name": "B1",
                    "midi": 35,
                    "time": 88.63951199999929,
                    "velocity": 0.3779527559055118,
                    "duration": 0.17178199999999322
                },
                {
                    "name": "A1",
                    "midi": 33,
                    "time": 88.81129399999928,
                    "velocity": 0.23622047244094488,
                    "duration": 0.17178199999999322
                },
                {
                    "name": "B1",
                    "midi": 35,
                    "time": 88.98307599999927,
                    "velocity": 0.2992125984251969,
                    "duration": 0.17178199999999322
                },
                {
                    "name": "D2",
                    "midi": 38,
                    "time": 89.15485799999927,
                    "velocity": 0.33858267716535434,
                    "duration": 0.17178199999999322
                },
                {
                    "name": "F2",
                    "midi": 41,
                    "time": 89.32663999999926,
                    "velocity": 0.3937007874015748,
                    "duration": 0.17178199999999322
                },
                {
                    "name": "D2",
                    "midi": 38,
                    "time": 89.49842199999925,
                    "velocity": 0.2047244094488189,
                    "duration": 0.17178199999999322
                },
                {
                    "name": "A1",
                    "midi": 33,
                    "time": 89.67020399999925,
                    "velocity": 0.23622047244094488,
                    "duration": 0.25767299999999693
                },
                {
                    "name": "A1",
                    "midi": 33,
                    "time": 90.01376799999925,
                    "velocity": 0.16535433070866143,
                    "duration": 0.25767299999999693
                },
                {
                    "name": "A1",
                    "midi": 33,
                    "time": 90.35733199999925,
                    "velocity": 0.16535433070866143,
                    "duration": 0.25767299999999693
                },
                {
                    "name": "A1",
                    "midi": 33,
                    "time": 90.70089599999925,
                    "velocity": 0.2125984251968504,
                    "duration": 0.25767299999999693
                },
                {
                    "name": "A1",
                    "midi": 33,
                    "time": 91.04445999999925,
                    "velocity": 0.16535433070866143,
                    "duration": 0.25767299999999693
                },
                {
                    "name": "A1",
                    "midi": 33,
                    "time": 91.38802399999925,
                    "velocity": 0.15748031496062992,
                    "duration": 0.25767299999999693
                },
                {
                    "name": "A1",
                    "midi": 33,
                    "time": 91.73158799999925,
                    "velocity": 0.16535433070866143,
                    "duration": 0.34356400000000065
                },
                {
                    "name": "A2",
                    "midi": 45,
                    "time": 92.41871599999925,
                    "velocity": 0.14173228346456693,
                    "duration": 0.08589100000000371
                },
                {
                    "name": "A1",
                    "midi": 33,
                    "time": 92.41871599999925,
                    "velocity": 0.14173228346456693,
                    "duration": 0.08589100000000371
                },
                {
                    "name": "A1",
                    "midi": 33,
                    "time": 92.76227999999925,
                    "velocity": 0.16535433070866143,
                    "duration": 0.08589100000000371
                },
                {
                    "name": "A2",
                    "midi": 45,
                    "time": 92.76227999999925,
                    "velocity": 0.16535433070866143,
                    "duration": 0.08589100000000371
                },
                {
                    "name": "A2",
                    "midi": 45,
                    "time": 93.44940799999925,
                    "velocity": 0.13385826771653545,
                    "duration": 0.08589100000000371
                },
                {
                    "name": "A1",
                    "midi": 33,
                    "time": 93.44940799999925,
                    "velocity": 0.13385826771653545,
                    "duration": 0.08589100000000371
                },
                {
                    "name": "A1",
                    "midi": 33,
                    "time": 93.79297199999925,
                    "velocity": 0.16535433070866143,
                    "duration": 0.08589100000000371
                },
                {
                    "name": "A2",
                    "midi": 45,
                    "time": 93.79297199999925,
                    "velocity": 0.16535433070866143,
                    "duration": 0.08589100000000371
                }
            ],
            "controlChanges": {},
            "id": 2,
            "name": "Piano left",
            "instrumentNumber": 0,
            "instrument": "acoustic grand piano",
            "instrumentFamily": "piano",
            "channelNumber": 0,
            "isPercussion": false
        },
        {
            "startTime": 0,
            "duration": 0,
            "length": 0,
            "notes": [],
            "controlChanges": {
                "64": [
                    {
                        "number": 64,
                        "time": 0.7071692333333333,
                        "value": 1
                    },
                    {
                        "number": 64,
                        "time": 1.0507332333333332,
                        "value": 0
                    },
                    {
                        "number": 64,
                        "time": 1.1122884499999999,
                        "value": 1
                    },
                    {
                        "number": 64,
                        "time": 1.4014548166666665,
                        "value": 0
                    },
                    {
                        "number": 64,
                        "time": 1.4730306499999999,
                        "value": 1
                    },
                    {
                        "number": 64,
                        "time": 1.73070365,
                        "value": 0
                    },
                    {
                        "number": 64,
                        "time": 1.8165946499999999,
                        "value": 1
                    },
                    {
                        "number": 64,
                        "time": 2.0785622,
                        "value": 0
                    },
                    {
                        "number": 64,
                        "time": 2.14298045,
                        "value": 1
                    },
                    {
                        "number": 64,
                        "time": 2.4307153,
                        "value": 0
                    },
                    {
                        "number": 64,
                        "time": 2.556688766666667,
                        "value": 1
                    },
                    {
                        "number": 64,
                        "time": 2.7642586833333334,
                        "value": 0
                    },
                    {
                        "number": 64,
                        "time": 2.8601703,
                        "value": 1
                    },
                    {
                        "number": 64,
                        "time": 3.1078226833333336,
                        "value": 0
                    },
                    {
                        "number": 64,
                        "time": 3.17367245,
                        "value": 1
                    },
                    {
                        "number": 64,
                        "time": 3.802108266666667,
                        "value": 0
                    },
                    {
                        "number": 64,
                        "time": 3.9023144333333337,
                        "value": 1
                    },
                    {
                        "number": 64,
                        "time": 4.137083166666667,
                        "value": 0
                    },
                    {
                        "number": 64,
                        "time": 4.21295355,
                        "value": 1
                    },
                    {
                        "number": 64,
                        "time": 4.832800266666666,
                        "value": 0
                    },
                    {
                        "number": 64,
                        "time": 4.9330064333333326,
                        "value": 1
                    },
                    {
                        "number": 64,
                        "time": 5.173501233333332,
                        "value": 0
                    },
                    {
                        "number": 64,
                        "time": 5.245077066666665,
                        "value": 1
                    },
                    {
                        "number": 64,
                        "time": 5.857766199999999,
                        "value": 0
                    },
                    {
                        "number": 64,
                        "time": 5.982308149999999,
                        "value": 1
                    },
                    {
                        "number": 64,
                        "time": 6.197035649999999,
                        "value": 0
                    },
                    {
                        "number": 64,
                        "time": 6.291515749999999,
                        "value": 1
                    },
                    {
                        "number": 64,
                        "time": 6.89275275,
                        "value": 0
                    },
                    {
                        "number": 64,
                        "time": 6.994390433333333,
                        "value": 1
                    },
                    {
                        "number": 64,
                        "time": 7.227727649999999,
                        "value": 0
                    },
                    {
                        "number": 64,
                        "time": 7.3050295499999995,
                        "value": 1
                    },
                    {
                        "number": 64,
                        "time": 7.581312266666666,
                        "value": 0
                    },
                    {
                        "number": 64,
                        "time": 7.648593549999999,
                        "value": 1
                    },
                    {
                        "number": 64,
                        "time": 7.916287166666666,
                        "value": 0
                    },
                    {
                        "number": 64,
                        "time": 7.983568449999999,
                        "value": 1
                    },
                    {
                        "number": 64,
                        "time": 8.259851166666666,
                        "value": 0
                    },
                    {
                        "number": 64,
                        "time": 8.952705233333333,
                        "value": 1
                    },
                    {
                        "number": 64,
                        "time": 9.296269233333334,
                        "value": 0
                    },
                    {
                        "number": 64,
                        "time": 9.35782445,
                        "value": 1
                    },
                    {
                        "number": 64,
                        "time": 9.646990816666667,
                        "value": 0
                    },
                    {
                        "number": 64,
                        "time": 9.718566650000001,
                        "value": 1
                    },
                    {
                        "number": 64,
                        "time": 9.976239650000002,
                        "value": 0
                    },
                    {
                        "number": 64,
                        "time": 10.062130650000002,
                        "value": 1
                    },
                    {
                        "number": 64,
                        "time": 10.324098200000002,
                        "value": 0
                    },
                    {
                        "number": 64,
                        "time": 10.388516450000001,
                        "value": 1
                    },
                    {
                        "number": 64,
                        "time": 10.6762513,
                        "value": 0
                    },
                    {
                        "number": 64,
                        "time": 10.802224766666667,
                        "value": 1
                    },
                    {
                        "number": 64,
                        "time": 11.009794683333334,
                        "value": 0
                    },
                    {
                        "number": 64,
                        "time": 11.105706300000001,
                        "value": 1
                    },
                    {
                        "number": 64,
                        "time": 11.353358683333335,
                        "value": 0
                    },
                    {
                        "number": 64,
                        "time": 11.419208450000001,
                        "value": 1
                    },
                    {
                        "number": 64,
                        "time": 12.047644266666667,
                        "value": 0
                    },
                    {
                        "number": 64,
                        "time": 12.147850433333334,
                        "value": 1
                    },
                    {
                        "number": 64,
                        "time": 12.382619166666666,
                        "value": 0
                    },
                    {
                        "number": 64,
                        "time": 12.45848955,
                        "value": 1
                    },
                    {
                        "number": 64,
                        "time": 13.078336266666666,
                        "value": 0
                    },
                    {
                        "number": 64,
                        "time": 13.178542433333332,
                        "value": 1
                    },
                    {
                        "number": 64,
                        "time": 13.398995999999999,
                        "value": 0
                    },
                    {
                        "number": 64,
                        "time": 13.500633683333332,
                        "value": 1
                    },
                    {
                        "number": 64,
                        "time": 14.113322816666665,
                        "value": 0
                    },
                    {
                        "number": 64,
                        "time": 14.217823533333332,
                        "value": 1
                    },
                    {
                        "number": 64,
                        "time": 14.43398255,
                        "value": 0
                    },
                    {
                        "number": 64,
                        "time": 14.85484845,
                        "value": 1
                    },
                    {
                        "number": 64,
                        "time": 15.1339942,
                        "value": 0
                    },
                    {
                        "number": 64,
                        "time": 15.22417975,
                        "value": 1
                    },
                    {
                        "number": 64,
                        "time": 15.460379999999999,
                        "value": 0
                    },
                    {
                        "number": 64,
                        "time": 15.562017683333332,
                        "value": 1
                    },
                    {
                        "number": 64,
                        "time": 16.174706816666664,
                        "value": 0
                    },
                    {
                        "number": 64,
                        "time": 16.27920753333333,
                        "value": 1
                    },
                    {
                        "number": 64,
                        "time": 16.495366549999996,
                        "value": 0
                    },
                    {
                        "number": 64,
                        "time": 16.916232449999995,
                        "value": 1
                    },
                    {
                        "number": 64,
                        "time": 17.195378199999997,
                        "value": 0
                    },
                    {
                        "number": 64,
                        "time": 17.285563749999998,
                        "value": 1
                    },
                    {
                        "number": 64,
                        "time": 17.521763999999997,
                        "value": 0
                    },
                    {
                        "number": 64,
                        "time": 17.62340168333333,
                        "value": 1
                    },
                    {
                        "number": 64,
                        "time": 18.236090816666664,
                        "value": 0
                    },
                    {
                        "number": 64,
                        "time": 18.34059153333333,
                        "value": 1
                    },
                    {
                        "number": 64,
                        "time": 18.552456,
                        "value": 0
                    },
                    {
                        "number": 64,
                        "time": 18.654093683333333,
                        "value": 1
                    },
                    {
                        "number": 64,
                        "time": 18.911766683333333,
                        "value": 0
                    },
                    {
                        "number": 64,
                        "time": 18.99479465,
                        "value": 1
                    },
                    {
                        "number": 64,
                        "time": 19.266782816666666,
                        "value": 0
                    },
                    {
                        "number": 64,
                        "time": 19.371283533333333,
                        "value": 1
                    },
                    {
                        "number": 64,
                        "time": 19.597463166666667,
                        "value": 0
                    },
                    {
                        "number": 64,
                        "time": 19.673333550000002,
                        "value": 1
                    },
                    {
                        "number": 64,
                        "time": 20.964561583333335,
                        "value": 0
                    },
                    {
                        "number": 64,
                        "time": 21.04758955,
                        "value": 1
                    },
                    {
                        "number": 64,
                        "time": 21.316714683333334,
                        "value": 0
                    },
                    {
                        "number": 64,
                        "time": 21.38256445,
                        "value": 1
                    },
                    {
                        "number": 64,
                        "time": 21.658847166666668,
                        "value": 0
                    },
                    {
                        "number": 64,
                        "time": 21.74330665,
                        "value": 1
                    },
                    {
                        "number": 64,
                        "time": 22.34597516666667,
                        "value": 0
                    },
                    {
                        "number": 64,
                        "time": 22.413256450000002,
                        "value": 1
                    },
                    {
                        "number": 64,
                        "time": 22.686676133333336,
                        "value": 0
                    },
                    {
                        "number": 64,
                        "time": 22.756820450000003,
                        "value": 1
                    },
                    {
                        "number": 64,
                        "time": 23.392413850000004,
                        "value": 0
                    },
                    {
                        "number": 64,
                        "time": 23.463989683333338,
                        "value": 1
                    },
                    {
                        "number": 64,
                        "time": 23.72023116666667,
                        "value": 0
                    },
                    {
                        "number": 64,
                        "time": 23.817574300000004,
                        "value": 1
                    },
                    {
                        "number": 64,
                        "time": 25.110233850000004,
                        "value": 0
                    },
                    {
                        "number": 64,
                        "time": 25.767300000000002,
                        "value": 0
                    },
                    {
                        "number": 64,
                        "time": 25.868937683333336,
                        "value": 1
                    },
                    {
                        "number": 64,
                        "time": 26.48162681666667,
                        "value": 0
                    },
                    {
                        "number": 64,
                        "time": 26.586127533333336,
                        "value": 1
                    },
                    {
                        "number": 64,
                        "time": 26.797992000000004,
                        "value": 0
                    },
                    {
                        "number": 64,
                        "time": 26.899629683333337,
                        "value": 1
                    },
                    {
                        "number": 64,
                        "time": 27.157302683333338,
                        "value": 0
                    },
                    {
                        "number": 64,
                        "time": 27.240330650000004,
                        "value": 1
                    },
                    {
                        "number": 64,
                        "time": 27.51231881666667,
                        "value": 0
                    },
                    {
                        "number": 64,
                        "time": 27.616819533333338,
                        "value": 1
                    },
                    {
                        "number": 64,
                        "time": 27.828684000000006,
                        "value": 0
                    },
                    {
                        "number": 64,
                        "time": 27.927458650000005,
                        "value": 1
                    },
                    {
                        "number": 64,
                        "time": 28.532990200000004,
                        "value": 0
                    },
                    {
                        "number": 64,
                        "time": 28.958150650000004,
                        "value": 1
                    },
                    {
                        "number": 64,
                        "time": 29.570839783333337,
                        "value": 0
                    },
                    {
                        "number": 64,
                        "time": 29.645278650000005,
                        "value": 1
                    },
                    {
                        "number": 64,
                        "time": 29.902951650000006,
                        "value": 0
                    },
                    {
                        "number": 64,
                        "time": 29.971664450000006,
                        "value": 1
                    },
                    {
                        "number": 64,
                        "time": 30.594374200000004,
                        "value": 0
                    },
                    {
                        "number": 64,
                        "time": 30.691717333333337,
                        "value": 1
                    },
                    {
                        "number": 64,
                        "time": 30.933643650000004,
                        "value": 0
                    },
                    {
                        "number": 64,
                        "time": 31.002356450000004,
                        "value": 1
                    },
                    {
                        "number": 64,
                        "time": 31.632223783333338,
                        "value": 0
                    },
                    {
                        "number": 64,
                        "time": 31.706662650000005,
                        "value": 1
                    },
                    {
                        "number": 64,
                        "time": 31.964335650000006,
                        "value": 0
                    },
                    {
                        "number": 64,
                        "time": 32.03304845,
                        "value": 1
                    },
                    {
                        "number": 64,
                        "time": 32.651463650000004,
                        "value": 0
                    },
                    {
                        "number": 64,
                        "time": 32.70442976666667,
                        "value": 1
                    },
                    {
                        "number": 64,
                        "time": 32.995027650000004,
                        "value": 0
                    },
                    {
                        "number": 64,
                        "time": 33.063740450000005,
                        "value": 1
                    },
                    {
                        "number": 64,
                        "time": 33.6864502,
                        "value": 0
                    },
                    {
                        "number": 64,
                        "time": 33.776635750000004,
                        "value": 1
                    },
                    {
                        "number": 64,
                        "time": 34.025719650000006,
                        "value": 0
                    },
                    {
                        "number": 64,
                        "time": 34.094432450000006,
                        "value": 1
                    },
                    {
                        "number": 64,
                        "time": 35.05641165000001,
                        "value": 0
                    },
                    {
                        "number": 64,
                        "time": 35.12512445000001,
                        "value": 1
                    },
                    {
                        "number": 64,
                        "time": 35.75499178333334,
                        "value": 0
                    },
                    {
                        "number": 64,
                        "time": 35.829430650000006,
                        "value": 1
                    },
                    {
                        "number": 64,
                        "time": 36.08710365,
                        "value": 0
                    },
                    {
                        "number": 64,
                        "time": 36.15581645,
                        "value": 1
                    },
                    {
                        "number": 64,
                        "time": 36.774231650000004,
                        "value": 0
                    },
                    {
                        "number": 64,
                        "time": 36.82719776666667,
                        "value": 1
                    },
                    {
                        "number": 64,
                        "time": 37.117795650000005,
                        "value": 0
                    },
                    {
                        "number": 64,
                        "time": 37.186508450000005,
                        "value": 1
                    },
                    {
                        "number": 64,
                        "time": 37.809218200000004,
                        "value": 0
                    },
                    {
                        "number": 64,
                        "time": 37.899403750000005,
                        "value": 1
                    },
                    {
                        "number": 64,
                        "time": 38.14848765000001,
                        "value": 0
                    },
                    {
                        "number": 64,
                        "time": 38.21720045000001,
                        "value": 1
                    },
                    {
                        "number": 64,
                        "time": 39.17917965000001,
                        "value": 0
                    },
                    {
                        "number": 64,
                        "time": 39.24789245000001,
                        "value": 1
                    },
                    {
                        "number": 64,
                        "time": 39.87060220000001,
                        "value": 0
                    },
                    {
                        "number": 64,
                        "time": 39.96078775000001,
                        "value": 1
                    },
                    {
                        "number": 64,
                        "time": 40.20987165000001,
                        "value": 0
                    },
                    {
                        "number": 64,
                        "time": 40.27858445000001,
                        "value": 1
                    },
                    {
                        "number": 64,
                        "time": 41.241995166666676,
                        "value": 0
                    },
                    {
                        "number": 64,
                        "time": 41.934849233333345,
                        "value": 1
                    },
                    {
                        "number": 64,
                        "time": 42.278413233333346,
                        "value": 0
                    },
                    {
                        "number": 64,
                        "time": 42.339968450000015,
                        "value": 1
                    },
                    {
                        "number": 64,
                        "time": 42.629134816666685,
                        "value": 0
                    },
                    {
                        "number": 64,
                        "time": 42.70071065000002,
                        "value": 1
                    },
                    {
                        "number": 64,
                        "time": 42.958383650000016,
                        "value": 0
                    },
                    {
                        "number": 64,
                        "time": 43.04427465000001,
                        "value": 1
                    },
                    {
                        "number": 64,
                        "time": 43.306242200000014,
                        "value": 0
                    },
                    {
                        "number": 64,
                        "time": 43.37066045000002,
                        "value": 1
                    },
                    {
                        "number": 64,
                        "time": 43.65839530000002,
                        "value": 0
                    },
                    {
                        "number": 64,
                        "time": 43.78436876666668,
                        "value": 1
                    },
                    {
                        "number": 64,
                        "time": 43.991938683333345,
                        "value": 0
                    },
                    {
                        "number": 64,
                        "time": 44.087850300000014,
                        "value": 1
                    },
                    {
                        "number": 64,
                        "time": 44.335502683333345,
                        "value": 0
                    },
                    {
                        "number": 64,
                        "time": 44.40135245000001,
                        "value": 1
                    },
                    {
                        "number": 64,
                        "time": 45.02978826666668,
                        "value": 0
                    },
                    {
                        "number": 64,
                        "time": 45.129994433333344,
                        "value": 1
                    },
                    {
                        "number": 64,
                        "time": 45.36476316666668,
                        "value": 0
                    },
                    {
                        "number": 64,
                        "time": 45.44063355000001,
                        "value": 1
                    },
                    {
                        "number": 64,
                        "time": 46.06048026666667,
                        "value": 0
                    },
                    {
                        "number": 64,
                        "time": 46.16068643333334,
                        "value": 1
                    },
                    {
                        "number": 64,
                        "time": 46.40118123333334,
                        "value": 0
                    },
                    {
                        "number": 64,
                        "time": 46.472757066666674,
                        "value": 1
                    },
                    {
                        "number": 64,
                        "time": 47.08544620000001,
                        "value": 0
                    },
                    {
                        "number": 64,
                        "time": 47.20998815000001,
                        "value": 1
                    },
                    {
                        "number": 64,
                        "time": 47.42471565000001,
                        "value": 0
                    },
                    {
                        "number": 64,
                        "time": 47.51919575000001,
                        "value": 1
                    },
                    {
                        "number": 64,
                        "time": 48.120432750000006,
                        "value": 0
                    },
                    {
                        "number": 64,
                        "time": 48.22207043333334,
                        "value": 1
                    },
                    {
                        "number": 64,
                        "time": 48.45540765000001,
                        "value": 0
                    },
                    {
                        "number": 64,
                        "time": 48.532709550000014,
                        "value": 1
                    },
                    {
                        "number": 64,
                        "time": 48.80899226666668,
                        "value": 0
                    },
                    {
                        "number": 64,
                        "time": 48.876273550000015,
                        "value": 1
                    },
                    {
                        "number": 64,
                        "time": 49.143967166666684,
                        "value": 0
                    },
                    {
                        "number": 64,
                        "time": 49.21124845000002,
                        "value": 1
                    },
                    {
                        "number": 64,
                        "time": 49.487531166666685,
                        "value": 0
                    },
                    {
                        "number": 64,
                        "time": 49.58057975000002,
                        "value": 1
                    },
                    {
                        "number": 64,
                        "time": 50.176090683333356,
                        "value": 0
                    },
                    {
                        "number": 64,
                        "time": 50.26770775000002,
                        "value": 1
                    },
                    {
                        "number": 64,
                        "time": 50.51679165000002,
                        "value": 0
                    },
                    {
                        "number": 64,
                        "time": 50.605545683333354,
                        "value": 1
                    },
                    {
                        "number": 64,
                        "time": 51.54891516666669,
                        "value": 0
                    },
                    {
                        "number": 64,
                        "time": 51.66629953333336,
                        "value": 1
                    },
                    {
                        "number": 64,
                        "time": 51.90106826666669,
                        "value": 0
                    },
                    {
                        "number": 64,
                        "time": 51.98982230000002,
                        "value": 1
                    },
                    {
                        "number": 64,
                        "time": 52.56958655000002,
                        "value": 0
                    },
                    {
                        "number": 64,
                        "time": 52.676950300000016,
                        "value": 1
                    },
                    {
                        "number": 64,
                        "time": 52.923171166666684,
                        "value": 0
                    },
                    {
                        "number": 64,
                        "time": 53.013356716666685,
                        "value": 1
                    },
                    {
                        "number": 64,
                        "time": 53.61316220000002,
                        "value": 0
                    },
                    {
                        "number": 64,
                        "time": 53.70764230000002,
                        "value": 1
                    },
                    {
                        "number": 64,
                        "time": 53.95672620000002,
                        "value": 0
                    },
                    {
                        "number": 64,
                        "time": 54.05120630000002,
                        "value": 1
                    },
                    {
                        "number": 64,
                        "time": 54.30029020000002,
                        "value": 0
                    },
                    {
                        "number": 64,
                        "time": 54.414811533333356,
                        "value": 1
                    },
                    {
                        "number": 64,
                        "time": 54.646717233333355,
                        "value": 0
                    },
                    {
                        "number": 64,
                        "time": 54.708272450000024,
                        "value": 1
                    },
                    {
                        "number": 64,
                        "time": 55.333845233333356,
                        "value": 0
                    },
                    {
                        "number": 64,
                        "time": 55.40542106666669,
                        "value": 1
                    },
                    {
                        "number": 64,
                        "time": 55.670251650000026,
                        "value": 0
                    },
                    {
                        "number": 64,
                        "time": 55.779046916666694,
                        "value": 1
                    },
                    {
                        "number": 64,
                        "time": 56.36453723333336,
                        "value": 0
                    },
                    {
                        "number": 64,
                        "time": 56.44613368333336,
                        "value": 1
                    },
                    {
                        "number": 64,
                        "time": 56.703806683333354,
                        "value": 0
                    },
                    {
                        "number": 64,
                        "time": 56.819759533333354,
                        "value": 1
                    },
                    {
                        "number": 64,
                        "time": 57.39522923333335,
                        "value": 0
                    },
                    {
                        "number": 64,
                        "time": 57.48684630000002,
                        "value": 1
                    },
                    {
                        "number": 64,
                        "time": 57.731635650000015,
                        "value": 0
                    },
                    {
                        "number": 64,
                        "time": 58.42162668333335,
                        "value": 0
                    },
                    {
                        "number": 64,
                        "time": 58.513243750000015,
                        "value": 1
                    },
                    {
                        "number": 64,
                        "time": 58.76232765000002,
                        "value": 0
                    },
                    {
                        "number": 64,
                        "time": 58.85108168333335,
                        "value": 1
                    },
                    {
                        "number": 64,
                        "time": 59.11304923333335,
                        "value": 0
                    },
                    {
                        "number": 64,
                        "time": 59.200371750000016,
                        "value": 1
                    },
                    {
                        "number": 64,
                        "time": 59.453750200000016,
                        "value": 0
                    },
                    {
                        "number": 64,
                        "time": 59.54393575000002,
                        "value": 1
                    },
                    {
                        "number": 64,
                        "time": 59.79445116666668,
                        "value": 0
                    },
                    {
                        "number": 64,
                        "time": 59.91183553333335,
                        "value": 1
                    },
                    {
                        "number": 64,
                        "time": 60.146604266666685,
                        "value": 0
                    },
                    {
                        "number": 64,
                        "time": 60.235358300000016,
                        "value": 1
                    },
                    {
                        "number": 64,
                        "time": 60.48301068333335,
                        "value": 0
                    },
                    {
                        "number": 64,
                        "time": 60.57462775000001,
                        "value": 1
                    },
                    {
                        "number": 64,
                        "time": 60.823711650000014,
                        "value": 0
                    },
                    {
                        "number": 64,
                        "time": 60.912465683333345,
                        "value": 1
                    },
                    {
                        "number": 64,
                        "time": 61.174433233333346,
                        "value": 0
                    },
                    {
                        "number": 64,
                        "time": 61.26175575000001,
                        "value": 1
                    },
                    {
                        "number": 64,
                        "time": 61.51513420000001,
                        "value": 0
                    },
                    {
                        "number": 64,
                        "time": 61.605319750000014,
                        "value": 1
                    },
                    {
                        "number": 64,
                        "time": 61.85583516666668,
                        "value": 0
                    },
                    {
                        "number": 64,
                        "time": 61.97321953333335,
                        "value": 1
                    },
                    {
                        "number": 64,
                        "time": 62.20798826666668,
                        "value": 0
                    },
                    {
                        "number": 64,
                        "time": 62.29674230000001,
                        "value": 1
                    },
                    {
                        "number": 64,
                        "time": 62.567298950000016,
                        "value": 0
                    },
                    {
                        "number": 64,
                        "time": 63.27017363333335,
                        "value": 1
                    },
                    {
                        "number": 64,
                        "time": 63.57365516666668,
                        "value": 0
                    },
                    {
                        "number": 64,
                        "time": 63.66670375000002,
                        "value": 1
                    },
                    {
                        "number": 64,
                        "time": 63.92723978333335,
                        "value": 0
                    },
                    {
                        "number": 64,
                        "time": 64.05464476666668,
                        "value": 1
                    },
                    {
                        "number": 64,
                        "time": 64.95077420000001,
                        "value": 0
                    },
                    {
                        "number": 64,
                        "time": 64.95363723333334,
                        "value": 0
                    },
                    {
                        "number": 64,
                        "time": 65.08533676666667,
                        "value": 1
                    },
                    {
                        "number": 64,
                        "time": 65.9814662,
                        "value": 0
                    },
                    {
                        "number": 64,
                        "time": 65.98432923333333,
                        "value": 0
                    },
                    {
                        "number": 64,
                        "time": 66.11602876666666,
                        "value": 1
                    },
                    {
                        "number": 64,
                        "time": 67.01215819999999,
                        "value": 0
                    },
                    {
                        "number": 64,
                        "time": 67.01502123333331,
                        "value": 0
                    },
                    {
                        "number": 64,
                        "time": 67.14672076666665,
                        "value": 1
                    },
                    {
                        "number": 64,
                        "time": 68.04285019999998,
                        "value": 0
                    },
                    {
                        "number": 64,
                        "time": 68.0457132333333,
                        "value": 0
                    },
                    {
                        "number": 64,
                        "time": 68.17741276666663,
                        "value": 1
                    },
                    {
                        "number": 64,
                        "time": 69.05636399999997,
                        "value": 0
                    },
                    {
                        "number": 64,
                        "time": 69.19808414999997,
                        "value": 1
                    },
                    {
                        "number": 64,
                        "time": 70.08705599999998,
                        "value": 0
                    },
                    {
                        "number": 64,
                        "time": 70.17867306666665,
                        "value": 1
                    },
                    {
                        "number": 64,
                        "time": 70.45209274999998,
                        "value": 0
                    },
                    {
                        "number": 64,
                        "time": 70.52223706666665,
                        "value": 1
                    },
                    {
                        "number": 64,
                        "time": 70.79422523333332,
                        "value": 0
                    },
                    {
                        "number": 64,
                        "time": 70.87582168333333,
                        "value": 1
                    },
                    {
                        "number": 64,
                        "time": 71.13206316666665,
                        "value": 0
                    },
                    {
                        "number": 64,
                        "time": 71.2294063,
                        "value": 1
                    },
                    {
                        "number": 64,
                        "time": 71.47705868333333,
                        "value": 0
                    },
                    {
                        "number": 64,
                        "time": 71.58299091666666,
                        "value": 1
                    },
                    {
                        "number": 64,
                        "time": 71.81919116666666,
                        "value": 0
                    },
                    {
                        "number": 64,
                        "time": 71.9165343,
                        "value": 1
                    },
                    {
                        "number": 64,
                        "time": 72.15989213333333,
                        "value": 0
                    },
                    {
                        "number": 64,
                        "time": 72.20999521666667,
                        "value": 1
                    },
                    {
                        "number": 64,
                        "time": 72.86133530000001,
                        "value": 0
                    },
                    {
                        "number": 64,
                        "time": 73.21921446666667,
                        "value": 1
                    },
                    {
                        "number": 64,
                        "time": 73.88630123333334,
                        "value": 0
                    },
                    {
                        "number": 64,
                        "time": 73.96789768333335,
                        "value": 1
                    },
                    {
                        "number": 64,
                        "time": 74.21841310000002,
                        "value": 0
                    },
                    {
                        "number": 64,
                        "time": 74.30000955000003,
                        "value": 1
                    },
                    {
                        "number": 64,
                        "time": 74.57056620000003,
                        "value": 0
                    },
                    {
                        "number": 64,
                        "time": 75.27344088333336,
                        "value": 1
                    },
                    {
                        "number": 64,
                        "time": 75.62559398333336,
                        "value": 0
                    },
                    {
                        "number": 64,
                        "time": 76.31272198333336,
                        "value": 1
                    },
                    {
                        "number": 64,
                        "time": 76.63481323333336,
                        "value": 0
                    },
                    {
                        "number": 64,
                        "time": 77.31764668333336,
                        "value": 1
                    },
                    {
                        "number": 64,
                        "time": 78.35406475000003,
                        "value": 0
                    },
                    {
                        "number": 64,
                        "time": 78.43995575000004,
                        "value": 1
                    },
                    {
                        "number": 64,
                        "time": 78.69476571666671,
                        "value": 0
                    },
                    {
                        "number": 64,
                        "time": 79.10131645000004,
                        "value": 1
                    },
                    {
                        "number": 64,
                        "time": 79.38046220000004,
                        "value": 0
                    },
                    {
                        "number": 64,
                        "time": 79.47064775000004,
                        "value": 1
                    },
                    {
                        "number": 64,
                        "time": 79.72402620000004,
                        "value": 0
                    },
                    {
                        "number": 64,
                        "time": 80.14059755000004,
                        "value": 1
                    },
                    {
                        "number": 64,
                        "time": 80.4082911666667,
                        "value": 0
                    },
                    {
                        "number": 64,
                        "time": 80.43978453333337,
                        "value": 1
                    },
                    {
                        "number": 64,
                        "time": 80.7604442666667,
                        "value": 0
                    },
                    {
                        "number": 64,
                        "time": 80.80052673333336,
                        "value": 1
                    },
                    {
                        "number": 64,
                        "time": 81.09971371666668,
                        "value": 0
                    },
                    {
                        "number": 64,
                        "time": 81.15411135000002,
                        "value": 1
                    },
                    {
                        "number": 64,
                        "time": 81.42896255000002,
                        "value": 0
                    },
                    {
                        "number": 64,
                        "time": 81.54634691666669,
                        "value": 1
                    },
                    {
                        "number": 64,
                        "time": 81.80258840000002,
                        "value": 0
                    },
                    {
                        "number": 64,
                        "time": 81.90995215000002,
                        "value": 1
                    },
                    {
                        "number": 64,
                        "time": 82.14185785000002,
                        "value": 0
                    },
                    {
                        "number": 64,
                        "time": 82.22345430000003,
                        "value": 1
                    },
                    {
                        "number": 64,
                        "time": 82.4610860666667,
                        "value": 0
                    },
                    {
                        "number": 64,
                        "time": 82.5770389166667,
                        "value": 1
                    },
                    {
                        "number": 64,
                        "time": 84.20324185000003,
                        "value": 0
                    },
                    {
                        "number": 64,
                        "time": 84.26336555000003,
                        "value": 1
                    },
                    {
                        "number": 64,
                        "time": 84.5310591666667,
                        "value": 0
                    },
                    {
                        "number": 64,
                        "time": 84.56255253333336,
                        "value": 1
                    },
                    {
                        "number": 64,
                        "time": 84.88321226666669,
                        "value": 0
                    },
                    {
                        "number": 64,
                        "time": 84.92329473333335,
                        "value": 1
                    },
                    {
                        "number": 64,
                        "time": 85.22248171666668,
                        "value": 0
                    },
                    {
                        "number": 64,
                        "time": 85.27687935000002,
                        "value": 1
                    },
                    {
                        "number": 64,
                        "time": 85.55173055000002,
                        "value": 0
                    },
                    {
                        "number": 64,
                        "time": 85.66911491666669,
                        "value": 1
                    },
                    {
                        "number": 64,
                        "time": 85.92535640000001,
                        "value": 0
                    },
                    {
                        "number": 64,
                        "time": 86.03272015000002,
                        "value": 1
                    },
                    {
                        "number": 64,
                        "time": 86.26462585000002,
                        "value": 0
                    },
                    {
                        "number": 64,
                        "time": 86.34622230000002,
                        "value": 1
                    },
                    {
                        "number": 64,
                        "time": 86.58385406666669,
                        "value": 0
                    },
                    {
                        "number": 64,
                        "time": 86.69980691666669,
                        "value": 1
                    },
                    {
                        "number": 64,
                        "time": 87.61454606666669,
                        "value": 0
                    },
                    {
                        "number": 64,
                        "time": 87.68039583333336,
                        "value": 1
                    },
                    {
                        "number": 64,
                        "time": 87.96813068333337,
                        "value": 0
                    },
                    {
                        "number": 64,
                        "time": 88.06404230000004,
                        "value": 1
                    },
                    {
                        "number": 64,
                        "time": 88.66384778333337,
                        "value": 0
                    },
                    {
                        "number": 64,
                        "time": 88.74114968333336,
                        "value": 1
                    },
                    {
                        "number": 64,
                        "time": 89.01313785000004,
                        "value": 0
                    },
                    {
                        "number": 64,
                        "time": 89.14483738333337,
                        "value": 1
                    },
                    {
                        "number": 64,
                        "time": 89.67020400000004,
                        "value": 0
                    },
                    {
                        "number": 64,
                        "time": 89.75180045000005,
                        "value": 1
                    },
                    {
                        "number": 64,
                        "time": 91.73158800000004,
                        "value": 0
                    }
                ]
            },
            "id": 3,
            "name": "Pedale",
            "instrumentNumber": 0,
            "instrument": "acoustic grand piano",
            "instrumentFamily": "piano",
            "channelNumber": 0,
            "isPercussion": false
        },
        {
            "startTime": 0,
            "duration": 0,
            "length": 0,
            "notes": [],
            "controlChanges": {},
            "id": 4,
            "name": "Mendelssohn: Songs without words Opus 19 No. 2"
        },
        {
            "startTime": 0,
            "duration": 0,
            "length": 0,
            "notes": [],
            "controlChanges": {},
            "id": 5,
            "name": "Copyright  2010 by Bernd Krueger"
        },
        {
            "startTime": 0,
            "duration": 0,
            "length": 0,
            "notes": [],
            "controlChanges": {},
            "id": 6,
            "name": "http://www.piano-midi.de/"
        },
        {
            "startTime": 0,
            "duration": 0,
            "length": 0,
            "notes": [],
            "controlChanges": {},
            "id": 7,
            "name": "Edition:"
        },
        {
            "startTime": 0,
            "duration": 0,
            "length": 0,
            "notes": [],
            "controlChanges": {},
            "id": 8,
            "name": "Spur 8"
        },
        {
            "startTime": 0,
            "duration": 0,
            "length": 0,
            "notes": [],
            "controlChanges": {},
            "id": 9,
            "name": "Spur 9"
        },
        {
            "startTime": 0,
            "duration": 0,
            "length": 0,
            "notes": [],
            "controlChanges": {},
            "id": 10,
            "name": "Spur 10"
        },
        {
            "startTime": 0,
            "duration": 0,
            "length": 0,
            "notes": [],
            "controlChanges": {},
            "id": 11,
            "name": "Spur 11"
        },
        {
            "startTime": 0,
            "duration": 0,
            "length": 0,
            "notes": [],
            "controlChanges": {},
            "id": 12,
            "name": "Spur 12"
        },
        {
            "startTime": 0,
            "duration": 0,
            "length": 0,
            "notes": [],
            "controlChanges": {},
            "id": 13,
            "name": "Spur 13"
        },
        {
            "startTime": 0,
            "duration": 0,
            "length": 0,
            "notes": [],
            "controlChanges": {},
            "id": 14,
            "name": "Spur 14"
        },
        {
            "startTime": 0,
            "duration": 0,
            "length": 0,
            "notes": [],
            "controlChanges": {},
            "id": 15,
            "name": "Spur 15"
        },
        {
            "startTime": 0,
            "duration": 0,
            "length": 0,
            "notes": [],
            "controlChanges": {},
            "id": 16,
            "name": "Spur 16"
        }
    ]
}