{
    "header": {
        "PPQ": 480,
        "timeSignature": [
            4,
            4
        ],
        "bpm": 129.93988114832203,
        "name": "Trauermarsch"
    },
    "startTime": 0,
    "duration": 90.50339200000009,
    "tracks": [
        {
            "startTime": 0,
            "duration": 0,
            "length": 0,
            "notes": [],
            "controlChanges": {},
            "id": 0,
            "name": "Trauermarsch"
        },
        {
            "startTime": 1.6161320000000001,
            "duration": 90.50339200000009,
            "length": 671,
            "notes": [
                {
                    "name": "B3",
                    "midi": 59,
                    "time": 1.6161320000000001,
                    "velocity": 0.5196850393700787,
                    "duration": 0.03847933333333331
                },
                {
                    "name": "E4",
                    "midi": 64,
                    "time": 1.6161320000000001,
                    "velocity": 0.5984251968503937,
                    "duration": 0.03847933333333331
                },
                {
                    "name": "B3",
                    "midi": 59,
                    "time": 1.6930906666666667,
                    "velocity": 0.5196850393700787,
                    "duration": 0.03847933333333331
                },
                {
                    "name": "E4",
                    "midi": 64,
                    "time": 1.6930906666666667,
                    "velocity": 0.5984251968503937,
                    "duration": 0.03847933333333331
                },
                {
                    "name": "B3",
                    "midi": 59,
                    "time": 1.7700493333333334,
                    "velocity": 0.5196850393700787,
                    "duration": 0.03847933333333331
                },
                {
                    "name": "E4",
                    "midi": 64,
                    "time": 1.7700493333333334,
                    "velocity": 0.5984251968503937,
                    "duration": 0.03847933333333331
                },
                {
                    "name": "B3",
                    "midi": 59,
                    "time": 1.847008,
                    "velocity": 0.5511811023622047,
                    "duration": 0.6926279999999998
                },
                {
                    "name": "E4",
                    "midi": 64,
                    "time": 1.847008,
                    "velocity": 0.6299212598425197,
                    "duration": 0.6926279999999998
                },
                {
                    "name": "B3",
                    "midi": 59,
                    "time": 2.539636,
                    "velocity": 0.5196850393700787,
                    "duration": 0.03847933333333353
                },
                {
                    "name": "E4",
                    "midi": 64,
                    "time": 2.539636,
                    "velocity": 0.5984251968503937,
                    "duration": 0.03847933333333353
                },
                {
                    "name": "B3",
                    "midi": 59,
                    "time": 2.616594666666667,
                    "velocity": 0.5196850393700787,
                    "duration": 0.03847933333333353
                },
                {
                    "name": "E4",
                    "midi": 64,
                    "time": 2.616594666666667,
                    "velocity": 0.5984251968503937,
                    "duration": 0.03847933333333353
                },
                {
                    "name": "B3",
                    "midi": 59,
                    "time": 2.693553333333334,
                    "velocity": 0.5196850393700787,
                    "duration": 0.03847933333333353
                },
                {
                    "name": "E4",
                    "midi": 64,
                    "time": 2.693553333333334,
                    "velocity": 0.5984251968503937,
                    "duration": 0.03847933333333353
                },
                {
                    "name": "B3",
                    "midi": 59,
                    "time": 2.770512000000001,
                    "velocity": 0.5511811023622047,
                    "duration": 0.692628
                },
                {
                    "name": "E4",
                    "midi": 64,
                    "time": 2.770512000000001,
                    "velocity": 0.6299212598425197,
                    "duration": 0.692628
                },
                {
                    "name": "B3",
                    "midi": 59,
                    "time": 3.463140000000001,
                    "velocity": 0.5196850393700787,
                    "duration": 0.03847933333333353
                },
                {
                    "name": "E4",
                    "midi": 64,
                    "time": 3.463140000000001,
                    "velocity": 0.5984251968503937,
                    "duration": 0.03847933333333353
                },
                {
                    "name": "B3",
                    "midi": 59,
                    "time": 3.540098666666668,
                    "velocity": 0.5196850393700787,
                    "duration": 0.03847933333333353
                },
                {
                    "name": "E4",
                    "midi": 64,
                    "time": 3.540098666666668,
                    "velocity": 0.5984251968503937,
                    "duration": 0.03847933333333353
                },
                {
                    "name": "B3",
                    "midi": 59,
                    "time": 3.617057333333335,
                    "velocity": 0.5196850393700787,
                    "duration": 0.03847933333333353
                },
                {
                    "name": "E4",
                    "midi": 64,
                    "time": 3.617057333333335,
                    "velocity": 0.5984251968503937,
                    "duration": 0.03847933333333353
                },
                {
                    "name": "B3",
                    "midi": 59,
                    "time": 3.694016000000002,
                    "velocity": 0.5511811023622047,
                    "duration": 0.9235040000000003
                },
                {
                    "name": "E4",
                    "midi": 64,
                    "time": 3.694016000000002,
                    "velocity": 0.5511811023622047,
                    "duration": 0.9235040000000003
                },
                {
                    "name": "G4",
                    "midi": 67,
                    "time": 3.694016000000002,
                    "velocity": 0.6299212598425197,
                    "duration": 0.9235040000000003
                },
                {
                    "name": "G3",
                    "midi": 55,
                    "time": 4.6175200000000025,
                    "velocity": 0.4881889763779528,
                    "duration": 0.4617519999999997
                },
                {
                    "name": "B3",
                    "midi": 59,
                    "time": 4.6175200000000025,
                    "velocity": 0.4881889763779528,
                    "duration": 0.4617519999999997
                },
                {
                    "name": "E4",
                    "midi": 64,
                    "time": 4.6175200000000025,
                    "velocity": 0.5669291338582677,
                    "duration": 0.4617519999999997
                },
                {
                    "name": "E5",
                    "midi": 76,
                    "time": 5.3101480000000025,
                    "velocity": 0.5669291338582677,
                    "duration": 0.03847933333333309
                },
                {
                    "name": "B4",
                    "midi": 71,
                    "time": 5.3101480000000025,
                    "velocity": 0.5669291338582677,
                    "duration": 0.03847933333333309
                },
                {
                    "name": "B5",
                    "midi": 83,
                    "time": 5.3101480000000025,
                    "velocity": 0.6535433070866141,
                    "duration": 0.03847933333333309
                },
                {
                    "name": "E5",
                    "midi": 76,
                    "time": 5.387106666666669,
                    "velocity": 0.5669291338582677,
                    "duration": 0.03847933333333309
                },
                {
                    "name": "B4",
                    "midi": 71,
                    "time": 5.387106666666669,
                    "velocity": 0.5669291338582677,
                    "duration": 0.03847933333333309
                },
                {
                    "name": "B5",
                    "midi": 83,
                    "time": 5.387106666666669,
                    "velocity": 0.6535433070866141,
                    "duration": 0.03847933333333309
                },
                {
                    "name": "E5",
                    "midi": 76,
                    "time": 5.464065333333335,
                    "velocity": 0.5669291338582677,
                    "duration": 0.03847933333333309
                },
                {
                    "name": "B4",
                    "midi": 71,
                    "time": 5.464065333333335,
                    "velocity": 0.5669291338582677,
                    "duration": 0.03847933333333309
                },
                {
                    "name": "B5",
                    "midi": 83,
                    "time": 5.464065333333335,
                    "velocity": 0.6535433070866141,
                    "duration": 0.03847933333333309
                },
                {
                    "name": "D#5",
                    "midi": 75,
                    "time": 5.541024000000001,
                    "velocity": 0.6062992125984252,
                    "duration": 0.692628
                },
                {
                    "name": "B4",
                    "midi": 71,
                    "time": 5.541024000000001,
                    "velocity": 0.6062992125984252,
                    "duration": 0.692628
                },
                {
                    "name": "B5",
                    "midi": 83,
                    "time": 5.541024000000001,
                    "velocity": 0.6929133858267716,
                    "duration": 0.692628
                },
                {
                    "name": "E5",
                    "midi": 76,
                    "time": 6.233652000000001,
                    "velocity": 0.5669291338582677,
                    "duration": 0.03847933333333309
                },
                {
                    "name": "B4",
                    "midi": 71,
                    "time": 6.233652000000001,
                    "velocity": 0.5669291338582677,
                    "duration": 0.03847933333333309
                },
                {
                    "name": "B5",
                    "midi": 83,
                    "time": 6.233652000000001,
                    "velocity": 0.6535433070866141,
                    "duration": 0.03847933333333309
                },
                {
                    "name": "E5",
                    "midi": 76,
                    "time": 6.310610666666667,
                    "velocity": 0.5669291338582677,
                    "duration": 0.03847933333333309
                },
                {
                    "name": "B4",
                    "midi": 71,
                    "time": 6.310610666666667,
                    "velocity": 0.5669291338582677,
                    "duration": 0.03847933333333309
                },
                {
                    "name": "B5",
                    "midi": 83,
                    "time": 6.310610666666667,
                    "velocity": 0.6535433070866141,
                    "duration": 0.03847933333333309
                },
                {
                    "name": "E5",
                    "midi": 76,
                    "time": 6.387569333333333,
                    "velocity": 0.5669291338582677,
                    "duration": 0.03847933333333309
                },
                {
                    "name": "B4",
                    "midi": 71,
                    "time": 6.387569333333333,
                    "velocity": 0.5669291338582677,
                    "duration": 0.03847933333333309
                },
                {
                    "name": "B5",
                    "midi": 83,
                    "time": 6.387569333333333,
                    "velocity": 0.6535433070866141,
                    "duration": 0.03847933333333309
                },
                {
                    "name": "D#5",
                    "midi": 75,
                    "time": 6.464528,
                    "velocity": 0.6062992125984252,
                    "duration": 0.692628
                },
                {
                    "name": "B4",
                    "midi": 71,
                    "time": 6.464528,
                    "velocity": 0.6062992125984252,
                    "duration": 0.692628
                },
                {
                    "name": "B5",
                    "midi": 83,
                    "time": 6.464528,
                    "velocity": 0.6929133858267716,
                    "duration": 0.692628
                },
                {
                    "name": "E5",
                    "midi": 76,
                    "time": 7.157156,
                    "velocity": 0.5669291338582677,
                    "duration": 0.03847933333333309
                },
                {
                    "name": "B4",
                    "midi": 71,
                    "time": 7.157156,
                    "velocity": 0.5669291338582677,
                    "duration": 0.03847933333333309
                },
                {
                    "name": "B5",
                    "midi": 83,
                    "time": 7.157156,
                    "velocity": 0.6535433070866141,
                    "duration": 0.03847933333333309
                },
                {
                    "name": "E5",
                    "midi": 76,
                    "time": 7.234114666666666,
                    "velocity": 0.5669291338582677,
                    "duration": 0.03847933333333309
                },
                {
                    "name": "B4",
                    "midi": 71,
                    "time": 7.234114666666666,
                    "velocity": 0.5669291338582677,
                    "duration": 0.03847933333333309
                },
                {
                    "name": "B5",
                    "midi": 83,
                    "time": 7.234114666666666,
                    "velocity": 0.6535433070866141,
                    "duration": 0.03847933333333309
                },
                {
                    "name": "E5",
                    "midi": 76,
                    "time": 7.311073333333332,
                    "velocity": 0.5669291338582677,
                    "duration": 0.03847933333333309
                },
                {
                    "name": "B4",
                    "midi": 71,
                    "time": 7.311073333333332,
                    "velocity": 0.5669291338582677,
                    "duration": 0.03847933333333309
                },
                {
                    "name": "B5",
                    "midi": 83,
                    "time": 7.311073333333332,
                    "velocity": 0.6535433070866141,
                    "duration": 0.03847933333333309
                },
                {
                    "name": "D#5",
                    "midi": 75,
                    "time": 7.388031999999998,
                    "velocity": 0.6062992125984252,
                    "duration": 0.9235040000000003
                },
                {
                    "name": "F#5",
                    "midi": 78,
                    "time": 7.388031999999998,
                    "velocity": 0.6062992125984252,
                    "duration": 0.9235040000000003
                },
                {
                    "name": "D#6",
                    "midi": 87,
                    "time": 7.388031999999998,
                    "velocity": 0.6929133858267716,
                    "duration": 0.9235040000000003
                },
                {
                    "name": "F#5",
                    "midi": 78,
                    "time": 8.311535999999998,
                    "velocity": 0.48031496062992124,
                    "duration": 0.4617520000000006
                },
                {
                    "name": "F#6",
                    "midi": 90,
                    "time": 8.311535999999998,
                    "velocity": 0.5590551181102362,
                    "duration": 0.4617520000000006
                },
                {
                    "name": "A3",
                    "midi": 57,
                    "time": 8.773287999999999,
                    "velocity": 0.44881889763779526,
                    "duration": 0.4617520000000006
                },
                {
                    "name": "B3",
                    "midi": 59,
                    "time": 8.773287999999999,
                    "velocity": 0.5354330708661418,
                    "duration": 0.4617520000000006
                },
                {
                    "name": "G3",
                    "midi": 55,
                    "time": 9.23504,
                    "velocity": 0.4645669291338583,
                    "duration": 0.4617520000000006
                },
                {
                    "name": "B3",
                    "midi": 59,
                    "time": 9.23504,
                    "velocity": 0.4645669291338583,
                    "duration": 0.4617520000000006
                },
                {
                    "name": "E4",
                    "midi": 64,
                    "time": 9.23504,
                    "velocity": 0.5511811023622047,
                    "duration": 0.4617520000000006
                },
                {
                    "name": "G3",
                    "midi": 55,
                    "time": 9.696792,
                    "velocity": 0.4645669291338583,
                    "duration": 0.4617520000000006
                },
                {
                    "name": "B3",
                    "midi": 59,
                    "time": 9.696792,
                    "velocity": 0.4645669291338583,
                    "duration": 0.4617520000000006
                },
                {
                    "name": "E4",
                    "midi": 64,
                    "time": 9.696792,
                    "velocity": 0.5511811023622047,
                    "duration": 0.4617520000000006
                },
                {
                    "name": "B3",
                    "midi": 59,
                    "time": 10.158544000000001,
                    "velocity": 0.47244094488188976,
                    "duration": 0.4617520000000006
                },
                {
                    "name": "E4",
                    "midi": 64,
                    "time": 10.158544000000001,
                    "velocity": 0.47244094488188976,
                    "duration": 0.4617520000000006
                },
                {
                    "name": "G4",
                    "midi": 67,
                    "time": 10.158544000000001,
                    "velocity": 0.5590551181102362,
                    "duration": 0.4617520000000006
                },
                {
                    "name": "B3",
                    "midi": 59,
                    "time": 10.620296000000002,
                    "velocity": 0.47244094488188976,
                    "duration": 0.4617520000000006
                },
                {
                    "name": "F#4",
                    "midi": 66,
                    "time": 10.620296000000002,
                    "velocity": 0.47244094488188976,
                    "duration": 0.4617520000000006
                },
                {
                    "name": "A4",
                    "midi": 69,
                    "time": 10.620296000000002,
                    "velocity": 0.5590551181102362,
                    "duration": 0.4617520000000006
                },
                {
                    "name": "B3",
                    "midi": 59,
                    "time": 11.082048000000002,
                    "velocity": 0.48031496062992124,
                    "duration": 0.4617520000000006
                },
                {
                    "name": "E4",
                    "midi": 64,
                    "time": 11.082048000000002,
                    "velocity": 0.48031496062992124,
                    "duration": 0.4617520000000006
                },
                {
                    "name": "G4",
                    "midi": 67,
                    "time": 11.082048000000002,
                    "velocity": 0.48031496062992124,
                    "duration": 0.4617520000000006
                },
                {
                    "name": "B4",
                    "midi": 71,
                    "time": 11.082048000000002,
                    "velocity": 0.5669291338582677,
                    "duration": 0.4617520000000006
                },
                {
                    "name": "E4",
                    "midi": 64,
                    "time": 11.543800000000003,
                    "velocity": 0.4566929133858268,
                    "duration": 0.07695866666666618
                },
                {
                    "name": "F#4",
                    "midi": 66,
                    "time": 11.543800000000003,
                    "velocity": 0.4566929133858268,
                    "duration": 0.07695866666666618
                },
                {
                    "name": "A4",
                    "midi": 69,
                    "time": 11.543800000000003,
                    "velocity": 0.5433070866141733,
                    "duration": 0.07695866666666618
                },
                {
                    "name": "E4",
                    "midi": 64,
                    "time": 11.697717333333335,
                    "velocity": 0.4566929133858268,
                    "duration": 0.07695866666666618
                },
                {
                    "name": "G4",
                    "midi": 67,
                    "time": 11.697717333333335,
                    "velocity": 0.4566929133858268,
                    "duration": 0.07695866666666618
                },
                {
                    "name": "B4",
                    "midi": 71,
                    "time": 11.697717333333335,
                    "velocity": 0.5433070866141733,
                    "duration": 0.07695866666666618
                },
                {
                    "name": "E4",
                    "midi": 64,
                    "time": 11.851634666666667,
                    "velocity": 0.4566929133858268,
                    "duration": 0.07695866666666618
                },
                {
                    "name": "A4",
                    "midi": 69,
                    "time": 11.851634666666667,
                    "velocity": 0.4566929133858268,
                    "duration": 0.07695866666666618
                },
                {
                    "name": "C5",
                    "midi": 72,
                    "time": 11.851634666666667,
                    "velocity": 0.5433070866141733,
                    "duration": 0.07695866666666618
                },
                {
                    "name": "E4",
                    "midi": 64,
                    "time": 12.005552,
                    "velocity": 0.4881889763779528,
                    "duration": 0.4617520000000006
                },
                {
                    "name": "G4",
                    "midi": 67,
                    "time": 12.005552,
                    "velocity": 0.4881889763779528,
                    "duration": 0.4617520000000006
                },
                {
                    "name": "B4",
                    "midi": 71,
                    "time": 12.005552,
                    "velocity": 0.5748031496062992,
                    "duration": 0.4617520000000006
                },
                {
                    "name": "B3",
                    "midi": 59,
                    "time": 12.467304,
                    "velocity": 0.44881889763779526,
                    "duration": 0.34631399999999957
                },
                {
                    "name": "E4",
                    "midi": 64,
                    "time": 12.467304,
                    "velocity": 0.44881889763779526,
                    "duration": 0.34631399999999957
                },
                {
                    "name": "G4",
                    "midi": 67,
                    "time": 12.467304,
                    "velocity": 0.5354330708661418,
                    "duration": 0.34631399999999957
                },
                {
                    "name": "F#4",
                    "midi": 66,
                    "time": 12.813618,
                    "velocity": 0.48031496062992124,
                    "duration": 0.11543799999999926
                },
                {
                    "name": "A4",
                    "midi": 69,
                    "time": 12.813618,
                    "velocity": 0.5669291338582677,
                    "duration": 0.11543799999999926
                },
                {
                    "name": "E4",
                    "midi": 64,
                    "time": 12.929056,
                    "velocity": 0.48031496062992124,
                    "duration": 0.4617520000000006
                },
                {
                    "name": "G4",
                    "midi": 67,
                    "time": 12.929056,
                    "velocity": 0.48031496062992124,
                    "duration": 0.4617520000000006
                },
                {
                    "name": "B4",
                    "midi": 71,
                    "time": 12.929056,
                    "velocity": 0.5669291338582677,
                    "duration": 0.4617520000000006
                },
                {
                    "name": "E4",
                    "midi": 64,
                    "time": 13.390808,
                    "velocity": 0.4645669291338583,
                    "duration": 0.4617520000000006
                },
                {
                    "name": "G4",
                    "midi": 67,
                    "time": 13.390808,
                    "velocity": 0.4645669291338583,
                    "duration": 0.4617520000000006
                },
                {
                    "name": "B4",
                    "midi": 71,
                    "time": 13.390808,
                    "velocity": 0.5590551181102362,
                    "duration": 0.4617520000000006
                },
                {
                    "name": "A4",
                    "midi": 69,
                    "time": 13.85256,
                    "velocity": 0.5196850393700787,
                    "duration": 0.4617520000000006
                },
                {
                    "name": "C5",
                    "midi": 72,
                    "time": 13.85256,
                    "velocity": 0.5196850393700787,
                    "duration": 0.4617520000000006
                },
                {
                    "name": "G5",
                    "midi": 79,
                    "time": 13.85256,
                    "velocity": 0.6141732283464567,
                    "duration": 0.4617520000000006
                },
                {
                    "name": "A4",
                    "midi": 69,
                    "time": 14.314312000000001,
                    "velocity": 0.48031496062992124,
                    "duration": 0.4617520000000006
                },
                {
                    "name": "C5",
                    "midi": 72,
                    "time": 14.314312000000001,
                    "velocity": 0.48031496062992124,
                    "duration": 0.4617520000000006
                },
                {
                    "name": "F#5",
                    "midi": 78,
                    "time": 14.314312000000001,
                    "velocity": 0.5748031496062992,
                    "duration": 0.4617520000000006
                },
                {
                    "name": "G4",
                    "midi": 67,
                    "time": 14.776064000000002,
                    "velocity": 0.4330708661417323,
                    "duration": 0.9235039999999994
                },
                {
                    "name": "B4",
                    "midi": 71,
                    "time": 14.776064000000002,
                    "velocity": 0.4330708661417323,
                    "duration": 0.9235039999999994
                },
                {
                    "name": "E5",
                    "midi": 76,
                    "time": 14.776064000000002,
                    "velocity": 0.5118110236220472,
                    "duration": 0.9235039999999994
                },
                {
                    "name": "F#4",
                    "midi": 66,
                    "time": 15.699568000000001,
                    "velocity": 0.3543307086614173,
                    "duration": 0.46175199999999883
                },
                {
                    "name": "B4",
                    "midi": 71,
                    "time": 15.699568000000001,
                    "velocity": 0.3543307086614173,
                    "duration": 0.46175199999999883
                },
                {
                    "name": "D#5",
                    "midi": 75,
                    "time": 15.699568000000001,
                    "velocity": 0.4251968503937008,
                    "duration": 0.46175199999999883
                },
                {
                    "name": "F#4",
                    "midi": 66,
                    "time": 16.16132,
                    "velocity": 0.3858267716535433,
                    "duration": 0.4617520000000006
                },
                {
                    "name": "G4",
                    "midi": 67,
                    "time": 16.623072,
                    "velocity": 0.41732283464566927,
                    "duration": 0.4617520000000006
                },
                {
                    "name": "F#4",
                    "midi": 66,
                    "time": 17.084824,
                    "velocity": 0.3543307086614173,
                    "duration": 0.4617520000000006
                },
                {
                    "name": "G4",
                    "midi": 67,
                    "time": 17.084824,
                    "velocity": 0.4251968503937008,
                    "duration": 0.4617520000000006
                },
                {
                    "name": "E4",
                    "midi": 64,
                    "time": 17.546576,
                    "velocity": 0.3543307086614173,
                    "duration": 0.4617520000000006
                },
                {
                    "name": "G4",
                    "midi": 67,
                    "time": 17.546576,
                    "velocity": 0.4251968503937008,
                    "duration": 0.4617520000000006
                },
                {
                    "name": "D4",
                    "midi": 62,
                    "time": 18.008328000000002,
                    "velocity": 0.3543307086614173,
                    "duration": 0.4617520000000006
                },
                {
                    "name": "G4",
                    "midi": 67,
                    "time": 18.008328000000002,
                    "velocity": 0.41732283464566927,
                    "duration": 0.4617520000000006
                },
                {
                    "name": "C4",
                    "midi": 60,
                    "time": 18.470080000000003,
                    "velocity": 0.3543307086614173,
                    "duration": 0.4617520000000006
                },
                {
                    "name": "G4",
                    "midi": 67,
                    "time": 18.470080000000003,
                    "velocity": 0.4251968503937008,
                    "duration": 0.4617520000000006
                },
                {
                    "name": "D4",
                    "midi": 62,
                    "time": 18.931832000000004,
                    "velocity": 0.33858267716535434,
                    "duration": 0.46175199999999705
                },
                {
                    "name": "F#4",
                    "midi": 66,
                    "time": 18.931832000000004,
                    "velocity": 0.4015748031496063,
                    "duration": 0.15391733333333235
                },
                {
                    "name": "A4",
                    "midi": 69,
                    "time": 19.085749333333336,
                    "velocity": 0.4015748031496063,
                    "duration": 0.15391733333333235
                },
                {
                    "name": "C5",
                    "midi": 72,
                    "time": 19.23966666666667,
                    "velocity": 0.3937007874015748,
                    "duration": 0.15391733333333235
                },
                {
                    "name": "G4",
                    "midi": 67,
                    "time": 19.393584,
                    "velocity": 0.3858267716535433,
                    "duration": 0.4617520000000006
                },
                {
                    "name": "D4",
                    "midi": 62,
                    "time": 19.393584,
                    "velocity": 0.3543307086614173,
                    "duration": 0.4617520000000006
                },
                {
                    "name": "B4",
                    "midi": 71,
                    "time": 19.393584,
                    "velocity": 0.4251968503937008,
                    "duration": 0.4617520000000006
                },
                {
                    "name": "B3",
                    "midi": 59,
                    "time": 19.855336,
                    "velocity": 0.3543307086614173,
                    "duration": 0.4617520000000006
                },
                {
                    "name": "D#4",
                    "midi": 63,
                    "time": 19.855336,
                    "velocity": 0.3543307086614173,
                    "duration": 0.4617520000000006
                },
                {
                    "name": "G4",
                    "midi": 67,
                    "time": 19.855336,
                    "velocity": 0.41732283464566927,
                    "duration": 0.34631399999999957
                },
                {
                    "name": "F#4",
                    "midi": 66,
                    "time": 20.20165,
                    "velocity": 0.3858267716535433,
                    "duration": 0.11543800000000104
                },
                {
                    "name": "C4",
                    "midi": 60,
                    "time": 20.317088000000002,
                    "velocity": 0.3464566929133858,
                    "duration": 0.4617520000000006
                },
                {
                    "name": "E4",
                    "midi": 64,
                    "time": 20.317088000000002,
                    "velocity": 0.4094488188976378,
                    "duration": 0.4617520000000006
                },
                {
                    "name": "C4",
                    "midi": 60,
                    "time": 20.778840000000002,
                    "velocity": 0.33070866141732286,
                    "duration": 0.4617520000000006
                },
                {
                    "name": "E4",
                    "midi": 64,
                    "time": 20.778840000000002,
                    "velocity": 0.3937007874015748,
                    "duration": 0.4617520000000006
                },
                {
                    "name": "B3",
                    "midi": 59,
                    "time": 21.240592000000003,
                    "velocity": 0.33070866141732286,
                    "duration": 0.4617520000000006
                },
                {
                    "name": "E4",
                    "midi": 64,
                    "time": 21.240592000000003,
                    "velocity": 0.3937007874015748,
                    "duration": 0.4617520000000006
                },
                {
                    "name": "F#3",
                    "midi": 54,
                    "time": 21.702344000000004,
                    "velocity": 0.33070866141732286,
                    "duration": 0.4617520000000006
                },
                {
                    "name": "A3",
                    "midi": 57,
                    "time": 21.702344000000004,
                    "velocity": 0.33070866141732286,
                    "duration": 0.4617520000000006
                },
                {
                    "name": "C4",
                    "midi": 60,
                    "time": 21.702344000000004,
                    "velocity": 0.33070866141732286,
                    "duration": 0.4617520000000006
                },
                {
                    "name": "F#4",
                    "midi": 66,
                    "time": 21.702344000000004,
                    "velocity": 0.3937007874015748,
                    "duration": 0.34631399999999957
                },
                {
                    "name": "D#4",
                    "midi": 63,
                    "time": 22.048658000000003,
                    "velocity": 0.3543307086614173,
                    "duration": 0.11543800000000104
                },
                {
                    "name": "F#3",
                    "midi": 54,
                    "time": 22.164096000000004,
                    "velocity": 0.2992125984251969,
                    "duration": 0.4617520000000006
                },
                {
                    "name": "A3",
                    "midi": 57,
                    "time": 22.164096000000004,
                    "velocity": 0.3228346456692913,
                    "duration": 0.4617520000000006
                },
                {
                    "name": "C4",
                    "midi": 60,
                    "time": 22.164096000000004,
                    "velocity": 0.3228346456692913,
                    "duration": 0.4617520000000006
                },
                {
                    "name": "D#4",
                    "midi": 63,
                    "time": 22.164096000000004,
                    "velocity": 0.3858267716535433,
                    "duration": 0.4617520000000006
                },
                {
                    "name": "G3",
                    "midi": 55,
                    "time": 22.625848000000005,
                    "velocity": 0.2755905511811024,
                    "duration": 0.9235040000000012
                },
                {
                    "name": "B3",
                    "midi": 59,
                    "time": 22.625848000000005,
                    "velocity": 0.2755905511811024,
                    "duration": 0.9235040000000012
                },
                {
                    "name": "E4",
                    "midi": 64,
                    "time": 22.625848000000005,
                    "velocity": 0.33070866141732286,
                    "duration": 0.9235040000000012
                },
                {
                    "name": "B3",
                    "midi": 59,
                    "time": 23.549352000000006,
                    "velocity": 0.5354330708661418,
                    "duration": 0.4617520000000006
                },
                {
                    "name": "E3",
                    "midi": 52,
                    "time": 24.011104000000007,
                    "velocity": 0.4645669291338583,
                    "duration": 0.4617520000000006
                },
                {
                    "name": "G3",
                    "midi": 55,
                    "time": 24.011104000000007,
                    "velocity": 0.4645669291338583,
                    "duration": 0.4617520000000006
                },
                {
                    "name": "B3",
                    "midi": 59,
                    "time": 24.011104000000007,
                    "velocity": 0.4645669291338583,
                    "duration": 0.4617520000000006
                },
                {
                    "name": "E4",
                    "midi": 64,
                    "time": 24.011104000000007,
                    "velocity": 0.5511811023622047,
                    "duration": 0.4617520000000006
                },
                {
                    "name": "E3",
                    "midi": 52,
                    "time": 24.472856000000007,
                    "velocity": 0.4645669291338583,
                    "duration": 0.4617520000000006
                },
                {
                    "name": "G3",
                    "midi": 55,
                    "time": 24.472856000000007,
                    "velocity": 0.4645669291338583,
                    "duration": 0.4617520000000006
                },
                {
                    "name": "B3",
                    "midi": 59,
                    "time": 24.472856000000007,
                    "velocity": 0.4645669291338583,
                    "duration": 0.4617520000000006
                },
                {
                    "name": "E4",
                    "midi": 64,
                    "time": 24.472856000000007,
                    "velocity": 0.5511811023622047,
                    "duration": 0.4617520000000006
                },
                {
                    "name": "G3",
                    "midi": 55,
                    "time": 24.934608000000008,
                    "velocity": 0.47244094488188976,
                    "duration": 0.4617520000000006
                },
                {
                    "name": "B3",
                    "midi": 59,
                    "time": 24.934608000000008,
                    "velocity": 0.47244094488188976,
                    "duration": 0.4617520000000006
                },
                {
                    "name": "E4",
                    "midi": 64,
                    "time": 24.934608000000008,
                    "velocity": 0.47244094488188976,
                    "duration": 0.4617520000000006
                },
                {
                    "name": "G4",
                    "midi": 67,
                    "time": 24.934608000000008,
                    "velocity": 0.5590551181102362,
                    "duration": 0.4617520000000006
                },
                {
                    "name": "A3",
                    "midi": 57,
                    "time": 25.39636000000001,
                    "velocity": 0.47244094488188976,
                    "duration": 0.4617520000000006
                },
                {
                    "name": "B3",
                    "midi": 59,
                    "time": 25.39636000000001,
                    "velocity": 0.47244094488188976,
                    "duration": 0.4617520000000006
                },
                {
                    "name": "F#4",
                    "midi": 66,
                    "time": 25.39636000000001,
                    "velocity": 0.47244094488188976,
                    "duration": 0.4617520000000006
                },
                {
                    "name": "A4",
                    "midi": 69,
                    "time": 25.39636000000001,
                    "velocity": 0.5590551181102362,
                    "duration": 0.4617520000000006
                },
                {
                    "name": "B3",
                    "midi": 59,
                    "time": 25.85811200000001,
                    "velocity": 0.48031496062992124,
                    "duration": 0.4617520000000006
                },
                {
                    "name": "E4",
                    "midi": 64,
                    "time": 25.85811200000001,
                    "velocity": 0.48031496062992124,
                    "duration": 0.4617520000000006
                },
                {
                    "name": "G4",
                    "midi": 67,
                    "time": 25.85811200000001,
                    "velocity": 0.48031496062992124,
                    "duration": 0.4617520000000006
                },
                {
                    "name": "B4",
                    "midi": 71,
                    "time": 25.85811200000001,
                    "velocity": 0.5669291338582677,
                    "duration": 0.4617520000000006
                },
                {
                    "name": "A3",
                    "midi": 57,
                    "time": 26.31986400000001,
                    "velocity": 0.4566929133858268,
                    "duration": 0.07695866666666618
                },
                {
                    "name": "E4",
                    "midi": 64,
                    "time": 26.31986400000001,
                    "velocity": 0.4566929133858268,
                    "duration": 0.07695866666666618
                },
                {
                    "name": "F#4",
                    "midi": 66,
                    "time": 26.31986400000001,
                    "velocity": 0.4566929133858268,
                    "duration": 0.07695866666666618
                },
                {
                    "name": "A4",
                    "midi": 69,
                    "time": 26.31986400000001,
                    "velocity": 0.5433070866141733,
                    "duration": 0.07695866666666618
                },
                {
                    "name": "B3",
                    "midi": 59,
                    "time": 26.473781333333342,
                    "velocity": 0.4566929133858268,
                    "duration": 0.07695866666666618
                },
                {
                    "name": "E4",
                    "midi": 64,
                    "time": 26.473781333333342,
                    "velocity": 0.4566929133858268,
                    "duration": 0.07695866666666618
                },
                {
                    "name": "G4",
                    "midi": 67,
                    "time": 26.473781333333342,
                    "velocity": 0.4566929133858268,
                    "duration": 0.07695866666666618
                },
                {
                    "name": "B4",
                    "midi": 71,
                    "time": 26.473781333333342,
                    "velocity": 0.5433070866141733,
                    "duration": 0.07695866666666618
                },
                {
                    "name": "C4",
                    "midi": 60,
                    "time": 26.627698666666674,
                    "velocity": 0.4566929133858268,
                    "duration": 0.07695866666666618
                },
                {
                    "name": "E4",
                    "midi": 64,
                    "time": 26.627698666666674,
                    "velocity": 0.4566929133858268,
                    "duration": 0.07695866666666618
                },
                {
                    "name": "A4",
                    "midi": 69,
                    "time": 26.627698666666674,
                    "velocity": 0.4566929133858268,
                    "duration": 0.07695866666666618
                },
                {
                    "name": "C5",
                    "midi": 72,
                    "time": 26.627698666666674,
                    "velocity": 0.5433070866141733,
                    "duration": 0.07695866666666618
                },
                {
                    "name": "B3",
                    "midi": 59,
                    "time": 26.781616000000007,
                    "velocity": 0.4881889763779528,
                    "duration": 0.4617520000000006
                },
                {
                    "name": "E4",
                    "midi": 64,
                    "time": 26.781616000000007,
                    "velocity": 0.4881889763779528,
                    "duration": 0.4617520000000006
                },
                {
                    "name": "G4",
                    "midi": 67,
                    "time": 26.781616000000007,
                    "velocity": 0.4881889763779528,
                    "duration": 0.4617520000000006
                },
                {
                    "name": "B4",
                    "midi": 71,
                    "time": 26.781616000000007,
                    "velocity": 0.5748031496062992,
                    "duration": 0.4617520000000006
                },
                {
                    "name": "G3",
                    "midi": 55,
                    "time": 27.243368000000007,
                    "velocity": 0.44881889763779526,
                    "duration": 0.34631399999999957
                },
                {
                    "name": "B3",
                    "midi": 59,
                    "time": 27.243368000000007,
                    "velocity": 0.44881889763779526,
                    "duration": 0.34631399999999957
                },
                {
                    "name": "E4",
                    "midi": 64,
                    "time": 27.243368000000007,
                    "velocity": 0.44881889763779526,
                    "duration": 0.34631399999999957
                },
                {
                    "name": "G4",
                    "midi": 67,
                    "time": 27.243368000000007,
                    "velocity": 0.5354330708661418,
                    "duration": 0.34631399999999957
                },
                {
                    "name": "A3",
                    "midi": 57,
                    "time": 27.589682000000007,
                    "velocity": 0.48031496062992124,
                    "duration": 0.11543800000000104
                },
                {
                    "name": "F#4",
                    "midi": 66,
                    "time": 27.589682000000007,
                    "velocity": 0.48031496062992124,
                    "duration": 0.11543800000000104
                },
                {
                    "name": "A4",
                    "midi": 69,
                    "time": 27.589682000000007,
                    "velocity": 0.5669291338582677,
                    "duration": 0.11543800000000104
                },
                {
                    "name": "B3",
                    "midi": 59,
                    "time": 27.705120000000008,
                    "velocity": 0.48031496062992124,
                    "duration": 0.4617520000000006
                },
                {
                    "name": "E4",
                    "midi": 64,
                    "time": 27.705120000000008,
                    "velocity": 0.48031496062992124,
                    "duration": 0.4617520000000006
                },
                {
                    "name": "G4",
                    "midi": 67,
                    "time": 27.705120000000008,
                    "velocity": 0.48031496062992124,
                    "duration": 0.4617520000000006
                },
                {
                    "name": "B4",
                    "midi": 71,
                    "time": 27.705120000000008,
                    "velocity": 0.5669291338582677,
                    "duration": 0.4617520000000006
                },
                {
                    "name": "B3",
                    "midi": 59,
                    "time": 28.16687200000001,
                    "velocity": 0.4645669291338583,
                    "duration": 0.4617520000000006
                },
                {
                    "name": "E4",
                    "midi": 64,
                    "time": 28.16687200000001,
                    "velocity": 0.4645669291338583,
                    "duration": 0.4617520000000006
                },
                {
                    "name": "G4",
                    "midi": 67,
                    "time": 28.16687200000001,
                    "velocity": 0.4645669291338583,
                    "duration": 0.4617520000000006
                },
                {
                    "name": "B4",
                    "midi": 71,
                    "time": 28.16687200000001,
                    "velocity": 0.5590551181102362,
                    "duration": 0.4617520000000006
                },
                {
                    "name": "B4",
                    "midi": 71,
                    "time": 28.62862400000001,
                    "velocity": 0.5196850393700787,
                    "duration": 0.4617520000000006
                },
                {
                    "name": "C5",
                    "midi": 72,
                    "time": 28.62862400000001,
                    "velocity": 0.5354330708661418,
                    "duration": 0.4617520000000006
                },
                {
                    "name": "G5",
                    "midi": 79,
                    "time": 28.62862400000001,
                    "velocity": 0.6299212598425197,
                    "duration": 0.4617520000000006
                },
                {
                    "name": "A4",
                    "midi": 69,
                    "time": 29.09037600000001,
                    "velocity": 0.48031496062992124,
                    "duration": 0.4617520000000006
                },
                {
                    "name": "C5",
                    "midi": 72,
                    "time": 29.09037600000001,
                    "velocity": 0.48031496062992124,
                    "duration": 0.4617520000000006
                },
                {
                    "name": "F#5",
                    "midi": 78,
                    "time": 29.09037600000001,
                    "velocity": 0.5748031496062992,
                    "duration": 0.4617520000000006
                },
                {
                    "name": "G4",
                    "midi": 67,
                    "time": 29.55212800000001,
                    "velocity": 0.4330708661417323,
                    "duration": 0.9235040000000012
                },
                {
                    "name": "B4",
                    "midi": 71,
                    "time": 29.55212800000001,
                    "velocity": 0.4330708661417323,
                    "duration": 0.9235040000000012
                },
                {
                    "name": "E5",
                    "midi": 76,
                    "time": 29.55212800000001,
                    "velocity": 0.5118110236220472,
                    "duration": 0.9235040000000012
                },
                {
                    "name": "F#4",
                    "midi": 66,
                    "time": 30.47563200000001,
                    "velocity": 0.3543307086614173,
                    "duration": 0.4386644000000004
                },
                {
                    "name": "B4",
                    "midi": 71,
                    "time": 30.47563200000001,
                    "velocity": 0.3543307086614173,
                    "duration": 0.4386644000000004
                },
                {
                    "name": "D#5",
                    "midi": 75,
                    "time": 30.47563200000001,
                    "velocity": 0.4251968503937008,
                    "duration": 0.4386644000000004
                },
                {
                    "name": "F#4",
                    "midi": 66,
                    "time": 30.937384000000012,
                    "velocity": 0.3858267716535433,
                    "duration": 0.4617520000000006
                },
                {
                    "name": "G4",
                    "midi": 67,
                    "time": 31.399136000000013,
                    "velocity": 0.41732283464566927,
                    "duration": 0.4617520000000006
                },
                {
                    "name": "F#4",
                    "midi": 66,
                    "time": 31.860888000000013,
                    "velocity": 0.3543307086614173,
                    "duration": 0.4617520000000006
                },
                {
                    "name": "G4",
                    "midi": 67,
                    "time": 31.860888000000013,
                    "velocity": 0.4251968503937008,
                    "duration": 0.4617520000000006
                },
                {
                    "name": "E4",
                    "midi": 64,
                    "time": 32.322640000000014,
                    "velocity": 0.3543307086614173,
                    "duration": 0.46175199999999705
                },
                {
                    "name": "G4",
                    "midi": 67,
                    "time": 32.322640000000014,
                    "velocity": 0.4251968503937008,
                    "duration": 0.46175199999999705
                },
                {
                    "name": "D4",
                    "midi": 62,
                    "time": 32.78439200000001,
                    "velocity": 0.3543307086614173,
                    "duration": 0.46175199999999705
                },
                {
                    "name": "G4",
                    "midi": 67,
                    "time": 32.78439200000001,
                    "velocity": 0.41732283464566927,
                    "duration": 0.46175199999999705
                },
                {
                    "name": "C#4",
                    "midi": 61,
                    "time": 33.24614400000001,
                    "velocity": 0.3543307086614173,
                    "duration": 0.46175199999999705
                },
                {
                    "name": "G4",
                    "midi": 67,
                    "time": 33.24614400000001,
                    "velocity": 0.4251968503937008,
                    "duration": 0.46175199999999705
                },
                {
                    "name": "D4",
                    "midi": 62,
                    "time": 33.707896000000005,
                    "velocity": 0.33858267716535434,
                    "duration": 0.46175199999999705
                },
                {
                    "name": "F#4",
                    "midi": 66,
                    "time": 33.707896000000005,
                    "velocity": 0.4015748031496063,
                    "duration": 0.15391733333333235
                },
                {
                    "name": "A4",
                    "midi": 69,
                    "time": 33.86181333333334,
                    "velocity": 0.4015748031496063,
                    "duration": 0.15391733333333235
                },
                {
                    "name": "C5",
                    "midi": 72,
                    "time": 34.01573066666667,
                    "velocity": 0.3937007874015748,
                    "duration": 0.15391733333333235
                },
                {
                    "name": "G4",
                    "midi": 67,
                    "time": 34.169648,
                    "velocity": 0.3858267716535433,
                    "duration": 0.46175199999999705
                },
                {
                    "name": "D4",
                    "midi": 62,
                    "time": 34.169648,
                    "velocity": 0.3543307086614173,
                    "duration": 0.46175199999999705
                },
                {
                    "name": "B4",
                    "midi": 71,
                    "time": 34.169648,
                    "velocity": 0.4251968503937008,
                    "duration": 0.46175199999999705
                },
                {
                    "name": "B3",
                    "midi": 59,
                    "time": 34.6314,
                    "velocity": 0.3543307086614173,
                    "duration": 0.46175199999999705
                },
                {
                    "name": "D4",
                    "midi": 62,
                    "time": 34.6314,
                    "velocity": 0.3543307086614173,
                    "duration": 0.46175199999999705
                },
                {
                    "name": "G4",
                    "midi": 67,
                    "time": 34.6314,
                    "velocity": 0.41732283464566927,
                    "duration": 0.34631399999999957
                },
                {
                    "name": "F4",
                    "midi": 65,
                    "time": 34.977714,
                    "velocity": 0.3858267716535433,
                    "duration": 0.11543799999999749
                },
                {
                    "name": "C4",
                    "midi": 60,
                    "time": 35.093151999999996,
                    "velocity": 0.3464566929133858,
                    "duration": 0.46175199999999705
                },
                {
                    "name": "E4",
                    "midi": 64,
                    "time": 35.093151999999996,
                    "velocity": 0.4094488188976378,
                    "duration": 0.46175199999999705
                },
                {
                    "name": "C4",
                    "midi": 60,
                    "time": 35.55490399999999,
                    "velocity": 0.33070866141732286,
                    "duration": 0.46175199999999705
                },
                {
                    "name": "E4",
                    "midi": 64,
                    "time": 35.55490399999999,
                    "velocity": 0.3937007874015748,
                    "duration": 0.46175199999999705
                },
                {
                    "name": "B3",
                    "midi": 59,
                    "time": 36.01665599999999,
                    "velocity": 0.33070866141732286,
                    "duration": 0.46175199999999705
                },
                {
                    "name": "E4",
                    "midi": 64,
                    "time": 36.01665599999999,
                    "velocity": 0.3937007874015748,
                    "duration": 0.46175199999999705
                },
                {
                    "name": "F#3",
                    "midi": 54,
                    "time": 36.47840799999999,
                    "velocity": 0.33070866141732286,
                    "duration": 0.46175199999999705
                },
                {
                    "name": "A3",
                    "midi": 57,
                    "time": 36.47840799999999,
                    "velocity": 0.33070866141732286,
                    "duration": 0.46175199999999705
                },
                {
                    "name": "C4",
                    "midi": 60,
                    "time": 36.47840799999999,
                    "velocity": 0.33070866141732286,
                    "duration": 0.46175199999999705
                },
                {
                    "name": "F#4",
                    "midi": 66,
                    "time": 36.47840799999999,
                    "velocity": 0.3937007874015748,
                    "duration": 0.34631399999999957
                },
                {
                    "name": "D#4",
                    "midi": 63,
                    "time": 36.82472199999999,
                    "velocity": 0.3543307086614173,
                    "duration": 0.11543799999999749
                },
                {
                    "name": "F#3",
                    "midi": 54,
                    "time": 36.940159999999985,
                    "velocity": 0.2992125984251969,
                    "duration": 0.46175199999999705
                },
                {
                    "name": "A3",
                    "midi": 57,
                    "time": 36.940159999999985,
                    "velocity": 0.3228346456692913,
                    "duration": 0.46175199999999705
                },
                {
                    "name": "C4",
                    "midi": 60,
                    "time": 36.940159999999985,
                    "velocity": 0.3228346456692913,
                    "duration": 0.46175199999999705
                },
                {
                    "name": "D#4",
                    "midi": 63,
                    "time": 36.940159999999985,
                    "velocity": 0.3858267716535433,
                    "duration": 0.46175199999999705
                },
                {
                    "name": "G3",
                    "midi": 55,
                    "time": 37.40191199999998,
                    "velocity": 0.2755905511811024,
                    "duration": 0.9148461500000025
                },
                {
                    "name": "B3",
                    "midi": 59,
                    "time": 37.40191199999998,
                    "velocity": 0.2755905511811024,
                    "duration": 0.9148461500000025
                },
                {
                    "name": "E4",
                    "midi": 64,
                    "time": 37.40191199999998,
                    "velocity": 0.33070866141732286,
                    "duration": 0.9148461500000025
                },
                {
                    "name": "B3",
                    "midi": 59,
                    "time": 38.32541599999998,
                    "velocity": 0.44881889763779526,
                    "duration": 0.46175199999999705
                },
                {
                    "name": "F#3",
                    "midi": 54,
                    "time": 38.78716799999998,
                    "velocity": 0.4015748031496063,
                    "duration": 0.46175199999999705
                },
                {
                    "name": "B3",
                    "midi": 59,
                    "time": 38.78716799999998,
                    "velocity": 0.4015748031496063,
                    "duration": 0.46175199999999705
                },
                {
                    "name": "D#4",
                    "midi": 63,
                    "time": 38.78716799999998,
                    "velocity": 0.47244094488188976,
                    "duration": 0.46175199999999705
                },
                {
                    "name": "F#3",
                    "midi": 54,
                    "time": 39.24891999999998,
                    "velocity": 0.4094488188976378,
                    "duration": 0.46175199999999705
                },
                {
                    "name": "B3",
                    "midi": 59,
                    "time": 39.24891999999998,
                    "velocity": 0.4094488188976378,
                    "duration": 0.46175199999999705
                },
                {
                    "name": "D#4",
                    "midi": 63,
                    "time": 39.24891999999998,
                    "velocity": 0.4881889763779528,
                    "duration": 0.46175199999999705
                },
                {
                    "name": "G3",
                    "midi": 55,
                    "time": 39.710671999999974,
                    "velocity": 0.4251968503937008,
                    "duration": 0.46175199999999705
                },
                {
                    "name": "B3",
                    "midi": 59,
                    "time": 39.710671999999974,
                    "velocity": 0.4251968503937008,
                    "duration": 0.46175199999999705
                },
                {
                    "name": "C#4",
                    "midi": 61,
                    "time": 39.710671999999974,
                    "velocity": 0.4251968503937008,
                    "duration": 0.46175199999999705
                },
                {
                    "name": "E4",
                    "midi": 64,
                    "time": 39.710671999999974,
                    "velocity": 0.5039370078740157,
                    "duration": 0.46175199999999705
                },
                {
                    "name": "G3",
                    "midi": 55,
                    "time": 40.17242399999997,
                    "velocity": 0.4251968503937008,
                    "duration": 0.07695866666666973
                },
                {
                    "name": "C#4",
                    "midi": 61,
                    "time": 40.17242399999997,
                    "velocity": 0.4251968503937008,
                    "duration": 0.07695866666666973
                },
                {
                    "name": "E4",
                    "midi": 64,
                    "time": 40.17242399999997,
                    "velocity": 0.5118110236220472,
                    "duration": 0.07695866666666973
                },
                {
                    "name": "A3",
                    "midi": 57,
                    "time": 40.32634133333331,
                    "velocity": 0.41732283464566927,
                    "duration": 0.07695866666666973
                },
                {
                    "name": "D#4",
                    "midi": 63,
                    "time": 40.32634133333331,
                    "velocity": 0.41732283464566927,
                    "duration": 0.07695866666666973
                },
                {
                    "name": "F#4",
                    "midi": 66,
                    "time": 40.32634133333331,
                    "velocity": 0.49606299212598426,
                    "duration": 0.07695866666666973
                },
                {
                    "name": "B3",
                    "midi": 59,
                    "time": 40.48025866666665,
                    "velocity": 0.41732283464566927,
                    "duration": 0.07695866666666973
                },
                {
                    "name": "E4",
                    "midi": 64,
                    "time": 40.48025866666665,
                    "velocity": 0.41732283464566927,
                    "duration": 0.07695866666666973
                },
                {
                    "name": "G4",
                    "midi": 67,
                    "time": 40.48025866666665,
                    "velocity": 0.49606299212598426,
                    "duration": 0.07695866666666973
                },
                {
                    "name": "A3",
                    "midi": 57,
                    "time": 40.63417599999999,
                    "velocity": 0.44881889763779526,
                    "duration": 0.46175199999999705
                },
                {
                    "name": "D#4",
                    "midi": 63,
                    "time": 40.63417599999999,
                    "velocity": 0.44881889763779526,
                    "duration": 0.46175199999999705
                },
                {
                    "name": "F#4",
                    "midi": 66,
                    "time": 40.63417599999999,
                    "velocity": 0.5275590551181102,
                    "duration": 0.46175199999999705
                },
                {
                    "name": "A3",
                    "midi": 57,
                    "time": 41.09592799999999,
                    "velocity": 0.4566929133858268,
                    "duration": 0.46175199999999705
                },
                {
                    "name": "D#4",
                    "midi": 63,
                    "time": 41.09592799999999,
                    "velocity": 0.4566929133858268,
                    "duration": 0.46175199999999705
                },
                {
                    "name": "F#4",
                    "midi": 66,
                    "time": 41.09592799999999,
                    "velocity": 0.5433070866141733,
                    "duration": 0.46175199999999705
                },
                {
                    "name": "B3",
                    "midi": 59,
                    "time": 41.55767999999998,
                    "velocity": 0.47244094488188976,
                    "duration": 0.46175199999999705
                },
                {
                    "name": "E4",
                    "midi": 64,
                    "time": 41.55767999999998,
                    "velocity": 0.47244094488188976,
                    "duration": 0.46175199999999705
                },
                {
                    "name": "G4",
                    "midi": 67,
                    "time": 41.55767999999998,
                    "velocity": 0.5669291338582677,
                    "duration": 0.46175199999999705
                },
                {
                    "name": "B3",
                    "midi": 59,
                    "time": 42.01943199999998,
                    "velocity": 0.4881889763779528,
                    "duration": 0.07695866666666973
                },
                {
                    "name": "E4",
                    "midi": 64,
                    "time": 42.01943199999998,
                    "velocity": 0.4881889763779528,
                    "duration": 0.07695866666666973
                },
                {
                    "name": "G4",
                    "midi": 67,
                    "time": 42.01943199999998,
                    "velocity": 0.5748031496062992,
                    "duration": 0.07695866666666973
                },
                {
                    "name": "B3",
                    "midi": 59,
                    "time": 42.17334933333332,
                    "velocity": 0.48031496062992124,
                    "duration": 0.07695866666666973
                },
                {
                    "name": "F#4",
                    "midi": 66,
                    "time": 42.17334933333332,
                    "velocity": 0.48031496062992124,
                    "duration": 0.07695866666666973
                },
                {
                    "name": "A4",
                    "midi": 69,
                    "time": 42.17334933333332,
                    "velocity": 0.5669291338582677,
                    "duration": 0.07695866666666973
                },
                {
                    "name": "B3",
                    "midi": 59,
                    "time": 42.32726666666666,
                    "velocity": 0.48031496062992124,
                    "duration": 0.07695866666666973
                },
                {
                    "name": "G4",
                    "midi": 67,
                    "time": 42.32726666666666,
                    "velocity": 0.48031496062992124,
                    "duration": 0.07695866666666973
                },
                {
                    "name": "B4",
                    "midi": 71,
                    "time": 42.32726666666666,
                    "velocity": 0.5669291338582677,
                    "duration": 0.07695866666666973
                },
                {
                    "name": "C4",
                    "midi": 60,
                    "time": 42.481184,
                    "velocity": 0.4330708661417323,
                    "duration": 0.46175199999999705
                },
                {
                    "name": "E4",
                    "midi": 64,
                    "time": 42.481184,
                    "velocity": 0.44881889763779526,
                    "duration": 0.46175199999999705
                },
                {
                    "name": "F#4",
                    "midi": 66,
                    "time": 42.481184,
                    "velocity": 0.49606299212598426,
                    "duration": 0.46175199999999705
                },
                {
                    "name": "A4",
                    "midi": 69,
                    "time": 42.481184,
                    "velocity": 0.5905511811023622,
                    "duration": 0.46175199999999705
                },
                {
                    "name": "C4",
                    "midi": 60,
                    "time": 42.942935999999996,
                    "velocity": 0.47244094488188976,
                    "duration": 0.07695866666666973
                },
                {
                    "name": "E4",
                    "midi": 64,
                    "time": 42.942935999999996,
                    "velocity": 0.5039370078740157,
                    "duration": 0.07695866666666973
                },
                {
                    "name": "F#4",
                    "midi": 66,
                    "time": 42.942935999999996,
                    "velocity": 0.5196850393700787,
                    "duration": 0.07695866666666973
                },
                {
                    "name": "A4",
                    "midi": 69,
                    "time": 42.942935999999996,
                    "velocity": 0.6062992125984252,
                    "duration": 0.07695866666666973
                },
                {
                    "name": "G4",
                    "midi": 67,
                    "time": 43.096853333333335,
                    "velocity": 0.5039370078740157,
                    "duration": 0.07695866666666973
                },
                {
                    "name": "E4",
                    "midi": 64,
                    "time": 43.096853333333335,
                    "velocity": 0.5039370078740157,
                    "duration": 0.07695866666666973
                },
                {
                    "name": "B4",
                    "midi": 71,
                    "time": 43.096853333333335,
                    "velocity": 0.5984251968503937,
                    "duration": 0.07695866666666973
                },
                {
                    "name": "E4",
                    "midi": 64,
                    "time": 43.250770666666675,
                    "velocity": 0.5039370078740157,
                    "duration": 0.07695866666666973
                },
                {
                    "name": "C5",
                    "midi": 72,
                    "time": 43.250770666666675,
                    "velocity": 0.6062992125984252,
                    "duration": 0.07695866666666973
                },
                {
                    "name": "A4",
                    "midi": 69,
                    "time": 43.250770666666675,
                    "velocity": 0.5039370078740157,
                    "duration": 0.07695866666666973
                },
                {
                    "name": "G4",
                    "midi": 67,
                    "time": 43.404688000000014,
                    "velocity": 0.5275590551181102,
                    "duration": 0.46175199999999705
                },
                {
                    "name": "E4",
                    "midi": 64,
                    "time": 43.404688000000014,
                    "velocity": 0.5275590551181102,
                    "duration": 0.46175199999999705
                },
                {
                    "name": "B4",
                    "midi": 71,
                    "time": 43.404688000000014,
                    "velocity": 0.6220472440944882,
                    "duration": 0.46175199999999705
                },
                {
                    "name": "E4",
                    "midi": 64,
                    "time": 43.86644000000001,
                    "velocity": 0.5590551181102362,
                    "duration": 0.07695866666666973
                },
                {
                    "name": "B4",
                    "midi": 71,
                    "time": 43.86644000000001,
                    "velocity": 0.6535433070866141,
                    "duration": 0.07695866666666973
                },
                {
                    "name": "G4",
                    "midi": 67,
                    "time": 43.86644000000001,
                    "velocity": 0.5590551181102362,
                    "duration": 0.07695866666666973
                },
                {
                    "name": "F#4",
                    "midi": 66,
                    "time": 44.02035733333335,
                    "velocity": 0.5275590551181102,
                    "duration": 0.07695866666666973
                },
                {
                    "name": "D#5",
                    "midi": 75,
                    "time": 44.02035733333335,
                    "velocity": 0.6299212598425197,
                    "duration": 0.07695866666666973
                },
                {
                    "name": "A4",
                    "midi": 69,
                    "time": 44.02035733333335,
                    "velocity": 0.5275590551181102,
                    "duration": 0.07695866666666973
                },
                {
                    "name": "E5",
                    "midi": 76,
                    "time": 44.17427466666669,
                    "velocity": 0.6377952755905512,
                    "duration": 0.07695866666666973
                },
                {
                    "name": "G4",
                    "midi": 67,
                    "time": 44.17427466666669,
                    "velocity": 0.5354330708661418,
                    "duration": 0.07695866666666973
                },
                {
                    "name": "B4",
                    "midi": 71,
                    "time": 44.17427466666669,
                    "velocity": 0.5354330708661418,
                    "duration": 0.07695866666666973
                },
                {
                    "name": "F#4",
                    "midi": 66,
                    "time": 44.32819200000003,
                    "velocity": 0.5433070866141733,
                    "duration": 0.46175199999999705
                },
                {
                    "name": "A4",
                    "midi": 69,
                    "time": 44.32819200000003,
                    "velocity": 0.5433070866141733,
                    "duration": 0.46175199999999705
                },
                {
                    "name": "D#5",
                    "midi": 75,
                    "time": 44.32819200000003,
                    "velocity": 0.6456692913385826,
                    "duration": 0.46175199999999705
                },
                {
                    "name": "F#4",
                    "midi": 66,
                    "time": 44.78994400000003,
                    "velocity": 0.5905511811023622,
                    "duration": 0.07695866666666973
                },
                {
                    "name": "A4",
                    "midi": 69,
                    "time": 44.78994400000003,
                    "velocity": 0.5905511811023622,
                    "duration": 0.07695866666666973
                },
                {
                    "name": "D#5",
                    "midi": 75,
                    "time": 44.78994400000003,
                    "velocity": 0.7007874015748031,
                    "duration": 0.07695866666666973
                },
                {
                    "name": "B4",
                    "midi": 71,
                    "time": 44.943861333333366,
                    "velocity": 0.5669291338582677,
                    "duration": 0.07695866666666973
                },
                {
                    "name": "G4",
                    "midi": 67,
                    "time": 44.943861333333366,
                    "velocity": 0.5669291338582677,
                    "duration": 0.07695866666666973
                },
                {
                    "name": "E5",
                    "midi": 76,
                    "time": 44.943861333333366,
                    "velocity": 0.6692913385826772,
                    "duration": 0.07695866666666973
                },
                {
                    "name": "A4",
                    "midi": 69,
                    "time": 45.097778666666706,
                    "velocity": 0.5826771653543307,
                    "duration": 0.07695866666666973
                },
                {
                    "name": "F#5",
                    "midi": 78,
                    "time": 45.097778666666706,
                    "velocity": 0.6850393700787402,
                    "duration": 0.07695866666666973
                },
                {
                    "name": "C5",
                    "midi": 72,
                    "time": 45.097778666666706,
                    "velocity": 0.5826771653543307,
                    "duration": 0.07695866666666973
                },
                {
                    "name": "B4",
                    "midi": 71,
                    "time": 45.251696000000045,
                    "velocity": 0.5826771653543307,
                    "duration": 0.46175199999999705
                },
                {
                    "name": "G4",
                    "midi": 67,
                    "time": 45.251696000000045,
                    "velocity": 0.5826771653543307,
                    "duration": 0.46175199999999705
                },
                {
                    "name": "E5",
                    "midi": 76,
                    "time": 45.251696000000045,
                    "velocity": 0.6850393700787402,
                    "duration": 0.46175199999999705
                },
                {
                    "name": "G4",
                    "midi": 67,
                    "time": 45.71344800000004,
                    "velocity": 0.6220472440944882,
                    "duration": 0.07695866666666973
                },
                {
                    "name": "E5",
                    "midi": 76,
                    "time": 45.71344800000004,
                    "velocity": 0.7401574803149606,
                    "duration": 0.07695866666666973
                },
                {
                    "name": "B4",
                    "midi": 71,
                    "time": 45.71344800000004,
                    "velocity": 0.6220472440944882,
                    "duration": 0.07695866666666973
                },
                {
                    "name": "G4",
                    "midi": 67,
                    "time": 45.86736533333338,
                    "velocity": 0.5905511811023622,
                    "duration": 0.07695866666666973
                },
                {
                    "name": "F#5",
                    "midi": 78,
                    "time": 45.86736533333338,
                    "velocity": 0.7007874015748031,
                    "duration": 0.07695866666666973
                },
                {
                    "name": "B4",
                    "midi": 71,
                    "time": 45.86736533333338,
                    "velocity": 0.5905511811023622,
                    "duration": 0.07695866666666973
                },
                {
                    "name": "G5",
                    "midi": 79,
                    "time": 46.02128266666672,
                    "velocity": 0.7086614173228346,
                    "duration": 0.07695866666666973
                },
                {
                    "name": "G4",
                    "midi": 67,
                    "time": 46.02128266666672,
                    "velocity": 0.5984251968503937,
                    "duration": 0.07695866666666973
                },
                {
                    "name": "B4",
                    "midi": 71,
                    "time": 46.02128266666672,
                    "velocity": 0.5984251968503937,
                    "duration": 0.07695866666666973
                },
                {
                    "name": "E5",
                    "midi": 76,
                    "time": 46.17520000000006,
                    "velocity": 0.6299212598425197,
                    "duration": 0.46175199999999705
                },
                {
                    "name": "A5",
                    "midi": 81,
                    "time": 46.17520000000006,
                    "velocity": 0.7401574803149606,
                    "duration": 0.46175199999999705
                },
                {
                    "name": "D5",
                    "midi": 74,
                    "time": 46.63695200000006,
                    "velocity": 0.6299212598425197,
                    "duration": 0.46175199999999705
                },
                {
                    "name": "G5",
                    "midi": 79,
                    "time": 46.63695200000006,
                    "velocity": 0.7401574803149606,
                    "duration": 0.46175199999999705
                },
                {
                    "name": "A5",
                    "midi": 81,
                    "time": 46.63695200000006,
                    "velocity": 0.7401574803149606,
                    "duration": 0.46175199999999705
                },
                {
                    "name": "C5",
                    "midi": 72,
                    "time": 47.098704000000055,
                    "velocity": 0.6299212598425197,
                    "duration": 0.46175199999999705
                },
                {
                    "name": "F#5",
                    "midi": 78,
                    "time": 47.098704000000055,
                    "velocity": 0.7401574803149606,
                    "duration": 0.46175199999999705
                },
                {
                    "name": "A5",
                    "midi": 81,
                    "time": 47.098704000000055,
                    "velocity": 0.7401574803149606,
                    "duration": 0.46175199999999705
                },
                {
                    "name": "B4",
                    "midi": 71,
                    "time": 47.56045600000005,
                    "velocity": 0.6299212598425197,
                    "duration": 0.46175199999999705
                },
                {
                    "name": "E5",
                    "midi": 76,
                    "time": 47.56045600000005,
                    "velocity": 0.7401574803149606,
                    "duration": 0.46175199999999705
                },
                {
                    "name": "A5",
                    "midi": 81,
                    "time": 47.56045600000005,
                    "velocity": 0.7401574803149606,
                    "duration": 0.46175199999999705
                },
                {
                    "name": "A4",
                    "midi": 69,
                    "time": 48.02220800000005,
                    "velocity": 0.6299212598425197,
                    "duration": 0.46175199999999705
                },
                {
                    "name": "D5",
                    "midi": 74,
                    "time": 48.02220800000005,
                    "velocity": 0.7401574803149606,
                    "duration": 0.46175199999999705
                },
                {
                    "name": "A5",
                    "midi": 81,
                    "time": 48.02220800000005,
                    "velocity": 0.7401574803149606,
                    "duration": 0.46175199999999705
                },
                {
                    "name": "G4",
                    "midi": 67,
                    "time": 48.483960000000046,
                    "velocity": 0.5826771653543307,
                    "duration": 0.34631399999999957
                },
                {
                    "name": "C5",
                    "midi": 72,
                    "time": 48.483960000000046,
                    "velocity": 0.7086614173228346,
                    "duration": 0.34631399999999957
                },
                {
                    "name": "A5",
                    "midi": 81,
                    "time": 48.483960000000046,
                    "velocity": 0.7244094488188977,
                    "duration": 0.34631399999999957
                },
                {
                    "name": "F#4",
                    "midi": 66,
                    "time": 48.830274000000045,
                    "velocity": 0.5905511811023622,
                    "duration": 0.5771899999999945
                },
                {
                    "name": "B4",
                    "midi": 71,
                    "time": 48.887993000000044,
                    "velocity": 0.7086614173228346,
                    "duration": 0.5194709999999958
                },
                {
                    "name": "A5",
                    "midi": 81,
                    "time": 48.94571200000004,
                    "velocity": 0.7086614173228346,
                    "duration": 0.46175199999999705
                },
                {
                    "name": "D#4",
                    "midi": 63,
                    "time": 49.40746400000004,
                    "velocity": 0.6220472440944882,
                    "duration": 0.07695866666666973
                },
                {
                    "name": "B4",
                    "midi": 71,
                    "time": 49.40746400000004,
                    "velocity": 0.7480314960629921,
                    "duration": 0.07695866666666973
                },
                {
                    "name": "A4",
                    "midi": 69,
                    "time": 49.40746400000004,
                    "velocity": 0.6220472440944882,
                    "duration": 0.07695866666666973
                },
                {
                    "name": "E4",
                    "midi": 64,
                    "time": 49.56138133333338,
                    "velocity": 0.5905511811023622,
                    "duration": 0.07695866666666973
                },
                {
                    "name": "C#5",
                    "midi": 73,
                    "time": 49.56138133333338,
                    "velocity": 0.7086614173228346,
                    "duration": 0.07695866666666973
                },
                {
                    "name": "A4",
                    "midi": 69,
                    "time": 49.56138133333338,
                    "velocity": 0.5905511811023622,
                    "duration": 0.07695866666666973
                },
                {
                    "name": "D#5",
                    "midi": 75,
                    "time": 49.71529866666672,
                    "velocity": 0.7165354330708661,
                    "duration": 0.07695866666666973
                },
                {
                    "name": "F#4",
                    "midi": 66,
                    "time": 49.71529866666672,
                    "velocity": 0.5984251968503937,
                    "duration": 0.07695866666666973
                },
                {
                    "name": "A4",
                    "midi": 69,
                    "time": 49.71529866666672,
                    "velocity": 0.5984251968503937,
                    "duration": 0.07695866666666973
                },
                {
                    "name": "E4",
                    "midi": 64,
                    "time": 49.86921600000006,
                    "velocity": 0.6220472440944882,
                    "duration": 0.46175199999999705
                },
                {
                    "name": "G4",
                    "midi": 67,
                    "time": 49.86921600000006,
                    "velocity": 0.6220472440944882,
                    "duration": 0.46175199999999705
                },
                {
                    "name": "E5",
                    "midi": 76,
                    "time": 49.86921600000006,
                    "velocity": 0.7401574803149606,
                    "duration": 0.46175199999999705
                },
                {
                    "name": "A4",
                    "midi": 69,
                    "time": 50.330968000000055,
                    "velocity": 0.6220472440944882,
                    "duration": 0.46175199999999705
                },
                {
                    "name": "F#4",
                    "midi": 66,
                    "time": 50.330968000000055,
                    "velocity": 0.6220472440944882,
                    "duration": 0.46175199999999705
                },
                {
                    "name": "D5",
                    "midi": 74,
                    "time": 50.330968000000055,
                    "velocity": 0.7401574803149606,
                    "duration": 0.46175199999999705
                },
                {
                    "name": "E5",
                    "midi": 76,
                    "time": 50.330968000000055,
                    "velocity": 0.7401574803149606,
                    "duration": 0.46175199999999705
                },
                {
                    "name": "E4",
                    "midi": 64,
                    "time": 50.79272000000005,
                    "velocity": 0.6220472440944882,
                    "duration": 0.46175199999999705
                },
                {
                    "name": "G4",
                    "midi": 67,
                    "time": 50.79272000000005,
                    "velocity": 0.6220472440944882,
                    "duration": 0.46175199999999705
                },
                {
                    "name": "C5",
                    "midi": 72,
                    "time": 50.79272000000005,
                    "velocity": 0.7401574803149606,
                    "duration": 0.46175199999999705
                },
                {
                    "name": "E5",
                    "midi": 76,
                    "time": 50.79272000000005,
                    "velocity": 0.7401574803149606,
                    "duration": 0.46175199999999705
                },
                {
                    "name": "D4",
                    "midi": 62,
                    "time": 51.25447200000005,
                    "velocity": 0.6220472440944882,
                    "duration": 0.46175199999999705
                },
                {
                    "name": "F#4",
                    "midi": 66,
                    "time": 51.25447200000005,
                    "velocity": 0.6220472440944882,
                    "duration": 0.46175199999999705
                },
                {
                    "name": "B4",
                    "midi": 71,
                    "time": 51.25447200000005,
                    "velocity": 0.7401574803149606,
                    "duration": 0.46175199999999705
                },
                {
                    "name": "E5",
                    "midi": 76,
                    "time": 51.25447200000005,
                    "velocity": 0.7401574803149606,
                    "duration": 0.46175199999999705
                },
                {
                    "name": "E4",
                    "midi": 64,
                    "time": 51.71622400000005,
                    "velocity": 0.6220472440944882,
                    "duration": 0.46175199999999705
                },
                {
                    "name": "A4",
                    "midi": 69,
                    "time": 51.71622400000005,
                    "velocity": 0.7401574803149606,
                    "duration": 0.46175199999999705
                },
                {
                    "name": "E5",
                    "midi": 76,
                    "time": 51.71622400000005,
                    "velocity": 0.7401574803149606,
                    "duration": 0.46175199999999705
                },
                {
                    "name": "D4",
                    "midi": 62,
                    "time": 52.177976000000044,
                    "velocity": 0.5826771653543307,
                    "duration": 0.46175199999999705
                },
                {
                    "name": "G4",
                    "midi": 67,
                    "time": 52.177976000000044,
                    "velocity": 0.7086614173228346,
                    "duration": 0.46175199999999705
                },
                {
                    "name": "E5",
                    "midi": 76,
                    "time": 52.177976000000044,
                    "velocity": 0.7244094488188977,
                    "duration": 0.46175199999999705
                },
                {
                    "name": "F#4",
                    "midi": 66,
                    "time": 52.63972800000004,
                    "velocity": 0.7165354330708661,
                    "duration": 0.46175199999999705
                },
                {
                    "name": "E5",
                    "midi": 76,
                    "time": 52.63972800000004,
                    "velocity": 0.7322834645669292,
                    "duration": 0.46175199999999705
                },
                {
                    "name": "A3",
                    "midi": 57,
                    "time": 53.10148000000004,
                    "velocity": 0.6771653543307087,
                    "duration": 0.46175200000001126
                },
                {
                    "name": "E4",
                    "midi": 64,
                    "time": 53.10148000000004,
                    "velocity": 0.6771653543307087,
                    "duration": 0.46175200000001126
                },
                {
                    "name": "F#3",
                    "midi": 54,
                    "time": 53.33235600000004,
                    "velocity": 0.5905511811023622,
                    "duration": 0.038479333333334864
                },
                {
                    "name": "F#4",
                    "midi": 66,
                    "time": 53.33235600000004,
                    "velocity": 0.6850393700787402,
                    "duration": 0.038479333333334864
                },
                {
                    "name": "F#3",
                    "midi": 54,
                    "time": 53.40931466666671,
                    "velocity": 0.5905511811023622,
                    "duration": 0.038479333333334864
                },
                {
                    "name": "F#4",
                    "midi": 66,
                    "time": 53.40931466666671,
                    "velocity": 0.6850393700787402,
                    "duration": 0.038479333333334864
                },
                {
                    "name": "F#3",
                    "midi": 54,
                    "time": 53.48627333333338,
                    "velocity": 0.5905511811023622,
                    "duration": 0.038479333333334864
                },
                {
                    "name": "F#4",
                    "midi": 66,
                    "time": 53.48627333333338,
                    "velocity": 0.6850393700787402,
                    "duration": 0.038479333333334864
                },
                {
                    "name": "F#3",
                    "midi": 54,
                    "time": 53.56323200000005,
                    "velocity": 0.5354330708661418,
                    "duration": 0.6926279999999991
                },
                {
                    "name": "D#4",
                    "midi": 63,
                    "time": 53.56323200000005,
                    "velocity": 0.6299212598425197,
                    "duration": 0.6926279999999991
                },
                {
                    "name": "B3",
                    "midi": 59,
                    "time": 53.56323200000005,
                    "velocity": 0.6299212598425197,
                    "duration": 0.6926279999999991
                },
                {
                    "name": "F#4",
                    "midi": 66,
                    "time": 53.56323200000005,
                    "velocity": 0.7244094488188977,
                    "duration": 0.6926279999999991
                },
                {
                    "name": "F#3",
                    "midi": 54,
                    "time": 54.25586000000005,
                    "velocity": 0.5905511811023622,
                    "duration": 0.038479333333334864
                },
                {
                    "name": "F#4",
                    "midi": 66,
                    "time": 54.25586000000005,
                    "velocity": 0.6850393700787402,
                    "duration": 0.038479333333334864
                },
                {
                    "name": "F#3",
                    "midi": 54,
                    "time": 54.33281866666672,
                    "velocity": 0.5905511811023622,
                    "duration": 0.038479333333334864
                },
                {
                    "name": "F#4",
                    "midi": 66,
                    "time": 54.33281866666672,
                    "velocity": 0.6850393700787402,
                    "duration": 0.038479333333334864
                },
                {
                    "name": "F#3",
                    "midi": 54,
                    "time": 54.40977733333339,
                    "velocity": 0.5905511811023622,
                    "duration": 0.038479333333334864
                },
                {
                    "name": "F#4",
                    "midi": 66,
                    "time": 54.40977733333339,
                    "velocity": 0.6850393700787402,
                    "duration": 0.038479333333334864
                },
                {
                    "name": "F#3",
                    "midi": 54,
                    "time": 54.48673600000006,
                    "velocity": 0.6299212598425197,
                    "duration": 0.6926279999999991
                },
                {
                    "name": "F#4",
                    "midi": 66,
                    "time": 54.48673600000006,
                    "velocity": 0.7244094488188977,
                    "duration": 0.6926279999999991
                },
                {
                    "name": "F#3",
                    "midi": 54,
                    "time": 55.17936400000006,
                    "velocity": 0.5905511811023622,
                    "duration": 0.038479333333334864
                },
                {
                    "name": "F#4",
                    "midi": 66,
                    "time": 55.17936400000006,
                    "velocity": 0.6850393700787402,
                    "duration": 0.038479333333334864
                },
                {
                    "name": "F#3",
                    "midi": 54,
                    "time": 55.256322666666726,
                    "velocity": 0.5905511811023622,
                    "duration": 0.038479333333334864
                },
                {
                    "name": "F#4",
                    "midi": 66,
                    "time": 55.256322666666726,
                    "velocity": 0.6850393700787402,
                    "duration": 0.038479333333334864
                },
                {
                    "name": "F#3",
                    "midi": 54,
                    "time": 55.333281333333396,
                    "velocity": 0.5905511811023622,
                    "duration": 0.038479333333334864
                },
                {
                    "name": "F#4",
                    "midi": 66,
                    "time": 55.333281333333396,
                    "velocity": 0.6850393700787402,
                    "duration": 0.038479333333334864
                },
                {
                    "name": "A3",
                    "midi": 57,
                    "time": 55.410240000000066,
                    "velocity": 0.6299212598425197,
                    "duration": 0.9235040000000012
                },
                {
                    "name": "A4",
                    "midi": 69,
                    "time": 55.410240000000066,
                    "velocity": 0.7244094488188977,
                    "duration": 0.9235040000000012
                },
                {
                    "name": "F#3",
                    "midi": 54,
                    "time": 56.33374400000007,
                    "velocity": 0.5590551181102362,
                    "duration": 0.46175199999999705
                },
                {
                    "name": "F#4",
                    "midi": 66,
                    "time": 56.33374400000007,
                    "velocity": 0.6456692913385826,
                    "duration": 0.46175199999999705
                },
                {
                    "name": "F#5",
                    "midi": 78,
                    "time": 57.026372000000066,
                    "velocity": 0.6456692913385826,
                    "duration": 0.038479333333334864
                },
                {
                    "name": "E5",
                    "midi": 76,
                    "time": 57.026372000000066,
                    "velocity": 0.6456692913385826,
                    "duration": 0.038479333333334864
                },
                {
                    "name": "C5",
                    "midi": 72,
                    "time": 57.026372000000066,
                    "velocity": 0.5433070866141733,
                    "duration": 0.038479333333334864
                },
                {
                    "name": "A5",
                    "midi": 81,
                    "time": 57.026372000000066,
                    "velocity": 0.7480314960629921,
                    "duration": 0.038479333333334864
                },
                {
                    "name": "F#5",
                    "midi": 78,
                    "time": 57.103330666666736,
                    "velocity": 0.6456692913385826,
                    "duration": 0.038479333333334864
                },
                {
                    "name": "E5",
                    "midi": 76,
                    "time": 57.103330666666736,
                    "velocity": 0.6456692913385826,
                    "duration": 0.038479333333334864
                },
                {
                    "name": "C5",
                    "midi": 72,
                    "time": 57.103330666666736,
                    "velocity": 0.5433070866141733,
                    "duration": 0.038479333333334864
                },
                {
                    "name": "A5",
                    "midi": 81,
                    "time": 57.103330666666736,
                    "velocity": 0.7480314960629921,
                    "duration": 0.038479333333334864
                },
                {
                    "name": "F#5",
                    "midi": 78,
                    "time": 57.180289333333405,
                    "velocity": 0.6456692913385826,
                    "duration": 0.038479333333334864
                },
                {
                    "name": "E5",
                    "midi": 76,
                    "time": 57.180289333333405,
                    "velocity": 0.6456692913385826,
                    "duration": 0.038479333333334864
                },
                {
                    "name": "C5",
                    "midi": 72,
                    "time": 57.180289333333405,
                    "velocity": 0.5433070866141733,
                    "duration": 0.038479333333334864
                },
                {
                    "name": "A5",
                    "midi": 81,
                    "time": 57.180289333333405,
                    "velocity": 0.7480314960629921,
                    "duration": 0.038479333333334864
                },
                {
                    "name": "F#5",
                    "midi": 78,
                    "time": 57.257248000000075,
                    "velocity": 0.6929133858267716,
                    "duration": 0.6926279999999991
                },
                {
                    "name": "D#5",
                    "midi": 75,
                    "time": 57.257248000000075,
                    "velocity": 0.6929133858267716,
                    "duration": 0.6926279999999991
                },
                {
                    "name": "B4",
                    "midi": 71,
                    "time": 57.257248000000075,
                    "velocity": 0.5826771653543307,
                    "duration": 0.6926279999999991
                },
                {
                    "name": "A5",
                    "midi": 81,
                    "time": 57.257248000000075,
                    "velocity": 0.7952755905511811,
                    "duration": 0.6926279999999991
                },
                {
                    "name": "F#5",
                    "midi": 78,
                    "time": 57.949876000000074,
                    "velocity": 0.6456692913385826,
                    "duration": 0.038479333333334864
                },
                {
                    "name": "E5",
                    "midi": 76,
                    "time": 57.949876000000074,
                    "velocity": 0.6456692913385826,
                    "duration": 0.038479333333334864
                },
                {
                    "name": "B4",
                    "midi": 71,
                    "time": 57.949876000000074,
                    "velocity": 0.5433070866141733,
                    "duration": 0.038479333333334864
                },
                {
                    "name": "A5",
                    "midi": 81,
                    "time": 57.949876000000074,
                    "velocity": 0.7480314960629921,
                    "duration": 0.038479333333334864
                },
                {
                    "name": "F#5",
                    "midi": 78,
                    "time": 58.026834666666744,
                    "velocity": 0.6456692913385826,
                    "duration": 0.038479333333334864
                },
                {
                    "name": "E5",
                    "midi": 76,
                    "time": 58.026834666666744,
                    "velocity": 0.6456692913385826,
                    "duration": 0.038479333333334864
                },
                {
                    "name": "B4",
                    "midi": 71,
                    "time": 58.026834666666744,
                    "velocity": 0.5433070866141733,
                    "duration": 0.038479333333334864
                },
                {
                    "name": "A5",
                    "midi": 81,
                    "time": 58.026834666666744,
                    "velocity": 0.7480314960629921,
                    "duration": 0.038479333333334864
                },
                {
                    "name": "F#5",
                    "midi": 78,
                    "time": 58.103793333333414,
                    "velocity": 0.6456692913385826,
                    "duration": 0.038479333333334864
                },
                {
                    "name": "E5",
                    "midi": 76,
                    "time": 58.103793333333414,
                    "velocity": 0.6456692913385826,
                    "duration": 0.038479333333334864
                },
                {
                    "name": "B4",
                    "midi": 71,
                    "time": 58.103793333333414,
                    "velocity": 0.5433070866141733,
                    "duration": 0.038479333333334864
                },
                {
                    "name": "A5",
                    "midi": 81,
                    "time": 58.103793333333414,
                    "velocity": 0.7480314960629921,
                    "duration": 0.038479333333334864
                },
                {
                    "name": "F#5",
                    "midi": 78,
                    "time": 58.18075200000008,
                    "velocity": 0.6929133858267716,
                    "duration": 0.6926279999999991
                },
                {
                    "name": "D#5",
                    "midi": 75,
                    "time": 58.18075200000008,
                    "velocity": 0.6929133858267716,
                    "duration": 0.6926279999999991
                },
                {
                    "name": "B4",
                    "midi": 71,
                    "time": 58.18075200000008,
                    "velocity": 0.5826771653543307,
                    "duration": 0.6926279999999991
                },
                {
                    "name": "A5",
                    "midi": 81,
                    "time": 58.18075200000008,
                    "velocity": 0.7952755905511811,
                    "duration": 0.6926279999999991
                },
                {
                    "name": "F#5",
                    "midi": 78,
                    "time": 58.87338000000008,
                    "velocity": 0.6456692913385826,
                    "duration": 0.038479333333334864
                },
                {
                    "name": "E5",
                    "midi": 76,
                    "time": 58.87338000000008,
                    "velocity": 0.6456692913385826,
                    "duration": 0.038479333333334864
                },
                {
                    "name": "B4",
                    "midi": 71,
                    "time": 58.87338000000008,
                    "velocity": 0.5433070866141733,
                    "duration": 0.038479333333334864
                },
                {
                    "name": "A5",
                    "midi": 81,
                    "time": 58.87338000000008,
                    "velocity": 0.7480314960629921,
                    "duration": 0.038479333333334864
                },
                {
                    "name": "F#5",
                    "midi": 78,
                    "time": 58.95033866666675,
                    "velocity": 0.6456692913385826,
                    "duration": 0.038479333333334864
                },
                {
                    "name": "E5",
                    "midi": 76,
                    "time": 58.95033866666675,
                    "velocity": 0.6456692913385826,
                    "duration": 0.038479333333334864
                },
                {
                    "name": "B4",
                    "midi": 71,
                    "time": 58.95033866666675,
                    "velocity": 0.5433070866141733,
                    "duration": 0.038479333333334864
                },
                {
                    "name": "A5",
                    "midi": 81,
                    "time": 58.95033866666675,
                    "velocity": 0.7480314960629921,
                    "duration": 0.038479333333334864
                },
                {
                    "name": "F#5",
                    "midi": 78,
                    "time": 59.02729733333342,
                    "velocity": 0.6456692913385826,
                    "duration": 0.038479333333334864
                },
                {
                    "name": "E5",
                    "midi": 76,
                    "time": 59.02729733333342,
                    "velocity": 0.6456692913385826,
                    "duration": 0.038479333333334864
                },
                {
                    "name": "B4",
                    "midi": 71,
                    "time": 59.02729733333342,
                    "velocity": 0.5433070866141733,
                    "duration": 0.038479333333334864
                },
                {
                    "name": "A5",
                    "midi": 81,
                    "time": 59.02729733333342,
                    "velocity": 0.7480314960629921,
                    "duration": 0.038479333333334864
                },
                {
                    "name": "D#5",
                    "midi": 75,
                    "time": 59.10425600000009,
                    "velocity": 0.6929133858267716,
                    "duration": 0.9235040000000012
                },
                {
                    "name": "A5",
                    "midi": 81,
                    "time": 59.10425600000009,
                    "velocity": 0.6929133858267716,
                    "duration": 0.9235040000000012
                },
                {
                    "name": "D#6",
                    "midi": 87,
                    "time": 59.10425600000009,
                    "velocity": 0.7952755905511811,
                    "duration": 0.9235040000000012
                },
                {
                    "name": "F#5",
                    "midi": 78,
                    "time": 60.02776000000009,
                    "velocity": 0.5511811023622047,
                    "duration": 0.46175199999999705
                },
                {
                    "name": "F#6",
                    "midi": 90,
                    "time": 60.02776000000009,
                    "velocity": 0.6377952755905512,
                    "duration": 0.46175199999999705
                },
                {
                    "name": "A3",
                    "midi": 57,
                    "time": 60.48951200000009,
                    "velocity": 0.5826771653543307,
                    "duration": 0.46175199999999705
                },
                {
                    "name": "B3",
                    "midi": 59,
                    "time": 60.48951200000009,
                    "velocity": 0.7007874015748031,
                    "duration": 0.46175199999999705
                },
                {
                    "name": "E3",
                    "midi": 52,
                    "time": 60.95126400000009,
                    "velocity": 0.5118110236220472,
                    "duration": 0.46175199999999705
                },
                {
                    "name": "G3",
                    "midi": 55,
                    "time": 60.95126400000009,
                    "velocity": 0.6062992125984252,
                    "duration": 0.46175199999999705
                },
                {
                    "name": "B3",
                    "midi": 59,
                    "time": 60.95126400000009,
                    "velocity": 0.6062992125984252,
                    "duration": 0.46175199999999705
                },
                {
                    "name": "E4",
                    "midi": 64,
                    "time": 60.95126400000009,
                    "velocity": 0.7244094488188977,
                    "duration": 0.46175199999999705
                },
                {
                    "name": "E3",
                    "midi": 52,
                    "time": 61.413016000000084,
                    "velocity": 0.5118110236220472,
                    "duration": 0.46175199999999705
                },
                {
                    "name": "G3",
                    "midi": 55,
                    "time": 61.413016000000084,
                    "velocity": 0.6062992125984252,
                    "duration": 0.46175199999999705
                },
                {
                    "name": "B3",
                    "midi": 59,
                    "time": 61.413016000000084,
                    "velocity": 0.6062992125984252,
                    "duration": 0.46175199999999705
                },
                {
                    "name": "E4",
                    "midi": 64,
                    "time": 61.413016000000084,
                    "velocity": 0.7244094488188977,
                    "duration": 0.46175199999999705
                },
                {
                    "name": "G3",
                    "midi": 55,
                    "time": 61.87476800000008,
                    "velocity": 0.5275590551181102,
                    "duration": 0.46175199999999705
                },
                {
                    "name": "B3",
                    "midi": 59,
                    "time": 61.87476800000008,
                    "velocity": 0.6220472440944882,
                    "duration": 0.46175199999999705
                },
                {
                    "name": "D4",
                    "midi": 62,
                    "time": 61.87476800000008,
                    "velocity": 0.6220472440944882,
                    "duration": 0.46175199999999705
                },
                {
                    "name": "G4",
                    "midi": 67,
                    "time": 61.87476800000008,
                    "velocity": 0.7322834645669292,
                    "duration": 0.46175199999999705
                },
                {
                    "name": "D4",
                    "midi": 62,
                    "time": 62.33652000000008,
                    "velocity": 0.6141732283464567,
                    "duration": 0.46175199999999705
                },
                {
                    "name": "A3",
                    "midi": 57,
                    "time": 62.33652000000008,
                    "velocity": 0.4881889763779528,
                    "duration": 0.46175199999999705
                },
                {
                    "name": "F#4",
                    "midi": 66,
                    "time": 62.33652000000008,
                    "velocity": 0.6220472440944882,
                    "duration": 0.46175199999999705
                },
                {
                    "name": "A4",
                    "midi": 69,
                    "time": 62.33652000000008,
                    "velocity": 0.7322834645669292,
                    "duration": 0.46175199999999705
                },
                {
                    "name": "B3",
                    "midi": 59,
                    "time": 62.798272000000075,
                    "velocity": 0.5354330708661418,
                    "duration": 0.46175199999999705
                },
                {
                    "name": "D4",
                    "midi": 62,
                    "time": 62.798272000000075,
                    "velocity": 0.6299212598425197,
                    "duration": 0.46175199999999705
                },
                {
                    "name": "G4",
                    "midi": 67,
                    "time": 62.798272000000075,
                    "velocity": 0.6299212598425197,
                    "duration": 0.46175199999999705
                },
                {
                    "name": "B4",
                    "midi": 71,
                    "time": 62.798272000000075,
                    "velocity": 0.7401574803149606,
                    "duration": 0.46175199999999705
                },
                {
                    "name": "A3",
                    "midi": 57,
                    "time": 63.26002400000007,
                    "velocity": 0.49606299212598426,
                    "duration": 0.07695866666666973
                },
                {
                    "name": "D4",
                    "midi": 62,
                    "time": 63.26002400000007,
                    "velocity": 0.5905511811023622,
                    "duration": 0.07695866666666973
                },
                {
                    "name": "F#4",
                    "midi": 66,
                    "time": 63.26002400000007,
                    "velocity": 0.5905511811023622,
                    "duration": 0.07695866666666973
                },
                {
                    "name": "A4",
                    "midi": 69,
                    "time": 63.26002400000007,
                    "velocity": 0.7086614173228346,
                    "duration": 0.07695866666666973
                },
                {
                    "name": "B3",
                    "midi": 59,
                    "time": 63.41394133333341,
                    "velocity": 0.48031496062992124,
                    "duration": 0.07695866666666973
                },
                {
                    "name": "D4",
                    "midi": 62,
                    "time": 63.41394133333341,
                    "velocity": 0.5669291338582677,
                    "duration": 0.07695866666666973
                },
                {
                    "name": "G4",
                    "midi": 67,
                    "time": 63.41394133333341,
                    "velocity": 0.5669291338582677,
                    "duration": 0.07695866666666973
                },
                {
                    "name": "B4",
                    "midi": 71,
                    "time": 63.41394133333341,
                    "velocity": 0.6850393700787402,
                    "duration": 0.07695866666666973
                },
                {
                    "name": "C4",
                    "midi": 60,
                    "time": 63.56785866666675,
                    "velocity": 0.48031496062992124,
                    "duration": 0.07695866666666973
                },
                {
                    "name": "D4",
                    "midi": 62,
                    "time": 63.56785866666675,
                    "velocity": 0.5669291338582677,
                    "duration": 0.07695866666666973
                },
                {
                    "name": "A4",
                    "midi": 69,
                    "time": 63.56785866666675,
                    "velocity": 0.5669291338582677,
                    "duration": 0.07695866666666973
                },
                {
                    "name": "C5",
                    "midi": 72,
                    "time": 63.56785866666675,
                    "velocity": 0.6850393700787402,
                    "duration": 0.07695866666666973
                },
                {
                    "name": "B3",
                    "midi": 59,
                    "time": 63.72177600000009,
                    "velocity": 0.5354330708661418,
                    "duration": 0.46175200000000416
                },
                {
                    "name": "D4",
                    "midi": 62,
                    "time": 63.72177600000009,
                    "velocity": 0.6377952755905512,
                    "duration": 0.46175200000000416
                },
                {
                    "name": "G4",
                    "midi": 67,
                    "time": 63.72177600000009,
                    "velocity": 0.6377952755905512,
                    "duration": 0.46175200000000416
                },
                {
                    "name": "B4",
                    "midi": 71,
                    "time": 63.72177600000009,
                    "velocity": 0.7480314960629921,
                    "duration": 0.46175200000000416
                },
                {
                    "name": "G3",
                    "midi": 55,
                    "time": 64.1835280000001,
                    "velocity": 0.4881889763779528,
                    "duration": 0.34631400000000667
                },
                {
                    "name": "B3",
                    "midi": 59,
                    "time": 64.1835280000001,
                    "velocity": 0.5826771653543307,
                    "duration": 0.34631400000000667
                },
                {
                    "name": "D4",
                    "midi": 62,
                    "time": 64.1835280000001,
                    "velocity": 0.5826771653543307,
                    "duration": 0.34631400000000667
                },
                {
                    "name": "G4",
                    "midi": 67,
                    "time": 64.1835280000001,
                    "velocity": 0.7007874015748031,
                    "duration": 0.34631400000000667
                },
                {
                    "name": "A3",
                    "midi": 57,
                    "time": 64.5298420000001,
                    "velocity": 0.5118110236220472,
                    "duration": 0.11543799999999749
                },
                {
                    "name": "D4",
                    "midi": 62,
                    "time": 64.5298420000001,
                    "velocity": 0.6062992125984252,
                    "duration": 0.11543799999999749
                },
                {
                    "name": "F#4",
                    "midi": 66,
                    "time": 64.5298420000001,
                    "velocity": 0.6062992125984252,
                    "duration": 0.11543799999999749
                },
                {
                    "name": "A4",
                    "midi": 69,
                    "time": 64.5298420000001,
                    "velocity": 0.7165354330708661,
                    "duration": 0.11543799999999749
                },
                {
                    "name": "B3",
                    "midi": 59,
                    "time": 64.6452800000001,
                    "velocity": 0.5354330708661418,
                    "duration": 0.46175200000000416
                },
                {
                    "name": "D4",
                    "midi": 62,
                    "time": 64.6452800000001,
                    "velocity": 0.6299212598425197,
                    "duration": 0.46175200000000416
                },
                {
                    "name": "G4",
                    "midi": 67,
                    "time": 64.6452800000001,
                    "velocity": 0.6299212598425197,
                    "duration": 0.46175200000000416
                },
                {
                    "name": "B4",
                    "midi": 71,
                    "time": 64.6452800000001,
                    "velocity": 0.7401574803149606,
                    "duration": 0.46175200000000416
                },
                {
                    "name": "B3",
                    "midi": 59,
                    "time": 65.1070320000001,
                    "velocity": 0.5118110236220472,
                    "duration": 0.46175200000000416
                },
                {
                    "name": "D4",
                    "midi": 62,
                    "time": 65.1070320000001,
                    "velocity": 0.6062992125984252,
                    "duration": 0.46175200000000416
                },
                {
                    "name": "G4",
                    "midi": 67,
                    "time": 65.1070320000001,
                    "velocity": 0.6062992125984252,
                    "duration": 0.46175200000000416
                },
                {
                    "name": "B4",
                    "midi": 71,
                    "time": 65.1070320000001,
                    "velocity": 0.7322834645669292,
                    "duration": 0.46175200000000416
                },
                {
                    "name": "G4",
                    "midi": 67,
                    "time": 65.56878400000011,
                    "velocity": 0.5748031496062992,
                    "duration": 0.46175200000000416
                },
                {
                    "name": "E5",
                    "midi": 76,
                    "time": 65.56878400000011,
                    "velocity": 0.6771653543307087,
                    "duration": 0.46175200000000416
                },
                {
                    "name": "A#4",
                    "midi": 70,
                    "time": 65.56878400000011,
                    "velocity": 0.6771653543307087,
                    "duration": 0.46175200000000416
                },
                {
                    "name": "C#5",
                    "midi": 73,
                    "time": 65.56878400000011,
                    "velocity": 0.6771653543307087,
                    "duration": 0.46175200000000416
                },
                {
                    "name": "G5",
                    "midi": 79,
                    "time": 65.56878400000011,
                    "velocity": 0.8031496062992126,
                    "duration": 0.46175200000000416
                },
                {
                    "name": "F#4",
                    "midi": 66,
                    "time": 66.03053600000011,
                    "velocity": 0.5354330708661418,
                    "duration": 0.46175200000000416
                },
                {
                    "name": "A#4",
                    "midi": 70,
                    "time": 66.03053600000011,
                    "velocity": 0.6299212598425197,
                    "duration": 0.46175200000000416
                },
                {
                    "name": "C#5",
                    "midi": 73,
                    "time": 66.03053600000011,
                    "velocity": 0.6299212598425197,
                    "duration": 0.46175200000000416
                },
                {
                    "name": "F#5",
                    "midi": 78,
                    "time": 66.03053600000011,
                    "velocity": 0.7480314960629921,
                    "duration": 0.46175200000000416
                },
                {
                    "name": "E4",
                    "midi": 64,
                    "time": 66.49228800000012,
                    "velocity": 0.48031496062992124,
                    "duration": 0.9235039999999941
                },
                {
                    "name": "G4",
                    "midi": 67,
                    "time": 66.49228800000012,
                    "velocity": 0.5669291338582677,
                    "duration": 0.9235039999999941
                },
                {
                    "name": "B4",
                    "midi": 71,
                    "time": 66.49228800000012,
                    "velocity": 0.5669291338582677,
                    "duration": 0.9235039999999941
                },
                {
                    "name": "E5",
                    "midi": 76,
                    "time": 66.49228800000012,
                    "velocity": 0.6692913385826772,
                    "duration": 0.9235039999999941
                },
                {
                    "name": "D#4",
                    "midi": 63,
                    "time": 67.41579200000011,
                    "velocity": 0.3858267716535433,
                    "duration": 0.46175200000000416
                },
                {
                    "name": "F#4",
                    "midi": 66,
                    "time": 67.41579200000011,
                    "velocity": 0.4566929133858268,
                    "duration": 0.46175200000000416
                },
                {
                    "name": "B4",
                    "midi": 71,
                    "time": 67.41579200000011,
                    "velocity": 0.4566929133858268,
                    "duration": 0.46175200000000416
                },
                {
                    "name": "D#5",
                    "midi": 75,
                    "time": 67.41579200000011,
                    "velocity": 0.5590551181102362,
                    "duration": 0.46175200000000416
                },
                {
                    "name": "F#3",
                    "midi": 54,
                    "time": 67.87754400000011,
                    "velocity": 0.33858267716535434,
                    "duration": 0.46175200000000416
                },
                {
                    "name": "B3",
                    "midi": 59,
                    "time": 67.87754400000011,
                    "velocity": 0.33858267716535434,
                    "duration": 0.46175200000000416
                },
                {
                    "name": "D#4",
                    "midi": 63,
                    "time": 67.87754400000011,
                    "velocity": 0.33858267716535434,
                    "duration": 0.46175200000000416
                },
                {
                    "name": "F#4",
                    "midi": 66,
                    "time": 67.87754400000011,
                    "velocity": 0.3858267716535433,
                    "duration": 0.46175200000000416
                },
                {
                    "name": "G3",
                    "midi": 55,
                    "time": 68.33929600000012,
                    "velocity": 0.3543307086614173,
                    "duration": 0.46175200000000416
                },
                {
                    "name": "B3",
                    "midi": 59,
                    "time": 68.33929600000012,
                    "velocity": 0.3543307086614173,
                    "duration": 0.46175200000000416
                },
                {
                    "name": "G4",
                    "midi": 67,
                    "time": 68.33929600000012,
                    "velocity": 0.41732283464566927,
                    "duration": 0.46175200000000416
                },
                {
                    "name": "G3",
                    "midi": 55,
                    "time": 68.80104800000012,
                    "velocity": 0.3543307086614173,
                    "duration": 0.46175200000000416
                },
                {
                    "name": "B3",
                    "midi": 59,
                    "time": 68.80104800000012,
                    "velocity": 0.3543307086614173,
                    "duration": 0.46175200000000416
                },
                {
                    "name": "F4",
                    "midi": 65,
                    "time": 68.80104800000012,
                    "velocity": 0.3543307086614173,
                    "duration": 0.46175200000000416
                },
                {
                    "name": "G4",
                    "midi": 67,
                    "time": 68.80104800000012,
                    "velocity": 0.4251968503937008,
                    "duration": 0.46175200000000416
                },
                {
                    "name": "G3",
                    "midi": 55,
                    "time": 69.26280000000013,
                    "velocity": 0.3543307086614173,
                    "duration": 0.46175200000000416
                },
                {
                    "name": "C4",
                    "midi": 60,
                    "time": 69.26280000000013,
                    "velocity": 0.3543307086614173,
                    "duration": 0.46175200000000416
                },
                {
                    "name": "E4",
                    "midi": 64,
                    "time": 69.26280000000013,
                    "velocity": 0.3543307086614173,
                    "duration": 0.46175200000000416
                },
                {
                    "name": "G4",
                    "midi": 67,
                    "time": 69.26280000000013,
                    "velocity": 0.4251968503937008,
                    "duration": 0.46175200000000416
                },
                {
                    "name": "G3",
                    "midi": 55,
                    "time": 69.72455200000013,
                    "velocity": 0.3543307086614173,
                    "duration": 0.46175200000000416
                },
                {
                    "name": "D4",
                    "midi": 62,
                    "time": 69.72455200000013,
                    "velocity": 0.3543307086614173,
                    "duration": 0.46175200000000416
                },
                {
                    "name": "G4",
                    "midi": 67,
                    "time": 69.72455200000013,
                    "velocity": 0.41732283464566927,
                    "duration": 0.46175200000000416
                },
                {
                    "name": "A3",
                    "midi": 57,
                    "time": 70.18630400000013,
                    "velocity": 0.3543307086614173,
                    "duration": 0.46175200000000416
                },
                {
                    "name": "E4",
                    "midi": 64,
                    "time": 70.18630400000013,
                    "velocity": 0.3543307086614173,
                    "duration": 0.46175200000000416
                },
                {
                    "name": "C#4",
                    "midi": 61,
                    "time": 70.18630400000013,
                    "velocity": 0.3543307086614173,
                    "duration": 0.46175200000000416
                },
                {
                    "name": "G4",
                    "midi": 67,
                    "time": 70.18630400000013,
                    "velocity": 0.4251968503937008,
                    "duration": 0.46175200000000416
                },
                {
                    "name": "C4",
                    "midi": 60,
                    "time": 70.64805600000014,
                    "velocity": 0.33858267716535434,
                    "duration": 0.46175200000001837
                },
                {
                    "name": "D4",
                    "midi": 62,
                    "time": 70.64805600000014,
                    "velocity": 0.33858267716535434,
                    "duration": 0.46175200000001837
                },
                {
                    "name": "F#4",
                    "midi": 66,
                    "time": 70.64805600000014,
                    "velocity": 0.4015748031496063,
                    "duration": 0.15391733333333946
                },
                {
                    "name": "A4",
                    "midi": 69,
                    "time": 70.80197333333348,
                    "velocity": 0.4015748031496063,
                    "duration": 0.15391733333333946
                },
                {
                    "name": "C5",
                    "midi": 72,
                    "time": 70.95589066666682,
                    "velocity": 0.3937007874015748,
                    "duration": 0.15391733333333946
                },
                {
                    "name": "B3",
                    "midi": 59,
                    "time": 71.10980800000016,
                    "velocity": 0.3543307086614173,
                    "duration": 0.46175200000000416
                },
                {
                    "name": "G4",
                    "midi": 67,
                    "time": 71.10980800000016,
                    "velocity": 0.3858267716535433,
                    "duration": 0.46175200000000416
                },
                {
                    "name": "D4",
                    "midi": 62,
                    "time": 71.10980800000016,
                    "velocity": 0.3543307086614173,
                    "duration": 0.46175200000000416
                },
                {
                    "name": "B4",
                    "midi": 71,
                    "time": 71.10980800000016,
                    "velocity": 0.4251968503937008,
                    "duration": 0.46175200000000416
                },
                {
                    "name": "B3",
                    "midi": 59,
                    "time": 71.57156000000016,
                    "velocity": 0.3543307086614173,
                    "duration": 0.46175200000000416
                },
                {
                    "name": "D#4",
                    "midi": 63,
                    "time": 71.57156000000016,
                    "velocity": 0.3543307086614173,
                    "duration": 0.46175200000000416
                },
                {
                    "name": "G4",
                    "midi": 67,
                    "time": 71.57156000000016,
                    "velocity": 0.41732283464566927,
                    "duration": 0.34631400000000667
                },
                {
                    "name": "F#4",
                    "midi": 66,
                    "time": 71.91787400000017,
                    "velocity": 0.3858267716535433,
                    "duration": 0.11543799999999749
                },
                {
                    "name": "C4",
                    "midi": 60,
                    "time": 72.03331200000017,
                    "velocity": 0.3464566929133858,
                    "duration": 0.46175200000000416
                },
                {
                    "name": "E4",
                    "midi": 64,
                    "time": 72.03331200000017,
                    "velocity": 0.4094488188976378,
                    "duration": 0.46175200000000416
                },
                {
                    "name": "A3",
                    "midi": 57,
                    "time": 72.49506400000017,
                    "velocity": 0.33070866141732286,
                    "duration": 0.46175200000000416
                },
                {
                    "name": "E4",
                    "midi": 64,
                    "time": 72.49506400000017,
                    "velocity": 0.3937007874015748,
                    "duration": 0.46175200000000416
                },
                {
                    "name": "G#3",
                    "midi": 56,
                    "time": 72.95681600000017,
                    "velocity": 0.33070866141732286,
                    "duration": 0.46175200000000416
                },
                {
                    "name": "B3",
                    "midi": 59,
                    "time": 72.95681600000017,
                    "velocity": 0.33070866141732286,
                    "duration": 0.46175200000000416
                },
                {
                    "name": "E4",
                    "midi": 64,
                    "time": 72.95681600000017,
                    "velocity": 0.3937007874015748,
                    "duration": 0.46175200000000416
                },
                {
                    "name": "A3",
                    "midi": 57,
                    "time": 73.41856800000018,
                    "velocity": 0.33070866141732286,
                    "duration": 0.46175200000000416
                },
                {
                    "name": "C4",
                    "midi": 60,
                    "time": 73.41856800000018,
                    "velocity": 0.33070866141732286,
                    "duration": 0.46175200000000416
                },
                {
                    "name": "E4",
                    "midi": 64,
                    "time": 73.41856800000018,
                    "velocity": 0.3937007874015748,
                    "duration": 0.46175200000000416
                },
                {
                    "name": "B3",
                    "midi": 59,
                    "time": 73.88032000000018,
                    "velocity": 0.3228346456692913,
                    "duration": 1.3852559999999983
                },
                {
                    "name": "D4",
                    "midi": 62,
                    "time": 73.88032000000018,
                    "velocity": 0.3228346456692913,
                    "duration": 1.3852559999999983
                },
                {
                    "name": "E4",
                    "midi": 64,
                    "time": 73.88032000000018,
                    "velocity": 0.3858267716535433,
                    "duration": 1.3852559999999983
                },
                {
                    "name": "G4",
                    "midi": 67,
                    "time": 75.26557600000018,
                    "velocity": 0.41732283464566927,
                    "duration": 0.34631400000000667
                },
                {
                    "name": "F4",
                    "midi": 65,
                    "time": 75.61189000000019,
                    "velocity": 0.3858267716535433,
                    "duration": 0.11543799999999749
                },
                {
                    "name": "E4",
                    "midi": 64,
                    "time": 75.72732800000018,
                    "velocity": 0.4094488188976378,
                    "duration": 0.46175200000000416
                },
                {
                    "name": "A3",
                    "midi": 57,
                    "time": 76.18908000000019,
                    "velocity": 0.33070866141732286,
                    "duration": 0.46175200000000416
                },
                {
                    "name": "E4",
                    "midi": 64,
                    "time": 76.18908000000019,
                    "velocity": 0.3937007874015748,
                    "duration": 0.46175200000000416
                },
                {
                    "name": "G#3",
                    "midi": 56,
                    "time": 76.6508320000002,
                    "velocity": 0.33070866141732286,
                    "duration": 0.46175200000000416
                },
                {
                    "name": "B3",
                    "midi": 59,
                    "time": 76.6508320000002,
                    "velocity": 0.33070866141732286,
                    "duration": 0.46175200000000416
                },
                {
                    "name": "E4",
                    "midi": 64,
                    "time": 76.6508320000002,
                    "velocity": 0.3937007874015748,
                    "duration": 0.46175200000000416
                },
                {
                    "name": "A3",
                    "midi": 57,
                    "time": 77.1125840000002,
                    "velocity": 0.33070866141732286,
                    "duration": 0.46175200000000416
                },
                {
                    "name": "C4",
                    "midi": 60,
                    "time": 77.1125840000002,
                    "velocity": 0.33070866141732286,
                    "duration": 0.46175200000000416
                },
                {
                    "name": "E4",
                    "midi": 64,
                    "time": 77.1125840000002,
                    "velocity": 0.3937007874015748,
                    "duration": 0.46175200000000416
                },
                {
                    "name": "B3",
                    "midi": 59,
                    "time": 77.5743360000002,
                    "velocity": 0.3228346456692913,
                    "duration": 1.3852559999999983
                },
                {
                    "name": "D4",
                    "midi": 62,
                    "time": 77.5743360000002,
                    "velocity": 0.3228346456692913,
                    "duration": 1.3852559999999983
                },
                {
                    "name": "E4",
                    "midi": 64,
                    "time": 77.5743360000002,
                    "velocity": 0.3858267716535433,
                    "duration": 1.3852559999999983
                },
                {
                    "name": "G4",
                    "midi": 67,
                    "time": 78.9595920000002,
                    "velocity": 0.41732283464566927,
                    "duration": 0.34631400000000667
                },
                {
                    "name": "F4",
                    "midi": 65,
                    "time": 79.3059060000002,
                    "velocity": 0.3858267716535433,
                    "duration": 0.11543799999999749
                },
                {
                    "name": "E4",
                    "midi": 64,
                    "time": 79.4213440000002,
                    "velocity": 0.4094488188976378,
                    "duration": 0.46175200000000416
                },
                {
                    "name": "C4",
                    "midi": 60,
                    "time": 79.88309600000021,
                    "velocity": 0.29133858267716534,
                    "duration": 0.46175200000000416
                },
                {
                    "name": "A3",
                    "midi": 57,
                    "time": 79.88309600000021,
                    "velocity": 0.29133858267716534,
                    "duration": 0.46175200000000416
                },
                {
                    "name": "E4",
                    "midi": 64,
                    "time": 79.88309600000021,
                    "velocity": 0.3543307086614173,
                    "duration": 0.46175200000000416
                },
                {
                    "name": "A3",
                    "midi": 57,
                    "time": 80.34484800000021,
                    "velocity": 0.28346456692913385,
                    "duration": 0.46175200000000416
                },
                {
                    "name": "C4",
                    "midi": 60,
                    "time": 80.34484800000021,
                    "velocity": 0.28346456692913385,
                    "duration": 0.46175200000000416
                },
                {
                    "name": "E4",
                    "midi": 64,
                    "time": 80.34484800000021,
                    "velocity": 0.33858267716535434,
                    "duration": 0.46175200000000416
                },
                {
                    "name": "F#3",
                    "midi": 54,
                    "time": 80.80660000000022,
                    "velocity": 0.23622047244094488,
                    "duration": 0.46175200000000416
                },
                {
                    "name": "A3",
                    "midi": 57,
                    "time": 80.80660000000022,
                    "velocity": 0.25196850393700787,
                    "duration": 0.46175200000000416
                },
                {
                    "name": "C4",
                    "midi": 60,
                    "time": 80.80660000000022,
                    "velocity": 0.2677165354330709,
                    "duration": 0.46175200000000416
                },
                {
                    "name": "F#4",
                    "midi": 66,
                    "time": 80.80660000000022,
                    "velocity": 0.3228346456692913,
                    "duration": 0.34631400000000667
                },
                {
                    "name": "D#4",
                    "midi": 63,
                    "time": 81.15291400000022,
                    "velocity": 0.30708661417322836,
                    "duration": 0.11543799999999749
                },
                {
                    "name": "F#3",
                    "midi": 54,
                    "time": 81.26835200000022,
                    "velocity": 0.25984251968503935,
                    "duration": 0.9235039999999941
                },
                {
                    "name": "A3",
                    "midi": 57,
                    "time": 81.26835200000022,
                    "velocity": 0.25984251968503935,
                    "duration": 0.9235039999999941
                },
                {
                    "name": "C4",
                    "midi": 60,
                    "time": 81.26835200000022,
                    "velocity": 0.25984251968503935,
                    "duration": 0.9235039999999941
                },
                {
                    "name": "D#4",
                    "midi": 63,
                    "time": 81.26835200000022,
                    "velocity": 0.30708661417322836,
                    "duration": 0.9235039999999941
                },
                {
                    "name": "G3",
                    "midi": 55,
                    "time": 82.19185600000021,
                    "velocity": 0.25984251968503935,
                    "duration": 2.7705119999999965
                },
                {
                    "name": "B3",
                    "midi": 59,
                    "time": 82.19185600000021,
                    "velocity": 0.25984251968503935,
                    "duration": 2.7705119999999965
                },
                {
                    "name": "E4",
                    "midi": 64,
                    "time": 82.19185600000021,
                    "velocity": 0.30708661417322836,
                    "duration": 2.7705119999999965
                },
                {
                    "name": "B4",
                    "midi": 71,
                    "time": 86.5785000000002,
                    "velocity": 0.25196850393700787,
                    "duration": 0.03847933333332776
                },
                {
                    "name": "E5",
                    "midi": 76,
                    "time": 86.5785000000002,
                    "velocity": 0.25196850393700787,
                    "duration": 0.03847933333332776
                },
                {
                    "name": "B5",
                    "midi": 83,
                    "time": 86.5785000000002,
                    "velocity": 0.2992125984251969,
                    "duration": 0.03847933333332776
                },
                {
                    "name": "B4",
                    "midi": 71,
                    "time": 86.65545866666686,
                    "velocity": 0.25196850393700787,
                    "duration": 0.03847933333332776
                },
                {
                    "name": "E5",
                    "midi": 76,
                    "time": 86.65545866666686,
                    "velocity": 0.25196850393700787,
                    "duration": 0.03847933333332776
                },
                {
                    "name": "B5",
                    "midi": 83,
                    "time": 86.65545866666686,
                    "velocity": 0.2992125984251969,
                    "duration": 0.03847933333332776
                },
                {
                    "name": "B4",
                    "midi": 71,
                    "time": 86.73241733333352,
                    "velocity": 0.25196850393700787,
                    "duration": 0.03847933333332776
                },
                {
                    "name": "E5",
                    "midi": 76,
                    "time": 86.73241733333352,
                    "velocity": 0.25196850393700787,
                    "duration": 0.03847933333332776
                },
                {
                    "name": "B5",
                    "midi": 83,
                    "time": 86.73241733333352,
                    "velocity": 0.2992125984251969,
                    "duration": 0.03847933333332776
                },
                {
                    "name": "B4",
                    "midi": 71,
                    "time": 86.80937600000017,
                    "velocity": 0.2677165354330709,
                    "duration": 0.6926279999999991
                },
                {
                    "name": "E5",
                    "midi": 76,
                    "time": 86.80937600000017,
                    "velocity": 0.2677165354330709,
                    "duration": 0.6926279999999991
                },
                {
                    "name": "B5",
                    "midi": 83,
                    "time": 86.80937600000017,
                    "velocity": 0.3228346456692913,
                    "duration": 0.6926279999999991
                },
                {
                    "name": "B4",
                    "midi": 71,
                    "time": 87.50200400000017,
                    "velocity": 0.25196850393700787,
                    "duration": 0.03847933333332776
                },
                {
                    "name": "E5",
                    "midi": 76,
                    "time": 87.50200400000017,
                    "velocity": 0.25196850393700787,
                    "duration": 0.03847933333332776
                },
                {
                    "name": "B5",
                    "midi": 83,
                    "time": 87.50200400000017,
                    "velocity": 0.2992125984251969,
                    "duration": 0.03847933333332776
                },
                {
                    "name": "B4",
                    "midi": 71,
                    "time": 87.57896266666683,
                    "velocity": 0.25196850393700787,
                    "duration": 0.03847933333332776
                },
                {
                    "name": "E5",
                    "midi": 76,
                    "time": 87.57896266666683,
                    "velocity": 0.25196850393700787,
                    "duration": 0.03847933333332776
                },
                {
                    "name": "B5",
                    "midi": 83,
                    "time": 87.57896266666683,
                    "velocity": 0.2992125984251969,
                    "duration": 0.03847933333332776
                },
                {
                    "name": "B4",
                    "midi": 71,
                    "time": 87.65592133333348,
                    "velocity": 0.25196850393700787,
                    "duration": 0.03847933333332776
                },
                {
                    "name": "E5",
                    "midi": 76,
                    "time": 87.65592133333348,
                    "velocity": 0.25196850393700787,
                    "duration": 0.03847933333332776
                },
                {
                    "name": "B5",
                    "midi": 83,
                    "time": 87.65592133333348,
                    "velocity": 0.2992125984251969,
                    "duration": 0.03847933333332776
                },
                {
                    "name": "B4",
                    "midi": 71,
                    "time": 87.73288000000014,
                    "velocity": 0.2677165354330709,
                    "duration": 0.6926279999999991
                },
                {
                    "name": "E5",
                    "midi": 76,
                    "time": 87.73288000000014,
                    "velocity": 0.2677165354330709,
                    "duration": 0.6926279999999991
                },
                {
                    "name": "B5",
                    "midi": 83,
                    "time": 87.73288000000014,
                    "velocity": 0.3228346456692913,
                    "duration": 0.6926279999999991
                },
                {
                    "name": "E5",
                    "midi": 76,
                    "time": 88.42550800000014,
                    "velocity": 0.25196850393700787,
                    "duration": 0.03847933333332776
                },
                {
                    "name": "G5",
                    "midi": 79,
                    "time": 88.42550800000014,
                    "velocity": 0.25196850393700787,
                    "duration": 0.03847933333332776
                },
                {
                    "name": "B5",
                    "midi": 83,
                    "time": 88.42550800000014,
                    "velocity": 0.2992125984251969,
                    "duration": 0.03847933333332776
                },
                {
                    "name": "E5",
                    "midi": 76,
                    "time": 88.50246666666679,
                    "velocity": 0.25196850393700787,
                    "duration": 0.03847933333332776
                },
                {
                    "name": "G5",
                    "midi": 79,
                    "time": 88.50246666666679,
                    "velocity": 0.25196850393700787,
                    "duration": 0.03847933333332776
                },
                {
                    "name": "B5",
                    "midi": 83,
                    "time": 88.50246666666679,
                    "velocity": 0.2992125984251969,
                    "duration": 0.03847933333332776
                },
                {
                    "name": "E5",
                    "midi": 76,
                    "time": 88.57942533333345,
                    "velocity": 0.25196850393700787,
                    "duration": 0.03847933333332776
                },
                {
                    "name": "G5",
                    "midi": 79,
                    "time": 88.57942533333345,
                    "velocity": 0.25196850393700787,
                    "duration": 0.03847933333332776
                },
                {
                    "name": "B5",
                    "midi": 83,
                    "time": 88.57942533333345,
                    "velocity": 0.2992125984251969,
                    "duration": 0.03847933333332776
                },
                {
                    "name": "E5",
                    "midi": 76,
                    "time": 88.6563840000001,
                    "velocity": 0.2677165354330709,
                    "duration": 0.9235039999999941
                },
                {
                    "name": "G5",
                    "midi": 79,
                    "time": 88.6563840000001,
                    "velocity": 0.2677165354330709,
                    "duration": 0.9235039999999941
                },
                {
                    "name": "B5",
                    "midi": 83,
                    "time": 88.6563840000001,
                    "velocity": 0.3228346456692913,
                    "duration": 0.9235039999999941
                },
                {
                    "name": "E6",
                    "midi": 88,
                    "time": 89.5798880000001,
                    "velocity": 0.3228346456692913,
                    "duration": 0.9235039999999941
                }
            ],
            "controlChanges": {
                "7": [
                    {
                        "number": 7,
                        "time": 0,
                        "value": 1
                    }
                ],
                "10": [
                    {
                        "number": 10,
                        "time": 0,
                        "value": 0.5039370078740157
                    }
                ],
                "91": [
                    {
                        "number": 91,
                        "time": 0,
                        "value": 1
                    }
                ]
            },
            "id": 1,
            "name": "Piano right",
            "instrumentNumber": 0,
            "instrument": "acoustic grand piano",
            "instrumentFamily": "piano",
            "channelNumber": 0,
            "isPercussion": false
        },
        {
            "startTime": 1.6161320000000001,
            "duration": 90.50339199999974,
            "length": 336,
            "notes": [
                {
                    "name": "E3",
                    "midi": 52,
                    "time": 1.6161320000000001,
                    "velocity": 0.3937007874015748,
                    "duration": 0.03847933333333331
                },
                {
                    "name": "G3",
                    "midi": 55,
                    "time": 1.6161320000000001,
                    "velocity": 0.4645669291338583,
                    "duration": 0.03847933333333331
                },
                {
                    "name": "E3",
                    "midi": 52,
                    "time": 1.6930906666666667,
                    "velocity": 0.3937007874015748,
                    "duration": 0.03847933333333331
                },
                {
                    "name": "G3",
                    "midi": 55,
                    "time": 1.6930906666666667,
                    "velocity": 0.4645669291338583,
                    "duration": 0.03847933333333331
                },
                {
                    "name": "E3",
                    "midi": 52,
                    "time": 1.7700493333333334,
                    "velocity": 0.3937007874015748,
                    "duration": 0.03847933333333331
                },
                {
                    "name": "G3",
                    "midi": 55,
                    "time": 1.7700493333333334,
                    "velocity": 0.4645669291338583,
                    "duration": 0.03847933333333331
                },
                {
                    "name": "E3",
                    "midi": 52,
                    "time": 1.847008,
                    "velocity": 0.41732283464566927,
                    "duration": 0.6926279999999998
                },
                {
                    "name": "G3",
                    "midi": 55,
                    "time": 1.847008,
                    "velocity": 0.49606299212598426,
                    "duration": 0.6926279999999998
                },
                {
                    "name": "E3",
                    "midi": 52,
                    "time": 2.539636,
                    "velocity": 0.3937007874015748,
                    "duration": 0.03847933333333353
                },
                {
                    "name": "G3",
                    "midi": 55,
                    "time": 2.539636,
                    "velocity": 0.4645669291338583,
                    "duration": 0.03847933333333353
                },
                {
                    "name": "E3",
                    "midi": 52,
                    "time": 2.616594666666667,
                    "velocity": 0.3937007874015748,
                    "duration": 0.03847933333333353
                },
                {
                    "name": "G3",
                    "midi": 55,
                    "time": 2.616594666666667,
                    "velocity": 0.4645669291338583,
                    "duration": 0.03847933333333353
                },
                {
                    "name": "E3",
                    "midi": 52,
                    "time": 2.693553333333334,
                    "velocity": 0.3937007874015748,
                    "duration": 0.03847933333333353
                },
                {
                    "name": "G3",
                    "midi": 55,
                    "time": 2.693553333333334,
                    "velocity": 0.4645669291338583,
                    "duration": 0.03847933333333353
                },
                {
                    "name": "E3",
                    "midi": 52,
                    "time": 2.770512000000001,
                    "velocity": 0.41732283464566927,
                    "duration": 0.692628
                },
                {
                    "name": "G3",
                    "midi": 55,
                    "time": 2.770512000000001,
                    "velocity": 0.49606299212598426,
                    "duration": 0.692628
                },
                {
                    "name": "E3",
                    "midi": 52,
                    "time": 3.463140000000001,
                    "velocity": 0.3937007874015748,
                    "duration": 0.03847933333333353
                },
                {
                    "name": "G3",
                    "midi": 55,
                    "time": 3.463140000000001,
                    "velocity": 0.4645669291338583,
                    "duration": 0.03847933333333353
                },
                {
                    "name": "E3",
                    "midi": 52,
                    "time": 3.540098666666668,
                    "velocity": 0.3937007874015748,
                    "duration": 0.03847933333333353
                },
                {
                    "name": "G3",
                    "midi": 55,
                    "time": 3.540098666666668,
                    "velocity": 0.4645669291338583,
                    "duration": 0.03847933333333353
                },
                {
                    "name": "E3",
                    "midi": 52,
                    "time": 3.617057333333335,
                    "velocity": 0.3937007874015748,
                    "duration": 0.03847933333333353
                },
                {
                    "name": "G3",
                    "midi": 55,
                    "time": 3.617057333333335,
                    "velocity": 0.4645669291338583,
                    "duration": 0.03847933333333353
                },
                {
                    "name": "E2",
                    "midi": 40,
                    "time": 3.694016000000002,
                    "velocity": 0.41732283464566927,
                    "duration": 1.385256
                },
                {
                    "name": "E3",
                    "midi": 52,
                    "time": 3.694016000000002,
                    "velocity": 0.49606299212598426,
                    "duration": 1.385256
                },
                {
                    "name": "E4",
                    "midi": 64,
                    "time": 5.3101480000000025,
                    "velocity": 0.4330708661417323,
                    "duration": 0.03847933333333309
                },
                {
                    "name": "G4",
                    "midi": 67,
                    "time": 5.3101480000000025,
                    "velocity": 0.5039370078740157,
                    "duration": 0.03847933333333309
                },
                {
                    "name": "E4",
                    "midi": 64,
                    "time": 5.387106666666669,
                    "velocity": 0.4330708661417323,
                    "duration": 0.03847933333333309
                },
                {
                    "name": "G4",
                    "midi": 67,
                    "time": 5.387106666666669,
                    "velocity": 0.5039370078740157,
                    "duration": 0.03847933333333309
                },
                {
                    "name": "E4",
                    "midi": 64,
                    "time": 5.464065333333335,
                    "velocity": 0.4330708661417323,
                    "duration": 0.03847933333333309
                },
                {
                    "name": "G4",
                    "midi": 67,
                    "time": 5.464065333333335,
                    "velocity": 0.5039370078740157,
                    "duration": 0.03847933333333309
                },
                {
                    "name": "B3",
                    "midi": 59,
                    "time": 5.541024000000001,
                    "velocity": 0.4566929133858268,
                    "duration": 0.692628
                },
                {
                    "name": "F#4",
                    "midi": 66,
                    "time": 5.541024000000001,
                    "velocity": 0.5433070866141733,
                    "duration": 0.692628
                },
                {
                    "name": "E4",
                    "midi": 64,
                    "time": 6.233652000000001,
                    "velocity": 0.4330708661417323,
                    "duration": 0.03847933333333309
                },
                {
                    "name": "G4",
                    "midi": 67,
                    "time": 6.233652000000001,
                    "velocity": 0.5039370078740157,
                    "duration": 0.03847933333333309
                },
                {
                    "name": "E4",
                    "midi": 64,
                    "time": 6.310610666666667,
                    "velocity": 0.4330708661417323,
                    "duration": 0.03847933333333309
                },
                {
                    "name": "G4",
                    "midi": 67,
                    "time": 6.310610666666667,
                    "velocity": 0.5039370078740157,
                    "duration": 0.03847933333333309
                },
                {
                    "name": "E4",
                    "midi": 64,
                    "time": 6.387569333333333,
                    "velocity": 0.4330708661417323,
                    "duration": 0.03847933333333309
                },
                {
                    "name": "G4",
                    "midi": 67,
                    "time": 6.387569333333333,
                    "velocity": 0.5039370078740157,
                    "duration": 0.03847933333333309
                },
                {
                    "name": "B3",
                    "midi": 59,
                    "time": 6.464528,
                    "velocity": 0.4566929133858268,
                    "duration": 0.692628
                },
                {
                    "name": "F#4",
                    "midi": 66,
                    "time": 6.464528,
                    "velocity": 0.5433070866141733,
                    "duration": 0.692628
                },
                {
                    "name": "E4",
                    "midi": 64,
                    "time": 7.157156,
                    "velocity": 0.4330708661417323,
                    "duration": 0.03847933333333309
                },
                {
                    "name": "G4",
                    "midi": 67,
                    "time": 7.157156,
                    "velocity": 0.5039370078740157,
                    "duration": 0.03847933333333309
                },
                {
                    "name": "E4",
                    "midi": 64,
                    "time": 7.234114666666666,
                    "velocity": 0.4330708661417323,
                    "duration": 0.03847933333333309
                },
                {
                    "name": "G4",
                    "midi": 67,
                    "time": 7.234114666666666,
                    "velocity": 0.5039370078740157,
                    "duration": 0.03847933333333309
                },
                {
                    "name": "E4",
                    "midi": 64,
                    "time": 7.311073333333332,
                    "velocity": 0.4330708661417323,
                    "duration": 0.03847933333333309
                },
                {
                    "name": "G4",
                    "midi": 67,
                    "time": 7.311073333333332,
                    "velocity": 0.5039370078740157,
                    "duration": 0.03847933333333309
                },
                {
                    "name": "B3",
                    "midi": 59,
                    "time": 7.388031999999998,
                    "velocity": 0.4566929133858268,
                    "duration": 1.3833320333333345
                },
                {
                    "name": "D#4",
                    "midi": 63,
                    "time": 7.388031999999998,
                    "velocity": 0.4566929133858268,
                    "duration": 1.385256000000001
                },
                {
                    "name": "F#4",
                    "midi": 66,
                    "time": 7.388031999999998,
                    "velocity": 0.4566929133858268,
                    "duration": 1.385256000000001
                },
                {
                    "name": "B4",
                    "midi": 71,
                    "time": 7.388031999999998,
                    "velocity": 0.5433070866141733,
                    "duration": 1.385256000000001
                },
                {
                    "name": "E1",
                    "midi": 28,
                    "time": 9.23504,
                    "velocity": 0.4094488188976378,
                    "duration": 1.8470080000000006
                },
                {
                    "name": "E2",
                    "midi": 40,
                    "time": 9.23504,
                    "velocity": 0.4881889763779528,
                    "duration": 1.8470080000000006
                },
                {
                    "name": "E2",
                    "midi": 40,
                    "time": 11.082048,
                    "velocity": 0.3937007874015748,
                    "duration": 1.8470080000000006
                },
                {
                    "name": "E3",
                    "midi": 52,
                    "time": 11.082048,
                    "velocity": 0.4645669291338583,
                    "duration": 1.8470080000000006
                },
                {
                    "name": "E2",
                    "midi": 40,
                    "time": 12.929056000000001,
                    "velocity": 0.3937007874015748,
                    "duration": 0.9235039999999994
                },
                {
                    "name": "E3",
                    "midi": 52,
                    "time": 12.929056000000001,
                    "velocity": 0.4645669291338583,
                    "duration": 0.9235039999999994
                },
                {
                    "name": "A1",
                    "midi": 33,
                    "time": 13.85256,
                    "velocity": 0.41732283464566927,
                    "duration": 0.9235039999999994
                },
                {
                    "name": "A2",
                    "midi": 45,
                    "time": 13.85256,
                    "velocity": 0.49606299212598426,
                    "duration": 0.9235039999999994
                },
                {
                    "name": "B1",
                    "midi": 35,
                    "time": 14.776064,
                    "velocity": 0.3937007874015748,
                    "duration": 1.385256
                },
                {
                    "name": "B2",
                    "midi": 47,
                    "time": 14.776064,
                    "velocity": 0.4645669291338583,
                    "duration": 1.385256
                },
                {
                    "name": "B3",
                    "midi": 59,
                    "time": 16.16132,
                    "velocity": 0.3464566929133858,
                    "duration": 0.4617520000000006
                },
                {
                    "name": "E4",
                    "midi": 64,
                    "time": 16.623072,
                    "velocity": 0.3779527559055118,
                    "duration": 0.4617520000000006
                },
                {
                    "name": "D4",
                    "midi": 62,
                    "time": 17.084824,
                    "velocity": 0.3779527559055118,
                    "duration": 0.4617520000000006
                },
                {
                    "name": "C4",
                    "midi": 60,
                    "time": 17.546576,
                    "velocity": 0.3779527559055118,
                    "duration": 0.4617520000000006
                },
                {
                    "name": "B3",
                    "midi": 59,
                    "time": 18.008328000000002,
                    "velocity": 0.3779527559055118,
                    "duration": 0.4617520000000006
                },
                {
                    "name": "A3",
                    "midi": 57,
                    "time": 18.470080000000003,
                    "velocity": 0.3779527559055118,
                    "duration": 0.4617520000000006
                },
                {
                    "name": "A2",
                    "midi": 45,
                    "time": 18.931832000000004,
                    "velocity": 0.3700787401574803,
                    "duration": 0.4617520000000006
                },
                {
                    "name": "G3",
                    "midi": 55,
                    "time": 19.393584000000004,
                    "velocity": 0.3779527559055118,
                    "duration": 0.4617520000000006
                },
                {
                    "name": "G2",
                    "midi": 43,
                    "time": 19.855336000000005,
                    "velocity": 0.33070866141732286,
                    "duration": 0.4617520000000006
                },
                {
                    "name": "C3",
                    "midi": 48,
                    "time": 20.317088000000005,
                    "velocity": 0.3228346456692913,
                    "duration": 0.46175199999999705
                },
                {
                    "name": "A2",
                    "midi": 45,
                    "time": 20.778840000000002,
                    "velocity": 0.2677165354330709,
                    "duration": 0.4617520000000006
                },
                {
                    "name": "E3",
                    "midi": 52,
                    "time": 20.778840000000002,
                    "velocity": 0.3228346456692913,
                    "duration": 0.4617520000000006
                },
                {
                    "name": "G2",
                    "midi": 43,
                    "time": 21.240592000000003,
                    "velocity": 0.2677165354330709,
                    "duration": 0.4617520000000006
                },
                {
                    "name": "E3",
                    "midi": 52,
                    "time": 21.240592000000003,
                    "velocity": 0.31496062992125984,
                    "duration": 0.4617520000000006
                },
                {
                    "name": "A2",
                    "midi": 45,
                    "time": 21.702344000000004,
                    "velocity": 0.2440944881889764,
                    "duration": 0.4617520000000006
                },
                {
                    "name": "E3",
                    "midi": 52,
                    "time": 21.702344000000004,
                    "velocity": 0.29133858267716534,
                    "duration": 0.4617520000000006
                },
                {
                    "name": "E2",
                    "midi": 40,
                    "time": 22.164096000000004,
                    "velocity": 0.2204724409448819,
                    "duration": 1.3852560000000018
                },
                {
                    "name": "E3",
                    "midi": 52,
                    "time": 22.164096000000004,
                    "velocity": 0.2677165354330709,
                    "duration": 1.3852560000000018
                },
                {
                    "name": "B2",
                    "midi": 47,
                    "time": 23.549352000000006,
                    "velocity": 0.44881889763779526,
                    "duration": 0.4598280333333342
                },
                {
                    "name": "E1",
                    "midi": 28,
                    "time": 24.011104000000007,
                    "velocity": 0.4094488188976378,
                    "duration": 0.9235040000000012
                },
                {
                    "name": "E2",
                    "midi": 40,
                    "time": 24.011104000000007,
                    "velocity": 0.4881889763779528,
                    "duration": 0.9235040000000012
                },
                {
                    "name": "B1",
                    "midi": 35,
                    "time": 24.934608000000008,
                    "velocity": 0.4094488188976378,
                    "duration": 0.9235040000000012
                },
                {
                    "name": "B2",
                    "midi": 47,
                    "time": 24.934608000000008,
                    "velocity": 0.4881889763779528,
                    "duration": 0.9235040000000012
                },
                {
                    "name": "E2",
                    "midi": 40,
                    "time": 25.85811200000001,
                    "velocity": 0.3937007874015748,
                    "duration": 1.3852560000000018
                },
                {
                    "name": "E3",
                    "midi": 52,
                    "time": 25.85811200000001,
                    "velocity": 0.4645669291338583,
                    "duration": 1.3852560000000018
                },
                {
                    "name": "B1",
                    "midi": 35,
                    "time": 27.24336800000001,
                    "velocity": 0.4251968503937008,
                    "duration": 0.4617520000000006
                },
                {
                    "name": "B2",
                    "midi": 47,
                    "time": 27.24336800000001,
                    "velocity": 0.44881889763779526,
                    "duration": 0.4617520000000006
                },
                {
                    "name": "E2",
                    "midi": 40,
                    "time": 27.70512000000001,
                    "velocity": 0.3937007874015748,
                    "duration": 0.9235040000000012
                },
                {
                    "name": "E3",
                    "midi": 52,
                    "time": 27.70512000000001,
                    "velocity": 0.4645669291338583,
                    "duration": 0.9235040000000012
                },
                {
                    "name": "A2",
                    "midi": 45,
                    "time": 28.628624000000013,
                    "velocity": 0.4645669291338583,
                    "duration": 0.9235040000000012
                },
                {
                    "name": "A3",
                    "midi": 57,
                    "time": 28.628624000000013,
                    "velocity": 0.5118110236220472,
                    "duration": 0.9235040000000012
                },
                {
                    "name": "B2",
                    "midi": 47,
                    "time": 29.552128000000014,
                    "velocity": 0.3937007874015748,
                    "duration": 1.3852559999999983
                },
                {
                    "name": "B3",
                    "midi": 59,
                    "time": 29.552128000000014,
                    "velocity": 0.4645669291338583,
                    "duration": 1.3852559999999983
                },
                {
                    "name": "B3",
                    "midi": 59,
                    "time": 30.937384000000012,
                    "velocity": 0.3464566929133858,
                    "duration": 0.4617520000000006
                },
                {
                    "name": "E4",
                    "midi": 64,
                    "time": 31.399136000000013,
                    "velocity": 0.3779527559055118,
                    "duration": 0.4617520000000006
                },
                {
                    "name": "D4",
                    "midi": 62,
                    "time": 31.860888000000013,
                    "velocity": 0.3779527559055118,
                    "duration": 0.4617520000000006
                },
                {
                    "name": "C4",
                    "midi": 60,
                    "time": 32.322640000000014,
                    "velocity": 0.3779527559055118,
                    "duration": 0.46175199999999705
                },
                {
                    "name": "B3",
                    "midi": 59,
                    "time": 32.78439200000001,
                    "velocity": 0.3779527559055118,
                    "duration": 0.46175199999999705
                },
                {
                    "name": "A3",
                    "midi": 57,
                    "time": 33.24614400000001,
                    "velocity": 0.3779527559055118,
                    "duration": 0.46175199999999705
                },
                {
                    "name": "D3",
                    "midi": 50,
                    "time": 33.707896000000005,
                    "velocity": 0.3700787401574803,
                    "duration": 0.46175200000000416
                },
                {
                    "name": "G3",
                    "midi": 55,
                    "time": 34.16964800000001,
                    "velocity": 0.3779527559055118,
                    "duration": 0.46175199999999705
                },
                {
                    "name": "G2",
                    "midi": 43,
                    "time": 34.631400000000006,
                    "velocity": 0.33070866141732286,
                    "duration": 0.46175200000000416
                },
                {
                    "name": "C3",
                    "midi": 48,
                    "time": 35.09315200000001,
                    "velocity": 0.3228346456692913,
                    "duration": 0.46175199999999705
                },
                {
                    "name": "A2",
                    "midi": 45,
                    "time": 35.55490400000001,
                    "velocity": 0.2677165354330709,
                    "duration": 0.46175199999999705
                },
                {
                    "name": "E3",
                    "midi": 52,
                    "time": 35.55490400000001,
                    "velocity": 0.3228346456692913,
                    "duration": 0.46175199999999705
                },
                {
                    "name": "G2",
                    "midi": 43,
                    "time": 36.016656000000005,
                    "velocity": 0.2677165354330709,
                    "duration": 0.46175200000000416
                },
                {
                    "name": "E3",
                    "midi": 52,
                    "time": 36.016656000000005,
                    "velocity": 0.31496062992125984,
                    "duration": 0.46175200000000416
                },
                {
                    "name": "A2",
                    "midi": 45,
                    "time": 36.47840800000001,
                    "velocity": 0.2440944881889764,
                    "duration": 0.46175199999999705
                },
                {
                    "name": "E3",
                    "midi": 52,
                    "time": 36.47840800000001,
                    "velocity": 0.29133858267716534,
                    "duration": 0.46175199999999705
                },
                {
                    "name": "E2",
                    "midi": 40,
                    "time": 36.940160000000006,
                    "velocity": 0.2204724409448819,
                    "duration": 1.3852559999999983
                },
                {
                    "name": "E3",
                    "midi": 52,
                    "time": 36.940160000000006,
                    "velocity": 0.2677165354330709,
                    "duration": 1.3852559999999983
                },
                {
                    "name": "B1",
                    "midi": 35,
                    "time": 38.787168,
                    "velocity": 0.3543307086614173,
                    "duration": 0.9235040000000012
                },
                {
                    "name": "B2",
                    "midi": 47,
                    "time": 38.787168,
                    "velocity": 0.41732283464566927,
                    "duration": 0.9235040000000012
                },
                {
                    "name": "B1",
                    "midi": 35,
                    "time": 39.710672,
                    "velocity": 0.33070866141732286,
                    "duration": 0.9235040000000012
                },
                {
                    "name": "B2",
                    "midi": 47,
                    "time": 39.710672,
                    "velocity": 0.3937007874015748,
                    "duration": 0.9235040000000012
                },
                {
                    "name": "B1",
                    "midi": 35,
                    "time": 40.634176000000004,
                    "velocity": 0.3779527559055118,
                    "duration": 0.9235040000000012
                },
                {
                    "name": "B2",
                    "midi": 47,
                    "time": 40.634176000000004,
                    "velocity": 0.4566929133858268,
                    "duration": 0.46175200000000416
                },
                {
                    "name": "B2",
                    "midi": 47,
                    "time": 41.09592800000001,
                    "velocity": 0.4330708661417323,
                    "duration": 0.46175199999999705
                },
                {
                    "name": "B1",
                    "midi": 35,
                    "time": 41.557680000000005,
                    "velocity": 0.4015748031496063,
                    "duration": 0.9235039999999941
                },
                {
                    "name": "B2",
                    "midi": 47,
                    "time": 41.557680000000005,
                    "velocity": 0.48031496062992124,
                    "duration": 0.46175199999999705
                },
                {
                    "name": "B2",
                    "midi": 47,
                    "time": 42.019432,
                    "velocity": 0.4409448818897638,
                    "duration": 0.46175199999999705
                },
                {
                    "name": "B1",
                    "midi": 35,
                    "time": 42.481184,
                    "velocity": 0.4330708661417323,
                    "duration": 0.46175199999999705
                },
                {
                    "name": "B2",
                    "midi": 47,
                    "time": 42.481184,
                    "velocity": 0.5196850393700787,
                    "duration": 0.46175199999999705
                },
                {
                    "name": "B1",
                    "midi": 35,
                    "time": 42.942935999999996,
                    "velocity": 0.41732283464566927,
                    "duration": 0.46175199999999705
                },
                {
                    "name": "B2",
                    "midi": 47,
                    "time": 42.942935999999996,
                    "velocity": 0.49606299212598426,
                    "duration": 0.46175199999999705
                },
                {
                    "name": "B1",
                    "midi": 35,
                    "time": 43.40468799999999,
                    "velocity": 0.44881889763779526,
                    "duration": 0.46175199999999705
                },
                {
                    "name": "B2",
                    "midi": 47,
                    "time": 43.40468799999999,
                    "velocity": 0.5275590551181102,
                    "duration": 0.46175199999999705
                },
                {
                    "name": "B1",
                    "midi": 35,
                    "time": 43.86643999999999,
                    "velocity": 0.4330708661417323,
                    "duration": 0.46175199999999705
                },
                {
                    "name": "B2",
                    "midi": 47,
                    "time": 43.86643999999999,
                    "velocity": 0.5118110236220472,
                    "duration": 0.46175199999999705
                },
                {
                    "name": "B1",
                    "midi": 35,
                    "time": 44.32819199999999,
                    "velocity": 0.4645669291338583,
                    "duration": 0.46175199999999705
                },
                {
                    "name": "B2",
                    "midi": 47,
                    "time": 44.32819199999999,
                    "velocity": 0.5511811023622047,
                    "duration": 0.46175199999999705
                },
                {
                    "name": "B1",
                    "midi": 35,
                    "time": 44.789943999999984,
                    "velocity": 0.48031496062992124,
                    "duration": 0.07695866666666973
                },
                {
                    "name": "B2",
                    "midi": 47,
                    "time": 44.789943999999984,
                    "velocity": 0.5748031496062992,
                    "duration": 0.07695866666666973
                },
                {
                    "name": "B1",
                    "midi": 35,
                    "time": 44.943861333333324,
                    "velocity": 0.4566929133858268,
                    "duration": 0.07695866666666973
                },
                {
                    "name": "B2",
                    "midi": 47,
                    "time": 44.943861333333324,
                    "velocity": 0.5433070866141733,
                    "duration": 0.07695866666666973
                },
                {
                    "name": "B1",
                    "midi": 35,
                    "time": 45.09777866666666,
                    "velocity": 0.4645669291338583,
                    "duration": 0.07695866666666973
                },
                {
                    "name": "B2",
                    "midi": 47,
                    "time": 45.09777866666666,
                    "velocity": 0.5511811023622047,
                    "duration": 0.07695866666666973
                },
                {
                    "name": "B1",
                    "midi": 35,
                    "time": 45.251696,
                    "velocity": 0.4251968503937008,
                    "duration": 0.46175199999999705
                },
                {
                    "name": "B2",
                    "midi": 47,
                    "time": 45.251696,
                    "velocity": 0.5984251968503937,
                    "duration": 0.46175199999999705
                },
                {
                    "name": "B1",
                    "midi": 35,
                    "time": 45.713448,
                    "velocity": 0.5118110236220472,
                    "duration": 0.07695866666666973
                },
                {
                    "name": "B2",
                    "midi": 47,
                    "time": 45.713448,
                    "velocity": 0.6141732283464567,
                    "duration": 0.07695866666666973
                },
                {
                    "name": "B1",
                    "midi": 35,
                    "time": 45.86736533333334,
                    "velocity": 0.48031496062992124,
                    "duration": 0.07695866666666973
                },
                {
                    "name": "B2",
                    "midi": 47,
                    "time": 45.86736533333334,
                    "velocity": 0.5748031496062992,
                    "duration": 0.07695866666666973
                },
                {
                    "name": "B1",
                    "midi": 35,
                    "time": 46.02128266666668,
                    "velocity": 0.4881889763779528,
                    "duration": 0.07695866666666973
                },
                {
                    "name": "B2",
                    "midi": 47,
                    "time": 46.02128266666668,
                    "velocity": 0.5748031496062992,
                    "duration": 0.07695866666666973
                },
                {
                    "name": "C3",
                    "midi": 48,
                    "time": 46.17520000000002,
                    "velocity": 0.5275590551181102,
                    "duration": 0.46175199999999705
                },
                {
                    "name": "C4",
                    "midi": 60,
                    "time": 46.17520000000002,
                    "velocity": 0.6220472440944882,
                    "duration": 0.46175199999999705
                },
                {
                    "name": "B2",
                    "midi": 47,
                    "time": 46.636952000000015,
                    "velocity": 0.5039370078740157,
                    "duration": 0.46175199999999705
                },
                {
                    "name": "B3",
                    "midi": 59,
                    "time": 46.636952000000015,
                    "velocity": 0.6062992125984252,
                    "duration": 0.46175199999999705
                },
                {
                    "name": "A2",
                    "midi": 45,
                    "time": 47.09870400000001,
                    "velocity": 0.4881889763779528,
                    "duration": 0.46175199999999705
                },
                {
                    "name": "A3",
                    "midi": 57,
                    "time": 47.09870400000001,
                    "velocity": 0.5826771653543307,
                    "duration": 0.46175199999999705
                },
                {
                    "name": "G2",
                    "midi": 43,
                    "time": 47.56045600000001,
                    "velocity": 0.49606299212598426,
                    "duration": 0.46175199999999705
                },
                {
                    "name": "G3",
                    "midi": 55,
                    "time": 47.56045600000001,
                    "velocity": 0.5905511811023622,
                    "duration": 0.46175199999999705
                },
                {
                    "name": "F#2",
                    "midi": 42,
                    "time": 48.022208000000006,
                    "velocity": 0.5039370078740157,
                    "duration": 0.46175200000000416
                },
                {
                    "name": "F#3",
                    "midi": 54,
                    "time": 48.022208000000006,
                    "velocity": 0.6062992125984252,
                    "duration": 0.46175200000000416
                },
                {
                    "name": "E2",
                    "midi": 40,
                    "time": 48.48396000000001,
                    "velocity": 0.5039370078740157,
                    "duration": 0.46175199999999705
                },
                {
                    "name": "E3",
                    "midi": 52,
                    "time": 48.48396000000001,
                    "velocity": 0.6062992125984252,
                    "duration": 0.46175199999999705
                },
                {
                    "name": "D#2",
                    "midi": 39,
                    "time": 48.94571200000001,
                    "velocity": 0.5039370078740157,
                    "duration": 0.46175199999999705
                },
                {
                    "name": "D#3",
                    "midi": 51,
                    "time": 48.94571200000001,
                    "velocity": 0.6062992125984252,
                    "duration": 0.46175199999999705
                },
                {
                    "name": "B1",
                    "midi": 35,
                    "time": 49.407464000000004,
                    "velocity": 0.5196850393700787,
                    "duration": 0.07695866666666973
                },
                {
                    "name": "B2",
                    "midi": 47,
                    "time": 49.407464000000004,
                    "velocity": 0.6141732283464567,
                    "duration": 0.07695866666666973
                },
                {
                    "name": "B1",
                    "midi": 35,
                    "time": 49.561381333333344,
                    "velocity": 0.47244094488188976,
                    "duration": 0.07695866666666973
                },
                {
                    "name": "B2",
                    "midi": 47,
                    "time": 49.561381333333344,
                    "velocity": 0.5748031496062992,
                    "duration": 0.07695866666666973
                },
                {
                    "name": "B1",
                    "midi": 35,
                    "time": 49.71529866666668,
                    "velocity": 0.48031496062992124,
                    "duration": 0.07695866666666973
                },
                {
                    "name": "B2",
                    "midi": 47,
                    "time": 49.71529866666668,
                    "velocity": 0.5748031496062992,
                    "duration": 0.07695866666666973
                },
                {
                    "name": "C2",
                    "midi": 36,
                    "time": 49.86921600000002,
                    "velocity": 0.5275590551181102,
                    "duration": 0.46175199999999705
                },
                {
                    "name": "C3",
                    "midi": 48,
                    "time": 49.86921600000002,
                    "velocity": 0.6141732283464567,
                    "duration": 0.46175199999999705
                },
                {
                    "name": "C2",
                    "midi": 36,
                    "time": 50.33096800000002,
                    "velocity": 0.5039370078740157,
                    "duration": 0.46175199999999705
                },
                {
                    "name": "C3",
                    "midi": 48,
                    "time": 50.33096800000002,
                    "velocity": 0.5984251968503937,
                    "duration": 0.46175199999999705
                },
                {
                    "name": "C2",
                    "midi": 36,
                    "time": 50.79272000000002,
                    "velocity": 0.48031496062992124,
                    "duration": 0.46175199999999705
                },
                {
                    "name": "C3",
                    "midi": 48,
                    "time": 50.79272000000002,
                    "velocity": 0.5826771653543307,
                    "duration": 0.46175199999999705
                },
                {
                    "name": "C2",
                    "midi": 36,
                    "time": 51.254472000000014,
                    "velocity": 0.49606299212598426,
                    "duration": 0.46175199999999705
                },
                {
                    "name": "C3",
                    "midi": 48,
                    "time": 51.254472000000014,
                    "velocity": 0.5905511811023622,
                    "duration": 0.46175199999999705
                },
                {
                    "name": "C3",
                    "midi": 48,
                    "time": 51.71622400000001,
                    "velocity": 0.5039370078740157,
                    "duration": 0.46175200000000416
                },
                {
                    "name": "C4",
                    "midi": 60,
                    "time": 51.71622400000001,
                    "velocity": 0.5984251968503937,
                    "duration": 0.46175200000000416
                },
                {
                    "name": "C3",
                    "midi": 48,
                    "time": 52.177976000000015,
                    "velocity": 0.5039370078740157,
                    "duration": 0.46175200000000416
                },
                {
                    "name": "B3",
                    "midi": 59,
                    "time": 52.177976000000015,
                    "velocity": 0.5984251968503937,
                    "duration": 0.46175200000000416
                },
                {
                    "name": "C3",
                    "midi": 48,
                    "time": 52.63972800000002,
                    "velocity": 0.5039370078740157,
                    "duration": 0.46175200000000416
                },
                {
                    "name": "A3",
                    "midi": 57,
                    "time": 52.63972800000002,
                    "velocity": 0.5039370078740157,
                    "duration": 0.45982803333333777
                },
                {
                    "name": "C4",
                    "midi": 60,
                    "time": 52.63972800000002,
                    "velocity": 0.5984251968503937,
                    "duration": 0.46175200000000416
                },
                {
                    "name": "C2",
                    "midi": 36,
                    "time": 53.10148000000002,
                    "velocity": 0.5748031496062992,
                    "duration": 0.46175199999999705
                },
                {
                    "name": "C3",
                    "midi": 48,
                    "time": 53.10148000000002,
                    "velocity": 0.5748031496062992,
                    "duration": 0.46175199999999705
                },
                {
                    "name": "B1",
                    "midi": 35,
                    "time": 53.56323200000002,
                    "velocity": 0.47244094488188976,
                    "duration": 0.46175199999999705
                },
                {
                    "name": "B2",
                    "midi": 47,
                    "time": 53.56323200000002,
                    "velocity": 0.5669291338582677,
                    "duration": 0.46175199999999705
                },
                {
                    "name": "F#4",
                    "midi": 66,
                    "time": 57.026372000000016,
                    "velocity": 0.49606299212598426,
                    "duration": 0.038479333333334864
                },
                {
                    "name": "A4",
                    "midi": 69,
                    "time": 57.026372000000016,
                    "velocity": 0.5748031496062992,
                    "duration": 0.038479333333334864
                },
                {
                    "name": "F#4",
                    "midi": 66,
                    "time": 57.103330666666686,
                    "velocity": 0.49606299212598426,
                    "duration": 0.038479333333334864
                },
                {
                    "name": "A4",
                    "midi": 69,
                    "time": 57.103330666666686,
                    "velocity": 0.5748031496062992,
                    "duration": 0.038479333333334864
                },
                {
                    "name": "F#4",
                    "midi": 66,
                    "time": 57.180289333333356,
                    "velocity": 0.49606299212598426,
                    "duration": 0.038479333333334864
                },
                {
                    "name": "A4",
                    "midi": 69,
                    "time": 57.180289333333356,
                    "velocity": 0.5748031496062992,
                    "duration": 0.038479333333334864
                },
                {
                    "name": "B3",
                    "midi": 59,
                    "time": 57.257248000000025,
                    "velocity": 0.5196850393700787,
                    "duration": 0.6926279999999991
                },
                {
                    "name": "F#4",
                    "midi": 66,
                    "time": 57.257248000000025,
                    "velocity": 0.6220472440944882,
                    "duration": 0.6926279999999991
                },
                {
                    "name": "F#4",
                    "midi": 66,
                    "time": 57.949876000000025,
                    "velocity": 0.49606299212598426,
                    "duration": 0.038479333333334864
                },
                {
                    "name": "A4",
                    "midi": 69,
                    "time": 57.949876000000025,
                    "velocity": 0.5748031496062992,
                    "duration": 0.038479333333334864
                },
                {
                    "name": "F#4",
                    "midi": 66,
                    "time": 58.026834666666694,
                    "velocity": 0.49606299212598426,
                    "duration": 0.038479333333334864
                },
                {
                    "name": "A4",
                    "midi": 69,
                    "time": 58.026834666666694,
                    "velocity": 0.5748031496062992,
                    "duration": 0.038479333333334864
                },
                {
                    "name": "F#4",
                    "midi": 66,
                    "time": 58.103793333333364,
                    "velocity": 0.49606299212598426,
                    "duration": 0.038479333333334864
                },
                {
                    "name": "A4",
                    "midi": 69,
                    "time": 58.103793333333364,
                    "velocity": 0.5748031496062992,
                    "duration": 0.038479333333334864
                },
                {
                    "name": "B3",
                    "midi": 59,
                    "time": 58.180752000000034,
                    "velocity": 0.5196850393700787,
                    "duration": 0.6926279999999991
                },
                {
                    "name": "F#4",
                    "midi": 66,
                    "time": 58.180752000000034,
                    "velocity": 0.6220472440944882,
                    "duration": 0.6926279999999991
                },
                {
                    "name": "F#4",
                    "midi": 66,
                    "time": 58.87338000000003,
                    "velocity": 0.49606299212598426,
                    "duration": 0.038479333333334864
                },
                {
                    "name": "A4",
                    "midi": 69,
                    "time": 58.87338000000003,
                    "velocity": 0.5748031496062992,
                    "duration": 0.038479333333334864
                },
                {
                    "name": "F#4",
                    "midi": 66,
                    "time": 58.9503386666667,
                    "velocity": 0.49606299212598426,
                    "duration": 0.038479333333334864
                },
                {
                    "name": "A4",
                    "midi": 69,
                    "time": 58.9503386666667,
                    "velocity": 0.5748031496062992,
                    "duration": 0.038479333333334864
                },
                {
                    "name": "F#4",
                    "midi": 66,
                    "time": 59.02729733333337,
                    "velocity": 0.49606299212598426,
                    "duration": 0.038479333333334864
                },
                {
                    "name": "A4",
                    "midi": 69,
                    "time": 59.02729733333337,
                    "velocity": 0.5748031496062992,
                    "duration": 0.038479333333334864
                },
                {
                    "name": "B3",
                    "midi": 59,
                    "time": 59.10425600000004,
                    "velocity": 0.5196850393700787,
                    "duration": 1.3833320333333319
                },
                {
                    "name": "F#4",
                    "midi": 66,
                    "time": 59.10425600000004,
                    "velocity": 0.5196850393700787,
                    "duration": 1.3852559999999983
                },
                {
                    "name": "A4",
                    "midi": 69,
                    "time": 59.10425600000004,
                    "velocity": 0.5196850393700787,
                    "duration": 1.3852559999999983
                },
                {
                    "name": "B4",
                    "midi": 71,
                    "time": 59.10425600000004,
                    "velocity": 0.6220472440944882,
                    "duration": 1.3852559999999983
                },
                {
                    "name": "B1",
                    "midi": 35,
                    "time": 60.48951200000004,
                    "velocity": 0.5275590551181102,
                    "duration": 0.46175199999999705
                },
                {
                    "name": "B2",
                    "midi": 47,
                    "time": 60.48951200000004,
                    "velocity": 0.5826771653543307,
                    "duration": 0.46175199999999705
                },
                {
                    "name": "E1",
                    "midi": 28,
                    "time": 60.95126400000004,
                    "velocity": 0.5275590551181102,
                    "duration": 0.9235040000000012
                },
                {
                    "name": "E2",
                    "midi": 40,
                    "time": 60.95126400000004,
                    "velocity": 0.6377952755905512,
                    "duration": 0.9235040000000012
                },
                {
                    "name": "D1",
                    "midi": 26,
                    "time": 61.87476800000004,
                    "velocity": 0.5275590551181102,
                    "duration": 0.9235039999999941
                },
                {
                    "name": "D2",
                    "midi": 38,
                    "time": 61.87476800000004,
                    "velocity": 0.6377952755905512,
                    "duration": 0.9235039999999941
                },
                {
                    "name": "G1",
                    "midi": 31,
                    "time": 62.79827200000003,
                    "velocity": 0.5118110236220472,
                    "duration": 1.3852560000000054
                },
                {
                    "name": "G2",
                    "midi": 43,
                    "time": 62.79827200000003,
                    "velocity": 0.6062992125984252,
                    "duration": 1.3852560000000054
                },
                {
                    "name": "D1",
                    "midi": 26,
                    "time": 64.18352800000004,
                    "velocity": 0.5118110236220472,
                    "duration": 0.46175200000000416
                },
                {
                    "name": "D2",
                    "midi": 38,
                    "time": 64.18352800000004,
                    "velocity": 0.6062992125984252,
                    "duration": 0.46175200000000416
                },
                {
                    "name": "G1",
                    "midi": 31,
                    "time": 64.64528000000004,
                    "velocity": 0.5118110236220472,
                    "duration": 0.9235039999999941
                },
                {
                    "name": "G2",
                    "midi": 43,
                    "time": 64.64528000000004,
                    "velocity": 0.6062992125984252,
                    "duration": 0.9235039999999941
                },
                {
                    "name": "F#1",
                    "midi": 30,
                    "time": 65.56878400000004,
                    "velocity": 0.5433070866141733,
                    "duration": 0.9235040000000083
                },
                {
                    "name": "F#2",
                    "midi": 42,
                    "time": 65.56878400000004,
                    "velocity": 0.6456692913385826,
                    "duration": 0.9235040000000083
                },
                {
                    "name": "B1",
                    "midi": 35,
                    "time": 66.49228800000004,
                    "velocity": 0.5118110236220472,
                    "duration": 1.3852559999999983
                },
                {
                    "name": "B2",
                    "midi": 47,
                    "time": 66.49228800000004,
                    "velocity": 0.6062992125984252,
                    "duration": 1.3852559999999983
                },
                {
                    "name": "B1",
                    "midi": 35,
                    "time": 67.87754400000004,
                    "velocity": 0.33070866141732286,
                    "duration": 0.11543799999999749
                },
                {
                    "name": "B2",
                    "midi": 47,
                    "time": 67.87754400000004,
                    "velocity": 0.3464566929133858,
                    "duration": 0.11543799999999749
                },
                {
                    "name": "E2",
                    "midi": 40,
                    "time": 68.33929600000005,
                    "velocity": 0.31496062992125984,
                    "duration": 0.11543799999999749
                },
                {
                    "name": "E3",
                    "midi": 52,
                    "time": 68.33929600000005,
                    "velocity": 0.3779527559055118,
                    "duration": 0.11543799999999749
                },
                {
                    "name": "D2",
                    "midi": 38,
                    "time": 68.80104800000005,
                    "velocity": 0.31496062992125984,
                    "duration": 0.11543799999999749
                },
                {
                    "name": "D3",
                    "midi": 50,
                    "time": 68.80104800000005,
                    "velocity": 0.3779527559055118,
                    "duration": 0.11543799999999749
                },
                {
                    "name": "C2",
                    "midi": 36,
                    "time": 69.26280000000006,
                    "velocity": 0.31496062992125984,
                    "duration": 0.11543799999999749
                },
                {
                    "name": "C3",
                    "midi": 48,
                    "time": 69.26280000000006,
                    "velocity": 0.3779527559055118,
                    "duration": 0.11543799999999749
                },
                {
                    "name": "A#1",
                    "midi": 34,
                    "time": 69.72455200000006,
                    "velocity": 0.31496062992125984,
                    "duration": 0.11543799999999749
                },
                {
                    "name": "A#2",
                    "midi": 46,
                    "time": 69.72455200000006,
                    "velocity": 0.3779527559055118,
                    "duration": 0.11543799999999749
                },
                {
                    "name": "A1",
                    "midi": 33,
                    "time": 70.18630400000006,
                    "velocity": 0.31496062992125984,
                    "duration": 0.11543799999999749
                },
                {
                    "name": "A2",
                    "midi": 45,
                    "time": 70.18630400000006,
                    "velocity": 0.3779527559055118,
                    "duration": 0.11543799999999749
                },
                {
                    "name": "D2",
                    "midi": 38,
                    "time": 70.64805600000007,
                    "velocity": 0.30708661417322836,
                    "duration": 0.11543799999999749
                },
                {
                    "name": "D3",
                    "midi": 50,
                    "time": 70.64805600000007,
                    "velocity": 0.3700787401574803,
                    "duration": 0.11543799999999749
                },
                {
                    "name": "G2",
                    "midi": 43,
                    "time": 71.10980800000007,
                    "velocity": 0.31496062992125984,
                    "duration": 0.11543799999999749
                },
                {
                    "name": "G3",
                    "midi": 55,
                    "time": 71.10980800000007,
                    "velocity": 0.3779527559055118,
                    "duration": 0.11543799999999749
                },
                {
                    "name": "G1",
                    "midi": 31,
                    "time": 71.57156000000008,
                    "velocity": 0.2755905511811024,
                    "duration": 0.11543799999999749
                },
                {
                    "name": "G2",
                    "midi": 43,
                    "time": 71.57156000000008,
                    "velocity": 0.33070866141732286,
                    "duration": 0.11543799999999749
                },
                {
                    "name": "C2",
                    "midi": 36,
                    "time": 72.03331200000008,
                    "velocity": 0.2677165354330709,
                    "duration": 0.11543799999999749
                },
                {
                    "name": "C3",
                    "midi": 48,
                    "time": 72.03331200000008,
                    "velocity": 0.3228346456692913,
                    "duration": 0.11543799999999749
                },
                {
                    "name": "C2",
                    "midi": 36,
                    "time": 72.49506400000008,
                    "velocity": 0.2677165354330709,
                    "duration": 0.11543799999999749
                },
                {
                    "name": "C3",
                    "midi": 48,
                    "time": 72.49506400000008,
                    "velocity": 0.3228346456692913,
                    "duration": 0.11543799999999749
                },
                {
                    "name": "B1",
                    "midi": 35,
                    "time": 72.95681600000009,
                    "velocity": 0.2677165354330709,
                    "duration": 0.11543799999999749
                },
                {
                    "name": "B2",
                    "midi": 47,
                    "time": 72.95681600000009,
                    "velocity": 0.31496062992125984,
                    "duration": 0.11543799999999749
                },
                {
                    "name": "A1",
                    "midi": 33,
                    "time": 73.41856800000009,
                    "velocity": 0.2440944881889764,
                    "duration": 0.11543799999999749
                },
                {
                    "name": "A2",
                    "midi": 45,
                    "time": 73.41856800000009,
                    "velocity": 0.29133858267716534,
                    "duration": 0.11543799999999749
                },
                {
                    "name": "E3",
                    "midi": 52,
                    "time": 73.64944400000009,
                    "velocity": 0.3228346456692913,
                    "duration": 0.03847933333332776
                },
                {
                    "name": "E3",
                    "midi": 52,
                    "time": 73.72640266666674,
                    "velocity": 0.3228346456692913,
                    "duration": 0.03847933333332776
                },
                {
                    "name": "E3",
                    "midi": 52,
                    "time": 73.8033613333334,
                    "velocity": 0.3228346456692913,
                    "duration": 0.03847933333332776
                },
                {
                    "name": "E3",
                    "midi": 52,
                    "time": 73.88032000000005,
                    "velocity": 0.3228346456692913,
                    "duration": 0.6926279999999991
                },
                {
                    "name": "G#1",
                    "midi": 32,
                    "time": 73.88032000000005,
                    "velocity": 0.2204724409448819,
                    "duration": 1.3852559999999698
                },
                {
                    "name": "G#2",
                    "midi": 44,
                    "time": 73.88032000000005,
                    "velocity": 0.2677165354330709,
                    "duration": 1.3852559999999698
                },
                {
                    "name": "E3",
                    "midi": 52,
                    "time": 74.57294800000005,
                    "velocity": 0.3228346456692913,
                    "duration": 0.03847933333332776
                },
                {
                    "name": "E3",
                    "midi": 52,
                    "time": 74.64990666666671,
                    "velocity": 0.3228346456692913,
                    "duration": 0.03847933333332776
                },
                {
                    "name": "E3",
                    "midi": 52,
                    "time": 74.72686533333336,
                    "velocity": 0.3228346456692913,
                    "duration": 0.03847933333332776
                },
                {
                    "name": "E3",
                    "midi": 52,
                    "time": 74.80382400000002,
                    "velocity": 0.3228346456692913,
                    "duration": 0.6926279999999991
                },
                {
                    "name": "C2",
                    "midi": 36,
                    "time": 76.18908000000002,
                    "velocity": 0.2677165354330709,
                    "duration": 0.11543799999999749
                },
                {
                    "name": "C3",
                    "midi": 48,
                    "time": 76.18908000000002,
                    "velocity": 0.3228346456692913,
                    "duration": 0.11543799999999749
                },
                {
                    "name": "B1",
                    "midi": 35,
                    "time": 76.65083200000002,
                    "velocity": 0.2677165354330709,
                    "duration": 0.11543799999999749
                },
                {
                    "name": "B2",
                    "midi": 47,
                    "time": 76.65083200000002,
                    "velocity": 0.31496062992125984,
                    "duration": 0.11543799999999749
                },
                {
                    "name": "A1",
                    "midi": 33,
                    "time": 77.11258400000003,
                    "velocity": 0.2440944881889764,
                    "duration": 0.11543799999999749
                },
                {
                    "name": "A2",
                    "midi": 45,
                    "time": 77.11258400000003,
                    "velocity": 0.29133858267716534,
                    "duration": 0.11543799999999749
                },
                {
                    "name": "E3",
                    "midi": 52,
                    "time": 77.34346000000002,
                    "velocity": 0.3228346456692913,
                    "duration": 0.03847933333332776
                },
                {
                    "name": "E3",
                    "midi": 52,
                    "time": 77.42041866666668,
                    "velocity": 0.3228346456692913,
                    "duration": 0.03847933333332776
                },
                {
                    "name": "E3",
                    "midi": 52,
                    "time": 77.49737733333333,
                    "velocity": 0.3228346456692913,
                    "duration": 0.03847933333332776
                },
                {
                    "name": "E3",
                    "midi": 52,
                    "time": 77.57433599999999,
                    "velocity": 0.3228346456692913,
                    "duration": 0.6926279999999991
                },
                {
                    "name": "G#1",
                    "midi": 32,
                    "time": 77.57433599999999,
                    "velocity": 0.2204724409448819,
                    "duration": 1.3852559999999698
                },
                {
                    "name": "G#2",
                    "midi": 44,
                    "time": 77.57433599999999,
                    "velocity": 0.2677165354330709,
                    "duration": 1.3852559999999698
                },
                {
                    "name": "E3",
                    "midi": 52,
                    "time": 78.26696399999999,
                    "velocity": 0.3228346456692913,
                    "duration": 0.03847933333332776
                },
                {
                    "name": "E3",
                    "midi": 52,
                    "time": 78.34392266666664,
                    "velocity": 0.3228346456692913,
                    "duration": 0.03847933333332776
                },
                {
                    "name": "E3",
                    "midi": 52,
                    "time": 78.4208813333333,
                    "velocity": 0.3228346456692913,
                    "duration": 0.03847933333332776
                },
                {
                    "name": "E3",
                    "midi": 52,
                    "time": 78.49783999999995,
                    "velocity": 0.3228346456692913,
                    "duration": 0.6926279999999991
                },
                {
                    "name": "A1",
                    "midi": 33,
                    "time": 79.88309599999995,
                    "velocity": 0.23622047244094488,
                    "duration": 0.11543799999999749
                },
                {
                    "name": "A2",
                    "midi": 45,
                    "time": 79.88309599999995,
                    "velocity": 0.28346456692913385,
                    "duration": 0.11543799999999749
                },
                {
                    "name": "C2",
                    "midi": 36,
                    "time": 80.34484799999996,
                    "velocity": 0.2283464566929134,
                    "duration": 0.11543799999999749
                },
                {
                    "name": "C3",
                    "midi": 48,
                    "time": 80.34484799999996,
                    "velocity": 0.2677165354330709,
                    "duration": 0.11543799999999749
                },
                {
                    "name": "A1",
                    "midi": 33,
                    "time": 80.80659999999996,
                    "velocity": 0.2047244094488189,
                    "duration": 0.11543799999999749
                },
                {
                    "name": "A2",
                    "midi": 45,
                    "time": 80.80659999999996,
                    "velocity": 0.2440944881889764,
                    "duration": 0.11543799999999749
                },
                {
                    "name": "E1",
                    "midi": 28,
                    "time": 81.26835199999996,
                    "velocity": 0.2047244094488189,
                    "duration": 3.694015999999891
                },
                {
                    "name": "E2",
                    "midi": 40,
                    "time": 81.26835199999996,
                    "velocity": 0.2440944881889764,
                    "duration": 3.694015999999891
                },
                {
                    "name": "E3",
                    "midi": 52,
                    "time": 82.88448399999996,
                    "velocity": 0.3228346456692913,
                    "duration": 0.03847933333332776
                },
                {
                    "name": "E3",
                    "midi": 52,
                    "time": 82.96144266666661,
                    "velocity": 0.3228346456692913,
                    "duration": 0.03847933333332776
                },
                {
                    "name": "E3",
                    "midi": 52,
                    "time": 83.03840133333327,
                    "velocity": 0.3228346456692913,
                    "duration": 0.03847933333332776
                },
                {
                    "name": "E3",
                    "midi": 52,
                    "time": 83.11535999999992,
                    "velocity": 0.3228346456692913,
                    "duration": 0.6926279999999991
                },
                {
                    "name": "E3",
                    "midi": 52,
                    "time": 83.80798799999992,
                    "velocity": 0.3228346456692913,
                    "duration": 0.03847933333332776
                },
                {
                    "name": "E3",
                    "midi": 52,
                    "time": 83.88494666666658,
                    "velocity": 0.3228346456692913,
                    "duration": 0.03847933333332776
                },
                {
                    "name": "E3",
                    "midi": 52,
                    "time": 83.96190533333323,
                    "velocity": 0.3228346456692913,
                    "duration": 0.03847933333332776
                },
                {
                    "name": "E3",
                    "midi": 52,
                    "time": 84.03886399999989,
                    "velocity": 0.3228346456692913,
                    "duration": 0.6926279999999991
                },
                {
                    "name": "E3",
                    "midi": 52,
                    "time": 84.73149199999989,
                    "velocity": 0.3228346456692913,
                    "duration": 0.03847933333332776
                },
                {
                    "name": "E3",
                    "midi": 52,
                    "time": 84.80845066666654,
                    "velocity": 0.3228346456692913,
                    "duration": 0.03847933333332776
                },
                {
                    "name": "E3",
                    "midi": 52,
                    "time": 84.8854093333332,
                    "velocity": 0.3228346456692913,
                    "duration": 0.03847933333332776
                },
                {
                    "name": "G3",
                    "midi": 55,
                    "time": 84.96236799999986,
                    "velocity": 0.3228346456692913,
                    "duration": 0.9235039999999941
                },
                {
                    "name": "E3",
                    "midi": 52,
                    "time": 85.88587199999985,
                    "velocity": 0.29133858267716534,
                    "duration": 0.46175200000000416
                },
                {
                    "name": "G4",
                    "midi": 67,
                    "time": 86.57849999999985,
                    "velocity": 0.2440944881889764,
                    "duration": 0.03847933333332776
                },
                {
                    "name": "E4",
                    "midi": 64,
                    "time": 86.57849999999985,
                    "velocity": 0.2047244094488189,
                    "duration": 0.03847933333332776
                },
                {
                    "name": "B3",
                    "midi": 59,
                    "time": 86.57849999999985,
                    "velocity": 0.2047244094488189,
                    "duration": 0.03847933333332776
                },
                {
                    "name": "G4",
                    "midi": 67,
                    "time": 86.6554586666665,
                    "velocity": 0.2440944881889764,
                    "duration": 0.03847933333332776
                },
                {
                    "name": "E4",
                    "midi": 64,
                    "time": 86.6554586666665,
                    "velocity": 0.2047244094488189,
                    "duration": 0.03847933333332776
                },
                {
                    "name": "B3",
                    "midi": 59,
                    "time": 86.6554586666665,
                    "velocity": 0.2047244094488189,
                    "duration": 0.03847933333332776
                },
                {
                    "name": "G4",
                    "midi": 67,
                    "time": 86.73241733333316,
                    "velocity": 0.2440944881889764,
                    "duration": 0.03847933333332776
                },
                {
                    "name": "E4",
                    "midi": 64,
                    "time": 86.73241733333316,
                    "velocity": 0.2047244094488189,
                    "duration": 0.03847933333332776
                },
                {
                    "name": "B3",
                    "midi": 59,
                    "time": 86.73241733333316,
                    "velocity": 0.2047244094488189,
                    "duration": 0.03847933333332776
                },
                {
                    "name": "G4",
                    "midi": 67,
                    "time": 86.80937599999982,
                    "velocity": 0.2677165354330709,
                    "duration": 0.6926279999999991
                },
                {
                    "name": "E4",
                    "midi": 64,
                    "time": 86.80937599999982,
                    "velocity": 0.2204724409448819,
                    "duration": 0.6926279999999991
                },
                {
                    "name": "B3",
                    "midi": 59,
                    "time": 86.80937599999982,
                    "velocity": 0.2204724409448819,
                    "duration": 0.6926279999999991
                },
                {
                    "name": "G4",
                    "midi": 67,
                    "time": 87.50200399999981,
                    "velocity": 0.2440944881889764,
                    "duration": 0.03847933333332776
                },
                {
                    "name": "E4",
                    "midi": 64,
                    "time": 87.50200399999981,
                    "velocity": 0.2047244094488189,
                    "duration": 0.03847933333332776
                },
                {
                    "name": "B3",
                    "midi": 59,
                    "time": 87.50200399999981,
                    "velocity": 0.2047244094488189,
                    "duration": 0.03847933333332776
                },
                {
                    "name": "G3",
                    "midi": 55,
                    "time": 87.50200399999981,
                    "velocity": 0.2047244094488189,
                    "duration": 0.03847933333332776
                },
                {
                    "name": "G4",
                    "midi": 67,
                    "time": 87.57896266666647,
                    "velocity": 0.2440944881889764,
                    "duration": 0.03847933333332776
                },
                {
                    "name": "E4",
                    "midi": 64,
                    "time": 87.57896266666647,
                    "velocity": 0.2047244094488189,
                    "duration": 0.03847933333332776
                },
                {
                    "name": "B3",
                    "midi": 59,
                    "time": 87.57896266666647,
                    "velocity": 0.2047244094488189,
                    "duration": 0.03847933333332776
                },
                {
                    "name": "G3",
                    "midi": 55,
                    "time": 87.57896266666647,
                    "velocity": 0.2047244094488189,
                    "duration": 0.03847933333332776
                },
                {
                    "name": "G4",
                    "midi": 67,
                    "time": 87.65592133333313,
                    "velocity": 0.2440944881889764,
                    "duration": 0.03847933333332776
                },
                {
                    "name": "E4",
                    "midi": 64,
                    "time": 87.65592133333313,
                    "velocity": 0.2047244094488189,
                    "duration": 0.03847933333332776
                },
                {
                    "name": "B3",
                    "midi": 59,
                    "time": 87.65592133333313,
                    "velocity": 0.2047244094488189,
                    "duration": 0.03847933333332776
                },
                {
                    "name": "G3",
                    "midi": 55,
                    "time": 87.65592133333313,
                    "velocity": 0.2047244094488189,
                    "duration": 0.03847933333332776
                },
                {
                    "name": "G4",
                    "midi": 67,
                    "time": 87.73287999999978,
                    "velocity": 0.25984251968503935,
                    "duration": 0.6926279999999991
                },
                {
                    "name": "E4",
                    "midi": 64,
                    "time": 87.73287999999978,
                    "velocity": 0.2204724409448819,
                    "duration": 0.6926279999999991
                },
                {
                    "name": "B3",
                    "midi": 59,
                    "time": 87.73287999999978,
                    "velocity": 0.2204724409448819,
                    "duration": 0.6926279999999991
                },
                {
                    "name": "G3",
                    "midi": 55,
                    "time": 87.73287999999978,
                    "velocity": 0.2204724409448819,
                    "duration": 0.6926279999999991
                },
                {
                    "name": "E2",
                    "midi": 40,
                    "time": 88.42550799999978,
                    "velocity": 0.2047244094488189,
                    "duration": 0.03847933333332776
                },
                {
                    "name": "E3",
                    "midi": 52,
                    "time": 88.42550799999978,
                    "velocity": 0.2440944881889764,
                    "duration": 0.03847933333332776
                },
                {
                    "name": "E2",
                    "midi": 40,
                    "time": 88.50246666666644,
                    "velocity": 0.2047244094488189,
                    "duration": 0.03847933333332776
                },
                {
                    "name": "E3",
                    "midi": 52,
                    "time": 88.50246666666644,
                    "velocity": 0.2440944881889764,
                    "duration": 0.03847933333332776
                },
                {
                    "name": "E2",
                    "midi": 40,
                    "time": 88.57942533333309,
                    "velocity": 0.2047244094488189,
                    "duration": 0.03847933333332776
                },
                {
                    "name": "E3",
                    "midi": 52,
                    "time": 88.57942533333309,
                    "velocity": 0.2440944881889764,
                    "duration": 0.03847933333332776
                },
                {
                    "name": "E2",
                    "midi": 40,
                    "time": 88.65638399999975,
                    "velocity": 0.2204724409448819,
                    "duration": 0.9235039999999941
                },
                {
                    "name": "E3",
                    "midi": 52,
                    "time": 88.65638399999975,
                    "velocity": 0.25984251968503935,
                    "duration": 0.9235039999999941
                },
                {
                    "name": "E1",
                    "midi": 28,
                    "time": 89.57988799999974,
                    "velocity": 0.1889763779527559,
                    "duration": 0.9235039999999941
                }
            ],
            "controlChanges": {
                "7": [
                    {
                        "number": 7,
                        "time": 0,
                        "value": 1
                    }
                ],
                "10": [
                    {
                        "number": 10,
                        "time": 0,
                        "value": 0.5039370078740157
                    }
                ],
                "64": [
                    {
                        "number": 64,
                        "time": 0,
                        "value": 0
                    },
                    {
                        "number": 64,
                        "time": 3.9508655500000023,
                        "value": 1
                    },
                    {
                        "number": 64,
                        "time": 4.874369550000003,
                        "value": 0
                    },
                    {
                        "number": 64,
                        "time": 7.437093149999998,
                        "value": 1
                    },
                    {
                        "number": 64,
                        "time": 8.568385549999999,
                        "value": 0
                    },
                    {
                        "number": 64,
                        "time": 19.027068350000004,
                        "value": 1
                    },
                    {
                        "number": 64,
                        "time": 19.393584000000004,
                        "value": 0
                    },
                    {
                        "number": 64,
                        "time": 19.90920706666667,
                        "value": 1
                    },
                    {
                        "number": 64,
                        "time": 20.326707833333337,
                        "value": 0
                    },
                    {
                        "number": 64,
                        "time": 20.39981856666667,
                        "value": 1
                    },
                    {
                        "number": 64,
                        "time": 21.26848951666667,
                        "value": 0
                    },
                    {
                        "number": 64,
                        "time": 21.795656383333338,
                        "value": 1
                    },
                    {
                        "number": 64,
                        "time": 22.164096000000004,
                        "value": 0
                    },
                    {
                        "number": 64,
                        "time": 27.82632990000001,
                        "value": 1
                    },
                    {
                        "number": 64,
                        "time": 28.638243833333345,
                        "value": 0
                    },
                    {
                        "number": 64,
                        "time": 28.872005783333346,
                        "value": 1
                    },
                    {
                        "number": 64,
                        "time": 29.099995833333345,
                        "value": 0
                    },
                    {
                        "number": 64,
                        "time": 29.333757783333347,
                        "value": 1
                    },
                    {
                        "number": 64,
                        "time": 29.561747833333346,
                        "value": 0
                    },
                    {
                        "number": 64,
                        "time": 33.74637533333334,
                        "value": 1
                    },
                    {
                        "number": 64,
                        "time": 34.17926783333334,
                        "value": 0
                    },
                    {
                        "number": 64,
                        "time": 34.66987933333334,
                        "value": 1
                    },
                    {
                        "number": 64,
                        "time": 35.09796191666668,
                        "value": 0
                    },
                    {
                        "number": 64,
                        "time": 35.21436190000001,
                        "value": 1
                    },
                    {
                        "number": 64,
                        "time": 36.05513533333334,
                        "value": 0
                    },
                    {
                        "number": 64,
                        "time": 36.58326418333334,
                        "value": 1
                    },
                    {
                        "number": 64,
                        "time": 36.940160000000006,
                        "value": 0
                    },
                    {
                        "number": 64,
                        "time": 38.85162088333333,
                        "value": 1
                    },
                    {
                        "number": 64,
                        "time": 39.7164439,
                        "value": 0
                    },
                    {
                        "number": 64,
                        "time": 40.70921070000001,
                        "value": 1
                    },
                    {
                        "number": 64,
                        "time": 41.563451900000004,
                        "value": 0
                    },
                    {
                        "number": 64,
                        "time": 46.24831073333335,
                        "value": 1
                    },
                    {
                        "number": 64,
                        "time": 46.64079993333335,
                        "value": 0
                    },
                    {
                        "number": 64,
                        "time": 46.75816190000001,
                        "value": 1
                    },
                    {
                        "number": 64,
                        "time": 47.108323833333344,
                        "value": 0
                    },
                    {
                        "number": 64,
                        "time": 47.25069736666668,
                        "value": 1
                    },
                    {
                        "number": 64,
                        "time": 47.565265916666675,
                        "value": 0
                    },
                    {
                        "number": 64,
                        "time": 47.63356673333334,
                        "value": 1
                    },
                    {
                        "number": 64,
                        "time": 48.027979900000005,
                        "value": 0
                    },
                    {
                        "number": 64,
                        "time": 48.06645923333334,
                        "value": 1
                    },
                    {
                        "number": 64,
                        "time": 48.491655866666676,
                        "value": 0
                    },
                    {
                        "number": 64,
                        "time": 49.96637631666669,
                        "value": 1
                    },
                    {
                        "number": 64,
                        "time": 50.34058783333335,
                        "value": 0
                    },
                    {
                        "number": 64,
                        "time": 50.50123905000002,
                        "value": 1
                    },
                    {
                        "number": 64,
                        "time": 50.80233983333335,
                        "value": 0
                    },
                    {
                        "number": 64,
                        "time": 50.962991050000014,
                        "value": 1
                    },
                    {
                        "number": 64,
                        "time": 51.264091833333346,
                        "value": 0
                    },
                    {
                        "number": 64,
                        "time": 51.44879263333335,
                        "value": 1
                    },
                    {
                        "number": 64,
                        "time": 51.72199590000001,
                        "value": 0
                    },
                    {
                        "number": 64,
                        "time": 51.800878533333346,
                        "value": 1
                    },
                    {
                        "number": 64,
                        "time": 52.18759583333335,
                        "value": 0
                    },
                    {
                        "number": 64,
                        "time": 52.21549335000002,
                        "value": 1
                    },
                    {
                        "number": 64,
                        "time": 52.644537916666685,
                        "value": 0
                    },
                    {
                        "number": 64,
                        "time": 52.724382533333355,
                        "value": 1
                    },
                    {
                        "number": 64,
                        "time": 53.11013785000002,
                        "value": 0
                    },
                    {
                        "number": 64,
                        "time": 55.667089550000014,
                        "value": 1
                    },
                    {
                        "number": 64,
                        "time": 56.590593550000015,
                        "value": 0
                    },
                    {
                        "number": 64,
                        "time": 59.36110555000004,
                        "value": 1
                    },
                    {
                        "number": 64,
                        "time": 60.28460955000004,
                        "value": 0
                    },
                    {
                        "number": 64,
                        "time": 61.002249116666704,
                        "value": 1
                    },
                    {
                        "number": 64,
                        "time": 61.88342585000004,
                        "value": 0
                    },
                    {
                        "number": 64,
                        "time": 62.00271178333337,
                        "value": 1
                    },
                    {
                        "number": 64,
                        "time": 62.3413299166667,
                        "value": 0
                    },
                    {
                        "number": 64,
                        "time": 62.5116009666667,
                        "value": 1
                    },
                    {
                        "number": 64,
                        "time": 62.80404390000003,
                        "value": 0
                    },
                    {
                        "number": 64,
                        "time": 62.84252323333337,
                        "value": 1
                    },
                    {
                        "number": 64,
                        "time": 63.2734917666667,
                        "value": 0
                    },
                    {
                        "number": 64,
                        "time": 64.78861551666671,
                        "value": 1
                    },
                    {
                        "number": 64,
                        "time": 65.57551788333338,
                        "value": 0
                    },
                    {
                        "number": 64,
                        "time": 65.68326001666671,
                        "value": 1
                    },
                    {
                        "number": 64,
                        "time": 66.03726988333338,
                        "value": 0
                    },
                    {
                        "number": 64,
                        "time": 66.19022523333338,
                        "value": 1
                    },
                    {
                        "number": 64,
                        "time": 66.49228800000004,
                        "value": 0
                    },
                    {
                        "number": 64,
                        "time": 66.63466153333337,
                        "value": 1
                    },
                    {
                        "number": 64,
                        "time": 67.4177159666667,
                        "value": 0
                    },
                    {
                        "number": 64,
                        "time": 82.31787581666663,
                        "value": 1
                    },
                    {
                        "number": 64,
                        "time": 92.35039999999974,
                        "value": 0
                    }
                ]
            },
            "id": 2,
            "name": "Piano left",
            "instrumentNumber": 0,
            "instrument": "acoustic grand piano",
            "instrumentFamily": "piano",
            "channelNumber": 0,
            "isPercussion": false
        },
        {
            "startTime": 0,
            "duration": 0,
            "length": 0,
            "notes": [],
            "controlChanges": {},
            "id": 3,
            "name": "Mendelssohn: Songs without Words, Op. 62 No. 3"
        },
        {
            "startTime": 0,
            "duration": 0,
            "length": 0,
            "notes": [],
            "controlChanges": {},
            "id": 4,
            "name": "Copyright  2004 by Bernd Krger"
        },
        {
            "startTime": 0,
            "duration": 0,
            "length": 0,
            "notes": [],
            "controlChanges": {},
            "id": 5,
            "name": "http://www.piano-midi.de"
        },
        {
            "startTime": 0,
            "duration": 0,
            "length": 0,
            "notes": [],
            "controlChanges": {},
            "id": 6,
            "name": "Edition: 2014-04-03"
        },
        {
            "startTime": 0,
            "duration": 0,
            "length": 0,
            "notes": [],
            "controlChanges": {},
            "id": 7,
            "name": "Spur 7"
        }
    ]
}