{
    "header": {
        "PPQ": 480,
        "timeSignature": [
            9,
            8
        ],
        "bpm": 150,
        "name": "Morgenlied"
    },
    "startTime": 0,
    "duration": 69.40000000000009,
    "tracks": [
        {
            "startTime": 0,
            "duration": 0,
            "length": 0,
            "notes": [],
            "controlChanges": {},
            "id": 0,
            "name": "Morgenlied"
        },
        {
            "startTime": 1,
            "duration": 69.40000000000009,
            "length": 439,
            "notes": [
                {
                    "name": "B3",
                    "midi": 59,
                    "time": 1,
                    "velocity": 0.36220472440944884,
                    "duration": 0.19999999999999996
                },
                {
                    "name": "D4",
                    "midi": 62,
                    "time": 1,
                    "velocity": 0.4330708661417323,
                    "duration": 0.19999999999999996
                },
                {
                    "name": "B3",
                    "midi": 59,
                    "time": 1.2,
                    "velocity": 0.3858267716535433,
                    "duration": 0.19999999999999996
                },
                {
                    "name": "D4",
                    "midi": 62,
                    "time": 1.2,
                    "velocity": 0.4645669291338583,
                    "duration": 0.19999999999999996
                },
                {
                    "name": "G3",
                    "midi": 55,
                    "time": 1.4,
                    "velocity": 0.4330708661417323,
                    "duration": 0.19999999999999996
                },
                {
                    "name": "D4",
                    "midi": 62,
                    "time": 1.5999999999999999,
                    "velocity": 0.3937007874015748,
                    "duration": 0.18999999999999995
                },
                {
                    "name": "G4",
                    "midi": 67,
                    "time": 1.5999999999999999,
                    "velocity": 0.3937007874015748,
                    "duration": 0.18999999999999995
                },
                {
                    "name": "B4",
                    "midi": 71,
                    "time": 1.5999999999999999,
                    "velocity": 0.4645669291338583,
                    "duration": 0.18999999999999995
                },
                {
                    "name": "D4",
                    "midi": 62,
                    "time": 1.7999999999999998,
                    "velocity": 0.4094488188976378,
                    "duration": 0.6000000000000001
                },
                {
                    "name": "G4",
                    "midi": 67,
                    "time": 1.7999999999999998,
                    "velocity": 0.4094488188976378,
                    "duration": 0.6000000000000001
                },
                {
                    "name": "B4",
                    "midi": 71,
                    "time": 1.7999999999999998,
                    "velocity": 0.49606299212598426,
                    "duration": 0.6000000000000001
                },
                {
                    "name": "B3",
                    "midi": 59,
                    "time": 2.4,
                    "velocity": 0.3228346456692913,
                    "duration": 0.3999999999999999
                },
                {
                    "name": "G4",
                    "midi": 67,
                    "time": 2.4,
                    "velocity": 0.3858267716535433,
                    "duration": 0.3999999999999999
                },
                {
                    "name": "D4",
                    "midi": 62,
                    "time": 2.8,
                    "velocity": 0.3779527559055118,
                    "duration": 0.20000000000000018
                },
                {
                    "name": "B4",
                    "midi": 71,
                    "time": 2.8,
                    "velocity": 0.44881889763779526,
                    "duration": 0.20000000000000018
                },
                {
                    "name": "D4",
                    "midi": 62,
                    "time": 3,
                    "velocity": 0.3858267716535433,
                    "duration": 0.20000000000000018
                },
                {
                    "name": "B4",
                    "midi": 71,
                    "time": 3,
                    "velocity": 0.4645669291338583,
                    "duration": 0.20000000000000018
                },
                {
                    "name": "B3",
                    "midi": 59,
                    "time": 3.2,
                    "velocity": 0.36220472440944884,
                    "duration": 0.20000000000000018
                },
                {
                    "name": "G4",
                    "midi": 67,
                    "time": 3.2,
                    "velocity": 0.4330708661417323,
                    "duration": 0.20000000000000018
                },
                {
                    "name": "B4",
                    "midi": 71,
                    "time": 3.4000000000000004,
                    "velocity": 0.4094488188976378,
                    "duration": 0.18999999999999995
                },
                {
                    "name": "D5",
                    "midi": 74,
                    "time": 3.4000000000000004,
                    "velocity": 0.4094488188976378,
                    "duration": 0.18999999999999995
                },
                {
                    "name": "G5",
                    "midi": 79,
                    "time": 3.4000000000000004,
                    "velocity": 0.49606299212598426,
                    "duration": 0.18999999999999995
                },
                {
                    "name": "B4",
                    "midi": 71,
                    "time": 3.6,
                    "velocity": 0.4251968503937008,
                    "duration": 0.6000000000000001
                },
                {
                    "name": "D5",
                    "midi": 74,
                    "time": 3.6,
                    "velocity": 0.4251968503937008,
                    "duration": 0.6000000000000001
                },
                {
                    "name": "G5",
                    "midi": 79,
                    "time": 3.6,
                    "velocity": 0.5118110236220472,
                    "duration": 0.6000000000000001
                },
                {
                    "name": "G4",
                    "midi": 67,
                    "time": 4.2,
                    "velocity": 0.3228346456692913,
                    "duration": 0.40000000000000036
                },
                {
                    "name": "B4",
                    "midi": 71,
                    "time": 4.2,
                    "velocity": 0.3228346456692913,
                    "duration": 0.40000000000000036
                },
                {
                    "name": "D5",
                    "midi": 74,
                    "time": 4.2,
                    "velocity": 0.3858267716535433,
                    "duration": 0.40000000000000036
                },
                {
                    "name": "G5",
                    "midi": 79,
                    "time": 4.6000000000000005,
                    "velocity": 0.5118110236220472,
                    "duration": 0.20000000000000018
                },
                {
                    "name": "D6",
                    "midi": 86,
                    "time": 4.6000000000000005,
                    "velocity": 0.6062992125984252,
                    "duration": 0.20000000000000018
                },
                {
                    "name": "G5",
                    "midi": 79,
                    "time": 4.800000000000001,
                    "velocity": 0.5511811023622047,
                    "duration": 0.20000000000000018
                },
                {
                    "name": "D6",
                    "midi": 86,
                    "time": 4.800000000000001,
                    "velocity": 0.6456692913385826,
                    "duration": 0.20000000000000018
                },
                {
                    "name": "D5",
                    "midi": 74,
                    "time": 5.000000000000001,
                    "velocity": 0.48031496062992124,
                    "duration": 0.20000000000000018
                },
                {
                    "name": "B5",
                    "midi": 83,
                    "time": 5.000000000000001,
                    "velocity": 0.5748031496062992,
                    "duration": 0.20000000000000018
                },
                {
                    "name": "B4",
                    "midi": 71,
                    "time": 5.200000000000001,
                    "velocity": 0.48031496062992124,
                    "duration": 0.1900000000000004
                },
                {
                    "name": "G5",
                    "midi": 79,
                    "time": 5.200000000000001,
                    "velocity": 0.5748031496062992,
                    "duration": 0.1900000000000004
                },
                {
                    "name": "B4",
                    "midi": 71,
                    "time": 5.400000000000001,
                    "velocity": 0.49606299212598426,
                    "duration": 0.20000000000000018
                },
                {
                    "name": "G5",
                    "midi": 79,
                    "time": 5.400000000000001,
                    "velocity": 0.5984251968503937,
                    "duration": 0.20000000000000018
                },
                {
                    "name": "G4",
                    "midi": 67,
                    "time": 5.600000000000001,
                    "velocity": 0.4330708661417323,
                    "duration": 0.20000000000000018
                },
                {
                    "name": "D5",
                    "midi": 74,
                    "time": 5.600000000000001,
                    "velocity": 0.5196850393700787,
                    "duration": 0.20000000000000018
                },
                {
                    "name": "D4",
                    "midi": 62,
                    "time": 5.800000000000002,
                    "velocity": 0.4330708661417323,
                    "duration": 0.20000000000000018
                },
                {
                    "name": "B4",
                    "midi": 71,
                    "time": 5.800000000000002,
                    "velocity": 0.5196850393700787,
                    "duration": 0.20000000000000018
                },
                {
                    "name": "G4",
                    "midi": 67,
                    "time": 6.000000000000002,
                    "velocity": 0.48031496062992124,
                    "duration": 0.5999999999999996
                },
                {
                    "name": "D5",
                    "midi": 74,
                    "time": 6.000000000000002,
                    "velocity": 0.5748031496062992,
                    "duration": 0.5999999999999996
                },
                {
                    "name": "C4",
                    "midi": 60,
                    "time": 6.600000000000001,
                    "velocity": 0.2992125984251969,
                    "duration": 0.40000000000000036
                },
                {
                    "name": "D4",
                    "midi": 62,
                    "time": 6.600000000000001,
                    "velocity": 0.2992125984251969,
                    "duration": 0.40000000000000036
                },
                {
                    "name": "F#4",
                    "midi": 66,
                    "time": 6.600000000000001,
                    "velocity": 0.2992125984251969,
                    "duration": 0.40000000000000036
                },
                {
                    "name": "A4",
                    "midi": 69,
                    "time": 6.600000000000001,
                    "velocity": 0.3543307086614173,
                    "duration": 0.40000000000000036
                },
                {
                    "name": "B4",
                    "midi": 71,
                    "time": 7.000000000000002,
                    "velocity": 0.3464566929133858,
                    "duration": 0.20000000000000018
                },
                {
                    "name": "B3",
                    "midi": 59,
                    "time": 7.200000000000002,
                    "velocity": 0.25984251968503935,
                    "duration": 1.0000000000000009
                },
                {
                    "name": "D4",
                    "midi": 62,
                    "time": 7.200000000000002,
                    "velocity": 0.28346456692913385,
                    "duration": 1.0000000000000009
                },
                {
                    "name": "G4",
                    "midi": 67,
                    "time": 7.200000000000002,
                    "velocity": 0.33858267716535434,
                    "duration": 1.0000000000000009
                },
                {
                    "name": "D4",
                    "midi": 62,
                    "time": 8.200000000000003,
                    "velocity": 0.4251968503937008,
                    "duration": 0.1999999999999993
                },
                {
                    "name": "D4",
                    "midi": 62,
                    "time": 8.400000000000002,
                    "velocity": 0.3779527559055118,
                    "duration": 0.40000000000000036
                },
                {
                    "name": "G4",
                    "midi": 67,
                    "time": 8.400000000000002,
                    "velocity": 0.44881889763779526,
                    "duration": 0.40000000000000036
                },
                {
                    "name": "D4",
                    "midi": 62,
                    "time": 8.800000000000002,
                    "velocity": 0.3779527559055118,
                    "duration": 0.1999999999999993
                },
                {
                    "name": "F#4",
                    "midi": 66,
                    "time": 8.800000000000002,
                    "velocity": 0.44881889763779526,
                    "duration": 0.1999999999999993
                },
                {
                    "name": "D4",
                    "midi": 62,
                    "time": 9.000000000000002,
                    "velocity": 0.3779527559055118,
                    "duration": 1
                },
                {
                    "name": "A4",
                    "midi": 69,
                    "time": 9.000000000000002,
                    "velocity": 0.44881889763779526,
                    "duration": 1
                },
                {
                    "name": "G4",
                    "midi": 67,
                    "time": 10.000000000000002,
                    "velocity": 0.44881889763779526,
                    "duration": 0.1999999999999993
                },
                {
                    "name": "G4",
                    "midi": 67,
                    "time": 10.200000000000001,
                    "velocity": 0.4094488188976378,
                    "duration": 0.40000000000000036
                },
                {
                    "name": "C5",
                    "midi": 72,
                    "time": 10.200000000000001,
                    "velocity": 0.48031496062992124,
                    "duration": 0.40000000000000036
                },
                {
                    "name": "G4",
                    "midi": 67,
                    "time": 10.600000000000001,
                    "velocity": 0.3779527559055118,
                    "duration": 0.1999999999999993
                },
                {
                    "name": "B4",
                    "midi": 71,
                    "time": 10.600000000000001,
                    "velocity": 0.44881889763779526,
                    "duration": 0.1999999999999993
                },
                {
                    "name": "E4",
                    "midi": 64,
                    "time": 10.8,
                    "velocity": 0.4015748031496063,
                    "duration": 1
                },
                {
                    "name": "G4",
                    "midi": 67,
                    "time": 10.8,
                    "velocity": 0.4015748031496063,
                    "duration": 1
                },
                {
                    "name": "E5",
                    "midi": 76,
                    "time": 10.8,
                    "velocity": 0.47244094488188976,
                    "duration": 1
                },
                {
                    "name": "G4",
                    "midi": 67,
                    "time": 11.8,
                    "velocity": 0.4251968503937008,
                    "duration": 0.1899999999999995
                },
                {
                    "name": "D5",
                    "midi": 74,
                    "time": 11.8,
                    "velocity": 0.5118110236220472,
                    "duration": 0.1899999999999995
                },
                {
                    "name": "G4",
                    "midi": 67,
                    "time": 12,
                    "velocity": 0.4566929133858268,
                    "duration": 0.40000000000000036
                },
                {
                    "name": "D5",
                    "midi": 74,
                    "time": 12,
                    "velocity": 0.5433070866141733,
                    "duration": 0.40000000000000036
                },
                {
                    "name": "F#4",
                    "midi": 66,
                    "time": 12.4,
                    "velocity": 0.4251968503937008,
                    "duration": 0.1999999999999993
                },
                {
                    "name": "D5",
                    "midi": 74,
                    "time": 12.4,
                    "velocity": 0.5118110236220472,
                    "duration": 0.1999999999999993
                },
                {
                    "name": "G4",
                    "midi": 67,
                    "time": 12.6,
                    "velocity": 0.4645669291338583,
                    "duration": 1
                },
                {
                    "name": "G5",
                    "midi": 79,
                    "time": 12.6,
                    "velocity": 0.5433070866141733,
                    "duration": 0.40000000000000036
                },
                {
                    "name": "D5",
                    "midi": 74,
                    "time": 13,
                    "velocity": 0.5039370078740157,
                    "duration": 0.1999999999999993
                },
                {
                    "name": "B4",
                    "midi": 71,
                    "time": 13.2,
                    "velocity": 0.5039370078740157,
                    "duration": 0.40000000000000036
                },
                {
                    "name": "D4",
                    "midi": 62,
                    "time": 13.6,
                    "velocity": 0.3543307086614173,
                    "duration": 0.15000000000000036
                },
                {
                    "name": "G4",
                    "midi": 67,
                    "time": 13.6,
                    "velocity": 0.41732283464566927,
                    "duration": 0.15000000000000036
                },
                {
                    "name": "A4",
                    "midi": 69,
                    "time": 13.75,
                    "velocity": 0.4015748031496063,
                    "duration": 0.05000000000000071
                },
                {
                    "name": "C#4",
                    "midi": 61,
                    "time": 13.8,
                    "velocity": 0.3700787401574803,
                    "duration": 0.3999999999999986
                },
                {
                    "name": "G4",
                    "midi": 67,
                    "time": 13.8,
                    "velocity": 0.4330708661417323,
                    "duration": 0.1999999999999993
                },
                {
                    "name": "F#4",
                    "midi": 66,
                    "time": 14,
                    "velocity": 0.4094488188976378,
                    "duration": 0.1999999999999993
                },
                {
                    "name": "C#4",
                    "midi": 61,
                    "time": 14.2,
                    "velocity": 0.29133858267716534,
                    "duration": 0.1999999999999993
                },
                {
                    "name": "G4",
                    "midi": 67,
                    "time": 14.2,
                    "velocity": 0.3543307086614173,
                    "duration": 0.1999999999999993
                },
                {
                    "name": "D4",
                    "midi": 62,
                    "time": 14.399999999999999,
                    "velocity": 0.33070866141732286,
                    "duration": 1
                },
                {
                    "name": "B4",
                    "midi": 71,
                    "time": 14.399999999999999,
                    "velocity": 0.3858267716535433,
                    "duration": 0.5999999999999996
                },
                {
                    "name": "A4",
                    "midi": 69,
                    "time": 14.999999999999998,
                    "velocity": 0.36220472440944884,
                    "duration": 0.40000000000000036
                },
                {
                    "name": "C4",
                    "midi": 60,
                    "time": 15.399999999999999,
                    "velocity": 0.30708661417322836,
                    "duration": 0.1999999999999993
                },
                {
                    "name": "D4",
                    "midi": 62,
                    "time": 15.399999999999999,
                    "velocity": 0.4251968503937008,
                    "duration": 0.1999999999999993
                },
                {
                    "name": "B3",
                    "midi": 59,
                    "time": 15.599999999999998,
                    "velocity": 0.3779527559055118,
                    "duration": 0.40000000000000036
                },
                {
                    "name": "D4",
                    "midi": 62,
                    "time": 15.599999999999998,
                    "velocity": 0.3779527559055118,
                    "duration": 0.40000000000000036
                },
                {
                    "name": "G4",
                    "midi": 67,
                    "time": 15.599999999999998,
                    "velocity": 0.44881889763779526,
                    "duration": 0.40000000000000036
                },
                {
                    "name": "A3",
                    "midi": 57,
                    "time": 15.999999999999998,
                    "velocity": 0.3779527559055118,
                    "duration": 0.20000000000000107
                },
                {
                    "name": "D4",
                    "midi": 62,
                    "time": 15.999999999999998,
                    "velocity": 0.3779527559055118,
                    "duration": 0.20000000000000107
                },
                {
                    "name": "F#4",
                    "midi": 66,
                    "time": 15.999999999999998,
                    "velocity": 0.44881889763779526,
                    "duration": 0.20000000000000107
                },
                {
                    "name": "C4",
                    "midi": 60,
                    "time": 16.2,
                    "velocity": 0.3779527559055118,
                    "duration": 1
                },
                {
                    "name": "D4",
                    "midi": 62,
                    "time": 16.2,
                    "velocity": 0.3779527559055118,
                    "duration": 1
                },
                {
                    "name": "A4",
                    "midi": 69,
                    "time": 16.2,
                    "velocity": 0.44881889763779526,
                    "duration": 1
                },
                {
                    "name": "B3",
                    "midi": 59,
                    "time": 17.2,
                    "velocity": 0.41732283464566927,
                    "duration": 0.1999999999999993
                },
                {
                    "name": "D4",
                    "midi": 62,
                    "time": 17.2,
                    "velocity": 0.41732283464566927,
                    "duration": 0.1999999999999993
                },
                {
                    "name": "G4",
                    "midi": 67,
                    "time": 17.2,
                    "velocity": 0.5118110236220472,
                    "duration": 0.1999999999999993
                },
                {
                    "name": "C4",
                    "midi": 60,
                    "time": 17.4,
                    "velocity": 0.4645669291338583,
                    "duration": 0.3999999999999986
                },
                {
                    "name": "G4",
                    "midi": 67,
                    "time": 17.4,
                    "velocity": 0.4645669291338583,
                    "duration": 0.3999999999999986
                },
                {
                    "name": "C5",
                    "midi": 72,
                    "time": 17.4,
                    "velocity": 0.5511811023622047,
                    "duration": 0.3999999999999986
                },
                {
                    "name": "B3",
                    "midi": 59,
                    "time": 17.799999999999997,
                    "velocity": 0.4251968503937008,
                    "duration": 0.1999999999999993
                },
                {
                    "name": "G4",
                    "midi": 67,
                    "time": 17.799999999999997,
                    "velocity": 0.4251968503937008,
                    "duration": 0.1999999999999993
                },
                {
                    "name": "B4",
                    "midi": 71,
                    "time": 17.799999999999997,
                    "velocity": 0.5118110236220472,
                    "duration": 0.1999999999999993
                },
                {
                    "name": "E4",
                    "midi": 64,
                    "time": 17.999999999999996,
                    "velocity": 0.4566929133858268,
                    "duration": 1
                },
                {
                    "name": "G4",
                    "midi": 67,
                    "time": 17.999999999999996,
                    "velocity": 0.4566929133858268,
                    "duration": 1
                },
                {
                    "name": "E5",
                    "midi": 76,
                    "time": 17.999999999999996,
                    "velocity": 0.5433070866141733,
                    "duration": 1
                },
                {
                    "name": "D4",
                    "midi": 62,
                    "time": 18.999999999999996,
                    "velocity": 0.48031496062992124,
                    "duration": 0.1999999999999993
                },
                {
                    "name": "G4",
                    "midi": 67,
                    "time": 18.999999999999996,
                    "velocity": 0.48031496062992124,
                    "duration": 0.1999999999999993
                },
                {
                    "name": "D5",
                    "midi": 74,
                    "time": 18.999999999999996,
                    "velocity": 0.5826771653543307,
                    "duration": 0.1999999999999993
                },
                {
                    "name": "D5",
                    "midi": 74,
                    "time": 19.199999999999996,
                    "velocity": 0.5196850393700787,
                    "duration": 0.3999999999999986
                },
                {
                    "name": "G4",
                    "midi": 67,
                    "time": 19.199999999999996,
                    "velocity": 0.5196850393700787,
                    "duration": 0.3999999999999986
                },
                {
                    "name": "G5",
                    "midi": 79,
                    "time": 19.199999999999996,
                    "velocity": 0.6141732283464567,
                    "duration": 0.3999999999999986
                },
                {
                    "name": "C5",
                    "midi": 72,
                    "time": 19.599999999999994,
                    "velocity": 0.48031496062992124,
                    "duration": 0.1999999999999993
                },
                {
                    "name": "G4",
                    "midi": 67,
                    "time": 19.599999999999994,
                    "velocity": 0.48031496062992124,
                    "duration": 0.1999999999999993
                },
                {
                    "name": "G5",
                    "midi": 79,
                    "time": 19.599999999999994,
                    "velocity": 0.5826771653543307,
                    "duration": 0.1999999999999993
                },
                {
                    "name": "B4",
                    "midi": 71,
                    "time": 19.799999999999994,
                    "velocity": 0.5275590551181102,
                    "duration": 0.3999999999999986
                },
                {
                    "name": "G5",
                    "midi": 79,
                    "time": 19.799999999999994,
                    "velocity": 0.6141732283464567,
                    "duration": 0.3999999999999986
                },
                {
                    "name": "G4",
                    "midi": 67,
                    "time": 20.199999999999992,
                    "velocity": 0.44881889763779526,
                    "duration": 0.1999999999999993
                },
                {
                    "name": "B4",
                    "midi": 71,
                    "time": 20.199999999999992,
                    "velocity": 0.44881889763779526,
                    "duration": 0.1999999999999993
                },
                {
                    "name": "D5",
                    "midi": 74,
                    "time": 20.199999999999992,
                    "velocity": 0.5433070866141733,
                    "duration": 0.1999999999999993
                },
                {
                    "name": "D4",
                    "midi": 62,
                    "time": 20.39999999999999,
                    "velocity": 0.44881889763779526,
                    "duration": 0.3999999999999986
                },
                {
                    "name": "G4",
                    "midi": 67,
                    "time": 20.39999999999999,
                    "velocity": 0.44881889763779526,
                    "duration": 0.3999999999999986
                },
                {
                    "name": "B4",
                    "midi": 71,
                    "time": 20.39999999999999,
                    "velocity": 0.5433070866141733,
                    "duration": 0.3999999999999986
                },
                {
                    "name": "D4",
                    "midi": 62,
                    "time": 20.79999999999999,
                    "velocity": 0.31496062992125984,
                    "duration": 0.1999999999999993
                },
                {
                    "name": "G4",
                    "midi": 67,
                    "time": 20.79999999999999,
                    "velocity": 0.31496062992125984,
                    "duration": 0.1999999999999993
                },
                {
                    "name": "B4",
                    "midi": 71,
                    "time": 20.79999999999999,
                    "velocity": 0.3700787401574803,
                    "duration": 0.1999999999999993
                },
                {
                    "name": "F#4",
                    "midi": 66,
                    "time": 20.99999999999999,
                    "velocity": 0.33070866141732286,
                    "duration": 0.5999999999999979
                },
                {
                    "name": "D4",
                    "midi": 62,
                    "time": 20.99999999999999,
                    "velocity": 0.33070866141732286,
                    "duration": 0.5999999999999979
                },
                {
                    "name": "C4",
                    "midi": 60,
                    "time": 20.99999999999999,
                    "velocity": 0.33070866141732286,
                    "duration": 0.5999999999999979
                },
                {
                    "name": "C5",
                    "midi": 72,
                    "time": 20.99999999999999,
                    "velocity": 0.3858267716535433,
                    "duration": 0.3999999999999986
                },
                {
                    "name": "A4",
                    "midi": 69,
                    "time": 21.399999999999988,
                    "velocity": 0.3543307086614173,
                    "duration": 0.1999999999999993
                },
                {
                    "name": "B3",
                    "midi": 59,
                    "time": 21.599999999999987,
                    "velocity": 0.2992125984251969,
                    "duration": 0.6000000000000014
                },
                {
                    "name": "D4",
                    "midi": 62,
                    "time": 21.599999999999987,
                    "velocity": 0.33070866141732286,
                    "duration": 0.6000000000000014
                },
                {
                    "name": "G4",
                    "midi": 67,
                    "time": 21.599999999999987,
                    "velocity": 0.3858267716535433,
                    "duration": 0.6000000000000014
                },
                {
                    "name": "B3",
                    "midi": 59,
                    "time": 22.599999999999987,
                    "velocity": 0.2677165354330709,
                    "duration": 0.1999999999999993
                },
                {
                    "name": "D4",
                    "midi": 62,
                    "time": 22.599999999999987,
                    "velocity": 0.2677165354330709,
                    "duration": 0.1999999999999993
                },
                {
                    "name": "G4",
                    "midi": 67,
                    "time": 22.599999999999987,
                    "velocity": 0.3228346456692913,
                    "duration": 0.1999999999999993
                },
                {
                    "name": "A3",
                    "midi": 57,
                    "time": 22.799999999999986,
                    "velocity": 0.30708661417322836,
                    "duration": 0.3999999999999986
                },
                {
                    "name": "D4",
                    "midi": 62,
                    "time": 22.799999999999986,
                    "velocity": 0.30708661417322836,
                    "duration": 0.3999999999999986
                },
                {
                    "name": "F#4",
                    "midi": 66,
                    "time": 22.799999999999986,
                    "velocity": 0.36220472440944884,
                    "duration": 0.3999999999999986
                },
                {
                    "name": "B3",
                    "midi": 59,
                    "time": 23.199999999999985,
                    "velocity": 0.2677165354330709,
                    "duration": 0.1999999999999993
                },
                {
                    "name": "D4",
                    "midi": 62,
                    "time": 23.199999999999985,
                    "velocity": 0.2677165354330709,
                    "duration": 0.1999999999999993
                },
                {
                    "name": "G4",
                    "midi": 67,
                    "time": 23.199999999999985,
                    "velocity": 0.3228346456692913,
                    "duration": 0.1999999999999993
                },
                {
                    "name": "D4",
                    "midi": 62,
                    "time": 23.399999999999984,
                    "velocity": 0.30708661417322836,
                    "duration": 1.5999999999999979
                },
                {
                    "name": "B4",
                    "midi": 71,
                    "time": 23.399999999999984,
                    "velocity": 0.36220472440944884,
                    "duration": 0.3999999999999986
                },
                {
                    "name": "C4",
                    "midi": 60,
                    "time": 23.799999999999983,
                    "velocity": 0.2677165354330709,
                    "duration": 0.1999999999999993
                },
                {
                    "name": "A4",
                    "midi": 69,
                    "time": 23.799999999999983,
                    "velocity": 0.3228346456692913,
                    "duration": 0.1999999999999993
                },
                {
                    "name": "A3",
                    "midi": 57,
                    "time": 23.999999999999982,
                    "velocity": 0.2677165354330709,
                    "duration": 1
                },
                {
                    "name": "F#4",
                    "midi": 66,
                    "time": 23.999999999999982,
                    "velocity": 0.3228346456692913,
                    "duration": 1
                },
                {
                    "name": "B3",
                    "midi": 59,
                    "time": 24.999999999999982,
                    "velocity": 0.28346456692913385,
                    "duration": 0.1999999999999993
                },
                {
                    "name": "D4",
                    "midi": 62,
                    "time": 24.999999999999982,
                    "velocity": 0.28346456692913385,
                    "duration": 0.1999999999999993
                },
                {
                    "name": "G4",
                    "midi": 67,
                    "time": 24.999999999999982,
                    "velocity": 0.33858267716535434,
                    "duration": 0.1999999999999993
                },
                {
                    "name": "D4",
                    "midi": 62,
                    "time": 25.19999999999998,
                    "velocity": 0.2992125984251969,
                    "duration": 1.5999999999999979
                },
                {
                    "name": "B4",
                    "midi": 71,
                    "time": 25.19999999999998,
                    "velocity": 0.3543307086614173,
                    "duration": 0.3999999999999986
                },
                {
                    "name": "C4",
                    "midi": 60,
                    "time": 25.59999999999998,
                    "velocity": 0.2677165354330709,
                    "duration": 0.1999999999999993
                },
                {
                    "name": "A4",
                    "midi": 69,
                    "time": 25.59999999999998,
                    "velocity": 0.3228346456692913,
                    "duration": 0.1999999999999993
                },
                {
                    "name": "A3",
                    "midi": 57,
                    "time": 25.79999999999998,
                    "velocity": 0.2677165354330709,
                    "duration": 1
                },
                {
                    "name": "F#4",
                    "midi": 66,
                    "time": 25.79999999999998,
                    "velocity": 0.3228346456692913,
                    "duration": 1
                },
                {
                    "name": "B3",
                    "midi": 59,
                    "time": 26.79999999999998,
                    "velocity": 0.3779527559055118,
                    "duration": 0.1999999999999993
                },
                {
                    "name": "D4",
                    "midi": 62,
                    "time": 26.79999999999998,
                    "velocity": 0.3779527559055118,
                    "duration": 0.1999999999999993
                },
                {
                    "name": "G4",
                    "midi": 67,
                    "time": 26.79999999999998,
                    "velocity": 0.44881889763779526,
                    "duration": 0.1999999999999993
                },
                {
                    "name": "F4",
                    "midi": 65,
                    "time": 26.99999999999998,
                    "velocity": 0.4409448818897638,
                    "duration": 0.3999999999999986
                },
                {
                    "name": "D5",
                    "midi": 74,
                    "time": 26.99999999999998,
                    "velocity": 0.5196850393700787,
                    "duration": 0.3999999999999986
                },
                {
                    "name": "F4",
                    "midi": 65,
                    "time": 27.399999999999977,
                    "velocity": 0.44881889763779526,
                    "duration": 0.1999999999999993
                },
                {
                    "name": "D5",
                    "midi": 74,
                    "time": 27.399999999999977,
                    "velocity": 0.5275590551181102,
                    "duration": 0.1999999999999993
                },
                {
                    "name": "E4",
                    "midi": 64,
                    "time": 27.599999999999977,
                    "velocity": 0.44881889763779526,
                    "duration": 0.3999999999999986
                },
                {
                    "name": "F4",
                    "midi": 65,
                    "time": 27.599999999999977,
                    "velocity": 0.4881889763779528,
                    "duration": 0.3999999999999986
                },
                {
                    "name": "C5",
                    "midi": 72,
                    "time": 27.599999999999977,
                    "velocity": 0.5433070866141733,
                    "duration": 0.3999999999999986
                },
                {
                    "name": "D4",
                    "midi": 62,
                    "time": 27.999999999999975,
                    "velocity": 0.4251968503937008,
                    "duration": 0.1999999999999993
                },
                {
                    "name": "F4",
                    "midi": 65,
                    "time": 27.999999999999975,
                    "velocity": 0.4251968503937008,
                    "duration": 0.1999999999999993
                },
                {
                    "name": "B4",
                    "midi": 71,
                    "time": 27.999999999999975,
                    "velocity": 0.5039370078740157,
                    "duration": 0.1999999999999993
                },
                {
                    "name": "C4",
                    "midi": 60,
                    "time": 28.199999999999974,
                    "velocity": 0.3700787401574803,
                    "duration": 0.3999999999999986
                },
                {
                    "name": "E4",
                    "midi": 64,
                    "time": 28.199999999999974,
                    "velocity": 0.3700787401574803,
                    "duration": 0.3999999999999986
                },
                {
                    "name": "A4",
                    "midi": 69,
                    "time": 28.199999999999974,
                    "velocity": 0.4409448818897638,
                    "duration": 0.3999999999999986
                },
                {
                    "name": "B3",
                    "midi": 59,
                    "time": 28.599999999999973,
                    "velocity": 0.2992125984251969,
                    "duration": 0.19000000000000128
                },
                {
                    "name": "D4",
                    "midi": 62,
                    "time": 28.599999999999973,
                    "velocity": 0.2992125984251969,
                    "duration": 0.19000000000000128
                },
                {
                    "name": "E4",
                    "midi": 64,
                    "time": 28.599999999999973,
                    "velocity": 0.2992125984251969,
                    "duration": 0.19000000000000128
                },
                {
                    "name": "G#4",
                    "midi": 68,
                    "time": 28.599999999999973,
                    "velocity": 0.3543307086614173,
                    "duration": 0.19000000000000128
                },
                {
                    "name": "B3",
                    "midi": 59,
                    "time": 28.799999999999976,
                    "velocity": 0.30708661417322836,
                    "duration": 0.6000000000000014
                },
                {
                    "name": "D4",
                    "midi": 62,
                    "time": 28.799999999999976,
                    "velocity": 0.30708661417322836,
                    "duration": 0.6000000000000014
                },
                {
                    "name": "E4",
                    "midi": 64,
                    "time": 28.799999999999976,
                    "velocity": 0.30708661417322836,
                    "duration": 1
                },
                {
                    "name": "G#4",
                    "midi": 68,
                    "time": 28.799999999999976,
                    "velocity": 0.36220472440944884,
                    "duration": 0.6000000000000014
                },
                {
                    "name": "C4",
                    "midi": 60,
                    "time": 29.399999999999977,
                    "velocity": 0.2677165354330709,
                    "duration": 0.3999999999999986
                },
                {
                    "name": "A4",
                    "midi": 69,
                    "time": 29.399999999999977,
                    "velocity": 0.3228346456692913,
                    "duration": 0.3999999999999986
                },
                {
                    "name": "E4",
                    "midi": 64,
                    "time": 29.799999999999976,
                    "velocity": 0.2677165354330709,
                    "duration": 0.1999999999999993
                },
                {
                    "name": "C5",
                    "midi": 72,
                    "time": 29.799999999999976,
                    "velocity": 0.3228346456692913,
                    "duration": 0.1999999999999993
                },
                {
                    "name": "D4",
                    "midi": 62,
                    "time": 29.999999999999975,
                    "velocity": 0.30708661417322836,
                    "duration": 0.3999999999999986
                },
                {
                    "name": "B4",
                    "midi": 71,
                    "time": 29.999999999999975,
                    "velocity": 0.36220472440944884,
                    "duration": 0.3999999999999986
                },
                {
                    "name": "E4",
                    "midi": 64,
                    "time": 30.399999999999974,
                    "velocity": 0.2677165354330709,
                    "duration": 0.1999999999999993
                },
                {
                    "name": "C5",
                    "midi": 72,
                    "time": 30.399999999999974,
                    "velocity": 0.3228346456692913,
                    "duration": 0.1999999999999993
                },
                {
                    "name": "G4",
                    "midi": 67,
                    "time": 30.599999999999973,
                    "velocity": 0.30708661417322836,
                    "duration": 0.9999999999999964
                },
                {
                    "name": "E5",
                    "midi": 76,
                    "time": 30.599999999999973,
                    "velocity": 0.36220472440944884,
                    "duration": 0.3999999999999986
                },
                {
                    "name": "F4",
                    "midi": 65,
                    "time": 30.99999999999997,
                    "velocity": 0.2677165354330709,
                    "duration": 0.1999999999999993
                },
                {
                    "name": "D5",
                    "midi": 74,
                    "time": 30.99999999999997,
                    "velocity": 0.3228346456692913,
                    "duration": 0.1999999999999993
                },
                {
                    "name": "D4",
                    "midi": 62,
                    "time": 31.19999999999997,
                    "velocity": 0.2755905511811024,
                    "duration": 0.9999999999999964
                },
                {
                    "name": "B4",
                    "midi": 71,
                    "time": 31.19999999999997,
                    "velocity": 0.33070866141732286,
                    "duration": 0.9999999999999964
                },
                {
                    "name": "G4",
                    "midi": 67,
                    "time": 31.59999999999997,
                    "velocity": 0.30708661417322836,
                    "duration": 0.1999999999999993
                },
                {
                    "name": "G4",
                    "midi": 67,
                    "time": 31.79999999999997,
                    "velocity": 0.3464566929133858,
                    "duration": 0.3999999999999986
                },
                {
                    "name": "E4",
                    "midi": 64,
                    "time": 32.19999999999997,
                    "velocity": 0.31496062992125984,
                    "duration": 0.20000000000000284
                },
                {
                    "name": "G4",
                    "midi": 67,
                    "time": 32.19999999999997,
                    "velocity": 0.31496062992125984,
                    "duration": 0.20000000000000284
                },
                {
                    "name": "C5",
                    "midi": 72,
                    "time": 32.19999999999997,
                    "velocity": 0.3779527559055118,
                    "duration": 0.20000000000000284
                },
                {
                    "name": "G4",
                    "midi": 67,
                    "time": 32.39999999999997,
                    "velocity": 0.3464566929133858,
                    "duration": 1
                },
                {
                    "name": "E5",
                    "midi": 76,
                    "time": 32.39999999999997,
                    "velocity": 0.4094488188976378,
                    "duration": 0.3999999999999986
                },
                {
                    "name": "F4",
                    "midi": 65,
                    "time": 32.79999999999997,
                    "velocity": 0.3228346456692913,
                    "duration": 0.20000000000000284
                },
                {
                    "name": "D5",
                    "midi": 74,
                    "time": 32.79999999999997,
                    "velocity": 0.3858267716535433,
                    "duration": 0.20000000000000284
                },
                {
                    "name": "D4",
                    "midi": 62,
                    "time": 32.99999999999997,
                    "velocity": 0.3228346456692913,
                    "duration": 1
                },
                {
                    "name": "B4",
                    "midi": 71,
                    "time": 32.99999999999997,
                    "velocity": 0.3937007874015748,
                    "duration": 1
                },
                {
                    "name": "G4",
                    "midi": 67,
                    "time": 33.39999999999997,
                    "velocity": 0.3779527559055118,
                    "duration": 0.20000000000000284
                },
                {
                    "name": "G4",
                    "midi": 67,
                    "time": 33.59999999999997,
                    "velocity": 0.4251968503937008,
                    "duration": 0.3999999999999986
                },
                {
                    "name": "E4",
                    "midi": 64,
                    "time": 33.99999999999997,
                    "velocity": 0.5039370078740157,
                    "duration": 0.20000000000000284
                },
                {
                    "name": "G4",
                    "midi": 67,
                    "time": 33.99999999999997,
                    "velocity": 0.5039370078740157,
                    "duration": 0.20000000000000284
                },
                {
                    "name": "C5",
                    "midi": 72,
                    "time": 33.99999999999997,
                    "velocity": 0.5984251968503937,
                    "duration": 0.20000000000000284
                },
                {
                    "name": "E5",
                    "midi": 76,
                    "time": 34.199999999999974,
                    "velocity": 0.5196850393700787,
                    "duration": 0.3999999999999986
                },
                {
                    "name": "G5",
                    "midi": 79,
                    "time": 34.199999999999974,
                    "velocity": 0.6062992125984252,
                    "duration": 0.3999999999999986
                },
                {
                    "name": "D5",
                    "midi": 74,
                    "time": 34.59999999999997,
                    "velocity": 0.5275590551181102,
                    "duration": 0.20000000000000284
                },
                {
                    "name": "F#5",
                    "midi": 78,
                    "time": 34.59999999999997,
                    "velocity": 0.6141732283464567,
                    "duration": 0.20000000000000284
                },
                {
                    "name": "C5",
                    "midi": 72,
                    "time": 34.799999999999976,
                    "velocity": 0.5433070866141733,
                    "duration": 0.3999999999999986
                },
                {
                    "name": "E5",
                    "midi": 76,
                    "time": 34.799999999999976,
                    "velocity": 0.5984251968503937,
                    "duration": 0.3999999999999986
                },
                {
                    "name": "B4",
                    "midi": 71,
                    "time": 35.199999999999974,
                    "velocity": 0.48031496062992124,
                    "duration": 0.20000000000000284
                },
                {
                    "name": "D5",
                    "midi": 74,
                    "time": 35.199999999999974,
                    "velocity": 0.5826771653543307,
                    "duration": 0.20000000000000284
                },
                {
                    "name": "A4",
                    "midi": 69,
                    "time": 35.39999999999998,
                    "velocity": 0.4566929133858268,
                    "duration": 0.3999999999999986
                },
                {
                    "name": "C5",
                    "midi": 72,
                    "time": 35.39999999999998,
                    "velocity": 0.5511811023622047,
                    "duration": 0.3999999999999986
                },
                {
                    "name": "G4",
                    "midi": 67,
                    "time": 35.799999999999976,
                    "velocity": 0.30708661417322836,
                    "duration": 0.20000000000000284
                },
                {
                    "name": "B4",
                    "midi": 71,
                    "time": 35.799999999999976,
                    "velocity": 0.3700787401574803,
                    "duration": 0.20000000000000284
                },
                {
                    "name": "B4",
                    "midi": 71,
                    "time": 35.99999999999998,
                    "velocity": 0.30708661417322836,
                    "duration": 0.6000000000000014
                },
                {
                    "name": "D5",
                    "midi": 74,
                    "time": 35.99999999999998,
                    "velocity": 0.36220472440944884,
                    "duration": 0.6000000000000014
                },
                {
                    "name": "F#4",
                    "midi": 66,
                    "time": 36.59999999999998,
                    "velocity": 0.2677165354330709,
                    "duration": 0.3999999999999986
                },
                {
                    "name": "A4",
                    "midi": 69,
                    "time": 36.59999999999998,
                    "velocity": 0.3228346456692913,
                    "duration": 0.3999999999999986
                },
                {
                    "name": "C4",
                    "midi": 60,
                    "time": 36.99999999999998,
                    "velocity": 0.30708661417322836,
                    "duration": 0.20000000000000284
                },
                {
                    "name": "D4",
                    "midi": 62,
                    "time": 36.99999999999998,
                    "velocity": 0.4251968503937008,
                    "duration": 0.20000000000000284
                },
                {
                    "name": "B3",
                    "midi": 59,
                    "time": 37.19999999999998,
                    "velocity": 0.3779527559055118,
                    "duration": 0.3999999999999986
                },
                {
                    "name": "D4",
                    "midi": 62,
                    "time": 37.19999999999998,
                    "velocity": 0.3779527559055118,
                    "duration": 0.3999999999999986
                },
                {
                    "name": "G4",
                    "midi": 67,
                    "time": 37.19999999999998,
                    "velocity": 0.44881889763779526,
                    "duration": 0.3999999999999986
                },
                {
                    "name": "A3",
                    "midi": 57,
                    "time": 37.59999999999998,
                    "velocity": 0.3779527559055118,
                    "duration": 0.20000000000000284
                },
                {
                    "name": "D4",
                    "midi": 62,
                    "time": 37.59999999999998,
                    "velocity": 0.3779527559055118,
                    "duration": 0.20000000000000284
                },
                {
                    "name": "F#4",
                    "midi": 66,
                    "time": 37.59999999999998,
                    "velocity": 0.44881889763779526,
                    "duration": 0.20000000000000284
                },
                {
                    "name": "C4",
                    "midi": 60,
                    "time": 37.79999999999998,
                    "velocity": 0.3779527559055118,
                    "duration": 1
                },
                {
                    "name": "D4",
                    "midi": 62,
                    "time": 37.79999999999998,
                    "velocity": 0.3779527559055118,
                    "duration": 1
                },
                {
                    "name": "A4",
                    "midi": 69,
                    "time": 37.79999999999998,
                    "velocity": 0.44881889763779526,
                    "duration": 1
                },
                {
                    "name": "B3",
                    "midi": 59,
                    "time": 38.79999999999998,
                    "velocity": 0.4015748031496063,
                    "duration": 0.20000000000000284
                },
                {
                    "name": "D4",
                    "midi": 62,
                    "time": 38.79999999999998,
                    "velocity": 0.4015748031496063,
                    "duration": 0.20000000000000284
                },
                {
                    "name": "G4",
                    "midi": 67,
                    "time": 38.79999999999998,
                    "velocity": 0.4881889763779528,
                    "duration": 0.20000000000000284
                },
                {
                    "name": "E4",
                    "midi": 64,
                    "time": 38.999999999999986,
                    "velocity": 0.44881889763779526,
                    "duration": 0.3999999999999986
                },
                {
                    "name": "G4",
                    "midi": 67,
                    "time": 38.999999999999986,
                    "velocity": 0.44881889763779526,
                    "duration": 0.3999999999999986
                },
                {
                    "name": "C5",
                    "midi": 72,
                    "time": 38.999999999999986,
                    "velocity": 0.5275590551181102,
                    "duration": 0.3999999999999986
                },
                {
                    "name": "D4",
                    "midi": 62,
                    "time": 39.399999999999984,
                    "velocity": 0.4094488188976378,
                    "duration": 0.20000000000000284
                },
                {
                    "name": "G4",
                    "midi": 67,
                    "time": 39.399999999999984,
                    "velocity": 0.4094488188976378,
                    "duration": 0.20000000000000284
                },
                {
                    "name": "B4",
                    "midi": 71,
                    "time": 39.399999999999984,
                    "velocity": 0.4881889763779528,
                    "duration": 0.20000000000000284
                },
                {
                    "name": "E4",
                    "midi": 64,
                    "time": 39.59999999999999,
                    "velocity": 0.4409448818897638,
                    "duration": 1
                },
                {
                    "name": "G4",
                    "midi": 67,
                    "time": 39.59999999999999,
                    "velocity": 0.4409448818897638,
                    "duration": 1
                },
                {
                    "name": "E5",
                    "midi": 76,
                    "time": 39.59999999999999,
                    "velocity": 0.5196850393700787,
                    "duration": 1
                },
                {
                    "name": "G4",
                    "midi": 67,
                    "time": 40.59999999999999,
                    "velocity": 0.4251968503937008,
                    "duration": 0.20000000000000284
                },
                {
                    "name": "D5",
                    "midi": 74,
                    "time": 40.59999999999999,
                    "velocity": 0.5118110236220472,
                    "duration": 0.20000000000000284
                },
                {
                    "name": "G4",
                    "midi": 67,
                    "time": 40.79999999999999,
                    "velocity": 0.4566929133858268,
                    "duration": 0.3999999999999986
                },
                {
                    "name": "E4",
                    "midi": 64,
                    "time": 40.79999999999999,
                    "velocity": 0.4566929133858268,
                    "duration": 0.3999999999999986
                },
                {
                    "name": "D5",
                    "midi": 74,
                    "time": 40.79999999999999,
                    "velocity": 0.5433070866141733,
                    "duration": 0.3999999999999986
                },
                {
                    "name": "F#4",
                    "midi": 66,
                    "time": 41.19999999999999,
                    "velocity": 0.4251968503937008,
                    "duration": 0.20000000000000284
                },
                {
                    "name": "D5",
                    "midi": 74,
                    "time": 41.19999999999999,
                    "velocity": 0.5118110236220472,
                    "duration": 0.20000000000000284
                },
                {
                    "name": "G4",
                    "midi": 67,
                    "time": 41.39999999999999,
                    "velocity": 0.4645669291338583,
                    "duration": 1
                },
                {
                    "name": "G5",
                    "midi": 79,
                    "time": 41.39999999999999,
                    "velocity": 0.5826771653543307,
                    "duration": 0.3999999999999986
                },
                {
                    "name": "D5",
                    "midi": 74,
                    "time": 41.79999999999999,
                    "velocity": 0.5039370078740157,
                    "duration": 0.20000000000000284
                },
                {
                    "name": "B4",
                    "midi": 71,
                    "time": 41.99999999999999,
                    "velocity": 0.5039370078740157,
                    "duration": 0.3999999999999986
                },
                {
                    "name": "D4",
                    "midi": 62,
                    "time": 42.39999999999999,
                    "velocity": 0.3543307086614173,
                    "duration": 0.14999999999999858
                },
                {
                    "name": "G4",
                    "midi": 67,
                    "time": 42.39999999999999,
                    "velocity": 0.41732283464566927,
                    "duration": 0.14999999999999858
                },
                {
                    "name": "A4",
                    "midi": 69,
                    "time": 42.54999999999999,
                    "velocity": 0.3858267716535433,
                    "duration": 0.04999999999999716
                },
                {
                    "name": "C#4",
                    "midi": 61,
                    "time": 42.59999999999999,
                    "velocity": 0.3464566929133858,
                    "duration": 0.4000000000000057
                },
                {
                    "name": "G4",
                    "midi": 67,
                    "time": 42.59999999999999,
                    "velocity": 0.4094488188976378,
                    "duration": 0.20000000000000284
                },
                {
                    "name": "F#4",
                    "midi": 66,
                    "time": 42.79999999999999,
                    "velocity": 0.3858267716535433,
                    "duration": 0.20000000000000284
                },
                {
                    "name": "C#4",
                    "midi": 61,
                    "time": 42.99999999999999,
                    "velocity": 0.30708661417322836,
                    "duration": 0.20000000000000284
                },
                {
                    "name": "G4",
                    "midi": 67,
                    "time": 42.99999999999999,
                    "velocity": 0.3700787401574803,
                    "duration": 0.20000000000000284
                },
                {
                    "name": "D4",
                    "midi": 62,
                    "time": 43.199999999999996,
                    "velocity": 0.3464566929133858,
                    "duration": 1
                },
                {
                    "name": "B4",
                    "midi": 71,
                    "time": 43.199999999999996,
                    "velocity": 0.3937007874015748,
                    "duration": 0.6000000000000014
                },
                {
                    "name": "A4",
                    "midi": 69,
                    "time": 43.8,
                    "velocity": 0.3858267716535433,
                    "duration": 0.3999999999999986
                },
                {
                    "name": "D4",
                    "midi": 62,
                    "time": 44.199999999999996,
                    "velocity": 0.3464566929133858,
                    "duration": 0.20000000000000284
                },
                {
                    "name": "A4",
                    "midi": 69,
                    "time": 44.199999999999996,
                    "velocity": 0.4094488188976378,
                    "duration": 0.20000000000000284
                },
                {
                    "name": "D4",
                    "midi": 62,
                    "time": 44.4,
                    "velocity": 0.3700787401574803,
                    "duration": 0.3999999999999986
                },
                {
                    "name": "B4",
                    "midi": 71,
                    "time": 44.4,
                    "velocity": 0.4409448818897638,
                    "duration": 0.3999999999999986
                },
                {
                    "name": "D4",
                    "midi": 62,
                    "time": 44.8,
                    "velocity": 0.3543307086614173,
                    "duration": 0.20000000000000284
                },
                {
                    "name": "C5",
                    "midi": 72,
                    "time": 44.8,
                    "velocity": 0.44881889763779526,
                    "duration": 0.20000000000000284
                },
                {
                    "name": "D4",
                    "midi": 62,
                    "time": 45,
                    "velocity": 0.3858267716535433,
                    "duration": 1
                },
                {
                    "name": "E5",
                    "midi": 76,
                    "time": 45,
                    "velocity": 0.48031496062992124,
                    "duration": 0.3999999999999986
                },
                {
                    "name": "D5",
                    "midi": 74,
                    "time": 45.4,
                    "velocity": 0.41732283464566927,
                    "duration": 0.20000000000000284
                },
                {
                    "name": "B4",
                    "midi": 71,
                    "time": 45.6,
                    "velocity": 0.41732283464566927,
                    "duration": 0.3999999999999986
                },
                {
                    "name": "D4",
                    "midi": 62,
                    "time": 46,
                    "velocity": 0.36220472440944884,
                    "duration": 0.20000000000000284
                },
                {
                    "name": "A4",
                    "midi": 69,
                    "time": 46,
                    "velocity": 0.4251968503937008,
                    "duration": 0.20000000000000284
                },
                {
                    "name": "D4",
                    "midi": 62,
                    "time": 46.2,
                    "velocity": 0.3858267716535433,
                    "duration": 0.3999999999999986
                },
                {
                    "name": "B4",
                    "midi": 71,
                    "time": 46.2,
                    "velocity": 0.4566929133858268,
                    "duration": 0.3999999999999986
                },
                {
                    "name": "D4",
                    "midi": 62,
                    "time": 46.6,
                    "velocity": 0.3700787401574803,
                    "duration": 0.20000000000000284
                },
                {
                    "name": "C5",
                    "midi": 72,
                    "time": 46.6,
                    "velocity": 0.4645669291338583,
                    "duration": 0.20000000000000284
                },
                {
                    "name": "D4",
                    "midi": 62,
                    "time": 46.800000000000004,
                    "velocity": 0.4015748031496063,
                    "duration": 1
                },
                {
                    "name": "E5",
                    "midi": 76,
                    "time": 46.800000000000004,
                    "velocity": 0.5039370078740157,
                    "duration": 0.3999999999999986
                },
                {
                    "name": "D5",
                    "midi": 74,
                    "time": 47.2,
                    "velocity": 0.4330708661417323,
                    "duration": 0.20000000000000284
                },
                {
                    "name": "B4",
                    "midi": 71,
                    "time": 47.400000000000006,
                    "velocity": 0.4330708661417323,
                    "duration": 0.3999999999999986
                },
                {
                    "name": "G4",
                    "midi": 67,
                    "time": 47.800000000000004,
                    "velocity": 0.5590551181102362,
                    "duration": 0.20000000000000284
                },
                {
                    "name": "A4",
                    "midi": 69,
                    "time": 48.00000000000001,
                    "velocity": 0.49606299212598426,
                    "duration": 0.3999999999999986
                },
                {
                    "name": "E5",
                    "midi": 76,
                    "time": 48.00000000000001,
                    "velocity": 0.5354330708661418,
                    "duration": 0.3999999999999986
                },
                {
                    "name": "G4",
                    "midi": 67,
                    "time": 48.00000000000001,
                    "velocity": 0.49606299212598426,
                    "duration": 0.3999999999999986
                },
                {
                    "name": "G5",
                    "midi": 79,
                    "time": 48.00000000000001,
                    "velocity": 0.6141732283464567,
                    "duration": 0.3999999999999986
                },
                {
                    "name": "A4",
                    "midi": 69,
                    "time": 48.400000000000006,
                    "velocity": 0.4566929133858268,
                    "duration": 0.20000000000000284
                },
                {
                    "name": "E5",
                    "midi": 76,
                    "time": 48.400000000000006,
                    "velocity": 0.5039370078740157,
                    "duration": 0.20000000000000284
                },
                {
                    "name": "G4",
                    "midi": 67,
                    "time": 48.400000000000006,
                    "velocity": 0.4566929133858268,
                    "duration": 0.20000000000000284
                },
                {
                    "name": "G5",
                    "midi": 79,
                    "time": 48.400000000000006,
                    "velocity": 0.5905511811023622,
                    "duration": 0.20000000000000284
                },
                {
                    "name": "G4",
                    "midi": 67,
                    "time": 48.60000000000001,
                    "velocity": 0.5039370078740157,
                    "duration": 0.6000000000000014
                },
                {
                    "name": "D5",
                    "midi": 74,
                    "time": 48.60000000000001,
                    "velocity": 0.5433070866141733,
                    "duration": 0.6000000000000014
                },
                {
                    "name": "G5",
                    "midi": 79,
                    "time": 48.60000000000001,
                    "velocity": 0.6299212598425197,
                    "duration": 0.6000000000000014
                },
                {
                    "name": "B4",
                    "midi": 71,
                    "time": 49.20000000000001,
                    "velocity": 0.4330708661417323,
                    "duration": 0.3999999999999986
                },
                {
                    "name": "D5",
                    "midi": 74,
                    "time": 49.20000000000001,
                    "velocity": 0.5275590551181102,
                    "duration": 0.3999999999999986
                },
                {
                    "name": "G4",
                    "midi": 67,
                    "time": 49.60000000000001,
                    "velocity": 0.3543307086614173,
                    "duration": 0.20000000000000284
                },
                {
                    "name": "B4",
                    "midi": 71,
                    "time": 49.60000000000001,
                    "velocity": 0.41732283464566927,
                    "duration": 0.20000000000000284
                },
                {
                    "name": "F#4",
                    "midi": 66,
                    "time": 49.80000000000001,
                    "velocity": 0.3700787401574803,
                    "duration": 0.6000000000000085
                },
                {
                    "name": "C5",
                    "midi": 72,
                    "time": 49.80000000000001,
                    "velocity": 0.4330708661417323,
                    "duration": 0.20000000000000284
                },
                {
                    "name": "E5",
                    "midi": 76,
                    "time": 50.000000000000014,
                    "velocity": 0.3937007874015748,
                    "duration": 0.20000000000000284
                },
                {
                    "name": "D5",
                    "midi": 74,
                    "time": 50.20000000000002,
                    "velocity": 0.3937007874015748,
                    "duration": 0.20000000000000284
                },
                {
                    "name": "F#4",
                    "midi": 66,
                    "time": 50.40000000000002,
                    "velocity": 0.3700787401574803,
                    "duration": 0.6000000000000014
                },
                {
                    "name": "C5",
                    "midi": 72,
                    "time": 50.40000000000002,
                    "velocity": 0.4330708661417323,
                    "duration": 0.6000000000000014
                },
                {
                    "name": "G4",
                    "midi": 67,
                    "time": 51.00000000000002,
                    "velocity": 0.36220472440944884,
                    "duration": 0.3999999999999986
                },
                {
                    "name": "B4",
                    "midi": 71,
                    "time": 51.00000000000002,
                    "velocity": 0.41732283464566927,
                    "duration": 0.3999999999999986
                },
                {
                    "name": "D4",
                    "midi": 62,
                    "time": 51.40000000000002,
                    "velocity": 0.3464566929133858,
                    "duration": 0.18999999999999773
                },
                {
                    "name": "A4",
                    "midi": 69,
                    "time": 51.40000000000002,
                    "velocity": 0.4094488188976378,
                    "duration": 0.18999999999999773
                },
                {
                    "name": "D4",
                    "midi": 62,
                    "time": 51.600000000000016,
                    "velocity": 0.3700787401574803,
                    "duration": 0.20000000000000284
                },
                {
                    "name": "A4",
                    "midi": 69,
                    "time": 51.600000000000016,
                    "velocity": 0.4409448818897638,
                    "duration": 0.20000000000000284
                },
                {
                    "name": "D4",
                    "midi": 62,
                    "time": 51.80000000000002,
                    "velocity": 0.3700787401574803,
                    "duration": 0.20000000000000284
                },
                {
                    "name": "B4",
                    "midi": 71,
                    "time": 51.80000000000002,
                    "velocity": 0.4409448818897638,
                    "duration": 0.20000000000000284
                },
                {
                    "name": "D4",
                    "midi": 62,
                    "time": 52.00000000000002,
                    "velocity": 0.3543307086614173,
                    "duration": 0.20000000000000284
                },
                {
                    "name": "C5",
                    "midi": 72,
                    "time": 52.00000000000002,
                    "velocity": 0.44881889763779526,
                    "duration": 0.20000000000000284
                },
                {
                    "name": "D4",
                    "midi": 62,
                    "time": 52.200000000000024,
                    "velocity": 0.4015748031496063,
                    "duration": 0.8000000000000043
                },
                {
                    "name": "E5",
                    "midi": 76,
                    "time": 52.200000000000024,
                    "velocity": 0.5039370078740157,
                    "duration": 0.3999999999999986
                },
                {
                    "name": "D5",
                    "midi": 74,
                    "time": 52.60000000000002,
                    "velocity": 0.4330708661417323,
                    "duration": 0.20000000000000284
                },
                {
                    "name": "B4",
                    "midi": 71,
                    "time": 52.800000000000026,
                    "velocity": 0.4330708661417323,
                    "duration": 0.20000000000000284
                },
                {
                    "name": "D4",
                    "midi": 62,
                    "time": 53.00000000000003,
                    "velocity": 0.3464566929133858,
                    "duration": 0.20000000000000284
                },
                {
                    "name": "A4",
                    "midi": 69,
                    "time": 53.00000000000003,
                    "velocity": 0.4251968503937008,
                    "duration": 0.20000000000000284
                },
                {
                    "name": "D4",
                    "midi": 62,
                    "time": 53.20000000000003,
                    "velocity": 0.3543307086614173,
                    "duration": 0.20000000000000284
                },
                {
                    "name": "G#4",
                    "midi": 68,
                    "time": 53.20000000000003,
                    "velocity": 0.4409448818897638,
                    "duration": 0.20000000000000284
                },
                {
                    "name": "D4",
                    "midi": 62,
                    "time": 53.400000000000034,
                    "velocity": 0.4015748031496063,
                    "duration": 0.20000000000000284
                },
                {
                    "name": "A4",
                    "midi": 69,
                    "time": 53.400000000000034,
                    "velocity": 0.47244094488188976,
                    "duration": 0.20000000000000284
                },
                {
                    "name": "D4",
                    "midi": 62,
                    "time": 53.60000000000004,
                    "velocity": 0.4015748031496063,
                    "duration": 0.20000000000000284
                },
                {
                    "name": "B4",
                    "midi": 71,
                    "time": 53.60000000000004,
                    "velocity": 0.47244094488188976,
                    "duration": 0.20000000000000284
                },
                {
                    "name": "D4",
                    "midi": 62,
                    "time": 53.80000000000004,
                    "velocity": 0.3858267716535433,
                    "duration": 0.20000000000000284
                },
                {
                    "name": "C5",
                    "midi": 72,
                    "time": 53.80000000000004,
                    "velocity": 0.48031496062992124,
                    "duration": 0.20000000000000284
                },
                {
                    "name": "D4",
                    "midi": 62,
                    "time": 54.00000000000004,
                    "velocity": 0.41732283464566927,
                    "duration": 1
                },
                {
                    "name": "E5",
                    "midi": 76,
                    "time": 54.00000000000004,
                    "velocity": 0.5275590551181102,
                    "duration": 0.3999999999999986
                },
                {
                    "name": "D5",
                    "midi": 74,
                    "time": 54.40000000000004,
                    "velocity": 0.44881889763779526,
                    "duration": 0.20000000000000284
                },
                {
                    "name": "B4",
                    "midi": 71,
                    "time": 54.600000000000044,
                    "velocity": 0.44881889763779526,
                    "duration": 0.3999999999999986
                },
                {
                    "name": "G4",
                    "midi": 67,
                    "time": 55.00000000000004,
                    "velocity": 0.5590551181102362,
                    "duration": 0.20000000000000284
                },
                {
                    "name": "A4",
                    "midi": 69,
                    "time": 55.200000000000045,
                    "velocity": 0.49606299212598426,
                    "duration": 0.3999999999999986
                },
                {
                    "name": "E5",
                    "midi": 76,
                    "time": 55.200000000000045,
                    "velocity": 0.5354330708661418,
                    "duration": 0.3999999999999986
                },
                {
                    "name": "G4",
                    "midi": 67,
                    "time": 55.200000000000045,
                    "velocity": 0.49606299212598426,
                    "duration": 0.3999999999999986
                },
                {
                    "name": "G5",
                    "midi": 79,
                    "time": 55.200000000000045,
                    "velocity": 0.6141732283464567,
                    "duration": 0.3999999999999986
                },
                {
                    "name": "A4",
                    "midi": 69,
                    "time": 55.600000000000044,
                    "velocity": 0.4566929133858268,
                    "duration": 0.20000000000000284
                },
                {
                    "name": "E5",
                    "midi": 76,
                    "time": 55.600000000000044,
                    "velocity": 0.5039370078740157,
                    "duration": 0.20000000000000284
                },
                {
                    "name": "G4",
                    "midi": 67,
                    "time": 55.600000000000044,
                    "velocity": 0.4566929133858268,
                    "duration": 0.20000000000000284
                },
                {
                    "name": "G5",
                    "midi": 79,
                    "time": 55.600000000000044,
                    "velocity": 0.5905511811023622,
                    "duration": 0.20000000000000284
                },
                {
                    "name": "G4",
                    "midi": 67,
                    "time": 55.80000000000005,
                    "velocity": 0.5039370078740157,
                    "duration": 0.6000000000000014
                },
                {
                    "name": "B4",
                    "midi": 71,
                    "time": 55.80000000000005,
                    "velocity": 0.5433070866141733,
                    "duration": 0.6000000000000014
                },
                {
                    "name": "G5",
                    "midi": 79,
                    "time": 55.80000000000005,
                    "velocity": 0.6299212598425197,
                    "duration": 0.6000000000000014
                },
                {
                    "name": "B4",
                    "midi": 71,
                    "time": 56.40000000000005,
                    "velocity": 0.44881889763779526,
                    "duration": 0.3999999999999986
                },
                {
                    "name": "D5",
                    "midi": 74,
                    "time": 56.40000000000005,
                    "velocity": 0.5511811023622047,
                    "duration": 0.3999999999999986
                },
                {
                    "name": "B5",
                    "midi": 83,
                    "time": 56.80000000000005,
                    "velocity": 0.5669291338582677,
                    "duration": 0.20000000000000284
                },
                {
                    "name": "G5",
                    "midi": 79,
                    "time": 57.00000000000005,
                    "velocity": 0.5511811023622047,
                    "duration": 0.3999999999999986
                },
                {
                    "name": "D5",
                    "midi": 74,
                    "time": 57.40000000000005,
                    "velocity": 0.5354330708661418,
                    "duration": 0.20000000000000284
                },
                {
                    "name": "F#5",
                    "midi": 78,
                    "time": 57.40000000000005,
                    "velocity": 0.5354330708661418,
                    "duration": 0.20000000000000284
                },
                {
                    "name": "C5",
                    "midi": 72,
                    "time": 57.60000000000005,
                    "velocity": 0.5196850393700787,
                    "duration": 0.3999999999999986
                },
                {
                    "name": "E5",
                    "midi": 76,
                    "time": 57.60000000000005,
                    "velocity": 0.5196850393700787,
                    "duration": 0.3999999999999986
                },
                {
                    "name": "B4",
                    "midi": 71,
                    "time": 58.00000000000005,
                    "velocity": 0.5039370078740157,
                    "duration": 0.20000000000000284
                },
                {
                    "name": "D5",
                    "midi": 74,
                    "time": 58.00000000000005,
                    "velocity": 0.5039370078740157,
                    "duration": 0.20000000000000284
                },
                {
                    "name": "G4",
                    "midi": 67,
                    "time": 58.20000000000005,
                    "velocity": 0.47244094488188976,
                    "duration": 0.3999999999999986
                },
                {
                    "name": "C5",
                    "midi": 72,
                    "time": 58.20000000000005,
                    "velocity": 0.47244094488188976,
                    "duration": 0.3999999999999986
                },
                {
                    "name": "G4",
                    "midi": 67,
                    "time": 58.60000000000005,
                    "velocity": 0.48031496062992124,
                    "duration": 0.20000000000000284
                },
                {
                    "name": "B4",
                    "midi": 71,
                    "time": 58.60000000000005,
                    "velocity": 0.48031496062992124,
                    "duration": 0.20000000000000284
                },
                {
                    "name": "E4",
                    "midi": 64,
                    "time": 58.800000000000054,
                    "velocity": 0.4566929133858268,
                    "duration": 0.3999999999999986
                },
                {
                    "name": "G4",
                    "midi": 67,
                    "time": 58.800000000000054,
                    "velocity": 0.4566929133858268,
                    "duration": 0.3999999999999986
                },
                {
                    "name": "A4",
                    "midi": 69,
                    "time": 58.800000000000054,
                    "velocity": 0.4566929133858268,
                    "duration": 0.3999999999999986
                },
                {
                    "name": "E5",
                    "midi": 76,
                    "time": 59.20000000000005,
                    "velocity": 0.4566929133858268,
                    "duration": 0.18999999999999773
                },
                {
                    "name": "E5",
                    "midi": 76,
                    "time": 59.40000000000005,
                    "velocity": 0.4566929133858268,
                    "duration": 0.6000000000000014
                },
                {
                    "name": "A4",
                    "midi": 69,
                    "time": 60.00000000000005,
                    "velocity": 0.4094488188976378,
                    "duration": 0.3999999999999986
                },
                {
                    "name": "C5",
                    "midi": 72,
                    "time": 60.60000000000005,
                    "velocity": 0.4094488188976378,
                    "duration": 0.3999999999999986
                },
                {
                    "name": "F#4",
                    "midi": 66,
                    "time": 60.60000000000005,
                    "velocity": 0.3464566929133858,
                    "duration": 0.3999999999999986
                },
                {
                    "name": "F#4",
                    "midi": 66,
                    "time": 61.00000000000005,
                    "velocity": 0.3228346456692913,
                    "duration": 0.20000000000000284
                },
                {
                    "name": "B4",
                    "midi": 71,
                    "time": 61.00000000000005,
                    "velocity": 0.3858267716535433,
                    "duration": 0.20000000000000284
                },
                {
                    "name": "F#4",
                    "midi": 66,
                    "time": 61.20000000000005,
                    "velocity": 0.3228346456692913,
                    "duration": 1
                },
                {
                    "name": "A4",
                    "midi": 69,
                    "time": 61.20000000000005,
                    "velocity": 0.3858267716535433,
                    "duration": 1.2000000000000028
                },
                {
                    "name": "B3",
                    "midi": 59,
                    "time": 62.20000000000005,
                    "velocity": 0.36220472440944884,
                    "duration": 0.20000000000000284
                },
                {
                    "name": "D4",
                    "midi": 62,
                    "time": 62.20000000000005,
                    "velocity": 0.4330708661417323,
                    "duration": 0.20000000000000284
                },
                {
                    "name": "G4",
                    "midi": 67,
                    "time": 62.400000000000055,
                    "velocity": 0.47244094488188976,
                    "duration": 0.4000000000000057
                },
                {
                    "name": "B3",
                    "midi": 59,
                    "time": 62.400000000000055,
                    "velocity": 0.3858267716535433,
                    "duration": 0.20000000000000284
                },
                {
                    "name": "D4",
                    "midi": 62,
                    "time": 62.400000000000055,
                    "velocity": 0.4645669291338583,
                    "duration": 0.20000000000000284
                },
                {
                    "name": "G3",
                    "midi": 55,
                    "time": 62.60000000000006,
                    "velocity": 0.4330708661417323,
                    "duration": 0.20000000000000284
                },
                {
                    "name": "D4",
                    "midi": 62,
                    "time": 62.80000000000006,
                    "velocity": 0.3937007874015748,
                    "duration": 0.18999999999999773
                },
                {
                    "name": "G4",
                    "midi": 67,
                    "time": 62.80000000000006,
                    "velocity": 0.3937007874015748,
                    "duration": 0.18999999999999773
                },
                {
                    "name": "B4",
                    "midi": 71,
                    "time": 62.80000000000006,
                    "velocity": 0.4645669291338583,
                    "duration": 0.18999999999999773
                },
                {
                    "name": "D4",
                    "midi": 62,
                    "time": 63.00000000000006,
                    "velocity": 0.4094488188976378,
                    "duration": 0.6000000000000014
                },
                {
                    "name": "G4",
                    "midi": 67,
                    "time": 63.00000000000006,
                    "velocity": 0.4094488188976378,
                    "duration": 0.6000000000000014
                },
                {
                    "name": "B4",
                    "midi": 71,
                    "time": 63.00000000000006,
                    "velocity": 0.49606299212598426,
                    "duration": 0.6000000000000014
                },
                {
                    "name": "B3",
                    "midi": 59,
                    "time": 63.60000000000006,
                    "velocity": 0.3228346456692913,
                    "duration": 0.3999999999999986
                },
                {
                    "name": "G4",
                    "midi": 67,
                    "time": 63.60000000000006,
                    "velocity": 0.3858267716535433,
                    "duration": 0.3999999999999986
                },
                {
                    "name": "D4",
                    "midi": 62,
                    "time": 64.00000000000006,
                    "velocity": 0.4094488188976378,
                    "duration": 0.20000000000000284
                },
                {
                    "name": "B4",
                    "midi": 71,
                    "time": 64.00000000000006,
                    "velocity": 0.4881889763779528,
                    "duration": 0.20000000000000284
                },
                {
                    "name": "D4",
                    "midi": 62,
                    "time": 64.20000000000006,
                    "velocity": 0.41732283464566927,
                    "duration": 0.20000000000000284
                },
                {
                    "name": "B4",
                    "midi": 71,
                    "time": 64.20000000000006,
                    "velocity": 0.5039370078740157,
                    "duration": 0.20000000000000284
                },
                {
                    "name": "B3",
                    "midi": 59,
                    "time": 64.40000000000006,
                    "velocity": 0.3937007874015748,
                    "duration": 0.20000000000000284
                },
                {
                    "name": "G4",
                    "midi": 67,
                    "time": 64.40000000000006,
                    "velocity": 0.47244094488188976,
                    "duration": 0.20000000000000284
                },
                {
                    "name": "B4",
                    "midi": 71,
                    "time": 64.60000000000007,
                    "velocity": 0.44881889763779526,
                    "duration": 0.18999999999999773
                },
                {
                    "name": "D5",
                    "midi": 74,
                    "time": 64.60000000000007,
                    "velocity": 0.44881889763779526,
                    "duration": 0.18999999999999773
                },
                {
                    "name": "G5",
                    "midi": 79,
                    "time": 64.60000000000007,
                    "velocity": 0.5433070866141733,
                    "duration": 0.18999999999999773
                },
                {
                    "name": "B4",
                    "midi": 71,
                    "time": 64.80000000000007,
                    "velocity": 0.4645669291338583,
                    "duration": 0.5999999999999943
                },
                {
                    "name": "D5",
                    "midi": 74,
                    "time": 64.80000000000007,
                    "velocity": 0.4645669291338583,
                    "duration": 0.5999999999999943
                },
                {
                    "name": "G5",
                    "midi": 79,
                    "time": 64.80000000000007,
                    "velocity": 0.5590551181102362,
                    "duration": 0.5999999999999943
                },
                {
                    "name": "G4",
                    "midi": 67,
                    "time": 65.40000000000006,
                    "velocity": 0.3543307086614173,
                    "duration": 0.4000000000000057
                },
                {
                    "name": "B4",
                    "midi": 71,
                    "time": 65.40000000000006,
                    "velocity": 0.3543307086614173,
                    "duration": 0.4000000000000057
                },
                {
                    "name": "D5",
                    "midi": 74,
                    "time": 65.40000000000006,
                    "velocity": 0.4251968503937008,
                    "duration": 0.4000000000000057
                },
                {
                    "name": "G5",
                    "midi": 79,
                    "time": 65.80000000000007,
                    "velocity": 0.5118110236220472,
                    "duration": 0.20000000000000284
                },
                {
                    "name": "D6",
                    "midi": 86,
                    "time": 65.80000000000007,
                    "velocity": 0.6062992125984252,
                    "duration": 0.20000000000000284
                },
                {
                    "name": "G5",
                    "midi": 79,
                    "time": 66.00000000000007,
                    "velocity": 0.5511811023622047,
                    "duration": 0.20000000000000284
                },
                {
                    "name": "D6",
                    "midi": 86,
                    "time": 66.00000000000007,
                    "velocity": 0.6456692913385826,
                    "duration": 0.20000000000000284
                },
                {
                    "name": "D5",
                    "midi": 74,
                    "time": 66.20000000000007,
                    "velocity": 0.48031496062992124,
                    "duration": 0.20000000000000284
                },
                {
                    "name": "B5",
                    "midi": 83,
                    "time": 66.20000000000007,
                    "velocity": 0.5748031496062992,
                    "duration": 0.20000000000000284
                },
                {
                    "name": "B4",
                    "midi": 71,
                    "time": 66.40000000000008,
                    "velocity": 0.48031496062992124,
                    "duration": 0.18999999999999773
                },
                {
                    "name": "G5",
                    "midi": 79,
                    "time": 66.40000000000008,
                    "velocity": 0.5748031496062992,
                    "duration": 0.18999999999999773
                },
                {
                    "name": "B4",
                    "midi": 71,
                    "time": 66.60000000000008,
                    "velocity": 0.49606299212598426,
                    "duration": 0.20000000000000284
                },
                {
                    "name": "G5",
                    "midi": 79,
                    "time": 66.60000000000008,
                    "velocity": 0.5984251968503937,
                    "duration": 0.20000000000000284
                },
                {
                    "name": "G4",
                    "midi": 67,
                    "time": 66.80000000000008,
                    "velocity": 0.4330708661417323,
                    "duration": 0.20000000000000284
                },
                {
                    "name": "D5",
                    "midi": 74,
                    "time": 66.80000000000008,
                    "velocity": 0.5196850393700787,
                    "duration": 0.20000000000000284
                },
                {
                    "name": "D4",
                    "midi": 62,
                    "time": 67.00000000000009,
                    "velocity": 0.4330708661417323,
                    "duration": 0.20000000000000284
                },
                {
                    "name": "B4",
                    "midi": 71,
                    "time": 67.00000000000009,
                    "velocity": 0.5196850393700787,
                    "duration": 0.20000000000000284
                },
                {
                    "name": "G4",
                    "midi": 67,
                    "time": 67.20000000000009,
                    "velocity": 0.48031496062992124,
                    "duration": 0.5999999999999943
                },
                {
                    "name": "D5",
                    "midi": 74,
                    "time": 67.20000000000009,
                    "velocity": 0.5748031496062992,
                    "duration": 0.5999999999999943
                },
                {
                    "name": "C4",
                    "midi": 60,
                    "time": 67.80000000000008,
                    "velocity": 0.2992125984251969,
                    "duration": 0.4000000000000057
                },
                {
                    "name": "D4",
                    "midi": 62,
                    "time": 67.80000000000008,
                    "velocity": 0.2992125984251969,
                    "duration": 0.4000000000000057
                },
                {
                    "name": "F#4",
                    "midi": 66,
                    "time": 67.80000000000008,
                    "velocity": 0.2992125984251969,
                    "duration": 0.4000000000000057
                },
                {
                    "name": "A4",
                    "midi": 69,
                    "time": 67.80000000000008,
                    "velocity": 0.3543307086614173,
                    "duration": 0.4000000000000057
                },
                {
                    "name": "B4",
                    "midi": 71,
                    "time": 68.20000000000009,
                    "velocity": 0.3464566929133858,
                    "duration": 0.20000000000000284
                },
                {
                    "name": "B3",
                    "midi": 59,
                    "time": 68.40000000000009,
                    "velocity": 0.28346456692913385,
                    "duration": 1
                },
                {
                    "name": "D4",
                    "midi": 62,
                    "time": 68.40000000000009,
                    "velocity": 0.28346456692913385,
                    "duration": 1
                },
                {
                    "name": "G4",
                    "midi": 67,
                    "time": 68.40000000000009,
                    "velocity": 0.33858267716535434,
                    "duration": 1
                }
            ],
            "controlChanges": {
                "7": [
                    {
                        "number": 7,
                        "time": 0,
                        "value": 1
                    }
                ],
                "10": [
                    {
                        "number": 10,
                        "time": 0,
                        "value": 0.5039370078740157
                    }
                ],
                "91": [
                    {
                        "number": 91,
                        "time": 0,
                        "value": 1
                    }
                ]
            },
            "id": 1,
            "name": "Piano right",
            "instrumentNumber": 0,
            "instrument": "acoustic grand piano",
            "instrumentFamily": "piano",
            "channelNumber": 0,
            "isPercussion": false
        },
        {
            "startTime": 1.2000000000000002,
            "duration": 69.40000000000006,
            "length": 312,
            "notes": [
                {
                    "name": "G1",
                    "midi": 31,
                    "time": 1.2000000000000002,
                    "velocity": 0.2677165354330709,
                    "duration": 0.40000000000000013
                },
                {
                    "name": "G2",
                    "midi": 43,
                    "time": 1.2000000000000002,
                    "velocity": 0.31496062992125984,
                    "duration": 0.40000000000000013
                },
                {
                    "name": "G1",
                    "midi": 31,
                    "time": 1.8000000000000003,
                    "velocity": 0.2755905511811024,
                    "duration": 1
                },
                {
                    "name": "G2",
                    "midi": 43,
                    "time": 1.8000000000000003,
                    "velocity": 0.33070866141732286,
                    "duration": 1
                },
                {
                    "name": "G1",
                    "midi": 31,
                    "time": 3.0000000000000004,
                    "velocity": 0.2677165354330709,
                    "duration": 0.3999999999999999
                },
                {
                    "name": "G2",
                    "midi": 43,
                    "time": 3.0000000000000004,
                    "velocity": 0.31496062992125984,
                    "duration": 0.3999999999999999
                },
                {
                    "name": "G1",
                    "midi": 31,
                    "time": 3.6000000000000005,
                    "velocity": 0.31496062992125984,
                    "duration": 1
                },
                {
                    "name": "G2",
                    "midi": 43,
                    "time": 3.6000000000000005,
                    "velocity": 0.3779527559055118,
                    "duration": 1
                },
                {
                    "name": "B4",
                    "midi": 71,
                    "time": 4.6000000000000005,
                    "velocity": 0.41732283464566927,
                    "duration": 0.20000000000000018
                },
                {
                    "name": "B4",
                    "midi": 71,
                    "time": 4.800000000000001,
                    "velocity": 0.4409448818897638,
                    "duration": 0.20000000000000018
                },
                {
                    "name": "G4",
                    "midi": 67,
                    "time": 5.000000000000001,
                    "velocity": 0.4094488188976378,
                    "duration": 0.20000000000000018
                },
                {
                    "name": "D4",
                    "midi": 62,
                    "time": 5.200000000000001,
                    "velocity": 0.4094488188976378,
                    "duration": 0.20000000000000018
                },
                {
                    "name": "D4",
                    "midi": 62,
                    "time": 5.400000000000001,
                    "velocity": 0.44881889763779526,
                    "duration": 0.20000000000000018
                },
                {
                    "name": "B3",
                    "midi": 59,
                    "time": 5.600000000000001,
                    "velocity": 0.4015748031496063,
                    "duration": 0.20000000000000018
                },
                {
                    "name": "G3",
                    "midi": 55,
                    "time": 5.800000000000002,
                    "velocity": 0.4015748031496063,
                    "duration": 0.20000000000000018
                },
                {
                    "name": "D3",
                    "midi": 50,
                    "time": 6.000000000000002,
                    "velocity": 0.36220472440944884,
                    "duration": 0.5999999999999996
                },
                {
                    "name": "B3",
                    "midi": 59,
                    "time": 6.000000000000002,
                    "velocity": 0.4251968503937008,
                    "duration": 0.5999999999999996
                },
                {
                    "name": "D2",
                    "midi": 38,
                    "time": 6.600000000000001,
                    "velocity": 0.25196850393700787,
                    "duration": 0.40000000000000036
                },
                {
                    "name": "D3",
                    "midi": 50,
                    "time": 6.600000000000001,
                    "velocity": 0.2992125984251969,
                    "duration": 0.40000000000000036
                },
                {
                    "name": "G1",
                    "midi": 31,
                    "time": 7.200000000000002,
                    "velocity": 0.2204724409448819,
                    "duration": 0.40000000000000036
                },
                {
                    "name": "G2",
                    "midi": 43,
                    "time": 7.200000000000002,
                    "velocity": 0.25984251968503935,
                    "duration": 0.40000000000000036
                },
                {
                    "name": "D3",
                    "midi": 50,
                    "time": 8.200000000000003,
                    "velocity": 0.30708661417322836,
                    "duration": 0.1999999999999993
                },
                {
                    "name": "B2",
                    "midi": 47,
                    "time": 8.400000000000002,
                    "velocity": 0.2755905511811024,
                    "duration": 0.40000000000000036
                },
                {
                    "name": "D3",
                    "midi": 50,
                    "time": 8.400000000000002,
                    "velocity": 0.2755905511811024,
                    "duration": 0.40000000000000036
                },
                {
                    "name": "G3",
                    "midi": 55,
                    "time": 8.400000000000002,
                    "velocity": 0.33858267716535434,
                    "duration": 0.40000000000000036
                },
                {
                    "name": "A2",
                    "midi": 45,
                    "time": 8.800000000000002,
                    "velocity": 0.25196850393700787,
                    "duration": 0.1999999999999993
                },
                {
                    "name": "D3",
                    "midi": 50,
                    "time": 8.800000000000002,
                    "velocity": 0.25196850393700787,
                    "duration": 0.1999999999999993
                },
                {
                    "name": "F#3",
                    "midi": 54,
                    "time": 8.800000000000002,
                    "velocity": 0.2992125984251969,
                    "duration": 0.1999999999999993
                },
                {
                    "name": "C3",
                    "midi": 48,
                    "time": 9.000000000000002,
                    "velocity": 0.2755905511811024,
                    "duration": 1
                },
                {
                    "name": "D3",
                    "midi": 50,
                    "time": 9.000000000000002,
                    "velocity": 0.2755905511811024,
                    "duration": 1
                },
                {
                    "name": "A3",
                    "midi": 57,
                    "time": 9.000000000000002,
                    "velocity": 0.33858267716535434,
                    "duration": 1
                },
                {
                    "name": "B2",
                    "midi": 47,
                    "time": 10.000000000000002,
                    "velocity": 0.2755905511811024,
                    "duration": 0.1999999999999993
                },
                {
                    "name": "D3",
                    "midi": 50,
                    "time": 10.000000000000002,
                    "velocity": 0.2755905511811024,
                    "duration": 0.1999999999999993
                },
                {
                    "name": "G3",
                    "midi": 55,
                    "time": 10.000000000000002,
                    "velocity": 0.33858267716535434,
                    "duration": 0.1999999999999993
                },
                {
                    "name": "E3",
                    "midi": 52,
                    "time": 10.200000000000001,
                    "velocity": 0.2992125984251969,
                    "duration": 0.40000000000000036
                },
                {
                    "name": "G3",
                    "midi": 55,
                    "time": 10.200000000000001,
                    "velocity": 0.2992125984251969,
                    "duration": 0.40000000000000036
                },
                {
                    "name": "C4",
                    "midi": 60,
                    "time": 10.200000000000001,
                    "velocity": 0.36220472440944884,
                    "duration": 0.40000000000000036
                },
                {
                    "name": "D3",
                    "midi": 50,
                    "time": 10.600000000000001,
                    "velocity": 0.2755905511811024,
                    "duration": 0.1999999999999993
                },
                {
                    "name": "G3",
                    "midi": 55,
                    "time": 10.600000000000001,
                    "velocity": 0.2755905511811024,
                    "duration": 0.1999999999999993
                },
                {
                    "name": "B3",
                    "midi": 59,
                    "time": 10.600000000000001,
                    "velocity": 0.33858267716535434,
                    "duration": 0.1999999999999993
                },
                {
                    "name": "C4",
                    "midi": 60,
                    "time": 10.8,
                    "velocity": 0.3700787401574803,
                    "duration": 1
                },
                {
                    "name": "D4",
                    "midi": 62,
                    "time": 11.8,
                    "velocity": 0.3700787401574803,
                    "duration": 0.1899999999999995
                },
                {
                    "name": "B3",
                    "midi": 59,
                    "time": 11.8,
                    "velocity": 0.30708661417322836,
                    "duration": 0.1899999999999995
                },
                {
                    "name": "D4",
                    "midi": 62,
                    "time": 12,
                    "velocity": 0.3858267716535433,
                    "duration": 0.40000000000000036
                },
                {
                    "name": "B3",
                    "midi": 59,
                    "time": 12,
                    "velocity": 0.31496062992125984,
                    "duration": 0.40000000000000036
                },
                {
                    "name": "D4",
                    "midi": 62,
                    "time": 12.4,
                    "velocity": 0.3779527559055118,
                    "duration": 0.1999999999999993
                },
                {
                    "name": "C4",
                    "midi": 60,
                    "time": 12.4,
                    "velocity": 0.31496062992125984,
                    "duration": 0.1999999999999993
                },
                {
                    "name": "A3",
                    "midi": 57,
                    "time": 12.4,
                    "velocity": 0.31496062992125984,
                    "duration": 0.1999999999999993
                },
                {
                    "name": "G3",
                    "midi": 55,
                    "time": 12.6,
                    "velocity": 0.3464566929133858,
                    "duration": 1
                },
                {
                    "name": "D4",
                    "midi": 62,
                    "time": 12.6,
                    "velocity": 0.4094488188976378,
                    "duration": 1
                },
                {
                    "name": "B3",
                    "midi": 59,
                    "time": 12.6,
                    "velocity": 0.3464566929133858,
                    "duration": 1
                },
                {
                    "name": "G3",
                    "midi": 55,
                    "time": 13.6,
                    "velocity": 0.25984251968503935,
                    "duration": 0.1999999999999993
                },
                {
                    "name": "B3",
                    "midi": 59,
                    "time": 13.6,
                    "velocity": 0.30708661417322836,
                    "duration": 0.1999999999999993
                },
                {
                    "name": "E3",
                    "midi": 52,
                    "time": 13.799999999999999,
                    "velocity": 0.28346456692913385,
                    "duration": 0.40000000000000036
                },
                {
                    "name": "G3",
                    "midi": 55,
                    "time": 13.799999999999999,
                    "velocity": 0.3464566929133858,
                    "duration": 0.40000000000000036
                },
                {
                    "name": "E3",
                    "midi": 52,
                    "time": 14.2,
                    "velocity": 0.2204724409448819,
                    "duration": 0.1999999999999993
                },
                {
                    "name": "G3",
                    "midi": 55,
                    "time": 14.2,
                    "velocity": 0.2677165354330709,
                    "duration": 0.1999999999999993
                },
                {
                    "name": "D3",
                    "midi": 50,
                    "time": 14.399999999999999,
                    "velocity": 0.2283464566929134,
                    "duration": 1
                },
                {
                    "name": "G3",
                    "midi": 55,
                    "time": 14.399999999999999,
                    "velocity": 0.25196850393700787,
                    "duration": 0.5999999999999996
                },
                {
                    "name": "B3",
                    "midi": 59,
                    "time": 14.399999999999999,
                    "velocity": 0.30708661417322836,
                    "duration": 0.5999999999999996
                },
                {
                    "name": "F#3",
                    "midi": 54,
                    "time": 14.999999999999998,
                    "velocity": 0.2125984251968504,
                    "duration": 0.40000000000000036
                },
                {
                    "name": "A3",
                    "midi": 57,
                    "time": 14.999999999999998,
                    "velocity": 0.25196850393700787,
                    "duration": 0.40000000000000036
                },
                {
                    "name": "G2",
                    "midi": 43,
                    "time": 15.599999999999998,
                    "velocity": 0.2755905511811024,
                    "duration": 0.6000000000000014
                },
                {
                    "name": "D3",
                    "midi": 50,
                    "time": 15.599999999999998,
                    "velocity": 0.33858267716535434,
                    "duration": 0.6000000000000014
                },
                {
                    "name": "D2",
                    "midi": 38,
                    "time": 16.2,
                    "velocity": 0.2755905511811024,
                    "duration": 1
                },
                {
                    "name": "D3",
                    "midi": 50,
                    "time": 16.2,
                    "velocity": 0.33858267716535434,
                    "duration": 1
                },
                {
                    "name": "G2",
                    "midi": 43,
                    "time": 17.2,
                    "velocity": 0.30708661417322836,
                    "duration": 0.1999999999999993
                },
                {
                    "name": "D3",
                    "midi": 50,
                    "time": 17.2,
                    "velocity": 0.3858267716535433,
                    "duration": 0.1999999999999993
                },
                {
                    "name": "E3",
                    "midi": 52,
                    "time": 17.4,
                    "velocity": 0.33858267716535434,
                    "duration": 0.3999999999999986
                },
                {
                    "name": "G3",
                    "midi": 55,
                    "time": 17.4,
                    "velocity": 0.33858267716535434,
                    "duration": 0.3999999999999986
                },
                {
                    "name": "D3",
                    "midi": 50,
                    "time": 17.799999999999997,
                    "velocity": 0.30708661417322836,
                    "duration": 0.1999999999999993
                },
                {
                    "name": "G3",
                    "midi": 55,
                    "time": 17.799999999999997,
                    "velocity": 0.30708661417322836,
                    "duration": 0.1999999999999993
                },
                {
                    "name": "C3",
                    "midi": 48,
                    "time": 17.999999999999996,
                    "velocity": 0.36220472440944884,
                    "duration": 1
                },
                {
                    "name": "G3",
                    "midi": 55,
                    "time": 17.999999999999996,
                    "velocity": 0.36220472440944884,
                    "duration": 1
                },
                {
                    "name": "C4",
                    "midi": 60,
                    "time": 17.999999999999996,
                    "velocity": 0.41732283464566927,
                    "duration": 1
                },
                {
                    "name": "B2",
                    "midi": 47,
                    "time": 18.999999999999996,
                    "velocity": 0.3464566929133858,
                    "duration": 0.1999999999999993
                },
                {
                    "name": "B3",
                    "midi": 59,
                    "time": 18.999999999999996,
                    "velocity": 0.41732283464566927,
                    "duration": 0.1999999999999993
                },
                {
                    "name": "G3",
                    "midi": 55,
                    "time": 18.999999999999996,
                    "velocity": 0.3464566929133858,
                    "duration": 0.1999999999999993
                },
                {
                    "name": "E3",
                    "midi": 52,
                    "time": 19.199999999999996,
                    "velocity": 0.36220472440944884,
                    "duration": 0.3999999999999986
                },
                {
                    "name": "D4",
                    "midi": 62,
                    "time": 19.199999999999996,
                    "velocity": 0.4330708661417323,
                    "duration": 0.3999999999999986
                },
                {
                    "name": "G3",
                    "midi": 55,
                    "time": 19.199999999999996,
                    "velocity": 0.36220472440944884,
                    "duration": 0.3999999999999986
                },
                {
                    "name": "C4",
                    "midi": 60,
                    "time": 19.599999999999994,
                    "velocity": 0.4251968503937008,
                    "duration": 0.1999999999999993
                },
                {
                    "name": "G3",
                    "midi": 55,
                    "time": 19.599999999999994,
                    "velocity": 0.36220472440944884,
                    "duration": 0.1999999999999993
                },
                {
                    "name": "E3",
                    "midi": 52,
                    "time": 19.599999999999994,
                    "velocity": 0.36220472440944884,
                    "duration": 0.1999999999999993
                },
                {
                    "name": "D3",
                    "midi": 50,
                    "time": 19.799999999999994,
                    "velocity": 0.3937007874015748,
                    "duration": 1
                },
                {
                    "name": "B3",
                    "midi": 59,
                    "time": 19.799999999999994,
                    "velocity": 0.4645669291338583,
                    "duration": 1
                },
                {
                    "name": "G3",
                    "midi": 55,
                    "time": 19.799999999999994,
                    "velocity": 0.3937007874015748,
                    "duration": 1
                },
                {
                    "name": "D2",
                    "midi": 38,
                    "time": 20.999999999999993,
                    "velocity": 0.25196850393700787,
                    "duration": 0.6000000000000014
                },
                {
                    "name": "D3",
                    "midi": 50,
                    "time": 20.999999999999993,
                    "velocity": 0.30708661417322836,
                    "duration": 1
                },
                {
                    "name": "G2",
                    "midi": 43,
                    "time": 21.599999999999994,
                    "velocity": 0.23622047244094488,
                    "duration": 0.3999999999999986
                },
                {
                    "name": "D3",
                    "midi": 50,
                    "time": 21.999999999999993,
                    "velocity": 0.25196850393700787,
                    "duration": 0.14999999999999858
                },
                {
                    "name": "D3",
                    "midi": 50,
                    "time": 22.199999999999992,
                    "velocity": 0.28346456692913385,
                    "duration": 0.3999999999999986
                },
                {
                    "name": "D3",
                    "midi": 50,
                    "time": 22.59999999999999,
                    "velocity": 0.25984251968503935,
                    "duration": 0.1999999999999993
                },
                {
                    "name": "D3",
                    "midi": 50,
                    "time": 22.79999999999999,
                    "velocity": 0.28346456692913385,
                    "duration": 0.3999999999999986
                },
                {
                    "name": "D3",
                    "midi": 50,
                    "time": 23.19999999999999,
                    "velocity": 0.2677165354330709,
                    "duration": 0.1999999999999993
                },
                {
                    "name": "D2",
                    "midi": 38,
                    "time": 23.399999999999988,
                    "velocity": 0.23622047244094488,
                    "duration": 0.9999999999999964
                },
                {
                    "name": "D3",
                    "midi": 50,
                    "time": 23.399999999999988,
                    "velocity": 0.28346456692913385,
                    "duration": 0.3999999999999986
                },
                {
                    "name": "D3",
                    "midi": 50,
                    "time": 23.799999999999986,
                    "velocity": 0.25984251968503935,
                    "duration": 0.1999999999999993
                },
                {
                    "name": "D3",
                    "midi": 50,
                    "time": 23.999999999999986,
                    "velocity": 0.28346456692913385,
                    "duration": 0.3999999999999986
                },
                {
                    "name": "D2",
                    "midi": 38,
                    "time": 24.399999999999984,
                    "velocity": 0.2125984251968504,
                    "duration": 0.14999999999999858
                },
                {
                    "name": "D3",
                    "midi": 50,
                    "time": 24.399999999999984,
                    "velocity": 0.25984251968503935,
                    "duration": 0.14999999999999858
                },
                {
                    "name": "D2",
                    "midi": 38,
                    "time": 24.599999999999984,
                    "velocity": 0.23622047244094488,
                    "duration": 0.3999999999999986
                },
                {
                    "name": "D3",
                    "midi": 50,
                    "time": 24.599999999999984,
                    "velocity": 0.28346456692913385,
                    "duration": 0.3999999999999986
                },
                {
                    "name": "D2",
                    "midi": 38,
                    "time": 24.999999999999982,
                    "velocity": 0.2125984251968504,
                    "duration": 0.1999999999999993
                },
                {
                    "name": "D3",
                    "midi": 50,
                    "time": 24.999999999999982,
                    "velocity": 0.25984251968503935,
                    "duration": 0.1999999999999993
                },
                {
                    "name": "D2",
                    "midi": 38,
                    "time": 25.19999999999998,
                    "velocity": 0.23622047244094488,
                    "duration": 1
                },
                {
                    "name": "D3",
                    "midi": 50,
                    "time": 25.19999999999998,
                    "velocity": 0.28346456692913385,
                    "duration": 0.3999999999999986
                },
                {
                    "name": "D3",
                    "midi": 50,
                    "time": 25.59999999999998,
                    "velocity": 0.25984251968503935,
                    "duration": 0.1999999999999993
                },
                {
                    "name": "D3",
                    "midi": 50,
                    "time": 25.79999999999998,
                    "velocity": 0.28346456692913385,
                    "duration": 0.40000000000000213
                },
                {
                    "name": "D2",
                    "midi": 38,
                    "time": 26.19999999999998,
                    "velocity": 0.2125984251968504,
                    "duration": 0.14999999999999858
                },
                {
                    "name": "D3",
                    "midi": 50,
                    "time": 26.19999999999998,
                    "velocity": 0.2677165354330709,
                    "duration": 0.14999999999999858
                },
                {
                    "name": "D2",
                    "midi": 38,
                    "time": 26.39999999999998,
                    "velocity": 0.25196850393700787,
                    "duration": 0.3999999999999986
                },
                {
                    "name": "D3",
                    "midi": 50,
                    "time": 26.39999999999998,
                    "velocity": 0.29133858267716534,
                    "duration": 0.3999999999999986
                },
                {
                    "name": "D2",
                    "midi": 38,
                    "time": 26.79999999999998,
                    "velocity": 0.2283464566929134,
                    "duration": 0.1999999999999993
                },
                {
                    "name": "D3",
                    "midi": 50,
                    "time": 26.79999999999998,
                    "velocity": 0.28346456692913385,
                    "duration": 0.1999999999999993
                },
                {
                    "name": "D2",
                    "midi": 38,
                    "time": 26.99999999999998,
                    "velocity": 0.30708661417322836,
                    "duration": 1
                },
                {
                    "name": "D3",
                    "midi": 50,
                    "time": 26.99999999999998,
                    "velocity": 0.36220472440944884,
                    "duration": 0.40000000000000213
                },
                {
                    "name": "D3",
                    "midi": 50,
                    "time": 27.39999999999998,
                    "velocity": 0.31496062992125984,
                    "duration": 0.1999999999999993
                },
                {
                    "name": "D3",
                    "midi": 50,
                    "time": 27.59999999999998,
                    "velocity": 0.36220472440944884,
                    "duration": 0.3999999999999986
                },
                {
                    "name": "D2",
                    "midi": 38,
                    "time": 27.99999999999998,
                    "velocity": 0.2677165354330709,
                    "duration": 0.1999999999999993
                },
                {
                    "name": "D3",
                    "midi": 50,
                    "time": 27.99999999999998,
                    "velocity": 0.3228346456692913,
                    "duration": 0.1999999999999993
                },
                {
                    "name": "E2",
                    "midi": 40,
                    "time": 28.199999999999978,
                    "velocity": 0.2677165354330709,
                    "duration": 0.3999999999999986
                },
                {
                    "name": "E3",
                    "midi": 52,
                    "time": 28.199999999999978,
                    "velocity": 0.31496062992125984,
                    "duration": 0.3999999999999986
                },
                {
                    "name": "E2",
                    "midi": 40,
                    "time": 28.599999999999977,
                    "velocity": 0.2440944881889764,
                    "duration": 0.19000000000000128
                },
                {
                    "name": "E3",
                    "midi": 52,
                    "time": 28.599999999999977,
                    "velocity": 0.29133858267716534,
                    "duration": 0.19000000000000128
                },
                {
                    "name": "E2",
                    "midi": 40,
                    "time": 28.79999999999998,
                    "velocity": 0.2677165354330709,
                    "duration": 0.6000000000000014
                },
                {
                    "name": "E3",
                    "midi": 52,
                    "time": 28.79999999999998,
                    "velocity": 0.31496062992125984,
                    "duration": 1
                },
                {
                    "name": "A2",
                    "midi": 45,
                    "time": 29.39999999999998,
                    "velocity": 0.25196850393700787,
                    "duration": 0.3999999999999986
                },
                {
                    "name": "E3",
                    "midi": 52,
                    "time": 29.79999999999998,
                    "velocity": 0.29133858267716534,
                    "duration": 0.1999999999999993
                },
                {
                    "name": "E3",
                    "midi": 52,
                    "time": 29.99999999999998,
                    "velocity": 0.31496062992125984,
                    "duration": 0.3999999999999986
                },
                {
                    "name": "E3",
                    "midi": 52,
                    "time": 30.399999999999977,
                    "velocity": 0.2992125984251969,
                    "duration": 0.1999999999999993
                },
                {
                    "name": "G2",
                    "midi": 43,
                    "time": 30.599999999999977,
                    "velocity": 0.2677165354330709,
                    "duration": 0.9999999999999964
                },
                {
                    "name": "G3",
                    "midi": 55,
                    "time": 30.599999999999977,
                    "velocity": 0.31496062992125984,
                    "duration": 0.3999999999999986
                },
                {
                    "name": "G3",
                    "midi": 55,
                    "time": 30.999999999999975,
                    "velocity": 0.29133858267716534,
                    "duration": 0.1999999999999993
                },
                {
                    "name": "G3",
                    "midi": 55,
                    "time": 31.199999999999974,
                    "velocity": 0.3228346456692913,
                    "duration": 0.3999999999999986
                },
                {
                    "name": "G2",
                    "midi": 43,
                    "time": 31.599999999999973,
                    "velocity": 0.25196850393700787,
                    "duration": 0.14999999999999858
                },
                {
                    "name": "G3",
                    "midi": 55,
                    "time": 31.599999999999973,
                    "velocity": 0.30708661417322836,
                    "duration": 0.14999999999999858
                },
                {
                    "name": "G2",
                    "midi": 43,
                    "time": 31.799999999999972,
                    "velocity": 0.29133858267716534,
                    "duration": 0.40000000000000213
                },
                {
                    "name": "G3",
                    "midi": 55,
                    "time": 31.799999999999972,
                    "velocity": 0.3464566929133858,
                    "duration": 0.40000000000000213
                },
                {
                    "name": "C3",
                    "midi": 48,
                    "time": 32.199999999999974,
                    "velocity": 0.2755905511811024,
                    "duration": 0.20000000000000284
                },
                {
                    "name": "G3",
                    "midi": 55,
                    "time": 32.199999999999974,
                    "velocity": 0.33070866141732286,
                    "duration": 0.20000000000000284
                },
                {
                    "name": "G2",
                    "midi": 43,
                    "time": 32.39999999999998,
                    "velocity": 0.30708661417322836,
                    "duration": 0.9999999999999929
                },
                {
                    "name": "G3",
                    "midi": 55,
                    "time": 32.39999999999998,
                    "velocity": 0.36220472440944884,
                    "duration": 0.3999999999999986
                },
                {
                    "name": "G3",
                    "midi": 55,
                    "time": 32.799999999999976,
                    "velocity": 0.3464566929133858,
                    "duration": 0.20000000000000284
                },
                {
                    "name": "G3",
                    "midi": 55,
                    "time": 32.99999999999998,
                    "velocity": 0.3858267716535433,
                    "duration": 0.3999999999999915
                },
                {
                    "name": "G2",
                    "midi": 43,
                    "time": 33.39999999999997,
                    "velocity": 0.2992125984251969,
                    "duration": 0.14999999999999858
                },
                {
                    "name": "G3",
                    "midi": 55,
                    "time": 33.39999999999997,
                    "velocity": 0.3779527559055118,
                    "duration": 0.14999999999999858
                },
                {
                    "name": "G2",
                    "midi": 43,
                    "time": 33.599999999999966,
                    "velocity": 0.36220472440944884,
                    "duration": 0.3999999999999986
                },
                {
                    "name": "G3",
                    "midi": 55,
                    "time": 33.599999999999966,
                    "velocity": 0.4251968503937008,
                    "duration": 0.3999999999999986
                },
                {
                    "name": "C3",
                    "midi": 48,
                    "time": 33.999999999999964,
                    "velocity": 0.3464566929133858,
                    "duration": 0.20000000000000284
                },
                {
                    "name": "G3",
                    "midi": 55,
                    "time": 33.999999999999964,
                    "velocity": 0.41732283464566927,
                    "duration": 0.20000000000000284
                },
                {
                    "name": "E4",
                    "midi": 64,
                    "time": 34.19999999999997,
                    "velocity": 0.3937007874015748,
                    "duration": 0.3999999999999986
                },
                {
                    "name": "G4",
                    "midi": 67,
                    "time": 34.19999999999997,
                    "velocity": 0.4645669291338583,
                    "duration": 0.3999999999999986
                },
                {
                    "name": "D4",
                    "midi": 62,
                    "time": 34.599999999999966,
                    "velocity": 0.4094488188976378,
                    "duration": 0.20000000000000284
                },
                {
                    "name": "F#4",
                    "midi": 66,
                    "time": 34.599999999999966,
                    "velocity": 0.47244094488188976,
                    "duration": 0.20000000000000284
                },
                {
                    "name": "E4",
                    "midi": 64,
                    "time": 34.79999999999997,
                    "velocity": 0.4881889763779528,
                    "duration": 0.3999999999999986
                },
                {
                    "name": "C4",
                    "midi": 60,
                    "time": 34.79999999999997,
                    "velocity": 0.4251968503937008,
                    "duration": 0.3999999999999986
                },
                {
                    "name": "B3",
                    "midi": 59,
                    "time": 35.19999999999997,
                    "velocity": 0.3700787401574803,
                    "duration": 0.20000000000000284
                },
                {
                    "name": "D4",
                    "midi": 62,
                    "time": 35.19999999999997,
                    "velocity": 0.4330708661417323,
                    "duration": 0.20000000000000284
                },
                {
                    "name": "C4",
                    "midi": 60,
                    "time": 35.39999999999997,
                    "velocity": 0.4251968503937008,
                    "duration": 0.3999999999999986
                },
                {
                    "name": "A3",
                    "midi": 57,
                    "time": 35.39999999999997,
                    "velocity": 0.36220472440944884,
                    "duration": 0.3999999999999986
                },
                {
                    "name": "C#3",
                    "midi": 49,
                    "time": 35.79999999999997,
                    "velocity": 0.2440944881889764,
                    "duration": 0.20000000000000284
                },
                {
                    "name": "B3",
                    "midi": 59,
                    "time": 35.79999999999997,
                    "velocity": 0.29133858267716534,
                    "duration": 0.20000000000000284
                },
                {
                    "name": "G3",
                    "midi": 55,
                    "time": 35.79999999999997,
                    "velocity": 0.2440944881889764,
                    "duration": 0.20000000000000284
                },
                {
                    "name": "B3",
                    "midi": 59,
                    "time": 35.99999999999997,
                    "velocity": 0.2677165354330709,
                    "duration": 0.6000000000000014
                },
                {
                    "name": "D4",
                    "midi": 62,
                    "time": 35.99999999999997,
                    "velocity": 0.31496062992125984,
                    "duration": 0.6000000000000014
                },
                {
                    "name": "D3",
                    "midi": 50,
                    "time": 35.99999999999997,
                    "velocity": 0.2677165354330709,
                    "duration": 1
                },
                {
                    "name": "A3",
                    "midi": 57,
                    "time": 36.59999999999997,
                    "velocity": 0.25196850393700787,
                    "duration": 0.3999999999999986
                },
                {
                    "name": "F#3",
                    "midi": 54,
                    "time": 36.59999999999997,
                    "velocity": 0.25196850393700787,
                    "duration": 0.3999999999999986
                },
                {
                    "name": "D2",
                    "midi": 38,
                    "time": 38.199999999999974,
                    "velocity": 0.2755905511811024,
                    "duration": 0.20000000000000284
                },
                {
                    "name": "D3",
                    "midi": 50,
                    "time": 38.199999999999974,
                    "velocity": 0.33858267716535434,
                    "duration": 0.20000000000000284
                },
                {
                    "name": "D2",
                    "midi": 38,
                    "time": 38.39999999999998,
                    "velocity": 0.2755905511811024,
                    "duration": 0.6000000000000014
                },
                {
                    "name": "D3",
                    "midi": 50,
                    "time": 38.39999999999998,
                    "velocity": 0.33858267716535434,
                    "duration": 0.6000000000000014
                },
                {
                    "name": "D2",
                    "midi": 38,
                    "time": 38.99999999999998,
                    "velocity": 0.3228346456692913,
                    "duration": 0.6000000000000085
                },
                {
                    "name": "D3",
                    "midi": 50,
                    "time": 38.99999999999998,
                    "velocity": 0.3228346456692913,
                    "duration": 1.000000000000007
                },
                {
                    "name": "C4",
                    "midi": 60,
                    "time": 39.59999999999999,
                    "velocity": 0.4015748031496063,
                    "duration": 1
                },
                {
                    "name": "D3",
                    "midi": 50,
                    "time": 39.999999999999986,
                    "velocity": 0.41732283464566927,
                    "duration": 0.20000000000000284
                },
                {
                    "name": "D3",
                    "midi": 50,
                    "time": 40.19999999999999,
                    "velocity": 0.41732283464566927,
                    "duration": 0.6000000000000014
                },
                {
                    "name": "D4",
                    "midi": 62,
                    "time": 40.59999999999999,
                    "velocity": 0.3700787401574803,
                    "duration": 0.20000000000000284
                },
                {
                    "name": "B3",
                    "midi": 59,
                    "time": 40.59999999999999,
                    "velocity": 0.30708661417322836,
                    "duration": 0.20000000000000284
                },
                {
                    "name": "D3",
                    "midi": 50,
                    "time": 40.79999999999999,
                    "velocity": 0.31496062992125984,
                    "duration": 1
                },
                {
                    "name": "C#4",
                    "midi": 61,
                    "time": 40.79999999999999,
                    "velocity": 0.3858267716535433,
                    "duration": 0.3999999999999986
                },
                {
                    "name": "A#3",
                    "midi": 58,
                    "time": 40.79999999999999,
                    "velocity": 0.31496062992125984,
                    "duration": 0.3999999999999986
                },
                {
                    "name": "C4",
                    "midi": 60,
                    "time": 41.19999999999999,
                    "velocity": 0.3779527559055118,
                    "duration": 0.20000000000000284
                },
                {
                    "name": "A3",
                    "midi": 57,
                    "time": 41.19999999999999,
                    "velocity": 0.31496062992125984,
                    "duration": 0.20000000000000284
                },
                {
                    "name": "B3",
                    "midi": 59,
                    "time": 41.39999999999999,
                    "velocity": 0.4330708661417323,
                    "duration": 1.2000000000000028
                },
                {
                    "name": "G3",
                    "midi": 55,
                    "time": 41.39999999999999,
                    "velocity": 0.4330708661417323,
                    "duration": 1.2000000000000028
                },
                {
                    "name": "D3",
                    "midi": 50,
                    "time": 41.79999999999999,
                    "velocity": 0.4330708661417323,
                    "duration": 0.20000000000000284
                },
                {
                    "name": "D3",
                    "midi": 50,
                    "time": 41.99999999999999,
                    "velocity": 0.4330708661417323,
                    "duration": 0.6000000000000014
                },
                {
                    "name": "D3",
                    "midi": 50,
                    "time": 42.599999999999994,
                    "velocity": 0.2677165354330709,
                    "duration": 0.6000000000000014
                },
                {
                    "name": "E3",
                    "midi": 52,
                    "time": 42.599999999999994,
                    "velocity": 0.2677165354330709,
                    "duration": 0.6000000000000014
                },
                {
                    "name": "G3",
                    "midi": 55,
                    "time": 42.599999999999994,
                    "velocity": 0.2677165354330709,
                    "duration": 0.6000000000000014
                },
                {
                    "name": "A3",
                    "midi": 57,
                    "time": 42.599999999999994,
                    "velocity": 0.3228346456692913,
                    "duration": 0.6000000000000014
                },
                {
                    "name": "D3",
                    "midi": 50,
                    "time": 43.199999999999996,
                    "velocity": 0.2440944881889764,
                    "duration": 1
                },
                {
                    "name": "G3",
                    "midi": 55,
                    "time": 43.199999999999996,
                    "velocity": 0.2677165354330709,
                    "duration": 0.6000000000000014
                },
                {
                    "name": "B3",
                    "midi": 59,
                    "time": 43.199999999999996,
                    "velocity": 0.3228346456692913,
                    "duration": 0.6000000000000014
                },
                {
                    "name": "F#3",
                    "midi": 54,
                    "time": 43.8,
                    "velocity": 0.2204724409448819,
                    "duration": 0.3999999999999986
                },
                {
                    "name": "A3",
                    "midi": 57,
                    "time": 43.8,
                    "velocity": 0.2677165354330709,
                    "duration": 0.3999999999999986
                },
                {
                    "name": "C3",
                    "midi": 48,
                    "time": 44.199999999999996,
                    "velocity": 0.2755905511811024,
                    "duration": 0.20000000000000284
                },
                {
                    "name": "F#3",
                    "midi": 54,
                    "time": 44.199999999999996,
                    "velocity": 0.36220472440944884,
                    "duration": 0.20000000000000284
                },
                {
                    "name": "C3",
                    "midi": 48,
                    "time": 44.4,
                    "velocity": 0.28346456692913385,
                    "duration": 0.3999999999999986
                },
                {
                    "name": "G3",
                    "midi": 55,
                    "time": 44.4,
                    "velocity": 0.3779527559055118,
                    "duration": 0.3999999999999986
                },
                {
                    "name": "C3",
                    "midi": 48,
                    "time": 44.8,
                    "velocity": 0.28346456692913385,
                    "duration": 0.20000000000000284
                },
                {
                    "name": "A3",
                    "midi": 57,
                    "time": 44.8,
                    "velocity": 0.3858267716535433,
                    "duration": 0.20000000000000284
                },
                {
                    "name": "B2",
                    "midi": 47,
                    "time": 45,
                    "velocity": 0.3464566929133858,
                    "duration": 1
                },
                {
                    "name": "C4",
                    "midi": 60,
                    "time": 45,
                    "velocity": 0.3779527559055118,
                    "duration": 0.3999999999999986
                },
                {
                    "name": "B3",
                    "midi": 59,
                    "time": 45.4,
                    "velocity": 0.3464566929133858,
                    "duration": 0.20000000000000284
                },
                {
                    "name": "G3",
                    "midi": 55,
                    "time": 45.6,
                    "velocity": 0.3464566929133858,
                    "duration": 0.3999999999999986
                },
                {
                    "name": "C3",
                    "midi": 48,
                    "time": 46,
                    "velocity": 0.28346456692913385,
                    "duration": 0.20000000000000284
                },
                {
                    "name": "F#3",
                    "midi": 54,
                    "time": 46,
                    "velocity": 0.3779527559055118,
                    "duration": 0.20000000000000284
                },
                {
                    "name": "C3",
                    "midi": 48,
                    "time": 46.2,
                    "velocity": 0.29133858267716534,
                    "duration": 0.3999999999999986
                },
                {
                    "name": "G3",
                    "midi": 55,
                    "time": 46.2,
                    "velocity": 0.3937007874015748,
                    "duration": 0.3999999999999986
                },
                {
                    "name": "C3",
                    "midi": 48,
                    "time": 46.6,
                    "velocity": 0.29133858267716534,
                    "duration": 0.20000000000000284
                },
                {
                    "name": "A3",
                    "midi": 57,
                    "time": 46.6,
                    "velocity": 0.4015748031496063,
                    "duration": 0.20000000000000284
                },
                {
                    "name": "B2",
                    "midi": 47,
                    "time": 46.800000000000004,
                    "velocity": 0.36220472440944884,
                    "duration": 1
                },
                {
                    "name": "C4",
                    "midi": 60,
                    "time": 46.800000000000004,
                    "velocity": 0.3937007874015748,
                    "duration": 0.3999999999999986
                },
                {
                    "name": "B3",
                    "midi": 59,
                    "time": 47.2,
                    "velocity": 0.36220472440944884,
                    "duration": 0.20000000000000284
                },
                {
                    "name": "G3",
                    "midi": 55,
                    "time": 47.400000000000006,
                    "velocity": 0.36220472440944884,
                    "duration": 0.3999999999999986
                },
                {
                    "name": "G3",
                    "midi": 55,
                    "time": 47.800000000000004,
                    "velocity": 0.4015748031496063,
                    "duration": 0.20000000000000284
                },
                {
                    "name": "C3",
                    "midi": 48,
                    "time": 48.00000000000001,
                    "velocity": 0.3464566929133858,
                    "duration": 0.3999999999999986
                },
                {
                    "name": "A3",
                    "midi": 57,
                    "time": 48.00000000000001,
                    "velocity": 0.41732283464566927,
                    "duration": 0.3999999999999986
                },
                {
                    "name": "G3",
                    "midi": 55,
                    "time": 48.00000000000001,
                    "velocity": 0.3464566929133858,
                    "duration": 0.3999999999999986
                },
                {
                    "name": "A3",
                    "midi": 57,
                    "time": 48.400000000000006,
                    "velocity": 0.4094488188976378,
                    "duration": 0.20000000000000284
                },
                {
                    "name": "G3",
                    "midi": 55,
                    "time": 48.400000000000006,
                    "velocity": 0.3464566929133858,
                    "duration": 0.20000000000000284
                },
                {
                    "name": "C3",
                    "midi": 48,
                    "time": 48.400000000000006,
                    "velocity": 0.3464566929133858,
                    "duration": 0.20000000000000284
                },
                {
                    "name": "D3",
                    "midi": 50,
                    "time": 48.60000000000001,
                    "velocity": 0.3779527559055118,
                    "duration": 0.9999999999999929
                },
                {
                    "name": "B3",
                    "midi": 59,
                    "time": 48.60000000000001,
                    "velocity": 0.4409448818897638,
                    "duration": 0.9999999999999929
                },
                {
                    "name": "G3",
                    "midi": 55,
                    "time": 48.60000000000001,
                    "velocity": 0.3779527559055118,
                    "duration": 0.9999999999999929
                },
                {
                    "name": "G3",
                    "midi": 55,
                    "time": 49.6,
                    "velocity": 0.33858267716535434,
                    "duration": 0.20000000000000284
                },
                {
                    "name": "A3",
                    "midi": 57,
                    "time": 49.800000000000004,
                    "velocity": 0.3464566929133858,
                    "duration": 0.20000000000000284
                },
                {
                    "name": "D3",
                    "midi": 50,
                    "time": 49.800000000000004,
                    "velocity": 0.28346456692913385,
                    "duration": 0.6000000000000085
                },
                {
                    "name": "C4",
                    "midi": 60,
                    "time": 50.00000000000001,
                    "velocity": 0.31496062992125984,
                    "duration": 0.20000000000000284
                },
                {
                    "name": "B3",
                    "midi": 59,
                    "time": 50.20000000000001,
                    "velocity": 0.31496062992125984,
                    "duration": 0.20000000000000284
                },
                {
                    "name": "D3",
                    "midi": 50,
                    "time": 50.40000000000001,
                    "velocity": 0.31496062992125984,
                    "duration": 0.6000000000000014
                },
                {
                    "name": "A3",
                    "midi": 57,
                    "time": 50.40000000000001,
                    "velocity": 0.28346456692913385,
                    "duration": 0.6000000000000014
                },
                {
                    "name": "G3",
                    "midi": 55,
                    "time": 51.000000000000014,
                    "velocity": 0.28346456692913385,
                    "duration": 0.3999999999999986
                },
                {
                    "name": "C3",
                    "midi": 48,
                    "time": 51.40000000000001,
                    "velocity": 0.2755905511811024,
                    "duration": 0.18999999999999773
                },
                {
                    "name": "F#3",
                    "midi": 54,
                    "time": 51.40000000000001,
                    "velocity": 0.36220472440944884,
                    "duration": 0.18999999999999773
                },
                {
                    "name": "C3",
                    "midi": 48,
                    "time": 51.60000000000001,
                    "velocity": 0.28346456692913385,
                    "duration": 0.20000000000000284
                },
                {
                    "name": "F#3",
                    "midi": 54,
                    "time": 51.60000000000001,
                    "velocity": 0.3779527559055118,
                    "duration": 0.20000000000000284
                },
                {
                    "name": "C3",
                    "midi": 48,
                    "time": 51.80000000000001,
                    "velocity": 0.28346456692913385,
                    "duration": 0.20000000000000284
                },
                {
                    "name": "G3",
                    "midi": 55,
                    "time": 51.80000000000001,
                    "velocity": 0.3779527559055118,
                    "duration": 0.20000000000000284
                },
                {
                    "name": "C3",
                    "midi": 48,
                    "time": 52.000000000000014,
                    "velocity": 0.28346456692913385,
                    "duration": 0.20000000000000284
                },
                {
                    "name": "A3",
                    "midi": 57,
                    "time": 52.000000000000014,
                    "velocity": 0.3858267716535433,
                    "duration": 0.20000000000000284
                },
                {
                    "name": "B2",
                    "midi": 47,
                    "time": 52.20000000000002,
                    "velocity": 0.36220472440944884,
                    "duration": 0.8000000000000043
                },
                {
                    "name": "C4",
                    "midi": 60,
                    "time": 52.20000000000002,
                    "velocity": 0.3937007874015748,
                    "duration": 0.3999999999999986
                },
                {
                    "name": "B3",
                    "midi": 59,
                    "time": 52.600000000000016,
                    "velocity": 0.36220472440944884,
                    "duration": 0.20000000000000284
                },
                {
                    "name": "G3",
                    "midi": 55,
                    "time": 52.80000000000002,
                    "velocity": 0.36220472440944884,
                    "duration": 0.20000000000000284
                },
                {
                    "name": "C3",
                    "midi": 48,
                    "time": 53.00000000000002,
                    "velocity": 0.25984251968503935,
                    "duration": 0.20000000000000284
                },
                {
                    "name": "F#3",
                    "midi": 54,
                    "time": 53.00000000000002,
                    "velocity": 0.3779527559055118,
                    "duration": 0.20000000000000284
                },
                {
                    "name": "C3",
                    "midi": 48,
                    "time": 53.200000000000024,
                    "velocity": 0.2677165354330709,
                    "duration": 0.20000000000000284
                },
                {
                    "name": "F3",
                    "midi": 53,
                    "time": 53.200000000000024,
                    "velocity": 0.3937007874015748,
                    "duration": 0.20000000000000284
                },
                {
                    "name": "C3",
                    "midi": 48,
                    "time": 53.40000000000003,
                    "velocity": 0.2992125984251969,
                    "duration": 0.20000000000000284
                },
                {
                    "name": "F#3",
                    "midi": 54,
                    "time": 53.40000000000003,
                    "velocity": 0.4094488188976378,
                    "duration": 0.20000000000000284
                },
                {
                    "name": "C3",
                    "midi": 48,
                    "time": 53.60000000000003,
                    "velocity": 0.2992125984251969,
                    "duration": 0.20000000000000284
                },
                {
                    "name": "G3",
                    "midi": 55,
                    "time": 53.60000000000003,
                    "velocity": 0.4094488188976378,
                    "duration": 0.20000000000000284
                },
                {
                    "name": "C3",
                    "midi": 48,
                    "time": 53.80000000000003,
                    "velocity": 0.2992125984251969,
                    "duration": 0.20000000000000284
                },
                {
                    "name": "A3",
                    "midi": 57,
                    "time": 53.80000000000003,
                    "velocity": 0.41732283464566927,
                    "duration": 0.20000000000000284
                },
                {
                    "name": "B2",
                    "midi": 47,
                    "time": 54.000000000000036,
                    "velocity": 0.3779527559055118,
                    "duration": 1
                },
                {
                    "name": "C4",
                    "midi": 60,
                    "time": 54.000000000000036,
                    "velocity": 0.3937007874015748,
                    "duration": 0.3999999999999986
                },
                {
                    "name": "B3",
                    "midi": 59,
                    "time": 54.400000000000034,
                    "velocity": 0.3779527559055118,
                    "duration": 0.20000000000000284
                },
                {
                    "name": "G3",
                    "midi": 55,
                    "time": 54.60000000000004,
                    "velocity": 0.3779527559055118,
                    "duration": 0.3999999999999986
                },
                {
                    "name": "C#3",
                    "midi": 49,
                    "time": 55.000000000000036,
                    "velocity": 0.3464566929133858,
                    "duration": 0.20000000000000284
                },
                {
                    "name": "G3",
                    "midi": 55,
                    "time": 55.000000000000036,
                    "velocity": 0.3464566929133858,
                    "duration": 0.20000000000000284
                },
                {
                    "name": "A3",
                    "midi": 57,
                    "time": 55.000000000000036,
                    "velocity": 0.4015748031496063,
                    "duration": 0.20000000000000284
                },
                {
                    "name": "C#3",
                    "midi": 49,
                    "time": 55.20000000000004,
                    "velocity": 0.3464566929133858,
                    "duration": 0.3999999999999986
                },
                {
                    "name": "A3",
                    "midi": 57,
                    "time": 55.20000000000004,
                    "velocity": 0.41732283464566927,
                    "duration": 0.3999999999999986
                },
                {
                    "name": "G3",
                    "midi": 55,
                    "time": 55.20000000000004,
                    "velocity": 0.3464566929133858,
                    "duration": 0.3999999999999986
                },
                {
                    "name": "A3",
                    "midi": 57,
                    "time": 55.60000000000004,
                    "velocity": 0.4094488188976378,
                    "duration": 0.20000000000000284
                },
                {
                    "name": "G3",
                    "midi": 55,
                    "time": 55.60000000000004,
                    "velocity": 0.3464566929133858,
                    "duration": 0.20000000000000284
                },
                {
                    "name": "C#3",
                    "midi": 49,
                    "time": 55.60000000000004,
                    "velocity": 0.3464566929133858,
                    "duration": 0.20000000000000284
                },
                {
                    "name": "D3",
                    "midi": 50,
                    "time": 55.80000000000004,
                    "velocity": 0.3779527559055118,
                    "duration": 0.9999999999999929
                },
                {
                    "name": "B3",
                    "midi": 59,
                    "time": 55.80000000000004,
                    "velocity": 0.4409448818897638,
                    "duration": 0.9999999999999929
                },
                {
                    "name": "G3",
                    "midi": 55,
                    "time": 55.80000000000004,
                    "velocity": 0.3779527559055118,
                    "duration": 0.9999999999999929
                },
                {
                    "name": "G4",
                    "midi": 67,
                    "time": 58.00000000000003,
                    "velocity": 0.47244094488188976,
                    "duration": 0.20000000000000284
                },
                {
                    "name": "E4",
                    "midi": 64,
                    "time": 58.20000000000003,
                    "velocity": 0.47244094488188976,
                    "duration": 0.3999999999999986
                },
                {
                    "name": "D4",
                    "midi": 62,
                    "time": 58.60000000000003,
                    "velocity": 0.44881889763779526,
                    "duration": 0.20000000000000284
                },
                {
                    "name": "C#4",
                    "midi": 61,
                    "time": 58.80000000000003,
                    "velocity": 0.44881889763779526,
                    "duration": 0.3999999999999986
                },
                {
                    "name": "C#4",
                    "midi": 61,
                    "time": 59.20000000000003,
                    "velocity": 0.44881889763779526,
                    "duration": 0.18999999999999773
                },
                {
                    "name": "E4",
                    "midi": 64,
                    "time": 59.20000000000003,
                    "velocity": 0.44881889763779526,
                    "duration": 0.18999999999999773
                },
                {
                    "name": "G4",
                    "midi": 67,
                    "time": 59.20000000000003,
                    "velocity": 0.44881889763779526,
                    "duration": 0.18999999999999773
                },
                {
                    "name": "C#4",
                    "midi": 61,
                    "time": 59.40000000000003,
                    "velocity": 0.41732283464566927,
                    "duration": 1
                },
                {
                    "name": "E4",
                    "midi": 64,
                    "time": 59.40000000000003,
                    "velocity": 0.41732283464566927,
                    "duration": 1
                },
                {
                    "name": "G4",
                    "midi": 67,
                    "time": 59.40000000000003,
                    "velocity": 0.41732283464566927,
                    "duration": 1
                },
                {
                    "name": "D3",
                    "midi": 50,
                    "time": 60.60000000000002,
                    "velocity": 0.2677165354330709,
                    "duration": 0.3999999999999986
                },
                {
                    "name": "A3",
                    "midi": 57,
                    "time": 60.60000000000002,
                    "velocity": 0.31496062992125984,
                    "duration": 0.3999999999999986
                },
                {
                    "name": "D3",
                    "midi": 50,
                    "time": 61.00000000000002,
                    "velocity": 0.2677165354330709,
                    "duration": 0.20000000000000284
                },
                {
                    "name": "D4",
                    "midi": 62,
                    "time": 61.00000000000002,
                    "velocity": 0.31496062992125984,
                    "duration": 0.20000000000000284
                },
                {
                    "name": "D3",
                    "midi": 50,
                    "time": 61.200000000000024,
                    "velocity": 0.2440944881889764,
                    "duration": 1.000000000000007
                },
                {
                    "name": "C4",
                    "midi": 60,
                    "time": 61.200000000000024,
                    "velocity": 0.29133858267716534,
                    "duration": 1.000000000000007
                },
                {
                    "name": "G1",
                    "midi": 31,
                    "time": 62.400000000000034,
                    "velocity": 0.2677165354330709,
                    "duration": 0.3999999999999986
                },
                {
                    "name": "G2",
                    "midi": 43,
                    "time": 62.400000000000034,
                    "velocity": 0.31496062992125984,
                    "duration": 0.3999999999999986
                },
                {
                    "name": "G1",
                    "midi": 31,
                    "time": 63.000000000000036,
                    "velocity": 0.2755905511811024,
                    "duration": 0.9999999999999929
                },
                {
                    "name": "G2",
                    "midi": 43,
                    "time": 63.000000000000036,
                    "velocity": 0.33070866141732286,
                    "duration": 0.9999999999999929
                },
                {
                    "name": "G1",
                    "midi": 31,
                    "time": 64.20000000000003,
                    "velocity": 0.29133858267716534,
                    "duration": 0.4000000000000057
                },
                {
                    "name": "G2",
                    "midi": 43,
                    "time": 64.20000000000003,
                    "velocity": 0.3464566929133858,
                    "duration": 0.4000000000000057
                },
                {
                    "name": "D2",
                    "midi": 38,
                    "time": 64.80000000000004,
                    "velocity": 0.4094488188976378,
                    "duration": 1
                },
                {
                    "name": "D4",
                    "midi": 62,
                    "time": 65.80000000000004,
                    "velocity": 0.3543307086614173,
                    "duration": 0.20000000000000284
                },
                {
                    "name": "B4",
                    "midi": 71,
                    "time": 65.80000000000004,
                    "velocity": 0.41732283464566927,
                    "duration": 0.20000000000000284
                },
                {
                    "name": "D4",
                    "midi": 62,
                    "time": 66.00000000000004,
                    "velocity": 0.3700787401574803,
                    "duration": 0.20000000000000284
                },
                {
                    "name": "B4",
                    "midi": 71,
                    "time": 66.00000000000004,
                    "velocity": 0.4409448818897638,
                    "duration": 0.20000000000000284
                },
                {
                    "name": "G4",
                    "midi": 67,
                    "time": 66.20000000000005,
                    "velocity": 0.4094488188976378,
                    "duration": 0.20000000000000284
                },
                {
                    "name": "D4",
                    "midi": 62,
                    "time": 66.40000000000005,
                    "velocity": 0.4094488188976378,
                    "duration": 0.18999999999999773
                },
                {
                    "name": "D3",
                    "midi": 50,
                    "time": 66.60000000000005,
                    "velocity": 0.3937007874015748,
                    "duration": 0.20000000000000284
                },
                {
                    "name": "D4",
                    "midi": 62,
                    "time": 66.60000000000005,
                    "velocity": 0.44881889763779526,
                    "duration": 0.20000000000000284
                },
                {
                    "name": "B3",
                    "midi": 59,
                    "time": 66.80000000000005,
                    "velocity": 0.4015748031496063,
                    "duration": 0.20000000000000284
                },
                {
                    "name": "G3",
                    "midi": 55,
                    "time": 67.00000000000006,
                    "velocity": 0.4015748031496063,
                    "duration": 0.20000000000000284
                },
                {
                    "name": "B3",
                    "midi": 59,
                    "time": 67.20000000000006,
                    "velocity": 0.4251968503937008,
                    "duration": 0.5999999999999943
                },
                {
                    "name": "D2",
                    "midi": 38,
                    "time": 67.80000000000005,
                    "velocity": 0.25196850393700787,
                    "duration": 0.4000000000000057
                },
                {
                    "name": "D3",
                    "midi": 50,
                    "time": 67.80000000000005,
                    "velocity": 0.2992125984251969,
                    "duration": 0.4000000000000057
                },
                {
                    "name": "G1",
                    "midi": 31,
                    "time": 68.40000000000006,
                    "velocity": 0.23622047244094488,
                    "duration": 1
                },
                {
                    "name": "G2",
                    "midi": 43,
                    "time": 68.40000000000006,
                    "velocity": 0.28346456692913385,
                    "duration": 1
                }
            ],
            "controlChanges": {
                "7": [
                    {
                        "number": 7,
                        "time": 0,
                        "value": 1
                    }
                ],
                "10": [
                    {
                        "number": 10,
                        "time": 0,
                        "value": 0.5039370078740157
                    }
                ],
                "64": [
                    {
                        "number": 64,
                        "time": 0,
                        "value": 0
                    },
                    {
                        "number": 64,
                        "time": 1.211666666666667,
                        "value": 1
                    },
                    {
                        "number": 64,
                        "time": 6.608333333333335,
                        "value": 0
                    },
                    {
                        "number": 64,
                        "time": 6.717500000000002,
                        "value": 1
                    },
                    {
                        "number": 64,
                        "time": 7.206666666666669,
                        "value": 0
                    },
                    {
                        "number": 64,
                        "time": 7.388333333333335,
                        "value": 1
                    },
                    {
                        "number": 64,
                        "time": 8.082500000000003,
                        "value": 0
                    },
                    {
                        "number": 64,
                        "time": 8.423333333333336,
                        "value": 1
                    },
                    {
                        "number": 64,
                        "time": 8.808333333333335,
                        "value": 0
                    },
                    {
                        "number": 64,
                        "time": 10.2825,
                        "value": 1
                    },
                    {
                        "number": 64,
                        "time": 10.608333333333334,
                        "value": 0
                    },
                    {
                        "number": 64,
                        "time": 11.926666666666668,
                        "value": 1
                    },
                    {
                        "number": 64,
                        "time": 12.603333333333333,
                        "value": 0
                    },
                    {
                        "number": 64,
                        "time": 12.729166666666666,
                        "value": 1
                    },
                    {
                        "number": 64,
                        "time": 13.608333333333333,
                        "value": 0
                    },
                    {
                        "number": 64,
                        "time": 15.623333333333331,
                        "value": 1
                    },
                    {
                        "number": 64,
                        "time": 16.008333333333333,
                        "value": 0
                    },
                    {
                        "number": 64,
                        "time": 17.482499999999998,
                        "value": 1
                    },
                    {
                        "number": 64,
                        "time": 17.80833333333333,
                        "value": 0
                    },
                    {
                        "number": 64,
                        "time": 19.12666666666666,
                        "value": 1
                    },
                    {
                        "number": 64,
                        "time": 19.803333333333327,
                        "value": 0
                    },
                    {
                        "number": 64,
                        "time": 19.92916666666666,
                        "value": 1
                    },
                    {
                        "number": 64,
                        "time": 20.808333333333326,
                        "value": 0
                    },
                    {
                        "number": 64,
                        "time": 21.714999999999993,
                        "value": 1
                    },
                    {
                        "number": 64,
                        "time": 21.999999999999993,
                        "value": 0
                    },
                    {
                        "number": 64,
                        "time": 22.940833333333323,
                        "value": 1
                    },
                    {
                        "number": 64,
                        "time": 23.404999999999987,
                        "value": 0
                    },
                    {
                        "number": 64,
                        "time": 23.517499999999988,
                        "value": 1
                    },
                    {
                        "number": 64,
                        "time": 24.00833333333332,
                        "value": 0
                    },
                    {
                        "number": 64,
                        "time": 24.117499999999986,
                        "value": 1
                    },
                    {
                        "number": 64,
                        "time": 24.399999999999984,
                        "value": 0
                    },
                    {
                        "number": 64,
                        "time": 25.285833333333315,
                        "value": 1
                    },
                    {
                        "number": 64,
                        "time": 25.808333333333312,
                        "value": 0
                    },
                    {
                        "number": 64,
                        "time": 25.929166666666646,
                        "value": 1
                    },
                    {
                        "number": 64,
                        "time": 26.14999999999998,
                        "value": 0
                    },
                    {
                        "number": 64,
                        "time": 27.041666666666647,
                        "value": 1
                    },
                    {
                        "number": 64,
                        "time": 27.608333333333313,
                        "value": 0
                    },
                    {
                        "number": 64,
                        "time": 27.74499999999998,
                        "value": 1
                    },
                    {
                        "number": 64,
                        "time": 28.20833333333331,
                        "value": 0
                    },
                    {
                        "number": 64,
                        "time": 30.00833333333331,
                        "value": 0
                    },
                    {
                        "number": 64,
                        "time": 30.140833333333312,
                        "value": 1
                    },
                    {
                        "number": 64,
                        "time": 30.604999999999976,
                        "value": 0
                    },
                    {
                        "number": 64,
                        "time": 30.717499999999976,
                        "value": 1
                    },
                    {
                        "number": 64,
                        "time": 31.208333333333307,
                        "value": 0
                    },
                    {
                        "number": 64,
                        "time": 31.317499999999974,
                        "value": 1
                    },
                    {
                        "number": 64,
                        "time": 31.599999999999973,
                        "value": 0
                    },
                    {
                        "number": 64,
                        "time": 32.434999999999974,
                        "value": 1
                    },
                    {
                        "number": 64,
                        "time": 33.00833333333331,
                        "value": 0
                    },
                    {
                        "number": 64,
                        "time": 33.12916666666664,
                        "value": 1
                    },
                    {
                        "number": 64,
                        "time": 33.38833333333331,
                        "value": 0
                    },
                    {
                        "number": 64,
                        "time": 34.24166666666663,
                        "value": 1
                    },
                    {
                        "number": 64,
                        "time": 34.8083333333333,
                        "value": 0
                    },
                    {
                        "number": 64,
                        "time": 34.944999999999965,
                        "value": 1
                    },
                    {
                        "number": 64,
                        "time": 35.4083333333333,
                        "value": 0
                    },
                    {
                        "number": 64,
                        "time": 37.32666666666664,
                        "value": 1
                    },
                    {
                        "number": 64,
                        "time": 37.608333333333306,
                        "value": 0
                    },
                    {
                        "number": 64,
                        "time": 39.08249999999998,
                        "value": 1
                    },
                    {
                        "number": 64,
                        "time": 39.40833333333332,
                        "value": 0
                    },
                    {
                        "number": 64,
                        "time": 40.99083333333332,
                        "value": 1
                    },
                    {
                        "number": 64,
                        "time": 41.40333333333332,
                        "value": 0
                    },
                    {
                        "number": 64,
                        "time": 41.529166666666654,
                        "value": 1
                    },
                    {
                        "number": 64,
                        "time": 42.408333333333324,
                        "value": 0
                    },
                    {
                        "number": 64,
                        "time": 44.40833333333333,
                        "value": 0
                    },
                    {
                        "number": 64,
                        "time": 44.54083333333333,
                        "value": 1
                    },
                    {
                        "number": 64,
                        "time": 45.005,
                        "value": 0
                    },
                    {
                        "number": 64,
                        "time": 45.1175,
                        "value": 1
                    },
                    {
                        "number": 64,
                        "time": 45.608333333333334,
                        "value": 0
                    },
                    {
                        "number": 64,
                        "time": 46.340833333333336,
                        "value": 1
                    },
                    {
                        "number": 64,
                        "time": 46.80833333333334,
                        "value": 0
                    },
                    {
                        "number": 64,
                        "time": 46.917500000000004,
                        "value": 1
                    },
                    {
                        "number": 64,
                        "time": 47.40833333333334,
                        "value": 0
                    },
                    {
                        "number": 64,
                        "time": 48.06333333333334,
                        "value": 1
                    },
                    {
                        "number": 64,
                        "time": 48.60333333333334,
                        "value": 0
                    },
                    {
                        "number": 64,
                        "time": 48.72916666666667,
                        "value": 1
                    },
                    {
                        "number": 64,
                        "time": 49.608333333333334,
                        "value": 0
                    },
                    {
                        "number": 64,
                        "time": 51.60833333333334,
                        "value": 0
                    },
                    {
                        "number": 64,
                        "time": 51.74083333333334,
                        "value": 1
                    },
                    {
                        "number": 64,
                        "time": 52.20583333333335,
                        "value": 0
                    },
                    {
                        "number": 64,
                        "time": 52.31750000000002,
                        "value": 1
                    },
                    {
                        "number": 64,
                        "time": 52.80833333333335,
                        "value": 0
                    },
                    {
                        "number": 64,
                        "time": 53.54083333333336,
                        "value": 1
                    },
                    {
                        "number": 64,
                        "time": 54.0066666666667,
                        "value": 0
                    },
                    {
                        "number": 64,
                        "time": 54.117500000000035,
                        "value": 1
                    },
                    {
                        "number": 64,
                        "time": 54.60833333333337,
                        "value": 0
                    },
                    {
                        "number": 64,
                        "time": 55.26333333333337,
                        "value": 1
                    },
                    {
                        "number": 64,
                        "time": 55.80333333333337,
                        "value": 0
                    },
                    {
                        "number": 64,
                        "time": 55.9291666666667,
                        "value": 1
                    },
                    {
                        "number": 64,
                        "time": 56.808333333333366,
                        "value": 0
                    },
                    {
                        "number": 64,
                        "time": 56.940833333333366,
                        "value": 1
                    },
                    {
                        "number": 64,
                        "time": 57.6066666666667,
                        "value": 0
                    },
                    {
                        "number": 64,
                        "time": 57.71750000000003,
                        "value": 1
                    },
                    {
                        "number": 64,
                        "time": 58.208333333333364,
                        "value": 0
                    },
                    {
                        "number": 64,
                        "time": 58.388333333333364,
                        "value": 1
                    },
                    {
                        "number": 64,
                        "time": 58.80583333333337,
                        "value": 0
                    },
                    {
                        "number": 64,
                        "time": 58.91750000000003,
                        "value": 1
                    },
                    {
                        "number": 64,
                        "time": 59.40333333333336,
                        "value": 0
                    },
                    {
                        "number": 64,
                        "time": 59.54083333333336,
                        "value": 1
                    },
                    {
                        "number": 64,
                        "time": 60.34083333333336,
                        "value": 0
                    },
                    {
                        "number": 64,
                        "time": 60.58833333333336,
                        "value": 1
                    },
                    {
                        "number": 64,
                        "time": 61.20833333333336,
                        "value": 0
                    },
                    {
                        "number": 64,
                        "time": 61.35333333333336,
                        "value": 1
                    },
                    {
                        "number": 64,
                        "time": 62.11750000000003,
                        "value": 0
                    },
                    {
                        "number": 64,
                        "time": 62.4116666666667,
                        "value": 1
                    },
                    {
                        "number": 64,
                        "time": 67.8083333333334,
                        "value": 0
                    },
                    {
                        "number": 64,
                        "time": 67.91750000000006,
                        "value": 1
                    },
                    {
                        "number": 64,
                        "time": 68.40416666666673,
                        "value": 0
                    },
                    {
                        "number": 64,
                        "time": 68.68250000000006,
                        "value": 1
                    },
                    {
                        "number": 64,
                        "time": 70.20000000000006,
                        "value": 0
                    }
                ]
            },
            "id": 2,
            "name": "Piano left",
            "instrumentNumber": 0,
            "instrument": "acoustic grand piano",
            "instrumentFamily": "piano",
            "channelNumber": 0,
            "isPercussion": false
        },
        {
            "startTime": 0,
            "duration": 0,
            "length": 0,
            "notes": [],
            "controlChanges": {},
            "id": 3,
            "name": "Mendelssohn: Songs without Words, Op. 62 No. 4"
        },
        {
            "startTime": 0,
            "duration": 0,
            "length": 0,
            "notes": [],
            "controlChanges": {},
            "id": 4,
            "name": "Copyright  2004 by Bernd Krger"
        },
        {
            "startTime": 0,
            "duration": 0,
            "length": 0,
            "notes": [],
            "controlChanges": {},
            "id": 5,
            "name": "http://www.piano-midi.de"
        },
        {
            "startTime": 0,
            "duration": 0,
            "length": 0,
            "notes": [],
            "controlChanges": {},
            "id": 6,
            "name": "Edition: 2014-04-03"
        },
        {
            "startTime": 0,
            "duration": 0,
            "length": 0,
            "notes": [],
            "controlChanges": {},
            "id": 7,
            "name": "Spur 7"
        }
    ]
}