{
    "header": {
        "PPQ": 480,
        "timeSignature": [
            4,
            4
        ],
        "bpm": 64.74999487395874,
        "name": "Lieder ohne Worte Op. 30 No. 1"
    },
    "startTime": 0,
    "duration": 252.046352,
    "tracks": [
        {
            "startTime": 0,
            "duration": 0,
            "length": 0,
            "notes": [],
            "controlChanges": {},
            "id": 0,
            "name": "Lieder ohne Worte Op. 30 No. 1"
        },
        {
            "startTime": 2.7799229999999997,
            "duration": 252.046352,
            "length": 420,
            "notes": [
                {
                    "name": "D#4",
                    "midi": 63,
                    "time": 2.7799229999999997,
                    "velocity": 0.4015748031496063,
                    "duration": 0.926641
                },
                {
                    "name": "G4",
                    "midi": 67,
                    "time": 3.7065639999999997,
                    "velocity": 0.4409448818897638,
                    "duration": 1.3899614999999996
                },
                {
                    "name": "G#4",
                    "midi": 68,
                    "time": 5.096525499999999,
                    "velocity": 0.3937007874015748,
                    "duration": 0.4633205
                },
                {
                    "name": "A#4",
                    "midi": 70,
                    "time": 5.559845999999999,
                    "velocity": 0.4881889763779528,
                    "duration": 0.926641
                },
                {
                    "name": "D#4",
                    "midi": 63,
                    "time": 6.4864869999999994,
                    "velocity": 0.4094488188976378,
                    "duration": 0.926641
                },
                {
                    "name": "G#4",
                    "midi": 68,
                    "time": 7.4131279999999995,
                    "velocity": 0.4409448818897638,
                    "duration": 0.9266409999999992
                },
                {
                    "name": "D4",
                    "midi": 62,
                    "time": 8.339768999999999,
                    "velocity": 0.31496062992125984,
                    "duration": 0.926641
                },
                {
                    "name": "D#4",
                    "midi": 63,
                    "time": 9.266409999999999,
                    "velocity": 0.4881889763779528,
                    "duration": 1.3899615
                },
                {
                    "name": "D4",
                    "midi": 62,
                    "time": 10.656371499999999,
                    "velocity": 0.4566929133858268,
                    "duration": 0.4633205
                },
                {
                    "name": "C4",
                    "midi": 60,
                    "time": 11.119691999999999,
                    "velocity": 0.5039370078740157,
                    "duration": 1.3899615
                },
                {
                    "name": "F4",
                    "midi": 65,
                    "time": 12.509653499999999,
                    "velocity": 0.4645669291338583,
                    "duration": 0.4633205
                },
                {
                    "name": "G#4",
                    "midi": 68,
                    "time": 12.972973999999999,
                    "velocity": 0.49606299212598426,
                    "duration": 1.3899615
                },
                {
                    "name": "F4",
                    "midi": 65,
                    "time": 14.362935499999999,
                    "velocity": 0.5196850393700787,
                    "duration": 0.4633205
                },
                {
                    "name": "D#5",
                    "midi": 75,
                    "time": 14.826255999999999,
                    "velocity": 0.5984251968503937,
                    "duration": 0.926641
                },
                {
                    "name": "D5",
                    "midi": 74,
                    "time": 15.752896999999999,
                    "velocity": 0.5511811023622047,
                    "duration": 1.3899615
                },
                {
                    "name": "C5",
                    "midi": 72,
                    "time": 17.1428585,
                    "velocity": 0.41732283464566927,
                    "duration": 0.46332049999999825
                },
                {
                    "name": "A#4",
                    "midi": 70,
                    "time": 17.606178999999997,
                    "velocity": 0.4015748031496063,
                    "duration": 0.46332049999999825
                },
                {
                    "name": "G#4",
                    "midi": 68,
                    "time": 18.069499499999996,
                    "velocity": 0.36220472440944884,
                    "duration": 0.46332049999999825
                },
                {
                    "name": "G4",
                    "midi": 67,
                    "time": 18.532819999999994,
                    "velocity": 0.4094488188976378,
                    "duration": 1.3899614999999983
                },
                {
                    "name": "G#4",
                    "midi": 68,
                    "time": 19.922781499999992,
                    "velocity": 0.4015748031496063,
                    "duration": 0.46332049999999825
                },
                {
                    "name": "A#4",
                    "midi": 70,
                    "time": 20.38610199999999,
                    "velocity": 0.4409448818897638,
                    "duration": 0.926641
                },
                {
                    "name": "D#4",
                    "midi": 63,
                    "time": 21.31274299999999,
                    "velocity": 0.4094488188976378,
                    "duration": 0.926641
                },
                {
                    "name": "G#4",
                    "midi": 68,
                    "time": 22.23938399999999,
                    "velocity": 0.4409448818897638,
                    "duration": 0.926641
                },
                {
                    "name": "D4",
                    "midi": 62,
                    "time": 23.16602499999999,
                    "velocity": 0.33070866141732286,
                    "duration": 0.926641
                },
                {
                    "name": "D#4",
                    "midi": 63,
                    "time": 24.09266599999999,
                    "velocity": 0.4881889763779528,
                    "duration": 1.3899614999999983
                },
                {
                    "name": "D#4",
                    "midi": 63,
                    "time": 25.48262749999999,
                    "velocity": 0.4566929133858268,
                    "duration": 0.46332049999999825
                },
                {
                    "name": "F4",
                    "midi": 65,
                    "time": 25.945947999999987,
                    "velocity": 0.5039370078740157,
                    "duration": 1.2355213333333346
                },
                {
                    "name": "D#4",
                    "midi": 63,
                    "time": 27.18146933333332,
                    "velocity": 0.47244094488188976,
                    "duration": 0.30888033333333453
                },
                {
                    "name": "D4",
                    "midi": 62,
                    "time": 27.490349666666656,
                    "velocity": 0.4566929133858268,
                    "duration": 0.30888033333333453
                },
                {
                    "name": "C4",
                    "midi": 60,
                    "time": 27.79922999999999,
                    "velocity": 0.49606299212598426,
                    "duration": 0.46332049999999825
                },
                {
                    "name": "D#4",
                    "midi": 63,
                    "time": 28.26255049999999,
                    "velocity": 0.47244094488188976,
                    "duration": 0.46332049999999825
                },
                {
                    "name": "G4",
                    "midi": 67,
                    "time": 28.725870999999987,
                    "velocity": 0.5196850393700787,
                    "duration": 0.46332049999999825
                },
                {
                    "name": "C5",
                    "midi": 72,
                    "time": 29.189191499999986,
                    "velocity": 0.5590551181102362,
                    "duration": 0.46332049999999825
                },
                {
                    "name": "F5",
                    "midi": 77,
                    "time": 29.652511999999984,
                    "velocity": 0.5984251968503937,
                    "duration": 1.2355213333333346
                },
                {
                    "name": "D#5",
                    "midi": 75,
                    "time": 30.88803333333332,
                    "velocity": 0.5118110236220472,
                    "duration": 0.30888033333333453
                },
                {
                    "name": "D5",
                    "midi": 74,
                    "time": 31.196913666666653,
                    "velocity": 0.4881889763779528,
                    "duration": 0.30888033333333453
                },
                {
                    "name": "C5",
                    "midi": 72,
                    "time": 31.505793999999987,
                    "velocity": 0.49606299212598426,
                    "duration": 0.46332049999999825
                },
                {
                    "name": "G4",
                    "midi": 67,
                    "time": 31.969114499999986,
                    "velocity": 0.4251968503937008,
                    "duration": 0.46332049999999825
                },
                {
                    "name": "A4",
                    "midi": 69,
                    "time": 32.432434999999984,
                    "velocity": 0.44881889763779526,
                    "duration": 0.4633205000000018
                },
                {
                    "name": "A#4",
                    "midi": 70,
                    "time": 32.895755499999986,
                    "velocity": 0.4251968503937008,
                    "duration": 0.4633205000000018
                },
                {
                    "name": "A#4",
                    "midi": 70,
                    "time": 33.35907599999999,
                    "velocity": 0.4409448818897638,
                    "duration": 0.9266409999999965
                },
                {
                    "name": "F4",
                    "midi": 65,
                    "time": 34.285716999999984,
                    "velocity": 0.3858267716535433,
                    "duration": 0.9266409999999965
                },
                {
                    "name": "F4",
                    "midi": 65,
                    "time": 35.21235799999998,
                    "velocity": 0.4409448818897638,
                    "duration": 0.9266409999999965
                },
                {
                    "name": "F4",
                    "midi": 65,
                    "time": 36.13899899999998,
                    "velocity": 0.4251968503937008,
                    "duration": 0.9266409999999965
                },
                {
                    "name": "C5",
                    "midi": 72,
                    "time": 37.06563999999997,
                    "velocity": 0.4645669291338583,
                    "duration": 1.853282
                },
                {
                    "name": "A#4",
                    "midi": 70,
                    "time": 38.918921999999974,
                    "velocity": 0.4409448818897638,
                    "duration": 1.853282
                },
                {
                    "name": "A#3",
                    "midi": 58,
                    "time": 43.55212699999997,
                    "velocity": 0.28346456692913385,
                    "duration": 0.9266409999999965
                },
                {
                    "name": "G4",
                    "midi": 67,
                    "time": 44.47876799999997,
                    "velocity": 0.4409448818897638,
                    "duration": 1.3899614999999983
                },
                {
                    "name": "G#4",
                    "midi": 68,
                    "time": 45.868729499999965,
                    "velocity": 0.3937007874015748,
                    "duration": 0.4633205000000018
                },
                {
                    "name": "A#4",
                    "midi": 70,
                    "time": 46.33204999999997,
                    "velocity": 0.4881889763779528,
                    "duration": 0.9266409999999965
                },
                {
                    "name": "D#4",
                    "midi": 63,
                    "time": 47.25869099999996,
                    "velocity": 0.4094488188976378,
                    "duration": 0.9266409999999965
                },
                {
                    "name": "G#4",
                    "midi": 68,
                    "time": 48.18533199999996,
                    "velocity": 0.4409448818897638,
                    "duration": 0.9266409999999965
                },
                {
                    "name": "D4",
                    "midi": 62,
                    "time": 49.111972999999956,
                    "velocity": 0.31496062992125984,
                    "duration": 0.9266409999999965
                },
                {
                    "name": "D#4",
                    "midi": 63,
                    "time": 50.03861399999995,
                    "velocity": 0.4881889763779528,
                    "duration": 1.3899614999999983
                },
                {
                    "name": "D4",
                    "midi": 62,
                    "time": 51.42857549999995,
                    "velocity": 0.4566929133858268,
                    "duration": 0.4633205000000018
                },
                {
                    "name": "C4",
                    "midi": 60,
                    "time": 51.89189599999995,
                    "velocity": 0.5039370078740157,
                    "duration": 1.3899614999999983
                },
                {
                    "name": "F4",
                    "midi": 65,
                    "time": 53.28185749999995,
                    "velocity": 0.4645669291338583,
                    "duration": 0.4633205000000018
                },
                {
                    "name": "G#4",
                    "midi": 68,
                    "time": 53.74517799999995,
                    "velocity": 0.49606299212598426,
                    "duration": 1.3899614999999983
                },
                {
                    "name": "F4",
                    "midi": 65,
                    "time": 55.13513949999995,
                    "velocity": 0.5196850393700787,
                    "duration": 0.4633205000000018
                },
                {
                    "name": "D#5",
                    "midi": 75,
                    "time": 55.59845999999995,
                    "velocity": 0.6062992125984252,
                    "duration": 0.9266409999999965
                },
                {
                    "name": "D5",
                    "midi": 74,
                    "time": 56.52510099999995,
                    "velocity": 0.5511811023622047,
                    "duration": 1.3899614999999983
                },
                {
                    "name": "C5",
                    "midi": 72,
                    "time": 57.91506249999995,
                    "velocity": 0.41732283464566927,
                    "duration": 0.4633205000000018
                },
                {
                    "name": "A#4",
                    "midi": 70,
                    "time": 58.37838299999995,
                    "velocity": 0.4015748031496063,
                    "duration": 0.4633205000000018
                },
                {
                    "name": "G#4",
                    "midi": 68,
                    "time": 58.84170349999995,
                    "velocity": 0.3858267716535433,
                    "duration": 0.4633205000000018
                },
                {
                    "name": "G4",
                    "midi": 67,
                    "time": 59.30502399999995,
                    "velocity": 0.4094488188976378,
                    "duration": 1.3899614999999983
                },
                {
                    "name": "G#4",
                    "midi": 68,
                    "time": 60.69498549999995,
                    "velocity": 0.4015748031496063,
                    "duration": 0.4633205000000018
                },
                {
                    "name": "A#4",
                    "midi": 70,
                    "time": 61.15830599999995,
                    "velocity": 0.4881889763779528,
                    "duration": 0.9266409999999965
                },
                {
                    "name": "D#4",
                    "midi": 63,
                    "time": 62.08494699999995,
                    "velocity": 0.4094488188976378,
                    "duration": 0.9266409999999965
                },
                {
                    "name": "G#4",
                    "midi": 68,
                    "time": 63.011587999999946,
                    "velocity": 0.4409448818897638,
                    "duration": 0.9266409999999965
                },
                {
                    "name": "D4",
                    "midi": 62,
                    "time": 63.93822899999994,
                    "velocity": 0.33070866141732286,
                    "duration": 0.9266409999999965
                },
                {
                    "name": "D#4",
                    "midi": 63,
                    "time": 64.86486999999994,
                    "velocity": 0.4881889763779528,
                    "duration": 1.3899614999999983
                },
                {
                    "name": "D#4",
                    "midi": 63,
                    "time": 66.25483149999994,
                    "velocity": 0.4566929133858268,
                    "duration": 0.4633204999999947
                },
                {
                    "name": "F4",
                    "midi": 65,
                    "time": 66.71815199999993,
                    "velocity": 0.5039370078740157,
                    "duration": 1.2355213333333381
                },
                {
                    "name": "D#4",
                    "midi": 63,
                    "time": 67.95367333333327,
                    "velocity": 0.47244094488188976,
                    "duration": 0.30888033333333453
                },
                {
                    "name": "D4",
                    "midi": 62,
                    "time": 68.2625536666666,
                    "velocity": 0.4566929133858268,
                    "duration": 0.30888033333333453
                },
                {
                    "name": "C4",
                    "midi": 60,
                    "time": 68.57143399999994,
                    "velocity": 0.49606299212598426,
                    "duration": 0.4633204999999947
                },
                {
                    "name": "D#4",
                    "midi": 63,
                    "time": 69.03475449999993,
                    "velocity": 0.47244094488188976,
                    "duration": 0.4633204999999947
                },
                {
                    "name": "G4",
                    "midi": 67,
                    "time": 69.49807499999993,
                    "velocity": 0.5196850393700787,
                    "duration": 0.4633204999999947
                },
                {
                    "name": "C5",
                    "midi": 72,
                    "time": 69.96139549999992,
                    "velocity": 0.5669291338582677,
                    "duration": 0.4633204999999947
                },
                {
                    "name": "F5",
                    "midi": 77,
                    "time": 70.42471599999992,
                    "velocity": 0.6062992125984252,
                    "duration": 1.2355213333333381
                },
                {
                    "name": "D#5",
                    "midi": 75,
                    "time": 71.66023733333326,
                    "velocity": 0.5118110236220472,
                    "duration": 0.30888033333333453
                },
                {
                    "name": "D5",
                    "midi": 74,
                    "time": 71.96911766666659,
                    "velocity": 0.4881889763779528,
                    "duration": 0.30888033333333453
                },
                {
                    "name": "C5",
                    "midi": 72,
                    "time": 72.27799799999993,
                    "velocity": 0.49606299212598426,
                    "duration": 0.4633204999999947
                },
                {
                    "name": "G4",
                    "midi": 67,
                    "time": 72.74131849999992,
                    "velocity": 0.41732283464566927,
                    "duration": 0.4633204999999947
                },
                {
                    "name": "A4",
                    "midi": 69,
                    "time": 73.20463899999991,
                    "velocity": 0.4566929133858268,
                    "duration": 0.4633204999999947
                },
                {
                    "name": "A#4",
                    "midi": 70,
                    "time": 73.66795949999991,
                    "velocity": 0.4094488188976378,
                    "duration": 0.4633204999999947
                },
                {
                    "name": "A#4",
                    "midi": 70,
                    "time": 74.1312799999999,
                    "velocity": 0.4409448818897638,
                    "duration": 0.9266410000000036
                },
                {
                    "name": "F4",
                    "midi": 65,
                    "time": 75.05792099999991,
                    "velocity": 0.3858267716535433,
                    "duration": 0.9266410000000036
                },
                {
                    "name": "F4",
                    "midi": 65,
                    "time": 75.98456199999991,
                    "velocity": 0.4409448818897638,
                    "duration": 0.9266410000000036
                },
                {
                    "name": "F4",
                    "midi": 65,
                    "time": 76.91120299999992,
                    "velocity": 0.4251968503937008,
                    "duration": 0.9266410000000036
                },
                {
                    "name": "C5",
                    "midi": 72,
                    "time": 77.83784399999992,
                    "velocity": 0.4645669291338583,
                    "duration": 1.853281999999993
                },
                {
                    "name": "A#4",
                    "midi": 70,
                    "time": 79.69112599999991,
                    "velocity": 0.4409448818897638,
                    "duration": 1.853281999999993
                },
                {
                    "name": "F#4",
                    "midi": 66,
                    "time": 84.63321133333324,
                    "velocity": 0.36220472440944884,
                    "duration": 0.30888033333333453
                },
                {
                    "name": "G#4",
                    "midi": 68,
                    "time": 84.94209166666657,
                    "velocity": 0.3937007874015748,
                    "duration": 0.30888033333333453
                },
                {
                    "name": "A#4",
                    "midi": 70,
                    "time": 85.2509719999999,
                    "velocity": 0.44881889763779526,
                    "duration": 0.9266410000000036
                },
                {
                    "name": "B4",
                    "midi": 71,
                    "time": 86.17761299999991,
                    "velocity": 0.5433070866141733,
                    "duration": 0.6949807499999991
                },
                {
                    "name": "G#4",
                    "midi": 68,
                    "time": 86.87259374999991,
                    "velocity": 0.4251968503937008,
                    "duration": 0.23166025000000445
                },
                {
                    "name": "F4",
                    "midi": 65,
                    "time": 87.10425399999991,
                    "velocity": 0.4094488188976378,
                    "duration": 1.2355213333333381
                },
                {
                    "name": "F#4",
                    "midi": 66,
                    "time": 88.33977533333325,
                    "velocity": 0.4251968503937008,
                    "duration": 0.23166025000000445
                },
                {
                    "name": "G#4",
                    "midi": 68,
                    "time": 88.64865566666658,
                    "velocity": 0.4645669291338583,
                    "duration": 0.23166025000000445
                },
                {
                    "name": "A#4",
                    "midi": 70,
                    "time": 88.95753599999992,
                    "velocity": 0.5511811023622047,
                    "duration": 0.9266410000000036
                },
                {
                    "name": "D#5",
                    "midi": 75,
                    "time": 89.88417699999992,
                    "velocity": 0.6062992125984252,
                    "duration": 0.6949807499999991
                },
                {
                    "name": "B4",
                    "midi": 71,
                    "time": 90.57915774999992,
                    "velocity": 0.4645669291338583,
                    "duration": 0.23166025000000445
                },
                {
                    "name": "G#4",
                    "midi": 68,
                    "time": 90.81081799999993,
                    "velocity": 0.44881889763779526,
                    "duration": 1.2355213333333381
                },
                {
                    "name": "F#4",
                    "midi": 66,
                    "time": 92.04633933333326,
                    "velocity": 0.3858267716535433,
                    "duration": 0.23166025000000445
                },
                {
                    "name": "G#4",
                    "midi": 68,
                    "time": 92.3552196666666,
                    "velocity": 0.3937007874015748,
                    "duration": 0.23166025000000445
                },
                {
                    "name": "A#4",
                    "midi": 70,
                    "time": 92.66409999999993,
                    "velocity": 0.44881889763779526,
                    "duration": 0.9266410000000036
                },
                {
                    "name": "B4",
                    "midi": 71,
                    "time": 93.59074099999994,
                    "velocity": 0.5433070866141733,
                    "duration": 0.6949807499999991
                },
                {
                    "name": "G#4",
                    "midi": 68,
                    "time": 94.28572174999994,
                    "velocity": 0.4251968503937008,
                    "duration": 0.23166025000000445
                },
                {
                    "name": "F4",
                    "midi": 65,
                    "time": 94.51738199999994,
                    "velocity": 0.4094488188976378,
                    "duration": 1.2355213333333381
                },
                {
                    "name": "F#4",
                    "midi": 66,
                    "time": 95.75290333333328,
                    "velocity": 0.4645669291338583,
                    "duration": 0.23166025000000445
                },
                {
                    "name": "G#4",
                    "midi": 68,
                    "time": 96.06178366666661,
                    "velocity": 0.5118110236220472,
                    "duration": 0.23166025000000445
                },
                {
                    "name": "A#4",
                    "midi": 70,
                    "time": 96.37066399999995,
                    "velocity": 0.5826771653543307,
                    "duration": 0.9266410000000036
                },
                {
                    "name": "D#5",
                    "midi": 75,
                    "time": 97.29730499999995,
                    "velocity": 0.6456692913385826,
                    "duration": 0.6949807499999991
                },
                {
                    "name": "B4",
                    "midi": 71,
                    "time": 97.99228574999995,
                    "velocity": 0.4645669291338583,
                    "duration": 0.23166025000000445
                },
                {
                    "name": "G#4",
                    "midi": 68,
                    "time": 98.22394599999996,
                    "velocity": 0.5511811023622047,
                    "duration": 1.2355213333333381
                },
                {
                    "name": "F#4",
                    "midi": 66,
                    "time": 99.4594673333333,
                    "velocity": 0.5511811023622047,
                    "duration": 0.23166025000000445
                },
                {
                    "name": "A#4",
                    "midi": 70,
                    "time": 99.4594673333333,
                    "velocity": 0.6141732283464567,
                    "duration": 0.23166025000000445
                },
                {
                    "name": "G#4",
                    "midi": 68,
                    "time": 99.76834766666663,
                    "velocity": 0.5669291338582677,
                    "duration": 0.23166025000000445
                },
                {
                    "name": "B4",
                    "midi": 71,
                    "time": 99.76834766666663,
                    "velocity": 0.6377952755905512,
                    "duration": 0.23166025000000445
                },
                {
                    "name": "A#4",
                    "midi": 70,
                    "time": 100.07722799999996,
                    "velocity": 0.6062992125984252,
                    "duration": 0.9266410000000036
                },
                {
                    "name": "C#5",
                    "midi": 73,
                    "time": 100.07722799999996,
                    "velocity": 0.6771653543307087,
                    "duration": 0.9266410000000036
                },
                {
                    "name": "F#4",
                    "midi": 66,
                    "time": 101.00386899999997,
                    "velocity": 0.5905511811023622,
                    "duration": 0.6949807499999991
                },
                {
                    "name": "A#4",
                    "midi": 70,
                    "time": 101.00386899999997,
                    "velocity": 0.6456692913385826,
                    "duration": 0.6949807499999991
                },
                {
                    "name": "F#5",
                    "midi": 78,
                    "time": 101.69884974999997,
                    "velocity": 0.6456692913385826,
                    "duration": 0.23166025000000445
                },
                {
                    "name": "B4",
                    "midi": 71,
                    "time": 101.93050999999997,
                    "velocity": 0.5590551181102362,
                    "duration": 1.8532820000000072
                },
                {
                    "name": "F#4",
                    "midi": 66,
                    "time": 101.93050999999997,
                    "velocity": 0.5590551181102362,
                    "duration": 0.9266410000000036
                },
                {
                    "name": "F#5",
                    "midi": 78,
                    "time": 101.93050999999997,
                    "velocity": 0.6456692913385826,
                    "duration": 0.9266410000000036
                },
                {
                    "name": "F4",
                    "midi": 65,
                    "time": 102.85715099999997,
                    "velocity": 0.5511811023622047,
                    "duration": 0.9266410000000036
                },
                {
                    "name": "F5",
                    "midi": 77,
                    "time": 102.85715099999997,
                    "velocity": 0.6299212598425197,
                    "duration": 0.9266410000000036
                },
                {
                    "name": "A#4",
                    "midi": 70,
                    "time": 103.78379199999998,
                    "velocity": 0.6062992125984252,
                    "duration": 0.9266410000000036
                },
                {
                    "name": "C#5",
                    "midi": 73,
                    "time": 103.78379199999998,
                    "velocity": 0.6771653543307087,
                    "duration": 0.9266410000000036
                },
                {
                    "name": "F#4",
                    "midi": 66,
                    "time": 104.71043299999998,
                    "velocity": 0.5905511811023622,
                    "duration": 0.6949807499999991
                },
                {
                    "name": "A#4",
                    "midi": 70,
                    "time": 104.71043299999998,
                    "velocity": 0.6456692913385826,
                    "duration": 0.6949807499999991
                },
                {
                    "name": "F#5",
                    "midi": 78,
                    "time": 105.40541374999998,
                    "velocity": 0.4881889763779528,
                    "duration": 0.23166025000000445
                },
                {
                    "name": "B4",
                    "midi": 71,
                    "time": 105.63707399999998,
                    "velocity": 0.4330708661417323,
                    "duration": 1.8532820000000072
                },
                {
                    "name": "F#4",
                    "midi": 66,
                    "time": 105.63707399999998,
                    "velocity": 0.4330708661417323,
                    "duration": 0.9266410000000036
                },
                {
                    "name": "F#5",
                    "midi": 78,
                    "time": 105.63707399999998,
                    "velocity": 0.49606299212598426,
                    "duration": 0.9266410000000036
                },
                {
                    "name": "F4",
                    "midi": 65,
                    "time": 106.56371499999999,
                    "velocity": 0.3858267716535433,
                    "duration": 0.9266410000000036
                },
                {
                    "name": "F5",
                    "midi": 77,
                    "time": 106.56371499999999,
                    "velocity": 0.4330708661417323,
                    "duration": 0.9266410000000036
                },
                {
                    "name": "F#4",
                    "midi": 66,
                    "time": 107.49035599999999,
                    "velocity": 0.41732283464566927,
                    "duration": 0.9266410000000036
                },
                {
                    "name": "A#4",
                    "midi": 70,
                    "time": 107.49035599999999,
                    "velocity": 0.4645669291338583,
                    "duration": 0.9266410000000036
                },
                {
                    "name": "D#4",
                    "midi": 63,
                    "time": 108.416997,
                    "velocity": 0.4330708661417323,
                    "duration": 0.6949807499999991
                },
                {
                    "name": "F#4",
                    "midi": 66,
                    "time": 108.416997,
                    "velocity": 0.4330708661417323,
                    "duration": 0.6949807499999991
                },
                {
                    "name": "B4",
                    "midi": 71,
                    "time": 109.11197775,
                    "velocity": 0.49606299212598426,
                    "duration": 0.22007723749999286
                },
                {
                    "name": "D#5",
                    "midi": 75,
                    "time": 109.11197775,
                    "velocity": 0.49606299212598426,
                    "duration": 0.22007723749999286
                },
                {
                    "name": "B4",
                    "midi": 71,
                    "time": 109.34363799999998,
                    "velocity": 0.5511811023622047,
                    "duration": 1.2355213333333381
                },
                {
                    "name": "G#4",
                    "midi": 68,
                    "time": 109.34363799999998,
                    "velocity": 0.4881889763779528,
                    "duration": 0.9266410000000036
                },
                {
                    "name": "D#4",
                    "midi": 63,
                    "time": 109.34363799999998,
                    "velocity": 0.4881889763779528,
                    "duration": 0.9266410000000036
                },
                {
                    "name": "D#5",
                    "midi": 75,
                    "time": 109.34363799999998,
                    "velocity": 0.5511811023622047,
                    "duration": 1.2355213333333381
                },
                {
                    "name": "A#4",
                    "midi": 70,
                    "time": 110.57915933333332,
                    "velocity": 0.4330708661417323,
                    "duration": 0.30888033333333453
                },
                {
                    "name": "C#5",
                    "midi": 73,
                    "time": 110.57915933333332,
                    "velocity": 0.4330708661417323,
                    "duration": 0.30888033333333453
                },
                {
                    "name": "G#4",
                    "midi": 68,
                    "time": 110.88803966666666,
                    "velocity": 0.4330708661417323,
                    "duration": 0.30888033333333453
                },
                {
                    "name": "B4",
                    "midi": 71,
                    "time": 110.88803966666666,
                    "velocity": 0.4330708661417323,
                    "duration": 0.30888033333333453
                },
                {
                    "name": "F#4",
                    "midi": 66,
                    "time": 111.19691999999999,
                    "velocity": 0.41732283464566927,
                    "duration": 0.9266410000000036
                },
                {
                    "name": "A#4",
                    "midi": 70,
                    "time": 111.19691999999999,
                    "velocity": 0.4645669291338583,
                    "duration": 0.9266410000000036
                },
                {
                    "name": "D#4",
                    "midi": 63,
                    "time": 112.123561,
                    "velocity": 0.4330708661417323,
                    "duration": 0.6949807499999991
                },
                {
                    "name": "F#4",
                    "midi": 66,
                    "time": 112.123561,
                    "velocity": 0.4330708661417323,
                    "duration": 0.6949807499999991
                },
                {
                    "name": "B4",
                    "midi": 71,
                    "time": 112.81854175,
                    "velocity": 0.49606299212598426,
                    "duration": 0.22007723750000707
                },
                {
                    "name": "D#5",
                    "midi": 75,
                    "time": 112.81854175,
                    "velocity": 0.49606299212598426,
                    "duration": 0.22007723750000707
                },
                {
                    "name": "B4",
                    "midi": 71,
                    "time": 113.050202,
                    "velocity": 0.5354330708661418,
                    "duration": 1.2355213333333381
                },
                {
                    "name": "G#4",
                    "midi": 68,
                    "time": 113.050202,
                    "velocity": 0.5354330708661418,
                    "duration": 0.9266410000000036
                },
                {
                    "name": "D#4",
                    "midi": 63,
                    "time": 113.050202,
                    "velocity": 0.5354330708661418,
                    "duration": 0.9266410000000036
                },
                {
                    "name": "D#5",
                    "midi": 75,
                    "time": 113.050202,
                    "velocity": 0.5984251968503937,
                    "duration": 1.2355213333333381
                },
                {
                    "name": "A#4",
                    "midi": 70,
                    "time": 114.28572333333334,
                    "velocity": 0.5748031496062992,
                    "duration": 0.30888033333333453
                },
                {
                    "name": "C#5",
                    "midi": 73,
                    "time": 114.28572333333334,
                    "velocity": 0.5748031496062992,
                    "duration": 0.30888033333333453
                },
                {
                    "name": "G#4",
                    "midi": 68,
                    "time": 114.59460366666667,
                    "velocity": 0.5590551181102362,
                    "duration": 0.29343631666667136
                },
                {
                    "name": "B4",
                    "midi": 71,
                    "time": 114.59460366666667,
                    "velocity": 0.5590551181102362,
                    "duration": 0.29343631666667136
                },
                {
                    "name": "B4",
                    "midi": 71,
                    "time": 114.903484,
                    "velocity": 0.5826771653543307,
                    "duration": 1.2355213333333381
                },
                {
                    "name": "G#4",
                    "midi": 68,
                    "time": 114.903484,
                    "velocity": 0.5354330708661418,
                    "duration": 0.9266410000000036
                },
                {
                    "name": "D#4",
                    "midi": 63,
                    "time": 114.903484,
                    "velocity": 0.5354330708661418,
                    "duration": 0.9266410000000036
                },
                {
                    "name": "D#5",
                    "midi": 75,
                    "time": 114.903484,
                    "velocity": 0.6062992125984252,
                    "duration": 1.2355213333333381
                },
                {
                    "name": "A#4",
                    "midi": 70,
                    "time": 116.13900533333334,
                    "velocity": 0.5748031496062992,
                    "duration": 0.30888033333333453
                },
                {
                    "name": "C#5",
                    "midi": 73,
                    "time": 116.13900533333334,
                    "velocity": 0.5748031496062992,
                    "duration": 0.30888033333333453
                },
                {
                    "name": "G#4",
                    "midi": 68,
                    "time": 116.44788566666668,
                    "velocity": 0.5590551181102362,
                    "duration": 0.29343631666667136
                },
                {
                    "name": "B4",
                    "midi": 71,
                    "time": 116.44788566666668,
                    "velocity": 0.5590551181102362,
                    "duration": 0.29343631666667136
                },
                {
                    "name": "B4",
                    "midi": 71,
                    "time": 116.75676600000001,
                    "velocity": 0.5826771653543307,
                    "duration": 3.2432435000000055
                },
                {
                    "name": "G#4",
                    "midi": 68,
                    "time": 116.75676600000001,
                    "velocity": 0.5826771653543307,
                    "duration": 3.2432435000000055
                },
                {
                    "name": "D#4",
                    "midi": 63,
                    "time": 116.75676600000001,
                    "velocity": 0.5826771653543307,
                    "duration": 3.2432435000000055
                },
                {
                    "name": "D#5",
                    "midi": 75,
                    "time": 116.75676600000001,
                    "velocity": 0.6062992125984252,
                    "duration": 3.2432435000000055
                },
                {
                    "name": "D5",
                    "midi": 74,
                    "time": 120.00000950000002,
                    "velocity": 0.4094488188976378,
                    "duration": 0.4633204999999947
                },
                {
                    "name": "F5",
                    "midi": 77,
                    "time": 120.46333000000001,
                    "velocity": 0.44881889763779526,
                    "duration": 0.4633204999999947
                },
                {
                    "name": "D#5",
                    "midi": 75,
                    "time": 120.92665050000001,
                    "velocity": 0.4094488188976378,
                    "duration": 0.4633204999999947
                },
                {
                    "name": "B4",
                    "midi": 71,
                    "time": 121.389971,
                    "velocity": 0.3464566929133858,
                    "duration": 0.4633204999999947
                },
                {
                    "name": "G#4",
                    "midi": 68,
                    "time": 121.8532915,
                    "velocity": 0.33070866141732286,
                    "duration": 0.4633204999999947
                },
                {
                    "name": "G4",
                    "midi": 67,
                    "time": 122.31661199999999,
                    "velocity": 0.36220472440944884,
                    "duration": 1.3899614999999983
                },
                {
                    "name": "G#4",
                    "midi": 68,
                    "time": 123.70657349999999,
                    "velocity": 0.3937007874015748,
                    "duration": 0.4633204999999947
                },
                {
                    "name": "A#4",
                    "midi": 70,
                    "time": 124.16989399999999,
                    "velocity": 0.4881889763779528,
                    "duration": 0.9266410000000036
                },
                {
                    "name": "D#4",
                    "midi": 63,
                    "time": 125.09653499999999,
                    "velocity": 0.4094488188976378,
                    "duration": 0.9266410000000036
                },
                {
                    "name": "G#4",
                    "midi": 68,
                    "time": 126.02317599999999,
                    "velocity": 0.4409448818897638,
                    "duration": 0.9266410000000036
                },
                {
                    "name": "D4",
                    "midi": 62,
                    "time": 126.949817,
                    "velocity": 0.31496062992125984,
                    "duration": 0.9266410000000036
                },
                {
                    "name": "D#4",
                    "midi": 63,
                    "time": 127.876458,
                    "velocity": 0.4881889763779528,
                    "duration": 1.3899615000000125
                },
                {
                    "name": "D4",
                    "midi": 62,
                    "time": 129.2664195,
                    "velocity": 0.4566929133858268,
                    "duration": 0.4633205000000089
                },
                {
                    "name": "C4",
                    "midi": 60,
                    "time": 129.72974000000002,
                    "velocity": 0.5275590551181102,
                    "duration": 1.3899614999999983
                },
                {
                    "name": "F4",
                    "midi": 65,
                    "time": 131.11970150000002,
                    "velocity": 0.5039370078740157,
                    "duration": 0.4633205000000089
                },
                {
                    "name": "G#4",
                    "midi": 68,
                    "time": 131.58302200000003,
                    "velocity": 0.5905511811023622,
                    "duration": 0.4633205000000089
                },
                {
                    "name": "C5",
                    "midi": 72,
                    "time": 132.02510697708337,
                    "velocity": 0.5748031496062992,
                    "duration": 0.4633205000000089
                },
                {
                    "name": "G5",
                    "midi": 79,
                    "time": 132.50966300000005,
                    "velocity": 0.6141732283464567,
                    "duration": 0.6949807500000134
                },
                {
                    "name": "F5",
                    "midi": 77,
                    "time": 133.20464375000006,
                    "velocity": 0.5748031496062992,
                    "duration": 0.23166025000000445
                },
                {
                    "name": "D#5",
                    "midi": 75,
                    "time": 133.43630400000006,
                    "velocity": 0.6062992125984252,
                    "duration": 0.9266409999999894
                },
                {
                    "name": "D5",
                    "midi": 74,
                    "time": 134.36294500000005,
                    "velocity": 0.5511811023622047,
                    "duration": 1.8532820000000072
                },
                {
                    "name": "D5",
                    "midi": 74,
                    "time": 136.21622700000006,
                    "velocity": 0.4330708661417323,
                    "duration": 0.3088803333333203
                },
                {
                    "name": "C5",
                    "midi": 72,
                    "time": 136.52510733333338,
                    "velocity": 0.4015748031496063,
                    "duration": 0.3088803333333203
                },
                {
                    "name": "A#4",
                    "midi": 70,
                    "time": 136.8339876666667,
                    "velocity": 0.3779527559055118,
                    "duration": 0.3088803333333203
                },
                {
                    "name": "G4",
                    "midi": 67,
                    "time": 137.14286800000002,
                    "velocity": 0.3464566929133858,
                    "duration": 0.9266409999999894
                },
                {
                    "name": "A#4",
                    "midi": 70,
                    "time": 137.14286800000002,
                    "velocity": 0.4015748031496063,
                    "duration": 0.9266409999999894
                },
                {
                    "name": "D#4",
                    "midi": 63,
                    "time": 138.069509,
                    "velocity": 0.3779527559055118,
                    "duration": 0.6949807500000134
                },
                {
                    "name": "G4",
                    "midi": 67,
                    "time": 138.069509,
                    "velocity": 0.5275590551181102,
                    "duration": 0.6949807500000134
                },
                {
                    "name": "D#5",
                    "midi": 75,
                    "time": 138.76448975000002,
                    "velocity": 0.5669291338582677,
                    "duration": 0.22007723749999286
                },
                {
                    "name": "G#4",
                    "midi": 68,
                    "time": 138.99615000000003,
                    "velocity": 0.5039370078740157,
                    "duration": 1.8532819999999788
                },
                {
                    "name": "D#4",
                    "midi": 63,
                    "time": 138.99615000000003,
                    "velocity": 0.5039370078740157,
                    "duration": 0.9266409999999894
                },
                {
                    "name": "D#5",
                    "midi": 75,
                    "time": 138.99615000000003,
                    "velocity": 0.5669291338582677,
                    "duration": 0.9266409999999894
                },
                {
                    "name": "D4",
                    "midi": 62,
                    "time": 139.92279100000002,
                    "velocity": 0.4330708661417323,
                    "duration": 0.9266409999999894
                },
                {
                    "name": "D5",
                    "midi": 74,
                    "time": 139.92279100000002,
                    "velocity": 0.47244094488188976,
                    "duration": 0.9266409999999894
                },
                {
                    "name": "G4",
                    "midi": 67,
                    "time": 140.849432,
                    "velocity": 0.4566929133858268,
                    "duration": 0.9266409999999894
                },
                {
                    "name": "A#4",
                    "midi": 70,
                    "time": 140.849432,
                    "velocity": 0.5196850393700787,
                    "duration": 0.9266409999999894
                },
                {
                    "name": "D#4",
                    "midi": 63,
                    "time": 141.776073,
                    "velocity": 0.44881889763779526,
                    "duration": 0.6949807500000134
                },
                {
                    "name": "G4",
                    "midi": 67,
                    "time": 141.776073,
                    "velocity": 0.5039370078740157,
                    "duration": 0.6949807500000134
                },
                {
                    "name": "D#5",
                    "midi": 75,
                    "time": 142.47105375,
                    "velocity": 0.5039370078740157,
                    "duration": 0.22007723749999286
                },
                {
                    "name": "G#4",
                    "midi": 68,
                    "time": 142.70271400000001,
                    "velocity": 0.4409448818897638,
                    "duration": 1.8532819999999788
                },
                {
                    "name": "D#4",
                    "midi": 63,
                    "time": 142.70271400000001,
                    "velocity": 0.4409448818897638,
                    "duration": 0.9266409999999894
                },
                {
                    "name": "D#5",
                    "midi": 75,
                    "time": 142.70271400000001,
                    "velocity": 0.49606299212598426,
                    "duration": 0.9266409999999894
                },
                {
                    "name": "D4",
                    "midi": 62,
                    "time": 143.629355,
                    "velocity": 0.3464566929133858,
                    "duration": 0.9266409999999894
                },
                {
                    "name": "D5",
                    "midi": 74,
                    "time": 143.629355,
                    "velocity": 0.3858267716535433,
                    "duration": 0.9266409999999894
                },
                {
                    "name": "D#4",
                    "midi": 63,
                    "time": 144.555996,
                    "velocity": 0.4094488188976378,
                    "duration": 0.9266409999999894
                },
                {
                    "name": "G4",
                    "midi": 67,
                    "time": 144.555996,
                    "velocity": 0.4094488188976378,
                    "duration": 0.9266409999999894
                },
                {
                    "name": "C4",
                    "midi": 60,
                    "time": 145.48263699999998,
                    "velocity": 0.4015748031496063,
                    "duration": 0.6949807500000134
                },
                {
                    "name": "D#4",
                    "midi": 63,
                    "time": 145.48263699999998,
                    "velocity": 0.4015748031496063,
                    "duration": 0.6949807500000134
                },
                {
                    "name": "G4",
                    "midi": 67,
                    "time": 146.17761775,
                    "velocity": 0.4094488188976378,
                    "duration": 0.22007723749999286
                },
                {
                    "name": "A#4",
                    "midi": 70,
                    "time": 146.17761775,
                    "velocity": 0.4094488188976378,
                    "duration": 0.22007723749999286
                },
                {
                    "name": "C4",
                    "midi": 60,
                    "time": 146.409278,
                    "velocity": 0.36220472440944884,
                    "duration": 0.9266410000000178
                },
                {
                    "name": "G4",
                    "midi": 67,
                    "time": 146.409278,
                    "velocity": 0.4094488188976378,
                    "duration": 0.4633205000000089
                },
                {
                    "name": "A#4",
                    "midi": 70,
                    "time": 146.409278,
                    "velocity": 0.4094488188976378,
                    "duration": 0.4633205000000089
                },
                {
                    "name": "F4",
                    "midi": 65,
                    "time": 146.8725985,
                    "velocity": 0.36220472440944884,
                    "duration": 0.4633205000000089
                },
                {
                    "name": "G#4",
                    "midi": 68,
                    "time": 146.8725985,
                    "velocity": 0.36220472440944884,
                    "duration": 0.4633205000000089
                },
                {
                    "name": "D#4",
                    "midi": 63,
                    "time": 147.33591900000002,
                    "velocity": 0.3858267716535433,
                    "duration": 0.4633205000000089
                },
                {
                    "name": "G4",
                    "midi": 67,
                    "time": 147.33591900000002,
                    "velocity": 0.3858267716535433,
                    "duration": 0.4633205000000089
                },
                {
                    "name": "D4",
                    "midi": 62,
                    "time": 147.79923950000003,
                    "velocity": 0.33858267716535434,
                    "duration": 0.4633205000000089
                },
                {
                    "name": "F4",
                    "midi": 65,
                    "time": 147.79923950000003,
                    "velocity": 0.33858267716535434,
                    "duration": 0.4633205000000089
                },
                {
                    "name": "G#3",
                    "midi": 56,
                    "time": 148.26256000000004,
                    "velocity": 0.2992125984251969,
                    "duration": 1.8532820000000072
                },
                {
                    "name": "A#3",
                    "midi": 58,
                    "time": 148.26256000000004,
                    "velocity": 0.2992125984251969,
                    "duration": 1.8532820000000072
                },
                {
                    "name": "F4",
                    "midi": 65,
                    "time": 148.26256000000004,
                    "velocity": 0.33858267716535434,
                    "duration": 1.8532820000000072
                },
                {
                    "name": "G3",
                    "midi": 55,
                    "time": 150.11584200000004,
                    "velocity": 0.25984251968503935,
                    "duration": 0.9266409999999894
                },
                {
                    "name": "A#3",
                    "midi": 58,
                    "time": 150.11584200000004,
                    "velocity": 0.25984251968503935,
                    "duration": 0.9266409999999894
                },
                {
                    "name": "D#4",
                    "midi": 63,
                    "time": 150.11584200000004,
                    "velocity": 0.2992125984251969,
                    "duration": 0.9266409999999894
                },
                {
                    "name": "F#4",
                    "midi": 66,
                    "time": 151.35136333333335,
                    "velocity": 0.36220472440944884,
                    "duration": 0.3088803333333203
                },
                {
                    "name": "D#4",
                    "midi": 63,
                    "time": 151.35136333333335,
                    "velocity": 0.36220472440944884,
                    "duration": 0.3088803333333203
                },
                {
                    "name": "G#4",
                    "midi": 68,
                    "time": 151.66024366666667,
                    "velocity": 0.3937007874015748,
                    "duration": 0.3088803333333203
                },
                {
                    "name": "F4",
                    "midi": 65,
                    "time": 151.66024366666667,
                    "velocity": 0.3937007874015748,
                    "duration": 0.3088803333333203
                },
                {
                    "name": "A#4",
                    "midi": 70,
                    "time": 151.969124,
                    "velocity": 0.44881889763779526,
                    "duration": 0.9266409999999894
                },
                {
                    "name": "B4",
                    "midi": 71,
                    "time": 152.89576499999998,
                    "velocity": 0.5433070866141733,
                    "duration": 0.6949807500000134
                },
                {
                    "name": "G#4",
                    "midi": 68,
                    "time": 153.59074575,
                    "velocity": 0.4251968503937008,
                    "duration": 0.23166025000000445
                },
                {
                    "name": "F4",
                    "midi": 65,
                    "time": 153.822406,
                    "velocity": 0.4094488188976378,
                    "duration": 1.2355213333333381
                },
                {
                    "name": "F#4",
                    "midi": 66,
                    "time": 155.05792733333334,
                    "velocity": 0.4251968503937008,
                    "duration": 0.23166025000000445
                },
                {
                    "name": "G#4",
                    "midi": 68,
                    "time": 155.3668076666667,
                    "velocity": 0.4645669291338583,
                    "duration": 0.23166025000000445
                },
                {
                    "name": "A#4",
                    "midi": 70,
                    "time": 155.67568800000004,
                    "velocity": 0.5354330708661418,
                    "duration": 0.9266409999999894
                },
                {
                    "name": "D#5",
                    "midi": 75,
                    "time": 156.60232900000003,
                    "velocity": 0.6456692913385826,
                    "duration": 0.6949807500000134
                },
                {
                    "name": "B4",
                    "midi": 71,
                    "time": 157.29730975000004,
                    "velocity": 0.4645669291338583,
                    "duration": 0.23166025000000445
                },
                {
                    "name": "G#4",
                    "midi": 68,
                    "time": 157.52897000000004,
                    "velocity": 0.44881889763779526,
                    "duration": 1.2355213333333381
                },
                {
                    "name": "F#4",
                    "midi": 66,
                    "time": 158.76449133333338,
                    "velocity": 0.3858267716535433,
                    "duration": 0.23166025000000445
                },
                {
                    "name": "G#4",
                    "midi": 68,
                    "time": 159.07337166666673,
                    "velocity": 0.3937007874015748,
                    "duration": 0.23166025000000445
                },
                {
                    "name": "A#4",
                    "midi": 70,
                    "time": 159.38225200000008,
                    "velocity": 0.44881889763779526,
                    "duration": 0.9266409999999894
                },
                {
                    "name": "B4",
                    "midi": 71,
                    "time": 160.30889300000007,
                    "velocity": 0.5433070866141733,
                    "duration": 0.6949807500000134
                },
                {
                    "name": "G#4",
                    "midi": 68,
                    "time": 161.00387375000008,
                    "velocity": 0.4251968503937008,
                    "duration": 0.23166025000000445
                },
                {
                    "name": "F4",
                    "midi": 65,
                    "time": 161.2355340000001,
                    "velocity": 0.4094488188976378,
                    "duration": 1.2355213333333381
                },
                {
                    "name": "F#4",
                    "midi": 66,
                    "time": 162.47105533333342,
                    "velocity": 0.4645669291338583,
                    "duration": 0.23166025000000445
                },
                {
                    "name": "G#4",
                    "midi": 68,
                    "time": 162.77993566666677,
                    "velocity": 0.5118110236220472,
                    "duration": 0.23166025000000445
                },
                {
                    "name": "A#4",
                    "midi": 70,
                    "time": 163.08881600000012,
                    "velocity": 0.5826771653543307,
                    "duration": 0.9266409999999894
                },
                {
                    "name": "D#5",
                    "midi": 75,
                    "time": 164.0154570000001,
                    "velocity": 0.6456692913385826,
                    "duration": 0.6949807500000134
                },
                {
                    "name": "B4",
                    "midi": 71,
                    "time": 164.71043775000012,
                    "velocity": 0.4645669291338583,
                    "duration": 0.23166025000000445
                },
                {
                    "name": "G#4",
                    "midi": 68,
                    "time": 164.94209800000013,
                    "velocity": 0.5511811023622047,
                    "duration": 1.2355213333333381
                },
                {
                    "name": "F#4",
                    "midi": 66,
                    "time": 166.17761933333347,
                    "velocity": 0.5511811023622047,
                    "duration": 0.23166025000000445
                },
                {
                    "name": "A#4",
                    "midi": 70,
                    "time": 166.17761933333347,
                    "velocity": 0.6141732283464567,
                    "duration": 0.23166025000000445
                },
                {
                    "name": "G#4",
                    "midi": 68,
                    "time": 166.48649966666682,
                    "velocity": 0.5669291338582677,
                    "duration": 0.23166025000000445
                },
                {
                    "name": "B4",
                    "midi": 71,
                    "time": 166.48649966666682,
                    "velocity": 0.6377952755905512,
                    "duration": 0.23166025000000445
                },
                {
                    "name": "A#4",
                    "midi": 70,
                    "time": 166.79538000000016,
                    "velocity": 0.6062992125984252,
                    "duration": 0.9266409999999894
                },
                {
                    "name": "C#5",
                    "midi": 73,
                    "time": 166.79538000000016,
                    "velocity": 0.6771653543307087,
                    "duration": 0.9266409999999894
                },
                {
                    "name": "F#4",
                    "midi": 66,
                    "time": 167.72202100000015,
                    "velocity": 0.5905511811023622,
                    "duration": 0.6949807500000134
                },
                {
                    "name": "A#4",
                    "midi": 70,
                    "time": 167.72202100000015,
                    "velocity": 0.6456692913385826,
                    "duration": 0.6949807500000134
                },
                {
                    "name": "F#5",
                    "midi": 78,
                    "time": 168.41700175000017,
                    "velocity": 0.6456692913385826,
                    "duration": 0.22007723749999286
                },
                {
                    "name": "B4",
                    "midi": 71,
                    "time": 168.64866200000017,
                    "velocity": 0.5590551181102362,
                    "duration": 1.8532819999999788
                },
                {
                    "name": "F#4",
                    "midi": 66,
                    "time": 168.64866200000017,
                    "velocity": 0.5511811023622047,
                    "duration": 0.9266409999999894
                },
                {
                    "name": "F#5",
                    "midi": 78,
                    "time": 168.64866200000017,
                    "velocity": 0.6456692913385826,
                    "duration": 0.9266409999999894
                },
                {
                    "name": "F4",
                    "midi": 65,
                    "time": 169.57530300000016,
                    "velocity": 0.5511811023622047,
                    "duration": 0.9266409999999894
                },
                {
                    "name": "F5",
                    "midi": 77,
                    "time": 169.57530300000016,
                    "velocity": 0.6299212598425197,
                    "duration": 0.9266409999999894
                },
                {
                    "name": "A#4",
                    "midi": 70,
                    "time": 170.50194400000015,
                    "velocity": 0.6062992125984252,
                    "duration": 0.9266409999999894
                },
                {
                    "name": "C#5",
                    "midi": 73,
                    "time": 170.50194400000015,
                    "velocity": 0.6771653543307087,
                    "duration": 0.9266409999999894
                },
                {
                    "name": "F#4",
                    "midi": 66,
                    "time": 171.42858500000014,
                    "velocity": 0.5905511811023622,
                    "duration": 0.6949807500000134
                },
                {
                    "name": "A#4",
                    "midi": 70,
                    "time": 171.42858500000014,
                    "velocity": 0.6456692913385826,
                    "duration": 0.6949807500000134
                },
                {
                    "name": "F#5",
                    "midi": 78,
                    "time": 172.12356575000015,
                    "velocity": 0.4881889763779528,
                    "duration": 0.22007723749999286
                },
                {
                    "name": "B4",
                    "midi": 71,
                    "time": 172.35522600000016,
                    "velocity": 0.4330708661417323,
                    "duration": 1.8532819999999788
                },
                {
                    "name": "F#4",
                    "midi": 66,
                    "time": 172.35522600000016,
                    "velocity": 0.4330708661417323,
                    "duration": 0.9266409999999894
                },
                {
                    "name": "F#5",
                    "midi": 78,
                    "time": 172.35522600000016,
                    "velocity": 0.49606299212598426,
                    "duration": 0.9266409999999894
                },
                {
                    "name": "F4",
                    "midi": 65,
                    "time": 173.28186700000015,
                    "velocity": 0.3858267716535433,
                    "duration": 0.9266409999999894
                },
                {
                    "name": "F5",
                    "midi": 77,
                    "time": 173.28186700000015,
                    "velocity": 0.4330708661417323,
                    "duration": 0.9266409999999894
                },
                {
                    "name": "F#4",
                    "midi": 66,
                    "time": 174.20850800000014,
                    "velocity": 0.41732283464566927,
                    "duration": 0.9266409999999894
                },
                {
                    "name": "A#4",
                    "midi": 70,
                    "time": 174.20850800000014,
                    "velocity": 0.4645669291338583,
                    "duration": 0.9266409999999894
                },
                {
                    "name": "D#4",
                    "midi": 63,
                    "time": 175.13514900000013,
                    "velocity": 0.4330708661417323,
                    "duration": 0.6949807500000134
                },
                {
                    "name": "F#4",
                    "midi": 66,
                    "time": 175.13514900000013,
                    "velocity": 0.4330708661417323,
                    "duration": 0.6949807500000134
                },
                {
                    "name": "B4",
                    "midi": 71,
                    "time": 175.83012975000014,
                    "velocity": 0.49606299212598426,
                    "duration": 0.22007723749999286
                },
                {
                    "name": "D#5",
                    "midi": 75,
                    "time": 175.83012975000014,
                    "velocity": 0.49606299212598426,
                    "duration": 0.22007723749999286
                },
                {
                    "name": "B4",
                    "midi": 71,
                    "time": 176.06179000000014,
                    "velocity": 0.5511811023622047,
                    "duration": 1.2355213333333097
                },
                {
                    "name": "G#4",
                    "midi": 68,
                    "time": 176.06179000000014,
                    "velocity": 0.4881889763779528,
                    "duration": 0.9266409999999894
                },
                {
                    "name": "D#4",
                    "midi": 63,
                    "time": 176.06179000000014,
                    "velocity": 0.4881889763779528,
                    "duration": 0.9266409999999894
                },
                {
                    "name": "D#5",
                    "midi": 75,
                    "time": 176.06179000000014,
                    "velocity": 0.5511811023622047,
                    "duration": 1.2355213333333097
                },
                {
                    "name": "A#4",
                    "midi": 70,
                    "time": 177.29731133333345,
                    "velocity": 0.4330708661417323,
                    "duration": 0.3088803333333203
                },
                {
                    "name": "C#5",
                    "midi": 73,
                    "time": 177.29731133333345,
                    "velocity": 0.4330708661417323,
                    "duration": 0.3088803333333203
                },
                {
                    "name": "G#4",
                    "midi": 68,
                    "time": 177.60619166666677,
                    "velocity": 0.4330708661417323,
                    "duration": 0.3088803333333203
                },
                {
                    "name": "B4",
                    "midi": 71,
                    "time": 177.60619166666677,
                    "velocity": 0.4330708661417323,
                    "duration": 0.3088803333333203
                },
                {
                    "name": "F#4",
                    "midi": 66,
                    "time": 177.9150720000001,
                    "velocity": 0.41732283464566927,
                    "duration": 0.9266409999999894
                },
                {
                    "name": "A#4",
                    "midi": 70,
                    "time": 177.9150720000001,
                    "velocity": 0.4645669291338583,
                    "duration": 0.9266409999999894
                },
                {
                    "name": "D#4",
                    "midi": 63,
                    "time": 178.84171300000008,
                    "velocity": 0.4330708661417323,
                    "duration": 0.6949807500000134
                },
                {
                    "name": "F#4",
                    "midi": 66,
                    "time": 178.84171300000008,
                    "velocity": 0.4330708661417323,
                    "duration": 0.6949807500000134
                },
                {
                    "name": "B4",
                    "midi": 71,
                    "time": 179.5366937500001,
                    "velocity": 0.49606299212598426,
                    "duration": 0.22007723749999286
                },
                {
                    "name": "D#5",
                    "midi": 75,
                    "time": 179.5366937500001,
                    "velocity": 0.49606299212598426,
                    "duration": 0.22007723749999286
                },
                {
                    "name": "B4",
                    "midi": 71,
                    "time": 179.7683540000001,
                    "velocity": 0.5354330708661418,
                    "duration": 1.2355213333333097
                },
                {
                    "name": "G#4",
                    "midi": 68,
                    "time": 179.7683540000001,
                    "velocity": 0.5354330708661418,
                    "duration": 0.9266409999999894
                },
                {
                    "name": "D#4",
                    "midi": 63,
                    "time": 179.7683540000001,
                    "velocity": 0.5354330708661418,
                    "duration": 0.9266409999999894
                },
                {
                    "name": "D#5",
                    "midi": 75,
                    "time": 179.7683540000001,
                    "velocity": 0.5984251968503937,
                    "duration": 1.2355213333333097
                },
                {
                    "name": "A#4",
                    "midi": 70,
                    "time": 181.0038753333334,
                    "velocity": 0.5748031496062992,
                    "duration": 0.3088803333333203
                },
                {
                    "name": "C#5",
                    "midi": 73,
                    "time": 181.0038753333334,
                    "velocity": 0.5748031496062992,
                    "duration": 0.3088803333333203
                },
                {
                    "name": "G#4",
                    "midi": 68,
                    "time": 181.31275566666673,
                    "velocity": 0.5590551181102362,
                    "duration": 0.3088803333333203
                },
                {
                    "name": "B4",
                    "midi": 71,
                    "time": 181.31275566666673,
                    "velocity": 0.5590551181102362,
                    "duration": 0.3088803333333203
                },
                {
                    "name": "B4",
                    "midi": 71,
                    "time": 181.62163600000005,
                    "velocity": 0.5826771653543307,
                    "duration": 1.2355213333333097
                },
                {
                    "name": "G#4",
                    "midi": 68,
                    "time": 181.62163600000005,
                    "velocity": 0.5354330708661418,
                    "duration": 0.9266409999999894
                },
                {
                    "name": "D#4",
                    "midi": 63,
                    "time": 181.62163600000005,
                    "velocity": 0.5354330708661418,
                    "duration": 0.9266409999999894
                },
                {
                    "name": "D#5",
                    "midi": 75,
                    "time": 181.62163600000005,
                    "velocity": 0.5984251968503937,
                    "duration": 1.2355213333333097
                },
                {
                    "name": "A#4",
                    "midi": 70,
                    "time": 182.85715733333336,
                    "velocity": 0.5748031496062992,
                    "duration": 0.3088803333333203
                },
                {
                    "name": "C#5",
                    "midi": 73,
                    "time": 182.85715733333336,
                    "velocity": 0.5748031496062992,
                    "duration": 0.3088803333333203
                },
                {
                    "name": "G#4",
                    "midi": 68,
                    "time": 183.16603766666668,
                    "velocity": 0.5590551181102362,
                    "duration": 0.29343631666665715
                },
                {
                    "name": "B4",
                    "midi": 71,
                    "time": 183.16603766666668,
                    "velocity": 0.5590551181102362,
                    "duration": 0.29343631666665715
                },
                {
                    "name": "B4",
                    "midi": 71,
                    "time": 183.474918,
                    "velocity": 0.5826771653543307,
                    "duration": 3.2432435000000055
                },
                {
                    "name": "G#4",
                    "midi": 68,
                    "time": 183.474918,
                    "velocity": 0.5826771653543307,
                    "duration": 3.2432435000000055
                },
                {
                    "name": "D#4",
                    "midi": 63,
                    "time": 183.474918,
                    "velocity": 0.5826771653543307,
                    "duration": 3.2432435000000055
                },
                {
                    "name": "D#5",
                    "midi": 75,
                    "time": 183.474918,
                    "velocity": 0.5984251968503937,
                    "duration": 3.2432435000000055
                },
                {
                    "name": "D5",
                    "midi": 74,
                    "time": 186.7181615,
                    "velocity": 0.4330708661417323,
                    "duration": 0.4633205000000089
                },
                {
                    "name": "F5",
                    "midi": 77,
                    "time": 187.18148200000002,
                    "velocity": 0.4566929133858268,
                    "duration": 0.4633205000000089
                },
                {
                    "name": "D#5",
                    "midi": 75,
                    "time": 187.64480250000003,
                    "velocity": 0.4251968503937008,
                    "duration": 0.4633205000000089
                },
                {
                    "name": "B4",
                    "midi": 71,
                    "time": 188.10812300000003,
                    "velocity": 0.3464566929133858,
                    "duration": 0.4633205000000089
                },
                {
                    "name": "G#4",
                    "midi": 68,
                    "time": 188.57144350000004,
                    "velocity": 0.33070866141732286,
                    "duration": 0.4633205000000089
                },
                {
                    "name": "G4",
                    "midi": 67,
                    "time": 189.03476400000005,
                    "velocity": 0.3937007874015748,
                    "duration": 1.3899614999999983
                },
                {
                    "name": "G#4",
                    "midi": 68,
                    "time": 190.42472550000005,
                    "velocity": 0.3937007874015748,
                    "duration": 0.4633205000000089
                },
                {
                    "name": "A#4",
                    "midi": 70,
                    "time": 190.88804600000006,
                    "velocity": 0.4881889763779528,
                    "duration": 0.9266409999999894
                },
                {
                    "name": "D#4",
                    "midi": 63,
                    "time": 191.81468700000005,
                    "velocity": 0.4094488188976378,
                    "duration": 0.9266409999999894
                },
                {
                    "name": "G#4",
                    "midi": 68,
                    "time": 192.74132800000004,
                    "velocity": 0.4409448818897638,
                    "duration": 0.9266409999999894
                },
                {
                    "name": "D4",
                    "midi": 62,
                    "time": 193.66796900000003,
                    "velocity": 0.31496062992125984,
                    "duration": 0.9266409999999894
                },
                {
                    "name": "D#4",
                    "midi": 63,
                    "time": 194.59461000000002,
                    "velocity": 0.4881889763779528,
                    "duration": 1.3899614999999983
                },
                {
                    "name": "D4",
                    "midi": 62,
                    "time": 195.98457150000002,
                    "velocity": 0.4566929133858268,
                    "duration": 0.4633205000000089
                },
                {
                    "name": "C4",
                    "midi": 60,
                    "time": 196.44789200000002,
                    "velocity": 0.5275590551181102,
                    "duration": 1.3899614999999983
                },
                {
                    "name": "F4",
                    "midi": 65,
                    "time": 197.83785350000002,
                    "velocity": 0.5039370078740157,
                    "duration": 0.4633205000000089
                },
                {
                    "name": "G#4",
                    "midi": 68,
                    "time": 198.30117400000003,
                    "velocity": 0.5905511811023622,
                    "duration": 0.4633205000000089
                },
                {
                    "name": "C5",
                    "midi": 72,
                    "time": 198.74325897708337,
                    "velocity": 0.5590551181102362,
                    "duration": 0.4633205000000089
                },
                {
                    "name": "G5",
                    "midi": 79,
                    "time": 199.22781500000005,
                    "velocity": 0.6062992125984252,
                    "duration": 0.6949807500000134
                },
                {
                    "name": "F5",
                    "midi": 77,
                    "time": 199.92279575000006,
                    "velocity": 0.5748031496062992,
                    "duration": 0.23166025000000445
                },
                {
                    "name": "D#5",
                    "midi": 75,
                    "time": 200.15445600000007,
                    "velocity": 0.6062992125984252,
                    "duration": 0.9266409999999894
                },
                {
                    "name": "D5",
                    "midi": 74,
                    "time": 201.08109700000006,
                    "velocity": 0.5511811023622047,
                    "duration": 1.8532820000000072
                },
                {
                    "name": "D5",
                    "midi": 74,
                    "time": 202.93437900000006,
                    "velocity": 0.4330708661417323,
                    "duration": 0.3088803333333203
                },
                {
                    "name": "C5",
                    "midi": 72,
                    "time": 203.24325933333338,
                    "velocity": 0.4015748031496063,
                    "duration": 0.3088803333333203
                },
                {
                    "name": "A#4",
                    "midi": 70,
                    "time": 203.5521396666667,
                    "velocity": 0.3779527559055118,
                    "duration": 0.3088803333333203
                },
                {
                    "name": "G4",
                    "midi": 67,
                    "time": 203.86102000000002,
                    "velocity": 0.36220472440944884,
                    "duration": 0.9266409999999894
                },
                {
                    "name": "A#4",
                    "midi": 70,
                    "time": 203.86102000000002,
                    "velocity": 0.3937007874015748,
                    "duration": 0.9266409999999894
                },
                {
                    "name": "D#4",
                    "midi": 63,
                    "time": 204.787661,
                    "velocity": 0.4251968503937008,
                    "duration": 0.6949807500000134
                },
                {
                    "name": "G4",
                    "midi": 67,
                    "time": 204.787661,
                    "velocity": 0.4566929133858268,
                    "duration": 0.6949807500000134
                },
                {
                    "name": "D#5",
                    "midi": 75,
                    "time": 205.48264175000003,
                    "velocity": 0.5669291338582677,
                    "duration": 0.22007723749999286
                },
                {
                    "name": "G#4",
                    "midi": 68,
                    "time": 205.71430200000003,
                    "velocity": 0.5039370078740157,
                    "duration": 1.8532819999999788
                },
                {
                    "name": "D#4",
                    "midi": 63,
                    "time": 205.71430200000003,
                    "velocity": 0.5039370078740157,
                    "duration": 0.9266409999999894
                },
                {
                    "name": "D#5",
                    "midi": 75,
                    "time": 205.71430200000003,
                    "velocity": 0.5669291338582677,
                    "duration": 0.9266409999999894
                },
                {
                    "name": "D4",
                    "midi": 62,
                    "time": 206.64094300000002,
                    "velocity": 0.4330708661417323,
                    "duration": 0.9266409999999894
                },
                {
                    "name": "D5",
                    "midi": 74,
                    "time": 206.64094300000002,
                    "velocity": 0.47244094488188976,
                    "duration": 0.9266409999999894
                },
                {
                    "name": "G4",
                    "midi": 67,
                    "time": 207.567584,
                    "velocity": 0.4566929133858268,
                    "duration": 0.9266409999999894
                },
                {
                    "name": "A#4",
                    "midi": 70,
                    "time": 207.567584,
                    "velocity": 0.5196850393700787,
                    "duration": 0.9266409999999894
                },
                {
                    "name": "D#4",
                    "midi": 63,
                    "time": 208.494225,
                    "velocity": 0.44881889763779526,
                    "duration": 0.6949807500000134
                },
                {
                    "name": "G4",
                    "midi": 67,
                    "time": 208.494225,
                    "velocity": 0.5039370078740157,
                    "duration": 0.6949807500000134
                },
                {
                    "name": "D#5",
                    "midi": 75,
                    "time": 209.18920575,
                    "velocity": 0.5039370078740157,
                    "duration": 0.22007723749999286
                },
                {
                    "name": "G#4",
                    "midi": 68,
                    "time": 209.42086600000002,
                    "velocity": 0.4409448818897638,
                    "duration": 1.8532819999999788
                },
                {
                    "name": "D#4",
                    "midi": 63,
                    "time": 209.42086600000002,
                    "velocity": 0.4409448818897638,
                    "duration": 0.9266409999999894
                },
                {
                    "name": "D#5",
                    "midi": 75,
                    "time": 209.42086600000002,
                    "velocity": 0.49606299212598426,
                    "duration": 0.9266409999999894
                },
                {
                    "name": "D4",
                    "midi": 62,
                    "time": 210.347507,
                    "velocity": 0.3464566929133858,
                    "duration": 0.9266409999999894
                },
                {
                    "name": "D5",
                    "midi": 74,
                    "time": 210.347507,
                    "velocity": 0.3858267716535433,
                    "duration": 0.9266409999999894
                },
                {
                    "name": "D#4",
                    "midi": 63,
                    "time": 211.274148,
                    "velocity": 0.4094488188976378,
                    "duration": 0.9266409999999894
                },
                {
                    "name": "G4",
                    "midi": 67,
                    "time": 211.274148,
                    "velocity": 0.4094488188976378,
                    "duration": 0.9266409999999894
                },
                {
                    "name": "C4",
                    "midi": 60,
                    "time": 212.200789,
                    "velocity": 0.4015748031496063,
                    "duration": 0.6949807500000134
                },
                {
                    "name": "D#4",
                    "midi": 63,
                    "time": 212.200789,
                    "velocity": 0.4015748031496063,
                    "duration": 0.6949807500000134
                },
                {
                    "name": "G4",
                    "midi": 67,
                    "time": 212.89576975,
                    "velocity": 0.4094488188976378,
                    "duration": 0.23166025000000445
                },
                {
                    "name": "A#4",
                    "midi": 70,
                    "time": 212.89576975,
                    "velocity": 0.4094488188976378,
                    "duration": 0.23166025000000445
                },
                {
                    "name": "C4",
                    "midi": 60,
                    "time": 213.12743,
                    "velocity": 0.36220472440944884,
                    "duration": 0.9266410000000178
                },
                {
                    "name": "G4",
                    "midi": 67,
                    "time": 213.12743,
                    "velocity": 0.4094488188976378,
                    "duration": 0.4633205000000089
                },
                {
                    "name": "A#4",
                    "midi": 70,
                    "time": 213.12743,
                    "velocity": 0.4094488188976378,
                    "duration": 0.4633205000000089
                },
                {
                    "name": "F4",
                    "midi": 65,
                    "time": 213.5907505,
                    "velocity": 0.36220472440944884,
                    "duration": 0.4633205000000089
                },
                {
                    "name": "G#4",
                    "midi": 68,
                    "time": 213.5907505,
                    "velocity": 0.36220472440944884,
                    "duration": 0.4633205000000089
                },
                {
                    "name": "D#4",
                    "midi": 63,
                    "time": 214.05407100000002,
                    "velocity": 0.3858267716535433,
                    "duration": 0.4633205000000089
                },
                {
                    "name": "G4",
                    "midi": 67,
                    "time": 214.05407100000002,
                    "velocity": 0.3858267716535433,
                    "duration": 0.4633205000000089
                },
                {
                    "name": "D4",
                    "midi": 62,
                    "time": 214.51739150000003,
                    "velocity": 0.33858267716535434,
                    "duration": 0.4633205000000089
                },
                {
                    "name": "F4",
                    "midi": 65,
                    "time": 214.51739150000003,
                    "velocity": 0.33858267716535434,
                    "duration": 0.4633205000000089
                },
                {
                    "name": "F4",
                    "midi": 65,
                    "time": 214.98071200000004,
                    "velocity": 0.4251968503937008,
                    "duration": 1.8532820000000072
                },
                {
                    "name": "D#4",
                    "midi": 63,
                    "time": 216.83399400000005,
                    "velocity": 0.4094488188976378,
                    "duration": 1.8532820000000072
                },
                {
                    "name": "D#5",
                    "midi": 75,
                    "time": 219.61391700000004,
                    "velocity": 0.5196850393700787,
                    "duration": 1.8532820000000072
                },
                {
                    "name": "G4",
                    "midi": 67,
                    "time": 221.46719900000005,
                    "velocity": 0.4566929133858268,
                    "duration": 0.9266409999999894
                },
                {
                    "name": "A#4",
                    "midi": 70,
                    "time": 222.39384000000004,
                    "velocity": 0.5196850393700787,
                    "duration": 0.9266409999999894
                },
                {
                    "name": "G#4",
                    "midi": 68,
                    "time": 223.32048100000003,
                    "velocity": 0.4881889763779528,
                    "duration": 0.9266409999999894
                },
                {
                    "name": "G#4",
                    "midi": 68,
                    "time": 224.71044250000003,
                    "velocity": 0.4566929133858268,
                    "duration": 0.4633205000000089
                },
                {
                    "name": "G#4",
                    "midi": 68,
                    "time": 225.17376300000004,
                    "velocity": 0.47244094488188976,
                    "duration": 0.4633205000000089
                },
                {
                    "name": "F4",
                    "midi": 65,
                    "time": 225.63708350000005,
                    "velocity": 0.44881889763779526,
                    "duration": 0.4633205000000089
                },
                {
                    "name": "D#4",
                    "midi": 63,
                    "time": 226.10040400000005,
                    "velocity": 0.5433070866141733,
                    "duration": 1.8532820000000072
                },
                {
                    "name": "D4",
                    "midi": 62,
                    "time": 227.95368600000006,
                    "velocity": 0.5196850393700787,
                    "duration": 0.4633205000000089
                },
                {
                    "name": "A#3",
                    "midi": 58,
                    "time": 228.88032700000008,
                    "velocity": 0.5590551181102362,
                    "duration": 0.9266409999999894
                },
                {
                    "name": "G4",
                    "midi": 67,
                    "time": 229.80696800000007,
                    "velocity": 0.5984251968503937,
                    "duration": 1.3899614999999983
                },
                {
                    "name": "G#4",
                    "midi": 68,
                    "time": 231.19692950000007,
                    "velocity": 0.5433070866141733,
                    "duration": 0.4633205000000089
                },
                {
                    "name": "A#4",
                    "midi": 70,
                    "time": 231.66025000000008,
                    "velocity": 0.5984251968503937,
                    "duration": 0.9266409999999894
                },
                {
                    "name": "D#4",
                    "midi": 63,
                    "time": 232.58689100000007,
                    "velocity": 0.5669291338582677,
                    "duration": 0.9266409999999894
                },
                {
                    "name": "G#4",
                    "midi": 68,
                    "time": 233.51353200000005,
                    "velocity": 0.6220472440944882,
                    "duration": 3.706563999999986
                },
                {
                    "name": "G#4",
                    "midi": 68,
                    "time": 238.14673700000003,
                    "velocity": 0.3779527559055118,
                    "duration": 0.4633205000000089
                },
                {
                    "name": "G4",
                    "midi": 67,
                    "time": 238.61005750000004,
                    "velocity": 0.33858267716535434,
                    "duration": 0.4633205000000089
                },
                {
                    "name": "G4",
                    "midi": 67,
                    "time": 239.07337800000005,
                    "velocity": 0.36220472440944884,
                    "duration": 0.4633205000000089
                },
                {
                    "name": "F4",
                    "midi": 65,
                    "time": 239.53669850000006,
                    "velocity": 0.3464566929133858,
                    "duration": 0.4633205000000089
                },
                {
                    "name": "D#4",
                    "midi": 63,
                    "time": 240.00001900000007,
                    "velocity": 0.3228346456692913,
                    "duration": 0.42471045833332255
                },
                {
                    "name": "D4",
                    "midi": 62,
                    "time": 240.46333950000005,
                    "velocity": 0.30708661417322836,
                    "duration": 0.42471045833332255
                },
                {
                    "name": "F4",
                    "midi": 65,
                    "time": 240.92666000000003,
                    "velocity": 0.3779527559055118,
                    "duration": 2.7799229999999966
                },
                {
                    "name": "D#4",
                    "midi": 63,
                    "time": 243.70658300000002,
                    "velocity": 0.3779527559055118,
                    "duration": 0.9266409999999894
                },
                {
                    "name": "D#4",
                    "midi": 63,
                    "time": 244.633224,
                    "velocity": 0.3779527559055118,
                    "duration": 7.413128
                }
            ],
            "controlChanges": {
                "7": [
                    {
                        "number": 7,
                        "time": 0,
                        "value": 1
                    }
                ],
                "10": [
                    {
                        "number": 10,
                        "time": 0,
                        "value": 0.5039370078740157
                    }
                ],
                "91": [
                    {
                        "number": 91,
                        "time": 0,
                        "value": 1
                    }
                ]
            },
            "id": 1,
            "name": "Theme",
            "instrumentNumber": 0,
            "instrument": "acoustic grand piano",
            "instrumentFamily": "piano",
            "channelNumber": 0,
            "isPercussion": false
        },
        {
            "startTime": 0.3088803333333333,
            "duration": 252.0463519999984,
            "length": 369,
            "notes": [
                {
                    "name": "G3",
                    "midi": 55,
                    "time": 0.3088803333333333,
                    "velocity": 0.25196850393700787,
                    "duration": 0.3088803333333333
                },
                {
                    "name": "A#3",
                    "midi": 58,
                    "time": 0.6177606666666666,
                    "velocity": 0.2440944881889764,
                    "duration": 0.3088803333333333
                },
                {
                    "name": "D#4",
                    "midi": 63,
                    "time": 0.9266409999999999,
                    "velocity": 0.25984251968503935,
                    "duration": 0.3088803333333333
                },
                {
                    "name": "A#3",
                    "midi": 58,
                    "time": 1.2355213333333332,
                    "velocity": 0.2440944881889764,
                    "duration": 0.3088803333333332
                },
                {
                    "name": "G3",
                    "midi": 55,
                    "time": 1.5444016666666665,
                    "velocity": 0.2440944881889764,
                    "duration": 0.3088803333333332
                },
                {
                    "name": "G3",
                    "midi": 55,
                    "time": 2.162162333333333,
                    "velocity": 0.2440944881889764,
                    "duration": 0.3088803333333332
                },
                {
                    "name": "A#3",
                    "midi": 58,
                    "time": 2.471042666666666,
                    "velocity": 0.2440944881889764,
                    "duration": 0.3088803333333332
                },
                {
                    "name": "A#3",
                    "midi": 58,
                    "time": 3.0888033333333325,
                    "velocity": 0.23622047244094488,
                    "duration": 0.3088803333333332
                },
                {
                    "name": "G3",
                    "midi": 55,
                    "time": 3.3976836666666657,
                    "velocity": 0.23622047244094488,
                    "duration": 0.3088803333333332
                },
                {
                    "name": "G3",
                    "midi": 55,
                    "time": 4.015444333333332,
                    "velocity": 0.25196850393700787,
                    "duration": 0.30888033333333365
                },
                {
                    "name": "A#3",
                    "midi": 58,
                    "time": 4.324324666666666,
                    "velocity": 0.2440944881889764,
                    "duration": 0.30888033333333365
                },
                {
                    "name": "D#4",
                    "midi": 63,
                    "time": 4.633204999999999,
                    "velocity": 0.29133858267716534,
                    "duration": 0.30888033333333365
                },
                {
                    "name": "A#3",
                    "midi": 58,
                    "time": 4.942085333333333,
                    "velocity": 0.2440944881889764,
                    "duration": 0.30888033333333365
                },
                {
                    "name": "G3",
                    "midi": 55,
                    "time": 5.250965666666667,
                    "velocity": 0.2440944881889764,
                    "duration": 0.30888033333333365
                },
                {
                    "name": "G3",
                    "midi": 55,
                    "time": 5.868726333333334,
                    "velocity": 0.2440944881889764,
                    "duration": 0.30888033333333365
                },
                {
                    "name": "A#3",
                    "midi": 58,
                    "time": 6.177606666666668,
                    "velocity": 0.2440944881889764,
                    "duration": 0.30888033333333365
                },
                {
                    "name": "A#3",
                    "midi": 58,
                    "time": 6.795367333333335,
                    "velocity": 0.23622047244094488,
                    "duration": 0.30888033333333365
                },
                {
                    "name": "G3",
                    "midi": 55,
                    "time": 7.1042476666666685,
                    "velocity": 0.23622047244094488,
                    "duration": 0.30888033333333365
                },
                {
                    "name": "G#3",
                    "midi": 56,
                    "time": 7.722008333333336,
                    "velocity": 0.25196850393700787,
                    "duration": 0.30888033333333365
                },
                {
                    "name": "A#3",
                    "midi": 58,
                    "time": 8.03088866666667,
                    "velocity": 0.2440944881889764,
                    "duration": 0.30888033333333276
                },
                {
                    "name": "A#3",
                    "midi": 58,
                    "time": 8.648649333333335,
                    "velocity": 0.2440944881889764,
                    "duration": 0.30888033333333276
                },
                {
                    "name": "G#3",
                    "midi": 56,
                    "time": 8.957529666666668,
                    "velocity": 0.2440944881889764,
                    "duration": 0.30888033333333276
                },
                {
                    "name": "G#4",
                    "midi": 68,
                    "time": 15.752897,
                    "velocity": 0.28346456692913385,
                    "duration": 0.30888033333333453
                },
                {
                    "name": "F4",
                    "midi": 65,
                    "time": 16.061777333333335,
                    "velocity": 0.28346456692913385,
                    "duration": 0.30888033333333453
                },
                {
                    "name": "D4",
                    "midi": 62,
                    "time": 16.37065766666667,
                    "velocity": 0.2440944881889764,
                    "duration": 0.30888033333333453
                },
                {
                    "name": "G#4",
                    "midi": 68,
                    "time": 16.679538000000004,
                    "velocity": 0.25984251968503935,
                    "duration": 0.30888033333333453
                },
                {
                    "name": "F4",
                    "midi": 65,
                    "time": 16.98841833333334,
                    "velocity": 0.2283464566929134,
                    "duration": 0.30888033333333453
                },
                {
                    "name": "D4",
                    "midi": 62,
                    "time": 17.297298666666673,
                    "velocity": 0.2283464566929134,
                    "duration": 0.30888033333333453
                },
                {
                    "name": "G#4",
                    "midi": 68,
                    "time": 17.606179000000008,
                    "velocity": 0.2125984251968504,
                    "duration": 0.30888033333333453
                },
                {
                    "name": "F4",
                    "midi": 65,
                    "time": 17.915059333333343,
                    "velocity": 0.2125984251968504,
                    "duration": 0.30888033333333453
                },
                {
                    "name": "D4",
                    "midi": 62,
                    "time": 18.223939666666677,
                    "velocity": 0.18110236220472442,
                    "duration": 0.30888033333333453
                },
                {
                    "name": "G3",
                    "midi": 55,
                    "time": 18.841700333333346,
                    "velocity": 0.23622047244094488,
                    "duration": 0.30888033333333453
                },
                {
                    "name": "A#3",
                    "midi": 58,
                    "time": 19.15058066666668,
                    "velocity": 0.23622047244094488,
                    "duration": 0.30888033333333453
                },
                {
                    "name": "D#4",
                    "midi": 63,
                    "time": 19.459461000000015,
                    "velocity": 0.2992125984251969,
                    "duration": 0.30888033333333453
                },
                {
                    "name": "A#3",
                    "midi": 58,
                    "time": 19.76834133333335,
                    "velocity": 0.2440944881889764,
                    "duration": 0.30888033333333453
                },
                {
                    "name": "G3",
                    "midi": 55,
                    "time": 20.077221666666684,
                    "velocity": 0.2440944881889764,
                    "duration": 0.30888033333333453
                },
                {
                    "name": "G3",
                    "midi": 55,
                    "time": 20.694982333333353,
                    "velocity": 0.2440944881889764,
                    "duration": 0.30888033333333453
                },
                {
                    "name": "A#3",
                    "midi": 58,
                    "time": 21.003862666666688,
                    "velocity": 0.2440944881889764,
                    "duration": 0.30888033333333453
                },
                {
                    "name": "A#3",
                    "midi": 58,
                    "time": 21.621623333333357,
                    "velocity": 0.23622047244094488,
                    "duration": 0.30888033333333453
                },
                {
                    "name": "G3",
                    "midi": 55,
                    "time": 21.93050366666669,
                    "velocity": 0.23622047244094488,
                    "duration": 0.30888033333333453
                },
                {
                    "name": "G#3",
                    "midi": 56,
                    "time": 22.54826433333336,
                    "velocity": 0.25196850393700787,
                    "duration": 0.30888033333333453
                },
                {
                    "name": "A#3",
                    "midi": 58,
                    "time": 22.857144666666695,
                    "velocity": 0.2440944881889764,
                    "duration": 0.30888033333333453
                },
                {
                    "name": "A#3",
                    "midi": 58,
                    "time": 23.474905333333364,
                    "velocity": 0.2440944881889764,
                    "duration": 0.30888033333333453
                },
                {
                    "name": "G#3",
                    "midi": 56,
                    "time": 23.7837856666667,
                    "velocity": 0.2440944881889764,
                    "duration": 0.30888033333333453
                },
                {
                    "name": "F4",
                    "midi": 65,
                    "time": 29.961392333333364,
                    "velocity": 0.3543307086614173,
                    "duration": 0.30888033333333453
                },
                {
                    "name": "G4",
                    "midi": 67,
                    "time": 30.2702726666667,
                    "velocity": 0.3543307086614173,
                    "duration": 0.30888033333333453
                },
                {
                    "name": "B4",
                    "midi": 71,
                    "time": 30.579153000000034,
                    "velocity": 0.28346456692913385,
                    "duration": 0.30888033333333453
                },
                {
                    "name": "G4",
                    "midi": 67,
                    "time": 30.888033333333368,
                    "velocity": 0.3543307086614173,
                    "duration": 0.30888033333333453
                },
                {
                    "name": "F4",
                    "midi": 65,
                    "time": 31.196913666666703,
                    "velocity": 0.3464566929133858,
                    "duration": 0.30888033333333453
                },
                {
                    "name": "A#3",
                    "midi": 58,
                    "time": 33.66795633333337,
                    "velocity": 0.25196850393700787,
                    "duration": 0.30888033333333453
                },
                {
                    "name": "D4",
                    "midi": 62,
                    "time": 33.976836666666706,
                    "velocity": 0.2440944881889764,
                    "duration": 0.30888033333333453
                },
                {
                    "name": "D4",
                    "midi": 62,
                    "time": 34.594597333333375,
                    "velocity": 0.2440944881889764,
                    "duration": 0.30888033333333453
                },
                {
                    "name": "A#3",
                    "midi": 58,
                    "time": 34.90347766666671,
                    "velocity": 0.2440944881889764,
                    "duration": 0.30888033333333453
                },
                {
                    "name": "A3",
                    "midi": 57,
                    "time": 35.52123833333338,
                    "velocity": 0.25196850393700787,
                    "duration": 0.30888033333333453
                },
                {
                    "name": "C4",
                    "midi": 60,
                    "time": 35.83011866666671,
                    "velocity": 0.2440944881889764,
                    "duration": 0.30888033333333453
                },
                {
                    "name": "C4",
                    "midi": 60,
                    "time": 36.44787933333338,
                    "velocity": 0.25196850393700787,
                    "duration": 0.30888033333333453
                },
                {
                    "name": "A3",
                    "midi": 57,
                    "time": 36.75675966666672,
                    "velocity": 0.2440944881889764,
                    "duration": 0.30888033333333453
                },
                {
                    "name": "D4",
                    "midi": 62,
                    "time": 37.374520333333386,
                    "velocity": 0.25196850393700787,
                    "duration": 0.30888033333333453
                },
                {
                    "name": "D#4",
                    "midi": 63,
                    "time": 37.68340066666672,
                    "velocity": 0.2440944881889764,
                    "duration": 0.30888033333333453
                },
                {
                    "name": "F4",
                    "midi": 65,
                    "time": 37.992281000000055,
                    "velocity": 0.25984251968503935,
                    "duration": 0.30888033333333453
                },
                {
                    "name": "D4",
                    "midi": 62,
                    "time": 38.30116133333339,
                    "velocity": 0.2440944881889764,
                    "duration": 0.30888033333333453
                },
                {
                    "name": "D#4",
                    "midi": 63,
                    "time": 38.610041666666724,
                    "velocity": 0.2440944881889764,
                    "duration": 0.30888033333333453
                },
                {
                    "name": "F4",
                    "midi": 65,
                    "time": 38.91892200000006,
                    "velocity": 0.29133858267716534,
                    "duration": 0.30888033333333453
                },
                {
                    "name": "D4",
                    "midi": 62,
                    "time": 39.22780233333339,
                    "velocity": 0.25196850393700787,
                    "duration": 0.30888033333333453
                },
                {
                    "name": "D#4",
                    "midi": 63,
                    "time": 39.53668266666673,
                    "velocity": 0.2440944881889764,
                    "duration": 0.30888033333333453
                },
                {
                    "name": "F4",
                    "midi": 65,
                    "time": 39.84556300000006,
                    "velocity": 0.28346456692913385,
                    "duration": 0.30888033333333453
                },
                {
                    "name": "G#4",
                    "midi": 68,
                    "time": 40.1544433333334,
                    "velocity": 0.29133858267716534,
                    "duration": 0.30888033333333453
                },
                {
                    "name": "G4",
                    "midi": 67,
                    "time": 40.46332366666673,
                    "velocity": 0.2440944881889764,
                    "duration": 0.30888033333333453
                },
                {
                    "name": "F4",
                    "midi": 65,
                    "time": 40.772204000000066,
                    "velocity": 0.28346456692913385,
                    "duration": 0.30888033333333453
                },
                {
                    "name": "G#4",
                    "midi": 68,
                    "time": 41.0810843333334,
                    "velocity": 0.2755905511811024,
                    "duration": 0.30888033333333453
                },
                {
                    "name": "G4",
                    "midi": 67,
                    "time": 41.389964666666735,
                    "velocity": 0.2755905511811024,
                    "duration": 0.30888033333333453
                },
                {
                    "name": "F4",
                    "midi": 65,
                    "time": 41.69884500000007,
                    "velocity": 0.28346456692913385,
                    "duration": 0.30888033333333453
                },
                {
                    "name": "D#4",
                    "midi": 63,
                    "time": 42.007725333333404,
                    "velocity": 0.25984251968503935,
                    "duration": 0.30888033333333453
                },
                {
                    "name": "D4",
                    "midi": 62,
                    "time": 42.31660566666674,
                    "velocity": 0.25984251968503935,
                    "duration": 0.30888033333333453
                },
                {
                    "name": "C4",
                    "midi": 60,
                    "time": 42.62548600000007,
                    "velocity": 0.28346456692913385,
                    "duration": 0.30888033333333453
                },
                {
                    "name": "A#3",
                    "midi": 58,
                    "time": 42.93436633333341,
                    "velocity": 0.2755905511811024,
                    "duration": 0.30888033333333453
                },
                {
                    "name": "A3",
                    "midi": 57,
                    "time": 43.24324666666674,
                    "velocity": 0.25984251968503935,
                    "duration": 0.30888033333333453
                },
                {
                    "name": "G#3",
                    "midi": 56,
                    "time": 43.55212700000008,
                    "velocity": 0.2992125984251969,
                    "duration": 0.30888033333333453
                },
                {
                    "name": "G3",
                    "midi": 55,
                    "time": 43.86100733333341,
                    "velocity": 0.2440944881889764,
                    "duration": 0.30888033333333453
                },
                {
                    "name": "G#3",
                    "midi": 56,
                    "time": 44.169887666666746,
                    "velocity": 0.23622047244094488,
                    "duration": 0.30888033333333453
                },
                {
                    "name": "G3",
                    "midi": 55,
                    "time": 44.787648333333415,
                    "velocity": 0.25196850393700787,
                    "duration": 0.30888033333333453
                },
                {
                    "name": "A#3",
                    "midi": 58,
                    "time": 45.09652866666675,
                    "velocity": 0.2440944881889764,
                    "duration": 0.30888033333333453
                },
                {
                    "name": "D#4",
                    "midi": 63,
                    "time": 45.405409000000084,
                    "velocity": 0.2992125984251969,
                    "duration": 0.30888033333333453
                },
                {
                    "name": "A#3",
                    "midi": 58,
                    "time": 45.71428933333342,
                    "velocity": 0.2440944881889764,
                    "duration": 0.30888033333333453
                },
                {
                    "name": "G3",
                    "midi": 55,
                    "time": 46.02316966666675,
                    "velocity": 0.2440944881889764,
                    "duration": 0.30888033333333453
                },
                {
                    "name": "G3",
                    "midi": 55,
                    "time": 46.64093033333342,
                    "velocity": 0.2440944881889764,
                    "duration": 0.30888033333333453
                },
                {
                    "name": "A#3",
                    "midi": 58,
                    "time": 46.94981066666676,
                    "velocity": 0.2440944881889764,
                    "duration": 0.30888033333333453
                },
                {
                    "name": "A#3",
                    "midi": 58,
                    "time": 47.567571333333426,
                    "velocity": 0.23622047244094488,
                    "duration": 0.30888033333333453
                },
                {
                    "name": "G3",
                    "midi": 55,
                    "time": 47.87645166666676,
                    "velocity": 0.23622047244094488,
                    "duration": 0.30888033333333453
                },
                {
                    "name": "G#3",
                    "midi": 56,
                    "time": 48.49421233333343,
                    "velocity": 0.25196850393700787,
                    "duration": 0.30888033333333453
                },
                {
                    "name": "A#3",
                    "midi": 58,
                    "time": 48.803092666666764,
                    "velocity": 0.2440944881889764,
                    "duration": 0.30888033333333453
                },
                {
                    "name": "A#3",
                    "midi": 58,
                    "time": 49.42085333333343,
                    "velocity": 0.2440944881889764,
                    "duration": 0.30888033333333453
                },
                {
                    "name": "G#3",
                    "midi": 56,
                    "time": 49.72973366666677,
                    "velocity": 0.2440944881889764,
                    "duration": 0.30888033333333453
                },
                {
                    "name": "G#4",
                    "midi": 68,
                    "time": 56.5251010000001,
                    "velocity": 0.28346456692913385,
                    "duration": 0.30888033333333453
                },
                {
                    "name": "F4",
                    "midi": 65,
                    "time": 56.83398133333343,
                    "velocity": 0.28346456692913385,
                    "duration": 0.30888033333333453
                },
                {
                    "name": "D4",
                    "midi": 62,
                    "time": 57.14286166666677,
                    "velocity": 0.2440944881889764,
                    "duration": 0.30888033333333453
                },
                {
                    "name": "G#4",
                    "midi": 68,
                    "time": 57.4517420000001,
                    "velocity": 0.25984251968503935,
                    "duration": 0.30888033333333453
                },
                {
                    "name": "F4",
                    "midi": 65,
                    "time": 57.76062233333344,
                    "velocity": 0.2283464566929134,
                    "duration": 0.30888033333333453
                },
                {
                    "name": "D4",
                    "midi": 62,
                    "time": 58.06950266666677,
                    "velocity": 0.2283464566929134,
                    "duration": 0.30888033333333453
                },
                {
                    "name": "G#4",
                    "midi": 68,
                    "time": 58.378383000000106,
                    "velocity": 0.2125984251968504,
                    "duration": 0.30888033333333453
                },
                {
                    "name": "F4",
                    "midi": 65,
                    "time": 58.68726333333344,
                    "velocity": 0.2125984251968504,
                    "duration": 0.30888033333333453
                },
                {
                    "name": "D4",
                    "midi": 62,
                    "time": 58.996143666666775,
                    "velocity": 0.18110236220472442,
                    "duration": 0.30888033333333453
                },
                {
                    "name": "G3",
                    "midi": 55,
                    "time": 59.613904333333444,
                    "velocity": 0.25196850393700787,
                    "duration": 0.30888033333333453
                },
                {
                    "name": "A#3",
                    "midi": 58,
                    "time": 59.92278466666678,
                    "velocity": 0.2440944881889764,
                    "duration": 0.30888033333333453
                },
                {
                    "name": "D#4",
                    "midi": 63,
                    "time": 60.23166500000011,
                    "velocity": 0.2992125984251969,
                    "duration": 0.30888033333333453
                },
                {
                    "name": "A#3",
                    "midi": 58,
                    "time": 60.54054533333345,
                    "velocity": 0.2440944881889764,
                    "duration": 0.30888033333333453
                },
                {
                    "name": "G3",
                    "midi": 55,
                    "time": 60.84942566666678,
                    "velocity": 0.2440944881889764,
                    "duration": 0.30888033333333453
                },
                {
                    "name": "G3",
                    "midi": 55,
                    "time": 61.46718633333345,
                    "velocity": 0.2440944881889764,
                    "duration": 0.30888033333333453
                },
                {
                    "name": "A#3",
                    "midi": 58,
                    "time": 61.776066666666786,
                    "velocity": 0.2440944881889764,
                    "duration": 0.30888033333333453
                },
                {
                    "name": "A#3",
                    "midi": 58,
                    "time": 62.393827333333455,
                    "velocity": 0.23622047244094488,
                    "duration": 0.30888033333333453
                },
                {
                    "name": "G3",
                    "midi": 55,
                    "time": 62.70270766666679,
                    "velocity": 0.23622047244094488,
                    "duration": 0.30888033333333453
                },
                {
                    "name": "G#3",
                    "midi": 56,
                    "time": 63.32046833333346,
                    "velocity": 0.25196850393700787,
                    "duration": 0.30888033333333453
                },
                {
                    "name": "A#3",
                    "midi": 58,
                    "time": 63.62934866666679,
                    "velocity": 0.2440944881889764,
                    "duration": 0.30888033333333453
                },
                {
                    "name": "A#3",
                    "midi": 58,
                    "time": 64.24710933333346,
                    "velocity": 0.2440944881889764,
                    "duration": 0.30888033333333453
                },
                {
                    "name": "G#3",
                    "midi": 56,
                    "time": 64.55598966666679,
                    "velocity": 0.2440944881889764,
                    "duration": 0.30888033333333453
                },
                {
                    "name": "F4",
                    "midi": 65,
                    "time": 70.73359633333345,
                    "velocity": 0.3543307086614173,
                    "duration": 0.30888033333333453
                },
                {
                    "name": "G4",
                    "midi": 67,
                    "time": 71.04247666666679,
                    "velocity": 0.3543307086614173,
                    "duration": 0.30888033333333453
                },
                {
                    "name": "B4",
                    "midi": 71,
                    "time": 71.35135700000012,
                    "velocity": 0.28346456692913385,
                    "duration": 0.30888033333333453
                },
                {
                    "name": "G4",
                    "midi": 67,
                    "time": 71.66023733333346,
                    "velocity": 0.3543307086614173,
                    "duration": 0.30888033333333453
                },
                {
                    "name": "F4",
                    "midi": 65,
                    "time": 71.96911766666679,
                    "velocity": 0.3464566929133858,
                    "duration": 0.30888033333333453
                },
                {
                    "name": "A#3",
                    "midi": 58,
                    "time": 74.44016033333345,
                    "velocity": 0.25196850393700787,
                    "duration": 0.30888033333333453
                },
                {
                    "name": "D4",
                    "midi": 62,
                    "time": 74.74904066666679,
                    "velocity": 0.2440944881889764,
                    "duration": 0.30888033333333453
                },
                {
                    "name": "D4",
                    "midi": 62,
                    "time": 75.36680133333346,
                    "velocity": 0.2440944881889764,
                    "duration": 0.30888033333333453
                },
                {
                    "name": "A#3",
                    "midi": 58,
                    "time": 75.67568166666679,
                    "velocity": 0.2440944881889764,
                    "duration": 0.30888033333333453
                },
                {
                    "name": "A3",
                    "midi": 57,
                    "time": 76.29344233333346,
                    "velocity": 0.25196850393700787,
                    "duration": 0.30888033333333453
                },
                {
                    "name": "C4",
                    "midi": 60,
                    "time": 76.6023226666668,
                    "velocity": 0.2440944881889764,
                    "duration": 0.30888033333333453
                },
                {
                    "name": "C4",
                    "midi": 60,
                    "time": 77.22008333333346,
                    "velocity": 0.25196850393700787,
                    "duration": 0.30888033333333453
                },
                {
                    "name": "A3",
                    "midi": 57,
                    "time": 77.5289636666668,
                    "velocity": 0.2440944881889764,
                    "duration": 0.30888033333333453
                },
                {
                    "name": "D4",
                    "midi": 62,
                    "time": 78.14672433333347,
                    "velocity": 0.25196850393700787,
                    "duration": 0.30888033333333453
                },
                {
                    "name": "D#4",
                    "midi": 63,
                    "time": 78.4556046666668,
                    "velocity": 0.2440944881889764,
                    "duration": 0.30888033333333453
                },
                {
                    "name": "F4",
                    "midi": 65,
                    "time": 78.76448500000014,
                    "velocity": 0.25984251968503935,
                    "duration": 0.30888033333333453
                },
                {
                    "name": "D4",
                    "midi": 62,
                    "time": 79.07336533333347,
                    "velocity": 0.2440944881889764,
                    "duration": 0.30888033333333453
                },
                {
                    "name": "D#4",
                    "midi": 63,
                    "time": 79.3822456666668,
                    "velocity": 0.2440944881889764,
                    "duration": 0.30888033333333453
                },
                {
                    "name": "F4",
                    "midi": 65,
                    "time": 79.69112600000014,
                    "velocity": 0.29133858267716534,
                    "duration": 0.30888033333333453
                },
                {
                    "name": "D4",
                    "midi": 62,
                    "time": 80.00000633333347,
                    "velocity": 0.25196850393700787,
                    "duration": 0.30888033333333453
                },
                {
                    "name": "D#4",
                    "midi": 63,
                    "time": 80.30888666666681,
                    "velocity": 0.2440944881889764,
                    "duration": 0.30888033333333453
                },
                {
                    "name": "F4",
                    "midi": 65,
                    "time": 80.61776700000014,
                    "velocity": 0.28346456692913385,
                    "duration": 0.30888033333333453
                },
                {
                    "name": "G#4",
                    "midi": 68,
                    "time": 80.92664733333348,
                    "velocity": 0.29133858267716534,
                    "duration": 0.30888033333333453
                },
                {
                    "name": "G4",
                    "midi": 67,
                    "time": 81.23552766666681,
                    "velocity": 0.2440944881889764,
                    "duration": 0.30888033333333453
                },
                {
                    "name": "F4",
                    "midi": 65,
                    "time": 81.54440800000015,
                    "velocity": 0.28346456692913385,
                    "duration": 0.30888033333333453
                },
                {
                    "name": "G#4",
                    "midi": 68,
                    "time": 81.85328833333348,
                    "velocity": 0.2755905511811024,
                    "duration": 0.30888033333333453
                },
                {
                    "name": "G4",
                    "midi": 67,
                    "time": 82.16216866666682,
                    "velocity": 0.2755905511811024,
                    "duration": 0.30888033333333453
                },
                {
                    "name": "F4",
                    "midi": 65,
                    "time": 82.47104900000015,
                    "velocity": 0.28346456692913385,
                    "duration": 0.30888033333333453
                },
                {
                    "name": "D#4",
                    "midi": 63,
                    "time": 82.77992933333348,
                    "velocity": 0.25984251968503935,
                    "duration": 0.30888033333333453
                },
                {
                    "name": "D4",
                    "midi": 62,
                    "time": 83.08880966666682,
                    "velocity": 0.25984251968503935,
                    "duration": 0.30888033333333453
                },
                {
                    "name": "C4",
                    "midi": 60,
                    "time": 83.39769000000015,
                    "velocity": 0.28346456692913385,
                    "duration": 0.30888033333333453
                },
                {
                    "name": "A#3",
                    "midi": 58,
                    "time": 83.70657033333349,
                    "velocity": 0.2755905511811024,
                    "duration": 0.30888033333333453
                },
                {
                    "name": "A3",
                    "midi": 57,
                    "time": 84.01545066666682,
                    "velocity": 0.25984251968503935,
                    "duration": 0.30888033333333453
                },
                {
                    "name": "A#3",
                    "midi": 58,
                    "time": 84.32433100000016,
                    "velocity": 0.2992125984251969,
                    "duration": 0.30888033333333453
                },
                {
                    "name": "D#4",
                    "midi": 63,
                    "time": 84.63321133333349,
                    "velocity": 0.3228346456692913,
                    "duration": 0.30888033333333453
                },
                {
                    "name": "F4",
                    "midi": 65,
                    "time": 84.94209166666683,
                    "velocity": 0.3543307086614173,
                    "duration": 0.30888033333333453
                },
                {
                    "name": "F#4",
                    "midi": 66,
                    "time": 85.25097200000016,
                    "velocity": 0.4015748031496063,
                    "duration": 0.30888033333333453
                },
                {
                    "name": "A#3",
                    "midi": 58,
                    "time": 85.5598523333335,
                    "velocity": 0.29133858267716534,
                    "duration": 0.30888033333333453
                },
                {
                    "name": "D#4",
                    "midi": 63,
                    "time": 85.86873266666683,
                    "velocity": 0.29133858267716534,
                    "duration": 0.30888033333333453
                },
                {
                    "name": "D#4",
                    "midi": 63,
                    "time": 86.4864933333335,
                    "velocity": 0.28346456692913385,
                    "duration": 0.30888033333333453
                },
                {
                    "name": "B3",
                    "midi": 59,
                    "time": 86.79537366666683,
                    "velocity": 0.2755905511811024,
                    "duration": 0.30888033333333453
                },
                {
                    "name": "D4",
                    "midi": 62,
                    "time": 87.10425400000017,
                    "velocity": 0.36220472440944884,
                    "duration": 0.30888033333333453
                },
                {
                    "name": "F3",
                    "midi": 53,
                    "time": 87.4131343333335,
                    "velocity": 0.29133858267716534,
                    "duration": 0.30888033333333453
                },
                {
                    "name": "A#3",
                    "midi": 58,
                    "time": 87.72201466666684,
                    "velocity": 0.28346456692913385,
                    "duration": 0.30888033333333453
                },
                {
                    "name": "D4",
                    "midi": 62,
                    "time": 88.03089500000017,
                    "velocity": 0.3228346456692913,
                    "duration": 0.30888033333333453
                },
                {
                    "name": "D#4",
                    "midi": 63,
                    "time": 88.3397753333335,
                    "velocity": 0.3779527559055118,
                    "duration": 0.23166025000000445
                },
                {
                    "name": "F4",
                    "midi": 65,
                    "time": 88.64865566666684,
                    "velocity": 0.41732283464566927,
                    "duration": 0.23166025000000445
                },
                {
                    "name": "F#4",
                    "midi": 66,
                    "time": 88.95753600000018,
                    "velocity": 0.4881889763779528,
                    "duration": 0.30888033333333453
                },
                {
                    "name": "D#4",
                    "midi": 63,
                    "time": 89.26641633333351,
                    "velocity": 0.3858267716535433,
                    "duration": 0.30888033333333453
                },
                {
                    "name": "F#4",
                    "midi": 66,
                    "time": 89.57529666666684,
                    "velocity": 0.4251968503937008,
                    "duration": 0.30888033333333453
                },
                {
                    "name": "B4",
                    "midi": 71,
                    "time": 89.88417700000018,
                    "velocity": 0.5196850393700787,
                    "duration": 0.30888033333333453
                },
                {
                    "name": "G#4",
                    "midi": 68,
                    "time": 90.19305733333351,
                    "velocity": 0.3543307086614173,
                    "duration": 0.30888033333333453
                },
                {
                    "name": "D#4",
                    "midi": 63,
                    "time": 90.50193766666685,
                    "velocity": 0.2992125984251969,
                    "duration": 0.30888033333333453
                },
                {
                    "name": "F4",
                    "midi": 65,
                    "time": 90.81081800000018,
                    "velocity": 0.4015748031496063,
                    "duration": 0.30888033333333453
                },
                {
                    "name": "B3",
                    "midi": 59,
                    "time": 91.11969833333352,
                    "velocity": 0.3228346456692913,
                    "duration": 0.30888033333333453
                },
                {
                    "name": "C#4",
                    "midi": 61,
                    "time": 91.42857866666685,
                    "velocity": 0.30708661417322836,
                    "duration": 0.30888033333333453
                },
                {
                    "name": "F4",
                    "midi": 65,
                    "time": 91.73745900000019,
                    "velocity": 0.3543307086614173,
                    "duration": 0.30888033333333453
                },
                {
                    "name": "D#4",
                    "midi": 63,
                    "time": 92.04633933333352,
                    "velocity": 0.3464566929133858,
                    "duration": 0.23166025000000445
                },
                {
                    "name": "F4",
                    "midi": 65,
                    "time": 92.35521966666686,
                    "velocity": 0.3543307086614173,
                    "duration": 0.23166025000000445
                },
                {
                    "name": "F#4",
                    "midi": 66,
                    "time": 92.66410000000019,
                    "velocity": 0.4015748031496063,
                    "duration": 0.30888033333333453
                },
                {
                    "name": "A#3",
                    "midi": 58,
                    "time": 92.97298033333352,
                    "velocity": 0.29133858267716534,
                    "duration": 0.30888033333333453
                },
                {
                    "name": "C#4",
                    "midi": 61,
                    "time": 93.28186066666686,
                    "velocity": 0.29133858267716534,
                    "duration": 0.30888033333333453
                },
                {
                    "name": "F4",
                    "midi": 65,
                    "time": 93.89962133333353,
                    "velocity": 0.28346456692913385,
                    "duration": 0.30888033333333453
                },
                {
                    "name": "B3",
                    "midi": 59,
                    "time": 94.20850166666686,
                    "velocity": 0.2755905511811024,
                    "duration": 0.30888033333333453
                },
                {
                    "name": "D4",
                    "midi": 62,
                    "time": 94.5173820000002,
                    "velocity": 0.36220472440944884,
                    "duration": 0.30888033333333453
                },
                {
                    "name": "F3",
                    "midi": 53,
                    "time": 94.82626233333353,
                    "velocity": 0.29133858267716534,
                    "duration": 0.30888033333333453
                },
                {
                    "name": "A#3",
                    "midi": 58,
                    "time": 95.13514266666687,
                    "velocity": 0.28346456692913385,
                    "duration": 0.30888033333333453
                },
                {
                    "name": "D4",
                    "midi": 62,
                    "time": 95.4440230000002,
                    "velocity": 0.3228346456692913,
                    "duration": 0.30888033333333453
                },
                {
                    "name": "D#4",
                    "midi": 63,
                    "time": 95.75290333333353,
                    "velocity": 0.41732283464566927,
                    "duration": 0.23166025000000445
                },
                {
                    "name": "F4",
                    "midi": 65,
                    "time": 96.06178366666687,
                    "velocity": 0.4566929133858268,
                    "duration": 0.23166025000000445
                },
                {
                    "name": "F#4",
                    "midi": 66,
                    "time": 96.3706640000002,
                    "velocity": 0.47244094488188976,
                    "duration": 0.30888033333333453
                },
                {
                    "name": "D#4",
                    "midi": 63,
                    "time": 96.67954433333354,
                    "velocity": 0.4094488188976378,
                    "duration": 0.30888033333333453
                },
                {
                    "name": "F#4",
                    "midi": 66,
                    "time": 96.98842466666687,
                    "velocity": 0.4881889763779528,
                    "duration": 0.30888033333333453
                },
                {
                    "name": "B4",
                    "midi": 71,
                    "time": 97.29730500000021,
                    "velocity": 0.5196850393700787,
                    "duration": 0.30888033333333453
                },
                {
                    "name": "G#4",
                    "midi": 68,
                    "time": 97.60618533333354,
                    "velocity": 0.3543307086614173,
                    "duration": 0.30888033333333453
                },
                {
                    "name": "D#4",
                    "midi": 63,
                    "time": 97.91506566666688,
                    "velocity": 0.2992125984251969,
                    "duration": 0.30888033333333453
                },
                {
                    "name": "F4",
                    "midi": 65,
                    "time": 98.22394600000021,
                    "velocity": 0.4409448818897638,
                    "duration": 0.30888033333333453
                },
                {
                    "name": "B3",
                    "midi": 59,
                    "time": 98.53282633333355,
                    "velocity": 0.4094488188976378,
                    "duration": 0.30888033333333453
                },
                {
                    "name": "C#4",
                    "midi": 61,
                    "time": 98.84170666666688,
                    "velocity": 0.4094488188976378,
                    "duration": 0.30888033333333453
                },
                {
                    "name": "F4",
                    "midi": 65,
                    "time": 99.15058700000021,
                    "velocity": 0.4645669291338583,
                    "duration": 0.30888033333333453
                },
                {
                    "name": "C#4",
                    "midi": 61,
                    "time": 99.45946733333355,
                    "velocity": 0.49606299212598426,
                    "duration": 0.23166025000000445
                },
                {
                    "name": "B3",
                    "midi": 59,
                    "time": 99.76834766666688,
                    "velocity": 0.5039370078740157,
                    "duration": 0.23166025000000445
                },
                {
                    "name": "G3",
                    "midi": 55,
                    "time": 122.62549233333355,
                    "velocity": 0.25196850393700787,
                    "duration": 0.30888033333333453
                },
                {
                    "name": "A#3",
                    "midi": 58,
                    "time": 122.93437266666689,
                    "velocity": 0.2440944881889764,
                    "duration": 0.30888033333333453
                },
                {
                    "name": "D#4",
                    "midi": 63,
                    "time": 123.24325300000022,
                    "velocity": 0.3228346456692913,
                    "duration": 0.30888033333333453
                },
                {
                    "name": "A#3",
                    "midi": 58,
                    "time": 123.55213333333356,
                    "velocity": 0.2440944881889764,
                    "duration": 0.30888033333333453
                },
                {
                    "name": "G3",
                    "midi": 55,
                    "time": 123.86101366666689,
                    "velocity": 0.2440944881889764,
                    "duration": 0.30888033333333453
                },
                {
                    "name": "G3",
                    "midi": 55,
                    "time": 124.47877433333356,
                    "velocity": 0.2440944881889764,
                    "duration": 0.30888033333333453
                },
                {
                    "name": "A#3",
                    "midi": 58,
                    "time": 124.7876546666669,
                    "velocity": 0.2440944881889764,
                    "duration": 0.30888033333333453
                },
                {
                    "name": "A#3",
                    "midi": 58,
                    "time": 125.40541533333356,
                    "velocity": 0.23622047244094488,
                    "duration": 0.30888033333333453
                },
                {
                    "name": "G3",
                    "midi": 55,
                    "time": 125.7142956666669,
                    "velocity": 0.23622047244094488,
                    "duration": 0.30888033333333453
                },
                {
                    "name": "G#3",
                    "midi": 56,
                    "time": 126.33205633333357,
                    "velocity": 0.25196850393700787,
                    "duration": 0.30888033333333453
                },
                {
                    "name": "A#3",
                    "midi": 58,
                    "time": 126.6409366666669,
                    "velocity": 0.2440944881889764,
                    "duration": 0.30888033333333453
                },
                {
                    "name": "A#3",
                    "midi": 58,
                    "time": 127.25869733333357,
                    "velocity": 0.2440944881889764,
                    "duration": 0.30888033333333453
                },
                {
                    "name": "G#3",
                    "midi": 56,
                    "time": 127.5675776666669,
                    "velocity": 0.2440944881889764,
                    "duration": 0.30888033333333453
                },
                {
                    "name": "G#4",
                    "midi": 68,
                    "time": 134.36294500000025,
                    "velocity": 0.28346456692913385,
                    "duration": 0.3088803333333203
                },
                {
                    "name": "F4",
                    "midi": 65,
                    "time": 134.67182533333357,
                    "velocity": 0.28346456692913385,
                    "duration": 0.3088803333333203
                },
                {
                    "name": "D4",
                    "midi": 62,
                    "time": 134.9807056666669,
                    "velocity": 0.2440944881889764,
                    "duration": 0.3088803333333203
                },
                {
                    "name": "G#4",
                    "midi": 68,
                    "time": 135.2895860000002,
                    "velocity": 0.25984251968503935,
                    "duration": 0.3088803333333203
                },
                {
                    "name": "F4",
                    "midi": 65,
                    "time": 135.59846633333353,
                    "velocity": 0.2283464566929134,
                    "duration": 0.3088803333333203
                },
                {
                    "name": "D4",
                    "midi": 62,
                    "time": 135.90734666666685,
                    "velocity": 0.2283464566929134,
                    "duration": 0.3088803333333203
                },
                {
                    "name": "G#4",
                    "midi": 68,
                    "time": 136.21622700000017,
                    "velocity": 0.3543307086614173,
                    "duration": 0.9266409999999894
                },
                {
                    "name": "F#4",
                    "midi": 66,
                    "time": 151.96912400000016,
                    "velocity": 0.4015748031496063,
                    "duration": 0.3088803333333203
                },
                {
                    "name": "A#3",
                    "midi": 58,
                    "time": 152.27800433333348,
                    "velocity": 0.29133858267716534,
                    "duration": 0.3088803333333203
                },
                {
                    "name": "D#4",
                    "midi": 63,
                    "time": 152.5868846666668,
                    "velocity": 0.29133858267716534,
                    "duration": 0.3088803333333203
                },
                {
                    "name": "D#4",
                    "midi": 63,
                    "time": 153.20464533333345,
                    "velocity": 0.28346456692913385,
                    "duration": 0.3088803333333203
                },
                {
                    "name": "B3",
                    "midi": 59,
                    "time": 153.51352566666677,
                    "velocity": 0.2755905511811024,
                    "duration": 0.3088803333333203
                },
                {
                    "name": "D4",
                    "midi": 62,
                    "time": 153.8224060000001,
                    "velocity": 0.36220472440944884,
                    "duration": 0.3088803333333203
                },
                {
                    "name": "F3",
                    "midi": 53,
                    "time": 154.1312863333334,
                    "velocity": 0.29133858267716534,
                    "duration": 0.3088803333333203
                },
                {
                    "name": "A#3",
                    "midi": 58,
                    "time": 154.44016666666673,
                    "velocity": 0.28346456692913385,
                    "duration": 0.3088803333333203
                },
                {
                    "name": "D4",
                    "midi": 62,
                    "time": 154.74904700000005,
                    "velocity": 0.3228346456692913,
                    "duration": 0.3088803333333203
                },
                {
                    "name": "D#4",
                    "midi": 63,
                    "time": 155.05792733333337,
                    "velocity": 0.3779527559055118,
                    "duration": 0.23166025000000445
                },
                {
                    "name": "F4",
                    "midi": 65,
                    "time": 155.36680766666672,
                    "velocity": 0.41732283464566927,
                    "duration": 0.23166025000000445
                },
                {
                    "name": "F#4",
                    "midi": 66,
                    "time": 155.67568800000006,
                    "velocity": 0.4881889763779528,
                    "duration": 0.3088803333333203
                },
                {
                    "name": "D#4",
                    "midi": 63,
                    "time": 155.98456833333339,
                    "velocity": 0.3858267716535433,
                    "duration": 0.3088803333333203
                },
                {
                    "name": "F#4",
                    "midi": 66,
                    "time": 156.2934486666667,
                    "velocity": 0.4251968503937008,
                    "duration": 0.3088803333333203
                },
                {
                    "name": "B4",
                    "midi": 71,
                    "time": 156.60232900000003,
                    "velocity": 0.5196850393700787,
                    "duration": 0.3088803333333203
                },
                {
                    "name": "G#4",
                    "midi": 68,
                    "time": 156.91120933333335,
                    "velocity": 0.3543307086614173,
                    "duration": 0.3088803333333203
                },
                {
                    "name": "D#4",
                    "midi": 63,
                    "time": 157.22008966666667,
                    "velocity": 0.2992125984251969,
                    "duration": 0.3088803333333203
                },
                {
                    "name": "F4",
                    "midi": 65,
                    "time": 157.52897,
                    "velocity": 0.4015748031496063,
                    "duration": 0.3088803333333203
                },
                {
                    "name": "B3",
                    "midi": 59,
                    "time": 157.8378503333333,
                    "velocity": 0.3228346456692913,
                    "duration": 0.3088803333333203
                },
                {
                    "name": "C#4",
                    "midi": 61,
                    "time": 158.14673066666663,
                    "velocity": 0.30708661417322836,
                    "duration": 0.3088803333333203
                },
                {
                    "name": "F4",
                    "midi": 65,
                    "time": 158.45561099999995,
                    "velocity": 0.3543307086614173,
                    "duration": 0.3088803333333203
                },
                {
                    "name": "D#4",
                    "midi": 63,
                    "time": 158.76449133333327,
                    "velocity": 0.3464566929133858,
                    "duration": 0.23166025000000445
                },
                {
                    "name": "F4",
                    "midi": 65,
                    "time": 159.07337166666662,
                    "velocity": 0.3543307086614173,
                    "duration": 0.23166025000000445
                },
                {
                    "name": "F#4",
                    "midi": 66,
                    "time": 159.38225199999997,
                    "velocity": 0.4015748031496063,
                    "duration": 0.3088803333333203
                },
                {
                    "name": "A#3",
                    "midi": 58,
                    "time": 159.6911323333333,
                    "velocity": 0.29133858267716534,
                    "duration": 0.3088803333333203
                },
                {
                    "name": "C#4",
                    "midi": 61,
                    "time": 160.0000126666666,
                    "velocity": 0.29133858267716534,
                    "duration": 0.3088803333333203
                },
                {
                    "name": "F4",
                    "midi": 65,
                    "time": 160.61777333333325,
                    "velocity": 0.28346456692913385,
                    "duration": 0.3088803333333203
                },
                {
                    "name": "B3",
                    "midi": 59,
                    "time": 160.92665366666657,
                    "velocity": 0.2755905511811024,
                    "duration": 0.3088803333333203
                },
                {
                    "name": "D4",
                    "midi": 62,
                    "time": 161.2355339999999,
                    "velocity": 0.36220472440944884,
                    "duration": 0.3088803333333203
                },
                {
                    "name": "F3",
                    "midi": 53,
                    "time": 161.5444143333332,
                    "velocity": 0.29133858267716534,
                    "duration": 0.3088803333333203
                },
                {
                    "name": "A#3",
                    "midi": 58,
                    "time": 161.85329466666653,
                    "velocity": 0.28346456692913385,
                    "duration": 0.3088803333333203
                },
                {
                    "name": "D4",
                    "midi": 62,
                    "time": 162.16217499999985,
                    "velocity": 0.3228346456692913,
                    "duration": 0.3088803333333203
                },
                {
                    "name": "D#4",
                    "midi": 63,
                    "time": 162.47105533333317,
                    "velocity": 0.41732283464566927,
                    "duration": 0.23166025000000445
                },
                {
                    "name": "F4",
                    "midi": 65,
                    "time": 162.77993566666652,
                    "velocity": 0.4566929133858268,
                    "duration": 0.23166025000000445
                },
                {
                    "name": "F#4",
                    "midi": 66,
                    "time": 163.08881599999987,
                    "velocity": 0.47244094488188976,
                    "duration": 0.3088803333333203
                },
                {
                    "name": "D#4",
                    "midi": 63,
                    "time": 163.3976963333332,
                    "velocity": 0.4094488188976378,
                    "duration": 0.3088803333333203
                },
                {
                    "name": "F#4",
                    "midi": 66,
                    "time": 163.7065766666665,
                    "velocity": 0.4881889763779528,
                    "duration": 0.3088803333333203
                },
                {
                    "name": "B4",
                    "midi": 71,
                    "time": 164.01545699999983,
                    "velocity": 0.5196850393700787,
                    "duration": 0.3088803333333203
                },
                {
                    "name": "G#4",
                    "midi": 68,
                    "time": 164.32433733333315,
                    "velocity": 0.3543307086614173,
                    "duration": 0.3088803333333203
                },
                {
                    "name": "D#4",
                    "midi": 63,
                    "time": 164.63321766666647,
                    "velocity": 0.2992125984251969,
                    "duration": 0.3088803333333203
                },
                {
                    "name": "F4",
                    "midi": 65,
                    "time": 164.9420979999998,
                    "velocity": 0.4409448818897638,
                    "duration": 0.3088803333333203
                },
                {
                    "name": "B3",
                    "midi": 59,
                    "time": 165.2509783333331,
                    "velocity": 0.4094488188976378,
                    "duration": 0.3088803333333203
                },
                {
                    "name": "C#4",
                    "midi": 61,
                    "time": 165.55985866666643,
                    "velocity": 0.4094488188976378,
                    "duration": 0.3088803333333203
                },
                {
                    "name": "F4",
                    "midi": 65,
                    "time": 165.86873899999975,
                    "velocity": 0.4645669291338583,
                    "duration": 0.3088803333333203
                },
                {
                    "name": "C#4",
                    "midi": 61,
                    "time": 166.17761933333307,
                    "velocity": 0.49606299212598426,
                    "duration": 0.23166025000000445
                },
                {
                    "name": "B3",
                    "midi": 59,
                    "time": 166.48649966666642,
                    "velocity": 0.5039370078740157,
                    "duration": 0.23166025000000445
                },
                {
                    "name": "G3",
                    "midi": 55,
                    "time": 189.3436443333331,
                    "velocity": 0.25196850393700787,
                    "duration": 0.3088803333333203
                },
                {
                    "name": "A#3",
                    "midi": 58,
                    "time": 189.6525246666664,
                    "velocity": 0.2440944881889764,
                    "duration": 0.3088803333333203
                },
                {
                    "name": "D#4",
                    "midi": 63,
                    "time": 189.96140499999973,
                    "velocity": 0.3228346456692913,
                    "duration": 0.3088803333333203
                },
                {
                    "name": "A#3",
                    "midi": 58,
                    "time": 190.27028533333305,
                    "velocity": 0.2440944881889764,
                    "duration": 0.3088803333333203
                },
                {
                    "name": "G3",
                    "midi": 55,
                    "time": 190.57916566666637,
                    "velocity": 0.2440944881889764,
                    "duration": 0.3088803333333203
                },
                {
                    "name": "G3",
                    "midi": 55,
                    "time": 191.196926333333,
                    "velocity": 0.2440944881889764,
                    "duration": 0.3088803333333203
                },
                {
                    "name": "A#3",
                    "midi": 58,
                    "time": 191.50580666666633,
                    "velocity": 0.2440944881889764,
                    "duration": 0.3088803333333203
                },
                {
                    "name": "A#3",
                    "midi": 58,
                    "time": 192.12356733333297,
                    "velocity": 0.23622047244094488,
                    "duration": 0.3088803333333203
                },
                {
                    "name": "G3",
                    "midi": 55,
                    "time": 192.4324476666663,
                    "velocity": 0.23622047244094488,
                    "duration": 0.3088803333333203
                },
                {
                    "name": "G#3",
                    "midi": 56,
                    "time": 193.05020833333293,
                    "velocity": 0.25196850393700787,
                    "duration": 0.3088803333333203
                },
                {
                    "name": "A#3",
                    "midi": 58,
                    "time": 193.35908866666625,
                    "velocity": 0.2440944881889764,
                    "duration": 0.3088803333333203
                },
                {
                    "name": "A#3",
                    "midi": 58,
                    "time": 193.9768493333329,
                    "velocity": 0.2440944881889764,
                    "duration": 0.3088803333333203
                },
                {
                    "name": "G#3",
                    "midi": 56,
                    "time": 194.2857296666662,
                    "velocity": 0.2440944881889764,
                    "duration": 0.3088803333333203
                },
                {
                    "name": "G#4",
                    "midi": 68,
                    "time": 201.08109699999955,
                    "velocity": 0.28346456692913385,
                    "duration": 0.3088803333333203
                },
                {
                    "name": "F4",
                    "midi": 65,
                    "time": 201.38997733333287,
                    "velocity": 0.28346456692913385,
                    "duration": 0.3088803333333203
                },
                {
                    "name": "D4",
                    "midi": 62,
                    "time": 201.69885766666619,
                    "velocity": 0.2440944881889764,
                    "duration": 0.3088803333333203
                },
                {
                    "name": "G#4",
                    "midi": 68,
                    "time": 202.0077379999995,
                    "velocity": 0.25984251968503935,
                    "duration": 0.3088803333333203
                },
                {
                    "name": "F4",
                    "midi": 65,
                    "time": 202.31661833333283,
                    "velocity": 0.2283464566929134,
                    "duration": 0.3088803333333203
                },
                {
                    "name": "D4",
                    "midi": 62,
                    "time": 202.62549866666615,
                    "velocity": 0.2283464566929134,
                    "duration": 0.3088803333333203
                },
                {
                    "name": "G#4",
                    "midi": 68,
                    "time": 202.93437899999947,
                    "velocity": 0.3543307086614173,
                    "duration": 0.9266409999999894
                },
                {
                    "name": "D4",
                    "midi": 62,
                    "time": 210.34750699999947,
                    "velocity": 0.30708661417322836,
                    "duration": 0.9266409999999894
                },
                {
                    "name": "D5",
                    "midi": 74,
                    "time": 210.34750699999947,
                    "velocity": 0.3464566929133858,
                    "duration": 0.9266409999999894
                },
                {
                    "name": "G4",
                    "midi": 67,
                    "time": 215.2895923333328,
                    "velocity": 0.28346456692913385,
                    "duration": 0.3088803333333203
                },
                {
                    "name": "G#4",
                    "midi": 68,
                    "time": 215.5984726666661,
                    "velocity": 0.28346456692913385,
                    "duration": 0.3088803333333203
                },
                {
                    "name": "A#4",
                    "midi": 70,
                    "time": 215.90735299999943,
                    "velocity": 0.3228346456692913,
                    "duration": 0.3088803333333203
                },
                {
                    "name": "G4",
                    "midi": 67,
                    "time": 216.21623333333275,
                    "velocity": 0.28346456692913385,
                    "duration": 0.3088803333333203
                },
                {
                    "name": "G#4",
                    "midi": 68,
                    "time": 216.52511366666607,
                    "velocity": 0.29133858267716534,
                    "duration": 0.3088803333333203
                },
                {
                    "name": "A#4",
                    "midi": 70,
                    "time": 216.8339939999994,
                    "velocity": 0.2755905511811024,
                    "duration": 0.3088803333333203
                },
                {
                    "name": "G4",
                    "midi": 67,
                    "time": 217.1428743333327,
                    "velocity": 0.28346456692913385,
                    "duration": 0.3088803333333203
                },
                {
                    "name": "G#4",
                    "midi": 68,
                    "time": 217.45175466666603,
                    "velocity": 0.28346456692913385,
                    "duration": 0.3088803333333203
                },
                {
                    "name": "A#4",
                    "midi": 70,
                    "time": 217.76063499999935,
                    "velocity": 0.29133858267716534,
                    "duration": 0.3088803333333203
                },
                {
                    "name": "C#5",
                    "midi": 73,
                    "time": 218.06951533333267,
                    "velocity": 0.3228346456692913,
                    "duration": 0.3088803333333203
                },
                {
                    "name": "C5",
                    "midi": 72,
                    "time": 218.378395666666,
                    "velocity": 0.29133858267716534,
                    "duration": 0.3088803333333203
                },
                {
                    "name": "A#4",
                    "midi": 70,
                    "time": 218.68727599999931,
                    "velocity": 0.29133858267716534,
                    "duration": 0.3088803333333203
                },
                {
                    "name": "C#5",
                    "midi": 73,
                    "time": 218.99615633333264,
                    "velocity": 0.33070866141732286,
                    "duration": 0.3088803333333203
                },
                {
                    "name": "C5",
                    "midi": 72,
                    "time": 219.30503666666596,
                    "velocity": 0.29133858267716534,
                    "duration": 0.3088803333333203
                },
                {
                    "name": "A#4",
                    "midi": 70,
                    "time": 219.61391699999928,
                    "velocity": 0.3700787401574803,
                    "duration": 0.3088803333333203
                },
                {
                    "name": "G4",
                    "midi": 67,
                    "time": 219.9227973333326,
                    "velocity": 0.28346456692913385,
                    "duration": 0.3088803333333203
                },
                {
                    "name": "G#4",
                    "midi": 68,
                    "time": 220.23167766666592,
                    "velocity": 0.29133858267716534,
                    "duration": 0.3088803333333203
                },
                {
                    "name": "A#4",
                    "midi": 70,
                    "time": 220.54055799999924,
                    "velocity": 0.3228346456692913,
                    "duration": 0.3088803333333203
                },
                {
                    "name": "G#4",
                    "midi": 68,
                    "time": 220.84943833333256,
                    "velocity": 0.28346456692913385,
                    "duration": 0.3088803333333203
                },
                {
                    "name": "G4",
                    "midi": 67,
                    "time": 221.15831866666588,
                    "velocity": 0.28346456692913385,
                    "duration": 0.30501932916666874
                },
                {
                    "name": "F4",
                    "midi": 65,
                    "time": 221.46719899999923,
                    "velocity": 0.3700787401574803,
                    "duration": 0.3088803333333203
                },
                {
                    "name": "D#4",
                    "midi": 63,
                    "time": 221.77607933333255,
                    "velocity": 0.28346456692913385,
                    "duration": 0.3088803333333203
                },
                {
                    "name": "C#4",
                    "midi": 61,
                    "time": 222.08495966666587,
                    "velocity": 0.28346456692913385,
                    "duration": 0.3088803333333203
                },
                {
                    "name": "C4",
                    "midi": 60,
                    "time": 222.7027203333325,
                    "velocity": 0.33070866141732286,
                    "duration": 0.3088803333333203
                },
                {
                    "name": "C#4",
                    "midi": 61,
                    "time": 223.01160066666583,
                    "velocity": 0.29133858267716534,
                    "duration": 0.3088803333333203
                },
                {
                    "name": "D#4",
                    "midi": 63,
                    "time": 223.32048099999915,
                    "velocity": 0.3937007874015748,
                    "duration": 0.3088803333333203
                },
                {
                    "name": "C4",
                    "midi": 60,
                    "time": 223.62936133333247,
                    "velocity": 0.28346456692913385,
                    "duration": 0.3088803333333203
                },
                {
                    "name": "C#4",
                    "midi": 61,
                    "time": 223.9382416666658,
                    "velocity": 0.29133858267716534,
                    "duration": 0.3088803333333203
                },
                {
                    "name": "D#4",
                    "midi": 63,
                    "time": 224.2471219999991,
                    "velocity": 0.3228346456692913,
                    "duration": 0.3088803333333203
                },
                {
                    "name": "C4",
                    "midi": 60,
                    "time": 224.55600233333243,
                    "velocity": 0.28346456692913385,
                    "duration": 0.3088803333333203
                },
                {
                    "name": "C#4",
                    "midi": 61,
                    "time": 224.86488266666575,
                    "velocity": 0.28346456692913385,
                    "duration": 0.3088803333333203
                },
                {
                    "name": "D#4",
                    "midi": 63,
                    "time": 225.17376299999907,
                    "velocity": 0.3779527559055118,
                    "duration": 0.3088803333333203
                },
                {
                    "name": "C#4",
                    "midi": 61,
                    "time": 225.4826433333324,
                    "velocity": 0.28346456692913385,
                    "duration": 0.3088803333333203
                },
                {
                    "name": "C4",
                    "midi": 60,
                    "time": 225.7915236666657,
                    "velocity": 0.28346456692913385,
                    "duration": 0.3088803333333203
                },
                {
                    "name": "G#3",
                    "midi": 56,
                    "time": 226.40928433333235,
                    "velocity": 0.33070866141732286,
                    "duration": 0.3088803333333203
                },
                {
                    "name": "A#3",
                    "midi": 58,
                    "time": 226.71816466666567,
                    "velocity": 0.29133858267716534,
                    "duration": 0.3088803333333203
                },
                {
                    "name": "B3",
                    "midi": 59,
                    "time": 227.027044999999,
                    "velocity": 0.33070866141732286,
                    "duration": 0.3088803333333203
                },
                {
                    "name": "G#3",
                    "midi": 56,
                    "time": 227.3359253333323,
                    "velocity": 0.29133858267716534,
                    "duration": 0.3088803333333203
                },
                {
                    "name": "A#3",
                    "midi": 58,
                    "time": 227.64480566666563,
                    "velocity": 0.33858267716535434,
                    "duration": 0.3088803333333203
                },
                {
                    "name": "B3",
                    "midi": 59,
                    "time": 227.95368599999895,
                    "velocity": 0.36220472440944884,
                    "duration": 0.6177606666666691
                },
                {
                    "name": "A#3",
                    "midi": 58,
                    "time": 228.57144666666562,
                    "velocity": 0.3779527559055118,
                    "duration": 0.30501932916666874
                },
                {
                    "name": "G#3",
                    "midi": 56,
                    "time": 228.88032699999897,
                    "velocity": 0.4251968503937008,
                    "duration": 0.3088803333333203
                },
                {
                    "name": "G3",
                    "midi": 55,
                    "time": 229.1892073333323,
                    "velocity": 0.4094488188976378,
                    "duration": 0.3088803333333203
                },
                {
                    "name": "G#3",
                    "midi": 56,
                    "time": 229.4980876666656,
                    "velocity": 0.4094488188976378,
                    "duration": 0.3088803333333203
                },
                {
                    "name": "G3",
                    "midi": 55,
                    "time": 230.11584833333225,
                    "velocity": 0.4015748031496063,
                    "duration": 0.3088803333333203
                },
                {
                    "name": "A#3",
                    "midi": 58,
                    "time": 230.42472866666557,
                    "velocity": 0.41732283464566927,
                    "duration": 0.3088803333333203
                },
                {
                    "name": "D#4",
                    "midi": 63,
                    "time": 230.7336089999989,
                    "velocity": 0.4330708661417323,
                    "duration": 0.3088803333333203
                },
                {
                    "name": "A#3",
                    "midi": 58,
                    "time": 231.0424893333322,
                    "velocity": 0.3779527559055118,
                    "duration": 0.3088803333333203
                },
                {
                    "name": "G3",
                    "midi": 55,
                    "time": 231.35136966666553,
                    "velocity": 0.3779527559055118,
                    "duration": 0.3088803333333203
                },
                {
                    "name": "G3",
                    "midi": 55,
                    "time": 231.96913033333217,
                    "velocity": 0.3779527559055118,
                    "duration": 0.3088803333333203
                },
                {
                    "name": "A#3",
                    "midi": 58,
                    "time": 232.2780106666655,
                    "velocity": 0.3858267716535433,
                    "duration": 0.3088803333333203
                },
                {
                    "name": "A#3",
                    "midi": 58,
                    "time": 232.89577133333214,
                    "velocity": 0.3779527559055118,
                    "duration": 0.3088803333333203
                },
                {
                    "name": "G3",
                    "midi": 55,
                    "time": 233.20465166666546,
                    "velocity": 0.3779527559055118,
                    "duration": 0.3088803333333203
                },
                {
                    "name": "G#3",
                    "midi": 56,
                    "time": 233.8224123333321,
                    "velocity": 0.47244094488188976,
                    "duration": 0.3088803333333203
                },
                {
                    "name": "A#3",
                    "midi": 58,
                    "time": 234.13129266666542,
                    "velocity": 0.4881889763779528,
                    "duration": 0.3088803333333203
                },
                {
                    "name": "D4",
                    "midi": 62,
                    "time": 234.44017299999874,
                    "velocity": 0.5196850393700787,
                    "duration": 0.3088803333333203
                },
                {
                    "name": "F4",
                    "midi": 65,
                    "time": 234.74905333333206,
                    "velocity": 0.4881889763779528,
                    "duration": 0.3088803333333203
                },
                {
                    "name": "A#4",
                    "midi": 70,
                    "time": 235.05793366666538,
                    "velocity": 0.4881889763779528,
                    "duration": 0.3088803333333203
                },
                {
                    "name": "D5",
                    "midi": 74,
                    "time": 235.3668139999987,
                    "velocity": 0.5118110236220472,
                    "duration": 0.3088803333333203
                },
                {
                    "name": "F5",
                    "midi": 77,
                    "time": 235.67569433333202,
                    "velocity": 0.4566929133858268,
                    "duration": 0.3088803333333203
                },
                {
                    "name": "G#5",
                    "midi": 80,
                    "time": 235.98457466666534,
                    "velocity": 0.4330708661417323,
                    "duration": 0.3088803333333203
                },
                {
                    "name": "A#5",
                    "midi": 82,
                    "time": 236.29345499999866,
                    "velocity": 0.3937007874015748,
                    "duration": 0.4633205000000089
                },
                {
                    "name": "D6",
                    "midi": 86,
                    "time": 236.75677549999867,
                    "velocity": 0.3228346456692913,
                    "duration": 0.23166025000000445
                },
                {
                    "name": "F6",
                    "midi": 89,
                    "time": 237.22009599999868,
                    "velocity": 0.33070866141732286,
                    "duration": 0.23166025000000445
                },
                {
                    "name": "G3",
                    "midi": 55,
                    "time": 241.235540333332,
                    "velocity": 0.28346456692913385,
                    "duration": 0.3088803333333203
                },
                {
                    "name": "A#3",
                    "midi": 58,
                    "time": 241.54442066666533,
                    "velocity": 0.25984251968503935,
                    "duration": 0.3088803333333203
                },
                {
                    "name": "G4",
                    "midi": 67,
                    "time": 241.85330099999865,
                    "velocity": 0.3228346456692913,
                    "duration": 0.3088803333333203
                },
                {
                    "name": "A#3",
                    "midi": 58,
                    "time": 242.16218133333197,
                    "velocity": 0.23622047244094488,
                    "duration": 0.3088803333333203
                },
                {
                    "name": "G3",
                    "midi": 55,
                    "time": 242.4710616666653,
                    "velocity": 0.23622047244094488,
                    "duration": 0.3088803333333203
                },
                {
                    "name": "G3",
                    "midi": 55,
                    "time": 243.08882233333193,
                    "velocity": 0.25196850393700787,
                    "duration": 0.3088803333333203
                },
                {
                    "name": "A#3",
                    "midi": 58,
                    "time": 243.39770266666525,
                    "velocity": 0.2440944881889764,
                    "duration": 0.3088803333333203
                },
                {
                    "name": "G4",
                    "midi": 67,
                    "time": 243.70658299999857,
                    "velocity": 0.25196850393700787,
                    "duration": 0.3088803333333203
                },
                {
                    "name": "A#3",
                    "midi": 58,
                    "time": 244.0154633333319,
                    "velocity": 0.2440944881889764,
                    "duration": 0.3088803333333203
                },
                {
                    "name": "G3",
                    "midi": 55,
                    "time": 244.32434366666521,
                    "velocity": 0.2440944881889764,
                    "duration": 0.3088803333333203
                },
                {
                    "name": "G3",
                    "midi": 55,
                    "time": 244.94210433333186,
                    "velocity": 0.2755905511811024,
                    "duration": 0.3088803333333203
                },
                {
                    "name": "A#3",
                    "midi": 58,
                    "time": 245.25098466666518,
                    "velocity": 0.2440944881889764,
                    "duration": 0.3088803333333203
                },
                {
                    "name": "G4",
                    "midi": 67,
                    "time": 245.5598649999985,
                    "velocity": 0.30708661417322836,
                    "duration": 0.3088803333333203
                },
                {
                    "name": "A#3",
                    "midi": 58,
                    "time": 245.86874533333182,
                    "velocity": 0.2125984251968504,
                    "duration": 0.3088803333333203
                },
                {
                    "name": "G3",
                    "midi": 55,
                    "time": 246.17762566666514,
                    "velocity": 0.2125984251968504,
                    "duration": 0.3088803333333203
                },
                {
                    "name": "G3",
                    "midi": 55,
                    "time": 246.79538633333178,
                    "velocity": 0.2125984251968504,
                    "duration": 0.3088803333333203
                },
                {
                    "name": "A#3",
                    "midi": 58,
                    "time": 247.1042666666651,
                    "velocity": 0.2047244094488189,
                    "duration": 0.3088803333333203
                },
                {
                    "name": "G4",
                    "midi": 67,
                    "time": 247.41314699999842,
                    "velocity": 0.2204724409448819,
                    "duration": 0.3088803333333203
                },
                {
                    "name": "A#3",
                    "midi": 58,
                    "time": 247.72202733333174,
                    "velocity": 0.1889763779527559,
                    "duration": 4.324324666666655
                },
                {
                    "name": "G3",
                    "midi": 55,
                    "time": 248.03090766666506,
                    "velocity": 0.1889763779527559,
                    "duration": 4.015444333333335
                }
            ],
            "controlChanges": {
                "7": [
                    {
                        "number": 7,
                        "time": 0,
                        "value": 1
                    }
                ],
                "10": [
                    {
                        "number": 10,
                        "time": 0,
                        "value": 0.5039370078740157
                    }
                ]
            },
            "id": 2,
            "name": "Piano right",
            "instrumentNumber": 0,
            "instrument": "acoustic grand piano",
            "instrumentFamily": "piano",
            "channelNumber": 0,
            "isPercussion": false
        },
        {
            "startTime": 0,
            "duration": 252.0463519999973,
            "length": 761,
            "notes": [
                {
                    "name": "D#2",
                    "midi": 39,
                    "time": 0,
                    "velocity": 0.2125984251968504,
                    "duration": 0.9266409999999999
                },
                {
                    "name": "A#2",
                    "midi": 46,
                    "time": 0.3088803333333333,
                    "velocity": 0.1889763779527559,
                    "duration": 0.3088803333333333
                },
                {
                    "name": "D#3",
                    "midi": 51,
                    "time": 0.6177606666666666,
                    "velocity": 0.1968503937007874,
                    "duration": 0.3088803333333333
                },
                {
                    "name": "G3",
                    "midi": 55,
                    "time": 0.9266409999999999,
                    "velocity": 0.2125984251968504,
                    "duration": 0.3088803333333333
                },
                {
                    "name": "D#3",
                    "midi": 51,
                    "time": 1.2355213333333332,
                    "velocity": 0.1889763779527559,
                    "duration": 0.3088803333333332
                },
                {
                    "name": "A#2",
                    "midi": 46,
                    "time": 1.5444016666666665,
                    "velocity": 0.1889763779527559,
                    "duration": 0.3088803333333332
                },
                {
                    "name": "D#2",
                    "midi": 39,
                    "time": 1.8532819999999997,
                    "velocity": 0.2125984251968504,
                    "duration": 0.9266409999999996
                },
                {
                    "name": "A#2",
                    "midi": 46,
                    "time": 2.162162333333333,
                    "velocity": 0.1968503937007874,
                    "duration": 0.3088803333333332
                },
                {
                    "name": "D#3",
                    "midi": 51,
                    "time": 2.471042666666666,
                    "velocity": 0.1968503937007874,
                    "duration": 0.3088803333333332
                },
                {
                    "name": "G3",
                    "midi": 55,
                    "time": 2.7799229999999993,
                    "velocity": 0.2125984251968504,
                    "duration": 0.3088803333333332
                },
                {
                    "name": "D#3",
                    "midi": 51,
                    "time": 3.0888033333333325,
                    "velocity": 0.1889763779527559,
                    "duration": 0.3088803333333332
                },
                {
                    "name": "A#2",
                    "midi": 46,
                    "time": 3.3976836666666657,
                    "velocity": 0.1889763779527559,
                    "duration": 0.3088803333333332
                },
                {
                    "name": "D#2",
                    "midi": 39,
                    "time": 3.706563999999999,
                    "velocity": 0.2125984251968504,
                    "duration": 0.9266410000000005
                },
                {
                    "name": "A#2",
                    "midi": 46,
                    "time": 4.015444333333332,
                    "velocity": 0.1889763779527559,
                    "duration": 0.30888033333333365
                },
                {
                    "name": "D#3",
                    "midi": 51,
                    "time": 4.324324666666666,
                    "velocity": 0.1968503937007874,
                    "duration": 0.30888033333333365
                },
                {
                    "name": "G3",
                    "midi": 55,
                    "time": 4.633204999999999,
                    "velocity": 0.2125984251968504,
                    "duration": 0.30888033333333365
                },
                {
                    "name": "D#3",
                    "midi": 51,
                    "time": 4.942085333333333,
                    "velocity": 0.1889763779527559,
                    "duration": 0.30888033333333365
                },
                {
                    "name": "A#2",
                    "midi": 46,
                    "time": 5.250965666666667,
                    "velocity": 0.1889763779527559,
                    "duration": 0.30888033333333365
                },
                {
                    "name": "D#2",
                    "midi": 39,
                    "time": 5.559846,
                    "velocity": 0.2125984251968504,
                    "duration": 0.926641
                },
                {
                    "name": "A#2",
                    "midi": 46,
                    "time": 5.868726333333333,
                    "velocity": 0.1968503937007874,
                    "duration": 0.30888033333333365
                },
                {
                    "name": "D#3",
                    "midi": 51,
                    "time": 6.177606666666667,
                    "velocity": 0.1968503937007874,
                    "duration": 0.30888033333333365
                },
                {
                    "name": "G3",
                    "midi": 55,
                    "time": 6.486487,
                    "velocity": 0.2125984251968504,
                    "duration": 0.30888033333333365
                },
                {
                    "name": "D#3",
                    "midi": 51,
                    "time": 6.795367333333334,
                    "velocity": 0.1889763779527559,
                    "duration": 0.30888033333333365
                },
                {
                    "name": "A#2",
                    "midi": 46,
                    "time": 7.104247666666668,
                    "velocity": 0.1889763779527559,
                    "duration": 0.30888033333333365
                },
                {
                    "name": "A#1",
                    "midi": 34,
                    "time": 7.413128000000001,
                    "velocity": 0.2125984251968504,
                    "duration": 0.9266409999999992
                },
                {
                    "name": "A#2",
                    "midi": 46,
                    "time": 7.722008333333334,
                    "velocity": 0.1889763779527559,
                    "duration": 0.30888033333333365
                },
                {
                    "name": "D3",
                    "midi": 50,
                    "time": 8.030888666666668,
                    "velocity": 0.1968503937007874,
                    "duration": 0.30888033333333276
                },
                {
                    "name": "F3",
                    "midi": 53,
                    "time": 8.339769,
                    "velocity": 0.2125984251968504,
                    "duration": 0.30888033333333276
                },
                {
                    "name": "D3",
                    "midi": 50,
                    "time": 8.648649333333333,
                    "velocity": 0.1889763779527559,
                    "duration": 0.30888033333333276
                },
                {
                    "name": "A#2",
                    "midi": 46,
                    "time": 8.957529666666666,
                    "velocity": 0.1889763779527559,
                    "duration": 0.30888033333333276
                },
                {
                    "name": "C2",
                    "midi": 36,
                    "time": 9.266409999999999,
                    "velocity": 0.2125984251968504,
                    "duration": 0.9266409999999965
                },
                {
                    "name": "D#3",
                    "midi": 51,
                    "time": 9.57529033333333,
                    "velocity": 0.25196850393700787,
                    "duration": 0.30888033333333276
                },
                {
                    "name": "G2",
                    "midi": 43,
                    "time": 9.57529033333333,
                    "velocity": 0.25196850393700787,
                    "duration": 0.30888033333333276
                },
                {
                    "name": "G3",
                    "midi": 55,
                    "time": 9.884170666666662,
                    "velocity": 0.25196850393700787,
                    "duration": 0.30888033333333276
                },
                {
                    "name": "C3",
                    "midi": 48,
                    "time": 9.884170666666662,
                    "velocity": 0.25196850393700787,
                    "duration": 0.30888033333333276
                },
                {
                    "name": "C4",
                    "midi": 60,
                    "time": 10.193050999999995,
                    "velocity": 0.2755905511811024,
                    "duration": 0.30888033333333276
                },
                {
                    "name": "D#3",
                    "midi": 51,
                    "time": 10.193050999999995,
                    "velocity": 0.2755905511811024,
                    "duration": 0.30888033333333276
                },
                {
                    "name": "G3",
                    "midi": 55,
                    "time": 10.501931333333328,
                    "velocity": 0.2283464566929134,
                    "duration": 0.30888033333333276
                },
                {
                    "name": "C3",
                    "midi": 48,
                    "time": 10.501931333333328,
                    "velocity": 0.2283464566929134,
                    "duration": 0.30888033333333276
                },
                {
                    "name": "D#3",
                    "midi": 51,
                    "time": 10.81081166666666,
                    "velocity": 0.23622047244094488,
                    "duration": 0.30888033333333276
                },
                {
                    "name": "G2",
                    "midi": 43,
                    "time": 10.81081166666666,
                    "velocity": 0.23622047244094488,
                    "duration": 0.30888033333333276
                },
                {
                    "name": "A#1",
                    "midi": 34,
                    "time": 11.119691999999993,
                    "velocity": 0.25196850393700787,
                    "duration": 0.9266409999999983
                },
                {
                    "name": "G#2",
                    "midi": 44,
                    "time": 11.428572333333326,
                    "velocity": 0.2204724409448819,
                    "duration": 0.30888033333333276
                },
                {
                    "name": "C3",
                    "midi": 48,
                    "time": 11.737452666666659,
                    "velocity": 0.2204724409448819,
                    "duration": 0.30888033333333276
                },
                {
                    "name": "F3",
                    "midi": 53,
                    "time": 12.046332999999992,
                    "velocity": 0.2755905511811024,
                    "duration": 0.30888033333333276
                },
                {
                    "name": "C3",
                    "midi": 48,
                    "time": 12.355213333333324,
                    "velocity": 0.2125984251968504,
                    "duration": 0.30888033333333276
                },
                {
                    "name": "G#2",
                    "midi": 44,
                    "time": 12.664093666666657,
                    "velocity": 0.2125984251968504,
                    "duration": 1.235521333333331
                },
                {
                    "name": "G#1",
                    "midi": 32,
                    "time": 12.97297399999999,
                    "velocity": 0.2440944881889764,
                    "duration": 0.9266409999999983
                },
                {
                    "name": "C3",
                    "midi": 48,
                    "time": 13.281854333333323,
                    "velocity": 0.2440944881889764,
                    "duration": 0.30888033333333276
                },
                {
                    "name": "F3",
                    "midi": 53,
                    "time": 13.590734666666656,
                    "velocity": 0.25196850393700787,
                    "duration": 0.30888033333333276
                },
                {
                    "name": "G#3",
                    "midi": 56,
                    "time": 13.899614999999988,
                    "velocity": 0.28346456692913385,
                    "duration": 0.30888033333333276
                },
                {
                    "name": "F3",
                    "midi": 53,
                    "time": 14.208495333333321,
                    "velocity": 0.25196850393700787,
                    "duration": 0.30888033333333276
                },
                {
                    "name": "C3",
                    "midi": 48,
                    "time": 14.517375666666654,
                    "velocity": 0.25196850393700787,
                    "duration": 0.30888033333333276
                },
                {
                    "name": "A#1",
                    "midi": 34,
                    "time": 14.826255999999987,
                    "velocity": 0.2283464566929134,
                    "duration": 0.9266409999999983
                },
                {
                    "name": "A#2",
                    "midi": 46,
                    "time": 14.826255999999987,
                    "velocity": 0.2283464566929134,
                    "duration": 0.9266409999999983
                },
                {
                    "name": "F3",
                    "midi": 53,
                    "time": 15.13513633333332,
                    "velocity": 0.2440944881889764,
                    "duration": 0.30888033333333276
                },
                {
                    "name": "G#3",
                    "midi": 56,
                    "time": 15.444016666666652,
                    "velocity": 0.2204724409448819,
                    "duration": 0.30888033333333276
                },
                {
                    "name": "A#3",
                    "midi": 58,
                    "time": 15.752896999999985,
                    "velocity": 0.25196850393700787,
                    "duration": 0.30888033333333276
                },
                {
                    "name": "G#3",
                    "midi": 56,
                    "time": 16.061777333333318,
                    "velocity": 0.2204724409448819,
                    "duration": 0.30888033333333453
                },
                {
                    "name": "F3",
                    "midi": 53,
                    "time": 16.370657666666652,
                    "velocity": 0.2125984251968504,
                    "duration": 0.30888033333333453
                },
                {
                    "name": "A#3",
                    "midi": 58,
                    "time": 16.679537999999987,
                    "velocity": 0.2125984251968504,
                    "duration": 0.30888033333333453
                },
                {
                    "name": "G#3",
                    "midi": 56,
                    "time": 16.98841833333332,
                    "velocity": 0.18110236220472442,
                    "duration": 0.30888033333333453
                },
                {
                    "name": "F3",
                    "midi": 53,
                    "time": 17.297298666666656,
                    "velocity": 0.18110236220472442,
                    "duration": 0.30888033333333453
                },
                {
                    "name": "A#3",
                    "midi": 58,
                    "time": 17.60617899999999,
                    "velocity": 0.18110236220472442,
                    "duration": 0.30888033333333453
                },
                {
                    "name": "G#3",
                    "midi": 56,
                    "time": 17.915059333333325,
                    "velocity": 0.14173228346456693,
                    "duration": 0.30888033333333453
                },
                {
                    "name": "F3",
                    "midi": 53,
                    "time": 18.22393966666666,
                    "velocity": 0.14173228346456693,
                    "duration": 0.30888033333333453
                },
                {
                    "name": "D#2",
                    "midi": 39,
                    "time": 18.532819999999994,
                    "velocity": 0.2125984251968504,
                    "duration": 0.9266410000000036
                },
                {
                    "name": "A#2",
                    "midi": 46,
                    "time": 18.84170033333333,
                    "velocity": 0.1889763779527559,
                    "duration": 0.30888033333333453
                },
                {
                    "name": "D#3",
                    "midi": 51,
                    "time": 19.150580666666663,
                    "velocity": 0.1968503937007874,
                    "duration": 0.30888033333333453
                },
                {
                    "name": "G3",
                    "midi": 55,
                    "time": 19.459460999999997,
                    "velocity": 0.2125984251968504,
                    "duration": 0.30888033333333453
                },
                {
                    "name": "D#3",
                    "midi": 51,
                    "time": 19.768341333333332,
                    "velocity": 0.1889763779527559,
                    "duration": 0.30888033333333453
                },
                {
                    "name": "A#2",
                    "midi": 46,
                    "time": 20.077221666666667,
                    "velocity": 0.1889763779527559,
                    "duration": 0.30888033333333453
                },
                {
                    "name": "D#2",
                    "midi": 39,
                    "time": 20.386102,
                    "velocity": 0.2125984251968504,
                    "duration": 0.926641
                },
                {
                    "name": "A#2",
                    "midi": 46,
                    "time": 20.694982333333332,
                    "velocity": 0.1968503937007874,
                    "duration": 0.30888033333333453
                },
                {
                    "name": "D#3",
                    "midi": 51,
                    "time": 21.003862666666667,
                    "velocity": 0.1968503937007874,
                    "duration": 0.30888033333333453
                },
                {
                    "name": "G3",
                    "midi": 55,
                    "time": 21.312743,
                    "velocity": 0.2125984251968504,
                    "duration": 0.30888033333333453
                },
                {
                    "name": "D#3",
                    "midi": 51,
                    "time": 21.621623333333336,
                    "velocity": 0.1889763779527559,
                    "duration": 0.30888033333333453
                },
                {
                    "name": "A#2",
                    "midi": 46,
                    "time": 21.93050366666667,
                    "velocity": 0.1889763779527559,
                    "duration": 0.30888033333333453
                },
                {
                    "name": "A#1",
                    "midi": 34,
                    "time": 22.239384000000005,
                    "velocity": 0.2125984251968504,
                    "duration": 0.9266410000000036
                },
                {
                    "name": "A#2",
                    "midi": 46,
                    "time": 22.54826433333334,
                    "velocity": 0.1889763779527559,
                    "duration": 0.30888033333333453
                },
                {
                    "name": "D3",
                    "midi": 50,
                    "time": 22.857144666666674,
                    "velocity": 0.1968503937007874,
                    "duration": 0.30888033333333453
                },
                {
                    "name": "F3",
                    "midi": 53,
                    "time": 23.16602500000001,
                    "velocity": 0.2125984251968504,
                    "duration": 0.30888033333333453
                },
                {
                    "name": "D3",
                    "midi": 50,
                    "time": 23.474905333333343,
                    "velocity": 0.1889763779527559,
                    "duration": 0.30888033333333453
                },
                {
                    "name": "A#2",
                    "midi": 46,
                    "time": 23.783785666666677,
                    "velocity": 0.1889763779527559,
                    "duration": 0.30888033333333453
                },
                {
                    "name": "C2",
                    "midi": 36,
                    "time": 24.092666000000012,
                    "velocity": 0.2125984251968504,
                    "duration": 0.9266410000000036
                },
                {
                    "name": "D#3",
                    "midi": 51,
                    "time": 24.401546333333346,
                    "velocity": 0.25196850393700787,
                    "duration": 0.30888033333333453
                },
                {
                    "name": "G2",
                    "midi": 43,
                    "time": 24.401546333333346,
                    "velocity": 0.25196850393700787,
                    "duration": 0.30888033333333453
                },
                {
                    "name": "G3",
                    "midi": 55,
                    "time": 24.71042666666668,
                    "velocity": 0.25196850393700787,
                    "duration": 0.30888033333333453
                },
                {
                    "name": "C3",
                    "midi": 48,
                    "time": 24.71042666666668,
                    "velocity": 0.25196850393700787,
                    "duration": 0.30888033333333453
                },
                {
                    "name": "C4",
                    "midi": 60,
                    "time": 25.019307000000016,
                    "velocity": 0.2755905511811024,
                    "duration": 0.30888033333333453
                },
                {
                    "name": "D#3",
                    "midi": 51,
                    "time": 25.019307000000016,
                    "velocity": 0.2755905511811024,
                    "duration": 0.30888033333333453
                },
                {
                    "name": "G3",
                    "midi": 55,
                    "time": 25.32818733333335,
                    "velocity": 0.2283464566929134,
                    "duration": 0.30888033333333453
                },
                {
                    "name": "C3",
                    "midi": 48,
                    "time": 25.32818733333335,
                    "velocity": 0.2283464566929134,
                    "duration": 0.30888033333333453
                },
                {
                    "name": "D#3",
                    "midi": 51,
                    "time": 25.637067666666685,
                    "velocity": 0.23622047244094488,
                    "duration": 0.30888033333333453
                },
                {
                    "name": "G2",
                    "midi": 43,
                    "time": 25.637067666666685,
                    "velocity": 0.23622047244094488,
                    "duration": 0.30888033333333453
                },
                {
                    "name": "C2",
                    "midi": 36,
                    "time": 25.94594800000002,
                    "velocity": 0.2283464566929134,
                    "duration": 0.9266410000000036
                },
                {
                    "name": "G2",
                    "midi": 43,
                    "time": 26.254828333333354,
                    "velocity": 0.2047244094488189,
                    "duration": 0.30888033333333453
                },
                {
                    "name": "F3",
                    "midi": 53,
                    "time": 26.254828333333354,
                    "velocity": 0.2047244094488189,
                    "duration": 0.30888033333333453
                },
                {
                    "name": "D3",
                    "midi": 50,
                    "time": 26.563708666666688,
                    "velocity": 0.2047244094488189,
                    "duration": 0.30888033333333453
                },
                {
                    "name": "G3",
                    "midi": 55,
                    "time": 26.563708666666688,
                    "velocity": 0.2047244094488189,
                    "duration": 0.30888033333333453
                },
                {
                    "name": "F3",
                    "midi": 53,
                    "time": 26.872589000000023,
                    "velocity": 0.2283464566929134,
                    "duration": 0.30888033333333453
                },
                {
                    "name": "B3",
                    "midi": 59,
                    "time": 26.872589000000023,
                    "velocity": 0.2283464566929134,
                    "duration": 0.30888033333333453
                },
                {
                    "name": "D3",
                    "midi": 50,
                    "time": 27.181469333333357,
                    "velocity": 0.2047244094488189,
                    "duration": 0.30888033333333453
                },
                {
                    "name": "G3",
                    "midi": 55,
                    "time": 27.181469333333357,
                    "velocity": 0.2047244094488189,
                    "duration": 0.30888033333333453
                },
                {
                    "name": "F3",
                    "midi": 53,
                    "time": 27.49034966666669,
                    "velocity": 0.2283464566929134,
                    "duration": 0.30888033333333453
                },
                {
                    "name": "G2",
                    "midi": 43,
                    "time": 27.49034966666669,
                    "velocity": 0.2047244094488189,
                    "duration": 0.30888033333333453
                },
                {
                    "name": "C2",
                    "midi": 36,
                    "time": 27.799230000000026,
                    "velocity": 0.2125984251968504,
                    "duration": 0.926641
                },
                {
                    "name": "G2",
                    "midi": 43,
                    "time": 28.108110333333357,
                    "velocity": 0.2440944881889764,
                    "duration": 0.30888033333333453
                },
                {
                    "name": "C3",
                    "midi": 48,
                    "time": 28.416990666666692,
                    "velocity": 0.25196850393700787,
                    "duration": 0.30888033333333453
                },
                {
                    "name": "D#3",
                    "midi": 51,
                    "time": 28.725871000000026,
                    "velocity": 0.29133858267716534,
                    "duration": 0.30888033333333453
                },
                {
                    "name": "C3",
                    "midi": 48,
                    "time": 29.03475133333336,
                    "velocity": 0.2755905511811024,
                    "duration": 0.30888033333333453
                },
                {
                    "name": "G2",
                    "midi": 43,
                    "time": 29.343631666666695,
                    "velocity": 0.2755905511811024,
                    "duration": 0.30888033333333453
                },
                {
                    "name": "C2",
                    "midi": 36,
                    "time": 29.65251200000003,
                    "velocity": 0.29133858267716534,
                    "duration": 0.9266410000000036
                },
                {
                    "name": "D3",
                    "midi": 50,
                    "time": 29.961392333333364,
                    "velocity": 0.2440944881889764,
                    "duration": 0.30888033333333453
                },
                {
                    "name": "G3",
                    "midi": 55,
                    "time": 30.2702726666667,
                    "velocity": 0.2204724409448819,
                    "duration": 0.30888033333333453
                },
                {
                    "name": "D4",
                    "midi": 62,
                    "time": 30.579153000000034,
                    "velocity": 0.25196850393700787,
                    "duration": 0.30888033333333453
                },
                {
                    "name": "G3",
                    "midi": 55,
                    "time": 30.888033333333368,
                    "velocity": 0.2204724409448819,
                    "duration": 0.30888033333333453
                },
                {
                    "name": "D3",
                    "midi": 50,
                    "time": 31.196913666666703,
                    "velocity": 0.2125984251968504,
                    "duration": 0.30888033333333453
                },
                {
                    "name": "C2",
                    "midi": 36,
                    "time": 31.505794000000037,
                    "velocity": 0.2283464566929134,
                    "duration": 0.9266409999999965
                },
                {
                    "name": "D#3",
                    "midi": 51,
                    "time": 31.814674333333368,
                    "velocity": 0.1889763779527559,
                    "duration": 0.308880333333331
                },
                {
                    "name": "G3",
                    "midi": 55,
                    "time": 32.1235546666667,
                    "velocity": 0.1889763779527559,
                    "duration": 0.30888033333333453
                },
                {
                    "name": "C4",
                    "midi": 60,
                    "time": 32.432435000000034,
                    "velocity": 0.1968503937007874,
                    "duration": 0.30888033333333453
                },
                {
                    "name": "G3",
                    "midi": 55,
                    "time": 32.74131533333337,
                    "velocity": 0.16535433070866143,
                    "duration": 0.30888033333333453
                },
                {
                    "name": "D#3",
                    "midi": 51,
                    "time": 33.0501956666667,
                    "velocity": 0.16535433070866143,
                    "duration": 0.30888033333333453
                },
                {
                    "name": "F2",
                    "midi": 41,
                    "time": 33.35907600000004,
                    "velocity": 0.2125984251968504,
                    "duration": 0.9266409999999965
                },
                {
                    "name": "D3",
                    "midi": 50,
                    "time": 33.667956333333365,
                    "velocity": 0.1889763779527559,
                    "duration": 0.30888033333333453
                },
                {
                    "name": "F3",
                    "midi": 53,
                    "time": 33.9768366666667,
                    "velocity": 0.1968503937007874,
                    "duration": 0.30888033333333453
                },
                {
                    "name": "A#3",
                    "midi": 58,
                    "time": 34.285717000000034,
                    "velocity": 0.2125984251968504,
                    "duration": 0.30888033333333453
                },
                {
                    "name": "F3",
                    "midi": 53,
                    "time": 34.59459733333337,
                    "velocity": 0.1889763779527559,
                    "duration": 0.30888033333333453
                },
                {
                    "name": "D3",
                    "midi": 50,
                    "time": 34.9034776666667,
                    "velocity": 0.1889763779527559,
                    "duration": 0.30888033333333453
                },
                {
                    "name": "F2",
                    "midi": 41,
                    "time": 35.21235800000004,
                    "velocity": 0.2125984251968504,
                    "duration": 0.9266410000000036
                },
                {
                    "name": "D#3",
                    "midi": 51,
                    "time": 35.52123833333337,
                    "velocity": 0.2047244094488189,
                    "duration": 0.30888033333333453
                },
                {
                    "name": "F3",
                    "midi": 53,
                    "time": 35.830118666666706,
                    "velocity": 0.2047244094488189,
                    "duration": 0.30888033333333453
                },
                {
                    "name": "A3",
                    "midi": 57,
                    "time": 36.13899900000004,
                    "velocity": 0.23622047244094488,
                    "duration": 0.30888033333333453
                },
                {
                    "name": "F3",
                    "midi": 53,
                    "time": 36.447879333333375,
                    "velocity": 0.2047244094488189,
                    "duration": 0.30888033333333453
                },
                {
                    "name": "D#3",
                    "midi": 51,
                    "time": 36.75675966666671,
                    "velocity": 0.2047244094488189,
                    "duration": 0.30888033333333453
                },
                {
                    "name": "A#2",
                    "midi": 46,
                    "time": 37.065640000000045,
                    "velocity": 0.2125984251968504,
                    "duration": 4.633205000000018
                },
                {
                    "name": "F3",
                    "midi": 53,
                    "time": 37.37452033333338,
                    "velocity": 0.1889763779527559,
                    "duration": 0.30888033333333453
                },
                {
                    "name": "G3",
                    "midi": 55,
                    "time": 37.683400666666714,
                    "velocity": 0.1968503937007874,
                    "duration": 0.30888033333333453
                },
                {
                    "name": "G#3",
                    "midi": 56,
                    "time": 37.99228100000005,
                    "velocity": 0.2125984251968504,
                    "duration": 0.30888033333333453
                },
                {
                    "name": "F3",
                    "midi": 53,
                    "time": 38.30116133333338,
                    "velocity": 0.1889763779527559,
                    "duration": 0.30888033333333453
                },
                {
                    "name": "G3",
                    "midi": 55,
                    "time": 38.61004166666672,
                    "velocity": 0.1889763779527559,
                    "duration": 0.30888033333333453
                },
                {
                    "name": "G#3",
                    "midi": 56,
                    "time": 38.91892200000005,
                    "velocity": 0.2125984251968504,
                    "duration": 0.30888033333333453
                },
                {
                    "name": "F3",
                    "midi": 53,
                    "time": 39.227802333333386,
                    "velocity": 0.2047244094488189,
                    "duration": 0.30888033333333453
                },
                {
                    "name": "G3",
                    "midi": 55,
                    "time": 39.53668266666672,
                    "velocity": 0.2047244094488189,
                    "duration": 0.30888033333333453
                },
                {
                    "name": "G#3",
                    "midi": 56,
                    "time": 39.845563000000055,
                    "velocity": 0.23622047244094488,
                    "duration": 0.30888033333333453
                },
                {
                    "name": "F3",
                    "midi": 53,
                    "time": 40.15444333333339,
                    "velocity": 0.2047244094488189,
                    "duration": 0.30888033333333453
                },
                {
                    "name": "D#3",
                    "midi": 51,
                    "time": 40.463323666666724,
                    "velocity": 0.2047244094488189,
                    "duration": 0.30888033333333453
                },
                {
                    "name": "D3",
                    "midi": 50,
                    "time": 40.77220400000006,
                    "velocity": 0.2440944881889764,
                    "duration": 0.30888033333333453
                },
                {
                    "name": "F3",
                    "midi": 53,
                    "time": 41.08108433333339,
                    "velocity": 0.2204724409448819,
                    "duration": 0.30888033333333453
                },
                {
                    "name": "A#3",
                    "midi": 58,
                    "time": 41.38996466666673,
                    "velocity": 0.2204724409448819,
                    "duration": 0.30888033333333453
                },
                {
                    "name": "G#3",
                    "midi": 56,
                    "time": 41.69884500000006,
                    "velocity": 0.25196850393700787,
                    "duration": 0.30888033333333453
                },
                {
                    "name": "G3",
                    "midi": 55,
                    "time": 42.0077253333334,
                    "velocity": 0.2204724409448819,
                    "duration": 0.30888033333333453
                },
                {
                    "name": "F3",
                    "midi": 53,
                    "time": 42.31660566666673,
                    "velocity": 0.2204724409448819,
                    "duration": 0.30888033333333453
                },
                {
                    "name": "D#3",
                    "midi": 51,
                    "time": 42.625486000000066,
                    "velocity": 0.2204724409448819,
                    "duration": 0.30888033333333453
                },
                {
                    "name": "D3",
                    "midi": 50,
                    "time": 42.9343663333334,
                    "velocity": 0.1889763779527559,
                    "duration": 0.30888033333333453
                },
                {
                    "name": "D#3",
                    "midi": 51,
                    "time": 43.243246666666735,
                    "velocity": 0.1889763779527559,
                    "duration": 0.30888033333333453
                },
                {
                    "name": "F3",
                    "midi": 53,
                    "time": 43.55212700000007,
                    "velocity": 0.2125984251968504,
                    "duration": 0.30888033333333453
                },
                {
                    "name": "D#3",
                    "midi": 51,
                    "time": 43.861007333333404,
                    "velocity": 0.1889763779527559,
                    "duration": 0.30888033333333453
                },
                {
                    "name": "D3",
                    "midi": 50,
                    "time": 44.16988766666674,
                    "velocity": 0.1889763779527559,
                    "duration": 0.30888033333333453
                },
                {
                    "name": "D#2",
                    "midi": 39,
                    "time": 44.47876800000007,
                    "velocity": 0.2125984251968504,
                    "duration": 0.9266409999999965
                },
                {
                    "name": "A#2",
                    "midi": 46,
                    "time": 44.7876483333334,
                    "velocity": 0.1889763779527559,
                    "duration": 0.30888033333333453
                },
                {
                    "name": "D#3",
                    "midi": 51,
                    "time": 45.096528666666735,
                    "velocity": 0.1968503937007874,
                    "duration": 0.30888033333333453
                },
                {
                    "name": "G3",
                    "midi": 55,
                    "time": 45.40540900000007,
                    "velocity": 0.2125984251968504,
                    "duration": 0.30888033333333453
                },
                {
                    "name": "D#3",
                    "midi": 51,
                    "time": 45.714289333333404,
                    "velocity": 0.1889763779527559,
                    "duration": 0.30888033333333453
                },
                {
                    "name": "A#2",
                    "midi": 46,
                    "time": 46.02316966666674,
                    "velocity": 0.1889763779527559,
                    "duration": 0.30888033333333453
                },
                {
                    "name": "D#2",
                    "midi": 39,
                    "time": 46.33205000000007,
                    "velocity": 0.2125984251968504,
                    "duration": 0.9266410000000107
                },
                {
                    "name": "A#2",
                    "midi": 46,
                    "time": 46.640930333333415,
                    "velocity": 0.1968503937007874,
                    "duration": 0.30888033333333453
                },
                {
                    "name": "D#3",
                    "midi": 51,
                    "time": 46.94981066666675,
                    "velocity": 0.1968503937007874,
                    "duration": 0.30888033333333453
                },
                {
                    "name": "G3",
                    "midi": 55,
                    "time": 47.258691000000084,
                    "velocity": 0.2125984251968504,
                    "duration": 0.30888033333333453
                },
                {
                    "name": "D#3",
                    "midi": 51,
                    "time": 47.56757133333342,
                    "velocity": 0.1889763779527559,
                    "duration": 0.30888033333333453
                },
                {
                    "name": "A#2",
                    "midi": 46,
                    "time": 47.87645166666675,
                    "velocity": 0.1889763779527559,
                    "duration": 0.30888033333333453
                },
                {
                    "name": "A#1",
                    "midi": 34,
                    "time": 48.18533200000009,
                    "velocity": 0.2125984251968504,
                    "duration": 0.9266409999999965
                },
                {
                    "name": "A#2",
                    "midi": 46,
                    "time": 48.494212333333415,
                    "velocity": 0.1889763779527559,
                    "duration": 0.30888033333333453
                },
                {
                    "name": "D3",
                    "midi": 50,
                    "time": 48.80309266666675,
                    "velocity": 0.1968503937007874,
                    "duration": 0.30888033333333453
                },
                {
                    "name": "F3",
                    "midi": 53,
                    "time": 49.111973000000084,
                    "velocity": 0.2125984251968504,
                    "duration": 0.30888033333333453
                },
                {
                    "name": "D3",
                    "midi": 50,
                    "time": 49.42085333333342,
                    "velocity": 0.1889763779527559,
                    "duration": 0.30888033333333453
                },
                {
                    "name": "A#2",
                    "midi": 46,
                    "time": 49.72973366666675,
                    "velocity": 0.1889763779527559,
                    "duration": 0.30888033333333453
                },
                {
                    "name": "C2",
                    "midi": 36,
                    "time": 50.03861400000009,
                    "velocity": 0.2125984251968504,
                    "duration": 0.9266409999999965
                },
                {
                    "name": "D#3",
                    "midi": 51,
                    "time": 50.347494333333415,
                    "velocity": 0.25196850393700787,
                    "duration": 0.30888033333333453
                },
                {
                    "name": "G2",
                    "midi": 43,
                    "time": 50.347494333333415,
                    "velocity": 0.25196850393700787,
                    "duration": 0.30888033333333453
                },
                {
                    "name": "G3",
                    "midi": 55,
                    "time": 50.65637466666675,
                    "velocity": 0.25196850393700787,
                    "duration": 0.30888033333333453
                },
                {
                    "name": "C3",
                    "midi": 48,
                    "time": 50.65637466666675,
                    "velocity": 0.25196850393700787,
                    "duration": 0.30888033333333453
                },
                {
                    "name": "C4",
                    "midi": 60,
                    "time": 50.965255000000084,
                    "velocity": 0.2755905511811024,
                    "duration": 0.30888033333333453
                },
                {
                    "name": "D#3",
                    "midi": 51,
                    "time": 50.965255000000084,
                    "velocity": 0.2755905511811024,
                    "duration": 0.30888033333333453
                },
                {
                    "name": "G3",
                    "midi": 55,
                    "time": 51.27413533333342,
                    "velocity": 0.2283464566929134,
                    "duration": 0.30888033333333453
                },
                {
                    "name": "C3",
                    "midi": 48,
                    "time": 51.27413533333342,
                    "velocity": 0.2283464566929134,
                    "duration": 0.30888033333333453
                },
                {
                    "name": "D#3",
                    "midi": 51,
                    "time": 51.58301566666675,
                    "velocity": 0.23622047244094488,
                    "duration": 0.30888033333333453
                },
                {
                    "name": "G2",
                    "midi": 43,
                    "time": 51.58301566666675,
                    "velocity": 0.23622047244094488,
                    "duration": 0.30888033333333453
                },
                {
                    "name": "A#1",
                    "midi": 34,
                    "time": 51.89189600000009,
                    "velocity": 0.25196850393700787,
                    "duration": 0.9266410000000107
                },
                {
                    "name": "G#2",
                    "midi": 44,
                    "time": 52.20077633333343,
                    "velocity": 0.2204724409448819,
                    "duration": 0.30888033333333453
                },
                {
                    "name": "C3",
                    "midi": 48,
                    "time": 52.509656666666764,
                    "velocity": 0.2204724409448819,
                    "duration": 0.30888033333333453
                },
                {
                    "name": "F3",
                    "midi": 53,
                    "time": 52.8185370000001,
                    "velocity": 0.2755905511811024,
                    "duration": 0.30888033333333453
                },
                {
                    "name": "C3",
                    "midi": 48,
                    "time": 53.12741733333343,
                    "velocity": 0.2125984251968504,
                    "duration": 0.30888033333333453
                },
                {
                    "name": "G#2",
                    "midi": 44,
                    "time": 53.43629766666677,
                    "velocity": 0.2125984251968504,
                    "duration": 1.2355213333333381
                },
                {
                    "name": "G#1",
                    "midi": 32,
                    "time": 53.7451780000001,
                    "velocity": 0.2440944881889764,
                    "duration": 0.9266410000000036
                },
                {
                    "name": "C3",
                    "midi": 48,
                    "time": 54.05405833333344,
                    "velocity": 0.2440944881889764,
                    "duration": 0.30888033333333453
                },
                {
                    "name": "F3",
                    "midi": 53,
                    "time": 54.36293866666677,
                    "velocity": 0.25196850393700787,
                    "duration": 0.30888033333333453
                },
                {
                    "name": "G#3",
                    "midi": 56,
                    "time": 54.671819000000106,
                    "velocity": 0.28346456692913385,
                    "duration": 0.30888033333333453
                },
                {
                    "name": "F3",
                    "midi": 53,
                    "time": 54.98069933333344,
                    "velocity": 0.25196850393700787,
                    "duration": 0.30888033333333453
                },
                {
                    "name": "C3",
                    "midi": 48,
                    "time": 55.289579666666775,
                    "velocity": 0.25196850393700787,
                    "duration": 0.30888033333333453
                },
                {
                    "name": "A#1",
                    "midi": 34,
                    "time": 55.59846000000011,
                    "velocity": 0.2283464566929134,
                    "duration": 0.9266410000000107
                },
                {
                    "name": "A#2",
                    "midi": 46,
                    "time": 55.59846000000011,
                    "velocity": 0.2283464566929134,
                    "duration": 0.9266410000000107
                },
                {
                    "name": "F3",
                    "midi": 53,
                    "time": 55.90734033333345,
                    "velocity": 0.2440944881889764,
                    "duration": 0.30888033333333453
                },
                {
                    "name": "G#3",
                    "midi": 56,
                    "time": 56.216220666666786,
                    "velocity": 0.2204724409448819,
                    "duration": 0.30888033333333453
                },
                {
                    "name": "A#3",
                    "midi": 58,
                    "time": 56.52510100000012,
                    "velocity": 0.25196850393700787,
                    "duration": 0.30888033333333453
                },
                {
                    "name": "G#3",
                    "midi": 56,
                    "time": 56.833981333333455,
                    "velocity": 0.2204724409448819,
                    "duration": 0.30888033333333453
                },
                {
                    "name": "F3",
                    "midi": 53,
                    "time": 57.14286166666679,
                    "velocity": 0.2125984251968504,
                    "duration": 0.30888033333333453
                },
                {
                    "name": "A#3",
                    "midi": 58,
                    "time": 57.451742000000124,
                    "velocity": 0.2125984251968504,
                    "duration": 0.30888033333333453
                },
                {
                    "name": "G#3",
                    "midi": 56,
                    "time": 57.76062233333346,
                    "velocity": 0.18110236220472442,
                    "duration": 0.30888033333333453
                },
                {
                    "name": "F3",
                    "midi": 53,
                    "time": 58.06950266666679,
                    "velocity": 0.18110236220472442,
                    "duration": 0.30888033333333453
                },
                {
                    "name": "A#3",
                    "midi": 58,
                    "time": 58.37838300000013,
                    "velocity": 0.18110236220472442,
                    "duration": 0.30888033333333453
                },
                {
                    "name": "G#3",
                    "midi": 56,
                    "time": 58.68726333333346,
                    "velocity": 0.14173228346456693,
                    "duration": 0.30888033333333453
                },
                {
                    "name": "F3",
                    "midi": 53,
                    "time": 58.996143666666796,
                    "velocity": 0.14173228346456693,
                    "duration": 0.30888033333333453
                },
                {
                    "name": "D#2",
                    "midi": 39,
                    "time": 59.30502400000013,
                    "velocity": 0.2125984251968504,
                    "duration": 0.9266409999999965
                },
                {
                    "name": "A#2",
                    "midi": 46,
                    "time": 59.61390433333346,
                    "velocity": 0.1889763779527559,
                    "duration": 0.30888033333333453
                },
                {
                    "name": "D#3",
                    "midi": 51,
                    "time": 59.92278466666679,
                    "velocity": 0.1968503937007874,
                    "duration": 0.30888033333333453
                },
                {
                    "name": "G3",
                    "midi": 55,
                    "time": 60.23166500000013,
                    "velocity": 0.2125984251968504,
                    "duration": 0.30888033333333453
                },
                {
                    "name": "D#3",
                    "midi": 51,
                    "time": 60.54054533333346,
                    "velocity": 0.1889763779527559,
                    "duration": 0.30888033333333453
                },
                {
                    "name": "A#2",
                    "midi": 46,
                    "time": 60.8494256666668,
                    "velocity": 0.1889763779527559,
                    "duration": 0.30888033333333453
                },
                {
                    "name": "D#2",
                    "midi": 39,
                    "time": 61.15830600000013,
                    "velocity": 0.2125984251968504,
                    "duration": 0.9266410000000107
                },
                {
                    "name": "A#2",
                    "midi": 46,
                    "time": 61.46718633333347,
                    "velocity": 0.1968503937007874,
                    "duration": 0.30888033333333453
                },
                {
                    "name": "D#3",
                    "midi": 51,
                    "time": 61.77606666666681,
                    "velocity": 0.1968503937007874,
                    "duration": 0.30888033333333453
                },
                {
                    "name": "G3",
                    "midi": 55,
                    "time": 62.08494700000014,
                    "velocity": 0.2125984251968504,
                    "duration": 0.30888033333333453
                },
                {
                    "name": "D#3",
                    "midi": 51,
                    "time": 62.393827333333476,
                    "velocity": 0.1889763779527559,
                    "duration": 0.30888033333333453
                },
                {
                    "name": "A#2",
                    "midi": 46,
                    "time": 62.70270766666681,
                    "velocity": 0.1889763779527559,
                    "duration": 0.30888033333333453
                },
                {
                    "name": "A#1",
                    "midi": 34,
                    "time": 63.011588000000145,
                    "velocity": 0.2125984251968504,
                    "duration": 0.9266410000000036
                },
                {
                    "name": "A#2",
                    "midi": 46,
                    "time": 63.32046833333348,
                    "velocity": 0.1889763779527559,
                    "duration": 0.30888033333333453
                },
                {
                    "name": "D3",
                    "midi": 50,
                    "time": 63.629348666666814,
                    "velocity": 0.1968503937007874,
                    "duration": 0.30888033333333453
                },
                {
                    "name": "F3",
                    "midi": 53,
                    "time": 63.93822900000015,
                    "velocity": 0.2125984251968504,
                    "duration": 0.30888033333333453
                },
                {
                    "name": "D3",
                    "midi": 50,
                    "time": 64.24710933333348,
                    "velocity": 0.1889763779527559,
                    "duration": 0.30888033333333453
                },
                {
                    "name": "A#2",
                    "midi": 46,
                    "time": 64.55598966666682,
                    "velocity": 0.1889763779527559,
                    "duration": 0.30888033333333453
                },
                {
                    "name": "C2",
                    "midi": 36,
                    "time": 64.86487000000015,
                    "velocity": 0.2125984251968504,
                    "duration": 0.9266410000000036
                },
                {
                    "name": "D#3",
                    "midi": 51,
                    "time": 65.17375033333349,
                    "velocity": 0.25196850393700787,
                    "duration": 0.30888033333333453
                },
                {
                    "name": "G2",
                    "midi": 43,
                    "time": 65.17375033333349,
                    "velocity": 0.25196850393700787,
                    "duration": 0.30888033333333453
                },
                {
                    "name": "G3",
                    "midi": 55,
                    "time": 65.48263066666682,
                    "velocity": 0.25196850393700787,
                    "duration": 0.30888033333333453
                },
                {
                    "name": "C3",
                    "midi": 48,
                    "time": 65.48263066666682,
                    "velocity": 0.25196850393700787,
                    "duration": 0.30888033333333453
                },
                {
                    "name": "C4",
                    "midi": 60,
                    "time": 65.79151100000016,
                    "velocity": 0.2755905511811024,
                    "duration": 0.30888033333333453
                },
                {
                    "name": "D#3",
                    "midi": 51,
                    "time": 65.79151100000016,
                    "velocity": 0.2755905511811024,
                    "duration": 0.30888033333333453
                },
                {
                    "name": "G3",
                    "midi": 55,
                    "time": 66.10039133333349,
                    "velocity": 0.2283464566929134,
                    "duration": 0.30888033333333453
                },
                {
                    "name": "C3",
                    "midi": 48,
                    "time": 66.10039133333349,
                    "velocity": 0.2283464566929134,
                    "duration": 0.30888033333333453
                },
                {
                    "name": "D#3",
                    "midi": 51,
                    "time": 66.40927166666683,
                    "velocity": 0.23622047244094488,
                    "duration": 0.30888033333333453
                },
                {
                    "name": "G2",
                    "midi": 43,
                    "time": 66.40927166666683,
                    "velocity": 0.23622047244094488,
                    "duration": 0.30888033333333453
                },
                {
                    "name": "C2",
                    "midi": 36,
                    "time": 66.71815200000016,
                    "velocity": 0.2283464566929134,
                    "duration": 0.9266410000000036
                },
                {
                    "name": "G2",
                    "midi": 43,
                    "time": 67.0270323333335,
                    "velocity": 0.2047244094488189,
                    "duration": 0.30888033333333453
                },
                {
                    "name": "F3",
                    "midi": 53,
                    "time": 67.0270323333335,
                    "velocity": 0.2047244094488189,
                    "duration": 0.30888033333333453
                },
                {
                    "name": "D3",
                    "midi": 50,
                    "time": 67.33591266666683,
                    "velocity": 0.2047244094488189,
                    "duration": 0.30888033333333453
                },
                {
                    "name": "G3",
                    "midi": 55,
                    "time": 67.33591266666683,
                    "velocity": 0.2047244094488189,
                    "duration": 0.30888033333333453
                },
                {
                    "name": "F3",
                    "midi": 53,
                    "time": 67.64479300000016,
                    "velocity": 0.2283464566929134,
                    "duration": 0.30888033333333453
                },
                {
                    "name": "B3",
                    "midi": 59,
                    "time": 67.64479300000016,
                    "velocity": 0.2283464566929134,
                    "duration": 0.30888033333333453
                },
                {
                    "name": "D3",
                    "midi": 50,
                    "time": 67.9536733333335,
                    "velocity": 0.2047244094488189,
                    "duration": 0.30888033333333453
                },
                {
                    "name": "G3",
                    "midi": 55,
                    "time": 67.9536733333335,
                    "velocity": 0.2047244094488189,
                    "duration": 0.30888033333333453
                },
                {
                    "name": "F3",
                    "midi": 53,
                    "time": 68.26255366666683,
                    "velocity": 0.2283464566929134,
                    "duration": 0.30888033333333453
                },
                {
                    "name": "G2",
                    "midi": 43,
                    "time": 68.26255366666683,
                    "velocity": 0.2047244094488189,
                    "duration": 0.30888033333333453
                },
                {
                    "name": "C2",
                    "midi": 36,
                    "time": 68.57143400000017,
                    "velocity": 0.2125984251968504,
                    "duration": 0.9266410000000036
                },
                {
                    "name": "G2",
                    "midi": 43,
                    "time": 68.8803143333335,
                    "velocity": 0.2440944881889764,
                    "duration": 0.30888033333333453
                },
                {
                    "name": "C3",
                    "midi": 48,
                    "time": 69.18919466666684,
                    "velocity": 0.25196850393700787,
                    "duration": 0.30888033333333453
                },
                {
                    "name": "D#3",
                    "midi": 51,
                    "time": 69.49807500000017,
                    "velocity": 0.29133858267716534,
                    "duration": 0.30888033333333453
                },
                {
                    "name": "C3",
                    "midi": 48,
                    "time": 69.8069553333335,
                    "velocity": 0.2755905511811024,
                    "duration": 0.30888033333333453
                },
                {
                    "name": "G2",
                    "midi": 43,
                    "time": 70.11583566666684,
                    "velocity": 0.2755905511811024,
                    "duration": 0.30888033333333453
                },
                {
                    "name": "C2",
                    "midi": 36,
                    "time": 70.42471600000017,
                    "velocity": 0.29133858267716534,
                    "duration": 0.9266410000000036
                },
                {
                    "name": "D3",
                    "midi": 50,
                    "time": 70.73359633333351,
                    "velocity": 0.2440944881889764,
                    "duration": 0.30888033333333453
                },
                {
                    "name": "G3",
                    "midi": 55,
                    "time": 71.04247666666684,
                    "velocity": 0.2204724409448819,
                    "duration": 0.30888033333333453
                },
                {
                    "name": "D4",
                    "midi": 62,
                    "time": 71.35135700000018,
                    "velocity": 0.25196850393700787,
                    "duration": 0.30888033333333453
                },
                {
                    "name": "G3",
                    "midi": 55,
                    "time": 71.66023733333351,
                    "velocity": 0.2204724409448819,
                    "duration": 0.30888033333333453
                },
                {
                    "name": "D3",
                    "midi": 50,
                    "time": 71.96911766666685,
                    "velocity": 0.2125984251968504,
                    "duration": 0.30888033333333453
                },
                {
                    "name": "C2",
                    "midi": 36,
                    "time": 72.27799800000018,
                    "velocity": 0.2283464566929134,
                    "duration": 0.9266410000000036
                },
                {
                    "name": "D#3",
                    "midi": 51,
                    "time": 72.58687833333352,
                    "velocity": 0.1889763779527559,
                    "duration": 0.30888033333333453
                },
                {
                    "name": "G3",
                    "midi": 55,
                    "time": 72.89575866666685,
                    "velocity": 0.1889763779527559,
                    "duration": 0.30888033333333453
                },
                {
                    "name": "C4",
                    "midi": 60,
                    "time": 73.20463900000018,
                    "velocity": 0.1968503937007874,
                    "duration": 0.30888033333333453
                },
                {
                    "name": "G3",
                    "midi": 55,
                    "time": 73.51351933333352,
                    "velocity": 0.16535433070866143,
                    "duration": 0.30888033333333453
                },
                {
                    "name": "D#3",
                    "midi": 51,
                    "time": 73.82239966666685,
                    "velocity": 0.16535433070866143,
                    "duration": 0.30888033333333453
                },
                {
                    "name": "F2",
                    "midi": 41,
                    "time": 74.13128000000019,
                    "velocity": 0.2125984251968504,
                    "duration": 0.9266410000000036
                },
                {
                    "name": "D3",
                    "midi": 50,
                    "time": 74.44016033333352,
                    "velocity": 0.1889763779527559,
                    "duration": 0.30888033333333453
                },
                {
                    "name": "F3",
                    "midi": 53,
                    "time": 74.74904066666686,
                    "velocity": 0.1968503937007874,
                    "duration": 0.30888033333333453
                },
                {
                    "name": "A#3",
                    "midi": 58,
                    "time": 75.05792100000019,
                    "velocity": 0.2125984251968504,
                    "duration": 0.30888033333333453
                },
                {
                    "name": "F3",
                    "midi": 53,
                    "time": 75.36680133333353,
                    "velocity": 0.1889763779527559,
                    "duration": 0.30888033333333453
                },
                {
                    "name": "D3",
                    "midi": 50,
                    "time": 75.67568166666686,
                    "velocity": 0.1889763779527559,
                    "duration": 0.30888033333333453
                },
                {
                    "name": "F2",
                    "midi": 41,
                    "time": 75.9845620000002,
                    "velocity": 0.2125984251968504,
                    "duration": 0.9266410000000036
                },
                {
                    "name": "D#3",
                    "midi": 51,
                    "time": 76.29344233333353,
                    "velocity": 0.2047244094488189,
                    "duration": 0.30888033333333453
                },
                {
                    "name": "F3",
                    "midi": 53,
                    "time": 76.60232266666686,
                    "velocity": 0.2047244094488189,
                    "duration": 0.30888033333333453
                },
                {
                    "name": "A3",
                    "midi": 57,
                    "time": 76.9112030000002,
                    "velocity": 0.23622047244094488,
                    "duration": 0.30888033333333453
                },
                {
                    "name": "F3",
                    "midi": 53,
                    "time": 77.22008333333353,
                    "velocity": 0.2047244094488189,
                    "duration": 0.30888033333333453
                },
                {
                    "name": "D#3",
                    "midi": 51,
                    "time": 77.52896366666687,
                    "velocity": 0.2047244094488189,
                    "duration": 0.30888033333333453
                },
                {
                    "name": "A#2",
                    "midi": 46,
                    "time": 77.8378440000002,
                    "velocity": 0.2125984251968504,
                    "duration": 4.63320499999999
                },
                {
                    "name": "F3",
                    "midi": 53,
                    "time": 78.14672433333352,
                    "velocity": 0.1889763779527559,
                    "duration": 0.30888033333333453
                },
                {
                    "name": "G3",
                    "midi": 55,
                    "time": 78.45560466666686,
                    "velocity": 0.1968503937007874,
                    "duration": 0.30888033333333453
                },
                {
                    "name": "G#3",
                    "midi": 56,
                    "time": 78.76448500000019,
                    "velocity": 0.2125984251968504,
                    "duration": 0.30888033333333453
                },
                {
                    "name": "F3",
                    "midi": 53,
                    "time": 79.07336533333353,
                    "velocity": 0.1889763779527559,
                    "duration": 0.30888033333333453
                },
                {
                    "name": "G3",
                    "midi": 55,
                    "time": 79.38224566666686,
                    "velocity": 0.1889763779527559,
                    "duration": 0.30888033333333453
                },
                {
                    "name": "G#3",
                    "midi": 56,
                    "time": 79.6911260000002,
                    "velocity": 0.2125984251968504,
                    "duration": 0.3088803333333203
                },
                {
                    "name": "F3",
                    "midi": 53,
                    "time": 80.00000633333352,
                    "velocity": 0.2047244094488189,
                    "duration": 0.30888033333333453
                },
                {
                    "name": "G3",
                    "midi": 55,
                    "time": 80.30888666666685,
                    "velocity": 0.2047244094488189,
                    "duration": 0.30888033333333453
                },
                {
                    "name": "G#3",
                    "midi": 56,
                    "time": 80.61776700000019,
                    "velocity": 0.23622047244094488,
                    "duration": 0.30888033333333453
                },
                {
                    "name": "F3",
                    "midi": 53,
                    "time": 80.92664733333352,
                    "velocity": 0.2047244094488189,
                    "duration": 0.30888033333333453
                },
                {
                    "name": "D#3",
                    "midi": 51,
                    "time": 81.23552766666685,
                    "velocity": 0.2047244094488189,
                    "duration": 0.30888033333333453
                },
                {
                    "name": "D3",
                    "midi": 50,
                    "time": 81.54440800000019,
                    "velocity": 0.2440944881889764,
                    "duration": 0.30888033333333453
                },
                {
                    "name": "F3",
                    "midi": 53,
                    "time": 81.85328833333352,
                    "velocity": 0.2204724409448819,
                    "duration": 0.30888033333333453
                },
                {
                    "name": "A#3",
                    "midi": 58,
                    "time": 82.16216866666686,
                    "velocity": 0.2204724409448819,
                    "duration": 0.30888033333333453
                },
                {
                    "name": "G#3",
                    "midi": 56,
                    "time": 82.47104900000019,
                    "velocity": 0.25196850393700787,
                    "duration": 0.30888033333333453
                },
                {
                    "name": "G3",
                    "midi": 55,
                    "time": 82.77992933333353,
                    "velocity": 0.2204724409448819,
                    "duration": 0.30888033333333453
                },
                {
                    "name": "F3",
                    "midi": 53,
                    "time": 83.08880966666686,
                    "velocity": 0.2204724409448819,
                    "duration": 0.30888033333333453
                },
                {
                    "name": "D#3",
                    "midi": 51,
                    "time": 83.3976900000002,
                    "velocity": 0.2204724409448819,
                    "duration": 0.30888033333333453
                },
                {
                    "name": "D3",
                    "midi": 50,
                    "time": 83.70657033333353,
                    "velocity": 0.1889763779527559,
                    "duration": 0.30888033333333453
                },
                {
                    "name": "D#3",
                    "midi": 51,
                    "time": 84.01545066666687,
                    "velocity": 0.1889763779527559,
                    "duration": 0.30888033333333453
                },
                {
                    "name": "D3",
                    "midi": 50,
                    "time": 84.3243310000002,
                    "velocity": 0.2125984251968504,
                    "duration": 0.30888033333333453
                },
                {
                    "name": "A#2",
                    "midi": 46,
                    "time": 84.63321133333353,
                    "velocity": 0.1968503937007874,
                    "duration": 0.30888033333333453
                },
                {
                    "name": "G#2",
                    "midi": 44,
                    "time": 84.94209166666687,
                    "velocity": 0.1968503937007874,
                    "duration": 0.30888033333333453
                },
                {
                    "name": "F#1",
                    "midi": 30,
                    "time": 85.2509720000002,
                    "velocity": 0.25196850393700787,
                    "duration": 0.9266409999999894
                },
                {
                    "name": "F#2",
                    "midi": 42,
                    "time": 85.2509720000002,
                    "velocity": 0.25196850393700787,
                    "duration": 0.9266409999999894
                },
                {
                    "name": "G#1",
                    "midi": 32,
                    "time": 86.17761300000019,
                    "velocity": 0.25196850393700787,
                    "duration": 0.9266410000000036
                },
                {
                    "name": "G#2",
                    "midi": 44,
                    "time": 86.17761300000019,
                    "velocity": 0.25196850393700787,
                    "duration": 0.9266410000000036
                },
                {
                    "name": "A#1",
                    "midi": 34,
                    "time": 87.1042540000002,
                    "velocity": 0.25196850393700787,
                    "duration": 1.8532820000000072
                },
                {
                    "name": "A#2",
                    "midi": 46,
                    "time": 87.1042540000002,
                    "velocity": 0.25196850393700787,
                    "duration": 1.8532820000000072
                },
                {
                    "name": "A#1",
                    "midi": 34,
                    "time": 88.9575360000002,
                    "velocity": 0.36220472440944884,
                    "duration": 0.9266410000000036
                },
                {
                    "name": "A#2",
                    "midi": 46,
                    "time": 88.9575360000002,
                    "velocity": 0.41732283464566927,
                    "duration": 0.9266410000000036
                },
                {
                    "name": "B1",
                    "midi": 35,
                    "time": 89.88417700000021,
                    "velocity": 0.3543307086614173,
                    "duration": 0.9266410000000036
                },
                {
                    "name": "B2",
                    "midi": 47,
                    "time": 89.88417700000021,
                    "velocity": 0.3937007874015748,
                    "duration": 0.9266410000000036
                },
                {
                    "name": "C#2",
                    "midi": 37,
                    "time": 90.81081800000021,
                    "velocity": 0.33070866141732286,
                    "duration": 1.8532820000000072
                },
                {
                    "name": "C#3",
                    "midi": 49,
                    "time": 90.81081800000021,
                    "velocity": 0.36220472440944884,
                    "duration": 1.8532820000000072
                },
                {
                    "name": "F#1",
                    "midi": 30,
                    "time": 92.66410000000022,
                    "velocity": 0.25196850393700787,
                    "duration": 0.9266410000000036
                },
                {
                    "name": "F#2",
                    "midi": 42,
                    "time": 92.66410000000022,
                    "velocity": 0.25196850393700787,
                    "duration": 0.9266410000000036
                },
                {
                    "name": "G#1",
                    "midi": 32,
                    "time": 93.59074100000022,
                    "velocity": 0.25196850393700787,
                    "duration": 0.9266410000000036
                },
                {
                    "name": "G#2",
                    "midi": 44,
                    "time": 93.59074100000022,
                    "velocity": 0.25196850393700787,
                    "duration": 0.9266410000000036
                },
                {
                    "name": "A#1",
                    "midi": 34,
                    "time": 94.51738200000023,
                    "velocity": 0.25196850393700787,
                    "duration": 1.8532820000000072
                },
                {
                    "name": "A#2",
                    "midi": 46,
                    "time": 94.51738200000023,
                    "velocity": 0.25196850393700787,
                    "duration": 1.8532820000000072
                },
                {
                    "name": "A#1",
                    "midi": 34,
                    "time": 96.37066400000023,
                    "velocity": 0.3937007874015748,
                    "duration": 0.9266410000000036
                },
                {
                    "name": "A#2",
                    "midi": 46,
                    "time": 96.37066400000023,
                    "velocity": 0.4409448818897638,
                    "duration": 0.9266410000000036
                },
                {
                    "name": "B1",
                    "midi": 35,
                    "time": 97.29730500000024,
                    "velocity": 0.3937007874015748,
                    "duration": 0.9266410000000036
                },
                {
                    "name": "B2",
                    "midi": 47,
                    "time": 97.29730500000024,
                    "velocity": 0.4409448818897638,
                    "duration": 0.9266410000000036
                },
                {
                    "name": "C#2",
                    "midi": 37,
                    "time": 98.22394600000024,
                    "velocity": 0.36220472440944884,
                    "duration": 1.8532820000000072
                },
                {
                    "name": "C#3",
                    "midi": 49,
                    "time": 98.22394600000024,
                    "velocity": 0.41732283464566927,
                    "duration": 1.8532820000000072
                },
                {
                    "name": "C#2",
                    "midi": 37,
                    "time": 100.07722800000025,
                    "velocity": 0.4330708661417323,
                    "duration": 0.9266409999999894
                },
                {
                    "name": "C#3",
                    "midi": 49,
                    "time": 100.07722800000025,
                    "velocity": 0.4881889763779528,
                    "duration": 0.9266409999999894
                },
                {
                    "name": "F#3",
                    "midi": 54,
                    "time": 100.38610833333357,
                    "velocity": 0.4015748031496063,
                    "duration": 0.30888033333333453
                },
                {
                    "name": "A#3",
                    "midi": 58,
                    "time": 100.6949886666669,
                    "velocity": 0.4015748031496063,
                    "duration": 0.30888033333333453
                },
                {
                    "name": "C#4",
                    "midi": 61,
                    "time": 101.00386900000024,
                    "velocity": 0.44881889763779526,
                    "duration": 0.30888033333333453
                },
                {
                    "name": "A#3",
                    "midi": 58,
                    "time": 101.31274933333357,
                    "velocity": 0.4094488188976378,
                    "duration": 0.30888033333333453
                },
                {
                    "name": "F#3",
                    "midi": 54,
                    "time": 101.6216296666669,
                    "velocity": 0.4094488188976378,
                    "duration": 0.30888033333333453
                },
                {
                    "name": "C#2",
                    "midi": 37,
                    "time": 101.93051000000024,
                    "velocity": 0.41732283464566927,
                    "duration": 0.9266410000000036
                },
                {
                    "name": "C#3",
                    "midi": 49,
                    "time": 101.93051000000024,
                    "velocity": 0.4645669291338583,
                    "duration": 0.9266410000000036
                },
                {
                    "name": "G#3",
                    "midi": 56,
                    "time": 102.23939033333357,
                    "velocity": 0.4094488188976378,
                    "duration": 0.30888033333333453
                },
                {
                    "name": "B3",
                    "midi": 59,
                    "time": 102.54827066666691,
                    "velocity": 0.4094488188976378,
                    "duration": 0.30888033333333453
                },
                {
                    "name": "C#4",
                    "midi": 61,
                    "time": 102.85715100000024,
                    "velocity": 0.44881889763779526,
                    "duration": 0.30888033333333453
                },
                {
                    "name": "B3",
                    "midi": 59,
                    "time": 103.16603133333358,
                    "velocity": 0.4094488188976378,
                    "duration": 0.30888033333333453
                },
                {
                    "name": "G#3",
                    "midi": 56,
                    "time": 103.47491166666691,
                    "velocity": 0.4094488188976378,
                    "duration": 0.30888033333333453
                },
                {
                    "name": "C#2",
                    "midi": 37,
                    "time": 103.78379200000025,
                    "velocity": 0.4330708661417323,
                    "duration": 0.9266410000000036
                },
                {
                    "name": "C#3",
                    "midi": 49,
                    "time": 103.78379200000025,
                    "velocity": 0.4881889763779528,
                    "duration": 0.9266410000000036
                },
                {
                    "name": "F#3",
                    "midi": 54,
                    "time": 104.09267233333358,
                    "velocity": 0.4015748031496063,
                    "duration": 0.30888033333333453
                },
                {
                    "name": "A#3",
                    "midi": 58,
                    "time": 104.40155266666692,
                    "velocity": 0.4015748031496063,
                    "duration": 0.30888033333333453
                },
                {
                    "name": "C#4",
                    "midi": 61,
                    "time": 104.71043300000025,
                    "velocity": 0.44881889763779526,
                    "duration": 0.30888033333333453
                },
                {
                    "name": "A#3",
                    "midi": 58,
                    "time": 105.01931333333359,
                    "velocity": 0.4094488188976378,
                    "duration": 0.30888033333333453
                },
                {
                    "name": "F#3",
                    "midi": 54,
                    "time": 105.32819366666692,
                    "velocity": 0.36220472440944884,
                    "duration": 0.30888033333333453
                },
                {
                    "name": "D2",
                    "midi": 38,
                    "time": 105.63707400000025,
                    "velocity": 0.2755905511811024,
                    "duration": 0.9266409999999894
                },
                {
                    "name": "D3",
                    "midi": 50,
                    "time": 105.63707400000025,
                    "velocity": 0.31496062992125984,
                    "duration": 0.9266409999999894
                },
                {
                    "name": "G#3",
                    "midi": 56,
                    "time": 105.94595433333357,
                    "velocity": 0.25196850393700787,
                    "duration": 0.30888033333333453
                },
                {
                    "name": "B3",
                    "midi": 59,
                    "time": 106.25483466666691,
                    "velocity": 0.25984251968503935,
                    "duration": 0.30888033333333453
                },
                {
                    "name": "D4",
                    "midi": 62,
                    "time": 106.56371500000024,
                    "velocity": 0.28346456692913385,
                    "duration": 0.30888033333333453
                },
                {
                    "name": "B3",
                    "midi": 59,
                    "time": 106.87259533333358,
                    "velocity": 0.2440944881889764,
                    "duration": 0.30888033333333453
                },
                {
                    "name": "G#3",
                    "midi": 56,
                    "time": 107.18147566666691,
                    "velocity": 0.2283464566929134,
                    "duration": 0.30888033333333453
                },
                {
                    "name": "D#2",
                    "midi": 39,
                    "time": 107.49035600000025,
                    "velocity": 0.31496062992125984,
                    "duration": 0.9266410000000036
                },
                {
                    "name": "D#3",
                    "midi": 51,
                    "time": 107.79923633333358,
                    "velocity": 0.25984251968503935,
                    "duration": 0.30888033333333453
                },
                {
                    "name": "F#3",
                    "midi": 54,
                    "time": 108.10811666666692,
                    "velocity": 0.25984251968503935,
                    "duration": 0.30888033333333453
                },
                {
                    "name": "A#3",
                    "midi": 58,
                    "time": 108.41699700000025,
                    "velocity": 0.28346456692913385,
                    "duration": 0.30888033333333453
                },
                {
                    "name": "F#3",
                    "midi": 54,
                    "time": 108.72587733333359,
                    "velocity": 0.2677165354330709,
                    "duration": 0.30888033333333453
                },
                {
                    "name": "D#3",
                    "midi": 51,
                    "time": 109.03475766666692,
                    "velocity": 0.2677165354330709,
                    "duration": 0.30888033333333453
                },
                {
                    "name": "G#2",
                    "midi": 44,
                    "time": 109.34363800000025,
                    "velocity": 0.2992125984251969,
                    "duration": 0.9266409999999894
                },
                {
                    "name": "D#3",
                    "midi": 51,
                    "time": 109.65251833333357,
                    "velocity": 0.2677165354330709,
                    "duration": 0.30888033333333453
                },
                {
                    "name": "G#3",
                    "midi": 56,
                    "time": 109.96139866666691,
                    "velocity": 0.2677165354330709,
                    "duration": 0.30888033333333453
                },
                {
                    "name": "B3",
                    "midi": 59,
                    "time": 110.27027900000024,
                    "velocity": 0.28346456692913385,
                    "duration": 0.9266410000000036
                },
                {
                    "name": "D#2",
                    "midi": 39,
                    "time": 111.19692000000025,
                    "velocity": 0.31496062992125984,
                    "duration": 0.9266409999999894
                },
                {
                    "name": "D#3",
                    "midi": 51,
                    "time": 111.50580033333357,
                    "velocity": 0.25984251968503935,
                    "duration": 0.30888033333333453
                },
                {
                    "name": "F#3",
                    "midi": 54,
                    "time": 111.8146806666669,
                    "velocity": 0.25984251968503935,
                    "duration": 0.30888033333333453
                },
                {
                    "name": "A#3",
                    "midi": 58,
                    "time": 112.12356100000024,
                    "velocity": 0.28346456692913385,
                    "duration": 0.30888033333333453
                },
                {
                    "name": "F#3",
                    "midi": 54,
                    "time": 112.43244133333357,
                    "velocity": 0.2677165354330709,
                    "duration": 0.30888033333333453
                },
                {
                    "name": "D#3",
                    "midi": 51,
                    "time": 112.7413216666669,
                    "velocity": 0.2677165354330709,
                    "duration": 0.30888033333333453
                },
                {
                    "name": "G#2",
                    "midi": 44,
                    "time": 113.05020200000024,
                    "velocity": 0.2992125984251969,
                    "duration": 0.9266410000000036
                },
                {
                    "name": "D#3",
                    "midi": 51,
                    "time": 113.35908233333357,
                    "velocity": 0.28346456692913385,
                    "duration": 0.30888033333333453
                },
                {
                    "name": "G#3",
                    "midi": 56,
                    "time": 113.66796266666691,
                    "velocity": 0.2992125984251969,
                    "duration": 0.30888033333333453
                },
                {
                    "name": "B3",
                    "midi": 59,
                    "time": 113.97684300000024,
                    "velocity": 0.3543307086614173,
                    "duration": 0.9266410000000036
                },
                {
                    "name": "G#2",
                    "midi": 44,
                    "time": 114.90348400000025,
                    "velocity": 0.4094488188976378,
                    "duration": 0.9266409999999894
                },
                {
                    "name": "D#3",
                    "midi": 51,
                    "time": 115.21236433333357,
                    "velocity": 0.29133858267716534,
                    "duration": 0.30888033333333453
                },
                {
                    "name": "G#3",
                    "midi": 56,
                    "time": 115.5212446666669,
                    "velocity": 0.31496062992125984,
                    "duration": 0.30888033333333453
                },
                {
                    "name": "B3",
                    "midi": 59,
                    "time": 115.83012500000024,
                    "velocity": 0.3700787401574803,
                    "duration": 0.9266410000000036
                },
                {
                    "name": "G#2",
                    "midi": 44,
                    "time": 116.75676600000024,
                    "velocity": 0.47244094488188976,
                    "duration": 0.9266410000000036
                },
                {
                    "name": "D#3",
                    "midi": 51,
                    "time": 117.06564633333358,
                    "velocity": 0.4015748031496063,
                    "duration": 0.30888033333333453
                },
                {
                    "name": "G#3",
                    "midi": 56,
                    "time": 117.37452666666691,
                    "velocity": 0.4015748031496063,
                    "duration": 0.30888033333333453
                },
                {
                    "name": "B3",
                    "midi": 59,
                    "time": 117.68340700000024,
                    "velocity": 0.44881889763779526,
                    "duration": 0.30888033333333453
                },
                {
                    "name": "G#3",
                    "midi": 56,
                    "time": 117.99228733333358,
                    "velocity": 0.4330708661417323,
                    "duration": 0.30888033333333453
                },
                {
                    "name": "D#3",
                    "midi": 51,
                    "time": 118.30116766666691,
                    "velocity": 0.4251968503937008,
                    "duration": 0.30888033333333453
                },
                {
                    "name": "B3",
                    "midi": 59,
                    "time": 118.61004800000025,
                    "velocity": 0.4330708661417323,
                    "duration": 0.30888033333333453
                },
                {
                    "name": "G#3",
                    "midi": 56,
                    "time": 118.91892833333358,
                    "velocity": 0.33858267716535434,
                    "duration": 0.30888033333333453
                },
                {
                    "name": "D#3",
                    "midi": 51,
                    "time": 119.22780866666692,
                    "velocity": 0.2992125984251969,
                    "duration": 0.30888033333333453
                },
                {
                    "name": "B3",
                    "midi": 59,
                    "time": 119.53668900000025,
                    "velocity": 0.2677165354330709,
                    "duration": 0.9266410000000036
                },
                {
                    "name": "A#1",
                    "midi": 34,
                    "time": 122.31661200000025,
                    "velocity": 0.2125984251968504,
                    "duration": 0.9266410000000036
                },
                {
                    "name": "A#2",
                    "midi": 46,
                    "time": 122.62549233333358,
                    "velocity": 0.1889763779527559,
                    "duration": 0.30888033333333453
                },
                {
                    "name": "D#3",
                    "midi": 51,
                    "time": 122.93437266666692,
                    "velocity": 0.1968503937007874,
                    "duration": 0.30888033333333453
                },
                {
                    "name": "G3",
                    "midi": 55,
                    "time": 123.24325300000025,
                    "velocity": 0.2125984251968504,
                    "duration": 0.30888033333333453
                },
                {
                    "name": "D#3",
                    "midi": 51,
                    "time": 123.55213333333359,
                    "velocity": 0.1889763779527559,
                    "duration": 0.30888033333333453
                },
                {
                    "name": "A#2",
                    "midi": 46,
                    "time": 123.86101366666692,
                    "velocity": 0.1889763779527559,
                    "duration": 0.30888033333333453
                },
                {
                    "name": "A#1",
                    "midi": 34,
                    "time": 124.16989400000026,
                    "velocity": 0.2125984251968504,
                    "duration": 0.9266410000000036
                },
                {
                    "name": "A#2",
                    "midi": 46,
                    "time": 124.47877433333359,
                    "velocity": 0.1968503937007874,
                    "duration": 0.30888033333333453
                },
                {
                    "name": "D#3",
                    "midi": 51,
                    "time": 124.78765466666692,
                    "velocity": 0.1968503937007874,
                    "duration": 0.30888033333333453
                },
                {
                    "name": "G3",
                    "midi": 55,
                    "time": 125.09653500000026,
                    "velocity": 0.2125984251968504,
                    "duration": 0.30888033333333453
                },
                {
                    "name": "D#3",
                    "midi": 51,
                    "time": 125.4054153333336,
                    "velocity": 0.1889763779527559,
                    "duration": 0.30888033333333453
                },
                {
                    "name": "A#2",
                    "midi": 46,
                    "time": 125.71429566666693,
                    "velocity": 0.1889763779527559,
                    "duration": 0.30888033333333453
                },
                {
                    "name": "A#1",
                    "midi": 34,
                    "time": 126.02317600000026,
                    "velocity": 0.2125984251968504,
                    "duration": 0.9266409999999894
                },
                {
                    "name": "A#2",
                    "midi": 46,
                    "time": 126.33205633333358,
                    "velocity": 0.1889763779527559,
                    "duration": 0.30888033333333453
                },
                {
                    "name": "D3",
                    "midi": 50,
                    "time": 126.64093666666692,
                    "velocity": 0.1968503937007874,
                    "duration": 0.30888033333333453
                },
                {
                    "name": "F3",
                    "midi": 53,
                    "time": 126.94981700000025,
                    "velocity": 0.2125984251968504,
                    "duration": 0.30888033333333453
                },
                {
                    "name": "D3",
                    "midi": 50,
                    "time": 127.25869733333359,
                    "velocity": 0.1889763779527559,
                    "duration": 0.30888033333333453
                },
                {
                    "name": "A#2",
                    "midi": 46,
                    "time": 127.56757766666692,
                    "velocity": 0.1889763779527559,
                    "duration": 0.30888033333333453
                },
                {
                    "name": "C2",
                    "midi": 36,
                    "time": 127.87645800000026,
                    "velocity": 0.2125984251968504,
                    "duration": 0.9266409999999752
                },
                {
                    "name": "D#3",
                    "midi": 51,
                    "time": 128.1853383333336,
                    "velocity": 0.25196850393700787,
                    "duration": 0.3088803333333203
                },
                {
                    "name": "G2",
                    "midi": 43,
                    "time": 128.1853383333336,
                    "velocity": 0.25196850393700787,
                    "duration": 0.3088803333333203
                },
                {
                    "name": "G3",
                    "midi": 55,
                    "time": 128.4942186666669,
                    "velocity": 0.25196850393700787,
                    "duration": 0.3088803333333203
                },
                {
                    "name": "C3",
                    "midi": 48,
                    "time": 128.4942186666669,
                    "velocity": 0.25196850393700787,
                    "duration": 0.3088803333333203
                },
                {
                    "name": "C4",
                    "midi": 60,
                    "time": 128.80309900000023,
                    "velocity": 0.2755905511811024,
                    "duration": 0.3088803333333203
                },
                {
                    "name": "D#3",
                    "midi": 51,
                    "time": 128.80309900000023,
                    "velocity": 0.2755905511811024,
                    "duration": 0.3088803333333203
                },
                {
                    "name": "G3",
                    "midi": 55,
                    "time": 129.11197933333355,
                    "velocity": 0.2283464566929134,
                    "duration": 0.3088803333333203
                },
                {
                    "name": "C3",
                    "midi": 48,
                    "time": 129.11197933333355,
                    "velocity": 0.2283464566929134,
                    "duration": 0.3088803333333203
                },
                {
                    "name": "D#3",
                    "midi": 51,
                    "time": 129.42085966666687,
                    "velocity": 0.23622047244094488,
                    "duration": 0.3088803333333203
                },
                {
                    "name": "G2",
                    "midi": 43,
                    "time": 129.42085966666687,
                    "velocity": 0.23622047244094488,
                    "duration": 0.3088803333333203
                },
                {
                    "name": "G#2",
                    "midi": 44,
                    "time": 129.7297400000002,
                    "velocity": 0.30708661417322836,
                    "duration": 0.28957531250000557
                },
                {
                    "name": "G#1",
                    "midi": 32,
                    "time": 129.7297400000002,
                    "velocity": 0.28346456692913385,
                    "duration": 0.9266409999999894
                },
                {
                    "name": "G#2",
                    "midi": 44,
                    "time": 130.03862033333354,
                    "velocity": 0.2755905511811024,
                    "duration": 0.3088803333333203
                },
                {
                    "name": "C3",
                    "midi": 48,
                    "time": 130.34750066666686,
                    "velocity": 0.25984251968503935,
                    "duration": 0.3088803333333203
                },
                {
                    "name": "F3",
                    "midi": 53,
                    "time": 130.65638100000018,
                    "velocity": 0.3543307086614173,
                    "duration": 0.3088803333333203
                },
                {
                    "name": "C3",
                    "midi": 48,
                    "time": 130.9652613333335,
                    "velocity": 0.29133858267716534,
                    "duration": 0.3088803333333203
                },
                {
                    "name": "G#2",
                    "midi": 44,
                    "time": 131.27414166666682,
                    "velocity": 0.29133858267716534,
                    "duration": 0.3088803333333203
                },
                {
                    "name": "F2",
                    "midi": 41,
                    "time": 131.58302200000014,
                    "velocity": 0.3779527559055118,
                    "duration": 0.926640999999961
                },
                {
                    "name": "F1",
                    "midi": 29,
                    "time": 131.58302200000014,
                    "velocity": 0.33858267716535434,
                    "duration": 0.926640999999961
                },
                {
                    "name": "C3",
                    "midi": 48,
                    "time": 131.89190233333346,
                    "velocity": 0.2992125984251969,
                    "duration": 0.3088803333333203
                },
                {
                    "name": "F3",
                    "midi": 53,
                    "time": 132.20078266666678,
                    "velocity": 0.3543307086614173,
                    "duration": 0.3088803333333203
                },
                {
                    "name": "G#3",
                    "midi": 56,
                    "time": 132.5096630000001,
                    "velocity": 0.3858267716535433,
                    "duration": 0.3088803333333203
                },
                {
                    "name": "F3",
                    "midi": 53,
                    "time": 132.81854333333342,
                    "velocity": 0.3543307086614173,
                    "duration": 0.3088803333333203
                },
                {
                    "name": "C3",
                    "midi": 48,
                    "time": 133.12742366666674,
                    "velocity": 0.33070866141732286,
                    "duration": 0.3088803333333203
                },
                {
                    "name": "A#1",
                    "midi": 34,
                    "time": 133.43630400000006,
                    "velocity": 0.2283464566929134,
                    "duration": 0.926640999999961
                },
                {
                    "name": "A#2",
                    "midi": 46,
                    "time": 133.43630400000006,
                    "velocity": 0.25984251968503935,
                    "duration": 0.926640999999961
                },
                {
                    "name": "F3",
                    "midi": 53,
                    "time": 133.74518433333338,
                    "velocity": 0.28346456692913385,
                    "duration": 0.3088803333333203
                },
                {
                    "name": "G#3",
                    "midi": 56,
                    "time": 134.0540646666667,
                    "velocity": 0.23622047244094488,
                    "duration": 0.3088803333333203
                },
                {
                    "name": "A#3",
                    "midi": 58,
                    "time": 134.36294500000002,
                    "velocity": 0.28346456692913385,
                    "duration": 0.3088803333333203
                },
                {
                    "name": "G#3",
                    "midi": 56,
                    "time": 134.67182533333335,
                    "velocity": 0.25196850393700787,
                    "duration": 0.3088803333333203
                },
                {
                    "name": "F3",
                    "midi": 53,
                    "time": 134.98070566666667,
                    "velocity": 0.2204724409448819,
                    "duration": 0.3088803333333203
                },
                {
                    "name": "A#3",
                    "midi": 58,
                    "time": 135.28958599999999,
                    "velocity": 0.2125984251968504,
                    "duration": 0.3088803333333203
                },
                {
                    "name": "G#3",
                    "midi": 56,
                    "time": 135.5984663333333,
                    "velocity": 0.18110236220472442,
                    "duration": 0.3088803333333203
                },
                {
                    "name": "F3",
                    "midi": 53,
                    "time": 135.90734666666663,
                    "velocity": 0.18110236220472442,
                    "duration": 0.3088803333333203
                },
                {
                    "name": "D3",
                    "midi": 50,
                    "time": 136.21622699999995,
                    "velocity": 0.16535433070866143,
                    "duration": 0.926640999999961
                },
                {
                    "name": "A#3",
                    "midi": 58,
                    "time": 136.21622699999995,
                    "velocity": 0.18110236220472442,
                    "duration": 0.3088803333333203
                },
                {
                    "name": "G#3",
                    "midi": 56,
                    "time": 136.52510733333327,
                    "velocity": 0.14173228346456693,
                    "duration": 0.3088803333333203
                },
                {
                    "name": "F3",
                    "midi": 53,
                    "time": 136.8339876666666,
                    "velocity": 0.14173228346456693,
                    "duration": 0.3088803333333203
                },
                {
                    "name": "D#2",
                    "midi": 39,
                    "time": 137.1428679999999,
                    "velocity": 0.3543307086614173,
                    "duration": 0.9266409999999894
                },
                {
                    "name": "D#3",
                    "midi": 51,
                    "time": 137.45174833333326,
                    "velocity": 0.28346456692913385,
                    "duration": 0.3088803333333203
                },
                {
                    "name": "G3",
                    "midi": 55,
                    "time": 137.76062866666658,
                    "velocity": 0.28346456692913385,
                    "duration": 0.3088803333333203
                },
                {
                    "name": "A#3",
                    "midi": 58,
                    "time": 138.0695089999999,
                    "velocity": 0.3228346456692913,
                    "duration": 0.3088803333333203
                },
                {
                    "name": "G3",
                    "midi": 55,
                    "time": 138.37838933333322,
                    "velocity": 0.29133858267716534,
                    "duration": 0.3088803333333203
                },
                {
                    "name": "D#3",
                    "midi": 51,
                    "time": 138.68726966666654,
                    "velocity": 0.29133858267716534,
                    "duration": 0.3088803333333203
                },
                {
                    "name": "A#1",
                    "midi": 34,
                    "time": 138.99614999999986,
                    "velocity": 0.4015748031496063,
                    "duration": 0.9266409999999894
                },
                {
                    "name": "A#2",
                    "midi": 46,
                    "time": 138.99614999999986,
                    "velocity": 0.4015748031496063,
                    "duration": 0.9266409999999894
                },
                {
                    "name": "F3",
                    "midi": 53,
                    "time": 139.3050303333332,
                    "velocity": 0.29133858267716534,
                    "duration": 0.3088803333333203
                },
                {
                    "name": "G#3",
                    "midi": 56,
                    "time": 139.61391066666653,
                    "velocity": 0.29133858267716534,
                    "duration": 0.3088803333333203
                },
                {
                    "name": "A#3",
                    "midi": 58,
                    "time": 139.92279099999985,
                    "velocity": 0.3228346456692913,
                    "duration": 0.3088803333333203
                },
                {
                    "name": "G#3",
                    "midi": 56,
                    "time": 140.23167133333317,
                    "velocity": 0.29133858267716534,
                    "duration": 0.3088803333333203
                },
                {
                    "name": "F3",
                    "midi": 53,
                    "time": 140.5405516666665,
                    "velocity": 0.29133858267716534,
                    "duration": 0.3088803333333203
                },
                {
                    "name": "D#2",
                    "midi": 39,
                    "time": 140.8494319999998,
                    "velocity": 0.3543307086614173,
                    "duration": 0.9266409999999894
                },
                {
                    "name": "D#3",
                    "midi": 51,
                    "time": 141.15831233333316,
                    "velocity": 0.28346456692913385,
                    "duration": 0.3088803333333203
                },
                {
                    "name": "G3",
                    "midi": 55,
                    "time": 141.46719266666648,
                    "velocity": 0.28346456692913385,
                    "duration": 0.3088803333333203
                },
                {
                    "name": "A#3",
                    "midi": 58,
                    "time": 141.7760729999998,
                    "velocity": 0.3228346456692913,
                    "duration": 0.3088803333333203
                },
                {
                    "name": "G3",
                    "midi": 55,
                    "time": 142.08495333333312,
                    "velocity": 0.29133858267716534,
                    "duration": 0.3088803333333203
                },
                {
                    "name": "D#3",
                    "midi": 51,
                    "time": 142.39383366666644,
                    "velocity": 0.25984251968503935,
                    "duration": 0.3088803333333203
                },
                {
                    "name": "B1",
                    "midi": 35,
                    "time": 142.70271399999976,
                    "velocity": 0.2755905511811024,
                    "duration": 0.926640999999961
                },
                {
                    "name": "B2",
                    "midi": 47,
                    "time": 142.70271399999976,
                    "velocity": 0.3228346456692913,
                    "duration": 0.926640999999961
                },
                {
                    "name": "F3",
                    "midi": 53,
                    "time": 143.01159433333308,
                    "velocity": 0.2440944881889764,
                    "duration": 0.3088803333333203
                },
                {
                    "name": "G#3",
                    "midi": 56,
                    "time": 143.3204746666664,
                    "velocity": 0.2440944881889764,
                    "duration": 0.3088803333333203
                },
                {
                    "name": "B3",
                    "midi": 59,
                    "time": 143.62935499999972,
                    "velocity": 0.25196850393700787,
                    "duration": 0.3088803333333203
                },
                {
                    "name": "G#3",
                    "midi": 56,
                    "time": 143.93823533333304,
                    "velocity": 0.2283464566929134,
                    "duration": 0.3088803333333203
                },
                {
                    "name": "F3",
                    "midi": 53,
                    "time": 144.24711566666636,
                    "velocity": 0.2204724409448819,
                    "duration": 0.3088803333333203
                },
                {
                    "name": "C2",
                    "midi": 36,
                    "time": 144.55599599999968,
                    "velocity": 0.2677165354330709,
                    "duration": 0.9266409999999894
                },
                {
                    "name": "C3",
                    "midi": 48,
                    "time": 144.86487633333303,
                    "velocity": 0.2047244094488189,
                    "duration": 0.3088803333333203
                },
                {
                    "name": "D#3",
                    "midi": 51,
                    "time": 145.17375666666635,
                    "velocity": 0.2047244094488189,
                    "duration": 0.3088803333333203
                },
                {
                    "name": "G3",
                    "midi": 55,
                    "time": 145.48263699999967,
                    "velocity": 0.23622047244094488,
                    "duration": 0.3088803333333203
                },
                {
                    "name": "D#3",
                    "midi": 51,
                    "time": 145.791517333333,
                    "velocity": 0.2125984251968504,
                    "duration": 0.3088803333333203
                },
                {
                    "name": "C3",
                    "midi": 48,
                    "time": 146.1003976666663,
                    "velocity": 0.1889763779527559,
                    "duration": 0.3088803333333203
                },
                {
                    "name": "G#2",
                    "midi": 44,
                    "time": 146.40927799999963,
                    "velocity": 0.2677165354330709,
                    "duration": 0.9266410000000178
                },
                {
                    "name": "A#2",
                    "midi": 46,
                    "time": 147.33591899999965,
                    "velocity": 0.2125984251968504,
                    "duration": 0.9266410000000178
                },
                {
                    "name": "G#3",
                    "midi": 56,
                    "time": 147.33591899999965,
                    "velocity": 0.23622047244094488,
                    "duration": 0.9227799958333378
                },
                {
                    "name": "D#2",
                    "midi": 39,
                    "time": 148.26255999999967,
                    "velocity": 0.2677165354330709,
                    "duration": 0.9266409999999894
                },
                {
                    "name": "A#2",
                    "midi": 46,
                    "time": 148.57144033333302,
                    "velocity": 0.2047244094488189,
                    "duration": 0.3088803333333203
                },
                {
                    "name": "D3",
                    "midi": 50,
                    "time": 148.88032066666634,
                    "velocity": 0.2047244094488189,
                    "duration": 0.3088803333333203
                },
                {
                    "name": "F3",
                    "midi": 53,
                    "time": 149.18920099999966,
                    "velocity": 0.23622047244094488,
                    "duration": 0.3088803333333203
                },
                {
                    "name": "D3",
                    "midi": 50,
                    "time": 149.49808133333298,
                    "velocity": 0.2125984251968504,
                    "duration": 0.3088803333333203
                },
                {
                    "name": "A#2",
                    "midi": 46,
                    "time": 149.8069616666663,
                    "velocity": 0.1889763779527559,
                    "duration": 0.3088803333333203
                },
                {
                    "name": "D#2",
                    "midi": 39,
                    "time": 150.11584199999962,
                    "velocity": 0.2440944881889764,
                    "duration": 0.9266409999999894
                },
                {
                    "name": "A#2",
                    "midi": 46,
                    "time": 150.42472233333297,
                    "velocity": 0.2047244094488189,
                    "duration": 0.3088803333333203
                },
                {
                    "name": "D#3",
                    "midi": 51,
                    "time": 150.7336026666663,
                    "velocity": 0.1889763779527559,
                    "duration": 0.3088803333333203
                },
                {
                    "name": "D#2",
                    "midi": 39,
                    "time": 151.0424829999996,
                    "velocity": 0.18110236220472442,
                    "duration": 0.4633205000000089
                },
                {
                    "name": "F#1",
                    "midi": 30,
                    "time": 151.96912399999962,
                    "velocity": 0.25196850393700787,
                    "duration": 0.9266410000000178
                },
                {
                    "name": "F#2",
                    "midi": 42,
                    "time": 151.96912399999962,
                    "velocity": 0.25196850393700787,
                    "duration": 0.9266410000000178
                },
                {
                    "name": "G#1",
                    "midi": 32,
                    "time": 152.89576499999964,
                    "velocity": 0.25196850393700787,
                    "duration": 0.9266410000000178
                },
                {
                    "name": "G#2",
                    "midi": 44,
                    "time": 152.89576499999964,
                    "velocity": 0.25196850393700787,
                    "duration": 0.9266410000000178
                },
                {
                    "name": "A#1",
                    "midi": 34,
                    "time": 153.82240599999966,
                    "velocity": 0.25196850393700787,
                    "duration": 1.8532820000000072
                },
                {
                    "name": "A#2",
                    "midi": 46,
                    "time": 153.82240599999966,
                    "velocity": 0.25196850393700787,
                    "duration": 1.8532820000000072
                },
                {
                    "name": "A#1",
                    "midi": 34,
                    "time": 155.67568799999967,
                    "velocity": 0.36220472440944884,
                    "duration": 0.9266409999999894
                },
                {
                    "name": "A#2",
                    "midi": 46,
                    "time": 155.67568799999967,
                    "velocity": 0.41732283464566927,
                    "duration": 0.9266409999999894
                },
                {
                    "name": "B1",
                    "midi": 35,
                    "time": 156.60232899999966,
                    "velocity": 0.3543307086614173,
                    "duration": 0.9266410000000178
                },
                {
                    "name": "B2",
                    "midi": 47,
                    "time": 156.60232899999966,
                    "velocity": 0.3937007874015748,
                    "duration": 0.9266410000000178
                },
                {
                    "name": "C#2",
                    "midi": 37,
                    "time": 157.52896999999967,
                    "velocity": 0.33070866141732286,
                    "duration": 1.8532819999999788
                },
                {
                    "name": "C#3",
                    "midi": 49,
                    "time": 157.52896999999967,
                    "velocity": 0.36220472440944884,
                    "duration": 1.8532819999999788
                },
                {
                    "name": "F#1",
                    "midi": 30,
                    "time": 159.38225199999965,
                    "velocity": 0.25196850393700787,
                    "duration": 0.9266409999999894
                },
                {
                    "name": "F#2",
                    "midi": 42,
                    "time": 159.38225199999965,
                    "velocity": 0.25196850393700787,
                    "duration": 0.9266409999999894
                },
                {
                    "name": "G#1",
                    "midi": 32,
                    "time": 160.30889299999964,
                    "velocity": 0.25196850393700787,
                    "duration": 0.9266410000000178
                },
                {
                    "name": "G#2",
                    "midi": 44,
                    "time": 160.30889299999964,
                    "velocity": 0.25196850393700787,
                    "duration": 0.9266410000000178
                },
                {
                    "name": "A#1",
                    "midi": 34,
                    "time": 161.23553399999966,
                    "velocity": 0.25196850393700787,
                    "duration": 1.8532820000000072
                },
                {
                    "name": "A#2",
                    "midi": 46,
                    "time": 161.23553399999966,
                    "velocity": 0.25196850393700787,
                    "duration": 1.8532820000000072
                },
                {
                    "name": "A#1",
                    "midi": 34,
                    "time": 163.08881599999967,
                    "velocity": 0.3937007874015748,
                    "duration": 0.9266409999999894
                },
                {
                    "name": "A#2",
                    "midi": 46,
                    "time": 163.08881599999967,
                    "velocity": 0.4409448818897638,
                    "duration": 0.9266409999999894
                },
                {
                    "name": "B1",
                    "midi": 35,
                    "time": 164.01545699999966,
                    "velocity": 0.3937007874015748,
                    "duration": 0.9266410000000178
                },
                {
                    "name": "B2",
                    "midi": 47,
                    "time": 164.01545699999966,
                    "velocity": 0.4409448818897638,
                    "duration": 0.9266410000000178
                },
                {
                    "name": "C#2",
                    "midi": 37,
                    "time": 164.94209799999967,
                    "velocity": 0.36220472440944884,
                    "duration": 1.8532820000000072
                },
                {
                    "name": "C#3",
                    "midi": 49,
                    "time": 164.94209799999967,
                    "velocity": 0.41732283464566927,
                    "duration": 1.8532820000000072
                },
                {
                    "name": "C#2",
                    "midi": 37,
                    "time": 166.79537999999968,
                    "velocity": 0.4330708661417323,
                    "duration": 0.926640999999961
                },
                {
                    "name": "C#3",
                    "midi": 49,
                    "time": 166.79537999999968,
                    "velocity": 0.4881889763779528,
                    "duration": 0.926640999999961
                },
                {
                    "name": "F#3",
                    "midi": 54,
                    "time": 167.104260333333,
                    "velocity": 0.4015748031496063,
                    "duration": 0.3088803333333203
                },
                {
                    "name": "A#3",
                    "midi": 58,
                    "time": 167.41314066666632,
                    "velocity": 0.4015748031496063,
                    "duration": 0.3088803333333203
                },
                {
                    "name": "C#4",
                    "midi": 61,
                    "time": 167.72202099999964,
                    "velocity": 0.44881889763779526,
                    "duration": 0.3088803333333203
                },
                {
                    "name": "A#3",
                    "midi": 58,
                    "time": 168.03090133333296,
                    "velocity": 0.4094488188976378,
                    "duration": 0.3088803333333203
                },
                {
                    "name": "F#3",
                    "midi": 54,
                    "time": 168.33978166666628,
                    "velocity": 0.4094488188976378,
                    "duration": 0.3088803333333203
                },
                {
                    "name": "C#2",
                    "midi": 37,
                    "time": 168.6486619999996,
                    "velocity": 0.41732283464566927,
                    "duration": 0.926640999999961
                },
                {
                    "name": "C#3",
                    "midi": 49,
                    "time": 168.6486619999996,
                    "velocity": 0.4645669291338583,
                    "duration": 0.926640999999961
                },
                {
                    "name": "G#3",
                    "midi": 56,
                    "time": 168.95754233333292,
                    "velocity": 0.4094488188976378,
                    "duration": 0.3088803333333203
                },
                {
                    "name": "B3",
                    "midi": 59,
                    "time": 169.26642266666624,
                    "velocity": 0.4094488188976378,
                    "duration": 0.3088803333333203
                },
                {
                    "name": "C#4",
                    "midi": 61,
                    "time": 169.57530299999956,
                    "velocity": 0.44881889763779526,
                    "duration": 0.3088803333333203
                },
                {
                    "name": "B3",
                    "midi": 59,
                    "time": 169.88418333333289,
                    "velocity": 0.4094488188976378,
                    "duration": 0.3088803333333203
                },
                {
                    "name": "G#3",
                    "midi": 56,
                    "time": 170.1930636666662,
                    "velocity": 0.4094488188976378,
                    "duration": 0.3088803333333203
                },
                {
                    "name": "C#2",
                    "midi": 37,
                    "time": 170.50194399999953,
                    "velocity": 0.4330708661417323,
                    "duration": 0.926640999999961
                },
                {
                    "name": "C#3",
                    "midi": 49,
                    "time": 170.50194399999953,
                    "velocity": 0.4881889763779528,
                    "duration": 0.926640999999961
                },
                {
                    "name": "F#3",
                    "midi": 54,
                    "time": 170.81082433333285,
                    "velocity": 0.4015748031496063,
                    "duration": 0.3088803333333203
                },
                {
                    "name": "A#3",
                    "midi": 58,
                    "time": 171.11970466666617,
                    "velocity": 0.4015748031496063,
                    "duration": 0.3088803333333203
                },
                {
                    "name": "C#4",
                    "midi": 61,
                    "time": 171.4285849999995,
                    "velocity": 0.44881889763779526,
                    "duration": 0.3088803333333203
                },
                {
                    "name": "A#3",
                    "midi": 58,
                    "time": 171.7374653333328,
                    "velocity": 0.4094488188976378,
                    "duration": 0.3088803333333203
                },
                {
                    "name": "F#3",
                    "midi": 54,
                    "time": 172.04634566666613,
                    "velocity": 0.3543307086614173,
                    "duration": 0.3088803333333203
                },
                {
                    "name": "D2",
                    "midi": 38,
                    "time": 172.35522599999945,
                    "velocity": 0.31496062992125984,
                    "duration": 0.926640999999961
                },
                {
                    "name": "D3",
                    "midi": 50,
                    "time": 172.35522599999945,
                    "velocity": 0.31496062992125984,
                    "duration": 0.926640999999961
                },
                {
                    "name": "G#3",
                    "midi": 56,
                    "time": 172.66410633333277,
                    "velocity": 0.2677165354330709,
                    "duration": 0.3088803333333203
                },
                {
                    "name": "B3",
                    "midi": 59,
                    "time": 172.9729866666661,
                    "velocity": 0.2755905511811024,
                    "duration": 0.3088803333333203
                },
                {
                    "name": "D4",
                    "midi": 62,
                    "time": 173.2818669999994,
                    "velocity": 0.28346456692913385,
                    "duration": 0.3088803333333203
                },
                {
                    "name": "B3",
                    "midi": 59,
                    "time": 173.59074733333273,
                    "velocity": 0.2440944881889764,
                    "duration": 0.3088803333333203
                },
                {
                    "name": "G#3",
                    "midi": 56,
                    "time": 173.89962766666605,
                    "velocity": 0.2283464566929134,
                    "duration": 0.3088803333333203
                },
                {
                    "name": "D#2",
                    "midi": 39,
                    "time": 174.20850799999937,
                    "velocity": 0.31496062992125984,
                    "duration": 0.926640999999961
                },
                {
                    "name": "D#3",
                    "midi": 51,
                    "time": 174.5173883333327,
                    "velocity": 0.25984251968503935,
                    "duration": 0.3088803333333203
                },
                {
                    "name": "F#3",
                    "midi": 54,
                    "time": 174.826268666666,
                    "velocity": 0.25984251968503935,
                    "duration": 0.3088803333333203
                },
                {
                    "name": "A#3",
                    "midi": 58,
                    "time": 175.13514899999933,
                    "velocity": 0.28346456692913385,
                    "duration": 0.3088803333333203
                },
                {
                    "name": "F#3",
                    "midi": 54,
                    "time": 175.44402933333265,
                    "velocity": 0.2677165354330709,
                    "duration": 0.3088803333333203
                },
                {
                    "name": "D#3",
                    "midi": 51,
                    "time": 175.75290966666597,
                    "velocity": 0.2677165354330709,
                    "duration": 0.3088803333333203
                },
                {
                    "name": "G#2",
                    "midi": 44,
                    "time": 176.0617899999993,
                    "velocity": 0.2992125984251969,
                    "duration": 0.9266409999999894
                },
                {
                    "name": "D#3",
                    "midi": 51,
                    "time": 176.37067033333264,
                    "velocity": 0.2677165354330709,
                    "duration": 0.3088803333333203
                },
                {
                    "name": "G#3",
                    "midi": 56,
                    "time": 176.67955066666596,
                    "velocity": 0.2677165354330709,
                    "duration": 0.3088803333333203
                },
                {
                    "name": "B3",
                    "midi": 59,
                    "time": 176.98843099999928,
                    "velocity": 0.28346456692913385,
                    "duration": 0.9266409999999894
                },
                {
                    "name": "D#2",
                    "midi": 39,
                    "time": 177.91507199999927,
                    "velocity": 0.31496062992125984,
                    "duration": 0.9266409999999894
                },
                {
                    "name": "D#3",
                    "midi": 51,
                    "time": 178.22395233333262,
                    "velocity": 0.25984251968503935,
                    "duration": 0.3088803333333203
                },
                {
                    "name": "F#3",
                    "midi": 54,
                    "time": 178.53283266666594,
                    "velocity": 0.25984251968503935,
                    "duration": 0.3088803333333203
                },
                {
                    "name": "A#3",
                    "midi": 58,
                    "time": 178.84171299999926,
                    "velocity": 0.28346456692913385,
                    "duration": 0.3088803333333203
                },
                {
                    "name": "F#3",
                    "midi": 54,
                    "time": 179.15059333333258,
                    "velocity": 0.2677165354330709,
                    "duration": 0.3088803333333203
                },
                {
                    "name": "D#3",
                    "midi": 51,
                    "time": 179.4594736666659,
                    "velocity": 0.2677165354330709,
                    "duration": 0.3088803333333203
                },
                {
                    "name": "G#2",
                    "midi": 44,
                    "time": 179.76835399999922,
                    "velocity": 0.2992125984251969,
                    "duration": 0.926640999999961
                },
                {
                    "name": "D#3",
                    "midi": 51,
                    "time": 180.07723433333254,
                    "velocity": 0.28346456692913385,
                    "duration": 0.3088803333333203
                },
                {
                    "name": "G#3",
                    "midi": 56,
                    "time": 180.38611466666586,
                    "velocity": 0.2992125984251969,
                    "duration": 0.3088803333333203
                },
                {
                    "name": "B3",
                    "midi": 59,
                    "time": 180.69499499999918,
                    "velocity": 0.3543307086614173,
                    "duration": 0.9266409999999894
                },
                {
                    "name": "G#2",
                    "midi": 44,
                    "time": 181.62163599999917,
                    "velocity": 0.4094488188976378,
                    "duration": 0.926640999999961
                },
                {
                    "name": "D#3",
                    "midi": 51,
                    "time": 181.9305163333325,
                    "velocity": 0.29133858267716534,
                    "duration": 0.3088803333333203
                },
                {
                    "name": "G#3",
                    "midi": 56,
                    "time": 182.2393966666658,
                    "velocity": 0.31496062992125984,
                    "duration": 0.3088803333333203
                },
                {
                    "name": "B3",
                    "midi": 59,
                    "time": 182.54827699999913,
                    "velocity": 0.3700787401574803,
                    "duration": 0.9266409999999894
                },
                {
                    "name": "G#2",
                    "midi": 44,
                    "time": 183.47491799999912,
                    "velocity": 0.47244094488188976,
                    "duration": 0.9266409999999894
                },
                {
                    "name": "D#3",
                    "midi": 51,
                    "time": 183.78379833333247,
                    "velocity": 0.4015748031496063,
                    "duration": 0.3088803333333203
                },
                {
                    "name": "G#3",
                    "midi": 56,
                    "time": 184.0926786666658,
                    "velocity": 0.4015748031496063,
                    "duration": 0.3088803333333203
                },
                {
                    "name": "B3",
                    "midi": 59,
                    "time": 184.4015589999991,
                    "velocity": 0.44881889763779526,
                    "duration": 0.3088803333333203
                },
                {
                    "name": "G#3",
                    "midi": 56,
                    "time": 184.71043933333243,
                    "velocity": 0.4330708661417323,
                    "duration": 0.3088803333333203
                },
                {
                    "name": "D#3",
                    "midi": 51,
                    "time": 185.01931966666575,
                    "velocity": 0.4251968503937008,
                    "duration": 0.3088803333333203
                },
                {
                    "name": "B3",
                    "midi": 59,
                    "time": 185.32819999999907,
                    "velocity": 0.4330708661417323,
                    "duration": 0.3088803333333203
                },
                {
                    "name": "G#3",
                    "midi": 56,
                    "time": 185.6370803333324,
                    "velocity": 0.33858267716535434,
                    "duration": 0.3088803333333203
                },
                {
                    "name": "D#3",
                    "midi": 51,
                    "time": 185.9459606666657,
                    "velocity": 0.2992125984251969,
                    "duration": 0.3088803333333203
                },
                {
                    "name": "B3",
                    "midi": 59,
                    "time": 186.25484099999903,
                    "velocity": 0.2677165354330709,
                    "duration": 0.9266409999999894
                },
                {
                    "name": "A#1",
                    "midi": 34,
                    "time": 189.03476399999903,
                    "velocity": 0.2125984251968504,
                    "duration": 0.9266409999999894
                },
                {
                    "name": "A#2",
                    "midi": 46,
                    "time": 189.34364433333238,
                    "velocity": 0.1889763779527559,
                    "duration": 0.3088803333333203
                },
                {
                    "name": "D#3",
                    "midi": 51,
                    "time": 189.6525246666657,
                    "velocity": 0.1968503937007874,
                    "duration": 0.3088803333333203
                },
                {
                    "name": "G3",
                    "midi": 55,
                    "time": 189.96140499999902,
                    "velocity": 0.2125984251968504,
                    "duration": 0.3088803333333203
                },
                {
                    "name": "D#3",
                    "midi": 51,
                    "time": 190.27028533333234,
                    "velocity": 0.1889763779527559,
                    "duration": 0.3088803333333203
                },
                {
                    "name": "A#2",
                    "midi": 46,
                    "time": 190.57916566666566,
                    "velocity": 0.1889763779527559,
                    "duration": 0.3088803333333203
                },
                {
                    "name": "A#1",
                    "midi": 34,
                    "time": 190.88804599999898,
                    "velocity": 0.2125984251968504,
                    "duration": 0.926640999999961
                },
                {
                    "name": "A#2",
                    "midi": 46,
                    "time": 191.1969263333323,
                    "velocity": 0.1968503937007874,
                    "duration": 0.3088803333333203
                },
                {
                    "name": "D#3",
                    "midi": 51,
                    "time": 191.50580666666562,
                    "velocity": 0.1968503937007874,
                    "duration": 0.3088803333333203
                },
                {
                    "name": "G3",
                    "midi": 55,
                    "time": 191.81468699999894,
                    "velocity": 0.2125984251968504,
                    "duration": 0.3088803333333203
                },
                {
                    "name": "D#3",
                    "midi": 51,
                    "time": 192.12356733333226,
                    "velocity": 0.1889763779527559,
                    "duration": 0.3088803333333203
                },
                {
                    "name": "A#2",
                    "midi": 46,
                    "time": 192.43244766666558,
                    "velocity": 0.1889763779527559,
                    "duration": 0.3088803333333203
                },
                {
                    "name": "A#1",
                    "midi": 34,
                    "time": 192.7413279999989,
                    "velocity": 0.2125984251968504,
                    "duration": 0.9266409999999894
                },
                {
                    "name": "A#2",
                    "midi": 46,
                    "time": 193.05020833333225,
                    "velocity": 0.1889763779527559,
                    "duration": 0.3088803333333203
                },
                {
                    "name": "D3",
                    "midi": 50,
                    "time": 193.35908866666557,
                    "velocity": 0.1968503937007874,
                    "duration": 0.3088803333333203
                },
                {
                    "name": "F3",
                    "midi": 53,
                    "time": 193.6679689999989,
                    "velocity": 0.2125984251968504,
                    "duration": 0.3088803333333203
                },
                {
                    "name": "D3",
                    "midi": 50,
                    "time": 193.9768493333322,
                    "velocity": 0.1889763779527559,
                    "duration": 0.3088803333333203
                },
                {
                    "name": "A#2",
                    "midi": 46,
                    "time": 194.28572966666553,
                    "velocity": 0.1889763779527559,
                    "duration": 0.3088803333333203
                },
                {
                    "name": "C2",
                    "midi": 36,
                    "time": 194.59460999999885,
                    "velocity": 0.2125984251968504,
                    "duration": 0.926640999999961
                },
                {
                    "name": "D#3",
                    "midi": 51,
                    "time": 194.90349033333217,
                    "velocity": 0.25196850393700787,
                    "duration": 0.3088803333333203
                },
                {
                    "name": "G2",
                    "midi": 43,
                    "time": 194.90349033333217,
                    "velocity": 0.25196850393700787,
                    "duration": 0.3088803333333203
                },
                {
                    "name": "G3",
                    "midi": 55,
                    "time": 195.2123706666655,
                    "velocity": 0.25196850393700787,
                    "duration": 0.3088803333333203
                },
                {
                    "name": "C3",
                    "midi": 48,
                    "time": 195.2123706666655,
                    "velocity": 0.25196850393700787,
                    "duration": 0.3088803333333203
                },
                {
                    "name": "C4",
                    "midi": 60,
                    "time": 195.5212509999988,
                    "velocity": 0.2755905511811024,
                    "duration": 0.3088803333333203
                },
                {
                    "name": "D#3",
                    "midi": 51,
                    "time": 195.5212509999988,
                    "velocity": 0.2755905511811024,
                    "duration": 0.3088803333333203
                },
                {
                    "name": "G3",
                    "midi": 55,
                    "time": 195.83013133333213,
                    "velocity": 0.2283464566929134,
                    "duration": 0.3088803333333203
                },
                {
                    "name": "C3",
                    "midi": 48,
                    "time": 195.83013133333213,
                    "velocity": 0.2283464566929134,
                    "duration": 0.3088803333333203
                },
                {
                    "name": "D#3",
                    "midi": 51,
                    "time": 196.13901166666545,
                    "velocity": 0.23622047244094488,
                    "duration": 0.3088803333333203
                },
                {
                    "name": "G2",
                    "midi": 43,
                    "time": 196.13901166666545,
                    "velocity": 0.23622047244094488,
                    "duration": 0.3088803333333203
                },
                {
                    "name": "G#2",
                    "midi": 44,
                    "time": 196.44789199999877,
                    "velocity": 0.30708661417322836,
                    "duration": 0.28957531250000557
                },
                {
                    "name": "G#1",
                    "midi": 32,
                    "time": 196.44789199999877,
                    "velocity": 0.28346456692913385,
                    "duration": 0.9266409999999894
                },
                {
                    "name": "G#2",
                    "midi": 44,
                    "time": 196.75677233333212,
                    "velocity": 0.2755905511811024,
                    "duration": 0.3088803333333203
                },
                {
                    "name": "C3",
                    "midi": 48,
                    "time": 197.06565266666544,
                    "velocity": 0.25984251968503935,
                    "duration": 0.3088803333333203
                },
                {
                    "name": "F3",
                    "midi": 53,
                    "time": 197.37453299999876,
                    "velocity": 0.3543307086614173,
                    "duration": 0.3088803333333203
                },
                {
                    "name": "C3",
                    "midi": 48,
                    "time": 197.68341333333208,
                    "velocity": 0.29133858267716534,
                    "duration": 0.3088803333333203
                },
                {
                    "name": "G#2",
                    "midi": 44,
                    "time": 197.9922936666654,
                    "velocity": 0.29133858267716534,
                    "duration": 0.3088803333333203
                },
                {
                    "name": "F2",
                    "midi": 41,
                    "time": 198.30117399999872,
                    "velocity": 0.3779527559055118,
                    "duration": 0.926640999999961
                },
                {
                    "name": "F1",
                    "midi": 29,
                    "time": 198.30117399999872,
                    "velocity": 0.33858267716535434,
                    "duration": 0.926640999999961
                },
                {
                    "name": "C3",
                    "midi": 48,
                    "time": 198.61005433333204,
                    "velocity": 0.2992125984251969,
                    "duration": 0.3088803333333203
                },
                {
                    "name": "F3",
                    "midi": 53,
                    "time": 198.91893466666536,
                    "velocity": 0.3543307086614173,
                    "duration": 0.3088803333333203
                },
                {
                    "name": "G#3",
                    "midi": 56,
                    "time": 199.22781499999869,
                    "velocity": 0.3858267716535433,
                    "duration": 0.3088803333333203
                },
                {
                    "name": "F3",
                    "midi": 53,
                    "time": 199.536695333332,
                    "velocity": 0.3543307086614173,
                    "duration": 0.3088803333333203
                },
                {
                    "name": "C3",
                    "midi": 48,
                    "time": 199.84557566666533,
                    "velocity": 0.33070866141732286,
                    "duration": 0.3088803333333203
                },
                {
                    "name": "A#1",
                    "midi": 34,
                    "time": 200.15445599999865,
                    "velocity": 0.2283464566929134,
                    "duration": 0.9266409999999894
                },
                {
                    "name": "A#2",
                    "midi": 46,
                    "time": 200.15445599999865,
                    "velocity": 0.25984251968503935,
                    "duration": 0.9266409999999894
                },
                {
                    "name": "F3",
                    "midi": 53,
                    "time": 200.463336333332,
                    "velocity": 0.28346456692913385,
                    "duration": 0.3088803333333203
                },
                {
                    "name": "G#3",
                    "midi": 56,
                    "time": 200.77221666666532,
                    "velocity": 0.23622047244094488,
                    "duration": 0.3088803333333203
                },
                {
                    "name": "A#3",
                    "midi": 58,
                    "time": 201.08109699999864,
                    "velocity": 0.28346456692913385,
                    "duration": 0.3088803333333203
                },
                {
                    "name": "G#3",
                    "midi": 56,
                    "time": 201.38997733333196,
                    "velocity": 0.25196850393700787,
                    "duration": 0.3088803333333203
                },
                {
                    "name": "F3",
                    "midi": 53,
                    "time": 201.69885766666528,
                    "velocity": 0.2204724409448819,
                    "duration": 0.3088803333333203
                },
                {
                    "name": "A#3",
                    "midi": 58,
                    "time": 202.0077379999986,
                    "velocity": 0.2125984251968504,
                    "duration": 0.3088803333333203
                },
                {
                    "name": "G#3",
                    "midi": 56,
                    "time": 202.31661833333192,
                    "velocity": 0.18110236220472442,
                    "duration": 0.3088803333333203
                },
                {
                    "name": "F3",
                    "midi": 53,
                    "time": 202.62549866666524,
                    "velocity": 0.18110236220472442,
                    "duration": 0.3088803333333203
                },
                {
                    "name": "D3",
                    "midi": 50,
                    "time": 202.93437899999856,
                    "velocity": 0.16535433070866143,
                    "duration": 0.926640999999961
                },
                {
                    "name": "A#3",
                    "midi": 58,
                    "time": 202.93437899999856,
                    "velocity": 0.18110236220472442,
                    "duration": 0.3088803333333203
                },
                {
                    "name": "G#3",
                    "midi": 56,
                    "time": 203.24325933333188,
                    "velocity": 0.14173228346456693,
                    "duration": 0.3088803333333203
                },
                {
                    "name": "F3",
                    "midi": 53,
                    "time": 203.5521396666652,
                    "velocity": 0.14173228346456693,
                    "duration": 0.3088803333333203
                },
                {
                    "name": "D#2",
                    "midi": 39,
                    "time": 203.86101999999852,
                    "velocity": 0.3543307086614173,
                    "duration": 0.926640999999961
                },
                {
                    "name": "D#3",
                    "midi": 51,
                    "time": 204.16990033333184,
                    "velocity": 0.28346456692913385,
                    "duration": 0.3088803333333203
                },
                {
                    "name": "G3",
                    "midi": 55,
                    "time": 204.47878066666516,
                    "velocity": 0.28346456692913385,
                    "duration": 0.3088803333333203
                },
                {
                    "name": "A#3",
                    "midi": 58,
                    "time": 204.78766099999848,
                    "velocity": 0.3228346456692913,
                    "duration": 0.3088803333333203
                },
                {
                    "name": "G3",
                    "midi": 55,
                    "time": 205.0965413333318,
                    "velocity": 0.29133858267716534,
                    "duration": 0.3088803333333203
                },
                {
                    "name": "D#3",
                    "midi": 51,
                    "time": 205.40542166666512,
                    "velocity": 0.29133858267716534,
                    "duration": 0.3088803333333203
                },
                {
                    "name": "A#1",
                    "midi": 34,
                    "time": 205.71430199999844,
                    "velocity": 0.4015748031496063,
                    "duration": 0.926640999999961
                },
                {
                    "name": "A#2",
                    "midi": 46,
                    "time": 205.71430199999844,
                    "velocity": 0.4015748031496063,
                    "duration": 0.926640999999961
                },
                {
                    "name": "F3",
                    "midi": 53,
                    "time": 206.02318233333176,
                    "velocity": 0.29133858267716534,
                    "duration": 0.3088803333333203
                },
                {
                    "name": "G#3",
                    "midi": 56,
                    "time": 206.33206266666508,
                    "velocity": 0.29133858267716534,
                    "duration": 0.3088803333333203
                },
                {
                    "name": "A#3",
                    "midi": 58,
                    "time": 206.6409429999984,
                    "velocity": 0.3228346456692913,
                    "duration": 0.3088803333333203
                },
                {
                    "name": "G#3",
                    "midi": 56,
                    "time": 206.94982333333172,
                    "velocity": 0.29133858267716534,
                    "duration": 0.3088803333333203
                },
                {
                    "name": "F3",
                    "midi": 53,
                    "time": 207.25870366666504,
                    "velocity": 0.29133858267716534,
                    "duration": 0.3088803333333203
                },
                {
                    "name": "D#2",
                    "midi": 39,
                    "time": 207.56758399999836,
                    "velocity": 0.3543307086614173,
                    "duration": 0.926640999999961
                },
                {
                    "name": "D#3",
                    "midi": 51,
                    "time": 207.87646433333168,
                    "velocity": 0.28346456692913385,
                    "duration": 0.3088803333333203
                },
                {
                    "name": "G3",
                    "midi": 55,
                    "time": 208.185344666665,
                    "velocity": 0.28346456692913385,
                    "duration": 0.3088803333333203
                },
                {
                    "name": "A#3",
                    "midi": 58,
                    "time": 208.49422499999832,
                    "velocity": 0.3228346456692913,
                    "duration": 0.3088803333333203
                },
                {
                    "name": "G3",
                    "midi": 55,
                    "time": 208.80310533333164,
                    "velocity": 0.29133858267716534,
                    "duration": 0.3088803333333203
                },
                {
                    "name": "D#3",
                    "midi": 51,
                    "time": 209.11198566666496,
                    "velocity": 0.25984251968503935,
                    "duration": 0.3088803333333203
                },
                {
                    "name": "B1",
                    "midi": 35,
                    "time": 209.42086599999828,
                    "velocity": 0.2755905511811024,
                    "duration": 0.9266409999999894
                },
                {
                    "name": "B2",
                    "midi": 47,
                    "time": 209.42086599999828,
                    "velocity": 0.31496062992125984,
                    "duration": 0.9266409999999894
                },
                {
                    "name": "F3",
                    "midi": 53,
                    "time": 209.72974633333163,
                    "velocity": 0.2440944881889764,
                    "duration": 0.3088803333333203
                },
                {
                    "name": "G#3",
                    "midi": 56,
                    "time": 210.03862666666495,
                    "velocity": 0.2440944881889764,
                    "duration": 0.3088803333333203
                },
                {
                    "name": "B3",
                    "midi": 59,
                    "time": 210.34750699999827,
                    "velocity": 0.25196850393700787,
                    "duration": 0.3088803333333203
                },
                {
                    "name": "G#3",
                    "midi": 56,
                    "time": 210.6563873333316,
                    "velocity": 0.2283464566929134,
                    "duration": 0.3088803333333203
                },
                {
                    "name": "F3",
                    "midi": 53,
                    "time": 210.96526766666491,
                    "velocity": 0.2204724409448819,
                    "duration": 0.3088803333333203
                },
                {
                    "name": "C2",
                    "midi": 36,
                    "time": 211.27414799999823,
                    "velocity": 0.2677165354330709,
                    "duration": 0.9266409999999894
                },
                {
                    "name": "C3",
                    "midi": 48,
                    "time": 211.58302833333158,
                    "velocity": 0.2047244094488189,
                    "duration": 0.3088803333333203
                },
                {
                    "name": "D#3",
                    "midi": 51,
                    "time": 211.8919086666649,
                    "velocity": 0.2047244094488189,
                    "duration": 0.3088803333333203
                },
                {
                    "name": "G3",
                    "midi": 55,
                    "time": 212.20078899999822,
                    "velocity": 0.23622047244094488,
                    "duration": 0.3088803333333203
                },
                {
                    "name": "D#3",
                    "midi": 51,
                    "time": 212.50966933333154,
                    "velocity": 0.2125984251968504,
                    "duration": 0.3088803333333203
                },
                {
                    "name": "C3",
                    "midi": 48,
                    "time": 212.81854966666486,
                    "velocity": 0.1889763779527559,
                    "duration": 0.3088803333333203
                },
                {
                    "name": "G#2",
                    "midi": 44,
                    "time": 213.12742999999818,
                    "velocity": 0.2677165354330709,
                    "duration": 0.9266410000000178
                },
                {
                    "name": "A#2",
                    "midi": 46,
                    "time": 214.0540709999982,
                    "velocity": 0.2125984251968504,
                    "duration": 0.9266409999999894
                },
                {
                    "name": "G#3",
                    "midi": 56,
                    "time": 214.0540709999982,
                    "velocity": 0.23622047244094488,
                    "duration": 0.9266409999999894
                },
                {
                    "name": "D#3",
                    "midi": 51,
                    "time": 214.9807119999982,
                    "velocity": 0.28346456692913385,
                    "duration": 3.706563999999844
                },
                {
                    "name": "A#3",
                    "midi": 58,
                    "time": 215.2895923333315,
                    "velocity": 0.2204724409448819,
                    "duration": 0.3088803333333203
                },
                {
                    "name": "C4",
                    "midi": 60,
                    "time": 215.59847266666483,
                    "velocity": 0.2204724409448819,
                    "duration": 0.3088803333333203
                },
                {
                    "name": "C#4",
                    "midi": 61,
                    "time": 215.90735299999815,
                    "velocity": 0.25196850393700787,
                    "duration": 0.3088803333333203
                },
                {
                    "name": "A#3",
                    "midi": 58,
                    "time": 216.21623333333147,
                    "velocity": 0.2283464566929134,
                    "duration": 0.3088803333333203
                },
                {
                    "name": "C4",
                    "midi": 60,
                    "time": 216.5251136666648,
                    "velocity": 0.2047244094488189,
                    "duration": 0.3088803333333203
                },
                {
                    "name": "C#4",
                    "midi": 61,
                    "time": 216.8339939999981,
                    "velocity": 0.2440944881889764,
                    "duration": 0.3088803333333203
                },
                {
                    "name": "A#3",
                    "midi": 58,
                    "time": 217.14287433333143,
                    "velocity": 0.2204724409448819,
                    "duration": 0.3088803333333203
                },
                {
                    "name": "C4",
                    "midi": 60,
                    "time": 217.45175466666475,
                    "velocity": 0.2204724409448819,
                    "duration": 0.3088803333333203
                },
                {
                    "name": "C#4",
                    "midi": 61,
                    "time": 217.76063499999808,
                    "velocity": 0.25196850393700787,
                    "duration": 0.3088803333333203
                },
                {
                    "name": "A#3",
                    "midi": 58,
                    "time": 218.0695153333314,
                    "velocity": 0.2283464566929134,
                    "duration": 0.3088803333333203
                },
                {
                    "name": "G#3",
                    "midi": 56,
                    "time": 218.37839566666472,
                    "velocity": 0.2283464566929134,
                    "duration": 0.3088803333333203
                },
                {
                    "name": "G3",
                    "midi": 55,
                    "time": 218.68727599999804,
                    "velocity": 0.2204724409448819,
                    "duration": 0.3088803333333203
                },
                {
                    "name": "D#3",
                    "midi": 51,
                    "time": 218.68727599999804,
                    "velocity": 0.28346456692913385,
                    "duration": 3.7065639999998723
                },
                {
                    "name": "A#3",
                    "midi": 58,
                    "time": 218.99615633333136,
                    "velocity": 0.2204724409448819,
                    "duration": 0.3088803333333203
                },
                {
                    "name": "G#3",
                    "midi": 56,
                    "time": 219.30503666666468,
                    "velocity": 0.2204724409448819,
                    "duration": 0.3088803333333203
                },
                {
                    "name": "G3",
                    "midi": 55,
                    "time": 219.613916999998,
                    "velocity": 0.25196850393700787,
                    "duration": 0.3088803333333203
                },
                {
                    "name": "A#3",
                    "midi": 58,
                    "time": 219.92279733333132,
                    "velocity": 0.2283464566929134,
                    "duration": 0.3088803333333203
                },
                {
                    "name": "C4",
                    "midi": 60,
                    "time": 220.23167766666464,
                    "velocity": 0.2047244094488189,
                    "duration": 0.3088803333333203
                },
                {
                    "name": "C#4",
                    "midi": 61,
                    "time": 220.54055799999796,
                    "velocity": 0.2440944881889764,
                    "duration": 0.3088803333333203
                },
                {
                    "name": "F4",
                    "midi": 65,
                    "time": 220.84943833333128,
                    "velocity": 0.2204724409448819,
                    "duration": 0.3088803333333203
                },
                {
                    "name": "D#4",
                    "midi": 63,
                    "time": 221.1583186666646,
                    "velocity": 0.2204724409448819,
                    "duration": 0.3088803333333203
                },
                {
                    "name": "C#4",
                    "midi": 61,
                    "time": 221.46719899999792,
                    "velocity": 0.25196850393700787,
                    "duration": 0.3088803333333203
                },
                {
                    "name": "C4",
                    "midi": 60,
                    "time": 221.7741488312479,
                    "velocity": 0.2283464566929134,
                    "duration": 0.3088803333333203
                },
                {
                    "name": "A#3",
                    "midi": 58,
                    "time": 222.0868901687479,
                    "velocity": 0.2283464566929134,
                    "duration": 0.3088803333333203
                },
                {
                    "name": "D#3",
                    "midi": 51,
                    "time": 222.3938399999979,
                    "velocity": 0.28346456692913385,
                    "duration": 3.7065639999999007
                },
                {
                    "name": "G#3",
                    "midi": 56,
                    "time": 222.70272033333123,
                    "velocity": 0.2204724409448819,
                    "duration": 0.3088803333333203
                },
                {
                    "name": "A#3",
                    "midi": 58,
                    "time": 223.01160066666455,
                    "velocity": 0.2204724409448819,
                    "duration": 0.3088803333333203
                },
                {
                    "name": "C4",
                    "midi": 60,
                    "time": 223.32048099999787,
                    "velocity": 0.25196850393700787,
                    "duration": 0.30501932916666874
                },
                {
                    "name": "G#3",
                    "midi": 56,
                    "time": 223.62936133333122,
                    "velocity": 0.2283464566929134,
                    "duration": 0.3088803333333203
                },
                {
                    "name": "A#3",
                    "midi": 58,
                    "time": 223.93824166666454,
                    "velocity": 0.2047244094488189,
                    "duration": 0.3088803333333203
                },
                {
                    "name": "C4",
                    "midi": 60,
                    "time": 224.24712199999786,
                    "velocity": 0.2440944881889764,
                    "duration": 0.30501932916666874
                },
                {
                    "name": "G#3",
                    "midi": 56,
                    "time": 224.5560023333312,
                    "velocity": 0.2204724409448819,
                    "duration": 0.3088803333333203
                },
                {
                    "name": "A#3",
                    "midi": 58,
                    "time": 224.86488266666453,
                    "velocity": 0.2204724409448819,
                    "duration": 0.3088803333333203
                },
                {
                    "name": "C4",
                    "midi": 60,
                    "time": 225.17376299999785,
                    "velocity": 0.25196850393700787,
                    "duration": 0.3088803333333203
                },
                {
                    "name": "A#3",
                    "midi": 58,
                    "time": 225.48264333333117,
                    "velocity": 0.2283464566929134,
                    "duration": 0.3088803333333203
                },
                {
                    "name": "G#3",
                    "midi": 56,
                    "time": 225.7915236666645,
                    "velocity": 0.2283464566929134,
                    "duration": 0.3088803333333203
                },
                {
                    "name": "D#3",
                    "midi": 51,
                    "time": 226.1004039999978,
                    "velocity": 0.28346456692913385,
                    "duration": 3.08880333333326
                },
                {
                    "name": "F3",
                    "midi": 53,
                    "time": 226.40928433333113,
                    "velocity": 0.2204724409448819,
                    "duration": 0.3088803333333203
                },
                {
                    "name": "G3",
                    "midi": 55,
                    "time": 226.71816466666445,
                    "velocity": 0.2204724409448819,
                    "duration": 0.3088803333333203
                },
                {
                    "name": "G#3",
                    "midi": 56,
                    "time": 227.02704499999777,
                    "velocity": 0.25984251968503935,
                    "duration": 0.30501932916666874
                },
                {
                    "name": "F3",
                    "midi": 53,
                    "time": 227.33592533333112,
                    "velocity": 0.2440944881889764,
                    "duration": 0.3088803333333203
                },
                {
                    "name": "G3",
                    "midi": 55,
                    "time": 227.64480566666444,
                    "velocity": 0.2125984251968504,
                    "duration": 0.3088803333333203
                },
                {
                    "name": "G#3",
                    "midi": 56,
                    "time": 227.95368599999776,
                    "velocity": 0.28346456692913385,
                    "duration": 0.6177606666666691
                },
                {
                    "name": "G3",
                    "midi": 55,
                    "time": 228.57144666666443,
                    "velocity": 0.25984251968503935,
                    "duration": 0.3088803333333203
                },
                {
                    "name": "F3",
                    "midi": 53,
                    "time": 228.88032699999775,
                    "velocity": 0.33070866141732286,
                    "duration": 0.3088803333333203
                },
                {
                    "name": "D#3",
                    "midi": 51,
                    "time": 229.18920733333107,
                    "velocity": 0.28346456692913385,
                    "duration": 0.3088803333333203
                },
                {
                    "name": "D3",
                    "midi": 50,
                    "time": 229.4980876666644,
                    "velocity": 0.29133858267716534,
                    "duration": 0.3088803333333203
                },
                {
                    "name": "D#2",
                    "midi": 39,
                    "time": 229.8069679999977,
                    "velocity": 0.33858267716535434,
                    "duration": 0.926640999999961
                },
                {
                    "name": "A#2",
                    "midi": 46,
                    "time": 230.11584833333103,
                    "velocity": 0.29133858267716534,
                    "duration": 0.3088803333333203
                },
                {
                    "name": "D#3",
                    "midi": 51,
                    "time": 230.42472866666435,
                    "velocity": 0.30708661417322836,
                    "duration": 0.3088803333333203
                },
                {
                    "name": "G3",
                    "midi": 55,
                    "time": 230.73360899999767,
                    "velocity": 0.33858267716535434,
                    "duration": 0.3088803333333203
                },
                {
                    "name": "D#3",
                    "midi": 51,
                    "time": 231.042489333331,
                    "velocity": 0.29133858267716534,
                    "duration": 0.3088803333333203
                },
                {
                    "name": "A#2",
                    "midi": 46,
                    "time": 231.3513696666643,
                    "velocity": 0.30708661417322836,
                    "duration": 0.3088803333333203
                },
                {
                    "name": "D#2",
                    "midi": 39,
                    "time": 231.66024999999763,
                    "velocity": 0.3543307086614173,
                    "duration": 0.9266409999999894
                },
                {
                    "name": "A#2",
                    "midi": 46,
                    "time": 231.96913033333098,
                    "velocity": 0.33070866141732286,
                    "duration": 0.3088803333333203
                },
                {
                    "name": "D#3",
                    "midi": 51,
                    "time": 232.2780106666643,
                    "velocity": 0.33070866141732286,
                    "duration": 0.3088803333333203
                },
                {
                    "name": "G3",
                    "midi": 55,
                    "time": 232.58689099999762,
                    "velocity": 0.36220472440944884,
                    "duration": 0.3088803333333203
                },
                {
                    "name": "D#3",
                    "midi": 51,
                    "time": 232.89577133333094,
                    "velocity": 0.33070866141732286,
                    "duration": 0.3088803333333203
                },
                {
                    "name": "A#2",
                    "midi": 46,
                    "time": 233.20465166666426,
                    "velocity": 0.33070866141732286,
                    "duration": 0.3088803333333203
                },
                {
                    "name": "D#2",
                    "midi": 39,
                    "time": 233.51353199999758,
                    "velocity": 0.4330708661417323,
                    "duration": 0.9266409999999894
                },
                {
                    "name": "D3",
                    "midi": 50,
                    "time": 233.82241233333093,
                    "velocity": 0.30708661417322836,
                    "duration": 0.3088803333333203
                },
                {
                    "name": "F3",
                    "midi": 53,
                    "time": 234.13129266666425,
                    "velocity": 0.30708661417322836,
                    "duration": 0.3088803333333203
                },
                {
                    "name": "G#3",
                    "midi": 56,
                    "time": 234.44017299999757,
                    "velocity": 0.3779527559055118,
                    "duration": 0.3088803333333203
                },
                {
                    "name": "A#3",
                    "midi": 58,
                    "time": 234.7490533333309,
                    "velocity": 0.3228346456692913,
                    "duration": 0.3088803333333203
                },
                {
                    "name": "D4",
                    "midi": 62,
                    "time": 235.0579336666642,
                    "velocity": 0.3228346456692913,
                    "duration": 0.3088803333333203
                },
                {
                    "name": "F4",
                    "midi": 65,
                    "time": 235.36681399999753,
                    "velocity": 0.3700787401574803,
                    "duration": 0.3088803333333203
                },
                {
                    "name": "A#4",
                    "midi": 70,
                    "time": 235.67569433333085,
                    "velocity": 0.28346456692913385,
                    "duration": 0.3088803333333203
                },
                {
                    "name": "D5",
                    "midi": 74,
                    "time": 235.98457466666417,
                    "velocity": 0.2677165354330709,
                    "duration": 0.3088803333333203
                },
                {
                    "name": "F5",
                    "midi": 77,
                    "time": 236.2934549999975,
                    "velocity": 0.23622047244094488,
                    "duration": 0.4633205000000089
                },
                {
                    "name": "A#5",
                    "midi": 82,
                    "time": 236.7567754999975,
                    "velocity": 0.2047244094488189,
                    "duration": 0.23166025000000445
                },
                {
                    "name": "D6",
                    "midi": 86,
                    "time": 237.2200959999975,
                    "velocity": 0.2204724409448819,
                    "duration": 0.23166025000000445
                },
                {
                    "name": "D#2",
                    "midi": 39,
                    "time": 240.92665999999753,
                    "velocity": 0.2440944881889764,
                    "duration": 0.926640999999961
                },
                {
                    "name": "A#2",
                    "midi": 46,
                    "time": 241.23554033333085,
                    "velocity": 0.1968503937007874,
                    "duration": 0.3088803333333203
                },
                {
                    "name": "D#3",
                    "midi": 51,
                    "time": 241.54442066666417,
                    "velocity": 0.2047244094488189,
                    "duration": 0.3088803333333203
                },
                {
                    "name": "G3",
                    "midi": 55,
                    "time": 241.8533009999975,
                    "velocity": 0.2440944881889764,
                    "duration": 0.3088803333333203
                },
                {
                    "name": "D#3",
                    "midi": 51,
                    "time": 242.1621813333308,
                    "velocity": 0.2204724409448819,
                    "duration": 0.3088803333333203
                },
                {
                    "name": "A#2",
                    "midi": 46,
                    "time": 242.47106166666413,
                    "velocity": 0.2204724409448819,
                    "duration": 0.3088803333333203
                },
                {
                    "name": "D#2",
                    "midi": 39,
                    "time": 242.77994199999745,
                    "velocity": 0.25196850393700787,
                    "duration": 0.926640999999961
                },
                {
                    "name": "A#2",
                    "midi": 46,
                    "time": 243.08882233333077,
                    "velocity": 0.2204724409448819,
                    "duration": 0.3088803333333203
                },
                {
                    "name": "D#3",
                    "midi": 51,
                    "time": 243.3977026666641,
                    "velocity": 0.2204724409448819,
                    "duration": 0.3088803333333203
                },
                {
                    "name": "G3",
                    "midi": 55,
                    "time": 243.7065829999974,
                    "velocity": 0.2204724409448819,
                    "duration": 0.3088803333333203
                },
                {
                    "name": "D#3",
                    "midi": 51,
                    "time": 244.01546333333073,
                    "velocity": 0.2047244094488189,
                    "duration": 0.3088803333333203
                },
                {
                    "name": "A#2",
                    "midi": 46,
                    "time": 244.32434366666405,
                    "velocity": 0.2047244094488189,
                    "duration": 0.3088803333333203
                },
                {
                    "name": "D#2",
                    "midi": 39,
                    "time": 244.63322399999737,
                    "velocity": 0.2440944881889764,
                    "duration": 0.9266409999999894
                },
                {
                    "name": "D#2",
                    "midi": 39,
                    "time": 246.48650599999735,
                    "velocity": 0.2204724409448819,
                    "duration": 0.9266409999999894
                },
                {
                    "name": "D#2",
                    "midi": 39,
                    "time": 248.33978799999733,
                    "velocity": 0.14173228346456693,
                    "duration": 3.706563999999986
                }
            ],
            "controlChanges": {
                "7": [
                    {
                        "number": 7,
                        "time": 0,
                        "value": 1
                    }
                ],
                "10": [
                    {
                        "number": 10,
                        "time": 0,
                        "value": 0.5039370078740157
                    }
                ],
                "64": [
                    {
                        "number": 64,
                        "time": 0,
                        "value": 1
                    },
                    {
                        "number": 64,
                        "time": 5.57722051875,
                        "value": 0
                    },
                    {
                        "number": 64,
                        "time": 5.712355664583333,
                        "value": 1
                    },
                    {
                        "number": 64,
                        "time": 7.4227805104166675,
                        "value": 0
                    },
                    {
                        "number": 64,
                        "time": 7.544402141666668,
                        "value": 1
                    },
                    {
                        "number": 64,
                        "time": 9.285715020833331,
                        "value": 0
                    },
                    {
                        "number": 64,
                        "time": 9.40733665208333,
                        "value": 1
                    },
                    {
                        "number": 64,
                        "time": 11.137066518749993,
                        "value": 0
                    },
                    {
                        "number": 64,
                        "time": 11.23938312916666,
                        "value": 1
                    },
                    {
                        "number": 64,
                        "time": 14.841700016666653,
                        "value": 0
                    },
                    {
                        "number": 64,
                        "time": 14.92085060208332,
                        "value": 1
                    },
                    {
                        "number": 64,
                        "time": 18.552125020833326,
                        "value": 0
                    },
                    {
                        "number": 64,
                        "time": 18.68726016666666,
                        "value": 1
                    },
                    {
                        "number": 64,
                        "time": 20.405407020833334,
                        "value": 0
                    },
                    {
                        "number": 64,
                        "time": 20.488418610416666,
                        "value": 1
                    },
                    {
                        "number": 64,
                        "time": 22.25482801666667,
                        "value": 0
                    },
                    {
                        "number": 64,
                        "time": 22.36293613333334,
                        "value": 1
                    },
                    {
                        "number": 64,
                        "time": 24.106179514583346,
                        "value": 0
                    },
                    {
                        "number": 64,
                        "time": 24.19498261041668,
                        "value": 1
                    },
                    {
                        "number": 64,
                        "time": 25.96332251875002,
                        "value": 0
                    },
                    {
                        "number": 64,
                        "time": 26.088805154166685,
                        "value": 1
                    },
                    {
                        "number": 64,
                        "time": 27.81853502083336,
                        "value": 0
                    },
                    {
                        "number": 64,
                        "time": 27.90154661041669,
                        "value": 1
                    },
                    {
                        "number": 64,
                        "time": 29.671817020833362,
                        "value": 0
                    },
                    {
                        "number": 64,
                        "time": 29.806952166666697,
                        "value": 1
                    },
                    {
                        "number": 64,
                        "time": 31.52509902083337,
                        "value": 0
                    },
                    {
                        "number": 64,
                        "time": 31.671817179166702,
                        "value": 1
                    },
                    {
                        "number": 64,
                        "time": 33.37258951458337,
                        "value": 0
                    },
                    {
                        "number": 64,
                        "time": 33.482628133333364,
                        "value": 1
                    },
                    {
                        "number": 64,
                        "time": 35.2278020166667,
                        "value": 0
                    },
                    {
                        "number": 64,
                        "time": 35.3146746104167,
                        "value": 1
                    },
                    {
                        "number": 64,
                        "time": 37.07143150625004,
                        "value": 0
                    },
                    {
                        "number": 64,
                        "time": 37.229732677083376,
                        "value": 1
                    },
                    {
                        "number": 64,
                        "time": 38.011586020833384,
                        "value": 0
                    },
                    {
                        "number": 64,
                        "time": 38.11583313333338,
                        "value": 1
                    },
                    {
                        "number": 64,
                        "time": 38.93822702083339,
                        "value": 0
                    },
                    {
                        "number": 64,
                        "time": 39.05598764791672,
                        "value": 1
                    },
                    {
                        "number": 64,
                        "time": 39.86486802083339,
                        "value": 0
                    },
                    {
                        "number": 64,
                        "time": 39.953671116666726,
                        "value": 1
                    },
                    {
                        "number": 64,
                        "time": 40.78185651041672,
                        "value": 0
                    },
                    {
                        "number": 64,
                        "time": 40.87065960625006,
                        "value": 1
                    },
                    {
                        "number": 64,
                        "time": 41.716219518750066,
                        "value": 0
                    },
                    {
                        "number": 64,
                        "time": 41.808883618750066,
                        "value": 1
                    },
                    {
                        "number": 64,
                        "time": 42.631277506250065,
                        "value": 0
                    },
                    {
                        "number": 64,
                        "time": 44.71042825000007,
                        "value": 1
                    },
                    {
                        "number": 64,
                        "time": 46.35135502083341,
                        "value": 0
                    },
                    {
                        "number": 64,
                        "time": 46.434366610416745,
                        "value": 1
                    },
                    {
                        "number": 64,
                        "time": 48.19498451041675,
                        "value": 0
                    },
                    {
                        "number": 64,
                        "time": 48.29344011666675,
                        "value": 1
                    },
                    {
                        "number": 64,
                        "time": 50.05405801666675,
                        "value": 0
                    },
                    {
                        "number": 64,
                        "time": 50.24324722083342,
                        "value": 1
                    },
                    {
                        "number": 64,
                        "time": 51.90927051875009,
                        "value": 0
                    },
                    {
                        "number": 64,
                        "time": 52.05598867708343,
                        "value": 1
                    },
                    {
                        "number": 64,
                        "time": 55.61583451875011,
                        "value": 0
                    },
                    {
                        "number": 64,
                        "time": 55.76255267708345,
                        "value": 1
                    },
                    {
                        "number": 64,
                        "time": 59.320468016666794,
                        "value": 0
                    },
                    {
                        "number": 64,
                        "time": 59.45946416666679,
                        "value": 1
                    },
                    {
                        "number": 64,
                        "time": 61.175680518750134,
                        "value": 0
                    },
                    {
                        "number": 64,
                        "time": 61.2606226104168,
                        "value": 1
                    },
                    {
                        "number": 64,
                        "time": 63.03089302083348,
                        "value": 0
                    },
                    {
                        "number": 64,
                        "time": 63.13514013333348,
                        "value": 1
                    },
                    {
                        "number": 64,
                        "time": 64.88417502083348,
                        "value": 0
                    },
                    {
                        "number": 64,
                        "time": 64.96718661041682,
                        "value": 1
                    },
                    {
                        "number": 64,
                        "time": 66.73552651875016,
                        "value": 0
                    },
                    {
                        "number": 64,
                        "time": 66.86100915416682,
                        "value": 1
                    },
                    {
                        "number": 64,
                        "time": 68.58880851875017,
                        "value": 0
                    },
                    {
                        "number": 64,
                        "time": 68.67375061041683,
                        "value": 1
                    },
                    {
                        "number": 64,
                        "time": 70.44209051875018,
                        "value": 0
                    },
                    {
                        "number": 64,
                        "time": 70.51931060208351,
                        "value": 1
                    },
                    {
                        "number": 64,
                        "time": 72.29344201666684,
                        "value": 0
                    },
                    {
                        "number": 64,
                        "time": 72.44209067708351,
                        "value": 1
                    },
                    {
                        "number": 64,
                        "time": 74.14479351458353,
                        "value": 0
                    },
                    {
                        "number": 64,
                        "time": 74.25483213333352,
                        "value": 1
                    },
                    {
                        "number": 64,
                        "time": 75.9961450125002,
                        "value": 0
                    },
                    {
                        "number": 64,
                        "time": 76.04633806666686,
                        "value": 1
                    },
                    {
                        "number": 64,
                        "time": 77.85714902083353,
                        "value": 0
                    },
                    {
                        "number": 64,
                        "time": 77.97490964791686,
                        "value": 1
                    },
                    {
                        "number": 64,
                        "time": 78.7818595187502,
                        "value": 0
                    },
                    {
                        "number": 64,
                        "time": 78.90155064791686,
                        "value": 1
                    },
                    {
                        "number": 64,
                        "time": 79.71043102083352,
                        "value": 0
                    },
                    {
                        "number": 64,
                        "time": 79.82046963958352,
                        "value": 1
                    },
                    {
                        "number": 64,
                        "time": 80.63707202083351,
                        "value": 0
                    },
                    {
                        "number": 64,
                        "time": 80.74904114166685,
                        "value": 1
                    },
                    {
                        "number": 64,
                        "time": 81.55213000833352,
                        "value": 0
                    },
                    {
                        "number": 64,
                        "time": 81.63321109583352,
                        "value": 1
                    },
                    {
                        "number": 64,
                        "time": 82.49035402083352,
                        "value": 0
                    },
                    {
                        "number": 64,
                        "time": 82.59460113333353,
                        "value": 1
                    },
                    {
                        "number": 64,
                        "time": 83.4092730125002,
                        "value": 0
                    },
                    {
                        "number": 64,
                        "time": 84.76641597708354,
                        "value": 1
                    },
                    {
                        "number": 64,
                        "time": 85.27027702083353,
                        "value": 0
                    },
                    {
                        "number": 64,
                        "time": 85.39382915416687,
                        "value": 1
                    },
                    {
                        "number": 64,
                        "time": 86.1834045062502,
                        "value": 0
                    },
                    {
                        "number": 64,
                        "time": 86.31467864791686,
                        "value": 1
                    },
                    {
                        "number": 64,
                        "time": 87.12355902083353,
                        "value": 0
                    },
                    {
                        "number": 64,
                        "time": 87.2316671375002,
                        "value": 1
                    },
                    {
                        "number": 64,
                        "time": 88.28958227916686,
                        "value": 0
                    },
                    {
                        "number": 64,
                        "time": 89.05213060208354,
                        "value": 1
                    },
                    {
                        "number": 64,
                        "time": 89.89769051458354,
                        "value": 0
                    },
                    {
                        "number": 64,
                        "time": 90.02124264791688,
                        "value": 1
                    },
                    {
                        "number": 64,
                        "time": 90.82819251875021,
                        "value": 0
                    },
                    {
                        "number": 64,
                        "time": 90.93823113750021,
                        "value": 1
                    },
                    {
                        "number": 64,
                        "time": 91.99614627916688,
                        "value": 0
                    },
                    {
                        "number": 64,
                        "time": 92.72587606666688,
                        "value": 1
                    },
                    {
                        "number": 64,
                        "time": 93.59846300833355,
                        "value": 0
                    },
                    {
                        "number": 64,
                        "time": 93.72780664791689,
                        "value": 1
                    },
                    {
                        "number": 64,
                        "time": 94.53668702083355,
                        "value": 0
                    },
                    {
                        "number": 64,
                        "time": 94.64479513750022,
                        "value": 1
                    },
                    {
                        "number": 64,
                        "time": 95.7027102791669,
                        "value": 0
                    },
                    {
                        "number": 64,
                        "time": 96.44595358125024,
                        "value": 1
                    },
                    {
                        "number": 64,
                        "time": 97.30502700833357,
                        "value": 0
                    },
                    {
                        "number": 64,
                        "time": 97.43437064791691,
                        "value": 1
                    },
                    {
                        "number": 64,
                        "time": 98.24325102083357,
                        "value": 0
                    },
                    {
                        "number": 64,
                        "time": 98.35135913750024,
                        "value": 1
                    },
                    {
                        "number": 64,
                        "time": 99.40927427916691,
                        "value": 0
                    },
                    {
                        "number": 64,
                        "time": 100.10425502916691,
                        "value": 1
                    },
                    {
                        "number": 64,
                        "time": 101.94788451875024,
                        "value": 0
                    },
                    {
                        "number": 64,
                        "time": 102.1023246854169,
                        "value": 1
                    },
                    {
                        "number": 64,
                        "time": 103.80309702083358,
                        "value": 0
                    },
                    {
                        "number": 64,
                        "time": 103.88224760625025,
                        "value": 1
                    },
                    {
                        "number": 64,
                        "time": 105.65637902083358,
                        "value": 0
                    },
                    {
                        "number": 64,
                        "time": 105.83591571458358,
                        "value": 1
                    },
                    {
                        "number": 64,
                        "time": 107.49807800833358,
                        "value": 0
                    },
                    {
                        "number": 64,
                        "time": 107.77800081041691,
                        "value": 1
                    },
                    {
                        "number": 64,
                        "time": 109.36294302083358,
                        "value": 0
                    },
                    {
                        "number": 64,
                        "time": 109.53089670208358,
                        "value": 1
                    },
                    {
                        "number": 64,
                        "time": 111.21622502083358,
                        "value": 0
                    },
                    {
                        "number": 64,
                        "time": 111.33012464375024,
                        "value": 1
                    },
                    {
                        "number": 64,
                        "time": 113.06950702083357,
                        "value": 0
                    },
                    {
                        "number": 64,
                        "time": 113.29344526250024,
                        "value": 1
                    },
                    {
                        "number": 64,
                        "time": 114.92278902083358,
                        "value": 0
                    },
                    {
                        "number": 64,
                        "time": 115.03282763958357,
                        "value": 1
                    },
                    {
                        "number": 64,
                        "time": 116.77607102083357,
                        "value": 0
                    },
                    {
                        "number": 64,
                        "time": 116.88031813333357,
                        "value": 1
                    },
                    {
                        "number": 64,
                        "time": 120.47105200833359,
                        "value": 0
                    },
                    {
                        "number": 64,
                        "time": 122.43244212500025,
                        "value": 1
                    },
                    {
                        "number": 64,
                        "time": 124.18919902083358,
                        "value": 0
                    },
                    {
                        "number": 64,
                        "time": 124.27221061041692,
                        "value": 1
                    },
                    {
                        "number": 64,
                        "time": 126.04248102083359,
                        "value": 0
                    },
                    {
                        "number": 64,
                        "time": 126.13128411666692,
                        "value": 1
                    },
                    {
                        "number": 64,
                        "time": 127.89576302083358,
                        "value": 0
                    },
                    {
                        "number": 64,
                        "time": 128.00387113750025,
                        "value": 1
                    },
                    {
                        "number": 64,
                        "time": 129.74904502083353,
                        "value": 0
                    },
                    {
                        "number": 64,
                        "time": 129.8455701250002,
                        "value": 1
                    },
                    {
                        "number": 64,
                        "time": 133.4556090208334,
                        "value": 0
                    },
                    {
                        "number": 64,
                        "time": 133.5598561333334,
                        "value": 1
                    },
                    {
                        "number": 64,
                        "time": 137.16217302083325,
                        "value": 0
                    },
                    {
                        "number": 64,
                        "time": 137.27221163958325,
                        "value": 1
                    },
                    {
                        "number": 64,
                        "time": 139.0154550208332,
                        "value": 0
                    },
                    {
                        "number": 64,
                        "time": 139.13900715416653,
                        "value": 1
                    },
                    {
                        "number": 64,
                        "time": 140.86487601666647,
                        "value": 0
                    },
                    {
                        "number": 64,
                        "time": 141.00001116249982,
                        "value": 1
                    },
                    {
                        "number": 64,
                        "time": 142.72008851874975,
                        "value": 0
                    },
                    {
                        "number": 64,
                        "time": 142.86680667708308,
                        "value": 1
                    },
                    {
                        "number": 64,
                        "time": 144.56564851041634,
                        "value": 0
                    },
                    {
                        "number": 64,
                        "time": 144.78765624999969,
                        "value": 1
                    },
                    {
                        "number": 64,
                        "time": 146.42858302083297,
                        "value": 0
                    },
                    {
                        "number": 64,
                        "time": 148.49422024999967,
                        "value": 1
                    },
                    {
                        "number": 64,
                        "time": 150.12935551458295,
                        "value": 0
                    },
                    {
                        "number": 64,
                        "time": 150.23167212499962,
                        "value": 1
                    },
                    {
                        "number": 64,
                        "time": 151.06178802083295,
                        "value": 0
                    },
                    {
                        "number": 64,
                        "time": 151.46140195208295,
                        "value": 1
                    },
                    {
                        "number": 64,
                        "time": 151.98842902083297,
                        "value": 0
                    },
                    {
                        "number": 64,
                        "time": 152.0772321166663,
                        "value": 1
                    },
                    {
                        "number": 64,
                        "time": 152.90734801249965,
                        "value": 0
                    },
                    {
                        "number": 64,
                        "time": 153.0328306479163,
                        "value": 1
                    },
                    {
                        "number": 64,
                        "time": 153.841711020833,
                        "value": 0
                    },
                    {
                        "number": 64,
                        "time": 153.94981913749967,
                        "value": 1
                    },
                    {
                        "number": 64,
                        "time": 155.00773427916633,
                        "value": 0
                    },
                    {
                        "number": 64,
                        "time": 155.770282602083,
                        "value": 1
                    },
                    {
                        "number": 64,
                        "time": 156.60812050624966,
                        "value": 0
                    },
                    {
                        "number": 64,
                        "time": 156.73939464791633,
                        "value": 1
                    },
                    {
                        "number": 64,
                        "time": 157.54634451874966,
                        "value": 0
                    },
                    {
                        "number": 64,
                        "time": 157.65638313749966,
                        "value": 1
                    },
                    {
                        "number": 64,
                        "time": 158.71429827916631,
                        "value": 0
                    },
                    {
                        "number": 64,
                        "time": 159.47105509583298,
                        "value": 1
                    },
                    {
                        "number": 64,
                        "time": 160.32047601249965,
                        "value": 0
                    },
                    {
                        "number": 64,
                        "time": 160.4459586479163,
                        "value": 1
                    },
                    {
                        "number": 64,
                        "time": 161.254839020833,
                        "value": 0
                    },
                    {
                        "number": 64,
                        "time": 161.36294713749967,
                        "value": 1
                    },
                    {
                        "number": 64,
                        "time": 162.42086227916633,
                        "value": 0
                    },
                    {
                        "number": 64,
                        "time": 163.15638357291633,
                        "value": 1
                    },
                    {
                        "number": 64,
                        "time": 164.0251095104163,
                        "value": 0
                    },
                    {
                        "number": 64,
                        "time": 164.15252264791633,
                        "value": 1
                    },
                    {
                        "number": 64,
                        "time": 164.96140302083302,
                        "value": 0
                    },
                    {
                        "number": 64,
                        "time": 165.0695111374997,
                        "value": 1
                    },
                    {
                        "number": 64,
                        "time": 166.12742627916634,
                        "value": 0
                    },
                    {
                        "number": 64,
                        "time": 166.855225564583,
                        "value": 1
                    },
                    {
                        "number": 64,
                        "time": 168.6660365187496,
                        "value": 0
                    },
                    {
                        "number": 64,
                        "time": 168.80889367291627,
                        "value": 1
                    },
                    {
                        "number": 64,
                        "time": 170.50966600833286,
                        "value": 0
                    },
                    {
                        "number": 64,
                        "time": 170.60619111249952,
                        "value": 1
                    },
                    {
                        "number": 64,
                        "time": 172.37260051874944,
                        "value": 0
                    },
                    {
                        "number": 64,
                        "time": 172.4922916479161,
                        "value": 1
                    },
                    {
                        "number": 64,
                        "time": 174.2162300083327,
                        "value": 0
                    },
                    {
                        "number": 64,
                        "time": 174.49615281041602,
                        "value": 1
                    },
                    {
                        "number": 64,
                        "time": 176.08109502083263,
                        "value": 0
                    },
                    {
                        "number": 64,
                        "time": 176.24904870208263,
                        "value": 1
                    },
                    {
                        "number": 64,
                        "time": 177.9343770208326,
                        "value": 0
                    },
                    {
                        "number": 64,
                        "time": 178.20271681041595,
                        "value": 1
                    },
                    {
                        "number": 64,
                        "time": 179.7857285187492,
                        "value": 0
                    },
                    {
                        "number": 64,
                        "time": 180.0000142499992,
                        "value": 1
                    },
                    {
                        "number": 64,
                        "time": 181.6409410208325,
                        "value": 0
                    },
                    {
                        "number": 64,
                        "time": 181.7451881333325,
                        "value": 1
                    },
                    {
                        "number": 64,
                        "time": 183.49422302083246,
                        "value": 0
                    },
                    {
                        "number": 64,
                        "time": 183.59074812499912,
                        "value": 1
                    },
                    {
                        "number": 64,
                        "time": 186.6409414166657,
                        "value": 0
                    },
                    {
                        "number": 64,
                        "time": 189.15059412499903,
                        "value": 1
                    },
                    {
                        "number": 64,
                        "time": 190.90542051874897,
                        "value": 0
                    },
                    {
                        "number": 64,
                        "time": 190.99036261041564,
                        "value": 1
                    },
                    {
                        "number": 64,
                        "time": 192.75098051041556,
                        "value": 0
                    },
                    {
                        "number": 64,
                        "time": 192.84943611666557,
                        "value": 1
                    },
                    {
                        "number": 64,
                        "time": 194.61005401666552,
                        "value": 0
                    },
                    {
                        "number": 64,
                        "time": 194.69692661041552,
                        "value": 1
                    },
                    {
                        "number": 64,
                        "time": 196.4614055145821,
                        "value": 0
                    },
                    {
                        "number": 64,
                        "time": 196.55020861041544,
                        "value": 1
                    },
                    {
                        "number": 64,
                        "time": 198.32047902083207,
                        "value": 0
                    },
                    {
                        "number": 64,
                        "time": 198.4034906104154,
                        "value": 1
                    },
                    {
                        "number": 64,
                        "time": 200.173761020832,
                        "value": 0
                    },
                    {
                        "number": 64,
                        "time": 200.34557570624867,
                        "value": 1
                    },
                    {
                        "number": 64,
                        "time": 203.88032502083186,
                        "value": 0
                    },
                    {
                        "number": 64,
                        "time": 203.95561460208185,
                        "value": 1
                    },
                    {
                        "number": 64,
                        "time": 205.73167651874843,
                        "value": 0
                    },
                    {
                        "number": 64,
                        "time": 205.8166186104151,
                        "value": 1
                    },
                    {
                        "number": 64,
                        "time": 207.57723651041502,
                        "value": 0
                    },
                    {
                        "number": 64,
                        "time": 207.74519019166502,
                        "value": 1
                    },
                    {
                        "number": 64,
                        "time": 209.44017102083163,
                        "value": 0
                    },
                    {
                        "number": 64,
                        "time": 209.5366961249983,
                        "value": 1
                    },
                    {
                        "number": 64,
                        "time": 211.2895920166649,
                        "value": 0
                    },
                    {
                        "number": 64,
                        "time": 211.50580824999824,
                        "value": 1
                    },
                    {
                        "number": 64,
                        "time": 213.14094351458152,
                        "value": 0
                    },
                    {
                        "number": 64,
                        "time": 226.16218006666446,
                        "value": 1
                    },
                    {
                        "number": 64,
                        "time": 227.0405585145811,
                        "value": 0
                    },
                    {
                        "number": 64,
                        "time": 227.16604114999777,
                        "value": 1
                    },
                    {
                        "number": 64,
                        "time": 227.9671995145811,
                        "value": 0
                    },
                    {
                        "number": 64,
                        "time": 228.07530763124777,
                        "value": 1
                    },
                    {
                        "number": 64,
                        "time": 228.8957710166644,
                        "value": 0
                    },
                    {
                        "number": 64,
                        "time": 229.2200953666644,
                        "value": 1
                    },
                    {
                        "number": 64,
                        "time": 229.81662051041437,
                        "value": 0
                    },
                    {
                        "number": 64,
                        "time": 229.93824214166438,
                        "value": 1
                    },
                    {
                        "number": 64,
                        "time": 231.67955502083097,
                        "value": 0
                    },
                    {
                        "number": 64,
                        "time": 231.806968158331,
                        "value": 1
                    },
                    {
                        "number": 64,
                        "time": 233.53283702083093,
                        "value": 0
                    },
                    {
                        "number": 64,
                        "time": 233.65059764791425,
                        "value": 1
                    },
                    {
                        "number": 64,
                        "time": 237.68341649999752,
                        "value": 0
                    },
                    {
                        "number": 64,
                        "time": 241.00194958124752,
                        "value": 1
                    },
                    {
                        "number": 64,
                        "time": 243.72588802083075,
                        "value": 0
                    },
                    {
                        "number": 64,
                        "time": 243.80889961041407,
                        "value": 1
                    },
                    {
                        "number": 64,
                        "time": 253.64287722291397,
                        "value": 0
                    }
                ]
            },
            "id": 3,
            "name": "Piano left",
            "instrumentNumber": 0,
            "instrument": "acoustic grand piano",
            "instrumentFamily": "piano",
            "channelNumber": 0,
            "isPercussion": false
        },
        {
            "startTime": 0,
            "duration": 0,
            "length": 0,
            "notes": [],
            "controlChanges": {},
            "id": 4,
            "name": "Mendelssohn: Songs without Words, Op. 30 No. 1"
        },
        {
            "startTime": 0,
            "duration": 0,
            "length": 0,
            "notes": [],
            "controlChanges": {},
            "id": 5,
            "name": "Copyright  2000 by Bernd Krger"
        },
        {
            "startTime": 0,
            "duration": 0,
            "length": 0,
            "notes": [],
            "controlChanges": {},
            "id": 6,
            "name": "http://www.piano-midi.de"
        },
        {
            "startTime": 0,
            "duration": 0,
            "length": 0,
            "notes": [],
            "controlChanges": {},
            "id": 7,
            "name": "Edition: 2014-04-03"
        },
        {
            "startTime": 0,
            "duration": 0,
            "length": 0,
            "notes": [],
            "controlChanges": {},
            "id": 8,
            "name": "Spur 8"
        }
    ]
}