{
    "header": {
        "PPQ": 480,
        "timeSignature": [
            3,
            4
        ],
        "bpm": 69.99998833333528,
        "name": "Sonata D850, 2. movement"
    },
    "startTime": 0,
    "duration": 529.7143739999929,
    "tracks": [
        {
            "startTime": 0,
            "duration": 0,
            "length": 0,
            "notes": [],
            "controlChanges": {},
            "id": 0,
            "name": "Sonata D850, 2. movement"
        },
        {
            "startTime": 1.2857145,
            "duration": 529.7143739999929,
            "length": 2954,
            "notes": [
                {
                    "name": "C#4",
                    "midi": 61,
                    "time": 1.2857145,
                    "velocity": 0.30708661417322836,
                    "duration": 0.4285714999999999
                },
                {
                    "name": "E4",
                    "midi": 64,
                    "time": 1.2857145,
                    "velocity": 0.36220472440944884,
                    "duration": 0.4285714999999999
                },
                {
                    "name": "D4",
                    "midi": 62,
                    "time": 1.714286,
                    "velocity": 0.33070866141732286,
                    "duration": 0.3857143500000002
                },
                {
                    "name": "F#4",
                    "midi": 66,
                    "time": 1.714286,
                    "velocity": 0.3937007874015748,
                    "duration": 0.3857143500000002
                },
                {
                    "name": "C4",
                    "midi": 60,
                    "time": 2.1428575000000003,
                    "velocity": 0.2677165354330709,
                    "duration": 0.3857143500000002
                },
                {
                    "name": "D#4",
                    "midi": 63,
                    "time": 2.1428575000000003,
                    "velocity": 0.31496062992125984,
                    "duration": 0.3857143500000002
                },
                {
                    "name": "C#4",
                    "midi": 61,
                    "time": 2.5714290000000006,
                    "velocity": 0.30708661417322836,
                    "duration": 1.2678573541666665
                },
                {
                    "name": "E4",
                    "midi": 64,
                    "time": 2.5714290000000006,
                    "velocity": 0.3700787401574803,
                    "duration": 1.2678573541666665
                },
                {
                    "name": "C#4",
                    "midi": 61,
                    "time": 3.8571435000000003,
                    "velocity": 0.33070866141732286,
                    "duration": 0.8571430000000007
                },
                {
                    "name": "E4",
                    "midi": 64,
                    "time": 3.8571435000000003,
                    "velocity": 0.33070866141732286,
                    "duration": 0.8571430000000007
                },
                {
                    "name": "A4",
                    "midi": 69,
                    "time": 3.8571435000000003,
                    "velocity": 0.4330708661417323,
                    "duration": 0.4285715000000003
                },
                {
                    "name": "B4",
                    "midi": 71,
                    "time": 4.285715000000001,
                    "velocity": 0.44881889763779526,
                    "duration": 0.4285715000000003
                },
                {
                    "name": "C#4",
                    "midi": 61,
                    "time": 4.714286500000001,
                    "velocity": 0.3700787401574803,
                    "duration": 0.38571434999999976
                },
                {
                    "name": "F4",
                    "midi": 65,
                    "time": 4.714286500000001,
                    "velocity": 0.3700787401574803,
                    "duration": 0.38571434999999976
                },
                {
                    "name": "C#5",
                    "midi": 73,
                    "time": 4.714286500000001,
                    "velocity": 0.48031496062992124,
                    "duration": 0.38571434999999976
                },
                {
                    "name": "D4",
                    "midi": 62,
                    "time": 5.142858,
                    "velocity": 0.2992125984251969,
                    "duration": 1.2857145
                },
                {
                    "name": "F#4",
                    "midi": 66,
                    "time": 5.142858,
                    "velocity": 0.3543307086614173,
                    "duration": 1.2857145
                },
                {
                    "name": "C#5",
                    "midi": 73,
                    "time": 5.142858,
                    "velocity": 0.4566929133858268,
                    "duration": 0.8571429999999998
                },
                {
                    "name": "B4",
                    "midi": 71,
                    "time": 6.000001,
                    "velocity": 0.3464566929133858,
                    "duration": 0.4285715000000003
                },
                {
                    "name": "D4",
                    "midi": 62,
                    "time": 6.4285725000000005,
                    "velocity": 0.31496062992125984,
                    "duration": 0.8571430000000007
                },
                {
                    "name": "A4",
                    "midi": 69,
                    "time": 6.4285725000000005,
                    "velocity": 0.4409448818897638,
                    "duration": 0.4285715000000003
                },
                {
                    "name": "G#4",
                    "midi": 68,
                    "time": 6.857144000000001,
                    "velocity": 0.41732283464566927,
                    "duration": 0.4285715000000003
                },
                {
                    "name": "D4",
                    "midi": 62,
                    "time": 7.285715500000001,
                    "velocity": 0.29133858267716534,
                    "duration": 0.38571434999999976
                },
                {
                    "name": "F#4",
                    "midi": 66,
                    "time": 7.285715500000001,
                    "velocity": 0.3779527559055118,
                    "duration": 0.38571434999999976
                },
                {
                    "name": "D4",
                    "midi": 62,
                    "time": 7.714287000000001,
                    "velocity": 0.33070866141732286,
                    "duration": 1.267857354166667
                },
                {
                    "name": "E4",
                    "midi": 64,
                    "time": 7.714287000000001,
                    "velocity": 0.3937007874015748,
                    "duration": 1.267857354166667
                },
                {
                    "name": "D4",
                    "midi": 62,
                    "time": 9.000001500000002,
                    "velocity": 0.33070866141732286,
                    "duration": 0.21428575000000016
                },
                {
                    "name": "E4",
                    "midi": 64,
                    "time": 9.000001500000002,
                    "velocity": 0.3937007874015748,
                    "duration": 0.19642860416666608
                },
                {
                    "name": "E4",
                    "midi": 64,
                    "time": 9.214287250000002,
                    "velocity": 0.31496062992125984,
                    "duration": 0.0714285833333328
                },
                {
                    "name": "F#4",
                    "midi": 66,
                    "time": 9.285715833333335,
                    "velocity": 0.31496062992125984,
                    "duration": 0.0714285833333328
                },
                {
                    "name": "G#4",
                    "midi": 68,
                    "time": 9.357144416666667,
                    "velocity": 0.31496062992125984,
                    "duration": 0.0714285833333328
                },
                {
                    "name": "D4",
                    "midi": 62,
                    "time": 9.428573,
                    "velocity": 0.33070866141732286,
                    "duration": 0.38571435000000065
                },
                {
                    "name": "F#4",
                    "midi": 66,
                    "time": 9.428573,
                    "velocity": 0.3937007874015748,
                    "duration": 0.38571435000000065
                },
                {
                    "name": "D4",
                    "midi": 62,
                    "time": 9.8571445,
                    "velocity": 0.2755905511811024,
                    "duration": 0.38571435000000065
                },
                {
                    "name": "E4",
                    "midi": 64,
                    "time": 9.8571445,
                    "velocity": 0.33070866141732286,
                    "duration": 0.38571435000000065
                },
                {
                    "name": "D4",
                    "midi": 62,
                    "time": 10.285716,
                    "velocity": 0.33070866141732286,
                    "duration": 0.8571430000000007
                },
                {
                    "name": "F#4",
                    "midi": 66,
                    "time": 10.285716,
                    "velocity": 0.3937007874015748,
                    "duration": 0.8571430000000007
                },
                {
                    "name": "C#4",
                    "midi": 61,
                    "time": 11.142859000000001,
                    "velocity": 0.29133858267716534,
                    "duration": 0.41071435416666624
                },
                {
                    "name": "E4",
                    "midi": 64,
                    "time": 11.142859000000001,
                    "velocity": 0.3464566929133858,
                    "duration": 0.41071435416666624
                },
                {
                    "name": "A3",
                    "midi": 57,
                    "time": 11.571430500000002,
                    "velocity": 0.3779527559055118,
                    "duration": 0.4285715000000003
                },
                {
                    "name": "C#4",
                    "midi": 61,
                    "time": 11.571430500000002,
                    "velocity": 0.44881889763779526,
                    "duration": 0.4285715000000003
                },
                {
                    "name": "D4",
                    "midi": 62,
                    "time": 12.000002000000002,
                    "velocity": 0.4094488188976378,
                    "duration": 0.38571435000000065
                },
                {
                    "name": "F#4",
                    "midi": 66,
                    "time": 12.000002000000002,
                    "velocity": 0.4881889763779528,
                    "duration": 0.38571435000000065
                },
                {
                    "name": "C4",
                    "midi": 60,
                    "time": 12.428573500000002,
                    "velocity": 0.33070866141732286,
                    "duration": 0.38571435000000065
                },
                {
                    "name": "D#4",
                    "midi": 63,
                    "time": 12.428573500000002,
                    "velocity": 0.3937007874015748,
                    "duration": 0.38571435000000065
                },
                {
                    "name": "C#4",
                    "midi": 61,
                    "time": 12.857145000000003,
                    "velocity": 0.3779527559055118,
                    "duration": 1.267857354166667
                },
                {
                    "name": "E4",
                    "midi": 64,
                    "time": 12.857145000000003,
                    "velocity": 0.4645669291338583,
                    "duration": 1.267857354166667
                },
                {
                    "name": "E4",
                    "midi": 64,
                    "time": 14.142859500000004,
                    "velocity": 0.4645669291338583,
                    "duration": 0.8392858541666666
                },
                {
                    "name": "A4",
                    "midi": 69,
                    "time": 14.142859500000004,
                    "velocity": 0.5433070866141733,
                    "duration": 0.8392858541666666
                },
                {
                    "name": "C#5",
                    "midi": 73,
                    "time": 14.571431000000004,
                    "velocity": 0.6141732283464567,
                    "duration": 0.4285715000000003
                },
                {
                    "name": "A4",
                    "midi": 69,
                    "time": 15.000002500000004,
                    "velocity": 0.49606299212598426,
                    "duration": 0.38571435000000065
                },
                {
                    "name": "E4",
                    "midi": 64,
                    "time": 15.000002500000004,
                    "velocity": 0.49606299212598426,
                    "duration": 0.38571435000000065
                },
                {
                    "name": "C#5",
                    "midi": 73,
                    "time": 15.000002500000004,
                    "velocity": 0.49606299212598426,
                    "duration": 0.38571435000000065
                },
                {
                    "name": "E5",
                    "midi": 76,
                    "time": 15.000002500000004,
                    "velocity": 0.5905511811023622,
                    "duration": 0.38571435000000065
                },
                {
                    "name": "C#5",
                    "midi": 73,
                    "time": 15.428574000000005,
                    "velocity": 0.5275590551181102,
                    "duration": 1.2678573541666651
                },
                {
                    "name": "E4",
                    "midi": 64,
                    "time": 15.428574000000005,
                    "velocity": 0.5275590551181102,
                    "duration": 1.2857144999999974
                },
                {
                    "name": "G#4",
                    "midi": 68,
                    "time": 15.428574000000005,
                    "velocity": 0.5275590551181102,
                    "duration": 1.2678573541666651
                },
                {
                    "name": "E5",
                    "midi": 76,
                    "time": 15.428574000000005,
                    "velocity": 0.6220472440944882,
                    "duration": 1.2678573541666651
                },
                {
                    "name": "E4",
                    "midi": 64,
                    "time": 16.714288500000002,
                    "velocity": 0.31496062992125984,
                    "duration": 0.4285715000000003
                },
                {
                    "name": "G#4",
                    "midi": 68,
                    "time": 16.714288500000002,
                    "velocity": 0.31496062992125984,
                    "duration": 0.410714354166668
                },
                {
                    "name": "E5",
                    "midi": 76,
                    "time": 16.714288500000002,
                    "velocity": 0.4409448818897638,
                    "duration": 0.4285715000000003
                },
                {
                    "name": "F#4",
                    "midi": 66,
                    "time": 17.142860000000002,
                    "velocity": 0.33070866141732286,
                    "duration": 0.410714354166668
                },
                {
                    "name": "G#4",
                    "midi": 68,
                    "time": 17.142860000000002,
                    "velocity": 0.33070866141732286,
                    "duration": 0.410714354166668
                },
                {
                    "name": "D#5",
                    "midi": 75,
                    "time": 17.142860000000002,
                    "velocity": 0.41732283464566927,
                    "duration": 0.4285715000000003
                },
                {
                    "name": "F#4",
                    "midi": 66,
                    "time": 17.571431500000003,
                    "velocity": 0.29133858267716534,
                    "duration": 0.38571435000000065
                },
                {
                    "name": "G#4",
                    "midi": 68,
                    "time": 17.571431500000003,
                    "velocity": 0.3779527559055118,
                    "duration": 0.38571435000000065
                },
                {
                    "name": "G#4",
                    "midi": 68,
                    "time": 18.000003000000003,
                    "velocity": 0.33070866141732286,
                    "duration": 1.2857144999999974
                },
                {
                    "name": "E4",
                    "midi": 64,
                    "time": 18.000003000000003,
                    "velocity": 0.33070866141732286,
                    "duration": 1.2678573541666651
                },
                {
                    "name": "C#5",
                    "midi": 73,
                    "time": 18.000003000000003,
                    "velocity": 0.4330708661417323,
                    "duration": 1.2678573541666651
                },
                {
                    "name": "C#4",
                    "midi": 61,
                    "time": 19.2857175,
                    "velocity": 0.33070866141732286,
                    "duration": 0.4285715000000003
                },
                {
                    "name": "E4",
                    "midi": 64,
                    "time": 19.2857175,
                    "velocity": 0.33070866141732286,
                    "duration": 0.410714354166668
                },
                {
                    "name": "C#5",
                    "midi": 73,
                    "time": 19.2857175,
                    "velocity": 0.3937007874015748,
                    "duration": 0.4285715000000003
                },
                {
                    "name": "D4",
                    "midi": 62,
                    "time": 19.714289,
                    "velocity": 0.33070866141732286,
                    "duration": 0.4285715000000003
                },
                {
                    "name": "E4",
                    "midi": 64,
                    "time": 19.714289,
                    "velocity": 0.33070866141732286,
                    "duration": 0.38571435000000065
                },
                {
                    "name": "B4",
                    "midi": 71,
                    "time": 19.714289,
                    "velocity": 0.3937007874015748,
                    "duration": 0.38571435000000065
                },
                {
                    "name": "D4",
                    "midi": 62,
                    "time": 20.1428605,
                    "velocity": 0.2755905511811024,
                    "duration": 0.38571435000000065
                },
                {
                    "name": "E4",
                    "midi": 64,
                    "time": 20.1428605,
                    "velocity": 0.33070866141732286,
                    "duration": 0.38571435000000065
                },
                {
                    "name": "C#4",
                    "midi": 61,
                    "time": 20.571432,
                    "velocity": 0.33070866141732286,
                    "duration": 0.8571430000000007
                },
                {
                    "name": "A4",
                    "midi": 69,
                    "time": 20.571432,
                    "velocity": 0.3937007874015748,
                    "duration": 0.8571430000000007
                },
                {
                    "name": "C#4",
                    "midi": 61,
                    "time": 21.857146500000002,
                    "velocity": 0.30708661417322836,
                    "duration": 0.4285715000000003
                },
                {
                    "name": "E4",
                    "midi": 64,
                    "time": 21.857146500000002,
                    "velocity": 0.36220472440944884,
                    "duration": 0.4285715000000003
                },
                {
                    "name": "D4",
                    "midi": 62,
                    "time": 22.285718000000003,
                    "velocity": 0.33070866141732286,
                    "duration": 0.38571435000000065
                },
                {
                    "name": "F#4",
                    "midi": 66,
                    "time": 22.285718000000003,
                    "velocity": 0.3937007874015748,
                    "duration": 0.38571435000000065
                },
                {
                    "name": "C4",
                    "midi": 60,
                    "time": 22.714289500000003,
                    "velocity": 0.2677165354330709,
                    "duration": 0.38571435000000065
                },
                {
                    "name": "D#4",
                    "midi": 63,
                    "time": 22.714289500000003,
                    "velocity": 0.31496062992125984,
                    "duration": 0.38571435000000065
                },
                {
                    "name": "C#4",
                    "midi": 61,
                    "time": 23.142861000000003,
                    "velocity": 0.30708661417322836,
                    "duration": 1.2678573541666651
                },
                {
                    "name": "E4",
                    "midi": 64,
                    "time": 23.142861000000003,
                    "velocity": 0.3700787401574803,
                    "duration": 1.2678573541666651
                },
                {
                    "name": "C#4",
                    "midi": 61,
                    "time": 24.4285755,
                    "velocity": 0.33070866141732286,
                    "duration": 0.8571430000000007
                },
                {
                    "name": "E4",
                    "midi": 64,
                    "time": 24.4285755,
                    "velocity": 0.33070866141732286,
                    "duration": 0.8571430000000007
                },
                {
                    "name": "A4",
                    "midi": 69,
                    "time": 24.4285755,
                    "velocity": 0.4330708661417323,
                    "duration": 0.4285715000000003
                },
                {
                    "name": "B4",
                    "midi": 71,
                    "time": 24.857147,
                    "velocity": 0.44881889763779526,
                    "duration": 0.4285715000000003
                },
                {
                    "name": "C#4",
                    "midi": 61,
                    "time": 25.2857185,
                    "velocity": 0.3700787401574803,
                    "duration": 0.38571435000000065
                },
                {
                    "name": "F4",
                    "midi": 65,
                    "time": 25.2857185,
                    "velocity": 0.3700787401574803,
                    "duration": 0.38571435000000065
                },
                {
                    "name": "C#5",
                    "midi": 73,
                    "time": 25.2857185,
                    "velocity": 0.48031496062992124,
                    "duration": 0.38571435000000065
                },
                {
                    "name": "D4",
                    "midi": 62,
                    "time": 25.714290000000002,
                    "velocity": 0.2992125984251969,
                    "duration": 1.285714500000001
                },
                {
                    "name": "F#4",
                    "midi": 66,
                    "time": 25.714290000000002,
                    "velocity": 0.3543307086614173,
                    "duration": 1.285714500000001
                },
                {
                    "name": "C#5",
                    "midi": 73,
                    "time": 25.714290000000002,
                    "velocity": 0.4566929133858268,
                    "duration": 0.8571430000000007
                },
                {
                    "name": "B4",
                    "midi": 71,
                    "time": 26.571433000000003,
                    "velocity": 0.3464566929133858,
                    "duration": 0.4285715000000003
                },
                {
                    "name": "D4",
                    "midi": 62,
                    "time": 27.000004500000003,
                    "velocity": 0.31496062992125984,
                    "duration": 0.8571430000000007
                },
                {
                    "name": "A4",
                    "midi": 69,
                    "time": 27.000004500000003,
                    "velocity": 0.4409448818897638,
                    "duration": 0.4285715000000003
                },
                {
                    "name": "G#4",
                    "midi": 68,
                    "time": 27.428576000000003,
                    "velocity": 0.41732283464566927,
                    "duration": 0.4285715000000003
                },
                {
                    "name": "D4",
                    "midi": 62,
                    "time": 27.857147500000004,
                    "velocity": 0.29133858267716534,
                    "duration": 0.38571435000000065
                },
                {
                    "name": "F#4",
                    "midi": 66,
                    "time": 27.857147500000004,
                    "velocity": 0.3779527559055118,
                    "duration": 0.38571435000000065
                },
                {
                    "name": "D4",
                    "midi": 62,
                    "time": 28.285719000000004,
                    "velocity": 0.33070866141732286,
                    "duration": 1.2678573541666651
                },
                {
                    "name": "E4",
                    "midi": 64,
                    "time": 28.285719000000004,
                    "velocity": 0.3937007874015748,
                    "duration": 1.2678573541666651
                },
                {
                    "name": "D4",
                    "midi": 62,
                    "time": 29.5714335,
                    "velocity": 0.33070866141732286,
                    "duration": 0.2142857499999984
                },
                {
                    "name": "E4",
                    "midi": 64,
                    "time": 29.5714335,
                    "velocity": 0.3937007874015748,
                    "duration": 0.19642860416666608
                },
                {
                    "name": "E4",
                    "midi": 64,
                    "time": 29.78571925,
                    "velocity": 0.31496062992125984,
                    "duration": 0.0714285833333328
                },
                {
                    "name": "F#4",
                    "midi": 66,
                    "time": 29.857147833333332,
                    "velocity": 0.31496062992125984,
                    "duration": 0.0714285833333328
                },
                {
                    "name": "G#4",
                    "midi": 68,
                    "time": 29.928576416666665,
                    "velocity": 0.31496062992125984,
                    "duration": 0.0714285833333328
                },
                {
                    "name": "D4",
                    "midi": 62,
                    "time": 30.000004999999998,
                    "velocity": 0.33070866141732286,
                    "duration": 0.38571435000000065
                },
                {
                    "name": "F#4",
                    "midi": 66,
                    "time": 30.000004999999998,
                    "velocity": 0.3937007874015748,
                    "duration": 0.38571435000000065
                },
                {
                    "name": "D4",
                    "midi": 62,
                    "time": 30.4285765,
                    "velocity": 0.2755905511811024,
                    "duration": 0.38571435000000065
                },
                {
                    "name": "E4",
                    "midi": 64,
                    "time": 30.4285765,
                    "velocity": 0.33070866141732286,
                    "duration": 0.38571435000000065
                },
                {
                    "name": "D4",
                    "midi": 62,
                    "time": 30.857148,
                    "velocity": 0.33070866141732286,
                    "duration": 0.8571430000000007
                },
                {
                    "name": "F#4",
                    "midi": 66,
                    "time": 30.857148,
                    "velocity": 0.3937007874015748,
                    "duration": 0.8571430000000007
                },
                {
                    "name": "C#4",
                    "midi": 61,
                    "time": 31.714291,
                    "velocity": 0.29133858267716534,
                    "duration": 0.410714354166668
                },
                {
                    "name": "E4",
                    "midi": 64,
                    "time": 31.714291,
                    "velocity": 0.3464566929133858,
                    "duration": 0.410714354166668
                },
                {
                    "name": "A3",
                    "midi": 57,
                    "time": 32.1428625,
                    "velocity": 0.3779527559055118,
                    "duration": 0.4285714999999968
                },
                {
                    "name": "C#4",
                    "midi": 61,
                    "time": 32.1428625,
                    "velocity": 0.44881889763779526,
                    "duration": 0.4285714999999968
                },
                {
                    "name": "D4",
                    "midi": 62,
                    "time": 32.571433999999996,
                    "velocity": 0.4094488188976378,
                    "duration": 0.38571435000000065
                },
                {
                    "name": "F#4",
                    "midi": 66,
                    "time": 32.571433999999996,
                    "velocity": 0.4881889763779528,
                    "duration": 0.38571435000000065
                },
                {
                    "name": "C4",
                    "midi": 60,
                    "time": 33.0000055,
                    "velocity": 0.33070866141732286,
                    "duration": 0.38571435000000065
                },
                {
                    "name": "D#4",
                    "midi": 63,
                    "time": 33.0000055,
                    "velocity": 0.3937007874015748,
                    "duration": 0.38571435000000065
                },
                {
                    "name": "C#4",
                    "midi": 61,
                    "time": 33.428577000000004,
                    "velocity": 0.3779527559055118,
                    "duration": 1.2678573541666651
                },
                {
                    "name": "E4",
                    "midi": 64,
                    "time": 33.428577000000004,
                    "velocity": 0.4645669291338583,
                    "duration": 1.2678573541666651
                },
                {
                    "name": "E4",
                    "midi": 64,
                    "time": 34.7142915,
                    "velocity": 0.4645669291338583,
                    "duration": 0.8392858541666612
                },
                {
                    "name": "A4",
                    "midi": 69,
                    "time": 34.7142915,
                    "velocity": 0.5433070866141733,
                    "duration": 0.8392858541666612
                },
                {
                    "name": "C#5",
                    "midi": 73,
                    "time": 35.142863,
                    "velocity": 0.6141732283464567,
                    "duration": 0.4285714999999968
                },
                {
                    "name": "A4",
                    "midi": 69,
                    "time": 35.571434499999995,
                    "velocity": 0.49606299212598426,
                    "duration": 0.38571435000000065
                },
                {
                    "name": "E4",
                    "midi": 64,
                    "time": 35.571434499999995,
                    "velocity": 0.49606299212598426,
                    "duration": 0.38571435000000065
                },
                {
                    "name": "C#5",
                    "midi": 73,
                    "time": 35.571434499999995,
                    "velocity": 0.49606299212598426,
                    "duration": 0.38571435000000065
                },
                {
                    "name": "E5",
                    "midi": 76,
                    "time": 35.571434499999995,
                    "velocity": 0.5905511811023622,
                    "duration": 0.38571435000000065
                },
                {
                    "name": "C#5",
                    "midi": 73,
                    "time": 36.000006,
                    "velocity": 0.5275590551181102,
                    "duration": 1.2678573541666651
                },
                {
                    "name": "E4",
                    "midi": 64,
                    "time": 36.000006,
                    "velocity": 0.5275590551181102,
                    "duration": 1.2857144999999974
                },
                {
                    "name": "G#4",
                    "midi": 68,
                    "time": 36.000006,
                    "velocity": 0.5275590551181102,
                    "duration": 1.2678573541666651
                },
                {
                    "name": "E5",
                    "midi": 76,
                    "time": 36.000006,
                    "velocity": 0.6220472440944882,
                    "duration": 1.2678573541666651
                },
                {
                    "name": "E4",
                    "midi": 64,
                    "time": 37.2857205,
                    "velocity": 0.31496062992125984,
                    "duration": 0.4285714999999968
                },
                {
                    "name": "G#4",
                    "midi": 68,
                    "time": 37.2857205,
                    "velocity": 0.31496062992125984,
                    "duration": 0.41071435416666446
                },
                {
                    "name": "E5",
                    "midi": 76,
                    "time": 37.2857205,
                    "velocity": 0.4409448818897638,
                    "duration": 0.4285714999999968
                },
                {
                    "name": "F#4",
                    "midi": 66,
                    "time": 37.71429199999999,
                    "velocity": 0.33070866141732286,
                    "duration": 0.41071435416666446
                },
                {
                    "name": "G#4",
                    "midi": 68,
                    "time": 37.71429199999999,
                    "velocity": 0.33070866141732286,
                    "duration": 0.41071435416666446
                },
                {
                    "name": "D#5",
                    "midi": 75,
                    "time": 37.71429199999999,
                    "velocity": 0.41732283464566927,
                    "duration": 0.4285714999999968
                },
                {
                    "name": "F#4",
                    "midi": 66,
                    "time": 38.14286349999999,
                    "velocity": 0.29133858267716534,
                    "duration": 0.38571435000000065
                },
                {
                    "name": "G#4",
                    "midi": 68,
                    "time": 38.14286349999999,
                    "velocity": 0.3779527559055118,
                    "duration": 0.38571435000000065
                },
                {
                    "name": "G#4",
                    "midi": 68,
                    "time": 38.571434999999994,
                    "velocity": 0.33070866141732286,
                    "duration": 1.2857144999999974
                },
                {
                    "name": "E4",
                    "midi": 64,
                    "time": 38.571434999999994,
                    "velocity": 0.33070866141732286,
                    "duration": 1.2678573541666651
                },
                {
                    "name": "C#5",
                    "midi": 73,
                    "time": 38.571434999999994,
                    "velocity": 0.4330708661417323,
                    "duration": 1.2678573541666651
                },
                {
                    "name": "C#4",
                    "midi": 61,
                    "time": 39.85714949999999,
                    "velocity": 0.33070866141732286,
                    "duration": 0.4285714999999968
                },
                {
                    "name": "E4",
                    "midi": 64,
                    "time": 39.85714949999999,
                    "velocity": 0.33070866141732286,
                    "duration": 0.41071435416666446
                },
                {
                    "name": "C#5",
                    "midi": 73,
                    "time": 39.85714949999999,
                    "velocity": 0.3937007874015748,
                    "duration": 0.4285714999999968
                },
                {
                    "name": "D4",
                    "midi": 62,
                    "time": 40.28572099999999,
                    "velocity": 0.33070866141732286,
                    "duration": 0.4285715000000039
                },
                {
                    "name": "E4",
                    "midi": 64,
                    "time": 40.28572099999999,
                    "velocity": 0.33070866141732286,
                    "duration": 0.38571435000000065
                },
                {
                    "name": "B4",
                    "midi": 71,
                    "time": 40.28572099999999,
                    "velocity": 0.3937007874015748,
                    "duration": 0.38571435000000065
                },
                {
                    "name": "D4",
                    "midi": 62,
                    "time": 40.71429249999999,
                    "velocity": 0.2755905511811024,
                    "duration": 0.38571435000000065
                },
                {
                    "name": "E4",
                    "midi": 64,
                    "time": 40.71429249999999,
                    "velocity": 0.33070866141732286,
                    "duration": 0.38571435000000065
                },
                {
                    "name": "C#4",
                    "midi": 61,
                    "time": 41.142863999999996,
                    "velocity": 0.33070866141732286,
                    "duration": 1.2857144999999974
                },
                {
                    "name": "A4",
                    "midi": 69,
                    "time": 41.142863999999996,
                    "velocity": 0.3937007874015748,
                    "duration": 1.2857144999999974
                },
                {
                    "name": "C#4",
                    "midi": 61,
                    "time": 42.42857849999999,
                    "velocity": 0.3937007874015748,
                    "duration": 0.41071435416666446
                },
                {
                    "name": "G4",
                    "midi": 67,
                    "time": 42.42857849999999,
                    "velocity": 0.3937007874015748,
                    "duration": 0.41071435416666446
                },
                {
                    "name": "A#4",
                    "midi": 70,
                    "time": 42.42857849999999,
                    "velocity": 0.4645669291338583,
                    "duration": 0.41071435416666446
                },
                {
                    "name": "D4",
                    "midi": 62,
                    "time": 42.85714999999999,
                    "velocity": 0.4251968503937008,
                    "duration": 0.4285714999999968
                },
                {
                    "name": "G4",
                    "midi": 67,
                    "time": 42.85714999999999,
                    "velocity": 0.4251968503937008,
                    "duration": 0.4285714999999968
                },
                {
                    "name": "B4",
                    "midi": 71,
                    "time": 42.85714999999999,
                    "velocity": 0.5039370078740157,
                    "duration": 0.4285714999999968
                },
                {
                    "name": "E4",
                    "midi": 64,
                    "time": 43.28572149999999,
                    "velocity": 0.44881889763779526,
                    "duration": 0.38571435000000065
                },
                {
                    "name": "A#4",
                    "midi": 70,
                    "time": 43.28572149999999,
                    "velocity": 0.5354330708661418,
                    "duration": 0.38571435000000065
                },
                {
                    "name": "G4",
                    "midi": 67,
                    "time": 43.28572149999999,
                    "velocity": 0.44881889763779526,
                    "duration": 0.38571435000000065
                },
                {
                    "name": "C#5",
                    "midi": 73,
                    "time": 43.28572149999999,
                    "velocity": 0.5354330708661418,
                    "duration": 0.38571435000000065
                },
                {
                    "name": "D4",
                    "midi": 62,
                    "time": 43.71429299999999,
                    "velocity": 0.48031496062992124,
                    "duration": 1.2857144999999974
                },
                {
                    "name": "G4",
                    "midi": 67,
                    "time": 43.71429299999999,
                    "velocity": 0.48031496062992124,
                    "duration": 1.2857144999999974
                },
                {
                    "name": "B4",
                    "midi": 71,
                    "time": 43.71429299999999,
                    "velocity": 0.48031496062992124,
                    "duration": 1.2857144999999974
                },
                {
                    "name": "D5",
                    "midi": 74,
                    "time": 43.71429299999999,
                    "velocity": 0.5669291338582677,
                    "duration": 1.2857144999999974
                },
                {
                    "name": "D4",
                    "midi": 62,
                    "time": 45.00000749999999,
                    "velocity": 0.31496062992125984,
                    "duration": 0.41071435416666446
                },
                {
                    "name": "B4",
                    "midi": 71,
                    "time": 45.00000749999999,
                    "velocity": 0.4409448818897638,
                    "duration": 0.4285714999999968
                },
                {
                    "name": "D4",
                    "midi": 62,
                    "time": 45.428578999999985,
                    "velocity": 0.31496062992125984,
                    "duration": 0.41071435416666446
                },
                {
                    "name": "G4",
                    "midi": 67,
                    "time": 45.428578999999985,
                    "velocity": 0.4015748031496063,
                    "duration": 0.4285714999999968
                },
                {
                    "name": "B3",
                    "midi": 59,
                    "time": 45.85715049999998,
                    "velocity": 0.29133858267716534,
                    "duration": 0.38571435000000065
                },
                {
                    "name": "D4",
                    "midi": 62,
                    "time": 45.85715049999998,
                    "velocity": 0.3779527559055118,
                    "duration": 0.38571435000000065
                },
                {
                    "name": "C4",
                    "midi": 60,
                    "time": 46.285721999999986,
                    "velocity": 0.29133858267716534,
                    "duration": 1.2678573541666651
                },
                {
                    "name": "E4",
                    "midi": 64,
                    "time": 46.285721999999986,
                    "velocity": 0.3858267716535433,
                    "duration": 1.2678573541666651
                },
                {
                    "name": "B3",
                    "midi": 59,
                    "time": 47.57143649999998,
                    "velocity": 0.2677165354330709,
                    "duration": 0.4285714999999968
                },
                {
                    "name": "D4",
                    "midi": 62,
                    "time": 47.57143649999998,
                    "velocity": 0.3700787401574803,
                    "duration": 0.4285714999999968
                },
                {
                    "name": "C4",
                    "midi": 60,
                    "time": 48.00000799999998,
                    "velocity": 0.2677165354330709,
                    "duration": 0.41071435416666446
                },
                {
                    "name": "E4",
                    "midi": 64,
                    "time": 48.00000799999998,
                    "velocity": 0.33858267716535434,
                    "duration": 0.4285714999999968
                },
                {
                    "name": "B3",
                    "midi": 59,
                    "time": 48.42857949999998,
                    "velocity": 0.2440944881889764,
                    "duration": 0.38571435000000065
                },
                {
                    "name": "F4",
                    "midi": 65,
                    "time": 48.42857949999998,
                    "velocity": 0.31496062992125984,
                    "duration": 0.38571435000000065
                },
                {
                    "name": "C4",
                    "midi": 60,
                    "time": 48.85715099999998,
                    "velocity": 0.2755905511811024,
                    "duration": 0.39285720833333215
                },
                {
                    "name": "E4",
                    "midi": 64,
                    "time": 48.85715099999998,
                    "velocity": 0.36220472440944884,
                    "duration": 0.39285720833333215
                },
                {
                    "name": "B4",
                    "midi": 71,
                    "time": 49.28572249999998,
                    "velocity": 0.2677165354330709,
                    "duration": 0.4285714999999968
                },
                {
                    "name": "D5",
                    "midi": 74,
                    "time": 49.28572249999998,
                    "velocity": 0.3700787401574803,
                    "duration": 0.4285714999999968
                },
                {
                    "name": "C5",
                    "midi": 72,
                    "time": 49.714293999999974,
                    "velocity": 0.2677165354330709,
                    "duration": 0.41071435416666446
                },
                {
                    "name": "E5",
                    "midi": 76,
                    "time": 49.714293999999974,
                    "velocity": 0.33858267716535434,
                    "duration": 0.4285714999999968
                },
                {
                    "name": "B4",
                    "midi": 71,
                    "time": 50.14286549999997,
                    "velocity": 0.2440944881889764,
                    "duration": 0.38571435000000065
                },
                {
                    "name": "F5",
                    "midi": 77,
                    "time": 50.14286549999997,
                    "velocity": 0.31496062992125984,
                    "duration": 0.38571435000000065
                },
                {
                    "name": "C5",
                    "midi": 72,
                    "time": 50.571436999999975,
                    "velocity": 0.2755905511811024,
                    "duration": 0.39285720833333215
                },
                {
                    "name": "E5",
                    "midi": 76,
                    "time": 50.571436999999975,
                    "velocity": 0.36220472440944884,
                    "duration": 0.39285720833333215
                },
                {
                    "name": "B3",
                    "midi": 59,
                    "time": 51.00000849999997,
                    "velocity": 0.2677165354330709,
                    "duration": 0.4285714999999968
                },
                {
                    "name": "D4",
                    "midi": 62,
                    "time": 51.00000849999997,
                    "velocity": 0.3700787401574803,
                    "duration": 0.4285714999999968
                },
                {
                    "name": "C4",
                    "midi": 60,
                    "time": 51.42857999999997,
                    "velocity": 0.2677165354330709,
                    "duration": 0.41071435416667157
                },
                {
                    "name": "E4",
                    "midi": 64,
                    "time": 51.42857999999997,
                    "velocity": 0.33858267716535434,
                    "duration": 0.4285715000000039
                },
                {
                    "name": "G4",
                    "midi": 67,
                    "time": 51.75000862499997,
                    "velocity": 0.29133858267716534,
                    "duration": 0.10714287500000097
                },
                {
                    "name": "B3",
                    "midi": 59,
                    "time": 51.85715149999997,
                    "velocity": 0.2440944881889764,
                    "duration": 0.38571435000000065
                },
                {
                    "name": "F4",
                    "midi": 65,
                    "time": 51.85715149999997,
                    "velocity": 0.31496062992125984,
                    "duration": 0.38571435000000065
                },
                {
                    "name": "C4",
                    "midi": 60,
                    "time": 52.285722999999976,
                    "velocity": 0.2755905511811024,
                    "duration": 0.39285720833333215
                },
                {
                    "name": "E4",
                    "midi": 64,
                    "time": 52.285722999999976,
                    "velocity": 0.36220472440944884,
                    "duration": 0.39285720833333215
                },
                {
                    "name": "D4",
                    "midi": 62,
                    "time": 52.71429449999997,
                    "velocity": 0.3543307086614173,
                    "duration": 0.4285714999999968
                },
                {
                    "name": "E4",
                    "midi": 64,
                    "time": 52.71429449999997,
                    "velocity": 0.41732283464566927,
                    "duration": 0.4285714999999968
                },
                {
                    "name": "D4",
                    "midi": 62,
                    "time": 53.14286599999997,
                    "velocity": 0.3543307086614173,
                    "duration": 0.4285714999999968
                },
                {
                    "name": "E4",
                    "midi": 64,
                    "time": 53.14286599999997,
                    "velocity": 0.3543307086614173,
                    "duration": 0.4285714999999968
                },
                {
                    "name": "F#4",
                    "midi": 66,
                    "time": 53.14286599999997,
                    "velocity": 0.41732283464566927,
                    "duration": 0.4285714999999968
                },
                {
                    "name": "G#4",
                    "midi": 68,
                    "time": 53.571437499999966,
                    "velocity": 0.47244094488188976,
                    "duration": 0.4285714999999968
                },
                {
                    "name": "D4",
                    "midi": 62,
                    "time": 53.571437499999966,
                    "velocity": 0.3779527559055118,
                    "duration": 0.4285714999999968
                },
                {
                    "name": "E4",
                    "midi": 64,
                    "time": 53.571437499999966,
                    "velocity": 0.3779527559055118,
                    "duration": 0.4285714999999968
                },
                {
                    "name": "A3",
                    "midi": 57,
                    "time": 54.00000899999996,
                    "velocity": 0.4409448818897638,
                    "duration": 0.4285714999999968
                },
                {
                    "name": "C#4",
                    "midi": 61,
                    "time": 54.00000899999996,
                    "velocity": 0.4409448818897638,
                    "duration": 0.4285714999999968
                },
                {
                    "name": "A4",
                    "midi": 69,
                    "time": 54.00000899999996,
                    "velocity": 0.5196850393700787,
                    "duration": 0.4285714999999968
                },
                {
                    "name": "D#4",
                    "midi": 63,
                    "time": 54.42858049999996,
                    "velocity": 0.4645669291338583,
                    "duration": 0.4285714999999968
                },
                {
                    "name": "B4",
                    "midi": 71,
                    "time": 54.42858049999996,
                    "velocity": 0.5511811023622047,
                    "duration": 0.4285714999999968
                },
                {
                    "name": "A4",
                    "midi": 69,
                    "time": 54.42858049999996,
                    "velocity": 0.4645669291338583,
                    "duration": 0.4285714999999968
                },
                {
                    "name": "E4",
                    "midi": 64,
                    "time": 54.85715199999996,
                    "velocity": 0.4881889763779528,
                    "duration": 0.8571430000000007
                },
                {
                    "name": "A4",
                    "midi": 69,
                    "time": 54.85715199999996,
                    "velocity": 0.4881889763779528,
                    "duration": 0.8571430000000007
                },
                {
                    "name": "C#5",
                    "midi": 73,
                    "time": 54.85715199999996,
                    "velocity": 0.5826771653543307,
                    "duration": 0.8571430000000007
                },
                {
                    "name": "D4",
                    "midi": 62,
                    "time": 55.71429499999996,
                    "velocity": 0.4881889763779528,
                    "duration": 0.8571430000000007
                },
                {
                    "name": "E4",
                    "midi": 64,
                    "time": 55.71429499999996,
                    "velocity": 0.4881889763779528,
                    "duration": 0.8571430000000007
                },
                {
                    "name": "G#4",
                    "midi": 68,
                    "time": 55.71429499999996,
                    "velocity": 0.4881889763779528,
                    "duration": 0.8571430000000007
                },
                {
                    "name": "C#5",
                    "midi": 73,
                    "time": 55.71429499999996,
                    "velocity": 0.5826771653543307,
                    "duration": 0.6428572499999987
                },
                {
                    "name": "B4",
                    "midi": 71,
                    "time": 56.357152249999956,
                    "velocity": 0.48031496062992124,
                    "duration": 0.21428575000000194
                },
                {
                    "name": "C#4",
                    "midi": 61,
                    "time": 56.57143799999996,
                    "velocity": 0.3464566929133858,
                    "duration": 1.2857144999999974
                },
                {
                    "name": "E4",
                    "midi": 64,
                    "time": 56.57143799999996,
                    "velocity": 0.3464566929133858,
                    "duration": 1.2857144999999974
                },
                {
                    "name": "A4",
                    "midi": 69,
                    "time": 56.57143799999996,
                    "velocity": 0.4094488188976378,
                    "duration": 1.2857144999999974
                },
                {
                    "name": "E4",
                    "midi": 64,
                    "time": 57.857152499999955,
                    "velocity": 0.3700787401574803,
                    "duration": 0.4285714999999968
                },
                {
                    "name": "C#4",
                    "midi": 61,
                    "time": 58.28572399999995,
                    "velocity": 0.4015748031496063,
                    "duration": 0.4285714999999968
                },
                {
                    "name": "A3",
                    "midi": 57,
                    "time": 58.71429549999995,
                    "velocity": 0.33858267716535434,
                    "duration": 0.3035714791666635
                },
                {
                    "name": "A3",
                    "midi": 57,
                    "time": 59.035724124999945,
                    "velocity": 0.29133858267716534,
                    "duration": 0.12321430624999863
                },
                {
                    "name": "E4",
                    "midi": 64,
                    "time": 59.142866999999946,
                    "velocity": 0.3858267716535433,
                    "duration": 1.2678573541666651
                },
                {
                    "name": "E4",
                    "midi": 64,
                    "time": 60.42858149999994,
                    "velocity": 0.4015748031496063,
                    "duration": 0.4285714999999968
                },
                {
                    "name": "C#4",
                    "midi": 61,
                    "time": 60.85715299999994,
                    "velocity": 0.4409448818897638,
                    "duration": 0.4285714999999968
                },
                {
                    "name": "A#3",
                    "midi": 58,
                    "time": 61.28572449999994,
                    "velocity": 0.3700787401574803,
                    "duration": 0.3035714791666635
                },
                {
                    "name": "A#3",
                    "midi": 58,
                    "time": 61.60715312499993,
                    "velocity": 0.31496062992125984,
                    "duration": 0.12321430624999863
                },
                {
                    "name": "E4",
                    "midi": 64,
                    "time": 61.71429599999993,
                    "velocity": 0.41732283464566927,
                    "duration": 1.2678573541666651
                },
                {
                    "name": "E4",
                    "midi": 64,
                    "time": 63.00001049999993,
                    "velocity": 0.4409448818897638,
                    "duration": 0.4285714999999968
                },
                {
                    "name": "D4",
                    "midi": 62,
                    "time": 63.42858199999993,
                    "velocity": 0.5118110236220472,
                    "duration": 0.4285714999999968
                },
                {
                    "name": "B3",
                    "midi": 59,
                    "time": 63.857153499999924,
                    "velocity": 0.4566929133858268,
                    "duration": 0.3035714791666635
                },
                {
                    "name": "B3",
                    "midi": 59,
                    "time": 64.17858212499992,
                    "velocity": 0.4094488188976378,
                    "duration": 0.12321430624999152
                },
                {
                    "name": "F#4",
                    "midi": 66,
                    "time": 64.28572499999991,
                    "velocity": 0.5433070866141733,
                    "duration": 0.38571435000000065
                },
                {
                    "name": "C#4",
                    "midi": 61,
                    "time": 64.71429649999992,
                    "velocity": 0.4409448818897638,
                    "duration": 0.38571435000000065
                },
                {
                    "name": "F#4",
                    "midi": 66,
                    "time": 64.71429649999992,
                    "velocity": 0.4409448818897638,
                    "duration": 0.38571435000000065
                },
                {
                    "name": "A#4",
                    "midi": 70,
                    "time": 64.71429649999992,
                    "velocity": 0.5275590551181102,
                    "duration": 0.38571435000000065
                },
                {
                    "name": "B3",
                    "midi": 59,
                    "time": 65.14286799999992,
                    "velocity": 0.4251968503937008,
                    "duration": 0.38571435000000065
                },
                {
                    "name": "F#4",
                    "midi": 66,
                    "time": 65.14286799999992,
                    "velocity": 0.4251968503937008,
                    "duration": 0.38571435000000065
                },
                {
                    "name": "B4",
                    "midi": 71,
                    "time": 65.14286799999992,
                    "velocity": 0.5039370078740157,
                    "duration": 0.38571435000000065
                },
                {
                    "name": "C#4",
                    "midi": 61,
                    "time": 65.57143949999993,
                    "velocity": 0.4015748031496063,
                    "duration": 0.38571435000000065
                },
                {
                    "name": "F#4",
                    "midi": 66,
                    "time": 65.57143949999993,
                    "velocity": 0.4015748031496063,
                    "duration": 0.38571435000000065
                },
                {
                    "name": "C#5",
                    "midi": 73,
                    "time": 65.57143949999993,
                    "velocity": 0.48031496062992124,
                    "duration": 0.38571435000000065
                },
                {
                    "name": "D4",
                    "midi": 62,
                    "time": 66.00001099999993,
                    "velocity": 0.3858267716535433,
                    "duration": 0.38571435000000065
                },
                {
                    "name": "F#4",
                    "midi": 66,
                    "time": 66.00001099999993,
                    "velocity": 0.3858267716535433,
                    "duration": 0.38571435000000065
                },
                {
                    "name": "D5",
                    "midi": 74,
                    "time": 66.00001099999993,
                    "velocity": 0.4566929133858268,
                    "duration": 0.38571435000000065
                },
                {
                    "name": "B4",
                    "midi": 71,
                    "time": 66.42858249999993,
                    "velocity": 0.44881889763779526,
                    "duration": 0.38571435000000065
                },
                {
                    "name": "D5",
                    "midi": 74,
                    "time": 66.42858249999993,
                    "velocity": 0.44881889763779526,
                    "duration": 0.38571435000000065
                },
                {
                    "name": "B5",
                    "midi": 83,
                    "time": 66.42858249999993,
                    "velocity": 0.5433070866141733,
                    "duration": 0.38571435000000065
                },
                {
                    "name": "B4",
                    "midi": 71,
                    "time": 66.85715399999994,
                    "velocity": 0.41732283464566927,
                    "duration": 1.2857144999999974
                },
                {
                    "name": "D5",
                    "midi": 74,
                    "time": 66.85715399999994,
                    "velocity": 0.41732283464566927,
                    "duration": 1.2857144999999974
                },
                {
                    "name": "A5",
                    "midi": 81,
                    "time": 66.85715399999994,
                    "velocity": 0.49606299212598426,
                    "duration": 0.8571429999999935
                },
                {
                    "name": "G#5",
                    "midi": 80,
                    "time": 67.71429699999993,
                    "velocity": 0.4330708661417323,
                    "duration": 0.4285715000000039
                },
                {
                    "name": "E4",
                    "midi": 64,
                    "time": 68.14286849999993,
                    "velocity": 0.3700787401574803,
                    "duration": 0.4285715000000039
                },
                {
                    "name": "B3",
                    "midi": 59,
                    "time": 68.57143999999994,
                    "velocity": 0.4015748031496063,
                    "duration": 0.4285715000000039
                },
                {
                    "name": "G#3",
                    "midi": 56,
                    "time": 69.00001149999994,
                    "velocity": 0.33858267716535434,
                    "duration": 0.3035714791666635
                },
                {
                    "name": "G#3",
                    "midi": 56,
                    "time": 69.32144012499994,
                    "velocity": 0.29133858267716534,
                    "duration": 0.12321430624999152
                },
                {
                    "name": "E4",
                    "midi": 64,
                    "time": 69.42858299999993,
                    "velocity": 0.3858267716535433,
                    "duration": 1.2678573541666651
                },
                {
                    "name": "E4",
                    "midi": 64,
                    "time": 70.71429749999993,
                    "velocity": 0.4015748031496063,
                    "duration": 0.4285715000000039
                },
                {
                    "name": "C4",
                    "midi": 60,
                    "time": 71.14286899999993,
                    "velocity": 0.4409448818897638,
                    "duration": 0.4285715000000039
                },
                {
                    "name": "A3",
                    "midi": 57,
                    "time": 71.57144049999994,
                    "velocity": 0.3700787401574803,
                    "duration": 0.3035714791666635
                },
                {
                    "name": "A3",
                    "midi": 57,
                    "time": 71.89286912499993,
                    "velocity": 0.31496062992125984,
                    "duration": 0.12321430624999152
                },
                {
                    "name": "E4",
                    "midi": 64,
                    "time": 72.00001199999993,
                    "velocity": 0.41732283464566927,
                    "duration": 1.2678573541666651
                },
                {
                    "name": "E4",
                    "midi": 64,
                    "time": 73.28572649999992,
                    "velocity": 0.4409448818897638,
                    "duration": 0.4285715000000039
                },
                {
                    "name": "C#4",
                    "midi": 61,
                    "time": 73.71429799999993,
                    "velocity": 0.5118110236220472,
                    "duration": 0.4285715000000039
                },
                {
                    "name": "A#3",
                    "midi": 58,
                    "time": 74.14286949999993,
                    "velocity": 0.4566929133858268,
                    "duration": 0.3035714791666635
                },
                {
                    "name": "A#3",
                    "midi": 58,
                    "time": 74.46429812499993,
                    "velocity": 0.4094488188976378,
                    "duration": 0.12321430624999152
                },
                {
                    "name": "F4",
                    "midi": 65,
                    "time": 74.57144099999992,
                    "velocity": 0.5433070866141733,
                    "duration": 0.38571435000000065
                },
                {
                    "name": "C4",
                    "midi": 60,
                    "time": 75.00001249999993,
                    "velocity": 0.4409448818897638,
                    "duration": 0.38571435000000065
                },
                {
                    "name": "F4",
                    "midi": 65,
                    "time": 75.00001249999993,
                    "velocity": 0.4409448818897638,
                    "duration": 0.38571435000000065
                },
                {
                    "name": "A4",
                    "midi": 69,
                    "time": 75.00001249999993,
                    "velocity": 0.5275590551181102,
                    "duration": 0.38571435000000065
                },
                {
                    "name": "A#3",
                    "midi": 58,
                    "time": 75.42858399999993,
                    "velocity": 0.4251968503937008,
                    "duration": 0.38571435000000065
                },
                {
                    "name": "F4",
                    "midi": 65,
                    "time": 75.42858399999993,
                    "velocity": 0.4251968503937008,
                    "duration": 0.38571435000000065
                },
                {
                    "name": "A#4",
                    "midi": 70,
                    "time": 75.42858399999993,
                    "velocity": 0.5039370078740157,
                    "duration": 0.38571435000000065
                },
                {
                    "name": "C4",
                    "midi": 60,
                    "time": 75.85715549999993,
                    "velocity": 0.4015748031496063,
                    "duration": 0.38571435000000065
                },
                {
                    "name": "F4",
                    "midi": 65,
                    "time": 75.85715549999993,
                    "velocity": 0.4015748031496063,
                    "duration": 0.38571435000000065
                },
                {
                    "name": "C5",
                    "midi": 72,
                    "time": 75.85715549999993,
                    "velocity": 0.48031496062992124,
                    "duration": 0.38571435000000065
                },
                {
                    "name": "D4",
                    "midi": 62,
                    "time": 76.28572699999994,
                    "velocity": 0.3858267716535433,
                    "duration": 0.38571435000000065
                },
                {
                    "name": "F4",
                    "midi": 65,
                    "time": 76.28572699999994,
                    "velocity": 0.3858267716535433,
                    "duration": 0.38571435000000065
                },
                {
                    "name": "D5",
                    "midi": 74,
                    "time": 76.28572699999994,
                    "velocity": 0.4566929133858268,
                    "duration": 0.38571435000000065
                },
                {
                    "name": "F4",
                    "midi": 65,
                    "time": 76.71429849999994,
                    "velocity": 0.44881889763779526,
                    "duration": 0.38571435000000065
                },
                {
                    "name": "A4",
                    "midi": 69,
                    "time": 76.71429849999994,
                    "velocity": 0.44881889763779526,
                    "duration": 0.38571435000000065
                },
                {
                    "name": "F5",
                    "midi": 77,
                    "time": 76.71429849999994,
                    "velocity": 0.5354330708661418,
                    "duration": 0.21428575000000194
                },
                {
                    "name": "D#5",
                    "midi": 75,
                    "time": 76.92858424999994,
                    "velocity": 0.5118110236220472,
                    "duration": 0.19642860416666963
                },
                {
                    "name": "F4",
                    "midi": 65,
                    "time": 77.14286999999995,
                    "velocity": 0.41732283464566927,
                    "duration": 1.2857144999999974
                },
                {
                    "name": "A4",
                    "midi": 69,
                    "time": 77.14286999999995,
                    "velocity": 0.41732283464566927,
                    "duration": 0.8571429999999935
                },
                {
                    "name": "D#5",
                    "midi": 75,
                    "time": 77.14286999999995,
                    "velocity": 0.49606299212598426,
                    "duration": 0.8571429999999935
                },
                {
                    "name": "A#4",
                    "midi": 70,
                    "time": 78.00001299999994,
                    "velocity": 0.4094488188976378,
                    "duration": 0.39285720833333926
                },
                {
                    "name": "D5",
                    "midi": 74,
                    "time": 78.00001299999994,
                    "velocity": 0.4330708661417323,
                    "duration": 0.39285720833333926
                },
                {
                    "name": "F4",
                    "midi": 65,
                    "time": 78.42858449999994,
                    "velocity": 0.5118110236220472,
                    "duration": 0.40714292500000226
                },
                {
                    "name": "D5",
                    "midi": 74,
                    "time": 78.42858449999994,
                    "velocity": 0.5118110236220472,
                    "duration": 0.40714292500000226
                },
                {
                    "name": "F5",
                    "midi": 77,
                    "time": 78.42858449999994,
                    "velocity": 0.6141732283464567,
                    "duration": 0.40714292500000226
                },
                {
                    "name": "A#4",
                    "midi": 70,
                    "time": 78.85715599999995,
                    "velocity": 0.5669291338582677,
                    "duration": 0.40714292500000226
                },
                {
                    "name": "F5",
                    "midi": 77,
                    "time": 78.85715599999995,
                    "velocity": 0.5669291338582677,
                    "duration": 0.40714292500000226
                },
                {
                    "name": "A#5",
                    "midi": 82,
                    "time": 78.85715599999995,
                    "velocity": 0.6771653543307087,
                    "duration": 0.40714292500000226
                },
                {
                    "name": "C6",
                    "midi": 84,
                    "time": 79.28572749999995,
                    "velocity": 0.6929133858267716,
                    "duration": 0.38571435000000065
                },
                {
                    "name": "F5",
                    "midi": 77,
                    "time": 79.28572749999995,
                    "velocity": 0.5826771653543307,
                    "duration": 0.38571435000000065
                },
                {
                    "name": "C5",
                    "midi": 72,
                    "time": 79.28572749999995,
                    "velocity": 0.5826771653543307,
                    "duration": 0.38571435000000065
                },
                {
                    "name": "D5",
                    "midi": 74,
                    "time": 79.71429899999995,
                    "velocity": 0.6141732283464567,
                    "duration": 1.2678573541666651
                },
                {
                    "name": "F5",
                    "midi": 77,
                    "time": 79.71429899999995,
                    "velocity": 0.6141732283464567,
                    "duration": 1.2678573541666651
                },
                {
                    "name": "D6",
                    "midi": 86,
                    "time": 79.71429899999995,
                    "velocity": 0.7244094488188977,
                    "duration": 1.2678573541666651
                },
                {
                    "name": "A#4",
                    "midi": 70,
                    "time": 81.00001349999995,
                    "velocity": 0.4409448818897638,
                    "duration": 0.8571430000000078
                },
                {
                    "name": "D5",
                    "midi": 74,
                    "time": 81.00001349999995,
                    "velocity": 0.4409448818897638,
                    "duration": 0.8571430000000078
                },
                {
                    "name": "A#5",
                    "midi": 82,
                    "time": 81.00001349999995,
                    "velocity": 0.6141732283464567,
                    "duration": 0.4285715000000039
                },
                {
                    "name": "F5",
                    "midi": 77,
                    "time": 81.42858499999996,
                    "velocity": 0.5433070866141733,
                    "duration": 0.4285715000000039
                },
                {
                    "name": "A4",
                    "midi": 69,
                    "time": 81.85715649999996,
                    "velocity": 0.3858267716535433,
                    "duration": 0.4285715000000039
                },
                {
                    "name": "C5",
                    "midi": 72,
                    "time": 81.85715649999996,
                    "velocity": 0.3858267716535433,
                    "duration": 0.38571435000000065
                },
                {
                    "name": "D#5",
                    "midi": 75,
                    "time": 81.85715649999996,
                    "velocity": 0.5039370078740157,
                    "duration": 0.38571435000000065
                },
                {
                    "name": "A#4",
                    "midi": 70,
                    "time": 82.28572799999996,
                    "velocity": 0.3779527559055118,
                    "duration": 1.2678573541666651
                },
                {
                    "name": "D5",
                    "midi": 74,
                    "time": 82.28572799999996,
                    "velocity": 0.49606299212598426,
                    "duration": 1.2678573541666651
                },
                {
                    "name": "D#4",
                    "midi": 63,
                    "time": 83.57144249999996,
                    "velocity": 0.31496062992125984,
                    "duration": 0.4285715000000039
                },
                {
                    "name": "F4",
                    "midi": 65,
                    "time": 83.57144249999996,
                    "velocity": 0.31496062992125984,
                    "duration": 0.8392858541666754
                },
                {
                    "name": "C5",
                    "midi": 72,
                    "time": 83.57144249999996,
                    "velocity": 0.4409448818897638,
                    "duration": 0.4285715000000039
                },
                {
                    "name": "D4",
                    "midi": 62,
                    "time": 84.00001399999996,
                    "velocity": 0.31496062992125984,
                    "duration": 0.41071435416667157
                },
                {
                    "name": "A#4",
                    "midi": 70,
                    "time": 84.00001399999996,
                    "velocity": 0.4015748031496063,
                    "duration": 0.4285715000000039
                },
                {
                    "name": "A3",
                    "midi": 57,
                    "time": 84.42858549999997,
                    "velocity": 0.2677165354330709,
                    "duration": 0.38571435000000065
                },
                {
                    "name": "F4",
                    "midi": 65,
                    "time": 84.42858549999997,
                    "velocity": 0.3779527559055118,
                    "duration": 0.38571435000000065
                },
                {
                    "name": "A#3",
                    "midi": 58,
                    "time": 84.85715699999997,
                    "velocity": 0.29133858267716534,
                    "duration": 1.2678573541666651
                },
                {
                    "name": "D4",
                    "midi": 62,
                    "time": 84.85715699999997,
                    "velocity": 0.3858267716535433,
                    "duration": 1.2678573541666651
                },
                {
                    "name": "A3",
                    "midi": 57,
                    "time": 86.14287149999997,
                    "velocity": 0.2677165354330709,
                    "duration": 0.4285715000000039
                },
                {
                    "name": "C4",
                    "midi": 60,
                    "time": 86.14287149999997,
                    "velocity": 0.3700787401574803,
                    "duration": 0.4285715000000039
                },
                {
                    "name": "A#3",
                    "midi": 58,
                    "time": 86.57144299999997,
                    "velocity": 0.2677165354330709,
                    "duration": 0.41071435416667157
                },
                {
                    "name": "D4",
                    "midi": 62,
                    "time": 86.57144299999997,
                    "velocity": 0.33858267716535434,
                    "duration": 0.4285715000000039
                },
                {
                    "name": "A3",
                    "midi": 57,
                    "time": 87.00001449999998,
                    "velocity": 0.2440944881889764,
                    "duration": 0.38571435000000065
                },
                {
                    "name": "D#4",
                    "midi": 63,
                    "time": 87.00001449999998,
                    "velocity": 0.31496062992125984,
                    "duration": 0.38571435000000065
                },
                {
                    "name": "A#3",
                    "midi": 58,
                    "time": 87.42858599999998,
                    "velocity": 0.2755905511811024,
                    "duration": 0.39285720833333926
                },
                {
                    "name": "D4",
                    "midi": 62,
                    "time": 87.42858599999998,
                    "velocity": 0.36220472440944884,
                    "duration": 0.39285720833333926
                },
                {
                    "name": "A4",
                    "midi": 69,
                    "time": 87.85715749999999,
                    "velocity": 0.2677165354330709,
                    "duration": 0.4285715000000039
                },
                {
                    "name": "C5",
                    "midi": 72,
                    "time": 87.85715749999999,
                    "velocity": 0.3700787401574803,
                    "duration": 0.4285715000000039
                },
                {
                    "name": "A#4",
                    "midi": 70,
                    "time": 88.28572899999999,
                    "velocity": 0.2677165354330709,
                    "duration": 0.41071435416667157
                },
                {
                    "name": "D5",
                    "midi": 74,
                    "time": 88.28572899999999,
                    "velocity": 0.33858267716535434,
                    "duration": 0.4285715000000039
                },
                {
                    "name": "A4",
                    "midi": 69,
                    "time": 88.7143005,
                    "velocity": 0.2440944881889764,
                    "duration": 0.38571435000000065
                },
                {
                    "name": "D#5",
                    "midi": 75,
                    "time": 88.7143005,
                    "velocity": 0.31496062992125984,
                    "duration": 0.38571435000000065
                },
                {
                    "name": "A#4",
                    "midi": 70,
                    "time": 89.142872,
                    "velocity": 0.2755905511811024,
                    "duration": 0.39285720833333926
                },
                {
                    "name": "D5",
                    "midi": 74,
                    "time": 89.142872,
                    "velocity": 0.36220472440944884,
                    "duration": 0.39285720833333926
                },
                {
                    "name": "A3",
                    "midi": 57,
                    "time": 89.5714435,
                    "velocity": 0.4015748031496063,
                    "duration": 0.38571435000000065
                },
                {
                    "name": "C4",
                    "midi": 60,
                    "time": 89.5714435,
                    "velocity": 0.48031496062992124,
                    "duration": 0.38571435000000065
                },
                {
                    "name": "A#3",
                    "midi": 58,
                    "time": 90.000015,
                    "velocity": 0.3858267716535433,
                    "duration": 0.38571435000000065
                },
                {
                    "name": "D4",
                    "midi": 62,
                    "time": 90.000015,
                    "velocity": 0.4566929133858268,
                    "duration": 0.38571435000000065
                },
                {
                    "name": "A3",
                    "midi": 57,
                    "time": 90.42858650000001,
                    "velocity": 0.44881889763779526,
                    "duration": 0.38571435000000065
                },
                {
                    "name": "F4",
                    "midi": 65,
                    "time": 90.42858650000001,
                    "velocity": 0.5354330708661418,
                    "duration": 0.21428575000000194
                },
                {
                    "name": "D#4",
                    "midi": 63,
                    "time": 90.64287225000001,
                    "velocity": 0.5118110236220472,
                    "duration": 0.21428575000000194
                },
                {
                    "name": "A#3",
                    "midi": 58,
                    "time": 90.85715800000001,
                    "velocity": 0.41732283464566927,
                    "duration": 0.41071435416667157
                },
                {
                    "name": "D4",
                    "midi": 62,
                    "time": 90.85715800000001,
                    "velocity": 0.49606299212598426,
                    "duration": 0.41071435416667157
                },
                {
                    "name": "F3",
                    "midi": 53,
                    "time": 91.28572950000002,
                    "velocity": 0.4094488188976378,
                    "duration": 0.38571435000000065
                },
                {
                    "name": "G#3",
                    "midi": 56,
                    "time": 91.28572950000002,
                    "velocity": 0.4094488188976378,
                    "duration": 0.38571435000000065
                },
                {
                    "name": "D4",
                    "midi": 62,
                    "time": 91.28572950000002,
                    "velocity": 0.4881889763779528,
                    "duration": 0.38571435000000065
                },
                {
                    "name": "F3",
                    "midi": 53,
                    "time": 91.71430100000002,
                    "velocity": 0.4409448818897638,
                    "duration": 0.38571435000000065
                },
                {
                    "name": "A3",
                    "midi": 57,
                    "time": 91.71430100000002,
                    "velocity": 0.4409448818897638,
                    "duration": 0.38571435000000065
                },
                {
                    "name": "D4",
                    "midi": 62,
                    "time": 91.71430100000002,
                    "velocity": 0.5196850393700787,
                    "duration": 0.38571435000000065
                },
                {
                    "name": "D4",
                    "midi": 62,
                    "time": 92.14287250000002,
                    "velocity": 0.5433070866141733,
                    "duration": 0.38571435000000065
                },
                {
                    "name": "E3",
                    "midi": 52,
                    "time": 92.14287250000002,
                    "velocity": 0.4566929133858268,
                    "duration": 0.38571435000000065
                },
                {
                    "name": "B3",
                    "midi": 59,
                    "time": 92.14287250000002,
                    "velocity": 0.4566929133858268,
                    "duration": 0.38571435000000065
                },
                {
                    "name": "D4",
                    "midi": 62,
                    "time": 92.57144400000003,
                    "velocity": 0.5196850393700787,
                    "duration": 0.21428575000000194
                },
                {
                    "name": "E3",
                    "midi": 52,
                    "time": 92.57144400000003,
                    "velocity": 0.4409448818897638,
                    "duration": 0.4285715000000039
                },
                {
                    "name": "A3",
                    "midi": 57,
                    "time": 92.57144400000003,
                    "velocity": 0.4409448818897638,
                    "duration": 0.4285715000000039
                },
                {
                    "name": "C#4",
                    "midi": 61,
                    "time": 92.78572975000003,
                    "velocity": 0.5039370078740157,
                    "duration": 0.21428575000000194
                },
                {
                    "name": "F#3",
                    "midi": 54,
                    "time": 93.00001550000003,
                    "velocity": 0.4645669291338583,
                    "duration": 0.21428575000000194
                },
                {
                    "name": "B3",
                    "midi": 59,
                    "time": 93.00001550000003,
                    "velocity": 0.5511811023622047,
                    "duration": 0.21428575000000194
                },
                {
                    "name": "F#4",
                    "midi": 66,
                    "time": 93.21430125000003,
                    "velocity": 0.5354330708661418,
                    "duration": 0.21428575000000194
                },
                {
                    "name": "E3",
                    "midi": 52,
                    "time": 93.42858700000004,
                    "velocity": 0.4881889763779528,
                    "duration": 0.8571429999999935
                },
                {
                    "name": "A3",
                    "midi": 57,
                    "time": 93.42858700000004,
                    "velocity": 0.4881889763779528,
                    "duration": 0.8571429999999935
                },
                {
                    "name": "C#4",
                    "midi": 61,
                    "time": 93.42858700000004,
                    "velocity": 0.5826771653543307,
                    "duration": 0.8571429999999935
                },
                {
                    "name": "G#3",
                    "midi": 56,
                    "time": 94.28573000000003,
                    "velocity": 0.44881889763779526,
                    "duration": 0.8571429999999935
                },
                {
                    "name": "C#4",
                    "midi": 61,
                    "time": 94.28573000000003,
                    "velocity": 0.5354330708661418,
                    "duration": 0.4285715000000039
                },
                {
                    "name": "B3",
                    "midi": 59,
                    "time": 94.71430150000003,
                    "velocity": 0.48031496062992124,
                    "duration": 0.3214286249999958
                },
                {
                    "name": "A3",
                    "midi": 57,
                    "time": 95.03573012500003,
                    "velocity": 0.44881889763779526,
                    "duration": 0.10714287499999386
                },
                {
                    "name": "C#3",
                    "midi": 49,
                    "time": 95.14287300000002,
                    "velocity": 0.3464566929133858,
                    "duration": 0.8571430000000078
                },
                {
                    "name": "A3",
                    "midi": 57,
                    "time": 95.14287300000002,
                    "velocity": 0.4094488188976378,
                    "duration": 0.6428572500000058
                },
                {
                    "name": "C#4",
                    "midi": 61,
                    "time": 95.78573025000003,
                    "velocity": 0.4015748031496063,
                    "duration": 0.21428575000000194
                },
                {
                    "name": "E4",
                    "midi": 64,
                    "time": 96.00001600000003,
                    "velocity": 0.4566929133858268,
                    "duration": 0.21428575000000194
                },
                {
                    "name": "A4",
                    "midi": 69,
                    "time": 96.21430175000003,
                    "velocity": 0.4015748031496063,
                    "duration": 0.21428575000000194
                },
                {
                    "name": "C#5",
                    "midi": 73,
                    "time": 96.42858750000003,
                    "velocity": 0.4409448818897638,
                    "duration": 0.21428575000000194
                },
                {
                    "name": "E5",
                    "midi": 76,
                    "time": 96.64287325000004,
                    "velocity": 0.4094488188976378,
                    "duration": 0.21428575000000194
                },
                {
                    "name": "D5",
                    "midi": 74,
                    "time": 96.85715900000004,
                    "velocity": 0.4015748031496063,
                    "duration": 0.38571435000000065
                },
                {
                    "name": "F#5",
                    "midi": 78,
                    "time": 96.85715900000004,
                    "velocity": 0.47244094488188976,
                    "duration": 0.38571435000000065
                },
                {
                    "name": "C5",
                    "midi": 72,
                    "time": 97.28573050000004,
                    "velocity": 0.3543307086614173,
                    "duration": 0.38571435000000065
                },
                {
                    "name": "D#5",
                    "midi": 75,
                    "time": 97.28573050000004,
                    "velocity": 0.4251968503937008,
                    "duration": 0.38571435000000065
                },
                {
                    "name": "C#5",
                    "midi": 73,
                    "time": 97.71430200000005,
                    "velocity": 0.3700787401574803,
                    "duration": 1.2857144999999974
                },
                {
                    "name": "E5",
                    "midi": 76,
                    "time": 97.71430200000005,
                    "velocity": 0.4409448818897638,
                    "duration": 1.2857144999999974
                },
                {
                    "name": "C#5",
                    "midi": 73,
                    "time": 99.00001650000004,
                    "velocity": 0.3937007874015748,
                    "duration": 0.8571430000000078
                },
                {
                    "name": "E5",
                    "midi": 76,
                    "time": 99.00001650000004,
                    "velocity": 0.3937007874015748,
                    "duration": 0.8571430000000078
                },
                {
                    "name": "A5",
                    "midi": 81,
                    "time": 99.00001650000004,
                    "velocity": 0.5196850393700787,
                    "duration": 0.4285715000000039
                },
                {
                    "name": "B5",
                    "midi": 83,
                    "time": 99.42858800000005,
                    "velocity": 0.5354330708661418,
                    "duration": 0.4285715000000039
                },
                {
                    "name": "C#5",
                    "midi": 73,
                    "time": 99.85715950000005,
                    "velocity": 0.4409448818897638,
                    "duration": 0.38571435000000065
                },
                {
                    "name": "F5",
                    "midi": 77,
                    "time": 99.85715950000005,
                    "velocity": 0.4409448818897638,
                    "duration": 0.38571435000000065
                },
                {
                    "name": "C#6",
                    "midi": 85,
                    "time": 99.85715950000005,
                    "velocity": 0.5748031496062992,
                    "duration": 0.38571435000000065
                },
                {
                    "name": "D5",
                    "midi": 74,
                    "time": 100.28573100000006,
                    "velocity": 0.3543307086614173,
                    "duration": 1.2857144999999974
                },
                {
                    "name": "F#5",
                    "midi": 78,
                    "time": 100.28573100000006,
                    "velocity": 0.4251968503937008,
                    "duration": 1.2857144999999974
                },
                {
                    "name": "C#6",
                    "midi": 85,
                    "time": 100.28573100000006,
                    "velocity": 0.5590551181102362,
                    "duration": 0.8571429999999935
                },
                {
                    "name": "B5",
                    "midi": 83,
                    "time": 101.14287400000005,
                    "velocity": 0.4094488188976378,
                    "duration": 0.4285715000000039
                },
                {
                    "name": "D4",
                    "midi": 62,
                    "time": 101.57144550000005,
                    "velocity": 0.31496062992125984,
                    "duration": 0.8571430000000078
                },
                {
                    "name": "A4",
                    "midi": 69,
                    "time": 101.57144550000005,
                    "velocity": 0.4409448818897638,
                    "duration": 0.4285715000000039
                },
                {
                    "name": "G#4",
                    "midi": 68,
                    "time": 102.00001700000006,
                    "velocity": 0.4015748031496063,
                    "duration": 0.4285715000000039
                },
                {
                    "name": "D4",
                    "midi": 62,
                    "time": 102.42858850000006,
                    "velocity": 0.29133858267716534,
                    "duration": 0.38571435000000065
                },
                {
                    "name": "F#4",
                    "midi": 66,
                    "time": 102.42858850000006,
                    "velocity": 0.3779527559055118,
                    "duration": 0.38571435000000065
                },
                {
                    "name": "D4",
                    "midi": 62,
                    "time": 102.85716000000006,
                    "velocity": 0.33070866141732286,
                    "duration": 1.2678573541666651
                },
                {
                    "name": "E4",
                    "midi": 64,
                    "time": 102.85716000000006,
                    "velocity": 0.3937007874015748,
                    "duration": 1.2678573541666651
                },
                {
                    "name": "D5",
                    "midi": 74,
                    "time": 104.14287450000006,
                    "velocity": 0.3779527559055118,
                    "duration": 0.21428575000000194
                },
                {
                    "name": "E5",
                    "midi": 76,
                    "time": 104.14287450000006,
                    "velocity": 0.44881889763779526,
                    "duration": 0.19642860416666963
                },
                {
                    "name": "E5",
                    "midi": 76,
                    "time": 104.35716025000006,
                    "velocity": 0.36220472440944884,
                    "duration": 0.07142858333332924
                },
                {
                    "name": "F#5",
                    "midi": 78,
                    "time": 104.4285888333334,
                    "velocity": 0.36220472440944884,
                    "duration": 0.07142858333332924
                },
                {
                    "name": "G#5",
                    "midi": 80,
                    "time": 104.50001741666672,
                    "velocity": 0.36220472440944884,
                    "duration": 0.07142858333332924
                },
                {
                    "name": "D5",
                    "midi": 74,
                    "time": 104.57144600000005,
                    "velocity": 0.3779527559055118,
                    "duration": 0.38571435000000065
                },
                {
                    "name": "F#5",
                    "midi": 78,
                    "time": 104.57144600000005,
                    "velocity": 0.44881889763779526,
                    "duration": 0.38571435000000065
                },
                {
                    "name": "D5",
                    "midi": 74,
                    "time": 105.00001750000006,
                    "velocity": 0.31496062992125984,
                    "duration": 0.38571435000000065
                },
                {
                    "name": "E5",
                    "midi": 76,
                    "time": 105.00001750000006,
                    "velocity": 0.3779527559055118,
                    "duration": 0.38571435000000065
                },
                {
                    "name": "D5",
                    "midi": 74,
                    "time": 105.42858900000006,
                    "velocity": 0.3779527559055118,
                    "duration": 0.8571429999999935
                },
                {
                    "name": "F#5",
                    "midi": 78,
                    "time": 105.42858900000006,
                    "velocity": 0.44881889763779526,
                    "duration": 0.8571429999999935
                },
                {
                    "name": "C#5",
                    "midi": 73,
                    "time": 106.28573200000005,
                    "velocity": 0.33070866141732286,
                    "duration": 0.41071435416667157
                },
                {
                    "name": "E5",
                    "midi": 76,
                    "time": 106.28573200000005,
                    "velocity": 0.3937007874015748,
                    "duration": 0.41071435416667157
                },
                {
                    "name": "B3",
                    "midi": 59,
                    "time": 106.71430350000006,
                    "velocity": 0.49606299212598426,
                    "duration": 0.4285715000000039
                },
                {
                    "name": "C#4",
                    "midi": 61,
                    "time": 106.71430350000006,
                    "velocity": 0.5905511811023622,
                    "duration": 0.41071435416667157
                },
                {
                    "name": "A3",
                    "midi": 57,
                    "time": 107.14287500000006,
                    "velocity": 0.5354330708661418,
                    "duration": 0.4285715000000039
                },
                {
                    "name": "C#4",
                    "midi": 61,
                    "time": 107.14287500000006,
                    "velocity": 0.5354330708661418,
                    "duration": 0.38571435000000065
                },
                {
                    "name": "F#4",
                    "midi": 66,
                    "time": 107.14287500000006,
                    "velocity": 0.6377952755905512,
                    "duration": 0.38571435000000065
                },
                {
                    "name": "B3",
                    "midi": 59,
                    "time": 107.57144650000006,
                    "velocity": 0.48031496062992124,
                    "duration": 0.4285715000000039
                },
                {
                    "name": "C#4",
                    "midi": 61,
                    "time": 107.57144650000006,
                    "velocity": 0.48031496062992124,
                    "duration": 0.38571435000000065
                },
                {
                    "name": "F4",
                    "midi": 65,
                    "time": 107.57144650000006,
                    "velocity": 0.5669291338582677,
                    "duration": 0.38571435000000065
                },
                {
                    "name": "A3",
                    "midi": 57,
                    "time": 108.00001800000007,
                    "velocity": 0.5196850393700787,
                    "duration": 1.2857144999999974
                },
                {
                    "name": "D4",
                    "midi": 62,
                    "time": 108.00001800000007,
                    "velocity": 0.5196850393700787,
                    "duration": 1.2678573541666651
                },
                {
                    "name": "F#4",
                    "midi": 66,
                    "time": 108.00001800000007,
                    "velocity": 0.6141732283464567,
                    "duration": 1.2678573541666651
                },
                {
                    "name": "A4",
                    "midi": 69,
                    "time": 109.28573250000007,
                    "velocity": 0.4330708661417323,
                    "duration": 0.4285715000000039
                },
                {
                    "name": "G4",
                    "midi": 67,
                    "time": 109.71430400000007,
                    "velocity": 0.49606299212598426,
                    "duration": 0.4285715000000039
                },
                {
                    "name": "B4",
                    "midi": 71,
                    "time": 109.71430400000007,
                    "velocity": 0.49606299212598426,
                    "duration": 0.4285715000000039
                },
                {
                    "name": "G4",
                    "midi": 67,
                    "time": 110.14287550000007,
                    "velocity": 0.4409448818897638,
                    "duration": 0.38571435000000065
                },
                {
                    "name": "A4",
                    "midi": 69,
                    "time": 110.14287550000007,
                    "velocity": 0.4409448818897638,
                    "duration": 0.38571435000000065
                },
                {
                    "name": "C#5",
                    "midi": 73,
                    "time": 110.14287550000007,
                    "velocity": 0.4409448818897638,
                    "duration": 0.38571435000000065
                },
                {
                    "name": "C#5",
                    "midi": 73,
                    "time": 110.57144700000008,
                    "velocity": 0.4566929133858268,
                    "duration": 2.571428999999995
                },
                {
                    "name": "G4",
                    "midi": 67,
                    "time": 110.57144700000008,
                    "velocity": 0.4566929133858268,
                    "duration": 3.0000004999999987
                },
                {
                    "name": "A#4",
                    "midi": 70,
                    "time": 110.57144700000008,
                    "velocity": 0.4566929133858268,
                    "duration": 2.571428999999995
                },
                {
                    "name": "E5",
                    "midi": 76,
                    "time": 110.57144700000008,
                    "velocity": 0.5433070866141733,
                    "duration": 2.571428999999995
                },
                {
                    "name": "B4",
                    "midi": 71,
                    "time": 113.14287600000007,
                    "velocity": 0.3700787401574803,
                    "duration": 0.4285715000000039
                },
                {
                    "name": "D5",
                    "midi": 74,
                    "time": 113.14287600000007,
                    "velocity": 0.4409448818897638,
                    "duration": 0.4285715000000039
                },
                {
                    "name": "D4",
                    "midi": 62,
                    "time": 115.71430500000008,
                    "velocity": 0.28346456692913385,
                    "duration": 3.0000004999999845
                },
                {
                    "name": "F#4",
                    "midi": 66,
                    "time": 115.71430500000008,
                    "velocity": 0.28346456692913385,
                    "duration": 2.5714289999999806
                },
                {
                    "name": "C5",
                    "midi": 72,
                    "time": 115.71430500000008,
                    "velocity": 0.4409448818897638,
                    "duration": 1.2857144999999974
                },
                {
                    "name": "D5",
                    "midi": 74,
                    "time": 117.00001950000008,
                    "velocity": 0.3543307086614173,
                    "duration": 0.10714287499999386
                },
                {
                    "name": "C5",
                    "midi": 72,
                    "time": 117.10716237500007,
                    "velocity": 0.33070866141732286,
                    "duration": 0.10714287499999386
                },
                {
                    "name": "B4",
                    "midi": 71,
                    "time": 117.21430525000007,
                    "velocity": 0.3543307086614173,
                    "duration": 0.10714287499999386
                },
                {
                    "name": "C5",
                    "midi": 72,
                    "time": 117.32144812500006,
                    "velocity": 0.33070866141732286,
                    "duration": 0.10714287499999386
                },
                {
                    "name": "B4",
                    "midi": 71,
                    "time": 117.42859100000005,
                    "velocity": 0.41732283464566927,
                    "duration": 0.21428575000000194
                },
                {
                    "name": "C5",
                    "midi": 72,
                    "time": 117.64287675000006,
                    "velocity": 0.3858267716535433,
                    "duration": 0.21428575000000194
                },
                {
                    "name": "E5",
                    "midi": 76,
                    "time": 117.85716250000006,
                    "velocity": 0.4409448818897638,
                    "duration": 0.21428575000000194
                },
                {
                    "name": "D5",
                    "midi": 74,
                    "time": 118.07144825000006,
                    "velocity": 0.3937007874015748,
                    "duration": 0.21428575000000194
                },
                {
                    "name": "G4",
                    "midi": 67,
                    "time": 118.28573400000006,
                    "velocity": 0.31496062992125984,
                    "duration": 0.4285715000000039
                },
                {
                    "name": "B4",
                    "midi": 71,
                    "time": 118.28573400000006,
                    "velocity": 0.36220472440944884,
                    "duration": 0.4285715000000039
                },
                {
                    "name": "B4",
                    "midi": 71,
                    "time": 119.46430562500007,
                    "velocity": 0.41732283464566927,
                    "duration": 0.10714287499999386
                },
                {
                    "name": "G4",
                    "midi": 67,
                    "time": 119.57144850000006,
                    "velocity": 0.4645669291338583,
                    "duration": 0.4285715000000039
                },
                {
                    "name": "D4",
                    "midi": 62,
                    "time": 119.57144850000006,
                    "velocity": 0.4645669291338583,
                    "duration": 0.8392858541666754
                },
                {
                    "name": "D5",
                    "midi": 74,
                    "time": 119.57144850000006,
                    "velocity": 0.5433070866141733,
                    "duration": 0.4285715000000039
                },
                {
                    "name": "A4",
                    "midi": 69,
                    "time": 120.00002000000006,
                    "velocity": 0.4645669291338583,
                    "duration": 0.4285715000000039
                },
                {
                    "name": "C#5",
                    "midi": 73,
                    "time": 120.00002000000006,
                    "velocity": 0.6141732283464567,
                    "duration": 0.4285715000000039
                },
                {
                    "name": "D4",
                    "midi": 62,
                    "time": 120.42859150000007,
                    "velocity": 0.48031496062992124,
                    "duration": 0.38571435000000065
                },
                {
                    "name": "B4",
                    "midi": 71,
                    "time": 120.42859150000007,
                    "velocity": 0.5669291338582677,
                    "duration": 0.38571435000000065
                },
                {
                    "name": "D4",
                    "midi": 62,
                    "time": 120.85716300000007,
                    "velocity": 0.5275590551181102,
                    "duration": 1.2678573541666651
                },
                {
                    "name": "A4",
                    "midi": 69,
                    "time": 120.85716300000007,
                    "velocity": 0.6220472440944882,
                    "duration": 1.2678573541666651
                },
                {
                    "name": "D4",
                    "midi": 62,
                    "time": 122.14287750000007,
                    "velocity": 0.4409448818897638,
                    "duration": 0.4285715000000039
                },
                {
                    "name": "A4",
                    "midi": 69,
                    "time": 122.14287750000007,
                    "velocity": 0.5196850393700787,
                    "duration": 0.4285715000000039
                },
                {
                    "name": "E4",
                    "midi": 64,
                    "time": 122.57144900000007,
                    "velocity": 0.4566929133858268,
                    "duration": 0.41071435416667157
                },
                {
                    "name": "G#4",
                    "midi": 68,
                    "time": 122.57144900000007,
                    "velocity": 0.5433070866141733,
                    "duration": 0.4285715000000039
                },
                {
                    "name": "F#4",
                    "midi": 66,
                    "time": 123.00002050000008,
                    "velocity": 0.5905511811023622,
                    "duration": 0.38571435000000065
                },
                {
                    "name": "E4",
                    "midi": 64,
                    "time": 123.42859200000008,
                    "velocity": 0.5196850393700787,
                    "duration": 0.4285715000000039
                },
                {
                    "name": "D#4",
                    "midi": 63,
                    "time": 123.85716350000008,
                    "velocity": 0.4881889763779528,
                    "duration": 0.4285715000000039
                },
                {
                    "name": "A4",
                    "midi": 69,
                    "time": 123.85716350000008,
                    "velocity": 0.5826771653543307,
                    "duration": 0.4285715000000039
                },
                {
                    "name": "E4",
                    "midi": 64,
                    "time": 124.28573500000009,
                    "velocity": 0.5275590551181102,
                    "duration": 0.8571429999999935
                },
                {
                    "name": "A4",
                    "midi": 69,
                    "time": 124.28573500000009,
                    "velocity": 0.5275590551181102,
                    "duration": 0.8571429999999935
                },
                {
                    "name": "C#5",
                    "midi": 73,
                    "time": 124.28573500000009,
                    "velocity": 0.6299212598425197,
                    "duration": 0.8571429999999935
                },
                {
                    "name": "E4",
                    "midi": 64,
                    "time": 125.14287800000008,
                    "velocity": 0.5039370078740157,
                    "duration": 0.8571430000000078
                },
                {
                    "name": "D4",
                    "midi": 62,
                    "time": 125.14287800000008,
                    "velocity": 0.5039370078740157,
                    "duration": 0.8571430000000078
                },
                {
                    "name": "G#4",
                    "midi": 68,
                    "time": 125.14287800000008,
                    "velocity": 0.5039370078740157,
                    "duration": 0.8571430000000078
                },
                {
                    "name": "C#5",
                    "midi": 73,
                    "time": 125.14287800000008,
                    "velocity": 0.5984251968503937,
                    "duration": 0.6428572500000058
                },
                {
                    "name": "B4",
                    "midi": 71,
                    "time": 125.78573525000009,
                    "velocity": 0.5433070866141733,
                    "duration": 0.21428575000000194
                },
                {
                    "name": "E4",
                    "midi": 64,
                    "time": 126.00002100000009,
                    "velocity": 0.3937007874015748,
                    "duration": 1.2857144999999974
                },
                {
                    "name": "C#4",
                    "midi": 61,
                    "time": 126.00002100000009,
                    "velocity": 0.3937007874015748,
                    "duration": 1.2857144999999974
                },
                {
                    "name": "A4",
                    "midi": 69,
                    "time": 126.00002100000009,
                    "velocity": 0.4645669291338583,
                    "duration": 1.2857144999999974
                },
                {
                    "name": "A4",
                    "midi": 69,
                    "time": 127.28573550000009,
                    "velocity": 0.5984251968503937,
                    "duration": 0.4285715000000039
                },
                {
                    "name": "F#4",
                    "midi": 66,
                    "time": 127.71430700000009,
                    "velocity": 0.5354330708661418,
                    "duration": 0.19285717500000032
                },
                {
                    "name": "D5",
                    "midi": 74,
                    "time": 127.71430700000009,
                    "velocity": 0.6377952755905512,
                    "duration": 0.19285717500000032
                },
                {
                    "name": "D5",
                    "midi": 74,
                    "time": 127.92859275000009,
                    "velocity": 0.5905511811023622,
                    "duration": 0.4285715000000039
                },
                {
                    "name": "F#4",
                    "midi": 66,
                    "time": 127.92859275000009,
                    "velocity": 0.49606299212598426,
                    "duration": 0.4285715000000039
                },
                {
                    "name": "A4",
                    "midi": 69,
                    "time": 128.3571642500001,
                    "velocity": 0.5039370078740157,
                    "duration": 0.21428574999998773
                },
                {
                    "name": "E5",
                    "midi": 76,
                    "time": 128.3571642500001,
                    "velocity": 0.5984251968503937,
                    "duration": 0.21428574999998773
                },
                {
                    "name": "D5",
                    "midi": 74,
                    "time": 128.57145000000008,
                    "velocity": 0.5748031496062992,
                    "duration": 0.38571435000000065
                },
                {
                    "name": "F#5",
                    "midi": 78,
                    "time": 128.57145000000008,
                    "velocity": 0.6771653543307087,
                    "duration": 0.38571435000000065
                },
                {
                    "name": "D5",
                    "midi": 74,
                    "time": 129.0000215000001,
                    "velocity": 0.5669291338582677,
                    "duration": 0.6375001062500019
                },
                {
                    "name": "F#5",
                    "midi": 78,
                    "time": 129.0000215000001,
                    "velocity": 0.6692913385826772,
                    "duration": 0.6375001062500019
                },
                {
                    "name": "D5",
                    "midi": 74,
                    "time": 129.64287875000008,
                    "velocity": 0.5748031496062992,
                    "duration": 0.4285715000000039
                },
                {
                    "name": "F#5",
                    "midi": 78,
                    "time": 129.64287875000008,
                    "velocity": 0.6771653543307087,
                    "duration": 0.4285715000000039
                },
                {
                    "name": "A4",
                    "midi": 69,
                    "time": 130.07145025000008,
                    "velocity": 0.48031496062992124,
                    "duration": 0.21428574999998773
                },
                {
                    "name": "E5",
                    "midi": 76,
                    "time": 130.07145025000008,
                    "velocity": 0.5748031496062992,
                    "duration": 0.21428574999998773
                },
                {
                    "name": "F#4",
                    "midi": 66,
                    "time": 130.28573600000007,
                    "velocity": 0.5118110236220472,
                    "duration": 0.19285717500000032
                },
                {
                    "name": "D5",
                    "midi": 74,
                    "time": 130.28573600000007,
                    "velocity": 0.6062992125984252,
                    "duration": 0.19285717500000032
                },
                {
                    "name": "B4",
                    "midi": 71,
                    "time": 130.50002175000006,
                    "velocity": 0.5748031496062992,
                    "duration": 0.4285715000000039
                },
                {
                    "name": "D5",
                    "midi": 74,
                    "time": 130.50002175000006,
                    "velocity": 0.6771653543307087,
                    "duration": 0.4285715000000039
                },
                {
                    "name": "F#4",
                    "midi": 66,
                    "time": 130.92859325000006,
                    "velocity": 0.5039370078740157,
                    "duration": 0.21428574999998773
                },
                {
                    "name": "C#5",
                    "midi": 73,
                    "time": 130.92859325000006,
                    "velocity": 0.5984251968503937,
                    "duration": 0.21428574999998773
                },
                {
                    "name": "D4",
                    "midi": 62,
                    "time": 131.14287900000005,
                    "velocity": 0.5354330708661418,
                    "duration": 0.38571435000000065
                },
                {
                    "name": "B4",
                    "midi": 71,
                    "time": 131.14287900000005,
                    "velocity": 0.6299212598425197,
                    "duration": 0.38571435000000065
                },
                {
                    "name": "D4",
                    "midi": 62,
                    "time": 131.57145050000005,
                    "velocity": 0.5748031496062992,
                    "duration": 0.8571430000000078
                },
                {
                    "name": "B4",
                    "midi": 71,
                    "time": 131.57145050000005,
                    "velocity": 0.6771653543307087,
                    "duration": 0.8571430000000078
                },
                {
                    "name": "B4",
                    "midi": 71,
                    "time": 132.42859350000006,
                    "velocity": 0.5984251968503937,
                    "duration": 0.4285715000000039
                },
                {
                    "name": "G4",
                    "midi": 67,
                    "time": 132.85716500000007,
                    "velocity": 0.5354330708661418,
                    "duration": 0.19285717500000032
                },
                {
                    "name": "E5",
                    "midi": 76,
                    "time": 132.85716500000007,
                    "velocity": 0.6377952755905512,
                    "duration": 0.19285717500000032
                },
                {
                    "name": "E5",
                    "midi": 76,
                    "time": 133.07145075000005,
                    "velocity": 0.5905511811023622,
                    "duration": 0.4285715000000039
                },
                {
                    "name": "G4",
                    "midi": 67,
                    "time": 133.07145075000005,
                    "velocity": 0.49606299212598426,
                    "duration": 0.4285715000000039
                },
                {
                    "name": "B4",
                    "midi": 71,
                    "time": 133.50002225000006,
                    "velocity": 0.5039370078740157,
                    "duration": 0.21428574999998773
                },
                {
                    "name": "F#5",
                    "midi": 78,
                    "time": 133.50002225000006,
                    "velocity": 0.5984251968503937,
                    "duration": 0.21428574999998773
                },
                {
                    "name": "E5",
                    "midi": 76,
                    "time": 133.71430800000005,
                    "velocity": 0.5748031496062992,
                    "duration": 0.38571435000000065
                },
                {
                    "name": "G5",
                    "midi": 79,
                    "time": 133.71430800000005,
                    "velocity": 0.6771653543307087,
                    "duration": 0.38571435000000065
                },
                {
                    "name": "E5",
                    "midi": 76,
                    "time": 134.14287950000005,
                    "velocity": 0.5669291338582677,
                    "duration": 0.6375001062500019
                },
                {
                    "name": "G5",
                    "midi": 79,
                    "time": 134.14287950000005,
                    "velocity": 0.6692913385826772,
                    "duration": 0.6375001062500019
                },
                {
                    "name": "E5",
                    "midi": 76,
                    "time": 134.78573675000004,
                    "velocity": 0.5748031496062992,
                    "duration": 0.4285715000000039
                },
                {
                    "name": "G5",
                    "midi": 79,
                    "time": 134.78573675000004,
                    "velocity": 0.6771653543307087,
                    "duration": 0.4285715000000039
                },
                {
                    "name": "B4",
                    "midi": 71,
                    "time": 135.21430825000004,
                    "velocity": 0.48031496062992124,
                    "duration": 0.21428574999998773
                },
                {
                    "name": "F#5",
                    "midi": 78,
                    "time": 135.21430825000004,
                    "velocity": 0.5748031496062992,
                    "duration": 0.21428574999998773
                },
                {
                    "name": "G4",
                    "midi": 67,
                    "time": 135.42859400000003,
                    "velocity": 0.5118110236220472,
                    "duration": 0.19285717500000032
                },
                {
                    "name": "E5",
                    "midi": 76,
                    "time": 135.42859400000003,
                    "velocity": 0.6062992125984252,
                    "duration": 0.19285717500000032
                },
                {
                    "name": "C#5",
                    "midi": 73,
                    "time": 135.64287975000002,
                    "velocity": 0.5748031496062992,
                    "duration": 0.4285715000000039
                },
                {
                    "name": "E5",
                    "midi": 76,
                    "time": 135.64287975000002,
                    "velocity": 0.6771653543307087,
                    "duration": 0.4285715000000039
                },
                {
                    "name": "G#4",
                    "midi": 68,
                    "time": 136.07145125000002,
                    "velocity": 0.5039370078740157,
                    "duration": 0.21428574999998773
                },
                {
                    "name": "D5",
                    "midi": 74,
                    "time": 136.07145125000002,
                    "velocity": 0.5984251968503937,
                    "duration": 0.21428574999998773
                },
                {
                    "name": "E4",
                    "midi": 64,
                    "time": 136.285737,
                    "velocity": 0.5354330708661418,
                    "duration": 0.19285717500000032
                },
                {
                    "name": "C#5",
                    "midi": 73,
                    "time": 136.285737,
                    "velocity": 0.6299212598425197,
                    "duration": 0.19285717500000032
                },
                {
                    "name": "E4",
                    "midi": 64,
                    "time": 136.71430850000002,
                    "velocity": 0.5748031496062992,
                    "duration": 0.6375001062500019
                },
                {
                    "name": "C#5",
                    "midi": 73,
                    "time": 136.71430850000002,
                    "velocity": 0.6771653543307087,
                    "duration": 0.6375001062500019
                },
                {
                    "name": "A4",
                    "midi": 69,
                    "time": 137.35716575,
                    "velocity": 0.5748031496062992,
                    "duration": 0.4250000708333346
                },
                {
                    "name": "C#5",
                    "midi": 73,
                    "time": 137.35716575,
                    "velocity": 0.6771653543307087,
                    "duration": 0.4285715000000039
                },
                {
                    "name": "A4",
                    "midi": 69,
                    "time": 137.78573725,
                    "velocity": 0.48031496062992124,
                    "duration": 0.42857149999997546
                },
                {
                    "name": "D5",
                    "midi": 74,
                    "time": 137.78573725,
                    "velocity": 0.5748031496062992,
                    "duration": 0.21428574999998773
                },
                {
                    "name": "E4",
                    "midi": 64,
                    "time": 138.000023,
                    "velocity": 0.5118110236220472,
                    "duration": 0.19285717500000032
                },
                {
                    "name": "E5",
                    "midi": 76,
                    "time": 138.000023,
                    "velocity": 0.6062992125984252,
                    "duration": 0.19285717500000032
                },
                {
                    "name": "F#4",
                    "midi": 66,
                    "time": 138.21430875,
                    "velocity": 0.5748031496062992,
                    "duration": 0.4285715000000039
                },
                {
                    "name": "D5",
                    "midi": 74,
                    "time": 138.21430875,
                    "velocity": 0.5748031496062992,
                    "duration": 0.4285715000000039
                },
                {
                    "name": "F#5",
                    "midi": 78,
                    "time": 138.21430875,
                    "velocity": 0.6771653543307087,
                    "duration": 0.4285715000000039
                },
                {
                    "name": "D5",
                    "midi": 74,
                    "time": 138.64288025,
                    "velocity": 0.5039370078740157,
                    "duration": 0.21428574999998773
                },
                {
                    "name": "G4",
                    "midi": 67,
                    "time": 138.64288025,
                    "velocity": 0.5039370078740157,
                    "duration": 0.21428574999998773
                },
                {
                    "name": "G5",
                    "midi": 79,
                    "time": 138.64288025,
                    "velocity": 0.5984251968503937,
                    "duration": 0.21428574999998773
                },
                {
                    "name": "A4",
                    "midi": 69,
                    "time": 138.85716599999998,
                    "velocity": 0.5354330708661418,
                    "duration": 0.21428574999998773
                },
                {
                    "name": "D5",
                    "midi": 74,
                    "time": 138.85716599999998,
                    "velocity": 0.5354330708661418,
                    "duration": 0.19285717500000032
                },
                {
                    "name": "A5",
                    "midi": 81,
                    "time": 138.85716599999998,
                    "velocity": 0.6299212598425197,
                    "duration": 0.19285717500000032
                },
                {
                    "name": "A4",
                    "midi": 69,
                    "time": 139.28573749999995,
                    "velocity": 0.5748031496062992,
                    "duration": 0.6375001062500019
                },
                {
                    "name": "D5",
                    "midi": 74,
                    "time": 139.28573749999995,
                    "velocity": 0.5748031496062992,
                    "duration": 0.6375001062500019
                },
                {
                    "name": "A5",
                    "midi": 81,
                    "time": 139.28573749999995,
                    "velocity": 0.6771653543307087,
                    "duration": 0.6375001062500019
                },
                {
                    "name": "D5",
                    "midi": 74,
                    "time": 139.92859474999995,
                    "velocity": 0.5511811023622047,
                    "duration": 0.21071432083334685
                },
                {
                    "name": "A5",
                    "midi": 81,
                    "time": 139.92859474999995,
                    "velocity": 0.6535433070866141,
                    "duration": 0.21071432083334685
                },
                {
                    "name": "D5",
                    "midi": 74,
                    "time": 140.14288049999996,
                    "velocity": 0.5748031496062992,
                    "duration": 0.21071432083334685
                },
                {
                    "name": "F#5",
                    "midi": 78,
                    "time": 140.14288049999996,
                    "velocity": 0.5748031496062992,
                    "duration": 0.21071432083334685
                },
                {
                    "name": "D6",
                    "midi": 86,
                    "time": 140.14288049999996,
                    "velocity": 0.6771653543307087,
                    "duration": 0.21071432083334685
                },
                {
                    "name": "D5",
                    "midi": 74,
                    "time": 140.35716624999998,
                    "velocity": 0.5433070866141733,
                    "duration": 0.21071432083334685
                },
                {
                    "name": "A5",
                    "midi": 81,
                    "time": 140.35716624999998,
                    "velocity": 0.6456692913385826,
                    "duration": 0.21071432083334685
                },
                {
                    "name": "D5",
                    "midi": 74,
                    "time": 140.571452,
                    "velocity": 0.5748031496062992,
                    "duration": 0.21071432083334685
                },
                {
                    "name": "F#5",
                    "midi": 78,
                    "time": 140.571452,
                    "velocity": 0.6771653543307087,
                    "duration": 0.21071432083334685
                },
                {
                    "name": "D5",
                    "midi": 74,
                    "time": 140.78573775,
                    "velocity": 0.6535433070866141,
                    "duration": 0.21071432083334685
                },
                {
                    "name": "D5",
                    "midi": 74,
                    "time": 141.00002350000003,
                    "velocity": 0.5511811023622047,
                    "duration": 0.21071432083334685
                },
                {
                    "name": "F#5",
                    "midi": 78,
                    "time": 141.00002350000003,
                    "velocity": 0.6535433070866141,
                    "duration": 0.21071432083334685
                },
                {
                    "name": "D5",
                    "midi": 74,
                    "time": 141.21430925000004,
                    "velocity": 0.5511811023622047,
                    "duration": 0.21428574999998773
                },
                {
                    "name": "A5",
                    "midi": 81,
                    "time": 141.21430925000004,
                    "velocity": 0.6535433070866141,
                    "duration": 0.21428574999998773
                },
                {
                    "name": "F#5",
                    "midi": 78,
                    "time": 141.21430925000004,
                    "velocity": 0.5511811023622047,
                    "duration": 0.21428574999998773
                },
                {
                    "name": "G5",
                    "midi": 79,
                    "time": 141.42859500000003,
                    "velocity": 0.5354330708661418,
                    "duration": 0.21428574999998773
                },
                {
                    "name": "B4",
                    "midi": 71,
                    "time": 141.42859500000003,
                    "velocity": 0.5354330708661418,
                    "duration": 0.21428574999998773
                },
                {
                    "name": "D5",
                    "midi": 74,
                    "time": 141.42859500000003,
                    "velocity": 0.5354330708661418,
                    "duration": 0.19285717500000032
                },
                {
                    "name": "B5",
                    "midi": 83,
                    "time": 141.42859500000003,
                    "velocity": 0.6299212598425197,
                    "duration": 0.19285717500000032
                },
                {
                    "name": "G5",
                    "midi": 79,
                    "time": 141.8571665,
                    "velocity": 0.5748031496062992,
                    "duration": 0.6375001062500019
                },
                {
                    "name": "B4",
                    "midi": 71,
                    "time": 141.8571665,
                    "velocity": 0.5748031496062992,
                    "duration": 0.6375001062500019
                },
                {
                    "name": "D5",
                    "midi": 74,
                    "time": 141.8571665,
                    "velocity": 0.5748031496062992,
                    "duration": 0.6375001062500019
                },
                {
                    "name": "B5",
                    "midi": 83,
                    "time": 141.8571665,
                    "velocity": 0.6771653543307087,
                    "duration": 0.6375001062500019
                },
                {
                    "name": "B4",
                    "midi": 71,
                    "time": 142.50002375,
                    "velocity": 0.6062992125984252,
                    "duration": 0.4285715000000039
                },
                {
                    "name": "D5",
                    "midi": 74,
                    "time": 142.50002375,
                    "velocity": 0.6062992125984252,
                    "duration": 0.4250000708333346
                },
                {
                    "name": "B5",
                    "midi": 83,
                    "time": 142.50002375,
                    "velocity": 0.7165354330708661,
                    "duration": 0.4285715000000039
                },
                {
                    "name": "A4",
                    "midi": 69,
                    "time": 142.92859525,
                    "velocity": 0.5433070866141733,
                    "duration": 0.21428574999998773
                },
                {
                    "name": "D5",
                    "midi": 74,
                    "time": 142.92859525,
                    "velocity": 0.5433070866141733,
                    "duration": 0.21428574999998773
                },
                {
                    "name": "A5",
                    "midi": 81,
                    "time": 142.92859525,
                    "velocity": 0.6456692913385826,
                    "duration": 0.21428574999998773
                },
                {
                    "name": "B4",
                    "midi": 71,
                    "time": 143.142881,
                    "velocity": 0.5748031496062992,
                    "duration": 0.20357146250000824
                },
                {
                    "name": "D5",
                    "midi": 74,
                    "time": 143.142881,
                    "velocity": 0.5748031496062992,
                    "duration": 0.20357146250000824
                },
                {
                    "name": "B5",
                    "midi": 83,
                    "time": 143.142881,
                    "velocity": 0.6771653543307087,
                    "duration": 0.20357146250000824
                },
                {
                    "name": "B4",
                    "midi": 71,
                    "time": 143.35716675,
                    "velocity": 0.6535433070866141,
                    "duration": 0.4285715000000039
                },
                {
                    "name": "D5",
                    "midi": 74,
                    "time": 143.35716675,
                    "velocity": 0.6535433070866141,
                    "duration": 0.4285715000000039
                },
                {
                    "name": "B5",
                    "midi": 83,
                    "time": 143.35716675,
                    "velocity": 0.6535433070866141,
                    "duration": 0.4285715000000039
                },
                {
                    "name": "C5",
                    "midi": 72,
                    "time": 143.78573825,
                    "velocity": 0.5511811023622047,
                    "duration": 0.21428574999998773
                },
                {
                    "name": "C6",
                    "midi": 84,
                    "time": 143.78573825,
                    "velocity": 0.6535433070866141,
                    "duration": 0.21428574999998773
                },
                {
                    "name": "D5",
                    "midi": 74,
                    "time": 143.78573825,
                    "velocity": 0.5511811023622047,
                    "duration": 0.21428574999998773
                },
                {
                    "name": "B4",
                    "midi": 71,
                    "time": 144.000024,
                    "velocity": 0.5354330708661418,
                    "duration": 0.21428574999998773
                },
                {
                    "name": "D5",
                    "midi": 74,
                    "time": 144.000024,
                    "velocity": 0.5354330708661418,
                    "duration": 0.19285717500000032
                },
                {
                    "name": "B5",
                    "midi": 83,
                    "time": 144.000024,
                    "velocity": 0.6299212598425197,
                    "duration": 0.19285717500000032
                },
                {
                    "name": "B4",
                    "midi": 71,
                    "time": 144.42859549999997,
                    "velocity": 0.5748031496062992,
                    "duration": 0.6428572499999916
                },
                {
                    "name": "D5",
                    "midi": 74,
                    "time": 144.42859549999997,
                    "velocity": 0.5748031496062992,
                    "duration": 0.6428572499999916
                },
                {
                    "name": "B5",
                    "midi": 83,
                    "time": 144.42859549999997,
                    "velocity": 0.6771653543307087,
                    "duration": 0.6428572499999916
                },
                {
                    "name": "G4",
                    "midi": 67,
                    "time": 145.07145274999996,
                    "velocity": 0.5511811023622047,
                    "duration": 0.21071432083334685
                },
                {
                    "name": "D5",
                    "midi": 74,
                    "time": 145.07145274999996,
                    "velocity": 0.6535433070866141,
                    "duration": 0.21071432083334685
                },
                {
                    "name": "G4",
                    "midi": 67,
                    "time": 145.28573849999998,
                    "velocity": 0.5748031496062992,
                    "duration": 0.21071432083334685
                },
                {
                    "name": "B4",
                    "midi": 71,
                    "time": 145.28573849999998,
                    "velocity": 0.5748031496062992,
                    "duration": 0.21071432083334685
                },
                {
                    "name": "G5",
                    "midi": 79,
                    "time": 145.28573849999998,
                    "velocity": 0.6771653543307087,
                    "duration": 0.21071432083334685
                },
                {
                    "name": "G4",
                    "midi": 67,
                    "time": 145.50002425,
                    "velocity": 0.5433070866141733,
                    "duration": 0.21071432083334685
                },
                {
                    "name": "D5",
                    "midi": 74,
                    "time": 145.50002425,
                    "velocity": 0.6456692913385826,
                    "duration": 0.21071432083334685
                },
                {
                    "name": "G4",
                    "midi": 67,
                    "time": 145.71431,
                    "velocity": 0.5748031496062992,
                    "duration": 0.21071432083334685
                },
                {
                    "name": "B4",
                    "midi": 71,
                    "time": 145.71431,
                    "velocity": 0.6771653543307087,
                    "duration": 0.21071432083334685
                },
                {
                    "name": "G4",
                    "midi": 67,
                    "time": 145.92859575000003,
                    "velocity": 0.5433070866141733,
                    "duration": 0.21071432083334685
                },
                {
                    "name": "D5",
                    "midi": 74,
                    "time": 145.92859575000003,
                    "velocity": 0.6141732283464567,
                    "duration": 0.21071432083334685
                },
                {
                    "name": "B4",
                    "midi": 71,
                    "time": 146.14288150000004,
                    "velocity": 0.5511811023622047,
                    "duration": 0.21071432083334685
                },
                {
                    "name": "G4",
                    "midi": 67,
                    "time": 146.14288150000004,
                    "velocity": 0.5511811023622047,
                    "duration": 0.21071432083334685
                },
                {
                    "name": "G5",
                    "midi": 79,
                    "time": 146.14288150000004,
                    "velocity": 0.6535433070866141,
                    "duration": 0.21071432083334685
                },
                {
                    "name": "A4",
                    "midi": 69,
                    "time": 146.35716725000006,
                    "velocity": 0.5511811023622047,
                    "duration": 0.21428574999998773
                },
                {
                    "name": "A5",
                    "midi": 81,
                    "time": 146.35716725000006,
                    "velocity": 0.6535433070866141,
                    "duration": 0.21428574999998773
                },
                {
                    "name": "D5",
                    "midi": 74,
                    "time": 146.35716725000006,
                    "velocity": 0.5511811023622047,
                    "duration": 0.21428574999998773
                },
                {
                    "name": "G5",
                    "midi": 79,
                    "time": 146.57145300000005,
                    "velocity": 0.5354330708661418,
                    "duration": 0.21428574999998773
                },
                {
                    "name": "B4",
                    "midi": 71,
                    "time": 146.57145300000005,
                    "velocity": 0.5354330708661418,
                    "duration": 0.21428574999998773
                },
                {
                    "name": "B5",
                    "midi": 83,
                    "time": 146.57145300000005,
                    "velocity": 0.6299212598425197,
                    "duration": 0.19285717500000032
                },
                {
                    "name": "G5",
                    "midi": 79,
                    "time": 147.00002450000002,
                    "velocity": 0.5748031496062992,
                    "duration": 0.6375001062500019
                },
                {
                    "name": "B4",
                    "midi": 71,
                    "time": 147.00002450000002,
                    "velocity": 0.5748031496062992,
                    "duration": 0.6375001062500019
                },
                {
                    "name": "B5",
                    "midi": 83,
                    "time": 147.00002450000002,
                    "velocity": 0.6771653543307087,
                    "duration": 0.6375001062500019
                },
                {
                    "name": "G5",
                    "midi": 79,
                    "time": 147.64288175000002,
                    "velocity": 0.6141732283464567,
                    "duration": 0.41071435416665736
                },
                {
                    "name": "B5",
                    "midi": 83,
                    "time": 147.64288175000002,
                    "velocity": 0.6141732283464567,
                    "duration": 0.41071435416665736
                },
                {
                    "name": "G6",
                    "midi": 91,
                    "time": 147.64288175000002,
                    "velocity": 0.7244094488188977,
                    "duration": 0.41071435416665736
                },
                {
                    "name": "G5",
                    "midi": 79,
                    "time": 148.07145325000002,
                    "velocity": 0.6535433070866141,
                    "duration": 0.21428574999998773
                },
                {
                    "name": "B5",
                    "midi": 83,
                    "time": 148.07145325000002,
                    "velocity": 0.6535433070866141,
                    "duration": 0.21428574999998773
                },
                {
                    "name": "G6",
                    "midi": 91,
                    "time": 148.07145325000002,
                    "velocity": 0.7716535433070866,
                    "duration": 0.21428574999998773
                },
                {
                    "name": "G5",
                    "midi": 79,
                    "time": 148.285739,
                    "velocity": 0.5354330708661418,
                    "duration": 0.21428574999998773
                },
                {
                    "name": "C#5",
                    "midi": 73,
                    "time": 148.285739,
                    "velocity": 0.5354330708661418,
                    "duration": 0.21428574999998773
                },
                {
                    "name": "C#6",
                    "midi": 85,
                    "time": 148.285739,
                    "velocity": 0.6299212598425197,
                    "duration": 0.19285717500000032
                },
                {
                    "name": "G5",
                    "midi": 79,
                    "time": 148.71431049999998,
                    "velocity": 0.5748031496062992,
                    "duration": 0.6428572499999916
                },
                {
                    "name": "C#5",
                    "midi": 73,
                    "time": 148.71431049999998,
                    "velocity": 0.5748031496062992,
                    "duration": 0.6428572499999916
                },
                {
                    "name": "C#6",
                    "midi": 85,
                    "time": 148.71431049999998,
                    "velocity": 0.6771653543307087,
                    "duration": 0.6428572499999916
                },
                {
                    "name": "D5",
                    "midi": 74,
                    "time": 149.35716774999997,
                    "velocity": 0.6141732283464567,
                    "duration": 0.41071435416665736
                },
                {
                    "name": "F#5",
                    "midi": 78,
                    "time": 149.35716774999997,
                    "velocity": 0.6141732283464567,
                    "duration": 0.41071435416665736
                },
                {
                    "name": "D6",
                    "midi": 86,
                    "time": 149.35716774999997,
                    "velocity": 0.7244094488188977,
                    "duration": 0.41071435416665736
                },
                {
                    "name": "D5",
                    "midi": 74,
                    "time": 149.78573924999998,
                    "velocity": 0.6535433070866141,
                    "duration": 0.21428574999998773
                },
                {
                    "name": "F#5",
                    "midi": 78,
                    "time": 149.78573924999998,
                    "velocity": 0.6535433070866141,
                    "duration": 0.21428574999998773
                },
                {
                    "name": "D6",
                    "midi": 86,
                    "time": 149.78573924999998,
                    "velocity": 0.7716535433070866,
                    "duration": 0.21428574999998773
                },
                {
                    "name": "F#4",
                    "midi": 66,
                    "time": 150.00002499999997,
                    "velocity": 0.5354330708661418,
                    "duration": 0.21428574999998773
                },
                {
                    "name": "D4",
                    "midi": 62,
                    "time": 150.00002499999997,
                    "velocity": 0.5354330708661418,
                    "duration": 0.21428574999998773
                },
                {
                    "name": "D5",
                    "midi": 74,
                    "time": 150.00002499999997,
                    "velocity": 0.6299212598425197,
                    "duration": 0.19285717500000032
                },
                {
                    "name": "F#4",
                    "midi": 66,
                    "time": 150.42859649999994,
                    "velocity": 0.5748031496062992,
                    "duration": 0.6428572499999916
                },
                {
                    "name": "D4",
                    "midi": 62,
                    "time": 150.42859649999994,
                    "velocity": 0.5748031496062992,
                    "duration": 0.6428572499999916
                },
                {
                    "name": "D5",
                    "midi": 74,
                    "time": 150.42859649999994,
                    "velocity": 0.6771653543307087,
                    "duration": 0.6428572499999916
                },
                {
                    "name": "D4",
                    "midi": 62,
                    "time": 151.07145374999993,
                    "velocity": 0.29133858267716534,
                    "duration": 0.21428574999998773
                },
                {
                    "name": "B3",
                    "midi": 59,
                    "time": 151.28573949999992,
                    "velocity": 0.29133858267716534,
                    "duration": 0.21428574999998773
                },
                {
                    "name": "G4",
                    "midi": 67,
                    "time": 151.28573949999992,
                    "velocity": 0.29133858267716534,
                    "duration": 0.21428574999998773
                },
                {
                    "name": "D4",
                    "midi": 62,
                    "time": 151.5000252499999,
                    "velocity": 0.29133858267716534,
                    "duration": 0.21428574999998773
                },
                {
                    "name": "A4",
                    "midi": 69,
                    "time": 151.5000252499999,
                    "velocity": 0.29133858267716534,
                    "duration": 0.21428574999998773
                },
                {
                    "name": "G4",
                    "midi": 67,
                    "time": 151.7143109999999,
                    "velocity": 0.2677165354330709,
                    "duration": 0.19285717500000032
                },
                {
                    "name": "B4",
                    "midi": 71,
                    "time": 151.7143109999999,
                    "velocity": 0.31496062992125984,
                    "duration": 0.19285717500000032
                },
                {
                    "name": "G4",
                    "midi": 67,
                    "time": 152.1428824999999,
                    "velocity": 0.30708661417322836,
                    "duration": 0.6250001041666735
                },
                {
                    "name": "B4",
                    "midi": 71,
                    "time": 152.1428824999999,
                    "velocity": 0.3700787401574803,
                    "duration": 0.6250001041666735
                },
                {
                    "name": "D4",
                    "midi": 62,
                    "time": 152.78573974999992,
                    "velocity": 0.2755905511811024,
                    "duration": 0.21071432083334685
                },
                {
                    "name": "A4",
                    "midi": 69,
                    "time": 152.78573974999992,
                    "velocity": 0.3228346456692913,
                    "duration": 0.21071432083334685
                },
                {
                    "name": "G4",
                    "midi": 67,
                    "time": 153.00002549999994,
                    "velocity": 0.28346456692913385,
                    "duration": 0.21071432083334685
                },
                {
                    "name": "B4",
                    "midi": 71,
                    "time": 153.00002549999994,
                    "velocity": 0.33858267716535434,
                    "duration": 0.21071432083334685
                },
                {
                    "name": "A4",
                    "midi": 69,
                    "time": 153.21431124999995,
                    "velocity": 0.2677165354330709,
                    "duration": 0.21071432083334685
                },
                {
                    "name": "D5",
                    "midi": 74,
                    "time": 153.21431124999995,
                    "velocity": 0.3228346456692913,
                    "duration": 0.21071432083334685
                },
                {
                    "name": "G4",
                    "midi": 67,
                    "time": 153.42859699999997,
                    "velocity": 0.28346456692913385,
                    "duration": 0.21071432083334685
                },
                {
                    "name": "B4",
                    "midi": 71,
                    "time": 153.42859699999997,
                    "velocity": 0.33858267716535434,
                    "duration": 0.21071432083334685
                },
                {
                    "name": "D4",
                    "midi": 62,
                    "time": 153.64288274999998,
                    "velocity": 0.2992125984251969,
                    "duration": 0.21071432083334685
                },
                {
                    "name": "A4",
                    "midi": 69,
                    "time": 153.64288274999998,
                    "velocity": 0.2992125984251969,
                    "duration": 0.21071432083334685
                },
                {
                    "name": "G4",
                    "midi": 67,
                    "time": 153.8571685,
                    "velocity": 0.2755905511811024,
                    "duration": 0.21071432083334685
                },
                {
                    "name": "B4",
                    "midi": 71,
                    "time": 153.8571685,
                    "velocity": 0.3228346456692913,
                    "duration": 0.21071432083334685
                },
                {
                    "name": "A4",
                    "midi": 69,
                    "time": 154.07145425000002,
                    "velocity": 0.2992125984251969,
                    "duration": 0.21428574999998773
                },
                {
                    "name": "D5",
                    "midi": 74,
                    "time": 154.07145425000002,
                    "velocity": 0.2992125984251969,
                    "duration": 0.21428574999998773
                },
                {
                    "name": "G4",
                    "midi": 67,
                    "time": 154.28574,
                    "velocity": 0.2677165354330709,
                    "duration": 0.19285717500000032
                },
                {
                    "name": "B4",
                    "midi": 71,
                    "time": 154.28574,
                    "velocity": 0.31496062992125984,
                    "duration": 0.19285717500000032
                },
                {
                    "name": "G4",
                    "midi": 67,
                    "time": 154.7143115,
                    "velocity": 0.30708661417322836,
                    "duration": 0.6250001041666735
                },
                {
                    "name": "B4",
                    "midi": 71,
                    "time": 154.7143115,
                    "velocity": 0.3700787401574803,
                    "duration": 0.6250001041666735
                },
                {
                    "name": "D4",
                    "midi": 62,
                    "time": 155.35716875000003,
                    "velocity": 0.2755905511811024,
                    "duration": 0.21071432083334685
                },
                {
                    "name": "A4",
                    "midi": 69,
                    "time": 155.35716875000003,
                    "velocity": 0.3228346456692913,
                    "duration": 0.21071432083334685
                },
                {
                    "name": "G4",
                    "midi": 67,
                    "time": 155.57145450000004,
                    "velocity": 0.29133858267716534,
                    "duration": 0.21071432083334685
                },
                {
                    "name": "B4",
                    "midi": 71,
                    "time": 155.57145450000004,
                    "velocity": 0.3464566929133858,
                    "duration": 0.21071432083334685
                },
                {
                    "name": "A4",
                    "midi": 69,
                    "time": 155.78574025000006,
                    "velocity": 0.2755905511811024,
                    "duration": 0.21071432083334685
                },
                {
                    "name": "D5",
                    "midi": 74,
                    "time": 155.78574025000006,
                    "velocity": 0.33858267716535434,
                    "duration": 0.21071432083334685
                },
                {
                    "name": "G4",
                    "midi": 67,
                    "time": 156.00002600000008,
                    "velocity": 0.2992125984251969,
                    "duration": 0.21071432083334685
                },
                {
                    "name": "B4",
                    "midi": 71,
                    "time": 156.00002600000008,
                    "velocity": 0.36220472440944884,
                    "duration": 0.21071432083334685
                },
                {
                    "name": "D4",
                    "midi": 62,
                    "time": 156.2143117500001,
                    "velocity": 0.3228346456692913,
                    "duration": 0.21071432083334685
                },
                {
                    "name": "A4",
                    "midi": 69,
                    "time": 156.2143117500001,
                    "velocity": 0.3228346456692913,
                    "duration": 0.21071432083334685
                },
                {
                    "name": "G4",
                    "midi": 67,
                    "time": 156.4285975000001,
                    "velocity": 0.2992125984251969,
                    "duration": 0.21071432083334685
                },
                {
                    "name": "B4",
                    "midi": 71,
                    "time": 156.4285975000001,
                    "velocity": 0.3543307086614173,
                    "duration": 0.21071432083334685
                },
                {
                    "name": "A4",
                    "midi": 69,
                    "time": 156.64288325000012,
                    "velocity": 0.33070866141732286,
                    "duration": 0.21428574999998773
                },
                {
                    "name": "D5",
                    "midi": 74,
                    "time": 156.64288325000012,
                    "velocity": 0.33070866141732286,
                    "duration": 0.21428574999998773
                },
                {
                    "name": "C5",
                    "midi": 72,
                    "time": 156.8571690000001,
                    "velocity": 0.30708661417322836,
                    "duration": 0.19285717500000032
                },
                {
                    "name": "E5",
                    "midi": 76,
                    "time": 156.8571690000001,
                    "velocity": 0.36220472440944884,
                    "duration": 0.19285717500000032
                },
                {
                    "name": "E5",
                    "midi": 76,
                    "time": 157.28574050000012,
                    "velocity": 0.3858267716535433,
                    "duration": 0.6250001041666735
                },
                {
                    "name": "C5",
                    "midi": 72,
                    "time": 157.28574050000012,
                    "velocity": 0.3228346456692913,
                    "duration": 0.6250001041666735
                },
                {
                    "name": "G4",
                    "midi": 67,
                    "time": 157.92859775000014,
                    "velocity": 0.31496062992125984,
                    "duration": 0.20892860624999798
                },
                {
                    "name": "D5",
                    "midi": 74,
                    "time": 157.92859775000014,
                    "velocity": 0.3700787401574803,
                    "duration": 0.21071432083331842
                },
                {
                    "name": "C5",
                    "midi": 72,
                    "time": 158.14288350000012,
                    "velocity": 0.3228346456692913,
                    "duration": 0.20892860624999798
                },
                {
                    "name": "E5",
                    "midi": 76,
                    "time": 158.14288350000012,
                    "velocity": 0.3858267716535433,
                    "duration": 0.21071432083331842
                },
                {
                    "name": "G4",
                    "midi": 67,
                    "time": 158.3571692500001,
                    "velocity": 0.30708661417322836,
                    "duration": 0.20892860624999798
                },
                {
                    "name": "D5",
                    "midi": 74,
                    "time": 158.3571692500001,
                    "velocity": 0.3700787401574803,
                    "duration": 0.21071432083331842
                },
                {
                    "name": "E4",
                    "midi": 64,
                    "time": 158.5714550000001,
                    "velocity": 0.3228346456692913,
                    "duration": 0.21071432083331842
                },
                {
                    "name": "C5",
                    "midi": 72,
                    "time": 158.5714550000001,
                    "velocity": 0.3858267716535433,
                    "duration": 0.20892860624999798
                },
                {
                    "name": "D4",
                    "midi": 62,
                    "time": 158.7857407500001,
                    "velocity": 0.33858267716535434,
                    "duration": 0.21071432083331842
                },
                {
                    "name": "G4",
                    "midi": 67,
                    "time": 158.7857407500001,
                    "velocity": 0.33858267716535434,
                    "duration": 0.20892860624999798
                },
                {
                    "name": "E4",
                    "midi": 64,
                    "time": 159.00002650000008,
                    "velocity": 0.31496062992125984,
                    "duration": 0.21071432083331842
                },
                {
                    "name": "C5",
                    "midi": 72,
                    "time": 159.00002650000008,
                    "velocity": 0.3700787401574803,
                    "duration": 0.20892860624999798
                },
                {
                    "name": "G4",
                    "midi": 67,
                    "time": 159.21431225000006,
                    "velocity": 0.33858267716535434,
                    "duration": 0.21428574999998773
                },
                {
                    "name": "F5",
                    "midi": 77,
                    "time": 159.21431225000006,
                    "velocity": 0.33858267716535434,
                    "duration": 0.21428574999998773
                },
                {
                    "name": "C5",
                    "midi": 72,
                    "time": 159.42859800000005,
                    "velocity": 0.30708661417322836,
                    "duration": 0.19285717500000032
                },
                {
                    "name": "E5",
                    "midi": 76,
                    "time": 159.42859800000005,
                    "velocity": 0.36220472440944884,
                    "duration": 0.19285717500000032
                },
                {
                    "name": "E5",
                    "midi": 76,
                    "time": 159.85716950000005,
                    "velocity": 0.3858267716535433,
                    "duration": 0.6250001041666735
                },
                {
                    "name": "C5",
                    "midi": 72,
                    "time": 159.85716950000005,
                    "velocity": 0.3228346456692913,
                    "duration": 0.6250001041666735
                },
                {
                    "name": "C5",
                    "midi": 72,
                    "time": 160.50002675000007,
                    "velocity": 0.3543307086614173,
                    "duration": 0.20892860624999798
                },
                {
                    "name": "E5",
                    "midi": 76,
                    "time": 160.50002675000007,
                    "velocity": 0.41732283464566927,
                    "duration": 0.21071432083331842
                },
                {
                    "name": "E5",
                    "midi": 76,
                    "time": 160.71431250000006,
                    "velocity": 0.3858267716535433,
                    "duration": 0.20892860624999798
                },
                {
                    "name": "G5",
                    "midi": 79,
                    "time": 160.71431250000006,
                    "velocity": 0.4566929133858268,
                    "duration": 0.20892860624999798
                },
                {
                    "name": "D5",
                    "midi": 74,
                    "time": 160.92859825000005,
                    "velocity": 0.3543307086614173,
                    "duration": 0.20892860624999798
                },
                {
                    "name": "F#5",
                    "midi": 78,
                    "time": 160.92859825000005,
                    "velocity": 0.4251968503937008,
                    "duration": 0.21071432083331842
                },
                {
                    "name": "C5",
                    "midi": 72,
                    "time": 161.14288400000004,
                    "velocity": 0.3937007874015748,
                    "duration": 0.20892860624999798
                },
                {
                    "name": "E5",
                    "midi": 76,
                    "time": 161.14288400000004,
                    "velocity": 0.4645669291338583,
                    "duration": 0.20892860624999798
                },
                {
                    "name": "A4",
                    "midi": 69,
                    "time": 161.35716975000003,
                    "velocity": 0.33858267716535434,
                    "duration": 0.21071432083331842
                },
                {
                    "name": "C5",
                    "midi": 72,
                    "time": 161.35716975000003,
                    "velocity": 0.4015748031496063,
                    "duration": 0.20892860624999798
                },
                {
                    "name": "C5",
                    "midi": 72,
                    "time": 161.5714555,
                    "velocity": 0.3700787401574803,
                    "duration": 0.20892860624999798
                },
                {
                    "name": "E5",
                    "midi": 76,
                    "time": 161.5714555,
                    "velocity": 0.4409448818897638,
                    "duration": 0.20892860624999798
                },
                {
                    "name": "A4",
                    "midi": 69,
                    "time": 161.78574125,
                    "velocity": 0.33858267716535434,
                    "duration": 0.21428574999998773
                },
                {
                    "name": "C5",
                    "midi": 72,
                    "time": 161.78574125,
                    "velocity": 0.4015748031496063,
                    "duration": 0.21428574999998773
                },
                {
                    "name": "F#4",
                    "midi": 66,
                    "time": 162.000027,
                    "velocity": 0.30708661417322836,
                    "duration": 0.19285717500000032
                },
                {
                    "name": "A4",
                    "midi": 69,
                    "time": 162.000027,
                    "velocity": 0.36220472440944884,
                    "duration": 0.19285717500000032
                },
                {
                    "name": "A4",
                    "midi": 69,
                    "time": 162.4285985,
                    "velocity": 0.41732283464566927,
                    "duration": 0.6250001041666735
                },
                {
                    "name": "F#4",
                    "midi": 66,
                    "time": 162.4285985,
                    "velocity": 0.3543307086614173,
                    "duration": 0.6250001041666735
                },
                {
                    "name": "F#4",
                    "midi": 66,
                    "time": 163.07145575,
                    "velocity": 0.3543307086614173,
                    "duration": 0.20892860624999798
                },
                {
                    "name": "A4",
                    "midi": 69,
                    "time": 163.07145575,
                    "velocity": 0.41732283464566927,
                    "duration": 0.21071432083331842
                },
                {
                    "name": "A4",
                    "midi": 69,
                    "time": 163.2857415,
                    "velocity": 0.3858267716535433,
                    "duration": 0.20892860624999798
                },
                {
                    "name": "C5",
                    "midi": 72,
                    "time": 163.2857415,
                    "velocity": 0.4566929133858268,
                    "duration": 0.20892860624999798
                },
                {
                    "name": "G4",
                    "midi": 67,
                    "time": 163.50002725,
                    "velocity": 0.3543307086614173,
                    "duration": 0.20892860624999798
                },
                {
                    "name": "B4",
                    "midi": 71,
                    "time": 163.50002725,
                    "velocity": 0.4251968503937008,
                    "duration": 0.21071432083331842
                },
                {
                    "name": "F#4",
                    "midi": 66,
                    "time": 163.71431299999998,
                    "velocity": 0.3937007874015748,
                    "duration": 0.20892860624999798
                },
                {
                    "name": "A4",
                    "midi": 69,
                    "time": 163.71431299999998,
                    "velocity": 0.4645669291338583,
                    "duration": 0.20892860624999798
                },
                {
                    "name": "G4",
                    "midi": 67,
                    "time": 163.92859874999996,
                    "velocity": 0.33858267716535434,
                    "duration": 0.20892860624999798
                },
                {
                    "name": "B4",
                    "midi": 71,
                    "time": 163.92859874999996,
                    "velocity": 0.4015748031496063,
                    "duration": 0.20892860624999798
                },
                {
                    "name": "F#4",
                    "midi": 66,
                    "time": 164.14288449999995,
                    "velocity": 0.3700787401574803,
                    "duration": 0.20892860624999798
                },
                {
                    "name": "A4",
                    "midi": 69,
                    "time": 164.14288449999995,
                    "velocity": 0.4409448818897638,
                    "duration": 0.20892860624999798
                },
                {
                    "name": "E4",
                    "midi": 64,
                    "time": 164.35717024999994,
                    "velocity": 0.33858267716535434,
                    "duration": 0.21428574999998773
                },
                {
                    "name": "F#4",
                    "midi": 66,
                    "time": 164.35717024999994,
                    "velocity": 0.4015748031496063,
                    "duration": 0.21428574999998773
                },
                {
                    "name": "D#4",
                    "midi": 63,
                    "time": 164.57145599999993,
                    "velocity": 0.30708661417322836,
                    "duration": 0.19285717500000032
                },
                {
                    "name": "B4",
                    "midi": 71,
                    "time": 164.57145599999993,
                    "velocity": 0.36220472440944884,
                    "duration": 0.19285717500000032
                },
                {
                    "name": "B4",
                    "midi": 71,
                    "time": 165.00002749999993,
                    "velocity": 0.3858267716535433,
                    "duration": 0.6250001041666735
                },
                {
                    "name": "D#4",
                    "midi": 63,
                    "time": 165.00002749999993,
                    "velocity": 0.3228346456692913,
                    "duration": 0.6250001041666735
                },
                {
                    "name": "F#4",
                    "midi": 66,
                    "time": 165.64288474999995,
                    "velocity": 0.3543307086614173,
                    "duration": 0.20892860624999798
                },
                {
                    "name": "A4",
                    "midi": 69,
                    "time": 165.64288474999995,
                    "velocity": 0.41732283464566927,
                    "duration": 0.21071432083331842
                },
                {
                    "name": "A4",
                    "midi": 69,
                    "time": 165.85717049999994,
                    "velocity": 0.3858267716535433,
                    "duration": 0.20892860624999798
                },
                {
                    "name": "C5",
                    "midi": 72,
                    "time": 165.85717049999994,
                    "velocity": 0.4566929133858268,
                    "duration": 0.20892860624999798
                },
                {
                    "name": "G4",
                    "midi": 67,
                    "time": 166.07145624999993,
                    "velocity": 0.3543307086614173,
                    "duration": 0.20892860624999798
                },
                {
                    "name": "B4",
                    "midi": 71,
                    "time": 166.07145624999993,
                    "velocity": 0.4251968503937008,
                    "duration": 0.21071432083331842
                },
                {
                    "name": "F#4",
                    "midi": 66,
                    "time": 166.2857419999999,
                    "velocity": 0.3937007874015748,
                    "duration": 0.20892860624999798
                },
                {
                    "name": "A4",
                    "midi": 69,
                    "time": 166.2857419999999,
                    "velocity": 0.4645669291338583,
                    "duration": 0.20892860624999798
                },
                {
                    "name": "G4",
                    "midi": 67,
                    "time": 166.5000277499999,
                    "velocity": 0.33858267716535434,
                    "duration": 0.20892860624999798
                },
                {
                    "name": "B4",
                    "midi": 71,
                    "time": 166.5000277499999,
                    "velocity": 0.4015748031496063,
                    "duration": 0.20892860624999798
                },
                {
                    "name": "F#4",
                    "midi": 66,
                    "time": 166.7143134999999,
                    "velocity": 0.3700787401574803,
                    "duration": 0.20892860624999798
                },
                {
                    "name": "A4",
                    "midi": 69,
                    "time": 166.7143134999999,
                    "velocity": 0.4409448818897638,
                    "duration": 0.20892860624999798
                },
                {
                    "name": "E4",
                    "midi": 64,
                    "time": 166.92859924999988,
                    "velocity": 0.33858267716535434,
                    "duration": 0.21428574999998773
                },
                {
                    "name": "F#4",
                    "midi": 66,
                    "time": 166.92859924999988,
                    "velocity": 0.4015748031496063,
                    "duration": 0.21428574999998773
                },
                {
                    "name": "D#4",
                    "midi": 63,
                    "time": 167.14288499999986,
                    "velocity": 0.30708661417322836,
                    "duration": 0.19285717500000032
                },
                {
                    "name": "B4",
                    "midi": 71,
                    "time": 167.14288499999986,
                    "velocity": 0.36220472440944884,
                    "duration": 0.19285717500000032
                },
                {
                    "name": "B4",
                    "midi": 71,
                    "time": 167.57145649999987,
                    "velocity": 0.3858267716535433,
                    "duration": 0.6250001041666735
                },
                {
                    "name": "D#4",
                    "midi": 63,
                    "time": 167.57145649999987,
                    "velocity": 0.3228346456692913,
                    "duration": 0.6250001041666735
                },
                {
                    "name": "F#4",
                    "midi": 66,
                    "time": 168.2143137499999,
                    "velocity": 0.3543307086614173,
                    "duration": 0.20892860624999798
                },
                {
                    "name": "A4",
                    "midi": 69,
                    "time": 168.2143137499999,
                    "velocity": 0.41732283464566927,
                    "duration": 0.21071432083331842
                },
                {
                    "name": "A4",
                    "midi": 69,
                    "time": 168.42859949999988,
                    "velocity": 0.3858267716535433,
                    "duration": 0.20892860624999798
                },
                {
                    "name": "C5",
                    "midi": 72,
                    "time": 168.42859949999988,
                    "velocity": 0.4566929133858268,
                    "duration": 0.20892860624999798
                },
                {
                    "name": "G4",
                    "midi": 67,
                    "time": 168.64288524999986,
                    "velocity": 0.3543307086614173,
                    "duration": 0.20892860624999798
                },
                {
                    "name": "B4",
                    "midi": 71,
                    "time": 168.64288524999986,
                    "velocity": 0.4251968503937008,
                    "duration": 0.21071432083331842
                },
                {
                    "name": "F#4",
                    "midi": 66,
                    "time": 168.85717099999985,
                    "velocity": 0.3937007874015748,
                    "duration": 0.20892860624999798
                },
                {
                    "name": "A4",
                    "midi": 69,
                    "time": 168.85717099999985,
                    "velocity": 0.4645669291338583,
                    "duration": 0.20892860624999798
                },
                {
                    "name": "G4",
                    "midi": 67,
                    "time": 169.07145674999984,
                    "velocity": 0.33858267716535434,
                    "duration": 0.20892860624999798
                },
                {
                    "name": "B4",
                    "midi": 71,
                    "time": 169.07145674999984,
                    "velocity": 0.4015748031496063,
                    "duration": 0.20892860624999798
                },
                {
                    "name": "F#4",
                    "midi": 66,
                    "time": 169.28574249999983,
                    "velocity": 0.3700787401574803,
                    "duration": 0.20892860624999798
                },
                {
                    "name": "A4",
                    "midi": 69,
                    "time": 169.28574249999983,
                    "velocity": 0.4409448818897638,
                    "duration": 0.20892860624999798
                },
                {
                    "name": "E4",
                    "midi": 64,
                    "time": 169.50002824999981,
                    "velocity": 0.33858267716535434,
                    "duration": 0.21428574999998773
                },
                {
                    "name": "F#4",
                    "midi": 66,
                    "time": 169.50002824999981,
                    "velocity": 0.4015748031496063,
                    "duration": 0.21428574999998773
                },
                {
                    "name": "D#4",
                    "midi": 63,
                    "time": 169.7143139999998,
                    "velocity": 0.30708661417322836,
                    "duration": 0.19285717500000032
                },
                {
                    "name": "B4",
                    "midi": 71,
                    "time": 169.7143139999998,
                    "velocity": 0.36220472440944884,
                    "duration": 0.19285717500000032
                },
                {
                    "name": "B4",
                    "midi": 71,
                    "time": 170.1428854999998,
                    "velocity": 0.3779527559055118,
                    "duration": 0.8392858541666612
                },
                {
                    "name": "D#4",
                    "midi": 63,
                    "time": 170.1428854999998,
                    "velocity": 0.31496062992125984,
                    "duration": 0.8392858541666612
                },
                {
                    "name": "D#4",
                    "midi": 63,
                    "time": 171.00002849999981,
                    "velocity": 0.36220472440944884,
                    "duration": 0.8571430000000078
                },
                {
                    "name": "B4",
                    "midi": 71,
                    "time": 171.00002849999981,
                    "velocity": 0.36220472440944884,
                    "duration": 0.8571430000000078
                },
                {
                    "name": "D#4",
                    "midi": 63,
                    "time": 171.85717149999982,
                    "velocity": 0.3543307086614173,
                    "duration": 0.4285715000000039
                },
                {
                    "name": "B4",
                    "midi": 71,
                    "time": 171.85717149999982,
                    "velocity": 0.3543307086614173,
                    "duration": 0.4285715000000039
                },
                {
                    "name": "D#4",
                    "midi": 63,
                    "time": 172.28574299999983,
                    "velocity": 0.2755905511811024,
                    "duration": 0.19285717500000032
                },
                {
                    "name": "B4",
                    "midi": 71,
                    "time": 172.28574299999983,
                    "velocity": 0.3228346456692913,
                    "duration": 0.19285717500000032
                },
                {
                    "name": "B4",
                    "midi": 71,
                    "time": 172.71431449999983,
                    "velocity": 0.33858267716535434,
                    "duration": 0.8392858541666612
                },
                {
                    "name": "D#4",
                    "midi": 63,
                    "time": 172.71431449999983,
                    "velocity": 0.28346456692913385,
                    "duration": 0.8392858541666612
                },
                {
                    "name": "D#4",
                    "midi": 63,
                    "time": 173.57145749999984,
                    "velocity": 0.3228346456692913,
                    "duration": 0.8571430000000078
                },
                {
                    "name": "B4",
                    "midi": 71,
                    "time": 173.57145749999984,
                    "velocity": 0.3228346456692913,
                    "duration": 0.8571430000000078
                },
                {
                    "name": "D#4",
                    "midi": 63,
                    "time": 174.42860049999985,
                    "velocity": 0.31496062992125984,
                    "duration": 0.4285715000000039
                },
                {
                    "name": "B4",
                    "midi": 71,
                    "time": 174.42860049999985,
                    "velocity": 0.31496062992125984,
                    "duration": 0.4285715000000039
                },
                {
                    "name": "G4",
                    "midi": 67,
                    "time": 174.85717199999985,
                    "velocity": 0.2677165354330709,
                    "duration": 0.19285717500000032
                },
                {
                    "name": "B4",
                    "midi": 71,
                    "time": 174.85717199999985,
                    "velocity": 0.31496062992125984,
                    "duration": 0.19285717500000032
                },
                {
                    "name": "G4",
                    "midi": 67,
                    "time": 175.28574349999985,
                    "velocity": 0.30708661417322836,
                    "duration": 0.6250001041666735
                },
                {
                    "name": "B4",
                    "midi": 71,
                    "time": 175.28574349999985,
                    "velocity": 0.3700787401574803,
                    "duration": 0.6250001041666735
                },
                {
                    "name": "D4",
                    "midi": 62,
                    "time": 175.92860074999987,
                    "velocity": 0.2755905511811024,
                    "duration": 0.21071432083334685
                },
                {
                    "name": "A4",
                    "midi": 69,
                    "time": 175.92860074999987,
                    "velocity": 0.3228346456692913,
                    "duration": 0.21071432083334685
                },
                {
                    "name": "G4",
                    "midi": 67,
                    "time": 176.1428864999999,
                    "velocity": 0.28346456692913385,
                    "duration": 0.21071432083334685
                },
                {
                    "name": "B4",
                    "midi": 71,
                    "time": 176.1428864999999,
                    "velocity": 0.33858267716535434,
                    "duration": 0.21071432083334685
                },
                {
                    "name": "D5",
                    "midi": 74,
                    "time": 176.3571722499999,
                    "velocity": 0.3228346456692913,
                    "duration": 0.20892860624999798
                },
                {
                    "name": "A4",
                    "midi": 69,
                    "time": 176.3571722499999,
                    "velocity": 0.2677165354330709,
                    "duration": 0.21071432083331842
                },
                {
                    "name": "G4",
                    "midi": 67,
                    "time": 176.5714579999999,
                    "velocity": 0.28346456692913385,
                    "duration": 0.21071432083334685
                },
                {
                    "name": "B4",
                    "midi": 71,
                    "time": 176.5714579999999,
                    "velocity": 0.33858267716535434,
                    "duration": 0.21071432083334685
                },
                {
                    "name": "D4",
                    "midi": 62,
                    "time": 176.7857437499999,
                    "velocity": 0.2992125984251969,
                    "duration": 0.21071432083334685
                },
                {
                    "name": "A4",
                    "midi": 69,
                    "time": 176.7857437499999,
                    "velocity": 0.2992125984251969,
                    "duration": 0.21071432083334685
                },
                {
                    "name": "G4",
                    "midi": 67,
                    "time": 177.00002949999993,
                    "velocity": 0.2755905511811024,
                    "duration": 0.21071432083334685
                },
                {
                    "name": "B4",
                    "midi": 71,
                    "time": 177.00002949999993,
                    "velocity": 0.3228346456692913,
                    "duration": 0.21071432083334685
                },
                {
                    "name": "A4",
                    "midi": 69,
                    "time": 177.21431524999994,
                    "velocity": 0.2992125984251969,
                    "duration": 0.21428574999998773
                },
                {
                    "name": "D5",
                    "midi": 74,
                    "time": 177.21431524999994,
                    "velocity": 0.2992125984251969,
                    "duration": 0.21428574999998773
                },
                {
                    "name": "G4",
                    "midi": 67,
                    "time": 177.42860099999993,
                    "velocity": 0.2677165354330709,
                    "duration": 0.19285717500000032
                },
                {
                    "name": "B4",
                    "midi": 71,
                    "time": 177.42860099999993,
                    "velocity": 0.31496062992125984,
                    "duration": 0.19285717500000032
                },
                {
                    "name": "G4",
                    "midi": 67,
                    "time": 177.85717249999993,
                    "velocity": 0.30708661417322836,
                    "duration": 0.6250001041666735
                },
                {
                    "name": "B4",
                    "midi": 71,
                    "time": 177.85717249999993,
                    "velocity": 0.3700787401574803,
                    "duration": 0.6250001041666735
                },
                {
                    "name": "D4",
                    "midi": 62,
                    "time": 178.50002974999995,
                    "velocity": 0.2755905511811024,
                    "duration": 0.21071432083334685
                },
                {
                    "name": "A4",
                    "midi": 69,
                    "time": 178.50002974999995,
                    "velocity": 0.3228346456692913,
                    "duration": 0.21071432083334685
                },
                {
                    "name": "G4",
                    "midi": 67,
                    "time": 178.71431549999997,
                    "velocity": 0.29133858267716534,
                    "duration": 0.21071432083334685
                },
                {
                    "name": "B4",
                    "midi": 71,
                    "time": 178.71431549999997,
                    "velocity": 0.3464566929133858,
                    "duration": 0.21071432083334685
                },
                {
                    "name": "A4",
                    "midi": 69,
                    "time": 178.92860124999999,
                    "velocity": 0.2755905511811024,
                    "duration": 0.21071432083334685
                },
                {
                    "name": "D5",
                    "midi": 74,
                    "time": 178.92860124999999,
                    "velocity": 0.33858267716535434,
                    "duration": 0.21071432083334685
                },
                {
                    "name": "G4",
                    "midi": 67,
                    "time": 179.142887,
                    "velocity": 0.2992125984251969,
                    "duration": 0.21071432083334685
                },
                {
                    "name": "B4",
                    "midi": 71,
                    "time": 179.142887,
                    "velocity": 0.36220472440944884,
                    "duration": 0.21071432083334685
                },
                {
                    "name": "D4",
                    "midi": 62,
                    "time": 179.35717275000002,
                    "velocity": 0.3228346456692913,
                    "duration": 0.21071432083334685
                },
                {
                    "name": "A4",
                    "midi": 69,
                    "time": 179.35717275000002,
                    "velocity": 0.3228346456692913,
                    "duration": 0.21071432083334685
                },
                {
                    "name": "G4",
                    "midi": 67,
                    "time": 179.57145850000003,
                    "velocity": 0.2992125984251969,
                    "duration": 0.21071432083334685
                },
                {
                    "name": "B4",
                    "midi": 71,
                    "time": 179.57145850000003,
                    "velocity": 0.3543307086614173,
                    "duration": 0.21071432083334685
                },
                {
                    "name": "A4",
                    "midi": 69,
                    "time": 179.78574425000005,
                    "velocity": 0.33070866141732286,
                    "duration": 0.21428574999998773
                },
                {
                    "name": "D5",
                    "midi": 74,
                    "time": 179.78574425000005,
                    "velocity": 0.33070866141732286,
                    "duration": 0.21428574999998773
                },
                {
                    "name": "C5",
                    "midi": 72,
                    "time": 180.00003000000004,
                    "velocity": 0.30708661417322836,
                    "duration": 0.19285717500000032
                },
                {
                    "name": "E5",
                    "midi": 76,
                    "time": 180.00003000000004,
                    "velocity": 0.36220472440944884,
                    "duration": 0.19285717500000032
                },
                {
                    "name": "E5",
                    "midi": 76,
                    "time": 180.42860150000004,
                    "velocity": 0.3858267716535433,
                    "duration": 0.6250001041666735
                },
                {
                    "name": "C5",
                    "midi": 72,
                    "time": 180.42860150000004,
                    "velocity": 0.3228346456692913,
                    "duration": 0.6250001041666735
                },
                {
                    "name": "G4",
                    "midi": 67,
                    "time": 181.07145875000006,
                    "velocity": 0.31496062992125984,
                    "duration": 0.20892860624999798
                },
                {
                    "name": "D5",
                    "midi": 74,
                    "time": 181.07145875000006,
                    "velocity": 0.3700787401574803,
                    "duration": 0.21071432083331842
                },
                {
                    "name": "C5",
                    "midi": 72,
                    "time": 181.28574450000005,
                    "velocity": 0.3228346456692913,
                    "duration": 0.20892860624999798
                },
                {
                    "name": "E5",
                    "midi": 76,
                    "time": 181.28574450000005,
                    "velocity": 0.3858267716535433,
                    "duration": 0.21071432083331842
                },
                {
                    "name": "G4",
                    "midi": 67,
                    "time": 181.50003025000004,
                    "velocity": 0.30708661417322836,
                    "duration": 0.20892860624999798
                },
                {
                    "name": "D5",
                    "midi": 74,
                    "time": 181.50003025000004,
                    "velocity": 0.3700787401574803,
                    "duration": 0.21071432083331842
                },
                {
                    "name": "E4",
                    "midi": 64,
                    "time": 181.71431600000003,
                    "velocity": 0.3228346456692913,
                    "duration": 0.21071432083331842
                },
                {
                    "name": "C5",
                    "midi": 72,
                    "time": 181.71431600000003,
                    "velocity": 0.3858267716535433,
                    "duration": 0.20892860624999798
                },
                {
                    "name": "D4",
                    "midi": 62,
                    "time": 181.92860175,
                    "velocity": 0.33858267716535434,
                    "duration": 0.21071432083331842
                },
                {
                    "name": "G4",
                    "midi": 67,
                    "time": 181.92860175,
                    "velocity": 0.33858267716535434,
                    "duration": 0.20892860624999798
                },
                {
                    "name": "E4",
                    "midi": 64,
                    "time": 182.1428875,
                    "velocity": 0.31496062992125984,
                    "duration": 0.21071432083331842
                },
                {
                    "name": "C5",
                    "midi": 72,
                    "time": 182.1428875,
                    "velocity": 0.3700787401574803,
                    "duration": 0.20892860624999798
                },
                {
                    "name": "G4",
                    "midi": 67,
                    "time": 182.35717325,
                    "velocity": 0.33858267716535434,
                    "duration": 0.21428574999998773
                },
                {
                    "name": "F5",
                    "midi": 77,
                    "time": 182.35717325,
                    "velocity": 0.33858267716535434,
                    "duration": 0.21428574999998773
                },
                {
                    "name": "C5",
                    "midi": 72,
                    "time": 182.57145899999998,
                    "velocity": 0.30708661417322836,
                    "duration": 0.19285717500000032
                },
                {
                    "name": "E5",
                    "midi": 76,
                    "time": 182.57145899999998,
                    "velocity": 0.36220472440944884,
                    "duration": 0.19285717500000032
                },
                {
                    "name": "E5",
                    "midi": 76,
                    "time": 183.00003049999998,
                    "velocity": 0.3858267716535433,
                    "duration": 0.6250001041666735
                },
                {
                    "name": "C5",
                    "midi": 72,
                    "time": 183.00003049999998,
                    "velocity": 0.3228346456692913,
                    "duration": 0.6250001041666735
                },
                {
                    "name": "C5",
                    "midi": 72,
                    "time": 183.64288775,
                    "velocity": 0.3543307086614173,
                    "duration": 0.20892860624999798
                },
                {
                    "name": "E5",
                    "midi": 76,
                    "time": 183.64288775,
                    "velocity": 0.41732283464566927,
                    "duration": 0.21071432083331842
                },
                {
                    "name": "C5",
                    "midi": 72,
                    "time": 183.8571735,
                    "velocity": 0.3858267716535433,
                    "duration": 0.20892860624999798
                },
                {
                    "name": "E5",
                    "midi": 76,
                    "time": 183.8571735,
                    "velocity": 0.4566929133858268,
                    "duration": 0.20892860624999798
                },
                {
                    "name": "C5",
                    "midi": 72,
                    "time": 184.07145924999998,
                    "velocity": 0.3543307086614173,
                    "duration": 0.20892860624999798
                },
                {
                    "name": "E5",
                    "midi": 76,
                    "time": 184.07145924999998,
                    "velocity": 0.4251968503937008,
                    "duration": 0.21071432083331842
                },
                {
                    "name": "D5",
                    "midi": 74,
                    "time": 184.28574499999996,
                    "velocity": 0.4566929133858268,
                    "duration": 0.20892860624999798
                },
                {
                    "name": "E5",
                    "midi": 76,
                    "time": 184.28574499999996,
                    "velocity": 0.48031496062992124,
                    "duration": 0.8392858541666328
                },
                {
                    "name": "B4",
                    "midi": 71,
                    "time": 184.50003074999995,
                    "velocity": 0.4330708661417323,
                    "duration": 0.20892860624999798
                },
                {
                    "name": "C#5",
                    "midi": 73,
                    "time": 184.71431649999994,
                    "velocity": 0.4409448818897638,
                    "duration": 0.20892860624999798
                },
                {
                    "name": "D5",
                    "midi": 74,
                    "time": 184.92860224999993,
                    "velocity": 0.41732283464566927,
                    "duration": 0.21428575000001615
                },
                {
                    "name": "C#5",
                    "midi": 73,
                    "time": 185.14288799999994,
                    "velocity": 0.47244094488188976,
                    "duration": 0.19285717500000032
                },
                {
                    "name": "E5",
                    "midi": 76,
                    "time": 185.14288799999994,
                    "velocity": 0.47244094488188976,
                    "duration": 0.19285717500000032
                },
                {
                    "name": "E5",
                    "midi": 76,
                    "time": 185.57145949999995,
                    "velocity": 0.49606299212598426,
                    "duration": 0.6250001041666735
                },
                {
                    "name": "C#5",
                    "midi": 73,
                    "time": 185.57145949999995,
                    "velocity": 0.49606299212598426,
                    "duration": 0.6250001041666735
                },
                {
                    "name": "E5",
                    "midi": 76,
                    "time": 186.21431674999997,
                    "velocity": 0.3858267716535433,
                    "duration": 0.20892860624999798
                },
                {
                    "name": "G5",
                    "midi": 79,
                    "time": 186.21431674999997,
                    "velocity": 0.4566929133858268,
                    "duration": 0.20892860624999798
                },
                {
                    "name": "G5",
                    "midi": 79,
                    "time": 186.42860249999995,
                    "velocity": 0.41732283464566927,
                    "duration": 0.20892860624999798
                },
                {
                    "name": "A#5",
                    "midi": 82,
                    "time": 186.42860249999995,
                    "velocity": 0.49606299212598426,
                    "duration": 0.20892860624999798
                },
                {
                    "name": "F5",
                    "midi": 77,
                    "time": 186.64288824999994,
                    "velocity": 0.3779527559055118,
                    "duration": 0.20892860624999798
                },
                {
                    "name": "A5",
                    "midi": 81,
                    "time": 186.64288824999994,
                    "velocity": 0.4566929133858268,
                    "duration": 0.21071432083331842
                },
                {
                    "name": "E5",
                    "midi": 76,
                    "time": 186.85717399999993,
                    "velocity": 0.41732283464566927,
                    "duration": 0.20892860624999798
                },
                {
                    "name": "G5",
                    "midi": 79,
                    "time": 186.85717399999993,
                    "velocity": 0.4881889763779528,
                    "duration": 0.20892860624999798
                },
                {
                    "name": "F5",
                    "midi": 77,
                    "time": 187.07145974999992,
                    "velocity": 0.3543307086614173,
                    "duration": 0.20892860624999798
                },
                {
                    "name": "A5",
                    "midi": 81,
                    "time": 187.07145974999992,
                    "velocity": 0.41732283464566927,
                    "duration": 0.20892860624999798
                },
                {
                    "name": "E5",
                    "midi": 76,
                    "time": 187.2857454999999,
                    "velocity": 0.3779527559055118,
                    "duration": 0.20892860624999798
                },
                {
                    "name": "G5",
                    "midi": 79,
                    "time": 187.2857454999999,
                    "velocity": 0.44881889763779526,
                    "duration": 0.20892860624999798
                },
                {
                    "name": "D5",
                    "midi": 74,
                    "time": 187.5000312499999,
                    "velocity": 0.33858267716535434,
                    "duration": 0.21428574999998773
                },
                {
                    "name": "E5",
                    "midi": 76,
                    "time": 187.5000312499999,
                    "velocity": 0.4094488188976378,
                    "duration": 0.21428574999998773
                },
                {
                    "name": "C#5",
                    "midi": 73,
                    "time": 187.71431699999988,
                    "velocity": 0.30708661417322836,
                    "duration": 0.19285717500000032
                },
                {
                    "name": "A5",
                    "midi": 81,
                    "time": 187.71431699999988,
                    "velocity": 0.36220472440944884,
                    "duration": 0.19285717500000032
                },
                {
                    "name": "A5",
                    "midi": 81,
                    "time": 188.14288849999988,
                    "velocity": 0.41732283464566927,
                    "duration": 0.6250001041666735
                },
                {
                    "name": "C#5",
                    "midi": 73,
                    "time": 188.14288849999988,
                    "velocity": 0.3543307086614173,
                    "duration": 0.6250001041666735
                },
                {
                    "name": "E5",
                    "midi": 76,
                    "time": 188.7857457499999,
                    "velocity": 0.3543307086614173,
                    "duration": 0.20892860624999798
                },
                {
                    "name": "G5",
                    "midi": 79,
                    "time": 188.7857457499999,
                    "velocity": 0.41732283464566927,
                    "duration": 0.20892860624999798
                },
                {
                    "name": "G5",
                    "midi": 79,
                    "time": 189.0000314999999,
                    "velocity": 0.3858267716535433,
                    "duration": 0.20892860624999798
                },
                {
                    "name": "A#5",
                    "midi": 82,
                    "time": 189.0000314999999,
                    "velocity": 0.4566929133858268,
                    "duration": 0.20892860624999798
                },
                {
                    "name": "F5",
                    "midi": 77,
                    "time": 189.21431724999988,
                    "velocity": 0.3543307086614173,
                    "duration": 0.20892860624999798
                },
                {
                    "name": "A5",
                    "midi": 81,
                    "time": 189.21431724999988,
                    "velocity": 0.4251968503937008,
                    "duration": 0.21071432083331842
                },
                {
                    "name": "E5",
                    "midi": 76,
                    "time": 189.42860299999987,
                    "velocity": 0.3937007874015748,
                    "duration": 0.20892860624999798
                },
                {
                    "name": "G5",
                    "midi": 79,
                    "time": 189.42860299999987,
                    "velocity": 0.4645669291338583,
                    "duration": 0.20892860624999798
                },
                {
                    "name": "F5",
                    "midi": 77,
                    "time": 189.64288874999986,
                    "velocity": 0.33858267716535434,
                    "duration": 0.20892860624999798
                },
                {
                    "name": "A5",
                    "midi": 81,
                    "time": 189.64288874999986,
                    "velocity": 0.4015748031496063,
                    "duration": 0.20892860624999798
                },
                {
                    "name": "E5",
                    "midi": 76,
                    "time": 189.85717449999984,
                    "velocity": 0.3700787401574803,
                    "duration": 0.20892860624999798
                },
                {
                    "name": "G5",
                    "midi": 79,
                    "time": 189.85717449999984,
                    "velocity": 0.4409448818897638,
                    "duration": 0.20892860624999798
                },
                {
                    "name": "D5",
                    "midi": 74,
                    "time": 190.07146024999983,
                    "velocity": 0.33858267716535434,
                    "duration": 0.21428574999998773
                },
                {
                    "name": "E5",
                    "midi": 76,
                    "time": 190.07146024999983,
                    "velocity": 0.4015748031496063,
                    "duration": 0.21428574999998773
                },
                {
                    "name": "C#5",
                    "midi": 73,
                    "time": 190.28574599999982,
                    "velocity": 0.30708661417322836,
                    "duration": 0.19285717500000032
                },
                {
                    "name": "A5",
                    "midi": 81,
                    "time": 190.28574599999982,
                    "velocity": 0.36220472440944884,
                    "duration": 0.19285717500000032
                },
                {
                    "name": "A5",
                    "midi": 81,
                    "time": 190.71431749999982,
                    "velocity": 0.3779527559055118,
                    "duration": 0.8392858541666612
                },
                {
                    "name": "C#5",
                    "midi": 73,
                    "time": 190.71431749999982,
                    "velocity": 0.31496062992125984,
                    "duration": 0.8392858541666612
                },
                {
                    "name": "C#5",
                    "midi": 73,
                    "time": 191.57146049999983,
                    "velocity": 0.36220472440944884,
                    "duration": 0.8571430000000078
                },
                {
                    "name": "A5",
                    "midi": 81,
                    "time": 191.57146049999983,
                    "velocity": 0.36220472440944884,
                    "duration": 0.8571430000000078
                },
                {
                    "name": "C#5",
                    "midi": 73,
                    "time": 192.42860349999984,
                    "velocity": 0.3543307086614173,
                    "duration": 0.4285715000000039
                },
                {
                    "name": "A5",
                    "midi": 81,
                    "time": 192.42860349999984,
                    "velocity": 0.3543307086614173,
                    "duration": 0.4285715000000039
                },
                {
                    "name": "C#5",
                    "midi": 73,
                    "time": 192.85717499999984,
                    "velocity": 0.31496062992125984,
                    "duration": 0.19285717500000032
                },
                {
                    "name": "A5",
                    "midi": 81,
                    "time": 192.85717499999984,
                    "velocity": 0.3779527559055118,
                    "duration": 0.19285717500000032
                },
                {
                    "name": "A5",
                    "midi": 81,
                    "time": 193.28574649999985,
                    "velocity": 0.4409448818897638,
                    "duration": 0.8392858541666612
                },
                {
                    "name": "C#5",
                    "midi": 73,
                    "time": 193.28574649999985,
                    "velocity": 0.3700787401574803,
                    "duration": 0.8392858541666612
                },
                {
                    "name": "A4",
                    "midi": 69,
                    "time": 194.35717524999984,
                    "velocity": 0.5984251968503937,
                    "duration": 0.21428574999998773
                },
                {
                    "name": "F#4",
                    "midi": 66,
                    "time": 194.57146099999983,
                    "velocity": 0.5354330708661418,
                    "duration": 0.19285717500000032
                },
                {
                    "name": "D5",
                    "midi": 74,
                    "time": 194.57146099999983,
                    "velocity": 0.6377952755905512,
                    "duration": 0.19285717500000032
                },
                {
                    "name": "D5",
                    "midi": 74,
                    "time": 194.78574674999982,
                    "velocity": 0.5905511811023622,
                    "duration": 0.4285715000000039
                },
                {
                    "name": "F#4",
                    "midi": 66,
                    "time": 194.78574674999982,
                    "velocity": 0.49606299212598426,
                    "duration": 0.4285715000000039
                },
                {
                    "name": "A4",
                    "midi": 69,
                    "time": 195.21431824999982,
                    "velocity": 0.5039370078740157,
                    "duration": 0.21428574999998773
                },
                {
                    "name": "E5",
                    "midi": 76,
                    "time": 195.21431824999982,
                    "velocity": 0.5984251968503937,
                    "duration": 0.21428574999998773
                },
                {
                    "name": "D5",
                    "midi": 74,
                    "time": 195.4286039999998,
                    "velocity": 0.5748031496062992,
                    "duration": 0.38571435000000065
                },
                {
                    "name": "F#5",
                    "midi": 78,
                    "time": 195.4286039999998,
                    "velocity": 0.6771653543307087,
                    "duration": 0.38571435000000065
                },
                {
                    "name": "D5",
                    "midi": 74,
                    "time": 195.8571754999998,
                    "velocity": 0.5669291338582677,
                    "duration": 0.6375001062500019
                },
                {
                    "name": "F#5",
                    "midi": 78,
                    "time": 195.8571754999998,
                    "velocity": 0.6692913385826772,
                    "duration": 0.6375001062500019
                },
                {
                    "name": "D5",
                    "midi": 74,
                    "time": 196.5000327499998,
                    "velocity": 0.5748031496062992,
                    "duration": 0.4285715000000039
                },
                {
                    "name": "F#5",
                    "midi": 78,
                    "time": 196.5000327499998,
                    "velocity": 0.6771653543307087,
                    "duration": 0.4285715000000039
                },
                {
                    "name": "A4",
                    "midi": 69,
                    "time": 196.9286042499998,
                    "velocity": 0.5118110236220472,
                    "duration": 0.21428574999998773
                },
                {
                    "name": "E5",
                    "midi": 76,
                    "time": 196.9286042499998,
                    "velocity": 0.6062992125984252,
                    "duration": 0.21428574999998773
                },
                {
                    "name": "F#4",
                    "midi": 66,
                    "time": 197.1428899999998,
                    "velocity": 0.5118110236220472,
                    "duration": 0.19285717500000032
                },
                {
                    "name": "D5",
                    "midi": 74,
                    "time": 197.1428899999998,
                    "velocity": 0.6062992125984252,
                    "duration": 0.19285717500000032
                },
                {
                    "name": "B4",
                    "midi": 71,
                    "time": 197.35717574999978,
                    "velocity": 0.5748031496062992,
                    "duration": 0.4285715000000039
                },
                {
                    "name": "D5",
                    "midi": 74,
                    "time": 197.35717574999978,
                    "velocity": 0.6771653543307087,
                    "duration": 0.4285715000000039
                },
                {
                    "name": "F#4",
                    "midi": 66,
                    "time": 197.7857472499998,
                    "velocity": 0.5039370078740157,
                    "duration": 0.21428574999998773
                },
                {
                    "name": "C#5",
                    "midi": 73,
                    "time": 197.7857472499998,
                    "velocity": 0.5984251968503937,
                    "duration": 0.21428574999998773
                },
                {
                    "name": "D4",
                    "midi": 62,
                    "time": 198.00003299999977,
                    "velocity": 0.5354330708661418,
                    "duration": 0.38571435000000065
                },
                {
                    "name": "B4",
                    "midi": 71,
                    "time": 198.00003299999977,
                    "velocity": 0.6299212598425197,
                    "duration": 0.38571435000000065
                },
                {
                    "name": "G4",
                    "midi": 67,
                    "time": 198.42860449999978,
                    "velocity": 0.5748031496062992,
                    "duration": 0.8571430000000078
                },
                {
                    "name": "B4",
                    "midi": 71,
                    "time": 198.42860449999978,
                    "velocity": 0.6771653543307087,
                    "duration": 0.8571430000000078
                },
                {
                    "name": "B4",
                    "midi": 71,
                    "time": 199.2857474999998,
                    "velocity": 0.5984251968503937,
                    "duration": 0.4285715000000039
                },
                {
                    "name": "G4",
                    "midi": 67,
                    "time": 199.7143189999998,
                    "velocity": 0.5354330708661418,
                    "duration": 0.19285717500000032
                },
                {
                    "name": "E5",
                    "midi": 76,
                    "time": 199.7143189999998,
                    "velocity": 0.6377952755905512,
                    "duration": 0.19285717500000032
                },
                {
                    "name": "E5",
                    "midi": 76,
                    "time": 199.92860474999978,
                    "velocity": 0.5905511811023622,
                    "duration": 0.4285715000000039
                },
                {
                    "name": "G4",
                    "midi": 67,
                    "time": 199.92860474999978,
                    "velocity": 0.49606299212598426,
                    "duration": 0.4285715000000039
                },
                {
                    "name": "B4",
                    "midi": 71,
                    "time": 200.35717624999978,
                    "velocity": 0.5039370078740157,
                    "duration": 0.21428574999998773
                },
                {
                    "name": "F#5",
                    "midi": 78,
                    "time": 200.35717624999978,
                    "velocity": 0.5984251968503937,
                    "duration": 0.21428574999998773
                },
                {
                    "name": "E5",
                    "midi": 76,
                    "time": 200.57146199999977,
                    "velocity": 0.5748031496062992,
                    "duration": 0.38571435000000065
                },
                {
                    "name": "G5",
                    "midi": 79,
                    "time": 200.57146199999977,
                    "velocity": 0.6771653543307087,
                    "duration": 0.38571435000000065
                },
                {
                    "name": "E5",
                    "midi": 76,
                    "time": 201.00003349999977,
                    "velocity": 0.5669291338582677,
                    "duration": 0.6375001062500019
                },
                {
                    "name": "G5",
                    "midi": 79,
                    "time": 201.00003349999977,
                    "velocity": 0.6692913385826772,
                    "duration": 0.6375001062500019
                },
                {
                    "name": "E5",
                    "midi": 76,
                    "time": 201.64289074999976,
                    "velocity": 0.5748031496062992,
                    "duration": 0.4285715000000039
                },
                {
                    "name": "G5",
                    "midi": 79,
                    "time": 201.64289074999976,
                    "velocity": 0.6771653543307087,
                    "duration": 0.4285715000000039
                },
                {
                    "name": "B4",
                    "midi": 71,
                    "time": 202.07146224999977,
                    "velocity": 0.49606299212598426,
                    "duration": 0.21428574999998773
                },
                {
                    "name": "F5",
                    "midi": 77,
                    "time": 202.07146224999977,
                    "velocity": 0.5826771653543307,
                    "duration": 0.21428574999998773
                },
                {
                    "name": "G4",
                    "midi": 67,
                    "time": 202.28574799999976,
                    "velocity": 0.5118110236220472,
                    "duration": 0.19285717500000032
                },
                {
                    "name": "E5",
                    "midi": 76,
                    "time": 202.28574799999976,
                    "velocity": 0.6062992125984252,
                    "duration": 0.19285717500000032
                },
                {
                    "name": "C5",
                    "midi": 72,
                    "time": 202.50003374999974,
                    "velocity": 0.5748031496062992,
                    "duration": 0.4285715000000039
                },
                {
                    "name": "E5",
                    "midi": 76,
                    "time": 202.50003374999974,
                    "velocity": 0.6771653543307087,
                    "duration": 0.4285715000000039
                },
                {
                    "name": "G#4",
                    "midi": 68,
                    "time": 202.92860524999975,
                    "velocity": 0.4881889763779528,
                    "duration": 0.21428574999998773
                },
                {
                    "name": "D5",
                    "midi": 74,
                    "time": 202.92860524999975,
                    "velocity": 0.5748031496062992,
                    "duration": 0.21428574999998773
                },
                {
                    "name": "E4",
                    "midi": 64,
                    "time": 203.14289099999974,
                    "velocity": 0.5354330708661418,
                    "duration": 0.19285717500000032
                },
                {
                    "name": "C5",
                    "midi": 72,
                    "time": 203.14289099999974,
                    "velocity": 0.6299212598425197,
                    "duration": 0.19285717500000032
                },
                {
                    "name": "E4",
                    "midi": 64,
                    "time": 203.57146249999974,
                    "velocity": 0.5748031496062992,
                    "duration": 0.6375001062499734
                },
                {
                    "name": "C5",
                    "midi": 72,
                    "time": 203.57146249999974,
                    "velocity": 0.6771653543307087,
                    "duration": 0.635714391666653
                },
                {
                    "name": "C4",
                    "midi": 60,
                    "time": 204.2143197499997,
                    "velocity": 0.5748031496062992,
                    "duration": 0.4285715000000039
                },
                {
                    "name": "A4",
                    "midi": 69,
                    "time": 204.2143197499997,
                    "velocity": 0.5748031496062992,
                    "duration": 0.4250000708333346
                },
                {
                    "name": "C5",
                    "midi": 72,
                    "time": 204.2143197499997,
                    "velocity": 0.6771653543307087,
                    "duration": 0.4285715000000039
                },
                {
                    "name": "D4",
                    "midi": 62,
                    "time": 204.6428912499997,
                    "velocity": 0.49606299212598426,
                    "duration": 0.21428574999998773
                },
                {
                    "name": "A4",
                    "midi": 69,
                    "time": 204.6428912499997,
                    "velocity": 0.49606299212598426,
                    "duration": 0.42857149999997546
                },
                {
                    "name": "D5",
                    "midi": 74,
                    "time": 204.6428912499997,
                    "velocity": 0.5826771653543307,
                    "duration": 0.21428574999998773
                },
                {
                    "name": "E4",
                    "midi": 64,
                    "time": 204.8571769999997,
                    "velocity": 0.5118110236220472,
                    "duration": 0.19285717500000032
                },
                {
                    "name": "E5",
                    "midi": 76,
                    "time": 204.8571769999997,
                    "velocity": 0.6062992125984252,
                    "duration": 0.19285717500000032
                },
                {
                    "name": "F4",
                    "midi": 65,
                    "time": 205.07146274999968,
                    "velocity": 0.5748031496062992,
                    "duration": 0.4285715000000039
                },
                {
                    "name": "D5",
                    "midi": 74,
                    "time": 205.07146274999968,
                    "velocity": 0.5748031496062992,
                    "duration": 0.4285715000000039
                },
                {
                    "name": "F5",
                    "midi": 77,
                    "time": 205.07146274999968,
                    "velocity": 0.6771653543307087,
                    "duration": 0.4285715000000039
                },
                {
                    "name": "D5",
                    "midi": 74,
                    "time": 205.5000342499997,
                    "velocity": 0.5039370078740157,
                    "duration": 0.21428574999998773
                },
                {
                    "name": "G4",
                    "midi": 67,
                    "time": 205.5000342499997,
                    "velocity": 0.5039370078740157,
                    "duration": 0.21428574999998773
                },
                {
                    "name": "G5",
                    "midi": 79,
                    "time": 205.5000342499997,
                    "velocity": 0.5984251968503937,
                    "duration": 0.21428574999998773
                },
                {
                    "name": "A4",
                    "midi": 69,
                    "time": 205.71431999999967,
                    "velocity": 0.5354330708661418,
                    "duration": 0.21428574999998773
                },
                {
                    "name": "C5",
                    "midi": 72,
                    "time": 205.71431999999967,
                    "velocity": 0.5354330708661418,
                    "duration": 0.19285717500000032
                },
                {
                    "name": "A5",
                    "midi": 81,
                    "time": 205.71431999999967,
                    "velocity": 0.6299212598425197,
                    "duration": 0.19285717500000032
                },
                {
                    "name": "A4",
                    "midi": 69,
                    "time": 206.14289149999965,
                    "velocity": 0.5748031496062992,
                    "duration": 0.6375001062499734
                },
                {
                    "name": "C5",
                    "midi": 72,
                    "time": 206.14289149999965,
                    "velocity": 0.5748031496062992,
                    "duration": 0.635714391666653
                },
                {
                    "name": "A5",
                    "midi": 81,
                    "time": 206.14289149999965,
                    "velocity": 0.6771653543307087,
                    "duration": 0.6375001062499734
                },
                {
                    "name": "F4",
                    "midi": 65,
                    "time": 206.7857487499996,
                    "velocity": 0.5511811023622047,
                    "duration": 0.20892860624999798
                },
                {
                    "name": "C5",
                    "midi": 72,
                    "time": 206.7857487499996,
                    "velocity": 0.6535433070866141,
                    "duration": 0.20892860624999798
                },
                {
                    "name": "F4",
                    "midi": 65,
                    "time": 207.0000344999996,
                    "velocity": 0.5748031496062992,
                    "duration": 0.20892860624999798
                },
                {
                    "name": "A4",
                    "midi": 69,
                    "time": 207.0000344999996,
                    "velocity": 0.5748031496062992,
                    "duration": 0.21071432083331842
                },
                {
                    "name": "F5",
                    "midi": 77,
                    "time": 207.0000344999996,
                    "velocity": 0.6771653543307087,
                    "duration": 0.20892860624999798
                },
                {
                    "name": "F4",
                    "midi": 65,
                    "time": 207.2143202499996,
                    "velocity": 0.5433070866141733,
                    "duration": 0.20892860624999798
                },
                {
                    "name": "C5",
                    "midi": 72,
                    "time": 207.2143202499996,
                    "velocity": 0.6456692913385826,
                    "duration": 0.20892860624999798
                },
                {
                    "name": "F4",
                    "midi": 65,
                    "time": 207.42860599999958,
                    "velocity": 0.5748031496062992,
                    "duration": 0.20892860624999798
                },
                {
                    "name": "A4",
                    "midi": 69,
                    "time": 207.42860599999958,
                    "velocity": 0.6771653543307087,
                    "duration": 0.21071432083331842
                },
                {
                    "name": "F4",
                    "midi": 65,
                    "time": 207.64289174999956,
                    "velocity": 0.6299212598425197,
                    "duration": 0.20892860624999798
                },
                {
                    "name": "F4",
                    "midi": 65,
                    "time": 207.85717749999955,
                    "velocity": 0.5511811023622047,
                    "duration": 0.20892860624999798
                },
                {
                    "name": "A4",
                    "midi": 69,
                    "time": 207.85717749999955,
                    "velocity": 0.6535433070866141,
                    "duration": 0.21071432083331842
                },
                {
                    "name": "F4",
                    "midi": 65,
                    "time": 208.07146324999954,
                    "velocity": 0.5275590551181102,
                    "duration": 0.21428574999998773
                },
                {
                    "name": "C5",
                    "midi": 72,
                    "time": 208.07146324999954,
                    "velocity": 0.6299212598425197,
                    "duration": 0.21428574999998773
                },
                {
                    "name": "A4",
                    "midi": 69,
                    "time": 208.07146324999954,
                    "velocity": 0.5275590551181102,
                    "duration": 0.21428574999998773
                },
                {
                    "name": "A#4",
                    "midi": 70,
                    "time": 208.28574899999953,
                    "velocity": 0.5354330708661418,
                    "duration": 0.21428574999998773
                },
                {
                    "name": "D4",
                    "midi": 62,
                    "time": 208.28574899999953,
                    "velocity": 0.5354330708661418,
                    "duration": 0.21428574999998773
                },
                {
                    "name": "F4",
                    "midi": 65,
                    "time": 208.28574899999953,
                    "velocity": 0.5354330708661418,
                    "duration": 0.19285717500000032
                },
                {
                    "name": "D5",
                    "midi": 74,
                    "time": 208.28574899999953,
                    "velocity": 0.6299212598425197,
                    "duration": 0.19285717500000032
                },
                {
                    "name": "A#4",
                    "midi": 70,
                    "time": 208.7143204999995,
                    "velocity": 0.5748031496062992,
                    "duration": 0.635714391666653
                },
                {
                    "name": "D4",
                    "midi": 62,
                    "time": 208.7143204999995,
                    "velocity": 0.5748031496062992,
                    "duration": 0.6375001062499734
                },
                {
                    "name": "F4",
                    "midi": 65,
                    "time": 208.7143204999995,
                    "velocity": 0.5748031496062992,
                    "duration": 0.635714391666653
                },
                {
                    "name": "D5",
                    "midi": 74,
                    "time": 208.7143204999995,
                    "velocity": 0.6771653543307087,
                    "duration": 0.6375001062499734
                },
                {
                    "name": "D4",
                    "midi": 62,
                    "time": 209.35717774999947,
                    "velocity": 0.6062992125984252,
                    "duration": 0.4285715000000039
                },
                {
                    "name": "F4",
                    "midi": 65,
                    "time": 209.35717774999947,
                    "velocity": 0.6062992125984252,
                    "duration": 0.4250000708333346
                },
                {
                    "name": "D5",
                    "midi": 74,
                    "time": 209.35717774999947,
                    "velocity": 0.7165354330708661,
                    "duration": 0.4285715000000039
                },
                {
                    "name": "C4",
                    "midi": 60,
                    "time": 209.78574924999947,
                    "velocity": 0.5433070866141733,
                    "duration": 0.21428574999998773
                },
                {
                    "name": "F4",
                    "midi": 65,
                    "time": 209.78574924999947,
                    "velocity": 0.5433070866141733,
                    "duration": 0.21428574999998773
                },
                {
                    "name": "C5",
                    "midi": 72,
                    "time": 209.78574924999947,
                    "velocity": 0.6456692913385826,
                    "duration": 0.21428574999998773
                },
                {
                    "name": "D4",
                    "midi": 62,
                    "time": 210.00003499999946,
                    "velocity": 0.5748031496062992,
                    "duration": 0.20357146250000824
                },
                {
                    "name": "F4",
                    "midi": 65,
                    "time": 210.00003499999946,
                    "velocity": 0.5748031496062992,
                    "duration": 0.20357146250000824
                },
                {
                    "name": "D5",
                    "midi": 74,
                    "time": 210.00003499999946,
                    "velocity": 0.6771653543307087,
                    "duration": 0.20357146250000824
                },
                {
                    "name": "D4",
                    "midi": 62,
                    "time": 210.21432074999947,
                    "velocity": 0.6535433070866141,
                    "duration": 0.4285715000000039
                },
                {
                    "name": "F4",
                    "midi": 65,
                    "time": 210.21432074999947,
                    "velocity": 0.6535433070866141,
                    "duration": 0.4285715000000039
                },
                {
                    "name": "D5",
                    "midi": 74,
                    "time": 210.21432074999947,
                    "velocity": 0.6535433070866141,
                    "duration": 0.4285715000000039
                },
                {
                    "name": "D#4",
                    "midi": 63,
                    "time": 210.64289224999948,
                    "velocity": 0.5511811023622047,
                    "duration": 0.21428574999998773
                },
                {
                    "name": "D#5",
                    "midi": 75,
                    "time": 210.64289224999948,
                    "velocity": 0.6535433070866141,
                    "duration": 0.21428574999998773
                },
                {
                    "name": "F4",
                    "midi": 65,
                    "time": 210.64289224999948,
                    "velocity": 0.5511811023622047,
                    "duration": 0.21428574999998773
                },
                {
                    "name": "D4",
                    "midi": 62,
                    "time": 210.85717799999946,
                    "velocity": 0.5354330708661418,
                    "duration": 0.21428574999998773
                },
                {
                    "name": "F4",
                    "midi": 65,
                    "time": 210.85717799999946,
                    "velocity": 0.5354330708661418,
                    "duration": 0.19285717500000032
                },
                {
                    "name": "D5",
                    "midi": 74,
                    "time": 210.85717799999946,
                    "velocity": 0.6299212598425197,
                    "duration": 0.19285717500000032
                },
                {
                    "name": "D4",
                    "midi": 62,
                    "time": 211.28574949999944,
                    "velocity": 0.5748031496062992,
                    "duration": 0.6428572499999916
                },
                {
                    "name": "F4",
                    "midi": 65,
                    "time": 211.28574949999944,
                    "velocity": 0.5748031496062992,
                    "duration": 0.6428572499999916
                },
                {
                    "name": "D5",
                    "midi": 74,
                    "time": 211.28574949999944,
                    "velocity": 0.6771653543307087,
                    "duration": 0.6428572499999916
                },
                {
                    "name": "A#4",
                    "midi": 70,
                    "time": 211.92860674999943,
                    "velocity": 0.5511811023622047,
                    "duration": 0.20892860624999798
                },
                {
                    "name": "F5",
                    "midi": 77,
                    "time": 211.92860674999943,
                    "velocity": 0.6535433070866141,
                    "duration": 0.20892860624999798
                },
                {
                    "name": "A#4",
                    "midi": 70,
                    "time": 212.14289249999942,
                    "velocity": 0.5748031496062992,
                    "duration": 0.20892860624999798
                },
                {
                    "name": "D5",
                    "midi": 74,
                    "time": 212.14289249999942,
                    "velocity": 0.5748031496062992,
                    "duration": 0.21071432083331842
                },
                {
                    "name": "A#5",
                    "midi": 82,
                    "time": 212.14289249999942,
                    "velocity": 0.6771653543307087,
                    "duration": 0.20892860624999798
                },
                {
                    "name": "A#4",
                    "midi": 70,
                    "time": 212.3571782499994,
                    "velocity": 0.5433070866141733,
                    "duration": 0.20892860624999798
                },
                {
                    "name": "F5",
                    "midi": 77,
                    "time": 212.3571782499994,
                    "velocity": 0.6456692913385826,
                    "duration": 0.20892860624999798
                },
                {
                    "name": "A#4",
                    "midi": 70,
                    "time": 212.5714639999994,
                    "velocity": 0.5748031496062992,
                    "duration": 0.20892860624999798
                },
                {
                    "name": "D5",
                    "midi": 74,
                    "time": 212.5714639999994,
                    "velocity": 0.6771653543307087,
                    "duration": 0.21071432083331842
                },
                {
                    "name": "A#4",
                    "midi": 70,
                    "time": 212.78574974999938,
                    "velocity": 0.5511811023622047,
                    "duration": 0.20892860624999798
                },
                {
                    "name": "F5",
                    "midi": 77,
                    "time": 212.78574974999938,
                    "velocity": 0.6299212598425197,
                    "duration": 0.20892860624999798
                },
                {
                    "name": "D5",
                    "midi": 74,
                    "time": 213.00003549999937,
                    "velocity": 0.5511811023622047,
                    "duration": 0.21071432083331842
                },
                {
                    "name": "A#4",
                    "midi": 70,
                    "time": 213.00003549999937,
                    "velocity": 0.5511811023622047,
                    "duration": 0.20892860624999798
                },
                {
                    "name": "A#5",
                    "midi": 82,
                    "time": 213.00003549999937,
                    "velocity": 0.6535433070866141,
                    "duration": 0.20892860624999798
                },
                {
                    "name": "C5",
                    "midi": 72,
                    "time": 213.21432124999936,
                    "velocity": 0.5511811023622047,
                    "duration": 0.21428574999998773
                },
                {
                    "name": "C6",
                    "midi": 84,
                    "time": 213.21432124999936,
                    "velocity": 0.6614173228346457,
                    "duration": 0.21428574999998773
                },
                {
                    "name": "F5",
                    "midi": 77,
                    "time": 213.21432124999936,
                    "velocity": 0.5511811023622047,
                    "duration": 0.21428574999998773
                },
                {
                    "name": "A#5",
                    "midi": 82,
                    "time": 213.42860699999935,
                    "velocity": 0.6141732283464567,
                    "duration": 0.21428574999998773
                },
                {
                    "name": "D5",
                    "midi": 74,
                    "time": 213.42860699999935,
                    "velocity": 0.6141732283464567,
                    "duration": 0.21428574999998773
                },
                {
                    "name": "D6",
                    "midi": 86,
                    "time": 213.42860699999935,
                    "velocity": 0.7244094488188977,
                    "duration": 0.19285717500000032
                },
                {
                    "name": "A#5",
                    "midi": 82,
                    "time": 213.85717849999932,
                    "velocity": 0.6535433070866141,
                    "duration": 0.635714391666653
                },
                {
                    "name": "D5",
                    "midi": 74,
                    "time": 213.85717849999932,
                    "velocity": 0.6535433070866141,
                    "duration": 0.6375001062499734
                },
                {
                    "name": "D6",
                    "midi": 86,
                    "time": 213.85717849999932,
                    "velocity": 0.7716535433070866,
                    "duration": 0.6375001062499734
                },
                {
                    "name": "A#5",
                    "midi": 82,
                    "time": 214.50003574999928,
                    "velocity": 0.7086614173228346,
                    "duration": 0.41071435416665736
                },
                {
                    "name": "D6",
                    "midi": 86,
                    "time": 214.50003574999928,
                    "velocity": 0.7086614173228346,
                    "duration": 0.41071435416665736
                },
                {
                    "name": "A#6",
                    "midi": 94,
                    "time": 214.50003574999928,
                    "velocity": 0.8346456692913385,
                    "duration": 0.41071435416665736
                },
                {
                    "name": "A#5",
                    "midi": 82,
                    "time": 214.9286072499993,
                    "velocity": 0.6850393700787402,
                    "duration": 0.21428574999998773
                },
                {
                    "name": "D6",
                    "midi": 86,
                    "time": 214.9286072499993,
                    "velocity": 0.6850393700787402,
                    "duration": 0.21428574999998773
                },
                {
                    "name": "A#6",
                    "midi": 94,
                    "time": 214.9286072499993,
                    "velocity": 0.8031496062992126,
                    "duration": 0.21428574999998773
                },
                {
                    "name": "A#5",
                    "midi": 82,
                    "time": 215.14289299999928,
                    "velocity": 0.6141732283464567,
                    "duration": 0.21428574999998773
                },
                {
                    "name": "E5",
                    "midi": 76,
                    "time": 215.14289299999928,
                    "velocity": 0.6141732283464567,
                    "duration": 0.21428574999998773
                },
                {
                    "name": "E6",
                    "midi": 88,
                    "time": 215.14289299999928,
                    "velocity": 0.7244094488188977,
                    "duration": 0.19285717500000032
                },
                {
                    "name": "A#5",
                    "midi": 82,
                    "time": 215.57146449999925,
                    "velocity": 0.6535433070866141,
                    "duration": 0.6428572499999916
                },
                {
                    "name": "E5",
                    "midi": 76,
                    "time": 215.57146449999925,
                    "velocity": 0.6535433070866141,
                    "duration": 0.6428572499999916
                },
                {
                    "name": "E6",
                    "midi": 88,
                    "time": 215.57146449999925,
                    "velocity": 0.7716535433070866,
                    "duration": 0.6428572499999916
                },
                {
                    "name": "F5",
                    "midi": 77,
                    "time": 216.21432174999924,
                    "velocity": 0.7086614173228346,
                    "duration": 0.41071435416665736
                },
                {
                    "name": "A5",
                    "midi": 81,
                    "time": 216.21432174999924,
                    "velocity": 0.7086614173228346,
                    "duration": 0.41071435416665736
                },
                {
                    "name": "F6",
                    "midi": 89,
                    "time": 216.21432174999924,
                    "velocity": 0.8346456692913385,
                    "duration": 0.41071435416665736
                },
                {
                    "name": "F5",
                    "midi": 77,
                    "time": 216.64289324999925,
                    "velocity": 0.6850393700787402,
                    "duration": 0.21428574999998773
                },
                {
                    "name": "A5",
                    "midi": 81,
                    "time": 216.64289324999925,
                    "velocity": 0.6850393700787402,
                    "duration": 0.21428574999998773
                },
                {
                    "name": "F6",
                    "midi": 89,
                    "time": 216.64289324999925,
                    "velocity": 0.8031496062992126,
                    "duration": 0.21428574999998773
                },
                {
                    "name": "A4",
                    "midi": 69,
                    "time": 216.85717899999923,
                    "velocity": 0.5354330708661418,
                    "duration": 0.21428574999998773
                },
                {
                    "name": "F4",
                    "midi": 65,
                    "time": 216.85717899999923,
                    "velocity": 0.5354330708661418,
                    "duration": 0.19285717500000032
                },
                {
                    "name": "F5",
                    "midi": 77,
                    "time": 216.85717899999923,
                    "velocity": 0.6299212598425197,
                    "duration": 0.19285717500000032
                },
                {
                    "name": "F4",
                    "midi": 65,
                    "time": 217.2857504999992,
                    "velocity": 0.5748031496062992,
                    "duration": 0.6339286770833326
                },
                {
                    "name": "A4",
                    "midi": 69,
                    "time": 217.2857504999992,
                    "velocity": 0.5748031496062992,
                    "duration": 0.6428572499999916
                },
                {
                    "name": "F5",
                    "midi": 77,
                    "time": 217.2857504999992,
                    "velocity": 0.6771653543307087,
                    "duration": 0.6339286770833326
                },
                {
                    "name": "A4",
                    "midi": 69,
                    "time": 217.9286077499992,
                    "velocity": 0.3700787401574803,
                    "duration": 0.41071435416665736
                },
                {
                    "name": "F4",
                    "midi": 65,
                    "time": 217.9286077499992,
                    "velocity": 0.3700787401574803,
                    "duration": 0.41071435416665736
                },
                {
                    "name": "F5",
                    "midi": 77,
                    "time": 217.9286077499992,
                    "velocity": 0.4409448818897638,
                    "duration": 0.41071435416665736
                },
                {
                    "name": "F4",
                    "midi": 65,
                    "time": 218.3571792499992,
                    "velocity": 0.4015748031496063,
                    "duration": 0.21428574999998773
                },
                {
                    "name": "A4",
                    "midi": 69,
                    "time": 218.3571792499992,
                    "velocity": 0.4015748031496063,
                    "duration": 0.21428574999998773
                },
                {
                    "name": "F5",
                    "midi": 77,
                    "time": 218.3571792499992,
                    "velocity": 0.47244094488188976,
                    "duration": 0.21428574999998773
                },
                {
                    "name": "A4",
                    "midi": 69,
                    "time": 218.5714649999992,
                    "velocity": 0.3700787401574803,
                    "duration": 0.21428574999998773
                },
                {
                    "name": "F#4",
                    "midi": 66,
                    "time": 218.5714649999992,
                    "velocity": 0.3700787401574803,
                    "duration": 0.19285717500000032
                },
                {
                    "name": "F#5",
                    "midi": 78,
                    "time": 218.5714649999992,
                    "velocity": 0.4409448818897638,
                    "duration": 0.19285717500000032
                },
                {
                    "name": "F#4",
                    "midi": 66,
                    "time": 219.00003649999917,
                    "velocity": 0.4015748031496063,
                    "duration": 0.6339286770833326
                },
                {
                    "name": "A4",
                    "midi": 69,
                    "time": 219.00003649999917,
                    "velocity": 0.4015748031496063,
                    "duration": 0.6428572499999916
                },
                {
                    "name": "F#5",
                    "midi": 78,
                    "time": 219.00003649999917,
                    "velocity": 0.47244094488188976,
                    "duration": 0.6339286770833326
                },
                {
                    "name": "A4",
                    "midi": 69,
                    "time": 219.64289374999916,
                    "velocity": 0.31496062992125984,
                    "duration": 0.21428574999998773
                },
                {
                    "name": "F#5",
                    "midi": 78,
                    "time": 219.64289374999916,
                    "velocity": 0.3779527559055118,
                    "duration": 0.21428574999998773
                },
                {
                    "name": "F#4",
                    "midi": 66,
                    "time": 219.64289374999916,
                    "velocity": 0.31496062992125984,
                    "duration": 0.21428574999998773
                },
                {
                    "name": "A4",
                    "midi": 69,
                    "time": 219.85717949999915,
                    "velocity": 0.3464566929133858,
                    "duration": 0.21428574999998773
                },
                {
                    "name": "C5",
                    "midi": 72,
                    "time": 219.85717949999915,
                    "velocity": 0.3464566929133858,
                    "duration": 0.21428574999998773
                },
                {
                    "name": "A5",
                    "midi": 81,
                    "time": 219.85717949999915,
                    "velocity": 0.4094488188976378,
                    "duration": 0.21428574999998773
                },
                {
                    "name": "G4",
                    "midi": 67,
                    "time": 220.07146524999914,
                    "velocity": 0.31496062992125984,
                    "duration": 0.21428574999998773
                },
                {
                    "name": "A#4",
                    "midi": 70,
                    "time": 220.07146524999914,
                    "velocity": 0.31496062992125984,
                    "duration": 0.21428574999998773
                },
                {
                    "name": "G5",
                    "midi": 79,
                    "time": 220.07146524999914,
                    "velocity": 0.3779527559055118,
                    "duration": 0.21428574999998773
                },
                {
                    "name": "F#4",
                    "midi": 66,
                    "time": 220.28575099999912,
                    "velocity": 0.3464566929133858,
                    "duration": 0.21428574999998773
                },
                {
                    "name": "A4",
                    "midi": 69,
                    "time": 220.28575099999912,
                    "velocity": 0.3464566929133858,
                    "duration": 0.21428574999998773
                },
                {
                    "name": "F#5",
                    "midi": 78,
                    "time": 220.28575099999912,
                    "velocity": 0.4094488188976378,
                    "duration": 0.21428574999998773
                },
                {
                    "name": "G4",
                    "midi": 67,
                    "time": 220.5000367499991,
                    "velocity": 0.30708661417322836,
                    "duration": 0.21428574999998773
                },
                {
                    "name": "A#4",
                    "midi": 70,
                    "time": 220.5000367499991,
                    "velocity": 0.30708661417322836,
                    "duration": 0.21428574999998773
                },
                {
                    "name": "G5",
                    "midi": 79,
                    "time": 220.5000367499991,
                    "velocity": 0.3700787401574803,
                    "duration": 0.21428574999998773
                },
                {
                    "name": "F#4",
                    "midi": 66,
                    "time": 220.7143224999991,
                    "velocity": 0.30708661417322836,
                    "duration": 0.21428574999998773
                },
                {
                    "name": "A4",
                    "midi": 69,
                    "time": 220.7143224999991,
                    "velocity": 0.30708661417322836,
                    "duration": 0.21428574999998773
                },
                {
                    "name": "F#5",
                    "midi": 78,
                    "time": 220.7143224999991,
                    "velocity": 0.3700787401574803,
                    "duration": 0.21428574999998773
                },
                {
                    "name": "D#4",
                    "midi": 63,
                    "time": 220.9286082499991,
                    "velocity": 0.29133858267716534,
                    "duration": 0.21428574999998773
                },
                {
                    "name": "G4",
                    "midi": 67,
                    "time": 220.9286082499991,
                    "velocity": 0.29133858267716534,
                    "duration": 0.21428574999998773
                },
                {
                    "name": "D#5",
                    "midi": 75,
                    "time": 220.9286082499991,
                    "velocity": 0.3543307086614173,
                    "duration": 0.21428574999998773
                },
                {
                    "name": "F#4",
                    "midi": 66,
                    "time": 221.14289399999907,
                    "velocity": 0.30708661417322836,
                    "duration": 0.21428574999998773
                },
                {
                    "name": "D4",
                    "midi": 62,
                    "time": 221.14289399999907,
                    "velocity": 0.30708661417322836,
                    "duration": 0.19285717500000032
                },
                {
                    "name": "D5",
                    "midi": 74,
                    "time": 221.14289399999907,
                    "velocity": 0.36220472440944884,
                    "duration": 0.19285717500000032
                },
                {
                    "name": "D4",
                    "midi": 62,
                    "time": 221.57146549999905,
                    "velocity": 0.33070866141732286,
                    "duration": 0.6339286770833326
                },
                {
                    "name": "F#4",
                    "midi": 66,
                    "time": 221.57146549999905,
                    "velocity": 0.33070866141732286,
                    "duration": 0.6428572499999916
                },
                {
                    "name": "D5",
                    "midi": 74,
                    "time": 221.57146549999905,
                    "velocity": 0.4015748031496063,
                    "duration": 0.6339286770833326
                },
                {
                    "name": "A4",
                    "midi": 69,
                    "time": 222.21432274999904,
                    "velocity": 0.31496062992125984,
                    "duration": 0.21428574999998773
                },
                {
                    "name": "F#5",
                    "midi": 78,
                    "time": 222.21432274999904,
                    "velocity": 0.3779527559055118,
                    "duration": 0.21428574999998773
                },
                {
                    "name": "F#4",
                    "midi": 66,
                    "time": 222.21432274999904,
                    "velocity": 0.31496062992125984,
                    "duration": 0.21428574999998773
                },
                {
                    "name": "A4",
                    "midi": 69,
                    "time": 222.42860849999903,
                    "velocity": 0.3464566929133858,
                    "duration": 0.21428574999998773
                },
                {
                    "name": "C5",
                    "midi": 72,
                    "time": 222.42860849999903,
                    "velocity": 0.3464566929133858,
                    "duration": 0.21428574999998773
                },
                {
                    "name": "A5",
                    "midi": 81,
                    "time": 222.42860849999903,
                    "velocity": 0.4094488188976378,
                    "duration": 0.21428574999998773
                },
                {
                    "name": "G4",
                    "midi": 67,
                    "time": 222.64289424999902,
                    "velocity": 0.31496062992125984,
                    "duration": 0.21428574999998773
                },
                {
                    "name": "A#4",
                    "midi": 70,
                    "time": 222.64289424999902,
                    "velocity": 0.31496062992125984,
                    "duration": 0.21428574999998773
                },
                {
                    "name": "G5",
                    "midi": 79,
                    "time": 222.64289424999902,
                    "velocity": 0.3779527559055118,
                    "duration": 0.21428574999998773
                },
                {
                    "name": "F#4",
                    "midi": 66,
                    "time": 222.857179999999,
                    "velocity": 0.3464566929133858,
                    "duration": 0.21428574999998773
                },
                {
                    "name": "A4",
                    "midi": 69,
                    "time": 222.857179999999,
                    "velocity": 0.3464566929133858,
                    "duration": 0.21428574999998773
                },
                {
                    "name": "F#5",
                    "midi": 78,
                    "time": 222.857179999999,
                    "velocity": 0.4094488188976378,
                    "duration": 0.21428574999998773
                },
                {
                    "name": "G4",
                    "midi": 67,
                    "time": 223.071465749999,
                    "velocity": 0.30708661417322836,
                    "duration": 0.21428574999998773
                },
                {
                    "name": "A#4",
                    "midi": 70,
                    "time": 223.071465749999,
                    "velocity": 0.30708661417322836,
                    "duration": 0.21428574999998773
                },
                {
                    "name": "G5",
                    "midi": 79,
                    "time": 223.071465749999,
                    "velocity": 0.3700787401574803,
                    "duration": 0.21428574999998773
                },
                {
                    "name": "F#4",
                    "midi": 66,
                    "time": 223.28575149999898,
                    "velocity": 0.30708661417322836,
                    "duration": 0.21428574999998773
                },
                {
                    "name": "A4",
                    "midi": 69,
                    "time": 223.28575149999898,
                    "velocity": 0.30708661417322836,
                    "duration": 0.21428574999998773
                },
                {
                    "name": "F#5",
                    "midi": 78,
                    "time": 223.28575149999898,
                    "velocity": 0.3700787401574803,
                    "duration": 0.21428574999998773
                },
                {
                    "name": "D#4",
                    "midi": 63,
                    "time": 223.50003724999897,
                    "velocity": 0.29133858267716534,
                    "duration": 0.21428574999998773
                },
                {
                    "name": "G4",
                    "midi": 67,
                    "time": 223.50003724999897,
                    "velocity": 0.29133858267716534,
                    "duration": 0.21428574999998773
                },
                {
                    "name": "D#5",
                    "midi": 75,
                    "time": 223.50003724999897,
                    "velocity": 0.3543307086614173,
                    "duration": 0.21428574999998773
                },
                {
                    "name": "F#4",
                    "midi": 66,
                    "time": 223.71432299999896,
                    "velocity": 0.30708661417322836,
                    "duration": 0.21428574999998773
                },
                {
                    "name": "D4",
                    "midi": 62,
                    "time": 223.71432299999896,
                    "velocity": 0.30708661417322836,
                    "duration": 0.19285717500000032
                },
                {
                    "name": "D5",
                    "midi": 74,
                    "time": 223.71432299999896,
                    "velocity": 0.36220472440944884,
                    "duration": 0.19285717500000032
                },
                {
                    "name": "D4",
                    "midi": 62,
                    "time": 224.14289449999893,
                    "velocity": 0.33070866141732286,
                    "duration": 0.6339286770833326
                },
                {
                    "name": "F#4",
                    "midi": 66,
                    "time": 224.14289449999893,
                    "velocity": 0.33070866141732286,
                    "duration": 0.6428572499999916
                },
                {
                    "name": "D5",
                    "midi": 74,
                    "time": 224.14289449999893,
                    "velocity": 0.4015748031496063,
                    "duration": 0.6339286770833326
                },
                {
                    "name": "F#4",
                    "midi": 66,
                    "time": 224.78575174999892,
                    "velocity": 0.3464566929133858,
                    "duration": 0.39285720833333926
                },
                {
                    "name": "D4",
                    "midi": 62,
                    "time": 224.78575174999892,
                    "velocity": 0.3464566929133858,
                    "duration": 0.39285720833333926
                },
                {
                    "name": "D5",
                    "midi": 74,
                    "time": 224.78575174999892,
                    "velocity": 0.4094488188976378,
                    "duration": 0.39285720833333926
                },
                {
                    "name": "D4",
                    "midi": 62,
                    "time": 225.21432324999893,
                    "velocity": 0.30708661417322836,
                    "duration": 0.19642860416666963
                },
                {
                    "name": "F#4",
                    "midi": 66,
                    "time": 225.21432324999893,
                    "velocity": 0.30708661417322836,
                    "duration": 0.19642860416666963
                },
                {
                    "name": "D5",
                    "midi": 74,
                    "time": 225.21432324999893,
                    "velocity": 0.3700787401574803,
                    "duration": 0.19642860416666963
                },
                {
                    "name": "F#4",
                    "midi": 66,
                    "time": 225.42860899999894,
                    "velocity": 0.3464566929133858,
                    "duration": 0.21428574999998773
                },
                {
                    "name": "D4",
                    "midi": 62,
                    "time": 225.42860899999894,
                    "velocity": 0.3464566929133858,
                    "duration": 0.19285717500000032
                },
                {
                    "name": "D5",
                    "midi": 74,
                    "time": 225.42860899999894,
                    "velocity": 0.4094488188976378,
                    "duration": 0.19285717500000032
                },
                {
                    "name": "D4",
                    "midi": 62,
                    "time": 225.85718049999892,
                    "velocity": 0.30708661417322836,
                    "duration": 0.6339286770833326
                },
                {
                    "name": "F#4",
                    "midi": 66,
                    "time": 225.85718049999892,
                    "velocity": 0.30708661417322836,
                    "duration": 0.6428572499999916
                },
                {
                    "name": "D5",
                    "midi": 74,
                    "time": 225.85718049999892,
                    "velocity": 0.3700787401574803,
                    "duration": 0.6339286770833326
                },
                {
                    "name": "F#4",
                    "midi": 66,
                    "time": 226.5000377499989,
                    "velocity": 0.3464566929133858,
                    "duration": 0.21428574999998773
                },
                {
                    "name": "D#4",
                    "midi": 63,
                    "time": 226.5000377499989,
                    "velocity": 0.3464566929133858,
                    "duration": 0.19285717500000032
                },
                {
                    "name": "D#5",
                    "midi": 75,
                    "time": 226.5000377499989,
                    "velocity": 0.4094488188976378,
                    "duration": 0.19285717500000032
                },
                {
                    "name": "D#4",
                    "midi": 63,
                    "time": 226.92860924999889,
                    "velocity": 0.30708661417322836,
                    "duration": 0.19642860416666963
                },
                {
                    "name": "F#4",
                    "midi": 66,
                    "time": 226.92860924999889,
                    "velocity": 0.30708661417322836,
                    "duration": 0.19642860416666963
                },
                {
                    "name": "D#5",
                    "midi": 75,
                    "time": 226.92860924999889,
                    "velocity": 0.3700787401574803,
                    "duration": 0.19642860416666963
                },
                {
                    "name": "F#4",
                    "midi": 66,
                    "time": 227.1428949999989,
                    "velocity": 0.3464566929133858,
                    "duration": 0.39285720833333926
                },
                {
                    "name": "D#4",
                    "midi": 63,
                    "time": 227.1428949999989,
                    "velocity": 0.3464566929133858,
                    "duration": 0.39285720833333926
                },
                {
                    "name": "D#5",
                    "midi": 75,
                    "time": 227.1428949999989,
                    "velocity": 0.4094488188976378,
                    "duration": 0.39285720833333926
                },
                {
                    "name": "D#4",
                    "midi": 63,
                    "time": 227.5714664999989,
                    "velocity": 0.30708661417322836,
                    "duration": 0.6339286770833326
                },
                {
                    "name": "F#4",
                    "midi": 66,
                    "time": 227.5714664999989,
                    "velocity": 0.30708661417322836,
                    "duration": 0.6428572499999916
                },
                {
                    "name": "D#5",
                    "midi": 75,
                    "time": 227.5714664999989,
                    "velocity": 0.3700787401574803,
                    "duration": 0.6339286770833326
                },
                {
                    "name": "F#5",
                    "midi": 78,
                    "time": 228.2143237499989,
                    "velocity": 0.3779527559055118,
                    "duration": 0.21428574999998773
                },
                {
                    "name": "D#5",
                    "midi": 75,
                    "time": 228.2143237499989,
                    "velocity": 0.3779527559055118,
                    "duration": 0.19285717500000032
                },
                {
                    "name": "D#6",
                    "midi": 87,
                    "time": 228.2143237499989,
                    "velocity": 0.44881889763779526,
                    "duration": 0.19285717500000032
                },
                {
                    "name": "D#5",
                    "midi": 75,
                    "time": 228.64289524999887,
                    "velocity": 0.30708661417322836,
                    "duration": 0.19642860416666963
                },
                {
                    "name": "F#5",
                    "midi": 78,
                    "time": 228.64289524999887,
                    "velocity": 0.30708661417322836,
                    "duration": 0.19642860416666963
                },
                {
                    "name": "D#6",
                    "midi": 87,
                    "time": 228.64289524999887,
                    "velocity": 0.3700787401574803,
                    "duration": 0.19642860416666963
                },
                {
                    "name": "F#5",
                    "midi": 78,
                    "time": 228.8571809999989,
                    "velocity": 0.3464566929133858,
                    "duration": 0.39285720833333926
                },
                {
                    "name": "D#5",
                    "midi": 75,
                    "time": 228.8571809999989,
                    "velocity": 0.3464566929133858,
                    "duration": 0.39285720833333926
                },
                {
                    "name": "D#6",
                    "midi": 87,
                    "time": 228.8571809999989,
                    "velocity": 0.4094488188976378,
                    "duration": 0.39285720833333926
                },
                {
                    "name": "D#5",
                    "midi": 75,
                    "time": 229.2857524999989,
                    "velocity": 0.30708661417322836,
                    "duration": 0.6339286770833326
                },
                {
                    "name": "F#5",
                    "midi": 78,
                    "time": 229.2857524999989,
                    "velocity": 0.30708661417322836,
                    "duration": 0.6428572499999916
                },
                {
                    "name": "D#6",
                    "midi": 87,
                    "time": 229.2857524999989,
                    "velocity": 0.3700787401574803,
                    "duration": 0.6339286770833326
                },
                {
                    "name": "E4",
                    "midi": 64,
                    "time": 229.92860974999888,
                    "velocity": 0.31496062992125984,
                    "duration": 0.21428574999998773
                },
                {
                    "name": "C#4",
                    "midi": 61,
                    "time": 229.92860974999888,
                    "velocity": 0.31496062992125984,
                    "duration": 0.19285717500000032
                },
                {
                    "name": "C#5",
                    "midi": 73,
                    "time": 229.92860974999888,
                    "velocity": 0.3779527559055118,
                    "duration": 0.19285717500000032
                },
                {
                    "name": "C#4",
                    "midi": 61,
                    "time": 230.35718124999886,
                    "velocity": 0.25984251968503935,
                    "duration": 0.19642860416666963
                },
                {
                    "name": "E4",
                    "midi": 64,
                    "time": 230.35718124999886,
                    "velocity": 0.25984251968503935,
                    "duration": 0.19642860416666963
                },
                {
                    "name": "C#5",
                    "midi": 73,
                    "time": 230.35718124999886,
                    "velocity": 0.30708661417322836,
                    "duration": 0.19642860416666963
                },
                {
                    "name": "E4",
                    "midi": 64,
                    "time": 230.57146699999888,
                    "velocity": 0.29133858267716534,
                    "duration": 0.39285720833333926
                },
                {
                    "name": "C#4",
                    "midi": 61,
                    "time": 230.57146699999888,
                    "velocity": 0.29133858267716534,
                    "duration": 0.39285720833333926
                },
                {
                    "name": "C#5",
                    "midi": 73,
                    "time": 230.57146699999888,
                    "velocity": 0.3464566929133858,
                    "duration": 0.39285720833333926
                },
                {
                    "name": "C#4",
                    "midi": 61,
                    "time": 231.00003849999888,
                    "velocity": 0.25984251968503935,
                    "duration": 0.6339286770833326
                },
                {
                    "name": "E4",
                    "midi": 64,
                    "time": 231.00003849999888,
                    "velocity": 0.25984251968503935,
                    "duration": 0.6428572499999916
                },
                {
                    "name": "C#5",
                    "midi": 73,
                    "time": 231.00003849999888,
                    "velocity": 0.30708661417322836,
                    "duration": 0.6339286770833326
                },
                {
                    "name": "F5",
                    "midi": 77,
                    "time": 231.64289574999887,
                    "velocity": 0.29133858267716534,
                    "duration": 0.21428574999998773
                },
                {
                    "name": "C#5",
                    "midi": 73,
                    "time": 231.64289574999887,
                    "velocity": 0.29133858267716534,
                    "duration": 0.19285717500000032
                },
                {
                    "name": "C#6",
                    "midi": 85,
                    "time": 231.64289574999887,
                    "velocity": 0.3464566929133858,
                    "duration": 0.19285717500000032
                },
                {
                    "name": "C#5",
                    "midi": 73,
                    "time": 232.07146724999885,
                    "velocity": 0.25984251968503935,
                    "duration": 0.19642860416666963
                },
                {
                    "name": "F5",
                    "midi": 77,
                    "time": 232.07146724999885,
                    "velocity": 0.25984251968503935,
                    "duration": 0.19642860416666963
                },
                {
                    "name": "C#6",
                    "midi": 85,
                    "time": 232.07146724999885,
                    "velocity": 0.30708661417322836,
                    "duration": 0.19642860416666963
                },
                {
                    "name": "F5",
                    "midi": 77,
                    "time": 232.28575299999886,
                    "velocity": 0.29133858267716534,
                    "duration": 0.39285720833333926
                },
                {
                    "name": "C#5",
                    "midi": 73,
                    "time": 232.28575299999886,
                    "velocity": 0.29133858267716534,
                    "duration": 0.39285720833333926
                },
                {
                    "name": "C#6",
                    "midi": 85,
                    "time": 232.28575299999886,
                    "velocity": 0.3464566929133858,
                    "duration": 0.39285720833333926
                },
                {
                    "name": "C#5",
                    "midi": 73,
                    "time": 232.71432449999887,
                    "velocity": 0.25984251968503935,
                    "duration": 0.6339286770833326
                },
                {
                    "name": "F5",
                    "midi": 77,
                    "time": 232.71432449999887,
                    "velocity": 0.25984251968503935,
                    "duration": 0.6428572499999916
                },
                {
                    "name": "C#6",
                    "midi": 85,
                    "time": 232.71432449999887,
                    "velocity": 0.30708661417322836,
                    "duration": 0.6339286770833326
                },
                {
                    "name": "D4",
                    "midi": 62,
                    "time": 233.35718174999886,
                    "velocity": 0.2440944881889764,
                    "duration": 0.21428574999998773
                },
                {
                    "name": "B3",
                    "midi": 59,
                    "time": 233.35718174999886,
                    "velocity": 0.2440944881889764,
                    "duration": 0.19285717500000032
                },
                {
                    "name": "B4",
                    "midi": 71,
                    "time": 233.35718174999886,
                    "velocity": 0.29133858267716534,
                    "duration": 0.19285717500000032
                },
                {
                    "name": "B3",
                    "midi": 59,
                    "time": 233.78575324999883,
                    "velocity": 0.2204724409448819,
                    "duration": 0.19642860416666963
                },
                {
                    "name": "D4",
                    "midi": 62,
                    "time": 233.78575324999883,
                    "velocity": 0.2204724409448819,
                    "duration": 0.19642860416666963
                },
                {
                    "name": "B4",
                    "midi": 71,
                    "time": 233.78575324999883,
                    "velocity": 0.25984251968503935,
                    "duration": 0.19642860416666963
                },
                {
                    "name": "D#5",
                    "midi": 75,
                    "time": 234.21432474999884,
                    "velocity": 0.2440944881889764,
                    "duration": 0.21428574999998773
                },
                {
                    "name": "B4",
                    "midi": 71,
                    "time": 234.21432474999884,
                    "velocity": 0.2440944881889764,
                    "duration": 0.19285717500000032
                },
                {
                    "name": "B5",
                    "midi": 83,
                    "time": 234.21432474999884,
                    "velocity": 0.29133858267716534,
                    "duration": 0.19285717500000032
                },
                {
                    "name": "B4",
                    "midi": 71,
                    "time": 234.6428962499988,
                    "velocity": 0.2204724409448819,
                    "duration": 0.19642860416666963
                },
                {
                    "name": "D#5",
                    "midi": 75,
                    "time": 234.6428962499988,
                    "velocity": 0.2204724409448819,
                    "duration": 0.19642860416666963
                },
                {
                    "name": "B5",
                    "midi": 83,
                    "time": 234.6428962499988,
                    "velocity": 0.25984251968503935,
                    "duration": 0.19642860416666963
                },
                {
                    "name": "C4",
                    "midi": 60,
                    "time": 235.07146774999882,
                    "velocity": 0.2047244094488189,
                    "duration": 0.21428574999998773
                },
                {
                    "name": "A3",
                    "midi": 57,
                    "time": 235.07146774999882,
                    "velocity": 0.2047244094488189,
                    "duration": 0.19285717500000032
                },
                {
                    "name": "A4",
                    "midi": 69,
                    "time": 235.07146774999882,
                    "velocity": 0.2440944881889764,
                    "duration": 0.19285717500000032
                },
                {
                    "name": "A3",
                    "midi": 57,
                    "time": 235.5000392499988,
                    "velocity": 0.18110236220472442,
                    "duration": 0.19642860416666963
                },
                {
                    "name": "C4",
                    "midi": 60,
                    "time": 235.5000392499988,
                    "velocity": 0.18110236220472442,
                    "duration": 0.19642860416666963
                },
                {
                    "name": "A4",
                    "midi": 69,
                    "time": 235.5000392499988,
                    "velocity": 0.2204724409448819,
                    "duration": 0.19642860416666963
                },
                {
                    "name": "C#5",
                    "midi": 73,
                    "time": 235.9286107499988,
                    "velocity": 0.2047244094488189,
                    "duration": 0.21428574999998773
                },
                {
                    "name": "A4",
                    "midi": 69,
                    "time": 235.9286107499988,
                    "velocity": 0.2047244094488189,
                    "duration": 0.19285717500000032
                },
                {
                    "name": "A5",
                    "midi": 81,
                    "time": 235.9286107499988,
                    "velocity": 0.2440944881889764,
                    "duration": 0.19285717500000032
                },
                {
                    "name": "A4",
                    "midi": 69,
                    "time": 236.35718224999877,
                    "velocity": 0.18110236220472442,
                    "duration": 0.19642860416666963
                },
                {
                    "name": "C#5",
                    "midi": 73,
                    "time": 236.35718224999877,
                    "velocity": 0.18110236220472442,
                    "duration": 0.19642860416666963
                },
                {
                    "name": "A5",
                    "midi": 81,
                    "time": 236.35718224999877,
                    "velocity": 0.2204724409448819,
                    "duration": 0.19642860416666963
                },
                {
                    "name": "B3",
                    "midi": 59,
                    "time": 237.00003949999876,
                    "velocity": 0.47244094488188976,
                    "duration": 0.8142858500000045
                },
                {
                    "name": "D4",
                    "midi": 62,
                    "time": 237.00003949999876,
                    "velocity": 0.47244094488188976,
                    "duration": 0.8142858500000045
                },
                {
                    "name": "F4",
                    "midi": 65,
                    "time": 237.00003949999876,
                    "velocity": 0.47244094488188976,
                    "duration": 0.8142858500000045
                },
                {
                    "name": "A4",
                    "midi": 69,
                    "time": 237.00003949999876,
                    "velocity": 0.5669291338582677,
                    "duration": 0.8142858500000045
                },
                {
                    "name": "B3",
                    "midi": 59,
                    "time": 237.85718249999877,
                    "velocity": 0.3228346456692913,
                    "duration": 0.4285715000000039
                },
                {
                    "name": "D4",
                    "midi": 62,
                    "time": 237.85718249999877,
                    "velocity": 0.3228346456692913,
                    "duration": 0.4285715000000039
                },
                {
                    "name": "F4",
                    "midi": 65,
                    "time": 237.85718249999877,
                    "velocity": 0.3228346456692913,
                    "duration": 0.4285715000000039
                },
                {
                    "name": "A4",
                    "midi": 69,
                    "time": 237.85718249999877,
                    "velocity": 0.3858267716535433,
                    "duration": 0.4285715000000039
                },
                {
                    "name": "B3",
                    "midi": 59,
                    "time": 238.71432549999878,
                    "velocity": 0.2204724409448819,
                    "duration": 0.8571430000000078
                },
                {
                    "name": "D4",
                    "midi": 62,
                    "time": 238.71432549999878,
                    "velocity": 0.2204724409448819,
                    "duration": 0.8571430000000078
                },
                {
                    "name": "E4",
                    "midi": 64,
                    "time": 238.71432549999878,
                    "velocity": 0.2204724409448819,
                    "duration": 0.8571430000000078
                },
                {
                    "name": "G#4",
                    "midi": 68,
                    "time": 238.71432549999878,
                    "velocity": 0.25984251968503935,
                    "duration": 0.8571430000000078
                },
                {
                    "name": "B3",
                    "midi": 59,
                    "time": 239.5714684999988,
                    "velocity": 0.1889763779527559,
                    "duration": 0.38571435000000065
                },
                {
                    "name": "D4",
                    "midi": 62,
                    "time": 239.5714684999988,
                    "velocity": 0.1889763779527559,
                    "duration": 0.38571435000000065
                },
                {
                    "name": "E4",
                    "midi": 64,
                    "time": 239.5714684999988,
                    "velocity": 0.1889763779527559,
                    "duration": 0.38571435000000065
                },
                {
                    "name": "G#4",
                    "midi": 68,
                    "time": 239.5714684999988,
                    "velocity": 0.2283464566929134,
                    "duration": 0.38571435000000065
                },
                {
                    "name": "E5",
                    "midi": 76,
                    "time": 240.64289724999878,
                    "velocity": 0.4094488188976378,
                    "duration": 0.160714312500005
                },
                {
                    "name": "G#5",
                    "midi": 80,
                    "time": 241.0714687499988,
                    "velocity": 0.4094488188976378,
                    "duration": 0.10714287499999386
                },
                {
                    "name": "F#5",
                    "midi": 78,
                    "time": 241.17861162499878,
                    "velocity": 0.36220472440944884,
                    "duration": 0.10714287499999386
                },
                {
                    "name": "E5",
                    "midi": 76,
                    "time": 241.50004024999876,
                    "velocity": 0.4251968503937008,
                    "duration": 0.10714287499999386
                },
                {
                    "name": "D#5",
                    "midi": 75,
                    "time": 241.60718312499876,
                    "velocity": 0.36220472440944884,
                    "duration": 0.10714287499999386
                },
                {
                    "name": "E5",
                    "midi": 76,
                    "time": 241.92861174999874,
                    "velocity": 0.3937007874015748,
                    "duration": 0.4285715000000039
                },
                {
                    "name": "C#5",
                    "midi": 73,
                    "time": 242.35718324999874,
                    "velocity": 0.4251968503937008,
                    "duration": 0.21428574999998773
                },
                {
                    "name": "E5",
                    "midi": 76,
                    "time": 242.57146899999873,
                    "velocity": 0.4330708661417323,
                    "duration": 0.21428574999998773
                },
                {
                    "name": "A5",
                    "midi": 81,
                    "time": 242.78575474999872,
                    "velocity": 0.4330708661417323,
                    "duration": 0.160714312500005
                },
                {
                    "name": "A5",
                    "midi": 81,
                    "time": 243.21432624999872,
                    "velocity": 0.48031496062992124,
                    "duration": 0.160714312500005
                },
                {
                    "name": "G#5",
                    "midi": 80,
                    "time": 243.64289774999872,
                    "velocity": 0.5118110236220472,
                    "duration": 0.160714312500005
                },
                {
                    "name": "A5",
                    "midi": 81,
                    "time": 244.07146924999873,
                    "velocity": 0.5275590551181102,
                    "duration": 0.160714312500005
                },
                {
                    "name": "A#5",
                    "midi": 82,
                    "time": 244.71432649999872,
                    "velocity": 0.5433070866141733,
                    "duration": 0.6428572499999916
                },
                {
                    "name": "B5",
                    "midi": 83,
                    "time": 245.3571837499987,
                    "velocity": 0.49606299212598426,
                    "duration": 0.21428574999998773
                },
                {
                    "name": "C#6",
                    "midi": 85,
                    "time": 245.7857552499987,
                    "velocity": 0.5039370078740157,
                    "duration": 0.160714312500005
                },
                {
                    "name": "D6",
                    "midi": 86,
                    "time": 246.2143267499987,
                    "velocity": 0.5669291338582677,
                    "duration": 0.160714312500005
                },
                {
                    "name": "D#6",
                    "midi": 87,
                    "time": 246.6428982499987,
                    "velocity": 0.6141732283464567,
                    "duration": 0.160714312500005
                },
                {
                    "name": "E6",
                    "midi": 88,
                    "time": 247.2857554999987,
                    "velocity": 0.6062992125984252,
                    "duration": 0.6428572499999916
                },
                {
                    "name": "F#6",
                    "midi": 90,
                    "time": 247.92861274999868,
                    "velocity": 0.5354330708661418,
                    "duration": 0.21428574999998773
                },
                {
                    "name": "E6",
                    "midi": 88,
                    "time": 248.35718424999865,
                    "velocity": 0.5590551181102362,
                    "duration": 0.160714312500005
                },
                {
                    "name": "D6",
                    "midi": 86,
                    "time": 248.78575574999866,
                    "velocity": 0.5196850393700787,
                    "duration": 0.160714312500005
                },
                {
                    "name": "B5",
                    "midi": 83,
                    "time": 249.21432724999866,
                    "velocity": 0.4881889763779528,
                    "duration": 0.160714312500005
                },
                {
                    "name": "A5",
                    "midi": 81,
                    "time": 249.42861299999868,
                    "velocity": 0.4881889763779528,
                    "duration": 0.21428574999998773
                },
                {
                    "name": "A6",
                    "midi": 93,
                    "time": 249.64289874999866,
                    "velocity": 0.5905511811023622,
                    "duration": 0.32142862500001
                },
                {
                    "name": "G#6",
                    "midi": 92,
                    "time": 249.96432737499867,
                    "velocity": 0.4251968503937008,
                    "duration": 0.05357143750001114
                },
                {
                    "name": "F#6",
                    "midi": 90,
                    "time": 250.0178988124987,
                    "velocity": 0.41732283464566927,
                    "duration": 0.05357143750001114
                },
                {
                    "name": "E6",
                    "midi": 88,
                    "time": 250.0714702499987,
                    "velocity": 0.4015748031496063,
                    "duration": 0.05357143750001114
                },
                {
                    "name": "D6",
                    "midi": 86,
                    "time": 250.1250416874987,
                    "velocity": 0.3937007874015748,
                    "duration": 0.05357143750001114
                },
                {
                    "name": "C#6",
                    "midi": 85,
                    "time": 250.17861312499872,
                    "velocity": 0.3779527559055118,
                    "duration": 0.05357143750001114
                },
                {
                    "name": "B5",
                    "midi": 83,
                    "time": 250.23218456249873,
                    "velocity": 0.36220472440944884,
                    "duration": 0.05357143750001114
                },
                {
                    "name": "A5",
                    "midi": 81,
                    "time": 250.28575599999874,
                    "velocity": 0.41732283464566927,
                    "duration": 0.160714312500005
                },
                {
                    "name": "E5",
                    "midi": 76,
                    "time": 250.92861324999873,
                    "velocity": 0.4881889763779528,
                    "duration": 0.160714312500005
                },
                {
                    "name": "G#5",
                    "midi": 80,
                    "time": 251.35718474999874,
                    "velocity": 0.4881889763779528,
                    "duration": 0.10714287499999386
                },
                {
                    "name": "F#5",
                    "midi": 78,
                    "time": 251.46432762499873,
                    "velocity": 0.4645669291338583,
                    "duration": 0.10714287499999386
                },
                {
                    "name": "E5",
                    "midi": 76,
                    "time": 251.7857562499987,
                    "velocity": 0.4881889763779528,
                    "duration": 0.10714287499999386
                },
                {
                    "name": "D#5",
                    "midi": 75,
                    "time": 251.8928991249987,
                    "velocity": 0.44881889763779526,
                    "duration": 0.10714287499999386
                },
                {
                    "name": "E5",
                    "midi": 76,
                    "time": 252.2143277499987,
                    "velocity": 0.5196850393700787,
                    "duration": 0.4285715000000039
                },
                {
                    "name": "C#5",
                    "midi": 73,
                    "time": 252.6428992499987,
                    "velocity": 0.5196850393700787,
                    "duration": 0.21428574999998773
                },
                {
                    "name": "E5",
                    "midi": 76,
                    "time": 252.85718499999868,
                    "velocity": 0.5433070866141733,
                    "duration": 0.21428574999998773
                },
                {
                    "name": "A5",
                    "midi": 81,
                    "time": 253.07147074999867,
                    "velocity": 0.5196850393700787,
                    "duration": 0.160714312500005
                },
                {
                    "name": "A5",
                    "midi": 81,
                    "time": 253.50004224999867,
                    "velocity": 0.5905511811023622,
                    "duration": 0.160714312500005
                },
                {
                    "name": "C#6",
                    "midi": 85,
                    "time": 253.92861374999868,
                    "velocity": 0.6377952755905512,
                    "duration": 0.160714312500005
                },
                {
                    "name": "D#6",
                    "midi": 87,
                    "time": 254.35718524999868,
                    "velocity": 0.6692913385826772,
                    "duration": 0.160714312500005
                },
                {
                    "name": "E6",
                    "midi": 88,
                    "time": 254.78575674999868,
                    "velocity": 0.6299212598425197,
                    "duration": 0.4285715000000039
                },
                {
                    "name": "F#6",
                    "midi": 90,
                    "time": 255.2143282499987,
                    "velocity": 0.5984251968503937,
                    "duration": 0.21428574999998773
                },
                {
                    "name": "G#6",
                    "midi": 92,
                    "time": 255.42861399999867,
                    "velocity": 0.6456692913385826,
                    "duration": 0.21428574999998773
                },
                {
                    "name": "C#7",
                    "midi": 97,
                    "time": 255.64289974999866,
                    "velocity": 0.5905511811023622,
                    "duration": 0.160714312500005
                },
                {
                    "name": "C#6",
                    "midi": 85,
                    "time": 256.0714712499987,
                    "velocity": 0.4881889763779528,
                    "duration": 0.10714287500002229
                },
                {
                    "name": "E6",
                    "midi": 88,
                    "time": 256.1786141249987,
                    "velocity": 0.4409448818897638,
                    "duration": 0.10714287500002229
                },
                {
                    "name": "E6",
                    "midi": 88,
                    "time": 256.5000427499987,
                    "velocity": 0.4881889763779528,
                    "duration": 0.10714287500002229
                },
                {
                    "name": "D#6",
                    "midi": 87,
                    "time": 256.60718562499875,
                    "velocity": 0.44881889763779526,
                    "duration": 0.10714287500002229
                },
                {
                    "name": "D#6",
                    "midi": 87,
                    "time": 256.92861424999876,
                    "velocity": 0.4881889763779528,
                    "duration": 0.10714287500002229
                },
                {
                    "name": "G#5",
                    "midi": 80,
                    "time": 257.0357571249988,
                    "velocity": 0.4409448818897638,
                    "duration": 0.10714287500002229
                },
                {
                    "name": "G#5",
                    "midi": 80,
                    "time": 257.3571857499988,
                    "velocity": 0.4881889763779528,
                    "duration": 0.32142862500001
                },
                {
                    "name": "A5",
                    "midi": 81,
                    "time": 257.6786143749988,
                    "velocity": 0.44881889763779526,
                    "duration": 0.10714287500002229
                },
                {
                    "name": "B5",
                    "midi": 83,
                    "time": 257.7857572499988,
                    "velocity": 0.4645669291338583,
                    "duration": 0.10714287500002229
                },
                {
                    "name": "C6",
                    "midi": 84,
                    "time": 257.89290012499885,
                    "velocity": 0.47244094488188976,
                    "duration": 0.10714287500002229
                },
                {
                    "name": "C#6",
                    "midi": 85,
                    "time": 258.00004299999887,
                    "velocity": 0.4881889763779528,
                    "duration": 0.16071431249997659
                },
                {
                    "name": "C#6",
                    "midi": 85,
                    "time": 258.21432874999886,
                    "velocity": 0.4881889763779528,
                    "duration": 0.16071431249997659
                },
                {
                    "name": "A6",
                    "midi": 93,
                    "time": 258.64290024999883,
                    "velocity": 0.4881889763779528,
                    "duration": 0.10714287500002229
                },
                {
                    "name": "C#7",
                    "midi": 97,
                    "time": 258.75004312499885,
                    "velocity": 0.44881889763779526,
                    "duration": 0.10714287500002229
                },
                {
                    "name": "C#7",
                    "midi": 97,
                    "time": 259.07147174999886,
                    "velocity": 0.4881889763779528,
                    "duration": 0.10714287500002229
                },
                {
                    "name": "B6",
                    "midi": 95,
                    "time": 259.1786146249989,
                    "velocity": 0.44881889763779526,
                    "duration": 0.10714287500002229
                },
                {
                    "name": "B6",
                    "midi": 95,
                    "time": 259.5000432499989,
                    "velocity": 0.4881889763779528,
                    "duration": 0.10714287500002229
                },
                {
                    "name": "E6",
                    "midi": 88,
                    "time": 259.6071861249989,
                    "velocity": 0.44881889763779526,
                    "duration": 0.10714287500002229
                },
                {
                    "name": "E6",
                    "midi": 88,
                    "time": 259.9286147499989,
                    "velocity": 0.4881889763779528,
                    "duration": 0.32142862500001
                },
                {
                    "name": "F#6",
                    "midi": 90,
                    "time": 260.25004337499894,
                    "velocity": 0.4409448818897638,
                    "duration": 0.10714287500002229
                },
                {
                    "name": "G6",
                    "midi": 91,
                    "time": 260.35718624999896,
                    "velocity": 0.4566929133858268,
                    "duration": 0.10714287500002229
                },
                {
                    "name": "G#6",
                    "midi": 92,
                    "time": 260.464329124999,
                    "velocity": 0.47244094488188976,
                    "duration": 0.10714287500002229
                },
                {
                    "name": "A6",
                    "midi": 93,
                    "time": 260.571471999999,
                    "velocity": 0.4881889763779528,
                    "duration": 0.21428574999998773
                },
                {
                    "name": "A5",
                    "midi": 81,
                    "time": 261.000043499999,
                    "velocity": 0.3464566929133858,
                    "duration": 0.42857149999997546
                },
                {
                    "name": "C#5",
                    "midi": 73,
                    "time": 261.000043499999,
                    "velocity": 0.3464566929133858,
                    "duration": 0.42857149999997546
                },
                {
                    "name": "E5",
                    "midi": 76,
                    "time": 261.000043499999,
                    "velocity": 0.4094488188976378,
                    "duration": 0.42857149999997546
                },
                {
                    "name": "A5",
                    "midi": 81,
                    "time": 261.42861499999896,
                    "velocity": 0.3779527559055118,
                    "duration": 0.42857149999997546
                },
                {
                    "name": "D5",
                    "midi": 74,
                    "time": 261.42861499999896,
                    "velocity": 0.3779527559055118,
                    "duration": 0.38571435000000065
                },
                {
                    "name": "F#5",
                    "midi": 78,
                    "time": 261.42861499999896,
                    "velocity": 0.44881889763779526,
                    "duration": 0.38571435000000065
                },
                {
                    "name": "A5",
                    "midi": 81,
                    "time": 261.85718649999893,
                    "velocity": 0.30708661417322836,
                    "duration": 0.42857149999997546
                },
                {
                    "name": "C5",
                    "midi": 72,
                    "time": 261.85718649999893,
                    "velocity": 0.30708661417322836,
                    "duration": 0.38571435000000065
                },
                {
                    "name": "D#5",
                    "midi": 75,
                    "time": 261.85718649999893,
                    "velocity": 0.36220472440944884,
                    "duration": 0.38571435000000065
                },
                {
                    "name": "A5",
                    "midi": 81,
                    "time": 262.2857579999989,
                    "velocity": 0.3464566929133858,
                    "duration": 1.2678573541666651
                },
                {
                    "name": "C#5",
                    "midi": 73,
                    "time": 262.2857579999989,
                    "velocity": 0.3464566929133858,
                    "duration": 1.2678573541666651
                },
                {
                    "name": "E5",
                    "midi": 76,
                    "time": 262.2857579999989,
                    "velocity": 0.4251968503937008,
                    "duration": 1.2678573541666651
                },
                {
                    "name": "C#5",
                    "midi": 73,
                    "time": 263.5714724999989,
                    "velocity": 0.3779527559055118,
                    "duration": 0.8571429999999509
                },
                {
                    "name": "E5",
                    "midi": 76,
                    "time": 263.5714724999989,
                    "velocity": 0.3779527559055118,
                    "duration": 0.8571429999999509
                },
                {
                    "name": "A5",
                    "midi": 81,
                    "time": 263.5714724999989,
                    "velocity": 0.49606299212598426,
                    "duration": 0.42857149999997546
                },
                {
                    "name": "B5",
                    "midi": 83,
                    "time": 264.00004399999887,
                    "velocity": 0.5118110236220472,
                    "duration": 0.42857149999997546
                },
                {
                    "name": "C#5",
                    "midi": 73,
                    "time": 264.42861549999884,
                    "velocity": 0.4251968503937008,
                    "duration": 0.38571435000000065
                },
                {
                    "name": "E5",
                    "midi": 76,
                    "time": 264.42861549999884,
                    "velocity": 0.4251968503937008,
                    "duration": 0.38571435000000065
                },
                {
                    "name": "C#6",
                    "midi": 85,
                    "time": 264.42861549999884,
                    "velocity": 0.5511811023622047,
                    "duration": 0.38571435000000065
                },
                {
                    "name": "D5",
                    "midi": 74,
                    "time": 264.8571869999988,
                    "velocity": 0.33858267716535434,
                    "duration": 1.2857144999999832
                },
                {
                    "name": "F#5",
                    "midi": 78,
                    "time": 264.8571869999988,
                    "velocity": 0.4015748031496063,
                    "duration": 1.2857144999999832
                },
                {
                    "name": "C#6",
                    "midi": 85,
                    "time": 264.8571869999988,
                    "velocity": 0.5196850393700787,
                    "duration": 0.8571430000000078
                },
                {
                    "name": "B5",
                    "midi": 83,
                    "time": 265.7143299999988,
                    "velocity": 0.3937007874015748,
                    "duration": 0.42857149999997546
                },
                {
                    "name": "D5",
                    "midi": 74,
                    "time": 266.1429014999988,
                    "velocity": 0.36220472440944884,
                    "duration": 0.41071435416665736
                },
                {
                    "name": "A5",
                    "midi": 81,
                    "time": 266.1429014999988,
                    "velocity": 0.5039370078740157,
                    "duration": 0.42857149999997546
                },
                {
                    "name": "D5",
                    "midi": 74,
                    "time": 266.5714729999988,
                    "velocity": 0.36220472440944884,
                    "duration": 0.41071435416665736
                },
                {
                    "name": "G#5",
                    "midi": 80,
                    "time": 266.5714729999988,
                    "velocity": 0.4566929133858268,
                    "duration": 0.42857149999997546
                },
                {
                    "name": "D5",
                    "midi": 74,
                    "time": 267.00004449999875,
                    "velocity": 0.33070866141732286,
                    "duration": 0.38571435000000065
                },
                {
                    "name": "F#5",
                    "midi": 78,
                    "time": 267.00004449999875,
                    "velocity": 0.4330708661417323,
                    "duration": 0.38571435000000065
                },
                {
                    "name": "D5",
                    "midi": 74,
                    "time": 267.4286159999987,
                    "velocity": 0.3779527559055118,
                    "duration": 1.2678573541666651
                },
                {
                    "name": "E5",
                    "midi": 76,
                    "time": 267.4286159999987,
                    "velocity": 0.44881889763779526,
                    "duration": 1.2678573541666651
                },
                {
                    "name": "G#4",
                    "midi": 68,
                    "time": 268.7143304999987,
                    "velocity": 0.3937007874015748,
                    "duration": 0.41071435416665736
                },
                {
                    "name": "D5",
                    "midi": 74,
                    "time": 268.7143304999987,
                    "velocity": 0.3937007874015748,
                    "duration": 0.41071435416665736
                },
                {
                    "name": "E5",
                    "midi": 76,
                    "time": 268.7143304999987,
                    "velocity": 0.4645669291338583,
                    "duration": 0.41071435416665736
                },
                {
                    "name": "G#4",
                    "midi": 68,
                    "time": 269.1429019999987,
                    "velocity": 0.4330708661417323,
                    "duration": 0.38571435000000065
                },
                {
                    "name": "D5",
                    "midi": 74,
                    "time": 269.1429019999987,
                    "velocity": 0.4409448818897638,
                    "duration": 0.38571435000000065
                },
                {
                    "name": "F#5",
                    "midi": 78,
                    "time": 269.1429019999987,
                    "velocity": 0.5118110236220472,
                    "duration": 0.38571435000000065
                },
                {
                    "name": "G#4",
                    "midi": 68,
                    "time": 269.57147349999866,
                    "velocity": 0.3937007874015748,
                    "duration": 0.38571435000000065
                },
                {
                    "name": "D5",
                    "midi": 74,
                    "time": 269.57147349999866,
                    "velocity": 0.3937007874015748,
                    "duration": 0.38571435000000065
                },
                {
                    "name": "E5",
                    "midi": 76,
                    "time": 269.57147349999866,
                    "velocity": 0.4645669291338583,
                    "duration": 0.38571435000000065
                },
                {
                    "name": "D5",
                    "midi": 74,
                    "time": 270.00004499999864,
                    "velocity": 0.4566929133858268,
                    "duration": 0.8571430000000078
                },
                {
                    "name": "F#5",
                    "midi": 78,
                    "time": 270.00004499999864,
                    "velocity": 0.5433070866141733,
                    "duration": 0.8571430000000078
                },
                {
                    "name": "C#5",
                    "midi": 73,
                    "time": 270.85718799999864,
                    "velocity": 0.33070866141732286,
                    "duration": 0.41071435416665736
                },
                {
                    "name": "E5",
                    "midi": 76,
                    "time": 270.85718799999864,
                    "velocity": 0.3937007874015748,
                    "duration": 0.41071435416665736
                },
                {
                    "name": "E5",
                    "midi": 76,
                    "time": 271.2857594999986,
                    "velocity": 0.47244094488188976,
                    "duration": 0.42857149999997546
                },
                {
                    "name": "A4",
                    "midi": 69,
                    "time": 271.2857594999986,
                    "velocity": 0.47244094488188976,
                    "duration": 0.41071435416665736
                },
                {
                    "name": "C#5",
                    "midi": 73,
                    "time": 271.2857594999986,
                    "velocity": 0.5590551181102362,
                    "duration": 0.42857149999997546
                },
                {
                    "name": "A4",
                    "midi": 69,
                    "time": 271.7143309999986,
                    "velocity": 0.5039370078740157,
                    "duration": 0.38571435000000065
                },
                {
                    "name": "D5",
                    "midi": 74,
                    "time": 271.7143309999986,
                    "velocity": 0.5039370078740157,
                    "duration": 0.38571435000000065
                },
                {
                    "name": "F#5",
                    "midi": 78,
                    "time": 271.7143309999986,
                    "velocity": 0.6141732283464567,
                    "duration": 0.38571435000000065
                },
                {
                    "name": "A4",
                    "midi": 69,
                    "time": 272.14290249999857,
                    "velocity": 0.4645669291338583,
                    "duration": 0.38571435000000065
                },
                {
                    "name": "C5",
                    "midi": 72,
                    "time": 272.14290249999857,
                    "velocity": 0.4645669291338583,
                    "duration": 0.38571435000000065
                },
                {
                    "name": "D#5",
                    "midi": 75,
                    "time": 272.14290249999857,
                    "velocity": 0.5590551181102362,
                    "duration": 0.38571435000000065
                },
                {
                    "name": "A4",
                    "midi": 69,
                    "time": 272.57147399999855,
                    "velocity": 0.5196850393700787,
                    "duration": 1.2857144999999832
                },
                {
                    "name": "C#5",
                    "midi": 73,
                    "time": 272.57147399999855,
                    "velocity": 0.5196850393700787,
                    "duration": 1.2678573541666651
                },
                {
                    "name": "E5",
                    "midi": 76,
                    "time": 272.57147399999855,
                    "velocity": 0.6456692913385826,
                    "duration": 1.2678573541666651
                },
                {
                    "name": "A4",
                    "midi": 69,
                    "time": 273.85718849999853,
                    "velocity": 0.5196850393700787,
                    "duration": 0.41071435416665736
                },
                {
                    "name": "C#5",
                    "midi": 73,
                    "time": 273.85718849999853,
                    "velocity": 0.5196850393700787,
                    "duration": 0.41071435416665736
                },
                {
                    "name": "E5",
                    "midi": 76,
                    "time": 273.85718849999853,
                    "velocity": 0.6141732283464567,
                    "duration": 0.41071435416665736
                },
                {
                    "name": "C#5",
                    "midi": 73,
                    "time": 274.2857599999985,
                    "velocity": 0.6141732283464567,
                    "duration": 0.41071435416665736
                },
                {
                    "name": "E5",
                    "midi": 76,
                    "time": 274.2857599999985,
                    "velocity": 0.6141732283464567,
                    "duration": 0.41071435416665736
                },
                {
                    "name": "A5",
                    "midi": 81,
                    "time": 274.2857599999985,
                    "velocity": 0.6929133858267716,
                    "duration": 0.42857149999997546
                },
                {
                    "name": "E5",
                    "midi": 76,
                    "time": 274.7143314999985,
                    "velocity": 0.5511811023622047,
                    "duration": 0.38571435000000065
                },
                {
                    "name": "A5",
                    "midi": 81,
                    "time": 274.7143314999985,
                    "velocity": 0.5511811023622047,
                    "duration": 0.38571435000000065
                },
                {
                    "name": "C#6",
                    "midi": 85,
                    "time": 274.7143314999985,
                    "velocity": 0.6614173228346457,
                    "duration": 0.38571435000000065
                },
                {
                    "name": "C#6",
                    "midi": 85,
                    "time": 275.14290299999846,
                    "velocity": 0.5905511811023622,
                    "duration": 1.2678573541666651
                },
                {
                    "name": "E5",
                    "midi": 76,
                    "time": 275.14290299999846,
                    "velocity": 0.5905511811023622,
                    "duration": 1.2857144999999832
                },
                {
                    "name": "G#5",
                    "midi": 80,
                    "time": 275.14290299999846,
                    "velocity": 0.5905511811023622,
                    "duration": 1.2678573541666651
                },
                {
                    "name": "E6",
                    "midi": 88,
                    "time": 275.14290299999846,
                    "velocity": 0.7007874015748031,
                    "duration": 1.2678573541666651
                },
                {
                    "name": "C#5",
                    "midi": 73,
                    "time": 276.42861749999844,
                    "velocity": 0.48031496062992124,
                    "duration": 0.42857149999997546
                },
                {
                    "name": "G#5",
                    "midi": 80,
                    "time": 276.42861749999844,
                    "velocity": 0.48031496062992124,
                    "duration": 0.41071435416665736
                },
                {
                    "name": "C#6",
                    "midi": 85,
                    "time": 276.42861749999844,
                    "velocity": 0.6614173228346457,
                    "duration": 0.42857149999997546
                },
                {
                    "name": "D#5",
                    "midi": 75,
                    "time": 276.8571889999984,
                    "velocity": 0.5354330708661418,
                    "duration": 0.41071435416665736
                },
                {
                    "name": "F#5",
                    "midi": 78,
                    "time": 276.8571889999984,
                    "velocity": 0.5748031496062992,
                    "duration": 0.41071435416665736
                },
                {
                    "name": "D#6",
                    "midi": 87,
                    "time": 276.8571889999984,
                    "velocity": 0.6614173228346457,
                    "duration": 0.41071435416665736
                },
                {
                    "name": "C6",
                    "midi": 84,
                    "time": 277.2857604999984,
                    "velocity": 0.4409448818897638,
                    "duration": 0.42857149999997546
                },
                {
                    "name": "F#5",
                    "midi": 78,
                    "time": 277.2857604999984,
                    "velocity": 0.4409448818897638,
                    "duration": 0.38571435000000065
                },
                {
                    "name": "D#6",
                    "midi": 87,
                    "time": 277.2857604999984,
                    "velocity": 0.4409448818897638,
                    "duration": 0.38571435000000065
                },
                {
                    "name": "G#6",
                    "midi": 92,
                    "time": 277.2857604999984,
                    "velocity": 0.5669291338582677,
                    "duration": 0.38571435000000065
                },
                {
                    "name": "G#5",
                    "midi": 80,
                    "time": 277.71433199999836,
                    "velocity": 0.4881889763779528,
                    "duration": 1.2857144999999832
                },
                {
                    "name": "E5",
                    "midi": 76,
                    "time": 277.71433199999836,
                    "velocity": 0.4881889763779528,
                    "duration": 1.2857144999999832
                },
                {
                    "name": "C#5",
                    "midi": 73,
                    "time": 277.71433199999836,
                    "velocity": 0.4881889763779528,
                    "duration": 1.2678573541666651
                },
                {
                    "name": "C#6",
                    "midi": 85,
                    "time": 277.71433199999836,
                    "velocity": 0.6614173228346457,
                    "duration": 1.2678573541666651
                },
                {
                    "name": "E4",
                    "midi": 64,
                    "time": 279.00004649999835,
                    "velocity": 0.29133858267716534,
                    "duration": 0.42857149999997546
                },
                {
                    "name": "A4",
                    "midi": 69,
                    "time": 279.00004649999835,
                    "velocity": 0.36220472440944884,
                    "duration": 0.42857149999997546
                },
                {
                    "name": "D#4",
                    "midi": 63,
                    "time": 279.4286179999983,
                    "velocity": 0.29133858267716534,
                    "duration": 0.42857149999997546
                },
                {
                    "name": "A4",
                    "midi": 69,
                    "time": 279.4286179999983,
                    "velocity": 0.29133858267716534,
                    "duration": 0.38571435000000065
                },
                {
                    "name": "B4",
                    "midi": 71,
                    "time": 279.4286179999983,
                    "velocity": 0.36220472440944884,
                    "duration": 0.38571435000000065
                },
                {
                    "name": "G#4",
                    "midi": 68,
                    "time": 279.8571894999983,
                    "velocity": 0.25196850393700787,
                    "duration": 0.42857149999997546
                },
                {
                    "name": "D4",
                    "midi": 62,
                    "time": 279.8571894999983,
                    "velocity": 0.25196850393700787,
                    "duration": 0.38571435000000065
                },
                {
                    "name": "B4",
                    "midi": 71,
                    "time": 279.8571894999983,
                    "velocity": 0.25196850393700787,
                    "duration": 0.38571435000000065
                },
                {
                    "name": "E5",
                    "midi": 76,
                    "time": 279.8571894999983,
                    "velocity": 0.29133858267716534,
                    "duration": 0.38571435000000065
                },
                {
                    "name": "C#4",
                    "midi": 61,
                    "time": 280.2857609999983,
                    "velocity": 0.29133858267716534,
                    "duration": 1.2857144999999832
                },
                {
                    "name": "A4",
                    "midi": 69,
                    "time": 280.2857609999983,
                    "velocity": 0.36220472440944884,
                    "duration": 1.2857144999999832
                },
                {
                    "name": "C#5",
                    "midi": 73,
                    "time": 281.57147549999826,
                    "velocity": 0.3700787401574803,
                    "duration": 0.42857149999997546
                },
                {
                    "name": "G5",
                    "midi": 79,
                    "time": 281.57147549999826,
                    "velocity": 0.3700787401574803,
                    "duration": 0.41071435416665736
                },
                {
                    "name": "A#5",
                    "midi": 82,
                    "time": 281.57147549999826,
                    "velocity": 0.6062992125984252,
                    "duration": 0.42857149999997546
                },
                {
                    "name": "D5",
                    "midi": 74,
                    "time": 282.00004699999823,
                    "velocity": 0.5354330708661418,
                    "duration": 0.41071435416665736
                },
                {
                    "name": "G5",
                    "midi": 79,
                    "time": 282.00004699999823,
                    "velocity": 0.5354330708661418,
                    "duration": 0.41071435416665736
                },
                {
                    "name": "B5",
                    "midi": 83,
                    "time": 282.00004699999823,
                    "velocity": 0.6299212598425197,
                    "duration": 0.42857149999997546
                },
                {
                    "name": "G5",
                    "midi": 79,
                    "time": 282.4286184999982,
                    "velocity": 0.5590551181102362,
                    "duration": 0.42857149999997546
                },
                {
                    "name": "E5",
                    "midi": 76,
                    "time": 282.4286184999982,
                    "velocity": 0.5590551181102362,
                    "duration": 0.38571435000000065
                },
                {
                    "name": "C#6",
                    "midi": 85,
                    "time": 282.4286184999982,
                    "velocity": 0.6614173228346457,
                    "duration": 0.38571435000000065
                },
                {
                    "name": "G5",
                    "midi": 79,
                    "time": 282.8571899999982,
                    "velocity": 0.5433070866141733,
                    "duration": 1.0535716041666774
                },
                {
                    "name": "B5",
                    "midi": 83,
                    "time": 282.8571899999982,
                    "velocity": 0.5984251968503937,
                    "duration": 1.0535716041666774
                },
                {
                    "name": "D5",
                    "midi": 74,
                    "time": 282.8571899999982,
                    "velocity": 0.5433070866141733,
                    "duration": 1.0535716041666774
                },
                {
                    "name": "D6",
                    "midi": 86,
                    "time": 282.8571899999982,
                    "velocity": 0.8031496062992126,
                    "duration": 1.0535716041666774
                },
                {
                    "name": "B5",
                    "midi": 83,
                    "time": 283.9286187499982,
                    "velocity": 0.4094488188976378,
                    "duration": 0.16071431249997659
                },
                {
                    "name": "D6",
                    "midi": 86,
                    "time": 283.9286187499982,
                    "velocity": 0.4881889763779528,
                    "duration": 0.16071431249997659
                },
                {
                    "name": "G5",
                    "midi": 79,
                    "time": 284.14290449999817,
                    "velocity": 0.4566929133858268,
                    "duration": 0.16071431249997659
                },
                {
                    "name": "B5",
                    "midi": 83,
                    "time": 284.14290449999817,
                    "velocity": 0.5433070866141733,
                    "duration": 0.16071431249997659
                },
                {
                    "name": "D5",
                    "midi": 74,
                    "time": 284.35719024999815,
                    "velocity": 0.4015748031496063,
                    "duration": 0.16071431249997659
                },
                {
                    "name": "G5",
                    "midi": 79,
                    "time": 284.35719024999815,
                    "velocity": 0.48031496062992124,
                    "duration": 0.16071431249997659
                },
                {
                    "name": "B4",
                    "midi": 71,
                    "time": 284.57147599999814,
                    "velocity": 0.4409448818897638,
                    "duration": 0.16071431249997659
                },
                {
                    "name": "D5",
                    "midi": 74,
                    "time": 284.57147599999814,
                    "velocity": 0.5196850393700787,
                    "duration": 0.16071431249997659
                },
                {
                    "name": "G4",
                    "midi": 67,
                    "time": 284.78576174999813,
                    "velocity": 0.36220472440944884,
                    "duration": 0.16071431249997659
                },
                {
                    "name": "B4",
                    "midi": 71,
                    "time": 284.78576174999813,
                    "velocity": 0.4330708661417323,
                    "duration": 0.16071431249997659
                },
                {
                    "name": "D4",
                    "midi": 62,
                    "time": 285.0000474999981,
                    "velocity": 0.4094488188976378,
                    "duration": 0.16071431249997659
                },
                {
                    "name": "G4",
                    "midi": 67,
                    "time": 285.0000474999981,
                    "velocity": 0.4881889763779528,
                    "duration": 0.16071431249997659
                },
                {
                    "name": "B3",
                    "midi": 59,
                    "time": 285.2143332499981,
                    "velocity": 0.3543307086614173,
                    "duration": 0.16071431249997659
                },
                {
                    "name": "D4",
                    "midi": 62,
                    "time": 285.2143332499981,
                    "velocity": 0.41732283464566927,
                    "duration": 0.16071431249997659
                },
                {
                    "name": "C4",
                    "midi": 60,
                    "time": 285.4286189999981,
                    "velocity": 0.4094488188976378,
                    "duration": 1.2857144999999832
                },
                {
                    "name": "E4",
                    "midi": 64,
                    "time": 285.4286189999981,
                    "velocity": 0.4881889763779528,
                    "duration": 1.2857144999999832
                },
                {
                    "name": "B3",
                    "midi": 59,
                    "time": 286.7143334999981,
                    "velocity": 0.3228346456692913,
                    "duration": 0.16071431249997659
                },
                {
                    "name": "D4",
                    "midi": 62,
                    "time": 286.7143334999981,
                    "velocity": 0.3858267716535433,
                    "duration": 0.16071431249997659
                },
                {
                    "name": "D4",
                    "midi": 62,
                    "time": 286.92861924999806,
                    "velocity": 0.28346456692913385,
                    "duration": 0.16071431249997659
                },
                {
                    "name": "G4",
                    "midi": 67,
                    "time": 286.92861924999806,
                    "velocity": 0.33858267716535434,
                    "duration": 0.16071431249997659
                },
                {
                    "name": "C4",
                    "midi": 60,
                    "time": 287.14290499999805,
                    "velocity": 0.3228346456692913,
                    "duration": 0.16071431249997659
                },
                {
                    "name": "E4",
                    "midi": 64,
                    "time": 287.14290499999805,
                    "velocity": 0.3858267716535433,
                    "duration": 0.16071431249997659
                },
                {
                    "name": "E4",
                    "midi": 64,
                    "time": 287.35719074999804,
                    "velocity": 0.2677165354330709,
                    "duration": 0.16071431249997659
                },
                {
                    "name": "C5",
                    "midi": 72,
                    "time": 287.35719074999804,
                    "velocity": 0.31496062992125984,
                    "duration": 0.16071431249997659
                },
                {
                    "name": "B4",
                    "midi": 71,
                    "time": 287.571476499998,
                    "velocity": 0.3858267716535433,
                    "duration": 0.16071431249997659
                },
                {
                    "name": "F4",
                    "midi": 65,
                    "time": 287.571476499998,
                    "velocity": 0.3228346456692913,
                    "duration": 0.16071431249997659
                },
                {
                    "name": "B4",
                    "midi": 71,
                    "time": 287.785762249998,
                    "velocity": 0.28346456692913385,
                    "duration": 0.16071431249997659
                },
                {
                    "name": "F5",
                    "midi": 77,
                    "time": 287.785762249998,
                    "velocity": 0.33858267716535434,
                    "duration": 0.16071431249997659
                },
                {
                    "name": "C5",
                    "midi": 72,
                    "time": 288.000047999998,
                    "velocity": 0.3228346456692913,
                    "duration": 0.32142862500001
                },
                {
                    "name": "E5",
                    "midi": 76,
                    "time": 288.000047999998,
                    "velocity": 0.3858267716535433,
                    "duration": 0.32142862500001
                },
                {
                    "name": "B3",
                    "midi": 59,
                    "time": 288.42861949999804,
                    "velocity": 0.3228346456692913,
                    "duration": 0.16071431249997659
                },
                {
                    "name": "D4",
                    "midi": 62,
                    "time": 288.42861949999804,
                    "velocity": 0.3858267716535433,
                    "duration": 0.16071431249997659
                },
                {
                    "name": "D4",
                    "midi": 62,
                    "time": 288.642905249998,
                    "velocity": 0.28346456692913385,
                    "duration": 0.16071431249997659
                },
                {
                    "name": "G4",
                    "midi": 67,
                    "time": 288.642905249998,
                    "velocity": 0.33858267716535434,
                    "duration": 0.16071431249997659
                },
                {
                    "name": "C4",
                    "midi": 60,
                    "time": 288.857190999998,
                    "velocity": 0.3228346456692913,
                    "duration": 0.16071431249997659
                },
                {
                    "name": "E4",
                    "midi": 64,
                    "time": 288.857190999998,
                    "velocity": 0.3858267716535433,
                    "duration": 0.16071431249997659
                },
                {
                    "name": "E4",
                    "midi": 64,
                    "time": 289.071476749998,
                    "velocity": 0.2677165354330709,
                    "duration": 0.16071431249997659
                },
                {
                    "name": "C5",
                    "midi": 72,
                    "time": 289.071476749998,
                    "velocity": 0.31496062992125984,
                    "duration": 0.16071431249997659
                },
                {
                    "name": "B4",
                    "midi": 71,
                    "time": 289.285762499998,
                    "velocity": 0.3858267716535433,
                    "duration": 0.16071431249997659
                },
                {
                    "name": "F4",
                    "midi": 65,
                    "time": 289.285762499998,
                    "velocity": 0.3228346456692913,
                    "duration": 0.16071431249997659
                },
                {
                    "name": "B4",
                    "midi": 71,
                    "time": 289.500048249998,
                    "velocity": 0.28346456692913385,
                    "duration": 0.16071431249997659
                },
                {
                    "name": "F5",
                    "midi": 77,
                    "time": 289.500048249998,
                    "velocity": 0.33858267716535434,
                    "duration": 0.16071431249997659
                },
                {
                    "name": "C5",
                    "midi": 72,
                    "time": 289.71433399999796,
                    "velocity": 0.3228346456692913,
                    "duration": 0.32142862500001
                },
                {
                    "name": "E5",
                    "midi": 76,
                    "time": 289.71433399999796,
                    "velocity": 0.3858267716535433,
                    "duration": 0.32142862500001
                },
                {
                    "name": "F5",
                    "midi": 77,
                    "time": 290.142905499998,
                    "velocity": 0.4251968503937008,
                    "duration": 0.16071431249997659
                },
                {
                    "name": "B5",
                    "midi": 83,
                    "time": 290.142905499998,
                    "velocity": 0.5039370078740157,
                    "duration": 0.16071431249997659
                },
                {
                    "name": "B5",
                    "midi": 83,
                    "time": 290.357191249998,
                    "velocity": 0.3700787401574803,
                    "duration": 0.16071431249997659
                },
                {
                    "name": "F6",
                    "midi": 89,
                    "time": 290.357191249998,
                    "velocity": 0.4409448818897638,
                    "duration": 0.16071431249997659
                },
                {
                    "name": "C6",
                    "midi": 84,
                    "time": 290.57147699999797,
                    "velocity": 0.4015748031496063,
                    "duration": 0.16071431249997659
                },
                {
                    "name": "E6",
                    "midi": 88,
                    "time": 290.57147699999797,
                    "velocity": 0.48031496062992124,
                    "duration": 0.16071431249997659
                },
                {
                    "name": "E5",
                    "midi": 76,
                    "time": 290.78576274999796,
                    "velocity": 0.3543307086614173,
                    "duration": 0.16071431249997659
                },
                {
                    "name": "C6",
                    "midi": 84,
                    "time": 290.78576274999796,
                    "velocity": 0.4251968503937008,
                    "duration": 0.16071431249997659
                },
                {
                    "name": "B5",
                    "midi": 83,
                    "time": 291.00004849999794,
                    "velocity": 0.3858267716535433,
                    "duration": 0.16071431249997659
                },
                {
                    "name": "F5",
                    "midi": 77,
                    "time": 291.00004849999794,
                    "velocity": 0.3228346456692913,
                    "duration": 0.16071431249997659
                },
                {
                    "name": "B4",
                    "midi": 71,
                    "time": 291.21433424999793,
                    "velocity": 0.28346456692913385,
                    "duration": 0.16071431249997659
                },
                {
                    "name": "F5",
                    "midi": 77,
                    "time": 291.21433424999793,
                    "velocity": 0.33858267716535434,
                    "duration": 0.16071431249997659
                },
                {
                    "name": "C5",
                    "midi": 72,
                    "time": 291.4286199999979,
                    "velocity": 0.3228346456692913,
                    "duration": 0.32142862500001
                },
                {
                    "name": "E5",
                    "midi": 76,
                    "time": 291.4286199999979,
                    "velocity": 0.3858267716535433,
                    "duration": 0.32142862500001
                },
                {
                    "name": "G#4",
                    "midi": 68,
                    "time": 291.85719149999795,
                    "velocity": 0.4330708661417323,
                    "duration": 0.32142862500001
                },
                {
                    "name": "E4",
                    "midi": 64,
                    "time": 291.85719149999795,
                    "velocity": 0.4330708661417323,
                    "duration": 0.32142862500001
                },
                {
                    "name": "D5",
                    "midi": 74,
                    "time": 291.85719149999795,
                    "velocity": 0.4330708661417323,
                    "duration": 0.30892862291665324
                },
                {
                    "name": "E5",
                    "midi": 76,
                    "time": 291.85719149999795,
                    "velocity": 0.5118110236220472,
                    "duration": 0.32142862500001
                },
                {
                    "name": "A4",
                    "midi": 69,
                    "time": 292.285762999998,
                    "velocity": 0.4566929133858268,
                    "duration": 0.32142862500001
                },
                {
                    "name": "F#4",
                    "midi": 66,
                    "time": 292.285762999998,
                    "velocity": 0.4566929133858268,
                    "duration": 0.30892862291665324
                },
                {
                    "name": "D5",
                    "midi": 74,
                    "time": 292.285762999998,
                    "velocity": 0.4566929133858268,
                    "duration": 0.30892862291665324
                },
                {
                    "name": "F#5",
                    "midi": 78,
                    "time": 292.285762999998,
                    "velocity": 0.5433070866141733,
                    "duration": 0.32142862500001
                },
                {
                    "name": "B4",
                    "midi": 71,
                    "time": 292.714334499998,
                    "velocity": 0.49606299212598426,
                    "duration": 0.32142862500001
                },
                {
                    "name": "E5",
                    "midi": 76,
                    "time": 292.714334499998,
                    "velocity": 0.49606299212598426,
                    "duration": 0.32142862500001
                },
                {
                    "name": "G#4",
                    "midi": 68,
                    "time": 292.714334499998,
                    "velocity": 0.49606299212598426,
                    "duration": 0.2892857625000147
                },
                {
                    "name": "G#5",
                    "midi": 80,
                    "time": 292.714334499998,
                    "velocity": 0.5905511811023622,
                    "duration": 0.2892857625000147
                },
                {
                    "name": "C#5",
                    "midi": 73,
                    "time": 293.14290599999805,
                    "velocity": 0.5354330708661418,
                    "duration": 0.32142862500001
                },
                {
                    "name": "E5",
                    "midi": 76,
                    "time": 293.14290599999805,
                    "velocity": 0.5354330708661418,
                    "duration": 0.32142862500001
                },
                {
                    "name": "A4",
                    "midi": 69,
                    "time": 293.14290599999805,
                    "velocity": 0.5354330708661418,
                    "duration": 0.32142862500001
                },
                {
                    "name": "A5",
                    "midi": 81,
                    "time": 293.14290599999805,
                    "velocity": 0.6377952755905512,
                    "duration": 0.32142862500001
                },
                {
                    "name": "B4",
                    "midi": 71,
                    "time": 293.5714774999981,
                    "velocity": 0.5748031496062992,
                    "duration": 0.32142862500001
                },
                {
                    "name": "D#5",
                    "midi": 75,
                    "time": 293.5714774999981,
                    "velocity": 0.5748031496062992,
                    "duration": 0.32142862500001
                },
                {
                    "name": "B5",
                    "midi": 83,
                    "time": 293.5714774999981,
                    "velocity": 0.6850393700787402,
                    "duration": 0.32142862500001
                },
                {
                    "name": "A5",
                    "midi": 81,
                    "time": 293.5714774999981,
                    "velocity": 0.5748031496062992,
                    "duration": 0.32142862500001
                },
                {
                    "name": "C#6",
                    "midi": 85,
                    "time": 294.0000489999981,
                    "velocity": 0.7244094488188977,
                    "duration": 0.64285725000002
                },
                {
                    "name": "A5",
                    "midi": 81,
                    "time": 294.0000489999981,
                    "velocity": 0.6141732283464567,
                    "duration": 0.64285725000002
                },
                {
                    "name": "C#5",
                    "midi": 73,
                    "time": 294.0000489999981,
                    "velocity": 0.6141732283464567,
                    "duration": 0.64285725000002
                },
                {
                    "name": "E5",
                    "midi": 76,
                    "time": 294.0000489999981,
                    "velocity": 0.6141732283464567,
                    "duration": 0.64285725000002
                },
                {
                    "name": "A4",
                    "midi": 69,
                    "time": 294.64290624999813,
                    "velocity": 0.5196850393700787,
                    "duration": 0.21428574999998773
                },
                {
                    "name": "D4",
                    "midi": 62,
                    "time": 294.8571919999981,
                    "velocity": 0.49606299212598426,
                    "duration": 0.8571430000000078
                },
                {
                    "name": "E4",
                    "midi": 64,
                    "time": 294.8571919999981,
                    "velocity": 0.49606299212598426,
                    "duration": 0.8571430000000078
                },
                {
                    "name": "G#4",
                    "midi": 68,
                    "time": 294.8571919999981,
                    "velocity": 0.49606299212598426,
                    "duration": 0.8571430000000078
                },
                {
                    "name": "C#5",
                    "midi": 73,
                    "time": 294.8571919999981,
                    "velocity": 0.5905511811023622,
                    "duration": 0.64285725000002
                },
                {
                    "name": "B4",
                    "midi": 71,
                    "time": 295.50004924999814,
                    "velocity": 0.5039370078740157,
                    "duration": 0.21428574999998773
                },
                {
                    "name": "C#4",
                    "midi": 61,
                    "time": 295.71433499999813,
                    "velocity": 0.41732283464566927,
                    "duration": 1.2857144999999832
                },
                {
                    "name": "E4",
                    "midi": 64,
                    "time": 295.71433499999813,
                    "velocity": 0.41732283464566927,
                    "duration": 1.2857144999999832
                },
                {
                    "name": "A4",
                    "midi": 69,
                    "time": 295.71433499999813,
                    "velocity": 0.49606299212598426,
                    "duration": 1.2857144999999832
                },
                {
                    "name": "E5",
                    "midi": 76,
                    "time": 297.0000494999981,
                    "velocity": 0.41732283464566927,
                    "duration": 0.21428574999998773
                },
                {
                    "name": "D5",
                    "midi": 74,
                    "time": 297.2143352499981,
                    "velocity": 0.3779527559055118,
                    "duration": 0.16071431249997659
                },
                {
                    "name": "D5",
                    "midi": 74,
                    "time": 297.4286209999981,
                    "velocity": 0.41732283464566927,
                    "duration": 0.21428574999998773
                },
                {
                    "name": "C#5",
                    "midi": 73,
                    "time": 297.6429067499981,
                    "velocity": 0.3700787401574803,
                    "duration": 0.21428574999998773
                },
                {
                    "name": "B4",
                    "midi": 71,
                    "time": 297.85719249999806,
                    "velocity": 0.41732283464566927,
                    "duration": 0.21428574999998773
                },
                {
                    "name": "A4",
                    "midi": 69,
                    "time": 298.07147824999805,
                    "velocity": 0.3858267716535433,
                    "duration": 0.08035715624998829
                },
                {
                    "name": "A4",
                    "midi": 69,
                    "time": 298.178621124998,
                    "velocity": 0.3543307086614173,
                    "duration": 0.10714287500002229
                },
                {
                    "name": "E5",
                    "midi": 76,
                    "time": 298.28576399999804,
                    "velocity": 0.4409448818897638,
                    "duration": 1.2857144999999832
                },
                {
                    "name": "E5",
                    "midi": 76,
                    "time": 299.571478499998,
                    "velocity": 0.41732283464566927,
                    "duration": 0.21428574999998773
                },
                {
                    "name": "D5",
                    "midi": 74,
                    "time": 299.785764249998,
                    "velocity": 0.3779527559055118,
                    "duration": 0.16071431249997659
                },
                {
                    "name": "D5",
                    "midi": 74,
                    "time": 300.000049999998,
                    "velocity": 0.41732283464566927,
                    "duration": 0.14285716666665849
                },
                {
                    "name": "C#5",
                    "midi": 73,
                    "time": 300.14290716666466,
                    "velocity": 0.3700787401574803,
                    "duration": 0.14285716666665849
                },
                {
                    "name": "B4",
                    "midi": 71,
                    "time": 300.2857643333313,
                    "velocity": 0.3700787401574803,
                    "duration": 0.14285716666665849
                },
                {
                    "name": "A#4",
                    "midi": 70,
                    "time": 300.428621499998,
                    "velocity": 0.41732283464566927,
                    "duration": 0.14285716666665849
                },
                {
                    "name": "C#5",
                    "midi": 73,
                    "time": 300.57147866666463,
                    "velocity": 0.3700787401574803,
                    "duration": 0.14285716666665849
                },
                {
                    "name": "D5",
                    "midi": 74,
                    "time": 300.7143358333313,
                    "velocity": 0.3700787401574803,
                    "duration": 0.14285716666665849
                },
                {
                    "name": "C#5",
                    "midi": 73,
                    "time": 300.7857644166646,
                    "velocity": 0.3543307086614173,
                    "duration": 0.07142858333332924
                },
                {
                    "name": "E5",
                    "midi": 76,
                    "time": 300.85719299999795,
                    "velocity": 0.41732283464566927,
                    "duration": 1.2857144999999832
                },
                {
                    "name": "A#4",
                    "midi": 70,
                    "time": 302.14290749999793,
                    "velocity": 0.4881889763779528,
                    "duration": 0.21428574999998773
                },
                {
                    "name": "F#5",
                    "midi": 78,
                    "time": 302.3571932499979,
                    "velocity": 0.44881889763779526,
                    "duration": 0.21428574999998773
                },
                {
                    "name": "D5",
                    "midi": 74,
                    "time": 302.5714789999979,
                    "velocity": 0.48031496062992124,
                    "duration": 0.10714287500002229
                },
                {
                    "name": "E5",
                    "midi": 76,
                    "time": 302.67862187499793,
                    "velocity": 0.4645669291338583,
                    "duration": 0.10714287500002229
                },
                {
                    "name": "D5",
                    "midi": 74,
                    "time": 302.78576474999795,
                    "velocity": 0.4645669291338583,
                    "duration": 0.10714287500002229
                },
                {
                    "name": "C#5",
                    "midi": 73,
                    "time": 302.892907624998,
                    "velocity": 0.47244094488188976,
                    "duration": 0.10714287500002229
                },
                {
                    "name": "B4",
                    "midi": 71,
                    "time": 303.000050499998,
                    "velocity": 0.49606299212598426,
                    "duration": 0.10714287500002229
                },
                {
                    "name": "C#5",
                    "midi": 73,
                    "time": 303.107193374998,
                    "velocity": 0.5118110236220472,
                    "duration": 0.10714287500002229
                },
                {
                    "name": "D5",
                    "midi": 74,
                    "time": 303.21433624999804,
                    "velocity": 0.5354330708661418,
                    "duration": 0.10714287500002229
                },
                {
                    "name": "E5",
                    "midi": 76,
                    "time": 303.32147912499806,
                    "velocity": 0.5590551181102362,
                    "duration": 0.10714287500002229
                },
                {
                    "name": "F#5",
                    "midi": 78,
                    "time": 303.4286219999981,
                    "velocity": 0.6141732283464567,
                    "duration": 1.2857144999999264
                },
                {
                    "name": "A#4",
                    "midi": 70,
                    "time": 303.85719349999806,
                    "velocity": 0.5354330708661418,
                    "duration": 0.42857149999997546
                },
                {
                    "name": "B4",
                    "midi": 71,
                    "time": 304.28576499999804,
                    "velocity": 0.5511811023622047,
                    "duration": 0.42857149999997546
                },
                {
                    "name": "A#5",
                    "midi": 82,
                    "time": 304.714336499998,
                    "velocity": 0.6062992125984252,
                    "duration": 0.42857149999997546
                },
                {
                    "name": "C#5",
                    "midi": 73,
                    "time": 304.714336499998,
                    "velocity": 0.5118110236220472,
                    "duration": 0.42857149999997546
                },
                {
                    "name": "B5",
                    "midi": 83,
                    "time": 305.142907999998,
                    "velocity": 0.6377952755905512,
                    "duration": 0.42857149999997546
                },
                {
                    "name": "D5",
                    "midi": 74,
                    "time": 305.142907999998,
                    "velocity": 0.5354330708661418,
                    "duration": 0.42857149999997546
                },
                {
                    "name": "F#5",
                    "midi": 78,
                    "time": 305.57147949999796,
                    "velocity": 0.47244094488188976,
                    "duration": 0.21428574999998773
                },
                {
                    "name": "B4",
                    "midi": 71,
                    "time": 305.57147949999796,
                    "velocity": 0.4015748031496063,
                    "duration": 0.42857149999997546
                },
                {
                    "name": "D5",
                    "midi": 74,
                    "time": 305.78576524999795,
                    "velocity": 0.3543307086614173,
                    "duration": 0.21428574999998773
                },
                {
                    "name": "A4",
                    "midi": 69,
                    "time": 306.00005099999794,
                    "velocity": 0.36220472440944884,
                    "duration": 0.8571430000000078
                },
                {
                    "name": "C#5",
                    "midi": 73,
                    "time": 306.00005099999794,
                    "velocity": 0.4330708661417323,
                    "duration": 0.8571430000000078
                },
                {
                    "name": "G#4",
                    "midi": 68,
                    "time": 306.85719399999795,
                    "velocity": 0.33858267716535434,
                    "duration": 0.42857149999997546
                },
                {
                    "name": "B4",
                    "midi": 71,
                    "time": 306.85719399999795,
                    "velocity": 0.4015748031496063,
                    "duration": 0.42857149999997546
                },
                {
                    "name": "E4",
                    "midi": 64,
                    "time": 307.2857654999979,
                    "velocity": 0.47244094488188976,
                    "duration": 0.2500000416666808
                },
                {
                    "name": "D#4",
                    "midi": 63,
                    "time": 307.5000512499979,
                    "velocity": 0.4330708661417323,
                    "duration": 0.16071431250003343
                },
                {
                    "name": "E4",
                    "midi": 64,
                    "time": 307.71433699999795,
                    "velocity": 0.47244094488188976,
                    "duration": 0.21428574999998773
                },
                {
                    "name": "B3",
                    "midi": 59,
                    "time": 307.92862274999794,
                    "velocity": 0.4251968503937008,
                    "duration": 0.21428574999998773
                },
                {
                    "name": "A3",
                    "midi": 57,
                    "time": 308.14290849999793,
                    "velocity": 0.4330708661417323,
                    "duration": 0.05357143750001114
                },
                {
                    "name": "B3",
                    "midi": 59,
                    "time": 308.19647993749794,
                    "velocity": 0.4409448818897638,
                    "duration": 0.05357143750001114
                },
                {
                    "name": "A3",
                    "midi": 57,
                    "time": 308.25005137499795,
                    "velocity": 0.47244094488188976,
                    "duration": 0.10714287500002229
                },
                {
                    "name": "G#3",
                    "midi": 56,
                    "time": 308.357194249998,
                    "velocity": 0.4409448818897638,
                    "duration": 0.08035715624998829
                },
                {
                    "name": "G#3",
                    "midi": 56,
                    "time": 308.46433712499794,
                    "velocity": 0.4015748031496063,
                    "duration": 0.10714287500002229
                },
                {
                    "name": "E4",
                    "midi": 64,
                    "time": 308.57147999999796,
                    "velocity": 0.5039370078740157,
                    "duration": 0.21428574999998773
                },
                {
                    "name": "E4",
                    "midi": 64,
                    "time": 309.00005149999794,
                    "velocity": 0.5354330708661418,
                    "duration": 0.8392858541666897
                },
                {
                    "name": "E4",
                    "midi": 64,
                    "time": 309.85719449999795,
                    "velocity": 0.47244094488188976,
                    "duration": 0.2500000416666808
                },
                {
                    "name": "D#4",
                    "midi": 63,
                    "time": 310.07148024999793,
                    "velocity": 0.4330708661417323,
                    "duration": 0.16071431250003343
                },
                {
                    "name": "E4",
                    "midi": 64,
                    "time": 310.285765999998,
                    "velocity": 0.47244094488188976,
                    "duration": 0.21428574999998773
                },
                {
                    "name": "C4",
                    "midi": 60,
                    "time": 310.50005174999797,
                    "velocity": 0.4251968503937008,
                    "duration": 0.21428574999998773
                },
                {
                    "name": "B3",
                    "midi": 59,
                    "time": 310.71433749999795,
                    "velocity": 0.4330708661417323,
                    "duration": 0.05357143750001114
                },
                {
                    "name": "C4",
                    "midi": 60,
                    "time": 310.76790893749796,
                    "velocity": 0.4409448818897638,
                    "duration": 0.05357143750001114
                },
                {
                    "name": "B3",
                    "midi": 59,
                    "time": 310.821480374998,
                    "velocity": 0.47244094488188976,
                    "duration": 0.10714287500002229
                },
                {
                    "name": "A3",
                    "midi": 57,
                    "time": 310.928623249998,
                    "velocity": 0.4409448818897638,
                    "duration": 0.08035715624998829
                },
                {
                    "name": "A3",
                    "midi": 57,
                    "time": 311.03576612499796,
                    "velocity": 0.4015748031496063,
                    "duration": 0.10714287500002229
                },
                {
                    "name": "F4",
                    "midi": 65,
                    "time": 311.142908999998,
                    "velocity": 0.5039370078740157,
                    "duration": 0.21428574999998773
                },
                {
                    "name": "F4",
                    "midi": 65,
                    "time": 311.57148049999796,
                    "velocity": 0.5354330708661418,
                    "duration": 0.8392858541666897
                },
                {
                    "name": "F4",
                    "midi": 65,
                    "time": 312.42862349999797,
                    "velocity": 0.5196850393700787,
                    "duration": 0.2500000416666808
                },
                {
                    "name": "E4",
                    "midi": 64,
                    "time": 312.64290924999796,
                    "velocity": 0.48031496062992124,
                    "duration": 0.16071431250003343
                },
                {
                    "name": "F4",
                    "midi": 65,
                    "time": 312.857194999998,
                    "velocity": 0.5354330708661418,
                    "duration": 0.21428574999998773
                },
                {
                    "name": "D4",
                    "midi": 62,
                    "time": 313.071480749998,
                    "velocity": 0.4881889763779528,
                    "duration": 0.21428574999998773
                },
                {
                    "name": "C4",
                    "midi": 60,
                    "time": 313.285766499998,
                    "velocity": 0.5118110236220472,
                    "duration": 0.05357143750001114
                },
                {
                    "name": "D4",
                    "midi": 62,
                    "time": 313.339337937498,
                    "velocity": 0.5196850393700787,
                    "duration": 0.05357143750001114
                },
                {
                    "name": "C4",
                    "midi": 60,
                    "time": 313.392909374998,
                    "velocity": 0.5669291338582677,
                    "duration": 0.10714287500002229
                },
                {
                    "name": "B3",
                    "midi": 59,
                    "time": 313.500052249998,
                    "velocity": 0.5275590551181102,
                    "duration": 0.08035715624998829
                },
                {
                    "name": "B3",
                    "midi": 59,
                    "time": 313.607195124998,
                    "velocity": 0.4881889763779528,
                    "duration": 0.10714287500002229
                },
                {
                    "name": "G4",
                    "midi": 67,
                    "time": 313.714337999998,
                    "velocity": 0.6141732283464567,
                    "duration": 0.41071435416665736
                },
                {
                    "name": "D4",
                    "midi": 62,
                    "time": 314.142909499998,
                    "velocity": 0.33070866141732286,
                    "duration": 0.4071429250000165
                },
                {
                    "name": "G4",
                    "midi": 67,
                    "time": 314.142909499998,
                    "velocity": 0.33070866141732286,
                    "duration": 0.4071429250000165
                },
                {
                    "name": "B4",
                    "midi": 71,
                    "time": 314.142909499998,
                    "velocity": 0.3937007874015748,
                    "duration": 0.4071429250000165
                },
                {
                    "name": "C4",
                    "midi": 60,
                    "time": 314.571480999998,
                    "velocity": 0.33070866141732286,
                    "duration": 0.4071429250000165
                },
                {
                    "name": "G4",
                    "midi": 67,
                    "time": 314.571480999998,
                    "velocity": 0.33070866141732286,
                    "duration": 0.4071429250000165
                },
                {
                    "name": "C5",
                    "midi": 72,
                    "time": 314.571480999998,
                    "velocity": 0.3937007874015748,
                    "duration": 0.4071429250000165
                },
                {
                    "name": "D4",
                    "midi": 62,
                    "time": 315.00005249999805,
                    "velocity": 0.36220472440944884,
                    "duration": 0.4071429250000165
                },
                {
                    "name": "G4",
                    "midi": 67,
                    "time": 315.00005249999805,
                    "velocity": 0.36220472440944884,
                    "duration": 0.4071429250000165
                },
                {
                    "name": "D5",
                    "midi": 74,
                    "time": 315.00005249999805,
                    "velocity": 0.4330708661417323,
                    "duration": 0.4071429250000165
                },
                {
                    "name": "E4",
                    "midi": 64,
                    "time": 315.4286239999981,
                    "velocity": 0.41732283464566927,
                    "duration": 0.4071429250000165
                },
                {
                    "name": "G4",
                    "midi": 67,
                    "time": 315.4286239999981,
                    "velocity": 0.41732283464566927,
                    "duration": 0.4071429250000165
                },
                {
                    "name": "E5",
                    "midi": 76,
                    "time": 315.4286239999981,
                    "velocity": 0.49606299212598426,
                    "duration": 0.4071429250000165
                },
                {
                    "name": "G5",
                    "midi": 79,
                    "time": 315.8571954999981,
                    "velocity": 0.4645669291338583,
                    "duration": 0.21428574999998773
                },
                {
                    "name": "G4",
                    "midi": 67,
                    "time": 315.8571954999981,
                    "velocity": 0.3937007874015748,
                    "duration": 0.40714292499995963
                },
                {
                    "name": "B4",
                    "midi": 71,
                    "time": 315.8571954999981,
                    "velocity": 0.3937007874015748,
                    "duration": 0.40714292499995963
                },
                {
                    "name": "F5",
                    "midi": 77,
                    "time": 316.0714812499981,
                    "velocity": 0.4094488188976378,
                    "duration": 0.19642860416661279
                },
                {
                    "name": "G4",
                    "midi": 67,
                    "time": 316.28576699999803,
                    "velocity": 0.33070866141732286,
                    "duration": 1.2857144999999832
                },
                {
                    "name": "B4",
                    "midi": 71,
                    "time": 316.28576699999803,
                    "velocity": 0.33070866141732286,
                    "duration": 0.8571430000000078
                },
                {
                    "name": "F5",
                    "midi": 77,
                    "time": 316.28576699999803,
                    "velocity": 0.3937007874015748,
                    "duration": 0.8571430000000078
                },
                {
                    "name": "C5",
                    "midi": 72,
                    "time": 317.14290999999804,
                    "velocity": 0.29133858267716534,
                    "duration": 0.42857149999997546
                },
                {
                    "name": "E5",
                    "midi": 76,
                    "time": 317.14290999999804,
                    "velocity": 0.3464566929133858,
                    "duration": 0.42857149999997546
                },
                {
                    "name": "G4",
                    "midi": 67,
                    "time": 317.571481499998,
                    "velocity": 0.4881889763779528,
                    "duration": 0.41071435416665736
                },
                {
                    "name": "E5",
                    "midi": 76,
                    "time": 317.571481499998,
                    "velocity": 0.4881889763779528,
                    "duration": 0.41071435416665736
                },
                {
                    "name": "G5",
                    "midi": 79,
                    "time": 317.571481499998,
                    "velocity": 0.5748031496062992,
                    "duration": 0.41071435416665736
                },
                {
                    "name": "C5",
                    "midi": 72,
                    "time": 318.000052999998,
                    "velocity": 0.5275590551181102,
                    "duration": 0.42857149999997546
                },
                {
                    "name": "G5",
                    "midi": 79,
                    "time": 318.000052999998,
                    "velocity": 0.5275590551181102,
                    "duration": 0.41071435416665736
                },
                {
                    "name": "C6",
                    "midi": 84,
                    "time": 318.000052999998,
                    "velocity": 0.6299212598425197,
                    "duration": 0.42857149999997546
                },
                {
                    "name": "G5",
                    "midi": 79,
                    "time": 318.42862449999797,
                    "velocity": 0.6692913385826772,
                    "duration": 0.38571435000000065
                },
                {
                    "name": "D5",
                    "midi": 74,
                    "time": 318.42862449999797,
                    "velocity": 0.5590551181102362,
                    "duration": 0.38571435000000065
                },
                {
                    "name": "D6",
                    "midi": 86,
                    "time": 318.42862449999797,
                    "velocity": 0.6692913385826772,
                    "duration": 0.38571435000000065
                },
                {
                    "name": "E5",
                    "midi": 76,
                    "time": 318.85719599999794,
                    "velocity": 0.6299212598425197,
                    "duration": 0.32142862500001
                },
                {
                    "name": "G5",
                    "midi": 79,
                    "time": 318.85719599999794,
                    "velocity": 0.6299212598425197,
                    "duration": 0.32142862500001
                },
                {
                    "name": "E6",
                    "midi": 88,
                    "time": 318.85719599999794,
                    "velocity": 0.7559055118110236,
                    "duration": 0.32142862500001
                },
                {
                    "name": "E5",
                    "midi": 76,
                    "time": 319.285767499998,
                    "velocity": 0.5905511811023622,
                    "duration": 0.8214287083333147
                },
                {
                    "name": "G5",
                    "midi": 79,
                    "time": 319.285767499998,
                    "velocity": 0.5905511811023622,
                    "duration": 0.8214287083333147
                },
                {
                    "name": "E6",
                    "midi": 88,
                    "time": 319.285767499998,
                    "velocity": 0.7007874015748031,
                    "duration": 0.8214287083333147
                },
                {
                    "name": "C5",
                    "midi": 72,
                    "time": 320.142910499998,
                    "velocity": 0.31496062992125984,
                    "duration": 0.8571429999999509
                },
                {
                    "name": "E5",
                    "midi": 76,
                    "time": 320.142910499998,
                    "velocity": 0.31496062992125984,
                    "duration": 0.8392858541666328
                },
                {
                    "name": "C6",
                    "midi": 84,
                    "time": 320.142910499998,
                    "velocity": 0.4409448818897638,
                    "duration": 0.42857149999997546
                },
                {
                    "name": "G5",
                    "midi": 79,
                    "time": 320.57148199999796,
                    "velocity": 0.4330708661417323,
                    "duration": 0.42857149999997546
                },
                {
                    "name": "B4",
                    "midi": 71,
                    "time": 321.00005349999793,
                    "velocity": 0.29133858267716534,
                    "duration": 0.42857149999997546
                },
                {
                    "name": "D5",
                    "midi": 74,
                    "time": 321.00005349999793,
                    "velocity": 0.29133858267716534,
                    "duration": 0.38571435000000065
                },
                {
                    "name": "F5",
                    "midi": 77,
                    "time": 321.00005349999793,
                    "velocity": 0.3779527559055118,
                    "duration": 0.38571435000000065
                },
                {
                    "name": "C5",
                    "midi": 72,
                    "time": 321.4286249999979,
                    "velocity": 0.4330708661417323,
                    "duration": 0.32142862500001
                },
                {
                    "name": "E5",
                    "midi": 76,
                    "time": 321.4286249999979,
                    "velocity": 0.5748031496062992,
                    "duration": 0.32142862500001
                },
                {
                    "name": "C5",
                    "midi": 72,
                    "time": 321.85719649999794,
                    "velocity": 0.2992125984251969,
                    "duration": 0.8571430000000078
                },
                {
                    "name": "E5",
                    "midi": 76,
                    "time": 321.85719649999794,
                    "velocity": 0.3937007874015748,
                    "duration": 0.8571430000000078
                },
                {
                    "name": "F4",
                    "midi": 65,
                    "time": 322.71433949999795,
                    "velocity": 0.2677165354330709,
                    "duration": 0.42857149999997546
                },
                {
                    "name": "G4",
                    "midi": 67,
                    "time": 322.71433949999795,
                    "velocity": 0.2677165354330709,
                    "duration": 0.8392858541666328
                },
                {
                    "name": "D5",
                    "midi": 74,
                    "time": 322.71433949999795,
                    "velocity": 0.3700787401574803,
                    "duration": 0.42857149999997546
                },
                {
                    "name": "E4",
                    "midi": 64,
                    "time": 323.1429109999979,
                    "velocity": 0.2677165354330709,
                    "duration": 0.42857149999997546
                },
                {
                    "name": "C5",
                    "midi": 72,
                    "time": 323.1429109999979,
                    "velocity": 0.33858267716535434,
                    "duration": 0.42857149999997546
                },
                {
                    "name": "B3",
                    "midi": 59,
                    "time": 323.5714824999979,
                    "velocity": 0.2440944881889764,
                    "duration": 0.42857149999997546
                },
                {
                    "name": "G4",
                    "midi": 67,
                    "time": 323.5714824999979,
                    "velocity": 0.31496062992125984,
                    "duration": 0.38571435000000065
                },
                {
                    "name": "C4",
                    "midi": 60,
                    "time": 324.0000539999979,
                    "velocity": 0.2440944881889764,
                    "duration": 0.32142862500001
                },
                {
                    "name": "E4",
                    "midi": 64,
                    "time": 324.0000539999979,
                    "velocity": 0.3228346456692913,
                    "duration": 0.32142862500001
                },
                {
                    "name": "C4",
                    "midi": 60,
                    "time": 324.4286254999979,
                    "velocity": 0.23622047244094488,
                    "duration": 0.8571430000000078
                },
                {
                    "name": "E4",
                    "midi": 64,
                    "time": 324.4286254999979,
                    "velocity": 0.30708661417322836,
                    "duration": 0.8571430000000078
                },
                {
                    "name": "E4",
                    "midi": 64,
                    "time": 325.2857684999979,
                    "velocity": 0.3228346456692913,
                    "duration": 0.21428574999998773
                },
                {
                    "name": "C4",
                    "midi": 60,
                    "time": 325.2857684999979,
                    "velocity": 0.2677165354330709,
                    "duration": 0.21428574999998773
                },
                {
                    "name": "B3",
                    "midi": 59,
                    "time": 325.5000542499979,
                    "velocity": 0.2283464566929134,
                    "duration": 0.1928571749999719
                },
                {
                    "name": "D4",
                    "midi": 62,
                    "time": 325.5000542499979,
                    "velocity": 0.2755905511811024,
                    "duration": 0.1928571749999719
                },
                {
                    "name": "B3",
                    "midi": 59,
                    "time": 325.7143399999979,
                    "velocity": 0.2677165354330709,
                    "duration": 0.21428574999998773
                },
                {
                    "name": "D4",
                    "midi": 62,
                    "time": 325.7143399999979,
                    "velocity": 0.3228346456692913,
                    "duration": 0.21428574999998773
                },
                {
                    "name": "C4",
                    "midi": 60,
                    "time": 325.9286257499979,
                    "velocity": 0.23622047244094488,
                    "duration": 0.1928571749999719
                },
                {
                    "name": "E4",
                    "midi": 64,
                    "time": 325.9286257499979,
                    "velocity": 0.28346456692913385,
                    "duration": 0.1928571749999719
                },
                {
                    "name": "C4",
                    "midi": 60,
                    "time": 326.14291149999787,
                    "velocity": 0.2677165354330709,
                    "duration": 0.21428574999998773
                },
                {
                    "name": "E4",
                    "midi": 64,
                    "time": 326.14291149999787,
                    "velocity": 0.3228346456692913,
                    "duration": 0.21428574999998773
                },
                {
                    "name": "B3",
                    "midi": 59,
                    "time": 326.35719724999785,
                    "velocity": 0.2283464566929134,
                    "duration": 0.21428574999998773
                },
                {
                    "name": "F4",
                    "midi": 65,
                    "time": 326.35719724999785,
                    "velocity": 0.2755905511811024,
                    "duration": 0.21428574999998773
                },
                {
                    "name": "C4",
                    "midi": 60,
                    "time": 326.57148299999784,
                    "velocity": 0.2677165354330709,
                    "duration": 0.42857149999997546
                },
                {
                    "name": "E4",
                    "midi": 64,
                    "time": 326.57148299999784,
                    "velocity": 0.3228346456692913,
                    "duration": 0.42857149999997546
                },
                {
                    "name": "E5",
                    "midi": 76,
                    "time": 327.0000544999978,
                    "velocity": 0.3543307086614173,
                    "duration": 0.21428574999998773
                },
                {
                    "name": "C5",
                    "midi": 72,
                    "time": 327.0000544999978,
                    "velocity": 0.29133858267716534,
                    "duration": 0.21428574999998773
                },
                {
                    "name": "B4",
                    "midi": 71,
                    "time": 327.2143402499978,
                    "velocity": 0.2440944881889764,
                    "duration": 0.1928571749999719
                },
                {
                    "name": "D5",
                    "midi": 74,
                    "time": 327.2143402499978,
                    "velocity": 0.2992125984251969,
                    "duration": 0.1928571749999719
                },
                {
                    "name": "B4",
                    "midi": 71,
                    "time": 327.4286259999978,
                    "velocity": 0.29133858267716534,
                    "duration": 0.21428574999998773
                },
                {
                    "name": "D5",
                    "midi": 74,
                    "time": 327.4286259999978,
                    "velocity": 0.3543307086614173,
                    "duration": 0.21428574999998773
                },
                {
                    "name": "C5",
                    "midi": 72,
                    "time": 327.6429117499978,
                    "velocity": 0.25984251968503935,
                    "duration": 0.1928571749999719
                },
                {
                    "name": "E5",
                    "midi": 76,
                    "time": 327.6429117499978,
                    "velocity": 0.30708661417322836,
                    "duration": 0.1928571749999719
                },
                {
                    "name": "B4",
                    "midi": 71,
                    "time": 327.85719749999777,
                    "velocity": 0.29133858267716534,
                    "duration": 0.42857149999997546
                },
                {
                    "name": "G5",
                    "midi": 79,
                    "time": 327.85719749999777,
                    "velocity": 0.3858267716535433,
                    "duration": 0.21428574999998773
                },
                {
                    "name": "F5",
                    "midi": 77,
                    "time": 328.07148324999775,
                    "velocity": 0.3228346456692913,
                    "duration": 0.21428574999998773
                },
                {
                    "name": "C5",
                    "midi": 72,
                    "time": 328.28576899999774,
                    "velocity": 0.29133858267716534,
                    "duration": 0.42857149999997546
                },
                {
                    "name": "E5",
                    "midi": 76,
                    "time": 328.28576899999774,
                    "velocity": 0.3543307086614173,
                    "duration": 0.42857149999997546
                },
                {
                    "name": "E4",
                    "midi": 64,
                    "time": 328.7143404999977,
                    "velocity": 0.2992125984251969,
                    "duration": 0.21428574999998773
                },
                {
                    "name": "C4",
                    "midi": 60,
                    "time": 328.7143404999977,
                    "velocity": 0.2440944881889764,
                    "duration": 0.21428574999998773
                },
                {
                    "name": "B3",
                    "midi": 59,
                    "time": 328.9286262499977,
                    "velocity": 0.2047244094488189,
                    "duration": 0.1928571749999719
                },
                {
                    "name": "D4",
                    "midi": 62,
                    "time": 328.9286262499977,
                    "velocity": 0.25196850393700787,
                    "duration": 0.1928571749999719
                },
                {
                    "name": "B3",
                    "midi": 59,
                    "time": 329.1429119999977,
                    "velocity": 0.2440944881889764,
                    "duration": 0.21428574999998773
                },
                {
                    "name": "D4",
                    "midi": 62,
                    "time": 329.1429119999977,
                    "velocity": 0.2992125984251969,
                    "duration": 0.21428574999998773
                },
                {
                    "name": "C4",
                    "midi": 60,
                    "time": 329.3571977499977,
                    "velocity": 0.2204724409448819,
                    "duration": 0.1928571749999719
                },
                {
                    "name": "E4",
                    "midi": 64,
                    "time": 329.3571977499977,
                    "velocity": 0.25984251968503935,
                    "duration": 0.1928571749999719
                },
                {
                    "name": "B3",
                    "midi": 59,
                    "time": 329.57148349999767,
                    "velocity": 0.2440944881889764,
                    "duration": 0.42857149999997546
                },
                {
                    "name": "G4",
                    "midi": 67,
                    "time": 329.57148349999767,
                    "velocity": 0.3228346456692913,
                    "duration": 0.21428574999998773
                },
                {
                    "name": "F4",
                    "midi": 65,
                    "time": 329.78576924999766,
                    "velocity": 0.2677165354330709,
                    "duration": 0.21428574999998773
                },
                {
                    "name": "C4",
                    "midi": 60,
                    "time": 330.00005499999764,
                    "velocity": 0.2440944881889764,
                    "duration": 0.42857149999997546
                },
                {
                    "name": "E4",
                    "midi": 64,
                    "time": 330.00005499999764,
                    "velocity": 0.2992125984251969,
                    "duration": 0.42857149999997546
                },
                {
                    "name": "C5",
                    "midi": 72,
                    "time": 330.4286264999976,
                    "velocity": 0.3543307086614173,
                    "duration": 0.42857149999997546
                },
                {
                    "name": "E5",
                    "midi": 76,
                    "time": 330.4286264999976,
                    "velocity": 0.3543307086614173,
                    "duration": 0.42857149999997546
                },
                {
                    "name": "D5",
                    "midi": 74,
                    "time": 330.8571979999976,
                    "velocity": 0.3858267716535433,
                    "duration": 0.21428574999998773
                },
                {
                    "name": "E5",
                    "midi": 76,
                    "time": 330.8571979999976,
                    "velocity": 0.3858267716535433,
                    "duration": 0.21428574999998773
                },
                {
                    "name": "F#5",
                    "midi": 78,
                    "time": 331.0714837499976,
                    "velocity": 0.3779527559055118,
                    "duration": 0.05357143750001114
                },
                {
                    "name": "E5",
                    "midi": 76,
                    "time": 331.1250551874976,
                    "velocity": 0.3779527559055118,
                    "duration": 0.05357143750001114
                },
                {
                    "name": "D5",
                    "midi": 74,
                    "time": 331.1786266249976,
                    "velocity": 0.3779527559055118,
                    "duration": 0.005357143750018167
                },
                {
                    "name": "E5",
                    "midi": 76,
                    "time": 331.2321980624976,
                    "velocity": 0.3779527559055118,
                    "duration": 0.05357143750001114
                },
                {
                    "name": "F#5",
                    "midi": 78,
                    "time": 331.2857694999976,
                    "velocity": 0.48031496062992124,
                    "duration": 0.32142862500001
                },
                {
                    "name": "D5",
                    "midi": 74,
                    "time": 331.2857694999976,
                    "velocity": 0.4015748031496063,
                    "duration": 0.4285715000000323
                },
                {
                    "name": "E5",
                    "midi": 76,
                    "time": 331.60719812499764,
                    "velocity": 0.41732283464566927,
                    "duration": 0.10714287500002229
                },
                {
                    "name": "C#5",
                    "midi": 73,
                    "time": 331.71434099999766,
                    "velocity": 0.3858267716535433,
                    "duration": 0.41071435416665736
                },
                {
                    "name": "E5",
                    "midi": 76,
                    "time": 331.71434099999766,
                    "velocity": 0.5354330708661418,
                    "duration": 0.21428574999998773
                },
                {
                    "name": "A5",
                    "midi": 81,
                    "time": 331.92862674999765,
                    "velocity": 0.48031496062992124,
                    "duration": 0.21428574999998773
                },
                {
                    "name": "C#5",
                    "midi": 73,
                    "time": 332.14291249999764,
                    "velocity": 0.3543307086614173,
                    "duration": 0.42857149999997546
                },
                {
                    "name": "E5",
                    "midi": 76,
                    "time": 332.14291249999764,
                    "velocity": 0.5039370078740157,
                    "duration": 0.21428574999998773
                },
                {
                    "name": "C#6",
                    "midi": 85,
                    "time": 332.3571982499976,
                    "velocity": 0.4645669291338583,
                    "duration": 0.21428574999998773
                },
                {
                    "name": "B4",
                    "midi": 71,
                    "time": 332.5714839999976,
                    "velocity": 0.30708661417322836,
                    "duration": 0.8571430000000078
                },
                {
                    "name": "E5",
                    "midi": 76,
                    "time": 332.5714839999976,
                    "velocity": 0.30708661417322836,
                    "duration": 0.8571430000000078
                },
                {
                    "name": "G#5",
                    "midi": 80,
                    "time": 332.5714839999976,
                    "velocity": 0.4409448818897638,
                    "duration": 0.8571430000000078
                },
                {
                    "name": "A4",
                    "midi": 69,
                    "time": 333.4286269999976,
                    "velocity": 0.30708661417322836,
                    "duration": 0.8571430000000078
                },
                {
                    "name": "D#5",
                    "midi": 75,
                    "time": 333.4286269999976,
                    "velocity": 0.30708661417322836,
                    "duration": 0.8571430000000078
                },
                {
                    "name": "G#5",
                    "midi": 80,
                    "time": 333.4286269999976,
                    "velocity": 0.4330708661417323,
                    "duration": 0.42857149999997546
                },
                {
                    "name": "F#5",
                    "midi": 78,
                    "time": 333.8571984999976,
                    "velocity": 0.3779527559055118,
                    "duration": 0.32142862500001
                },
                {
                    "name": "E5",
                    "midi": 76,
                    "time": 334.1786271249976,
                    "velocity": 0.3543307086614173,
                    "duration": 0.10714287500002229
                },
                {
                    "name": "G#4",
                    "midi": 68,
                    "time": 334.2857699999976,
                    "velocity": 0.3779527559055118,
                    "duration": 0.64285725000002
                },
                {
                    "name": "E5",
                    "midi": 76,
                    "time": 334.2857699999976,
                    "velocity": 0.3779527559055118,
                    "duration": 0.64285725000002
                },
                {
                    "name": "G#3",
                    "midi": 56,
                    "time": 334.92862724999765,
                    "velocity": 0.2677165354330709,
                    "duration": 0.1928571749999719
                },
                {
                    "name": "B3",
                    "midi": 59,
                    "time": 335.14291299999763,
                    "velocity": 0.3228346456692913,
                    "duration": 0.1928571749999719
                },
                {
                    "name": "E4",
                    "midi": 64,
                    "time": 335.3571987499976,
                    "velocity": 0.2755905511811024,
                    "duration": 0.1928571749999719
                },
                {
                    "name": "G#4",
                    "midi": 68,
                    "time": 335.5714844999976,
                    "velocity": 0.3228346456692913,
                    "duration": 0.42857149999997546
                },
                {
                    "name": "B4",
                    "midi": 71,
                    "time": 335.7857702499976,
                    "velocity": 0.25984251968503935,
                    "duration": 0.21428574999998773
                },
                {
                    "name": "A4",
                    "midi": 69,
                    "time": 336.0000559999976,
                    "velocity": 0.3228346456692913,
                    "duration": 0.38571435000000065
                },
                {
                    "name": "C#5",
                    "midi": 73,
                    "time": 336.0000559999976,
                    "velocity": 0.3228346456692913,
                    "duration": 0.38571435000000065
                },
                {
                    "name": "G4",
                    "midi": 67,
                    "time": 336.42862749999756,
                    "velocity": 0.28346456692913385,
                    "duration": 0.38571435000000065
                },
                {
                    "name": "A#4",
                    "midi": 70,
                    "time": 336.42862749999756,
                    "velocity": 0.28346456692913385,
                    "duration": 0.38571435000000065
                },
                {
                    "name": "G#4",
                    "midi": 68,
                    "time": 336.85719899999754,
                    "velocity": 0.3779527559055118,
                    "duration": 0.64285725000002
                },
                {
                    "name": "B4",
                    "midi": 71,
                    "time": 336.85719899999754,
                    "velocity": 0.3779527559055118,
                    "duration": 0.64285725000002
                },
                {
                    "name": "B3",
                    "midi": 59,
                    "time": 337.50005624999756,
                    "velocity": 0.2677165354330709,
                    "duration": 0.1928571749999719
                },
                {
                    "name": "E4",
                    "midi": 64,
                    "time": 337.71434199999754,
                    "velocity": 0.3228346456692913,
                    "duration": 0.1928571749999719
                },
                {
                    "name": "G#4",
                    "midi": 68,
                    "time": 337.92862774999753,
                    "velocity": 0.2755905511811024,
                    "duration": 0.1928571749999719
                },
                {
                    "name": "G#4",
                    "midi": 68,
                    "time": 338.1429134999975,
                    "velocity": 0.3228346456692913,
                    "duration": 0.41071435416665736
                },
                {
                    "name": "B4",
                    "midi": 71,
                    "time": 338.1429134999975,
                    "velocity": 0.3228346456692913,
                    "duration": 0.21428574999998773
                },
                {
                    "name": "E5",
                    "midi": 76,
                    "time": 338.3571992499975,
                    "velocity": 0.25984251968503935,
                    "duration": 0.21428574999998773
                },
                {
                    "name": "G#4",
                    "midi": 68,
                    "time": 338.5714849999975,
                    "velocity": 0.3228346456692913,
                    "duration": 0.41071435416665736
                },
                {
                    "name": "B4",
                    "midi": 71,
                    "time": 338.5714849999975,
                    "velocity": 0.3228346456692913,
                    "duration": 0.38571435000000065
                },
                {
                    "name": "F#5",
                    "midi": 78,
                    "time": 338.5714849999975,
                    "velocity": 0.3543307086614173,
                    "duration": 0.38571435000000065
                },
                {
                    "name": "G#4",
                    "midi": 68,
                    "time": 339.00005649999747,
                    "velocity": 0.28346456692913385,
                    "duration": 0.42857149999997546
                },
                {
                    "name": "C5",
                    "midi": 72,
                    "time": 339.00005649999747,
                    "velocity": 0.28346456692913385,
                    "duration": 0.38571435000000065
                },
                {
                    "name": "G#5",
                    "midi": 80,
                    "time": 339.00005649999747,
                    "velocity": 0.33858267716535434,
                    "duration": 0.38571435000000065
                },
                {
                    "name": "A4",
                    "midi": 69,
                    "time": 339.42862799999745,
                    "velocity": 0.33858267716535434,
                    "duration": 1.0714287499999955
                },
                {
                    "name": "C#5",
                    "midi": 73,
                    "time": 339.42862799999745,
                    "velocity": 0.33858267716535434,
                    "duration": 1.0714287499999955
                },
                {
                    "name": "G#5",
                    "midi": 80,
                    "time": 339.42862799999745,
                    "velocity": 0.4015748031496063,
                    "duration": 0.8571430000000078
                },
                {
                    "name": "F#5",
                    "midi": 78,
                    "time": 340.28577099999745,
                    "velocity": 0.3700787401574803,
                    "duration": 0.21428574999998773
                },
                {
                    "name": "A4",
                    "midi": 69,
                    "time": 340.50005674999744,
                    "velocity": 0.3228346456692913,
                    "duration": 0.1928571749999719
                },
                {
                    "name": "A4",
                    "midi": 69,
                    "time": 340.71434249999743,
                    "velocity": 0.2992125984251969,
                    "duration": 0.39642863749998014
                },
                {
                    "name": "C#5",
                    "midi": 73,
                    "time": 340.71434249999743,
                    "velocity": 0.3543307086614173,
                    "duration": 0.42857149999997546
                },
                {
                    "name": "E5",
                    "midi": 76,
                    "time": 340.9286282499974,
                    "velocity": 0.28346456692913385,
                    "duration": 0.21428574999998773
                },
                {
                    "name": "A4",
                    "midi": 69,
                    "time": 341.1429139999974,
                    "velocity": 0.30708661417322836,
                    "duration": 0.38571435000000065
                },
                {
                    "name": "D#5",
                    "midi": 75,
                    "time": 341.1429139999974,
                    "velocity": 0.36220472440944884,
                    "duration": 0.38571435000000065
                },
                {
                    "name": "A4",
                    "midi": 69,
                    "time": 341.5714854999974,
                    "velocity": 0.2755905511811024,
                    "duration": 0.38571435000000065
                },
                {
                    "name": "C#5",
                    "midi": 73,
                    "time": 341.5714854999974,
                    "velocity": 0.33070866141732286,
                    "duration": 0.38571435000000065
                },
                {
                    "name": "A4",
                    "midi": 69,
                    "time": 342.00005699999735,
                    "velocity": 0.3543307086614173,
                    "duration": 0.42857149999997546
                },
                {
                    "name": "B4",
                    "midi": 71,
                    "time": 342.00005699999735,
                    "velocity": 0.41732283464566927,
                    "duration": 0.6428572499999632
                },
                {
                    "name": "B4",
                    "midi": 71,
                    "time": 342.6429142499973,
                    "velocity": 0.31496062992125984,
                    "duration": 0.1928571749999719
                },
                {
                    "name": "D#5",
                    "midi": 75,
                    "time": 342.8571999999973,
                    "velocity": 0.33858267716535434,
                    "duration": 0.1928571749999719
                },
                {
                    "name": "F#5",
                    "midi": 78,
                    "time": 343.0714857499973,
                    "velocity": 0.3543307086614173,
                    "duration": 0.1928571749999719
                },
                {
                    "name": "A5",
                    "midi": 81,
                    "time": 343.2857714999973,
                    "velocity": 0.3700787401574803,
                    "duration": 0.4107143541667142
                },
                {
                    "name": "B5",
                    "midi": 83,
                    "time": 343.50005724999727,
                    "velocity": 0.3858267716535433,
                    "duration": 0.10714287500002229
                },
                {
                    "name": "C#6",
                    "midi": 85,
                    "time": 343.6072001249973,
                    "velocity": 0.3464566929133858,
                    "duration": 0.05357143750001114
                },
                {
                    "name": "D#6",
                    "midi": 87,
                    "time": 343.6607715624973,
                    "velocity": 0.3464566929133858,
                    "duration": 0.05357143750001114
                },
                {
                    "name": "A5",
                    "midi": 81,
                    "time": 343.7143429999973,
                    "velocity": 0.3464566929133858,
                    "duration": 0.38571435000000065
                },
                {
                    "name": "C#6",
                    "midi": 85,
                    "time": 343.7143429999973,
                    "velocity": 0.4094488188976378,
                    "duration": 0.38571435000000065
                },
                {
                    "name": "A5",
                    "midi": 81,
                    "time": 344.1429144999973,
                    "velocity": 0.30708661417322836,
                    "duration": 0.38571435000000065
                },
                {
                    "name": "B5",
                    "midi": 83,
                    "time": 344.1429144999973,
                    "velocity": 0.36220472440944884,
                    "duration": 0.38571435000000065
                },
                {
                    "name": "A5",
                    "midi": 81,
                    "time": 344.57148599999726,
                    "velocity": 0.3543307086614173,
                    "duration": 0.8571430000000078
                },
                {
                    "name": "C#6",
                    "midi": 85,
                    "time": 344.57148599999726,
                    "velocity": 0.4251968503937008,
                    "duration": 0.8571430000000078
                },
                {
                    "name": "B5",
                    "midi": 83,
                    "time": 345.4286289999973,
                    "velocity": 0.4409448818897638,
                    "duration": 0.21428574999998773
                },
                {
                    "name": "E4",
                    "midi": 64,
                    "time": 345.85720049999725,
                    "velocity": 0.4094488188976378,
                    "duration": 0.8571429999999509
                },
                {
                    "name": "G#4",
                    "midi": 68,
                    "time": 345.85720049999725,
                    "velocity": 0.4881889763779528,
                    "duration": 0.8571429999999509
                },
                {
                    "name": "C#5",
                    "midi": 73,
                    "time": 346.2857719999972,
                    "velocity": 0.5826771653543307,
                    "duration": 0.42857149999997546
                },
                {
                    "name": "F#4",
                    "midi": 66,
                    "time": 346.7143434999972,
                    "velocity": 0.5039370078740157,
                    "duration": 0.42857149999997546
                },
                {
                    "name": "G#4",
                    "midi": 68,
                    "time": 346.7143434999972,
                    "velocity": 0.5039370078740157,
                    "duration": 0.42857149999997546
                },
                {
                    "name": "C5",
                    "midi": 72,
                    "time": 346.7143434999972,
                    "velocity": 0.6062992125984252,
                    "duration": 0.42857149999997546
                },
                {
                    "name": "E4",
                    "midi": 64,
                    "time": 347.1429149999972,
                    "velocity": 0.5590551181102362,
                    "duration": 0.64285725000002
                },
                {
                    "name": "A4",
                    "midi": 69,
                    "time": 347.1429149999972,
                    "velocity": 0.5590551181102362,
                    "duration": 0.64285725000002
                },
                {
                    "name": "C#5",
                    "midi": 73,
                    "time": 347.1429149999972,
                    "velocity": 0.6614173228346457,
                    "duration": 0.64285725000002
                },
                {
                    "name": "D#4",
                    "midi": 63,
                    "time": 347.7857722499972,
                    "velocity": 0.3937007874015748,
                    "duration": 0.21428574999998773
                },
                {
                    "name": "E4",
                    "midi": 64,
                    "time": 348.0000579999972,
                    "velocity": 0.44881889763779526,
                    "duration": 0.21428574999998773
                },
                {
                    "name": "A4",
                    "midi": 69,
                    "time": 348.21434374999717,
                    "velocity": 0.4330708661417323,
                    "duration": 0.21428574999998773
                },
                {
                    "name": "C#5",
                    "midi": 73,
                    "time": 348.42862949999716,
                    "velocity": 0.44881889763779526,
                    "duration": 0.21428574999998773
                },
                {
                    "name": "E5",
                    "midi": 76,
                    "time": 348.64291524999715,
                    "velocity": 0.4645669291338583,
                    "duration": 0.19642860416666963
                },
                {
                    "name": "F#5",
                    "midi": 78,
                    "time": 348.85720099999713,
                    "velocity": 0.4881889763779528,
                    "duration": 0.42857149999997546
                },
                {
                    "name": "E5",
                    "midi": 76,
                    "time": 348.85720099999713,
                    "velocity": 0.4094488188976378,
                    "duration": 0.41071435416665736
                },
                {
                    "name": "D5",
                    "midi": 74,
                    "time": 349.2857724999971,
                    "velocity": 0.4330708661417323,
                    "duration": 0.32142862500001
                },
                {
                    "name": "G#5",
                    "midi": 80,
                    "time": 349.2857724999971,
                    "velocity": 0.5118110236220472,
                    "duration": 0.32142862500001
                },
                {
                    "name": "E5",
                    "midi": 76,
                    "time": 349.2857724999971,
                    "velocity": 0.4330708661417323,
                    "duration": 0.32142862500001
                },
                {
                    "name": "D5",
                    "midi": 74,
                    "time": 349.71434399999714,
                    "velocity": 0.5354330708661418,
                    "duration": 3.0000004999999987
                },
                {
                    "name": "B5",
                    "midi": 83,
                    "time": 349.71434399999714,
                    "velocity": 0.6377952755905512,
                    "duration": 2.5714290000000233
                },
                {
                    "name": "G#5",
                    "midi": 80,
                    "time": 349.71434399999714,
                    "velocity": 0.5354330708661418,
                    "duration": 2.5714290000000233
                },
                {
                    "name": "F#5",
                    "midi": 78,
                    "time": 352.28577299999716,
                    "velocity": 0.3937007874015748,
                    "duration": 0.42857149999997546
                },
                {
                    "name": "A5",
                    "midi": 81,
                    "time": 352.28577299999716,
                    "velocity": 0.3937007874015748,
                    "duration": 0.42857149999997546
                },
                {
                    "name": "A4",
                    "midi": 69,
                    "time": 354.85720199999713,
                    "velocity": 0.30708661417322836,
                    "duration": 3.0000004999999987
                },
                {
                    "name": "C#5",
                    "midi": 73,
                    "time": 354.85720199999713,
                    "velocity": 0.30708661417322836,
                    "duration": 2.5714290000000233
                },
                {
                    "name": "G5",
                    "midi": 79,
                    "time": 354.85720199999713,
                    "velocity": 0.3700787401574803,
                    "duration": 1.2857144999999832
                },
                {
                    "name": "A5",
                    "midi": 81,
                    "time": 356.1429164999971,
                    "velocity": 0.30708661417322836,
                    "duration": 0.10714287500002229
                },
                {
                    "name": "G5",
                    "midi": 79,
                    "time": 356.25005937499714,
                    "velocity": 0.28346456692913385,
                    "duration": 0.10714287500002229
                },
                {
                    "name": "F#5",
                    "midi": 78,
                    "time": 356.35720224999716,
                    "velocity": 0.30708661417322836,
                    "duration": 0.10714287500002229
                },
                {
                    "name": "G5",
                    "midi": 79,
                    "time": 356.4643451249972,
                    "velocity": 0.28346456692913385,
                    "duration": 0.10714287500002229
                },
                {
                    "name": "F#5",
                    "midi": 78,
                    "time": 356.5714879999972,
                    "velocity": 0.36220472440944884,
                    "duration": 0.21428574999998773
                },
                {
                    "name": "G5",
                    "midi": 79,
                    "time": 356.7857737499972,
                    "velocity": 0.30708661417322836,
                    "duration": 0.21428574999998773
                },
                {
                    "name": "B5",
                    "midi": 83,
                    "time": 357.0000594999972,
                    "velocity": 0.3700787401574803,
                    "duration": 0.21428574999998773
                },
                {
                    "name": "A5",
                    "midi": 81,
                    "time": 357.21434524999717,
                    "velocity": 0.29133858267716534,
                    "duration": 0.21428574999998773
                },
                {
                    "name": "D5",
                    "midi": 74,
                    "time": 357.42863099999715,
                    "velocity": 0.30708661417322836,
                    "duration": 0.42857149999997546
                },
                {
                    "name": "F#5",
                    "midi": 78,
                    "time": 357.42863099999715,
                    "velocity": 0.36220472440944884,
                    "duration": 0.42857149999997546
                },
                {
                    "name": "F#4",
                    "midi": 66,
                    "time": 358.0714882499971,
                    "velocity": 0.3937007874015748,
                    "duration": 0.21428574999998773
                },
                {
                    "name": "A4",
                    "midi": 69,
                    "time": 358.2857739999971,
                    "velocity": 0.44881889763779526,
                    "duration": 0.21428574999998773
                },
                {
                    "name": "D5",
                    "midi": 74,
                    "time": 358.5000597499971,
                    "velocity": 0.4330708661417323,
                    "duration": 0.21428574999998773
                },
                {
                    "name": "F#5",
                    "midi": 78,
                    "time": 358.7143454999971,
                    "velocity": 0.44881889763779526,
                    "duration": 0.21428574999998773
                },
                {
                    "name": "A4",
                    "midi": 69,
                    "time": 358.92863124999707,
                    "velocity": 0.4015748031496063,
                    "duration": 0.6250001041666451
                },
                {
                    "name": "D5",
                    "midi": 74,
                    "time": 358.92863124999707,
                    "velocity": 0.4015748031496063,
                    "duration": 0.21428574999998773
                },
                {
                    "name": "A5",
                    "midi": 81,
                    "time": 358.92863124999707,
                    "velocity": 0.4645669291338583,
                    "duration": 0.21428574999998773
                },
                {
                    "name": "G#5",
                    "midi": 80,
                    "time": 359.14291699999706,
                    "velocity": 0.4881889763779528,
                    "duration": 0.42857149999997546
                },
                {
                    "name": "E5",
                    "midi": 76,
                    "time": 359.14291699999706,
                    "velocity": 0.4094488188976378,
                    "duration": 0.42857149999997546
                },
                {
                    "name": "A4",
                    "midi": 69,
                    "time": 359.57148849999703,
                    "velocity": 0.36220472440944884,
                    "duration": 0.32142862500001
                },
                {
                    "name": "F#5",
                    "midi": 78,
                    "time": 359.57148849999703,
                    "velocity": 0.5118110236220472,
                    "duration": 0.32142862500001
                },
                {
                    "name": "A4",
                    "midi": 69,
                    "time": 360.00005999999706,
                    "velocity": 0.4566929133858268,
                    "duration": 0.64285725000002
                },
                {
                    "name": "E5",
                    "midi": 76,
                    "time": 360.00005999999706,
                    "velocity": 0.5433070866141733,
                    "duration": 0.64285725000002
                },
                {
                    "name": "C#4",
                    "midi": 61,
                    "time": 360.6429172499971,
                    "velocity": 0.3937007874015748,
                    "duration": 0.21428574999998773
                },
                {
                    "name": "E4",
                    "midi": 64,
                    "time": 360.85720299999707,
                    "velocity": 0.44881889763779526,
                    "duration": 0.21428574999998773
                },
                {
                    "name": "A4",
                    "midi": 69,
                    "time": 361.07148874999706,
                    "velocity": 0.4330708661417323,
                    "duration": 0.21428574999998773
                },
                {
                    "name": "C#5",
                    "midi": 73,
                    "time": 361.28577449999705,
                    "velocity": 0.44881889763779526,
                    "duration": 0.21428574999998773
                },
                {
                    "name": "E4",
                    "midi": 64,
                    "time": 361.50006024999703,
                    "velocity": 0.4015748031496063,
                    "duration": 0.6428572499999632
                },
                {
                    "name": "A4",
                    "midi": 69,
                    "time": 361.50006024999703,
                    "velocity": 0.4015748031496063,
                    "duration": 0.21428574999998773
                },
                {
                    "name": "E5",
                    "midi": 76,
                    "time": 361.50006024999703,
                    "velocity": 0.4645669291338583,
                    "duration": 0.21428574999998773
                },
                {
                    "name": "D#5",
                    "midi": 75,
                    "time": 361.714345999997,
                    "velocity": 0.4881889763779528,
                    "duration": 0.42857149999997546
                },
                {
                    "name": "B4",
                    "midi": 71,
                    "time": 361.714345999997,
                    "velocity": 0.4094488188976378,
                    "duration": 0.42857149999997546
                },
                {
                    "name": "E4",
                    "midi": 64,
                    "time": 362.142917499997,
                    "velocity": 0.36220472440944884,
                    "duration": 0.32142862500001
                },
                {
                    "name": "C#5",
                    "midi": 73,
                    "time": 362.142917499997,
                    "velocity": 0.5118110236220472,
                    "duration": 0.32142862500001
                },
                {
                    "name": "E4",
                    "midi": 64,
                    "time": 362.57148899999703,
                    "velocity": 0.4566929133858268,
                    "duration": 0.32142862500001
                },
                {
                    "name": "B4",
                    "midi": 71,
                    "time": 362.57148899999703,
                    "velocity": 0.5433070866141733,
                    "duration": 0.32142862500001
                },
                {
                    "name": "F#4",
                    "midi": 66,
                    "time": 363.00006049999706,
                    "velocity": 0.5748031496062992,
                    "duration": 0.32142862500001
                },
                {
                    "name": "A#4",
                    "midi": 70,
                    "time": 363.00006049999706,
                    "velocity": 0.5748031496062992,
                    "duration": 0.32142862500001
                },
                {
                    "name": "E5",
                    "midi": 76,
                    "time": 363.00006049999706,
                    "velocity": 0.5748031496062992,
                    "duration": 0.32142862500001
                },
                {
                    "name": "G#4",
                    "midi": 68,
                    "time": 363.4286319999971,
                    "velocity": 0.5118110236220472,
                    "duration": 0.8571430000000078
                },
                {
                    "name": "B4",
                    "midi": 71,
                    "time": 363.4286319999971,
                    "velocity": 0.5118110236220472,
                    "duration": 0.8571430000000078
                },
                {
                    "name": "G#5",
                    "midi": 80,
                    "time": 363.4286319999971,
                    "velocity": 0.6062992125984252,
                    "duration": 0.8571430000000078
                },
                {
                    "name": "E5",
                    "midi": 76,
                    "time": 363.4286319999971,
                    "velocity": 0.5118110236220472,
                    "duration": 0.8571430000000078
                },
                {
                    "name": "A4",
                    "midi": 69,
                    "time": 364.2857749999971,
                    "velocity": 0.4094488188976378,
                    "duration": 0.8571430000000078
                },
                {
                    "name": "B4",
                    "midi": 71,
                    "time": 364.2857749999971,
                    "velocity": 0.4094488188976378,
                    "duration": 0.8392858541666897
                },
                {
                    "name": "D#5",
                    "midi": 75,
                    "time": 364.2857749999971,
                    "velocity": 0.4094488188976378,
                    "duration": 0.8571430000000078
                },
                {
                    "name": "G#5",
                    "midi": 80,
                    "time": 364.2857749999971,
                    "velocity": 0.4881889763779528,
                    "duration": 0.64285725000002
                },
                {
                    "name": "F#5",
                    "midi": 78,
                    "time": 364.9286322499971,
                    "velocity": 0.33070866141732286,
                    "duration": 0.21428574999998773
                },
                {
                    "name": "G#4",
                    "midi": 68,
                    "time": 365.1429179999971,
                    "velocity": 0.3228346456692913,
                    "duration": 1.2857144999999832
                },
                {
                    "name": "B4",
                    "midi": 71,
                    "time": 365.1429179999971,
                    "velocity": 0.3228346456692913,
                    "duration": 1.2857144999999832
                },
                {
                    "name": "E5",
                    "midi": 76,
                    "time": 365.1429179999971,
                    "velocity": 0.3858267716535433,
                    "duration": 1.2857144999999832
                },
                {
                    "name": "E4",
                    "midi": 64,
                    "time": 366.4286324999971,
                    "velocity": 0.5984251968503937,
                    "duration": 0.42857149999997546
                },
                {
                    "name": "C#4",
                    "midi": 61,
                    "time": 366.85720399999707,
                    "velocity": 0.5354330708661418,
                    "duration": 0.1928571749999719
                },
                {
                    "name": "A4",
                    "midi": 69,
                    "time": 366.85720399999707,
                    "velocity": 0.6377952755905512,
                    "duration": 0.1928571749999719
                },
                {
                    "name": "A4",
                    "midi": 69,
                    "time": 367.07148974999706,
                    "velocity": 0.5905511811023622,
                    "duration": 0.42857149999997546
                },
                {
                    "name": "C#4",
                    "midi": 61,
                    "time": 367.07148974999706,
                    "velocity": 0.49606299212598426,
                    "duration": 0.42857149999997546
                },
                {
                    "name": "E4",
                    "midi": 64,
                    "time": 367.50006124999703,
                    "velocity": 0.5039370078740157,
                    "duration": 0.21428574999998773
                },
                {
                    "name": "B4",
                    "midi": 71,
                    "time": 367.50006124999703,
                    "velocity": 0.5984251968503937,
                    "duration": 0.21428574999998773
                },
                {
                    "name": "A4",
                    "midi": 69,
                    "time": 367.714346999997,
                    "velocity": 0.5748031496062992,
                    "duration": 0.38571435000000065
                },
                {
                    "name": "C#5",
                    "midi": 73,
                    "time": 367.714346999997,
                    "velocity": 0.6771653543307087,
                    "duration": 0.38571435000000065
                },
                {
                    "name": "A4",
                    "midi": 69,
                    "time": 368.142918499997,
                    "velocity": 0.5669291338582677,
                    "duration": 0.6375001062500019
                },
                {
                    "name": "C#5",
                    "midi": 73,
                    "time": 368.142918499997,
                    "velocity": 0.6692913385826772,
                    "duration": 0.6375001062500019
                },
                {
                    "name": "A4",
                    "midi": 69,
                    "time": 368.785775749997,
                    "velocity": 0.5748031496062992,
                    "duration": 0.42857149999997546
                },
                {
                    "name": "C#5",
                    "midi": 73,
                    "time": 368.785775749997,
                    "velocity": 0.6771653543307087,
                    "duration": 0.42857149999997546
                },
                {
                    "name": "E4",
                    "midi": 64,
                    "time": 369.214347249997,
                    "velocity": 0.49606299212598426,
                    "duration": 0.21428574999998773
                },
                {
                    "name": "B4",
                    "midi": 71,
                    "time": 369.214347249997,
                    "velocity": 0.5826771653543307,
                    "duration": 0.21428574999998773
                },
                {
                    "name": "C#4",
                    "midi": 61,
                    "time": 369.428632999997,
                    "velocity": 0.5118110236220472,
                    "duration": 0.1928571749999719
                },
                {
                    "name": "A4",
                    "midi": 69,
                    "time": 369.428632999997,
                    "velocity": 0.6062992125984252,
                    "duration": 0.1928571749999719
                },
                {
                    "name": "F#4",
                    "midi": 66,
                    "time": 369.64291874999697,
                    "velocity": 0.5748031496062992,
                    "duration": 0.42857149999997546
                },
                {
                    "name": "A4",
                    "midi": 69,
                    "time": 369.64291874999697,
                    "velocity": 0.6771653543307087,
                    "duration": 0.42857149999997546
                },
                {
                    "name": "C#4",
                    "midi": 61,
                    "time": 370.07149024999694,
                    "velocity": 0.5039370078740157,
                    "duration": 0.21428574999998773
                },
                {
                    "name": "G#4",
                    "midi": 68,
                    "time": 370.07149024999694,
                    "velocity": 0.5984251968503937,
                    "duration": 0.21428574999998773
                },
                {
                    "name": "A3",
                    "midi": 57,
                    "time": 370.28577599999693,
                    "velocity": 0.5354330708661418,
                    "duration": 0.38571435000000065
                },
                {
                    "name": "F#4",
                    "midi": 66,
                    "time": 370.28577599999693,
                    "velocity": 0.6299212598425197,
                    "duration": 0.38571435000000065
                },
                {
                    "name": "A3",
                    "midi": 57,
                    "time": 370.7143474999969,
                    "velocity": 0.5748031496062992,
                    "duration": 0.8571430000000078
                },
                {
                    "name": "F#4",
                    "midi": 66,
                    "time": 370.7143474999969,
                    "velocity": 0.6771653543307087,
                    "duration": 0.8571430000000078
                },
                {
                    "name": "F#4",
                    "midi": 66,
                    "time": 371.5714904999969,
                    "velocity": 0.5984251968503937,
                    "duration": 0.42857149999997546
                },
                {
                    "name": "D4",
                    "midi": 62,
                    "time": 372.0000619999969,
                    "velocity": 0.5354330708661418,
                    "duration": 0.1928571749999719
                },
                {
                    "name": "B4",
                    "midi": 71,
                    "time": 372.0000619999969,
                    "velocity": 0.6377952755905512,
                    "duration": 0.1928571749999719
                },
                {
                    "name": "B4",
                    "midi": 71,
                    "time": 372.2143477499969,
                    "velocity": 0.5905511811023622,
                    "duration": 0.42857149999997546
                },
                {
                    "name": "D4",
                    "midi": 62,
                    "time": 372.2143477499969,
                    "velocity": 0.49606299212598426,
                    "duration": 0.42857149999997546
                },
                {
                    "name": "F#4",
                    "midi": 66,
                    "time": 372.64291924999685,
                    "velocity": 0.5039370078740157,
                    "duration": 0.21428574999998773
                },
                {
                    "name": "C#5",
                    "midi": 73,
                    "time": 372.64291924999685,
                    "velocity": 0.5984251968503937,
                    "duration": 0.21428574999998773
                },
                {
                    "name": "B4",
                    "midi": 71,
                    "time": 372.85720499999684,
                    "velocity": 0.5748031496062992,
                    "duration": 0.38571435000000065
                },
                {
                    "name": "D5",
                    "midi": 74,
                    "time": 372.85720499999684,
                    "velocity": 0.6771653543307087,
                    "duration": 0.38571435000000065
                },
                {
                    "name": "B4",
                    "midi": 71,
                    "time": 373.2857764999968,
                    "velocity": 0.5669291338582677,
                    "duration": 0.6375001062500019
                },
                {
                    "name": "D5",
                    "midi": 74,
                    "time": 373.2857764999968,
                    "velocity": 0.6692913385826772,
                    "duration": 0.6375001062500019
                },
                {
                    "name": "B4",
                    "midi": 71,
                    "time": 373.92863374999683,
                    "velocity": 0.5748031496062992,
                    "duration": 0.42857149999997546
                },
                {
                    "name": "D5",
                    "midi": 74,
                    "time": 373.92863374999683,
                    "velocity": 0.6771653543307087,
                    "duration": 0.42857149999997546
                },
                {
                    "name": "F#4",
                    "midi": 66,
                    "time": 374.3572052499968,
                    "velocity": 0.49606299212598426,
                    "duration": 0.21428574999998773
                },
                {
                    "name": "C#5",
                    "midi": 73,
                    "time": 374.3572052499968,
                    "velocity": 0.5826771653543307,
                    "duration": 0.21428574999998773
                },
                {
                    "name": "D4",
                    "midi": 62,
                    "time": 374.5714909999968,
                    "velocity": 0.5118110236220472,
                    "duration": 0.1928571749999719
                },
                {
                    "name": "B4",
                    "midi": 71,
                    "time": 374.5714909999968,
                    "velocity": 0.6062992125984252,
                    "duration": 0.1928571749999719
                },
                {
                    "name": "G#4",
                    "midi": 68,
                    "time": 374.7857767499968,
                    "velocity": 0.5748031496062992,
                    "duration": 0.42857149999997546
                },
                {
                    "name": "B4",
                    "midi": 71,
                    "time": 374.7857767499968,
                    "velocity": 0.6771653543307087,
                    "duration": 0.42857149999997546
                },
                {
                    "name": "D#4",
                    "midi": 63,
                    "time": 375.21434824999676,
                    "velocity": 0.5039370078740157,
                    "duration": 0.21428574999998773
                },
                {
                    "name": "A4",
                    "midi": 69,
                    "time": 375.21434824999676,
                    "velocity": 0.5984251968503937,
                    "duration": 0.21428574999998773
                },
                {
                    "name": "B3",
                    "midi": 59,
                    "time": 375.42863399999675,
                    "velocity": 0.5354330708661418,
                    "duration": 0.1928571749999719
                },
                {
                    "name": "G#4",
                    "midi": 68,
                    "time": 375.42863399999675,
                    "velocity": 0.6299212598425197,
                    "duration": 0.1928571749999719
                },
                {
                    "name": "B3",
                    "midi": 59,
                    "time": 375.8572054999967,
                    "velocity": 0.5748031496062992,
                    "duration": 0.6375001062500019
                },
                {
                    "name": "G#4",
                    "midi": 68,
                    "time": 375.8572054999967,
                    "velocity": 0.6771653543307087,
                    "duration": 0.6375001062500019
                },
                {
                    "name": "G#3",
                    "midi": 56,
                    "time": 376.50006274999674,
                    "velocity": 0.5748031496062992,
                    "duration": 0.42857149999997546
                },
                {
                    "name": "E4",
                    "midi": 64,
                    "time": 376.50006274999674,
                    "velocity": 0.5748031496062992,
                    "duration": 0.4250000708333346
                },
                {
                    "name": "G#4",
                    "midi": 68,
                    "time": 376.50006274999674,
                    "velocity": 0.6771653543307087,
                    "duration": 0.42857149999997546
                },
                {
                    "name": "A3",
                    "midi": 57,
                    "time": 376.9286342499967,
                    "velocity": 0.49606299212598426,
                    "duration": 0.21428574999998773
                },
                {
                    "name": "E4",
                    "midi": 64,
                    "time": 376.9286342499967,
                    "velocity": 0.49606299212598426,
                    "duration": 0.19642860416666963
                },
                {
                    "name": "A4",
                    "midi": 69,
                    "time": 376.9286342499967,
                    "velocity": 0.5826771653543307,
                    "duration": 0.21428574999998773
                },
                {
                    "name": "E4",
                    "midi": 64,
                    "time": 377.1429199999967,
                    "velocity": 0.5118110236220472,
                    "duration": 0.21428574999998773
                },
                {
                    "name": "B3",
                    "midi": 59,
                    "time": 377.1429199999967,
                    "velocity": 0.5118110236220472,
                    "duration": 0.1928571749999719
                },
                {
                    "name": "B4",
                    "midi": 71,
                    "time": 377.1429199999967,
                    "velocity": 0.6062992125984252,
                    "duration": 0.1928571749999719
                },
                {
                    "name": "C#4",
                    "midi": 61,
                    "time": 377.3572057499967,
                    "velocity": 0.5748031496062992,
                    "duration": 0.42857149999997546
                },
                {
                    "name": "A4",
                    "midi": 69,
                    "time": 377.3572057499967,
                    "velocity": 0.5748031496062992,
                    "duration": 0.42857149999997546
                },
                {
                    "name": "C#5",
                    "midi": 73,
                    "time": 377.3572057499967,
                    "velocity": 0.6771653543307087,
                    "duration": 0.42857149999997546
                },
                {
                    "name": "A4",
                    "midi": 69,
                    "time": 377.78577724999667,
                    "velocity": 0.5039370078740157,
                    "duration": 0.21428574999998773
                },
                {
                    "name": "D4",
                    "midi": 62,
                    "time": 377.78577724999667,
                    "velocity": 0.5039370078740157,
                    "duration": 0.21428574999998773
                },
                {
                    "name": "D5",
                    "midi": 74,
                    "time": 377.78577724999667,
                    "velocity": 0.5984251968503937,
                    "duration": 0.21428574999998773
                },
                {
                    "name": "E4",
                    "midi": 64,
                    "time": 378.00006299999666,
                    "velocity": 0.5354330708661418,
                    "duration": 0.21428574999998773
                },
                {
                    "name": "A4",
                    "midi": 69,
                    "time": 378.00006299999666,
                    "velocity": 0.5354330708661418,
                    "duration": 0.1928571749999719
                },
                {
                    "name": "E5",
                    "midi": 76,
                    "time": 378.00006299999666,
                    "velocity": 0.6299212598425197,
                    "duration": 0.1928571749999719
                },
                {
                    "name": "E4",
                    "midi": 64,
                    "time": 378.42863449999663,
                    "velocity": 0.5748031496062992,
                    "duration": 0.6375001062500019
                },
                {
                    "name": "A4",
                    "midi": 69,
                    "time": 378.42863449999663,
                    "velocity": 0.5748031496062992,
                    "duration": 0.6375001062500019
                },
                {
                    "name": "E5",
                    "midi": 76,
                    "time": 378.42863449999663,
                    "velocity": 0.6771653543307087,
                    "duration": 0.6375001062500019
                },
                {
                    "name": "A4",
                    "midi": 69,
                    "time": 379.07149174999665,
                    "velocity": 0.5511811023622047,
                    "duration": 0.21071432083334685
                },
                {
                    "name": "E5",
                    "midi": 76,
                    "time": 379.07149174999665,
                    "velocity": 0.6535433070866141,
                    "duration": 0.21071432083334685
                },
                {
                    "name": "A4",
                    "midi": 69,
                    "time": 379.28577749999664,
                    "velocity": 0.5748031496062992,
                    "duration": 0.21071432083334685
                },
                {
                    "name": "C#5",
                    "midi": 73,
                    "time": 379.28577749999664,
                    "velocity": 0.5748031496062992,
                    "duration": 0.21071432083334685
                },
                {
                    "name": "A5",
                    "midi": 81,
                    "time": 379.28577749999664,
                    "velocity": 0.6771653543307087,
                    "duration": 0.21071432083334685
                },
                {
                    "name": "A4",
                    "midi": 69,
                    "time": 379.50006324999663,
                    "velocity": 0.5433070866141733,
                    "duration": 0.21071432083334685
                },
                {
                    "name": "E5",
                    "midi": 76,
                    "time": 379.50006324999663,
                    "velocity": 0.6456692913385826,
                    "duration": 0.21071432083334685
                },
                {
                    "name": "A4",
                    "midi": 69,
                    "time": 379.7143489999966,
                    "velocity": 0.5748031496062992,
                    "duration": 0.21071432083334685
                },
                {
                    "name": "C#5",
                    "midi": 73,
                    "time": 379.7143489999966,
                    "velocity": 0.6771653543307087,
                    "duration": 0.21071432083334685
                },
                {
                    "name": "A4",
                    "midi": 69,
                    "time": 379.9286347499966,
                    "velocity": 0.6299212598425197,
                    "duration": 0.21071432083334685
                },
                {
                    "name": "A4",
                    "midi": 69,
                    "time": 380.1429204999966,
                    "velocity": 0.5511811023622047,
                    "duration": 0.21071432083334685
                },
                {
                    "name": "C#5",
                    "midi": 73,
                    "time": 380.1429204999966,
                    "velocity": 0.6535433070866141,
                    "duration": 0.21071432083334685
                },
                {
                    "name": "A4",
                    "midi": 69,
                    "time": 380.3572062499966,
                    "velocity": 0.5511811023622047,
                    "duration": 0.21428574999998773
                },
                {
                    "name": "E5",
                    "midi": 76,
                    "time": 380.3572062499966,
                    "velocity": 0.6535433070866141,
                    "duration": 0.21428574999998773
                },
                {
                    "name": "D5",
                    "midi": 74,
                    "time": 380.57149199999657,
                    "velocity": 0.5354330708661418,
                    "duration": 0.21428574999998773
                },
                {
                    "name": "F#4",
                    "midi": 66,
                    "time": 380.57149199999657,
                    "velocity": 0.5354330708661418,
                    "duration": 0.21428574999998773
                },
                {
                    "name": "A4",
                    "midi": 69,
                    "time": 380.57149199999657,
                    "velocity": 0.5354330708661418,
                    "duration": 0.1928571749999719
                },
                {
                    "name": "F#5",
                    "midi": 78,
                    "time": 380.57149199999657,
                    "velocity": 0.6299212598425197,
                    "duration": 0.1928571749999719
                },
                {
                    "name": "D5",
                    "midi": 74,
                    "time": 381.00006349999654,
                    "velocity": 0.5748031496062992,
                    "duration": 0.6375001062500019
                },
                {
                    "name": "F#4",
                    "midi": 66,
                    "time": 381.00006349999654,
                    "velocity": 0.5748031496062992,
                    "duration": 0.6375001062500019
                },
                {
                    "name": "A4",
                    "midi": 69,
                    "time": 381.00006349999654,
                    "velocity": 0.5748031496062992,
                    "duration": 0.6375001062500019
                },
                {
                    "name": "F#5",
                    "midi": 78,
                    "time": 381.00006349999654,
                    "velocity": 0.6771653543307087,
                    "duration": 0.6375001062500019
                },
                {
                    "name": "F#4",
                    "midi": 66,
                    "time": 381.64292074999656,
                    "velocity": 0.6062992125984252,
                    "duration": 0.42857149999997546
                },
                {
                    "name": "A4",
                    "midi": 69,
                    "time": 381.64292074999656,
                    "velocity": 0.6062992125984252,
                    "duration": 0.4250000708333346
                },
                {
                    "name": "F#5",
                    "midi": 78,
                    "time": 381.64292074999656,
                    "velocity": 0.7165354330708661,
                    "duration": 0.42857149999997546
                },
                {
                    "name": "E4",
                    "midi": 64,
                    "time": 382.07149224999654,
                    "velocity": 0.5433070866141733,
                    "duration": 0.21428574999998773
                },
                {
                    "name": "A4",
                    "midi": 69,
                    "time": 382.07149224999654,
                    "velocity": 0.5433070866141733,
                    "duration": 0.21428574999998773
                },
                {
                    "name": "E5",
                    "midi": 76,
                    "time": 382.07149224999654,
                    "velocity": 0.6456692913385826,
                    "duration": 0.21428574999998773
                },
                {
                    "name": "F#4",
                    "midi": 66,
                    "time": 382.2857779999965,
                    "velocity": 0.5748031496062992,
                    "duration": 0.20357146250000824
                },
                {
                    "name": "A4",
                    "midi": 69,
                    "time": 382.2857779999965,
                    "velocity": 0.5748031496062992,
                    "duration": 0.20357146250000824
                },
                {
                    "name": "F#5",
                    "midi": 78,
                    "time": 382.2857779999965,
                    "velocity": 0.6771653543307087,
                    "duration": 0.20357146250000824
                },
                {
                    "name": "F#4",
                    "midi": 66,
                    "time": 382.5000637499965,
                    "velocity": 0.6535433070866141,
                    "duration": 0.42857149999997546
                },
                {
                    "name": "A4",
                    "midi": 69,
                    "time": 382.5000637499965,
                    "velocity": 0.6535433070866141,
                    "duration": 0.42857149999997546
                },
                {
                    "name": "F#5",
                    "midi": 78,
                    "time": 382.5000637499965,
                    "velocity": 0.6535433070866141,
                    "duration": 0.42857149999997546
                },
                {
                    "name": "G4",
                    "midi": 67,
                    "time": 382.9286352499965,
                    "velocity": 0.5511811023622047,
                    "duration": 0.21428574999998773
                },
                {
                    "name": "G5",
                    "midi": 79,
                    "time": 382.9286352499965,
                    "velocity": 0.6535433070866141,
                    "duration": 0.21428574999998773
                },
                {
                    "name": "A4",
                    "midi": 69,
                    "time": 382.9286352499965,
                    "velocity": 0.5511811023622047,
                    "duration": 0.21428574999998773
                },
                {
                    "name": "F#4",
                    "midi": 66,
                    "time": 383.1429209999965,
                    "velocity": 0.5826771653543307,
                    "duration": 0.21428574999998773
                },
                {
                    "name": "D5",
                    "midi": 74,
                    "time": 383.1429209999965,
                    "velocity": 0.5826771653543307,
                    "duration": 0.1928571749999719
                },
                {
                    "name": "F#5",
                    "midi": 78,
                    "time": 383.1429209999965,
                    "velocity": 0.6929133858267716,
                    "duration": 0.1928571749999719
                },
                {
                    "name": "F#4",
                    "midi": 66,
                    "time": 383.57149249999645,
                    "velocity": 0.5748031496062992,
                    "duration": 0.64285725000002
                },
                {
                    "name": "D5",
                    "midi": 74,
                    "time": 383.57149249999645,
                    "velocity": 0.5748031496062992,
                    "duration": 0.64285725000002
                },
                {
                    "name": "F#5",
                    "midi": 78,
                    "time": 383.57149249999645,
                    "velocity": 0.6771653543307087,
                    "duration": 0.64285725000002
                },
                {
                    "name": "D4",
                    "midi": 62,
                    "time": 384.2143497499965,
                    "velocity": 0.5511811023622047,
                    "duration": 0.21071432083334685
                },
                {
                    "name": "A4",
                    "midi": 69,
                    "time": 384.2143497499965,
                    "velocity": 0.6535433070866141,
                    "duration": 0.21071432083334685
                },
                {
                    "name": "D4",
                    "midi": 62,
                    "time": 384.42863549999646,
                    "velocity": 0.5748031496062992,
                    "duration": 0.21071432083334685
                },
                {
                    "name": "F#4",
                    "midi": 66,
                    "time": 384.42863549999646,
                    "velocity": 0.5748031496062992,
                    "duration": 0.21071432083334685
                },
                {
                    "name": "D5",
                    "midi": 74,
                    "time": 384.42863549999646,
                    "velocity": 0.6771653543307087,
                    "duration": 0.21071432083334685
                },
                {
                    "name": "D4",
                    "midi": 62,
                    "time": 384.64292124999645,
                    "velocity": 0.5433070866141733,
                    "duration": 0.21071432083334685
                },
                {
                    "name": "A4",
                    "midi": 69,
                    "time": 384.64292124999645,
                    "velocity": 0.6456692913385826,
                    "duration": 0.21071432083334685
                },
                {
                    "name": "D4",
                    "midi": 62,
                    "time": 384.85720699999644,
                    "velocity": 0.5511811023622047,
                    "duration": 0.21071432083334685
                },
                {
                    "name": "F#4",
                    "midi": 66,
                    "time": 384.85720699999644,
                    "velocity": 0.6535433070866141,
                    "duration": 0.21071432083334685
                },
                {
                    "name": "D4",
                    "midi": 62,
                    "time": 385.0714927499964,
                    "velocity": 0.5748031496062992,
                    "duration": 0.21071432083334685
                },
                {
                    "name": "A4",
                    "midi": 69,
                    "time": 385.0714927499964,
                    "velocity": 0.6535433070866141,
                    "duration": 0.21071432083334685
                },
                {
                    "name": "F#4",
                    "midi": 66,
                    "time": 385.2857784999964,
                    "velocity": 0.5275590551181102,
                    "duration": 0.21071432083334685
                },
                {
                    "name": "D4",
                    "midi": 62,
                    "time": 385.2857784999964,
                    "velocity": 0.5275590551181102,
                    "duration": 0.21071432083334685
                },
                {
                    "name": "D5",
                    "midi": 74,
                    "time": 385.2857784999964,
                    "velocity": 0.6299212598425197,
                    "duration": 0.21071432083334685
                },
                {
                    "name": "E4",
                    "midi": 64,
                    "time": 385.5000642499964,
                    "velocity": 0.5511811023622047,
                    "duration": 0.21428574999998773
                },
                {
                    "name": "E5",
                    "midi": 76,
                    "time": 385.5000642499964,
                    "velocity": 0.6535433070866141,
                    "duration": 0.21428574999998773
                },
                {
                    "name": "A4",
                    "midi": 69,
                    "time": 385.5000642499964,
                    "velocity": 0.5511811023622047,
                    "duration": 0.21428574999998773
                },
                {
                    "name": "D5",
                    "midi": 74,
                    "time": 385.7143499999964,
                    "velocity": 0.5354330708661418,
                    "duration": 0.21428574999998773
                },
                {
                    "name": "F#4",
                    "midi": 66,
                    "time": 385.7143499999964,
                    "velocity": 0.5354330708661418,
                    "duration": 0.21428574999998773
                },
                {
                    "name": "F#5",
                    "midi": 78,
                    "time": 385.7143499999964,
                    "velocity": 0.6299212598425197,
                    "duration": 0.1928571749999719
                },
                {
                    "name": "D5",
                    "midi": 74,
                    "time": 386.14292149999636,
                    "velocity": 0.5748031496062992,
                    "duration": 0.6375001062500019
                },
                {
                    "name": "F#4",
                    "midi": 66,
                    "time": 386.14292149999636,
                    "velocity": 0.5748031496062992,
                    "duration": 0.6375001062500019
                },
                {
                    "name": "F#5",
                    "midi": 78,
                    "time": 386.14292149999636,
                    "velocity": 0.6771653543307087,
                    "duration": 0.6375001062500019
                },
                {
                    "name": "D5",
                    "midi": 74,
                    "time": 386.7857787499964,
                    "velocity": 0.6692913385826772,
                    "duration": 0.41071435416665736
                },
                {
                    "name": "F#5",
                    "midi": 78,
                    "time": 386.7857787499964,
                    "velocity": 0.6692913385826772,
                    "duration": 0.41071435416665736
                },
                {
                    "name": "D6",
                    "midi": 86,
                    "time": 386.7857787499964,
                    "velocity": 0.7952755905511811,
                    "duration": 0.41071435416665736
                },
                {
                    "name": "D5",
                    "midi": 74,
                    "time": 387.21435024999636,
                    "velocity": 0.6535433070866141,
                    "duration": 0.21428574999998773
                },
                {
                    "name": "F#5",
                    "midi": 78,
                    "time": 387.21435024999636,
                    "velocity": 0.6535433070866141,
                    "duration": 0.21428574999998773
                },
                {
                    "name": "D6",
                    "midi": 86,
                    "time": 387.21435024999636,
                    "velocity": 0.7716535433070866,
                    "duration": 0.21428574999998773
                },
                {
                    "name": "D5",
                    "midi": 74,
                    "time": 387.42863599999635,
                    "velocity": 0.5354330708661418,
                    "duration": 0.21428574999998773
                },
                {
                    "name": "G#4",
                    "midi": 68,
                    "time": 387.42863599999635,
                    "velocity": 0.5354330708661418,
                    "duration": 0.21428574999998773
                },
                {
                    "name": "G#5",
                    "midi": 80,
                    "time": 387.42863599999635,
                    "velocity": 0.6299212598425197,
                    "duration": 0.1928571749999719
                },
                {
                    "name": "D5",
                    "midi": 74,
                    "time": 387.8572074999963,
                    "velocity": 0.5748031496062992,
                    "duration": 0.64285725000002
                },
                {
                    "name": "G#4",
                    "midi": 68,
                    "time": 387.8572074999963,
                    "velocity": 0.5748031496062992,
                    "duration": 0.64285725000002
                },
                {
                    "name": "G#5",
                    "midi": 80,
                    "time": 387.8572074999963,
                    "velocity": 0.6771653543307087,
                    "duration": 0.64285725000002
                },
                {
                    "name": "A4",
                    "midi": 69,
                    "time": 388.50006474999634,
                    "velocity": 0.6692913385826772,
                    "duration": 0.41071435416665736
                },
                {
                    "name": "C#5",
                    "midi": 73,
                    "time": 388.50006474999634,
                    "velocity": 0.6692913385826772,
                    "duration": 0.41071435416665736
                },
                {
                    "name": "A5",
                    "midi": 81,
                    "time": 388.50006474999634,
                    "velocity": 0.7952755905511811,
                    "duration": 0.41071435416665736
                },
                {
                    "name": "A4",
                    "midi": 69,
                    "time": 388.9286362499963,
                    "velocity": 0.5826771653543307,
                    "duration": 0.21428574999998773
                },
                {
                    "name": "C#5",
                    "midi": 73,
                    "time": 388.9286362499963,
                    "velocity": 0.5826771653543307,
                    "duration": 0.21428574999998773
                },
                {
                    "name": "A5",
                    "midi": 81,
                    "time": 388.9286362499963,
                    "velocity": 0.6929133858267716,
                    "duration": 0.21428574999998773
                },
                {
                    "name": "C#4",
                    "midi": 61,
                    "time": 389.1429219999963,
                    "velocity": 0.5354330708661418,
                    "duration": 0.21428574999998773
                },
                {
                    "name": "A3",
                    "midi": 57,
                    "time": 389.1429219999963,
                    "velocity": 0.5354330708661418,
                    "duration": 0.21428574999998773
                },
                {
                    "name": "A4",
                    "midi": 69,
                    "time": 389.1429219999963,
                    "velocity": 0.6299212598425197,
                    "duration": 0.1928571749999719
                },
                {
                    "name": "C#4",
                    "midi": 61,
                    "time": 389.5714934999963,
                    "velocity": 0.5748031496062992,
                    "duration": 0.64285725000002
                },
                {
                    "name": "A3",
                    "midi": 57,
                    "time": 389.5714934999963,
                    "velocity": 0.5748031496062992,
                    "duration": 0.64285725000002
                },
                {
                    "name": "A4",
                    "midi": 69,
                    "time": 389.5714934999963,
                    "velocity": 0.6771653543307087,
                    "duration": 0.64285725000002
                },
                {
                    "name": "A4",
                    "midi": 69,
                    "time": 390.2143507499963,
                    "velocity": 0.29133858267716534,
                    "duration": 0.21428574999998773
                },
                {
                    "name": "F#4",
                    "midi": 66,
                    "time": 390.4286364999963,
                    "velocity": 0.29133858267716534,
                    "duration": 0.21428574999998773
                },
                {
                    "name": "D5",
                    "midi": 74,
                    "time": 390.4286364999963,
                    "velocity": 0.29133858267716534,
                    "duration": 0.21428574999998773
                },
                {
                    "name": "A4",
                    "midi": 69,
                    "time": 390.6429222499963,
                    "velocity": 0.29133858267716534,
                    "duration": 0.21428574999998773
                },
                {
                    "name": "E5",
                    "midi": 76,
                    "time": 390.6429222499963,
                    "velocity": 0.29133858267716534,
                    "duration": 0.21428574999998773
                },
                {
                    "name": "D5",
                    "midi": 74,
                    "time": 390.85720799999626,
                    "velocity": 0.2677165354330709,
                    "duration": 0.1928571749999719
                },
                {
                    "name": "F#5",
                    "midi": 78,
                    "time": 390.85720799999626,
                    "velocity": 0.31496062992125984,
                    "duration": 0.1928571749999719
                },
                {
                    "name": "D5",
                    "midi": 74,
                    "time": 391.28577949999624,
                    "velocity": 0.28346456692913385,
                    "duration": 0.6250001041666451
                },
                {
                    "name": "F#5",
                    "midi": 78,
                    "time": 391.28577949999624,
                    "velocity": 0.33858267716535434,
                    "duration": 0.6250001041666451
                },
                {
                    "name": "A4",
                    "midi": 69,
                    "time": 391.9286367499962,
                    "velocity": 0.2755905511811024,
                    "duration": 0.21071432083334685
                },
                {
                    "name": "E5",
                    "midi": 76,
                    "time": 391.9286367499962,
                    "velocity": 0.3228346456692913,
                    "duration": 0.21071432083334685
                },
                {
                    "name": "D5",
                    "midi": 74,
                    "time": 392.1429224999962,
                    "velocity": 0.28346456692913385,
                    "duration": 0.21071432083334685
                },
                {
                    "name": "F#5",
                    "midi": 78,
                    "time": 392.1429224999962,
                    "velocity": 0.33858267716535434,
                    "duration": 0.21071432083334685
                },
                {
                    "name": "E5",
                    "midi": 76,
                    "time": 392.3572082499962,
                    "velocity": 0.2677165354330709,
                    "duration": 0.21071432083334685
                },
                {
                    "name": "A5",
                    "midi": 81,
                    "time": 392.3572082499962,
                    "velocity": 0.3228346456692913,
                    "duration": 0.21071432083334685
                },
                {
                    "name": "D5",
                    "midi": 74,
                    "time": 392.57149399999616,
                    "velocity": 0.28346456692913385,
                    "duration": 0.21071432083334685
                },
                {
                    "name": "F#5",
                    "midi": 78,
                    "time": 392.57149399999616,
                    "velocity": 0.33858267716535434,
                    "duration": 0.21071432083334685
                },
                {
                    "name": "A4",
                    "midi": 69,
                    "time": 392.78577974999615,
                    "velocity": 0.2992125984251969,
                    "duration": 0.21071432083334685
                },
                {
                    "name": "E5",
                    "midi": 76,
                    "time": 392.78577974999615,
                    "velocity": 0.2992125984251969,
                    "duration": 0.21071432083334685
                },
                {
                    "name": "D5",
                    "midi": 74,
                    "time": 393.00006549999614,
                    "velocity": 0.2755905511811024,
                    "duration": 0.21071432083334685
                },
                {
                    "name": "F#5",
                    "midi": 78,
                    "time": 393.00006549999614,
                    "velocity": 0.3228346456692913,
                    "duration": 0.21071432083334685
                },
                {
                    "name": "E5",
                    "midi": 76,
                    "time": 393.2143512499961,
                    "velocity": 0.2992125984251969,
                    "duration": 0.21428574999998773
                },
                {
                    "name": "A5",
                    "midi": 81,
                    "time": 393.2143512499961,
                    "velocity": 0.2992125984251969,
                    "duration": 0.21428574999998773
                },
                {
                    "name": "D5",
                    "midi": 74,
                    "time": 393.4286369999961,
                    "velocity": 0.2677165354330709,
                    "duration": 0.1928571749999719
                },
                {
                    "name": "F#5",
                    "midi": 78,
                    "time": 393.4286369999961,
                    "velocity": 0.31496062992125984,
                    "duration": 0.1928571749999719
                },
                {
                    "name": "D5",
                    "midi": 74,
                    "time": 393.8572084999961,
                    "velocity": 0.28346456692913385,
                    "duration": 0.6250001041666451
                },
                {
                    "name": "F#5",
                    "midi": 78,
                    "time": 393.8572084999961,
                    "velocity": 0.33858267716535434,
                    "duration": 0.6250001041666451
                },
                {
                    "name": "A4",
                    "midi": 69,
                    "time": 394.50006574999605,
                    "velocity": 0.2755905511811024,
                    "duration": 0.21071432083334685
                },
                {
                    "name": "E5",
                    "midi": 76,
                    "time": 394.50006574999605,
                    "velocity": 0.3228346456692913,
                    "duration": 0.21071432083334685
                },
                {
                    "name": "D5",
                    "midi": 74,
                    "time": 394.71435149999604,
                    "velocity": 0.29133858267716534,
                    "duration": 0.21071432083334685
                },
                {
                    "name": "F#5",
                    "midi": 78,
                    "time": 394.71435149999604,
                    "velocity": 0.3464566929133858,
                    "duration": 0.21071432083334685
                },
                {
                    "name": "E5",
                    "midi": 76,
                    "time": 394.92863724999603,
                    "velocity": 0.2755905511811024,
                    "duration": 0.21071432083334685
                },
                {
                    "name": "A5",
                    "midi": 81,
                    "time": 394.92863724999603,
                    "velocity": 0.33858267716535434,
                    "duration": 0.21071432083334685
                },
                {
                    "name": "D5",
                    "midi": 74,
                    "time": 395.142922999996,
                    "velocity": 0.2992125984251969,
                    "duration": 0.21071432083334685
                },
                {
                    "name": "F#5",
                    "midi": 78,
                    "time": 395.142922999996,
                    "velocity": 0.36220472440944884,
                    "duration": 0.21071432083334685
                },
                {
                    "name": "A4",
                    "midi": 69,
                    "time": 395.357208749996,
                    "velocity": 0.3228346456692913,
                    "duration": 0.21071432083334685
                },
                {
                    "name": "E5",
                    "midi": 76,
                    "time": 395.357208749996,
                    "velocity": 0.3228346456692913,
                    "duration": 0.21071432083334685
                },
                {
                    "name": "D5",
                    "midi": 74,
                    "time": 395.571494499996,
                    "velocity": 0.2992125984251969,
                    "duration": 0.21071432083334685
                },
                {
                    "name": "F#5",
                    "midi": 78,
                    "time": 395.571494499996,
                    "velocity": 0.3543307086614173,
                    "duration": 0.21071432083334685
                },
                {
                    "name": "E5",
                    "midi": 76,
                    "time": 395.785780249996,
                    "velocity": 0.33070866141732286,
                    "duration": 0.21428574999998773
                },
                {
                    "name": "A5",
                    "midi": 81,
                    "time": 395.785780249996,
                    "velocity": 0.33070866141732286,
                    "duration": 0.21428574999998773
                },
                {
                    "name": "G5",
                    "midi": 79,
                    "time": 396.00006599999597,
                    "velocity": 0.30708661417322836,
                    "duration": 0.1928571749999719
                },
                {
                    "name": "B5",
                    "midi": 83,
                    "time": 396.00006599999597,
                    "velocity": 0.36220472440944884,
                    "duration": 0.1928571749999719
                },
                {
                    "name": "B5",
                    "midi": 83,
                    "time": 396.42863749999594,
                    "velocity": 0.3858267716535433,
                    "duration": 0.6250001041666451
                },
                {
                    "name": "G5",
                    "midi": 79,
                    "time": 396.42863749999594,
                    "velocity": 0.3228346456692913,
                    "duration": 0.6250001041666451
                },
                {
                    "name": "D5",
                    "midi": 74,
                    "time": 397.0714947499959,
                    "velocity": 0.31496062992125984,
                    "duration": 0.2089286062500264
                },
                {
                    "name": "A5",
                    "midi": 81,
                    "time": 397.0714947499959,
                    "velocity": 0.3700787401574803,
                    "duration": 0.21071432083334685
                },
                {
                    "name": "G5",
                    "midi": 79,
                    "time": 397.2857804999959,
                    "velocity": 0.3228346456692913,
                    "duration": 0.2089286062500264
                },
                {
                    "name": "B5",
                    "midi": 83,
                    "time": 397.2857804999959,
                    "velocity": 0.3858267716535433,
                    "duration": 0.21071432083334685
                },
                {
                    "name": "D5",
                    "midi": 74,
                    "time": 397.5000662499959,
                    "velocity": 0.30708661417322836,
                    "duration": 0.2089286062500264
                },
                {
                    "name": "A5",
                    "midi": 81,
                    "time": 397.5000662499959,
                    "velocity": 0.3700787401574803,
                    "duration": 0.21071432083334685
                },
                {
                    "name": "B4",
                    "midi": 71,
                    "time": 397.71435199999587,
                    "velocity": 0.3228346456692913,
                    "duration": 0.21071432083334685
                },
                {
                    "name": "G5",
                    "midi": 79,
                    "time": 397.71435199999587,
                    "velocity": 0.3858267716535433,
                    "duration": 0.2089286062500264
                },
                {
                    "name": "A4",
                    "midi": 69,
                    "time": 397.92863774999586,
                    "velocity": 0.33858267716535434,
                    "duration": 0.21071432083334685
                },
                {
                    "name": "D5",
                    "midi": 74,
                    "time": 397.92863774999586,
                    "velocity": 0.33858267716535434,
                    "duration": 0.2089286062500264
                },
                {
                    "name": "B4",
                    "midi": 71,
                    "time": 398.14292349999585,
                    "velocity": 0.31496062992125984,
                    "duration": 0.21071432083334685
                },
                {
                    "name": "G5",
                    "midi": 79,
                    "time": 398.14292349999585,
                    "velocity": 0.3700787401574803,
                    "duration": 0.2089286062500264
                },
                {
                    "name": "D5",
                    "midi": 74,
                    "time": 398.35720924999583,
                    "velocity": 0.33858267716535434,
                    "duration": 0.21428574999998773
                },
                {
                    "name": "C6",
                    "midi": 84,
                    "time": 398.35720924999583,
                    "velocity": 0.33858267716535434,
                    "duration": 0.21428574999998773
                },
                {
                    "name": "G5",
                    "midi": 79,
                    "time": 398.5714949999958,
                    "velocity": 0.30708661417322836,
                    "duration": 0.1928571749999719
                },
                {
                    "name": "B5",
                    "midi": 83,
                    "time": 398.5714949999958,
                    "velocity": 0.36220472440944884,
                    "duration": 0.1928571749999719
                },
                {
                    "name": "B5",
                    "midi": 83,
                    "time": 399.0000664999958,
                    "velocity": 0.3858267716535433,
                    "duration": 0.6250001041666451
                },
                {
                    "name": "G5",
                    "midi": 79,
                    "time": 399.0000664999958,
                    "velocity": 0.3228346456692913,
                    "duration": 0.6250001041666451
                },
                {
                    "name": "G5",
                    "midi": 79,
                    "time": 399.64292374999576,
                    "velocity": 0.3543307086614173,
                    "duration": 0.2089286062500264
                },
                {
                    "name": "B5",
                    "midi": 83,
                    "time": 399.64292374999576,
                    "velocity": 0.41732283464566927,
                    "duration": 0.21071432083334685
                },
                {
                    "name": "B5",
                    "midi": 83,
                    "time": 399.85720949999575,
                    "velocity": 0.3858267716535433,
                    "duration": 0.2089286062500264
                },
                {
                    "name": "D6",
                    "midi": 86,
                    "time": 399.85720949999575,
                    "velocity": 0.4566929133858268,
                    "duration": 0.2089286062500264
                },
                {
                    "name": "A5",
                    "midi": 81,
                    "time": 400.0714952499958,
                    "velocity": 0.3543307086614173,
                    "duration": 0.2089286062500264
                },
                {
                    "name": "C#6",
                    "midi": 85,
                    "time": 400.0714952499958,
                    "velocity": 0.4251968503937008,
                    "duration": 0.21071432083334685
                },
                {
                    "name": "G5",
                    "midi": 79,
                    "time": 400.2857809999958,
                    "velocity": 0.3937007874015748,
                    "duration": 0.2089286062500264
                },
                {
                    "name": "B5",
                    "midi": 83,
                    "time": 400.2857809999958,
                    "velocity": 0.4645669291338583,
                    "duration": 0.2089286062500264
                },
                {
                    "name": "E5",
                    "midi": 76,
                    "time": 400.5000667499958,
                    "velocity": 0.33858267716535434,
                    "duration": 0.21071432083334685
                },
                {
                    "name": "G5",
                    "midi": 79,
                    "time": 400.5000667499958,
                    "velocity": 0.4015748031496063,
                    "duration": 0.2089286062500264
                },
                {
                    "name": "G5",
                    "midi": 79,
                    "time": 400.7143524999958,
                    "velocity": 0.3700787401574803,
                    "duration": 0.2089286062500264
                },
                {
                    "name": "B5",
                    "midi": 83,
                    "time": 400.7143524999958,
                    "velocity": 0.4409448818897638,
                    "duration": 0.2089286062500264
                },
                {
                    "name": "E5",
                    "midi": 76,
                    "time": 400.92863824999586,
                    "velocity": 0.33858267716535434,
                    "duration": 0.21428574999998773
                },
                {
                    "name": "G5",
                    "midi": 79,
                    "time": 400.92863824999586,
                    "velocity": 0.4015748031496063,
                    "duration": 0.21428574999998773
                },
                {
                    "name": "C#5",
                    "midi": 73,
                    "time": 401.14292399999584,
                    "velocity": 0.30708661417322836,
                    "duration": 0.1928571749999719
                },
                {
                    "name": "E5",
                    "midi": 76,
                    "time": 401.14292399999584,
                    "velocity": 0.36220472440944884,
                    "duration": 0.1928571749999719
                },
                {
                    "name": "E5",
                    "midi": 76,
                    "time": 401.5714954999958,
                    "velocity": 0.3858267716535433,
                    "duration": 0.6250001041666451
                },
                {
                    "name": "C#5",
                    "midi": 73,
                    "time": 401.5714954999958,
                    "velocity": 0.3228346456692913,
                    "duration": 0.6250001041666451
                },
                {
                    "name": "C#5",
                    "midi": 73,
                    "time": 402.2143527499958,
                    "velocity": 0.3543307086614173,
                    "duration": 0.2089286062500264
                },
                {
                    "name": "E5",
                    "midi": 76,
                    "time": 402.2143527499958,
                    "velocity": 0.41732283464566927,
                    "duration": 0.21071432083334685
                },
                {
                    "name": "E5",
                    "midi": 76,
                    "time": 402.42863849999577,
                    "velocity": 0.3858267716535433,
                    "duration": 0.2089286062500264
                },
                {
                    "name": "G5",
                    "midi": 79,
                    "time": 402.42863849999577,
                    "velocity": 0.4566929133858268,
                    "duration": 0.2089286062500264
                },
                {
                    "name": "D5",
                    "midi": 74,
                    "time": 402.6429242499958,
                    "velocity": 0.3543307086614173,
                    "duration": 0.2089286062500264
                },
                {
                    "name": "F#5",
                    "midi": 78,
                    "time": 402.6429242499958,
                    "velocity": 0.4251968503937008,
                    "duration": 0.21071432083334685
                },
                {
                    "name": "C#5",
                    "midi": 73,
                    "time": 402.8572099999958,
                    "velocity": 0.3937007874015748,
                    "duration": 0.2089286062500264
                },
                {
                    "name": "E5",
                    "midi": 76,
                    "time": 402.8572099999958,
                    "velocity": 0.4645669291338583,
                    "duration": 0.2089286062500264
                },
                {
                    "name": "D5",
                    "midi": 74,
                    "time": 403.07149574999585,
                    "velocity": 0.33858267716535434,
                    "duration": 0.2089286062500264
                },
                {
                    "name": "F#5",
                    "midi": 78,
                    "time": 403.07149574999585,
                    "velocity": 0.4015748031496063,
                    "duration": 0.2089286062500264
                },
                {
                    "name": "C#5",
                    "midi": 73,
                    "time": 403.2857814999959,
                    "velocity": 0.3700787401574803,
                    "duration": 0.2089286062500264
                },
                {
                    "name": "E5",
                    "midi": 76,
                    "time": 403.2857814999959,
                    "velocity": 0.4409448818897638,
                    "duration": 0.2089286062500264
                },
                {
                    "name": "B4",
                    "midi": 71,
                    "time": 403.50006724999594,
                    "velocity": 0.33858267716535434,
                    "duration": 0.21428574999998773
                },
                {
                    "name": "C#5",
                    "midi": 73,
                    "time": 403.50006724999594,
                    "velocity": 0.4015748031496063,
                    "duration": 0.21428574999998773
                },
                {
                    "name": "A#4",
                    "midi": 70,
                    "time": 403.7143529999959,
                    "velocity": 0.30708661417322836,
                    "duration": 0.1928571749999719
                },
                {
                    "name": "F#5",
                    "midi": 78,
                    "time": 403.7143529999959,
                    "velocity": 0.36220472440944884,
                    "duration": 0.1928571749999719
                },
                {
                    "name": "F#5",
                    "midi": 78,
                    "time": 404.1429244999959,
                    "velocity": 0.3858267716535433,
                    "duration": 0.6250001041666451
                },
                {
                    "name": "A#4",
                    "midi": 70,
                    "time": 404.1429244999959,
                    "velocity": 0.3228346456692913,
                    "duration": 0.6250001041666451
                },
                {
                    "name": "C#5",
                    "midi": 73,
                    "time": 404.78578174999586,
                    "velocity": 0.3543307086614173,
                    "duration": 0.2089286062500264
                },
                {
                    "name": "E5",
                    "midi": 76,
                    "time": 404.78578174999586,
                    "velocity": 0.41732283464566927,
                    "duration": 0.21071432083334685
                },
                {
                    "name": "E5",
                    "midi": 76,
                    "time": 405.00006749999585,
                    "velocity": 0.3858267716535433,
                    "duration": 0.2089286062500264
                },
                {
                    "name": "G5",
                    "midi": 79,
                    "time": 405.00006749999585,
                    "velocity": 0.4566929133858268,
                    "duration": 0.2089286062500264
                },
                {
                    "name": "D5",
                    "midi": 74,
                    "time": 405.2143532499959,
                    "velocity": 0.3543307086614173,
                    "duration": 0.2089286062500264
                },
                {
                    "name": "F#5",
                    "midi": 78,
                    "time": 405.2143532499959,
                    "velocity": 0.4251968503937008,
                    "duration": 0.21071432083334685
                },
                {
                    "name": "C#5",
                    "midi": 73,
                    "time": 405.4286389999959,
                    "velocity": 0.3937007874015748,
                    "duration": 0.2089286062500264
                },
                {
                    "name": "E5",
                    "midi": 76,
                    "time": 405.4286389999959,
                    "velocity": 0.4645669291338583,
                    "duration": 0.2089286062500264
                },
                {
                    "name": "D5",
                    "midi": 74,
                    "time": 405.6429247499959,
                    "velocity": 0.33858267716535434,
                    "duration": 0.2089286062500264
                },
                {
                    "name": "F#5",
                    "midi": 78,
                    "time": 405.6429247499959,
                    "velocity": 0.4015748031496063,
                    "duration": 0.2089286062500264
                },
                {
                    "name": "C#5",
                    "midi": 73,
                    "time": 405.857210499996,
                    "velocity": 0.3700787401574803,
                    "duration": 0.2089286062500264
                },
                {
                    "name": "E5",
                    "midi": 76,
                    "time": 405.857210499996,
                    "velocity": 0.4409448818897638,
                    "duration": 0.2089286062500264
                },
                {
                    "name": "B4",
                    "midi": 71,
                    "time": 406.071496249996,
                    "velocity": 0.33858267716535434,
                    "duration": 0.21428574999998773
                },
                {
                    "name": "C#5",
                    "midi": 73,
                    "time": 406.071496249996,
                    "velocity": 0.4015748031496063,
                    "duration": 0.21428574999998773
                },
                {
                    "name": "A#4",
                    "midi": 70,
                    "time": 406.285781999996,
                    "velocity": 0.30708661417322836,
                    "duration": 0.1928571749999719
                },
                {
                    "name": "F#5",
                    "midi": 78,
                    "time": 406.285781999996,
                    "velocity": 0.36220472440944884,
                    "duration": 0.1928571749999719
                },
                {
                    "name": "F#5",
                    "midi": 78,
                    "time": 406.714353499996,
                    "velocity": 0.3858267716535433,
                    "duration": 0.8392858541666897
                },
                {
                    "name": "A#4",
                    "midi": 70,
                    "time": 406.714353499996,
                    "velocity": 0.3228346456692913,
                    "duration": 0.8392858541666897
                },
                {
                    "name": "A#4",
                    "midi": 70,
                    "time": 407.571496499996,
                    "velocity": 0.36220472440944884,
                    "duration": 0.8392858541666897
                },
                {
                    "name": "F#5",
                    "midi": 78,
                    "time": 407.571496499996,
                    "velocity": 0.36220472440944884,
                    "duration": 0.8392858541666897
                },
                {
                    "name": "A#4",
                    "midi": 70,
                    "time": 408.428639499996,
                    "velocity": 0.3543307086614173,
                    "duration": 0.38571435000000065
                },
                {
                    "name": "F#5",
                    "midi": 78,
                    "time": 408.428639499996,
                    "velocity": 0.3543307086614173,
                    "duration": 0.38571435000000065
                },
                {
                    "name": "A4",
                    "midi": 69,
                    "time": 408.85721099999597,
                    "velocity": 0.30708661417322836,
                    "duration": 0.1928571749999719
                },
                {
                    "name": "F#5",
                    "midi": 78,
                    "time": 408.85721099999597,
                    "velocity": 0.36220472440944884,
                    "duration": 0.1928571749999719
                },
                {
                    "name": "F#5",
                    "midi": 78,
                    "time": 409.28578249999595,
                    "velocity": 0.3779527559055118,
                    "duration": 0.8392858541666897
                },
                {
                    "name": "A4",
                    "midi": 69,
                    "time": 409.28578249999595,
                    "velocity": 0.31496062992125984,
                    "duration": 0.8392858541666897
                },
                {
                    "name": "A4",
                    "midi": 69,
                    "time": 410.14292549999595,
                    "velocity": 0.36220472440944884,
                    "duration": 0.8392858541666897
                },
                {
                    "name": "F#5",
                    "midi": 78,
                    "time": 410.14292549999595,
                    "velocity": 0.36220472440944884,
                    "duration": 0.8392858541666897
                },
                {
                    "name": "A4",
                    "midi": 69,
                    "time": 411.00006849999596,
                    "velocity": 0.3543307086614173,
                    "duration": 0.38571435000000065
                },
                {
                    "name": "F#5",
                    "midi": 78,
                    "time": 411.00006849999596,
                    "velocity": 0.3543307086614173,
                    "duration": 0.38571435000000065
                },
                {
                    "name": "G#4",
                    "midi": 68,
                    "time": 411.42863999999594,
                    "velocity": 0.2755905511811024,
                    "duration": 0.1928571749999719
                },
                {
                    "name": "E5",
                    "midi": 76,
                    "time": 411.42863999999594,
                    "velocity": 0.3228346456692913,
                    "duration": 0.1928571749999719
                },
                {
                    "name": "E5",
                    "midi": 76,
                    "time": 411.8572114999959,
                    "velocity": 0.33858267716535434,
                    "duration": 0.8392858541666897
                },
                {
                    "name": "G#4",
                    "midi": 68,
                    "time": 411.8572114999959,
                    "velocity": 0.28346456692913385,
                    "duration": 0.8392858541666897
                },
                {
                    "name": "B4",
                    "midi": 71,
                    "time": 412.50006874999593,
                    "velocity": 0.30708661417322836,
                    "duration": 0.2089286062500264
                },
                {
                    "name": "D5",
                    "midi": 74,
                    "time": 412.50006874999593,
                    "velocity": 0.36220472440944884,
                    "duration": 0.2089286062500264
                },
                {
                    "name": "D5",
                    "midi": 74,
                    "time": 412.714354499996,
                    "velocity": 0.33070866141732286,
                    "duration": 0.2089286062500264
                },
                {
                    "name": "F5",
                    "midi": 77,
                    "time": 412.714354499996,
                    "velocity": 0.3937007874015748,
                    "duration": 0.2089286062500264
                },
                {
                    "name": "C5",
                    "midi": 72,
                    "time": 412.928640249996,
                    "velocity": 0.2992125984251969,
                    "duration": 0.2089286062500264
                },
                {
                    "name": "E5",
                    "midi": 76,
                    "time": 412.928640249996,
                    "velocity": 0.36220472440944884,
                    "duration": 0.21071432083334685
                },
                {
                    "name": "B4",
                    "midi": 71,
                    "time": 413.142925999996,
                    "velocity": 0.33070866141732286,
                    "duration": 0.2089286062500264
                },
                {
                    "name": "D5",
                    "midi": 74,
                    "time": 413.142925999996,
                    "velocity": 0.3858267716535433,
                    "duration": 0.2089286062500264
                },
                {
                    "name": "C5",
                    "midi": 72,
                    "time": 413.35721174999605,
                    "velocity": 0.28346456692913385,
                    "duration": 0.2089286062500264
                },
                {
                    "name": "E5",
                    "midi": 76,
                    "time": 413.35721174999605,
                    "velocity": 0.33070866141732286,
                    "duration": 0.2089286062500264
                },
                {
                    "name": "B4",
                    "midi": 71,
                    "time": 413.5714974999961,
                    "velocity": 0.2992125984251969,
                    "duration": 0.2089286062500264
                },
                {
                    "name": "D5",
                    "midi": 74,
                    "time": 413.5714974999961,
                    "velocity": 0.3543307086614173,
                    "duration": 0.2089286062500264
                },
                {
                    "name": "A4",
                    "midi": 69,
                    "time": 413.78578324999614,
                    "velocity": 0.2677165354330709,
                    "duration": 0.21428574999998773
                },
                {
                    "name": "B4",
                    "midi": 71,
                    "time": 413.78578324999614,
                    "velocity": 0.3228346456692913,
                    "duration": 0.21428574999998773
                },
                {
                    "name": "G#4",
                    "midi": 68,
                    "time": 414.00006899999613,
                    "velocity": 0.2440944881889764,
                    "duration": 0.1928571749999719
                },
                {
                    "name": "E5",
                    "midi": 76,
                    "time": 414.00006899999613,
                    "velocity": 0.28346456692913385,
                    "duration": 0.1928571749999719
                },
                {
                    "name": "E5",
                    "midi": 76,
                    "time": 414.4286404999961,
                    "velocity": 0.30708661417322836,
                    "duration": 0.6250001041666451
                },
                {
                    "name": "G#4",
                    "midi": 68,
                    "time": 414.4286404999961,
                    "velocity": 0.25196850393700787,
                    "duration": 0.6250001041666451
                },
                {
                    "name": "B4",
                    "midi": 71,
                    "time": 415.07149774999607,
                    "velocity": 0.28346456692913385,
                    "duration": 0.2089286062500264
                },
                {
                    "name": "D5",
                    "midi": 74,
                    "time": 415.07149774999607,
                    "velocity": 0.33070866141732286,
                    "duration": 0.2089286062500264
                },
                {
                    "name": "D5",
                    "midi": 74,
                    "time": 415.2857834999961,
                    "velocity": 0.30708661417322836,
                    "duration": 0.2089286062500264
                },
                {
                    "name": "F5",
                    "midi": 77,
                    "time": 415.2857834999961,
                    "velocity": 0.36220472440944884,
                    "duration": 0.2089286062500264
                },
                {
                    "name": "C5",
                    "midi": 72,
                    "time": 415.50006924999616,
                    "velocity": 0.28346456692913385,
                    "duration": 0.2089286062500264
                },
                {
                    "name": "E5",
                    "midi": 76,
                    "time": 415.50006924999616,
                    "velocity": 0.33858267716535434,
                    "duration": 0.21071432083334685
                },
                {
                    "name": "B4",
                    "midi": 71,
                    "time": 415.71435499999615,
                    "velocity": 0.31496062992125984,
                    "duration": 0.2089286062500264
                },
                {
                    "name": "D5",
                    "midi": 74,
                    "time": 415.71435499999615,
                    "velocity": 0.3700787401574803,
                    "duration": 0.2089286062500264
                },
                {
                    "name": "C5",
                    "midi": 72,
                    "time": 415.9286407499962,
                    "velocity": 0.2677165354330709,
                    "duration": 0.2089286062500264
                },
                {
                    "name": "E5",
                    "midi": 76,
                    "time": 415.9286407499962,
                    "velocity": 0.31496062992125984,
                    "duration": 0.2089286062500264
                },
                {
                    "name": "B4",
                    "midi": 71,
                    "time": 416.14292649999624,
                    "velocity": 0.29133858267716534,
                    "duration": 0.2089286062500264
                },
                {
                    "name": "D5",
                    "midi": 74,
                    "time": 416.14292649999624,
                    "velocity": 0.3464566929133858,
                    "duration": 0.2089286062500264
                },
                {
                    "name": "A4",
                    "midi": 69,
                    "time": 416.3572122499963,
                    "velocity": 0.2677165354330709,
                    "duration": 0.21428574999998773
                },
                {
                    "name": "B4",
                    "midi": 71,
                    "time": 416.3572122499963,
                    "velocity": 0.31496062992125984,
                    "duration": 0.21428574999998773
                },
                {
                    "name": "G#4",
                    "midi": 68,
                    "time": 416.57149799999627,
                    "velocity": 0.2440944881889764,
                    "duration": 0.1928571749999719
                },
                {
                    "name": "E5",
                    "midi": 76,
                    "time": 416.57149799999627,
                    "velocity": 0.28346456692913385,
                    "duration": 0.1928571749999719
                },
                {
                    "name": "E5",
                    "midi": 76,
                    "time": 417.00006949999624,
                    "velocity": 0.2992125984251969,
                    "duration": 0.8392858541666897
                },
                {
                    "name": "G#4",
                    "midi": 68,
                    "time": 417.00006949999624,
                    "velocity": 0.25196850393700787,
                    "duration": 0.8392858541666897
                },
                {
                    "name": "E4",
                    "midi": 64,
                    "time": 418.07149824999624,
                    "velocity": 0.5984251968503937,
                    "duration": 0.21428574999998773
                },
                {
                    "name": "C#4",
                    "midi": 61,
                    "time": 418.2857839999962,
                    "velocity": 0.5354330708661418,
                    "duration": 0.1928571749999719
                },
                {
                    "name": "A4",
                    "midi": 69,
                    "time": 418.2857839999962,
                    "velocity": 0.6377952755905512,
                    "duration": 0.1928571749999719
                },
                {
                    "name": "A4",
                    "midi": 69,
                    "time": 418.5000697499962,
                    "velocity": 0.5905511811023622,
                    "duration": 0.42857149999997546
                },
                {
                    "name": "C#4",
                    "midi": 61,
                    "time": 418.5000697499962,
                    "velocity": 0.49606299212598426,
                    "duration": 0.42857149999997546
                },
                {
                    "name": "E4",
                    "midi": 64,
                    "time": 418.9286412499962,
                    "velocity": 0.5039370078740157,
                    "duration": 0.21428574999998773
                },
                {
                    "name": "B4",
                    "midi": 71,
                    "time": 418.9286412499962,
                    "velocity": 0.5984251968503937,
                    "duration": 0.21428574999998773
                },
                {
                    "name": "A4",
                    "midi": 69,
                    "time": 419.1429269999962,
                    "velocity": 0.5748031496062992,
                    "duration": 0.38571435000000065
                },
                {
                    "name": "C#5",
                    "midi": 73,
                    "time": 419.1429269999962,
                    "velocity": 0.6771653543307087,
                    "duration": 0.38571435000000065
                },
                {
                    "name": "A4",
                    "midi": 69,
                    "time": 419.57149849999615,
                    "velocity": 0.5669291338582677,
                    "duration": 0.6375001062500019
                },
                {
                    "name": "C#5",
                    "midi": 73,
                    "time": 419.57149849999615,
                    "velocity": 0.6692913385826772,
                    "duration": 0.6375001062500019
                },
                {
                    "name": "A4",
                    "midi": 69,
                    "time": 420.2143557499962,
                    "velocity": 0.5748031496062992,
                    "duration": 0.42857149999997546
                },
                {
                    "name": "C#5",
                    "midi": 73,
                    "time": 420.2143557499962,
                    "velocity": 0.6771653543307087,
                    "duration": 0.42857149999997546
                },
                {
                    "name": "E4",
                    "midi": 64,
                    "time": 420.64292724999615,
                    "velocity": 0.49606299212598426,
                    "duration": 0.21428574999998773
                },
                {
                    "name": "B4",
                    "midi": 71,
                    "time": 420.64292724999615,
                    "velocity": 0.5826771653543307,
                    "duration": 0.21428574999998773
                },
                {
                    "name": "C#4",
                    "midi": 61,
                    "time": 420.85721299999614,
                    "velocity": 0.5118110236220472,
                    "duration": 0.1928571749999719
                },
                {
                    "name": "A4",
                    "midi": 69,
                    "time": 420.85721299999614,
                    "velocity": 0.6062992125984252,
                    "duration": 0.1928571749999719
                },
                {
                    "name": "F#4",
                    "midi": 66,
                    "time": 421.0714987499961,
                    "velocity": 0.5748031496062992,
                    "duration": 0.42857149999997546
                },
                {
                    "name": "A4",
                    "midi": 69,
                    "time": 421.0714987499961,
                    "velocity": 0.6771653543307087,
                    "duration": 0.42857149999997546
                },
                {
                    "name": "C#4",
                    "midi": 61,
                    "time": 421.5000702499961,
                    "velocity": 0.5039370078740157,
                    "duration": 0.21428574999998773
                },
                {
                    "name": "G#4",
                    "midi": 68,
                    "time": 421.5000702499961,
                    "velocity": 0.5984251968503937,
                    "duration": 0.21428574999998773
                },
                {
                    "name": "A3",
                    "midi": 57,
                    "time": 421.7143559999961,
                    "velocity": 0.5354330708661418,
                    "duration": 0.38571435000000065
                },
                {
                    "name": "F#4",
                    "midi": 66,
                    "time": 421.7143559999961,
                    "velocity": 0.6299212598425197,
                    "duration": 0.38571435000000065
                },
                {
                    "name": "A3",
                    "midi": 57,
                    "time": 422.14292749999606,
                    "velocity": 0.5748031496062992,
                    "duration": 0.8571430000000078
                },
                {
                    "name": "F#4",
                    "midi": 66,
                    "time": 422.14292749999606,
                    "velocity": 0.6771653543307087,
                    "duration": 0.8571430000000078
                },
                {
                    "name": "F#4",
                    "midi": 66,
                    "time": 423.00007049999607,
                    "velocity": 0.5984251968503937,
                    "duration": 0.42857149999997546
                },
                {
                    "name": "D4",
                    "midi": 62,
                    "time": 423.42864199999605,
                    "velocity": 0.5354330708661418,
                    "duration": 0.1928571749999719
                },
                {
                    "name": "B4",
                    "midi": 71,
                    "time": 423.42864199999605,
                    "velocity": 0.6377952755905512,
                    "duration": 0.1928571749999719
                },
                {
                    "name": "B4",
                    "midi": 71,
                    "time": 423.64292774999603,
                    "velocity": 0.5905511811023622,
                    "duration": 0.42857149999997546
                },
                {
                    "name": "D4",
                    "midi": 62,
                    "time": 423.64292774999603,
                    "velocity": 0.49606299212598426,
                    "duration": 0.42857149999997546
                },
                {
                    "name": "F#4",
                    "midi": 66,
                    "time": 424.071499249996,
                    "velocity": 0.5039370078740157,
                    "duration": 0.21428574999998773
                },
                {
                    "name": "C#5",
                    "midi": 73,
                    "time": 424.071499249996,
                    "velocity": 0.5984251968503937,
                    "duration": 0.21428574999998773
                },
                {
                    "name": "B4",
                    "midi": 71,
                    "time": 424.285784999996,
                    "velocity": 0.5748031496062992,
                    "duration": 0.38571435000000065
                },
                {
                    "name": "D5",
                    "midi": 74,
                    "time": 424.285784999996,
                    "velocity": 0.6771653543307087,
                    "duration": 0.38571435000000065
                },
                {
                    "name": "B4",
                    "midi": 71,
                    "time": 424.714356499996,
                    "velocity": 0.5669291338582677,
                    "duration": 0.6375001062500019
                },
                {
                    "name": "D5",
                    "midi": 74,
                    "time": 424.714356499996,
                    "velocity": 0.6692913385826772,
                    "duration": 0.6375001062500019
                },
                {
                    "name": "B4",
                    "midi": 71,
                    "time": 425.357213749996,
                    "velocity": 0.5748031496062992,
                    "duration": 0.42857149999997546
                },
                {
                    "name": "D5",
                    "midi": 74,
                    "time": 425.357213749996,
                    "velocity": 0.6771653543307087,
                    "duration": 0.42857149999997546
                },
                {
                    "name": "F#4",
                    "midi": 66,
                    "time": 425.78578524999597,
                    "velocity": 0.49606299212598426,
                    "duration": 0.21428574999998773
                },
                {
                    "name": "C5",
                    "midi": 72,
                    "time": 425.78578524999597,
                    "velocity": 0.5826771653543307,
                    "duration": 0.21428574999998773
                },
                {
                    "name": "D4",
                    "midi": 62,
                    "time": 426.00007099999596,
                    "velocity": 0.5118110236220472,
                    "duration": 0.1928571749999719
                },
                {
                    "name": "B4",
                    "midi": 71,
                    "time": 426.00007099999596,
                    "velocity": 0.6062992125984252,
                    "duration": 0.1928571749999719
                },
                {
                    "name": "G4",
                    "midi": 67,
                    "time": 426.21435674999594,
                    "velocity": 0.5748031496062992,
                    "duration": 0.42857149999997546
                },
                {
                    "name": "B4",
                    "midi": 71,
                    "time": 426.21435674999594,
                    "velocity": 0.6771653543307087,
                    "duration": 0.42857149999997546
                },
                {
                    "name": "D#4",
                    "midi": 63,
                    "time": 426.6429282499959,
                    "velocity": 0.5039370078740157,
                    "duration": 0.21428574999998773
                },
                {
                    "name": "A4",
                    "midi": 69,
                    "time": 426.6429282499959,
                    "velocity": 0.5984251968503937,
                    "duration": 0.21428574999998773
                },
                {
                    "name": "B3",
                    "midi": 59,
                    "time": 426.8572139999959,
                    "velocity": 0.5354330708661418,
                    "duration": 0.1928571749999719
                },
                {
                    "name": "G4",
                    "midi": 67,
                    "time": 426.8572139999959,
                    "velocity": 0.6299212598425197,
                    "duration": 0.1928571749999719
                },
                {
                    "name": "B3",
                    "midi": 59,
                    "time": 427.2857854999959,
                    "velocity": 0.5748031496062992,
                    "duration": 0.6375001062500019
                },
                {
                    "name": "G4",
                    "midi": 67,
                    "time": 427.2857854999959,
                    "velocity": 0.6771653543307087,
                    "duration": 0.6357143916666814
                },
                {
                    "name": "G3",
                    "midi": 55,
                    "time": 427.9286427499959,
                    "velocity": 0.5748031496062992,
                    "duration": 0.42857149999997546
                },
                {
                    "name": "E4",
                    "midi": 64,
                    "time": 427.9286427499959,
                    "velocity": 0.5748031496062992,
                    "duration": 0.4250000708333346
                },
                {
                    "name": "G4",
                    "midi": 67,
                    "time": 427.9286427499959,
                    "velocity": 0.6771653543307087,
                    "duration": 0.42857149999997546
                },
                {
                    "name": "A3",
                    "midi": 57,
                    "time": 428.3572142499959,
                    "velocity": 0.5039370078740157,
                    "duration": 0.21428574999998773
                },
                {
                    "name": "E4",
                    "midi": 64,
                    "time": 428.3572142499959,
                    "velocity": 0.5039370078740157,
                    "duration": 0.21071432083334685
                },
                {
                    "name": "A4",
                    "midi": 69,
                    "time": 428.3572142499959,
                    "velocity": 0.6062992125984252,
                    "duration": 0.21428574999998773
                },
                {
                    "name": "E4",
                    "midi": 64,
                    "time": 428.57149999999586,
                    "velocity": 0.5275590551181102,
                    "duration": 0.21428574999998773
                },
                {
                    "name": "B3",
                    "midi": 59,
                    "time": 428.57149999999586,
                    "velocity": 0.5354330708661418,
                    "duration": 0.1928571749999719
                },
                {
                    "name": "B4",
                    "midi": 71,
                    "time": 428.57149999999586,
                    "velocity": 0.6377952755905512,
                    "duration": 0.1928571749999719
                },
                {
                    "name": "C4",
                    "midi": 60,
                    "time": 428.78578574999585,
                    "velocity": 0.5905511811023622,
                    "duration": 0.42857149999997546
                },
                {
                    "name": "A4",
                    "midi": 69,
                    "time": 428.78578574999585,
                    "velocity": 0.5905511811023622,
                    "duration": 0.42857149999997546
                },
                {
                    "name": "C5",
                    "midi": 72,
                    "time": 428.78578574999585,
                    "velocity": 0.7007874015748031,
                    "duration": 0.42857149999997546
                },
                {
                    "name": "G4",
                    "midi": 67,
                    "time": 429.2143572499958,
                    "velocity": 0.5590551181102362,
                    "duration": 0.21428574999998773
                },
                {
                    "name": "D4",
                    "midi": 62,
                    "time": 429.2143572499958,
                    "velocity": 0.5590551181102362,
                    "duration": 0.21428574999998773
                },
                {
                    "name": "D5",
                    "midi": 74,
                    "time": 429.2143572499958,
                    "velocity": 0.6692913385826772,
                    "duration": 0.21428574999998773
                },
                {
                    "name": "E4",
                    "midi": 64,
                    "time": 429.4286429999958,
                    "velocity": 0.6141732283464567,
                    "duration": 0.21428574999998773
                },
                {
                    "name": "G4",
                    "midi": 67,
                    "time": 429.4286429999958,
                    "velocity": 0.6141732283464567,
                    "duration": 0.1928571749999719
                },
                {
                    "name": "E5",
                    "midi": 76,
                    "time": 429.4286429999958,
                    "velocity": 0.7244094488188977,
                    "duration": 0.1928571749999719
                },
                {
                    "name": "E4",
                    "midi": 64,
                    "time": 429.8572144999958,
                    "velocity": 0.6535433070866141,
                    "duration": 0.6375001062500019
                },
                {
                    "name": "G4",
                    "midi": 67,
                    "time": 429.8572144999958,
                    "velocity": 0.6535433070866141,
                    "duration": 0.6357143916666814
                },
                {
                    "name": "E5",
                    "midi": 76,
                    "time": 429.8572144999958,
                    "velocity": 0.7716535433070866,
                    "duration": 0.6375001062500019
                },
                {
                    "name": "C5",
                    "midi": 72,
                    "time": 430.5000717499958,
                    "velocity": 0.6299212598425197,
                    "duration": 0.2089286062500264
                },
                {
                    "name": "G5",
                    "midi": 79,
                    "time": 430.5000717499958,
                    "velocity": 0.7480314960629921,
                    "duration": 0.2089286062500264
                },
                {
                    "name": "C5",
                    "midi": 72,
                    "time": 430.71435749999586,
                    "velocity": 0.6535433070866141,
                    "duration": 0.2089286062500264
                },
                {
                    "name": "E5",
                    "midi": 76,
                    "time": 430.71435749999586,
                    "velocity": 0.6535433070866141,
                    "duration": 0.21071432083334685
                },
                {
                    "name": "C6",
                    "midi": 84,
                    "time": 430.71435749999586,
                    "velocity": 0.7716535433070866,
                    "duration": 0.2089286062500264
                },
                {
                    "name": "C5",
                    "midi": 72,
                    "time": 430.92864324999584,
                    "velocity": 0.6220472440944882,
                    "duration": 0.2089286062500264
                },
                {
                    "name": "G5",
                    "midi": 79,
                    "time": 430.92864324999584,
                    "velocity": 0.7401574803149606,
                    "duration": 0.2089286062500264
                },
                {
                    "name": "C5",
                    "midi": 72,
                    "time": 431.1429289999959,
                    "velocity": 0.6535433070866141,
                    "duration": 0.2089286062500264
                },
                {
                    "name": "E5",
                    "midi": 76,
                    "time": 431.1429289999959,
                    "velocity": 0.7716535433070866,
                    "duration": 0.21071432083334685
                },
                {
                    "name": "C5",
                    "midi": 72,
                    "time": 431.3572147499959,
                    "velocity": 0.7244094488188977,
                    "duration": 0.2089286062500264
                },
                {
                    "name": "C5",
                    "midi": 72,
                    "time": 431.5715004999959,
                    "velocity": 0.6299212598425197,
                    "duration": 0.2089286062500264
                },
                {
                    "name": "E5",
                    "midi": 76,
                    "time": 431.5715004999959,
                    "velocity": 0.7480314960629921,
                    "duration": 0.21071432083334685
                },
                {
                    "name": "G5",
                    "midi": 79,
                    "time": 431.7857862499959,
                    "velocity": 0.7480314960629921,
                    "duration": 0.21428574999998773
                },
                {
                    "name": "C5",
                    "midi": 72,
                    "time": 431.7857862499959,
                    "velocity": 0.6299212598425197,
                    "duration": 0.21428574999998773
                },
                {
                    "name": "F5",
                    "midi": 77,
                    "time": 432.0000719999959,
                    "velocity": 0.6141732283464567,
                    "duration": 0.21428574999998773
                },
                {
                    "name": "A4",
                    "midi": 69,
                    "time": 432.0000719999959,
                    "velocity": 0.6141732283464567,
                    "duration": 0.21428574999998773
                },
                {
                    "name": "C5",
                    "midi": 72,
                    "time": 432.0000719999959,
                    "velocity": 0.6141732283464567,
                    "duration": 0.1928571749999719
                },
                {
                    "name": "A5",
                    "midi": 81,
                    "time": 432.0000719999959,
                    "velocity": 0.7244094488188977,
                    "duration": 0.1928571749999719
                },
                {
                    "name": "F5",
                    "midi": 77,
                    "time": 432.42864349999587,
                    "velocity": 0.6141732283464567,
                    "duration": 0.6357143916666814
                },
                {
                    "name": "A4",
                    "midi": 69,
                    "time": 432.42864349999587,
                    "velocity": 0.6141732283464567,
                    "duration": 0.6375001062500019
                },
                {
                    "name": "C5",
                    "midi": 72,
                    "time": 432.42864349999587,
                    "velocity": 0.6141732283464567,
                    "duration": 0.6357143916666814
                },
                {
                    "name": "A5",
                    "midi": 81,
                    "time": 432.42864349999587,
                    "velocity": 0.7322834645669292,
                    "duration": 0.6375001062500019
                },
                {
                    "name": "A4",
                    "midi": 69,
                    "time": 433.0715007499959,
                    "velocity": 0.6299212598425197,
                    "duration": 0.42857149999997546
                },
                {
                    "name": "C5",
                    "midi": 72,
                    "time": 433.0715007499959,
                    "velocity": 0.6299212598425197,
                    "duration": 0.4250000708333346
                },
                {
                    "name": "A5",
                    "midi": 81,
                    "time": 433.0715007499959,
                    "velocity": 0.7480314960629921,
                    "duration": 0.42857149999997546
                },
                {
                    "name": "A#4",
                    "midi": 70,
                    "time": 433.50007224999587,
                    "velocity": 0.5905511811023622,
                    "duration": 0.21428574999998773
                },
                {
                    "name": "C5",
                    "midi": 72,
                    "time": 433.50007224999587,
                    "velocity": 0.5905511811023622,
                    "duration": 0.21428574999998773
                },
                {
                    "name": "A#5",
                    "midi": 82,
                    "time": 433.50007224999587,
                    "velocity": 0.7007874015748031,
                    "duration": 0.21428574999998773
                },
                {
                    "name": "A4",
                    "midi": 69,
                    "time": 433.71435799999585,
                    "velocity": 0.6141732283464567,
                    "duration": 0.20357146250000824
                },
                {
                    "name": "C5",
                    "midi": 72,
                    "time": 433.71435799999585,
                    "velocity": 0.6141732283464567,
                    "duration": 0.20357146250000824
                },
                {
                    "name": "A5",
                    "midi": 81,
                    "time": 433.71435799999585,
                    "velocity": 0.7322834645669292,
                    "duration": 0.20357146250000824
                },
                {
                    "name": "A4",
                    "midi": 69,
                    "time": 433.92864374999584,
                    "velocity": 0.7086614173228346,
                    "duration": 0.42857149999997546
                },
                {
                    "name": "C5",
                    "midi": 72,
                    "time": 433.92864374999584,
                    "velocity": 0.7086614173228346,
                    "duration": 0.42857149999997546
                },
                {
                    "name": "A5",
                    "midi": 81,
                    "time": 433.92864374999584,
                    "velocity": 0.7086614173228346,
                    "duration": 0.42857149999997546
                },
                {
                    "name": "G4",
                    "midi": 67,
                    "time": 434.3572152499958,
                    "velocity": 0.6299212598425197,
                    "duration": 0.21428574999998773
                },
                {
                    "name": "G5",
                    "midi": 79,
                    "time": 434.3572152499958,
                    "velocity": 0.7480314960629921,
                    "duration": 0.21428574999998773
                },
                {
                    "name": "C#5",
                    "midi": 73,
                    "time": 434.3572152499958,
                    "velocity": 0.6299212598425197,
                    "duration": 0.21428574999998773
                },
                {
                    "name": "D5",
                    "midi": 74,
                    "time": 434.5715009999958,
                    "velocity": 0.6141732283464567,
                    "duration": 0.1928571749999719
                },
                {
                    "name": "A4",
                    "midi": 69,
                    "time": 434.5715009999958,
                    "velocity": 0.6141732283464567,
                    "duration": 0.21428574999998773
                },
                {
                    "name": "F#5",
                    "midi": 78,
                    "time": 434.5715009999958,
                    "velocity": 0.6141732283464567,
                    "duration": 0.1928571749999719
                },
                {
                    "name": "A5",
                    "midi": 81,
                    "time": 434.5715009999958,
                    "velocity": 0.7244094488188977,
                    "duration": 0.1928571749999719
                },
                {
                    "name": "D5",
                    "midi": 74,
                    "time": 435.0000724999958,
                    "velocity": 0.6535433070866141,
                    "duration": 0.6250001041666451
                },
                {
                    "name": "A4",
                    "midi": 69,
                    "time": 435.0000724999958,
                    "velocity": 0.6535433070866141,
                    "duration": 0.6428572499999632
                },
                {
                    "name": "F#5",
                    "midi": 78,
                    "time": 435.0000724999958,
                    "velocity": 0.6535433070866141,
                    "duration": 0.6428572499999632
                },
                {
                    "name": "A5",
                    "midi": 81,
                    "time": 435.0000724999958,
                    "velocity": 0.7716535433070866,
                    "duration": 0.6250001041666451
                },
                {
                    "name": "D5",
                    "midi": 74,
                    "time": 435.64292974999574,
                    "velocity": 0.6299212598425197,
                    "duration": 0.21071432083334685
                },
                {
                    "name": "A5",
                    "midi": 81,
                    "time": 435.64292974999574,
                    "velocity": 0.7480314960629921,
                    "duration": 0.21071432083334685
                },
                {
                    "name": "D5",
                    "midi": 74,
                    "time": 435.85721549999573,
                    "velocity": 0.6535433070866141,
                    "duration": 0.2089286062500264
                },
                {
                    "name": "F#5",
                    "midi": 78,
                    "time": 435.85721549999573,
                    "velocity": 0.6535433070866141,
                    "duration": 0.21071432083334685
                },
                {
                    "name": "D6",
                    "midi": 86,
                    "time": 435.85721549999573,
                    "velocity": 0.7716535433070866,
                    "duration": 0.21071432083334685
                },
                {
                    "name": "D5",
                    "midi": 74,
                    "time": 436.0715012499957,
                    "velocity": 0.6220472440944882,
                    "duration": 0.21071432083334685
                },
                {
                    "name": "A5",
                    "midi": 81,
                    "time": 436.0715012499957,
                    "velocity": 0.7401574803149606,
                    "duration": 0.21071432083334685
                },
                {
                    "name": "D5",
                    "midi": 74,
                    "time": 436.2857869999957,
                    "velocity": 0.6535433070866141,
                    "duration": 0.2089286062500264
                },
                {
                    "name": "F#5",
                    "midi": 78,
                    "time": 436.2857869999957,
                    "velocity": 0.7716535433070866,
                    "duration": 0.21071432083334685
                },
                {
                    "name": "D5",
                    "midi": 74,
                    "time": 436.5000727499957,
                    "velocity": 0.7244094488188977,
                    "duration": 0.21071432083334685
                },
                {
                    "name": "D5",
                    "midi": 74,
                    "time": 436.7143584999957,
                    "velocity": 0.6299212598425197,
                    "duration": 0.2089286062500264
                },
                {
                    "name": "F#5",
                    "midi": 78,
                    "time": 436.7143584999957,
                    "velocity": 0.7480314960629921,
                    "duration": 0.2089286062500264
                },
                {
                    "name": "D5",
                    "midi": 74,
                    "time": 436.9286442499957,
                    "velocity": 0.6062992125984252,
                    "duration": 0.21428574999998773
                },
                {
                    "name": "A5",
                    "midi": 81,
                    "time": 436.9286442499957,
                    "velocity": 0.7244094488188977,
                    "duration": 0.21428574999998773
                },
                {
                    "name": "F#5",
                    "midi": 78,
                    "time": 436.9286442499957,
                    "velocity": 0.6062992125984252,
                    "duration": 0.21428574999998773
                },
                {
                    "name": "D5",
                    "midi": 74,
                    "time": 437.1429299999957,
                    "velocity": 0.6141732283464567,
                    "duration": 0.21428574999998773
                },
                {
                    "name": "G5",
                    "midi": 79,
                    "time": 437.1429299999957,
                    "velocity": 0.6141732283464567,
                    "duration": 0.21428574999998773
                },
                {
                    "name": "B4",
                    "midi": 71,
                    "time": 437.1429299999957,
                    "velocity": 0.6141732283464567,
                    "duration": 0.21428574999998773
                },
                {
                    "name": "B5",
                    "midi": 83,
                    "time": 437.1429299999957,
                    "velocity": 0.7244094488188977,
                    "duration": 0.1928571749999719
                },
                {
                    "name": "D5",
                    "midi": 74,
                    "time": 437.5715014999957,
                    "velocity": 0.6535433070866141,
                    "duration": 0.64285725000002
                },
                {
                    "name": "G5",
                    "midi": 79,
                    "time": 437.5715014999957,
                    "velocity": 0.6535433070866141,
                    "duration": 0.6357143916666814
                },
                {
                    "name": "B4",
                    "midi": 71,
                    "time": 437.5715014999957,
                    "velocity": 0.6535433070866141,
                    "duration": 0.6375001062500019
                },
                {
                    "name": "B5",
                    "midi": 83,
                    "time": 437.5715014999957,
                    "velocity": 0.7716535433070866,
                    "duration": 0.6375001062500019
                },
                {
                    "name": "B4",
                    "midi": 71,
                    "time": 438.2143587499957,
                    "velocity": 0.6377952755905512,
                    "duration": 0.42857149999997546
                },
                {
                    "name": "D5",
                    "midi": 74,
                    "time": 438.2143587499957,
                    "velocity": 0.6377952755905512,
                    "duration": 0.41071435416665736
                },
                {
                    "name": "B5",
                    "midi": 83,
                    "time": 438.2143587499957,
                    "velocity": 0.7559055118110236,
                    "duration": 0.41071435416665736
                },
                {
                    "name": "C5",
                    "midi": 72,
                    "time": 438.6429302499957,
                    "velocity": 0.6220472440944882,
                    "duration": 0.21428574999998773
                },
                {
                    "name": "D5",
                    "midi": 74,
                    "time": 438.6429302499957,
                    "velocity": 0.6220472440944882,
                    "duration": 0.21428574999998773
                },
                {
                    "name": "C6",
                    "midi": 84,
                    "time": 438.6429302499957,
                    "velocity": 0.7322834645669292,
                    "duration": 0.21428574999998773
                },
                {
                    "name": "B4",
                    "midi": 71,
                    "time": 438.8572159999957,
                    "velocity": 0.6614173228346457,
                    "duration": 0.20357146250000824
                },
                {
                    "name": "D5",
                    "midi": 74,
                    "time": 438.8572159999957,
                    "velocity": 0.6614173228346457,
                    "duration": 0.20357146250000824
                },
                {
                    "name": "B5",
                    "midi": 83,
                    "time": 438.8572159999957,
                    "velocity": 0.7795275590551181,
                    "duration": 0.20357146250000824
                },
                {
                    "name": "B4",
                    "midi": 71,
                    "time": 439.07150174999566,
                    "velocity": 0.6299212598425197,
                    "duration": 0.42857149999997546
                },
                {
                    "name": "D5",
                    "midi": 74,
                    "time": 439.07150174999566,
                    "velocity": 0.6299212598425197,
                    "duration": 0.42857149999997546
                },
                {
                    "name": "B5",
                    "midi": 83,
                    "time": 439.07150174999566,
                    "velocity": 0.7480314960629921,
                    "duration": 0.42857149999997546
                },
                {
                    "name": "A4",
                    "midi": 69,
                    "time": 439.50007324999564,
                    "velocity": 0.6299212598425197,
                    "duration": 0.21428574999998773
                },
                {
                    "name": "A5",
                    "midi": 81,
                    "time": 439.50007324999564,
                    "velocity": 0.7480314960629921,
                    "duration": 0.21428574999998773
                },
                {
                    "name": "D#5",
                    "midi": 75,
                    "time": 439.50007324999564,
                    "velocity": 0.6299212598425197,
                    "duration": 0.21428574999998773
                },
                {
                    "name": "E5",
                    "midi": 76,
                    "time": 439.7143589999956,
                    "velocity": 0.6141732283464567,
                    "duration": 0.1928571749999719
                },
                {
                    "name": "B4",
                    "midi": 71,
                    "time": 439.7143589999956,
                    "velocity": 0.6141732283464567,
                    "duration": 0.21428574999998773
                },
                {
                    "name": "G#5",
                    "midi": 80,
                    "time": 439.7143589999956,
                    "velocity": 0.6141732283464567,
                    "duration": 0.1928571749999719
                },
                {
                    "name": "B5",
                    "midi": 83,
                    "time": 439.7143589999956,
                    "velocity": 0.7244094488188977,
                    "duration": 0.1928571749999719
                },
                {
                    "name": "E5",
                    "midi": 76,
                    "time": 440.1429304999956,
                    "velocity": 0.6535433070866141,
                    "duration": 0.6250001041666451
                },
                {
                    "name": "B4",
                    "midi": 71,
                    "time": 440.1429304999956,
                    "velocity": 0.6535433070866141,
                    "duration": 0.6428572499999632
                },
                {
                    "name": "G#5",
                    "midi": 80,
                    "time": 440.1429304999956,
                    "velocity": 0.6535433070866141,
                    "duration": 0.6428572499999632
                },
                {
                    "name": "B5",
                    "midi": 83,
                    "time": 440.1429304999956,
                    "velocity": 0.7716535433070866,
                    "duration": 0.6250001041666451
                },
                {
                    "name": "E5",
                    "midi": 76,
                    "time": 440.78578774999556,
                    "velocity": 0.6299212598425197,
                    "duration": 0.21071432083334685
                },
                {
                    "name": "B5",
                    "midi": 83,
                    "time": 440.78578774999556,
                    "velocity": 0.7480314960629921,
                    "duration": 0.21071432083334685
                },
                {
                    "name": "E5",
                    "midi": 76,
                    "time": 441.00007349999555,
                    "velocity": 0.6535433070866141,
                    "duration": 0.2089286062500264
                },
                {
                    "name": "G#5",
                    "midi": 80,
                    "time": 441.00007349999555,
                    "velocity": 0.6535433070866141,
                    "duration": 0.21071432083334685
                },
                {
                    "name": "E6",
                    "midi": 88,
                    "time": 441.00007349999555,
                    "velocity": 0.7716535433070866,
                    "duration": 0.21071432083334685
                },
                {
                    "name": "E5",
                    "midi": 76,
                    "time": 441.21435924999554,
                    "velocity": 0.6220472440944882,
                    "duration": 0.21071432083334685
                },
                {
                    "name": "B5",
                    "midi": 83,
                    "time": 441.21435924999554,
                    "velocity": 0.7401574803149606,
                    "duration": 0.21071432083334685
                },
                {
                    "name": "E5",
                    "midi": 76,
                    "time": 441.4286449999955,
                    "velocity": 0.6535433070866141,
                    "duration": 0.2089286062500264
                },
                {
                    "name": "G#5",
                    "midi": 80,
                    "time": 441.4286449999955,
                    "velocity": 0.7716535433070866,
                    "duration": 0.21071432083334685
                },
                {
                    "name": "E5",
                    "midi": 76,
                    "time": 441.6429307499955,
                    "velocity": 0.7480314960629921,
                    "duration": 0.21071432083334685
                },
                {
                    "name": "E5",
                    "midi": 76,
                    "time": 441.8572164999955,
                    "velocity": 0.6299212598425197,
                    "duration": 0.2089286062500264
                },
                {
                    "name": "G#5",
                    "midi": 80,
                    "time": 441.8572164999955,
                    "velocity": 0.7480314960629921,
                    "duration": 0.2089286062500264
                },
                {
                    "name": "E5",
                    "midi": 76,
                    "time": 442.07150224999555,
                    "velocity": 0.6062992125984252,
                    "duration": 0.21428574999998773
                },
                {
                    "name": "B5",
                    "midi": 83,
                    "time": 442.07150224999555,
                    "velocity": 0.7244094488188977,
                    "duration": 0.21428574999998773
                },
                {
                    "name": "G#5",
                    "midi": 80,
                    "time": 442.07150224999555,
                    "velocity": 0.6062992125984252,
                    "duration": 0.21428574999998773
                },
                {
                    "name": "E5",
                    "midi": 76,
                    "time": 442.28578799999553,
                    "velocity": 0.6141732283464567,
                    "duration": 0.21428574999998773
                },
                {
                    "name": "A5",
                    "midi": 81,
                    "time": 442.28578799999553,
                    "velocity": 0.6141732283464567,
                    "duration": 0.21428574999998773
                },
                {
                    "name": "C5",
                    "midi": 72,
                    "time": 442.28578799999553,
                    "velocity": 0.6141732283464567,
                    "duration": 0.21428574999998773
                },
                {
                    "name": "C6",
                    "midi": 84,
                    "time": 442.28578799999553,
                    "velocity": 0.7244094488188977,
                    "duration": 0.1928571749999719
                },
                {
                    "name": "E5",
                    "midi": 76,
                    "time": 442.7143594999955,
                    "velocity": 0.6299212598425197,
                    "duration": 0.64285725000002
                },
                {
                    "name": "A5",
                    "midi": 81,
                    "time": 442.7143594999955,
                    "velocity": 0.6299212598425197,
                    "duration": 0.6357143916666814
                },
                {
                    "name": "C5",
                    "midi": 72,
                    "time": 442.7143594999955,
                    "velocity": 0.6299212598425197,
                    "duration": 0.6357143916666814
                },
                {
                    "name": "C6",
                    "midi": 84,
                    "time": 442.7143594999955,
                    "velocity": 0.7480314960629921,
                    "duration": 0.6357143916666814
                },
                {
                    "name": "A5",
                    "midi": 81,
                    "time": 443.35721674999553,
                    "velocity": 0.6299212598425197,
                    "duration": 0.41071435416665736
                },
                {
                    "name": "C5",
                    "midi": 72,
                    "time": 443.35721674999553,
                    "velocity": 0.6299212598425197,
                    "duration": 0.41071435416665736
                },
                {
                    "name": "E5",
                    "midi": 76,
                    "time": 443.35721674999553,
                    "velocity": 0.6299212598425197,
                    "duration": 0.41071435416665736
                },
                {
                    "name": "C6",
                    "midi": 84,
                    "time": 443.35721674999553,
                    "velocity": 0.7480314960629921,
                    "duration": 0.41071435416665736
                },
                {
                    "name": "A5",
                    "midi": 81,
                    "time": 443.7857882499955,
                    "velocity": 0.5905511811023622,
                    "duration": 0.21428574999998773
                },
                {
                    "name": "C5",
                    "midi": 72,
                    "time": 443.7857882499955,
                    "velocity": 0.5905511811023622,
                    "duration": 0.21428574999998773
                },
                {
                    "name": "E5",
                    "midi": 76,
                    "time": 443.7857882499955,
                    "velocity": 0.5905511811023622,
                    "duration": 0.2000000333333105
                },
                {
                    "name": "C6",
                    "midi": 84,
                    "time": 443.7857882499955,
                    "velocity": 0.7007874015748031,
                    "duration": 0.21428574999998773
                },
                {
                    "name": "C5",
                    "midi": 72,
                    "time": 444.0000739999955,
                    "velocity": 0.6062992125984252,
                    "duration": 0.21428574999998773
                },
                {
                    "name": "A5",
                    "midi": 81,
                    "time": 444.0000739999955,
                    "velocity": 0.6062992125984252,
                    "duration": 0.21428574999998773
                },
                {
                    "name": "E5",
                    "midi": 76,
                    "time": 444.0000739999955,
                    "velocity": 0.6062992125984252,
                    "duration": 0.21428574999998773
                },
                {
                    "name": "C6",
                    "midi": 84,
                    "time": 444.0000739999955,
                    "velocity": 0.7244094488188977,
                    "duration": 0.1928571749999719
                },
                {
                    "name": "A5",
                    "midi": 81,
                    "time": 444.42864549999547,
                    "velocity": 0.6141732283464567,
                    "duration": 0.64285725000002
                },
                {
                    "name": "E5",
                    "midi": 76,
                    "time": 444.42864549999547,
                    "velocity": 0.6141732283464567,
                    "duration": 0.64285725000002
                },
                {
                    "name": "C5",
                    "midi": 72,
                    "time": 444.42864549999547,
                    "velocity": 0.6141732283464567,
                    "duration": 0.64285725000002
                },
                {
                    "name": "C6",
                    "midi": 84,
                    "time": 444.42864549999547,
                    "velocity": 0.7322834645669292,
                    "duration": 0.64285725000002
                },
                {
                    "name": "A5",
                    "midi": 81,
                    "time": 445.0715027499955,
                    "velocity": 0.6535433070866141,
                    "duration": 0.41071435416665736
                },
                {
                    "name": "C5",
                    "midi": 72,
                    "time": 445.0715027499955,
                    "velocity": 0.6535433070866141,
                    "duration": 0.41071435416665736
                },
                {
                    "name": "E5",
                    "midi": 76,
                    "time": 445.0715027499955,
                    "velocity": 0.6535433070866141,
                    "duration": 0.41071435416665736
                },
                {
                    "name": "C6",
                    "midi": 84,
                    "time": 445.0715027499955,
                    "velocity": 0.7716535433070866,
                    "duration": 0.41071435416665736
                },
                {
                    "name": "C5",
                    "midi": 72,
                    "time": 445.50007424999546,
                    "velocity": 0.5984251968503937,
                    "duration": 0.21428574999998773
                },
                {
                    "name": "E5",
                    "midi": 76,
                    "time": 445.50007424999546,
                    "velocity": 0.5984251968503937,
                    "duration": 0.21428574999998773
                },
                {
                    "name": "A5",
                    "midi": 81,
                    "time": 445.50007424999546,
                    "velocity": 0.5984251968503937,
                    "duration": 0.21428574999998773
                },
                {
                    "name": "C6",
                    "midi": 84,
                    "time": 445.50007424999546,
                    "velocity": 0.7165354330708661,
                    "duration": 0.21428574999998773
                },
                {
                    "name": "B5",
                    "midi": 83,
                    "time": 445.71435999999545,
                    "velocity": 0.5826771653543307,
                    "duration": 0.21428574999998773
                },
                {
                    "name": "D5",
                    "midi": 74,
                    "time": 445.71435999999545,
                    "velocity": 0.5826771653543307,
                    "duration": 0.21428574999998773
                },
                {
                    "name": "G5",
                    "midi": 79,
                    "time": 445.71435999999545,
                    "velocity": 0.5826771653543307,
                    "duration": 0.1928571749999719
                },
                {
                    "name": "D6",
                    "midi": 86,
                    "time": 445.71435999999545,
                    "velocity": 0.7322834645669292,
                    "duration": 0.1928571749999719
                },
                {
                    "name": "B5",
                    "midi": 83,
                    "time": 446.1429314999954,
                    "velocity": 0.6299212598425197,
                    "duration": 0.64285725000002
                },
                {
                    "name": "D5",
                    "midi": 74,
                    "time": 446.1429314999954,
                    "velocity": 0.6299212598425197,
                    "duration": 0.633928677083361
                },
                {
                    "name": "G5",
                    "midi": 79,
                    "time": 446.1429314999954,
                    "velocity": 0.6299212598425197,
                    "duration": 0.64285725000002
                },
                {
                    "name": "D6",
                    "midi": 86,
                    "time": 446.1429314999954,
                    "velocity": 0.7559055118110236,
                    "duration": 0.633928677083361
                },
                {
                    "name": "B5",
                    "midi": 83,
                    "time": 446.78578874999545,
                    "velocity": 0.6614173228346457,
                    "duration": 0.21428574999998773
                },
                {
                    "name": "G5",
                    "midi": 79,
                    "time": 446.78578874999545,
                    "velocity": 0.6614173228346457,
                    "duration": 0.21428574999998773
                },
                {
                    "name": "D5",
                    "midi": 74,
                    "time": 446.78578874999545,
                    "velocity": 0.6614173228346457,
                    "duration": 0.1928571749999719
                },
                {
                    "name": "D6",
                    "midi": 86,
                    "time": 446.78578874999545,
                    "velocity": 0.7795275590551181,
                    "duration": 0.1928571749999719
                },
                {
                    "name": "B5",
                    "midi": 83,
                    "time": 447.2143602499954,
                    "velocity": 0.6377952755905512,
                    "duration": 0.21428574999998773
                },
                {
                    "name": "D5",
                    "midi": 74,
                    "time": 447.2143602499954,
                    "velocity": 0.6377952755905512,
                    "duration": 0.21428574999998773
                },
                {
                    "name": "G5",
                    "midi": 79,
                    "time": 447.2143602499954,
                    "velocity": 0.6377952755905512,
                    "duration": 0.21428574999998773
                },
                {
                    "name": "D6",
                    "midi": 86,
                    "time": 447.2143602499954,
                    "velocity": 0.7559055118110236,
                    "duration": 0.21428574999998773
                },
                {
                    "name": "G5",
                    "midi": 79,
                    "time": 447.4286459999954,
                    "velocity": 0.6614173228346457,
                    "duration": 0.21428574999998773
                },
                {
                    "name": "B5",
                    "midi": 83,
                    "time": 447.4286459999954,
                    "velocity": 0.6614173228346457,
                    "duration": 0.21428574999998773
                },
                {
                    "name": "D5",
                    "midi": 74,
                    "time": 447.4286459999954,
                    "velocity": 0.6614173228346457,
                    "duration": 0.21428574999998773
                },
                {
                    "name": "D6",
                    "midi": 86,
                    "time": 447.4286459999954,
                    "velocity": 0.7795275590551181,
                    "duration": 0.1928571749999719
                },
                {
                    "name": "G5",
                    "midi": 79,
                    "time": 447.8572174999954,
                    "velocity": 0.6850393700787402,
                    "duration": 0.64285725000002
                },
                {
                    "name": "B5",
                    "midi": 83,
                    "time": 447.8572174999954,
                    "velocity": 0.6850393700787402,
                    "duration": 0.6357143916666814
                },
                {
                    "name": "D5",
                    "midi": 74,
                    "time": 447.8572174999954,
                    "velocity": 0.6850393700787402,
                    "duration": 0.6357143916666814
                },
                {
                    "name": "D6",
                    "midi": 86,
                    "time": 447.8572174999954,
                    "velocity": 0.8110236220472441,
                    "duration": 0.6357143916666814
                },
                {
                    "name": "B5",
                    "midi": 83,
                    "time": 448.5000747499954,
                    "velocity": 0.6929133858267716,
                    "duration": 0.41071435416665736
                },
                {
                    "name": "D5",
                    "midi": 74,
                    "time": 448.5000747499954,
                    "velocity": 0.6929133858267716,
                    "duration": 0.41071435416665736
                },
                {
                    "name": "G5",
                    "midi": 79,
                    "time": 448.5000747499954,
                    "velocity": 0.6929133858267716,
                    "duration": 0.41071435416665736
                },
                {
                    "name": "D6",
                    "midi": 86,
                    "time": 448.5000747499954,
                    "velocity": 0.8188976377952756,
                    "duration": 0.41071435416665736
                },
                {
                    "name": "B5",
                    "midi": 83,
                    "time": 448.9286462499954,
                    "velocity": 0.6377952755905512,
                    "duration": 0.21428574999998773
                },
                {
                    "name": "D5",
                    "midi": 74,
                    "time": 448.9286462499954,
                    "velocity": 0.6377952755905512,
                    "duration": 0.21428574999998773
                },
                {
                    "name": "G5",
                    "midi": 79,
                    "time": 448.9286462499954,
                    "velocity": 0.6377952755905512,
                    "duration": 0.2000000333333105
                },
                {
                    "name": "D6",
                    "midi": 86,
                    "time": 448.9286462499954,
                    "velocity": 0.7559055118110236,
                    "duration": 0.21428574999998773
                },
                {
                    "name": "E6",
                    "midi": 88,
                    "time": 449.14293199999537,
                    "velocity": 0.7874015748031497,
                    "duration": 0.1928571749999719
                },
                {
                    "name": "E5",
                    "midi": 76,
                    "time": 449.14293199999537,
                    "velocity": 0.6614173228346457,
                    "duration": 0.21428574999998773
                },
                {
                    "name": "C6",
                    "midi": 84,
                    "time": 449.14293199999537,
                    "velocity": 0.6614173228346457,
                    "duration": 0.21428574999998773
                },
                {
                    "name": "G5",
                    "midi": 79,
                    "time": 449.14293199999537,
                    "velocity": 0.6614173228346457,
                    "duration": 0.21428574999998773
                },
                {
                    "name": "C6",
                    "midi": 84,
                    "time": 449.57150349999534,
                    "velocity": 0.6771653543307087,
                    "duration": 0.64285725000002
                },
                {
                    "name": "G5",
                    "midi": 79,
                    "time": 449.57150349999534,
                    "velocity": 0.6771653543307087,
                    "duration": 0.64285725000002
                },
                {
                    "name": "E5",
                    "midi": 76,
                    "time": 449.57150349999534,
                    "velocity": 0.6771653543307087,
                    "duration": 0.64285725000002
                },
                {
                    "name": "E6",
                    "midi": 88,
                    "time": 449.57150349999534,
                    "velocity": 0.7952755905511811,
                    "duration": 0.64285725000002
                },
                {
                    "name": "C6",
                    "midi": 84,
                    "time": 450.21436074999536,
                    "velocity": 0.7007874015748031,
                    "duration": 0.41071435416665736
                },
                {
                    "name": "E5",
                    "midi": 76,
                    "time": 450.21436074999536,
                    "velocity": 0.7007874015748031,
                    "duration": 0.41071435416665736
                },
                {
                    "name": "G5",
                    "midi": 79,
                    "time": 450.21436074999536,
                    "velocity": 0.7007874015748031,
                    "duration": 0.41071435416665736
                },
                {
                    "name": "E6",
                    "midi": 88,
                    "time": 450.21436074999536,
                    "velocity": 0.8346456692913385,
                    "duration": 0.41071435416665736
                },
                {
                    "name": "E5",
                    "midi": 76,
                    "time": 450.64293224999534,
                    "velocity": 0.6456692913385826,
                    "duration": 0.21428574999998773
                },
                {
                    "name": "G5",
                    "midi": 79,
                    "time": 450.64293224999534,
                    "velocity": 0.6456692913385826,
                    "duration": 0.21428574999998773
                },
                {
                    "name": "C6",
                    "midi": 84,
                    "time": 450.64293224999534,
                    "velocity": 0.6456692913385826,
                    "duration": 0.21428574999998773
                },
                {
                    "name": "E6",
                    "midi": 88,
                    "time": 450.64293224999534,
                    "velocity": 0.7716535433070866,
                    "duration": 0.21428574999998773
                },
                {
                    "name": "C6",
                    "midi": 84,
                    "time": 450.8572179999953,
                    "velocity": 0.5748031496062992,
                    "duration": 0.21428574999998773
                },
                {
                    "name": "E5",
                    "midi": 76,
                    "time": 450.8572179999953,
                    "velocity": 0.5748031496062992,
                    "duration": 0.21428574999998773
                },
                {
                    "name": "G5",
                    "midi": 79,
                    "time": 450.8572179999953,
                    "velocity": 0.5748031496062992,
                    "duration": 0.1928571749999719
                },
                {
                    "name": "E6",
                    "midi": 88,
                    "time": 450.8572179999953,
                    "velocity": 0.8110236220472441,
                    "duration": 0.1928571749999719
                },
                {
                    "name": "C6",
                    "midi": 84,
                    "time": 451.2857894999953,
                    "velocity": 0.6535433070866141,
                    "duration": 0.64285725000002
                },
                {
                    "name": "E5",
                    "midi": 76,
                    "time": 451.2857894999953,
                    "velocity": 0.6535433070866141,
                    "duration": 0.633928677083361
                },
                {
                    "name": "G5",
                    "midi": 79,
                    "time": 451.2857894999953,
                    "velocity": 0.6535433070866141,
                    "duration": 0.64285725000002
                },
                {
                    "name": "E6",
                    "midi": 88,
                    "time": 451.2857894999953,
                    "velocity": 0.7795275590551181,
                    "duration": 0.633928677083361
                },
                {
                    "name": "C5",
                    "midi": 72,
                    "time": 451.9286467499953,
                    "velocity": 0.3779527559055118,
                    "duration": 0.21428574999998773
                },
                {
                    "name": "G4",
                    "midi": 67,
                    "time": 451.9286467499953,
                    "velocity": 0.3779527559055118,
                    "duration": 0.21428574999998773
                },
                {
                    "name": "E4",
                    "midi": 64,
                    "time": 451.9286467499953,
                    "velocity": 0.3779527559055118,
                    "duration": 0.1928571749999719
                },
                {
                    "name": "E5",
                    "midi": 76,
                    "time": 451.9286467499953,
                    "velocity": 0.44881889763779526,
                    "duration": 0.1928571749999719
                },
                {
                    "name": "C5",
                    "midi": 72,
                    "time": 452.3572182499953,
                    "velocity": 0.3543307086614173,
                    "duration": 0.1928571749999719
                },
                {
                    "name": "E4",
                    "midi": 64,
                    "time": 452.3572182499953,
                    "velocity": 0.3543307086614173,
                    "duration": 0.1928571749999719
                },
                {
                    "name": "G4",
                    "midi": 67,
                    "time": 452.3572182499953,
                    "velocity": 0.3543307086614173,
                    "duration": 0.1928571749999719
                },
                {
                    "name": "E5",
                    "midi": 76,
                    "time": 452.3572182499953,
                    "velocity": 0.4251968503937008,
                    "duration": 0.1928571749999719
                },
                {
                    "name": "G4",
                    "midi": 67,
                    "time": 452.5715039999953,
                    "velocity": 0.3543307086614173,
                    "duration": 0.21428574999998773
                },
                {
                    "name": "C5",
                    "midi": 72,
                    "time": 452.5715039999953,
                    "velocity": 0.3543307086614173,
                    "duration": 0.21428574999998773
                },
                {
                    "name": "E4",
                    "midi": 64,
                    "time": 452.5715039999953,
                    "velocity": 0.3543307086614173,
                    "duration": 0.21428574999998773
                },
                {
                    "name": "E5",
                    "midi": 76,
                    "time": 452.5715039999953,
                    "velocity": 0.41732283464566927,
                    "duration": 0.1928571749999719
                },
                {
                    "name": "G4",
                    "midi": 67,
                    "time": 453.00007549999526,
                    "velocity": 0.3543307086614173,
                    "duration": 0.64285725000002
                },
                {
                    "name": "C5",
                    "midi": 72,
                    "time": 453.00007549999526,
                    "velocity": 0.3543307086614173,
                    "duration": 0.6357143916666814
                },
                {
                    "name": "E4",
                    "midi": 64,
                    "time": 453.00007549999526,
                    "velocity": 0.3543307086614173,
                    "duration": 0.6357143916666814
                },
                {
                    "name": "E5",
                    "midi": 76,
                    "time": 453.00007549999526,
                    "velocity": 0.41732283464566927,
                    "duration": 0.6357143916666814
                },
                {
                    "name": "C5",
                    "midi": 72,
                    "time": 453.6429327499953,
                    "velocity": 0.3464566929133858,
                    "duration": 0.41071435416665736
                },
                {
                    "name": "E4",
                    "midi": 64,
                    "time": 453.6429327499953,
                    "velocity": 0.3464566929133858,
                    "duration": 0.41071435416665736
                },
                {
                    "name": "G4",
                    "midi": 67,
                    "time": 453.6429327499953,
                    "velocity": 0.3464566929133858,
                    "duration": 0.41071435416665736
                },
                {
                    "name": "E5",
                    "midi": 76,
                    "time": 453.6429327499953,
                    "velocity": 0.4094488188976378,
                    "duration": 0.41071435416665736
                },
                {
                    "name": "C5",
                    "midi": 72,
                    "time": 454.07150424999526,
                    "velocity": 0.30708661417322836,
                    "duration": 0.19285717500002875
                },
                {
                    "name": "E4",
                    "midi": 64,
                    "time": 454.07150424999526,
                    "velocity": 0.30708661417322836,
                    "duration": 0.19285717500002875
                },
                {
                    "name": "G4",
                    "midi": 67,
                    "time": 454.07150424999526,
                    "velocity": 0.30708661417322836,
                    "duration": 0.18035717291667197
                },
                {
                    "name": "E5",
                    "midi": 76,
                    "time": 454.07150424999526,
                    "velocity": 0.3700787401574803,
                    "duration": 0.19285717500002875
                },
                {
                    "name": "E5",
                    "midi": 76,
                    "time": 454.2857899999953,
                    "velocity": 0.3937007874015748,
                    "duration": 0.1928571749999719
                },
                {
                    "name": "F4",
                    "midi": 65,
                    "time": 454.2857899999953,
                    "velocity": 0.33070866141732286,
                    "duration": 0.21428574999998773
                },
                {
                    "name": "C5",
                    "midi": 72,
                    "time": 454.2857899999953,
                    "velocity": 0.33070866141732286,
                    "duration": 0.21428574999998773
                },
                {
                    "name": "B4",
                    "midi": 71,
                    "time": 454.7143614999953,
                    "velocity": 0.2992125984251969,
                    "duration": 0.6375001062500019
                },
                {
                    "name": "F4",
                    "midi": 65,
                    "time": 454.7143614999953,
                    "velocity": 0.2992125984251969,
                    "duration": 0.6375001062500019
                },
                {
                    "name": "D5",
                    "midi": 74,
                    "time": 454.7143614999953,
                    "velocity": 0.3543307086614173,
                    "duration": 0.6375001062500019
                },
                {
                    "name": "B4",
                    "midi": 71,
                    "time": 455.3572187499953,
                    "velocity": 0.31496062992125984,
                    "duration": 0.41071435416665736
                },
                {
                    "name": "F4",
                    "midi": 65,
                    "time": 455.3572187499953,
                    "velocity": 0.31496062992125984,
                    "duration": 0.41071435416665736
                },
                {
                    "name": "D5",
                    "midi": 74,
                    "time": 455.3572187499953,
                    "velocity": 0.3700787401574803,
                    "duration": 0.41071435416665736
                },
                {
                    "name": "B4",
                    "midi": 71,
                    "time": 455.7857902499953,
                    "velocity": 0.28346456692913385,
                    "duration": 0.21428574999998773
                },
                {
                    "name": "F4",
                    "midi": 65,
                    "time": 455.7857902499953,
                    "velocity": 0.28346456692913385,
                    "duration": 0.2000000333333105
                },
                {
                    "name": "D5",
                    "midi": 74,
                    "time": 455.7857902499953,
                    "velocity": 0.33070866141732286,
                    "duration": 0.21428574999998773
                },
                {
                    "name": "D5",
                    "midi": 74,
                    "time": 456.00007599999526,
                    "velocity": 0.3543307086614173,
                    "duration": 0.1928571749999719
                },
                {
                    "name": "E4",
                    "midi": 64,
                    "time": 456.00007599999526,
                    "velocity": 0.2992125984251969,
                    "duration": 0.21428574999998773
                },
                {
                    "name": "B4",
                    "midi": 71,
                    "time": 456.00007599999526,
                    "velocity": 0.2992125984251969,
                    "duration": 0.21428574999998773
                },
                {
                    "name": "A4",
                    "midi": 69,
                    "time": 456.42864749999524,
                    "velocity": 0.2677165354330709,
                    "duration": 0.6375001062500019
                },
                {
                    "name": "E4",
                    "midi": 64,
                    "time": 456.42864749999524,
                    "velocity": 0.2677165354330709,
                    "duration": 0.6375001062500019
                },
                {
                    "name": "C5",
                    "midi": 72,
                    "time": 456.42864749999524,
                    "velocity": 0.3228346456692913,
                    "duration": 0.6375001062500019
                },
                {
                    "name": "A4",
                    "midi": 69,
                    "time": 457.07150474999526,
                    "velocity": 0.2755905511811024,
                    "duration": 0.41071435416665736
                },
                {
                    "name": "E4",
                    "midi": 64,
                    "time": 457.07150474999526,
                    "velocity": 0.2755905511811024,
                    "duration": 0.41071435416665736
                },
                {
                    "name": "C5",
                    "midi": 72,
                    "time": 457.07150474999526,
                    "velocity": 0.33070866141732286,
                    "duration": 0.41071435416665736
                },
                {
                    "name": "A4",
                    "midi": 69,
                    "time": 457.50007624999523,
                    "velocity": 0.25196850393700787,
                    "duration": 0.21428574999998773
                },
                {
                    "name": "E4",
                    "midi": 64,
                    "time": 457.50007624999523,
                    "velocity": 0.25196850393700787,
                    "duration": 0.2000000333333105
                },
                {
                    "name": "C5",
                    "midi": 72,
                    "time": 457.50007624999523,
                    "velocity": 0.2992125984251969,
                    "duration": 0.21428574999998773
                },
                {
                    "name": "C5",
                    "midi": 72,
                    "time": 457.7143619999952,
                    "velocity": 0.31496062992125984,
                    "duration": 0.1928571749999719
                },
                {
                    "name": "E4",
                    "midi": 64,
                    "time": 457.7143619999952,
                    "velocity": 0.2677165354330709,
                    "duration": 0.21428574999998773
                },
                {
                    "name": "A4",
                    "midi": 69,
                    "time": 457.7143619999952,
                    "velocity": 0.2677165354330709,
                    "duration": 0.21428574999998773
                },
                {
                    "name": "G#4",
                    "midi": 68,
                    "time": 458.1429334999952,
                    "velocity": 0.23622047244094488,
                    "duration": 0.64285725000002
                },
                {
                    "name": "E4",
                    "midi": 64,
                    "time": 458.1429334999952,
                    "velocity": 0.23622047244094488,
                    "duration": 0.64285725000002
                },
                {
                    "name": "B4",
                    "midi": 71,
                    "time": 458.1429334999952,
                    "velocity": 0.28346456692913385,
                    "duration": 0.64285725000002
                },
                {
                    "name": "C#4",
                    "midi": 61,
                    "time": 459.0000764999952,
                    "velocity": 0.30708661417322836,
                    "duration": 0.38571435000000065
                },
                {
                    "name": "E4",
                    "midi": 64,
                    "time": 459.0000764999952,
                    "velocity": 0.36220472440944884,
                    "duration": 0.38571435000000065
                },
                {
                    "name": "D4",
                    "midi": 62,
                    "time": 459.4286479999952,
                    "velocity": 0.33070866141732286,
                    "duration": 0.38571435000000065
                },
                {
                    "name": "F#4",
                    "midi": 66,
                    "time": 459.4286479999952,
                    "velocity": 0.3937007874015748,
                    "duration": 0.38571435000000065
                },
                {
                    "name": "C4",
                    "midi": 60,
                    "time": 459.85721949999515,
                    "velocity": 0.2677165354330709,
                    "duration": 0.38571435000000065
                },
                {
                    "name": "D#4",
                    "midi": 63,
                    "time": 459.85721949999515,
                    "velocity": 0.31496062992125984,
                    "duration": 0.38571435000000065
                },
                {
                    "name": "C#4",
                    "midi": 61,
                    "time": 460.28579099999513,
                    "velocity": 0.30708661417322836,
                    "duration": 1.2678573541666083
                },
                {
                    "name": "E4",
                    "midi": 64,
                    "time": 460.28579099999513,
                    "velocity": 0.3700787401574803,
                    "duration": 1.2678573541666083
                },
                {
                    "name": "A4",
                    "midi": 69,
                    "time": 460.5000767499951,
                    "velocity": 0.2992125984251969,
                    "duration": 0.41071435416665736
                },
                {
                    "name": "C#5",
                    "midi": 73,
                    "time": 460.5000767499951,
                    "velocity": 0.2992125984251969,
                    "duration": 0.41071435416665736
                },
                {
                    "name": "A4",
                    "midi": 69,
                    "time": 460.9286482499951,
                    "velocity": 0.2992125984251969,
                    "duration": 0.21428574999998773
                },
                {
                    "name": "C#5",
                    "midi": 73,
                    "time": 460.9286482499951,
                    "velocity": 0.2992125984251969,
                    "duration": 0.21428574999998773
                },
                {
                    "name": "A4",
                    "midi": 69,
                    "time": 461.1429339999951,
                    "velocity": 0.2992125984251969,
                    "duration": 0.42857149999997546
                },
                {
                    "name": "C#5",
                    "midi": 73,
                    "time": 461.1429339999951,
                    "velocity": 0.2992125984251969,
                    "duration": 0.42857149999997546
                },
                {
                    "name": "C#5",
                    "midi": 73,
                    "time": 461.57150549999506,
                    "velocity": 0.2440944881889764,
                    "duration": 0.42857149999997546
                },
                {
                    "name": "C#4",
                    "midi": 61,
                    "time": 461.57150549999506,
                    "velocity": 0.33070866141732286,
                    "duration": 0.41071435416665736
                },
                {
                    "name": "E4",
                    "midi": 64,
                    "time": 461.57150549999506,
                    "velocity": 0.33070866141732286,
                    "duration": 0.41071435416665736
                },
                {
                    "name": "A4",
                    "midi": 69,
                    "time": 461.57150549999506,
                    "velocity": 0.4330708661417323,
                    "duration": 0.42857149999997546
                },
                {
                    "name": "C#4",
                    "midi": 61,
                    "time": 462.00007699999503,
                    "velocity": 0.33070866141732286,
                    "duration": 0.42857149999997546
                },
                {
                    "name": "E4",
                    "midi": 64,
                    "time": 462.00007699999503,
                    "velocity": 0.33070866141732286,
                    "duration": 0.42857149999997546
                },
                {
                    "name": "B4",
                    "midi": 71,
                    "time": 462.00007699999503,
                    "velocity": 0.44881889763779526,
                    "duration": 0.42857149999997546
                },
                {
                    "name": "C#4",
                    "midi": 61,
                    "time": 462.428648499995,
                    "velocity": 0.3700787401574803,
                    "duration": 0.38571435000000065
                },
                {
                    "name": "F4",
                    "midi": 65,
                    "time": 462.428648499995,
                    "velocity": 0.3700787401574803,
                    "duration": 0.38571435000000065
                },
                {
                    "name": "C#5",
                    "midi": 73,
                    "time": 462.428648499995,
                    "velocity": 0.48031496062992124,
                    "duration": 0.38571435000000065
                },
                {
                    "name": "F#4",
                    "midi": 66,
                    "time": 462.857219999995,
                    "velocity": 0.3543307086614173,
                    "duration": 1.2678573541666083
                },
                {
                    "name": "C#5",
                    "midi": 73,
                    "time": 462.857219999995,
                    "velocity": 0.4566929133858268,
                    "duration": 0.8571429999999509
                },
                {
                    "name": "F#5",
                    "midi": 78,
                    "time": 463.07150574999497,
                    "velocity": 0.3779527559055118,
                    "duration": 0.41071435416665736
                },
                {
                    "name": "E5",
                    "midi": 76,
                    "time": 463.07150574999497,
                    "velocity": 0.3779527559055118,
                    "duration": 0.41071435416665736
                },
                {
                    "name": "F#5",
                    "midi": 78,
                    "time": 463.50007724999494,
                    "velocity": 0.3228346456692913,
                    "duration": 0.21428574999998773
                },
                {
                    "name": "E5",
                    "midi": 76,
                    "time": 463.50007724999494,
                    "velocity": 0.3228346456692913,
                    "duration": 0.21428574999998773
                },
                {
                    "name": "D5",
                    "midi": 74,
                    "time": 463.71436299999493,
                    "velocity": 0.2992125984251969,
                    "duration": 0.41071435416665736
                },
                {
                    "name": "F#5",
                    "midi": 78,
                    "time": 463.71436299999493,
                    "velocity": 0.2992125984251969,
                    "duration": 0.41071435416665736
                },
                {
                    "name": "B4",
                    "midi": 71,
                    "time": 463.71436299999493,
                    "velocity": 0.3779527559055118,
                    "duration": 0.42857149999997546
                },
                {
                    "name": "F#4",
                    "midi": 66,
                    "time": 464.1429344999949,
                    "velocity": 0.4409448818897638,
                    "duration": 0.42857149999997546
                },
                {
                    "name": "D5",
                    "midi": 74,
                    "time": 464.1429344999949,
                    "velocity": 0.2755905511811024,
                    "duration": 0.42857149999997546
                },
                {
                    "name": "F#5",
                    "midi": 78,
                    "time": 464.1429344999949,
                    "velocity": 0.2755905511811024,
                    "duration": 0.42857149999997546
                },
                {
                    "name": "B4",
                    "midi": 71,
                    "time": 464.1429344999949,
                    "velocity": 0.4015748031496063,
                    "duration": 0.21428574999998773
                },
                {
                    "name": "A4",
                    "midi": 69,
                    "time": 464.3572202499949,
                    "velocity": 0.3779527559055118,
                    "duration": 0.21428574999998773
                },
                {
                    "name": "D4",
                    "midi": 62,
                    "time": 464.5715059999949,
                    "velocity": 0.29133858267716534,
                    "duration": 0.42857149999997546
                },
                {
                    "name": "G#4",
                    "midi": 68,
                    "time": 464.5715059999949,
                    "velocity": 0.4015748031496063,
                    "duration": 0.42857149999997546
                },
                {
                    "name": "D4",
                    "midi": 62,
                    "time": 465.00007749999486,
                    "velocity": 0.29133858267716534,
                    "duration": 0.38571435000000065
                },
                {
                    "name": "F#4",
                    "midi": 66,
                    "time": 465.00007749999486,
                    "velocity": 0.3779527559055118,
                    "duration": 0.38571435000000065
                },
                {
                    "name": "D4",
                    "midi": 62,
                    "time": 465.42864899999483,
                    "velocity": 0.33070866141732286,
                    "duration": 1.2678573541666083
                },
                {
                    "name": "E4",
                    "midi": 64,
                    "time": 465.42864899999483,
                    "velocity": 0.3937007874015748,
                    "duration": 1.2678573541666083
                },
                {
                    "name": "D5",
                    "midi": 74,
                    "time": 465.6429347499948,
                    "velocity": 0.31496062992125984,
                    "duration": 0.41071435416665736
                },
                {
                    "name": "E5",
                    "midi": 76,
                    "time": 465.6429347499948,
                    "velocity": 0.31496062992125984,
                    "duration": 0.41071435416665736
                },
                {
                    "name": "D5",
                    "midi": 74,
                    "time": 466.0715062499948,
                    "velocity": 0.2755905511811024,
                    "duration": 0.19642860416666963
                },
                {
                    "name": "E5",
                    "midi": 76,
                    "time": 466.0715062499948,
                    "velocity": 0.2755905511811024,
                    "duration": 0.19642860416666963
                },
                {
                    "name": "D5",
                    "midi": 74,
                    "time": 466.2857919999948,
                    "velocity": 0.31496062992125984,
                    "duration": 0.41071435416665736
                },
                {
                    "name": "E5",
                    "midi": 76,
                    "time": 466.2857919999948,
                    "velocity": 0.31496062992125984,
                    "duration": 0.41071435416665736
                },
                {
                    "name": "D5",
                    "midi": 74,
                    "time": 466.71436349999476,
                    "velocity": 0.31496062992125984,
                    "duration": 0.42857149999997546
                },
                {
                    "name": "E5",
                    "midi": 76,
                    "time": 466.71436349999476,
                    "velocity": 0.31496062992125984,
                    "duration": 0.42857149999997546
                },
                {
                    "name": "D4",
                    "midi": 62,
                    "time": 466.71436349999476,
                    "velocity": 0.33070866141732286,
                    "duration": 0.21428574999998773
                },
                {
                    "name": "E4",
                    "midi": 64,
                    "time": 466.71436349999476,
                    "velocity": 0.3937007874015748,
                    "duration": 0.19642860416666963
                },
                {
                    "name": "F#4",
                    "midi": 66,
                    "time": 467.0000778333281,
                    "velocity": 0.31496062992125984,
                    "duration": 0.07142858333332924
                },
                {
                    "name": "G#4",
                    "midi": 68,
                    "time": 467.0715064166614,
                    "velocity": 0.31496062992125984,
                    "duration": 0.07142858333332924
                },
                {
                    "name": "D4",
                    "midi": 62,
                    "time": 467.14293499999474,
                    "velocity": 0.33070866141732286,
                    "duration": 0.38571435000000065
                },
                {
                    "name": "F#4",
                    "midi": 66,
                    "time": 467.14293499999474,
                    "velocity": 0.3937007874015748,
                    "duration": 0.38571435000000065
                },
                {
                    "name": "D4",
                    "midi": 62,
                    "time": 467.5715064999947,
                    "velocity": 0.2755905511811024,
                    "duration": 0.38571435000000065
                },
                {
                    "name": "E4",
                    "midi": 64,
                    "time": 467.5715064999947,
                    "velocity": 0.33070866141732286,
                    "duration": 0.38571435000000065
                },
                {
                    "name": "D4",
                    "midi": 62,
                    "time": 468.0000779999947,
                    "velocity": 0.33070866141732286,
                    "duration": 0.8571429999999509
                },
                {
                    "name": "F#4",
                    "midi": 66,
                    "time": 468.0000779999947,
                    "velocity": 0.3937007874015748,
                    "duration": 0.8571429999999509
                },
                {
                    "name": "A4",
                    "midi": 69,
                    "time": 468.2143637499947,
                    "velocity": 0.2755905511811024,
                    "duration": 0.41071435416665736
                },
                {
                    "name": "A4",
                    "midi": 69,
                    "time": 468.64293524999465,
                    "velocity": 0.2440944881889764,
                    "duration": 0.19642860416666963
                },
                {
                    "name": "A4",
                    "midi": 69,
                    "time": 468.85722099999464,
                    "velocity": 0.28346456692913385,
                    "duration": 0.42857149999997546
                },
                {
                    "name": "C#4",
                    "midi": 61,
                    "time": 468.85722099999464,
                    "velocity": 0.29133858267716534,
                    "duration": 0.41071435416665736
                },
                {
                    "name": "E4",
                    "midi": 64,
                    "time": 468.85722099999464,
                    "velocity": 0.3464566929133858,
                    "duration": 0.41071435416665736
                },
                {
                    "name": "A4",
                    "midi": 69,
                    "time": 469.2857924999946,
                    "velocity": 0.5118110236220472,
                    "duration": 0.41071435416665736
                },
                {
                    "name": "C#5",
                    "midi": 73,
                    "time": 469.2857924999946,
                    "velocity": 0.5118110236220472,
                    "duration": 0.42857149999997546
                },
                {
                    "name": "E5",
                    "midi": 76,
                    "time": 469.2857924999946,
                    "velocity": 0.6062992125984252,
                    "duration": 0.42857149999997546
                },
                {
                    "name": "A4",
                    "midi": 69,
                    "time": 469.7143639999946,
                    "velocity": 0.5669291338582677,
                    "duration": 0.41071435416665736
                },
                {
                    "name": "D5",
                    "midi": 74,
                    "time": 469.7143639999946,
                    "velocity": 0.5669291338582677,
                    "duration": 0.38571435000000065
                },
                {
                    "name": "F#5",
                    "midi": 78,
                    "time": 469.7143639999946,
                    "velocity": 0.6692913385826772,
                    "duration": 0.38571435000000065
                },
                {
                    "name": "A4",
                    "midi": 69,
                    "time": 470.14293549999456,
                    "velocity": 0.49606299212598426,
                    "duration": 0.42857149999997546
                },
                {
                    "name": "C5",
                    "midi": 72,
                    "time": 470.14293549999456,
                    "velocity": 0.49606299212598426,
                    "duration": 0.38571435000000065
                },
                {
                    "name": "D#5",
                    "midi": 75,
                    "time": 470.14293549999456,
                    "velocity": 0.5905511811023622,
                    "duration": 0.38571435000000065
                },
                {
                    "name": "A4",
                    "midi": 69,
                    "time": 470.57150699999454,
                    "velocity": 0.5590551181102362,
                    "duration": 0.19642860416666963
                },
                {
                    "name": "C#5",
                    "midi": 73,
                    "time": 470.57150699999454,
                    "velocity": 0.5590551181102362,
                    "duration": 0.19642860416666963
                },
                {
                    "name": "E5",
                    "midi": 76,
                    "time": 470.57150699999454,
                    "velocity": 0.6614173228346457,
                    "duration": 0.19642860416666963
                },
                {
                    "name": "C#6",
                    "midi": 85,
                    "time": 470.7857927499945,
                    "velocity": 0.6062992125984252,
                    "duration": 0.42857149999997546
                },
                {
                    "name": "A5",
                    "midi": 81,
                    "time": 470.7857927499945,
                    "velocity": 0.5118110236220472,
                    "duration": 0.42857149999997546
                },
                {
                    "name": "E5",
                    "midi": 76,
                    "time": 470.7857927499945,
                    "velocity": 0.5118110236220472,
                    "duration": 0.42857149999997546
                },
                {
                    "name": "C#5",
                    "midi": 73,
                    "time": 470.7857927499945,
                    "velocity": 0.5118110236220472,
                    "duration": 0.42857149999997546
                },
                {
                    "name": "C#5",
                    "midi": 73,
                    "time": 471.2143642499945,
                    "velocity": 0.44881889763779526,
                    "duration": 0.21428574999998773
                },
                {
                    "name": "E5",
                    "midi": 76,
                    "time": 471.2143642499945,
                    "velocity": 0.44881889763779526,
                    "duration": 0.21428574999998773
                },
                {
                    "name": "A5",
                    "midi": 81,
                    "time": 471.2143642499945,
                    "velocity": 0.44881889763779526,
                    "duration": 0.21428574999998773
                },
                {
                    "name": "C#6",
                    "midi": 85,
                    "time": 471.2143642499945,
                    "velocity": 0.5354330708661418,
                    "duration": 0.21428574999998773
                },
                {
                    "name": "C#5",
                    "midi": 73,
                    "time": 471.4286499999945,
                    "velocity": 0.5196850393700787,
                    "duration": 0.42857149999997546
                },
                {
                    "name": "E5",
                    "midi": 76,
                    "time": 471.4286499999945,
                    "velocity": 0.5196850393700787,
                    "duration": 0.42857149999997546
                },
                {
                    "name": "A5",
                    "midi": 81,
                    "time": 471.4286499999945,
                    "velocity": 0.5196850393700787,
                    "duration": 0.42857149999997546
                },
                {
                    "name": "C#6",
                    "midi": 85,
                    "time": 471.4286499999945,
                    "velocity": 0.6141732283464567,
                    "duration": 0.42857149999997546
                },
                {
                    "name": "C#5",
                    "midi": 73,
                    "time": 471.85722149999447,
                    "velocity": 0.47244094488188976,
                    "duration": 0.21428574999998773
                },
                {
                    "name": "E5",
                    "midi": 76,
                    "time": 471.85722149999447,
                    "velocity": 0.47244094488188976,
                    "duration": 0.21428574999998773
                },
                {
                    "name": "A5",
                    "midi": 81,
                    "time": 471.85722149999447,
                    "velocity": 0.47244094488188976,
                    "duration": 0.21428574999998773
                },
                {
                    "name": "C#6",
                    "midi": 85,
                    "time": 471.85722149999447,
                    "velocity": 0.5590551181102362,
                    "duration": 0.21428574999998773
                },
                {
                    "name": "A4",
                    "midi": 69,
                    "time": 472.07150724999445,
                    "velocity": 0.3937007874015748,
                    "duration": 0.20535717708332868
                },
                {
                    "name": "E4",
                    "midi": 64,
                    "time": 472.07150724999445,
                    "velocity": 0.3937007874015748,
                    "duration": 0.20535717708332868
                },
                {
                    "name": "C#5",
                    "midi": 73,
                    "time": 472.07150724999445,
                    "velocity": 0.3937007874015748,
                    "duration": 0.20535717708332868
                },
                {
                    "name": "E4",
                    "midi": 64,
                    "time": 472.28579299999444,
                    "velocity": 0.4409448818897638,
                    "duration": 0.38571435000000065
                },
                {
                    "name": "A4",
                    "midi": 69,
                    "time": 472.28579299999444,
                    "velocity": 0.4409448818897638,
                    "duration": 0.38571435000000065
                },
                {
                    "name": "C#5",
                    "midi": 73,
                    "time": 472.28579299999444,
                    "velocity": 0.4409448818897638,
                    "duration": 0.38571435000000065
                },
                {
                    "name": "E5",
                    "midi": 76,
                    "time": 472.28579299999444,
                    "velocity": 0.6141732283464567,
                    "duration": 0.38571435000000065
                },
                {
                    "name": "C#5",
                    "midi": 73,
                    "time": 472.7143644999944,
                    "velocity": 0.5118110236220472,
                    "duration": 0.38571435000000065
                },
                {
                    "name": "F#4",
                    "midi": 66,
                    "time": 472.7143644999944,
                    "velocity": 0.5118110236220472,
                    "duration": 0.38571435000000065
                },
                {
                    "name": "D#5",
                    "midi": 75,
                    "time": 472.7143644999944,
                    "velocity": 0.5118110236220472,
                    "duration": 0.38571435000000065
                },
                {
                    "name": "F#5",
                    "midi": 78,
                    "time": 472.7143644999944,
                    "velocity": 0.6062992125984252,
                    "duration": 0.38571435000000065
                },
                {
                    "name": "C#5",
                    "midi": 73,
                    "time": 473.1429359999944,
                    "velocity": 0.5590551181102362,
                    "duration": 0.21428574999998773
                },
                {
                    "name": "G#4",
                    "midi": 68,
                    "time": 473.1429359999944,
                    "velocity": 0.5590551181102362,
                    "duration": 0.19642860416666963
                },
                {
                    "name": "E5",
                    "midi": 76,
                    "time": 473.1429359999944,
                    "velocity": 0.5590551181102362,
                    "duration": 0.19642860416666963
                },
                {
                    "name": "G#5",
                    "midi": 80,
                    "time": 473.1429359999944,
                    "velocity": 0.6614173228346457,
                    "duration": 0.19642860416666963
                },
                {
                    "name": "G#6",
                    "midi": 92,
                    "time": 473.3572217499944,
                    "velocity": 0.6062992125984252,
                    "duration": 0.42857149999997546
                },
                {
                    "name": "E6",
                    "midi": 88,
                    "time": 473.3572217499944,
                    "velocity": 0.5118110236220472,
                    "duration": 0.42857149999997546
                },
                {
                    "name": "C#6",
                    "midi": 85,
                    "time": 473.3572217499944,
                    "velocity": 0.5118110236220472,
                    "duration": 0.42857149999997546
                },
                {
                    "name": "G#5",
                    "midi": 80,
                    "time": 473.3572217499944,
                    "velocity": 0.5118110236220472,
                    "duration": 0.42857149999997546
                },
                {
                    "name": "G#5",
                    "midi": 80,
                    "time": 473.78579324999436,
                    "velocity": 0.44881889763779526,
                    "duration": 0.21428574999998773
                },
                {
                    "name": "C#6",
                    "midi": 85,
                    "time": 473.78579324999436,
                    "velocity": 0.44881889763779526,
                    "duration": 0.21428574999998773
                },
                {
                    "name": "E6",
                    "midi": 88,
                    "time": 473.78579324999436,
                    "velocity": 0.44881889763779526,
                    "duration": 0.21428574999998773
                },
                {
                    "name": "G#6",
                    "midi": 92,
                    "time": 473.78579324999436,
                    "velocity": 0.5354330708661418,
                    "duration": 0.21428574999998773
                },
                {
                    "name": "G#5",
                    "midi": 80,
                    "time": 474.00007899999434,
                    "velocity": 0.5196850393700787,
                    "duration": 0.42857149999997546
                },
                {
                    "name": "C#6",
                    "midi": 85,
                    "time": 474.00007899999434,
                    "velocity": 0.5196850393700787,
                    "duration": 0.42857149999997546
                },
                {
                    "name": "E6",
                    "midi": 88,
                    "time": 474.00007899999434,
                    "velocity": 0.5196850393700787,
                    "duration": 0.42857149999997546
                },
                {
                    "name": "G#6",
                    "midi": 92,
                    "time": 474.00007899999434,
                    "velocity": 0.6141732283464567,
                    "duration": 0.42857149999997546
                },
                {
                    "name": "G#5",
                    "midi": 80,
                    "time": 474.4286504999943,
                    "velocity": 0.47244094488188976,
                    "duration": 0.21428574999998773
                },
                {
                    "name": "C#6",
                    "midi": 85,
                    "time": 474.4286504999943,
                    "velocity": 0.47244094488188976,
                    "duration": 0.21428574999998773
                },
                {
                    "name": "E6",
                    "midi": 88,
                    "time": 474.4286504999943,
                    "velocity": 0.47244094488188976,
                    "duration": 0.21428574999998773
                },
                {
                    "name": "G#6",
                    "midi": 92,
                    "time": 474.4286504999943,
                    "velocity": 0.5590551181102362,
                    "duration": 0.21428574999998773
                },
                {
                    "name": "G#4",
                    "midi": 68,
                    "time": 474.6429362499943,
                    "velocity": 0.4409448818897638,
                    "duration": 0.20535717708332868
                },
                {
                    "name": "E4",
                    "midi": 64,
                    "time": 474.6429362499943,
                    "velocity": 0.4409448818897638,
                    "duration": 0.20535717708332868
                },
                {
                    "name": "E5",
                    "midi": 76,
                    "time": 474.6429362499943,
                    "velocity": 0.5275590551181102,
                    "duration": 0.20535717708332868
                },
                {
                    "name": "F#4",
                    "midi": 66,
                    "time": 474.8572219999943,
                    "velocity": 0.4409448818897638,
                    "duration": 0.38571435000000065
                },
                {
                    "name": "G#4",
                    "midi": 68,
                    "time": 474.8572219999943,
                    "velocity": 0.4409448818897638,
                    "duration": 0.38571435000000065
                },
                {
                    "name": "D#5",
                    "midi": 75,
                    "time": 474.8572219999943,
                    "velocity": 0.6141732283464567,
                    "duration": 0.38571435000000065
                },
                {
                    "name": "F#4",
                    "midi": 66,
                    "time": 475.28579349999427,
                    "velocity": 0.4881889763779528,
                    "duration": 0.38571435000000065
                },
                {
                    "name": "G#4",
                    "midi": 68,
                    "time": 475.28579349999427,
                    "velocity": 0.5905511811023622,
                    "duration": 0.38571435000000065
                },
                {
                    "name": "E4",
                    "midi": 64,
                    "time": 475.71436499999425,
                    "velocity": 0.49606299212598426,
                    "duration": 0.19642860416666963
                },
                {
                    "name": "G#4",
                    "midi": 68,
                    "time": 475.71436499999425,
                    "velocity": 0.49606299212598426,
                    "duration": 0.19642860416666963
                },
                {
                    "name": "C#5",
                    "midi": 73,
                    "time": 475.71436499999425,
                    "velocity": 0.5905511811023622,
                    "duration": 0.19642860416666963
                },
                {
                    "name": "C#6",
                    "midi": 85,
                    "time": 475.92865074999423,
                    "velocity": 0.5433070866141733,
                    "duration": 0.42857149999997546
                },
                {
                    "name": "G#5",
                    "midi": 80,
                    "time": 475.92865074999423,
                    "velocity": 0.4566929133858268,
                    "duration": 0.42857149999997546
                },
                {
                    "name": "E5",
                    "midi": 76,
                    "time": 475.92865074999423,
                    "velocity": 0.4566929133858268,
                    "duration": 0.42857149999997546
                },
                {
                    "name": "C#5",
                    "midi": 73,
                    "time": 475.92865074999423,
                    "velocity": 0.4566929133858268,
                    "duration": 0.42857149999997546
                },
                {
                    "name": "C#5",
                    "midi": 73,
                    "time": 476.3572222499942,
                    "velocity": 0.4015748031496063,
                    "duration": 0.21428574999998773
                },
                {
                    "name": "E5",
                    "midi": 76,
                    "time": 476.3572222499942,
                    "velocity": 0.4015748031496063,
                    "duration": 0.21428574999998773
                },
                {
                    "name": "G#5",
                    "midi": 80,
                    "time": 476.3572222499942,
                    "velocity": 0.4015748031496063,
                    "duration": 0.21428574999998773
                },
                {
                    "name": "C#6",
                    "midi": 85,
                    "time": 476.3572222499942,
                    "velocity": 0.48031496062992124,
                    "duration": 0.21428574999998773
                },
                {
                    "name": "C#5",
                    "midi": 73,
                    "time": 476.5715079999942,
                    "velocity": 0.4645669291338583,
                    "duration": 0.42857149999997546
                },
                {
                    "name": "E5",
                    "midi": 76,
                    "time": 476.5715079999942,
                    "velocity": 0.4645669291338583,
                    "duration": 0.42857149999997546
                },
                {
                    "name": "G#5",
                    "midi": 80,
                    "time": 476.5715079999942,
                    "velocity": 0.4645669291338583,
                    "duration": 0.42857149999997546
                },
                {
                    "name": "C#6",
                    "midi": 85,
                    "time": 476.5715079999942,
                    "velocity": 0.5511811023622047,
                    "duration": 0.42857149999997546
                },
                {
                    "name": "C#5",
                    "midi": 73,
                    "time": 477.0000794999942,
                    "velocity": 0.41732283464566927,
                    "duration": 0.21428574999998773
                },
                {
                    "name": "E5",
                    "midi": 76,
                    "time": 477.0000794999942,
                    "velocity": 0.41732283464566927,
                    "duration": 0.21428574999998773
                },
                {
                    "name": "G#5",
                    "midi": 80,
                    "time": 477.0000794999942,
                    "velocity": 0.41732283464566927,
                    "duration": 0.21428574999998773
                },
                {
                    "name": "C#6",
                    "midi": 85,
                    "time": 477.0000794999942,
                    "velocity": 0.49606299212598426,
                    "duration": 0.21428574999998773
                },
                {
                    "name": "E4",
                    "midi": 64,
                    "time": 477.21436524999416,
                    "velocity": 0.30708661417322836,
                    "duration": 0.20535717708332868
                },
                {
                    "name": "C#4",
                    "midi": 61,
                    "time": 477.21436524999416,
                    "velocity": 0.30708661417322836,
                    "duration": 0.20535717708332868
                },
                {
                    "name": "C#5",
                    "midi": 73,
                    "time": 477.21436524999416,
                    "velocity": 0.36220472440944884,
                    "duration": 0.20535717708332868
                },
                {
                    "name": "D4",
                    "midi": 62,
                    "time": 477.42865099999415,
                    "velocity": 0.30708661417322836,
                    "duration": 0.38571435000000065
                },
                {
                    "name": "E4",
                    "midi": 64,
                    "time": 477.42865099999415,
                    "velocity": 0.30708661417322836,
                    "duration": 0.38571435000000065
                },
                {
                    "name": "B4",
                    "midi": 71,
                    "time": 477.42865099999415,
                    "velocity": 0.4251968503937008,
                    "duration": 0.38571435000000065
                },
                {
                    "name": "D4",
                    "midi": 62,
                    "time": 477.8572224999941,
                    "velocity": 0.3543307086614173,
                    "duration": 0.38571435000000065
                },
                {
                    "name": "E4",
                    "midi": 64,
                    "time": 477.8572224999941,
                    "velocity": 0.41732283464566927,
                    "duration": 0.38571435000000065
                },
                {
                    "name": "C#4",
                    "midi": 61,
                    "time": 478.2857939999941,
                    "velocity": 0.3858267716535433,
                    "duration": 0.19642860416666963
                },
                {
                    "name": "A4",
                    "midi": 69,
                    "time": 478.2857939999941,
                    "velocity": 0.4566929133858268,
                    "duration": 0.19642860416666963
                },
                {
                    "name": "A5",
                    "midi": 81,
                    "time": 478.5000797499941,
                    "velocity": 0.41732283464566927,
                    "duration": 0.42857149999997546
                },
                {
                    "name": "F#5",
                    "midi": 78,
                    "time": 478.5000797499941,
                    "velocity": 0.41732283464566927,
                    "duration": 0.42857149999997546
                },
                {
                    "name": "C#5",
                    "midi": 73,
                    "time": 478.5000797499941,
                    "velocity": 0.3543307086614173,
                    "duration": 0.42857149999997546
                },
                {
                    "name": "A4",
                    "midi": 69,
                    "time": 478.5000797499941,
                    "velocity": 0.3543307086614173,
                    "duration": 0.42857149999997546
                },
                {
                    "name": "A4",
                    "midi": 69,
                    "time": 478.92865124999406,
                    "velocity": 0.30708661417322836,
                    "duration": 0.21428574999998773
                },
                {
                    "name": "C#5",
                    "midi": 73,
                    "time": 478.92865124999406,
                    "velocity": 0.30708661417322836,
                    "duration": 0.21428574999998773
                },
                {
                    "name": "F#5",
                    "midi": 78,
                    "time": 478.92865124999406,
                    "velocity": 0.3700787401574803,
                    "duration": 0.21428574999998773
                },
                {
                    "name": "A5",
                    "midi": 81,
                    "time": 478.92865124999406,
                    "velocity": 0.3700787401574803,
                    "duration": 0.21428574999998773
                },
                {
                    "name": "A4",
                    "midi": 69,
                    "time": 479.14293699999405,
                    "velocity": 0.3543307086614173,
                    "duration": 0.42857149999997546
                },
                {
                    "name": "C#5",
                    "midi": 73,
                    "time": 479.14293699999405,
                    "velocity": 0.3543307086614173,
                    "duration": 0.42857149999997546
                },
                {
                    "name": "F#5",
                    "midi": 78,
                    "time": 479.14293699999405,
                    "velocity": 0.4251968503937008,
                    "duration": 0.42857149999997546
                },
                {
                    "name": "A5",
                    "midi": 81,
                    "time": 479.14293699999405,
                    "velocity": 0.4251968503937008,
                    "duration": 0.42857149999997546
                },
                {
                    "name": "A4",
                    "midi": 69,
                    "time": 479.571508499994,
                    "velocity": 0.3228346456692913,
                    "duration": 0.21428574999998773
                },
                {
                    "name": "C#5",
                    "midi": 73,
                    "time": 479.571508499994,
                    "velocity": 0.3228346456692913,
                    "duration": 0.21428574999998773
                },
                {
                    "name": "F#5",
                    "midi": 78,
                    "time": 479.571508499994,
                    "velocity": 0.3858267716535433,
                    "duration": 0.21428574999998773
                },
                {
                    "name": "A5",
                    "midi": 81,
                    "time": 479.571508499994,
                    "velocity": 0.3858267716535433,
                    "duration": 0.21428574999998773
                },
                {
                    "name": "G#4",
                    "midi": 68,
                    "time": 479.785794249994,
                    "velocity": 0.4409448818897638,
                    "duration": 0.20535717708332868
                },
                {
                    "name": "C#4",
                    "midi": 61,
                    "time": 479.785794249994,
                    "velocity": 0.4409448818897638,
                    "duration": 0.20535717708332868
                },
                {
                    "name": "A#4",
                    "midi": 70,
                    "time": 479.785794249994,
                    "velocity": 0.5275590551181102,
                    "duration": 0.20535717708332868
                },
                {
                    "name": "D4",
                    "midi": 62,
                    "time": 480.000079999994,
                    "velocity": 0.4409448818897638,
                    "duration": 0.38571435000000065
                },
                {
                    "name": "G#4",
                    "midi": 68,
                    "time": 480.000079999994,
                    "velocity": 0.4409448818897638,
                    "duration": 0.38571435000000065
                },
                {
                    "name": "B4",
                    "midi": 71,
                    "time": 480.000079999994,
                    "velocity": 0.6299212598425197,
                    "duration": 0.38571435000000065
                },
                {
                    "name": "G#4",
                    "midi": 68,
                    "time": 480.428651499994,
                    "velocity": 0.5511811023622047,
                    "duration": 0.38571435000000065
                },
                {
                    "name": "E4",
                    "midi": 64,
                    "time": 480.428651499994,
                    "velocity": 0.5511811023622047,
                    "duration": 0.38571435000000065
                },
                {
                    "name": "A#4",
                    "midi": 70,
                    "time": 480.428651499994,
                    "velocity": 0.5511811023622047,
                    "duration": 0.38571435000000065
                },
                {
                    "name": "C#5",
                    "midi": 73,
                    "time": 480.428651499994,
                    "velocity": 0.6535433070866141,
                    "duration": 0.38571435000000065
                },
                {
                    "name": "G4",
                    "midi": 67,
                    "time": 480.85722299999395,
                    "velocity": 0.6692913385826772,
                    "duration": 0.21428574999998773
                },
                {
                    "name": "D4",
                    "midi": 62,
                    "time": 480.85722299999395,
                    "velocity": 0.6692913385826772,
                    "duration": 0.19642860416666963
                },
                {
                    "name": "B4",
                    "midi": 71,
                    "time": 480.85722299999395,
                    "velocity": 0.6692913385826772,
                    "duration": 0.19642860416666963
                },
                {
                    "name": "D5",
                    "midi": 74,
                    "time": 480.85722299999395,
                    "velocity": 0.7874015748031497,
                    "duration": 0.19642860416666963
                },
                {
                    "name": "D6",
                    "midi": 86,
                    "time": 481.07150874999394,
                    "velocity": 0.7952755905511811,
                    "duration": 0.42857149999997546
                },
                {
                    "name": "B5",
                    "midi": 83,
                    "time": 481.07150874999394,
                    "velocity": 0.6692913385826772,
                    "duration": 0.42857149999997546
                },
                {
                    "name": "G5",
                    "midi": 79,
                    "time": 481.07150874999394,
                    "velocity": 0.6692913385826772,
                    "duration": 0.42857149999997546
                },
                {
                    "name": "D5",
                    "midi": 74,
                    "time": 481.07150874999394,
                    "velocity": 0.6692913385826772,
                    "duration": 0.42857149999997546
                },
                {
                    "name": "D5",
                    "midi": 74,
                    "time": 481.5000802499939,
                    "velocity": 0.5826771653543307,
                    "duration": 0.21428574999998773
                },
                {
                    "name": "G5",
                    "midi": 79,
                    "time": 481.5000802499939,
                    "velocity": 0.5826771653543307,
                    "duration": 0.21428574999998773
                },
                {
                    "name": "B5",
                    "midi": 83,
                    "time": 481.5000802499939,
                    "velocity": 0.5826771653543307,
                    "duration": 0.21428574999998773
                },
                {
                    "name": "D6",
                    "midi": 86,
                    "time": 481.5000802499939,
                    "velocity": 0.7007874015748031,
                    "duration": 0.21428574999998773
                },
                {
                    "name": "D5",
                    "midi": 74,
                    "time": 481.7143659999939,
                    "velocity": 0.6771653543307087,
                    "duration": 0.42857149999997546
                },
                {
                    "name": "G5",
                    "midi": 79,
                    "time": 481.7143659999939,
                    "velocity": 0.6771653543307087,
                    "duration": 0.42857149999997546
                },
                {
                    "name": "B5",
                    "midi": 83,
                    "time": 481.7143659999939,
                    "velocity": 0.6771653543307087,
                    "duration": 0.42857149999997546
                },
                {
                    "name": "D6",
                    "midi": 86,
                    "time": 481.7143659999939,
                    "velocity": 0.8031496062992126,
                    "duration": 0.42857149999997546
                },
                {
                    "name": "D5",
                    "midi": 74,
                    "time": 482.1429374999939,
                    "velocity": 0.6220472440944882,
                    "duration": 0.6250001041666451
                },
                {
                    "name": "G5",
                    "midi": 79,
                    "time": 482.1429374999939,
                    "velocity": 0.6220472440944882,
                    "duration": 0.6250001041666451
                },
                {
                    "name": "B5",
                    "midi": 83,
                    "time": 482.1429374999939,
                    "velocity": 0.6220472440944882,
                    "duration": 0.6250001041666451
                },
                {
                    "name": "D6",
                    "midi": 86,
                    "time": 482.1429374999939,
                    "velocity": 0.7322834645669292,
                    "duration": 0.6250001041666451
                },
                {
                    "name": "D5",
                    "midi": 74,
                    "time": 482.78579474999384,
                    "velocity": 0.3937007874015748,
                    "duration": 0.42857149999997546
                },
                {
                    "name": "F#4",
                    "midi": 66,
                    "time": 482.78579474999384,
                    "velocity": 0.33070866141732286,
                    "duration": 0.42857149999997546
                },
                {
                    "name": "D4",
                    "midi": 62,
                    "time": 482.78579474999384,
                    "velocity": 0.33070866141732286,
                    "duration": 0.42857149999997546
                },
                {
                    "name": "A4",
                    "midi": 69,
                    "time": 482.7965090374938,
                    "velocity": 0.33070866141732286,
                    "duration": 0.42857149999997546
                },
                {
                    "name": "D4",
                    "midi": 62,
                    "time": 483.2143662499938,
                    "velocity": 0.29133858267716534,
                    "duration": 0.21428574999998773
                },
                {
                    "name": "F#4",
                    "midi": 66,
                    "time": 483.2143662499938,
                    "velocity": 0.29133858267716534,
                    "duration": 0.21428574999998773
                },
                {
                    "name": "A4",
                    "midi": 69,
                    "time": 483.2143662499938,
                    "velocity": 0.29133858267716534,
                    "duration": 0.21428574999998773
                },
                {
                    "name": "D5",
                    "midi": 74,
                    "time": 483.2143662499938,
                    "velocity": 0.3464566929133858,
                    "duration": 0.21428574999998773
                },
                {
                    "name": "D4",
                    "midi": 62,
                    "time": 483.4286519999938,
                    "velocity": 0.33858267716535434,
                    "duration": 0.42857149999997546
                },
                {
                    "name": "F#4",
                    "midi": 66,
                    "time": 483.4286519999938,
                    "velocity": 0.33858267716535434,
                    "duration": 0.42857149999997546
                },
                {
                    "name": "A4",
                    "midi": 69,
                    "time": 483.4286519999938,
                    "velocity": 0.33858267716535434,
                    "duration": 0.42857149999997546
                },
                {
                    "name": "D5",
                    "midi": 74,
                    "time": 483.4286519999938,
                    "velocity": 0.4015748031496063,
                    "duration": 0.42857149999997546
                },
                {
                    "name": "A4",
                    "midi": 69,
                    "time": 483.8572234999938,
                    "velocity": 0.30708661417322836,
                    "duration": 0.6250001041666451
                },
                {
                    "name": "D4",
                    "midi": 62,
                    "time": 483.8572234999938,
                    "velocity": 0.30708661417322836,
                    "duration": 0.6250001041666451
                },
                {
                    "name": "F#4",
                    "midi": 66,
                    "time": 483.8572234999938,
                    "velocity": 0.30708661417322836,
                    "duration": 0.6250001041666451
                },
                {
                    "name": "D5",
                    "midi": 74,
                    "time": 483.8572234999938,
                    "velocity": 0.36220472440944884,
                    "duration": 0.6250001041666451
                },
                {
                    "name": "D6",
                    "midi": 86,
                    "time": 484.50008074999374,
                    "velocity": 0.7952755905511811,
                    "duration": 0.42857149999997546
                },
                {
                    "name": "B5",
                    "midi": 83,
                    "time": 484.50008074999374,
                    "velocity": 0.6692913385826772,
                    "duration": 0.42857149999997546
                },
                {
                    "name": "G5",
                    "midi": 79,
                    "time": 484.50008074999374,
                    "velocity": 0.6692913385826772,
                    "duration": 0.42857149999997546
                },
                {
                    "name": "D5",
                    "midi": 74,
                    "time": 484.50008074999374,
                    "velocity": 0.6692913385826772,
                    "duration": 0.42857149999997546
                },
                {
                    "name": "D5",
                    "midi": 74,
                    "time": 484.9286522499937,
                    "velocity": 0.5826771653543307,
                    "duration": 0.21428574999998773
                },
                {
                    "name": "G5",
                    "midi": 79,
                    "time": 484.9286522499937,
                    "velocity": 0.5826771653543307,
                    "duration": 0.21428574999998773
                },
                {
                    "name": "B5",
                    "midi": 83,
                    "time": 484.9286522499937,
                    "velocity": 0.5826771653543307,
                    "duration": 0.21428574999998773
                },
                {
                    "name": "D6",
                    "midi": 86,
                    "time": 484.9286522499937,
                    "velocity": 0.7007874015748031,
                    "duration": 0.21428574999998773
                },
                {
                    "name": "D5",
                    "midi": 74,
                    "time": 485.1429379999937,
                    "velocity": 0.6771653543307087,
                    "duration": 0.42857149999997546
                },
                {
                    "name": "G5",
                    "midi": 79,
                    "time": 485.1429379999937,
                    "velocity": 0.6771653543307087,
                    "duration": 0.42857149999997546
                },
                {
                    "name": "B5",
                    "midi": 83,
                    "time": 485.1429379999937,
                    "velocity": 0.6771653543307087,
                    "duration": 0.42857149999997546
                },
                {
                    "name": "D6",
                    "midi": 86,
                    "time": 485.1429379999937,
                    "velocity": 0.8031496062992126,
                    "duration": 0.42857149999997546
                },
                {
                    "name": "D5",
                    "midi": 74,
                    "time": 485.5715094999937,
                    "velocity": 0.6220472440944882,
                    "duration": 0.6250001041666451
                },
                {
                    "name": "G5",
                    "midi": 79,
                    "time": 485.5715094999937,
                    "velocity": 0.6220472440944882,
                    "duration": 0.6250001041666451
                },
                {
                    "name": "B5",
                    "midi": 83,
                    "time": 485.5715094999937,
                    "velocity": 0.6220472440944882,
                    "duration": 0.6250001041666451
                },
                {
                    "name": "D6",
                    "midi": 86,
                    "time": 485.5715094999937,
                    "velocity": 0.7322834645669292,
                    "duration": 0.6250001041666451
                },
                {
                    "name": "D5",
                    "midi": 74,
                    "time": 486.21436674999364,
                    "velocity": 0.3937007874015748,
                    "duration": 0.42857149999997546
                },
                {
                    "name": "F#4",
                    "midi": 66,
                    "time": 486.21436674999364,
                    "velocity": 0.33070866141732286,
                    "duration": 0.42857149999997546
                },
                {
                    "name": "D4",
                    "midi": 62,
                    "time": 486.21436674999364,
                    "velocity": 0.33070866141732286,
                    "duration": 0.42857149999997546
                },
                {
                    "name": "A4",
                    "midi": 69,
                    "time": 486.2250810374936,
                    "velocity": 0.33070866141732286,
                    "duration": 0.42857149999997546
                },
                {
                    "name": "D4",
                    "midi": 62,
                    "time": 486.6429382499936,
                    "velocity": 0.29133858267716534,
                    "duration": 0.21428574999998773
                },
                {
                    "name": "F#4",
                    "midi": 66,
                    "time": 486.6429382499936,
                    "velocity": 0.29133858267716534,
                    "duration": 0.21428574999998773
                },
                {
                    "name": "A4",
                    "midi": 69,
                    "time": 486.6429382499936,
                    "velocity": 0.29133858267716534,
                    "duration": 0.21428574999998773
                },
                {
                    "name": "D5",
                    "midi": 74,
                    "time": 486.6429382499936,
                    "velocity": 0.3464566929133858,
                    "duration": 0.21428574999998773
                },
                {
                    "name": "D4",
                    "midi": 62,
                    "time": 486.8572239999936,
                    "velocity": 0.33858267716535434,
                    "duration": 0.42857149999997546
                },
                {
                    "name": "F#4",
                    "midi": 66,
                    "time": 486.8572239999936,
                    "velocity": 0.33858267716535434,
                    "duration": 0.42857149999997546
                },
                {
                    "name": "A4",
                    "midi": 69,
                    "time": 486.8572239999936,
                    "velocity": 0.33858267716535434,
                    "duration": 0.42857149999997546
                },
                {
                    "name": "D5",
                    "midi": 74,
                    "time": 486.8572239999936,
                    "velocity": 0.4015748031496063,
                    "duration": 0.42857149999997546
                },
                {
                    "name": "A4",
                    "midi": 69,
                    "time": 487.2857954999936,
                    "velocity": 0.30708661417322836,
                    "duration": 0.6250001041666451
                },
                {
                    "name": "D4",
                    "midi": 62,
                    "time": 487.2857954999936,
                    "velocity": 0.30708661417322836,
                    "duration": 0.6250001041666451
                },
                {
                    "name": "F#4",
                    "midi": 66,
                    "time": 487.2857954999936,
                    "velocity": 0.30708661417322836,
                    "duration": 0.6250001041666451
                },
                {
                    "name": "D5",
                    "midi": 74,
                    "time": 487.2857954999936,
                    "velocity": 0.36220472440944884,
                    "duration": 0.6250001041666451
                },
                {
                    "name": "D6",
                    "midi": 86,
                    "time": 487.92865274999355,
                    "velocity": 0.7952755905511811,
                    "duration": 0.4071429250000165
                },
                {
                    "name": "B5",
                    "midi": 83,
                    "time": 487.92865274999355,
                    "velocity": 0.5669291338582677,
                    "duration": 0.4071429250000165
                },
                {
                    "name": "G5",
                    "midi": 79,
                    "time": 487.92865274999355,
                    "velocity": 0.5669291338582677,
                    "duration": 0.4071429250000165
                },
                {
                    "name": "D5",
                    "midi": 74,
                    "time": 487.92865274999355,
                    "velocity": 0.5669291338582677,
                    "duration": 0.4071429250000165
                },
                {
                    "name": "D5",
                    "midi": 74,
                    "time": 488.3572242499936,
                    "velocity": 0.4881889763779528,
                    "duration": 0.20357146250000824
                },
                {
                    "name": "G5",
                    "midi": 79,
                    "time": 488.3572242499936,
                    "velocity": 0.4881889763779528,
                    "duration": 0.20357146250000824
                },
                {
                    "name": "B5",
                    "midi": 83,
                    "time": 488.3572242499936,
                    "velocity": 0.4881889763779528,
                    "duration": 0.20357146250000824
                },
                {
                    "name": "D6",
                    "midi": 86,
                    "time": 488.3572242499936,
                    "velocity": 0.7007874015748031,
                    "duration": 0.20357146250000824
                },
                {
                    "name": "D5",
                    "midi": 74,
                    "time": 488.57150999999357,
                    "velocity": 0.6141732283464567,
                    "duration": 0.21428574999998773
                },
                {
                    "name": "G5",
                    "midi": 79,
                    "time": 488.57150999999357,
                    "velocity": 0.6141732283464567,
                    "duration": 0.21428574999998773
                },
                {
                    "name": "B5",
                    "midi": 83,
                    "time": 488.57150999999357,
                    "velocity": 0.6141732283464567,
                    "duration": 0.21428574999998773
                },
                {
                    "name": "D6",
                    "midi": 86,
                    "time": 488.57150999999357,
                    "velocity": 0.7244094488188977,
                    "duration": 0.21428574999998773
                },
                {
                    "name": "D5",
                    "midi": 74,
                    "time": 489.00008149999354,
                    "velocity": 0.5826771653543307,
                    "duration": 0.21428574999998773
                },
                {
                    "name": "G5",
                    "midi": 79,
                    "time": 489.00008149999354,
                    "velocity": 0.5826771653543307,
                    "duration": 0.21428574999998773
                },
                {
                    "name": "B5",
                    "midi": 83,
                    "time": 489.00008149999354,
                    "velocity": 0.6929133858267716,
                    "duration": 0.21428574999998773
                },
                {
                    "name": "B4",
                    "midi": 71,
                    "time": 489.4286529999935,
                    "velocity": 0.5669291338582677,
                    "duration": 0.21428574999998773
                },
                {
                    "name": "D5",
                    "midi": 74,
                    "time": 489.4286529999935,
                    "velocity": 0.5669291338582677,
                    "duration": 0.21428574999998773
                },
                {
                    "name": "G5",
                    "midi": 79,
                    "time": 489.4286529999935,
                    "velocity": 0.6692913385826772,
                    "duration": 0.21428574999998773
                },
                {
                    "name": "G4",
                    "midi": 67,
                    "time": 489.8572244999935,
                    "velocity": 0.5433070866141733,
                    "duration": 0.21428574999998773
                },
                {
                    "name": "B4",
                    "midi": 71,
                    "time": 489.8572244999935,
                    "velocity": 0.5433070866141733,
                    "duration": 0.21428574999998773
                },
                {
                    "name": "D5",
                    "midi": 74,
                    "time": 489.8572244999935,
                    "velocity": 0.6456692913385826,
                    "duration": 0.21428574999998773
                },
                {
                    "name": "D4",
                    "midi": 62,
                    "time": 490.28579599999347,
                    "velocity": 0.5275590551181102,
                    "duration": 0.21428574999998773
                },
                {
                    "name": "G4",
                    "midi": 67,
                    "time": 490.28579599999347,
                    "velocity": 0.5275590551181102,
                    "duration": 0.21428574999998773
                },
                {
                    "name": "B4",
                    "midi": 71,
                    "time": 490.28579599999347,
                    "velocity": 0.6220472440944882,
                    "duration": 0.21428574999998773
                },
                {
                    "name": "B3",
                    "midi": 59,
                    "time": 490.71436749999344,
                    "velocity": 0.5039370078740157,
                    "duration": 0.21428574999998773
                },
                {
                    "name": "D4",
                    "midi": 62,
                    "time": 490.71436749999344,
                    "velocity": 0.5039370078740157,
                    "duration": 0.21428574999998773
                },
                {
                    "name": "G4",
                    "midi": 67,
                    "time": 490.71436749999344,
                    "velocity": 0.5984251968503937,
                    "duration": 0.21428574999998773
                },
                {
                    "name": "G3",
                    "midi": 55,
                    "time": 491.1429389999934,
                    "velocity": 0.6299212598425197,
                    "duration": 2.5714290000000233
                },
                {
                    "name": "D4",
                    "midi": 62,
                    "time": 491.1429389999934,
                    "velocity": 0.6299212598425197,
                    "duration": 2.5714290000000233
                },
                {
                    "name": "F4",
                    "midi": 65,
                    "time": 491.1429389999934,
                    "velocity": 0.7480314960629921,
                    "duration": 2.5714290000000233
                },
                {
                    "name": "G3",
                    "midi": 55,
                    "time": 493.71436799999344,
                    "velocity": 0.5905511811023622,
                    "duration": 2.5714290000000233
                },
                {
                    "name": "D4",
                    "midi": 62,
                    "time": 493.71436799999344,
                    "velocity": 0.5905511811023622,
                    "duration": 2.5714290000000233
                },
                {
                    "name": "F4",
                    "midi": 65,
                    "time": 493.71436799999344,
                    "velocity": 0.7007874015748031,
                    "duration": 2.5714290000000233
                },
                {
                    "name": "G#3",
                    "midi": 56,
                    "time": 496.28579699999347,
                    "velocity": 0.30708661417322836,
                    "duration": 1.7142860000000724
                },
                {
                    "name": "D4",
                    "midi": 62,
                    "time": 496.28579699999347,
                    "velocity": 0.3700787401574803,
                    "duration": 1.7142860000000724
                },
                {
                    "name": "E4",
                    "midi": 64,
                    "time": 496.28579699999347,
                    "velocity": 0.3700787401574803,
                    "duration": 1.3839288020833465
                },
                {
                    "name": "E4",
                    "midi": 64,
                    "time": 497.67865437499347,
                    "velocity": 0.33070866141732286,
                    "duration": 0.10714287500002229
                },
                {
                    "name": "F#4",
                    "midi": 66,
                    "time": 497.7857972499935,
                    "velocity": 0.33070866141732286,
                    "duration": 0.10714287500002229
                },
                {
                    "name": "G#4",
                    "midi": 68,
                    "time": 497.8929401249935,
                    "velocity": 0.33070866141732286,
                    "duration": 0.10714287500002229
                },
                {
                    "name": "F#4",
                    "midi": 66,
                    "time": 498.00008299999354,
                    "velocity": 0.3858267716535433,
                    "duration": 0.64285725000002
                },
                {
                    "name": "E4",
                    "midi": 64,
                    "time": 498.64294024999356,
                    "velocity": 0.3779527559055118,
                    "duration": 0.19642860416666963
                },
                {
                    "name": "G#3",
                    "midi": 56,
                    "time": 498.85722599999355,
                    "velocity": 0.30708661417322836,
                    "duration": 1.7142860000000724
                },
                {
                    "name": "D4",
                    "midi": 62,
                    "time": 498.85722599999355,
                    "velocity": 0.3700787401574803,
                    "duration": 1.7142860000000724
                },
                {
                    "name": "E4",
                    "midi": 64,
                    "time": 498.85722599999355,
                    "velocity": 0.3700787401574803,
                    "duration": 1.3839288020833465
                },
                {
                    "name": "E4",
                    "midi": 64,
                    "time": 500.25008337499355,
                    "velocity": 0.33070866141732286,
                    "duration": 0.10714287500002229
                },
                {
                    "name": "F#4",
                    "midi": 66,
                    "time": 500.3572262499936,
                    "velocity": 0.33070866141732286,
                    "duration": 0.10714287500002229
                },
                {
                    "name": "G#4",
                    "midi": 68,
                    "time": 500.4643691249936,
                    "velocity": 0.33070866141732286,
                    "duration": 0.10714287500002229
                },
                {
                    "name": "F#4",
                    "midi": 66,
                    "time": 500.5715119999936,
                    "velocity": 0.3858267716535433,
                    "duration": 0.64285725000002
                },
                {
                    "name": "E4",
                    "midi": 64,
                    "time": 501.21436924999364,
                    "velocity": 0.33070866141732286,
                    "duration": 0.19642860416666963
                },
                {
                    "name": "C#4",
                    "midi": 61,
                    "time": 501.4286549999936,
                    "velocity": 0.31496062992125984,
                    "duration": 0.42857149999997546
                },
                {
                    "name": "E4",
                    "midi": 64,
                    "time": 501.4286549999936,
                    "velocity": 0.3779527559055118,
                    "duration": 0.21428574999998773
                },
                {
                    "name": "A4",
                    "midi": 69,
                    "time": 501.6429407499936,
                    "velocity": 0.33070866141732286,
                    "duration": 0.21428574999998773
                },
                {
                    "name": "D#4",
                    "midi": 63,
                    "time": 501.8572264999936,
                    "velocity": 0.31496062992125984,
                    "duration": 0.42857149999997546
                },
                {
                    "name": "G#4",
                    "midi": 68,
                    "time": 501.8572264999936,
                    "velocity": 0.3779527559055118,
                    "duration": 0.21428574999998773
                },
                {
                    "name": "A4",
                    "midi": 69,
                    "time": 502.0715122499936,
                    "velocity": 0.33858267716535434,
                    "duration": 0.21428574999998773
                },
                {
                    "name": "E4",
                    "midi": 64,
                    "time": 502.2857979999936,
                    "velocity": 0.31496062992125984,
                    "duration": 0.8571430000000078
                },
                {
                    "name": "A4",
                    "midi": 69,
                    "time": 502.2857979999936,
                    "velocity": 0.31496062992125984,
                    "duration": 0.8571430000000078
                },
                {
                    "name": "C#5",
                    "midi": 73,
                    "time": 502.2857979999936,
                    "velocity": 0.3779527559055118,
                    "duration": 0.8571430000000078
                },
                {
                    "name": "D4",
                    "midi": 62,
                    "time": 503.1429409999936,
                    "velocity": 0.2992125984251969,
                    "duration": 0.8571430000000078
                },
                {
                    "name": "E4",
                    "midi": 64,
                    "time": 503.1429409999936,
                    "velocity": 0.2992125984251969,
                    "duration": 0.8571430000000078
                },
                {
                    "name": "G#4",
                    "midi": 68,
                    "time": 503.1429409999936,
                    "velocity": 0.2992125984251969,
                    "duration": 0.8571430000000078
                },
                {
                    "name": "C#5",
                    "midi": 73,
                    "time": 503.1429409999936,
                    "velocity": 0.3543307086614173,
                    "duration": 0.64285725000002
                },
                {
                    "name": "B4",
                    "midi": 71,
                    "time": 503.7857982499936,
                    "velocity": 0.3228346456692913,
                    "duration": 0.21428574999998773
                },
                {
                    "name": "C#4",
                    "midi": 61,
                    "time": 504.0000839999936,
                    "velocity": 0.2440944881889764,
                    "duration": 0.21428574999998773
                },
                {
                    "name": "E4",
                    "midi": 64,
                    "time": 504.0000839999936,
                    "velocity": 0.2440944881889764,
                    "duration": 0.21428574999998773
                },
                {
                    "name": "A4",
                    "midi": 69,
                    "time": 504.0000839999936,
                    "velocity": 0.29133858267716534,
                    "duration": 0.21428574999998773
                },
                {
                    "name": "A3",
                    "midi": 57,
                    "time": 504.2143697499936,
                    "velocity": 0.2677165354330709,
                    "duration": 0.32142862500001
                },
                {
                    "name": "C#4",
                    "midi": 61,
                    "time": 504.2143697499936,
                    "velocity": 0.2677165354330709,
                    "duration": 0.32142862500001
                },
                {
                    "name": "E4",
                    "midi": 64,
                    "time": 504.2143697499936,
                    "velocity": 0.2677165354330709,
                    "duration": 0.32142862500001
                },
                {
                    "name": "A4",
                    "midi": 69,
                    "time": 504.2143697499936,
                    "velocity": 0.3228346456692913,
                    "duration": 0.32142862500001
                },
                {
                    "name": "A3",
                    "midi": 57,
                    "time": 504.6429412499936,
                    "velocity": 0.2125984251968504,
                    "duration": 0.16071431249997659
                },
                {
                    "name": "C#4",
                    "midi": 61,
                    "time": 504.6429412499936,
                    "velocity": 0.2125984251968504,
                    "duration": 0.16071431249997659
                },
                {
                    "name": "E4",
                    "midi": 64,
                    "time": 504.6429412499936,
                    "velocity": 0.2125984251968504,
                    "duration": 0.16071431249997659
                },
                {
                    "name": "A4",
                    "midi": 69,
                    "time": 504.6429412499936,
                    "velocity": 0.25196850393700787,
                    "duration": 0.16071431249997659
                },
                {
                    "name": "A3",
                    "midi": 57,
                    "time": 504.8572269999936,
                    "velocity": 0.2283464566929134,
                    "duration": 0.32142862500001
                },
                {
                    "name": "C#4",
                    "midi": 61,
                    "time": 504.8572269999936,
                    "velocity": 0.2283464566929134,
                    "duration": 0.32142862500001
                },
                {
                    "name": "E4",
                    "midi": 64,
                    "time": 504.8572269999936,
                    "velocity": 0.2283464566929134,
                    "duration": 0.32142862500001
                },
                {
                    "name": "A4",
                    "midi": 69,
                    "time": 504.8572269999936,
                    "velocity": 0.2755905511811024,
                    "duration": 0.32142862500001
                },
                {
                    "name": "A3",
                    "midi": 57,
                    "time": 505.28579849999363,
                    "velocity": 0.2125984251968504,
                    "duration": 0.32142862500001
                },
                {
                    "name": "C#4",
                    "midi": 61,
                    "time": 505.28579849999363,
                    "velocity": 0.2125984251968504,
                    "duration": 0.32142862500001
                },
                {
                    "name": "E4",
                    "midi": 64,
                    "time": 505.28579849999363,
                    "velocity": 0.2125984251968504,
                    "duration": 0.32142862500001
                },
                {
                    "name": "A4",
                    "midi": 69,
                    "time": 505.28579849999363,
                    "velocity": 0.25196850393700787,
                    "duration": 0.32142862500001
                },
                {
                    "name": "A3",
                    "midi": 57,
                    "time": 506.78579874999366,
                    "velocity": 0.2677165354330709,
                    "duration": 0.32142862500001
                },
                {
                    "name": "C#4",
                    "midi": 61,
                    "time": 506.78579874999366,
                    "velocity": 0.2677165354330709,
                    "duration": 0.32142862500001
                },
                {
                    "name": "G4",
                    "midi": 67,
                    "time": 506.78579874999366,
                    "velocity": 0.2677165354330709,
                    "duration": 0.32142862500001
                },
                {
                    "name": "A4",
                    "midi": 69,
                    "time": 506.78579874999366,
                    "velocity": 0.3228346456692913,
                    "duration": 0.32142862500001
                },
                {
                    "name": "A3",
                    "midi": 57,
                    "time": 507.2143702499937,
                    "velocity": 0.2125984251968504,
                    "duration": 0.16071431249997659
                },
                {
                    "name": "C#4",
                    "midi": 61,
                    "time": 507.2143702499937,
                    "velocity": 0.2125984251968504,
                    "duration": 0.16071431249997659
                },
                {
                    "name": "G4",
                    "midi": 67,
                    "time": 507.2143702499937,
                    "velocity": 0.2125984251968504,
                    "duration": 0.16071431249997659
                },
                {
                    "name": "A4",
                    "midi": 69,
                    "time": 507.2143702499937,
                    "velocity": 0.25196850393700787,
                    "duration": 0.16071431249997659
                },
                {
                    "name": "A3",
                    "midi": 57,
                    "time": 507.4286559999937,
                    "velocity": 0.2283464566929134,
                    "duration": 0.32142862500001
                },
                {
                    "name": "C#4",
                    "midi": 61,
                    "time": 507.4286559999937,
                    "velocity": 0.2283464566929134,
                    "duration": 0.32142862500001
                },
                {
                    "name": "G4",
                    "midi": 67,
                    "time": 507.4286559999937,
                    "velocity": 0.2283464566929134,
                    "duration": 0.32142862500001
                },
                {
                    "name": "A4",
                    "midi": 69,
                    "time": 507.4286559999937,
                    "velocity": 0.2755905511811024,
                    "duration": 0.32142862500001
                },
                {
                    "name": "A3",
                    "midi": 57,
                    "time": 507.8572274999937,
                    "velocity": 0.2125984251968504,
                    "duration": 0.32142862500001
                },
                {
                    "name": "C#4",
                    "midi": 61,
                    "time": 507.8572274999937,
                    "velocity": 0.2125984251968504,
                    "duration": 0.32142862500001
                },
                {
                    "name": "G4",
                    "midi": 67,
                    "time": 507.8572274999937,
                    "velocity": 0.2125984251968504,
                    "duration": 0.32142862500001
                },
                {
                    "name": "A4",
                    "midi": 69,
                    "time": 507.8572274999937,
                    "velocity": 0.25196850393700787,
                    "duration": 0.32142862500001
                },
                {
                    "name": "A3",
                    "midi": 57,
                    "time": 509.35722774999374,
                    "velocity": 0.2677165354330709,
                    "duration": 0.32142862500001
                },
                {
                    "name": "D4",
                    "midi": 62,
                    "time": 509.35722774999374,
                    "velocity": 0.2677165354330709,
                    "duration": 0.32142862500001
                },
                {
                    "name": "F#4",
                    "midi": 66,
                    "time": 509.35722774999374,
                    "velocity": 0.2677165354330709,
                    "duration": 0.32142862500001
                },
                {
                    "name": "A4",
                    "midi": 69,
                    "time": 509.35722774999374,
                    "velocity": 0.3228346456692913,
                    "duration": 0.32142862500001
                },
                {
                    "name": "A3",
                    "midi": 57,
                    "time": 509.7857992499938,
                    "velocity": 0.2125984251968504,
                    "duration": 0.16071431249997659
                },
                {
                    "name": "D4",
                    "midi": 62,
                    "time": 509.7857992499938,
                    "velocity": 0.2125984251968504,
                    "duration": 0.16071431249997659
                },
                {
                    "name": "F#4",
                    "midi": 66,
                    "time": 509.7857992499938,
                    "velocity": 0.2125984251968504,
                    "duration": 0.16071431249997659
                },
                {
                    "name": "A4",
                    "midi": 69,
                    "time": 509.7857992499938,
                    "velocity": 0.25196850393700787,
                    "duration": 0.16071431249997659
                },
                {
                    "name": "A3",
                    "midi": 57,
                    "time": 510.00008499999376,
                    "velocity": 0.2283464566929134,
                    "duration": 0.32142862500001
                },
                {
                    "name": "D4",
                    "midi": 62,
                    "time": 510.00008499999376,
                    "velocity": 0.2283464566929134,
                    "duration": 0.32142862500001
                },
                {
                    "name": "F#4",
                    "midi": 66,
                    "time": 510.00008499999376,
                    "velocity": 0.2283464566929134,
                    "duration": 0.32142862500001
                },
                {
                    "name": "A4",
                    "midi": 69,
                    "time": 510.00008499999376,
                    "velocity": 0.2755905511811024,
                    "duration": 0.32142862500001
                },
                {
                    "name": "A3",
                    "midi": 57,
                    "time": 510.4286564999938,
                    "velocity": 0.2125984251968504,
                    "duration": 0.32142862500001
                },
                {
                    "name": "D4",
                    "midi": 62,
                    "time": 510.4286564999938,
                    "velocity": 0.2125984251968504,
                    "duration": 0.32142862500001
                },
                {
                    "name": "F#4",
                    "midi": 66,
                    "time": 510.4286564999938,
                    "velocity": 0.2125984251968504,
                    "duration": 0.32142862500001
                },
                {
                    "name": "A4",
                    "midi": 69,
                    "time": 510.4286564999938,
                    "velocity": 0.25196850393700787,
                    "duration": 0.32142862500001
                },
                {
                    "name": "A3",
                    "midi": 57,
                    "time": 511.9286567499938,
                    "velocity": 0.2677165354330709,
                    "duration": 0.32142862499995317
                },
                {
                    "name": "D4",
                    "midi": 62,
                    "time": 511.9286567499938,
                    "velocity": 0.2677165354330709,
                    "duration": 0.32142862499995317
                },
                {
                    "name": "F4",
                    "midi": 65,
                    "time": 511.9286567499938,
                    "velocity": 0.2677165354330709,
                    "duration": 0.32142862499995317
                },
                {
                    "name": "G#4",
                    "midi": 68,
                    "time": 511.9286567499938,
                    "velocity": 0.3228346456692913,
                    "duration": 0.32142862499995317
                },
                {
                    "name": "A3",
                    "midi": 57,
                    "time": 512.3572282499938,
                    "velocity": 0.2125984251968504,
                    "duration": 0.16071431249997659
                },
                {
                    "name": "D4",
                    "midi": 62,
                    "time": 512.3572282499938,
                    "velocity": 0.2125984251968504,
                    "duration": 0.16071431249997659
                },
                {
                    "name": "F4",
                    "midi": 65,
                    "time": 512.3572282499938,
                    "velocity": 0.2125984251968504,
                    "duration": 0.16071431249997659
                },
                {
                    "name": "G#4",
                    "midi": 68,
                    "time": 512.3572282499938,
                    "velocity": 0.25196850393700787,
                    "duration": 0.16071431249997659
                },
                {
                    "name": "A3",
                    "midi": 57,
                    "time": 512.5715139999937,
                    "velocity": 0.2283464566929134,
                    "duration": 0.32142862499995317
                },
                {
                    "name": "D4",
                    "midi": 62,
                    "time": 512.5715139999937,
                    "velocity": 0.2283464566929134,
                    "duration": 0.32142862499995317
                },
                {
                    "name": "F4",
                    "midi": 65,
                    "time": 512.5715139999937,
                    "velocity": 0.2283464566929134,
                    "duration": 0.32142862499995317
                },
                {
                    "name": "G#4",
                    "midi": 68,
                    "time": 512.5715139999937,
                    "velocity": 0.2755905511811024,
                    "duration": 0.32142862499995317
                },
                {
                    "name": "A3",
                    "midi": 57,
                    "time": 513.0000854999937,
                    "velocity": 0.2125984251968504,
                    "duration": 0.32142862499995317
                },
                {
                    "name": "D4",
                    "midi": 62,
                    "time": 513.0000854999937,
                    "velocity": 0.2125984251968504,
                    "duration": 0.32142862499995317
                },
                {
                    "name": "F4",
                    "midi": 65,
                    "time": 513.0000854999937,
                    "velocity": 0.2125984251968504,
                    "duration": 0.32142862499995317
                },
                {
                    "name": "G#4",
                    "midi": 68,
                    "time": 513.0000854999937,
                    "velocity": 0.25196850393700787,
                    "duration": 0.32142862499995317
                },
                {
                    "name": "A3",
                    "midi": 57,
                    "time": 514.5000857499937,
                    "velocity": 0.23622047244094488,
                    "duration": 0.32142862499995317
                },
                {
                    "name": "C#4",
                    "midi": 61,
                    "time": 514.5000857499937,
                    "velocity": 0.23622047244094488,
                    "duration": 0.32142862499995317
                },
                {
                    "name": "E4",
                    "midi": 64,
                    "time": 514.5000857499937,
                    "velocity": 0.23622047244094488,
                    "duration": 0.32142862499995317
                },
                {
                    "name": "A4",
                    "midi": 69,
                    "time": 514.5000857499937,
                    "velocity": 0.28346456692913385,
                    "duration": 0.32142862499995317
                },
                {
                    "name": "A3",
                    "midi": 57,
                    "time": 514.9286572499936,
                    "velocity": 0.18110236220472442,
                    "duration": 0.16071431249997659
                },
                {
                    "name": "C#4",
                    "midi": 61,
                    "time": 514.9286572499936,
                    "velocity": 0.18110236220472442,
                    "duration": 0.16071431249997659
                },
                {
                    "name": "E4",
                    "midi": 64,
                    "time": 514.9286572499936,
                    "velocity": 0.18110236220472442,
                    "duration": 0.16071431249997659
                },
                {
                    "name": "A4",
                    "midi": 69,
                    "time": 514.9286572499936,
                    "velocity": 0.2125984251968504,
                    "duration": 0.16071431249997659
                },
                {
                    "name": "A3",
                    "midi": 57,
                    "time": 515.1429429999936,
                    "velocity": 0.1968503937007874,
                    "duration": 0.32142862499995317
                },
                {
                    "name": "C#4",
                    "midi": 61,
                    "time": 515.1429429999936,
                    "velocity": 0.1968503937007874,
                    "duration": 0.32142862499995317
                },
                {
                    "name": "E4",
                    "midi": 64,
                    "time": 515.1429429999936,
                    "velocity": 0.1968503937007874,
                    "duration": 0.32142862499995317
                },
                {
                    "name": "A4",
                    "midi": 69,
                    "time": 515.1429429999936,
                    "velocity": 0.23622047244094488,
                    "duration": 0.32142862499995317
                },
                {
                    "name": "A3",
                    "midi": 57,
                    "time": 515.5715144999936,
                    "velocity": 0.18110236220472442,
                    "duration": 0.32142862499995317
                },
                {
                    "name": "C#4",
                    "midi": 61,
                    "time": 515.5715144999936,
                    "velocity": 0.18110236220472442,
                    "duration": 0.32142862499995317
                },
                {
                    "name": "E4",
                    "midi": 64,
                    "time": 515.5715144999936,
                    "velocity": 0.18110236220472442,
                    "duration": 0.32142862499995317
                },
                {
                    "name": "A4",
                    "midi": 69,
                    "time": 515.5715144999936,
                    "velocity": 0.2125984251968504,
                    "duration": 0.32142862499995317
                },
                {
                    "name": "A#3",
                    "midi": 58,
                    "time": 517.0715147499935,
                    "velocity": 0.18110236220472442,
                    "duration": 0.32142862499995317
                },
                {
                    "name": "C#4",
                    "midi": 61,
                    "time": 517.0715147499935,
                    "velocity": 0.18110236220472442,
                    "duration": 0.32142862499995317
                },
                {
                    "name": "E4",
                    "midi": 64,
                    "time": 517.0715147499935,
                    "velocity": 0.2204724409448819,
                    "duration": 0.32142862499995317
                },
                {
                    "name": "G4",
                    "midi": 67,
                    "time": 517.0715147499935,
                    "velocity": 0.2677165354330709,
                    "duration": 0.32142862499995317
                },
                {
                    "name": "A#3",
                    "midi": 58,
                    "time": 517.5000862499935,
                    "velocity": 0.14173228346456693,
                    "duration": 0.16071431249997659
                },
                {
                    "name": "C#4",
                    "midi": 61,
                    "time": 517.5000862499935,
                    "velocity": 0.14173228346456693,
                    "duration": 0.16071431249997659
                },
                {
                    "name": "E4",
                    "midi": 64,
                    "time": 517.5000862499935,
                    "velocity": 0.1732283464566929,
                    "duration": 0.16071431249997659
                },
                {
                    "name": "G4",
                    "midi": 67,
                    "time": 517.5000862499935,
                    "velocity": 0.2047244094488189,
                    "duration": 0.16071431249997659
                },
                {
                    "name": "A#3",
                    "midi": 58,
                    "time": 517.7143719999934,
                    "velocity": 0.15748031496062992,
                    "duration": 0.32142862499995317
                },
                {
                    "name": "C#4",
                    "midi": 61,
                    "time": 517.7143719999934,
                    "velocity": 0.15748031496062992,
                    "duration": 0.32142862499995317
                },
                {
                    "name": "E4",
                    "midi": 64,
                    "time": 517.7143719999934,
                    "velocity": 0.1889763779527559,
                    "duration": 0.32142862499995317
                },
                {
                    "name": "G4",
                    "midi": 67,
                    "time": 517.7143719999934,
                    "velocity": 0.2283464566929134,
                    "duration": 0.32142862499995317
                },
                {
                    "name": "A#3",
                    "midi": 58,
                    "time": 518.1429434999934,
                    "velocity": 0.14173228346456693,
                    "duration": 0.32142862499995317
                },
                {
                    "name": "C#4",
                    "midi": 61,
                    "time": 518.1429434999934,
                    "velocity": 0.14173228346456693,
                    "duration": 0.32142862499995317
                },
                {
                    "name": "E4",
                    "midi": 64,
                    "time": 518.1429434999934,
                    "velocity": 0.1732283464566929,
                    "duration": 0.32142862499995317
                },
                {
                    "name": "G4",
                    "midi": 67,
                    "time": 518.1429434999934,
                    "velocity": 0.2047244094488189,
                    "duration": 0.32142862499995317
                },
                {
                    "name": "A3",
                    "midi": 57,
                    "time": 519.6429437499934,
                    "velocity": 0.1732283464566929,
                    "duration": 0.32142862499995317
                },
                {
                    "name": "D4",
                    "midi": 62,
                    "time": 519.6429437499934,
                    "velocity": 0.2125984251968504,
                    "duration": 0.32142862499995317
                },
                {
                    "name": "F#4",
                    "midi": 66,
                    "time": 519.6429437499934,
                    "velocity": 0.25196850393700787,
                    "duration": 0.32142862499995317
                },
                {
                    "name": "A3",
                    "midi": 57,
                    "time": 520.0715152499934,
                    "velocity": 0.13385826771653545,
                    "duration": 0.16071431249997659
                },
                {
                    "name": "D4",
                    "midi": 62,
                    "time": 520.0715152499934,
                    "velocity": 0.16535433070866143,
                    "duration": 0.16071431249997659
                },
                {
                    "name": "F#4",
                    "midi": 66,
                    "time": 520.0715152499934,
                    "velocity": 0.1889763779527559,
                    "duration": 0.16071431249997659
                },
                {
                    "name": "A3",
                    "midi": 57,
                    "time": 520.2858009999933,
                    "velocity": 0.14960629921259844,
                    "duration": 0.32142862499995317
                },
                {
                    "name": "D4",
                    "midi": 62,
                    "time": 520.2858009999933,
                    "velocity": 0.18110236220472442,
                    "duration": 0.32142862499995317
                },
                {
                    "name": "F#4",
                    "midi": 66,
                    "time": 520.2858009999933,
                    "velocity": 0.2125984251968504,
                    "duration": 0.32142862499995317
                },
                {
                    "name": "A3",
                    "midi": 57,
                    "time": 520.7143724999933,
                    "velocity": 0.13385826771653545,
                    "duration": 0.32142862499995317
                },
                {
                    "name": "D4",
                    "midi": 62,
                    "time": 520.7143724999933,
                    "velocity": 0.16535433070866143,
                    "duration": 0.32142862499995317
                },
                {
                    "name": "F#4",
                    "midi": 66,
                    "time": 520.7143724999933,
                    "velocity": 0.1889763779527559,
                    "duration": 0.32142862499995317
                },
                {
                    "name": "G#3",
                    "midi": 56,
                    "time": 522.2143727499932,
                    "velocity": 0.1968503937007874,
                    "duration": 0.32142862499995317
                },
                {
                    "name": "B3",
                    "midi": 59,
                    "time": 522.2143727499932,
                    "velocity": 0.1968503937007874,
                    "duration": 0.32142862499995317
                },
                {
                    "name": "D4",
                    "midi": 62,
                    "time": 522.2143727499932,
                    "velocity": 0.1968503937007874,
                    "duration": 0.32142862499995317
                },
                {
                    "name": "F4",
                    "midi": 65,
                    "time": 522.2143727499932,
                    "velocity": 0.23622047244094488,
                    "duration": 0.32142862499995317
                },
                {
                    "name": "G#3",
                    "midi": 56,
                    "time": 522.6429442499932,
                    "velocity": 0.15748031496062992,
                    "duration": 0.16071431249997659
                },
                {
                    "name": "B3",
                    "midi": 59,
                    "time": 522.6429442499932,
                    "velocity": 0.15748031496062992,
                    "duration": 0.16071431249997659
                },
                {
                    "name": "D4",
                    "midi": 62,
                    "time": 522.6429442499932,
                    "velocity": 0.15748031496062992,
                    "duration": 0.16071431249997659
                },
                {
                    "name": "F4",
                    "midi": 65,
                    "time": 522.6429442499932,
                    "velocity": 0.18110236220472442,
                    "duration": 0.16071431249997659
                },
                {
                    "name": "G#3",
                    "midi": 56,
                    "time": 522.8572299999931,
                    "velocity": 0.16535433070866143,
                    "duration": 0.32142862499995317
                },
                {
                    "name": "B3",
                    "midi": 59,
                    "time": 522.8572299999931,
                    "velocity": 0.16535433070866143,
                    "duration": 0.32142862499995317
                },
                {
                    "name": "D4",
                    "midi": 62,
                    "time": 522.8572299999931,
                    "velocity": 0.16535433070866143,
                    "duration": 0.32142862499995317
                },
                {
                    "name": "F4",
                    "midi": 65,
                    "time": 522.8572299999931,
                    "velocity": 0.2047244094488189,
                    "duration": 0.32142862499995317
                },
                {
                    "name": "G#3",
                    "midi": 56,
                    "time": 523.2858014999931,
                    "velocity": 0.14960629921259844,
                    "duration": 0.32142862499995317
                },
                {
                    "name": "B3",
                    "midi": 59,
                    "time": 523.2858014999931,
                    "velocity": 0.14960629921259844,
                    "duration": 0.32142862499995317
                },
                {
                    "name": "D4",
                    "midi": 62,
                    "time": 523.2858014999931,
                    "velocity": 0.14960629921259844,
                    "duration": 0.32142862499995317
                },
                {
                    "name": "F4",
                    "midi": 65,
                    "time": 523.2858014999931,
                    "velocity": 0.18110236220472442,
                    "duration": 0.32142862499995317
                },
                {
                    "name": "E3",
                    "midi": 52,
                    "time": 524.7858017499931,
                    "velocity": 0.1732283464566929,
                    "duration": 0.32142862499995317
                },
                {
                    "name": "A3",
                    "midi": 57,
                    "time": 524.7858017499931,
                    "velocity": 0.1732283464566929,
                    "duration": 0.32142862499995317
                },
                {
                    "name": "C#4",
                    "midi": 61,
                    "time": 524.7858017499931,
                    "velocity": 0.1732283464566929,
                    "duration": 0.32142862499995317
                },
                {
                    "name": "E4",
                    "midi": 64,
                    "time": 524.7858017499931,
                    "velocity": 0.2125984251968504,
                    "duration": 0.32142862499995317
                },
                {
                    "name": "E3",
                    "midi": 52,
                    "time": 525.2143732499931,
                    "velocity": 0.13385826771653545,
                    "duration": 0.16071431249997659
                },
                {
                    "name": "A3",
                    "midi": 57,
                    "time": 525.2143732499931,
                    "velocity": 0.13385826771653545,
                    "duration": 0.16071431249997659
                },
                {
                    "name": "C#4",
                    "midi": 61,
                    "time": 525.2143732499931,
                    "velocity": 0.13385826771653545,
                    "duration": 0.16071431249997659
                },
                {
                    "name": "E4",
                    "midi": 64,
                    "time": 525.2143732499931,
                    "velocity": 0.14960629921259844,
                    "duration": 0.16071431249997659
                },
                {
                    "name": "E3",
                    "midi": 52,
                    "time": 525.428658999993,
                    "velocity": 0.15748031496062992,
                    "duration": 0.32142862499995317
                },
                {
                    "name": "A3",
                    "midi": 57,
                    "time": 525.428658999993,
                    "velocity": 0.15748031496062992,
                    "duration": 0.32142862499995317
                },
                {
                    "name": "C#4",
                    "midi": 61,
                    "time": 525.428658999993,
                    "velocity": 0.15748031496062992,
                    "duration": 0.32142862499995317
                },
                {
                    "name": "E4",
                    "midi": 64,
                    "time": 525.428658999993,
                    "velocity": 0.1889763779527559,
                    "duration": 0.32142862499995317
                },
                {
                    "name": "E3",
                    "midi": 52,
                    "time": 525.857230499993,
                    "velocity": 0.14173228346456693,
                    "duration": 0.32142862499995317
                },
                {
                    "name": "A3",
                    "midi": 57,
                    "time": 525.857230499993,
                    "velocity": 0.14173228346456693,
                    "duration": 0.32142862499995317
                },
                {
                    "name": "C#4",
                    "midi": 61,
                    "time": 525.857230499993,
                    "velocity": 0.14173228346456693,
                    "duration": 0.32142862499995317
                },
                {
                    "name": "E4",
                    "midi": 64,
                    "time": 525.857230499993,
                    "velocity": 0.16535433070866143,
                    "duration": 0.32142862499995317
                },
                {
                    "name": "E3",
                    "midi": 52,
                    "time": 526.2858019999929,
                    "velocity": 0.14960629921259844,
                    "duration": 0.32142862499995317
                },
                {
                    "name": "A3",
                    "midi": 57,
                    "time": 526.2858019999929,
                    "velocity": 0.14960629921259844,
                    "duration": 0.32142862499995317
                },
                {
                    "name": "C#4",
                    "midi": 61,
                    "time": 526.2858019999929,
                    "velocity": 0.18110236220472442,
                    "duration": 0.32142862499995317
                },
                {
                    "name": "E3",
                    "midi": 52,
                    "time": 526.7143734999929,
                    "velocity": 0.13385826771653545,
                    "duration": 0.32142862499995317
                },
                {
                    "name": "A3",
                    "midi": 57,
                    "time": 526.7143734999929,
                    "velocity": 0.13385826771653545,
                    "duration": 0.32142862499995317
                },
                {
                    "name": "C#4",
                    "midi": 61,
                    "time": 526.7143734999929,
                    "velocity": 0.15748031496062992,
                    "duration": 0.32142862499995317
                },
                {
                    "name": "C#3",
                    "midi": 49,
                    "time": 527.1429449999929,
                    "velocity": 0.12598425196850394,
                    "duration": 2.5714289999999664
                },
                {
                    "name": "E3",
                    "midi": 52,
                    "time": 527.1429449999929,
                    "velocity": 0.12598425196850394,
                    "duration": 2.5714289999999664
                },
                {
                    "name": "A3",
                    "midi": 57,
                    "time": 527.1429449999929,
                    "velocity": 0.14960629921259844,
                    "duration": 2.5714289999999664
                }
            ],
            "controlChanges": {},
            "id": 1,
            "name": "Piano right",
            "instrumentNumber": 0,
            "instrument": "acoustic grand piano",
            "instrumentFamily": "piano",
            "channelNumber": 0,
            "isPercussion": false
        },
        {
            "startTime": 1.2857145,
            "duration": 529.7143739999901,
            "length": 2173,
            "notes": [
                {
                    "name": "A2",
                    "midi": 45,
                    "time": 1.2857145,
                    "velocity": 0.2204724409448819,
                    "duration": 0.4285714999999999
                },
                {
                    "name": "E3",
                    "midi": 52,
                    "time": 1.2857145,
                    "velocity": 0.2677165354330709,
                    "duration": 0.4285714999999999
                },
                {
                    "name": "A2",
                    "midi": 45,
                    "time": 1.714286,
                    "velocity": 0.2677165354330709,
                    "duration": 0.3857143500000002
                },
                {
                    "name": "F#3",
                    "midi": 54,
                    "time": 1.714286,
                    "velocity": 0.31496062992125984,
                    "duration": 0.3857143500000002
                },
                {
                    "name": "A2",
                    "midi": 45,
                    "time": 2.1428575000000003,
                    "velocity": 0.1889763779527559,
                    "duration": 0.3857143500000002
                },
                {
                    "name": "D#3",
                    "midi": 51,
                    "time": 2.1428575000000003,
                    "velocity": 0.2283464566929134,
                    "duration": 0.3857143500000002
                },
                {
                    "name": "A2",
                    "midi": 45,
                    "time": 2.5714290000000006,
                    "velocity": 0.2440944881889764,
                    "duration": 1.2678573541666665
                },
                {
                    "name": "E3",
                    "midi": 52,
                    "time": 2.5714290000000006,
                    "velocity": 0.29133858267716534,
                    "duration": 1.2678573541666665
                },
                {
                    "name": "A2",
                    "midi": 45,
                    "time": 3.8571435000000003,
                    "velocity": 0.2677165354330709,
                    "duration": 0.8571430000000007
                },
                {
                    "name": "E3",
                    "midi": 52,
                    "time": 3.8571435000000003,
                    "velocity": 0.2677165354330709,
                    "duration": 0.8571430000000007
                },
                {
                    "name": "A3",
                    "midi": 57,
                    "time": 3.8571435000000003,
                    "velocity": 0.3228346456692913,
                    "duration": 0.4285715000000003
                },
                {
                    "name": "B3",
                    "midi": 59,
                    "time": 4.285715000000001,
                    "velocity": 0.33858267716535434,
                    "duration": 0.4285715000000003
                },
                {
                    "name": "A2",
                    "midi": 45,
                    "time": 4.714286500000001,
                    "velocity": 0.2992125984251969,
                    "duration": 0.38571434999999976
                },
                {
                    "name": "F3",
                    "midi": 53,
                    "time": 4.714286500000001,
                    "velocity": 0.2992125984251969,
                    "duration": 0.38571434999999976
                },
                {
                    "name": "A3",
                    "midi": 57,
                    "time": 4.714286500000001,
                    "velocity": 0.3543307086614173,
                    "duration": 0.38571434999999976
                },
                {
                    "name": "D3",
                    "midi": 50,
                    "time": 5.142858,
                    "velocity": 0.2283464566929134,
                    "duration": 1.2857145
                },
                {
                    "name": "F#3",
                    "midi": 54,
                    "time": 5.142858,
                    "velocity": 0.2755905511811024,
                    "duration": 1.2857145
                },
                {
                    "name": "A#3",
                    "midi": 58,
                    "time": 5.142858,
                    "velocity": 0.33070866141732286,
                    "duration": 0.8571429999999998
                },
                {
                    "name": "B3",
                    "midi": 59,
                    "time": 6.000001,
                    "velocity": 0.29133858267716534,
                    "duration": 0.4285715000000003
                },
                {
                    "name": "D3",
                    "midi": 50,
                    "time": 6.4285725000000005,
                    "velocity": 0.25196850393700787,
                    "duration": 0.4285715000000003
                },
                {
                    "name": "F#3",
                    "midi": 54,
                    "time": 6.4285725000000005,
                    "velocity": 0.2992125984251969,
                    "duration": 0.4285715000000003
                },
                {
                    "name": "E3",
                    "midi": 52,
                    "time": 6.857144000000001,
                    "velocity": 0.2283464566929134,
                    "duration": 0.4285715000000003
                },
                {
                    "name": "G#3",
                    "midi": 56,
                    "time": 6.857144000000001,
                    "velocity": 0.2755905511811024,
                    "duration": 0.4285715000000003
                },
                {
                    "name": "F#3",
                    "midi": 54,
                    "time": 7.285715500000001,
                    "velocity": 0.2204724409448819,
                    "duration": 0.38571434999999976
                },
                {
                    "name": "A3",
                    "midi": 57,
                    "time": 7.285715500000001,
                    "velocity": 0.2677165354330709,
                    "duration": 0.38571434999999976
                },
                {
                    "name": "G#2",
                    "midi": 44,
                    "time": 7.714287000000001,
                    "velocity": 0.2440944881889764,
                    "duration": 1.267857354166667
                },
                {
                    "name": "E3",
                    "midi": 52,
                    "time": 7.714287000000001,
                    "velocity": 0.29133858267716534,
                    "duration": 1.267857354166667
                },
                {
                    "name": "G#2",
                    "midi": 44,
                    "time": 9.000001500000002,
                    "velocity": 0.2677165354330709,
                    "duration": 0.4285715000000003
                },
                {
                    "name": "E3",
                    "midi": 52,
                    "time": 9.000001500000002,
                    "velocity": 0.31496062992125984,
                    "duration": 0.4285715000000003
                },
                {
                    "name": "G#2",
                    "midi": 44,
                    "time": 9.428573000000002,
                    "velocity": 0.2440944881889764,
                    "duration": 0.38571435000000065
                },
                {
                    "name": "F#3",
                    "midi": 54,
                    "time": 9.428573000000002,
                    "velocity": 0.29133858267716534,
                    "duration": 0.38571435000000065
                },
                {
                    "name": "G#2",
                    "midi": 44,
                    "time": 9.857144500000002,
                    "velocity": 0.2283464566929134,
                    "duration": 0.38571435000000065
                },
                {
                    "name": "E3",
                    "midi": 52,
                    "time": 9.857144500000002,
                    "velocity": 0.2755905511811024,
                    "duration": 0.38571435000000065
                },
                {
                    "name": "A2",
                    "midi": 45,
                    "time": 10.285716000000003,
                    "velocity": 0.2677165354330709,
                    "duration": 1.285714500000001
                },
                {
                    "name": "F#3",
                    "midi": 54,
                    "time": 10.285716000000003,
                    "velocity": 0.31496062992125984,
                    "duration": 0.8571430000000007
                },
                {
                    "name": "E3",
                    "midi": 52,
                    "time": 11.142859000000003,
                    "velocity": 0.28346456692913385,
                    "duration": 0.41071435416666624
                },
                {
                    "name": "A2",
                    "midi": 45,
                    "time": 11.571430500000004,
                    "velocity": 0.2755905511811024,
                    "duration": 0.4285715000000003
                },
                {
                    "name": "C#3",
                    "midi": 49,
                    "time": 11.571430500000004,
                    "velocity": 0.33070866141732286,
                    "duration": 0.4285715000000003
                },
                {
                    "name": "A2",
                    "midi": 45,
                    "time": 12.000002000000004,
                    "velocity": 0.33070866141732286,
                    "duration": 0.38571435000000065
                },
                {
                    "name": "F#3",
                    "midi": 54,
                    "time": 12.000002000000004,
                    "velocity": 0.3937007874015748,
                    "duration": 0.38571435000000065
                },
                {
                    "name": "A2",
                    "midi": 45,
                    "time": 12.428573500000004,
                    "velocity": 0.2283464566929134,
                    "duration": 0.38571435000000065
                },
                {
                    "name": "D#3",
                    "midi": 51,
                    "time": 12.428573500000004,
                    "velocity": 0.28346456692913385,
                    "duration": 0.38571435000000065
                },
                {
                    "name": "A2",
                    "midi": 45,
                    "time": 12.857145000000004,
                    "velocity": 0.2992125984251969,
                    "duration": 1.267857354166667
                },
                {
                    "name": "E3",
                    "midi": 52,
                    "time": 12.857145000000004,
                    "velocity": 0.36220472440944884,
                    "duration": 1.267857354166667
                },
                {
                    "name": "C#4",
                    "midi": 61,
                    "time": 14.142859500000005,
                    "velocity": 0.44881889763779526,
                    "duration": 0.4285715000000003
                },
                {
                    "name": "A3",
                    "midi": 57,
                    "time": 14.571431000000006,
                    "velocity": 0.48031496062992124,
                    "duration": 0.4285715000000003
                },
                {
                    "name": "A2",
                    "midi": 45,
                    "time": 15.000002500000006,
                    "velocity": 0.4251968503937008,
                    "duration": 0.38571435000000065
                },
                {
                    "name": "E3",
                    "midi": 52,
                    "time": 15.000002500000006,
                    "velocity": 0.5039370078740157,
                    "duration": 0.38571435000000065
                },
                {
                    "name": "G#2",
                    "midi": 44,
                    "time": 15.428574000000006,
                    "velocity": 0.4645669291338583,
                    "duration": 1.2857144999999992
                },
                {
                    "name": "E3",
                    "midi": 52,
                    "time": 15.428574000000006,
                    "velocity": 0.4645669291338583,
                    "duration": 1.2857144999999992
                },
                {
                    "name": "G#3",
                    "midi": 56,
                    "time": 15.428574000000006,
                    "velocity": 0.5511811023622047,
                    "duration": 1.2857144999999992
                },
                {
                    "name": "G#3",
                    "midi": 56,
                    "time": 16.714288500000006,
                    "velocity": 0.25196850393700787,
                    "duration": 0.410714354166668
                },
                {
                    "name": "C#4",
                    "midi": 61,
                    "time": 16.714288500000006,
                    "velocity": 0.2992125984251969,
                    "duration": 0.4285715000000003
                },
                {
                    "name": "G#3",
                    "midi": 56,
                    "time": 17.142860000000006,
                    "velocity": 0.2283464566929134,
                    "duration": 0.410714354166668
                },
                {
                    "name": "C4",
                    "midi": 60,
                    "time": 17.142860000000006,
                    "velocity": 0.2755905511811024,
                    "duration": 0.4285715000000003
                },
                {
                    "name": "G#3",
                    "midi": 56,
                    "time": 17.571431500000006,
                    "velocity": 0.2204724409448819,
                    "duration": 0.38571435000000065
                },
                {
                    "name": "D#4",
                    "midi": 63,
                    "time": 17.571431500000006,
                    "velocity": 0.2677165354330709,
                    "duration": 0.38571435000000065
                },
                {
                    "name": "G#3",
                    "midi": 56,
                    "time": 18.000003000000007,
                    "velocity": 0.2440944881889764,
                    "duration": 1.2857144999999974
                },
                {
                    "name": "C#3",
                    "midi": 49,
                    "time": 18.000003000000007,
                    "velocity": 0.2440944881889764,
                    "duration": 1.2678573541666651
                },
                {
                    "name": "C#4",
                    "midi": 61,
                    "time": 18.000003000000007,
                    "velocity": 0.29133858267716534,
                    "duration": 1.2678573541666651
                },
                {
                    "name": "E3",
                    "midi": 52,
                    "time": 19.285717500000004,
                    "velocity": 0.2677165354330709,
                    "duration": 0.410714354166668
                },
                {
                    "name": "A3",
                    "midi": 57,
                    "time": 19.285717500000004,
                    "velocity": 0.31496062992125984,
                    "duration": 0.4285715000000003
                },
                {
                    "name": "E3",
                    "midi": 52,
                    "time": 19.714289000000004,
                    "velocity": 0.2440944881889764,
                    "duration": 0.38571435000000065
                },
                {
                    "name": "G#3",
                    "midi": 56,
                    "time": 19.714289000000004,
                    "velocity": 0.29133858267716534,
                    "duration": 0.38571435000000065
                },
                {
                    "name": "E3",
                    "midi": 52,
                    "time": 20.142860500000005,
                    "velocity": 0.2283464566929134,
                    "duration": 0.38571435000000065
                },
                {
                    "name": "B3",
                    "midi": 59,
                    "time": 20.142860500000005,
                    "velocity": 0.2755905511811024,
                    "duration": 0.38571435000000065
                },
                {
                    "name": "E3",
                    "midi": 52,
                    "time": 20.571432000000005,
                    "velocity": 0.2677165354330709,
                    "duration": 0.8571430000000007
                },
                {
                    "name": "A2",
                    "midi": 45,
                    "time": 20.571432000000005,
                    "velocity": 0.2677165354330709,
                    "duration": 0.8571430000000007
                },
                {
                    "name": "A3",
                    "midi": 57,
                    "time": 20.571432000000005,
                    "velocity": 0.31496062992125984,
                    "duration": 0.8571430000000007
                },
                {
                    "name": "A2",
                    "midi": 45,
                    "time": 21.857146500000006,
                    "velocity": 0.2204724409448819,
                    "duration": 0.4285715000000003
                },
                {
                    "name": "E3",
                    "midi": 52,
                    "time": 21.857146500000006,
                    "velocity": 0.2677165354330709,
                    "duration": 0.4285715000000003
                },
                {
                    "name": "A2",
                    "midi": 45,
                    "time": 22.285718000000006,
                    "velocity": 0.2677165354330709,
                    "duration": 0.38571435000000065
                },
                {
                    "name": "F#3",
                    "midi": 54,
                    "time": 22.285718000000006,
                    "velocity": 0.31496062992125984,
                    "duration": 0.38571435000000065
                },
                {
                    "name": "A2",
                    "midi": 45,
                    "time": 22.714289500000007,
                    "velocity": 0.1889763779527559,
                    "duration": 0.38571435000000065
                },
                {
                    "name": "D#3",
                    "midi": 51,
                    "time": 22.714289500000007,
                    "velocity": 0.2283464566929134,
                    "duration": 0.38571435000000065
                },
                {
                    "name": "A2",
                    "midi": 45,
                    "time": 23.142861000000007,
                    "velocity": 0.2440944881889764,
                    "duration": 1.2678573541666651
                },
                {
                    "name": "E3",
                    "midi": 52,
                    "time": 23.142861000000007,
                    "velocity": 0.29133858267716534,
                    "duration": 1.2678573541666651
                },
                {
                    "name": "A2",
                    "midi": 45,
                    "time": 24.428575500000004,
                    "velocity": 0.2677165354330709,
                    "duration": 0.8571430000000007
                },
                {
                    "name": "E3",
                    "midi": 52,
                    "time": 24.428575500000004,
                    "velocity": 0.2677165354330709,
                    "duration": 0.8571430000000007
                },
                {
                    "name": "A3",
                    "midi": 57,
                    "time": 24.428575500000004,
                    "velocity": 0.3228346456692913,
                    "duration": 0.4285715000000003
                },
                {
                    "name": "B3",
                    "midi": 59,
                    "time": 24.857147000000005,
                    "velocity": 0.33858267716535434,
                    "duration": 0.4285715000000003
                },
                {
                    "name": "A2",
                    "midi": 45,
                    "time": 25.285718500000005,
                    "velocity": 0.2992125984251969,
                    "duration": 0.38571435000000065
                },
                {
                    "name": "F3",
                    "midi": 53,
                    "time": 25.285718500000005,
                    "velocity": 0.2992125984251969,
                    "duration": 0.38571435000000065
                },
                {
                    "name": "A3",
                    "midi": 57,
                    "time": 25.285718500000005,
                    "velocity": 0.3543307086614173,
                    "duration": 0.38571435000000065
                },
                {
                    "name": "D3",
                    "midi": 50,
                    "time": 25.714290000000005,
                    "velocity": 0.2283464566929134,
                    "duration": 1.285714500000001
                },
                {
                    "name": "F#3",
                    "midi": 54,
                    "time": 25.714290000000005,
                    "velocity": 0.2755905511811024,
                    "duration": 1.285714500000001
                },
                {
                    "name": "A#3",
                    "midi": 58,
                    "time": 25.714290000000005,
                    "velocity": 0.33070866141732286,
                    "duration": 0.8571430000000007
                },
                {
                    "name": "B3",
                    "midi": 59,
                    "time": 26.571433000000006,
                    "velocity": 0.29133858267716534,
                    "duration": 0.4285715000000003
                },
                {
                    "name": "D3",
                    "midi": 50,
                    "time": 27.000004500000006,
                    "velocity": 0.25196850393700787,
                    "duration": 0.4285715000000003
                },
                {
                    "name": "F#3",
                    "midi": 54,
                    "time": 27.000004500000006,
                    "velocity": 0.2992125984251969,
                    "duration": 0.4285715000000003
                },
                {
                    "name": "E3",
                    "midi": 52,
                    "time": 27.428576000000007,
                    "velocity": 0.2283464566929134,
                    "duration": 0.4285715000000003
                },
                {
                    "name": "G#3",
                    "midi": 56,
                    "time": 27.428576000000007,
                    "velocity": 0.2755905511811024,
                    "duration": 0.4285715000000003
                },
                {
                    "name": "F#3",
                    "midi": 54,
                    "time": 27.857147500000007,
                    "velocity": 0.2204724409448819,
                    "duration": 0.38571435000000065
                },
                {
                    "name": "A3",
                    "midi": 57,
                    "time": 27.857147500000007,
                    "velocity": 0.2677165354330709,
                    "duration": 0.38571435000000065
                },
                {
                    "name": "G#2",
                    "midi": 44,
                    "time": 28.285719000000007,
                    "velocity": 0.2440944881889764,
                    "duration": 1.2678573541666651
                },
                {
                    "name": "E3",
                    "midi": 52,
                    "time": 28.285719000000007,
                    "velocity": 0.29133858267716534,
                    "duration": 1.2678573541666651
                },
                {
                    "name": "G#2",
                    "midi": 44,
                    "time": 29.571433500000005,
                    "velocity": 0.2677165354330709,
                    "duration": 0.4285715000000003
                },
                {
                    "name": "E3",
                    "midi": 52,
                    "time": 29.571433500000005,
                    "velocity": 0.31496062992125984,
                    "duration": 0.4285715000000003
                },
                {
                    "name": "G#2",
                    "midi": 44,
                    "time": 30.000005000000005,
                    "velocity": 0.2440944881889764,
                    "duration": 0.38571435000000065
                },
                {
                    "name": "F#3",
                    "midi": 54,
                    "time": 30.000005000000005,
                    "velocity": 0.29133858267716534,
                    "duration": 0.38571435000000065
                },
                {
                    "name": "G#2",
                    "midi": 44,
                    "time": 30.428576500000005,
                    "velocity": 0.2283464566929134,
                    "duration": 0.38571435000000065
                },
                {
                    "name": "E3",
                    "midi": 52,
                    "time": 30.428576500000005,
                    "velocity": 0.2755905511811024,
                    "duration": 0.38571435000000065
                },
                {
                    "name": "A2",
                    "midi": 45,
                    "time": 30.857148000000006,
                    "velocity": 0.2677165354330709,
                    "duration": 1.285714500000001
                },
                {
                    "name": "F#3",
                    "midi": 54,
                    "time": 30.857148000000006,
                    "velocity": 0.31496062992125984,
                    "duration": 0.8571430000000007
                },
                {
                    "name": "E3",
                    "midi": 52,
                    "time": 31.714291000000006,
                    "velocity": 0.28346456692913385,
                    "duration": 0.410714354166668
                },
                {
                    "name": "A2",
                    "midi": 45,
                    "time": 32.14286250000001,
                    "velocity": 0.2755905511811024,
                    "duration": 0.4285714999999968
                },
                {
                    "name": "C#3",
                    "midi": 49,
                    "time": 32.14286250000001,
                    "velocity": 0.33070866141732286,
                    "duration": 0.4285714999999968
                },
                {
                    "name": "A2",
                    "midi": 45,
                    "time": 32.571434,
                    "velocity": 0.33070866141732286,
                    "duration": 0.38571435000000065
                },
                {
                    "name": "F#3",
                    "midi": 54,
                    "time": 32.571434,
                    "velocity": 0.3937007874015748,
                    "duration": 0.38571435000000065
                },
                {
                    "name": "A2",
                    "midi": 45,
                    "time": 33.00000550000001,
                    "velocity": 0.2283464566929134,
                    "duration": 0.38571435000000065
                },
                {
                    "name": "D#3",
                    "midi": 51,
                    "time": 33.00000550000001,
                    "velocity": 0.28346456692913385,
                    "duration": 0.38571435000000065
                },
                {
                    "name": "A2",
                    "midi": 45,
                    "time": 33.42857700000001,
                    "velocity": 0.2992125984251969,
                    "duration": 1.2678573541666651
                },
                {
                    "name": "E3",
                    "midi": 52,
                    "time": 33.42857700000001,
                    "velocity": 0.36220472440944884,
                    "duration": 1.2678573541666651
                },
                {
                    "name": "C#4",
                    "midi": 61,
                    "time": 34.71429150000001,
                    "velocity": 0.44881889763779526,
                    "duration": 0.4285714999999968
                },
                {
                    "name": "A3",
                    "midi": 57,
                    "time": 35.142863000000006,
                    "velocity": 0.48031496062992124,
                    "duration": 0.4285714999999968
                },
                {
                    "name": "A2",
                    "midi": 45,
                    "time": 35.5714345,
                    "velocity": 0.4251968503937008,
                    "duration": 0.38571435000000065
                },
                {
                    "name": "E3",
                    "midi": 52,
                    "time": 35.5714345,
                    "velocity": 0.5039370078740157,
                    "duration": 0.38571435000000065
                },
                {
                    "name": "G#2",
                    "midi": 44,
                    "time": 36.000006000000006,
                    "velocity": 0.4645669291338583,
                    "duration": 1.2857144999999974
                },
                {
                    "name": "E3",
                    "midi": 52,
                    "time": 36.000006000000006,
                    "velocity": 0.4645669291338583,
                    "duration": 1.2857144999999974
                },
                {
                    "name": "G#3",
                    "midi": 56,
                    "time": 36.000006000000006,
                    "velocity": 0.5511811023622047,
                    "duration": 1.2857144999999974
                },
                {
                    "name": "G#3",
                    "midi": 56,
                    "time": 37.285720500000004,
                    "velocity": 0.25196850393700787,
                    "duration": 0.41071435416666446
                },
                {
                    "name": "C#4",
                    "midi": 61,
                    "time": 37.285720500000004,
                    "velocity": 0.2992125984251969,
                    "duration": 0.4285714999999968
                },
                {
                    "name": "G#3",
                    "midi": 56,
                    "time": 37.714292,
                    "velocity": 0.2283464566929134,
                    "duration": 0.41071435416666446
                },
                {
                    "name": "C4",
                    "midi": 60,
                    "time": 37.714292,
                    "velocity": 0.2755905511811024,
                    "duration": 0.41071435416666446
                },
                {
                    "name": "G#3",
                    "midi": 56,
                    "time": 38.1428635,
                    "velocity": 0.2204724409448819,
                    "duration": 0.38571435000000065
                },
                {
                    "name": "D#4",
                    "midi": 63,
                    "time": 38.1428635,
                    "velocity": 0.2677165354330709,
                    "duration": 0.38571435000000065
                },
                {
                    "name": "G#3",
                    "midi": 56,
                    "time": 38.571435,
                    "velocity": 0.2440944881889764,
                    "duration": 1.2857144999999974
                },
                {
                    "name": "C#3",
                    "midi": 49,
                    "time": 38.571435,
                    "velocity": 0.2440944881889764,
                    "duration": 1.2678573541666651
                },
                {
                    "name": "C#4",
                    "midi": 61,
                    "time": 38.571435,
                    "velocity": 0.29133858267716534,
                    "duration": 1.2678573541666651
                },
                {
                    "name": "E3",
                    "midi": 52,
                    "time": 39.8571495,
                    "velocity": 0.2677165354330709,
                    "duration": 0.41071435416666446
                },
                {
                    "name": "A3",
                    "midi": 57,
                    "time": 39.8571495,
                    "velocity": 0.31496062992125984,
                    "duration": 0.4285714999999968
                },
                {
                    "name": "E3",
                    "midi": 52,
                    "time": 40.285720999999995,
                    "velocity": 0.2440944881889764,
                    "duration": 0.38571435000000065
                },
                {
                    "name": "G#3",
                    "midi": 56,
                    "time": 40.285720999999995,
                    "velocity": 0.29133858267716534,
                    "duration": 0.38571435000000065
                },
                {
                    "name": "E3",
                    "midi": 52,
                    "time": 40.7142925,
                    "velocity": 0.2283464566929134,
                    "duration": 0.38571435000000065
                },
                {
                    "name": "B3",
                    "midi": 59,
                    "time": 40.7142925,
                    "velocity": 0.2755905511811024,
                    "duration": 0.38571435000000065
                },
                {
                    "name": "F#3",
                    "midi": 54,
                    "time": 41.142864,
                    "velocity": 0.2677165354330709,
                    "duration": 1.2857144999999974
                },
                {
                    "name": "A3",
                    "midi": 57,
                    "time": 41.142864,
                    "velocity": 0.31496062992125984,
                    "duration": 1.2857144999999974
                },
                {
                    "name": "E3",
                    "midi": 52,
                    "time": 42.4285785,
                    "velocity": 0.28346456692913385,
                    "duration": 0.41071435416666446
                },
                {
                    "name": "G3",
                    "midi": 55,
                    "time": 42.4285785,
                    "velocity": 0.33858267716535434,
                    "duration": 0.41071435416666446
                },
                {
                    "name": "D3",
                    "midi": 50,
                    "time": 42.85715,
                    "velocity": 0.30708661417322836,
                    "duration": 0.4285714999999968
                },
                {
                    "name": "G3",
                    "midi": 55,
                    "time": 42.85715,
                    "velocity": 0.36220472440944884,
                    "duration": 0.4285714999999968
                },
                {
                    "name": "C#3",
                    "midi": 49,
                    "time": 43.285721499999994,
                    "velocity": 0.31496062992125984,
                    "duration": 0.38571435000000065
                },
                {
                    "name": "G3",
                    "midi": 55,
                    "time": 43.285721499999994,
                    "velocity": 0.3779527559055118,
                    "duration": 0.38571435000000065
                },
                {
                    "name": "B2",
                    "midi": 47,
                    "time": 43.714293,
                    "velocity": 0.33858267716535434,
                    "duration": 1.2857144999999974
                },
                {
                    "name": "G3",
                    "midi": 55,
                    "time": 43.714293,
                    "velocity": 0.4015748031496063,
                    "duration": 1.2857144999999974
                },
                {
                    "name": "D3",
                    "midi": 50,
                    "time": 45.000007499999995,
                    "velocity": 0.25196850393700787,
                    "duration": 0.41071435416666446
                },
                {
                    "name": "G3",
                    "midi": 55,
                    "time": 45.000007499999995,
                    "velocity": 0.2992125984251969,
                    "duration": 0.41071435416666446
                },
                {
                    "name": "F3",
                    "midi": 53,
                    "time": 45.42857899999999,
                    "velocity": 0.2204724409448819,
                    "duration": 0.41071435416666446
                },
                {
                    "name": "G3",
                    "midi": 55,
                    "time": 45.42857899999999,
                    "velocity": 0.2677165354330709,
                    "duration": 0.4285714999999968
                },
                {
                    "name": "G3",
                    "midi": 55,
                    "time": 45.85715049999999,
                    "velocity": 0.2677165354330709,
                    "duration": 0.38571435000000065
                },
                {
                    "name": "C3",
                    "midi": 48,
                    "time": 46.28572199999999,
                    "velocity": 0.2125984251968504,
                    "duration": 1.2678573541666651
                },
                {
                    "name": "G3",
                    "midi": 55,
                    "time": 46.28572199999999,
                    "velocity": 0.25984251968503935,
                    "duration": 1.2678573541666651
                },
                {
                    "name": "G2",
                    "midi": 43,
                    "time": 47.57143649999999,
                    "velocity": 0.2125984251968504,
                    "duration": 0.41071435416666446
                },
                {
                    "name": "G3",
                    "midi": 55,
                    "time": 47.57143649999999,
                    "velocity": 0.25196850393700787,
                    "duration": 0.4285714999999968
                },
                {
                    "name": "C3",
                    "midi": 48,
                    "time": 48.00000799999999,
                    "velocity": 0.18110236220472442,
                    "duration": 0.41071435416666446
                },
                {
                    "name": "G3",
                    "midi": 55,
                    "time": 48.00000799999999,
                    "velocity": 0.2204724409448819,
                    "duration": 0.4285714999999968
                },
                {
                    "name": "D3",
                    "midi": 50,
                    "time": 48.428579499999984,
                    "velocity": 0.18110236220472442,
                    "duration": 0.4285715000000039
                },
                {
                    "name": "G3",
                    "midi": 55,
                    "time": 48.428579499999984,
                    "velocity": 0.2204724409448819,
                    "duration": 0.38571435000000065
                },
                {
                    "name": "C3",
                    "midi": 48,
                    "time": 48.85715099999999,
                    "velocity": 0.2047244094488189,
                    "duration": 0.39285720833333215
                },
                {
                    "name": "G3",
                    "midi": 55,
                    "time": 48.85715099999999,
                    "velocity": 0.2440944881889764,
                    "duration": 0.39285720833333215
                },
                {
                    "name": "G3",
                    "midi": 55,
                    "time": 49.285722499999984,
                    "velocity": 0.2125984251968504,
                    "duration": 0.41071435416666446
                },
                {
                    "name": "G4",
                    "midi": 67,
                    "time": 49.285722499999984,
                    "velocity": 0.25196850393700787,
                    "duration": 0.4285714999999968
                },
                {
                    "name": "C4",
                    "midi": 60,
                    "time": 49.71429399999998,
                    "velocity": 0.18110236220472442,
                    "duration": 0.41071435416666446
                },
                {
                    "name": "G4",
                    "midi": 67,
                    "time": 49.71429399999998,
                    "velocity": 0.2204724409448819,
                    "duration": 0.4285714999999968
                },
                {
                    "name": "D4",
                    "midi": 62,
                    "time": 50.14286549999998,
                    "velocity": 0.18110236220472442,
                    "duration": 0.4285715000000039
                },
                {
                    "name": "G4",
                    "midi": 67,
                    "time": 50.14286549999998,
                    "velocity": 0.2204724409448819,
                    "duration": 0.38571435000000065
                },
                {
                    "name": "C4",
                    "midi": 60,
                    "time": 50.57143699999998,
                    "velocity": 0.2047244094488189,
                    "duration": 0.39285720833333215
                },
                {
                    "name": "G4",
                    "midi": 67,
                    "time": 50.57143699999998,
                    "velocity": 0.2440944881889764,
                    "duration": 0.39285720833333215
                },
                {
                    "name": "G2",
                    "midi": 43,
                    "time": 51.00000849999998,
                    "velocity": 0.2125984251968504,
                    "duration": 0.41071435416666446
                },
                {
                    "name": "G3",
                    "midi": 55,
                    "time": 51.00000849999998,
                    "velocity": 0.25196850393700787,
                    "duration": 0.4285714999999968
                },
                {
                    "name": "C3",
                    "midi": 48,
                    "time": 51.428579999999975,
                    "velocity": 0.18110236220472442,
                    "duration": 0.41071435416666446
                },
                {
                    "name": "G3",
                    "midi": 55,
                    "time": 51.428579999999975,
                    "velocity": 0.2204724409448819,
                    "duration": 0.4285714999999968
                },
                {
                    "name": "D3",
                    "midi": 50,
                    "time": 51.85715149999997,
                    "velocity": 0.18110236220472442,
                    "duration": 0.4285715000000039
                },
                {
                    "name": "G3",
                    "midi": 55,
                    "time": 51.85715149999997,
                    "velocity": 0.2204724409448819,
                    "duration": 0.38571435000000065
                },
                {
                    "name": "C3",
                    "midi": 48,
                    "time": 52.285722999999976,
                    "velocity": 0.2047244094488189,
                    "duration": 0.39285720833333215
                },
                {
                    "name": "G3",
                    "midi": 55,
                    "time": 52.285722999999976,
                    "velocity": 0.2440944881889764,
                    "duration": 0.39285720833333215
                },
                {
                    "name": "B2",
                    "midi": 47,
                    "time": 52.71429449999997,
                    "velocity": 0.2283464566929134,
                    "duration": 0.4285714999999968
                },
                {
                    "name": "E3",
                    "midi": 52,
                    "time": 52.71429449999997,
                    "velocity": 0.2283464566929134,
                    "duration": 0.4285714999999968
                },
                {
                    "name": "G#3",
                    "midi": 56,
                    "time": 52.71429449999997,
                    "velocity": 0.2755905511811024,
                    "duration": 0.4285714999999968
                },
                {
                    "name": "B2",
                    "midi": 47,
                    "time": 53.14286599999997,
                    "velocity": 0.2440944881889764,
                    "duration": 0.4285714999999968
                },
                {
                    "name": "E3",
                    "midi": 52,
                    "time": 53.14286599999997,
                    "velocity": 0.2440944881889764,
                    "duration": 0.4285714999999968
                },
                {
                    "name": "G#3",
                    "midi": 56,
                    "time": 53.14286599999997,
                    "velocity": 0.2992125984251969,
                    "duration": 0.4285714999999968
                },
                {
                    "name": "B2",
                    "midi": 47,
                    "time": 53.571437499999966,
                    "velocity": 0.29133858267716534,
                    "duration": 0.4285714999999968
                },
                {
                    "name": "E3",
                    "midi": 52,
                    "time": 53.571437499999966,
                    "velocity": 0.29133858267716534,
                    "duration": 0.4285714999999968
                },
                {
                    "name": "G#3",
                    "midi": 56,
                    "time": 53.571437499999966,
                    "velocity": 0.3464566929133858,
                    "duration": 0.4285714999999968
                },
                {
                    "name": "C#3",
                    "midi": 49,
                    "time": 54.00000899999996,
                    "velocity": 0.33070866141732286,
                    "duration": 0.4285714999999968
                },
                {
                    "name": "E3",
                    "midi": 52,
                    "time": 54.00000899999996,
                    "velocity": 0.33070866141732286,
                    "duration": 0.4285714999999968
                },
                {
                    "name": "A3",
                    "midi": 57,
                    "time": 54.00000899999996,
                    "velocity": 0.4015748031496063,
                    "duration": 0.4285714999999968
                },
                {
                    "name": "F#3",
                    "midi": 54,
                    "time": 54.42858049999996,
                    "velocity": 0.3700787401574803,
                    "duration": 0.4285714999999968
                },
                {
                    "name": "A3",
                    "midi": 57,
                    "time": 54.42858049999996,
                    "velocity": 0.3700787401574803,
                    "duration": 0.4285714999999968
                },
                {
                    "name": "B3",
                    "midi": 59,
                    "time": 54.42858049999996,
                    "velocity": 0.4409448818897638,
                    "duration": 0.4285714999999968
                },
                {
                    "name": "E3",
                    "midi": 52,
                    "time": 54.85715199999996,
                    "velocity": 0.3858267716535433,
                    "duration": 0.8571430000000007
                },
                {
                    "name": "A3",
                    "midi": 57,
                    "time": 54.85715199999996,
                    "velocity": 0.3858267716535433,
                    "duration": 0.8571430000000007
                },
                {
                    "name": "C#4",
                    "midi": 61,
                    "time": 54.85715199999996,
                    "velocity": 0.4645669291338583,
                    "duration": 0.8571430000000007
                },
                {
                    "name": "E2",
                    "midi": 40,
                    "time": 55.71429499999996,
                    "velocity": 0.33070866141732286,
                    "duration": 0.8571430000000007
                },
                {
                    "name": "E3",
                    "midi": 52,
                    "time": 55.71429499999996,
                    "velocity": 0.3937007874015748,
                    "duration": 0.8571430000000007
                },
                {
                    "name": "A2",
                    "midi": 45,
                    "time": 56.57143799999996,
                    "velocity": 0.2677165354330709,
                    "duration": 1.2857144999999974
                },
                {
                    "name": "E3",
                    "midi": 52,
                    "time": 56.57143799999996,
                    "velocity": 0.3228346456692913,
                    "duration": 1.2857144999999974
                },
                {
                    "name": "E3",
                    "midi": 52,
                    "time": 57.857152499999955,
                    "velocity": 0.23622047244094488,
                    "duration": 0.41071435416666446
                },
                {
                    "name": "C#3",
                    "midi": 49,
                    "time": 58.28572399999995,
                    "velocity": 0.2677165354330709,
                    "duration": 0.4285714999999968
                },
                {
                    "name": "A2",
                    "midi": 45,
                    "time": 58.71429549999995,
                    "velocity": 0.2677165354330709,
                    "duration": 0.3035714791666635
                },
                {
                    "name": "A2",
                    "midi": 45,
                    "time": 59.035724124999945,
                    "velocity": 0.2125984251968504,
                    "duration": 0.10714287500000097
                },
                {
                    "name": "E3",
                    "midi": 52,
                    "time": 59.142866999999946,
                    "velocity": 0.25984251968503935,
                    "duration": 1.2678573541666651
                },
                {
                    "name": "E3",
                    "midi": 52,
                    "time": 60.42858149999994,
                    "velocity": 0.25984251968503935,
                    "duration": 0.41071435416666446
                },
                {
                    "name": "C#3",
                    "midi": 49,
                    "time": 60.85715299999994,
                    "velocity": 0.29133858267716534,
                    "duration": 0.4285714999999968
                },
                {
                    "name": "A#2",
                    "midi": 46,
                    "time": 61.28572449999994,
                    "velocity": 0.29133858267716534,
                    "duration": 0.3035714791666635
                },
                {
                    "name": "A#2",
                    "midi": 46,
                    "time": 61.60715312499993,
                    "velocity": 0.2283464566929134,
                    "duration": 0.10714287500000097
                },
                {
                    "name": "E3",
                    "midi": 52,
                    "time": 61.71429599999993,
                    "velocity": 0.28346456692913385,
                    "duration": 1.2678573541666651
                },
                {
                    "name": "E3",
                    "midi": 52,
                    "time": 63.00001049999993,
                    "velocity": 0.28346456692913385,
                    "duration": 0.41071435416666446
                },
                {
                    "name": "D3",
                    "midi": 50,
                    "time": 63.42858199999993,
                    "velocity": 0.33858267716535434,
                    "duration": 0.4285714999999968
                },
                {
                    "name": "B2",
                    "midi": 47,
                    "time": 63.857153499999924,
                    "velocity": 0.36220472440944884,
                    "duration": 0.3035714791666635
                },
                {
                    "name": "B2",
                    "midi": 47,
                    "time": 64.17858212499992,
                    "velocity": 0.29133858267716534,
                    "duration": 0.10714287499999386
                },
                {
                    "name": "F#3",
                    "midi": 54,
                    "time": 64.28572499999991,
                    "velocity": 0.4251968503937008,
                    "duration": 0.38571435000000065
                },
                {
                    "name": "E3",
                    "midi": 52,
                    "time": 64.71429649999992,
                    "velocity": 0.3543307086614173,
                    "duration": 0.38571435000000065
                },
                {
                    "name": "F#3",
                    "midi": 54,
                    "time": 64.71429649999992,
                    "velocity": 0.4251968503937008,
                    "duration": 0.38571435000000065
                },
                {
                    "name": "D3",
                    "midi": 50,
                    "time": 65.14286799999992,
                    "velocity": 0.3464566929133858,
                    "duration": 0.38571435000000065
                },
                {
                    "name": "F#3",
                    "midi": 54,
                    "time": 65.14286799999992,
                    "velocity": 0.4094488188976378,
                    "duration": 0.38571435000000065
                },
                {
                    "name": "A#2",
                    "midi": 46,
                    "time": 65.57143949999993,
                    "velocity": 0.3228346456692913,
                    "duration": 0.38571435000000065
                },
                {
                    "name": "F#3",
                    "midi": 54,
                    "time": 65.57143949999993,
                    "velocity": 0.3858267716535433,
                    "duration": 0.38571435000000065
                },
                {
                    "name": "B2",
                    "midi": 47,
                    "time": 66.00001099999993,
                    "velocity": 0.2992125984251969,
                    "duration": 0.38571435000000065
                },
                {
                    "name": "F#3",
                    "midi": 54,
                    "time": 66.00001099999993,
                    "velocity": 0.3543307086614173,
                    "duration": 0.38571435000000065
                },
                {
                    "name": "F2",
                    "midi": 41,
                    "time": 66.42858249999993,
                    "velocity": 0.3543307086614173,
                    "duration": 0.38571435000000065
                },
                {
                    "name": "D3",
                    "midi": 50,
                    "time": 66.42858249999993,
                    "velocity": 0.41732283464566927,
                    "duration": 0.38571435000000065
                },
                {
                    "name": "E2",
                    "midi": 40,
                    "time": 66.85715399999994,
                    "velocity": 0.30708661417322836,
                    "duration": 1.2857144999999974
                },
                {
                    "name": "E3",
                    "midi": 52,
                    "time": 66.85715399999994,
                    "velocity": 0.36220472440944884,
                    "duration": 1.2857144999999974
                },
                {
                    "name": "E3",
                    "midi": 52,
                    "time": 68.14286849999993,
                    "velocity": 0.23622047244094488,
                    "duration": 0.41071435416667157
                },
                {
                    "name": "B2",
                    "midi": 47,
                    "time": 68.57143999999994,
                    "velocity": 0.2677165354330709,
                    "duration": 0.4285715000000039
                },
                {
                    "name": "G#2",
                    "midi": 44,
                    "time": 69.00001149999994,
                    "velocity": 0.2677165354330709,
                    "duration": 0.3035714791666635
                },
                {
                    "name": "G#2",
                    "midi": 44,
                    "time": 69.32144012499994,
                    "velocity": 0.2125984251968504,
                    "duration": 0.10714287499999386
                },
                {
                    "name": "E3",
                    "midi": 52,
                    "time": 69.42858299999993,
                    "velocity": 0.25984251968503935,
                    "duration": 1.2678573541666651
                },
                {
                    "name": "E3",
                    "midi": 52,
                    "time": 70.71429749999993,
                    "velocity": 0.25984251968503935,
                    "duration": 0.41071435416667157
                },
                {
                    "name": "C3",
                    "midi": 48,
                    "time": 71.14286899999993,
                    "velocity": 0.29133858267716534,
                    "duration": 0.4285715000000039
                },
                {
                    "name": "A2",
                    "midi": 45,
                    "time": 71.57144049999994,
                    "velocity": 0.29133858267716534,
                    "duration": 0.3035714791666635
                },
                {
                    "name": "A2",
                    "midi": 45,
                    "time": 71.89286912499993,
                    "velocity": 0.2283464566929134,
                    "duration": 0.10714287499999386
                },
                {
                    "name": "E3",
                    "midi": 52,
                    "time": 72.00001199999993,
                    "velocity": 0.28346456692913385,
                    "duration": 1.2678573541666651
                },
                {
                    "name": "E3",
                    "midi": 52,
                    "time": 73.28572649999992,
                    "velocity": 0.28346456692913385,
                    "duration": 0.41071435416667157
                },
                {
                    "name": "C#3",
                    "midi": 49,
                    "time": 73.71429799999993,
                    "velocity": 0.33858267716535434,
                    "duration": 0.4285715000000039
                },
                {
                    "name": "A#2",
                    "midi": 46,
                    "time": 74.14286949999993,
                    "velocity": 0.36220472440944884,
                    "duration": 0.3035714791666635
                },
                {
                    "name": "A#2",
                    "midi": 46,
                    "time": 74.46429812499993,
                    "velocity": 0.29133858267716534,
                    "duration": 0.10714287499999386
                },
                {
                    "name": "F3",
                    "midi": 53,
                    "time": 74.57144099999992,
                    "velocity": 0.4251968503937008,
                    "duration": 0.38571435000000065
                },
                {
                    "name": "D#3",
                    "midi": 51,
                    "time": 75.00001249999993,
                    "velocity": 0.3543307086614173,
                    "duration": 0.38571435000000065
                },
                {
                    "name": "F3",
                    "midi": 53,
                    "time": 75.00001249999993,
                    "velocity": 0.4251968503937008,
                    "duration": 0.38571435000000065
                },
                {
                    "name": "D3",
                    "midi": 50,
                    "time": 75.42858399999993,
                    "velocity": 0.3464566929133858,
                    "duration": 0.38571435000000065
                },
                {
                    "name": "F3",
                    "midi": 53,
                    "time": 75.42858399999993,
                    "velocity": 0.4094488188976378,
                    "duration": 0.38571435000000065
                },
                {
                    "name": "A2",
                    "midi": 45,
                    "time": 75.85715549999993,
                    "velocity": 0.3228346456692913,
                    "duration": 0.38571435000000065
                },
                {
                    "name": "F3",
                    "midi": 53,
                    "time": 75.85715549999993,
                    "velocity": 0.3858267716535433,
                    "duration": 0.38571435000000065
                },
                {
                    "name": "A#2",
                    "midi": 46,
                    "time": 76.28572699999994,
                    "velocity": 0.2992125984251969,
                    "duration": 0.38571435000000065
                },
                {
                    "name": "F3",
                    "midi": 53,
                    "time": 76.28572699999994,
                    "velocity": 0.3543307086614173,
                    "duration": 0.38571435000000065
                },
                {
                    "name": "C3",
                    "midi": 48,
                    "time": 76.71429849999994,
                    "velocity": 0.3543307086614173,
                    "duration": 0.38571435000000065
                },
                {
                    "name": "F3",
                    "midi": 53,
                    "time": 76.71429849999994,
                    "velocity": 0.41732283464566927,
                    "duration": 0.38571435000000065
                },
                {
                    "name": "C3",
                    "midi": 48,
                    "time": 77.14286999999995,
                    "velocity": 0.30708661417322836,
                    "duration": 0.8571429999999935
                },
                {
                    "name": "F3",
                    "midi": 53,
                    "time": 77.14286999999995,
                    "velocity": 0.36220472440944884,
                    "duration": 1.2857144999999974
                },
                {
                    "name": "A#2",
                    "midi": 46,
                    "time": 78.00001299999994,
                    "velocity": 0.30708661417322836,
                    "duration": 0.39285720833333926
                },
                {
                    "name": "F2",
                    "midi": 41,
                    "time": 78.42858449999994,
                    "velocity": 0.3937007874015748,
                    "duration": 0.40714292500000226
                },
                {
                    "name": "F3",
                    "midi": 53,
                    "time": 78.42858449999994,
                    "velocity": 0.4645669291338583,
                    "duration": 0.40714292500000226
                },
                {
                    "name": "G2",
                    "midi": 43,
                    "time": 78.85715599999995,
                    "velocity": 0.4251968503937008,
                    "duration": 0.40714292500000226
                },
                {
                    "name": "F3",
                    "midi": 53,
                    "time": 78.85715599999995,
                    "velocity": 0.4251968503937008,
                    "duration": 0.40714292500000226
                },
                {
                    "name": "G3",
                    "midi": 55,
                    "time": 78.85715599999995,
                    "velocity": 0.5039370078740157,
                    "duration": 0.40714292500000226
                },
                {
                    "name": "A2",
                    "midi": 45,
                    "time": 79.28572749999995,
                    "velocity": 0.4566929133858268,
                    "duration": 0.38571435000000065
                },
                {
                    "name": "F3",
                    "midi": 53,
                    "time": 79.28572749999995,
                    "velocity": 0.4566929133858268,
                    "duration": 0.38571435000000065
                },
                {
                    "name": "A3",
                    "midi": 57,
                    "time": 79.28572749999995,
                    "velocity": 0.5433070866141733,
                    "duration": 0.38571435000000065
                },
                {
                    "name": "A#2",
                    "midi": 46,
                    "time": 79.71429899999995,
                    "velocity": 0.49606299212598426,
                    "duration": 1.2678573541666651
                },
                {
                    "name": "F3",
                    "midi": 53,
                    "time": 79.71429899999995,
                    "velocity": 0.49606299212598426,
                    "duration": 1.2857144999999974
                },
                {
                    "name": "A#3",
                    "midi": 58,
                    "time": 79.71429899999995,
                    "velocity": 0.5826771653543307,
                    "duration": 1.2678573541666651
                },
                {
                    "name": "D3",
                    "midi": 50,
                    "time": 81.00001349999995,
                    "velocity": 0.3464566929133858,
                    "duration": 0.4285715000000039
                },
                {
                    "name": "A#3",
                    "midi": 58,
                    "time": 81.00001349999995,
                    "velocity": 0.3464566929133858,
                    "duration": 0.8571430000000078
                },
                {
                    "name": "D4",
                    "midi": 62,
                    "time": 81.00001349999995,
                    "velocity": 0.41732283464566927,
                    "duration": 0.8571430000000078
                },
                {
                    "name": "F3",
                    "midi": 53,
                    "time": 81.42858499999996,
                    "velocity": 0.36220472440944884,
                    "duration": 0.4285715000000039
                },
                {
                    "name": "F3",
                    "midi": 53,
                    "time": 81.85715649999996,
                    "velocity": 0.2992125984251969,
                    "duration": 0.4285715000000039
                },
                {
                    "name": "C4",
                    "midi": 60,
                    "time": 81.85715649999996,
                    "velocity": 0.2992125984251969,
                    "duration": 0.4285715000000039
                },
                {
                    "name": "D#4",
                    "midi": 63,
                    "time": 81.85715649999996,
                    "velocity": 0.3543307086614173,
                    "duration": 0.38571435000000065
                },
                {
                    "name": "G3",
                    "midi": 55,
                    "time": 82.28572799999996,
                    "velocity": 0.2755905511811024,
                    "duration": 1.2857144999999974
                },
                {
                    "name": "A#3",
                    "midi": 58,
                    "time": 82.28572799999996,
                    "velocity": 0.2755905511811024,
                    "duration": 1.2678573541666651
                },
                {
                    "name": "D4",
                    "midi": 62,
                    "time": 82.28572799999996,
                    "velocity": 0.33070866141732286,
                    "duration": 1.2678573541666651
                },
                {
                    "name": "A2",
                    "midi": 45,
                    "time": 83.57144249999996,
                    "velocity": 0.25196850393700787,
                    "duration": 0.41071435416667157
                },
                {
                    "name": "F3",
                    "midi": 53,
                    "time": 83.57144249999996,
                    "velocity": 0.2992125984251969,
                    "duration": 0.8392858541666754
                },
                {
                    "name": "A#2",
                    "midi": 46,
                    "time": 84.00001399999996,
                    "velocity": 0.2204724409448819,
                    "duration": 0.41071435416667157
                },
                {
                    "name": "C3",
                    "midi": 48,
                    "time": 84.42858549999997,
                    "velocity": 0.1968503937007874,
                    "duration": 0.4285715000000039
                },
                {
                    "name": "F3",
                    "midi": 53,
                    "time": 84.42858549999997,
                    "velocity": 0.2440944881889764,
                    "duration": 0.38571435000000065
                },
                {
                    "name": "A#2",
                    "midi": 46,
                    "time": 84.85715699999997,
                    "velocity": 0.2125984251968504,
                    "duration": 1.2678573541666651
                },
                {
                    "name": "F3",
                    "midi": 53,
                    "time": 84.85715699999997,
                    "velocity": 0.25984251968503935,
                    "duration": 1.2678573541666651
                },
                {
                    "name": "F2",
                    "midi": 41,
                    "time": 86.14287149999997,
                    "velocity": 0.2125984251968504,
                    "duration": 0.41071435416667157
                },
                {
                    "name": "F3",
                    "midi": 53,
                    "time": 86.14287149999997,
                    "velocity": 0.25196850393700787,
                    "duration": 0.4285715000000039
                },
                {
                    "name": "A#2",
                    "midi": 46,
                    "time": 86.57144299999997,
                    "velocity": 0.18110236220472442,
                    "duration": 0.41071435416667157
                },
                {
                    "name": "F3",
                    "midi": 53,
                    "time": 86.57144299999997,
                    "velocity": 0.2204724409448819,
                    "duration": 0.4285715000000039
                },
                {
                    "name": "C3",
                    "midi": 48,
                    "time": 87.00001449999998,
                    "velocity": 0.18110236220472442,
                    "duration": 0.4285715000000039
                },
                {
                    "name": "F3",
                    "midi": 53,
                    "time": 87.00001449999998,
                    "velocity": 0.2204724409448819,
                    "duration": 0.38571435000000065
                },
                {
                    "name": "A#2",
                    "midi": 46,
                    "time": 87.42858599999998,
                    "velocity": 0.2047244094488189,
                    "duration": 0.39285720833333926
                },
                {
                    "name": "F3",
                    "midi": 53,
                    "time": 87.42858599999998,
                    "velocity": 0.2440944881889764,
                    "duration": 0.39285720833333926
                },
                {
                    "name": "F3",
                    "midi": 53,
                    "time": 87.85715749999999,
                    "velocity": 0.2125984251968504,
                    "duration": 0.41071435416667157
                },
                {
                    "name": "F4",
                    "midi": 65,
                    "time": 87.85715749999999,
                    "velocity": 0.25196850393700787,
                    "duration": 0.4285715000000039
                },
                {
                    "name": "A#3",
                    "midi": 58,
                    "time": 88.28572899999999,
                    "velocity": 0.18110236220472442,
                    "duration": 0.41071435416667157
                },
                {
                    "name": "F4",
                    "midi": 65,
                    "time": 88.28572899999999,
                    "velocity": 0.2204724409448819,
                    "duration": 0.4285715000000039
                },
                {
                    "name": "C4",
                    "midi": 60,
                    "time": 88.7143005,
                    "velocity": 0.18110236220472442,
                    "duration": 0.4285715000000039
                },
                {
                    "name": "F4",
                    "midi": 65,
                    "time": 88.7143005,
                    "velocity": 0.2204724409448819,
                    "duration": 0.38571435000000065
                },
                {
                    "name": "A#3",
                    "midi": 58,
                    "time": 89.142872,
                    "velocity": 0.2047244094488189,
                    "duration": 0.39285720833333926
                },
                {
                    "name": "F4",
                    "midi": 65,
                    "time": 89.142872,
                    "velocity": 0.2440944881889764,
                    "duration": 0.39285720833333926
                },
                {
                    "name": "F2",
                    "midi": 41,
                    "time": 89.5714435,
                    "velocity": 0.3228346456692913,
                    "duration": 0.38571435000000065
                },
                {
                    "name": "F3",
                    "midi": 53,
                    "time": 89.5714435,
                    "velocity": 0.3858267716535433,
                    "duration": 0.8392858541666754
                },
                {
                    "name": "A#2",
                    "midi": 46,
                    "time": 90.000015,
                    "velocity": 0.3543307086614173,
                    "duration": 0.38571435000000065
                },
                {
                    "name": "C3",
                    "midi": 48,
                    "time": 90.42858650000001,
                    "velocity": 0.3543307086614173,
                    "duration": 0.38571435000000065
                },
                {
                    "name": "F3",
                    "midi": 53,
                    "time": 90.42858650000001,
                    "velocity": 0.41732283464566927,
                    "duration": 0.8571430000000078
                },
                {
                    "name": "A#2",
                    "midi": 46,
                    "time": 90.85715800000001,
                    "velocity": 0.36220472440944884,
                    "duration": 0.41071435416667157
                },
                {
                    "name": "A#2",
                    "midi": 46,
                    "time": 91.28572950000002,
                    "velocity": 0.3700787401574803,
                    "duration": 0.38571435000000065
                },
                {
                    "name": "A2",
                    "midi": 45,
                    "time": 91.71430100000002,
                    "velocity": 0.3937007874015748,
                    "duration": 0.38571435000000065
                },
                {
                    "name": "G#2",
                    "midi": 44,
                    "time": 92.14287250000002,
                    "velocity": 0.41732283464566927,
                    "duration": 0.38571435000000065
                },
                {
                    "name": "A2",
                    "midi": 45,
                    "time": 92.57144400000003,
                    "velocity": 0.4015748031496063,
                    "duration": 0.4285715000000039
                },
                {
                    "name": "D2",
                    "midi": 38,
                    "time": 93.00001550000003,
                    "velocity": 0.3700787401574803,
                    "duration": 0.4285715000000039
                },
                {
                    "name": "D3",
                    "midi": 50,
                    "time": 93.00001550000003,
                    "velocity": 0.4409448818897638,
                    "duration": 0.4285715000000039
                },
                {
                    "name": "E2",
                    "midi": 40,
                    "time": 93.42858700000004,
                    "velocity": 0.3858267716535433,
                    "duration": 0.8571429999999935
                },
                {
                    "name": "C#3",
                    "midi": 49,
                    "time": 93.42858700000004,
                    "velocity": 0.4645669291338583,
                    "duration": 0.8571429999999935
                },
                {
                    "name": "E2",
                    "midi": 40,
                    "time": 94.28573000000003,
                    "velocity": 0.33070866141732286,
                    "duration": 0.8571429999999935
                },
                {
                    "name": "D3",
                    "midi": 50,
                    "time": 94.28573000000003,
                    "velocity": 0.3937007874015748,
                    "duration": 0.8571429999999935
                },
                {
                    "name": "A1",
                    "midi": 33,
                    "time": 95.14287300000002,
                    "velocity": 0.2677165354330709,
                    "duration": 1.2857144999999974
                },
                {
                    "name": "A2",
                    "midi": 45,
                    "time": 95.14287300000002,
                    "velocity": 0.3228346456692913,
                    "duration": 1.2857144999999974
                },
                {
                    "name": "E4",
                    "midi": 64,
                    "time": 96.42858750000002,
                    "velocity": 0.30708661417322836,
                    "duration": 0.4285715000000039
                },
                {
                    "name": "A3",
                    "midi": 57,
                    "time": 96.42858750000002,
                    "velocity": 0.25984251968503935,
                    "duration": 0.4285715000000039
                },
                {
                    "name": "F#4",
                    "midi": 66,
                    "time": 96.85715900000002,
                    "velocity": 0.3228346456692913,
                    "duration": 0.38571435000000065
                },
                {
                    "name": "A3",
                    "midi": 57,
                    "time": 96.85715900000002,
                    "velocity": 0.2677165354330709,
                    "duration": 0.38571435000000065
                },
                {
                    "name": "D#4",
                    "midi": 63,
                    "time": 97.28573050000003,
                    "velocity": 0.2992125984251969,
                    "duration": 0.38571435000000065
                },
                {
                    "name": "A3",
                    "midi": 57,
                    "time": 97.28573050000003,
                    "velocity": 0.25196850393700787,
                    "duration": 0.38571435000000065
                },
                {
                    "name": "E4",
                    "midi": 64,
                    "time": 97.71430200000003,
                    "velocity": 0.3228346456692913,
                    "duration": 1.2857144999999974
                },
                {
                    "name": "A3",
                    "midi": 57,
                    "time": 97.71430200000003,
                    "velocity": 0.2677165354330709,
                    "duration": 1.2857144999999974
                },
                {
                    "name": "A3",
                    "midi": 57,
                    "time": 99.00001650000003,
                    "velocity": 0.31496062992125984,
                    "duration": 0.8571430000000078
                },
                {
                    "name": "E4",
                    "midi": 64,
                    "time": 99.00001650000003,
                    "velocity": 0.31496062992125984,
                    "duration": 0.8571430000000078
                },
                {
                    "name": "A4",
                    "midi": 69,
                    "time": 99.00001650000003,
                    "velocity": 0.3858267716535433,
                    "duration": 0.4285715000000039
                },
                {
                    "name": "B4",
                    "midi": 71,
                    "time": 99.42858800000003,
                    "velocity": 0.4015748031496063,
                    "duration": 0.4285715000000039
                },
                {
                    "name": "A3",
                    "midi": 57,
                    "time": 99.85715950000004,
                    "velocity": 0.3543307086614173,
                    "duration": 0.38571435000000065
                },
                {
                    "name": "F4",
                    "midi": 65,
                    "time": 99.85715950000004,
                    "velocity": 0.3543307086614173,
                    "duration": 0.38571435000000065
                },
                {
                    "name": "A4",
                    "midi": 69,
                    "time": 99.85715950000004,
                    "velocity": 0.4251968503937008,
                    "duration": 0.38571435000000065
                },
                {
                    "name": "D4",
                    "midi": 62,
                    "time": 100.28573100000004,
                    "velocity": 0.2677165354330709,
                    "duration": 1.2857144999999974
                },
                {
                    "name": "F#4",
                    "midi": 66,
                    "time": 100.28573100000004,
                    "velocity": 0.33070866141732286,
                    "duration": 1.2857144999999974
                },
                {
                    "name": "A#4",
                    "midi": 70,
                    "time": 100.28573100000004,
                    "velocity": 0.3937007874015748,
                    "duration": 0.8571429999999935
                },
                {
                    "name": "B4",
                    "midi": 71,
                    "time": 101.14287400000003,
                    "velocity": 0.3464566929133858,
                    "duration": 0.4285715000000039
                },
                {
                    "name": "D3",
                    "midi": 50,
                    "time": 101.57144550000004,
                    "velocity": 0.25196850393700787,
                    "duration": 0.4285715000000039
                },
                {
                    "name": "F#3",
                    "midi": 54,
                    "time": 101.57144550000004,
                    "velocity": 0.2992125984251969,
                    "duration": 0.4285715000000039
                },
                {
                    "name": "E3",
                    "midi": 52,
                    "time": 102.00001700000004,
                    "velocity": 0.2204724409448819,
                    "duration": 0.4285715000000039
                },
                {
                    "name": "G#3",
                    "midi": 56,
                    "time": 102.00001700000004,
                    "velocity": 0.2677165354330709,
                    "duration": 0.4285715000000039
                },
                {
                    "name": "F#3",
                    "midi": 54,
                    "time": 102.42858850000005,
                    "velocity": 0.2204724409448819,
                    "duration": 0.38571435000000065
                },
                {
                    "name": "A3",
                    "midi": 57,
                    "time": 102.42858850000005,
                    "velocity": 0.2677165354330709,
                    "duration": 0.38571435000000065
                },
                {
                    "name": "G#2",
                    "midi": 44,
                    "time": 102.85716000000005,
                    "velocity": 0.2440944881889764,
                    "duration": 1.2678573541666651
                },
                {
                    "name": "E3",
                    "midi": 52,
                    "time": 102.85716000000005,
                    "velocity": 0.29133858267716534,
                    "duration": 1.2678573541666651
                },
                {
                    "name": "G#3",
                    "midi": 56,
                    "time": 104.14287450000005,
                    "velocity": 0.30708661417322836,
                    "duration": 0.4285715000000039
                },
                {
                    "name": "E4",
                    "midi": 64,
                    "time": 104.14287450000005,
                    "velocity": 0.36220472440944884,
                    "duration": 0.4285715000000039
                },
                {
                    "name": "G#3",
                    "midi": 56,
                    "time": 104.57144600000005,
                    "velocity": 0.2755905511811024,
                    "duration": 0.38571435000000065
                },
                {
                    "name": "F#4",
                    "midi": 66,
                    "time": 104.57144600000005,
                    "velocity": 0.33070866141732286,
                    "duration": 0.38571435000000065
                },
                {
                    "name": "G#3",
                    "midi": 56,
                    "time": 105.00001750000006,
                    "velocity": 0.25984251968503935,
                    "duration": 0.38571435000000065
                },
                {
                    "name": "E4",
                    "midi": 64,
                    "time": 105.00001750000006,
                    "velocity": 0.31496062992125984,
                    "duration": 0.38571435000000065
                },
                {
                    "name": "A3",
                    "midi": 57,
                    "time": 105.42858900000006,
                    "velocity": 0.30708661417322836,
                    "duration": 1.2857144999999974
                },
                {
                    "name": "F#4",
                    "midi": 66,
                    "time": 105.42858900000006,
                    "velocity": 0.36220472440944884,
                    "duration": 0.8571429999999935
                },
                {
                    "name": "E4",
                    "midi": 64,
                    "time": 106.28573200000005,
                    "velocity": 0.3228346456692913,
                    "duration": 0.41071435416667157
                },
                {
                    "name": "B2",
                    "midi": 47,
                    "time": 106.71430350000006,
                    "velocity": 0.3779527559055118,
                    "duration": 0.4285715000000039
                },
                {
                    "name": "C#3",
                    "midi": 49,
                    "time": 106.71430350000006,
                    "velocity": 0.44881889763779526,
                    "duration": 0.4285715000000039
                },
                {
                    "name": "C#3",
                    "midi": 49,
                    "time": 107.14287500000006,
                    "velocity": 0.4015748031496063,
                    "duration": 0.41071435416667157
                },
                {
                    "name": "A2",
                    "midi": 45,
                    "time": 107.14287500000006,
                    "velocity": 0.4015748031496063,
                    "duration": 0.38571435000000065
                },
                {
                    "name": "F#3",
                    "midi": 54,
                    "time": 107.14287500000006,
                    "velocity": 0.48031496062992124,
                    "duration": 0.38571435000000065
                },
                {
                    "name": "C#3",
                    "midi": 49,
                    "time": 107.57144650000006,
                    "velocity": 0.3543307086614173,
                    "duration": 0.4285715000000039
                },
                {
                    "name": "G#2",
                    "midi": 44,
                    "time": 107.57144650000006,
                    "velocity": 0.3543307086614173,
                    "duration": 0.38571435000000065
                },
                {
                    "name": "F3",
                    "midi": 53,
                    "time": 107.57144650000006,
                    "velocity": 0.41732283464566927,
                    "duration": 0.38571435000000065
                },
                {
                    "name": "D3",
                    "midi": 50,
                    "time": 108.00001800000007,
                    "velocity": 0.4409448818897638,
                    "duration": 1.2857144999999974
                },
                {
                    "name": "F#2",
                    "midi": 42,
                    "time": 108.00001800000007,
                    "velocity": 0.4409448818897638,
                    "duration": 1.2857144999999974
                },
                {
                    "name": "A2",
                    "midi": 45,
                    "time": 108.00001800000007,
                    "velocity": 0.4409448818897638,
                    "duration": 1.2678573541666651
                },
                {
                    "name": "F#3",
                    "midi": 54,
                    "time": 108.00001800000007,
                    "velocity": 0.5196850393700787,
                    "duration": 1.2678573541666651
                },
                {
                    "name": "F#3",
                    "midi": 54,
                    "time": 109.28573250000007,
                    "velocity": 0.3464566929133858,
                    "duration": 0.4285715000000039
                },
                {
                    "name": "A3",
                    "midi": 57,
                    "time": 109.28573250000007,
                    "velocity": 0.3464566929133858,
                    "duration": 0.8392858541666754
                },
                {
                    "name": "E3",
                    "midi": 52,
                    "time": 109.71430400000007,
                    "velocity": 0.3858267716535433,
                    "duration": 0.4285715000000039
                },
                {
                    "name": "A3",
                    "midi": 57,
                    "time": 110.14287550000007,
                    "velocity": 0.3543307086614173,
                    "duration": 0.38571435000000065
                },
                {
                    "name": "D3",
                    "midi": 50,
                    "time": 110.57144700000008,
                    "velocity": 0.3779527559055118,
                    "duration": 3.0000004999999987
                },
                {
                    "name": "A#3",
                    "midi": 58,
                    "time": 110.57144700000008,
                    "velocity": 0.3779527559055118,
                    "duration": 2.571428999999995
                },
                {
                    "name": "C#4",
                    "midi": 61,
                    "time": 110.57144700000008,
                    "velocity": 0.44881889763779526,
                    "duration": 2.571428999999995
                },
                {
                    "name": "D4",
                    "midi": 62,
                    "time": 113.14287600000007,
                    "velocity": 0.30708661417322836,
                    "duration": 0.4285715000000039
                },
                {
                    "name": "B3",
                    "midi": 59,
                    "time": 113.14287600000007,
                    "velocity": 0.25984251968503935,
                    "duration": 0.4285715000000039
                },
                {
                    "name": "D3",
                    "midi": 50,
                    "time": 115.71430500000008,
                    "velocity": 0.2283464566929134,
                    "duration": 2.571428999999995
                },
                {
                    "name": "A3",
                    "midi": 57,
                    "time": 115.71430500000008,
                    "velocity": 0.2283464566929134,
                    "duration": 2.571428999999995
                },
                {
                    "name": "G2",
                    "midi": 43,
                    "time": 118.28573400000008,
                    "velocity": 0.2283464566929134,
                    "duration": 0.4285715000000039
                },
                {
                    "name": "G3",
                    "midi": 55,
                    "time": 118.28573400000008,
                    "velocity": 0.25196850393700787,
                    "duration": 0.4285715000000039
                },
                {
                    "name": "B2",
                    "midi": 47,
                    "time": 119.57144850000007,
                    "velocity": 0.44881889763779526,
                    "duration": 0.4285715000000039
                },
                {
                    "name": "A2",
                    "midi": 45,
                    "time": 120.00002000000008,
                    "velocity": 0.4251968503937008,
                    "duration": 0.4285715000000039
                },
                {
                    "name": "C#3",
                    "midi": 49,
                    "time": 120.00002000000008,
                    "velocity": 0.48031496062992124,
                    "duration": 0.4285715000000039
                },
                {
                    "name": "G2",
                    "midi": 43,
                    "time": 120.42859150000008,
                    "velocity": 0.4094488188976378,
                    "duration": 0.38571435000000065
                },
                {
                    "name": "D3",
                    "midi": 50,
                    "time": 120.42859150000008,
                    "velocity": 0.4881889763779528,
                    "duration": 0.38571435000000065
                },
                {
                    "name": "F#2",
                    "midi": 42,
                    "time": 120.85716300000009,
                    "velocity": 0.4645669291338583,
                    "duration": 1.2857144999999974
                },
                {
                    "name": "D3",
                    "midi": 50,
                    "time": 120.85716300000009,
                    "velocity": 0.5511811023622047,
                    "duration": 1.2857144999999974
                },
                {
                    "name": "F#3",
                    "midi": 54,
                    "time": 122.14287750000008,
                    "velocity": 0.2283464566929134,
                    "duration": 0.41071435416667157
                },
                {
                    "name": "A3",
                    "midi": 57,
                    "time": 122.14287750000008,
                    "velocity": 0.3228346456692913,
                    "duration": 0.8392858541666754
                },
                {
                    "name": "E3",
                    "midi": 52,
                    "time": 122.57144900000009,
                    "velocity": 0.1968503937007874,
                    "duration": 0.41071435416667157
                },
                {
                    "name": "G#3",
                    "midi": 56,
                    "time": 122.57144900000009,
                    "velocity": 0.29133858267716534,
                    "duration": 0.4285715000000039
                },
                {
                    "name": "D3",
                    "midi": 50,
                    "time": 123.00002050000009,
                    "velocity": 0.2992125984251969,
                    "duration": 0.38571435000000065
                },
                {
                    "name": "A3",
                    "midi": 57,
                    "time": 123.00002050000009,
                    "velocity": 0.3700787401574803,
                    "duration": 0.38571435000000065
                },
                {
                    "name": "C#3",
                    "midi": 49,
                    "time": 123.4285920000001,
                    "velocity": 0.33070866141732286,
                    "duration": 0.4285715000000039
                },
                {
                    "name": "A3",
                    "midi": 57,
                    "time": 123.4285920000001,
                    "velocity": 0.3937007874015748,
                    "duration": 0.4285715000000039
                },
                {
                    "name": "F#3",
                    "midi": 54,
                    "time": 123.8571635000001,
                    "velocity": 0.31496062992125984,
                    "duration": 0.4285715000000039
                },
                {
                    "name": "B3",
                    "midi": 59,
                    "time": 123.8571635000001,
                    "velocity": 0.3779527559055118,
                    "duration": 0.4285715000000039
                },
                {
                    "name": "A3",
                    "midi": 57,
                    "time": 123.8571635000001,
                    "velocity": 0.31496062992125984,
                    "duration": 0.4285715000000039
                },
                {
                    "name": "A3",
                    "midi": 57,
                    "time": 124.2857350000001,
                    "velocity": 0.36220472440944884,
                    "duration": 0.8571429999999935
                },
                {
                    "name": "E3",
                    "midi": 52,
                    "time": 124.2857350000001,
                    "velocity": 0.36220472440944884,
                    "duration": 0.8392858541666612
                },
                {
                    "name": "C#4",
                    "midi": 61,
                    "time": 124.2857350000001,
                    "velocity": 0.4251968503937008,
                    "duration": 0.8571429999999935
                },
                {
                    "name": "E3",
                    "midi": 52,
                    "time": 125.1428780000001,
                    "velocity": 0.3700787401574803,
                    "duration": 0.8392858541666612
                },
                {
                    "name": "E2",
                    "midi": 40,
                    "time": 125.1428780000001,
                    "velocity": 0.30708661417322836,
                    "duration": 0.8571429999999935
                },
                {
                    "name": "A2",
                    "midi": 45,
                    "time": 126.00002100000009,
                    "velocity": 0.2204724409448819,
                    "duration": 1.2857144999999974
                },
                {
                    "name": "E3",
                    "midi": 52,
                    "time": 126.00002100000009,
                    "velocity": 0.31496062992125984,
                    "duration": 1.2857144999999974
                },
                {
                    "name": "A3",
                    "midi": 57,
                    "time": 128.14287850000008,
                    "velocity": 0.5196850393700787,
                    "duration": 0.21428574999998773
                },
                {
                    "name": "C#4",
                    "midi": 61,
                    "time": 128.35716425000007,
                    "velocity": 0.48031496062992124,
                    "duration": 0.21428574999998773
                },
                {
                    "name": "D4",
                    "midi": 62,
                    "time": 128.57145000000006,
                    "velocity": 0.5196850393700787,
                    "duration": 0.21428574999998773
                },
                {
                    "name": "D3",
                    "midi": 50,
                    "time": 128.78573575000004,
                    "velocity": 0.6062992125984252,
                    "duration": 0.4285715000000039
                },
                {
                    "name": "D2",
                    "midi": 38,
                    "time": 129.21430725000005,
                    "velocity": 0.4645669291338583,
                    "duration": 0.21428574999998773
                },
                {
                    "name": "D3",
                    "midi": 50,
                    "time": 129.42859300000003,
                    "velocity": 0.5118110236220472,
                    "duration": 0.21428574999998773
                },
                {
                    "name": "A3",
                    "midi": 57,
                    "time": 129.8571645,
                    "velocity": 0.5748031496062992,
                    "duration": 0.21428574999998773
                },
                {
                    "name": "C#4",
                    "midi": 61,
                    "time": 130.07145025,
                    "velocity": 0.48031496062992124,
                    "duration": 0.21428574999998773
                },
                {
                    "name": "B3",
                    "midi": 59,
                    "time": 130.28573599999999,
                    "velocity": 0.5118110236220472,
                    "duration": 0.21428574999998773
                },
                {
                    "name": "F#3",
                    "midi": 54,
                    "time": 130.71430749999996,
                    "velocity": 0.5590551181102362,
                    "duration": 0.21428574999998773
                },
                {
                    "name": "A3",
                    "midi": 57,
                    "time": 130.92859324999995,
                    "velocity": 0.49606299212598426,
                    "duration": 0.21428574999998773
                },
                {
                    "name": "G3",
                    "midi": 55,
                    "time": 131.14287899999994,
                    "velocity": 0.5118110236220472,
                    "duration": 0.21428574999998773
                },
                {
                    "name": "G2",
                    "midi": 43,
                    "time": 131.35716474999992,
                    "velocity": 0.5826771653543307,
                    "duration": 0.4285715000000039
                },
                {
                    "name": "G1",
                    "midi": 31,
                    "time": 131.78573624999993,
                    "velocity": 0.5118110236220472,
                    "duration": 0.21428574999998773
                },
                {
                    "name": "G2",
                    "midi": 43,
                    "time": 132.00002199999992,
                    "velocity": 0.5118110236220472,
                    "duration": 0.21428574999998773
                },
                {
                    "name": "B2",
                    "midi": 47,
                    "time": 132.2143077499999,
                    "velocity": 0.4566929133858268,
                    "duration": 0.21428574999998773
                },
                {
                    "name": "G2",
                    "midi": 43,
                    "time": 132.4285934999999,
                    "velocity": 0.48031496062992124,
                    "duration": 0.21428574999998773
                },
                {
                    "name": "F#2",
                    "midi": 42,
                    "time": 132.64287924999988,
                    "velocity": 0.5039370078740157,
                    "duration": 0.21428574999998773
                },
                {
                    "name": "E2",
                    "midi": 40,
                    "time": 132.85716499999987,
                    "velocity": 0.5354330708661418,
                    "duration": 0.21428574999998773
                },
                {
                    "name": "B3",
                    "midi": 59,
                    "time": 133.28573649999984,
                    "velocity": 0.5196850393700787,
                    "duration": 0.21428574999998773
                },
                {
                    "name": "D#4",
                    "midi": 63,
                    "time": 133.50002224999983,
                    "velocity": 0.48031496062992124,
                    "duration": 0.21428574999998773
                },
                {
                    "name": "E4",
                    "midi": 64,
                    "time": 133.71430799999982,
                    "velocity": 0.5196850393700787,
                    "duration": 0.21428574999998773
                },
                {
                    "name": "E3",
                    "midi": 52,
                    "time": 133.9285937499998,
                    "velocity": 0.6062992125984252,
                    "duration": 0.4285715000000039
                },
                {
                    "name": "E2",
                    "midi": 40,
                    "time": 134.3571652499998,
                    "velocity": 0.4645669291338583,
                    "duration": 0.21428574999998773
                },
                {
                    "name": "E3",
                    "midi": 52,
                    "time": 134.5714509999998,
                    "velocity": 0.5118110236220472,
                    "duration": 0.21428574999998773
                },
                {
                    "name": "B3",
                    "midi": 59,
                    "time": 135.00002249999977,
                    "velocity": 0.5748031496062992,
                    "duration": 0.21428574999998773
                },
                {
                    "name": "D4",
                    "midi": 62,
                    "time": 135.21430824999976,
                    "velocity": 0.4881889763779528,
                    "duration": 0.21428574999998773
                },
                {
                    "name": "C#4",
                    "midi": 61,
                    "time": 135.42859399999975,
                    "velocity": 0.5118110236220472,
                    "duration": 0.21428574999998773
                },
                {
                    "name": "G#3",
                    "midi": 56,
                    "time": 135.85716549999972,
                    "velocity": 0.5590551181102362,
                    "duration": 0.21428574999998773
                },
                {
                    "name": "B3",
                    "midi": 59,
                    "time": 136.0714512499997,
                    "velocity": 0.49606299212598426,
                    "duration": 0.21428574999998773
                },
                {
                    "name": "A3",
                    "midi": 57,
                    "time": 136.2857369999997,
                    "velocity": 0.5118110236220472,
                    "duration": 0.21428574999998773
                },
                {
                    "name": "A2",
                    "midi": 45,
                    "time": 136.5000227499997,
                    "velocity": 0.5826771653543307,
                    "duration": 0.4285715000000039
                },
                {
                    "name": "A1",
                    "midi": 33,
                    "time": 136.9285942499997,
                    "velocity": 0.5118110236220472,
                    "duration": 0.21428574999998773
                },
                {
                    "name": "A2",
                    "midi": 45,
                    "time": 137.14287999999968,
                    "velocity": 0.5511811023622047,
                    "duration": 0.6428572499999916
                },
                {
                    "name": "A3",
                    "midi": 57,
                    "time": 137.57145149999968,
                    "velocity": 0.5748031496062992,
                    "duration": 0.21428574999998773
                },
                {
                    "name": "B2",
                    "midi": 47,
                    "time": 137.78573724999967,
                    "velocity": 0.4566929133858268,
                    "duration": 0.21428574999998773
                },
                {
                    "name": "A3",
                    "midi": 57,
                    "time": 137.78573724999967,
                    "velocity": 0.4566929133858268,
                    "duration": 0.42857149999997546
                },
                {
                    "name": "B3",
                    "midi": 59,
                    "time": 137.78573724999967,
                    "velocity": 0.5118110236220472,
                    "duration": 0.21428574999998773
                },
                {
                    "name": "C#3",
                    "midi": 49,
                    "time": 138.00002299999966,
                    "velocity": 0.4330708661417323,
                    "duration": 0.21428574999998773
                },
                {
                    "name": "C#4",
                    "midi": 61,
                    "time": 138.00002299999966,
                    "velocity": 0.5118110236220472,
                    "duration": 0.21428574999998773
                },
                {
                    "name": "D3",
                    "midi": 50,
                    "time": 138.21430874999965,
                    "velocity": 0.49606299212598426,
                    "duration": 0.42857149999997546
                },
                {
                    "name": "D4",
                    "midi": 62,
                    "time": 138.42859449999963,
                    "velocity": 0.5590551181102362,
                    "duration": 0.21428574999998773
                },
                {
                    "name": "D4",
                    "midi": 62,
                    "time": 138.64288024999962,
                    "velocity": 0.48031496062992124,
                    "duration": 0.21428574999998773
                },
                {
                    "name": "E3",
                    "midi": 52,
                    "time": 138.64288024999962,
                    "velocity": 0.48031496062992124,
                    "duration": 0.21428574999998773
                },
                {
                    "name": "E4",
                    "midi": 64,
                    "time": 138.64288024999962,
                    "velocity": 0.49606299212598426,
                    "duration": 0.21428574999998773
                },
                {
                    "name": "F#3",
                    "midi": 54,
                    "time": 138.8571659999996,
                    "velocity": 0.4330708661417323,
                    "duration": 0.21428574999998773
                },
                {
                    "name": "D4",
                    "midi": 62,
                    "time": 138.8571659999996,
                    "velocity": 0.4330708661417323,
                    "duration": 0.21428574999998773
                },
                {
                    "name": "F#4",
                    "midi": 66,
                    "time": 138.8571659999996,
                    "velocity": 0.5118110236220472,
                    "duration": 0.21428574999998773
                },
                {
                    "name": "F#3",
                    "midi": 54,
                    "time": 139.28573749999958,
                    "velocity": 0.4881889763779528,
                    "duration": 0.6375001062500019
                },
                {
                    "name": "D4",
                    "midi": 62,
                    "time": 139.28573749999958,
                    "velocity": 0.4881889763779528,
                    "duration": 0.6375001062500019
                },
                {
                    "name": "F#4",
                    "midi": 66,
                    "time": 139.28573749999958,
                    "velocity": 0.5826771653543307,
                    "duration": 0.6375001062500019
                },
                {
                    "name": "F#4",
                    "midi": 66,
                    "time": 139.92859474999958,
                    "velocity": 0.5590551181102362,
                    "duration": 0.21428574999998773
                },
                {
                    "name": "F#3",
                    "midi": 54,
                    "time": 139.92859474999958,
                    "velocity": 0.47244094488188976,
                    "duration": 0.21428574999998773
                },
                {
                    "name": "A4",
                    "midi": 69,
                    "time": 140.14288049999956,
                    "velocity": 0.5826771653543307,
                    "duration": 0.21428574999998773
                },
                {
                    "name": "A3",
                    "midi": 57,
                    "time": 140.14288049999956,
                    "velocity": 0.4881889763779528,
                    "duration": 0.21428574999998773
                },
                {
                    "name": "F#4",
                    "midi": 66,
                    "time": 140.35716624999955,
                    "velocity": 0.5511811023622047,
                    "duration": 0.21428574999998773
                },
                {
                    "name": "F#3",
                    "midi": 54,
                    "time": 140.35716624999955,
                    "velocity": 0.4645669291338583,
                    "duration": 0.21428574999998773
                },
                {
                    "name": "D3",
                    "midi": 50,
                    "time": 140.57145199999954,
                    "velocity": 0.4881889763779528,
                    "duration": 0.21428574999998773
                },
                {
                    "name": "D4",
                    "midi": 62,
                    "time": 140.57145199999954,
                    "velocity": 0.5826771653543307,
                    "duration": 0.21428574999998773
                },
                {
                    "name": "C#3",
                    "midi": 49,
                    "time": 140.78573774999953,
                    "velocity": 0.4566929133858268,
                    "duration": 0.21428574999998773
                },
                {
                    "name": "C#4",
                    "midi": 61,
                    "time": 140.78573774999953,
                    "velocity": 0.5354330708661418,
                    "duration": 0.21428574999998773
                },
                {
                    "name": "B2",
                    "midi": 47,
                    "time": 141.00002349999951,
                    "velocity": 0.47244094488188976,
                    "duration": 0.21428574999998773
                },
                {
                    "name": "B3",
                    "midi": 59,
                    "time": 141.00002349999951,
                    "velocity": 0.5590551181102362,
                    "duration": 0.21428574999998773
                },
                {
                    "name": "A2",
                    "midi": 45,
                    "time": 141.2143092499995,
                    "velocity": 0.4566929133858268,
                    "duration": 0.21428574999998773
                },
                {
                    "name": "A3",
                    "midi": 57,
                    "time": 141.2143092499995,
                    "velocity": 0.5354330708661418,
                    "duration": 0.21428574999998773
                },
                {
                    "name": "G2",
                    "midi": 43,
                    "time": 141.4285949999995,
                    "velocity": 0.4330708661417323,
                    "duration": 0.21428574999998773
                },
                {
                    "name": "D3",
                    "midi": 50,
                    "time": 141.4285949999995,
                    "velocity": 0.4330708661417323,
                    "duration": 0.21428574999998773
                },
                {
                    "name": "G3",
                    "midi": 55,
                    "time": 141.4285949999995,
                    "velocity": 0.5118110236220472,
                    "duration": 0.21428574999998773
                },
                {
                    "name": "G2",
                    "midi": 43,
                    "time": 141.85716649999947,
                    "velocity": 0.4881889763779528,
                    "duration": 0.6375001062500019
                },
                {
                    "name": "D3",
                    "midi": 50,
                    "time": 141.85716649999947,
                    "velocity": 0.4881889763779528,
                    "duration": 0.6375001062500019
                },
                {
                    "name": "G3",
                    "midi": 55,
                    "time": 141.85716649999947,
                    "velocity": 0.5826771653543307,
                    "duration": 0.6375001062500019
                },
                {
                    "name": "D3",
                    "midi": 50,
                    "time": 142.50002374999946,
                    "velocity": 0.5590551181102362,
                    "duration": 0.21428574999998773
                },
                {
                    "name": "G2",
                    "midi": 43,
                    "time": 142.50002374999946,
                    "velocity": 0.47244094488188976,
                    "duration": 0.21428574999998773
                },
                {
                    "name": "G3",
                    "midi": 55,
                    "time": 142.71430949999944,
                    "velocity": 0.6456692913385826,
                    "duration": 0.21428574999998773
                },
                {
                    "name": "D3",
                    "midi": 50,
                    "time": 142.92859524999943,
                    "velocity": 0.4645669291338583,
                    "duration": 0.21428574999998773
                },
                {
                    "name": "F#3",
                    "midi": 54,
                    "time": 142.92859524999943,
                    "velocity": 0.5511811023622047,
                    "duration": 0.21428574999998773
                },
                {
                    "name": "F#2",
                    "midi": 42,
                    "time": 142.92859524999943,
                    "velocity": 0.4645669291338583,
                    "duration": 0.21428574999998773
                },
                {
                    "name": "G2",
                    "midi": 43,
                    "time": 143.14288099999942,
                    "velocity": 0.4881889763779528,
                    "duration": 0.20357146250000824
                },
                {
                    "name": "D3",
                    "midi": 50,
                    "time": 143.14288099999942,
                    "velocity": 0.4881889763779528,
                    "duration": 0.20357146250000824
                },
                {
                    "name": "G3",
                    "midi": 55,
                    "time": 143.14288099999942,
                    "velocity": 0.5826771653543307,
                    "duration": 0.20357146250000824
                },
                {
                    "name": "G2",
                    "midi": 43,
                    "time": 143.35716674999944,
                    "velocity": 0.47244094488188976,
                    "duration": 0.42857149999997546
                },
                {
                    "name": "D3",
                    "midi": 50,
                    "time": 143.35716674999944,
                    "velocity": 0.5590551181102362,
                    "duration": 0.21428574999998773
                },
                {
                    "name": "G3",
                    "midi": 55,
                    "time": 143.57145249999942,
                    "velocity": 0.5590551181102362,
                    "duration": 0.21428574999998773
                },
                {
                    "name": "D3",
                    "midi": 50,
                    "time": 143.7857382499994,
                    "velocity": 0.5275590551181102,
                    "duration": 0.21428574999998773
                },
                {
                    "name": "A2",
                    "midi": 45,
                    "time": 143.7857382499994,
                    "velocity": 0.5118110236220472,
                    "duration": 0.21428574999998773
                },
                {
                    "name": "A3",
                    "midi": 57,
                    "time": 143.7857382499994,
                    "velocity": 0.5590551181102362,
                    "duration": 0.21428574999998773
                },
                {
                    "name": "G2",
                    "midi": 43,
                    "time": 144.0000239999994,
                    "velocity": 0.4330708661417323,
                    "duration": 0.21428574999998773
                },
                {
                    "name": "D3",
                    "midi": 50,
                    "time": 144.0000239999994,
                    "velocity": 0.4330708661417323,
                    "duration": 0.21428574999998773
                },
                {
                    "name": "G3",
                    "midi": 55,
                    "time": 144.0000239999994,
                    "velocity": 0.5118110236220472,
                    "duration": 0.21428574999998773
                },
                {
                    "name": "G2",
                    "midi": 43,
                    "time": 144.42859549999937,
                    "velocity": 0.4881889763779528,
                    "duration": 0.6428572499999916
                },
                {
                    "name": "D3",
                    "midi": 50,
                    "time": 144.42859549999937,
                    "velocity": 0.4881889763779528,
                    "duration": 0.6428572499999916
                },
                {
                    "name": "G3",
                    "midi": 55,
                    "time": 144.42859549999937,
                    "velocity": 0.5826771653543307,
                    "duration": 0.6428572499999916
                },
                {
                    "name": "B3",
                    "midi": 59,
                    "time": 145.07145274999937,
                    "velocity": 0.5590551181102362,
                    "duration": 0.21428574999998773
                },
                {
                    "name": "B2",
                    "midi": 47,
                    "time": 145.07145274999937,
                    "velocity": 0.47244094488188976,
                    "duration": 0.21428574999998773
                },
                {
                    "name": "D4",
                    "midi": 62,
                    "time": 145.28573849999935,
                    "velocity": 0.5826771653543307,
                    "duration": 0.21428574999998773
                },
                {
                    "name": "D3",
                    "midi": 50,
                    "time": 145.28573849999935,
                    "velocity": 0.4881889763779528,
                    "duration": 0.21428574999998773
                },
                {
                    "name": "B3",
                    "midi": 59,
                    "time": 145.50002424999934,
                    "velocity": 0.5511811023622047,
                    "duration": 0.21428574999998773
                },
                {
                    "name": "B2",
                    "midi": 47,
                    "time": 145.50002424999934,
                    "velocity": 0.4645669291338583,
                    "duration": 0.21428574999998773
                },
                {
                    "name": "G2",
                    "midi": 43,
                    "time": 145.71430999999933,
                    "velocity": 0.4881889763779528,
                    "duration": 0.21428574999998773
                },
                {
                    "name": "G3",
                    "midi": 55,
                    "time": 145.71430999999933,
                    "velocity": 0.5826771653543307,
                    "duration": 0.21428574999998773
                },
                {
                    "name": "B2",
                    "midi": 47,
                    "time": 145.92859574999932,
                    "velocity": 0.4566929133858268,
                    "duration": 0.21428574999998773
                },
                {
                    "name": "B3",
                    "midi": 59,
                    "time": 145.92859574999932,
                    "velocity": 0.5354330708661418,
                    "duration": 0.21428574999998773
                },
                {
                    "name": "G2",
                    "midi": 43,
                    "time": 146.1428814999993,
                    "velocity": 0.47244094488188976,
                    "duration": 0.21428574999998773
                },
                {
                    "name": "G3",
                    "midi": 55,
                    "time": 146.1428814999993,
                    "velocity": 0.5590551181102362,
                    "duration": 0.21428574999998773
                },
                {
                    "name": "F#2",
                    "midi": 42,
                    "time": 146.3571672499993,
                    "velocity": 0.4566929133858268,
                    "duration": 0.21428574999998773
                },
                {
                    "name": "F#3",
                    "midi": 54,
                    "time": 146.3571672499993,
                    "velocity": 0.5354330708661418,
                    "duration": 0.21428574999998773
                },
                {
                    "name": "E2",
                    "midi": 40,
                    "time": 146.57145299999928,
                    "velocity": 0.4330708661417323,
                    "duration": 0.21428574999998773
                },
                {
                    "name": "B2",
                    "midi": 47,
                    "time": 146.57145299999928,
                    "velocity": 0.4330708661417323,
                    "duration": 0.21428574999998773
                },
                {
                    "name": "E3",
                    "midi": 52,
                    "time": 146.57145299999928,
                    "velocity": 0.5118110236220472,
                    "duration": 0.21428574999998773
                },
                {
                    "name": "E2",
                    "midi": 40,
                    "time": 147.00002449999926,
                    "velocity": 0.4881889763779528,
                    "duration": 0.6375001062500019
                },
                {
                    "name": "B2",
                    "midi": 47,
                    "time": 147.00002449999926,
                    "velocity": 0.4881889763779528,
                    "duration": 0.6375001062500019
                },
                {
                    "name": "E3",
                    "midi": 52,
                    "time": 147.00002449999926,
                    "velocity": 0.5826771653543307,
                    "duration": 0.6375001062500019
                },
                {
                    "name": "E2",
                    "midi": 40,
                    "time": 147.64288174999925,
                    "velocity": 0.4330708661417323,
                    "duration": 0.41071435416665736
                },
                {
                    "name": "B2",
                    "midi": 47,
                    "time": 147.64288174999925,
                    "velocity": 0.4330708661417323,
                    "duration": 0.41071435416665736
                },
                {
                    "name": "E3",
                    "midi": 52,
                    "time": 147.64288174999925,
                    "velocity": 0.5118110236220472,
                    "duration": 0.41071435416665736
                },
                {
                    "name": "E2",
                    "midi": 40,
                    "time": 148.07145324999925,
                    "velocity": 0.4881889763779528,
                    "duration": 0.21428574999998773
                },
                {
                    "name": "B2",
                    "midi": 47,
                    "time": 148.07145324999925,
                    "velocity": 0.4881889763779528,
                    "duration": 0.21428574999998773
                },
                {
                    "name": "E3",
                    "midi": 52,
                    "time": 148.07145324999925,
                    "velocity": 0.5826771653543307,
                    "duration": 0.21428574999998773
                },
                {
                    "name": "A2",
                    "midi": 45,
                    "time": 148.28573899999924,
                    "velocity": 0.4330708661417323,
                    "duration": 0.21428574999998773
                },
                {
                    "name": "E3",
                    "midi": 52,
                    "time": 148.28573899999924,
                    "velocity": 0.4330708661417323,
                    "duration": 0.21428574999998773
                },
                {
                    "name": "A3",
                    "midi": 57,
                    "time": 148.28573899999924,
                    "velocity": 0.5118110236220472,
                    "duration": 0.21428574999998773
                },
                {
                    "name": "A2",
                    "midi": 45,
                    "time": 148.71431049999921,
                    "velocity": 0.4881889763779528,
                    "duration": 0.6428572499999916
                },
                {
                    "name": "E3",
                    "midi": 52,
                    "time": 148.71431049999921,
                    "velocity": 0.4881889763779528,
                    "duration": 0.6428572499999916
                },
                {
                    "name": "A3",
                    "midi": 57,
                    "time": 148.71431049999921,
                    "velocity": 0.5826771653543307,
                    "duration": 0.6428572499999916
                },
                {
                    "name": "D2",
                    "midi": 38,
                    "time": 149.3571677499992,
                    "velocity": 0.4330708661417323,
                    "duration": 0.41071435416665736
                },
                {
                    "name": "A2",
                    "midi": 45,
                    "time": 149.3571677499992,
                    "velocity": 0.4330708661417323,
                    "duration": 0.41071435416665736
                },
                {
                    "name": "D3",
                    "midi": 50,
                    "time": 149.3571677499992,
                    "velocity": 0.5118110236220472,
                    "duration": 0.41071435416665736
                },
                {
                    "name": "D2",
                    "midi": 38,
                    "time": 149.7857392499992,
                    "velocity": 0.4881889763779528,
                    "duration": 0.21428574999998773
                },
                {
                    "name": "A2",
                    "midi": 45,
                    "time": 149.7857392499992,
                    "velocity": 0.4881889763779528,
                    "duration": 0.21428574999998773
                },
                {
                    "name": "D3",
                    "midi": 50,
                    "time": 149.7857392499992,
                    "velocity": 0.5826771653543307,
                    "duration": 0.21428574999998773
                },
                {
                    "name": "D3",
                    "midi": 50,
                    "time": 150.0000249999992,
                    "velocity": 0.4330708661417323,
                    "duration": 0.21428574999998773
                },
                {
                    "name": "A3",
                    "midi": 57,
                    "time": 150.0000249999992,
                    "velocity": 0.5118110236220472,
                    "duration": 0.21428574999998773
                },
                {
                    "name": "D3",
                    "midi": 50,
                    "time": 150.42859649999917,
                    "velocity": 0.4881889763779528,
                    "duration": 0.6428572499999916
                },
                {
                    "name": "A3",
                    "midi": 57,
                    "time": 150.42859649999917,
                    "velocity": 0.5826771653543307,
                    "duration": 0.6428572499999916
                },
                {
                    "name": "G2",
                    "midi": 43,
                    "time": 151.92859674999917,
                    "velocity": 0.25196850393700787,
                    "duration": 0.21428574999998773
                },
                {
                    "name": "D3",
                    "midi": 50,
                    "time": 152.14288249999916,
                    "velocity": 0.2755905511811024,
                    "duration": 0.21428574999998773
                },
                {
                    "name": "G2",
                    "midi": 43,
                    "time": 152.35716824999915,
                    "velocity": 0.25196850393700787,
                    "duration": 0.6250001041666451
                },
                {
                    "name": "D3",
                    "midi": 50,
                    "time": 152.57145399999914,
                    "velocity": 0.28346456692913385,
                    "duration": 0.41071435416665736
                },
                {
                    "name": "D3",
                    "midi": 50,
                    "time": 153.00002549999914,
                    "velocity": 0.29133858267716534,
                    "duration": 1.2857145000000116
                },
                {
                    "name": "G2",
                    "midi": 43,
                    "time": 153.00002549999914,
                    "velocity": 0.2440944881889764,
                    "duration": 1.2857145000000116
                },
                {
                    "name": "G2",
                    "midi": 43,
                    "time": 154.50002574999914,
                    "velocity": 0.25196850393700787,
                    "duration": 0.21428574999998773
                },
                {
                    "name": "D3",
                    "midi": 50,
                    "time": 154.71431149999913,
                    "velocity": 0.2755905511811024,
                    "duration": 0.21428574999998773
                },
                {
                    "name": "G2",
                    "midi": 43,
                    "time": 154.92859724999911,
                    "velocity": 0.25196850393700787,
                    "duration": 0.6250001041666451
                },
                {
                    "name": "D3",
                    "midi": 50,
                    "time": 155.1428829999991,
                    "velocity": 0.28346456692913385,
                    "duration": 0.41071435416665736
                },
                {
                    "name": "D3",
                    "midi": 50,
                    "time": 155.5714544999991,
                    "velocity": 0.2992125984251969,
                    "duration": 1.2857144999999548
                },
                {
                    "name": "G2",
                    "midi": 43,
                    "time": 155.5714544999991,
                    "velocity": 0.2440944881889764,
                    "duration": 0.6428572499999916
                },
                {
                    "name": "F#2",
                    "midi": 42,
                    "time": 156.2143117499991,
                    "velocity": 0.25196850393700787,
                    "duration": 0.21428574999998773
                },
                {
                    "name": "E2",
                    "midi": 40,
                    "time": 156.42859749999909,
                    "velocity": 0.2755905511811024,
                    "duration": 0.21428574999998773
                },
                {
                    "name": "D2",
                    "midi": 38,
                    "time": 156.64288324999907,
                    "velocity": 0.30708661417322836,
                    "duration": 0.21428574999998773
                },
                {
                    "name": "C2",
                    "midi": 36,
                    "time": 157.07145474999905,
                    "velocity": 0.28346456692913385,
                    "duration": 0.21428574999998773
                },
                {
                    "name": "G2",
                    "midi": 43,
                    "time": 157.28574049999904,
                    "velocity": 0.31496062992125984,
                    "duration": 0.21428574999998773
                },
                {
                    "name": "C2",
                    "midi": 36,
                    "time": 157.50002624999902,
                    "velocity": 0.28346456692913385,
                    "duration": 0.6250001041666451
                },
                {
                    "name": "G2",
                    "midi": 43,
                    "time": 157.714311999999,
                    "velocity": 0.3228346456692913,
                    "duration": 0.41071435416665736
                },
                {
                    "name": "G2",
                    "midi": 43,
                    "time": 158.14288349999902,
                    "velocity": 0.33070866141732286,
                    "duration": 1.2857145000000116
                },
                {
                    "name": "C2",
                    "midi": 36,
                    "time": 158.14288349999902,
                    "velocity": 0.2755905511811024,
                    "duration": 1.2857145000000116
                },
                {
                    "name": "C2",
                    "midi": 36,
                    "time": 159.64288374999902,
                    "velocity": 0.28346456692913385,
                    "duration": 0.21428574999998773
                },
                {
                    "name": "G2",
                    "midi": 43,
                    "time": 159.857169499999,
                    "velocity": 0.31496062992125984,
                    "duration": 0.21428574999998773
                },
                {
                    "name": "C2",
                    "midi": 36,
                    "time": 160.071455249999,
                    "velocity": 0.28346456692913385,
                    "duration": 0.6250001041666451
                },
                {
                    "name": "G2",
                    "midi": 43,
                    "time": 160.28574099999898,
                    "velocity": 0.3228346456692913,
                    "duration": 0.41071435416665736
                },
                {
                    "name": "G2",
                    "midi": 43,
                    "time": 160.71431249999898,
                    "velocity": 0.33070866141732286,
                    "duration": 0.8571430000000078
                },
                {
                    "name": "C2",
                    "midi": 36,
                    "time": 160.71431249999898,
                    "velocity": 0.2755905511811024,
                    "duration": 1.2857145000000116
                },
                {
                    "name": "A2",
                    "midi": 45,
                    "time": 161.571455499999,
                    "velocity": 0.30708661417322836,
                    "duration": 0.4285715000000039
                },
                {
                    "name": "C2",
                    "midi": 36,
                    "time": 162.21431274999898,
                    "velocity": 0.28346456692913385,
                    "duration": 0.21428574999998773
                },
                {
                    "name": "A2",
                    "midi": 45,
                    "time": 162.42859849999897,
                    "velocity": 0.31496062992125984,
                    "duration": 0.21428574999998773
                },
                {
                    "name": "C2",
                    "midi": 36,
                    "time": 162.64288424999896,
                    "velocity": 0.28346456692913385,
                    "duration": 0.6250001041666451
                },
                {
                    "name": "A2",
                    "midi": 45,
                    "time": 162.85716999999894,
                    "velocity": 0.3228346456692913,
                    "duration": 0.41071435416665736
                },
                {
                    "name": "A2",
                    "midi": 45,
                    "time": 163.28574149999895,
                    "velocity": 0.33070866141732286,
                    "duration": 0.8571430000000078
                },
                {
                    "name": "C2",
                    "midi": 36,
                    "time": 163.28574149999895,
                    "velocity": 0.2755905511811024,
                    "duration": 0.8571430000000078
                },
                {
                    "name": "C3",
                    "midi": 48,
                    "time": 164.14288449999896,
                    "velocity": 0.2755905511811024,
                    "duration": 0.4285715000000039
                },
                {
                    "name": "A3",
                    "midi": 57,
                    "time": 164.14288449999896,
                    "velocity": 0.33070866141732286,
                    "duration": 0.4285715000000039
                },
                {
                    "name": "B2",
                    "midi": 47,
                    "time": 164.78574174999895,
                    "velocity": 0.28346456692913385,
                    "duration": 0.21428574999998773
                },
                {
                    "name": "A3",
                    "midi": 57,
                    "time": 165.00002749999894,
                    "velocity": 0.31496062992125984,
                    "duration": 0.21428574999998773
                },
                {
                    "name": "B2",
                    "midi": 47,
                    "time": 165.21431324999892,
                    "velocity": 0.28346456692913385,
                    "duration": 0.6250001041666451
                },
                {
                    "name": "A3",
                    "midi": 57,
                    "time": 165.4285989999989,
                    "velocity": 0.3228346456692913,
                    "duration": 0.41071435416665736
                },
                {
                    "name": "A3",
                    "midi": 57,
                    "time": 165.85717049999892,
                    "velocity": 0.33070866141732286,
                    "duration": 0.8571430000000078
                },
                {
                    "name": "B2",
                    "midi": 47,
                    "time": 165.85717049999892,
                    "velocity": 0.2755905511811024,
                    "duration": 0.8571430000000078
                },
                {
                    "name": "C3",
                    "midi": 48,
                    "time": 166.71431349999892,
                    "velocity": 0.2755905511811024,
                    "duration": 0.4285715000000039
                },
                {
                    "name": "A3",
                    "midi": 57,
                    "time": 166.71431349999892,
                    "velocity": 0.33070866141732286,
                    "duration": 0.4285715000000039
                },
                {
                    "name": "B2",
                    "midi": 47,
                    "time": 167.35717074999891,
                    "velocity": 0.28346456692913385,
                    "duration": 0.21428574999998773
                },
                {
                    "name": "A3",
                    "midi": 57,
                    "time": 167.5714564999989,
                    "velocity": 0.31496062992125984,
                    "duration": 0.21428574999998773
                },
                {
                    "name": "B2",
                    "midi": 47,
                    "time": 167.7857422499989,
                    "velocity": 0.28346456692913385,
                    "duration": 0.6250001041666451
                },
                {
                    "name": "A3",
                    "midi": 57,
                    "time": 168.00002799999888,
                    "velocity": 0.3228346456692913,
                    "duration": 0.41071435416665736
                },
                {
                    "name": "A3",
                    "midi": 57,
                    "time": 168.42859949999888,
                    "velocity": 0.33070866141732286,
                    "duration": 0.8571430000000078
                },
                {
                    "name": "B2",
                    "midi": 47,
                    "time": 168.42859949999888,
                    "velocity": 0.2755905511811024,
                    "duration": 0.8571430000000078
                },
                {
                    "name": "C3",
                    "midi": 48,
                    "time": 169.2857424999989,
                    "velocity": 0.2755905511811024,
                    "duration": 0.4285715000000039
                },
                {
                    "name": "A3",
                    "midi": 57,
                    "time": 169.2857424999989,
                    "velocity": 0.33070866141732286,
                    "duration": 0.4285715000000039
                },
                {
                    "name": "B2",
                    "midi": 47,
                    "time": 169.92859974999888,
                    "velocity": 0.28346456692913385,
                    "duration": 0.21428574999998773
                },
                {
                    "name": "A3",
                    "midi": 57,
                    "time": 170.14288549999887,
                    "velocity": 0.30708661417322836,
                    "duration": 0.21428574999998773
                },
                {
                    "name": "B2",
                    "midi": 47,
                    "time": 170.35717124999886,
                    "velocity": 0.2755905511811024,
                    "duration": 0.6250001041666451
                },
                {
                    "name": "A3",
                    "midi": 57,
                    "time": 170.57145699999884,
                    "velocity": 0.30708661417322836,
                    "duration": 0.41071435416665736
                },
                {
                    "name": "A3",
                    "midi": 57,
                    "time": 171.00002849999885,
                    "velocity": 0.30708661417322836,
                    "duration": 0.8392858541666612
                },
                {
                    "name": "B2",
                    "midi": 47,
                    "time": 171.00002849999885,
                    "velocity": 0.25984251968503935,
                    "duration": 0.8392858541666612
                },
                {
                    "name": "B2",
                    "midi": 47,
                    "time": 171.85717149999886,
                    "velocity": 0.25196850393700787,
                    "duration": 0.4285715000000039
                },
                {
                    "name": "A3",
                    "midi": 57,
                    "time": 171.85717149999886,
                    "velocity": 0.2992125984251969,
                    "duration": 0.4285715000000039
                },
                {
                    "name": "B2",
                    "midi": 47,
                    "time": 172.50002874999885,
                    "velocity": 0.25196850393700787,
                    "duration": 0.21428574999998773
                },
                {
                    "name": "A3",
                    "midi": 57,
                    "time": 172.71431449999884,
                    "velocity": 0.2755905511811024,
                    "duration": 0.21428574999998773
                },
                {
                    "name": "B2",
                    "midi": 47,
                    "time": 172.92860024999882,
                    "velocity": 0.2440944881889764,
                    "duration": 0.6250001041666451
                },
                {
                    "name": "A3",
                    "midi": 57,
                    "time": 173.1428859999988,
                    "velocity": 0.2755905511811024,
                    "duration": 0.41071435416665736
                },
                {
                    "name": "A3",
                    "midi": 57,
                    "time": 173.57145749999881,
                    "velocity": 0.2755905511811024,
                    "duration": 0.8392858541666612
                },
                {
                    "name": "B2",
                    "midi": 47,
                    "time": 173.57145749999881,
                    "velocity": 0.2283464566929134,
                    "duration": 0.8392858541666612
                },
                {
                    "name": "B2",
                    "midi": 47,
                    "time": 174.42860049999882,
                    "velocity": 0.2204724409448819,
                    "duration": 0.4285715000000039
                },
                {
                    "name": "A3",
                    "midi": 57,
                    "time": 174.42860049999882,
                    "velocity": 0.2677165354330709,
                    "duration": 0.4285715000000039
                },
                {
                    "name": "G2",
                    "midi": 43,
                    "time": 175.0714577499988,
                    "velocity": 0.25196850393700787,
                    "duration": 0.21428574999998773
                },
                {
                    "name": "D3",
                    "midi": 50,
                    "time": 175.2857434999988,
                    "velocity": 0.2755905511811024,
                    "duration": 0.21428574999998773
                },
                {
                    "name": "G2",
                    "midi": 43,
                    "time": 175.5000292499988,
                    "velocity": 0.25196850393700787,
                    "duration": 0.6250001041666451
                },
                {
                    "name": "D3",
                    "midi": 50,
                    "time": 175.71431499999878,
                    "velocity": 0.28346456692913385,
                    "duration": 0.41071435416665736
                },
                {
                    "name": "D3",
                    "midi": 50,
                    "time": 176.14288649999878,
                    "velocity": 0.29133858267716534,
                    "duration": 1.2857145000000116
                },
                {
                    "name": "G2",
                    "midi": 43,
                    "time": 176.14288649999878,
                    "velocity": 0.2440944881889764,
                    "duration": 1.2857145000000116
                },
                {
                    "name": "G2",
                    "midi": 43,
                    "time": 177.64288674999878,
                    "velocity": 0.25196850393700787,
                    "duration": 0.21428574999998773
                },
                {
                    "name": "D3",
                    "midi": 50,
                    "time": 177.85717249999877,
                    "velocity": 0.2755905511811024,
                    "duration": 0.21428574999998773
                },
                {
                    "name": "G2",
                    "midi": 43,
                    "time": 178.07145824999876,
                    "velocity": 0.25196850393700787,
                    "duration": 0.6250001041666451
                },
                {
                    "name": "D3",
                    "midi": 50,
                    "time": 178.28574399999874,
                    "velocity": 0.28346456692913385,
                    "duration": 0.41071435416665736
                },
                {
                    "name": "D3",
                    "midi": 50,
                    "time": 178.71431549999875,
                    "velocity": 0.2992125984251969,
                    "duration": 1.2857144999999548
                },
                {
                    "name": "G2",
                    "midi": 43,
                    "time": 178.71431549999875,
                    "velocity": 0.2440944881889764,
                    "duration": 0.6428572499999916
                },
                {
                    "name": "F#2",
                    "midi": 42,
                    "time": 179.35717274999874,
                    "velocity": 0.25196850393700787,
                    "duration": 0.21428574999998773
                },
                {
                    "name": "E2",
                    "midi": 40,
                    "time": 179.57145849999873,
                    "velocity": 0.2755905511811024,
                    "duration": 0.21428574999998773
                },
                {
                    "name": "D2",
                    "midi": 38,
                    "time": 179.78574424999871,
                    "velocity": 0.30708661417322836,
                    "duration": 0.21428574999998773
                },
                {
                    "name": "C2",
                    "midi": 36,
                    "time": 180.2143157499987,
                    "velocity": 0.28346456692913385,
                    "duration": 0.21428574999998773
                },
                {
                    "name": "G2",
                    "midi": 43,
                    "time": 180.42860149999868,
                    "velocity": 0.31496062992125984,
                    "duration": 0.21428574999998773
                },
                {
                    "name": "C2",
                    "midi": 36,
                    "time": 180.64288724999867,
                    "velocity": 0.28346456692913385,
                    "duration": 0.6250001041666451
                },
                {
                    "name": "G2",
                    "midi": 43,
                    "time": 180.85717299999865,
                    "velocity": 0.3228346456692913,
                    "duration": 0.41071435416665736
                },
                {
                    "name": "G2",
                    "midi": 43,
                    "time": 181.28574449999866,
                    "velocity": 0.33070866141732286,
                    "duration": 1.2857145000000116
                },
                {
                    "name": "C2",
                    "midi": 36,
                    "time": 181.28574449999866,
                    "velocity": 0.2755905511811024,
                    "duration": 1.2857145000000116
                },
                {
                    "name": "C2",
                    "midi": 36,
                    "time": 182.78574474999866,
                    "velocity": 0.28346456692913385,
                    "duration": 0.21428574999998773
                },
                {
                    "name": "G2",
                    "midi": 43,
                    "time": 183.00003049999864,
                    "velocity": 0.31496062992125984,
                    "duration": 0.21428574999998773
                },
                {
                    "name": "C2",
                    "midi": 36,
                    "time": 183.21431624999863,
                    "velocity": 0.28346456692913385,
                    "duration": 0.6250001041666451
                },
                {
                    "name": "G2",
                    "midi": 43,
                    "time": 183.42860199999862,
                    "velocity": 0.3228346456692913,
                    "duration": 0.41071435416665736
                },
                {
                    "name": "G2",
                    "midi": 43,
                    "time": 183.85717349999862,
                    "velocity": 0.3543307086614173,
                    "duration": 0.4285715000000039
                },
                {
                    "name": "C2",
                    "midi": 36,
                    "time": 183.85717349999862,
                    "velocity": 0.3543307086614173,
                    "duration": 0.4285715000000039
                },
                {
                    "name": "B1",
                    "midi": 35,
                    "time": 184.28574499999863,
                    "velocity": 0.3464566929133858,
                    "duration": 0.4285715000000039
                },
                {
                    "name": "G#2",
                    "midi": 44,
                    "time": 184.28574499999863,
                    "velocity": 0.3779527559055118,
                    "duration": 0.8571430000000078
                },
                {
                    "name": "E2",
                    "midi": 40,
                    "time": 184.71431649999863,
                    "velocity": 0.33070866141732286,
                    "duration": 0.4285715000000039
                },
                {
                    "name": "A1",
                    "midi": 33,
                    "time": 185.14288799999863,
                    "velocity": 0.3228346456692913,
                    "duration": 0.21428575000001615
                },
                {
                    "name": "A2",
                    "midi": 45,
                    "time": 185.14288799999863,
                    "velocity": 0.36220472440944884,
                    "duration": 0.19642860416666963
                },
                {
                    "name": "A2",
                    "midi": 45,
                    "time": 185.35717374999865,
                    "velocity": 0.28346456692913385,
                    "duration": 0.21428574999998773
                },
                {
                    "name": "G3",
                    "midi": 55,
                    "time": 185.57145949999864,
                    "velocity": 0.36220472440944884,
                    "duration": 0.21428574999998773
                },
                {
                    "name": "A2",
                    "midi": 45,
                    "time": 185.78574524999863,
                    "velocity": 0.3228346456692913,
                    "duration": 0.6250001041666451
                },
                {
                    "name": "G3",
                    "midi": 55,
                    "time": 186.00003099999861,
                    "velocity": 0.3543307086614173,
                    "duration": 0.41071435416665736
                },
                {
                    "name": "G3",
                    "midi": 55,
                    "time": 186.42860249999862,
                    "velocity": 0.3543307086614173,
                    "duration": 0.8571430000000078
                },
                {
                    "name": "A2",
                    "midi": 45,
                    "time": 186.42860249999862,
                    "velocity": 0.2992125984251969,
                    "duration": 0.8571430000000078
                },
                {
                    "name": "A#2",
                    "midi": 46,
                    "time": 187.28574549999863,
                    "velocity": 0.28346456692913385,
                    "duration": 0.4285715000000039
                },
                {
                    "name": "G3",
                    "midi": 55,
                    "time": 187.28574549999863,
                    "velocity": 0.33858267716535434,
                    "duration": 0.4285715000000039
                },
                {
                    "name": "A2",
                    "midi": 45,
                    "time": 187.92860274999862,
                    "velocity": 0.28346456692913385,
                    "duration": 0.21428574999998773
                },
                {
                    "name": "G3",
                    "midi": 55,
                    "time": 188.1428884999986,
                    "velocity": 0.31496062992125984,
                    "duration": 0.21428574999998773
                },
                {
                    "name": "A2",
                    "midi": 45,
                    "time": 188.3571742499986,
                    "velocity": 0.28346456692913385,
                    "duration": 0.6250001041666451
                },
                {
                    "name": "G3",
                    "midi": 55,
                    "time": 188.57145999999858,
                    "velocity": 0.3228346456692913,
                    "duration": 0.41071435416665736
                },
                {
                    "name": "G3",
                    "midi": 55,
                    "time": 189.00003149999858,
                    "velocity": 0.33070866141732286,
                    "duration": 0.8571430000000078
                },
                {
                    "name": "A2",
                    "midi": 45,
                    "time": 189.00003149999858,
                    "velocity": 0.2755905511811024,
                    "duration": 0.8571430000000078
                },
                {
                    "name": "A#2",
                    "midi": 46,
                    "time": 189.8571744999986,
                    "velocity": 0.2755905511811024,
                    "duration": 0.4285715000000039
                },
                {
                    "name": "G3",
                    "midi": 55,
                    "time": 189.8571744999986,
                    "velocity": 0.33070866141732286,
                    "duration": 0.4285715000000039
                },
                {
                    "name": "A2",
                    "midi": 45,
                    "time": 190.2857459999986,
                    "velocity": 0.2283464566929134,
                    "duration": 0.20714289166667754
                },
                {
                    "name": "G3",
                    "midi": 55,
                    "time": 190.2857459999986,
                    "velocity": 0.29133858267716534,
                    "duration": 0.21428575000001615
                },
                {
                    "name": "A2",
                    "midi": 45,
                    "time": 190.5000317499986,
                    "velocity": 0.2677165354330709,
                    "duration": 0.21428574999998773
                },
                {
                    "name": "G3",
                    "midi": 55,
                    "time": 190.7143174999986,
                    "velocity": 0.29133858267716534,
                    "duration": 0.21428574999998773
                },
                {
                    "name": "A2",
                    "midi": 45,
                    "time": 190.9286032499986,
                    "velocity": 0.25984251968503935,
                    "duration": 0.6250001041666451
                },
                {
                    "name": "G3",
                    "midi": 55,
                    "time": 191.14288899999858,
                    "velocity": 0.29133858267716534,
                    "duration": 0.41071435416665736
                },
                {
                    "name": "G3",
                    "midi": 55,
                    "time": 191.57146049999858,
                    "velocity": 0.29133858267716534,
                    "duration": 0.8392858541666612
                },
                {
                    "name": "A2",
                    "midi": 45,
                    "time": 191.57146049999858,
                    "velocity": 0.2440944881889764,
                    "duration": 0.8392858541666612
                },
                {
                    "name": "A2",
                    "midi": 45,
                    "time": 192.4286034999986,
                    "velocity": 0.23622047244094488,
                    "duration": 0.4285715000000039
                },
                {
                    "name": "G3",
                    "midi": 55,
                    "time": 192.4286034999986,
                    "velocity": 0.28346456692913385,
                    "duration": 0.4285715000000039
                },
                {
                    "name": "A3",
                    "midi": 57,
                    "time": 193.07146074999858,
                    "velocity": 0.2992125984251969,
                    "duration": 0.21428574999998773
                },
                {
                    "name": "G4",
                    "midi": 67,
                    "time": 193.28574649999857,
                    "velocity": 0.33858267716535434,
                    "duration": 0.21428574999998773
                },
                {
                    "name": "A3",
                    "midi": 57,
                    "time": 193.50003224999855,
                    "velocity": 0.2992125984251969,
                    "duration": 0.6250001041666451
                },
                {
                    "name": "G4",
                    "midi": 67,
                    "time": 193.71431799999854,
                    "velocity": 0.3700787401574803,
                    "duration": 0.41071435416665736
                },
                {
                    "name": "A3",
                    "midi": 57,
                    "time": 194.14288949999855,
                    "velocity": 0.23622047244094488,
                    "duration": 0.38571435000000065
                },
                {
                    "name": "G4",
                    "midi": 67,
                    "time": 194.14288949999855,
                    "velocity": 0.30708661417322836,
                    "duration": 0.38571435000000065
                },
                {
                    "name": "A3",
                    "midi": 57,
                    "time": 195.00003249999855,
                    "velocity": 0.5196850393700787,
                    "duration": 0.21428574999998773
                },
                {
                    "name": "C#4",
                    "midi": 61,
                    "time": 195.21431824999854,
                    "velocity": 0.48031496062992124,
                    "duration": 0.21428574999998773
                },
                {
                    "name": "D4",
                    "midi": 62,
                    "time": 195.42860399999853,
                    "velocity": 0.5196850393700787,
                    "duration": 0.21428574999998773
                },
                {
                    "name": "D3",
                    "midi": 50,
                    "time": 195.64288974999852,
                    "velocity": 0.6062992125984252,
                    "duration": 0.4285715000000039
                },
                {
                    "name": "D2",
                    "midi": 38,
                    "time": 196.07146124999852,
                    "velocity": 0.4645669291338583,
                    "duration": 0.21428574999998773
                },
                {
                    "name": "D3",
                    "midi": 50,
                    "time": 196.2857469999985,
                    "velocity": 0.5118110236220472,
                    "duration": 0.21428574999998773
                },
                {
                    "name": "A3",
                    "midi": 57,
                    "time": 196.71431849999848,
                    "velocity": 0.5748031496062992,
                    "duration": 0.21428574999998773
                },
                {
                    "name": "C#4",
                    "midi": 61,
                    "time": 196.92860424999847,
                    "velocity": 0.5118110236220472,
                    "duration": 0.21428574999998773
                },
                {
                    "name": "B3",
                    "midi": 59,
                    "time": 197.14288999999846,
                    "velocity": 0.5118110236220472,
                    "duration": 0.21428574999998773
                },
                {
                    "name": "F#3",
                    "midi": 54,
                    "time": 197.57146149999843,
                    "velocity": 0.5590551181102362,
                    "duration": 0.21428574999998773
                },
                {
                    "name": "A3",
                    "midi": 57,
                    "time": 197.78574724999842,
                    "velocity": 0.5118110236220472,
                    "duration": 0.21428574999998773
                },
                {
                    "name": "G3",
                    "midi": 55,
                    "time": 198.0000329999984,
                    "velocity": 0.5118110236220472,
                    "duration": 0.21428574999998773
                },
                {
                    "name": "G2",
                    "midi": 43,
                    "time": 198.2143187499984,
                    "velocity": 0.5826771653543307,
                    "duration": 0.4285715000000039
                },
                {
                    "name": "G1",
                    "midi": 31,
                    "time": 198.6428902499984,
                    "velocity": 0.5118110236220472,
                    "duration": 0.21428574999998773
                },
                {
                    "name": "G2",
                    "midi": 43,
                    "time": 198.8571759999984,
                    "velocity": 0.5118110236220472,
                    "duration": 0.21428574999998773
                },
                {
                    "name": "B2",
                    "midi": 47,
                    "time": 199.07146174999838,
                    "velocity": 0.4566929133858268,
                    "duration": 0.21428574999998773
                },
                {
                    "name": "G2",
                    "midi": 43,
                    "time": 199.28574749999837,
                    "velocity": 0.48031496062992124,
                    "duration": 0.21428574999998773
                },
                {
                    "name": "F#2",
                    "midi": 42,
                    "time": 199.50003324999835,
                    "velocity": 0.5039370078740157,
                    "duration": 0.21428574999998773
                },
                {
                    "name": "E2",
                    "midi": 40,
                    "time": 199.71431899999834,
                    "velocity": 0.5354330708661418,
                    "duration": 0.21428574999998773
                },
                {
                    "name": "B3",
                    "midi": 59,
                    "time": 200.14289049999832,
                    "velocity": 0.5196850393700787,
                    "duration": 0.21428574999998773
                },
                {
                    "name": "D#4",
                    "midi": 63,
                    "time": 200.3571762499983,
                    "velocity": 0.48031496062992124,
                    "duration": 0.21428574999998773
                },
                {
                    "name": "E4",
                    "midi": 64,
                    "time": 200.5714619999983,
                    "velocity": 0.5196850393700787,
                    "duration": 0.21428574999998773
                },
                {
                    "name": "E3",
                    "midi": 52,
                    "time": 200.78574774999828,
                    "velocity": 0.6062992125984252,
                    "duration": 0.4285715000000039
                },
                {
                    "name": "E2",
                    "midi": 40,
                    "time": 201.21431924999828,
                    "velocity": 0.4645669291338583,
                    "duration": 0.21428574999998773
                },
                {
                    "name": "E3",
                    "midi": 52,
                    "time": 201.42860499999827,
                    "velocity": 0.5118110236220472,
                    "duration": 0.21428574999998773
                },
                {
                    "name": "B3",
                    "midi": 59,
                    "time": 201.85717649999825,
                    "velocity": 0.5511811023622047,
                    "duration": 0.21428574999998773
                },
                {
                    "name": "D4",
                    "midi": 62,
                    "time": 202.07146224999823,
                    "velocity": 0.49606299212598426,
                    "duration": 0.21428574999998773
                },
                {
                    "name": "C4",
                    "midi": 60,
                    "time": 202.28574799999822,
                    "velocity": 0.5118110236220472,
                    "duration": 0.21428574999998773
                },
                {
                    "name": "G#3",
                    "midi": 56,
                    "time": 202.7143194999982,
                    "velocity": 0.5590551181102362,
                    "duration": 0.21428574999998773
                },
                {
                    "name": "B3",
                    "midi": 59,
                    "time": 202.92860524999818,
                    "velocity": 0.49606299212598426,
                    "duration": 0.21428574999998773
                },
                {
                    "name": "A3",
                    "midi": 57,
                    "time": 203.14289099999817,
                    "velocity": 0.5118110236220472,
                    "duration": 0.21428574999998773
                },
                {
                    "name": "A2",
                    "midi": 45,
                    "time": 203.35717674999816,
                    "velocity": 0.5826771653543307,
                    "duration": 0.4285715000000039
                },
                {
                    "name": "A1",
                    "midi": 33,
                    "time": 203.78574824999816,
                    "velocity": 0.5118110236220472,
                    "duration": 0.21428574999998773
                },
                {
                    "name": "A2",
                    "midi": 45,
                    "time": 204.00003399999815,
                    "velocity": 0.5118110236220472,
                    "duration": 0.6428572499999916
                },
                {
                    "name": "A3",
                    "midi": 57,
                    "time": 204.42860549999816,
                    "velocity": 0.5748031496062992,
                    "duration": 0.21428574999998773
                },
                {
                    "name": "B2",
                    "midi": 47,
                    "time": 204.64289124999814,
                    "velocity": 0.4409448818897638,
                    "duration": 0.21428574999998773
                },
                {
                    "name": "A3",
                    "midi": 57,
                    "time": 204.64289124999814,
                    "velocity": 0.4409448818897638,
                    "duration": 0.42857149999997546
                },
                {
                    "name": "B3",
                    "midi": 59,
                    "time": 204.64289124999814,
                    "velocity": 0.49606299212598426,
                    "duration": 0.21428574999998773
                },
                {
                    "name": "C3",
                    "midi": 48,
                    "time": 204.85717699999813,
                    "velocity": 0.4330708661417323,
                    "duration": 0.21428574999998773
                },
                {
                    "name": "C4",
                    "midi": 60,
                    "time": 204.85717699999813,
                    "velocity": 0.5118110236220472,
                    "duration": 0.21428574999998773
                },
                {
                    "name": "A3",
                    "midi": 57,
                    "time": 205.07146274999812,
                    "velocity": 0.4566929133858268,
                    "duration": 0.42857149999997546
                },
                {
                    "name": "D3",
                    "midi": 50,
                    "time": 205.07146274999812,
                    "velocity": 0.49606299212598426,
                    "duration": 0.42857149999997546
                },
                {
                    "name": "D4",
                    "midi": 62,
                    "time": 205.2857484999981,
                    "velocity": 0.5590551181102362,
                    "duration": 0.21428574999998773
                },
                {
                    "name": "C4",
                    "midi": 60,
                    "time": 205.5000342499981,
                    "velocity": 0.49606299212598426,
                    "duration": 0.21428574999998773
                },
                {
                    "name": "E3",
                    "midi": 52,
                    "time": 205.5000342499981,
                    "velocity": 0.49606299212598426,
                    "duration": 0.21428574999998773
                },
                {
                    "name": "E4",
                    "midi": 64,
                    "time": 205.5000342499981,
                    "velocity": 0.5118110236220472,
                    "duration": 0.21428574999998773
                },
                {
                    "name": "F3",
                    "midi": 53,
                    "time": 205.71431999999808,
                    "velocity": 0.4330708661417323,
                    "duration": 0.21428574999998773
                },
                {
                    "name": "C4",
                    "midi": 60,
                    "time": 205.71431999999808,
                    "velocity": 0.4330708661417323,
                    "duration": 0.21428574999998773
                },
                {
                    "name": "F4",
                    "midi": 65,
                    "time": 205.71431999999808,
                    "velocity": 0.5118110236220472,
                    "duration": 0.21428574999998773
                },
                {
                    "name": "F3",
                    "midi": 53,
                    "time": 206.14289149999806,
                    "velocity": 0.4881889763779528,
                    "duration": 0.635714391666653
                },
                {
                    "name": "C4",
                    "midi": 60,
                    "time": 206.14289149999806,
                    "velocity": 0.4881889763779528,
                    "duration": 0.635714391666653
                },
                {
                    "name": "F4",
                    "midi": 65,
                    "time": 206.14289149999806,
                    "velocity": 0.5826771653543307,
                    "duration": 0.635714391666653
                },
                {
                    "name": "A3",
                    "midi": 57,
                    "time": 206.78574874999805,
                    "velocity": 0.5590551181102362,
                    "duration": 0.21428574999998773
                },
                {
                    "name": "A2",
                    "midi": 45,
                    "time": 206.78574874999805,
                    "velocity": 0.47244094488188976,
                    "duration": 0.21428574999998773
                },
                {
                    "name": "C4",
                    "midi": 60,
                    "time": 207.00003449999804,
                    "velocity": 0.5826771653543307,
                    "duration": 0.21428574999998773
                },
                {
                    "name": "C3",
                    "midi": 48,
                    "time": 207.00003449999804,
                    "velocity": 0.4881889763779528,
                    "duration": 0.21428574999998773
                },
                {
                    "name": "A3",
                    "midi": 57,
                    "time": 207.21432024999802,
                    "velocity": 0.5511811023622047,
                    "duration": 0.21428574999998773
                },
                {
                    "name": "A2",
                    "midi": 45,
                    "time": 207.21432024999802,
                    "velocity": 0.4645669291338583,
                    "duration": 0.21428574999998773
                },
                {
                    "name": "F2",
                    "midi": 41,
                    "time": 207.428605999998,
                    "velocity": 0.4881889763779528,
                    "duration": 0.21428574999998773
                },
                {
                    "name": "F3",
                    "midi": 53,
                    "time": 207.428605999998,
                    "velocity": 0.5826771653543307,
                    "duration": 0.21428574999998773
                },
                {
                    "name": "E2",
                    "midi": 40,
                    "time": 207.642891749998,
                    "velocity": 0.4566929133858268,
                    "duration": 0.21428574999998773
                },
                {
                    "name": "E3",
                    "midi": 52,
                    "time": 207.642891749998,
                    "velocity": 0.5354330708661418,
                    "duration": 0.21428574999998773
                },
                {
                    "name": "D2",
                    "midi": 38,
                    "time": 207.857177499998,
                    "velocity": 0.47244094488188976,
                    "duration": 0.21428574999998773
                },
                {
                    "name": "D3",
                    "midi": 50,
                    "time": 207.857177499998,
                    "velocity": 0.5590551181102362,
                    "duration": 0.21428574999998773
                },
                {
                    "name": "C2",
                    "midi": 36,
                    "time": 208.07146324999798,
                    "velocity": 0.4566929133858268,
                    "duration": 0.21428574999998773
                },
                {
                    "name": "C3",
                    "midi": 48,
                    "time": 208.07146324999798,
                    "velocity": 0.5354330708661418,
                    "duration": 0.21428574999998773
                },
                {
                    "name": "A#1",
                    "midi": 34,
                    "time": 208.28574899999796,
                    "velocity": 0.4330708661417323,
                    "duration": 0.21428574999998773
                },
                {
                    "name": "A#2",
                    "midi": 46,
                    "time": 208.28574899999796,
                    "velocity": 0.5118110236220472,
                    "duration": 0.21428574999998773
                },
                {
                    "name": "A#2",
                    "midi": 46,
                    "time": 208.71432049999794,
                    "velocity": 0.4881889763779528,
                    "duration": 0.635714391666653
                },
                {
                    "name": "F3",
                    "midi": 53,
                    "time": 208.71432049999794,
                    "velocity": 0.4881889763779528,
                    "duration": 0.635714391666653
                },
                {
                    "name": "A#3",
                    "midi": 58,
                    "time": 208.71432049999794,
                    "velocity": 0.5826771653543307,
                    "duration": 0.635714391666653
                },
                {
                    "name": "F3",
                    "midi": 53,
                    "time": 209.35717774999793,
                    "velocity": 0.5590551181102362,
                    "duration": 0.21428574999998773
                },
                {
                    "name": "A#2",
                    "midi": 46,
                    "time": 209.35717774999793,
                    "velocity": 0.47244094488188976,
                    "duration": 0.21428574999998773
                },
                {
                    "name": "A#3",
                    "midi": 58,
                    "time": 209.57146349999792,
                    "velocity": 0.6456692913385826,
                    "duration": 0.21428574999998773
                },
                {
                    "name": "F3",
                    "midi": 53,
                    "time": 209.7857492499979,
                    "velocity": 0.4645669291338583,
                    "duration": 0.21428574999998773
                },
                {
                    "name": "A3",
                    "midi": 57,
                    "time": 209.7857492499979,
                    "velocity": 0.5511811023622047,
                    "duration": 0.21428574999998773
                },
                {
                    "name": "A2",
                    "midi": 45,
                    "time": 209.7857492499979,
                    "velocity": 0.4645669291338583,
                    "duration": 0.21428574999998773
                },
                {
                    "name": "A#2",
                    "midi": 46,
                    "time": 210.0000349999979,
                    "velocity": 0.4881889763779528,
                    "duration": 0.20357146250000824
                },
                {
                    "name": "F3",
                    "midi": 53,
                    "time": 210.0000349999979,
                    "velocity": 0.4881889763779528,
                    "duration": 0.20357146250000824
                },
                {
                    "name": "A#3",
                    "midi": 58,
                    "time": 210.0000349999979,
                    "velocity": 0.5826771653543307,
                    "duration": 0.20357146250000824
                },
                {
                    "name": "A#2",
                    "midi": 46,
                    "time": 210.2143207499979,
                    "velocity": 0.47244094488188976,
                    "duration": 0.42857149999997546
                },
                {
                    "name": "F3",
                    "midi": 53,
                    "time": 210.2143207499979,
                    "velocity": 0.5590551181102362,
                    "duration": 0.21428574999998773
                },
                {
                    "name": "A#3",
                    "midi": 58,
                    "time": 210.4286064999979,
                    "velocity": 0.5590551181102362,
                    "duration": 0.21428574999998773
                },
                {
                    "name": "F3",
                    "midi": 53,
                    "time": 210.64289224999789,
                    "velocity": 0.47244094488188976,
                    "duration": 0.21428574999998773
                },
                {
                    "name": "C3",
                    "midi": 48,
                    "time": 210.64289224999789,
                    "velocity": 0.47244094488188976,
                    "duration": 0.21428574999998773
                },
                {
                    "name": "C4",
                    "midi": 60,
                    "time": 210.64289224999789,
                    "velocity": 0.5590551181102362,
                    "duration": 0.21428574999998773
                },
                {
                    "name": "A#2",
                    "midi": 46,
                    "time": 210.85717799999787,
                    "velocity": 0.4330708661417323,
                    "duration": 0.21428574999998773
                },
                {
                    "name": "F3",
                    "midi": 53,
                    "time": 210.85717799999787,
                    "velocity": 0.4330708661417323,
                    "duration": 0.21428574999998773
                },
                {
                    "name": "A#3",
                    "midi": 58,
                    "time": 210.85717799999787,
                    "velocity": 0.5118110236220472,
                    "duration": 0.21428574999998773
                },
                {
                    "name": "A#2",
                    "midi": 46,
                    "time": 211.28574949999785,
                    "velocity": 0.4881889763779528,
                    "duration": 0.6428572499999916
                },
                {
                    "name": "F3",
                    "midi": 53,
                    "time": 211.28574949999785,
                    "velocity": 0.4881889763779528,
                    "duration": 0.6428572499999916
                },
                {
                    "name": "A#3",
                    "midi": 58,
                    "time": 211.28574949999785,
                    "velocity": 0.5826771653543307,
                    "duration": 0.6428572499999916
                },
                {
                    "name": "D4",
                    "midi": 62,
                    "time": 211.92860674999784,
                    "velocity": 0.5590551181102362,
                    "duration": 0.21428574999998773
                },
                {
                    "name": "D3",
                    "midi": 50,
                    "time": 211.92860674999784,
                    "velocity": 0.47244094488188976,
                    "duration": 0.21428574999998773
                },
                {
                    "name": "F4",
                    "midi": 65,
                    "time": 212.14289249999783,
                    "velocity": 0.5826771653543307,
                    "duration": 0.21428574999998773
                },
                {
                    "name": "F3",
                    "midi": 53,
                    "time": 212.14289249999783,
                    "velocity": 0.4881889763779528,
                    "duration": 0.21428574999998773
                },
                {
                    "name": "D4",
                    "midi": 62,
                    "time": 212.35717824999782,
                    "velocity": 0.5511811023622047,
                    "duration": 0.21428574999998773
                },
                {
                    "name": "D3",
                    "midi": 50,
                    "time": 212.35717824999782,
                    "velocity": 0.4645669291338583,
                    "duration": 0.21428574999998773
                },
                {
                    "name": "A#2",
                    "midi": 46,
                    "time": 212.5714639999978,
                    "velocity": 0.4881889763779528,
                    "duration": 0.21428574999998773
                },
                {
                    "name": "A#3",
                    "midi": 58,
                    "time": 212.5714639999978,
                    "velocity": 0.5826771653543307,
                    "duration": 0.21428574999998773
                },
                {
                    "name": "D3",
                    "midi": 50,
                    "time": 212.7857497499978,
                    "velocity": 0.4566929133858268,
                    "duration": 0.21428574999998773
                },
                {
                    "name": "D4",
                    "midi": 62,
                    "time": 212.7857497499978,
                    "velocity": 0.5354330708661418,
                    "duration": 0.21428574999998773
                },
                {
                    "name": "A#2",
                    "midi": 46,
                    "time": 213.00003549999778,
                    "velocity": 0.47244094488188976,
                    "duration": 0.21428574999998773
                },
                {
                    "name": "A#3",
                    "midi": 58,
                    "time": 213.00003549999778,
                    "velocity": 0.5590551181102362,
                    "duration": 0.21428574999998773
                },
                {
                    "name": "A2",
                    "midi": 45,
                    "time": 213.21432124999777,
                    "velocity": 0.47244094488188976,
                    "duration": 0.21428574999998773
                },
                {
                    "name": "A3",
                    "midi": 57,
                    "time": 213.21432124999777,
                    "velocity": 0.5590551181102362,
                    "duration": 0.21428574999998773
                },
                {
                    "name": "G2",
                    "midi": 43,
                    "time": 213.42860699999775,
                    "velocity": 0.49606299212598426,
                    "duration": 0.21428574999998773
                },
                {
                    "name": "G3",
                    "midi": 55,
                    "time": 213.42860699999775,
                    "velocity": 0.5826771653543307,
                    "duration": 0.21428574999998773
                },
                {
                    "name": "G2",
                    "midi": 43,
                    "time": 213.85717849999773,
                    "velocity": 0.5590551181102362,
                    "duration": 0.635714391666653
                },
                {
                    "name": "G3",
                    "midi": 55,
                    "time": 213.85717849999773,
                    "velocity": 0.6692913385826772,
                    "duration": 0.635714391666653
                },
                {
                    "name": "G1",
                    "midi": 31,
                    "time": 214.50003574999772,
                    "velocity": 0.5039370078740157,
                    "duration": 0.41071435416665736
                },
                {
                    "name": "G2",
                    "midi": 43,
                    "time": 214.50003574999772,
                    "velocity": 0.5826771653543307,
                    "duration": 0.41071435416665736
                },
                {
                    "name": "G1",
                    "midi": 31,
                    "time": 214.92860724999773,
                    "velocity": 0.5039370078740157,
                    "duration": 0.21428574999998773
                },
                {
                    "name": "G2",
                    "midi": 43,
                    "time": 214.92860724999773,
                    "velocity": 0.6062992125984252,
                    "duration": 0.21428574999998773
                },
                {
                    "name": "C2",
                    "midi": 36,
                    "time": 215.1428929999977,
                    "velocity": 0.49606299212598426,
                    "duration": 0.21428574999998773
                },
                {
                    "name": "C3",
                    "midi": 48,
                    "time": 215.1428929999977,
                    "velocity": 0.5826771653543307,
                    "duration": 0.21428574999998773
                },
                {
                    "name": "C2",
                    "midi": 36,
                    "time": 215.5714644999977,
                    "velocity": 0.5590551181102362,
                    "duration": 0.6428572499999916
                },
                {
                    "name": "C3",
                    "midi": 48,
                    "time": 215.5714644999977,
                    "velocity": 0.6692913385826772,
                    "duration": 0.6428572499999916
                },
                {
                    "name": "F1",
                    "midi": 29,
                    "time": 216.21432174999768,
                    "velocity": 0.5039370078740157,
                    "duration": 0.41071435416665736
                },
                {
                    "name": "F2",
                    "midi": 41,
                    "time": 216.21432174999768,
                    "velocity": 0.5826771653543307,
                    "duration": 0.41071435416665736
                },
                {
                    "name": "F1",
                    "midi": 29,
                    "time": 216.64289324999768,
                    "velocity": 0.5039370078740157,
                    "duration": 0.21428574999998773
                },
                {
                    "name": "F2",
                    "midi": 41,
                    "time": 216.64289324999768,
                    "velocity": 0.6062992125984252,
                    "duration": 0.21428574999998773
                },
                {
                    "name": "F2",
                    "midi": 41,
                    "time": 216.85717899999767,
                    "velocity": 0.4330708661417323,
                    "duration": 0.21428574999998773
                },
                {
                    "name": "C3",
                    "midi": 48,
                    "time": 216.85717899999767,
                    "velocity": 0.4330708661417323,
                    "duration": 0.21428574999998773
                },
                {
                    "name": "F3",
                    "midi": 53,
                    "time": 216.85717899999767,
                    "velocity": 0.5118110236220472,
                    "duration": 0.21428574999998773
                },
                {
                    "name": "F2",
                    "midi": 41,
                    "time": 217.28575049999765,
                    "velocity": 0.4881889763779528,
                    "duration": 0.6339286770833326
                },
                {
                    "name": "C3",
                    "midi": 48,
                    "time": 217.28575049999765,
                    "velocity": 0.4881889763779528,
                    "duration": 0.6339286770833326
                },
                {
                    "name": "F3",
                    "midi": 53,
                    "time": 217.28575049999765,
                    "velocity": 0.5826771653543307,
                    "duration": 0.6339286770833326
                },
                {
                    "name": "F3",
                    "midi": 53,
                    "time": 217.92860774999764,
                    "velocity": 0.2992125984251969,
                    "duration": 0.41071435416665736
                },
                {
                    "name": "C4",
                    "midi": 60,
                    "time": 217.92860774999764,
                    "velocity": 0.3543307086614173,
                    "duration": 0.41071435416665736
                },
                {
                    "name": "D#3",
                    "midi": 51,
                    "time": 218.35717924999764,
                    "velocity": 0.33858267716535434,
                    "duration": 0.21428575000001615
                },
                {
                    "name": "C4",
                    "midi": 60,
                    "time": 218.35717924999764,
                    "velocity": 0.4015748031496063,
                    "duration": 0.20714289166667754
                },
                {
                    "name": "D3",
                    "midi": 50,
                    "time": 218.57146499999766,
                    "velocity": 0.2992125984251969,
                    "duration": 0.21428574999998773
                },
                {
                    "name": "C4",
                    "midi": 60,
                    "time": 218.57146499999766,
                    "velocity": 0.3543307086614173,
                    "duration": 0.21428574999998773
                },
                {
                    "name": "D3",
                    "midi": 50,
                    "time": 219.00003649999763,
                    "velocity": 0.33858267716535434,
                    "duration": 0.6339286770833326
                },
                {
                    "name": "C4",
                    "midi": 60,
                    "time": 219.00003649999763,
                    "velocity": 0.4015748031496063,
                    "duration": 0.6339286770833326
                },
                {
                    "name": "C3",
                    "midi": 48,
                    "time": 220.92860824999764,
                    "velocity": 0.2992125984251969,
                    "duration": 0.21428574999998773
                },
                {
                    "name": "A3",
                    "midi": 57,
                    "time": 220.92860824999764,
                    "velocity": 0.2992125984251969,
                    "duration": 0.21428574999998773
                },
                {
                    "name": "D3",
                    "midi": 50,
                    "time": 221.14289399999763,
                    "velocity": 0.25984251968503935,
                    "duration": 0.21428574999998773
                },
                {
                    "name": "C4",
                    "midi": 60,
                    "time": 221.14289399999763,
                    "velocity": 0.30708661417322836,
                    "duration": 0.21428574999998773
                },
                {
                    "name": "D3",
                    "midi": 50,
                    "time": 221.5714654999976,
                    "velocity": 0.28346456692913385,
                    "duration": 0.6339286770833326
                },
                {
                    "name": "C4",
                    "midi": 60,
                    "time": 221.5714654999976,
                    "velocity": 0.33070866141732286,
                    "duration": 0.6339286770833326
                },
                {
                    "name": "C3",
                    "midi": 48,
                    "time": 223.5000372499976,
                    "velocity": 0.2992125984251969,
                    "duration": 0.21428574999998773
                },
                {
                    "name": "A3",
                    "midi": 57,
                    "time": 223.5000372499976,
                    "velocity": 0.2992125984251969,
                    "duration": 0.21428574999998773
                },
                {
                    "name": "D3",
                    "midi": 50,
                    "time": 223.7143229999976,
                    "velocity": 0.25984251968503935,
                    "duration": 0.21428574999998773
                },
                {
                    "name": "C4",
                    "midi": 60,
                    "time": 223.7143229999976,
                    "velocity": 0.30708661417322836,
                    "duration": 0.21428574999998773
                },
                {
                    "name": "D3",
                    "midi": 50,
                    "time": 224.14289449999757,
                    "velocity": 0.28346456692913385,
                    "duration": 0.6339286770833326
                },
                {
                    "name": "C4",
                    "midi": 60,
                    "time": 224.14289449999757,
                    "velocity": 0.33070866141732286,
                    "duration": 0.6339286770833326
                },
                {
                    "name": "D3",
                    "midi": 50,
                    "time": 224.78575174999756,
                    "velocity": 0.29133858267716534,
                    "duration": 0.39285720833333926
                },
                {
                    "name": "C4",
                    "midi": 60,
                    "time": 224.78575174999756,
                    "velocity": 0.3464566929133858,
                    "duration": 0.39285720833333926
                },
                {
                    "name": "D3",
                    "midi": 50,
                    "time": 225.21432324999756,
                    "velocity": 0.25984251968503935,
                    "duration": 0.19642860416666963
                },
                {
                    "name": "C4",
                    "midi": 60,
                    "time": 225.21432324999756,
                    "velocity": 0.30708661417322836,
                    "duration": 0.19642860416666963
                },
                {
                    "name": "D3",
                    "midi": 50,
                    "time": 225.42860899999758,
                    "velocity": 0.29133858267716534,
                    "duration": 0.21428574999998773
                },
                {
                    "name": "C4",
                    "midi": 60,
                    "time": 225.42860899999758,
                    "velocity": 0.3464566929133858,
                    "duration": 0.21428574999998773
                },
                {
                    "name": "D3",
                    "midi": 50,
                    "time": 225.85718049999755,
                    "velocity": 0.25984251968503935,
                    "duration": 0.6339286770833326
                },
                {
                    "name": "C4",
                    "midi": 60,
                    "time": 225.85718049999755,
                    "velocity": 0.30708661417322836,
                    "duration": 0.6339286770833326
                },
                {
                    "name": "B2",
                    "midi": 47,
                    "time": 226.50003774999755,
                    "velocity": 0.29133858267716534,
                    "duration": 0.21428574999998773
                },
                {
                    "name": "A3",
                    "midi": 57,
                    "time": 226.50003774999755,
                    "velocity": 0.3464566929133858,
                    "duration": 0.21428574999998773
                },
                {
                    "name": "B2",
                    "midi": 47,
                    "time": 226.92860924999752,
                    "velocity": 0.25984251968503935,
                    "duration": 0.19642860416666963
                },
                {
                    "name": "A3",
                    "midi": 57,
                    "time": 226.92860924999752,
                    "velocity": 0.30708661417322836,
                    "duration": 0.19642860416666963
                },
                {
                    "name": "B2",
                    "midi": 47,
                    "time": 227.14289499999754,
                    "velocity": 0.29133858267716534,
                    "duration": 0.39285720833333926
                },
                {
                    "name": "A3",
                    "midi": 57,
                    "time": 227.14289499999754,
                    "velocity": 0.3464566929133858,
                    "duration": 0.39285720833333926
                },
                {
                    "name": "B2",
                    "midi": 47,
                    "time": 227.57146649999754,
                    "velocity": 0.25984251968503935,
                    "duration": 0.6339286770833326
                },
                {
                    "name": "A3",
                    "midi": 57,
                    "time": 227.57146649999754,
                    "velocity": 0.30708661417322836,
                    "duration": 0.6339286770833326
                },
                {
                    "name": "A#2",
                    "midi": 46,
                    "time": 228.21432374999753,
                    "velocity": 0.31496062992125984,
                    "duration": 0.21428574999998773
                },
                {
                    "name": "A#3",
                    "midi": 58,
                    "time": 228.21432374999753,
                    "velocity": 0.3779527559055118,
                    "duration": 0.21428574999998773
                },
                {
                    "name": "A#2",
                    "midi": 46,
                    "time": 228.6428952499975,
                    "velocity": 0.25984251968503935,
                    "duration": 0.19642860416666963
                },
                {
                    "name": "A#3",
                    "midi": 58,
                    "time": 228.6428952499975,
                    "velocity": 0.30708661417322836,
                    "duration": 0.19642860416666963
                },
                {
                    "name": "A#2",
                    "midi": 46,
                    "time": 228.85718099999752,
                    "velocity": 0.29133858267716534,
                    "duration": 0.39285720833333926
                },
                {
                    "name": "A#3",
                    "midi": 58,
                    "time": 228.85718099999752,
                    "velocity": 0.3464566929133858,
                    "duration": 0.39285720833333926
                },
                {
                    "name": "A#2",
                    "midi": 46,
                    "time": 229.28575249999753,
                    "velocity": 0.25984251968503935,
                    "duration": 0.6339286770833326
                },
                {
                    "name": "A#3",
                    "midi": 58,
                    "time": 229.28575249999753,
                    "velocity": 0.30708661417322836,
                    "duration": 0.6339286770833326
                },
                {
                    "name": "A2",
                    "midi": 45,
                    "time": 229.92860974999752,
                    "velocity": 0.2677165354330709,
                    "duration": 0.21428574999998773
                },
                {
                    "name": "G3",
                    "midi": 55,
                    "time": 229.92860974999752,
                    "velocity": 0.31496062992125984,
                    "duration": 0.21428574999998773
                },
                {
                    "name": "A2",
                    "midi": 45,
                    "time": 230.3571812499975,
                    "velocity": 0.2204724409448819,
                    "duration": 0.19642860416666963
                },
                {
                    "name": "G3",
                    "midi": 55,
                    "time": 230.3571812499975,
                    "velocity": 0.25984251968503935,
                    "duration": 0.19642860416666963
                },
                {
                    "name": "A2",
                    "midi": 45,
                    "time": 230.5714669999975,
                    "velocity": 0.2440944881889764,
                    "duration": 0.39285720833333926
                },
                {
                    "name": "G3",
                    "midi": 55,
                    "time": 230.5714669999975,
                    "velocity": 0.29133858267716534,
                    "duration": 0.39285720833333926
                },
                {
                    "name": "A2",
                    "midi": 45,
                    "time": 231.00003849999752,
                    "velocity": 0.2204724409448819,
                    "duration": 0.6339286770833326
                },
                {
                    "name": "G3",
                    "midi": 55,
                    "time": 231.00003849999752,
                    "velocity": 0.25984251968503935,
                    "duration": 0.6339286770833326
                },
                {
                    "name": "G#2",
                    "midi": 44,
                    "time": 231.6428957499975,
                    "velocity": 0.2440944881889764,
                    "duration": 0.21428574999998773
                },
                {
                    "name": "G#3",
                    "midi": 56,
                    "time": 231.6428957499975,
                    "velocity": 0.29133858267716534,
                    "duration": 0.21428574999998773
                },
                {
                    "name": "G#2",
                    "midi": 44,
                    "time": 232.07146724999748,
                    "velocity": 0.2204724409448819,
                    "duration": 0.19642860416666963
                },
                {
                    "name": "G#3",
                    "midi": 56,
                    "time": 232.07146724999748,
                    "velocity": 0.25984251968503935,
                    "duration": 0.19642860416666963
                },
                {
                    "name": "G#2",
                    "midi": 44,
                    "time": 232.2857529999975,
                    "velocity": 0.2440944881889764,
                    "duration": 0.39285720833333926
                },
                {
                    "name": "G#3",
                    "midi": 56,
                    "time": 232.2857529999975,
                    "velocity": 0.29133858267716534,
                    "duration": 0.39285720833333926
                },
                {
                    "name": "G#2",
                    "midi": 44,
                    "time": 232.7143244999975,
                    "velocity": 0.2204724409448819,
                    "duration": 0.6339286770833326
                },
                {
                    "name": "G#3",
                    "midi": 56,
                    "time": 232.7143244999975,
                    "velocity": 0.25984251968503935,
                    "duration": 0.6339286770833326
                },
                {
                    "name": "G2",
                    "midi": 43,
                    "time": 233.3571817499975,
                    "velocity": 0.2047244094488189,
                    "duration": 0.21428574999998773
                },
                {
                    "name": "F3",
                    "midi": 53,
                    "time": 233.3571817499975,
                    "velocity": 0.2440944881889764,
                    "duration": 0.21428574999998773
                },
                {
                    "name": "G2",
                    "midi": 43,
                    "time": 233.78575324999747,
                    "velocity": 0.18110236220472442,
                    "duration": 0.19642860416666963
                },
                {
                    "name": "F3",
                    "midi": 53,
                    "time": 233.78575324999747,
                    "velocity": 0.2204724409448819,
                    "duration": 0.19642860416666963
                },
                {
                    "name": "F#2",
                    "midi": 42,
                    "time": 234.21432474999747,
                    "velocity": 0.2047244094488189,
                    "duration": 0.21428574999998773
                },
                {
                    "name": "F#3",
                    "midi": 54,
                    "time": 234.21432474999747,
                    "velocity": 0.2440944881889764,
                    "duration": 0.21428574999998773
                },
                {
                    "name": "F#2",
                    "midi": 42,
                    "time": 234.64289624999745,
                    "velocity": 0.18110236220472442,
                    "duration": 0.19642860416666963
                },
                {
                    "name": "F#3",
                    "midi": 54,
                    "time": 234.64289624999745,
                    "velocity": 0.2204724409448819,
                    "duration": 0.19642860416666963
                },
                {
                    "name": "F2",
                    "midi": 41,
                    "time": 235.07146774999745,
                    "velocity": 0.1732283464566929,
                    "duration": 0.21428574999998773
                },
                {
                    "name": "D#3",
                    "midi": 51,
                    "time": 235.07146774999745,
                    "velocity": 0.2047244094488189,
                    "duration": 0.21428574999998773
                },
                {
                    "name": "F2",
                    "midi": 41,
                    "time": 235.50003924999743,
                    "velocity": 0.14960629921259844,
                    "duration": 0.19642860416666963
                },
                {
                    "name": "D#3",
                    "midi": 51,
                    "time": 235.50003924999743,
                    "velocity": 0.18110236220472442,
                    "duration": 0.19642860416666963
                },
                {
                    "name": "E2",
                    "midi": 40,
                    "time": 235.92861074999743,
                    "velocity": 0.1732283464566929,
                    "duration": 0.21428574999998773
                },
                {
                    "name": "E3",
                    "midi": 52,
                    "time": 235.92861074999743,
                    "velocity": 0.2047244094488189,
                    "duration": 0.21428574999998773
                },
                {
                    "name": "E2",
                    "midi": 40,
                    "time": 236.3571822499974,
                    "velocity": 0.14960629921259844,
                    "duration": 0.19642860416666963
                },
                {
                    "name": "E3",
                    "midi": 52,
                    "time": 236.3571822499974,
                    "velocity": 0.18110236220472442,
                    "duration": 0.19642860416666963
                },
                {
                    "name": "E2",
                    "midi": 40,
                    "time": 237.0000394999974,
                    "velocity": 0.4015748031496063,
                    "duration": 0.8142858500000045
                },
                {
                    "name": "E3",
                    "midi": 52,
                    "time": 237.0000394999974,
                    "velocity": 0.47244094488188976,
                    "duration": 0.8142858500000045
                },
                {
                    "name": "E2",
                    "midi": 40,
                    "time": 237.8571824999974,
                    "velocity": 0.2677165354330709,
                    "duration": 0.4285715000000039
                },
                {
                    "name": "E3",
                    "midi": 52,
                    "time": 237.8571824999974,
                    "velocity": 0.3228346456692913,
                    "duration": 0.4285715000000039
                },
                {
                    "name": "E2",
                    "midi": 40,
                    "time": 238.71432549999741,
                    "velocity": 0.1968503937007874,
                    "duration": 0.8571430000000078
                },
                {
                    "name": "E3",
                    "midi": 52,
                    "time": 238.71432549999741,
                    "velocity": 0.23622047244094488,
                    "duration": 0.8571430000000078
                },
                {
                    "name": "E2",
                    "midi": 40,
                    "time": 239.57146849999742,
                    "velocity": 0.1732283464566929,
                    "duration": 0.38571435000000065
                },
                {
                    "name": "E3",
                    "midi": 52,
                    "time": 239.57146849999742,
                    "velocity": 0.2047244094488189,
                    "duration": 0.38571435000000065
                },
                {
                    "name": "A3",
                    "midi": 57,
                    "time": 240.42861149999743,
                    "velocity": 0.30708661417322836,
                    "duration": 0.38571435000000065
                },
                {
                    "name": "C#4",
                    "midi": 61,
                    "time": 240.42861149999743,
                    "velocity": 0.30708661417322836,
                    "duration": 0.4285715000000039
                },
                {
                    "name": "E4",
                    "midi": 64,
                    "time": 240.42861149999743,
                    "velocity": 0.36220472440944884,
                    "duration": 0.4285715000000039
                },
                {
                    "name": "A3",
                    "midi": 57,
                    "time": 240.85718299999743,
                    "velocity": 0.33070866141732286,
                    "duration": 0.38571435000000065
                },
                {
                    "name": "D4",
                    "midi": 62,
                    "time": 240.85718299999743,
                    "velocity": 0.33070866141732286,
                    "duration": 0.38571435000000065
                },
                {
                    "name": "F#4",
                    "midi": 66,
                    "time": 240.85718299999743,
                    "velocity": 0.3937007874015748,
                    "duration": 0.38571435000000065
                },
                {
                    "name": "A3",
                    "midi": 57,
                    "time": 241.28575449999744,
                    "velocity": 0.2204724409448819,
                    "duration": 0.38571435000000065
                },
                {
                    "name": "C4",
                    "midi": 60,
                    "time": 241.28575449999744,
                    "velocity": 0.2204724409448819,
                    "duration": 0.38571435000000065
                },
                {
                    "name": "D#4",
                    "midi": 63,
                    "time": 241.28575449999744,
                    "velocity": 0.2677165354330709,
                    "duration": 0.38571435000000065
                },
                {
                    "name": "A3",
                    "midi": 57,
                    "time": 241.71432599999744,
                    "velocity": 0.29133858267716534,
                    "duration": 1.2857145000000116
                },
                {
                    "name": "C#4",
                    "midi": 61,
                    "time": 241.71432599999744,
                    "velocity": 0.29133858267716534,
                    "duration": 1.2678573541666651
                },
                {
                    "name": "E4",
                    "midi": 64,
                    "time": 241.71432599999744,
                    "velocity": 0.3464566929133858,
                    "duration": 1.2678573541666651
                },
                {
                    "name": "C#4",
                    "midi": 61,
                    "time": 243.00004049999745,
                    "velocity": 0.33070866141732286,
                    "duration": 0.41071435416665736
                },
                {
                    "name": "E4",
                    "midi": 64,
                    "time": 243.00004049999745,
                    "velocity": 0.33070866141732286,
                    "duration": 0.41071435416665736
                },
                {
                    "name": "A4",
                    "midi": 69,
                    "time": 243.00004049999745,
                    "velocity": 0.4330708661417323,
                    "duration": 0.4285715000000039
                },
                {
                    "name": "C#4",
                    "midi": 61,
                    "time": 243.42861199999746,
                    "velocity": 0.33070866141732286,
                    "duration": 0.41071435416665736
                },
                {
                    "name": "E4",
                    "midi": 64,
                    "time": 243.42861199999746,
                    "velocity": 0.33070866141732286,
                    "duration": 0.4285715000000039
                },
                {
                    "name": "B4",
                    "midi": 71,
                    "time": 243.42861199999746,
                    "velocity": 0.44881889763779526,
                    "duration": 0.4285715000000039
                },
                {
                    "name": "C#4",
                    "midi": 61,
                    "time": 243.85718349999746,
                    "velocity": 0.3700787401574803,
                    "duration": 0.38571435000000065
                },
                {
                    "name": "E4",
                    "midi": 64,
                    "time": 243.85718349999746,
                    "velocity": 0.3700787401574803,
                    "duration": 0.38571435000000065
                },
                {
                    "name": "C#5",
                    "midi": 73,
                    "time": 243.85718349999746,
                    "velocity": 0.48031496062992124,
                    "duration": 0.38571435000000065
                },
                {
                    "name": "D4",
                    "midi": 62,
                    "time": 244.28575499999747,
                    "velocity": 0.2992125984251969,
                    "duration": 1.2857145000000116
                },
                {
                    "name": "F#4",
                    "midi": 66,
                    "time": 244.28575499999747,
                    "velocity": 0.3543307086614173,
                    "duration": 1.2857145000000116
                },
                {
                    "name": "C#5",
                    "midi": 73,
                    "time": 244.28575499999747,
                    "velocity": 0.4566929133858268,
                    "duration": 0.8571430000000078
                },
                {
                    "name": "B4",
                    "midi": 71,
                    "time": 245.14289799999747,
                    "velocity": 0.3464566929133858,
                    "duration": 0.4285715000000039
                },
                {
                    "name": "C#4",
                    "midi": 61,
                    "time": 245.57146949999748,
                    "velocity": 0.31496062992125984,
                    "duration": 0.4285715000000039
                },
                {
                    "name": "E4",
                    "midi": 64,
                    "time": 245.57146949999748,
                    "velocity": 0.31496062992125984,
                    "duration": 0.4285715000000039
                },
                {
                    "name": "A4",
                    "midi": 69,
                    "time": 245.57146949999748,
                    "velocity": 0.4409448818897638,
                    "duration": 0.4285715000000039
                },
                {
                    "name": "B3",
                    "midi": 59,
                    "time": 246.00004099999748,
                    "velocity": 0.31496062992125984,
                    "duration": 0.4285715000000039
                },
                {
                    "name": "D4",
                    "midi": 62,
                    "time": 246.00004099999748,
                    "velocity": 0.31496062992125984,
                    "duration": 0.4285715000000039
                },
                {
                    "name": "G#4",
                    "midi": 68,
                    "time": 246.00004099999748,
                    "velocity": 0.4015748031496063,
                    "duration": 0.4285715000000039
                },
                {
                    "name": "A3",
                    "midi": 57,
                    "time": 246.42861249999748,
                    "velocity": 0.29133858267716534,
                    "duration": 0.4285715000000039
                },
                {
                    "name": "C#4",
                    "midi": 61,
                    "time": 246.42861249999748,
                    "velocity": 0.29133858267716534,
                    "duration": 0.38571435000000065
                },
                {
                    "name": "F#4",
                    "midi": 66,
                    "time": 246.42861249999748,
                    "velocity": 0.3779527559055118,
                    "duration": 0.38571435000000065
                },
                {
                    "name": "B3",
                    "midi": 59,
                    "time": 246.8571839999975,
                    "velocity": 0.33070866141732286,
                    "duration": 0.6428572499999916
                },
                {
                    "name": "G#3",
                    "midi": 56,
                    "time": 246.8571839999975,
                    "velocity": 0.33070866141732286,
                    "duration": 1.2678573541666367
                },
                {
                    "name": "E4",
                    "midi": 64,
                    "time": 246.8571839999975,
                    "velocity": 0.3937007874015748,
                    "duration": 1.2678573541666367
                },
                {
                    "name": "C#4",
                    "midi": 61,
                    "time": 247.50004124999748,
                    "velocity": 0.33070866141732286,
                    "duration": 0.21428574999998773
                },
                {
                    "name": "D4",
                    "midi": 62,
                    "time": 247.71432699999747,
                    "velocity": 0.33070866141732286,
                    "duration": 0.4285715000000039
                },
                {
                    "name": "G#3",
                    "midi": 56,
                    "time": 248.14289849999747,
                    "velocity": 0.33070866141732286,
                    "duration": 0.19642860416666963
                },
                {
                    "name": "D4",
                    "midi": 62,
                    "time": 248.14289849999747,
                    "velocity": 0.33070866141732286,
                    "duration": 0.21428575000001615
                },
                {
                    "name": "E4",
                    "midi": 64,
                    "time": 248.14289849999747,
                    "velocity": 0.3937007874015748,
                    "duration": 0.19642860416666963
                },
                {
                    "name": "F#4",
                    "midi": 66,
                    "time": 248.3571842499975,
                    "velocity": 0.31496062992125984,
                    "duration": 0.10714287499999386
                },
                {
                    "name": "G#4",
                    "midi": 68,
                    "time": 248.46432712499748,
                    "velocity": 0.31496062992125984,
                    "duration": 0.10714287499999386
                },
                {
                    "name": "G#3",
                    "midi": 56,
                    "time": 248.57146999999748,
                    "velocity": 0.33070866141732286,
                    "duration": 0.38571435000000065
                },
                {
                    "name": "D4",
                    "midi": 62,
                    "time": 248.57146999999748,
                    "velocity": 0.33070866141732286,
                    "duration": 0.38571435000000065
                },
                {
                    "name": "F#4",
                    "midi": 66,
                    "time": 248.57146999999748,
                    "velocity": 0.3937007874015748,
                    "duration": 0.38571435000000065
                },
                {
                    "name": "G#3",
                    "midi": 56,
                    "time": 249.00004149999748,
                    "velocity": 0.2755905511811024,
                    "duration": 0.38571435000000065
                },
                {
                    "name": "D4",
                    "midi": 62,
                    "time": 249.00004149999748,
                    "velocity": 0.2755905511811024,
                    "duration": 0.38571435000000065
                },
                {
                    "name": "E4",
                    "midi": 64,
                    "time": 249.00004149999748,
                    "velocity": 0.33070866141732286,
                    "duration": 0.38571435000000065
                },
                {
                    "name": "A3",
                    "midi": 57,
                    "time": 249.42861299999748,
                    "velocity": 0.33070866141732286,
                    "duration": 1.2678573541666651
                },
                {
                    "name": "D4",
                    "midi": 62,
                    "time": 249.42861299999748,
                    "velocity": 0.33070866141732286,
                    "duration": 0.8571430000000078
                },
                {
                    "name": "F#4",
                    "midi": 66,
                    "time": 249.42861299999748,
                    "velocity": 0.3937007874015748,
                    "duration": 0.8571430000000078
                },
                {
                    "name": "C#4",
                    "midi": 61,
                    "time": 250.2857559999975,
                    "velocity": 0.29133858267716534,
                    "duration": 0.41071435416665736
                },
                {
                    "name": "E4",
                    "midi": 64,
                    "time": 250.2857559999975,
                    "velocity": 0.3464566929133858,
                    "duration": 0.41071435416665736
                },
                {
                    "name": "A3",
                    "midi": 57,
                    "time": 250.7143274999975,
                    "velocity": 0.3779527559055118,
                    "duration": 0.4285715000000039
                },
                {
                    "name": "C#4",
                    "midi": 61,
                    "time": 250.7143274999975,
                    "velocity": 0.44881889763779526,
                    "duration": 0.4285715000000039
                },
                {
                    "name": "A3",
                    "midi": 57,
                    "time": 251.1428989999975,
                    "velocity": 0.4094488188976378,
                    "duration": 0.38571435000000065
                },
                {
                    "name": "D4",
                    "midi": 62,
                    "time": 251.1428989999975,
                    "velocity": 0.4094488188976378,
                    "duration": 0.38571435000000065
                },
                {
                    "name": "F#4",
                    "midi": 66,
                    "time": 251.1428989999975,
                    "velocity": 0.4881889763779528,
                    "duration": 0.38571435000000065
                },
                {
                    "name": "A3",
                    "midi": 57,
                    "time": 251.5714704999975,
                    "velocity": 0.29133858267716534,
                    "duration": 0.38571435000000065
                },
                {
                    "name": "C4",
                    "midi": 60,
                    "time": 251.5714704999975,
                    "velocity": 0.29133858267716534,
                    "duration": 0.38571435000000065
                },
                {
                    "name": "D#4",
                    "midi": 63,
                    "time": 251.5714704999975,
                    "velocity": 0.3543307086614173,
                    "duration": 0.38571435000000065
                },
                {
                    "name": "A3",
                    "midi": 57,
                    "time": 252.0000419999975,
                    "velocity": 0.33858267716535434,
                    "duration": 1.2857145000000116
                },
                {
                    "name": "C#4",
                    "midi": 61,
                    "time": 252.0000419999975,
                    "velocity": 0.33858267716535434,
                    "duration": 1.2678573541666651
                },
                {
                    "name": "E4",
                    "midi": 64,
                    "time": 252.0000419999975,
                    "velocity": 0.41732283464566927,
                    "duration": 1.2678573541666651
                },
                {
                    "name": "A3",
                    "midi": 57,
                    "time": 253.28575649999752,
                    "velocity": 0.41732283464566927,
                    "duration": 0.41071435416665736
                },
                {
                    "name": "C#4",
                    "midi": 61,
                    "time": 253.28575649999752,
                    "velocity": 0.4881889763779528,
                    "duration": 0.41071435416665736
                },
                {
                    "name": "A3",
                    "midi": 57,
                    "time": 253.71432799999752,
                    "velocity": 0.4881889763779528,
                    "duration": 0.41071435416665736
                },
                {
                    "name": "C#4",
                    "midi": 61,
                    "time": 253.71432799999752,
                    "velocity": 0.4881889763779528,
                    "duration": 0.41071435416665736
                },
                {
                    "name": "E4",
                    "midi": 64,
                    "time": 253.71432799999752,
                    "velocity": 0.5511811023622047,
                    "duration": 0.4285715000000039
                },
                {
                    "name": "C#4",
                    "midi": 61,
                    "time": 254.14289949999753,
                    "velocity": 0.4409448818897638,
                    "duration": 0.38571435000000065
                },
                {
                    "name": "A3",
                    "midi": 57,
                    "time": 254.14289949999753,
                    "velocity": 0.4409448818897638,
                    "duration": 0.38571435000000065
                },
                {
                    "name": "D#4",
                    "midi": 63,
                    "time": 254.14289949999753,
                    "velocity": 0.4409448818897638,
                    "duration": 0.38571435000000065
                },
                {
                    "name": "F#4",
                    "midi": 66,
                    "time": 254.14289949999753,
                    "velocity": 0.5275590551181102,
                    "duration": 0.38571435000000065
                },
                {
                    "name": "E4",
                    "midi": 64,
                    "time": 254.57147099999753,
                    "velocity": 0.47244094488188976,
                    "duration": 1.2678573541666651
                },
                {
                    "name": "G#3",
                    "midi": 56,
                    "time": 254.57147099999753,
                    "velocity": 0.47244094488188976,
                    "duration": 1.2857145000000116
                },
                {
                    "name": "C#4",
                    "midi": 61,
                    "time": 254.57147099999753,
                    "velocity": 0.47244094488188976,
                    "duration": 1.2678573541666651
                },
                {
                    "name": "G#4",
                    "midi": 68,
                    "time": 254.57147099999753,
                    "velocity": 0.5590551181102362,
                    "duration": 1.2678573541666651
                },
                {
                    "name": "G#3",
                    "midi": 56,
                    "time": 255.85718549999754,
                    "velocity": 0.25196850393700787,
                    "duration": 0.4285715000000039
                },
                {
                    "name": "E4",
                    "midi": 64,
                    "time": 255.85718549999754,
                    "velocity": 0.25196850393700787,
                    "duration": 0.4107143541666858
                },
                {
                    "name": "G#4",
                    "midi": 68,
                    "time": 255.85718549999754,
                    "velocity": 0.3464566929133858,
                    "duration": 0.4285715000000039
                },
                {
                    "name": "G#3",
                    "midi": 56,
                    "time": 256.28575699999755,
                    "velocity": 0.25196850393700787,
                    "duration": 0.41071435416665736
                },
                {
                    "name": "F#4",
                    "midi": 66,
                    "time": 256.28575699999755,
                    "velocity": 0.25196850393700787,
                    "duration": 0.41071435416665736
                },
                {
                    "name": "G#4",
                    "midi": 68,
                    "time": 256.28575699999755,
                    "velocity": 0.31496062992125984,
                    "duration": 0.42857149999997546
                },
                {
                    "name": "G#3",
                    "midi": 56,
                    "time": 256.7143284999975,
                    "velocity": 0.2283464566929134,
                    "duration": 0.38571435000000065
                },
                {
                    "name": "D#4",
                    "midi": 63,
                    "time": 256.7143284999975,
                    "velocity": 0.2283464566929134,
                    "duration": 0.38571435000000065
                },
                {
                    "name": "G#4",
                    "midi": 68,
                    "time": 256.7143284999975,
                    "velocity": 0.2992125984251969,
                    "duration": 0.38571435000000065
                },
                {
                    "name": "E4",
                    "midi": 64,
                    "time": 257.1428999999975,
                    "velocity": 0.25984251968503935,
                    "duration": 1.2857144999999832
                },
                {
                    "name": "C#4",
                    "midi": 61,
                    "time": 257.1428999999975,
                    "velocity": 0.25984251968503935,
                    "duration": 1.2678573541666651
                },
                {
                    "name": "G#4",
                    "midi": 68,
                    "time": 257.1428999999975,
                    "velocity": 0.3464566929133858,
                    "duration": 1.2678573541666651
                },
                {
                    "name": "E3",
                    "midi": 52,
                    "time": 258.4286144999975,
                    "velocity": 0.25984251968503935,
                    "duration": 0.42857149999997546
                },
                {
                    "name": "C#4",
                    "midi": 61,
                    "time": 258.4286144999975,
                    "velocity": 0.25984251968503935,
                    "duration": 0.41071435416665736
                },
                {
                    "name": "E4",
                    "midi": 64,
                    "time": 258.4286144999975,
                    "velocity": 0.31496062992125984,
                    "duration": 0.42857149999997546
                },
                {
                    "name": "E3",
                    "midi": 52,
                    "time": 258.85718599999745,
                    "velocity": 0.25984251968503935,
                    "duration": 0.42857149999997546
                },
                {
                    "name": "D4",
                    "midi": 62,
                    "time": 258.85718599999745,
                    "velocity": 0.25984251968503935,
                    "duration": 0.38571435000000065
                },
                {
                    "name": "E4",
                    "midi": 64,
                    "time": 258.85718599999745,
                    "velocity": 0.31496062992125984,
                    "duration": 0.38571435000000065
                },
                {
                    "name": "E3",
                    "midi": 52,
                    "time": 259.28575749999743,
                    "velocity": 0.2204724409448819,
                    "duration": 0.38571435000000065
                },
                {
                    "name": "B3",
                    "midi": 59,
                    "time": 259.28575749999743,
                    "velocity": 0.2204724409448819,
                    "duration": 0.38571435000000065
                },
                {
                    "name": "E4",
                    "midi": 64,
                    "time": 259.28575749999743,
                    "velocity": 0.25984251968503935,
                    "duration": 0.38571435000000065
                },
                {
                    "name": "A3",
                    "midi": 57,
                    "time": 259.7143289999974,
                    "velocity": 0.25984251968503935,
                    "duration": 1.2857144999999832
                },
                {
                    "name": "C#4",
                    "midi": 61,
                    "time": 259.7143289999974,
                    "velocity": 0.25984251968503935,
                    "duration": 1.2857144999999832
                },
                {
                    "name": "E4",
                    "midi": 64,
                    "time": 259.7143289999974,
                    "velocity": 0.31496062992125984,
                    "duration": 1.2857144999999832
                },
                {
                    "name": "B4",
                    "midi": 71,
                    "time": 261.2143292499974,
                    "velocity": 0.4094488188976378,
                    "duration": 0.16071431249997659
                },
                {
                    "name": "A4",
                    "midi": 69,
                    "time": 261.64290074999735,
                    "velocity": 0.3779527559055118,
                    "duration": 0.16071431249997659
                },
                {
                    "name": "F#4",
                    "midi": 66,
                    "time": 262.0714722499973,
                    "velocity": 0.4094488188976378,
                    "duration": 0.16071431249997659
                },
                {
                    "name": "E4",
                    "midi": 64,
                    "time": 262.5000437499973,
                    "velocity": 0.4251968503937008,
                    "duration": 0.32142862500001
                },
                {
                    "name": "A4",
                    "midi": 69,
                    "time": 262.8214723749973,
                    "velocity": 0.3700787401574803,
                    "duration": 0.10714287500002229
                },
                {
                    "name": "E4",
                    "midi": 64,
                    "time": 262.92861524999734,
                    "velocity": 0.3464566929133858,
                    "duration": 0.10714287500002229
                },
                {
                    "name": "C#4",
                    "midi": 61,
                    "time": 263.03575812499736,
                    "velocity": 0.3464566929133858,
                    "duration": 0.10714287500002229
                },
                {
                    "name": "A3",
                    "midi": 57,
                    "time": 263.1429009999974,
                    "velocity": 0.4094488188976378,
                    "duration": 0.16071431249997659
                },
                {
                    "name": "A3",
                    "midi": 57,
                    "time": 263.35718674999737,
                    "velocity": 0.4094488188976378,
                    "duration": 0.16071431249997659
                },
                {
                    "name": "C#4",
                    "midi": 61,
                    "time": 263.78575824999734,
                    "velocity": 0.3779527559055118,
                    "duration": 0.16071431249997659
                },
                {
                    "name": "E4",
                    "midi": 64,
                    "time": 264.2143297499973,
                    "velocity": 0.4094488188976378,
                    "duration": 0.16071431249997659
                },
                {
                    "name": "A4",
                    "midi": 69,
                    "time": 264.6429012499973,
                    "velocity": 0.4251968503937008,
                    "duration": 0.16071431249997659
                },
                {
                    "name": "A#4",
                    "midi": 70,
                    "time": 265.07147274999727,
                    "velocity": 0.4566929133858268,
                    "duration": 0.32142862500001
                },
                {
                    "name": "C#5",
                    "midi": 73,
                    "time": 265.3929013749973,
                    "velocity": 0.3700787401574803,
                    "duration": 0.10714287500002229
                },
                {
                    "name": "B4",
                    "midi": 71,
                    "time": 265.5000442499973,
                    "velocity": 0.3779527559055118,
                    "duration": 0.10714287500002229
                },
                {
                    "name": "A#4",
                    "midi": 70,
                    "time": 265.6071871249973,
                    "velocity": 0.3779527559055118,
                    "duration": 0.10714287500002229
                },
                {
                    "name": "B4",
                    "midi": 71,
                    "time": 265.71432999999735,
                    "velocity": 0.4094488188976378,
                    "duration": 0.16071431249997659
                },
                {
                    "name": "B4",
                    "midi": 71,
                    "time": 265.92861574999733,
                    "velocity": 0.4015748031496063,
                    "duration": 0.16071431249997659
                },
                {
                    "name": "D4",
                    "midi": 62,
                    "time": 266.3571872499973,
                    "velocity": 0.30708661417322836,
                    "duration": 0.16071431249997659
                },
                {
                    "name": "F#4",
                    "midi": 66,
                    "time": 266.3571872499973,
                    "velocity": 0.36220472440944884,
                    "duration": 0.16071431249997659
                },
                {
                    "name": "E4",
                    "midi": 64,
                    "time": 266.7857587499973,
                    "velocity": 0.2755905511811024,
                    "duration": 0.16071431249997659
                },
                {
                    "name": "G#4",
                    "midi": 68,
                    "time": 266.7857587499973,
                    "velocity": 0.33070866141732286,
                    "duration": 0.16071431249997659
                },
                {
                    "name": "F#4",
                    "midi": 66,
                    "time": 267.21433024999726,
                    "velocity": 0.30708661417322836,
                    "duration": 0.16071431249997659
                },
                {
                    "name": "A4",
                    "midi": 69,
                    "time": 267.21433024999726,
                    "velocity": 0.36220472440944884,
                    "duration": 0.16071431249997659
                },
                {
                    "name": "G#4",
                    "midi": 68,
                    "time": 267.64290174999724,
                    "velocity": 0.30708661417322836,
                    "duration": 0.32142862500001
                },
                {
                    "name": "B4",
                    "midi": 71,
                    "time": 267.64290174999724,
                    "velocity": 0.36220472440944884,
                    "duration": 0.32142862500001
                },
                {
                    "name": "A4",
                    "midi": 69,
                    "time": 267.96433037499725,
                    "velocity": 0.2755905511811024,
                    "duration": 0.10714287500002229
                },
                {
                    "name": "C#5",
                    "midi": 73,
                    "time": 267.96433037499725,
                    "velocity": 0.3228346456692913,
                    "duration": 0.10714287500002229
                },
                {
                    "name": "G#4",
                    "midi": 68,
                    "time": 268.07147324999727,
                    "velocity": 0.2755905511811024,
                    "duration": 0.10714287500002229
                },
                {
                    "name": "B4",
                    "midi": 71,
                    "time": 268.07147324999727,
                    "velocity": 0.3228346456692913,
                    "duration": 0.10714287500002229
                },
                {
                    "name": "F#4",
                    "midi": 66,
                    "time": 268.1786161249973,
                    "velocity": 0.2755905511811024,
                    "duration": 0.10714287500002229
                },
                {
                    "name": "A4",
                    "midi": 69,
                    "time": 268.1786161249973,
                    "velocity": 0.3228346456692913,
                    "duration": 0.10714287500002229
                },
                {
                    "name": "G#4",
                    "midi": 68,
                    "time": 268.2857589999973,
                    "velocity": 0.2992125984251969,
                    "duration": 0.16071431249997659
                },
                {
                    "name": "B4",
                    "midi": 71,
                    "time": 268.2857589999973,
                    "velocity": 0.3543307086614173,
                    "duration": 0.16071431249997659
                },
                {
                    "name": "G#4",
                    "midi": 68,
                    "time": 268.5000447499973,
                    "velocity": 0.30708661417322836,
                    "duration": 0.16071431249997659
                },
                {
                    "name": "B4",
                    "midi": 71,
                    "time": 268.5000447499973,
                    "velocity": 0.36220472440944884,
                    "duration": 0.16071431249997659
                },
                {
                    "name": "E4",
                    "midi": 64,
                    "time": 268.9286162499973,
                    "velocity": 0.4094488188976378,
                    "duration": 0.16071431249997659
                },
                {
                    "name": "D4",
                    "midi": 62,
                    "time": 269.35718774999725,
                    "velocity": 0.4251968503937008,
                    "duration": 0.16071431249997659
                },
                {
                    "name": "B3",
                    "midi": 59,
                    "time": 269.7857592499972,
                    "velocity": 0.4645669291338583,
                    "duration": 0.16071431249997659
                },
                {
                    "name": "A3",
                    "midi": 57,
                    "time": 270.0000449999972,
                    "velocity": 0.4881889763779528,
                    "duration": 0.21428574999998773
                },
                {
                    "name": "A4",
                    "midi": 69,
                    "time": 270.2143307499972,
                    "velocity": 0.5590551181102362,
                    "duration": 0.32142862500001
                },
                {
                    "name": "G#4",
                    "midi": 68,
                    "time": 270.5357593749972,
                    "velocity": 0.36220472440944884,
                    "duration": 0.05357143750001114
                },
                {
                    "name": "F#4",
                    "midi": 66,
                    "time": 270.5893308124972,
                    "velocity": 0.3543307086614173,
                    "duration": 0.05357143750001114
                },
                {
                    "name": "E4",
                    "midi": 64,
                    "time": 270.64290224999723,
                    "velocity": 0.3464566929133858,
                    "duration": 0.05357143750001114
                },
                {
                    "name": "D4",
                    "midi": 62,
                    "time": 270.69647368749725,
                    "velocity": 0.33858267716535434,
                    "duration": 0.05357143750001114
                },
                {
                    "name": "C#4",
                    "midi": 61,
                    "time": 270.75004512499726,
                    "velocity": 0.33070866141732286,
                    "duration": 0.05357143750001114
                },
                {
                    "name": "B3",
                    "midi": 59,
                    "time": 270.80361656249727,
                    "velocity": 0.31496062992125984,
                    "duration": 0.05357143750001114
                },
                {
                    "name": "A3",
                    "midi": 57,
                    "time": 270.8571879999973,
                    "velocity": 0.3700787401574803,
                    "duration": 0.12142859166664266
                },
                {
                    "name": "A3",
                    "midi": 57,
                    "time": 271.07147374999727,
                    "velocity": 0.4094488188976378,
                    "duration": 0.16071431249997659
                },
                {
                    "name": "B2",
                    "midi": 47,
                    "time": 271.50004524999724,
                    "velocity": 0.41732283464566927,
                    "duration": 0.16071431249997659
                },
                {
                    "name": "B3",
                    "midi": 59,
                    "time": 271.50004524999724,
                    "velocity": 0.49606299212598426,
                    "duration": 0.16071431249997659
                },
                {
                    "name": "A2",
                    "midi": 45,
                    "time": 271.9286167499972,
                    "velocity": 0.47244094488188976,
                    "duration": 0.16071431249997659
                },
                {
                    "name": "A3",
                    "midi": 57,
                    "time": 271.9286167499972,
                    "velocity": 0.5590551181102362,
                    "duration": 0.16071431249997659
                },
                {
                    "name": "F#2",
                    "midi": 42,
                    "time": 272.3571882499972,
                    "velocity": 0.4881889763779528,
                    "duration": 0.16071431249997659
                },
                {
                    "name": "F#3",
                    "midi": 54,
                    "time": 272.3571882499972,
                    "velocity": 0.5196850393700787,
                    "duration": 0.16071431249997659
                },
                {
                    "name": "E2",
                    "midi": 40,
                    "time": 272.78575974999717,
                    "velocity": 0.47244094488188976,
                    "duration": 0.42857149999997546
                },
                {
                    "name": "E3",
                    "midi": 52,
                    "time": 272.78575974999717,
                    "velocity": 0.5590551181102362,
                    "duration": 0.42857149999997546
                },
                {
                    "name": "C#2",
                    "midi": 37,
                    "time": 273.21433124999714,
                    "velocity": 0.4015748031496063,
                    "duration": 0.16071431249997659
                },
                {
                    "name": "C#3",
                    "midi": 49,
                    "time": 273.21433124999714,
                    "velocity": 0.47244094488188976,
                    "duration": 0.16071431249997659
                },
                {
                    "name": "E2",
                    "midi": 40,
                    "time": 273.42861699999713,
                    "velocity": 0.4409448818897638,
                    "duration": 0.16071431249997659
                },
                {
                    "name": "E3",
                    "midi": 52,
                    "time": 273.42861699999713,
                    "velocity": 0.5196850393700787,
                    "duration": 0.16071431249997659
                },
                {
                    "name": "A2",
                    "midi": 45,
                    "time": 273.6429027499971,
                    "velocity": 0.4015748031496063,
                    "duration": 0.16071431249997659
                },
                {
                    "name": "A3",
                    "midi": 57,
                    "time": 273.6429027499971,
                    "velocity": 0.47244094488188976,
                    "duration": 0.16071431249997659
                },
                {
                    "name": "C#4",
                    "midi": 61,
                    "time": 274.0714742499971,
                    "velocity": 0.47244094488188976,
                    "duration": 0.16071431249997659
                },
                {
                    "name": "C#3",
                    "midi": 49,
                    "time": 274.0714742499971,
                    "velocity": 0.4015748031496063,
                    "duration": 0.16071431249997659
                },
                {
                    "name": "B2",
                    "midi": 47,
                    "time": 274.50004574999707,
                    "velocity": 0.4409448818897638,
                    "duration": 0.16071431249997659
                },
                {
                    "name": "B3",
                    "midi": 59,
                    "time": 274.50004574999707,
                    "velocity": 0.5196850393700787,
                    "duration": 0.16071431249997659
                },
                {
                    "name": "A2",
                    "midi": 45,
                    "time": 274.92861724999705,
                    "velocity": 0.44881889763779526,
                    "duration": 0.16071431249997659
                },
                {
                    "name": "A3",
                    "midi": 57,
                    "time": 274.92861724999705,
                    "velocity": 0.5354330708661418,
                    "duration": 0.16071431249997659
                },
                {
                    "name": "G#2",
                    "midi": 44,
                    "time": 275.357188749997,
                    "velocity": 0.48031496062992124,
                    "duration": 0.42857149999997546
                },
                {
                    "name": "G#3",
                    "midi": 56,
                    "time": 275.357188749997,
                    "velocity": 0.5669291338582677,
                    "duration": 0.42857149999997546
                },
                {
                    "name": "E2",
                    "midi": 40,
                    "time": 275.785760249997,
                    "velocity": 0.3858267716535433,
                    "duration": 0.21428574999998773
                },
                {
                    "name": "E3",
                    "midi": 52,
                    "time": 275.785760249997,
                    "velocity": 0.4566929133858268,
                    "duration": 0.21428574999998773
                },
                {
                    "name": "G#2",
                    "midi": 44,
                    "time": 276.000045999997,
                    "velocity": 0.4015748031496063,
                    "duration": 0.16071431249997659
                },
                {
                    "name": "G#3",
                    "midi": 56,
                    "time": 276.000045999997,
                    "velocity": 0.48031496062992124,
                    "duration": 0.16071431249997659
                },
                {
                    "name": "C#4",
                    "midi": 61,
                    "time": 276.214331749997,
                    "velocity": 0.44881889763779526,
                    "duration": 0.16071431249997659
                },
                {
                    "name": "C#3",
                    "midi": 49,
                    "time": 276.214331749997,
                    "velocity": 0.3779527559055118,
                    "duration": 0.16071431249997659
                },
                {
                    "name": "E4",
                    "midi": 64,
                    "time": 276.64290324999695,
                    "velocity": 0.48031496062992124,
                    "duration": 0.16071431249997659
                },
                {
                    "name": "E3",
                    "midi": 52,
                    "time": 276.64290324999695,
                    "velocity": 0.4015748031496063,
                    "duration": 0.16071431249997659
                },
                {
                    "name": "A4",
                    "midi": 69,
                    "time": 277.0714747499969,
                    "velocity": 0.4409448818897638,
                    "duration": 0.16071431249997659
                },
                {
                    "name": "A3",
                    "midi": 57,
                    "time": 277.0714747499969,
                    "velocity": 0.3700787401574803,
                    "duration": 0.16071431249997659
                },
                {
                    "name": "G#2",
                    "midi": 44,
                    "time": 277.5000462499969,
                    "velocity": 0.4015748031496063,
                    "duration": 0.16071431249997659
                },
                {
                    "name": "G#3",
                    "midi": 56,
                    "time": 277.5000462499969,
                    "velocity": 0.48031496062992124,
                    "duration": 0.16071431249997659
                },
                {
                    "name": "C#3",
                    "midi": 49,
                    "time": 277.9286177499969,
                    "velocity": 0.4645669291338583,
                    "duration": 0.42857149999997546
                },
                {
                    "name": "C#4",
                    "midi": 61,
                    "time": 277.9286177499969,
                    "velocity": 0.5511811023622047,
                    "duration": 0.42857149999997546
                },
                {
                    "name": "G#2",
                    "midi": 44,
                    "time": 278.35718924999685,
                    "velocity": 0.3937007874015748,
                    "duration": 0.21428574999998773
                },
                {
                    "name": "G#3",
                    "midi": 56,
                    "time": 278.35718924999685,
                    "velocity": 0.4645669291338583,
                    "duration": 0.21428574999998773
                },
                {
                    "name": "E2",
                    "midi": 40,
                    "time": 278.57147499999684,
                    "velocity": 0.41732283464566927,
                    "duration": 0.16071431249997659
                },
                {
                    "name": "E3",
                    "midi": 52,
                    "time": 278.57147499999684,
                    "velocity": 0.49606299212598426,
                    "duration": 0.16071431249997659
                },
                {
                    "name": "C#2",
                    "midi": 37,
                    "time": 278.7857607499968,
                    "velocity": 0.4015748031496063,
                    "duration": 0.16071431249997659
                },
                {
                    "name": "C#3",
                    "midi": 49,
                    "time": 278.7857607499968,
                    "velocity": 0.47244094488188976,
                    "duration": 0.16071431249997659
                },
                {
                    "name": "C#3",
                    "midi": 49,
                    "time": 279.2143322499968,
                    "velocity": 0.30708661417322836,
                    "duration": 0.16071431249997659
                },
                {
                    "name": "F#3",
                    "midi": 54,
                    "time": 279.6429037499968,
                    "velocity": 0.3464566929133858,
                    "duration": 0.16071431249997659
                },
                {
                    "name": "E3",
                    "midi": 52,
                    "time": 280.07147524999675,
                    "velocity": 0.3228346456692913,
                    "duration": 0.16071431249997659
                },
                {
                    "name": "F#3",
                    "midi": 54,
                    "time": 280.5000467499967,
                    "velocity": 0.4015748031496063,
                    "duration": 0.42857149999997546
                },
                {
                    "name": "C#3",
                    "midi": 49,
                    "time": 280.9286182499967,
                    "velocity": 0.30708661417322836,
                    "duration": 0.16071431249997659
                },
                {
                    "name": "A2",
                    "midi": 45,
                    "time": 281.1429039999967,
                    "velocity": 0.3464566929133858,
                    "duration": 0.21428574999998773
                },
                {
                    "name": "F#2",
                    "midi": 42,
                    "time": 281.3571897499967,
                    "velocity": 0.30708661417322836,
                    "duration": 0.21428574999998773
                },
                {
                    "name": "E2",
                    "midi": 40,
                    "time": 281.78576124999665,
                    "velocity": 0.3937007874015748,
                    "duration": 0.21428574999998773
                },
                {
                    "name": "E3",
                    "midi": 52,
                    "time": 281.78576124999665,
                    "velocity": 0.4645669291338583,
                    "duration": 0.21428574999998773
                },
                {
                    "name": "D2",
                    "midi": 38,
                    "time": 282.21433274999663,
                    "velocity": 0.4094488188976378,
                    "duration": 0.21428574999998773
                },
                {
                    "name": "D3",
                    "midi": 50,
                    "time": 282.21433274999663,
                    "velocity": 0.4881889763779528,
                    "duration": 0.21428574999998773
                },
                {
                    "name": "C#2",
                    "midi": 37,
                    "time": 282.6429042499966,
                    "velocity": 0.4409448818897638,
                    "duration": 0.21428574999998773
                },
                {
                    "name": "C#3",
                    "midi": 49,
                    "time": 282.6429042499966,
                    "velocity": 0.5275590551181102,
                    "duration": 0.21428574999998773
                },
                {
                    "name": "B1",
                    "midi": 35,
                    "time": 283.28576149999657,
                    "velocity": 0.4409448818897638,
                    "duration": 0.42857149999997546
                },
                {
                    "name": "D2",
                    "midi": 38,
                    "time": 283.28576149999657,
                    "velocity": 0.4409448818897638,
                    "duration": 0.42857149999997546
                },
                {
                    "name": "G2",
                    "midi": 43,
                    "time": 283.28576149999657,
                    "velocity": 0.4409448818897638,
                    "duration": 0.42857149999997546
                },
                {
                    "name": "B2",
                    "midi": 47,
                    "time": 283.28576149999657,
                    "velocity": 0.5275590551181102,
                    "duration": 0.42857149999997546
                },
                {
                    "name": "G2",
                    "midi": 43,
                    "time": 285.21433324999657,
                    "velocity": 0.3543307086614173,
                    "duration": 0.16071431249997659
                },
                {
                    "name": "G3",
                    "midi": 55,
                    "time": 285.21433324999657,
                    "velocity": 0.41732283464566927,
                    "duration": 0.16071431249997659
                },
                {
                    "name": "C3",
                    "midi": 48,
                    "time": 285.42861899999656,
                    "velocity": 0.3543307086614173,
                    "duration": 1.2857144999999832
                },
                {
                    "name": "G3",
                    "midi": 55,
                    "time": 285.42861899999656,
                    "velocity": 0.41732283464566927,
                    "duration": 1.2857144999999832
                },
                {
                    "name": "G2",
                    "midi": 43,
                    "time": 286.71433349999654,
                    "velocity": 0.25984251968503935,
                    "duration": 0.16071431249997659
                },
                {
                    "name": "G3",
                    "midi": 55,
                    "time": 286.71433349999654,
                    "velocity": 0.30708661417322836,
                    "duration": 0.16071431249997659
                },
                {
                    "name": "B2",
                    "midi": 47,
                    "time": 286.92861924999653,
                    "velocity": 0.2204724409448819,
                    "duration": 0.16071431249997659
                },
                {
                    "name": "G3",
                    "midi": 55,
                    "time": 286.92861924999653,
                    "velocity": 0.25984251968503935,
                    "duration": 0.16071431249997659
                },
                {
                    "name": "C3",
                    "midi": 48,
                    "time": 287.1429049999965,
                    "velocity": 0.25984251968503935,
                    "duration": 0.16071431249997659
                },
                {
                    "name": "G3",
                    "midi": 55,
                    "time": 287.1429049999965,
                    "velocity": 0.30708661417322836,
                    "duration": 0.16071431249997659
                },
                {
                    "name": "C3",
                    "midi": 48,
                    "time": 287.3571907499965,
                    "velocity": 0.2125984251968504,
                    "duration": 0.16071431249997659
                },
                {
                    "name": "G3",
                    "midi": 55,
                    "time": 287.3571907499965,
                    "velocity": 0.25196850393700787,
                    "duration": 0.16071431249997659
                },
                {
                    "name": "D3",
                    "midi": 50,
                    "time": 287.5714764999965,
                    "velocity": 0.25984251968503935,
                    "duration": 0.16071431249997659
                },
                {
                    "name": "G3",
                    "midi": 55,
                    "time": 287.5714764999965,
                    "velocity": 0.30708661417322836,
                    "duration": 0.16071431249997659
                },
                {
                    "name": "G2",
                    "midi": 43,
                    "time": 287.7857622499965,
                    "velocity": 0.2204724409448819,
                    "duration": 0.16071431249997659
                },
                {
                    "name": "G3",
                    "midi": 55,
                    "time": 287.7857622499965,
                    "velocity": 0.25984251968503935,
                    "duration": 0.16071431249997659
                },
                {
                    "name": "C3",
                    "midi": 48,
                    "time": 288.00004799999647,
                    "velocity": 0.25984251968503935,
                    "duration": 0.32142862500001
                },
                {
                    "name": "G3",
                    "midi": 55,
                    "time": 288.00004799999647,
                    "velocity": 0.30708661417322836,
                    "duration": 0.32142862500001
                },
                {
                    "name": "G2",
                    "midi": 43,
                    "time": 288.4286194999965,
                    "velocity": 0.25984251968503935,
                    "duration": 0.16071431249997659
                },
                {
                    "name": "G3",
                    "midi": 55,
                    "time": 288.4286194999965,
                    "velocity": 0.30708661417322836,
                    "duration": 0.16071431249997659
                },
                {
                    "name": "B2",
                    "midi": 47,
                    "time": 288.6429052499965,
                    "velocity": 0.2204724409448819,
                    "duration": 0.16071431249997659
                },
                {
                    "name": "G3",
                    "midi": 55,
                    "time": 288.6429052499965,
                    "velocity": 0.25984251968503935,
                    "duration": 0.16071431249997659
                },
                {
                    "name": "C3",
                    "midi": 48,
                    "time": 288.8571909999965,
                    "velocity": 0.25984251968503935,
                    "duration": 0.16071431249997659
                },
                {
                    "name": "G3",
                    "midi": 55,
                    "time": 288.8571909999965,
                    "velocity": 0.30708661417322836,
                    "duration": 0.16071431249997659
                },
                {
                    "name": "C3",
                    "midi": 48,
                    "time": 289.07147674999646,
                    "velocity": 0.2125984251968504,
                    "duration": 0.16071431249997659
                },
                {
                    "name": "G3",
                    "midi": 55,
                    "time": 289.07147674999646,
                    "velocity": 0.25196850393700787,
                    "duration": 0.16071431249997659
                },
                {
                    "name": "D3",
                    "midi": 50,
                    "time": 289.28576249999645,
                    "velocity": 0.25984251968503935,
                    "duration": 0.16071431249997659
                },
                {
                    "name": "G3",
                    "midi": 55,
                    "time": 289.28576249999645,
                    "velocity": 0.30708661417322836,
                    "duration": 0.16071431249997659
                },
                {
                    "name": "G2",
                    "midi": 43,
                    "time": 289.50004824999644,
                    "velocity": 0.2204724409448819,
                    "duration": 0.16071431249997659
                },
                {
                    "name": "G3",
                    "midi": 55,
                    "time": 289.50004824999644,
                    "velocity": 0.25984251968503935,
                    "duration": 0.16071431249997659
                },
                {
                    "name": "C3",
                    "midi": 48,
                    "time": 289.7143339999964,
                    "velocity": 0.25984251968503935,
                    "duration": 0.32142862500001
                },
                {
                    "name": "G3",
                    "midi": 55,
                    "time": 289.7143339999964,
                    "velocity": 0.30708661417322836,
                    "duration": 0.32142862500001
                },
                {
                    "name": "D3",
                    "midi": 50,
                    "time": 290.14290549999646,
                    "velocity": 0.25984251968503935,
                    "duration": 0.16071431249997659
                },
                {
                    "name": "G3",
                    "midi": 55,
                    "time": 290.14290549999646,
                    "velocity": 0.30708661417322836,
                    "duration": 0.16071431249997659
                },
                {
                    "name": "G2",
                    "midi": 43,
                    "time": 290.35719124999645,
                    "velocity": 0.2204724409448819,
                    "duration": 0.16071431249997659
                },
                {
                    "name": "G3",
                    "midi": 55,
                    "time": 290.35719124999645,
                    "velocity": 0.25984251968503935,
                    "duration": 0.16071431249997659
                },
                {
                    "name": "C3",
                    "midi": 48,
                    "time": 290.57147699999643,
                    "velocity": 0.25984251968503935,
                    "duration": 0.16071431249997659
                },
                {
                    "name": "G3",
                    "midi": 55,
                    "time": 290.57147699999643,
                    "velocity": 0.30708661417322836,
                    "duration": 0.16071431249997659
                },
                {
                    "name": "C3",
                    "midi": 48,
                    "time": 290.7857627499964,
                    "velocity": 0.2125984251968504,
                    "duration": 0.16071431249997659
                },
                {
                    "name": "G3",
                    "midi": 55,
                    "time": 290.7857627499964,
                    "velocity": 0.25196850393700787,
                    "duration": 0.16071431249997659
                },
                {
                    "name": "D3",
                    "midi": 50,
                    "time": 291.0000484999964,
                    "velocity": 0.25984251968503935,
                    "duration": 0.16071431249997659
                },
                {
                    "name": "G3",
                    "midi": 55,
                    "time": 291.0000484999964,
                    "velocity": 0.30708661417322836,
                    "duration": 0.16071431249997659
                },
                {
                    "name": "G2",
                    "midi": 43,
                    "time": 291.2143342499964,
                    "velocity": 0.2204724409448819,
                    "duration": 0.16071431249997659
                },
                {
                    "name": "G3",
                    "midi": 55,
                    "time": 291.2143342499964,
                    "velocity": 0.25984251968503935,
                    "duration": 0.16071431249997659
                },
                {
                    "name": "C3",
                    "midi": 48,
                    "time": 291.4286199999964,
                    "velocity": 0.25984251968503935,
                    "duration": 0.32142862500001
                },
                {
                    "name": "G3",
                    "midi": 55,
                    "time": 291.4286199999964,
                    "velocity": 0.30708661417322836,
                    "duration": 0.32142862500001
                },
                {
                    "name": "B1",
                    "midi": 35,
                    "time": 292.0714772499964,
                    "velocity": 0.41732283464566927,
                    "duration": 0.21428574999998773
                },
                {
                    "name": "B2",
                    "midi": 47,
                    "time": 292.0714772499964,
                    "velocity": 0.49606299212598426,
                    "duration": 0.21428574999998773
                },
                {
                    "name": "E2",
                    "midi": 40,
                    "time": 292.5000487499964,
                    "velocity": 0.4409448818897638,
                    "duration": 0.21428574999998773
                },
                {
                    "name": "E3",
                    "midi": 52,
                    "time": 292.5000487499964,
                    "velocity": 0.5196850393700787,
                    "duration": 0.21428574999998773
                },
                {
                    "name": "D2",
                    "midi": 38,
                    "time": 292.92862024999636,
                    "velocity": 0.3700787401574803,
                    "duration": 0.21428574999998773
                },
                {
                    "name": "D3",
                    "midi": 50,
                    "time": 292.92862024999636,
                    "velocity": 0.5275590551181102,
                    "duration": 0.21428574999998773
                },
                {
                    "name": "C#2",
                    "midi": 37,
                    "time": 293.35719174999633,
                    "velocity": 0.4409448818897638,
                    "duration": 0.21428574999998773
                },
                {
                    "name": "C#3",
                    "midi": 49,
                    "time": 293.35719174999633,
                    "velocity": 0.5196850393700787,
                    "duration": 0.21428574999998773
                },
                {
                    "name": "F#2",
                    "midi": 42,
                    "time": 293.7857632499963,
                    "velocity": 0.4409448818897638,
                    "duration": 0.21428574999998773
                },
                {
                    "name": "F#3",
                    "midi": 54,
                    "time": 293.7857632499963,
                    "velocity": 0.5275590551181102,
                    "duration": 0.21428574999998773
                },
                {
                    "name": "E2",
                    "midi": 40,
                    "time": 294.0000489999963,
                    "velocity": 0.5039370078740157,
                    "duration": 0.8571430000000078
                },
                {
                    "name": "E3",
                    "midi": 52,
                    "time": 294.0000489999963,
                    "velocity": 0.5984251968503937,
                    "duration": 0.8571430000000078
                },
                {
                    "name": "E2",
                    "midi": 40,
                    "time": 294.8571919999963,
                    "velocity": 0.4094488188976378,
                    "duration": 0.8571430000000078
                },
                {
                    "name": "E3",
                    "midi": 52,
                    "time": 294.8571919999963,
                    "velocity": 0.4881889763779528,
                    "duration": 0.8571430000000078
                },
                {
                    "name": "A2",
                    "midi": 45,
                    "time": 295.7143349999963,
                    "velocity": 0.3228346456692913,
                    "duration": 1.2857144999999832
                },
                {
                    "name": "E3",
                    "midi": 52,
                    "time": 295.7143349999963,
                    "velocity": 0.3858267716535433,
                    "duration": 1.2857144999999832
                },
                {
                    "name": "E4",
                    "midi": 64,
                    "time": 297.0000494999963,
                    "velocity": 0.3543307086614173,
                    "duration": 0.21428574999998773
                },
                {
                    "name": "D4",
                    "midi": 62,
                    "time": 297.2143352499963,
                    "velocity": 0.31496062992125984,
                    "duration": 0.16071431249997659
                },
                {
                    "name": "D4",
                    "midi": 62,
                    "time": 297.42862099999627,
                    "velocity": 0.3543307086614173,
                    "duration": 0.21428574999998773
                },
                {
                    "name": "C#4",
                    "midi": 61,
                    "time": 297.64290674999626,
                    "velocity": 0.30708661417322836,
                    "duration": 0.21428574999998773
                },
                {
                    "name": "B3",
                    "midi": 59,
                    "time": 297.85719249999624,
                    "velocity": 0.3543307086614173,
                    "duration": 0.21428574999998773
                },
                {
                    "name": "A3",
                    "midi": 57,
                    "time": 298.07147824999623,
                    "velocity": 0.3228346456692913,
                    "duration": 0.08035715624998829
                },
                {
                    "name": "A3",
                    "midi": 57,
                    "time": 298.1786211249962,
                    "velocity": 0.2992125984251969,
                    "duration": 0.10714287500002229
                },
                {
                    "name": "E4",
                    "midi": 64,
                    "time": 298.2857639999962,
                    "velocity": 0.3700787401574803,
                    "duration": 1.2857144999999832
                },
                {
                    "name": "E4",
                    "midi": 64,
                    "time": 299.5714784999962,
                    "velocity": 0.3543307086614173,
                    "duration": 0.21428574999998773
                },
                {
                    "name": "D4",
                    "midi": 62,
                    "time": 299.7857642499962,
                    "velocity": 0.31496062992125984,
                    "duration": 0.16071431249997659
                },
                {
                    "name": "D4",
                    "midi": 62,
                    "time": 300.0000499999962,
                    "velocity": 0.3543307086614173,
                    "duration": 0.14285716666665849
                },
                {
                    "name": "C#4",
                    "midi": 61,
                    "time": 300.14290716666284,
                    "velocity": 0.30708661417322836,
                    "duration": 0.14285716666665849
                },
                {
                    "name": "B3",
                    "midi": 59,
                    "time": 300.2857643333295,
                    "velocity": 0.30708661417322836,
                    "duration": 0.14285716666665849
                },
                {
                    "name": "A#3",
                    "midi": 58,
                    "time": 300.42862149999615,
                    "velocity": 0.3543307086614173,
                    "duration": 0.14285716666665849
                },
                {
                    "name": "C#4",
                    "midi": 61,
                    "time": 300.5714786666628,
                    "velocity": 0.30708661417322836,
                    "duration": 0.14285716666665849
                },
                {
                    "name": "D4",
                    "midi": 62,
                    "time": 300.71433583332947,
                    "velocity": 0.30708661417322836,
                    "duration": 0.14285716666665849
                },
                {
                    "name": "C#4",
                    "midi": 61,
                    "time": 300.7857644166628,
                    "velocity": 0.2992125984251969,
                    "duration": 0.07142858333332924
                },
                {
                    "name": "E4",
                    "midi": 64,
                    "time": 300.85719299999613,
                    "velocity": 0.3543307086614173,
                    "duration": 1.2857144999999832
                },
                {
                    "name": "A#3",
                    "midi": 58,
                    "time": 302.1429074999961,
                    "velocity": 0.4094488188976378,
                    "duration": 0.21428574999998773
                },
                {
                    "name": "F#4",
                    "midi": 66,
                    "time": 302.3571932499961,
                    "velocity": 0.3779527559055118,
                    "duration": 0.21428574999998773
                },
                {
                    "name": "D4",
                    "midi": 62,
                    "time": 302.5714789999961,
                    "velocity": 0.4094488188976378,
                    "duration": 0.10714287500002229
                },
                {
                    "name": "E4",
                    "midi": 64,
                    "time": 302.6786218749961,
                    "velocity": 0.3858267716535433,
                    "duration": 0.10714287500002229
                },
                {
                    "name": "D4",
                    "midi": 62,
                    "time": 302.78576474999613,
                    "velocity": 0.3937007874015748,
                    "duration": 0.10714287500002229
                },
                {
                    "name": "C#4",
                    "midi": 61,
                    "time": 302.89290762499616,
                    "velocity": 0.4015748031496063,
                    "duration": 0.10714287500002229
                },
                {
                    "name": "B3",
                    "midi": 59,
                    "time": 303.0000504999962,
                    "velocity": 0.41732283464566927,
                    "duration": 0.10714287500002229
                },
                {
                    "name": "C#4",
                    "midi": 61,
                    "time": 303.1071933749962,
                    "velocity": 0.4330708661417323,
                    "duration": 0.10714287500002229
                },
                {
                    "name": "D4",
                    "midi": 62,
                    "time": 303.2143362499962,
                    "velocity": 0.44881889763779526,
                    "duration": 0.10714287500002229
                },
                {
                    "name": "E4",
                    "midi": 64,
                    "time": 303.32147912499624,
                    "velocity": 0.47244094488188976,
                    "duration": 0.10714287500002229
                },
                {
                    "name": "F#4",
                    "midi": 66,
                    "time": 303.42862199999627,
                    "velocity": 0.5196850393700787,
                    "duration": 1.2857144999999264
                },
                {
                    "name": "E4",
                    "midi": 64,
                    "time": 303.85719349999624,
                    "velocity": 0.3543307086614173,
                    "duration": 0.42857149999997546
                },
                {
                    "name": "D4",
                    "midi": 62,
                    "time": 304.2857649999962,
                    "velocity": 0.2992125984251969,
                    "duration": 0.42857149999997546
                },
                {
                    "name": "F#4",
                    "midi": 66,
                    "time": 304.7143364999962,
                    "velocity": 0.2992125984251969,
                    "duration": 0.41071435416665736
                },
                {
                    "name": "E4",
                    "midi": 64,
                    "time": 304.7143364999962,
                    "velocity": 0.25196850393700787,
                    "duration": 0.42857149999997546
                },
                {
                    "name": "C#4",
                    "midi": 61,
                    "time": 304.7143364999962,
                    "velocity": 0.25196850393700787,
                    "duration": 0.42857149999997546
                },
                {
                    "name": "D4",
                    "midi": 62,
                    "time": 305.14290799999617,
                    "velocity": 0.2992125984251969,
                    "duration": 0.41071435416665736
                },
                {
                    "name": "F#4",
                    "midi": 66,
                    "time": 305.14290799999617,
                    "velocity": 0.3543307086614173,
                    "duration": 0.8571429999999509
                },
                {
                    "name": "B3",
                    "midi": 59,
                    "time": 305.14290799999617,
                    "velocity": 0.2992125984251969,
                    "duration": 0.42857149999997546
                },
                {
                    "name": "D4",
                    "midi": 62,
                    "time": 305.57147949999614,
                    "velocity": 0.29133858267716534,
                    "duration": 0.42857149999997546
                },
                {
                    "name": "D#4",
                    "midi": 63,
                    "time": 306.0000509999961,
                    "velocity": 0.33070866141732286,
                    "duration": 0.8571430000000078
                },
                {
                    "name": "E4",
                    "midi": 64,
                    "time": 306.8571939999961,
                    "velocity": 0.30708661417322836,
                    "duration": 0.42857149999997546
                },
                {
                    "name": "E3",
                    "midi": 52,
                    "time": 307.2857654999961,
                    "velocity": 0.4015748031496063,
                    "duration": 0.2500000416666808
                },
                {
                    "name": "D#3",
                    "midi": 51,
                    "time": 307.5000512499961,
                    "velocity": 0.36220472440944884,
                    "duration": 0.16071431250003343
                },
                {
                    "name": "E3",
                    "midi": 52,
                    "time": 307.71433699999614,
                    "velocity": 0.4015748031496063,
                    "duration": 0.21428574999998773
                },
                {
                    "name": "B2",
                    "midi": 47,
                    "time": 307.9286227499961,
                    "velocity": 0.3464566929133858,
                    "duration": 0.21428574999998773
                },
                {
                    "name": "A2",
                    "midi": 45,
                    "time": 308.1429084999961,
                    "velocity": 0.3700787401574803,
                    "duration": 0.05357143750001114
                },
                {
                    "name": "B2",
                    "midi": 47,
                    "time": 308.1964799374961,
                    "velocity": 0.3700787401574803,
                    "duration": 0.05357143750001114
                },
                {
                    "name": "A2",
                    "midi": 45,
                    "time": 308.25005137499613,
                    "velocity": 0.4015748031496063,
                    "duration": 0.10714287500002229
                },
                {
                    "name": "G#2",
                    "midi": 44,
                    "time": 308.35719424999616,
                    "velocity": 0.3700787401574803,
                    "duration": 0.08035715624998829
                },
                {
                    "name": "G#2",
                    "midi": 44,
                    "time": 308.4643371249961,
                    "velocity": 0.33858267716535434,
                    "duration": 0.10714287500002229
                },
                {
                    "name": "E3",
                    "midi": 52,
                    "time": 308.57147999999614,
                    "velocity": 0.4251968503937008,
                    "duration": 0.21428574999998773
                },
                {
                    "name": "E3",
                    "midi": 52,
                    "time": 309.0000514999961,
                    "velocity": 0.4409448818897638,
                    "duration": 0.8392858541666897
                },
                {
                    "name": "E3",
                    "midi": 52,
                    "time": 309.8571944999961,
                    "velocity": 0.4015748031496063,
                    "duration": 0.2500000416666808
                },
                {
                    "name": "D#3",
                    "midi": 51,
                    "time": 310.0714802499961,
                    "velocity": 0.36220472440944884,
                    "duration": 0.16071431250003343
                },
                {
                    "name": "E3",
                    "midi": 52,
                    "time": 310.28576599999616,
                    "velocity": 0.4015748031496063,
                    "duration": 0.21428574999998773
                },
                {
                    "name": "C3",
                    "midi": 48,
                    "time": 310.50005174999615,
                    "velocity": 0.3464566929133858,
                    "duration": 0.21428574999998773
                },
                {
                    "name": "B2",
                    "midi": 47,
                    "time": 310.71433749999613,
                    "velocity": 0.3700787401574803,
                    "duration": 0.05357143750001114
                },
                {
                    "name": "C3",
                    "midi": 48,
                    "time": 310.76790893749614,
                    "velocity": 0.3700787401574803,
                    "duration": 0.05357143750001114
                },
                {
                    "name": "B2",
                    "midi": 47,
                    "time": 310.82148037499616,
                    "velocity": 0.4015748031496063,
                    "duration": 0.10714287500002229
                },
                {
                    "name": "A2",
                    "midi": 45,
                    "time": 310.9286232499962,
                    "velocity": 0.3700787401574803,
                    "duration": 0.08035715624998829
                },
                {
                    "name": "A2",
                    "midi": 45,
                    "time": 311.03576612499614,
                    "velocity": 0.33858267716535434,
                    "duration": 0.10714287500002229
                },
                {
                    "name": "F3",
                    "midi": 53,
                    "time": 311.14290899999617,
                    "velocity": 0.4251968503937008,
                    "duration": 0.21428574999998773
                },
                {
                    "name": "F3",
                    "midi": 53,
                    "time": 311.57148049999614,
                    "velocity": 0.4409448818897638,
                    "duration": 0.8392858541666897
                },
                {
                    "name": "F3",
                    "midi": 53,
                    "time": 312.42862349999615,
                    "velocity": 0.4409448818897638,
                    "duration": 0.2500000416666808
                },
                {
                    "name": "E3",
                    "midi": 52,
                    "time": 312.64290924999614,
                    "velocity": 0.4015748031496063,
                    "duration": 0.16071431250003343
                },
                {
                    "name": "F3",
                    "midi": 53,
                    "time": 312.8571949999962,
                    "velocity": 0.4566929133858268,
                    "duration": 0.21428574999998773
                },
                {
                    "name": "D3",
                    "midi": 50,
                    "time": 313.07148074999617,
                    "velocity": 0.4015748031496063,
                    "duration": 0.21428574999998773
                },
                {
                    "name": "C3",
                    "midi": 48,
                    "time": 313.28576649999616,
                    "velocity": 0.4330708661417323,
                    "duration": 0.05357143750001114
                },
                {
                    "name": "D3",
                    "midi": 50,
                    "time": 313.33933793749617,
                    "velocity": 0.4330708661417323,
                    "duration": 0.05357143750001114
                },
                {
                    "name": "C3",
                    "midi": 48,
                    "time": 313.3929093749962,
                    "velocity": 0.48031496062992124,
                    "duration": 0.10714287500002229
                },
                {
                    "name": "B2",
                    "midi": 47,
                    "time": 313.5000522499962,
                    "velocity": 0.4409448818897638,
                    "duration": 0.08035715624998829
                },
                {
                    "name": "B2",
                    "midi": 47,
                    "time": 313.60719512499617,
                    "velocity": 0.4094488188976378,
                    "duration": 0.10714287500002229
                },
                {
                    "name": "G3",
                    "midi": 55,
                    "time": 313.7143379999962,
                    "velocity": 0.5196850393700787,
                    "duration": 0.41071435416665736
                },
                {
                    "name": "F3",
                    "midi": 53,
                    "time": 314.14290949999616,
                    "velocity": 0.2677165354330709,
                    "duration": 0.4071429250000165
                },
                {
                    "name": "G3",
                    "midi": 55,
                    "time": 314.14290949999616,
                    "velocity": 0.31496062992125984,
                    "duration": 0.4071429250000165
                },
                {
                    "name": "E3",
                    "midi": 52,
                    "time": 314.5714809999962,
                    "velocity": 0.2677165354330709,
                    "duration": 0.4071429250000165
                },
                {
                    "name": "G3",
                    "midi": 55,
                    "time": 314.5714809999962,
                    "velocity": 0.31496062992125984,
                    "duration": 0.4071429250000165
                },
                {
                    "name": "B2",
                    "midi": 47,
                    "time": 315.00005249999623,
                    "velocity": 0.2992125984251969,
                    "duration": 0.4071429250000165
                },
                {
                    "name": "G3",
                    "midi": 55,
                    "time": 315.00005249999623,
                    "velocity": 0.3543307086614173,
                    "duration": 0.4071429250000165
                },
                {
                    "name": "C3",
                    "midi": 48,
                    "time": 315.42862399999626,
                    "velocity": 0.33858267716535434,
                    "duration": 0.4071429250000165
                },
                {
                    "name": "G3",
                    "midi": 55,
                    "time": 315.42862399999626,
                    "velocity": 0.4015748031496063,
                    "duration": 0.4071429250000165
                },
                {
                    "name": "D3",
                    "midi": 50,
                    "time": 315.8571954999963,
                    "velocity": 0.2677165354330709,
                    "duration": 0.4071429250000165
                },
                {
                    "name": "G3",
                    "midi": 55,
                    "time": 315.8571954999963,
                    "velocity": 0.3228346456692913,
                    "duration": 0.4071429250000165
                },
                {
                    "name": "D3",
                    "midi": 50,
                    "time": 316.2857669999963,
                    "velocity": 0.2677165354330709,
                    "duration": 0.8571430000000078
                },
                {
                    "name": "G3",
                    "midi": 55,
                    "time": 316.2857669999963,
                    "velocity": 0.31496062992125984,
                    "duration": 1.2857144999999832
                },
                {
                    "name": "C3",
                    "midi": 48,
                    "time": 317.14290999999633,
                    "velocity": 0.2755905511811024,
                    "duration": 0.42857149999997546
                },
                {
                    "name": "G2",
                    "midi": 43,
                    "time": 317.5714814999963,
                    "velocity": 0.3543307086614173,
                    "duration": 0.41071435416665736
                },
                {
                    "name": "G3",
                    "midi": 55,
                    "time": 317.5714814999963,
                    "velocity": 0.41732283464566927,
                    "duration": 0.8392858541666328
                },
                {
                    "name": "A2",
                    "midi": 45,
                    "time": 318.0000529999963,
                    "velocity": 0.3779527559055118,
                    "duration": 0.42857149999997546
                },
                {
                    "name": "A3",
                    "midi": 57,
                    "time": 318.0000529999963,
                    "velocity": 0.44881889763779526,
                    "duration": 0.42857149999997546
                },
                {
                    "name": "B2",
                    "midi": 47,
                    "time": 318.42862449999626,
                    "velocity": 0.3937007874015748,
                    "duration": 0.42857149999997546
                },
                {
                    "name": "G3",
                    "midi": 55,
                    "time": 318.42862449999626,
                    "velocity": 0.3937007874015748,
                    "duration": 0.38571435000000065
                },
                {
                    "name": "B3",
                    "midi": 59,
                    "time": 318.42862449999626,
                    "velocity": 0.47244094488188976,
                    "duration": 0.38571435000000065
                },
                {
                    "name": "C3",
                    "midi": 48,
                    "time": 318.85719599999624,
                    "velocity": 0.4409448818897638,
                    "duration": 0.32142862500001
                },
                {
                    "name": "G3",
                    "midi": 55,
                    "time": 318.85719599999624,
                    "velocity": 0.4409448818897638,
                    "duration": 0.32142862500001
                },
                {
                    "name": "C4",
                    "midi": 60,
                    "time": 318.85719599999624,
                    "velocity": 0.5196850393700787,
                    "duration": 0.32142862500001
                },
                {
                    "name": "C3",
                    "midi": 48,
                    "time": 319.28576749999627,
                    "velocity": 0.4094488188976378,
                    "duration": 0.8214287083333147
                },
                {
                    "name": "G3",
                    "midi": 55,
                    "time": 319.28576749999627,
                    "velocity": 0.4094488188976378,
                    "duration": 0.8214287083333147
                },
                {
                    "name": "C4",
                    "midi": 60,
                    "time": 319.28576749999627,
                    "velocity": 0.48031496062992124,
                    "duration": 0.8214287083333147
                },
                {
                    "name": "E3",
                    "midi": 52,
                    "time": 320.1429104999963,
                    "velocity": 0.25196850393700787,
                    "duration": 0.42857149999997546
                },
                {
                    "name": "C4",
                    "midi": 60,
                    "time": 320.1429104999963,
                    "velocity": 0.25196850393700787,
                    "duration": 0.8571429999999509
                },
                {
                    "name": "E4",
                    "midi": 64,
                    "time": 320.1429104999963,
                    "velocity": 0.2992125984251969,
                    "duration": 0.8571429999999509
                },
                {
                    "name": "G3",
                    "midi": 55,
                    "time": 320.57148199999625,
                    "velocity": 0.2755905511811024,
                    "duration": 0.41071435416665736
                },
                {
                    "name": "D4",
                    "midi": 62,
                    "time": 321.0000534999962,
                    "velocity": 0.2677165354330709,
                    "duration": 0.42857149999997546
                },
                {
                    "name": "B3",
                    "midi": 59,
                    "time": 321.0000534999962,
                    "velocity": 0.2204724409448819,
                    "duration": 0.42857149999997546
                },
                {
                    "name": "G3",
                    "midi": 55,
                    "time": 321.0000534999962,
                    "velocity": 0.2204724409448819,
                    "duration": 0.38571435000000065
                },
                {
                    "name": "A3",
                    "midi": 57,
                    "time": 321.4286249999962,
                    "velocity": 0.30708661417322836,
                    "duration": 0.32142862500001
                },
                {
                    "name": "C4",
                    "midi": 60,
                    "time": 321.4286249999962,
                    "velocity": 0.3858267716535433,
                    "duration": 0.32142862500001
                },
                {
                    "name": "A3",
                    "midi": 57,
                    "time": 321.85719649999623,
                    "velocity": 0.2125984251968504,
                    "duration": 0.8571430000000078
                },
                {
                    "name": "C4",
                    "midi": 60,
                    "time": 321.85719649999623,
                    "velocity": 0.2677165354330709,
                    "duration": 0.8571430000000078
                },
                {
                    "name": "B2",
                    "midi": 47,
                    "time": 322.71433949999624,
                    "velocity": 0.2125984251968504,
                    "duration": 0.42857149999997546
                },
                {
                    "name": "G3",
                    "midi": 55,
                    "time": 322.71433949999624,
                    "velocity": 0.25196850393700787,
                    "duration": 0.8571429999999509
                },
                {
                    "name": "C3",
                    "midi": 48,
                    "time": 323.1429109999962,
                    "velocity": 0.18110236220472442,
                    "duration": 0.41071435416665736
                },
                {
                    "name": "G3",
                    "midi": 55,
                    "time": 323.5714824999962,
                    "velocity": 0.2204724409448819,
                    "duration": 0.7500001249999855
                },
                {
                    "name": "D3",
                    "midi": 50,
                    "time": 323.5714824999962,
                    "velocity": 0.18110236220472442,
                    "duration": 0.42857149999997546
                },
                {
                    "name": "C3",
                    "midi": 48,
                    "time": 324.00005399999617,
                    "velocity": 0.2204724409448819,
                    "duration": 0.32142862500001
                },
                {
                    "name": "C3",
                    "midi": 48,
                    "time": 324.4286254999962,
                    "velocity": 0.16535433070866143,
                    "duration": 0.8571430000000078
                },
                {
                    "name": "G3",
                    "midi": 55,
                    "time": 324.4286254999962,
                    "velocity": 0.2125984251968504,
                    "duration": 0.8571430000000078
                },
                {
                    "name": "G3",
                    "midi": 55,
                    "time": 325.2857684999962,
                    "velocity": 0.2992125984251969,
                    "duration": 0.4107143541666005
                },
                {
                    "name": "C3",
                    "midi": 48,
                    "time": 325.2857684999962,
                    "velocity": 0.2992125984251969,
                    "duration": 0.21428574999998773
                },
                {
                    "name": "G2",
                    "midi": 43,
                    "time": 325.5000542499962,
                    "velocity": 0.2677165354330709,
                    "duration": 0.1928571749999719
                },
                {
                    "name": "G3",
                    "midi": 55,
                    "time": 325.7143399999961,
                    "velocity": 0.2992125984251969,
                    "duration": 0.4107143541666005
                },
                {
                    "name": "G2",
                    "midi": 43,
                    "time": 325.7143399999961,
                    "velocity": 0.31496062992125984,
                    "duration": 0.21428574999998773
                },
                {
                    "name": "C3",
                    "midi": 48,
                    "time": 325.9286257499961,
                    "velocity": 0.2755905511811024,
                    "duration": 0.1928571749999719
                },
                {
                    "name": "G3",
                    "midi": 55,
                    "time": 326.14291149999605,
                    "velocity": 0.2992125984251969,
                    "duration": 0.41071435416665736
                },
                {
                    "name": "C3",
                    "midi": 48,
                    "time": 326.14291149999605,
                    "velocity": 0.31496062992125984,
                    "duration": 0.21428574999998773
                },
                {
                    "name": "D3",
                    "midi": 50,
                    "time": 326.35719724999603,
                    "velocity": 0.2677165354330709,
                    "duration": 0.21428574999998773
                },
                {
                    "name": "C3",
                    "midi": 48,
                    "time": 326.571482999996,
                    "velocity": 0.2677165354330709,
                    "duration": 0.42857149999997546
                },
                {
                    "name": "G3",
                    "midi": 55,
                    "time": 326.571482999996,
                    "velocity": 0.31496062992125984,
                    "duration": 0.42857149999997546
                },
                {
                    "name": "G4",
                    "midi": 67,
                    "time": 327.000054499996,
                    "velocity": 0.3228346456692913,
                    "duration": 0.4107143541666005
                },
                {
                    "name": "C4",
                    "midi": 60,
                    "time": 327.000054499996,
                    "velocity": 0.3228346456692913,
                    "duration": 0.21428574999998773
                },
                {
                    "name": "G3",
                    "midi": 55,
                    "time": 327.214340249996,
                    "velocity": 0.29133858267716534,
                    "duration": 0.1928571749999719
                },
                {
                    "name": "G4",
                    "midi": 67,
                    "time": 327.4286259999959,
                    "velocity": 0.3228346456692913,
                    "duration": 0.4107143541666005
                },
                {
                    "name": "G3",
                    "midi": 55,
                    "time": 327.4286259999959,
                    "velocity": 0.3464566929133858,
                    "duration": 0.21428574999998773
                },
                {
                    "name": "C4",
                    "midi": 60,
                    "time": 327.6429117499959,
                    "velocity": 0.2992125984251969,
                    "duration": 0.1928571749999719
                },
                {
                    "name": "G4",
                    "midi": 67,
                    "time": 327.85719749999583,
                    "velocity": 0.3228346456692913,
                    "duration": 0.41071435416665736
                },
                {
                    "name": "E4",
                    "midi": 64,
                    "time": 327.85719749999583,
                    "velocity": 0.3464566929133858,
                    "duration": 0.21428574999998773
                },
                {
                    "name": "D4",
                    "midi": 62,
                    "time": 328.0714832499958,
                    "velocity": 0.29133858267716534,
                    "duration": 0.21428574999998773
                },
                {
                    "name": "C4",
                    "midi": 60,
                    "time": 328.2857689999958,
                    "velocity": 0.29133858267716534,
                    "duration": 0.42857149999997546
                },
                {
                    "name": "G4",
                    "midi": 67,
                    "time": 328.2857689999958,
                    "velocity": 0.3464566929133858,
                    "duration": 0.42857149999997546
                },
                {
                    "name": "G3",
                    "midi": 55,
                    "time": 328.7143404999958,
                    "velocity": 0.2677165354330709,
                    "duration": 0.4107143541666005
                },
                {
                    "name": "C3",
                    "midi": 48,
                    "time": 328.7143404999958,
                    "velocity": 0.2677165354330709,
                    "duration": 0.21428574999998773
                },
                {
                    "name": "G2",
                    "midi": 43,
                    "time": 328.9286262499958,
                    "velocity": 0.2440944881889764,
                    "duration": 0.1928571749999719
                },
                {
                    "name": "G3",
                    "midi": 55,
                    "time": 329.1429119999957,
                    "velocity": 0.2677165354330709,
                    "duration": 0.4107143541666005
                },
                {
                    "name": "G2",
                    "midi": 43,
                    "time": 329.1429119999957,
                    "velocity": 0.29133858267716534,
                    "duration": 0.21428574999998773
                },
                {
                    "name": "C3",
                    "midi": 48,
                    "time": 329.3571977499957,
                    "velocity": 0.25196850393700787,
                    "duration": 0.1928571749999719
                },
                {
                    "name": "G3",
                    "midi": 55,
                    "time": 329.5714834999956,
                    "velocity": 0.2677165354330709,
                    "duration": 0.41071435416665736
                },
                {
                    "name": "E3",
                    "midi": 52,
                    "time": 329.5714834999956,
                    "velocity": 0.29133858267716534,
                    "duration": 0.21428574999998773
                },
                {
                    "name": "D3",
                    "midi": 50,
                    "time": 329.7857692499956,
                    "velocity": 0.2440944881889764,
                    "duration": 0.21428574999998773
                },
                {
                    "name": "C3",
                    "midi": 48,
                    "time": 330.0000549999956,
                    "velocity": 0.2440944881889764,
                    "duration": 0.42857149999997546
                },
                {
                    "name": "G3",
                    "midi": 55,
                    "time": 330.0000549999956,
                    "velocity": 0.29133858267716534,
                    "duration": 0.42857149999997546
                },
                {
                    "name": "C4",
                    "midi": 60,
                    "time": 330.4286264999956,
                    "velocity": 0.2440944881889764,
                    "duration": 0.38571435000000065
                },
                {
                    "name": "G4",
                    "midi": 67,
                    "time": 330.4286264999956,
                    "velocity": 0.29133858267716534,
                    "duration": 0.38571435000000065
                },
                {
                    "name": "B3",
                    "midi": 59,
                    "time": 330.85719799999555,
                    "velocity": 0.25196850393700787,
                    "duration": 0.38571435000000065
                },
                {
                    "name": "G#4",
                    "midi": 68,
                    "time": 330.85719799999555,
                    "velocity": 0.2992125984251969,
                    "duration": 0.38571435000000065
                },
                {
                    "name": "B3",
                    "midi": 59,
                    "time": 331.2857694999955,
                    "velocity": 0.2755905511811024,
                    "duration": 0.38571435000000065
                },
                {
                    "name": "G#4",
                    "midi": 68,
                    "time": 331.2857694999955,
                    "velocity": 0.33070866141732286,
                    "duration": 0.38571435000000065
                },
                {
                    "name": "A3",
                    "midi": 57,
                    "time": 331.7143409999955,
                    "velocity": 0.2677165354330709,
                    "duration": 0.38571435000000065
                },
                {
                    "name": "A4",
                    "midi": 69,
                    "time": 331.7143409999955,
                    "velocity": 0.31496062992125984,
                    "duration": 0.38571435000000065
                },
                {
                    "name": "A3",
                    "midi": 57,
                    "time": 332.1429124999955,
                    "velocity": 0.2204724409448819,
                    "duration": 0.38571435000000065
                },
                {
                    "name": "E4",
                    "midi": 64,
                    "time": 332.1429124999955,
                    "velocity": 0.2204724409448819,
                    "duration": 0.38571435000000065
                },
                {
                    "name": "A4",
                    "midi": 69,
                    "time": 332.1429124999955,
                    "velocity": 0.2677165354330709,
                    "duration": 0.38571435000000065
                },
                {
                    "name": "B3",
                    "midi": 59,
                    "time": 332.57148399999545,
                    "velocity": 0.2204724409448819,
                    "duration": 0.8571430000000078
                },
                {
                    "name": "E4",
                    "midi": 64,
                    "time": 332.57148399999545,
                    "velocity": 0.2204724409448819,
                    "duration": 0.8571430000000078
                },
                {
                    "name": "G#4",
                    "midi": 68,
                    "time": 332.57148399999545,
                    "velocity": 0.25984251968503935,
                    "duration": 0.8571430000000078
                },
                {
                    "name": "B2",
                    "midi": 47,
                    "time": 333.42862699999546,
                    "velocity": 0.2204724409448819,
                    "duration": 0.8571430000000078
                },
                {
                    "name": "B3",
                    "midi": 59,
                    "time": 333.42862699999546,
                    "velocity": 0.25984251968503935,
                    "duration": 0.8571430000000078
                },
                {
                    "name": "E3",
                    "midi": 52,
                    "time": 334.28576999999547,
                    "velocity": 0.2204724409448819,
                    "duration": 0.8571430000000078
                },
                {
                    "name": "B3",
                    "midi": 59,
                    "time": 334.28576999999547,
                    "velocity": 0.2677165354330709,
                    "duration": 0.8571430000000078
                },
                {
                    "name": "E3",
                    "midi": 52,
                    "time": 335.57148449999545,
                    "velocity": 0.2440944881889764,
                    "duration": 0.42857149999997546
                },
                {
                    "name": "B3",
                    "midi": 59,
                    "time": 335.57148449999545,
                    "velocity": 0.2440944881889764,
                    "duration": 0.42857149999997546
                },
                {
                    "name": "C#4",
                    "midi": 61,
                    "time": 336.0000559999954,
                    "velocity": 0.28346456692913385,
                    "duration": 0.38571435000000065
                },
                {
                    "name": "E3",
                    "midi": 52,
                    "time": 336.0000559999954,
                    "velocity": 0.28346456692913385,
                    "duration": 0.38571435000000065
                },
                {
                    "name": "E3",
                    "midi": 52,
                    "time": 336.4286274999954,
                    "velocity": 0.25984251968503935,
                    "duration": 0.38571435000000065
                },
                {
                    "name": "A#3",
                    "midi": 58,
                    "time": 336.4286274999954,
                    "velocity": 0.25984251968503935,
                    "duration": 0.38571435000000065
                },
                {
                    "name": "E3",
                    "midi": 52,
                    "time": 336.8571989999954,
                    "velocity": 0.2204724409448819,
                    "duration": 1.2678573541666651
                },
                {
                    "name": "B3",
                    "midi": 59,
                    "time": 336.8571989999954,
                    "velocity": 0.2677165354330709,
                    "duration": 0.6250001041666451
                },
                {
                    "name": "B3",
                    "midi": 59,
                    "time": 338.14291349999536,
                    "velocity": 0.2440944881889764,
                    "duration": 0.41071435416665736
                },
                {
                    "name": "E3",
                    "midi": 52,
                    "time": 338.14291349999536,
                    "velocity": 0.2440944881889764,
                    "duration": 0.42857149999997546
                },
                {
                    "name": "E4",
                    "midi": 64,
                    "time": 338.14291349999536,
                    "velocity": 0.2440944881889764,
                    "duration": 0.42857149999997546
                },
                {
                    "name": "B3",
                    "midi": 59,
                    "time": 338.57148499999533,
                    "velocity": 0.28346456692913385,
                    "duration": 0.41071435416665736
                },
                {
                    "name": "F#4",
                    "midi": 66,
                    "time": 338.57148499999533,
                    "velocity": 0.28346456692913385,
                    "duration": 0.38571435000000065
                },
                {
                    "name": "E3",
                    "midi": 52,
                    "time": 338.57148499999533,
                    "velocity": 0.28346456692913385,
                    "duration": 0.38571435000000065
                },
                {
                    "name": "C4",
                    "midi": 60,
                    "time": 339.0000564999953,
                    "velocity": 0.25984251968503935,
                    "duration": 0.42857149999997546
                },
                {
                    "name": "E3",
                    "midi": 52,
                    "time": 339.0000564999953,
                    "velocity": 0.25984251968503935,
                    "duration": 0.38571435000000065
                },
                {
                    "name": "E4",
                    "midi": 64,
                    "time": 339.0000564999953,
                    "velocity": 0.25984251968503935,
                    "duration": 0.38571435000000065
                },
                {
                    "name": "A3",
                    "midi": 57,
                    "time": 339.4286279999953,
                    "velocity": 0.29133858267716534,
                    "duration": 1.0714287499999955
                },
                {
                    "name": "C#4",
                    "midi": 61,
                    "time": 339.4286279999953,
                    "velocity": 0.29133858267716534,
                    "duration": 1.0714287499999955
                },
                {
                    "name": "F4",
                    "midi": 65,
                    "time": 339.4286279999953,
                    "velocity": 0.3464566929133858,
                    "duration": 0.8571430000000078
                },
                {
                    "name": "A3",
                    "midi": 57,
                    "time": 340.71434249999527,
                    "velocity": 0.2440944881889764,
                    "duration": 0.42857149999997546
                },
                {
                    "name": "C#4",
                    "midi": 61,
                    "time": 340.71434249999527,
                    "velocity": 0.2440944881889764,
                    "duration": 0.42857149999997546
                },
                {
                    "name": "D#4",
                    "midi": 63,
                    "time": 341.14291399999524,
                    "velocity": 0.28346456692913385,
                    "duration": 0.38571435000000065
                },
                {
                    "name": "B3",
                    "midi": 59,
                    "time": 341.14291399999524,
                    "velocity": 0.28346456692913385,
                    "duration": 0.38571435000000065
                },
                {
                    "name": "C#4",
                    "midi": 61,
                    "time": 341.5714854999952,
                    "velocity": 0.25984251968503935,
                    "duration": 0.38571435000000065
                },
                {
                    "name": "E4",
                    "midi": 64,
                    "time": 341.5714854999952,
                    "velocity": 0.25984251968503935,
                    "duration": 0.38571435000000065
                },
                {
                    "name": "D#3",
                    "midi": 51,
                    "time": 342.0000569999952,
                    "velocity": 0.2204724409448819,
                    "duration": 1.2678573541666651
                },
                {
                    "name": "B3",
                    "midi": 59,
                    "time": 342.0000569999952,
                    "velocity": 0.2677165354330709,
                    "duration": 1.2678573541666651
                },
                {
                    "name": "D#4",
                    "midi": 63,
                    "time": 343.2857714999952,
                    "velocity": 0.2440944881889764,
                    "duration": 0.41071435416665736
                },
                {
                    "name": "B4",
                    "midi": 71,
                    "time": 343.2857714999952,
                    "velocity": 0.2440944881889764,
                    "duration": 0.42857149999997546
                },
                {
                    "name": "D#4",
                    "midi": 63,
                    "time": 343.71434299999515,
                    "velocity": 0.28346456692913385,
                    "duration": 0.41071435416665736
                },
                {
                    "name": "C#5",
                    "midi": 73,
                    "time": 343.71434299999515,
                    "velocity": 0.28346456692913385,
                    "duration": 0.38571435000000065
                },
                {
                    "name": "D#4",
                    "midi": 63,
                    "time": 344.14291449999513,
                    "velocity": 0.25984251968503935,
                    "duration": 0.42857149999997546
                },
                {
                    "name": "B4",
                    "midi": 71,
                    "time": 344.14291449999513,
                    "velocity": 0.25984251968503935,
                    "duration": 0.38571435000000065
                },
                {
                    "name": "E4",
                    "midi": 64,
                    "time": 344.5714859999951,
                    "velocity": 0.29133858267716534,
                    "duration": 1.0714287499999955
                },
                {
                    "name": "C#5",
                    "midi": 73,
                    "time": 344.5714859999951,
                    "velocity": 0.3464566929133858,
                    "duration": 0.8571430000000078
                },
                {
                    "name": "B4",
                    "midi": 71,
                    "time": 345.4286289999951,
                    "velocity": 0.3464566929133858,
                    "duration": 0.21428574999998773
                },
                {
                    "name": "B3",
                    "midi": 59,
                    "time": 345.6429147499951,
                    "velocity": 0.4330708661417323,
                    "duration": 0.21428574999998773
                },
                {
                    "name": "G#3",
                    "midi": 56,
                    "time": 345.8572004999951,
                    "velocity": 0.44881889763779526,
                    "duration": 0.8571429999999509
                },
                {
                    "name": "F#3",
                    "midi": 54,
                    "time": 346.0714862499951,
                    "velocity": 0.47244094488188976,
                    "duration": 0.21428574999998773
                },
                {
                    "name": "E3",
                    "midi": 52,
                    "time": 346.28577199999506,
                    "velocity": 0.4015748031496063,
                    "duration": 0.42857149999997546
                },
                {
                    "name": "C4",
                    "midi": 60,
                    "time": 346.71434349999504,
                    "velocity": 0.48031496062992124,
                    "duration": 0.42857149999997546
                },
                {
                    "name": "G#3",
                    "midi": 56,
                    "time": 346.71434349999504,
                    "velocity": 0.4015748031496063,
                    "duration": 0.42857149999997546
                },
                {
                    "name": "D#3",
                    "midi": 51,
                    "time": 346.71434349999504,
                    "velocity": 0.4015748031496063,
                    "duration": 0.42857149999997546
                },
                {
                    "name": "C#3",
                    "midi": 49,
                    "time": 347.142914999995,
                    "velocity": 0.4566929133858268,
                    "duration": 1.2857144999999832
                },
                {
                    "name": "E3",
                    "midi": 52,
                    "time": 347.142914999995,
                    "velocity": 0.4566929133858268,
                    "duration": 1.2857144999999832
                },
                {
                    "name": "A3",
                    "midi": 57,
                    "time": 347.142914999995,
                    "velocity": 0.4566929133858268,
                    "duration": 1.2857144999999832
                },
                {
                    "name": "C#4",
                    "midi": 61,
                    "time": 347.142914999995,
                    "velocity": 0.5511811023622047,
                    "duration": 1.2857144999999832
                },
                {
                    "name": "E4",
                    "midi": 64,
                    "time": 348.642915249995,
                    "velocity": 0.4251968503937008,
                    "duration": 0.6428572499999632
                },
                {
                    "name": "C#4",
                    "midi": 61,
                    "time": 348.642915249995,
                    "velocity": 0.3543307086614173,
                    "duration": 0.21428574999998773
                },
                {
                    "name": "B3",
                    "midi": 59,
                    "time": 348.857200999995,
                    "velocity": 0.47244094488188976,
                    "duration": 0.42857149999997546
                },
                {
                    "name": "E4",
                    "midi": 64,
                    "time": 349.28577249999495,
                    "velocity": 0.4566929133858268,
                    "duration": 0.32142862500001
                },
                {
                    "name": "G#4",
                    "midi": 68,
                    "time": 349.714343999995,
                    "velocity": 0.5433070866141733,
                    "duration": 2.5714290000000233
                },
                {
                    "name": "F4",
                    "midi": 65,
                    "time": 349.714343999995,
                    "velocity": 0.4566929133858268,
                    "duration": 2.5714290000000233
                },
                {
                    "name": "A3",
                    "midi": 57,
                    "time": 349.714343999995,
                    "velocity": 0.4566929133858268,
                    "duration": 3.0000004999999987
                },
                {
                    "name": "A4",
                    "midi": 69,
                    "time": 352.285772999995,
                    "velocity": 0.3464566929133858,
                    "duration": 0.42857149999997546
                },
                {
                    "name": "F#4",
                    "midi": 66,
                    "time": 352.285772999995,
                    "velocity": 0.29133858267716534,
                    "duration": 0.42857149999997546
                },
                {
                    "name": "E4",
                    "midi": 64,
                    "time": 354.85720199999497,
                    "velocity": 0.30708661417322836,
                    "duration": 2.5714290000000233
                },
                {
                    "name": "A3",
                    "midi": 57,
                    "time": 354.85720199999497,
                    "velocity": 0.25984251968503935,
                    "duration": 3.0000004999999987
                },
                {
                    "name": "D3",
                    "midi": 50,
                    "time": 357.428630999995,
                    "velocity": 0.23622047244094488,
                    "duration": 0.42857149999997546
                },
                {
                    "name": "D4",
                    "midi": 62,
                    "time": 357.428630999995,
                    "velocity": 0.28346456692913385,
                    "duration": 0.42857149999997546
                },
                {
                    "name": "F#3",
                    "midi": 54,
                    "time": 358.92863124999496,
                    "velocity": 0.3543307086614173,
                    "duration": 0.21428574999998773
                },
                {
                    "name": "E3",
                    "midi": 52,
                    "time": 359.14291699999495,
                    "velocity": 0.47244094488188976,
                    "duration": 0.42857149999997546
                },
                {
                    "name": "G#3",
                    "midi": 56,
                    "time": 359.14291699999495,
                    "velocity": 0.47244094488188976,
                    "duration": 0.42857149999997546
                },
                {
                    "name": "D3",
                    "midi": 50,
                    "time": 359.5714884999949,
                    "velocity": 0.3858267716535433,
                    "duration": 0.32142862500001
                },
                {
                    "name": "A3",
                    "midi": 57,
                    "time": 359.5714884999949,
                    "velocity": 0.4566929133858268,
                    "duration": 0.32142862500001
                },
                {
                    "name": "C#3",
                    "midi": 49,
                    "time": 360.00005999999496,
                    "velocity": 0.4330708661417323,
                    "duration": 1.2857144999999832
                },
                {
                    "name": "A3",
                    "midi": 57,
                    "time": 360.00005999999496,
                    "velocity": 0.5118110236220472,
                    "duration": 1.2857144999999832
                },
                {
                    "name": "C#4",
                    "midi": 61,
                    "time": 361.50006024999493,
                    "velocity": 0.3543307086614173,
                    "duration": 0.21428574999998773
                },
                {
                    "name": "B3",
                    "midi": 59,
                    "time": 361.7143459999949,
                    "velocity": 0.47244094488188976,
                    "duration": 0.42857149999997546
                },
                {
                    "name": "D#4",
                    "midi": 63,
                    "time": 361.7143459999949,
                    "velocity": 0.47244094488188976,
                    "duration": 0.42857149999997546
                },
                {
                    "name": "A3",
                    "midi": 57,
                    "time": 362.1429174999949,
                    "velocity": 0.3858267716535433,
                    "duration": 0.32142862500001
                },
                {
                    "name": "E4",
                    "midi": 64,
                    "time": 362.1429174999949,
                    "velocity": 0.4566929133858268,
                    "duration": 0.32142862500001
                },
                {
                    "name": "G#3",
                    "midi": 56,
                    "time": 362.5714889999949,
                    "velocity": 0.5118110236220472,
                    "duration": 0.32142862500001
                },
                {
                    "name": "E4",
                    "midi": 64,
                    "time": 363.00006049999496,
                    "velocity": 0.5275590551181102,
                    "duration": 0.32142862500001
                },
                {
                    "name": "C#4",
                    "midi": 61,
                    "time": 363.00006049999496,
                    "velocity": 0.5275590551181102,
                    "duration": 0.32142862500001
                },
                {
                    "name": "B3",
                    "midi": 59,
                    "time": 363.428631999995,
                    "velocity": 0.48031496062992124,
                    "duration": 0.8571430000000078
                },
                {
                    "name": "E4",
                    "midi": 64,
                    "time": 363.428631999995,
                    "velocity": 0.5669291338582677,
                    "duration": 0.8571430000000078
                },
                {
                    "name": "B2",
                    "midi": 47,
                    "time": 364.285774999995,
                    "velocity": 0.2992125984251969,
                    "duration": 0.8392858541666897
                },
                {
                    "name": "B3",
                    "midi": 59,
                    "time": 364.285774999995,
                    "velocity": 0.3543307086614173,
                    "duration": 0.8392858541666897
                },
                {
                    "name": "E3",
                    "midi": 52,
                    "time": 365.142917999995,
                    "velocity": 0.2440944881889764,
                    "duration": 1.2857144999999832
                },
                {
                    "name": "B3",
                    "midi": 59,
                    "time": 365.142917999995,
                    "velocity": 0.29133858267716534,
                    "duration": 1.2857144999999832
                },
                {
                    "name": "E3",
                    "midi": 52,
                    "time": 367.285775499995,
                    "velocity": 0.5196850393700787,
                    "duration": 0.21428574999998773
                },
                {
                    "name": "G#3",
                    "midi": 56,
                    "time": 367.500061249995,
                    "velocity": 0.48031496062992124,
                    "duration": 0.21428574999998773
                },
                {
                    "name": "A3",
                    "midi": 57,
                    "time": 367.714346999995,
                    "velocity": 0.5196850393700787,
                    "duration": 0.21428574999998773
                },
                {
                    "name": "A2",
                    "midi": 45,
                    "time": 367.92863274999496,
                    "velocity": 0.6062992125984252,
                    "duration": 0.42857149999997546
                },
                {
                    "name": "A1",
                    "midi": 33,
                    "time": 368.35720424999494,
                    "velocity": 0.4645669291338583,
                    "duration": 0.21428574999998773
                },
                {
                    "name": "A2",
                    "midi": 45,
                    "time": 368.5714899999949,
                    "velocity": 0.5118110236220472,
                    "duration": 0.21428574999998773
                },
                {
                    "name": "E3",
                    "midi": 52,
                    "time": 369.0000614999949,
                    "velocity": 0.5748031496062992,
                    "duration": 0.21428574999998773
                },
                {
                    "name": "G#3",
                    "midi": 56,
                    "time": 369.2143472499949,
                    "velocity": 0.49606299212598426,
                    "duration": 0.21428574999998773
                },
                {
                    "name": "F#3",
                    "midi": 54,
                    "time": 369.4286329999949,
                    "velocity": 0.5118110236220472,
                    "duration": 0.21428574999998773
                },
                {
                    "name": "C#3",
                    "midi": 49,
                    "time": 369.85720449999485,
                    "velocity": 0.5590551181102362,
                    "duration": 0.21428574999998773
                },
                {
                    "name": "E3",
                    "midi": 52,
                    "time": 370.07149024999484,
                    "velocity": 0.4881889763779528,
                    "duration": 0.21428574999998773
                },
                {
                    "name": "D3",
                    "midi": 50,
                    "time": 370.2857759999948,
                    "velocity": 0.5118110236220472,
                    "duration": 0.21428574999998773
                },
                {
                    "name": "D2",
                    "midi": 38,
                    "time": 370.5000617499948,
                    "velocity": 0.5826771653543307,
                    "duration": 0.42857149999997546
                },
                {
                    "name": "A1",
                    "midi": 33,
                    "time": 370.9286332499948,
                    "velocity": 0.5118110236220472,
                    "duration": 0.21428574999998773
                },
                {
                    "name": "D2",
                    "midi": 38,
                    "time": 371.1429189999948,
                    "velocity": 0.5118110236220472,
                    "duration": 0.21428574999998773
                },
                {
                    "name": "F#2",
                    "midi": 42,
                    "time": 371.35720474999476,
                    "velocity": 0.4566929133858268,
                    "duration": 0.21428574999998773
                },
                {
                    "name": "D2",
                    "midi": 38,
                    "time": 371.57149049999475,
                    "velocity": 0.48031496062992124,
                    "duration": 0.21428574999998773
                },
                {
                    "name": "C#2",
                    "midi": 37,
                    "time": 371.78577624999474,
                    "velocity": 0.5039370078740157,
                    "duration": 0.21428574999998773
                },
                {
                    "name": "B1",
                    "midi": 35,
                    "time": 372.0000619999947,
                    "velocity": 0.5354330708661418,
                    "duration": 0.21428574999998773
                },
                {
                    "name": "F#3",
                    "midi": 54,
                    "time": 372.4286334999947,
                    "velocity": 0.5196850393700787,
                    "duration": 0.21428574999998773
                },
                {
                    "name": "A#3",
                    "midi": 58,
                    "time": 372.6429192499947,
                    "velocity": 0.48031496062992124,
                    "duration": 0.21428574999998773
                },
                {
                    "name": "B3",
                    "midi": 59,
                    "time": 372.8572049999947,
                    "velocity": 0.5196850393700787,
                    "duration": 0.21428574999998773
                },
                {
                    "name": "B2",
                    "midi": 47,
                    "time": 373.07149074999467,
                    "velocity": 0.6062992125984252,
                    "duration": 0.42857149999997546
                },
                {
                    "name": "B1",
                    "midi": 35,
                    "time": 373.50006224999464,
                    "velocity": 0.4645669291338583,
                    "duration": 0.21428574999998773
                },
                {
                    "name": "B2",
                    "midi": 47,
                    "time": 373.71434799999463,
                    "velocity": 0.5118110236220472,
                    "duration": 0.21428574999998773
                },
                {
                    "name": "F#3",
                    "midi": 54,
                    "time": 374.1429194999946,
                    "velocity": 0.5748031496062992,
                    "duration": 0.21428574999998773
                },
                {
                    "name": "A3",
                    "midi": 57,
                    "time": 374.3572052499946,
                    "velocity": 0.49606299212598426,
                    "duration": 0.21428574999998773
                },
                {
                    "name": "G#3",
                    "midi": 56,
                    "time": 374.5714909999946,
                    "velocity": 0.5118110236220472,
                    "duration": 0.21428574999998773
                },
                {
                    "name": "D#3",
                    "midi": 51,
                    "time": 375.00006249999456,
                    "velocity": 0.5590551181102362,
                    "duration": 0.21428574999998773
                },
                {
                    "name": "F#3",
                    "midi": 54,
                    "time": 375.21434824999454,
                    "velocity": 0.5118110236220472,
                    "duration": 0.21428574999998773
                },
                {
                    "name": "E3",
                    "midi": 52,
                    "time": 375.42863399999453,
                    "velocity": 0.5118110236220472,
                    "duration": 0.21428574999998773
                },
                {
                    "name": "E2",
                    "midi": 40,
                    "time": 375.6429197499945,
                    "velocity": 0.5826771653543307,
                    "duration": 0.42857149999997546
                },
                {
                    "name": "B1",
                    "midi": 35,
                    "time": 376.0714912499945,
                    "velocity": 0.5118110236220472,
                    "duration": 0.21428574999998773
                },
                {
                    "name": "E2",
                    "midi": 40,
                    "time": 376.2857769999945,
                    "velocity": 0.5118110236220472,
                    "duration": 0.41071435416665736
                },
                {
                    "name": "E2",
                    "midi": 40,
                    "time": 376.50006274999447,
                    "velocity": 0.5748031496062992,
                    "duration": 0.41071435416665736
                },
                {
                    "name": "E3",
                    "midi": 52,
                    "time": 376.50006274999447,
                    "velocity": 0.5748031496062992,
                    "duration": 0.41071435416665736
                },
                {
                    "name": "F#2",
                    "midi": 42,
                    "time": 376.92863424999445,
                    "velocity": 0.4409448818897638,
                    "duration": 0.21428574999998773
                },
                {
                    "name": "E3",
                    "midi": 52,
                    "time": 376.92863424999445,
                    "velocity": 0.4409448818897638,
                    "duration": 0.42857149999997546
                },
                {
                    "name": "F#3",
                    "midi": 54,
                    "time": 376.92863424999445,
                    "velocity": 0.49606299212598426,
                    "duration": 0.21428574999998773
                },
                {
                    "name": "G#2",
                    "midi": 44,
                    "time": 377.14291999999443,
                    "velocity": 0.4330708661417323,
                    "duration": 0.21428574999998773
                },
                {
                    "name": "G#3",
                    "midi": 56,
                    "time": 377.14291999999443,
                    "velocity": 0.5118110236220472,
                    "duration": 0.21428574999998773
                },
                {
                    "name": "A3",
                    "midi": 57,
                    "time": 377.3572057499944,
                    "velocity": 0.5590551181102362,
                    "duration": 0.41071435416665736
                },
                {
                    "name": "A2",
                    "midi": 45,
                    "time": 377.3572057499944,
                    "velocity": 0.49606299212598426,
                    "duration": 0.42857149999997546
                },
                {
                    "name": "A3",
                    "midi": 57,
                    "time": 377.7857772499944,
                    "velocity": 0.49606299212598426,
                    "duration": 0.21428574999998773
                },
                {
                    "name": "B2",
                    "midi": 47,
                    "time": 377.7857772499944,
                    "velocity": 0.49606299212598426,
                    "duration": 0.21428574999998773
                },
                {
                    "name": "B3",
                    "midi": 59,
                    "time": 377.7857772499944,
                    "velocity": 0.5118110236220472,
                    "duration": 0.21428574999998773
                },
                {
                    "name": "C#3",
                    "midi": 49,
                    "time": 378.0000629999944,
                    "velocity": 0.4330708661417323,
                    "duration": 0.21428574999998773
                },
                {
                    "name": "A3",
                    "midi": 57,
                    "time": 378.0000629999944,
                    "velocity": 0.4330708661417323,
                    "duration": 0.21428574999998773
                },
                {
                    "name": "C#4",
                    "midi": 61,
                    "time": 378.0000629999944,
                    "velocity": 0.5118110236220472,
                    "duration": 0.21428574999998773
                },
                {
                    "name": "C#3",
                    "midi": 49,
                    "time": 378.42863449999436,
                    "velocity": 0.4881889763779528,
                    "duration": 0.6375001062500019
                },
                {
                    "name": "A3",
                    "midi": 57,
                    "time": 378.42863449999436,
                    "velocity": 0.4881889763779528,
                    "duration": 0.6375001062500019
                },
                {
                    "name": "C#4",
                    "midi": 61,
                    "time": 378.42863449999436,
                    "velocity": 0.5826771653543307,
                    "duration": 0.6375001062500019
                },
                {
                    "name": "C#4",
                    "midi": 61,
                    "time": 379.0714917499944,
                    "velocity": 0.5590551181102362,
                    "duration": 0.21428574999998773
                },
                {
                    "name": "C#3",
                    "midi": 49,
                    "time": 379.0714917499944,
                    "velocity": 0.47244094488188976,
                    "duration": 0.21428574999998773
                },
                {
                    "name": "E4",
                    "midi": 64,
                    "time": 379.28577749999437,
                    "velocity": 0.5826771653543307,
                    "duration": 0.21428574999998773
                },
                {
                    "name": "E3",
                    "midi": 52,
                    "time": 379.28577749999437,
                    "velocity": 0.4881889763779528,
                    "duration": 0.21428574999998773
                },
                {
                    "name": "C#4",
                    "midi": 61,
                    "time": 379.50006324999435,
                    "velocity": 0.5511811023622047,
                    "duration": 0.21428574999998773
                },
                {
                    "name": "C#3",
                    "midi": 49,
                    "time": 379.50006324999435,
                    "velocity": 0.4645669291338583,
                    "duration": 0.21428574999998773
                },
                {
                    "name": "A2",
                    "midi": 45,
                    "time": 379.71434899999434,
                    "velocity": 0.4881889763779528,
                    "duration": 0.21428574999998773
                },
                {
                    "name": "A3",
                    "midi": 57,
                    "time": 379.71434899999434,
                    "velocity": 0.5826771653543307,
                    "duration": 0.21428574999998773
                },
                {
                    "name": "G#2",
                    "midi": 44,
                    "time": 379.92863474999433,
                    "velocity": 0.4566929133858268,
                    "duration": 0.21428574999998773
                },
                {
                    "name": "G#3",
                    "midi": 56,
                    "time": 379.92863474999433,
                    "velocity": 0.5354330708661418,
                    "duration": 0.21428574999998773
                },
                {
                    "name": "F#2",
                    "midi": 42,
                    "time": 380.1429204999943,
                    "velocity": 0.47244094488188976,
                    "duration": 0.21428574999998773
                },
                {
                    "name": "F#3",
                    "midi": 54,
                    "time": 380.1429204999943,
                    "velocity": 0.5590551181102362,
                    "duration": 0.21428574999998773
                },
                {
                    "name": "E2",
                    "midi": 40,
                    "time": 380.3572062499943,
                    "velocity": 0.47244094488188976,
                    "duration": 0.21428574999998773
                },
                {
                    "name": "E3",
                    "midi": 52,
                    "time": 380.3572062499943,
                    "velocity": 0.5590551181102362,
                    "duration": 0.21428574999998773
                },
                {
                    "name": "D2",
                    "midi": 38,
                    "time": 380.5714919999943,
                    "velocity": 0.4330708661417323,
                    "duration": 0.21428574999998773
                },
                {
                    "name": "A2",
                    "midi": 45,
                    "time": 380.5714919999943,
                    "velocity": 0.4330708661417323,
                    "duration": 0.21428574999998773
                },
                {
                    "name": "D3",
                    "midi": 50,
                    "time": 380.5714919999943,
                    "velocity": 0.5118110236220472,
                    "duration": 0.21428574999998773
                },
                {
                    "name": "D2",
                    "midi": 38,
                    "time": 381.00006349999427,
                    "velocity": 0.4881889763779528,
                    "duration": 0.6375001062500019
                },
                {
                    "name": "A2",
                    "midi": 45,
                    "time": 381.00006349999427,
                    "velocity": 0.4881889763779528,
                    "duration": 0.6375001062500019
                },
                {
                    "name": "D3",
                    "midi": 50,
                    "time": 381.00006349999427,
                    "velocity": 0.5826771653543307,
                    "duration": 0.6375001062500019
                },
                {
                    "name": "A2",
                    "midi": 45,
                    "time": 381.6429207499943,
                    "velocity": 0.5590551181102362,
                    "duration": 0.21428574999998773
                },
                {
                    "name": "D2",
                    "midi": 38,
                    "time": 381.6429207499943,
                    "velocity": 0.47244094488188976,
                    "duration": 0.42857149999997546
                },
                {
                    "name": "D3",
                    "midi": 50,
                    "time": 381.8572064999943,
                    "velocity": 0.6456692913385826,
                    "duration": 0.21428574999998773
                },
                {
                    "name": "A2",
                    "midi": 45,
                    "time": 382.07149224999426,
                    "velocity": 0.4645669291338583,
                    "duration": 0.21428574999998773
                },
                {
                    "name": "C#3",
                    "midi": 49,
                    "time": 382.07149224999426,
                    "velocity": 0.5511811023622047,
                    "duration": 0.21428574999998773
                },
                {
                    "name": "C#2",
                    "midi": 37,
                    "time": 382.07149224999426,
                    "velocity": 0.4645669291338583,
                    "duration": 0.21428574999998773
                },
                {
                    "name": "D2",
                    "midi": 38,
                    "time": 382.28577799999425,
                    "velocity": 0.4881889763779528,
                    "duration": 0.20357146250000824
                },
                {
                    "name": "A2",
                    "midi": 45,
                    "time": 382.28577799999425,
                    "velocity": 0.4881889763779528,
                    "duration": 0.20357146250000824
                },
                {
                    "name": "D3",
                    "midi": 50,
                    "time": 382.28577799999425,
                    "velocity": 0.5826771653543307,
                    "duration": 0.20357146250000824
                },
                {
                    "name": "D2",
                    "midi": 38,
                    "time": 382.50006374999424,
                    "velocity": 0.47244094488188976,
                    "duration": 0.42857149999997546
                },
                {
                    "name": "A2",
                    "midi": 45,
                    "time": 382.50006374999424,
                    "velocity": 0.5590551181102362,
                    "duration": 0.21428574999998773
                },
                {
                    "name": "D3",
                    "midi": 50,
                    "time": 382.7143494999942,
                    "velocity": 0.5354330708661418,
                    "duration": 0.21428574999998773
                },
                {
                    "name": "B2",
                    "midi": 47,
                    "time": 382.9286352499942,
                    "velocity": 0.47244094488188976,
                    "duration": 0.21428574999998773
                },
                {
                    "name": "E2",
                    "midi": 40,
                    "time": 382.9286352499942,
                    "velocity": 0.47244094488188976,
                    "duration": 0.21428574999998773
                },
                {
                    "name": "E3",
                    "midi": 52,
                    "time": 382.9286352499942,
                    "velocity": 0.5590551181102362,
                    "duration": 0.21428574999998773
                },
                {
                    "name": "D2",
                    "midi": 38,
                    "time": 383.1429209999942,
                    "velocity": 0.47244094488188976,
                    "duration": 0.21428574999998773
                },
                {
                    "name": "A2",
                    "midi": 45,
                    "time": 383.1429209999942,
                    "velocity": 0.47244094488188976,
                    "duration": 0.21428574999998773
                },
                {
                    "name": "D3",
                    "midi": 50,
                    "time": 383.1429209999942,
                    "velocity": 0.5590551181102362,
                    "duration": 0.21428574999998773
                },
                {
                    "name": "D2",
                    "midi": 38,
                    "time": 383.5714924999942,
                    "velocity": 0.4881889763779528,
                    "duration": 0.64285725000002
                },
                {
                    "name": "A2",
                    "midi": 45,
                    "time": 383.5714924999942,
                    "velocity": 0.4881889763779528,
                    "duration": 0.64285725000002
                },
                {
                    "name": "D3",
                    "midi": 50,
                    "time": 383.5714924999942,
                    "velocity": 0.5826771653543307,
                    "duration": 0.64285725000002
                },
                {
                    "name": "F#3",
                    "midi": 54,
                    "time": 384.2143497499942,
                    "velocity": 0.5590551181102362,
                    "duration": 0.21428574999998773
                },
                {
                    "name": "F#2",
                    "midi": 42,
                    "time": 384.2143497499942,
                    "velocity": 0.47244094488188976,
                    "duration": 0.21428574999998773
                },
                {
                    "name": "A3",
                    "midi": 57,
                    "time": 384.4286354999942,
                    "velocity": 0.5826771653543307,
                    "duration": 0.21428574999998773
                },
                {
                    "name": "A2",
                    "midi": 45,
                    "time": 384.4286354999942,
                    "velocity": 0.4881889763779528,
                    "duration": 0.21428574999998773
                },
                {
                    "name": "F#3",
                    "midi": 54,
                    "time": 384.6429212499942,
                    "velocity": 0.5511811023622047,
                    "duration": 0.21428574999998773
                },
                {
                    "name": "F#2",
                    "midi": 42,
                    "time": 384.6429212499942,
                    "velocity": 0.4645669291338583,
                    "duration": 0.21428574999998773
                },
                {
                    "name": "D2",
                    "midi": 38,
                    "time": 384.85720699999416,
                    "velocity": 0.47244094488188976,
                    "duration": 0.21428574999998773
                },
                {
                    "name": "D3",
                    "midi": 50,
                    "time": 384.85720699999416,
                    "velocity": 0.5590551181102362,
                    "duration": 0.21428574999998773
                },
                {
                    "name": "F#2",
                    "midi": 42,
                    "time": 385.07149274999415,
                    "velocity": 0.47244094488188976,
                    "duration": 0.21428574999998773
                },
                {
                    "name": "F#3",
                    "midi": 54,
                    "time": 385.07149274999415,
                    "velocity": 0.5590551181102362,
                    "duration": 0.21428574999998773
                },
                {
                    "name": "D2",
                    "midi": 38,
                    "time": 385.28577849999414,
                    "velocity": 0.4566929133858268,
                    "duration": 0.21428574999998773
                },
                {
                    "name": "D3",
                    "midi": 50,
                    "time": 385.28577849999414,
                    "velocity": 0.5354330708661418,
                    "duration": 0.21428574999998773
                },
                {
                    "name": "C#2",
                    "midi": 37,
                    "time": 385.5000642499941,
                    "velocity": 0.47244094488188976,
                    "duration": 0.21428574999998773
                },
                {
                    "name": "C#3",
                    "midi": 49,
                    "time": 385.5000642499941,
                    "velocity": 0.5590551181102362,
                    "duration": 0.21428574999998773
                },
                {
                    "name": "B1",
                    "midi": 35,
                    "time": 385.7143499999941,
                    "velocity": 0.4330708661417323,
                    "duration": 0.21428574999998773
                },
                {
                    "name": "B2",
                    "midi": 47,
                    "time": 385.7143499999941,
                    "velocity": 0.5118110236220472,
                    "duration": 0.21428574999998773
                },
                {
                    "name": "B1",
                    "midi": 35,
                    "time": 386.1429214999941,
                    "velocity": 0.4881889763779528,
                    "duration": 0.6375001062500019
                },
                {
                    "name": "F#2",
                    "midi": 42,
                    "time": 386.1429214999941,
                    "velocity": 0.4881889763779528,
                    "duration": 0.6375001062500019
                },
                {
                    "name": "B2",
                    "midi": 47,
                    "time": 386.1429214999941,
                    "velocity": 0.5826771653543307,
                    "duration": 0.6375001062500019
                },
                {
                    "name": "B1",
                    "midi": 35,
                    "time": 386.7857787499941,
                    "velocity": 0.47244094488188976,
                    "duration": 0.41071435416665736
                },
                {
                    "name": "F#2",
                    "midi": 42,
                    "time": 386.7857787499941,
                    "velocity": 0.47244094488188976,
                    "duration": 0.41071435416665736
                },
                {
                    "name": "B2",
                    "midi": 47,
                    "time": 386.7857787499941,
                    "velocity": 0.5590551181102362,
                    "duration": 0.41071435416665736
                },
                {
                    "name": "B1",
                    "midi": 35,
                    "time": 387.2143502499941,
                    "velocity": 0.4881889763779528,
                    "duration": 0.21428574999998773
                },
                {
                    "name": "F#2",
                    "midi": 42,
                    "time": 387.2143502499941,
                    "velocity": 0.4881889763779528,
                    "duration": 0.21428574999998773
                },
                {
                    "name": "B2",
                    "midi": 47,
                    "time": 387.2143502499941,
                    "velocity": 0.5826771653543307,
                    "duration": 0.21428574999998773
                },
                {
                    "name": "E2",
                    "midi": 40,
                    "time": 387.42863599999407,
                    "velocity": 0.4330708661417323,
                    "duration": 0.21428574999998773
                },
                {
                    "name": "B2",
                    "midi": 47,
                    "time": 387.42863599999407,
                    "velocity": 0.4330708661417323,
                    "duration": 0.21428574999998773
                },
                {
                    "name": "E3",
                    "midi": 52,
                    "time": 387.42863599999407,
                    "velocity": 0.5118110236220472,
                    "duration": 0.21428574999998773
                },
                {
                    "name": "E2",
                    "midi": 40,
                    "time": 387.85720749999405,
                    "velocity": 0.4881889763779528,
                    "duration": 0.64285725000002
                },
                {
                    "name": "B2",
                    "midi": 47,
                    "time": 387.85720749999405,
                    "velocity": 0.4881889763779528,
                    "duration": 0.64285725000002
                },
                {
                    "name": "E3",
                    "midi": 52,
                    "time": 387.85720749999405,
                    "velocity": 0.5826771653543307,
                    "duration": 0.64285725000002
                },
                {
                    "name": "A1",
                    "midi": 33,
                    "time": 388.50006474999407,
                    "velocity": 0.47244094488188976,
                    "duration": 0.41071435416665736
                },
                {
                    "name": "E2",
                    "midi": 40,
                    "time": 388.50006474999407,
                    "velocity": 0.47244094488188976,
                    "duration": 0.41071435416665736
                },
                {
                    "name": "A2",
                    "midi": 45,
                    "time": 388.50006474999407,
                    "velocity": 0.5590551181102362,
                    "duration": 0.41071435416665736
                },
                {
                    "name": "A1",
                    "midi": 33,
                    "time": 388.92863624999404,
                    "velocity": 0.4330708661417323,
                    "duration": 0.21428574999998773
                },
                {
                    "name": "E2",
                    "midi": 40,
                    "time": 388.92863624999404,
                    "velocity": 0.4330708661417323,
                    "duration": 0.21428574999998773
                },
                {
                    "name": "A2",
                    "midi": 45,
                    "time": 388.92863624999404,
                    "velocity": 0.5196850393700787,
                    "duration": 0.21428574999998773
                },
                {
                    "name": "A2",
                    "midi": 45,
                    "time": 389.14292199999403,
                    "velocity": 0.4330708661417323,
                    "duration": 0.21428574999998773
                },
                {
                    "name": "E3",
                    "midi": 52,
                    "time": 389.14292199999403,
                    "velocity": 0.5118110236220472,
                    "duration": 0.21428574999998773
                },
                {
                    "name": "A2",
                    "midi": 45,
                    "time": 389.571493499994,
                    "velocity": 0.4881889763779528,
                    "duration": 0.64285725000002
                },
                {
                    "name": "E3",
                    "midi": 52,
                    "time": 389.571493499994,
                    "velocity": 0.5826771653543307,
                    "duration": 0.64285725000002
                },
                {
                    "name": "D3",
                    "midi": 50,
                    "time": 391.07149374999403,
                    "velocity": 0.25196850393700787,
                    "duration": 0.21428574999998773
                },
                {
                    "name": "A3",
                    "midi": 57,
                    "time": 391.285779499994,
                    "velocity": 0.2755905511811024,
                    "duration": 0.21428574999998773
                },
                {
                    "name": "D3",
                    "midi": 50,
                    "time": 391.500065249994,
                    "velocity": 0.25196850393700787,
                    "duration": 0.5892858125000089
                },
                {
                    "name": "A3",
                    "midi": 57,
                    "time": 391.714350999994,
                    "velocity": 0.28346456692913385,
                    "duration": 0.37500006250002116
                },
                {
                    "name": "A3",
                    "midi": 57,
                    "time": 392.14292249999403,
                    "velocity": 0.29133858267716534,
                    "duration": 1.2857144999999832
                },
                {
                    "name": "D3",
                    "midi": 50,
                    "time": 392.14292249999403,
                    "velocity": 0.2440944881889764,
                    "duration": 1.2857144999999832
                },
                {
                    "name": "D3",
                    "midi": 50,
                    "time": 393.642922749994,
                    "velocity": 0.25196850393700787,
                    "duration": 0.21428574999998773
                },
                {
                    "name": "A3",
                    "midi": 57,
                    "time": 393.857208499994,
                    "velocity": 0.2755905511811024,
                    "duration": 0.21428574999998773
                },
                {
                    "name": "D3",
                    "midi": 50,
                    "time": 394.071494249994,
                    "velocity": 0.25196850393700787,
                    "duration": 0.5892858125000089
                },
                {
                    "name": "A3",
                    "midi": 57,
                    "time": 394.28577999999396,
                    "velocity": 0.28346456692913385,
                    "duration": 0.37500006250002116
                },
                {
                    "name": "A3",
                    "midi": 57,
                    "time": 394.714351499994,
                    "velocity": 0.2992125984251969,
                    "duration": 1.2857144999999832
                },
                {
                    "name": "D3",
                    "midi": 50,
                    "time": 394.714351499994,
                    "velocity": 0.2440944881889764,
                    "duration": 0.64285725000002
                },
                {
                    "name": "C#3",
                    "midi": 49,
                    "time": 395.357208749994,
                    "velocity": 0.25196850393700787,
                    "duration": 0.21428574999998773
                },
                {
                    "name": "B2",
                    "midi": 47,
                    "time": 395.571494499994,
                    "velocity": 0.2755905511811024,
                    "duration": 0.21428574999998773
                },
                {
                    "name": "A2",
                    "midi": 45,
                    "time": 395.785780249994,
                    "velocity": 0.30708661417322836,
                    "duration": 0.21428574999998773
                },
                {
                    "name": "G2",
                    "midi": 43,
                    "time": 396.21435174999397,
                    "velocity": 0.28346456692913385,
                    "duration": 0.21428574999998773
                },
                {
                    "name": "D3",
                    "midi": 50,
                    "time": 396.42863749999395,
                    "velocity": 0.31496062992125984,
                    "duration": 0.21428574999998773
                },
                {
                    "name": "G2",
                    "midi": 43,
                    "time": 396.64292324999394,
                    "velocity": 0.28346456692913385,
                    "duration": 0.5892858125000089
                },
                {
                    "name": "D3",
                    "midi": 50,
                    "time": 396.85720899999393,
                    "velocity": 0.3228346456692913,
                    "duration": 0.37500006250002116
                },
                {
                    "name": "D3",
                    "midi": 50,
                    "time": 397.28578049999396,
                    "velocity": 0.33070866141732286,
                    "duration": 1.2857144999999832
                },
                {
                    "name": "G2",
                    "midi": 43,
                    "time": 397.28578049999396,
                    "velocity": 0.2755905511811024,
                    "duration": 1.2857144999999832
                },
                {
                    "name": "G2",
                    "midi": 43,
                    "time": 398.78578074999393,
                    "velocity": 0.28346456692913385,
                    "duration": 0.21428574999998773
                },
                {
                    "name": "D3",
                    "midi": 50,
                    "time": 399.0000664999939,
                    "velocity": 0.31496062992125984,
                    "duration": 0.21428574999998773
                },
                {
                    "name": "G2",
                    "midi": 43,
                    "time": 399.2143522499939,
                    "velocity": 0.28346456692913385,
                    "duration": 0.5892858125000089
                },
                {
                    "name": "D3",
                    "midi": 50,
                    "time": 399.4286379999939,
                    "velocity": 0.3228346456692913,
                    "duration": 0.37500006250002116
                },
                {
                    "name": "D3",
                    "midi": 50,
                    "time": 399.8572094999939,
                    "velocity": 0.33070866141732286,
                    "duration": 1.0714287499999955
                },
                {
                    "name": "G2",
                    "midi": 43,
                    "time": 399.8572094999939,
                    "velocity": 0.2755905511811024,
                    "duration": 1.0678573208333546
                },
                {
                    "name": "G2",
                    "midi": 43,
                    "time": 400.9286382499939,
                    "velocity": 0.2440944881889764,
                    "duration": 0.21428574999998773
                },
                {
                    "name": "E3",
                    "midi": 52,
                    "time": 400.9286382499939,
                    "velocity": 0.30708661417322836,
                    "duration": 0.21428574999998773
                },
                {
                    "name": "G2",
                    "midi": 43,
                    "time": 401.3572097499939,
                    "velocity": 0.28346456692913385,
                    "duration": 0.21428574999998773
                },
                {
                    "name": "E3",
                    "midi": 52,
                    "time": 401.5714954999939,
                    "velocity": 0.31496062992125984,
                    "duration": 0.21428574999998773
                },
                {
                    "name": "G2",
                    "midi": 43,
                    "time": 401.7857812499939,
                    "velocity": 0.28346456692913385,
                    "duration": 0.5892858125000089
                },
                {
                    "name": "E3",
                    "midi": 52,
                    "time": 402.00006699999386,
                    "velocity": 0.3228346456692913,
                    "duration": 0.37500006250002116
                },
                {
                    "name": "E3",
                    "midi": 52,
                    "time": 402.4286384999939,
                    "velocity": 0.33070866141732286,
                    "duration": 0.8571430000000078
                },
                {
                    "name": "G2",
                    "midi": 43,
                    "time": 402.4286384999939,
                    "velocity": 0.2755905511811024,
                    "duration": 0.8571430000000078
                },
                {
                    "name": "G3",
                    "midi": 55,
                    "time": 403.2857814999939,
                    "velocity": 0.2755905511811024,
                    "duration": 0.42857149999997546
                },
                {
                    "name": "E4",
                    "midi": 64,
                    "time": 403.2857814999939,
                    "velocity": 0.33070866141732286,
                    "duration": 0.42857149999997546
                },
                {
                    "name": "F#3",
                    "midi": 54,
                    "time": 403.92863874999387,
                    "velocity": 0.28346456692913385,
                    "duration": 0.21428574999998773
                },
                {
                    "name": "E4",
                    "midi": 64,
                    "time": 404.14292449999385,
                    "velocity": 0.31496062992125984,
                    "duration": 0.21428574999998773
                },
                {
                    "name": "F#3",
                    "midi": 54,
                    "time": 404.35721024999384,
                    "velocity": 0.28346456692913385,
                    "duration": 0.5892858125000089
                },
                {
                    "name": "E4",
                    "midi": 64,
                    "time": 404.57149599999383,
                    "velocity": 0.3228346456692913,
                    "duration": 0.37500006250002116
                },
                {
                    "name": "E4",
                    "midi": 64,
                    "time": 405.00006749999386,
                    "velocity": 0.33070866141732286,
                    "duration": 0.8571430000000078
                },
                {
                    "name": "F#3",
                    "midi": 54,
                    "time": 405.00006749999386,
                    "velocity": 0.2755905511811024,
                    "duration": 0.8571430000000078
                },
                {
                    "name": "G3",
                    "midi": 55,
                    "time": 405.85721049999387,
                    "velocity": 0.2755905511811024,
                    "duration": 0.42857149999997546
                },
                {
                    "name": "E4",
                    "midi": 64,
                    "time": 405.85721049999387,
                    "velocity": 0.33070866141732286,
                    "duration": 0.42857149999997546
                },
                {
                    "name": "F#3",
                    "midi": 54,
                    "time": 406.50006774999383,
                    "velocity": 0.28346456692913385,
                    "duration": 0.21428574999998773
                },
                {
                    "name": "E4",
                    "midi": 64,
                    "time": 406.7143534999938,
                    "velocity": 0.31496062992125984,
                    "duration": 0.21428574999998773
                },
                {
                    "name": "F#3",
                    "midi": 54,
                    "time": 406.9286392499938,
                    "velocity": 0.28346456692913385,
                    "duration": 0.5892858125000089
                },
                {
                    "name": "E4",
                    "midi": 64,
                    "time": 407.1429249999938,
                    "velocity": 0.3228346456692913,
                    "duration": 0.37500006250002116
                },
                {
                    "name": "E4",
                    "midi": 64,
                    "time": 407.5714964999938,
                    "velocity": 0.33070866141732286,
                    "duration": 0.8571430000000078
                },
                {
                    "name": "F#3",
                    "midi": 54,
                    "time": 407.5714964999938,
                    "velocity": 0.2755905511811024,
                    "duration": 0.8571430000000078
                },
                {
                    "name": "F#3",
                    "midi": 54,
                    "time": 408.42863949999384,
                    "velocity": 0.2755905511811024,
                    "duration": 0.38571435000000065
                },
                {
                    "name": "E4",
                    "midi": 64,
                    "time": 408.42863949999384,
                    "velocity": 0.33070866141732286,
                    "duration": 0.38571435000000065
                },
                {
                    "name": "B2",
                    "midi": 47,
                    "time": 409.07149674999386,
                    "velocity": 0.28346456692913385,
                    "duration": 0.21428574999998773
                },
                {
                    "name": "D#4",
                    "midi": 63,
                    "time": 409.28578249999384,
                    "velocity": 0.30708661417322836,
                    "duration": 0.21428574999998773
                },
                {
                    "name": "B2",
                    "midi": 47,
                    "time": 409.50006824999383,
                    "velocity": 0.2755905511811024,
                    "duration": 0.5892858125000089
                },
                {
                    "name": "D#4",
                    "midi": 63,
                    "time": 409.7143539999938,
                    "velocity": 0.30708661417322836,
                    "duration": 0.37500006250002116
                },
                {
                    "name": "D#4",
                    "midi": 63,
                    "time": 410.14292549999385,
                    "velocity": 0.30708661417322836,
                    "duration": 0.8392858541666897
                },
                {
                    "name": "B2",
                    "midi": 47,
                    "time": 410.14292549999385,
                    "velocity": 0.25984251968503935,
                    "duration": 0.8392858541666897
                },
                {
                    "name": "B2",
                    "midi": 47,
                    "time": 411.00006849999386,
                    "velocity": 0.25196850393700787,
                    "duration": 0.38571435000000065
                },
                {
                    "name": "D#4",
                    "midi": 63,
                    "time": 411.00006849999386,
                    "velocity": 0.2992125984251969,
                    "duration": 0.38571435000000065
                },
                {
                    "name": "E3",
                    "midi": 52,
                    "time": 411.6429257499939,
                    "velocity": 0.25196850393700787,
                    "duration": 0.21428574999998773
                },
                {
                    "name": "D4",
                    "midi": 62,
                    "time": 411.85721149999387,
                    "velocity": 0.2755905511811024,
                    "duration": 0.21428574999998773
                },
                {
                    "name": "E3",
                    "midi": 52,
                    "time": 412.07149724999385,
                    "velocity": 0.2440944881889764,
                    "duration": 0.5892858125000089
                },
                {
                    "name": "D4",
                    "midi": 62,
                    "time": 412.28578299999384,
                    "velocity": 0.2755905511811024,
                    "duration": 0.37500006250002116
                },
                {
                    "name": "D4",
                    "midi": 62,
                    "time": 412.7143544999939,
                    "velocity": 0.28346456692913385,
                    "duration": 0.8571430000000078
                },
                {
                    "name": "E3",
                    "midi": 52,
                    "time": 412.7143544999939,
                    "velocity": 0.23622047244094488,
                    "duration": 0.8571430000000078
                },
                {
                    "name": "F3",
                    "midi": 53,
                    "time": 413.5714974999939,
                    "velocity": 0.2204724409448819,
                    "duration": 0.42857149999997546
                },
                {
                    "name": "D4",
                    "midi": 62,
                    "time": 413.5714974999939,
                    "velocity": 0.2677165354330709,
                    "duration": 0.42857149999997546
                },
                {
                    "name": "E3",
                    "midi": 52,
                    "time": 414.21435474999384,
                    "velocity": 0.2204724409448819,
                    "duration": 0.21428574999998773
                },
                {
                    "name": "D4",
                    "midi": 62,
                    "time": 414.42864049999383,
                    "velocity": 0.25196850393700787,
                    "duration": 0.21428574999998773
                },
                {
                    "name": "E3",
                    "midi": 52,
                    "time": 414.6429262499938,
                    "velocity": 0.2204724409448819,
                    "duration": 0.5892858125000089
                },
                {
                    "name": "D4",
                    "midi": 62,
                    "time": 414.8572119999938,
                    "velocity": 0.25196850393700787,
                    "duration": 0.37500006250002116
                },
                {
                    "name": "D4",
                    "midi": 62,
                    "time": 415.28578349999384,
                    "velocity": 0.25984251968503935,
                    "duration": 0.8571430000000078
                },
                {
                    "name": "E3",
                    "midi": 52,
                    "time": 415.28578349999384,
                    "velocity": 0.2204724409448819,
                    "duration": 0.8571430000000078
                },
                {
                    "name": "F3",
                    "midi": 53,
                    "time": 416.14292649999385,
                    "velocity": 0.2204724409448819,
                    "duration": 0.42857149999997546
                },
                {
                    "name": "D4",
                    "midi": 62,
                    "time": 416.14292649999385,
                    "velocity": 0.25984251968503935,
                    "duration": 0.42857149999997546
                },
                {
                    "name": "E3",
                    "midi": 52,
                    "time": 416.7857837499938,
                    "velocity": 0.2204724409448819,
                    "duration": 0.21428574999998773
                },
                {
                    "name": "D4",
                    "midi": 62,
                    "time": 417.0000694999938,
                    "velocity": 0.2440944881889764,
                    "duration": 0.21428574999998773
                },
                {
                    "name": "E3",
                    "midi": 52,
                    "time": 417.2143552499938,
                    "velocity": 0.2204724409448819,
                    "duration": 0.5892858125000089
                },
                {
                    "name": "D4",
                    "midi": 62,
                    "time": 417.4286409999938,
                    "velocity": 0.2440944881889764,
                    "duration": 0.37500006250002116
                },
                {
                    "name": "E3",
                    "midi": 52,
                    "time": 417.8572124999938,
                    "velocity": 0.2440944881889764,
                    "duration": 0.20714289166664912
                },
                {
                    "name": "D4",
                    "midi": 62,
                    "time": 417.8572124999938,
                    "velocity": 0.2755905511811024,
                    "duration": 0.21428574999998773
                },
                {
                    "name": "E3",
                    "midi": 52,
                    "time": 418.7143554999938,
                    "velocity": 0.5196850393700787,
                    "duration": 0.21428574999998773
                },
                {
                    "name": "G#3",
                    "midi": 56,
                    "time": 418.9286412499938,
                    "velocity": 0.48031496062992124,
                    "duration": 0.21428574999998773
                },
                {
                    "name": "A3",
                    "midi": 57,
                    "time": 419.1429269999938,
                    "velocity": 0.5196850393700787,
                    "duration": 0.21428574999998773
                },
                {
                    "name": "A2",
                    "midi": 45,
                    "time": 419.3572127499938,
                    "velocity": 0.6062992125984252,
                    "duration": 0.42857149999997546
                },
                {
                    "name": "A1",
                    "midi": 33,
                    "time": 419.78578424999375,
                    "velocity": 0.4645669291338583,
                    "duration": 0.21428574999998773
                },
                {
                    "name": "A2",
                    "midi": 45,
                    "time": 420.00006999999374,
                    "velocity": 0.5118110236220472,
                    "duration": 0.21428574999998773
                },
                {
                    "name": "E3",
                    "midi": 52,
                    "time": 420.4286414999937,
                    "velocity": 0.5748031496062992,
                    "duration": 0.21428574999998773
                },
                {
                    "name": "G#3",
                    "midi": 56,
                    "time": 420.6429272499937,
                    "velocity": 0.49606299212598426,
                    "duration": 0.21428574999998773
                },
                {
                    "name": "F#3",
                    "midi": 54,
                    "time": 420.8572129999937,
                    "velocity": 0.5118110236220472,
                    "duration": 0.21428574999998773
                },
                {
                    "name": "C#3",
                    "midi": 49,
                    "time": 421.28578449999367,
                    "velocity": 0.5590551181102362,
                    "duration": 0.21428574999998773
                },
                {
                    "name": "E3",
                    "midi": 52,
                    "time": 421.50007024999366,
                    "velocity": 0.5118110236220472,
                    "duration": 0.21428574999998773
                },
                {
                    "name": "D3",
                    "midi": 50,
                    "time": 421.71435599999364,
                    "velocity": 0.5118110236220472,
                    "duration": 0.21428574999998773
                },
                {
                    "name": "D2",
                    "midi": 38,
                    "time": 421.92864174999363,
                    "velocity": 0.5826771653543307,
                    "duration": 0.42857149999997546
                },
                {
                    "name": "A1",
                    "midi": 33,
                    "time": 422.3572132499936,
                    "velocity": 0.5118110236220472,
                    "duration": 0.21428574999998773
                },
                {
                    "name": "D2",
                    "midi": 38,
                    "time": 422.5714989999936,
                    "velocity": 0.5118110236220472,
                    "duration": 0.21428574999998773
                },
                {
                    "name": "F#2",
                    "midi": 42,
                    "time": 422.7857847499936,
                    "velocity": 0.4566929133858268,
                    "duration": 0.21428574999998773
                },
                {
                    "name": "D2",
                    "midi": 38,
                    "time": 423.00007049999357,
                    "velocity": 0.48031496062992124,
                    "duration": 0.21428574999998773
                },
                {
                    "name": "C#2",
                    "midi": 37,
                    "time": 423.21435624999356,
                    "velocity": 0.5039370078740157,
                    "duration": 0.21428574999998773
                },
                {
                    "name": "B1",
                    "midi": 35,
                    "time": 423.42864199999354,
                    "velocity": 0.5354330708661418,
                    "duration": 0.21428574999998773
                },
                {
                    "name": "F#3",
                    "midi": 54,
                    "time": 423.8572134999935,
                    "velocity": 0.5196850393700787,
                    "duration": 0.21428574999998773
                },
                {
                    "name": "A#3",
                    "midi": 58,
                    "time": 424.0714992499935,
                    "velocity": 0.48031496062992124,
                    "duration": 0.21428574999998773
                },
                {
                    "name": "B3",
                    "midi": 59,
                    "time": 424.2857849999935,
                    "velocity": 0.5196850393700787,
                    "duration": 0.21428574999998773
                },
                {
                    "name": "B2",
                    "midi": 47,
                    "time": 424.5000707499935,
                    "velocity": 0.6062992125984252,
                    "duration": 0.42857149999997546
                },
                {
                    "name": "B1",
                    "midi": 35,
                    "time": 424.92864224999346,
                    "velocity": 0.4645669291338583,
                    "duration": 0.21428574999998773
                },
                {
                    "name": "B2",
                    "midi": 47,
                    "time": 425.14292799999345,
                    "velocity": 0.5118110236220472,
                    "duration": 0.21428574999998773
                },
                {
                    "name": "F#3",
                    "midi": 54,
                    "time": 425.5714994999934,
                    "velocity": 0.5748031496062992,
                    "duration": 0.21428574999998773
                },
                {
                    "name": "A3",
                    "midi": 57,
                    "time": 425.7857852499934,
                    "velocity": 0.49606299212598426,
                    "duration": 0.21428574999998773
                },
                {
                    "name": "G3",
                    "midi": 55,
                    "time": 426.0000709999934,
                    "velocity": 0.5118110236220472,
                    "duration": 0.21428574999998773
                },
                {
                    "name": "D#3",
                    "midi": 51,
                    "time": 426.4286424999934,
                    "velocity": 0.5590551181102362,
                    "duration": 0.21428574999998773
                },
                {
                    "name": "F#3",
                    "midi": 54,
                    "time": 426.64292824999336,
                    "velocity": 0.5118110236220472,
                    "duration": 0.21428574999998773
                },
                {
                    "name": "E3",
                    "midi": 52,
                    "time": 426.85721399999335,
                    "velocity": 0.5118110236220472,
                    "duration": 0.21428574999998773
                },
                {
                    "name": "E2",
                    "midi": 40,
                    "time": 427.07149974999334,
                    "velocity": 0.5826771653543307,
                    "duration": 0.42857149999997546
                },
                {
                    "name": "B1",
                    "midi": 35,
                    "time": 427.5000712499933,
                    "velocity": 0.5118110236220472,
                    "duration": 0.21428574999998773
                },
                {
                    "name": "E2",
                    "midi": 40,
                    "time": 427.7143569999933,
                    "velocity": 0.5118110236220472,
                    "duration": 0.41071435416665736
                },
                {
                    "name": "E2",
                    "midi": 40,
                    "time": 427.9286427499933,
                    "velocity": 0.5748031496062992,
                    "duration": 0.41071435416665736
                },
                {
                    "name": "E3",
                    "midi": 52,
                    "time": 427.9286427499933,
                    "velocity": 0.5748031496062992,
                    "duration": 0.41071435416665736
                },
                {
                    "name": "F#2",
                    "midi": 42,
                    "time": 428.35721424999326,
                    "velocity": 0.47244094488188976,
                    "duration": 0.21428574999998773
                },
                {
                    "name": "E3",
                    "midi": 52,
                    "time": 428.35721424999326,
                    "velocity": 0.4566929133858268,
                    "duration": 0.21071432083334685
                },
                {
                    "name": "F#3",
                    "midi": 54,
                    "time": 428.35721424999326,
                    "velocity": 0.5039370078740157,
                    "duration": 0.21428574999998773
                },
                {
                    "name": "E3",
                    "midi": 52,
                    "time": 428.57149999999325,
                    "velocity": 0.47244094488188976,
                    "duration": 0.21428574999998773
                },
                {
                    "name": "G2",
                    "midi": 43,
                    "time": 428.57149999999325,
                    "velocity": 0.4566929133858268,
                    "duration": 0.21428574999998773
                },
                {
                    "name": "G3",
                    "midi": 55,
                    "time": 428.57149999999325,
                    "velocity": 0.5354330708661418,
                    "duration": 0.21428574999998773
                },
                {
                    "name": "E3",
                    "midi": 52,
                    "time": 428.78578574999324,
                    "velocity": 0.5118110236220472,
                    "duration": 0.42857149999997546
                },
                {
                    "name": "A3",
                    "midi": 57,
                    "time": 428.78578574999324,
                    "velocity": 0.5748031496062992,
                    "duration": 0.41071435416665736
                },
                {
                    "name": "A2",
                    "midi": 45,
                    "time": 428.78578574999324,
                    "velocity": 0.5118110236220472,
                    "duration": 0.42857149999997546
                },
                {
                    "name": "G3",
                    "midi": 55,
                    "time": 429.2143572499932,
                    "velocity": 0.5511811023622047,
                    "duration": 0.21428574999998773
                },
                {
                    "name": "B2",
                    "midi": 47,
                    "time": 429.2143572499932,
                    "velocity": 0.5511811023622047,
                    "duration": 0.21428574999998773
                },
                {
                    "name": "B3",
                    "midi": 59,
                    "time": 429.2143572499932,
                    "velocity": 0.5669291338582677,
                    "duration": 0.21428574999998773
                },
                {
                    "name": "C3",
                    "midi": 48,
                    "time": 429.4286429999932,
                    "velocity": 0.49606299212598426,
                    "duration": 0.21428574999998773
                },
                {
                    "name": "G3",
                    "midi": 55,
                    "time": 429.4286429999932,
                    "velocity": 0.49606299212598426,
                    "duration": 0.21428574999998773
                },
                {
                    "name": "C4",
                    "midi": 60,
                    "time": 429.4286429999932,
                    "velocity": 0.5826771653543307,
                    "duration": 0.21428574999998773
                },
                {
                    "name": "C3",
                    "midi": 48,
                    "time": 429.8572144999932,
                    "velocity": 0.5590551181102362,
                    "duration": 0.6357143916666814
                },
                {
                    "name": "G3",
                    "midi": 55,
                    "time": 429.8572144999932,
                    "velocity": 0.5590551181102362,
                    "duration": 0.6357143916666814
                },
                {
                    "name": "C4",
                    "midi": 60,
                    "time": 429.8572144999932,
                    "velocity": 0.6692913385826772,
                    "duration": 0.6357143916666814
                },
                {
                    "name": "E4",
                    "midi": 64,
                    "time": 430.5000717499932,
                    "velocity": 0.6377952755905512,
                    "duration": 0.21428574999998773
                },
                {
                    "name": "E3",
                    "midi": 52,
                    "time": 430.5000717499932,
                    "velocity": 0.5433070866141733,
                    "duration": 0.21428574999998773
                },
                {
                    "name": "G4",
                    "midi": 67,
                    "time": 430.7143574999932,
                    "velocity": 0.6692913385826772,
                    "duration": 0.21428574999998773
                },
                {
                    "name": "G3",
                    "midi": 55,
                    "time": 430.7143574999932,
                    "velocity": 0.5590551181102362,
                    "duration": 0.21428574999998773
                },
                {
                    "name": "E4",
                    "midi": 64,
                    "time": 430.9286432499932,
                    "velocity": 0.6299212598425197,
                    "duration": 0.21428574999998773
                },
                {
                    "name": "E3",
                    "midi": 52,
                    "time": 430.9286432499932,
                    "velocity": 0.5275590551181102,
                    "duration": 0.21428574999998773
                },
                {
                    "name": "C3",
                    "midi": 48,
                    "time": 431.14292899999316,
                    "velocity": 0.5590551181102362,
                    "duration": 0.21428574999998773
                },
                {
                    "name": "C4",
                    "midi": 60,
                    "time": 431.14292899999316,
                    "velocity": 0.6692913385826772,
                    "duration": 0.21428574999998773
                },
                {
                    "name": "B2",
                    "midi": 47,
                    "time": 431.35721474999315,
                    "velocity": 0.5196850393700787,
                    "duration": 0.21428574999998773
                },
                {
                    "name": "B3",
                    "midi": 59,
                    "time": 431.35721474999315,
                    "velocity": 0.6141732283464567,
                    "duration": 0.21428574999998773
                },
                {
                    "name": "A2",
                    "midi": 45,
                    "time": 431.57150049999314,
                    "velocity": 0.5433070866141733,
                    "duration": 0.21428574999998773
                },
                {
                    "name": "A3",
                    "midi": 57,
                    "time": 431.57150049999314,
                    "velocity": 0.6377952755905512,
                    "duration": 0.21428574999998773
                },
                {
                    "name": "G2",
                    "midi": 43,
                    "time": 431.7857862499931,
                    "velocity": 0.5433070866141733,
                    "duration": 0.21428574999998773
                },
                {
                    "name": "G3",
                    "midi": 55,
                    "time": 431.7857862499931,
                    "velocity": 0.6377952755905512,
                    "duration": 0.21428574999998773
                },
                {
                    "name": "F2",
                    "midi": 41,
                    "time": 432.0000719999931,
                    "velocity": 0.49606299212598426,
                    "duration": 0.21428574999998773
                },
                {
                    "name": "C3",
                    "midi": 48,
                    "time": 432.0000719999931,
                    "velocity": 0.49606299212598426,
                    "duration": 0.21428574999998773
                },
                {
                    "name": "F3",
                    "midi": 53,
                    "time": 432.0000719999931,
                    "velocity": 0.5826771653543307,
                    "duration": 0.21428574999998773
                },
                {
                    "name": "F2",
                    "midi": 41,
                    "time": 432.4286434999931,
                    "velocity": 0.5275590551181102,
                    "duration": 0.6357143916666814
                },
                {
                    "name": "C3",
                    "midi": 48,
                    "time": 432.4286434999931,
                    "velocity": 0.5275590551181102,
                    "duration": 0.6357143916666814
                },
                {
                    "name": "F3",
                    "midi": 53,
                    "time": 432.4286434999931,
                    "velocity": 0.6299212598425197,
                    "duration": 0.6357143916666814
                },
                {
                    "name": "C3",
                    "midi": 48,
                    "time": 433.0715007499931,
                    "velocity": 0.5984251968503937,
                    "duration": 0.21428574999998773
                },
                {
                    "name": "F2",
                    "midi": 41,
                    "time": 433.0715007499931,
                    "velocity": 0.4330708661417323,
                    "duration": 0.42857149999997546
                },
                {
                    "name": "F3",
                    "midi": 53,
                    "time": 433.2857864999931,
                    "velocity": 0.6377952755905512,
                    "duration": 0.21428574999998773
                },
                {
                    "name": "C3",
                    "midi": 48,
                    "time": 433.5000722499931,
                    "velocity": 0.49606299212598426,
                    "duration": 0.19642860416666963
                },
                {
                    "name": "G3",
                    "midi": 55,
                    "time": 433.5000722499931,
                    "velocity": 0.5984251968503937,
                    "duration": 0.21428574999998773
                },
                {
                    "name": "G2",
                    "midi": 43,
                    "time": 433.5000722499931,
                    "velocity": 0.49606299212598426,
                    "duration": 0.19642860416666963
                },
                {
                    "name": "F2",
                    "midi": 41,
                    "time": 433.71435799999307,
                    "velocity": 0.5275590551181102,
                    "duration": 0.20357146250000824
                },
                {
                    "name": "C3",
                    "midi": 48,
                    "time": 433.71435799999307,
                    "velocity": 0.5275590551181102,
                    "duration": 0.20357146250000824
                },
                {
                    "name": "F3",
                    "midi": 53,
                    "time": 433.71435799999307,
                    "velocity": 0.6299212598425197,
                    "duration": 0.20357146250000824
                },
                {
                    "name": "F2",
                    "midi": 41,
                    "time": 433.92864374999306,
                    "velocity": 0.5118110236220472,
                    "duration": 0.42857149999997546
                },
                {
                    "name": "C3",
                    "midi": 48,
                    "time": 433.92864374999306,
                    "velocity": 0.5984251968503937,
                    "duration": 0.21428574999998773
                },
                {
                    "name": "F3",
                    "midi": 53,
                    "time": 434.14292949999304,
                    "velocity": 0.5984251968503937,
                    "duration": 0.21428574999998773
                },
                {
                    "name": "D#2",
                    "midi": 39,
                    "time": 434.35721524999303,
                    "velocity": 0.5433070866141733,
                    "duration": 0.21428574999998773
                },
                {
                    "name": "D#3",
                    "midi": 51,
                    "time": 434.35721524999303,
                    "velocity": 0.6377952755905512,
                    "duration": 0.21428574999998773
                },
                {
                    "name": "D2",
                    "midi": 38,
                    "time": 434.571500999993,
                    "velocity": 0.49606299212598426,
                    "duration": 0.21428574999998773
                },
                {
                    "name": "D3",
                    "midi": 50,
                    "time": 434.571500999993,
                    "velocity": 0.5826771653543307,
                    "duration": 0.21428574999998773
                },
                {
                    "name": "D2",
                    "midi": 38,
                    "time": 435.000072499993,
                    "velocity": 0.5590551181102362,
                    "duration": 0.64285725000002
                },
                {
                    "name": "D3",
                    "midi": 50,
                    "time": 435.000072499993,
                    "velocity": 0.6692913385826772,
                    "duration": 0.64285725000002
                },
                {
                    "name": "F#4",
                    "midi": 66,
                    "time": 435.642929749993,
                    "velocity": 0.6377952755905512,
                    "duration": 0.21428574999998773
                },
                {
                    "name": "F#3",
                    "midi": 54,
                    "time": 435.642929749993,
                    "velocity": 0.5433070866141733,
                    "duration": 0.21428574999998773
                },
                {
                    "name": "A4",
                    "midi": 69,
                    "time": 435.857215499993,
                    "velocity": 0.6692913385826772,
                    "duration": 0.21428574999998773
                },
                {
                    "name": "A3",
                    "midi": 57,
                    "time": 435.857215499993,
                    "velocity": 0.5590551181102362,
                    "duration": 0.21428574999998773
                },
                {
                    "name": "F#4",
                    "midi": 66,
                    "time": 436.071501249993,
                    "velocity": 0.6299212598425197,
                    "duration": 0.21428574999998773
                },
                {
                    "name": "F#3",
                    "midi": 54,
                    "time": 436.071501249993,
                    "velocity": 0.5275590551181102,
                    "duration": 0.21428574999998773
                },
                {
                    "name": "D3",
                    "midi": 50,
                    "time": 436.285786999993,
                    "velocity": 0.5590551181102362,
                    "duration": 0.21428574999998773
                },
                {
                    "name": "D4",
                    "midi": 62,
                    "time": 436.285786999993,
                    "velocity": 0.6692913385826772,
                    "duration": 0.21428574999998773
                },
                {
                    "name": "C#3",
                    "midi": 49,
                    "time": 436.50007274999297,
                    "velocity": 0.5196850393700787,
                    "duration": 0.21428574999998773
                },
                {
                    "name": "C#4",
                    "midi": 61,
                    "time": 436.50007274999297,
                    "velocity": 0.6141732283464567,
                    "duration": 0.21428574999998773
                },
                {
                    "name": "B2",
                    "midi": 47,
                    "time": 436.71435849999295,
                    "velocity": 0.5433070866141733,
                    "duration": 0.21428574999998773
                },
                {
                    "name": "B3",
                    "midi": 59,
                    "time": 436.71435849999295,
                    "velocity": 0.6377952755905512,
                    "duration": 0.21428574999998773
                },
                {
                    "name": "A2",
                    "midi": 45,
                    "time": 436.92864424999294,
                    "velocity": 0.5196850393700787,
                    "duration": 0.21428574999998773
                },
                {
                    "name": "A3",
                    "midi": 57,
                    "time": 436.92864424999294,
                    "velocity": 0.6141732283464567,
                    "duration": 0.21428574999998773
                },
                {
                    "name": "D3",
                    "midi": 50,
                    "time": 437.14292999999293,
                    "velocity": 0.49606299212598426,
                    "duration": 0.21428574999998773
                },
                {
                    "name": "G2",
                    "midi": 43,
                    "time": 437.14292999999293,
                    "velocity": 0.49606299212598426,
                    "duration": 0.21428574999998773
                },
                {
                    "name": "G3",
                    "midi": 55,
                    "time": 437.14292999999293,
                    "velocity": 0.5826771653543307,
                    "duration": 0.21428574999998773
                },
                {
                    "name": "G2",
                    "midi": 43,
                    "time": 437.5715014999929,
                    "velocity": 0.5590551181102362,
                    "duration": 0.6357143916666814
                },
                {
                    "name": "D3",
                    "midi": 50,
                    "time": 437.5715014999929,
                    "velocity": 0.5590551181102362,
                    "duration": 0.6375001062500019
                },
                {
                    "name": "G3",
                    "midi": 55,
                    "time": 437.5715014999929,
                    "velocity": 0.6692913385826772,
                    "duration": 0.6357143916666814
                },
                {
                    "name": "G2",
                    "midi": 43,
                    "time": 438.2143587499929,
                    "velocity": 0.41732283464566927,
                    "duration": 0.41071435416665736
                },
                {
                    "name": "D3",
                    "midi": 50,
                    "time": 438.2143587499929,
                    "velocity": 0.41732283464566927,
                    "duration": 0.41071435416665736
                },
                {
                    "name": "G3",
                    "midi": 55,
                    "time": 438.2143587499929,
                    "velocity": 0.5826771653543307,
                    "duration": 0.41071435416665736
                },
                {
                    "name": "A2",
                    "midi": 45,
                    "time": 438.6429302499929,
                    "velocity": 0.5354330708661418,
                    "duration": 0.21428574999998773
                },
                {
                    "name": "D3",
                    "midi": 50,
                    "time": 438.6429302499929,
                    "velocity": 0.5354330708661418,
                    "duration": 0.21428574999998773
                },
                {
                    "name": "A3",
                    "midi": 57,
                    "time": 438.6429302499929,
                    "velocity": 0.6299212598425197,
                    "duration": 0.21428574999998773
                },
                {
                    "name": "G2",
                    "midi": 43,
                    "time": 438.8572159999929,
                    "velocity": 0.47244094488188976,
                    "duration": 0.20357146250000824
                },
                {
                    "name": "D3",
                    "midi": 50,
                    "time": 438.8572159999929,
                    "velocity": 0.47244094488188976,
                    "duration": 0.20357146250000824
                },
                {
                    "name": "G3",
                    "midi": 55,
                    "time": 438.8572159999929,
                    "velocity": 0.6692913385826772,
                    "duration": 0.20357146250000824
                },
                {
                    "name": "D3",
                    "midi": 50,
                    "time": 439.0715017499929,
                    "velocity": 0.4566929133858268,
                    "duration": 0.42857149999997546
                },
                {
                    "name": "G2",
                    "midi": 43,
                    "time": 439.0715017499929,
                    "velocity": 0.4566929133858268,
                    "duration": 0.42857149999997546
                },
                {
                    "name": "G3",
                    "midi": 55,
                    "time": 439.0715017499929,
                    "velocity": 0.6377952755905512,
                    "duration": 0.42857149999997546
                },
                {
                    "name": "F2",
                    "midi": 41,
                    "time": 439.50007324999285,
                    "velocity": 0.5433070866141733,
                    "duration": 0.21428574999998773
                },
                {
                    "name": "F3",
                    "midi": 53,
                    "time": 439.50007324999285,
                    "velocity": 0.6377952755905512,
                    "duration": 0.21428574999998773
                },
                {
                    "name": "E2",
                    "midi": 40,
                    "time": 439.71435899999284,
                    "velocity": 0.49606299212598426,
                    "duration": 0.21428574999998773
                },
                {
                    "name": "E3",
                    "midi": 52,
                    "time": 439.71435899999284,
                    "velocity": 0.5826771653543307,
                    "duration": 0.21428574999998773
                },
                {
                    "name": "E2",
                    "midi": 40,
                    "time": 440.1429304999928,
                    "velocity": 0.5590551181102362,
                    "duration": 0.64285725000002
                },
                {
                    "name": "E3",
                    "midi": 52,
                    "time": 440.1429304999928,
                    "velocity": 0.6692913385826772,
                    "duration": 0.64285725000002
                },
                {
                    "name": "E4",
                    "midi": 64,
                    "time": 440.78578774999283,
                    "velocity": 0.6377952755905512,
                    "duration": 0.21428574999998773
                },
                {
                    "name": "G#3",
                    "midi": 56,
                    "time": 440.78578774999283,
                    "velocity": 0.5433070866141733,
                    "duration": 0.21428574999998773
                },
                {
                    "name": "B4",
                    "midi": 71,
                    "time": 441.0000734999928,
                    "velocity": 0.6692913385826772,
                    "duration": 0.21428574999998773
                },
                {
                    "name": "B3",
                    "midi": 59,
                    "time": 441.0000734999928,
                    "velocity": 0.5590551181102362,
                    "duration": 0.21428574999998773
                },
                {
                    "name": "G#4",
                    "midi": 68,
                    "time": 441.2143592499928,
                    "velocity": 0.6299212598425197,
                    "duration": 0.21428574999998773
                },
                {
                    "name": "G#3",
                    "midi": 56,
                    "time": 441.2143592499928,
                    "velocity": 0.5275590551181102,
                    "duration": 0.21428574999998773
                },
                {
                    "name": "E3",
                    "midi": 52,
                    "time": 441.4286449999928,
                    "velocity": 0.5590551181102362,
                    "duration": 0.21428574999998773
                },
                {
                    "name": "E4",
                    "midi": 64,
                    "time": 441.4286449999928,
                    "velocity": 0.6692913385826772,
                    "duration": 0.21428574999998773
                },
                {
                    "name": "D3",
                    "midi": 50,
                    "time": 441.6429307499928,
                    "velocity": 0.5433070866141733,
                    "duration": 0.21428574999998773
                },
                {
                    "name": "D4",
                    "midi": 62,
                    "time": 441.6429307499928,
                    "velocity": 0.6377952755905512,
                    "duration": 0.21428574999998773
                },
                {
                    "name": "C3",
                    "midi": 48,
                    "time": 441.8572164999928,
                    "velocity": 0.5433070866141733,
                    "duration": 0.21428574999998773
                },
                {
                    "name": "C4",
                    "midi": 60,
                    "time": 441.8572164999928,
                    "velocity": 0.6377952755905512,
                    "duration": 0.21428574999998773
                },
                {
                    "name": "B2",
                    "midi": 47,
                    "time": 442.07150224999276,
                    "velocity": 0.5196850393700787,
                    "duration": 0.21428574999998773
                },
                {
                    "name": "B3",
                    "midi": 59,
                    "time": 442.07150224999276,
                    "velocity": 0.6141732283464567,
                    "duration": 0.21428574999998773
                },
                {
                    "name": "E3",
                    "midi": 52,
                    "time": 442.28578799999275,
                    "velocity": 0.49606299212598426,
                    "duration": 0.21428574999998773
                },
                {
                    "name": "A2",
                    "midi": 45,
                    "time": 442.28578799999275,
                    "velocity": 0.49606299212598426,
                    "duration": 0.21428574999998773
                },
                {
                    "name": "A3",
                    "midi": 57,
                    "time": 442.28578799999275,
                    "velocity": 0.5826771653543307,
                    "duration": 0.21428574999998773
                },
                {
                    "name": "A2",
                    "midi": 45,
                    "time": 442.7143594999927,
                    "velocity": 0.5433070866141733,
                    "duration": 0.6357143916666814
                },
                {
                    "name": "E3",
                    "midi": 52,
                    "time": 442.7143594999927,
                    "velocity": 0.5433070866141733,
                    "duration": 0.6375001062500019
                },
                {
                    "name": "A3",
                    "midi": 57,
                    "time": 442.7143594999927,
                    "velocity": 0.6377952755905512,
                    "duration": 0.6357143916666814
                },
                {
                    "name": "E3",
                    "midi": 52,
                    "time": 443.35721674999274,
                    "velocity": 0.47244094488188976,
                    "duration": 0.41071435416665736
                },
                {
                    "name": "A2",
                    "midi": 45,
                    "time": 443.35721674999274,
                    "velocity": 0.47244094488188976,
                    "duration": 0.41071435416665736
                },
                {
                    "name": "A3",
                    "midi": 57,
                    "time": 443.35721674999274,
                    "velocity": 0.6692913385826772,
                    "duration": 0.41071435416665736
                },
                {
                    "name": "E3",
                    "midi": 52,
                    "time": 443.7857882499927,
                    "velocity": 0.5118110236220472,
                    "duration": 0.21428574999998773
                },
                {
                    "name": "A2",
                    "midi": 45,
                    "time": 443.7857882499927,
                    "velocity": 0.5118110236220472,
                    "duration": 0.21428574999998773
                },
                {
                    "name": "A3",
                    "midi": 57,
                    "time": 443.7857882499927,
                    "velocity": 0.5984251968503937,
                    "duration": 0.21428574999998773
                },
                {
                    "name": "E3",
                    "midi": 52,
                    "time": 444.0000739999927,
                    "velocity": 0.5590551181102362,
                    "duration": 0.21428574999998773
                },
                {
                    "name": "A2",
                    "midi": 45,
                    "time": 444.0000739999927,
                    "velocity": 0.5590551181102362,
                    "duration": 0.21428574999998773
                },
                {
                    "name": "A3",
                    "midi": 57,
                    "time": 444.0000739999927,
                    "velocity": 0.6535433070866141,
                    "duration": 0.21428574999998773
                },
                {
                    "name": "E3",
                    "midi": 52,
                    "time": 444.4286454999927,
                    "velocity": 0.5826771653543307,
                    "duration": 0.64285725000002
                },
                {
                    "name": "A2",
                    "midi": 45,
                    "time": 444.4286454999927,
                    "velocity": 0.5826771653543307,
                    "duration": 0.64285725000002
                },
                {
                    "name": "A3",
                    "midi": 57,
                    "time": 444.4286454999927,
                    "velocity": 0.6929133858267716,
                    "duration": 0.64285725000002
                },
                {
                    "name": "E3",
                    "midi": 52,
                    "time": 445.0715027499927,
                    "velocity": 0.4881889763779528,
                    "duration": 0.41071435416665736
                },
                {
                    "name": "A2",
                    "midi": 45,
                    "time": 445.0715027499927,
                    "velocity": 0.4881889763779528,
                    "duration": 0.41071435416665736
                },
                {
                    "name": "A3",
                    "midi": 57,
                    "time": 445.0715027499927,
                    "velocity": 0.6929133858267716,
                    "duration": 0.41071435416665736
                },
                {
                    "name": "E3",
                    "midi": 52,
                    "time": 445.5000742499927,
                    "velocity": 0.5511811023622047,
                    "duration": 0.21428574999998773
                },
                {
                    "name": "A2",
                    "midi": 45,
                    "time": 445.5000742499927,
                    "velocity": 0.5511811023622047,
                    "duration": 0.21428574999998773
                },
                {
                    "name": "A3",
                    "midi": 57,
                    "time": 445.5000742499927,
                    "velocity": 0.6614173228346457,
                    "duration": 0.21428574999998773
                },
                {
                    "name": "G2",
                    "midi": 43,
                    "time": 445.71435999999267,
                    "velocity": 0.5590551181102362,
                    "duration": 0.21428574999998773
                },
                {
                    "name": "D3",
                    "midi": 50,
                    "time": 445.71435999999267,
                    "velocity": 0.5590551181102362,
                    "duration": 0.21428574999998773
                },
                {
                    "name": "G3",
                    "midi": 55,
                    "time": 445.71435999999267,
                    "velocity": 0.6771653543307087,
                    "duration": 0.21428574999998773
                },
                {
                    "name": "G2",
                    "midi": 43,
                    "time": 446.14293149999264,
                    "velocity": 0.6692913385826772,
                    "duration": 0.633928677083361
                },
                {
                    "name": "D3",
                    "midi": 50,
                    "time": 446.14293149999264,
                    "velocity": 0.6692913385826772,
                    "duration": 0.633928677083361
                },
                {
                    "name": "G3",
                    "midi": 55,
                    "time": 446.14293149999264,
                    "velocity": 0.7795275590551181,
                    "duration": 0.633928677083361
                },
                {
                    "name": "D3",
                    "midi": 50,
                    "time": 446.78578874999266,
                    "velocity": 0.6614173228346457,
                    "duration": 0.21428574999998773
                },
                {
                    "name": "G2",
                    "midi": 43,
                    "time": 446.78578874999266,
                    "velocity": 0.6614173228346457,
                    "duration": 0.21428574999998773
                },
                {
                    "name": "G3",
                    "midi": 55,
                    "time": 446.78578874999266,
                    "velocity": 0.7795275590551181,
                    "duration": 0.21428574999998773
                },
                {
                    "name": "D3",
                    "midi": 50,
                    "time": 447.21436024999264,
                    "velocity": 0.6377952755905512,
                    "duration": 0.21428574999998773
                },
                {
                    "name": "G2",
                    "midi": 43,
                    "time": 447.21436024999264,
                    "velocity": 0.6377952755905512,
                    "duration": 0.21428574999998773
                },
                {
                    "name": "G3",
                    "midi": 55,
                    "time": 447.21436024999264,
                    "velocity": 0.7559055118110236,
                    "duration": 0.20714289166664912
                },
                {
                    "name": "D3",
                    "midi": 50,
                    "time": 447.4286459999926,
                    "velocity": 0.5354330708661418,
                    "duration": 0.21428574999998773
                },
                {
                    "name": "G2",
                    "midi": 43,
                    "time": 447.4286459999926,
                    "velocity": 0.5354330708661418,
                    "duration": 0.21428574999998773
                },
                {
                    "name": "G3",
                    "midi": 55,
                    "time": 447.4286459999926,
                    "velocity": 0.6220472440944882,
                    "duration": 0.21428574999998773
                },
                {
                    "name": "G2",
                    "midi": 43,
                    "time": 447.8572174999926,
                    "velocity": 0.5905511811023622,
                    "duration": 0.6357143916666814
                },
                {
                    "name": "D3",
                    "midi": 50,
                    "time": 447.8572174999926,
                    "velocity": 0.5905511811023622,
                    "duration": 0.6375001062500019
                },
                {
                    "name": "G3",
                    "midi": 55,
                    "time": 447.8572174999926,
                    "velocity": 0.6929133858267716,
                    "duration": 0.6357143916666814
                },
                {
                    "name": "D3",
                    "midi": 50,
                    "time": 448.5000747499926,
                    "velocity": 0.5196850393700787,
                    "duration": 0.41071435416665736
                },
                {
                    "name": "G2",
                    "midi": 43,
                    "time": 448.5000747499926,
                    "velocity": 0.5196850393700787,
                    "duration": 0.41071435416665736
                },
                {
                    "name": "G3",
                    "midi": 55,
                    "time": 448.5000747499926,
                    "velocity": 0.7322834645669292,
                    "duration": 0.41071435416665736
                },
                {
                    "name": "D3",
                    "midi": 50,
                    "time": 448.9286462499926,
                    "velocity": 0.5511811023622047,
                    "duration": 0.21428574999998773
                },
                {
                    "name": "G2",
                    "midi": 43,
                    "time": 448.9286462499926,
                    "velocity": 0.5511811023622047,
                    "duration": 0.21428574999998773
                },
                {
                    "name": "G3",
                    "midi": 55,
                    "time": 448.9286462499926,
                    "velocity": 0.6456692913385826,
                    "duration": 0.21428574999998773
                },
                {
                    "name": "G2",
                    "midi": 43,
                    "time": 449.1429319999926,
                    "velocity": 0.5826771653543307,
                    "duration": 0.21428574999998773
                },
                {
                    "name": "C2",
                    "midi": 36,
                    "time": 449.1429319999926,
                    "velocity": 0.5826771653543307,
                    "duration": 0.21428574999998773
                },
                {
                    "name": "C3",
                    "midi": 48,
                    "time": 449.1429319999926,
                    "velocity": 0.6929133858267716,
                    "duration": 0.21428574999998773
                },
                {
                    "name": "G2",
                    "midi": 43,
                    "time": 449.57150349999256,
                    "velocity": 0.6535433070866141,
                    "duration": 0.64285725000002
                },
                {
                    "name": "C2",
                    "midi": 36,
                    "time": 449.57150349999256,
                    "velocity": 0.6535433070866141,
                    "duration": 0.64285725000002
                },
                {
                    "name": "C3",
                    "midi": 48,
                    "time": 449.57150349999256,
                    "velocity": 0.7874015748031497,
                    "duration": 0.64285725000002
                },
                {
                    "name": "G2",
                    "midi": 43,
                    "time": 450.2143607499926,
                    "velocity": 0.5275590551181102,
                    "duration": 0.41071435416665736
                },
                {
                    "name": "C2",
                    "midi": 36,
                    "time": 450.2143607499926,
                    "velocity": 0.5275590551181102,
                    "duration": 0.41071435416665736
                },
                {
                    "name": "C3",
                    "midi": 48,
                    "time": 450.2143607499926,
                    "velocity": 0.7480314960629921,
                    "duration": 0.41071435416665736
                },
                {
                    "name": "G2",
                    "midi": 43,
                    "time": 450.64293224999255,
                    "velocity": 0.5905511811023622,
                    "duration": 0.21428574999998773
                },
                {
                    "name": "C2",
                    "midi": 36,
                    "time": 450.64293224999255,
                    "velocity": 0.5905511811023622,
                    "duration": 0.21428574999998773
                },
                {
                    "name": "C3",
                    "midi": 48,
                    "time": 450.64293224999255,
                    "velocity": 0.7086614173228346,
                    "duration": 0.21428574999998773
                },
                {
                    "name": "C2",
                    "midi": 36,
                    "time": 450.85721799999254,
                    "velocity": 0.6299212598425197,
                    "duration": 0.21428574999998773
                },
                {
                    "name": "G2",
                    "midi": 43,
                    "time": 450.85721799999254,
                    "velocity": 0.6299212598425197,
                    "duration": 0.21428574999998773
                },
                {
                    "name": "C3",
                    "midi": 48,
                    "time": 450.85721799999254,
                    "velocity": 0.7559055118110236,
                    "duration": 0.21428574999998773
                },
                {
                    "name": "C2",
                    "midi": 36,
                    "time": 451.2857894999925,
                    "velocity": 0.6850393700787402,
                    "duration": 0.633928677083361
                },
                {
                    "name": "G2",
                    "midi": 43,
                    "time": 451.2857894999925,
                    "velocity": 0.6850393700787402,
                    "duration": 0.633928677083361
                },
                {
                    "name": "C3",
                    "midi": 48,
                    "time": 451.2857894999925,
                    "velocity": 0.8031496062992126,
                    "duration": 0.633928677083361
                },
                {
                    "name": "G3",
                    "midi": 55,
                    "time": 451.92864674999254,
                    "velocity": 0.3779527559055118,
                    "duration": 0.21428574999998773
                },
                {
                    "name": "C3",
                    "midi": 48,
                    "time": 451.92864674999254,
                    "velocity": 0.3779527559055118,
                    "duration": 0.21428574999998773
                },
                {
                    "name": "C4",
                    "midi": 60,
                    "time": 451.92864674999254,
                    "velocity": 0.44881889763779526,
                    "duration": 0.21428574999998773
                },
                {
                    "name": "G3",
                    "midi": 55,
                    "time": 452.3572182499925,
                    "velocity": 0.3543307086614173,
                    "duration": 0.19285717500002875
                },
                {
                    "name": "C3",
                    "midi": 48,
                    "time": 452.3572182499925,
                    "velocity": 0.3543307086614173,
                    "duration": 0.19285717500002875
                },
                {
                    "name": "C4",
                    "midi": 60,
                    "time": 452.3572182499925,
                    "velocity": 0.4251968503937008,
                    "duration": 0.18750003125001058
                },
                {
                    "name": "G3",
                    "midi": 55,
                    "time": 452.57150399999256,
                    "velocity": 0.28346456692913385,
                    "duration": 0.21428574999998773
                },
                {
                    "name": "C3",
                    "midi": 48,
                    "time": 452.57150399999256,
                    "velocity": 0.28346456692913385,
                    "duration": 0.21428574999998773
                },
                {
                    "name": "C4",
                    "midi": 60,
                    "time": 452.57150399999256,
                    "velocity": 0.33070866141732286,
                    "duration": 0.21428574999998773
                },
                {
                    "name": "C3",
                    "midi": 48,
                    "time": 453.00007549999253,
                    "velocity": 0.30708661417322836,
                    "duration": 0.6357143916666814
                },
                {
                    "name": "G3",
                    "midi": 55,
                    "time": 453.00007549999253,
                    "velocity": 0.30708661417322836,
                    "duration": 0.6357143916666814
                },
                {
                    "name": "C4",
                    "midi": 60,
                    "time": 453.00007549999253,
                    "velocity": 0.3543307086614173,
                    "duration": 0.6357143916666814
                },
                {
                    "name": "G3",
                    "midi": 55,
                    "time": 453.64293274999255,
                    "velocity": 0.25984251968503935,
                    "duration": 0.41071435416665736
                },
                {
                    "name": "C3",
                    "midi": 48,
                    "time": 453.64293274999255,
                    "velocity": 0.25984251968503935,
                    "duration": 0.41071435416665736
                },
                {
                    "name": "C4",
                    "midi": 60,
                    "time": 453.64293274999255,
                    "velocity": 0.36220472440944884,
                    "duration": 0.41071435416665736
                },
                {
                    "name": "G3",
                    "midi": 55,
                    "time": 454.07150424999253,
                    "velocity": 0.2677165354330709,
                    "duration": 0.1928571749999719
                },
                {
                    "name": "C3",
                    "midi": 48,
                    "time": 454.07150424999253,
                    "velocity": 0.2677165354330709,
                    "duration": 0.1928571749999719
                },
                {
                    "name": "C4",
                    "midi": 60,
                    "time": 454.07150424999253,
                    "velocity": 0.31496062992125984,
                    "duration": 0.1928571749999719
                },
                {
                    "name": "B3",
                    "midi": 59,
                    "time": 454.2857899999925,
                    "velocity": 0.29133858267716534,
                    "duration": 0.21428574999998773
                },
                {
                    "name": "D3",
                    "midi": 50,
                    "time": 454.2857899999925,
                    "velocity": 0.29133858267716534,
                    "duration": 0.21428574999998773
                },
                {
                    "name": "D4",
                    "midi": 62,
                    "time": 454.2857899999925,
                    "velocity": 0.3464566929133858,
                    "duration": 0.21428574999998773
                },
                {
                    "name": "B3",
                    "midi": 59,
                    "time": 454.7143614999925,
                    "velocity": 0.29133858267716534,
                    "duration": 0.6375001062500019
                },
                {
                    "name": "D3",
                    "midi": 50,
                    "time": 454.7143614999925,
                    "velocity": 0.29133858267716534,
                    "duration": 0.6375001062500019
                },
                {
                    "name": "D4",
                    "midi": 62,
                    "time": 454.7143614999925,
                    "velocity": 0.3543307086614173,
                    "duration": 0.6375001062500019
                },
                {
                    "name": "B3",
                    "midi": 59,
                    "time": 455.3572187499925,
                    "velocity": 0.23622047244094488,
                    "duration": 0.41071435416665736
                },
                {
                    "name": "D3",
                    "midi": 50,
                    "time": 455.3572187499925,
                    "velocity": 0.23622047244094488,
                    "duration": 0.41071435416665736
                },
                {
                    "name": "D4",
                    "midi": 62,
                    "time": 455.3572187499925,
                    "velocity": 0.33070866141732286,
                    "duration": 0.41071435416665736
                },
                {
                    "name": "B3",
                    "midi": 59,
                    "time": 455.7857902499925,
                    "velocity": 0.2440944881889764,
                    "duration": 0.21428574999998773
                },
                {
                    "name": "D3",
                    "midi": 50,
                    "time": 455.7857902499925,
                    "velocity": 0.2440944881889764,
                    "duration": 0.21428574999998773
                },
                {
                    "name": "D4",
                    "midi": 62,
                    "time": 455.7857902499925,
                    "velocity": 0.28346456692913385,
                    "duration": 0.21428574999998773
                },
                {
                    "name": "A3",
                    "midi": 57,
                    "time": 456.0000759999925,
                    "velocity": 0.2677165354330709,
                    "duration": 0.21428574999998773
                },
                {
                    "name": "E3",
                    "midi": 52,
                    "time": 456.0000759999925,
                    "velocity": 0.2677165354330709,
                    "duration": 0.21428574999998773
                },
                {
                    "name": "C4",
                    "midi": 60,
                    "time": 456.0000759999925,
                    "velocity": 0.30708661417322836,
                    "duration": 0.21428574999998773
                },
                {
                    "name": "A3",
                    "midi": 57,
                    "time": 456.42864749999245,
                    "velocity": 0.25984251968503935,
                    "duration": 0.6375001062500019
                },
                {
                    "name": "E3",
                    "midi": 52,
                    "time": 456.42864749999245,
                    "velocity": 0.25984251968503935,
                    "duration": 0.6375001062500019
                },
                {
                    "name": "C4",
                    "midi": 60,
                    "time": 456.42864749999245,
                    "velocity": 0.3228346456692913,
                    "duration": 0.6375001062500019
                },
                {
                    "name": "A3",
                    "midi": 57,
                    "time": 457.07150474999247,
                    "velocity": 0.2047244094488189,
                    "duration": 0.41071435416665736
                },
                {
                    "name": "E3",
                    "midi": 52,
                    "time": 457.07150474999247,
                    "velocity": 0.2047244094488189,
                    "duration": 0.41071435416665736
                },
                {
                    "name": "C4",
                    "midi": 60,
                    "time": 457.07150474999247,
                    "velocity": 0.29133858267716534,
                    "duration": 0.41071435416665736
                },
                {
                    "name": "A3",
                    "midi": 57,
                    "time": 457.50007624999245,
                    "velocity": 0.2204724409448819,
                    "duration": 0.21428574999998773
                },
                {
                    "name": "E3",
                    "midi": 52,
                    "time": 457.50007624999245,
                    "velocity": 0.2204724409448819,
                    "duration": 0.21428574999998773
                },
                {
                    "name": "C4",
                    "midi": 60,
                    "time": 457.50007624999245,
                    "velocity": 0.25196850393700787,
                    "duration": 0.21428574999998773
                },
                {
                    "name": "E3",
                    "midi": 52,
                    "time": 457.71436199999243,
                    "velocity": 0.23622047244094488,
                    "duration": 0.21428574999998773
                },
                {
                    "name": "D4",
                    "midi": 62,
                    "time": 457.71436199999243,
                    "velocity": 0.2755905511811024,
                    "duration": 0.21428574999998773
                },
                {
                    "name": "E3",
                    "midi": 52,
                    "time": 458.1429334999924,
                    "velocity": 0.23622047244094488,
                    "duration": 0.64285725000002
                },
                {
                    "name": "D4",
                    "midi": 62,
                    "time": 458.1429334999924,
                    "velocity": 0.28346456692913385,
                    "duration": 0.64285725000002
                },
                {
                    "name": "A3",
                    "midi": 57,
                    "time": 459.0000764999924,
                    "velocity": 0.2677165354330709,
                    "duration": 0.38571435000000065
                },
                {
                    "name": "A3",
                    "midi": 57,
                    "time": 459.4286479999924,
                    "velocity": 0.31496062992125984,
                    "duration": 0.38571435000000065
                },
                {
                    "name": "A3",
                    "midi": 57,
                    "time": 459.85721949999237,
                    "velocity": 0.2283464566929134,
                    "duration": 0.38571435000000065
                },
                {
                    "name": "A3",
                    "midi": 57,
                    "time": 460.28579099999234,
                    "velocity": 0.29133858267716534,
                    "duration": 1.2678573541666083
                },
                {
                    "name": "A2",
                    "midi": 45,
                    "time": 460.50007674999233,
                    "velocity": 0.2440944881889764,
                    "duration": 0.41071435416665736
                },
                {
                    "name": "E3",
                    "midi": 52,
                    "time": 460.50007674999233,
                    "velocity": 0.2440944881889764,
                    "duration": 0.41071435416665736
                },
                {
                    "name": "A2",
                    "midi": 45,
                    "time": 460.9286482499923,
                    "velocity": 0.2440944881889764,
                    "duration": 0.21428574999998773
                },
                {
                    "name": "E3",
                    "midi": 52,
                    "time": 460.9286482499923,
                    "velocity": 0.2440944881889764,
                    "duration": 0.21428574999998773
                },
                {
                    "name": "A2",
                    "midi": 45,
                    "time": 461.1429339999923,
                    "velocity": 0.2440944881889764,
                    "duration": 0.41071435416665736
                },
                {
                    "name": "E3",
                    "midi": 52,
                    "time": 461.1429339999923,
                    "velocity": 0.2440944881889764,
                    "duration": 0.41071435416665736
                },
                {
                    "name": "A2",
                    "midi": 45,
                    "time": 461.57150549999227,
                    "velocity": 0.2677165354330709,
                    "duration": 0.42857149999997546
                },
                {
                    "name": "E3",
                    "midi": 52,
                    "time": 461.57150549999227,
                    "velocity": 0.2677165354330709,
                    "duration": 0.42857149999997546
                },
                {
                    "name": "A3",
                    "midi": 57,
                    "time": 461.57150549999227,
                    "velocity": 0.3228346456692913,
                    "duration": 0.42857149999997546
                },
                {
                    "name": "A3",
                    "midi": 57,
                    "time": 462.00007699999225,
                    "velocity": 0.33858267716535434,
                    "duration": 0.42857149999997546
                },
                {
                    "name": "A3",
                    "midi": 57,
                    "time": 462.4286484999922,
                    "velocity": 0.3543307086614173,
                    "duration": 0.38571435000000065
                },
                {
                    "name": "D4",
                    "midi": 62,
                    "time": 462.8572199999922,
                    "velocity": 0.2992125984251969,
                    "duration": 1.2857144999999264
                },
                {
                    "name": "D3",
                    "midi": 50,
                    "time": 463.0715057499922,
                    "velocity": 0.2283464566929134,
                    "duration": 0.42857149999997546
                },
                {
                    "name": "A#3",
                    "midi": 58,
                    "time": 463.0715057499922,
                    "velocity": 0.2755905511811024,
                    "duration": 0.42857149999997546
                },
                {
                    "name": "D3",
                    "midi": 50,
                    "time": 463.50007724999216,
                    "velocity": 0.2440944881889764,
                    "duration": 0.21428574999998773
                },
                {
                    "name": "A#3",
                    "midi": 58,
                    "time": 463.50007724999216,
                    "velocity": 0.2440944881889764,
                    "duration": 0.21428574999998773
                },
                {
                    "name": "D3",
                    "midi": 50,
                    "time": 463.71436299999215,
                    "velocity": 0.25196850393700787,
                    "duration": 0.42857149999997546
                },
                {
                    "name": "B3",
                    "midi": 59,
                    "time": 463.71436299999215,
                    "velocity": 0.2992125984251969,
                    "duration": 0.42857149999997546
                },
                {
                    "name": "D3",
                    "midi": 50,
                    "time": 464.1429344999921,
                    "velocity": 0.2204724409448819,
                    "duration": 0.42857149999997546
                },
                {
                    "name": "B3",
                    "midi": 59,
                    "time": 464.1429344999921,
                    "velocity": 0.2677165354330709,
                    "duration": 0.42857149999997546
                },
                {
                    "name": "D4",
                    "midi": 62,
                    "time": 464.1429344999921,
                    "velocity": 0.31496062992125984,
                    "duration": 0.42857149999997546
                },
                {
                    "name": "B3",
                    "midi": 59,
                    "time": 464.5715059999921,
                    "velocity": 0.2677165354330709,
                    "duration": 0.42857149999997546
                },
                {
                    "name": "A3",
                    "midi": 57,
                    "time": 465.0000774999921,
                    "velocity": 0.2677165354330709,
                    "duration": 0.38571435000000065
                },
                {
                    "name": "G#3",
                    "midi": 56,
                    "time": 465.42864899999205,
                    "velocity": 0.29133858267716534,
                    "duration": 1.2678573541666083
                },
                {
                    "name": "B2",
                    "midi": 47,
                    "time": 465.64293474999204,
                    "velocity": 0.2755905511811024,
                    "duration": 0.42857149999997546
                },
                {
                    "name": "E3",
                    "midi": 52,
                    "time": 465.64293474999204,
                    "velocity": 0.2755905511811024,
                    "duration": 0.42857149999997546
                },
                {
                    "name": "B2",
                    "midi": 47,
                    "time": 466.071506249992,
                    "velocity": 0.2440944881889764,
                    "duration": 0.21428574999998773
                },
                {
                    "name": "E3",
                    "midi": 52,
                    "time": 466.071506249992,
                    "velocity": 0.2440944881889764,
                    "duration": 0.21428574999998773
                },
                {
                    "name": "B2",
                    "midi": 47,
                    "time": 466.285791999992,
                    "velocity": 0.2755905511811024,
                    "duration": 0.42857149999997546
                },
                {
                    "name": "E3",
                    "midi": 52,
                    "time": 466.285791999992,
                    "velocity": 0.2755905511811024,
                    "duration": 0.42857149999997546
                },
                {
                    "name": "E3",
                    "midi": 52,
                    "time": 466.714363499992,
                    "velocity": 0.2755905511811024,
                    "duration": 0.42857149999997546
                },
                {
                    "name": "B2",
                    "midi": 47,
                    "time": 466.714363499992,
                    "velocity": 0.2677165354330709,
                    "duration": 0.42857149999997546
                },
                {
                    "name": "G#3",
                    "midi": 56,
                    "time": 466.714363499992,
                    "velocity": 0.31496062992125984,
                    "duration": 0.42857149999997546
                },
                {
                    "name": "G#3",
                    "midi": 56,
                    "time": 467.14293499999195,
                    "velocity": 0.29133858267716534,
                    "duration": 0.38571435000000065
                },
                {
                    "name": "G#3",
                    "midi": 56,
                    "time": 467.5715064999919,
                    "velocity": 0.2755905511811024,
                    "duration": 0.38571435000000065
                },
                {
                    "name": "A3",
                    "midi": 57,
                    "time": 468.0000779999919,
                    "velocity": 0.31496062992125984,
                    "duration": 0.9000001499999257
                },
                {
                    "name": "A2",
                    "midi": 45,
                    "time": 468.2143637499919,
                    "velocity": 0.2283464566929134,
                    "duration": 0.42857149999997546
                },
                {
                    "name": "D3",
                    "midi": 50,
                    "time": 468.2143637499919,
                    "velocity": 0.2283464566929134,
                    "duration": 0.42857149999997546
                },
                {
                    "name": "F#3",
                    "midi": 54,
                    "time": 468.2143637499919,
                    "velocity": 0.2755905511811024,
                    "duration": 0.42857149999997546
                },
                {
                    "name": "A2",
                    "midi": 45,
                    "time": 468.64293524999187,
                    "velocity": 0.2047244094488189,
                    "duration": 0.19642860416666963
                },
                {
                    "name": "D3",
                    "midi": 50,
                    "time": 468.64293524999187,
                    "velocity": 0.2047244094488189,
                    "duration": 0.21428574999998773
                },
                {
                    "name": "F#3",
                    "midi": 54,
                    "time": 468.64293524999187,
                    "velocity": 0.2440944881889764,
                    "duration": 0.21428574999998773
                },
                {
                    "name": "A2",
                    "midi": 45,
                    "time": 468.85722099999185,
                    "velocity": 0.2283464566929134,
                    "duration": 0.42857149999997546
                },
                {
                    "name": "C#3",
                    "midi": 49,
                    "time": 468.85722099999185,
                    "velocity": 0.2755905511811024,
                    "duration": 0.42857149999997546
                },
                {
                    "name": "E3",
                    "midi": 52,
                    "time": 468.85722099999185,
                    "velocity": 0.28346456692913385,
                    "duration": 0.41071435416665736
                },
                {
                    "name": "A2",
                    "midi": 45,
                    "time": 469.2857924999918,
                    "velocity": 0.3779527559055118,
                    "duration": 0.42857149999997546
                },
                {
                    "name": "A3",
                    "midi": 57,
                    "time": 469.2857924999918,
                    "velocity": 0.44881889763779526,
                    "duration": 0.42857149999997546
                },
                {
                    "name": "D2",
                    "midi": 38,
                    "time": 469.7143639999918,
                    "velocity": 0.3700787401574803,
                    "duration": 0.38571435000000065
                },
                {
                    "name": "D3",
                    "midi": 50,
                    "time": 469.7143639999918,
                    "velocity": 0.5275590551181102,
                    "duration": 0.38571435000000065
                },
                {
                    "name": "F#2",
                    "midi": 42,
                    "time": 470.1429354999918,
                    "velocity": 0.3779527559055118,
                    "duration": 0.38571435000000065
                },
                {
                    "name": "F#3",
                    "midi": 54,
                    "time": 470.1429354999918,
                    "velocity": 0.44881889763779526,
                    "duration": 0.38571435000000065
                },
                {
                    "name": "A2",
                    "midi": 45,
                    "time": 470.57150699999175,
                    "velocity": 0.47244094488188976,
                    "duration": 0.19642860416666963
                },
                {
                    "name": "A3",
                    "midi": 57,
                    "time": 470.57150699999175,
                    "velocity": 0.47244094488188976,
                    "duration": 0.19642860416666963
                },
                {
                    "name": "A1",
                    "midi": 33,
                    "time": 470.78579274999174,
                    "velocity": 0.36220472440944884,
                    "duration": 0.42857149999997546
                },
                {
                    "name": "E2",
                    "midi": 40,
                    "time": 470.78579274999174,
                    "velocity": 0.36220472440944884,
                    "duration": 0.42857149999997546
                },
                {
                    "name": "A2",
                    "midi": 45,
                    "time": 470.78579274999174,
                    "velocity": 0.4330708661417323,
                    "duration": 0.42857149999997546
                },
                {
                    "name": "A1",
                    "midi": 33,
                    "time": 471.2143642499917,
                    "velocity": 0.30708661417322836,
                    "duration": 0.21428574999998773
                },
                {
                    "name": "E2",
                    "midi": 40,
                    "time": 471.2143642499917,
                    "velocity": 0.30708661417322836,
                    "duration": 0.21428574999998773
                },
                {
                    "name": "A2",
                    "midi": 45,
                    "time": 471.2143642499917,
                    "velocity": 0.3700787401574803,
                    "duration": 0.21428574999998773
                },
                {
                    "name": "A1",
                    "midi": 33,
                    "time": 471.4286499999917,
                    "velocity": 0.36220472440944884,
                    "duration": 0.42857149999997546
                },
                {
                    "name": "E2",
                    "midi": 40,
                    "time": 471.4286499999917,
                    "velocity": 0.36220472440944884,
                    "duration": 0.42857149999997546
                },
                {
                    "name": "A2",
                    "midi": 45,
                    "time": 471.4286499999917,
                    "velocity": 0.4330708661417323,
                    "duration": 0.42857149999997546
                },
                {
                    "name": "A1",
                    "midi": 33,
                    "time": 471.8572214999917,
                    "velocity": 0.33858267716535434,
                    "duration": 0.21428574999998773
                },
                {
                    "name": "E2",
                    "midi": 40,
                    "time": 471.8572214999917,
                    "velocity": 0.33858267716535434,
                    "duration": 0.21428574999998773
                },
                {
                    "name": "A2",
                    "midi": 45,
                    "time": 471.8572214999917,
                    "velocity": 0.4015748031496063,
                    "duration": 0.21428574999998773
                },
                {
                    "name": "C#3",
                    "midi": 49,
                    "time": 472.07150724999167,
                    "velocity": 0.3228346456692913,
                    "duration": 0.21428574999998773
                },
                {
                    "name": "C#4",
                    "midi": 61,
                    "time": 472.07150724999167,
                    "velocity": 0.3858267716535433,
                    "duration": 0.21428574999998773
                },
                {
                    "name": "B2",
                    "midi": 47,
                    "time": 472.28579299999166,
                    "velocity": 0.4330708661417323,
                    "duration": 0.42857149999997546
                },
                {
                    "name": "B3",
                    "midi": 59,
                    "time": 472.28579299999166,
                    "velocity": 0.5118110236220472,
                    "duration": 0.42857149999997546
                },
                {
                    "name": "A2",
                    "midi": 45,
                    "time": 472.71436449999163,
                    "velocity": 0.3543307086614173,
                    "duration": 0.38571435000000065
                },
                {
                    "name": "A3",
                    "midi": 57,
                    "time": 472.71436449999163,
                    "velocity": 0.5039370078740157,
                    "duration": 0.38571435000000065
                },
                {
                    "name": "G#2",
                    "midi": 44,
                    "time": 473.1429359999916,
                    "velocity": 0.4015748031496063,
                    "duration": 0.19642860416666963
                },
                {
                    "name": "G#3",
                    "midi": 56,
                    "time": 473.1429359999916,
                    "velocity": 0.47244094488188976,
                    "duration": 0.19642860416666963
                },
                {
                    "name": "G#1",
                    "midi": 32,
                    "time": 473.3572217499916,
                    "velocity": 0.36220472440944884,
                    "duration": 0.42857149999997546
                },
                {
                    "name": "C#2",
                    "midi": 37,
                    "time": 473.3572217499916,
                    "velocity": 0.36220472440944884,
                    "duration": 0.42857149999997546
                },
                {
                    "name": "G#2",
                    "midi": 44,
                    "time": 473.3572217499916,
                    "velocity": 0.4330708661417323,
                    "duration": 0.42857149999997546
                },
                {
                    "name": "G#1",
                    "midi": 32,
                    "time": 473.78579324999157,
                    "velocity": 0.30708661417322836,
                    "duration": 0.21428574999998773
                },
                {
                    "name": "C#2",
                    "midi": 37,
                    "time": 473.78579324999157,
                    "velocity": 0.30708661417322836,
                    "duration": 0.21428574999998773
                },
                {
                    "name": "G#2",
                    "midi": 44,
                    "time": 473.78579324999157,
                    "velocity": 0.3700787401574803,
                    "duration": 0.21428574999998773
                },
                {
                    "name": "G#1",
                    "midi": 32,
                    "time": 474.00007899999156,
                    "velocity": 0.36220472440944884,
                    "duration": 0.42857149999997546
                },
                {
                    "name": "C#2",
                    "midi": 37,
                    "time": 474.00007899999156,
                    "velocity": 0.36220472440944884,
                    "duration": 0.42857149999997546
                },
                {
                    "name": "G#2",
                    "midi": 44,
                    "time": 474.00007899999156,
                    "velocity": 0.4330708661417323,
                    "duration": 0.42857149999997546
                },
                {
                    "name": "G#1",
                    "midi": 32,
                    "time": 474.42865049999153,
                    "velocity": 0.33858267716535434,
                    "duration": 0.21428574999998773
                },
                {
                    "name": "C#2",
                    "midi": 37,
                    "time": 474.42865049999153,
                    "velocity": 0.33858267716535434,
                    "duration": 0.21428574999998773
                },
                {
                    "name": "G#2",
                    "midi": 44,
                    "time": 474.42865049999153,
                    "velocity": 0.4015748031496063,
                    "duration": 0.21428574999998773
                },
                {
                    "name": "G#3",
                    "midi": 56,
                    "time": 474.6429362499915,
                    "velocity": 0.36220472440944884,
                    "duration": 0.21428574999998773
                },
                {
                    "name": "C#4",
                    "midi": 61,
                    "time": 474.6429362499915,
                    "velocity": 0.4330708661417323,
                    "duration": 0.21428574999998773
                },
                {
                    "name": "G#3",
                    "midi": 56,
                    "time": 474.8572219999915,
                    "velocity": 0.4330708661417323,
                    "duration": 0.42857149999997546
                },
                {
                    "name": "C4",
                    "midi": 60,
                    "time": 474.8572219999915,
                    "velocity": 0.5118110236220472,
                    "duration": 0.42857149999997546
                },
                {
                    "name": "G#3",
                    "midi": 56,
                    "time": 475.2857934999915,
                    "velocity": 0.3543307086614173,
                    "duration": 0.38571435000000065
                },
                {
                    "name": "D#4",
                    "midi": 63,
                    "time": 475.2857934999915,
                    "velocity": 0.5039370078740157,
                    "duration": 0.38571435000000065
                },
                {
                    "name": "G#3",
                    "midi": 56,
                    "time": 475.71436499999146,
                    "velocity": 0.3543307086614173,
                    "duration": 0.19642860416666963
                },
                {
                    "name": "C#3",
                    "midi": 49,
                    "time": 475.71436499999146,
                    "velocity": 0.3543307086614173,
                    "duration": 0.19642860416666963
                },
                {
                    "name": "C#4",
                    "midi": 61,
                    "time": 475.71436499999146,
                    "velocity": 0.4251968503937008,
                    "duration": 0.19642860416666963
                },
                {
                    "name": "C#2",
                    "midi": 37,
                    "time": 475.92865074999145,
                    "velocity": 0.3228346456692913,
                    "duration": 0.42857149999997546
                },
                {
                    "name": "E2",
                    "midi": 40,
                    "time": 475.92865074999145,
                    "velocity": 0.3228346456692913,
                    "duration": 0.42857149999997546
                },
                {
                    "name": "G#2",
                    "midi": 44,
                    "time": 475.92865074999145,
                    "velocity": 0.3228346456692913,
                    "duration": 0.42857149999997546
                },
                {
                    "name": "C#3",
                    "midi": 49,
                    "time": 475.92865074999145,
                    "velocity": 0.3858267716535433,
                    "duration": 0.42857149999997546
                },
                {
                    "name": "C#2",
                    "midi": 37,
                    "time": 476.3572222499914,
                    "velocity": 0.2755905511811024,
                    "duration": 0.21428574999998773
                },
                {
                    "name": "E2",
                    "midi": 40,
                    "time": 476.3572222499914,
                    "velocity": 0.2755905511811024,
                    "duration": 0.21428574999998773
                },
                {
                    "name": "G#2",
                    "midi": 44,
                    "time": 476.3572222499914,
                    "velocity": 0.2755905511811024,
                    "duration": 0.21428574999998773
                },
                {
                    "name": "C#3",
                    "midi": 49,
                    "time": 476.3572222499914,
                    "velocity": 0.33070866141732286,
                    "duration": 0.21428574999998773
                },
                {
                    "name": "C#2",
                    "midi": 37,
                    "time": 476.5715079999914,
                    "velocity": 0.3228346456692913,
                    "duration": 0.42857149999997546
                },
                {
                    "name": "E2",
                    "midi": 40,
                    "time": 476.5715079999914,
                    "velocity": 0.3228346456692913,
                    "duration": 0.42857149999997546
                },
                {
                    "name": "G#2",
                    "midi": 44,
                    "time": 476.5715079999914,
                    "velocity": 0.3228346456692913,
                    "duration": 0.42857149999997546
                },
                {
                    "name": "C#3",
                    "midi": 49,
                    "time": 476.5715079999914,
                    "velocity": 0.3858267716535433,
                    "duration": 0.42857149999997546
                },
                {
                    "name": "C#2",
                    "midi": 37,
                    "time": 477.0000794999914,
                    "velocity": 0.2992125984251969,
                    "duration": 0.21428574999998773
                },
                {
                    "name": "E2",
                    "midi": 40,
                    "time": 477.0000794999914,
                    "velocity": 0.2992125984251969,
                    "duration": 0.21428574999998773
                },
                {
                    "name": "G#2",
                    "midi": 44,
                    "time": 477.0000794999914,
                    "velocity": 0.2992125984251969,
                    "duration": 0.21428574999998773
                },
                {
                    "name": "C#3",
                    "midi": 49,
                    "time": 477.0000794999914,
                    "velocity": 0.3543307086614173,
                    "duration": 0.21428574999998773
                },
                {
                    "name": "E3",
                    "midi": 52,
                    "time": 477.2143652499914,
                    "velocity": 0.2992125984251969,
                    "duration": 0.21428574999998773
                },
                {
                    "name": "A3",
                    "midi": 57,
                    "time": 477.2143652499914,
                    "velocity": 0.2992125984251969,
                    "duration": 0.21428574999998773
                },
                {
                    "name": "E3",
                    "midi": 52,
                    "time": 477.42865099999136,
                    "velocity": 0.3543307086614173,
                    "duration": 0.42857149999997546
                },
                {
                    "name": "G#3",
                    "midi": 56,
                    "time": 477.42865099999136,
                    "velocity": 0.2992125984251969,
                    "duration": 0.42857149999997546
                },
                {
                    "name": "E3",
                    "midi": 52,
                    "time": 477.85722249999134,
                    "velocity": 0.29133858267716534,
                    "duration": 0.38571435000000065
                },
                {
                    "name": "B3",
                    "midi": 59,
                    "time": 477.85722249999134,
                    "velocity": 0.3464566929133858,
                    "duration": 0.38571435000000065
                },
                {
                    "name": "F#3",
                    "midi": 54,
                    "time": 478.2857939999913,
                    "velocity": 0.2755905511811024,
                    "duration": 0.19642860416666963
                },
                {
                    "name": "A3",
                    "midi": 57,
                    "time": 478.2857939999913,
                    "velocity": 0.33070866141732286,
                    "duration": 0.19642860416666963
                },
                {
                    "name": "F#2",
                    "midi": 42,
                    "time": 478.5000797499913,
                    "velocity": 0.25196850393700787,
                    "duration": 0.42857149999997546
                },
                {
                    "name": "C#3",
                    "midi": 49,
                    "time": 478.5000797499913,
                    "velocity": 0.25196850393700787,
                    "duration": 0.42857149999997546
                },
                {
                    "name": "F#3",
                    "midi": 54,
                    "time": 478.5000797499913,
                    "velocity": 0.2992125984251969,
                    "duration": 0.42857149999997546
                },
                {
                    "name": "F#2",
                    "midi": 42,
                    "time": 478.9286512499913,
                    "velocity": 0.2125984251968504,
                    "duration": 0.21428574999998773
                },
                {
                    "name": "C#3",
                    "midi": 49,
                    "time": 478.9286512499913,
                    "velocity": 0.2125984251968504,
                    "duration": 0.21428574999998773
                },
                {
                    "name": "F#3",
                    "midi": 54,
                    "time": 478.9286512499913,
                    "velocity": 0.25196850393700787,
                    "duration": 0.21428574999998773
                },
                {
                    "name": "F#2",
                    "midi": 42,
                    "time": 479.14293699999126,
                    "velocity": 0.25196850393700787,
                    "duration": 0.42857149999997546
                },
                {
                    "name": "C#3",
                    "midi": 49,
                    "time": 479.14293699999126,
                    "velocity": 0.25196850393700787,
                    "duration": 0.42857149999997546
                },
                {
                    "name": "F#3",
                    "midi": 54,
                    "time": 479.14293699999126,
                    "velocity": 0.2992125984251969,
                    "duration": 0.42857149999997546
                },
                {
                    "name": "F#2",
                    "midi": 42,
                    "time": 479.57150849999124,
                    "velocity": 0.2283464566929134,
                    "duration": 0.21428574999998773
                },
                {
                    "name": "C#3",
                    "midi": 49,
                    "time": 479.57150849999124,
                    "velocity": 0.2283464566929134,
                    "duration": 0.21428574999998773
                },
                {
                    "name": "F#3",
                    "midi": 54,
                    "time": 479.57150849999124,
                    "velocity": 0.2755905511811024,
                    "duration": 0.21428574999998773
                },
                {
                    "name": "E2",
                    "midi": 40,
                    "time": 479.7857942499912,
                    "velocity": 0.36220472440944884,
                    "duration": 0.21428574999998773
                },
                {
                    "name": "E3",
                    "midi": 52,
                    "time": 479.7857942499912,
                    "velocity": 0.4330708661417323,
                    "duration": 0.21428574999998773
                },
                {
                    "name": "D2",
                    "midi": 38,
                    "time": 480.0000799999912,
                    "velocity": 0.4409448818897638,
                    "duration": 0.42857149999997546
                },
                {
                    "name": "D3",
                    "midi": 50,
                    "time": 480.0000799999912,
                    "velocity": 0.5196850393700787,
                    "duration": 0.42857149999997546
                },
                {
                    "name": "C#2",
                    "midi": 37,
                    "time": 480.4286514999912,
                    "velocity": 0.3858267716535433,
                    "duration": 0.38571435000000065
                },
                {
                    "name": "C#3",
                    "midi": 49,
                    "time": 480.4286514999912,
                    "velocity": 0.5433070866141733,
                    "duration": 0.38571435000000065
                },
                {
                    "name": "B1",
                    "midi": 35,
                    "time": 480.85722299999117,
                    "velocity": 0.48031496062992124,
                    "duration": 0.19642860416666963
                },
                {
                    "name": "B2",
                    "midi": 47,
                    "time": 480.85722299999117,
                    "velocity": 0.5669291338582677,
                    "duration": 0.19642860416666963
                },
                {
                    "name": "B1",
                    "midi": 35,
                    "time": 481.07150874999115,
                    "velocity": 0.4409448818897638,
                    "duration": 0.42857149999997546
                },
                {
                    "name": "G2",
                    "midi": 43,
                    "time": 481.07150874999115,
                    "velocity": 0.4409448818897638,
                    "duration": 0.42857149999997546
                },
                {
                    "name": "D2",
                    "midi": 38,
                    "time": 481.07150874999115,
                    "velocity": 0.4409448818897638,
                    "duration": 0.42857149999997546
                },
                {
                    "name": "B2",
                    "midi": 47,
                    "time": 481.07150874999115,
                    "velocity": 0.5196850393700787,
                    "duration": 0.42857149999997546
                },
                {
                    "name": "G2",
                    "midi": 43,
                    "time": 481.50008024999113,
                    "velocity": 0.3700787401574803,
                    "duration": 0.21428574999998773
                },
                {
                    "name": "D2",
                    "midi": 38,
                    "time": 481.50008024999113,
                    "velocity": 0.3700787401574803,
                    "duration": 0.21428574999998773
                },
                {
                    "name": "B1",
                    "midi": 35,
                    "time": 481.50008024999113,
                    "velocity": 0.3700787401574803,
                    "duration": 0.21428574999998773
                },
                {
                    "name": "B2",
                    "midi": 47,
                    "time": 481.50008024999113,
                    "velocity": 0.4409448818897638,
                    "duration": 0.21428574999998773
                },
                {
                    "name": "G2",
                    "midi": 43,
                    "time": 481.7143659999911,
                    "velocity": 0.4409448818897638,
                    "duration": 0.42857149999997546
                },
                {
                    "name": "D2",
                    "midi": 38,
                    "time": 481.7143659999911,
                    "velocity": 0.4409448818897638,
                    "duration": 0.42857149999997546
                },
                {
                    "name": "B1",
                    "midi": 35,
                    "time": 481.7143659999911,
                    "velocity": 0.4409448818897638,
                    "duration": 0.42857149999997546
                },
                {
                    "name": "B2",
                    "midi": 47,
                    "time": 481.7143659999911,
                    "velocity": 0.5196850393700787,
                    "duration": 0.42857149999997546
                },
                {
                    "name": "G2",
                    "midi": 43,
                    "time": 482.1429374999911,
                    "velocity": 0.4015748031496063,
                    "duration": 0.6250001041666451
                },
                {
                    "name": "B1",
                    "midi": 35,
                    "time": 482.1429374999911,
                    "velocity": 0.4015748031496063,
                    "duration": 0.6250001041666451
                },
                {
                    "name": "D2",
                    "midi": 38,
                    "time": 482.1429374999911,
                    "velocity": 0.4015748031496063,
                    "duration": 0.6250001041666451
                },
                {
                    "name": "B2",
                    "midi": 47,
                    "time": 482.1429374999911,
                    "velocity": 0.48031496062992124,
                    "duration": 0.6250001041666451
                },
                {
                    "name": "C3",
                    "midi": 48,
                    "time": 482.78579474999106,
                    "velocity": 0.23622047244094488,
                    "duration": 0.42857149999997546
                },
                {
                    "name": "F#3",
                    "midi": 54,
                    "time": 482.78579474999106,
                    "velocity": 0.23622047244094488,
                    "duration": 0.42857149999997546
                },
                {
                    "name": "D3",
                    "midi": 50,
                    "time": 482.78579474999106,
                    "velocity": 0.23622047244094488,
                    "duration": 0.42857149999997546
                },
                {
                    "name": "A3",
                    "midi": 57,
                    "time": 482.78579474999106,
                    "velocity": 0.28346456692913385,
                    "duration": 0.42857149999997546
                },
                {
                    "name": "F#3",
                    "midi": 54,
                    "time": 483.21436624999103,
                    "velocity": 0.1968503937007874,
                    "duration": 0.21428574999998773
                },
                {
                    "name": "D3",
                    "midi": 50,
                    "time": 483.21436624999103,
                    "velocity": 0.1968503937007874,
                    "duration": 0.21428574999998773
                },
                {
                    "name": "C3",
                    "midi": 48,
                    "time": 483.21436624999103,
                    "velocity": 0.1968503937007874,
                    "duration": 0.21428574999998773
                },
                {
                    "name": "A3",
                    "midi": 57,
                    "time": 483.21436624999103,
                    "velocity": 0.23622047244094488,
                    "duration": 0.21428574999998773
                },
                {
                    "name": "F#3",
                    "midi": 54,
                    "time": 483.428651999991,
                    "velocity": 0.23622047244094488,
                    "duration": 0.42857149999997546
                },
                {
                    "name": "D3",
                    "midi": 50,
                    "time": 483.428651999991,
                    "velocity": 0.23622047244094488,
                    "duration": 0.42857149999997546
                },
                {
                    "name": "C3",
                    "midi": 48,
                    "time": 483.428651999991,
                    "velocity": 0.23622047244094488,
                    "duration": 0.42857149999997546
                },
                {
                    "name": "A3",
                    "midi": 57,
                    "time": 483.428651999991,
                    "velocity": 0.28346456692913385,
                    "duration": 0.42857149999997546
                },
                {
                    "name": "F#3",
                    "midi": 54,
                    "time": 483.857223499991,
                    "velocity": 0.2204724409448819,
                    "duration": 0.6250001041666451
                },
                {
                    "name": "C3",
                    "midi": 48,
                    "time": 483.857223499991,
                    "velocity": 0.2204724409448819,
                    "duration": 0.6250001041666451
                },
                {
                    "name": "D3",
                    "midi": 50,
                    "time": 483.857223499991,
                    "velocity": 0.2204724409448819,
                    "duration": 0.6250001041666451
                },
                {
                    "name": "A3",
                    "midi": 57,
                    "time": 483.857223499991,
                    "velocity": 0.25984251968503935,
                    "duration": 0.6250001041666451
                },
                {
                    "name": "B1",
                    "midi": 35,
                    "time": 484.50008074999096,
                    "velocity": 0.4409448818897638,
                    "duration": 0.42857149999997546
                },
                {
                    "name": "G2",
                    "midi": 43,
                    "time": 484.50008074999096,
                    "velocity": 0.4409448818897638,
                    "duration": 0.42857149999997546
                },
                {
                    "name": "D2",
                    "midi": 38,
                    "time": 484.50008074999096,
                    "velocity": 0.4409448818897638,
                    "duration": 0.42857149999997546
                },
                {
                    "name": "B2",
                    "midi": 47,
                    "time": 484.50008074999096,
                    "velocity": 0.5196850393700787,
                    "duration": 0.42857149999997546
                },
                {
                    "name": "G2",
                    "midi": 43,
                    "time": 484.92865224999093,
                    "velocity": 0.3700787401574803,
                    "duration": 0.21428574999998773
                },
                {
                    "name": "D2",
                    "midi": 38,
                    "time": 484.92865224999093,
                    "velocity": 0.3700787401574803,
                    "duration": 0.21428574999998773
                },
                {
                    "name": "B1",
                    "midi": 35,
                    "time": 484.92865224999093,
                    "velocity": 0.3700787401574803,
                    "duration": 0.21428574999998773
                },
                {
                    "name": "B2",
                    "midi": 47,
                    "time": 484.92865224999093,
                    "velocity": 0.4409448818897638,
                    "duration": 0.21428574999998773
                },
                {
                    "name": "G2",
                    "midi": 43,
                    "time": 485.1429379999909,
                    "velocity": 0.4409448818897638,
                    "duration": 0.42857149999997546
                },
                {
                    "name": "D2",
                    "midi": 38,
                    "time": 485.1429379999909,
                    "velocity": 0.4409448818897638,
                    "duration": 0.42857149999997546
                },
                {
                    "name": "B1",
                    "midi": 35,
                    "time": 485.1429379999909,
                    "velocity": 0.4409448818897638,
                    "duration": 0.42857149999997546
                },
                {
                    "name": "B2",
                    "midi": 47,
                    "time": 485.1429379999909,
                    "velocity": 0.5196850393700787,
                    "duration": 0.42857149999997546
                },
                {
                    "name": "G2",
                    "midi": 43,
                    "time": 485.5715094999909,
                    "velocity": 0.4015748031496063,
                    "duration": 0.6250001041666451
                },
                {
                    "name": "B1",
                    "midi": 35,
                    "time": 485.5715094999909,
                    "velocity": 0.4015748031496063,
                    "duration": 0.6250001041666451
                },
                {
                    "name": "D2",
                    "midi": 38,
                    "time": 485.5715094999909,
                    "velocity": 0.4015748031496063,
                    "duration": 0.6250001041666451
                },
                {
                    "name": "B2",
                    "midi": 47,
                    "time": 485.5715094999909,
                    "velocity": 0.48031496062992124,
                    "duration": 0.6250001041666451
                },
                {
                    "name": "C3",
                    "midi": 48,
                    "time": 486.21436674999086,
                    "velocity": 0.23622047244094488,
                    "duration": 0.42857149999997546
                },
                {
                    "name": "F#3",
                    "midi": 54,
                    "time": 486.21436674999086,
                    "velocity": 0.23622047244094488,
                    "duration": 0.42857149999997546
                },
                {
                    "name": "D3",
                    "midi": 50,
                    "time": 486.21436674999086,
                    "velocity": 0.23622047244094488,
                    "duration": 0.42857149999997546
                },
                {
                    "name": "A3",
                    "midi": 57,
                    "time": 486.21436674999086,
                    "velocity": 0.28346456692913385,
                    "duration": 0.42857149999997546
                },
                {
                    "name": "F#3",
                    "midi": 54,
                    "time": 486.64293824999083,
                    "velocity": 0.1968503937007874,
                    "duration": 0.21428574999998773
                },
                {
                    "name": "D3",
                    "midi": 50,
                    "time": 486.64293824999083,
                    "velocity": 0.1968503937007874,
                    "duration": 0.21428574999998773
                },
                {
                    "name": "C3",
                    "midi": 48,
                    "time": 486.64293824999083,
                    "velocity": 0.1968503937007874,
                    "duration": 0.21428574999998773
                },
                {
                    "name": "A3",
                    "midi": 57,
                    "time": 486.64293824999083,
                    "velocity": 0.23622047244094488,
                    "duration": 0.21428574999998773
                },
                {
                    "name": "F#3",
                    "midi": 54,
                    "time": 486.8572239999908,
                    "velocity": 0.23622047244094488,
                    "duration": 0.42857149999997546
                },
                {
                    "name": "D3",
                    "midi": 50,
                    "time": 486.8572239999908,
                    "velocity": 0.23622047244094488,
                    "duration": 0.42857149999997546
                },
                {
                    "name": "C3",
                    "midi": 48,
                    "time": 486.8572239999908,
                    "velocity": 0.23622047244094488,
                    "duration": 0.42857149999997546
                },
                {
                    "name": "A3",
                    "midi": 57,
                    "time": 486.8572239999908,
                    "velocity": 0.28346456692913385,
                    "duration": 0.42857149999997546
                },
                {
                    "name": "F#3",
                    "midi": 54,
                    "time": 487.2857954999908,
                    "velocity": 0.2204724409448819,
                    "duration": 0.6250001041666451
                },
                {
                    "name": "C3",
                    "midi": 48,
                    "time": 487.2857954999908,
                    "velocity": 0.2204724409448819,
                    "duration": 0.6250001041666451
                },
                {
                    "name": "D3",
                    "midi": 50,
                    "time": 487.2857954999908,
                    "velocity": 0.2204724409448819,
                    "duration": 0.6250001041666451
                },
                {
                    "name": "A3",
                    "midi": 57,
                    "time": 487.2857954999908,
                    "velocity": 0.25984251968503935,
                    "duration": 0.6250001041666451
                },
                {
                    "name": "B1",
                    "midi": 35,
                    "time": 487.92865274999076,
                    "velocity": 0.3700787401574803,
                    "duration": 0.4071429250000165
                },
                {
                    "name": "G2",
                    "midi": 43,
                    "time": 487.92865274999076,
                    "velocity": 0.3700787401574803,
                    "duration": 0.4071429250000165
                },
                {
                    "name": "D2",
                    "midi": 38,
                    "time": 487.92865274999076,
                    "velocity": 0.3700787401574803,
                    "duration": 0.4071429250000165
                },
                {
                    "name": "B2",
                    "midi": 47,
                    "time": 487.92865274999076,
                    "velocity": 0.5196850393700787,
                    "duration": 0.4071429250000165
                },
                {
                    "name": "G2",
                    "midi": 43,
                    "time": 488.3572242499908,
                    "velocity": 0.30708661417322836,
                    "duration": 0.20357146250000824
                },
                {
                    "name": "D2",
                    "midi": 38,
                    "time": 488.3572242499908,
                    "velocity": 0.30708661417322836,
                    "duration": 0.20357146250000824
                },
                {
                    "name": "B1",
                    "midi": 35,
                    "time": 488.3572242499908,
                    "velocity": 0.30708661417322836,
                    "duration": 0.20357146250000824
                },
                {
                    "name": "B2",
                    "midi": 47,
                    "time": 488.3572242499908,
                    "velocity": 0.4409448818897638,
                    "duration": 0.20357146250000824
                },
                {
                    "name": "B1",
                    "midi": 35,
                    "time": 488.5715099999908,
                    "velocity": 0.4409448818897638,
                    "duration": 0.21428574999998773
                },
                {
                    "name": "D2",
                    "midi": 38,
                    "time": 488.5715099999908,
                    "velocity": 0.4409448818897638,
                    "duration": 0.21428574999998773
                },
                {
                    "name": "G2",
                    "midi": 43,
                    "time": 488.5715099999908,
                    "velocity": 0.4409448818897638,
                    "duration": 0.21428574999998773
                },
                {
                    "name": "B2",
                    "midi": 47,
                    "time": 488.5715099999908,
                    "velocity": 0.5196850393700787,
                    "duration": 0.21428574999998773
                },
                {
                    "name": "B1",
                    "midi": 35,
                    "time": 489.00008149999076,
                    "velocity": 0.4409448818897638,
                    "duration": 0.21428574999998773
                },
                {
                    "name": "B2",
                    "midi": 47,
                    "time": 489.00008149999076,
                    "velocity": 0.5196850393700787,
                    "duration": 0.21428574999998773
                },
                {
                    "name": "B1",
                    "midi": 35,
                    "time": 489.42865299999073,
                    "velocity": 0.4251968503937008,
                    "duration": 0.21428574999998773
                },
                {
                    "name": "B2",
                    "midi": 47,
                    "time": 489.42865299999073,
                    "velocity": 0.5039370078740157,
                    "duration": 0.21428574999998773
                },
                {
                    "name": "B1",
                    "midi": 35,
                    "time": 489.8572244999907,
                    "velocity": 0.4094488188976378,
                    "duration": 0.21428574999998773
                },
                {
                    "name": "B2",
                    "midi": 47,
                    "time": 489.8572244999907,
                    "velocity": 0.4881889763779528,
                    "duration": 0.21428574999998773
                },
                {
                    "name": "B1",
                    "midi": 35,
                    "time": 490.2857959999907,
                    "velocity": 0.4015748031496063,
                    "duration": 0.21428574999998773
                },
                {
                    "name": "B2",
                    "midi": 47,
                    "time": 490.2857959999907,
                    "velocity": 0.47244094488188976,
                    "duration": 0.21428574999998773
                },
                {
                    "name": "B1",
                    "midi": 35,
                    "time": 490.71436749999066,
                    "velocity": 0.3858267716535433,
                    "duration": 0.21428574999998773
                },
                {
                    "name": "B2",
                    "midi": 47,
                    "time": 490.71436749999066,
                    "velocity": 0.4566929133858268,
                    "duration": 0.21428574999998773
                },
                {
                    "name": "B1",
                    "midi": 35,
                    "time": 491.14293899999063,
                    "velocity": 0.47244094488188976,
                    "duration": 2.5714290000000233
                },
                {
                    "name": "B2",
                    "midi": 47,
                    "time": 491.14293899999063,
                    "velocity": 0.5590551181102362,
                    "duration": 2.5714290000000233
                },
                {
                    "name": "B1",
                    "midi": 35,
                    "time": 493.71436799999066,
                    "velocity": 0.4409448818897638,
                    "duration": 2.5714290000000233
                },
                {
                    "name": "B2",
                    "midi": 47,
                    "time": 493.71436799999066,
                    "velocity": 0.5196850393700787,
                    "duration": 2.5714290000000233
                },
                {
                    "name": "B2",
                    "midi": 47,
                    "time": 496.2857969999907,
                    "velocity": 0.25984251968503935,
                    "duration": 2.5714290000000233
                },
                {
                    "name": "D3",
                    "midi": 50,
                    "time": 496.2857969999907,
                    "velocity": 0.25984251968503935,
                    "duration": 2.5714290000000233
                },
                {
                    "name": "E3",
                    "midi": 52,
                    "time": 496.2857969999907,
                    "velocity": 0.30708661417322836,
                    "duration": 2.5714290000000233
                },
                {
                    "name": "B2",
                    "midi": 47,
                    "time": 498.8572259999907,
                    "velocity": 0.25984251968503935,
                    "duration": 2.5714290000000233
                },
                {
                    "name": "D3",
                    "midi": 50,
                    "time": 498.8572259999907,
                    "velocity": 0.25984251968503935,
                    "duration": 2.5714290000000233
                },
                {
                    "name": "E3",
                    "midi": 52,
                    "time": 498.8572259999907,
                    "velocity": 0.30708661417322836,
                    "duration": 2.5714290000000233
                },
                {
                    "name": "C#3",
                    "midi": 49,
                    "time": 501.4286549999907,
                    "velocity": 0.28346456692913385,
                    "duration": 0.42857149999997546
                },
                {
                    "name": "E3",
                    "midi": 52,
                    "time": 501.4286549999907,
                    "velocity": 0.28346456692913385,
                    "duration": 0.42857149999997546
                },
                {
                    "name": "A3",
                    "midi": 57,
                    "time": 501.4286549999907,
                    "velocity": 0.33858267716535434,
                    "duration": 0.42857149999997546
                },
                {
                    "name": "A3",
                    "midi": 57,
                    "time": 501.8572264999907,
                    "velocity": 0.23622047244094488,
                    "duration": 0.42857149999997546
                },
                {
                    "name": "B3",
                    "midi": 59,
                    "time": 501.8572264999907,
                    "velocity": 0.28346456692913385,
                    "duration": 0.42857149999997546
                },
                {
                    "name": "F#3",
                    "midi": 54,
                    "time": 501.8572264999907,
                    "velocity": 0.23622047244094488,
                    "duration": 0.42857149999997546
                },
                {
                    "name": "C#4",
                    "midi": 61,
                    "time": 502.2857979999907,
                    "velocity": 0.33858267716535434,
                    "duration": 0.8571430000000078
                },
                {
                    "name": "E3",
                    "midi": 52,
                    "time": 502.2857979999907,
                    "velocity": 0.28346456692913385,
                    "duration": 0.8571430000000078
                },
                {
                    "name": "A3",
                    "midi": 57,
                    "time": 502.2857979999907,
                    "velocity": 0.28346456692913385,
                    "duration": 0.8571430000000078
                },
                {
                    "name": "E2",
                    "midi": 40,
                    "time": 503.1429409999907,
                    "velocity": 0.2677165354330709,
                    "duration": 0.8571430000000078
                },
                {
                    "name": "E3",
                    "midi": 52,
                    "time": 503.1429409999907,
                    "velocity": 0.3228346456692913,
                    "duration": 0.8571430000000078
                },
                {
                    "name": "A2",
                    "midi": 45,
                    "time": 504.0000839999907,
                    "velocity": 0.2204724409448819,
                    "duration": 0.21428574999998773
                },
                {
                    "name": "E3",
                    "midi": 52,
                    "time": 504.0000839999907,
                    "velocity": 0.25984251968503935,
                    "duration": 0.21428574999998773
                },
                {
                    "name": "A2",
                    "midi": 45,
                    "time": 505.2857984999907,
                    "velocity": 0.28346456692913385,
                    "duration": 0.38571435000000065
                },
                {
                    "name": "B2",
                    "midi": 47,
                    "time": 505.71436999999065,
                    "velocity": 0.3464566929133858,
                    "duration": 0.38571435000000065
                },
                {
                    "name": "G#2",
                    "midi": 44,
                    "time": 506.1429414999906,
                    "velocity": 0.31496062992125984,
                    "duration": 0.38571435000000065
                },
                {
                    "name": "A2",
                    "midi": 45,
                    "time": 506.5715129999906,
                    "velocity": 0.3779527559055118,
                    "duration": 1.2857144999999832
                },
                {
                    "name": "G3",
                    "midi": 55,
                    "time": 507.8572274999906,
                    "velocity": 0.30708661417322836,
                    "duration": 0.38571435000000065
                },
                {
                    "name": "E3",
                    "midi": 52,
                    "time": 508.28579899999056,
                    "velocity": 0.3779527559055118,
                    "duration": 0.38571435000000065
                },
                {
                    "name": "C#3",
                    "midi": 49,
                    "time": 508.71437049999054,
                    "velocity": 0.3464566929133858,
                    "duration": 0.38571435000000065
                },
                {
                    "name": "A2",
                    "midi": 45,
                    "time": 509.1429419999905,
                    "velocity": 0.3779527559055118,
                    "duration": 1.2857144999999832
                },
                {
                    "name": "A2",
                    "midi": 45,
                    "time": 510.4286564999905,
                    "velocity": 0.28346456692913385,
                    "duration": 0.38571435000000065
                },
                {
                    "name": "B2",
                    "midi": 47,
                    "time": 510.85722799999047,
                    "velocity": 0.3464566929133858,
                    "duration": 0.38571435000000065
                },
                {
                    "name": "G#2",
                    "midi": 44,
                    "time": 511.28579949999045,
                    "velocity": 0.31496062992125984,
                    "duration": 0.38571435000000065
                },
                {
                    "name": "A2",
                    "midi": 45,
                    "time": 511.7143709999904,
                    "velocity": 0.3464566929133858,
                    "duration": 1.2857144999999832
                },
                {
                    "name": "F3",
                    "midi": 53,
                    "time": 513.0000854999904,
                    "velocity": 0.30708661417322836,
                    "duration": 0.3857143499999438
                },
                {
                    "name": "D3",
                    "midi": 50,
                    "time": 513.4286569999904,
                    "velocity": 0.3543307086614173,
                    "duration": 0.64285725000002
                },
                {
                    "name": "B2",
                    "midi": 47,
                    "time": 514.0715142499904,
                    "velocity": 0.29133858267716534,
                    "duration": 0.21428575000004457
                },
                {
                    "name": "A2",
                    "midi": 45,
                    "time": 514.2857999999904,
                    "velocity": 0.33070866141732286,
                    "duration": 1.28571450000004
                },
                {
                    "name": "A1",
                    "midi": 33,
                    "time": 515.5715144999905,
                    "velocity": 0.2440944881889764,
                    "duration": 0.3857143499999438
                },
                {
                    "name": "B1",
                    "midi": 35,
                    "time": 516.0000859999905,
                    "velocity": 0.29133858267716534,
                    "duration": 0.3857143499999438
                },
                {
                    "name": "G#1",
                    "midi": 32,
                    "time": 516.4286574999904,
                    "velocity": 0.2677165354330709,
                    "duration": 0.3857143499999438
                },
                {
                    "name": "A1",
                    "midi": 33,
                    "time": 516.8572289999904,
                    "velocity": 0.29133858267716534,
                    "duration": 1.28571450000004
                },
                {
                    "name": "C#2",
                    "midi": 37,
                    "time": 518.1429434999905,
                    "velocity": 0.28346456692913385,
                    "duration": 0.32142862499995317
                },
                {
                    "name": "E2",
                    "midi": 40,
                    "time": 518.4643721249904,
                    "velocity": 0.2204724409448819,
                    "duration": 0.10714287500002229
                },
                {
                    "name": "G2",
                    "midi": 43,
                    "time": 518.5715149999904,
                    "velocity": 0.31496062992125984,
                    "duration": 0.3857143499999438
                },
                {
                    "name": "A#2",
                    "midi": 46,
                    "time": 519.0000864999904,
                    "velocity": 0.25196850393700787,
                    "duration": 0.3857143499999438
                },
                {
                    "name": "A1",
                    "midi": 33,
                    "time": 519.4286579999904,
                    "velocity": 0.2755905511811024,
                    "duration": 1.28571450000004
                },
                {
                    "name": "A1",
                    "midi": 33,
                    "time": 520.7143724999904,
                    "velocity": 0.2204724409448819,
                    "duration": 0.3857143499999438
                },
                {
                    "name": "B1",
                    "midi": 35,
                    "time": 521.1429439999904,
                    "velocity": 0.25984251968503935,
                    "duration": 0.3857143499999438
                },
                {
                    "name": "G#1",
                    "midi": 32,
                    "time": 521.5715154999904,
                    "velocity": 0.23622047244094488,
                    "duration": 0.3857143499999438
                },
                {
                    "name": "A1",
                    "midi": 33,
                    "time": 522.0000869999903,
                    "velocity": 0.25984251968503935,
                    "duration": 1.28571450000004
                },
                {
                    "name": "F2",
                    "midi": 41,
                    "time": 523.2858014999904,
                    "velocity": 0.25196850393700787,
                    "duration": 0.32142862499995317
                },
                {
                    "name": "E2",
                    "midi": 40,
                    "time": 523.6072301249903,
                    "velocity": 0.2125984251968504,
                    "duration": 0.10714287500002229
                },
                {
                    "name": "D2",
                    "midi": 38,
                    "time": 523.6893729958236,
                    "velocity": 0.2440944881889764,
                    "duration": 0.05357143750006799
                },
                {
                    "name": "E2",
                    "midi": 40,
                    "time": 523.7429444333237,
                    "velocity": 0.1889763779527559,
                    "duration": 0.0535714374999543
                },
                {
                    "name": "D2",
                    "midi": 38,
                    "time": 523.7965158708237,
                    "velocity": 0.2440944881889764,
                    "duration": 0.0535714374999543
                },
                {
                    "name": "E2",
                    "midi": 40,
                    "time": 523.8500873083236,
                    "velocity": 0.1968503937007874,
                    "duration": 0.0535714374999543
                },
                {
                    "name": "D2",
                    "midi": 38,
                    "time": 523.9036587458236,
                    "velocity": 0.2440944881889764,
                    "duration": 0.07142858333338609
                },
                {
                    "name": "E2",
                    "midi": 40,
                    "time": 523.975087329157,
                    "velocity": 0.2047244094488189,
                    "duration": 0.007142858333281765
                },
                {
                    "name": "D2",
                    "midi": 38,
                    "time": 524.0465159124902,
                    "velocity": 0.2440944881889764,
                    "duration": 0.07142858333338609
                },
                {
                    "name": "C#2",
                    "midi": 37,
                    "time": 524.1429444999903,
                    "velocity": 0.1968503937007874,
                    "duration": 0.32142862499995317
                },
                {
                    "name": "B1",
                    "midi": 35,
                    "time": 524.4643731249903,
                    "velocity": 0.18110236220472442,
                    "duration": 0.10714287500002229
                },
                {
                    "name": "A1",
                    "midi": 33,
                    "time": 524.5715159999903,
                    "velocity": 0.25984251968503935,
                    "duration": 0.8571429999999509
                },
                {
                    "name": "C#2",
                    "midi": 37,
                    "time": 525.4286589999903,
                    "velocity": 0.2440944881889764,
                    "duration": 0.8571429999999509
                },
                {
                    "name": "E2",
                    "midi": 40,
                    "time": 526.2858019999902,
                    "velocity": 0.2283464566929134,
                    "duration": 0.8571429999999509
                },
                {
                    "name": "A1",
                    "midi": 33,
                    "time": 527.1429449999902,
                    "velocity": 0.14173228346456693,
                    "duration": 2.5714289999999664
                },
                {
                    "name": "C#2",
                    "midi": 37,
                    "time": 527.1429449999902,
                    "velocity": 0.14173228346456693,
                    "duration": 2.5714289999999664
                },
                {
                    "name": "E2",
                    "midi": 40,
                    "time": 527.1429449999902,
                    "velocity": 0.14173228346456693,
                    "duration": 2.5714289999999664
                },
                {
                    "name": "A2",
                    "midi": 45,
                    "time": 527.1429449999902,
                    "velocity": 0.16535433070866143,
                    "duration": 2.5714289999999664
                }
            ],
            "controlChanges": {},
            "id": 2,
            "name": "Piano left",
            "instrumentNumber": 0,
            "instrument": "acoustic grand piano",
            "instrumentFamily": "piano",
            "channelNumber": 0,
            "isPercussion": false
        },
        {
            "startTime": 0,
            "duration": 0,
            "length": 0,
            "notes": [],
            "controlChanges": {
                "64": [
                    {
                        "number": 64,
                        "time": 1.392857375,
                        "value": 1
                    },
                    {
                        "number": 64,
                        "time": 1.7303574312499999,
                        "value": 0
                    },
                    {
                        "number": 64,
                        "time": 1.9392860374999998,
                        "value": 1
                    },
                    {
                        "number": 64,
                        "time": 2.1625003604166664,
                        "value": 0
                    },
                    {
                        "number": 64,
                        "time": 2.3678575375,
                        "value": 1
                    },
                    {
                        "number": 64,
                        "time": 2.5714289999999997,
                        "value": 0
                    },
                    {
                        "number": 64,
                        "time": 2.857143333333333,
                        "value": 1
                    },
                    {
                        "number": 64,
                        "time": 3.8714292166666664,
                        "value": 0
                    },
                    {
                        "number": 64,
                        "time": 4.101786397916666,
                        "value": 1
                    },
                    {
                        "number": 64,
                        "time": 4.732143645833333,
                        "value": 0
                    },
                    {
                        "number": 64,
                        "time": 5.26607230625,
                        "value": 1
                    },
                    {
                        "number": 64,
                        "time": 6.01607243125,
                        "value": 0
                    },
                    {
                        "number": 64,
                        "time": 6.550001091666666,
                        "value": 1
                    },
                    {
                        "number": 64,
                        "time": 6.880358289583333,
                        "value": 0
                    },
                    {
                        "number": 64,
                        "time": 7.082144037499999,
                        "value": 1
                    },
                    {
                        "number": 64,
                        "time": 7.312501218749999,
                        "value": 0
                    },
                    {
                        "number": 64,
                        "time": 7.469644102083332,
                        "value": 1
                    },
                    {
                        "number": 64,
                        "time": 7.725001287499999,
                        "value": 0
                    },
                    {
                        "number": 64,
                        "time": 7.810715587499999,
                        "value": 1
                    },
                    {
                        "number": 64,
                        "time": 9.01607293125,
                        "value": 0
                    },
                    {
                        "number": 64,
                        "time": 9.0964300875,
                        "value": 1
                    },
                    {
                        "number": 64,
                        "time": 9.453573004166667,
                        "value": 0
                    },
                    {
                        "number": 64,
                        "time": 9.592858741666667,
                        "value": 1
                    },
                    {
                        "number": 64,
                        "time": 9.88393021875,
                        "value": 0
                    },
                    {
                        "number": 64,
                        "time": 9.964287375000001,
                        "value": 1
                    },
                    {
                        "number": 64,
                        "time": 10.285716,
                        "value": 0
                    },
                    {
                        "number": 64,
                        "time": 10.530358897916667,
                        "value": 1
                    },
                    {
                        "number": 64,
                        "time": 11.167859004166667,
                        "value": 0
                    },
                    {
                        "number": 64,
                        "time": 11.678573375000001,
                        "value": 1
                    },
                    {
                        "number": 64,
                        "time": 12.016073431250001,
                        "value": 0
                    },
                    {
                        "number": 64,
                        "time": 12.205359177083334,
                        "value": 1
                    },
                    {
                        "number": 64,
                        "time": 12.453573504166668,
                        "value": 0
                    },
                    {
                        "number": 64,
                        "time": 12.612502102083335,
                        "value": 1
                    },
                    {
                        "number": 64,
                        "time": 12.864287858333334,
                        "value": 0
                    },
                    {
                        "number": 64,
                        "time": 13.10893075625,
                        "value": 1
                    },
                    {
                        "number": 64,
                        "time": 14.157145216666667,
                        "value": 0
                    },
                    {
                        "number": 64,
                        "time": 14.387502397916666,
                        "value": 1
                    },
                    {
                        "number": 64,
                        "time": 15.017859645833333,
                        "value": 0
                    },
                    {
                        "number": 64,
                        "time": 15.55178830625,
                        "value": 1
                    },
                    {
                        "number": 64,
                        "time": 16.72321707291667,
                        "value": 0
                    },
                    {
                        "number": 64,
                        "time": 16.907145675000002,
                        "value": 1
                    },
                    {
                        "number": 64,
                        "time": 17.166074289583335,
                        "value": 0
                    },
                    {
                        "number": 64,
                        "time": 17.321431458333336,
                        "value": 1
                    },
                    {
                        "number": 64,
                        "time": 18.01428871666667,
                        "value": 0
                    },
                    {
                        "number": 64,
                        "time": 18.29286019166667,
                        "value": 1
                    },
                    {
                        "number": 64,
                        "time": 19.30178893125,
                        "value": 0
                    },
                    {
                        "number": 64,
                        "time": 19.410717520833334,
                        "value": 1
                    },
                    {
                        "number": 64,
                        "time": 19.739289004166668,
                        "value": 0
                    },
                    {
                        "number": 64,
                        "time": 19.89464617291667,
                        "value": 1
                    },
                    {
                        "number": 64,
                        "time": 20.571432,
                        "value": 0
                    },
                    {
                        "number": 64,
                        "time": 20.905360627083336,
                        "value": 1
                    },
                    {
                        "number": 64,
                        "time": 21.45357500416667,
                        "value": 0
                    },
                    {
                        "number": 64,
                        "time": 21.964289375000003,
                        "value": 1
                    },
                    {
                        "number": 64,
                        "time": 22.301789431250004,
                        "value": 0
                    },
                    {
                        "number": 64,
                        "time": 22.510718037500006,
                        "value": 1
                    },
                    {
                        "number": 64,
                        "time": 22.733932360416674,
                        "value": 0
                    },
                    {
                        "number": 64,
                        "time": 22.939289537500006,
                        "value": 1
                    },
                    {
                        "number": 64,
                        "time": 23.142861000000007,
                        "value": 0
                    },
                    {
                        "number": 64,
                        "time": 23.42857533333334,
                        "value": 1
                    },
                    {
                        "number": 64,
                        "time": 24.442861216666675,
                        "value": 0
                    },
                    {
                        "number": 64,
                        "time": 24.673218397916674,
                        "value": 1
                    },
                    {
                        "number": 64,
                        "time": 25.30357564583334,
                        "value": 0
                    },
                    {
                        "number": 64,
                        "time": 25.837504306250008,
                        "value": 1
                    },
                    {
                        "number": 64,
                        "time": 26.587504431250007,
                        "value": 0
                    },
                    {
                        "number": 64,
                        "time": 27.121433091666674,
                        "value": 1
                    },
                    {
                        "number": 64,
                        "time": 27.45179028958334,
                        "value": 0
                    },
                    {
                        "number": 64,
                        "time": 27.653576037500006,
                        "value": 1
                    },
                    {
                        "number": 64,
                        "time": 27.883933218750006,
                        "value": 0
                    },
                    {
                        "number": 64,
                        "time": 28.041076102083338,
                        "value": 1
                    },
                    {
                        "number": 64,
                        "time": 28.296433287500005,
                        "value": 0
                    },
                    {
                        "number": 64,
                        "time": 28.382147587500004,
                        "value": 1
                    },
                    {
                        "number": 64,
                        "time": 29.587504931250002,
                        "value": 0
                    },
                    {
                        "number": 64,
                        "time": 29.6678620875,
                        "value": 1
                    },
                    {
                        "number": 64,
                        "time": 30.02500500416667,
                        "value": 0
                    },
                    {
                        "number": 64,
                        "time": 30.16429074166667,
                        "value": 1
                    },
                    {
                        "number": 64,
                        "time": 30.455362218750004,
                        "value": 0
                    },
                    {
                        "number": 64,
                        "time": 30.535719375000003,
                        "value": 1
                    },
                    {
                        "number": 64,
                        "time": 30.857148000000002,
                        "value": 0
                    },
                    {
                        "number": 64,
                        "time": 31.10179089791667,
                        "value": 1
                    },
                    {
                        "number": 64,
                        "time": 31.739291004166667,
                        "value": 0
                    },
                    {
                        "number": 64,
                        "time": 32.250005375,
                        "value": 1
                    },
                    {
                        "number": 64,
                        "time": 32.58750543125,
                        "value": 0
                    },
                    {
                        "number": 64,
                        "time": 32.77679117708333,
                        "value": 1
                    },
                    {
                        "number": 64,
                        "time": 33.025005504166664,
                        "value": 0
                    },
                    {
                        "number": 64,
                        "time": 33.18393410208333,
                        "value": 1
                    },
                    {
                        "number": 64,
                        "time": 33.43571985833333,
                        "value": 0
                    },
                    {
                        "number": 64,
                        "time": 33.68036275625,
                        "value": 1
                    },
                    {
                        "number": 64,
                        "time": 34.728577216666665,
                        "value": 0
                    },
                    {
                        "number": 64,
                        "time": 34.958934397916664,
                        "value": 1
                    },
                    {
                        "number": 64,
                        "time": 35.58929164583333,
                        "value": 0
                    },
                    {
                        "number": 64,
                        "time": 36.12322030624999,
                        "value": 1
                    },
                    {
                        "number": 64,
                        "time": 37.294649072916656,
                        "value": 0
                    },
                    {
                        "number": 64,
                        "time": 37.47857767499999,
                        "value": 1
                    },
                    {
                        "number": 64,
                        "time": 37.73750628958332,
                        "value": 0
                    },
                    {
                        "number": 64,
                        "time": 37.89286345833332,
                        "value": 1
                    },
                    {
                        "number": 64,
                        "time": 38.58572071666666,
                        "value": 0
                    },
                    {
                        "number": 64,
                        "time": 38.86429219166666,
                        "value": 1
                    },
                    {
                        "number": 64,
                        "time": 39.87322093124999,
                        "value": 0
                    },
                    {
                        "number": 64,
                        "time": 39.982149520833325,
                        "value": 1
                    },
                    {
                        "number": 64,
                        "time": 40.31072100416666,
                        "value": 0
                    },
                    {
                        "number": 64,
                        "time": 40.46607817291666,
                        "value": 1
                    },
                    {
                        "number": 64,
                        "time": 41.142863999999996,
                        "value": 0
                    },
                    {
                        "number": 64,
                        "time": 41.47679262708333,
                        "value": 1
                    },
                    {
                        "number": 64,
                        "time": 42.45179278958333,
                        "value": 0
                    },
                    {
                        "number": 64,
                        "time": 42.61429281666666,
                        "value": 1
                    },
                    {
                        "number": 64,
                        "time": 42.88215000416666,
                        "value": 0
                    },
                    {
                        "number": 64,
                        "time": 42.98572144999999,
                        "value": 1
                    },
                    {
                        "number": 64,
                        "time": 43.296435787499995,
                        "value": 0
                    },
                    {
                        "number": 64,
                        "time": 43.41429295,
                        "value": 1
                    },
                    {
                        "number": 64,
                        "time": 43.719650143749995,
                        "value": 0
                    },
                    {
                        "number": 64,
                        "time": 43.96965018541666,
                        "value": 1
                    },
                    {
                        "number": 64,
                        "time": 45.00893607291666,
                        "value": 0
                    },
                    {
                        "number": 64,
                        "time": 45.192864674999996,
                        "value": 1
                    },
                    {
                        "number": 64,
                        "time": 45.45179328958333,
                        "value": 0
                    },
                    {
                        "number": 64,
                        "time": 45.60715045833333,
                        "value": 1
                    },
                    {
                        "number": 64,
                        "time": 46.30000771666666,
                        "value": 0
                    },
                    {
                        "number": 64,
                        "time": 46.57857919166666,
                        "value": 1
                    },
                    {
                        "number": 64,
                        "time": 47.58036507291666,
                        "value": 0
                    },
                    {
                        "number": 64,
                        "time": 47.764293675,
                        "value": 1
                    },
                    {
                        "number": 64,
                        "time": 48.02322228958333,
                        "value": 0
                    },
                    {
                        "number": 64,
                        "time": 48.17857945833333,
                        "value": 1
                    },
                    {
                        "number": 64,
                        "time": 48.451793789583334,
                        "value": 0
                    },
                    {
                        "number": 64,
                        "time": 48.592865241666665,
                        "value": 1
                    },
                    {
                        "number": 64,
                        "time": 48.871436716666665,
                        "value": 0
                    },
                    {
                        "number": 64,
                        "time": 49.150008191666664,
                        "value": 1
                    },
                    {
                        "number": 64,
                        "time": 49.294651072916665,
                        "value": 0
                    },
                    {
                        "number": 64,
                        "time": 49.478579675,
                        "value": 1
                    },
                    {
                        "number": 64,
                        "time": 49.73750828958333,
                        "value": 0
                    },
                    {
                        "number": 64,
                        "time": 49.89286545833333,
                        "value": 1
                    },
                    {
                        "number": 64,
                        "time": 50.166079789583335,
                        "value": 0
                    },
                    {
                        "number": 64,
                        "time": 50.307151241666666,
                        "value": 1
                    },
                    {
                        "number": 64,
                        "time": 50.585722716666666,
                        "value": 0
                    },
                    {
                        "number": 64,
                        "time": 50.864294191666666,
                        "value": 1
                    },
                    {
                        "number": 64,
                        "time": 51.008937072916666,
                        "value": 0
                    },
                    {
                        "number": 64,
                        "time": 51.192865675,
                        "value": 1
                    },
                    {
                        "number": 64,
                        "time": 51.45179428958333,
                        "value": 0
                    },
                    {
                        "number": 64,
                        "time": 51.607151458333334,
                        "value": 1
                    },
                    {
                        "number": 64,
                        "time": 51.88036578958334,
                        "value": 0
                    },
                    {
                        "number": 64,
                        "time": 52.02143724166667,
                        "value": 1
                    },
                    {
                        "number": 64,
                        "time": 52.30000871666667,
                        "value": 0
                    },
                    {
                        "number": 64,
                        "time": 52.42858016666667,
                        "value": 1
                    },
                    {
                        "number": 64,
                        "time": 52.7250087875,
                        "value": 0
                    },
                    {
                        "number": 64,
                        "time": 52.821437375,
                        "value": 1
                    },
                    {
                        "number": 64,
                        "time": 54.05893758125,
                        "value": 0
                    },
                    {
                        "number": 64,
                        "time": 54.22143760833333,
                        "value": 1
                    },
                    {
                        "number": 64,
                        "time": 54.442866216666665,
                        "value": 0
                    },
                    {
                        "number": 64,
                        "time": 54.591080527083335,
                        "value": 1
                    },
                    {
                        "number": 64,
                        "time": 54.873223431250004,
                        "value": 0
                    },
                    {
                        "number": 64,
                        "time": 55.05893774791667,
                        "value": 1
                    },
                    {
                        "number": 64,
                        "time": 55.73929500416667,
                        "value": 0
                    },
                    {
                        "number": 64,
                        "time": 55.97858075833334,
                        "value": 1
                    },
                    {
                        "number": 64,
                        "time": 56.571438,
                        "value": 0
                    },
                    {
                        "number": 64,
                        "time": 57.866081072916664,
                        "value": 0
                    },
                    {
                        "number": 64,
                        "time": 58.050009675,
                        "value": 1
                    },
                    {
                        "number": 64,
                        "time": 59.160724145833335,
                        "value": 0
                    },
                    {
                        "number": 64,
                        "time": 59.435724191666665,
                        "value": 1
                    },
                    {
                        "number": 64,
                        "time": 60.21429575,
                        "value": 0
                    },
                    {
                        "number": 64,
                        "time": 60.621438675,
                        "value": 1
                    },
                    {
                        "number": 64,
                        "time": 61.73215314583334,
                        "value": 0
                    },
                    {
                        "number": 64,
                        "time": 62.1428675,
                        "value": 1
                    },
                    {
                        "number": 64,
                        "time": 62.678581875,
                        "value": 0
                    },
                    {
                        "number": 64,
                        "time": 63.192867675,
                        "value": 1
                    },
                    {
                        "number": 64,
                        "time": 64.30358214583333,
                        "value": 0
                    },
                    {
                        "number": 64,
                        "time": 64.53036789791666,
                        "value": 1
                    },
                    {
                        "number": 64,
                        "time": 64.73215364583334,
                        "value": 0
                    },
                    {
                        "number": 64,
                        "time": 64.89822510208333,
                        "value": 1
                    },
                    {
                        "number": 64,
                        "time": 65.16608228958333,
                        "value": 0
                    },
                    {
                        "number": 64,
                        "time": 65.34822517708334,
                        "value": 1
                    },
                    {
                        "number": 64,
                        "time": 65.59822521875,
                        "value": 0
                    },
                    {
                        "number": 64,
                        "time": 65.77679667708334,
                        "value": 1
                    },
                    {
                        "number": 64,
                        "time": 66.02679671875,
                        "value": 0
                    },
                    {
                        "number": 64,
                        "time": 66.22501103750001,
                        "value": 1
                    },
                    {
                        "number": 64,
                        "time": 66.85715400000001,
                        "value": 0
                    },
                    {
                        "number": 64,
                        "time": 67.10179689791667,
                        "value": 1
                    },
                    {
                        "number": 64,
                        "time": 67.72501128750001,
                        "value": 0
                    },
                    {
                        "number": 64,
                        "time": 68.15179707291668,
                        "value": 0
                    },
                    {
                        "number": 64,
                        "time": 68.335725675,
                        "value": 1
                    },
                    {
                        "number": 64,
                        "time": 69.44644014583334,
                        "value": 0
                    },
                    {
                        "number": 64,
                        "time": 69.72144019166667,
                        "value": 1
                    },
                    {
                        "number": 64,
                        "time": 70.50001175000001,
                        "value": 0
                    },
                    {
                        "number": 64,
                        "time": 70.90715467500002,
                        "value": 1
                    },
                    {
                        "number": 64,
                        "time": 72.01786914583334,
                        "value": 0
                    },
                    {
                        "number": 64,
                        "time": 72.42858350000002,
                        "value": 1
                    },
                    {
                        "number": 64,
                        "time": 72.96429787500001,
                        "value": 0
                    },
                    {
                        "number": 64,
                        "time": 73.47858367500001,
                        "value": 1
                    },
                    {
                        "number": 64,
                        "time": 74.58929814583334,
                        "value": 0
                    },
                    {
                        "number": 64,
                        "time": 74.81608389791667,
                        "value": 1
                    },
                    {
                        "number": 64,
                        "time": 75.01786964583334,
                        "value": 0
                    },
                    {
                        "number": 64,
                        "time": 75.18394110208334,
                        "value": 1
                    },
                    {
                        "number": 64,
                        "time": 75.45179828958334,
                        "value": 0
                    },
                    {
                        "number": 64,
                        "time": 75.63394117708334,
                        "value": 1
                    },
                    {
                        "number": 64,
                        "time": 75.88394121875001,
                        "value": 0
                    },
                    {
                        "number": 64,
                        "time": 76.06251267708335,
                        "value": 1
                    },
                    {
                        "number": 64,
                        "time": 76.31251271875001,
                        "value": 0
                    },
                    {
                        "number": 64,
                        "time": 76.51072703750002,
                        "value": 1
                    },
                    {
                        "number": 64,
                        "time": 77.14287000000002,
                        "value": 0
                    },
                    {
                        "number": 64,
                        "time": 77.38751289791668,
                        "value": 1
                    },
                    {
                        "number": 64,
                        "time": 78.01072728750002,
                        "value": 0
                    },
                    {
                        "number": 64,
                        "time": 78.53215594583335,
                        "value": 1
                    },
                    {
                        "number": 64,
                        "time": 78.88394171875002,
                        "value": 0
                    },
                    {
                        "number": 64,
                        "time": 78.99108459375002,
                        "value": 1
                    },
                    {
                        "number": 64,
                        "time": 79.30715607500002,
                        "value": 0
                    },
                    {
                        "number": 64,
                        "time": 79.46429895833336,
                        "value": 1
                    },
                    {
                        "number": 64,
                        "time": 79.71429900000003,
                        "value": 0
                    },
                    {
                        "number": 64,
                        "time": 80.0821562041667,
                        "value": 1
                    },
                    {
                        "number": 64,
                        "time": 81.0089420729167,
                        "value": 0
                    },
                    {
                        "number": 64,
                        "time": 81.19287067500002,
                        "value": 1
                    },
                    {
                        "number": 64,
                        "time": 81.45179928958336,
                        "value": 0
                    },
                    {
                        "number": 64,
                        "time": 81.60715645833336,
                        "value": 1
                    },
                    {
                        "number": 64,
                        "time": 82.3000137166667,
                        "value": 0
                    },
                    {
                        "number": 64,
                        "time": 82.5785851916667,
                        "value": 1
                    },
                    {
                        "number": 64,
                        "time": 83.5803710729167,
                        "value": 0
                    },
                    {
                        "number": 64,
                        "time": 83.76429967500003,
                        "value": 1
                    },
                    {
                        "number": 64,
                        "time": 84.02322828958337,
                        "value": 0
                    },
                    {
                        "number": 64,
                        "time": 84.17858545833337,
                        "value": 1
                    },
                    {
                        "number": 64,
                        "time": 84.8714427166667,
                        "value": 0
                    },
                    {
                        "number": 64,
                        "time": 85.15001419166671,
                        "value": 1
                    },
                    {
                        "number": 64,
                        "time": 86.15180007291671,
                        "value": 0
                    },
                    {
                        "number": 64,
                        "time": 86.33572867500004,
                        "value": 1
                    },
                    {
                        "number": 64,
                        "time": 86.59465728958338,
                        "value": 0
                    },
                    {
                        "number": 64,
                        "time": 86.75001445833338,
                        "value": 1
                    },
                    {
                        "number": 64,
                        "time": 87.02322878958338,
                        "value": 0
                    },
                    {
                        "number": 64,
                        "time": 87.16430024166672,
                        "value": 1
                    },
                    {
                        "number": 64,
                        "time": 87.44287171666673,
                        "value": 0
                    },
                    {
                        "number": 64,
                        "time": 87.72144319166674,
                        "value": 1
                    },
                    {
                        "number": 64,
                        "time": 87.86608607291673,
                        "value": 0
                    },
                    {
                        "number": 64,
                        "time": 88.05001467500006,
                        "value": 1
                    },
                    {
                        "number": 64,
                        "time": 88.3089432895834,
                        "value": 0
                    },
                    {
                        "number": 64,
                        "time": 88.4643004583334,
                        "value": 1
                    },
                    {
                        "number": 64,
                        "time": 88.7375147895834,
                        "value": 0
                    },
                    {
                        "number": 64,
                        "time": 88.87858624166674,
                        "value": 1
                    },
                    {
                        "number": 64,
                        "time": 89.15715771666675,
                        "value": 0
                    },
                    {
                        "number": 64,
                        "time": 89.43572919166675,
                        "value": 1
                    },
                    {
                        "number": 64,
                        "time": 89.59822921875009,
                        "value": 0
                    },
                    {
                        "number": 64,
                        "time": 89.77680067708343,
                        "value": 1
                    },
                    {
                        "number": 64,
                        "time": 90.0268007187501,
                        "value": 0
                    },
                    {
                        "number": 64,
                        "time": 90.2250150375001,
                        "value": 1
                    },
                    {
                        "number": 64,
                        "time": 90.8571580000001,
                        "value": 0
                    },
                    {
                        "number": 64,
                        "time": 91.10180089791676,
                        "value": 1
                    },
                    {
                        "number": 64,
                        "time": 91.2964437875001,
                        "value": 0
                    },
                    {
                        "number": 64,
                        "time": 92.6303725812501,
                        "value": 0
                    },
                    {
                        "number": 64,
                        "time": 92.79287260833344,
                        "value": 1
                    },
                    {
                        "number": 64,
                        "time": 93.01430121666677,
                        "value": 0
                    },
                    {
                        "number": 64,
                        "time": 93.16251552708343,
                        "value": 1
                    },
                    {
                        "number": 64,
                        "time": 93.44465843125009,
                        "value": 0
                    },
                    {
                        "number": 64,
                        "time": 93.63037274791675,
                        "value": 1
                    },
                    {
                        "number": 64,
                        "time": 94.31073000416676,
                        "value": 0
                    },
                    {
                        "number": 64,
                        "time": 94.55001575833343,
                        "value": 1
                    },
                    {
                        "number": 64,
                        "time": 95.1428730000001,
                        "value": 0
                    },
                    {
                        "number": 64,
                        "time": 95.34465874791677,
                        "value": 1
                    },
                    {
                        "number": 64,
                        "time": 96.8678732875001,
                        "value": 0
                    },
                    {
                        "number": 64,
                        "time": 97.00894473958344,
                        "value": 1
                    },
                    {
                        "number": 64,
                        "time": 97.29465907291677,
                        "value": 0
                    },
                    {
                        "number": 64,
                        "time": 97.4250162375001,
                        "value": 1
                    },
                    {
                        "number": 64,
                        "time": 97.7196591437501,
                        "value": 0
                    },
                    {
                        "number": 64,
                        "time": 99.01430221666678,
                        "value": 0
                    },
                    {
                        "number": 64,
                        "time": 99.24465939791678,
                        "value": 1
                    },
                    {
                        "number": 64,
                        "time": 99.87501664583344,
                        "value": 0
                    },
                    {
                        "number": 64,
                        "time": 100.4089453062501,
                        "value": 1
                    },
                    {
                        "number": 64,
                        "time": 101.1589454312501,
                        "value": 0
                    },
                    {
                        "number": 64,
                        "time": 101.69287409166677,
                        "value": 1
                    },
                    {
                        "number": 64,
                        "time": 102.02323128958344,
                        "value": 0
                    },
                    {
                        "number": 64,
                        "time": 102.22501703750011,
                        "value": 1
                    },
                    {
                        "number": 64,
                        "time": 102.45537421875011,
                        "value": 0
                    },
                    {
                        "number": 64,
                        "time": 102.61251710208344,
                        "value": 1
                    },
                    {
                        "number": 64,
                        "time": 102.86787428750011,
                        "value": 0
                    },
                    {
                        "number": 64,
                        "time": 102.95358858750012,
                        "value": 1
                    },
                    {
                        "number": 64,
                        "time": 104.15894593125012,
                        "value": 0
                    },
                    {
                        "number": 64,
                        "time": 104.23930308750012,
                        "value": 1
                    },
                    {
                        "number": 64,
                        "time": 104.59644600416678,
                        "value": 0
                    },
                    {
                        "number": 64,
                        "time": 104.73573174166678,
                        "value": 1
                    },
                    {
                        "number": 64,
                        "time": 105.02680321875012,
                        "value": 0
                    },
                    {
                        "number": 64,
                        "time": 105.10716037500012,
                        "value": 1
                    },
                    {
                        "number": 64,
                        "time": 105.42858900000012,
                        "value": 0
                    },
                    {
                        "number": 64,
                        "time": 105.67323189791678,
                        "value": 1
                    },
                    {
                        "number": 64,
                        "time": 106.31073200416678,
                        "value": 0
                    },
                    {
                        "number": 64,
                        "time": 106.82144637500011,
                        "value": 1
                    },
                    {
                        "number": 64,
                        "time": 107.1589464312501,
                        "value": 0
                    },
                    {
                        "number": 64,
                        "time": 107.34823217708343,
                        "value": 1
                    },
                    {
                        "number": 64,
                        "time": 107.59644650416676,
                        "value": 0
                    },
                    {
                        "number": 64,
                        "time": 107.75537510208343,
                        "value": 1
                    },
                    {
                        "number": 64,
                        "time": 108.00716085833344,
                        "value": 0
                    },
                    {
                        "number": 64,
                        "time": 108.2518037562501,
                        "value": 1
                    },
                    {
                        "number": 64,
                        "time": 109.30001821666677,
                        "value": 0
                    },
                    {
                        "number": 64,
                        "time": 109.53037539791677,
                        "value": 1
                    },
                    {
                        "number": 64,
                        "time": 110.16073264583343,
                        "value": 0
                    },
                    {
                        "number": 64,
                        "time": 110.6946613062501,
                        "value": 1
                    },
                    {
                        "number": 64,
                        "time": 113.16966171875009,
                        "value": 0
                    },
                    {
                        "number": 64,
                        "time": 115.77144786666676,
                        "value": 1
                    },
                    {
                        "number": 64,
                        "time": 117.4500195750001,
                        "value": 0
                    },
                    {
                        "number": 64,
                        "time": 119.58573421666676,
                        "value": 0
                    },
                    {
                        "number": 64,
                        "time": 119.81609139791676,
                        "value": 1
                    },
                    {
                        "number": 64,
                        "time": 120.02323428958343,
                        "value": 0
                    },
                    {
                        "number": 64,
                        "time": 120.1393057375001,
                        "value": 1
                    },
                    {
                        "number": 64,
                        "time": 120.4446629312501,
                        "value": 0
                    },
                    {
                        "number": 64,
                        "time": 120.55537723541676,
                        "value": 1
                    },
                    {
                        "number": 64,
                        "time": 120.85716300000009,
                        "value": 0
                    },
                    {
                        "number": 64,
                        "time": 121.09466303958342,
                        "value": 1
                    },
                    {
                        "number": 64,
                        "time": 122.15180607291676,
                        "value": 0
                    },
                    {
                        "number": 64,
                        "time": 122.33573467500008,
                        "value": 1
                    },
                    {
                        "number": 64,
                        "time": 122.59466328958342,
                        "value": 0
                    },
                    {
                        "number": 64,
                        "time": 122.75002045833342,
                        "value": 1
                    },
                    {
                        "number": 64,
                        "time": 123.0053776437501,
                        "value": 0
                    },
                    {
                        "number": 64,
                        "time": 123.13394909375009,
                        "value": 1
                    },
                    {
                        "number": 64,
                        "time": 123.44287771666676,
                        "value": 0
                    },
                    {
                        "number": 64,
                        "time": 123.53573487500009,
                        "value": 1
                    },
                    {
                        "number": 64,
                        "time": 123.86787778750009,
                        "value": 0
                    },
                    {
                        "number": 64,
                        "time": 123.96430637500009,
                        "value": 1
                    },
                    {
                        "number": 64,
                        "time": 124.30359214583342,
                        "value": 0
                    },
                    {
                        "number": 64,
                        "time": 124.44287788333342,
                        "value": 1
                    },
                    {
                        "number": 64,
                        "time": 125.16787800416675,
                        "value": 0
                    },
                    {
                        "number": 64,
                        "time": 125.32323517291675,
                        "value": 1
                    },
                    {
                        "number": 64,
                        "time": 126.00002100000009,
                        "value": 0
                    },
                    {
                        "number": 64,
                        "time": 126.33394962708343,
                        "value": 1
                    },
                    {
                        "number": 64,
                        "time": 127.30359264583343,
                        "value": 0
                    },
                    {
                        "number": 64,
                        "time": 127.47502124583343,
                        "value": 1
                    },
                    {
                        "number": 64,
                        "time": 128.37502139583344,
                        "value": 0
                    },
                    {
                        "number": 64,
                        "time": 128.69823573541677,
                        "value": 1
                    },
                    {
                        "number": 64,
                        "time": 130.08930739583343,
                        "value": 0
                    },
                    {
                        "number": 64,
                        "time": 130.32323600625008,
                        "value": 1
                    },
                    {
                        "number": 64,
                        "time": 130.9446646812501,
                        "value": 0
                    },
                    {
                        "number": 64,
                        "time": 131.20537901041675,
                        "value": 1
                    },
                    {
                        "number": 64,
                        "time": 131.7660933895834,
                        "value": 0
                    },
                    {
                        "number": 64,
                        "time": 132.4464506458334,
                        "value": 0
                    },
                    {
                        "number": 64,
                        "time": 132.61787924583342,
                        "value": 1
                    },
                    {
                        "number": 64,
                        "time": 133.51787939583343,
                        "value": 0
                    },
                    {
                        "number": 64,
                        "time": 133.84109373541676,
                        "value": 1
                    },
                    {
                        "number": 64,
                        "time": 135.23216539583342,
                        "value": 0
                    },
                    {
                        "number": 64,
                        "time": 135.6482368937501,
                        "value": 1
                    },
                    {
                        "number": 64,
                        "time": 136.0875226812501,
                        "value": 0
                    },
                    {
                        "number": 64,
                        "time": 136.34823701041677,
                        "value": 1
                    },
                    {
                        "number": 64,
                        "time": 136.90895138958342,
                        "value": 0
                    },
                    {
                        "number": 64,
                        "time": 137.80359439583341,
                        "value": 0
                    },
                    {
                        "number": 64,
                        "time": 138.00895157291674,
                        "value": 1
                    },
                    {
                        "number": 64,
                        "time": 138.23395161041674,
                        "value": 0
                    },
                    {
                        "number": 64,
                        "time": 138.37859449166675,
                        "value": 1
                    },
                    {
                        "number": 64,
                        "time": 138.65180882291673,
                        "value": 0
                    },
                    {
                        "number": 64,
                        "time": 138.74466598125008,
                        "value": 1
                    },
                    {
                        "number": 64,
                        "time": 138.8571660000001,
                        "value": 0
                    },
                    {
                        "number": 64,
                        "time": 138.98395173541675,
                        "value": 1
                    },
                    {
                        "number": 64,
                        "time": 139.40002323333343,
                        "value": 0
                    },
                    {
                        "number": 64,
                        "time": 139.55002325833343,
                        "value": 1
                    },
                    {
                        "number": 64,
                        "time": 140.58395200208344,
                        "value": 0
                    },
                    {
                        "number": 64,
                        "time": 140.68573773333344,
                        "value": 1
                    },
                    {
                        "number": 64,
                        "time": 141.42859500000012,
                        "value": 0
                    },
                    {
                        "number": 64,
                        "time": 141.55538073541678,
                        "value": 1
                    },
                    {
                        "number": 64,
                        "time": 141.97145223333345,
                        "value": 0
                    },
                    {
                        "number": 64,
                        "time": 142.12145225833345,
                        "value": 1
                    },
                    {
                        "number": 64,
                        "time": 143.15538100208346,
                        "value": 0
                    },
                    {
                        "number": 64,
                        "time": 143.25716673333346,
                        "value": 1
                    },
                    {
                        "number": 64,
                        "time": 144.00002400000014,
                        "value": 0
                    },
                    {
                        "number": 64,
                        "time": 144.1268097354168,
                        "value": 1
                    },
                    {
                        "number": 64,
                        "time": 144.54288123333347,
                        "value": 0
                    },
                    {
                        "number": 64,
                        "time": 144.69288125833347,
                        "value": 1
                    },
                    {
                        "number": 64,
                        "time": 145.72681000208348,
                        "value": 0
                    },
                    {
                        "number": 64,
                        "time": 145.8285957333335,
                        "value": 1
                    },
                    {
                        "number": 64,
                        "time": 146.57145300000016,
                        "value": 0
                    },
                    {
                        "number": 64,
                        "time": 146.69823873541682,
                        "value": 1
                    },
                    {
                        "number": 64,
                        "time": 147.1143102333335,
                        "value": 0
                    },
                    {
                        "number": 64,
                        "time": 147.2643102583335,
                        "value": 1
                    },
                    {
                        "number": 64,
                        "time": 147.64288175000016,
                        "value": 0
                    },
                    {
                        "number": 64,
                        "time": 147.76966748541682,
                        "value": 1
                    },
                    {
                        "number": 64,
                        "time": 148.28573900000015,
                        "value": 0
                    },
                    {
                        "number": 64,
                        "time": 148.4125247354168,
                        "value": 1
                    },
                    {
                        "number": 64,
                        "time": 148.82859623333349,
                        "value": 0
                    },
                    {
                        "number": 64,
                        "time": 148.97859625833348,
                        "value": 1
                    },
                    {
                        "number": 64,
                        "time": 149.35716775000014,
                        "value": 0
                    },
                    {
                        "number": 64,
                        "time": 149.4839534854168,
                        "value": 1
                    },
                    {
                        "number": 64,
                        "time": 151.07145375000013,
                        "value": 0
                    },
                    {
                        "number": 64,
                        "time": 151.2357394916668,
                        "value": 1
                    },
                    {
                        "number": 64,
                        "time": 151.74645386250015,
                        "value": 0
                    },
                    {
                        "number": 64,
                        "time": 151.88752531458348,
                        "value": 1
                    },
                    {
                        "number": 64,
                        "time": 152.58038257291682,
                        "value": 0
                    },
                    {
                        "number": 64,
                        "time": 152.72502545416683,
                        "value": 1
                    },
                    {
                        "number": 64,
                        "time": 153.4410970020835,
                        "value": 0
                    },
                    {
                        "number": 64,
                        "time": 153.5428827333335,
                        "value": 1
                    },
                    {
                        "number": 64,
                        "time": 154.31788286250017,
                        "value": 0
                    },
                    {
                        "number": 64,
                        "time": 154.4589543145835,
                        "value": 1
                    },
                    {
                        "number": 64,
                        "time": 155.15181157291684,
                        "value": 0
                    },
                    {
                        "number": 64,
                        "time": 155.29645445416685,
                        "value": 1
                    },
                    {
                        "number": 64,
                        "time": 156.01252600208352,
                        "value": 0
                    },
                    {
                        "number": 64,
                        "time": 156.11431173333352,
                        "value": 1
                    },
                    {
                        "number": 64,
                        "time": 156.8893118625002,
                        "value": 0
                    },
                    {
                        "number": 64,
                        "time": 157.03038331458353,
                        "value": 1
                    },
                    {
                        "number": 64,
                        "time": 157.72324057291686,
                        "value": 0
                    },
                    {
                        "number": 64,
                        "time": 157.86788345416687,
                        "value": 1
                    },
                    {
                        "number": 64,
                        "time": 158.58395500208354,
                        "value": 0
                    },
                    {
                        "number": 64,
                        "time": 158.68574073333355,
                        "value": 1
                    },
                    {
                        "number": 64,
                        "time": 159.46074086250022,
                        "value": 0
                    },
                    {
                        "number": 64,
                        "time": 159.60181231458355,
                        "value": 1
                    },
                    {
                        "number": 64,
                        "time": 160.2946695729169,
                        "value": 0
                    },
                    {
                        "number": 64,
                        "time": 160.4393124541669,
                        "value": 1
                    },
                    {
                        "number": 64,
                        "time": 161.15538400208357,
                        "value": 0
                    },
                    {
                        "number": 64,
                        "time": 161.25716973333357,
                        "value": 1
                    },
                    {
                        "number": 64,
                        "time": 161.59466978958358,
                        "value": 0
                    },
                    {
                        "number": 64,
                        "time": 161.73574124166691,
                        "value": 1
                    },
                    {
                        "number": 64,
                        "time": 162.03216986250024,
                        "value": 0
                    },
                    {
                        "number": 64,
                        "time": 162.17324131458358,
                        "value": 1
                    },
                    {
                        "number": 64,
                        "time": 162.8660985729169,
                        "value": 0
                    },
                    {
                        "number": 64,
                        "time": 163.01074145416692,
                        "value": 1
                    },
                    {
                        "number": 64,
                        "time": 163.7268130020836,
                        "value": 0
                    },
                    {
                        "number": 64,
                        "time": 163.8285987333336,
                        "value": 1
                    },
                    {
                        "number": 64,
                        "time": 164.60359886250026,
                        "value": 0
                    },
                    {
                        "number": 64,
                        "time": 164.7446703145836,
                        "value": 1
                    },
                    {
                        "number": 64,
                        "time": 165.43752757291693,
                        "value": 0
                    },
                    {
                        "number": 64,
                        "time": 165.58217045416694,
                        "value": 1
                    },
                    {
                        "number": 64,
                        "time": 166.2982420020836,
                        "value": 0
                    },
                    {
                        "number": 64,
                        "time": 166.40002773333362,
                        "value": 1
                    },
                    {
                        "number": 64,
                        "time": 167.1750278625003,
                        "value": 0
                    },
                    {
                        "number": 64,
                        "time": 167.31609931458362,
                        "value": 1
                    },
                    {
                        "number": 64,
                        "time": 168.00895657291696,
                        "value": 0
                    },
                    {
                        "number": 64,
                        "time": 168.15359945416697,
                        "value": 1
                    },
                    {
                        "number": 64,
                        "time": 168.86967100208363,
                        "value": 0
                    },
                    {
                        "number": 64,
                        "time": 168.97145673333364,
                        "value": 1
                    },
                    {
                        "number": 64,
                        "time": 169.7464568625003,
                        "value": 0
                    },
                    {
                        "number": 64,
                        "time": 169.88752831458365,
                        "value": 1
                    },
                    {
                        "number": 64,
                        "time": 174.8571720000003,
                        "value": 0
                    },
                    {
                        "number": 64,
                        "time": 174.8893148625003,
                        "value": 0
                    },
                    {
                        "number": 64,
                        "time": 175.03038631458364,
                        "value": 1
                    },
                    {
                        "number": 64,
                        "time": 175.72324357291697,
                        "value": 0
                    },
                    {
                        "number": 64,
                        "time": 175.86788645416698,
                        "value": 1
                    },
                    {
                        "number": 64,
                        "time": 176.58395800208365,
                        "value": 0
                    },
                    {
                        "number": 64,
                        "time": 176.68574373333365,
                        "value": 1
                    },
                    {
                        "number": 64,
                        "time": 177.46074386250032,
                        "value": 0
                    },
                    {
                        "number": 64,
                        "time": 177.60181531458366,
                        "value": 1
                    },
                    {
                        "number": 64,
                        "time": 178.294672572917,
                        "value": 0
                    },
                    {
                        "number": 64,
                        "time": 178.439315454167,
                        "value": 1
                    },
                    {
                        "number": 64,
                        "time": 179.15538700208367,
                        "value": 0
                    },
                    {
                        "number": 64,
                        "time": 179.25717273333368,
                        "value": 1
                    },
                    {
                        "number": 64,
                        "time": 180.03217286250035,
                        "value": 0
                    },
                    {
                        "number": 64,
                        "time": 180.17324431458368,
                        "value": 1
                    },
                    {
                        "number": 64,
                        "time": 180.86610157291702,
                        "value": 0
                    },
                    {
                        "number": 64,
                        "time": 181.01074445416702,
                        "value": 1
                    },
                    {
                        "number": 64,
                        "time": 181.7268160020837,
                        "value": 0
                    },
                    {
                        "number": 64,
                        "time": 181.8286017333337,
                        "value": 1
                    },
                    {
                        "number": 64,
                        "time": 182.60360186250037,
                        "value": 0
                    },
                    {
                        "number": 64,
                        "time": 182.7446733145837,
                        "value": 1
                    },
                    {
                        "number": 64,
                        "time": 183.43753057291704,
                        "value": 0
                    },
                    {
                        "number": 64,
                        "time": 183.58217345416705,
                        "value": 1
                    },
                    {
                        "number": 64,
                        "time": 184.29824500208372,
                        "value": 0
                    },
                    {
                        "number": 64,
                        "time": 184.40003073333372,
                        "value": 1
                    },
                    {
                        "number": 64,
                        "time": 185.1750308625004,
                        "value": 0
                    },
                    {
                        "number": 64,
                        "time": 185.31610231458373,
                        "value": 1
                    },
                    {
                        "number": 64,
                        "time": 186.00895957291706,
                        "value": 0
                    },
                    {
                        "number": 64,
                        "time": 186.15360245416707,
                        "value": 1
                    },
                    {
                        "number": 64,
                        "time": 186.86967400208374,
                        "value": 0
                    },
                    {
                        "number": 64,
                        "time": 186.97145973333375,
                        "value": 1
                    },
                    {
                        "number": 64,
                        "time": 187.74645986250042,
                        "value": 0
                    },
                    {
                        "number": 64,
                        "time": 187.88753131458375,
                        "value": 1
                    },
                    {
                        "number": 64,
                        "time": 188.5803885729171,
                        "value": 0
                    },
                    {
                        "number": 64,
                        "time": 188.7250314541671,
                        "value": 1
                    },
                    {
                        "number": 64,
                        "time": 189.44110300208376,
                        "value": 0
                    },
                    {
                        "number": 64,
                        "time": 189.54288873333377,
                        "value": 1
                    },
                    {
                        "number": 64,
                        "time": 190.31788886250044,
                        "value": 0
                    },
                    {
                        "number": 64,
                        "time": 190.45896031458378,
                        "value": 1
                    },
                    {
                        "number": 64,
                        "time": 194.38217525416712,
                        "value": 0
                    },
                    {
                        "number": 64,
                        "time": 194.5518181395838,
                        "value": 1
                    },
                    {
                        "number": 64,
                        "time": 195.2321753958338,
                        "value": 0
                    },
                    {
                        "number": 64,
                        "time": 195.55538973541712,
                        "value": 1
                    },
                    {
                        "number": 64,
                        "time": 196.94646139583378,
                        "value": 0
                    },
                    {
                        "number": 64,
                        "time": 197.18039000625043,
                        "value": 1
                    },
                    {
                        "number": 64,
                        "time": 197.80181868125044,
                        "value": 0
                    },
                    {
                        "number": 64,
                        "time": 198.0625330104171,
                        "value": 1
                    },
                    {
                        "number": 64,
                        "time": 198.62324738958375,
                        "value": 0
                    },
                    {
                        "number": 64,
                        "time": 199.30360464583376,
                        "value": 0
                    },
                    {
                        "number": 64,
                        "time": 199.47503324583377,
                        "value": 1
                    },
                    {
                        "number": 64,
                        "time": 200.37503339583378,
                        "value": 0
                    },
                    {
                        "number": 64,
                        "time": 200.6982477354171,
                        "value": 1
                    },
                    {
                        "number": 64,
                        "time": 202.08931939583377,
                        "value": 0
                    },
                    {
                        "number": 64,
                        "time": 202.50539089375044,
                        "value": 1
                    },
                    {
                        "number": 64,
                        "time": 202.94467668125046,
                        "value": 0
                    },
                    {
                        "number": 64,
                        "time": 203.20539101041712,
                        "value": 1
                    },
                    {
                        "number": 64,
                        "time": 203.76610538958377,
                        "value": 0
                    },
                    {
                        "number": 64,
                        "time": 204.66074839583376,
                        "value": 0
                    },
                    {
                        "number": 64,
                        "time": 204.8661055729171,
                        "value": 1
                    },
                    {
                        "number": 64,
                        "time": 205.0911056104171,
                        "value": 0
                    },
                    {
                        "number": 64,
                        "time": 205.2357484916671,
                        "value": 1
                    },
                    {
                        "number": 64,
                        "time": 205.50896282291708,
                        "value": 0
                    },
                    {
                        "number": 64,
                        "time": 205.60181998125043,
                        "value": 1
                    },
                    {
                        "number": 64,
                        "time": 205.71432000000044,
                        "value": 0
                    },
                    {
                        "number": 64,
                        "time": 205.8411057354171,
                        "value": 1
                    },
                    {
                        "number": 64,
                        "time": 206.25717723333378,
                        "value": 0
                    },
                    {
                        "number": 64,
                        "time": 206.40717725833377,
                        "value": 1
                    },
                    {
                        "number": 64,
                        "time": 207.44110600208379,
                        "value": 0
                    },
                    {
                        "number": 64,
                        "time": 207.5428917333338,
                        "value": 1
                    },
                    {
                        "number": 64,
                        "time": 208.28574900000046,
                        "value": 0
                    },
                    {
                        "number": 64,
                        "time": 208.41253473541713,
                        "value": 1
                    },
                    {
                        "number": 64,
                        "time": 208.8286062333338,
                        "value": 0
                    },
                    {
                        "number": 64,
                        "time": 208.9786062583338,
                        "value": 1
                    },
                    {
                        "number": 64,
                        "time": 210.0125350020838,
                        "value": 0
                    },
                    {
                        "number": 64,
                        "time": 210.1143207333338,
                        "value": 1
                    },
                    {
                        "number": 64,
                        "time": 210.8571780000005,
                        "value": 0
                    },
                    {
                        "number": 64,
                        "time": 210.98396373541715,
                        "value": 1
                    },
                    {
                        "number": 64,
                        "time": 211.40003523333382,
                        "value": 0
                    },
                    {
                        "number": 64,
                        "time": 211.55003525833382,
                        "value": 1
                    },
                    {
                        "number": 64,
                        "time": 212.58396400208383,
                        "value": 0
                    },
                    {
                        "number": 64,
                        "time": 212.68574973333384,
                        "value": 1
                    },
                    {
                        "number": 64,
                        "time": 213.4286070000005,
                        "value": 0
                    },
                    {
                        "number": 64,
                        "time": 213.55539273541717,
                        "value": 1
                    },
                    {
                        "number": 64,
                        "time": 213.97146423333385,
                        "value": 0
                    },
                    {
                        "number": 64,
                        "time": 214.12146425833384,
                        "value": 1
                    },
                    {
                        "number": 64,
                        "time": 214.5000357500005,
                        "value": 0
                    },
                    {
                        "number": 64,
                        "time": 214.62682148541717,
                        "value": 1
                    },
                    {
                        "number": 64,
                        "time": 215.1428930000005,
                        "value": 0
                    },
                    {
                        "number": 64,
                        "time": 215.26967873541716,
                        "value": 1
                    },
                    {
                        "number": 64,
                        "time": 215.68575023333383,
                        "value": 0
                    },
                    {
                        "number": 64,
                        "time": 215.83575025833383,
                        "value": 1
                    },
                    {
                        "number": 64,
                        "time": 216.2143217500005,
                        "value": 0
                    },
                    {
                        "number": 64,
                        "time": 216.34110748541715,
                        "value": 1
                    },
                    {
                        "number": 64,
                        "time": 217.92860775000048,
                        "value": 0
                    },
                    {
                        "number": 64,
                        "time": 218.05539348541714,
                        "value": 1
                    },
                    {
                        "number": 64,
                        "time": 218.57146500000047,
                        "value": 0
                    },
                    {
                        "number": 64,
                        "time": 218.69825073541713,
                        "value": 1
                    },
                    {
                        "number": 64,
                        "time": 219.65717946666715,
                        "value": 0
                    },
                    {
                        "number": 64,
                        "time": 219.79646520416713,
                        "value": 1
                    },
                    {
                        "number": 64,
                        "time": 220.30003671666714,
                        "value": 0
                    },
                    {
                        "number": 64,
                        "time": 220.38753673125046,
                        "value": 1
                    },
                    {
                        "number": 64,
                        "time": 221.1553940020838,
                        "value": 0
                    },
                    {
                        "number": 64,
                        "time": 221.26610830625046,
                        "value": 1
                    },
                    {
                        "number": 64,
                        "time": 222.23217989583378,
                        "value": 0
                    },
                    {
                        "number": 64,
                        "time": 222.45003707500044,
                        "value": 1
                    },
                    {
                        "number": 64,
                        "time": 222.8714657166671,
                        "value": 0
                    },
                    {
                        "number": 64,
                        "time": 222.95896573125043,
                        "value": 1
                    },
                    {
                        "number": 64,
                        "time": 223.72682300208376,
                        "value": 0
                    },
                    {
                        "number": 64,
                        "time": 223.83753730625043,
                        "value": 1
                    },
                    {
                        "number": 64,
                        "time": 226.5143234666671,
                        "value": 0
                    },
                    {
                        "number": 64,
                        "time": 226.65360920416708,
                        "value": 1
                    },
                    {
                        "number": 64,
                        "time": 228.22860946666708,
                        "value": 0
                    },
                    {
                        "number": 64,
                        "time": 228.36789520416707,
                        "value": 1
                    },
                    {
                        "number": 64,
                        "time": 229.94289546666707,
                        "value": 0
                    },
                    {
                        "number": 64,
                        "time": 230.08218120416706,
                        "value": 1
                    },
                    {
                        "number": 64,
                        "time": 231.65718146666705,
                        "value": 0
                    },
                    {
                        "number": 64,
                        "time": 231.79646720416704,
                        "value": 1
                    },
                    {
                        "number": 64,
                        "time": 233.37146746666704,
                        "value": 0
                    },
                    {
                        "number": 64,
                        "time": 233.51075320416703,
                        "value": 1
                    },
                    {
                        "number": 64,
                        "time": 234.21968189375036,
                        "value": 0
                    },
                    {
                        "number": 64,
                        "time": 234.36789620416704,
                        "value": 1
                    },
                    {
                        "number": 64,
                        "time": 235.08575346666703,
                        "value": 0
                    },
                    {
                        "number": 64,
                        "time": 235.22503920416702,
                        "value": 1
                    },
                    {
                        "number": 64,
                        "time": 235.93396789375035,
                        "value": 0
                    },
                    {
                        "number": 64,
                        "time": 236.08218220416703,
                        "value": 1
                    },
                    {
                        "number": 64,
                        "time": 236.57146800000035,
                        "value": 0
                    },
                    {
                        "number": 64,
                        "time": 237.45361100416702,
                        "value": 1
                    },
                    {
                        "number": 64,
                        "time": 238.29468257291703,
                        "value": 0
                    },
                    {
                        "number": 64,
                        "time": 238.8500398083337,
                        "value": 1
                    },
                    {
                        "number": 64,
                        "time": 239.9214685583337,
                        "value": 0
                    },
                    {
                        "number": 64,
                        "time": 240.53575437500035,
                        "value": 1
                    },
                    {
                        "number": 64,
                        "time": 240.87325443125036,
                        "value": 0
                    },
                    {
                        "number": 64,
                        "time": 240.99111159375036,
                        "value": 1
                    },
                    {
                        "number": 64,
                        "time": 241.30539736041703,
                        "value": 0
                    },
                    {
                        "number": 64,
                        "time": 241.3839688020837,
                        "value": 1
                    },
                    {
                        "number": 64,
                        "time": 241.71432600000037,
                        "value": 0
                    },
                    {
                        "number": 64,
                        "time": 242.00004033333371,
                        "value": 1
                    },
                    {
                        "number": 64,
                        "time": 243.01432621666706,
                        "value": 0
                    },
                    {
                        "number": 64,
                        "time": 243.24468339791707,
                        "value": 1
                    },
                    {
                        "number": 64,
                        "time": 243.87504064583374,
                        "value": 0
                    },
                    {
                        "number": 64,
                        "time": 244.02146924166706,
                        "value": 1
                    },
                    {
                        "number": 64,
                        "time": 244.2857550000004,
                        "value": 0
                    },
                    {
                        "number": 64,
                        "time": 244.43932645416706,
                        "value": 1
                    },
                    {
                        "number": 64,
                        "time": 245.1589694312504,
                        "value": 0
                    },
                    {
                        "number": 64,
                        "time": 245.2768265937504,
                        "value": 1
                    },
                    {
                        "number": 64,
                        "time": 245.5982552187504,
                        "value": 0
                    },
                    {
                        "number": 64,
                        "time": 245.73575524166708,
                        "value": 1
                    },
                    {
                        "number": 64,
                        "time": 246.02325528958374,
                        "value": 0
                    },
                    {
                        "number": 64,
                        "time": 246.2250410375004,
                        "value": 1
                    },
                    {
                        "number": 64,
                        "time": 246.45539821875042,
                        "value": 0
                    },
                    {
                        "number": 64,
                        "time": 246.61254110208375,
                        "value": 1
                    },
                    {
                        "number": 64,
                        "time": 246.86789828750042,
                        "value": 0
                    },
                    {
                        "number": 64,
                        "time": 246.95361258750043,
                        "value": 1
                    },
                    {
                        "number": 64,
                        "time": 248.15896993125043,
                        "value": 0
                    },
                    {
                        "number": 64,
                        "time": 248.2393270875004,
                        "value": 1
                    },
                    {
                        "number": 64,
                        "time": 248.5964700041671,
                        "value": 0
                    },
                    {
                        "number": 64,
                        "time": 248.73575574166708,
                        "value": 1
                    },
                    {
                        "number": 64,
                        "time": 249.0268272187504,
                        "value": 0
                    },
                    {
                        "number": 64,
                        "time": 249.1071843750004,
                        "value": 1
                    },
                    {
                        "number": 64,
                        "time": 249.4286130000004,
                        "value": 0
                    },
                    {
                        "number": 64,
                        "time": 249.67325589791707,
                        "value": 1
                    },
                    {
                        "number": 64,
                        "time": 250.31075600416708,
                        "value": 0
                    },
                    {
                        "number": 64,
                        "time": 250.82147037500042,
                        "value": 1
                    },
                    {
                        "number": 64,
                        "time": 251.15897043125042,
                        "value": 0
                    },
                    {
                        "number": 64,
                        "time": 251.27682759375043,
                        "value": 1
                    },
                    {
                        "number": 64,
                        "time": 251.5964705041671,
                        "value": 0
                    },
                    {
                        "number": 64,
                        "time": 251.69468480625042,
                        "value": 1
                    },
                    {
                        "number": 64,
                        "time": 252.00718485833374,
                        "value": 0
                    },
                    {
                        "number": 64,
                        "time": 252.18397060208375,
                        "value": 1
                    },
                    {
                        "number": 64,
                        "time": 253.30004221666707,
                        "value": 0
                    },
                    {
                        "number": 64,
                        "time": 253.53039939791708,
                        "value": 1
                    },
                    {
                        "number": 64,
                        "time": 254.16075664583374,
                        "value": 0
                    },
                    {
                        "number": 64,
                        "time": 254.28575666666708,
                        "value": 1
                    },
                    {
                        "number": 64,
                        "time": 254.5803995729171,
                        "value": 0
                    },
                    {
                        "number": 64,
                        "time": 254.69468530625042,
                        "value": 1
                    },
                    {
                        "number": 64,
                        "time": 255.8661140729171,
                        "value": 0
                    },
                    {
                        "number": 64,
                        "time": 256.05004267500044,
                        "value": 1
                    },
                    {
                        "number": 64,
                        "time": 256.3089712895838,
                        "value": 0
                    },
                    {
                        "number": 64,
                        "time": 256.4643284583338,
                        "value": 1
                    },
                    {
                        "number": 64,
                        "time": 257.15718571666713,
                        "value": 0
                    },
                    {
                        "number": 64,
                        "time": 257.4357571916671,
                        "value": 1
                    },
                    {
                        "number": 64,
                        "time": 258.44468593125043,
                        "value": 0
                    },
                    {
                        "number": 64,
                        "time": 258.5536145208338,
                        "value": 1
                    },
                    {
                        "number": 64,
                        "time": 258.8821860041671,
                        "value": 0
                    },
                    {
                        "number": 64,
                        "time": 259.03754317291714,
                        "value": 1
                    },
                    {
                        "number": 64,
                        "time": 259.7143290000005,
                        "value": 0
                    },
                    {
                        "number": 64,
                        "time": 259.86790045416717,
                        "value": 1
                    },
                    {
                        "number": 64,
                        "time": 260.76611488958383,
                        "value": 0
                    },
                    {
                        "number": 64,
                        "time": 261.1071863750005,
                        "value": 1
                    },
                    {
                        "number": 64,
                        "time": 261.4446864312505,
                        "value": 0
                    },
                    {
                        "number": 64,
                        "time": 261.5625435937505,
                        "value": 1
                    },
                    {
                        "number": 64,
                        "time": 261.87682936041716,
                        "value": 0
                    },
                    {
                        "number": 64,
                        "time": 261.95540080208383,
                        "value": 1
                    },
                    {
                        "number": 64,
                        "time": 262.2857580000005,
                        "value": 0
                    },
                    {
                        "number": 64,
                        "time": 262.5714723333338,
                        "value": 1
                    },
                    {
                        "number": 64,
                        "time": 263.58575821666716,
                        "value": 0
                    },
                    {
                        "number": 64,
                        "time": 263.75540110208385,
                        "value": 1
                    },
                    {
                        "number": 64,
                        "time": 264.44647264583386,
                        "value": 0
                    },
                    {
                        "number": 64,
                        "time": 264.54290123333385,
                        "value": 1
                    },
                    {
                        "number": 64,
                        "time": 264.8571870000005,
                        "value": 0
                    },
                    {
                        "number": 64,
                        "time": 265.0107584541672,
                        "value": 1
                    },
                    {
                        "number": 64,
                        "time": 265.7304014312505,
                        "value": 0
                    },
                    {
                        "number": 64,
                        "time": 265.84825859375053,
                        "value": 1
                    },
                    {
                        "number": 64,
                        "time": 266.16968721875054,
                        "value": 0
                    },
                    {
                        "number": 64,
                        "time": 266.3071872416672,
                        "value": 1
                    },
                    {
                        "number": 64,
                        "time": 266.5946872895839,
                        "value": 0
                    },
                    {
                        "number": 64,
                        "time": 266.79647303750056,
                        "value": 1
                    },
                    {
                        "number": 64,
                        "time": 267.02683021875055,
                        "value": 0
                    },
                    {
                        "number": 64,
                        "time": 267.1839731020839,
                        "value": 1
                    },
                    {
                        "number": 64,
                        "time": 267.4393302875005,
                        "value": 0
                    },
                    {
                        "number": 64,
                        "time": 267.52504458750053,
                        "value": 1
                    },
                    {
                        "number": 64,
                        "time": 268.30361614583387,
                        "value": 0
                    },
                    {
                        "number": 64,
                        "time": 268.36254472708384,
                        "value": 1
                    },
                    {
                        "number": 64,
                        "time": 268.7304019312505,
                        "value": 0
                    },
                    {
                        "number": 64,
                        "time": 268.8107590875005,
                        "value": 1
                    },
                    {
                        "number": 64,
                        "time": 269.16790200416716,
                        "value": 0
                    },
                    {
                        "number": 64,
                        "time": 269.3071877416672,
                        "value": 1
                    },
                    {
                        "number": 64,
                        "time": 269.5982592187505,
                        "value": 0
                    },
                    {
                        "number": 64,
                        "time": 269.6786163750005,
                        "value": 1
                    },
                    {
                        "number": 64,
                        "time": 270.0000450000005,
                        "value": 0
                    },
                    {
                        "number": 64,
                        "time": 270.2446878979172,
                        "value": 1
                    },
                    {
                        "number": 64,
                        "time": 270.8821880041672,
                        "value": 0
                    },
                    {
                        "number": 64,
                        "time": 271.3929023750005,
                        "value": 1
                    },
                    {
                        "number": 64,
                        "time": 271.7304024312505,
                        "value": 0
                    },
                    {
                        "number": 64,
                        "time": 271.8482595937505,
                        "value": 1
                    },
                    {
                        "number": 64,
                        "time": 272.1679025041672,
                        "value": 0
                    },
                    {
                        "number": 64,
                        "time": 272.2661168062505,
                        "value": 1
                    },
                    {
                        "number": 64,
                        "time": 272.5786168583339,
                        "value": 0
                    },
                    {
                        "number": 64,
                        "time": 272.75540260208385,
                        "value": 1
                    },
                    {
                        "number": 64,
                        "time": 273.8714742166672,
                        "value": 0
                    },
                    {
                        "number": 64,
                        "time": 274.1018313979172,
                        "value": 1
                    },
                    {
                        "number": 64,
                        "time": 274.73218864583384,
                        "value": 0
                    },
                    {
                        "number": 64,
                        "time": 274.8571886666672,
                        "value": 1
                    },
                    {
                        "number": 64,
                        "time": 275.15183157291716,
                        "value": 0
                    },
                    {
                        "number": 64,
                        "time": 275.2661173062505,
                        "value": 1
                    },
                    {
                        "number": 64,
                        "time": 276.4375460729172,
                        "value": 0
                    },
                    {
                        "number": 64,
                        "time": 276.53040323125055,
                        "value": 1
                    },
                    {
                        "number": 64,
                        "time": 276.8768318604172,
                        "value": 0
                    },
                    {
                        "number": 64,
                        "time": 276.99647473750053,
                        "value": 1
                    },
                    {
                        "number": 64,
                        "time": 277.29826050208385,
                        "value": 0
                    },
                    {
                        "number": 64,
                        "time": 277.4125462354172,
                        "value": 1
                    },
                    {
                        "number": 64,
                        "time": 277.7286177166672,
                        "value": 0
                    },
                    {
                        "number": 64,
                        "time": 278.0071891916672,
                        "value": 1
                    },
                    {
                        "number": 64,
                        "time": 279.0161179312505,
                        "value": 0
                    },
                    {
                        "number": 64,
                        "time": 279.12504652083385,
                        "value": 1
                    },
                    {
                        "number": 64,
                        "time": 279.4536180041672,
                        "value": 0
                    },
                    {
                        "number": 64,
                        "time": 279.6089751729172,
                        "value": 1
                    },
                    {
                        "number": 64,
                        "time": 279.86611807291723,
                        "value": 0
                    },
                    {
                        "number": 64,
                        "time": 280.0589752479172,
                        "value": 1
                    },
                    {
                        "number": 64,
                        "time": 280.28576100000055,
                        "value": 0
                    },
                    {
                        "number": 64,
                        "time": 280.43933245416724,
                        "value": 1
                    },
                    {
                        "number": 64,
                        "time": 281.3375468895839,
                        "value": 0
                    },
                    {
                        "number": 64,
                        "time": 281.6875469479172,
                        "value": 1
                    },
                    {
                        "number": 64,
                        "time": 282.02683271875054,
                        "value": 0
                    },
                    {
                        "number": 64,
                        "time": 282.1161184479172,
                        "value": 1
                    },
                    {
                        "number": 64,
                        "time": 282.44647564583386,
                        "value": 0
                    },
                    {
                        "number": 64,
                        "time": 282.58040423958386,
                        "value": 1
                    },
                    {
                        "number": 64,
                        "time": 282.8571900000005,
                        "value": 0
                    },
                    {
                        "number": 64,
                        "time": 283.0214757416672,
                        "value": 1
                    },
                    {
                        "number": 64,
                        "time": 283.9464758958338,
                        "value": 0
                    },
                    {
                        "number": 64,
                        "time": 284.07147591666717,
                        "value": 1
                    },
                    {
                        "number": 64,
                        "time": 285.4286190000005,
                        "value": 0
                    },
                    {
                        "number": 64,
                        "time": 285.62326188958383,
                        "value": 1
                    },
                    {
                        "number": 64,
                        "time": 286.73754778958386,
                        "value": 0
                    },
                    {
                        "number": 64,
                        "time": 286.8571906666672,
                        "value": 1
                    },
                    {
                        "number": 64,
                        "time": 287.16611928958383,
                        "value": 0
                    },
                    {
                        "number": 64,
                        "time": 287.2768335937505,
                        "value": 1
                    },
                    {
                        "number": 64,
                        "time": 287.5804050729172,
                        "value": 0
                    },
                    {
                        "number": 64,
                        "time": 287.6839765187505,
                        "value": 1
                    },
                    {
                        "number": 64,
                        "time": 288.0000480000005,
                        "value": 0
                    },
                    {
                        "number": 64,
                        "time": 288.1071908750005,
                        "value": 1
                    },
                    {
                        "number": 64,
                        "time": 288.4518337895839,
                        "value": 0
                    },
                    {
                        "number": 64,
                        "time": 288.5714766666672,
                        "value": 1
                    },
                    {
                        "number": 64,
                        "time": 288.88040528958385,
                        "value": 0
                    },
                    {
                        "number": 64,
                        "time": 288.9911195937505,
                        "value": 1
                    },
                    {
                        "number": 64,
                        "time": 289.2946910729172,
                        "value": 0
                    },
                    {
                        "number": 64,
                        "time": 289.3982625187505,
                        "value": 1
                    },
                    {
                        "number": 64,
                        "time": 289.7143340000005,
                        "value": 0
                    },
                    {
                        "number": 64,
                        "time": 289.82147687500054,
                        "value": 1
                    },
                    {
                        "number": 64,
                        "time": 290.1661197895839,
                        "value": 0
                    },
                    {
                        "number": 64,
                        "time": 290.2857626666672,
                        "value": 1
                    },
                    {
                        "number": 64,
                        "time": 290.59469128958386,
                        "value": 0
                    },
                    {
                        "number": 64,
                        "time": 290.7054055937505,
                        "value": 1
                    },
                    {
                        "number": 64,
                        "time": 291.0089770729172,
                        "value": 0
                    },
                    {
                        "number": 64,
                        "time": 291.11254851875054,
                        "value": 1
                    },
                    {
                        "number": 64,
                        "time": 291.42862000000054,
                        "value": 0
                    },
                    {
                        "number": 64,
                        "time": 291.53576287500056,
                        "value": 1
                    },
                    {
                        "number": 64,
                        "time": 291.8768343604172,
                        "value": 0
                    },
                    {
                        "number": 64,
                        "time": 291.9732629479172,
                        "value": 1
                    },
                    {
                        "number": 64,
                        "time": 292.3125487187505,
                        "value": 0
                    },
                    {
                        "number": 64,
                        "time": 292.40183444791717,
                        "value": 1
                    },
                    {
                        "number": 64,
                        "time": 292.73219164583384,
                        "value": 0
                    },
                    {
                        "number": 64,
                        "time": 292.86612023958384,
                        "value": 1
                    },
                    {
                        "number": 64,
                        "time": 293.1429060000005,
                        "value": 0
                    },
                    {
                        "number": 64,
                        "time": 293.30719174166717,
                        "value": 1
                    },
                    {
                        "number": 64,
                        "time": 293.58933464583384,
                        "value": 0
                    },
                    {
                        "number": 64,
                        "time": 293.67326323125053,
                        "value": 1
                    },
                    {
                        "number": 64,
                        "time": 294.0250490041672,
                        "value": 0
                    },
                    {
                        "number": 64,
                        "time": 294.1268347354172,
                        "value": 1
                    },
                    {
                        "number": 64,
                        "time": 294.87326343125056,
                        "value": 0
                    },
                    {
                        "number": 64,
                        "time": 295.0089777395839,
                        "value": 1
                    },
                    {
                        "number": 64,
                        "time": 295.72326357291723,
                        "value": 0
                    },
                    {
                        "number": 64,
                        "time": 295.8286207333339,
                        "value": 1
                    },
                    {
                        "number": 64,
                        "time": 297.01254950208386,
                        "value": 0
                    },
                    {
                        "number": 64,
                        "time": 297.1071923750005,
                        "value": 1
                    },
                    {
                        "number": 64,
                        "time": 297.4393352875005,
                        "value": 0
                    },
                    {
                        "number": 64,
                        "time": 297.53040673125054,
                        "value": 1
                    },
                    {
                        "number": 64,
                        "time": 297.8625496437505,
                        "value": 0
                    },
                    {
                        "number": 64,
                        "time": 298.3429068666672,
                        "value": 1
                    },
                    {
                        "number": 64,
                        "time": 299.58933564583384,
                        "value": 0
                    },
                    {
                        "number": 64,
                        "time": 299.66969280208383,
                        "value": 1
                    },
                    {
                        "number": 64,
                        "time": 300.0214785750005,
                        "value": 0
                    },
                    {
                        "number": 64,
                        "time": 300.08219287083386,
                        "value": 1
                    },
                    {
                        "number": 64,
                        "time": 300.8607644291672,
                        "value": 0
                    },
                    {
                        "number": 64,
                        "time": 300.9768358770839,
                        "value": 1
                    },
                    {
                        "number": 64,
                        "time": 302.1536217875005,
                        "value": 0
                    },
                    {
                        "number": 64,
                        "time": 302.24469323125055,
                        "value": 1
                    },
                    {
                        "number": 64,
                        "time": 302.5911218604172,
                        "value": 0
                    },
                    {
                        "number": 64,
                        "time": 302.6857647333339,
                        "value": 1
                    },
                    {
                        "number": 64,
                        "time": 303.01076478750053,
                        "value": 0
                    },
                    {
                        "number": 64,
                        "time": 303.0893362291672,
                        "value": 1
                    },
                    {
                        "number": 64,
                        "time": 303.44647914583385,
                        "value": 0
                    },
                    {
                        "number": 64,
                        "time": 303.6054077437505,
                        "value": 1
                    },
                    {
                        "number": 64,
                        "time": 304.2964792875005,
                        "value": 0
                    },
                    {
                        "number": 64,
                        "time": 304.4250507375005,
                        "value": 1
                    },
                    {
                        "number": 64,
                        "time": 304.7357650750005,
                        "value": 0
                    },
                    {
                        "number": 64,
                        "time": 304.81612223125046,
                        "value": 1
                    },
                    {
                        "number": 64,
                        "time": 305.1607651458338,
                        "value": 0
                    },
                    {
                        "number": 64,
                        "time": 305.3321937458338,
                        "value": 1
                    },
                    {
                        "number": 64,
                        "time": 306.0000510000005,
                        "value": 0
                    },
                    {
                        "number": 64,
                        "time": 306.3536224875005,
                        "value": 1
                    },
                    {
                        "number": 64,
                        "time": 306.8839797187505,
                        "value": 0
                    },
                    {
                        "number": 64,
                        "time": 306.96433687500047,
                        "value": 1
                    },
                    {
                        "number": 64,
                        "time": 307.2982655020838,
                        "value": 0
                    },
                    {
                        "number": 64,
                        "time": 307.7321941458338,
                        "value": 0
                    },
                    {
                        "number": 64,
                        "time": 307.81612273125046,
                        "value": 1
                    },
                    {
                        "number": 64,
                        "time": 308.14826564375045,
                        "value": 0
                    },
                    {
                        "number": 64,
                        "time": 308.21612279791714,
                        "value": 1
                    },
                    {
                        "number": 64,
                        "time": 308.36790853750045,
                        "value": 0
                    },
                    {
                        "number": 64,
                        "time": 308.6286228666671,
                        "value": 1
                    },
                    {
                        "number": 64,
                        "time": 309.8696945020838,
                        "value": 0
                    },
                    {
                        "number": 64,
                        "time": 310.3036231458338,
                        "value": 0
                    },
                    {
                        "number": 64,
                        "time": 310.3875517312505,
                        "value": 1
                    },
                    {
                        "number": 64,
                        "time": 310.7196946437505,
                        "value": 0
                    },
                    {
                        "number": 64,
                        "time": 310.78755179791716,
                        "value": 1
                    },
                    {
                        "number": 64,
                        "time": 310.9393375375005,
                        "value": 0
                    },
                    {
                        "number": 64,
                        "time": 311.20005186666714,
                        "value": 1
                    },
                    {
                        "number": 64,
                        "time": 312.4411235020838,
                        "value": 0
                    },
                    {
                        "number": 64,
                        "time": 312.8750521458338,
                        "value": 0
                    },
                    {
                        "number": 64,
                        "time": 312.9589807312505,
                        "value": 1
                    },
                    {
                        "number": 64,
                        "time": 313.2911236437505,
                        "value": 0
                    },
                    {
                        "number": 64,
                        "time": 313.3589807979172,
                        "value": 1
                    },
                    {
                        "number": 64,
                        "time": 313.5107665375005,
                        "value": 0
                    },
                    {
                        "number": 64,
                        "time": 313.77148086666716,
                        "value": 1
                    },
                    {
                        "number": 64,
                        "time": 314.59112386041716,
                        "value": 0
                    },
                    {
                        "number": 64,
                        "time": 314.6946953062505,
                        "value": 1
                    },
                    {
                        "number": 64,
                        "time": 315.01969536041713,
                        "value": 0
                    },
                    {
                        "number": 64,
                        "time": 315.12326680625046,
                        "value": 1
                    },
                    {
                        "number": 64,
                        "time": 315.44290971666715,
                        "value": 0
                    },
                    {
                        "number": 64,
                        "time": 315.5214811583338,
                        "value": 1
                    },
                    {
                        "number": 64,
                        "time": 315.8714812166671,
                        "value": 0
                    },
                    {
                        "number": 64,
                        "time": 315.9393383708338,
                        "value": 1
                    },
                    {
                        "number": 64,
                        "time": 316.2857670000005,
                        "value": 0
                    },
                    {
                        "number": 64,
                        "time": 316.55183847291715,
                        "value": 1
                    },
                    {
                        "number": 64,
                        "time": 317.1625528604172,
                        "value": 0
                    },
                    {
                        "number": 64,
                        "time": 317.59469578958385,
                        "value": 0
                    },
                    {
                        "number": 64,
                        "time": 317.7571958166672,
                        "value": 1
                    },
                    {
                        "number": 64,
                        "time": 318.0250530041672,
                        "value": 0
                    },
                    {
                        "number": 64,
                        "time": 318.12862445000053,
                        "value": 1
                    },
                    {
                        "number": 64,
                        "time": 318.4393387875005,
                        "value": 0
                    },
                    {
                        "number": 64,
                        "time": 318.5571959500005,
                        "value": 1
                    },
                    {
                        "number": 64,
                        "time": 318.8625531437505,
                        "value": 0
                    },
                    {
                        "number": 64,
                        "time": 319.0214817416672,
                        "value": 1
                    },
                    {
                        "number": 64,
                        "time": 320.1518390729172,
                        "value": 0
                    },
                    {
                        "number": 64,
                        "time": 320.3357676750005,
                        "value": 1
                    },
                    {
                        "number": 64,
                        "time": 321.01791064583387,
                        "value": 0
                    },
                    {
                        "number": 64,
                        "time": 321.1571963833339,
                        "value": 1
                    },
                    {
                        "number": 64,
                        "time": 321.4429107166672,
                        "value": 0
                    },
                    {
                        "number": 64,
                        "time": 321.60005360000054,
                        "value": 1
                    },
                    {
                        "number": 64,
                        "time": 322.7232680729172,
                        "value": 0
                    },
                    {
                        "number": 64,
                        "time": 322.90719667500053,
                        "value": 1
                    },
                    {
                        "number": 64,
                        "time": 323.1696967187505,
                        "value": 0
                    },
                    {
                        "number": 64,
                        "time": 323.2821967375005,
                        "value": 1
                    },
                    {
                        "number": 64,
                        "time": 323.5839825020838,
                        "value": 0
                    },
                    {
                        "number": 64,
                        "time": 323.6857682333338,
                        "value": 1
                    },
                    {
                        "number": 64,
                        "time": 324.01433971666717,
                        "value": 0
                    },
                    {
                        "number": 64,
                        "time": 324.1714826000005,
                        "value": 1
                    },
                    {
                        "number": 64,
                        "time": 325.2929113583338,
                        "value": 0
                    },
                    {
                        "number": 64,
                        "time": 325.36791137083384,
                        "value": 1
                    },
                    {
                        "number": 64,
                        "time": 325.5250542541672,
                        "value": 0
                    },
                    {
                        "number": 64,
                        "time": 325.7643400083338,
                        "value": 1
                    },
                    {
                        "number": 64,
                        "time": 325.94826861041713,
                        "value": 0
                    },
                    {
                        "number": 64,
                        "time": 326.23755437291715,
                        "value": 1
                    },
                    {
                        "number": 64,
                        "time": 326.3821972541671,
                        "value": 0
                    },
                    {
                        "number": 64,
                        "time": 326.4589829812505,
                        "value": 1
                    },
                    {
                        "number": 64,
                        "time": 326.57148300000046,
                        "value": 0
                    },
                    {
                        "number": 64,
                        "time": 327.00719735833377,
                        "value": 0
                    },
                    {
                        "number": 64,
                        "time": 327.0821973708338,
                        "value": 1
                    },
                    {
                        "number": 64,
                        "time": 327.23934025416713,
                        "value": 0
                    },
                    {
                        "number": 64,
                        "time": 327.4786260083338,
                        "value": 1
                    },
                    {
                        "number": 64,
                        "time": 327.6625546104171,
                        "value": 0
                    },
                    {
                        "number": 64,
                        "time": 327.9518403729171,
                        "value": 1
                    },
                    {
                        "number": 64,
                        "time": 328.0964832541671,
                        "value": 0
                    },
                    {
                        "number": 64,
                        "time": 328.17326898125043,
                        "value": 1
                    },
                    {
                        "number": 64,
                        "time": 328.2857690000004,
                        "value": 0
                    },
                    {
                        "number": 64,
                        "time": 328.7214833583337,
                        "value": 0
                    },
                    {
                        "number": 64,
                        "time": 328.79648337083376,
                        "value": 1
                    },
                    {
                        "number": 64,
                        "time": 328.9536262541671,
                        "value": 0
                    },
                    {
                        "number": 64,
                        "time": 329.19291200833374,
                        "value": 1
                    },
                    {
                        "number": 64,
                        "time": 329.37684061041705,
                        "value": 0
                    },
                    {
                        "number": 64,
                        "time": 329.66612637291706,
                        "value": 1
                    },
                    {
                        "number": 64,
                        "time": 329.81076925416704,
                        "value": 0
                    },
                    {
                        "number": 64,
                        "time": 329.8875549812504,
                        "value": 1
                    },
                    {
                        "number": 64,
                        "time": 330.0000550000004,
                        "value": 0
                    },
                    {
                        "number": 64,
                        "time": 330.07862644166704,
                        "value": 1
                    },
                    {
                        "number": 64,
                        "time": 330.442912216667,
                        "value": 0
                    },
                    {
                        "number": 64,
                        "time": 330.5196979437504,
                        "value": 1
                    },
                    {
                        "number": 64,
                        "time": 330.86791228750036,
                        "value": 0
                    },
                    {
                        "number": 64,
                        "time": 330.9589837312504,
                        "value": 1
                    },
                    {
                        "number": 64,
                        "time": 331.2964837875004,
                        "value": 0
                    },
                    {
                        "number": 64,
                        "time": 331.3768409437504,
                        "value": 1
                    },
                    {
                        "number": 64,
                        "time": 331.7143410000004,
                        "value": 0
                    },
                    {
                        "number": 64,
                        "time": 331.8214838750004,
                        "value": 1
                    },
                    {
                        "number": 64,
                        "time": 332.5929125750004,
                        "value": 0
                    },
                    {
                        "number": 64,
                        "time": 332.7929126083337,
                        "value": 1
                    },
                    {
                        "number": 64,
                        "time": 333.4411270020837,
                        "value": 0
                    },
                    {
                        "number": 64,
                        "time": 333.5857698833337,
                        "value": 1
                    },
                    {
                        "number": 64,
                        "time": 334.3036271458337,
                        "value": 0
                    },
                    {
                        "number": 64,
                        "time": 334.46255574375033,
                        "value": 1
                    },
                    {
                        "number": 64,
                        "time": 336.008984572917,
                        "value": 0
                    },
                    {
                        "number": 64,
                        "time": 336.18934174583364,
                        "value": 1
                    },
                    {
                        "number": 64,
                        "time": 336.4393417875003,
                        "value": 0
                    },
                    {
                        "number": 64,
                        "time": 336.58041323958366,
                        "value": 1
                    },
                    {
                        "number": 64,
                        "time": 336.87505614583364,
                        "value": 0
                    },
                    {
                        "number": 64,
                        "time": 337.0339847437503,
                        "value": 1
                    },
                    {
                        "number": 64,
                        "time": 338.58041357291694,
                        "value": 0
                    },
                    {
                        "number": 64,
                        "time": 338.7607707458336,
                        "value": 1
                    },
                    {
                        "number": 64,
                        "time": 339.0107707875003,
                        "value": 0
                    },
                    {
                        "number": 64,
                        "time": 339.15184223958363,
                        "value": 1
                    },
                    {
                        "number": 64,
                        "time": 339.44112800208364,
                        "value": 0
                    },
                    {
                        "number": 64,
                        "time": 339.59291374166696,
                        "value": 1
                    },
                    {
                        "number": 64,
                        "time": 340.31077100416695,
                        "value": 0
                    },
                    {
                        "number": 64,
                        "time": 340.71434250000027,
                        "value": 1
                    },
                    {
                        "number": 64,
                        "time": 341.15184257291696,
                        "value": 0
                    },
                    {
                        "number": 64,
                        "time": 341.33219974583363,
                        "value": 1
                    },
                    {
                        "number": 64,
                        "time": 341.5821997875003,
                        "value": 0
                    },
                    {
                        "number": 64,
                        "time": 341.72327123958365,
                        "value": 1
                    },
                    {
                        "number": 64,
                        "time": 342.01791414583363,
                        "value": 0
                    },
                    {
                        "number": 64,
                        "time": 342.1768427437503,
                        "value": 1
                    },
                    {
                        "number": 64,
                        "time": 343.72327157291693,
                        "value": 0
                    },
                    {
                        "number": 64,
                        "time": 343.9036287458336,
                        "value": 1
                    },
                    {
                        "number": 64,
                        "time": 344.1536287875003,
                        "value": 0
                    },
                    {
                        "number": 64,
                        "time": 344.2947002395836,
                        "value": 1
                    },
                    {
                        "number": 64,
                        "time": 344.58398600208363,
                        "value": 0
                    },
                    {
                        "number": 64,
                        "time": 344.7857717500003,
                        "value": 1
                    },
                    {
                        "number": 64,
                        "time": 345.44470043125034,
                        "value": 0
                    },
                    {
                        "number": 64,
                        "time": 345.63041474791703,
                        "value": 1
                    },
                    {
                        "number": 64,
                        "time": 346.30184343125035,
                        "value": 0
                    },
                    {
                        "number": 64,
                        "time": 346.43755773958367,
                        "value": 1
                    },
                    {
                        "number": 64,
                        "time": 346.74112921875036,
                        "value": 0
                    },
                    {
                        "number": 64,
                        "time": 346.84112923541704,
                        "value": 1
                    },
                    {
                        "number": 64,
                        "time": 347.14291500000036,
                        "value": 0
                    },
                    {
                        "number": 64,
                        "time": 347.25541501875034,
                        "value": 1
                    },
                    {
                        "number": 64,
                        "time": 348.019700860417,
                        "value": 0
                    },
                    {
                        "number": 64,
                        "time": 348.153629454167,
                        "value": 1
                    },
                    {
                        "number": 64,
                        "time": 348.876843860417,
                        "value": 0
                    },
                    {
                        "number": 64,
                        "time": 348.98041530625034,
                        "value": 1
                    },
                    {
                        "number": 64,
                        "time": 349.2929153583337,
                        "value": 0
                    },
                    {
                        "number": 64,
                        "time": 349.38755823125035,
                        "value": 1
                    },
                    {
                        "number": 64,
                        "time": 349.72505828750036,
                        "value": 0
                    },
                    {
                        "number": 64,
                        "time": 350.23934408750034,
                        "value": 1
                    },
                    {
                        "number": 64,
                        "time": 352.28577300000035,
                        "value": 0
                    },
                    {
                        "number": 64,
                        "time": 354.85720200000037,
                        "value": 1
                    },
                    {
                        "number": 64,
                        "time": 356.5839880020837,
                        "value": 0
                    },
                    {
                        "number": 64,
                        "time": 356.69827373541705,
                        "value": 1
                    },
                    {
                        "number": 64,
                        "time": 357.4786310083337,
                        "value": 0
                    },
                    {
                        "number": 64,
                        "time": 358.30541686041704,
                        "value": 0
                    },
                    {
                        "number": 64,
                        "time": 358.43934545416704,
                        "value": 1
                    },
                    {
                        "number": 64,
                        "time": 359.16255986041705,
                        "value": 0
                    },
                    {
                        "number": 64,
                        "time": 359.28577416666707,
                        "value": 1
                    },
                    {
                        "number": 64,
                        "time": 359.5786313583337,
                        "value": 0
                    },
                    {
                        "number": 64,
                        "time": 359.6732742312504,
                        "value": 1
                    },
                    {
                        "number": 64,
                        "time": 360.0000600000004,
                        "value": 0
                    },
                    {
                        "number": 64,
                        "time": 360.2018457479171,
                        "value": 1
                    },
                    {
                        "number": 64,
                        "time": 360.8768458604171,
                        "value": 0
                    },
                    {
                        "number": 64,
                        "time": 361.0107744541671,
                        "value": 1
                    },
                    {
                        "number": 64,
                        "time": 361.7339888604171,
                        "value": 0
                    },
                    {
                        "number": 64,
                        "time": 361.85720316666715,
                        "value": 1
                    },
                    {
                        "number": 64,
                        "time": 362.1500603583338,
                        "value": 0
                    },
                    {
                        "number": 64,
                        "time": 362.24470323125047,
                        "value": 1
                    },
                    {
                        "number": 64,
                        "time": 362.5714890000005,
                        "value": 0
                    },
                    {
                        "number": 64,
                        "time": 362.81613189791716,
                        "value": 1
                    },
                    {
                        "number": 64,
                        "time": 363.01791764583385,
                        "value": 0
                    },
                    {
                        "number": 64,
                        "time": 363.1643462416672,
                        "value": 1
                    },
                    {
                        "number": 64,
                        "time": 363.4536320041672,
                        "value": 0
                    },
                    {
                        "number": 64,
                        "time": 363.6339891770839,
                        "value": 1
                    },
                    {
                        "number": 64,
                        "time": 364.34827501041724,
                        "value": 0
                    },
                    {
                        "number": 64,
                        "time": 364.4375607395839,
                        "value": 1
                    },
                    {
                        "number": 64,
                        "time": 365.1607751458339,
                        "value": 0
                    },
                    {
                        "number": 64,
                        "time": 365.4964894875006,
                        "value": 1
                    },
                    {
                        "number": 64,
                        "time": 366.44648964583394,
                        "value": 0
                    },
                    {
                        "number": 64,
                        "time": 366.61791824583395,
                        "value": 1
                    },
                    {
                        "number": 64,
                        "time": 367.51791839583393,
                        "value": 0
                    },
                    {
                        "number": 64,
                        "time": 367.84113273541726,
                        "value": 1
                    },
                    {
                        "number": 64,
                        "time": 369.23220439583395,
                        "value": 0
                    },
                    {
                        "number": 64,
                        "time": 369.46613300625063,
                        "value": 1
                    },
                    {
                        "number": 64,
                        "time": 370.08756168125063,
                        "value": 0
                    },
                    {
                        "number": 64,
                        "time": 370.3482760104173,
                        "value": 1
                    },
                    {
                        "number": 64,
                        "time": 370.90899038958395,
                        "value": 0
                    },
                    {
                        "number": 64,
                        "time": 371.5893476458339,
                        "value": 0
                    },
                    {
                        "number": 64,
                        "time": 371.76077624583394,
                        "value": 1
                    },
                    {
                        "number": 64,
                        "time": 372.6607763958339,
                        "value": 0
                    },
                    {
                        "number": 64,
                        "time": 372.98399073541725,
                        "value": 1
                    },
                    {
                        "number": 64,
                        "time": 374.37506239583394,
                        "value": 0
                    },
                    {
                        "number": 64,
                        "time": 374.7911338937506,
                        "value": 1
                    },
                    {
                        "number": 64,
                        "time": 375.2304196812506,
                        "value": 0
                    },
                    {
                        "number": 64,
                        "time": 375.4911340104173,
                        "value": 1
                    },
                    {
                        "number": 64,
                        "time": 376.05184838958394,
                        "value": 0
                    },
                    {
                        "number": 64,
                        "time": 376.94649139583396,
                        "value": 0
                    },
                    {
                        "number": 64,
                        "time": 377.1518485729173,
                        "value": 1
                    },
                    {
                        "number": 64,
                        "time": 377.3768486104173,
                        "value": 0
                    },
                    {
                        "number": 64,
                        "time": 377.5214914916673,
                        "value": 1
                    },
                    {
                        "number": 64,
                        "time": 377.7947058229173,
                        "value": 0
                    },
                    {
                        "number": 64,
                        "time": 377.88756298125065,
                        "value": 1
                    },
                    {
                        "number": 64,
                        "time": 378.00006300000064,
                        "value": 0
                    },
                    {
                        "number": 64,
                        "time": 378.1268487354173,
                        "value": 1
                    },
                    {
                        "number": 64,
                        "time": 378.542920233334,
                        "value": 0
                    },
                    {
                        "number": 64,
                        "time": 378.69292025833397,
                        "value": 1
                    },
                    {
                        "number": 64,
                        "time": 379.72684900208395,
                        "value": 0
                    },
                    {
                        "number": 64,
                        "time": 379.82863473333396,
                        "value": 1
                    },
                    {
                        "number": 64,
                        "time": 380.5714920000006,
                        "value": 0
                    },
                    {
                        "number": 64,
                        "time": 380.69827773541726,
                        "value": 1
                    },
                    {
                        "number": 64,
                        "time": 381.11434923333394,
                        "value": 0
                    },
                    {
                        "number": 64,
                        "time": 381.26434925833394,
                        "value": 1
                    },
                    {
                        "number": 64,
                        "time": 382.2982780020839,
                        "value": 0
                    },
                    {
                        "number": 64,
                        "time": 382.4000637333339,
                        "value": 1
                    },
                    {
                        "number": 64,
                        "time": 383.14292100000057,
                        "value": 0
                    },
                    {
                        "number": 64,
                        "time": 383.26970673541723,
                        "value": 1
                    },
                    {
                        "number": 64,
                        "time": 383.6857782333339,
                        "value": 0
                    },
                    {
                        "number": 64,
                        "time": 383.8357782583339,
                        "value": 1
                    },
                    {
                        "number": 64,
                        "time": 384.8697070020839,
                        "value": 0
                    },
                    {
                        "number": 64,
                        "time": 384.9714927333339,
                        "value": 1
                    },
                    {
                        "number": 64,
                        "time": 385.71435000000054,
                        "value": 0
                    },
                    {
                        "number": 64,
                        "time": 385.8411357354172,
                        "value": 1
                    },
                    {
                        "number": 64,
                        "time": 386.2572072333339,
                        "value": 0
                    },
                    {
                        "number": 64,
                        "time": 386.40720725833387,
                        "value": 1
                    },
                    {
                        "number": 64,
                        "time": 386.78577875000053,
                        "value": 0
                    },
                    {
                        "number": 64,
                        "time": 386.9125644854172,
                        "value": 1
                    },
                    {
                        "number": 64,
                        "time": 387.42863600000055,
                        "value": 0
                    },
                    {
                        "number": 64,
                        "time": 387.5554217354172,
                        "value": 1
                    },
                    {
                        "number": 64,
                        "time": 387.9714932333339,
                        "value": 0
                    },
                    {
                        "number": 64,
                        "time": 388.1214932583339,
                        "value": 1
                    },
                    {
                        "number": 64,
                        "time": 388.50006475000055,
                        "value": 0
                    },
                    {
                        "number": 64,
                        "time": 388.6268504854172,
                        "value": 1
                    },
                    {
                        "number": 64,
                        "time": 390.21435075000056,
                        "value": 0
                    },
                    {
                        "number": 64,
                        "time": 390.37863649166724,
                        "value": 1
                    },
                    {
                        "number": 64,
                        "time": 390.8893508625006,
                        "value": 0
                    },
                    {
                        "number": 64,
                        "time": 391.0304223145839,
                        "value": 1
                    },
                    {
                        "number": 64,
                        "time": 391.72327957291725,
                        "value": 0
                    },
                    {
                        "number": 64,
                        "time": 391.8679224541672,
                        "value": 1
                    },
                    {
                        "number": 64,
                        "time": 392.5839940020839,
                        "value": 0
                    },
                    {
                        "number": 64,
                        "time": 392.6857797333339,
                        "value": 1
                    },
                    {
                        "number": 64,
                        "time": 393.46077986250054,
                        "value": 0
                    },
                    {
                        "number": 64,
                        "time": 393.6018513145839,
                        "value": 1
                    },
                    {
                        "number": 64,
                        "time": 394.2947085729172,
                        "value": 0
                    },
                    {
                        "number": 64,
                        "time": 394.4393514541672,
                        "value": 1
                    },
                    {
                        "number": 64,
                        "time": 395.15542300208386,
                        "value": 0
                    },
                    {
                        "number": 64,
                        "time": 395.25720873333387,
                        "value": 1
                    },
                    {
                        "number": 64,
                        "time": 396.0322088625005,
                        "value": 0
                    },
                    {
                        "number": 64,
                        "time": 396.17328031458385,
                        "value": 1
                    },
                    {
                        "number": 64,
                        "time": 396.8661375729172,
                        "value": 0
                    },
                    {
                        "number": 64,
                        "time": 397.01078045416716,
                        "value": 1
                    },
                    {
                        "number": 64,
                        "time": 397.72685200208383,
                        "value": 0
                    },
                    {
                        "number": 64,
                        "time": 397.82863773333384,
                        "value": 1
                    },
                    {
                        "number": 64,
                        "time": 398.6036378625005,
                        "value": 0
                    },
                    {
                        "number": 64,
                        "time": 398.7447093145838,
                        "value": 1
                    },
                    {
                        "number": 64,
                        "time": 399.43756657291715,
                        "value": 0
                    },
                    {
                        "number": 64,
                        "time": 399.5822094541671,
                        "value": 1
                    },
                    {
                        "number": 64,
                        "time": 400.2982810020838,
                        "value": 0
                    },
                    {
                        "number": 64,
                        "time": 400.4000667333338,
                        "value": 1
                    },
                    {
                        "number": 64,
                        "time": 401.17506686250044,
                        "value": 0
                    },
                    {
                        "number": 64,
                        "time": 401.3161383145838,
                        "value": 1
                    },
                    {
                        "number": 64,
                        "time": 402.0089955729171,
                        "value": 0
                    },
                    {
                        "number": 64,
                        "time": 402.1536384541671,
                        "value": 1
                    },
                    {
                        "number": 64,
                        "time": 402.86971000208376,
                        "value": 0
                    },
                    {
                        "number": 64,
                        "time": 402.97149573333377,
                        "value": 1
                    },
                    {
                        "number": 64,
                        "time": 403.7464958625004,
                        "value": 0
                    },
                    {
                        "number": 64,
                        "time": 403.88756731458375,
                        "value": 1
                    },
                    {
                        "number": 64,
                        "time": 404.5804245729171,
                        "value": 0
                    },
                    {
                        "number": 64,
                        "time": 404.72506745416706,
                        "value": 1
                    },
                    {
                        "number": 64,
                        "time": 405.44113900208373,
                        "value": 0
                    },
                    {
                        "number": 64,
                        "time": 405.54292473333373,
                        "value": 1
                    },
                    {
                        "number": 64,
                        "time": 406.3179248625004,
                        "value": 0
                    },
                    {
                        "number": 64,
                        "time": 406.4589963145837,
                        "value": 1
                    },
                    {
                        "number": 64,
                        "time": 407.15185357291705,
                        "value": 0
                    },
                    {
                        "number": 64,
                        "time": 407.296496454167,
                        "value": 1
                    },
                    {
                        "number": 64,
                        "time": 408.0125680020837,
                        "value": 0
                    },
                    {
                        "number": 64,
                        "time": 408.1143537333337,
                        "value": 1
                    },
                    {
                        "number": 64,
                        "time": 408.88935386250034,
                        "value": 0
                    },
                    {
                        "number": 64,
                        "time": 409.0304253145837,
                        "value": 1
                    },
                    {
                        "number": 64,
                        "time": 411.448282860417,
                        "value": 0
                    },
                    {
                        "number": 64,
                        "time": 411.57149716666703,
                        "value": 1
                    },
                    {
                        "number": 64,
                        "time": 412.653640204167,
                        "value": 0
                    },
                    {
                        "number": 64,
                        "time": 413.1554260020837,
                        "value": 0
                    },
                    {
                        "number": 64,
                        "time": 413.2572117333337,
                        "value": 1
                    },
                    {
                        "number": 64,
                        "time": 414.03221186250033,
                        "value": 0
                    },
                    {
                        "number": 64,
                        "time": 414.17328331458367,
                        "value": 1
                    },
                    {
                        "number": 64,
                        "time": 414.866140572917,
                        "value": 0
                    },
                    {
                        "number": 64,
                        "time": 415.010783454167,
                        "value": 1
                    },
                    {
                        "number": 64,
                        "time": 415.72685500208365,
                        "value": 0
                    },
                    {
                        "number": 64,
                        "time": 415.82864073333366,
                        "value": 1
                    },
                    {
                        "number": 64,
                        "time": 416.6036408625003,
                        "value": 0
                    },
                    {
                        "number": 64,
                        "time": 416.74471231458364,
                        "value": 1
                    },
                    {
                        "number": 64,
                        "time": 418.09114111041697,
                        "value": 0
                    },
                    {
                        "number": 64,
                        "time": 418.2982840020836,
                        "value": 1
                    },
                    {
                        "number": 64,
                        "time": 418.9464983958336,
                        "value": 0
                    },
                    {
                        "number": 64,
                        "time": 419.26971273541693,
                        "value": 1
                    },
                    {
                        "number": 64,
                        "time": 420.6607843958336,
                        "value": 0
                    },
                    {
                        "number": 64,
                        "time": 420.8947130062503,
                        "value": 1
                    },
                    {
                        "number": 64,
                        "time": 421.5161416812503,
                        "value": 0
                    },
                    {
                        "number": 64,
                        "time": 421.77685601041696,
                        "value": 1
                    },
                    {
                        "number": 64,
                        "time": 422.3375703895836,
                        "value": 0
                    },
                    {
                        "number": 64,
                        "time": 423.0179276458336,
                        "value": 0
                    },
                    {
                        "number": 64,
                        "time": 423.1893562458336,
                        "value": 1
                    },
                    {
                        "number": 64,
                        "time": 424.0893563958336,
                        "value": 0
                    },
                    {
                        "number": 64,
                        "time": 424.4125707354169,
                        "value": 1
                    },
                    {
                        "number": 64,
                        "time": 425.8036423958336,
                        "value": 0
                    },
                    {
                        "number": 64,
                        "time": 426.01078528750025,
                        "value": 1
                    },
                    {
                        "number": 64,
                        "time": 426.65899968125024,
                        "value": 0
                    },
                    {
                        "number": 64,
                        "time": 426.9197140104169,
                        "value": 1
                    },
                    {
                        "number": 64,
                        "time": 428.3750713958336,
                        "value": 0
                    },
                    {
                        "number": 64,
                        "time": 428.5804285729169,
                        "value": 1
                    },
                    {
                        "number": 64,
                        "time": 428.8054286104169,
                        "value": 0
                    },
                    {
                        "number": 64,
                        "time": 428.9500714916669,
                        "value": 1
                    },
                    {
                        "number": 64,
                        "time": 429.2232858229169,
                        "value": 0
                    },
                    {
                        "number": 64,
                        "time": 429.31614298125027,
                        "value": 1
                    },
                    {
                        "number": 64,
                        "time": 429.42864300000025,
                        "value": 0
                    },
                    {
                        "number": 64,
                        "time": 429.5554287354169,
                        "value": 1
                    },
                    {
                        "number": 64,
                        "time": 429.9715002333336,
                        "value": 0
                    },
                    {
                        "number": 64,
                        "time": 430.1215002583336,
                        "value": 1
                    },
                    {
                        "number": 64,
                        "time": 431.15542900208357,
                        "value": 0
                    },
                    {
                        "number": 64,
                        "time": 431.25721473333357,
                        "value": 1
                    },
                    {
                        "number": 64,
                        "time": 432.0000720000002,
                        "value": 0
                    },
                    {
                        "number": 64,
                        "time": 432.1268577354169,
                        "value": 1
                    },
                    {
                        "number": 64,
                        "time": 432.54292923333355,
                        "value": 0
                    },
                    {
                        "number": 64,
                        "time": 432.69292925833355,
                        "value": 1
                    },
                    {
                        "number": 64,
                        "time": 433.72685800208353,
                        "value": 0
                    },
                    {
                        "number": 64,
                        "time": 433.82864373333354,
                        "value": 1
                    },
                    {
                        "number": 64,
                        "time": 434.5715010000002,
                        "value": 0
                    },
                    {
                        "number": 64,
                        "time": 434.69828673541684,
                        "value": 1
                    },
                    {
                        "number": 64,
                        "time": 435.1143582333335,
                        "value": 0
                    },
                    {
                        "number": 64,
                        "time": 435.2643582583335,
                        "value": 1
                    },
                    {
                        "number": 64,
                        "time": 436.2982870020835,
                        "value": 0
                    },
                    {
                        "number": 64,
                        "time": 436.4000727333335,
                        "value": 1
                    },
                    {
                        "number": 64,
                        "time": 437.14293000000015,
                        "value": 0
                    },
                    {
                        "number": 64,
                        "time": 437.2697157354168,
                        "value": 1
                    },
                    {
                        "number": 64,
                        "time": 438.21435875000014,
                        "value": 0
                    },
                    {
                        "number": 64,
                        "time": 438.3411444854168,
                        "value": 1
                    },
                    {
                        "number": 64,
                        "time": 438.86971600208346,
                        "value": 0
                    },
                    {
                        "number": 64,
                        "time": 438.97150173333347,
                        "value": 1
                    },
                    {
                        "number": 64,
                        "time": 439.7143590000001,
                        "value": 0
                    },
                    {
                        "number": 64,
                        "time": 439.8411447354168,
                        "value": 1
                    },
                    {
                        "number": 64,
                        "time": 441.44114500208343,
                        "value": 0
                    },
                    {
                        "number": 64,
                        "time": 441.54293073333344,
                        "value": 1
                    },
                    {
                        "number": 64,
                        "time": 441.86435935833345,
                        "value": 0
                    },
                    {
                        "number": 64,
                        "time": 442.0107879541668,
                        "value": 1
                    },
                    {
                        "number": 64,
                        "time": 442.28578800000014,
                        "value": 0
                    },
                    {
                        "number": 64,
                        "time": 442.4125737354168,
                        "value": 1
                    },
                    {
                        "number": 64,
                        "time": 445.7304314312501,
                        "value": 0
                    },
                    {
                        "number": 64,
                        "time": 445.86793145416675,
                        "value": 1
                    },
                    {
                        "number": 64,
                        "time": 449.16793200416674,
                        "value": 0
                    },
                    {
                        "number": 64,
                        "time": 449.3482891770834,
                        "value": 1
                    },
                    {
                        "number": 64,
                        "time": 451.94828961041674,
                        "value": 0
                    },
                    {
                        "number": 64,
                        "time": 452.08221820416674,
                        "value": 1
                    },
                    {
                        "number": 64,
                        "time": 454.31079000416673,
                        "value": 0
                    },
                    {
                        "number": 64,
                        "time": 454.4911471770834,
                        "value": 1
                    },
                    {
                        "number": 64,
                        "time": 454.73400436041675,
                        "value": 0
                    },
                    {
                        "number": 64,
                        "time": 454.9090043895834,
                        "value": 1
                    },
                    {
                        "number": 64,
                        "time": 455.36614732291673,
                        "value": 0
                    },
                    {
                        "number": 64,
                        "time": 455.4590044812501,
                        "value": 1
                    },
                    {
                        "number": 64,
                        "time": 456.02507600416675,
                        "value": 0
                    },
                    {
                        "number": 64,
                        "time": 456.2054331770834,
                        "value": 1
                    },
                    {
                        "number": 64,
                        "time": 456.44829036041676,
                        "value": 0
                    },
                    {
                        "number": 64,
                        "time": 456.6232903895834,
                        "value": 1
                    },
                    {
                        "number": 64,
                        "time": 457.08043332291675,
                        "value": 0
                    },
                    {
                        "number": 64,
                        "time": 457.1732904812501,
                        "value": 1
                    },
                    {
                        "number": 64,
                        "time": 457.73936200416676,
                        "value": 0
                    },
                    {
                        "number": 64,
                        "time": 457.8268620187501,
                        "value": 1
                    },
                    {
                        "number": 64,
                        "time": 458.1625763604168,
                        "value": 0
                    },
                    {
                        "number": 64,
                        "time": 458.33757638958343,
                        "value": 1
                    },
                    {
                        "number": 64,
                        "time": 458.7857907500001,
                        "value": 0
                    },
                    {
                        "number": 64,
                        "time": 459.1072193750001,
                        "value": 1
                    },
                    {
                        "number": 64,
                        "time": 459.4447194312501,
                        "value": 0
                    },
                    {
                        "number": 64,
                        "time": 459.65364803750015,
                        "value": 1
                    },
                    {
                        "number": 64,
                        "time": 459.8768623604168,
                        "value": 0
                    },
                    {
                        "number": 64,
                        "time": 460.0822195375001,
                        "value": 1
                    },
                    {
                        "number": 64,
                        "time": 460.28579100000013,
                        "value": 0
                    },
                    {
                        "number": 64,
                        "time": 460.57150533333345,
                        "value": 1
                    },
                    {
                        "number": 64,
                        "time": 461.5857912166668,
                        "value": 0
                    },
                    {
                        "number": 64,
                        "time": 461.8161483979168,
                        "value": 1
                    },
                    {
                        "number": 64,
                        "time": 462.47864850833344,
                        "value": 0
                    },
                    {
                        "number": 64,
                        "time": 462.6929342583334,
                        "value": 1
                    },
                    {
                        "number": 64,
                        "time": 462.8572200000001,
                        "value": 0
                    },
                    {
                        "number": 64,
                        "time": 462.9804343062501,
                        "value": 1
                    },
                    {
                        "number": 64,
                        "time": 463.7304344312501,
                        "value": 0
                    },
                    {
                        "number": 64,
                        "time": 464.21079165416677,
                        "value": 1
                    },
                    {
                        "number": 64,
                        "time": 464.59472028958345,
                        "value": 0
                    },
                    {
                        "number": 64,
                        "time": 464.79650603750014,
                        "value": 1
                    },
                    {
                        "number": 64,
                        "time": 465.0268632187501,
                        "value": 0
                    },
                    {
                        "number": 64,
                        "time": 465.18400610208346,
                        "value": 1
                    },
                    {
                        "number": 64,
                        "time": 465.4393632875001,
                        "value": 0
                    },
                    {
                        "number": 64,
                        "time": 465.5250775875001,
                        "value": 1
                    },
                    {
                        "number": 64,
                        "time": 466.7304349312501,
                        "value": 0
                    },
                    {
                        "number": 64,
                        "time": 466.8107920875001,
                        "value": 1
                    },
                    {
                        "number": 64,
                        "time": 467.16793500416674,
                        "value": 0
                    },
                    {
                        "number": 64,
                        "time": 467.30722074166675,
                        "value": 1
                    },
                    {
                        "number": 64,
                        "time": 467.5982922187501,
                        "value": 0
                    },
                    {
                        "number": 64,
                        "time": 467.6786493750001,
                        "value": 1
                    },
                    {
                        "number": 64,
                        "time": 468.0000780000001,
                        "value": 0
                    },
                    {
                        "number": 64,
                        "time": 468.24472089791675,
                        "value": 1
                    },
                    {
                        "number": 64,
                        "time": 468.88222100416675,
                        "value": 0
                    },
                    {
                        "number": 64,
                        "time": 469.3929353750001,
                        "value": 1
                    },
                    {
                        "number": 64,
                        "time": 469.7304354312501,
                        "value": 0
                    },
                    {
                        "number": 64,
                        "time": 469.91972117708343,
                        "value": 1
                    },
                    {
                        "number": 64,
                        "time": 470.1679355041668,
                        "value": 0
                    },
                    {
                        "number": 64,
                        "time": 470.32686410208345,
                        "value": 1
                    },
                    {
                        "number": 64,
                        "time": 470.57864985833345,
                        "value": 0
                    },
                    {
                        "number": 64,
                        "time": 470.8232927562501,
                        "value": 1
                    },
                    {
                        "number": 64,
                        "time": 472.08400725208344,
                        "value": 0
                    },
                    {
                        "number": 64,
                        "time": 472.14829297708343,
                        "value": 1
                    },
                    {
                        "number": 64,
                        "time": 472.3125787187501,
                        "value": 0
                    },
                    {
                        "number": 64,
                        "time": 472.47507874583346,
                        "value": 1
                    },
                    {
                        "number": 64,
                        "time": 472.7322216458335,
                        "value": 0
                    },
                    {
                        "number": 64,
                        "time": 472.87865024166683,
                        "value": 1
                    },
                    {
                        "number": 64,
                        "time": 473.1500788583335,
                        "value": 0
                    },
                    {
                        "number": 64,
                        "time": 473.39472175625014,
                        "value": 1
                    },
                    {
                        "number": 64,
                        "time": 474.65007910833344,
                        "value": 0
                    },
                    {
                        "number": 64,
                        "time": 474.73222197916675,
                        "value": 1
                    },
                    {
                        "number": 64,
                        "time": 474.88400771875007,
                        "value": 0
                    },
                    {
                        "number": 64,
                        "time": 475.0465077458334,
                        "value": 1
                    },
                    {
                        "number": 64,
                        "time": 475.30365064583344,
                        "value": 0
                    },
                    {
                        "number": 64,
                        "time": 475.4500792416668,
                        "value": 1
                    },
                    {
                        "number": 64,
                        "time": 475.72150785833344,
                        "value": 0
                    },
                    {
                        "number": 64,
                        "time": 475.9661507562501,
                        "value": 1
                    },
                    {
                        "number": 64,
                        "time": 477.23222239583345,
                        "value": 0
                    },
                    {
                        "number": 64,
                        "time": 477.32865098333343,
                        "value": 1
                    },
                    {
                        "number": 64,
                        "time": 477.4572224333334,
                        "value": 0
                    },
                    {
                        "number": 64,
                        "time": 477.6929367583334,
                        "value": 1
                    },
                    {
                        "number": 64,
                        "time": 477.8750796458334,
                        "value": 0
                    },
                    {
                        "number": 64,
                        "time": 478.02150824166677,
                        "value": 1
                    },
                    {
                        "number": 64,
                        "time": 478.2929368583334,
                        "value": 0
                    },
                    {
                        "number": 64,
                        "time": 478.53757975625007,
                        "value": 1
                    },
                    {
                        "number": 64,
                        "time": 479.80722282500005,
                        "value": 0
                    },
                    {
                        "number": 64,
                        "time": 479.90365141250004,
                        "value": 1
                    },
                    {
                        "number": 64,
                        "time": 480.02686571875006,
                        "value": 0
                    },
                    {
                        "number": 64,
                        "time": 480.1893657458334,
                        "value": 1
                    },
                    {
                        "number": 64,
                        "time": 480.44650864583343,
                        "value": 0
                    },
                    {
                        "number": 64,
                        "time": 480.5929372416668,
                        "value": 1
                    },
                    {
                        "number": 64,
                        "time": 480.86436585833343,
                        "value": 0
                    },
                    {
                        "number": 64,
                        "time": 481.1090087562501,
                        "value": 1
                    },
                    {
                        "number": 64,
                        "time": 482.81258046875007,
                        "value": 0
                    },
                    {
                        "number": 64,
                        "time": 482.9911519270834,
                        "value": 1
                    },
                    {
                        "number": 64,
                        "time": 484.5179378958334,
                        "value": 0
                    },
                    {
                        "number": 64,
                        "time": 484.72686650208345,
                        "value": 1
                    },
                    {
                        "number": 64,
                        "time": 486.2411524687501,
                        "value": 0
                    },
                    {
                        "number": 64,
                        "time": 486.41972392708345,
                        "value": 1
                    },
                    {
                        "number": 64,
                        "time": 487.9393670375001,
                        "value": 0
                    },
                    {
                        "number": 64,
                        "time": 488.0822242041668,
                        "value": 1
                    },
                    {
                        "number": 64,
                        "time": 496.2857970000001,
                        "value": 0
                    },
                    {
                        "number": 64,
                        "time": 496.3875827312501,
                        "value": 1
                    },
                    {
                        "number": 64,
                        "time": 498.0268687187501,
                        "value": 0
                    },
                    {
                        "number": 64,
                        "time": 498.11436873333344,
                        "value": 1
                    },
                    {
                        "number": 64,
                        "time": 498.8572260000001,
                        "value": 0
                    },
                    {
                        "number": 64,
                        "time": 498.9590117312501,
                        "value": 1
                    },
                    {
                        "number": 64,
                        "time": 500.5982977187501,
                        "value": 0
                    },
                    {
                        "number": 64,
                        "time": 500.6857977333334,
                        "value": 1
                    },
                    {
                        "number": 64,
                        "time": 501.42865500000005,
                        "value": 0
                    },
                    {
                        "number": 64,
                        "time": 501.5929407416667,
                        "value": 1
                    },
                    {
                        "number": 64,
                        "time": 501.8715122166667,
                        "value": 0
                    },
                    {
                        "number": 64,
                        "time": 501.9715122333334,
                        "value": 1
                    },
                    {
                        "number": 64,
                        "time": 502.31258371875003,
                        "value": 0
                    },
                    {
                        "number": 64,
                        "time": 502.46258374375003,
                        "value": 1
                    },
                    {
                        "number": 64,
                        "time": 503.16972671875004,
                        "value": 0
                    },
                    {
                        "number": 64,
                        "time": 503.31972674375004,
                        "value": 1
                    },
                    {
                        "number": 64,
                        "time": 504.000084,
                        "value": 0
                    },
                    {
                        "number": 64,
                        "time": 504.05722686666667,
                        "value": 1
                    },
                    {
                        "number": 64,
                        "time": 504.2322268958333,
                        "value": 0
                    },
                    {
                        "number": 64,
                        "time": 504.30365547916665,
                        "value": 1
                    },
                    {
                        "number": 64,
                        "time": 505.74115571875,
                        "value": 0
                    },
                    {
                        "number": 64,
                        "time": 505.84651287916665,
                        "value": 1
                    },
                    {
                        "number": 64,
                        "time": 506.571513,
                        "value": 0
                    },
                    {
                        "number": 64,
                        "time": 506.62865586666663,
                        "value": 1
                    },
                    {
                        "number": 64,
                        "time": 508.31258471875,
                        "value": 0
                    },
                    {
                        "number": 64,
                        "time": 508.4179418791666,
                        "value": 1
                    },
                    {
                        "number": 64,
                        "time": 509.14294199999995,
                        "value": 0
                    },
                    {
                        "number": 64,
                        "time": 509.2000848666666,
                        "value": 1
                    },
                    {
                        "number": 64,
                        "time": 510.88401371874994,
                        "value": 0
                    },
                    {
                        "number": 64,
                        "time": 510.9893708791666,
                        "value": 1
                    },
                    {
                        "number": 64,
                        "time": 511.7143709999999,
                        "value": 0
                    },
                    {
                        "number": 64,
                        "time": 511.77151386666657,
                        "value": 1
                    },
                    {
                        "number": 64,
                        "time": 513.4554427187499,
                        "value": 0
                    },
                    {
                        "number": 64,
                        "time": 513.5607998791666,
                        "value": 1
                    },
                    {
                        "number": 64,
                        "time": 514.2857999999999,
                        "value": 0
                    },
                    {
                        "number": 64,
                        "time": 514.3429428666666,
                        "value": 1
                    },
                    {
                        "number": 64,
                        "time": 516.0268717187499,
                        "value": 0
                    },
                    {
                        "number": 64,
                        "time": 516.1322288791666,
                        "value": 1
                    },
                    {
                        "number": 64,
                        "time": 516.857229,
                        "value": 0
                    },
                    {
                        "number": 64,
                        "time": 516.9143718666667,
                        "value": 1
                    },
                    {
                        "number": 64,
                        "time": 518.59830071875,
                        "value": 0
                    },
                    {
                        "number": 64,
                        "time": 518.7036578791667,
                        "value": 1
                    },
                    {
                        "number": 64,
                        "time": 519.428658,
                        "value": 0
                    },
                    {
                        "number": 64,
                        "time": 519.4858008666668,
                        "value": 1
                    },
                    {
                        "number": 64,
                        "time": 521.1697297187501,
                        "value": 0
                    },
                    {
                        "number": 64,
                        "time": 521.2750868791668,
                        "value": 1
                    },
                    {
                        "number": 64,
                        "time": 522.0000870000001,
                        "value": 0
                    },
                    {
                        "number": 64,
                        "time": 522.0572298666668,
                        "value": 1
                    },
                    {
                        "number": 64,
                        "time": 523.7411587187502,
                        "value": 0
                    },
                    {
                        "number": 64,
                        "time": 523.8465158791669,
                        "value": 1
                    },
                    {
                        "number": 64,
                        "time": 524.1697302187503,
                        "value": 0
                    },
                    {
                        "number": 64,
                        "time": 524.2554445187502,
                        "value": 1
                    },
                    {
                        "number": 64,
                        "time": 524.5822302875002,
                        "value": 0
                    },
                    {
                        "number": 64,
                        "time": 524.7554446020836,
                        "value": 1
                    },
                    {
                        "number": 64,
                        "time": 531.8572315000002,
                        "value": 0
                    }
                ]
            },
            "id": 3,
            "name": "Pedale",
            "instrumentNumber": 0,
            "instrument": "acoustic grand piano",
            "instrumentFamily": "piano",
            "channelNumber": 0,
            "isPercussion": false
        },
        {
            "startTime": 0,
            "duration": 0,
            "length": 0,
            "notes": [],
            "controlChanges": {},
            "id": 4,
            "name": "Schubert: Sonata D850, 2. movement"
        },
        {
            "startTime": 0,
            "duration": 0,
            "length": 0,
            "notes": [],
            "controlChanges": {},
            "id": 5,
            "name": "Copyright  2010 by Bernd Krueger"
        },
        {
            "startTime": 0,
            "duration": 0,
            "length": 0,
            "notes": [],
            "controlChanges": {},
            "id": 6,
            "name": "http://www.piano-midi.de/"
        },
        {
            "startTime": 0,
            "duration": 0,
            "length": 0,
            "notes": [],
            "controlChanges": {},
            "id": 7,
            "name": "Edition: 2014-03-13"
        },
        {
            "startTime": 0,
            "duration": 0,
            "length": 0,
            "notes": [],
            "controlChanges": {},
            "id": 8,
            "name": "Spur 8"
        },
        {
            "startTime": 0,
            "duration": 0,
            "length": 0,
            "notes": [],
            "controlChanges": {},
            "id": 9,
            "name": "Spur 9"
        },
        {
            "startTime": 0,
            "duration": 0,
            "length": 0,
            "notes": [],
            "controlChanges": {},
            "id": 10,
            "name": "Spur 10"
        },
        {
            "startTime": 0,
            "duration": 0,
            "length": 0,
            "notes": [],
            "controlChanges": {},
            "id": 11,
            "name": "Spur 11"
        },
        {
            "startTime": 0,
            "duration": 0,
            "length": 0,
            "notes": [],
            "controlChanges": {},
            "id": 12,
            "name": "Spur 12"
        },
        {
            "startTime": 0,
            "duration": 0,
            "length": 0,
            "notes": [],
            "controlChanges": {},
            "id": 13,
            "name": "Spur 13"
        },
        {
            "startTime": 0,
            "duration": 0,
            "length": 0,
            "notes": [],
            "controlChanges": {},
            "id": 14,
            "name": "Spur 14"
        },
        {
            "startTime": 0,
            "duration": 0,
            "length": 0,
            "notes": [],
            "controlChanges": {},
            "id": 15,
            "name": "Spur 15"
        },
        {
            "startTime": 0,
            "duration": 0,
            "length": 0,
            "notes": [],
            "controlChanges": {},
            "id": 16,
            "name": "Spur 16"
        }
    ]
}